; Drill file
; Format: 2.4 (00.0000)
M48
INCH
T01C0.0236
T02C0.0354
T03C0.1299
%
G05
G90
T01
X011910Y011240
X012910Y018740
X014910Y018740
X029410Y020740
T02
X006000Y002370
X006750Y004370
X006750Y006370
X005730Y008350
X003140Y009100
X003140Y010100
X005720Y011350
X004730Y013350
X003140Y013600
X003140Y014600
X004720Y016350
X003000Y018370
X007000Y021370
X007730Y016350
X007720Y013350
X008730Y011350
X010480Y010100
X008720Y008350
X010480Y007100
X012140Y006100
X014150Y006110
X014080Y004350
X016000Y002370
X018750Y004370
X020750Y004370
X024500Y002370
X022910Y010990
X021910Y010990
X020910Y010990
X019910Y010990
X018910Y014740
X018910Y015740
X018910Y016740
X017910Y016740
X016910Y016740
X015910Y016740
X014910Y016740
X013910Y016740
X012910Y016740
X012910Y015740
X012910Y014740
X013910Y014740
X014910Y014740
X015910Y014740
X016910Y014740
X017910Y014740
X022910Y014740
X022910Y015740
X022910Y016740
X023910Y016740
X024910Y016740
X025910Y016740
X026910Y016740
X027910Y016740
X028910Y016740
X028910Y015740
X028910Y014740
X027910Y014740
X026910Y014740
X025910Y014740
X024910Y014740
X023910Y014740
X029000Y012130
X028640Y019100
X028640Y020100
X021750Y021310
X014910Y019740
X013910Y019740
X012910Y019740
X013250Y010500
X013250Y009500
X015670Y009750
X015680Y007740
X011080Y004350
X003000Y006870
T03
X003000Y002620
X003000Y021120
X026000Y021120
X029000Y002620
M30
