%FSLAX34Y34*%
%MOMM*%
%LNCOPPER_TOP*%
G71*
G01*
%ADD10C,2.800*%
%ADD11C,1.400*%
%ADD12C,1.800*%
%ADD13C,3.200*%
%ADD14C,2.800*%
%ADD15C,1.800*%
%ADD16C,0.667*%
%ADD17C,0.500*%
%ADD18C,0.680*%
%ADD19C,1.467*%
%ADD20C,2.000*%
%ADD21C,0.600*%
%ADD22C,1.000*%
%ADD23C,2.000*%
%ADD24C,4.300*%
%ADD25C,1.000*%
%LPD*%
G36*
X0Y600000D02*
X800000Y600000D01*
X800000Y0D01*
X0Y0D01*
X0Y600000D01*
G37*
%LPC*%
X581800Y425210D02*
G54D10*
D03*
X607200Y425210D02*
G54D10*
D03*
X607200Y425210D02*
G54D10*
D03*
X632600Y425210D02*
G54D10*
D03*
X632600Y425210D02*
G54D10*
D03*
X658000Y425210D02*
G54D10*
D03*
X658000Y425210D02*
G54D10*
D03*
X683400Y425210D02*
G54D10*
D03*
X683400Y425210D02*
G54D10*
D03*
X708800Y425210D02*
G54D10*
D03*
X708800Y425210D02*
G54D10*
D03*
X734200Y425210D02*
G54D10*
D03*
X734200Y425210D02*
G54D10*
D03*
X734200Y399810D02*
G54D10*
D03*
X734200Y399810D02*
G54D10*
D03*
X734200Y374410D02*
G54D10*
D03*
X581800Y425210D02*
G54D10*
D03*
X581800Y399810D02*
G54D10*
D03*
X581800Y399810D02*
G54D10*
D03*
X581800Y374410D02*
G54D10*
D03*
X581800Y374410D02*
G54D10*
D03*
X607200Y374410D02*
G54D10*
D03*
X607200Y374410D02*
G54D10*
D03*
X632600Y374410D02*
G54D10*
D03*
X632600Y374410D02*
G54D10*
D03*
X658000Y374410D02*
G54D10*
D03*
X658000Y374410D02*
G54D10*
D03*
X683400Y374410D02*
G54D10*
D03*
X683400Y374410D02*
G54D10*
D03*
X708800Y374410D02*
G54D10*
D03*
X708800Y374410D02*
G54D10*
D03*
X734200Y374410D02*
G54D10*
D03*
X734200Y374410D02*
G54D10*
D03*
X581800Y374410D02*
G54D10*
D03*
X327800Y425210D02*
G54D10*
D03*
X353200Y425210D02*
G54D10*
D03*
X353200Y425210D02*
G54D10*
D03*
X378600Y425210D02*
G54D10*
D03*
X378600Y425210D02*
G54D10*
D03*
X404000Y425210D02*
G54D10*
D03*
X404000Y425210D02*
G54D10*
D03*
X429400Y425210D02*
G54D10*
D03*
X429400Y425210D02*
G54D10*
D03*
X454800Y425210D02*
G54D10*
D03*
X454800Y425210D02*
G54D10*
D03*
X480200Y425210D02*
G54D10*
D03*
X480200Y425210D02*
G54D10*
D03*
X480200Y399810D02*
G54D10*
D03*
X480200Y399810D02*
G54D10*
D03*
X480200Y374410D02*
G54D10*
D03*
X327800Y425210D02*
G54D10*
D03*
X327800Y399810D02*
G54D10*
D03*
X327800Y399810D02*
G54D10*
D03*
X327800Y374410D02*
G54D10*
D03*
X327800Y374410D02*
G54D10*
D03*
X353200Y374410D02*
G54D10*
D03*
X353200Y374410D02*
G54D10*
D03*
X378600Y374410D02*
G54D10*
D03*
X378600Y374410D02*
G54D10*
D03*
X404000Y374410D02*
G54D10*
D03*
X404000Y374410D02*
G54D10*
D03*
X429400Y374410D02*
G54D10*
D03*
X429400Y374410D02*
G54D10*
D03*
X454800Y374410D02*
G54D10*
D03*
X454800Y374410D02*
G54D10*
D03*
X480200Y374410D02*
G54D10*
D03*
X480200Y374410D02*
G54D10*
D03*
X327800Y374410D02*
G54D10*
D03*
X505600Y279160D02*
G54D10*
D03*
X505600Y279160D02*
G54D10*
D03*
X531000Y279160D02*
G54D10*
D03*
X531000Y279160D02*
G54D10*
D03*
X556400Y279160D02*
G54D10*
D03*
X556400Y279160D02*
G54D10*
D03*
X581800Y279160D02*
G54D10*
D03*
X581800Y279160D02*
G54D10*
D03*
X327800Y501410D02*
G54D10*
D03*
X353200Y501410D02*
G54D10*
D03*
X378600Y501410D02*
G54D10*
D03*
G54D11*
X378600Y501410D02*
X375450Y504560D01*
X438950Y441060D01*
X489750Y441060D01*
X553250Y377560D01*
X578650Y377560D01*
X581800Y374410D01*
G54D11*
X378600Y501410D02*
X375450Y504560D01*
X438950Y441060D01*
X489750Y441060D01*
X502450Y428360D01*
X502450Y282310D01*
X505600Y279160D01*
G36*
X540950Y552800D02*
X563950Y552800D01*
X563950Y529800D01*
X540950Y529800D01*
X540950Y552800D01*
G37*
X327800Y476010D02*
G54D12*
D03*
X378600Y476010D02*
G54D12*
D03*
X336550Y266750D02*
G54D10*
D03*
X336550Y241350D02*
G54D10*
D03*
X171450Y161850D02*
G54D10*
D03*
X171450Y111050D02*
G54D10*
D03*
X476250Y111050D02*
G54D10*
D03*
X527050Y111050D02*
G54D10*
D03*
X266117Y256616D02*
G54D13*
D03*
X266067Y180366D02*
G54D13*
D03*
X266117Y256616D02*
G54D14*
D03*
X398131Y247602D02*
G54D13*
D03*
X398243Y196621D02*
G54D13*
D03*
X398131Y247602D02*
G54D14*
D03*
X359403Y155174D02*
G54D13*
D03*
X308422Y155061D02*
G54D13*
D03*
X359403Y155174D02*
G54D14*
D03*
X357616Y110438D02*
G54D13*
D03*
X281366Y110488D02*
G54D13*
D03*
X357616Y110439D02*
G54D14*
D03*
X145467Y288366D02*
G54D13*
D03*
X145417Y212116D02*
G54D13*
D03*
X145467Y288366D02*
G54D14*
D03*
X221658Y288292D02*
G54D13*
D03*
X145408Y288342D02*
G54D13*
D03*
X221658Y288292D02*
G54D14*
D03*
X221658Y288292D02*
G54D13*
D03*
X221608Y212042D02*
G54D13*
D03*
X221658Y288292D02*
G54D14*
D03*
X120068Y415366D02*
G54D13*
D03*
X120017Y339116D02*
G54D13*
D03*
X120067Y415366D02*
G54D14*
D03*
X196258Y415292D02*
G54D13*
D03*
X120008Y415342D02*
G54D13*
D03*
X196258Y415292D02*
G54D14*
D03*
X196258Y415292D02*
G54D13*
D03*
X196208Y339042D02*
G54D13*
D03*
X196258Y415292D02*
G54D14*
D03*
X79823Y256661D02*
G54D10*
D03*
X79823Y231261D02*
G54D10*
D03*
X79823Y370961D02*
G54D10*
D03*
X79823Y345561D02*
G54D10*
D03*
X727523Y510661D02*
G54D10*
D03*
X727523Y485261D02*
G54D10*
D03*
X746900Y526810D02*
G54D12*
D03*
X302400Y285510D02*
G54D12*
D03*
G54D11*
X302400Y285510D02*
X304800Y282550D01*
X317500Y269850D01*
X336550Y269850D01*
X336550Y266750D01*
G54D11*
X746900Y526810D02*
X749300Y523850D01*
X736600Y511150D01*
X730250Y511150D01*
X727523Y510661D01*
G36*
X138400Y74300D02*
X166400Y74300D01*
X166400Y46300D01*
X138400Y46300D01*
X138400Y74300D01*
G37*
G36*
X392400Y74300D02*
X420400Y74300D01*
X420400Y46300D01*
X392400Y46300D01*
X392400Y74300D01*
G37*
G36*
X62200Y188600D02*
X90200Y188600D01*
X90200Y160600D01*
X62200Y160600D01*
X62200Y188600D01*
G37*
X736600Y308100D02*
G54D10*
D03*
G54D15*
X727523Y510661D02*
X723900Y511300D01*
X736600Y511300D01*
X762000Y485900D01*
X762000Y371600D01*
X520700Y130300D01*
X520700Y104900D01*
X527050Y111050D01*
G54D15*
X221658Y288292D02*
X215900Y282700D01*
X304800Y371600D01*
X304800Y435100D01*
X342900Y473200D01*
X355600Y473200D01*
X381000Y498600D01*
X378600Y501410D01*
G36*
X608300Y74300D02*
X636300Y74300D01*
X636300Y46300D01*
X608300Y46300D01*
X608300Y74300D01*
G37*
G36*
X163800Y556900D02*
X191800Y556900D01*
X191800Y528900D01*
X163800Y528900D01*
X163800Y556900D01*
G37*
G36*
X62200Y480700D02*
X90200Y480700D01*
X90200Y452700D01*
X62200Y452700D01*
X62200Y480700D01*
G37*
%LPD*%
G54D16*
G36*
X629267Y425210D02*
X629267Y439710D01*
X635933Y439710D01*
X635933Y425210D01*
X629267Y425210D01*
G37*
G36*
X632600Y428543D02*
X647100Y428543D01*
X647100Y421877D01*
X632600Y421877D01*
X632600Y428543D01*
G37*
G36*
X635933Y425210D02*
X635933Y410710D01*
X629267Y410710D01*
X629267Y425210D01*
X635933Y425210D01*
G37*
G36*
X632600Y421877D02*
X618100Y421877D01*
X618100Y428543D01*
X632600Y428543D01*
X632600Y421877D01*
G37*
G54D16*
G36*
X581800Y428543D02*
X596300Y428543D01*
X596300Y421877D01*
X581800Y421877D01*
X581800Y428543D01*
G37*
G36*
X585133Y425210D02*
X585133Y410710D01*
X578467Y410710D01*
X578467Y425210D01*
X585133Y425210D01*
G37*
G36*
X581800Y421877D02*
X567300Y421877D01*
X567300Y428543D01*
X581800Y428543D01*
X581800Y421877D01*
G37*
G36*
X578467Y425210D02*
X578467Y439710D01*
X585133Y439710D01*
X585133Y425210D01*
X578467Y425210D01*
G37*
G54D16*
G36*
X629267Y374410D02*
X629267Y388910D01*
X635933Y388910D01*
X635933Y374410D01*
X629267Y374410D01*
G37*
G36*
X632600Y377743D02*
X647100Y377743D01*
X647100Y371077D01*
X632600Y371077D01*
X632600Y377743D01*
G37*
G36*
X635933Y374410D02*
X635933Y359910D01*
X629267Y359910D01*
X629267Y374410D01*
X635933Y374410D01*
G37*
G36*
X632600Y371077D02*
X618100Y371077D01*
X618100Y377743D01*
X632600Y377743D01*
X632600Y371077D01*
G37*
G54D16*
G36*
X734200Y377743D02*
X748700Y377743D01*
X748700Y371077D01*
X734200Y371077D01*
X734200Y377743D01*
G37*
G36*
X737533Y374410D02*
X737533Y359910D01*
X730867Y359910D01*
X730867Y374410D01*
X737533Y374410D01*
G37*
G36*
X734200Y371077D02*
X719700Y371077D01*
X719700Y377743D01*
X734200Y377743D01*
X734200Y371077D01*
G37*
G36*
X730867Y374410D02*
X730867Y388910D01*
X737533Y388910D01*
X737533Y374410D01*
X730867Y374410D01*
G37*
G54D16*
G36*
X375267Y425210D02*
X375267Y439710D01*
X381934Y439710D01*
X381934Y425210D01*
X375267Y425210D01*
G37*
G36*
X378600Y428543D02*
X393100Y428543D01*
X393100Y421877D01*
X378600Y421877D01*
X378600Y428543D01*
G37*
G36*
X381934Y425210D02*
X381934Y410710D01*
X375267Y410710D01*
X375267Y425210D01*
X381934Y425210D01*
G37*
G36*
X378600Y421877D02*
X364100Y421877D01*
X364100Y428543D01*
X378600Y428543D01*
X378600Y421877D01*
G37*
G54D16*
G36*
X327800Y428543D02*
X342300Y428543D01*
X342300Y421877D01*
X327800Y421877D01*
X327800Y428543D01*
G37*
G36*
X331133Y425210D02*
X331133Y410710D01*
X324467Y410710D01*
X324467Y425210D01*
X331133Y425210D01*
G37*
G36*
X327800Y421877D02*
X313300Y421877D01*
X313300Y428543D01*
X327800Y428543D01*
X327800Y421877D01*
G37*
G36*
X324467Y425210D02*
X324467Y439710D01*
X331133Y439710D01*
X331133Y425210D01*
X324467Y425210D01*
G37*
G54D16*
G36*
X375267Y374410D02*
X375267Y388910D01*
X381934Y388910D01*
X381934Y374410D01*
X375267Y374410D01*
G37*
G36*
X378600Y377743D02*
X393100Y377743D01*
X393100Y371077D01*
X378600Y371077D01*
X378600Y377743D01*
G37*
G36*
X381934Y374410D02*
X381934Y359910D01*
X375267Y359910D01*
X375267Y374410D01*
X381934Y374410D01*
G37*
G36*
X378600Y371077D02*
X364100Y371077D01*
X364100Y377743D01*
X378600Y377743D01*
X378600Y371077D01*
G37*
G54D16*
G36*
X480200Y377743D02*
X494700Y377743D01*
X494700Y371077D01*
X480200Y371077D01*
X480200Y377743D01*
G37*
G36*
X483534Y374410D02*
X483534Y359910D01*
X476867Y359910D01*
X476867Y374410D01*
X483534Y374410D01*
G37*
G36*
X480200Y371077D02*
X465700Y371077D01*
X465700Y377743D01*
X480200Y377743D01*
X480200Y371077D01*
G37*
G36*
X476867Y374410D02*
X476867Y388910D01*
X483534Y388910D01*
X483534Y374410D01*
X476867Y374410D01*
G37*
G54D16*
G36*
X527667Y279160D02*
X527667Y293660D01*
X534334Y293660D01*
X534334Y279160D01*
X527667Y279160D01*
G37*
G36*
X531000Y282493D02*
X545500Y282493D01*
X545500Y275827D01*
X531000Y275827D01*
X531000Y282493D01*
G37*
G36*
X534334Y279160D02*
X534334Y264660D01*
X527667Y264660D01*
X527667Y279160D01*
X534334Y279160D01*
G37*
G36*
X531000Y275827D02*
X516500Y275827D01*
X516500Y282493D01*
X531000Y282493D01*
X531000Y275827D01*
G37*
G54D16*
G36*
X349867Y501410D02*
X349867Y515910D01*
X356533Y515910D01*
X356533Y501410D01*
X349867Y501410D01*
G37*
G36*
X353200Y504743D02*
X367700Y504743D01*
X367700Y498077D01*
X353200Y498077D01*
X353200Y504743D01*
G37*
G36*
X356533Y501410D02*
X356533Y486910D01*
X349867Y486910D01*
X349867Y501410D01*
X356533Y501410D01*
G37*
G36*
X353200Y498077D02*
X338700Y498077D01*
X338700Y504743D01*
X353200Y504743D01*
X353200Y498077D01*
G37*
G54D17*
G36*
X549950Y541300D02*
X549950Y553300D01*
X554950Y553300D01*
X554950Y541300D01*
X549950Y541300D01*
G37*
G36*
X552450Y543800D02*
X564450Y543800D01*
X564450Y538800D01*
X552450Y538800D01*
X552450Y543800D01*
G37*
G36*
X554950Y541300D02*
X554950Y529300D01*
X549950Y529300D01*
X549950Y541300D01*
X554950Y541300D01*
G37*
G36*
X552450Y538800D02*
X540450Y538800D01*
X540450Y543800D01*
X552450Y543800D01*
X552450Y538800D01*
G37*
G54D18*
G36*
X171450Y165250D02*
X185950Y165250D01*
X185950Y158450D01*
X171450Y158450D01*
X171450Y165250D01*
G37*
G36*
X174850Y161850D02*
X174850Y147350D01*
X168050Y147350D01*
X168050Y161850D01*
X174850Y161850D01*
G37*
G36*
X171450Y158450D02*
X156950Y158450D01*
X156950Y165250D01*
X171450Y165250D01*
X171450Y158450D01*
G37*
G36*
X168050Y161850D02*
X168050Y176350D01*
X174850Y176350D01*
X174850Y161850D01*
X168050Y161850D01*
G37*
G54D19*
G36*
X352070Y155174D02*
X352070Y169674D01*
X366736Y169674D01*
X366736Y155174D01*
X352070Y155174D01*
G37*
G36*
X359403Y162507D02*
X373903Y162507D01*
X373903Y147840D01*
X359403Y147840D01*
X359403Y162507D01*
G37*
G36*
X366736Y155174D02*
X366736Y140674D01*
X352070Y140674D01*
X352070Y155174D01*
X366736Y155174D01*
G37*
G36*
X359403Y147840D02*
X344903Y147840D01*
X344903Y162507D01*
X359403Y162507D01*
X359403Y147840D01*
G37*
G54D16*
G36*
X145417Y215449D02*
X161917Y215449D01*
X161917Y208783D01*
X145417Y208783D01*
X145417Y215449D01*
G37*
G36*
X148750Y212116D02*
X148750Y195616D01*
X142084Y195616D01*
X142084Y212116D01*
X148750Y212116D01*
G37*
G36*
X145417Y208783D02*
X128917Y208783D01*
X128917Y215449D01*
X145417Y215449D01*
X145417Y208783D01*
G37*
G36*
X142084Y212116D02*
X142084Y228616D01*
X148750Y228616D01*
X148750Y212116D01*
X142084Y212116D01*
G37*
G54D18*
G36*
X221608Y215442D02*
X238108Y215442D01*
X238108Y208642D01*
X221608Y208642D01*
X221608Y215442D01*
G37*
G36*
X225008Y212042D02*
X225008Y195542D01*
X218208Y195542D01*
X218208Y212042D01*
X225008Y212042D01*
G37*
G36*
X221608Y208642D02*
X205108Y208642D01*
X205108Y215442D01*
X221608Y215442D01*
X221608Y208642D01*
G37*
G36*
X218208Y212042D02*
X218208Y228542D01*
X225008Y228542D01*
X225008Y212042D01*
X218208Y212042D01*
G37*
G54D16*
G36*
X120017Y342449D02*
X136517Y342449D01*
X136517Y335783D01*
X120017Y335783D01*
X120017Y342449D01*
G37*
G36*
X123350Y339116D02*
X123350Y322616D01*
X116684Y322616D01*
X116684Y339116D01*
X123350Y339116D01*
G37*
G36*
X120017Y335783D02*
X103517Y335783D01*
X103517Y342449D01*
X120017Y342449D01*
X120017Y335783D01*
G37*
G36*
X116684Y339116D02*
X116684Y355616D01*
X123350Y355616D01*
X123350Y339116D01*
X116684Y339116D01*
G37*
G54D18*
G36*
X196208Y342442D02*
X212708Y342442D01*
X212708Y335642D01*
X196208Y335642D01*
X196208Y342442D01*
G37*
G36*
X199608Y339042D02*
X199608Y322542D01*
X192808Y322542D01*
X192808Y339042D01*
X199608Y339042D01*
G37*
G36*
X196208Y335642D02*
X179708Y335642D01*
X179708Y342442D01*
X196208Y342442D01*
X196208Y335642D01*
G37*
G36*
X192808Y339042D02*
X192808Y355542D01*
X199608Y355542D01*
X199608Y339042D01*
X192808Y339042D01*
G37*
G54D16*
G36*
X76490Y231261D02*
X76490Y245761D01*
X83156Y245761D01*
X83156Y231261D01*
X76490Y231261D01*
G37*
G36*
X79823Y234594D02*
X94323Y234594D01*
X94323Y227928D01*
X79823Y227928D01*
X79823Y234594D01*
G37*
G36*
X83156Y231261D02*
X83156Y216761D01*
X76490Y216761D01*
X76490Y231261D01*
X83156Y231261D01*
G37*
G36*
X79823Y227928D02*
X65323Y227928D01*
X65323Y234594D01*
X79823Y234594D01*
X79823Y227928D01*
G37*
G54D16*
G36*
X76490Y345561D02*
X76490Y360061D01*
X83156Y360061D01*
X83156Y345561D01*
X76490Y345561D01*
G37*
G36*
X79823Y348894D02*
X94323Y348894D01*
X94323Y342228D01*
X79823Y342228D01*
X79823Y348894D01*
G37*
G36*
X83156Y345561D02*
X83156Y331061D01*
X76490Y331061D01*
X76490Y345561D01*
X83156Y345561D01*
G37*
G36*
X79823Y342228D02*
X65323Y342228D01*
X65323Y348894D01*
X79823Y348894D01*
X79823Y342228D01*
G37*
G54D16*
G36*
X724190Y485261D02*
X724190Y499761D01*
X730856Y499761D01*
X730856Y485261D01*
X724190Y485261D01*
G37*
G36*
X727523Y488594D02*
X742023Y488594D01*
X742023Y481928D01*
X727523Y481928D01*
X727523Y488594D01*
G37*
G36*
X730856Y485261D02*
X730856Y470761D01*
X724190Y470761D01*
X724190Y485261D01*
X730856Y485261D01*
G37*
G36*
X727523Y481928D02*
X713023Y481928D01*
X713023Y488594D01*
X727523Y488594D01*
X727523Y481928D01*
G37*
G54D16*
G36*
X149067Y60300D02*
X149067Y74800D01*
X155733Y74800D01*
X155733Y60300D01*
X149067Y60300D01*
G37*
G36*
X152400Y63633D02*
X166900Y63633D01*
X166900Y56967D01*
X152400Y56967D01*
X152400Y63633D01*
G37*
G36*
X155733Y60300D02*
X155733Y45800D01*
X149067Y45800D01*
X149067Y60300D01*
X155733Y60300D01*
G37*
G36*
X152400Y56967D02*
X137900Y56967D01*
X137900Y63633D01*
X152400Y63633D01*
X152400Y56967D01*
G37*
G54D16*
G36*
X403067Y60300D02*
X403067Y74800D01*
X409733Y74800D01*
X409733Y60300D01*
X403067Y60300D01*
G37*
G36*
X406400Y63633D02*
X420900Y63633D01*
X420900Y56967D01*
X406400Y56967D01*
X406400Y63633D01*
G37*
G36*
X409733Y60300D02*
X409733Y45800D01*
X403067Y45800D01*
X403067Y60300D01*
X409733Y60300D01*
G37*
G36*
X406400Y56967D02*
X391900Y56967D01*
X391900Y63633D01*
X406400Y63633D01*
X406400Y56967D01*
G37*
G54D16*
G36*
X72867Y174600D02*
X72867Y189100D01*
X79533Y189100D01*
X79533Y174600D01*
X72867Y174600D01*
G37*
G36*
X76200Y177933D02*
X90700Y177933D01*
X90700Y171267D01*
X76200Y171267D01*
X76200Y177933D01*
G37*
G36*
X79533Y174600D02*
X79533Y160100D01*
X72867Y160100D01*
X72867Y174600D01*
X79533Y174600D01*
G37*
G36*
X76200Y171267D02*
X61700Y171267D01*
X61700Y177933D01*
X76200Y177933D01*
X76200Y171267D01*
G37*
G54D16*
G36*
X618967Y60300D02*
X618967Y74800D01*
X625633Y74800D01*
X625633Y60300D01*
X618967Y60300D01*
G37*
G36*
X622300Y63633D02*
X636800Y63633D01*
X636800Y56967D01*
X622300Y56967D01*
X622300Y63633D01*
G37*
G36*
X625633Y60300D02*
X625633Y45800D01*
X618967Y45800D01*
X618967Y60300D01*
X625633Y60300D01*
G37*
G36*
X622300Y56967D02*
X607800Y56967D01*
X607800Y63633D01*
X622300Y63633D01*
X622300Y56967D01*
G37*
G54D16*
G36*
X174467Y542900D02*
X174467Y557400D01*
X181133Y557400D01*
X181133Y542900D01*
X174467Y542900D01*
G37*
G36*
X177800Y546233D02*
X192300Y546233D01*
X192300Y539567D01*
X177800Y539567D01*
X177800Y546233D01*
G37*
G36*
X181133Y542900D02*
X181133Y528400D01*
X174467Y528400D01*
X174467Y542900D01*
X181133Y542900D01*
G37*
G36*
X177800Y539567D02*
X163300Y539567D01*
X163300Y546233D01*
X177800Y546233D01*
X177800Y539567D01*
G37*
G54D16*
G36*
X72867Y466700D02*
X72867Y481200D01*
X79533Y481200D01*
X79533Y466700D01*
X72867Y466700D01*
G37*
G36*
X76200Y470033D02*
X90700Y470033D01*
X90700Y463367D01*
X76200Y463367D01*
X76200Y470033D01*
G37*
G36*
X79533Y466700D02*
X79533Y452200D01*
X72867Y452200D01*
X72867Y466700D01*
X79533Y466700D01*
G37*
G36*
X76200Y463367D02*
X61700Y463367D01*
X61700Y470033D01*
X76200Y470033D01*
X76200Y463367D01*
G37*
X581800Y425210D02*
G54D20*
D03*
X607200Y425210D02*
G54D20*
D03*
X607200Y425210D02*
G54D20*
D03*
X632600Y425210D02*
G54D20*
D03*
X632600Y425210D02*
G54D20*
D03*
X658000Y425210D02*
G54D20*
D03*
X658000Y425210D02*
G54D20*
D03*
X683400Y425210D02*
G54D20*
D03*
X683400Y425210D02*
G54D20*
D03*
X708800Y425210D02*
G54D20*
D03*
X708800Y425210D02*
G54D20*
D03*
X734200Y425210D02*
G54D20*
D03*
X734200Y425210D02*
G54D20*
D03*
X734200Y399810D02*
G54D20*
D03*
X734200Y399810D02*
G54D20*
D03*
X734200Y374410D02*
G54D20*
D03*
X581800Y425210D02*
G54D20*
D03*
X581800Y399810D02*
G54D20*
D03*
X581800Y399810D02*
G54D20*
D03*
X581800Y374410D02*
G54D20*
D03*
X581800Y374410D02*
G54D20*
D03*
X607200Y374410D02*
G54D20*
D03*
X607200Y374410D02*
G54D20*
D03*
X632600Y374410D02*
G54D20*
D03*
X632600Y374410D02*
G54D20*
D03*
X658000Y374410D02*
G54D20*
D03*
X658000Y374410D02*
G54D20*
D03*
X683400Y374410D02*
G54D20*
D03*
X683400Y374410D02*
G54D20*
D03*
X708800Y374410D02*
G54D20*
D03*
X708800Y374410D02*
G54D20*
D03*
X734200Y374410D02*
G54D20*
D03*
X734200Y374410D02*
G54D20*
D03*
X581800Y374410D02*
G54D20*
D03*
X327800Y425210D02*
G54D20*
D03*
X353200Y425210D02*
G54D20*
D03*
X353200Y425210D02*
G54D20*
D03*
X378600Y425210D02*
G54D20*
D03*
X378600Y425210D02*
G54D20*
D03*
X404000Y425210D02*
G54D20*
D03*
X404000Y425210D02*
G54D20*
D03*
X429400Y425210D02*
G54D20*
D03*
X429400Y425210D02*
G54D20*
D03*
X454800Y425210D02*
G54D20*
D03*
X454800Y425210D02*
G54D20*
D03*
X480200Y425210D02*
G54D20*
D03*
X480200Y425210D02*
G54D20*
D03*
X480200Y399810D02*
G54D20*
D03*
X480200Y399810D02*
G54D20*
D03*
X480200Y374410D02*
G54D20*
D03*
X327800Y425210D02*
G54D20*
D03*
X327800Y399810D02*
G54D20*
D03*
X327800Y399810D02*
G54D20*
D03*
X327800Y374410D02*
G54D20*
D03*
X327800Y374410D02*
G54D20*
D03*
X353200Y374410D02*
G54D20*
D03*
X353200Y374410D02*
G54D20*
D03*
X378600Y374410D02*
G54D20*
D03*
X378600Y374410D02*
G54D20*
D03*
X404000Y374410D02*
G54D20*
D03*
X404000Y374410D02*
G54D20*
D03*
X429400Y374410D02*
G54D20*
D03*
X429400Y374410D02*
G54D20*
D03*
X454800Y374410D02*
G54D20*
D03*
X454800Y374410D02*
G54D20*
D03*
X480200Y374410D02*
G54D20*
D03*
X480200Y374410D02*
G54D20*
D03*
X327800Y374410D02*
G54D20*
D03*
X505600Y279160D02*
G54D20*
D03*
X505600Y279160D02*
G54D20*
D03*
X531000Y279160D02*
G54D20*
D03*
X531000Y279160D02*
G54D20*
D03*
X556400Y279160D02*
G54D20*
D03*
X556400Y279160D02*
G54D20*
D03*
X581800Y279160D02*
G54D20*
D03*
X581800Y279160D02*
G54D20*
D03*
X327800Y501410D02*
G54D20*
D03*
X353200Y501410D02*
G54D20*
D03*
X378600Y501410D02*
G54D20*
D03*
G54D21*
X378600Y501410D02*
X375450Y504560D01*
X438950Y441060D01*
X489750Y441060D01*
X553250Y377560D01*
X578650Y377560D01*
X581800Y374410D01*
G54D21*
X378600Y501410D02*
X375450Y504560D01*
X438950Y441060D01*
X489750Y441060D01*
X502450Y428360D01*
X502450Y282310D01*
X505600Y279160D01*
G36*
X544950Y548800D02*
X559950Y548800D01*
X559950Y533800D01*
X544950Y533800D01*
X544950Y548800D01*
G37*
X327800Y476010D02*
G54D22*
D03*
X378600Y476010D02*
G54D22*
D03*
X336550Y266750D02*
G54D20*
D03*
X336550Y241350D02*
G54D20*
D03*
X171450Y161850D02*
G54D20*
D03*
X171450Y111050D02*
G54D20*
D03*
X476250Y111050D02*
G54D20*
D03*
X527050Y111050D02*
G54D20*
D03*
X266117Y256616D02*
G54D20*
D03*
X266067Y180366D02*
G54D20*
D03*
X266117Y256616D02*
G54D23*
D03*
X398131Y247602D02*
G54D20*
D03*
X398243Y196621D02*
G54D20*
D03*
X398131Y247602D02*
G54D23*
D03*
X359403Y155174D02*
G54D20*
D03*
X308422Y155061D02*
G54D20*
D03*
X359403Y155174D02*
G54D23*
D03*
X357616Y110438D02*
G54D20*
D03*
X281366Y110488D02*
G54D20*
D03*
X357616Y110439D02*
G54D23*
D03*
X145467Y288366D02*
G54D20*
D03*
X145417Y212116D02*
G54D20*
D03*
X145467Y288366D02*
G54D23*
D03*
X221658Y288292D02*
G54D20*
D03*
X145408Y288342D02*
G54D20*
D03*
X221658Y288292D02*
G54D23*
D03*
X221658Y288292D02*
G54D20*
D03*
X221608Y212042D02*
G54D20*
D03*
X221658Y288292D02*
G54D23*
D03*
X120068Y415366D02*
G54D20*
D03*
X120017Y339116D02*
G54D20*
D03*
X120067Y415366D02*
G54D23*
D03*
X196258Y415292D02*
G54D20*
D03*
X120008Y415342D02*
G54D20*
D03*
X196258Y415292D02*
G54D23*
D03*
X196258Y415292D02*
G54D20*
D03*
X196208Y339042D02*
G54D20*
D03*
X196258Y415292D02*
G54D23*
D03*
X79823Y256661D02*
G54D20*
D03*
X79823Y231261D02*
G54D20*
D03*
X79823Y370961D02*
G54D20*
D03*
X79823Y345561D02*
G54D20*
D03*
X727523Y510661D02*
G54D20*
D03*
X727523Y485261D02*
G54D20*
D03*
X746900Y526810D02*
G54D22*
D03*
X302400Y285510D02*
G54D22*
D03*
G54D21*
X302400Y285510D02*
X304800Y282550D01*
X317500Y269850D01*
X336550Y269850D01*
X336550Y266750D01*
G54D21*
X746900Y526810D02*
X749300Y523850D01*
X736600Y511150D01*
X730250Y511150D01*
X727523Y510661D01*
X76200Y66600D02*
G54D24*
D03*
G36*
X142400Y70300D02*
X162400Y70300D01*
X162400Y50300D01*
X142400Y50300D01*
X142400Y70300D01*
G37*
X736600Y66600D02*
G54D24*
D03*
G36*
X396400Y70300D02*
X416400Y70300D01*
X416400Y50300D01*
X396400Y50300D01*
X396400Y70300D01*
G37*
G36*
X66200Y184600D02*
X86200Y184600D01*
X86200Y164600D01*
X66200Y164600D01*
X66200Y184600D01*
G37*
X736600Y308100D02*
G54D20*
D03*
G54D25*
X727523Y510661D02*
X723900Y511300D01*
X736600Y511300D01*
X762000Y485900D01*
X762000Y371600D01*
X520700Y130300D01*
X520700Y104900D01*
X527050Y111050D01*
G54D25*
X221658Y288292D02*
X215900Y282700D01*
X304800Y371600D01*
X304800Y435100D01*
X342900Y473200D01*
X355600Y473200D01*
X381000Y498600D01*
X378600Y501410D01*
G36*
X612300Y70300D02*
X632300Y70300D01*
X632300Y50300D01*
X612300Y50300D01*
X612300Y70300D01*
G37*
X76200Y536500D02*
G54D24*
D03*
G36*
X167800Y552900D02*
X187800Y552900D01*
X187800Y532900D01*
X167800Y532900D01*
X167800Y552900D01*
G37*
G36*
X66200Y476700D02*
X86200Y476700D01*
X86200Y456700D01*
X66200Y456700D01*
X66200Y476700D01*
G37*
X660400Y536500D02*
G54D24*
D03*
M02*
