%FSLAX34Y34*%
%MOMM*%
%LNSILK_TOP*%
G71*
G01*
%ADD10C,0.127*%
%ADD11C,0.102*%
%ADD12C,0.050*%
%ADD13C,0.200*%
%ADD14C,0.203*%
%ADD15C,0.500*%
%ADD16C,0.150*%
%ADD17C,0.100*%
%ADD18C,0.206*%
%ADD19C,0.167*%
%ADD20C,0.144*%
%ADD21C,0.222*%
%ADD22C,0.111*%
%LPD*%
G54D10*
X354364Y45760D02*
X-77436Y45760D01*
X-77436Y223560D01*
X354364Y223560D01*
X354364Y45760D01*
G54D10*
X372906Y164378D02*
X268766Y164378D01*
X268766Y104688D01*
X372906Y104688D01*
X372906Y164378D01*
G54D11*
X-13517Y143286D02*
X-13517Y149133D01*
X-15465Y151081D01*
X-19364Y151081D01*
X-21312Y149133D01*
X-21312Y143286D01*
X-9618Y143286D01*
G54D11*
X-19364Y139387D02*
X-21312Y137439D01*
X-21312Y133540D01*
X-19364Y131592D01*
X-17413Y131592D01*
X-15465Y133540D01*
X-15465Y137439D01*
X-13517Y139387D01*
X-11566Y139387D01*
X-9618Y137439D01*
X-9618Y133540D01*
X-11566Y131592D01*
G54D11*
X-11566Y127693D02*
X-9618Y125744D01*
X-9618Y121845D01*
X-11566Y119898D01*
X-19364Y119898D01*
X-21312Y121845D01*
X-21312Y125744D01*
X-19364Y127693D01*
G54D11*
X-21312Y116001D02*
X-21312Y112102D01*
G54D11*
X-21312Y114050D02*
X-9618Y114050D01*
G54D11*
X-9618Y112102D02*
X-9618Y116001D01*
G54D11*
X62960Y128315D02*
X70758Y128315D01*
G54D11*
X62960Y122468D02*
X62960Y130263D01*
X66859Y134162D01*
X70758Y130263D01*
X70758Y122468D01*
G54D11*
X74654Y122468D02*
X74654Y130263D01*
G54D11*
X74654Y126367D02*
X78553Y130263D01*
X80501Y130263D01*
G54D11*
X92195Y130263D02*
X86348Y130263D01*
X84400Y128315D01*
X84400Y124416D01*
X86348Y122468D01*
X92195Y122468D01*
X92195Y134162D01*
G54D11*
X96094Y130263D02*
X96094Y124416D01*
X98042Y122468D01*
X103889Y122468D01*
X103889Y130263D01*
G54D11*
X107788Y130263D02*
X109737Y130263D01*
X109737Y122468D01*
G54D11*
X107788Y122468D02*
X111685Y122468D01*
G54D11*
X115584Y122468D02*
X115584Y130263D01*
X121431Y130263D01*
X123379Y128315D01*
X123379Y122468D01*
G54D11*
X127278Y128315D02*
X127278Y124416D01*
X129226Y122468D01*
X133125Y122468D01*
X135073Y124416D01*
X135073Y128315D01*
X133125Y130263D01*
X129226Y130263D01*
X127278Y128315D01*
G54D11*
X133125Y141518D02*
X129226Y141518D01*
X127278Y143466D01*
X127278Y147365D01*
X129226Y149313D01*
X133125Y149313D01*
X135073Y147365D01*
X135073Y143466D01*
X133125Y141518D01*
G54D11*
X123379Y141518D02*
X123379Y147365D01*
X121431Y149313D01*
X115584Y149313D01*
X115584Y141518D01*
G54D11*
X111685Y145417D02*
X105838Y145417D01*
X103889Y143466D01*
X105838Y141518D01*
X111685Y141518D01*
X111685Y147365D01*
X109737Y149313D01*
X105838Y149313D01*
G54D11*
X99993Y153212D02*
X99993Y141518D01*
X92195Y153212D01*
X92195Y141518D01*
G54D11*
X109737Y136110D02*
X109737Y134162D01*
G54D12*
X-44289Y70017D02*
X-44289Y73576D01*
X-42508Y73576D01*
X-41917Y72984D01*
X-41916Y70611D01*
X-42508Y70017D01*
X-44289Y70017D01*
G54D12*
X-40781Y72389D02*
X-39595Y73576D01*
X-39595Y70017D01*
G54D12*
X-40781Y70017D02*
X-38409Y70017D01*
G54D12*
X-36087Y70017D02*
X-36087Y73576D01*
G54D12*
X-37274Y73576D02*
X-34901Y73576D01*
G54D12*
X-33763Y73576D02*
X-31391Y70017D01*
G54D12*
X-33763Y70017D02*
X-31391Y73576D01*
G54D12*
X-29052Y65135D02*
X-25493Y62763D01*
G54D12*
X-25493Y61625D02*
X-26679Y60439D01*
G54D12*
X-25493Y59252D02*
X-29052Y59252D01*
X-29052Y61033D01*
X-28460Y61625D01*
X-27274Y61625D01*
X-26679Y61033D01*
X-26679Y59253D01*
G54D12*
X-29052Y62763D02*
X-25493Y65135D01*
G54D12*
X-25493Y57525D02*
X-26087Y58117D01*
X-28460Y58117D01*
X-29052Y57525D01*
X-29052Y56339D01*
X-28460Y55745D01*
X-26087Y55745D01*
X-25493Y56339D01*
X-25493Y57525D01*
G54D12*
X-25493Y54017D02*
X-26087Y54609D01*
X-28460Y54609D01*
X-29052Y54018D01*
X-29052Y52237D01*
X-25493Y52237D01*
X-25493Y54017D01*
G54D12*
X-93Y53507D02*
X-3652Y53507D01*
X-3652Y55287D01*
X-3060Y55879D01*
X-1874Y55879D01*
X-1279Y55288D01*
X-1279Y53507D01*
G54D12*
X-3060Y59387D02*
X-3652Y58795D01*
X-3652Y57609D01*
X-3060Y57015D01*
X-2465Y57015D01*
X-1874Y57609D01*
X-1874Y58795D01*
X-1279Y59387D01*
X-687Y59387D01*
X-93Y58795D01*
X-93Y57609D01*
X-687Y57015D01*
G54D12*
X-93Y55879D02*
X-1279Y54693D01*
G54D12*
X-3652Y60522D02*
X-3652Y62895D01*
G54D12*
X-3652Y61709D02*
X-93Y61708D01*
G54D12*
X22340Y62895D02*
X21748Y62303D01*
X21748Y60523D01*
X25307Y60522D01*
X25307Y62303D01*
X24713Y62895D01*
X22340Y62895D01*
G54D12*
X21748Y59387D02*
X25307Y59387D01*
X21748Y57015D01*
X25307Y57015D01*
G54D12*
X22340Y55879D02*
X21748Y55288D01*
X21748Y54101D01*
X22340Y53507D01*
X24713Y53507D01*
X25307Y54101D01*
X25307Y55288D01*
X24713Y55879D01*
X23526Y55879D01*
X23526Y54693D01*
G54D12*
X50707Y54777D02*
X47148Y54777D01*
X47148Y56557D01*
X47740Y57149D01*
X50113Y57149D01*
X50707Y56558D01*
X50707Y54777D01*
G54D12*
X47740Y58285D02*
X47148Y58879D01*
X47148Y60065D01*
X47740Y60657D01*
X48335Y60657D01*
X50707Y58285D01*
X50707Y60657D01*
G54D12*
X73140Y58285D02*
X72548Y58879D01*
X72548Y60065D01*
X73140Y60657D01*
X73735Y60657D01*
X74326Y60065D01*
X74921Y60657D01*
X75513Y60657D01*
X76107Y60065D01*
X76107Y58879D01*
X75513Y58285D01*
G54D12*
X76107Y56557D02*
X75512Y57149D01*
X73140Y57149D01*
X72548Y56557D01*
X72548Y54777D01*
X76107Y54777D01*
X76107Y56557D01*
G54D12*
X74326Y59471D02*
X74326Y60065D01*
G54D12*
X98540Y57149D02*
X97948Y56557D01*
X97948Y54777D01*
X101507Y54777D01*
X101507Y56557D01*
X100913Y57149D01*
X98540Y57149D01*
G54D12*
X101507Y60065D02*
X97948Y60065D01*
X99726Y58285D01*
X99726Y60657D01*
G54D12*
X123348Y60657D02*
X123348Y58285D01*
X125126Y58285D01*
X124535Y59471D01*
X124535Y60065D01*
X125126Y60657D01*
X126313Y60657D01*
X126907Y60065D01*
X126907Y58879D01*
X126313Y58285D01*
G54D12*
X126907Y56558D02*
X126313Y57149D01*
X123940Y57149D01*
X123348Y56558D01*
X123348Y54777D01*
X126907Y54777D01*
X126907Y56558D01*
G54D12*
X149340Y57149D02*
X148748Y56558D01*
X148748Y54777D01*
X152307Y54777D01*
X152307Y56558D01*
X151713Y57149D01*
X149340Y57149D01*
G54D12*
X151713Y58285D02*
X150526Y58285D01*
X150526Y60065D01*
X151121Y60657D01*
X151713Y60657D01*
X152307Y60065D01*
X152307Y58879D01*
X151713Y58285D01*
G54D12*
X150526Y58285D02*
X149340Y59471D01*
X148748Y60657D01*
G54D12*
X177707Y58285D02*
X177113Y58285D01*
X174740Y60657D01*
X174148Y60657D01*
X174148Y58285D01*
G54D12*
X177113Y57149D02*
X174740Y57149D01*
X174148Y56557D01*
X174148Y54777D01*
X177707Y54777D01*
X177707Y56558D01*
X177113Y57149D01*
G54D12*
X201326Y60065D02*
X200735Y60657D01*
X200140Y60657D01*
X199548Y60065D01*
X199548Y58879D01*
X200140Y58285D01*
X200735Y58285D01*
X201326Y58879D01*
X201326Y60065D01*
X201921Y60657D01*
X202513Y60657D01*
X203107Y60065D01*
X203107Y58879D01*
X202513Y58285D01*
X201921Y58285D01*
X201326Y58879D01*
G54D12*
X202513Y57149D02*
X200140Y57149D01*
X199548Y56557D01*
X199548Y54777D01*
X203107Y54777D01*
X203107Y56557D01*
X202513Y57149D01*
G54D12*
X225540Y57149D02*
X224948Y56557D01*
X224948Y54777D01*
X228507Y54777D01*
X228507Y56557D01*
X227913Y57149D01*
X225540Y57149D01*
G54D12*
X227913Y58285D02*
X228507Y58879D01*
X228507Y60065D01*
X227913Y60657D01*
X225540Y60657D01*
X224948Y60065D01*
X224948Y58879D01*
X225540Y58285D01*
X226135Y58285D01*
X226726Y58879D01*
X226726Y60657D01*
G54D12*
X251535Y57015D02*
X250348Y58201D01*
X253907Y58201D01*
G54D12*
X253907Y57015D02*
X253907Y59387D01*
G54D12*
X253907Y61117D02*
X253313Y60522D01*
X250940Y62895D01*
X253313Y62895D01*
X253907Y62303D01*
X253907Y61117D01*
G54D12*
X253313Y60522D02*
X250940Y60522D01*
X250348Y61117D01*
X250348Y62303D01*
X250940Y62895D01*
G54D12*
X253313Y55879D02*
X250940Y55879D01*
X250348Y55287D01*
X250348Y53507D01*
X253907Y53507D01*
X253907Y55288D01*
X253313Y55879D01*
G54D12*
X276340Y55879D02*
X275748Y55288D01*
X275748Y53507D01*
X279307Y53507D01*
X279307Y55288D01*
X278713Y55879D01*
X276340Y55879D01*
G54D12*
X276935Y57015D02*
X275748Y58201D01*
X279307Y58201D01*
G54D12*
X279307Y57015D02*
X279307Y59387D01*
G54D12*
X279307Y60522D02*
X279307Y62895D01*
G54D12*
X279307Y61708D02*
X275748Y61708D01*
X276935Y60522D01*
G54D12*
X304707Y62895D02*
X304707Y60522D01*
X302335Y62895D01*
X301740Y62895D01*
X301148Y62303D01*
X301148Y61117D01*
X301740Y60522D01*
G54D12*
X304707Y59387D02*
X304707Y57015D01*
G54D12*
X304707Y58201D02*
X301148Y58201D01*
X302335Y57015D01*
G54D12*
X304113Y55879D02*
X301740Y55879D01*
X301148Y55287D01*
X301148Y53507D01*
X304707Y53507D01*
X304707Y55288D01*
X304113Y55879D01*
G54D12*
X304707Y205907D02*
X301148Y205907D01*
X301148Y207688D01*
X301740Y208279D01*
X304113Y208279D01*
X304707Y207688D01*
X304707Y205907D01*
G54D12*
X302335Y209415D02*
X301148Y210601D01*
X304707Y210601D01*
G54D12*
X304707Y209415D02*
X304707Y211787D01*
G54D12*
X304113Y212922D02*
X304707Y213517D01*
X304707Y214703D01*
X304113Y215295D01*
X303521Y215295D01*
X302926Y214703D01*
X302927Y214108D01*
G54D12*
X302926Y214703D02*
X302334Y215295D01*
X301740Y215295D01*
X301148Y214703D01*
X301148Y213517D01*
X301740Y212922D01*
G54D12*
X277526Y214108D02*
X277526Y214703D01*
X278121Y215295D01*
X278713Y215295D01*
X279307Y214703D01*
X279307Y213517D01*
X278713Y212922D01*
G54D12*
X277526Y214703D02*
X276935Y215295D01*
X276340Y215295D01*
X275748Y214703D01*
X275748Y213517D01*
X276340Y212922D01*
G54D12*
X275748Y211787D02*
X278121Y211787D01*
X279307Y210601D01*
X278121Y209415D01*
X275748Y209415D01*
G54D12*
X276340Y205907D02*
X275748Y206501D01*
X275748Y207688D01*
X276340Y208279D01*
X276935Y208279D01*
X277527Y207688D01*
X278121Y208279D01*
X278713Y208279D01*
X279307Y207688D01*
X279307Y206501D01*
X278713Y205907D01*
G54D12*
X277526Y207093D02*
X277527Y207688D01*
G54D12*
X253907Y207009D02*
X251535Y207009D01*
X250348Y205823D01*
X251535Y204637D01*
X253907Y204637D01*
G54D12*
X252126Y204637D02*
X252126Y207009D01*
G54D12*
X252721Y208145D02*
X252721Y209925D01*
X252126Y210517D01*
X250940Y210517D01*
X250348Y209925D01*
X250348Y208145D01*
X253907Y208145D01*
G54D12*
X252721Y209331D02*
X253907Y210517D01*
G54D12*
X250348Y214025D02*
X250348Y211652D01*
X253907Y211652D01*
X253907Y214025D01*
G54D12*
X253907Y215163D02*
X250348Y215163D01*
X250348Y217535D01*
G54D12*
X252126Y216349D02*
X252126Y215163D01*
G54D12*
X252126Y211652D02*
X252126Y212838D01*
G54D12*
X228507Y213735D02*
X228507Y212549D01*
X227913Y211955D01*
X225540Y214327D01*
X227913Y214327D01*
X228507Y213735D01*
G54D12*
X227913Y211955D02*
X225540Y211955D01*
X224948Y212549D01*
X224948Y213735D01*
X225540Y214327D01*
G54D12*
X228507Y208447D02*
X226134Y208447D01*
X224948Y209633D01*
X226135Y210819D01*
X228507Y210819D01*
G54D12*
X226726Y210819D02*
X226726Y208447D01*
G54D12*
X203107Y208447D02*
X200735Y208447D01*
X199548Y209633D01*
X200735Y210819D01*
X203107Y210819D01*
G54D12*
X203107Y211955D02*
X203107Y214327D01*
G54D12*
X203107Y213141D02*
X199548Y213141D01*
X200735Y211955D01*
G54D12*
X201326Y210819D02*
X201326Y208447D01*
G54D12*
X177707Y208447D02*
X175335Y208447D01*
X174148Y209633D01*
X175335Y210819D01*
X177707Y210819D01*
G54D12*
X177707Y214327D02*
X177707Y211955D01*
X175335Y214327D01*
X174740Y214327D01*
X174148Y213735D01*
X174148Y212549D01*
X174740Y211955D01*
G54D12*
X175926Y210819D02*
X175926Y208447D01*
G54D12*
X149340Y211955D02*
X148748Y212549D01*
X148748Y213735D01*
X149340Y214327D01*
X149935Y214327D01*
X150526Y213735D01*
X151121Y214327D01*
X151713Y214327D01*
X152307Y213735D01*
X152307Y212549D01*
X151713Y211955D01*
G54D12*
X152307Y210819D02*
X149935Y210819D01*
X148748Y209633D01*
X149935Y208447D01*
X152307Y208447D01*
G54D12*
X150526Y208447D02*
X150526Y210819D01*
G54D12*
X150526Y213735D02*
X150526Y213141D01*
G54D12*
X126907Y213735D02*
X123348Y213735D01*
X125126Y211955D01*
X125126Y214327D01*
G54D12*
X125126Y210819D02*
X125126Y208447D01*
G54D12*
X126907Y208447D02*
X124535Y208447D01*
X123348Y209633D01*
X124535Y210819D01*
X126907Y210819D01*
G54D12*
X101507Y208447D02*
X99135Y208447D01*
X97948Y209633D01*
X99134Y210819D01*
X101507Y210819D01*
G54D12*
X100913Y211955D02*
X101507Y212549D01*
X101507Y213735D01*
X100913Y214327D01*
X99726Y214327D01*
X99135Y213735D01*
X99135Y213141D01*
X99726Y211955D01*
X97948Y211955D01*
X97948Y214327D01*
G54D12*
X99726Y210819D02*
X99726Y208447D01*
G54D12*
X76107Y208447D02*
X73735Y208447D01*
X72548Y209633D01*
X73735Y210819D01*
X76107Y210819D01*
G54D12*
X72548Y214327D02*
X73140Y213141D01*
X74326Y211955D01*
X75513Y211955D01*
X76107Y212549D01*
X76107Y213735D01*
X75513Y214327D01*
X74921Y214327D01*
X74326Y213735D01*
X74326Y211955D01*
G54D12*
X74326Y210819D02*
X74326Y208447D01*
G54D12*
X50707Y208447D02*
X48335Y208447D01*
X47148Y209633D01*
X48335Y210819D01*
X50707Y210819D01*
G54D12*
X50707Y211955D02*
X50113Y211955D01*
X47740Y214327D01*
X47148Y214327D01*
X47148Y211955D01*
G54D12*
X48926Y210819D02*
X48926Y208447D01*
G54D12*
X21748Y211787D02*
X21748Y209415D01*
X23526Y209415D01*
X22935Y210601D01*
X22935Y211195D01*
X23526Y211787D01*
X24713Y211787D01*
X25307Y211195D01*
X25307Y210009D01*
X24713Y209415D01*
G54D12*
X21748Y212922D02*
X24121Y212922D01*
X25307Y214108D01*
X24121Y215295D01*
X21748Y215295D01*
G54D12*
X23526Y208279D02*
X23526Y205907D01*
G54D12*
X22340Y207093D02*
X24713Y207093D01*
G54D12*
X-93Y208279D02*
X-1279Y207093D01*
G54D12*
X-93Y205907D02*
X-3652Y205907D01*
X-3652Y207687D01*
X-3060Y208279D01*
X-1874Y208279D01*
X-1279Y207687D01*
X-1279Y205907D01*
G54D12*
X-687Y209415D02*
X-93Y210009D01*
X-93Y211195D01*
X-687Y211787D01*
X-1279Y211787D01*
X-1874Y211195D01*
X-1874Y210009D01*
X-2465Y209415D01*
X-3060Y209415D01*
X-3652Y210009D01*
X-3652Y211195D01*
X-3060Y211787D01*
G54D12*
X-3652Y212922D02*
X-3652Y215295D01*
G54D12*
X-3652Y214108D02*
X-93Y214108D01*
G54D12*
X-25493Y212922D02*
X-25493Y214703D01*
X-26087Y215295D01*
X-28460Y215295D01*
X-29052Y214703D01*
X-29052Y212922D01*
X-25493Y212922D01*
G54D12*
X-25493Y209415D02*
X-29052Y209415D01*
X-25493Y211787D01*
X-29052Y211787D01*
G54D12*
X-28460Y208279D02*
X-29052Y207687D01*
X-29052Y206501D01*
X-28460Y205907D01*
X-26087Y205907D01*
X-25493Y206501D01*
X-25493Y207687D01*
X-26087Y208279D01*
X-27274Y208279D01*
X-27274Y207093D01*
G54D12*
X-35264Y199306D02*
X-35264Y195747D01*
X-37637Y199306D01*
X-37637Y195747D01*
G54D12*
X-38790Y195747D02*
X-39976Y195747D01*
G54D12*
X-39382Y195747D02*
X-39382Y199305D01*
G54D12*
X-38790Y199305D02*
X-39976Y199306D01*
G54D12*
X-41112Y199305D02*
X-41112Y196933D01*
X-42298Y195747D01*
X-43484Y196933D01*
X-43484Y199305D01*
G54D13*
X-38320Y147106D02*
X-31920Y147106D01*
X-25620Y153406D01*
X-25620Y166206D01*
X-31920Y172506D01*
X-44720Y172506D01*
X-51020Y166206D01*
X-51020Y153406D01*
X-44720Y147106D01*
X-38320Y147106D01*
G54D13*
X-63720Y147106D02*
X-57320Y147106D01*
X-51020Y153406D01*
X-51020Y166206D01*
X-57320Y172506D01*
X-70120Y172506D01*
X-76420Y166206D01*
X-76420Y153406D01*
X-70120Y147106D01*
X-63720Y147106D01*
G54D13*
X-38320Y121706D02*
X-31920Y121706D01*
X-25620Y128006D01*
X-25620Y140806D01*
X-31920Y147106D01*
X-44720Y147106D01*
X-51020Y140806D01*
X-51020Y128006D01*
X-44720Y121706D01*
X-38320Y121706D01*
G54D13*
X-63720Y121706D02*
X-57320Y121706D01*
X-51020Y128006D01*
X-51020Y140806D01*
X-57320Y147106D01*
X-70120Y147106D01*
X-76420Y140806D01*
X-76420Y128006D01*
X-70120Y121706D01*
X-63720Y121706D01*
G54D13*
X-38320Y96306D02*
X-31920Y96306D01*
X-25620Y102606D01*
X-25620Y115406D01*
X-31920Y121706D01*
X-44720Y121706D01*
X-51020Y115406D01*
X-51020Y102606D01*
X-44720Y96306D01*
X-38320Y96306D01*
G54D13*
X-63720Y96306D02*
X-57320Y96306D01*
X-51020Y102606D01*
X-51020Y115406D01*
X-57320Y121706D01*
X-70120Y121706D01*
X-76420Y115406D01*
X-76420Y102606D01*
X-70120Y96306D01*
X-63720Y96306D01*
G54D14*
X183549Y122849D02*
X188375Y111419D01*
X190915Y112943D01*
X197011Y108625D01*
X201837Y113451D01*
X197519Y119547D01*
G54D14*
X200059Y126405D02*
X207679Y127675D01*
X207679Y134279D01*
X200059Y135803D01*
G54D14*
X197265Y142153D02*
X201837Y148757D01*
X197011Y153329D01*
X190407Y148757D01*
G54D14*
X184057Y151297D02*
X182787Y159425D01*
X175929Y159425D01*
X174659Y151297D01*
G54D14*
X168309Y148757D02*
X161705Y153329D01*
X156879Y148757D01*
X161451Y142153D01*
G54D14*
X158657Y135803D02*
X151037Y134279D01*
X151037Y127675D01*
X158657Y126405D01*
G54D14*
X161197Y119547D02*
X157133Y113451D01*
X161705Y108625D01*
X167801Y112943D01*
X170341Y111419D01*
X175421Y122849D01*
G54D14*
X197544Y119547D02*
X198129Y120588D01*
X198662Y121680D01*
X199119Y122824D01*
X199500Y123966D01*
X199830Y125135D01*
X200084Y126329D01*
G54D14*
X200034Y135828D02*
X199653Y137149D01*
X199170Y138444D01*
X198611Y139714D01*
X197976Y140934D01*
X197240Y142128D01*
G54D14*
X183549Y123103D02*
X184387Y123560D01*
X185149Y124094D01*
X185886Y124703D01*
X186546Y125389D01*
X187105Y126125D01*
X187613Y126938D01*
X188045Y127776D01*
X188375Y128665D01*
X188604Y129580D01*
X188756Y130520D01*
X188807Y131460D01*
X188756Y132400D01*
X188629Y133339D01*
X188375Y134253D01*
X188070Y135142D01*
X187638Y136006D01*
X187156Y136794D01*
X186572Y137556D01*
X185911Y138241D01*
X185200Y138851D01*
X184413Y139384D01*
X183600Y139842D01*
X182736Y140222D01*
X181822Y140502D01*
X180908Y140705D01*
X179968Y140807D01*
X179002Y140807D01*
X178063Y140705D01*
X177148Y140502D01*
X176234Y140222D01*
X175370Y139841D01*
X174557Y139384D01*
X173770Y138851D01*
X173059Y138241D01*
X172398Y137556D01*
X171814Y136794D01*
X171332Y136006D01*
X170900Y135142D01*
X170595Y134254D01*
X170341Y133339D01*
X170214Y132400D01*
X170163Y131460D01*
X170214Y130520D01*
X170366Y129580D01*
X170595Y128666D01*
X170925Y127776D01*
X171357Y126938D01*
X171865Y126125D01*
X172424Y125389D01*
X173084Y124703D01*
X173821Y124094D01*
X174583Y123560D01*
X175421Y123103D01*
G54D14*
X161299Y119623D02*
X160587Y120893D01*
X159978Y122214D01*
X159444Y123560D01*
X159013Y124957D01*
X158682Y126380D01*
G54D14*
X168411Y148833D02*
X169554Y149468D01*
X170747Y150052D01*
X171967Y150535D01*
X173211Y150967D01*
X174481Y151297D01*
G54D14*
X161476Y142026D02*
X160791Y140858D01*
X160181Y139638D01*
X159648Y138394D01*
X159190Y137098D01*
X158835Y135803D01*
G54D14*
X184184Y151373D02*
X185505Y151017D01*
X186800Y150586D01*
X188070Y150078D01*
X189315Y149494D01*
X190509Y148808D01*
X-65371Y178475D02*
G54D15*
D03*
G54D16*
X69334Y254859D02*
X69334Y272259D01*
X38934Y272259D01*
X38934Y254859D01*
X69334Y254859D01*
G36*
X69234Y254959D02*
X69234Y271659D01*
X62034Y271659D01*
X62034Y254959D01*
X69234Y254959D01*
G37*
G54D17*
X69234Y254959D02*
X69234Y271659D01*
X62034Y271659D01*
X62034Y254959D01*
X69234Y254959D01*
G54D16*
X80334Y263559D02*
X69234Y263559D01*
G54D16*
X39034Y263559D02*
X27934Y263559D01*
G54D18*
X63134Y228109D02*
X63134Y228109D01*
G54D18*
X101234Y247609D02*
X101234Y247609D01*
G54D13*
X-105866Y247273D02*
X-99866Y231273D01*
X-93866Y247273D01*
G54D13*
X-89466Y231273D02*
X-89466Y247273D01*
G54D13*
X-85066Y231273D02*
X-85066Y247273D01*
X-75466Y231273D01*
X-75466Y247273D01*
G54D16*
X-115662Y253446D02*
X-115662Y278847D01*
X-64862Y278846D01*
X-64862Y253446D01*
X-115662Y253446D01*
G54D13*
X-122995Y266676D02*
X-129346Y266676D01*
G54D13*
X-129346Y258739D02*
X-129345Y274614D01*
G54D13*
X-132520Y272232D02*
X-132520Y261120D01*
G54D13*
X-135695Y264295D02*
X-135695Y269057D01*
G54D16*
X121284Y280150D02*
X121284Y254749D01*
X192884Y254749D01*
X192884Y280150D01*
X121284Y280150D01*
G54D19*
X173940Y249358D02*
X173940Y249358D01*
G54D16*
X263734Y254059D02*
X263734Y273059D01*
X301734Y273059D01*
X301734Y254059D01*
X263734Y254059D01*
G54D16*
X263634Y263559D02*
X243034Y263559D01*
G54D16*
X322434Y263559D02*
X301834Y263559D01*
G54D20*
X280618Y278719D02*
X292174Y278719D01*
X292174Y284785D01*
G54D20*
X221934Y280309D02*
X221934Y280309D01*
G54D16*
X308334Y302851D02*
X308334Y328251D01*
X236734Y328251D01*
X236734Y302851D01*
X308334Y302851D01*
G54D19*
X382679Y282843D02*
X382679Y282843D01*
G54D16*
X385684Y328649D02*
X360284Y328649D01*
X360284Y257049D01*
X385684Y257049D01*
X385684Y328649D01*
G54D21*
X-21813Y316948D02*
X-17813Y314726D01*
X-16479Y312503D01*
X-16479Y308059D01*
G54D21*
X-27146Y308059D02*
X-27146Y325837D01*
X-20479Y325837D01*
X-17813Y324726D01*
X-16479Y322503D01*
X-16479Y320281D01*
X-17813Y318059D01*
X-20479Y316948D01*
X-27146Y316948D01*
G54D21*
X-2257Y308059D02*
X-11590Y308059D01*
X-11590Y325837D01*
X-2257Y325837D01*
G54D21*
X-11590Y316948D02*
X-2257Y316948D01*
G54D21*
X2632Y325837D02*
X2632Y308059D01*
X11965Y308059D01*
G54D21*
X26187Y308059D02*
X16854Y308059D01*
X16854Y325837D01*
X26187Y325837D01*
G54D21*
X16854Y316948D02*
X26187Y316948D01*
G54D21*
X36232Y315837D02*
X46899Y315837D01*
G54D21*
X67611Y311392D02*
X66277Y309170D01*
X63611Y308059D01*
X60944Y308059D01*
X58277Y309170D01*
X56944Y311392D01*
X56944Y322503D01*
X58277Y324726D01*
X60944Y325837D01*
X63611Y325837D01*
X66277Y324726D01*
X67611Y322503D01*
G54D21*
X83167Y322503D02*
X83167Y311392D01*
X81833Y309170D01*
X79167Y308059D01*
X76500Y308059D01*
X73833Y309170D01*
X72500Y311392D01*
X72500Y322503D01*
X73833Y324726D01*
X76500Y325837D01*
X79167Y325837D01*
X81833Y324726D01*
X83167Y322503D01*
G54D21*
X88056Y308059D02*
X88056Y325837D01*
X98723Y308059D01*
X98723Y325837D01*
G54D21*
X108945Y308059D02*
X108945Y325837D01*
G54D21*
X103612Y325837D02*
X114279Y325837D01*
G54D21*
X124501Y316948D02*
X128501Y314726D01*
X129835Y312503D01*
X129835Y308059D01*
G54D21*
X119168Y308059D02*
X119168Y325837D01*
X125835Y325837D01*
X128501Y324726D01*
X129835Y322503D01*
X129835Y320281D01*
X128501Y318059D01*
X125835Y316948D01*
X119168Y316948D01*
G54D21*
X145391Y322503D02*
X145391Y311392D01*
X144057Y309170D01*
X141391Y308059D01*
X138724Y308059D01*
X136057Y309170D01*
X134724Y311392D01*
X134724Y322503D01*
X136057Y324726D01*
X138724Y325837D01*
X141391Y325837D01*
X144057Y324726D01*
X145391Y322503D01*
G54D21*
X150280Y325837D02*
X150280Y308059D01*
X159613Y308059D01*
G54D21*
X164502Y325837D02*
X164502Y308059D01*
X173835Y308059D01*
G54D21*
X188057Y308059D02*
X178724Y308059D01*
X178724Y325837D01*
X188057Y325837D01*
G54D21*
X178724Y316948D02*
X188057Y316948D01*
G54D21*
X198279Y316948D02*
X202279Y314726D01*
X203613Y312503D01*
X203613Y308059D01*
G54D21*
X192946Y308059D02*
X192946Y325837D01*
X199613Y325837D01*
X202279Y324726D01*
X203613Y322503D01*
X203613Y320281D01*
X202279Y318059D01*
X199613Y316948D01*
X192946Y316948D01*
G54D22*
X-46196Y9609D02*
X-46196Y18498D01*
X-42863Y18498D01*
X-41529Y17942D01*
X-40863Y16831D01*
X-40863Y11276D01*
X-41529Y10165D01*
X-42863Y9609D01*
X-46196Y9609D01*
G54D22*
X-38419Y9609D02*
X-38419Y14609D01*
G54D22*
X-38419Y16276D02*
X-38419Y16276D01*
G54D22*
X-35975Y7942D02*
X-34642Y7387D01*
X-33708Y7387D01*
X-32375Y7942D01*
X-31975Y9053D01*
X-31975Y14609D01*
G54D22*
X-31975Y13165D02*
X-32642Y14276D01*
X-33975Y14609D01*
X-35308Y14276D01*
X-35975Y13165D01*
X-35975Y10942D01*
X-35308Y9831D01*
X-33975Y9609D01*
X-32642Y9831D01*
X-31975Y10942D01*
G54D22*
X-29531Y9609D02*
X-29531Y14609D01*
G54D22*
X-29531Y16276D02*
X-29531Y16276D01*
G54D22*
X-25754Y18498D02*
X-25754Y10165D01*
X-25087Y9609D01*
X-24420Y9831D01*
G54D22*
X-27087Y14609D02*
X-24420Y14609D01*
G54D22*
X-21976Y14053D02*
X-20643Y14609D01*
X-19043Y14609D01*
X-17976Y13498D01*
X-17976Y9609D01*
G54D22*
X-17976Y11276D02*
X-18643Y12387D01*
X-19976Y12609D01*
X-21309Y12387D01*
X-21976Y11276D01*
X-21709Y10165D01*
X-20643Y9609D01*
X-19976Y9609D01*
X-19709Y9609D01*
X-18643Y10165D01*
X-17976Y11276D01*
G54D22*
X-15532Y9609D02*
X-15532Y18498D01*
G54D22*
X3587Y-22141D02*
X-1746Y-22141D01*
X-1746Y-21585D01*
X-1079Y-20474D01*
X2921Y-17141D01*
X3587Y-16030D01*
X3587Y-14919D01*
X2921Y-13808D01*
X1587Y-13252D01*
X254Y-13252D01*
X-1079Y-13808D01*
X-1746Y-14919D01*
G54D22*
X23654Y-14919D02*
X24321Y-13808D01*
X25654Y-13252D01*
X26987Y-13252D01*
X28321Y-13808D01*
X28987Y-14919D01*
X28987Y-16030D01*
X28321Y-17141D01*
X26987Y-17697D01*
X28321Y-18252D01*
X28987Y-19363D01*
X28987Y-20474D01*
X28321Y-21585D01*
X26987Y-22141D01*
X25654Y-22141D01*
X24321Y-21585D01*
X23654Y-20474D01*
G54D22*
X53054Y-22141D02*
X53054Y-13252D01*
X49054Y-18808D01*
X49054Y-19919D01*
X54387Y-19919D01*
G54D22*
X79787Y-13252D02*
X74454Y-13252D01*
X74454Y-17141D01*
X75121Y-17141D01*
X76454Y-16585D01*
X77787Y-16585D01*
X79121Y-17141D01*
X79787Y-18252D01*
X79787Y-20474D01*
X79121Y-21585D01*
X77787Y-22141D01*
X76454Y-22141D01*
X75121Y-21585D01*
X74454Y-20474D01*
G54D22*
X105187Y-14919D02*
X104521Y-13808D01*
X103187Y-13252D01*
X101854Y-13252D01*
X100521Y-13808D01*
X99854Y-14919D01*
X99854Y-17697D01*
X99854Y-18252D01*
X101854Y-17141D01*
X103187Y-17141D01*
X104521Y-17697D01*
X105187Y-18808D01*
X105187Y-20474D01*
X104521Y-21585D01*
X103187Y-22141D01*
X101854Y-22141D01*
X100521Y-21585D01*
X99854Y-20474D01*
X99854Y-17697D01*
G54D22*
X125254Y-13252D02*
X130587Y-13252D01*
X129921Y-14363D01*
X128587Y-16030D01*
X127254Y-18252D01*
X126587Y-19919D01*
X126587Y-22141D01*
G54D22*
X153987Y-17697D02*
X152654Y-17697D01*
X151321Y-17141D01*
X150654Y-16030D01*
X150654Y-14919D01*
X151321Y-13808D01*
X152654Y-13252D01*
X153987Y-13252D01*
X155321Y-13808D01*
X155987Y-14919D01*
X155987Y-16030D01*
X155321Y-17141D01*
X153987Y-17697D01*
X155321Y-18252D01*
X155987Y-19363D01*
X155987Y-20474D01*
X155321Y-21585D01*
X153987Y-22141D01*
X152654Y-22141D01*
X151321Y-21585D01*
X150654Y-20474D01*
X150654Y-19363D01*
X151321Y-18252D01*
X152654Y-17697D01*
G54D22*
X176054Y-20474D02*
X176721Y-21585D01*
X178054Y-22141D01*
X179387Y-22141D01*
X180721Y-21585D01*
X181387Y-20474D01*
X181387Y-17697D01*
X181387Y-17141D01*
X179387Y-18252D01*
X178054Y-18252D01*
X176721Y-17697D01*
X176054Y-16585D01*
X176054Y-14919D01*
X176721Y-13808D01*
X178054Y-13252D01*
X179387Y-13252D01*
X180721Y-13808D01*
X181387Y-14919D01*
X181387Y-17697D01*
G54D22*
X206787Y-14919D02*
X206787Y-20474D01*
X206121Y-21585D01*
X204787Y-22141D01*
X203454Y-22141D01*
X202121Y-21585D01*
X201454Y-20474D01*
X201454Y-14919D01*
X202121Y-13808D01*
X203454Y-13252D01*
X204787Y-13252D01*
X206121Y-13808D01*
X206787Y-14919D01*
G54D22*
X226854Y-16585D02*
X230187Y-13252D01*
X230187Y-22141D01*
G54D22*
X257587Y-22141D02*
X252254Y-22141D01*
X252254Y-21585D01*
X252921Y-20474D01*
X256921Y-17141D01*
X257587Y-16030D01*
X257587Y-14919D01*
X256921Y-13808D01*
X255587Y-13252D01*
X254254Y-13252D01*
X252921Y-13808D01*
X252254Y-14919D01*
G54D22*
X-134020Y58584D02*
X-142909Y61918D01*
X-134020Y65251D01*
G54D22*
X-137354Y59918D02*
X-137354Y63918D01*
G54D22*
X-134020Y67695D02*
X-139020Y67695D01*
G54D22*
X-137909Y67695D02*
X-138687Y68362D01*
X-139020Y69695D01*
X-138687Y71029D01*
X-137909Y71695D01*
X-134020Y71695D01*
G54D22*
X-138465Y74139D02*
X-139020Y75473D01*
X-139020Y77073D01*
X-137909Y78139D01*
X-134020Y78139D01*
G54D22*
X-135687Y78139D02*
X-136798Y77473D01*
X-137020Y76139D01*
X-136798Y74806D01*
X-135687Y74139D01*
X-134576Y74406D01*
X-134020Y75473D01*
X-134020Y76139D01*
X-134020Y76406D01*
X-134576Y77473D01*
X-135687Y78139D01*
G54D22*
X-134020Y80583D02*
X-142909Y80583D01*
G54D22*
X-135354Y87027D02*
X-137576Y87027D01*
X-138687Y86361D01*
X-139020Y85027D01*
X-138687Y83694D01*
X-137576Y83027D01*
X-135354Y83027D01*
X-134243Y83694D01*
X-134020Y85027D01*
X-134243Y86361D01*
X-135354Y87027D01*
G54D22*
X-132354Y89471D02*
X-131798Y90805D01*
X-131798Y91738D01*
X-132354Y93071D01*
X-133465Y93471D01*
X-139020Y93471D01*
G54D22*
X-137576Y93471D02*
X-138687Y92805D01*
X-139020Y91471D01*
X-138687Y90138D01*
X-137576Y89471D01*
X-135354Y89471D01*
X-134243Y90138D01*
X-134020Y91471D01*
X-134243Y92805D01*
X-135354Y93471D01*
G54D22*
X-128746Y228048D02*
X-123413Y228048D01*
X-124079Y226937D01*
X-125413Y225270D01*
X-126746Y223048D01*
X-127413Y221381D01*
X-127413Y219159D01*
G54D22*
X-123413Y200981D02*
X-124079Y202092D01*
X-125413Y202648D01*
X-126746Y202648D01*
X-128079Y202092D01*
X-128746Y200981D01*
X-128746Y198203D01*
X-128746Y197648D01*
X-126746Y198759D01*
X-125413Y198759D01*
X-124079Y198203D01*
X-123413Y197092D01*
X-123413Y195426D01*
X-124079Y194315D01*
X-125413Y193759D01*
X-126746Y193759D01*
X-128079Y194315D01*
X-128746Y195426D01*
X-128746Y198203D01*
G54D22*
X-123413Y177248D02*
X-128746Y177248D01*
X-128746Y173359D01*
X-128079Y173359D01*
X-126746Y173915D01*
X-125413Y173915D01*
X-124079Y173359D01*
X-123413Y172248D01*
X-123413Y170026D01*
X-124079Y168915D01*
X-125413Y168359D01*
X-126746Y168359D01*
X-128079Y168915D01*
X-128746Y170026D01*
G54D22*
X-124746Y142959D02*
X-124746Y151848D01*
X-128746Y146292D01*
X-128746Y145181D01*
X-123413Y145181D01*
G54D22*
X-128746Y124781D02*
X-128079Y125892D01*
X-126746Y126448D01*
X-125413Y126448D01*
X-124079Y125892D01*
X-123413Y124781D01*
X-123413Y123670D01*
X-124079Y122559D01*
X-125413Y122003D01*
X-124079Y121448D01*
X-123413Y120337D01*
X-123413Y119226D01*
X-124079Y118115D01*
X-125413Y117559D01*
X-126746Y117559D01*
X-128079Y118115D01*
X-128746Y119226D01*
G54D22*
X-123413Y92159D02*
X-128746Y92159D01*
X-128746Y92715D01*
X-128079Y93826D01*
X-124079Y97159D01*
X-123413Y98270D01*
X-123413Y99381D01*
X-124079Y100492D01*
X-125413Y101048D01*
X-126746Y101048D01*
X-128079Y100492D01*
X-128746Y99381D01*
G54D22*
X-128746Y72315D02*
X-125413Y75648D01*
X-125413Y66759D01*
G54D16*
X-115662Y-38654D02*
X-115662Y-13253D01*
X-64862Y-13254D01*
X-64862Y-38654D01*
X-115662Y-38654D01*
G54D13*
X-122995Y-25424D02*
X-129346Y-25424D01*
G54D13*
X-129346Y-33361D02*
X-129345Y-17486D01*
G54D13*
X-132520Y-19868D02*
X-132520Y-30980D01*
G54D13*
X-135695Y-27805D02*
X-135695Y-23043D01*
G54D22*
X-51817Y-30878D02*
X-51817Y-36433D01*
X-52483Y-37544D01*
X-53817Y-38100D01*
X-55150Y-38100D01*
X-56483Y-37544D01*
X-57150Y-36433D01*
X-57150Y-30878D01*
X-56483Y-29767D01*
X-55150Y-29211D01*
X-53817Y-29211D01*
X-52483Y-29767D01*
X-51817Y-30878D01*
G54D22*
X-49373Y-29211D02*
X-49373Y-36433D01*
X-48706Y-37544D01*
X-47373Y-38100D01*
X-46040Y-38100D01*
X-44706Y-37544D01*
X-44040Y-36433D01*
X-44040Y-29211D01*
G54D22*
X-38929Y-38100D02*
X-38929Y-29211D01*
G54D22*
X-41596Y-29211D02*
X-36263Y-29211D01*
G54D22*
X-31242Y-34211D02*
X-25909Y-34211D01*
G54D22*
X-28575Y-31989D02*
X-28575Y-36433D01*
G54D22*
X-18132Y-29211D02*
X-23465Y-29211D01*
X-23465Y-33100D01*
X-22798Y-33100D01*
X-21465Y-32544D01*
X-20132Y-32544D01*
X-18798Y-33100D01*
X-18132Y-34211D01*
X-18132Y-36433D01*
X-18798Y-37544D01*
X-20132Y-38100D01*
X-21465Y-38100D01*
X-22798Y-37544D01*
X-23465Y-36433D01*
G54D22*
X-15688Y-29211D02*
X-12355Y-38100D01*
X-9021Y-29211D01*
M02*
