; Drill file
; Format: 2.4 (00.0000)
M48
INCH
T01C0.0315
T02C0.0354
T03C0.0591
T04C0.1181
%
G05
G90
T01
X-001550Y002300
X-000550Y002300
X000450Y002300
X002450Y002300
X003450Y002300
X004450Y002300
X005450Y002300
X006450Y002300
X007450Y002300
X008450Y002300
X009450Y002300
X010450Y002300
X011450Y002300
X012450Y002300
X012450Y008300
X011450Y008300
X010450Y008300
X009450Y008300
X008450Y008300
X007450Y008300
X006450Y008300
X005450Y008300
X004450Y008300
X003450Y008300
X002450Y008300
X001450Y008300
X000450Y008300
X-001550Y008300
X-001510Y006290
X-002510Y006290
X-002510Y005290
X-002510Y004290
X-001510Y004290
X-001510Y005290
T02
X-007070Y001880
X-004500Y002500
X-004500Y003500
X-004500Y004500
X-004500Y005500
X-004500Y006500
X-004500Y007500
X-004500Y008500
X-004050Y010480
X-003050Y010480
X-000550Y008300
X000630Y010380
X003630Y010380
X005180Y010520
X007180Y010530
X009130Y010380
X009730Y012420
X011740Y012430
X013130Y010380
X014680Y010530
X014680Y012540
X017430Y008880
X017430Y005880
X017430Y001880
X013930Y-001370
X010000Y000000
X009000Y000000
X008000Y000000
X007000Y000000
X006000Y000000
X005000Y000000
X004000Y000000
X003000Y000000
X002000Y000000
X001000Y000000
X000000Y000000
X001450Y002300
X004930Y-001620
X-003050Y-001020
X-004050Y-001020
X-007070Y005880
X-007070Y009380
T03
X-002540Y002310
X-002540Y008310
T04
X-006570Y-001120
X-006570Y012130
X017430Y011880
X016930Y-001120
M30
