; Drill file
; Format: 2.4 (00.0000)
M48
INCH
T01C0.0157
T02C0.0197
T03C0.0236
T04C0.0283
T05C0.0315
T06C0.0354
T07C0.0394
T08C0.0433
T09C0.0472
T10C0.0512
T11C0.0551
T12C0.0591
T13C0.063
T14C0.0787
T15C0.0862
T16C0.1181
T17C0.122
T18C0.126
T19C0.1575
%
G05
G90
T01
X036440Y-039380
X076760Y-059980
X077260Y-062850
X079100Y-061930
X079100Y-056930
X076090Y-066220
X075380Y-067050
X075760Y-067540
X078260Y-067790
X078060Y-069580
X076130Y-072980
X075880Y-074040
X077010Y-077790
X076570Y-078400
X076540Y-079770
X076630Y-081110
X077560Y008060
X077560Y009060
X075560Y009060
X075560Y008060
X074060Y008060
X074060Y009060
X072060Y009060
X072060Y008060
X070560Y008060
X070560Y009060
X068560Y009060
X068560Y008060
X067060Y008060
X067060Y009060
X065060Y009060
X065060Y008060
X065060Y012060
X066060Y012060
X067060Y012060
X068560Y012060
X069560Y012060
X070560Y012060
X072060Y012060
X073060Y012060
X074060Y012060
X075560Y012060
X076560Y012060
X077560Y012060
T02
X004570Y-069270
X004570Y-068270
X008070Y-046020
X009070Y-046020
X032700Y-049270
X032700Y-054520
X032700Y-059770
X032700Y-065020
X032700Y-070270
X034200Y-080890
X031200Y-082520
X055330Y-061720
X055330Y-060910
X056080Y-059000
X055330Y-058530
X052820Y-055520
X052830Y-054500
X050570Y-053770
X049330Y-053750
X047200Y-052000
X046070Y-052020
X039320Y-047520
X039200Y-046250
X037950Y-045000
X037670Y-044020
X032820Y-043020
X032760Y-040610
X033510Y-040580
X029570Y-022270
X028570Y-022270
X027570Y-019770
X026320Y-020020
X032820Y-019520
X033730Y-017020
X038320Y-013270
X038700Y-012500
X038450Y-007890
X039200Y-007250
X048070Y-012520
X048950Y-012500
X049820Y-010020
X049450Y-009000
X055450Y-014750
X063280Y-014350
X066100Y-015250
X067320Y-014660
X069570Y-016100
X070380Y-014350
X072990Y-014740
X077400Y-015160
X077470Y-013940
X074700Y-021500
X074820Y-022770
X077570Y-022770
X077450Y-024000
X077700Y-036000
X078070Y-037020
X075450Y-038500
X078030Y-045690
X078010Y-046660
X070000Y-046600
X067320Y-045000
X066320Y-045910
X064220Y-043970
X063030Y-046250
X060500Y-045750
X056070Y-045280
X056040Y-046470
X053570Y-046520
X053700Y-045000
X054700Y-042000
X054820Y-040770
X080060Y-075320
X080060Y-076320
X051840Y010620
T03
X025710Y-081900
X025710Y-079900
X025740Y-077870
X025740Y-075870
X025790Y-074270
X025790Y-072270
X028790Y-072270
X029790Y-072270
X029790Y-074270
X028790Y-074270
X028740Y-075870
X029740Y-075870
X029740Y-077870
X028740Y-077870
X028710Y-079900
X029710Y-079900
X029710Y-081900
X028710Y-081900
X028790Y-067440
X029790Y-067440
X029790Y-065440
X028790Y-065440
X028760Y-063880
X029760Y-063880
X029760Y-061880
X028760Y-061880
X025760Y-061880
X025760Y-063880
X025790Y-065440
X025790Y-067440
X025820Y-057100
X025820Y-055100
X025880Y-053690
X025880Y-051690
X028880Y-051690
X029880Y-051690
X029880Y-053690
X028880Y-053690
X028820Y-055100
X029820Y-055100
X029820Y-057100
X028820Y-057100
X028880Y-046790
X029880Y-046790
X029880Y-044790
X028880Y-044790
X025880Y-044790
X025880Y-046790
X018350Y-048420
X034440Y-042380
X036440Y-042380
X037440Y-041000
X038440Y-041000
X036440Y-038380
X034440Y-038380
X034440Y-039380
X042200Y-038330
X043320Y-039460
X047320Y-044020
X047200Y-044960
X049820Y-038390
X025430Y-024800
X024800Y-018550
X064250Y012200
X067830Y012090
X072560Y012710
X074840Y012060
X076120Y012680
T04
X002860Y-084280
X-004420Y-057360
X-004570Y-048570
X-000580Y-038820
X-000580Y-030320
X-000580Y-021820
X-000580Y-013320
X020920Y-013320
X020920Y-021820
X020920Y-030320
X020920Y-038820
X016400Y005140
X028370Y005230
T05
X046830Y003550
X047830Y003550
X048830Y003550
X049830Y003550
X050830Y003550
X051830Y003550
X052830Y003550
X053830Y003550
X054830Y003550
X055830Y003550
X056830Y003550
X057830Y003550
X058830Y003550
X059830Y003550
X060830Y003550
X060830Y009550
X059830Y009550
X058830Y009550
X057830Y009550
X056830Y009550
X055830Y009550
X054830Y009550
X053830Y009550
X052830Y009550
X051830Y009550
X050830Y009550
X049830Y009550
X048830Y009550
X047830Y009550
X046830Y009550
X046870Y007540
X045870Y007540
X045870Y006540
X046870Y006540
X046870Y005540
X045870Y005540
X062300Y011130
T06
X-008870Y-100060
X-007240Y-100160
X-005690Y-099660
X-005700Y-100670
X-005700Y-101670
X-003960Y-101800
X-001150Y-101800
X-000020Y-099070
X000860Y-097320
X-001150Y-097320
X-001020Y-095520
X-001650Y-094830
X-001020Y-094140
X002800Y-094200
X002800Y-096080
X002290Y-098960
X005100Y-098960
X009020Y-098420
X009710Y-097800
X010410Y-098420
X012210Y-097710
X011460Y-095770
X008650Y-095770
X008760Y-092910
X008760Y-091900
X012480Y-091230
X012480Y-093110
X015140Y-092670
X015140Y-091670
X017920Y-087140
X018920Y-087140
X023510Y-087170
X024510Y-087170
X028230Y-086160
X029230Y-086160
X029200Y-084720
X028200Y-084720
X023880Y-070430
X023180Y-069730
X024270Y-068680
X024270Y-066670
X022290Y-068300
X020040Y-068920
X020040Y-067050
X019460Y-065180
X020050Y-063420
X019930Y-061780
X020040Y-060420
X021290Y-059920
X021290Y-058170
X020040Y-058670
X020540Y-056420
X022160Y-056790
X022840Y-056170
X023540Y-056790
X024290Y-058170
X024290Y-059920
X024290Y-061160
X024290Y-063170
X021940Y-061780
X017040Y-060420
X016060Y-061050
X015350Y-060420
X014660Y-061040
X013040Y-060920
X013050Y-062660
X012540Y-063920
X010540Y-063920
X010050Y-062660
X010040Y-060920
X008670Y-060920
X006660Y-060920
X006690Y-064030
X007680Y-064040
X006660Y-066160
X006670Y-068170
X006570Y-069850
X006570Y-070850
X001720Y-071270
X-001290Y-071270
X-003400Y-071330
X-005530Y-069200
X-007560Y-065940
X-007560Y-064940
X-006720Y-063660
X-011640Y-072030
X-012330Y-072020
X-012330Y-073020
X-012330Y-074020
X-006700Y-076600
X-006700Y-078600
X-002700Y-079850
X-001200Y-079850
X-001200Y-081850
X-002700Y-081850
X-003280Y-083520
X-004920Y-084530
X-005620Y-085240
X-001280Y-084520
X-001280Y-083520
X000260Y-086240
X000260Y-087240
X-002030Y-088320
X-002030Y-089320
X003330Y-090070
X003330Y-091950
X-002840Y-099070
X-005690Y-098650
X-005690Y-097650
X-007240Y-097340
X-008860Y-097250
X-007590Y-095590
X-007580Y-092780
X004610Y-078600
X004610Y-076600
X017040Y-068920
X017040Y-067040
X017450Y-065190
X017040Y-063420
X016040Y-063420
X015350Y-062790
X014660Y-063420
X013040Y-059170
X014660Y-058670
X015350Y-058040
X016040Y-058670
X017040Y-058670
X016290Y-056170
X015360Y-054790
X014670Y-054170
X016050Y-054170
X017040Y-054170
X017040Y-052420
X016040Y-052420
X016040Y-050420
X017040Y-050420
X015920Y-048420
X014920Y-048420
X014040Y-050420
X013040Y-050420
X013040Y-051800
X014040Y-052420
X012150Y-053680
X011170Y-053670
X010540Y-055680
X010040Y-057040
X008670Y-055790
X006660Y-055800
X007540Y-053670
X008520Y-053680
X010040Y-051790
X010040Y-050420
X009540Y-048420
X010550Y-048420
X011040Y-045970
X012040Y-045970
X007670Y-047250
X006960Y-047960
X005270Y-044690
X005270Y-043760
X004270Y-043760
X004270Y-044690
X002890Y-043500
X006640Y-043530
X005500Y-036360
X005500Y-034860
X005500Y-033610
X002750Y-033610
X002750Y-034860
X002750Y-036360
X-004580Y-038820
X-005450Y-042800
X-006460Y-042800
X-005950Y-044630
X-005950Y-047630
X-011240Y-049300
X-011240Y-050300
X-012460Y-049250
X-004420Y-053360
X010040Y-059170
X013040Y-057050
X012540Y-055670
X014290Y-056170
X018540Y-056420
X020040Y-054170
X021290Y-054420
X021290Y-052790
X020040Y-052420
X020040Y-050420
X020290Y-048420
X021290Y-048420
X023440Y-050740
X024150Y-050030
X024290Y-052800
X024290Y-054420
X027130Y-042950
X028730Y-043410
X029580Y-041120
X031940Y-040130
X031940Y-038250
X030680Y-036890
X030310Y-035460
X030680Y-034220
X030790Y-032870
X029880Y-030690
X028500Y-030690
X028060Y-028950
X029440Y-028130
X029440Y-026240
X032190Y-026000
X033190Y-026000
X034190Y-026000
X037940Y-027750
X040940Y-026000
X041020Y-020060
X039020Y-020060
X039070Y-016160
X038710Y-014460
X039490Y-013680
X041190Y-014040
X043220Y-013880
X042470Y-011460
X043600Y-009960
X043600Y-008460
X043600Y-006210
X040060Y-008250
X039350Y-008960
X037570Y-007770
X038920Y-011460
X040220Y-011460
X041470Y-016960
X043470Y-016960
X044850Y-016960
X044590Y-018730
X043240Y-020150
X044590Y-020740
X046230Y-013880
X048570Y-010890
X048570Y-009890
X051140Y-015220
X052140Y-015220
X053040Y-017690
X054040Y-017690
X057440Y-014020
X057440Y-012010
X060630Y-011880
X061940Y-013010
X061940Y-015020
X063590Y-016780
X062430Y-017880
X060630Y-017880
X060630Y-020880
X062430Y-020880
X065680Y-020880
X067430Y-019880
X065680Y-017880
X065590Y-016780
X065050Y-015140
X064430Y-014450
X065050Y-013750
X065380Y-010780
X067630Y-011880
X069050Y-013750
X068430Y-014450
X069050Y-015140
X070430Y-016880
X072430Y-016880
X072050Y-015140
X071430Y-014450
X072050Y-013750
X074340Y-014280
X076340Y-014280
X073530Y-009130
X070530Y-009130
X067630Y-008880
X065180Y-007910
X063180Y-007920
X060630Y-008880
X062380Y-010780
X058950Y-006650
X062350Y-003590
X062170Y-000370
X059170Y-000370
X057640Y-000280
X057640Y001320
X054360Y001910
X052500Y001120
X051870Y000430
X052500Y-000260
X054350Y-001090
X050360Y-000590
X047350Y-000590
X046360Y000410
X043350Y000410
X040010Y001770
X038500Y002390
X038510Y005390
X040370Y005430
X041000Y006120
X041000Y004740
X041030Y009220
X043040Y009220
X042500Y011160
X039500Y011160
X037040Y011480
X037040Y009600
X036250Y007660
X033250Y007660
X031870Y007490
X031240Y008180
X031870Y008870
X030250Y009160
X027250Y009160
X021040Y010350
X021040Y012230
X011230Y005540
X009340Y005540
X009220Y000540
X011100Y000540
X016400Y001140
X014250Y-008110
X014250Y-009360
X014250Y-010860
X011500Y-010860
X011500Y-009360
X011500Y-008110
X005500Y-008110
X005500Y-009360
X005500Y-010860
X002750Y-010860
X002750Y-009360
X002750Y-008110
X002750Y-016610
X002750Y-017860
X002750Y-019360
X005500Y-019360
X005500Y-017860
X005500Y-016610
X011500Y-016610
X011500Y-017860
X011500Y-019360
X014250Y-019360
X014250Y-017860
X014250Y-016610
X016920Y-013320
X016920Y-021820
X014250Y-025110
X014250Y-026360
X014250Y-027860
X011500Y-027860
X011500Y-026360
X011500Y-025110
X005500Y-025110
X005500Y-026360
X005500Y-027860
X002750Y-027860
X002750Y-026360
X002750Y-025110
X-004580Y-021820
X-004580Y-030320
X011500Y-033610
X011500Y-034860
X011500Y-036360
X014250Y-036360
X014250Y-034860
X014250Y-033610
X016920Y-030320
X016920Y-038820
X026130Y-035950
X027680Y-036880
X028310Y-035460
X027680Y-034220
X027780Y-032870
X029580Y-038120
X033440Y-035630
X033440Y-033750
X037410Y-032020
X040940Y-033500
X046720Y-032420
X048220Y-032420
X049470Y-032420
X049470Y-035170
X048220Y-035170
X046720Y-035170
X047840Y-038690
X047840Y-039440
X047990Y-040770
X047990Y-041640
X048110Y-043010
X049230Y-042530
X050480Y-042530
X051730Y-042530
X051730Y-040030
X049230Y-040030
X046470Y-040510
X045590Y-040510
X044340Y-039510
X044340Y-038760
X043500Y-040750
X039400Y-045250
X038780Y-044630
X042080Y-052940
X043960Y-052940
X043530Y-055510
X042660Y-055510
X039930Y-057090
X046080Y-057240
X047580Y-057240
X047570Y-055240
X048130Y-053890
X047510Y-053270
X048860Y-052630
X051730Y-052530
X051610Y-049130
X050360Y-049130
X048860Y-049130
X046070Y-055240
X048040Y-061560
X050180Y-060470
X050930Y-060470
X051740Y-060470
X054180Y-060590
X054250Y-058660
X056010Y-063270
X052480Y-064460
X050590Y-064460
X048150Y-065070
X047390Y-065070
X048120Y-066070
X048090Y-067070
X047350Y-067100
X048060Y-068070
X048030Y-069070
X047340Y-069120
X047990Y-070070
X050420Y-071550
X052290Y-072550
X052290Y-074430
X056100Y-070840
X056100Y-069830
X057870Y-069600
X055960Y-067720
X053040Y-068780
X051030Y-068780
X053010Y-066270
X060360Y-060830
X063020Y-059150
X064030Y-059150
X066270Y-059150
X067280Y-059150
X069210Y-057930
X069210Y-056930
X072720Y-059270
X072700Y-060690
X072700Y-062070
X072700Y-064320
X072700Y-066070
X071590Y-068190
X069710Y-068190
X066780Y-069650
X065770Y-069650
X063530Y-069650
X062520Y-069650
X062450Y-067570
X063950Y-067570
X072080Y-071190
X072080Y-072570
X073910Y-072800
X073910Y-070800
X077140Y-073150
X077140Y-074150
X075080Y-075160
X074750Y-076640
X072080Y-076570
X072080Y-074820
X067400Y-079910
X065400Y-079910
X063600Y-081460
X061720Y-081460
X061950Y-078070
X063450Y-078070
X063730Y-085580
X065520Y-086040
X067530Y-086040
X070900Y-086130
X072780Y-086130
X076110Y-084600
X077110Y-084600
X077070Y-085580
X078540Y-085320
X078540Y-086300
X080100Y-086050
X080100Y-087050
X080100Y-084330
X080100Y-083330
X078540Y-084320
X080090Y-074390
X080090Y-073390
X080440Y-071630
X080440Y-070940
X074860Y-063910
X076220Y-062320
X076330Y-060820
X074870Y-060910
X075720Y-059270
X077490Y-059220
X075930Y-050690
X076040Y-048430
X076030Y-046420
X072850Y-048560
X071540Y-047430
X071530Y-045420
X069890Y-043660
X071050Y-042570
X072850Y-042570
X072850Y-039560
X071050Y-039560
X067800Y-039560
X066050Y-040560
X067800Y-042570
X067890Y-043660
X068420Y-045310
X069050Y-046000
X068430Y-046690
X068100Y-049670
X065850Y-048560
X064430Y-046690
X065050Y-046000
X064420Y-045310
X063050Y-043570
X061050Y-043570
X061420Y-045310
X062050Y-046000
X061430Y-046690
X059140Y-046160
X057130Y-046170
X054570Y-044520
X054570Y-043640
X061050Y-040560
X063050Y-040560
X066050Y-043570
X071100Y-049670
X072850Y-051570
X070300Y-052530
X068300Y-052530
X065850Y-051570
X062950Y-051310
X059950Y-051310
X057430Y-050690
X058860Y-056010
X042500Y-064240
X042540Y-065220
X042540Y-066220
X042540Y-067220
X042540Y-068220
X041290Y-066220
X041290Y-065220
X042260Y-071780
X055910Y-078490
X055910Y-079500
X053140Y-084310
X052140Y-084310
X052140Y-085740
X053140Y-085740
X061840Y-085580
X064900Y-099480
X062950Y-102160
X056320Y-101840
X054820Y-101810
X053320Y-101840
X055480Y-098910
X049290Y-101810
X025010Y-102800
X015020Y-097710
X075320Y-101730
X076820Y-101730
X076570Y-037890
X076570Y-036890
X072720Y-035170
X071470Y-035170
X069970Y-035170
X069970Y-032420
X071470Y-032420
X072720Y-032420
X075950Y-023140
X075950Y-022140
X072430Y-019880
X070430Y-019880
X067430Y-016880
X067850Y001660
X069350Y001660
X071350Y001660
X073100Y001660
X074850Y001660
X076600Y001660
X078450Y001660
X078460Y004660
X076610Y004660
X074860Y004660
X073110Y004660
X071360Y004660
X069360Y004660
X067860Y004660
X065860Y004660
X065850Y001660
X063700Y008920
X063700Y009920
X062530Y012100
X061530Y012100
X060530Y012100
X059530Y012100
X058530Y012100
X057530Y012100
X056530Y012100
X055530Y012100
X054530Y012100
X053530Y012100
X049980Y012040
X048090Y012040
X040000Y-001240
X036480Y-001960
X034600Y-001960
X033480Y-001960
X031600Y-001960
X029990Y-002490
X028560Y-001080
X028370Y001230
X029190Y-006240
X032070Y-006140
X033820Y-005640
X032820Y-007830
X032070Y-009640
X030570Y-009640
X029320Y-009640
X029190Y-016240
X030440Y-016240
X031690Y-016240
X032820Y-015760
X032820Y-017140
X032820Y-018140
X031690Y-019990
X029440Y-019990
X027450Y-021330
X026390Y-021330
X023820Y-020270
X023820Y-019390
X024390Y-023890
X024390Y-024770
X-004580Y-013320
X-010370Y-011000
X-010380Y-008990
X-010440Y-007130
X-010440Y-005120
X-009800Y-002550
X-012200Y-002550
X-012170Y003030
X-010670Y003030
X-010670Y005040
X-012170Y005040
X-012060Y007880
X-009870Y007880
X-010290Y010170
X-012300Y010160
X001840Y004670
X003730Y004670
X004600Y000420
X002720Y000420
T07
X-010360Y-100060
X-010360Y-097440
X-010360Y-095440
X-010360Y-093440
X-010360Y-091440
X-010360Y-089440
X-010840Y-082400
X-011660Y-081460
X-006500Y-082470
X-004790Y-082470
X-005770Y-080460
X-005150Y-079330
X000260Y-079430
X001480Y-080460
X003200Y-079300
X002460Y-082470
X000500Y-082470
X004690Y-082960
X006940Y-082220
X009310Y-082960
X009310Y-087710
X013570Y-089010
X018100Y-089420
X020690Y-091460
X018100Y-093420
X020560Y-096210
X025310Y-096210
X025310Y-091460
X031160Y-081590
X032970Y-081540
X032970Y-077540
X031160Y-077590
X031460Y-074620
X031460Y-070620
X031460Y-069290
X028480Y-069120
X026520Y-069120
X027500Y-071130
X024010Y-074170
X024250Y-078120
X022290Y-078120
X023270Y-080130
X022250Y-066160
X023230Y-064150
X021270Y-064150
X027440Y-060800
X028420Y-058790
X026460Y-058790
X031480Y-058640
X031480Y-059930
X031480Y-063930
X031460Y-065290
X031480Y-054640
X031430Y-053340
X033350Y-053390
X031430Y-049340
X031370Y-048090
X028580Y-048310
X026610Y-048300
X027590Y-050310
X031370Y-044090
X033730Y-044320
X035900Y-043560
X035440Y-046200
X040980Y-044660
X043230Y-043900
X042000Y-042160
X046000Y-042160
X045610Y-044660
X045610Y-049410
X040860Y-049410
X039900Y-055060
X039930Y-056090
X049440Y-055920
X049440Y-054920
X050940Y-054920
X050940Y-055920
X050940Y-057420
X054260Y-054100
X053630Y-050920
X053630Y-049920
X056550Y-043690
X057550Y-042690
X058550Y-041690
X058550Y-043690
X056550Y-041690
X056860Y-038750
X053630Y-040420
X046130Y-038800
X043210Y-034180
X042460Y-031680
X042460Y-031630
X043460Y-030630
X042460Y-029630
X044460Y-029630
X044460Y-031630
X051220Y-032420
X050080Y-022910
X055140Y-022550
X056430Y-018750
X057430Y-017750
X058430Y-016750
X058430Y-018750
X056430Y-016750
X055010Y-008460
X055540Y-004390
X054430Y-004300
X052680Y-004300
X051180Y-004430
X049790Y-004410
X058430Y-004430
X059290Y001280
X065130Y006310
X066130Y006310
X067130Y006310
X068630Y006310
X069630Y006310
X070630Y006310
X072130Y006310
X073130Y006310
X074130Y006310
X075630Y006310
X076630Y006310
X077630Y006310
X079440Y008380
X079770Y011500
X073270Y013690
X071270Y013690
X069270Y013690
X067270Y013690
X064270Y013690
X048260Y008310
X036010Y005310
X036010Y000560
X031260Y000690
X030520Y002940
X031260Y005310
X024790Y003100
X024040Y005220
X024040Y000470
X025510Y-001940
X026580Y-003080
X027540Y-002530
X028270Y-007500
X023960Y-007620
X021880Y-009120
X021140Y-006870
X021140Y-011500
X021140Y-015370
X021880Y-017620
X021140Y-020000
X024010Y-022040
X021140Y-023870
X021880Y-026120
X021140Y-028500
X021140Y-032370
X021880Y-034620
X021140Y-037000
X024000Y-038500
X027800Y-039470
X035370Y-036340
X036520Y-037160
X036870Y-034710
X034440Y-031000
X032690Y-031750
X032690Y-030000
X032690Y-028250
X034440Y-029000
X034480Y-016020
X034480Y-014020
X034480Y-012020
X034480Y-009020
X037480Y-009020
X037800Y-006220
X037480Y-012020
X037480Y-014020
X037480Y-016020
X025550Y-012350
X025550Y-011220
X016390Y-011500
X016390Y-015250
X016390Y-020000
X016390Y-023750
X016390Y-028500
X016390Y-032250
X016390Y-037000
X014370Y-039960
X010620Y-039960
X009220Y-036700
X009620Y-034960
X009610Y-032960
X007110Y-032960
X007120Y-034960
X007210Y-036700
X006370Y-039960
X004910Y-040590
X002870Y-039960
X000050Y-037480
X-003330Y-039830
X-004700Y-037350
X-005440Y-035100
X-004700Y-032730
X-004700Y-028850
X-005440Y-026600
X-004700Y-024230
X-007240Y-022040
X-004700Y-020350
X-005440Y-018100
X-004700Y-015730
X-004700Y-011850
X-005440Y-009600
X-004700Y-007230
X-003990Y-004380
X-003820Y-001300
X-005480Y001640
X-001880Y004070
X-000880Y004070
X-001880Y007070
X-004040Y007260
X-003540Y008510
X-005420Y007130
X-006300Y006250
X-001110Y010310
X000890Y010310
X002890Y010310
X003770Y011940
X004890Y010310
X007050Y011100
X010120Y011070
X011120Y011070
X010120Y008570
X012840Y004320
X012840Y003070
X012840Y001820
X013630Y-000710
X014920Y-002850
X014370Y-004460
X016390Y-006750
X010620Y-004460
X011020Y-003040
X009610Y-007460
X009620Y-009460
X009220Y-011200
X007210Y-011200
X007120Y-009460
X007110Y-007460
X006370Y-004460
X005160Y-003430
X002870Y-004460
X000050Y-007230
X000050Y-011980
X000050Y-015730
X-000940Y-020100
X000050Y-020480
X000050Y-024230
X000050Y-028980
X000050Y-032730
X007210Y-028200
X007120Y-026460
X007110Y-024460
X009610Y-024460
X009620Y-026460
X009220Y-028200
X009220Y-019700
X009620Y-017960
X009610Y-015960
X007110Y-015960
X007120Y-017960
X007210Y-019700
X006340Y001570
X006340Y002820
X006340Y004070
X001920Y012720
X002770Y013690
X000770Y013690
X-001230Y013690
X004770Y013690
X019290Y005220
X018550Y002850
X019290Y000600
X-012450Y001640
X-000020Y-043380
X-000270Y-045310
X-002520Y-046070
X-004570Y-044570
X-002640Y-050820
X-005550Y-052370
X-002340Y-054830
X-005380Y-058290
X-005380Y-059290
X-005380Y-060290
X-002340Y-059580
X000030Y-060320
X002280Y-059580
X004510Y-059120
X004730Y-056190
X002410Y-054830
X002110Y-050820
X004980Y-051370
X005010Y-047690
X002110Y-046070
X006790Y-042320
X-010510Y-052370
X-000750Y-062640
X002560Y-062730
X-005460Y-071040
X-005460Y-072040
X-005460Y-073040
X003200Y-075300
X007540Y-078320
X004560Y-087710
X002860Y-088280
X006050Y-091770
X006050Y-093020
X006050Y-094270
X046400Y-081810
X059340Y-076100
X060330Y-074090
X058360Y-074090
X060250Y-065470
X061230Y-063470
X059270Y-063460
X064130Y-054270
X068160Y-054300
X071600Y-052680
X074530Y-053790
X076290Y-054190
X077600Y-054930
X077600Y-055930
X077600Y-056930
X077600Y-057930
X077850Y-061430
X077850Y-062430
X077850Y-063430
X077850Y-064430
X077850Y-065430
X077630Y-066990
X076630Y-066990
X076500Y-068360
X077500Y-068360
X077170Y-069860
X077170Y-070990
X080420Y-069940
X078840Y-074880
X077970Y-076940
X078190Y-079300
X077190Y-079300
X077160Y-080500
X078160Y-080500
X079630Y-082200
X080640Y-077690
X065460Y-081930
X065460Y-083180
X065460Y-084430
X061440Y-100000
X059380Y-102320
X057440Y-100000
X080440Y-099810
X074930Y-051850
X074990Y-043660
X076990Y-043660
X076990Y-041660
X074990Y-041660
X074620Y-037370
X078130Y-038120
X076960Y-031680
X075960Y-030680
X074960Y-029680
X076960Y-029680
X076460Y-027180
X074960Y-031680
X067970Y-032420
X071350Y-021360
X074930Y-018750
X075930Y-017750
X074930Y-016750
X076930Y-016750
X076930Y-018750
X078250Y-018330
X075830Y-005930
X074620Y-004430
X078940Y-004010
X078900Y-002650
X078700Y-001310
X078620Y000130
X077150Y000160
X064130Y-021330
T08
X014510Y-073820
X015510Y-073820
X016510Y-073830
X016510Y-071290
X015510Y-071290
X014510Y-071290
X012100Y-068690
X010600Y-068690
X011040Y-066170
X012540Y-066170
T09
X-005150Y-075330
X-004340Y-075330
X-003390Y-075330
X-000750Y-075330
X000240Y-075330
X000850Y-075330
X000390Y-066830
X001600Y-066830
X-000840Y-066830
X-003400Y-066830
X-004700Y-066830
X-005900Y-066830
X001300Y-040780
X020510Y-042440
X037430Y-054600
X037560Y-058350
X039550Y-060030
X037560Y-062600
X037560Y-066230
X042390Y-076740
X043650Y-076740
X044170Y-078990
X042260Y-078990
X044730Y-082990
X046390Y-082990
X047900Y-082990
X048530Y-078990
X050390Y-078990
X050010Y-076740
X048640Y-076740
X057800Y-054530
X054920Y-047910
X065300Y-038780
X075950Y-042690
X059550Y-022280
X049050Y-016530
X050080Y-007190
X057580Y-009750
X064800Y-005780
X070550Y-005780
X076150Y-009750
X025550Y-016530
X-007110Y010490
X020510Y-078440
T10
X035450Y-021660
X037570Y-021660
X047350Y-027050
X048140Y-027050
X049720Y-027050
X050500Y-027050
X068810Y-027250
X069600Y-027250
X071170Y-027250
X071960Y-027250
T11
X042200Y-036830
X044830Y-027450
X055580Y-027450
X063580Y-032950
X076080Y-034450
X074330Y-025580
T12
X045830Y003560
X045830Y009560
T13
X046400Y-079060
X046400Y-076810
X-006600Y002640
X-004350Y005890
X-009530Y012320
T14
X048850Y-047310
X048850Y-044310
X051850Y-044310
X051850Y-047310
X032080Y-014460
X029080Y-014460
X029080Y-011460
X032080Y-011460
X-007520Y013860
X-009540Y013360
T15
X011680Y-084350
X012430Y-084350
X013060Y-084350
X013680Y-084350
X014430Y-084350
X015180Y-084350
X015930Y-084350
X016680Y-084350
X017430Y-084350
X018180Y-084350
X018180Y-083600
X018180Y-081850
X018180Y-081100
X018180Y-080350
X018180Y-079600
X018180Y-078850
X018180Y-078100
X018180Y-077350
X018180Y-076600
X018180Y-075850
X017430Y-075850
X016680Y-075850
X015930Y-075850
X015180Y-075850
X014430Y-075850
X013680Y-075850
X013060Y-075850
X012430Y-075850
X011680Y-075850
X011680Y-076600
X011680Y-077350
X011680Y-078100
X011680Y-078850
X011680Y-079600
X011680Y-080350
X011680Y-081100
X011680Y-081850
X011680Y-082730
X011680Y-083480
X016560Y-081850
X020650Y-082730
T16
X010540Y-072550
X020610Y-072540
X028520Y-088940
X028550Y-100280
X078870Y-100280
X078870Y-088850
T17
X046510Y-085040
X046390Y-075040
T18
X-011480Y-102250
X002380Y-102110
X020620Y-102070
X038770Y-078190
X055300Y-075000
X057300Y-083910
X076770Y-094250
X080290Y-102280
X077750Y-053720
X077770Y-039690
X077750Y-020780
X077770Y-006750
X079630Y013750
X055730Y-006720
X048480Y-004600
X055730Y-020850
X048110Y-023220
X050610Y-030470
X055730Y-039660
X055730Y-053780
X044680Y-061100
X037110Y-049040
X038770Y-042690
X026860Y-023220
X026360Y-004720
X013040Y-002120
X015520Y008120
X-002940Y013830
X-005280Y013870
X-011870Y013930
X-001960Y-004020
X-010800Y-022280
X-010840Y-024730
X-010730Y-041630
X-010780Y-044080
X-002390Y-040710
X001270Y-042690
X015360Y-044920
X004360Y-063790
X-007120Y-060300
X-007080Y-057840
X-007190Y-070920
X-007140Y-073780
X001270Y-078070
T19
X031510Y-094310
X049510Y-094310
X060950Y-032950
X058200Y-027450
M30
