%FSLAX34Y34*%
%MOMM*%
%LNSOLDERMASK_TOP*%
G71*
G01*
%ADD10C,2.600*%
%ADD11C,2.400*%
%ADD12C,2.800*%
%ADD13C,2.600*%
%ADD14C,5.100*%
%ADD15C,1.600*%
%ADD16C,3.100*%
%ADD17C,7.600*%
%ADD18C,3.200*%
%ADD19C,2.900*%
%ADD20C,2.600*%
%ADD21C,2.600*%
%ADD22C,5.600*%
%ADD23C,2.400*%
%ADD24C,2.600*%
%ADD25C,3.600*%
%ADD26C,2.800*%
%ADD27C,3.000*%
%ADD28C,1.800*%
%ADD29C,1.600*%
%ADD30C,2.700*%
%ADD31C,2.700*%
%ADD32C,2.500*%
%ADD33C,4.600*%
%ADD34C,2.800*%
%ADD35C,5.600*%
%ADD36C,2.700*%
%ADD37C,2.800*%
%ADD38C,2.100*%
%ADD39C,2.800*%
%ADD40C,1.600*%
%ADD41C,6.600*%
%ADD42C,3.600*%
%ADD43C,4.600*%
%ADD44C,5.100*%
%ADD45C,3.200*%
%ADD46C,1.900*%
%ADD47C,2.500*%
%ADD48C,2.250*%
%ADD49C,1.800*%
%ADD50C,1.200*%
%ADD51C,1.400*%
%ADD52C,3.800*%
%ADD53C,2.200*%
%ADD54C,3.200*%
%LPD*%
X1539984Y-301756D02*
G54D10*
D03*
X1540034Y-225506D02*
G54D10*
D03*
X1458990Y-305156D02*
G54D10*
D03*
X1459103Y-356137D02*
G54D10*
D03*
X1573290Y-330556D02*
G54D10*
D03*
X1573402Y-381536D02*
G54D10*
D03*
X1540000Y-530356D02*
G54D10*
D03*
X1540050Y-454106D02*
G54D10*
D03*
X1660721Y-273742D02*
G54D10*
D03*
X1584471Y-273692D02*
G54D10*
D03*
X1585680Y-454106D02*
G54D10*
D03*
X1585630Y-530356D02*
G54D10*
D03*
X1717783Y-301757D02*
G54D10*
D03*
X1717833Y-225507D02*
G54D10*
D03*
X1615115Y-426272D02*
G54D10*
D03*
X1712680Y-428706D02*
G54D10*
D03*
X1712630Y-504956D02*
G54D10*
D03*
X1788880Y-428706D02*
G54D10*
D03*
X1788830Y-504956D02*
G54D10*
D03*
X1839680Y-428706D02*
G54D10*
D03*
X1839630Y-504956D02*
G54D10*
D03*
X1939151Y-362661D02*
G54D10*
D03*
X1888170Y-362774D02*
G54D10*
D03*
X1867696Y-231938D02*
G54D10*
D03*
X1791446Y-231888D02*
G54D10*
D03*
X1652355Y-349331D02*
G54D11*
D03*
X1636455Y-366906D02*
G54D11*
D03*
X1652389Y-384522D02*
G54D11*
D03*
X1753955Y-349331D02*
G54D11*
D03*
X1738055Y-366906D02*
G54D11*
D03*
X1753989Y-384522D02*
G54D11*
D03*
X1830154Y-349331D02*
G54D11*
D03*
X1814254Y-366906D02*
G54D11*
D03*
X1830190Y-384522D02*
G54D11*
D03*
X1433255Y-425431D02*
G54D12*
D03*
X1484055Y-425431D02*
G54D12*
D03*
X1458655Y-450831D02*
G54D12*
D03*
X1484055Y-476231D02*
G54D12*
D03*
X1433255Y-476231D02*
G54D12*
D03*
X1903154Y-425431D02*
G54D12*
D03*
X1953954Y-425431D02*
G54D12*
D03*
X1928554Y-450831D02*
G54D12*
D03*
X1953954Y-476231D02*
G54D12*
D03*
X1903154Y-476231D02*
G54D12*
D03*
X1604681Y-201122D02*
G54D10*
D03*
X1655661Y-201009D02*
G54D10*
D03*
X1540000Y-530356D02*
G54D13*
D03*
X1415578Y-170738D02*
G54D14*
D03*
X1665915Y-426272D02*
G54D10*
D03*
X1668230Y-454106D02*
G54D10*
D03*
X1668180Y-530356D02*
G54D10*
D03*
X1497230Y-168956D02*
G54D10*
D03*
X1408455Y-374731D02*
G54D15*
D03*
X1585630Y-530356D02*
G54D13*
D03*
X1668180Y-530356D02*
G54D13*
D03*
X1712630Y-504956D02*
G54D13*
D03*
X1788830Y-504956D02*
G54D13*
D03*
X1975411Y-171531D02*
G54D14*
D03*
X1415578Y-529512D02*
G54D14*
D03*
X1974776Y-527925D02*
G54D14*
D03*
X1465605Y-247731D02*
G54D15*
D03*
X1462429Y-247730D02*
G54D16*
D03*
X1934154Y-247730D02*
G54D16*
D03*
X1548205Y-836972D02*
G54D17*
D03*
X1478355Y-697272D02*
G54D17*
D03*
X1411680Y-697272D02*
G54D18*
D03*
X1614880Y-836972D02*
G54D18*
D03*
X1202805Y-687172D02*
G54D19*
D03*
X1282805Y-687172D02*
G54D20*
D03*
X1747805Y-692172D02*
G54D20*
D03*
X1827805Y-692172D02*
G54D20*
D03*
X1282805Y-687172D02*
G54D19*
D03*
X1747805Y-692172D02*
G54D19*
D03*
X1827805Y-692172D02*
G54D12*
D03*
X1222805Y-687172D02*
G54D19*
D03*
X1262805Y-687172D02*
G54D19*
D03*
X1767805Y-692172D02*
G54D19*
D03*
X1807805Y-692172D02*
G54D19*
D03*
X1078380Y-803502D02*
G54D12*
D03*
X1078380Y-752702D02*
G54D12*
D03*
X1103780Y-778102D02*
G54D12*
D03*
X1129180Y-752702D02*
G54D12*
D03*
X1129180Y-803502D02*
G54D12*
D03*
X1078380Y-804772D02*
G54D21*
D03*
X1129180Y-804772D02*
G54D13*
D03*
X1903880Y-804772D02*
G54D12*
D03*
X1903880Y-753972D02*
G54D12*
D03*
X1929280Y-779372D02*
G54D12*
D03*
X1954680Y-753972D02*
G54D12*
D03*
X1954680Y-804772D02*
G54D12*
D03*
X1903880Y-804772D02*
G54D21*
D03*
X1954680Y-804772D02*
G54D13*
D03*
X1777338Y-893409D02*
G54D10*
D03*
X1777338Y-823559D02*
G54D10*
D03*
X1847188Y-893409D02*
G54D10*
D03*
X1847188Y-823559D02*
G54D10*
D03*
X1815438Y-823559D02*
G54D10*
D03*
X1815438Y-893409D02*
G54D10*
D03*
X1847188Y-893409D02*
G54D13*
D03*
X1847188Y-823559D02*
G54D13*
D03*
X1186787Y-893409D02*
G54D10*
D03*
X1186787Y-823559D02*
G54D10*
D03*
X1256637Y-893409D02*
G54D10*
D03*
X1256638Y-823558D02*
G54D10*
D03*
X1224887Y-823558D02*
G54D10*
D03*
X1224887Y-893408D02*
G54D10*
D03*
X1256638Y-893409D02*
G54D13*
D03*
X1256638Y-823558D02*
G54D13*
D03*
X1827805Y-692172D02*
G54D19*
D03*
X1301088Y-823559D02*
G54D21*
D03*
X1726538Y-823559D02*
G54D21*
D03*
X1942080Y-690447D02*
G54D21*
D03*
X1097530Y-868246D02*
G54D21*
D03*
X1078380Y-753972D02*
G54D13*
D03*
X1129180Y-753971D02*
G54D13*
D03*
X1903880Y-753972D02*
G54D13*
D03*
X1954680Y-753972D02*
G54D13*
D03*
X1954680Y-804772D02*
G54D13*
D03*
X1415578Y-1007350D02*
G54D14*
D03*
X1975411Y-1008143D02*
G54D22*
D03*
X1415579Y-1366125D02*
G54D22*
D03*
X1974776Y-1364538D02*
G54D14*
D03*
X1929154Y-1084343D02*
G54D16*
D03*
X738555Y-367271D02*
G54D23*
D03*
X814754Y-367271D02*
G54D23*
D03*
X814755Y-291071D02*
G54D23*
D03*
X738555Y-291071D02*
G54D23*
D03*
X814667Y-156048D02*
G54D10*
D03*
X814667Y-244948D02*
G54D10*
D03*
X776567Y-244948D02*
G54D10*
D03*
X744817Y-244948D02*
G54D10*
D03*
X805024Y-507838D02*
G54D10*
D03*
X741524Y-412588D02*
G54D10*
D03*
X773274Y-412588D02*
G54D10*
D03*
X805024Y-412588D02*
G54D10*
D03*
X833506Y-400300D02*
G54D10*
D03*
X741524Y-158588D02*
G54D10*
D03*
X859117Y-143348D02*
G54D10*
D03*
X1021545Y-291038D02*
G54D10*
D03*
X1078695Y-291038D02*
G54D10*
D03*
X1107395Y-214838D02*
G54D10*
D03*
X1107395Y-157688D02*
G54D10*
D03*
X1046345Y-356661D02*
G54D10*
D03*
X992393Y-410542D02*
G54D10*
D03*
X1046345Y-356661D02*
G54D13*
D03*
X1174120Y-352610D02*
G54D10*
D03*
X1097871Y-352560D02*
G54D10*
D03*
X1174120Y-352609D02*
G54D13*
D03*
X1053295Y-430738D02*
G54D10*
D03*
X1104095Y-430738D02*
G54D10*
D03*
X1104095Y-430738D02*
G54D10*
D03*
X1132702Y-526844D02*
G54D10*
D03*
X1132590Y-475863D02*
G54D10*
D03*
X1132702Y-526844D02*
G54D10*
D03*
X1107395Y-252938D02*
G54D10*
D03*
X1139145Y-430738D02*
G54D10*
D03*
X988525Y-291038D02*
G54D10*
D03*
X999445Y-227538D02*
G54D10*
D03*
X875749Y-229032D02*
G54D12*
D03*
X951949Y-229032D02*
G54D12*
D03*
X875749Y-305232D02*
G54D12*
D03*
X875749Y-356032D02*
G54D12*
D03*
X875749Y-406832D02*
G54D12*
D03*
X951949Y-305232D02*
G54D12*
D03*
X951949Y-356032D02*
G54D12*
D03*
X951949Y-406832D02*
G54D12*
D03*
X951949Y-229032D02*
G54D10*
D03*
X1098200Y-511836D02*
G54D10*
D03*
X1041980Y-509591D02*
G54D10*
D03*
X1041980Y-509591D02*
G54D10*
D03*
X991180Y-509591D02*
G54D10*
D03*
G54D24*
X961364Y-557313D02*
X947222Y-543171D01*
G54D24*
X907389Y-557313D02*
X893247Y-543171D01*
X649055Y-285037D02*
G54D21*
D03*
X649055Y-313612D02*
G54D21*
D03*
X960205Y-158037D02*
G54D21*
D03*
X738554Y-291072D02*
G54D25*
D03*
X738555Y-367271D02*
G54D25*
D03*
X814754Y-367271D02*
G54D25*
D03*
X814755Y-291071D02*
G54D25*
D03*
X1317033Y-1125473D02*
G54D23*
D03*
X1240834Y-1125473D02*
G54D23*
D03*
X1240833Y-1201673D02*
G54D23*
D03*
X1317034Y-1201673D02*
G54D23*
D03*
X1240921Y-1336696D02*
G54D10*
D03*
X1240921Y-1247796D02*
G54D10*
D03*
X1279021Y-1247796D02*
G54D10*
D03*
X1310771Y-1247796D02*
G54D10*
D03*
X1314065Y-1016656D02*
G54D10*
D03*
X1250565Y-1016656D02*
G54D10*
D03*
X1314064Y-1080156D02*
G54D10*
D03*
X1282315Y-1080156D02*
G54D10*
D03*
X1250565Y-1080156D02*
G54D10*
D03*
X1222082Y-1092445D02*
G54D10*
D03*
X1314064Y-1334156D02*
G54D10*
D03*
X1362083Y-1293432D02*
G54D21*
D03*
X1362084Y-1268032D02*
G54D21*
D03*
X1362084Y-1026732D02*
G54D21*
D03*
X1317034Y-1201673D02*
G54D25*
D03*
X1317033Y-1125473D02*
G54D25*
D03*
X1240834Y-1125473D02*
G54D25*
D03*
X1240833Y-1201673D02*
G54D25*
D03*
X1037825Y-1255054D02*
G54D12*
D03*
X1040999Y-1134404D02*
G54D12*
D03*
X1158475Y-1255054D02*
G54D12*
D03*
X1158475Y-1134404D02*
G54D12*
D03*
X1098150Y-1114941D02*
G54D12*
D03*
X1040999Y-1134404D02*
G54D26*
D03*
X1066846Y-1070822D02*
G54D12*
D03*
X1168446Y-1070823D02*
G54D12*
D03*
X1255746Y-1394962D02*
G54D12*
D03*
X1255746Y-1420362D02*
G54D12*
D03*
X1293846Y-1420362D02*
G54D12*
D03*
X1293846Y-1458462D02*
G54D12*
D03*
X1208341Y-1402969D02*
G54D10*
D03*
X1208454Y-1453949D02*
G54D10*
D03*
X1208341Y-1402970D02*
G54D10*
D03*
X1170241Y-1402969D02*
G54D10*
D03*
X1170353Y-1453949D02*
G54D10*
D03*
X1170241Y-1402970D02*
G54D10*
D03*
X1293846Y-1394962D02*
G54D12*
D03*
X1104813Y-1035013D02*
G54D10*
D03*
X1066846Y-1070822D02*
G54D12*
D03*
X874804Y-736524D02*
G54D27*
D03*
X874804Y-787324D02*
G54D27*
D03*
X830354Y-761924D02*
G54D27*
D03*
X830354Y-806374D02*
G54D27*
D03*
X830354Y-717474D02*
G54D27*
D03*
X843054Y-660324D02*
G54D10*
D03*
X817654Y-660324D02*
G54D10*
D03*
X868454Y-660324D02*
G54D10*
D03*
X781969Y-834949D02*
G54D10*
D03*
X705719Y-834899D02*
G54D10*
D03*
X703027Y-869209D02*
G54D10*
D03*
X779277Y-869259D02*
G54D10*
D03*
X718961Y-900685D02*
G54D10*
D03*
X769941Y-900573D02*
G54D10*
D03*
X747804Y-666586D02*
G54D10*
D03*
X747804Y-714386D02*
G54D10*
D03*
X751414Y-968210D02*
G54D10*
D03*
X751364Y-1044460D02*
G54D10*
D03*
X811304Y-1019274D02*
G54D10*
D03*
X811304Y-971474D02*
G54D10*
D03*
X723860Y-779430D02*
G54D10*
D03*
X758960Y-779430D02*
G54D10*
D03*
X849404Y-904974D02*
G54D10*
D03*
X849404Y-857174D02*
G54D10*
D03*
X703082Y-936856D02*
G54D10*
D03*
X779332Y-936906D02*
G54D10*
D03*
X950279Y-813279D02*
G54D10*
D03*
X811304Y-1019274D02*
G54D10*
D03*
G36*
X725754Y-722254D02*
X725754Y-748254D01*
X699754Y-748254D01*
X699754Y-722254D01*
X725754Y-722254D01*
G37*
X925604Y-974736D02*
G54D28*
D03*
X925604Y-1000136D02*
G54D29*
D03*
X874804Y-974736D02*
G54D29*
D03*
X874804Y-1000136D02*
G54D28*
D03*
X925604Y-1076336D02*
G54D29*
D03*
X874804Y-1076336D02*
G54D29*
D03*
X927636Y-943970D02*
G54D12*
D03*
X911941Y-1106475D02*
G54D21*
D03*
X874804Y-974736D02*
G54D28*
D03*
X925604Y-1076336D02*
G54D28*
D03*
X874804Y-1076336D02*
G54D28*
D03*
X139813Y-923423D02*
G54D10*
D03*
X69963Y-923423D02*
G54D10*
D03*
X139813Y-853573D02*
G54D10*
D03*
X69963Y-853573D02*
G54D10*
D03*
X69963Y-885323D02*
G54D10*
D03*
X139813Y-885323D02*
G54D10*
D03*
X183222Y-932194D02*
G54D30*
D03*
X234202Y-932082D02*
G54D30*
D03*
X362063Y-923423D02*
G54D10*
D03*
X292213Y-923423D02*
G54D10*
D03*
X362063Y-853573D02*
G54D10*
D03*
X292213Y-853573D02*
G54D10*
D03*
X292213Y-885323D02*
G54D10*
D03*
X362063Y-885323D02*
G54D10*
D03*
X244286Y-888096D02*
G54D10*
D03*
X244173Y-837116D02*
G54D10*
D03*
X180786Y-888096D02*
G54D10*
D03*
X180673Y-837116D02*
G54D10*
D03*
X362062Y-853573D02*
G54D13*
D03*
X292213Y-853573D02*
G54D13*
D03*
X244174Y-837115D02*
G54D31*
D03*
X180673Y-837115D02*
G54D13*
D03*
X139813Y-853573D02*
G54D13*
D03*
X69963Y-853573D02*
G54D13*
D03*
X180786Y-888096D02*
G54D30*
D03*
X180673Y-837116D02*
G54D30*
D03*
X244173Y-837116D02*
G54D30*
D03*
X244286Y-888096D02*
G54D30*
D03*
X416276Y-819131D02*
G54D12*
D03*
X536926Y-822305D02*
G54D12*
D03*
X416276Y-939781D02*
G54D12*
D03*
X536926Y-939781D02*
G54D12*
D03*
X555738Y-879456D02*
G54D12*
D03*
X429783Y-986060D02*
G54D32*
D03*
X531383Y-986060D02*
G54D32*
D03*
X536926Y-822305D02*
G54D12*
D03*
X1282Y-951870D02*
G54D12*
D03*
X-119368Y-948696D02*
G54D12*
D03*
X1282Y-831219D02*
G54D12*
D03*
X-119368Y-831219D02*
G54D12*
D03*
X-138181Y-891544D02*
G54D12*
D03*
X-119368Y-948696D02*
G54D12*
D03*
X-119368Y-831219D02*
G54D12*
D03*
X-116317Y-986060D02*
G54D32*
D03*
X-14717Y-986060D02*
G54D32*
D03*
X429783Y-986060D02*
G54D10*
D03*
X-116317Y-986060D02*
G54D10*
D03*
X139813Y-707523D02*
G54D10*
D03*
X69963Y-707523D02*
G54D10*
D03*
X139813Y-637673D02*
G54D10*
D03*
X69963Y-637673D02*
G54D10*
D03*
X69963Y-669423D02*
G54D10*
D03*
X139813Y-669423D02*
G54D10*
D03*
X183222Y-716294D02*
G54D30*
D03*
X234202Y-716182D02*
G54D30*
D03*
X362063Y-707523D02*
G54D10*
D03*
X292213Y-707523D02*
G54D10*
D03*
X362063Y-637673D02*
G54D10*
D03*
X292213Y-637673D02*
G54D10*
D03*
X292213Y-669423D02*
G54D10*
D03*
X362063Y-669423D02*
G54D10*
D03*
X244286Y-672196D02*
G54D10*
D03*
X244173Y-621216D02*
G54D10*
D03*
X180786Y-672196D02*
G54D10*
D03*
X180673Y-621216D02*
G54D10*
D03*
X362062Y-637673D02*
G54D13*
D03*
X292213Y-637673D02*
G54D13*
D03*
X244174Y-621215D02*
G54D31*
D03*
X180673Y-621215D02*
G54D13*
D03*
X139813Y-637673D02*
G54D13*
D03*
X69963Y-637673D02*
G54D13*
D03*
X180786Y-672196D02*
G54D30*
D03*
X180673Y-621216D02*
G54D30*
D03*
X244173Y-621216D02*
G54D30*
D03*
X244286Y-672196D02*
G54D30*
D03*
X416276Y-603231D02*
G54D12*
D03*
X536926Y-606405D02*
G54D12*
D03*
X416276Y-723881D02*
G54D12*
D03*
X536926Y-723881D02*
G54D12*
D03*
X555738Y-663556D02*
G54D12*
D03*
X429783Y-770160D02*
G54D32*
D03*
X531383Y-770160D02*
G54D32*
D03*
X536926Y-606405D02*
G54D12*
D03*
X1282Y-735970D02*
G54D12*
D03*
X-119368Y-732796D02*
G54D12*
D03*
X1282Y-615320D02*
G54D12*
D03*
X-119368Y-615320D02*
G54D12*
D03*
X-138181Y-675644D02*
G54D12*
D03*
X-119368Y-732796D02*
G54D12*
D03*
X-119368Y-615320D02*
G54D12*
D03*
X-116317Y-770160D02*
G54D32*
D03*
X-14717Y-770160D02*
G54D32*
D03*
X429783Y-770160D02*
G54D10*
D03*
X-116317Y-770160D02*
G54D10*
D03*
X139813Y-491623D02*
G54D10*
D03*
X69963Y-491623D02*
G54D10*
D03*
X139813Y-421773D02*
G54D10*
D03*
X69963Y-421773D02*
G54D10*
D03*
X69963Y-453523D02*
G54D10*
D03*
X139813Y-453523D02*
G54D10*
D03*
X183222Y-500394D02*
G54D30*
D03*
X234202Y-500282D02*
G54D30*
D03*
X362063Y-491623D02*
G54D10*
D03*
X292213Y-491623D02*
G54D10*
D03*
X362063Y-421773D02*
G54D10*
D03*
X292213Y-421773D02*
G54D10*
D03*
X292213Y-453523D02*
G54D10*
D03*
X362063Y-453523D02*
G54D10*
D03*
X244286Y-456296D02*
G54D10*
D03*
X244173Y-405316D02*
G54D10*
D03*
X180786Y-456296D02*
G54D10*
D03*
X180673Y-405316D02*
G54D10*
D03*
X362062Y-421773D02*
G54D13*
D03*
X292213Y-421773D02*
G54D13*
D03*
X244174Y-405315D02*
G54D31*
D03*
X180673Y-405315D02*
G54D13*
D03*
X139813Y-421773D02*
G54D13*
D03*
X69963Y-421773D02*
G54D13*
D03*
X180786Y-456296D02*
G54D30*
D03*
X180673Y-405315D02*
G54D30*
D03*
X244173Y-405316D02*
G54D30*
D03*
X244286Y-456296D02*
G54D30*
D03*
X416276Y-387331D02*
G54D12*
D03*
X536926Y-390505D02*
G54D12*
D03*
X416276Y-507981D02*
G54D12*
D03*
X536926Y-507981D02*
G54D12*
D03*
X555738Y-447656D02*
G54D12*
D03*
X429783Y-554261D02*
G54D32*
D03*
X531383Y-554260D02*
G54D32*
D03*
X536926Y-390505D02*
G54D12*
D03*
X1282Y-520070D02*
G54D12*
D03*
X-119368Y-516896D02*
G54D12*
D03*
X1282Y-399420D02*
G54D12*
D03*
X-119368Y-399420D02*
G54D12*
D03*
X-138181Y-459744D02*
G54D12*
D03*
X-119368Y-516896D02*
G54D12*
D03*
X-119368Y-399420D02*
G54D12*
D03*
X-116317Y-554261D02*
G54D32*
D03*
X-14717Y-554260D02*
G54D32*
D03*
X429783Y-554260D02*
G54D10*
D03*
X-116317Y-554261D02*
G54D10*
D03*
X139813Y-275723D02*
G54D10*
D03*
X69963Y-275723D02*
G54D10*
D03*
X139813Y-205873D02*
G54D10*
D03*
X69963Y-205873D02*
G54D10*
D03*
X69963Y-237623D02*
G54D10*
D03*
X139813Y-237623D02*
G54D10*
D03*
X183222Y-284494D02*
G54D30*
D03*
X234202Y-284382D02*
G54D30*
D03*
X362063Y-275723D02*
G54D10*
D03*
X292213Y-275723D02*
G54D10*
D03*
X362063Y-205873D02*
G54D10*
D03*
X292213Y-205873D02*
G54D10*
D03*
X292213Y-237623D02*
G54D10*
D03*
X362063Y-237623D02*
G54D10*
D03*
X244286Y-240396D02*
G54D10*
D03*
X244173Y-189416D02*
G54D10*
D03*
X180786Y-240396D02*
G54D10*
D03*
X180673Y-189416D02*
G54D10*
D03*
X362062Y-205873D02*
G54D13*
D03*
X292213Y-205873D02*
G54D13*
D03*
X244174Y-189415D02*
G54D31*
D03*
X180673Y-189415D02*
G54D13*
D03*
X139813Y-205873D02*
G54D13*
D03*
X69963Y-205873D02*
G54D13*
D03*
X180786Y-240396D02*
G54D30*
D03*
X180673Y-189416D02*
G54D30*
D03*
X244173Y-189416D02*
G54D30*
D03*
X244286Y-240396D02*
G54D30*
D03*
X416276Y-171431D02*
G54D12*
D03*
X536926Y-174605D02*
G54D12*
D03*
X416276Y-292081D02*
G54D12*
D03*
X536926Y-292081D02*
G54D12*
D03*
X555738Y-231756D02*
G54D12*
D03*
X429783Y-338360D02*
G54D32*
D03*
X531383Y-338360D02*
G54D32*
D03*
X536926Y-174605D02*
G54D12*
D03*
X1282Y-304170D02*
G54D12*
D03*
X-119368Y-300996D02*
G54D12*
D03*
X1282Y-183520D02*
G54D12*
D03*
X-119368Y-183520D02*
G54D12*
D03*
X-138181Y-243844D02*
G54D12*
D03*
X-119368Y-300996D02*
G54D12*
D03*
X-119368Y-183520D02*
G54D12*
D03*
X-116317Y-338361D02*
G54D32*
D03*
X-14717Y-338360D02*
G54D32*
D03*
X429783Y-338360D02*
G54D10*
D03*
X-116317Y-338360D02*
G54D10*
D03*
X364937Y-1015096D02*
G54D30*
D03*
X364937Y-1015096D02*
G54D30*
D03*
X269687Y-1015096D02*
G54D30*
D03*
X269687Y-1015096D02*
G54D30*
D03*
X161737Y-1015096D02*
G54D30*
D03*
X161737Y-1015096D02*
G54D30*
D03*
X72837Y-1015096D02*
G54D30*
D03*
X72837Y-1015096D02*
G54D30*
D03*
X364937Y-113396D02*
G54D30*
D03*
X364937Y-113396D02*
G54D30*
D03*
X269687Y-113396D02*
G54D30*
D03*
X269687Y-113396D02*
G54D30*
D03*
X161737Y-113396D02*
G54D30*
D03*
X161737Y-113396D02*
G54D30*
D03*
X72837Y-113396D02*
G54D30*
D03*
X72837Y-113396D02*
G54D30*
D03*
X-183799Y-559926D02*
G54D21*
D03*
X609951Y-559926D02*
G54D21*
D03*
X1221904Y-589838D02*
G54D22*
D03*
X1231428Y-116763D02*
G54D33*
D03*
X682153Y-589838D02*
G54D22*
D03*
X669453Y-119937D02*
G54D22*
D03*
X61100Y-1392612D02*
G54D12*
D03*
X57926Y-1513262D02*
G54D12*
D03*
X-59550Y-1392612D02*
G54D12*
D03*
X-59550Y-1513262D02*
G54D12*
D03*
X776Y-1532074D02*
G54D12*
D03*
X-67099Y-1290743D02*
G54D12*
D03*
X-63925Y-1170093D02*
G54D12*
D03*
X53550Y-1290743D02*
G54D12*
D03*
X53550Y-1170093D02*
G54D12*
D03*
X-6774Y-1150806D02*
G54D12*
D03*
X-112179Y-1355319D02*
G54D32*
D03*
X-112179Y-1456919D02*
G54D32*
D03*
X-112179Y-1355319D02*
G54D10*
D03*
X-115977Y-1132124D02*
G54D32*
D03*
X-115976Y-1233724D02*
G54D32*
D03*
X-115977Y-1132124D02*
G54D10*
D03*
X-115977Y-1132124D02*
G54D12*
D03*
X57926Y-1513262D02*
G54D12*
D03*
X53550Y-1170093D02*
G54D12*
D03*
X-63926Y-1170093D02*
G54D12*
D03*
X53550Y-1170093D02*
G54D12*
D03*
X32311Y-1084343D02*
G54D14*
D03*
X984811Y-1084343D02*
G54D14*
D03*
X32311Y-1982868D02*
G54D14*
D03*
X984811Y-1986043D02*
G54D22*
D03*
X1068866Y-1344662D02*
G54D10*
D03*
X1116666Y-1344663D02*
G54D10*
D03*
X1068866Y-1344662D02*
G54D10*
D03*
X1977462Y-1560253D02*
G54D21*
D03*
X1977463Y-1585653D02*
G54D21*
D03*
X1960000Y-1774566D02*
G54D21*
D03*
X1960000Y-1803141D02*
G54D21*
D03*
X1946278Y-1701503D02*
G54D21*
D03*
X1971678Y-1701502D02*
G54D21*
D03*
X950844Y-1386844D02*
G54D34*
D03*
X954019Y-1482094D02*
G54D34*
D03*
X954019Y-1590044D02*
G54D34*
D03*
X954019Y-1682119D02*
G54D34*
D03*
X523450Y-1842582D02*
G54D35*
D03*
X267749Y-1842682D02*
G54D35*
D03*
X368474Y-1810757D02*
G54D36*
D03*
X393850Y-1810882D02*
G54D36*
D03*
X419293Y-1810857D02*
G54D36*
D03*
X616555Y-1744498D02*
G54D10*
D03*
X616380Y-1693506D02*
G54D10*
D03*
X318624Y-1680632D02*
G54D37*
D03*
X269224Y-1744732D02*
G54D37*
D03*
X307224Y-1744732D02*
G54D37*
D03*
X280524Y-1680632D02*
G54D37*
D03*
X169350Y-1731482D02*
G54D10*
D03*
X169225Y-1680566D02*
G54D10*
D03*
X432875Y-1702907D02*
G54D10*
D03*
X509124Y-1702957D02*
G54D10*
D03*
X166775Y-1799607D02*
G54D10*
D03*
X166774Y-1774107D02*
G54D10*
D03*
X432874Y-1750532D02*
G54D10*
D03*
X509124Y-1750582D02*
G54D10*
D03*
X407474Y-1331432D02*
G54D10*
D03*
X356558Y-1331557D02*
G54D10*
D03*
X372550Y-1375882D02*
G54D11*
D03*
X390124Y-1391782D02*
G54D11*
D03*
X407740Y-1375847D02*
G54D11*
D03*
X378900Y-1229832D02*
G54D10*
D03*
X404324Y-1229782D02*
G54D10*
D03*
X432874Y-1375882D02*
G54D10*
D03*
X509050Y-1375882D02*
G54D10*
D03*
X255074Y-1315557D02*
G54D10*
D03*
X331324Y-1315607D02*
G54D10*
D03*
X413824Y-1426682D02*
G54D10*
D03*
X362908Y-1426807D02*
G54D10*
D03*
X407474Y-1490182D02*
G54D11*
D03*
X389874Y-1474282D02*
G54D11*
D03*
X372284Y-1490216D02*
G54D11*
D03*
X407850Y-1550582D02*
G54D11*
D03*
X389874Y-1534607D02*
G54D11*
D03*
X372284Y-1550542D02*
G54D11*
D03*
X432874Y-1490182D02*
G54D10*
D03*
X509050Y-1490182D02*
G54D10*
D03*
X407474Y-1610882D02*
G54D11*
D03*
X389874Y-1594932D02*
G54D11*
D03*
X372284Y-1610867D02*
G54D11*
D03*
X255074Y-1547332D02*
G54D10*
D03*
X331324Y-1547382D02*
G54D10*
D03*
X255283Y-1591511D02*
G54D10*
D03*
X331533Y-1591561D02*
G54D10*
D03*
X432874Y-1610832D02*
G54D10*
D03*
X509149Y-1610882D02*
G54D10*
D03*
X494196Y-1655622D02*
G54D10*
D03*
X443279Y-1655747D02*
G54D10*
D03*
X432874Y-1534632D02*
G54D10*
D03*
X509124Y-1534682D02*
G54D10*
D03*
X590150Y-1629482D02*
G54D21*
D03*
X565166Y-1680414D02*
G54D21*
D03*
X540267Y-1629368D02*
G54D21*
D03*
X597974Y-1442557D02*
G54D11*
D03*
X580174Y-1426757D02*
G54D11*
D03*
X562784Y-1442592D02*
G54D11*
D03*
X242374Y-1229832D02*
G54D10*
D03*
X267949Y-1229882D02*
G54D10*
D03*
X540824Y-1340957D02*
G54D10*
D03*
X617074Y-1341007D02*
G54D10*
D03*
X540824Y-1382232D02*
G54D10*
D03*
X617074Y-1382282D02*
G54D10*
D03*
X521774Y-1433032D02*
G54D10*
D03*
X470858Y-1433157D02*
G54D10*
D03*
X540824Y-1477482D02*
G54D10*
D03*
X617074Y-1477532D02*
G54D10*
D03*
X616974Y-1604507D02*
G54D10*
D03*
X616862Y-1553526D02*
G54D10*
D03*
X617024Y-1521932D02*
G54D10*
D03*
X540750Y-1521882D02*
G54D10*
D03*
X191624Y-1363157D02*
G54D10*
D03*
X216487Y-1363470D02*
G54D10*
D03*
X220149Y-1547332D02*
G54D10*
D03*
X169174Y-1547482D02*
G54D10*
D03*
X255074Y-1502882D02*
G54D10*
D03*
X331324Y-1502932D02*
G54D10*
D03*
X318574Y-1623532D02*
G54D10*
D03*
X267600Y-1623682D02*
G54D10*
D03*
X195174Y-1626682D02*
G54D10*
D03*
X169874Y-1626382D02*
G54D10*
D03*
X220149Y-1417157D02*
G54D10*
D03*
X169174Y-1417257D02*
G54D10*
D03*
X540824Y-1229832D02*
G54D10*
D03*
X515350Y-1229832D02*
G54D10*
D03*
X255074Y-1448907D02*
G54D10*
D03*
X331324Y-1448957D02*
G54D10*
D03*
X318550Y-1413957D02*
G54D10*
D03*
X267650Y-1414157D02*
G54D10*
D03*
X283650Y-1363182D02*
G54D10*
D03*
X308550Y-1363482D02*
G54D10*
D03*
X432874Y-1331432D02*
G54D10*
D03*
X509050Y-1331432D02*
G54D10*
D03*
X432874Y-1280632D02*
G54D10*
D03*
X509050Y-1280582D02*
G54D10*
D03*
X255050Y-1280582D02*
G54D10*
D03*
X331250Y-1280582D02*
G54D10*
D03*
X407474Y-1280632D02*
G54D10*
D03*
X356558Y-1280757D02*
G54D10*
D03*
X466100Y-1229832D02*
G54D38*
D03*
X506174Y-1569246D02*
G54D10*
D03*
X557155Y-1569134D02*
G54D10*
D03*
X566274Y-1734707D02*
G54D10*
D03*
X419350Y-1875182D02*
G54D36*
D03*
X394050Y-1874982D02*
G54D36*
D03*
X368562Y-1875050D02*
G54D36*
D03*
X756600Y-1886493D02*
G54D29*
D03*
X731200Y-1886493D02*
G54D29*
D03*
X756600Y-1835693D02*
G54D29*
D03*
X731199Y-1835693D02*
G54D29*
D03*
X655000Y-1886493D02*
G54D28*
D03*
X654999Y-1835693D02*
G54D29*
D03*
X799208Y-1895376D02*
G54D12*
D03*
X799208Y-1793776D02*
G54D12*
D03*
X837401Y-1969486D02*
G54D12*
D03*
X756600Y-1713058D02*
G54D29*
D03*
X731200Y-1713058D02*
G54D29*
D03*
X756600Y-1662258D02*
G54D29*
D03*
X731200Y-1662258D02*
G54D29*
D03*
X654999Y-1713058D02*
G54D29*
D03*
X654999Y-1662258D02*
G54D29*
D03*
X723499Y-1755688D02*
G54D21*
D03*
X698516Y-1806620D02*
G54D21*
D03*
X673617Y-1755574D02*
G54D21*
D03*
X758981Y-1363808D02*
G54D29*
D03*
X733581Y-1363808D02*
G54D29*
D03*
X758981Y-1313008D02*
G54D29*
D03*
X733581Y-1313008D02*
G54D29*
D03*
X657381Y-1363808D02*
G54D29*
D03*
X657381Y-1313008D02*
G54D29*
D03*
X758981Y-1188390D02*
G54D29*
D03*
X733581Y-1188390D02*
G54D29*
D03*
X758981Y-1137590D02*
G54D29*
D03*
X733581Y-1137590D02*
G54D29*
D03*
X657381Y-1188390D02*
G54D29*
D03*
X657381Y-1137590D02*
G54D29*
D03*
X725881Y-1227051D02*
G54D21*
D03*
X700897Y-1277983D02*
G54D21*
D03*
X675998Y-1226936D02*
G54D21*
D03*
X721912Y-1493354D02*
G54D21*
D03*
X696928Y-1544286D02*
G54D21*
D03*
X672029Y-1493240D02*
G54D21*
D03*
X757393Y-1450327D02*
G54D29*
D03*
X731993Y-1450327D02*
G54D29*
D03*
X757393Y-1399527D02*
G54D29*
D03*
X731993Y-1399527D02*
G54D29*
D03*
X655793Y-1450327D02*
G54D29*
D03*
X655793Y-1399527D02*
G54D29*
D03*
X755806Y-1622571D02*
G54D29*
D03*
X730406Y-1622571D02*
G54D29*
D03*
X755806Y-1571771D02*
G54D29*
D03*
X730406Y-1571771D02*
G54D29*
D03*
X654206Y-1622571D02*
G54D29*
D03*
X654206Y-1571771D02*
G54D29*
D03*
X799208Y-1760042D02*
G54D12*
D03*
X799208Y-1658442D02*
G54D12*
D03*
X799605Y-1623914D02*
G54D12*
D03*
X799605Y-1522314D02*
G54D12*
D03*
X799605Y-1489373D02*
G54D12*
D03*
X799605Y-1387774D02*
G54D12*
D03*
X798414Y-1354832D02*
G54D12*
D03*
X798414Y-1253233D02*
G54D12*
D03*
X796827Y-1221482D02*
G54D12*
D03*
X796827Y-1119883D02*
G54D12*
D03*
X847100Y-1356038D02*
G54D21*
D03*
X609769Y-1883882D02*
G54D21*
D03*
X654999Y-1835693D02*
G54D28*
D03*
X731200Y-1886493D02*
G54D28*
D03*
X756600Y-1886493D02*
G54D28*
D03*
X731200Y-1835693D02*
G54D28*
D03*
X756600Y-1835693D02*
G54D28*
D03*
X654999Y-1713058D02*
G54D28*
D03*
X654999Y-1662258D02*
G54D28*
D03*
X731200Y-1713058D02*
G54D28*
D03*
X756600Y-1713058D02*
G54D28*
D03*
X756600Y-1662258D02*
G54D28*
D03*
X731200Y-1662259D02*
G54D28*
D03*
X730406Y-1622571D02*
G54D28*
D03*
X755806Y-1622571D02*
G54D28*
D03*
X755806Y-1571771D02*
G54D28*
D03*
X730406Y-1571771D02*
G54D28*
D03*
X654206Y-1622571D02*
G54D28*
D03*
X654206Y-1571771D02*
G54D28*
D03*
X655793Y-1450327D02*
G54D28*
D03*
X731993Y-1450327D02*
G54D28*
D03*
X655793Y-1399527D02*
G54D28*
D03*
X731993Y-1399527D02*
G54D28*
D03*
X757393Y-1399527D02*
G54D28*
D03*
X757393Y-1450327D02*
G54D28*
D03*
X657381Y-1363808D02*
G54D28*
D03*
X657381Y-1313008D02*
G54D28*
D03*
X733581Y-1363808D02*
G54D28*
D03*
X758981Y-1363808D02*
G54D28*
D03*
X758981Y-1313008D02*
G54D28*
D03*
X733581Y-1313008D02*
G54D28*
D03*
X657381Y-1188390D02*
G54D28*
D03*
X657381Y-1137590D02*
G54D28*
D03*
X733581Y-1188390D02*
G54D28*
D03*
X758981Y-1188390D02*
G54D28*
D03*
X758981Y-1137590D02*
G54D28*
D03*
X733581Y-1137590D02*
G54D28*
D03*
X721912Y-1493354D02*
G54D21*
D03*
X725880Y-1227051D02*
G54D21*
D03*
X754615Y-2080166D02*
G54D29*
D03*
X729215Y-2080166D02*
G54D29*
D03*
X754615Y-2029366D02*
G54D29*
D03*
X729215Y-2029366D02*
G54D29*
D03*
X653015Y-2080166D02*
G54D28*
D03*
X653015Y-2029366D02*
G54D29*
D03*
X653015Y-2029366D02*
G54D28*
D03*
X729215Y-2080166D02*
G54D28*
D03*
X754615Y-2080166D02*
G54D28*
D03*
X729215Y-2029366D02*
G54D28*
D03*
X754615Y-2029366D02*
G54D28*
D03*
X615946Y-1984288D02*
G54D21*
D03*
X590963Y-2035220D02*
G54D21*
D03*
X566064Y-1984174D02*
G54D21*
D03*
X791363Y-1970676D02*
G54D12*
D03*
X791362Y-2072276D02*
G54D12*
D03*
X837401Y-1969486D02*
G54D12*
D03*
X837401Y-2071086D02*
G54D12*
D03*
X755408Y-1977772D02*
G54D29*
D03*
X730008Y-1977772D02*
G54D29*
D03*
X755408Y-1926972D02*
G54D29*
D03*
X730008Y-1926972D02*
G54D29*
D03*
X653808Y-1977772D02*
G54D28*
D03*
X653808Y-1926972D02*
G54D29*
D03*
X653808Y-1926972D02*
G54D28*
D03*
X730008Y-1977772D02*
G54D28*
D03*
X755408Y-1977772D02*
G54D28*
D03*
X730008Y-1926972D02*
G54D28*
D03*
X755408Y-1926972D02*
G54D28*
D03*
X520909Y-1077850D02*
G54D34*
D03*
X520909Y-1992250D02*
G54D34*
D03*
X461894Y-2040894D02*
G54D39*
D03*
X461894Y-2021844D02*
G54D39*
D03*
X461894Y-2002794D02*
G54D39*
D03*
X461894Y-1983744D02*
G54D39*
D03*
X461894Y-1964694D02*
G54D39*
D03*
X461894Y-1945644D02*
G54D39*
D03*
X461894Y-1926594D02*
G54D39*
D03*
X461894Y-2059944D02*
G54D39*
D03*
X461894Y-2078994D02*
G54D39*
D03*
X420619Y-2078994D02*
G54D39*
D03*
X127209Y-1211200D02*
G54D12*
D03*
X856825Y-1125643D02*
G54D12*
D03*
X747874Y-507838D02*
G54D10*
D03*
X1377852Y-1489892D02*
G54D10*
D03*
X1971112Y-1420553D02*
G54D21*
D03*
X1971113Y-1445953D02*
G54D21*
D03*
X1971112Y-1471353D02*
G54D21*
D03*
X1299957Y-112422D02*
G54D12*
D03*
X1895322Y-112591D02*
G54D12*
D03*
X1895322Y-949204D02*
G54D12*
D03*
X1484107Y-112422D02*
G54D12*
D03*
X1382507Y-109247D02*
G54D12*
D03*
X1338057Y-109247D02*
G54D12*
D03*
X630032Y-471197D02*
G54D40*
D03*
X-151046Y-1133556D02*
G54D10*
D03*
X-151096Y-1209806D02*
G54D10*
D03*
X-151095Y-1209806D02*
G54D13*
D03*
X-163980Y-1087128D02*
G54D10*
D03*
X-138505Y-1087127D02*
G54D10*
D03*
X697192Y-541810D02*
G54D10*
D03*
X670204Y-541810D02*
G54D10*
D03*
X833717Y-435448D02*
G54D10*
D03*
X833717Y-460848D02*
G54D10*
D03*
X833717Y-495773D02*
G54D15*
D03*
X668617Y-508473D02*
G54D15*
D03*
X1233766Y-276698D02*
G54D10*
D03*
X1233766Y-251298D02*
G54D10*
D03*
X1256055Y-228681D02*
G54D15*
D03*
X1929092Y-562448D02*
G54D10*
D03*
X1929092Y-587848D02*
G54D10*
D03*
X1897404Y-546181D02*
G54D15*
D03*
X1944966Y-937098D02*
G54D10*
D03*
X1944966Y-962498D02*
G54D10*
D03*
X1973604Y-914481D02*
G54D15*
D03*
X1386167Y-1108548D02*
G54D10*
D03*
X1386167Y-1130773D02*
G54D10*
D03*
X1389404Y-1066881D02*
G54D15*
D03*
X1364004Y-1143081D02*
G54D15*
D03*
X1000766Y-1149355D02*
G54D10*
D03*
X985050Y-1133639D02*
G54D10*
D03*
X995704Y-1174831D02*
G54D15*
D03*
X963954Y-1143081D02*
G54D15*
D03*
X1222574Y-1368818D02*
G54D10*
D03*
X1206858Y-1353103D02*
G54D10*
D03*
X1198904Y-1320881D02*
G54D15*
D03*
X1252880Y-1365331D02*
G54D15*
D03*
X700367Y-502123D02*
G54D15*
D03*
X1265517Y-254473D02*
G54D15*
D03*
X1221067Y-317973D02*
G54D15*
D03*
X1243355Y-317581D02*
G54D15*
D03*
X1900517Y-578323D02*
G54D15*
D03*
X1970367Y-578323D02*
G54D15*
D03*
X1967254Y-609681D02*
G54D15*
D03*
X1983067Y-940273D02*
G54D15*
D03*
X1916454Y-977981D02*
G54D15*
D03*
X725767Y-565623D02*
G54D15*
D03*
X751167Y-565623D02*
G54D15*
D03*
X1392517Y-1035523D02*
G54D15*
D03*
X1360767Y-1181573D02*
G54D15*
D03*
X1170267Y-1321273D02*
G54D15*
D03*
X1284567Y-1365723D02*
G54D15*
D03*
X956748Y-1118073D02*
G54D15*
D03*
X998817Y-1206973D02*
G54D15*
D03*
X1341717Y-1410173D02*
G54D15*
D03*
X1341780Y-1384381D02*
G54D15*
D03*
X-21398Y-1697439D02*
G54D16*
D03*
X-86486Y-1697439D02*
G54D16*
D03*
X-19017Y-1913339D02*
G54D16*
D03*
X-86089Y-1913339D02*
G54D16*
D03*
X9955Y-1697439D02*
G54D16*
D03*
X-119427Y-1697439D02*
G54D16*
D03*
X21464Y-1913339D02*
G54D16*
D03*
X-32658Y-1810142D02*
G54D10*
D03*
X43592Y-1810192D02*
G54D10*
D03*
X-140368Y-1757787D02*
G54D10*
D03*
X-86486Y-1811739D02*
G54D10*
D03*
X81168Y-1912506D02*
G54D12*
D03*
X81168Y-2014105D02*
G54D12*
D03*
X-130936Y-1913339D02*
G54D12*
D03*
X-130936Y-2014939D02*
G54D12*
D03*
X117074Y-1945556D02*
G54D10*
D03*
X117186Y-1996537D02*
G54D10*
D03*
X-170263Y-1945556D02*
G54D10*
D03*
X-170151Y-1996537D02*
G54D10*
D03*
X-146546Y-2043782D02*
G54D21*
D03*
X-121647Y-2094828D02*
G54D21*
D03*
X12620Y-2094714D02*
G54D21*
D03*
X37604Y-2043782D02*
G54D21*
D03*
X62503Y-2094828D02*
G54D21*
D03*
X-30563Y-2028107D02*
G54D10*
D03*
X-30451Y-2079088D02*
G54D10*
D03*
X-68663Y-2028107D02*
G54D10*
D03*
X-68551Y-2079088D02*
G54D10*
D03*
X-32608Y-2121342D02*
G54D10*
D03*
X-83408Y-2121342D02*
G54D10*
D03*
X-149986Y-1697439D02*
G54D16*
D03*
X40514Y-1697439D02*
G54D16*
D03*
X-165180Y-2094714D02*
G54D21*
D03*
X166774Y-1774107D02*
G54D10*
D03*
X-192000Y-1674988D02*
G54D10*
D03*
X-192001Y-1649488D02*
G54D10*
D03*
X120067Y-1427125D02*
G54D12*
D03*
X800309Y-2395475D02*
G54D12*
D03*
X1257509Y-2395475D02*
G54D41*
D03*
X610583Y11956D02*
G54D12*
D03*
X489933Y15130D02*
G54D12*
D03*
X610583Y132606D02*
G54D12*
D03*
X489933Y132606D02*
G54D12*
D03*
X471121Y72282D02*
G54D12*
D03*
X489933Y15130D02*
G54D12*
D03*
X416505Y130488D02*
G54D32*
D03*
X416505Y28888D02*
G54D10*
D03*
X489933Y15130D02*
G54D12*
D03*
X914609Y14350D02*
G54D12*
D03*
X793959Y17524D02*
G54D12*
D03*
X914609Y135000D02*
G54D12*
D03*
X793959Y135000D02*
G54D12*
D03*
X775146Y74675D02*
G54D12*
D03*
X793959Y17524D02*
G54D12*
D03*
X720531Y132882D02*
G54D32*
D03*
X720531Y31282D02*
G54D10*
D03*
X793959Y17524D02*
G54D12*
D03*
X-97043Y-33047D02*
G54D12*
D03*
X-167695Y66988D02*
G54D42*
D03*
X331331Y-53815D02*
G54D22*
D03*
X-49669Y-102234D02*
G54D22*
D03*
X-60781Y-1034096D02*
G54D14*
D03*
X124618Y-1031054D02*
G54D12*
D03*
X131142Y-87058D02*
G54D12*
D03*
X279940Y-77152D02*
G54D12*
D03*
X115892Y-2227830D02*
G54D12*
D03*
X119066Y-2107180D02*
G54D12*
D03*
X236542Y-2227830D02*
G54D12*
D03*
X236542Y-2107180D02*
G54D12*
D03*
X176217Y-2088368D02*
G54D12*
D03*
X119066Y-2107180D02*
G54D12*
D03*
X236542Y-2107180D02*
G54D12*
D03*
X72705Y-2242411D02*
G54D32*
D03*
X72705Y-2140812D02*
G54D32*
D03*
X1430583Y-2586694D02*
G54D10*
D03*
X1354283Y-2586695D02*
G54D10*
D03*
X1392483Y-2585900D02*
G54D10*
D03*
X800309Y-2395475D02*
G54D41*
D03*
X1913083Y-2583916D02*
G54D10*
D03*
X1951283Y-2583915D02*
G54D10*
D03*
X1039904Y-850824D02*
G54D10*
D03*
X983341Y-367167D02*
G54D10*
D03*
X1002960Y-347548D02*
G54D10*
D03*
X1039904Y-660324D02*
G54D10*
D03*
X963704Y-704774D02*
G54D10*
D03*
X663739Y-913052D02*
G54D10*
D03*
X689139Y-1090852D02*
G54D10*
D03*
X116167Y-1759423D02*
G54D15*
D03*
X116167Y-1734023D02*
G54D15*
D03*
X176891Y-1218067D02*
G54D10*
D03*
X194922Y-1200036D02*
G54D10*
D03*
X205067Y-1168873D02*
G54D15*
D03*
X230467Y-1168873D02*
G54D15*
D03*
X522292Y-2443730D02*
G54D12*
D03*
X525466Y-2323080D02*
G54D12*
D03*
X642942Y-2443730D02*
G54D12*
D03*
X642942Y-2323080D02*
G54D12*
D03*
X525466Y-2323080D02*
G54D12*
D03*
X642942Y-2323080D02*
G54D12*
D03*
X459732Y-2372867D02*
G54D32*
D03*
X459732Y-2271267D02*
G54D32*
D03*
X222522Y-2334351D02*
G54D10*
D03*
X222522Y-2359851D02*
G54D10*
D03*
X1178279Y-1906134D02*
G54D43*
D03*
G36*
X1080828Y-1933716D02*
X1136828Y-1933716D01*
X1136828Y-1964716D01*
X1080828Y-1964716D01*
X1080828Y-1933716D01*
G37*
G36*
X1242354Y-1933716D02*
X1298354Y-1933716D01*
X1298354Y-1964716D01*
X1242354Y-1964716D01*
X1242354Y-1933716D01*
G37*
G36*
X1093919Y-1990866D02*
X1149919Y-1990866D01*
X1149919Y-2021866D01*
X1093919Y-2021866D01*
X1093919Y-1990866D01*
G37*
G36*
X1204652Y-1990865D02*
X1260652Y-1990865D01*
X1260652Y-2021865D01*
X1204652Y-2021865D01*
X1204652Y-1990865D01*
G37*
G36*
X1108213Y-2092466D02*
X1164213Y-2092466D01*
X1164213Y-2123466D01*
X1108213Y-2123466D01*
X1108213Y-2092466D01*
G37*
G36*
X1188774Y-2092465D02*
X1244774Y-2092465D01*
X1244774Y-2123465D01*
X1188774Y-2123465D01*
X1188774Y-2092465D01*
G37*
G36*
X1150279Y-2092466D02*
X1206279Y-2092466D01*
X1206279Y-2123466D01*
X1150279Y-2123466D01*
X1150279Y-2092466D01*
G37*
X1181454Y-2160134D02*
G54D43*
D03*
X-301461Y353932D02*
G54D22*
D03*
X394261Y206294D02*
G54D44*
D03*
X1455505Y-2131300D02*
G54D22*
D03*
X-291539Y-2597231D02*
G54D22*
D03*
X326010Y109834D02*
G54D12*
D03*
X326010Y78084D02*
G54D12*
D03*
X326010Y46334D02*
G54D12*
D03*
X234160Y13729D02*
G54D10*
D03*
X281960Y13729D02*
G54D10*
D03*
X237335Y140728D02*
G54D10*
D03*
X285135Y140729D02*
G54D10*
D03*
X160910Y103484D02*
G54D12*
D03*
X160910Y71734D02*
G54D12*
D03*
X160910Y39984D02*
G54D12*
D03*
X69060Y10554D02*
G54D10*
D03*
X116860Y10554D02*
G54D10*
D03*
X46835Y118504D02*
G54D10*
D03*
X94635Y118504D02*
G54D10*
D03*
X153758Y-2394506D02*
G54D12*
D03*
X153758Y-2362756D02*
G54D12*
D03*
X153759Y-2331006D02*
G54D12*
D03*
X84521Y-2287718D02*
G54D10*
D03*
X84521Y-2335518D02*
G54D10*
D03*
X72705Y-2242411D02*
G54D12*
D03*
X459732Y-2372867D02*
G54D12*
D03*
X983005Y-317581D02*
G54D15*
D03*
X973417Y-337023D02*
G54D15*
D03*
X999445Y-227538D02*
G54D10*
D03*
X1017476Y-209506D02*
G54D10*
D03*
X995705Y-184231D02*
G54D15*
D03*
X976592Y-200498D02*
G54D15*
D03*
X-51507Y-2243213D02*
G54D10*
D03*
X-110545Y149538D02*
G54D42*
D03*
X-28128Y262000D02*
G54D12*
D03*
X22672Y262000D02*
G54D12*
D03*
X73472Y262000D02*
G54D12*
D03*
X124272Y262000D02*
G54D12*
D03*
X-180529Y266365D02*
G54D45*
D03*
X244173Y-405316D02*
G54D30*
D03*
X180673Y-621216D02*
G54D30*
D03*
X244174Y-621215D02*
G54D30*
D03*
X180673Y-837116D02*
G54D30*
D03*
X244173Y-837116D02*
G54D30*
D03*
X856736Y-432273D02*
G54D15*
D03*
X1850370Y-1233519D02*
G54D10*
D03*
X1850320Y-1309770D02*
G54D10*
D03*
X1931363Y-1230119D02*
G54D10*
D03*
X1931251Y-1179138D02*
G54D10*
D03*
X1817064Y-1204719D02*
G54D10*
D03*
X1816951Y-1153738D02*
G54D10*
D03*
X1850354Y-1004919D02*
G54D10*
D03*
X1850304Y-1081170D02*
G54D10*
D03*
X1729633Y-1261533D02*
G54D10*
D03*
X1805882Y-1261583D02*
G54D10*
D03*
X1804674Y-1081170D02*
G54D10*
D03*
X1804724Y-1004919D02*
G54D10*
D03*
X1672570Y-1233518D02*
G54D10*
D03*
X1672521Y-1309768D02*
G54D10*
D03*
X1775239Y-1109003D02*
G54D10*
D03*
X1677674Y-1106570D02*
G54D10*
D03*
X1677724Y-1030319D02*
G54D10*
D03*
X1601474Y-1106570D02*
G54D10*
D03*
X1601524Y-1030319D02*
G54D10*
D03*
X1550674Y-1106570D02*
G54D10*
D03*
X1550724Y-1030319D02*
G54D10*
D03*
X1451203Y-1172614D02*
G54D10*
D03*
X1502183Y-1172501D02*
G54D10*
D03*
X1522657Y-1303338D02*
G54D10*
D03*
X1598907Y-1303387D02*
G54D10*
D03*
X1737999Y-1185944D02*
G54D11*
D03*
X1753899Y-1168369D02*
G54D11*
D03*
X1737964Y-1150754D02*
G54D11*
D03*
X1636399Y-1185944D02*
G54D11*
D03*
X1652299Y-1168370D02*
G54D11*
D03*
X1636364Y-1150754D02*
G54D11*
D03*
X1560199Y-1185944D02*
G54D11*
D03*
X1576099Y-1168369D02*
G54D11*
D03*
X1560164Y-1150753D02*
G54D11*
D03*
X1955511Y-1109050D02*
G54D12*
D03*
X1904711Y-1109050D02*
G54D12*
D03*
X1930111Y-1083650D02*
G54D12*
D03*
X1904711Y-1058250D02*
G54D12*
D03*
X1955511Y-1058250D02*
G54D12*
D03*
X1487199Y-1109844D02*
G54D12*
D03*
X1436399Y-1109844D02*
G54D12*
D03*
X1461799Y-1084444D02*
G54D12*
D03*
X1436399Y-1059044D02*
G54D12*
D03*
X1487199Y-1059044D02*
G54D12*
D03*
X1785673Y-1334154D02*
G54D10*
D03*
X1734693Y-1334266D02*
G54D10*
D03*
X1850354Y-1004919D02*
G54D13*
D03*
X1974775Y-1364538D02*
G54D14*
D03*
X1724439Y-1109003D02*
G54D10*
D03*
X1722124Y-1081169D02*
G54D10*
D03*
X1722174Y-1004919D02*
G54D10*
D03*
X1981899Y-1160544D02*
G54D15*
D03*
X1804724Y-1004919D02*
G54D13*
D03*
X1722174Y-1004919D02*
G54D13*
D03*
X1677724Y-1030319D02*
G54D13*
D03*
X1601524Y-1030319D02*
G54D13*
D03*
X1415578Y-1007350D02*
G54D14*
D03*
X1895321Y-949204D02*
G54D10*
D03*
X1424299Y-1150144D02*
G54D15*
D03*
X1928555Y-1287443D02*
G54D10*
D03*
X1458655Y-1287443D02*
G54D10*
D03*
X1495033Y-1422684D02*
G54D10*
D03*
X1539983Y-301756D02*
G54D10*
D03*
X1540033Y-225506D02*
G54D10*
D03*
X1458990Y-305156D02*
G54D10*
D03*
X1459102Y-356136D02*
G54D10*
D03*
X1573289Y-330556D02*
G54D10*
D03*
X1573401Y-381536D02*
G54D10*
D03*
X1539999Y-530355D02*
G54D10*
D03*
X1540049Y-454105D02*
G54D10*
D03*
X1660720Y-273742D02*
G54D10*
D03*
X1584470Y-273692D02*
G54D10*
D03*
X1585679Y-454106D02*
G54D10*
D03*
X1585629Y-530355D02*
G54D10*
D03*
X1717782Y-301756D02*
G54D10*
D03*
X1717832Y-225506D02*
G54D10*
D03*
X1615114Y-426272D02*
G54D10*
D03*
X1712679Y-428705D02*
G54D10*
D03*
X1712629Y-504955D02*
G54D10*
D03*
X1788879Y-428706D02*
G54D10*
D03*
X1788829Y-504956D02*
G54D10*
D03*
X1839679Y-428706D02*
G54D10*
D03*
X1839629Y-504956D02*
G54D10*
D03*
X1939150Y-362661D02*
G54D10*
D03*
X1888170Y-362774D02*
G54D10*
D03*
X1867696Y-231938D02*
G54D10*
D03*
X1791446Y-231888D02*
G54D10*
D03*
X1652354Y-349330D02*
G54D11*
D03*
X1636454Y-366905D02*
G54D11*
D03*
X1652388Y-384521D02*
G54D11*
D03*
X1753954Y-349330D02*
G54D11*
D03*
X1738054Y-366906D02*
G54D11*
D03*
X1753989Y-384521D02*
G54D11*
D03*
X1830154Y-349330D02*
G54D11*
D03*
X1814254Y-366906D02*
G54D11*
D03*
X1830188Y-384521D02*
G54D11*
D03*
X1433254Y-425430D02*
G54D12*
D03*
X1484054Y-425430D02*
G54D12*
D03*
X1458654Y-450830D02*
G54D12*
D03*
X1484054Y-476230D02*
G54D12*
D03*
X1433254Y-476230D02*
G54D12*
D03*
X1903154Y-425430D02*
G54D12*
D03*
X1953954Y-425430D02*
G54D12*
D03*
X1928554Y-450830D02*
G54D12*
D03*
X1953954Y-476230D02*
G54D12*
D03*
X1903154Y-476230D02*
G54D12*
D03*
X1604680Y-201121D02*
G54D10*
D03*
X1655660Y-201008D02*
G54D10*
D03*
X1539999Y-530355D02*
G54D13*
D03*
X1415578Y-170737D02*
G54D14*
D03*
X1665914Y-426272D02*
G54D10*
D03*
X1668229Y-454105D02*
G54D10*
D03*
X1668179Y-530355D02*
G54D10*
D03*
X1497229Y-168955D02*
G54D10*
D03*
X1408454Y-374730D02*
G54D15*
D03*
X1585629Y-530355D02*
G54D13*
D03*
X1668179Y-530355D02*
G54D13*
D03*
X1712629Y-504955D02*
G54D13*
D03*
X1788829Y-504956D02*
G54D13*
D03*
X1975410Y-171530D02*
G54D14*
D03*
X1415578Y-529512D02*
G54D22*
D03*
X1974774Y-527924D02*
G54D14*
D03*
X1966054Y-385130D02*
G54D15*
D03*
X951004Y-1041324D02*
G54D46*
D03*
X976404Y-1041324D02*
G54D46*
D03*
X1903344Y-1316994D02*
G54D12*
D03*
X331719Y-2142494D02*
G54D39*
D03*
X461894Y-2123444D02*
G54D39*
D03*
X461894Y-2142494D02*
G54D39*
D03*
X366644Y-2142494D02*
G54D39*
D03*
X385694Y-2142494D02*
G54D39*
D03*
X404744Y-2142494D02*
G54D39*
D03*
X423794Y-2142494D02*
G54D39*
D03*
X442844Y-2142494D02*
G54D39*
D03*
X347594Y-2142494D02*
G54D39*
D03*
X461894Y-2142494D02*
G54D39*
D03*
X296794Y-2120269D02*
G54D39*
D03*
X296794Y-2101219D02*
G54D39*
D03*
X296794Y-2142494D02*
G54D39*
D03*
X296794Y-1964694D02*
G54D12*
D03*
X296794Y-1945644D02*
G54D39*
D03*
X296794Y-1926594D02*
G54D39*
D03*
X296794Y-2021844D02*
G54D39*
D03*
X296794Y-2002794D02*
G54D39*
D03*
X296794Y-1983744D02*
G54D39*
D03*
X296794Y-1964694D02*
G54D39*
D03*
X296794Y-2078994D02*
G54D39*
D03*
X296794Y-2059944D02*
G54D39*
D03*
X296794Y-2040894D02*
G54D39*
D03*
X296794Y-2021844D02*
G54D39*
D03*
X524600Y-2101219D02*
G54D39*
D03*
X315844Y-2142494D02*
G54D39*
D03*
X108409Y-1111568D02*
G54D10*
D03*
X108409Y-1135084D02*
G54D10*
D03*
X133809Y-1111568D02*
G54D10*
D03*
X133809Y-1135084D02*
G54D10*
D03*
X-170651Y-1616880D02*
G54D10*
D03*
X2002636Y-1901836D02*
G54D21*
D03*
X-25960Y-2391124D02*
G54D11*
D03*
X-41859Y-2408699D02*
G54D11*
D03*
X-25925Y-2426315D02*
G54D11*
D03*
X-144530Y-2480228D02*
G54D10*
D03*
X-144581Y-2505803D02*
G54D10*
D03*
X-144581Y-2505803D02*
G54D10*
D03*
X-144631Y-2531378D02*
G54D10*
D03*
X1950011Y-2394031D02*
G54D22*
D03*
X-47778Y179509D02*
G54D12*
D03*
X-263078Y-2271650D02*
G54D12*
D03*
X-263078Y-2322450D02*
G54D12*
D03*
X-263078Y-2373250D02*
G54D12*
D03*
X-263078Y-2424050D02*
G54D12*
D03*
X-144631Y-2531378D02*
G54D10*
D03*
X-144682Y-2556952D02*
G54D10*
D03*
X-144682Y-2556952D02*
G54D10*
D03*
X-144732Y-2582527D02*
G54D10*
D03*
G36*
X1207429Y-1933716D02*
X1263429Y-1933716D01*
X1263429Y-1964716D01*
X1207429Y-1964716D01*
X1207429Y-1933716D01*
G37*
X1041292Y155461D02*
G54D11*
D03*
X1025392Y137886D02*
G54D11*
D03*
X1041327Y120270D02*
G54D11*
D03*
X1380588Y-27746D02*
G54D10*
D03*
X1380638Y48504D02*
G54D10*
D03*
X844590Y194630D02*
G54D10*
D03*
X920840Y194580D02*
G54D10*
D03*
X1285403Y-773988D02*
G54D22*
D03*
X729789Y-1102542D02*
G54D10*
D03*
X706205Y-1002587D02*
G54D21*
D03*
X1189360Y90214D02*
G54D47*
D03*
X1214760Y90214D02*
G54D47*
D03*
X1240160Y90214D02*
G54D47*
D03*
X1265560Y90214D02*
G54D47*
D03*
X1290960Y90214D02*
G54D47*
D03*
X1316360Y90214D02*
G54D47*
D03*
X1341760Y90214D02*
G54D47*
D03*
X1367160Y90214D02*
G54D47*
D03*
X1392560Y90214D02*
G54D47*
D03*
X1417960Y90214D02*
G54D47*
D03*
X1443360Y90214D02*
G54D47*
D03*
X1468760Y90214D02*
G54D47*
D03*
X1494160Y90214D02*
G54D47*
D03*
X1519560Y90214D02*
G54D47*
D03*
X1544960Y90214D02*
G54D47*
D03*
X1189360Y242614D02*
G54D47*
D03*
X1214760Y242614D02*
G54D47*
D03*
X1240160Y242614D02*
G54D47*
D03*
X1265560Y242614D02*
G54D47*
D03*
X1290960Y242614D02*
G54D47*
D03*
X1316360Y242614D02*
G54D47*
D03*
X1341760Y242614D02*
G54D47*
D03*
X1367160Y242614D02*
G54D47*
D03*
X1392560Y242614D02*
G54D47*
D03*
X1417960Y242614D02*
G54D47*
D03*
X1443360Y242614D02*
G54D47*
D03*
X1468760Y242614D02*
G54D47*
D03*
X1494160Y242614D02*
G54D47*
D03*
X1519560Y242614D02*
G54D47*
D03*
X1544960Y242614D02*
G54D47*
D03*
X1164119Y242773D02*
G54D48*
D03*
X1164119Y90373D02*
G54D48*
D03*
X1190376Y191560D02*
G54D47*
D03*
X1164976Y191560D02*
G54D47*
D03*
X1190376Y166160D02*
G54D47*
D03*
X1164976Y166160D02*
G54D47*
D03*
X1190376Y140760D02*
G54D47*
D03*
X1164976Y140760D02*
G54D47*
D03*
X629633Y78630D02*
G54D12*
D03*
X768454Y232647D02*
G54D10*
D03*
X692204Y232698D02*
G54D10*
D03*
X978028Y136920D02*
G54D10*
D03*
X977978Y60670D02*
G54D10*
D03*
X1016128Y44845D02*
G54D10*
D03*
X1016078Y-31405D02*
G54D10*
D03*
X647909Y-49150D02*
G54D12*
D03*
X1225759Y211200D02*
G54D12*
D03*
X1003340Y283530D02*
G54D10*
D03*
X1079590Y283480D02*
G54D10*
D03*
X940730Y243787D02*
G54D10*
D03*
X940729Y291587D02*
G54D10*
D03*
X1093138Y234205D02*
G54D10*
D03*
X1042158Y234093D02*
G54D10*
D03*
X1333392Y28461D02*
G54D11*
D03*
X1317492Y10886D02*
G54D11*
D03*
X1333427Y-6730D02*
G54D11*
D03*
X1202798Y-14972D02*
G54D10*
D03*
X1279048Y-15022D02*
G54D10*
D03*
X1101198Y10428D02*
G54D10*
D03*
X1177448Y10378D02*
G54D10*
D03*
X1583798Y-91172D02*
G54D10*
D03*
X2022640Y349322D02*
G54D22*
D03*
X-137553Y181150D02*
G54D12*
D03*
X-160004Y158700D02*
G54D12*
D03*
X-89928Y216075D02*
G54D12*
D03*
X-102628Y184325D02*
G54D12*
D03*
X898337Y-923021D02*
G54D30*
D03*
X936437Y-881746D02*
G54D30*
D03*
X809517Y225311D02*
G54D11*
D03*
X793617Y207736D02*
G54D11*
D03*
X809552Y190120D02*
G54D11*
D03*
X-47778Y103309D02*
G54D12*
D03*
X-22378Y103309D02*
G54D12*
D03*
X257022Y281109D02*
G54D12*
D03*
X282422Y281109D02*
G54D12*
D03*
X257022Y217609D02*
G54D12*
D03*
X534330Y262837D02*
G54D10*
D03*
X534329Y310637D02*
G54D10*
D03*
X264315Y-2499922D02*
G54D11*
D03*
X246740Y-2484023D02*
G54D11*
D03*
X229125Y-2499958D02*
G54D11*
D03*
X635340Y-2611015D02*
G54D10*
D03*
X830542Y-1251423D02*
G54D15*
D03*
X833717Y-1092673D02*
G54D15*
D03*
X830542Y-1384773D02*
G54D15*
D03*
X830542Y-1518123D02*
G54D15*
D03*
X830542Y-1651473D02*
G54D15*
D03*
X830542Y-1784823D02*
G54D15*
D03*
X792442Y-2095973D02*
G54D15*
D03*
X868642Y-2054698D02*
G54D15*
D03*
X-31304Y347725D02*
G54D12*
D03*
X19496Y347725D02*
G54D12*
D03*
X70296Y347725D02*
G54D12*
D03*
X121096Y347725D02*
G54D12*
D03*
X1708596Y347725D02*
G54D12*
D03*
X1759396Y347725D02*
G54D12*
D03*
X1810196Y347725D02*
G54D12*
D03*
X1860996Y347725D02*
G54D12*
D03*
X1632396Y347725D02*
G54D12*
D03*
X95696Y303275D02*
G54D12*
D03*
X1652521Y204673D02*
G54D29*
D03*
X1652521Y230073D02*
G54D29*
D03*
X1703321Y204673D02*
G54D29*
D03*
X1703321Y230073D02*
G54D29*
D03*
X1652521Y306273D02*
G54D29*
D03*
X1703321Y306273D02*
G54D29*
D03*
X1741421Y204673D02*
G54D29*
D03*
X1741421Y230073D02*
G54D29*
D03*
X1792221Y204673D02*
G54D29*
D03*
X1792221Y230073D02*
G54D29*
D03*
X1741421Y306273D02*
G54D29*
D03*
X1792221Y306273D02*
G54D29*
D03*
X1830321Y204673D02*
G54D29*
D03*
X1830321Y230073D02*
G54D29*
D03*
X1881121Y204673D02*
G54D29*
D03*
X1881121Y230073D02*
G54D29*
D03*
X1830321Y306273D02*
G54D29*
D03*
X1881121Y306273D02*
G54D29*
D03*
X1919221Y204673D02*
G54D29*
D03*
X1919221Y230073D02*
G54D29*
D03*
X1970021Y204673D02*
G54D29*
D03*
X1970021Y230073D02*
G54D29*
D03*
X1919221Y306273D02*
G54D29*
D03*
X1970021Y306273D02*
G54D29*
D03*
X1672688Y42104D02*
G54D10*
D03*
X1672738Y118354D02*
G54D10*
D03*
X1761588Y42104D02*
G54D10*
D03*
X1761638Y118354D02*
G54D10*
D03*
X1856838Y42104D02*
G54D10*
D03*
X1856888Y118354D02*
G54D10*
D03*
X1812388Y42104D02*
G54D10*
D03*
X1812438Y118354D02*
G54D10*
D03*
X1723488Y42104D02*
G54D10*
D03*
X1723538Y118354D02*
G54D10*
D03*
X1901288Y42104D02*
G54D10*
D03*
X1901338Y118354D02*
G54D10*
D03*
X1992728Y42104D02*
G54D10*
D03*
X1992778Y118354D02*
G54D10*
D03*
X1945738Y42104D02*
G54D10*
D03*
X1945788Y118354D02*
G54D10*
D03*
X1654339Y160223D02*
G54D21*
D03*
X1679739Y160223D02*
G54D21*
D03*
X1705139Y160223D02*
G54D21*
D03*
X1743239Y160223D02*
G54D21*
D03*
X1768639Y160223D02*
G54D21*
D03*
X1794039Y160223D02*
G54D21*
D03*
X1832139Y160223D02*
G54D21*
D03*
X1857539Y160223D02*
G54D21*
D03*
X1882939Y160223D02*
G54D21*
D03*
X1921039Y160223D02*
G54D21*
D03*
X1946439Y160223D02*
G54D21*
D03*
X1971839Y160223D02*
G54D21*
D03*
X1654339Y160223D02*
G54D12*
D03*
X1743239Y160223D02*
G54D12*
D03*
X1832139Y160223D02*
G54D12*
D03*
X1921039Y160223D02*
G54D12*
D03*
X1582397Y282725D02*
G54D49*
D03*
X2017708Y212725D02*
G54D12*
D03*
X1893124Y-1366319D02*
G54D12*
D03*
X1628951Y-541817D02*
G54D12*
D03*
X1812307Y-542611D02*
G54D12*
D03*
X1410670Y-111605D02*
G54D12*
D03*
X1974775Y-527925D02*
G54D22*
D03*
X1975411Y-171531D02*
G54D22*
D03*
X1415578Y-170737D02*
G54D22*
D03*
X1415579Y-1007350D02*
G54D22*
D03*
X1974776Y-1364538D02*
G54D22*
D03*
X984811Y-1084343D02*
G54D22*
D03*
X32311Y-1084343D02*
G54D22*
D03*
X-60781Y-1034096D02*
G54D22*
D03*
X32311Y-1982868D02*
G54D22*
D03*
X1628952Y-1378430D02*
G54D12*
D03*
X1731345Y-1379224D02*
G54D12*
D03*
X191412Y-1989361D02*
G54D12*
D03*
X172362Y-1074961D02*
G54D12*
D03*
X1887930Y-649647D02*
G54D18*
D03*
X1071955Y-935397D02*
G54D18*
D03*
X1932380Y-875072D02*
G54D18*
D03*
X1138630Y-697272D02*
G54D18*
D03*
X1083475Y-1409865D02*
G54D10*
D03*
X1105700Y-1409864D02*
G54D10*
D03*
X1126337Y-984415D02*
G54D10*
D03*
X1126338Y-1003464D02*
G54D10*
D03*
X1215237Y-982827D02*
G54D10*
D03*
X1215238Y-1001877D02*
G54D10*
D03*
X1158088Y-1028865D02*
G54D10*
D03*
X1180312Y-1028864D02*
G54D10*
D03*
X1218943Y-1035481D02*
G54D10*
D03*
X1218943Y-1057706D02*
G54D10*
D03*
X1265517Y-975198D02*
G54D28*
D03*
X1071842Y-973610D02*
G54D28*
D03*
X1198842Y-1141886D02*
G54D28*
D03*
X1202017Y-1118073D02*
G54D28*
D03*
X1100417Y-1002186D02*
G54D28*
D03*
X1171584Y-985457D02*
G54D21*
D03*
X-23881Y-510544D02*
G54D12*
D03*
X-306384Y200260D02*
G54D10*
D03*
X-250646Y200260D02*
G54D10*
D03*
X1221585Y305828D02*
G54D10*
D03*
X1269385Y305829D02*
G54D10*
D03*
X1316837Y269710D02*
G54D15*
D03*
X-271022Y76966D02*
G54D10*
D03*
X-271134Y127946D02*
G54D10*
D03*
X-309122Y76966D02*
G54D10*
D03*
X-309234Y127946D02*
G54D10*
D03*
X-261446Y258258D02*
G54D10*
D03*
X-312426Y258146D02*
G54D10*
D03*
X605116Y-514822D02*
G54D10*
D03*
X605116Y-492598D02*
G54D10*
D03*
X619404Y-629122D02*
G54D10*
D03*
X619404Y-606898D02*
G54D10*
D03*
X645907Y-629947D02*
G54D40*
D03*
X833717Y-198910D02*
G54D10*
D03*
X954367Y-197323D02*
G54D10*
D03*
X384454Y-2353941D02*
G54D10*
D03*
X384454Y-2328542D02*
G54D10*
D03*
X1359573Y307425D02*
G54D10*
D03*
X1384973Y307425D02*
G54D10*
D03*
X1410373Y307425D02*
G54D10*
D03*
X1435773Y307425D02*
G54D10*
D03*
X1461173Y307425D02*
G54D10*
D03*
X1486573Y307425D02*
G54D10*
D03*
X1511973Y307425D02*
G54D10*
D03*
X1384973Y307425D02*
G54D10*
D03*
X2026046Y292100D02*
G54D12*
D03*
X73484Y-1104921D02*
G54D10*
D03*
X168734Y-1105715D02*
G54D10*
D03*
X1818712Y-1338003D02*
G54D21*
D03*
X1901568Y-1623438D02*
G54D10*
D03*
X1901618Y-1547188D02*
G54D10*
D03*
X2009212Y-1572953D02*
G54D50*
D03*
X1901618Y-1547188D02*
G54D10*
D03*
X1901568Y-1623438D02*
G54D10*
D03*
X1846604Y-1576468D02*
G54D10*
D03*
X1846604Y-1541543D02*
G54D10*
D03*
X1846604Y-1633618D02*
G54D10*
D03*
X1846604Y-1678068D02*
G54D10*
D03*
X1586254Y-1716168D02*
G54D10*
D03*
X1624354Y-1716168D02*
G54D10*
D03*
X1846971Y-1505339D02*
G54D10*
D03*
X1923221Y-1505389D02*
G54D10*
D03*
X1938679Y-1544718D02*
G54D10*
D03*
X1935901Y-1582818D02*
G54D10*
D03*
X1770541Y-1732012D02*
G54D10*
D03*
X1818341Y-1732013D02*
G54D10*
D03*
X1770541Y-1732012D02*
G54D10*
D03*
X1600764Y-1502478D02*
G54D10*
D03*
X1626263Y-1502478D02*
G54D10*
D03*
X1683314Y-1502478D02*
G54D10*
D03*
X1708813Y-1502478D02*
G54D10*
D03*
X1943101Y-1736428D02*
G54D21*
D03*
X1968501Y-1736428D02*
G54D21*
D03*
X1830729Y-1843168D02*
G54D10*
D03*
X1830729Y-1808243D02*
G54D10*
D03*
X1830729Y-1900318D02*
G54D10*
D03*
X1830729Y-1944768D02*
G54D10*
D03*
X1573554Y-1982868D02*
G54D10*
D03*
X1611654Y-1982868D02*
G54D10*
D03*
X1588064Y-1769178D02*
G54D10*
D03*
X1613563Y-1769178D02*
G54D10*
D03*
X1670614Y-1769178D02*
G54D10*
D03*
X1696113Y-1769178D02*
G54D10*
D03*
X1959480Y-1883394D02*
G54D10*
D03*
X1959480Y-1857894D02*
G54D10*
D03*
X1555350Y-1612020D02*
G54D21*
D03*
X1530366Y-1662952D02*
G54D21*
D03*
X1505467Y-1611905D02*
G54D21*
D03*
X1877389Y-1849244D02*
G54D10*
D03*
X1877276Y-1798264D02*
G54D10*
D03*
X1960565Y-2014241D02*
G54D21*
D03*
X1985965Y-2014240D02*
G54D21*
D03*
X1959772Y-2044802D02*
G54D21*
D03*
X1985172Y-2044801D02*
G54D21*
D03*
X1898594Y-1946753D02*
G54D10*
D03*
X1906929Y-1909050D02*
G54D10*
D03*
X1424892Y-1799361D02*
G54D10*
D03*
X1424943Y-1773786D02*
G54D10*
D03*
X1420130Y-2019230D02*
G54D10*
D03*
X1420180Y-1993655D02*
G54D10*
D03*
X1532331Y-1881894D02*
G54D21*
D03*
X1507347Y-1932826D02*
G54D21*
D03*
X1482448Y-1881780D02*
G54D21*
D03*
X1757871Y-1471542D02*
G54D10*
D03*
X1757921Y-1445967D02*
G54D10*
D03*
X1376265Y-1539104D02*
G54D10*
D03*
X1469885Y-1767732D02*
G54D10*
D03*
X1421466Y-1720107D02*
G54D10*
D03*
X1293672Y-1535957D02*
G54D10*
D03*
X1223039Y-1652825D02*
G54D10*
D03*
X1222245Y-1678225D02*
G54D10*
D03*
X1222245Y-1678225D02*
G54D10*
D03*
X1221451Y-1703625D02*
G54D10*
D03*
X1221451Y-1703625D02*
G54D10*
D03*
X1220658Y-1729025D02*
G54D10*
D03*
X1220657Y-1729024D02*
G54D10*
D03*
X1219864Y-1754425D02*
G54D10*
D03*
X1219864Y-1754425D02*
G54D10*
D03*
X1219070Y-1779825D02*
G54D10*
D03*
X1203591Y-1652826D02*
G54D10*
D03*
X1202798Y-1704418D02*
G54D10*
D03*
X1202401Y-1755616D02*
G54D10*
D03*
X1533092Y-1545128D02*
G54D10*
D03*
X1422761Y-1607040D02*
G54D10*
D03*
X718164Y-190388D02*
G54D21*
D03*
X608626Y-193562D02*
G54D21*
D03*
X480519Y-2213412D02*
G54D10*
D03*
X455119Y-2213412D02*
G54D10*
D03*
X622600Y-2214206D02*
G54D10*
D03*
X597201Y-2214206D02*
G54D10*
D03*
X742456Y-2188411D02*
G54D10*
D03*
X717057Y-2188411D02*
G54D10*
D03*
X741663Y-2151898D02*
G54D10*
D03*
X716263Y-2151898D02*
G54D10*
D03*
X1349675Y-2177694D02*
G54D10*
D03*
X1324276Y-2177694D02*
G54D10*
D03*
X1349675Y-2141580D02*
G54D10*
D03*
X1324276Y-2141580D02*
G54D10*
D03*
X1677921Y306273D02*
G54D29*
D03*
X1766821Y306273D02*
G54D29*
D03*
X1855721Y306273D02*
G54D29*
D03*
X1944621Y306273D02*
G54D29*
D03*
X791363Y-1970676D02*
G54D12*
D03*
X799208Y-1895376D02*
G54D12*
D03*
X799208Y-1760042D02*
G54D12*
D03*
X799605Y-1623914D02*
G54D12*
D03*
X799605Y-1489373D02*
G54D12*
D03*
X798415Y-1354833D02*
G54D12*
D03*
X796827Y-1221483D02*
G54D12*
D03*
X588716Y-1771072D02*
G54D10*
D03*
X606677Y-1789032D02*
G54D10*
D03*
X1080572Y-1682019D02*
G54D10*
D03*
X1080572Y-1656620D02*
G54D10*
D03*
X595356Y-1288824D02*
G54D10*
D03*
X613316Y-1270864D02*
G54D10*
D03*
X2004065Y-67347D02*
G54D12*
D03*
X1998907Y-33216D02*
G54D12*
D03*
X1409239Y-2512244D02*
G54D10*
D03*
X114511Y-1501738D02*
G54D12*
D03*
X126415Y-1304862D02*
G54D12*
D03*
X65069Y-1593431D02*
G54D12*
D03*
X-19069Y-1591050D02*
G54D12*
D03*
X900121Y-1173576D02*
G54D21*
D03*
X459732Y-2271267D02*
G54D12*
D03*
X1579099Y-9500D02*
G54D10*
D03*
X1502850Y-9450D02*
G54D10*
D03*
X1463956Y33412D02*
G54D10*
D03*
X1463956Y-7069D02*
G54D10*
D03*
X1505953Y32606D02*
G54D12*
D03*
X1959615Y4090D02*
G54D12*
D03*
X1996921Y3296D02*
G54D12*
D03*
X1946506Y-2060316D02*
G54D51*
D03*
X1944124Y-2026184D02*
G54D51*
D03*
X1955975Y-1975855D02*
G54D51*
D03*
X1944918Y-1991260D02*
G54D51*
D03*
X1924225Y-1715507D02*
G54D51*
D03*
X1987725Y-1721857D02*
G54D51*
D03*
X1914756Y-1703128D02*
G54D51*
D03*
X1932614Y-1682094D02*
G54D51*
D03*
X1927400Y-1880607D02*
G54D51*
D03*
X-139112Y41566D02*
G54D12*
D03*
X-316118Y41566D02*
G54D12*
D03*
X-296274Y-2069016D02*
G54D12*
D03*
X-32608Y-2146742D02*
G54D10*
D03*
X-32608Y-2121342D02*
G54D10*
D03*
X1598913Y-2594811D02*
G54D10*
D03*
X1252044Y-2586080D02*
G54D10*
D03*
X2022639Y-2087802D02*
G54D21*
D03*
X1560518Y-2540011D02*
G54D21*
D03*
X1458918Y-2540011D02*
G54D21*
D03*
X2042715Y-1776412D02*
G54D12*
D03*
G36*
X-265245Y368819D02*
X-251790Y382274D01*
X-232700Y382274D01*
X-219245Y368819D01*
X-219245Y309729D01*
X-232700Y296274D01*
X-251790Y296274D01*
X-265245Y309729D01*
X-265245Y368819D01*
G37*
X1080573Y-1732819D02*
G54D10*
D03*
X1080572Y-1707419D02*
G54D10*
D03*
X1080572Y-1682019D02*
G54D10*
D03*
X1048822Y-1656620D02*
G54D10*
D03*
X1048822Y-1682020D02*
G54D10*
D03*
X1178438Y-2008130D02*
G54D42*
D03*
X1178438Y-1950980D02*
G54D42*
D03*
X1178438Y-2077980D02*
G54D12*
D03*
X1328080Y-1890608D02*
G54D10*
D03*
X1328080Y-1842808D02*
G54D10*
D03*
X1285085Y-1637272D02*
G54D10*
D03*
X1332885Y-1637271D02*
G54D10*
D03*
X1346561Y-1683240D02*
G54D10*
D03*
X1347138Y-1746995D02*
G54D10*
D03*
X1296158Y-1747107D02*
G54D10*
D03*
X850373Y-49770D02*
G54D10*
D03*
X802573Y-49771D02*
G54D10*
D03*
X926573Y-49770D02*
G54D10*
D03*
X878773Y-49771D02*
G54D10*
D03*
X725517Y-27331D02*
G54D10*
D03*
X761646Y-63300D02*
G54D10*
D03*
X699483Y-64244D02*
G54D12*
D03*
X1800784Y-2187814D02*
G54D10*
D03*
X1848584Y-2187814D02*
G54D10*
D03*
G36*
X1778962Y-133921D02*
X1804962Y-133921D01*
X1804962Y-159921D01*
X1778962Y-159921D01*
X1778962Y-133921D01*
G37*
G36*
X1632912Y-133921D02*
X1658912Y-133921D01*
X1658912Y-159921D01*
X1632912Y-159921D01*
X1632912Y-133921D01*
G37*
G36*
X1499562Y-553021D02*
X1525562Y-553021D01*
X1525562Y-579021D01*
X1499562Y-579021D01*
X1499562Y-553021D01*
G37*
G36*
X635962Y-406971D02*
X661962Y-406971D01*
X661962Y-432971D01*
X635962Y-432971D01*
X635962Y-406971D01*
G37*
G36*
X1232862Y-406971D02*
X1258862Y-406971D01*
X1258862Y-432971D01*
X1232862Y-432971D01*
X1232862Y-406971D01*
G37*
G36*
X1645612Y-972121D02*
X1671612Y-972121D01*
X1671612Y-998121D01*
X1645612Y-998121D01*
X1645612Y-972121D01*
G37*
G36*
X1382087Y-1203896D02*
X1408087Y-1203896D01*
X1408087Y-1229896D01*
X1382087Y-1229896D01*
X1382087Y-1203896D01*
G37*
G36*
X1455112Y-1372171D02*
X1481112Y-1372171D01*
X1481112Y-1398171D01*
X1455112Y-1398171D01*
X1455112Y-1372171D01*
G37*
G36*
X991562Y-1511871D02*
X1017562Y-1511871D01*
X1017562Y-1537871D01*
X991562Y-1537871D01*
X991562Y-1511871D01*
G37*
G36*
X20012Y-1022921D02*
X46012Y-1022921D01*
X46012Y-1048921D01*
X20012Y-1048921D01*
X20012Y-1022921D01*
G37*
X1013541Y-1398575D02*
G54D21*
D03*
X346251Y-17942D02*
G54D12*
D03*
X-84633Y-1011654D02*
G54D12*
D03*
X179021Y281832D02*
G54D12*
D03*
X48846Y323106D02*
G54D12*
D03*
X-263098Y-2474862D02*
G54D12*
D03*
X-267067Y-1330275D02*
G54D12*
D03*
X-140861Y-1330275D02*
G54D12*
D03*
X-275401Y-2093068D02*
G54D12*
D03*
X2039310Y-2598025D02*
G54D22*
D03*
X-142832Y-2165124D02*
G54D10*
D03*
X-124872Y-2147164D02*
G54D10*
D03*
X1324275Y-386598D02*
G54D10*
D03*
X1298876Y-386598D02*
G54D10*
D03*
X1372694Y-449305D02*
G54D10*
D03*
X1347294Y-449305D02*
G54D10*
D03*
X724461Y-2259091D02*
G54D52*
D03*
X725255Y-2547224D02*
G54D52*
D03*
X2003192Y-2256712D02*
G54D52*
D03*
X2003192Y-2547224D02*
G54D52*
D03*
X1722768Y307067D02*
G54D40*
D03*
X1631884Y309845D02*
G54D28*
D03*
X1900965Y306273D02*
G54D28*
D03*
X1511973Y307425D02*
G54D10*
D03*
X1537374Y307425D02*
G54D10*
D03*
X1537374Y307425D02*
G54D10*
D03*
X1562774Y307425D02*
G54D10*
D03*
X1562774Y307425D02*
G54D10*
D03*
X1588174Y307425D02*
G54D10*
D03*
X331719Y-1926594D02*
G54D39*
D03*
X461894Y-1926594D02*
G54D39*
D03*
X366644Y-1926594D02*
G54D39*
D03*
X385694Y-1926594D02*
G54D39*
D03*
X404744Y-1926594D02*
G54D39*
D03*
X423794Y-1926594D02*
G54D39*
D03*
X442844Y-1926594D02*
G54D39*
D03*
X347594Y-1926594D02*
G54D39*
D03*
X461894Y-1926594D02*
G54D39*
D03*
X296794Y-1926594D02*
G54D39*
D03*
X315844Y-1926594D02*
G54D39*
D03*
X5986Y-1913339D02*
G54D16*
D03*
X-110298Y-1913339D02*
G54D16*
D03*
X1134830Y-1551862D02*
G54D22*
D03*
X1617941Y226540D02*
G54D10*
D03*
X1617941Y251939D02*
G54D10*
D03*
X2034266Y-1889597D02*
G54D10*
D03*
X2034266Y-1864198D02*
G54D10*
D03*
X2033431Y-1913225D02*
G54D15*
D03*
X1404705Y-1905081D02*
G54D44*
D03*
X1079382Y-1631616D02*
G54D10*
D03*
X1014265Y-1424643D02*
G54D12*
D03*
X1014266Y-1450143D02*
G54D10*
D03*
X1014265Y-1424643D02*
G54D10*
D03*
X1013868Y-1398449D02*
G54D10*
D03*
X1958478Y-2148723D02*
G54D10*
D03*
X1933078Y-2148723D02*
G54D10*
D03*
X1994969Y-2192016D02*
G54D10*
D03*
X1994969Y-2166616D02*
G54D10*
D03*
X1957663Y-2173748D02*
G54D10*
D03*
X1994970Y-2167013D02*
G54D10*
D03*
X1994970Y-2141613D02*
G54D10*
D03*
X2034657Y-2142005D02*
G54D10*
D03*
X2034657Y-2116606D02*
G54D10*
D03*
X2034656Y-2211062D02*
G54D10*
D03*
X2034656Y-2185662D02*
G54D10*
D03*
G36*
X1259056Y-169640D02*
X1285056Y-169640D01*
X1285056Y-195640D01*
X1259056Y-195640D01*
X1259056Y-169640D01*
G37*
X2043196Y-1801937D02*
G54D10*
D03*
X-285471Y-1277617D02*
G54D10*
D03*
X-285471Y-1252217D02*
G54D10*
D03*
X-316427Y-1251026D02*
G54D10*
D03*
X-51507Y-2243213D02*
G54D10*
D03*
X-51507Y-2268612D02*
G54D10*
D03*
X-248987Y-64747D02*
G54D10*
D03*
X-309884Y-64747D02*
G54D10*
D03*
X-265069Y-181002D02*
G54D10*
D03*
X-265181Y-130022D02*
G54D10*
D03*
X-263481Y-279428D02*
G54D10*
D03*
X-263593Y-228448D02*
G54D10*
D03*
X-136758Y-1531384D02*
G54D21*
D03*
X-136758Y-1505983D02*
G54D21*
D03*
X-136758Y-1480583D02*
G54D21*
D03*
X390100Y-1140907D02*
G54D22*
D03*
X942550Y-1245682D02*
G54D22*
D03*
X110700Y-1620332D02*
G54D22*
D03*
X-263098Y-2541537D02*
G54D12*
D03*
X851242Y-1030766D02*
G54D15*
D03*
X832192Y-1031559D02*
G54D15*
D03*
X1607414Y-364446D02*
G54D15*
D03*
X1678851Y-387464D02*
G54D15*
D03*
X1709808Y-372383D02*
G54D15*
D03*
X1766958Y-408896D02*
G54D15*
D03*
X1787595Y-364446D02*
G54D15*
D03*
X1853873Y-374368D02*
G54D15*
D03*
X1967642Y-354174D02*
G54D15*
D03*
X1601064Y-1174864D02*
G54D15*
D03*
X1536770Y-1162164D02*
G54D15*
D03*
X1684408Y-1166133D02*
G54D15*
D03*
X1631226Y-1116920D02*
G54D15*
D03*
X1778070Y-1183596D02*
G54D15*
D03*
X1709808Y-1143114D02*
G54D15*
D03*
X1423505Y-1180307D02*
G54D15*
D03*
X1981512Y-1185069D02*
G54D15*
D03*
X-138742Y-1855234D02*
G54D21*
D03*
X-138742Y-1829833D02*
G54D21*
D03*
X-138742Y-1804433D02*
G54D21*
D03*
X1843021Y322942D02*
G54D28*
D03*
X1933508Y322148D02*
G54D28*
D03*
X1968360Y-1504207D02*
G54D10*
D03*
X1314310Y-1535957D02*
G54D10*
D03*
X1274622Y-1535957D02*
G54D10*
D03*
X1405280Y-1486775D02*
G54D15*
D03*
X1405280Y-1547100D02*
G54D15*
D03*
X1424329Y-1498681D02*
G54D15*
D03*
X1405279Y-1567737D02*
G54D15*
D03*
X1397342Y-214790D02*
G54D53*
D03*
X1400517Y-572772D02*
G54D53*
D03*
X1987495Y-465615D02*
G54D53*
D03*
X1925976Y-150496D02*
G54D53*
D03*
X675030Y-78264D02*
G54D53*
D03*
X1271929Y-581900D02*
G54D53*
D03*
X1264786Y-112000D02*
G54D53*
D03*
X1378292Y-1374062D02*
G54D53*
D03*
X1444173Y-984331D02*
G54D53*
D03*
X1984539Y-968218D02*
G54D53*
D03*
X1937886Y-1376443D02*
G54D53*
D03*
X-452Y-1101806D02*
G54D53*
D03*
X6692Y-2017397D02*
G54D53*
D03*
X-101258Y-111206D02*
G54D53*
D03*
X378960Y-72312D02*
G54D53*
D03*
X305894Y-1167648D02*
G54D10*
D03*
X280494Y-1167648D02*
G54D10*
D03*
X2033431Y-1938625D02*
G54D15*
D03*
X1977464Y-1611053D02*
G54D21*
D03*
X1977464Y-1611053D02*
G54D21*
D03*
X1977465Y-1636453D02*
G54D21*
D03*
X1977465Y-1636453D02*
G54D21*
D03*
X1977466Y-1661853D02*
G54D21*
D03*
X1971112Y-1395153D02*
G54D21*
D03*
X1971113Y-1420553D02*
G54D21*
D03*
X2009212Y-1445953D02*
G54D50*
D03*
X609714Y-977881D02*
G54D12*
D03*
X1933750Y-1853620D02*
G54D51*
D03*
X1962325Y-1596444D02*
G54D51*
D03*
X1949625Y-1523420D02*
G54D51*
D03*
X2005177Y-101839D02*
G54D12*
D03*
X1508289Y-2598977D02*
G54D21*
D03*
X1648384Y-2526746D02*
G54D10*
D03*
X1982719Y-1767209D02*
G54D50*
D03*
G36*
X1048679Y-1933716D02*
X1104679Y-1933716D01*
X1104679Y-1964716D01*
X1048679Y-1964716D01*
X1048679Y-1933716D01*
G37*
G36*
X1045504Y-1990866D02*
X1101504Y-1990866D01*
X1101504Y-2021866D01*
X1045504Y-2021866D01*
X1045504Y-1990866D01*
G37*
G36*
X1251879Y-1990866D02*
X1307879Y-1990866D01*
X1307879Y-2021866D01*
X1251879Y-2021866D01*
X1251879Y-1990866D01*
G37*
X1280550Y-1817428D02*
G54D10*
D03*
X1662685Y-2080917D02*
G54D12*
D03*
X1662684Y-2112667D02*
G54D12*
D03*
X1662685Y-2144417D02*
G54D12*
D03*
X1570835Y-2173847D02*
G54D10*
D03*
X1618635Y-2173847D02*
G54D10*
D03*
X1567660Y-2069072D02*
G54D10*
D03*
X1615460Y-2069072D02*
G54D10*
D03*
X1664268Y-2185412D02*
G54D10*
D03*
X1715249Y-2185299D02*
G54D10*
D03*
X1661094Y-2029836D02*
G54D10*
D03*
X1712074Y-2029724D02*
G54D10*
D03*
X60489Y-2593659D02*
G54D22*
D03*
X523642Y-2592468D02*
G54D22*
D03*
X-100679Y-2585702D02*
G54D10*
D03*
X-29183Y-2585760D02*
G54D10*
D03*
X71029Y-2440379D02*
G54D10*
D03*
X71029Y-2392579D02*
G54D10*
D03*
X6630Y-2215828D02*
G54D10*
D03*
X6629Y-2190429D02*
G54D10*
D03*
X219599Y-2432508D02*
G54D10*
D03*
X219599Y-2432508D02*
G54D10*
D03*
X291095Y-2432567D02*
G54D10*
D03*
X310086Y-2481720D02*
G54D10*
D03*
X310086Y-2481720D02*
G54D10*
D03*
X381582Y-2481780D02*
G54D10*
D03*
X317091Y-2364974D02*
G54D10*
D03*
X317090Y-2317173D02*
G54D10*
D03*
X344638Y-2260948D02*
G54D12*
D03*
X21787Y-2471839D02*
G54D10*
D03*
X-29194Y-2471951D02*
G54D10*
D03*
X-192709Y-2428096D02*
G54D10*
D03*
X-192651Y-2356600D02*
G54D10*
D03*
X-225165Y-2470094D02*
G54D10*
D03*
X-225223Y-2541590D02*
G54D10*
D03*
X-183890Y-2472475D02*
G54D10*
D03*
X-183948Y-2543971D02*
G54D10*
D03*
X-295769Y-1829636D02*
G54D10*
D03*
X-313253Y-1854672D02*
G54D10*
D03*
X-313253Y-1829273D02*
G54D10*
D03*
X-313252Y-1880071D02*
G54D10*
D03*
X-313253Y-1854672D02*
G54D10*
D03*
X1980412Y-1954224D02*
G54D21*
D03*
X2043118Y-2535249D02*
G54D21*
D03*
X2048278Y-1973274D02*
G54D21*
D03*
X2043196Y-1819400D02*
G54D10*
D03*
X1073286Y-1823139D02*
G54D10*
D03*
X1220130Y-1563582D02*
G54D10*
D03*
X58071Y-2513470D02*
G54D10*
D03*
X129566Y-2513528D02*
G54D10*
D03*
X-596Y-2516336D02*
G54D10*
D03*
X-72092Y-2516278D02*
G54D10*
D03*
X-180970Y-1531552D02*
G54D22*
D03*
X-179779Y-1469242D02*
G54D22*
D03*
X-182580Y-1801414D02*
G54D22*
D03*
X-181366Y-1874054D02*
G54D22*
D03*
X-275426Y-628264D02*
G54D22*
D03*
X-274235Y-565955D02*
G54D22*
D03*
X-273838Y-1119596D02*
G54D22*
D03*
X-272648Y-1057286D02*
G54D22*
D03*
X-134144Y352424D02*
G54D22*
D03*
X-74613Y351234D02*
G54D22*
D03*
G36*
X-214048Y374974D02*
X-168048Y374974D01*
X-168048Y328974D01*
X-214048Y328974D01*
X-214048Y374974D01*
G37*
X-242162Y312890D02*
G54D54*
D03*
M02*
