; Drill file
; Format: 2.4 (00.0000)
M48
INCH
T01C0.0157
T02C0.0197
T03C0.0236
T04C0.0283
T05C0.0315
T06C0.0354
T07C0.0394
T08C0.0433
T09C0.0472
T10C0.0512
T11C0.0551
T12C0.0591
T13C0.063
T14C0.0787
T15C0.0862
T16C0.1181
T17C0.122
T18C0.126
T19C0.1575
%
G05
G90
T01
X008780Y-044080
X049090Y-064690
X049590Y-067560
X051440Y-066640
X051440Y-061640
X048420Y-070930
X047720Y-071760
X048090Y-072250
X050590Y-072500
X050400Y-074280
X048470Y-077690
X048220Y-078750
X049340Y-082500
X048910Y-083110
X048880Y-084480
X048970Y-085820
X049900Y003350
X049900Y004350
X047900Y004350
X047900Y003350
X046400Y003350
X046400Y004350
X044400Y004350
X044400Y003350
X042900Y003350
X042900Y004350
X040900Y004350
X040900Y003350
X039400Y003350
X039400Y004350
X037400Y004350
X037400Y003350
X037400Y007350
X038400Y007350
X039400Y007350
X040900Y007350
X041900Y007350
X042900Y007350
X044400Y007350
X045400Y007350
X046400Y007350
X047900Y007350
X048900Y007350
X049900Y007350
T02
X-023090Y-073980
X-023090Y-072980
X-019590Y-050730
X-018590Y-050730
X005040Y-053980
X005040Y-059230
X005040Y-064480
X005040Y-069730
X005040Y-074980
X006540Y-085600
X003540Y-087230
X027660Y-066430
X027660Y-065620
X028410Y-063710
X027660Y-063240
X025160Y-060230
X025160Y-059210
X022910Y-058480
X021660Y-058460
X019540Y-056710
X018410Y-056730
X011660Y-052230
X011540Y-050960
X010290Y-049710
X010000Y-048730
X005160Y-047730
X005100Y-045320
X005850Y-045290
X001910Y-026980
X000910Y-026980
X-000090Y-024480
X-001340Y-024730
X005160Y-024230
X006070Y-021730
X010660Y-017980
X011040Y-017210
X010790Y-012600
X011540Y-011960
X020410Y-017230
X021290Y-017210
X022160Y-014730
X021790Y-013710
X027790Y-019460
X035620Y-019060
X038430Y-019960
X039650Y-019370
X041900Y-020810
X042720Y-019060
X045320Y-019450
X049740Y-019870
X049800Y-018650
X047040Y-026210
X047160Y-027480
X049910Y-027480
X049790Y-028710
X050040Y-040710
X050410Y-041730
X047790Y-043210
X050360Y-050400
X050350Y-051370
X042340Y-051310
X039650Y-049710
X038650Y-050620
X036560Y-048680
X035370Y-050960
X032840Y-050460
X028410Y-049990
X028380Y-051180
X027160Y-051600
X027160Y-050710
X027040Y-046710
X027160Y-045670
X052390Y-080030
X052390Y-081030
X024180Y005910
T03
X-001950Y-086610
X-001950Y-084610
X-001920Y-082570
X-001920Y-080570
X-001880Y-078980
X-001880Y-076980
X001120Y-076980
X002120Y-076980
X002120Y-078980
X001120Y-078980
X001080Y-080570
X002080Y-080570
X002080Y-082570
X001080Y-082570
X001050Y-084610
X002050Y-084610
X002050Y-086610
X001050Y-086610
X001120Y-072150
X002120Y-072150
X002120Y-070150
X001120Y-070150
X001090Y-068590
X002090Y-068590
X002090Y-066590
X001090Y-066590
X-001910Y-066590
X-001910Y-068590
X-001880Y-070150
X-001880Y-072150
X-001840Y-061810
X-001840Y-059810
X-001780Y-058400
X-001780Y-056400
X001220Y-056400
X002220Y-056400
X002220Y-058400
X001220Y-058400
X001160Y-059810
X002160Y-059810
X002160Y-061810
X001160Y-061810
X001220Y-051500
X002220Y-051500
X002220Y-049500
X001220Y-049500
X-001780Y-049500
X-001780Y-051500
X-009310Y-053130
X006780Y-047080
X008780Y-047080
X009780Y-045710
X010780Y-045710
X008780Y-043080
X006780Y-043080
X006780Y-044080
X014540Y-043040
X015660Y-044170
X019290Y-047420
X019660Y-048600
X019600Y-049530
X023480Y-048030
X022160Y-043100
X021910Y-053030
X024910Y-053090
X-002230Y-029510
X000290Y-018460
X000290Y-016090
X003790Y-015340
X005480Y-019520
X036580Y007490
X040160Y007380
X044900Y008000
X047180Y007350
X048460Y007970
T04
X-024800Y-088990
X-032080Y-062070
X-032230Y-053280
X-028240Y-043530
X-028240Y-035030
X-028240Y-026530
X-028240Y-018030
X-006740Y-018030
X-006740Y-026530
X-006740Y-035030
X-006740Y-043530
X-011260Y000430
X000700Y000520
T05
X019160Y-001160
X020160Y-001160
X021160Y-001160
X022160Y-001160
X023160Y-001160
X024160Y-001160
X025160Y-001160
X026160Y-001160
X027160Y-001160
X028160Y-001160
X029160Y-001160
X030160Y-001160
X031160Y-001160
X032160Y-001160
X033160Y-001160
X033160Y004840
X032160Y004840
X031160Y004840
X030160Y004840
X029160Y004840
X028160Y004840
X027160Y004840
X026160Y004840
X025160Y004840
X024160Y004840
X023160Y004840
X022160Y004840
X021160Y004840
X020160Y004840
X019160Y004840
X019200Y002830
X018200Y002830
X018200Y001830
X019200Y001830
X019200Y000830
X018200Y000830
X034640Y006420
T06
X-036530Y-104770
X-034900Y-104870
X-033360Y-104370
X-033360Y-105380
X-033360Y-106380
X-031630Y-106510
X-028810Y-106510
X-027690Y-103780
X-026800Y-102030
X-028810Y-102030
X-028680Y-100230
X-029310Y-099540
X-028680Y-098850
X-024870Y-098910
X-024870Y-100790
X-025380Y-103660
X-022560Y-103670
X-018640Y-103130
X-017950Y-102510
X-017260Y-103130
X-015450Y-102410
X-016200Y-100480
X-019020Y-100480
X-018900Y-097620
X-018900Y-096610
X-015180Y-095940
X-015180Y-097820
X-012530Y-097380
X-012530Y-096380
X-009740Y-091850
X-008740Y-091850
X-004150Y-091880
X-003150Y-091880
X000570Y-090870
X001570Y-090870
X001540Y-089430
X000540Y-089430
X-003780Y-075140
X-004480Y-074440
X-003390Y-073390
X-003400Y-071380
X-005370Y-073000
X-007620Y-073630
X-007620Y-071750
X-008210Y-069890
X-007620Y-068130
X-007730Y-066490
X-007620Y-065130
X-006370Y-064630
X-006370Y-062880
X-007620Y-063380
X-007120Y-061130
X-005510Y-061500
X-004820Y-060880
X-004120Y-061500
X-003370Y-062880
X-003370Y-064630
X-003380Y-065870
X-003370Y-067880
X-005730Y-066490
X-010620Y-065130
X-011610Y-065760
X-012310Y-065130
X-013010Y-065750
X-014620Y-065630
X-014610Y-067370
X-015120Y-068630
X-017130Y-068630
X-017610Y-067370
X-017620Y-065630
X-019000Y-065630
X-021000Y-065630
X-020970Y-068740
X-019980Y-068750
X-021000Y-070870
X-021000Y-072880
X-021100Y-074560
X-021100Y-075560
X-025950Y-075980
X-028950Y-075970
X-031070Y-076040
X-033190Y-073910
X-035220Y-070650
X-035220Y-069650
X-034380Y-068370
X-039310Y-076740
X-040000Y-076730
X-040000Y-077730
X-040000Y-078730
X-034370Y-081310
X-034360Y-083310
X-030370Y-084560
X-028870Y-084560
X-028860Y-086560
X-030360Y-086560
X-030950Y-088230
X-032580Y-089240
X-033290Y-089950
X-028950Y-089230
X-028950Y-088230
X-027400Y-090950
X-027400Y-091950
X-029690Y-093020
X-029690Y-094020
X-024340Y-094780
X-024340Y-096660
X-030500Y-103780
X-033350Y-103360
X-033350Y-102360
X-034900Y-102050
X-036530Y-101960
X-035250Y-100300
X-035250Y-097490
X-023050Y-083310
X-023050Y-081310
X-010620Y-073630
X-010620Y-071750
X-010210Y-069900
X-010620Y-068130
X-011620Y-068130
X-012310Y-067500
X-013010Y-068130
X-014620Y-063880
X-013010Y-063380
X-012310Y-062750
X-011620Y-063380
X-010620Y-063380
X-011370Y-060880
X-012300Y-059500
X-013000Y-058880
X-011610Y-058880
X-010620Y-058880
X-010620Y-057130
X-011620Y-057130
X-011620Y-055130
X-010620Y-055130
X-011740Y-053130
X-012750Y-053130
X-013630Y-055130
X-014620Y-055130
X-014620Y-056500
X-013630Y-057130
X-015520Y-058390
X-016500Y-058380
X-017130Y-060380
X-017620Y-061750
X-019000Y-060500
X-021000Y-060510
X-020120Y-058380
X-019140Y-058390
X-017620Y-056500
X-017620Y-055130
X-018120Y-053130
X-017110Y-053130
X-016620Y-050680
X-015620Y-050680
X-019990Y-051950
X-020700Y-052660
X-022390Y-049400
X-022390Y-048470
X-023390Y-048470
X-023390Y-049400
X-024770Y-048210
X-021020Y-048240
X-022160Y-041060
X-022160Y-039560
X-022160Y-038310
X-024910Y-038310
X-024910Y-039560
X-024910Y-041060
X-032240Y-043530
X-033120Y-047510
X-034120Y-047510
X-033610Y-049340
X-033610Y-052340
X-038900Y-054010
X-038900Y-055010
X-040120Y-053960
X-032080Y-058070
X-017620Y-063880
X-014620Y-061750
X-015120Y-060380
X-013370Y-060880
X-009120Y-061130
X-007620Y-058880
X-006370Y-059130
X-006370Y-057500
X-007620Y-057130
X-007620Y-055130
X-007370Y-053130
X-006370Y-053130
X-004220Y-055450
X-003520Y-054740
X-003370Y-057500
X-003370Y-059130
X-000530Y-047660
X001070Y-048120
X001920Y-045830
X004280Y-044840
X004280Y-042960
X003020Y-041600
X002650Y-040160
X003020Y-038930
X003120Y-037580
X002220Y-035400
X000840Y-035400
X000400Y-033660
X001780Y-032830
X001780Y-030950
X004530Y-030710
X005530Y-030710
X006530Y-030710
X010280Y-032460
X013280Y-030710
X013360Y-024770
X011360Y-024770
X011410Y-020870
X011050Y-019160
X011820Y-018390
X013530Y-018750
X015560Y-018590
X014810Y-016170
X015940Y-014670
X015940Y-013170
X015940Y-010920
X012400Y-012960
X011690Y-013670
X009910Y-012480
X011260Y-016170
X012560Y-016170
X013810Y-021670
X015810Y-021670
X017190Y-021670
X016930Y-023440
X015570Y-024860
X016930Y-025450
X018560Y-018590
X020910Y-015600
X020910Y-014600
X023470Y-019930
X024470Y-019930
X025380Y-022400
X026380Y-022400
X029780Y-018730
X029780Y-016720
X032970Y-016590
X034280Y-017720
X034280Y-019730
X035920Y-021490
X034770Y-022590
X032970Y-022590
X032970Y-025590
X034760Y-025590
X038010Y-025590
X039760Y-024590
X038020Y-022590
X037920Y-021490
X037390Y-019850
X036760Y-019150
X037390Y-018460
X037720Y-015490
X039970Y-016590
X041390Y-018460
X040760Y-019150
X041390Y-019850
X042770Y-021590
X044770Y-021590
X044390Y-019850
X043760Y-019150
X044390Y-018460
X046670Y-018990
X048680Y-018990
X045870Y-013840
X042870Y-013840
X039970Y-013590
X037520Y-012620
X035510Y-012630
X032970Y-013590
X034720Y-015480
X034690Y-008300
X034510Y-005080
X031500Y-005080
X029970Y-004990
X029970Y-003390
X026690Y-002800
X024830Y-003590
X024210Y-004280
X024830Y-004970
X026690Y-005800
X022690Y-005300
X019690Y-005300
X018690Y-004300
X015690Y-004300
X012340Y-002940
X010840Y-002320
X010840Y000680
X012710Y000720
X013330Y001410
X013330Y000030
X013370Y004510
X015370Y004510
X014840Y006450
X011840Y006450
X009370Y006770
X009370Y004890
X008590Y002950
X005590Y002950
X004210Y002780
X003580Y003470
X004210Y004160
X002590Y004450
X-000410Y004450
X-006630Y005640
X-006630Y007520
X-016440Y000830
X-018320Y000830
X-018440Y-004170
X-016560Y-004170
X-011260Y-003570
X-013410Y-012810
X-013410Y-014060
X-013410Y-015560
X-016160Y-015560
X-016160Y-014060
X-016160Y-012810
X-022160Y-012810
X-022160Y-014060
X-022160Y-015560
X-024910Y-015560
X-024910Y-014060
X-024910Y-012810
X-024910Y-021310
X-024910Y-022560
X-024910Y-024060
X-022160Y-024060
X-022160Y-022560
X-022160Y-021310
X-016160Y-021310
X-016160Y-022560
X-016160Y-024060
X-013410Y-024060
X-013410Y-022560
X-013410Y-021310
X-010740Y-018030
X-010740Y-026530
X-013410Y-029810
X-013410Y-031060
X-013410Y-032560
X-016160Y-032560
X-016160Y-031060
X-016160Y-029810
X-022160Y-029810
X-022160Y-031060
X-022160Y-032560
X-024910Y-032560
X-024910Y-031060
X-024910Y-029810
X-032240Y-026530
X-032240Y-035030
X-016160Y-038310
X-016160Y-039560
X-016160Y-041060
X-013410Y-041060
X-013410Y-039560
X-013410Y-038310
X-010740Y-035030
X-010740Y-043530
X-001530Y-040660
X000020Y-041590
X000640Y-040170
X000020Y-038930
X000120Y-037580
X001920Y-042830
X005780Y-040340
X005780Y-038460
X009750Y-036730
X013280Y-038210
X019060Y-037130
X020560Y-037130
X021810Y-037130
X021810Y-039880
X020560Y-039880
X019060Y-039880
X020180Y-043400
X020180Y-044150
X020330Y-045480
X020330Y-046350
X020450Y-047720
X021570Y-047240
X022820Y-047240
X024070Y-047240
X024070Y-044740
X021570Y-044740
X018810Y-045220
X017930Y-045220
X016680Y-044220
X016680Y-043470
X015830Y-045460
X011740Y-049960
X011120Y-049340
X014420Y-057650
X016300Y-057650
X015870Y-060220
X014990Y-060220
X012270Y-061800
X018410Y-061950
X019910Y-061950
X019910Y-059940
X020470Y-058600
X019850Y-057980
X021190Y-057340
X024070Y-057240
X023940Y-053840
X022690Y-053840
X021190Y-053840
X025600Y-051920
X025600Y-049540
X026910Y-049230
X026910Y-048350
X029470Y-050880
X031480Y-050870
X033760Y-051400
X034390Y-050710
X033760Y-050010
X033390Y-048280
X035390Y-048280
X036760Y-050010
X037390Y-050710
X036760Y-051400
X038190Y-053270
X040430Y-054380
X040630Y-057240
X042640Y-057240
X045180Y-056280
X043440Y-054380
X045190Y-053270
X043880Y-052140
X043870Y-050130
X042230Y-048370
X043390Y-047280
X045180Y-047280
X045190Y-044270
X043390Y-044270
X040140Y-044270
X038390Y-045270
X040140Y-047280
X040230Y-048370
X040760Y-050010
X041390Y-050710
X040760Y-051400
X038390Y-048280
X035390Y-045270
X033390Y-045270
X042310Y-039880
X043810Y-039880
X045060Y-039880
X045060Y-037130
X043810Y-037130
X042310Y-037130
X048910Y-041600
X048910Y-042600
X048370Y-051130
X048380Y-053140
X038180Y-056280
X035290Y-056020
X032280Y-056020
X035360Y-063860
X036360Y-063860
X038610Y-063860
X039610Y-063860
X041540Y-062640
X041550Y-061640
X045050Y-063970
X045040Y-065400
X045040Y-066780
X045040Y-069020
X045040Y-070770
X043930Y-072900
X042040Y-072900
X039110Y-074360
X038110Y-074360
X035860Y-074360
X034860Y-074360
X034790Y-072280
X036290Y-072280
X030210Y-074310
X028440Y-074540
X028440Y-075550
X028300Y-072430
X025370Y-073490
X023370Y-073490
X022750Y-076260
X024620Y-077260
X024620Y-079140
X028250Y-083200
X028250Y-084210
X025470Y-089020
X024470Y-089020
X024470Y-090450
X025470Y-090450
X034180Y-090290
X036060Y-090290
X037860Y-090750
X039870Y-090740
X043230Y-090840
X045120Y-090840
X048440Y-089300
X049440Y-089300
X049410Y-090290
X050880Y-090020
X050880Y-091010
X052440Y-090760
X052440Y-091760
X052440Y-089040
X052440Y-088040
X050880Y-089020
X047090Y-081350
X047410Y-079870
X049480Y-078860
X049480Y-077850
X052430Y-078100
X052430Y-079100
X052780Y-076340
X052780Y-075650
X046250Y-075510
X044410Y-075900
X044410Y-077280
X046250Y-077510
X044410Y-079520
X044410Y-081270
X039740Y-084620
X037730Y-084620
X035940Y-086170
X034060Y-086170
X034290Y-082770
X035790Y-082770
X025350Y-070980
X024810Y-069170
X022930Y-069170
X020490Y-069780
X019720Y-069780
X020460Y-070780
X020430Y-071780
X019690Y-071810
X020390Y-072780
X020360Y-073780
X019680Y-073830
X020330Y-074780
X014880Y-072930
X014880Y-071930
X014880Y-070930
X014880Y-069930
X014830Y-068950
X013630Y-069930
X013630Y-070930
X014590Y-076490
X020370Y-066270
X022520Y-065180
X023270Y-065180
X024080Y-065180
X026520Y-065300
X026580Y-063370
X028350Y-067980
X032700Y-065540
X047200Y-065620
X048660Y-065530
X048550Y-067020
X047200Y-068620
X048050Y-063980
X049830Y-063930
X018410Y-059940
X-003280Y-029480
X-003280Y-028600
X-001280Y-026040
X-000210Y-026040
X001780Y-024700
X004030Y-024700
X005160Y-022850
X005160Y-021850
X005150Y-020470
X004030Y-020950
X002780Y-020950
X001530Y-020950
X-000710Y-019730
X-000710Y-017350
X001660Y-014350
X002910Y-014350
X004410Y-014350
X005160Y-012540
X004410Y-010850
X006160Y-010350
X005820Y-006670
X006930Y-006670
X008820Y-006670
X012340Y-005950
X003930Y-006670
X002320Y-007200
X000900Y-005790
X000700Y-003480
X001530Y-010950
X-003840Y-024100
X-003840Y-024980
X-023060Y-004290
X-024940Y-004290
X-025820Y-000040
X-023940Y-000040
X-037530Y003170
X-039730Y003170
X-039960Y005450
X-037960Y005460
X-038340Y000330
X-039840Y000330
X-039830Y-001680
X-038330Y-001680
X-037470Y-007260
X-039860Y-007260
X-038100Y-009830
X-038100Y-011840
X-038040Y-013700
X-038040Y-015710
X-032240Y-018030
X020430Y007330
X022310Y007330
X025860Y007390
X026860Y007390
X027860Y007390
X028860Y007390
X029860Y007390
X030860Y007390
X031860Y007390
X032860Y007390
X033860Y007390
X034860Y007390
X036040Y005210
X036040Y004210
X038190Y-000050
X040190Y-000050
X041690Y-000050
X043690Y-000050
X045440Y-000050
X047190Y-000050
X048940Y-000050
X050790Y-000050
X050790Y-003050
X048940Y-003050
X047190Y-003050
X045440Y-003050
X043690Y-003050
X041690Y-003050
X040190Y-003050
X038190Y-003050
X039770Y-021590
X042760Y-024590
X044760Y-024590
X048290Y-026850
X048290Y-027850
X037230Y-104190
X035290Y-106870
X028660Y-106550
X027160Y-106520
X025660Y-106550
X027820Y-103620
X021630Y-106520
X-002650Y-107510
X-012640Y-102420
X047660Y-106440
X049160Y-106440
T07
X-038020Y-104770
X-038020Y-102140
X-038020Y-100140
X-038020Y-098140
X-038020Y-096140
X-038020Y-094140
X-038510Y-087110
X-039330Y-086170
X-034170Y-087180
X-032450Y-087180
X-033430Y-085170
X-032820Y-084040
X-027400Y-084130
X-026180Y-085170
X-024470Y-084000
X-025200Y-087180
X-027170Y-087180
X-022980Y-087670
X-020730Y-086930
X-018350Y-087670
X-018350Y-092420
X-014090Y-093720
X-009560Y-094130
X-006980Y-096170
X-004780Y-095660
X-002350Y-096170
X-002350Y-100920
X-007100Y-100920
X-009560Y-098130
X-021610Y-097730
X-021610Y-098980
X-021610Y-096480
X-023100Y-092420
X-024800Y-092990
X-020130Y-083030
X-024470Y-080000
X-033120Y-077750
X-033120Y-076750
X-033120Y-075750
X-028410Y-067350
X-027630Y-065030
X-025380Y-064290
X-023150Y-063830
X-022940Y-060900
X-025260Y-059540
X-025550Y-055530
X-022690Y-056080
X-022650Y-052390
X-025550Y-050780
X-027930Y-050020
X-027680Y-048090
X-030180Y-050780
X-032230Y-049280
X-030990Y-044540
X-032360Y-042060
X-033100Y-039810
X-032360Y-037430
X-032360Y-033560
X-033100Y-031310
X-032360Y-028930
X-034900Y-026750
X-032360Y-025060
X-033100Y-022810
X-032360Y-020430
X-032360Y-016560
X-033100Y-014310
X-032360Y-011930
X-031650Y-009090
X-031480Y-006010
X-033140Y-003070
X-029540Y-000640
X-028540Y-000640
X-029540Y002360
X-028770Y005610
X-026770Y005610
X-024770Y005610
X-023900Y007230
X-022770Y005610
X-020610Y006390
X-017540Y006360
X-016540Y006360
X-017540Y003860
X-014830Y-000390
X-014830Y-001640
X-014830Y-002890
X-014030Y-005420
X-012740Y-007560
X-013300Y-009170
X-011270Y-011460
X-011270Y-016210
X-011270Y-019960
X-011270Y-024710
X-011270Y-028460
X-011270Y-033210
X-011270Y-036960
X-011270Y-041710
X-013300Y-044670
X-017050Y-044670
X-018440Y-041410
X-018050Y-039670
X-018050Y-037670
X-020550Y-037670
X-020550Y-039670
X-020450Y-041410
X-021300Y-044670
X-020880Y-047030
X-024800Y-044670
X-027610Y-042180
X-027610Y-037430
X-027610Y-033680
X-027610Y-028930
X-027610Y-025180
X-028600Y-024810
X-027610Y-020430
X-027610Y-016680
X-027610Y-011930
X-024800Y-009170
X-021300Y-009170
X-020550Y-012170
X-020550Y-014170
X-020450Y-015910
X-018440Y-015910
X-018050Y-014170
X-018050Y-012170
X-017050Y-009170
X-021330Y-003140
X-021330Y-001890
X-021330Y-000640
X-025740Y008010
X-024900Y008980
X-026900Y008980
X-028900Y008980
X-022900Y008980
X-008370Y000510
X-009110Y-001860
X-008370Y-004110
X-003620Y-004240
X-002870Y-001610
X-003620Y000510
X002850Y-001770
X003600Y-004020
X003600Y000610
X008350Y000610
X008350Y-004140
X010140Y-010930
X009820Y-013730
X006820Y-013730
X006820Y-016730
X006820Y-018730
X006820Y-020730
X009820Y-020730
X009820Y-018730
X009820Y-016730
X-000120Y-007240
X-001090Y-007790
X-002150Y-006640
X-004200Y-011450
X-006520Y-011580
X-005780Y-013830
X-006520Y-016210
X-006520Y-020080
X-005780Y-022330
X-006520Y-024710
X-003650Y-026750
X-006520Y-028580
X-005780Y-030830
X-006520Y-033210
X-006520Y-037080
X-005780Y-039330
X-006520Y-041710
X-003660Y-043210
X000140Y-044180
X003710Y-048800
X006070Y-049030
X008240Y-048270
X007780Y-050910
X003710Y-052800
X003770Y-054050
X000920Y-053020
X-001050Y-053010
X-000070Y-055020
X003770Y-058050
X003820Y-059350
X005690Y-058100
X003820Y-063350
X003820Y-064640
X000760Y-063500
X-001200Y-063500
X-000220Y-065510
X003820Y-068640
X003800Y-070000
X003800Y-074000
X003800Y-075330
X000820Y-073830
X-001140Y-073830
X-000160Y-075840
X-003660Y-078880
X-003410Y-082830
X-005380Y-082830
X-004400Y-084840
X003490Y-086300
X005310Y-086250
X005310Y-082250
X003490Y-082300
X003800Y-079330
X-005410Y-070870
X-004430Y-068860
X-006390Y-068860
X-025100Y-067440
X-030010Y-064290
X-033050Y-064000
X-033050Y-063000
X-033050Y-065000
X-030010Y-059540
X-030300Y-055530
X-033210Y-057080
X-038180Y-057080
X-020450Y-032910
X-020550Y-031170
X-020550Y-029170
X-018050Y-029170
X-018050Y-031170
X-018440Y-032910
X-018440Y-024410
X-018050Y-022670
X-018050Y-020670
X-020550Y-020670
X-020550Y-022670
X-020450Y-024410
X005030Y-032960
X005030Y-034710
X005030Y-036460
X006780Y-035710
X006780Y-033710
X009200Y-039420
X007700Y-041050
X008860Y-041870
X015550Y-038890
X014790Y-036390
X014790Y-036340
X015790Y-035340
X014790Y-034340
X016790Y-034340
X016790Y-036340
X023560Y-037130
X018460Y-043510
X018340Y-046870
X017950Y-049370
X015570Y-048600
X014340Y-046870
X013320Y-049370
X013200Y-054120
X017950Y-054120
X021780Y-059630
X021780Y-060630
X023280Y-060630
X023280Y-059630
X023280Y-062130
X026600Y-058810
X036470Y-058980
X040500Y-059010
X043940Y-057390
X046870Y-058500
X048630Y-058900
X049940Y-059640
X049940Y-060640
X049940Y-061640
X049940Y-062640
X050190Y-066140
X050190Y-067140
X050190Y-068140
X050190Y-069140
X050190Y-070140
X049960Y-071700
X048960Y-071700
X048840Y-073070
X049840Y-073070
X049500Y-074570
X049500Y-075700
X052760Y-074650
X051180Y-079580
X050310Y-081650
X050520Y-084010
X049520Y-084010
X049490Y-085210
X050490Y-085210
X051970Y-086910
X052980Y-082400
X037800Y-086640
X037800Y-087890
X037800Y-089140
X031680Y-080800
X032670Y-078800
X030700Y-078800
X032590Y-070180
X033570Y-068170
X031610Y-068170
X047270Y-056560
X047330Y-048370
X049330Y-048370
X049330Y-046370
X047330Y-046370
X050470Y-042830
X049290Y-036390
X048290Y-035390
X047290Y-034390
X049290Y-034390
X048800Y-031890
X047290Y-036390
X040310Y-037130
X043690Y-026070
X047260Y-023460
X048260Y-022460
X047260Y-021460
X049260Y-021460
X049260Y-023460
X050590Y-023040
X048160Y-010630
X051000Y-008670
X050990Y-007240
X051030Y-006020
X050960Y-004580
X049490Y-004550
X049970Y001600
X048970Y001600
X047970Y001600
X046470Y001600
X045470Y001600
X044470Y001600
X042970Y001600
X041970Y001600
X040970Y001600
X039470Y001600
X038470Y001600
X037470Y001600
X036600Y008980
X039600Y008980
X041600Y008980
X043600Y008980
X045600Y008980
X052100Y006790
X051770Y003670
X031630Y-003430
X030770Y-009140
X027880Y-009100
X026770Y-009010
X025020Y-009010
X022130Y-009120
X027350Y-013170
X028760Y-021460
X029760Y-022460
X030760Y-021460
X030760Y-023460
X028760Y-023460
X027480Y-027260
X022410Y-027620
X036470Y-026040
X029190Y-043460
X028890Y-046400
X029890Y-047400
X030890Y-046400
X030890Y-048400
X028890Y-048400
X025960Y-045130
X012240Y-059770
X012270Y-060800
X029780Y-104710
X031720Y-107030
X033770Y-104710
X052770Y-104520
X020600Y003610
X-040110Y-003070
T08
X-013150Y-078530
X-012150Y-078530
X-011150Y-078540
X-011160Y-076000
X-012160Y-076000
X-013160Y-076000
X-015570Y-073400
X-017060Y-073400
X-016620Y-070880
X-015120Y-070880
X031200Y-060720
X029760Y-055400
X048260Y-055400
X046960Y-042080
X048490Y-014460
X029910Y-014460
X000610Y-012200
T09
X-032820Y-080040
X-032010Y-080040
X-031050Y-080040
X-028410Y-080040
X-027430Y-080040
X-026820Y-080040
X-027270Y-071540
X-026070Y-071540
X-028510Y-071540
X-031070Y-071540
X-032360Y-071540
X-033570Y-071540
X-026360Y-045490
X-002110Y-021240
X-002340Y-017850
X-002340Y-014600
X021390Y-021240
X022420Y-011900
X023520Y-009140
X031280Y-011360
X037140Y-010490
X042890Y-010490
X046960Y-009140
X031890Y-026990
X037640Y-043490
X048290Y-047400
X027260Y-052620
X026140Y-053580
X026160Y-056850
X030140Y-059240
X011890Y-064740
X009900Y-063060
X009770Y-059310
X009900Y-067310
X009900Y-070930
X014730Y-081450
X015990Y-081450
X016510Y-083700
X014600Y-083700
X017070Y-087700
X018730Y-087700
X020240Y-087700
X020870Y-083700
X022730Y-083700
X022350Y-081450
X020980Y-081450
X-007150Y-083140
X-031900Y002900
X-033900Y002400
X-035270Y006780
T10
X-022760Y-045300
X-007150Y-047140
X007780Y-026370
X009910Y-026370
X019690Y-031760
X020480Y-031760
X022050Y-031760
X022840Y-031760
X041150Y-031960
X041940Y-031960
X043510Y-031960
X044300Y-031960
X-016640Y-007750
X-022500Y-008140
T11
X014540Y-041540
X017170Y-032160
X027920Y-032160
X035920Y-037660
X048420Y-039160
X046670Y-030290
T12
X018170Y-001150
X018170Y004850
T13
X018760Y-086550
X018730Y-084770
X018730Y-083770
X018730Y-081520
X-034260Y-002070
X-032010Y001180
X-037200Y007610
T14
X021190Y-052020
X021190Y-049020
X024190Y-049020
X024190Y-052020
X004410Y-019170
X001410Y-019170
X001410Y-016170
X004410Y-016170
X-035180Y009150
X-037200Y008650
T15
X-015980Y-089060
X-015230Y-089060
X-014600Y-089060
X-013980Y-089060
X-013230Y-089060
X-012480Y-089060
X-011730Y-089060
X-010980Y-089060
X-010230Y-089060
X-009480Y-089060
X-009480Y-088310
X-009480Y-087430
X-009480Y-086560
X-009480Y-085810
X-009480Y-085060
X-009480Y-084310
X-009480Y-083560
X-009480Y-082810
X-009480Y-082060
X-009480Y-081310
X-009480Y-080560
X-010230Y-080560
X-010980Y-080560
X-011730Y-080560
X-012480Y-080560
X-013230Y-080560
X-013980Y-080560
X-014600Y-080560
X-015230Y-080560
X-015980Y-080560
X-015980Y-081310
X-015980Y-082060
X-015980Y-082810
X-015980Y-083560
X-015980Y-084310
X-015980Y-085060
X-015980Y-085810
X-015980Y-086560
X-015980Y-087430
X-015980Y-088180
T16
X-012470Y-099940
X000890Y-104990
X000860Y-093650
X-007050Y-077250
X-017120Y-077260
X051200Y-093560
X051200Y-104990
T17
X018850Y-089750
X018730Y-079750
X026070Y-054740
X-002300Y-015930
T18
X-039140Y-106960
X-025280Y-106820
X-007050Y-106770
X011110Y-082900
X027640Y-079710
X029640Y-088620
X049110Y-098960
X052630Y-106990
X050080Y-058430
X050110Y-044400
X050080Y-025490
X050110Y-011460
X051970Y009040
X028070Y-011430
X020820Y-009310
X028070Y-025560
X020440Y-027930
X022940Y-035180
X028070Y-044370
X028070Y-058490
X017020Y-065810
X009450Y-053750
X011110Y-047400
X-000810Y-027930
X-001310Y-009430
X-014620Y-006830
X-012140Y003410
X-030660Y009120
X-032940Y009170
X-039530Y009220
X-029620Y-008730
X-030060Y-045420
X-026390Y-047400
X-038480Y-047710
X-038520Y-050160
X-034740Y-062550
X-034790Y-065010
X-034850Y-075630
X-034800Y-078490
X-026390Y-082770
X-023300Y-068500
X-012300Y-049630
T19
X003850Y-099020
X021850Y-099020
X033290Y-037660
X030540Y-032160
M30
