; Drill file
; Format: 2.4 (00.0000)
M48
INCH
T01C0.0157
T02C0.0197
T03C0.0236
T04C0.0283
T05C0.0315
T06C0.0354
T07C0.0394
T08C0.0433
T09C0.0472
T10C0.0512
T11C0.0551
T12C0.0591
T13C0.063
T14C0.0787
T15C0.0862
T16C0.1181
T17C0.1378
T18C0.1575
%
G05
G90
T01
X-009170Y044410
X031140Y023810
X031640Y020930
X033490Y021860
X033490Y026860
X030470Y017560
X029770Y016730
X030140Y016240
X032640Y015990
X032440Y014210
X030520Y010810
X030270Y009740
X031390Y005990
X030960Y005390
X030920Y004010
X031020Y002670
X031940Y091840
X031940Y092840
X029940Y092840
X029940Y091840
X028440Y091840
X028440Y092840
X026440Y092840
X026440Y091840
X024940Y091840
X024940Y092840
X022940Y092840
X022940Y091840
X021440Y091840
X021440Y092840
X019440Y092840
X019440Y091840
X019440Y095840
X020440Y095840
X021440Y095840
X022940Y095840
X023940Y095840
X024940Y095840
X026440Y095840
X027440Y095840
X028440Y095840
X029940Y095840
X030940Y095840
X031940Y095840
T02
X-040790Y-005670
X-040170Y-006300
X-035170Y-005980
X-034170Y-006050
X-026670Y-013920
X-020790Y-004670
X-013670Y001520
X-011420Y002890
X-012790Y012520
X-012920Y013520
X-012920Y018770
X-012790Y019770
X-012790Y023020
X-012920Y024020
X-012390Y028470
X-012920Y029270
X-013040Y033520
X-012920Y034520
X-012790Y040770
X-012850Y043170
X-012100Y043200
X-007950Y039770
X-007660Y038780
X-006410Y037530
X-005480Y039140
X009210Y037780
X009210Y036890
X010430Y037320
X010460Y038500
X009090Y041780
X009210Y042830
X014890Y038030
X017420Y037530
X018610Y039810
X020700Y037870
X021700Y038780
X024390Y037190
X032400Y037130
X032410Y038090
X029840Y045280
X032460Y046770
X032090Y047780
X031840Y059780
X031960Y061020
X029210Y061020
X029270Y062340
X031790Y068620
X031850Y069840
X027370Y069050
X024760Y069440
X023950Y067690
X021700Y069120
X020480Y068530
X017670Y069440
X009840Y069030
X005590Y067410
X004460Y067390
X-006910Y071280
X-007290Y070520
X-007170Y075890
X-006410Y076530
X-008040Y082020
X-004040Y087270
X-005790Y088270
X-014290Y090770
X-019790Y088270
X-020790Y082770
X-026290Y082770
X-031040Y087020
X-031790Y077770
X-031790Y068770
X-031290Y061270
X-031790Y051770
X-042790Y054270
X-043290Y062270
X-043290Y071270
X-040290Y085270
X-019290Y063770
X-018040Y064020
X-017040Y061520
X-016040Y061520
X-012790Y064270
X-011890Y066770
X004710Y084270
X005710Y083270
X007770Y084710
X008270Y085710
X006230Y094400
X005730Y097150
X008230Y097150
X034660Y084700
X029960Y027880
X010460Y024780
X009710Y025250
X009710Y022880
X009710Y022060
X006780Y025840
X-023670Y014270
X-040540Y014520
X-040540Y016020
X-040540Y018020
X-043290Y030890
X-045170Y030830
X-046670Y030830
X-049790Y034080
X-041790Y032950
X-037540Y037770
X-036540Y037770
X-042790Y045770
X-014420Y-012170
X-014420Y-015550
X034440Y007460
X034440Y008460
T03
X-019910Y001890
X-019910Y003890
X-019880Y005920
X-019880Y007920
X-019830Y009510
X-019830Y011510
X-016830Y011510
X-015830Y011510
X-015830Y009510
X-016830Y009510
X-016880Y007920
X-015880Y007920
X-015880Y005920
X-016880Y005920
X-016910Y003890
X-015910Y003890
X-015910Y001890
X-016910Y001890
X-016830Y016340
X-015830Y016340
X-015830Y018340
X-016830Y018340
X-016860Y019900
X-015860Y019900
X-015860Y021900
X-016860Y021900
X-019860Y021900
X-019860Y019900
X-019830Y018340
X-019830Y016340
X-019800Y026680
X-019800Y028680
X-019730Y030090
X-019730Y032090
X-016730Y032090
X-015730Y032090
X-015730Y030090
X-016730Y030090
X-016800Y028680
X-015800Y028680
X-015800Y026680
X-016800Y026680
X-016730Y037000
X-015730Y037000
X-015730Y039000
X-016730Y039000
X-019730Y039000
X-019730Y037000
X-027270Y035370
X-011170Y041410
X-009170Y041410
X-008170Y042790
X-007170Y042790
X-006170Y042790
X-009170Y045410
X-011170Y045410
X-011170Y044410
X001710Y039890
X001710Y038950
X005520Y040470
X004210Y044890
X-020190Y058980
X-020190Y060980
X-020120Y064210
X018630Y095980
X022210Y095870
X026940Y096500
X029230Y095840
X030510Y096470
T04
X-042750Y-000500
X-050030Y026430
X-050180Y035210
X-046200Y044960
X-046200Y053460
X-046200Y061960
X-046200Y070460
X-024700Y070460
X-024700Y061960
X-024700Y053460
X-024700Y044960
X-029220Y088920
X-017250Y089020
T05
X003710Y035970
X003710Y038970
X006710Y038970
X006710Y035910
X-012910Y069280
X-013910Y072780
X-017160Y072780
X-017160Y069280
X001210Y087340
X002210Y087340
X003210Y087340
X004210Y087340
X005210Y087340
X006210Y087340
X007210Y087340
X008210Y087340
X009210Y087340
X010210Y087340
X011210Y087340
X012210Y087340
X013210Y087340
X014210Y087340
X015210Y087340
X015210Y093340
X014210Y093340
X013210Y093340
X012210Y093340
X011210Y093340
X010210Y093340
X009210Y093340
X008210Y093340
X007210Y093340
X006210Y093340
X005210Y093340
X004210Y093340
X003210Y093340
X002210Y093340
X001210Y093340
X001250Y091330
X000250Y091330
X000250Y090330
X001250Y090330
X001250Y089330
X000250Y089330
X016680Y094920
T06
X-054480Y-016280
X-052860Y-016370
X-051310Y-015880
X-051310Y-016880
X-051310Y-017890
X-049580Y-018010
X-046760Y-018020
X-045640Y-015280
X-043330Y-015170
X-040510Y-015170
X-042820Y-012290
X-042820Y-010410
X-042290Y-008170
X-042290Y-006280
X-047600Y-005950
X-047600Y-004950
X-046900Y-000730
X-046900Y000270
X-046810Y001930
X-048310Y001930
X-048900Y000270
X-050530Y-000750
X-051240Y-001460
X-048320Y003940
X-046820Y003940
X-052310Y005180
X-052320Y007190
X-049520Y012460
X-046900Y012520
X-043900Y012520
X-039050Y012930
X-039050Y013940
X-038950Y015620
X-038950Y017620
X-038930Y019750
X-037930Y019740
X-035570Y021130
X-035080Y019860
X-033070Y019870
X-032560Y021120
X-032570Y022860
X-030960Y022740
X-030270Y023370
X-029560Y022740
X-028570Y023370
X-028570Y025120
X-029570Y025120
X-030270Y025740
X-030960Y025110
X-032570Y024610
X-032570Y026740
X-033070Y028120
X-031330Y027610
X-030260Y028990
X-030950Y029620
X-029560Y029620
X-028570Y029620
X-028570Y031370
X-029570Y031370
X-029570Y033370
X-028570Y033370
X-029700Y035370
X-030700Y035370
X-031580Y033360
X-032570Y033370
X-032570Y031990
X-031580Y031360
X-033470Y030100
X-034450Y030120
X-035080Y028110
X-035570Y026740
X-036950Y027990
X-038960Y027990
X-038070Y030120
X-037090Y030100
X-035570Y031990
X-035570Y033370
X-036070Y035370
X-036630Y035380
X-035070Y035360
X-034570Y037810
X-033570Y037810
X-037940Y036540
X-038650Y035830
X-040350Y039100
X-040350Y040020
X-041350Y040020
X-041350Y039100
X-042720Y040280
X-038970Y040250
X-040110Y047430
X-040110Y048930
X-040110Y050180
X-042860Y050180
X-042860Y048930
X-042860Y047430
X-050200Y044960
X-051070Y040980
X-052070Y040980
X-051560Y039160
X-051560Y036150
X-056850Y034480
X-056850Y033480
X-058070Y034530
X-050030Y030430
X-040980Y025960
X-040980Y024960
X-038960Y022860
X-036950Y022870
X-035570Y022870
X-035570Y024620
X-030960Y020360
X-030270Y020990
X-029570Y020360
X-028570Y020370
X-028160Y018600
X-028570Y016740
X-028570Y014870
X-025570Y014860
X-025570Y016740
X-026160Y018600
X-025570Y020360
X-025690Y022000
X-025570Y023360
X-024330Y023870
X-024320Y025620
X-025570Y025120
X-025070Y027370
X-023460Y026990
X-022770Y027610
X-022070Y026990
X-021320Y025610
X-021320Y023870
X-021330Y022620
X-021330Y020610
X-023680Y022010
X-021350Y017110
X-021340Y015100
X-022440Y014060
X-021730Y013350
X-023320Y015490
X-027080Y027360
X-029320Y027620
X-025570Y029620
X-024320Y029370
X-024320Y030990
X-025570Y031370
X-025570Y033370
X-025330Y035370
X-024320Y035370
X-022180Y033040
X-021470Y033750
X-021320Y030990
X-021320Y029360
X-018480Y040840
X-016880Y040380
X-016030Y042660
X-013670Y043660
X-013670Y045540
X-014930Y046900
X-015300Y048330
X-014940Y049560
X-014830Y050910
X-015740Y053100
X-017120Y053100
X-017830Y050910
X-017940Y049560
X-017310Y048320
X-017940Y046900
X-019480Y047840
X-021790Y047290
X-021790Y046290
X-025550Y048430
X-028700Y044960
X-029980Y041780
X-030900Y041780
X-031360Y047430
X-031360Y048930
X-031360Y050180
X-034110Y050180
X-034110Y048930
X-034110Y047430
X-028700Y053460
X-031360Y055930
X-031360Y057430
X-031360Y058680
X-034110Y058680
X-034110Y057430
X-034110Y055930
X-040110Y055930
X-040110Y057430
X-040110Y058680
X-042860Y058680
X-042860Y057430
X-042860Y055930
X-050200Y053460
X-050200Y061960
X-042860Y064430
X-042860Y065930
X-042860Y067180
X-040110Y067180
X-040110Y065930
X-040110Y064430
X-034110Y064430
X-034110Y065930
X-034110Y067180
X-031360Y067180
X-031360Y065930
X-031360Y064430
X-028700Y061960
X-021790Y063520
X-021790Y064390
X-019230Y062450
X-018170Y062450
X-016170Y063790
X-013920Y063790
X-012790Y065640
X-012790Y066640
X-012800Y068020
X-013920Y067540
X-015170Y067540
X-016420Y067540
X-018670Y068770
X-018670Y071140
X-016290Y074140
X-015040Y074140
X-013540Y074140
X-012790Y075950
X-013540Y077640
X-011790Y078140
X-011040Y077520
X-008040Y076020
X-006270Y074830
X-005560Y075540
X-005400Y072330
X-006700Y072330
X-006130Y070100
X-006900Y069330
X-006550Y067620
X-008010Y065770
X-008010Y064770
X-006590Y063720
X-004590Y063720
X-002380Y063630
X-001020Y063040
X-001030Y065050
X-000770Y066830
X-002150Y066830
X-004150Y066830
X-004420Y069740
X-002390Y069900
X-003150Y072330
X-002020Y073830
X-002020Y075330
X-002020Y077580
X-002260Y083250
X-003140Y083250
X-002260Y084190
X-001390Y083250
X000740Y084190
X001740Y083190
X004740Y083190
X006250Y084210
X006880Y084900
X006880Y083520
X008740Y082690
X008740Y085690
X011320Y084670
X012320Y084670
X013320Y084670
X014320Y084670
X015320Y084670
X016320Y084670
X017320Y084670
X020240Y085440
X022240Y085440
X023740Y085440
X025740Y085440
X027490Y085440
X029240Y085440
X030990Y085440
X032840Y085440
X032840Y088440
X030990Y088440
X029240Y088440
X027490Y088440
X025740Y088440
X023740Y088440
X022240Y088440
X020240Y088440
X018080Y092700
X018080Y093700
X016000Y095770
X013000Y095770
X011250Y095900
X009370Y095900
X004360Y095820
X002480Y095820
X-003110Y094950
X-002580Y093010
X-004590Y093000
X-006110Y094950
X-008580Y095260
X-008580Y093380
X-009360Y091450
X-012360Y091450
X-013740Y091270
X-014370Y091960
X-013750Y092650
X-015360Y092940
X-018360Y092950
X-024580Y094130
X-024580Y096010
X-031520Y091010
X-033770Y089700
X-034390Y089320
X-036270Y089320
X-036400Y084320
X-034640Y083700
X-034520Y084320
X-036640Y082070
X-041020Y084200
X-041390Y083570
X-042900Y084200
X-043770Y082320
X-043770Y088450
X-042270Y089070
X-041890Y088450
X-045020Y089570
X-055480Y091670
X-057680Y091670
X-057920Y093950
X-055910Y093950
X-056290Y088820
X-057790Y088820
X-057790Y086810
X-056290Y086810
X-055420Y081240
X-057820Y081240
X-056060Y078670
X-056050Y076660
X-055990Y074790
X-055990Y072780
X-050200Y070460
X-042860Y072930
X-042860Y074430
X-042860Y075680
X-040110Y075680
X-040110Y074430
X-040110Y072930
X-034110Y072930
X-034110Y074430
X-034110Y075680
X-031360Y075680
X-031360Y074430
X-031360Y072930
X-028700Y070460
X-025290Y080200
X-029220Y084920
X-017250Y085020
X-017050Y082710
X-015630Y081290
X-014020Y081820
X-012140Y081820
X-011020Y081820
X-009140Y081820
X-005610Y082550
X-005610Y085550
X-007110Y086170
X-007110Y089180
X-005250Y089210
X-004620Y089900
X-004620Y088520
X-016420Y077540
X-021230Y059890
X-021230Y059020
X-016170Y057540
X-016170Y055660
X-013420Y057790
X-012420Y057790
X-011420Y057790
X-008550Y056340
X-007670Y054290
X-008200Y051770
X-004670Y050290
X-004670Y053290
X001110Y051360
X002610Y051360
X003860Y051360
X003860Y048610
X002610Y048610
X001110Y048610
X001590Y044670
X000900Y043000
X000900Y042000
X000900Y041000
X002500Y040770
X003620Y041260
X004870Y041260
X006120Y041260
X006120Y043760
X003620Y043760
X-000420Y044660
X-000640Y043220
X-001280Y041670
X-001020Y040350
X-002400Y039160
X-004280Y039160
X-006220Y038530
X-006830Y039150
X-004780Y036820
X-003780Y036820
X-001020Y037340
X-003290Y041670
X-003640Y043220
X-004540Y044140
X-004540Y045140
X-008210Y046310
X-012170Y048160
X-012170Y050040
X-016030Y045670
X-006540Y059390
X-005540Y059390
X000610Y069900
X005520Y068560
X006520Y068560
X007430Y066100
X008430Y066100
X011830Y069760
X011820Y071770
X015010Y071900
X016320Y070770
X016330Y068760
X017970Y067000
X016810Y065910
X015020Y065910
X015010Y062900
X016810Y062900
X020060Y062900
X021810Y063900
X020060Y065910
X019970Y067000
X019440Y068650
X018810Y069340
X019440Y070030
X019770Y073010
X022010Y071900
X023440Y070030
X022810Y069340
X023440Y068650
X024810Y066910
X026810Y066910
X026440Y068650
X025810Y069340
X026440Y070030
X028720Y069500
X030730Y069510
X027920Y074650
X024910Y074660
X022020Y074910
X019570Y075870
X017560Y075870
X015020Y074910
X016760Y073010
X016740Y080190
X008650Y073940
X007650Y073940
X006650Y073940
X005650Y073940
X004650Y073940
X021810Y066910
X024810Y063900
X026810Y063900
X030330Y061640
X030330Y060640
X027110Y051360
X025860Y051360
X024360Y051360
X024360Y048610
X025860Y048610
X027110Y048610
X030960Y046890
X030960Y045890
X027230Y044220
X025440Y044220
X025430Y041220
X024280Y040120
X022280Y040120
X022180Y041220
X020430Y040220
X018810Y038480
X019440Y037790
X018810Y037090
X020230Y035220
X022480Y034120
X022680Y031250
X024690Y031260
X027230Y032220
X025480Y034120
X027230Y035220
X025920Y036350
X025920Y038360
X023440Y037790
X022810Y037090
X022810Y038480
X027230Y041220
X030420Y037360
X030420Y035350
X020230Y032220
X017330Y032470
X014330Y032470
X014560Y033890
X014560Y034770
X015810Y037090
X016440Y037790
X015810Y038480
X015430Y040220
X017430Y040220
X017440Y043220
X015440Y043220
X014350Y043840
X020440Y043220
X022190Y044220
X013530Y037620
X011520Y037620
X008960Y039270
X008960Y040140
X007900Y038950
X007900Y036580
X005990Y034660
X004740Y034660
X003240Y034660
X003240Y031160
X003280Y029610
X004980Y029720
X004920Y028280
X003280Y027600
X003410Y026130
X004410Y026130
X005910Y025820
X005910Y026690
X005910Y024940
X008630Y025130
X008570Y023190
X006800Y022010
X007050Y021510
X006860Y019320
X004980Y019320
X004730Y016650
X005730Y016650
X005410Y015000
X007420Y015010
X007400Y017520
X010350Y016060
X010480Y013950
X010480Y012940
X012250Y013180
X012250Y014190
X016910Y014130
X017910Y014130
X018340Y016220
X016840Y016220
X020160Y014130
X021160Y014130
X024090Y015590
X025970Y015590
X027090Y017720
X027090Y019470
X028370Y018990
X029250Y019870
X030600Y021470
X030710Y022970
X029250Y022870
X030100Y024520
X031880Y024560
X027100Y024520
X027090Y023090
X027090Y021720
X023590Y025850
X023590Y026860
X021660Y024630
X020660Y024630
X018410Y024630
X017410Y024630
X014740Y022950
X010400Y020520
X007920Y028280
X007980Y029720
X006120Y031260
X001490Y025750
X000610Y025750
X-000260Y025750
X-001700Y025820
X-002020Y024200
X-003900Y024200
X-003070Y021690
X-003070Y020690
X-004640Y020710
X-004640Y019710
X-004640Y018720
X-003070Y018970
X-003070Y017970
X-000230Y016960
X000540Y016960
X000500Y015960
X000470Y014960
X-000260Y014930
X000440Y013960
X000410Y012960
X-000280Y012920
X000380Y011960
X000630Y008050
X000680Y007060
X000680Y006060
X000680Y005060
X000680Y004060
X002160Y005880
X003160Y005880
X-000570Y006060
X-000570Y007060
X-001850Y005990
X-001840Y003980
X007390Y-000010
X007400Y-002010
X009250Y-001500
X010500Y-001500
X012380Y-001500
X012410Y-003970
X016230Y-001800
X018110Y-001800
X019910Y-002260
X021910Y-002250
X024030Y-002350
X025280Y-002350
X027160Y-002350
X023960Y-005250
X022960Y-005250
X021960Y-005250
X017980Y002320
X016100Y002320
X016340Y005720
X017840Y005720
X019780Y003870
X021790Y003870
X026440Y006560
X026460Y007220
X026460Y008970
X026460Y011220
X026460Y012590
X028290Y012990
X028300Y010980
X029460Y008620
X029130Y007140
X031530Y009640
X031530Y010640
X034470Y010390
X034470Y009390
X034820Y012150
X034820Y012840
X010300Y005290
X010290Y004290
X007170Y009350
X007170Y011230
X004800Y012230
X001400Y021040
X001400Y022100
X-000100Y022100
X-000100Y021040
X-000110Y024110
X001390Y024110
X-005680Y026690
X-021670Y-000190
X-022670Y-000190
X-022640Y-001620
X-021640Y-001620
X-032880Y-003930
X-033800Y-003930
X-036860Y-008120
X-036860Y-009120
X-035990Y-010430
X-034980Y-010430
X-034160Y-011990
X-033410Y-013920
X-035210Y-014640
X-035900Y-014010
X-036600Y-014640
X-036970Y-011980
X-033880Y-016100
X-032000Y-016100
X-030590Y-013920
X-033390Y-018530
X-033350Y-019510
X-036200Y-018530
X-037820Y-018520
X-038820Y-018520
X-048450Y-015280
X-051310Y-014870
X-051310Y-013860
X-052860Y-013560
X-054480Y-013460
X-054200Y-011810
X-054200Y-009000
X-057950Y009770
X-057950Y010770
X-057950Y011770
X-057260Y011750
X-051140Y014580
X-053170Y017840
X-053170Y018840
X-052330Y020130
X-041010Y007190
X-041000Y005180
X-022970Y-018940
X-020600Y-019010
X036710Y083200
X036490Y085270
X036490Y086270
X036490Y087270
X036490Y088270
X036490Y089270
T07
X-057790Y-019650
X-056080Y-017330
X-055970Y-016280
X-055970Y-013650
X-055970Y-011650
X-055970Y-009650
X-055970Y-007650
X-055970Y-005650
X-051640Y-008930
X-051640Y-011930
X-045390Y-017050
X-042800Y-010980
X-040310Y-012110
X-039560Y-012110
X-039560Y-010490
X-039560Y-009240
X-039560Y-007990
X-042300Y-007600
X-042750Y-004500
X-041170Y-004620
X-041050Y-003930
X-036300Y-003930
X-036300Y000820
X-038680Y001570
X-038680Y003820
X-038080Y005460
X-042420Y004490
X-044140Y003320
X-045350Y004360
X-045120Y001320
X-043160Y001310
X-040930Y000820
X-042420Y008490
X-050770Y004460
X-051390Y003320
X-052120Y001320
X-050410Y001310
X-056460Y001380
X-057280Y002330
X-046370Y021140
X-045590Y023470
X-043340Y024210
X-041430Y021050
X-047960Y024210
X-047960Y028960
X-048260Y032970
X-051160Y031410
X-056130Y031410
X-050180Y039210
X-048130Y037720
X-045880Y038480
X-045630Y040410
X-043510Y037720
X-043510Y032970
X-043210Y028960
X-038830Y041460
X-039250Y043820
X-038400Y047080
X-038500Y048820
X-038500Y050830
X-038500Y052260
X-036000Y052260
X-036000Y050830
X-036000Y048820
X-036400Y047090
X-035000Y043820
X-031250Y043820
X-029230Y046790
X-029230Y051540
X-029230Y055290
X-029230Y060040
X-029230Y063790
X-029230Y068540
X-029230Y072290
X-029230Y077040
X-031250Y079320
X-030700Y080940
X-031980Y083080
X-032780Y085610
X-032780Y086860
X-032780Y088110
X-035500Y092350
X-035500Y094850
X-034500Y094850
X-038570Y094880
X-040720Y094100
X-041850Y095720
X-042720Y094100
X-044720Y094100
X-046720Y094100
X-047500Y090850
X-047500Y087850
X-046500Y087850
X-051090Y085420
X-049440Y082480
X-049600Y079410
X-050320Y076560
X-051060Y074180
X-050320Y071930
X-050320Y068060
X-051060Y065680
X-050320Y063430
X-052850Y061740
X-050320Y059560
X-051060Y057180
X-050320Y054930
X-050320Y051060
X-051060Y048680
X-050320Y046430
X-048950Y043960
X-045570Y046310
X-042750Y043820
X-045570Y051060
X-045570Y054810
X-045570Y059560
X-045570Y063310
X-046560Y063680
X-045570Y068060
X-045570Y071810
X-045570Y076560
X-042750Y079320
X-039250Y079320
X-038500Y077890
X-038500Y076330
X-038500Y074320
X-038400Y072580
X-036400Y072590
X-036000Y074320
X-036000Y076330
X-036000Y077890
X-035000Y079320
X-039280Y085360
X-039280Y086610
X-039280Y087860
X-043690Y096510
X-042850Y097470
X-044850Y097470
X-046850Y097470
X-040850Y097470
X-026330Y089010
X-027070Y086630
X-026330Y084380
X-021580Y084260
X-020830Y086880
X-021580Y089010
X-015100Y086720
X-013050Y086850
X-014360Y089100
X-014360Y084470
X-009610Y084350
X-009610Y089100
X-018080Y081260
X-019040Y080700
X-020110Y081850
X-022150Y077040
X-024480Y076910
X-023740Y074660
X-024480Y072290
X-024480Y068410
X-023740Y066160
X-024480Y063790
X-021600Y061740
X-024480Y059910
X-023740Y057660
X-024480Y055290
X-024480Y051410
X-023740Y049160
X-024480Y046790
X-017810Y044310
X-014240Y039690
X-011880Y039470
X-009710Y040220
X-014240Y035690
X-014180Y034440
X-017040Y035480
X-019000Y035480
X-018020Y033470
X-014180Y030440
X-014140Y029150
X-012270Y030400
X-014140Y025150
X-014140Y023850
X-017190Y024990
X-019160Y025000
X-018180Y022990
X-014140Y019850
X-014150Y018490
X-014150Y014490
X-014150Y013160
X-017130Y014660
X-019100Y014670
X-018120Y012660
X-021610Y009620
X-021370Y005660
X-023330Y005670
X-022350Y003660
X-014460Y002200
X-012650Y002250
X-012650Y006250
X-014460Y006200
X-014150Y009160
X-009000Y000250
X-008920Y000240
X-009000Y-003750
X-004920Y-003760
X-004920Y000240
X-020300Y-007680
X-022730Y-007160
X-024930Y-007680
X-027520Y-009640
X-025050Y-012430
X-020300Y-012430
X-020270Y-011390
X-020300Y-014680
X-027520Y-005640
X-023370Y017630
X-022380Y019630
X-024350Y019640
X-005680Y027700
X-005710Y028720
X-003510Y028440
X001240Y028440
X001240Y031940
X001240Y033190
X000370Y033190
X-001130Y033950
X-003380Y033190
X-003240Y035500
X000760Y035500
X008010Y043360
X010940Y042090
X011940Y041090
X012940Y042090
X012940Y040090
X010940Y040090
X011240Y045030
X014090Y046600
X022360Y049360
X022360Y051360
X028730Y049990
X029340Y052100
X030340Y053100
X029340Y054100
X031340Y054100
X031340Y052100
X030840Y056600
X025730Y062420
X029310Y065040
X030310Y066040
X029310Y067040
X031310Y067040
X031310Y065040
X032630Y065450
X030210Y077860
X033170Y079820
X033210Y081230
X032960Y082480
X036770Y082480
X035520Y079510
X035520Y079010
X032020Y090090
X031020Y090090
X030020Y090090
X028520Y090090
X027520Y090090
X026520Y090090
X025020Y090090
X024020Y090090
X023020Y090090
X021520Y090090
X020520Y090090
X019520Y090090
X012810Y079360
X012060Y077980
X009920Y079390
X008810Y079480
X007060Y079480
X004180Y079380
X009400Y075330
X010810Y067040
X011810Y066040
X012810Y067040
X012810Y065040
X010810Y065040
X009520Y061230
X004460Y060880
X-001160Y054150
X-002160Y053150
X-003160Y054150
X-003160Y052150
X-003160Y052100
X-001160Y052150
X-000390Y049990
X-002410Y049600
X-008750Y049070
X-010250Y047450
X-009090Y046620
X-011170Y052790
X-012920Y052040
X-012920Y053790
X-012920Y055540
X-011170Y054790
X-011140Y067770
X-011140Y069770
X-011140Y071770
X-011140Y074770
X-008140Y074770
X-007810Y077560
X-008140Y071770
X-008140Y069770
X-008140Y067770
X005610Y051360
X005610Y049360
X018520Y062450
X032520Y045670
X031370Y042120
X031370Y040120
X029370Y040120
X029370Y042120
X029320Y031930
X028920Y029990
X028120Y028940
X026150Y028950
X025490Y028980
X025990Y031110
X022550Y029480
X018520Y029520
X009650Y028690
X004640Y024110
X004640Y023550
X002820Y023550
X002820Y022740
X002700Y020680
X004570Y021550
X013650Y020320
X015620Y020320
X014630Y018310
X014710Y009690
X012750Y009700
X013730Y007690
X019840Y001860
X019840Y000610
X019840Y-000640
X031540Y003280
X032540Y003280
X032570Y004480
X031570Y004480
X032350Y006850
X033230Y008910
X035020Y006100
X033700Y002240
X038140Y-006020
X034820Y-016030
X036390Y-017020
X013770Y-018540
X-003290Y-020020
X031550Y012790
X031550Y013920
X031880Y015420
X030880Y015420
X031010Y016800
X032010Y016800
X032240Y018360
X032240Y019360
X032240Y020360
X032240Y021360
X032240Y022360
X031990Y025860
X031990Y026860
X031990Y027860
X031990Y028860
X030680Y029590
X027130Y026940
X035520Y016510
X035520Y016010
X036020Y014600
X034810Y013850
X033820Y092160
X007710Y097170
X006240Y097200
X002640Y092100
X-036000Y069200
X-036000Y067830
X-036000Y065820
X-036400Y064090
X-038400Y064080
X-038500Y065820
X-038500Y067830
X-038500Y069200
X-038500Y060760
X-038500Y059330
X-038500Y057320
X-038400Y055580
X-036400Y055590
X-036000Y057320
X-036000Y059330
X-036000Y060830
X-058060Y085420
T08
X-031110Y009960
X-030100Y009970
X-029110Y009960
X-029110Y012490
X-030110Y012490
X-031110Y012490
X-033520Y015090
X-035020Y015090
X-034570Y017620
X-033070Y017620
X-001980Y047460
X011810Y033100
X011810Y032350
X013240Y027770
X029310Y029350
X029560Y033100
X030310Y033100
X029000Y046410
X028560Y046850
X031060Y073600
X029310Y078850
X013810Y076600
X012560Y073600
X006060Y078850
X-017310Y076850
X-017340Y076290
T09
X-050770Y008460
X-049960Y008460
X-049010Y008460
X-046360Y008460
X-045380Y008460
X-044770Y008460
X-045220Y016960
X-044020Y016960
X-046460Y016960
X-049020Y016960
X-050320Y016960
X-051270Y016960
X-057070Y021880
X-044320Y043000
X-056320Y051500
X-056320Y062000
X-051850Y090900
X-049850Y091400
X-053220Y095270
X-033820Y097500
X-007320Y097500
X005560Y079360
X004470Y076590
X013330Y077130
X019180Y078000
X024930Y078000
X029000Y079350
X014180Y061000
X003430Y066500
X-020070Y068750
X-020290Y070640
X-020290Y073890
X-008180Y029180
X-008180Y028430
X-008060Y025430
X-008060Y024560
X-008060Y021180
X-008060Y020430
X-008060Y017560
X-008310Y013060
X-006780Y002090
X-006780Y-005160
X-008780Y-016910
X006970Y-016910
X007220Y002090
X030720Y-004660
X029470Y-017160
X012180Y029250
X008210Y031640
X008190Y034910
X009310Y035880
X019680Y045000
X030340Y041090
X-025110Y005350
T10
X-025110Y041350
X-010170Y062120
X-008050Y062120
X000990Y056730
X001740Y056730
X002530Y056730
X004100Y056730
X004890Y056730
X022360Y056480
X023200Y056530
X023980Y056530
X025560Y056530
X026340Y056530
X-040450Y080360
X-040450Y081110
T11
X-027840Y-011970
X-022730Y-004290
X-016590Y-012720
X-016710Y-017220
X005160Y-003970
X014160Y-013970
X-003410Y046960
X-000790Y056330
X008210Y056330
X009960Y056330
X017960Y050830
X019460Y052330
X028710Y058210
X030460Y049330
X-040710Y043190
X-040980Y028460
X-034590Y080750
T12
X011960Y074030
X000220Y087340
X000220Y093340
X030530Y074030
T13
X-052220Y086420
X-049970Y089670
X-055150Y097670
T14
X-016590Y-014970
X-005910Y008800
X-005910Y009550
X-005910Y010300
X-005910Y011050
X-005910Y011800
X-005910Y012550
X003240Y036470
X003240Y039470
X006240Y039470
X006240Y036470
X006020Y046980
X005270Y046980
X006770Y046980
X017520Y046980
X018270Y046980
X019020Y046980
X021520Y046980
X022270Y046980
X023020Y046980
X023020Y060230
X022270Y060230
X021520Y060230
X026770Y062480
X027520Y062480
X028270Y062480
X013520Y062360
X012770Y062360
X012020Y062360
X007770Y060230
X007020Y060230
X006270Y060230
X-001230Y059980
X-001980Y059980
X-002730Y059980
X-005480Y057980
X-005480Y057230
X-005480Y056480
X-009980Y056980
X-009980Y057730
X-015230Y059980
X-015980Y059980
X-016730Y059980
X-019730Y065980
X-019730Y066730
X-019730Y067480
X-016540Y069320
X-016540Y072320
X-013540Y072320
X-013540Y069320
X003270Y069230
X003270Y069980
X003270Y068480
X006020Y071730
X006770Y071730
X007520Y071730
X021270Y077730
X022020Y077730
X022770Y077730
X027520Y077730
X028270Y077730
X029020Y077730
X029040Y082790
X029790Y082790
X030540Y082790
X036030Y093640
X038280Y093520
X018270Y089730
X018270Y088980
X000650Y085360
X-000100Y085360
X-000850Y085360
X-001230Y090730
X-001230Y091480
X-000730Y095480
X000020Y095480
X000770Y095480
X-009980Y051980
X-009980Y051230
X-005730Y047480
X-005730Y046730
X-005730Y045980
X-019980Y052230
X-019980Y052980
X-019980Y053730
X-056230Y056730
X-056230Y057480
X-056230Y058230
X-056230Y048480
X-056230Y047730
X-056230Y046980
X-055150Y098640
X-053200Y099140
X015770Y029230
X016520Y029230
X017270Y029230
X021400Y016480
X022150Y016480
X022900Y016480
X022770Y005860
X022020Y005860
X021270Y005860
X020520Y005860
X023520Y005860
X024270Y005860
T15
X-033930Y-001070
X-033930Y-000440
X-033930Y000310
X-033930Y001060
X-033930Y001930
X-033930Y002680
X-033930Y003430
X-033930Y004180
X-033930Y004930
X-033930Y005680
X-033930Y006430
X-033930Y007180
X-033930Y007310
X-033930Y007510
X-033180Y007510
X-032560Y007510
X-031930Y007510
X-031180Y007510
X-030430Y007510
X-029680Y007510
X-028930Y007510
X-028180Y007510
X-027430Y007510
X-027430Y007310
X-027430Y007180
X-027430Y006430
X-027430Y005680
X-027430Y004930
X-027430Y004180
X-027430Y003430
X-027430Y002680
X-027430Y001930
X-027430Y001060
X-027430Y000180
X-027430Y-000440
X-027430Y-001070
X-028180Y-001070
X-028930Y-001070
X-029680Y-001070
X-030430Y-001070
X-031180Y-001070
X-031930Y-001070
X-032560Y-001070
X-033180Y-001070
T16
X-035070Y011240
X-025010Y011240
T17
X-043230Y-018330
X-053590Y-003970
X-044340Y005720
X-036090Y004030
X-052760Y010000
X-052800Y012860
X-052740Y023490
X-052690Y025940
X-056470Y037960
X-056430Y040780
X-048010Y043070
X-044340Y041090
X-030260Y038870
X-008380Y034990
X-005630Y031250
X-006840Y041090
X008120Y033760
X010120Y030000
X017870Y020560
X024620Y020560
X024370Y009750
X018000Y009750
X009690Y008780
X-006840Y005590
X-014000Y-000870
X-025000Y-018280
X034670Y-018500
X033120Y-000870
X032130Y030060
X032160Y044090
X032130Y063000
X032160Y077030
X035700Y097540
X010120Y077060
X002870Y079190
X010120Y062940
X002490Y060560
X004990Y053310
X010120Y044120
X-018760Y060560
X-020250Y072560
X-019260Y079060
X-032570Y081670
X-030090Y091910
X-048870Y099110
X-051270Y099160
X-057480Y099090
X-047570Y079760
X-056430Y070030
X-056470Y067210
T18
X015340Y050830
X012590Y056330
M30
