%FSLAX34Y34*%
%MOMM*%
%LNSOLDERMASK_BOTTOM*%
G71*
G01*
%ADD10C,2.600*%
%ADD11C,2.400*%
%ADD12C,2.800*%
%ADD13C,2.600*%
%ADD14C,5.100*%
%ADD15C,1.600*%
%ADD16C,3.600*%
%ADD17C,7.600*%
%ADD18C,3.200*%
%ADD19C,2.900*%
%ADD20C,2.600*%
%ADD21C,2.600*%
%ADD22C,5.600*%
%ADD23C,3.100*%
%ADD24C,2.400*%
%ADD25C,3.100*%
%ADD26C,3.600*%
%ADD27C,2.800*%
%ADD28C,3.000*%
%ADD29C,1.800*%
%ADD30C,1.600*%
%ADD31C,2.700*%
%ADD32C,2.700*%
%ADD33C,2.500*%
%ADD34C,4.600*%
%ADD35C,5.600*%
%ADD36C,2.700*%
%ADD37C,2.800*%
%ADD38C,2.100*%
%ADD39C,3.100*%
%ADD40C,2.800*%
%ADD41C,3.600*%
%ADD42C,3.300*%
%ADD43C,5.100*%
%ADD44C,3.200*%
%ADD45C,3.100*%
%ADD46C,1.900*%
%ADD47R,1.470X0.835*%
%ADD48C,2.500*%
%ADD49C,2.250*%
%ADD50C,1.800*%
%ADD51C,1.600*%
%ADD52C,1.200*%
%ADD53C,1.400*%
%ADD54C,2.200*%
%ADD55C,5.800*%
%ADD56C,3.200*%
%ADD57C,2.800*%
%ADD58C,2.200*%
%ADD59C,1.900*%
%LPD*%
X381341Y1826369D02*
G54D10*
D03*
X381391Y1902619D02*
G54D10*
D03*
X300347Y1822969D02*
G54D10*
D03*
X300460Y1771988D02*
G54D10*
D03*
X414647Y1797569D02*
G54D10*
D03*
X414759Y1746588D02*
G54D10*
D03*
X381357Y1597769D02*
G54D10*
D03*
X381407Y1674019D02*
G54D10*
D03*
X502078Y1854383D02*
G54D10*
D03*
X425828Y1854433D02*
G54D10*
D03*
X427037Y1674019D02*
G54D10*
D03*
X426987Y1597769D02*
G54D10*
D03*
X559140Y1826368D02*
G54D10*
D03*
X559190Y1902618D02*
G54D10*
D03*
X456472Y1701853D02*
G54D10*
D03*
X554037Y1699419D02*
G54D10*
D03*
X553987Y1623169D02*
G54D10*
D03*
X630236Y1699419D02*
G54D10*
D03*
X630186Y1623169D02*
G54D10*
D03*
X681036Y1699419D02*
G54D10*
D03*
X680986Y1623169D02*
G54D10*
D03*
X780508Y1765464D02*
G54D10*
D03*
X729528Y1765351D02*
G54D10*
D03*
X709054Y1896187D02*
G54D10*
D03*
X632804Y1896237D02*
G54D10*
D03*
X493712Y1778794D02*
G54D11*
D03*
X477812Y1761219D02*
G54D11*
D03*
X493746Y1743603D02*
G54D11*
D03*
X595312Y1778794D02*
G54D11*
D03*
X579412Y1761219D02*
G54D11*
D03*
X595346Y1743603D02*
G54D11*
D03*
X671512Y1778794D02*
G54D11*
D03*
X655612Y1761219D02*
G54D11*
D03*
X671546Y1743603D02*
G54D11*
D03*
X274612Y1702694D02*
G54D12*
D03*
X325412Y1702694D02*
G54D12*
D03*
X300012Y1677294D02*
G54D12*
D03*
X325412Y1651894D02*
G54D12*
D03*
X274612Y1651894D02*
G54D12*
D03*
X744512Y1702694D02*
G54D12*
D03*
X795312Y1702694D02*
G54D12*
D03*
X769912Y1677294D02*
G54D12*
D03*
X795312Y1651894D02*
G54D12*
D03*
X744512Y1651894D02*
G54D12*
D03*
X446038Y1927003D02*
G54D10*
D03*
X497018Y1927116D02*
G54D10*
D03*
X381357Y1597769D02*
G54D13*
D03*
X426987Y1597769D02*
G54D13*
D03*
X553987Y1623169D02*
G54D13*
D03*
X630186Y1623169D02*
G54D13*
D03*
X381357Y1597769D02*
G54D13*
D03*
X256936Y1957388D02*
G54D14*
D03*
X507272Y1701853D02*
G54D10*
D03*
X509587Y1674019D02*
G54D10*
D03*
X509537Y1597769D02*
G54D10*
D03*
X338587Y1959169D02*
G54D10*
D03*
X249812Y1753394D02*
G54D15*
D03*
X426987Y1597769D02*
G54D13*
D03*
X509537Y1597769D02*
G54D13*
D03*
X553987Y1623169D02*
G54D13*
D03*
X630186Y1623169D02*
G54D13*
D03*
X816768Y1956594D02*
G54D14*
D03*
X256936Y1598612D02*
G54D14*
D03*
X816132Y1600200D02*
G54D14*
D03*
X306962Y1880394D02*
G54D15*
D03*
X303786Y1880395D02*
G54D16*
D03*
X775511Y1880395D02*
G54D16*
D03*
X389562Y1291153D02*
G54D17*
D03*
X319712Y1430854D02*
G54D17*
D03*
X253037Y1430853D02*
G54D18*
D03*
X456237Y1291153D02*
G54D18*
D03*
X44162Y1440953D02*
G54D19*
D03*
X124162Y1440953D02*
G54D20*
D03*
X589162Y1435953D02*
G54D20*
D03*
X669162Y1435953D02*
G54D20*
D03*
X124162Y1440953D02*
G54D19*
D03*
X589162Y1435953D02*
G54D19*
D03*
X669162Y1435953D02*
G54D12*
D03*
X64162Y1440953D02*
G54D19*
D03*
X104162Y1440953D02*
G54D19*
D03*
X609162Y1435954D02*
G54D19*
D03*
X649162Y1435953D02*
G54D19*
D03*
X-80263Y1324623D02*
G54D12*
D03*
X-80263Y1375423D02*
G54D12*
D03*
X-54863Y1350023D02*
G54D12*
D03*
X-29463Y1375424D02*
G54D12*
D03*
X-29463Y1324623D02*
G54D12*
D03*
X-80263Y1323353D02*
G54D21*
D03*
X-29463Y1323353D02*
G54D13*
D03*
X745237Y1323353D02*
G54D12*
D03*
X745237Y1374153D02*
G54D12*
D03*
X770637Y1348753D02*
G54D12*
D03*
X796037Y1374153D02*
G54D12*
D03*
X796037Y1323353D02*
G54D12*
D03*
X745237Y1323353D02*
G54D21*
D03*
X796037Y1323353D02*
G54D13*
D03*
X618694Y1234716D02*
G54D10*
D03*
X618694Y1304566D02*
G54D10*
D03*
X688544Y1234716D02*
G54D10*
D03*
X688544Y1304566D02*
G54D10*
D03*
X656794Y1304566D02*
G54D10*
D03*
X656794Y1234716D02*
G54D10*
D03*
X688545Y1234716D02*
G54D13*
D03*
X688545Y1304566D02*
G54D13*
D03*
X28144Y1234716D02*
G54D10*
D03*
X28144Y1304566D02*
G54D10*
D03*
X97994Y1234716D02*
G54D10*
D03*
X97994Y1304566D02*
G54D10*
D03*
X66244Y1304566D02*
G54D10*
D03*
X66244Y1234716D02*
G54D10*
D03*
X97995Y1234716D02*
G54D13*
D03*
X97995Y1304566D02*
G54D13*
D03*
X669162Y1435953D02*
G54D19*
D03*
X142445Y1304566D02*
G54D21*
D03*
X567895Y1304566D02*
G54D21*
D03*
X783437Y1437678D02*
G54D21*
D03*
X-61113Y1259878D02*
G54D21*
D03*
X-80263Y1374153D02*
G54D13*
D03*
X-29463Y1374154D02*
G54D13*
D03*
X745237Y1374153D02*
G54D13*
D03*
X796037Y1374153D02*
G54D13*
D03*
X796037Y1323353D02*
G54D13*
D03*
X256936Y1120775D02*
G54D14*
D03*
X816768Y1119982D02*
G54D22*
D03*
X256936Y762000D02*
G54D22*
D03*
X816132Y763588D02*
G54D14*
D03*
X770511Y1043782D02*
G54D23*
D03*
X-343888Y1760854D02*
G54D24*
D03*
X-343888Y1837054D02*
G54D24*
D03*
X-420088Y1760854D02*
G54D24*
D03*
X-343888Y1760854D02*
G54D24*
D03*
X-420088Y1837054D02*
G54D24*
D03*
X-420088Y1760854D02*
G54D24*
D03*
X-343888Y1837054D02*
G54D24*
D03*
X-420088Y1837054D02*
G54D24*
D03*
X-343976Y1972077D02*
G54D10*
D03*
X-343976Y1883177D02*
G54D10*
D03*
X-382076Y1883177D02*
G54D10*
D03*
X-413826Y1883177D02*
G54D10*
D03*
X-353620Y1620287D02*
G54D10*
D03*
X-417119Y1715537D02*
G54D10*
D03*
X-385370Y1715537D02*
G54D10*
D03*
X-353620Y1715537D02*
G54D10*
D03*
X-325137Y1727826D02*
G54D10*
D03*
X-417120Y1969537D02*
G54D10*
D03*
X-299526Y1984777D02*
G54D10*
D03*
X-137098Y1837088D02*
G54D10*
D03*
X-79948Y1837088D02*
G54D10*
D03*
X-51248Y1913288D02*
G54D10*
D03*
X-51248Y1970438D02*
G54D10*
D03*
X-112298Y1771464D02*
G54D10*
D03*
X-166250Y1717582D02*
G54D10*
D03*
X-112298Y1771464D02*
G54D13*
D03*
X15478Y1775516D02*
G54D10*
D03*
X-60772Y1775566D02*
G54D10*
D03*
X15478Y1775516D02*
G54D13*
D03*
X-105348Y1697388D02*
G54D10*
D03*
X-54548Y1697388D02*
G54D10*
D03*
X-54548Y1697388D02*
G54D10*
D03*
X-25941Y1601282D02*
G54D10*
D03*
X-26053Y1652262D02*
G54D10*
D03*
X-25941Y1601282D02*
G54D10*
D03*
X-51248Y1875188D02*
G54D10*
D03*
X-19498Y1697388D02*
G54D10*
D03*
X-170118Y1837088D02*
G54D10*
D03*
X-159198Y1900588D02*
G54D10*
D03*
X-282894Y1899092D02*
G54D12*
D03*
X-206694Y1899092D02*
G54D12*
D03*
X-282894Y1822892D02*
G54D12*
D03*
X-282894Y1772092D02*
G54D12*
D03*
X-282894Y1721292D02*
G54D12*
D03*
X-206694Y1822892D02*
G54D12*
D03*
X-206694Y1772092D02*
G54D12*
D03*
X-206694Y1721292D02*
G54D12*
D03*
X-206694Y1899092D02*
G54D10*
D03*
X-60443Y1616289D02*
G54D10*
D03*
X-116663Y1618534D02*
G54D10*
D03*
X-116663Y1618534D02*
G54D10*
D03*
X-167463Y1618534D02*
G54D10*
D03*
G54D25*
X-195511Y1569044D02*
X-213189Y1586722D01*
G54D25*
X-249486Y1569044D02*
X-267164Y1586722D01*
X-514351Y1843088D02*
G54D22*
D03*
X-198438Y1970088D02*
G54D21*
D03*
X-420088Y1837054D02*
G54D26*
D03*
X-420088Y1760854D02*
G54D26*
D03*
X-343888Y1760854D02*
G54D26*
D03*
X-343888Y1837054D02*
G54D26*
D03*
X82190Y1002652D02*
G54D24*
D03*
X82190Y926452D02*
G54D24*
D03*
X158390Y1002652D02*
G54D24*
D03*
X82190Y1002652D02*
G54D24*
D03*
X158390Y926452D02*
G54D24*
D03*
X158390Y1002652D02*
G54D24*
D03*
X82190Y926452D02*
G54D24*
D03*
X158390Y926452D02*
G54D24*
D03*
X82278Y791429D02*
G54D10*
D03*
X82278Y880329D02*
G54D10*
D03*
X120378Y880329D02*
G54D10*
D03*
X152128Y880329D02*
G54D10*
D03*
X155422Y1111469D02*
G54D10*
D03*
X91922Y1111469D02*
G54D10*
D03*
X155421Y1047969D02*
G54D10*
D03*
X123672Y1047969D02*
G54D10*
D03*
X91922Y1047969D02*
G54D10*
D03*
X63439Y1035680D02*
G54D10*
D03*
X155422Y793969D02*
G54D10*
D03*
X203440Y1101393D02*
G54D21*
D03*
X158390Y926452D02*
G54D26*
D03*
X158390Y1002652D02*
G54D26*
D03*
X82190Y1002652D02*
G54D26*
D03*
X82190Y926452D02*
G54D26*
D03*
X-89068Y722258D02*
G54D12*
D03*
X-85894Y842908D02*
G54D12*
D03*
X31582Y722258D02*
G54D12*
D03*
X31582Y842908D02*
G54D12*
D03*
X-28743Y862372D02*
G54D12*
D03*
X-85894Y842908D02*
G54D27*
D03*
X-82272Y901727D02*
G54D12*
D03*
X19328Y901726D02*
G54D12*
D03*
X-82272Y901727D02*
G54D12*
D03*
X-283839Y1391601D02*
G54D28*
D03*
X-283839Y1340801D02*
G54D28*
D03*
X-328289Y1366202D02*
G54D28*
D03*
X-328289Y1321751D02*
G54D28*
D03*
X-328289Y1410651D02*
G54D28*
D03*
X-315589Y1467801D02*
G54D10*
D03*
X-340989Y1467801D02*
G54D10*
D03*
X-290189Y1467801D02*
G54D10*
D03*
X-376674Y1293176D02*
G54D10*
D03*
X-452924Y1293226D02*
G54D10*
D03*
X-455616Y1258916D02*
G54D10*
D03*
X-379366Y1258866D02*
G54D10*
D03*
X-439682Y1227440D02*
G54D10*
D03*
X-388702Y1227552D02*
G54D10*
D03*
X-410839Y1461539D02*
G54D10*
D03*
X-410839Y1413739D02*
G54D10*
D03*
X-407229Y1159914D02*
G54D10*
D03*
X-407279Y1083665D02*
G54D10*
D03*
X-347339Y1108852D02*
G54D10*
D03*
X-347339Y1156651D02*
G54D10*
D03*
X-434783Y1348695D02*
G54D10*
D03*
X-399683Y1348696D02*
G54D10*
D03*
X-309239Y1223151D02*
G54D10*
D03*
X-309239Y1270952D02*
G54D10*
D03*
X-455561Y1191269D02*
G54D10*
D03*
X-379311Y1191219D02*
G54D10*
D03*
X-208364Y1314846D02*
G54D10*
D03*
X-347339Y1108852D02*
G54D10*
D03*
G36*
X-204289Y1443971D02*
X-204289Y1417971D01*
X-230289Y1417971D01*
X-230289Y1443971D01*
X-204289Y1443971D01*
G37*
X-233039Y1153390D02*
G54D29*
D03*
X-233039Y1127990D02*
G54D30*
D03*
X-283839Y1153389D02*
G54D30*
D03*
X-283839Y1127989D02*
G54D29*
D03*
X-233039Y1051789D02*
G54D30*
D03*
X-283839Y1051789D02*
G54D30*
D03*
X-231007Y1184155D02*
G54D12*
D03*
X-246702Y1021650D02*
G54D21*
D03*
X-283839Y1153389D02*
G54D29*
D03*
X-233039Y1051789D02*
G54D29*
D03*
X-283839Y1051789D02*
G54D29*
D03*
X-1018830Y1204702D02*
G54D10*
D03*
X-1088680Y1204702D02*
G54D10*
D03*
X-1018830Y1274552D02*
G54D10*
D03*
X-1088680Y1274552D02*
G54D10*
D03*
X-1088680Y1242802D02*
G54D10*
D03*
X-1018830Y1242802D02*
G54D10*
D03*
X-975422Y1195931D02*
G54D31*
D03*
X-924440Y1196043D02*
G54D31*
D03*
X-796580Y1204702D02*
G54D10*
D03*
X-866430Y1204702D02*
G54D10*
D03*
X-796580Y1274552D02*
G54D10*
D03*
X-866430Y1274552D02*
G54D10*
D03*
X-866430Y1242802D02*
G54D10*
D03*
X-796580Y1242802D02*
G54D10*
D03*
X-914357Y1240029D02*
G54D10*
D03*
X-914470Y1291009D02*
G54D10*
D03*
X-977857Y1240029D02*
G54D10*
D03*
X-977970Y1291009D02*
G54D10*
D03*
X-796580Y1274552D02*
G54D13*
D03*
X-866430Y1274552D02*
G54D13*
D03*
X-914470Y1291010D02*
G54D32*
D03*
X-977970Y1291010D02*
G54D13*
D03*
X-1018830Y1274552D02*
G54D13*
D03*
X-1088680Y1274552D02*
G54D13*
D03*
X-977857Y1240029D02*
G54D31*
D03*
X-977970Y1291009D02*
G54D31*
D03*
X-914470Y1291009D02*
G54D31*
D03*
X-914357Y1240029D02*
G54D31*
D03*
X-742367Y1308994D02*
G54D12*
D03*
X-621717Y1305820D02*
G54D12*
D03*
X-742367Y1188344D02*
G54D12*
D03*
X-621717Y1188344D02*
G54D12*
D03*
X-602904Y1248669D02*
G54D12*
D03*
X-728860Y1142064D02*
G54D33*
D03*
X-627260Y1142065D02*
G54D33*
D03*
X-621717Y1305820D02*
G54D12*
D03*
X-1157362Y1176256D02*
G54D12*
D03*
X-1278012Y1179430D02*
G54D12*
D03*
X-1157362Y1296906D02*
G54D12*
D03*
X-1278012Y1296906D02*
G54D12*
D03*
X-1296824Y1236581D02*
G54D12*
D03*
X-1278011Y1179430D02*
G54D12*
D03*
X-1278012Y1296906D02*
G54D12*
D03*
X-1274960Y1142064D02*
G54D33*
D03*
X-1173360Y1142065D02*
G54D33*
D03*
X-728860Y1142064D02*
G54D10*
D03*
X-1274960Y1142064D02*
G54D10*
D03*
X-1018830Y1420602D02*
G54D10*
D03*
X-1088680Y1420602D02*
G54D10*
D03*
X-1018830Y1490452D02*
G54D10*
D03*
X-1088680Y1490452D02*
G54D10*
D03*
X-1088680Y1458702D02*
G54D10*
D03*
X-1018830Y1458702D02*
G54D10*
D03*
X-975422Y1411831D02*
G54D31*
D03*
X-924440Y1411943D02*
G54D31*
D03*
X-796580Y1420602D02*
G54D10*
D03*
X-866430Y1420602D02*
G54D10*
D03*
X-796580Y1490452D02*
G54D10*
D03*
X-866430Y1490452D02*
G54D10*
D03*
X-866430Y1458702D02*
G54D10*
D03*
X-796580Y1458702D02*
G54D10*
D03*
X-914357Y1455929D02*
G54D10*
D03*
X-914470Y1506910D02*
G54D10*
D03*
X-977857Y1455929D02*
G54D10*
D03*
X-977970Y1506909D02*
G54D10*
D03*
X-796580Y1490452D02*
G54D13*
D03*
X-866430Y1490452D02*
G54D13*
D03*
X-914470Y1506910D02*
G54D32*
D03*
X-977970Y1506910D02*
G54D13*
D03*
X-1018830Y1490452D02*
G54D13*
D03*
X-1088680Y1490452D02*
G54D13*
D03*
X-977857Y1455929D02*
G54D31*
D03*
X-977970Y1506909D02*
G54D31*
D03*
X-914470Y1506910D02*
G54D31*
D03*
X-914357Y1455929D02*
G54D31*
D03*
X-742367Y1524894D02*
G54D12*
D03*
X-621717Y1521720D02*
G54D12*
D03*
X-742367Y1404244D02*
G54D12*
D03*
X-621717Y1404244D02*
G54D12*
D03*
X-602904Y1464569D02*
G54D12*
D03*
X-728860Y1357964D02*
G54D33*
D03*
X-627260Y1357965D02*
G54D33*
D03*
X-621717Y1521720D02*
G54D12*
D03*
X-1157362Y1392156D02*
G54D12*
D03*
X-1278012Y1395330D02*
G54D12*
D03*
X-1157362Y1512806D02*
G54D12*
D03*
X-1278012Y1512806D02*
G54D12*
D03*
X-1296824Y1452481D02*
G54D12*
D03*
X-1278011Y1395329D02*
G54D12*
D03*
X-1278012Y1512806D02*
G54D12*
D03*
X-1274960Y1357964D02*
G54D33*
D03*
X-1173360Y1357965D02*
G54D33*
D03*
X-728860Y1357964D02*
G54D10*
D03*
X-1274960Y1357964D02*
G54D10*
D03*
X-1018830Y1636502D02*
G54D10*
D03*
X-1088680Y1636502D02*
G54D10*
D03*
X-1018830Y1706352D02*
G54D10*
D03*
X-1088680Y1706352D02*
G54D10*
D03*
X-1088680Y1674602D02*
G54D10*
D03*
X-1018830Y1674602D02*
G54D10*
D03*
X-975422Y1627731D02*
G54D31*
D03*
X-924440Y1627843D02*
G54D31*
D03*
X-796580Y1636502D02*
G54D10*
D03*
X-866430Y1636502D02*
G54D10*
D03*
X-796580Y1706352D02*
G54D10*
D03*
X-866430Y1706352D02*
G54D10*
D03*
X-866430Y1674602D02*
G54D10*
D03*
X-796580Y1674602D02*
G54D10*
D03*
X-914357Y1671829D02*
G54D10*
D03*
X-914470Y1722810D02*
G54D10*
D03*
X-977857Y1671829D02*
G54D10*
D03*
X-977970Y1722810D02*
G54D10*
D03*
X-796580Y1706352D02*
G54D13*
D03*
X-866430Y1706352D02*
G54D13*
D03*
X-914470Y1722810D02*
G54D32*
D03*
X-977970Y1722810D02*
G54D13*
D03*
X-1018830Y1706352D02*
G54D13*
D03*
X-1088680Y1706352D02*
G54D13*
D03*
X-977857Y1671829D02*
G54D31*
D03*
X-977970Y1722810D02*
G54D31*
D03*
X-914470Y1722810D02*
G54D31*
D03*
X-914357Y1671829D02*
G54D31*
D03*
X-742367Y1740794D02*
G54D12*
D03*
X-621717Y1737620D02*
G54D12*
D03*
X-742367Y1620144D02*
G54D12*
D03*
X-621717Y1620144D02*
G54D12*
D03*
X-602904Y1680469D02*
G54D12*
D03*
X-728860Y1573864D02*
G54D33*
D03*
X-627260Y1573864D02*
G54D33*
D03*
X-621717Y1737620D02*
G54D12*
D03*
X-1157362Y1608056D02*
G54D12*
D03*
X-1278012Y1611230D02*
G54D12*
D03*
X-1157362Y1728706D02*
G54D12*
D03*
X-1278012Y1728706D02*
G54D12*
D03*
X-1296824Y1668381D02*
G54D12*
D03*
X-1278011Y1611230D02*
G54D12*
D03*
X-1278012Y1728706D02*
G54D12*
D03*
X-1274960Y1573864D02*
G54D33*
D03*
X-1173360Y1573864D02*
G54D33*
D03*
X-728860Y1573864D02*
G54D10*
D03*
X-1274960Y1573864D02*
G54D10*
D03*
X-1018830Y1852402D02*
G54D10*
D03*
X-1088680Y1852402D02*
G54D10*
D03*
X-1018830Y1922252D02*
G54D10*
D03*
X-1088680Y1922252D02*
G54D10*
D03*
X-1088680Y1890502D02*
G54D10*
D03*
X-1018830Y1890502D02*
G54D10*
D03*
X-975422Y1843631D02*
G54D31*
D03*
X-924440Y1843743D02*
G54D31*
D03*
X-796580Y1852402D02*
G54D10*
D03*
X-866430Y1852402D02*
G54D10*
D03*
X-796580Y1922252D02*
G54D10*
D03*
X-866430Y1922252D02*
G54D10*
D03*
X-866430Y1890502D02*
G54D10*
D03*
X-796580Y1890502D02*
G54D10*
D03*
X-914357Y1887729D02*
G54D10*
D03*
X-914470Y1938710D02*
G54D10*
D03*
X-977857Y1887729D02*
G54D10*
D03*
X-977970Y1938709D02*
G54D10*
D03*
X-796580Y1922252D02*
G54D13*
D03*
X-866430Y1922252D02*
G54D13*
D03*
X-914470Y1938710D02*
G54D32*
D03*
X-977970Y1938710D02*
G54D13*
D03*
X-1018830Y1922252D02*
G54D13*
D03*
X-1088680Y1922252D02*
G54D13*
D03*
X-977857Y1887729D02*
G54D31*
D03*
X-977970Y1938709D02*
G54D31*
D03*
X-914470Y1938709D02*
G54D31*
D03*
X-914357Y1887729D02*
G54D31*
D03*
X-742367Y1956694D02*
G54D12*
D03*
X-621717Y1953520D02*
G54D12*
D03*
X-742367Y1836044D02*
G54D12*
D03*
X-621717Y1836044D02*
G54D12*
D03*
X-602904Y1896369D02*
G54D12*
D03*
X-728860Y1789764D02*
G54D33*
D03*
X-627260Y1789764D02*
G54D33*
D03*
X-621717Y1953520D02*
G54D12*
D03*
X-1157362Y1823956D02*
G54D12*
D03*
X-1278012Y1827130D02*
G54D12*
D03*
X-1157362Y1944606D02*
G54D12*
D03*
X-1278012Y1944606D02*
G54D12*
D03*
X-1296824Y1884281D02*
G54D12*
D03*
X-1278011Y1827130D02*
G54D12*
D03*
X-1278012Y1944606D02*
G54D12*
D03*
X-1274960Y1789764D02*
G54D33*
D03*
X-1173360Y1789764D02*
G54D33*
D03*
X-728860Y1789764D02*
G54D10*
D03*
X-1274960Y1789764D02*
G54D10*
D03*
X-793706Y1113029D02*
G54D31*
D03*
X-793706Y1113029D02*
G54D31*
D03*
X-888956Y1113029D02*
G54D31*
D03*
X-888956Y1113029D02*
G54D31*
D03*
X-996906Y1113029D02*
G54D31*
D03*
X-996906Y1113029D02*
G54D31*
D03*
X-1085806Y1113029D02*
G54D31*
D03*
X-1085806Y1113029D02*
G54D31*
D03*
X-793706Y2014729D02*
G54D31*
D03*
X-793706Y2014729D02*
G54D31*
D03*
X-888956Y2014729D02*
G54D31*
D03*
X-888956Y2014729D02*
G54D31*
D03*
X-996906Y2014729D02*
G54D31*
D03*
X-996906Y2014729D02*
G54D31*
D03*
X-1085806Y2014729D02*
G54D31*
D03*
X-1085806Y2014729D02*
G54D31*
D03*
X-1342442Y1568199D02*
G54D21*
D03*
X-548692Y1568199D02*
G54D21*
D03*
X63261Y1538287D02*
G54D22*
D03*
X72785Y2011362D02*
G54D34*
D03*
X-476490Y1538287D02*
G54D22*
D03*
X-489190Y2008188D02*
G54D22*
D03*
X-1097543Y735513D02*
G54D12*
D03*
X-1100717Y614863D02*
G54D12*
D03*
X-1218192Y735513D02*
G54D12*
D03*
X-1218192Y614863D02*
G54D12*
D03*
X-1157868Y596050D02*
G54D12*
D03*
X-1225742Y837382D02*
G54D12*
D03*
X-1222568Y958032D02*
G54D12*
D03*
X-1105092Y837382D02*
G54D12*
D03*
X-1105093Y958032D02*
G54D12*
D03*
X-1165418Y977320D02*
G54D12*
D03*
X-1270822Y772806D02*
G54D33*
D03*
X-1270822Y671206D02*
G54D33*
D03*
X-1270822Y772806D02*
G54D10*
D03*
X-1274620Y996002D02*
G54D33*
D03*
X-1274620Y894401D02*
G54D33*
D03*
X-1274620Y996002D02*
G54D10*
D03*
X-1274620Y996002D02*
G54D12*
D03*
X-1100717Y614863D02*
G54D12*
D03*
X-1105093Y958032D02*
G54D12*
D03*
X-1222568Y958032D02*
G54D12*
D03*
X-1105093Y958032D02*
G54D12*
D03*
X-1126332Y1043782D02*
G54D14*
D03*
X-173832Y1043782D02*
G54D14*
D03*
X-1126332Y145257D02*
G54D14*
D03*
X-173832Y142082D02*
G54D22*
D03*
X818819Y567872D02*
G54D21*
D03*
X818820Y542472D02*
G54D21*
D03*
X801356Y353560D02*
G54D21*
D03*
X801357Y324984D02*
G54D21*
D03*
X787635Y426622D02*
G54D21*
D03*
X813035Y426622D02*
G54D21*
D03*
X-207799Y741281D02*
G54D23*
D03*
X-204624Y646031D02*
G54D23*
D03*
X-204624Y538081D02*
G54D23*
D03*
G36*
X-189124Y430506D02*
X-220124Y430506D01*
X-220124Y461506D01*
X-189124Y461506D01*
X-189124Y430506D01*
G37*
X-635193Y285543D02*
G54D35*
D03*
X-890894Y285443D02*
G54D35*
D03*
X-790168Y317368D02*
G54D36*
D03*
X-764794Y317243D02*
G54D36*
D03*
X-739350Y317268D02*
G54D36*
D03*
X-542088Y383627D02*
G54D10*
D03*
X-542263Y434619D02*
G54D10*
D03*
X-840018Y447493D02*
G54D37*
D03*
X-889418Y383393D02*
G54D37*
D03*
X-851418Y383393D02*
G54D37*
D03*
X-878118Y447493D02*
G54D37*
D03*
X-989294Y396643D02*
G54D10*
D03*
X-989418Y447560D02*
G54D10*
D03*
X-725768Y425218D02*
G54D10*
D03*
X-649518Y425168D02*
G54D10*
D03*
X-991868Y328518D02*
G54D10*
D03*
X-991868Y354018D02*
G54D10*
D03*
X-725768Y377593D02*
G54D10*
D03*
X-649519Y377543D02*
G54D10*
D03*
X-751168Y796693D02*
G54D10*
D03*
X-802085Y796568D02*
G54D10*
D03*
X-786094Y752243D02*
G54D11*
D03*
X-768518Y736343D02*
G54D11*
D03*
X-750902Y752278D02*
G54D11*
D03*
X-779744Y898293D02*
G54D10*
D03*
X-754318Y898343D02*
G54D10*
D03*
X-725768Y752243D02*
G54D10*
D03*
X-649594Y752243D02*
G54D10*
D03*
X-903568Y812568D02*
G54D10*
D03*
X-827318Y812518D02*
G54D10*
D03*
X-744818Y701443D02*
G54D10*
D03*
X-795735Y701318D02*
G54D10*
D03*
X-751168Y637943D02*
G54D11*
D03*
X-768768Y653843D02*
G54D11*
D03*
X-786360Y637908D02*
G54D11*
D03*
X-750794Y577543D02*
G54D11*
D03*
X-768768Y593518D02*
G54D11*
D03*
X-786360Y577583D02*
G54D11*
D03*
X-725768Y637943D02*
G54D10*
D03*
X-649594Y637943D02*
G54D10*
D03*
X-751169Y517243D02*
G54D11*
D03*
X-768768Y533193D02*
G54D11*
D03*
X-786360Y517258D02*
G54D11*
D03*
X-903568Y580793D02*
G54D10*
D03*
X-827318Y580743D02*
G54D10*
D03*
X-903360Y536614D02*
G54D10*
D03*
X-827110Y536564D02*
G54D10*
D03*
X-725768Y517293D02*
G54D10*
D03*
X-649494Y517243D02*
G54D10*
D03*
X-664448Y472503D02*
G54D10*
D03*
X-715364Y472378D02*
G54D10*
D03*
X-725768Y593493D02*
G54D10*
D03*
X-649518Y593443D02*
G54D10*
D03*
X-568493Y498643D02*
G54D21*
D03*
X-593477Y447711D02*
G54D21*
D03*
X-618376Y498758D02*
G54D21*
D03*
X-560668Y685568D02*
G54D11*
D03*
X-578469Y701368D02*
G54D11*
D03*
X-595859Y685533D02*
G54D11*
D03*
X-916268Y898293D02*
G54D10*
D03*
X-890694Y898243D02*
G54D10*
D03*
X-617818Y787168D02*
G54D10*
D03*
X-541568Y787118D02*
G54D10*
D03*
X-617818Y745893D02*
G54D10*
D03*
X-541568Y745843D02*
G54D10*
D03*
X-636868Y695093D02*
G54D10*
D03*
X-687785Y694968D02*
G54D10*
D03*
X-617818Y650643D02*
G54D10*
D03*
X-541568Y650593D02*
G54D10*
D03*
X-541668Y523618D02*
G54D10*
D03*
X-541781Y574598D02*
G54D10*
D03*
X-541619Y606193D02*
G54D10*
D03*
X-617894Y606243D02*
G54D10*
D03*
X-967018Y764968D02*
G54D10*
D03*
X-942156Y764656D02*
G54D10*
D03*
X-938494Y580793D02*
G54D10*
D03*
X-989468Y580643D02*
G54D10*
D03*
X-903568Y625243D02*
G54D10*
D03*
X-827318Y625193D02*
G54D10*
D03*
X-840068Y504593D02*
G54D10*
D03*
X-891044Y504443D02*
G54D10*
D03*
X-963468Y501443D02*
G54D10*
D03*
X-988768Y501743D02*
G54D10*
D03*
X-938494Y710968D02*
G54D10*
D03*
X-989468Y710868D02*
G54D10*
D03*
X-617818Y898293D02*
G54D10*
D03*
X-643294Y898293D02*
G54D10*
D03*
X-903568Y679218D02*
G54D10*
D03*
X-827318Y679168D02*
G54D10*
D03*
X-840094Y714168D02*
G54D10*
D03*
X-890994Y713968D02*
G54D10*
D03*
X-874994Y764943D02*
G54D10*
D03*
X-850094Y764643D02*
G54D10*
D03*
X-725768Y796693D02*
G54D10*
D03*
X-649594Y796693D02*
G54D10*
D03*
X-725768Y847493D02*
G54D10*
D03*
X-649594Y847543D02*
G54D10*
D03*
X-903594Y847543D02*
G54D10*
D03*
X-827393Y847543D02*
G54D10*
D03*
X-751168Y847493D02*
G54D10*
D03*
X-802085Y847368D02*
G54D10*
D03*
X-692544Y898293D02*
G54D38*
D03*
X-652468Y558878D02*
G54D10*
D03*
X-601488Y558990D02*
G54D10*
D03*
X-592369Y393418D02*
G54D10*
D03*
X-739294Y252943D02*
G54D36*
D03*
X-764594Y253143D02*
G54D36*
D03*
X-790081Y253074D02*
G54D36*
D03*
X-402044Y241632D02*
G54D30*
D03*
X-427444Y241632D02*
G54D30*
D03*
X-402044Y292432D02*
G54D30*
D03*
X-427444Y292432D02*
G54D30*
D03*
X-503644Y241632D02*
G54D29*
D03*
X-503644Y292432D02*
G54D30*
D03*
X-359435Y232748D02*
G54D12*
D03*
X-359435Y334348D02*
G54D12*
D03*
X-321242Y158639D02*
G54D12*
D03*
X-402044Y415066D02*
G54D30*
D03*
X-427444Y415067D02*
G54D30*
D03*
X-402044Y465866D02*
G54D30*
D03*
X-427444Y465866D02*
G54D30*
D03*
X-503644Y415066D02*
G54D30*
D03*
X-503644Y465866D02*
G54D30*
D03*
X-435144Y372437D02*
G54D21*
D03*
X-460127Y321504D02*
G54D21*
D03*
X-485026Y372551D02*
G54D21*
D03*
X-399662Y764317D02*
G54D30*
D03*
X-425062Y764316D02*
G54D30*
D03*
X-399662Y815116D02*
G54D30*
D03*
X-425062Y815116D02*
G54D30*
D03*
X-501262Y764316D02*
G54D30*
D03*
X-501262Y815116D02*
G54D30*
D03*
X-399662Y939735D02*
G54D30*
D03*
X-425062Y939735D02*
G54D30*
D03*
X-399662Y990536D02*
G54D30*
D03*
X-425062Y990535D02*
G54D30*
D03*
X-501262Y939736D02*
G54D30*
D03*
X-501262Y990535D02*
G54D30*
D03*
X-432762Y901074D02*
G54D21*
D03*
X-457746Y850142D02*
G54D21*
D03*
X-482645Y901188D02*
G54D21*
D03*
X-436731Y634771D02*
G54D21*
D03*
X-461714Y583839D02*
G54D21*
D03*
X-486614Y634886D02*
G54D21*
D03*
X-401250Y677798D02*
G54D30*
D03*
X-426650Y677798D02*
G54D30*
D03*
X-401250Y728598D02*
G54D30*
D03*
X-426650Y728598D02*
G54D30*
D03*
X-502850Y677798D02*
G54D30*
D03*
X-502850Y728598D02*
G54D30*
D03*
X-402837Y505554D02*
G54D30*
D03*
X-428237Y505554D02*
G54D30*
D03*
X-402837Y556354D02*
G54D30*
D03*
X-428237Y556354D02*
G54D30*
D03*
X-504437Y505554D02*
G54D30*
D03*
X-504437Y556354D02*
G54D30*
D03*
X-359435Y368083D02*
G54D12*
D03*
X-359435Y469683D02*
G54D12*
D03*
X-359038Y504211D02*
G54D12*
D03*
X-359038Y605811D02*
G54D12*
D03*
X-359038Y638752D02*
G54D12*
D03*
X-359038Y740352D02*
G54D12*
D03*
X-360228Y773292D02*
G54D12*
D03*
X-360228Y874892D02*
G54D12*
D03*
X-361816Y906642D02*
G54D12*
D03*
X-361816Y1008242D02*
G54D12*
D03*
X-311543Y772086D02*
G54D21*
D03*
X-548874Y244242D02*
G54D21*
D03*
X-503644Y292432D02*
G54D29*
D03*
X-427444Y241632D02*
G54D29*
D03*
X-402044Y241632D02*
G54D29*
D03*
X-427444Y292432D02*
G54D29*
D03*
X-402044Y292432D02*
G54D29*
D03*
X-503644Y415066D02*
G54D29*
D03*
X-503644Y465866D02*
G54D29*
D03*
X-427444Y415067D02*
G54D29*
D03*
X-402044Y415066D02*
G54D29*
D03*
X-402044Y465866D02*
G54D29*
D03*
X-427443Y465866D02*
G54D29*
D03*
X-428237Y505554D02*
G54D29*
D03*
X-402837Y505554D02*
G54D29*
D03*
X-402837Y556354D02*
G54D29*
D03*
X-428237Y556354D02*
G54D29*
D03*
X-504437Y505554D02*
G54D29*
D03*
X-504437Y556354D02*
G54D29*
D03*
X-502850Y677798D02*
G54D29*
D03*
X-426650Y677798D02*
G54D29*
D03*
X-502850Y728598D02*
G54D29*
D03*
X-426650Y728598D02*
G54D29*
D03*
X-401250Y728598D02*
G54D29*
D03*
X-401250Y677798D02*
G54D29*
D03*
X-501262Y764316D02*
G54D29*
D03*
X-501262Y815116D02*
G54D29*
D03*
X-425062Y764316D02*
G54D29*
D03*
X-399662Y764317D02*
G54D29*
D03*
X-399662Y815116D02*
G54D29*
D03*
X-425062Y815117D02*
G54D29*
D03*
X-501262Y939736D02*
G54D29*
D03*
X-501262Y990535D02*
G54D29*
D03*
X-425062Y939735D02*
G54D29*
D03*
X-399662Y939735D02*
G54D29*
D03*
X-399662Y990536D02*
G54D29*
D03*
X-425062Y990535D02*
G54D29*
D03*
X-436731Y634771D02*
G54D21*
D03*
X-432762Y901074D02*
G54D21*
D03*
X-404028Y47959D02*
G54D30*
D03*
X-429428Y47959D02*
G54D30*
D03*
X-404028Y98759D02*
G54D30*
D03*
X-429428Y98759D02*
G54D30*
D03*
X-505628Y47959D02*
G54D29*
D03*
X-505628Y98759D02*
G54D30*
D03*
X-505628Y98759D02*
G54D29*
D03*
X-429428Y47959D02*
G54D29*
D03*
X-404028Y47959D02*
G54D29*
D03*
X-429428Y98759D02*
G54D29*
D03*
X-404028Y98759D02*
G54D29*
D03*
X-542697Y143837D02*
G54D21*
D03*
X-567680Y92904D02*
G54D21*
D03*
X-592579Y143951D02*
G54D21*
D03*
X-367280Y157448D02*
G54D12*
D03*
X-367280Y55849D02*
G54D12*
D03*
X-321242Y158639D02*
G54D12*
D03*
X-321242Y57039D02*
G54D12*
D03*
X-403234Y150353D02*
G54D30*
D03*
X-428634Y150353D02*
G54D30*
D03*
X-403234Y201153D02*
G54D30*
D03*
X-428634Y201153D02*
G54D30*
D03*
X-504834Y150352D02*
G54D29*
D03*
X-504835Y201153D02*
G54D30*
D03*
X-504835Y201153D02*
G54D29*
D03*
X-428634Y150353D02*
G54D29*
D03*
X-403234Y150353D02*
G54D29*
D03*
X-428635Y201153D02*
G54D29*
D03*
X-403234Y201153D02*
G54D29*
D03*
X-637734Y1050275D02*
G54D39*
D03*
X-637734Y135875D02*
G54D23*
D03*
X-696749Y87231D02*
G54D40*
D03*
X-696749Y106281D02*
G54D40*
D03*
X-696749Y125331D02*
G54D40*
D03*
X-696749Y144381D02*
G54D40*
D03*
X-696749Y163431D02*
G54D40*
D03*
X-696749Y182481D02*
G54D40*
D03*
X-696749Y185656D02*
G54D40*
D03*
X-696749Y68181D02*
G54D40*
D03*
X-696749Y49131D02*
G54D40*
D03*
X-696749Y26906D02*
G54D40*
D03*
X-301818Y1002482D02*
G54D12*
D03*
X-410769Y1620287D02*
G54D10*
D03*
X219210Y638233D02*
G54D10*
D03*
X812470Y707572D02*
G54D21*
D03*
X812470Y682172D02*
G54D21*
D03*
X812470Y656772D02*
G54D21*
D03*
X141314Y2015703D02*
G54D23*
D03*
X736679Y2015534D02*
G54D23*
D03*
X736678Y1178921D02*
G54D12*
D03*
X325464Y2015703D02*
G54D12*
D03*
X223864Y2018878D02*
G54D12*
D03*
X179414Y2018878D02*
G54D12*
D03*
X-1309688Y994569D02*
G54D10*
D03*
X-1309738Y918319D02*
G54D10*
D03*
X-1309738Y918319D02*
G54D13*
D03*
X-1309738Y918319D02*
G54D13*
D03*
X-1322623Y1040998D02*
G54D10*
D03*
X-1297148Y1040998D02*
G54D10*
D03*
X-461452Y1586314D02*
G54D10*
D03*
X-488439Y1586314D02*
G54D10*
D03*
X-324926Y1692677D02*
G54D10*
D03*
X-324926Y1667277D02*
G54D10*
D03*
X-324926Y1632352D02*
G54D15*
D03*
X-490026Y1619652D02*
G54D15*
D03*
X770448Y1565677D02*
G54D10*
D03*
X770448Y1540277D02*
G54D10*
D03*
X743346Y1583373D02*
G54D15*
D03*
X786324Y1191027D02*
G54D10*
D03*
X786324Y1165627D02*
G54D10*
D03*
X814962Y1213644D02*
G54D15*
D03*
X227524Y1019577D02*
G54D10*
D03*
X227524Y997352D02*
G54D10*
D03*
X230762Y1061244D02*
G54D15*
D03*
X233936Y959644D02*
G54D15*
D03*
X-157877Y978770D02*
G54D10*
D03*
X-173593Y994486D02*
G54D10*
D03*
X-162938Y953294D02*
G54D15*
D03*
X-194688Y985044D02*
G54D15*
D03*
X-458276Y1626002D02*
G54D15*
D03*
X741874Y1549802D02*
G54D15*
D03*
X811724Y1549802D02*
G54D15*
D03*
X808612Y1518444D02*
G54D15*
D03*
X824424Y1187852D02*
G54D15*
D03*
X757812Y1150144D02*
G54D15*
D03*
X-432876Y1562502D02*
G54D15*
D03*
X-407476Y1562502D02*
G54D15*
D03*
X233874Y1087840D02*
G54D15*
D03*
X233874Y937027D02*
G54D15*
D03*
X-201895Y1010052D02*
G54D15*
D03*
X-139189Y994177D02*
G54D15*
D03*
X-1180042Y430686D02*
G54D23*
D03*
X-1245129Y430686D02*
G54D23*
D03*
X-1177660Y214786D02*
G54D23*
D03*
X-1244732Y214786D02*
G54D23*
D03*
X-1148688Y430686D02*
G54D23*
D03*
X-1278070Y430686D02*
G54D23*
D03*
X-1137179Y214786D02*
G54D23*
D03*
X-1289579Y214786D02*
G54D23*
D03*
X-1191301Y317983D02*
G54D10*
D03*
X-1115051Y317934D02*
G54D10*
D03*
X-1299011Y370338D02*
G54D10*
D03*
X-1257829Y316386D02*
G54D10*
D03*
X-1077475Y215620D02*
G54D12*
D03*
X-1077475Y114020D02*
G54D12*
D03*
X-1289579Y214786D02*
G54D12*
D03*
X-1289579Y113186D02*
G54D12*
D03*
X-1041569Y182569D02*
G54D10*
D03*
X-1041457Y131588D02*
G54D10*
D03*
X-1328906Y182569D02*
G54D10*
D03*
X-1328794Y131588D02*
G54D10*
D03*
X-1305189Y84343D02*
G54D21*
D03*
X-1280290Y33296D02*
G54D21*
D03*
X-1146023Y33411D02*
G54D21*
D03*
X-1121039Y84343D02*
G54D21*
D03*
X-1096140Y33296D02*
G54D21*
D03*
X-1189206Y100018D02*
G54D10*
D03*
X-1189094Y49038D02*
G54D10*
D03*
X-1227306Y100018D02*
G54D10*
D03*
X-1227194Y49038D02*
G54D10*
D03*
X-1191251Y6783D02*
G54D10*
D03*
X-1242051Y6783D02*
G54D10*
D03*
X-1302279Y430686D02*
G54D23*
D03*
X-1118129Y430686D02*
G54D23*
D03*
X-1323823Y33411D02*
G54D21*
D03*
X-991868Y354018D02*
G54D10*
D03*
X-1350643Y453137D02*
G54D10*
D03*
X-1350644Y478637D02*
G54D10*
D03*
X-548060Y2140082D02*
G54D12*
D03*
X-668710Y2143255D02*
G54D12*
D03*
X-548060Y2260732D02*
G54D12*
D03*
X-668710Y2260732D02*
G54D12*
D03*
X-687522Y2200406D02*
G54D12*
D03*
X-668710Y2143255D02*
G54D12*
D03*
X-742138Y2157014D02*
G54D33*
D03*
X-742138Y2258613D02*
G54D33*
D03*
X-742138Y2157013D02*
G54D10*
D03*
X-668710Y2143255D02*
G54D12*
D03*
X-244034Y2142475D02*
G54D12*
D03*
X-364684Y2145649D02*
G54D12*
D03*
X-244034Y2263125D02*
G54D12*
D03*
X-364684Y2263125D02*
G54D12*
D03*
X-383496Y2202800D02*
G54D12*
D03*
X-364684Y2145648D02*
G54D12*
D03*
X-438112Y2159407D02*
G54D33*
D03*
X-438112Y2261007D02*
G54D33*
D03*
X-438112Y2159407D02*
G54D10*
D03*
X-364684Y2145649D02*
G54D12*
D03*
X-1255686Y2095078D02*
G54D12*
D03*
X-1326338Y2195113D02*
G54D41*
D03*
X-827312Y2074310D02*
G54D22*
D03*
X-1208312Y2025891D02*
G54D22*
D03*
X-1219424Y1094028D02*
G54D14*
D03*
X-1034025Y1097072D02*
G54D42*
D03*
X-1027501Y2041067D02*
G54D39*
D03*
X-878703Y2050973D02*
G54D42*
D03*
X-1042751Y-99706D02*
G54D12*
D03*
X-1039577Y20944D02*
G54D12*
D03*
X-922101Y-99705D02*
G54D12*
D03*
X-922101Y20944D02*
G54D12*
D03*
X-982426Y39757D02*
G54D12*
D03*
X-1039578Y20944D02*
G54D12*
D03*
X-922101Y20944D02*
G54D12*
D03*
X-1085938Y-114286D02*
G54D33*
D03*
X-1085938Y-12687D02*
G54D33*
D03*
X-118739Y1277301D02*
G54D10*
D03*
X-175302Y1760958D02*
G54D10*
D03*
X-155684Y1780576D02*
G54D10*
D03*
X-118739Y1353501D02*
G54D10*
D03*
X-194939Y1378901D02*
G54D10*
D03*
X-494904Y1215073D02*
G54D10*
D03*
X-469504Y1037273D02*
G54D10*
D03*
X-1029776Y368702D02*
G54D15*
D03*
X-981752Y910058D02*
G54D10*
D03*
X-963721Y928090D02*
G54D10*
D03*
X-953576Y959252D02*
G54D15*
D03*
X-928176Y959252D02*
G54D15*
D03*
X-636351Y-315606D02*
G54D12*
D03*
X-633177Y-194956D02*
G54D12*
D03*
X-515701Y-315605D02*
G54D12*
D03*
X-515701Y-194956D02*
G54D12*
D03*
X-633178Y-194956D02*
G54D12*
D03*
X-515701Y-194956D02*
G54D12*
D03*
X-698911Y-244742D02*
G54D33*
D03*
X-698911Y-143142D02*
G54D33*
D03*
X-936122Y-206226D02*
G54D10*
D03*
X-936122Y-231726D02*
G54D10*
D03*
X-1460104Y2516982D02*
G54D22*
D03*
X-764382Y2334419D02*
G54D43*
D03*
X-1361282Y-100806D02*
G54D22*
D03*
X-832633Y2237959D02*
G54D12*
D03*
X-832633Y2206209D02*
G54D12*
D03*
X-832633Y2174459D02*
G54D12*
D03*
X-924483Y2141854D02*
G54D10*
D03*
X-876683Y2141854D02*
G54D10*
D03*
X-921308Y2268854D02*
G54D10*
D03*
X-873508Y2268854D02*
G54D10*
D03*
X-997733Y2231609D02*
G54D12*
D03*
X-997733Y2199859D02*
G54D12*
D03*
X-997733Y2168109D02*
G54D12*
D03*
X-1089583Y2138679D02*
G54D10*
D03*
X-1041783Y2138679D02*
G54D10*
D03*
X-1111808Y2246628D02*
G54D10*
D03*
X-1064008Y2246629D02*
G54D10*
D03*
X-1004885Y-266380D02*
G54D12*
D03*
X-1004885Y-234631D02*
G54D12*
D03*
X-1004884Y-202881D02*
G54D12*
D03*
X-1074122Y-159592D02*
G54D10*
D03*
X-1074122Y-207392D02*
G54D10*
D03*
X-1085938Y-114286D02*
G54D12*
D03*
X-698911Y-244742D02*
G54D12*
D03*
X-175638Y1810544D02*
G54D15*
D03*
X-185226Y1791102D02*
G54D15*
D03*
X-159198Y1900588D02*
G54D10*
D03*
X-141167Y1918619D02*
G54D10*
D03*
X-162938Y1943894D02*
G54D15*
D03*
X-182051Y1927627D02*
G54D15*
D03*
X-1269188Y2277663D02*
G54D41*
D03*
X-1186772Y2390125D02*
G54D12*
D03*
X-1135972Y2390125D02*
G54D12*
D03*
X-1085172Y2390125D02*
G54D12*
D03*
X-1034372Y2390125D02*
G54D12*
D03*
X-1351872Y2419890D02*
G54D44*
D03*
X-914470Y1722810D02*
G54D31*
D03*
X-977970Y1506909D02*
G54D31*
D03*
X-914470Y1506910D02*
G54D31*
D03*
X-977970Y1291009D02*
G54D31*
D03*
X-914470Y1291009D02*
G54D31*
D03*
X-301907Y1695852D02*
G54D15*
D03*
X691727Y894606D02*
G54D10*
D03*
X691677Y818356D02*
G54D10*
D03*
X772720Y898006D02*
G54D10*
D03*
X772608Y948986D02*
G54D10*
D03*
X658421Y923406D02*
G54D10*
D03*
X658308Y974386D02*
G54D10*
D03*
X691711Y1123206D02*
G54D10*
D03*
X691661Y1046956D02*
G54D10*
D03*
X570990Y866592D02*
G54D10*
D03*
X647240Y866542D02*
G54D10*
D03*
X646031Y1046956D02*
G54D10*
D03*
X646081Y1123206D02*
G54D10*
D03*
X513928Y894606D02*
G54D10*
D03*
X513878Y818357D02*
G54D10*
D03*
X616596Y1019122D02*
G54D10*
D03*
X519031Y1021556D02*
G54D10*
D03*
X519081Y1097806D02*
G54D10*
D03*
X442831Y1021556D02*
G54D10*
D03*
X442881Y1097806D02*
G54D10*
D03*
X392031Y1021556D02*
G54D10*
D03*
X392081Y1097806D02*
G54D10*
D03*
X292560Y955512D02*
G54D10*
D03*
X343540Y955624D02*
G54D10*
D03*
X364014Y824788D02*
G54D10*
D03*
X440264Y824738D02*
G54D10*
D03*
X579356Y942180D02*
G54D11*
D03*
X595256Y959756D02*
G54D11*
D03*
X579322Y977372D02*
G54D11*
D03*
X477756Y942181D02*
G54D11*
D03*
X493656Y959756D02*
G54D11*
D03*
X477721Y977372D02*
G54D11*
D03*
X401556Y942181D02*
G54D11*
D03*
X417456Y959756D02*
G54D11*
D03*
X401521Y977372D02*
G54D11*
D03*
X796868Y1019074D02*
G54D12*
D03*
X746068Y1019074D02*
G54D12*
D03*
X771468Y1044474D02*
G54D12*
D03*
X746068Y1069874D02*
G54D12*
D03*
X796868Y1069874D02*
G54D12*
D03*
X328556Y1018281D02*
G54D12*
D03*
X277756Y1018281D02*
G54D12*
D03*
X303156Y1043681D02*
G54D12*
D03*
X277756Y1069081D02*
G54D12*
D03*
X328556Y1069080D02*
G54D12*
D03*
X627030Y793972D02*
G54D10*
D03*
X576050Y793859D02*
G54D10*
D03*
X691711Y1123206D02*
G54D13*
D03*
X646081Y1123206D02*
G54D13*
D03*
X519081Y1097806D02*
G54D13*
D03*
X442881Y1097806D02*
G54D13*
D03*
X691711Y1123206D02*
G54D13*
D03*
X816132Y763588D02*
G54D14*
D03*
X565796Y1019122D02*
G54D10*
D03*
X563481Y1046956D02*
G54D10*
D03*
X563531Y1123206D02*
G54D10*
D03*
X823256Y967581D02*
G54D15*
D03*
X646081Y1123206D02*
G54D13*
D03*
X563531Y1123206D02*
G54D13*
D03*
X519081Y1097806D02*
G54D13*
D03*
X442881Y1097806D02*
G54D13*
D03*
X256935Y1120775D02*
G54D14*
D03*
X736678Y1178922D02*
G54D45*
D03*
X265656Y977981D02*
G54D15*
D03*
X769912Y840682D02*
G54D45*
D03*
X300012Y840682D02*
G54D37*
D03*
X336390Y705441D02*
G54D45*
D03*
X381340Y1826370D02*
G54D10*
D03*
X381390Y1902620D02*
G54D10*
D03*
X300347Y1822969D02*
G54D10*
D03*
X300459Y1771988D02*
G54D10*
D03*
X414646Y1797570D02*
G54D10*
D03*
X414758Y1746589D02*
G54D10*
D03*
X381356Y1597770D02*
G54D10*
D03*
X381406Y1674020D02*
G54D10*
D03*
X502077Y1854384D02*
G54D10*
D03*
X425827Y1854434D02*
G54D10*
D03*
X427036Y1674020D02*
G54D10*
D03*
X426986Y1597770D02*
G54D10*
D03*
X559140Y1826368D02*
G54D10*
D03*
X559189Y1902618D02*
G54D10*
D03*
X456471Y1701853D02*
G54D10*
D03*
X554036Y1699420D02*
G54D10*
D03*
X553986Y1623170D02*
G54D10*
D03*
X630236Y1699420D02*
G54D10*
D03*
X630186Y1623170D02*
G54D10*
D03*
X681036Y1699420D02*
G54D10*
D03*
X680986Y1623170D02*
G54D10*
D03*
X780508Y1765464D02*
G54D10*
D03*
X729527Y1765352D02*
G54D10*
D03*
X709052Y1896188D02*
G54D10*
D03*
X632803Y1896238D02*
G54D10*
D03*
X493711Y1778795D02*
G54D11*
D03*
X477811Y1761220D02*
G54D11*
D03*
X493745Y1743604D02*
G54D11*
D03*
X595311Y1778794D02*
G54D11*
D03*
X579411Y1761220D02*
G54D11*
D03*
X595346Y1743604D02*
G54D11*
D03*
X671511Y1778794D02*
G54D11*
D03*
X655611Y1761220D02*
G54D11*
D03*
X671546Y1743604D02*
G54D11*
D03*
X274611Y1702695D02*
G54D12*
D03*
X325411Y1702694D02*
G54D12*
D03*
X300011Y1677295D02*
G54D12*
D03*
X325411Y1651894D02*
G54D12*
D03*
X274611Y1651894D02*
G54D12*
D03*
X744511Y1702694D02*
G54D12*
D03*
X795311Y1702694D02*
G54D12*
D03*
X769910Y1677294D02*
G54D12*
D03*
X795310Y1651894D02*
G54D12*
D03*
X744511Y1651894D02*
G54D12*
D03*
X446037Y1927004D02*
G54D10*
D03*
X497017Y1927116D02*
G54D10*
D03*
X381356Y1597770D02*
G54D13*
D03*
X426986Y1597770D02*
G54D13*
D03*
X553986Y1623170D02*
G54D13*
D03*
X630186Y1623170D02*
G54D13*
D03*
X381356Y1597770D02*
G54D13*
D03*
X256935Y1957388D02*
G54D14*
D03*
X507271Y1701853D02*
G54D10*
D03*
X509586Y1674020D02*
G54D10*
D03*
X509536Y1597770D02*
G54D10*
D03*
X338586Y1959170D02*
G54D23*
D03*
X249811Y1753395D02*
G54D15*
D03*
X426986Y1597770D02*
G54D13*
D03*
X509536Y1597770D02*
G54D13*
D03*
X553986Y1623170D02*
G54D13*
D03*
X630186Y1623170D02*
G54D13*
D03*
X816767Y1956594D02*
G54D14*
D03*
X256935Y1598613D02*
G54D22*
D03*
X816132Y1600200D02*
G54D14*
D03*
X807411Y1742995D02*
G54D15*
D03*
X-207639Y1086801D02*
G54D46*
D03*
X-182239Y1086801D02*
G54D46*
D03*
X744701Y811131D02*
G54D12*
D03*
X-826924Y-27069D02*
G54D40*
D03*
X-696749Y4681D02*
G54D40*
D03*
X-696749Y-27069D02*
G54D40*
D03*
X-791999Y-27069D02*
G54D40*
D03*
X-772949Y-27069D02*
G54D40*
D03*
X-753899Y-27069D02*
G54D40*
D03*
X-734849Y-27069D02*
G54D40*
D03*
X-715799Y-27069D02*
G54D40*
D03*
X-811049Y-27069D02*
G54D40*
D03*
X-696749Y-27069D02*
G54D40*
D03*
X-861849Y7856D02*
G54D40*
D03*
X-861849Y26906D02*
G54D40*
D03*
X-861849Y-27069D02*
G54D40*
D03*
X-861849Y163431D02*
G54D12*
D03*
X-861849Y182481D02*
G54D40*
D03*
X-861849Y185656D02*
G54D40*
D03*
X-861849Y106281D02*
G54D40*
D03*
X-861849Y125331D02*
G54D40*
D03*
X-861849Y144381D02*
G54D40*
D03*
X-861849Y163431D02*
G54D40*
D03*
X-861849Y49131D02*
G54D40*
D03*
X-861849Y68181D02*
G54D40*
D03*
X-861849Y87231D02*
G54D40*
D03*
X-861849Y106281D02*
G54D40*
D03*
X-842799Y-27069D02*
G54D40*
D03*
X-1050234Y1016557D02*
G54D10*
D03*
X-1050234Y993042D02*
G54D10*
D03*
X-1024834Y1016557D02*
G54D10*
D03*
X-1024834Y993042D02*
G54D10*
D03*
X-1329294Y511245D02*
G54D10*
D03*
X843994Y226289D02*
G54D21*
D03*
X-1303173Y-352104D02*
G54D10*
D03*
X-1303224Y-377678D02*
G54D10*
D03*
X-1303224Y-377678D02*
G54D10*
D03*
X-1303274Y-403252D02*
G54D10*
D03*
X-1206422Y2307634D02*
G54D12*
D03*
X-1421722Y-143525D02*
G54D12*
D03*
X-1421722Y-194325D02*
G54D12*
D03*
X-1421722Y-245125D02*
G54D12*
D03*
X-1421722Y-295925D02*
G54D12*
D03*
X-1303274Y-403252D02*
G54D10*
D03*
X-1303325Y-428827D02*
G54D10*
D03*
X-1303325Y-428827D02*
G54D10*
D03*
X-1303375Y-454402D02*
G54D10*
D03*
X-117351Y2283586D02*
G54D11*
D03*
X-133251Y2266011D02*
G54D11*
D03*
X-117316Y2248395D02*
G54D11*
D03*
X221945Y2100379D02*
G54D10*
D03*
X221995Y2176628D02*
G54D10*
D03*
X-314053Y2322756D02*
G54D10*
D03*
X-237803Y2322706D02*
G54D10*
D03*
X126760Y1354137D02*
G54D22*
D03*
X-428854Y1025583D02*
G54D10*
D03*
X-452438Y1125538D02*
G54D21*
D03*
X352281Y2313843D02*
G54D47*
D03*
X352281Y2303683D02*
G54D47*
D03*
X352281Y2294031D02*
G54D47*
D03*
X352281Y2283871D02*
G54D47*
D03*
X352281Y2273965D02*
G54D47*
D03*
X30717Y2218339D02*
G54D48*
D03*
X56117Y2218339D02*
G54D48*
D03*
X81517Y2218339D02*
G54D48*
D03*
X106917Y2218339D02*
G54D48*
D03*
X132317Y2218339D02*
G54D48*
D03*
X157717Y2218339D02*
G54D48*
D03*
X183117Y2218339D02*
G54D48*
D03*
X208517Y2218339D02*
G54D48*
D03*
X233917Y2218339D02*
G54D48*
D03*
X259317Y2218339D02*
G54D48*
D03*
X284717Y2218339D02*
G54D48*
D03*
X310117Y2218339D02*
G54D48*
D03*
X335517Y2218339D02*
G54D48*
D03*
X360917Y2218339D02*
G54D48*
D03*
X386317Y2218339D02*
G54D48*
D03*
X30717Y2370739D02*
G54D48*
D03*
X56117Y2370739D02*
G54D48*
D03*
X81517Y2370739D02*
G54D48*
D03*
X106917Y2370739D02*
G54D48*
D03*
X132317Y2370739D02*
G54D48*
D03*
X157717Y2370739D02*
G54D48*
D03*
X183117Y2370739D02*
G54D48*
D03*
X208517Y2370739D02*
G54D48*
D03*
X233917Y2370739D02*
G54D48*
D03*
X259317Y2370739D02*
G54D48*
D03*
X284717Y2370739D02*
G54D48*
D03*
X310117Y2370739D02*
G54D48*
D03*
X335517Y2370739D02*
G54D48*
D03*
X360917Y2370739D02*
G54D48*
D03*
X386317Y2370739D02*
G54D48*
D03*
X5476Y2370898D02*
G54D49*
D03*
X5476Y2218498D02*
G54D49*
D03*
X31733Y2319685D02*
G54D48*
D03*
X6333Y2319685D02*
G54D48*
D03*
X31733Y2294285D02*
G54D48*
D03*
X6333Y2294285D02*
G54D48*
D03*
X31733Y2268885D02*
G54D48*
D03*
X6333Y2268885D02*
G54D48*
D03*
X-529010Y2206755D02*
G54D12*
D03*
X-390189Y2360772D02*
G54D10*
D03*
X-466439Y2360823D02*
G54D10*
D03*
X-180615Y2265045D02*
G54D10*
D03*
X-180665Y2188795D02*
G54D10*
D03*
X-142515Y2172970D02*
G54D10*
D03*
X-142566Y2096720D02*
G54D10*
D03*
X-510734Y2078975D02*
G54D12*
D03*
X67116Y2339325D02*
G54D12*
D03*
X-155303Y2411656D02*
G54D10*
D03*
X-79053Y2411606D02*
G54D10*
D03*
X-217914Y2371912D02*
G54D10*
D03*
X-217914Y2419712D02*
G54D10*
D03*
X-65504Y2362330D02*
G54D10*
D03*
X-116485Y2362218D02*
G54D10*
D03*
X174749Y2156586D02*
G54D11*
D03*
X158849Y2139011D02*
G54D11*
D03*
X174784Y2121395D02*
G54D11*
D03*
X44155Y2113152D02*
G54D10*
D03*
X120405Y2113102D02*
G54D10*
D03*
X-57445Y2138552D02*
G54D10*
D03*
X18805Y2138502D02*
G54D10*
D03*
X425155Y2036952D02*
G54D10*
D03*
X906860Y2477447D02*
G54D22*
D03*
X-260306Y1205104D02*
G54D31*
D03*
X-222206Y1246379D02*
G54D31*
D03*
X-349126Y2353436D02*
G54D11*
D03*
X-365026Y2335861D02*
G54D11*
D03*
X-349091Y2318245D02*
G54D11*
D03*
X-1206422Y2231434D02*
G54D12*
D03*
X-1181022Y2231434D02*
G54D12*
D03*
X-901622Y2409234D02*
G54D12*
D03*
X-876222Y2409234D02*
G54D12*
D03*
X-901622Y2345734D02*
G54D12*
D03*
X-624314Y2390962D02*
G54D10*
D03*
X-624314Y2438762D02*
G54D10*
D03*
X-894328Y-371798D02*
G54D11*
D03*
X-911903Y-355898D02*
G54D11*
D03*
X-929518Y-371833D02*
G54D11*
D03*
X-523303Y-482890D02*
G54D10*
D03*
X-328101Y876702D02*
G54D15*
D03*
X-324926Y1035452D02*
G54D15*
D03*
X-328101Y743352D02*
G54D15*
D03*
X-328101Y610002D02*
G54D15*
D03*
X-328101Y476652D02*
G54D15*
D03*
X-328101Y343302D02*
G54D15*
D03*
X-347151Y38502D02*
G54D15*
D03*
X-290001Y73427D02*
G54D15*
D03*
X-1189946Y2475850D02*
G54D12*
D03*
X-1139146Y2475850D02*
G54D12*
D03*
X-1088346Y2475850D02*
G54D12*
D03*
X-1037546Y2475850D02*
G54D12*
D03*
X-1062946Y2431400D02*
G54D12*
D03*
X493878Y2332798D02*
G54D30*
D03*
X493878Y2358198D02*
G54D30*
D03*
X544678Y2332798D02*
G54D30*
D03*
X544678Y2358198D02*
G54D30*
D03*
X493878Y2434398D02*
G54D30*
D03*
X544678Y2434398D02*
G54D30*
D03*
X582778Y2332798D02*
G54D30*
D03*
X582778Y2358198D02*
G54D30*
D03*
X633578Y2332798D02*
G54D30*
D03*
X633578Y2358198D02*
G54D30*
D03*
X582778Y2434398D02*
G54D30*
D03*
X633578Y2434398D02*
G54D30*
D03*
X671678Y2332798D02*
G54D30*
D03*
X671678Y2358198D02*
G54D30*
D03*
X722478Y2332798D02*
G54D30*
D03*
X722478Y2358198D02*
G54D30*
D03*
X671678Y2434398D02*
G54D30*
D03*
X722478Y2434398D02*
G54D30*
D03*
X760578Y2332798D02*
G54D30*
D03*
X760578Y2358198D02*
G54D30*
D03*
X811378Y2332798D02*
G54D30*
D03*
X811378Y2358198D02*
G54D30*
D03*
X760578Y2434398D02*
G54D30*
D03*
X811378Y2434398D02*
G54D30*
D03*
X514045Y2170229D02*
G54D10*
D03*
X514095Y2246478D02*
G54D10*
D03*
X602945Y2170229D02*
G54D10*
D03*
X602995Y2246478D02*
G54D10*
D03*
X698195Y2170229D02*
G54D10*
D03*
X698245Y2246478D02*
G54D10*
D03*
X653745Y2170229D02*
G54D10*
D03*
X653795Y2246478D02*
G54D10*
D03*
X564845Y2170229D02*
G54D10*
D03*
X564895Y2246478D02*
G54D10*
D03*
X742645Y2170229D02*
G54D10*
D03*
X742695Y2246478D02*
G54D10*
D03*
X834085Y2170229D02*
G54D10*
D03*
X834135Y2246478D02*
G54D10*
D03*
X787095Y2170229D02*
G54D10*
D03*
X787145Y2246478D02*
G54D10*
D03*
X495696Y2288348D02*
G54D21*
D03*
X521096Y2288348D02*
G54D21*
D03*
X546496Y2288348D02*
G54D21*
D03*
X584596Y2288348D02*
G54D21*
D03*
X609996Y2288348D02*
G54D21*
D03*
X635396Y2288348D02*
G54D21*
D03*
X673496Y2288348D02*
G54D21*
D03*
X698896Y2288348D02*
G54D21*
D03*
X724296Y2288348D02*
G54D21*
D03*
X762396Y2288348D02*
G54D21*
D03*
X787796Y2288348D02*
G54D21*
D03*
X813196Y2288348D02*
G54D21*
D03*
X495696Y2288348D02*
G54D12*
D03*
X584596Y2288348D02*
G54D12*
D03*
X673496Y2288348D02*
G54D12*
D03*
X762396Y2288348D02*
G54D12*
D03*
X423754Y2410850D02*
G54D50*
D03*
X859064Y2340850D02*
G54D12*
D03*
X734481Y761806D02*
G54D12*
D03*
X470308Y1586308D02*
G54D12*
D03*
X653664Y1585514D02*
G54D12*
D03*
X252027Y2016520D02*
G54D12*
D03*
X816132Y1600200D02*
G54D22*
D03*
X816768Y1956594D02*
G54D22*
D03*
X256935Y1957388D02*
G54D22*
D03*
X256936Y1120775D02*
G54D22*
D03*
X816133Y763587D02*
G54D22*
D03*
X-173832Y1043782D02*
G54D22*
D03*
X-1126332Y1043782D02*
G54D22*
D03*
X-1219424Y1094029D02*
G54D22*
D03*
X-1126332Y145257D02*
G54D22*
D03*
X470309Y749695D02*
G54D12*
D03*
X572702Y748902D02*
G54D12*
D03*
X-967231Y138764D02*
G54D12*
D03*
X-986281Y1053164D02*
G54D12*
D03*
X729287Y1478478D02*
G54D18*
D03*
X-86688Y1192728D02*
G54D18*
D03*
X773737Y1253053D02*
G54D18*
D03*
X-20013Y1430853D02*
G54D18*
D03*
X106874Y1140227D02*
G54D29*
D03*
X43374Y989414D02*
G54D29*
D03*
X43374Y1013227D02*
G54D29*
D03*
X-1182524Y1617581D02*
G54D12*
D03*
X-1465027Y2328385D02*
G54D10*
D03*
X-1409289Y2328385D02*
G54D10*
D03*
X62942Y2433954D02*
G54D10*
D03*
X110742Y2433954D02*
G54D10*
D03*
X158194Y2397835D02*
G54D15*
D03*
X-1429665Y2205091D02*
G54D10*
D03*
X-1429777Y2256071D02*
G54D10*
D03*
X-1467765Y2205091D02*
G54D10*
D03*
X-1467877Y2256071D02*
G54D10*
D03*
X-1420089Y2386383D02*
G54D10*
D03*
X-1471069Y2386271D02*
G54D10*
D03*
X-553527Y1613302D02*
G54D10*
D03*
X-553527Y1635527D02*
G54D10*
D03*
X-539239Y1499002D02*
G54D10*
D03*
X-539239Y1521227D02*
G54D10*
D03*
X-512736Y1498178D02*
G54D51*
D03*
X-324926Y1929214D02*
G54D10*
D03*
X-204276Y1930802D02*
G54D10*
D03*
X287430Y2150550D02*
G54D10*
D03*
X312830Y2150550D02*
G54D10*
D03*
X338230Y2150550D02*
G54D10*
D03*
X363630Y2150550D02*
G54D10*
D03*
X389030Y2150550D02*
G54D10*
D03*
X414430Y2150550D02*
G54D10*
D03*
X439830Y2150550D02*
G54D10*
D03*
X312830Y2150550D02*
G54D10*
D03*
X-1085159Y1023204D02*
G54D10*
D03*
X-989909Y1022410D02*
G54D10*
D03*
X660070Y790122D02*
G54D21*
D03*
X742925Y504688D02*
G54D10*
D03*
X742975Y580938D02*
G54D10*
D03*
X850569Y555172D02*
G54D52*
D03*
X742975Y580938D02*
G54D10*
D03*
X742925Y504688D02*
G54D10*
D03*
X687961Y551657D02*
G54D10*
D03*
X687961Y586582D02*
G54D10*
D03*
X687961Y494507D02*
G54D10*
D03*
X687961Y450057D02*
G54D10*
D03*
X427611Y411957D02*
G54D10*
D03*
X465711Y411957D02*
G54D10*
D03*
X688328Y622786D02*
G54D10*
D03*
X764578Y622736D02*
G54D10*
D03*
X780036Y583407D02*
G54D10*
D03*
X777258Y545307D02*
G54D10*
D03*
X611898Y396112D02*
G54D10*
D03*
X659698Y396112D02*
G54D10*
D03*
X611898Y396112D02*
G54D10*
D03*
X442120Y625648D02*
G54D10*
D03*
X467620Y625648D02*
G54D10*
D03*
X524670Y625648D02*
G54D10*
D03*
X550170Y625648D02*
G54D10*
D03*
X784458Y391697D02*
G54D21*
D03*
X809858Y391698D02*
G54D21*
D03*
X672086Y284957D02*
G54D10*
D03*
X672086Y319882D02*
G54D10*
D03*
X672086Y227807D02*
G54D10*
D03*
X672086Y183357D02*
G54D10*
D03*
X414911Y145257D02*
G54D10*
D03*
X453011Y145257D02*
G54D10*
D03*
X429420Y358948D02*
G54D10*
D03*
X454920Y358948D02*
G54D10*
D03*
X511970Y358948D02*
G54D10*
D03*
X537470Y358948D02*
G54D10*
D03*
X800837Y244731D02*
G54D10*
D03*
X800837Y270231D02*
G54D10*
D03*
X396707Y516106D02*
G54D21*
D03*
X371723Y465174D02*
G54D21*
D03*
X346824Y516220D02*
G54D21*
D03*
X718746Y278881D02*
G54D10*
D03*
X718633Y329862D02*
G54D10*
D03*
X801922Y113884D02*
G54D21*
D03*
X827322Y113885D02*
G54D21*
D03*
X801128Y83324D02*
G54D21*
D03*
X826528Y83324D02*
G54D21*
D03*
X739952Y181372D02*
G54D10*
D03*
X748286Y219074D02*
G54D10*
D03*
X266250Y328764D02*
G54D10*
D03*
X266300Y354339D02*
G54D10*
D03*
X261487Y108895D02*
G54D10*
D03*
X261537Y134470D02*
G54D10*
D03*
X373688Y246230D02*
G54D21*
D03*
X348704Y195298D02*
G54D21*
D03*
X323805Y246345D02*
G54D21*
D03*
X599228Y656583D02*
G54D10*
D03*
X599278Y682158D02*
G54D10*
D03*
X217622Y589021D02*
G54D10*
D03*
X311242Y360393D02*
G54D10*
D03*
X262823Y408018D02*
G54D10*
D03*
X13596Y430850D02*
G54D10*
D03*
X12802Y405450D02*
G54D10*
D03*
X12802Y405450D02*
G54D10*
D03*
X12008Y380050D02*
G54D10*
D03*
X12008Y380050D02*
G54D10*
D03*
X11215Y354650D02*
G54D10*
D03*
X11214Y354650D02*
G54D10*
D03*
X10421Y329250D02*
G54D10*
D03*
X10421Y329250D02*
G54D10*
D03*
X9627Y303850D02*
G54D10*
D03*
X-5852Y430850D02*
G54D10*
D03*
X-6644Y379256D02*
G54D10*
D03*
X-7042Y328059D02*
G54D10*
D03*
X374449Y582998D02*
G54D10*
D03*
X264118Y521085D02*
G54D10*
D03*
X-440479Y1937737D02*
G54D45*
D03*
X-562717Y1956788D02*
G54D21*
D03*
X519278Y2434398D02*
G54D30*
D03*
X608178Y2434398D02*
G54D30*
D03*
X697078Y2434398D02*
G54D30*
D03*
X785978Y2434398D02*
G54D30*
D03*
X-367280Y157448D02*
G54D12*
D03*
X-359435Y232748D02*
G54D12*
D03*
X-359435Y368083D02*
G54D12*
D03*
X-359038Y504211D02*
G54D12*
D03*
X-359038Y638752D02*
G54D12*
D03*
X-360228Y773292D02*
G54D12*
D03*
X-361816Y906642D02*
G54D12*
D03*
X-569927Y357054D02*
G54D10*
D03*
X-551966Y339093D02*
G54D10*
D03*
X17179Y154006D02*
G54D10*
D03*
X17179Y179405D02*
G54D10*
D03*
X-563288Y839301D02*
G54D10*
D03*
X-545327Y857262D02*
G54D10*
D03*
X837089Y2094909D02*
G54D12*
D03*
X-1052299Y534694D02*
G54D12*
D03*
X-1177712Y537076D02*
G54D12*
D03*
X-698911Y-143142D02*
G54D12*
D03*
X406456Y2432625D02*
G54D10*
D03*
X330207Y2432675D02*
G54D10*
D03*
X158472Y2468790D02*
G54D12*
D03*
X195778Y2467996D02*
G54D12*
D03*
X787863Y67809D02*
G54D53*
D03*
X785482Y101940D02*
G54D53*
D03*
X797332Y152270D02*
G54D53*
D03*
X786275Y136866D02*
G54D53*
D03*
X765582Y412618D02*
G54D53*
D03*
X829082Y406268D02*
G54D53*
D03*
X756113Y424997D02*
G54D53*
D03*
X773970Y446031D02*
G54D53*
D03*
X768757Y247518D02*
G54D53*
D03*
X-1297755Y2169690D02*
G54D12*
D03*
X-1474761Y2169690D02*
G54D12*
D03*
X-1454917Y59109D02*
G54D12*
D03*
X-1191251Y-18617D02*
G54D10*
D03*
X-1191251Y6783D02*
G54D10*
D03*
X855928Y56887D02*
G54D21*
D03*
X884072Y351712D02*
G54D12*
D03*
G36*
X-1423888Y2535044D02*
X-1410433Y2548499D01*
X-1391343Y2548499D01*
X-1377888Y2535044D01*
X-1377888Y2475954D01*
X-1391343Y2462499D01*
X-1410433Y2462499D01*
X-1423888Y2475954D01*
X-1423888Y2535044D01*
G37*
X17180Y103206D02*
G54D10*
D03*
X17179Y128606D02*
G54D10*
D03*
X17179Y154006D02*
G54D10*
D03*
X-14571Y179405D02*
G54D10*
D03*
X-14571Y154005D02*
G54D10*
D03*
X182137Y237518D02*
G54D10*
D03*
X182136Y285318D02*
G54D10*
D03*
X126442Y490854D02*
G54D10*
D03*
X174242Y490854D02*
G54D10*
D03*
X187918Y444885D02*
G54D10*
D03*
X188496Y381130D02*
G54D10*
D03*
X137515Y381018D02*
G54D10*
D03*
X-308270Y2078354D02*
G54D10*
D03*
X-356070Y2078354D02*
G54D10*
D03*
X-232070Y2078354D02*
G54D10*
D03*
X-279870Y2078354D02*
G54D10*
D03*
X-433126Y2100794D02*
G54D10*
D03*
X-396997Y2064825D02*
G54D10*
D03*
X-459160Y2063882D02*
G54D12*
D03*
X642141Y-59690D02*
G54D10*
D03*
X689941Y-59689D02*
G54D10*
D03*
G36*
X620320Y1994204D02*
X646320Y1994204D01*
X646320Y1968204D01*
X620320Y1968204D01*
X620320Y1994204D01*
G37*
G36*
X474269Y1994204D02*
X500269Y1994204D01*
X500269Y1968204D01*
X474269Y1968204D01*
X474269Y1994204D01*
G37*
G36*
X347269Y1562404D02*
X373269Y1562404D01*
X373269Y1536404D01*
X347269Y1536404D01*
X347269Y1562404D01*
G37*
G36*
X-522681Y1759254D02*
X-496681Y1759254D01*
X-496681Y1733254D01*
X-522681Y1733254D01*
X-522681Y1759254D01*
G37*
G36*
X74219Y1702104D02*
X100219Y1702104D01*
X100219Y1676104D01*
X74219Y1676104D01*
X74219Y1702104D01*
G37*
G36*
X486969Y1156004D02*
X512969Y1156004D01*
X512969Y1130004D01*
X486969Y1130004D01*
X486969Y1156004D01*
G37*
G36*
X223444Y924229D02*
X249444Y924229D01*
X249444Y898229D01*
X223444Y898229D01*
X223444Y924229D01*
G37*
G36*
X296469Y755954D02*
X322469Y755954D01*
X322469Y729954D01*
X296469Y729954D01*
X296469Y755954D01*
G37*
G36*
X-1138631Y1105204D02*
X-1112631Y1105204D01*
X-1112631Y1079204D01*
X-1138631Y1079204D01*
X-1138631Y1105204D01*
G37*
X-145102Y729550D02*
G54D21*
D03*
X-812392Y2110183D02*
G54D12*
D03*
X-1243276Y1116471D02*
G54D12*
D03*
X-812392Y2110183D02*
G54D47*
D03*
X-979622Y2409956D02*
G54D12*
D03*
X-1109797Y2451232D02*
G54D21*
D03*
X-1421741Y-346737D02*
G54D12*
D03*
X-1425710Y797850D02*
G54D12*
D03*
X-1299504Y797850D02*
G54D12*
D03*
X-1434044Y35056D02*
G54D12*
D03*
X880667Y-469900D02*
G54D22*
D03*
X-1301475Y-36999D02*
G54D10*
D03*
X-1283515Y-19039D02*
G54D10*
D03*
X165632Y1741526D02*
G54D10*
D03*
X140233Y1741526D02*
G54D10*
D03*
X214051Y1678820D02*
G54D10*
D03*
X188651Y1678820D02*
G54D10*
D03*
X564125Y2435192D02*
G54D51*
D03*
X473241Y2437970D02*
G54D29*
D03*
X742322Y2434398D02*
G54D29*
D03*
X439830Y2150550D02*
G54D10*
D03*
X-826924Y190736D02*
G54D40*
D03*
X-696749Y190736D02*
G54D40*
D03*
X-791999Y190736D02*
G54D40*
D03*
X-772949Y190736D02*
G54D40*
D03*
X-753899Y190736D02*
G54D40*
D03*
X-734849Y190736D02*
G54D40*
D03*
X-715799Y190736D02*
G54D40*
D03*
X-811049Y190736D02*
G54D40*
D03*
X-696749Y190736D02*
G54D40*
D03*
X-861849Y190736D02*
G54D40*
D03*
X-842799Y190736D02*
G54D40*
D03*
X-1152657Y214786D02*
G54D23*
D03*
X-1268942Y214786D02*
G54D23*
D03*
X459298Y2354665D02*
G54D10*
D03*
X459298Y2380064D02*
G54D10*
D03*
X875622Y238528D02*
G54D10*
D03*
X875622Y263927D02*
G54D10*
D03*
X874788Y214900D02*
G54D15*
D03*
X246062Y223044D02*
G54D43*
D03*
X15989Y204409D02*
G54D10*
D03*
X-144378Y703482D02*
G54D12*
D03*
X-144377Y677982D02*
G54D10*
D03*
X-144378Y703482D02*
G54D10*
D03*
X-144775Y729676D02*
G54D10*
D03*
G36*
X100413Y1958485D02*
X126413Y1958485D01*
X126413Y1932485D01*
X100413Y1932485D01*
X100413Y1958485D01*
G37*
X884553Y326188D02*
G54D10*
D03*
X-1444114Y850508D02*
G54D10*
D03*
X-1444114Y875908D02*
G54D10*
D03*
X-1475070Y877099D02*
G54D10*
D03*
X-1407630Y2063378D02*
G54D10*
D03*
X-1468527Y2063378D02*
G54D10*
D03*
X-1423712Y1947122D02*
G54D10*
D03*
X-1423824Y1998102D02*
G54D10*
D03*
X-1422124Y1848698D02*
G54D10*
D03*
X-1422236Y1899678D02*
G54D10*
D03*
X-768543Y987218D02*
G54D22*
D03*
X-212918Y888793D02*
G54D22*
D03*
X-1421741Y-413412D02*
G54D12*
D03*
X-307401Y1097360D02*
G54D15*
D03*
X-326451Y1096566D02*
G54D15*
D03*
X448771Y1763680D02*
G54D15*
D03*
X520208Y1740661D02*
G54D15*
D03*
X551164Y1755742D02*
G54D15*
D03*
X608314Y1719230D02*
G54D15*
D03*
X628952Y1763680D02*
G54D15*
D03*
X695230Y1753758D02*
G54D15*
D03*
X808999Y1773951D02*
G54D15*
D03*
X442421Y953261D02*
G54D15*
D03*
X378127Y965961D02*
G54D15*
D03*
X525764Y961992D02*
G54D15*
D03*
X472583Y1011204D02*
G54D15*
D03*
X619427Y944530D02*
G54D15*
D03*
X551164Y985011D02*
G54D15*
D03*
X264862Y947818D02*
G54D15*
D03*
X822869Y943056D02*
G54D15*
D03*
X684378Y2451067D02*
G54D29*
D03*
X774866Y2450273D02*
G54D29*
D03*
X809716Y623918D02*
G54D10*
D03*
X246636Y641350D02*
G54D15*
D03*
X246636Y581025D02*
G54D15*
D03*
X265686Y629444D02*
G54D15*
D03*
X246636Y560388D02*
G54D15*
D03*
X238699Y1913335D02*
G54D54*
D03*
X241874Y1555354D02*
G54D54*
D03*
X828852Y1662510D02*
G54D54*
D03*
X767334Y1977628D02*
G54D54*
D03*
X-483614Y2049860D02*
G54D54*
D03*
X113286Y1546226D02*
G54D54*
D03*
X106142Y2016126D02*
G54D54*
D03*
X245049Y728663D02*
G54D54*
D03*
X285530Y1143794D02*
G54D54*
D03*
X825896Y1159908D02*
G54D54*
D03*
X779242Y751682D02*
G54D54*
D03*
X-1159095Y1026319D02*
G54D54*
D03*
X-1151951Y110728D02*
G54D54*
D03*
X-1259901Y2016919D02*
G54D54*
D03*
X-779682Y2055813D02*
G54D54*
D03*
X-852749Y960477D02*
G54D10*
D03*
X-878149Y960477D02*
G54D10*
D03*
X874788Y189500D02*
G54D15*
D03*
X818821Y517072D02*
G54D21*
D03*
X818821Y517072D02*
G54D21*
D03*
X818822Y491672D02*
G54D21*
D03*
X818822Y491672D02*
G54D21*
D03*
X818823Y466272D02*
G54D21*
D03*
X812469Y732972D02*
G54D21*
D03*
X812470Y707572D02*
G54D21*
D03*
X850569Y682172D02*
G54D52*
D03*
X775107Y274506D02*
G54D53*
D03*
X803682Y531680D02*
G54D53*
D03*
X790982Y604706D02*
G54D53*
D03*
X842563Y2027476D02*
G54D12*
D03*
X349646Y-470852D02*
G54D21*
D03*
X824076Y360916D02*
G54D52*
D03*
X121908Y310697D02*
G54D10*
D03*
X504042Y47208D02*
G54D12*
D03*
X504041Y15458D02*
G54D12*
D03*
X504042Y-16292D02*
G54D12*
D03*
X412192Y-45722D02*
G54D10*
D03*
X459992Y-45722D02*
G54D10*
D03*
X409017Y59052D02*
G54D10*
D03*
X456817Y59053D02*
G54D10*
D03*
X505626Y-57286D02*
G54D10*
D03*
X556606Y-57174D02*
G54D10*
D03*
X502450Y98288D02*
G54D10*
D03*
X553431Y98401D02*
G54D10*
D03*
X-1098154Y-465534D02*
G54D22*
D03*
X-635001Y-464342D02*
G54D22*
D03*
X-1259322Y-457577D02*
G54D10*
D03*
X-1187826Y-457635D02*
G54D10*
D03*
X-1087614Y-312254D02*
G54D10*
D03*
X-1087614Y-264454D02*
G54D10*
D03*
X-1209164Y-151203D02*
G54D10*
D03*
X-1209164Y-125804D02*
G54D10*
D03*
X-939044Y-304383D02*
G54D10*
D03*
X-939044Y-304383D02*
G54D10*
D03*
X-867548Y-304442D02*
G54D10*
D03*
X-848556Y-353596D02*
G54D10*
D03*
X-848556Y-353596D02*
G54D10*
D03*
X-777060Y-353654D02*
G54D10*
D03*
X-1376752Y-299971D02*
G54D10*
D03*
X-1376694Y-228475D02*
G54D10*
D03*
X-1383808Y-341969D02*
G54D10*
D03*
X-1383866Y-413465D02*
G54D10*
D03*
X-1342533Y-344350D02*
G54D10*
D03*
X-1342591Y-415846D02*
G54D10*
D03*
X-1454412Y298488D02*
G54D10*
D03*
X-1471896Y273453D02*
G54D10*
D03*
X-1471896Y298852D02*
G54D10*
D03*
X-1471896Y248054D02*
G54D10*
D03*
X-1471896Y273453D02*
G54D10*
D03*
X821768Y173901D02*
G54D21*
D03*
X884475Y-407124D02*
G54D21*
D03*
X889634Y154851D02*
G54D21*
D03*
X884552Y308725D02*
G54D10*
D03*
X-1100572Y-385345D02*
G54D10*
D03*
X-1029076Y-385404D02*
G54D10*
D03*
X-1159239Y-388211D02*
G54D10*
D03*
X-1230735Y-388153D02*
G54D10*
D03*
X-1339613Y596573D02*
G54D55*
D03*
X-1338422Y658883D02*
G54D22*
D03*
X-1341223Y326711D02*
G54D55*
D03*
X-1340009Y254070D02*
G54D22*
D03*
X-1434465Y964079D02*
G54D55*
D03*
X-1433275Y1035914D02*
G54D55*
D03*
X-1302312Y2518650D02*
G54D22*
D03*
X-1241193Y2517459D02*
G54D22*
D03*
G36*
X-1369278Y2536199D02*
X-1333278Y2536199D01*
X-1333278Y2500199D01*
X-1369278Y2500199D01*
X-1369278Y2536199D01*
G37*
X-1400888Y2480892D02*
G54D56*
D03*
X-577454Y-181927D02*
G54D12*
D03*
X-1266147Y2321465D02*
G54D44*
D03*
X-1316947Y2308765D02*
G54D44*
D03*
X-474151Y1806977D02*
G54D10*
D03*
X-474151Y1746652D02*
G54D10*
D03*
X140274Y1027906D02*
G54D51*
D03*
X200536Y989414D02*
G54D10*
D03*
X200536Y929089D02*
G54D10*
D03*
X-515426Y1876827D02*
G54D57*
D03*
X206221Y857469D02*
G54D22*
D03*
X207937Y886719D02*
G54D57*
D03*
X-515426Y1794277D02*
G54D57*
D03*
X208474Y803677D02*
G54D57*
D03*
X-977970Y1543422D02*
G54D31*
D03*
X-914470Y1545009D02*
G54D31*
D03*
X-977970Y1757734D02*
G54D31*
D03*
X-914470Y1757734D02*
G54D31*
D03*
X-977970Y1978397D02*
G54D31*
D03*
X-914470Y1978397D02*
G54D31*
D03*
X-977970Y1327522D02*
G54D31*
D03*
X-914470Y1327522D02*
G54D31*
D03*
X-46788Y101052D02*
G54D10*
D03*
X-46963Y152044D02*
G54D10*
D03*
X-1143383Y2275204D02*
G54D10*
D03*
X-1073533Y2262504D02*
G54D10*
D03*
X-1051308Y2122804D02*
G54D10*
D03*
X-1111633Y2091054D02*
G54D10*
D03*
X-857633Y2278379D02*
G54D10*
D03*
X-800483Y2311716D02*
G54D10*
D03*
X-879858Y2125979D02*
G54D10*
D03*
X-930658Y2084704D02*
G54D10*
D03*
X-1074355Y-193148D02*
G54D12*
D03*
X-1087055Y-278873D02*
G54D12*
D03*
X-1152922Y-433149D02*
G54D12*
D03*
X-1424318Y-440191D02*
G54D21*
D03*
X843439Y2063159D02*
G54D12*
D03*
X31582Y811158D02*
G54D12*
D03*
X145652Y422911D02*
G54D10*
D03*
X120252Y422911D02*
G54D10*
D03*
X-50404Y1205548D02*
G54D45*
D03*
X933926Y2094909D02*
G54D12*
D03*
X924402Y-432391D02*
G54D12*
D03*
X-1467961Y-499066D02*
G54D12*
D03*
X-83661Y-508591D02*
G54D12*
D03*
X-166176Y1508527D02*
G54D10*
D03*
X-280476Y1968902D02*
G54D10*
D03*
X-140776Y1508527D02*
G54D10*
D03*
X-514761Y-289192D02*
G54D12*
D03*
X357987Y1183678D02*
G54D21*
D03*
X902213Y2019456D02*
G54D54*
D03*
X902213Y2006756D02*
G54D54*
D03*
X902213Y419256D02*
G54D54*
D03*
X902213Y406556D02*
G54D54*
D03*
X-512736Y1548978D02*
G54D51*
D03*
X-511012Y1630916D02*
G54D51*
D03*
X364423Y1113662D02*
G54D10*
D03*
X369862Y883094D02*
G54D10*
D03*
X369862Y860869D02*
G54D10*
D03*
X-553476Y1201227D02*
G54D10*
D03*
X-553476Y1175827D02*
G54D10*
D03*
X-208476Y1176227D02*
G54D58*
D03*
X-648930Y1230244D02*
G54D58*
D03*
X-1045701Y-117430D02*
G54D12*
D03*
X-916782Y102394D02*
G54D22*
D03*
X142445Y1253766D02*
G54D21*
D03*
X567895Y1253766D02*
G54D21*
D03*
X25112Y1440953D02*
G54D19*
D03*
X568037Y1434603D02*
G54D19*
D03*
X-1311672Y-302974D02*
G54D12*
D03*
X-1311672Y-226774D02*
G54D12*
D03*
X-156839Y1086801D02*
G54D46*
D03*
X-203482Y1645053D02*
G54D10*
D03*
X-203482Y1670452D02*
G54D10*
D03*
X-435988Y1759744D02*
G54D59*
D03*
X-328038Y1759744D02*
G54D59*
D03*
X-435988Y1848644D02*
G54D59*
D03*
X-353438Y1848644D02*
G54D59*
D03*
X94237Y913606D02*
G54D59*
D03*
X170437Y912019D02*
G54D59*
D03*
X170437Y989806D02*
G54D59*
D03*
X94237Y989806D02*
G54D59*
D03*
X-930504Y898583D02*
G54D10*
D03*
X-642426Y2037164D02*
G54D10*
D03*
X-331276Y851302D02*
G54D15*
D03*
X-314766Y723032D02*
G54D15*
D03*
X-324926Y584602D02*
G54D15*
D03*
X-324926Y502052D02*
G54D15*
D03*
X-324926Y317902D02*
G54D15*
D03*
X-1029776Y457602D02*
G54D15*
D03*
X-1029776Y406802D02*
G54D15*
D03*
X-1099626Y1581552D02*
G54D15*
D03*
X-807526Y1746652D02*
G54D15*
D03*
X-1086926Y1378352D02*
G54D15*
D03*
X-794826Y1556152D02*
G54D15*
D03*
X-1086926Y1162452D02*
G54D15*
D03*
X-807526Y1314852D02*
G54D15*
D03*
X-1099626Y1810152D02*
G54D15*
D03*
X-807526Y1975252D02*
G54D15*
D03*
X-986073Y-470302D02*
G54D10*
D03*
X-960598Y-470302D02*
G54D10*
D03*
X-848089Y-470761D02*
G54D10*
D03*
X-919585Y-470703D02*
G54D10*
D03*
X-847153Y-495590D02*
G54D10*
D03*
X-1023426Y2165752D02*
G54D15*
D03*
X-788476Y2210202D02*
G54D15*
D03*
X-502726Y2241952D02*
G54D15*
D03*
X-528126Y2102252D02*
G54D15*
D03*
X-204276Y2083202D02*
G54D15*
D03*
X-363026Y2305452D02*
G54D15*
D03*
X-667826Y2102252D02*
G54D15*
D03*
X-147126Y2241952D02*
G54D15*
D03*
X-102676Y2216552D02*
G54D15*
D03*
X119574Y2140352D02*
G54D15*
D03*
X144974Y2114952D02*
G54D15*
D03*
X209946Y2177098D02*
G54D15*
D03*
X306414Y1980778D02*
G54D12*
D03*
X714207Y735180D02*
G54D21*
D03*
X689223Y684248D02*
G54D21*
D03*
X664324Y735295D02*
G54D21*
D03*
X647370Y736147D02*
G54D21*
D03*
X-1041004Y633948D02*
G54D10*
D03*
X-1041004Y659448D02*
G54D10*
D03*
X-1041004Y659448D02*
G54D10*
D03*
X-601151Y362352D02*
G54D15*
D03*
G36*
X-1443431Y1587804D02*
X-1417431Y1587804D01*
X-1417431Y1561804D01*
X-1443431Y1561804D01*
X-1443431Y1587804D01*
G37*
G36*
X-1443431Y1321104D02*
X-1417431Y1321104D01*
X-1417431Y1295104D01*
X-1443431Y1295104D01*
X-1443431Y1321104D01*
G37*
X-9955Y1269641D02*
G54D21*
D03*
X729820Y1269641D02*
G54D21*
D03*
G36*
X-1462481Y568629D02*
X-1436481Y568629D01*
X-1436481Y542629D01*
X-1462481Y542629D01*
X-1462481Y568629D01*
G37*
X-1036126Y-144060D02*
G54D15*
D03*
X-893251Y-151998D02*
G54D15*
D03*
X-867851Y-153585D02*
G54D15*
D03*
X-1020251Y-159935D02*
G54D15*
D03*
X-1185351Y783040D02*
G54D15*
D03*
X-1099626Y784627D02*
G54D15*
D03*
X-1264726Y865590D02*
G54D15*
D03*
X-1061526Y837014D02*
G54D15*
D03*
X-366201Y-309160D02*
G54D15*
D03*
X-1147251Y783040D02*
G54D15*
D03*
X-1004885Y-307656D02*
G54D12*
D03*
X-1023935Y-307656D02*
G54D12*
D03*
X9357Y842908D02*
G54D12*
D03*
X-888555Y-264880D02*
G54D10*
D03*
X-914055Y-264880D02*
G54D10*
D03*
X141862Y1712119D02*
G54D15*
D03*
X113224Y1711727D02*
G54D15*
D03*
X915034Y370751D02*
G54D21*
D03*
X720700Y482462D02*
G54D10*
D03*
X671487Y166550D02*
G54D10*
D03*
X454024Y522288D02*
G54D22*
D03*
X457200Y247650D02*
G54D22*
D03*
X619124Y247650D02*
G54D22*
D03*
X625474Y522288D02*
G54D22*
D03*
X-355600Y-22224D02*
G54D22*
D03*
X-60939Y994599D02*
G54D10*
D03*
X-108739Y994600D02*
G54D10*
D03*
X-60939Y994598D02*
G54D10*
D03*
X-32534Y1058479D02*
G54D10*
D03*
X-83514Y1058368D02*
G54D10*
D03*
X-32535Y1058479D02*
G54D10*
D03*
X-16308Y1097732D02*
G54D10*
D03*
X-92558Y1097782D02*
G54D10*
D03*
X-10678Y1134414D02*
G54D10*
D03*
X40302Y1134525D02*
G54D10*
D03*
X-10678Y1134414D02*
G54D10*
D03*
X-25823Y1024781D02*
G54D10*
D03*
X-25873Y948530D02*
G54D10*
D03*
X22937Y1092314D02*
G54D10*
D03*
X22937Y1066814D02*
G54D10*
D03*
X-121442Y935210D02*
G54D10*
D03*
X-95942Y935210D02*
G54D10*
D03*
X22937Y1066814D02*
G54D10*
D03*
X22937Y1041315D02*
G54D10*
D03*
X-143114Y793750D02*
G54D22*
D03*
X-98983Y614679D02*
G54D10*
D03*
X-51183Y614679D02*
G54D10*
D03*
X15583Y653964D02*
G54D10*
D03*
X-6642Y653964D02*
G54D10*
D03*
X117741Y598225D02*
G54D12*
D03*
X35411Y612444D02*
G54D10*
D03*
X35524Y561464D02*
G54D10*
D03*
X35411Y612443D02*
G54D10*
D03*
X-2689Y612444D02*
G54D10*
D03*
X-2578Y561464D02*
G54D10*
D03*
X-2689Y612443D02*
G54D10*
D03*
X-2578Y534476D02*
G54D10*
D03*
X35523Y534476D02*
G54D10*
D03*
X71703Y598225D02*
G54D12*
D03*
X71703Y577588D02*
G54D12*
D03*
X68528Y525200D02*
G54D12*
D03*
X116153Y547425D02*
G54D12*
D03*
X117741Y612512D02*
G54D12*
D03*
X149991Y633592D02*
G54D10*
D03*
X149990Y655817D02*
G54D10*
D03*
X149991Y655818D02*
G54D10*
D03*
X149990Y678042D02*
G54D10*
D03*
X37808Y653964D02*
G54D10*
D03*
X15583Y653964D02*
G54D10*
D03*
X202768Y754833D02*
G54D10*
D03*
X126518Y754883D02*
G54D10*
D03*
X201180Y718321D02*
G54D10*
D03*
X124931Y718371D02*
G54D10*
D03*
X83387Y701128D02*
G54D10*
D03*
X83212Y752119D02*
G54D10*
D03*
X-115376Y1146577D02*
G54D10*
D03*
X-115376Y1121077D02*
G54D10*
D03*
X-331346Y2205974D02*
G54D12*
D03*
X-57442Y2114464D02*
G54D10*
D03*
X-79666Y2114464D02*
G54D10*
D03*
X-35217Y2114464D02*
G54D10*
D03*
X-57442Y2114464D02*
G54D10*
D03*
X168807Y1878052D02*
G54D10*
D03*
X143408Y1878052D02*
G54D10*
D03*
X194207Y1878052D02*
G54D10*
D03*
X168807Y1878052D02*
G54D10*
D03*
X219606Y1878052D02*
G54D10*
D03*
X194207Y1878052D02*
G54D10*
D03*
X143407Y1878052D02*
G54D10*
D03*
X118008Y1878052D02*
G54D10*
D03*
X926816Y2191152D02*
G54D10*
D03*
X926816Y2216551D02*
G54D10*
D03*
X926816Y2165752D02*
G54D10*
D03*
X926816Y2191152D02*
G54D10*
D03*
X926816Y2165752D02*
G54D10*
D03*
X926816Y2191152D02*
G54D10*
D03*
X926816Y2216552D02*
G54D10*
D03*
X926816Y2241951D02*
G54D10*
D03*
X197246Y2151698D02*
G54D15*
D03*
X285829Y2435956D02*
G54D10*
D03*
X238029Y2435955D02*
G54D10*
D03*
X926816Y2241952D02*
G54D10*
D03*
X926816Y2267351D02*
G54D10*
D03*
X880268Y2151460D02*
G54D15*
D03*
X932373Y2113365D02*
G54D10*
D03*
X-812721Y-408844D02*
G54D10*
D03*
X-860521Y-408845D02*
G54D10*
D03*
X145494Y2467685D02*
G54D15*
D03*
X208994Y2467685D02*
G54D15*
D03*
X-1434465Y1707029D02*
G54D55*
D03*
X-1433275Y1778864D02*
G54D55*
D03*
X-43246Y655954D02*
G54D10*
D03*
X760986Y708025D02*
G54D15*
D03*
X-583409Y-481171D02*
G54D10*
D03*
X54770Y149398D02*
G54D10*
D03*
X80270Y149398D02*
G54D10*
D03*
X311242Y360393D02*
G54D10*
D03*
X311242Y334894D02*
G54D10*
D03*
X172243Y656432D02*
G54D15*
D03*
X86520Y663748D02*
G54D10*
D03*
X112020Y663748D02*
G54D10*
D03*
X172620Y558930D02*
G54D10*
D03*
X178970Y546230D02*
G54D10*
D03*
G36*
X-198831Y2489504D02*
X-172831Y2489504D01*
X-172831Y2463504D01*
X-198831Y2463504D01*
X-198831Y2489504D01*
G37*
G36*
X-871931Y2489504D02*
X-845931Y2489504D01*
X-845931Y2463504D01*
X-871931Y2463504D01*
X-871931Y2489504D01*
G37*
X300012Y821632D02*
G54D37*
D03*
X750862Y840682D02*
G54D37*
D03*
X744512Y745432D02*
G54D37*
D03*
X725462Y1189932D02*
G54D37*
D03*
X788962Y1869382D02*
G54D37*
D03*
X744512Y2002732D02*
G54D37*
D03*
X153962Y2002732D02*
G54D37*
D03*
X350812Y1945582D02*
G54D37*
D03*
X-439763Y1951932D02*
G54D37*
D03*
X494337Y1329253D02*
G54D18*
D03*
X208587Y1430853D02*
G54D18*
D03*
X-861849Y-11194D02*
G54D40*
D03*
X-696749Y-11194D02*
G54D40*
D03*
X-1027501Y2060117D02*
G54D39*
D03*
X319062Y1869382D02*
G54D37*
D03*
X-982426Y96907D02*
G54D12*
D03*
X841374Y-22224D02*
G54D22*
D03*
G36*
X-192299Y706731D02*
X-223299Y706731D01*
X-223299Y737731D01*
X-192299Y737731D01*
X-192299Y706731D01*
G37*
G36*
X-189124Y608306D02*
X-220124Y608306D01*
X-220124Y639306D01*
X-189124Y639306D01*
X-189124Y608306D01*
G37*
G36*
X-189124Y503531D02*
X-220124Y503531D01*
X-220124Y534531D01*
X-189124Y534531D01*
X-189124Y503531D01*
G37*
G36*
X-195474Y316206D02*
X-226474Y316206D01*
X-226474Y347206D01*
X-195474Y347206D01*
X-195474Y316206D01*
G37*
X610391Y-59690D02*
G54D10*
D03*
X-117780Y475556D02*
G54D10*
D03*
X-117780Y500956D02*
G54D10*
D03*
X-117780Y500559D02*
G54D10*
D03*
X-117780Y525959D02*
G54D10*
D03*
X-78092Y525567D02*
G54D10*
D03*
X-78092Y550966D02*
G54D10*
D03*
X-78093Y456510D02*
G54D10*
D03*
X-78093Y481910D02*
G54D10*
D03*
X315291Y-100964D02*
G54D10*
D03*
X-515701Y-372755D02*
G54D12*
D03*
X-761367Y1061091D02*
G54D10*
D03*
X-784882Y1061091D02*
G54D10*
D03*
X-835086Y-99704D02*
G54D10*
D03*
X-858601Y-99705D02*
G54D10*
D03*
X-528126Y-118660D02*
G54D15*
D03*
X-677351Y-353610D02*
G54D15*
D03*
X-124976Y6070D02*
G54D12*
D03*
X-124976Y-95530D02*
G54D12*
D03*
X-228600Y6350D02*
G54D12*
D03*
X-228600Y-95250D02*
G54D12*
D03*
X-124976Y6070D02*
G54D12*
D03*
X-226575Y6070D02*
G54D12*
D03*
X-549536Y-41236D02*
G54D10*
D03*
X-574936Y-41236D02*
G54D10*
D03*
X-550330Y-4724D02*
G54D10*
D03*
X-575730Y-4724D02*
G54D10*
D03*
X266700Y-38100D02*
G54D10*
D03*
X314500Y-38100D02*
G54D10*
D03*
X234950Y-38100D02*
G54D10*
D03*
G36*
X154141Y-123964D02*
X108141Y-123964D01*
X108141Y-77964D01*
X154141Y-77964D01*
X154141Y-123964D01*
G37*
G36*
X-185337Y66185D02*
X-159337Y66185D01*
X-159337Y40185D01*
X-185337Y40185D01*
X-185337Y66185D01*
G37*
G36*
X170263Y66185D02*
X196263Y66185D01*
X196263Y40185D01*
X170263Y40185D01*
X170263Y66185D01*
G37*
G36*
X-236137Y-416415D02*
X-210137Y-416415D01*
X-210137Y-442415D01*
X-236137Y-442415D01*
X-236137Y-416415D01*
G37*
G36*
X163913Y-416415D02*
X189913Y-416415D01*
X189913Y-442415D01*
X163913Y-442415D01*
X163913Y-416415D01*
G37*
G36*
X735413Y-422765D02*
X761413Y-422765D01*
X761413Y-448765D01*
X735413Y-448765D01*
X735413Y-422765D01*
G37*
G36*
X767163Y-105265D02*
X793163Y-105265D01*
X793163Y-131265D01*
X767163Y-131265D01*
X767163Y-105265D01*
G37*
G36*
X-185337Y-117965D02*
X-159337Y-117965D01*
X-159337Y-143965D01*
X-185337Y-143965D01*
X-185337Y-117965D01*
G37*
G36*
X382741Y-377964D02*
X336741Y-377964D01*
X336741Y-331964D01*
X382741Y-331964D01*
X382741Y-377964D01*
G37*
G36*
X-398309Y-346214D02*
X-444309Y-346214D01*
X-444309Y-300214D01*
X-398309Y-300214D01*
X-398309Y-346214D01*
G37*
G36*
X-401484Y-460514D02*
X-447484Y-460514D01*
X-447484Y-414514D01*
X-401484Y-414514D01*
X-401484Y-460514D01*
G37*
X187770Y-156D02*
G54D10*
D03*
X187946Y-51148D02*
G54D10*
D03*
G36*
X-554454Y-131902D02*
X-600454Y-131902D01*
X-600454Y-85902D01*
X-554454Y-85902D01*
X-554454Y-131902D01*
G37*
G36*
X-684059Y-327164D02*
X-730059Y-327164D01*
X-730059Y-281164D01*
X-684059Y-281164D01*
X-684059Y-327164D01*
G37*
X-366201Y-394885D02*
G54D15*
D03*
G36*
X-398309Y-403364D02*
X-444309Y-403364D01*
X-444309Y-357364D01*
X-398309Y-357364D01*
X-398309Y-403364D01*
G37*
G36*
X-1018004Y699948D02*
X-1064004Y699948D01*
X-1064004Y745948D01*
X-1018004Y745948D01*
X-1018004Y699948D01*
G37*
G36*
X949424Y2404869D02*
X962879Y2418324D01*
X981969Y2418324D01*
X995424Y2404869D01*
X995424Y2345779D01*
X981969Y2332324D01*
X962879Y2332324D01*
X949424Y2345779D01*
X949424Y2404869D01*
G37*
X-228600Y-95250D02*
G54D12*
D03*
X-124976Y-95529D02*
G54D12*
D03*
X968852Y-152991D02*
G54D12*
D03*
X583145Y-133311D02*
G54D10*
D03*
X557745Y-133311D02*
G54D10*
D03*
X608544Y-133311D02*
G54D10*
D03*
X583145Y-133311D02*
G54D10*
D03*
G36*
X892274Y2408044D02*
X905729Y2421499D01*
X924819Y2421499D01*
X938274Y2408044D01*
X938274Y2348954D01*
X924819Y2335499D01*
X905729Y2335499D01*
X892274Y2348954D01*
X892274Y2408044D01*
G37*
M02*
