; Drill file
; Format: 2.4 (00.0000)
M48
INCH
T01C0.0157
T02C0.0197
T03C0.0236
T04C0.0283
T05C0.0315
T06C0.0354
T07C0.0394
T08C0.0433
T09C0.0472
T10C0.0512
T11C0.0551
T12C0.0591
T13C0.063
T14C0.0787
T15C0.0862
T16C0.1181
T17C0.122
T18C0.1378
T19C0.1575
%
G05
G90
T01
X035170Y038690
X075480Y018090
X075980Y015210
X077830Y016140
X077830Y021140
X074820Y011840
X074110Y011010
X074480Y010530
X076980Y010280
X076790Y008490
X074860Y005090
X074610Y004030
X075730Y000280
X075300Y-000330
X075270Y-001710
X075360Y-003050
X076290Y086120
X076290Y087120
X074290Y087120
X074290Y086120
X072790Y086120
X072790Y087120
X070790Y087120
X070790Y086120
X069290Y086120
X069290Y087120
X067290Y087120
X067290Y086120
X065790Y086120
X065790Y087120
X063790Y087120
X063790Y086120
X063790Y090120
X064790Y090120
X065790Y090120
X067290Y090120
X068290Y090120
X069290Y090120
X070790Y090120
X071790Y090120
X072790Y090120
X074290Y090120
X075290Y090120
X076290Y090120
T02
X003550Y-011390
X004180Y-012020
X009180Y-011700
X010180Y-011770
X017680Y-016890
X017680Y-018200
X025800Y-017200
X025800Y-016020
X029930Y-004450
X032930Y-002830
X031550Y006800
X031430Y007800
X031430Y013050
X031550Y014050
X031550Y017300
X031430Y018300
X031950Y022750
X031430Y023550
X031300Y027800
X031430Y028800
X031550Y035050
X031490Y037450
X032240Y037480
X036400Y034050
X036680Y033060
X037930Y031810
X038050Y030550
X038930Y026190
X038930Y025230
X044800Y026050
X045930Y026060
X048050Y024310
X049300Y024300
X050120Y024310
X054050Y019530
X054800Y019060
X054050Y017160
X054050Y016340
X053550Y031170
X053550Y032060
X054770Y031600
X054800Y032780
X053430Y036060
X053550Y037110
X059230Y032310
X061760Y031810
X062950Y034090
X065040Y032150
X066040Y033060
X068730Y031470
X076740Y031410
X076760Y032370
X074180Y039560
X076800Y041050
X076430Y042060
X076180Y054060
X076300Y055300
X073550Y055300
X073610Y056620
X076130Y062900
X076190Y064120
X071720Y063330
X069110Y063720
X068290Y061970
X066040Y063400
X064820Y062810
X062010Y063720
X054180Y063310
X049930Y061690
X048800Y061670
X037430Y065560
X037050Y064800
X037180Y070170
X037930Y070810
X036550Y078050
X038550Y082550
X040300Y081550
X049050Y078550
X050050Y077550
X052610Y079990
X050570Y088680
X058300Y089230
X059180Y089300
X030050Y085050
X024550Y082550
X023550Y077050
X018050Y077050
X013300Y081300
X012550Y072050
X012550Y063050
X013050Y055550
X012550Y046050
X001550Y048550
X001050Y056550
X001050Y065550
X004050Y079550
X025050Y058050
X026300Y058300
X027300Y055800
X028300Y055800
X031550Y058550
X032460Y061050
X001550Y040050
X006800Y032050
X007800Y032050
X002550Y027230
X001050Y025170
X-000820Y025110
X-002320Y025110
X-005450Y028360
X003800Y012300
X003800Y011300
X003800Y009800
X003800Y008800
X020680Y008550
X078780Y002740
X078780Y001740
T03
X024440Y-003830
X024440Y-001830
X024470Y000200
X024470Y002200
X024520Y003790
X024520Y005790
X027520Y005790
X028520Y005790
X028520Y003790
X027520Y003790
X027470Y002200
X028470Y002200
X028470Y000200
X027470Y000200
X027440Y-001830
X028440Y-001830
X028440Y-003830
X027440Y-003830
X027520Y010620
X028520Y010620
X028520Y012620
X027520Y012620
X027480Y014180
X028480Y014180
X028480Y016180
X027480Y016180
X024480Y016180
X024480Y014180
X024520Y012620
X024520Y010620
X024550Y020970
X024550Y022970
X024610Y024370
X024610Y026370
X027610Y026370
X028610Y026370
X028610Y024370
X027610Y024370
X027550Y022970
X028550Y022970
X028550Y020970
X027550Y020970
X027610Y031280
X028610Y031280
X028610Y033280
X027610Y033280
X024610Y033280
X024610Y031280
X017080Y029650
X033170Y035690
X035170Y035690
X036170Y037070
X037170Y037070
X038170Y037070
X040930Y039230
X042050Y038610
X045680Y035360
X046050Y034170
X049870Y034750
X048550Y039170
X035170Y039690
X033170Y039690
X033170Y038690
X024160Y053260
X024160Y055260
X024230Y058490
X062980Y090260
X066550Y090150
X071290Y090780
X073570Y090120
X074850Y090750
T04
X001590Y-006220
X-005690Y020710
X-005840Y029490
X-001850Y039240
X-001850Y047740
X-001850Y056240
X-001850Y064740
X019650Y064740
X019650Y056240
X019650Y047740
X019650Y039240
X015130Y083200
X027100Y083300
T05
X048050Y030250
X048050Y033250
X051050Y033250
X051050Y030190
X031430Y063560
X030430Y067060
X027180Y067060
X027180Y063560
X045550Y081620
X046550Y081620
X047550Y081620
X048550Y081620
X049550Y081620
X050550Y081620
X051550Y081620
X052550Y081620
X053550Y081620
X054550Y081620
X055550Y081620
X056550Y081620
X057550Y081620
X058550Y081620
X059550Y081620
X059550Y087620
X058550Y087620
X057550Y087620
X056550Y087620
X055550Y087620
X054550Y087620
X053550Y087620
X052550Y087620
X051550Y087620
X050550Y087620
X049550Y087620
X048550Y087620
X047550Y087620
X046550Y087620
X045550Y087620
X045590Y085610
X044590Y085610
X044590Y084610
X045590Y084610
X045590Y083610
X044590Y083610
X061030Y089200
T06
X-010140Y-022000
X-008510Y-022090
X-006970Y-021590
X-006970Y-022600
X-006970Y-023610
X-005240Y-023730
X-002420Y-023740
X-001300Y-021000
X-000410Y-019250
X-002420Y-019260
X-002290Y-017460
X-002920Y-016770
X-002290Y-016070
X-003360Y-013750
X-003300Y-011250
X-003300Y-010250
X-001010Y-009170
X-001010Y-008170
X-002560Y-006450
X-002560Y-005450
X-002470Y-003790
X-003970Y-003790
X-004560Y-005450
X-006190Y-006470
X-006900Y-007180
X-003980Y-001780
X-002480Y-001780
X-007970Y-000540
X-007980Y001470
X-005180Y006740
X-002560Y006800
X000440Y006800
X005290Y007220
X005290Y008220
X005400Y009900
X005390Y011900
X005420Y014030
X006410Y014020
X008780Y015410
X009260Y014140
X011270Y014150
X011780Y015410
X011770Y017150
X013380Y017020
X014080Y017650
X014780Y017020
X015770Y017650
X015770Y019400
X014770Y019400
X014080Y020020
X013380Y019400
X011770Y018900
X011770Y021020
X011270Y022400
X013020Y021890
X014090Y023270
X013400Y023900
X014780Y023900
X015770Y023900
X015770Y025650
X014770Y025650
X014770Y027650
X015770Y027650
X014650Y029650
X013650Y029650
X012770Y027640
X011770Y027650
X011770Y026270
X012770Y025640
X010880Y024390
X009900Y024400
X009270Y022390
X008770Y021020
X007400Y022270
X005390Y022270
X006270Y024400
X007250Y024390
X008770Y026270
X008770Y027650
X008270Y029650
X007710Y029660
X009280Y029650
X009770Y032100
X010770Y032100
X006400Y030820
X005690Y030110
X004000Y033380
X004000Y034300
X003000Y034300
X003000Y033380
X001620Y034560
X005370Y034530
X004230Y041710
X004230Y043210
X004230Y044460
X001480Y044460
X001480Y043210
X001480Y041710
X-005850Y039240
X-006730Y035270
X-007730Y035270
X-007220Y033440
X-007220Y030440
X-012510Y028770
X-012510Y027770
X-013730Y028810
X-005690Y024710
X003360Y020240
X003360Y019240
X005390Y017140
X007400Y017150
X008770Y017150
X008770Y018900
X013380Y014650
X014080Y015270
X014770Y014650
X015770Y014650
X016180Y012880
X015770Y011020
X015770Y009150
X018770Y009150
X018770Y011020
X018180Y012880
X018770Y014650
X018660Y016280
X018770Y017650
X020020Y018150
X020020Y019900
X018770Y019400
X019270Y021650
X020880Y021270
X021570Y021890
X022270Y021270
X023020Y019900
X023020Y018150
X023010Y016900
X023020Y014900
X020660Y016290
X022990Y011390
X023000Y009380
X021910Y008340
X022610Y007630
X021020Y009770
X017270Y021640
X015020Y021900
X018770Y023900
X020020Y023650
X020020Y025270
X018770Y025650
X018770Y027650
X019020Y029650
X020020Y029650
X022170Y027320
X022870Y028030
X023020Y025270
X023020Y023650
X025860Y035120
X027460Y034660
X028310Y036950
X030670Y037940
X030670Y039820
X029410Y041180
X029040Y042610
X029410Y043840
X029510Y045190
X028610Y047380
X027230Y047380
X026510Y045200
X026410Y043840
X027030Y042610
X026410Y041180
X024860Y042120
X022550Y041570
X022550Y040570
X018800Y042720
X015650Y039240
X012980Y041710
X012980Y043210
X012980Y044460
X010230Y044460
X010230Y043210
X010230Y041710
X015650Y047740
X012980Y050210
X012980Y051710
X012980Y052960
X010230Y052960
X010230Y051710
X010230Y050210
X004230Y050210
X004230Y051710
X004230Y052960
X001480Y052960
X001480Y051710
X001480Y050210
X-005850Y047740
X-005850Y056240
X001480Y058710
X001480Y060210
X001480Y061460
X004230Y061460
X004230Y060210
X004230Y058710
X010230Y058710
X010230Y060210
X010230Y061460
X012980Y061460
X012980Y060210
X012980Y058710
X015650Y056240
X022550Y057800
X022550Y058670
X025110Y056730
X026180Y056730
X028170Y058070
X030420Y058070
X031550Y059920
X031550Y060920
X031540Y062310
X030420Y061820
X029170Y061820
X027920Y061820
X025680Y063050
X025680Y065420
X028050Y068420
X029300Y068420
X030800Y068420
X031550Y070230
X030800Y071920
X032550Y072420
X033300Y071800
X036300Y070300
X038080Y069110
X038790Y069820
X038950Y066610
X037650Y066610
X038210Y064380
X037440Y063610
X037800Y061900
X036330Y060050
X036330Y059050
X037750Y058000
X039750Y058000
X041960Y057910
X043320Y057320
X043320Y059330
X043580Y061110
X042200Y061110
X040200Y061110
X039920Y064020
X041950Y064190
X041200Y066610
X042330Y068110
X042330Y069610
X042330Y071860
X038730Y076830
X038730Y079830
X037230Y080450
X037230Y083460
X039100Y083490
X039720Y084190
X039730Y082800
X039760Y087280
X041760Y087290
X041230Y089230
X038230Y089230
X035760Y089550
X035760Y087660
X034980Y085730
X031980Y085730
X030600Y085550
X029970Y086240
X030600Y086940
X028980Y087230
X025980Y087230
X019760Y088410
X019760Y090300
X012830Y085290
X010580Y083980
X009950Y083610
X008070Y083610
X007950Y078610
X009700Y077980
X009830Y078610
X007700Y076360
X003330Y078480
X002950Y077860
X001450Y078480
X000580Y076610
X000570Y082730
X002080Y083360
X002450Y082730
X-000670Y083860
X-011140Y085950
X-013330Y085950
X-013570Y088230
X-011570Y088230
X-011950Y083100
X-013450Y083100
X-013440Y081100
X-011940Y081100
X-011070Y075520
X-013470Y075520
X-011710Y072950
X-011710Y070940
X-011650Y069070
X-011650Y067060
X-005850Y064740
X001480Y067210
X001480Y068710
X001480Y069960
X004230Y069960
X004230Y068710
X004230Y067210
X010230Y067210
X010230Y068710
X010230Y069960
X012980Y069960
X012980Y068710
X012980Y067210
X015650Y064740
X019050Y074480
X015130Y079200
X027100Y079300
X027290Y076990
X028710Y075570
X030330Y076110
X032210Y076110
X033330Y076110
X035210Y076110
X042080Y078480
X045080Y078470
X046080Y077480
X049080Y077470
X050600Y078490
X051220Y079190
X051230Y077800
X053080Y076970
X053080Y079980
X056360Y079380
X056360Y077790
X057900Y077690
X060900Y077690
X061080Y074480
X061900Y070150
X063910Y070150
X066360Y069190
X069260Y068940
X072260Y068930
X070780Y064310
X070160Y063620
X070780Y062930
X071160Y061190
X069160Y061190
X067780Y062930
X067160Y063620
X067780Y064310
X066360Y066190
X064110Y067290
X063780Y064310
X063160Y063620
X063780Y062930
X064320Y061280
X064410Y060190
X066160Y061190
X066150Y058190
X064400Y057190
X061150Y057190
X059360Y057190
X059360Y060190
X061160Y060190
X062320Y061280
X060670Y063040
X060670Y065050
X059360Y066190
X061110Y067290
X059360Y069190
X056170Y066050
X056170Y064040
X052770Y060380
X051770Y060380
X050860Y062850
X049860Y062850
X044950Y064180
X038800Y053670
X037800Y053670
X035790Y050620
X036670Y048570
X036140Y046050
X039670Y044570
X039670Y047570
X045450Y045640
X046950Y045640
X048200Y045640
X048200Y042890
X046950Y042890
X045450Y042890
X046570Y039370
X046570Y038620
X046720Y037300
X046720Y036420
X046840Y035060
X047960Y035540
X049210Y035540
X050460Y035540
X050460Y038040
X047960Y038040
X045200Y037560
X044320Y037560
X043070Y038560
X043070Y039310
X039880Y038610
X036140Y040590
X032170Y042440
X032170Y044320
X028310Y039950
X028170Y049940
X028170Y051820
X030920Y052070
X031920Y052070
X032920Y052070
X023110Y053300
X023110Y054170
X027920Y071820
X046820Y090110
X048700Y090110
X052250Y090170
X053250Y090170
X054250Y090170
X055250Y090170
X056250Y090170
X057250Y090170
X057250Y089420
X058250Y090170
X059250Y090170
X060250Y090170
X061250Y090170
X062430Y087980
X062430Y086980
X064580Y082730
X066580Y082730
X068080Y082730
X070080Y082730
X071830Y082730
X073580Y082730
X075330Y082730
X077180Y082730
X077180Y079720
X075330Y079720
X073580Y079720
X071830Y079720
X070080Y079720
X068080Y079720
X066580Y079720
X064580Y079720
X073070Y063780
X075070Y063790
X071150Y058190
X069150Y058190
X074680Y055920
X074680Y054920
X071450Y045640
X070200Y045640
X068700Y045640
X068700Y042890
X070200Y042890
X071450Y042890
X075300Y041170
X075300Y040170
X071580Y038500
X069780Y038500
X069780Y035500
X068620Y034400
X066620Y034400
X066530Y035500
X064780Y034500
X063150Y032760
X063780Y032070
X063150Y031370
X064580Y029500
X066820Y028400
X067020Y025540
X069030Y025540
X071580Y026500
X069830Y028400
X071580Y029500
X070270Y030640
X070260Y032640
X067780Y032070
X067150Y031370
X067150Y032760
X071570Y035500
X074760Y031640
X074770Y029640
X064580Y026500
X061680Y026750
X058680Y026750
X058910Y028170
X058910Y029050
X060150Y031370
X060780Y032070
X060150Y032760
X059780Y034500
X061780Y034500
X061780Y037500
X059780Y037500
X058690Y038130
X064780Y037500
X066530Y038500
X057870Y031900
X055860Y031900
X053300Y033550
X053300Y034420
X052240Y033230
X052240Y030860
X050330Y028940
X049080Y028940
X047580Y028940
X047580Y025440
X046860Y024180
X046240Y024790
X043970Y024030
X042690Y025130
X040810Y025130
X041380Y022560
X042260Y022560
X043220Y021780
X045240Y021210
X046740Y021210
X046740Y019200
X046740Y017760
X045240Y017760
X045240Y019200
X040430Y019630
X038660Y020970
X040430Y016630
X041220Y013830
X041270Y012840
X041270Y011840
X041270Y010840
X041270Y009840
X040020Y011840
X040020Y012840
X038740Y011770
X038750Y009760
X040980Y006290
X046070Y008950
X046750Y008990
X046720Y007990
X046790Y009990
X046820Y010990
X046080Y010960
X046850Y011990
X046880Y012990
X046110Y012990
X049320Y013610
X051200Y013610
X051740Y011800
X050080Y010930
X049080Y010930
X049760Y009280
X051760Y009290
X054690Y010340
X054830Y008230
X054830Y007220
X056600Y008470
X061250Y008410
X062250Y008410
X062680Y010500
X061180Y010500
X064500Y008410
X065500Y008410
X068430Y009880
X070320Y009880
X071430Y012000
X071430Y013750
X072720Y013280
X073590Y014150
X074940Y015750
X075050Y017250
X073590Y017150
X074450Y018800
X076220Y018840
X071440Y018800
X071430Y017380
X071430Y016000
X067940Y020130
X067940Y021140
X066000Y018910
X065000Y018910
X062750Y018910
X061750Y018910
X059090Y017230
X054740Y014800
X052910Y017470
X052970Y019410
X050460Y025540
X038130Y032820
X037510Y033430
X049140Y006510
X051510Y005510
X051510Y003630
X054640Y-000420
X054640Y-001430
X051860Y-006250
X050860Y-006250
X050860Y-007670
X051860Y-007670
X060570Y-007520
X062450Y-007520
X064250Y-007970
X066260Y-007970
X069620Y-008070
X071510Y-008070
X074830Y-006530
X075830Y-006530
X075800Y-007510
X077270Y-007250
X077270Y-008230
X078830Y-007980
X078830Y-008980
X078830Y-006270
X078830Y-005270
X077270Y-006250
X073480Y001420
X073800Y002910
X075870Y003920
X075870Y004920
X078820Y004670
X078820Y003670
X079170Y006440
X079170Y007120
X072640Y007270
X070800Y006880
X070800Y005500
X072640Y005260
X070800Y003250
X070800Y001500
X070780Y000840
X066130Y-001840
X064130Y-001850
X062330Y-003390
X060450Y-003390
X060680Y000000
X062180Y000000
X063620Y-021410
X061680Y-024090
X055050Y-023770
X053550Y-023740
X052050Y-023770
X054210Y-020840
X048020Y-023750
X023740Y-024730
X013750Y-019640
X010940Y-019640
X009130Y-020360
X008440Y-019730
X007750Y-020360
X007370Y-017700
X008360Y-016150
X009360Y-016150
X010190Y-017700
X011210Y-015040
X011210Y-013160
X013860Y-013610
X013860Y-014610
X012730Y-009330
X011860Y-009330
X016650Y-009080
X017650Y-009080
X022240Y-009110
X023240Y-009110
X026960Y-008090
X027960Y-008090
X027930Y-006650
X026930Y-006650
X007490Y-013840
X007490Y-014840
X002060Y-013880
X002060Y-012000
X001520Y-016130
X001520Y-018010
X001010Y-020890
X003830Y-020890
X005520Y-024230
X006520Y-024230
X008140Y-024250
X010950Y-024250
X010990Y-025230
X-004110Y-021000
X-006960Y-020590
X-006960Y-019580
X-008510Y-019280
X-010140Y-019180
X-009860Y-017530
X-009860Y-014710
X-013600Y004050
X-013600Y005050
X-013600Y006050
X-012920Y006030
X-006800Y008860
X-008830Y012120
X-008830Y013130
X-007990Y014410
X003340Y001470
X003340Y-000540
X074050Y-023660
X075550Y-023660
T07
X-013450Y-025370
X-011730Y-023050
X-011630Y-021990
X-011630Y-019370
X-011630Y-017370
X-011630Y-015370
X-011630Y-013370
X-011630Y-011370
X-007300Y-014650
X-007300Y-017650
X-000110Y-015230
X-000170Y-013230
X002050Y-013320
X004780Y-013710
X004780Y-014960
X004780Y-016210
X004780Y-017830
X004030Y-017830
X001550Y-016700
X001590Y-010220
X003170Y-010340
X003290Y-009640
X008040Y-009640
X012300Y-010950
X016830Y-011350
X019420Y-013390
X021610Y-012880
X024040Y-013390
X024080Y-017100
X024040Y-018140
X019290Y-018140
X016830Y-015350
X008040Y-004890
X005670Y-004150
X003420Y-004890
X001190Y-004410
X-000780Y-004400
X000210Y-002400
X-001010Y-001360
X001920Y-001230
X001920Y002770
X006260Y-000260
X-006430Y-001260
X-007040Y-002400
X-007780Y-004400
X-006060Y-004410
X-012110Y-004340
X-012940Y-003390
X-002020Y015430
X-001240Y017750
X001010Y018490
X002910Y015330
X-003620Y018490
X-003620Y023240
X-003910Y027250
X-006820Y025690
X-011790Y025690
X-005840Y033490
X-003790Y032000
X-001540Y032760
X-001290Y034690
X000840Y032000
X003740Y030380
X003700Y026690
X000840Y027250
X001130Y023240
X005510Y035740
X005100Y038100
X005940Y041370
X005850Y043100
X005840Y045110
X005840Y046550
X008340Y046550
X008340Y045110
X008350Y043100
X007950Y041370
X009350Y038100
X013100Y038100
X015120Y041070
X015120Y045820
X015120Y049570
X015120Y054320
X015120Y058070
X015120Y062820
X015120Y066570
X015120Y071320
X013100Y073600
X013650Y075220
X012360Y077360
X011560Y079890
X011560Y081140
X011560Y082390
X008850Y086630
X008850Y089130
X009850Y089130
X005780Y089160
X003620Y088380
X002500Y090010
X001620Y088380
X-000380Y088380
X-002380Y088380
X-003150Y085130
X-003150Y082130
X-002150Y082130
X-006750Y079700
X-005090Y076760
X-005260Y073690
X-005970Y070840
X-006710Y068470
X-005970Y066220
X-005970Y062340
X-006710Y059970
X-005970Y057720
X-008510Y056020
X-005970Y053840
X-006710Y051470
X-005970Y049220
X-005970Y045340
X-006710Y042970
X-005970Y040720
X-004600Y038240
X-001220Y040590
X001600Y038100
X-001220Y045340
X-001220Y049090
X-001220Y053840
X-001220Y057590
X-002210Y057970
X-001220Y062340
X-001220Y066090
X-001220Y070840
X001600Y073600
X005100Y073600
X005840Y072170
X005840Y070610
X005850Y068600
X005940Y066870
X007950Y066870
X008350Y068600
X008340Y070610
X008340Y072170
X009350Y073600
X005060Y079640
X005060Y080890
X005060Y082140
X000650Y090790
X001500Y091760
X-000500Y091760
X-002500Y091760
X003500Y091760
X018020Y083290
X017280Y080910
X018020Y078660
X022770Y078540
X023520Y081160
X022770Y083290
X029250Y081010
X029990Y078760
X029990Y083380
X034740Y083380
X034740Y078630
X036530Y071840
X036210Y069050
X033210Y069050
X033210Y066050
X033210Y064050
X033210Y062050
X036210Y062050
X036210Y064050
X036210Y066050
X026270Y075540
X025300Y074980
X024240Y076130
X022190Y071320
X019870Y071190
X020610Y068940
X019870Y066570
X019870Y062690
X020610Y060440
X019870Y058070
X022740Y056020
X019870Y054190
X020610Y051940
X019870Y049570
X019870Y045690
X020610Y043440
X019870Y041070
X026530Y038590
X030100Y033980
X032460Y033750
X034630Y034500
X039710Y033400
X041960Y034170
X043460Y033400
X044340Y033400
X044340Y032150
X044340Y028650
X039590Y028650
X038630Y023000
X038660Y021980
X041750Y020480
X043710Y020480
X042730Y018470
X045420Y023150
X048170Y023150
X048170Y022150
X048170Y020650
X048170Y019830
X049670Y020650
X049670Y022150
X049670Y023150
X051290Y023150
X052990Y023970
X049420Y017770
X058000Y014600
X059960Y014600
X058980Y012600
X059060Y003980
X057090Y003980
X058070Y001970
X064190Y-003860
X064190Y-005110
X064190Y-006360
X075880Y-002440
X076880Y-002440
X076920Y-001240
X075920Y-001240
X076700Y001130
X077570Y003190
X079370Y000380
X078360Y-004130
X075890Y007080
X075890Y008200
X076230Y009700
X075230Y009700
X075350Y011080
X076350Y011080
X076580Y012640
X076580Y013640
X076580Y014640
X076580Y015640
X076580Y016640
X076330Y020140
X076330Y021140
X076330Y022140
X076330Y023140
X075020Y023880
X073260Y024270
X072460Y023230
X070500Y023230
X069710Y023260
X070330Y025390
X073660Y026220
X071480Y021220
X066890Y023770
X062860Y023800
X057280Y034370
X056280Y035370
X057280Y036370
X055280Y036370
X055280Y034370
X052350Y037640
X055590Y039310
X058440Y040880
X066700Y043640
X066700Y045640
X073080Y044270
X073680Y046380
X074680Y047380
X073680Y048380
X075680Y048380
X075680Y046380
X075190Y050880
X070080Y056700
X073660Y059320
X074660Y060320
X073660Y061320
X075660Y061320
X075660Y059320
X076980Y059730
X074550Y072140
X077520Y074100
X077550Y075510
X077300Y076760
X077220Y078200
X075880Y078230
X081110Y076760
X079860Y073790
X079860Y073290
X076360Y084370
X075360Y084370
X074360Y084370
X072860Y084370
X071860Y084370
X070860Y084370
X069360Y084370
X068360Y084370
X067360Y084370
X065860Y084370
X064860Y084370
X063860Y084370
X063000Y091760
X066000Y091760
X068000Y091760
X070000Y091760
X072000Y091760
X078490Y089570
X078170Y086440
X058020Y079350
X057160Y073640
X056410Y072260
X054270Y073670
X053160Y073760
X051410Y073760
X048520Y073660
X053740Y069610
X055160Y061320
X056160Y060320
X057160Y061320
X057160Y059320
X055160Y059320
X053870Y055520
X048800Y055160
X043180Y048430
X042180Y047430
X041180Y048430
X041180Y046430
X041180Y046380
X043180Y046430
X043950Y044270
X041940Y043880
X044850Y039270
X044730Y035910
X040730Y035910
X035250Y040900
X034100Y041730
X035600Y043350
X033170Y047070
X031420Y046320
X031420Y048070
X031420Y049820
X033170Y049070
X049950Y045640
X049950Y043640
X062860Y056730
X076860Y039950
X075720Y036400
X075720Y034400
X073720Y034400
X073720Y036400
X079860Y010790
X079860Y010290
X080370Y008880
X079150Y008130
X079170Y-021750
X080740Y-022740
X060170Y-021930
X058110Y-024260
X056170Y-021930
X041050Y-025740
X031700Y-003470
X029880Y-003520
X029880Y000480
X031700Y000530
X030190Y003440
X030190Y007440
X030190Y008770
X027210Y008940
X025250Y008950
X026230Y006940
X022730Y003900
X022980Y-000060
X021010Y-000050
X021990Y-002060
X020980Y011910
X021960Y013910
X020000Y013920
X026170Y017270
X027150Y019270
X025190Y019280
X030210Y019430
X030210Y018130
X030210Y014130
X030190Y012770
X030210Y023430
X030160Y024730
X032080Y024680
X030160Y028730
X030100Y029980
X027310Y029760
X025340Y029760
X026320Y027750
X007950Y049870
X008350Y051600
X008340Y053610
X008340Y055110
X005840Y055050
X005840Y053610
X005850Y051600
X005940Y049870
X005940Y058370
X005850Y060100
X005840Y062110
X005840Y063480
X008340Y063480
X008340Y062110
X008350Y060100
X007950Y058370
X-013720Y079700
X046990Y086380
X-001050Y-022770
T08
X013240Y004240
X014240Y004250
X015240Y004240
X015240Y006770
X014230Y006770
X013230Y006780
X010820Y009380
X009330Y009380
X009770Y011900
X011270Y011900
X047970Y017780
X050910Y017780
X057590Y022050
X056160Y027380
X074660Y027380
X073350Y040700
X042360Y041740
X027000Y070570
T09
X-006430Y002740
X-005610Y002740
X-004660Y002740
X-002020Y002740
X-001040Y002740
X-000430Y002740
X-000880Y011240
X000320Y011240
X-002110Y011240
X-004680Y011240
X-005970Y011240
X-006930Y011240
X-012720Y016160
X000030Y037280
X-011970Y045780
X-011970Y056280
X-007500Y085180
X-005500Y085680
X-008880Y089550
X024050Y068170
X024050Y064920
X024280Y063030
X047780Y060780
X048810Y070880
X049910Y073640
X057670Y071410
X063530Y072280
X069280Y072280
X073350Y073630
X058530Y055280
X064030Y039280
X074680Y035380
X053650Y030160
X052530Y029190
X052550Y025920
X056530Y023530
X036160Y023470
X036290Y019720
X036290Y015470
X036290Y011840
X040620Y002570
X041120Y001320
X042380Y001320
X042900Y-000930
X040990Y-000930
X041460Y-004930
X043460Y-004930
X045120Y-004930
X046630Y-004930
X048460Y-004930
X049120Y-000930
X047260Y-000930
X047370Y001320
X048740Y001320
X049120Y002570
X019240Y-000370
T10
X003630Y037470
X019240Y035630
X034170Y056400
X036300Y056400
X045330Y051010
X046080Y051010
X046870Y051010
X048440Y051010
X049230Y051010
X066710Y050760
X067540Y050810
X068330Y050810
X069900Y050810
X070690Y050810
X009750Y075030
X003890Y074640
T11
X040930Y041240
X043560Y050610
X054310Y050610
X062310Y045110
X074810Y043610
X073060Y052490
T12
X056300Y068310
X044560Y081620
X044560Y087620
X074880Y068310
T13
X045150Y-003780
X045120Y-001990
X045120Y-000990
X045120Y001260
X-007870Y080700
X-005620Y083950
X-010810Y090380
T14
X033990Y-023170
X034740Y-023170
X035490Y-023170
X036240Y-023170
X036990Y-023170
X037740Y-023170
X037740Y-009230
X036990Y-009230
X036240Y-009230
X035490Y-009230
X034740Y-009230
X033990Y-009230
X038990Y-006050
X038990Y-005300
X038990Y-004550
X039120Y-000730
X039120Y000020
X039120Y000770
X038430Y003080
X038430Y003830
X038430Y004580
X038430Y005330
X038430Y006080
X038430Y006830
X043370Y004770
X044120Y004770
X044870Y004770
X045620Y004770
X046370Y004770
X047120Y004770
X051120Y000890
X051120Y000140
X051120Y-000610
X052490Y-002550
X052490Y-003300
X052490Y-004050
X064870Y000140
X065620Y000140
X066370Y000140
X067120Y000140
X067870Y000140
X068620Y000140
X068370Y-009420
X067620Y-009420
X066870Y-009420
X066120Y-009420
X065370Y-009420
X064620Y-009420
X073620Y-008800
X074370Y-008800
X075120Y-008800
X067990Y-023050
X067240Y-023050
X066490Y-023050
X065740Y-023050
X064990Y-023050
X064240Y-023050
X065740Y010770
X066490Y010770
X067240Y010770
X061620Y023520
X060870Y023520
X060120Y023520
X050580Y030760
X050580Y033760
X047580Y033760
X047580Y030760
X049620Y041270
X050370Y041270
X051120Y041270
X061870Y041270
X062620Y041270
X063370Y041270
X065870Y041270
X066620Y041270
X067370Y041270
X067370Y054520
X066620Y054520
X065870Y054520
X071120Y056770
X071870Y056770
X072620Y056770
X057870Y056640
X057120Y056640
X056370Y056640
X052120Y054520
X051370Y054520
X050620Y054520
X043120Y054270
X042370Y054270
X041620Y054270
X038870Y052270
X038870Y051520
X038870Y050770
X034370Y051270
X034370Y052020
X029120Y054270
X028370Y054270
X027620Y054270
X024620Y060270
X024620Y061020
X024620Y061770
X027800Y063610
X027800Y066610
X030800Y066610
X030800Y063610
X047620Y063520
X047620Y064270
X047620Y062770
X050370Y066020
X051120Y066020
X051870Y066020
X065620Y072020
X066370Y072020
X067120Y072020
X071870Y072020
X072620Y072020
X073370Y072020
X080370Y080520
X080370Y081270
X080370Y082020
X080420Y087240
X080420Y087990
X080420Y088740
X062620Y084020
X062620Y083270
X061620Y079520
X060870Y079520
X060120Y079520
X044990Y079640
X044240Y079640
X043490Y079640
X043120Y085020
X043120Y085770
X043620Y089770
X044370Y089770
X045120Y089770
X034370Y046270
X034370Y045520
X038620Y041770
X038620Y041020
X038620Y040270
X024370Y046520
X024370Y047270
X024370Y048020
X038370Y018580
X038370Y017830
X038370Y017080
X038370Y016330
X038370Y015580
X038370Y014830
X-011880Y041270
X-011880Y042020
X-011880Y042770
X-011880Y051020
X-011880Y051770
X-011880Y052520
X-011800Y060770
X-011800Y061520
X-011800Y062270
X-010810Y091420
X-008790Y091920
T15
X010410Y-006280
X011160Y-006280
X011790Y-006280
X012410Y-006280
X013160Y-006280
X013910Y-006280
X014660Y-006280
X015410Y-006280
X016160Y-006280
X016910Y-006280
X016910Y-005530
X016910Y-004660
X016910Y-003780
X016910Y-003030
X016910Y-002280
X016910Y-001530
X016910Y-000780
X016910Y-000030
X016910Y000720
X016910Y001470
X016910Y002220
X016910Y002340
X016160Y002340
X015410Y002340
X014660Y002340
X013910Y002340
X013160Y002340
X012410Y002340
X011790Y002340
X011160Y002340
X010410Y002340
X010410Y002220
X010410Y001470
X010410Y000720
X010410Y-000030
X010410Y-000780
X010410Y-001530
X010410Y-002280
X010410Y-003030
X010410Y-003780
X010410Y-004660
X010410Y-005410
T16
X009270Y005520
X019340Y005520
X027250Y-010870
X027280Y-022220
X077590Y-022220
X077590Y-010780
T17
X045240Y-006980
X045120Y003020
T18
X001110Y-024050
X013930Y-017170
X019340Y-024000
X008250Y-001690
X000000Y000000
X-008410Y004280
X-008460Y007140
X-008400Y017770
X-008350Y020220
X-012130Y032610
X-012080Y035070
X-003670Y037350
X000000Y035380
X014090Y033150
X035840Y029020
X037500Y035380
X052460Y028040
X054460Y024280
X043280Y016090
X054030Y003060
X056030Y-005840
X037500Y-000130
X075500Y-016190
X079020Y-024220
X076470Y024340
X076500Y038370
X076470Y057280
X076500Y071310
X080050Y091820
X054460Y071340
X047210Y073470
X040960Y076970
X025080Y073340
X024090Y066840
X025580Y054840
X046830Y054840
X049330Y047590
X054460Y038410
X054460Y057220
X011770Y075950
X014250Y086190
X-004520Y092020
X-007180Y091940
X-013140Y092000
X-003230Y074040
X-009250Y-009690
T19
X030240Y-016240
X048240Y-016240
X059680Y045110
X056930Y050610
M30
