%FSLAX34Y34*%
%MOMM*%
%LNSOLDERMASK_BOTTOM*%
G71*
G01*
%ADD10C,2.600*%
%ADD11C,2.400*%
%ADD12C,2.800*%
%ADD13C,2.600*%
%ADD14C,5.100*%
%ADD15C,1.600*%
%ADD16C,3.600*%
%ADD17C,7.600*%
%ADD18C,3.200*%
%ADD19C,2.900*%
%ADD20C,2.600*%
%ADD21C,2.600*%
%ADD22C,5.600*%
%ADD23C,3.100*%
%ADD24C,2.400*%
%ADD25C,3.100*%
%ADD26C,3.600*%
%ADD27C,2.800*%
%ADD28C,3.000*%
%ADD29C,1.800*%
%ADD30C,1.600*%
%ADD31C,2.700*%
%ADD32C,2.700*%
%ADD33C,2.500*%
%ADD34C,4.600*%
%ADD35C,5.600*%
%ADD36C,2.700*%
%ADD37C,2.800*%
%ADD38C,2.100*%
%ADD39C,3.100*%
%ADD40C,2.800*%
%ADD41C,6.600*%
%ADD42C,3.600*%
%ADD43C,3.300*%
%ADD44C,4.800*%
%ADD45C,5.100*%
%ADD46C,3.200*%
%ADD47C,3.100*%
%ADD48C,1.900*%
%ADD49R,1.470X0.835*%
%ADD50C,2.500*%
%ADD51C,2.250*%
%ADD52C,1.800*%
%ADD53C,1.600*%
%ADD54C,1.200*%
%ADD55C,1.400*%
%ADD56C,3.800*%
%ADD57C,2.200*%
%ADD58C,5.800*%
%ADD59C,3.200*%
%ADD60C,2.800*%
%ADD61C,2.200*%
%ADD62C,1.900*%
%LPD*%
X234895Y2379771D02*
G54D10*
D03*
X234945Y2456021D02*
G54D10*
D03*
X153901Y2376371D02*
G54D10*
D03*
X154014Y2325390D02*
G54D10*
D03*
X268201Y2350971D02*
G54D10*
D03*
X268313Y2299990D02*
G54D10*
D03*
X234911Y2151171D02*
G54D10*
D03*
X234961Y2227421D02*
G54D10*
D03*
X355632Y2407785D02*
G54D10*
D03*
X279382Y2407835D02*
G54D10*
D03*
X280591Y2227421D02*
G54D10*
D03*
X280541Y2151171D02*
G54D10*
D03*
X412694Y2379770D02*
G54D10*
D03*
X412744Y2456020D02*
G54D10*
D03*
X310026Y2255255D02*
G54D10*
D03*
X407591Y2252821D02*
G54D10*
D03*
X407541Y2176571D02*
G54D10*
D03*
X483790Y2252821D02*
G54D10*
D03*
X483740Y2176571D02*
G54D10*
D03*
X534590Y2252821D02*
G54D10*
D03*
X534540Y2176571D02*
G54D10*
D03*
X634062Y2318866D02*
G54D10*
D03*
X583082Y2318753D02*
G54D10*
D03*
X562608Y2449589D02*
G54D10*
D03*
X486358Y2449639D02*
G54D10*
D03*
X347266Y2332196D02*
G54D11*
D03*
X331366Y2314621D02*
G54D11*
D03*
X347300Y2297005D02*
G54D11*
D03*
X448866Y2332196D02*
G54D11*
D03*
X432966Y2314621D02*
G54D11*
D03*
X448900Y2297005D02*
G54D11*
D03*
X525066Y2332196D02*
G54D11*
D03*
X509166Y2314621D02*
G54D11*
D03*
X525100Y2297005D02*
G54D11*
D03*
X128166Y2256096D02*
G54D12*
D03*
X178966Y2256096D02*
G54D12*
D03*
X153566Y2230696D02*
G54D12*
D03*
X178966Y2205296D02*
G54D12*
D03*
X128166Y2205296D02*
G54D12*
D03*
X598066Y2256096D02*
G54D12*
D03*
X648866Y2256096D02*
G54D12*
D03*
X623466Y2230696D02*
G54D12*
D03*
X648866Y2205296D02*
G54D12*
D03*
X598066Y2205296D02*
G54D12*
D03*
X299592Y2480405D02*
G54D10*
D03*
X350572Y2480518D02*
G54D10*
D03*
X234911Y2151171D02*
G54D13*
D03*
X280541Y2151171D02*
G54D13*
D03*
X407541Y2176571D02*
G54D13*
D03*
X483740Y2176571D02*
G54D13*
D03*
X234911Y2151171D02*
G54D13*
D03*
X110490Y2510790D02*
G54D14*
D03*
X360826Y2255255D02*
G54D10*
D03*
X363141Y2227421D02*
G54D10*
D03*
X363091Y2151171D02*
G54D10*
D03*
X192141Y2512571D02*
G54D10*
D03*
X103366Y2306796D02*
G54D15*
D03*
X280541Y2151171D02*
G54D13*
D03*
X363091Y2151171D02*
G54D13*
D03*
X407541Y2176571D02*
G54D13*
D03*
X483740Y2176571D02*
G54D13*
D03*
X670322Y2509996D02*
G54D14*
D03*
X110490Y2152014D02*
G54D14*
D03*
X669686Y2153602D02*
G54D14*
D03*
X160516Y2433796D02*
G54D15*
D03*
X157340Y2433797D02*
G54D16*
D03*
X629065Y2433797D02*
G54D16*
D03*
X243116Y1844555D02*
G54D17*
D03*
X173266Y1984256D02*
G54D17*
D03*
X106591Y1984255D02*
G54D18*
D03*
X309791Y1844555D02*
G54D18*
D03*
X-102284Y1994355D02*
G54D19*
D03*
X-22284Y1994355D02*
G54D20*
D03*
X442716Y1989355D02*
G54D20*
D03*
X522716Y1989355D02*
G54D20*
D03*
X-22284Y1994355D02*
G54D19*
D03*
X442716Y1989355D02*
G54D19*
D03*
X522716Y1989355D02*
G54D12*
D03*
X-82284Y1994355D02*
G54D19*
D03*
X-42284Y1994355D02*
G54D19*
D03*
X462716Y1989356D02*
G54D19*
D03*
X502716Y1989355D02*
G54D19*
D03*
X-226709Y1878025D02*
G54D12*
D03*
X-226709Y1928825D02*
G54D12*
D03*
X-201309Y1903425D02*
G54D12*
D03*
X-175909Y1928826D02*
G54D12*
D03*
X-175909Y1878025D02*
G54D12*
D03*
X-226709Y1876755D02*
G54D21*
D03*
X-175909Y1876755D02*
G54D13*
D03*
X598791Y1876755D02*
G54D12*
D03*
X598791Y1927555D02*
G54D12*
D03*
X624191Y1902155D02*
G54D12*
D03*
X649591Y1927555D02*
G54D12*
D03*
X649591Y1876755D02*
G54D12*
D03*
X598791Y1876755D02*
G54D21*
D03*
X649591Y1876755D02*
G54D13*
D03*
X472248Y1788118D02*
G54D10*
D03*
X472248Y1857968D02*
G54D10*
D03*
X542098Y1788118D02*
G54D10*
D03*
X542098Y1857968D02*
G54D10*
D03*
X510348Y1857968D02*
G54D10*
D03*
X510348Y1788118D02*
G54D10*
D03*
X542099Y1788118D02*
G54D13*
D03*
X542099Y1857968D02*
G54D13*
D03*
X-118302Y1788118D02*
G54D10*
D03*
X-118302Y1857968D02*
G54D10*
D03*
X-48452Y1788118D02*
G54D10*
D03*
X-48452Y1857968D02*
G54D10*
D03*
X-80202Y1857968D02*
G54D10*
D03*
X-80202Y1788118D02*
G54D10*
D03*
X-48451Y1788118D02*
G54D13*
D03*
X-48451Y1857968D02*
G54D13*
D03*
X522716Y1989355D02*
G54D19*
D03*
X-4001Y1857968D02*
G54D21*
D03*
X421449Y1857968D02*
G54D21*
D03*
X636991Y1991080D02*
G54D21*
D03*
X-207559Y1813280D02*
G54D21*
D03*
X-226709Y1927555D02*
G54D13*
D03*
X-175909Y1927556D02*
G54D13*
D03*
X598791Y1927555D02*
G54D13*
D03*
X649591Y1927555D02*
G54D13*
D03*
X649591Y1876755D02*
G54D13*
D03*
X110490Y1674177D02*
G54D14*
D03*
X670322Y1673384D02*
G54D22*
D03*
X110490Y1315402D02*
G54D22*
D03*
X669686Y1316990D02*
G54D14*
D03*
X624065Y1597184D02*
G54D23*
D03*
X-490334Y2314256D02*
G54D24*
D03*
X-490334Y2390456D02*
G54D24*
D03*
X-566534Y2314256D02*
G54D24*
D03*
X-490334Y2314256D02*
G54D24*
D03*
X-566534Y2390456D02*
G54D24*
D03*
X-566534Y2314256D02*
G54D24*
D03*
X-490334Y2390456D02*
G54D24*
D03*
X-566534Y2390456D02*
G54D24*
D03*
X-490422Y2525479D02*
G54D10*
D03*
X-490422Y2436579D02*
G54D10*
D03*
X-528522Y2436579D02*
G54D10*
D03*
X-560272Y2436579D02*
G54D10*
D03*
X-500066Y2173689D02*
G54D10*
D03*
X-563565Y2268939D02*
G54D10*
D03*
X-531816Y2268939D02*
G54D10*
D03*
X-500066Y2268939D02*
G54D10*
D03*
X-471583Y2281228D02*
G54D10*
D03*
X-563566Y2522939D02*
G54D10*
D03*
X-445972Y2538179D02*
G54D10*
D03*
X-283544Y2390490D02*
G54D10*
D03*
X-226394Y2390490D02*
G54D10*
D03*
X-197694Y2466690D02*
G54D10*
D03*
X-197694Y2523840D02*
G54D10*
D03*
X-258744Y2324866D02*
G54D10*
D03*
X-312696Y2270984D02*
G54D10*
D03*
X-258744Y2324866D02*
G54D13*
D03*
X-130968Y2328918D02*
G54D10*
D03*
X-207218Y2328968D02*
G54D10*
D03*
X-130968Y2328918D02*
G54D13*
D03*
X-251794Y2250790D02*
G54D10*
D03*
X-200994Y2250790D02*
G54D10*
D03*
X-200994Y2250790D02*
G54D10*
D03*
X-172387Y2154684D02*
G54D10*
D03*
X-172499Y2205664D02*
G54D10*
D03*
X-172387Y2154684D02*
G54D10*
D03*
X-197694Y2428590D02*
G54D10*
D03*
X-165944Y2250790D02*
G54D10*
D03*
X-316564Y2390490D02*
G54D10*
D03*
X-305644Y2453990D02*
G54D10*
D03*
X-429340Y2452494D02*
G54D12*
D03*
X-353140Y2452494D02*
G54D12*
D03*
X-429340Y2376294D02*
G54D12*
D03*
X-429340Y2325494D02*
G54D12*
D03*
X-429340Y2274694D02*
G54D12*
D03*
X-353140Y2376294D02*
G54D12*
D03*
X-353140Y2325494D02*
G54D12*
D03*
X-353140Y2274694D02*
G54D12*
D03*
X-353140Y2452494D02*
G54D10*
D03*
X-206889Y2169691D02*
G54D10*
D03*
X-263109Y2171936D02*
G54D10*
D03*
X-263109Y2171936D02*
G54D10*
D03*
X-313909Y2171936D02*
G54D10*
D03*
G54D25*
X-341957Y2122446D02*
X-359635Y2140124D01*
G54D25*
X-395932Y2122446D02*
X-413610Y2140124D01*
X-660797Y2396490D02*
G54D22*
D03*
X-344884Y2523490D02*
G54D21*
D03*
X-566534Y2390456D02*
G54D26*
D03*
X-566534Y2314256D02*
G54D26*
D03*
X-490334Y2314256D02*
G54D26*
D03*
X-490334Y2390456D02*
G54D26*
D03*
X-64256Y1556054D02*
G54D24*
D03*
X-64256Y1479854D02*
G54D24*
D03*
X11944Y1556054D02*
G54D24*
D03*
X-64256Y1556054D02*
G54D24*
D03*
X11944Y1479854D02*
G54D24*
D03*
X11944Y1556054D02*
G54D24*
D03*
X-64256Y1479854D02*
G54D24*
D03*
X11944Y1479854D02*
G54D24*
D03*
X-64168Y1344831D02*
G54D10*
D03*
X-64168Y1433731D02*
G54D10*
D03*
X-26068Y1433731D02*
G54D10*
D03*
X5682Y1433731D02*
G54D10*
D03*
X8976Y1664871D02*
G54D10*
D03*
X-54524Y1664871D02*
G54D10*
D03*
X8975Y1601371D02*
G54D10*
D03*
X-22774Y1601371D02*
G54D10*
D03*
X-54524Y1601371D02*
G54D10*
D03*
X-83007Y1589082D02*
G54D10*
D03*
X8976Y1347371D02*
G54D10*
D03*
X56994Y1654795D02*
G54D21*
D03*
X11944Y1479854D02*
G54D26*
D03*
X11944Y1556054D02*
G54D26*
D03*
X-64256Y1556054D02*
G54D26*
D03*
X-64256Y1479854D02*
G54D26*
D03*
X-235514Y1275660D02*
G54D12*
D03*
X-232340Y1396310D02*
G54D12*
D03*
X-114864Y1275660D02*
G54D12*
D03*
X-114864Y1396310D02*
G54D12*
D03*
X-175189Y1415774D02*
G54D12*
D03*
X-232340Y1396310D02*
G54D27*
D03*
X-228718Y1455129D02*
G54D12*
D03*
X-127118Y1455128D02*
G54D12*
D03*
X-228718Y1455129D02*
G54D12*
D03*
X-430285Y1945003D02*
G54D28*
D03*
X-430285Y1894203D02*
G54D28*
D03*
X-474735Y1919604D02*
G54D28*
D03*
X-474735Y1875153D02*
G54D28*
D03*
X-474735Y1964053D02*
G54D28*
D03*
X-462035Y2021203D02*
G54D10*
D03*
X-487435Y2021203D02*
G54D10*
D03*
X-436635Y2021203D02*
G54D10*
D03*
X-523120Y1846578D02*
G54D10*
D03*
X-599370Y1846628D02*
G54D10*
D03*
X-602062Y1812318D02*
G54D10*
D03*
X-525812Y1812268D02*
G54D10*
D03*
X-586128Y1780842D02*
G54D10*
D03*
X-535148Y1780954D02*
G54D10*
D03*
X-557285Y2014941D02*
G54D10*
D03*
X-557285Y1967141D02*
G54D10*
D03*
X-553675Y1713316D02*
G54D10*
D03*
X-553725Y1637067D02*
G54D10*
D03*
X-493785Y1662254D02*
G54D10*
D03*
X-493785Y1710053D02*
G54D10*
D03*
X-581229Y1902097D02*
G54D10*
D03*
X-546129Y1902098D02*
G54D10*
D03*
X-455685Y1776553D02*
G54D10*
D03*
X-455685Y1824354D02*
G54D10*
D03*
X-602007Y1744671D02*
G54D10*
D03*
X-525757Y1744621D02*
G54D10*
D03*
X-354810Y1868248D02*
G54D10*
D03*
X-493785Y1662254D02*
G54D10*
D03*
G36*
X-350735Y1997373D02*
X-350735Y1971373D01*
X-376735Y1971373D01*
X-376735Y1997373D01*
X-350735Y1997373D01*
G37*
X-379485Y1706792D02*
G54D29*
D03*
X-379485Y1681392D02*
G54D30*
D03*
X-430285Y1706791D02*
G54D30*
D03*
X-430285Y1681391D02*
G54D29*
D03*
X-379485Y1605191D02*
G54D30*
D03*
X-430285Y1605191D02*
G54D30*
D03*
X-377453Y1737557D02*
G54D12*
D03*
X-393148Y1575052D02*
G54D21*
D03*
X-430285Y1706791D02*
G54D29*
D03*
X-379485Y1605191D02*
G54D29*
D03*
X-430285Y1605191D02*
G54D29*
D03*
X-1165276Y1758104D02*
G54D10*
D03*
X-1235126Y1758104D02*
G54D10*
D03*
X-1165276Y1827954D02*
G54D10*
D03*
X-1235126Y1827954D02*
G54D10*
D03*
X-1235126Y1796204D02*
G54D10*
D03*
X-1165276Y1796204D02*
G54D10*
D03*
X-1121868Y1749333D02*
G54D31*
D03*
X-1070886Y1749445D02*
G54D31*
D03*
X-943026Y1758104D02*
G54D10*
D03*
X-1012876Y1758104D02*
G54D10*
D03*
X-943026Y1827954D02*
G54D10*
D03*
X-1012876Y1827954D02*
G54D10*
D03*
X-1012876Y1796204D02*
G54D10*
D03*
X-943026Y1796204D02*
G54D10*
D03*
X-1060803Y1793431D02*
G54D10*
D03*
X-1060916Y1844411D02*
G54D10*
D03*
X-1124303Y1793431D02*
G54D10*
D03*
X-1124416Y1844411D02*
G54D10*
D03*
X-943026Y1827954D02*
G54D13*
D03*
X-1012876Y1827954D02*
G54D13*
D03*
X-1060916Y1844412D02*
G54D32*
D03*
X-1124416Y1844412D02*
G54D13*
D03*
X-1165276Y1827954D02*
G54D13*
D03*
X-1235126Y1827954D02*
G54D13*
D03*
X-1124303Y1793431D02*
G54D31*
D03*
X-1124416Y1844411D02*
G54D31*
D03*
X-1060916Y1844411D02*
G54D31*
D03*
X-1060803Y1793431D02*
G54D31*
D03*
X-888813Y1862396D02*
G54D12*
D03*
X-768163Y1859222D02*
G54D12*
D03*
X-888813Y1741746D02*
G54D12*
D03*
X-768163Y1741746D02*
G54D12*
D03*
X-749350Y1802071D02*
G54D12*
D03*
X-875306Y1695466D02*
G54D33*
D03*
X-773706Y1695467D02*
G54D33*
D03*
X-768163Y1859222D02*
G54D12*
D03*
X-1303808Y1729658D02*
G54D12*
D03*
X-1424458Y1732832D02*
G54D12*
D03*
X-1303808Y1850308D02*
G54D12*
D03*
X-1424458Y1850308D02*
G54D12*
D03*
X-1443270Y1789983D02*
G54D12*
D03*
X-1424457Y1732832D02*
G54D12*
D03*
X-1424458Y1850308D02*
G54D12*
D03*
X-1421406Y1695466D02*
G54D33*
D03*
X-1319806Y1695467D02*
G54D33*
D03*
X-875306Y1695466D02*
G54D10*
D03*
X-1421406Y1695466D02*
G54D10*
D03*
X-1165276Y1974004D02*
G54D10*
D03*
X-1235126Y1974004D02*
G54D10*
D03*
X-1165276Y2043854D02*
G54D10*
D03*
X-1235126Y2043854D02*
G54D10*
D03*
X-1235126Y2012104D02*
G54D10*
D03*
X-1165276Y2012104D02*
G54D10*
D03*
X-1121868Y1965233D02*
G54D31*
D03*
X-1070886Y1965345D02*
G54D31*
D03*
X-943026Y1974004D02*
G54D10*
D03*
X-1012876Y1974004D02*
G54D10*
D03*
X-943026Y2043854D02*
G54D10*
D03*
X-1012876Y2043854D02*
G54D10*
D03*
X-1012876Y2012104D02*
G54D10*
D03*
X-943026Y2012104D02*
G54D10*
D03*
X-1060803Y2009331D02*
G54D10*
D03*
X-1060916Y2060312D02*
G54D10*
D03*
X-1124303Y2009331D02*
G54D10*
D03*
X-1124416Y2060311D02*
G54D10*
D03*
X-943026Y2043854D02*
G54D13*
D03*
X-1012876Y2043854D02*
G54D13*
D03*
X-1060916Y2060312D02*
G54D32*
D03*
X-1124416Y2060312D02*
G54D13*
D03*
X-1165276Y2043854D02*
G54D13*
D03*
X-1235126Y2043854D02*
G54D13*
D03*
X-1124303Y2009331D02*
G54D31*
D03*
X-1124416Y2060311D02*
G54D31*
D03*
X-1060916Y2060312D02*
G54D31*
D03*
X-1060803Y2009331D02*
G54D31*
D03*
X-888813Y2078296D02*
G54D12*
D03*
X-768163Y2075122D02*
G54D12*
D03*
X-888813Y1957646D02*
G54D12*
D03*
X-768163Y1957646D02*
G54D12*
D03*
X-749350Y2017971D02*
G54D12*
D03*
X-875306Y1911366D02*
G54D33*
D03*
X-773706Y1911367D02*
G54D33*
D03*
X-768163Y2075122D02*
G54D12*
D03*
X-1303808Y1945558D02*
G54D12*
D03*
X-1424458Y1948732D02*
G54D12*
D03*
X-1303808Y2066208D02*
G54D12*
D03*
X-1424458Y2066208D02*
G54D12*
D03*
X-1443270Y2005883D02*
G54D12*
D03*
X-1424457Y1948731D02*
G54D12*
D03*
X-1424458Y2066208D02*
G54D12*
D03*
X-1421406Y1911366D02*
G54D33*
D03*
X-1319806Y1911367D02*
G54D33*
D03*
X-875306Y1911366D02*
G54D10*
D03*
X-1421406Y1911366D02*
G54D10*
D03*
X-1165276Y2189904D02*
G54D10*
D03*
X-1235126Y2189904D02*
G54D10*
D03*
X-1165276Y2259754D02*
G54D10*
D03*
X-1235126Y2259754D02*
G54D10*
D03*
X-1235126Y2228004D02*
G54D10*
D03*
X-1165276Y2228004D02*
G54D10*
D03*
X-1121868Y2181133D02*
G54D31*
D03*
X-1070886Y2181245D02*
G54D31*
D03*
X-943026Y2189904D02*
G54D10*
D03*
X-1012876Y2189904D02*
G54D10*
D03*
X-943026Y2259754D02*
G54D10*
D03*
X-1012876Y2259754D02*
G54D10*
D03*
X-1012876Y2228004D02*
G54D10*
D03*
X-943026Y2228004D02*
G54D10*
D03*
X-1060803Y2225231D02*
G54D10*
D03*
X-1060916Y2276212D02*
G54D10*
D03*
X-1124303Y2225231D02*
G54D10*
D03*
X-1124416Y2276212D02*
G54D10*
D03*
X-943026Y2259754D02*
G54D13*
D03*
X-1012876Y2259754D02*
G54D13*
D03*
X-1060916Y2276212D02*
G54D32*
D03*
X-1124416Y2276212D02*
G54D13*
D03*
X-1165276Y2259754D02*
G54D13*
D03*
X-1235126Y2259754D02*
G54D13*
D03*
X-1124303Y2225231D02*
G54D31*
D03*
X-1124416Y2276212D02*
G54D31*
D03*
X-1060916Y2276212D02*
G54D31*
D03*
X-1060803Y2225231D02*
G54D31*
D03*
X-888813Y2294196D02*
G54D12*
D03*
X-768163Y2291022D02*
G54D12*
D03*
X-888813Y2173546D02*
G54D12*
D03*
X-768163Y2173546D02*
G54D12*
D03*
X-749350Y2233871D02*
G54D12*
D03*
X-875306Y2127266D02*
G54D33*
D03*
X-773706Y2127266D02*
G54D33*
D03*
X-768163Y2291022D02*
G54D12*
D03*
X-1303808Y2161458D02*
G54D12*
D03*
X-1424458Y2164632D02*
G54D12*
D03*
X-1303808Y2282108D02*
G54D12*
D03*
X-1424458Y2282108D02*
G54D12*
D03*
X-1443270Y2221783D02*
G54D12*
D03*
X-1424457Y2164632D02*
G54D12*
D03*
X-1424458Y2282108D02*
G54D12*
D03*
X-1421406Y2127266D02*
G54D33*
D03*
X-1319806Y2127266D02*
G54D33*
D03*
X-875306Y2127266D02*
G54D10*
D03*
X-1421406Y2127266D02*
G54D10*
D03*
X-1165276Y2405804D02*
G54D10*
D03*
X-1235126Y2405804D02*
G54D10*
D03*
X-1165276Y2475654D02*
G54D10*
D03*
X-1235126Y2475654D02*
G54D10*
D03*
X-1235126Y2443904D02*
G54D10*
D03*
X-1165276Y2443904D02*
G54D10*
D03*
X-1121868Y2397033D02*
G54D31*
D03*
X-1070886Y2397145D02*
G54D31*
D03*
X-943026Y2405804D02*
G54D10*
D03*
X-1012876Y2405804D02*
G54D10*
D03*
X-943026Y2475654D02*
G54D10*
D03*
X-1012876Y2475654D02*
G54D10*
D03*
X-1012876Y2443904D02*
G54D10*
D03*
X-943026Y2443904D02*
G54D10*
D03*
X-1060803Y2441131D02*
G54D10*
D03*
X-1060916Y2492112D02*
G54D10*
D03*
X-1124303Y2441131D02*
G54D10*
D03*
X-1124416Y2492111D02*
G54D10*
D03*
X-943026Y2475654D02*
G54D13*
D03*
X-1012876Y2475654D02*
G54D13*
D03*
X-1060916Y2492112D02*
G54D32*
D03*
X-1124416Y2492112D02*
G54D13*
D03*
X-1165276Y2475654D02*
G54D13*
D03*
X-1235126Y2475654D02*
G54D13*
D03*
X-1124303Y2441131D02*
G54D31*
D03*
X-1124416Y2492111D02*
G54D31*
D03*
X-1060916Y2492111D02*
G54D31*
D03*
X-1060803Y2441131D02*
G54D31*
D03*
X-888813Y2510096D02*
G54D12*
D03*
X-768163Y2506922D02*
G54D12*
D03*
X-888813Y2389446D02*
G54D12*
D03*
X-768163Y2389446D02*
G54D12*
D03*
X-749350Y2449771D02*
G54D12*
D03*
X-875306Y2343166D02*
G54D33*
D03*
X-773706Y2343166D02*
G54D33*
D03*
X-768163Y2506922D02*
G54D12*
D03*
X-1303808Y2377358D02*
G54D12*
D03*
X-1424458Y2380532D02*
G54D12*
D03*
X-1303808Y2498008D02*
G54D12*
D03*
X-1424458Y2498008D02*
G54D12*
D03*
X-1443270Y2437683D02*
G54D12*
D03*
X-1424457Y2380532D02*
G54D12*
D03*
X-1424458Y2498008D02*
G54D12*
D03*
X-1421406Y2343166D02*
G54D33*
D03*
X-1319806Y2343166D02*
G54D33*
D03*
X-875306Y2343166D02*
G54D10*
D03*
X-1421406Y2343166D02*
G54D10*
D03*
X-940152Y1666431D02*
G54D31*
D03*
X-940152Y1666431D02*
G54D31*
D03*
X-1035402Y1666431D02*
G54D31*
D03*
X-1035402Y1666431D02*
G54D31*
D03*
X-1143352Y1666431D02*
G54D31*
D03*
X-1143352Y1666431D02*
G54D31*
D03*
X-1232252Y1666431D02*
G54D31*
D03*
X-1232252Y1666431D02*
G54D31*
D03*
X-940152Y2568131D02*
G54D31*
D03*
X-940152Y2568131D02*
G54D31*
D03*
X-1035402Y2568131D02*
G54D31*
D03*
X-1035402Y2568131D02*
G54D31*
D03*
X-1143352Y2568131D02*
G54D31*
D03*
X-1143352Y2568131D02*
G54D31*
D03*
X-1232252Y2568131D02*
G54D31*
D03*
X-1232252Y2568131D02*
G54D31*
D03*
X-1488888Y2121601D02*
G54D21*
D03*
X-695138Y2121601D02*
G54D21*
D03*
X-83185Y2091689D02*
G54D22*
D03*
X-73661Y2564764D02*
G54D34*
D03*
X-622936Y2091689D02*
G54D22*
D03*
X-635636Y2561590D02*
G54D22*
D03*
X-1243989Y1288915D02*
G54D12*
D03*
X-1247163Y1168265D02*
G54D12*
D03*
X-1364638Y1288915D02*
G54D12*
D03*
X-1364638Y1168265D02*
G54D12*
D03*
X-1304314Y1149452D02*
G54D12*
D03*
X-1372188Y1390784D02*
G54D12*
D03*
X-1369014Y1511434D02*
G54D12*
D03*
X-1251538Y1390784D02*
G54D12*
D03*
X-1251539Y1511434D02*
G54D12*
D03*
X-1311864Y1530722D02*
G54D12*
D03*
X-1417268Y1326208D02*
G54D33*
D03*
X-1417268Y1224608D02*
G54D33*
D03*
X-1417268Y1326208D02*
G54D10*
D03*
X-1421066Y1549404D02*
G54D33*
D03*
X-1421066Y1447803D02*
G54D33*
D03*
X-1421066Y1549404D02*
G54D10*
D03*
X-1421066Y1549404D02*
G54D12*
D03*
X-1247163Y1168265D02*
G54D12*
D03*
X-1251539Y1511434D02*
G54D12*
D03*
X-1369014Y1511434D02*
G54D12*
D03*
X-1251539Y1511434D02*
G54D12*
D03*
X-1272778Y1597184D02*
G54D14*
D03*
X-320278Y1597184D02*
G54D14*
D03*
X-1272778Y698659D02*
G54D14*
D03*
X-320278Y695484D02*
G54D22*
D03*
X672373Y1121274D02*
G54D21*
D03*
X672374Y1095874D02*
G54D21*
D03*
X654910Y906962D02*
G54D21*
D03*
X654911Y878386D02*
G54D21*
D03*
X641189Y980024D02*
G54D21*
D03*
X666589Y980024D02*
G54D21*
D03*
X-354245Y1294683D02*
G54D23*
D03*
X-351070Y1199433D02*
G54D23*
D03*
X-351070Y1091483D02*
G54D23*
D03*
X-351070Y999408D02*
G54D23*
D03*
X-781639Y838945D02*
G54D35*
D03*
X-1037340Y838845D02*
G54D35*
D03*
X-936614Y870770D02*
G54D36*
D03*
X-911240Y870645D02*
G54D36*
D03*
X-885796Y870670D02*
G54D36*
D03*
X-688534Y937029D02*
G54D10*
D03*
X-688709Y988021D02*
G54D10*
D03*
X-986464Y1000895D02*
G54D37*
D03*
X-1035864Y936795D02*
G54D37*
D03*
X-997864Y936795D02*
G54D37*
D03*
X-1024564Y1000895D02*
G54D37*
D03*
X-1135740Y950045D02*
G54D10*
D03*
X-1135864Y1000962D02*
G54D10*
D03*
X-872214Y978620D02*
G54D10*
D03*
X-795964Y978570D02*
G54D10*
D03*
X-1138314Y881920D02*
G54D10*
D03*
X-1138314Y907420D02*
G54D10*
D03*
X-872214Y930995D02*
G54D10*
D03*
X-795965Y930945D02*
G54D10*
D03*
X-897614Y1350095D02*
G54D10*
D03*
X-948531Y1349970D02*
G54D10*
D03*
X-932540Y1305645D02*
G54D11*
D03*
X-914964Y1289745D02*
G54D11*
D03*
X-897348Y1305680D02*
G54D11*
D03*
X-926190Y1451695D02*
G54D10*
D03*
X-900764Y1451745D02*
G54D10*
D03*
X-872214Y1305645D02*
G54D10*
D03*
X-796040Y1305645D02*
G54D10*
D03*
X-1050014Y1365970D02*
G54D10*
D03*
X-973764Y1365920D02*
G54D10*
D03*
X-891264Y1254845D02*
G54D10*
D03*
X-942181Y1254720D02*
G54D10*
D03*
X-897614Y1191345D02*
G54D11*
D03*
X-915214Y1207245D02*
G54D11*
D03*
X-932806Y1191310D02*
G54D11*
D03*
X-897240Y1130945D02*
G54D11*
D03*
X-915214Y1146920D02*
G54D11*
D03*
X-932806Y1130985D02*
G54D11*
D03*
X-872214Y1191345D02*
G54D10*
D03*
X-796040Y1191345D02*
G54D10*
D03*
X-897615Y1070645D02*
G54D11*
D03*
X-915214Y1086595D02*
G54D11*
D03*
X-932806Y1070660D02*
G54D11*
D03*
X-1050014Y1134195D02*
G54D10*
D03*
X-973764Y1134145D02*
G54D10*
D03*
X-1049806Y1090016D02*
G54D10*
D03*
X-973556Y1089966D02*
G54D10*
D03*
X-872214Y1070695D02*
G54D10*
D03*
X-795940Y1070645D02*
G54D10*
D03*
X-810894Y1025905D02*
G54D10*
D03*
X-861810Y1025780D02*
G54D10*
D03*
X-872214Y1146895D02*
G54D10*
D03*
X-795964Y1146845D02*
G54D10*
D03*
X-714939Y1052045D02*
G54D21*
D03*
X-739923Y1001113D02*
G54D21*
D03*
X-764822Y1052160D02*
G54D21*
D03*
X-707114Y1238970D02*
G54D11*
D03*
X-724915Y1254770D02*
G54D11*
D03*
X-742305Y1238935D02*
G54D11*
D03*
X-1062714Y1451695D02*
G54D10*
D03*
X-1037140Y1451645D02*
G54D10*
D03*
X-764264Y1340570D02*
G54D10*
D03*
X-688014Y1340520D02*
G54D10*
D03*
X-764264Y1299295D02*
G54D10*
D03*
X-688014Y1299245D02*
G54D10*
D03*
X-783314Y1248495D02*
G54D10*
D03*
X-834231Y1248370D02*
G54D10*
D03*
X-764264Y1204045D02*
G54D10*
D03*
X-688014Y1203995D02*
G54D10*
D03*
X-688114Y1077020D02*
G54D10*
D03*
X-688227Y1128000D02*
G54D10*
D03*
X-688065Y1159595D02*
G54D10*
D03*
X-764340Y1159645D02*
G54D10*
D03*
X-1113464Y1318370D02*
G54D10*
D03*
X-1088602Y1318058D02*
G54D10*
D03*
X-1084940Y1134195D02*
G54D10*
D03*
X-1135914Y1134045D02*
G54D10*
D03*
X-1050014Y1178645D02*
G54D10*
D03*
X-973764Y1178595D02*
G54D10*
D03*
X-986514Y1057995D02*
G54D10*
D03*
X-1037490Y1057845D02*
G54D10*
D03*
X-1109914Y1054845D02*
G54D10*
D03*
X-1135214Y1055145D02*
G54D10*
D03*
X-1084940Y1264370D02*
G54D10*
D03*
X-1135914Y1264270D02*
G54D10*
D03*
X-764264Y1451695D02*
G54D10*
D03*
X-789740Y1451695D02*
G54D10*
D03*
X-1050014Y1232620D02*
G54D10*
D03*
X-973764Y1232570D02*
G54D10*
D03*
X-986540Y1267570D02*
G54D10*
D03*
X-1037440Y1267370D02*
G54D10*
D03*
X-1021440Y1318345D02*
G54D10*
D03*
X-996540Y1318045D02*
G54D10*
D03*
X-872214Y1350095D02*
G54D10*
D03*
X-796040Y1350095D02*
G54D10*
D03*
X-872214Y1400895D02*
G54D10*
D03*
X-796040Y1400945D02*
G54D10*
D03*
X-1050040Y1400945D02*
G54D10*
D03*
X-973839Y1400945D02*
G54D10*
D03*
X-897614Y1400895D02*
G54D10*
D03*
X-948531Y1400770D02*
G54D10*
D03*
X-838990Y1451695D02*
G54D38*
D03*
X-798914Y1112280D02*
G54D10*
D03*
X-747934Y1112392D02*
G54D10*
D03*
X-738815Y946820D02*
G54D10*
D03*
X-885740Y806345D02*
G54D36*
D03*
X-911040Y806545D02*
G54D36*
D03*
X-936527Y806476D02*
G54D36*
D03*
X-548490Y795034D02*
G54D30*
D03*
X-573890Y795034D02*
G54D30*
D03*
X-548490Y845834D02*
G54D30*
D03*
X-573890Y845834D02*
G54D30*
D03*
X-650090Y795034D02*
G54D29*
D03*
X-650090Y845834D02*
G54D30*
D03*
X-505881Y786150D02*
G54D12*
D03*
X-505881Y887750D02*
G54D12*
D03*
X-467688Y712041D02*
G54D12*
D03*
X-548490Y968468D02*
G54D30*
D03*
X-573890Y968469D02*
G54D30*
D03*
X-548490Y1019268D02*
G54D30*
D03*
X-573890Y1019268D02*
G54D30*
D03*
X-650090Y968468D02*
G54D30*
D03*
X-650090Y1019268D02*
G54D30*
D03*
X-581590Y925839D02*
G54D21*
D03*
X-606573Y874906D02*
G54D21*
D03*
X-631472Y925953D02*
G54D21*
D03*
X-546108Y1317719D02*
G54D30*
D03*
X-571508Y1317718D02*
G54D30*
D03*
X-546108Y1368518D02*
G54D30*
D03*
X-571508Y1368518D02*
G54D30*
D03*
X-647708Y1317718D02*
G54D30*
D03*
X-647708Y1368518D02*
G54D30*
D03*
X-546108Y1493137D02*
G54D30*
D03*
X-571508Y1493137D02*
G54D30*
D03*
X-546108Y1543938D02*
G54D30*
D03*
X-571508Y1543937D02*
G54D30*
D03*
X-647708Y1493138D02*
G54D30*
D03*
X-647708Y1543937D02*
G54D30*
D03*
X-579208Y1454476D02*
G54D21*
D03*
X-604192Y1403544D02*
G54D21*
D03*
X-629091Y1454590D02*
G54D21*
D03*
X-583177Y1188173D02*
G54D21*
D03*
X-608160Y1137241D02*
G54D21*
D03*
X-633060Y1188288D02*
G54D21*
D03*
X-547696Y1231200D02*
G54D30*
D03*
X-573096Y1231200D02*
G54D30*
D03*
X-547696Y1282000D02*
G54D30*
D03*
X-573096Y1282000D02*
G54D30*
D03*
X-649296Y1231200D02*
G54D30*
D03*
X-649296Y1282000D02*
G54D30*
D03*
X-549283Y1058956D02*
G54D30*
D03*
X-574683Y1058956D02*
G54D30*
D03*
X-549283Y1109756D02*
G54D30*
D03*
X-574683Y1109756D02*
G54D30*
D03*
X-650883Y1058956D02*
G54D30*
D03*
X-650883Y1109756D02*
G54D30*
D03*
X-505881Y921485D02*
G54D12*
D03*
X-505881Y1023085D02*
G54D12*
D03*
X-505484Y1057613D02*
G54D12*
D03*
X-505484Y1159213D02*
G54D12*
D03*
X-505484Y1192154D02*
G54D12*
D03*
X-505484Y1293754D02*
G54D12*
D03*
X-506674Y1326694D02*
G54D12*
D03*
X-506674Y1428294D02*
G54D12*
D03*
X-508262Y1460044D02*
G54D12*
D03*
X-508262Y1561644D02*
G54D12*
D03*
X-457989Y1325488D02*
G54D21*
D03*
X-695320Y797644D02*
G54D21*
D03*
X-650090Y845834D02*
G54D29*
D03*
X-573890Y795034D02*
G54D29*
D03*
X-548490Y795034D02*
G54D29*
D03*
X-573890Y845834D02*
G54D29*
D03*
X-548490Y845834D02*
G54D29*
D03*
X-650090Y968468D02*
G54D29*
D03*
X-650090Y1019268D02*
G54D29*
D03*
X-573890Y968469D02*
G54D29*
D03*
X-548490Y968468D02*
G54D29*
D03*
X-548490Y1019268D02*
G54D29*
D03*
X-573889Y1019268D02*
G54D29*
D03*
X-574683Y1058956D02*
G54D29*
D03*
X-549283Y1058956D02*
G54D29*
D03*
X-549283Y1109756D02*
G54D29*
D03*
X-574683Y1109756D02*
G54D29*
D03*
X-650883Y1058956D02*
G54D29*
D03*
X-650883Y1109756D02*
G54D29*
D03*
X-649296Y1231200D02*
G54D29*
D03*
X-573096Y1231200D02*
G54D29*
D03*
X-649296Y1282000D02*
G54D29*
D03*
X-573096Y1282000D02*
G54D29*
D03*
X-547696Y1282000D02*
G54D29*
D03*
X-547696Y1231200D02*
G54D29*
D03*
X-647708Y1317718D02*
G54D29*
D03*
X-647708Y1368518D02*
G54D29*
D03*
X-571508Y1317718D02*
G54D29*
D03*
X-546108Y1317719D02*
G54D29*
D03*
X-546108Y1368518D02*
G54D29*
D03*
X-571508Y1368519D02*
G54D29*
D03*
X-647708Y1493138D02*
G54D29*
D03*
X-647708Y1543937D02*
G54D29*
D03*
X-571508Y1493137D02*
G54D29*
D03*
X-546108Y1493137D02*
G54D29*
D03*
X-546108Y1543938D02*
G54D29*
D03*
X-571508Y1543937D02*
G54D29*
D03*
X-583177Y1188173D02*
G54D21*
D03*
X-579208Y1454476D02*
G54D21*
D03*
X-550474Y601361D02*
G54D30*
D03*
X-575874Y601361D02*
G54D30*
D03*
X-550474Y652161D02*
G54D30*
D03*
X-575874Y652161D02*
G54D30*
D03*
X-652074Y601361D02*
G54D29*
D03*
X-652074Y652161D02*
G54D30*
D03*
X-652074Y652161D02*
G54D29*
D03*
X-575874Y601361D02*
G54D29*
D03*
X-550474Y601361D02*
G54D29*
D03*
X-575874Y652161D02*
G54D29*
D03*
X-550474Y652161D02*
G54D29*
D03*
X-689143Y697239D02*
G54D21*
D03*
X-714126Y646306D02*
G54D21*
D03*
X-739025Y697353D02*
G54D21*
D03*
X-513726Y710850D02*
G54D12*
D03*
X-513726Y609251D02*
G54D12*
D03*
X-467688Y712041D02*
G54D12*
D03*
X-467688Y610441D02*
G54D12*
D03*
X-549680Y703755D02*
G54D30*
D03*
X-575080Y703755D02*
G54D30*
D03*
X-549680Y754555D02*
G54D30*
D03*
X-575080Y754555D02*
G54D30*
D03*
X-651280Y703754D02*
G54D29*
D03*
X-651281Y754555D02*
G54D30*
D03*
X-651281Y754555D02*
G54D29*
D03*
X-575080Y703755D02*
G54D29*
D03*
X-549680Y703755D02*
G54D29*
D03*
X-575081Y754555D02*
G54D29*
D03*
X-549680Y754555D02*
G54D29*
D03*
X-784180Y1603677D02*
G54D39*
D03*
X-784180Y689277D02*
G54D23*
D03*
X-843195Y640633D02*
G54D40*
D03*
X-843195Y659683D02*
G54D40*
D03*
X-843195Y678733D02*
G54D40*
D03*
X-843195Y697783D02*
G54D40*
D03*
X-843195Y716833D02*
G54D40*
D03*
X-843195Y735883D02*
G54D40*
D03*
X-843195Y754933D02*
G54D40*
D03*
X-843195Y621583D02*
G54D40*
D03*
X-843195Y602533D02*
G54D40*
D03*
X-843195Y580308D02*
G54D40*
D03*
X-1177880Y1470327D02*
G54D12*
D03*
X-448264Y1555884D02*
G54D12*
D03*
X-557215Y2173689D02*
G54D10*
D03*
X72764Y1191635D02*
G54D10*
D03*
X666024Y1260974D02*
G54D21*
D03*
X666024Y1235574D02*
G54D21*
D03*
X666024Y1210174D02*
G54D21*
D03*
X-5132Y2569105D02*
G54D23*
D03*
X590233Y2568936D02*
G54D23*
D03*
X590232Y1732323D02*
G54D12*
D03*
X179018Y2569105D02*
G54D12*
D03*
X77418Y2572280D02*
G54D12*
D03*
X32968Y2572280D02*
G54D12*
D03*
X-1456134Y1547971D02*
G54D10*
D03*
X-1456184Y1471721D02*
G54D10*
D03*
X-1456184Y1471721D02*
G54D13*
D03*
X-1456184Y1471721D02*
G54D13*
D03*
X-1469069Y1594400D02*
G54D10*
D03*
X-1443594Y1594400D02*
G54D10*
D03*
X-607898Y2139716D02*
G54D10*
D03*
X-634885Y2139716D02*
G54D10*
D03*
X-471372Y2246079D02*
G54D10*
D03*
X-471372Y2220679D02*
G54D10*
D03*
X-471372Y2185754D02*
G54D15*
D03*
X-636472Y2173054D02*
G54D15*
D03*
X624002Y2119079D02*
G54D10*
D03*
X624002Y2093679D02*
G54D10*
D03*
X596900Y2136775D02*
G54D15*
D03*
X639878Y1744429D02*
G54D10*
D03*
X639878Y1719029D02*
G54D10*
D03*
X668516Y1767046D02*
G54D15*
D03*
X81078Y1572979D02*
G54D10*
D03*
X81078Y1550754D02*
G54D10*
D03*
X84316Y1614646D02*
G54D15*
D03*
X87490Y1513046D02*
G54D15*
D03*
X-304323Y1532172D02*
G54D10*
D03*
X-320039Y1547888D02*
G54D10*
D03*
X-309384Y1506696D02*
G54D15*
D03*
X-341134Y1538446D02*
G54D15*
D03*
X-604722Y2179404D02*
G54D15*
D03*
X595428Y2103204D02*
G54D15*
D03*
X665278Y2103204D02*
G54D15*
D03*
X662166Y2071846D02*
G54D15*
D03*
X677978Y1741254D02*
G54D15*
D03*
X611366Y1703546D02*
G54D15*
D03*
X-579322Y2115904D02*
G54D15*
D03*
X-553922Y2115904D02*
G54D15*
D03*
X87428Y1641242D02*
G54D15*
D03*
X87428Y1490429D02*
G54D15*
D03*
X-348341Y1563454D02*
G54D15*
D03*
X-285635Y1547579D02*
G54D15*
D03*
X-1326488Y984088D02*
G54D23*
D03*
X-1391575Y984088D02*
G54D23*
D03*
X-1324106Y768188D02*
G54D23*
D03*
X-1391178Y768188D02*
G54D23*
D03*
X-1295134Y984088D02*
G54D23*
D03*
X-1424516Y984088D02*
G54D23*
D03*
X-1283625Y768188D02*
G54D23*
D03*
X-1436025Y768188D02*
G54D23*
D03*
X-1337747Y871385D02*
G54D10*
D03*
X-1261497Y871336D02*
G54D10*
D03*
X-1445457Y923740D02*
G54D10*
D03*
X-1404275Y869788D02*
G54D10*
D03*
X-1223921Y769022D02*
G54D12*
D03*
X-1223921Y667422D02*
G54D12*
D03*
X-1436025Y768188D02*
G54D12*
D03*
X-1436025Y666588D02*
G54D12*
D03*
X-1188015Y735971D02*
G54D10*
D03*
X-1187903Y684990D02*
G54D10*
D03*
X-1475352Y735971D02*
G54D10*
D03*
X-1475240Y684990D02*
G54D10*
D03*
X-1451635Y637745D02*
G54D21*
D03*
X-1426736Y586698D02*
G54D21*
D03*
X-1292469Y586813D02*
G54D21*
D03*
X-1267485Y637745D02*
G54D21*
D03*
X-1242586Y586698D02*
G54D21*
D03*
X-1335652Y653420D02*
G54D10*
D03*
X-1335540Y602440D02*
G54D10*
D03*
X-1373752Y653420D02*
G54D10*
D03*
X-1373640Y602440D02*
G54D10*
D03*
X-1337697Y560185D02*
G54D10*
D03*
X-1388497Y560185D02*
G54D10*
D03*
X-1448725Y984088D02*
G54D23*
D03*
X-1264575Y984088D02*
G54D23*
D03*
X-1470269Y586813D02*
G54D21*
D03*
X-1138314Y907420D02*
G54D10*
D03*
X-1497089Y1006539D02*
G54D10*
D03*
X-1497090Y1032039D02*
G54D10*
D03*
X-504780Y286052D02*
G54D12*
D03*
X-47580Y286052D02*
G54D41*
D03*
X-694506Y2693484D02*
G54D12*
D03*
X-815156Y2696657D02*
G54D12*
D03*
X-694506Y2814134D02*
G54D12*
D03*
X-815156Y2814134D02*
G54D12*
D03*
X-833968Y2753808D02*
G54D12*
D03*
X-815156Y2696657D02*
G54D12*
D03*
X-888584Y2710416D02*
G54D33*
D03*
X-888584Y2812015D02*
G54D33*
D03*
X-888584Y2710415D02*
G54D10*
D03*
X-815156Y2696657D02*
G54D12*
D03*
X-390480Y2695877D02*
G54D12*
D03*
X-511130Y2699051D02*
G54D12*
D03*
X-390480Y2816527D02*
G54D12*
D03*
X-511130Y2816527D02*
G54D12*
D03*
X-529942Y2756202D02*
G54D12*
D03*
X-511130Y2699050D02*
G54D12*
D03*
X-584558Y2712809D02*
G54D33*
D03*
X-584558Y2814409D02*
G54D33*
D03*
X-584558Y2712809D02*
G54D10*
D03*
X-511130Y2699051D02*
G54D12*
D03*
X-1402132Y2648480D02*
G54D12*
D03*
X-1472784Y2748515D02*
G54D42*
D03*
X-973758Y2627712D02*
G54D22*
D03*
X-1354758Y2579293D02*
G54D22*
D03*
X-1365870Y1647430D02*
G54D14*
D03*
X-1180471Y1650474D02*
G54D43*
D03*
X-1173947Y2594469D02*
G54D39*
D03*
X-1025149Y2604375D02*
G54D43*
D03*
X-1189197Y453696D02*
G54D12*
D03*
X-1186023Y574346D02*
G54D12*
D03*
X-1068547Y453697D02*
G54D12*
D03*
X-1068547Y574346D02*
G54D12*
D03*
X-1128872Y593159D02*
G54D12*
D03*
X-1186024Y574346D02*
G54D12*
D03*
X-1068547Y574346D02*
G54D12*
D03*
X-1232384Y439116D02*
G54D33*
D03*
X-1232384Y540715D02*
G54D33*
D03*
X125494Y94833D02*
G54D10*
D03*
X49194Y94832D02*
G54D10*
D03*
X87394Y95627D02*
G54D10*
D03*
X-504780Y286052D02*
G54D41*
D03*
X607994Y97611D02*
G54D10*
D03*
X646194Y97612D02*
G54D10*
D03*
X-265185Y1830703D02*
G54D10*
D03*
X-321748Y2314360D02*
G54D10*
D03*
X-302130Y2333978D02*
G54D10*
D03*
X-265185Y1906903D02*
G54D10*
D03*
X-341385Y1932303D02*
G54D10*
D03*
X-641350Y1768475D02*
G54D10*
D03*
X-615950Y1590675D02*
G54D10*
D03*
X-1176222Y922104D02*
G54D15*
D03*
X-1176222Y947504D02*
G54D15*
D03*
X-1128198Y1463460D02*
G54D10*
D03*
X-1110167Y1481492D02*
G54D10*
D03*
X-1100022Y1512654D02*
G54D15*
D03*
X-1074622Y1512654D02*
G54D15*
D03*
X-782797Y237796D02*
G54D12*
D03*
X-779623Y358446D02*
G54D12*
D03*
X-662147Y237797D02*
G54D12*
D03*
X-662147Y358446D02*
G54D12*
D03*
X-779624Y358446D02*
G54D12*
D03*
X-662147Y358446D02*
G54D12*
D03*
X-845357Y308660D02*
G54D33*
D03*
X-845357Y410260D02*
G54D33*
D03*
X-1082568Y347176D02*
G54D10*
D03*
X-1082568Y321676D02*
G54D10*
D03*
X-126810Y775393D02*
G54D44*
D03*
G36*
X-224261Y747811D02*
X-168261Y747811D01*
X-168261Y716811D01*
X-224261Y716811D01*
X-224261Y747811D01*
G37*
G36*
X-62735Y747811D02*
X-6735Y747811D01*
X-6735Y716811D01*
X-62735Y716811D01*
X-62735Y747811D01*
G37*
G36*
X-211170Y690662D02*
X-155170Y690662D01*
X-155170Y659662D01*
X-211170Y659662D01*
X-211170Y690662D01*
G37*
G36*
X-100437Y690662D02*
X-44437Y690662D01*
X-44437Y659662D01*
X-100437Y659662D01*
X-100437Y690662D01*
G37*
G36*
X-196876Y589062D02*
X-140876Y589062D01*
X-140876Y558062D01*
X-196876Y558062D01*
X-196876Y589062D01*
G37*
G36*
X-116315Y589062D02*
X-60315Y589062D01*
X-60315Y558062D01*
X-116315Y558062D01*
X-116315Y589062D01*
G37*
G36*
X-154810Y589061D02*
X-98810Y589061D01*
X-98810Y558061D01*
X-154810Y558061D01*
X-154810Y589061D01*
G37*
X-123635Y521393D02*
G54D44*
D03*
X-1606550Y3070384D02*
G54D22*
D03*
X-910828Y2887821D02*
G54D45*
D03*
X150416Y550227D02*
G54D22*
D03*
X-1507728Y452596D02*
G54D22*
D03*
X-979079Y2791361D02*
G54D12*
D03*
X-979079Y2759611D02*
G54D12*
D03*
X-979079Y2727861D02*
G54D12*
D03*
X-1070929Y2695256D02*
G54D10*
D03*
X-1023129Y2695256D02*
G54D10*
D03*
X-1067754Y2822256D02*
G54D10*
D03*
X-1019954Y2822256D02*
G54D10*
D03*
X-1144179Y2785011D02*
G54D12*
D03*
X-1144179Y2753261D02*
G54D12*
D03*
X-1144179Y2721511D02*
G54D12*
D03*
X-1236029Y2692081D02*
G54D10*
D03*
X-1188229Y2692081D02*
G54D10*
D03*
X-1258254Y2800030D02*
G54D10*
D03*
X-1210454Y2800031D02*
G54D10*
D03*
X-1151331Y287022D02*
G54D12*
D03*
X-1151331Y318771D02*
G54D12*
D03*
X-1151330Y350521D02*
G54D12*
D03*
X-1220568Y393810D02*
G54D10*
D03*
X-1220568Y346010D02*
G54D10*
D03*
X-1232384Y439116D02*
G54D12*
D03*
X-845357Y308660D02*
G54D12*
D03*
X-322084Y2363946D02*
G54D15*
D03*
X-331672Y2344504D02*
G54D15*
D03*
X-305644Y2453990D02*
G54D10*
D03*
X-287613Y2472021D02*
G54D10*
D03*
X-309384Y2497296D02*
G54D15*
D03*
X-328497Y2481029D02*
G54D15*
D03*
X-1356596Y438314D02*
G54D10*
D03*
X-1415634Y2831065D02*
G54D42*
D03*
X-1333218Y2943527D02*
G54D12*
D03*
X-1282418Y2943527D02*
G54D12*
D03*
X-1231618Y2943527D02*
G54D12*
D03*
X-1180818Y2943527D02*
G54D12*
D03*
X-1498318Y2973292D02*
G54D46*
D03*
X-1060916Y2276212D02*
G54D31*
D03*
X-1124416Y2060311D02*
G54D31*
D03*
X-1060916Y2060312D02*
G54D31*
D03*
X-1124416Y1844411D02*
G54D31*
D03*
X-1060916Y1844411D02*
G54D31*
D03*
X-448353Y2249254D02*
G54D15*
D03*
X545281Y1448008D02*
G54D10*
D03*
X545231Y1371758D02*
G54D10*
D03*
X626274Y1451408D02*
G54D10*
D03*
X626162Y1502388D02*
G54D10*
D03*
X511975Y1476808D02*
G54D10*
D03*
X511862Y1527788D02*
G54D10*
D03*
X545265Y1676608D02*
G54D10*
D03*
X545215Y1600358D02*
G54D10*
D03*
X424544Y1419994D02*
G54D10*
D03*
X500794Y1419944D02*
G54D10*
D03*
X499585Y1600358D02*
G54D10*
D03*
X499635Y1676608D02*
G54D10*
D03*
X367482Y1448008D02*
G54D10*
D03*
X367432Y1371759D02*
G54D10*
D03*
X470150Y1572524D02*
G54D10*
D03*
X372585Y1574958D02*
G54D10*
D03*
X372635Y1651208D02*
G54D10*
D03*
X296385Y1574958D02*
G54D10*
D03*
X296435Y1651208D02*
G54D10*
D03*
X245585Y1574958D02*
G54D10*
D03*
X245635Y1651208D02*
G54D10*
D03*
X146114Y1508914D02*
G54D10*
D03*
X197094Y1509026D02*
G54D10*
D03*
X217568Y1378190D02*
G54D10*
D03*
X293818Y1378140D02*
G54D10*
D03*
X432910Y1495582D02*
G54D11*
D03*
X448810Y1513158D02*
G54D11*
D03*
X432876Y1530774D02*
G54D11*
D03*
X331310Y1495583D02*
G54D11*
D03*
X347210Y1513158D02*
G54D11*
D03*
X331275Y1530774D02*
G54D11*
D03*
X255110Y1495583D02*
G54D11*
D03*
X271010Y1513158D02*
G54D11*
D03*
X255075Y1530774D02*
G54D11*
D03*
X650422Y1572476D02*
G54D12*
D03*
X599622Y1572476D02*
G54D12*
D03*
X625022Y1597876D02*
G54D12*
D03*
X599622Y1623276D02*
G54D12*
D03*
X650422Y1623276D02*
G54D12*
D03*
X182110Y1571683D02*
G54D12*
D03*
X131310Y1571683D02*
G54D12*
D03*
X156710Y1597083D02*
G54D12*
D03*
X131310Y1622483D02*
G54D12*
D03*
X182110Y1622482D02*
G54D12*
D03*
X480584Y1347374D02*
G54D10*
D03*
X429604Y1347261D02*
G54D10*
D03*
X545265Y1676608D02*
G54D13*
D03*
X499635Y1676608D02*
G54D13*
D03*
X372635Y1651208D02*
G54D13*
D03*
X296435Y1651208D02*
G54D13*
D03*
X545265Y1676608D02*
G54D13*
D03*
X669686Y1316990D02*
G54D14*
D03*
X419350Y1572524D02*
G54D10*
D03*
X417035Y1600358D02*
G54D10*
D03*
X417085Y1676608D02*
G54D10*
D03*
X676810Y1520983D02*
G54D15*
D03*
X499635Y1676608D02*
G54D13*
D03*
X417085Y1676608D02*
G54D13*
D03*
X372635Y1651208D02*
G54D13*
D03*
X296435Y1651208D02*
G54D13*
D03*
X110489Y1674177D02*
G54D14*
D03*
X590232Y1732324D02*
G54D47*
D03*
X119210Y1531383D02*
G54D15*
D03*
X623466Y1394084D02*
G54D47*
D03*
X153566Y1394084D02*
G54D37*
D03*
X189944Y1258843D02*
G54D47*
D03*
X234894Y2379772D02*
G54D10*
D03*
X234944Y2456022D02*
G54D10*
D03*
X153901Y2376371D02*
G54D10*
D03*
X154013Y2325390D02*
G54D10*
D03*
X268200Y2350972D02*
G54D10*
D03*
X268312Y2299991D02*
G54D10*
D03*
X234910Y2151172D02*
G54D10*
D03*
X234960Y2227422D02*
G54D10*
D03*
X355631Y2407786D02*
G54D10*
D03*
X279381Y2407836D02*
G54D10*
D03*
X280590Y2227422D02*
G54D10*
D03*
X280540Y2151172D02*
G54D10*
D03*
X412694Y2379770D02*
G54D10*
D03*
X412743Y2456020D02*
G54D10*
D03*
X310025Y2255255D02*
G54D10*
D03*
X407590Y2252822D02*
G54D10*
D03*
X407540Y2176572D02*
G54D10*
D03*
X483790Y2252822D02*
G54D10*
D03*
X483740Y2176572D02*
G54D10*
D03*
X534590Y2252822D02*
G54D10*
D03*
X534540Y2176572D02*
G54D10*
D03*
X634062Y2318866D02*
G54D10*
D03*
X583081Y2318754D02*
G54D10*
D03*
X562606Y2449590D02*
G54D10*
D03*
X486357Y2449640D02*
G54D10*
D03*
X347265Y2332197D02*
G54D11*
D03*
X331365Y2314622D02*
G54D11*
D03*
X347299Y2297006D02*
G54D11*
D03*
X448865Y2332196D02*
G54D11*
D03*
X432965Y2314622D02*
G54D11*
D03*
X448900Y2297006D02*
G54D11*
D03*
X525065Y2332196D02*
G54D11*
D03*
X509165Y2314622D02*
G54D11*
D03*
X525100Y2297006D02*
G54D11*
D03*
X128165Y2256097D02*
G54D12*
D03*
X178965Y2256096D02*
G54D12*
D03*
X153565Y2230697D02*
G54D12*
D03*
X178965Y2205296D02*
G54D12*
D03*
X128165Y2205296D02*
G54D12*
D03*
X598065Y2256096D02*
G54D12*
D03*
X648865Y2256096D02*
G54D12*
D03*
X623464Y2230696D02*
G54D12*
D03*
X648864Y2205296D02*
G54D12*
D03*
X598065Y2205296D02*
G54D12*
D03*
X299591Y2480406D02*
G54D10*
D03*
X350571Y2480518D02*
G54D10*
D03*
X234910Y2151172D02*
G54D13*
D03*
X280540Y2151172D02*
G54D13*
D03*
X407540Y2176572D02*
G54D13*
D03*
X483740Y2176572D02*
G54D13*
D03*
X234910Y2151172D02*
G54D13*
D03*
X110489Y2510790D02*
G54D14*
D03*
X360825Y2255255D02*
G54D10*
D03*
X363140Y2227422D02*
G54D10*
D03*
X363090Y2151172D02*
G54D10*
D03*
X192140Y2512572D02*
G54D23*
D03*
X103365Y2306797D02*
G54D15*
D03*
X280540Y2151172D02*
G54D13*
D03*
X363090Y2151172D02*
G54D13*
D03*
X407540Y2176572D02*
G54D13*
D03*
X483740Y2176572D02*
G54D13*
D03*
X670321Y2509996D02*
G54D14*
D03*
X110489Y2152015D02*
G54D22*
D03*
X669686Y2153602D02*
G54D14*
D03*
X660965Y2296397D02*
G54D15*
D03*
X-354085Y1640203D02*
G54D48*
D03*
X-328685Y1640203D02*
G54D48*
D03*
X598255Y1364533D02*
G54D12*
D03*
X-973370Y526333D02*
G54D40*
D03*
X-843195Y558083D02*
G54D40*
D03*
X-843195Y526333D02*
G54D40*
D03*
X-938445Y526333D02*
G54D40*
D03*
X-919395Y526333D02*
G54D40*
D03*
X-900345Y526333D02*
G54D40*
D03*
X-881295Y526333D02*
G54D40*
D03*
X-862245Y526333D02*
G54D40*
D03*
X-957495Y526333D02*
G54D40*
D03*
X-843195Y526333D02*
G54D40*
D03*
X-1008295Y561258D02*
G54D40*
D03*
X-1008295Y580308D02*
G54D40*
D03*
X-1008295Y526333D02*
G54D40*
D03*
X-1008295Y716833D02*
G54D12*
D03*
X-1008295Y735883D02*
G54D40*
D03*
X-1008295Y754933D02*
G54D40*
D03*
X-1008295Y659683D02*
G54D40*
D03*
X-1008295Y678733D02*
G54D40*
D03*
X-1008295Y697783D02*
G54D40*
D03*
X-1008295Y716833D02*
G54D40*
D03*
X-1008295Y602533D02*
G54D40*
D03*
X-1008295Y621583D02*
G54D40*
D03*
X-1008295Y640633D02*
G54D40*
D03*
X-1008295Y659683D02*
G54D40*
D03*
X-989245Y526333D02*
G54D40*
D03*
X-1196680Y1569959D02*
G54D10*
D03*
X-1196680Y1546444D02*
G54D10*
D03*
X-1171280Y1569959D02*
G54D10*
D03*
X-1171280Y1546444D02*
G54D10*
D03*
X-1475740Y1064647D02*
G54D10*
D03*
X697548Y779691D02*
G54D21*
D03*
X-1331048Y290403D02*
G54D11*
D03*
X-1346948Y272828D02*
G54D11*
D03*
X-1331014Y255212D02*
G54D11*
D03*
X-1449619Y201298D02*
G54D10*
D03*
X-1449670Y175724D02*
G54D10*
D03*
X-1449670Y175724D02*
G54D10*
D03*
X-1449720Y150150D02*
G54D10*
D03*
X644922Y287496D02*
G54D22*
D03*
X-1352868Y2861036D02*
G54D12*
D03*
X-1568168Y409877D02*
G54D12*
D03*
X-1568168Y359077D02*
G54D12*
D03*
X-1568168Y308277D02*
G54D12*
D03*
X-1568168Y257477D02*
G54D12*
D03*
X-1449720Y150150D02*
G54D10*
D03*
X-1449771Y124575D02*
G54D10*
D03*
X-1449771Y124575D02*
G54D10*
D03*
X-1449821Y99000D02*
G54D10*
D03*
G36*
X-97660Y747812D02*
X-41660Y747812D01*
X-41660Y716812D01*
X-97660Y716812D01*
X-97660Y747812D01*
G37*
X-263797Y2836988D02*
G54D11*
D03*
X-279697Y2819413D02*
G54D11*
D03*
X-263762Y2801797D02*
G54D11*
D03*
X75499Y2653781D02*
G54D10*
D03*
X75549Y2730030D02*
G54D10*
D03*
X-460499Y2876158D02*
G54D10*
D03*
X-384249Y2876108D02*
G54D10*
D03*
X-19686Y1907539D02*
G54D22*
D03*
X-575300Y1578985D02*
G54D10*
D03*
X-598884Y1678940D02*
G54D21*
D03*
X205835Y2867245D02*
G54D49*
D03*
X205835Y2857085D02*
G54D49*
D03*
X205835Y2847433D02*
G54D49*
D03*
X205835Y2837273D02*
G54D49*
D03*
X205835Y2827367D02*
G54D49*
D03*
X-115729Y2771741D02*
G54D50*
D03*
X-90329Y2771741D02*
G54D50*
D03*
X-64929Y2771741D02*
G54D50*
D03*
X-39529Y2771741D02*
G54D50*
D03*
X-14129Y2771741D02*
G54D50*
D03*
X11271Y2771741D02*
G54D50*
D03*
X36671Y2771741D02*
G54D50*
D03*
X62071Y2771741D02*
G54D50*
D03*
X87471Y2771741D02*
G54D50*
D03*
X112871Y2771741D02*
G54D50*
D03*
X138271Y2771741D02*
G54D50*
D03*
X163671Y2771741D02*
G54D50*
D03*
X189071Y2771741D02*
G54D50*
D03*
X214471Y2771741D02*
G54D50*
D03*
X239871Y2771741D02*
G54D50*
D03*
X-115729Y2924141D02*
G54D50*
D03*
X-90329Y2924141D02*
G54D50*
D03*
X-64929Y2924141D02*
G54D50*
D03*
X-39529Y2924141D02*
G54D50*
D03*
X-14129Y2924141D02*
G54D50*
D03*
X11271Y2924141D02*
G54D50*
D03*
X36671Y2924141D02*
G54D50*
D03*
X62071Y2924141D02*
G54D50*
D03*
X87471Y2924141D02*
G54D50*
D03*
X112871Y2924141D02*
G54D50*
D03*
X138271Y2924141D02*
G54D50*
D03*
X163671Y2924141D02*
G54D50*
D03*
X189071Y2924141D02*
G54D50*
D03*
X214471Y2924141D02*
G54D50*
D03*
X239871Y2924141D02*
G54D50*
D03*
X-140970Y2924300D02*
G54D51*
D03*
X-140970Y2771900D02*
G54D51*
D03*
X-114713Y2873087D02*
G54D50*
D03*
X-140113Y2873087D02*
G54D50*
D03*
X-114713Y2847687D02*
G54D50*
D03*
X-140113Y2847687D02*
G54D50*
D03*
X-114713Y2822287D02*
G54D50*
D03*
X-140113Y2822287D02*
G54D50*
D03*
X-675456Y2760157D02*
G54D12*
D03*
X-536635Y2914174D02*
G54D10*
D03*
X-612885Y2914225D02*
G54D10*
D03*
X-327061Y2818447D02*
G54D10*
D03*
X-327111Y2742197D02*
G54D10*
D03*
X-288961Y2726372D02*
G54D10*
D03*
X-289012Y2650122D02*
G54D10*
D03*
X-657180Y2632377D02*
G54D12*
D03*
X-79330Y2892727D02*
G54D12*
D03*
X-301749Y2965058D02*
G54D10*
D03*
X-225499Y2965008D02*
G54D10*
D03*
X-364360Y2925314D02*
G54D10*
D03*
X-364360Y2973114D02*
G54D10*
D03*
X-211950Y2915732D02*
G54D10*
D03*
X-262931Y2915620D02*
G54D10*
D03*
X28303Y2709988D02*
G54D11*
D03*
X12403Y2692413D02*
G54D11*
D03*
X28338Y2674797D02*
G54D11*
D03*
X-102291Y2666554D02*
G54D10*
D03*
X-26041Y2666504D02*
G54D10*
D03*
X-203891Y2691954D02*
G54D10*
D03*
X-127641Y2691904D02*
G54D10*
D03*
X278709Y2590354D02*
G54D10*
D03*
X760414Y3030849D02*
G54D22*
D03*
X-406752Y1758506D02*
G54D31*
D03*
X-368652Y1799781D02*
G54D31*
D03*
X-495572Y2906838D02*
G54D11*
D03*
X-511472Y2889263D02*
G54D11*
D03*
X-495537Y2871647D02*
G54D11*
D03*
X-1352868Y2784836D02*
G54D12*
D03*
X-1327468Y2784836D02*
G54D12*
D03*
X-1048068Y2962636D02*
G54D12*
D03*
X-1022668Y2962636D02*
G54D12*
D03*
X-1048068Y2899136D02*
G54D12*
D03*
X-770760Y2944364D02*
G54D10*
D03*
X-770760Y2992164D02*
G54D10*
D03*
X-1040774Y181604D02*
G54D11*
D03*
X-1058349Y197504D02*
G54D11*
D03*
X-1075964Y181569D02*
G54D11*
D03*
X-669749Y70512D02*
G54D10*
D03*
X-474547Y1430104D02*
G54D15*
D03*
X-471372Y1588854D02*
G54D15*
D03*
X-474547Y1296754D02*
G54D15*
D03*
X-474547Y1163404D02*
G54D15*
D03*
X-474547Y1030054D02*
G54D15*
D03*
X-474547Y896704D02*
G54D15*
D03*
X-512647Y585554D02*
G54D15*
D03*
X-436447Y626829D02*
G54D15*
D03*
X-1336392Y3029252D02*
G54D12*
D03*
X-1285592Y3029252D02*
G54D12*
D03*
X-1234792Y3029252D02*
G54D12*
D03*
X-1183992Y3029252D02*
G54D12*
D03*
X-1209392Y2984802D02*
G54D12*
D03*
X347432Y2886200D02*
G54D30*
D03*
X347432Y2911600D02*
G54D30*
D03*
X398232Y2886200D02*
G54D30*
D03*
X398232Y2911600D02*
G54D30*
D03*
X347432Y2987800D02*
G54D30*
D03*
X398232Y2987800D02*
G54D30*
D03*
X436332Y2886200D02*
G54D30*
D03*
X436332Y2911600D02*
G54D30*
D03*
X487132Y2886200D02*
G54D30*
D03*
X487132Y2911600D02*
G54D30*
D03*
X436332Y2987800D02*
G54D30*
D03*
X487132Y2987800D02*
G54D30*
D03*
X525232Y2886200D02*
G54D30*
D03*
X525232Y2911600D02*
G54D30*
D03*
X576032Y2886200D02*
G54D30*
D03*
X576032Y2911600D02*
G54D30*
D03*
X525232Y2987800D02*
G54D30*
D03*
X576032Y2987800D02*
G54D30*
D03*
X614132Y2886200D02*
G54D30*
D03*
X614132Y2911600D02*
G54D30*
D03*
X664932Y2886200D02*
G54D30*
D03*
X664932Y2911600D02*
G54D30*
D03*
X614132Y2987800D02*
G54D30*
D03*
X664932Y2987800D02*
G54D30*
D03*
X367599Y2723631D02*
G54D10*
D03*
X367649Y2799880D02*
G54D10*
D03*
X456499Y2723631D02*
G54D10*
D03*
X456549Y2799880D02*
G54D10*
D03*
X551749Y2723631D02*
G54D10*
D03*
X551799Y2799880D02*
G54D10*
D03*
X507299Y2723631D02*
G54D10*
D03*
X507349Y2799880D02*
G54D10*
D03*
X418399Y2723631D02*
G54D10*
D03*
X418449Y2799880D02*
G54D10*
D03*
X596199Y2723631D02*
G54D10*
D03*
X596249Y2799880D02*
G54D10*
D03*
X687639Y2723631D02*
G54D10*
D03*
X687689Y2799880D02*
G54D10*
D03*
X640649Y2723631D02*
G54D10*
D03*
X640699Y2799880D02*
G54D10*
D03*
X349250Y2841750D02*
G54D21*
D03*
X374650Y2841750D02*
G54D21*
D03*
X400050Y2841750D02*
G54D21*
D03*
X438150Y2841750D02*
G54D21*
D03*
X463550Y2841750D02*
G54D21*
D03*
X488950Y2841750D02*
G54D21*
D03*
X527050Y2841750D02*
G54D21*
D03*
X552450Y2841750D02*
G54D21*
D03*
X577850Y2841750D02*
G54D21*
D03*
X615950Y2841750D02*
G54D21*
D03*
X641350Y2841750D02*
G54D21*
D03*
X666750Y2841750D02*
G54D21*
D03*
X349250Y2841750D02*
G54D12*
D03*
X438150Y2841750D02*
G54D12*
D03*
X527050Y2841750D02*
G54D12*
D03*
X615950Y2841750D02*
G54D12*
D03*
X277308Y2964252D02*
G54D52*
D03*
X712618Y2894252D02*
G54D12*
D03*
X588035Y1315208D02*
G54D12*
D03*
X323862Y2139710D02*
G54D12*
D03*
X507218Y2138916D02*
G54D12*
D03*
X105581Y2569922D02*
G54D12*
D03*
X669686Y2153602D02*
G54D22*
D03*
X670322Y2509996D02*
G54D22*
D03*
X110489Y2510790D02*
G54D22*
D03*
X110490Y1674177D02*
G54D22*
D03*
X669687Y1316989D02*
G54D22*
D03*
X-320278Y1597184D02*
G54D22*
D03*
X-1272778Y1597184D02*
G54D22*
D03*
X-1365870Y1647431D02*
G54D22*
D03*
X-1272778Y698659D02*
G54D22*
D03*
X323863Y1303097D02*
G54D12*
D03*
X426256Y1302304D02*
G54D12*
D03*
X-1113677Y692166D02*
G54D12*
D03*
X-1132727Y1606566D02*
G54D12*
D03*
X582841Y2031880D02*
G54D18*
D03*
X-233134Y1746130D02*
G54D18*
D03*
X627291Y1806455D02*
G54D18*
D03*
X-166459Y1984255D02*
G54D18*
D03*
X-39572Y1693629D02*
G54D29*
D03*
X-103072Y1542816D02*
G54D29*
D03*
X-103072Y1566629D02*
G54D29*
D03*
X-1328970Y2170983D02*
G54D12*
D03*
X-1611473Y2881787D02*
G54D10*
D03*
X-1555735Y2881787D02*
G54D10*
D03*
X-83504Y2987356D02*
G54D10*
D03*
X-35704Y2987356D02*
G54D10*
D03*
X11748Y2951237D02*
G54D15*
D03*
X-1576111Y2758493D02*
G54D10*
D03*
X-1576223Y2809473D02*
G54D10*
D03*
X-1614211Y2758493D02*
G54D10*
D03*
X-1614323Y2809473D02*
G54D10*
D03*
X-1566535Y2939785D02*
G54D10*
D03*
X-1617515Y2939673D02*
G54D10*
D03*
X-699973Y2166704D02*
G54D10*
D03*
X-699973Y2188929D02*
G54D10*
D03*
X-685685Y2052404D02*
G54D10*
D03*
X-685685Y2074629D02*
G54D10*
D03*
X-659182Y2051580D02*
G54D53*
D03*
X-471372Y2482616D02*
G54D10*
D03*
X-350722Y2484204D02*
G54D10*
D03*
X-920634Y327586D02*
G54D10*
D03*
X-920635Y352985D02*
G54D10*
D03*
X140984Y2703952D02*
G54D10*
D03*
X166384Y2703952D02*
G54D10*
D03*
X191784Y2703952D02*
G54D10*
D03*
X217184Y2703952D02*
G54D10*
D03*
X242584Y2703952D02*
G54D10*
D03*
X267984Y2703952D02*
G54D10*
D03*
X293384Y2703952D02*
G54D10*
D03*
X166384Y2703952D02*
G54D10*
D03*
X-1231605Y1576606D02*
G54D10*
D03*
X-1136355Y1575812D02*
G54D10*
D03*
X513624Y1343524D02*
G54D21*
D03*
X596479Y1058090D02*
G54D10*
D03*
X596529Y1134340D02*
G54D10*
D03*
X704123Y1108574D02*
G54D54*
D03*
X596529Y1134340D02*
G54D10*
D03*
X596479Y1058090D02*
G54D10*
D03*
X541515Y1105059D02*
G54D10*
D03*
X541515Y1139984D02*
G54D10*
D03*
X541515Y1047909D02*
G54D10*
D03*
X541515Y1003459D02*
G54D10*
D03*
X281165Y965359D02*
G54D10*
D03*
X319265Y965359D02*
G54D10*
D03*
X541882Y1176188D02*
G54D10*
D03*
X618132Y1176138D02*
G54D10*
D03*
X633590Y1136809D02*
G54D10*
D03*
X630812Y1098709D02*
G54D10*
D03*
X465452Y949514D02*
G54D10*
D03*
X513252Y949514D02*
G54D10*
D03*
X465452Y949514D02*
G54D10*
D03*
X295674Y1179050D02*
G54D10*
D03*
X321174Y1179050D02*
G54D10*
D03*
X378224Y1179050D02*
G54D10*
D03*
X403724Y1179050D02*
G54D10*
D03*
X638012Y945099D02*
G54D21*
D03*
X663412Y945100D02*
G54D21*
D03*
X525640Y838359D02*
G54D10*
D03*
X525640Y873284D02*
G54D10*
D03*
X525640Y781209D02*
G54D10*
D03*
X525640Y736759D02*
G54D10*
D03*
X268465Y698659D02*
G54D10*
D03*
X306565Y698659D02*
G54D10*
D03*
X282974Y912350D02*
G54D10*
D03*
X308474Y912350D02*
G54D10*
D03*
X365524Y912350D02*
G54D10*
D03*
X391024Y912350D02*
G54D10*
D03*
X654391Y798133D02*
G54D10*
D03*
X654391Y823633D02*
G54D10*
D03*
X250261Y1069508D02*
G54D21*
D03*
X225277Y1018576D02*
G54D21*
D03*
X200378Y1069622D02*
G54D21*
D03*
X572300Y832283D02*
G54D10*
D03*
X572187Y883264D02*
G54D10*
D03*
X655476Y667286D02*
G54D21*
D03*
X680876Y667287D02*
G54D21*
D03*
X654682Y636726D02*
G54D21*
D03*
X680082Y636726D02*
G54D21*
D03*
X593506Y734774D02*
G54D10*
D03*
X601840Y772476D02*
G54D10*
D03*
X119804Y882166D02*
G54D10*
D03*
X119854Y907741D02*
G54D10*
D03*
X115041Y662297D02*
G54D10*
D03*
X115091Y687872D02*
G54D10*
D03*
X227242Y799632D02*
G54D21*
D03*
X202258Y748700D02*
G54D21*
D03*
X177359Y799747D02*
G54D21*
D03*
X452782Y1209985D02*
G54D10*
D03*
X452832Y1235560D02*
G54D10*
D03*
X71176Y1142423D02*
G54D10*
D03*
X164796Y913795D02*
G54D10*
D03*
X116377Y961420D02*
G54D10*
D03*
X-82050Y1028702D02*
G54D10*
D03*
X-82844Y1003302D02*
G54D10*
D03*
X-82844Y1003302D02*
G54D10*
D03*
X-83638Y977902D02*
G54D10*
D03*
X-83638Y977902D02*
G54D10*
D03*
X-84431Y952502D02*
G54D10*
D03*
X-84432Y952502D02*
G54D10*
D03*
X-85225Y927102D02*
G54D10*
D03*
X-85225Y927102D02*
G54D10*
D03*
X-86019Y901702D02*
G54D10*
D03*
X-101498Y1028702D02*
G54D10*
D03*
X-102290Y977108D02*
G54D10*
D03*
X-102688Y925911D02*
G54D10*
D03*
X228003Y1136400D02*
G54D10*
D03*
X117672Y1074487D02*
G54D10*
D03*
X-586925Y2491139D02*
G54D47*
D03*
X-709163Y2510190D02*
G54D21*
D03*
X-824570Y468116D02*
G54D10*
D03*
X-849970Y468116D02*
G54D10*
D03*
X-682489Y467321D02*
G54D10*
D03*
X-707888Y467321D02*
G54D10*
D03*
X-562632Y493116D02*
G54D10*
D03*
X-588032Y493116D02*
G54D10*
D03*
X-563426Y529628D02*
G54D10*
D03*
X-588826Y529628D02*
G54D10*
D03*
X44586Y503832D02*
G54D10*
D03*
X19187Y503832D02*
G54D10*
D03*
X44586Y539947D02*
G54D10*
D03*
X19187Y539947D02*
G54D10*
D03*
X372832Y2987800D02*
G54D30*
D03*
X461732Y2987800D02*
G54D30*
D03*
X550632Y2987800D02*
G54D30*
D03*
X639532Y2987800D02*
G54D30*
D03*
X-513726Y710850D02*
G54D12*
D03*
X-505881Y786150D02*
G54D12*
D03*
X-505881Y921485D02*
G54D12*
D03*
X-505484Y1057613D02*
G54D12*
D03*
X-505484Y1192154D02*
G54D12*
D03*
X-506674Y1326694D02*
G54D12*
D03*
X-508262Y1460044D02*
G54D12*
D03*
X-716373Y910456D02*
G54D10*
D03*
X-698412Y892495D02*
G54D10*
D03*
X-224517Y999508D02*
G54D10*
D03*
X-224517Y1024907D02*
G54D10*
D03*
X-709734Y1392703D02*
G54D10*
D03*
X-691773Y1410664D02*
G54D10*
D03*
X690643Y2648311D02*
G54D12*
D03*
X104150Y169284D02*
G54D10*
D03*
X-1178674Y1376664D02*
G54D12*
D03*
X-1198745Y1088096D02*
G54D12*
D03*
X-1324158Y1090478D02*
G54D12*
D03*
X-845357Y410260D02*
G54D12*
D03*
X260010Y2986027D02*
G54D10*
D03*
X183761Y2986077D02*
G54D10*
D03*
X12026Y3022192D02*
G54D12*
D03*
X49332Y3021398D02*
G54D12*
D03*
X641417Y621211D02*
G54D55*
D03*
X639036Y655342D02*
G54D55*
D03*
X650886Y705672D02*
G54D55*
D03*
X639829Y690268D02*
G54D55*
D03*
X619136Y966020D02*
G54D55*
D03*
X682636Y959670D02*
G54D55*
D03*
X609667Y978399D02*
G54D55*
D03*
X627524Y999433D02*
G54D55*
D03*
X622311Y800920D02*
G54D55*
D03*
X-1444201Y2723092D02*
G54D12*
D03*
X-1621207Y2723092D02*
G54D12*
D03*
X-1601363Y612511D02*
G54D12*
D03*
X-1337697Y534785D02*
G54D10*
D03*
X-1337697Y560185D02*
G54D10*
D03*
X293824Y86716D02*
G54D10*
D03*
X-53045Y95447D02*
G54D10*
D03*
X717550Y593726D02*
G54D21*
D03*
X255429Y141516D02*
G54D21*
D03*
X153829Y141516D02*
G54D21*
D03*
X737626Y905114D02*
G54D12*
D03*
G36*
X-1570334Y3088446D02*
X-1556879Y3101901D01*
X-1537789Y3101901D01*
X-1524334Y3088446D01*
X-1524334Y3029356D01*
X-1537789Y3015901D01*
X-1556879Y3015901D01*
X-1570334Y3029356D01*
X-1570334Y3088446D01*
G37*
X-224516Y948708D02*
G54D10*
D03*
X-224517Y974108D02*
G54D10*
D03*
X-224517Y999508D02*
G54D10*
D03*
X-256267Y1024907D02*
G54D10*
D03*
X-256267Y999507D02*
G54D10*
D03*
X-126651Y673396D02*
G54D42*
D03*
X-126650Y730546D02*
G54D42*
D03*
X35691Y790920D02*
G54D10*
D03*
X35690Y838720D02*
G54D10*
D03*
X-20004Y1044256D02*
G54D10*
D03*
X27796Y1044256D02*
G54D10*
D03*
X41472Y998287D02*
G54D10*
D03*
X42050Y934532D02*
G54D10*
D03*
X-8931Y934420D02*
G54D10*
D03*
X-454716Y2631756D02*
G54D10*
D03*
X-502516Y2631756D02*
G54D10*
D03*
X-378516Y2631756D02*
G54D10*
D03*
X-426316Y2631756D02*
G54D10*
D03*
X-579572Y2654196D02*
G54D10*
D03*
X-543443Y2618227D02*
G54D10*
D03*
X-605606Y2617284D02*
G54D12*
D03*
X495695Y493712D02*
G54D10*
D03*
X543495Y493713D02*
G54D10*
D03*
G36*
X473874Y2547606D02*
X499874Y2547606D01*
X499874Y2521606D01*
X473874Y2521606D01*
X473874Y2547606D01*
G37*
G36*
X327823Y2547606D02*
X353823Y2547606D01*
X353823Y2521606D01*
X327823Y2521606D01*
X327823Y2547606D01*
G37*
G36*
X200823Y2115806D02*
X226823Y2115806D01*
X226823Y2089806D01*
X200823Y2089806D01*
X200823Y2115806D01*
G37*
G36*
X-669127Y2312656D02*
X-643127Y2312656D01*
X-643127Y2286656D01*
X-669127Y2286656D01*
X-669127Y2312656D01*
G37*
G36*
X-72227Y2255506D02*
X-46227Y2255506D01*
X-46227Y2229506D01*
X-72227Y2229506D01*
X-72227Y2255506D01*
G37*
G36*
X340523Y1709406D02*
X366523Y1709406D01*
X366523Y1683406D01*
X340523Y1683406D01*
X340523Y1709406D01*
G37*
G36*
X76998Y1477631D02*
X102998Y1477631D01*
X102998Y1451631D01*
X76998Y1451631D01*
X76998Y1477631D01*
G37*
G36*
X150023Y1309356D02*
X176023Y1309356D01*
X176023Y1283356D01*
X150023Y1283356D01*
X150023Y1309356D01*
G37*
G36*
X-1285077Y1658606D02*
X-1259077Y1658606D01*
X-1259077Y1632606D01*
X-1285077Y1632606D01*
X-1285077Y1658606D01*
G37*
X-291548Y1282952D02*
G54D21*
D03*
X-958838Y2663585D02*
G54D12*
D03*
X-1389722Y1669873D02*
G54D12*
D03*
X-958838Y2663585D02*
G54D49*
D03*
X-1126068Y2963358D02*
G54D12*
D03*
X-1256243Y3004634D02*
G54D21*
D03*
X-1568187Y206665D02*
G54D12*
D03*
X-1572156Y1351252D02*
G54D12*
D03*
X-1445950Y1351252D02*
G54D12*
D03*
X-1580490Y588458D02*
G54D12*
D03*
X734221Y83502D02*
G54D22*
D03*
X-1447921Y516403D02*
G54D10*
D03*
X-1429961Y534363D02*
G54D10*
D03*
X19186Y2294928D02*
G54D10*
D03*
X-6213Y2294928D02*
G54D10*
D03*
X67605Y2232222D02*
G54D10*
D03*
X42205Y2232222D02*
G54D10*
D03*
X-580628Y422436D02*
G54D56*
D03*
X-579834Y134303D02*
G54D56*
D03*
X698104Y424816D02*
G54D56*
D03*
X698104Y134303D02*
G54D56*
D03*
X417679Y2988594D02*
G54D53*
D03*
X326795Y2991372D02*
G54D29*
D03*
X595876Y2987800D02*
G54D29*
D03*
X293384Y2703952D02*
G54D10*
D03*
X-973370Y758108D02*
G54D40*
D03*
X-843195Y758108D02*
G54D40*
D03*
X-938445Y758108D02*
G54D40*
D03*
X-919395Y758108D02*
G54D40*
D03*
X-900345Y758108D02*
G54D40*
D03*
X-881295Y758108D02*
G54D40*
D03*
X-862245Y758108D02*
G54D40*
D03*
X-957495Y758108D02*
G54D40*
D03*
X-843195Y758108D02*
G54D40*
D03*
X-1008295Y758108D02*
G54D40*
D03*
X-989245Y758108D02*
G54D40*
D03*
X-1299103Y768188D02*
G54D23*
D03*
X-1415388Y768188D02*
G54D23*
D03*
X312852Y2908067D02*
G54D10*
D03*
X312852Y2933466D02*
G54D10*
D03*
X729176Y791930D02*
G54D10*
D03*
X729176Y817329D02*
G54D10*
D03*
X728342Y768302D02*
G54D15*
D03*
X99616Y776446D02*
G54D45*
D03*
X-225707Y1049911D02*
G54D10*
D03*
X-290824Y1256884D02*
G54D12*
D03*
X-290823Y1231384D02*
G54D10*
D03*
X-290824Y1256884D02*
G54D10*
D03*
X-291221Y1283078D02*
G54D10*
D03*
X653388Y532804D02*
G54D10*
D03*
X627988Y532804D02*
G54D10*
D03*
X689880Y489511D02*
G54D10*
D03*
X689880Y514911D02*
G54D10*
D03*
X652574Y507780D02*
G54D10*
D03*
X689880Y514514D02*
G54D10*
D03*
X689880Y539914D02*
G54D10*
D03*
X729568Y539522D02*
G54D10*
D03*
X729568Y564922D02*
G54D10*
D03*
X729567Y470465D02*
G54D10*
D03*
X729568Y495865D02*
G54D10*
D03*
G36*
X-46033Y2511887D02*
X-20033Y2511887D01*
X-20033Y2485887D01*
X-46033Y2485887D01*
X-46033Y2511887D01*
G37*
X738107Y879590D02*
G54D10*
D03*
X-1590560Y1403910D02*
G54D10*
D03*
X-1590560Y1429310D02*
G54D10*
D03*
X-1621516Y1430501D02*
G54D10*
D03*
X-1356596Y438314D02*
G54D10*
D03*
X-1356596Y412915D02*
G54D10*
D03*
X-1554076Y2616780D02*
G54D10*
D03*
X-1614973Y2616780D02*
G54D10*
D03*
X-1570158Y2500524D02*
G54D10*
D03*
X-1570270Y2551504D02*
G54D10*
D03*
X-1568570Y2402100D02*
G54D10*
D03*
X-1568682Y2453080D02*
G54D10*
D03*
X-914989Y1540620D02*
G54D22*
D03*
X-359364Y1442195D02*
G54D22*
D03*
X-1568187Y139990D02*
G54D12*
D03*
X-453847Y1650762D02*
G54D15*
D03*
X-472897Y1649968D02*
G54D15*
D03*
X302325Y2317082D02*
G54D15*
D03*
X373762Y2294063D02*
G54D15*
D03*
X404718Y2309144D02*
G54D15*
D03*
X461868Y2272632D02*
G54D15*
D03*
X482506Y2317082D02*
G54D15*
D03*
X548784Y2307160D02*
G54D15*
D03*
X662553Y2327353D02*
G54D15*
D03*
X295975Y1506663D02*
G54D15*
D03*
X231681Y1519363D02*
G54D15*
D03*
X379318Y1515394D02*
G54D15*
D03*
X326137Y1564606D02*
G54D15*
D03*
X472981Y1497932D02*
G54D15*
D03*
X404718Y1538413D02*
G54D15*
D03*
X118416Y1501220D02*
G54D15*
D03*
X676423Y1496458D02*
G54D15*
D03*
X537932Y3004469D02*
G54D29*
D03*
X628420Y3003675D02*
G54D29*
D03*
X663270Y1177320D02*
G54D10*
D03*
X100190Y1194752D02*
G54D15*
D03*
X100190Y1134427D02*
G54D15*
D03*
X119240Y1182846D02*
G54D15*
D03*
X100190Y1113790D02*
G54D15*
D03*
X92253Y2466737D02*
G54D57*
D03*
X95428Y2108756D02*
G54D57*
D03*
X682406Y2215912D02*
G54D57*
D03*
X620888Y2531030D02*
G54D57*
D03*
X-630060Y2603262D02*
G54D57*
D03*
X-33160Y2099628D02*
G54D57*
D03*
X-40304Y2569528D02*
G54D57*
D03*
X98603Y1282065D02*
G54D57*
D03*
X139084Y1697196D02*
G54D57*
D03*
X679450Y1713310D02*
G54D57*
D03*
X632796Y1305084D02*
G54D57*
D03*
X-1305541Y1579721D02*
G54D57*
D03*
X-1298397Y664130D02*
G54D57*
D03*
X-1406347Y2570321D02*
G54D57*
D03*
X-926128Y2609215D02*
G54D57*
D03*
X-999195Y1513879D02*
G54D10*
D03*
X-1024595Y1513879D02*
G54D10*
D03*
X728342Y742902D02*
G54D15*
D03*
X672375Y1070474D02*
G54D21*
D03*
X672375Y1070474D02*
G54D21*
D03*
X672376Y1045074D02*
G54D21*
D03*
X672376Y1045074D02*
G54D21*
D03*
X672377Y1019674D02*
G54D21*
D03*
X666023Y1286374D02*
G54D21*
D03*
X666024Y1260974D02*
G54D21*
D03*
X704123Y1235574D02*
G54D54*
D03*
X628661Y827908D02*
G54D55*
D03*
X657236Y1085082D02*
G54D55*
D03*
X644536Y1158108D02*
G54D55*
D03*
X696117Y2580878D02*
G54D12*
D03*
X203200Y82550D02*
G54D21*
D03*
X343295Y154781D02*
G54D10*
D03*
X677630Y914318D02*
G54D54*
D03*
G36*
X-256410Y747811D02*
X-200410Y747811D01*
X-200410Y716811D01*
X-256410Y716811D01*
X-256410Y747811D01*
G37*
G36*
X-259585Y690661D02*
X-203585Y690661D01*
X-203585Y659661D01*
X-259585Y659661D01*
X-259585Y690661D01*
G37*
G36*
X-53210Y690661D02*
X2790Y690661D01*
X2790Y659661D01*
X-53210Y659661D01*
X-53210Y690661D01*
G37*
X-24538Y864099D02*
G54D10*
D03*
X357596Y600610D02*
G54D12*
D03*
X357595Y568860D02*
G54D12*
D03*
X357596Y537110D02*
G54D12*
D03*
X265746Y507680D02*
G54D10*
D03*
X313546Y507680D02*
G54D10*
D03*
X262571Y612454D02*
G54D10*
D03*
X310371Y612455D02*
G54D10*
D03*
X359180Y496116D02*
G54D10*
D03*
X410160Y496228D02*
G54D10*
D03*
X356004Y651690D02*
G54D10*
D03*
X406985Y651803D02*
G54D10*
D03*
X-1244600Y87868D02*
G54D22*
D03*
X-781447Y89060D02*
G54D22*
D03*
X-1405768Y95825D02*
G54D10*
D03*
X-1334272Y95767D02*
G54D10*
D03*
X-1234060Y241148D02*
G54D10*
D03*
X-1234060Y288948D02*
G54D10*
D03*
X-1298460Y465699D02*
G54D10*
D03*
X-1298460Y491098D02*
G54D10*
D03*
X-1085490Y249019D02*
G54D10*
D03*
X-1085490Y249019D02*
G54D10*
D03*
X-1013994Y248960D02*
G54D10*
D03*
X-995002Y199806D02*
G54D10*
D03*
X-995002Y199806D02*
G54D10*
D03*
X-923506Y199748D02*
G54D10*
D03*
X-987998Y316554D02*
G54D10*
D03*
X-987998Y364354D02*
G54D10*
D03*
X-960451Y420579D02*
G54D12*
D03*
X-1334283Y209576D02*
G54D10*
D03*
X-1523198Y253431D02*
G54D10*
D03*
X-1523140Y324927D02*
G54D10*
D03*
X-1530254Y211433D02*
G54D10*
D03*
X-1530312Y139937D02*
G54D10*
D03*
X-1488979Y209052D02*
G54D10*
D03*
X-1489037Y137556D02*
G54D10*
D03*
X-1600858Y851890D02*
G54D10*
D03*
X-1618342Y826855D02*
G54D10*
D03*
X-1618342Y852254D02*
G54D10*
D03*
X-1618342Y801456D02*
G54D10*
D03*
X-1618342Y826855D02*
G54D10*
D03*
X675322Y727303D02*
G54D21*
D03*
X738029Y146278D02*
G54D21*
D03*
X743188Y708253D02*
G54D21*
D03*
X738106Y862127D02*
G54D10*
D03*
X-231803Y858388D02*
G54D10*
D03*
X-1247018Y168057D02*
G54D10*
D03*
X-1175522Y167998D02*
G54D10*
D03*
X-1305685Y165191D02*
G54D10*
D03*
X-1377181Y165249D02*
G54D10*
D03*
X-1486059Y1149975D02*
G54D58*
D03*
X-1484868Y1212285D02*
G54D22*
D03*
X-1487669Y880113D02*
G54D58*
D03*
X-1486455Y807472D02*
G54D22*
D03*
X-1580911Y1517481D02*
G54D58*
D03*
X-1579721Y1589316D02*
G54D58*
D03*
X-1455108Y3072052D02*
G54D22*
D03*
X-1387639Y3067686D02*
G54D22*
D03*
G36*
X-1514137Y3089601D02*
X-1478137Y3089601D01*
X-1478137Y3053601D01*
X-1514137Y3053601D01*
X-1514137Y3089601D01*
G37*
X-1547334Y3034294D02*
G54D59*
D03*
X-919071Y262582D02*
G54D22*
D03*
X-125857Y602753D02*
G54D42*
D03*
X-723900Y371475D02*
G54D12*
D03*
X-1412593Y2874867D02*
G54D46*
D03*
X-1463393Y2862167D02*
G54D46*
D03*
X-620597Y2360379D02*
G54D10*
D03*
X-620597Y2300054D02*
G54D10*
D03*
X-6172Y1581308D02*
G54D53*
D03*
X54090Y1542816D02*
G54D10*
D03*
X54090Y1482491D02*
G54D10*
D03*
X-661872Y2430229D02*
G54D60*
D03*
X59775Y1410871D02*
G54D22*
D03*
X61491Y1440121D02*
G54D60*
D03*
X-661872Y2347679D02*
G54D60*
D03*
X62028Y1357079D02*
G54D60*
D03*
X-126651Y647996D02*
G54D42*
D03*
X-1124416Y2096824D02*
G54D31*
D03*
X-1060916Y2098411D02*
G54D31*
D03*
X-1124416Y2311136D02*
G54D31*
D03*
X-1060916Y2311136D02*
G54D31*
D03*
X-1124416Y2531799D02*
G54D31*
D03*
X-1060916Y2531799D02*
G54D31*
D03*
X-1124416Y1880924D02*
G54D31*
D03*
X-1060916Y1880924D02*
G54D31*
D03*
X-288484Y946554D02*
G54D10*
D03*
X-288659Y997546D02*
G54D10*
D03*
X-1289829Y2828606D02*
G54D10*
D03*
X-1219979Y2815906D02*
G54D10*
D03*
X-1197754Y2676206D02*
G54D10*
D03*
X-1258079Y2644456D02*
G54D10*
D03*
X-1004079Y2831781D02*
G54D10*
D03*
X-946929Y2865118D02*
G54D10*
D03*
X-1026304Y2679381D02*
G54D10*
D03*
X-1077104Y2638106D02*
G54D10*
D03*
X-1220801Y360254D02*
G54D12*
D03*
X-1233501Y274529D02*
G54D12*
D03*
X-1277157Y362635D02*
G54D12*
D03*
X-1275570Y311835D02*
G54D12*
D03*
X-1299368Y120253D02*
G54D12*
D03*
X-1570764Y113211D02*
G54D21*
D03*
X696993Y2616561D02*
G54D12*
D03*
X-114864Y1364560D02*
G54D12*
D03*
X-794Y976313D02*
G54D10*
D03*
X-26194Y976313D02*
G54D10*
D03*
X-196850Y1758950D02*
G54D47*
D03*
X787480Y2648311D02*
G54D12*
D03*
X777956Y121011D02*
G54D12*
D03*
X-1614407Y54336D02*
G54D12*
D03*
X-230107Y44811D02*
G54D12*
D03*
X-312622Y2061929D02*
G54D10*
D03*
X-426922Y2522304D02*
G54D10*
D03*
X-287222Y2061929D02*
G54D10*
D03*
X-661207Y264210D02*
G54D12*
D03*
X211541Y1737080D02*
G54D21*
D03*
X755767Y2572858D02*
G54D57*
D03*
X755767Y2560158D02*
G54D57*
D03*
X755767Y972658D02*
G54D57*
D03*
X755767Y959958D02*
G54D57*
D03*
X-659182Y2102380D02*
G54D53*
D03*
X-657458Y2184318D02*
G54D53*
D03*
X217977Y1667064D02*
G54D10*
D03*
X223416Y1436496D02*
G54D10*
D03*
X223416Y1414271D02*
G54D10*
D03*
X-699922Y1754630D02*
G54D10*
D03*
X-699922Y1729230D02*
G54D10*
D03*
X-354922Y1729629D02*
G54D61*
D03*
X-795376Y1783646D02*
G54D61*
D03*
X-971614Y461662D02*
G54D10*
D03*
X-949389Y461662D02*
G54D10*
D03*
X-1192147Y435972D02*
G54D12*
D03*
X-1063228Y655796D02*
G54D22*
D03*
X-4001Y1807168D02*
G54D21*
D03*
X421449Y1807168D02*
G54D21*
D03*
X-121334Y1994355D02*
G54D19*
D03*
X421591Y1988005D02*
G54D19*
D03*
X-1458118Y250428D02*
G54D12*
D03*
X-1458118Y326628D02*
G54D12*
D03*
X-303285Y1640203D02*
G54D48*
D03*
X-349928Y2198455D02*
G54D10*
D03*
X-349928Y2223854D02*
G54D10*
D03*
X-582434Y2313146D02*
G54D62*
D03*
X-474484Y2313146D02*
G54D62*
D03*
X-582434Y2402046D02*
G54D62*
D03*
X-499884Y2402046D02*
G54D62*
D03*
X-52209Y1467008D02*
G54D62*
D03*
X23991Y1465421D02*
G54D62*
D03*
X23991Y1543208D02*
G54D62*
D03*
X-52209Y1543208D02*
G54D62*
D03*
X-1076950Y1451985D02*
G54D10*
D03*
X-788872Y2590566D02*
G54D10*
D03*
X-477722Y1404704D02*
G54D15*
D03*
X-461212Y1276434D02*
G54D15*
D03*
X-471372Y1138004D02*
G54D15*
D03*
X-471372Y1055454D02*
G54D15*
D03*
X-471372Y871304D02*
G54D15*
D03*
X-1176222Y1011004D02*
G54D15*
D03*
X-1176222Y985604D02*
G54D15*
D03*
G36*
X-247676Y589062D02*
X-191676Y589062D01*
X-191676Y558062D01*
X-247676Y558062D01*
X-247676Y589062D01*
G37*
G36*
X-69876Y589062D02*
X-13876Y589062D01*
X-13876Y558062D01*
X-69876Y558062D01*
X-69876Y589062D01*
G37*
G36*
X-225610Y792061D02*
X-225610Y736061D01*
X-256610Y736061D01*
X-256610Y792061D01*
X-225610Y792061D01*
G37*
G36*
X-9710Y792061D02*
X-9710Y736061D01*
X-40710Y736061D01*
X-40710Y792061D01*
X-9710Y792061D01*
G37*
X-1246072Y2134954D02*
G54D15*
D03*
X-953972Y2300054D02*
G54D15*
D03*
X-1233372Y1931754D02*
G54D15*
D03*
X-941272Y2109554D02*
G54D15*
D03*
X-1233372Y1715854D02*
G54D15*
D03*
X-953972Y1868254D02*
G54D15*
D03*
X-1246072Y2363554D02*
G54D15*
D03*
X-953972Y2528654D02*
G54D15*
D03*
X-1132519Y83100D02*
G54D10*
D03*
X-1107044Y83100D02*
G54D10*
D03*
X-994535Y82641D02*
G54D10*
D03*
X-1066031Y82699D02*
G54D10*
D03*
X-993599Y57812D02*
G54D10*
D03*
X-1169872Y2719154D02*
G54D15*
D03*
X-934922Y2763604D02*
G54D15*
D03*
X-649172Y2795354D02*
G54D15*
D03*
X-674572Y2655654D02*
G54D15*
D03*
X-350722Y2636604D02*
G54D15*
D03*
X-509472Y2858854D02*
G54D15*
D03*
X-814272Y2655654D02*
G54D15*
D03*
X-293572Y2795354D02*
G54D15*
D03*
X-249122Y2769954D02*
G54D15*
D03*
X-26872Y2693754D02*
G54D15*
D03*
X-1472Y2668354D02*
G54D15*
D03*
X63500Y2730500D02*
G54D15*
D03*
X159968Y2534180D02*
G54D12*
D03*
X567761Y1288582D02*
G54D21*
D03*
X542777Y1237650D02*
G54D21*
D03*
X517878Y1288697D02*
G54D21*
D03*
X500924Y1289549D02*
G54D21*
D03*
X-1187450Y1187350D02*
G54D10*
D03*
X-1187450Y1212850D02*
G54D10*
D03*
X-1187450Y1212850D02*
G54D10*
D03*
X-747597Y915754D02*
G54D15*
D03*
G36*
X-1589877Y2141206D02*
X-1563877Y2141206D01*
X-1563877Y2115206D01*
X-1589877Y2115206D01*
X-1589877Y2141206D01*
G37*
G36*
X-1589877Y1874506D02*
X-1563877Y1874506D01*
X-1563877Y1848506D01*
X-1589877Y1848506D01*
X-1589877Y1874506D01*
G37*
X-156401Y1823043D02*
G54D21*
D03*
X583374Y1823043D02*
G54D21*
D03*
G36*
X-1608927Y1122031D02*
X-1582927Y1122031D01*
X-1582927Y1096031D01*
X-1608927Y1096031D01*
X-1608927Y1122031D01*
G37*
X-1182572Y409342D02*
G54D15*
D03*
X-1039697Y401404D02*
G54D15*
D03*
X-823797Y236304D02*
G54D15*
D03*
X-617422Y261704D02*
G54D15*
D03*
X-1014297Y399817D02*
G54D15*
D03*
X-1166697Y393467D02*
G54D15*
D03*
X-1331797Y1336442D02*
G54D15*
D03*
X-1246072Y1338029D02*
G54D15*
D03*
X-1411172Y1418992D02*
G54D15*
D03*
X-1207972Y1390416D02*
G54D15*
D03*
X-823797Y269642D02*
G54D15*
D03*
X-617422Y291867D02*
G54D15*
D03*
X-1293697Y1336442D02*
G54D15*
D03*
X-1151331Y245746D02*
G54D12*
D03*
X-1170381Y245746D02*
G54D12*
D03*
X-137089Y1396310D02*
G54D12*
D03*
X-1035001Y288522D02*
G54D10*
D03*
X-1060501Y288522D02*
G54D10*
D03*
X-1358131Y349399D02*
G54D10*
D03*
X-4584Y2265521D02*
G54D15*
D03*
X-33222Y2265129D02*
G54D15*
D03*
X768588Y924153D02*
G54D21*
D03*
X574254Y1035864D02*
G54D10*
D03*
X525041Y719952D02*
G54D10*
D03*
X307578Y1075690D02*
G54D22*
D03*
X310754Y801052D02*
G54D22*
D03*
X472678Y801052D02*
G54D22*
D03*
X479028Y1075690D02*
G54D22*
D03*
X-260746Y394652D02*
G54D22*
D03*
X-257572Y148590D02*
G54D22*
D03*
X451724Y395394D02*
G54D22*
D03*
X453764Y174986D02*
G54D22*
D03*
X-207385Y1548001D02*
G54D10*
D03*
X-255185Y1548002D02*
G54D10*
D03*
X-207385Y1548000D02*
G54D10*
D03*
X-178980Y1611882D02*
G54D10*
D03*
X-229960Y1611770D02*
G54D10*
D03*
X-178981Y1611882D02*
G54D10*
D03*
X-162754Y1651134D02*
G54D10*
D03*
X-239004Y1651184D02*
G54D10*
D03*
X-157124Y1687816D02*
G54D10*
D03*
X-106144Y1687927D02*
G54D10*
D03*
X-157124Y1687816D02*
G54D10*
D03*
X-172269Y1578183D02*
G54D10*
D03*
X-172319Y1501932D02*
G54D10*
D03*
X-123509Y1645716D02*
G54D10*
D03*
X-123509Y1620216D02*
G54D10*
D03*
X-267888Y1488612D02*
G54D10*
D03*
X-242388Y1488612D02*
G54D10*
D03*
X-123509Y1620216D02*
G54D10*
D03*
X-123509Y1594717D02*
G54D10*
D03*
X-289560Y1347152D02*
G54D22*
D03*
X-245429Y1168081D02*
G54D10*
D03*
X-197629Y1168081D02*
G54D10*
D03*
X-130863Y1207366D02*
G54D10*
D03*
X-153088Y1207366D02*
G54D10*
D03*
X-28705Y1151627D02*
G54D12*
D03*
X-111035Y1165846D02*
G54D10*
D03*
X-110922Y1114866D02*
G54D10*
D03*
X-111035Y1165845D02*
G54D10*
D03*
X-149135Y1165846D02*
G54D10*
D03*
X-149024Y1114866D02*
G54D10*
D03*
X-149135Y1165845D02*
G54D10*
D03*
X-149024Y1087878D02*
G54D10*
D03*
X-110923Y1087878D02*
G54D10*
D03*
X-74743Y1151627D02*
G54D12*
D03*
X-74743Y1130990D02*
G54D12*
D03*
X-77918Y1078602D02*
G54D12*
D03*
X-30293Y1100827D02*
G54D12*
D03*
X-28705Y1165914D02*
G54D12*
D03*
X3545Y1186994D02*
G54D10*
D03*
X3544Y1209219D02*
G54D10*
D03*
X3545Y1209220D02*
G54D10*
D03*
X3544Y1231444D02*
G54D10*
D03*
X-108638Y1207366D02*
G54D10*
D03*
X-130863Y1207366D02*
G54D10*
D03*
X56322Y1308235D02*
G54D10*
D03*
X-19928Y1308285D02*
G54D10*
D03*
X54734Y1271723D02*
G54D10*
D03*
X-21515Y1271773D02*
G54D10*
D03*
X-63059Y1254530D02*
G54D10*
D03*
X-63234Y1305521D02*
G54D10*
D03*
X-261822Y1699979D02*
G54D10*
D03*
X-261822Y1674479D02*
G54D10*
D03*
X-477792Y2759376D02*
G54D12*
D03*
X-203888Y2667866D02*
G54D10*
D03*
X-226112Y2667866D02*
G54D10*
D03*
X-181663Y2667866D02*
G54D10*
D03*
X-203888Y2667866D02*
G54D10*
D03*
X22361Y2431454D02*
G54D10*
D03*
X-3038Y2431454D02*
G54D10*
D03*
X47761Y2431454D02*
G54D10*
D03*
X22361Y2431454D02*
G54D10*
D03*
X73160Y2431454D02*
G54D10*
D03*
X47761Y2431454D02*
G54D10*
D03*
X-3039Y2431454D02*
G54D10*
D03*
X-28438Y2431454D02*
G54D10*
D03*
X780370Y2744554D02*
G54D10*
D03*
X780370Y2769954D02*
G54D10*
D03*
X780370Y2719154D02*
G54D10*
D03*
X780370Y2744554D02*
G54D10*
D03*
X780370Y2719154D02*
G54D10*
D03*
X780370Y2744554D02*
G54D10*
D03*
X780370Y2769954D02*
G54D10*
D03*
X780370Y2795354D02*
G54D10*
D03*
X50800Y2705100D02*
G54D15*
D03*
X139383Y2989358D02*
G54D10*
D03*
X91583Y2989357D02*
G54D10*
D03*
X780370Y2795354D02*
G54D10*
D03*
X780370Y2820754D02*
G54D10*
D03*
X733822Y2704862D02*
G54D15*
D03*
X785927Y2666767D02*
G54D10*
D03*
X-959167Y144558D02*
G54D10*
D03*
X-1006967Y144557D02*
G54D10*
D03*
X-952Y3021087D02*
G54D15*
D03*
X62548Y3021087D02*
G54D15*
D03*
X-1580911Y2260431D02*
G54D58*
D03*
X-1579721Y2332266D02*
G54D58*
D03*
X-189692Y1209356D02*
G54D10*
D03*
X614540Y1261427D02*
G54D15*
D03*
X-729855Y72231D02*
G54D10*
D03*
X-186926Y994900D02*
G54D10*
D03*
X-161426Y994900D02*
G54D10*
D03*
X164796Y913795D02*
G54D10*
D03*
X164796Y888296D02*
G54D10*
D03*
X25797Y1209834D02*
G54D15*
D03*
X-59926Y1217150D02*
G54D10*
D03*
X-34426Y1217150D02*
G54D10*
D03*
X26174Y1112332D02*
G54D10*
D03*
X32524Y1099632D02*
G54D10*
D03*
X-796880Y676577D02*
G54D23*
D03*
X-771480Y673402D02*
G54D23*
D03*
X-796880Y1613202D02*
G54D23*
D03*
G36*
X-345277Y3042906D02*
X-319277Y3042906D01*
X-319277Y3016906D01*
X-345277Y3016906D01*
X-345277Y3042906D01*
G37*
G36*
X-1018377Y3042906D02*
X-992377Y3042906D01*
X-992377Y3016906D01*
X-1018377Y3016906D01*
X-1018377Y3042906D01*
G37*
X153566Y1375034D02*
G54D37*
D03*
X604416Y1394084D02*
G54D37*
D03*
X598066Y1298834D02*
G54D37*
D03*
X579016Y1743334D02*
G54D37*
D03*
X642516Y2422784D02*
G54D37*
D03*
X598066Y2556134D02*
G54D37*
D03*
X7516Y2556134D02*
G54D37*
D03*
X204366Y2498984D02*
G54D37*
D03*
X-586209Y2505334D02*
G54D37*
D03*
X347891Y1882655D02*
G54D18*
D03*
X62141Y1984255D02*
G54D18*
D03*
X-1008295Y542208D02*
G54D40*
D03*
X-843195Y542208D02*
G54D40*
D03*
X-1286181Y209672D02*
G54D10*
D03*
X-1333981Y209671D02*
G54D10*
D03*
X-1173947Y2613519D02*
G54D39*
D03*
X172616Y2422784D02*
G54D37*
D03*
M02*
