; Drill file
; Format: 2.4 (00.0000)
M48
INCH
T01C0.0283
T02C0.0315
T03C0.0354
T04C0.0394
T05C0.1299
%
G05
G90
T01
X-051990Y-036240
X-051990Y-028240
X-051990Y-020240
X-051990Y-012240
X-051990Y-004240
X-051990Y003760
X-004740Y003760
X-004740Y-004240
X-004740Y-012240
X-004740Y-020240
X-004740Y-028240
X-004740Y-036240
T02
X-040500Y-041500
X-037000Y-040750
X-037000Y-032750
X-040500Y-033500
X-040500Y-025500
X-037000Y-024750
X-037000Y-016750
X-040500Y-017500
X-040500Y-009500
X-037000Y-008750
X-037000Y-000750
X-040500Y-001500
X-025000Y-001000
X-025000Y-009000
X-025000Y-017000
X-025000Y-025000
X-025000Y-033000
X-025000Y-041000
X-015750Y-037500
X-015750Y-029500
X-015750Y-021500
X-015750Y-013500
X-015750Y-005500
X-015750Y002500
T03
X-057380Y-035940
X-053650Y-037360
X-053650Y-029360
X-053650Y-021360
X-053650Y-013360
X-053650Y-005360
X-053650Y002640
X-057380Y004060
X-047500Y010000
X-046380Y016060
X-040380Y016060
X-041000Y010000
X-033000Y010000
X-025000Y010000
X-018500Y010000
X-020380Y016060
X-014380Y016060
X-012000Y016000
X-010500Y010000
X-002000Y012000
X000620Y011060
X-002000Y008000
X000000Y004000
X000000Y003000
X003000Y003000
X003000Y004000
X003000Y-002000
X003000Y-003000
X000000Y-003000
X000000Y-002000
X-002900Y-005860
X000000Y-007500
X000000Y-008500
X003000Y-008500
X003000Y-007500
X-002900Y-013860
X000000Y-021000
X000000Y-022000
X-002900Y-021860
X003000Y-022000
X003000Y-021000
X003000Y-028000
X003000Y-029000
X000000Y-029000
X000000Y-028000
X-002900Y-029860
X000000Y-035000
X000000Y-036000
X003000Y-036000
X003000Y-035000
X-002900Y-037860
X-014380Y-044440
X-020380Y-044440
X-040380Y-044440
X-046380Y-044440
X-002900Y002140
X-004000Y016000
T04
X-053650Y-039370
X-051990Y-040240
X-049000Y-040630
X-049440Y-038370
X-049000Y-036000
X-049000Y-032630
X-049440Y-030380
X-049000Y-028000
X-049000Y-024630
X-049440Y-022370
X-049000Y-020000
X-049000Y-016630
X-049440Y-014380
X-049000Y-012000
X-049000Y-008630
X-049440Y-006370
X-049000Y-004000
X-049000Y-000630
X-049440Y001630
X-049000Y004000
X-044250Y004000
X-040500Y002500
X-044250Y-000750
X-044250Y-004000
X-040500Y-005500
X-044250Y-008750
X-044250Y-012000
X-040500Y-013500
X-044250Y-016750
X-044250Y-020000
X-040500Y-021500
X-044250Y-024750
X-044250Y-028000
X-040500Y-029500
X-044250Y-032750
X-044250Y-036000
X-040500Y-037500
X-044250Y-040750
X-035000Y-038250
X-033000Y-040750
X-029750Y-038250
X-026250Y-038250
X-021000Y-038250
X-021000Y-041000
X-015750Y-041500
X-012260Y-040650
X-007510Y-040650
X-007070Y-038270
X-007510Y-036020
X-007510Y-032650
X-007070Y-030270
X-007510Y-028020
X-007510Y-024650
X-007070Y-022270
X-007510Y-020020
X-007510Y-016650
X-007070Y-014270
X-007510Y-012020
X-007510Y-008650
X-007070Y-006270
X-007510Y-004020
X-007510Y-000650
X-007070Y001730
X-007510Y003980
X-012260Y004100
X-012260Y-000650
X-012260Y-003900
X-015750Y-001500
X-021000Y-001000
X-021000Y-002750
X-021000Y-006250
X-021000Y-009000
X-021000Y-010750
X-021000Y-014250
X-021000Y-017000
X-021000Y-018750
X-021000Y-022250
X-021000Y-025000
X-021000Y-026750
X-021000Y-030250
X-021000Y-033000
X-021000Y-034750
X-015750Y-033500
X-012260Y-032650
X-012260Y-035900
X-012260Y-027900
X-012260Y-024650
X-015750Y-025500
X-012260Y-019900
X-012260Y-016650
X-015750Y-017500
X-012260Y-011900
X-012260Y-008650
X-015750Y-009500
X-026250Y-006250
X-029750Y-006250
X-033000Y-008750
X-035000Y-010750
X-035000Y-014250
X-033000Y-016750
X-035000Y-018750
X-035000Y-022250
X-033000Y-024750
X-035000Y-026750
X-035000Y-030250
X-033000Y-032750
X-035000Y-034750
X-029750Y-030250
X-026250Y-030250
X-026250Y-022250
X-029750Y-022250
X-029750Y-014250
X-026250Y-014250
X-035000Y-006250
X-035000Y-002750
X-033000Y-000750
X-035000Y001750
X-035000Y005250
X-029750Y001750
X-026250Y001750
X-021000Y001750
X-021000Y005250
X-004740Y-000240
X-002900Y000130
X000000Y000000
X003000Y000000
X003000Y-006000
X000000Y-006000
X-002900Y-007870
X-004740Y-008240
X000000Y-011500
X003000Y-011500
X-002900Y-015870
X-004740Y-016240
X-002900Y-023870
X-004740Y-024240
X000000Y-024000
X003000Y-024000
X003000Y-031000
X000000Y-031000
X-002900Y-031870
X-004740Y-032240
X000000Y-038000
X003000Y-038000
X-002900Y-039870
X-004740Y-040240
X-051990Y-032240
X-053650Y-031370
X-051990Y-024240
X-053650Y-023370
X-051990Y-016240
X-053650Y-015370
X-056250Y-016310
X-057250Y-015310
X-058250Y-014310
X-056250Y-014310
X-058250Y-016310
X-053650Y-007370
X-051990Y-008240
X-051990Y-000240
X-053650Y000630
T05
X-057750Y-045130
X001250Y-045130
X001250Y015370
X-057750Y015370
M30
