; Drill file
; Format: 2.4 (00.0000)
M48
INCH
T01C0.0283
T02C0.0315
T03C0.0354
T04C0.0394
T05C0.0591
T06C0.1299
%
G05
G90
T01
X-059860Y-036300
X-059860Y-028300
X-059860Y-020300
X-059860Y-012300
X-059860Y-004300
X-059860Y003700
X-012610Y003700
X-012610Y-004300
X-012610Y-012300
X-012610Y-020300
X-012610Y-028300
X-012610Y-036300
T02
X-048370Y-041560
X-044870Y-040810
X-044870Y-032810
X-048370Y-033560
X-048370Y-025560
X-044870Y-024810
X-044870Y-016810
X-048370Y-017560
X-048370Y-009560
X-044870Y-008810
X-044870Y-000810
X-048370Y-001560
X-032870Y-001060
X-032870Y-009060
X-032870Y-017060
X-032870Y-025060
X-032870Y-033060
X-032870Y-041060
X-023620Y-037560
X-023620Y-029560
X-023620Y-021560
X-023620Y-013560
X-023620Y-005560
X-023620Y002440
T03
X-065250Y-036000
X-061520Y-037430
X-061520Y-029430
X-061520Y-021430
X-061520Y-013430
X-061520Y-005430
X-061520Y002570
X-065250Y004000
X-055370Y009940
X-054250Y016000
X-048250Y016000
X-048870Y009940
X-040870Y009940
X-032870Y009940
X-026370Y009940
X-018370Y009940
X-020770Y016000
X-015950Y016000
X-010770Y002070
X-010770Y-005930
X-010770Y-013930
X-010770Y-021930
X-010770Y-029930
X-010770Y-037930
X-016150Y-044110
X-020680Y-044110
X-048250Y-044300
X-054250Y-044300
T04
X-061520Y-039430
X-059860Y-040300
X-057710Y-038440
X-056870Y-040690
X-056870Y-036060
X-056870Y-032690
X-057710Y-030440
X-056870Y-028060
X-056870Y-024690
X-057710Y-022440
X-056870Y-020060
X-056870Y-016690
X-057710Y-014440
X-056870Y-012060
X-056870Y-008690
X-057710Y-006440
X-056870Y-004060
X-056870Y-000690
X-057710Y001560
X-056870Y003940
X-052120Y003940
X-048370Y002440
X-052120Y-000810
X-052120Y-004060
X-048370Y-005560
X-052120Y-008810
X-052120Y-012060
X-048370Y-013560
X-052120Y-016810
X-052120Y-020060
X-048370Y-021560
X-052120Y-024810
X-052120Y-028060
X-048370Y-029560
X-052120Y-032810
X-052120Y-036060
X-048370Y-037560
X-052120Y-040810
X-042870Y-038310
X-040870Y-040810
X-037620Y-038310
X-034120Y-038310
X-028870Y-038310
X-028870Y-041060
X-023620Y-041560
X-020130Y-040710
X-015380Y-040710
X-014550Y-038330
X-015380Y-036080
X-015380Y-032710
X-014550Y-030330
X-015380Y-028080
X-015380Y-024710
X-014550Y-022330
X-015380Y-020080
X-015380Y-016710
X-014550Y-014330
X-015380Y-012080
X-015380Y-008710
X-014550Y-006330
X-015380Y-004080
X-015380Y-000710
X-014550Y001670
X-015380Y003920
X-020130Y004040
X-020130Y-000710
X-020130Y-003960
X-023620Y-001560
X-028870Y-001060
X-028870Y-002810
X-028870Y-006310
X-028870Y-009060
X-028870Y-010810
X-028870Y-014310
X-028870Y-017060
X-028870Y-018810
X-028870Y-022310
X-028870Y-025060
X-028870Y-026810
X-028870Y-030310
X-028870Y-033060
X-028870Y-034810
X-023620Y-033560
X-020130Y-032710
X-020130Y-035960
X-020130Y-027960
X-020130Y-024710
X-023620Y-025560
X-020130Y-019960
X-020130Y-016710
X-023620Y-017560
X-020130Y-011960
X-020130Y-008710
X-023620Y-009560
X-034120Y-006310
X-037620Y-006310
X-040870Y-008810
X-042870Y-010810
X-042870Y-014310
X-040870Y-016810
X-042870Y-018810
X-042870Y-022310
X-040870Y-024810
X-042870Y-026810
X-042870Y-030310
X-040870Y-032810
X-042870Y-034810
X-037620Y-030310
X-034120Y-030310
X-034120Y-022310
X-037620Y-022310
X-037620Y-014310
X-034120Y-014310
X-042870Y-006310
X-042870Y-002810
X-040870Y-000810
X-042870Y001690
X-042870Y005190
X-037620Y001690
X-034120Y001690
X-028870Y001690
X-028870Y005190
X-012610Y-000300
X-010770Y000070
X-010770Y-007930
X-012610Y-008300
X-010770Y-015930
X-012610Y-016300
X-006680Y-017160
X-005680Y-016160
X-006680Y-015160
X-004680Y-015160
X-004680Y-017160
X-002360Y-017720
X-002360Y-014170
X-010770Y-023930
X-012610Y-024300
X-010770Y-031930
X-012610Y-032300
X-010770Y-039930
X-012610Y-040300
X-059860Y-032300
X-061520Y-031430
X-059860Y-024300
X-061520Y-023430
X-059860Y-016300
X-061520Y-015430
X-064120Y-016380
X-065130Y-015380
X-066120Y-014380
X-064120Y-014380
X-066120Y-016380
X-061520Y-007430
X-059860Y-008300
X-059860Y-000300
X-061520Y000570
T05
X-007320Y-040470
X-007320Y-036470
X-007320Y-032590
X-007320Y-028590
X-007320Y-024920
X-007320Y-020920
X-003320Y-020920
X-003320Y-024920
X-003320Y-028590
X-003320Y-032590
X-003320Y-036470
X-003320Y-040470
X-003120Y-011140
X-003120Y-007140
X-003120Y-003260
X-003120Y000740
X-003120Y003820
X-003120Y007820
X-007120Y007820
X-007120Y003820
X-007120Y000740
X-007120Y-003260
X-007120Y-007140
X-007120Y-011140
T06
X-065620Y-044800
X-006620Y-044800
X-006620Y015310
X-065620Y015310
M30
