%FSLAX34Y34*%
%MOMM*%
%LNSOLDERMASK_TOP*%
G71*
G01*
%ADD10C,2.800*%
%ADD11C,2.800*%
%ADD12C,2.700*%
%ADD13C,2.600*%
%ADD14C,2.500*%
%ADD15C,2.700*%
%ADD16C,2.800*%
%ADD17C,2.800*%
%ADD18C,4.900*%
%ADD19C,3.600*%
%LPD*%
X-1228700Y61900D02*
G54D10*
D03*
X-1228700Y-39700D02*
G54D10*
D03*
X-1089000Y42850D02*
G54D11*
D03*
X-1089000Y131750D02*
G54D11*
D03*
X-1038200Y-20650D02*
G54D10*
D03*
X-1139800Y-20650D02*
G54D10*
D03*
X-955650Y42850D02*
G54D11*
D03*
X-866750Y42850D02*
G54D11*
D03*
X-733400Y-27000D02*
G54D10*
D03*
X-835000Y-27000D02*
G54D10*
D03*
X-733400Y42850D02*
G54D11*
D03*
X-733400Y131750D02*
G54D11*
D03*
X-600050Y61900D02*
G54D10*
D03*
X-600050Y-39700D02*
G54D10*
D03*
X-1323950Y-20650D02*
G54D11*
D03*
X-1444600Y-17476D02*
G54D11*
D03*
X-1323950Y100000D02*
G54D11*
D03*
X-1444600Y100000D02*
G54D11*
D03*
X-1465712Y39675D02*
G54D11*
D03*
X-511290Y102651D02*
G54D11*
D03*
X-390640Y99477D02*
G54D11*
D03*
X-511290Y-17999D02*
G54D11*
D03*
X-390640Y-17999D02*
G54D11*
D03*
X-369528Y42326D02*
G54D11*
D03*
X-1228700Y61900D02*
G54D11*
D03*
X-1038200Y-20650D02*
G54D11*
D03*
X-733400Y-27000D02*
G54D11*
D03*
X-600050Y-39700D02*
G54D11*
D03*
X-1444600Y-17476D02*
G54D12*
D03*
X-1562592Y14362D02*
G54D13*
D03*
X-1562704Y65342D02*
G54D13*
D03*
X-1520477Y-7670D02*
G54D14*
D03*
X-1520477Y93930D02*
G54D14*
D03*
X-1520477Y-7670D02*
G54D13*
D03*
X-273542Y1662D02*
G54D13*
D03*
X-273654Y52642D02*
G54D13*
D03*
X-320327Y-7670D02*
G54D14*
D03*
X-320327Y93930D02*
G54D14*
D03*
X-320327Y-7670D02*
G54D13*
D03*
X-1520477Y-7670D02*
G54D11*
D03*
X-1562592Y14362D02*
G54D11*
D03*
X-320327Y-7670D02*
G54D11*
D03*
X-273542Y1662D02*
G54D11*
D03*
X-1228700Y-141300D02*
G54D10*
D03*
X-1228700Y-242900D02*
G54D10*
D03*
X-1089000Y-160350D02*
G54D11*
D03*
X-1089000Y-71450D02*
G54D11*
D03*
X-1038200Y-223850D02*
G54D10*
D03*
X-1139800Y-223850D02*
G54D10*
D03*
X-955650Y-160350D02*
G54D11*
D03*
X-866750Y-160350D02*
G54D11*
D03*
X-733400Y-230200D02*
G54D10*
D03*
X-835000Y-230200D02*
G54D10*
D03*
X-733400Y-160350D02*
G54D11*
D03*
X-733400Y-71450D02*
G54D11*
D03*
X-600050Y-141300D02*
G54D10*
D03*
X-600050Y-242900D02*
G54D10*
D03*
X-1323950Y-223850D02*
G54D11*
D03*
X-1444600Y-220676D02*
G54D11*
D03*
X-1323950Y-103200D02*
G54D11*
D03*
X-1444600Y-103200D02*
G54D11*
D03*
X-1465712Y-163525D02*
G54D11*
D03*
X-511290Y-100549D02*
G54D15*
D03*
X-390640Y-103723D02*
G54D11*
D03*
X-511290Y-221199D02*
G54D11*
D03*
X-390640Y-221199D02*
G54D11*
D03*
X-369527Y-160874D02*
G54D11*
D03*
X-1228700Y-141300D02*
G54D11*
D03*
X-1038200Y-223850D02*
G54D11*
D03*
X-733400Y-230200D02*
G54D11*
D03*
X-600050Y-242900D02*
G54D11*
D03*
X-1444600Y-220676D02*
G54D16*
D03*
X-1562592Y-188838D02*
G54D13*
D03*
X-1562704Y-137858D02*
G54D13*
D03*
X-1520477Y-210870D02*
G54D14*
D03*
X-1520477Y-109270D02*
G54D14*
D03*
X-1520477Y-210870D02*
G54D13*
D03*
X-273542Y-201538D02*
G54D13*
D03*
X-273654Y-150558D02*
G54D13*
D03*
X-320327Y-210870D02*
G54D14*
D03*
X-320327Y-109270D02*
G54D14*
D03*
X-320327Y-210870D02*
G54D13*
D03*
X-1520477Y-210870D02*
G54D11*
D03*
X-1562592Y-188838D02*
G54D11*
D03*
X-320327Y-210870D02*
G54D11*
D03*
X-273542Y-201538D02*
G54D11*
D03*
X-1228700Y-344500D02*
G54D10*
D03*
X-1228700Y-446100D02*
G54D10*
D03*
X-1089000Y-363550D02*
G54D11*
D03*
X-1089000Y-274650D02*
G54D11*
D03*
X-1038200Y-427050D02*
G54D10*
D03*
X-1139800Y-427050D02*
G54D10*
D03*
X-955650Y-363550D02*
G54D11*
D03*
X-866750Y-363550D02*
G54D11*
D03*
X-733400Y-433400D02*
G54D10*
D03*
X-835000Y-433400D02*
G54D10*
D03*
X-733400Y-363550D02*
G54D11*
D03*
X-733400Y-274650D02*
G54D11*
D03*
X-600050Y-344500D02*
G54D10*
D03*
X-600050Y-446100D02*
G54D10*
D03*
X-1323950Y-427050D02*
G54D11*
D03*
X-1444600Y-423876D02*
G54D11*
D03*
X-1323950Y-306400D02*
G54D11*
D03*
X-1444600Y-306400D02*
G54D11*
D03*
X-1465712Y-366725D02*
G54D11*
D03*
X-511290Y-303749D02*
G54D11*
D03*
X-390640Y-306923D02*
G54D11*
D03*
X-511290Y-424399D02*
G54D11*
D03*
X-390640Y-424399D02*
G54D11*
D03*
X-369527Y-364074D02*
G54D11*
D03*
X-1228700Y-344500D02*
G54D11*
D03*
X-1038200Y-427050D02*
G54D11*
D03*
X-733400Y-433400D02*
G54D11*
D03*
X-600050Y-446100D02*
G54D11*
D03*
X-1444600Y-423876D02*
G54D16*
D03*
X-1562592Y-392038D02*
G54D13*
D03*
X-1562704Y-341058D02*
G54D13*
D03*
X-1520477Y-414070D02*
G54D14*
D03*
X-1520477Y-312470D02*
G54D14*
D03*
X-1520477Y-414070D02*
G54D13*
D03*
X-273542Y-404738D02*
G54D13*
D03*
X-273654Y-353758D02*
G54D13*
D03*
X-320327Y-414070D02*
G54D14*
D03*
X-320327Y-312470D02*
G54D14*
D03*
X-320327Y-414070D02*
G54D13*
D03*
X-1520477Y-414070D02*
G54D11*
D03*
X-1562592Y-392038D02*
G54D11*
D03*
X-320327Y-414070D02*
G54D11*
D03*
X-273542Y-404738D02*
G54D11*
D03*
X-1228700Y-547700D02*
G54D10*
D03*
X-1228700Y-649300D02*
G54D10*
D03*
X-1089000Y-566750D02*
G54D11*
D03*
X-1089000Y-477850D02*
G54D11*
D03*
X-1038200Y-630250D02*
G54D10*
D03*
X-1139800Y-630250D02*
G54D10*
D03*
X-955650Y-566750D02*
G54D11*
D03*
X-866750Y-566750D02*
G54D11*
D03*
X-733400Y-636600D02*
G54D10*
D03*
X-835000Y-636600D02*
G54D10*
D03*
X-733400Y-566750D02*
G54D11*
D03*
X-733400Y-477850D02*
G54D11*
D03*
X-600050Y-547700D02*
G54D10*
D03*
X-600050Y-649300D02*
G54D10*
D03*
X-1323950Y-630250D02*
G54D11*
D03*
X-1444600Y-627076D02*
G54D11*
D03*
X-1323950Y-509600D02*
G54D11*
D03*
X-1444600Y-509600D02*
G54D11*
D03*
X-1465712Y-569925D02*
G54D11*
D03*
X-511290Y-506948D02*
G54D11*
D03*
X-390640Y-510123D02*
G54D11*
D03*
X-511290Y-627599D02*
G54D11*
D03*
X-390640Y-627599D02*
G54D11*
D03*
X-369527Y-567274D02*
G54D11*
D03*
X-1228700Y-547700D02*
G54D11*
D03*
X-1038200Y-630250D02*
G54D11*
D03*
X-733400Y-636600D02*
G54D11*
D03*
X-600050Y-649300D02*
G54D11*
D03*
X-1444600Y-627076D02*
G54D16*
D03*
X-1562592Y-595238D02*
G54D13*
D03*
X-1562704Y-544258D02*
G54D13*
D03*
X-1520477Y-617270D02*
G54D14*
D03*
X-1520477Y-515670D02*
G54D14*
D03*
X-1520477Y-617270D02*
G54D13*
D03*
X-273542Y-607938D02*
G54D13*
D03*
X-273654Y-556958D02*
G54D13*
D03*
X-320327Y-617270D02*
G54D14*
D03*
X-320327Y-515670D02*
G54D14*
D03*
X-320327Y-617270D02*
G54D13*
D03*
X-1520477Y-617270D02*
G54D11*
D03*
X-1562592Y-595238D02*
G54D11*
D03*
X-320327Y-617270D02*
G54D11*
D03*
X-273542Y-607938D02*
G54D11*
D03*
X-1228700Y-750900D02*
G54D10*
D03*
X-1228700Y-852500D02*
G54D10*
D03*
X-1089000Y-769950D02*
G54D11*
D03*
X-1089000Y-681050D02*
G54D11*
D03*
X-1038200Y-833450D02*
G54D10*
D03*
X-1139800Y-833450D02*
G54D10*
D03*
X-955650Y-769950D02*
G54D11*
D03*
X-866750Y-769950D02*
G54D11*
D03*
X-733400Y-839800D02*
G54D10*
D03*
X-835000Y-839800D02*
G54D10*
D03*
X-733400Y-769950D02*
G54D11*
D03*
X-733400Y-681050D02*
G54D11*
D03*
X-600050Y-750900D02*
G54D10*
D03*
X-600050Y-852500D02*
G54D10*
D03*
X-1323950Y-833450D02*
G54D11*
D03*
X-1444600Y-830276D02*
G54D11*
D03*
X-1323950Y-712800D02*
G54D11*
D03*
X-1444600Y-712800D02*
G54D11*
D03*
X-1465712Y-773125D02*
G54D11*
D03*
X-511290Y-710148D02*
G54D11*
D03*
X-390640Y-713323D02*
G54D11*
D03*
X-511290Y-830799D02*
G54D11*
D03*
X-390640Y-830799D02*
G54D11*
D03*
X-369527Y-770474D02*
G54D11*
D03*
X-1228700Y-750900D02*
G54D11*
D03*
X-1038200Y-833450D02*
G54D11*
D03*
X-733400Y-839800D02*
G54D11*
D03*
X-600050Y-852500D02*
G54D11*
D03*
X-1444600Y-830276D02*
G54D16*
D03*
X-1562592Y-798438D02*
G54D13*
D03*
X-1562704Y-747458D02*
G54D13*
D03*
X-1520477Y-820470D02*
G54D14*
D03*
X-1520477Y-718870D02*
G54D14*
D03*
X-1520477Y-820470D02*
G54D13*
D03*
X-273542Y-811138D02*
G54D13*
D03*
X-273654Y-760158D02*
G54D13*
D03*
X-320327Y-820470D02*
G54D14*
D03*
X-320327Y-718870D02*
G54D14*
D03*
X-320327Y-820470D02*
G54D13*
D03*
X-1520477Y-820470D02*
G54D11*
D03*
X-1562592Y-798438D02*
G54D11*
D03*
X-320327Y-820470D02*
G54D11*
D03*
X-273542Y-811138D02*
G54D11*
D03*
X-1228700Y-954100D02*
G54D10*
D03*
X-1228700Y-1055700D02*
G54D10*
D03*
X-1089000Y-973150D02*
G54D11*
D03*
X-1089000Y-884250D02*
G54D11*
D03*
X-1038200Y-1036650D02*
G54D10*
D03*
X-1139800Y-1036650D02*
G54D10*
D03*
X-955650Y-973150D02*
G54D11*
D03*
X-866750Y-973150D02*
G54D11*
D03*
X-733400Y-1043000D02*
G54D10*
D03*
X-835000Y-1043000D02*
G54D10*
D03*
X-733400Y-973150D02*
G54D11*
D03*
X-733400Y-884250D02*
G54D11*
D03*
X-600050Y-954100D02*
G54D10*
D03*
X-600050Y-1055700D02*
G54D10*
D03*
X-1323950Y-1036650D02*
G54D11*
D03*
X-1444600Y-1033476D02*
G54D11*
D03*
X-1323950Y-916000D02*
G54D11*
D03*
X-1444600Y-916000D02*
G54D11*
D03*
X-1465712Y-976325D02*
G54D11*
D03*
X-511290Y-913348D02*
G54D11*
D03*
X-390640Y-916523D02*
G54D11*
D03*
X-511290Y-1033999D02*
G54D11*
D03*
X-390640Y-1033999D02*
G54D11*
D03*
X-369527Y-973674D02*
G54D11*
D03*
X-1228700Y-954100D02*
G54D11*
D03*
X-1038200Y-1036650D02*
G54D11*
D03*
X-733400Y-1043000D02*
G54D11*
D03*
X-600050Y-1055700D02*
G54D11*
D03*
X-1444600Y-1033476D02*
G54D16*
D03*
X-1562592Y-1001638D02*
G54D13*
D03*
X-1562704Y-950658D02*
G54D13*
D03*
X-1520477Y-1023670D02*
G54D14*
D03*
X-1520477Y-922070D02*
G54D14*
D03*
X-1520477Y-1023670D02*
G54D13*
D03*
X-273542Y-1014338D02*
G54D13*
D03*
X-273654Y-963358D02*
G54D13*
D03*
X-320327Y-1023670D02*
G54D14*
D03*
X-320327Y-922070D02*
G54D14*
D03*
X-320327Y-1023670D02*
G54D13*
D03*
X-1520477Y-1023670D02*
G54D11*
D03*
X-1562592Y-1001638D02*
G54D11*
D03*
X-320327Y-1023670D02*
G54D11*
D03*
X-273542Y-1014338D02*
G54D11*
D03*
X-1406500Y252400D02*
G54D17*
D03*
X-835000Y252400D02*
G54D17*
D03*
X-669900Y252400D02*
G54D17*
D03*
X-466700Y252400D02*
G54D17*
D03*
X-1241400Y252400D02*
G54D17*
D03*
X-1038200Y252400D02*
G54D17*
D03*
X-1679575Y-365162D02*
G54D11*
D03*
X-1628775Y-365162D02*
G54D11*
D03*
X-1654175Y-390562D02*
G54D11*
D03*
X-1628775Y-415962D02*
G54D11*
D03*
X-1679575Y-415962D02*
G54D11*
D03*
G36*
X-1390950Y419400D02*
X-1364950Y419400D01*
X-1364950Y393400D01*
X-1390950Y393400D01*
X-1390950Y419400D01*
G37*
G36*
X-1238550Y419400D02*
X-1212550Y419400D01*
X-1212550Y393400D01*
X-1238550Y393400D01*
X-1238550Y419400D01*
G37*
X-1666850Y388800D02*
G54D18*
D03*
G36*
X-540550Y419400D02*
X-514550Y419400D01*
X-514550Y393400D01*
X-540550Y393400D01*
X-540550Y419400D01*
G37*
G36*
X-418150Y419400D02*
X-392150Y419400D01*
X-392150Y393400D01*
X-418150Y393400D01*
X-418150Y419400D01*
G37*
X-168250Y388800D02*
G54D18*
D03*
G36*
X-1390950Y-1112300D02*
X-1364950Y-1112300D01*
X-1364950Y-1138300D01*
X-1390950Y-1138300D01*
X-1390950Y-1112300D01*
G37*
G36*
X-1238550Y-1112300D02*
X-1212550Y-1112300D01*
X-1212550Y-1138300D01*
X-1238550Y-1138300D01*
X-1238550Y-1112300D01*
G37*
X-1666850Y-1137900D02*
G54D18*
D03*
G36*
X-538150Y-1107300D02*
X-512150Y-1107300D01*
X-512150Y-1133300D01*
X-538150Y-1133300D01*
X-538150Y-1107300D01*
G37*
X-168250Y-1137900D02*
G54D18*
D03*
G36*
X-1670350Y-901400D02*
X-1644350Y-901400D01*
X-1644350Y-927400D01*
X-1670350Y-927400D01*
X-1670350Y-901400D01*
G37*
G36*
X-1670350Y114600D02*
X-1644350Y114600D01*
X-1644350Y88600D01*
X-1670350Y88600D01*
X-1670350Y114600D01*
G37*
X-1562592Y14362D02*
G54D11*
D03*
X-1562592Y-392039D02*
G54D11*
D03*
X-1562592Y-798438D02*
G54D11*
D03*
X-273542Y-201538D02*
G54D11*
D03*
X-273542Y-607939D02*
G54D11*
D03*
X-273542Y-1014339D02*
G54D11*
D03*
G36*
X-423150Y-1107300D02*
X-397150Y-1107300D01*
X-397150Y-1133300D01*
X-423150Y-1133300D01*
X-423150Y-1107300D01*
G37*
X-180950Y198750D02*
G54D19*
D03*
X-79350Y198750D02*
G54D11*
D03*
X-79350Y198750D02*
G54D19*
D03*
X-180950Y198750D02*
G54D19*
D03*
X-180950Y97150D02*
G54D11*
D03*
X-180950Y97150D02*
G54D19*
D03*
X-79350Y198750D02*
G54D19*
D03*
X-79350Y97150D02*
G54D11*
D03*
X-79350Y97150D02*
G54D19*
D03*
X-180950Y97150D02*
G54D19*
D03*
X-79350Y97150D02*
G54D19*
D03*
X-180950Y18750D02*
G54D19*
D03*
X-79350Y18750D02*
G54D11*
D03*
X-79350Y18750D02*
G54D19*
D03*
X-180950Y18750D02*
G54D19*
D03*
X-180950Y-82850D02*
G54D11*
D03*
X-180950Y-82850D02*
G54D19*
D03*
X-79350Y18750D02*
G54D19*
D03*
X-79350Y-82850D02*
G54D11*
D03*
X-79350Y-82850D02*
G54D19*
D03*
X-180950Y-82850D02*
G54D19*
D03*
X-79350Y-82850D02*
G54D19*
D03*
X-180950Y-181250D02*
G54D19*
D03*
X-79350Y-181250D02*
G54D11*
D03*
X-79350Y-181250D02*
G54D19*
D03*
X-180950Y-181250D02*
G54D19*
D03*
X-180950Y-282850D02*
G54D11*
D03*
X-180950Y-282850D02*
G54D19*
D03*
X-79350Y-181250D02*
G54D19*
D03*
X-79350Y-282850D02*
G54D11*
D03*
X-79350Y-282850D02*
G54D19*
D03*
X-180950Y-282850D02*
G54D19*
D03*
X-79350Y-282850D02*
G54D19*
D03*
X-185950Y-531250D02*
G54D19*
D03*
X-84350Y-531250D02*
G54D11*
D03*
X-84350Y-531250D02*
G54D19*
D03*
X-185950Y-531250D02*
G54D19*
D03*
X-185950Y-632850D02*
G54D11*
D03*
X-185950Y-632850D02*
G54D19*
D03*
X-84350Y-531250D02*
G54D19*
D03*
X-84350Y-632850D02*
G54D11*
D03*
X-84350Y-632850D02*
G54D19*
D03*
X-185950Y-632850D02*
G54D19*
D03*
X-84350Y-632850D02*
G54D19*
D03*
X-185950Y-726250D02*
G54D19*
D03*
X-84350Y-726250D02*
G54D11*
D03*
X-84350Y-726250D02*
G54D19*
D03*
X-185950Y-726250D02*
G54D19*
D03*
X-185950Y-827850D02*
G54D11*
D03*
X-185950Y-827850D02*
G54D19*
D03*
X-84350Y-726250D02*
G54D19*
D03*
X-84350Y-827850D02*
G54D11*
D03*
X-84350Y-827850D02*
G54D19*
D03*
X-185950Y-827850D02*
G54D19*
D03*
X-84350Y-827850D02*
G54D19*
D03*
X-185950Y-926250D02*
G54D19*
D03*
X-84350Y-926250D02*
G54D11*
D03*
X-84350Y-926250D02*
G54D19*
D03*
X-185950Y-926250D02*
G54D19*
D03*
X-185950Y-1027850D02*
G54D11*
D03*
X-185950Y-1027850D02*
G54D19*
D03*
X-84350Y-926250D02*
G54D19*
D03*
X-84350Y-1027850D02*
G54D11*
D03*
X-84350Y-1027850D02*
G54D19*
D03*
X-185950Y-1027850D02*
G54D19*
D03*
X-84350Y-1027850D02*
G54D19*
D03*
X-169575Y-385162D02*
G54D11*
D03*
X-118775Y-385162D02*
G54D11*
D03*
X-144175Y-410562D02*
G54D11*
D03*
X-118775Y-435962D02*
G54D11*
D03*
X-169575Y-435962D02*
G54D11*
D03*
X-60000Y-360000D02*
G54D11*
D03*
X-60000Y-450000D02*
G54D11*
D03*
M02*
