%FSLAX34Y34*%
%MOMM*%
%LNSILK_TOP*%
G71*
G01*
%ADD10C,0.150*%
%ADD11C,0.400*%
%ADD12C,0.222*%
%ADD13C,0.167*%
%ADD14C,0.111*%
%ADD15C,0.144*%
%ADD16C,0.333*%
%ADD17C,0.200*%
%LPD*%
G54D10*
X-1213600Y72300D02*
X-1243800Y72300D01*
X-1243800Y-50100D01*
X-1213600Y-50100D01*
X-1213600Y72300D01*
G54D10*
X-1220700Y12500D02*
X-1236700Y12500D01*
G54D10*
X-1220700Y9300D02*
X-1236700Y9300D01*
G54D10*
X-1228700Y49000D02*
X-1228700Y12500D01*
G54D10*
X-1228700Y9300D02*
X-1228700Y-27200D01*
G54D11*
X-1190600Y42850D02*
X-1190600Y131750D01*
X-987400Y131750D01*
X-987400Y42850D01*
X-1190600Y42850D01*
G54D10*
X-1027800Y-35750D02*
X-1027800Y-5550D01*
X-1150200Y-5550D01*
X-1150200Y-35750D01*
X-1027800Y-35750D01*
G54D10*
X-1087600Y-28650D02*
X-1087600Y-12650D01*
G54D10*
X-1090800Y-28650D02*
X-1090800Y-12650D01*
G54D10*
X-1051100Y-20650D02*
X-1087600Y-20650D01*
G54D10*
X-1090800Y-20650D02*
X-1127300Y-20650D01*
G54D11*
X-955650Y144450D02*
X-866750Y144450D01*
X-866750Y-58750D01*
X-955650Y-58750D01*
X-955650Y144450D01*
G54D10*
X-723000Y-42100D02*
X-723000Y-11900D01*
X-845400Y-11900D01*
X-845400Y-42100D01*
X-723000Y-42100D01*
G54D10*
X-782800Y-35000D02*
X-782800Y-19000D01*
G54D10*
X-786000Y-35000D02*
X-786000Y-19000D01*
G54D10*
X-746300Y-27000D02*
X-782800Y-27000D01*
G54D10*
X-786000Y-27000D02*
X-822500Y-27000D01*
G54D11*
X-835000Y42850D02*
X-835000Y131750D01*
X-631800Y131750D01*
X-631800Y42850D01*
X-835000Y42850D01*
G54D10*
X-584950Y72300D02*
X-615150Y72300D01*
X-615150Y-50100D01*
X-584950Y-50100D01*
X-584950Y72300D01*
G54D10*
X-592050Y12500D02*
X-608050Y12500D01*
G54D10*
X-592050Y9300D02*
X-608050Y9300D01*
G54D10*
X-600050Y49000D02*
X-600050Y12500D01*
G54D10*
X-600050Y9300D02*
X-600050Y-27200D01*
G54D11*
X-1487928Y128269D02*
X-1291078Y128269D01*
X-1291078Y-43181D01*
X-1487928Y-43181D01*
X-1487928Y128269D01*
G54D12*
X-1336774Y70898D02*
X-1336774Y80898D01*
G54D12*
X-1336774Y78676D02*
X-1335440Y80232D01*
X-1332774Y80898D01*
X-1330107Y80232D01*
X-1328774Y78676D01*
X-1328773Y70898D01*
G54D12*
X-1317218Y80232D02*
X-1319884Y80898D01*
X-1322551Y80232D01*
X-1323884Y78009D01*
X-1323884Y73565D01*
X-1322551Y71343D01*
X-1319884Y70898D01*
X-1317218Y71343D01*
G54D12*
X-1334579Y1404D02*
X-1334579Y11404D01*
G54D12*
X-1334579Y9182D02*
X-1333246Y10737D01*
X-1330579Y11404D01*
X-1327912Y10737D01*
X-1326579Y9182D01*
X-1326579Y1404D01*
G54D12*
X-1321690Y10293D02*
X-1319023Y11404D01*
X-1315824Y11404D01*
X-1313690Y9182D01*
X-1313690Y1404D01*
G54D12*
X-1313690Y4737D02*
X-1315023Y6960D01*
X-1317690Y7404D01*
X-1320357Y6960D01*
X-1321690Y4737D01*
X-1321157Y2515D01*
X-1319024Y1404D01*
X-1317690Y1404D01*
X-1317157Y1404D01*
X-1315023Y2515D01*
X-1313690Y4737D01*
G54D11*
X-347312Y-46268D02*
X-544162Y-46268D01*
X-544162Y125182D01*
X-347312Y125182D01*
X-347312Y-46268D01*
G54D12*
X-517978Y1121D02*
X-517978Y11121D01*
G54D12*
X-517978Y8899D02*
X-516645Y10454D01*
X-513978Y11121D01*
X-511312Y10454D01*
X-509978Y8899D01*
X-509978Y1121D01*
G54D12*
X-498423Y10454D02*
X-501089Y11121D01*
X-503756Y10454D01*
X-505089Y8232D01*
X-505090Y3788D01*
X-503756Y1565D01*
X-501089Y1121D01*
X-498423Y1566D01*
G54D12*
X-521550Y70597D02*
X-521550Y80597D01*
G54D12*
X-521550Y78374D02*
X-520217Y79930D01*
X-517550Y80597D01*
X-514883Y79930D01*
X-513550Y78374D01*
X-513550Y70597D01*
G54D12*
X-508661Y79486D02*
X-505994Y80597D01*
X-502794Y80597D01*
X-500661Y78374D01*
X-500661Y70597D01*
G54D12*
X-500661Y73930D02*
X-501994Y76152D01*
X-504661Y76597D01*
X-507328Y76152D01*
X-508661Y73930D01*
X-508128Y71708D01*
X-505994Y70597D01*
X-504661Y70597D01*
X-504128Y70597D01*
X-501994Y71708D01*
X-500661Y73930D01*
G54D10*
X-1575425Y4147D02*
X-1550025Y4146D01*
X-1550025Y75747D01*
X-1575425Y75746D01*
X-1575425Y4147D01*
G54D13*
X-1544634Y56802D02*
X-1544634Y56802D01*
G54D10*
X-1506777Y5030D02*
X-1534177Y5030D01*
X-1534177Y81230D01*
X-1506777Y81230D01*
X-1506777Y5030D01*
G54D10*
X-1534177Y74930D02*
X-1506777Y74930D01*
G54D14*
X-1524232Y108147D02*
X-1524232Y108147D01*
G54D10*
X-286375Y-8553D02*
X-260975Y-8554D01*
X-260975Y63047D01*
X-286375Y63046D01*
X-286375Y-8553D01*
G54D13*
X-255584Y44102D02*
X-255584Y44102D01*
G54D10*
X-306627Y5030D02*
X-334027Y5030D01*
X-334027Y81230D01*
X-306627Y81230D01*
X-306627Y5030D01*
G54D10*
X-334027Y74930D02*
X-306627Y74930D01*
G54D14*
X-324082Y44647D02*
X-324082Y44647D01*
G54D10*
X-1213600Y-130900D02*
X-1243800Y-130900D01*
X-1243800Y-253300D01*
X-1213600Y-253300D01*
X-1213600Y-130900D01*
G54D10*
X-1220700Y-190700D02*
X-1236700Y-190700D01*
G54D10*
X-1220700Y-193900D02*
X-1236700Y-193900D01*
G54D10*
X-1228700Y-154200D02*
X-1228700Y-190700D01*
G54D10*
X-1228700Y-193900D02*
X-1228700Y-230400D01*
G54D11*
X-1190600Y-160350D02*
X-1190600Y-71450D01*
X-987400Y-71450D01*
X-987400Y-160350D01*
X-1190600Y-160350D01*
G54D10*
X-1027800Y-238950D02*
X-1027800Y-208750D01*
X-1150200Y-208750D01*
X-1150200Y-238950D01*
X-1027800Y-238950D01*
G54D10*
X-1087600Y-231850D02*
X-1087600Y-215850D01*
G54D10*
X-1090800Y-231850D02*
X-1090800Y-215850D01*
G54D10*
X-1051100Y-223850D02*
X-1087600Y-223850D01*
G54D10*
X-1090800Y-223850D02*
X-1127300Y-223850D01*
G54D11*
X-955650Y-58750D02*
X-866750Y-58750D01*
X-866750Y-261950D01*
X-955650Y-261950D01*
X-955650Y-58750D01*
G54D10*
X-723000Y-245300D02*
X-723000Y-215100D01*
X-845400Y-215100D01*
X-845400Y-245300D01*
X-723000Y-245300D01*
G54D10*
X-782800Y-238200D02*
X-782800Y-222200D01*
G54D10*
X-786000Y-238200D02*
X-786000Y-222200D01*
G54D10*
X-746300Y-230200D02*
X-782800Y-230200D01*
G54D10*
X-786000Y-230200D02*
X-822500Y-230200D01*
G54D11*
X-835000Y-160350D02*
X-835000Y-71450D01*
X-631800Y-71450D01*
X-631800Y-160350D01*
X-835000Y-160350D01*
G54D10*
X-584950Y-130900D02*
X-615150Y-130900D01*
X-615150Y-253300D01*
X-584950Y-253300D01*
X-584950Y-130900D01*
G54D10*
X-592050Y-190700D02*
X-608050Y-190700D01*
G54D10*
X-592050Y-193900D02*
X-608050Y-193900D01*
G54D10*
X-600050Y-154200D02*
X-600050Y-190700D01*
G54D10*
X-600050Y-193900D02*
X-600050Y-230400D01*
G54D11*
X-1487928Y-74931D02*
X-1291078Y-74931D01*
X-1291078Y-246381D01*
X-1487928Y-246381D01*
X-1487928Y-74931D01*
G54D12*
X-1336774Y-132302D02*
X-1336774Y-122302D01*
G54D12*
X-1336774Y-124524D02*
X-1335440Y-122968D01*
X-1332774Y-122302D01*
X-1330107Y-122968D01*
X-1328774Y-124524D01*
X-1328773Y-132302D01*
G54D12*
X-1317218Y-122968D02*
X-1319884Y-122302D01*
X-1322551Y-122968D01*
X-1323884Y-125191D01*
X-1323884Y-129635D01*
X-1322551Y-131857D01*
X-1319884Y-132302D01*
X-1317218Y-131857D01*
G54D12*
X-1334579Y-201796D02*
X-1334579Y-191796D01*
G54D12*
X-1334579Y-194018D02*
X-1333246Y-192463D01*
X-1330579Y-191796D01*
X-1327912Y-192463D01*
X-1326579Y-194018D01*
X-1326579Y-201796D01*
G54D12*
X-1321690Y-192907D02*
X-1319023Y-191796D01*
X-1315824Y-191796D01*
X-1313690Y-194018D01*
X-1313690Y-201796D01*
G54D12*
X-1313690Y-198463D02*
X-1315023Y-196240D01*
X-1317690Y-195796D01*
X-1320357Y-196240D01*
X-1321690Y-198463D01*
X-1321157Y-200685D01*
X-1319024Y-201796D01*
X-1317690Y-201796D01*
X-1317157Y-201796D01*
X-1315023Y-200685D01*
X-1313690Y-198463D01*
G54D11*
X-347312Y-249468D02*
X-544162Y-249468D01*
X-544162Y-78018D01*
X-347312Y-78018D01*
X-347312Y-249468D01*
G54D12*
X-517978Y-202079D02*
X-517978Y-192079D01*
G54D12*
X-517978Y-194301D02*
X-516645Y-192746D01*
X-513978Y-192079D01*
X-511312Y-192746D01*
X-509978Y-194301D01*
X-509978Y-202079D01*
G54D12*
X-498423Y-192746D02*
X-501089Y-192079D01*
X-503756Y-192746D01*
X-505089Y-194968D01*
X-505090Y-199412D01*
X-503756Y-201635D01*
X-501089Y-202079D01*
X-498423Y-201634D01*
G54D12*
X-521550Y-132603D02*
X-521550Y-122603D01*
G54D12*
X-521550Y-124826D02*
X-520217Y-123270D01*
X-517550Y-122603D01*
X-514883Y-123270D01*
X-513550Y-124826D01*
X-513550Y-132603D01*
G54D12*
X-508661Y-123714D02*
X-505994Y-122603D01*
X-502794Y-122603D01*
X-500661Y-124826D01*
X-500661Y-132603D01*
G54D12*
X-500661Y-129270D02*
X-501994Y-127048D01*
X-504661Y-126603D01*
X-507328Y-127048D01*
X-508661Y-129270D01*
X-508128Y-131492D01*
X-505994Y-132603D01*
X-504661Y-132603D01*
X-504128Y-132603D01*
X-501994Y-131492D01*
X-500661Y-129270D01*
G54D10*
X-1575425Y-199053D02*
X-1550025Y-199054D01*
X-1550025Y-127453D01*
X-1575425Y-127454D01*
X-1575425Y-199053D01*
G54D13*
X-1544634Y-146398D02*
X-1544634Y-146398D01*
G54D10*
X-1506777Y-198170D02*
X-1534177Y-198170D01*
X-1534177Y-121970D01*
X-1506777Y-121970D01*
X-1506777Y-198170D01*
G54D10*
X-1534177Y-128270D02*
X-1506777Y-128270D01*
G54D14*
X-1524232Y-95053D02*
X-1524232Y-95053D01*
G54D10*
X-286375Y-211753D02*
X-260975Y-211754D01*
X-260975Y-140153D01*
X-286375Y-140154D01*
X-286375Y-211753D01*
G54D13*
X-255584Y-159098D02*
X-255584Y-159098D01*
G54D10*
X-306627Y-198170D02*
X-334027Y-198170D01*
X-334027Y-121970D01*
X-306627Y-121970D01*
X-306627Y-198170D01*
G54D10*
X-334027Y-128270D02*
X-306627Y-128270D01*
G54D14*
X-324082Y-158553D02*
X-324082Y-158553D01*
G54D10*
X-1213600Y-334100D02*
X-1243800Y-334100D01*
X-1243800Y-456500D01*
X-1213600Y-456500D01*
X-1213600Y-334100D01*
G54D10*
X-1220700Y-393900D02*
X-1236700Y-393900D01*
G54D10*
X-1220700Y-397100D02*
X-1236700Y-397100D01*
G54D10*
X-1228700Y-357400D02*
X-1228700Y-393900D01*
G54D10*
X-1228700Y-397100D02*
X-1228700Y-433600D01*
G54D11*
X-1190600Y-363550D02*
X-1190600Y-274650D01*
X-987400Y-274650D01*
X-987400Y-363550D01*
X-1190600Y-363550D01*
G54D10*
X-1027800Y-442150D02*
X-1027800Y-411950D01*
X-1150200Y-411950D01*
X-1150200Y-442150D01*
X-1027800Y-442150D01*
G54D10*
X-1087600Y-435050D02*
X-1087600Y-419050D01*
G54D10*
X-1090800Y-435050D02*
X-1090800Y-419050D01*
G54D10*
X-1051100Y-427050D02*
X-1087600Y-427050D01*
G54D10*
X-1090800Y-427050D02*
X-1127300Y-427050D01*
G54D11*
X-955650Y-261950D02*
X-866750Y-261950D01*
X-866750Y-465150D01*
X-955650Y-465150D01*
X-955650Y-261950D01*
G54D10*
X-723000Y-448500D02*
X-723000Y-418300D01*
X-845400Y-418300D01*
X-845400Y-448500D01*
X-723000Y-448500D01*
G54D10*
X-782800Y-441400D02*
X-782800Y-425400D01*
G54D10*
X-786000Y-441400D02*
X-786000Y-425400D01*
G54D10*
X-746300Y-433400D02*
X-782800Y-433400D01*
G54D10*
X-786000Y-433400D02*
X-822500Y-433400D01*
G54D11*
X-835000Y-363550D02*
X-835000Y-274650D01*
X-631800Y-274650D01*
X-631800Y-363550D01*
X-835000Y-363550D01*
G54D10*
X-584950Y-334100D02*
X-615150Y-334100D01*
X-615150Y-456500D01*
X-584950Y-456500D01*
X-584950Y-334100D01*
G54D10*
X-592050Y-393900D02*
X-608050Y-393900D01*
G54D10*
X-592050Y-397100D02*
X-608050Y-397100D01*
G54D10*
X-600050Y-357400D02*
X-600050Y-393900D01*
G54D10*
X-600050Y-397100D02*
X-600050Y-433600D01*
G54D11*
X-1487928Y-278131D02*
X-1291078Y-278131D01*
X-1291078Y-449581D01*
X-1487928Y-449581D01*
X-1487928Y-278131D01*
G54D12*
X-1336774Y-335502D02*
X-1336774Y-325502D01*
G54D12*
X-1336774Y-327724D02*
X-1335440Y-326168D01*
X-1332774Y-325502D01*
X-1330107Y-326168D01*
X-1328774Y-327724D01*
X-1328773Y-335502D01*
G54D12*
X-1317218Y-326168D02*
X-1319884Y-325502D01*
X-1322551Y-326168D01*
X-1323884Y-328390D01*
X-1323884Y-332835D01*
X-1322551Y-335058D01*
X-1319884Y-335502D01*
X-1317218Y-335057D01*
G54D12*
X-1334579Y-404996D02*
X-1334579Y-394996D01*
G54D12*
X-1334579Y-397218D02*
X-1333246Y-395663D01*
X-1330579Y-394996D01*
X-1327912Y-395663D01*
X-1326579Y-397218D01*
X-1326579Y-404996D01*
G54D12*
X-1321690Y-396107D02*
X-1319023Y-394996D01*
X-1315824Y-394996D01*
X-1313690Y-397218D01*
X-1313690Y-404996D01*
G54D12*
X-1313690Y-401663D02*
X-1315023Y-399440D01*
X-1317690Y-398996D01*
X-1320357Y-399440D01*
X-1321690Y-401662D01*
X-1321157Y-403885D01*
X-1319024Y-404996D01*
X-1317690Y-404996D01*
X-1317157Y-404996D01*
X-1315023Y-403885D01*
X-1313690Y-401663D01*
G54D11*
X-347312Y-452668D02*
X-544162Y-452668D01*
X-544162Y-281218D01*
X-347312Y-281218D01*
X-347312Y-452668D01*
G54D12*
X-517978Y-405279D02*
X-517978Y-395279D01*
G54D12*
X-517978Y-397501D02*
X-516645Y-395946D01*
X-513978Y-395279D01*
X-511312Y-395946D01*
X-509978Y-397501D01*
X-509978Y-405279D01*
G54D12*
X-498423Y-395946D02*
X-501089Y-395279D01*
X-503756Y-395946D01*
X-505089Y-398168D01*
X-505090Y-402612D01*
X-503756Y-404835D01*
X-501089Y-405279D01*
X-498423Y-404834D01*
G54D12*
X-521550Y-335803D02*
X-521550Y-325803D01*
G54D12*
X-521550Y-328026D02*
X-520217Y-326470D01*
X-517550Y-325803D01*
X-514883Y-326470D01*
X-513550Y-328026D01*
X-513550Y-335803D01*
G54D12*
X-508661Y-326914D02*
X-505994Y-325804D01*
X-502794Y-325803D01*
X-500661Y-328026D01*
X-500661Y-335804D01*
G54D12*
X-500661Y-332470D02*
X-501994Y-330248D01*
X-504661Y-329803D01*
X-507328Y-330248D01*
X-508661Y-332470D01*
X-508128Y-334692D01*
X-505994Y-335803D01*
X-504661Y-335803D01*
X-504128Y-335803D01*
X-501994Y-334692D01*
X-500661Y-332470D01*
G54D10*
X-1575425Y-402254D02*
X-1550025Y-402254D01*
X-1550025Y-330654D01*
X-1575425Y-330654D01*
X-1575425Y-402254D01*
G54D13*
X-1544634Y-349598D02*
X-1544634Y-349598D01*
G54D10*
X-1506777Y-401370D02*
X-1534177Y-401370D01*
X-1534177Y-325170D01*
X-1506777Y-325170D01*
X-1506777Y-401370D01*
G54D10*
X-1534177Y-331470D02*
X-1506777Y-331470D01*
G54D14*
X-1524232Y-298253D02*
X-1524232Y-298253D01*
G54D10*
X-286375Y-414954D02*
X-260975Y-414954D01*
X-260975Y-343354D01*
X-286375Y-343354D01*
X-286375Y-414954D01*
G54D13*
X-255584Y-362298D02*
X-255584Y-362298D01*
G54D10*
X-306627Y-401370D02*
X-334027Y-401370D01*
X-334027Y-325170D01*
X-306627Y-325170D01*
X-306627Y-401370D01*
G54D10*
X-334027Y-331470D02*
X-306627Y-331470D01*
G54D14*
X-324082Y-361754D02*
X-324082Y-361754D01*
G54D10*
X-1213600Y-537300D02*
X-1243800Y-537300D01*
X-1243800Y-659700D01*
X-1213600Y-659700D01*
X-1213600Y-537300D01*
G54D10*
X-1220700Y-597100D02*
X-1236700Y-597100D01*
G54D10*
X-1220700Y-600300D02*
X-1236700Y-600300D01*
G54D10*
X-1228700Y-560600D02*
X-1228700Y-597100D01*
G54D10*
X-1228700Y-600300D02*
X-1228700Y-636800D01*
G54D11*
X-1190600Y-566750D02*
X-1190600Y-477850D01*
X-987400Y-477850D01*
X-987400Y-566750D01*
X-1190600Y-566750D01*
G54D10*
X-1027800Y-645350D02*
X-1027800Y-615150D01*
X-1150200Y-615150D01*
X-1150200Y-645350D01*
X-1027800Y-645350D01*
G54D10*
X-1087600Y-638250D02*
X-1087600Y-622250D01*
G54D10*
X-1090800Y-638250D02*
X-1090800Y-622250D01*
G54D10*
X-1051100Y-630250D02*
X-1087600Y-630250D01*
G54D10*
X-1090800Y-630250D02*
X-1127300Y-630250D01*
G54D11*
X-955650Y-465150D02*
X-866750Y-465150D01*
X-866750Y-668350D01*
X-955650Y-668350D01*
X-955650Y-465150D01*
G54D10*
X-723000Y-651700D02*
X-723000Y-621500D01*
X-845400Y-621500D01*
X-845400Y-651700D01*
X-723000Y-651700D01*
G54D10*
X-782800Y-644600D02*
X-782800Y-628600D01*
G54D10*
X-786000Y-644600D02*
X-786000Y-628600D01*
G54D10*
X-746300Y-636600D02*
X-782800Y-636600D01*
G54D10*
X-786000Y-636600D02*
X-822500Y-636600D01*
G54D11*
X-835000Y-566750D02*
X-835000Y-477850D01*
X-631800Y-477850D01*
X-631800Y-566750D01*
X-835000Y-566750D01*
G54D10*
X-584950Y-537300D02*
X-615150Y-537300D01*
X-615150Y-659700D01*
X-584950Y-659700D01*
X-584950Y-537300D01*
G54D10*
X-592050Y-597100D02*
X-608050Y-597100D01*
G54D10*
X-592050Y-600300D02*
X-608050Y-600300D01*
G54D10*
X-600050Y-560600D02*
X-600050Y-597100D01*
G54D10*
X-600050Y-600300D02*
X-600050Y-636800D01*
G54D11*
X-1487928Y-481331D02*
X-1291078Y-481331D01*
X-1291078Y-652781D01*
X-1487928Y-652781D01*
X-1487928Y-481331D01*
G54D12*
X-1336774Y-538702D02*
X-1336774Y-528702D01*
G54D12*
X-1336774Y-530924D02*
X-1335440Y-529368D01*
X-1332774Y-528702D01*
X-1330107Y-529368D01*
X-1328774Y-530924D01*
X-1328773Y-538702D01*
G54D12*
X-1317218Y-529368D02*
X-1319884Y-528702D01*
X-1322551Y-529368D01*
X-1323884Y-531590D01*
X-1323884Y-536035D01*
X-1322551Y-538258D01*
X-1319884Y-538702D01*
X-1317218Y-538257D01*
G54D12*
X-1334579Y-608196D02*
X-1334579Y-598196D01*
G54D12*
X-1334579Y-600418D02*
X-1333246Y-598863D01*
X-1330579Y-598196D01*
X-1327912Y-598863D01*
X-1326579Y-600418D01*
X-1326579Y-608196D01*
G54D12*
X-1321690Y-599307D02*
X-1319023Y-598196D01*
X-1315824Y-598196D01*
X-1313690Y-600418D01*
X-1313690Y-608196D01*
G54D12*
X-1313690Y-604863D02*
X-1315023Y-602640D01*
X-1317690Y-602196D01*
X-1320357Y-602640D01*
X-1321690Y-604862D01*
X-1321157Y-607085D01*
X-1319024Y-608196D01*
X-1317690Y-608196D01*
X-1317157Y-608196D01*
X-1315023Y-607085D01*
X-1313690Y-604863D01*
G54D11*
X-347312Y-655868D02*
X-544162Y-655868D01*
X-544162Y-484418D01*
X-347312Y-484418D01*
X-347312Y-655868D01*
G54D12*
X-517978Y-608479D02*
X-517978Y-598479D01*
G54D12*
X-517978Y-600701D02*
X-516645Y-599146D01*
X-513978Y-598479D01*
X-511312Y-599146D01*
X-509978Y-600701D01*
X-509978Y-608479D01*
G54D12*
X-498423Y-599146D02*
X-501089Y-598479D01*
X-503756Y-599146D01*
X-505089Y-601368D01*
X-505090Y-605812D01*
X-503756Y-608035D01*
X-501089Y-608479D01*
X-498423Y-608034D01*
G54D12*
X-521550Y-539003D02*
X-521550Y-529003D01*
G54D12*
X-521550Y-531226D02*
X-520217Y-529670D01*
X-517550Y-529003D01*
X-514883Y-529670D01*
X-513550Y-531226D01*
X-513550Y-539003D01*
G54D12*
X-508661Y-530114D02*
X-505994Y-529004D01*
X-502794Y-529003D01*
X-500661Y-531226D01*
X-500661Y-539004D01*
G54D12*
X-500661Y-535670D02*
X-501994Y-533448D01*
X-504661Y-533003D01*
X-507328Y-533448D01*
X-508661Y-535670D01*
X-508128Y-537892D01*
X-505994Y-539003D01*
X-504661Y-539003D01*
X-504128Y-539003D01*
X-501994Y-537892D01*
X-500661Y-535670D01*
G54D10*
X-1575425Y-605454D02*
X-1550025Y-605454D01*
X-1550025Y-533854D01*
X-1575425Y-533854D01*
X-1575425Y-605454D01*
G54D13*
X-1544634Y-552798D02*
X-1544634Y-552798D01*
G54D10*
X-1506777Y-604570D02*
X-1534177Y-604570D01*
X-1534177Y-528370D01*
X-1506777Y-528370D01*
X-1506777Y-604570D01*
G54D10*
X-1534177Y-534670D02*
X-1506777Y-534670D01*
G54D14*
X-1524232Y-501454D02*
X-1524232Y-501454D01*
G54D10*
X-286375Y-618154D02*
X-260975Y-618154D01*
X-260975Y-546554D01*
X-286375Y-546554D01*
X-286375Y-618154D01*
G54D13*
X-255584Y-565498D02*
X-255584Y-565498D01*
G54D10*
X-306627Y-604570D02*
X-334027Y-604570D01*
X-334027Y-528370D01*
X-306627Y-528370D01*
X-306627Y-604570D01*
G54D10*
X-334027Y-534670D02*
X-306627Y-534670D01*
G54D14*
X-324082Y-564954D02*
X-324082Y-564954D01*
G54D10*
X-1213600Y-740500D02*
X-1243800Y-740500D01*
X-1243800Y-862900D01*
X-1213600Y-862900D01*
X-1213600Y-740500D01*
G54D10*
X-1220700Y-800300D02*
X-1236700Y-800300D01*
G54D10*
X-1220700Y-803500D02*
X-1236700Y-803500D01*
G54D10*
X-1228700Y-763800D02*
X-1228700Y-800300D01*
G54D10*
X-1228700Y-803500D02*
X-1228700Y-840000D01*
G54D11*
X-1190600Y-769950D02*
X-1190600Y-681050D01*
X-987400Y-681050D01*
X-987400Y-769950D01*
X-1190600Y-769950D01*
G54D10*
X-1027800Y-848550D02*
X-1027800Y-818350D01*
X-1150200Y-818350D01*
X-1150200Y-848550D01*
X-1027800Y-848550D01*
G54D10*
X-1087600Y-841450D02*
X-1087600Y-825450D01*
G54D10*
X-1090800Y-841450D02*
X-1090800Y-825450D01*
G54D10*
X-1051100Y-833450D02*
X-1087600Y-833450D01*
G54D10*
X-1090800Y-833450D02*
X-1127300Y-833450D01*
G54D11*
X-955650Y-668350D02*
X-866750Y-668350D01*
X-866750Y-871550D01*
X-955650Y-871550D01*
X-955650Y-668350D01*
G54D10*
X-723000Y-854900D02*
X-723000Y-824700D01*
X-845400Y-824700D01*
X-845400Y-854900D01*
X-723000Y-854900D01*
G54D10*
X-782800Y-847800D02*
X-782800Y-831800D01*
G54D10*
X-786000Y-847800D02*
X-786000Y-831800D01*
G54D10*
X-746300Y-839800D02*
X-782800Y-839800D01*
G54D10*
X-786000Y-839800D02*
X-822500Y-839800D01*
G54D11*
X-835000Y-769950D02*
X-835000Y-681050D01*
X-631800Y-681050D01*
X-631800Y-769950D01*
X-835000Y-769950D01*
G54D10*
X-584950Y-740500D02*
X-615150Y-740500D01*
X-615150Y-862900D01*
X-584950Y-862900D01*
X-584950Y-740500D01*
G54D10*
X-592050Y-800300D02*
X-608050Y-800300D01*
G54D10*
X-592050Y-803500D02*
X-608050Y-803500D01*
G54D10*
X-600050Y-763800D02*
X-600050Y-800300D01*
G54D10*
X-600050Y-803500D02*
X-600050Y-840000D01*
G54D11*
X-1487928Y-684531D02*
X-1291078Y-684531D01*
X-1291078Y-855981D01*
X-1487928Y-855981D01*
X-1487928Y-684531D01*
G54D12*
X-1336774Y-741902D02*
X-1336774Y-731902D01*
G54D12*
X-1336774Y-734124D02*
X-1335440Y-732568D01*
X-1332774Y-731902D01*
X-1330107Y-732568D01*
X-1328774Y-734124D01*
X-1328773Y-741902D01*
G54D12*
X-1317218Y-732568D02*
X-1319884Y-731902D01*
X-1322551Y-732568D01*
X-1323884Y-734790D01*
X-1323884Y-739235D01*
X-1322551Y-741458D01*
X-1319884Y-741902D01*
X-1317218Y-741457D01*
G54D12*
X-1334579Y-811396D02*
X-1334579Y-801396D01*
G54D12*
X-1334579Y-803618D02*
X-1333246Y-802063D01*
X-1330579Y-801396D01*
X-1327912Y-802063D01*
X-1326579Y-803618D01*
X-1326579Y-811396D01*
G54D12*
X-1321690Y-802507D02*
X-1319023Y-801396D01*
X-1315824Y-801396D01*
X-1313690Y-803618D01*
X-1313690Y-811396D01*
G54D12*
X-1313690Y-808063D02*
X-1315023Y-805840D01*
X-1317690Y-805396D01*
X-1320357Y-805840D01*
X-1321690Y-808062D01*
X-1321157Y-810285D01*
X-1319024Y-811396D01*
X-1317690Y-811396D01*
X-1317157Y-811396D01*
X-1315023Y-810285D01*
X-1313690Y-808063D01*
G54D11*
X-347312Y-859068D02*
X-544162Y-859068D01*
X-544162Y-687618D01*
X-347312Y-687618D01*
X-347312Y-859068D01*
G54D12*
X-517978Y-811679D02*
X-517978Y-801679D01*
G54D12*
X-517978Y-803901D02*
X-516645Y-802346D01*
X-513978Y-801679D01*
X-511312Y-802346D01*
X-509978Y-803901D01*
X-509978Y-811679D01*
G54D12*
X-498423Y-802346D02*
X-501089Y-801679D01*
X-503756Y-802346D01*
X-505089Y-804568D01*
X-505090Y-809012D01*
X-503756Y-811235D01*
X-501089Y-811679D01*
X-498423Y-811234D01*
G54D12*
X-521550Y-742203D02*
X-521550Y-732203D01*
G54D12*
X-521550Y-734426D02*
X-520217Y-732870D01*
X-517550Y-732203D01*
X-514883Y-732870D01*
X-513550Y-734426D01*
X-513550Y-742203D01*
G54D12*
X-508661Y-733314D02*
X-505994Y-732204D01*
X-502794Y-732203D01*
X-500661Y-734426D01*
X-500661Y-742204D01*
G54D12*
X-500661Y-738870D02*
X-501994Y-736648D01*
X-504661Y-736203D01*
X-507328Y-736648D01*
X-508661Y-738870D01*
X-508128Y-741092D01*
X-505994Y-742203D01*
X-504661Y-742203D01*
X-504128Y-742203D01*
X-501994Y-741092D01*
X-500661Y-738870D01*
G54D10*
X-1575425Y-808654D02*
X-1550025Y-808654D01*
X-1550025Y-737054D01*
X-1575425Y-737054D01*
X-1575425Y-808654D01*
G54D13*
X-1544634Y-755998D02*
X-1544634Y-755998D01*
G54D10*
X-1506777Y-807770D02*
X-1534177Y-807770D01*
X-1534177Y-731570D01*
X-1506777Y-731570D01*
X-1506777Y-807770D01*
G54D10*
X-1534177Y-737870D02*
X-1506777Y-737870D01*
G54D14*
X-1524232Y-704654D02*
X-1524232Y-704654D01*
G54D10*
X-286375Y-821354D02*
X-260975Y-821354D01*
X-260975Y-749754D01*
X-286375Y-749754D01*
X-286375Y-821354D01*
G54D13*
X-255584Y-768698D02*
X-255584Y-768698D01*
G54D10*
X-306627Y-807770D02*
X-334027Y-807770D01*
X-334027Y-731570D01*
X-306627Y-731570D01*
X-306627Y-807770D01*
G54D10*
X-334027Y-737870D02*
X-306627Y-737870D01*
G54D14*
X-324082Y-768154D02*
X-324082Y-768154D01*
G54D10*
X-1213600Y-943700D02*
X-1243800Y-943700D01*
X-1243800Y-1066100D01*
X-1213600Y-1066100D01*
X-1213600Y-943700D01*
G54D10*
X-1220700Y-1003500D02*
X-1236700Y-1003500D01*
G54D10*
X-1220700Y-1006700D02*
X-1236700Y-1006700D01*
G54D10*
X-1228700Y-967000D02*
X-1228700Y-1003500D01*
G54D10*
X-1228700Y-1006700D02*
X-1228700Y-1043200D01*
G54D11*
X-1190600Y-973150D02*
X-1190600Y-884250D01*
X-987400Y-884250D01*
X-987400Y-973150D01*
X-1190600Y-973150D01*
G54D10*
X-1027800Y-1051750D02*
X-1027800Y-1021550D01*
X-1150200Y-1021550D01*
X-1150200Y-1051750D01*
X-1027800Y-1051750D01*
G54D10*
X-1087600Y-1044650D02*
X-1087600Y-1028650D01*
G54D10*
X-1090800Y-1044650D02*
X-1090800Y-1028650D01*
G54D10*
X-1051100Y-1036650D02*
X-1087600Y-1036650D01*
G54D10*
X-1090800Y-1036650D02*
X-1127300Y-1036650D01*
G54D11*
X-955650Y-871550D02*
X-866750Y-871550D01*
X-866750Y-1074750D01*
X-955650Y-1074750D01*
X-955650Y-871550D01*
G54D10*
X-723000Y-1058100D02*
X-723000Y-1027900D01*
X-845400Y-1027900D01*
X-845400Y-1058100D01*
X-723000Y-1058100D01*
G54D10*
X-782800Y-1051000D02*
X-782800Y-1035000D01*
G54D10*
X-786000Y-1051000D02*
X-786000Y-1035000D01*
G54D10*
X-746300Y-1043000D02*
X-782800Y-1043000D01*
G54D10*
X-786000Y-1043000D02*
X-822500Y-1043000D01*
G54D11*
X-835000Y-973150D02*
X-835000Y-884250D01*
X-631800Y-884250D01*
X-631800Y-973150D01*
X-835000Y-973150D01*
G54D10*
X-584950Y-943700D02*
X-615150Y-943700D01*
X-615150Y-1066100D01*
X-584950Y-1066100D01*
X-584950Y-943700D01*
G54D10*
X-592050Y-1003500D02*
X-608050Y-1003500D01*
G54D10*
X-592050Y-1006700D02*
X-608050Y-1006700D01*
G54D10*
X-600050Y-967000D02*
X-600050Y-1003500D01*
G54D10*
X-600050Y-1006700D02*
X-600050Y-1043200D01*
G54D11*
X-1487928Y-887731D02*
X-1291078Y-887731D01*
X-1291078Y-1059181D01*
X-1487928Y-1059181D01*
X-1487928Y-887731D01*
G54D12*
X-1336774Y-945102D02*
X-1336774Y-935102D01*
G54D12*
X-1336774Y-937324D02*
X-1335440Y-935768D01*
X-1332774Y-935102D01*
X-1330107Y-935768D01*
X-1328774Y-937324D01*
X-1328773Y-945102D01*
G54D12*
X-1317218Y-935768D02*
X-1319884Y-935102D01*
X-1322551Y-935768D01*
X-1323884Y-937990D01*
X-1323884Y-942435D01*
X-1322551Y-944658D01*
X-1319884Y-945102D01*
X-1317218Y-944657D01*
G54D12*
X-1334579Y-1014596D02*
X-1334579Y-1004596D01*
G54D12*
X-1334579Y-1006818D02*
X-1333246Y-1005263D01*
X-1330579Y-1004596D01*
X-1327912Y-1005263D01*
X-1326579Y-1006818D01*
X-1326579Y-1014596D01*
G54D12*
X-1321690Y-1005707D02*
X-1319023Y-1004596D01*
X-1315824Y-1004596D01*
X-1313690Y-1006818D01*
X-1313690Y-1014596D01*
G54D12*
X-1313690Y-1011263D02*
X-1315023Y-1009040D01*
X-1317690Y-1008596D01*
X-1320357Y-1009040D01*
X-1321690Y-1011262D01*
X-1321157Y-1013485D01*
X-1319024Y-1014596D01*
X-1317690Y-1014596D01*
X-1317157Y-1014596D01*
X-1315023Y-1013485D01*
X-1313690Y-1011263D01*
G54D11*
X-347312Y-1062268D02*
X-544162Y-1062268D01*
X-544162Y-890818D01*
X-347312Y-890818D01*
X-347312Y-1062268D01*
G54D12*
X-517978Y-1014879D02*
X-517978Y-1004879D01*
G54D12*
X-517978Y-1007101D02*
X-516645Y-1005546D01*
X-513978Y-1004879D01*
X-511312Y-1005546D01*
X-509978Y-1007101D01*
X-509978Y-1014879D01*
G54D12*
X-498423Y-1005546D02*
X-501089Y-1004879D01*
X-503756Y-1005546D01*
X-505089Y-1007768D01*
X-505090Y-1012212D01*
X-503756Y-1014435D01*
X-501089Y-1014879D01*
X-498423Y-1014434D01*
G54D12*
X-521550Y-945403D02*
X-521550Y-935403D01*
G54D12*
X-521550Y-937626D02*
X-520217Y-936070D01*
X-517550Y-935403D01*
X-514883Y-936070D01*
X-513550Y-937626D01*
X-513550Y-945403D01*
G54D12*
X-508661Y-936514D02*
X-505994Y-935404D01*
X-502794Y-935403D01*
X-500661Y-937626D01*
X-500661Y-945404D01*
G54D12*
X-500661Y-942070D02*
X-501994Y-939848D01*
X-504661Y-939403D01*
X-507328Y-939848D01*
X-508661Y-942070D01*
X-508128Y-944292D01*
X-505994Y-945403D01*
X-504661Y-945403D01*
X-504128Y-945403D01*
X-501994Y-944292D01*
X-500661Y-942070D01*
G54D10*
X-1575425Y-1011854D02*
X-1550025Y-1011854D01*
X-1550025Y-940254D01*
X-1575425Y-940254D01*
X-1575425Y-1011854D01*
G54D13*
X-1544634Y-959198D02*
X-1544634Y-959198D01*
G54D10*
X-1506777Y-1010970D02*
X-1534177Y-1010970D01*
X-1534177Y-934770D01*
X-1506777Y-934770D01*
X-1506777Y-1010970D01*
G54D10*
X-1534177Y-941070D02*
X-1506777Y-941070D01*
G54D14*
X-1524232Y-907854D02*
X-1524232Y-907854D01*
G54D10*
X-286375Y-1024554D02*
X-260975Y-1024554D01*
X-260975Y-952954D01*
X-286375Y-952954D01*
X-286375Y-1024554D01*
G54D13*
X-255584Y-971898D02*
X-255584Y-971898D01*
G54D10*
X-306627Y-1010970D02*
X-334027Y-1010970D01*
X-334027Y-934770D01*
X-306627Y-934770D01*
X-306627Y-1010970D01*
G54D10*
X-334027Y-941070D02*
X-306627Y-941070D01*
G54D14*
X-324082Y-971354D02*
X-324082Y-971354D01*
G54D10*
X-1704975Y-339762D02*
X-1603375Y-339762D01*
X-1603375Y-441362D01*
X-1704975Y-441362D01*
X-1704975Y-339762D01*
G54D15*
X-1705725Y-313012D02*
X-1705725Y-313012D01*
G54D15*
X-1705725Y-332512D02*
X-1705725Y-332512D01*
G54D12*
X-928662Y72886D02*
X-921996Y79553D01*
X-921996Y61775D01*
G54D12*
X-906440Y76220D02*
X-907773Y78442D01*
X-910440Y79553D01*
X-913106Y79553D01*
X-915773Y78442D01*
X-917106Y76220D01*
X-917106Y70664D01*
X-917106Y69553D01*
X-913106Y71775D01*
X-910440Y71775D01*
X-907773Y70664D01*
X-906440Y68442D01*
X-906440Y65108D01*
X-907773Y62886D01*
X-910440Y61775D01*
X-913106Y61775D01*
X-915773Y62886D01*
X-917106Y65108D01*
X-917106Y70664D01*
G54D12*
X-890884Y76220D02*
X-890884Y65108D01*
X-892217Y62886D01*
X-894884Y61775D01*
X-897550Y61775D01*
X-900217Y62886D01*
X-901550Y65108D01*
X-901550Y76220D01*
X-900217Y78442D01*
X-897550Y79553D01*
X-894884Y79553D01*
X-892217Y78442D01*
X-890884Y76220D01*
G54D12*
X-918821Y-107136D02*
X-921488Y-107136D01*
X-924154Y-106025D01*
X-925488Y-103803D01*
X-925488Y-101580D01*
X-924154Y-99358D01*
X-921488Y-98247D01*
X-918821Y-98247D01*
X-916154Y-99358D01*
X-914821Y-101580D01*
X-914821Y-103803D01*
X-916154Y-106025D01*
X-918821Y-107136D01*
X-916154Y-108247D01*
X-914821Y-110470D01*
X-914821Y-112692D01*
X-916154Y-114914D01*
X-918821Y-116025D01*
X-921488Y-116025D01*
X-924154Y-114914D01*
X-925488Y-112692D01*
X-925488Y-110470D01*
X-924154Y-108247D01*
X-921488Y-107136D01*
G54D12*
X-899265Y-101580D02*
X-899265Y-112692D01*
X-900598Y-114914D01*
X-903265Y-116025D01*
X-905932Y-116025D01*
X-908598Y-114914D01*
X-909932Y-112692D01*
X-909932Y-101580D01*
X-908598Y-99358D01*
X-905932Y-98247D01*
X-903265Y-98247D01*
X-900598Y-99358D01*
X-899265Y-101580D01*
G54D12*
X-917488Y-306525D02*
X-917488Y-288747D01*
X-925488Y-299858D01*
X-925488Y-302080D01*
X-914821Y-302080D01*
G54D12*
X-899265Y-292080D02*
X-899265Y-303192D01*
X-900598Y-305414D01*
X-903265Y-306525D01*
X-905932Y-306525D01*
X-908598Y-305414D01*
X-909932Y-303192D01*
X-909932Y-292080D01*
X-908598Y-289858D01*
X-905932Y-288747D01*
X-903265Y-288747D01*
X-900598Y-289858D01*
X-899265Y-292080D01*
G54D12*
X-920725Y-507980D02*
X-919392Y-505758D01*
X-916725Y-504647D01*
X-914058Y-504647D01*
X-911392Y-505758D01*
X-910058Y-507980D01*
X-910058Y-510203D01*
X-911392Y-512425D01*
X-914058Y-513536D01*
X-911392Y-514647D01*
X-910058Y-516870D01*
X-910058Y-519092D01*
X-911392Y-521314D01*
X-914058Y-522425D01*
X-916725Y-522425D01*
X-919392Y-521314D01*
X-920725Y-519092D01*
G54D12*
X-894502Y-507980D02*
X-894502Y-519092D01*
X-895836Y-521314D01*
X-898502Y-522425D01*
X-901169Y-522425D01*
X-903836Y-521314D01*
X-905169Y-519092D01*
X-905169Y-507980D01*
X-903836Y-505758D01*
X-901169Y-504647D01*
X-898502Y-504647D01*
X-895836Y-505758D01*
X-894502Y-507980D01*
G54D12*
X-932283Y-719275D02*
X-942950Y-719275D01*
X-942950Y-718164D01*
X-941617Y-715942D01*
X-933617Y-709275D01*
X-932283Y-707053D01*
X-932283Y-704830D01*
X-933617Y-702608D01*
X-936283Y-701497D01*
X-938950Y-701497D01*
X-941617Y-702608D01*
X-942950Y-704830D01*
G54D12*
X-916727Y-704830D02*
X-916727Y-715942D01*
X-918061Y-718164D01*
X-920727Y-719275D01*
X-923394Y-719275D01*
X-926061Y-718164D01*
X-927394Y-715942D01*
X-927394Y-704830D01*
X-926061Y-702608D01*
X-923394Y-701497D01*
X-920727Y-701497D01*
X-918061Y-702608D01*
X-916727Y-704830D01*
G54D12*
X-911838Y-711497D02*
X-901171Y-711497D01*
G54D12*
X-896282Y-708164D02*
X-889615Y-701497D01*
X-889615Y-719275D01*
G54D12*
X-884726Y-701497D02*
X-874059Y-701497D01*
X-875393Y-703720D01*
X-878059Y-707053D01*
X-880726Y-711497D01*
X-882059Y-714830D01*
X-882059Y-719275D01*
G54D12*
X-941362Y-911364D02*
X-934696Y-904697D01*
X-934696Y-922475D01*
G54D12*
X-919140Y-904697D02*
X-929806Y-904697D01*
X-929806Y-912475D01*
X-928473Y-912475D01*
X-925806Y-911364D01*
X-923140Y-911364D01*
X-920473Y-912475D01*
X-919140Y-914697D01*
X-919140Y-919142D01*
X-920473Y-921364D01*
X-923140Y-922475D01*
X-925806Y-922475D01*
X-928473Y-921364D01*
X-929806Y-919142D01*
G54D12*
X-914250Y-914697D02*
X-903584Y-914697D01*
G54D12*
X-898694Y-911364D02*
X-892028Y-904697D01*
X-892028Y-922475D01*
G54D12*
X-876472Y-908030D02*
X-876472Y-919142D01*
X-877805Y-921364D01*
X-880472Y-922475D01*
X-883138Y-922475D01*
X-885805Y-921364D01*
X-887138Y-919142D01*
X-887138Y-908030D01*
X-885805Y-905808D01*
X-883138Y-904697D01*
X-880472Y-904697D01*
X-877805Y-905808D01*
X-876472Y-908030D01*
G54D12*
X-1404595Y285611D02*
X-1397928Y292278D01*
X-1397928Y274500D01*
G54D12*
X-1382372Y288944D02*
X-1383706Y291167D01*
X-1386372Y292278D01*
X-1389039Y292278D01*
X-1391706Y291167D01*
X-1393039Y288944D01*
X-1393039Y283389D01*
X-1393039Y282278D01*
X-1389039Y284500D01*
X-1386372Y284500D01*
X-1383706Y283389D01*
X-1382372Y281167D01*
X-1382372Y277833D01*
X-1383706Y275611D01*
X-1386372Y274500D01*
X-1389039Y274500D01*
X-1391706Y275611D01*
X-1393039Y277833D01*
X-1393039Y283389D01*
G54D12*
X-1366816Y288944D02*
X-1366816Y277833D01*
X-1368150Y275611D01*
X-1370816Y274500D01*
X-1373483Y274500D01*
X-1376150Y275611D01*
X-1377483Y277833D01*
X-1377483Y288944D01*
X-1376150Y291167D01*
X-1373483Y292278D01*
X-1370816Y292278D01*
X-1368150Y291167D01*
X-1366816Y288944D01*
G54D12*
X-1223621Y289739D02*
X-1226288Y289739D01*
X-1228954Y290850D01*
X-1230288Y293072D01*
X-1230288Y295294D01*
X-1228954Y297517D01*
X-1226288Y298628D01*
X-1223621Y298628D01*
X-1220954Y297517D01*
X-1219621Y295294D01*
X-1219621Y293072D01*
X-1220954Y290850D01*
X-1223621Y289739D01*
X-1220954Y288628D01*
X-1219621Y286406D01*
X-1219621Y284183D01*
X-1220954Y281961D01*
X-1223621Y280850D01*
X-1226288Y280850D01*
X-1228954Y281961D01*
X-1230288Y284183D01*
X-1230288Y286406D01*
X-1228954Y288628D01*
X-1226288Y289739D01*
G54D12*
X-1204065Y295294D02*
X-1204065Y284183D01*
X-1205398Y281961D01*
X-1208065Y280850D01*
X-1210732Y280850D01*
X-1213398Y281961D01*
X-1214732Y284183D01*
X-1214732Y295294D01*
X-1213398Y297517D01*
X-1210732Y298628D01*
X-1208065Y298628D01*
X-1205398Y297517D01*
X-1204065Y295294D01*
G54D12*
X-1023850Y277675D02*
X-1023850Y295453D01*
X-1031850Y284342D01*
X-1031850Y282120D01*
X-1021183Y282120D01*
G54D12*
X-1005627Y292120D02*
X-1005627Y281008D01*
X-1006961Y278786D01*
X-1009627Y277675D01*
X-1012294Y277675D01*
X-1014961Y278786D01*
X-1016294Y281008D01*
X-1016294Y292120D01*
X-1014961Y294342D01*
X-1012294Y295453D01*
X-1009627Y295453D01*
X-1006961Y294342D01*
X-1005627Y292120D01*
G54D12*
X-825475Y288944D02*
X-824142Y291167D01*
X-821475Y292278D01*
X-818808Y292278D01*
X-816142Y291167D01*
X-814808Y288944D01*
X-814808Y286722D01*
X-816142Y284500D01*
X-818808Y283389D01*
X-816142Y282278D01*
X-814808Y280056D01*
X-814808Y277833D01*
X-816142Y275611D01*
X-818808Y274500D01*
X-821475Y274500D01*
X-824142Y275611D01*
X-825475Y277833D01*
G54D12*
X-799252Y288944D02*
X-799252Y277833D01*
X-800586Y275611D01*
X-803252Y274500D01*
X-805919Y274500D01*
X-808586Y275611D01*
X-809919Y277833D01*
X-809919Y288944D01*
X-808586Y291167D01*
X-805919Y292278D01*
X-803252Y292278D01*
X-800586Y291167D01*
X-799252Y288944D01*
G54D12*
X-663996Y271325D02*
X-674662Y271325D01*
X-674662Y272436D01*
X-673329Y274658D01*
X-665329Y281325D01*
X-663996Y283547D01*
X-663996Y285770D01*
X-665329Y287992D01*
X-667996Y289103D01*
X-670662Y289103D01*
X-673329Y287992D01*
X-674662Y285770D01*
G54D12*
X-648440Y285770D02*
X-648440Y274658D01*
X-649773Y272436D01*
X-652440Y271325D01*
X-655106Y271325D01*
X-657773Y272436D01*
X-659106Y274658D01*
X-659106Y285770D01*
X-657773Y287992D01*
X-655106Y289103D01*
X-652440Y289103D01*
X-649773Y287992D01*
X-648440Y285770D01*
G54D12*
X-643550Y279103D02*
X-632884Y279103D01*
G54D12*
X-627994Y282436D02*
X-621328Y289103D01*
X-621328Y271325D01*
G54D12*
X-616438Y289103D02*
X-605772Y289103D01*
X-607105Y286880D01*
X-609772Y283547D01*
X-612438Y279103D01*
X-613772Y275770D01*
X-613772Y271325D01*
G54D12*
X-476225Y291961D02*
X-469558Y298628D01*
X-469558Y280850D01*
G54D12*
X-454002Y298628D02*
X-464669Y298628D01*
X-464669Y290850D01*
X-463336Y290850D01*
X-460669Y291961D01*
X-458002Y291961D01*
X-455336Y290850D01*
X-454002Y288628D01*
X-454002Y284183D01*
X-455336Y281961D01*
X-458002Y280850D01*
X-460669Y280850D01*
X-463336Y281961D01*
X-464669Y284183D01*
G54D12*
X-449113Y288628D02*
X-438446Y288628D01*
G54D12*
X-433557Y291961D02*
X-426890Y298628D01*
X-426890Y280850D01*
G54D12*
X-411334Y295294D02*
X-411334Y284183D01*
X-412668Y281961D01*
X-415334Y280850D01*
X-418001Y280850D01*
X-420668Y281961D01*
X-422001Y284183D01*
X-422001Y295294D01*
X-420668Y297517D01*
X-418001Y298628D01*
X-415334Y298628D01*
X-412668Y297517D01*
X-411334Y295294D01*
G54D16*
X-1025375Y393292D02*
X-1027375Y396625D01*
X-1031375Y398292D01*
X-1035375Y398292D01*
X-1039375Y396625D01*
X-1041375Y393292D01*
X-1041375Y384958D01*
X-1041375Y383292D01*
X-1035375Y386625D01*
X-1031375Y386625D01*
X-1027375Y384958D01*
X-1025375Y381625D01*
X-1025375Y376625D01*
X-1027375Y373292D01*
X-1031375Y371625D01*
X-1035375Y371625D01*
X-1039375Y373292D01*
X-1041375Y376625D01*
X-1041375Y384958D01*
G54D16*
X-1010309Y371625D02*
X-1010309Y398292D01*
X-1000309Y398292D01*
X-996309Y396625D01*
X-994309Y393292D01*
X-994309Y389958D01*
X-996309Y386625D01*
X-1000309Y384958D01*
X-996309Y383292D01*
X-994309Y379958D01*
X-994309Y376625D01*
X-996309Y373292D01*
X-1000309Y371625D01*
X-1010309Y371625D01*
G54D16*
X-1010309Y384958D02*
X-1000309Y384958D01*
G54D16*
X-986976Y371625D02*
X-976976Y398292D01*
X-966976Y371625D01*
G54D16*
X-982976Y381625D02*
X-970976Y381625D01*
G54D16*
X-959643Y371625D02*
X-959643Y398292D01*
X-943643Y371625D01*
X-943643Y398292D01*
G54D16*
X-936310Y371625D02*
X-936310Y398292D01*
X-926310Y398292D01*
X-922310Y396625D01*
X-920310Y393292D01*
X-920310Y376625D01*
X-922310Y373292D01*
X-926310Y371625D01*
X-936310Y371625D01*
G54D16*
X-912977Y376625D02*
X-910977Y373292D01*
X-906977Y371625D01*
X-902977Y371625D01*
X-898977Y373292D01*
X-896977Y376625D01*
X-896977Y379958D01*
X-898977Y383292D01*
X-902977Y384958D01*
X-906977Y384958D01*
X-910977Y386625D01*
X-912977Y389958D01*
X-912977Y393292D01*
X-910977Y396625D01*
X-906977Y398292D01*
X-902977Y398292D01*
X-898977Y396625D01*
X-896977Y393292D01*
G54D16*
X-874178Y398292D02*
X-874178Y371625D01*
X-860178Y371625D01*
G54D16*
X-852845Y371625D02*
X-852845Y398292D01*
X-842845Y398292D01*
X-838845Y396625D01*
X-836845Y393292D01*
X-836845Y389958D01*
X-838845Y386625D01*
X-842845Y384958D01*
X-852845Y384958D01*
G54D16*
X-829512Y371625D02*
X-829512Y398292D01*
X-815512Y398292D01*
G54D16*
X-829512Y384958D02*
X-815512Y384958D01*
G54D16*
X-800446Y383292D02*
X-784446Y383292D01*
G54D16*
X-792446Y389958D02*
X-792446Y376625D01*
G54D16*
X-769380Y371625D02*
X-759380Y398292D01*
X-749380Y371625D01*
G54D16*
X-765380Y381625D02*
X-753380Y381625D01*
G54D16*
X-734047Y371625D02*
X-734047Y398292D01*
G54D16*
X-742047Y398292D02*
X-726047Y398292D01*
G54D16*
X-710714Y371625D02*
X-710714Y398292D01*
G54D16*
X-718714Y398292D02*
X-702714Y398292D01*
G54D16*
X-695381Y371625D02*
X-695381Y398292D01*
X-679381Y371625D01*
X-679381Y398292D01*
G54D12*
X-1675640Y-310523D02*
X-1675640Y-292745D01*
G54D12*
X-1670751Y-310523D02*
X-1670751Y-292745D01*
X-1660084Y-310523D01*
X-1660084Y-292745D01*
G54D12*
X-219973Y-376078D02*
X-219973Y-387190D01*
X-221307Y-389412D01*
X-223973Y-390523D01*
X-226640Y-390523D01*
X-229307Y-389412D01*
X-230640Y-387190D01*
X-230640Y-376078D01*
X-229307Y-373856D01*
X-226640Y-372745D01*
X-223973Y-372745D01*
X-221307Y-373856D01*
X-219973Y-376078D01*
G54D12*
X-215084Y-372745D02*
X-215084Y-387190D01*
X-213751Y-389412D01*
X-211084Y-390523D01*
X-208417Y-390523D01*
X-205751Y-389412D01*
X-204417Y-387190D01*
X-204417Y-372745D01*
G54D12*
X-194195Y-390523D02*
X-194195Y-372745D01*
G54D12*
X-199528Y-372745D02*
X-188861Y-372745D01*
G54D17*
X-149200Y177950D02*
X-143200Y183950D01*
X-143200Y167950D01*
G54D17*
X-129200Y180950D02*
X-130400Y182950D01*
X-132800Y183950D01*
X-135200Y183950D01*
X-137600Y182950D01*
X-138800Y180950D01*
X-138800Y175950D01*
X-138800Y174950D01*
X-135200Y176950D01*
X-132800Y176950D01*
X-130400Y175950D01*
X-129200Y173950D01*
X-129200Y170950D01*
X-130400Y168950D01*
X-132800Y167950D01*
X-135200Y167950D01*
X-137600Y168950D01*
X-138800Y170950D01*
X-138800Y175950D01*
G54D17*
X-115200Y180950D02*
X-115200Y170950D01*
X-116400Y168950D01*
X-118800Y167950D01*
X-121200Y167950D01*
X-123600Y168950D01*
X-124800Y170950D01*
X-124800Y180950D01*
X-123600Y182950D01*
X-121200Y183950D01*
X-118800Y183950D01*
X-116400Y182950D01*
X-115200Y180950D01*
G54D11*
X-180950Y198750D02*
X-79350Y198750D01*
G54D17*
X-133200Y-4050D02*
X-135600Y-4050D01*
X-138000Y-3050D01*
X-139200Y-1050D01*
X-139200Y950D01*
X-138000Y2950D01*
X-135600Y3950D01*
X-133200Y3950D01*
X-130800Y2950D01*
X-129600Y950D01*
X-129600Y-1050D01*
X-130800Y-3050D01*
X-133200Y-4050D01*
X-130800Y-5050D01*
X-129600Y-7050D01*
X-129600Y-9050D01*
X-130800Y-11050D01*
X-133200Y-12050D01*
X-135600Y-12050D01*
X-138000Y-11050D01*
X-139200Y-9050D01*
X-139200Y-7050D01*
X-138000Y-5050D01*
X-135600Y-4050D01*
G54D17*
X-115600Y950D02*
X-115600Y-9050D01*
X-116800Y-11050D01*
X-119200Y-12050D01*
X-121600Y-12050D01*
X-124000Y-11050D01*
X-125200Y-9050D01*
X-125200Y950D01*
X-124000Y2950D01*
X-121600Y3950D01*
X-119200Y3950D01*
X-116800Y2950D01*
X-115600Y950D01*
G54D11*
X-180950Y18750D02*
X-79350Y18750D01*
G54D17*
X-132000Y-202050D02*
X-132000Y-186050D01*
X-139200Y-196050D01*
X-139200Y-198050D01*
X-129600Y-198050D01*
G54D17*
X-115600Y-189050D02*
X-115600Y-199050D01*
X-116800Y-201050D01*
X-119200Y-202050D01*
X-121600Y-202050D01*
X-124000Y-201050D01*
X-125200Y-199050D01*
X-125200Y-189050D01*
X-124000Y-187050D01*
X-121600Y-186050D01*
X-119200Y-186050D01*
X-116800Y-187050D01*
X-115600Y-189050D01*
G54D11*
X-180950Y-181250D02*
X-79350Y-181250D01*
G54D17*
X-144200Y-549050D02*
X-143000Y-547050D01*
X-140600Y-546050D01*
X-138200Y-546050D01*
X-135800Y-547050D01*
X-134600Y-549050D01*
X-134600Y-551050D01*
X-135800Y-553050D01*
X-138200Y-554050D01*
X-135800Y-555050D01*
X-134600Y-557050D01*
X-134600Y-559050D01*
X-135800Y-561050D01*
X-138200Y-562050D01*
X-140600Y-562050D01*
X-143000Y-561050D01*
X-144200Y-559050D01*
G54D17*
X-120600Y-549050D02*
X-120600Y-559050D01*
X-121800Y-561050D01*
X-124200Y-562050D01*
X-126600Y-562050D01*
X-129000Y-561050D01*
X-130200Y-559050D01*
X-130200Y-549050D01*
X-129000Y-547050D01*
X-126600Y-546050D01*
X-124200Y-546050D01*
X-121800Y-547050D01*
X-120600Y-549050D01*
G54D11*
X-185950Y-531250D02*
X-84350Y-531250D01*
G54D17*
X-154600Y-747050D02*
X-164200Y-747050D01*
X-164200Y-746050D01*
X-163000Y-744050D01*
X-155800Y-738050D01*
X-154600Y-736050D01*
X-154600Y-734050D01*
X-155800Y-732050D01*
X-158200Y-731050D01*
X-160600Y-731050D01*
X-163000Y-732050D01*
X-164200Y-734050D01*
G54D17*
X-140600Y-734050D02*
X-140600Y-744050D01*
X-141800Y-746050D01*
X-144200Y-747050D01*
X-146600Y-747050D01*
X-149000Y-746050D01*
X-150200Y-744050D01*
X-150200Y-734050D01*
X-149000Y-732050D01*
X-146600Y-731050D01*
X-144200Y-731050D01*
X-141800Y-732050D01*
X-140600Y-734050D01*
G54D17*
X-136200Y-740050D02*
X-126600Y-740050D01*
G54D17*
X-122200Y-737050D02*
X-116200Y-731050D01*
X-116200Y-747050D01*
G54D17*
X-111800Y-731050D02*
X-102200Y-731050D01*
X-103400Y-733050D01*
X-105800Y-736050D01*
X-108200Y-740050D01*
X-109400Y-743050D01*
X-109400Y-747050D01*
G54D11*
X-185950Y-726250D02*
X-84350Y-726250D01*
G54D17*
X-154200Y-947050D02*
X-148200Y-941050D01*
X-148200Y-957050D01*
G54D17*
X-134200Y-941050D02*
X-143800Y-941050D01*
X-143800Y-948050D01*
X-142600Y-948050D01*
X-140200Y-947050D01*
X-137800Y-947050D01*
X-135400Y-948050D01*
X-134200Y-950050D01*
X-134200Y-954050D01*
X-135400Y-956050D01*
X-137800Y-957050D01*
X-140200Y-957050D01*
X-142600Y-956050D01*
X-143800Y-954050D01*
G54D17*
X-129800Y-950050D02*
X-120200Y-950050D01*
G54D17*
X-115800Y-947050D02*
X-109800Y-941050D01*
X-109800Y-957050D01*
G54D17*
X-95800Y-944050D02*
X-95800Y-954050D01*
X-97000Y-956050D01*
X-99400Y-957050D01*
X-101800Y-957050D01*
X-104200Y-956050D01*
X-105400Y-954050D01*
X-105400Y-944050D01*
X-104200Y-942050D01*
X-101800Y-941050D01*
X-99400Y-941050D01*
X-97000Y-942050D01*
X-95800Y-944050D01*
G54D11*
X-185950Y-926250D02*
X-84350Y-926250D01*
G54D10*
X-194975Y-359762D02*
X-93375Y-359762D01*
X-93375Y-461362D01*
X-194975Y-461362D01*
X-194975Y-359762D01*
G54D15*
X-195725Y-333012D02*
X-195725Y-333012D01*
G54D15*
X-195725Y-352512D02*
X-195725Y-352512D01*
G54D12*
X-235640Y-340523D02*
X-235640Y-322745D01*
G54D12*
X-230751Y-340523D02*
X-230751Y-322745D01*
X-220084Y-340523D01*
X-220084Y-322745D01*
M02*
