%FSLAX34Y34*%
%MOMM*%
%LNSOLDERMASK_BOTTOM*%
G71*
G01*
%ADD10C,2.800*%
%ADD11C,2.600*%
%ADD12C,2.500*%
%ADD13C,2.600*%
%ADD14C,4.600*%
%LPD*%
X-318360Y-40410D02*
G54D10*
D03*
X-242160Y-40410D02*
G54D10*
D03*
X-318360Y-116610D02*
G54D10*
D03*
X-318360Y-167410D02*
G54D10*
D03*
X-318360Y-218210D02*
G54D10*
D03*
X-242160Y-116610D02*
G54D10*
D03*
X-242160Y-167410D02*
G54D10*
D03*
X-242160Y-218210D02*
G54D10*
D03*
X183290Y-40410D02*
G54D10*
D03*
X259490Y-40410D02*
G54D10*
D03*
X183290Y-116610D02*
G54D10*
D03*
X183290Y-167410D02*
G54D10*
D03*
X183290Y-218210D02*
G54D10*
D03*
X259490Y-116610D02*
G54D10*
D03*
X259490Y-167410D02*
G54D10*
D03*
X259490Y-218210D02*
G54D10*
D03*
X-194700Y36616D02*
G54D11*
D03*
X-245680Y36504D02*
G54D11*
D03*
X272190Y-2309D02*
G54D12*
D03*
X170590Y-2309D02*
G54D12*
D03*
X-209550Y-120650D02*
G54D13*
D03*
X-120650Y-120650D02*
G54D13*
D03*
X192650Y36616D02*
G54D11*
D03*
X141670Y36504D02*
G54D11*
D03*
X-22225Y-85725D02*
G54D13*
D03*
X-22225Y-168275D02*
G54D13*
D03*
X-61350Y-1484D02*
G54D11*
D03*
X-112331Y-1596D02*
G54D11*
D03*
X-113670Y-227652D02*
G54D11*
D03*
X-62690Y-227540D02*
G54D11*
D03*
X-216760Y-2309D02*
G54D12*
D03*
X-318360Y-2309D02*
G54D12*
D03*
X51430Y-227652D02*
G54D11*
D03*
X102410Y-227540D02*
G54D11*
D03*
X69850Y-120650D02*
G54D13*
D03*
X146050Y-120650D02*
G54D13*
D03*
X103750Y-1484D02*
G54D11*
D03*
X52769Y-1596D02*
G54D11*
D03*
X-343548Y53652D02*
G54D11*
D03*
X-318048Y53652D02*
G54D11*
D03*
X-354819Y-117393D02*
G54D11*
D03*
X-354819Y-142893D02*
G54D11*
D03*
X299231Y-117393D02*
G54D11*
D03*
X299231Y-142893D02*
G54D11*
D03*
X-62690Y-227540D02*
G54D11*
D03*
X102410Y-227540D02*
G54D11*
D03*
X-242160Y-40410D02*
G54D11*
D03*
X259490Y-40410D02*
G54D11*
D03*
X-216760Y-2309D02*
G54D11*
D03*
X-194700Y36616D02*
G54D11*
D03*
X272190Y-2309D02*
G54D11*
D03*
X141670Y36504D02*
G54D11*
D03*
X-61350Y-1484D02*
G54D11*
D03*
X103750Y-1484D02*
G54D11*
D03*
X293457Y56638D02*
G54D11*
D03*
X267957Y56638D02*
G54D11*
D03*
G36*
X-299610Y-284709D02*
X-273610Y-284709D01*
X-273610Y-310709D01*
X-299610Y-310709D01*
X-299610Y-284709D01*
G37*
G36*
X-45610Y-284709D02*
X-19610Y-284709D01*
X-19610Y-310709D01*
X-45610Y-310709D01*
X-45610Y-284709D01*
G37*
G36*
X195690Y-284709D02*
X221690Y-284709D01*
X221690Y-310709D01*
X195690Y-310709D01*
X195690Y-284709D01*
G37*
G36*
X-223410Y121691D02*
X-197410Y121691D01*
X-197410Y95691D01*
X-223410Y95691D01*
X-223410Y121691D01*
G37*
G36*
X-45610Y121691D02*
X-19610Y121691D01*
X-19610Y95691D01*
X-45610Y95691D01*
X-45610Y121691D01*
G37*
G36*
X132190Y121691D02*
X158190Y121691D01*
X158190Y95691D01*
X132190Y95691D01*
X132190Y121691D01*
G37*
X297590Y-291359D02*
G54D14*
D03*
X-350110Y-291359D02*
G54D14*
D03*
X-350110Y108691D02*
G54D14*
D03*
X297590Y108691D02*
G54D14*
D03*
X-299310Y108691D02*
G54D14*
D03*
X246790Y108691D02*
G54D14*
D03*
G36*
X284590Y-30709D02*
X310590Y-30709D01*
X310590Y-56709D01*
X284590Y-56709D01*
X284590Y-30709D01*
G37*
G36*
X-369460Y-30709D02*
X-343460Y-30709D01*
X-343460Y-56709D01*
X-369460Y-56709D01*
X-369460Y-30709D01*
G37*
X-196850Y-107950D02*
G54D13*
D03*
X-133350Y-107950D02*
G54D13*
D03*
X-31750Y-95250D02*
G54D13*
D03*
X-31750Y-158750D02*
G54D13*
D03*
X76200Y-107950D02*
G54D13*
D03*
X139700Y-107950D02*
G54D13*
D03*
X-165100Y0D02*
G54D11*
D03*
X-165100Y-228600D02*
G54D11*
D03*
X0Y-228600D02*
G54D11*
D03*
X0Y0D02*
G54D11*
D03*
M02*
