%FSLAX34Y34*%
%MOMM*%
%LNCOPPER_TOP*%
G71*
G01*
%ADD10C,3.000*%
%ADD11C,3.000*%
%ADD12C,2.900*%
%ADD13C,3.200*%
%ADD14C,2.700*%
%ADD15C,2.800*%
%ADD16C,2.900*%
%ADD17C,3.000*%
%ADD18C,3.000*%
%ADD19C,1.300*%
%ADD20C,1.200*%
%ADD21C,3.800*%
%ADD22C,0.733*%
%ADD23C,0.700*%
%ADD24C,1.380*%
%ADD25C,1.193*%
%ADD26C,1.364*%
%ADD27C,1.173*%
%ADD28C,1.269*%
%ADD29C,1.591*%
%ADD30C,1.298*%
%ADD31C,1.920*%
%ADD32C,2.200*%
%ADD33C,2.200*%
%ADD34C,2.100*%
%ADD35C,2.000*%
%ADD36C,1.900*%
%ADD37C,2.100*%
%ADD38C,2.200*%
%ADD39C,2.200*%
%ADD40C,0.500*%
%ADD41C,0.400*%
%ADD42C,4.300*%
%ADD43C,3.000*%
%LPD*%
G36*
X-843200Y384050D02*
X856800Y384050D01*
X856800Y-1215950D01*
X-843200Y-1215950D01*
X-843200Y384050D01*
G37*
%LPC*%
X-366950Y19050D02*
G54D10*
D03*
X-366950Y-82550D02*
G54D10*
D03*
X-227250Y-5000D02*
G54D11*
D03*
X-227250Y93900D02*
G54D11*
D03*
X-176450Y-63500D02*
G54D10*
D03*
X-278050Y-63500D02*
G54D10*
D03*
X-98900Y0D02*
G54D11*
D03*
X0Y0D02*
G54D11*
D03*
X128350Y-69850D02*
G54D10*
D03*
X26750Y-69850D02*
G54D10*
D03*
X128350Y-5000D02*
G54D11*
D03*
X128350Y93900D02*
G54D11*
D03*
X261700Y19050D02*
G54D10*
D03*
X261700Y-82550D02*
G54D10*
D03*
X-462200Y-63500D02*
G54D11*
D03*
X-582850Y-60326D02*
G54D11*
D03*
X-462200Y57150D02*
G54D11*
D03*
X-582850Y57150D02*
G54D11*
D03*
X-603962Y-3175D02*
G54D11*
D03*
X350460Y59801D02*
G54D11*
D03*
X471110Y56627D02*
G54D11*
D03*
X350460Y-60849D02*
G54D11*
D03*
X471110Y-60849D02*
G54D11*
D03*
X492222Y-524D02*
G54D11*
D03*
X-366950Y19050D02*
G54D11*
D03*
X-176450Y-63500D02*
G54D11*
D03*
X128350Y-69850D02*
G54D11*
D03*
X261700Y-82550D02*
G54D11*
D03*
X-582850Y-60326D02*
G54D12*
D03*
X-700842Y-28488D02*
G54D13*
D03*
X-700954Y22492D02*
G54D13*
D03*
X-658727Y-50520D02*
G54D14*
D03*
X-658727Y51080D02*
G54D14*
D03*
X-658727Y-50520D02*
G54D15*
D03*
X588208Y-41188D02*
G54D13*
D03*
X588096Y9792D02*
G54D13*
D03*
X541423Y-50520D02*
G54D14*
D03*
X541423Y51080D02*
G54D14*
D03*
X541423Y-50520D02*
G54D15*
D03*
X-658727Y-50520D02*
G54D11*
D03*
X-700842Y-28488D02*
G54D11*
D03*
X541423Y-50520D02*
G54D11*
D03*
X588208Y-41188D02*
G54D11*
D03*
X-366950Y-184150D02*
G54D10*
D03*
X-366950Y-285750D02*
G54D10*
D03*
X-227250Y-208200D02*
G54D11*
D03*
X-227250Y-109300D02*
G54D11*
D03*
X-176450Y-266700D02*
G54D10*
D03*
X-278050Y-266700D02*
G54D10*
D03*
X-98900Y-203200D02*
G54D11*
D03*
X0Y-203200D02*
G54D11*
D03*
X128350Y-273050D02*
G54D10*
D03*
X26750Y-273050D02*
G54D10*
D03*
X128350Y-208200D02*
G54D11*
D03*
X128350Y-109300D02*
G54D11*
D03*
X261700Y-184150D02*
G54D10*
D03*
X261700Y-285750D02*
G54D10*
D03*
X-462200Y-266700D02*
G54D11*
D03*
X-582850Y-263526D02*
G54D11*
D03*
X-462200Y-146050D02*
G54D11*
D03*
X-582850Y-146050D02*
G54D11*
D03*
X-603962Y-206375D02*
G54D11*
D03*
X350460Y-143399D02*
G54D16*
D03*
X471110Y-146573D02*
G54D11*
D03*
X350460Y-264049D02*
G54D11*
D03*
X471110Y-264049D02*
G54D11*
D03*
X492223Y-203724D02*
G54D11*
D03*
X-366950Y-184150D02*
G54D11*
D03*
X-176450Y-266700D02*
G54D11*
D03*
X128350Y-273050D02*
G54D11*
D03*
X261700Y-285750D02*
G54D11*
D03*
X-582850Y-263526D02*
G54D17*
D03*
X-700842Y-231688D02*
G54D13*
D03*
X-700954Y-180708D02*
G54D13*
D03*
X-658727Y-253720D02*
G54D14*
D03*
X-658727Y-152120D02*
G54D14*
D03*
X-658727Y-253720D02*
G54D15*
D03*
X588208Y-244388D02*
G54D13*
D03*
X588096Y-193408D02*
G54D13*
D03*
X541423Y-253720D02*
G54D14*
D03*
X541423Y-152120D02*
G54D14*
D03*
X541423Y-253720D02*
G54D15*
D03*
X-658727Y-253720D02*
G54D11*
D03*
X-700842Y-231688D02*
G54D11*
D03*
X541423Y-253720D02*
G54D11*
D03*
X588208Y-244388D02*
G54D11*
D03*
X-366950Y-387350D02*
G54D10*
D03*
X-366950Y-488950D02*
G54D10*
D03*
X-227250Y-411400D02*
G54D11*
D03*
X-227250Y-312500D02*
G54D11*
D03*
X-176450Y-469900D02*
G54D10*
D03*
X-278050Y-469900D02*
G54D10*
D03*
X-98900Y-406400D02*
G54D11*
D03*
X0Y-406400D02*
G54D11*
D03*
X128350Y-476250D02*
G54D10*
D03*
X26750Y-476250D02*
G54D10*
D03*
X128350Y-411400D02*
G54D11*
D03*
X128350Y-312500D02*
G54D11*
D03*
X261700Y-387350D02*
G54D10*
D03*
X261700Y-488950D02*
G54D10*
D03*
X-462200Y-469900D02*
G54D11*
D03*
X-582850Y-466726D02*
G54D11*
D03*
X-462200Y-349250D02*
G54D11*
D03*
X-582850Y-349250D02*
G54D11*
D03*
X-603962Y-409575D02*
G54D11*
D03*
X350460Y-346599D02*
G54D11*
D03*
X471110Y-349773D02*
G54D11*
D03*
X350460Y-467249D02*
G54D11*
D03*
X471110Y-467249D02*
G54D11*
D03*
X492223Y-406924D02*
G54D11*
D03*
X-366950Y-387350D02*
G54D11*
D03*
X-176450Y-469900D02*
G54D11*
D03*
X128350Y-476250D02*
G54D11*
D03*
X261700Y-488950D02*
G54D11*
D03*
X-582850Y-466726D02*
G54D17*
D03*
X-700842Y-434888D02*
G54D13*
D03*
X-700954Y-383908D02*
G54D13*
D03*
X-658727Y-456920D02*
G54D14*
D03*
X-658727Y-355320D02*
G54D14*
D03*
X-658727Y-456920D02*
G54D15*
D03*
X588208Y-447588D02*
G54D13*
D03*
X588096Y-396608D02*
G54D13*
D03*
X541423Y-456920D02*
G54D14*
D03*
X541423Y-355320D02*
G54D14*
D03*
X541423Y-456920D02*
G54D15*
D03*
X-658727Y-456920D02*
G54D11*
D03*
X-700842Y-434888D02*
G54D11*
D03*
X541423Y-456920D02*
G54D11*
D03*
X588208Y-447588D02*
G54D11*
D03*
X-366950Y-590550D02*
G54D10*
D03*
X-366950Y-692150D02*
G54D10*
D03*
X-227250Y-614600D02*
G54D11*
D03*
X-227250Y-515700D02*
G54D11*
D03*
X-176450Y-673100D02*
G54D10*
D03*
X-278050Y-673100D02*
G54D10*
D03*
X-98900Y-609600D02*
G54D11*
D03*
X0Y-609600D02*
G54D11*
D03*
X128350Y-679450D02*
G54D10*
D03*
X26750Y-679450D02*
G54D10*
D03*
X128350Y-614600D02*
G54D11*
D03*
X128350Y-515700D02*
G54D11*
D03*
X261700Y-590550D02*
G54D10*
D03*
X261700Y-692150D02*
G54D10*
D03*
X-462200Y-673100D02*
G54D11*
D03*
X-582850Y-669926D02*
G54D11*
D03*
X-462200Y-552450D02*
G54D11*
D03*
X-582850Y-552450D02*
G54D11*
D03*
X-603962Y-612775D02*
G54D11*
D03*
X350460Y-549798D02*
G54D11*
D03*
X471110Y-552973D02*
G54D11*
D03*
X350460Y-670449D02*
G54D11*
D03*
X471110Y-670449D02*
G54D11*
D03*
X492223Y-610124D02*
G54D11*
D03*
X-366950Y-590550D02*
G54D11*
D03*
X-176450Y-673100D02*
G54D11*
D03*
X128350Y-679450D02*
G54D11*
D03*
X261700Y-692150D02*
G54D11*
D03*
X-582850Y-669926D02*
G54D17*
D03*
X-700842Y-638088D02*
G54D13*
D03*
X-700954Y-587108D02*
G54D13*
D03*
X-658727Y-660120D02*
G54D14*
D03*
X-658727Y-558520D02*
G54D14*
D03*
X-658727Y-660120D02*
G54D15*
D03*
X588208Y-650788D02*
G54D13*
D03*
X588096Y-599808D02*
G54D13*
D03*
X541423Y-660120D02*
G54D14*
D03*
X541423Y-558520D02*
G54D14*
D03*
X541423Y-660120D02*
G54D15*
D03*
X-658727Y-660120D02*
G54D11*
D03*
X-700842Y-638088D02*
G54D11*
D03*
X541423Y-660120D02*
G54D11*
D03*
X588208Y-650788D02*
G54D11*
D03*
X-366950Y-793750D02*
G54D10*
D03*
X-366950Y-895350D02*
G54D10*
D03*
X-227250Y-817800D02*
G54D11*
D03*
X-227250Y-718900D02*
G54D11*
D03*
X-176450Y-876300D02*
G54D10*
D03*
X-278050Y-876300D02*
G54D10*
D03*
X-98900Y-812800D02*
G54D11*
D03*
X0Y-812800D02*
G54D11*
D03*
X128350Y-882650D02*
G54D10*
D03*
X26750Y-882650D02*
G54D10*
D03*
X128350Y-817800D02*
G54D11*
D03*
X128350Y-718900D02*
G54D11*
D03*
X261700Y-793750D02*
G54D10*
D03*
X261700Y-895350D02*
G54D10*
D03*
X-462200Y-876300D02*
G54D11*
D03*
X-582850Y-873126D02*
G54D11*
D03*
X-462200Y-755650D02*
G54D11*
D03*
X-582850Y-755650D02*
G54D11*
D03*
X-603962Y-815975D02*
G54D11*
D03*
X350460Y-752998D02*
G54D11*
D03*
X471110Y-756173D02*
G54D11*
D03*
X350460Y-873649D02*
G54D11*
D03*
X471110Y-873649D02*
G54D11*
D03*
X492223Y-813324D02*
G54D11*
D03*
X-366950Y-793750D02*
G54D11*
D03*
X-176450Y-876300D02*
G54D11*
D03*
X128350Y-882650D02*
G54D11*
D03*
X261700Y-895350D02*
G54D11*
D03*
X-582850Y-873126D02*
G54D17*
D03*
X-700842Y-841288D02*
G54D13*
D03*
X-700954Y-790308D02*
G54D13*
D03*
X-658727Y-863320D02*
G54D14*
D03*
X-658727Y-761720D02*
G54D14*
D03*
X-658727Y-863320D02*
G54D15*
D03*
X588208Y-853988D02*
G54D13*
D03*
X588096Y-803008D02*
G54D13*
D03*
X541423Y-863320D02*
G54D14*
D03*
X541423Y-761720D02*
G54D14*
D03*
X541423Y-863320D02*
G54D15*
D03*
X-658727Y-863320D02*
G54D11*
D03*
X-700842Y-841288D02*
G54D11*
D03*
X541423Y-863320D02*
G54D11*
D03*
X588208Y-853988D02*
G54D11*
D03*
X-366950Y-996950D02*
G54D10*
D03*
X-366950Y-1098550D02*
G54D10*
D03*
X-227250Y-1021000D02*
G54D11*
D03*
X-227250Y-922100D02*
G54D11*
D03*
X-176450Y-1079500D02*
G54D10*
D03*
X-278050Y-1079500D02*
G54D10*
D03*
X-98900Y-1016000D02*
G54D11*
D03*
X0Y-1016000D02*
G54D11*
D03*
X128350Y-1085850D02*
G54D10*
D03*
X26750Y-1085850D02*
G54D10*
D03*
X128350Y-1021000D02*
G54D11*
D03*
X128350Y-922100D02*
G54D11*
D03*
X261700Y-996950D02*
G54D10*
D03*
X261700Y-1098550D02*
G54D10*
D03*
X-462200Y-1079500D02*
G54D11*
D03*
X-582850Y-1076326D02*
G54D11*
D03*
X-462200Y-958850D02*
G54D11*
D03*
X-582850Y-958850D02*
G54D11*
D03*
X-603962Y-1019175D02*
G54D11*
D03*
X350460Y-956198D02*
G54D11*
D03*
X471110Y-959373D02*
G54D11*
D03*
X350460Y-1076849D02*
G54D11*
D03*
X471110Y-1076849D02*
G54D11*
D03*
X492223Y-1016524D02*
G54D11*
D03*
X-366950Y-996950D02*
G54D11*
D03*
X-176450Y-1079500D02*
G54D11*
D03*
X128350Y-1085850D02*
G54D11*
D03*
X261700Y-1098550D02*
G54D11*
D03*
X-582850Y-1076326D02*
G54D17*
D03*
X-700842Y-1044488D02*
G54D13*
D03*
X-700954Y-993508D02*
G54D13*
D03*
X-658727Y-1066520D02*
G54D14*
D03*
X-658727Y-964920D02*
G54D14*
D03*
X-658727Y-1066520D02*
G54D15*
D03*
X588208Y-1057188D02*
G54D13*
D03*
X588096Y-1006208D02*
G54D13*
D03*
X541423Y-1066520D02*
G54D14*
D03*
X541423Y-964920D02*
G54D14*
D03*
X541423Y-1066520D02*
G54D15*
D03*
X-658727Y-1066520D02*
G54D11*
D03*
X-700842Y-1044488D02*
G54D11*
D03*
X541423Y-1066520D02*
G54D11*
D03*
X588208Y-1057188D02*
G54D11*
D03*
X-544750Y209550D02*
G54D18*
D03*
X26750Y209550D02*
G54D18*
D03*
X191850Y209550D02*
G54D18*
D03*
X395050Y209550D02*
G54D18*
D03*
X-379650Y209550D02*
G54D18*
D03*
X-176450Y209550D02*
G54D18*
D03*
G54D19*
X-176450Y209550D02*
X-182800Y206250D01*
X-335200Y53850D01*
X-335200Y15750D01*
X-424100Y-73150D01*
X-424100Y-85850D01*
X-449500Y-111250D01*
X-487600Y-111250D01*
X-538400Y-162050D01*
X-538400Y-276350D01*
X-589200Y-327150D01*
X-589200Y-352550D01*
X-582850Y-349250D01*
G54D19*
X-176450Y209550D02*
X-182800Y206250D01*
X-5000Y28450D01*
X7700Y28450D01*
X96600Y-60450D01*
X96600Y-123950D01*
X236300Y-263650D01*
X236300Y-301750D01*
X249000Y-314450D01*
X376000Y-314450D01*
X414100Y-352550D01*
X464900Y-352550D01*
X471110Y-349773D01*
G54D19*
X26750Y209550D02*
X20400Y206250D01*
X-17700Y244350D01*
X-132000Y244350D01*
X-144700Y231650D01*
X-195500Y231650D01*
X-462200Y-35050D01*
X-500300Y-35050D01*
X-576500Y-111250D01*
X-614600Y-111250D01*
X-640000Y-136650D01*
X-640000Y-225550D01*
X-627300Y-238250D01*
X-627300Y-263650D01*
X-640000Y-276350D01*
X-640000Y-428750D01*
X-627300Y-441450D01*
X-627300Y-479550D01*
X-589200Y-517650D01*
X-589200Y-555750D01*
X-582850Y-552450D01*
G54D19*
X26750Y209550D02*
X20400Y206250D01*
X109300Y117350D01*
X134700Y117350D01*
X236300Y15750D01*
X236300Y3050D01*
X312500Y-73150D01*
X312500Y-85850D01*
X337900Y-111250D01*
X376000Y-111250D01*
X426800Y-162050D01*
X426800Y-276350D01*
X477600Y-327150D01*
X503000Y-327150D01*
X515700Y-339850D01*
X515700Y-365250D01*
X503000Y-377950D01*
X452200Y-377950D01*
X426800Y-403350D01*
X426800Y-479550D01*
X464900Y-517650D01*
X464900Y-555750D01*
X471110Y-552973D01*
G54D20*
X191850Y209550D02*
X191850Y174500D01*
X198200Y168150D01*
X547450Y168150D01*
X563325Y152275D01*
X563325Y-724025D01*
X560150Y-730250D01*
X541423Y-761720D01*
X560150Y-730250D01*
X553660Y-727598D01*
G54D20*
X191850Y209550D02*
X191850Y263400D01*
X198200Y269750D01*
X-709850Y269750D01*
X-732075Y247525D01*
X-732075Y-704975D01*
X-703500Y-733550D01*
X-604950Y-733550D01*
X-582850Y-755650D01*
G54D20*
X395050Y209550D02*
X395050Y222125D01*
X420450Y247525D01*
X588725Y247525D01*
X601425Y234825D01*
X601425Y53850D01*
X623650Y31625D01*
X623650Y-924050D01*
X620475Y-927225D01*
X607775Y-927225D01*
X614125Y-920875D01*
X569136Y-920875D01*
X541423Y-964920D01*
G54D20*
X-751125Y-930400D02*
X-582850Y-930400D01*
X-579675Y-933575D01*
X-579675Y-955675D01*
X-582850Y-958850D01*
X-817825Y-408012D02*
G54D11*
D03*
X-767025Y-408012D02*
G54D11*
D03*
X-792425Y-433412D02*
G54D11*
D03*
X-767025Y-458812D02*
G54D11*
D03*
X-817825Y-458812D02*
G54D11*
D03*
G54D20*
X395050Y209550D02*
X395050Y291975D01*
X388700Y298325D01*
X-833675Y298325D01*
X-836850Y295150D01*
X-836850Y-841500D01*
X-757475Y-920875D01*
G54D20*
X-757475Y-920875D02*
X-757475Y-924050D01*
X-751125Y-930400D01*
G36*
X-560200Y377550D02*
X-532200Y377550D01*
X-532200Y349550D01*
X-560200Y349550D01*
X-560200Y377550D01*
G37*
G36*
X-397800Y377550D02*
X-369800Y377550D01*
X-369800Y349550D01*
X-397800Y349550D01*
X-397800Y377550D01*
G37*
G36*
X380200Y377550D02*
X408200Y377550D01*
X408200Y349550D01*
X380200Y349550D01*
X380200Y377550D01*
G37*
G36*
X-530200Y-1154150D02*
X-502200Y-1154150D01*
X-502200Y-1182150D01*
X-530200Y-1182150D01*
X-530200Y-1154150D01*
G37*
G36*
X-377800Y-1154150D02*
X-349800Y-1154150D01*
X-349800Y-1182150D01*
X-377800Y-1182150D01*
X-377800Y-1154150D01*
G37*
G36*
X322600Y-1149150D02*
X350600Y-1149150D01*
X350600Y-1177150D01*
X322600Y-1177150D01*
X322600Y-1149150D01*
G37*
G36*
X-809600Y-943250D02*
X-781600Y-943250D01*
X-781600Y-971250D01*
X-809600Y-971250D01*
X-809600Y-943250D01*
G37*
G36*
X-809600Y72750D02*
X-781600Y72750D01*
X-781600Y44750D01*
X-809600Y44750D01*
X-809600Y72750D01*
G37*
X-700842Y-28488D02*
G54D11*
D03*
X-700842Y-434889D02*
G54D11*
D03*
X-700842Y-841288D02*
G54D11*
D03*
X588208Y-244388D02*
G54D11*
D03*
X588208Y-650789D02*
G54D11*
D03*
X588208Y-1057189D02*
G54D11*
D03*
G36*
X437600Y-1149150D02*
X465600Y-1149150D01*
X465600Y-1177150D01*
X437600Y-1177150D01*
X437600Y-1149150D01*
G37*
X680800Y155900D02*
G54D21*
D03*
X782400Y155900D02*
G54D11*
D03*
X782400Y155900D02*
G54D21*
D03*
X680800Y155900D02*
G54D21*
D03*
X680800Y54300D02*
G54D11*
D03*
X680800Y54300D02*
G54D21*
D03*
X782400Y155900D02*
G54D21*
D03*
X782400Y54300D02*
G54D11*
D03*
X782400Y54300D02*
G54D21*
D03*
X680800Y54300D02*
G54D21*
D03*
X782400Y54300D02*
G54D21*
D03*
X680800Y-24100D02*
G54D21*
D03*
X782400Y-24100D02*
G54D11*
D03*
X782400Y-24100D02*
G54D21*
D03*
X680800Y-24100D02*
G54D21*
D03*
X680800Y-125700D02*
G54D11*
D03*
X680800Y-125700D02*
G54D21*
D03*
X782400Y-24100D02*
G54D21*
D03*
X782400Y-125700D02*
G54D11*
D03*
X782400Y-125700D02*
G54D21*
D03*
X680800Y-125700D02*
G54D21*
D03*
X782400Y-125700D02*
G54D21*
D03*
X680800Y-224100D02*
G54D21*
D03*
X782400Y-224100D02*
G54D11*
D03*
X782400Y-224100D02*
G54D21*
D03*
X680800Y-224100D02*
G54D21*
D03*
X680800Y-325700D02*
G54D11*
D03*
X680800Y-325700D02*
G54D21*
D03*
X782400Y-224100D02*
G54D21*
D03*
X782400Y-325700D02*
G54D11*
D03*
X782400Y-325700D02*
G54D21*
D03*
X680800Y-325700D02*
G54D21*
D03*
X782400Y-325700D02*
G54D21*
D03*
X675800Y-574100D02*
G54D21*
D03*
X777400Y-574100D02*
G54D11*
D03*
X777400Y-574100D02*
G54D21*
D03*
X675800Y-574100D02*
G54D21*
D03*
X675800Y-675700D02*
G54D11*
D03*
X675800Y-675700D02*
G54D21*
D03*
X777400Y-574100D02*
G54D21*
D03*
X777400Y-675700D02*
G54D11*
D03*
X777400Y-675700D02*
G54D21*
D03*
X675800Y-675700D02*
G54D21*
D03*
X777400Y-675700D02*
G54D21*
D03*
X675800Y-769100D02*
G54D21*
D03*
X777400Y-769100D02*
G54D11*
D03*
X777400Y-769100D02*
G54D21*
D03*
X675800Y-769100D02*
G54D21*
D03*
X675800Y-870700D02*
G54D11*
D03*
X675800Y-870700D02*
G54D21*
D03*
X777400Y-769100D02*
G54D21*
D03*
X777400Y-870700D02*
G54D11*
D03*
X777400Y-870700D02*
G54D21*
D03*
X675800Y-870700D02*
G54D21*
D03*
X777400Y-870700D02*
G54D21*
D03*
X675800Y-969100D02*
G54D21*
D03*
X777400Y-969100D02*
G54D11*
D03*
X777400Y-969100D02*
G54D21*
D03*
X675800Y-969100D02*
G54D21*
D03*
X675800Y-1070700D02*
G54D11*
D03*
X675800Y-1070700D02*
G54D21*
D03*
X777400Y-969100D02*
G54D21*
D03*
X777400Y-1070700D02*
G54D11*
D03*
X777400Y-1070700D02*
G54D21*
D03*
X675800Y-1070700D02*
G54D21*
D03*
X777400Y-1070700D02*
G54D21*
D03*
X692175Y-428012D02*
G54D11*
D03*
X742975Y-428012D02*
G54D11*
D03*
X717575Y-453412D02*
G54D11*
D03*
X742975Y-478812D02*
G54D11*
D03*
X692175Y-478812D02*
G54D11*
D03*
X801750Y-402850D02*
G54D11*
D03*
X801750Y-492850D02*
G54D11*
D03*
G36*
X-187800Y377550D02*
X-159800Y377550D01*
X-159800Y349550D01*
X-187800Y349550D01*
X-187800Y377550D01*
G37*
G36*
X12200Y377550D02*
X40200Y377550D01*
X40200Y349550D01*
X12200Y349550D01*
X12200Y377550D01*
G37*
G36*
X172200Y372550D02*
X200200Y372550D01*
X200200Y344550D01*
X172200Y344550D01*
X172200Y372550D01*
G37*
G36*
X-87400Y-1159150D02*
X-59400Y-1159150D01*
X-59400Y-1187150D01*
X-87400Y-1187150D01*
X-87400Y-1159150D01*
G37*
G36*
X27600Y-1159150D02*
X55600Y-1159150D01*
X55600Y-1187150D01*
X27600Y-1187150D01*
X27600Y-1159150D01*
G37*
G36*
X-809600Y-137250D02*
X-781600Y-137250D01*
X-781600Y-165250D01*
X-809600Y-165250D01*
X-809600Y-137250D01*
G37*
G36*
X-809600Y-697250D02*
X-781600Y-697250D01*
X-781600Y-725250D01*
X-809600Y-725250D01*
X-809600Y-697250D01*
G37*
%LPD*%
G54D22*
G36*
X467443Y-60849D02*
X467443Y-45349D01*
X474777Y-45349D01*
X474777Y-60849D01*
X467443Y-60849D01*
G37*
G36*
X471110Y-57182D02*
X486610Y-57182D01*
X486610Y-64516D01*
X471110Y-64516D01*
X471110Y-57182D01*
G37*
G36*
X474777Y-60849D02*
X474777Y-76349D01*
X467443Y-76349D01*
X467443Y-60849D01*
X474777Y-60849D01*
G37*
G36*
X471110Y-64516D02*
X455610Y-64516D01*
X455610Y-57182D01*
X471110Y-57182D01*
X471110Y-64516D01*
G37*
G54D22*
G36*
X-370617Y19050D02*
X-370617Y34550D01*
X-363283Y34550D01*
X-363283Y19050D01*
X-370617Y19050D01*
G37*
G36*
X-366950Y22717D02*
X-351450Y22717D01*
X-351450Y15383D01*
X-366950Y15383D01*
X-366950Y22717D01*
G37*
G36*
X-363283Y19050D02*
X-363283Y3550D01*
X-370617Y3550D01*
X-370617Y19050D01*
X-363283Y19050D01*
G37*
G36*
X-366950Y15383D02*
X-382450Y15383D01*
X-382450Y22717D01*
X-366950Y22717D01*
X-366950Y15383D01*
G37*
G54D22*
G36*
X-180117Y-63500D02*
X-180117Y-48000D01*
X-172783Y-48000D01*
X-172783Y-63500D01*
X-180117Y-63500D01*
G37*
G36*
X-176450Y-59833D02*
X-160950Y-59833D01*
X-160950Y-67167D01*
X-176450Y-67167D01*
X-176450Y-59833D01*
G37*
G36*
X-172783Y-63500D02*
X-172783Y-79000D01*
X-180117Y-79000D01*
X-180117Y-63500D01*
X-172783Y-63500D01*
G37*
G36*
X-176450Y-67167D02*
X-191950Y-67167D01*
X-191950Y-59833D01*
X-176450Y-59833D01*
X-176450Y-67167D01*
G37*
G54D22*
G36*
X124683Y-69850D02*
X124683Y-54350D01*
X132017Y-54350D01*
X132017Y-69850D01*
X124683Y-69850D01*
G37*
G36*
X128350Y-66183D02*
X143850Y-66183D01*
X143850Y-73517D01*
X128350Y-73517D01*
X128350Y-66183D01*
G37*
G36*
X132017Y-69850D02*
X132017Y-85350D01*
X124683Y-85350D01*
X124683Y-69850D01*
X132017Y-69850D01*
G37*
G36*
X128350Y-73517D02*
X112850Y-73517D01*
X112850Y-66183D01*
X128350Y-66183D01*
X128350Y-73517D01*
G37*
G54D22*
G36*
X258033Y-82550D02*
X258033Y-67050D01*
X265367Y-67050D01*
X265367Y-82550D01*
X258033Y-82550D01*
G37*
G36*
X261700Y-78883D02*
X277200Y-78883D01*
X277200Y-86217D01*
X261700Y-86217D01*
X261700Y-78883D01*
G37*
G36*
X265367Y-82550D02*
X265367Y-98050D01*
X258033Y-98050D01*
X258033Y-82550D01*
X265367Y-82550D01*
G37*
G36*
X261700Y-86217D02*
X246200Y-86217D01*
X246200Y-78883D01*
X261700Y-78883D01*
X261700Y-86217D01*
G37*
G54D23*
G36*
X-586350Y-60326D02*
X-586350Y-45326D01*
X-579350Y-45326D01*
X-579350Y-60326D01*
X-586350Y-60326D01*
G37*
G36*
X-582850Y-56826D02*
X-567850Y-56826D01*
X-567850Y-63826D01*
X-582850Y-63826D01*
X-582850Y-56826D01*
G37*
G36*
X-579350Y-60326D02*
X-579350Y-75326D01*
X-586350Y-75326D01*
X-586350Y-60326D01*
X-579350Y-60326D01*
G37*
G36*
X-582850Y-63826D02*
X-597850Y-63826D01*
X-597850Y-56826D01*
X-582850Y-56826D01*
X-582850Y-63826D01*
G37*
G54D24*
G36*
X-658727Y-43620D02*
X-644227Y-43620D01*
X-644227Y-57420D01*
X-658727Y-57420D01*
X-658727Y-43620D01*
G37*
G36*
X-651827Y-50520D02*
X-651827Y-65020D01*
X-665627Y-65020D01*
X-665627Y-50520D01*
X-651827Y-50520D01*
G37*
G36*
X-658727Y-57420D02*
X-673227Y-57420D01*
X-673227Y-43620D01*
X-658727Y-43620D01*
X-658727Y-57420D01*
G37*
G36*
X-665627Y-50520D02*
X-665627Y-36020D01*
X-651827Y-36020D01*
X-651827Y-50520D01*
X-665627Y-50520D01*
G37*
G54D24*
G36*
X541423Y-43620D02*
X555923Y-43620D01*
X555923Y-57420D01*
X541423Y-57420D01*
X541423Y-43620D01*
G37*
G36*
X548323Y-50520D02*
X548323Y-65020D01*
X534523Y-65020D01*
X534523Y-50520D01*
X548323Y-50520D01*
G37*
G36*
X541423Y-57420D02*
X526923Y-57420D01*
X526923Y-43620D01*
X541423Y-43620D01*
X541423Y-57420D01*
G37*
G36*
X534523Y-50520D02*
X534523Y-36020D01*
X548323Y-36020D01*
X548323Y-50520D01*
X534523Y-50520D01*
G37*
G54D22*
G36*
X-662394Y-50520D02*
X-662394Y-35020D01*
X-655060Y-35020D01*
X-655060Y-50520D01*
X-662394Y-50520D01*
G37*
G36*
X-658727Y-46853D02*
X-643227Y-46853D01*
X-643227Y-54186D01*
X-658727Y-54186D01*
X-658727Y-46853D01*
G37*
G36*
X-655060Y-50520D02*
X-655060Y-66020D01*
X-662394Y-66020D01*
X-662394Y-50520D01*
X-655060Y-50520D01*
G37*
G36*
X-658727Y-54186D02*
X-674227Y-54186D01*
X-674227Y-46853D01*
X-658727Y-46853D01*
X-658727Y-54186D01*
G37*
G54D22*
G36*
X-704508Y-28488D02*
X-704508Y-12988D01*
X-697175Y-12988D01*
X-697175Y-28488D01*
X-704508Y-28488D01*
G37*
G36*
X-700842Y-24822D02*
X-685342Y-24822D01*
X-685342Y-32155D01*
X-700842Y-32155D01*
X-700842Y-24822D01*
G37*
G36*
X-697175Y-28488D02*
X-697175Y-43988D01*
X-704508Y-43988D01*
X-704508Y-28488D01*
X-697175Y-28488D01*
G37*
G36*
X-700842Y-32155D02*
X-716342Y-32155D01*
X-716342Y-24822D01*
X-700842Y-24822D01*
X-700842Y-32155D01*
G37*
G54D22*
G36*
X537756Y-50520D02*
X537756Y-35020D01*
X545090Y-35020D01*
X545090Y-50520D01*
X537756Y-50520D01*
G37*
G36*
X541423Y-46853D02*
X556923Y-46853D01*
X556923Y-54186D01*
X541423Y-54186D01*
X541423Y-46853D01*
G37*
G36*
X545090Y-50520D02*
X545090Y-66020D01*
X537756Y-66020D01*
X537756Y-50520D01*
X545090Y-50520D01*
G37*
G36*
X541423Y-54186D02*
X525923Y-54186D01*
X525923Y-46853D01*
X541423Y-46853D01*
X541423Y-54186D01*
G37*
G54D22*
G36*
X584542Y-41188D02*
X584542Y-25688D01*
X591875Y-25688D01*
X591875Y-41188D01*
X584542Y-41188D01*
G37*
G36*
X588208Y-37522D02*
X603708Y-37522D01*
X603708Y-44855D01*
X588208Y-44855D01*
X588208Y-37522D01*
G37*
G36*
X591875Y-41188D02*
X591875Y-56688D01*
X584542Y-56688D01*
X584542Y-41188D01*
X591875Y-41188D01*
G37*
G36*
X588208Y-44855D02*
X572708Y-44855D01*
X572708Y-37522D01*
X588208Y-37522D01*
X588208Y-44855D01*
G37*
G54D22*
G36*
X467443Y-264049D02*
X467443Y-248549D01*
X474777Y-248549D01*
X474777Y-264049D01*
X467443Y-264049D01*
G37*
G36*
X471110Y-260382D02*
X486610Y-260382D01*
X486610Y-267716D01*
X471110Y-267716D01*
X471110Y-260382D01*
G37*
G36*
X474777Y-264049D02*
X474777Y-279549D01*
X467443Y-279549D01*
X467443Y-264049D01*
X474777Y-264049D01*
G37*
G36*
X471110Y-267716D02*
X455610Y-267716D01*
X455610Y-260382D01*
X471110Y-260382D01*
X471110Y-267716D01*
G37*
G54D22*
G36*
X-370617Y-184150D02*
X-370617Y-168650D01*
X-363283Y-168650D01*
X-363283Y-184150D01*
X-370617Y-184150D01*
G37*
G36*
X-366950Y-180483D02*
X-351450Y-180483D01*
X-351450Y-187817D01*
X-366950Y-187817D01*
X-366950Y-180483D01*
G37*
G36*
X-363283Y-184150D02*
X-363283Y-199650D01*
X-370617Y-199650D01*
X-370617Y-184150D01*
X-363283Y-184150D01*
G37*
G36*
X-366950Y-187817D02*
X-382450Y-187817D01*
X-382450Y-180483D01*
X-366950Y-180483D01*
X-366950Y-187817D01*
G37*
G54D22*
G36*
X-180117Y-266700D02*
X-180117Y-251200D01*
X-172783Y-251200D01*
X-172783Y-266700D01*
X-180117Y-266700D01*
G37*
G36*
X-176450Y-263033D02*
X-160950Y-263033D01*
X-160950Y-270367D01*
X-176450Y-270367D01*
X-176450Y-263033D01*
G37*
G36*
X-172783Y-266700D02*
X-172783Y-282200D01*
X-180117Y-282200D01*
X-180117Y-266700D01*
X-172783Y-266700D01*
G37*
G36*
X-176450Y-270367D02*
X-191950Y-270367D01*
X-191950Y-263033D01*
X-176450Y-263033D01*
X-176450Y-270367D01*
G37*
G54D22*
G36*
X124683Y-273050D02*
X124683Y-257550D01*
X132017Y-257550D01*
X132017Y-273050D01*
X124683Y-273050D01*
G37*
G36*
X128350Y-269383D02*
X143850Y-269383D01*
X143850Y-276717D01*
X128350Y-276717D01*
X128350Y-269383D01*
G37*
G36*
X132017Y-273050D02*
X132017Y-288550D01*
X124683Y-288550D01*
X124683Y-273050D01*
X132017Y-273050D01*
G37*
G36*
X128350Y-276717D02*
X112850Y-276717D01*
X112850Y-269383D01*
X128350Y-269383D01*
X128350Y-276717D01*
G37*
G54D22*
G36*
X258033Y-285750D02*
X258033Y-270250D01*
X265367Y-270250D01*
X265367Y-285750D01*
X258033Y-285750D01*
G37*
G36*
X261700Y-282083D02*
X277200Y-282083D01*
X277200Y-289417D01*
X261700Y-289417D01*
X261700Y-282083D01*
G37*
G36*
X265367Y-285750D02*
X265367Y-301250D01*
X258033Y-301250D01*
X258033Y-285750D01*
X265367Y-285750D01*
G37*
G36*
X261700Y-289417D02*
X246200Y-289417D01*
X246200Y-282083D01*
X261700Y-282083D01*
X261700Y-289417D01*
G37*
G54D22*
G36*
X-586517Y-263526D02*
X-586517Y-248026D01*
X-579183Y-248026D01*
X-579183Y-263526D01*
X-586517Y-263526D01*
G37*
G36*
X-579183Y-263526D02*
X-579183Y-279026D01*
X-586517Y-279026D01*
X-586517Y-263526D01*
X-579183Y-263526D01*
G37*
G36*
X-582850Y-267193D02*
X-598350Y-267193D01*
X-598350Y-259859D01*
X-582850Y-259859D01*
X-582850Y-267193D01*
G37*
G54D24*
G36*
X-658727Y-246820D02*
X-644227Y-246820D01*
X-644227Y-260620D01*
X-658727Y-260620D01*
X-658727Y-246820D01*
G37*
G36*
X-651827Y-253720D02*
X-651827Y-268220D01*
X-665627Y-268220D01*
X-665627Y-253720D01*
X-651827Y-253720D01*
G37*
G36*
X-658727Y-260620D02*
X-673227Y-260620D01*
X-673227Y-246820D01*
X-658727Y-246820D01*
X-658727Y-260620D01*
G37*
G36*
X-665627Y-253720D02*
X-665627Y-239220D01*
X-651827Y-239220D01*
X-651827Y-253720D01*
X-665627Y-253720D01*
G37*
G54D24*
G36*
X541423Y-246820D02*
X555923Y-246820D01*
X555923Y-260620D01*
X541423Y-260620D01*
X541423Y-246820D01*
G37*
G36*
X548323Y-253720D02*
X548323Y-268220D01*
X534523Y-268220D01*
X534523Y-253720D01*
X548323Y-253720D01*
G37*
G36*
X541423Y-260620D02*
X526923Y-260620D01*
X526923Y-246820D01*
X541423Y-246820D01*
X541423Y-260620D01*
G37*
G36*
X534523Y-253720D02*
X534523Y-239220D01*
X548323Y-239220D01*
X548323Y-253720D01*
X534523Y-253720D01*
G37*
G54D22*
G36*
X-662394Y-253720D02*
X-662394Y-238220D01*
X-655060Y-238220D01*
X-655060Y-253720D01*
X-662394Y-253720D01*
G37*
G36*
X-658727Y-250053D02*
X-643227Y-250053D01*
X-643227Y-257386D01*
X-658727Y-257386D01*
X-658727Y-250053D01*
G37*
G36*
X-655060Y-253720D02*
X-655060Y-269220D01*
X-662394Y-269220D01*
X-662394Y-253720D01*
X-655060Y-253720D01*
G37*
G36*
X-658727Y-257386D02*
X-674227Y-257386D01*
X-674227Y-250053D01*
X-658727Y-250053D01*
X-658727Y-257386D01*
G37*
G54D22*
G36*
X-704508Y-231688D02*
X-704508Y-216188D01*
X-697175Y-216188D01*
X-697175Y-231688D01*
X-704508Y-231688D01*
G37*
G36*
X-700842Y-228022D02*
X-685342Y-228022D01*
X-685342Y-235355D01*
X-700842Y-235355D01*
X-700842Y-228022D01*
G37*
G36*
X-697175Y-231688D02*
X-697175Y-247188D01*
X-704508Y-247188D01*
X-704508Y-231688D01*
X-697175Y-231688D01*
G37*
G36*
X-700842Y-235355D02*
X-716342Y-235355D01*
X-716342Y-228022D01*
X-700842Y-228022D01*
X-700842Y-235355D01*
G37*
G54D22*
G36*
X537756Y-253720D02*
X537756Y-238220D01*
X545090Y-238220D01*
X545090Y-253720D01*
X537756Y-253720D01*
G37*
G36*
X541423Y-250053D02*
X556923Y-250053D01*
X556923Y-257386D01*
X541423Y-257386D01*
X541423Y-250053D01*
G37*
G36*
X545090Y-253720D02*
X545090Y-269220D01*
X537756Y-269220D01*
X537756Y-253720D01*
X545090Y-253720D01*
G37*
G36*
X541423Y-257386D02*
X525923Y-257386D01*
X525923Y-250053D01*
X541423Y-250053D01*
X541423Y-257386D01*
G37*
G54D22*
G36*
X584542Y-244388D02*
X584542Y-228888D01*
X591875Y-228888D01*
X591875Y-244388D01*
X584542Y-244388D01*
G37*
G36*
X588208Y-240722D02*
X603708Y-240722D01*
X603708Y-248055D01*
X588208Y-248055D01*
X588208Y-240722D01*
G37*
G36*
X591875Y-244388D02*
X591875Y-259888D01*
X584542Y-259888D01*
X584542Y-244388D01*
X591875Y-244388D01*
G37*
G36*
X588208Y-248055D02*
X572708Y-248055D01*
X572708Y-240722D01*
X588208Y-240722D01*
X588208Y-248055D01*
G37*
G54D22*
G36*
X467443Y-467249D02*
X467443Y-451749D01*
X474777Y-451749D01*
X474777Y-467249D01*
X467443Y-467249D01*
G37*
G36*
X471110Y-463582D02*
X486610Y-463582D01*
X486610Y-470916D01*
X471110Y-470916D01*
X471110Y-463582D01*
G37*
G36*
X474777Y-467249D02*
X474777Y-482749D01*
X467443Y-482749D01*
X467443Y-467249D01*
X474777Y-467249D01*
G37*
G36*
X471110Y-470916D02*
X455610Y-470916D01*
X455610Y-463582D01*
X471110Y-463582D01*
X471110Y-470916D01*
G37*
G54D22*
G36*
X-370617Y-387350D02*
X-370617Y-371850D01*
X-363283Y-371850D01*
X-363283Y-387350D01*
X-370617Y-387350D01*
G37*
G36*
X-366950Y-383683D02*
X-351450Y-383683D01*
X-351450Y-391017D01*
X-366950Y-391017D01*
X-366950Y-383683D01*
G37*
G36*
X-363283Y-387350D02*
X-363283Y-402850D01*
X-370617Y-402850D01*
X-370617Y-387350D01*
X-363283Y-387350D01*
G37*
G36*
X-366950Y-391017D02*
X-382450Y-391017D01*
X-382450Y-383683D01*
X-366950Y-383683D01*
X-366950Y-391017D01*
G37*
G54D22*
G36*
X-180117Y-469900D02*
X-180117Y-454400D01*
X-172783Y-454400D01*
X-172783Y-469900D01*
X-180117Y-469900D01*
G37*
G36*
X-176450Y-466233D02*
X-160950Y-466233D01*
X-160950Y-473567D01*
X-176450Y-473567D01*
X-176450Y-466233D01*
G37*
G36*
X-172783Y-469900D02*
X-172783Y-485400D01*
X-180117Y-485400D01*
X-180117Y-469900D01*
X-172783Y-469900D01*
G37*
G36*
X-176450Y-473567D02*
X-191950Y-473567D01*
X-191950Y-466233D01*
X-176450Y-466233D01*
X-176450Y-473567D01*
G37*
G54D22*
G36*
X124683Y-476250D02*
X124683Y-460750D01*
X132017Y-460750D01*
X132017Y-476250D01*
X124683Y-476250D01*
G37*
G36*
X128350Y-472583D02*
X143850Y-472583D01*
X143850Y-479917D01*
X128350Y-479917D01*
X128350Y-472583D01*
G37*
G36*
X132017Y-476250D02*
X132017Y-491750D01*
X124683Y-491750D01*
X124683Y-476250D01*
X132017Y-476250D01*
G37*
G36*
X128350Y-479917D02*
X112850Y-479917D01*
X112850Y-472583D01*
X128350Y-472583D01*
X128350Y-479917D01*
G37*
G54D22*
G36*
X258033Y-488950D02*
X258033Y-473450D01*
X265367Y-473450D01*
X265367Y-488950D01*
X258033Y-488950D01*
G37*
G36*
X261700Y-485283D02*
X277200Y-485283D01*
X277200Y-492617D01*
X261700Y-492617D01*
X261700Y-485283D01*
G37*
G36*
X265367Y-488950D02*
X265367Y-504450D01*
X258033Y-504450D01*
X258033Y-488950D01*
X265367Y-488950D01*
G37*
G36*
X261700Y-492617D02*
X246200Y-492617D01*
X246200Y-485283D01*
X261700Y-485283D01*
X261700Y-492617D01*
G37*
G54D22*
G36*
X-586517Y-466726D02*
X-586517Y-451226D01*
X-579183Y-451226D01*
X-579183Y-466726D01*
X-586517Y-466726D01*
G37*
G36*
X-579183Y-466726D02*
X-579183Y-482226D01*
X-586517Y-482226D01*
X-586517Y-466726D01*
X-579183Y-466726D01*
G37*
G36*
X-582850Y-470393D02*
X-598350Y-470393D01*
X-598350Y-463059D01*
X-582850Y-463059D01*
X-582850Y-470393D01*
G37*
G54D24*
G36*
X-658727Y-450020D02*
X-644227Y-450020D01*
X-644227Y-463820D01*
X-658727Y-463820D01*
X-658727Y-450020D01*
G37*
G36*
X-651827Y-456920D02*
X-651827Y-471420D01*
X-665627Y-471420D01*
X-665627Y-456920D01*
X-651827Y-456920D01*
G37*
G36*
X-658727Y-463820D02*
X-673227Y-463820D01*
X-673227Y-450020D01*
X-658727Y-450020D01*
X-658727Y-463820D01*
G37*
G36*
X-665627Y-456920D02*
X-665627Y-442420D01*
X-651827Y-442420D01*
X-651827Y-456920D01*
X-665627Y-456920D01*
G37*
G54D24*
G36*
X541423Y-450020D02*
X555923Y-450020D01*
X555923Y-463820D01*
X541423Y-463820D01*
X541423Y-450020D01*
G37*
G36*
X548323Y-456920D02*
X548323Y-471420D01*
X534523Y-471420D01*
X534523Y-456920D01*
X548323Y-456920D01*
G37*
G36*
X541423Y-463820D02*
X526923Y-463820D01*
X526923Y-450020D01*
X541423Y-450020D01*
X541423Y-463820D01*
G37*
G36*
X534523Y-456920D02*
X534523Y-442420D01*
X548323Y-442420D01*
X548323Y-456920D01*
X534523Y-456920D01*
G37*
G54D22*
G36*
X-662394Y-456920D02*
X-662394Y-441420D01*
X-655060Y-441420D01*
X-655060Y-456920D01*
X-662394Y-456920D01*
G37*
G36*
X-658727Y-453253D02*
X-643227Y-453253D01*
X-643227Y-460586D01*
X-658727Y-460586D01*
X-658727Y-453253D01*
G37*
G36*
X-655060Y-456920D02*
X-655060Y-472420D01*
X-662394Y-472420D01*
X-662394Y-456920D01*
X-655060Y-456920D01*
G37*
G36*
X-658727Y-460586D02*
X-674227Y-460586D01*
X-674227Y-453253D01*
X-658727Y-453253D01*
X-658727Y-460586D01*
G37*
G54D22*
G36*
X-704508Y-434888D02*
X-704508Y-419388D01*
X-697175Y-419388D01*
X-697175Y-434888D01*
X-704508Y-434888D01*
G37*
G36*
X-700842Y-431222D02*
X-685342Y-431222D01*
X-685342Y-438555D01*
X-700842Y-438555D01*
X-700842Y-431222D01*
G37*
G36*
X-697175Y-434888D02*
X-697175Y-450388D01*
X-704508Y-450388D01*
X-704508Y-434888D01*
X-697175Y-434888D01*
G37*
G36*
X-700842Y-438555D02*
X-716342Y-438555D01*
X-716342Y-431222D01*
X-700842Y-431222D01*
X-700842Y-438555D01*
G37*
G54D22*
G36*
X537756Y-456920D02*
X537756Y-441420D01*
X545090Y-441420D01*
X545090Y-456920D01*
X537756Y-456920D01*
G37*
G36*
X541423Y-453253D02*
X556923Y-453253D01*
X556923Y-460586D01*
X541423Y-460586D01*
X541423Y-453253D01*
G37*
G36*
X545090Y-456920D02*
X545090Y-472420D01*
X537756Y-472420D01*
X537756Y-456920D01*
X545090Y-456920D01*
G37*
G36*
X541423Y-460586D02*
X525923Y-460586D01*
X525923Y-453253D01*
X541423Y-453253D01*
X541423Y-460586D01*
G37*
G54D22*
G36*
X584542Y-447588D02*
X584542Y-432088D01*
X591875Y-432088D01*
X591875Y-447588D01*
X584542Y-447588D01*
G37*
G36*
X588208Y-443922D02*
X603708Y-443922D01*
X603708Y-451255D01*
X588208Y-451255D01*
X588208Y-443922D01*
G37*
G36*
X591875Y-447588D02*
X591875Y-463088D01*
X584542Y-463088D01*
X584542Y-447588D01*
X591875Y-447588D01*
G37*
G36*
X588208Y-451255D02*
X572708Y-451255D01*
X572708Y-443922D01*
X588208Y-443922D01*
X588208Y-451255D01*
G37*
G54D22*
G36*
X467443Y-670449D02*
X467443Y-654949D01*
X474777Y-654949D01*
X474777Y-670449D01*
X467443Y-670449D01*
G37*
G36*
X471110Y-666782D02*
X486610Y-666782D01*
X486610Y-674116D01*
X471110Y-674116D01*
X471110Y-666782D01*
G37*
G36*
X474777Y-670449D02*
X474777Y-685949D01*
X467443Y-685949D01*
X467443Y-670449D01*
X474777Y-670449D01*
G37*
G36*
X471110Y-674116D02*
X455610Y-674116D01*
X455610Y-666782D01*
X471110Y-666782D01*
X471110Y-674116D01*
G37*
G54D22*
G36*
X-370617Y-590550D02*
X-370617Y-575050D01*
X-363283Y-575050D01*
X-363283Y-590550D01*
X-370617Y-590550D01*
G37*
G36*
X-366950Y-586883D02*
X-351450Y-586883D01*
X-351450Y-594217D01*
X-366950Y-594217D01*
X-366950Y-586883D01*
G37*
G36*
X-363283Y-590550D02*
X-363283Y-606050D01*
X-370617Y-606050D01*
X-370617Y-590550D01*
X-363283Y-590550D01*
G37*
G36*
X-366950Y-594217D02*
X-382450Y-594217D01*
X-382450Y-586883D01*
X-366950Y-586883D01*
X-366950Y-594217D01*
G37*
G54D22*
G36*
X-180117Y-673100D02*
X-180117Y-657600D01*
X-172783Y-657600D01*
X-172783Y-673100D01*
X-180117Y-673100D01*
G37*
G36*
X-176450Y-669433D02*
X-160950Y-669433D01*
X-160950Y-676767D01*
X-176450Y-676767D01*
X-176450Y-669433D01*
G37*
G36*
X-172783Y-673100D02*
X-172783Y-688600D01*
X-180117Y-688600D01*
X-180117Y-673100D01*
X-172783Y-673100D01*
G37*
G36*
X-176450Y-676767D02*
X-191950Y-676767D01*
X-191950Y-669433D01*
X-176450Y-669433D01*
X-176450Y-676767D01*
G37*
G54D22*
G36*
X124683Y-679450D02*
X124683Y-663950D01*
X132017Y-663950D01*
X132017Y-679450D01*
X124683Y-679450D01*
G37*
G36*
X128350Y-675783D02*
X143850Y-675783D01*
X143850Y-683117D01*
X128350Y-683117D01*
X128350Y-675783D01*
G37*
G36*
X132017Y-679450D02*
X132017Y-694950D01*
X124683Y-694950D01*
X124683Y-679450D01*
X132017Y-679450D01*
G37*
G36*
X128350Y-683117D02*
X112850Y-683117D01*
X112850Y-675783D01*
X128350Y-675783D01*
X128350Y-683117D01*
G37*
G54D22*
G36*
X258033Y-692150D02*
X258033Y-676650D01*
X265367Y-676650D01*
X265367Y-692150D01*
X258033Y-692150D01*
G37*
G36*
X261700Y-688483D02*
X277200Y-688483D01*
X277200Y-695817D01*
X261700Y-695817D01*
X261700Y-688483D01*
G37*
G36*
X265367Y-692150D02*
X265367Y-707650D01*
X258033Y-707650D01*
X258033Y-692150D01*
X265367Y-692150D01*
G37*
G36*
X261700Y-695817D02*
X246200Y-695817D01*
X246200Y-688483D01*
X261700Y-688483D01*
X261700Y-695817D01*
G37*
G54D22*
G36*
X-586517Y-669926D02*
X-586517Y-654426D01*
X-579183Y-654426D01*
X-579183Y-669926D01*
X-586517Y-669926D01*
G37*
G36*
X-579183Y-669926D02*
X-579183Y-685426D01*
X-586517Y-685426D01*
X-586517Y-669926D01*
X-579183Y-669926D01*
G37*
G36*
X-582850Y-673593D02*
X-598350Y-673593D01*
X-598350Y-666259D01*
X-582850Y-666259D01*
X-582850Y-673593D01*
G37*
G54D24*
G36*
X-658727Y-653220D02*
X-644227Y-653220D01*
X-644227Y-667020D01*
X-658727Y-667020D01*
X-658727Y-653220D01*
G37*
G36*
X-651827Y-660120D02*
X-651827Y-674620D01*
X-665627Y-674620D01*
X-665627Y-660120D01*
X-651827Y-660120D01*
G37*
G36*
X-658727Y-667020D02*
X-673227Y-667020D01*
X-673227Y-653220D01*
X-658727Y-653220D01*
X-658727Y-667020D01*
G37*
G36*
X-665627Y-660120D02*
X-665627Y-645620D01*
X-651827Y-645620D01*
X-651827Y-660120D01*
X-665627Y-660120D01*
G37*
G54D24*
G36*
X541423Y-653220D02*
X555923Y-653220D01*
X555923Y-667020D01*
X541423Y-667020D01*
X541423Y-653220D01*
G37*
G36*
X548323Y-660120D02*
X548323Y-674620D01*
X534523Y-674620D01*
X534523Y-660120D01*
X548323Y-660120D01*
G37*
G36*
X541423Y-667020D02*
X526923Y-667020D01*
X526923Y-653220D01*
X541423Y-653220D01*
X541423Y-667020D01*
G37*
G36*
X534523Y-660120D02*
X534523Y-645620D01*
X548323Y-645620D01*
X548323Y-660120D01*
X534523Y-660120D01*
G37*
G54D22*
G36*
X-662394Y-660120D02*
X-662394Y-644620D01*
X-655060Y-644620D01*
X-655060Y-660120D01*
X-662394Y-660120D01*
G37*
G36*
X-658727Y-656453D02*
X-643227Y-656453D01*
X-643227Y-663786D01*
X-658727Y-663786D01*
X-658727Y-656453D01*
G37*
G36*
X-655060Y-660120D02*
X-655060Y-675620D01*
X-662394Y-675620D01*
X-662394Y-660120D01*
X-655060Y-660120D01*
G37*
G36*
X-658727Y-663786D02*
X-674227Y-663786D01*
X-674227Y-656453D01*
X-658727Y-656453D01*
X-658727Y-663786D01*
G37*
G54D22*
G36*
X-704508Y-638088D02*
X-704508Y-622588D01*
X-697175Y-622588D01*
X-697175Y-638088D01*
X-704508Y-638088D01*
G37*
G36*
X-700842Y-634422D02*
X-685342Y-634422D01*
X-685342Y-641755D01*
X-700842Y-641755D01*
X-700842Y-634422D01*
G37*
G36*
X-697175Y-638088D02*
X-697175Y-653588D01*
X-704508Y-653588D01*
X-704508Y-638088D01*
X-697175Y-638088D01*
G37*
G36*
X-700842Y-641755D02*
X-716342Y-641755D01*
X-716342Y-634422D01*
X-700842Y-634422D01*
X-700842Y-641755D01*
G37*
G54D22*
G36*
X537756Y-660120D02*
X537756Y-644620D01*
X545090Y-644620D01*
X545090Y-660120D01*
X537756Y-660120D01*
G37*
G36*
X541423Y-656453D02*
X556923Y-656453D01*
X556923Y-663786D01*
X541423Y-663786D01*
X541423Y-656453D01*
G37*
G36*
X545090Y-660120D02*
X545090Y-675620D01*
X537756Y-675620D01*
X537756Y-660120D01*
X545090Y-660120D01*
G37*
G36*
X541423Y-663786D02*
X525923Y-663786D01*
X525923Y-656453D01*
X541423Y-656453D01*
X541423Y-663786D01*
G37*
G54D22*
G36*
X584542Y-650788D02*
X584542Y-635288D01*
X591875Y-635288D01*
X591875Y-650788D01*
X584542Y-650788D01*
G37*
G36*
X588208Y-647122D02*
X603708Y-647122D01*
X603708Y-654455D01*
X588208Y-654455D01*
X588208Y-647122D01*
G37*
G36*
X591875Y-650788D02*
X591875Y-666288D01*
X584542Y-666288D01*
X584542Y-650788D01*
X591875Y-650788D01*
G37*
G36*
X588208Y-654455D02*
X572708Y-654455D01*
X572708Y-647122D01*
X588208Y-647122D01*
X588208Y-654455D01*
G37*
G54D22*
G36*
X467443Y-873649D02*
X467443Y-858149D01*
X474777Y-858149D01*
X474777Y-873649D01*
X467443Y-873649D01*
G37*
G36*
X471110Y-869982D02*
X486610Y-869982D01*
X486610Y-877316D01*
X471110Y-877316D01*
X471110Y-869982D01*
G37*
G36*
X474777Y-873649D02*
X474777Y-889149D01*
X467443Y-889149D01*
X467443Y-873649D01*
X474777Y-873649D01*
G37*
G36*
X471110Y-877316D02*
X455610Y-877316D01*
X455610Y-869982D01*
X471110Y-869982D01*
X471110Y-877316D01*
G37*
G54D22*
G36*
X-370617Y-793750D02*
X-370617Y-778250D01*
X-363283Y-778250D01*
X-363283Y-793750D01*
X-370617Y-793750D01*
G37*
G36*
X-366950Y-790083D02*
X-351450Y-790083D01*
X-351450Y-797417D01*
X-366950Y-797417D01*
X-366950Y-790083D01*
G37*
G36*
X-363283Y-793750D02*
X-363283Y-809250D01*
X-370617Y-809250D01*
X-370617Y-793750D01*
X-363283Y-793750D01*
G37*
G36*
X-366950Y-797417D02*
X-382450Y-797417D01*
X-382450Y-790083D01*
X-366950Y-790083D01*
X-366950Y-797417D01*
G37*
G54D22*
G36*
X-180117Y-876300D02*
X-180117Y-860800D01*
X-172783Y-860800D01*
X-172783Y-876300D01*
X-180117Y-876300D01*
G37*
G36*
X-176450Y-872633D02*
X-160950Y-872633D01*
X-160950Y-879967D01*
X-176450Y-879967D01*
X-176450Y-872633D01*
G37*
G36*
X-172783Y-876300D02*
X-172783Y-891800D01*
X-180117Y-891800D01*
X-180117Y-876300D01*
X-172783Y-876300D01*
G37*
G36*
X-176450Y-879967D02*
X-191950Y-879967D01*
X-191950Y-872633D01*
X-176450Y-872633D01*
X-176450Y-879967D01*
G37*
G54D22*
G36*
X124683Y-882650D02*
X124683Y-867150D01*
X132017Y-867150D01*
X132017Y-882650D01*
X124683Y-882650D01*
G37*
G36*
X128350Y-878983D02*
X143850Y-878983D01*
X143850Y-886317D01*
X128350Y-886317D01*
X128350Y-878983D01*
G37*
G36*
X132017Y-882650D02*
X132017Y-898150D01*
X124683Y-898150D01*
X124683Y-882650D01*
X132017Y-882650D01*
G37*
G36*
X128350Y-886317D02*
X112850Y-886317D01*
X112850Y-878983D01*
X128350Y-878983D01*
X128350Y-886317D01*
G37*
G54D22*
G36*
X258033Y-895350D02*
X258033Y-879850D01*
X265367Y-879850D01*
X265367Y-895350D01*
X258033Y-895350D01*
G37*
G36*
X261700Y-891683D02*
X277200Y-891683D01*
X277200Y-899017D01*
X261700Y-899017D01*
X261700Y-891683D01*
G37*
G36*
X265367Y-895350D02*
X265367Y-910850D01*
X258033Y-910850D01*
X258033Y-895350D01*
X265367Y-895350D01*
G37*
G36*
X261700Y-899017D02*
X246200Y-899017D01*
X246200Y-891683D01*
X261700Y-891683D01*
X261700Y-899017D01*
G37*
G54D22*
G36*
X-586517Y-873126D02*
X-586517Y-857626D01*
X-579183Y-857626D01*
X-579183Y-873126D01*
X-586517Y-873126D01*
G37*
G36*
X-579183Y-873126D02*
X-579183Y-888626D01*
X-586517Y-888626D01*
X-586517Y-873126D01*
X-579183Y-873126D01*
G37*
G36*
X-582850Y-876793D02*
X-598350Y-876793D01*
X-598350Y-869459D01*
X-582850Y-869459D01*
X-582850Y-876793D01*
G37*
G54D24*
G36*
X-658727Y-856420D02*
X-644227Y-856420D01*
X-644227Y-870220D01*
X-658727Y-870220D01*
X-658727Y-856420D01*
G37*
G36*
X-651827Y-863320D02*
X-651827Y-877820D01*
X-665627Y-877820D01*
X-665627Y-863320D01*
X-651827Y-863320D01*
G37*
G36*
X-658727Y-870220D02*
X-673227Y-870220D01*
X-673227Y-856420D01*
X-658727Y-856420D01*
X-658727Y-870220D01*
G37*
G36*
X-665627Y-863320D02*
X-665627Y-848820D01*
X-651827Y-848820D01*
X-651827Y-863320D01*
X-665627Y-863320D01*
G37*
G54D24*
G36*
X541423Y-856420D02*
X555923Y-856420D01*
X555923Y-870220D01*
X541423Y-870220D01*
X541423Y-856420D01*
G37*
G36*
X548323Y-863320D02*
X548323Y-877820D01*
X534523Y-877820D01*
X534523Y-863320D01*
X548323Y-863320D01*
G37*
G36*
X541423Y-870220D02*
X526923Y-870220D01*
X526923Y-856420D01*
X541423Y-856420D01*
X541423Y-870220D01*
G37*
G36*
X534523Y-863320D02*
X534523Y-848820D01*
X548323Y-848820D01*
X548323Y-863320D01*
X534523Y-863320D01*
G37*
G54D22*
G36*
X-662394Y-863320D02*
X-662394Y-847820D01*
X-655060Y-847820D01*
X-655060Y-863320D01*
X-662394Y-863320D01*
G37*
G36*
X-658727Y-859653D02*
X-643227Y-859653D01*
X-643227Y-866986D01*
X-658727Y-866986D01*
X-658727Y-859653D01*
G37*
G36*
X-655060Y-863320D02*
X-655060Y-878820D01*
X-662394Y-878820D01*
X-662394Y-863320D01*
X-655060Y-863320D01*
G37*
G36*
X-658727Y-866986D02*
X-674227Y-866986D01*
X-674227Y-859653D01*
X-658727Y-859653D01*
X-658727Y-866986D01*
G37*
G54D22*
G36*
X-704508Y-841288D02*
X-704508Y-825788D01*
X-697175Y-825788D01*
X-697175Y-841288D01*
X-704508Y-841288D01*
G37*
G36*
X-700842Y-837622D02*
X-685342Y-837622D01*
X-685342Y-844955D01*
X-700842Y-844955D01*
X-700842Y-837622D01*
G37*
G36*
X-697175Y-841288D02*
X-697175Y-856788D01*
X-704508Y-856788D01*
X-704508Y-841288D01*
X-697175Y-841288D01*
G37*
G36*
X-700842Y-844955D02*
X-716342Y-844955D01*
X-716342Y-837622D01*
X-700842Y-837622D01*
X-700842Y-844955D01*
G37*
G54D22*
G36*
X537756Y-863320D02*
X537756Y-847820D01*
X545090Y-847820D01*
X545090Y-863320D01*
X537756Y-863320D01*
G37*
G36*
X541423Y-859653D02*
X556923Y-859653D01*
X556923Y-866986D01*
X541423Y-866986D01*
X541423Y-859653D01*
G37*
G36*
X545090Y-863320D02*
X545090Y-878820D01*
X537756Y-878820D01*
X537756Y-863320D01*
X545090Y-863320D01*
G37*
G36*
X541423Y-866986D02*
X525923Y-866986D01*
X525923Y-859653D01*
X541423Y-859653D01*
X541423Y-866986D01*
G37*
G54D22*
G36*
X584542Y-853988D02*
X584542Y-838488D01*
X591875Y-838488D01*
X591875Y-853988D01*
X584542Y-853988D01*
G37*
G36*
X588208Y-850322D02*
X603708Y-850322D01*
X603708Y-857655D01*
X588208Y-857655D01*
X588208Y-850322D01*
G37*
G36*
X591875Y-853988D02*
X591875Y-869488D01*
X584542Y-869488D01*
X584542Y-853988D01*
X591875Y-853988D01*
G37*
G36*
X588208Y-857655D02*
X572708Y-857655D01*
X572708Y-850322D01*
X588208Y-850322D01*
X588208Y-857655D01*
G37*
G54D22*
G36*
X467443Y-1076849D02*
X467443Y-1061349D01*
X474777Y-1061349D01*
X474777Y-1076849D01*
X467443Y-1076849D01*
G37*
G36*
X471110Y-1073182D02*
X486610Y-1073182D01*
X486610Y-1080516D01*
X471110Y-1080516D01*
X471110Y-1073182D01*
G37*
G36*
X474777Y-1076849D02*
X474777Y-1092349D01*
X467443Y-1092349D01*
X467443Y-1076849D01*
X474777Y-1076849D01*
G37*
G36*
X471110Y-1080516D02*
X455610Y-1080516D01*
X455610Y-1073182D01*
X471110Y-1073182D01*
X471110Y-1080516D01*
G37*
G54D22*
G36*
X-370617Y-996950D02*
X-370617Y-981450D01*
X-363283Y-981450D01*
X-363283Y-996950D01*
X-370617Y-996950D01*
G37*
G36*
X-366950Y-993283D02*
X-351450Y-993283D01*
X-351450Y-1000617D01*
X-366950Y-1000617D01*
X-366950Y-993283D01*
G37*
G36*
X-363283Y-996950D02*
X-363283Y-1012450D01*
X-370617Y-1012450D01*
X-370617Y-996950D01*
X-363283Y-996950D01*
G37*
G36*
X-366950Y-1000617D02*
X-382450Y-1000617D01*
X-382450Y-993283D01*
X-366950Y-993283D01*
X-366950Y-1000617D01*
G37*
G54D22*
G36*
X-180117Y-1079500D02*
X-180117Y-1064000D01*
X-172783Y-1064000D01*
X-172783Y-1079500D01*
X-180117Y-1079500D01*
G37*
G36*
X-176450Y-1075833D02*
X-160950Y-1075833D01*
X-160950Y-1083167D01*
X-176450Y-1083167D01*
X-176450Y-1075833D01*
G37*
G36*
X-172783Y-1079500D02*
X-172783Y-1095000D01*
X-180117Y-1095000D01*
X-180117Y-1079500D01*
X-172783Y-1079500D01*
G37*
G36*
X-176450Y-1083167D02*
X-191950Y-1083167D01*
X-191950Y-1075833D01*
X-176450Y-1075833D01*
X-176450Y-1083167D01*
G37*
G54D22*
G36*
X124683Y-1085850D02*
X124683Y-1070350D01*
X132017Y-1070350D01*
X132017Y-1085850D01*
X124683Y-1085850D01*
G37*
G36*
X128350Y-1082183D02*
X143850Y-1082183D01*
X143850Y-1089517D01*
X128350Y-1089517D01*
X128350Y-1082183D01*
G37*
G36*
X132017Y-1085850D02*
X132017Y-1101350D01*
X124683Y-1101350D01*
X124683Y-1085850D01*
X132017Y-1085850D01*
G37*
G36*
X128350Y-1089517D02*
X112850Y-1089517D01*
X112850Y-1082183D01*
X128350Y-1082183D01*
X128350Y-1089517D01*
G37*
G54D22*
G36*
X258033Y-1098550D02*
X258033Y-1083050D01*
X265367Y-1083050D01*
X265367Y-1098550D01*
X258033Y-1098550D01*
G37*
G36*
X261700Y-1094883D02*
X277200Y-1094883D01*
X277200Y-1102217D01*
X261700Y-1102217D01*
X261700Y-1094883D01*
G37*
G36*
X265367Y-1098550D02*
X265367Y-1114050D01*
X258033Y-1114050D01*
X258033Y-1098550D01*
X265367Y-1098550D01*
G37*
G36*
X261700Y-1102217D02*
X246200Y-1102217D01*
X246200Y-1094883D01*
X261700Y-1094883D01*
X261700Y-1102217D01*
G37*
G54D22*
G36*
X-586517Y-1076326D02*
X-586517Y-1060826D01*
X-579183Y-1060826D01*
X-579183Y-1076326D01*
X-586517Y-1076326D01*
G37*
G36*
X-582850Y-1072659D02*
X-567350Y-1072659D01*
X-567350Y-1079993D01*
X-582850Y-1079993D01*
X-582850Y-1072659D01*
G37*
G36*
X-579183Y-1076326D02*
X-579183Y-1091826D01*
X-586517Y-1091826D01*
X-586517Y-1076326D01*
X-579183Y-1076326D01*
G37*
G36*
X-582850Y-1079993D02*
X-598350Y-1079993D01*
X-598350Y-1072659D01*
X-582850Y-1072659D01*
X-582850Y-1079993D01*
G37*
G54D24*
G36*
X-658727Y-1059620D02*
X-644227Y-1059620D01*
X-644227Y-1073420D01*
X-658727Y-1073420D01*
X-658727Y-1059620D01*
G37*
G36*
X-651827Y-1066520D02*
X-651827Y-1081020D01*
X-665627Y-1081020D01*
X-665627Y-1066520D01*
X-651827Y-1066520D01*
G37*
G36*
X-658727Y-1073420D02*
X-673227Y-1073420D01*
X-673227Y-1059620D01*
X-658727Y-1059620D01*
X-658727Y-1073420D01*
G37*
G36*
X-665627Y-1066520D02*
X-665627Y-1052020D01*
X-651827Y-1052020D01*
X-651827Y-1066520D01*
X-665627Y-1066520D01*
G37*
G54D24*
G36*
X541423Y-1059620D02*
X555923Y-1059620D01*
X555923Y-1073420D01*
X541423Y-1073420D01*
X541423Y-1059620D01*
G37*
G36*
X548323Y-1066520D02*
X548323Y-1081020D01*
X534523Y-1081020D01*
X534523Y-1066520D01*
X548323Y-1066520D01*
G37*
G36*
X541423Y-1073420D02*
X526923Y-1073420D01*
X526923Y-1059620D01*
X541423Y-1059620D01*
X541423Y-1073420D01*
G37*
G36*
X534523Y-1066520D02*
X534523Y-1052020D01*
X548323Y-1052020D01*
X548323Y-1066520D01*
X534523Y-1066520D01*
G37*
G54D22*
G36*
X-662394Y-1066520D02*
X-662394Y-1051020D01*
X-655060Y-1051020D01*
X-655060Y-1066520D01*
X-662394Y-1066520D01*
G37*
G36*
X-658727Y-1062853D02*
X-643227Y-1062853D01*
X-643227Y-1070186D01*
X-658727Y-1070186D01*
X-658727Y-1062853D01*
G37*
G36*
X-655060Y-1066520D02*
X-655060Y-1082020D01*
X-662394Y-1082020D01*
X-662394Y-1066520D01*
X-655060Y-1066520D01*
G37*
G36*
X-658727Y-1070186D02*
X-674227Y-1070186D01*
X-674227Y-1062853D01*
X-658727Y-1062853D01*
X-658727Y-1070186D01*
G37*
G54D22*
G36*
X-704508Y-1044488D02*
X-704508Y-1028988D01*
X-697175Y-1028988D01*
X-697175Y-1044488D01*
X-704508Y-1044488D01*
G37*
G36*
X-700842Y-1040822D02*
X-685342Y-1040822D01*
X-685342Y-1048155D01*
X-700842Y-1048155D01*
X-700842Y-1040822D01*
G37*
G36*
X-697175Y-1044488D02*
X-697175Y-1059988D01*
X-704508Y-1059988D01*
X-704508Y-1044488D01*
X-697175Y-1044488D01*
G37*
G36*
X-700842Y-1048155D02*
X-716342Y-1048155D01*
X-716342Y-1040822D01*
X-700842Y-1040822D01*
X-700842Y-1048155D01*
G37*
G54D22*
G36*
X537756Y-1066520D02*
X537756Y-1051020D01*
X545090Y-1051020D01*
X545090Y-1066520D01*
X537756Y-1066520D01*
G37*
G36*
X541423Y-1062853D02*
X556923Y-1062853D01*
X556923Y-1070186D01*
X541423Y-1070186D01*
X541423Y-1062853D01*
G37*
G36*
X545090Y-1066520D02*
X545090Y-1082020D01*
X537756Y-1082020D01*
X537756Y-1066520D01*
X545090Y-1066520D01*
G37*
G36*
X541423Y-1070186D02*
X525923Y-1070186D01*
X525923Y-1062853D01*
X541423Y-1062853D01*
X541423Y-1070186D01*
G37*
G54D22*
G36*
X584542Y-1057188D02*
X584542Y-1041688D01*
X591875Y-1041688D01*
X591875Y-1057188D01*
X584542Y-1057188D01*
G37*
G36*
X588208Y-1053522D02*
X603708Y-1053522D01*
X603708Y-1060855D01*
X588208Y-1060855D01*
X588208Y-1053522D01*
G37*
G36*
X591875Y-1057188D02*
X591875Y-1072688D01*
X584542Y-1072688D01*
X584542Y-1057188D01*
X591875Y-1057188D01*
G37*
G36*
X588208Y-1060855D02*
X572708Y-1060855D01*
X572708Y-1053522D01*
X588208Y-1053522D01*
X588208Y-1060855D01*
G37*
G54D22*
G36*
X-821492Y-408012D02*
X-821492Y-392512D01*
X-814158Y-392512D01*
X-814158Y-408012D01*
X-821492Y-408012D01*
G37*
G36*
X-817825Y-404346D02*
X-802325Y-404346D01*
X-802325Y-411679D01*
X-817825Y-411679D01*
X-817825Y-404346D01*
G37*
G36*
X-814158Y-408012D02*
X-814158Y-423512D01*
X-821492Y-423512D01*
X-821492Y-408012D01*
X-814158Y-408012D01*
G37*
G36*
X-817825Y-411679D02*
X-833325Y-411679D01*
X-833325Y-404346D01*
X-817825Y-404346D01*
X-817825Y-411679D01*
G37*
G54D22*
G36*
X-770692Y-408012D02*
X-770692Y-392512D01*
X-763358Y-392512D01*
X-763358Y-408012D01*
X-770692Y-408012D01*
G37*
G36*
X-767025Y-404346D02*
X-751525Y-404346D01*
X-751525Y-411679D01*
X-767025Y-411679D01*
X-767025Y-404346D01*
G37*
G36*
X-763358Y-408012D02*
X-763358Y-423512D01*
X-770692Y-423512D01*
X-770692Y-408012D01*
X-763358Y-408012D01*
G37*
G36*
X-767025Y-411679D02*
X-782525Y-411679D01*
X-782525Y-404346D01*
X-767025Y-404346D01*
X-767025Y-411679D01*
G37*
G54D22*
G36*
X-770692Y-458812D02*
X-770692Y-443312D01*
X-763358Y-443312D01*
X-763358Y-458812D01*
X-770692Y-458812D01*
G37*
G36*
X-767025Y-455146D02*
X-751525Y-455146D01*
X-751525Y-462479D01*
X-767025Y-462479D01*
X-767025Y-455146D01*
G37*
G36*
X-763358Y-458812D02*
X-763358Y-474312D01*
X-770692Y-474312D01*
X-770692Y-458812D01*
X-763358Y-458812D01*
G37*
G36*
X-767025Y-462479D02*
X-782525Y-462479D01*
X-782525Y-455146D01*
X-767025Y-455146D01*
X-767025Y-462479D01*
G37*
G54D22*
G36*
X-821492Y-458812D02*
X-821492Y-443312D01*
X-814158Y-443312D01*
X-814158Y-458812D01*
X-821492Y-458812D01*
G37*
G36*
X-817825Y-455146D02*
X-802325Y-455146D01*
X-802325Y-462479D01*
X-817825Y-462479D01*
X-817825Y-455146D01*
G37*
G36*
X-814158Y-458812D02*
X-814158Y-474312D01*
X-821492Y-474312D01*
X-821492Y-458812D01*
X-814158Y-458812D01*
G37*
G36*
X-817825Y-462479D02*
X-833325Y-462479D01*
X-833325Y-455146D01*
X-817825Y-455146D01*
X-817825Y-462479D01*
G37*
G54D25*
G36*
X-552167Y363550D02*
X-552167Y378050D01*
X-540233Y378050D01*
X-540233Y363550D01*
X-552167Y363550D01*
G37*
G36*
X-546200Y369517D02*
X-531700Y369517D01*
X-531700Y357583D01*
X-546200Y357583D01*
X-546200Y369517D01*
G37*
G36*
X-540233Y363550D02*
X-540233Y349050D01*
X-552167Y349050D01*
X-552167Y363550D01*
X-540233Y363550D01*
G37*
G36*
X-546200Y357583D02*
X-560700Y357583D01*
X-560700Y369517D01*
X-546200Y369517D01*
X-546200Y357583D01*
G37*
G54D25*
G36*
X-389767Y363550D02*
X-389767Y378050D01*
X-377833Y378050D01*
X-377833Y363550D01*
X-389767Y363550D01*
G37*
G36*
X-383800Y369517D02*
X-369300Y369517D01*
X-369300Y357583D01*
X-383800Y357583D01*
X-383800Y369517D01*
G37*
G36*
X-377833Y363550D02*
X-377833Y349050D01*
X-389767Y349050D01*
X-389767Y363550D01*
X-377833Y363550D01*
G37*
G36*
X-383800Y357583D02*
X-398300Y357583D01*
X-398300Y369517D01*
X-383800Y369517D01*
X-383800Y357583D01*
G37*
G54D25*
G36*
X388233Y363550D02*
X388233Y378050D01*
X400167Y378050D01*
X400167Y363550D01*
X388233Y363550D01*
G37*
G36*
X394200Y369517D02*
X408700Y369517D01*
X408700Y357583D01*
X394200Y357583D01*
X394200Y369517D01*
G37*
G36*
X400167Y363550D02*
X400167Y349050D01*
X388233Y349050D01*
X388233Y363550D01*
X400167Y363550D01*
G37*
G36*
X394200Y357583D02*
X379700Y357583D01*
X379700Y369517D01*
X394200Y369517D01*
X394200Y357583D01*
G37*
G54D25*
G36*
X-522167Y-1168150D02*
X-522167Y-1153650D01*
X-510233Y-1153650D01*
X-510233Y-1168150D01*
X-522167Y-1168150D01*
G37*
G36*
X-516200Y-1162183D02*
X-501700Y-1162183D01*
X-501700Y-1174117D01*
X-516200Y-1174117D01*
X-516200Y-1162183D01*
G37*
G36*
X-510233Y-1168150D02*
X-510233Y-1182650D01*
X-522167Y-1182650D01*
X-522167Y-1168150D01*
X-510233Y-1168150D01*
G37*
G36*
X-516200Y-1174117D02*
X-530700Y-1174117D01*
X-530700Y-1162183D01*
X-516200Y-1162183D01*
X-516200Y-1174117D01*
G37*
G54D25*
G36*
X-369767Y-1168150D02*
X-369767Y-1153650D01*
X-357833Y-1153650D01*
X-357833Y-1168150D01*
X-369767Y-1168150D01*
G37*
G36*
X-363800Y-1162183D02*
X-349300Y-1162183D01*
X-349300Y-1174117D01*
X-363800Y-1174117D01*
X-363800Y-1162183D01*
G37*
G36*
X-357833Y-1168150D02*
X-357833Y-1182650D01*
X-369767Y-1182650D01*
X-369767Y-1168150D01*
X-357833Y-1168150D01*
G37*
G36*
X-363800Y-1174117D02*
X-378300Y-1174117D01*
X-378300Y-1162183D01*
X-363800Y-1162183D01*
X-363800Y-1174117D01*
G37*
G54D25*
G36*
X330633Y-1163150D02*
X330633Y-1148650D01*
X342567Y-1148650D01*
X342567Y-1163150D01*
X330633Y-1163150D01*
G37*
G36*
X336600Y-1157183D02*
X351100Y-1157183D01*
X351100Y-1169117D01*
X336600Y-1169117D01*
X336600Y-1157183D01*
G37*
G36*
X342567Y-1163150D02*
X342567Y-1177650D01*
X330633Y-1177650D01*
X330633Y-1163150D01*
X342567Y-1163150D01*
G37*
G36*
X336600Y-1169117D02*
X322100Y-1169117D01*
X322100Y-1157183D01*
X336600Y-1157183D01*
X336600Y-1169117D01*
G37*
G54D25*
G36*
X-801567Y-957250D02*
X-801567Y-942750D01*
X-789633Y-942750D01*
X-789633Y-957250D01*
X-801567Y-957250D01*
G37*
G36*
X-795600Y-951283D02*
X-781100Y-951283D01*
X-781100Y-963217D01*
X-795600Y-963217D01*
X-795600Y-951283D01*
G37*
G36*
X-789633Y-957250D02*
X-789633Y-971750D01*
X-801567Y-971750D01*
X-801567Y-957250D01*
X-789633Y-957250D01*
G37*
G36*
X-795600Y-963217D02*
X-810100Y-963217D01*
X-810100Y-951283D01*
X-795600Y-951283D01*
X-795600Y-963217D01*
G37*
G54D25*
G36*
X-801567Y58750D02*
X-801567Y73250D01*
X-789633Y73250D01*
X-789633Y58750D01*
X-801567Y58750D01*
G37*
G36*
X-795600Y64717D02*
X-781100Y64717D01*
X-781100Y52783D01*
X-795600Y52783D01*
X-795600Y64717D01*
G37*
G36*
X-789633Y58750D02*
X-789633Y44250D01*
X-801567Y44250D01*
X-801567Y58750D01*
X-789633Y58750D01*
G37*
G36*
X-795600Y52783D02*
X-810100Y52783D01*
X-810100Y64717D01*
X-795600Y64717D01*
X-795600Y52783D01*
G37*
G54D26*
G36*
X-707662Y-28488D02*
X-707662Y-12988D01*
X-694022Y-12988D01*
X-694022Y-28488D01*
X-707662Y-28488D01*
G37*
G36*
X-700842Y-21668D02*
X-685342Y-21668D01*
X-685342Y-35308D01*
X-700842Y-35308D01*
X-700842Y-21668D01*
G37*
G36*
X-694022Y-28488D02*
X-694022Y-43988D01*
X-707662Y-43988D01*
X-707662Y-28488D01*
X-694022Y-28488D01*
G37*
G36*
X-700842Y-35308D02*
X-716342Y-35308D01*
X-716342Y-21668D01*
X-700842Y-21668D01*
X-700842Y-35308D01*
G37*
G54D27*
G36*
X-706709Y-434889D02*
X-706709Y-419389D01*
X-694975Y-419389D01*
X-694975Y-434889D01*
X-706709Y-434889D01*
G37*
G36*
X-700842Y-429022D02*
X-685342Y-429022D01*
X-685342Y-440756D01*
X-700842Y-440756D01*
X-700842Y-429022D01*
G37*
G36*
X-694975Y-434889D02*
X-694975Y-450389D01*
X-706709Y-450389D01*
X-706709Y-434889D01*
X-694975Y-434889D01*
G37*
G36*
X-700842Y-440756D02*
X-716342Y-440756D01*
X-716342Y-429022D01*
X-700842Y-429022D01*
X-700842Y-440756D01*
G37*
G54D28*
G36*
X-707185Y-841288D02*
X-707185Y-825788D01*
X-694499Y-825788D01*
X-694499Y-841288D01*
X-707185Y-841288D01*
G37*
G36*
X-700842Y-834945D02*
X-685342Y-834945D01*
X-685342Y-847631D01*
X-700842Y-847631D01*
X-700842Y-834945D01*
G37*
G36*
X-694499Y-841288D02*
X-694499Y-856788D01*
X-707185Y-856788D01*
X-707185Y-841288D01*
X-694499Y-841288D01*
G37*
G36*
X-700842Y-847631D02*
X-716342Y-847631D01*
X-716342Y-834945D01*
X-700842Y-834945D01*
X-700842Y-847631D01*
G37*
G54D29*
G36*
X580251Y-244388D02*
X580251Y-228888D01*
X596165Y-228888D01*
X596165Y-244388D01*
X580251Y-244388D01*
G37*
G36*
X588208Y-236431D02*
X603708Y-236431D01*
X603708Y-252345D01*
X588208Y-252345D01*
X588208Y-236431D01*
G37*
G36*
X596165Y-244388D02*
X596165Y-259888D01*
X580251Y-259888D01*
X580251Y-244388D01*
X596165Y-244388D01*
G37*
G36*
X588208Y-252345D02*
X572708Y-252345D01*
X572708Y-236431D01*
X588208Y-236431D01*
X588208Y-252345D01*
G37*
G54D26*
G36*
X581388Y-650789D02*
X581388Y-635289D01*
X595028Y-635289D01*
X595028Y-650789D01*
X581388Y-650789D01*
G37*
G36*
X588208Y-643969D02*
X603708Y-643969D01*
X603708Y-657609D01*
X588208Y-657609D01*
X588208Y-643969D01*
G37*
G36*
X595028Y-650789D02*
X595028Y-666289D01*
X581388Y-666289D01*
X581388Y-650789D01*
X595028Y-650789D01*
G37*
G36*
X588208Y-657609D02*
X572708Y-657609D01*
X572708Y-643969D01*
X588208Y-643969D01*
X588208Y-657609D01*
G37*
G54D30*
G36*
X581718Y-1057189D02*
X581718Y-1041689D01*
X594698Y-1041689D01*
X594698Y-1057189D01*
X581718Y-1057189D01*
G37*
G36*
X588208Y-1050699D02*
X603708Y-1050699D01*
X603708Y-1063679D01*
X588208Y-1063679D01*
X588208Y-1050699D01*
G37*
G36*
X594698Y-1057189D02*
X594698Y-1072689D01*
X581718Y-1072689D01*
X581718Y-1057189D01*
X594698Y-1057189D01*
G37*
G36*
X588208Y-1063679D02*
X572708Y-1063679D01*
X572708Y-1050699D01*
X588208Y-1050699D01*
X588208Y-1063679D01*
G37*
G54D25*
G36*
X445633Y-1163150D02*
X445633Y-1148650D01*
X457567Y-1148650D01*
X457567Y-1163150D01*
X445633Y-1163150D01*
G37*
G36*
X451600Y-1157183D02*
X466100Y-1157183D01*
X466100Y-1169117D01*
X451600Y-1169117D01*
X451600Y-1157183D01*
G37*
G36*
X457567Y-1163150D02*
X457567Y-1177650D01*
X445633Y-1177650D01*
X445633Y-1163150D01*
X457567Y-1163150D01*
G37*
G36*
X451600Y-1169117D02*
X437100Y-1169117D01*
X437100Y-1157183D01*
X451600Y-1157183D01*
X451600Y-1169117D01*
G37*
G54D31*
G36*
X680800Y63900D02*
X700300Y63900D01*
X700300Y44700D01*
X680800Y44700D01*
X680800Y63900D01*
G37*
G36*
X690400Y54300D02*
X690400Y34800D01*
X671200Y34800D01*
X671200Y54300D01*
X690400Y54300D01*
G37*
G36*
X680800Y44700D02*
X661300Y44700D01*
X661300Y63900D01*
X680800Y63900D01*
X680800Y44700D01*
G37*
G36*
X671200Y54300D02*
X671200Y73800D01*
X690400Y73800D01*
X690400Y54300D01*
X671200Y54300D01*
G37*
G54D31*
G36*
X782400Y63900D02*
X801900Y63900D01*
X801900Y44700D01*
X782400Y44700D01*
X782400Y63900D01*
G37*
G36*
X792000Y54300D02*
X792000Y34800D01*
X772800Y34800D01*
X772800Y54300D01*
X792000Y54300D01*
G37*
G36*
X782400Y44700D02*
X762900Y44700D01*
X762900Y63900D01*
X782400Y63900D01*
X782400Y44700D01*
G37*
G36*
X772800Y54300D02*
X772800Y73800D01*
X792000Y73800D01*
X792000Y54300D01*
X772800Y54300D01*
G37*
G54D31*
G36*
X680800Y-116100D02*
X700300Y-116100D01*
X700300Y-135300D01*
X680800Y-135300D01*
X680800Y-116100D01*
G37*
G36*
X690400Y-125700D02*
X690400Y-145200D01*
X671200Y-145200D01*
X671200Y-125700D01*
X690400Y-125700D01*
G37*
G36*
X680800Y-135300D02*
X661300Y-135300D01*
X661300Y-116100D01*
X680800Y-116100D01*
X680800Y-135300D01*
G37*
G36*
X671200Y-125700D02*
X671200Y-106200D01*
X690400Y-106200D01*
X690400Y-125700D01*
X671200Y-125700D01*
G37*
G54D31*
G36*
X782400Y-116100D02*
X801900Y-116100D01*
X801900Y-135300D01*
X782400Y-135300D01*
X782400Y-116100D01*
G37*
G36*
X792000Y-125700D02*
X792000Y-145200D01*
X772800Y-145200D01*
X772800Y-125700D01*
X792000Y-125700D01*
G37*
G36*
X782400Y-135300D02*
X762900Y-135300D01*
X762900Y-116100D01*
X782400Y-116100D01*
X782400Y-135300D01*
G37*
G36*
X772800Y-125700D02*
X772800Y-106200D01*
X792000Y-106200D01*
X792000Y-125700D01*
X772800Y-125700D01*
G37*
G54D31*
G36*
X680800Y-316100D02*
X700300Y-316100D01*
X700300Y-335300D01*
X680800Y-335300D01*
X680800Y-316100D01*
G37*
G36*
X690400Y-325700D02*
X690400Y-345200D01*
X671200Y-345200D01*
X671200Y-325700D01*
X690400Y-325700D01*
G37*
G36*
X680800Y-335300D02*
X661300Y-335300D01*
X661300Y-316100D01*
X680800Y-316100D01*
X680800Y-335300D01*
G37*
G36*
X671200Y-325700D02*
X671200Y-306200D01*
X690400Y-306200D01*
X690400Y-325700D01*
X671200Y-325700D01*
G37*
G54D31*
G36*
X782400Y-316100D02*
X801900Y-316100D01*
X801900Y-335300D01*
X782400Y-335300D01*
X782400Y-316100D01*
G37*
G36*
X792000Y-325700D02*
X792000Y-345200D01*
X772800Y-345200D01*
X772800Y-325700D01*
X792000Y-325700D01*
G37*
G36*
X782400Y-335300D02*
X762900Y-335300D01*
X762900Y-316100D01*
X782400Y-316100D01*
X782400Y-335300D01*
G37*
G36*
X772800Y-325700D02*
X772800Y-306200D01*
X792000Y-306200D01*
X792000Y-325700D01*
X772800Y-325700D01*
G37*
G54D31*
G36*
X675800Y-666100D02*
X695300Y-666100D01*
X695300Y-685300D01*
X675800Y-685300D01*
X675800Y-666100D01*
G37*
G36*
X685400Y-675700D02*
X685400Y-695200D01*
X666200Y-695200D01*
X666200Y-675700D01*
X685400Y-675700D01*
G37*
G36*
X675800Y-685300D02*
X656300Y-685300D01*
X656300Y-666100D01*
X675800Y-666100D01*
X675800Y-685300D01*
G37*
G36*
X666200Y-675700D02*
X666200Y-656200D01*
X685400Y-656200D01*
X685400Y-675700D01*
X666200Y-675700D01*
G37*
G54D31*
G36*
X777400Y-666100D02*
X796900Y-666100D01*
X796900Y-685300D01*
X777400Y-685300D01*
X777400Y-666100D01*
G37*
G36*
X787000Y-675700D02*
X787000Y-695200D01*
X767800Y-695200D01*
X767800Y-675700D01*
X787000Y-675700D01*
G37*
G36*
X777400Y-685300D02*
X757900Y-685300D01*
X757900Y-666100D01*
X777400Y-666100D01*
X777400Y-685300D01*
G37*
G36*
X767800Y-675700D02*
X767800Y-656200D01*
X787000Y-656200D01*
X787000Y-675700D01*
X767800Y-675700D01*
G37*
G54D31*
G36*
X675800Y-861100D02*
X695300Y-861100D01*
X695300Y-880300D01*
X675800Y-880300D01*
X675800Y-861100D01*
G37*
G36*
X685400Y-870700D02*
X685400Y-890200D01*
X666200Y-890200D01*
X666200Y-870700D01*
X685400Y-870700D01*
G37*
G36*
X675800Y-880300D02*
X656300Y-880300D01*
X656300Y-861100D01*
X675800Y-861100D01*
X675800Y-880300D01*
G37*
G36*
X666200Y-870700D02*
X666200Y-851200D01*
X685400Y-851200D01*
X685400Y-870700D01*
X666200Y-870700D01*
G37*
G54D31*
G36*
X777400Y-861100D02*
X796900Y-861100D01*
X796900Y-880300D01*
X777400Y-880300D01*
X777400Y-861100D01*
G37*
G36*
X787000Y-870700D02*
X787000Y-890200D01*
X767800Y-890200D01*
X767800Y-870700D01*
X787000Y-870700D01*
G37*
G36*
X777400Y-880300D02*
X757900Y-880300D01*
X757900Y-861100D01*
X777400Y-861100D01*
X777400Y-880300D01*
G37*
G36*
X767800Y-870700D02*
X767800Y-851200D01*
X787000Y-851200D01*
X787000Y-870700D01*
X767800Y-870700D01*
G37*
G54D31*
G36*
X675800Y-1061100D02*
X695300Y-1061100D01*
X695300Y-1080300D01*
X675800Y-1080300D01*
X675800Y-1061100D01*
G37*
G36*
X685400Y-1070700D02*
X685400Y-1090200D01*
X666200Y-1090200D01*
X666200Y-1070700D01*
X685400Y-1070700D01*
G37*
G36*
X675800Y-1080300D02*
X656300Y-1080300D01*
X656300Y-1061100D01*
X675800Y-1061100D01*
X675800Y-1080300D01*
G37*
G36*
X666200Y-1070700D02*
X666200Y-1051200D01*
X685400Y-1051200D01*
X685400Y-1070700D01*
X666200Y-1070700D01*
G37*
G54D31*
G36*
X777400Y-1061100D02*
X796900Y-1061100D01*
X796900Y-1080300D01*
X777400Y-1080300D01*
X777400Y-1061100D01*
G37*
G36*
X787000Y-1070700D02*
X787000Y-1090200D01*
X767800Y-1090200D01*
X767800Y-1070700D01*
X787000Y-1070700D01*
G37*
G36*
X777400Y-1080300D02*
X757900Y-1080300D01*
X757900Y-1061100D01*
X777400Y-1061100D01*
X777400Y-1080300D01*
G37*
G36*
X767800Y-1070700D02*
X767800Y-1051200D01*
X787000Y-1051200D01*
X787000Y-1070700D01*
X767800Y-1070700D01*
G37*
G54D22*
G36*
X688508Y-428012D02*
X688508Y-412512D01*
X695842Y-412512D01*
X695842Y-428012D01*
X688508Y-428012D01*
G37*
G36*
X692175Y-424346D02*
X707675Y-424346D01*
X707675Y-431679D01*
X692175Y-431679D01*
X692175Y-424346D01*
G37*
G36*
X695842Y-428012D02*
X695842Y-443512D01*
X688508Y-443512D01*
X688508Y-428012D01*
X695842Y-428012D01*
G37*
G36*
X692175Y-431679D02*
X676675Y-431679D01*
X676675Y-424346D01*
X692175Y-424346D01*
X692175Y-431679D01*
G37*
G54D22*
G36*
X739308Y-428012D02*
X739308Y-412512D01*
X746642Y-412512D01*
X746642Y-428012D01*
X739308Y-428012D01*
G37*
G36*
X742975Y-424346D02*
X758475Y-424346D01*
X758475Y-431679D01*
X742975Y-431679D01*
X742975Y-424346D01*
G37*
G36*
X746642Y-428012D02*
X746642Y-443512D01*
X739308Y-443512D01*
X739308Y-428012D01*
X746642Y-428012D01*
G37*
G36*
X742975Y-431679D02*
X727475Y-431679D01*
X727475Y-424346D01*
X742975Y-424346D01*
X742975Y-431679D01*
G37*
G54D22*
G36*
X739308Y-478812D02*
X739308Y-463312D01*
X746642Y-463312D01*
X746642Y-478812D01*
X739308Y-478812D01*
G37*
G36*
X742975Y-475146D02*
X758475Y-475146D01*
X758475Y-482479D01*
X742975Y-482479D01*
X742975Y-475146D01*
G37*
G36*
X746642Y-478812D02*
X746642Y-494312D01*
X739308Y-494312D01*
X739308Y-478812D01*
X746642Y-478812D01*
G37*
G36*
X742975Y-482479D02*
X727475Y-482479D01*
X727475Y-475146D01*
X742975Y-475146D01*
X742975Y-482479D01*
G37*
G54D22*
G36*
X688508Y-478812D02*
X688508Y-463312D01*
X695842Y-463312D01*
X695842Y-478812D01*
X688508Y-478812D01*
G37*
G36*
X692175Y-475146D02*
X707675Y-475146D01*
X707675Y-482479D01*
X692175Y-482479D01*
X692175Y-475146D01*
G37*
G36*
X695842Y-478812D02*
X695842Y-494312D01*
X688508Y-494312D01*
X688508Y-478812D01*
X695842Y-478812D01*
G37*
G36*
X692175Y-482479D02*
X676675Y-482479D01*
X676675Y-475146D01*
X692175Y-475146D01*
X692175Y-482479D01*
G37*
G54D25*
G36*
X-179767Y363550D02*
X-179767Y378050D01*
X-167833Y378050D01*
X-167833Y363550D01*
X-179767Y363550D01*
G37*
G36*
X-173800Y369517D02*
X-159300Y369517D01*
X-159300Y357583D01*
X-173800Y357583D01*
X-173800Y369517D01*
G37*
G36*
X-167833Y363550D02*
X-167833Y349050D01*
X-179767Y349050D01*
X-179767Y363550D01*
X-167833Y363550D01*
G37*
G36*
X-173800Y357583D02*
X-188300Y357583D01*
X-188300Y369517D01*
X-173800Y369517D01*
X-173800Y357583D01*
G37*
G54D25*
G36*
X20233Y363550D02*
X20233Y378050D01*
X32167Y378050D01*
X32167Y363550D01*
X20233Y363550D01*
G37*
G36*
X26200Y369517D02*
X40700Y369517D01*
X40700Y357583D01*
X26200Y357583D01*
X26200Y369517D01*
G37*
G36*
X32167Y363550D02*
X32167Y349050D01*
X20233Y349050D01*
X20233Y363550D01*
X32167Y363550D01*
G37*
G36*
X26200Y357583D02*
X11700Y357583D01*
X11700Y369517D01*
X26200Y369517D01*
X26200Y357583D01*
G37*
G54D25*
G36*
X180233Y358550D02*
X180233Y373050D01*
X192167Y373050D01*
X192167Y358550D01*
X180233Y358550D01*
G37*
G36*
X186200Y364517D02*
X200700Y364517D01*
X200700Y352583D01*
X186200Y352583D01*
X186200Y364517D01*
G37*
G36*
X192167Y358550D02*
X192167Y344050D01*
X180233Y344050D01*
X180233Y358550D01*
X192167Y358550D01*
G37*
G36*
X186200Y352583D02*
X171700Y352583D01*
X171700Y364517D01*
X186200Y364517D01*
X186200Y352583D01*
G37*
G54D25*
G36*
X-79367Y-1173150D02*
X-79367Y-1158650D01*
X-67433Y-1158650D01*
X-67433Y-1173150D01*
X-79367Y-1173150D01*
G37*
G36*
X-73400Y-1167183D02*
X-58900Y-1167183D01*
X-58900Y-1179117D01*
X-73400Y-1179117D01*
X-73400Y-1167183D01*
G37*
G36*
X-67433Y-1173150D02*
X-67433Y-1187650D01*
X-79367Y-1187650D01*
X-79367Y-1173150D01*
X-67433Y-1173150D01*
G37*
G36*
X-73400Y-1179117D02*
X-87900Y-1179117D01*
X-87900Y-1167183D01*
X-73400Y-1167183D01*
X-73400Y-1179117D01*
G37*
G54D25*
G36*
X35633Y-1173150D02*
X35633Y-1158650D01*
X47567Y-1158650D01*
X47567Y-1173150D01*
X35633Y-1173150D01*
G37*
G36*
X41600Y-1167183D02*
X56100Y-1167183D01*
X56100Y-1179117D01*
X41600Y-1179117D01*
X41600Y-1167183D01*
G37*
G36*
X47567Y-1173150D02*
X47567Y-1187650D01*
X35633Y-1187650D01*
X35633Y-1173150D01*
X47567Y-1173150D01*
G37*
G36*
X41600Y-1179117D02*
X27100Y-1179117D01*
X27100Y-1167183D01*
X41600Y-1167183D01*
X41600Y-1179117D01*
G37*
G54D25*
G36*
X-801567Y-151250D02*
X-801567Y-136750D01*
X-789633Y-136750D01*
X-789633Y-151250D01*
X-801567Y-151250D01*
G37*
G36*
X-795600Y-145283D02*
X-781100Y-145283D01*
X-781100Y-157217D01*
X-795600Y-157217D01*
X-795600Y-145283D01*
G37*
G36*
X-789633Y-151250D02*
X-789633Y-165750D01*
X-801567Y-165750D01*
X-801567Y-151250D01*
X-789633Y-151250D01*
G37*
G36*
X-795600Y-157217D02*
X-810100Y-157217D01*
X-810100Y-145283D01*
X-795600Y-145283D01*
X-795600Y-157217D01*
G37*
G54D25*
G36*
X-801567Y-711250D02*
X-801567Y-696750D01*
X-789633Y-696750D01*
X-789633Y-711250D01*
X-801567Y-711250D01*
G37*
G36*
X-795600Y-705283D02*
X-781100Y-705283D01*
X-781100Y-717217D01*
X-795600Y-717217D01*
X-795600Y-705283D01*
G37*
G36*
X-789633Y-711250D02*
X-789633Y-725750D01*
X-801567Y-725750D01*
X-801567Y-711250D01*
X-789633Y-711250D01*
G37*
G36*
X-795600Y-717217D02*
X-810100Y-717217D01*
X-810100Y-705283D01*
X-795600Y-705283D01*
X-795600Y-717217D01*
G37*
X-366950Y19050D02*
G54D32*
D03*
X-366950Y-82550D02*
G54D32*
D03*
X-227250Y-5000D02*
G54D33*
D03*
X-227250Y93900D02*
G54D33*
D03*
X-176450Y-63500D02*
G54D32*
D03*
X-278050Y-63500D02*
G54D32*
D03*
X-98900Y0D02*
G54D33*
D03*
X0Y0D02*
G54D33*
D03*
X128350Y-69850D02*
G54D32*
D03*
X26750Y-69850D02*
G54D32*
D03*
X128350Y-5000D02*
G54D33*
D03*
X128350Y93900D02*
G54D33*
D03*
X261700Y19050D02*
G54D32*
D03*
X261700Y-82550D02*
G54D32*
D03*
X-462200Y-63500D02*
G54D33*
D03*
X-582850Y-60326D02*
G54D33*
D03*
X-462200Y57150D02*
G54D33*
D03*
X-582850Y57150D02*
G54D33*
D03*
X-603962Y-3175D02*
G54D33*
D03*
X350460Y59801D02*
G54D33*
D03*
X471110Y56627D02*
G54D33*
D03*
X350460Y-60849D02*
G54D33*
D03*
X471110Y-60849D02*
G54D33*
D03*
X492222Y-524D02*
G54D33*
D03*
X-366950Y19050D02*
G54D33*
D03*
X-176450Y-63500D02*
G54D33*
D03*
X128350Y-69850D02*
G54D33*
D03*
X261700Y-82550D02*
G54D33*
D03*
X-582850Y-60326D02*
G54D34*
D03*
X-700842Y-28488D02*
G54D35*
D03*
X-700954Y22492D02*
G54D35*
D03*
X-658727Y-50520D02*
G54D36*
D03*
X-658727Y51080D02*
G54D36*
D03*
X-658727Y-50520D02*
G54D35*
D03*
X588208Y-41188D02*
G54D35*
D03*
X588096Y9792D02*
G54D35*
D03*
X541423Y-50520D02*
G54D36*
D03*
X541423Y51080D02*
G54D36*
D03*
X541423Y-50520D02*
G54D35*
D03*
X-658727Y-50520D02*
G54D33*
D03*
X-700842Y-28488D02*
G54D33*
D03*
X541423Y-50520D02*
G54D33*
D03*
X588208Y-41188D02*
G54D33*
D03*
X-366950Y-184150D02*
G54D32*
D03*
X-366950Y-285750D02*
G54D32*
D03*
X-227250Y-208200D02*
G54D33*
D03*
X-227250Y-109300D02*
G54D33*
D03*
X-176450Y-266700D02*
G54D32*
D03*
X-278050Y-266700D02*
G54D32*
D03*
X-98900Y-203200D02*
G54D33*
D03*
X0Y-203200D02*
G54D33*
D03*
X128350Y-273050D02*
G54D32*
D03*
X26750Y-273050D02*
G54D32*
D03*
X128350Y-208200D02*
G54D33*
D03*
X128350Y-109300D02*
G54D33*
D03*
X261700Y-184150D02*
G54D32*
D03*
X261700Y-285750D02*
G54D32*
D03*
X-462200Y-266700D02*
G54D33*
D03*
X-582850Y-263526D02*
G54D33*
D03*
X-462200Y-146050D02*
G54D33*
D03*
X-582850Y-146050D02*
G54D33*
D03*
X-603962Y-206375D02*
G54D33*
D03*
X350460Y-143399D02*
G54D37*
D03*
X471110Y-146573D02*
G54D33*
D03*
X350460Y-264049D02*
G54D33*
D03*
X471110Y-264049D02*
G54D33*
D03*
X492223Y-203724D02*
G54D33*
D03*
X-366950Y-184150D02*
G54D33*
D03*
X-176450Y-266700D02*
G54D33*
D03*
X128350Y-273050D02*
G54D33*
D03*
X261700Y-285750D02*
G54D33*
D03*
X-582850Y-263526D02*
G54D38*
D03*
X-700842Y-231688D02*
G54D35*
D03*
X-700954Y-180708D02*
G54D35*
D03*
X-658727Y-253720D02*
G54D36*
D03*
X-658727Y-152120D02*
G54D36*
D03*
X-658727Y-253720D02*
G54D35*
D03*
X588208Y-244388D02*
G54D35*
D03*
X588096Y-193408D02*
G54D35*
D03*
X541423Y-253720D02*
G54D36*
D03*
X541423Y-152120D02*
G54D36*
D03*
X541423Y-253720D02*
G54D35*
D03*
X-658727Y-253720D02*
G54D33*
D03*
X-700842Y-231688D02*
G54D33*
D03*
X541423Y-253720D02*
G54D33*
D03*
X588208Y-244388D02*
G54D33*
D03*
X-366950Y-387350D02*
G54D32*
D03*
X-366950Y-488950D02*
G54D32*
D03*
X-227250Y-411400D02*
G54D33*
D03*
X-227250Y-312500D02*
G54D33*
D03*
X-176450Y-469900D02*
G54D32*
D03*
X-278050Y-469900D02*
G54D32*
D03*
X-98900Y-406400D02*
G54D33*
D03*
X0Y-406400D02*
G54D33*
D03*
X128350Y-476250D02*
G54D32*
D03*
X26750Y-476250D02*
G54D32*
D03*
X128350Y-411400D02*
G54D33*
D03*
X128350Y-312500D02*
G54D33*
D03*
X261700Y-387350D02*
G54D32*
D03*
X261700Y-488950D02*
G54D32*
D03*
X-462200Y-469900D02*
G54D33*
D03*
X-582850Y-466726D02*
G54D33*
D03*
X-462200Y-349250D02*
G54D33*
D03*
X-582850Y-349250D02*
G54D33*
D03*
X-603962Y-409575D02*
G54D33*
D03*
X350460Y-346599D02*
G54D33*
D03*
X471110Y-349773D02*
G54D33*
D03*
X350460Y-467249D02*
G54D33*
D03*
X471110Y-467249D02*
G54D33*
D03*
X492223Y-406924D02*
G54D33*
D03*
X-366950Y-387350D02*
G54D33*
D03*
X-176450Y-469900D02*
G54D33*
D03*
X128350Y-476250D02*
G54D33*
D03*
X261700Y-488950D02*
G54D33*
D03*
X-582850Y-466726D02*
G54D38*
D03*
X-700842Y-434888D02*
G54D35*
D03*
X-700954Y-383908D02*
G54D35*
D03*
X-658727Y-456920D02*
G54D36*
D03*
X-658727Y-355320D02*
G54D36*
D03*
X-658727Y-456920D02*
G54D35*
D03*
X588208Y-447588D02*
G54D35*
D03*
X588096Y-396608D02*
G54D35*
D03*
X541423Y-456920D02*
G54D36*
D03*
X541423Y-355320D02*
G54D36*
D03*
X541423Y-456920D02*
G54D35*
D03*
X-658727Y-456920D02*
G54D33*
D03*
X-700842Y-434888D02*
G54D33*
D03*
X541423Y-456920D02*
G54D33*
D03*
X588208Y-447588D02*
G54D33*
D03*
X-366950Y-590550D02*
G54D32*
D03*
X-366950Y-692150D02*
G54D32*
D03*
X-227250Y-614600D02*
G54D33*
D03*
X-227250Y-515700D02*
G54D33*
D03*
X-176450Y-673100D02*
G54D32*
D03*
X-278050Y-673100D02*
G54D32*
D03*
X-98900Y-609600D02*
G54D33*
D03*
X0Y-609600D02*
G54D33*
D03*
X128350Y-679450D02*
G54D32*
D03*
X26750Y-679450D02*
G54D32*
D03*
X128350Y-614600D02*
G54D33*
D03*
X128350Y-515700D02*
G54D33*
D03*
X261700Y-590550D02*
G54D32*
D03*
X261700Y-692150D02*
G54D32*
D03*
X-462200Y-673100D02*
G54D33*
D03*
X-582850Y-669926D02*
G54D33*
D03*
X-462200Y-552450D02*
G54D33*
D03*
X-582850Y-552450D02*
G54D33*
D03*
X-603962Y-612775D02*
G54D33*
D03*
X350460Y-549798D02*
G54D33*
D03*
X471110Y-552973D02*
G54D33*
D03*
X350460Y-670449D02*
G54D33*
D03*
X471110Y-670449D02*
G54D33*
D03*
X492223Y-610124D02*
G54D33*
D03*
X-366950Y-590550D02*
G54D33*
D03*
X-176450Y-673100D02*
G54D33*
D03*
X128350Y-679450D02*
G54D33*
D03*
X261700Y-692150D02*
G54D33*
D03*
X-582850Y-669926D02*
G54D38*
D03*
X-700842Y-638088D02*
G54D35*
D03*
X-700954Y-587108D02*
G54D35*
D03*
X-658727Y-660120D02*
G54D36*
D03*
X-658727Y-558520D02*
G54D36*
D03*
X-658727Y-660120D02*
G54D35*
D03*
X588208Y-650788D02*
G54D35*
D03*
X588096Y-599808D02*
G54D35*
D03*
X541423Y-660120D02*
G54D36*
D03*
X541423Y-558520D02*
G54D36*
D03*
X541423Y-660120D02*
G54D35*
D03*
X-658727Y-660120D02*
G54D33*
D03*
X-700842Y-638088D02*
G54D33*
D03*
X541423Y-660120D02*
G54D33*
D03*
X588208Y-650788D02*
G54D33*
D03*
X-366950Y-793750D02*
G54D32*
D03*
X-366950Y-895350D02*
G54D32*
D03*
X-227250Y-817800D02*
G54D33*
D03*
X-227250Y-718900D02*
G54D33*
D03*
X-176450Y-876300D02*
G54D32*
D03*
X-278050Y-876300D02*
G54D32*
D03*
X-98900Y-812800D02*
G54D33*
D03*
X0Y-812800D02*
G54D33*
D03*
X128350Y-882650D02*
G54D32*
D03*
X26750Y-882650D02*
G54D32*
D03*
X128350Y-817800D02*
G54D33*
D03*
X128350Y-718900D02*
G54D33*
D03*
X261700Y-793750D02*
G54D32*
D03*
X261700Y-895350D02*
G54D32*
D03*
X-462200Y-876300D02*
G54D33*
D03*
X-582850Y-873126D02*
G54D33*
D03*
X-462200Y-755650D02*
G54D33*
D03*
X-582850Y-755650D02*
G54D33*
D03*
X-603962Y-815975D02*
G54D33*
D03*
X350460Y-752998D02*
G54D33*
D03*
X471110Y-756173D02*
G54D33*
D03*
X350460Y-873649D02*
G54D33*
D03*
X471110Y-873649D02*
G54D33*
D03*
X492223Y-813324D02*
G54D33*
D03*
X-366950Y-793750D02*
G54D33*
D03*
X-176450Y-876300D02*
G54D33*
D03*
X128350Y-882650D02*
G54D33*
D03*
X261700Y-895350D02*
G54D33*
D03*
X-582850Y-873126D02*
G54D38*
D03*
X-700842Y-841288D02*
G54D35*
D03*
X-700954Y-790308D02*
G54D35*
D03*
X-658727Y-863320D02*
G54D36*
D03*
X-658727Y-761720D02*
G54D36*
D03*
X-658727Y-863320D02*
G54D35*
D03*
X588208Y-853988D02*
G54D35*
D03*
X588096Y-803008D02*
G54D35*
D03*
X541423Y-863320D02*
G54D36*
D03*
X541423Y-761720D02*
G54D36*
D03*
X541423Y-863320D02*
G54D35*
D03*
X-658727Y-863320D02*
G54D33*
D03*
X-700842Y-841288D02*
G54D33*
D03*
X541423Y-863320D02*
G54D33*
D03*
X588208Y-853988D02*
G54D33*
D03*
X-366950Y-996950D02*
G54D32*
D03*
X-366950Y-1098550D02*
G54D32*
D03*
X-227250Y-1021000D02*
G54D33*
D03*
X-227250Y-922100D02*
G54D33*
D03*
X-176450Y-1079500D02*
G54D32*
D03*
X-278050Y-1079500D02*
G54D32*
D03*
X-98900Y-1016000D02*
G54D33*
D03*
X0Y-1016000D02*
G54D33*
D03*
X128350Y-1085850D02*
G54D32*
D03*
X26750Y-1085850D02*
G54D32*
D03*
X128350Y-1021000D02*
G54D33*
D03*
X128350Y-922100D02*
G54D33*
D03*
X261700Y-996950D02*
G54D32*
D03*
X261700Y-1098550D02*
G54D32*
D03*
X-462200Y-1079500D02*
G54D33*
D03*
X-582850Y-1076326D02*
G54D33*
D03*
X-462200Y-958850D02*
G54D33*
D03*
X-582850Y-958850D02*
G54D33*
D03*
X-603962Y-1019175D02*
G54D33*
D03*
X350460Y-956198D02*
G54D33*
D03*
X471110Y-959373D02*
G54D33*
D03*
X350460Y-1076849D02*
G54D33*
D03*
X471110Y-1076849D02*
G54D33*
D03*
X492223Y-1016524D02*
G54D33*
D03*
X-366950Y-996950D02*
G54D33*
D03*
X-176450Y-1079500D02*
G54D33*
D03*
X128350Y-1085850D02*
G54D33*
D03*
X261700Y-1098550D02*
G54D33*
D03*
X-582850Y-1076326D02*
G54D38*
D03*
X-700842Y-1044488D02*
G54D35*
D03*
X-700954Y-993508D02*
G54D35*
D03*
X-658727Y-1066520D02*
G54D36*
D03*
X-658727Y-964920D02*
G54D36*
D03*
X-658727Y-1066520D02*
G54D35*
D03*
X588208Y-1057188D02*
G54D35*
D03*
X588096Y-1006208D02*
G54D35*
D03*
X541423Y-1066520D02*
G54D36*
D03*
X541423Y-964920D02*
G54D36*
D03*
X541423Y-1066520D02*
G54D35*
D03*
X-658727Y-1066520D02*
G54D33*
D03*
X-700842Y-1044488D02*
G54D33*
D03*
X541423Y-1066520D02*
G54D33*
D03*
X588208Y-1057188D02*
G54D33*
D03*
X-544750Y209550D02*
G54D39*
D03*
X26750Y209550D02*
G54D39*
D03*
X191850Y209550D02*
G54D39*
D03*
X395050Y209550D02*
G54D39*
D03*
X-379650Y209550D02*
G54D39*
D03*
X-176450Y209550D02*
G54D39*
D03*
G54D40*
X-176450Y209550D02*
X-182800Y206250D01*
X-335200Y53850D01*
X-335200Y15750D01*
X-424100Y-73150D01*
X-424100Y-85850D01*
X-449500Y-111250D01*
X-487600Y-111250D01*
X-538400Y-162050D01*
X-538400Y-276350D01*
X-589200Y-327150D01*
X-589200Y-352550D01*
X-582850Y-349250D01*
G54D40*
X-176450Y209550D02*
X-182800Y206250D01*
X-5000Y28450D01*
X7700Y28450D01*
X96600Y-60450D01*
X96600Y-123950D01*
X236300Y-263650D01*
X236300Y-301750D01*
X249000Y-314450D01*
X376000Y-314450D01*
X414100Y-352550D01*
X464900Y-352550D01*
X471110Y-349773D01*
G54D40*
X26750Y209550D02*
X20400Y206250D01*
X-17700Y244350D01*
X-132000Y244350D01*
X-144700Y231650D01*
X-195500Y231650D01*
X-462200Y-35050D01*
X-500300Y-35050D01*
X-576500Y-111250D01*
X-614600Y-111250D01*
X-640000Y-136650D01*
X-640000Y-225550D01*
X-627300Y-238250D01*
X-627300Y-263650D01*
X-640000Y-276350D01*
X-640000Y-428750D01*
X-627300Y-441450D01*
X-627300Y-479550D01*
X-589200Y-517650D01*
X-589200Y-555750D01*
X-582850Y-552450D01*
G54D40*
X26750Y209550D02*
X20400Y206250D01*
X109300Y117350D01*
X134700Y117350D01*
X236300Y15750D01*
X236300Y3050D01*
X312500Y-73150D01*
X312500Y-85850D01*
X337900Y-111250D01*
X376000Y-111250D01*
X426800Y-162050D01*
X426800Y-276350D01*
X477600Y-327150D01*
X503000Y-327150D01*
X515700Y-339850D01*
X515700Y-365250D01*
X503000Y-377950D01*
X452200Y-377950D01*
X426800Y-403350D01*
X426800Y-479550D01*
X464900Y-517650D01*
X464900Y-555750D01*
X471110Y-552973D01*
G54D41*
X191850Y209550D02*
X191850Y174500D01*
X198200Y168150D01*
X547450Y168150D01*
X563325Y152275D01*
X563325Y-724025D01*
X560150Y-730250D01*
X541423Y-761720D01*
X560150Y-730250D01*
X553660Y-727598D01*
G54D41*
X191850Y209550D02*
X191850Y263400D01*
X198200Y269750D01*
X-709850Y269750D01*
X-732075Y247525D01*
X-732075Y-704975D01*
X-703500Y-733550D01*
X-604950Y-733550D01*
X-582850Y-755650D01*
G54D41*
X395050Y209550D02*
X395050Y222125D01*
X420450Y247525D01*
X588725Y247525D01*
X601425Y234825D01*
X601425Y53850D01*
X623650Y31625D01*
X623650Y-924050D01*
X620475Y-927225D01*
X607775Y-927225D01*
X614125Y-920875D01*
X569136Y-920875D01*
X541423Y-964920D01*
G54D41*
X-751125Y-930400D02*
X-582850Y-930400D01*
X-579675Y-933575D01*
X-579675Y-955675D01*
X-582850Y-958850D01*
X-817825Y-408012D02*
G54D33*
D03*
X-767025Y-408012D02*
G54D33*
D03*
X-792425Y-433412D02*
G54D33*
D03*
X-767025Y-458812D02*
G54D33*
D03*
X-817825Y-458812D02*
G54D33*
D03*
G54D41*
X395050Y209550D02*
X395050Y291975D01*
X388700Y298325D01*
X-833675Y298325D01*
X-836850Y295150D01*
X-836850Y-841500D01*
X-757475Y-920875D01*
G54D41*
X-757475Y-920875D02*
X-757475Y-924050D01*
X-751125Y-930400D01*
G36*
X-556200Y373550D02*
X-536200Y373550D01*
X-536200Y353550D01*
X-556200Y353550D01*
X-556200Y373550D01*
G37*
G36*
X-393800Y373550D02*
X-373800Y373550D01*
X-373800Y353550D01*
X-393800Y353550D01*
X-393800Y373550D01*
G37*
X-805100Y345950D02*
G54D42*
D03*
G36*
X384200Y373550D02*
X404200Y373550D01*
X404200Y353550D01*
X384200Y353550D01*
X384200Y373550D01*
G37*
X803500Y345950D02*
G54D42*
D03*
G36*
X-526200Y-1158150D02*
X-506200Y-1158150D01*
X-506200Y-1178150D01*
X-526200Y-1178150D01*
X-526200Y-1158150D01*
G37*
G36*
X-373800Y-1158150D02*
X-353800Y-1158150D01*
X-353800Y-1178150D01*
X-373800Y-1178150D01*
X-373800Y-1158150D01*
G37*
X-805100Y-1180750D02*
G54D42*
D03*
G36*
X326600Y-1153150D02*
X346600Y-1153150D01*
X346600Y-1173150D01*
X326600Y-1173150D01*
X326600Y-1153150D01*
G37*
X803500Y-1180750D02*
G54D42*
D03*
G36*
X-805600Y-947250D02*
X-785600Y-947250D01*
X-785600Y-967250D01*
X-805600Y-967250D01*
X-805600Y-947250D01*
G37*
G36*
X-805600Y68750D02*
X-785600Y68750D01*
X-785600Y48750D01*
X-805600Y48750D01*
X-805600Y68750D01*
G37*
X-700842Y-28488D02*
G54D33*
D03*
X-700842Y-434889D02*
G54D33*
D03*
X-700842Y-841288D02*
G54D33*
D03*
X588208Y-244388D02*
G54D33*
D03*
X588208Y-650789D02*
G54D33*
D03*
X588208Y-1057189D02*
G54D33*
D03*
G36*
X441600Y-1153150D02*
X461600Y-1153150D01*
X461600Y-1173150D01*
X441600Y-1173150D01*
X441600Y-1153150D01*
G37*
X680800Y155900D02*
G54D43*
D03*
X782400Y155900D02*
G54D33*
D03*
X782400Y155900D02*
G54D43*
D03*
X680800Y155900D02*
G54D43*
D03*
X680800Y54300D02*
G54D33*
D03*
X680800Y54300D02*
G54D43*
D03*
X782400Y155900D02*
G54D43*
D03*
X782400Y54300D02*
G54D33*
D03*
X782400Y54300D02*
G54D43*
D03*
X680800Y54300D02*
G54D43*
D03*
X782400Y54300D02*
G54D43*
D03*
X680800Y-24100D02*
G54D43*
D03*
X782400Y-24100D02*
G54D33*
D03*
X782400Y-24100D02*
G54D43*
D03*
X680800Y-24100D02*
G54D43*
D03*
X680800Y-125700D02*
G54D33*
D03*
X680800Y-125700D02*
G54D43*
D03*
X782400Y-24100D02*
G54D43*
D03*
X782400Y-125700D02*
G54D33*
D03*
X782400Y-125700D02*
G54D43*
D03*
X680800Y-125700D02*
G54D43*
D03*
X782400Y-125700D02*
G54D43*
D03*
X680800Y-224100D02*
G54D43*
D03*
X782400Y-224100D02*
G54D33*
D03*
X782400Y-224100D02*
G54D43*
D03*
X680800Y-224100D02*
G54D43*
D03*
X680800Y-325700D02*
G54D33*
D03*
X680800Y-325700D02*
G54D43*
D03*
X782400Y-224100D02*
G54D43*
D03*
X782400Y-325700D02*
G54D33*
D03*
X782400Y-325700D02*
G54D43*
D03*
X680800Y-325700D02*
G54D43*
D03*
X782400Y-325700D02*
G54D43*
D03*
X675800Y-574100D02*
G54D43*
D03*
X777400Y-574100D02*
G54D33*
D03*
X777400Y-574100D02*
G54D43*
D03*
X675800Y-574100D02*
G54D43*
D03*
X675800Y-675700D02*
G54D33*
D03*
X675800Y-675700D02*
G54D43*
D03*
X777400Y-574100D02*
G54D43*
D03*
X777400Y-675700D02*
G54D33*
D03*
X777400Y-675700D02*
G54D43*
D03*
X675800Y-675700D02*
G54D43*
D03*
X777400Y-675700D02*
G54D43*
D03*
X675800Y-769100D02*
G54D43*
D03*
X777400Y-769100D02*
G54D33*
D03*
X777400Y-769100D02*
G54D43*
D03*
X675800Y-769100D02*
G54D43*
D03*
X675800Y-870700D02*
G54D33*
D03*
X675800Y-870700D02*
G54D43*
D03*
X777400Y-769100D02*
G54D43*
D03*
X777400Y-870700D02*
G54D33*
D03*
X777400Y-870700D02*
G54D43*
D03*
X675800Y-870700D02*
G54D43*
D03*
X777400Y-870700D02*
G54D43*
D03*
X675800Y-969100D02*
G54D43*
D03*
X777400Y-969100D02*
G54D33*
D03*
X777400Y-969100D02*
G54D43*
D03*
X675800Y-969100D02*
G54D43*
D03*
X675800Y-1070700D02*
G54D33*
D03*
X675800Y-1070700D02*
G54D43*
D03*
X777400Y-969100D02*
G54D43*
D03*
X777400Y-1070700D02*
G54D33*
D03*
X777400Y-1070700D02*
G54D43*
D03*
X675800Y-1070700D02*
G54D43*
D03*
X777400Y-1070700D02*
G54D43*
D03*
X692175Y-428012D02*
G54D33*
D03*
X742975Y-428012D02*
G54D33*
D03*
X717575Y-453412D02*
G54D33*
D03*
X742975Y-478812D02*
G54D33*
D03*
X692175Y-478812D02*
G54D33*
D03*
X801750Y-402850D02*
G54D33*
D03*
X801750Y-492850D02*
G54D33*
D03*
G36*
X-183800Y373550D02*
X-163800Y373550D01*
X-163800Y353550D01*
X-183800Y353550D01*
X-183800Y373550D01*
G37*
G36*
X16200Y373550D02*
X36200Y373550D01*
X36200Y353550D01*
X16200Y353550D01*
X16200Y373550D01*
G37*
G36*
X176200Y368550D02*
X196200Y368550D01*
X196200Y348550D01*
X176200Y348550D01*
X176200Y368550D01*
G37*
G36*
X-83400Y-1163150D02*
X-63400Y-1163150D01*
X-63400Y-1183150D01*
X-83400Y-1183150D01*
X-83400Y-1163150D01*
G37*
G36*
X31600Y-1163150D02*
X51600Y-1163150D01*
X51600Y-1183150D01*
X31600Y-1183150D01*
X31600Y-1163150D01*
G37*
G36*
X-805600Y-141250D02*
X-785600Y-141250D01*
X-785600Y-161250D01*
X-805600Y-161250D01*
X-805600Y-141250D01*
G37*
G36*
X-805600Y-701250D02*
X-785600Y-701250D01*
X-785600Y-721250D01*
X-805600Y-721250D01*
X-805600Y-701250D01*
G37*
M02*
