; Drill file
; Format: 2.4 (00.0000)
M48
INCH
T01C0.0358
T02C0.0394
T03C0.0472
T04C0.1181
%
G05
G90
T01
X-001980Y-008190
X-000500Y-008190
X000780Y-005430
X-000300Y013270
X-001780Y013270
X000980Y016030
T02
X-001460Y-013690
X001270Y-013380
X002270Y-012380
X003270Y-011380
X001270Y-011380
X003270Y-013380
X006040Y-013690
X005700Y-008380
X005700Y-007600
X005700Y-006020
X005700Y-005230
X008790Y-008940
X008790Y004560
X005900Y013070
X005900Y013860
X005900Y015440
X005900Y016220
X008790Y017560
X006040Y021310
X003270Y021120
X002270Y020120
X001270Y021120
X001270Y019120
X003270Y019120
X-001960Y021310
X-003960Y012810
X-004210Y004560
X-004210Y-005190
T03
X000000Y000000
X005500Y008000
T04
X-003500Y-013120
X008000Y-013120
X000000Y002630
X005500Y005370
X008000Y020870
X-004000Y020870
M30
