; Drill file
; Format: 2.4 (00.0000)
M48
INCH
T01C0.0354
%
G05
G90
T01
X002000Y002000
X002000Y003000
X003750Y005710
X006000Y005710
X007250Y005500
X008850Y005140
X010500Y005500
X012100Y005140
X012100Y003130
X010500Y003000
X008850Y003130
X007250Y003500
X007250Y001500
X014350Y003130
X014350Y005140
X016750Y005500
X018350Y005140
X020000Y005500
X021600Y005140
X023600Y005140
X023600Y003130
X021600Y003130
X020000Y003000
X018350Y003130
X016750Y003000
X026000Y002750
X027600Y003130
X027600Y005140
X026000Y005500
X029250Y005500
X030610Y005710
X030750Y003500
X030750Y001500
X034110Y002000
X034110Y003000
X032860Y005710
M30
