%FSLAX34Y34*%
%MOMM*%
%LNCOPPER_BOTTOM*%
G71*
G01*
%ADD10C,2.800*%
%ADD11C,3.200*%
%ADD12C,2.800*%
%ADD13C,1.800*%
%ADD14C,3.800*%
%ADD15C,0.680*%
%ADD16C,0.667*%
%ADD17C,2.000*%
%ADD18C,2.000*%
%ADD19C,1.000*%
%ADD20C,3.000*%
%LPD*%
G36*
X-127000Y146050D02*
X393000Y146050D01*
X393000Y-103950D01*
X-127000Y-103950D01*
X-127000Y146050D01*
G37*
%LPC*%
X215900Y79500D02*
G54D10*
D03*
X215900Y22350D02*
G54D10*
D03*
X-76200Y25400D02*
G54D10*
D03*
X-78445Y-30820D02*
G54D10*
D03*
X292100Y-6350D02*
G54D10*
D03*
X349250Y-6350D02*
G54D10*
D03*
X150277Y54700D02*
G54D11*
D03*
X96395Y108652D02*
G54D11*
D03*
X150277Y54700D02*
G54D12*
D03*
X154328Y-73076D02*
G54D11*
D03*
X154378Y3174D02*
G54D11*
D03*
X154328Y-73076D02*
G54D12*
D03*
X76200Y47750D02*
G54D10*
D03*
X76200Y-3050D02*
G54D10*
D03*
X-78445Y-30820D02*
G54D10*
D03*
G54D13*
X154378Y3174D02*
X152400Y3250D01*
X95250Y60400D01*
X95250Y111200D01*
X96395Y108652D01*
G54D13*
X76200Y47750D02*
X76200Y47700D01*
X95250Y66750D01*
X95250Y111200D01*
X96395Y108652D01*
G54D13*
X150277Y54700D02*
X152400Y54050D01*
X158750Y60400D01*
X215900Y60400D01*
X215900Y79500D01*
X76200Y-3050D02*
G54D10*
D03*
X-19906Y-31657D02*
G54D11*
D03*
X31074Y-31545D02*
G54D11*
D03*
X-19906Y-31657D02*
G54D11*
D03*
G54D13*
X31074Y-31545D02*
X31750Y-28500D01*
X50800Y-9450D01*
X50800Y22300D01*
X76200Y47700D01*
X76200Y47750D01*
G54D13*
X292100Y-6350D02*
X292100Y-9450D01*
X254000Y28650D01*
X215900Y28650D01*
X215900Y28700D01*
G54D13*
X154328Y-73076D02*
X152400Y-72950D01*
X203200Y-22150D01*
X254000Y-41150D01*
X304800Y-34850D01*
X317500Y-9450D01*
X342900Y-9450D01*
X342900Y-6350D01*
X254000Y-6350D02*
G54D10*
D03*
G54D13*
X254000Y-6350D02*
X292100Y-6350D01*
X76200Y-38100D02*
G54D10*
D03*
X215900Y112520D02*
G54D10*
D03*
G54D13*
X215900Y112520D02*
X215900Y111250D01*
X215900Y73150D01*
X215900Y79500D01*
X0Y101600D02*
G54D10*
D03*
X0Y50800D02*
G54D10*
D03*
X279400Y101600D02*
G54D10*
D03*
X279400Y50800D02*
G54D10*
D03*
X-78445Y-81620D02*
G54D10*
D03*
G54D13*
X31074Y-31545D02*
X25400Y-25400D01*
X-25400Y25400D01*
X-76200Y25400D01*
X215900Y-69850D02*
G54D14*
D03*
X-101600Y95250D02*
G54D14*
D03*
X368300Y95250D02*
G54D14*
D03*
%LPD*%
G54D15*
G36*
X-75045Y-30820D02*
X-75045Y-45320D01*
X-81845Y-45320D01*
X-81845Y-30820D01*
X-75045Y-30820D01*
G37*
G36*
X-78445Y-34220D02*
X-92945Y-34220D01*
X-92945Y-27420D01*
X-78445Y-27420D01*
X-78445Y-34220D01*
G37*
G36*
X-81845Y-30820D02*
X-81845Y-16320D01*
X-75045Y-16320D01*
X-75045Y-30820D01*
X-81845Y-30820D01*
G37*
G36*
X-78445Y-27420D02*
X-63945Y-27420D01*
X-63945Y-34220D01*
X-78445Y-34220D01*
X-78445Y-27420D01*
G37*
G54D15*
G36*
X76200Y350D02*
X90700Y350D01*
X90700Y-6450D01*
X76200Y-6450D01*
X76200Y350D01*
G37*
G36*
X79600Y-3050D02*
X79600Y-17550D01*
X72800Y-17550D01*
X72800Y-3050D01*
X79600Y-3050D01*
G37*
G36*
X76200Y-6450D02*
X61700Y-6450D01*
X61700Y350D01*
X76200Y350D01*
X76200Y-6450D01*
G37*
G36*
X72800Y-3050D02*
X72800Y11450D01*
X79600Y11450D01*
X79600Y-3050D01*
X72800Y-3050D01*
G37*
G54D15*
G36*
X-19906Y-35057D02*
X-36406Y-35057D01*
X-36406Y-28257D01*
X-19906Y-28257D01*
X-19906Y-35057D01*
G37*
G36*
X-23306Y-31657D02*
X-23306Y-15157D01*
X-16506Y-15157D01*
X-16506Y-31657D01*
X-23306Y-31657D01*
G37*
G36*
X-19906Y-28257D02*
X-3406Y-28257D01*
X-3406Y-35057D01*
X-19906Y-35057D01*
X-19906Y-28257D01*
G37*
G36*
X-16506Y-31657D02*
X-16506Y-48157D01*
X-23306Y-48157D01*
X-23306Y-31657D01*
X-16506Y-31657D01*
G37*
G54D15*
G36*
X76200Y-34700D02*
X90700Y-34700D01*
X90700Y-41500D01*
X76200Y-41500D01*
X76200Y-34700D01*
G37*
G36*
X79600Y-38100D02*
X79600Y-52600D01*
X72800Y-52600D01*
X72800Y-38100D01*
X79600Y-38100D01*
G37*
G36*
X76200Y-41500D02*
X61700Y-41500D01*
X61700Y-34700D01*
X76200Y-34700D01*
X76200Y-41500D01*
G37*
G36*
X72800Y-38100D02*
X72800Y-23600D01*
X79600Y-23600D01*
X79600Y-38100D01*
X72800Y-38100D01*
G37*
G54D16*
G36*
X-3333Y50800D02*
X-3333Y65300D01*
X3333Y65300D01*
X3333Y50800D01*
X-3333Y50800D01*
G37*
G36*
X0Y54133D02*
X14500Y54133D01*
X14500Y47467D01*
X0Y47467D01*
X0Y54133D01*
G37*
G36*
X3333Y50800D02*
X3333Y36300D01*
X-3333Y36300D01*
X-3333Y50800D01*
X3333Y50800D01*
G37*
G36*
X0Y47467D02*
X-14500Y47467D01*
X-14500Y54133D01*
X0Y54133D01*
X0Y47467D01*
G37*
G54D16*
G36*
X276067Y50800D02*
X276067Y65300D01*
X282733Y65300D01*
X282733Y50800D01*
X276067Y50800D01*
G37*
G36*
X279400Y54133D02*
X293900Y54133D01*
X293900Y47467D01*
X279400Y47467D01*
X279400Y54133D01*
G37*
G36*
X282733Y50800D02*
X282733Y36300D01*
X276067Y36300D01*
X276067Y50800D01*
X282733Y50800D01*
G37*
G36*
X279400Y47467D02*
X264900Y47467D01*
X264900Y54133D01*
X279400Y54133D01*
X279400Y47467D01*
G37*
G54D15*
G36*
X-75045Y-81620D02*
X-75045Y-96120D01*
X-81845Y-96120D01*
X-81845Y-81620D01*
X-75045Y-81620D01*
G37*
G36*
X-78445Y-85020D02*
X-92945Y-85020D01*
X-92945Y-78220D01*
X-78445Y-78220D01*
X-78445Y-85020D01*
G37*
G36*
X-81845Y-81620D02*
X-81845Y-67120D01*
X-75045Y-67120D01*
X-75045Y-81620D01*
X-81845Y-81620D01*
G37*
G36*
X-78445Y-78220D02*
X-63945Y-78220D01*
X-63945Y-85020D01*
X-78445Y-85020D01*
X-78445Y-78220D01*
G37*
X215900Y79500D02*
G54D17*
D03*
X215900Y22350D02*
G54D17*
D03*
X-76200Y25400D02*
G54D17*
D03*
X-78445Y-30820D02*
G54D17*
D03*
X292100Y-6350D02*
G54D17*
D03*
X349250Y-6350D02*
G54D17*
D03*
X150277Y54700D02*
G54D17*
D03*
X96395Y108652D02*
G54D17*
D03*
X150277Y54700D02*
G54D18*
D03*
X154328Y-73076D02*
G54D17*
D03*
X154378Y3174D02*
G54D17*
D03*
X154328Y-73076D02*
G54D18*
D03*
X76200Y47750D02*
G54D17*
D03*
X76200Y-3050D02*
G54D17*
D03*
X-78445Y-30820D02*
G54D17*
D03*
G54D19*
X154378Y3174D02*
X152400Y3250D01*
X95250Y60400D01*
X95250Y111200D01*
X96395Y108652D01*
G54D19*
X76200Y47750D02*
X76200Y47700D01*
X95250Y66750D01*
X95250Y111200D01*
X96395Y108652D01*
G54D19*
X150277Y54700D02*
X152400Y54050D01*
X158750Y60400D01*
X215900Y60400D01*
X215900Y79500D01*
X76200Y-3050D02*
G54D17*
D03*
X-19906Y-31657D02*
G54D17*
D03*
X31074Y-31545D02*
G54D17*
D03*
X-19906Y-31657D02*
G54D17*
D03*
G54D19*
X31074Y-31545D02*
X31750Y-28500D01*
X50800Y-9450D01*
X50800Y22300D01*
X76200Y47700D01*
X76200Y47750D01*
G54D19*
X292100Y-6350D02*
X292100Y-9450D01*
X254000Y28650D01*
X215900Y28650D01*
X215900Y28700D01*
G54D19*
X154328Y-73076D02*
X152400Y-72950D01*
X203200Y-22150D01*
X254000Y-41150D01*
X304800Y-34850D01*
X317500Y-9450D01*
X342900Y-9450D01*
X342900Y-6350D01*
X254000Y-6350D02*
G54D17*
D03*
G54D19*
X254000Y-6350D02*
X292100Y-6350D01*
X76200Y-38100D02*
G54D17*
D03*
X215900Y112520D02*
G54D17*
D03*
G54D19*
X215900Y112520D02*
X215900Y111250D01*
X215900Y73150D01*
X215900Y79500D01*
X0Y101600D02*
G54D17*
D03*
X0Y50800D02*
G54D17*
D03*
X279400Y101600D02*
G54D17*
D03*
X279400Y50800D02*
G54D17*
D03*
X-78445Y-81620D02*
G54D17*
D03*
G54D19*
X31074Y-31545D02*
X25400Y-25400D01*
X-25400Y25400D01*
X-76200Y25400D01*
X215900Y-69850D02*
G54D20*
D03*
X-101600Y95250D02*
G54D20*
D03*
X368300Y95250D02*
G54D20*
D03*
M02*
