%FSLAX34Y34*%
%MOMM*%
%LNSILK_TOP*%
G71*
G01*
%ADD10C,0.150*%
%ADD11C,0.167*%
%ADD12C,0.222*%
%ADD13C,0.200*%
%ADD14C,0.178*%
%ADD15C,0.400*%
%ADD16C,0.133*%
%LPD*%
G54D10*
X-46695Y32680D02*
X-110195Y32680D01*
X-110195Y-94320D01*
X-46695Y-94320D01*
X-46695Y32680D01*
G54D10*
X311150Y-82550D02*
X374650Y-82550D01*
X374650Y44450D01*
X311150Y44450D01*
X311150Y-82550D01*
G54D10*
X149110Y71629D02*
X133430Y55949D01*
X97580Y91800D01*
X113260Y107480D01*
X149110Y71629D01*
G54D10*
X141412Y63648D02*
X146998Y58062D01*
G54D10*
X105349Y99710D02*
X99763Y105296D01*
G54D11*
X101296Y72286D02*
X101531Y69694D01*
X100824Y68044D01*
X98467Y65687D01*
G54D11*
X94696Y69458D02*
X104124Y78886D01*
X106481Y76529D01*
X106835Y74997D01*
X106128Y73347D01*
X104949Y72168D01*
X103299Y71461D01*
X101767Y71815D01*
X99410Y74172D01*
G54D11*
X110488Y72522D02*
X114259Y68751D01*
X112609Y68044D01*
X109899Y67219D01*
X106599Y65805D01*
X104360Y64508D01*
X102003Y62151D01*
G54D11*
X8843Y-11726D02*
X7843Y-13392D01*
X5843Y-14226D01*
X3843Y-14226D01*
X1843Y-13392D01*
X843Y-11726D01*
X843Y-3392D01*
X1843Y-1726D01*
X3843Y-892D01*
X5843Y-892D01*
X7843Y-1726D01*
X8843Y-3392D01*
G54D11*
X12510Y-5892D02*
X17510Y-892D01*
X17510Y-14226D01*
G54D11*
X195773Y90961D02*
X194773Y89294D01*
X192773Y88461D01*
X190773Y88461D01*
X188773Y89294D01*
X187773Y90961D01*
X187773Y99294D01*
X188773Y100961D01*
X190773Y101794D01*
X192773Y101794D01*
X194773Y100961D01*
X195773Y99294D01*
G54D11*
X207440Y88461D02*
X199440Y88461D01*
X199440Y89294D01*
X200440Y90961D01*
X206440Y95961D01*
X207440Y97628D01*
X207440Y99294D01*
X206440Y100961D01*
X204440Y101794D01*
X202440Y101794D01*
X200440Y100961D01*
X199440Y99294D01*
G54D10*
X165474Y-60280D02*
X143299Y-60280D01*
X143299Y-9580D01*
X165474Y-9580D01*
X165474Y-60280D01*
G54D10*
X154387Y-60480D02*
X154387Y-68380D01*
G54D10*
X154387Y-9480D02*
X154386Y-1580D01*
G54D11*
X132129Y-26005D02*
X130462Y-28005D01*
X128796Y-28672D01*
X125462Y-28672D01*
G54D11*
X125462Y-23339D02*
X138796Y-23339D01*
X138796Y-26672D01*
X137962Y-28005D01*
X136296Y-28672D01*
X134629Y-28672D01*
X132962Y-28005D01*
X132129Y-26672D01*
X132129Y-23339D01*
G54D11*
X132129Y-35672D02*
X132129Y-34339D01*
X132962Y-33005D01*
X134629Y-32339D01*
X136296Y-32339D01*
X137962Y-33005D01*
X138796Y-34339D01*
X138796Y-35672D01*
X137962Y-37005D01*
X136296Y-37672D01*
X134629Y-37672D01*
X132962Y-37005D01*
X132129Y-35672D01*
X131296Y-37005D01*
X129629Y-37672D01*
X127962Y-37672D01*
X126296Y-37005D01*
X125462Y-35672D01*
X125462Y-34339D01*
X126296Y-33005D01*
X127962Y-32339D01*
X129629Y-32339D01*
X131296Y-33005D01*
X132129Y-34339D01*
G54D12*
X-39237Y-67449D02*
X-39237Y-85227D01*
X-33015Y-85227D01*
G54D12*
X-21015Y-85227D02*
X-28126Y-85227D01*
X-28126Y-84116D01*
X-27237Y-81893D01*
X-21904Y-75227D01*
X-21015Y-73004D01*
X-21015Y-70782D01*
X-21904Y-68560D01*
X-23681Y-67449D01*
X-25459Y-67449D01*
X-27237Y-68560D01*
X-28126Y-70782D01*
G54D12*
X334933Y-31078D02*
X334933Y-48856D01*
X341155Y-48856D01*
G54D12*
X346044Y-37745D02*
X350488Y-31078D01*
X350488Y-48856D01*
G54D13*
G75*
G01X254000Y41350D02*
G03X254000Y41350I-38100J0D01*
G01*
G54D13*
G75*
G01X114300Y28650D02*
G03X114300Y28650I-38100J0D01*
G01*
G54D11*
X56073Y78261D02*
X55073Y76594D01*
X53073Y75761D01*
X51073Y75761D01*
X49073Y76594D01*
X48073Y78261D01*
X48073Y86594D01*
X49073Y88261D01*
X51073Y89094D01*
X53073Y89094D01*
X55073Y88261D01*
X56073Y86594D01*
G54D11*
X65740Y75761D02*
X65740Y89094D01*
X59740Y80761D01*
X59740Y79094D01*
X67740Y79094D01*
G54D10*
X-30121Y-18824D02*
X-30121Y-44224D01*
X41479Y-44224D01*
X41479Y-18824D01*
X-30121Y-18824D01*
G54D11*
X22535Y-49616D02*
X22535Y-49616D01*
G54D14*
X-114300Y123950D02*
X-114300Y138172D01*
X-108967Y138172D01*
X-106833Y137283D01*
X-105767Y135506D01*
X-105767Y126617D01*
X-106833Y124839D01*
X-108967Y123950D01*
X-114300Y123950D01*
G54D14*
X-101856Y123950D02*
X-101856Y138172D01*
G54D14*
X-97945Y123950D02*
X-97945Y138172D01*
X-92612Y138172D01*
X-90478Y137283D01*
X-89412Y135506D01*
X-89412Y133728D01*
X-90478Y131950D01*
X-92612Y131061D01*
X-97945Y131061D01*
G54D14*
X-85501Y138172D02*
X-85501Y123950D01*
X-78034Y123950D01*
G54D14*
X-66656Y123950D02*
X-74123Y123950D01*
X-74123Y138172D01*
X-66656Y138172D01*
G54D14*
X-74123Y131061D02*
X-66656Y131061D01*
G54D14*
X-62745Y138172D02*
X-52078Y123950D01*
G54D14*
X-62745Y123950D02*
X-52078Y138172D01*
G54D14*
X-40700Y123950D02*
X-48167Y123950D01*
X-48167Y138172D01*
X-40700Y138172D01*
G54D14*
X-48167Y131061D02*
X-40700Y131061D01*
G54D14*
X-32522Y131061D02*
X-29322Y129283D01*
X-28256Y127506D01*
X-28256Y123950D01*
G54D14*
X-36789Y123950D02*
X-36789Y138172D01*
X-31456Y138172D01*
X-29322Y137283D01*
X-28256Y135506D01*
X-28256Y133728D01*
X-29322Y131950D01*
X-31456Y131061D01*
X-36789Y131061D01*
G54D15*
X247650Y-6350D02*
X349250Y-6350D01*
G54D16*
X-12700Y76200D02*
X-12700Y86867D01*
G54D16*
X-9767Y76200D02*
X-9767Y86867D01*
X-3367Y76200D01*
X-3367Y86867D01*
G54D16*
X285800Y84867D02*
X285800Y78200D01*
X285000Y76867D01*
X283400Y76200D01*
X281800Y76200D01*
X280200Y76867D01*
X279400Y78200D01*
X279400Y84867D01*
X280200Y86200D01*
X281800Y86867D01*
X283400Y86867D01*
X285000Y86200D01*
X285800Y84867D01*
G54D16*
X288733Y86867D02*
X288733Y78200D01*
X289533Y76867D01*
X291133Y76200D01*
X292733Y76200D01*
X294333Y76867D01*
X295133Y78200D01*
X295133Y86867D01*
G54D16*
X301266Y76200D02*
X301266Y86867D01*
G54D16*
X298066Y86867D02*
X304466Y86867D01*
G54D15*
X-76200Y25400D02*
X-76200Y-79375D01*
X-78445Y-81620D01*
M02*
