; Drill file
; Format: 2.4 (00.0000)
M48
INCH
T01C0.0354
T02C0.0906
%
G05
G90
T01
X-003090Y-003210
X-003090Y-001210
X-003000Y001000
X-000780Y-001250
X001220Y-001240
X003000Y-001500
X003000Y-000120
X003000Y001880
X003800Y004280
X005920Y002150
X006080Y000120
X008500Y000880
X010000Y-000250
X011500Y-000250
X013750Y-000250
X011000Y002000
X011000Y004000
X008500Y004430
X008500Y003130
X006080Y-002880
X000000Y002000
X000000Y004000
T02
X-004000Y003750
X008500Y-002750
X014500Y003750
M30
