%FSLAX34Y34*%
%MOMM*%
%LNSOLDERMASK_TOP*%
G71*
G01*
%ADD10C,2.600*%
%ADD11C,1.600*%
%ADD12C,2.600*%
%ADD13C,2.500*%
%ADD14C,2.800*%
%ADD15C,4.900*%
%ADD16C,2.400*%
%LPD*%
X105550Y-70090D02*
G54D10*
D03*
X130950Y-70090D02*
G54D10*
D03*
X130950Y-70090D02*
G54D10*
D03*
X156350Y-70090D02*
G54D10*
D03*
X156350Y-70090D02*
G54D10*
D03*
X181750Y-70090D02*
G54D10*
D03*
X181750Y-70090D02*
G54D10*
D03*
X207150Y-70090D02*
G54D10*
D03*
X207150Y-70090D02*
G54D10*
D03*
X232550Y-70090D02*
G54D10*
D03*
X232550Y-70090D02*
G54D10*
D03*
X257950Y-70090D02*
G54D10*
D03*
X257950Y-70090D02*
G54D10*
D03*
X257950Y-95490D02*
G54D10*
D03*
X257950Y-95490D02*
G54D10*
D03*
X257950Y-120890D02*
G54D10*
D03*
X105550Y-70090D02*
G54D10*
D03*
X105550Y-95490D02*
G54D10*
D03*
X105550Y-95490D02*
G54D10*
D03*
X105550Y-120890D02*
G54D10*
D03*
X105550Y-120890D02*
G54D10*
D03*
X130950Y-120890D02*
G54D10*
D03*
X130950Y-120890D02*
G54D10*
D03*
X156350Y-120890D02*
G54D10*
D03*
X156350Y-120890D02*
G54D10*
D03*
X181750Y-120890D02*
G54D10*
D03*
X181750Y-120890D02*
G54D10*
D03*
X207150Y-120890D02*
G54D10*
D03*
X207150Y-120890D02*
G54D10*
D03*
X232550Y-120890D02*
G54D10*
D03*
X232550Y-120890D02*
G54D10*
D03*
X257950Y-120890D02*
G54D10*
D03*
X257950Y-120890D02*
G54D10*
D03*
X105550Y-120890D02*
G54D10*
D03*
X-148450Y-70090D02*
G54D10*
D03*
X-123050Y-70090D02*
G54D10*
D03*
X-123050Y-70090D02*
G54D10*
D03*
X-97650Y-70090D02*
G54D10*
D03*
X-97650Y-70090D02*
G54D10*
D03*
X-72250Y-70090D02*
G54D10*
D03*
X-72250Y-70090D02*
G54D10*
D03*
X-46850Y-70090D02*
G54D10*
D03*
X-46850Y-70090D02*
G54D10*
D03*
X-21450Y-70090D02*
G54D10*
D03*
X-21450Y-70090D02*
G54D10*
D03*
X3950Y-70090D02*
G54D10*
D03*
X3950Y-70090D02*
G54D10*
D03*
X3950Y-95490D02*
G54D10*
D03*
X3950Y-95490D02*
G54D10*
D03*
X3950Y-120890D02*
G54D10*
D03*
X-148450Y-70090D02*
G54D10*
D03*
X-148450Y-95490D02*
G54D10*
D03*
X-148450Y-95490D02*
G54D10*
D03*
X-148450Y-120890D02*
G54D10*
D03*
X-148450Y-120890D02*
G54D10*
D03*
X-123050Y-120890D02*
G54D10*
D03*
X-123050Y-120890D02*
G54D10*
D03*
X-97650Y-120890D02*
G54D10*
D03*
X-97650Y-120890D02*
G54D10*
D03*
X-72250Y-120890D02*
G54D10*
D03*
X-72250Y-120890D02*
G54D10*
D03*
X-46850Y-120890D02*
G54D10*
D03*
X-46850Y-120890D02*
G54D10*
D03*
X-21450Y-120890D02*
G54D10*
D03*
X-21450Y-120890D02*
G54D10*
D03*
X3950Y-120890D02*
G54D10*
D03*
X3950Y-120890D02*
G54D10*
D03*
X-148450Y-120890D02*
G54D10*
D03*
X29350Y-216140D02*
G54D10*
D03*
X29350Y-216140D02*
G54D10*
D03*
X54750Y-216140D02*
G54D10*
D03*
X54750Y-216140D02*
G54D10*
D03*
X80150Y-216140D02*
G54D10*
D03*
X80150Y-216140D02*
G54D10*
D03*
X105550Y-216140D02*
G54D10*
D03*
X105550Y-216140D02*
G54D10*
D03*
X-148450Y6110D02*
G54D10*
D03*
X-123050Y6110D02*
G54D10*
D03*
X-97650Y6110D02*
G54D10*
D03*
X-148450Y-19290D02*
G54D11*
D03*
X-97650Y-19290D02*
G54D11*
D03*
X-330783Y-206934D02*
G54D10*
D03*
X-330833Y-283184D02*
G54D10*
D03*
X-330783Y-206934D02*
G54D12*
D03*
X-254592Y-207008D02*
G54D10*
D03*
X-330842Y-206958D02*
G54D10*
D03*
X-254592Y-207008D02*
G54D12*
D03*
X-254592Y-207008D02*
G54D10*
D03*
X-254642Y-283258D02*
G54D10*
D03*
X-254592Y-207008D02*
G54D12*
D03*
X-356182Y-79934D02*
G54D10*
D03*
X-356233Y-156184D02*
G54D10*
D03*
X-356183Y-79934D02*
G54D12*
D03*
X-279992Y-80008D02*
G54D10*
D03*
X-356242Y-79958D02*
G54D10*
D03*
X-279992Y-80008D02*
G54D12*
D03*
X-279992Y-80008D02*
G54D10*
D03*
X-280042Y-156258D02*
G54D10*
D03*
X-279992Y-80008D02*
G54D12*
D03*
X-396427Y-238639D02*
G54D10*
D03*
X-396427Y-264039D02*
G54D10*
D03*
X-396427Y-124339D02*
G54D10*
D03*
X-396427Y-149739D02*
G54D10*
D03*
X467173Y53461D02*
G54D10*
D03*
X467173Y28061D02*
G54D10*
D03*
X486550Y69610D02*
G54D11*
D03*
X260350Y-187200D02*
G54D10*
D03*
X-203200Y-393650D02*
G54D13*
D03*
X-203200Y-292050D02*
G54D13*
D03*
X-158365Y-374365D02*
G54D14*
D03*
X-158365Y-298165D02*
G54D14*
D03*
X-82165Y-374365D02*
G54D14*
D03*
X-31365Y-374365D02*
G54D14*
D03*
X19435Y-374365D02*
G54D14*
D03*
X-82165Y-298165D02*
G54D14*
D03*
X-31365Y-298165D02*
G54D14*
D03*
X19435Y-298165D02*
G54D14*
D03*
X-104940Y-259475D02*
G54D10*
D03*
X-155921Y-259587D02*
G54D10*
D03*
X-104940Y-259475D02*
G54D10*
D03*
X-203200Y-393650D02*
G54D10*
D03*
X-158365Y-374365D02*
G54D10*
D03*
X328052Y-27496D02*
G54D13*
D03*
X429652Y-27496D02*
G54D13*
D03*
X347337Y-72330D02*
G54D14*
D03*
X423537Y-72330D02*
G54D14*
D03*
X347337Y-148530D02*
G54D14*
D03*
X347337Y-199330D02*
G54D14*
D03*
X347337Y-250130D02*
G54D14*
D03*
X423537Y-148530D02*
G54D14*
D03*
X423537Y-199330D02*
G54D14*
D03*
X423537Y-250130D02*
G54D14*
D03*
X462227Y-125755D02*
G54D10*
D03*
X462115Y-74774D02*
G54D10*
D03*
X462227Y-125755D02*
G54D10*
D03*
X328052Y-27496D02*
G54D10*
D03*
X347337Y-72330D02*
G54D10*
D03*
X-196950Y63500D02*
G54D10*
D03*
X-171450Y63500D02*
G54D10*
D03*
X-158365Y-298165D02*
G54D10*
D03*
X347337Y-72330D02*
G54D10*
D03*
G36*
X514050Y-66400D02*
X540050Y-66400D01*
X540050Y-92400D01*
X514050Y-92400D01*
X514050Y-66400D01*
G37*
G36*
X514050Y-358500D02*
X540050Y-358500D01*
X540050Y-384500D01*
X514050Y-384500D01*
X514050Y-358500D01*
G37*
X266700Y-336500D02*
G54D10*
D03*
X266700Y-368250D02*
G54D10*
D03*
X-76200Y-428700D02*
G54D10*
D03*
X-76200Y-479500D02*
G54D10*
D03*
X342900Y-403300D02*
G54D10*
D03*
X393700Y-403300D02*
G54D10*
D03*
X201077Y-342250D02*
G54D10*
D03*
X147195Y-288298D02*
G54D10*
D03*
X201077Y-342250D02*
G54D12*
D03*
X205128Y-470026D02*
G54D10*
D03*
X205178Y-393776D02*
G54D10*
D03*
X205128Y-470026D02*
G54D12*
D03*
G36*
X107650Y-504550D02*
X133650Y-504550D01*
X133650Y-530550D01*
X107650Y-530550D01*
X107650Y-504550D01*
G37*
X127000Y-349200D02*
G54D10*
D03*
X127000Y-380950D02*
G54D10*
D03*
X-76200Y-479500D02*
G54D10*
D03*
X127000Y-380950D02*
G54D10*
D03*
X30894Y-428607D02*
G54D10*
D03*
X81874Y-428495D02*
G54D10*
D03*
X283350Y-209790D02*
G54D11*
D03*
X30894Y-428607D02*
G54D10*
D03*
X-387350Y-511250D02*
G54D15*
D03*
G36*
X-286050Y-504550D02*
X-260050Y-504550D01*
X-260050Y-530550D01*
X-286050Y-530550D01*
X-286050Y-504550D01*
G37*
X527050Y-511250D02*
G54D15*
D03*
G36*
X412450Y-504550D02*
X438450Y-504550D01*
X438450Y-530550D01*
X412450Y-530550D01*
X412450Y-504550D01*
G37*
X527050Y72950D02*
G54D15*
D03*
G36*
X-413050Y-383900D02*
X-387050Y-383900D01*
X-387050Y-409900D01*
X-413050Y-409900D01*
X-413050Y-383900D01*
G37*
X-356782Y72522D02*
G54D16*
D03*
X-374357Y88422D02*
G54D16*
D03*
X-391973Y72487D02*
G54D16*
D03*
X-401847Y33135D02*
G54D10*
D03*
X-350866Y33248D02*
G54D10*
D03*
X-404254Y6488D02*
G54D10*
D03*
X-328004Y6438D02*
G54D10*
D03*
X-404254Y-31612D02*
G54D10*
D03*
X-328004Y-31662D02*
G54D10*
D03*
X-279400Y76200D02*
G54D10*
D03*
X-254000Y76200D02*
G54D10*
D03*
X-260350Y-3250D02*
G54D15*
D03*
X63500Y66600D02*
G54D10*
D03*
X144601Y65863D02*
G54D10*
D03*
X228600Y66600D02*
G54D10*
D03*
X-42500Y66073D02*
G54D10*
D03*
X300400Y66073D02*
G54D10*
D03*
M02*
