%FSLAX34Y34*%
%MOMM*%
%LNCOPPER_BOTTOM*%
G71*
G01*
%ADD10C,2.800*%
%ADD11C,1.700*%
%ADD12C,1.400*%
%ADD13C,1.800*%
%ADD14C,3.200*%
%ADD15C,2.800*%
%ADD16C,1.800*%
%ADD17C,2.700*%
%ADD18C,3.000*%
%ADD19C,3.000*%
%ADD20C,0.667*%
%ADD21C,0.680*%
%ADD22C,0.813*%
%ADD23C,1.260*%
%ADD24C,2.000*%
%ADD25C,0.900*%
%ADD26C,0.600*%
%ADD27C,1.000*%
%ADD28C,2.000*%
%ADD29C,1.000*%
%ADD30C,1.900*%
%ADD31C,2.200*%
%ADD32C,4.300*%
%ADD33C,1.800*%
%LPD*%
G36*
X-431800Y104700D02*
X558200Y104700D01*
X558200Y-545300D01*
X-431800Y-545300D01*
X-431800Y104700D01*
G37*
%LPC*%
X105550Y-70090D02*
G54D10*
D03*
X130950Y-70090D02*
G54D10*
D03*
X130950Y-70090D02*
G54D10*
D03*
X156350Y-70090D02*
G54D10*
D03*
X156350Y-70090D02*
G54D10*
D03*
X181750Y-70090D02*
G54D10*
D03*
X181750Y-70090D02*
G54D10*
D03*
X207150Y-70090D02*
G54D10*
D03*
X207150Y-70090D02*
G54D10*
D03*
X232550Y-70090D02*
G54D10*
D03*
X232550Y-70090D02*
G54D10*
D03*
X257950Y-70090D02*
G54D10*
D03*
X257950Y-70090D02*
G54D10*
D03*
X257950Y-95490D02*
G54D10*
D03*
X257950Y-95490D02*
G54D10*
D03*
X257950Y-120890D02*
G54D10*
D03*
X105550Y-70090D02*
G54D10*
D03*
X105550Y-95490D02*
G54D10*
D03*
X105550Y-95490D02*
G54D10*
D03*
X105550Y-120890D02*
G54D10*
D03*
X105550Y-120890D02*
G54D10*
D03*
X130950Y-120890D02*
G54D10*
D03*
X130950Y-120890D02*
G54D10*
D03*
X156350Y-120890D02*
G54D10*
D03*
X156350Y-120890D02*
G54D10*
D03*
X181750Y-120890D02*
G54D10*
D03*
X181750Y-120890D02*
G54D10*
D03*
X207150Y-120890D02*
G54D10*
D03*
X207150Y-120890D02*
G54D10*
D03*
X232550Y-120890D02*
G54D10*
D03*
X232550Y-120890D02*
G54D10*
D03*
X257950Y-120890D02*
G54D10*
D03*
X257950Y-120890D02*
G54D10*
D03*
X105550Y-120890D02*
G54D10*
D03*
X-148450Y-70090D02*
G54D10*
D03*
X-123050Y-70090D02*
G54D10*
D03*
X-123050Y-70090D02*
G54D10*
D03*
X-97650Y-70090D02*
G54D10*
D03*
X-97650Y-70090D02*
G54D10*
D03*
X-72250Y-70090D02*
G54D10*
D03*
X-72250Y-70090D02*
G54D10*
D03*
X-46850Y-70090D02*
G54D10*
D03*
X-46850Y-70090D02*
G54D10*
D03*
X-21450Y-70090D02*
G54D10*
D03*
X-21450Y-70090D02*
G54D10*
D03*
X3950Y-70090D02*
G54D10*
D03*
X3950Y-70090D02*
G54D10*
D03*
X3950Y-95490D02*
G54D10*
D03*
X3950Y-95490D02*
G54D10*
D03*
X3950Y-120890D02*
G54D10*
D03*
X-148450Y-70090D02*
G54D10*
D03*
X-148450Y-95490D02*
G54D10*
D03*
X-148450Y-95490D02*
G54D10*
D03*
X-148450Y-120890D02*
G54D10*
D03*
X-148450Y-120890D02*
G54D10*
D03*
X-123050Y-120890D02*
G54D10*
D03*
X-123050Y-120890D02*
G54D10*
D03*
X-97650Y-120890D02*
G54D10*
D03*
X-97650Y-120890D02*
G54D10*
D03*
X-72250Y-120890D02*
G54D10*
D03*
X-72250Y-120890D02*
G54D10*
D03*
X-46850Y-120890D02*
G54D10*
D03*
X-46850Y-120890D02*
G54D10*
D03*
X-21450Y-120890D02*
G54D10*
D03*
X-21450Y-120890D02*
G54D10*
D03*
X3950Y-120890D02*
G54D10*
D03*
X3950Y-120890D02*
G54D10*
D03*
X-148450Y-120890D02*
G54D10*
D03*
X29350Y-216140D02*
G54D10*
D03*
X29350Y-216140D02*
G54D10*
D03*
X54750Y-216140D02*
G54D10*
D03*
X54750Y-216140D02*
G54D10*
D03*
X80150Y-216140D02*
G54D10*
D03*
X80150Y-216140D02*
G54D10*
D03*
X105550Y-216140D02*
G54D10*
D03*
X105550Y-216140D02*
G54D10*
D03*
G54D11*
X-46850Y-120890D02*
X-46850Y-70090D01*
G54D11*
X207150Y-120890D02*
X207150Y-70090D01*
X-148450Y6110D02*
G54D10*
D03*
X-123050Y6110D02*
G54D10*
D03*
X-97650Y6110D02*
G54D10*
D03*
G54D12*
X-97650Y6110D02*
X-100800Y9260D01*
X-100800Y2910D01*
X-170650Y-66940D01*
X-170650Y-73290D01*
X-164300Y-79640D01*
X-164300Y-105040D01*
X-151600Y-117740D01*
X-148450Y-120890D01*
G54D12*
X-148450Y6110D02*
X-151600Y9260D01*
X-183350Y-22490D01*
X-183350Y-79640D01*
X-177000Y-85990D01*
X-177000Y-111390D01*
X-164300Y-124090D01*
X-164300Y-130440D01*
X-100800Y-193940D01*
X57950Y-193940D01*
X64300Y-200290D01*
X89700Y-200290D01*
X102400Y-212990D01*
X105550Y-216140D01*
G54D12*
X-148450Y6110D02*
X-151600Y9260D01*
X-132550Y28310D01*
X-119850Y28310D01*
X-113500Y21960D01*
X-88100Y21960D01*
X800Y-66940D01*
X3950Y-70090D01*
G54D12*
X-148450Y6110D02*
X-151600Y9260D01*
X-132550Y28310D01*
X-119850Y28310D01*
X-113500Y21960D01*
X-88100Y21960D01*
X-18250Y-47890D01*
X159550Y-47890D01*
X165900Y-54240D01*
X191300Y-54240D01*
X204000Y-66940D01*
X207150Y-70090D01*
X-148450Y-19290D02*
G54D13*
D03*
X-97650Y-19290D02*
G54D13*
D03*
G54D12*
X-148450Y-19290D02*
X-146050Y-17500D01*
X-146050Y7900D01*
X-148450Y6110D01*
G54D12*
X-97650Y-19290D02*
X-95250Y-17500D01*
X-95250Y7900D01*
X-97650Y6110D01*
X-330783Y-206934D02*
G54D14*
D03*
X-330833Y-283184D02*
G54D14*
D03*
X-330783Y-206934D02*
G54D15*
D03*
X-254592Y-207008D02*
G54D14*
D03*
X-330842Y-206958D02*
G54D14*
D03*
X-254592Y-207008D02*
G54D15*
D03*
X-254592Y-207008D02*
G54D14*
D03*
X-254642Y-283258D02*
G54D14*
D03*
X-254592Y-207008D02*
G54D15*
D03*
X-356182Y-79934D02*
G54D14*
D03*
X-356233Y-156184D02*
G54D14*
D03*
X-356183Y-79934D02*
G54D15*
D03*
X-279992Y-80008D02*
G54D14*
D03*
X-356242Y-79958D02*
G54D14*
D03*
X-279992Y-80008D02*
G54D15*
D03*
X-279992Y-80008D02*
G54D14*
D03*
X-280042Y-156258D02*
G54D14*
D03*
X-279992Y-80008D02*
G54D15*
D03*
X-396427Y-238639D02*
G54D10*
D03*
X-396427Y-264039D02*
G54D10*
D03*
X-396427Y-124339D02*
G54D10*
D03*
X-396427Y-149739D02*
G54D10*
D03*
X467173Y53461D02*
G54D10*
D03*
X467173Y28061D02*
G54D10*
D03*
G54D11*
X-396427Y-238639D02*
X-371027Y-213239D01*
X-332927Y-213239D01*
X-330842Y-206958D01*
X486550Y69610D02*
G54D13*
D03*
X260350Y-187200D02*
G54D10*
D03*
G54D16*
X260350Y-187200D02*
X285750Y-161800D01*
X285750Y-85600D01*
X273050Y-72900D01*
X260350Y-72900D01*
X257950Y-70090D01*
G54D16*
X260350Y-187200D02*
X222250Y-149100D01*
X-31750Y-149100D01*
X-44450Y-136400D01*
X-44450Y-123700D01*
X-46850Y-120890D01*
G54D16*
X260350Y-187200D02*
X209550Y-238000D01*
X95250Y-238000D01*
X82550Y-225300D01*
X82550Y-212600D01*
X80150Y-216140D01*
G54D16*
X-396427Y-124339D02*
X-400050Y-123700D01*
X-361950Y-85600D01*
X-356242Y-79958D01*
G54D16*
X-279992Y-80008D02*
X-285750Y-85600D01*
X-196850Y3300D01*
X-146050Y3300D01*
X-148450Y6110D01*
X-203200Y-393650D02*
G54D17*
D03*
X-203200Y-292050D02*
G54D17*
D03*
X-158365Y-374365D02*
G54D18*
D03*
X-158365Y-298165D02*
G54D18*
D03*
X-82165Y-374365D02*
G54D18*
D03*
X-31365Y-374365D02*
G54D18*
D03*
X19435Y-374365D02*
G54D18*
D03*
X-82165Y-298165D02*
G54D18*
D03*
X-31365Y-298165D02*
G54D18*
D03*
X19435Y-298165D02*
G54D18*
D03*
X-104940Y-259475D02*
G54D14*
D03*
X-155921Y-259587D02*
G54D14*
D03*
X-104940Y-259475D02*
G54D14*
D03*
X-203200Y-393650D02*
G54D14*
D03*
X-158365Y-374365D02*
G54D14*
D03*
G54D12*
X-155921Y-259587D02*
X-158750Y-257250D01*
X-158750Y-295350D01*
X-158365Y-298165D01*
G54D12*
X-82165Y-298165D02*
X-82550Y-295350D01*
X-82550Y-371550D01*
X-82165Y-374365D01*
X328052Y-27496D02*
G54D17*
D03*
X429652Y-27496D02*
G54D17*
D03*
X347337Y-72330D02*
G54D18*
D03*
X423537Y-72330D02*
G54D18*
D03*
X347337Y-148530D02*
G54D18*
D03*
X347337Y-199330D02*
G54D18*
D03*
X347337Y-250130D02*
G54D18*
D03*
X423537Y-148530D02*
G54D18*
D03*
X423537Y-199330D02*
G54D18*
D03*
X423537Y-250130D02*
G54D18*
D03*
X462227Y-125755D02*
G54D14*
D03*
X462115Y-74774D02*
G54D14*
D03*
X462227Y-125755D02*
G54D14*
D03*
X328052Y-27496D02*
G54D14*
D03*
X347337Y-72330D02*
G54D14*
D03*
G54D12*
X423537Y-148530D02*
X426352Y-148146D01*
X350152Y-148146D01*
X347337Y-148530D01*
X-196950Y63500D02*
G54D14*
D03*
X-171450Y63500D02*
G54D14*
D03*
X-158365Y-298165D02*
G54D10*
D03*
X347337Y-72330D02*
G54D10*
D03*
G54D16*
X-155921Y-259587D02*
X-158750Y-254000D01*
X-196850Y-292100D01*
X-203200Y-292050D01*
G54D16*
X423537Y-72330D02*
X425450Y-76200D01*
X425450Y-25400D01*
X429652Y-27495D01*
G54D16*
X423537Y-148530D02*
X425450Y-152400D01*
X438150Y-139700D01*
X438150Y-114300D01*
X450850Y-101600D01*
X463550Y-101600D01*
X488950Y-76200D01*
X488950Y38100D01*
X476250Y50800D01*
X463550Y50800D01*
X467173Y53461D01*
G36*
X513050Y-65400D02*
X541050Y-65400D01*
X541050Y-93400D01*
X513050Y-93400D01*
X513050Y-65400D01*
G37*
G36*
X513050Y-357500D02*
X541050Y-357500D01*
X541050Y-385500D01*
X513050Y-385500D01*
X513050Y-357500D01*
G37*
G54D16*
X462115Y-74774D02*
X457200Y-76200D01*
X419100Y-76200D01*
X423537Y-72330D01*
X266700Y-336500D02*
G54D10*
D03*
X266700Y-368250D02*
G54D10*
D03*
X-76200Y-428700D02*
G54D10*
D03*
X-76200Y-479500D02*
G54D10*
D03*
X342900Y-403300D02*
G54D10*
D03*
X393700Y-403300D02*
G54D10*
D03*
X201077Y-342250D02*
G54D14*
D03*
X147195Y-288298D02*
G54D14*
D03*
X201077Y-342250D02*
G54D15*
D03*
X205128Y-470026D02*
G54D14*
D03*
X205178Y-393776D02*
G54D14*
D03*
X205128Y-470026D02*
G54D15*
D03*
G36*
X106650Y-503550D02*
X134650Y-503550D01*
X134650Y-531550D01*
X106650Y-531550D01*
X106650Y-503550D01*
G37*
X127000Y-349200D02*
G54D10*
D03*
X127000Y-380950D02*
G54D10*
D03*
X-76200Y-479500D02*
G54D10*
D03*
G54D12*
X205178Y-393776D02*
X203200Y-393700D01*
X146050Y-336550D01*
X146050Y-285750D01*
X147195Y-288298D01*
G54D12*
X127000Y-349200D02*
X127000Y-349250D01*
X146050Y-330200D01*
X146050Y-285750D01*
X147195Y-288298D01*
G54D12*
X201077Y-342250D02*
X203200Y-342900D01*
X209550Y-336550D01*
X266700Y-336550D01*
X266700Y-336500D01*
X127000Y-380950D02*
G54D10*
D03*
X30894Y-428607D02*
G54D14*
D03*
X81874Y-428495D02*
G54D14*
D03*
X283350Y-209790D02*
G54D13*
D03*
G54D12*
X283350Y-209790D02*
X285750Y-209550D01*
X260350Y-184150D01*
X260350Y-187200D01*
X30894Y-428607D02*
G54D14*
D03*
G54D12*
X81874Y-428495D02*
X82550Y-425450D01*
X101600Y-406400D01*
X101600Y-374650D01*
X127000Y-349250D01*
X127000Y-349200D01*
G36*
X-287050Y-503550D02*
X-259050Y-503550D01*
X-259050Y-531550D01*
X-287050Y-531550D01*
X-287050Y-503550D01*
G37*
G36*
X411450Y-503550D02*
X439450Y-503550D01*
X439450Y-531550D01*
X411450Y-531550D01*
X411450Y-503550D01*
G37*
G54D12*
X81874Y-428495D02*
X82550Y-425450D01*
X63500Y-406400D01*
X25400Y-406400D01*
X0Y-431800D01*
X-76200Y-431800D01*
X-76200Y-428700D01*
G54D12*
X342900Y-403300D02*
X342900Y-406400D01*
X304800Y-368300D01*
X266700Y-368300D01*
X266700Y-368250D01*
G54D12*
X205128Y-470026D02*
X203200Y-469900D01*
X254000Y-419100D01*
X355600Y-419100D01*
X368300Y-406400D01*
X393700Y-406400D01*
X393700Y-403300D01*
G36*
X-414050Y-382900D02*
X-386050Y-382900D01*
X-386050Y-410900D01*
X-414050Y-410900D01*
X-414050Y-382900D01*
G37*
X-356782Y72522D02*
G54D19*
D03*
X-374357Y88422D02*
G54D19*
D03*
X-391973Y72487D02*
G54D19*
D03*
X-401847Y33135D02*
G54D14*
D03*
X-350866Y33248D02*
G54D14*
D03*
X-404254Y6488D02*
G54D14*
D03*
X-328004Y6438D02*
G54D14*
D03*
X-404254Y-31612D02*
G54D14*
D03*
X-328004Y-31662D02*
G54D14*
D03*
G54D12*
X-350866Y33248D02*
X-349554Y33831D01*
X-355904Y40181D01*
X-355904Y71931D01*
X-356782Y72522D01*
G54D12*
X-401847Y33136D02*
X-400354Y33831D01*
X-374954Y59231D01*
X-374954Y90981D01*
X-374357Y88422D01*
G54D12*
X-328004Y6438D02*
X-330200Y6350D01*
X-349250Y25400D01*
X-349250Y31750D01*
X-350866Y33248D01*
G54D12*
X-404254Y-31612D02*
X-406400Y-31750D01*
X-406400Y6350D01*
X-404254Y6488D01*
G54D12*
X-404254Y6488D02*
X-406400Y6350D01*
X-400050Y12700D01*
X-400050Y31750D01*
X-401847Y33135D01*
X-279400Y76200D02*
G54D10*
D03*
X-254000Y76200D02*
G54D10*
D03*
G54D12*
X-350866Y33248D02*
X-349250Y31750D01*
X-336550Y44450D01*
X-190500Y44450D01*
X-171450Y63500D01*
X63500Y66600D02*
G54D10*
D03*
X144601Y65863D02*
G54D10*
D03*
X228600Y66600D02*
G54D10*
D03*
X-42500Y66073D02*
G54D10*
D03*
X300400Y66073D02*
G54D10*
D03*
G54D12*
X207150Y-70090D02*
X207150Y45150D01*
X228600Y66600D01*
%LPD*%
G54D20*
G36*
X153017Y-70090D02*
X153017Y-55590D01*
X159683Y-55590D01*
X159683Y-70090D01*
X153017Y-70090D01*
G37*
G36*
X156350Y-66757D02*
X170850Y-66757D01*
X170850Y-73423D01*
X156350Y-73423D01*
X156350Y-66757D01*
G37*
G36*
X159683Y-70090D02*
X159683Y-84590D01*
X153017Y-84590D01*
X153017Y-70090D01*
X159683Y-70090D01*
G37*
G36*
X156350Y-73423D02*
X141850Y-73423D01*
X141850Y-66757D01*
X156350Y-66757D01*
X156350Y-73423D01*
G37*
G54D20*
G36*
X105550Y-66757D02*
X120050Y-66757D01*
X120050Y-73423D01*
X105550Y-73423D01*
X105550Y-66757D01*
G37*
G36*
X108883Y-70090D02*
X108883Y-84590D01*
X102217Y-84590D01*
X102217Y-70090D01*
X108883Y-70090D01*
G37*
G36*
X105550Y-73423D02*
X91050Y-73423D01*
X91050Y-66757D01*
X105550Y-66757D01*
X105550Y-73423D01*
G37*
G36*
X102217Y-70090D02*
X102217Y-55590D01*
X108883Y-55590D01*
X108883Y-70090D01*
X102217Y-70090D01*
G37*
G54D20*
G36*
X153017Y-120890D02*
X153017Y-106390D01*
X159683Y-106390D01*
X159683Y-120890D01*
X153017Y-120890D01*
G37*
G36*
X156350Y-117557D02*
X170850Y-117557D01*
X170850Y-124223D01*
X156350Y-124223D01*
X156350Y-117557D01*
G37*
G36*
X159683Y-120890D02*
X159683Y-135390D01*
X153017Y-135390D01*
X153017Y-120890D01*
X159683Y-120890D01*
G37*
G36*
X156350Y-124223D02*
X141850Y-124223D01*
X141850Y-117557D01*
X156350Y-117557D01*
X156350Y-124223D01*
G37*
G54D20*
G36*
X257950Y-117557D02*
X272450Y-117557D01*
X272450Y-124223D01*
X257950Y-124223D01*
X257950Y-117557D01*
G37*
G36*
X261283Y-120890D02*
X261283Y-135390D01*
X254617Y-135390D01*
X254617Y-120890D01*
X261283Y-120890D01*
G37*
G36*
X257950Y-124223D02*
X243450Y-124223D01*
X243450Y-117557D01*
X257950Y-117557D01*
X257950Y-124223D01*
G37*
G36*
X254617Y-120890D02*
X254617Y-106390D01*
X261283Y-106390D01*
X261283Y-120890D01*
X254617Y-120890D01*
G37*
G54D20*
G36*
X-100983Y-70090D02*
X-100983Y-55590D01*
X-94316Y-55590D01*
X-94316Y-70090D01*
X-100983Y-70090D01*
G37*
G36*
X-97650Y-66757D02*
X-83150Y-66757D01*
X-83150Y-73423D01*
X-97650Y-73423D01*
X-97650Y-66757D01*
G37*
G36*
X-94316Y-70090D02*
X-94316Y-84590D01*
X-100983Y-84590D01*
X-100983Y-70090D01*
X-94316Y-70090D01*
G37*
G36*
X-97650Y-73423D02*
X-112150Y-73423D01*
X-112150Y-66757D01*
X-97650Y-66757D01*
X-97650Y-73423D01*
G37*
G54D20*
G36*
X-148450Y-66757D02*
X-133950Y-66757D01*
X-133950Y-73423D01*
X-148450Y-73423D01*
X-148450Y-66757D01*
G37*
G36*
X-145117Y-70090D02*
X-145117Y-84590D01*
X-151783Y-84590D01*
X-151783Y-70090D01*
X-145117Y-70090D01*
G37*
G36*
X-148450Y-73423D02*
X-162950Y-73423D01*
X-162950Y-66757D01*
X-148450Y-66757D01*
X-148450Y-73423D01*
G37*
G36*
X-151783Y-70090D02*
X-151783Y-55590D01*
X-145117Y-55590D01*
X-145117Y-70090D01*
X-151783Y-70090D01*
G37*
G54D20*
G36*
X-100983Y-120890D02*
X-100983Y-106390D01*
X-94316Y-106390D01*
X-94316Y-120890D01*
X-100983Y-120890D01*
G37*
G36*
X-97650Y-117557D02*
X-83150Y-117557D01*
X-83150Y-124223D01*
X-97650Y-124223D01*
X-97650Y-117557D01*
G37*
G36*
X-94316Y-120890D02*
X-94316Y-135390D01*
X-100983Y-135390D01*
X-100983Y-120890D01*
X-94316Y-120890D01*
G37*
G36*
X-97650Y-124223D02*
X-112150Y-124223D01*
X-112150Y-117557D01*
X-97650Y-117557D01*
X-97650Y-124223D01*
G37*
G54D20*
G36*
X3950Y-117557D02*
X18450Y-117557D01*
X18450Y-124223D01*
X3950Y-124223D01*
X3950Y-117557D01*
G37*
G36*
X7284Y-120890D02*
X7284Y-135390D01*
X617Y-135390D01*
X617Y-120890D01*
X7284Y-120890D01*
G37*
G36*
X3950Y-124223D02*
X-10550Y-124223D01*
X-10550Y-117557D01*
X3950Y-117557D01*
X3950Y-124223D01*
G37*
G36*
X617Y-120890D02*
X617Y-106390D01*
X7284Y-106390D01*
X7284Y-120890D01*
X617Y-120890D01*
G37*
G54D20*
G36*
X51417Y-216140D02*
X51417Y-201640D01*
X58084Y-201640D01*
X58084Y-216140D01*
X51417Y-216140D01*
G37*
G36*
X54750Y-212807D02*
X69250Y-212807D01*
X69250Y-219473D01*
X54750Y-219473D01*
X54750Y-212807D01*
G37*
G36*
X58084Y-216140D02*
X58084Y-230640D01*
X51417Y-230640D01*
X51417Y-216140D01*
X58084Y-216140D01*
G37*
G36*
X54750Y-219473D02*
X40250Y-219473D01*
X40250Y-212807D01*
X54750Y-212807D01*
X54750Y-219473D01*
G37*
G54D20*
G36*
X-126383Y6110D02*
X-126383Y20610D01*
X-119717Y20610D01*
X-119717Y6110D01*
X-126383Y6110D01*
G37*
G36*
X-123050Y9443D02*
X-108550Y9443D01*
X-108550Y2777D01*
X-123050Y2777D01*
X-123050Y9443D01*
G37*
G36*
X-119717Y6110D02*
X-119717Y-8390D01*
X-126383Y-8390D01*
X-126383Y6110D01*
X-119717Y6110D01*
G37*
G36*
X-123050Y2777D02*
X-137550Y2777D01*
X-137550Y9443D01*
X-123050Y9443D01*
X-123050Y2777D01*
G37*
G54D20*
G36*
X-330833Y-279851D02*
X-314333Y-279851D01*
X-314333Y-286517D01*
X-330833Y-286517D01*
X-330833Y-279851D01*
G37*
G36*
X-327500Y-283184D02*
X-327500Y-299684D01*
X-334166Y-299684D01*
X-334166Y-283184D01*
X-327500Y-283184D01*
G37*
G36*
X-330833Y-286517D02*
X-347333Y-286517D01*
X-347333Y-279851D01*
X-330833Y-279851D01*
X-330833Y-286517D01*
G37*
G36*
X-334166Y-283184D02*
X-334166Y-266684D01*
X-327500Y-266684D01*
X-327500Y-283184D01*
X-334166Y-283184D01*
G37*
G54D21*
G36*
X-254642Y-279858D02*
X-238142Y-279858D01*
X-238142Y-286658D01*
X-254642Y-286658D01*
X-254642Y-279858D01*
G37*
G36*
X-251242Y-283258D02*
X-251242Y-299758D01*
X-258042Y-299758D01*
X-258042Y-283258D01*
X-251242Y-283258D01*
G37*
G36*
X-254642Y-286658D02*
X-271142Y-286658D01*
X-271142Y-279858D01*
X-254642Y-279858D01*
X-254642Y-286658D01*
G37*
G36*
X-258042Y-283258D02*
X-258042Y-266758D01*
X-251242Y-266758D01*
X-251242Y-283258D01*
X-258042Y-283258D01*
G37*
G54D20*
G36*
X-356233Y-152851D02*
X-339733Y-152851D01*
X-339733Y-159517D01*
X-356233Y-159517D01*
X-356233Y-152851D01*
G37*
G36*
X-352900Y-156184D02*
X-352900Y-172684D01*
X-359566Y-172684D01*
X-359566Y-156184D01*
X-352900Y-156184D01*
G37*
G36*
X-356233Y-159517D02*
X-372733Y-159517D01*
X-372733Y-152851D01*
X-356233Y-152851D01*
X-356233Y-159517D01*
G37*
G36*
X-359566Y-156184D02*
X-359566Y-139684D01*
X-352900Y-139684D01*
X-352900Y-156184D01*
X-359566Y-156184D01*
G37*
G54D21*
G36*
X-280042Y-152858D02*
X-263542Y-152858D01*
X-263542Y-159658D01*
X-280042Y-159658D01*
X-280042Y-152858D01*
G37*
G36*
X-276642Y-156258D02*
X-276642Y-172758D01*
X-283442Y-172758D01*
X-283442Y-156258D01*
X-276642Y-156258D01*
G37*
G36*
X-280042Y-159658D02*
X-296542Y-159658D01*
X-296542Y-152858D01*
X-280042Y-152858D01*
X-280042Y-159658D01*
G37*
G36*
X-283442Y-156258D02*
X-283442Y-139758D01*
X-276642Y-139758D01*
X-276642Y-156258D01*
X-283442Y-156258D01*
G37*
G54D20*
G36*
X-399760Y-264039D02*
X-399760Y-249539D01*
X-393094Y-249539D01*
X-393094Y-264039D01*
X-399760Y-264039D01*
G37*
G36*
X-396427Y-260706D02*
X-381927Y-260706D01*
X-381927Y-267372D01*
X-396427Y-267372D01*
X-396427Y-260706D01*
G37*
G36*
X-393094Y-264039D02*
X-393094Y-278539D01*
X-399760Y-278539D01*
X-399760Y-264039D01*
X-393094Y-264039D01*
G37*
G36*
X-396427Y-267372D02*
X-410927Y-267372D01*
X-410927Y-260706D01*
X-396427Y-260706D01*
X-396427Y-267372D01*
G37*
G54D20*
G36*
X-399760Y-149739D02*
X-399760Y-135239D01*
X-393094Y-135239D01*
X-393094Y-149739D01*
X-399760Y-149739D01*
G37*
G36*
X-396427Y-146406D02*
X-381927Y-146406D01*
X-381927Y-153072D01*
X-396427Y-153072D01*
X-396427Y-146406D01*
G37*
G36*
X-393094Y-149739D02*
X-393094Y-164239D01*
X-399760Y-164239D01*
X-399760Y-149739D01*
X-393094Y-149739D01*
G37*
G36*
X-396427Y-153072D02*
X-410927Y-153072D01*
X-410927Y-146406D01*
X-396427Y-146406D01*
X-396427Y-153072D01*
G37*
G54D20*
G36*
X463840Y28061D02*
X463840Y42561D01*
X470506Y42561D01*
X470506Y28061D01*
X463840Y28061D01*
G37*
G36*
X467173Y31394D02*
X481673Y31394D01*
X481673Y24728D01*
X467173Y24728D01*
X467173Y31394D01*
G37*
G36*
X470506Y28061D02*
X470506Y13561D01*
X463840Y13561D01*
X463840Y28061D01*
X470506Y28061D01*
G37*
G36*
X467173Y24728D02*
X452673Y24728D01*
X452673Y31394D01*
X467173Y31394D01*
X467173Y24728D01*
G37*
G54D21*
G36*
X-104940Y-256075D02*
X-88440Y-256075D01*
X-88440Y-262875D01*
X-104940Y-262875D01*
X-104940Y-256075D01*
G37*
G36*
X-101540Y-259475D02*
X-101540Y-275975D01*
X-108340Y-275975D01*
X-108340Y-259475D01*
X-101540Y-259475D01*
G37*
G36*
X-104940Y-262875D02*
X-121440Y-262875D01*
X-121440Y-256075D01*
X-104940Y-256075D01*
X-104940Y-262875D01*
G37*
G36*
X-108340Y-259475D02*
X-108340Y-242975D01*
X-101540Y-242975D01*
X-101540Y-259475D01*
X-108340Y-259475D01*
G37*
G54D21*
G36*
X-203200Y-390250D02*
X-186700Y-390250D01*
X-186700Y-397050D01*
X-203200Y-397050D01*
X-203200Y-390250D01*
G37*
G36*
X-199800Y-393650D02*
X-199800Y-410150D01*
X-206600Y-410150D01*
X-206600Y-393650D01*
X-199800Y-393650D01*
G37*
G36*
X-203200Y-397050D02*
X-219700Y-397050D01*
X-219700Y-390250D01*
X-203200Y-390250D01*
X-203200Y-397050D01*
G37*
G36*
X-206600Y-393650D02*
X-206600Y-377150D01*
X-199800Y-377150D01*
X-199800Y-393650D01*
X-206600Y-393650D01*
G37*
G54D21*
G36*
X-158365Y-370965D02*
X-141865Y-370965D01*
X-141865Y-377765D01*
X-158365Y-377765D01*
X-158365Y-370965D01*
G37*
G36*
X-154965Y-374365D02*
X-154965Y-390865D01*
X-161765Y-390865D01*
X-161765Y-374365D01*
X-154965Y-374365D01*
G37*
G36*
X-158365Y-377765D02*
X-174865Y-377765D01*
X-174865Y-370965D01*
X-158365Y-370965D01*
X-158365Y-377765D01*
G37*
G36*
X-161765Y-374365D02*
X-161765Y-357865D01*
X-154965Y-357865D01*
X-154965Y-374365D01*
X-161765Y-374365D01*
G37*
G54D21*
G36*
X465627Y-125755D02*
X465627Y-142255D01*
X458827Y-142255D01*
X458827Y-125755D01*
X465627Y-125755D01*
G37*
G36*
X462227Y-129155D02*
X445727Y-129155D01*
X445727Y-122355D01*
X462227Y-122355D01*
X462227Y-129155D01*
G37*
G36*
X458827Y-125755D02*
X458827Y-109255D01*
X465627Y-109255D01*
X465627Y-125755D01*
X458827Y-125755D01*
G37*
G36*
X462227Y-122355D02*
X478727Y-122355D01*
X478727Y-129155D01*
X462227Y-129155D01*
X462227Y-122355D01*
G37*
G54D21*
G36*
X331452Y-27496D02*
X331452Y-43996D01*
X324652Y-43996D01*
X324652Y-27496D01*
X331452Y-27496D01*
G37*
G36*
X328052Y-30896D02*
X311552Y-30896D01*
X311552Y-24096D01*
X328052Y-24096D01*
X328052Y-30896D01*
G37*
G36*
X324652Y-27496D02*
X324652Y-10996D01*
X331452Y-10996D01*
X331452Y-27496D01*
X324652Y-27496D01*
G37*
G36*
X328052Y-24096D02*
X344552Y-24096D01*
X344552Y-30896D01*
X328052Y-30896D01*
X328052Y-24096D01*
G37*
G54D21*
G36*
X350737Y-72330D02*
X350737Y-88830D01*
X343937Y-88830D01*
X343937Y-72330D01*
X350737Y-72330D01*
G37*
G36*
X347337Y-75730D02*
X330837Y-75730D01*
X330837Y-68930D01*
X347337Y-68930D01*
X347337Y-75730D01*
G37*
G36*
X343937Y-72330D02*
X343937Y-55830D01*
X350737Y-55830D01*
X350737Y-72330D01*
X343937Y-72330D01*
G37*
G36*
X347337Y-68930D02*
X363837Y-68930D01*
X363837Y-75730D01*
X347337Y-75730D01*
X347337Y-68930D01*
G37*
G54D20*
G36*
X-200283Y63500D02*
X-200283Y80000D01*
X-193617Y80000D01*
X-193617Y63500D01*
X-200283Y63500D01*
G37*
G54D22*
G54D20*
G36*
X523717Y-79400D02*
X523717Y-64900D01*
X530383Y-64900D01*
X530383Y-79400D01*
X523717Y-79400D01*
G37*
G36*
X527050Y-76067D02*
X541550Y-76067D01*
X541550Y-82733D01*
X527050Y-82733D01*
X527050Y-76067D01*
G37*
G36*
X530383Y-79400D02*
X530383Y-93900D01*
X523717Y-93900D01*
X523717Y-79400D01*
X530383Y-79400D01*
G37*
G36*
X527050Y-82733D02*
X512550Y-82733D01*
X512550Y-76067D01*
X527050Y-76067D01*
X527050Y-82733D01*
G37*
G54D20*
G36*
X523717Y-371500D02*
X523717Y-357000D01*
X530383Y-357000D01*
X530383Y-371500D01*
X523717Y-371500D01*
G37*
G36*
X527050Y-368167D02*
X541550Y-368167D01*
X541550Y-374833D01*
X527050Y-374833D01*
X527050Y-368167D01*
G37*
G36*
X530383Y-371500D02*
X530383Y-386000D01*
X523717Y-386000D01*
X523717Y-371500D01*
X530383Y-371500D01*
G37*
G36*
X527050Y-374833D02*
X512550Y-374833D01*
X512550Y-368167D01*
X527050Y-368167D01*
X527050Y-374833D01*
G37*
G54D20*
G36*
X117317Y-517550D02*
X117317Y-503050D01*
X123983Y-503050D01*
X123983Y-517550D01*
X117317Y-517550D01*
G37*
G36*
X120650Y-514217D02*
X135150Y-514217D01*
X135150Y-520883D01*
X120650Y-520883D01*
X120650Y-514217D01*
G37*
G36*
X123983Y-517550D02*
X123983Y-532050D01*
X117317Y-532050D01*
X117317Y-517550D01*
X123983Y-517550D01*
G37*
G36*
X120650Y-520883D02*
X106150Y-520883D01*
X106150Y-514217D01*
X120650Y-514217D01*
X120650Y-520883D01*
G37*
G54D21*
G36*
X-76200Y-476100D02*
X-61700Y-476100D01*
X-61700Y-482900D01*
X-76200Y-482900D01*
X-76200Y-476100D01*
G37*
G36*
X-72800Y-479500D02*
X-72800Y-494000D01*
X-79600Y-494000D01*
X-79600Y-479500D01*
X-72800Y-479500D01*
G37*
G36*
X-76200Y-482900D02*
X-90700Y-482900D01*
X-90700Y-476100D01*
X-76200Y-476100D01*
X-76200Y-482900D01*
G37*
G36*
X-79600Y-479500D02*
X-79600Y-465000D01*
X-72800Y-465000D01*
X-72800Y-479500D01*
X-79600Y-479500D01*
G37*
G54D21*
G36*
X127000Y-377550D02*
X141500Y-377550D01*
X141500Y-384350D01*
X127000Y-384350D01*
X127000Y-377550D01*
G37*
G36*
X130400Y-380950D02*
X130400Y-395450D01*
X123600Y-395450D01*
X123600Y-380950D01*
X130400Y-380950D01*
G37*
G36*
X127000Y-384350D02*
X112500Y-384350D01*
X112500Y-377550D01*
X127000Y-377550D01*
X127000Y-384350D01*
G37*
G36*
X123600Y-380950D02*
X123600Y-366450D01*
X130400Y-366450D01*
X130400Y-380950D01*
X123600Y-380950D01*
G37*
G54D21*
G36*
X30894Y-432007D02*
X14394Y-432007D01*
X14394Y-425207D01*
X30894Y-425207D01*
X30894Y-432007D01*
G37*
G36*
X27494Y-428607D02*
X27494Y-412107D01*
X34294Y-412107D01*
X34294Y-428607D01*
X27494Y-428607D01*
G37*
G36*
X30894Y-425207D02*
X47394Y-425207D01*
X47394Y-432007D01*
X30894Y-432007D01*
X30894Y-425207D01*
G37*
G36*
X34294Y-428607D02*
X34294Y-445107D01*
X27494Y-445107D01*
X27494Y-428607D01*
X34294Y-428607D01*
G37*
G54D20*
G36*
X-276383Y-517550D02*
X-276383Y-503050D01*
X-269717Y-503050D01*
X-269717Y-517550D01*
X-276383Y-517550D01*
G37*
G36*
X-273050Y-514217D02*
X-258550Y-514217D01*
X-258550Y-520883D01*
X-273050Y-520883D01*
X-273050Y-514217D01*
G37*
G36*
X-269717Y-517550D02*
X-269717Y-532050D01*
X-276383Y-532050D01*
X-276383Y-517550D01*
X-269717Y-517550D01*
G37*
G36*
X-273050Y-520883D02*
X-287550Y-520883D01*
X-287550Y-514217D01*
X-273050Y-514217D01*
X-273050Y-520883D01*
G37*
G54D20*
G36*
X422117Y-517550D02*
X422117Y-503050D01*
X428783Y-503050D01*
X428783Y-517550D01*
X422117Y-517550D01*
G37*
G36*
X425450Y-514217D02*
X439950Y-514217D01*
X439950Y-520883D01*
X425450Y-520883D01*
X425450Y-514217D01*
G37*
G36*
X428783Y-517550D02*
X428783Y-532050D01*
X422117Y-532050D01*
X422117Y-517550D01*
X428783Y-517550D01*
G37*
G36*
X425450Y-520883D02*
X410950Y-520883D01*
X410950Y-514217D01*
X425450Y-514217D01*
X425450Y-520883D01*
G37*
G54D20*
G36*
X-403383Y-396900D02*
X-403383Y-382400D01*
X-396717Y-382400D01*
X-396717Y-396900D01*
X-403383Y-396900D01*
G37*
G36*
X-400050Y-393567D02*
X-385550Y-393567D01*
X-385550Y-400233D01*
X-400050Y-400233D01*
X-400050Y-393567D01*
G37*
G36*
X-396717Y-396900D02*
X-396717Y-411400D01*
X-403383Y-411400D01*
X-403383Y-396900D01*
X-396717Y-396900D01*
G37*
G36*
X-400050Y-400233D02*
X-414550Y-400233D01*
X-414550Y-393567D01*
X-400050Y-393567D01*
X-400050Y-400233D01*
G37*
G54D23*
G36*
X-260300Y76200D02*
X-260300Y90700D01*
X-247700Y90700D01*
X-247700Y76200D01*
X-260300Y76200D01*
G37*
G36*
X-254000Y82500D02*
X-239500Y82500D01*
X-239500Y69900D01*
X-254000Y69900D01*
X-254000Y82500D01*
G37*
G36*
X-247700Y76200D02*
X-247700Y61700D01*
X-260300Y61700D01*
X-260300Y76200D01*
X-247700Y76200D01*
G37*
G36*
X-254000Y69900D02*
X-268500Y69900D01*
X-268500Y82500D01*
X-254000Y82500D01*
X-254000Y69900D01*
G37*
G54D20*
G36*
X-45833Y66073D02*
X-45833Y80573D01*
X-39167Y80573D01*
X-39167Y66073D01*
X-45833Y66073D01*
G37*
G36*
X-42500Y69406D02*
X-28000Y69406D01*
X-28000Y62740D01*
X-42500Y62740D01*
X-42500Y69406D01*
G37*
G36*
X-39167Y66073D02*
X-39167Y51573D01*
X-45833Y51573D01*
X-45833Y66073D01*
X-39167Y66073D01*
G37*
G36*
X-42500Y62740D02*
X-57000Y62740D01*
X-57000Y69406D01*
X-42500Y69406D01*
X-42500Y62740D01*
G37*
G54D20*
G36*
X297067Y66073D02*
X297067Y80573D01*
X303733Y80573D01*
X303733Y66073D01*
X297067Y66073D01*
G37*
G36*
X300400Y69406D02*
X314900Y69406D01*
X314900Y62740D01*
X300400Y62740D01*
X300400Y69406D01*
G37*
G36*
X303733Y66073D02*
X303733Y51573D01*
X297067Y51573D01*
X297067Y66073D01*
X303733Y66073D01*
G37*
G36*
X300400Y62740D02*
X285900Y62740D01*
X285900Y69406D01*
X300400Y69406D01*
X300400Y62740D01*
G37*
X105550Y-70090D02*
G54D24*
D03*
X130950Y-70090D02*
G54D24*
D03*
X130950Y-70090D02*
G54D24*
D03*
X156350Y-70090D02*
G54D24*
D03*
X156350Y-70090D02*
G54D24*
D03*
X181750Y-70090D02*
G54D24*
D03*
X181750Y-70090D02*
G54D24*
D03*
X207150Y-70090D02*
G54D24*
D03*
X207150Y-70090D02*
G54D24*
D03*
X232550Y-70090D02*
G54D24*
D03*
X232550Y-70090D02*
G54D24*
D03*
X257950Y-70090D02*
G54D24*
D03*
X257950Y-70090D02*
G54D24*
D03*
X257950Y-95490D02*
G54D24*
D03*
X257950Y-95490D02*
G54D24*
D03*
X257950Y-120890D02*
G54D24*
D03*
X105550Y-70090D02*
G54D24*
D03*
X105550Y-95490D02*
G54D24*
D03*
X105550Y-95490D02*
G54D24*
D03*
X105550Y-120890D02*
G54D24*
D03*
X105550Y-120890D02*
G54D24*
D03*
X130950Y-120890D02*
G54D24*
D03*
X130950Y-120890D02*
G54D24*
D03*
X156350Y-120890D02*
G54D24*
D03*
X156350Y-120890D02*
G54D24*
D03*
X181750Y-120890D02*
G54D24*
D03*
X181750Y-120890D02*
G54D24*
D03*
X207150Y-120890D02*
G54D24*
D03*
X207150Y-120890D02*
G54D24*
D03*
X232550Y-120890D02*
G54D24*
D03*
X232550Y-120890D02*
G54D24*
D03*
X257950Y-120890D02*
G54D24*
D03*
X257950Y-120890D02*
G54D24*
D03*
X105550Y-120890D02*
G54D24*
D03*
X-148450Y-70090D02*
G54D24*
D03*
X-123050Y-70090D02*
G54D24*
D03*
X-123050Y-70090D02*
G54D24*
D03*
X-97650Y-70090D02*
G54D24*
D03*
X-97650Y-70090D02*
G54D24*
D03*
X-72250Y-70090D02*
G54D24*
D03*
X-72250Y-70090D02*
G54D24*
D03*
X-46850Y-70090D02*
G54D24*
D03*
X-46850Y-70090D02*
G54D24*
D03*
X-21450Y-70090D02*
G54D24*
D03*
X-21450Y-70090D02*
G54D24*
D03*
X3950Y-70090D02*
G54D24*
D03*
X3950Y-70090D02*
G54D24*
D03*
X3950Y-95490D02*
G54D24*
D03*
X3950Y-95490D02*
G54D24*
D03*
X3950Y-120890D02*
G54D24*
D03*
X-148450Y-70090D02*
G54D24*
D03*
X-148450Y-95490D02*
G54D24*
D03*
X-148450Y-95490D02*
G54D24*
D03*
X-148450Y-120890D02*
G54D24*
D03*
X-148450Y-120890D02*
G54D24*
D03*
X-123050Y-120890D02*
G54D24*
D03*
X-123050Y-120890D02*
G54D24*
D03*
X-97650Y-120890D02*
G54D24*
D03*
X-97650Y-120890D02*
G54D24*
D03*
X-72250Y-120890D02*
G54D24*
D03*
X-72250Y-120890D02*
G54D24*
D03*
X-46850Y-120890D02*
G54D24*
D03*
X-46850Y-120890D02*
G54D24*
D03*
X-21450Y-120890D02*
G54D24*
D03*
X-21450Y-120890D02*
G54D24*
D03*
X3950Y-120890D02*
G54D24*
D03*
X3950Y-120890D02*
G54D24*
D03*
X-148450Y-120890D02*
G54D24*
D03*
X29350Y-216140D02*
G54D24*
D03*
X29350Y-216140D02*
G54D24*
D03*
X54750Y-216140D02*
G54D24*
D03*
X54750Y-216140D02*
G54D24*
D03*
X80150Y-216140D02*
G54D24*
D03*
X80150Y-216140D02*
G54D24*
D03*
X105550Y-216140D02*
G54D24*
D03*
X105550Y-216140D02*
G54D24*
D03*
G54D25*
X-46850Y-120890D02*
X-46850Y-70090D01*
G54D25*
X207150Y-120890D02*
X207150Y-70090D01*
X-148450Y6110D02*
G54D24*
D03*
X-123050Y6110D02*
G54D24*
D03*
X-97650Y6110D02*
G54D24*
D03*
G54D26*
X-97650Y6110D02*
X-100800Y9260D01*
X-100800Y2910D01*
X-170650Y-66940D01*
X-170650Y-73290D01*
X-164300Y-79640D01*
X-164300Y-105040D01*
X-151600Y-117740D01*
X-148450Y-120890D01*
G54D26*
X-148450Y6110D02*
X-151600Y9260D01*
X-183350Y-22490D01*
X-183350Y-79640D01*
X-177000Y-85990D01*
X-177000Y-111390D01*
X-164300Y-124090D01*
X-164300Y-130440D01*
X-100800Y-193940D01*
X57950Y-193940D01*
X64300Y-200290D01*
X89700Y-200290D01*
X102400Y-212990D01*
X105550Y-216140D01*
G54D26*
X-148450Y6110D02*
X-151600Y9260D01*
X-132550Y28310D01*
X-119850Y28310D01*
X-113500Y21960D01*
X-88100Y21960D01*
X800Y-66940D01*
X3950Y-70090D01*
G54D26*
X-148450Y6110D02*
X-151600Y9260D01*
X-132550Y28310D01*
X-119850Y28310D01*
X-113500Y21960D01*
X-88100Y21960D01*
X-18250Y-47890D01*
X159550Y-47890D01*
X165900Y-54240D01*
X191300Y-54240D01*
X204000Y-66940D01*
X207150Y-70090D01*
X-148450Y-19290D02*
G54D27*
D03*
X-97650Y-19290D02*
G54D27*
D03*
G54D26*
X-148450Y-19290D02*
X-146050Y-17500D01*
X-146050Y7900D01*
X-148450Y6110D01*
G54D26*
X-97650Y-19290D02*
X-95250Y-17500D01*
X-95250Y7900D01*
X-97650Y6110D01*
X-330783Y-206934D02*
G54D24*
D03*
X-330833Y-283184D02*
G54D24*
D03*
X-330783Y-206934D02*
G54D28*
D03*
X-254592Y-207008D02*
G54D24*
D03*
X-330842Y-206958D02*
G54D24*
D03*
X-254592Y-207008D02*
G54D28*
D03*
X-254592Y-207008D02*
G54D24*
D03*
X-254642Y-283258D02*
G54D24*
D03*
X-254592Y-207008D02*
G54D28*
D03*
X-356182Y-79934D02*
G54D24*
D03*
X-356233Y-156184D02*
G54D24*
D03*
X-356183Y-79934D02*
G54D28*
D03*
X-279992Y-80008D02*
G54D24*
D03*
X-356242Y-79958D02*
G54D24*
D03*
X-279992Y-80008D02*
G54D28*
D03*
X-279992Y-80008D02*
G54D24*
D03*
X-280042Y-156258D02*
G54D24*
D03*
X-279992Y-80008D02*
G54D28*
D03*
X-396427Y-238639D02*
G54D24*
D03*
X-396427Y-264039D02*
G54D24*
D03*
X-396427Y-124339D02*
G54D24*
D03*
X-396427Y-149739D02*
G54D24*
D03*
X467173Y53461D02*
G54D24*
D03*
X467173Y28061D02*
G54D24*
D03*
G54D25*
X-396427Y-238639D02*
X-371027Y-213239D01*
X-332927Y-213239D01*
X-330842Y-206958D01*
X486550Y69610D02*
G54D27*
D03*
X260350Y-187200D02*
G54D24*
D03*
G54D29*
X260350Y-187200D02*
X285750Y-161800D01*
X285750Y-85600D01*
X273050Y-72900D01*
X260350Y-72900D01*
X257950Y-70090D01*
G54D29*
X260350Y-187200D02*
X222250Y-149100D01*
X-31750Y-149100D01*
X-44450Y-136400D01*
X-44450Y-123700D01*
X-46850Y-120890D01*
G54D29*
X260350Y-187200D02*
X209550Y-238000D01*
X95250Y-238000D01*
X82550Y-225300D01*
X82550Y-212600D01*
X80150Y-216140D01*
G54D29*
X-396427Y-124339D02*
X-400050Y-123700D01*
X-361950Y-85600D01*
X-356242Y-79958D01*
G54D29*
X-279992Y-80008D02*
X-285750Y-85600D01*
X-196850Y3300D01*
X-146050Y3300D01*
X-148450Y6110D01*
X-203200Y-393650D02*
G54D30*
D03*
X-203200Y-292050D02*
G54D30*
D03*
X-158365Y-374365D02*
G54D31*
D03*
X-158365Y-298165D02*
G54D31*
D03*
X-82165Y-374365D02*
G54D31*
D03*
X-31365Y-374365D02*
G54D31*
D03*
X19435Y-374365D02*
G54D31*
D03*
X-82165Y-298165D02*
G54D31*
D03*
X-31365Y-298165D02*
G54D31*
D03*
X19435Y-298165D02*
G54D31*
D03*
X-104940Y-259475D02*
G54D24*
D03*
X-155921Y-259587D02*
G54D24*
D03*
X-104940Y-259475D02*
G54D24*
D03*
X-203200Y-393650D02*
G54D24*
D03*
X-158365Y-374365D02*
G54D24*
D03*
G54D26*
X-155921Y-259587D02*
X-158750Y-257250D01*
X-158750Y-295350D01*
X-158365Y-298165D01*
G54D26*
X-82165Y-298165D02*
X-82550Y-295350D01*
X-82550Y-371550D01*
X-82165Y-374365D01*
X328052Y-27496D02*
G54D30*
D03*
X429652Y-27496D02*
G54D30*
D03*
X347337Y-72330D02*
G54D31*
D03*
X423537Y-72330D02*
G54D31*
D03*
X347337Y-148530D02*
G54D31*
D03*
X347337Y-199330D02*
G54D31*
D03*
X347337Y-250130D02*
G54D31*
D03*
X423537Y-148530D02*
G54D31*
D03*
X423537Y-199330D02*
G54D31*
D03*
X423537Y-250130D02*
G54D31*
D03*
X462227Y-125755D02*
G54D24*
D03*
X462115Y-74774D02*
G54D24*
D03*
X462227Y-125755D02*
G54D24*
D03*
X328052Y-27496D02*
G54D24*
D03*
X347337Y-72330D02*
G54D24*
D03*
G54D26*
X423537Y-148530D02*
X426352Y-148146D01*
X350152Y-148146D01*
X347337Y-148530D01*
X-196950Y63500D02*
G54D24*
D03*
X-171450Y63500D02*
G54D24*
D03*
X-158365Y-298165D02*
G54D24*
D03*
X347337Y-72330D02*
G54D24*
D03*
G54D29*
X-155921Y-259587D02*
X-158750Y-254000D01*
X-196850Y-292100D01*
X-203200Y-292050D01*
G54D29*
X423537Y-72330D02*
X425450Y-76200D01*
X425450Y-25400D01*
X429652Y-27495D01*
G54D29*
X423537Y-148530D02*
X425450Y-152400D01*
X438150Y-139700D01*
X438150Y-114300D01*
X450850Y-101600D01*
X463550Y-101600D01*
X488950Y-76200D01*
X488950Y38100D01*
X476250Y50800D01*
X463550Y50800D01*
X467173Y53461D01*
G36*
X517050Y-69400D02*
X537050Y-69400D01*
X537050Y-89400D01*
X517050Y-89400D01*
X517050Y-69400D01*
G37*
G36*
X517050Y-361500D02*
X537050Y-361500D01*
X537050Y-381500D01*
X517050Y-381500D01*
X517050Y-361500D01*
G37*
G54D29*
X462115Y-74774D02*
X457200Y-76200D01*
X419100Y-76200D01*
X423537Y-72330D01*
X266700Y-336500D02*
G54D24*
D03*
X266700Y-368250D02*
G54D24*
D03*
X-76200Y-428700D02*
G54D24*
D03*
X-76200Y-479500D02*
G54D24*
D03*
X342900Y-403300D02*
G54D24*
D03*
X393700Y-403300D02*
G54D24*
D03*
X201077Y-342250D02*
G54D24*
D03*
X147195Y-288298D02*
G54D24*
D03*
X201077Y-342250D02*
G54D28*
D03*
X205128Y-470026D02*
G54D24*
D03*
X205178Y-393776D02*
G54D24*
D03*
X205128Y-470026D02*
G54D28*
D03*
G36*
X110650Y-507550D02*
X130650Y-507550D01*
X130650Y-527550D01*
X110650Y-527550D01*
X110650Y-507550D01*
G37*
X127000Y-349200D02*
G54D24*
D03*
X127000Y-380950D02*
G54D24*
D03*
X-76200Y-479500D02*
G54D24*
D03*
G54D26*
X205178Y-393776D02*
X203200Y-393700D01*
X146050Y-336550D01*
X146050Y-285750D01*
X147195Y-288298D01*
G54D26*
X127000Y-349200D02*
X127000Y-349250D01*
X146050Y-330200D01*
X146050Y-285750D01*
X147195Y-288298D01*
G54D26*
X201077Y-342250D02*
X203200Y-342900D01*
X209550Y-336550D01*
X266700Y-336550D01*
X266700Y-336500D01*
X127000Y-380950D02*
G54D24*
D03*
X30894Y-428607D02*
G54D24*
D03*
X81874Y-428495D02*
G54D24*
D03*
X283350Y-209790D02*
G54D27*
D03*
G54D26*
X283350Y-209790D02*
X285750Y-209550D01*
X260350Y-184150D01*
X260350Y-187200D01*
X30894Y-428607D02*
G54D24*
D03*
G54D26*
X81874Y-428495D02*
X82550Y-425450D01*
X101600Y-406400D01*
X101600Y-374650D01*
X127000Y-349250D01*
X127000Y-349200D01*
X-387350Y-511250D02*
G54D32*
D03*
G36*
X-283050Y-507550D02*
X-263050Y-507550D01*
X-263050Y-527550D01*
X-283050Y-527550D01*
X-283050Y-507550D01*
G37*
X527050Y-511250D02*
G54D32*
D03*
G36*
X415450Y-507550D02*
X435450Y-507550D01*
X435450Y-527550D01*
X415450Y-527550D01*
X415450Y-507550D01*
G37*
X527050Y72950D02*
G54D32*
D03*
G54D26*
X81874Y-428495D02*
X82550Y-425450D01*
X63500Y-406400D01*
X25400Y-406400D01*
X0Y-431800D01*
X-76200Y-431800D01*
X-76200Y-428700D01*
G54D26*
X342900Y-403300D02*
X342900Y-406400D01*
X304800Y-368300D01*
X266700Y-368300D01*
X266700Y-368250D01*
G54D26*
X205128Y-470026D02*
X203200Y-469900D01*
X254000Y-419100D01*
X355600Y-419100D01*
X368300Y-406400D01*
X393700Y-406400D01*
X393700Y-403300D01*
G36*
X-410050Y-386900D02*
X-390050Y-386900D01*
X-390050Y-406900D01*
X-410050Y-406900D01*
X-410050Y-386900D01*
G37*
X-356782Y72522D02*
G54D33*
D03*
X-374357Y88422D02*
G54D33*
D03*
X-391973Y72487D02*
G54D33*
D03*
X-401847Y33135D02*
G54D24*
D03*
X-350866Y33248D02*
G54D24*
D03*
X-404254Y6488D02*
G54D24*
D03*
X-328004Y6438D02*
G54D24*
D03*
X-404254Y-31612D02*
G54D24*
D03*
X-328004Y-31662D02*
G54D24*
D03*
G54D26*
X-350866Y33248D02*
X-349554Y33831D01*
X-355904Y40181D01*
X-355904Y71931D01*
X-356782Y72522D01*
G54D26*
X-401847Y33136D02*
X-400354Y33831D01*
X-374954Y59231D01*
X-374954Y90981D01*
X-374357Y88422D01*
G54D26*
X-328004Y6438D02*
X-330200Y6350D01*
X-349250Y25400D01*
X-349250Y31750D01*
X-350866Y33248D01*
G54D26*
X-404254Y-31612D02*
X-406400Y-31750D01*
X-406400Y6350D01*
X-404254Y6488D01*
G54D26*
X-404254Y6488D02*
X-406400Y6350D01*
X-400050Y12700D01*
X-400050Y31750D01*
X-401847Y33135D01*
X-279400Y76200D02*
G54D24*
D03*
X-254000Y76200D02*
G54D24*
D03*
G54D26*
X-350866Y33248D02*
X-349250Y31750D01*
X-336550Y44450D01*
X-190500Y44450D01*
X-171450Y63500D01*
X-260350Y-3250D02*
G54D32*
D03*
X63500Y66600D02*
G54D24*
D03*
X144601Y65863D02*
G54D24*
D03*
X228600Y66600D02*
G54D24*
D03*
X-42500Y66073D02*
G54D24*
D03*
X300400Y66073D02*
G54D24*
D03*
G54D26*
X207150Y-70090D02*
X207150Y45150D01*
X228600Y66600D01*
M02*
