; Drill file
; Format: 2.4 (00.0000)
M48
INCH
T01C0.0236
T02C0.0283
T03C0.0354
T04C0.0394
T05C0.1299
%
G05
G90
T01
X-005840Y-000760
X-003840Y-000760
X011160Y-008260
X019160Y002740
T02
X-008000Y-011500
X016920Y-001080
T03
X-015750Y-015630
X-015610Y-010400
X-015610Y-009400
X-013030Y-008150
X-014020Y-006150
X-015610Y-005900
X-015610Y-004900
X-014030Y-003150
X-012910Y-001250
X-012910Y000250
X-013810Y001310
X-014050Y002860
X-014740Y003480
X-015430Y002850
X-015820Y001300
X-015920Y000260
X-015920Y-001240
X-011020Y-003150
X-011030Y-006150
X-010020Y-008150
X-010030Y-011150
X-013020Y-011150
X-008000Y-015500
X-003000Y-016880
X-003000Y-018880
X001220Y-016870
X003220Y-016870
X005000Y-015000
X005000Y-013750
X005800Y-011350
X007920Y-013470
X008080Y-015500
X010500Y-014500
X010500Y-013250
X013500Y-015880
X015500Y-015880
X016750Y-020380
X020750Y-014630
X018200Y-004950
X018190Y-002940
X020750Y-003130
X018390Y001100
X018390Y002100
X012920Y-001080
X010160Y-002760
X009160Y-002760
X008160Y-002760
X007160Y-002760
X006160Y-002760
X005160Y-002760
X004160Y-002760
X004160Y-003760
X004160Y-004760
X005160Y-004760
X006160Y-004760
X007160Y-004760
X008160Y-004760
X009160Y-004760
X010160Y-004760
X010160Y-003760
X010250Y-007370
X004160Y-008510
X003160Y-008510
X002160Y-008510
X001160Y-008510
X000160Y-004760
X000160Y-003760
X000160Y-002760
X-000840Y-002760
X-001840Y-002760
X-002840Y-002760
X-003840Y-002760
X-004840Y-002760
X-005840Y-002760
X-005840Y-003760
X-005840Y-004760
X-004840Y-004760
X-003840Y-004760
X-002840Y-004760
X-001840Y-004760
X-000840Y-004760
X-003840Y000240
X-004840Y000240
X-005840Y000240
X-006750Y002500
X-007750Y002500
X-010000Y003000
X-011000Y003000
X-001670Y002600
X002500Y002620
X005690Y002590
X009000Y002620
X011830Y002600
X-004130Y-010220
X-006140Y-010220
X-010750Y-020380
X004750Y-020380
X008080Y-018500
T04
X-006230Y-014740
X-006230Y-011740
X-003230Y-011740
X-001230Y-011740
X000770Y-011740
X000770Y-014740
X-001230Y-014740
X-003230Y-014740
X013670Y-009850
X013670Y-007850
X013670Y-005850
X013670Y-002850
X016670Y-002850
X016670Y-005850
X016670Y-007850
X016670Y-009850
T05
X-015250Y-020130
X-010250Y-000130
X020750Y002870
X020750Y-020130
M30
