%FSLAX34Y34*%
%MOMM*%
%LNSILK_TOP*%
G71*
G01*
%ADD10C,0.111*%
%ADD11C,0.178*%
%ADD12C,0.150*%
%ADD13C,0.167*%
%ADD14C,0.222*%
%ADD15C,0.300*%
%ADD16C,0.200*%
%ADD17C,0.600*%
%LPD*%
G54D10*
X257950Y-45484D02*
X260172Y-42151D01*
X260172Y-51040D01*
G54D10*
X200800Y-43818D02*
X201244Y-42707D01*
X202134Y-42151D01*
X203022Y-42151D01*
X203911Y-42707D01*
X204356Y-43818D01*
X204356Y-44929D01*
X203911Y-46040D01*
X203022Y-46596D01*
X203911Y-47151D01*
X204356Y-48262D01*
X204356Y-49373D01*
X203911Y-50484D01*
X203022Y-51040D01*
X202134Y-51040D01*
X201244Y-50484D01*
X200800Y-49373D01*
G54D10*
X159906Y-42151D02*
X156350Y-42151D01*
X156350Y-46040D01*
X156794Y-46040D01*
X157684Y-45484D01*
X158572Y-45484D01*
X159461Y-46040D01*
X159906Y-47151D01*
X159906Y-49373D01*
X159461Y-50484D01*
X158572Y-51040D01*
X157684Y-51040D01*
X156794Y-50484D01*
X156350Y-49373D01*
G54D10*
X105550Y-42151D02*
X109106Y-42151D01*
X108661Y-43262D01*
X107772Y-44929D01*
X106884Y-47151D01*
X106439Y-48818D01*
X106439Y-51040D01*
G54D10*
X261506Y-146290D02*
X257950Y-146290D01*
X257950Y-145734D01*
X258394Y-144623D01*
X261061Y-141290D01*
X261506Y-140179D01*
X261506Y-139068D01*
X261061Y-137957D01*
X260172Y-137401D01*
X259284Y-137401D01*
X258394Y-137957D01*
X257950Y-139068D01*
G54D10*
X209817Y-146290D02*
X209817Y-137401D01*
X207150Y-142957D01*
X207150Y-144068D01*
X210706Y-144068D01*
G54D10*
X159906Y-139068D02*
X159461Y-137957D01*
X158572Y-137401D01*
X157684Y-137401D01*
X156794Y-137957D01*
X156350Y-139068D01*
X156350Y-141846D01*
X156350Y-142401D01*
X157684Y-141290D01*
X158572Y-141290D01*
X159461Y-141846D01*
X159906Y-142957D01*
X159906Y-144623D01*
X159461Y-145734D01*
X158572Y-146290D01*
X157684Y-146290D01*
X156794Y-145734D01*
X156350Y-144623D01*
X156350Y-141846D01*
G54D10*
X107772Y-141846D02*
X106884Y-141846D01*
X105994Y-141290D01*
X105550Y-140179D01*
X105550Y-139068D01*
X105994Y-137957D01*
X106884Y-137401D01*
X107772Y-137401D01*
X108661Y-137957D01*
X109106Y-139068D01*
X109106Y-140179D01*
X108661Y-141290D01*
X107772Y-141846D01*
X108661Y-142401D01*
X109106Y-143512D01*
X109106Y-144623D01*
X108661Y-145734D01*
X107772Y-146290D01*
X106884Y-146290D01*
X105994Y-145734D01*
X105550Y-144623D01*
X105550Y-143512D01*
X105994Y-142401D01*
X106884Y-141846D01*
G54D10*
X3950Y-45484D02*
X6172Y-42151D01*
X6172Y-51040D01*
G54D10*
X-53200Y-43818D02*
X-52755Y-42707D01*
X-51866Y-42151D01*
X-50978Y-42151D01*
X-50089Y-42707D01*
X-49644Y-43818D01*
X-49644Y-44929D01*
X-50089Y-46040D01*
X-50978Y-46596D01*
X-50089Y-47151D01*
X-49644Y-48262D01*
X-49644Y-49373D01*
X-50089Y-50484D01*
X-50978Y-51040D01*
X-51866Y-51040D01*
X-52755Y-50484D01*
X-53200Y-49373D01*
G54D10*
X-94094Y-42151D02*
X-97650Y-42151D01*
X-97650Y-46040D01*
X-97205Y-46040D01*
X-96316Y-45484D01*
X-95428Y-45484D01*
X-94539Y-46040D01*
X-94094Y-47151D01*
X-94094Y-49373D01*
X-94539Y-50484D01*
X-95428Y-51040D01*
X-96316Y-51040D01*
X-97205Y-50484D01*
X-97650Y-49373D01*
G54D10*
X-148450Y-42151D02*
X-144894Y-42151D01*
X-145339Y-43262D01*
X-146228Y-44929D01*
X-147116Y-47151D01*
X-147561Y-48818D01*
X-147561Y-51040D01*
G54D10*
X7506Y-146290D02*
X3950Y-146290D01*
X3950Y-145734D01*
X4395Y-144623D01*
X7061Y-141290D01*
X7506Y-140179D01*
X7506Y-139068D01*
X7061Y-137957D01*
X6172Y-137401D01*
X5284Y-137401D01*
X4395Y-137957D01*
X3950Y-139068D01*
G54D10*
X-50533Y-146290D02*
X-50533Y-137401D01*
X-53200Y-142957D01*
X-53200Y-144068D01*
X-49644Y-144068D01*
G54D10*
X-94094Y-139068D02*
X-94539Y-137957D01*
X-95428Y-137401D01*
X-96316Y-137401D01*
X-97205Y-137957D01*
X-97650Y-139068D01*
X-97650Y-141846D01*
X-97650Y-142401D01*
X-96316Y-141290D01*
X-95428Y-141290D01*
X-94539Y-141846D01*
X-94094Y-142957D01*
X-94094Y-144623D01*
X-94539Y-145734D01*
X-95428Y-146290D01*
X-96316Y-146290D01*
X-97205Y-145734D01*
X-97650Y-144623D01*
X-97650Y-141846D01*
G54D10*
X-152578Y-141846D02*
X-153466Y-141846D01*
X-154356Y-141290D01*
X-154800Y-140179D01*
X-154800Y-139068D01*
X-154356Y-137957D01*
X-153466Y-137401D01*
X-152578Y-137401D01*
X-151689Y-137957D01*
X-151244Y-139068D01*
X-151244Y-140179D01*
X-151689Y-141290D01*
X-152578Y-141846D01*
X-151689Y-142401D01*
X-151244Y-143512D01*
X-151244Y-144623D01*
X-151689Y-145734D01*
X-152578Y-146290D01*
X-153466Y-146290D01*
X-154356Y-145734D01*
X-154800Y-144623D01*
X-154800Y-143512D01*
X-154356Y-142401D01*
X-153466Y-141846D01*
G54D11*
X143650Y-101840D02*
X143650Y-87618D01*
G54D11*
X149339Y-101840D02*
X149339Y-87618D01*
G54D11*
X143650Y-94729D02*
X149339Y-94729D01*
G54D11*
X153250Y-101840D02*
X153250Y-87618D01*
X156806Y-87618D01*
X158228Y-88507D01*
X158939Y-90284D01*
X158939Y-92062D01*
X158228Y-93840D01*
X156806Y-94729D01*
X153250Y-94729D01*
G54D11*
X162850Y-101840D02*
X162850Y-87618D01*
X167828Y-87618D01*
G54D11*
X162850Y-94729D02*
X167828Y-94729D01*
G54D11*
X171739Y-95618D02*
X177428Y-95618D01*
G54D11*
X187028Y-87618D02*
X181339Y-87618D01*
X181339Y-93840D01*
X182050Y-93840D01*
X183472Y-92951D01*
X184895Y-92951D01*
X186317Y-93840D01*
X187028Y-95618D01*
X187028Y-99173D01*
X186317Y-100951D01*
X184895Y-101840D01*
X183472Y-101840D01*
X182050Y-100951D01*
X181339Y-99173D01*
G54D11*
X196628Y-90284D02*
X196628Y-99173D01*
X195917Y-100951D01*
X194495Y-101840D01*
X193072Y-101840D01*
X191650Y-100951D01*
X190939Y-99173D01*
X190939Y-90284D01*
X191650Y-88507D01*
X193072Y-87618D01*
X194495Y-87618D01*
X195917Y-88507D01*
X196628Y-90284D01*
G54D11*
X206228Y-87618D02*
X200539Y-87618D01*
X200539Y-93840D01*
X201250Y-93840D01*
X202672Y-92951D01*
X204095Y-92951D01*
X205517Y-93840D01*
X206228Y-95618D01*
X206228Y-99173D01*
X205517Y-100951D01*
X204095Y-101840D01*
X202672Y-101840D01*
X201250Y-100951D01*
X200539Y-99173D01*
G54D11*
X210139Y-87618D02*
X217250Y-101840D01*
G54D11*
X210139Y-101840D02*
X217250Y-87618D01*
G54D10*
X264300Y-51040D02*
X264300Y-42151D01*
G54D10*
X266744Y-51040D02*
X266744Y-42151D01*
X269855Y-42151D01*
G54D10*
X266744Y-46596D02*
X269855Y-46596D01*
G54D10*
X208928Y-46596D02*
X210261Y-47707D01*
X210706Y-48818D01*
X210706Y-51040D01*
G54D10*
X207150Y-51040D02*
X207150Y-42151D01*
X209372Y-42151D01*
X210261Y-42707D01*
X210706Y-43818D01*
X210706Y-44929D01*
X210261Y-46040D01*
X209372Y-46596D01*
X207150Y-46596D01*
G54D10*
X213150Y-51040D02*
X213150Y-42151D01*
X216261Y-42151D01*
G54D10*
X213150Y-46596D02*
X216261Y-46596D01*
G54D10*
X215278Y-141846D02*
X216611Y-142957D01*
X217056Y-144068D01*
X217056Y-146290D01*
G54D10*
X213500Y-146290D02*
X213500Y-137401D01*
X215722Y-137401D01*
X216611Y-137957D01*
X217056Y-139068D01*
X217056Y-140179D01*
X216611Y-141290D01*
X215722Y-141846D01*
X213500Y-141846D01*
G54D10*
X219500Y-146290D02*
X219500Y-137401D01*
X222611Y-137401D01*
G54D10*
X219500Y-141846D02*
X222611Y-141846D01*
G54D10*
X111900Y-137401D02*
X111900Y-146290D01*
X115011Y-146290D01*
G54D10*
X121011Y-139068D02*
X121011Y-144623D01*
X120566Y-145734D01*
X119677Y-146290D01*
X118788Y-146290D01*
X117900Y-145734D01*
X117455Y-144623D01*
X117455Y-139068D01*
X117900Y-137957D01*
X118788Y-137401D01*
X119677Y-137401D01*
X120566Y-137957D01*
X121011Y-139068D01*
G54D11*
X-91300Y-99173D02*
X-90589Y-100951D01*
X-89166Y-101840D01*
X-87744Y-101840D01*
X-86322Y-100951D01*
X-85611Y-99173D01*
X-85611Y-97396D01*
X-86322Y-95618D01*
X-87744Y-94729D01*
X-89166Y-94729D01*
X-90589Y-93840D01*
X-91300Y-92062D01*
X-91300Y-90284D01*
X-90589Y-88507D01*
X-89166Y-87618D01*
X-87744Y-87618D01*
X-86322Y-88507D01*
X-85611Y-90284D01*
G54D11*
X-81700Y-101840D02*
X-81700Y-87618D01*
X-78144Y-87618D01*
X-76722Y-88507D01*
X-76011Y-90284D01*
X-76011Y-92062D01*
X-76722Y-93840D01*
X-78144Y-94729D01*
X-76722Y-95618D01*
X-76011Y-97396D01*
X-76011Y-99173D01*
X-76722Y-100951D01*
X-78144Y-101840D01*
X-81700Y-101840D01*
G54D11*
X-81700Y-94729D02*
X-78144Y-94729D01*
G54D11*
X-72100Y-87618D02*
X-72100Y-101840D01*
X-67122Y-101840D01*
G54D11*
X-63211Y-95618D02*
X-57522Y-95618D01*
G54D11*
X-53611Y-92951D02*
X-50055Y-87618D01*
X-50055Y-101840D01*
G54D10*
X-148450Y-137401D02*
X-148450Y-146290D01*
X-145339Y-146290D01*
G54D10*
X-139339Y-139068D02*
X-139339Y-144623D01*
X-139784Y-145734D01*
X-140673Y-146290D01*
X-141562Y-146290D01*
X-142450Y-145734D01*
X-142895Y-144623D01*
X-142895Y-139068D01*
X-142450Y-137957D01*
X-141562Y-137401D01*
X-140673Y-137401D01*
X-139784Y-137957D01*
X-139339Y-139068D01*
G54D10*
X12078Y-46596D02*
X13411Y-47707D01*
X13856Y-48818D01*
X13856Y-51040D01*
G54D10*
X10300Y-51040D02*
X10300Y-42151D01*
X12522Y-42151D01*
X13411Y-42707D01*
X13856Y-43818D01*
X13856Y-44929D01*
X13411Y-46040D01*
X12522Y-46596D01*
X10300Y-46596D01*
G54D10*
X16300Y-51040D02*
X16300Y-42151D01*
X19411Y-42151D01*
G54D10*
X16300Y-46596D02*
X19411Y-46596D01*
G54D10*
X-46850Y-51040D02*
X-46850Y-42151D01*
G54D10*
X-44406Y-51040D02*
X-44406Y-42151D01*
X-41295Y-42151D01*
G54D10*
X-44406Y-46596D02*
X-41295Y-46596D01*
G54D10*
X-46850Y-146290D02*
X-46850Y-137401D01*
G54D10*
X-44406Y-146290D02*
X-44406Y-137401D01*
X-41295Y-137401D01*
G54D10*
X-44406Y-141846D02*
X-41295Y-141846D01*
G54D10*
X105550Y-185184D02*
X107772Y-181851D01*
X107772Y-190740D01*
G54D10*
X111994Y-186296D02*
X113327Y-187407D01*
X113772Y-188518D01*
X113772Y-190740D01*
G54D10*
X110216Y-190740D02*
X110216Y-181851D01*
X112438Y-181851D01*
X113327Y-182407D01*
X113772Y-183518D01*
X113772Y-184629D01*
X113327Y-185740D01*
X112438Y-186296D01*
X110216Y-186296D01*
G54D10*
X116216Y-190740D02*
X116216Y-181851D01*
X119327Y-181851D01*
G54D10*
X116216Y-186296D02*
X119327Y-186296D01*
G54D10*
X83706Y-190740D02*
X80150Y-190740D01*
X80150Y-190184D01*
X80594Y-189073D01*
X83261Y-185740D01*
X83706Y-184629D01*
X83706Y-183518D01*
X83261Y-182407D01*
X82372Y-181851D01*
X81484Y-181851D01*
X80594Y-182407D01*
X80150Y-183518D01*
G54D10*
X86150Y-190740D02*
X86150Y-181851D01*
G54D10*
X88594Y-190740D02*
X88594Y-181851D01*
X91705Y-181851D01*
G54D10*
X88594Y-186296D02*
X91705Y-186296D01*
G54D10*
X54750Y-183518D02*
X55194Y-182407D01*
X56084Y-181851D01*
X56972Y-181851D01*
X57861Y-182407D01*
X58306Y-183518D01*
X58306Y-184629D01*
X57861Y-185740D01*
X56972Y-186296D01*
X57861Y-186851D01*
X58306Y-187962D01*
X58306Y-189073D01*
X57861Y-190184D01*
X56972Y-190740D01*
X56084Y-190740D01*
X55194Y-190184D01*
X54750Y-189073D01*
G54D10*
X32017Y-190740D02*
X32017Y-181851D01*
X29350Y-187407D01*
X29350Y-188518D01*
X32906Y-188518D01*
G54D10*
X35350Y-181851D02*
X35350Y-190740D01*
X38461Y-190740D01*
G54D10*
X44461Y-183518D02*
X44461Y-189073D01*
X44016Y-190184D01*
X43127Y-190740D01*
X42238Y-190740D01*
X41350Y-190184D01*
X40905Y-189073D01*
X40905Y-183518D01*
X41350Y-182407D01*
X42238Y-181851D01*
X43127Y-181851D01*
X44016Y-182407D01*
X44461Y-183518D01*
G54D12*
X-173850Y-31990D02*
X29350Y-31990D01*
X29350Y-146290D01*
X-173850Y-146290D01*
X-173850Y-31990D01*
G54D12*
X92850Y-31990D02*
X283350Y-31990D01*
X283350Y-146290D01*
X92850Y-146290D01*
X92850Y-31990D01*
G54D12*
X3950Y-178040D02*
X130950Y-178040D01*
X130950Y-254240D01*
X3950Y-254240D01*
X3950Y-178040D01*
G54D13*
X-152133Y-57390D02*
X-152133Y-44057D01*
G54D13*
X-154800Y-44057D02*
X-149466Y-44057D01*
G54D13*
X-145800Y-57390D02*
X-145800Y-44057D01*
X-141133Y-44057D01*
G54D13*
X-145800Y-50724D02*
X-141133Y-50724D01*
G54D13*
X-137466Y-57390D02*
X-137466Y-44057D01*
X-134132Y-52390D01*
X-130799Y-44057D01*
X-130799Y-57390D01*
G54D13*
X-127132Y-51557D02*
X-121798Y-51557D01*
G54D13*
X-118132Y-51557D02*
X-112798Y-51557D01*
G54D13*
X-115465Y-48224D02*
X-115465Y-54890D01*
G54D13*
X-117465Y-49057D02*
X-113465Y-54057D01*
G54D13*
X-117465Y-54057D02*
X-113465Y-49057D01*
G54D14*
X472076Y-169352D02*
X489854Y-169352D01*
X489854Y-176019D01*
X488743Y-178686D01*
X486521Y-180019D01*
X475410Y-180019D01*
X473188Y-178686D01*
X472076Y-176019D01*
X472076Y-169352D01*
G54D14*
X479854Y-190064D02*
X479854Y-200731D01*
G54D14*
X472076Y-205620D02*
X489854Y-205620D01*
X489854Y-212287D01*
X488743Y-214954D01*
X486521Y-216287D01*
X484299Y-216287D01*
X482076Y-214954D01*
X480965Y-212287D01*
X479854Y-214954D01*
X477632Y-216287D01*
X475410Y-216287D01*
X473188Y-214954D01*
X472076Y-212287D01*
X472076Y-205620D01*
G54D14*
X480965Y-205620D02*
X480965Y-212287D01*
G54D14*
X472076Y-221176D02*
X489854Y-227843D01*
X472076Y-234510D01*
G54D14*
X478743Y-223843D02*
X478743Y-231843D01*
G54D14*
X489854Y-239398D02*
X472076Y-239398D01*
X472076Y-248732D01*
G54D14*
X479854Y-253620D02*
X479854Y-264287D01*
G54D14*
X472076Y-269176D02*
X489854Y-269176D01*
X478743Y-275843D01*
X489854Y-282510D01*
X472076Y-282510D01*
G54D14*
X472076Y-287398D02*
X489854Y-287398D01*
G54D14*
X489854Y-292288D02*
X472076Y-305621D01*
G54D14*
X472076Y-292288D02*
X489854Y-305621D01*
G54D14*
X472076Y-319843D02*
X472076Y-310510D01*
X489854Y-310510D01*
X489854Y-319843D01*
G54D14*
X480965Y-310510D02*
X480965Y-319843D01*
G54D14*
X480965Y-330065D02*
X478743Y-334065D01*
X476521Y-335398D01*
X472076Y-335398D01*
G54D14*
X472076Y-324732D02*
X489854Y-324732D01*
X489854Y-331398D01*
X488743Y-334065D01*
X486521Y-335398D01*
X484299Y-335398D01*
X482076Y-334065D01*
X480965Y-331398D01*
X480965Y-324732D01*
G54D14*
X479854Y-340288D02*
X479854Y-350954D01*
G54D14*
X472076Y-355844D02*
X489854Y-362510D01*
X472076Y-369177D01*
G54D14*
X478743Y-358510D02*
X478743Y-366510D01*
G54D14*
X472076Y-374066D02*
X489854Y-374066D01*
X489854Y-380732D01*
X488743Y-383399D01*
X486521Y-384732D01*
X475410Y-384732D01*
X473188Y-383399D01*
X472076Y-380732D01*
X472076Y-374066D01*
G54D14*
X472076Y-389622D02*
X489854Y-396288D01*
X472076Y-402955D01*
G54D14*
X478743Y-392288D02*
X478743Y-400288D01*
G54D14*
X472076Y-407844D02*
X489854Y-407844D01*
X489854Y-414510D01*
X488743Y-417177D01*
X486521Y-418510D01*
X484299Y-418510D01*
X482076Y-417177D01*
X480965Y-414510D01*
X480965Y-407844D01*
G54D14*
X472076Y-428733D02*
X489854Y-428733D01*
G54D14*
X489854Y-423400D02*
X489854Y-434066D01*
G54D14*
X472076Y-448289D02*
X472076Y-438956D01*
X489854Y-438956D01*
X489854Y-448289D01*
G54D14*
X480965Y-438956D02*
X480965Y-448289D01*
G54D14*
X480965Y-458511D02*
X478743Y-462511D01*
X476521Y-463844D01*
X472076Y-463844D01*
G54D14*
X472076Y-453178D02*
X489854Y-453178D01*
X489854Y-459844D01*
X488743Y-462511D01*
X486521Y-463844D01*
X484299Y-463844D01*
X482076Y-462511D01*
X480965Y-459844D01*
X480965Y-453178D01*
G54D12*
X-341929Y-219730D02*
X-319754Y-219730D01*
X-319754Y-270430D01*
X-341929Y-270430D01*
X-341929Y-219730D01*
G54D12*
X-330841Y-219530D02*
X-330841Y-211630D01*
G54D12*
X-330841Y-270530D02*
X-330841Y-278430D01*
G54D12*
X-267388Y-195862D02*
X-267388Y-218037D01*
X-318088Y-218037D01*
X-318088Y-195862D01*
X-267388Y-195862D01*
G54D12*
X-267188Y-206949D02*
X-259288Y-206949D01*
G54D12*
X-318188Y-206949D02*
X-326088Y-206949D01*
G54D12*
X-265738Y-219804D02*
X-243563Y-219804D01*
X-243563Y-270504D01*
X-265738Y-270504D01*
X-265738Y-219804D01*
G54D12*
X-254651Y-219604D02*
X-254651Y-211704D01*
G54D12*
X-254651Y-270604D02*
X-254651Y-278504D01*
G54D12*
X-367329Y-92730D02*
X-345154Y-92730D01*
X-345154Y-143430D01*
X-367329Y-143430D01*
X-367329Y-92730D01*
G54D12*
X-356241Y-92530D02*
X-356241Y-84630D01*
G54D12*
X-356241Y-143530D02*
X-356241Y-151430D01*
G54D12*
X-292788Y-68862D02*
X-292788Y-91037D01*
X-343488Y-91037D01*
X-343488Y-68862D01*
X-292788Y-68862D01*
G54D12*
X-292588Y-79949D02*
X-284688Y-79949D01*
G54D12*
X-343588Y-79949D02*
X-351488Y-79949D01*
G54D12*
X-291138Y-92804D02*
X-268963Y-92804D01*
X-268963Y-143504D01*
X-291138Y-143504D01*
X-291138Y-92804D01*
G54D12*
X-280051Y-92604D02*
X-280051Y-84704D01*
G54D12*
X-280051Y-143604D02*
X-280050Y-151504D01*
G54D14*
X-409127Y-195461D02*
X-409127Y-213239D01*
X-402905Y-213239D01*
G54D14*
X-390905Y-198795D02*
X-390905Y-209906D01*
X-391794Y-212128D01*
X-393572Y-213239D01*
X-395349Y-213239D01*
X-397127Y-212128D01*
X-398016Y-209906D01*
X-398016Y-198795D01*
X-397127Y-196572D01*
X-395349Y-195461D01*
X-393572Y-195461D01*
X-391794Y-196572D01*
X-390905Y-198795D01*
G54D14*
X-405572Y-90050D02*
X-402905Y-92272D01*
X-402016Y-94495D01*
X-402016Y-98939D01*
G54D14*
X-409127Y-98939D02*
X-409127Y-81161D01*
X-404682Y-81161D01*
X-402905Y-82272D01*
X-402016Y-84495D01*
X-402016Y-86717D01*
X-402905Y-88939D01*
X-404682Y-90050D01*
X-409127Y-90050D01*
G54D14*
X-397127Y-98939D02*
X-397127Y-81161D01*
X-390905Y-81161D01*
G54D14*
X-397127Y-90050D02*
X-390905Y-90050D01*
G54D14*
X441773Y40761D02*
X441773Y58539D01*
G54D14*
X446662Y40761D02*
X446662Y58539D01*
X452884Y58539D01*
G54D14*
X446662Y49650D02*
X452884Y49650D01*
G54D10*
X-307527Y-251339D02*
X-305305Y-242450D01*
X-303083Y-251339D01*
G54D10*
X-306638Y-248006D02*
X-303971Y-248006D01*
G54D10*
X-298861Y-251339D02*
X-298861Y-242450D01*
G54D10*
X-300639Y-242450D02*
X-297083Y-242450D01*
G54D10*
X-292861Y-251339D02*
X-292861Y-242450D01*
G54D10*
X-294639Y-242450D02*
X-291083Y-242450D01*
G54D10*
X-288639Y-251339D02*
X-288639Y-242450D01*
X-285083Y-251339D01*
X-285083Y-242450D01*
G54D10*
X-332927Y-124339D02*
X-330705Y-115450D01*
X-328482Y-124339D01*
G54D10*
X-332038Y-121006D02*
X-329372Y-121006D01*
G54D10*
X-324261Y-124339D02*
X-324261Y-115450D01*
G54D10*
X-326039Y-115450D02*
X-322484Y-115450D01*
G54D10*
X-318261Y-124339D02*
X-318261Y-115450D01*
G54D10*
X-320039Y-115450D02*
X-316484Y-115450D01*
G54D10*
X-314039Y-124339D02*
X-314039Y-115450D01*
X-310484Y-124339D01*
X-310484Y-115450D01*
G54D12*
X-189500Y-380950D02*
X-216900Y-380950D01*
X-216900Y-304750D01*
X-189500Y-304750D01*
X-189500Y-380950D01*
G54D12*
X-216900Y-311050D02*
X-189500Y-311050D01*
G54D15*
X30235Y-386465D02*
X30135Y-285865D01*
X-169765Y-285965D01*
X-169765Y-386465D01*
X30235Y-386465D01*
G54D16*
X-158365Y-374365D02*
X-132965Y-374365D01*
X-132965Y-368065D01*
X-132965Y-368165D01*
X-115465Y-361765D01*
X-115465Y-361665D01*
X-145665Y-353765D01*
X-113865Y-345765D01*
X-145665Y-337865D01*
X-113865Y-328265D01*
X-145665Y-318865D01*
X-113865Y-310865D01*
X-132965Y-304465D01*
X-132965Y-298165D01*
X-158365Y-298165D01*
G54D16*
X19435Y-374365D02*
X19435Y-349065D01*
X435Y-349065D01*
G54D16*
X-31365Y-374365D02*
X-31365Y-349065D01*
X-12365Y-349065D01*
G54D16*
X19435Y-298165D02*
X19435Y-323565D01*
X435Y-323565D01*
G54D16*
X-31365Y-298165D02*
X-31365Y-323565D01*
X-12365Y-323565D01*
G36*
X435Y-348965D02*
X335Y-348965D01*
X13035Y-355365D01*
X13035Y-342665D01*
X435Y-349065D01*
X435Y-348965D01*
G37*
G54D15*
X435Y-348965D02*
X335Y-348965D01*
X13035Y-355365D01*
X13035Y-342665D01*
X435Y-349065D01*
X435Y-348965D01*
G36*
X535Y-323565D02*
X435Y-323565D01*
X13135Y-329965D01*
X13135Y-317265D01*
X535Y-323665D01*
X535Y-323565D01*
G37*
G54D15*
X535Y-323565D02*
X435Y-323565D01*
X13135Y-329965D01*
X13135Y-317265D01*
X535Y-323665D01*
X535Y-323565D01*
G36*
X-12565Y-348865D02*
X-12465Y-348865D01*
X-25165Y-342465D01*
X-25165Y-355165D01*
X-12565Y-348765D01*
X-12565Y-348865D01*
G37*
G54D15*
X-12565Y-348865D02*
X-12465Y-348865D01*
X-25165Y-342465D01*
X-25165Y-355165D01*
X-12565Y-348765D01*
X-12565Y-348865D01*
G36*
X-12465Y-323565D02*
X-12365Y-323565D01*
X-25065Y-317165D01*
X-25065Y-329865D01*
X-12465Y-323465D01*
X-12465Y-323565D01*
G37*
G54D15*
X-12465Y-323565D02*
X-12365Y-323565D01*
X-25065Y-317165D01*
X-25065Y-329865D01*
X-12465Y-323465D01*
X-12465Y-323565D01*
G54D16*
X-12365Y-348965D02*
X-12265Y-348965D01*
X-5865Y-367965D01*
X-5965Y-367965D01*
X-5965Y-382265D01*
X-69465Y-382265D01*
X-82165Y-382265D01*
X-82165Y-374365D01*
G54D16*
X-12365Y-323565D02*
X-12365Y-323565D01*
X-5965Y-304565D01*
X-5965Y-290265D01*
X-82165Y-290265D01*
X-82165Y-298165D01*
G54D12*
X-94726Y-272308D02*
X-94725Y-246908D01*
X-166326Y-246908D01*
X-166326Y-272308D01*
X-94726Y-272308D01*
G54D13*
X-147381Y-241517D02*
X-147381Y-241517D01*
G54D13*
X-227316Y-359500D02*
X-227316Y-359500D01*
G54D12*
X340752Y-41196D02*
X340752Y-13796D01*
X416952Y-13796D01*
X416952Y-41196D01*
X340752Y-41196D01*
G54D12*
X410652Y-13796D02*
X410652Y-41196D01*
G54D15*
X335237Y-260930D02*
X435837Y-260830D01*
X435737Y-60930D01*
X335237Y-60930D01*
X335237Y-260930D01*
G54D16*
X347337Y-72330D02*
X347337Y-97730D01*
X353637Y-97730D01*
X353537Y-97730D01*
X359937Y-115230D01*
X360037Y-115230D01*
X367937Y-85030D01*
X375937Y-116830D01*
X383837Y-85030D01*
X393437Y-116830D01*
X402837Y-85030D01*
X410837Y-116830D01*
X417237Y-97730D01*
X423537Y-97730D01*
X423537Y-72330D01*
G54D16*
X347337Y-250130D02*
X372637Y-250130D01*
X372637Y-231130D01*
G54D16*
X347337Y-199330D02*
X372637Y-199330D01*
X372637Y-218330D01*
G54D16*
X423537Y-250130D02*
X398137Y-250130D01*
X398137Y-231130D01*
G54D16*
X423537Y-199330D02*
X398137Y-199330D01*
X398137Y-218330D01*
G36*
X372737Y-231130D02*
X372737Y-231030D01*
X366337Y-243730D01*
X379037Y-243730D01*
X372637Y-231130D01*
X372737Y-231130D01*
G37*
G54D15*
X372737Y-231130D02*
X372737Y-231030D01*
X366337Y-243730D01*
X379037Y-243730D01*
X372637Y-231130D01*
X372737Y-231130D01*
G36*
X398137Y-231230D02*
X398137Y-231130D01*
X391737Y-243830D01*
X404437Y-243830D01*
X398037Y-231230D01*
X398137Y-231230D01*
G37*
G54D15*
X398137Y-231230D02*
X398137Y-231130D01*
X391737Y-243830D01*
X404437Y-243830D01*
X398037Y-231230D01*
X398137Y-231230D01*
G36*
X372837Y-218130D02*
X372837Y-218230D01*
X379237Y-205530D01*
X366537Y-205530D01*
X372937Y-218130D01*
X372837Y-218130D01*
G37*
G54D15*
X372837Y-218130D02*
X372837Y-218230D01*
X379237Y-205530D01*
X366537Y-205530D01*
X372937Y-218130D01*
X372837Y-218130D01*
G36*
X398137Y-218230D02*
X398137Y-218330D01*
X404537Y-205630D01*
X391837Y-205630D01*
X398237Y-218230D01*
X398137Y-218230D01*
G37*
G54D15*
X398137Y-218230D02*
X398137Y-218330D01*
X404537Y-205630D01*
X391837Y-205630D01*
X398237Y-218230D01*
X398137Y-218230D01*
G54D16*
X372737Y-218330D02*
X372737Y-218430D01*
X353737Y-224830D01*
X353737Y-224730D01*
X339437Y-224730D01*
X339437Y-161230D01*
X339437Y-148530D01*
X347337Y-148530D01*
G54D16*
X398137Y-218330D02*
X398137Y-218330D01*
X417137Y-224730D01*
X431437Y-224730D01*
X431437Y-148530D01*
X423537Y-148530D01*
G54D12*
X449393Y-135970D02*
X474794Y-135970D01*
X474794Y-64370D01*
X449394Y-64370D01*
X449393Y-135970D01*
G54D13*
X480185Y-83314D02*
X480185Y-83314D01*
G54D13*
X362202Y-3379D02*
X362202Y-3379D01*
G54D16*
X-194371Y35462D02*
X-184771Y35462D01*
G54D16*
X-189571Y39462D02*
X-189571Y31462D01*
G54D16*
X-180371Y44462D02*
X-174371Y28462D01*
X-168371Y44462D01*
G54D12*
X-209721Y50812D02*
X-209720Y76213D01*
X-158921Y76212D01*
X-158921Y50812D01*
X-209721Y50812D01*
G54D16*
X-215548Y43414D02*
X-215548Y37064D01*
G54D16*
X-207610Y37064D02*
X-223485Y37064D01*
G54D16*
X-221104Y33889D02*
X-209991Y33889D01*
G54D16*
X-213166Y30714D02*
X-217929Y30714D01*
G54D12*
X-139700Y-422350D02*
X-139700Y-485850D01*
X-12700Y-485850D01*
X-12700Y-422350D01*
X-139700Y-422350D01*
G54D12*
X336550Y-466800D02*
X400050Y-466800D01*
X400050Y-339800D01*
X336550Y-339800D01*
X336550Y-466800D01*
G54D12*
X199910Y-325321D02*
X184230Y-341001D01*
X148380Y-305150D01*
X164060Y-289470D01*
X199910Y-325321D01*
G54D12*
X192212Y-333302D02*
X197798Y-338888D01*
G54D12*
X156149Y-297240D02*
X150563Y-291654D01*
G54D13*
X152096Y-324664D02*
X152331Y-327256D01*
X151624Y-328906D01*
X149267Y-331263D01*
G54D13*
X145496Y-327492D02*
X154924Y-318064D01*
X157281Y-320421D01*
X157635Y-321953D01*
X156928Y-323603D01*
X155749Y-324782D01*
X154099Y-325489D01*
X152567Y-325135D01*
X150210Y-322778D01*
G54D13*
X161288Y-324428D02*
X165059Y-328199D01*
X163409Y-328906D01*
X160699Y-329731D01*
X157399Y-331145D01*
X155160Y-332442D01*
X152803Y-334799D01*
G54D13*
X59643Y-408676D02*
X58643Y-410342D01*
X56643Y-411176D01*
X54643Y-411176D01*
X52643Y-410342D01*
X51643Y-408676D01*
X51643Y-400342D01*
X52643Y-398676D01*
X54643Y-397842D01*
X56643Y-397842D01*
X58643Y-398676D01*
X59643Y-400342D01*
G54D13*
X63310Y-402842D02*
X68310Y-397842D01*
X68310Y-411176D01*
G54D13*
X246573Y-305989D02*
X245573Y-307656D01*
X243573Y-308489D01*
X241573Y-308489D01*
X239573Y-307656D01*
X238573Y-305989D01*
X238573Y-297656D01*
X239573Y-295989D01*
X241573Y-295156D01*
X243573Y-295156D01*
X245573Y-295989D01*
X246573Y-297656D01*
G54D13*
X258240Y-308489D02*
X250240Y-308489D01*
X250240Y-307656D01*
X251240Y-305989D01*
X257240Y-300989D01*
X258240Y-299322D01*
X258240Y-297656D01*
X257240Y-295989D01*
X255240Y-295156D01*
X253240Y-295156D01*
X251240Y-295989D01*
X250240Y-297656D01*
G54D12*
X216274Y-457230D02*
X194099Y-457230D01*
X194099Y-406530D01*
X216274Y-406530D01*
X216274Y-457230D01*
G54D12*
X205187Y-457430D02*
X205187Y-465330D01*
G54D12*
X205187Y-406430D02*
X205186Y-398530D01*
G54D13*
X182929Y-422955D02*
X181262Y-424955D01*
X179596Y-425622D01*
X176262Y-425622D01*
G54D13*
X176262Y-420288D02*
X189596Y-420288D01*
X189596Y-423622D01*
X188762Y-424955D01*
X187096Y-425622D01*
X185429Y-425622D01*
X183762Y-424955D01*
X182929Y-423622D01*
X182929Y-420288D01*
G54D13*
X182929Y-432622D02*
X182929Y-431288D01*
X183762Y-429955D01*
X185429Y-429288D01*
X187096Y-429288D01*
X188762Y-429955D01*
X189596Y-431289D01*
X189596Y-432622D01*
X188762Y-433955D01*
X187096Y-434622D01*
X185429Y-434622D01*
X183762Y-433955D01*
X182929Y-432622D01*
X182096Y-433955D01*
X180429Y-434622D01*
X178762Y-434622D01*
X177096Y-433955D01*
X176262Y-432622D01*
X176262Y-431289D01*
X177096Y-429955D01*
X178762Y-429288D01*
X180429Y-429288D01*
X182096Y-429955D01*
X182929Y-431288D01*
G54D14*
X-90096Y-447898D02*
X-90096Y-465676D01*
X-83874Y-465676D01*
G54D14*
X-71874Y-465676D02*
X-78986Y-465676D01*
X-78986Y-464564D01*
X-78097Y-462342D01*
X-72763Y-455676D01*
X-71874Y-453453D01*
X-71874Y-451231D01*
X-72763Y-449009D01*
X-74541Y-447898D01*
X-76319Y-447898D01*
X-78097Y-449009D01*
X-78986Y-451231D01*
G54D14*
X360333Y-428028D02*
X360333Y-445806D01*
X366555Y-445806D01*
G54D14*
X371444Y-434695D02*
X375888Y-428028D01*
X375888Y-445806D01*
G54D16*
G75*
G01X304800Y-355600D02*
G03X304800Y-355600I-38100J0D01*
G01*
G54D16*
G75*
G01X165100Y-368300D02*
G03X165100Y-368300I-38100J0D01*
G01*
G54D13*
X106873Y-318689D02*
X105873Y-320356D01*
X103873Y-321189D01*
X101873Y-321189D01*
X99873Y-320356D01*
X98873Y-318689D01*
X98873Y-310356D01*
X99873Y-308689D01*
X101873Y-307856D01*
X103873Y-307856D01*
X105873Y-308689D01*
X106873Y-310356D01*
G54D13*
X116540Y-321189D02*
X116540Y-307856D01*
X110540Y-316189D01*
X110540Y-317856D01*
X118540Y-317856D01*
G54D12*
X20679Y-415774D02*
X20679Y-441174D01*
X92279Y-441174D01*
X92279Y-415774D01*
X20679Y-415774D01*
G54D13*
X73335Y-446566D02*
X73335Y-446566D01*
G54D12*
X-348982Y71822D02*
X-348982Y63822D01*
X-399707Y63822D01*
X-399707Y71822D01*
G54D12*
G75*
G01X-348852Y71783D02*
G03X-399852Y71783I-25500J0D01*
G01*
G54D12*
X-412062Y45969D02*
X-412062Y20569D01*
X-340462Y20569D01*
X-340462Y45969D01*
X-412062Y45969D01*
G54D13*
X-330949Y38334D02*
X-332615Y39334D01*
X-333449Y41334D01*
X-333449Y43334D01*
X-332615Y45334D01*
X-330949Y46334D01*
X-322615Y46334D01*
X-320949Y45334D01*
X-320115Y43334D01*
X-320115Y41334D01*
X-320949Y39334D01*
X-322615Y38334D01*
G54D13*
X-325115Y34668D02*
X-320115Y29668D01*
X-333449Y29668D01*
G54D13*
X-333449Y20000D02*
X-320115Y20000D01*
X-328449Y26000D01*
X-330115Y26000D01*
X-330115Y18000D01*
G54D12*
X-391458Y-4658D02*
X-391458Y17517D01*
X-340758Y17517D01*
X-340758Y-4658D01*
X-391458Y-4658D01*
G54D12*
X-391658Y6430D02*
X-399558Y6430D01*
G54D12*
X-340658Y6429D02*
X-332758Y6430D01*
G54D12*
X-391458Y-42758D02*
X-391458Y-20583D01*
X-340758Y-20583D01*
X-340758Y-42758D01*
X-391458Y-42758D01*
G54D12*
X-391658Y-31670D02*
X-399558Y-31670D01*
G54D12*
X-340658Y-31670D02*
X-332758Y-31670D01*
G54D13*
X-359629Y16265D02*
X-361296Y13265D01*
X-362962Y12265D01*
X-366296Y12265D01*
G54D13*
X-366296Y20265D02*
X-352962Y20265D01*
X-352962Y15265D01*
X-353796Y13265D01*
X-355462Y12265D01*
X-357129Y12265D01*
X-358796Y13265D01*
X-359629Y15265D01*
X-359629Y20265D01*
G54D13*
X-357962Y8598D02*
X-352962Y3598D01*
X-366296Y3598D01*
G54D13*
X-355462Y-8069D02*
X-363796Y-8069D01*
X-365462Y-7069D01*
X-366296Y-5069D01*
X-366296Y-3069D01*
X-365462Y-1069D01*
X-363796Y-69D01*
X-355462Y-69D01*
X-353796Y-1069D01*
X-352962Y-3069D01*
X-352962Y-5069D01*
X-353796Y-7069D01*
X-355462Y-8069D01*
G54D13*
X-359629Y-34535D02*
X-361296Y-37535D01*
X-362962Y-38535D01*
X-366296Y-38535D01*
G54D13*
X-366296Y-30535D02*
X-352962Y-30535D01*
X-352962Y-35535D01*
X-353796Y-37535D01*
X-355462Y-38535D01*
X-357129Y-38535D01*
X-358796Y-37535D01*
X-359629Y-35535D01*
X-359629Y-30535D01*
G54D13*
X-357962Y-42202D02*
X-352962Y-47202D01*
X-366296Y-47202D01*
G54D13*
X-357962Y-50869D02*
X-352962Y-55869D01*
X-366296Y-55869D01*
G54D10*
X-342632Y60089D02*
X-343188Y61155D01*
X-343188Y62489D01*
X-342632Y63822D01*
X-341521Y64089D01*
X-339632Y64089D01*
X-338521Y63422D01*
X-338188Y62089D01*
X-338521Y60755D01*
X-339299Y60089D01*
X-340410Y60089D01*
X-340410Y64089D01*
G54D10*
X-354603Y100181D02*
X-345714Y100181D01*
G54D10*
X-351047Y100181D02*
X-349936Y99514D01*
X-349603Y98181D01*
X-349936Y96847D01*
X-351047Y96181D01*
X-353269Y96181D01*
X-354380Y96847D01*
X-354603Y98181D01*
X-354380Y99514D01*
X-353270Y100181D01*
G54D10*
X-402636Y63047D02*
X-402303Y64381D01*
X-402636Y65714D01*
X-403747Y66381D01*
X-405969Y66381D01*
X-407080Y65714D01*
X-407303Y64381D01*
X-407080Y63047D01*
G54D16*
X-279400Y38100D02*
X-279400Y54100D01*
X-273400Y54100D01*
X-271000Y53100D01*
X-269800Y51100D01*
X-269800Y49100D01*
X-271000Y47100D01*
X-273400Y46100D01*
X-279400Y46100D01*
G54D16*
X-260600Y38100D02*
X-260600Y54100D01*
G54D16*
X-265400Y54100D02*
X-255800Y54100D01*
G54D16*
X-246600Y38100D02*
X-246600Y54100D01*
G54D16*
X-251400Y54100D02*
X-241800Y54100D01*
G54D10*
X76200Y75489D02*
X76200Y66600D01*
X80867Y66600D01*
G54D10*
X88644Y73822D02*
X88644Y68267D01*
X87978Y67156D01*
X86644Y66600D01*
X85311Y66600D01*
X83978Y67156D01*
X83311Y68267D01*
X83311Y73822D01*
X83978Y74933D01*
X85311Y75489D01*
X86644Y75489D01*
X87978Y74933D01*
X88644Y73822D01*
G54D10*
X120650Y66600D02*
X120650Y75489D01*
G54D10*
X123094Y66600D02*
X123094Y75489D01*
X127761Y75489D01*
G54D10*
X123094Y71044D02*
X127761Y71044D01*
G54D10*
X256667Y71044D02*
X258667Y69933D01*
X259333Y68822D01*
X259333Y66600D01*
G54D10*
X254000Y66600D02*
X254000Y75489D01*
X257333Y75489D01*
X258667Y74933D01*
X259333Y73822D01*
X259333Y72711D01*
X258667Y71600D01*
X257333Y71044D01*
X254000Y71044D01*
G54D10*
X261777Y66600D02*
X261777Y75489D01*
X266444Y75489D01*
G54D10*
X261777Y71044D02*
X266444Y71044D01*
G54D17*
X-63500Y101600D02*
X330200Y101600D01*
X330200Y38100D01*
X-63500Y38100D01*
X-63500Y101600D01*
M02*
