; Drill file
; Format: 2.4 (00.0000)
M48
INCH
T01C0.0236
T02C0.0283
T03C0.0354
T04C0.0394
T05C0.1299
%
G05
G90
T01
X-016340Y013990
X-014340Y013990
X000660Y006490
X008660Y017490
T02
X-018500Y003250
X006420Y013670
T03
X-026250Y-000880
X-026110Y004350
X-026110Y005350
X-023530Y006600
X-024520Y008600
X-026110Y008850
X-026110Y009850
X-024530Y011600
X-023410Y013500
X-023410Y015000
X-024310Y016060
X-024550Y017600
X-025240Y018230
X-025930Y017600
X-026320Y016050
X-026420Y015000
X-026420Y013500
X-021520Y011600
X-021530Y008600
X-020520Y006600
X-020530Y003600
X-023520Y003600
X-018500Y-000750
X-013500Y-001880
X-013500Y-004130
X-013540Y-005760
X-009280Y-002130
X-007280Y-002120
X-005500Y-002380
X-005500Y-001000
X-005500Y001000
X-004700Y003400
X-002580Y001270
X-002420Y-000750
X000000Y000000
X001500Y-001130
X003000Y-001130
X005250Y-001130
X006250Y-005630
X010250Y000120
X007700Y009800
X007690Y011800
X010250Y011620
X007890Y015850
X007890Y016850
X002420Y013670
X-000340Y011990
X-001340Y011990
X-002340Y011990
X-003340Y011990
X-004340Y011990
X-005340Y011990
X-006340Y011990
X-006340Y010990
X-006340Y009990
X-005340Y009990
X-004340Y009990
X-003340Y009990
X-002340Y009990
X-001340Y009990
X-000340Y009990
X-000340Y010990
X-000250Y007380
X000000Y003550
X000000Y002250
X-002420Y-003760
X-005750Y-005630
X-006340Y006240
X-007340Y006240
X-008340Y006240
X-009340Y006240
X-010340Y009990
X-010340Y010990
X-010340Y011990
X-011340Y011990
X-012340Y011990
X-013340Y011990
X-014340Y011990
X-015340Y011990
X-016340Y011990
X-016340Y010990
X-016340Y009990
X-015340Y009990
X-014340Y009990
X-013340Y009990
X-012340Y009990
X-011340Y009990
X-014340Y014990
X-015340Y014990
X-016340Y014990
X-017250Y017250
X-018250Y017250
X-020500Y017750
X-021500Y017750
X-012170Y017350
X-008000Y017370
X-004810Y017340
X-001500Y017370
X001330Y017350
X-014630Y004530
X-016640Y004530
X-021250Y-005630
T04
X-016730Y000010
X-016730Y003010
X-013730Y003010
X-011730Y003010
X-009730Y003010
X-009730Y000010
X-011730Y000010
X-013730Y000010
X003170Y004900
X003170Y006900
X003170Y008900
X003170Y011900
X006170Y011900
X006170Y008900
X006170Y006900
X006170Y004900
T05
X-025750Y-005380
X-020750Y014620
X010250Y017620
X010250Y-005380
M30
