%FSLAX34Y34*%
%MOMM*%
%LNSOLDERMASK_BOTTOM*%
G71*
G01*
%ADD10C,2.600*%
%ADD11C,1.600*%
%ADD12C,2.600*%
%ADD13C,2.500*%
%ADD14C,2.800*%
%ADD15C,4.900*%
%ADD16C,2.400*%
%LPD*%
X-161150Y304510D02*
G54D10*
D03*
X-135750Y304510D02*
G54D10*
D03*
X-135750Y304510D02*
G54D10*
D03*
X-110350Y304510D02*
G54D10*
D03*
X-110350Y304510D02*
G54D10*
D03*
X-84950Y304510D02*
G54D10*
D03*
X-84950Y304510D02*
G54D10*
D03*
X-59550Y304510D02*
G54D10*
D03*
X-59550Y304510D02*
G54D10*
D03*
X-34150Y304510D02*
G54D10*
D03*
X-34150Y304510D02*
G54D10*
D03*
X-8750Y304510D02*
G54D10*
D03*
X-8750Y304510D02*
G54D10*
D03*
X-8750Y279110D02*
G54D10*
D03*
X-8750Y279110D02*
G54D10*
D03*
X-8750Y253710D02*
G54D10*
D03*
X-161150Y304510D02*
G54D10*
D03*
X-161150Y279110D02*
G54D10*
D03*
X-161150Y279110D02*
G54D10*
D03*
X-161150Y253710D02*
G54D10*
D03*
X-161150Y253710D02*
G54D10*
D03*
X-135750Y253710D02*
G54D10*
D03*
X-135750Y253710D02*
G54D10*
D03*
X-110350Y253710D02*
G54D10*
D03*
X-110350Y253710D02*
G54D10*
D03*
X-84950Y253710D02*
G54D10*
D03*
X-84950Y253710D02*
G54D10*
D03*
X-59550Y253710D02*
G54D10*
D03*
X-59550Y253710D02*
G54D10*
D03*
X-34150Y253710D02*
G54D10*
D03*
X-34150Y253710D02*
G54D10*
D03*
X-8750Y253710D02*
G54D10*
D03*
X-8750Y253710D02*
G54D10*
D03*
X-161150Y253710D02*
G54D10*
D03*
X-415150Y304510D02*
G54D10*
D03*
X-389750Y304510D02*
G54D10*
D03*
X-389750Y304510D02*
G54D10*
D03*
X-364350Y304510D02*
G54D10*
D03*
X-364350Y304510D02*
G54D10*
D03*
X-338950Y304510D02*
G54D10*
D03*
X-338950Y304510D02*
G54D10*
D03*
X-313550Y304510D02*
G54D10*
D03*
X-313550Y304510D02*
G54D10*
D03*
X-288150Y304510D02*
G54D10*
D03*
X-288150Y304510D02*
G54D10*
D03*
X-262750Y304510D02*
G54D10*
D03*
X-262750Y304510D02*
G54D10*
D03*
X-262750Y279110D02*
G54D10*
D03*
X-262750Y279110D02*
G54D10*
D03*
X-262750Y253710D02*
G54D10*
D03*
X-415150Y304510D02*
G54D10*
D03*
X-415150Y279110D02*
G54D10*
D03*
X-415150Y279110D02*
G54D10*
D03*
X-415150Y253710D02*
G54D10*
D03*
X-415150Y253710D02*
G54D10*
D03*
X-389750Y253710D02*
G54D10*
D03*
X-389750Y253710D02*
G54D10*
D03*
X-364350Y253710D02*
G54D10*
D03*
X-364350Y253710D02*
G54D10*
D03*
X-338950Y253710D02*
G54D10*
D03*
X-338950Y253710D02*
G54D10*
D03*
X-313550Y253710D02*
G54D10*
D03*
X-313550Y253710D02*
G54D10*
D03*
X-288150Y253710D02*
G54D10*
D03*
X-288150Y253710D02*
G54D10*
D03*
X-262750Y253710D02*
G54D10*
D03*
X-262750Y253710D02*
G54D10*
D03*
X-415150Y253710D02*
G54D10*
D03*
X-237350Y158460D02*
G54D10*
D03*
X-237350Y158460D02*
G54D10*
D03*
X-211950Y158460D02*
G54D10*
D03*
X-211950Y158460D02*
G54D10*
D03*
X-186550Y158460D02*
G54D10*
D03*
X-186550Y158460D02*
G54D10*
D03*
X-161150Y158460D02*
G54D10*
D03*
X-161150Y158460D02*
G54D10*
D03*
X-415150Y380710D02*
G54D10*
D03*
X-389750Y380710D02*
G54D10*
D03*
X-364350Y380710D02*
G54D10*
D03*
X-415150Y355310D02*
G54D11*
D03*
X-364350Y355310D02*
G54D11*
D03*
X-597483Y167666D02*
G54D10*
D03*
X-597533Y91416D02*
G54D10*
D03*
X-597483Y167666D02*
G54D12*
D03*
X-521292Y167592D02*
G54D10*
D03*
X-597542Y167642D02*
G54D10*
D03*
X-521292Y167592D02*
G54D12*
D03*
X-521292Y167592D02*
G54D10*
D03*
X-521342Y91342D02*
G54D10*
D03*
X-521292Y167592D02*
G54D12*
D03*
X-622882Y294666D02*
G54D10*
D03*
X-622933Y218416D02*
G54D10*
D03*
X-622883Y294666D02*
G54D12*
D03*
X-546692Y294592D02*
G54D10*
D03*
X-622942Y294642D02*
G54D10*
D03*
X-546692Y294592D02*
G54D12*
D03*
X-546692Y294592D02*
G54D10*
D03*
X-546742Y218342D02*
G54D10*
D03*
X-546692Y294592D02*
G54D12*
D03*
X-663127Y135961D02*
G54D10*
D03*
X-663127Y110561D02*
G54D10*
D03*
X-663127Y250261D02*
G54D10*
D03*
X-663127Y224861D02*
G54D10*
D03*
X200473Y428061D02*
G54D10*
D03*
X200473Y402661D02*
G54D10*
D03*
X219850Y444210D02*
G54D11*
D03*
X-6350Y187400D02*
G54D10*
D03*
X-469900Y-19050D02*
G54D13*
D03*
X-469900Y82550D02*
G54D13*
D03*
X-425065Y235D02*
G54D14*
D03*
X-425065Y76435D02*
G54D14*
D03*
X-348865Y235D02*
G54D14*
D03*
X-298065Y235D02*
G54D14*
D03*
X-247265Y235D02*
G54D14*
D03*
X-348865Y76435D02*
G54D14*
D03*
X-298065Y76435D02*
G54D14*
D03*
X-247265Y76435D02*
G54D14*
D03*
X-371640Y115125D02*
G54D10*
D03*
X-422621Y115013D02*
G54D10*
D03*
X-371640Y115125D02*
G54D10*
D03*
X-469900Y-19050D02*
G54D10*
D03*
X-425065Y235D02*
G54D10*
D03*
X61352Y347104D02*
G54D13*
D03*
X162952Y347104D02*
G54D13*
D03*
X80637Y302270D02*
G54D14*
D03*
X156837Y302270D02*
G54D14*
D03*
X80637Y226070D02*
G54D14*
D03*
X80637Y175270D02*
G54D14*
D03*
X80637Y124470D02*
G54D14*
D03*
X156837Y226070D02*
G54D14*
D03*
X156837Y175270D02*
G54D14*
D03*
X156837Y124470D02*
G54D14*
D03*
X195527Y248845D02*
G54D10*
D03*
X195415Y299826D02*
G54D10*
D03*
X195527Y248845D02*
G54D10*
D03*
X61352Y347104D02*
G54D10*
D03*
X80637Y302270D02*
G54D10*
D03*
X-463650Y438100D02*
G54D10*
D03*
X-438150Y438100D02*
G54D10*
D03*
X-425065Y76435D02*
G54D10*
D03*
X80637Y302270D02*
G54D10*
D03*
G36*
X247350Y308200D02*
X273350Y308200D01*
X273350Y282200D01*
X247350Y282200D01*
X247350Y308200D01*
G37*
G36*
X247350Y16100D02*
X273350Y16100D01*
X273350Y-9900D01*
X247350Y-9900D01*
X247350Y16100D01*
G37*
X0Y57150D02*
G54D10*
D03*
X0Y0D02*
G54D10*
D03*
X-342900Y-47750D02*
G54D10*
D03*
X-342900Y-104900D02*
G54D10*
D03*
X76200Y-28700D02*
G54D10*
D03*
X133350Y-28700D02*
G54D10*
D03*
X-65623Y32350D02*
G54D10*
D03*
X-119505Y86302D02*
G54D10*
D03*
X-65623Y32350D02*
G54D12*
D03*
X-61572Y-95426D02*
G54D10*
D03*
X-61522Y-19176D02*
G54D10*
D03*
X-61572Y-95426D02*
G54D12*
D03*
G36*
X-159050Y-129950D02*
X-133050Y-129950D01*
X-133050Y-155950D01*
X-159050Y-155950D01*
X-159050Y-129950D01*
G37*
X-139700Y25400D02*
G54D10*
D03*
X-139700Y-25400D02*
G54D10*
D03*
X-342900Y-104900D02*
G54D10*
D03*
X-139700Y-25400D02*
G54D10*
D03*
X-235806Y-54007D02*
G54D10*
D03*
X-184826Y-53895D02*
G54D10*
D03*
X16650Y164810D02*
G54D11*
D03*
X-235806Y-54007D02*
G54D10*
D03*
X-654050Y-136650D02*
G54D15*
D03*
G36*
X-552750Y-129950D02*
X-526750Y-129950D01*
X-526750Y-155950D01*
X-552750Y-155950D01*
X-552750Y-129950D01*
G37*
X260350Y-136650D02*
G54D15*
D03*
G36*
X145750Y-129950D02*
X171750Y-129950D01*
X171750Y-155950D01*
X145750Y-155950D01*
X145750Y-129950D01*
G37*
X260350Y447550D02*
G54D15*
D03*
G36*
X-679750Y-9300D02*
X-653750Y-9300D01*
X-653750Y-35300D01*
X-679750Y-35300D01*
X-679750Y-9300D01*
G37*
X-623482Y447122D02*
G54D16*
D03*
X-641057Y463022D02*
G54D16*
D03*
X-658673Y447087D02*
G54D16*
D03*
X-668547Y407735D02*
G54D10*
D03*
X-617566Y407848D02*
G54D10*
D03*
X-670954Y381088D02*
G54D10*
D03*
X-594704Y381038D02*
G54D10*
D03*
X-670954Y342988D02*
G54D10*
D03*
X-594704Y342938D02*
G54D10*
D03*
X-546100Y450800D02*
G54D10*
D03*
X-520700Y450800D02*
G54D10*
D03*
X-527050Y371350D02*
G54D15*
D03*
X-203200Y441200D02*
G54D10*
D03*
X-122099Y440463D02*
G54D10*
D03*
X-38100Y441200D02*
G54D10*
D03*
X-309200Y440673D02*
G54D10*
D03*
X33700Y440673D02*
G54D10*
D03*
X38100Y-28700D02*
G54D10*
D03*
X-139700Y-60450D02*
G54D10*
D03*
X0Y90170D02*
G54D10*
D03*
X156350Y75910D02*
G54D11*
D03*
M02*
