%FSLAX34Y34*%
%MOMM*%
%LNCOPPER_BOTTOM*%
G71*
G01*
%ADD10C,2.800*%
%ADD11C,1.700*%
%ADD12C,1.400*%
%ADD13C,1.800*%
%ADD14C,3.200*%
%ADD15C,2.800*%
%ADD16C,1.800*%
%ADD17C,2.700*%
%ADD18C,3.000*%
%ADD19C,1.600*%
%ADD20C,3.000*%
%ADD21C,0.667*%
%ADD22C,0.680*%
%ADD23C,0.813*%
%ADD24C,1.260*%
%ADD25C,2.000*%
%ADD26C,0.900*%
%ADD27C,0.600*%
%ADD28C,1.000*%
%ADD29C,2.000*%
%ADD30C,1.000*%
%ADD31C,1.900*%
%ADD32C,2.200*%
%ADD33C,0.800*%
%ADD34C,4.300*%
%ADD35C,1.800*%
%LPD*%
G36*
X-698500Y479300D02*
X291500Y479300D01*
X291500Y-170700D01*
X-698500Y-170700D01*
X-698500Y479300D01*
G37*
%LPC*%
X-161150Y304510D02*
G54D10*
D03*
X-135750Y304510D02*
G54D10*
D03*
X-135750Y304510D02*
G54D10*
D03*
X-110350Y304510D02*
G54D10*
D03*
X-110350Y304510D02*
G54D10*
D03*
X-84950Y304510D02*
G54D10*
D03*
X-84950Y304510D02*
G54D10*
D03*
X-59550Y304510D02*
G54D10*
D03*
X-59550Y304510D02*
G54D10*
D03*
X-34150Y304510D02*
G54D10*
D03*
X-34150Y304510D02*
G54D10*
D03*
X-8750Y304510D02*
G54D10*
D03*
X-8750Y304510D02*
G54D10*
D03*
X-8750Y279110D02*
G54D10*
D03*
X-8750Y279110D02*
G54D10*
D03*
X-8750Y253710D02*
G54D10*
D03*
X-161150Y304510D02*
G54D10*
D03*
X-161150Y279110D02*
G54D10*
D03*
X-161150Y279110D02*
G54D10*
D03*
X-161150Y253710D02*
G54D10*
D03*
X-161150Y253710D02*
G54D10*
D03*
X-135750Y253710D02*
G54D10*
D03*
X-135750Y253710D02*
G54D10*
D03*
X-110350Y253710D02*
G54D10*
D03*
X-110350Y253710D02*
G54D10*
D03*
X-84950Y253710D02*
G54D10*
D03*
X-84950Y253710D02*
G54D10*
D03*
X-59550Y253710D02*
G54D10*
D03*
X-59550Y253710D02*
G54D10*
D03*
X-34150Y253710D02*
G54D10*
D03*
X-34150Y253710D02*
G54D10*
D03*
X-8750Y253710D02*
G54D10*
D03*
X-8750Y253710D02*
G54D10*
D03*
X-161150Y253710D02*
G54D10*
D03*
X-415150Y304510D02*
G54D10*
D03*
X-389750Y304510D02*
G54D10*
D03*
X-389750Y304510D02*
G54D10*
D03*
X-364350Y304510D02*
G54D10*
D03*
X-364350Y304510D02*
G54D10*
D03*
X-338950Y304510D02*
G54D10*
D03*
X-338950Y304510D02*
G54D10*
D03*
X-313550Y304510D02*
G54D10*
D03*
X-313550Y304510D02*
G54D10*
D03*
X-288150Y304510D02*
G54D10*
D03*
X-288150Y304510D02*
G54D10*
D03*
X-262750Y304510D02*
G54D10*
D03*
X-262750Y304510D02*
G54D10*
D03*
X-262750Y279110D02*
G54D10*
D03*
X-262750Y279110D02*
G54D10*
D03*
X-262750Y253710D02*
G54D10*
D03*
X-415150Y304510D02*
G54D10*
D03*
X-415150Y279110D02*
G54D10*
D03*
X-415150Y279110D02*
G54D10*
D03*
X-415150Y253710D02*
G54D10*
D03*
X-415150Y253710D02*
G54D10*
D03*
X-389750Y253710D02*
G54D10*
D03*
X-389750Y253710D02*
G54D10*
D03*
X-364350Y253710D02*
G54D10*
D03*
X-364350Y253710D02*
G54D10*
D03*
X-338950Y253710D02*
G54D10*
D03*
X-338950Y253710D02*
G54D10*
D03*
X-313550Y253710D02*
G54D10*
D03*
X-313550Y253710D02*
G54D10*
D03*
X-288150Y253710D02*
G54D10*
D03*
X-288150Y253710D02*
G54D10*
D03*
X-262750Y253710D02*
G54D10*
D03*
X-262750Y253710D02*
G54D10*
D03*
X-415150Y253710D02*
G54D10*
D03*
X-237350Y158460D02*
G54D10*
D03*
X-237350Y158460D02*
G54D10*
D03*
X-211950Y158460D02*
G54D10*
D03*
X-211950Y158460D02*
G54D10*
D03*
X-186550Y158460D02*
G54D10*
D03*
X-186550Y158460D02*
G54D10*
D03*
X-161150Y158460D02*
G54D10*
D03*
X-161150Y158460D02*
G54D10*
D03*
G54D11*
X-313550Y253710D02*
X-313550Y304510D01*
G54D11*
X-59550Y253710D02*
X-59550Y304510D01*
X-415150Y380710D02*
G54D10*
D03*
X-389750Y380710D02*
G54D10*
D03*
X-364350Y380710D02*
G54D10*
D03*
G54D12*
X-364350Y380710D02*
X-367500Y383860D01*
X-367500Y377510D01*
X-437350Y307660D01*
X-437350Y301310D01*
X-431000Y294960D01*
X-431000Y269560D01*
X-418300Y256860D01*
X-415150Y253710D01*
G54D12*
X-415150Y380710D02*
X-418300Y383860D01*
X-450050Y352110D01*
X-450050Y294960D01*
X-443700Y288610D01*
X-443700Y263210D01*
X-431000Y250510D01*
X-431000Y244160D01*
X-367500Y180660D01*
X-208750Y180660D01*
X-202400Y174310D01*
X-177000Y174310D01*
X-164300Y161610D01*
X-161150Y158460D01*
G54D12*
X-415150Y380710D02*
X-418300Y383860D01*
X-399250Y402910D01*
X-386550Y402910D01*
X-380200Y396560D01*
X-354800Y396560D01*
X-265900Y307660D01*
X-262750Y304510D01*
G54D12*
X-415150Y380710D02*
X-418300Y383860D01*
X-399250Y402910D01*
X-386550Y402910D01*
X-380200Y396560D01*
X-354800Y396560D01*
X-284950Y326710D01*
X-107150Y326710D01*
X-100800Y320360D01*
X-75400Y320360D01*
X-62700Y307660D01*
X-59550Y304510D01*
X-415150Y355310D02*
G54D13*
D03*
X-364350Y355310D02*
G54D13*
D03*
G54D12*
X-415150Y355310D02*
X-412750Y357100D01*
X-412750Y382500D01*
X-415150Y380710D01*
G54D12*
X-364350Y355310D02*
X-361950Y357100D01*
X-361950Y382500D01*
X-364350Y380710D01*
X-597483Y167666D02*
G54D14*
D03*
X-597533Y91416D02*
G54D14*
D03*
X-597483Y167666D02*
G54D15*
D03*
X-521292Y167592D02*
G54D14*
D03*
X-597542Y167642D02*
G54D14*
D03*
X-521292Y167592D02*
G54D15*
D03*
X-521292Y167592D02*
G54D14*
D03*
X-521342Y91342D02*
G54D14*
D03*
X-521292Y167592D02*
G54D15*
D03*
X-622882Y294666D02*
G54D14*
D03*
X-622933Y218416D02*
G54D14*
D03*
X-622883Y294666D02*
G54D15*
D03*
X-546692Y294592D02*
G54D14*
D03*
X-622942Y294642D02*
G54D14*
D03*
X-546692Y294592D02*
G54D15*
D03*
X-546692Y294592D02*
G54D14*
D03*
X-546742Y218342D02*
G54D14*
D03*
X-546692Y294592D02*
G54D15*
D03*
X-663127Y135961D02*
G54D10*
D03*
X-663127Y110561D02*
G54D10*
D03*
X-663127Y250261D02*
G54D10*
D03*
X-663127Y224861D02*
G54D10*
D03*
X200473Y428061D02*
G54D10*
D03*
X200473Y402661D02*
G54D10*
D03*
G54D11*
X-663127Y135961D02*
X-637727Y161361D01*
X-599627Y161361D01*
X-597542Y167642D01*
X219850Y444210D02*
G54D13*
D03*
X-6350Y187400D02*
G54D10*
D03*
G54D16*
X-6350Y187400D02*
X19050Y212800D01*
X19050Y289000D01*
X6350Y301700D01*
X-6350Y301700D01*
X-8750Y304510D01*
G54D16*
X-6350Y187400D02*
X-44450Y225500D01*
X-298450Y225500D01*
X-311150Y238200D01*
X-311150Y250900D01*
X-313550Y253710D01*
G54D16*
X-6350Y187400D02*
X-57150Y136600D01*
X-171450Y136600D01*
X-184150Y149300D01*
X-184150Y162000D01*
X-186550Y158460D01*
G54D16*
X-663127Y250261D02*
X-666750Y250900D01*
X-628650Y289000D01*
X-622942Y294642D01*
G54D16*
X-546692Y294592D02*
X-552450Y289000D01*
X-463550Y377900D01*
X-412750Y377900D01*
X-415150Y380710D01*
X-469900Y-19050D02*
G54D17*
D03*
X-469900Y82550D02*
G54D17*
D03*
X-425065Y235D02*
G54D18*
D03*
X-425065Y76435D02*
G54D18*
D03*
X-348865Y235D02*
G54D18*
D03*
X-298065Y235D02*
G54D18*
D03*
X-247265Y235D02*
G54D18*
D03*
X-348865Y76435D02*
G54D18*
D03*
X-298065Y76435D02*
G54D18*
D03*
X-247265Y76435D02*
G54D18*
D03*
X-371640Y115125D02*
G54D14*
D03*
X-422621Y115013D02*
G54D14*
D03*
X-371640Y115125D02*
G54D14*
D03*
X-469900Y-19050D02*
G54D14*
D03*
X-425065Y235D02*
G54D14*
D03*
G54D12*
X-422621Y115013D02*
X-425450Y117350D01*
X-425450Y79250D01*
X-425065Y76435D01*
G54D12*
X-348865Y76435D02*
X-349250Y79250D01*
X-349250Y3050D01*
X-348865Y235D01*
X61352Y347104D02*
G54D17*
D03*
X162952Y347104D02*
G54D17*
D03*
X80637Y302270D02*
G54D18*
D03*
X156837Y302270D02*
G54D18*
D03*
X80637Y226070D02*
G54D18*
D03*
X80637Y175270D02*
G54D18*
D03*
X80637Y124470D02*
G54D18*
D03*
X156837Y226070D02*
G54D18*
D03*
X156837Y175270D02*
G54D18*
D03*
X156837Y124470D02*
G54D18*
D03*
X195527Y248845D02*
G54D14*
D03*
X195415Y299826D02*
G54D14*
D03*
X195527Y248845D02*
G54D14*
D03*
X61352Y347104D02*
G54D14*
D03*
X80637Y302270D02*
G54D14*
D03*
G54D12*
X156837Y226070D02*
X159652Y226455D01*
X83452Y226454D01*
X80637Y226069D01*
X-463650Y438100D02*
G54D14*
D03*
X-438150Y438100D02*
G54D14*
D03*
X-425065Y76435D02*
G54D10*
D03*
X80637Y302270D02*
G54D10*
D03*
G54D16*
X-422621Y115013D02*
X-425450Y120600D01*
X-463550Y82500D01*
X-469900Y82550D01*
G54D16*
X156837Y302270D02*
X158750Y298400D01*
X158750Y349200D01*
X162952Y347105D01*
G54D16*
X156837Y226070D02*
X158750Y222200D01*
X171450Y234900D01*
X171450Y260300D01*
X184150Y273000D01*
X196850Y273000D01*
X222250Y298400D01*
X222250Y412700D01*
X209550Y425400D01*
X196850Y425400D01*
X200473Y428061D01*
G36*
X246350Y309200D02*
X274350Y309200D01*
X274350Y281200D01*
X246350Y281200D01*
X246350Y309200D01*
G37*
G36*
X246350Y17100D02*
X274350Y17100D01*
X274350Y-10900D01*
X246350Y-10900D01*
X246350Y17100D01*
G37*
G54D16*
X195415Y299826D02*
X190500Y298400D01*
X152400Y298400D01*
X156837Y302270D01*
X0Y57150D02*
G54D10*
D03*
X0Y0D02*
G54D10*
D03*
X-342900Y-47750D02*
G54D10*
D03*
X-342900Y-104900D02*
G54D10*
D03*
X76200Y-28700D02*
G54D10*
D03*
X133350Y-28700D02*
G54D10*
D03*
X-65623Y32350D02*
G54D14*
D03*
X-119505Y86302D02*
G54D14*
D03*
X-65623Y32350D02*
G54D15*
D03*
X-61572Y-95426D02*
G54D14*
D03*
X-61522Y-19176D02*
G54D14*
D03*
X-61572Y-95426D02*
G54D15*
D03*
G36*
X-160050Y-128950D02*
X-132050Y-128950D01*
X-132050Y-156950D01*
X-160050Y-156950D01*
X-160050Y-128950D01*
G37*
X-139700Y25400D02*
G54D10*
D03*
X-139700Y-25400D02*
G54D10*
D03*
X-342900Y-104900D02*
G54D10*
D03*
G54D19*
X-61522Y-19176D02*
X-63500Y-19100D01*
X-120650Y38050D01*
X-120650Y88850D01*
X-119505Y86302D01*
G54D19*
X-139700Y25400D02*
X-139700Y25350D01*
X-120650Y44400D01*
X-120650Y88850D01*
X-119505Y86302D01*
G54D19*
X-65623Y32350D02*
X-63500Y31700D01*
X-57150Y38050D01*
X0Y38050D01*
X0Y57150D01*
X-139700Y-25400D02*
G54D10*
D03*
X-235806Y-54007D02*
G54D14*
D03*
X-184826Y-53895D02*
G54D14*
D03*
X16650Y164810D02*
G54D13*
D03*
G54D12*
X16650Y164810D02*
X19050Y165050D01*
X-6350Y190450D01*
X-6350Y187400D01*
X-235806Y-54007D02*
G54D14*
D03*
G54D19*
X-184826Y-53895D02*
X-184150Y-50850D01*
X-165100Y-31800D01*
X-165100Y-50D01*
X-139700Y25350D01*
X-139700Y25400D01*
G36*
X-553750Y-128950D02*
X-525750Y-128950D01*
X-525750Y-156950D01*
X-553750Y-156950D01*
X-553750Y-128950D01*
G37*
G36*
X144750Y-128950D02*
X172750Y-128950D01*
X172750Y-156950D01*
X144750Y-156950D01*
X144750Y-128950D01*
G37*
G54D19*
X-184826Y-53895D02*
X-184150Y-50850D01*
X-203200Y-31800D01*
X-241300Y-31800D01*
X-266700Y-57200D01*
X-342900Y-57200D01*
X-342900Y-54100D01*
G54D12*
X76200Y-28700D02*
X76200Y-31800D01*
X38100Y6300D01*
X0Y6300D01*
X0Y6350D01*
G54D12*
X-61572Y-95426D02*
X-63500Y-95300D01*
X-12700Y-44500D01*
X38100Y-63500D01*
X88900Y-57200D01*
X101600Y-31800D01*
X127000Y-31800D01*
X127000Y-28700D01*
G36*
X-680750Y-8300D02*
X-652750Y-8300D01*
X-652750Y-36300D01*
X-680750Y-36300D01*
X-680750Y-8300D01*
G37*
X-623482Y447122D02*
G54D20*
D03*
X-641057Y463022D02*
G54D20*
D03*
X-658673Y447087D02*
G54D20*
D03*
X-668547Y407735D02*
G54D14*
D03*
X-617566Y407848D02*
G54D14*
D03*
X-670954Y381088D02*
G54D14*
D03*
X-594704Y381038D02*
G54D14*
D03*
X-670954Y342988D02*
G54D14*
D03*
X-594704Y342938D02*
G54D14*
D03*
G54D12*
X-617566Y407848D02*
X-616254Y408431D01*
X-622604Y414781D01*
X-622604Y446531D01*
X-623482Y447122D01*
G54D12*
X-668547Y407736D02*
X-667054Y408431D01*
X-641654Y433831D01*
X-641654Y465581D01*
X-641057Y463022D01*
G54D12*
X-594704Y381038D02*
X-596900Y380950D01*
X-615950Y400000D01*
X-615950Y406350D01*
X-617566Y407848D01*
G54D12*
X-670954Y342988D02*
X-673100Y342850D01*
X-673100Y380950D01*
X-670954Y381088D01*
G54D12*
X-670954Y381088D02*
X-673100Y380950D01*
X-666750Y387300D01*
X-666750Y406350D01*
X-668547Y407735D01*
X-546100Y450800D02*
G54D10*
D03*
X-520700Y450800D02*
G54D10*
D03*
G54D12*
X-617566Y407848D02*
X-615950Y406350D01*
X-603250Y419050D01*
X-457200Y419050D01*
X-438150Y438100D01*
X-203200Y441200D02*
G54D10*
D03*
X-122099Y440463D02*
G54D10*
D03*
X-38100Y441200D02*
G54D10*
D03*
X-309200Y440673D02*
G54D10*
D03*
X33700Y440673D02*
G54D10*
D03*
G54D12*
X-59550Y304510D02*
X-59550Y419750D01*
X-38100Y441200D01*
X38100Y-28700D02*
G54D10*
D03*
G54D16*
X38100Y-28700D02*
X76200Y-28700D01*
X-139700Y-60450D02*
G54D10*
D03*
X0Y90170D02*
G54D10*
D03*
G54D16*
X0Y90170D02*
X0Y88900D01*
X0Y50800D01*
X0Y57150D01*
X156350Y75910D02*
G54D13*
D03*
G54D19*
X156350Y75910D02*
X158750Y76200D01*
X158750Y127000D01*
X156837Y124470D01*
%LPD*%
G54D21*
G36*
X-113683Y304510D02*
X-113683Y319010D01*
X-107017Y319010D01*
X-107017Y304510D01*
X-113683Y304510D01*
G37*
G36*
X-110350Y307843D02*
X-95850Y307843D01*
X-95850Y301177D01*
X-110350Y301177D01*
X-110350Y307843D01*
G37*
G36*
X-107017Y304510D02*
X-107017Y290010D01*
X-113683Y290010D01*
X-113683Y304510D01*
X-107017Y304510D01*
G37*
G36*
X-110350Y301177D02*
X-124850Y301177D01*
X-124850Y307843D01*
X-110350Y307843D01*
X-110350Y301177D01*
G37*
G54D21*
G36*
X-161150Y307843D02*
X-146650Y307843D01*
X-146650Y301177D01*
X-161150Y301177D01*
X-161150Y307843D01*
G37*
G36*
X-157817Y304510D02*
X-157817Y290010D01*
X-164483Y290010D01*
X-164483Y304510D01*
X-157817Y304510D01*
G37*
G36*
X-161150Y301177D02*
X-175650Y301177D01*
X-175650Y307843D01*
X-161150Y307843D01*
X-161150Y301177D01*
G37*
G36*
X-164483Y304510D02*
X-164483Y319010D01*
X-157817Y319010D01*
X-157817Y304510D01*
X-164483Y304510D01*
G37*
G54D21*
G36*
X-113683Y253710D02*
X-113683Y268210D01*
X-107017Y268210D01*
X-107017Y253710D01*
X-113683Y253710D01*
G37*
G36*
X-110350Y257043D02*
X-95850Y257043D01*
X-95850Y250377D01*
X-110350Y250377D01*
X-110350Y257043D01*
G37*
G36*
X-107017Y253710D02*
X-107017Y239210D01*
X-113683Y239210D01*
X-113683Y253710D01*
X-107017Y253710D01*
G37*
G36*
X-110350Y250377D02*
X-124850Y250377D01*
X-124850Y257043D01*
X-110350Y257043D01*
X-110350Y250377D01*
G37*
G54D21*
G36*
X-8750Y257043D02*
X5750Y257043D01*
X5750Y250377D01*
X-8750Y250377D01*
X-8750Y257043D01*
G37*
G36*
X-5417Y253710D02*
X-5417Y239210D01*
X-12083Y239210D01*
X-12083Y253710D01*
X-5417Y253710D01*
G37*
G36*
X-8750Y250377D02*
X-23250Y250377D01*
X-23250Y257043D01*
X-8750Y257043D01*
X-8750Y250377D01*
G37*
G36*
X-12083Y253710D02*
X-12083Y268210D01*
X-5417Y268210D01*
X-5417Y253710D01*
X-12083Y253710D01*
G37*
G54D21*
G36*
X-367683Y304510D02*
X-367683Y319010D01*
X-361016Y319010D01*
X-361016Y304510D01*
X-367683Y304510D01*
G37*
G36*
X-364350Y307843D02*
X-349850Y307843D01*
X-349850Y301177D01*
X-364350Y301177D01*
X-364350Y307843D01*
G37*
G36*
X-361016Y304510D02*
X-361016Y290010D01*
X-367683Y290010D01*
X-367683Y304510D01*
X-361016Y304510D01*
G37*
G36*
X-364350Y301177D02*
X-378850Y301177D01*
X-378850Y307843D01*
X-364350Y307843D01*
X-364350Y301177D01*
G37*
G54D21*
G36*
X-415150Y307843D02*
X-400650Y307843D01*
X-400650Y301177D01*
X-415150Y301177D01*
X-415150Y307843D01*
G37*
G36*
X-411817Y304510D02*
X-411817Y290010D01*
X-418483Y290010D01*
X-418483Y304510D01*
X-411817Y304510D01*
G37*
G36*
X-415150Y301177D02*
X-429650Y301177D01*
X-429650Y307843D01*
X-415150Y307843D01*
X-415150Y301177D01*
G37*
G36*
X-418483Y304510D02*
X-418483Y319010D01*
X-411817Y319010D01*
X-411817Y304510D01*
X-418483Y304510D01*
G37*
G54D21*
G36*
X-367683Y253710D02*
X-367683Y268210D01*
X-361016Y268210D01*
X-361016Y253710D01*
X-367683Y253710D01*
G37*
G36*
X-364350Y257043D02*
X-349850Y257043D01*
X-349850Y250377D01*
X-364350Y250377D01*
X-364350Y257043D01*
G37*
G36*
X-361016Y253710D02*
X-361016Y239210D01*
X-367683Y239210D01*
X-367683Y253710D01*
X-361016Y253710D01*
G37*
G36*
X-364350Y250377D02*
X-378850Y250377D01*
X-378850Y257043D01*
X-364350Y257043D01*
X-364350Y250377D01*
G37*
G54D21*
G36*
X-262750Y257043D02*
X-248250Y257043D01*
X-248250Y250377D01*
X-262750Y250377D01*
X-262750Y257043D01*
G37*
G36*
X-259416Y253710D02*
X-259416Y239210D01*
X-266083Y239210D01*
X-266083Y253710D01*
X-259416Y253710D01*
G37*
G36*
X-262750Y250377D02*
X-277250Y250377D01*
X-277250Y257043D01*
X-262750Y257043D01*
X-262750Y250377D01*
G37*
G36*
X-266083Y253710D02*
X-266083Y268210D01*
X-259416Y268210D01*
X-259416Y253710D01*
X-266083Y253710D01*
G37*
G54D21*
G36*
X-215283Y158460D02*
X-215283Y172960D01*
X-208616Y172960D01*
X-208616Y158460D01*
X-215283Y158460D01*
G37*
G36*
X-211950Y161793D02*
X-197450Y161793D01*
X-197450Y155127D01*
X-211950Y155127D01*
X-211950Y161793D01*
G37*
G36*
X-208616Y158460D02*
X-208616Y143960D01*
X-215283Y143960D01*
X-215283Y158460D01*
X-208616Y158460D01*
G37*
G36*
X-211950Y155127D02*
X-226450Y155127D01*
X-226450Y161793D01*
X-211950Y161793D01*
X-211950Y155127D01*
G37*
G54D21*
G36*
X-393083Y380710D02*
X-393083Y395210D01*
X-386417Y395210D01*
X-386417Y380710D01*
X-393083Y380710D01*
G37*
G36*
X-389750Y384043D02*
X-375250Y384043D01*
X-375250Y377377D01*
X-389750Y377377D01*
X-389750Y384043D01*
G37*
G36*
X-386417Y380710D02*
X-386417Y366210D01*
X-393083Y366210D01*
X-393083Y380710D01*
X-386417Y380710D01*
G37*
G36*
X-389750Y377377D02*
X-404250Y377377D01*
X-404250Y384043D01*
X-389750Y384043D01*
X-389750Y377377D01*
G37*
G54D21*
G36*
X-597533Y94749D02*
X-581033Y94749D01*
X-581033Y88083D01*
X-597533Y88083D01*
X-597533Y94749D01*
G37*
G36*
X-594200Y91416D02*
X-594200Y74916D01*
X-600866Y74916D01*
X-600866Y91416D01*
X-594200Y91416D01*
G37*
G36*
X-597533Y88083D02*
X-614033Y88083D01*
X-614033Y94749D01*
X-597533Y94749D01*
X-597533Y88083D01*
G37*
G36*
X-600866Y91416D02*
X-600866Y107916D01*
X-594200Y107916D01*
X-594200Y91416D01*
X-600866Y91416D01*
G37*
G54D22*
G36*
X-521342Y94742D02*
X-504842Y94742D01*
X-504842Y87942D01*
X-521342Y87942D01*
X-521342Y94742D01*
G37*
G36*
X-517942Y91342D02*
X-517942Y74842D01*
X-524742Y74842D01*
X-524742Y91342D01*
X-517942Y91342D01*
G37*
G36*
X-521342Y87942D02*
X-537842Y87942D01*
X-537842Y94742D01*
X-521342Y94742D01*
X-521342Y87942D01*
G37*
G36*
X-524742Y91342D02*
X-524742Y107842D01*
X-517942Y107842D01*
X-517942Y91342D01*
X-524742Y91342D01*
G37*
G54D21*
G36*
X-622933Y221749D02*
X-606433Y221749D01*
X-606433Y215083D01*
X-622933Y215083D01*
X-622933Y221749D01*
G37*
G36*
X-619600Y218416D02*
X-619600Y201916D01*
X-626266Y201916D01*
X-626266Y218416D01*
X-619600Y218416D01*
G37*
G36*
X-622933Y215083D02*
X-639433Y215083D01*
X-639433Y221749D01*
X-622933Y221749D01*
X-622933Y215083D01*
G37*
G36*
X-626266Y218416D02*
X-626266Y234916D01*
X-619600Y234916D01*
X-619600Y218416D01*
X-626266Y218416D01*
G37*
G54D22*
G36*
X-546742Y221742D02*
X-530242Y221742D01*
X-530242Y214942D01*
X-546742Y214942D01*
X-546742Y221742D01*
G37*
G36*
X-543342Y218342D02*
X-543342Y201842D01*
X-550142Y201842D01*
X-550142Y218342D01*
X-543342Y218342D01*
G37*
G36*
X-546742Y214942D02*
X-563242Y214942D01*
X-563242Y221742D01*
X-546742Y221742D01*
X-546742Y214942D01*
G37*
G36*
X-550142Y218342D02*
X-550142Y234842D01*
X-543342Y234842D01*
X-543342Y218342D01*
X-550142Y218342D01*
G37*
G54D21*
G36*
X-666460Y110561D02*
X-666460Y125061D01*
X-659794Y125061D01*
X-659794Y110561D01*
X-666460Y110561D01*
G37*
G36*
X-663127Y113894D02*
X-648627Y113894D01*
X-648627Y107228D01*
X-663127Y107228D01*
X-663127Y113894D01*
G37*
G36*
X-659794Y110561D02*
X-659794Y96061D01*
X-666460Y96061D01*
X-666460Y110561D01*
X-659794Y110561D01*
G37*
G36*
X-663127Y107228D02*
X-677627Y107228D01*
X-677627Y113894D01*
X-663127Y113894D01*
X-663127Y107228D01*
G37*
G54D21*
G36*
X-666460Y224861D02*
X-666460Y239361D01*
X-659794Y239361D01*
X-659794Y224861D01*
X-666460Y224861D01*
G37*
G36*
X-663127Y228194D02*
X-648627Y228194D01*
X-648627Y221528D01*
X-663127Y221528D01*
X-663127Y228194D01*
G37*
G36*
X-659794Y224861D02*
X-659794Y210361D01*
X-666460Y210361D01*
X-666460Y224861D01*
X-659794Y224861D01*
G37*
G36*
X-663127Y221528D02*
X-677627Y221528D01*
X-677627Y228194D01*
X-663127Y228194D01*
X-663127Y221528D01*
G37*
G54D21*
G36*
X197140Y402661D02*
X197140Y417161D01*
X203806Y417161D01*
X203806Y402661D01*
X197140Y402661D01*
G37*
G36*
X200473Y405994D02*
X214973Y405994D01*
X214973Y399328D01*
X200473Y399328D01*
X200473Y405994D01*
G37*
G36*
X203806Y402661D02*
X203806Y388161D01*
X197140Y388161D01*
X197140Y402661D01*
X203806Y402661D01*
G37*
G36*
X200473Y399328D02*
X185973Y399328D01*
X185973Y405994D01*
X200473Y405994D01*
X200473Y399328D01*
G37*
G54D22*
G36*
X-371640Y118525D02*
X-355140Y118525D01*
X-355140Y111725D01*
X-371640Y111725D01*
X-371640Y118525D01*
G37*
G36*
X-368240Y115125D02*
X-368240Y98625D01*
X-375040Y98625D01*
X-375040Y115125D01*
X-368240Y115125D01*
G37*
G36*
X-371640Y111725D02*
X-388140Y111725D01*
X-388140Y118525D01*
X-371640Y118525D01*
X-371640Y111725D01*
G37*
G36*
X-375040Y115125D02*
X-375040Y131625D01*
X-368240Y131625D01*
X-368240Y115125D01*
X-375040Y115125D01*
G37*
G54D22*
G36*
X-469900Y-15650D02*
X-453400Y-15650D01*
X-453400Y-22450D01*
X-469900Y-22450D01*
X-469900Y-15650D01*
G37*
G36*
X-466500Y-19050D02*
X-466500Y-35550D01*
X-473300Y-35550D01*
X-473300Y-19050D01*
X-466500Y-19050D01*
G37*
G36*
X-469900Y-22450D02*
X-486400Y-22450D01*
X-486400Y-15650D01*
X-469900Y-15650D01*
X-469900Y-22450D01*
G37*
G36*
X-473300Y-19050D02*
X-473300Y-2550D01*
X-466500Y-2550D01*
X-466500Y-19050D01*
X-473300Y-19050D01*
G37*
G54D22*
G36*
X-425065Y3635D02*
X-408565Y3635D01*
X-408565Y-3165D01*
X-425065Y-3165D01*
X-425065Y3635D01*
G37*
G36*
X-421665Y235D02*
X-421665Y-16265D01*
X-428465Y-16265D01*
X-428465Y235D01*
X-421665Y235D01*
G37*
G36*
X-425065Y-3165D02*
X-441565Y-3165D01*
X-441565Y3635D01*
X-425065Y3635D01*
X-425065Y-3165D01*
G37*
G36*
X-428465Y235D02*
X-428465Y16735D01*
X-421665Y16735D01*
X-421665Y235D01*
X-428465Y235D01*
G37*
G54D22*
G36*
X198927Y248845D02*
X198927Y232345D01*
X192127Y232345D01*
X192127Y248845D01*
X198927Y248845D01*
G37*
G36*
X195527Y245445D02*
X179027Y245445D01*
X179027Y252245D01*
X195527Y252245D01*
X195527Y245445D01*
G37*
G36*
X192127Y248845D02*
X192127Y265345D01*
X198927Y265345D01*
X198927Y248845D01*
X192127Y248845D01*
G37*
G36*
X195527Y252245D02*
X212027Y252245D01*
X212027Y245445D01*
X195527Y245445D01*
X195527Y252245D01*
G37*
G54D22*
G36*
X64752Y347104D02*
X64752Y330604D01*
X57952Y330604D01*
X57952Y347104D01*
X64752Y347104D01*
G37*
G36*
X61352Y343704D02*
X44852Y343704D01*
X44852Y350504D01*
X61352Y350504D01*
X61352Y343704D01*
G37*
G36*
X57952Y347104D02*
X57952Y363604D01*
X64752Y363604D01*
X64752Y347104D01*
X57952Y347104D01*
G37*
G36*
X61352Y350504D02*
X77852Y350504D01*
X77852Y343704D01*
X61352Y343704D01*
X61352Y350504D01*
G37*
G54D22*
G36*
X84037Y302270D02*
X84037Y285770D01*
X77237Y285770D01*
X77237Y302270D01*
X84037Y302270D01*
G37*
G36*
X80637Y298870D02*
X64137Y298870D01*
X64137Y305670D01*
X80637Y305670D01*
X80637Y298870D01*
G37*
G36*
X77237Y302270D02*
X77237Y318770D01*
X84037Y318770D01*
X84037Y302270D01*
X77237Y302270D01*
G37*
G36*
X80637Y305670D02*
X97137Y305670D01*
X97137Y298870D01*
X80637Y298870D01*
X80637Y305670D01*
G37*
G54D21*
G36*
X-466983Y438100D02*
X-466983Y454600D01*
X-460317Y454600D01*
X-460317Y438100D01*
X-466983Y438100D01*
G37*
G54D23*
G54D21*
G36*
X257017Y295200D02*
X257017Y309700D01*
X263683Y309700D01*
X263683Y295200D01*
X257017Y295200D01*
G37*
G36*
X260350Y298533D02*
X274850Y298533D01*
X274850Y291867D01*
X260350Y291867D01*
X260350Y298533D01*
G37*
G36*
X263683Y295200D02*
X263683Y280700D01*
X257017Y280700D01*
X257017Y295200D01*
X263683Y295200D01*
G37*
G36*
X260350Y291867D02*
X245850Y291867D01*
X245850Y298533D01*
X260350Y298533D01*
X260350Y291867D01*
G37*
G54D21*
G36*
X257017Y3100D02*
X257017Y17600D01*
X263683Y17600D01*
X263683Y3100D01*
X257017Y3100D01*
G37*
G36*
X260350Y6433D02*
X274850Y6433D01*
X274850Y-233D01*
X260350Y-233D01*
X260350Y6433D01*
G37*
G36*
X263683Y3100D02*
X263683Y-11400D01*
X257017Y-11400D01*
X257017Y3100D01*
X263683Y3100D01*
G37*
G36*
X260350Y-233D02*
X245850Y-233D01*
X245850Y6433D01*
X260350Y6433D01*
X260350Y-233D01*
G37*
G54D21*
G36*
X-149383Y-142950D02*
X-149383Y-128450D01*
X-142717Y-128450D01*
X-142717Y-142950D01*
X-149383Y-142950D01*
G37*
G36*
X-146050Y-139617D02*
X-131550Y-139617D01*
X-131550Y-146283D01*
X-146050Y-146283D01*
X-146050Y-139617D01*
G37*
G36*
X-142717Y-142950D02*
X-142717Y-157450D01*
X-149383Y-157450D01*
X-149383Y-142950D01*
X-142717Y-142950D01*
G37*
G36*
X-146050Y-146283D02*
X-160550Y-146283D01*
X-160550Y-139617D01*
X-146050Y-139617D01*
X-146050Y-146283D01*
G37*
G54D22*
G36*
X-342900Y-101500D02*
X-328400Y-101500D01*
X-328400Y-108300D01*
X-342900Y-108300D01*
X-342900Y-101500D01*
G37*
G36*
X-339500Y-104900D02*
X-339500Y-119400D01*
X-346300Y-119400D01*
X-346300Y-104900D01*
X-339500Y-104900D01*
G37*
G36*
X-342900Y-108300D02*
X-357400Y-108300D01*
X-357400Y-101500D01*
X-342900Y-101500D01*
X-342900Y-108300D01*
G37*
G36*
X-346300Y-104900D02*
X-346300Y-90400D01*
X-339500Y-90400D01*
X-339500Y-104900D01*
X-346300Y-104900D01*
G37*
G54D22*
G36*
X-139700Y-22000D02*
X-125200Y-22000D01*
X-125200Y-28800D01*
X-139700Y-28800D01*
X-139700Y-22000D01*
G37*
G36*
X-136300Y-25400D02*
X-136300Y-39900D01*
X-143100Y-39900D01*
X-143100Y-25400D01*
X-136300Y-25400D01*
G37*
G36*
X-139700Y-28800D02*
X-154200Y-28800D01*
X-154200Y-22000D01*
X-139700Y-22000D01*
X-139700Y-28800D01*
G37*
G36*
X-143100Y-25400D02*
X-143100Y-10900D01*
X-136300Y-10900D01*
X-136300Y-25400D01*
X-143100Y-25400D01*
G37*
G54D22*
G36*
X-235806Y-57407D02*
X-252306Y-57407D01*
X-252306Y-50607D01*
X-235806Y-50607D01*
X-235806Y-57407D01*
G37*
G36*
X-239206Y-54007D02*
X-239206Y-37507D01*
X-232406Y-37507D01*
X-232406Y-54007D01*
X-239206Y-54007D01*
G37*
G36*
X-235806Y-50607D02*
X-219306Y-50607D01*
X-219306Y-57407D01*
X-235806Y-57407D01*
X-235806Y-50607D01*
G37*
G36*
X-232406Y-54007D02*
X-232406Y-70507D01*
X-239206Y-70507D01*
X-239206Y-54007D01*
X-232406Y-54007D01*
G37*
G54D21*
G36*
X-543083Y-142950D02*
X-543083Y-128450D01*
X-536417Y-128450D01*
X-536417Y-142950D01*
X-543083Y-142950D01*
G37*
G36*
X-539750Y-139617D02*
X-525250Y-139617D01*
X-525250Y-146283D01*
X-539750Y-146283D01*
X-539750Y-139617D01*
G37*
G36*
X-536417Y-142950D02*
X-536417Y-157450D01*
X-543083Y-157450D01*
X-543083Y-142950D01*
X-536417Y-142950D01*
G37*
G36*
X-539750Y-146283D02*
X-554250Y-146283D01*
X-554250Y-139617D01*
X-539750Y-139617D01*
X-539750Y-146283D01*
G37*
G54D21*
G36*
X155417Y-142950D02*
X155417Y-128450D01*
X162083Y-128450D01*
X162083Y-142950D01*
X155417Y-142950D01*
G37*
G36*
X158750Y-139617D02*
X173250Y-139617D01*
X173250Y-146283D01*
X158750Y-146283D01*
X158750Y-139617D01*
G37*
G36*
X162083Y-142950D02*
X162083Y-157450D01*
X155417Y-157450D01*
X155417Y-142950D01*
X162083Y-142950D01*
G37*
G36*
X158750Y-146283D02*
X144250Y-146283D01*
X144250Y-139617D01*
X158750Y-139617D01*
X158750Y-146283D01*
G37*
G54D21*
G36*
X-670083Y-22300D02*
X-670083Y-7800D01*
X-663417Y-7800D01*
X-663417Y-22300D01*
X-670083Y-22300D01*
G37*
G36*
X-666750Y-18967D02*
X-652250Y-18967D01*
X-652250Y-25633D01*
X-666750Y-25633D01*
X-666750Y-18967D01*
G37*
G36*
X-663417Y-22300D02*
X-663417Y-36800D01*
X-670083Y-36800D01*
X-670083Y-22300D01*
X-663417Y-22300D01*
G37*
G36*
X-666750Y-25633D02*
X-681250Y-25633D01*
X-681250Y-18967D01*
X-666750Y-18967D01*
X-666750Y-25633D01*
G37*
G54D24*
G36*
X-527000Y450800D02*
X-527000Y465300D01*
X-514400Y465300D01*
X-514400Y450800D01*
X-527000Y450800D01*
G37*
G36*
X-520700Y457100D02*
X-506200Y457100D01*
X-506200Y444500D01*
X-520700Y444500D01*
X-520700Y457100D01*
G37*
G36*
X-514400Y450800D02*
X-514400Y436300D01*
X-527000Y436300D01*
X-527000Y450800D01*
X-514400Y450800D01*
G37*
G36*
X-520700Y444500D02*
X-535200Y444500D01*
X-535200Y457100D01*
X-520700Y457100D01*
X-520700Y444500D01*
G37*
G54D21*
G36*
X-312533Y440673D02*
X-312533Y455173D01*
X-305867Y455173D01*
X-305867Y440673D01*
X-312533Y440673D01*
G37*
G36*
X-309200Y444006D02*
X-294700Y444006D01*
X-294700Y437340D01*
X-309200Y437340D01*
X-309200Y444006D01*
G37*
G36*
X-305867Y440673D02*
X-305867Y426173D01*
X-312533Y426173D01*
X-312533Y440673D01*
X-305867Y440673D01*
G37*
G36*
X-309200Y437340D02*
X-323700Y437340D01*
X-323700Y444006D01*
X-309200Y444006D01*
X-309200Y437340D01*
G37*
G54D21*
G36*
X30367Y440673D02*
X30367Y455173D01*
X37033Y455173D01*
X37033Y440673D01*
X30367Y440673D01*
G37*
G36*
X33700Y444006D02*
X48200Y444006D01*
X48200Y437340D01*
X33700Y437340D01*
X33700Y444006D01*
G37*
G36*
X37033Y440673D02*
X37033Y426173D01*
X30367Y426173D01*
X30367Y440673D01*
X37033Y440673D01*
G37*
G36*
X33700Y437340D02*
X19200Y437340D01*
X19200Y444006D01*
X33700Y444006D01*
X33700Y437340D01*
G37*
G54D22*
G36*
X-139700Y-57050D02*
X-125200Y-57050D01*
X-125200Y-63850D01*
X-139700Y-63850D01*
X-139700Y-57050D01*
G37*
G36*
X-136300Y-60450D02*
X-136300Y-74950D01*
X-143100Y-74950D01*
X-143100Y-60450D01*
X-136300Y-60450D01*
G37*
G36*
X-139700Y-63850D02*
X-154200Y-63850D01*
X-154200Y-57050D01*
X-139700Y-57050D01*
X-139700Y-63850D01*
G37*
G36*
X-143100Y-60450D02*
X-143100Y-45950D01*
X-136300Y-45950D01*
X-136300Y-60450D01*
X-143100Y-60450D01*
G37*
X-161150Y304510D02*
G54D25*
D03*
X-135750Y304510D02*
G54D25*
D03*
X-135750Y304510D02*
G54D25*
D03*
X-110350Y304510D02*
G54D25*
D03*
X-110350Y304510D02*
G54D25*
D03*
X-84950Y304510D02*
G54D25*
D03*
X-84950Y304510D02*
G54D25*
D03*
X-59550Y304510D02*
G54D25*
D03*
X-59550Y304510D02*
G54D25*
D03*
X-34150Y304510D02*
G54D25*
D03*
X-34150Y304510D02*
G54D25*
D03*
X-8750Y304510D02*
G54D25*
D03*
X-8750Y304510D02*
G54D25*
D03*
X-8750Y279110D02*
G54D25*
D03*
X-8750Y279110D02*
G54D25*
D03*
X-8750Y253710D02*
G54D25*
D03*
X-161150Y304510D02*
G54D25*
D03*
X-161150Y279110D02*
G54D25*
D03*
X-161150Y279110D02*
G54D25*
D03*
X-161150Y253710D02*
G54D25*
D03*
X-161150Y253710D02*
G54D25*
D03*
X-135750Y253710D02*
G54D25*
D03*
X-135750Y253710D02*
G54D25*
D03*
X-110350Y253710D02*
G54D25*
D03*
X-110350Y253710D02*
G54D25*
D03*
X-84950Y253710D02*
G54D25*
D03*
X-84950Y253710D02*
G54D25*
D03*
X-59550Y253710D02*
G54D25*
D03*
X-59550Y253710D02*
G54D25*
D03*
X-34150Y253710D02*
G54D25*
D03*
X-34150Y253710D02*
G54D25*
D03*
X-8750Y253710D02*
G54D25*
D03*
X-8750Y253710D02*
G54D25*
D03*
X-161150Y253710D02*
G54D25*
D03*
X-415150Y304510D02*
G54D25*
D03*
X-389750Y304510D02*
G54D25*
D03*
X-389750Y304510D02*
G54D25*
D03*
X-364350Y304510D02*
G54D25*
D03*
X-364350Y304510D02*
G54D25*
D03*
X-338950Y304510D02*
G54D25*
D03*
X-338950Y304510D02*
G54D25*
D03*
X-313550Y304510D02*
G54D25*
D03*
X-313550Y304510D02*
G54D25*
D03*
X-288150Y304510D02*
G54D25*
D03*
X-288150Y304510D02*
G54D25*
D03*
X-262750Y304510D02*
G54D25*
D03*
X-262750Y304510D02*
G54D25*
D03*
X-262750Y279110D02*
G54D25*
D03*
X-262750Y279110D02*
G54D25*
D03*
X-262750Y253710D02*
G54D25*
D03*
X-415150Y304510D02*
G54D25*
D03*
X-415150Y279110D02*
G54D25*
D03*
X-415150Y279110D02*
G54D25*
D03*
X-415150Y253710D02*
G54D25*
D03*
X-415150Y253710D02*
G54D25*
D03*
X-389750Y253710D02*
G54D25*
D03*
X-389750Y253710D02*
G54D25*
D03*
X-364350Y253710D02*
G54D25*
D03*
X-364350Y253710D02*
G54D25*
D03*
X-338950Y253710D02*
G54D25*
D03*
X-338950Y253710D02*
G54D25*
D03*
X-313550Y253710D02*
G54D25*
D03*
X-313550Y253710D02*
G54D25*
D03*
X-288150Y253710D02*
G54D25*
D03*
X-288150Y253710D02*
G54D25*
D03*
X-262750Y253710D02*
G54D25*
D03*
X-262750Y253710D02*
G54D25*
D03*
X-415150Y253710D02*
G54D25*
D03*
X-237350Y158460D02*
G54D25*
D03*
X-237350Y158460D02*
G54D25*
D03*
X-211950Y158460D02*
G54D25*
D03*
X-211950Y158460D02*
G54D25*
D03*
X-186550Y158460D02*
G54D25*
D03*
X-186550Y158460D02*
G54D25*
D03*
X-161150Y158460D02*
G54D25*
D03*
X-161150Y158460D02*
G54D25*
D03*
G54D26*
X-313550Y253710D02*
X-313550Y304510D01*
G54D26*
X-59550Y253710D02*
X-59550Y304510D01*
X-415150Y380710D02*
G54D25*
D03*
X-389750Y380710D02*
G54D25*
D03*
X-364350Y380710D02*
G54D25*
D03*
G54D27*
X-364350Y380710D02*
X-367500Y383860D01*
X-367500Y377510D01*
X-437350Y307660D01*
X-437350Y301310D01*
X-431000Y294960D01*
X-431000Y269560D01*
X-418300Y256860D01*
X-415150Y253710D01*
G54D27*
X-415150Y380710D02*
X-418300Y383860D01*
X-450050Y352110D01*
X-450050Y294960D01*
X-443700Y288610D01*
X-443700Y263210D01*
X-431000Y250510D01*
X-431000Y244160D01*
X-367500Y180660D01*
X-208750Y180660D01*
X-202400Y174310D01*
X-177000Y174310D01*
X-164300Y161610D01*
X-161150Y158460D01*
G54D27*
X-415150Y380710D02*
X-418300Y383860D01*
X-399250Y402910D01*
X-386550Y402910D01*
X-380200Y396560D01*
X-354800Y396560D01*
X-265900Y307660D01*
X-262750Y304510D01*
G54D27*
X-415150Y380710D02*
X-418300Y383860D01*
X-399250Y402910D01*
X-386550Y402910D01*
X-380200Y396560D01*
X-354800Y396560D01*
X-284950Y326710D01*
X-107150Y326710D01*
X-100800Y320360D01*
X-75400Y320360D01*
X-62700Y307660D01*
X-59550Y304510D01*
X-415150Y355310D02*
G54D28*
D03*
X-364350Y355310D02*
G54D28*
D03*
G54D27*
X-415150Y355310D02*
X-412750Y357100D01*
X-412750Y382500D01*
X-415150Y380710D01*
G54D27*
X-364350Y355310D02*
X-361950Y357100D01*
X-361950Y382500D01*
X-364350Y380710D01*
X-597483Y167666D02*
G54D25*
D03*
X-597533Y91416D02*
G54D25*
D03*
X-597483Y167666D02*
G54D29*
D03*
X-521292Y167592D02*
G54D25*
D03*
X-597542Y167642D02*
G54D25*
D03*
X-521292Y167592D02*
G54D29*
D03*
X-521292Y167592D02*
G54D25*
D03*
X-521342Y91342D02*
G54D25*
D03*
X-521292Y167592D02*
G54D29*
D03*
X-622882Y294666D02*
G54D25*
D03*
X-622933Y218416D02*
G54D25*
D03*
X-622883Y294666D02*
G54D29*
D03*
X-546692Y294592D02*
G54D25*
D03*
X-622942Y294642D02*
G54D25*
D03*
X-546692Y294592D02*
G54D29*
D03*
X-546692Y294592D02*
G54D25*
D03*
X-546742Y218342D02*
G54D25*
D03*
X-546692Y294592D02*
G54D29*
D03*
X-663127Y135961D02*
G54D25*
D03*
X-663127Y110561D02*
G54D25*
D03*
X-663127Y250261D02*
G54D25*
D03*
X-663127Y224861D02*
G54D25*
D03*
X200473Y428061D02*
G54D25*
D03*
X200473Y402661D02*
G54D25*
D03*
G54D26*
X-663127Y135961D02*
X-637727Y161361D01*
X-599627Y161361D01*
X-597542Y167642D01*
X219850Y444210D02*
G54D28*
D03*
X-6350Y187400D02*
G54D25*
D03*
G54D30*
X-6350Y187400D02*
X19050Y212800D01*
X19050Y289000D01*
X6350Y301700D01*
X-6350Y301700D01*
X-8750Y304510D01*
G54D30*
X-6350Y187400D02*
X-44450Y225500D01*
X-298450Y225500D01*
X-311150Y238200D01*
X-311150Y250900D01*
X-313550Y253710D01*
G54D30*
X-6350Y187400D02*
X-57150Y136600D01*
X-171450Y136600D01*
X-184150Y149300D01*
X-184150Y162000D01*
X-186550Y158460D01*
G54D30*
X-663127Y250261D02*
X-666750Y250900D01*
X-628650Y289000D01*
X-622942Y294642D01*
G54D30*
X-546692Y294592D02*
X-552450Y289000D01*
X-463550Y377900D01*
X-412750Y377900D01*
X-415150Y380710D01*
X-469900Y-19050D02*
G54D31*
D03*
X-469900Y82550D02*
G54D31*
D03*
X-425065Y235D02*
G54D32*
D03*
X-425065Y76435D02*
G54D32*
D03*
X-348865Y235D02*
G54D32*
D03*
X-298065Y235D02*
G54D32*
D03*
X-247265Y235D02*
G54D32*
D03*
X-348865Y76435D02*
G54D32*
D03*
X-298065Y76435D02*
G54D32*
D03*
X-247265Y76435D02*
G54D32*
D03*
X-371640Y115125D02*
G54D25*
D03*
X-422621Y115013D02*
G54D25*
D03*
X-371640Y115125D02*
G54D25*
D03*
X-469900Y-19050D02*
G54D25*
D03*
X-425065Y235D02*
G54D25*
D03*
G54D27*
X-422621Y115013D02*
X-425450Y117350D01*
X-425450Y79250D01*
X-425065Y76435D01*
G54D27*
X-348865Y76435D02*
X-349250Y79250D01*
X-349250Y3050D01*
X-348865Y235D01*
X61352Y347104D02*
G54D31*
D03*
X162952Y347104D02*
G54D31*
D03*
X80637Y302270D02*
G54D32*
D03*
X156837Y302270D02*
G54D32*
D03*
X80637Y226070D02*
G54D32*
D03*
X80637Y175270D02*
G54D32*
D03*
X80637Y124470D02*
G54D32*
D03*
X156837Y226070D02*
G54D32*
D03*
X156837Y175270D02*
G54D32*
D03*
X156837Y124470D02*
G54D32*
D03*
X195527Y248845D02*
G54D25*
D03*
X195415Y299826D02*
G54D25*
D03*
X195527Y248845D02*
G54D25*
D03*
X61352Y347104D02*
G54D25*
D03*
X80637Y302270D02*
G54D25*
D03*
G54D27*
X156837Y226070D02*
X159652Y226455D01*
X83452Y226454D01*
X80637Y226069D01*
X-463650Y438100D02*
G54D25*
D03*
X-438150Y438100D02*
G54D25*
D03*
X-425065Y76435D02*
G54D25*
D03*
X80637Y302270D02*
G54D25*
D03*
G54D30*
X-422621Y115013D02*
X-425450Y120600D01*
X-463550Y82500D01*
X-469900Y82550D01*
G54D30*
X156837Y302270D02*
X158750Y298400D01*
X158750Y349200D01*
X162952Y347105D01*
G54D30*
X156837Y226070D02*
X158750Y222200D01*
X171450Y234900D01*
X171450Y260300D01*
X184150Y273000D01*
X196850Y273000D01*
X222250Y298400D01*
X222250Y412700D01*
X209550Y425400D01*
X196850Y425400D01*
X200473Y428061D01*
G36*
X250350Y305200D02*
X270350Y305200D01*
X270350Y285200D01*
X250350Y285200D01*
X250350Y305200D01*
G37*
G36*
X250350Y13100D02*
X270350Y13100D01*
X270350Y-6900D01*
X250350Y-6900D01*
X250350Y13100D01*
G37*
G54D30*
X195415Y299826D02*
X190500Y298400D01*
X152400Y298400D01*
X156837Y302270D01*
X0Y57150D02*
G54D25*
D03*
X0Y0D02*
G54D25*
D03*
X-342900Y-47750D02*
G54D25*
D03*
X-342900Y-104900D02*
G54D25*
D03*
X76200Y-28700D02*
G54D25*
D03*
X133350Y-28700D02*
G54D25*
D03*
X-65623Y32350D02*
G54D25*
D03*
X-119505Y86302D02*
G54D25*
D03*
X-65623Y32350D02*
G54D29*
D03*
X-61572Y-95426D02*
G54D25*
D03*
X-61522Y-19176D02*
G54D25*
D03*
X-61572Y-95426D02*
G54D29*
D03*
G36*
X-156050Y-132950D02*
X-136050Y-132950D01*
X-136050Y-152950D01*
X-156050Y-152950D01*
X-156050Y-132950D01*
G37*
X-139700Y25400D02*
G54D25*
D03*
X-139700Y-25400D02*
G54D25*
D03*
X-342900Y-104900D02*
G54D25*
D03*
G54D33*
X-61522Y-19176D02*
X-63500Y-19100D01*
X-120650Y38050D01*
X-120650Y88850D01*
X-119505Y86302D01*
G54D33*
X-139700Y25400D02*
X-139700Y25350D01*
X-120650Y44400D01*
X-120650Y88850D01*
X-119505Y86302D01*
G54D33*
X-65623Y32350D02*
X-63500Y31700D01*
X-57150Y38050D01*
X0Y38050D01*
X0Y57150D01*
X-139700Y-25400D02*
G54D25*
D03*
X-235806Y-54007D02*
G54D25*
D03*
X-184826Y-53895D02*
G54D25*
D03*
X16650Y164810D02*
G54D28*
D03*
G54D27*
X16650Y164810D02*
X19050Y165050D01*
X-6350Y190450D01*
X-6350Y187400D01*
X-235806Y-54007D02*
G54D25*
D03*
G54D33*
X-184826Y-53895D02*
X-184150Y-50850D01*
X-165100Y-31800D01*
X-165100Y-50D01*
X-139700Y25350D01*
X-139700Y25400D01*
X-654050Y-136650D02*
G54D34*
D03*
G36*
X-549750Y-132950D02*
X-529750Y-132950D01*
X-529750Y-152950D01*
X-549750Y-152950D01*
X-549750Y-132950D01*
G37*
X260350Y-136650D02*
G54D34*
D03*
G36*
X148750Y-132950D02*
X168750Y-132950D01*
X168750Y-152950D01*
X148750Y-152950D01*
X148750Y-132950D01*
G37*
X260350Y447550D02*
G54D34*
D03*
G54D33*
X-184826Y-53895D02*
X-184150Y-50850D01*
X-203200Y-31800D01*
X-241300Y-31800D01*
X-266700Y-57200D01*
X-342900Y-57200D01*
X-342900Y-54100D01*
G54D27*
X76200Y-28700D02*
X76200Y-31800D01*
X38100Y6300D01*
X0Y6300D01*
X0Y6350D01*
G54D27*
X-61572Y-95426D02*
X-63500Y-95300D01*
X-12700Y-44500D01*
X38100Y-63500D01*
X88900Y-57200D01*
X101600Y-31800D01*
X127000Y-31800D01*
X127000Y-28700D01*
G36*
X-676750Y-12300D02*
X-656750Y-12300D01*
X-656750Y-32300D01*
X-676750Y-32300D01*
X-676750Y-12300D01*
G37*
X-623482Y447122D02*
G54D35*
D03*
X-641057Y463022D02*
G54D35*
D03*
X-658673Y447087D02*
G54D35*
D03*
X-668547Y407735D02*
G54D25*
D03*
X-617566Y407848D02*
G54D25*
D03*
X-670954Y381088D02*
G54D25*
D03*
X-594704Y381038D02*
G54D25*
D03*
X-670954Y342988D02*
G54D25*
D03*
X-594704Y342938D02*
G54D25*
D03*
G54D27*
X-617566Y407848D02*
X-616254Y408431D01*
X-622604Y414781D01*
X-622604Y446531D01*
X-623482Y447122D01*
G54D27*
X-668547Y407736D02*
X-667054Y408431D01*
X-641654Y433831D01*
X-641654Y465581D01*
X-641057Y463022D01*
G54D27*
X-594704Y381038D02*
X-596900Y380950D01*
X-615950Y400000D01*
X-615950Y406350D01*
X-617566Y407848D01*
G54D27*
X-670954Y342988D02*
X-673100Y342850D01*
X-673100Y380950D01*
X-670954Y381088D01*
G54D27*
X-670954Y381088D02*
X-673100Y380950D01*
X-666750Y387300D01*
X-666750Y406350D01*
X-668547Y407735D01*
X-546100Y450800D02*
G54D25*
D03*
X-520700Y450800D02*
G54D25*
D03*
G54D27*
X-617566Y407848D02*
X-615950Y406350D01*
X-603250Y419050D01*
X-457200Y419050D01*
X-438150Y438100D01*
X-527050Y371350D02*
G54D34*
D03*
X-203200Y441200D02*
G54D25*
D03*
X-122099Y440463D02*
G54D25*
D03*
X-38100Y441200D02*
G54D25*
D03*
X-309200Y440673D02*
G54D25*
D03*
X33700Y440673D02*
G54D25*
D03*
G54D27*
X-59550Y304510D02*
X-59550Y419750D01*
X-38100Y441200D01*
X38100Y-28700D02*
G54D25*
D03*
G54D30*
X38100Y-28700D02*
X76200Y-28700D01*
X-139700Y-60450D02*
G54D25*
D03*
X0Y90170D02*
G54D25*
D03*
G54D30*
X0Y90170D02*
X0Y88900D01*
X0Y50800D01*
X0Y57150D01*
X156350Y75910D02*
G54D28*
D03*
G54D33*
X156350Y75910D02*
X158750Y76200D01*
X158750Y127000D01*
X156837Y124470D01*
M02*
