%FSLAX34Y34*%
%MOMM*%
%LNCOPPER_TOP*%
G71*
G01*
%ADD10C,3.000*%
%ADD11C,3.000*%
%ADD12C,3.200*%
%ADD13C,2.700*%
%ADD14C,2.800*%
%ADD15C,3.000*%
%ADD16C,1.300*%
%ADD17C,1.200*%
%ADD18C,0.933*%
%ADD19C,0.733*%
%ADD20C,1.380*%
%ADD21C,2.200*%
%ADD22C,2.200*%
%ADD23C,2.000*%
%ADD24C,1.900*%
%ADD25C,2.200*%
%ADD26C,0.500*%
%ADD27C,0.400*%
%LPD*%
G36*
X-254000Y203200D02*
X1346000Y203200D01*
X1346000Y-1396800D01*
X-254000Y-1396800D01*
X-254000Y203200D01*
G37*
%LPC*%
X222250Y-111000D02*
G54D10*
D03*
X222250Y-212600D02*
G54D10*
D03*
X361950Y-130050D02*
G54D11*
D03*
X361950Y-41150D02*
G54D11*
D03*
X412750Y-193550D02*
G54D10*
D03*
X311150Y-193550D02*
G54D10*
D03*
X495300Y-130050D02*
G54D11*
D03*
X584200Y-130050D02*
G54D11*
D03*
X717550Y-199900D02*
G54D10*
D03*
X615950Y-199900D02*
G54D10*
D03*
X717550Y-130050D02*
G54D11*
D03*
X717550Y-41150D02*
G54D11*
D03*
X850900Y-111000D02*
G54D10*
D03*
X850900Y-212600D02*
G54D10*
D03*
G36*
X159000Y-211550D02*
X95000Y-211550D01*
X95000Y-175550D01*
X159000Y-175550D01*
X159000Y-211550D01*
G37*
G36*
X38350Y-208376D02*
X-25650Y-208376D01*
X-25650Y-172376D01*
X38350Y-172376D01*
X38350Y-208376D01*
G37*
G36*
X159000Y-90900D02*
X95000Y-90900D01*
X95000Y-54900D01*
X159000Y-54900D01*
X159000Y-90900D01*
G37*
G36*
X38350Y-90900D02*
X-25650Y-90900D01*
X-25650Y-54900D01*
X38350Y-54900D01*
X38350Y-90900D01*
G37*
G36*
X27238Y-151225D02*
X-36762Y-151225D01*
X-36762Y-115225D01*
X27238Y-115225D01*
X27238Y-151225D01*
G37*
G36*
X907660Y-52249D02*
X971660Y-52249D01*
X971660Y-88249D01*
X907660Y-88249D01*
X907660Y-52249D01*
G37*
G36*
X1028310Y-55423D02*
X1092310Y-55423D01*
X1092310Y-91423D01*
X1028310Y-91423D01*
X1028310Y-55423D01*
G37*
G36*
X907660Y-172899D02*
X971660Y-172899D01*
X971660Y-208899D01*
X907660Y-208899D01*
X907660Y-172899D01*
G37*
G36*
X1028310Y-172899D02*
X1092310Y-172899D01*
X1092310Y-208899D01*
X1028310Y-208899D01*
X1028310Y-172899D01*
G37*
G36*
X1039422Y-112574D02*
X1103422Y-112574D01*
X1103422Y-148574D01*
X1039422Y-148574D01*
X1039422Y-112574D01*
G37*
X222250Y-111000D02*
G54D11*
D03*
X412750Y-193550D02*
G54D11*
D03*
X717550Y-199900D02*
G54D11*
D03*
X850900Y-212600D02*
G54D11*
D03*
G36*
X-25650Y-172376D02*
X38350Y-172376D01*
X38350Y-208376D01*
X-25650Y-208376D01*
X-25650Y-172376D01*
G37*
X-111642Y-158538D02*
G54D12*
D03*
X-111754Y-107558D02*
G54D12*
D03*
X-69527Y-180570D02*
G54D13*
D03*
X-69527Y-78970D02*
G54D13*
D03*
X-69527Y-180570D02*
G54D14*
D03*
X1177408Y-171238D02*
G54D12*
D03*
X1177296Y-120258D02*
G54D12*
D03*
X1130623Y-180570D02*
G54D13*
D03*
X1130623Y-78970D02*
G54D13*
D03*
X1130623Y-180570D02*
G54D14*
D03*
X-69527Y-180570D02*
G54D11*
D03*
X-111642Y-158538D02*
G54D11*
D03*
X1130623Y-180570D02*
G54D11*
D03*
X1177408Y-171238D02*
G54D11*
D03*
X222250Y-314200D02*
G54D10*
D03*
X222250Y-415800D02*
G54D10*
D03*
X361950Y-333250D02*
G54D11*
D03*
X361950Y-244350D02*
G54D11*
D03*
X412750Y-396750D02*
G54D10*
D03*
X311150Y-396750D02*
G54D10*
D03*
X495300Y-333250D02*
G54D11*
D03*
X584200Y-333250D02*
G54D11*
D03*
X717550Y-403100D02*
G54D10*
D03*
X615950Y-403100D02*
G54D10*
D03*
X717550Y-333250D02*
G54D11*
D03*
X717550Y-244350D02*
G54D11*
D03*
X850900Y-314200D02*
G54D10*
D03*
X850900Y-415800D02*
G54D10*
D03*
G36*
X159000Y-414750D02*
X95000Y-414750D01*
X95000Y-378750D01*
X159000Y-378750D01*
X159000Y-414750D01*
G37*
G36*
X38350Y-411576D02*
X-25650Y-411576D01*
X-25650Y-375576D01*
X38350Y-375576D01*
X38350Y-411576D01*
G37*
G36*
X159000Y-294100D02*
X95000Y-294100D01*
X95000Y-258100D01*
X159000Y-258100D01*
X159000Y-294100D01*
G37*
G36*
X38350Y-294100D02*
X-25650Y-294100D01*
X-25650Y-258100D01*
X38350Y-258100D01*
X38350Y-294100D01*
G37*
G36*
X27238Y-354425D02*
X-36762Y-354425D01*
X-36762Y-318425D01*
X27238Y-318425D01*
X27238Y-354425D01*
G37*
G36*
X907660Y-255449D02*
X971660Y-255449D01*
X971660Y-291449D01*
X907660Y-291449D01*
X907660Y-255449D01*
G37*
G36*
X1028310Y-258623D02*
X1092310Y-258623D01*
X1092310Y-294623D01*
X1028310Y-294623D01*
X1028310Y-258623D01*
G37*
G36*
X907660Y-376099D02*
X971660Y-376099D01*
X971660Y-412099D01*
X907660Y-412099D01*
X907660Y-376099D01*
G37*
G36*
X1028310Y-376099D02*
X1092310Y-376099D01*
X1092310Y-412099D01*
X1028310Y-412099D01*
X1028310Y-376099D01*
G37*
G36*
X1039422Y-315774D02*
X1103422Y-315774D01*
X1103422Y-351774D01*
X1039422Y-351774D01*
X1039422Y-315774D01*
G37*
X222250Y-314200D02*
G54D11*
D03*
X412750Y-396750D02*
G54D11*
D03*
X717550Y-403100D02*
G54D11*
D03*
X850900Y-415800D02*
G54D11*
D03*
G36*
X-25650Y-375576D02*
X38350Y-375576D01*
X38350Y-411576D01*
X-25650Y-411576D01*
X-25650Y-375576D01*
G37*
X-111642Y-361738D02*
G54D12*
D03*
X-111754Y-310758D02*
G54D12*
D03*
X-69527Y-383770D02*
G54D13*
D03*
X-69527Y-282170D02*
G54D13*
D03*
X-69527Y-383770D02*
G54D14*
D03*
X1177408Y-374438D02*
G54D12*
D03*
X1177296Y-323458D02*
G54D12*
D03*
X1130623Y-383770D02*
G54D13*
D03*
X1130623Y-282170D02*
G54D13*
D03*
X1130623Y-383770D02*
G54D14*
D03*
X-69527Y-383770D02*
G54D11*
D03*
X-111642Y-361738D02*
G54D11*
D03*
X1130623Y-383770D02*
G54D11*
D03*
X1177408Y-374438D02*
G54D11*
D03*
X222250Y-517400D02*
G54D10*
D03*
X222250Y-619000D02*
G54D10*
D03*
X361950Y-536450D02*
G54D11*
D03*
X361950Y-447550D02*
G54D11*
D03*
X412750Y-599950D02*
G54D10*
D03*
X311150Y-599950D02*
G54D10*
D03*
X495300Y-536450D02*
G54D11*
D03*
X584200Y-536450D02*
G54D11*
D03*
X717550Y-606300D02*
G54D10*
D03*
X615950Y-606300D02*
G54D10*
D03*
X717550Y-536450D02*
G54D11*
D03*
X717550Y-447550D02*
G54D11*
D03*
X850900Y-517400D02*
G54D10*
D03*
X850900Y-619000D02*
G54D10*
D03*
G36*
X159000Y-617950D02*
X95000Y-617950D01*
X95000Y-581950D01*
X159000Y-581950D01*
X159000Y-617950D01*
G37*
G36*
X38350Y-614776D02*
X-25650Y-614776D01*
X-25650Y-578776D01*
X38350Y-578776D01*
X38350Y-614776D01*
G37*
G36*
X159000Y-497300D02*
X95000Y-497300D01*
X95000Y-461300D01*
X159000Y-461300D01*
X159000Y-497300D01*
G37*
G36*
X38350Y-497300D02*
X-25650Y-497300D01*
X-25650Y-461300D01*
X38350Y-461300D01*
X38350Y-497300D01*
G37*
G36*
X27238Y-557625D02*
X-36762Y-557625D01*
X-36762Y-521625D01*
X27238Y-521625D01*
X27238Y-557625D01*
G37*
G36*
X907660Y-458649D02*
X971660Y-458649D01*
X971660Y-494649D01*
X907660Y-494649D01*
X907660Y-458649D01*
G37*
G36*
X1028310Y-461823D02*
X1092310Y-461823D01*
X1092310Y-497823D01*
X1028310Y-497823D01*
X1028310Y-461823D01*
G37*
G36*
X907660Y-579299D02*
X971660Y-579299D01*
X971660Y-615299D01*
X907660Y-615299D01*
X907660Y-579299D01*
G37*
G36*
X1028310Y-579299D02*
X1092310Y-579299D01*
X1092310Y-615299D01*
X1028310Y-615299D01*
X1028310Y-579299D01*
G37*
G36*
X1039422Y-518974D02*
X1103422Y-518974D01*
X1103422Y-554974D01*
X1039422Y-554974D01*
X1039422Y-518974D01*
G37*
X222250Y-517400D02*
G54D11*
D03*
X412750Y-599950D02*
G54D11*
D03*
X717550Y-606300D02*
G54D11*
D03*
X850900Y-619000D02*
G54D11*
D03*
G36*
X-25650Y-578776D02*
X38350Y-578776D01*
X38350Y-614776D01*
X-25650Y-614776D01*
X-25650Y-578776D01*
G37*
X-111642Y-564938D02*
G54D12*
D03*
X-111754Y-513958D02*
G54D12*
D03*
X-69527Y-586970D02*
G54D13*
D03*
X-69527Y-485370D02*
G54D13*
D03*
X-69527Y-586970D02*
G54D14*
D03*
X1177408Y-577638D02*
G54D12*
D03*
X1177296Y-526658D02*
G54D12*
D03*
X1130623Y-586970D02*
G54D13*
D03*
X1130623Y-485370D02*
G54D13*
D03*
X1130623Y-586970D02*
G54D14*
D03*
X-69527Y-586970D02*
G54D11*
D03*
X-111642Y-564938D02*
G54D11*
D03*
X1130623Y-586970D02*
G54D11*
D03*
X1177408Y-577638D02*
G54D11*
D03*
X222250Y-720600D02*
G54D10*
D03*
X222250Y-822200D02*
G54D10*
D03*
X361950Y-739650D02*
G54D11*
D03*
X361950Y-650750D02*
G54D11*
D03*
X412750Y-803150D02*
G54D10*
D03*
X311150Y-803150D02*
G54D10*
D03*
X495300Y-739650D02*
G54D11*
D03*
X584200Y-739650D02*
G54D11*
D03*
X717550Y-809500D02*
G54D10*
D03*
X615950Y-809500D02*
G54D10*
D03*
X717550Y-739650D02*
G54D11*
D03*
X717550Y-650750D02*
G54D11*
D03*
X850900Y-720600D02*
G54D10*
D03*
X850900Y-822200D02*
G54D10*
D03*
G36*
X159000Y-821150D02*
X95000Y-821150D01*
X95000Y-785150D01*
X159000Y-785150D01*
X159000Y-821150D01*
G37*
G36*
X38350Y-817976D02*
X-25650Y-817976D01*
X-25650Y-781976D01*
X38350Y-781976D01*
X38350Y-817976D01*
G37*
G36*
X159000Y-700500D02*
X95000Y-700500D01*
X95000Y-664500D01*
X159000Y-664500D01*
X159000Y-700500D01*
G37*
G36*
X38350Y-700500D02*
X-25650Y-700500D01*
X-25650Y-664500D01*
X38350Y-664500D01*
X38350Y-700500D01*
G37*
G36*
X27238Y-760825D02*
X-36762Y-760825D01*
X-36762Y-724825D01*
X27238Y-724825D01*
X27238Y-760825D01*
G37*
G36*
X907660Y-661848D02*
X971660Y-661848D01*
X971660Y-697848D01*
X907660Y-697848D01*
X907660Y-661848D01*
G37*
G36*
X1028310Y-665023D02*
X1092310Y-665023D01*
X1092310Y-701023D01*
X1028310Y-701023D01*
X1028310Y-665023D01*
G37*
G36*
X907660Y-782499D02*
X971660Y-782499D01*
X971660Y-818499D01*
X907660Y-818499D01*
X907660Y-782499D01*
G37*
G36*
X1028310Y-782499D02*
X1092310Y-782499D01*
X1092310Y-818499D01*
X1028310Y-818499D01*
X1028310Y-782499D01*
G37*
G36*
X1039422Y-722174D02*
X1103422Y-722174D01*
X1103422Y-758174D01*
X1039422Y-758174D01*
X1039422Y-722174D01*
G37*
X222250Y-720600D02*
G54D11*
D03*
X412750Y-803150D02*
G54D11*
D03*
X717550Y-809500D02*
G54D11*
D03*
X850900Y-822200D02*
G54D11*
D03*
G36*
X-25650Y-781976D02*
X38350Y-781976D01*
X38350Y-817976D01*
X-25650Y-817976D01*
X-25650Y-781976D01*
G37*
X-111642Y-768138D02*
G54D12*
D03*
X-111754Y-717158D02*
G54D12*
D03*
X-69527Y-790170D02*
G54D13*
D03*
X-69527Y-688570D02*
G54D13*
D03*
X-69527Y-790170D02*
G54D14*
D03*
X1177408Y-780838D02*
G54D12*
D03*
X1177296Y-729858D02*
G54D12*
D03*
X1130623Y-790170D02*
G54D13*
D03*
X1130623Y-688570D02*
G54D13*
D03*
X1130623Y-790170D02*
G54D14*
D03*
X-69527Y-790170D02*
G54D11*
D03*
X-111642Y-768138D02*
G54D11*
D03*
X1130623Y-790170D02*
G54D11*
D03*
X1177408Y-780838D02*
G54D11*
D03*
X222250Y-923800D02*
G54D10*
D03*
X222250Y-1025400D02*
G54D10*
D03*
X361950Y-942850D02*
G54D11*
D03*
X361950Y-853950D02*
G54D11*
D03*
X412750Y-1006350D02*
G54D10*
D03*
X311150Y-1006350D02*
G54D10*
D03*
X495300Y-942850D02*
G54D11*
D03*
X584200Y-942850D02*
G54D11*
D03*
X717550Y-1012700D02*
G54D10*
D03*
X615950Y-1012700D02*
G54D10*
D03*
X717550Y-942850D02*
G54D11*
D03*
X717550Y-853950D02*
G54D11*
D03*
X850900Y-923800D02*
G54D10*
D03*
X850900Y-1025400D02*
G54D10*
D03*
G36*
X159000Y-1024350D02*
X95000Y-1024350D01*
X95000Y-988350D01*
X159000Y-988350D01*
X159000Y-1024350D01*
G37*
G36*
X38350Y-1021176D02*
X-25650Y-1021176D01*
X-25650Y-985176D01*
X38350Y-985176D01*
X38350Y-1021176D01*
G37*
G36*
X159000Y-903700D02*
X95000Y-903700D01*
X95000Y-867700D01*
X159000Y-867700D01*
X159000Y-903700D01*
G37*
G36*
X38350Y-903700D02*
X-25650Y-903700D01*
X-25650Y-867700D01*
X38350Y-867700D01*
X38350Y-903700D01*
G37*
G36*
X27238Y-964025D02*
X-36762Y-964025D01*
X-36762Y-928025D01*
X27238Y-928025D01*
X27238Y-964025D01*
G37*
G36*
X907660Y-865048D02*
X971660Y-865048D01*
X971660Y-901048D01*
X907660Y-901048D01*
X907660Y-865048D01*
G37*
G36*
X1028310Y-868223D02*
X1092310Y-868223D01*
X1092310Y-904223D01*
X1028310Y-904223D01*
X1028310Y-868223D01*
G37*
G36*
X907660Y-985699D02*
X971660Y-985699D01*
X971660Y-1021699D01*
X907660Y-1021699D01*
X907660Y-985699D01*
G37*
G36*
X1028310Y-985699D02*
X1092310Y-985699D01*
X1092310Y-1021699D01*
X1028310Y-1021699D01*
X1028310Y-985699D01*
G37*
G36*
X1039422Y-925374D02*
X1103422Y-925374D01*
X1103422Y-961374D01*
X1039422Y-961374D01*
X1039422Y-925374D01*
G37*
X222250Y-923800D02*
G54D11*
D03*
X412750Y-1006350D02*
G54D11*
D03*
X717550Y-1012700D02*
G54D11*
D03*
X850900Y-1025400D02*
G54D11*
D03*
G36*
X-25650Y-985176D02*
X38350Y-985176D01*
X38350Y-1021176D01*
X-25650Y-1021176D01*
X-25650Y-985176D01*
G37*
X-111642Y-971338D02*
G54D12*
D03*
X-111754Y-920358D02*
G54D12*
D03*
X-69527Y-993370D02*
G54D13*
D03*
X-69527Y-891770D02*
G54D13*
D03*
X-69527Y-993370D02*
G54D14*
D03*
X1177408Y-984038D02*
G54D12*
D03*
X1177296Y-933058D02*
G54D12*
D03*
X1130623Y-993370D02*
G54D13*
D03*
X1130623Y-891770D02*
G54D13*
D03*
X1130623Y-993370D02*
G54D14*
D03*
X-69527Y-993370D02*
G54D11*
D03*
X-111642Y-971338D02*
G54D11*
D03*
X1130623Y-993370D02*
G54D11*
D03*
X1177408Y-984038D02*
G54D11*
D03*
X222250Y-1127000D02*
G54D10*
D03*
X222250Y-1228600D02*
G54D10*
D03*
X361950Y-1146050D02*
G54D11*
D03*
X361950Y-1057150D02*
G54D11*
D03*
X412750Y-1209550D02*
G54D10*
D03*
X311150Y-1209550D02*
G54D10*
D03*
X495300Y-1146050D02*
G54D11*
D03*
X584200Y-1146050D02*
G54D11*
D03*
X717550Y-1215900D02*
G54D10*
D03*
X615950Y-1215900D02*
G54D10*
D03*
X717550Y-1146050D02*
G54D11*
D03*
X717550Y-1057150D02*
G54D11*
D03*
X850900Y-1127000D02*
G54D10*
D03*
X850900Y-1228600D02*
G54D10*
D03*
G36*
X159000Y-1227550D02*
X95000Y-1227550D01*
X95000Y-1191550D01*
X159000Y-1191550D01*
X159000Y-1227550D01*
G37*
G36*
X38350Y-1224376D02*
X-25650Y-1224376D01*
X-25650Y-1188376D01*
X38350Y-1188376D01*
X38350Y-1224376D01*
G37*
G36*
X159000Y-1106900D02*
X95000Y-1106900D01*
X95000Y-1070900D01*
X159000Y-1070900D01*
X159000Y-1106900D01*
G37*
G36*
X38350Y-1106900D02*
X-25650Y-1106900D01*
X-25650Y-1070900D01*
X38350Y-1070900D01*
X38350Y-1106900D01*
G37*
G36*
X27238Y-1167225D02*
X-36762Y-1167225D01*
X-36762Y-1131225D01*
X27238Y-1131225D01*
X27238Y-1167225D01*
G37*
G36*
X907660Y-1068248D02*
X971660Y-1068248D01*
X971660Y-1104248D01*
X907660Y-1104248D01*
X907660Y-1068248D01*
G37*
G36*
X1028310Y-1071423D02*
X1092310Y-1071423D01*
X1092310Y-1107423D01*
X1028310Y-1107423D01*
X1028310Y-1071423D01*
G37*
G36*
X907660Y-1188899D02*
X971660Y-1188899D01*
X971660Y-1224899D01*
X907660Y-1224899D01*
X907660Y-1188899D01*
G37*
G36*
X1028310Y-1188899D02*
X1092310Y-1188899D01*
X1092310Y-1224899D01*
X1028310Y-1224899D01*
X1028310Y-1188899D01*
G37*
G36*
X1039422Y-1128574D02*
X1103422Y-1128574D01*
X1103422Y-1164574D01*
X1039422Y-1164574D01*
X1039422Y-1128574D01*
G37*
X222250Y-1127000D02*
G54D11*
D03*
X412750Y-1209550D02*
G54D11*
D03*
X717550Y-1215900D02*
G54D11*
D03*
X850900Y-1228600D02*
G54D11*
D03*
G36*
X-25650Y-1188376D02*
X38350Y-1188376D01*
X38350Y-1224376D01*
X-25650Y-1224376D01*
X-25650Y-1188376D01*
G37*
X-111642Y-1174538D02*
G54D12*
D03*
X-111754Y-1123558D02*
G54D12*
D03*
X-69527Y-1196570D02*
G54D13*
D03*
X-69527Y-1094970D02*
G54D13*
D03*
X-69527Y-1196570D02*
G54D14*
D03*
X1177408Y-1187238D02*
G54D12*
D03*
X1177296Y-1136258D02*
G54D12*
D03*
X1130623Y-1196570D02*
G54D13*
D03*
X1130623Y-1094970D02*
G54D13*
D03*
X1130623Y-1196570D02*
G54D14*
D03*
X-69527Y-1196570D02*
G54D11*
D03*
X-111642Y-1174538D02*
G54D11*
D03*
X1130623Y-1196570D02*
G54D11*
D03*
X1177408Y-1187238D02*
G54D11*
D03*
X44450Y79500D02*
G54D15*
D03*
X69850Y79500D02*
G54D15*
D03*
X615950Y79500D02*
G54D15*
D03*
X641350Y79500D02*
G54D15*
D03*
X781050Y79500D02*
G54D15*
D03*
X806450Y79500D02*
G54D15*
D03*
X984250Y79500D02*
G54D15*
D03*
X1009650Y79500D02*
G54D15*
D03*
X209550Y79500D02*
G54D15*
D03*
X234950Y79500D02*
G54D15*
D03*
X412750Y79500D02*
G54D15*
D03*
X438150Y79500D02*
G54D15*
D03*
X641350Y79500D02*
G54D11*
D03*
X806450Y79500D02*
G54D11*
D03*
X1009650Y79500D02*
G54D11*
D03*
X69850Y79500D02*
G54D15*
D03*
X95250Y79500D02*
G54D15*
D03*
X234950Y79500D02*
G54D15*
D03*
X260350Y79500D02*
G54D15*
D03*
X438150Y79500D02*
G54D15*
D03*
X463550Y79500D02*
G54D15*
D03*
X666750Y79500D02*
G54D15*
D03*
X831850Y79500D02*
G54D15*
D03*
X984250Y79500D02*
G54D15*
D03*
X1035050Y79500D02*
G54D15*
D03*
G54D16*
X412750Y79500D02*
X406400Y76200D01*
X254000Y-76200D01*
X254000Y-114300D01*
X165100Y-203200D01*
X165100Y-215900D01*
X139700Y-241300D01*
X101600Y-241300D01*
X50800Y-292100D01*
X50800Y-406400D01*
X0Y-457200D01*
X0Y-482600D01*
X6350Y-479300D01*
G54D16*
X412750Y79500D02*
X406400Y76200D01*
X584200Y-101600D01*
X596900Y-101600D01*
X685800Y-190500D01*
X685800Y-254000D01*
X825500Y-393700D01*
X825500Y-431800D01*
X838200Y-444500D01*
X965200Y-444500D01*
X1003300Y-482600D01*
X1054100Y-482600D01*
X1060310Y-479823D01*
G54D16*
X615950Y79500D02*
X609600Y76200D01*
X571500Y114300D01*
X457200Y114300D01*
X444500Y101600D01*
X393700Y101600D01*
X127000Y-165100D01*
X88900Y-165100D01*
X12700Y-241300D01*
X-25400Y-241300D01*
X-50800Y-266700D01*
X-50800Y-355600D01*
X-38100Y-368300D01*
X-38100Y-393700D01*
X-50800Y-406400D01*
X-50800Y-558800D01*
X-38100Y-571500D01*
X-38100Y-609600D01*
X0Y-647700D01*
X0Y-685800D01*
X6350Y-682500D01*
G54D16*
X615950Y79500D02*
X609600Y76200D01*
X698500Y-12700D01*
X723900Y-12700D01*
X825500Y-114300D01*
X825500Y-127000D01*
X901700Y-203200D01*
X901700Y-215900D01*
X927100Y-241300D01*
X965200Y-241300D01*
X1016000Y-292100D01*
X1016000Y-406400D01*
X1066800Y-457200D01*
X1092200Y-457200D01*
X1104900Y-469900D01*
X1104900Y-495300D01*
X1092200Y-508000D01*
X1041400Y-508000D01*
X1016000Y-533400D01*
X1016000Y-609600D01*
X1054100Y-647700D01*
X1054100Y-685800D01*
X1060310Y-683023D01*
G54D17*
X781050Y79500D02*
X781050Y44450D01*
X787400Y38100D01*
X1136650Y38100D01*
X1152525Y22225D01*
X1152525Y-854075D01*
X968634Y-854075D01*
X939660Y-883048D01*
G54D17*
X781050Y79500D02*
X781050Y133350D01*
X787400Y139700D01*
X-120650Y139700D01*
X-142875Y117475D01*
X-142875Y-835025D01*
X-114300Y-863600D01*
X-15750Y-863600D01*
X6350Y-885700D01*
G54D17*
X984250Y79500D02*
X984250Y92075D01*
X1009650Y117475D01*
X1177925Y117475D01*
X1190625Y104775D01*
X1190625Y-76200D01*
X1212850Y-98425D01*
X1212850Y-1054100D01*
X1209675Y-1057275D01*
X942975Y-1057275D01*
X923925Y-1076325D01*
X929736Y-1076325D01*
X939660Y-1086248D01*
G54D17*
X984250Y79500D02*
X984250Y158750D01*
X981075Y161925D01*
X-158750Y161925D01*
X-161925Y165100D01*
X-161925Y-1069975D01*
X-161925Y-1060450D01*
G54D17*
X-161925Y-1060450D02*
X6350Y-1060450D01*
X9525Y-1063625D01*
X9525Y-1085725D01*
X6350Y-1088900D01*
X1247750Y-533300D02*
G54D11*
D03*
X1298550Y-533300D02*
G54D11*
D03*
X1273150Y-558700D02*
G54D11*
D03*
X1298550Y-584100D02*
G54D11*
D03*
X1247750Y-584100D02*
G54D11*
D03*
X-228625Y-538062D02*
G54D11*
D03*
X-177825Y-538062D02*
G54D11*
D03*
X-203225Y-563462D02*
G54D11*
D03*
X-177825Y-588862D02*
G54D11*
D03*
X-228625Y-588862D02*
G54D11*
D03*
%LPD*%
G54D18*
G36*
X1055643Y-190899D02*
X1055643Y-172399D01*
X1064977Y-172399D01*
X1064977Y-190899D01*
X1055643Y-190899D01*
G37*
G36*
X1060310Y-186232D02*
X1092810Y-186232D01*
X1092810Y-195566D01*
X1060310Y-195566D01*
X1060310Y-186232D01*
G37*
G36*
X1064977Y-190899D02*
X1064977Y-209399D01*
X1055643Y-209399D01*
X1055643Y-190899D01*
X1064977Y-190899D01*
G37*
G36*
X1060310Y-195566D02*
X1027810Y-195566D01*
X1027810Y-186232D01*
X1060310Y-186232D01*
X1060310Y-195566D01*
G37*
G54D19*
G36*
X218583Y-111000D02*
X218583Y-95500D01*
X225917Y-95500D01*
X225917Y-111000D01*
X218583Y-111000D01*
G37*
G36*
X222250Y-107333D02*
X237750Y-107333D01*
X237750Y-114667D01*
X222250Y-114667D01*
X222250Y-107333D01*
G37*
G36*
X225917Y-111000D02*
X225917Y-126500D01*
X218583Y-126500D01*
X218583Y-111000D01*
X225917Y-111000D01*
G37*
G36*
X222250Y-114667D02*
X206750Y-114667D01*
X206750Y-107333D01*
X222250Y-107333D01*
X222250Y-114667D01*
G37*
G54D19*
G36*
X409083Y-193550D02*
X409083Y-178050D01*
X416417Y-178050D01*
X416417Y-193550D01*
X409083Y-193550D01*
G37*
G36*
X412750Y-189883D02*
X428250Y-189883D01*
X428250Y-197217D01*
X412750Y-197217D01*
X412750Y-189883D01*
G37*
G36*
X416417Y-193550D02*
X416417Y-209050D01*
X409083Y-209050D01*
X409083Y-193550D01*
X416417Y-193550D01*
G37*
G36*
X412750Y-197217D02*
X397250Y-197217D01*
X397250Y-189883D01*
X412750Y-189883D01*
X412750Y-197217D01*
G37*
G54D19*
G36*
X713883Y-199900D02*
X713883Y-184400D01*
X721217Y-184400D01*
X721217Y-199900D01*
X713883Y-199900D01*
G37*
G36*
X717550Y-196233D02*
X733050Y-196233D01*
X733050Y-203567D01*
X717550Y-203567D01*
X717550Y-196233D01*
G37*
G36*
X721217Y-199900D02*
X721217Y-215400D01*
X713883Y-215400D01*
X713883Y-199900D01*
X721217Y-199900D01*
G37*
G36*
X717550Y-203567D02*
X702050Y-203567D01*
X702050Y-196233D01*
X717550Y-196233D01*
X717550Y-203567D01*
G37*
G54D19*
G36*
X847233Y-212600D02*
X847233Y-197100D01*
X854567Y-197100D01*
X854567Y-212600D01*
X847233Y-212600D01*
G37*
G36*
X850900Y-208933D02*
X866400Y-208933D01*
X866400Y-216267D01*
X850900Y-216267D01*
X850900Y-208933D01*
G37*
G36*
X854567Y-212600D02*
X854567Y-228100D01*
X847233Y-228100D01*
X847233Y-212600D01*
X854567Y-212600D01*
G37*
G36*
X850900Y-216267D02*
X835400Y-216267D01*
X835400Y-208933D01*
X850900Y-208933D01*
X850900Y-216267D01*
G37*
G54D18*
G36*
X1683Y-190376D02*
X1683Y-171876D01*
X11017Y-171876D01*
X11017Y-190376D01*
X1683Y-190376D01*
G37*
G36*
X6350Y-185709D02*
X38850Y-185709D01*
X38850Y-195043D01*
X6350Y-195043D01*
X6350Y-185709D01*
G37*
G36*
X11017Y-190376D02*
X11017Y-208876D01*
X1683Y-208876D01*
X1683Y-190376D01*
X11017Y-190376D01*
G37*
G36*
X6350Y-195043D02*
X-26150Y-195043D01*
X-26150Y-185709D01*
X6350Y-185709D01*
X6350Y-195043D01*
G37*
G54D20*
G36*
X-69527Y-173670D02*
X-55027Y-173670D01*
X-55027Y-187470D01*
X-69527Y-187470D01*
X-69527Y-173670D01*
G37*
G36*
X-62627Y-180570D02*
X-62627Y-195070D01*
X-76427Y-195070D01*
X-76427Y-180570D01*
X-62627Y-180570D01*
G37*
G36*
X-69527Y-187470D02*
X-84027Y-187470D01*
X-84027Y-173670D01*
X-69527Y-173670D01*
X-69527Y-187470D01*
G37*
G36*
X-76427Y-180570D02*
X-76427Y-166070D01*
X-62627Y-166070D01*
X-62627Y-180570D01*
X-76427Y-180570D01*
G37*
G54D20*
G36*
X1130623Y-173670D02*
X1145123Y-173670D01*
X1145123Y-187470D01*
X1130623Y-187470D01*
X1130623Y-173670D01*
G37*
G36*
X1137523Y-180570D02*
X1137523Y-195070D01*
X1123723Y-195070D01*
X1123723Y-180570D01*
X1137523Y-180570D01*
G37*
G36*
X1130623Y-187470D02*
X1116123Y-187470D01*
X1116123Y-173670D01*
X1130623Y-173670D01*
X1130623Y-187470D01*
G37*
G36*
X1123723Y-180570D02*
X1123723Y-166070D01*
X1137523Y-166070D01*
X1137523Y-180570D01*
X1123723Y-180570D01*
G37*
G54D19*
G36*
X-73194Y-180570D02*
X-73194Y-165070D01*
X-65860Y-165070D01*
X-65860Y-180570D01*
X-73194Y-180570D01*
G37*
G36*
X-69527Y-176903D02*
X-54027Y-176903D01*
X-54027Y-184236D01*
X-69527Y-184236D01*
X-69527Y-176903D01*
G37*
G36*
X-65860Y-180570D02*
X-65860Y-196070D01*
X-73194Y-196070D01*
X-73194Y-180570D01*
X-65860Y-180570D01*
G37*
G36*
X-69527Y-184236D02*
X-85027Y-184236D01*
X-85027Y-176903D01*
X-69527Y-176903D01*
X-69527Y-184236D01*
G37*
G54D19*
G36*
X-115308Y-158538D02*
X-115308Y-143038D01*
X-107975Y-143038D01*
X-107975Y-158538D01*
X-115308Y-158538D01*
G37*
G36*
X-111642Y-154872D02*
X-96142Y-154872D01*
X-96142Y-162205D01*
X-111642Y-162205D01*
X-111642Y-154872D01*
G37*
G36*
X-107975Y-158538D02*
X-107975Y-174038D01*
X-115308Y-174038D01*
X-115308Y-158538D01*
X-107975Y-158538D01*
G37*
G36*
X-111642Y-162205D02*
X-127142Y-162205D01*
X-127142Y-154872D01*
X-111642Y-154872D01*
X-111642Y-162205D01*
G37*
G54D19*
G36*
X1126956Y-180570D02*
X1126956Y-165070D01*
X1134290Y-165070D01*
X1134290Y-180570D01*
X1126956Y-180570D01*
G37*
G36*
X1130623Y-176903D02*
X1146123Y-176903D01*
X1146123Y-184236D01*
X1130623Y-184236D01*
X1130623Y-176903D01*
G37*
G36*
X1134290Y-180570D02*
X1134290Y-196070D01*
X1126956Y-196070D01*
X1126956Y-180570D01*
X1134290Y-180570D01*
G37*
G36*
X1130623Y-184236D02*
X1115123Y-184236D01*
X1115123Y-176903D01*
X1130623Y-176903D01*
X1130623Y-184236D01*
G37*
G54D19*
G36*
X1173742Y-171238D02*
X1173742Y-155738D01*
X1181075Y-155738D01*
X1181075Y-171238D01*
X1173742Y-171238D01*
G37*
G36*
X1177408Y-167572D02*
X1192908Y-167572D01*
X1192908Y-174905D01*
X1177408Y-174905D01*
X1177408Y-167572D01*
G37*
G36*
X1181075Y-171238D02*
X1181075Y-186738D01*
X1173742Y-186738D01*
X1173742Y-171238D01*
X1181075Y-171238D01*
G37*
G36*
X1177408Y-174905D02*
X1161908Y-174905D01*
X1161908Y-167572D01*
X1177408Y-167572D01*
X1177408Y-174905D01*
G37*
G54D18*
G36*
X1055643Y-394099D02*
X1055643Y-375599D01*
X1064977Y-375599D01*
X1064977Y-394099D01*
X1055643Y-394099D01*
G37*
G36*
X1060310Y-389432D02*
X1092810Y-389432D01*
X1092810Y-398766D01*
X1060310Y-398766D01*
X1060310Y-389432D01*
G37*
G36*
X1064977Y-394099D02*
X1064977Y-412599D01*
X1055643Y-412599D01*
X1055643Y-394099D01*
X1064977Y-394099D01*
G37*
G36*
X1060310Y-398766D02*
X1027810Y-398766D01*
X1027810Y-389432D01*
X1060310Y-389432D01*
X1060310Y-398766D01*
G37*
G54D19*
G36*
X218583Y-314200D02*
X218583Y-298700D01*
X225917Y-298700D01*
X225917Y-314200D01*
X218583Y-314200D01*
G37*
G36*
X222250Y-310533D02*
X237750Y-310533D01*
X237750Y-317867D01*
X222250Y-317867D01*
X222250Y-310533D01*
G37*
G36*
X225917Y-314200D02*
X225917Y-329700D01*
X218583Y-329700D01*
X218583Y-314200D01*
X225917Y-314200D01*
G37*
G36*
X222250Y-317867D02*
X206750Y-317867D01*
X206750Y-310533D01*
X222250Y-310533D01*
X222250Y-317867D01*
G37*
G54D19*
G36*
X409083Y-396750D02*
X409083Y-381250D01*
X416417Y-381250D01*
X416417Y-396750D01*
X409083Y-396750D01*
G37*
G36*
X412750Y-393083D02*
X428250Y-393083D01*
X428250Y-400417D01*
X412750Y-400417D01*
X412750Y-393083D01*
G37*
G36*
X416417Y-396750D02*
X416417Y-412250D01*
X409083Y-412250D01*
X409083Y-396750D01*
X416417Y-396750D01*
G37*
G36*
X412750Y-400417D02*
X397250Y-400417D01*
X397250Y-393083D01*
X412750Y-393083D01*
X412750Y-400417D01*
G37*
G54D19*
G36*
X713883Y-403100D02*
X713883Y-387600D01*
X721217Y-387600D01*
X721217Y-403100D01*
X713883Y-403100D01*
G37*
G36*
X717550Y-399433D02*
X733050Y-399433D01*
X733050Y-406767D01*
X717550Y-406767D01*
X717550Y-399433D01*
G37*
G36*
X721217Y-403100D02*
X721217Y-418600D01*
X713883Y-418600D01*
X713883Y-403100D01*
X721217Y-403100D01*
G37*
G36*
X717550Y-406767D02*
X702050Y-406767D01*
X702050Y-399433D01*
X717550Y-399433D01*
X717550Y-406767D01*
G37*
G54D19*
G36*
X847233Y-415800D02*
X847233Y-400300D01*
X854567Y-400300D01*
X854567Y-415800D01*
X847233Y-415800D01*
G37*
G36*
X850900Y-412133D02*
X866400Y-412133D01*
X866400Y-419467D01*
X850900Y-419467D01*
X850900Y-412133D01*
G37*
G36*
X854567Y-415800D02*
X854567Y-431300D01*
X847233Y-431300D01*
X847233Y-415800D01*
X854567Y-415800D01*
G37*
G36*
X850900Y-419467D02*
X835400Y-419467D01*
X835400Y-412133D01*
X850900Y-412133D01*
X850900Y-419467D01*
G37*
G54D18*
G36*
X1683Y-393576D02*
X1683Y-375076D01*
X11017Y-375076D01*
X11017Y-393576D01*
X1683Y-393576D01*
G37*
G36*
X6350Y-388909D02*
X38850Y-388909D01*
X38850Y-398243D01*
X6350Y-398243D01*
X6350Y-388909D01*
G37*
G36*
X11017Y-393576D02*
X11017Y-412076D01*
X1683Y-412076D01*
X1683Y-393576D01*
X11017Y-393576D01*
G37*
G36*
X6350Y-398243D02*
X-26150Y-398243D01*
X-26150Y-388909D01*
X6350Y-388909D01*
X6350Y-398243D01*
G37*
G54D20*
G36*
X-69527Y-376870D02*
X-55027Y-376870D01*
X-55027Y-390670D01*
X-69527Y-390670D01*
X-69527Y-376870D01*
G37*
G36*
X-62627Y-383770D02*
X-62627Y-398270D01*
X-76427Y-398270D01*
X-76427Y-383770D01*
X-62627Y-383770D01*
G37*
G36*
X-69527Y-390670D02*
X-84027Y-390670D01*
X-84027Y-376870D01*
X-69527Y-376870D01*
X-69527Y-390670D01*
G37*
G36*
X-76427Y-383770D02*
X-76427Y-369270D01*
X-62627Y-369270D01*
X-62627Y-383770D01*
X-76427Y-383770D01*
G37*
G54D20*
G36*
X1130623Y-376870D02*
X1145123Y-376870D01*
X1145123Y-390670D01*
X1130623Y-390670D01*
X1130623Y-376870D01*
G37*
G36*
X1137523Y-383770D02*
X1137523Y-398270D01*
X1123723Y-398270D01*
X1123723Y-383770D01*
X1137523Y-383770D01*
G37*
G36*
X1130623Y-390670D02*
X1116123Y-390670D01*
X1116123Y-376870D01*
X1130623Y-376870D01*
X1130623Y-390670D01*
G37*
G36*
X1123723Y-383770D02*
X1123723Y-369270D01*
X1137523Y-369270D01*
X1137523Y-383770D01*
X1123723Y-383770D01*
G37*
G54D19*
G36*
X-73194Y-383770D02*
X-73194Y-368270D01*
X-65860Y-368270D01*
X-65860Y-383770D01*
X-73194Y-383770D01*
G37*
G36*
X-69527Y-380103D02*
X-54027Y-380103D01*
X-54027Y-387436D01*
X-69527Y-387436D01*
X-69527Y-380103D01*
G37*
G36*
X-65860Y-383770D02*
X-65860Y-399270D01*
X-73194Y-399270D01*
X-73194Y-383770D01*
X-65860Y-383770D01*
G37*
G36*
X-69527Y-387436D02*
X-85027Y-387436D01*
X-85027Y-380103D01*
X-69527Y-380103D01*
X-69527Y-387436D01*
G37*
G54D19*
G36*
X-115308Y-361738D02*
X-115308Y-346238D01*
X-107975Y-346238D01*
X-107975Y-361738D01*
X-115308Y-361738D01*
G37*
G36*
X-111642Y-358072D02*
X-96142Y-358072D01*
X-96142Y-365405D01*
X-111642Y-365405D01*
X-111642Y-358072D01*
G37*
G36*
X-107975Y-361738D02*
X-107975Y-377238D01*
X-115308Y-377238D01*
X-115308Y-361738D01*
X-107975Y-361738D01*
G37*
G36*
X-111642Y-365405D02*
X-127142Y-365405D01*
X-127142Y-358072D01*
X-111642Y-358072D01*
X-111642Y-365405D01*
G37*
G54D19*
G36*
X1126956Y-383770D02*
X1126956Y-368270D01*
X1134290Y-368270D01*
X1134290Y-383770D01*
X1126956Y-383770D01*
G37*
G36*
X1130623Y-380103D02*
X1146123Y-380103D01*
X1146123Y-387436D01*
X1130623Y-387436D01*
X1130623Y-380103D01*
G37*
G36*
X1134290Y-383770D02*
X1134290Y-399270D01*
X1126956Y-399270D01*
X1126956Y-383770D01*
X1134290Y-383770D01*
G37*
G36*
X1130623Y-387436D02*
X1115123Y-387436D01*
X1115123Y-380103D01*
X1130623Y-380103D01*
X1130623Y-387436D01*
G37*
G54D19*
G36*
X1173742Y-374438D02*
X1173742Y-358938D01*
X1181075Y-358938D01*
X1181075Y-374438D01*
X1173742Y-374438D01*
G37*
G36*
X1177408Y-370772D02*
X1192908Y-370772D01*
X1192908Y-378105D01*
X1177408Y-378105D01*
X1177408Y-370772D01*
G37*
G36*
X1181075Y-374438D02*
X1181075Y-389938D01*
X1173742Y-389938D01*
X1173742Y-374438D01*
X1181075Y-374438D01*
G37*
G36*
X1177408Y-378105D02*
X1161908Y-378105D01*
X1161908Y-370772D01*
X1177408Y-370772D01*
X1177408Y-378105D01*
G37*
G54D18*
G36*
X1055643Y-597299D02*
X1055643Y-578799D01*
X1064977Y-578799D01*
X1064977Y-597299D01*
X1055643Y-597299D01*
G37*
G36*
X1060310Y-592632D02*
X1092810Y-592632D01*
X1092810Y-601966D01*
X1060310Y-601966D01*
X1060310Y-592632D01*
G37*
G36*
X1064977Y-597299D02*
X1064977Y-615799D01*
X1055643Y-615799D01*
X1055643Y-597299D01*
X1064977Y-597299D01*
G37*
G36*
X1060310Y-601966D02*
X1027810Y-601966D01*
X1027810Y-592632D01*
X1060310Y-592632D01*
X1060310Y-601966D01*
G37*
G54D19*
G36*
X218583Y-517400D02*
X218583Y-501900D01*
X225917Y-501900D01*
X225917Y-517400D01*
X218583Y-517400D01*
G37*
G36*
X222250Y-513733D02*
X237750Y-513733D01*
X237750Y-521067D01*
X222250Y-521067D01*
X222250Y-513733D01*
G37*
G36*
X225917Y-517400D02*
X225917Y-532900D01*
X218583Y-532900D01*
X218583Y-517400D01*
X225917Y-517400D01*
G37*
G36*
X222250Y-521067D02*
X206750Y-521067D01*
X206750Y-513733D01*
X222250Y-513733D01*
X222250Y-521067D01*
G37*
G54D19*
G36*
X409083Y-599950D02*
X409083Y-584450D01*
X416417Y-584450D01*
X416417Y-599950D01*
X409083Y-599950D01*
G37*
G36*
X412750Y-596283D02*
X428250Y-596283D01*
X428250Y-603617D01*
X412750Y-603617D01*
X412750Y-596283D01*
G37*
G36*
X416417Y-599950D02*
X416417Y-615450D01*
X409083Y-615450D01*
X409083Y-599950D01*
X416417Y-599950D01*
G37*
G36*
X412750Y-603617D02*
X397250Y-603617D01*
X397250Y-596283D01*
X412750Y-596283D01*
X412750Y-603617D01*
G37*
G54D19*
G36*
X713883Y-606300D02*
X713883Y-590800D01*
X721217Y-590800D01*
X721217Y-606300D01*
X713883Y-606300D01*
G37*
G36*
X717550Y-602633D02*
X733050Y-602633D01*
X733050Y-609967D01*
X717550Y-609967D01*
X717550Y-602633D01*
G37*
G36*
X721217Y-606300D02*
X721217Y-621800D01*
X713883Y-621800D01*
X713883Y-606300D01*
X721217Y-606300D01*
G37*
G36*
X717550Y-609967D02*
X702050Y-609967D01*
X702050Y-602633D01*
X717550Y-602633D01*
X717550Y-609967D01*
G37*
G54D19*
G36*
X847233Y-619000D02*
X847233Y-603500D01*
X854567Y-603500D01*
X854567Y-619000D01*
X847233Y-619000D01*
G37*
G36*
X850900Y-615333D02*
X866400Y-615333D01*
X866400Y-622667D01*
X850900Y-622667D01*
X850900Y-615333D01*
G37*
G36*
X854567Y-619000D02*
X854567Y-634500D01*
X847233Y-634500D01*
X847233Y-619000D01*
X854567Y-619000D01*
G37*
G36*
X850900Y-622667D02*
X835400Y-622667D01*
X835400Y-615333D01*
X850900Y-615333D01*
X850900Y-622667D01*
G37*
G54D18*
G36*
X1683Y-596776D02*
X1683Y-578276D01*
X11017Y-578276D01*
X11017Y-596776D01*
X1683Y-596776D01*
G37*
G36*
X6350Y-592109D02*
X38850Y-592109D01*
X38850Y-601443D01*
X6350Y-601443D01*
X6350Y-592109D01*
G37*
G36*
X11017Y-596776D02*
X11017Y-615276D01*
X1683Y-615276D01*
X1683Y-596776D01*
X11017Y-596776D01*
G37*
G36*
X6350Y-601443D02*
X-26150Y-601443D01*
X-26150Y-592109D01*
X6350Y-592109D01*
X6350Y-601443D01*
G37*
G54D20*
G36*
X-69527Y-580070D02*
X-55027Y-580070D01*
X-55027Y-593870D01*
X-69527Y-593870D01*
X-69527Y-580070D01*
G37*
G36*
X-62627Y-586970D02*
X-62627Y-601470D01*
X-76427Y-601470D01*
X-76427Y-586970D01*
X-62627Y-586970D01*
G37*
G36*
X-69527Y-593870D02*
X-84027Y-593870D01*
X-84027Y-580070D01*
X-69527Y-580070D01*
X-69527Y-593870D01*
G37*
G36*
X-76427Y-586970D02*
X-76427Y-572470D01*
X-62627Y-572470D01*
X-62627Y-586970D01*
X-76427Y-586970D01*
G37*
G54D20*
G36*
X1130623Y-580070D02*
X1145123Y-580070D01*
X1145123Y-593870D01*
X1130623Y-593870D01*
X1130623Y-580070D01*
G37*
G36*
X1137523Y-586970D02*
X1137523Y-601470D01*
X1123723Y-601470D01*
X1123723Y-586970D01*
X1137523Y-586970D01*
G37*
G36*
X1130623Y-593870D02*
X1116123Y-593870D01*
X1116123Y-580070D01*
X1130623Y-580070D01*
X1130623Y-593870D01*
G37*
G36*
X1123723Y-586970D02*
X1123723Y-572470D01*
X1137523Y-572470D01*
X1137523Y-586970D01*
X1123723Y-586970D01*
G37*
G54D19*
G36*
X-73194Y-586970D02*
X-73194Y-571470D01*
X-65860Y-571470D01*
X-65860Y-586970D01*
X-73194Y-586970D01*
G37*
G36*
X-69527Y-583303D02*
X-54027Y-583303D01*
X-54027Y-590636D01*
X-69527Y-590636D01*
X-69527Y-583303D01*
G37*
G36*
X-65860Y-586970D02*
X-65860Y-602470D01*
X-73194Y-602470D01*
X-73194Y-586970D01*
X-65860Y-586970D01*
G37*
G36*
X-69527Y-590636D02*
X-85027Y-590636D01*
X-85027Y-583303D01*
X-69527Y-583303D01*
X-69527Y-590636D01*
G37*
G54D19*
G36*
X-115308Y-564938D02*
X-115308Y-549438D01*
X-107975Y-549438D01*
X-107975Y-564938D01*
X-115308Y-564938D01*
G37*
G36*
X-111642Y-561272D02*
X-96142Y-561272D01*
X-96142Y-568605D01*
X-111642Y-568605D01*
X-111642Y-561272D01*
G37*
G36*
X-107975Y-564938D02*
X-107975Y-580438D01*
X-115308Y-580438D01*
X-115308Y-564938D01*
X-107975Y-564938D01*
G37*
G36*
X-111642Y-568605D02*
X-127142Y-568605D01*
X-127142Y-561272D01*
X-111642Y-561272D01*
X-111642Y-568605D01*
G37*
G54D19*
G36*
X1126956Y-586970D02*
X1126956Y-571470D01*
X1134290Y-571470D01*
X1134290Y-586970D01*
X1126956Y-586970D01*
G37*
G36*
X1130623Y-583303D02*
X1146123Y-583303D01*
X1146123Y-590636D01*
X1130623Y-590636D01*
X1130623Y-583303D01*
G37*
G36*
X1134290Y-586970D02*
X1134290Y-602470D01*
X1126956Y-602470D01*
X1126956Y-586970D01*
X1134290Y-586970D01*
G37*
G36*
X1130623Y-590636D02*
X1115123Y-590636D01*
X1115123Y-583303D01*
X1130623Y-583303D01*
X1130623Y-590636D01*
G37*
G54D19*
G36*
X1173742Y-577638D02*
X1173742Y-562138D01*
X1181075Y-562138D01*
X1181075Y-577638D01*
X1173742Y-577638D01*
G37*
G36*
X1177408Y-573972D02*
X1192908Y-573972D01*
X1192908Y-581305D01*
X1177408Y-581305D01*
X1177408Y-573972D01*
G37*
G36*
X1181075Y-577638D02*
X1181075Y-593138D01*
X1173742Y-593138D01*
X1173742Y-577638D01*
X1181075Y-577638D01*
G37*
G36*
X1177408Y-581305D02*
X1161908Y-581305D01*
X1161908Y-573972D01*
X1177408Y-573972D01*
X1177408Y-581305D01*
G37*
G54D18*
G36*
X1055643Y-800499D02*
X1055643Y-781999D01*
X1064977Y-781999D01*
X1064977Y-800499D01*
X1055643Y-800499D01*
G37*
G36*
X1060310Y-795832D02*
X1092810Y-795832D01*
X1092810Y-805166D01*
X1060310Y-805166D01*
X1060310Y-795832D01*
G37*
G36*
X1064977Y-800499D02*
X1064977Y-818999D01*
X1055643Y-818999D01*
X1055643Y-800499D01*
X1064977Y-800499D01*
G37*
G36*
X1060310Y-805166D02*
X1027810Y-805166D01*
X1027810Y-795832D01*
X1060310Y-795832D01*
X1060310Y-805166D01*
G37*
G54D19*
G36*
X218583Y-720600D02*
X218583Y-705100D01*
X225917Y-705100D01*
X225917Y-720600D01*
X218583Y-720600D01*
G37*
G36*
X222250Y-716933D02*
X237750Y-716933D01*
X237750Y-724267D01*
X222250Y-724267D01*
X222250Y-716933D01*
G37*
G36*
X225917Y-720600D02*
X225917Y-736100D01*
X218583Y-736100D01*
X218583Y-720600D01*
X225917Y-720600D01*
G37*
G36*
X222250Y-724267D02*
X206750Y-724267D01*
X206750Y-716933D01*
X222250Y-716933D01*
X222250Y-724267D01*
G37*
G54D19*
G36*
X409083Y-803150D02*
X409083Y-787650D01*
X416417Y-787650D01*
X416417Y-803150D01*
X409083Y-803150D01*
G37*
G36*
X412750Y-799483D02*
X428250Y-799483D01*
X428250Y-806817D01*
X412750Y-806817D01*
X412750Y-799483D01*
G37*
G36*
X416417Y-803150D02*
X416417Y-818650D01*
X409083Y-818650D01*
X409083Y-803150D01*
X416417Y-803150D01*
G37*
G36*
X412750Y-806817D02*
X397250Y-806817D01*
X397250Y-799483D01*
X412750Y-799483D01*
X412750Y-806817D01*
G37*
G54D19*
G36*
X713883Y-809500D02*
X713883Y-794000D01*
X721217Y-794000D01*
X721217Y-809500D01*
X713883Y-809500D01*
G37*
G36*
X717550Y-805833D02*
X733050Y-805833D01*
X733050Y-813167D01*
X717550Y-813167D01*
X717550Y-805833D01*
G37*
G36*
X721217Y-809500D02*
X721217Y-825000D01*
X713883Y-825000D01*
X713883Y-809500D01*
X721217Y-809500D01*
G37*
G36*
X717550Y-813167D02*
X702050Y-813167D01*
X702050Y-805833D01*
X717550Y-805833D01*
X717550Y-813167D01*
G37*
G54D19*
G36*
X847233Y-822200D02*
X847233Y-806700D01*
X854567Y-806700D01*
X854567Y-822200D01*
X847233Y-822200D01*
G37*
G36*
X850900Y-818533D02*
X866400Y-818533D01*
X866400Y-825867D01*
X850900Y-825867D01*
X850900Y-818533D01*
G37*
G36*
X854567Y-822200D02*
X854567Y-837700D01*
X847233Y-837700D01*
X847233Y-822200D01*
X854567Y-822200D01*
G37*
G36*
X850900Y-825867D02*
X835400Y-825867D01*
X835400Y-818533D01*
X850900Y-818533D01*
X850900Y-825867D01*
G37*
G54D18*
G36*
X1683Y-799976D02*
X1683Y-781476D01*
X11017Y-781476D01*
X11017Y-799976D01*
X1683Y-799976D01*
G37*
G36*
X6350Y-795309D02*
X38850Y-795309D01*
X38850Y-804643D01*
X6350Y-804643D01*
X6350Y-795309D01*
G37*
G36*
X11017Y-799976D02*
X11017Y-818476D01*
X1683Y-818476D01*
X1683Y-799976D01*
X11017Y-799976D01*
G37*
G36*
X6350Y-804643D02*
X-26150Y-804643D01*
X-26150Y-795309D01*
X6350Y-795309D01*
X6350Y-804643D01*
G37*
G54D20*
G36*
X-69527Y-783270D02*
X-55027Y-783270D01*
X-55027Y-797070D01*
X-69527Y-797070D01*
X-69527Y-783270D01*
G37*
G36*
X-62627Y-790170D02*
X-62627Y-804670D01*
X-76427Y-804670D01*
X-76427Y-790170D01*
X-62627Y-790170D01*
G37*
G36*
X-69527Y-797070D02*
X-84027Y-797070D01*
X-84027Y-783270D01*
X-69527Y-783270D01*
X-69527Y-797070D01*
G37*
G36*
X-76427Y-790170D02*
X-76427Y-775670D01*
X-62627Y-775670D01*
X-62627Y-790170D01*
X-76427Y-790170D01*
G37*
G54D20*
G36*
X1130623Y-783270D02*
X1145123Y-783270D01*
X1145123Y-797070D01*
X1130623Y-797070D01*
X1130623Y-783270D01*
G37*
G36*
X1137523Y-790170D02*
X1137523Y-804670D01*
X1123723Y-804670D01*
X1123723Y-790170D01*
X1137523Y-790170D01*
G37*
G36*
X1130623Y-797070D02*
X1116123Y-797070D01*
X1116123Y-783270D01*
X1130623Y-783270D01*
X1130623Y-797070D01*
G37*
G36*
X1123723Y-790170D02*
X1123723Y-775670D01*
X1137523Y-775670D01*
X1137523Y-790170D01*
X1123723Y-790170D01*
G37*
G54D19*
G36*
X-73194Y-790170D02*
X-73194Y-774670D01*
X-65860Y-774670D01*
X-65860Y-790170D01*
X-73194Y-790170D01*
G37*
G36*
X-69527Y-786503D02*
X-54027Y-786503D01*
X-54027Y-793836D01*
X-69527Y-793836D01*
X-69527Y-786503D01*
G37*
G36*
X-65860Y-790170D02*
X-65860Y-805670D01*
X-73194Y-805670D01*
X-73194Y-790170D01*
X-65860Y-790170D01*
G37*
G36*
X-69527Y-793836D02*
X-85027Y-793836D01*
X-85027Y-786503D01*
X-69527Y-786503D01*
X-69527Y-793836D01*
G37*
G54D19*
G36*
X-115308Y-768138D02*
X-115308Y-752638D01*
X-107975Y-752638D01*
X-107975Y-768138D01*
X-115308Y-768138D01*
G37*
G36*
X-111642Y-764472D02*
X-96142Y-764472D01*
X-96142Y-771805D01*
X-111642Y-771805D01*
X-111642Y-764472D01*
G37*
G36*
X-107975Y-768138D02*
X-107975Y-783638D01*
X-115308Y-783638D01*
X-115308Y-768138D01*
X-107975Y-768138D01*
G37*
G36*
X-111642Y-771805D02*
X-127142Y-771805D01*
X-127142Y-764472D01*
X-111642Y-764472D01*
X-111642Y-771805D01*
G37*
G54D19*
G36*
X1126956Y-790170D02*
X1126956Y-774670D01*
X1134290Y-774670D01*
X1134290Y-790170D01*
X1126956Y-790170D01*
G37*
G36*
X1130623Y-786503D02*
X1146123Y-786503D01*
X1146123Y-793836D01*
X1130623Y-793836D01*
X1130623Y-786503D01*
G37*
G36*
X1134290Y-790170D02*
X1134290Y-805670D01*
X1126956Y-805670D01*
X1126956Y-790170D01*
X1134290Y-790170D01*
G37*
G36*
X1130623Y-793836D02*
X1115123Y-793836D01*
X1115123Y-786503D01*
X1130623Y-786503D01*
X1130623Y-793836D01*
G37*
G54D19*
G36*
X1173742Y-780838D02*
X1173742Y-765338D01*
X1181075Y-765338D01*
X1181075Y-780838D01*
X1173742Y-780838D01*
G37*
G36*
X1177408Y-777172D02*
X1192908Y-777172D01*
X1192908Y-784505D01*
X1177408Y-784505D01*
X1177408Y-777172D01*
G37*
G36*
X1181075Y-780838D02*
X1181075Y-796338D01*
X1173742Y-796338D01*
X1173742Y-780838D01*
X1181075Y-780838D01*
G37*
G36*
X1177408Y-784505D02*
X1161908Y-784505D01*
X1161908Y-777172D01*
X1177408Y-777172D01*
X1177408Y-784505D01*
G37*
G54D18*
G36*
X1055643Y-1003699D02*
X1055643Y-985199D01*
X1064977Y-985199D01*
X1064977Y-1003699D01*
X1055643Y-1003699D01*
G37*
G36*
X1060310Y-999032D02*
X1092810Y-999032D01*
X1092810Y-1008366D01*
X1060310Y-1008366D01*
X1060310Y-999032D01*
G37*
G36*
X1064977Y-1003699D02*
X1064977Y-1022199D01*
X1055643Y-1022199D01*
X1055643Y-1003699D01*
X1064977Y-1003699D01*
G37*
G36*
X1060310Y-1008366D02*
X1027810Y-1008366D01*
X1027810Y-999032D01*
X1060310Y-999032D01*
X1060310Y-1008366D01*
G37*
G54D19*
G36*
X218583Y-923800D02*
X218583Y-908300D01*
X225917Y-908300D01*
X225917Y-923800D01*
X218583Y-923800D01*
G37*
G36*
X222250Y-920133D02*
X237750Y-920133D01*
X237750Y-927467D01*
X222250Y-927467D01*
X222250Y-920133D01*
G37*
G36*
X225917Y-923800D02*
X225917Y-939300D01*
X218583Y-939300D01*
X218583Y-923800D01*
X225917Y-923800D01*
G37*
G36*
X222250Y-927467D02*
X206750Y-927467D01*
X206750Y-920133D01*
X222250Y-920133D01*
X222250Y-927467D01*
G37*
G54D19*
G36*
X409083Y-1006350D02*
X409083Y-990850D01*
X416417Y-990850D01*
X416417Y-1006350D01*
X409083Y-1006350D01*
G37*
G36*
X412750Y-1002683D02*
X428250Y-1002683D01*
X428250Y-1010017D01*
X412750Y-1010017D01*
X412750Y-1002683D01*
G37*
G36*
X416417Y-1006350D02*
X416417Y-1021850D01*
X409083Y-1021850D01*
X409083Y-1006350D01*
X416417Y-1006350D01*
G37*
G36*
X412750Y-1010017D02*
X397250Y-1010017D01*
X397250Y-1002683D01*
X412750Y-1002683D01*
X412750Y-1010017D01*
G37*
G54D19*
G36*
X713883Y-1012700D02*
X713883Y-997200D01*
X721217Y-997200D01*
X721217Y-1012700D01*
X713883Y-1012700D01*
G37*
G36*
X717550Y-1009033D02*
X733050Y-1009033D01*
X733050Y-1016367D01*
X717550Y-1016367D01*
X717550Y-1009033D01*
G37*
G36*
X721217Y-1012700D02*
X721217Y-1028200D01*
X713883Y-1028200D01*
X713883Y-1012700D01*
X721217Y-1012700D01*
G37*
G36*
X717550Y-1016367D02*
X702050Y-1016367D01*
X702050Y-1009033D01*
X717550Y-1009033D01*
X717550Y-1016367D01*
G37*
G54D19*
G36*
X847233Y-1025400D02*
X847233Y-1009900D01*
X854567Y-1009900D01*
X854567Y-1025400D01*
X847233Y-1025400D01*
G37*
G36*
X850900Y-1021733D02*
X866400Y-1021733D01*
X866400Y-1029067D01*
X850900Y-1029067D01*
X850900Y-1021733D01*
G37*
G36*
X854567Y-1025400D02*
X854567Y-1040900D01*
X847233Y-1040900D01*
X847233Y-1025400D01*
X854567Y-1025400D01*
G37*
G36*
X850900Y-1029067D02*
X835400Y-1029067D01*
X835400Y-1021733D01*
X850900Y-1021733D01*
X850900Y-1029067D01*
G37*
G54D18*
G36*
X1683Y-1003176D02*
X1683Y-984676D01*
X11017Y-984676D01*
X11017Y-1003176D01*
X1683Y-1003176D01*
G37*
G36*
X6350Y-998509D02*
X38850Y-998509D01*
X38850Y-1007843D01*
X6350Y-1007843D01*
X6350Y-998509D01*
G37*
G36*
X11017Y-1003176D02*
X11017Y-1021676D01*
X1683Y-1021676D01*
X1683Y-1003176D01*
X11017Y-1003176D01*
G37*
G36*
X6350Y-1007843D02*
X-26150Y-1007843D01*
X-26150Y-998509D01*
X6350Y-998509D01*
X6350Y-1007843D01*
G37*
G54D20*
G36*
X-69527Y-986470D02*
X-55027Y-986470D01*
X-55027Y-1000270D01*
X-69527Y-1000270D01*
X-69527Y-986470D01*
G37*
G36*
X-62627Y-993370D02*
X-62627Y-1007870D01*
X-76427Y-1007870D01*
X-76427Y-993370D01*
X-62627Y-993370D01*
G37*
G36*
X-69527Y-1000270D02*
X-84027Y-1000270D01*
X-84027Y-986470D01*
X-69527Y-986470D01*
X-69527Y-1000270D01*
G37*
G36*
X-76427Y-993370D02*
X-76427Y-978870D01*
X-62627Y-978870D01*
X-62627Y-993370D01*
X-76427Y-993370D01*
G37*
G54D20*
G36*
X1130623Y-986470D02*
X1145123Y-986470D01*
X1145123Y-1000270D01*
X1130623Y-1000270D01*
X1130623Y-986470D01*
G37*
G36*
X1137523Y-993370D02*
X1137523Y-1007870D01*
X1123723Y-1007870D01*
X1123723Y-993370D01*
X1137523Y-993370D01*
G37*
G36*
X1130623Y-1000270D02*
X1116123Y-1000270D01*
X1116123Y-986470D01*
X1130623Y-986470D01*
X1130623Y-1000270D01*
G37*
G36*
X1123723Y-993370D02*
X1123723Y-978870D01*
X1137523Y-978870D01*
X1137523Y-993370D01*
X1123723Y-993370D01*
G37*
G54D19*
G36*
X-73194Y-993370D02*
X-73194Y-977870D01*
X-65860Y-977870D01*
X-65860Y-993370D01*
X-73194Y-993370D01*
G37*
G36*
X-69527Y-989703D02*
X-54027Y-989703D01*
X-54027Y-997036D01*
X-69527Y-997036D01*
X-69527Y-989703D01*
G37*
G36*
X-65860Y-993370D02*
X-65860Y-1008870D01*
X-73194Y-1008870D01*
X-73194Y-993370D01*
X-65860Y-993370D01*
G37*
G36*
X-69527Y-997036D02*
X-85027Y-997036D01*
X-85027Y-989703D01*
X-69527Y-989703D01*
X-69527Y-997036D01*
G37*
G54D19*
G36*
X-115308Y-971338D02*
X-115308Y-955838D01*
X-107975Y-955838D01*
X-107975Y-971338D01*
X-115308Y-971338D01*
G37*
G36*
X-111642Y-967672D02*
X-96142Y-967672D01*
X-96142Y-975005D01*
X-111642Y-975005D01*
X-111642Y-967672D01*
G37*
G36*
X-107975Y-971338D02*
X-107975Y-986838D01*
X-115308Y-986838D01*
X-115308Y-971338D01*
X-107975Y-971338D01*
G37*
G36*
X-111642Y-975005D02*
X-127142Y-975005D01*
X-127142Y-967672D01*
X-111642Y-967672D01*
X-111642Y-975005D01*
G37*
G54D19*
G36*
X1126956Y-993370D02*
X1126956Y-977870D01*
X1134290Y-977870D01*
X1134290Y-993370D01*
X1126956Y-993370D01*
G37*
G36*
X1130623Y-989703D02*
X1146123Y-989703D01*
X1146123Y-997036D01*
X1130623Y-997036D01*
X1130623Y-989703D01*
G37*
G36*
X1134290Y-993370D02*
X1134290Y-1008870D01*
X1126956Y-1008870D01*
X1126956Y-993370D01*
X1134290Y-993370D01*
G37*
G36*
X1130623Y-997036D02*
X1115123Y-997036D01*
X1115123Y-989703D01*
X1130623Y-989703D01*
X1130623Y-997036D01*
G37*
G54D19*
G36*
X1173742Y-984038D02*
X1173742Y-968538D01*
X1181075Y-968538D01*
X1181075Y-984038D01*
X1173742Y-984038D01*
G37*
G36*
X1177408Y-980372D02*
X1192908Y-980372D01*
X1192908Y-987705D01*
X1177408Y-987705D01*
X1177408Y-980372D01*
G37*
G36*
X1181075Y-984038D02*
X1181075Y-999538D01*
X1173742Y-999538D01*
X1173742Y-984038D01*
X1181075Y-984038D01*
G37*
G36*
X1177408Y-987705D02*
X1161908Y-987705D01*
X1161908Y-980372D01*
X1177408Y-980372D01*
X1177408Y-987705D01*
G37*
G54D18*
G36*
X1055643Y-1206899D02*
X1055643Y-1188399D01*
X1064977Y-1188399D01*
X1064977Y-1206899D01*
X1055643Y-1206899D01*
G37*
G36*
X1060310Y-1202232D02*
X1092810Y-1202232D01*
X1092810Y-1211566D01*
X1060310Y-1211566D01*
X1060310Y-1202232D01*
G37*
G36*
X1064977Y-1206899D02*
X1064977Y-1225399D01*
X1055643Y-1225399D01*
X1055643Y-1206899D01*
X1064977Y-1206899D01*
G37*
G36*
X1060310Y-1211566D02*
X1027810Y-1211566D01*
X1027810Y-1202232D01*
X1060310Y-1202232D01*
X1060310Y-1211566D01*
G37*
G54D19*
G36*
X218583Y-1127000D02*
X218583Y-1111500D01*
X225917Y-1111500D01*
X225917Y-1127000D01*
X218583Y-1127000D01*
G37*
G36*
X222250Y-1123333D02*
X237750Y-1123333D01*
X237750Y-1130667D01*
X222250Y-1130667D01*
X222250Y-1123333D01*
G37*
G36*
X225917Y-1127000D02*
X225917Y-1142500D01*
X218583Y-1142500D01*
X218583Y-1127000D01*
X225917Y-1127000D01*
G37*
G36*
X222250Y-1130667D02*
X206750Y-1130667D01*
X206750Y-1123333D01*
X222250Y-1123333D01*
X222250Y-1130667D01*
G37*
G54D19*
G36*
X409083Y-1209550D02*
X409083Y-1194050D01*
X416417Y-1194050D01*
X416417Y-1209550D01*
X409083Y-1209550D01*
G37*
G36*
X412750Y-1205883D02*
X428250Y-1205883D01*
X428250Y-1213217D01*
X412750Y-1213217D01*
X412750Y-1205883D01*
G37*
G36*
X416417Y-1209550D02*
X416417Y-1225050D01*
X409083Y-1225050D01*
X409083Y-1209550D01*
X416417Y-1209550D01*
G37*
G36*
X412750Y-1213217D02*
X397250Y-1213217D01*
X397250Y-1205883D01*
X412750Y-1205883D01*
X412750Y-1213217D01*
G37*
G54D19*
G36*
X713883Y-1215900D02*
X713883Y-1200400D01*
X721217Y-1200400D01*
X721217Y-1215900D01*
X713883Y-1215900D01*
G37*
G36*
X717550Y-1212233D02*
X733050Y-1212233D01*
X733050Y-1219567D01*
X717550Y-1219567D01*
X717550Y-1212233D01*
G37*
G36*
X721217Y-1215900D02*
X721217Y-1231400D01*
X713883Y-1231400D01*
X713883Y-1215900D01*
X721217Y-1215900D01*
G37*
G36*
X717550Y-1219567D02*
X702050Y-1219567D01*
X702050Y-1212233D01*
X717550Y-1212233D01*
X717550Y-1219567D01*
G37*
G54D19*
G36*
X847233Y-1228600D02*
X847233Y-1213100D01*
X854567Y-1213100D01*
X854567Y-1228600D01*
X847233Y-1228600D01*
G37*
G36*
X850900Y-1224933D02*
X866400Y-1224933D01*
X866400Y-1232267D01*
X850900Y-1232267D01*
X850900Y-1224933D01*
G37*
G36*
X854567Y-1228600D02*
X854567Y-1244100D01*
X847233Y-1244100D01*
X847233Y-1228600D01*
X854567Y-1228600D01*
G37*
G36*
X850900Y-1232267D02*
X835400Y-1232267D01*
X835400Y-1224933D01*
X850900Y-1224933D01*
X850900Y-1232267D01*
G37*
G54D18*
G36*
X1683Y-1206376D02*
X1683Y-1187876D01*
X11017Y-1187876D01*
X11017Y-1206376D01*
X1683Y-1206376D01*
G37*
G36*
X6350Y-1201709D02*
X38850Y-1201709D01*
X38850Y-1211043D01*
X6350Y-1211043D01*
X6350Y-1201709D01*
G37*
G36*
X11017Y-1206376D02*
X11017Y-1224876D01*
X1683Y-1224876D01*
X1683Y-1206376D01*
X11017Y-1206376D01*
G37*
G36*
X6350Y-1211043D02*
X-26150Y-1211043D01*
X-26150Y-1201709D01*
X6350Y-1201709D01*
X6350Y-1211043D01*
G37*
G54D20*
G36*
X-69527Y-1189670D02*
X-55027Y-1189670D01*
X-55027Y-1203470D01*
X-69527Y-1203470D01*
X-69527Y-1189670D01*
G37*
G36*
X-62627Y-1196570D02*
X-62627Y-1211070D01*
X-76427Y-1211070D01*
X-76427Y-1196570D01*
X-62627Y-1196570D01*
G37*
G36*
X-69527Y-1203470D02*
X-84027Y-1203470D01*
X-84027Y-1189670D01*
X-69527Y-1189670D01*
X-69527Y-1203470D01*
G37*
G36*
X-76427Y-1196570D02*
X-76427Y-1182070D01*
X-62627Y-1182070D01*
X-62627Y-1196570D01*
X-76427Y-1196570D01*
G37*
G54D20*
G36*
X1130623Y-1189670D02*
X1145123Y-1189670D01*
X1145123Y-1203470D01*
X1130623Y-1203470D01*
X1130623Y-1189670D01*
G37*
G36*
X1137523Y-1196570D02*
X1137523Y-1211070D01*
X1123723Y-1211070D01*
X1123723Y-1196570D01*
X1137523Y-1196570D01*
G37*
G36*
X1130623Y-1203470D02*
X1116123Y-1203470D01*
X1116123Y-1189670D01*
X1130623Y-1189670D01*
X1130623Y-1203470D01*
G37*
G36*
X1123723Y-1196570D02*
X1123723Y-1182070D01*
X1137523Y-1182070D01*
X1137523Y-1196570D01*
X1123723Y-1196570D01*
G37*
G54D19*
G36*
X-73194Y-1196570D02*
X-73194Y-1181070D01*
X-65860Y-1181070D01*
X-65860Y-1196570D01*
X-73194Y-1196570D01*
G37*
G36*
X-69527Y-1192903D02*
X-54027Y-1192903D01*
X-54027Y-1200236D01*
X-69527Y-1200236D01*
X-69527Y-1192903D01*
G37*
G36*
X-65860Y-1196570D02*
X-65860Y-1212070D01*
X-73194Y-1212070D01*
X-73194Y-1196570D01*
X-65860Y-1196570D01*
G37*
G36*
X-69527Y-1200236D02*
X-85027Y-1200236D01*
X-85027Y-1192903D01*
X-69527Y-1192903D01*
X-69527Y-1200236D01*
G37*
G54D19*
G36*
X-115308Y-1174538D02*
X-115308Y-1159038D01*
X-107975Y-1159038D01*
X-107975Y-1174538D01*
X-115308Y-1174538D01*
G37*
G36*
X-111642Y-1170872D02*
X-96142Y-1170872D01*
X-96142Y-1178205D01*
X-111642Y-1178205D01*
X-111642Y-1170872D01*
G37*
G36*
X-107975Y-1174538D02*
X-107975Y-1190038D01*
X-115308Y-1190038D01*
X-115308Y-1174538D01*
X-107975Y-1174538D01*
G37*
G36*
X-111642Y-1178205D02*
X-127142Y-1178205D01*
X-127142Y-1170872D01*
X-111642Y-1170872D01*
X-111642Y-1178205D01*
G37*
G54D19*
G36*
X1126956Y-1196570D02*
X1126956Y-1181070D01*
X1134290Y-1181070D01*
X1134290Y-1196570D01*
X1126956Y-1196570D01*
G37*
G36*
X1130623Y-1192903D02*
X1146123Y-1192903D01*
X1146123Y-1200236D01*
X1130623Y-1200236D01*
X1130623Y-1192903D01*
G37*
G36*
X1134290Y-1196570D02*
X1134290Y-1212070D01*
X1126956Y-1212070D01*
X1126956Y-1196570D01*
X1134290Y-1196570D01*
G37*
G36*
X1130623Y-1200236D02*
X1115123Y-1200236D01*
X1115123Y-1192903D01*
X1130623Y-1192903D01*
X1130623Y-1200236D01*
G37*
G54D19*
G36*
X1173742Y-1187238D02*
X1173742Y-1171738D01*
X1181075Y-1171738D01*
X1181075Y-1187238D01*
X1173742Y-1187238D01*
G37*
G36*
X1177408Y-1183572D02*
X1192908Y-1183572D01*
X1192908Y-1190905D01*
X1177408Y-1190905D01*
X1177408Y-1183572D01*
G37*
G36*
X1181075Y-1187238D02*
X1181075Y-1202738D01*
X1173742Y-1202738D01*
X1173742Y-1187238D01*
X1181075Y-1187238D01*
G37*
G36*
X1177408Y-1190905D02*
X1161908Y-1190905D01*
X1161908Y-1183572D01*
X1177408Y-1183572D01*
X1177408Y-1190905D01*
G37*
G54D19*
G36*
X459883Y79500D02*
X459883Y95000D01*
X467217Y95000D01*
X467217Y79500D01*
X459883Y79500D01*
G37*
G36*
X463550Y83167D02*
X479050Y83167D01*
X479050Y75833D01*
X463550Y75833D01*
X463550Y83167D01*
G37*
G36*
X467217Y79500D02*
X467217Y64000D01*
X459883Y64000D01*
X459883Y79500D01*
X467217Y79500D01*
G37*
G36*
X463550Y75833D02*
X448050Y75833D01*
X448050Y83167D01*
X463550Y83167D01*
X463550Y75833D01*
G37*
G54D19*
G36*
X1244083Y-533300D02*
X1244083Y-517800D01*
X1251417Y-517800D01*
X1251417Y-533300D01*
X1244083Y-533300D01*
G37*
G36*
X1247750Y-529634D02*
X1263250Y-529634D01*
X1263250Y-536966D01*
X1247750Y-536966D01*
X1247750Y-529634D01*
G37*
G36*
X1251417Y-533300D02*
X1251417Y-548800D01*
X1244083Y-548800D01*
X1244083Y-533300D01*
X1251417Y-533300D01*
G37*
G36*
X1247750Y-536966D02*
X1232250Y-536966D01*
X1232250Y-529634D01*
X1247750Y-529634D01*
X1247750Y-536966D01*
G37*
G54D19*
G36*
X1294883Y-533300D02*
X1294883Y-517800D01*
X1302217Y-517800D01*
X1302217Y-533300D01*
X1294883Y-533300D01*
G37*
G36*
X1298550Y-529634D02*
X1314050Y-529634D01*
X1314050Y-536966D01*
X1298550Y-536966D01*
X1298550Y-529634D01*
G37*
G36*
X1302217Y-533300D02*
X1302217Y-548800D01*
X1294883Y-548800D01*
X1294883Y-533300D01*
X1302217Y-533300D01*
G37*
G36*
X1298550Y-536966D02*
X1283050Y-536966D01*
X1283050Y-529634D01*
X1298550Y-529634D01*
X1298550Y-536966D01*
G37*
G54D19*
G36*
X1294883Y-584100D02*
X1294883Y-568600D01*
X1302217Y-568600D01*
X1302217Y-584100D01*
X1294883Y-584100D01*
G37*
G36*
X1298550Y-580434D02*
X1314050Y-580434D01*
X1314050Y-587766D01*
X1298550Y-587766D01*
X1298550Y-580434D01*
G37*
G36*
X1302217Y-584100D02*
X1302217Y-599600D01*
X1294883Y-599600D01*
X1294883Y-584100D01*
X1302217Y-584100D01*
G37*
G36*
X1298550Y-587766D02*
X1283050Y-587766D01*
X1283050Y-580434D01*
X1298550Y-580434D01*
X1298550Y-587766D01*
G37*
G54D19*
G36*
X1244083Y-584100D02*
X1244083Y-568600D01*
X1251417Y-568600D01*
X1251417Y-584100D01*
X1244083Y-584100D01*
G37*
G36*
X1247750Y-580434D02*
X1263250Y-580434D01*
X1263250Y-587766D01*
X1247750Y-587766D01*
X1247750Y-580434D01*
G37*
G36*
X1251417Y-584100D02*
X1251417Y-599600D01*
X1244083Y-599600D01*
X1244083Y-584100D01*
X1251417Y-584100D01*
G37*
G36*
X1247750Y-587766D02*
X1232250Y-587766D01*
X1232250Y-580434D01*
X1247750Y-580434D01*
X1247750Y-587766D01*
G37*
G54D19*
G36*
X-232292Y-538062D02*
X-232292Y-522562D01*
X-224958Y-522562D01*
X-224958Y-538062D01*
X-232292Y-538062D01*
G37*
G36*
X-228625Y-534396D02*
X-213125Y-534396D01*
X-213125Y-541729D01*
X-228625Y-541729D01*
X-228625Y-534396D01*
G37*
G36*
X-224958Y-538062D02*
X-224958Y-553562D01*
X-232292Y-553562D01*
X-232292Y-538062D01*
X-224958Y-538062D01*
G37*
G36*
X-228625Y-541729D02*
X-244125Y-541729D01*
X-244125Y-534396D01*
X-228625Y-534396D01*
X-228625Y-541729D01*
G37*
G54D19*
G36*
X-181492Y-538062D02*
X-181492Y-522562D01*
X-174158Y-522562D01*
X-174158Y-538062D01*
X-181492Y-538062D01*
G37*
G36*
X-177825Y-534396D02*
X-162325Y-534396D01*
X-162325Y-541729D01*
X-177825Y-541729D01*
X-177825Y-534396D01*
G37*
G36*
X-174158Y-538062D02*
X-174158Y-553562D01*
X-181492Y-553562D01*
X-181492Y-538062D01*
X-174158Y-538062D01*
G37*
G36*
X-177825Y-541729D02*
X-193325Y-541729D01*
X-193325Y-534396D01*
X-177825Y-534396D01*
X-177825Y-541729D01*
G37*
G54D19*
G36*
X-181492Y-588862D02*
X-181492Y-573362D01*
X-174158Y-573362D01*
X-174158Y-588862D01*
X-181492Y-588862D01*
G37*
G36*
X-177825Y-585196D02*
X-162325Y-585196D01*
X-162325Y-592529D01*
X-177825Y-592529D01*
X-177825Y-585196D01*
G37*
G36*
X-174158Y-588862D02*
X-174158Y-604362D01*
X-181492Y-604362D01*
X-181492Y-588862D01*
X-174158Y-588862D01*
G37*
G36*
X-177825Y-592529D02*
X-193325Y-592529D01*
X-193325Y-585196D01*
X-177825Y-585196D01*
X-177825Y-592529D01*
G37*
G54D19*
G36*
X-232292Y-588862D02*
X-232292Y-573362D01*
X-224958Y-573362D01*
X-224958Y-588862D01*
X-232292Y-588862D01*
G37*
G36*
X-228625Y-585196D02*
X-213125Y-585196D01*
X-213125Y-592529D01*
X-228625Y-592529D01*
X-228625Y-585196D01*
G37*
G36*
X-224958Y-588862D02*
X-224958Y-604362D01*
X-232292Y-604362D01*
X-232292Y-588862D01*
X-224958Y-588862D01*
G37*
G36*
X-228625Y-592529D02*
X-244125Y-592529D01*
X-244125Y-585196D01*
X-228625Y-585196D01*
X-228625Y-592529D01*
G37*
X222250Y-111000D02*
G54D21*
D03*
X222250Y-212600D02*
G54D21*
D03*
X361950Y-130050D02*
G54D22*
D03*
X361950Y-41150D02*
G54D22*
D03*
X412750Y-193550D02*
G54D21*
D03*
X311150Y-193550D02*
G54D21*
D03*
X495300Y-130050D02*
G54D22*
D03*
X584200Y-130050D02*
G54D22*
D03*
X717550Y-199900D02*
G54D21*
D03*
X615950Y-199900D02*
G54D21*
D03*
X717550Y-130050D02*
G54D22*
D03*
X717550Y-41150D02*
G54D22*
D03*
X850900Y-111000D02*
G54D21*
D03*
X850900Y-212600D02*
G54D21*
D03*
G36*
X155000Y-207550D02*
X99000Y-207550D01*
X99000Y-179550D01*
X155000Y-179550D01*
X155000Y-207550D01*
G37*
G36*
X34350Y-204376D02*
X-21650Y-204376D01*
X-21650Y-176376D01*
X34350Y-176376D01*
X34350Y-204376D01*
G37*
G36*
X155000Y-86900D02*
X99000Y-86900D01*
X99000Y-58900D01*
X155000Y-58900D01*
X155000Y-86900D01*
G37*
G36*
X34350Y-86900D02*
X-21650Y-86900D01*
X-21650Y-58900D01*
X34350Y-58900D01*
X34350Y-86900D01*
G37*
G36*
X23238Y-147225D02*
X-32762Y-147225D01*
X-32762Y-119225D01*
X23238Y-119225D01*
X23238Y-147225D01*
G37*
G36*
X911660Y-56249D02*
X967660Y-56249D01*
X967660Y-84249D01*
X911660Y-84249D01*
X911660Y-56249D01*
G37*
G36*
X1032310Y-59423D02*
X1088310Y-59423D01*
X1088310Y-87423D01*
X1032310Y-87423D01*
X1032310Y-59423D01*
G37*
G36*
X911660Y-176899D02*
X967660Y-176899D01*
X967660Y-204899D01*
X911660Y-204899D01*
X911660Y-176899D01*
G37*
G36*
X1032310Y-176899D02*
X1088310Y-176899D01*
X1088310Y-204899D01*
X1032310Y-204899D01*
X1032310Y-176899D01*
G37*
G36*
X1043422Y-116574D02*
X1099422Y-116574D01*
X1099422Y-144574D01*
X1043422Y-144574D01*
X1043422Y-116574D01*
G37*
X222250Y-111000D02*
G54D22*
D03*
X412750Y-193550D02*
G54D22*
D03*
X717550Y-199900D02*
G54D22*
D03*
X850900Y-212600D02*
G54D22*
D03*
G36*
X-21650Y-176376D02*
X34350Y-176376D01*
X34350Y-204376D01*
X-21650Y-204376D01*
X-21650Y-176376D01*
G37*
X-111642Y-158538D02*
G54D23*
D03*
X-111754Y-107558D02*
G54D23*
D03*
X-69527Y-180570D02*
G54D24*
D03*
X-69527Y-78970D02*
G54D24*
D03*
X-69527Y-180570D02*
G54D23*
D03*
X1177408Y-171238D02*
G54D23*
D03*
X1177296Y-120258D02*
G54D23*
D03*
X1130623Y-180570D02*
G54D24*
D03*
X1130623Y-78970D02*
G54D24*
D03*
X1130623Y-180570D02*
G54D23*
D03*
X-69527Y-180570D02*
G54D22*
D03*
X-111642Y-158538D02*
G54D22*
D03*
X1130623Y-180570D02*
G54D22*
D03*
X1177408Y-171238D02*
G54D22*
D03*
X222250Y-314200D02*
G54D21*
D03*
X222250Y-415800D02*
G54D21*
D03*
X361950Y-333250D02*
G54D22*
D03*
X361950Y-244350D02*
G54D22*
D03*
X412750Y-396750D02*
G54D21*
D03*
X311150Y-396750D02*
G54D21*
D03*
X495300Y-333250D02*
G54D22*
D03*
X584200Y-333250D02*
G54D22*
D03*
X717550Y-403100D02*
G54D21*
D03*
X615950Y-403100D02*
G54D21*
D03*
X717550Y-333250D02*
G54D22*
D03*
X717550Y-244350D02*
G54D22*
D03*
X850900Y-314200D02*
G54D21*
D03*
X850900Y-415800D02*
G54D21*
D03*
G36*
X155000Y-410750D02*
X99000Y-410750D01*
X99000Y-382750D01*
X155000Y-382750D01*
X155000Y-410750D01*
G37*
G36*
X34350Y-407576D02*
X-21650Y-407576D01*
X-21650Y-379576D01*
X34350Y-379576D01*
X34350Y-407576D01*
G37*
G36*
X155000Y-290100D02*
X99000Y-290100D01*
X99000Y-262100D01*
X155000Y-262100D01*
X155000Y-290100D01*
G37*
G36*
X34350Y-290100D02*
X-21650Y-290100D01*
X-21650Y-262100D01*
X34350Y-262100D01*
X34350Y-290100D01*
G37*
G36*
X23238Y-350425D02*
X-32762Y-350425D01*
X-32762Y-322425D01*
X23238Y-322425D01*
X23238Y-350425D01*
G37*
G36*
X911660Y-259449D02*
X967660Y-259449D01*
X967660Y-287449D01*
X911660Y-287449D01*
X911660Y-259449D01*
G37*
G36*
X1032310Y-262623D02*
X1088310Y-262623D01*
X1088310Y-290623D01*
X1032310Y-290623D01*
X1032310Y-262623D01*
G37*
G36*
X911660Y-380099D02*
X967660Y-380099D01*
X967660Y-408099D01*
X911660Y-408099D01*
X911660Y-380099D01*
G37*
G36*
X1032310Y-380099D02*
X1088310Y-380099D01*
X1088310Y-408099D01*
X1032310Y-408099D01*
X1032310Y-380099D01*
G37*
G36*
X1043422Y-319774D02*
X1099422Y-319774D01*
X1099422Y-347774D01*
X1043422Y-347774D01*
X1043422Y-319774D01*
G37*
X222250Y-314200D02*
G54D22*
D03*
X412750Y-396750D02*
G54D22*
D03*
X717550Y-403100D02*
G54D22*
D03*
X850900Y-415800D02*
G54D22*
D03*
G36*
X-21650Y-379576D02*
X34350Y-379576D01*
X34350Y-407576D01*
X-21650Y-407576D01*
X-21650Y-379576D01*
G37*
X-111642Y-361738D02*
G54D23*
D03*
X-111754Y-310758D02*
G54D23*
D03*
X-69527Y-383770D02*
G54D24*
D03*
X-69527Y-282170D02*
G54D24*
D03*
X-69527Y-383770D02*
G54D23*
D03*
X1177408Y-374438D02*
G54D23*
D03*
X1177296Y-323458D02*
G54D23*
D03*
X1130623Y-383770D02*
G54D24*
D03*
X1130623Y-282170D02*
G54D24*
D03*
X1130623Y-383770D02*
G54D23*
D03*
X-69527Y-383770D02*
G54D22*
D03*
X-111642Y-361738D02*
G54D22*
D03*
X1130623Y-383770D02*
G54D22*
D03*
X1177408Y-374438D02*
G54D22*
D03*
X222250Y-517400D02*
G54D21*
D03*
X222250Y-619000D02*
G54D21*
D03*
X361950Y-536450D02*
G54D22*
D03*
X361950Y-447550D02*
G54D22*
D03*
X412750Y-599950D02*
G54D21*
D03*
X311150Y-599950D02*
G54D21*
D03*
X495300Y-536450D02*
G54D22*
D03*
X584200Y-536450D02*
G54D22*
D03*
X717550Y-606300D02*
G54D21*
D03*
X615950Y-606300D02*
G54D21*
D03*
X717550Y-536450D02*
G54D22*
D03*
X717550Y-447550D02*
G54D22*
D03*
X850900Y-517400D02*
G54D21*
D03*
X850900Y-619000D02*
G54D21*
D03*
G36*
X155000Y-613950D02*
X99000Y-613950D01*
X99000Y-585950D01*
X155000Y-585950D01*
X155000Y-613950D01*
G37*
G36*
X34350Y-610776D02*
X-21650Y-610776D01*
X-21650Y-582776D01*
X34350Y-582776D01*
X34350Y-610776D01*
G37*
G36*
X155000Y-493300D02*
X99000Y-493300D01*
X99000Y-465300D01*
X155000Y-465300D01*
X155000Y-493300D01*
G37*
G36*
X34350Y-493300D02*
X-21650Y-493300D01*
X-21650Y-465300D01*
X34350Y-465300D01*
X34350Y-493300D01*
G37*
G36*
X23238Y-553625D02*
X-32762Y-553625D01*
X-32762Y-525625D01*
X23238Y-525625D01*
X23238Y-553625D01*
G37*
G36*
X911660Y-462649D02*
X967660Y-462649D01*
X967660Y-490649D01*
X911660Y-490649D01*
X911660Y-462649D01*
G37*
G36*
X1032310Y-465823D02*
X1088310Y-465823D01*
X1088310Y-493823D01*
X1032310Y-493823D01*
X1032310Y-465823D01*
G37*
G36*
X911660Y-583299D02*
X967660Y-583299D01*
X967660Y-611299D01*
X911660Y-611299D01*
X911660Y-583299D01*
G37*
G36*
X1032310Y-583299D02*
X1088310Y-583299D01*
X1088310Y-611299D01*
X1032310Y-611299D01*
X1032310Y-583299D01*
G37*
G36*
X1043422Y-522974D02*
X1099422Y-522974D01*
X1099422Y-550974D01*
X1043422Y-550974D01*
X1043422Y-522974D01*
G37*
X222250Y-517400D02*
G54D22*
D03*
X412750Y-599950D02*
G54D22*
D03*
X717550Y-606300D02*
G54D22*
D03*
X850900Y-619000D02*
G54D22*
D03*
G36*
X-21650Y-582776D02*
X34350Y-582776D01*
X34350Y-610776D01*
X-21650Y-610776D01*
X-21650Y-582776D01*
G37*
X-111642Y-564938D02*
G54D23*
D03*
X-111754Y-513958D02*
G54D23*
D03*
X-69527Y-586970D02*
G54D24*
D03*
X-69527Y-485370D02*
G54D24*
D03*
X-69527Y-586970D02*
G54D23*
D03*
X1177408Y-577638D02*
G54D23*
D03*
X1177296Y-526658D02*
G54D23*
D03*
X1130623Y-586970D02*
G54D24*
D03*
X1130623Y-485370D02*
G54D24*
D03*
X1130623Y-586970D02*
G54D23*
D03*
X-69527Y-586970D02*
G54D22*
D03*
X-111642Y-564938D02*
G54D22*
D03*
X1130623Y-586970D02*
G54D22*
D03*
X1177408Y-577638D02*
G54D22*
D03*
X222250Y-720600D02*
G54D21*
D03*
X222250Y-822200D02*
G54D21*
D03*
X361950Y-739650D02*
G54D22*
D03*
X361950Y-650750D02*
G54D22*
D03*
X412750Y-803150D02*
G54D21*
D03*
X311150Y-803150D02*
G54D21*
D03*
X495300Y-739650D02*
G54D22*
D03*
X584200Y-739650D02*
G54D22*
D03*
X717550Y-809500D02*
G54D21*
D03*
X615950Y-809500D02*
G54D21*
D03*
X717550Y-739650D02*
G54D22*
D03*
X717550Y-650750D02*
G54D22*
D03*
X850900Y-720600D02*
G54D21*
D03*
X850900Y-822200D02*
G54D21*
D03*
G36*
X155000Y-817150D02*
X99000Y-817150D01*
X99000Y-789150D01*
X155000Y-789150D01*
X155000Y-817150D01*
G37*
G36*
X34350Y-813976D02*
X-21650Y-813976D01*
X-21650Y-785976D01*
X34350Y-785976D01*
X34350Y-813976D01*
G37*
G36*
X155000Y-696500D02*
X99000Y-696500D01*
X99000Y-668500D01*
X155000Y-668500D01*
X155000Y-696500D01*
G37*
G36*
X34350Y-696500D02*
X-21650Y-696500D01*
X-21650Y-668500D01*
X34350Y-668500D01*
X34350Y-696500D01*
G37*
G36*
X23238Y-756825D02*
X-32762Y-756825D01*
X-32762Y-728825D01*
X23238Y-728825D01*
X23238Y-756825D01*
G37*
G36*
X911660Y-665848D02*
X967660Y-665848D01*
X967660Y-693848D01*
X911660Y-693848D01*
X911660Y-665848D01*
G37*
G36*
X1032310Y-669023D02*
X1088310Y-669023D01*
X1088310Y-697023D01*
X1032310Y-697023D01*
X1032310Y-669023D01*
G37*
G36*
X911660Y-786499D02*
X967660Y-786499D01*
X967660Y-814499D01*
X911660Y-814499D01*
X911660Y-786499D01*
G37*
G36*
X1032310Y-786499D02*
X1088310Y-786499D01*
X1088310Y-814499D01*
X1032310Y-814499D01*
X1032310Y-786499D01*
G37*
G36*
X1043422Y-726174D02*
X1099422Y-726174D01*
X1099422Y-754174D01*
X1043422Y-754174D01*
X1043422Y-726174D01*
G37*
X222250Y-720600D02*
G54D22*
D03*
X412750Y-803150D02*
G54D22*
D03*
X717550Y-809500D02*
G54D22*
D03*
X850900Y-822200D02*
G54D22*
D03*
G36*
X-21650Y-785976D02*
X34350Y-785976D01*
X34350Y-813976D01*
X-21650Y-813976D01*
X-21650Y-785976D01*
G37*
X-111642Y-768138D02*
G54D23*
D03*
X-111754Y-717158D02*
G54D23*
D03*
X-69527Y-790170D02*
G54D24*
D03*
X-69527Y-688570D02*
G54D24*
D03*
X-69527Y-790170D02*
G54D23*
D03*
X1177408Y-780838D02*
G54D23*
D03*
X1177296Y-729858D02*
G54D23*
D03*
X1130623Y-790170D02*
G54D24*
D03*
X1130623Y-688570D02*
G54D24*
D03*
X1130623Y-790170D02*
G54D23*
D03*
X-69527Y-790170D02*
G54D22*
D03*
X-111642Y-768138D02*
G54D22*
D03*
X1130623Y-790170D02*
G54D22*
D03*
X1177408Y-780838D02*
G54D22*
D03*
X222250Y-923800D02*
G54D21*
D03*
X222250Y-1025400D02*
G54D21*
D03*
X361950Y-942850D02*
G54D22*
D03*
X361950Y-853950D02*
G54D22*
D03*
X412750Y-1006350D02*
G54D21*
D03*
X311150Y-1006350D02*
G54D21*
D03*
X495300Y-942850D02*
G54D22*
D03*
X584200Y-942850D02*
G54D22*
D03*
X717550Y-1012700D02*
G54D21*
D03*
X615950Y-1012700D02*
G54D21*
D03*
X717550Y-942850D02*
G54D22*
D03*
X717550Y-853950D02*
G54D22*
D03*
X850900Y-923800D02*
G54D21*
D03*
X850900Y-1025400D02*
G54D21*
D03*
G36*
X155000Y-1020350D02*
X99000Y-1020350D01*
X99000Y-992350D01*
X155000Y-992350D01*
X155000Y-1020350D01*
G37*
G36*
X34350Y-1017176D02*
X-21650Y-1017176D01*
X-21650Y-989176D01*
X34350Y-989176D01*
X34350Y-1017176D01*
G37*
G36*
X155000Y-899700D02*
X99000Y-899700D01*
X99000Y-871700D01*
X155000Y-871700D01*
X155000Y-899700D01*
G37*
G36*
X34350Y-899700D02*
X-21650Y-899700D01*
X-21650Y-871700D01*
X34350Y-871700D01*
X34350Y-899700D01*
G37*
G36*
X23238Y-960025D02*
X-32762Y-960025D01*
X-32762Y-932025D01*
X23238Y-932025D01*
X23238Y-960025D01*
G37*
G36*
X911660Y-869048D02*
X967660Y-869048D01*
X967660Y-897048D01*
X911660Y-897048D01*
X911660Y-869048D01*
G37*
G36*
X1032310Y-872223D02*
X1088310Y-872223D01*
X1088310Y-900223D01*
X1032310Y-900223D01*
X1032310Y-872223D01*
G37*
G36*
X911660Y-989699D02*
X967660Y-989699D01*
X967660Y-1017699D01*
X911660Y-1017699D01*
X911660Y-989699D01*
G37*
G36*
X1032310Y-989699D02*
X1088310Y-989699D01*
X1088310Y-1017699D01*
X1032310Y-1017699D01*
X1032310Y-989699D01*
G37*
G36*
X1043422Y-929374D02*
X1099422Y-929374D01*
X1099422Y-957374D01*
X1043422Y-957374D01*
X1043422Y-929374D01*
G37*
X222250Y-923800D02*
G54D22*
D03*
X412750Y-1006350D02*
G54D22*
D03*
X717550Y-1012700D02*
G54D22*
D03*
X850900Y-1025400D02*
G54D22*
D03*
G36*
X-21650Y-989176D02*
X34350Y-989176D01*
X34350Y-1017176D01*
X-21650Y-1017176D01*
X-21650Y-989176D01*
G37*
X-111642Y-971338D02*
G54D23*
D03*
X-111754Y-920358D02*
G54D23*
D03*
X-69527Y-993370D02*
G54D24*
D03*
X-69527Y-891770D02*
G54D24*
D03*
X-69527Y-993370D02*
G54D23*
D03*
X1177408Y-984038D02*
G54D23*
D03*
X1177296Y-933058D02*
G54D23*
D03*
X1130623Y-993370D02*
G54D24*
D03*
X1130623Y-891770D02*
G54D24*
D03*
X1130623Y-993370D02*
G54D23*
D03*
X-69527Y-993370D02*
G54D22*
D03*
X-111642Y-971338D02*
G54D22*
D03*
X1130623Y-993370D02*
G54D22*
D03*
X1177408Y-984038D02*
G54D22*
D03*
X222250Y-1127000D02*
G54D21*
D03*
X222250Y-1228600D02*
G54D21*
D03*
X361950Y-1146050D02*
G54D22*
D03*
X361950Y-1057150D02*
G54D22*
D03*
X412750Y-1209550D02*
G54D21*
D03*
X311150Y-1209550D02*
G54D21*
D03*
X495300Y-1146050D02*
G54D22*
D03*
X584200Y-1146050D02*
G54D22*
D03*
X717550Y-1215900D02*
G54D21*
D03*
X615950Y-1215900D02*
G54D21*
D03*
X717550Y-1146050D02*
G54D22*
D03*
X717550Y-1057150D02*
G54D22*
D03*
X850900Y-1127000D02*
G54D21*
D03*
X850900Y-1228600D02*
G54D21*
D03*
G36*
X155000Y-1223550D02*
X99000Y-1223550D01*
X99000Y-1195550D01*
X155000Y-1195550D01*
X155000Y-1223550D01*
G37*
G36*
X34350Y-1220376D02*
X-21650Y-1220376D01*
X-21650Y-1192376D01*
X34350Y-1192376D01*
X34350Y-1220376D01*
G37*
G36*
X155000Y-1102900D02*
X99000Y-1102900D01*
X99000Y-1074900D01*
X155000Y-1074900D01*
X155000Y-1102900D01*
G37*
G36*
X34350Y-1102900D02*
X-21650Y-1102900D01*
X-21650Y-1074900D01*
X34350Y-1074900D01*
X34350Y-1102900D01*
G37*
G36*
X23238Y-1163225D02*
X-32762Y-1163225D01*
X-32762Y-1135225D01*
X23238Y-1135225D01*
X23238Y-1163225D01*
G37*
G36*
X911660Y-1072248D02*
X967660Y-1072248D01*
X967660Y-1100248D01*
X911660Y-1100248D01*
X911660Y-1072248D01*
G37*
G36*
X1032310Y-1075423D02*
X1088310Y-1075423D01*
X1088310Y-1103423D01*
X1032310Y-1103423D01*
X1032310Y-1075423D01*
G37*
G36*
X911660Y-1192899D02*
X967660Y-1192899D01*
X967660Y-1220899D01*
X911660Y-1220899D01*
X911660Y-1192899D01*
G37*
G36*
X1032310Y-1192899D02*
X1088310Y-1192899D01*
X1088310Y-1220899D01*
X1032310Y-1220899D01*
X1032310Y-1192899D01*
G37*
G36*
X1043422Y-1132574D02*
X1099422Y-1132574D01*
X1099422Y-1160574D01*
X1043422Y-1160574D01*
X1043422Y-1132574D01*
G37*
X222250Y-1127000D02*
G54D22*
D03*
X412750Y-1209550D02*
G54D22*
D03*
X717550Y-1215900D02*
G54D22*
D03*
X850900Y-1228600D02*
G54D22*
D03*
G36*
X-21650Y-1192376D02*
X34350Y-1192376D01*
X34350Y-1220376D01*
X-21650Y-1220376D01*
X-21650Y-1192376D01*
G37*
X-111642Y-1174538D02*
G54D23*
D03*
X-111754Y-1123558D02*
G54D23*
D03*
X-69527Y-1196570D02*
G54D24*
D03*
X-69527Y-1094970D02*
G54D24*
D03*
X-69527Y-1196570D02*
G54D23*
D03*
X1177408Y-1187238D02*
G54D23*
D03*
X1177296Y-1136258D02*
G54D23*
D03*
X1130623Y-1196570D02*
G54D24*
D03*
X1130623Y-1094970D02*
G54D24*
D03*
X1130623Y-1196570D02*
G54D23*
D03*
X-69527Y-1196570D02*
G54D22*
D03*
X-111642Y-1174538D02*
G54D22*
D03*
X1130623Y-1196570D02*
G54D22*
D03*
X1177408Y-1187238D02*
G54D22*
D03*
X44450Y79500D02*
G54D25*
D03*
X69850Y79500D02*
G54D25*
D03*
X615950Y79500D02*
G54D25*
D03*
X641350Y79500D02*
G54D25*
D03*
X781050Y79500D02*
G54D25*
D03*
X806450Y79500D02*
G54D25*
D03*
X984250Y79500D02*
G54D25*
D03*
X1009650Y79500D02*
G54D25*
D03*
X209550Y79500D02*
G54D25*
D03*
X234950Y79500D02*
G54D25*
D03*
X412750Y79500D02*
G54D25*
D03*
X438150Y79500D02*
G54D25*
D03*
X641350Y79500D02*
G54D22*
D03*
X806450Y79500D02*
G54D22*
D03*
X1009650Y79500D02*
G54D22*
D03*
X69850Y79500D02*
G54D25*
D03*
X95250Y79500D02*
G54D25*
D03*
X234950Y79500D02*
G54D25*
D03*
X260350Y79500D02*
G54D25*
D03*
X438150Y79500D02*
G54D25*
D03*
X463550Y79500D02*
G54D25*
D03*
X666750Y79500D02*
G54D25*
D03*
X831850Y79500D02*
G54D25*
D03*
X984250Y79500D02*
G54D25*
D03*
X1035050Y79500D02*
G54D25*
D03*
G54D26*
X412750Y79500D02*
X406400Y76200D01*
X254000Y-76200D01*
X254000Y-114300D01*
X165100Y-203200D01*
X165100Y-215900D01*
X139700Y-241300D01*
X101600Y-241300D01*
X50800Y-292100D01*
X50800Y-406400D01*
X0Y-457200D01*
X0Y-482600D01*
X6350Y-479300D01*
G54D26*
X412750Y79500D02*
X406400Y76200D01*
X584200Y-101600D01*
X596900Y-101600D01*
X685800Y-190500D01*
X685800Y-254000D01*
X825500Y-393700D01*
X825500Y-431800D01*
X838200Y-444500D01*
X965200Y-444500D01*
X1003300Y-482600D01*
X1054100Y-482600D01*
X1060310Y-479823D01*
G54D26*
X615950Y79500D02*
X609600Y76200D01*
X571500Y114300D01*
X457200Y114300D01*
X444500Y101600D01*
X393700Y101600D01*
X127000Y-165100D01*
X88900Y-165100D01*
X12700Y-241300D01*
X-25400Y-241300D01*
X-50800Y-266700D01*
X-50800Y-355600D01*
X-38100Y-368300D01*
X-38100Y-393700D01*
X-50800Y-406400D01*
X-50800Y-558800D01*
X-38100Y-571500D01*
X-38100Y-609600D01*
X0Y-647700D01*
X0Y-685800D01*
X6350Y-682500D01*
G54D26*
X615950Y79500D02*
X609600Y76200D01*
X698500Y-12700D01*
X723900Y-12700D01*
X825500Y-114300D01*
X825500Y-127000D01*
X901700Y-203200D01*
X901700Y-215900D01*
X927100Y-241300D01*
X965200Y-241300D01*
X1016000Y-292100D01*
X1016000Y-406400D01*
X1066800Y-457200D01*
X1092200Y-457200D01*
X1104900Y-469900D01*
X1104900Y-495300D01*
X1092200Y-508000D01*
X1041400Y-508000D01*
X1016000Y-533400D01*
X1016000Y-609600D01*
X1054100Y-647700D01*
X1054100Y-685800D01*
X1060310Y-683023D01*
G54D27*
X781050Y79500D02*
X781050Y44450D01*
X787400Y38100D01*
X1136650Y38100D01*
X1152525Y22225D01*
X1152525Y-854075D01*
X968634Y-854075D01*
X939660Y-883048D01*
G54D27*
X781050Y79500D02*
X781050Y133350D01*
X787400Y139700D01*
X-120650Y139700D01*
X-142875Y117475D01*
X-142875Y-835025D01*
X-114300Y-863600D01*
X-15750Y-863600D01*
X6350Y-885700D01*
G54D27*
X984250Y79500D02*
X984250Y92075D01*
X1009650Y117475D01*
X1177925Y117475D01*
X1190625Y104775D01*
X1190625Y-76200D01*
X1212850Y-98425D01*
X1212850Y-1054100D01*
X1209675Y-1057275D01*
X942975Y-1057275D01*
X923925Y-1076325D01*
X929736Y-1076325D01*
X939660Y-1086248D01*
G54D27*
X984250Y79500D02*
X984250Y158750D01*
X981075Y161925D01*
X-158750Y161925D01*
X-161925Y165100D01*
X-161925Y-1069975D01*
X-161925Y-1060450D01*
G54D27*
X-161925Y-1060450D02*
X6350Y-1060450D01*
X9525Y-1063625D01*
X9525Y-1085725D01*
X6350Y-1088900D01*
X1247750Y-533300D02*
G54D22*
D03*
X1298550Y-533300D02*
G54D22*
D03*
X1273150Y-558700D02*
G54D22*
D03*
X1298550Y-584100D02*
G54D22*
D03*
X1247750Y-584100D02*
G54D22*
D03*
X-228625Y-538062D02*
G54D22*
D03*
X-177825Y-538062D02*
G54D22*
D03*
X-203225Y-563462D02*
G54D22*
D03*
X-177825Y-588862D02*
G54D22*
D03*
X-228625Y-588862D02*
G54D22*
D03*
M02*
