; Drill file
; Format: 2.4 (00.0000)
M48
INCH
T01C0.0283
T02C0.0315
T03C0.0354
T04C0.0394
%
G05
G90
T01
X-002740Y-043110
X-002740Y-035110
X-002740Y-027110
X-002740Y-019110
X-002740Y-011110
X-002740Y-003110
X044510Y-003110
X044510Y-011110
X044510Y-019110
X044510Y-027110
X044510Y-035110
X044510Y-043110
T02
X008750Y-048370
X012250Y-047620
X012250Y-039620
X008750Y-040370
X008750Y-032370
X012250Y-031620
X012250Y-023620
X008750Y-024370
X008750Y-016370
X012250Y-015620
X012250Y-007620
X008750Y-008370
X024250Y-007870
X024250Y-015870
X024250Y-023870
X024250Y-031870
X024250Y-039870
X024250Y-047870
X033500Y-044370
X033500Y-036370
X033500Y-028370
X033500Y-020370
X033500Y-012370
X033500Y-004370
T03
X-004400Y-044230
X-004400Y-036230
X-004400Y-028230
X-004400Y-020230
X-004400Y-012230
X-004400Y-004230
X001750Y003130
X002750Y003130
X003750Y003130
X008250Y003130
X009250Y003130
X010250Y003130
X016250Y003130
X017250Y003130
X018250Y003130
X024250Y003130
X026250Y003130
X030750Y003130
X032750Y003130
X038750Y003130
X040750Y003130
X046350Y-004730
X046350Y-012730
X046350Y-020730
X046350Y-028730
X046350Y-036730
X046350Y-044730
T04
X-004400Y-046240
X-002740Y-047110
X-002740Y-039110
X-004400Y-038240
X-002740Y-031110
X-004400Y-030240
X-002740Y-023110
X-004400Y-022240
X-007000Y-023180
X-008000Y-022180
X-009000Y-021180
X-007000Y-021180
X-009000Y-023180
X-004400Y-014240
X-002740Y-015110
X-002740Y-007110
X-004400Y-006240
X008750Y-004370
X014250Y-005120
X016250Y-007620
X014250Y-009620
X014250Y-013120
X016250Y-015620
X014250Y-017620
X014250Y-021120
X016250Y-023620
X014250Y-025620
X014250Y-029120
X016250Y-031620
X014250Y-033620
X014250Y-037120
X016250Y-039620
X014250Y-041620
X014250Y-045120
X016250Y-047620
X019500Y-045120
X023000Y-045120
X028250Y-045120
X028250Y-047870
X033500Y-048370
X033500Y-040370
X028250Y-039870
X028250Y-041620
X028250Y-037120
X028250Y-033620
X028250Y-031870
X028250Y-029120
X028250Y-025620
X028250Y-023870
X028250Y-021120
X028250Y-017620
X028250Y-015870
X028250Y-013120
X028250Y-009620
X028250Y-007870
X028250Y-005120
X028250Y-001620
X025250Y003130
X031750Y003130
X039750Y003130
X044510Y-007110
X046350Y-006740
X046350Y-014740
X044510Y-015110
X049120Y-021000
X050120Y-022000
X051120Y-021000
X051120Y-023000
X049120Y-023000
X046350Y-022740
X044510Y-023110
X046350Y-030740
X044510Y-031110
X046350Y-038740
X044510Y-039110
X046350Y-046740
X044510Y-047110
X033500Y-032370
X033500Y-024370
X033500Y-016370
X033500Y-008370
X023000Y-005120
X019500Y-005120
X014250Y-001620
X008750Y-012370
X008750Y-020370
X008750Y-028370
X008750Y-036370
X008750Y-044370
X019500Y-037120
X023000Y-037120
X023000Y-029120
X019500Y-029120
X019500Y-021120
X023000Y-021120
X023000Y-013120
X019500Y-013120
M30
