%FSLAX34Y34*%
%MOMM*%
%LNSILK_TOP*%
G71*
G01*
%ADD10C,0.200*%
%ADD11C,0.150*%
%ADD12C,0.144*%
%ADD13C,0.167*%
%ADD14C,0.333*%
%ADD15C,0.400*%
%ADD16C,0.222*%
%ADD17C,0.111*%
%LPD*%
G54D10*
X168772Y596023D02*
X174772Y602023D01*
X174772Y586023D01*
G54D10*
X188772Y599023D02*
X187572Y601023D01*
X185172Y602023D01*
X182772Y602023D01*
X180372Y601023D01*
X179172Y599023D01*
X179172Y594023D01*
X179172Y593023D01*
X182772Y595023D01*
X185172Y595023D01*
X187572Y594023D01*
X188772Y592023D01*
X188772Y589023D01*
X187572Y587023D01*
X185172Y586023D01*
X182772Y586023D01*
X180372Y587023D01*
X179172Y589023D01*
X179172Y594023D01*
G54D10*
X202772Y599023D02*
X202772Y589023D01*
X201572Y587023D01*
X199172Y586023D01*
X196772Y586023D01*
X194372Y587023D01*
X193172Y589023D01*
X193172Y599023D01*
X194372Y601023D01*
X196772Y602023D01*
X199172Y602023D01*
X201572Y601023D01*
X202772Y599023D01*
G54D11*
X158976Y557396D02*
X158976Y582797D01*
X209776Y582796D01*
X209776Y557396D01*
X158976Y557396D01*
G54D10*
X390672Y600373D02*
X388272Y600373D01*
X385872Y601373D01*
X384672Y603373D01*
X384672Y605373D01*
X385872Y607373D01*
X388272Y608373D01*
X390672Y608373D01*
X393072Y607373D01*
X394272Y605373D01*
X394272Y603373D01*
X393072Y601373D01*
X390672Y600373D01*
X393072Y599373D01*
X394272Y597373D01*
X394272Y595373D01*
X393072Y593373D01*
X390672Y592373D01*
X388272Y592373D01*
X385872Y593373D01*
X384672Y595373D01*
X384672Y597373D01*
X385872Y599373D01*
X388272Y600373D01*
G54D10*
X408272Y605373D02*
X408272Y595373D01*
X407072Y593373D01*
X404672Y592373D01*
X402272Y592373D01*
X399872Y593373D01*
X398672Y595373D01*
X398672Y605373D01*
X399872Y607373D01*
X402272Y608373D01*
X404672Y608373D01*
X407072Y607373D01*
X408272Y605373D01*
G54D11*
X368526Y557396D02*
X368526Y582797D01*
X419326Y582796D01*
X419326Y557396D01*
X368526Y557396D01*
G54D11*
X439897Y481909D02*
X541497Y481909D01*
X541497Y373959D01*
X439897Y373959D01*
X439897Y481909D01*
G54D11*
X123397Y399359D02*
X95997Y399359D01*
X95997Y475559D01*
X123397Y475559D01*
X123397Y399359D01*
G54D11*
X95997Y469259D02*
X123397Y469259D01*
G54D10*
X614122Y582848D02*
X614122Y598848D01*
X606922Y588848D01*
X606922Y586848D01*
X616522Y586848D01*
G54D10*
X630522Y595848D02*
X630522Y585848D01*
X629322Y583848D01*
X626922Y582848D01*
X624522Y582848D01*
X622122Y583848D01*
X620922Y585848D01*
X620922Y595848D01*
X622122Y597848D01*
X624522Y598848D01*
X626922Y598848D01*
X629322Y597848D01*
X630522Y595848D01*
G54D11*
X597126Y554222D02*
X597126Y579622D01*
X647926Y579622D01*
X647926Y554222D01*
X597126Y554222D01*
G54D10*
X803772Y602198D02*
X804972Y604198D01*
X807372Y605198D01*
X809772Y605198D01*
X812172Y604198D01*
X813372Y602198D01*
X813372Y600198D01*
X812172Y598198D01*
X809772Y597198D01*
X812172Y596198D01*
X813372Y594198D01*
X813372Y592198D01*
X812172Y590198D01*
X809772Y589198D01*
X807372Y589198D01*
X804972Y590198D01*
X803772Y592198D01*
G54D10*
X827372Y602198D02*
X827372Y592198D01*
X826172Y590198D01*
X823772Y589198D01*
X821372Y589198D01*
X818972Y590198D01*
X817772Y592198D01*
X817772Y602198D01*
X818972Y604198D01*
X821372Y605198D01*
X823772Y605198D01*
X826172Y604198D01*
X827372Y602198D01*
G54D11*
X813026Y554222D02*
X813026Y579622D01*
X863826Y579622D01*
X863826Y554222D01*
X813026Y554222D01*
G54D11*
X-109403Y167559D02*
X-7803Y167559D01*
X-7803Y65959D01*
X-109403Y65959D01*
X-109403Y167559D01*
G54D12*
X-110153Y194309D02*
X-110153Y194309D01*
G54D12*
X-110153Y174809D02*
X-110153Y174809D01*
G54D11*
X-109403Y-200741D02*
X-7803Y-200741D01*
X-7803Y-302341D01*
X-109403Y-302341D01*
X-109403Y-200741D01*
G54D12*
X-110153Y-173991D02*
X-110153Y-173991D01*
G54D12*
X-110153Y-193491D02*
X-110153Y-193491D01*
G54D11*
X-73453Y208859D02*
X-100853Y208859D01*
X-100853Y285059D01*
X-73453Y285059D01*
X-73453Y208859D01*
G54D11*
X-100853Y278759D02*
X-73453Y278759D01*
G54D11*
X-13692Y285347D02*
X-39093Y285347D01*
X-39093Y213747D01*
X-13693Y213747D01*
X-13692Y285347D01*
G54D13*
X-44484Y232691D02*
X-44484Y232691D01*
G54D10*
X-58203Y562273D02*
X-54603Y560273D01*
X-53403Y558273D01*
X-53403Y554273D01*
G54D10*
X-63003Y554273D02*
X-63003Y570273D01*
X-57003Y570273D01*
X-54603Y569273D01*
X-53403Y567273D01*
X-53403Y565273D01*
X-54603Y563273D01*
X-57003Y562273D01*
X-63003Y562273D01*
G54D10*
X-49003Y570273D02*
X-37003Y554273D01*
G54D10*
X-49003Y554273D02*
X-37003Y570273D01*
G54D10*
X-32603Y554273D02*
X-23003Y570273D01*
G54D10*
X-13803Y554273D02*
X-13803Y570273D01*
G54D10*
X-18603Y570273D02*
X-9003Y570273D01*
G54D10*
X-4603Y570273D02*
X7397Y554273D01*
G54D10*
X-4603Y554273D02*
X7397Y570273D01*
G54D11*
X-72799Y576446D02*
X-72799Y601847D01*
X-21999Y601846D01*
X-21999Y576446D01*
X-72799Y576446D01*
G54D10*
X-80132Y589676D02*
X-86482Y589676D01*
G54D10*
X-86482Y581739D02*
X-86482Y597614D01*
G54D10*
X-89657Y595232D02*
X-89657Y584120D01*
G54D10*
X-92832Y587295D02*
X-92832Y592057D01*
G54D10*
X-60153Y193059D02*
X-56553Y191059D01*
X-55353Y189059D01*
X-55353Y185059D01*
G54D10*
X-64953Y185059D02*
X-64953Y201059D01*
X-58953Y201059D01*
X-56553Y200059D01*
X-55353Y198059D01*
X-55353Y196059D01*
X-56553Y194059D01*
X-58953Y193059D01*
X-64953Y193059D01*
G54D10*
X-50953Y201059D02*
X-38953Y185059D01*
G54D10*
X-50953Y185059D02*
X-38953Y201059D01*
G54D10*
X-79203Y-335641D02*
X-79203Y-319641D01*
G54D10*
X-84003Y-319641D02*
X-74403Y-319641D01*
G54D10*
X-70003Y-319641D02*
X-58003Y-335641D01*
G54D10*
X-70003Y-335641D02*
X-58003Y-319641D01*
G54D14*
X507957Y-612777D02*
X505957Y-609443D01*
X501957Y-607777D01*
X497957Y-607777D01*
X493957Y-609443D01*
X491957Y-612777D01*
X491957Y-621110D01*
X491957Y-622777D01*
X497957Y-619443D01*
X501957Y-619443D01*
X505957Y-621110D01*
X507957Y-624443D01*
X507957Y-629443D01*
X505957Y-632777D01*
X501957Y-634443D01*
X497957Y-634443D01*
X493957Y-632777D01*
X491957Y-629443D01*
X491957Y-621110D01*
G54D14*
X523023Y-622777D02*
X539023Y-622777D01*
G54D14*
X554089Y-634443D02*
X554089Y-607777D01*
X564089Y-607777D01*
X568089Y-609443D01*
X570089Y-612777D01*
X570089Y-616110D01*
X568089Y-619443D01*
X564089Y-621110D01*
X568089Y-622777D01*
X570089Y-626110D01*
X570089Y-629443D01*
X568089Y-632777D01*
X564089Y-634443D01*
X554089Y-634443D01*
G54D14*
X554089Y-621110D02*
X564089Y-621110D01*
G54D14*
X577422Y-634443D02*
X587422Y-607777D01*
X597422Y-634443D01*
G54D14*
X581422Y-624443D02*
X593422Y-624443D01*
G54D14*
X604755Y-634443D02*
X604755Y-607777D01*
X620755Y-634443D01*
X620755Y-607777D01*
G54D14*
X628088Y-634443D02*
X628088Y-607777D01*
X638088Y-607777D01*
X642088Y-609443D01*
X644088Y-612777D01*
X644088Y-629443D01*
X642088Y-632777D01*
X638088Y-634443D01*
X628088Y-634443D01*
G54D14*
X651421Y-629443D02*
X653421Y-632777D01*
X657421Y-634443D01*
X661421Y-634443D01*
X665421Y-632777D01*
X667421Y-629443D01*
X667421Y-626110D01*
X665421Y-622777D01*
X661421Y-621110D01*
X657421Y-621110D01*
X653421Y-619443D01*
X651421Y-616110D01*
X651421Y-612777D01*
X653421Y-609443D01*
X657421Y-607777D01*
X661421Y-607777D01*
X665421Y-609443D01*
X667421Y-612777D01*
G54D14*
X682487Y-622777D02*
X698487Y-622777D01*
G54D14*
X713553Y-634443D02*
X713553Y-607777D01*
X723553Y-607777D01*
X727553Y-609443D01*
X729553Y-612777D01*
X729553Y-616110D01*
X727553Y-619443D01*
X723553Y-621110D01*
X727553Y-622777D01*
X729553Y-626110D01*
X729553Y-629443D01*
X727553Y-632777D01*
X723553Y-634443D01*
X713553Y-634443D01*
G54D14*
X713553Y-621110D02*
X723553Y-621110D01*
G54D14*
X736886Y-634443D02*
X736886Y-607777D01*
X746886Y-607777D01*
X750886Y-609443D01*
X752886Y-612777D01*
X752886Y-616110D01*
X750886Y-619443D01*
X746886Y-621110D01*
X736886Y-621110D01*
G54D14*
X760219Y-634443D02*
X760219Y-607777D01*
X774219Y-607777D01*
G54D14*
X760219Y-621110D02*
X774219Y-621110D01*
G54D14*
X789285Y-622777D02*
X805285Y-622777D01*
G54D14*
X797285Y-616110D02*
X797285Y-629443D01*
G54D14*
X820351Y-634443D02*
X830351Y-607777D01*
X840351Y-634443D01*
G54D14*
X824351Y-624443D02*
X836351Y-624443D01*
G54D14*
X855684Y-634443D02*
X855684Y-607777D01*
G54D14*
X847684Y-607777D02*
X863684Y-607777D01*
G54D14*
X879017Y-634443D02*
X879017Y-607777D01*
G54D14*
X871017Y-607777D02*
X887017Y-607777D01*
G54D14*
X894350Y-634443D02*
X894350Y-607777D01*
X910350Y-634443D01*
X910350Y-607777D01*
G54D15*
X136219Y516528D02*
X333069Y516528D01*
X333069Y345078D01*
X136219Y345078D01*
X136219Y516528D01*
G54D16*
X287374Y459157D02*
X287374Y469157D01*
G54D16*
X287374Y466935D02*
X288707Y468491D01*
X291374Y469157D01*
X294040Y468490D01*
X295374Y466935D01*
X295374Y459157D01*
G54D16*
X306929Y468490D02*
X304263Y469157D01*
X301596Y468490D01*
X300263Y466268D01*
X300262Y461824D01*
X301596Y459602D01*
X304263Y459157D01*
X306929Y459602D01*
G54D16*
X289568Y389663D02*
X289568Y399663D01*
G54D16*
X289568Y397441D02*
X290901Y398996D01*
X293568Y399663D01*
X296235Y398996D01*
X297568Y397441D01*
X297568Y389663D01*
G54D16*
X302457Y398552D02*
X305124Y399663D01*
X308324Y399663D01*
X310457Y397441D01*
X310457Y389663D01*
G54D16*
X310457Y392996D02*
X309124Y395218D01*
X306457Y395663D01*
X303790Y395218D01*
X302457Y392996D01*
X302990Y390774D01*
X305124Y389663D01*
X306457Y389663D01*
X306990Y389663D01*
X309124Y390774D01*
X310457Y392996D01*
G54D11*
X76956Y464919D02*
X51556Y464920D01*
X51556Y393319D01*
X76956Y393319D01*
X76956Y464919D01*
G54D13*
X46164Y412264D02*
X46164Y412264D01*
G54D17*
X125315Y445606D02*
X125315Y445606D01*
G54D15*
X28269Y43328D02*
X28269Y-153522D01*
X-143181Y-153522D01*
X-143181Y43328D01*
X28269Y43328D01*
G54D16*
X-29102Y-107826D02*
X-19102Y-107826D01*
G54D16*
X-21324Y-107826D02*
X-19768Y-109160D01*
X-19102Y-111826D01*
X-19768Y-114493D01*
X-21324Y-115826D01*
X-29102Y-115827D01*
G54D16*
X-19768Y-127382D02*
X-19102Y-124716D01*
X-19768Y-122049D01*
X-21991Y-120716D01*
X-26435Y-120716D01*
X-28657Y-122049D01*
X-29102Y-124716D01*
X-28657Y-127382D01*
G54D16*
X-98596Y-110021D02*
X-88596Y-110021D01*
G54D16*
X-90818Y-110021D02*
X-89263Y-111354D01*
X-88596Y-114021D01*
X-89263Y-116688D01*
X-90818Y-118021D01*
X-98596Y-118021D01*
G54D16*
X-89707Y-122910D02*
X-88596Y-125577D01*
X-88596Y-128776D01*
X-90818Y-130910D01*
X-98596Y-130910D01*
G54D16*
X-95263Y-130910D02*
X-93040Y-129577D01*
X-92596Y-126910D01*
X-93040Y-124243D01*
X-95263Y-122910D01*
X-97485Y-123443D01*
X-98596Y-125576D01*
X-98596Y-126910D01*
X-98596Y-127443D01*
X-97485Y-129577D01*
X-95263Y-130910D01*
G54D11*
X380008Y463147D02*
X354607Y463147D01*
X354607Y391547D01*
X380007Y391547D01*
X380008Y463147D01*
G54D13*
X349216Y410491D02*
X349216Y410491D01*
G54D11*
X421282Y463147D02*
X395882Y463147D01*
X395882Y391547D01*
X421282Y391547D01*
X421282Y463147D01*
G54D13*
X390491Y410491D02*
X390491Y410491D01*
G54D11*
X589558Y459972D02*
X564157Y459972D01*
X564157Y388372D01*
X589557Y388372D01*
X589558Y459972D01*
G54D13*
X558766Y407316D02*
X558766Y407316D01*
G54D11*
X630832Y459972D02*
X605432Y459972D01*
X605432Y388372D01*
X630832Y388372D01*
X630832Y459972D01*
G54D13*
X600041Y407316D02*
X600041Y407316D01*
G54D11*
X649447Y475559D02*
X751047Y475559D01*
X751047Y367609D01*
X649447Y367609D01*
X649447Y475559D01*
G54D11*
X789582Y459972D02*
X764182Y459972D01*
X764182Y388372D01*
X789582Y388372D01*
X789582Y459972D01*
G54D13*
X758791Y407316D02*
X758791Y407316D01*
G54D11*
X808197Y475559D02*
X909797Y475559D01*
X909797Y367609D01*
X808197Y367609D01*
X808197Y475559D01*
G54D11*
X945158Y453622D02*
X919757Y453622D01*
X919757Y382022D01*
X945157Y382022D01*
X945158Y453622D01*
G54D13*
X914366Y400966D02*
X914366Y400966D01*
G54D11*
X986432Y450447D02*
X961032Y450447D01*
X961032Y378847D01*
X986432Y378847D01*
X986432Y450447D01*
G54D13*
X955641Y397791D02*
X955641Y397791D01*
G54D11*
X1217283Y459574D02*
X1244683Y459574D01*
X1244683Y383375D01*
X1217283Y383374D01*
X1217283Y459574D01*
G54D11*
X1244683Y389674D02*
X1217283Y389675D01*
G54D15*
X1204461Y342406D02*
X1007611Y342406D01*
X1007611Y513856D01*
X1204461Y513856D01*
X1204461Y342406D01*
G54D16*
X1033794Y389794D02*
X1033794Y399794D01*
G54D16*
X1033794Y397571D02*
X1035127Y399127D01*
X1037794Y399794D01*
X1040460Y399127D01*
X1041794Y397572D01*
X1041794Y389794D01*
G54D16*
X1053349Y399127D02*
X1050683Y399794D01*
X1048016Y399127D01*
X1046683Y396905D01*
X1046683Y392460D01*
X1048016Y390238D01*
X1050683Y389794D01*
X1053349Y390238D01*
G54D16*
X1030223Y459272D02*
X1030223Y469271D01*
G54D16*
X1030223Y467049D02*
X1031556Y468605D01*
X1034223Y469272D01*
X1036890Y468605D01*
X1038223Y467049D01*
X1038223Y459271D01*
G54D16*
X1043112Y468160D02*
X1045779Y469271D01*
X1048979Y469271D01*
X1051112Y467049D01*
X1051112Y459271D01*
G54D16*
X1051112Y462605D02*
X1049779Y464827D01*
X1047112Y465272D01*
X1044445Y464827D01*
X1043112Y462605D01*
X1043645Y460382D01*
X1045779Y459272D01*
X1047112Y459271D01*
X1047645Y459272D01*
X1049779Y460383D01*
X1051112Y462605D01*
G54D17*
X1215365Y413328D02*
X1215365Y413328D01*
G54D11*
X1283456Y464919D02*
X1258056Y464920D01*
X1258056Y393319D01*
X1283456Y393319D01*
X1283456Y464919D01*
G54D13*
X1252664Y412264D02*
X1252664Y412264D01*
G54D11*
X439897Y291409D02*
X541497Y291409D01*
X541497Y183459D01*
X439897Y183459D01*
X439897Y291409D01*
G54D11*
X123397Y208859D02*
X95997Y208859D01*
X95997Y285059D01*
X123397Y285059D01*
X123397Y208859D01*
G54D11*
X95997Y278759D02*
X123397Y278759D01*
G54D15*
X136219Y326028D02*
X333069Y326028D01*
X333069Y154578D01*
X136219Y154578D01*
X136219Y326028D01*
G54D16*
X287374Y268657D02*
X287374Y278657D01*
G54D16*
X287374Y276435D02*
X288707Y277991D01*
X291374Y278657D01*
X294040Y277990D01*
X295374Y276435D01*
X295374Y268657D01*
G54D16*
X306929Y277990D02*
X304263Y278657D01*
X301596Y277990D01*
X300263Y275768D01*
X300262Y271324D01*
X301596Y269102D01*
X304263Y268657D01*
X306929Y269102D01*
G54D16*
X289568Y199163D02*
X289568Y209163D01*
G54D16*
X289568Y206941D02*
X290901Y208496D01*
X293568Y209163D01*
X296235Y208496D01*
X297568Y206941D01*
X297568Y199163D01*
G54D16*
X302457Y208052D02*
X305124Y209163D01*
X308324Y209163D01*
X310457Y206941D01*
X310457Y199163D01*
G54D16*
X310457Y202496D02*
X309124Y204718D01*
X306457Y205163D01*
X303790Y204718D01*
X302457Y202496D01*
X302990Y200274D01*
X305124Y199163D01*
X306457Y199163D01*
X306990Y199163D01*
X309124Y200274D01*
X310457Y202496D01*
G54D11*
X76956Y274419D02*
X51556Y274420D01*
X51556Y202819D01*
X76956Y202819D01*
X76956Y274419D01*
G54D13*
X46164Y221764D02*
X46164Y221764D01*
G54D17*
X125315Y255106D02*
X125315Y255106D01*
G54D11*
X380008Y272647D02*
X354607Y272647D01*
X354607Y201047D01*
X380007Y201047D01*
X380008Y272647D01*
G54D13*
X349216Y219991D02*
X349216Y219991D01*
G54D11*
X421282Y272647D02*
X395882Y272647D01*
X395882Y201047D01*
X421282Y201047D01*
X421282Y272647D01*
G54D13*
X390491Y219991D02*
X390491Y219991D01*
G54D11*
X589558Y269472D02*
X564157Y269472D01*
X564157Y197872D01*
X589557Y197872D01*
X589558Y269472D01*
G54D13*
X558766Y216816D02*
X558766Y216816D01*
G54D11*
X630832Y269472D02*
X605432Y269472D01*
X605432Y197872D01*
X630832Y197872D01*
X630832Y269472D01*
G54D13*
X600041Y216816D02*
X600041Y216816D01*
G54D11*
X649447Y285059D02*
X751047Y285059D01*
X751047Y177109D01*
X649447Y177109D01*
X649447Y285059D01*
G54D11*
X789582Y269472D02*
X764182Y269472D01*
X764182Y197872D01*
X789582Y197872D01*
X789582Y269472D01*
G54D13*
X758791Y216816D02*
X758791Y216816D01*
G54D11*
X808197Y285059D02*
X909797Y285059D01*
X909797Y177109D01*
X808197Y177109D01*
X808197Y285059D01*
G54D11*
X945158Y263122D02*
X919757Y263122D01*
X919757Y191522D01*
X945157Y191522D01*
X945158Y263122D01*
G54D13*
X914366Y210466D02*
X914366Y210466D01*
G54D11*
X986432Y259947D02*
X961032Y259947D01*
X961032Y188347D01*
X986432Y188347D01*
X986432Y259947D01*
G54D13*
X955641Y207291D02*
X955641Y207291D01*
G54D11*
X1217283Y269074D02*
X1244683Y269074D01*
X1244683Y192874D01*
X1217283Y192874D01*
X1217283Y269074D01*
G54D11*
X1244683Y199174D02*
X1217283Y199174D01*
G54D15*
X1204461Y151906D02*
X1007611Y151906D01*
X1007611Y323356D01*
X1204461Y323356D01*
X1204461Y151906D01*
G54D16*
X1033794Y199294D02*
X1033794Y209294D01*
G54D16*
X1033794Y207071D02*
X1035127Y208627D01*
X1037794Y209294D01*
X1040460Y208627D01*
X1041794Y207072D01*
X1041794Y199294D01*
G54D16*
X1053349Y208627D02*
X1050683Y209294D01*
X1048016Y208627D01*
X1046683Y206405D01*
X1046683Y201960D01*
X1048016Y199738D01*
X1050683Y199294D01*
X1053349Y199738D01*
G54D16*
X1030223Y268772D02*
X1030223Y278771D01*
G54D16*
X1030223Y276549D02*
X1031556Y278105D01*
X1034223Y278772D01*
X1036890Y278105D01*
X1038223Y276549D01*
X1038223Y268772D01*
G54D16*
X1043112Y277660D02*
X1045779Y278771D01*
X1048979Y278771D01*
X1051112Y276549D01*
X1051112Y268772D01*
G54D16*
X1051112Y272105D02*
X1049779Y274327D01*
X1047112Y274772D01*
X1044445Y274327D01*
X1043112Y272105D01*
X1043645Y269882D01*
X1045779Y268772D01*
X1047112Y268771D01*
X1047645Y268772D01*
X1049779Y269882D01*
X1051112Y272105D01*
G54D17*
X1215365Y222828D02*
X1215365Y222828D01*
G54D11*
X1283456Y274419D02*
X1258056Y274420D01*
X1258056Y202819D01*
X1283456Y202819D01*
X1283456Y274419D01*
G54D13*
X1252664Y221764D02*
X1252664Y221764D01*
G54D11*
X439897Y100909D02*
X541497Y100909D01*
X541497Y-7041D01*
X439897Y-7041D01*
X439897Y100909D01*
G54D11*
X123397Y18359D02*
X95997Y18359D01*
X95997Y94559D01*
X123397Y94559D01*
X123397Y18359D01*
G54D11*
X95997Y88259D02*
X123397Y88259D01*
G54D15*
X136219Y135528D02*
X333069Y135528D01*
X333069Y-35922D01*
X136219Y-35922D01*
X136219Y135528D01*
G54D16*
X287374Y78157D02*
X287374Y88157D01*
G54D16*
X287374Y85935D02*
X288707Y87491D01*
X291374Y88157D01*
X294040Y87490D01*
X295374Y85935D01*
X295374Y78157D01*
G54D16*
X306929Y87490D02*
X304263Y88157D01*
X301596Y87490D01*
X300263Y85268D01*
X300262Y80824D01*
X301596Y78602D01*
X304263Y78157D01*
X306929Y78602D01*
G54D16*
X289568Y8663D02*
X289568Y18663D01*
G54D16*
X289568Y16441D02*
X290901Y17996D01*
X293568Y18663D01*
X296235Y17996D01*
X297568Y16441D01*
X297568Y8663D01*
G54D16*
X302457Y17552D02*
X305124Y18663D01*
X308324Y18663D01*
X310457Y16441D01*
X310457Y8663D01*
G54D16*
X310457Y11996D02*
X309124Y14218D01*
X306457Y14663D01*
X303790Y14218D01*
X302457Y11996D01*
X302990Y9774D01*
X305124Y8663D01*
X306457Y8663D01*
X306990Y8663D01*
X309124Y9774D01*
X310457Y11996D01*
G54D11*
X76956Y83919D02*
X51556Y83920D01*
X51556Y12319D01*
X76956Y12319D01*
X76956Y83919D01*
G54D13*
X46164Y31264D02*
X46164Y31264D01*
G54D17*
X125315Y64606D02*
X125315Y64606D01*
G54D11*
X380008Y82147D02*
X354607Y82147D01*
X354607Y10547D01*
X380007Y10547D01*
X380008Y82147D01*
G54D13*
X349216Y29491D02*
X349216Y29491D01*
G54D11*
X421282Y82147D02*
X395882Y82147D01*
X395882Y10547D01*
X421282Y10547D01*
X421282Y82147D01*
G54D13*
X390491Y29491D02*
X390491Y29491D01*
G54D11*
X589558Y78972D02*
X564157Y78972D01*
X564157Y7372D01*
X589557Y7372D01*
X589558Y78972D01*
G54D13*
X558766Y26316D02*
X558766Y26316D01*
G54D11*
X630832Y78972D02*
X605432Y78972D01*
X605432Y7372D01*
X630832Y7372D01*
X630832Y78972D01*
G54D13*
X600041Y26316D02*
X600041Y26316D01*
G54D11*
X649447Y94559D02*
X751047Y94559D01*
X751047Y-13391D01*
X649447Y-13391D01*
X649447Y94559D01*
G54D11*
X789582Y78972D02*
X764182Y78972D01*
X764182Y7372D01*
X789582Y7372D01*
X789582Y78972D01*
G54D13*
X758791Y26316D02*
X758791Y26316D01*
G54D11*
X808197Y94559D02*
X909797Y94559D01*
X909797Y-13391D01*
X808197Y-13391D01*
X808197Y94559D01*
G54D11*
X945158Y72622D02*
X919757Y72622D01*
X919757Y1022D01*
X945157Y1022D01*
X945158Y72622D01*
G54D13*
X914366Y19966D02*
X914366Y19966D01*
G54D11*
X986432Y69447D02*
X961032Y69447D01*
X961032Y-2153D01*
X986432Y-2153D01*
X986432Y69447D01*
G54D13*
X955641Y16791D02*
X955641Y16791D01*
G54D11*
X1217283Y78574D02*
X1244683Y78574D01*
X1244683Y2374D01*
X1217283Y2374D01*
X1217283Y78574D01*
G54D11*
X1244683Y8674D02*
X1217283Y8674D01*
G54D15*
X1204461Y-38594D02*
X1007611Y-38594D01*
X1007611Y132856D01*
X1204461Y132856D01*
X1204461Y-38594D01*
G54D16*
X1033794Y8794D02*
X1033794Y18794D01*
G54D16*
X1033794Y16571D02*
X1035127Y18127D01*
X1037794Y18794D01*
X1040460Y18127D01*
X1041794Y16572D01*
X1041794Y8794D01*
G54D16*
X1053349Y18127D02*
X1050683Y18794D01*
X1048016Y18127D01*
X1046683Y15905D01*
X1046683Y11460D01*
X1048016Y9238D01*
X1050683Y8794D01*
X1053349Y9238D01*
G54D16*
X1030223Y78272D02*
X1030223Y88271D01*
G54D16*
X1030223Y86049D02*
X1031556Y87605D01*
X1034223Y88272D01*
X1036890Y87605D01*
X1038223Y86049D01*
X1038223Y78272D01*
G54D16*
X1043112Y87160D02*
X1045779Y88271D01*
X1048979Y88271D01*
X1051112Y86049D01*
X1051112Y78272D01*
G54D16*
X1051112Y81605D02*
X1049779Y83827D01*
X1047112Y84272D01*
X1044445Y83827D01*
X1043112Y81605D01*
X1043645Y79382D01*
X1045779Y78272D01*
X1047112Y78271D01*
X1047645Y78272D01*
X1049779Y79382D01*
X1051112Y81605D01*
G54D17*
X1215365Y32328D02*
X1215365Y32328D01*
G54D11*
X1283456Y83919D02*
X1258056Y83920D01*
X1258056Y12319D01*
X1283456Y12319D01*
X1283456Y83919D01*
G54D13*
X1252664Y31264D02*
X1252664Y31264D01*
G54D11*
X439897Y-89591D02*
X541497Y-89591D01*
X541497Y-197541D01*
X439897Y-197541D01*
X439897Y-89591D01*
G54D11*
X123397Y-172141D02*
X95997Y-172141D01*
X95997Y-95941D01*
X123397Y-95941D01*
X123397Y-172141D01*
G54D11*
X95997Y-102241D02*
X123397Y-102241D01*
G54D15*
X136219Y-54972D02*
X333069Y-54972D01*
X333069Y-226422D01*
X136219Y-226422D01*
X136219Y-54972D01*
G54D16*
X287374Y-112343D02*
X287374Y-102343D01*
G54D16*
X287374Y-104565D02*
X288707Y-103009D01*
X291374Y-102343D01*
X294040Y-103010D01*
X295374Y-104565D01*
X295374Y-112343D01*
G54D16*
X306929Y-103010D02*
X304263Y-102343D01*
X301596Y-103010D01*
X300263Y-105232D01*
X300262Y-109676D01*
X301596Y-111898D01*
X304263Y-112343D01*
X306929Y-111898D01*
G54D16*
X289568Y-181837D02*
X289568Y-171837D01*
G54D16*
X289568Y-174059D02*
X290901Y-172504D01*
X293568Y-171837D01*
X296235Y-172504D01*
X297568Y-174059D01*
X297568Y-181837D01*
G54D16*
X302457Y-172948D02*
X305124Y-171837D01*
X308324Y-171837D01*
X310457Y-174059D01*
X310457Y-181837D01*
G54D16*
X310457Y-178504D02*
X309124Y-176282D01*
X306457Y-175837D01*
X303790Y-176282D01*
X302457Y-178504D01*
X302990Y-180726D01*
X305124Y-181837D01*
X306457Y-181837D01*
X306990Y-181837D01*
X309124Y-180726D01*
X310457Y-178504D01*
G54D11*
X76956Y-106581D02*
X51556Y-106580D01*
X51556Y-178181D01*
X76956Y-178181D01*
X76956Y-106581D01*
G54D13*
X46164Y-159236D02*
X46164Y-159236D01*
G54D17*
X125315Y-125894D02*
X125315Y-125894D01*
G54D11*
X380008Y-108353D02*
X354607Y-108353D01*
X354607Y-179953D01*
X380007Y-179953D01*
X380008Y-108353D01*
G54D13*
X349216Y-161009D02*
X349216Y-161009D01*
G54D11*
X421282Y-108353D02*
X395882Y-108353D01*
X395882Y-179953D01*
X421282Y-179953D01*
X421282Y-108353D01*
G54D13*
X390491Y-161009D02*
X390491Y-161009D01*
G54D11*
X589558Y-111528D02*
X564157Y-111528D01*
X564157Y-183128D01*
X589557Y-183128D01*
X589558Y-111528D01*
G54D13*
X558766Y-164184D02*
X558766Y-164184D01*
G54D11*
X630832Y-111528D02*
X605432Y-111528D01*
X605432Y-183128D01*
X630832Y-183128D01*
X630832Y-111528D01*
G54D13*
X600041Y-164184D02*
X600041Y-164184D01*
G54D11*
X649447Y-95941D02*
X751047Y-95941D01*
X751047Y-203891D01*
X649447Y-203891D01*
X649447Y-95941D01*
G54D11*
X789582Y-111528D02*
X764182Y-111528D01*
X764182Y-183128D01*
X789582Y-183128D01*
X789582Y-111528D01*
G54D13*
X758791Y-164184D02*
X758791Y-164184D01*
G54D11*
X808197Y-95941D02*
X909797Y-95941D01*
X909797Y-203891D01*
X808197Y-203891D01*
X808197Y-95941D01*
G54D11*
X945158Y-117878D02*
X919757Y-117878D01*
X919757Y-189478D01*
X945157Y-189478D01*
X945158Y-117878D01*
G54D13*
X914366Y-170534D02*
X914366Y-170534D01*
G54D11*
X986432Y-121053D02*
X961032Y-121053D01*
X961032Y-192653D01*
X986432Y-192653D01*
X986432Y-121053D01*
G54D13*
X955641Y-173709D02*
X955641Y-173709D01*
G54D11*
X1217283Y-111926D02*
X1244683Y-111926D01*
X1244683Y-188126D01*
X1217283Y-188126D01*
X1217283Y-111926D01*
G54D11*
X1244683Y-181826D02*
X1217283Y-181826D01*
G54D15*
X1204461Y-229094D02*
X1007611Y-229094D01*
X1007611Y-57644D01*
X1204461Y-57644D01*
X1204461Y-229094D01*
G54D16*
X1033794Y-181706D02*
X1033794Y-171706D01*
G54D16*
X1033794Y-173929D02*
X1035127Y-172373D01*
X1037794Y-171706D01*
X1040460Y-172373D01*
X1041794Y-173928D01*
X1041794Y-181706D01*
G54D16*
X1053349Y-172373D02*
X1050683Y-171706D01*
X1048016Y-172373D01*
X1046683Y-174595D01*
X1046683Y-179040D01*
X1048016Y-181262D01*
X1050683Y-181706D01*
X1053349Y-181262D01*
G54D16*
X1030223Y-112228D02*
X1030223Y-102229D01*
G54D16*
X1030223Y-104451D02*
X1031556Y-102895D01*
X1034223Y-102228D01*
X1036890Y-102895D01*
X1038223Y-104451D01*
X1038223Y-112228D01*
G54D16*
X1043112Y-103340D02*
X1045779Y-102229D01*
X1048979Y-102229D01*
X1051112Y-104451D01*
X1051112Y-112228D01*
G54D16*
X1051112Y-108895D02*
X1049779Y-106673D01*
X1047112Y-106228D01*
X1044445Y-106673D01*
X1043112Y-108895D01*
X1043645Y-111118D01*
X1045779Y-112228D01*
X1047112Y-112229D01*
X1047645Y-112228D01*
X1049779Y-111118D01*
X1051112Y-108895D01*
G54D17*
X1215365Y-158172D02*
X1215365Y-158172D01*
G54D11*
X1283456Y-106581D02*
X1258056Y-106580D01*
X1258056Y-178181D01*
X1283456Y-178181D01*
X1283456Y-106581D01*
G54D13*
X1252664Y-159236D02*
X1252664Y-159236D01*
G54D11*
X439897Y-280091D02*
X541497Y-280091D01*
X541497Y-388041D01*
X439897Y-388041D01*
X439897Y-280091D01*
G54D11*
X123397Y-362641D02*
X95997Y-362641D01*
X95997Y-286441D01*
X123397Y-286441D01*
X123397Y-362641D01*
G54D11*
X95997Y-292741D02*
X123397Y-292741D01*
G54D15*
X136219Y-245472D02*
X333069Y-245472D01*
X333069Y-416922D01*
X136219Y-416922D01*
X136219Y-245472D01*
G54D16*
X287374Y-302843D02*
X287374Y-292843D01*
G54D16*
X287374Y-295065D02*
X288707Y-293509D01*
X291374Y-292843D01*
X294040Y-293510D01*
X295374Y-295065D01*
X295374Y-302843D01*
G54D16*
X306929Y-293510D02*
X304263Y-292843D01*
X301596Y-293510D01*
X300263Y-295732D01*
X300262Y-300176D01*
X301596Y-302398D01*
X304263Y-302843D01*
X306929Y-302398D01*
G54D16*
X289568Y-372337D02*
X289568Y-362337D01*
G54D16*
X289568Y-364559D02*
X290901Y-363004D01*
X293568Y-362337D01*
X296235Y-363004D01*
X297568Y-364559D01*
X297568Y-372337D01*
G54D16*
X302457Y-363448D02*
X305124Y-362337D01*
X308324Y-362337D01*
X310457Y-364559D01*
X310457Y-372337D01*
G54D16*
X310457Y-369004D02*
X309124Y-366782D01*
X306457Y-366337D01*
X303790Y-366782D01*
X302457Y-369004D01*
X302990Y-371226D01*
X305124Y-372337D01*
X306457Y-372337D01*
X306990Y-372337D01*
X309124Y-371226D01*
X310457Y-369004D01*
G54D11*
X76956Y-297081D02*
X51556Y-297080D01*
X51556Y-368681D01*
X76956Y-368681D01*
X76956Y-297081D01*
G54D13*
X46164Y-349736D02*
X46164Y-349736D01*
G54D17*
X125315Y-316394D02*
X125315Y-316394D01*
G54D11*
X380008Y-298853D02*
X354607Y-298853D01*
X354607Y-370453D01*
X380007Y-370453D01*
X380008Y-298853D01*
G54D13*
X349216Y-351509D02*
X349216Y-351509D01*
G54D11*
X421282Y-298853D02*
X395882Y-298853D01*
X395882Y-370453D01*
X421282Y-370453D01*
X421282Y-298853D01*
G54D13*
X390491Y-351509D02*
X390491Y-351509D01*
G54D11*
X589558Y-302028D02*
X564157Y-302028D01*
X564157Y-373628D01*
X589557Y-373628D01*
X589558Y-302028D01*
G54D13*
X558766Y-354684D02*
X558766Y-354684D01*
G54D11*
X630832Y-302028D02*
X605432Y-302028D01*
X605432Y-373628D01*
X630832Y-373628D01*
X630832Y-302028D01*
G54D13*
X600041Y-354684D02*
X600041Y-354684D01*
G54D11*
X649447Y-286441D02*
X751047Y-286441D01*
X751047Y-394391D01*
X649447Y-394391D01*
X649447Y-286441D01*
G54D11*
X789582Y-302028D02*
X764182Y-302028D01*
X764182Y-373628D01*
X789582Y-373628D01*
X789582Y-302028D01*
G54D13*
X758791Y-354684D02*
X758791Y-354684D01*
G54D11*
X808197Y-286441D02*
X909797Y-286441D01*
X909797Y-394391D01*
X808197Y-394391D01*
X808197Y-286441D01*
G54D11*
X945158Y-308378D02*
X919757Y-308378D01*
X919757Y-379978D01*
X945157Y-379978D01*
X945158Y-308378D01*
G54D13*
X914366Y-361034D02*
X914366Y-361034D01*
G54D11*
X986432Y-311553D02*
X961032Y-311553D01*
X961032Y-383153D01*
X986432Y-383153D01*
X986432Y-311553D01*
G54D13*
X955641Y-364209D02*
X955641Y-364209D01*
G54D11*
X1217283Y-302426D02*
X1244683Y-302426D01*
X1244683Y-378626D01*
X1217283Y-378626D01*
X1217283Y-302426D01*
G54D11*
X1244683Y-372326D02*
X1217283Y-372326D01*
G54D15*
X1204461Y-419594D02*
X1007611Y-419594D01*
X1007611Y-248144D01*
X1204461Y-248144D01*
X1204461Y-419594D01*
G54D16*
X1033794Y-372206D02*
X1033794Y-362206D01*
G54D16*
X1033794Y-364429D02*
X1035127Y-362873D01*
X1037794Y-362206D01*
X1040460Y-362873D01*
X1041794Y-364428D01*
X1041794Y-372206D01*
G54D16*
X1053349Y-362873D02*
X1050683Y-362206D01*
X1048016Y-362873D01*
X1046683Y-365095D01*
X1046683Y-369540D01*
X1048016Y-371762D01*
X1050683Y-372206D01*
X1053349Y-371762D01*
G54D16*
X1030223Y-302728D02*
X1030223Y-292729D01*
G54D16*
X1030223Y-294951D02*
X1031556Y-293395D01*
X1034223Y-292728D01*
X1036890Y-293395D01*
X1038223Y-294951D01*
X1038223Y-302728D01*
G54D16*
X1043112Y-293840D02*
X1045779Y-292729D01*
X1048979Y-292729D01*
X1051112Y-294951D01*
X1051112Y-302728D01*
G54D16*
X1051112Y-299395D02*
X1049779Y-297173D01*
X1047112Y-296728D01*
X1044445Y-297173D01*
X1043112Y-299395D01*
X1043645Y-301618D01*
X1045779Y-302728D01*
X1047112Y-302729D01*
X1047645Y-302728D01*
X1049779Y-301618D01*
X1051112Y-299395D01*
G54D17*
X1215365Y-348672D02*
X1215365Y-348672D01*
G54D11*
X1283456Y-297081D02*
X1258056Y-297080D01*
X1258056Y-368681D01*
X1283456Y-368681D01*
X1283456Y-297081D01*
G54D13*
X1252664Y-349736D02*
X1252664Y-349736D01*
G54D11*
X439897Y-470591D02*
X541497Y-470591D01*
X541497Y-578541D01*
X439897Y-578541D01*
X439897Y-470591D01*
G54D11*
X123397Y-553141D02*
X95997Y-553141D01*
X95997Y-476941D01*
X123397Y-476941D01*
X123397Y-553141D01*
G54D11*
X95997Y-483241D02*
X123397Y-483241D01*
G54D15*
X136219Y-435972D02*
X333069Y-435972D01*
X333069Y-607422D01*
X136219Y-607422D01*
X136219Y-435972D01*
G54D16*
X287374Y-493343D02*
X287374Y-483343D01*
G54D16*
X287374Y-485565D02*
X288707Y-484009D01*
X291374Y-483343D01*
X294040Y-484010D01*
X295374Y-485565D01*
X295374Y-493343D01*
G54D16*
X306929Y-484010D02*
X304263Y-483343D01*
X301596Y-484010D01*
X300263Y-486232D01*
X300262Y-490676D01*
X301596Y-492898D01*
X304263Y-493343D01*
X306929Y-492898D01*
G54D16*
X289568Y-562837D02*
X289568Y-552837D01*
G54D16*
X289568Y-555059D02*
X290901Y-553504D01*
X293568Y-552837D01*
X296235Y-553504D01*
X297568Y-555059D01*
X297568Y-562837D01*
G54D16*
X302457Y-553948D02*
X305124Y-552837D01*
X308324Y-552837D01*
X310457Y-555059D01*
X310457Y-562837D01*
G54D16*
X310457Y-559504D02*
X309124Y-557282D01*
X306457Y-556837D01*
X303790Y-557282D01*
X302457Y-559504D01*
X302990Y-561726D01*
X305124Y-562837D01*
X306457Y-562837D01*
X306990Y-562837D01*
X309124Y-561726D01*
X310457Y-559504D01*
G54D11*
X76956Y-487581D02*
X51556Y-487580D01*
X51556Y-559181D01*
X76956Y-559181D01*
X76956Y-487581D01*
G54D13*
X46164Y-540236D02*
X46164Y-540236D01*
G54D17*
X125315Y-506894D02*
X125315Y-506894D01*
G54D11*
X380008Y-489353D02*
X354607Y-489353D01*
X354607Y-560953D01*
X380007Y-560953D01*
X380008Y-489353D01*
G54D13*
X349216Y-542009D02*
X349216Y-542009D01*
G54D11*
X421282Y-489353D02*
X395882Y-489353D01*
X395882Y-560953D01*
X421282Y-560953D01*
X421282Y-489353D01*
G54D13*
X390491Y-542009D02*
X390491Y-542009D01*
G54D11*
X589558Y-492528D02*
X564157Y-492528D01*
X564157Y-564128D01*
X589557Y-564128D01*
X589558Y-492528D01*
G54D13*
X558766Y-545184D02*
X558766Y-545184D01*
G54D11*
X630832Y-492528D02*
X605432Y-492528D01*
X605432Y-564128D01*
X630832Y-564128D01*
X630832Y-492528D01*
G54D13*
X600041Y-545184D02*
X600041Y-545184D01*
G54D11*
X649447Y-476941D02*
X751047Y-476941D01*
X751047Y-584891D01*
X649447Y-584891D01*
X649447Y-476941D01*
G54D11*
X789582Y-492528D02*
X764182Y-492528D01*
X764182Y-564128D01*
X789582Y-564128D01*
X789582Y-492528D01*
G54D13*
X758791Y-545184D02*
X758791Y-545184D01*
G54D11*
X808197Y-476941D02*
X909797Y-476941D01*
X909797Y-584891D01*
X808197Y-584891D01*
X808197Y-476941D01*
G54D11*
X945158Y-498878D02*
X919757Y-498878D01*
X919757Y-570478D01*
X945157Y-570478D01*
X945158Y-498878D01*
G54D13*
X914366Y-551534D02*
X914366Y-551534D01*
G54D11*
X986432Y-502053D02*
X961032Y-502053D01*
X961032Y-573653D01*
X986432Y-573653D01*
X986432Y-502053D01*
G54D13*
X955641Y-554709D02*
X955641Y-554709D01*
G54D11*
X1217283Y-492926D02*
X1244683Y-492926D01*
X1244683Y-569126D01*
X1217283Y-569126D01*
X1217283Y-492926D01*
G54D11*
X1244683Y-562826D02*
X1217283Y-562826D01*
G54D15*
X1204461Y-610094D02*
X1007611Y-610094D01*
X1007611Y-438644D01*
X1204461Y-438644D01*
X1204461Y-610094D01*
G54D16*
X1033794Y-562706D02*
X1033794Y-552706D01*
G54D16*
X1033794Y-554929D02*
X1035128Y-553373D01*
X1037794Y-552706D01*
X1040461Y-553373D01*
X1041794Y-554928D01*
X1041795Y-562706D01*
G54D16*
X1053350Y-553373D02*
X1050684Y-552706D01*
X1048017Y-553373D01*
X1046684Y-555595D01*
X1046684Y-560040D01*
X1048017Y-562262D01*
X1050684Y-562706D01*
X1053350Y-562262D01*
G54D16*
X1030223Y-493228D02*
X1030223Y-483229D01*
G54D16*
X1030223Y-485451D02*
X1031556Y-483895D01*
X1034223Y-483228D01*
X1036890Y-483895D01*
X1038223Y-485451D01*
X1038223Y-493228D01*
G54D16*
X1043112Y-484340D02*
X1045779Y-483229D01*
X1048978Y-483229D01*
X1051112Y-485451D01*
X1051112Y-493228D01*
G54D16*
X1051112Y-489895D02*
X1049779Y-487673D01*
X1047112Y-487228D01*
X1044445Y-487673D01*
X1043112Y-489895D01*
X1043645Y-492118D01*
X1045778Y-493228D01*
X1047112Y-493229D01*
X1047645Y-493228D01*
X1049779Y-492118D01*
X1051112Y-489895D01*
G54D17*
X1215365Y-539172D02*
X1215365Y-539172D01*
G54D11*
X1283456Y-487581D02*
X1258056Y-487580D01*
X1258056Y-559181D01*
X1283456Y-559181D01*
X1283456Y-487581D01*
G54D13*
X1252664Y-540236D02*
X1252664Y-540236D01*
G54D10*
X1041972Y592373D02*
X1032372Y592373D01*
X1032372Y593373D01*
X1033572Y595373D01*
X1040772Y601373D01*
X1041972Y603373D01*
X1041972Y605373D01*
X1040772Y607373D01*
X1038372Y608373D01*
X1035972Y608373D01*
X1033572Y607373D01*
X1032372Y605373D01*
G54D10*
X1055972Y605373D02*
X1055972Y595373D01*
X1054772Y593373D01*
X1052372Y592373D01*
X1049972Y592373D01*
X1047572Y593373D01*
X1046372Y595373D01*
X1046372Y605373D01*
X1047572Y607373D01*
X1049972Y608373D01*
X1052372Y608373D01*
X1054772Y607373D01*
X1055972Y605373D01*
G54D10*
X1060372Y599373D02*
X1069972Y599373D01*
G54D10*
X1074372Y602373D02*
X1080372Y608373D01*
X1080372Y592373D01*
G54D10*
X1084772Y608373D02*
X1094372Y608373D01*
X1093172Y606373D01*
X1090772Y603373D01*
X1088372Y599373D01*
X1087172Y596373D01*
X1087172Y592373D01*
G54D11*
X1041626Y557396D02*
X1041626Y582797D01*
X1092426Y582796D01*
X1092426Y557396D01*
X1041626Y557396D01*
G54D10*
X1229222Y599198D02*
X1235222Y605198D01*
X1235222Y589198D01*
G54D10*
X1249222Y605198D02*
X1239622Y605198D01*
X1239622Y598198D01*
X1240822Y598198D01*
X1243222Y599198D01*
X1245622Y599198D01*
X1248022Y598198D01*
X1249222Y596198D01*
X1249222Y592198D01*
X1248022Y590198D01*
X1245622Y589198D01*
X1243222Y589198D01*
X1240822Y590198D01*
X1239622Y592198D01*
G54D10*
X1253622Y596198D02*
X1263222Y596198D01*
G54D10*
X1267622Y599198D02*
X1273622Y605198D01*
X1273622Y589198D01*
G54D10*
X1287622Y602198D02*
X1287622Y592198D01*
X1286422Y590198D01*
X1284022Y589198D01*
X1281622Y589198D01*
X1279222Y590198D01*
X1278022Y592198D01*
X1278022Y602198D01*
X1279222Y604198D01*
X1281622Y605198D01*
X1284022Y605198D01*
X1286422Y604198D01*
X1287622Y602198D01*
G54D11*
X1238476Y554222D02*
X1238476Y579622D01*
X1289276Y579622D01*
X1289276Y554222D01*
X1238476Y554222D01*
G54D10*
X1398747Y479209D02*
X1404747Y485209D01*
X1404747Y469209D01*
G54D10*
X1418747Y482209D02*
X1417547Y484209D01*
X1415147Y485209D01*
X1412747Y485209D01*
X1410347Y484209D01*
X1409147Y482209D01*
X1409147Y477209D01*
X1409147Y476209D01*
X1412747Y478209D01*
X1415147Y478209D01*
X1417547Y477209D01*
X1418747Y475209D01*
X1418747Y472209D01*
X1417547Y470209D01*
X1415147Y469209D01*
X1412747Y469209D01*
X1410347Y470209D01*
X1409147Y472209D01*
X1409147Y477209D01*
G54D10*
X1432747Y482209D02*
X1432747Y472209D01*
X1431547Y470209D01*
X1429147Y469209D01*
X1426747Y469209D01*
X1424347Y470209D01*
X1423147Y472209D01*
X1423147Y482209D01*
X1424347Y484209D01*
X1426747Y485209D01*
X1429147Y485209D01*
X1431547Y484209D01*
X1432747Y482209D01*
G54D10*
X1411097Y261309D02*
X1408697Y261309D01*
X1406297Y262309D01*
X1405097Y264309D01*
X1405097Y266309D01*
X1406297Y268309D01*
X1408697Y269309D01*
X1411097Y269309D01*
X1413497Y268309D01*
X1414697Y266309D01*
X1414697Y264309D01*
X1413497Y262309D01*
X1411097Y261309D01*
X1413497Y260309D01*
X1414697Y258309D01*
X1414697Y256309D01*
X1413497Y254309D01*
X1411097Y253309D01*
X1408697Y253309D01*
X1406297Y254309D01*
X1405097Y256309D01*
X1405097Y258309D01*
X1406297Y260309D01*
X1408697Y261309D01*
G54D10*
X1428697Y266309D02*
X1428697Y256309D01*
X1427497Y254309D01*
X1425097Y253309D01*
X1422697Y253309D01*
X1420297Y254309D01*
X1419097Y256309D01*
X1419097Y266309D01*
X1420297Y268309D01*
X1422697Y269309D01*
X1425097Y269309D01*
X1427497Y268309D01*
X1428697Y266309D01*
G54D10*
X1405947Y56459D02*
X1405947Y72459D01*
X1398747Y62459D01*
X1398747Y60459D01*
X1408347Y60459D01*
G54D10*
X1422347Y69459D02*
X1422347Y59459D01*
X1421147Y57459D01*
X1418747Y56459D01*
X1416347Y56459D01*
X1413947Y57459D01*
X1412747Y59459D01*
X1412747Y69459D01*
X1413947Y71459D01*
X1416347Y72459D01*
X1418747Y72459D01*
X1421147Y71459D01*
X1422347Y69459D01*
G54D10*
X1398747Y-133741D02*
X1399947Y-131741D01*
X1402347Y-130741D01*
X1404747Y-130741D01*
X1407147Y-131741D01*
X1408347Y-133741D01*
X1408347Y-135741D01*
X1407147Y-137741D01*
X1404747Y-138741D01*
X1407147Y-139741D01*
X1408347Y-141741D01*
X1408347Y-143741D01*
X1407147Y-145741D01*
X1404747Y-146741D01*
X1402347Y-146741D01*
X1399947Y-145741D01*
X1398747Y-143741D01*
G54D10*
X1422347Y-133741D02*
X1422347Y-143741D01*
X1421147Y-145741D01*
X1418747Y-146741D01*
X1416347Y-146741D01*
X1413947Y-145741D01*
X1412747Y-143741D01*
X1412747Y-133741D01*
X1413947Y-131741D01*
X1416347Y-130741D01*
X1418747Y-130741D01*
X1421147Y-131741D01*
X1422347Y-133741D01*
G54D10*
X1395647Y-334066D02*
X1386047Y-334066D01*
X1386047Y-333066D01*
X1387247Y-331066D01*
X1394447Y-325066D01*
X1395647Y-323066D01*
X1395647Y-321066D01*
X1394447Y-319066D01*
X1392047Y-318066D01*
X1389647Y-318066D01*
X1387247Y-319066D01*
X1386047Y-321066D01*
G54D10*
X1409647Y-321066D02*
X1409647Y-331066D01*
X1408447Y-333066D01*
X1406047Y-334066D01*
X1403647Y-334066D01*
X1401247Y-333066D01*
X1400047Y-331066D01*
X1400047Y-321066D01*
X1401247Y-319066D01*
X1403647Y-318066D01*
X1406047Y-318066D01*
X1408447Y-319066D01*
X1409647Y-321066D01*
G54D10*
X1414047Y-327066D02*
X1423647Y-327066D01*
G54D10*
X1428047Y-324066D02*
X1434047Y-318066D01*
X1434047Y-334066D01*
G54D10*
X1438447Y-318066D02*
X1448047Y-318066D01*
X1446847Y-320066D01*
X1444447Y-323066D01*
X1442047Y-327066D01*
X1440847Y-330066D01*
X1440847Y-334066D01*
G54D10*
X1382872Y-508216D02*
X1388872Y-502216D01*
X1388872Y-518216D01*
G54D10*
X1402872Y-502216D02*
X1393272Y-502216D01*
X1393272Y-509216D01*
X1394472Y-509216D01*
X1396872Y-508216D01*
X1399272Y-508216D01*
X1401672Y-509216D01*
X1402872Y-511216D01*
X1402872Y-515216D01*
X1401672Y-517216D01*
X1399272Y-518216D01*
X1396872Y-518216D01*
X1394472Y-517216D01*
X1393272Y-515216D01*
G54D10*
X1407272Y-511216D02*
X1416872Y-511216D01*
G54D10*
X1421272Y-508216D02*
X1427272Y-502216D01*
X1427272Y-518216D01*
G54D10*
X1441272Y-505216D02*
X1441272Y-515216D01*
X1440072Y-517216D01*
X1437672Y-518216D01*
X1435272Y-518216D01*
X1432872Y-517216D01*
X1431672Y-515216D01*
X1431672Y-505216D01*
X1432872Y-503216D01*
X1435272Y-502216D01*
X1437672Y-502216D01*
X1440072Y-503216D01*
X1441272Y-505216D01*
G54D15*
X1366997Y494609D02*
X1468597Y494609D01*
G54D15*
X1363822Y272359D02*
X1465422Y272359D01*
G54D15*
X1363822Y75509D02*
X1465422Y75509D01*
G54D15*
X1363822Y-127691D02*
X1465422Y-127691D01*
G54D15*
X1363822Y-311841D02*
X1465422Y-311841D01*
G54D15*
X1363822Y-495991D02*
X1465422Y-495991D01*
G54D11*
X1528897Y15159D02*
X1630497Y15159D01*
X1630497Y-86441D01*
X1528897Y-86441D01*
X1528897Y15159D01*
G54D12*
X1528147Y41909D02*
X1528147Y41909D01*
G54D12*
X1528147Y22409D02*
X1528147Y22409D01*
G54D10*
X1555272Y-111741D02*
X1558872Y-113741D01*
X1560072Y-115741D01*
X1560072Y-119741D01*
G54D10*
X1550472Y-119741D02*
X1550472Y-103741D01*
X1556472Y-103741D01*
X1558872Y-104741D01*
X1560072Y-106741D01*
X1560072Y-108741D01*
X1558872Y-110741D01*
X1556472Y-111741D01*
X1550472Y-111741D01*
G54D10*
X1564472Y-103741D02*
X1576472Y-119741D01*
G54D10*
X1564472Y-119741D02*
X1576472Y-103741D01*
G54D10*
X1580872Y-119741D02*
X1590472Y-103741D01*
G54D10*
X1599672Y-119741D02*
X1599672Y-103741D01*
G54D10*
X1594872Y-103741D02*
X1604472Y-103741D01*
G54D10*
X1608872Y-103741D02*
X1620872Y-119741D01*
G54D10*
X1608872Y-119741D02*
X1620872Y-103741D01*
G54D15*
X189047Y639084D02*
X189047Y578284D01*
X197247Y570084D01*
G54D15*
X398597Y642259D02*
X398597Y578284D01*
X406797Y570084D01*
G54D15*
X620847Y642259D02*
X620847Y581459D01*
X635397Y566909D01*
G54D15*
X830397Y645434D02*
X830397Y587809D01*
X851297Y566909D01*
G54D15*
X1071697Y642259D02*
X1071697Y578284D01*
X1079897Y570084D01*
G54D15*
X1252672Y642259D02*
X1252672Y590984D01*
X1276747Y566909D01*
M02*
