%FSLAX34Y34*%
%MOMM*%
%LNSOLDERMASK_TOP*%
G71*
G01*
%ADD10C,2.600*%
%ADD11C,2.500*%
%ADD12C,2.800*%
%ADD13C,2.600*%
%ADD14C,2.600*%
%ADD15C,4.900*%
%ADD16C,2.800*%
%ADD17C,3.600*%
%LPD*%
X171747Y570084D02*
G54D10*
D03*
X197247Y570084D02*
G54D10*
D03*
X381297Y570084D02*
G54D10*
D03*
X406797Y570084D02*
G54D10*
D03*
X452597Y462859D02*
G54D10*
D03*
X522447Y462859D02*
G54D10*
D03*
X452597Y393009D02*
G54D10*
D03*
X522447Y393009D02*
G54D10*
D03*
X522447Y424759D02*
G54D10*
D03*
X452597Y424759D02*
G54D10*
D03*
X109697Y386659D02*
G54D11*
D03*
X109697Y488259D02*
G54D11*
D03*
X609897Y566909D02*
G54D10*
D03*
X635397Y566909D02*
G54D10*
D03*
X825797Y566909D02*
G54D10*
D03*
X851297Y566909D02*
G54D10*
D03*
X-84003Y142159D02*
G54D12*
D03*
X-33203Y142159D02*
G54D12*
D03*
X-58603Y116759D02*
G54D12*
D03*
X-33203Y91359D02*
G54D12*
D03*
X-84003Y91359D02*
G54D12*
D03*
X-84003Y-226141D02*
G54D12*
D03*
X-33203Y-226141D02*
G54D12*
D03*
X-58603Y-251541D02*
G54D12*
D03*
X-33203Y-276941D02*
G54D12*
D03*
X-84003Y-276941D02*
G54D12*
D03*
X452597Y393009D02*
G54D13*
D03*
X522447Y393009D02*
G54D13*
D03*
X-84003Y142159D02*
G54D13*
D03*
X-33203Y142159D02*
G54D13*
D03*
X-84003Y91359D02*
G54D13*
D03*
X-33203Y91359D02*
G54D13*
D03*
X-84003Y-226141D02*
G54D14*
D03*
X-33203Y-226141D02*
G54D13*
D03*
X-84003Y-276941D02*
G54D13*
D03*
X-33203Y-276941D02*
G54D13*
D03*
X-87153Y196159D02*
G54D11*
D03*
X-87153Y297759D02*
G54D11*
D03*
X-26526Y275132D02*
G54D10*
D03*
X-26414Y224152D02*
G54D10*
D03*
X-60028Y589134D02*
G54D10*
D03*
X-34528Y589134D02*
G54D10*
D03*
X-87153Y196159D02*
G54D13*
D03*
G36*
X385597Y655259D02*
X411597Y655259D01*
X411597Y629259D01*
X385597Y629259D01*
X385597Y655259D01*
G37*
G36*
X607847Y655259D02*
X633847Y655259D01*
X633847Y629259D01*
X607847Y629259D01*
X607847Y655259D01*
G37*
G36*
X817397Y658434D02*
X843397Y658434D01*
X843397Y632434D01*
X817397Y632434D01*
X817397Y658434D01*
G37*
G36*
X1058697Y655259D02*
X1084697Y655259D01*
X1084697Y629259D01*
X1058697Y629259D01*
X1058697Y655259D01*
G37*
G36*
X1239672Y655259D02*
X1265672Y655259D01*
X1265672Y629259D01*
X1239672Y629259D01*
X1239672Y655259D01*
G37*
X-118903Y624659D02*
G54D15*
D03*
X-112553Y-623116D02*
G54D15*
D03*
G36*
X-109103Y490159D02*
X-109103Y464159D01*
X-135103Y464159D01*
X-135103Y490159D01*
X-109103Y490159D01*
G37*
G36*
X-109103Y-398841D02*
X-109103Y-424841D01*
X-135103Y-424841D01*
X-135103Y-398841D01*
X-109103Y-398841D01*
G37*
X300197Y367609D02*
G54D12*
D03*
X179547Y370783D02*
G54D12*
D03*
X300197Y488259D02*
G54D12*
D03*
X179547Y488259D02*
G54D12*
D03*
X159584Y427934D02*
G54D12*
D03*
X64123Y454704D02*
G54D10*
D03*
X64235Y403724D02*
G54D10*
D03*
X64235Y403724D02*
G54D12*
D03*
X-120650Y-120650D02*
G54D12*
D03*
X-117476Y0D02*
G54D12*
D03*
X0Y-120650D02*
G54D12*
D03*
X0Y0D02*
G54D12*
D03*
X-60325Y20112D02*
G54D12*
D03*
X179547Y370783D02*
G54D16*
D03*
X-117476Y0D02*
G54D12*
D03*
X109697Y386659D02*
G54D12*
D03*
X14266Y249896D02*
G54D12*
D03*
X64235Y403724D02*
G54D12*
D03*
X109697Y386659D02*
G54D12*
D03*
X-26414Y224152D02*
G54D12*
D03*
X1747Y288109D02*
G54D12*
D03*
X367174Y452932D02*
G54D10*
D03*
X367286Y401952D02*
G54D10*
D03*
X408449Y452932D02*
G54D10*
D03*
X408562Y401952D02*
G54D10*
D03*
X367286Y401951D02*
G54D13*
D03*
X576724Y449757D02*
G54D10*
D03*
X576836Y398776D02*
G54D10*
D03*
X617999Y449757D02*
G54D10*
D03*
X618112Y398776D02*
G54D10*
D03*
X618112Y398776D02*
G54D13*
D03*
X662147Y456509D02*
G54D10*
D03*
X731997Y456509D02*
G54D10*
D03*
X662147Y386659D02*
G54D10*
D03*
X731997Y386659D02*
G54D10*
D03*
X731997Y418409D02*
G54D10*
D03*
X662147Y418409D02*
G54D10*
D03*
X662147Y386659D02*
G54D13*
D03*
X731997Y386659D02*
G54D13*
D03*
X776749Y449757D02*
G54D10*
D03*
X776862Y398776D02*
G54D10*
D03*
X820897Y456509D02*
G54D10*
D03*
X890747Y456509D02*
G54D10*
D03*
X820897Y386659D02*
G54D10*
D03*
X890747Y386659D02*
G54D10*
D03*
X890747Y418409D02*
G54D10*
D03*
X820897Y418409D02*
G54D10*
D03*
X820897Y386659D02*
G54D13*
D03*
X890747Y386659D02*
G54D13*
D03*
X932324Y443407D02*
G54D10*
D03*
X932436Y392426D02*
G54D10*
D03*
X973599Y440232D02*
G54D10*
D03*
X973712Y389252D02*
G54D10*
D03*
X973712Y389251D02*
G54D13*
D03*
X1230983Y472274D02*
G54D11*
D03*
X1230983Y370675D02*
G54D11*
D03*
X1040483Y491324D02*
G54D12*
D03*
X1161133Y488151D02*
G54D12*
D03*
X1040483Y370674D02*
G54D12*
D03*
X1161133Y370675D02*
G54D12*
D03*
X1181095Y431000D02*
G54D12*
D03*
X1161133Y370675D02*
G54D16*
D03*
X1270623Y454704D02*
G54D10*
D03*
X1270735Y403724D02*
G54D10*
D03*
X1270735Y403724D02*
G54D12*
D03*
X1270735Y403724D02*
G54D12*
D03*
X1230983Y370675D02*
G54D12*
D03*
X452597Y272359D02*
G54D10*
D03*
X522447Y272359D02*
G54D10*
D03*
X452597Y202509D02*
G54D10*
D03*
X522447Y202509D02*
G54D10*
D03*
X522447Y234259D02*
G54D10*
D03*
X452597Y234259D02*
G54D10*
D03*
X109697Y196159D02*
G54D11*
D03*
X109697Y297759D02*
G54D11*
D03*
X452597Y202509D02*
G54D13*
D03*
X522447Y202509D02*
G54D13*
D03*
X300197Y177109D02*
G54D12*
D03*
X179547Y180283D02*
G54D12*
D03*
X300197Y297759D02*
G54D12*
D03*
X179547Y297759D02*
G54D12*
D03*
X159584Y237434D02*
G54D12*
D03*
X64123Y264204D02*
G54D10*
D03*
X64235Y213224D02*
G54D10*
D03*
X64235Y213224D02*
G54D12*
D03*
X179547Y180283D02*
G54D16*
D03*
X109697Y196159D02*
G54D12*
D03*
X64235Y213224D02*
G54D12*
D03*
X109697Y196159D02*
G54D12*
D03*
X367174Y262432D02*
G54D10*
D03*
X367286Y211452D02*
G54D10*
D03*
X408449Y262432D02*
G54D10*
D03*
X408562Y211452D02*
G54D10*
D03*
X367286Y211451D02*
G54D13*
D03*
X576724Y259257D02*
G54D10*
D03*
X576836Y208276D02*
G54D10*
D03*
X617999Y259257D02*
G54D10*
D03*
X618112Y208276D02*
G54D10*
D03*
X618112Y208276D02*
G54D13*
D03*
X662147Y266009D02*
G54D10*
D03*
X731997Y266009D02*
G54D10*
D03*
X662147Y196159D02*
G54D10*
D03*
X731997Y196159D02*
G54D10*
D03*
X731997Y227909D02*
G54D10*
D03*
X662147Y227909D02*
G54D10*
D03*
X662147Y196159D02*
G54D13*
D03*
X731997Y196159D02*
G54D13*
D03*
X776749Y259257D02*
G54D10*
D03*
X776862Y208276D02*
G54D10*
D03*
X820897Y266009D02*
G54D10*
D03*
X890747Y266009D02*
G54D10*
D03*
X820897Y196159D02*
G54D10*
D03*
X890747Y196159D02*
G54D10*
D03*
X890747Y227909D02*
G54D10*
D03*
X820897Y227909D02*
G54D10*
D03*
X820897Y196159D02*
G54D13*
D03*
X890747Y196159D02*
G54D13*
D03*
X932324Y252907D02*
G54D10*
D03*
X932436Y201926D02*
G54D10*
D03*
X973599Y249732D02*
G54D10*
D03*
X973712Y198752D02*
G54D10*
D03*
X973712Y198751D02*
G54D13*
D03*
X1230983Y281774D02*
G54D11*
D03*
X1230983Y180175D02*
G54D11*
D03*
X1040483Y300824D02*
G54D12*
D03*
X1161133Y297651D02*
G54D12*
D03*
X1040483Y180174D02*
G54D12*
D03*
X1161133Y180174D02*
G54D12*
D03*
X1181595Y240500D02*
G54D12*
D03*
X1161133Y180174D02*
G54D16*
D03*
X1270623Y264204D02*
G54D10*
D03*
X1270735Y213224D02*
G54D10*
D03*
X1270735Y213224D02*
G54D12*
D03*
X1270735Y213224D02*
G54D12*
D03*
X1230983Y180175D02*
G54D12*
D03*
X452597Y81859D02*
G54D10*
D03*
X522447Y81859D02*
G54D10*
D03*
X452597Y12009D02*
G54D10*
D03*
X522447Y12009D02*
G54D10*
D03*
X522447Y43759D02*
G54D10*
D03*
X452597Y43759D02*
G54D10*
D03*
X109697Y5659D02*
G54D11*
D03*
X109697Y107259D02*
G54D11*
D03*
X452597Y12009D02*
G54D13*
D03*
X522447Y12009D02*
G54D13*
D03*
X300197Y-13391D02*
G54D12*
D03*
X179547Y-10217D02*
G54D12*
D03*
X300197Y107259D02*
G54D12*
D03*
X179547Y107259D02*
G54D12*
D03*
X159584Y46934D02*
G54D12*
D03*
X64123Y73704D02*
G54D10*
D03*
X64235Y22724D02*
G54D10*
D03*
X64235Y22724D02*
G54D12*
D03*
X179547Y-10217D02*
G54D16*
D03*
X109697Y5659D02*
G54D12*
D03*
X64235Y22724D02*
G54D12*
D03*
X109697Y5659D02*
G54D12*
D03*
X367174Y71932D02*
G54D10*
D03*
X367286Y20952D02*
G54D10*
D03*
X408449Y71932D02*
G54D10*
D03*
X408562Y20952D02*
G54D10*
D03*
X367286Y20951D02*
G54D13*
D03*
X576724Y68757D02*
G54D10*
D03*
X576836Y17776D02*
G54D10*
D03*
X617999Y68757D02*
G54D10*
D03*
X618112Y17776D02*
G54D10*
D03*
X618112Y17776D02*
G54D13*
D03*
X662147Y75509D02*
G54D10*
D03*
X731997Y75509D02*
G54D10*
D03*
X662147Y5659D02*
G54D10*
D03*
X731997Y5659D02*
G54D10*
D03*
X731997Y37409D02*
G54D10*
D03*
X662147Y37409D02*
G54D10*
D03*
X662147Y5659D02*
G54D13*
D03*
X731997Y5659D02*
G54D13*
D03*
X776749Y68757D02*
G54D10*
D03*
X776862Y17776D02*
G54D10*
D03*
X820897Y75509D02*
G54D10*
D03*
X890747Y75509D02*
G54D10*
D03*
X820897Y5659D02*
G54D10*
D03*
X890747Y5659D02*
G54D10*
D03*
X890747Y37409D02*
G54D10*
D03*
X820897Y37409D02*
G54D10*
D03*
X820897Y5659D02*
G54D13*
D03*
X890747Y5659D02*
G54D13*
D03*
X932324Y62407D02*
G54D10*
D03*
X932436Y11426D02*
G54D10*
D03*
X973599Y59232D02*
G54D10*
D03*
X973712Y8252D02*
G54D10*
D03*
X973712Y8251D02*
G54D13*
D03*
X1230983Y91274D02*
G54D11*
D03*
X1230983Y-10325D02*
G54D11*
D03*
X1040483Y110324D02*
G54D12*
D03*
X1161133Y107151D02*
G54D12*
D03*
X1040483Y-10326D02*
G54D12*
D03*
X1161133Y-10326D02*
G54D12*
D03*
X1181095Y50000D02*
G54D12*
D03*
X1161133Y-10326D02*
G54D16*
D03*
X1270623Y73704D02*
G54D10*
D03*
X1270735Y22724D02*
G54D10*
D03*
X1270735Y22724D02*
G54D12*
D03*
X1270735Y22724D02*
G54D12*
D03*
X1230983Y-10325D02*
G54D12*
D03*
X452597Y-108641D02*
G54D10*
D03*
X522447Y-108641D02*
G54D10*
D03*
X452597Y-178491D02*
G54D10*
D03*
X522447Y-178491D02*
G54D10*
D03*
X522447Y-146741D02*
G54D10*
D03*
X452597Y-146741D02*
G54D10*
D03*
X109697Y-184841D02*
G54D11*
D03*
X109697Y-83241D02*
G54D11*
D03*
X452597Y-178491D02*
G54D13*
D03*
X522447Y-178491D02*
G54D13*
D03*
X300197Y-203891D02*
G54D12*
D03*
X179547Y-200717D02*
G54D12*
D03*
X300197Y-83241D02*
G54D12*
D03*
X179547Y-83241D02*
G54D12*
D03*
X159584Y-143566D02*
G54D12*
D03*
X64123Y-116796D02*
G54D10*
D03*
X64235Y-167776D02*
G54D10*
D03*
X64235Y-167776D02*
G54D12*
D03*
X179547Y-200717D02*
G54D16*
D03*
X109697Y-184841D02*
G54D12*
D03*
X64235Y-167776D02*
G54D12*
D03*
X109697Y-184841D02*
G54D12*
D03*
X367174Y-118568D02*
G54D10*
D03*
X367286Y-169548D02*
G54D10*
D03*
X408449Y-118568D02*
G54D10*
D03*
X408562Y-169548D02*
G54D10*
D03*
X367286Y-169549D02*
G54D13*
D03*
X576724Y-121743D02*
G54D10*
D03*
X576836Y-172724D02*
G54D10*
D03*
X617999Y-121743D02*
G54D10*
D03*
X618112Y-172724D02*
G54D10*
D03*
X618112Y-172724D02*
G54D13*
D03*
X662147Y-114991D02*
G54D10*
D03*
X731997Y-114991D02*
G54D10*
D03*
X662147Y-184841D02*
G54D10*
D03*
X731997Y-184841D02*
G54D10*
D03*
X731997Y-153091D02*
G54D10*
D03*
X662147Y-153091D02*
G54D10*
D03*
X662147Y-184841D02*
G54D13*
D03*
X731997Y-184841D02*
G54D13*
D03*
X776749Y-121743D02*
G54D10*
D03*
X776862Y-172724D02*
G54D10*
D03*
X820897Y-114991D02*
G54D10*
D03*
X890747Y-114991D02*
G54D10*
D03*
X820897Y-184841D02*
G54D10*
D03*
X890747Y-184841D02*
G54D10*
D03*
X890747Y-153091D02*
G54D10*
D03*
X820897Y-153091D02*
G54D10*
D03*
X820897Y-184841D02*
G54D13*
D03*
X890747Y-184841D02*
G54D13*
D03*
X932324Y-128093D02*
G54D10*
D03*
X932436Y-179074D02*
G54D10*
D03*
X973599Y-131268D02*
G54D10*
D03*
X973712Y-182248D02*
G54D10*
D03*
X973712Y-182249D02*
G54D13*
D03*
X1230983Y-99226D02*
G54D11*
D03*
X1230983Y-200825D02*
G54D11*
D03*
X1040483Y-80176D02*
G54D12*
D03*
X1161133Y-83349D02*
G54D12*
D03*
X1040483Y-200826D02*
G54D12*
D03*
X1161133Y-200826D02*
G54D12*
D03*
X1181095Y-140500D02*
G54D12*
D03*
X1161133Y-200826D02*
G54D16*
D03*
X1270623Y-116796D02*
G54D10*
D03*
X1270735Y-167776D02*
G54D10*
D03*
X1270735Y-167776D02*
G54D12*
D03*
X1270735Y-167776D02*
G54D12*
D03*
X1230983Y-200825D02*
G54D12*
D03*
X452597Y-299141D02*
G54D10*
D03*
X522447Y-299141D02*
G54D10*
D03*
X452597Y-368991D02*
G54D10*
D03*
X522447Y-368991D02*
G54D10*
D03*
X522447Y-337241D02*
G54D10*
D03*
X452597Y-337241D02*
G54D10*
D03*
X109697Y-375341D02*
G54D11*
D03*
X109697Y-273741D02*
G54D11*
D03*
X452597Y-368991D02*
G54D13*
D03*
X522447Y-368991D02*
G54D13*
D03*
X300197Y-394391D02*
G54D12*
D03*
X179547Y-391217D02*
G54D12*
D03*
X300197Y-273741D02*
G54D12*
D03*
X179547Y-273741D02*
G54D12*
D03*
X159584Y-334066D02*
G54D12*
D03*
X64123Y-307296D02*
G54D10*
D03*
X64235Y-358276D02*
G54D10*
D03*
X64235Y-358276D02*
G54D12*
D03*
X179547Y-391217D02*
G54D16*
D03*
X109697Y-375341D02*
G54D12*
D03*
X64235Y-358276D02*
G54D12*
D03*
X109697Y-375341D02*
G54D12*
D03*
X367174Y-309068D02*
G54D10*
D03*
X367286Y-360048D02*
G54D10*
D03*
X408449Y-309068D02*
G54D10*
D03*
X408562Y-360048D02*
G54D10*
D03*
X367286Y-360049D02*
G54D13*
D03*
X576724Y-312243D02*
G54D10*
D03*
X576836Y-363224D02*
G54D10*
D03*
X617999Y-312243D02*
G54D10*
D03*
X618112Y-363224D02*
G54D10*
D03*
X618112Y-363224D02*
G54D13*
D03*
X662147Y-305491D02*
G54D10*
D03*
X731997Y-305491D02*
G54D10*
D03*
X662147Y-375341D02*
G54D10*
D03*
X731997Y-375341D02*
G54D10*
D03*
X731997Y-343591D02*
G54D10*
D03*
X662147Y-343591D02*
G54D10*
D03*
X662147Y-375341D02*
G54D13*
D03*
X731997Y-375341D02*
G54D13*
D03*
X776749Y-312243D02*
G54D10*
D03*
X776862Y-363224D02*
G54D10*
D03*
X820897Y-305491D02*
G54D10*
D03*
X890747Y-305491D02*
G54D10*
D03*
X820897Y-375341D02*
G54D10*
D03*
X890747Y-375341D02*
G54D10*
D03*
X890747Y-343591D02*
G54D10*
D03*
X820897Y-343591D02*
G54D10*
D03*
X820897Y-375341D02*
G54D13*
D03*
X890747Y-375341D02*
G54D13*
D03*
X932324Y-318593D02*
G54D10*
D03*
X932436Y-369574D02*
G54D10*
D03*
X973599Y-321768D02*
G54D10*
D03*
X973712Y-372748D02*
G54D10*
D03*
X973712Y-372749D02*
G54D13*
D03*
X1230983Y-289726D02*
G54D11*
D03*
X1230983Y-391325D02*
G54D11*
D03*
X1040483Y-270676D02*
G54D12*
D03*
X1161133Y-273849D02*
G54D12*
D03*
X1040483Y-391326D02*
G54D12*
D03*
X1161133Y-391326D02*
G54D12*
D03*
X1181095Y-331000D02*
G54D12*
D03*
X1161133Y-391326D02*
G54D16*
D03*
X1270623Y-307296D02*
G54D10*
D03*
X1270735Y-358276D02*
G54D10*
D03*
X1270735Y-358276D02*
G54D12*
D03*
X1270735Y-358276D02*
G54D12*
D03*
X1230983Y-391325D02*
G54D12*
D03*
X452597Y-489641D02*
G54D10*
D03*
X522447Y-489641D02*
G54D10*
D03*
X452597Y-559491D02*
G54D10*
D03*
X522447Y-559491D02*
G54D10*
D03*
X522447Y-527741D02*
G54D10*
D03*
X452597Y-527741D02*
G54D10*
D03*
X109697Y-565841D02*
G54D11*
D03*
X109697Y-464241D02*
G54D11*
D03*
X452597Y-559491D02*
G54D13*
D03*
X522447Y-559491D02*
G54D13*
D03*
X300197Y-584891D02*
G54D12*
D03*
X179547Y-581717D02*
G54D12*
D03*
X300197Y-464241D02*
G54D12*
D03*
X179547Y-464241D02*
G54D12*
D03*
X159584Y-524566D02*
G54D12*
D03*
X64123Y-497796D02*
G54D10*
D03*
X64235Y-548776D02*
G54D10*
D03*
X64235Y-548776D02*
G54D12*
D03*
X179547Y-581717D02*
G54D16*
D03*
X109697Y-565841D02*
G54D12*
D03*
X64235Y-548776D02*
G54D12*
D03*
X109697Y-565841D02*
G54D12*
D03*
X367174Y-499568D02*
G54D10*
D03*
X367286Y-550548D02*
G54D10*
D03*
X408449Y-499568D02*
G54D10*
D03*
X408562Y-550548D02*
G54D10*
D03*
X367286Y-550549D02*
G54D13*
D03*
X576724Y-502743D02*
G54D10*
D03*
X576836Y-553724D02*
G54D10*
D03*
X617999Y-502743D02*
G54D10*
D03*
X618112Y-553724D02*
G54D10*
D03*
X618112Y-553724D02*
G54D13*
D03*
X662147Y-495991D02*
G54D10*
D03*
X731997Y-495991D02*
G54D10*
D03*
X662147Y-565841D02*
G54D10*
D03*
X731997Y-565841D02*
G54D10*
D03*
X731997Y-534091D02*
G54D10*
D03*
X662147Y-534091D02*
G54D10*
D03*
X662147Y-565841D02*
G54D13*
D03*
X731997Y-565841D02*
G54D13*
D03*
X776749Y-502743D02*
G54D10*
D03*
X776862Y-553724D02*
G54D10*
D03*
X820897Y-495991D02*
G54D10*
D03*
X890747Y-495991D02*
G54D10*
D03*
X820897Y-565841D02*
G54D10*
D03*
X890747Y-565841D02*
G54D10*
D03*
X890747Y-534091D02*
G54D10*
D03*
X820897Y-534091D02*
G54D10*
D03*
X820897Y-565841D02*
G54D13*
D03*
X890747Y-565841D02*
G54D13*
D03*
X932324Y-509093D02*
G54D10*
D03*
X932436Y-560074D02*
G54D10*
D03*
X973599Y-512268D02*
G54D10*
D03*
X973712Y-563248D02*
G54D10*
D03*
X973712Y-563249D02*
G54D13*
D03*
X1230983Y-480226D02*
G54D11*
D03*
X1230983Y-581825D02*
G54D11*
D03*
X1040483Y-461176D02*
G54D12*
D03*
X1161133Y-464349D02*
G54D12*
D03*
X1040483Y-581826D02*
G54D12*
D03*
X1161133Y-581826D02*
G54D12*
D03*
X1181096Y-521500D02*
G54D12*
D03*
X1161133Y-581826D02*
G54D16*
D03*
X1270623Y-497796D02*
G54D10*
D03*
X1270735Y-548776D02*
G54D10*
D03*
X1270735Y-548776D02*
G54D12*
D03*
X1270735Y-548776D02*
G54D12*
D03*
X1230983Y-581825D02*
G54D12*
D03*
X1054397Y570084D02*
G54D10*
D03*
X1079897Y570084D02*
G54D10*
D03*
X1251247Y566909D02*
G54D10*
D03*
X1276747Y566909D02*
G54D10*
D03*
X1366997Y494609D02*
G54D17*
D03*
X1468597Y494609D02*
G54D12*
D03*
X1468597Y494609D02*
G54D17*
D03*
X1366997Y494609D02*
G54D17*
D03*
X1366997Y393009D02*
G54D12*
D03*
X1366997Y393009D02*
G54D17*
D03*
X1468597Y494609D02*
G54D17*
D03*
X1468597Y393009D02*
G54D12*
D03*
X1468597Y393009D02*
G54D17*
D03*
X1363822Y272359D02*
G54D17*
D03*
X1465422Y272359D02*
G54D12*
D03*
X1465422Y272359D02*
G54D17*
D03*
X1363822Y272359D02*
G54D17*
D03*
X1363822Y170759D02*
G54D12*
D03*
X1363822Y170759D02*
G54D17*
D03*
X1465422Y272359D02*
G54D17*
D03*
X1465422Y170759D02*
G54D12*
D03*
X1465422Y170759D02*
G54D17*
D03*
X1363822Y75509D02*
G54D17*
D03*
X1465422Y75509D02*
G54D12*
D03*
X1465422Y75509D02*
G54D17*
D03*
X1363822Y75509D02*
G54D17*
D03*
X1363822Y-26091D02*
G54D12*
D03*
X1363822Y-26091D02*
G54D17*
D03*
X1465422Y75509D02*
G54D17*
D03*
X1465422Y-26091D02*
G54D12*
D03*
X1465422Y-26091D02*
G54D17*
D03*
X1363822Y-127691D02*
G54D17*
D03*
X1465422Y-127691D02*
G54D12*
D03*
X1465422Y-127691D02*
G54D17*
D03*
X1363822Y-127691D02*
G54D17*
D03*
X1363822Y-229291D02*
G54D12*
D03*
X1363822Y-229291D02*
G54D17*
D03*
X1465422Y-127691D02*
G54D17*
D03*
X1465422Y-229291D02*
G54D12*
D03*
X1465422Y-229291D02*
G54D17*
D03*
X1363822Y-311841D02*
G54D17*
D03*
X1465422Y-311841D02*
G54D12*
D03*
X1465422Y-311841D02*
G54D17*
D03*
X1363822Y-311841D02*
G54D17*
D03*
X1363822Y-413441D02*
G54D12*
D03*
X1363822Y-413441D02*
G54D17*
D03*
X1465422Y-311841D02*
G54D17*
D03*
X1465422Y-413441D02*
G54D12*
D03*
X1465422Y-413441D02*
G54D17*
D03*
X1363822Y-495991D02*
G54D17*
D03*
X1465422Y-495991D02*
G54D12*
D03*
X1465422Y-495991D02*
G54D17*
D03*
X1363822Y-495991D02*
G54D17*
D03*
X1363822Y-597591D02*
G54D12*
D03*
X1363822Y-597591D02*
G54D17*
D03*
X1465422Y-495991D02*
G54D17*
D03*
X1465422Y-597591D02*
G54D12*
D03*
X1465422Y-597591D02*
G54D17*
D03*
X1366997Y393009D02*
G54D17*
D03*
X1468597Y393009D02*
G54D17*
D03*
X1363822Y170759D02*
G54D17*
D03*
X1465422Y170759D02*
G54D17*
D03*
X1363822Y-26091D02*
G54D17*
D03*
X1465422Y-26091D02*
G54D17*
D03*
X1363822Y-229291D02*
G54D17*
D03*
X1465422Y-229291D02*
G54D17*
D03*
X1363822Y-413441D02*
G54D17*
D03*
X1465422Y-413441D02*
G54D17*
D03*
X1363822Y-597591D02*
G54D17*
D03*
X1465422Y-597591D02*
G54D17*
D03*
X1601947Y-616766D02*
G54D15*
D03*
X1595597Y621484D02*
G54D15*
D03*
G36*
X176047Y652084D02*
X202047Y652084D01*
X202047Y626084D01*
X176047Y626084D01*
X176047Y652084D01*
G37*
X1554297Y-10241D02*
G54D12*
D03*
X1605097Y-10241D02*
G54D12*
D03*
X1579697Y-35641D02*
G54D12*
D03*
X1605097Y-61041D02*
G54D12*
D03*
X1554297Y-61041D02*
G54D12*
D03*
X1554297Y-10241D02*
G54D14*
D03*
X1605097Y-10241D02*
G54D13*
D03*
X1554297Y-61041D02*
G54D13*
D03*
X1605097Y-61041D02*
G54D13*
D03*
X1519397Y-13391D02*
G54D12*
D03*
G36*
X1599047Y464759D02*
X1599047Y438759D01*
X1573047Y438759D01*
X1573047Y464759D01*
X1599047Y464759D01*
G37*
G36*
X1599047Y248859D02*
X1599047Y222859D01*
X1573047Y222859D01*
X1573047Y248859D01*
X1599047Y248859D01*
G37*
G36*
X1599047Y-208341D02*
X1599047Y-234341D01*
X1573047Y-234341D01*
X1573047Y-208341D01*
X1599047Y-208341D01*
G37*
G36*
X1599047Y-405191D02*
X1599047Y-431191D01*
X1573047Y-431191D01*
X1573047Y-405191D01*
X1599047Y-405191D01*
G37*
G36*
X119497Y-640141D02*
X119497Y-666141D01*
X93497Y-666141D01*
X93497Y-640141D01*
X119497Y-640141D01*
G37*
G36*
X1300597Y-633791D02*
X1300597Y-659791D01*
X1274597Y-659791D01*
X1274597Y-633791D01*
X1300597Y-633791D01*
G37*
G36*
X710047Y-646491D02*
X710047Y-672491D01*
X684047Y-672491D01*
X684047Y-646491D01*
X710047Y-646491D01*
G37*
M02*
