; Drill file
; Format: 2.4 (00.0000)
M48
INCH
T01C0.0283
T02C0.0354
T03C0.0394
T04C0.0591
T05C0.1299
%
G05
G90
T01
X010250Y-043750
X010250Y-036250
X010250Y-028750
X010250Y-021250
X010250Y-013750
X010250Y-006250
X002500Y-013750
X002500Y-017750
X054400Y-014380
X054400Y-006880
X054400Y-021880
X054400Y-029380
X054400Y-036880
X054400Y-044380
T02
X001120Y-041690
X008460Y-045070
X008460Y-037570
X008460Y-030070
X008460Y-022570
X008460Y-015070
X004890Y-014640
X008460Y-007570
X012690Y-003030
X013700Y-003030
X013370Y-000310
X020940Y-003030
X021950Y-003030
X021620Y-000190
X023750Y-007250
X023750Y-008750
X023750Y-010000
X022020Y-009650
X020390Y-009650
X020390Y-007640
X022010Y-007640
X026500Y-007250
X026500Y-008750
X026500Y-010000
X028640Y-009770
X030270Y-009770
X032000Y-010250
X032000Y-009000
X032000Y-007500
X030260Y-007770
X028640Y-007770
X029940Y-003150
X030950Y-003150
X030370Y-000190
X038620Y-000060
X038440Y-003150
X039450Y-003150
X038250Y-007500
X038250Y-009000
X038250Y-010250
X036520Y-009770
X034750Y-010250
X034750Y-009000
X034750Y-007500
X036510Y-007770
X041000Y-007500
X041000Y-009000
X041000Y-010250
X042640Y-010020
X044270Y-010150
X044260Y-008140
X042640Y-008020
X047440Y-003030
X048450Y-003030
X048120Y-000190
X055250Y-000190
X055190Y-003150
X056200Y-003150
X055960Y-007570
X055960Y-015070
X055960Y-022570
X055960Y-030070
X055960Y-037570
X055960Y-045070
X044260Y-045640
X042640Y-045520
X041000Y-045000
X041000Y-046500
X041000Y-047750
X042640Y-047520
X044270Y-047650
X038250Y-047750
X038250Y-046500
X038250Y-045000
X036510Y-045270
X034750Y-045000
X034750Y-046500
X034750Y-047750
X036520Y-047270
X032000Y-047750
X032000Y-046500
X032000Y-045000
X030260Y-045270
X028640Y-045270
X028640Y-047270
X030270Y-047270
X026500Y-047500
X026500Y-046250
X026500Y-044750
X023750Y-044750
X023750Y-046250
X023750Y-047500
X022020Y-047150
X020390Y-047150
X020390Y-045140
X022010Y-045140
X023750Y-040000
X023750Y-038750
X023750Y-037250
X022010Y-037640
X020390Y-037640
X020390Y-039650
X022020Y-039650
X026500Y-040000
X026500Y-038750
X026500Y-037250
X028640Y-037770
X030260Y-037770
X032000Y-037500
X032000Y-039000
X032000Y-040250
X030270Y-039770
X028640Y-039770
X034750Y-040250
X034750Y-039000
X034750Y-037500
X036510Y-037770
X038250Y-037500
X038250Y-039000
X038250Y-040250
X036520Y-039770
X041000Y-040250
X041000Y-039000
X041000Y-037500
X042640Y-038020
X044260Y-038140
X044270Y-040150
X042640Y-040020
X041000Y-032750
X041000Y-031500
X041000Y-030000
X042640Y-030520
X044260Y-030640
X044270Y-032650
X042640Y-032520
X038250Y-032750
X038250Y-031500
X038250Y-030000
X036510Y-030270
X034750Y-030000
X034750Y-031500
X034750Y-032750
X036520Y-032270
X032000Y-032750
X032000Y-031500
X032000Y-030000
X030260Y-030270
X028640Y-030270
X028640Y-032270
X030270Y-032270
X026500Y-032500
X026500Y-031250
X026500Y-029750
X023750Y-029750
X023750Y-031250
X023750Y-032500
X022020Y-032150
X020390Y-032150
X020390Y-030140
X022010Y-030140
X023750Y-025000
X023750Y-023750
X023750Y-022250
X022010Y-022640
X020390Y-022640
X020390Y-024650
X022020Y-024650
X026500Y-025000
X026500Y-023750
X026500Y-022250
X028640Y-022770
X030260Y-022770
X032000Y-022500
X032000Y-024000
X032000Y-025250
X030270Y-024770
X028640Y-024770
X034750Y-025250
X034750Y-024000
X034750Y-022500
X036510Y-022770
X038250Y-022500
X038250Y-024000
X038250Y-025250
X036520Y-024770
X041000Y-025250
X041000Y-024000
X041000Y-022500
X042640Y-023020
X044260Y-023140
X044270Y-025150
X042640Y-025020
X041000Y-017750
X041000Y-016500
X041000Y-015000
X042640Y-015520
X044260Y-015640
X044270Y-017650
X042640Y-017520
X038250Y-017750
X038250Y-016500
X038250Y-015000
X036510Y-015270
X034750Y-015000
X034750Y-016500
X034750Y-017750
X036520Y-017270
X032000Y-017750
X032000Y-016500
X032000Y-015000
X030260Y-015270
X028640Y-015270
X028640Y-017270
X030270Y-017270
X026500Y-017500
X026500Y-016250
X026500Y-014750
X023750Y-014750
X023750Y-016250
X023750Y-017500
X022020Y-017150
X020390Y-017150
X020390Y-015140
X022010Y-015140
X004570Y-002280
X003570Y-002280
X001120Y-006690
T03
X008460Y-047080
X010250Y-047750
X012310Y-046120
X013000Y-048380
X013000Y-043750
X013000Y-040880
X012310Y-038620
X013000Y-036250
X013000Y-033380
X012310Y-031120
X013000Y-028750
X013000Y-025880
X012310Y-023620
X013000Y-021250
X013000Y-018380
X012310Y-016130
X013000Y-013750
X013000Y-010880
X012310Y-008630
X013000Y-006250
X017750Y-006250
X017750Y-011000
X017750Y-013750
X017750Y-018500
X017750Y-021250
X017750Y-026000
X017750Y-028750
X017750Y-033500
X017750Y-036250
X017750Y-041000
X017750Y-043750
X017750Y-048500
X010250Y-040250
X008460Y-039580
X004620Y-036380
X003620Y-035380
X004620Y-034380
X002620Y-034380
X002620Y-036380
X001180Y-030220
X005930Y-030220
X008460Y-032080
X010250Y-032750
X010250Y-025250
X008460Y-024580
X005930Y-025470
X003560Y-025040
X001310Y-025470
X002620Y-021880
X003620Y-020880
X002620Y-019880
X004620Y-019880
X004620Y-021880
X004890Y-016650
X006490Y-015630
X006000Y-014130
X008460Y-017080
X010250Y-017750
X010250Y-010250
X008460Y-009580
X046900Y-010880
X046900Y-013630
X046900Y-018380
X046900Y-021130
X046900Y-025880
X046900Y-028630
X046900Y-033380
X046900Y-036130
X046900Y-040880
X046900Y-043630
X046900Y-048380
X051650Y-048380
X052330Y-046000
X051650Y-043750
X051650Y-040880
X052330Y-038500
X051650Y-036250
X051650Y-033380
X052330Y-031000
X051650Y-028750
X051650Y-025880
X052330Y-023500
X051650Y-021250
X051650Y-018380
X052330Y-016000
X051650Y-013750
X051650Y-010880
X052330Y-008500
X051650Y-006250
X046900Y-006130
X054400Y-010880
X055960Y-009580
X055960Y-017080
X054400Y-018380
X055960Y-024580
X054400Y-025880
X055960Y-032080
X054400Y-033380
X055960Y-039580
X054400Y-040880
X055960Y-047080
X054400Y-048380
X067120Y-027880
X068120Y-026880
X069120Y-025880
X069120Y-027880
X067120Y-025880
X065750Y-026000
T04
X059630Y-049000
X059630Y-045000
X059630Y-041750
X059630Y-037750
X059630Y-034500
X059630Y-030500
X063620Y-030500
X063620Y-026500
X063620Y-022500
X063620Y-018750
X063620Y-014750
X059630Y-014750
X059630Y-018750
X059630Y-022500
X059630Y-026500
X063620Y-034500
X063620Y-037750
X063620Y-041750
X063620Y-045000
X063620Y-049000
X063750Y-010000
X063750Y-006000
X059750Y-006000
X059750Y-010000
T05
X001500Y-050000
X001250Y-000880
X068750Y-001000
X069000Y-049750
M30
