%FSLAX34Y34*%
%MOMM*%
%LNCOPPER_BOTTOM*%
G71*
G01*
%ADD10C,3.200*%
%ADD11C,2.800*%
%ADD12C,2.700*%
%ADD13C,3.000*%
%ADD14C,2.800*%
%ADD15C,2.800*%
%ADD16C,3.000*%
%ADD17C,1.600*%
%ADD18C,1.400*%
%ADD19C,1.700*%
%ADD20C,3.800*%
%ADD21C,1.800*%
%ADD22C,2.400*%
%ADD23C,0.667*%
%ADD24C,1.340*%
%ADD25C,0.813*%
%ADD26C,1.193*%
%ADD27C,0.733*%
%ADD28C,1.607*%
%ADD29C,1.447*%
%ADD30C,1.920*%
%ADD31C,2.000*%
%ADD32C,1.900*%
%ADD33C,2.200*%
%ADD34C,2.000*%
%ADD35C,2.000*%
%ADD36C,4.300*%
%ADD37C,2.200*%
%ADD38C,0.800*%
%ADD39C,0.600*%
%ADD40C,0.900*%
%ADD41C,3.000*%
%ADD42C,1.000*%
%LPD*%
G36*
X-157003Y662759D02*
X1642997Y662759D01*
X1642997Y-677241D01*
X-157003Y-677241D01*
X-157003Y662759D01*
G37*
%LPC*%
X171747Y570084D02*
G54D10*
D03*
X197247Y570084D02*
G54D10*
D03*
X381297Y570084D02*
G54D10*
D03*
X406797Y570084D02*
G54D10*
D03*
X452597Y462859D02*
G54D11*
D03*
X522447Y462859D02*
G54D11*
D03*
X452597Y393009D02*
G54D11*
D03*
X522447Y393009D02*
G54D11*
D03*
X522447Y424759D02*
G54D11*
D03*
X452597Y424759D02*
G54D11*
D03*
X109697Y386659D02*
G54D12*
D03*
X109697Y488259D02*
G54D12*
D03*
X609897Y566909D02*
G54D10*
D03*
X635397Y566909D02*
G54D10*
D03*
X825797Y566909D02*
G54D10*
D03*
X851297Y566909D02*
G54D10*
D03*
X-84003Y142159D02*
G54D13*
D03*
X-33203Y142159D02*
G54D13*
D03*
X-58603Y116759D02*
G54D13*
D03*
X-33203Y91359D02*
G54D13*
D03*
X-84003Y91359D02*
G54D13*
D03*
X-84003Y-226141D02*
G54D13*
D03*
X-33203Y-226141D02*
G54D13*
D03*
X-58603Y-251541D02*
G54D13*
D03*
X-33203Y-276941D02*
G54D13*
D03*
X-84003Y-276941D02*
G54D13*
D03*
X452597Y393009D02*
G54D14*
D03*
X522447Y393009D02*
G54D14*
D03*
X-84003Y142159D02*
G54D14*
D03*
X-33203Y142159D02*
G54D14*
D03*
X-84003Y91359D02*
G54D14*
D03*
X-33203Y91359D02*
G54D14*
D03*
X-84003Y-226141D02*
G54D15*
D03*
X-33203Y-226141D02*
G54D14*
D03*
X-84003Y-276941D02*
G54D14*
D03*
X-33203Y-276941D02*
G54D14*
D03*
X-87153Y196159D02*
G54D12*
D03*
X-87153Y297759D02*
G54D12*
D03*
X-26526Y275132D02*
G54D10*
D03*
X-26414Y224152D02*
G54D10*
D03*
X-60028Y589134D02*
G54D10*
D03*
X-34528Y589134D02*
G54D10*
D03*
X-87153Y196159D02*
G54D14*
D03*
G36*
X384597Y656259D02*
X412597Y656259D01*
X412597Y628259D01*
X384597Y628259D01*
X384597Y656259D01*
G37*
G36*
X606847Y656259D02*
X634847Y656259D01*
X634847Y628259D01*
X606847Y628259D01*
X606847Y656259D01*
G37*
G36*
X816397Y659434D02*
X844397Y659434D01*
X844397Y631434D01*
X816397Y631434D01*
X816397Y659434D01*
G37*
G36*
X1057697Y656259D02*
X1085697Y656259D01*
X1085697Y628259D01*
X1057697Y628259D01*
X1057697Y656259D01*
G37*
G36*
X1238672Y656259D02*
X1266672Y656259D01*
X1266672Y628259D01*
X1238672Y628259D01*
X1238672Y656259D01*
G37*
G36*
X-108103Y491159D02*
X-108103Y463159D01*
X-136103Y463159D01*
X-136103Y491159D01*
X-108103Y491159D01*
G37*
G36*
X-108103Y-397841D02*
X-108103Y-425841D01*
X-136103Y-425841D01*
X-136103Y-397841D01*
X-108103Y-397841D01*
G37*
X300197Y367609D02*
G54D13*
D03*
X179547Y370783D02*
G54D13*
D03*
X300197Y488259D02*
G54D13*
D03*
X179547Y488259D02*
G54D13*
D03*
X159584Y427934D02*
G54D13*
D03*
X64123Y454704D02*
G54D10*
D03*
X64235Y403724D02*
G54D10*
D03*
X64235Y403724D02*
G54D13*
D03*
X-120650Y-120650D02*
G54D13*
D03*
X-117476Y0D02*
G54D13*
D03*
X0Y-120650D02*
G54D13*
D03*
X0Y0D02*
G54D13*
D03*
X-60325Y20112D02*
G54D13*
D03*
X179547Y370783D02*
G54D16*
D03*
X-117476Y0D02*
G54D13*
D03*
G54D17*
X64123Y454704D02*
X65247Y453209D01*
X103347Y491309D01*
X109697Y491309D01*
X109697Y488259D01*
G54D17*
X179547Y488259D02*
X179547Y491309D01*
X109697Y491309D01*
X109697Y488259D01*
G54D18*
X-120650Y-120650D02*
X-118903Y-118291D01*
X-106203Y-130991D01*
X-106203Y-232591D01*
X-87153Y-251641D01*
X-61753Y-251641D01*
X-58603Y-251541D01*
X109697Y386659D02*
G54D13*
D03*
X14266Y249896D02*
G54D13*
D03*
X64235Y403724D02*
G54D13*
D03*
X109697Y386659D02*
G54D13*
D03*
X-26414Y224152D02*
G54D13*
D03*
X1747Y288109D02*
G54D13*
D03*
G54D18*
X197247Y570084D02*
X195422Y567509D01*
X170022Y567509D01*
X171747Y570084D01*
G54D18*
X635397Y566909D02*
X633572Y564334D01*
X608172Y564334D01*
X609897Y566909D01*
G54D18*
X851297Y566909D02*
X849472Y564334D01*
X824072Y564334D01*
X825797Y566909D01*
X367174Y452932D02*
G54D10*
D03*
X367286Y401952D02*
G54D10*
D03*
X408449Y452932D02*
G54D10*
D03*
X408562Y401952D02*
G54D10*
D03*
X367286Y401951D02*
G54D14*
D03*
X576724Y449757D02*
G54D10*
D03*
X576836Y398776D02*
G54D10*
D03*
X617999Y449757D02*
G54D10*
D03*
X618112Y398776D02*
G54D10*
D03*
X618112Y398776D02*
G54D14*
D03*
X662147Y456509D02*
G54D11*
D03*
X731997Y456509D02*
G54D11*
D03*
X662147Y386659D02*
G54D11*
D03*
X731997Y386659D02*
G54D11*
D03*
X731997Y418409D02*
G54D11*
D03*
X662147Y418409D02*
G54D11*
D03*
X662147Y386659D02*
G54D14*
D03*
X731997Y386659D02*
G54D14*
D03*
X776749Y449757D02*
G54D10*
D03*
X776862Y398776D02*
G54D10*
D03*
X820897Y456509D02*
G54D11*
D03*
X890747Y456509D02*
G54D11*
D03*
X820897Y386659D02*
G54D11*
D03*
X890747Y386659D02*
G54D11*
D03*
X890747Y418409D02*
G54D11*
D03*
X820897Y418409D02*
G54D11*
D03*
X820897Y386659D02*
G54D14*
D03*
X890747Y386659D02*
G54D14*
D03*
X932324Y443407D02*
G54D10*
D03*
X932436Y392426D02*
G54D10*
D03*
X973599Y440232D02*
G54D10*
D03*
X973712Y389252D02*
G54D10*
D03*
X973712Y389251D02*
G54D14*
D03*
G54D19*
X408449Y452932D02*
X404041Y455897D01*
X416741Y468597D01*
X454841Y468597D01*
X452597Y462859D01*
G54D19*
X576724Y449757D02*
X581841Y455897D01*
X569141Y468597D01*
X518341Y468597D01*
X522447Y462859D01*
G54D19*
X617999Y449757D02*
X619941Y455897D01*
X581841Y417797D01*
X581841Y405097D01*
X576837Y398777D01*
G54D19*
X662147Y456509D02*
X658041Y455897D01*
X619941Y455897D01*
X617999Y449757D01*
G54D19*
X776749Y449757D02*
X772341Y455897D01*
X734241Y455897D01*
X731997Y456509D01*
G54D19*
X820897Y456509D02*
X823141Y455897D01*
X772341Y405097D01*
X776861Y398777D01*
G54D19*
X932324Y443407D02*
X937441Y443197D01*
X924741Y455897D01*
X886641Y455897D01*
X890747Y456509D01*
G54D19*
X973599Y440232D02*
X975541Y443197D01*
X937441Y405097D01*
X937441Y392397D01*
X932437Y392427D01*
G54D19*
X367174Y452932D02*
X365941Y455897D01*
X302441Y392397D01*
X302441Y366997D01*
X300197Y367609D01*
G54D19*
X408561Y401951D02*
X404041Y405097D01*
X365941Y443197D01*
X365941Y455897D01*
X367174Y452932D01*
X1230983Y472274D02*
G54D12*
D03*
X1230983Y370675D02*
G54D12*
D03*
X1040483Y491324D02*
G54D13*
D03*
X1161133Y488151D02*
G54D13*
D03*
X1040483Y370674D02*
G54D13*
D03*
X1161133Y370675D02*
G54D13*
D03*
X1181095Y431000D02*
G54D13*
D03*
X1161133Y370675D02*
G54D16*
D03*
X1270623Y454704D02*
G54D10*
D03*
X1270735Y403724D02*
G54D10*
D03*
X1270735Y403724D02*
G54D13*
D03*
X1270735Y403724D02*
G54D13*
D03*
X1230983Y370675D02*
G54D13*
D03*
G54D19*
X1040483Y491325D02*
X1039041Y493997D01*
X988241Y443197D01*
X975541Y443197D01*
X973599Y440232D01*
G54D19*
X1161133Y488151D02*
X1166041Y493997D01*
X1191441Y468597D01*
X1229541Y468597D01*
X1230983Y472275D01*
G54D19*
X1270623Y454704D02*
X1267641Y455897D01*
X1254941Y468597D01*
X1229541Y468597D01*
X1230983Y472275D01*
X452597Y272359D02*
G54D11*
D03*
X522447Y272359D02*
G54D11*
D03*
X452597Y202509D02*
G54D11*
D03*
X522447Y202509D02*
G54D11*
D03*
X522447Y234259D02*
G54D11*
D03*
X452597Y234259D02*
G54D11*
D03*
X109697Y196159D02*
G54D12*
D03*
X109697Y297759D02*
G54D12*
D03*
X452597Y202509D02*
G54D14*
D03*
X522447Y202509D02*
G54D14*
D03*
X300197Y177109D02*
G54D13*
D03*
X179547Y180283D02*
G54D13*
D03*
X300197Y297759D02*
G54D13*
D03*
X179547Y297759D02*
G54D13*
D03*
X159584Y237434D02*
G54D13*
D03*
X64123Y264204D02*
G54D10*
D03*
X64235Y213224D02*
G54D10*
D03*
X64235Y213224D02*
G54D13*
D03*
X179547Y180283D02*
G54D16*
D03*
G54D17*
X64123Y264204D02*
X65247Y262709D01*
X103347Y300809D01*
X109697Y300809D01*
X109697Y297759D01*
G54D17*
X179547Y297759D02*
X179547Y300809D01*
X109697Y300809D01*
X109697Y297759D01*
X109697Y196159D02*
G54D13*
D03*
X64235Y213224D02*
G54D13*
D03*
X109697Y196159D02*
G54D13*
D03*
X367174Y262432D02*
G54D10*
D03*
X367286Y211452D02*
G54D10*
D03*
X408449Y262432D02*
G54D10*
D03*
X408562Y211452D02*
G54D10*
D03*
X367286Y211451D02*
G54D14*
D03*
X576724Y259257D02*
G54D10*
D03*
X576836Y208276D02*
G54D10*
D03*
X617999Y259257D02*
G54D10*
D03*
X618112Y208276D02*
G54D10*
D03*
X618112Y208276D02*
G54D14*
D03*
X662147Y266009D02*
G54D11*
D03*
X731997Y266009D02*
G54D11*
D03*
X662147Y196159D02*
G54D11*
D03*
X731997Y196159D02*
G54D11*
D03*
X731997Y227909D02*
G54D11*
D03*
X662147Y227909D02*
G54D11*
D03*
X662147Y196159D02*
G54D14*
D03*
X731997Y196159D02*
G54D14*
D03*
X776749Y259257D02*
G54D10*
D03*
X776862Y208276D02*
G54D10*
D03*
X820897Y266009D02*
G54D11*
D03*
X890747Y266009D02*
G54D11*
D03*
X820897Y196159D02*
G54D11*
D03*
X890747Y196159D02*
G54D11*
D03*
X890747Y227909D02*
G54D11*
D03*
X820897Y227909D02*
G54D11*
D03*
X820897Y196159D02*
G54D14*
D03*
X890747Y196159D02*
G54D14*
D03*
X932324Y252907D02*
G54D10*
D03*
X932436Y201926D02*
G54D10*
D03*
X973599Y249732D02*
G54D10*
D03*
X973712Y198752D02*
G54D10*
D03*
X973712Y198751D02*
G54D14*
D03*
G54D19*
X408449Y262432D02*
X404041Y265397D01*
X416741Y278097D01*
X454841Y278097D01*
X452597Y272359D01*
G54D19*
X576724Y259257D02*
X581841Y265397D01*
X569141Y278097D01*
X518341Y278097D01*
X522447Y272359D01*
G54D19*
X617999Y259257D02*
X619941Y265397D01*
X581841Y227297D01*
X581841Y214597D01*
X576837Y208277D01*
G54D19*
X662147Y266009D02*
X658041Y265397D01*
X619941Y265397D01*
X617999Y259257D01*
G54D19*
X776749Y259257D02*
X772341Y265397D01*
X734241Y265397D01*
X731997Y266009D01*
G54D19*
X820897Y266009D02*
X823141Y265397D01*
X772341Y214597D01*
X776861Y208277D01*
G54D19*
X932324Y252907D02*
X937441Y252697D01*
X924741Y265397D01*
X886641Y265397D01*
X890747Y266009D01*
G54D19*
X973599Y249732D02*
X975541Y252697D01*
X937441Y214597D01*
X937441Y201897D01*
X932437Y201927D01*
G54D19*
X367174Y262432D02*
X365941Y265397D01*
X302441Y201897D01*
X302441Y176497D01*
X300197Y177109D01*
G54D19*
X408561Y211451D02*
X404041Y214597D01*
X365941Y252697D01*
X365941Y265397D01*
X367174Y262432D01*
X1230983Y281774D02*
G54D12*
D03*
X1230983Y180175D02*
G54D12*
D03*
X1040483Y300824D02*
G54D13*
D03*
X1161133Y297651D02*
G54D13*
D03*
X1040483Y180174D02*
G54D13*
D03*
X1161133Y180174D02*
G54D13*
D03*
X1181595Y240500D02*
G54D13*
D03*
X1161133Y180174D02*
G54D16*
D03*
X1270623Y264204D02*
G54D10*
D03*
X1270735Y213224D02*
G54D10*
D03*
X1270735Y213224D02*
G54D13*
D03*
X1270735Y213224D02*
G54D13*
D03*
X1230983Y180175D02*
G54D13*
D03*
G54D19*
X1040483Y300825D02*
X1039041Y303497D01*
X988241Y252697D01*
X975541Y252697D01*
X973599Y249732D01*
G54D19*
X1161133Y297651D02*
X1166041Y303497D01*
X1191441Y278097D01*
X1229541Y278097D01*
X1230983Y281775D01*
G54D19*
X1270623Y264204D02*
X1267641Y265397D01*
X1254941Y278097D01*
X1229541Y278097D01*
X1230983Y281775D01*
X452597Y81859D02*
G54D11*
D03*
X522447Y81859D02*
G54D11*
D03*
X452597Y12009D02*
G54D11*
D03*
X522447Y12009D02*
G54D11*
D03*
X522447Y43759D02*
G54D11*
D03*
X452597Y43759D02*
G54D11*
D03*
X109697Y5659D02*
G54D12*
D03*
X109697Y107259D02*
G54D12*
D03*
X452597Y12009D02*
G54D14*
D03*
X522447Y12009D02*
G54D14*
D03*
X300197Y-13391D02*
G54D13*
D03*
X179547Y-10217D02*
G54D13*
D03*
X300197Y107259D02*
G54D13*
D03*
X179547Y107259D02*
G54D13*
D03*
X159584Y46934D02*
G54D13*
D03*
X64123Y73704D02*
G54D10*
D03*
X64235Y22724D02*
G54D10*
D03*
X64235Y22724D02*
G54D13*
D03*
X179547Y-10217D02*
G54D16*
D03*
G54D17*
X64123Y73704D02*
X65247Y72209D01*
X103347Y110309D01*
X109697Y110309D01*
X109697Y107259D01*
G54D17*
X179547Y107259D02*
X179547Y110309D01*
X109697Y110309D01*
X109697Y107259D01*
X109697Y5659D02*
G54D13*
D03*
X64235Y22724D02*
G54D13*
D03*
X109697Y5659D02*
G54D13*
D03*
X367174Y71932D02*
G54D10*
D03*
X367286Y20952D02*
G54D10*
D03*
X408449Y71932D02*
G54D10*
D03*
X408562Y20952D02*
G54D10*
D03*
X367286Y20951D02*
G54D14*
D03*
X576724Y68757D02*
G54D10*
D03*
X576836Y17776D02*
G54D10*
D03*
X617999Y68757D02*
G54D10*
D03*
X618112Y17776D02*
G54D10*
D03*
X618112Y17776D02*
G54D14*
D03*
X662147Y75509D02*
G54D11*
D03*
X731997Y75509D02*
G54D11*
D03*
X662147Y5659D02*
G54D11*
D03*
X731997Y5659D02*
G54D11*
D03*
X731997Y37409D02*
G54D11*
D03*
X662147Y37409D02*
G54D11*
D03*
X662147Y5659D02*
G54D14*
D03*
X731997Y5659D02*
G54D14*
D03*
X776749Y68757D02*
G54D10*
D03*
X776862Y17776D02*
G54D10*
D03*
X820897Y75509D02*
G54D11*
D03*
X890747Y75509D02*
G54D11*
D03*
X820897Y5659D02*
G54D11*
D03*
X890747Y5659D02*
G54D11*
D03*
X890747Y37409D02*
G54D11*
D03*
X820897Y37409D02*
G54D11*
D03*
X820897Y5659D02*
G54D14*
D03*
X890747Y5659D02*
G54D14*
D03*
X932324Y62407D02*
G54D10*
D03*
X932436Y11426D02*
G54D10*
D03*
X973599Y59232D02*
G54D10*
D03*
X973712Y8252D02*
G54D10*
D03*
X973712Y8251D02*
G54D14*
D03*
G54D19*
X408449Y71932D02*
X404041Y74897D01*
X416741Y87597D01*
X454841Y87597D01*
X452597Y81859D01*
G54D19*
X576724Y68757D02*
X581841Y74897D01*
X569141Y87597D01*
X518341Y87597D01*
X522447Y81859D01*
G54D19*
X617999Y68757D02*
X619941Y74897D01*
X581841Y36797D01*
X581841Y24097D01*
X576837Y17777D01*
G54D19*
X662147Y75509D02*
X658041Y74897D01*
X619941Y74897D01*
X617999Y68757D01*
G54D19*
X776749Y68757D02*
X772341Y74897D01*
X734241Y74897D01*
X731997Y75509D01*
G54D19*
X820897Y75509D02*
X823141Y74897D01*
X772341Y24097D01*
X776861Y17777D01*
G54D19*
X932324Y62407D02*
X937441Y62197D01*
X924741Y74897D01*
X886641Y74897D01*
X890747Y75509D01*
G54D19*
X973599Y59232D02*
X975541Y62197D01*
X937441Y24097D01*
X937441Y11397D01*
X932437Y11427D01*
G54D19*
X367174Y71932D02*
X365941Y74897D01*
X302441Y11397D01*
X302441Y-14003D01*
X300197Y-13391D01*
G54D19*
X408561Y20951D02*
X404041Y24097D01*
X365941Y62197D01*
X365941Y74897D01*
X367174Y71932D01*
X1230983Y91274D02*
G54D12*
D03*
X1230983Y-10325D02*
G54D12*
D03*
X1040483Y110324D02*
G54D13*
D03*
X1161133Y107151D02*
G54D13*
D03*
X1040483Y-10326D02*
G54D13*
D03*
X1161133Y-10326D02*
G54D13*
D03*
X1181095Y50000D02*
G54D13*
D03*
X1161133Y-10326D02*
G54D16*
D03*
X1270623Y73704D02*
G54D10*
D03*
X1270735Y22724D02*
G54D10*
D03*
X1270735Y22724D02*
G54D13*
D03*
X1270735Y22724D02*
G54D13*
D03*
X1230983Y-10325D02*
G54D13*
D03*
G54D19*
X1040483Y110325D02*
X1039041Y112997D01*
X988241Y62197D01*
X975541Y62197D01*
X973599Y59232D01*
G54D19*
X1161133Y107151D02*
X1166041Y112997D01*
X1191441Y87597D01*
X1229541Y87597D01*
X1230983Y91275D01*
G54D19*
X1270623Y73704D02*
X1267641Y74897D01*
X1254941Y87597D01*
X1229541Y87597D01*
X1230983Y91275D01*
X452597Y-108641D02*
G54D11*
D03*
X522447Y-108641D02*
G54D11*
D03*
X452597Y-178491D02*
G54D11*
D03*
X522447Y-178491D02*
G54D11*
D03*
X522447Y-146741D02*
G54D11*
D03*
X452597Y-146741D02*
G54D11*
D03*
X109697Y-184841D02*
G54D12*
D03*
X109697Y-83241D02*
G54D12*
D03*
X452597Y-178491D02*
G54D14*
D03*
X522447Y-178491D02*
G54D14*
D03*
X300197Y-203891D02*
G54D13*
D03*
X179547Y-200717D02*
G54D13*
D03*
X300197Y-83241D02*
G54D13*
D03*
X179547Y-83241D02*
G54D13*
D03*
X159584Y-143566D02*
G54D13*
D03*
X64123Y-116796D02*
G54D10*
D03*
X64235Y-167776D02*
G54D10*
D03*
X64235Y-167776D02*
G54D13*
D03*
X179547Y-200717D02*
G54D16*
D03*
G54D17*
X64123Y-116796D02*
X65247Y-118291D01*
X103347Y-80191D01*
X109697Y-80191D01*
X109697Y-83241D01*
G54D17*
X179547Y-83241D02*
X179547Y-80191D01*
X109697Y-80191D01*
X109697Y-83241D01*
X109697Y-184841D02*
G54D13*
D03*
X64235Y-167776D02*
G54D13*
D03*
X109697Y-184841D02*
G54D13*
D03*
X367174Y-118568D02*
G54D10*
D03*
X367286Y-169548D02*
G54D10*
D03*
X408449Y-118568D02*
G54D10*
D03*
X408562Y-169548D02*
G54D10*
D03*
X367286Y-169549D02*
G54D14*
D03*
X576724Y-121743D02*
G54D10*
D03*
X576836Y-172724D02*
G54D10*
D03*
X617999Y-121743D02*
G54D10*
D03*
X618112Y-172724D02*
G54D10*
D03*
X618112Y-172724D02*
G54D14*
D03*
X662147Y-114991D02*
G54D11*
D03*
X731997Y-114991D02*
G54D11*
D03*
X662147Y-184841D02*
G54D11*
D03*
X731997Y-184841D02*
G54D11*
D03*
X731997Y-153091D02*
G54D11*
D03*
X662147Y-153091D02*
G54D11*
D03*
X662147Y-184841D02*
G54D14*
D03*
X731997Y-184841D02*
G54D14*
D03*
X776749Y-121743D02*
G54D10*
D03*
X776862Y-172724D02*
G54D10*
D03*
X820897Y-114991D02*
G54D11*
D03*
X890747Y-114991D02*
G54D11*
D03*
X820897Y-184841D02*
G54D11*
D03*
X890747Y-184841D02*
G54D11*
D03*
X890747Y-153091D02*
G54D11*
D03*
X820897Y-153091D02*
G54D11*
D03*
X820897Y-184841D02*
G54D14*
D03*
X890747Y-184841D02*
G54D14*
D03*
X932324Y-128093D02*
G54D10*
D03*
X932436Y-179074D02*
G54D10*
D03*
X973599Y-131268D02*
G54D10*
D03*
X973712Y-182248D02*
G54D10*
D03*
X973712Y-182249D02*
G54D14*
D03*
G54D19*
X408449Y-118568D02*
X404041Y-115603D01*
X416741Y-102903D01*
X454841Y-102903D01*
X452597Y-108641D01*
G54D19*
X576724Y-121743D02*
X581841Y-115603D01*
X569141Y-102903D01*
X518341Y-102903D01*
X522447Y-108641D01*
G54D19*
X617999Y-121743D02*
X619941Y-115603D01*
X581841Y-153703D01*
X581841Y-166403D01*
X576837Y-172723D01*
G54D19*
X662147Y-114991D02*
X658041Y-115603D01*
X619941Y-115603D01*
X617999Y-121743D01*
G54D19*
X776749Y-121743D02*
X772341Y-115603D01*
X734241Y-115603D01*
X731997Y-114991D01*
G54D19*
X820897Y-114991D02*
X823141Y-115603D01*
X772341Y-166403D01*
X776861Y-172723D01*
G54D19*
X932324Y-128093D02*
X937441Y-128303D01*
X924741Y-115603D01*
X886641Y-115603D01*
X890747Y-114991D01*
G54D19*
X973599Y-131268D02*
X975541Y-128303D01*
X937441Y-166403D01*
X937441Y-179103D01*
X932437Y-179073D01*
G54D19*
X367174Y-118568D02*
X365941Y-115603D01*
X302441Y-179103D01*
X302441Y-204503D01*
X300197Y-203891D01*
G54D19*
X408561Y-169549D02*
X404041Y-166403D01*
X365941Y-128303D01*
X365941Y-115603D01*
X367174Y-118568D01*
X1230983Y-99226D02*
G54D12*
D03*
X1230983Y-200825D02*
G54D12*
D03*
X1040483Y-80176D02*
G54D13*
D03*
X1161133Y-83349D02*
G54D13*
D03*
X1040483Y-200826D02*
G54D13*
D03*
X1161133Y-200826D02*
G54D13*
D03*
X1181095Y-140500D02*
G54D13*
D03*
X1161133Y-200826D02*
G54D16*
D03*
X1270623Y-116796D02*
G54D10*
D03*
X1270735Y-167776D02*
G54D10*
D03*
X1270735Y-167776D02*
G54D13*
D03*
X1270735Y-167776D02*
G54D13*
D03*
X1230983Y-200825D02*
G54D13*
D03*
G54D19*
X1040483Y-80175D02*
X1039041Y-77503D01*
X988241Y-128303D01*
X975541Y-128303D01*
X973599Y-131268D01*
G54D19*
X1161133Y-83349D02*
X1166041Y-77503D01*
X1191441Y-102903D01*
X1229541Y-102903D01*
X1230983Y-99225D01*
G54D19*
X1270623Y-116796D02*
X1267641Y-115603D01*
X1254941Y-102903D01*
X1229541Y-102903D01*
X1230983Y-99225D01*
X452597Y-299141D02*
G54D11*
D03*
X522447Y-299141D02*
G54D11*
D03*
X452597Y-368991D02*
G54D11*
D03*
X522447Y-368991D02*
G54D11*
D03*
X522447Y-337241D02*
G54D11*
D03*
X452597Y-337241D02*
G54D11*
D03*
X109697Y-375341D02*
G54D12*
D03*
X109697Y-273741D02*
G54D12*
D03*
X452597Y-368991D02*
G54D14*
D03*
X522447Y-368991D02*
G54D14*
D03*
X300197Y-394391D02*
G54D13*
D03*
X179547Y-391217D02*
G54D13*
D03*
X300197Y-273741D02*
G54D13*
D03*
X179547Y-273741D02*
G54D13*
D03*
X159584Y-334066D02*
G54D13*
D03*
X64123Y-307296D02*
G54D10*
D03*
X64235Y-358276D02*
G54D10*
D03*
X64235Y-358276D02*
G54D13*
D03*
X179547Y-391217D02*
G54D16*
D03*
G54D17*
X64123Y-307296D02*
X65247Y-308791D01*
X103347Y-270691D01*
X109697Y-270691D01*
X109697Y-273741D01*
G54D17*
X179547Y-273741D02*
X179547Y-270691D01*
X109697Y-270691D01*
X109697Y-273741D01*
X109697Y-375341D02*
G54D13*
D03*
X64235Y-358276D02*
G54D13*
D03*
X109697Y-375341D02*
G54D13*
D03*
X367174Y-309068D02*
G54D10*
D03*
X367286Y-360048D02*
G54D10*
D03*
X408449Y-309068D02*
G54D10*
D03*
X408562Y-360048D02*
G54D10*
D03*
X367286Y-360049D02*
G54D14*
D03*
X576724Y-312243D02*
G54D10*
D03*
X576836Y-363224D02*
G54D10*
D03*
X617999Y-312243D02*
G54D10*
D03*
X618112Y-363224D02*
G54D10*
D03*
X618112Y-363224D02*
G54D14*
D03*
X662147Y-305491D02*
G54D11*
D03*
X731997Y-305491D02*
G54D11*
D03*
X662147Y-375341D02*
G54D11*
D03*
X731997Y-375341D02*
G54D11*
D03*
X731997Y-343591D02*
G54D11*
D03*
X662147Y-343591D02*
G54D11*
D03*
X662147Y-375341D02*
G54D14*
D03*
X731997Y-375341D02*
G54D14*
D03*
X776749Y-312243D02*
G54D10*
D03*
X776862Y-363224D02*
G54D10*
D03*
X820897Y-305491D02*
G54D11*
D03*
X890747Y-305491D02*
G54D11*
D03*
X820897Y-375341D02*
G54D11*
D03*
X890747Y-375341D02*
G54D11*
D03*
X890747Y-343591D02*
G54D11*
D03*
X820897Y-343591D02*
G54D11*
D03*
X820897Y-375341D02*
G54D14*
D03*
X890747Y-375341D02*
G54D14*
D03*
X932324Y-318593D02*
G54D10*
D03*
X932436Y-369574D02*
G54D10*
D03*
X973599Y-321768D02*
G54D10*
D03*
X973712Y-372748D02*
G54D10*
D03*
X973712Y-372749D02*
G54D14*
D03*
G54D19*
X408449Y-309068D02*
X404041Y-306103D01*
X416741Y-293403D01*
X454841Y-293403D01*
X452597Y-299141D01*
G54D19*
X576724Y-312243D02*
X581841Y-306103D01*
X569141Y-293403D01*
X518341Y-293403D01*
X522447Y-299141D01*
G54D19*
X617999Y-312243D02*
X619941Y-306103D01*
X581841Y-344203D01*
X581841Y-356903D01*
X576837Y-363223D01*
G54D19*
X662147Y-305491D02*
X658041Y-306103D01*
X619941Y-306103D01*
X617999Y-312243D01*
G54D19*
X776749Y-312243D02*
X772341Y-306103D01*
X734241Y-306103D01*
X731997Y-305491D01*
G54D19*
X820897Y-305491D02*
X823141Y-306103D01*
X772341Y-356903D01*
X776861Y-363223D01*
G54D19*
X932324Y-318593D02*
X937441Y-318803D01*
X924741Y-306103D01*
X886641Y-306103D01*
X890747Y-305491D01*
G54D19*
X973599Y-321768D02*
X975541Y-318803D01*
X937441Y-356903D01*
X937441Y-369603D01*
X932437Y-369573D01*
G54D19*
X367174Y-309068D02*
X365941Y-306103D01*
X302441Y-369603D01*
X302441Y-395003D01*
X300197Y-394391D01*
G54D19*
X408561Y-360049D02*
X404041Y-356903D01*
X365941Y-318803D01*
X365941Y-306103D01*
X367174Y-309068D01*
X1230983Y-289726D02*
G54D12*
D03*
X1230983Y-391325D02*
G54D12*
D03*
X1040483Y-270676D02*
G54D13*
D03*
X1161133Y-273849D02*
G54D13*
D03*
X1040483Y-391326D02*
G54D13*
D03*
X1161133Y-391326D02*
G54D13*
D03*
X1181095Y-331000D02*
G54D13*
D03*
X1161133Y-391326D02*
G54D16*
D03*
X1270623Y-307296D02*
G54D10*
D03*
X1270735Y-358276D02*
G54D10*
D03*
X1270735Y-358276D02*
G54D13*
D03*
X1270735Y-358276D02*
G54D13*
D03*
X1230983Y-391325D02*
G54D13*
D03*
G54D19*
X1040483Y-270675D02*
X1039041Y-268003D01*
X988241Y-318803D01*
X975541Y-318803D01*
X973599Y-321768D01*
G54D19*
X1161133Y-273849D02*
X1166041Y-268003D01*
X1191441Y-293403D01*
X1229541Y-293403D01*
X1230983Y-289725D01*
G54D19*
X1270623Y-307296D02*
X1267641Y-306103D01*
X1254941Y-293403D01*
X1229541Y-293403D01*
X1230983Y-289725D01*
X452597Y-489641D02*
G54D11*
D03*
X522447Y-489641D02*
G54D11*
D03*
X452597Y-559491D02*
G54D11*
D03*
X522447Y-559491D02*
G54D11*
D03*
X522447Y-527741D02*
G54D11*
D03*
X452597Y-527741D02*
G54D11*
D03*
X109697Y-565841D02*
G54D12*
D03*
X109697Y-464241D02*
G54D12*
D03*
X452597Y-559491D02*
G54D14*
D03*
X522447Y-559491D02*
G54D14*
D03*
X300197Y-584891D02*
G54D13*
D03*
X179547Y-581717D02*
G54D13*
D03*
X300197Y-464241D02*
G54D13*
D03*
X179547Y-464241D02*
G54D13*
D03*
X159584Y-524566D02*
G54D13*
D03*
X64123Y-497796D02*
G54D10*
D03*
X64235Y-548776D02*
G54D10*
D03*
X64235Y-548776D02*
G54D13*
D03*
X179547Y-581717D02*
G54D16*
D03*
G54D17*
X64123Y-497796D02*
X65247Y-499291D01*
X103347Y-461191D01*
X109697Y-461191D01*
X109697Y-464241D01*
G54D17*
X179547Y-464241D02*
X179547Y-461191D01*
X109697Y-461191D01*
X109697Y-464241D01*
X109697Y-565841D02*
G54D13*
D03*
X64235Y-548776D02*
G54D13*
D03*
X109697Y-565841D02*
G54D13*
D03*
X367174Y-499568D02*
G54D10*
D03*
X367286Y-550548D02*
G54D10*
D03*
X408449Y-499568D02*
G54D10*
D03*
X408562Y-550548D02*
G54D10*
D03*
X367286Y-550549D02*
G54D14*
D03*
X576724Y-502743D02*
G54D10*
D03*
X576836Y-553724D02*
G54D10*
D03*
X617999Y-502743D02*
G54D10*
D03*
X618112Y-553724D02*
G54D10*
D03*
X618112Y-553724D02*
G54D14*
D03*
X662147Y-495991D02*
G54D11*
D03*
X731997Y-495991D02*
G54D11*
D03*
X662147Y-565841D02*
G54D11*
D03*
X731997Y-565841D02*
G54D11*
D03*
X731997Y-534091D02*
G54D11*
D03*
X662147Y-534091D02*
G54D11*
D03*
X662147Y-565841D02*
G54D14*
D03*
X731997Y-565841D02*
G54D14*
D03*
X776749Y-502743D02*
G54D10*
D03*
X776862Y-553724D02*
G54D10*
D03*
X820897Y-495991D02*
G54D11*
D03*
X890747Y-495991D02*
G54D11*
D03*
X820897Y-565841D02*
G54D11*
D03*
X890747Y-565841D02*
G54D11*
D03*
X890747Y-534091D02*
G54D11*
D03*
X820897Y-534091D02*
G54D11*
D03*
X820897Y-565841D02*
G54D14*
D03*
X890747Y-565841D02*
G54D14*
D03*
X932324Y-509093D02*
G54D10*
D03*
X932436Y-560074D02*
G54D10*
D03*
X973599Y-512268D02*
G54D10*
D03*
X973712Y-563248D02*
G54D10*
D03*
X973712Y-563249D02*
G54D14*
D03*
G54D19*
X408449Y-499568D02*
X404041Y-496603D01*
X416741Y-483903D01*
X454841Y-483903D01*
X452597Y-489641D01*
G54D19*
X576724Y-502743D02*
X581841Y-496603D01*
X569141Y-483903D01*
X518341Y-483903D01*
X522447Y-489641D01*
G54D19*
X617999Y-502743D02*
X619941Y-496603D01*
X581841Y-534703D01*
X581841Y-547403D01*
X576837Y-553723D01*
G54D19*
X662147Y-495991D02*
X658041Y-496603D01*
X619941Y-496603D01*
X617999Y-502743D01*
G54D19*
X776749Y-502743D02*
X772341Y-496603D01*
X734241Y-496603D01*
X731997Y-495991D01*
G54D19*
X820897Y-495991D02*
X823141Y-496603D01*
X772341Y-547403D01*
X776861Y-553723D01*
G54D19*
X932324Y-509093D02*
X937441Y-509303D01*
X924741Y-496603D01*
X886641Y-496603D01*
X890747Y-495991D01*
G54D19*
X973599Y-512268D02*
X975541Y-509303D01*
X937441Y-547403D01*
X937441Y-560103D01*
X932437Y-560073D01*
G54D19*
X367174Y-499568D02*
X365941Y-496603D01*
X302441Y-560103D01*
X302441Y-585503D01*
X300197Y-584891D01*
G54D19*
X408561Y-550549D02*
X404041Y-547403D01*
X365941Y-509303D01*
X365941Y-496603D01*
X367174Y-499568D01*
X1230983Y-480226D02*
G54D12*
D03*
X1230983Y-581825D02*
G54D12*
D03*
X1040483Y-461176D02*
G54D13*
D03*
X1161133Y-464349D02*
G54D13*
D03*
X1040483Y-581826D02*
G54D13*
D03*
X1161133Y-581826D02*
G54D13*
D03*
X1181096Y-521500D02*
G54D13*
D03*
X1161133Y-581826D02*
G54D16*
D03*
X1270623Y-497796D02*
G54D10*
D03*
X1270735Y-548776D02*
G54D10*
D03*
X1270735Y-548776D02*
G54D13*
D03*
X1270735Y-548776D02*
G54D13*
D03*
X1230983Y-581825D02*
G54D13*
D03*
G54D19*
X1040483Y-461175D02*
X1039041Y-458503D01*
X988241Y-509303D01*
X975541Y-509303D01*
X973599Y-512268D01*
G54D19*
X1161133Y-464349D02*
X1166041Y-458503D01*
X1191441Y-483903D01*
X1229541Y-483903D01*
X1230983Y-480225D01*
G54D19*
X1270623Y-497796D02*
X1267641Y-496603D01*
X1254941Y-483903D01*
X1229541Y-483903D01*
X1230983Y-480225D01*
X1054397Y570084D02*
G54D10*
D03*
X1079897Y570084D02*
G54D10*
D03*
G54D18*
X1079897Y570084D02*
X1078072Y567509D01*
X1052672Y567509D01*
X1054397Y570084D01*
X1251247Y566909D02*
G54D10*
D03*
X1276747Y566909D02*
G54D10*
D03*
G54D18*
X1276747Y566909D02*
X1274922Y564334D01*
X1249522Y564334D01*
X1251247Y566909D01*
G54D19*
X109697Y488259D02*
X111941Y493997D01*
X188141Y570197D01*
X200841Y570197D01*
X197247Y570084D01*
G54D19*
X1230983Y472275D02*
X1229541Y468597D01*
X1153341Y544797D01*
X378641Y544797D01*
X353241Y570197D01*
X200841Y570197D01*
X197247Y570084D01*
G54D19*
X179547Y297759D02*
X175441Y303497D01*
X124641Y354297D01*
X111941Y354297D01*
X86541Y379697D01*
X86541Y417797D01*
X73841Y430497D01*
X61141Y430497D01*
X35741Y455897D01*
X150041Y570197D01*
X150041Y582897D01*
X162741Y595597D01*
X200841Y595597D01*
X213541Y582897D01*
X365941Y582897D01*
X378641Y570197D01*
X381297Y570084D01*
G54D19*
X1230983Y281775D02*
X1229541Y278097D01*
X1293041Y341597D01*
X1293041Y468597D01*
X1166041Y595597D01*
X607241Y595597D01*
X581841Y570197D01*
X404041Y570197D01*
X406797Y570084D01*
G54D19*
X406797Y570084D02*
X404041Y570197D01*
X378641Y570197D01*
X381297Y570084D01*
X1366997Y494609D02*
G54D20*
D03*
X1468597Y494609D02*
G54D13*
D03*
X1468597Y494609D02*
G54D20*
D03*
X1366997Y494609D02*
G54D20*
D03*
X1366997Y393009D02*
G54D13*
D03*
X1366997Y393009D02*
G54D20*
D03*
X1468597Y494609D02*
G54D20*
D03*
X1468597Y393009D02*
G54D13*
D03*
X1468597Y393009D02*
G54D20*
D03*
X1363822Y272359D02*
G54D20*
D03*
X1465422Y272359D02*
G54D13*
D03*
X1465422Y272359D02*
G54D20*
D03*
X1363822Y272359D02*
G54D20*
D03*
X1363822Y170759D02*
G54D13*
D03*
X1363822Y170759D02*
G54D20*
D03*
X1465422Y272359D02*
G54D20*
D03*
X1465422Y170759D02*
G54D13*
D03*
X1465422Y170759D02*
G54D20*
D03*
X1363822Y75509D02*
G54D20*
D03*
X1465422Y75509D02*
G54D13*
D03*
X1465422Y75509D02*
G54D20*
D03*
X1363822Y75509D02*
G54D20*
D03*
X1363822Y-26091D02*
G54D13*
D03*
X1363822Y-26091D02*
G54D20*
D03*
X1465422Y75509D02*
G54D20*
D03*
X1465422Y-26091D02*
G54D13*
D03*
X1465422Y-26091D02*
G54D20*
D03*
X1363822Y-127691D02*
G54D20*
D03*
X1465422Y-127691D02*
G54D13*
D03*
X1465422Y-127691D02*
G54D20*
D03*
X1363822Y-127691D02*
G54D20*
D03*
X1363822Y-229291D02*
G54D13*
D03*
X1363822Y-229291D02*
G54D20*
D03*
X1465422Y-127691D02*
G54D20*
D03*
X1465422Y-229291D02*
G54D13*
D03*
X1465422Y-229291D02*
G54D20*
D03*
X1363822Y-311841D02*
G54D20*
D03*
X1465422Y-311841D02*
G54D13*
D03*
X1465422Y-311841D02*
G54D20*
D03*
X1363822Y-311841D02*
G54D20*
D03*
X1363822Y-413441D02*
G54D13*
D03*
X1363822Y-413441D02*
G54D20*
D03*
X1465422Y-311841D02*
G54D20*
D03*
X1465422Y-413441D02*
G54D13*
D03*
X1465422Y-413441D02*
G54D20*
D03*
X1363822Y-495991D02*
G54D20*
D03*
X1465422Y-495991D02*
G54D13*
D03*
X1465422Y-495991D02*
G54D20*
D03*
X1363822Y-495991D02*
G54D20*
D03*
X1363822Y-597591D02*
G54D13*
D03*
X1363822Y-597591D02*
G54D20*
D03*
X1465422Y-495991D02*
G54D20*
D03*
X1465422Y-597591D02*
G54D13*
D03*
X1465422Y-597591D02*
G54D20*
D03*
X1366997Y393009D02*
G54D20*
D03*
X1468597Y393009D02*
G54D20*
D03*
X1363822Y170759D02*
G54D20*
D03*
X1465422Y170759D02*
G54D20*
D03*
X1363822Y-26091D02*
G54D20*
D03*
X1465422Y-26091D02*
G54D20*
D03*
X1363822Y-229291D02*
G54D20*
D03*
X1465422Y-229291D02*
G54D20*
D03*
X1363822Y-413441D02*
G54D20*
D03*
X1465422Y-413441D02*
G54D20*
D03*
X1363822Y-597591D02*
G54D20*
D03*
X1465422Y-597591D02*
G54D20*
D03*
G54D21*
X1366997Y494609D02*
X1316197Y443809D01*
X1316197Y342209D01*
X1290797Y316809D01*
X1290797Y253309D01*
X1278097Y240609D01*
X1265397Y240609D01*
X1252697Y253309D01*
X1227297Y253309D01*
X1214597Y266009D01*
X1176497Y266009D01*
X1163797Y278709D01*
X1151097Y278709D01*
X1138397Y291409D01*
X1138397Y380309D01*
X1176497Y418409D01*
X1176497Y431109D01*
X1178595Y431000D01*
G54D21*
X1363822Y272359D02*
X1366997Y278709D01*
X1239997Y151709D01*
X1227297Y151709D01*
X1176497Y202509D01*
X1176497Y240609D01*
X1178595Y240500D01*
G54D21*
X1363822Y75509D02*
X1366997Y75509D01*
X1341597Y50109D01*
X1176497Y50109D01*
X1178595Y50000D01*
G54D21*
X1363822Y-127691D02*
X1366997Y-127691D01*
X1354297Y-140391D01*
X1176497Y-140391D01*
X1178595Y-140500D01*
G54D21*
X1363822Y-311841D02*
X1366997Y-305491D01*
X1341597Y-330891D01*
X1176497Y-330891D01*
X1178595Y-331000D01*
G54D21*
X1363822Y-495991D02*
X1366997Y-495991D01*
X1341597Y-521391D01*
X1176497Y-521391D01*
X1178595Y-521501D01*
G54D21*
X-60325Y11113D02*
X-55403Y12009D01*
X96997Y164409D01*
X109697Y164409D01*
X160497Y215209D01*
X173197Y215209D01*
X211297Y253309D01*
X211297Y380309D01*
X160497Y431109D01*
X162085Y427934D01*
G36*
X175047Y653084D02*
X203047Y653084D01*
X203047Y625084D01*
X175047Y625084D01*
X175047Y653084D01*
G37*
X1554297Y-10241D02*
G54D13*
D03*
X1605097Y-10241D02*
G54D13*
D03*
X1579697Y-35641D02*
G54D13*
D03*
X1605097Y-61041D02*
G54D13*
D03*
X1554297Y-61041D02*
G54D13*
D03*
X1554297Y-10241D02*
G54D15*
D03*
X1605097Y-10241D02*
G54D14*
D03*
X1554297Y-61041D02*
G54D14*
D03*
X1605097Y-61041D02*
G54D14*
D03*
X1519397Y-13391D02*
G54D13*
D03*
G36*
X1600047Y465759D02*
X1600047Y437759D01*
X1572047Y437759D01*
X1572047Y465759D01*
X1600047Y465759D01*
G37*
G36*
X1600047Y249859D02*
X1600047Y221859D01*
X1572047Y221859D01*
X1572047Y249859D01*
X1600047Y249859D01*
G37*
G36*
X1600047Y-207341D02*
X1600047Y-235341D01*
X1572047Y-235341D01*
X1572047Y-207341D01*
X1600047Y-207341D01*
G37*
G36*
X1600047Y-404191D02*
X1600047Y-432191D01*
X1572047Y-432191D01*
X1572047Y-404191D01*
X1600047Y-404191D01*
G37*
G36*
X120497Y-639141D02*
X120497Y-667141D01*
X92497Y-667141D01*
X92497Y-639141D01*
X120497Y-639141D01*
G37*
G36*
X1301597Y-632791D02*
X1301597Y-660791D01*
X1273597Y-660791D01*
X1273597Y-632791D01*
X1301597Y-632791D01*
G37*
G36*
X711047Y-645491D02*
X711047Y-673491D01*
X683047Y-673491D01*
X683047Y-645491D01*
X711047Y-645491D01*
G37*
G54D22*
X159585Y-334066D02*
X160000Y-336000D01*
X208000Y-288000D01*
X208000Y-176000D01*
X176000Y-144000D01*
X160000Y-144000D01*
X159585Y-143566D01*
G54D22*
X159585Y-524566D02*
X160000Y-528000D01*
X208000Y-480000D01*
X208000Y-368000D01*
X176000Y-336000D01*
X160000Y-336000D01*
X159585Y-334066D01*
G54D22*
X159585Y46934D02*
X160000Y48000D01*
X208000Y96000D01*
X208000Y384000D01*
X160000Y432000D01*
X159585Y427934D01*
G54D22*
X159585Y-143566D02*
X160000Y-144000D01*
X208000Y-96000D01*
X208000Y0D01*
X160000Y48000D01*
X159585Y46934D01*
%LPD*%
G54D23*
G36*
X449264Y393009D02*
X449264Y407509D01*
X455930Y407509D01*
X455930Y393009D01*
X449264Y393009D01*
G37*
G36*
X452597Y396342D02*
X467097Y396342D01*
X467097Y389676D01*
X452597Y389676D01*
X452597Y396342D01*
G37*
G36*
X455930Y393009D02*
X455930Y378509D01*
X449264Y378509D01*
X449264Y393009D01*
X455930Y393009D01*
G37*
G36*
X452597Y389676D02*
X438097Y389676D01*
X438097Y396342D01*
X452597Y396342D01*
X452597Y389676D01*
G37*
G54D23*
G36*
X519114Y393009D02*
X519114Y407509D01*
X525780Y407509D01*
X525780Y393009D01*
X519114Y393009D01*
G37*
G36*
X522447Y396342D02*
X536947Y396342D01*
X536947Y389676D01*
X522447Y389676D01*
X522447Y396342D01*
G37*
G36*
X525780Y393009D02*
X525780Y378509D01*
X519114Y378509D01*
X519114Y393009D01*
X525780Y393009D01*
G37*
G36*
X522447Y389676D02*
X507947Y389676D01*
X507947Y396342D01*
X522447Y396342D01*
X522447Y389676D01*
G37*
G54D23*
G36*
X-87336Y142159D02*
X-87336Y156659D01*
X-80670Y156659D01*
X-80670Y142159D01*
X-87336Y142159D01*
G37*
G36*
X-84003Y145492D02*
X-69503Y145492D01*
X-69503Y138826D01*
X-84003Y138826D01*
X-84003Y145492D01*
G37*
G36*
X-80670Y142159D02*
X-80670Y127659D01*
X-87336Y127659D01*
X-87336Y142159D01*
X-80670Y142159D01*
G37*
G36*
X-84003Y138826D02*
X-98503Y138826D01*
X-98503Y145492D01*
X-84003Y145492D01*
X-84003Y138826D01*
G37*
G54D23*
G36*
X-36536Y142159D02*
X-36536Y156659D01*
X-29870Y156659D01*
X-29870Y142159D01*
X-36536Y142159D01*
G37*
G36*
X-33203Y145492D02*
X-18703Y145492D01*
X-18703Y138826D01*
X-33203Y138826D01*
X-33203Y145492D01*
G37*
G36*
X-29870Y142159D02*
X-29870Y127659D01*
X-36536Y127659D01*
X-36536Y142159D01*
X-29870Y142159D01*
G37*
G36*
X-33203Y138826D02*
X-47703Y138826D01*
X-47703Y145492D01*
X-33203Y145492D01*
X-33203Y138826D01*
G37*
G54D23*
G36*
X-87336Y91359D02*
X-87336Y105859D01*
X-80670Y105859D01*
X-80670Y91359D01*
X-87336Y91359D01*
G37*
G36*
X-80670Y91359D02*
X-80670Y76859D01*
X-87336Y76859D01*
X-87336Y91359D01*
X-80670Y91359D01*
G37*
G36*
X-84003Y88026D02*
X-98503Y88026D01*
X-98503Y94692D01*
X-84003Y94692D01*
X-84003Y88026D01*
G37*
G54D23*
G36*
X-36536Y91359D02*
X-36536Y105859D01*
X-29870Y105859D01*
X-29870Y91359D01*
X-36536Y91359D01*
G37*
G36*
X-33203Y94692D02*
X-18703Y94692D01*
X-18703Y88026D01*
X-33203Y88026D01*
X-33203Y94692D01*
G37*
G36*
X-29870Y91359D02*
X-29870Y76859D01*
X-36536Y76859D01*
X-36536Y91359D01*
X-29870Y91359D01*
G37*
G54D23*
G36*
X-87336Y-226141D02*
X-87336Y-211641D01*
X-80670Y-211641D01*
X-80670Y-226141D01*
X-87336Y-226141D01*
G37*
G36*
X-84003Y-222808D02*
X-69503Y-222808D01*
X-69503Y-229474D01*
X-84003Y-229474D01*
X-84003Y-222808D01*
G37*
G36*
X-80670Y-226141D02*
X-80670Y-240641D01*
X-87336Y-240641D01*
X-87336Y-226141D01*
X-80670Y-226141D01*
G37*
G36*
X-84003Y-229474D02*
X-98503Y-229474D01*
X-98503Y-222808D01*
X-84003Y-222808D01*
X-84003Y-229474D01*
G37*
G54D23*
G36*
X-36536Y-226141D02*
X-36536Y-211641D01*
X-29870Y-211641D01*
X-29870Y-226141D01*
X-36536Y-226141D01*
G37*
G36*
X-33203Y-222808D02*
X-18703Y-222808D01*
X-18703Y-229474D01*
X-33203Y-229474D01*
X-33203Y-222808D01*
G37*
G36*
X-29870Y-226141D02*
X-29870Y-240641D01*
X-36536Y-240641D01*
X-36536Y-226141D01*
X-29870Y-226141D01*
G37*
G36*
X-33203Y-229474D02*
X-47703Y-229474D01*
X-47703Y-222808D01*
X-33203Y-222808D01*
X-33203Y-229474D01*
G37*
G54D23*
G36*
X-87336Y-276941D02*
X-87336Y-262441D01*
X-80670Y-262441D01*
X-80670Y-276941D01*
X-87336Y-276941D01*
G37*
G36*
X-84003Y-273608D02*
X-69503Y-273608D01*
X-69503Y-280274D01*
X-84003Y-280274D01*
X-84003Y-273608D01*
G37*
G36*
X-80670Y-276941D02*
X-80670Y-291441D01*
X-87336Y-291441D01*
X-87336Y-276941D01*
X-80670Y-276941D01*
G37*
G36*
X-84003Y-280274D02*
X-98503Y-280274D01*
X-98503Y-273608D01*
X-84003Y-273608D01*
X-84003Y-280274D01*
G37*
G54D23*
G36*
X-36536Y-276941D02*
X-36536Y-262441D01*
X-29870Y-262441D01*
X-29870Y-276941D01*
X-36536Y-276941D01*
G37*
G36*
X-33203Y-273608D02*
X-18703Y-273608D01*
X-18703Y-280274D01*
X-33203Y-280274D01*
X-33203Y-273608D01*
G37*
G36*
X-29870Y-276941D02*
X-29870Y-291441D01*
X-36536Y-291441D01*
X-36536Y-276941D01*
X-29870Y-276941D01*
G37*
G36*
X-33203Y-280274D02*
X-47703Y-280274D01*
X-47703Y-273608D01*
X-33203Y-273608D01*
X-33203Y-280274D01*
G37*
G54D24*
G36*
X-66728Y589134D02*
X-66728Y605634D01*
X-53328Y605634D01*
X-53328Y589134D01*
X-66728Y589134D01*
G37*
G54D25*
G54D23*
G36*
X-90486Y196159D02*
X-90486Y210659D01*
X-83820Y210659D01*
X-83820Y196159D01*
X-90486Y196159D01*
G37*
G36*
X-87153Y199492D02*
X-72653Y199492D01*
X-72653Y192826D01*
X-87153Y192826D01*
X-87153Y199492D01*
G37*
G36*
X-83820Y196159D02*
X-83820Y181659D01*
X-90486Y181659D01*
X-90486Y196159D01*
X-83820Y196159D01*
G37*
G36*
X-87153Y192826D02*
X-101653Y192826D01*
X-101653Y199492D01*
X-87153Y199492D01*
X-87153Y192826D01*
G37*
G54D26*
G36*
X392630Y642259D02*
X392630Y656759D01*
X404564Y656759D01*
X404564Y642259D01*
X392630Y642259D01*
G37*
G36*
X398597Y648226D02*
X413097Y648226D01*
X413097Y636292D01*
X398597Y636292D01*
X398597Y648226D01*
G37*
G36*
X404564Y642259D02*
X404564Y627759D01*
X392630Y627759D01*
X392630Y642259D01*
X404564Y642259D01*
G37*
G36*
X398597Y636292D02*
X384097Y636292D01*
X384097Y648226D01*
X398597Y648226D01*
X398597Y636292D01*
G37*
G54D26*
G36*
X614880Y642259D02*
X614880Y656759D01*
X626814Y656759D01*
X626814Y642259D01*
X614880Y642259D01*
G37*
G36*
X620847Y648226D02*
X635347Y648226D01*
X635347Y636292D01*
X620847Y636292D01*
X620847Y648226D01*
G37*
G36*
X626814Y642259D02*
X626814Y627759D01*
X614880Y627759D01*
X614880Y642259D01*
X626814Y642259D01*
G37*
G36*
X620847Y636292D02*
X606347Y636292D01*
X606347Y648226D01*
X620847Y648226D01*
X620847Y636292D01*
G37*
G54D26*
G36*
X824430Y645434D02*
X824430Y659934D01*
X836364Y659934D01*
X836364Y645434D01*
X824430Y645434D01*
G37*
G36*
X830397Y651401D02*
X844897Y651401D01*
X844897Y639467D01*
X830397Y639467D01*
X830397Y651401D01*
G37*
G36*
X836364Y645434D02*
X836364Y630934D01*
X824430Y630934D01*
X824430Y645434D01*
X836364Y645434D01*
G37*
G36*
X830397Y639467D02*
X815897Y639467D01*
X815897Y651401D01*
X830397Y651401D01*
X830397Y639467D01*
G37*
G54D26*
G36*
X1065730Y642259D02*
X1065730Y656759D01*
X1077664Y656759D01*
X1077664Y642259D01*
X1065730Y642259D01*
G37*
G36*
X1071697Y648226D02*
X1086197Y648226D01*
X1086197Y636292D01*
X1071697Y636292D01*
X1071697Y648226D01*
G37*
G36*
X1077664Y642259D02*
X1077664Y627759D01*
X1065730Y627759D01*
X1065730Y642259D01*
X1077664Y642259D01*
G37*
G36*
X1071697Y636292D02*
X1057197Y636292D01*
X1057197Y648226D01*
X1071697Y648226D01*
X1071697Y636292D01*
G37*
G54D26*
G36*
X1246705Y642259D02*
X1246705Y656759D01*
X1258639Y656759D01*
X1258639Y642259D01*
X1246705Y642259D01*
G37*
G36*
X1252672Y648226D02*
X1267172Y648226D01*
X1267172Y636292D01*
X1252672Y636292D01*
X1252672Y648226D01*
G37*
G36*
X1258639Y642259D02*
X1258639Y627759D01*
X1246705Y627759D01*
X1246705Y642259D01*
X1258639Y642259D01*
G37*
G36*
X1252672Y636292D02*
X1238172Y636292D01*
X1238172Y648226D01*
X1252672Y648226D01*
X1252672Y636292D01*
G37*
G54D26*
G36*
X-122103Y483126D02*
X-107603Y483126D01*
X-107603Y471192D01*
X-122103Y471192D01*
X-122103Y483126D01*
G37*
G36*
X-116136Y477159D02*
X-116136Y462659D01*
X-128070Y462659D01*
X-128070Y477159D01*
X-116136Y477159D01*
G37*
G36*
X-122103Y471192D02*
X-136603Y471192D01*
X-136603Y483126D01*
X-122103Y483126D01*
X-122103Y471192D01*
G37*
G36*
X-128070Y477159D02*
X-128070Y491659D01*
X-116136Y491659D01*
X-116136Y477159D01*
X-128070Y477159D01*
G37*
G54D26*
G36*
X-122103Y-405874D02*
X-107603Y-405874D01*
X-107603Y-417808D01*
X-122103Y-417808D01*
X-122103Y-405874D01*
G37*
G36*
X-116136Y-411841D02*
X-116136Y-426341D01*
X-128070Y-426341D01*
X-128070Y-411841D01*
X-116136Y-411841D01*
G37*
G36*
X-122103Y-417808D02*
X-136603Y-417808D01*
X-136603Y-405874D01*
X-122103Y-405874D01*
X-122103Y-417808D01*
G37*
G36*
X-128070Y-411841D02*
X-128070Y-397341D01*
X-116136Y-397341D01*
X-116136Y-411841D01*
X-128070Y-411841D01*
G37*
G54D27*
G36*
X67902Y403724D02*
X67902Y388224D01*
X60569Y388224D01*
X60569Y403724D01*
X67902Y403724D01*
G37*
G36*
X64235Y400057D02*
X48735Y400057D01*
X48735Y407391D01*
X64235Y407391D01*
X64235Y400057D01*
G37*
G36*
X60569Y403724D02*
X60569Y419224D01*
X67902Y419224D01*
X67902Y403724D01*
X60569Y403724D01*
G37*
G36*
X64235Y407391D02*
X79735Y407391D01*
X79735Y400057D01*
X64235Y400057D01*
X64235Y407391D01*
G37*
G54D27*
G36*
X175880Y370783D02*
X175880Y386283D01*
X183214Y386283D01*
X183214Y370783D01*
X175880Y370783D01*
G37*
G36*
X179547Y374450D02*
X195047Y374450D01*
X195047Y367116D01*
X179547Y367116D01*
X179547Y374450D01*
G37*
G36*
X183214Y370783D02*
X183214Y355283D01*
X175880Y355283D01*
X175880Y370783D01*
X183214Y370783D01*
G37*
G36*
X179547Y367116D02*
X164047Y367116D01*
X164047Y374450D01*
X179547Y374450D01*
X179547Y367116D01*
G37*
G54D27*
G36*
X-117476Y3667D02*
X-101976Y3667D01*
X-101976Y-3667D01*
X-117476Y-3667D01*
X-117476Y3667D01*
G37*
G36*
X-113809Y0D02*
X-113809Y-15500D01*
X-121143Y-15500D01*
X-121143Y0D01*
X-113809Y0D01*
G37*
G36*
X-117476Y-3667D02*
X-132976Y-3667D01*
X-132976Y3667D01*
X-117476Y3667D01*
X-117476Y-3667D01*
G37*
G36*
X-121143Y0D02*
X-121143Y15500D01*
X-113809Y15500D01*
X-113809Y0D01*
X-121143Y0D01*
G37*
G54D27*
G36*
X113364Y386659D02*
X113364Y371159D01*
X106030Y371159D01*
X106030Y386659D01*
X113364Y386659D01*
G37*
G36*
X109697Y382992D02*
X94197Y382992D01*
X94197Y390326D01*
X109697Y390326D01*
X109697Y382992D01*
G37*
G36*
X106030Y386659D02*
X106030Y402159D01*
X113364Y402159D01*
X113364Y386659D01*
X106030Y386659D01*
G37*
G36*
X109697Y390326D02*
X125197Y390326D01*
X125197Y382992D01*
X109697Y382992D01*
X109697Y390326D01*
G37*
G54D27*
G36*
X17933Y249896D02*
X17933Y234396D01*
X10600Y234396D01*
X10600Y249896D01*
X17933Y249896D01*
G37*
G36*
X14266Y246230D02*
X-1234Y246230D01*
X-1234Y253563D01*
X14266Y253563D01*
X14266Y246230D01*
G37*
G36*
X10600Y249896D02*
X10600Y265396D01*
X17933Y265396D01*
X17933Y249896D01*
X10600Y249896D01*
G37*
G36*
X14266Y253563D02*
X29766Y253563D01*
X29766Y246230D01*
X14266Y246230D01*
X14266Y253563D01*
G37*
G54D27*
G36*
X67902Y403724D02*
X67902Y388224D01*
X60569Y388224D01*
X60569Y403724D01*
X67902Y403724D01*
G37*
G36*
X64235Y400057D02*
X48735Y400057D01*
X48735Y407391D01*
X64235Y407391D01*
X64235Y400057D01*
G37*
G36*
X60569Y403724D02*
X60569Y419224D01*
X67902Y419224D01*
X67902Y403724D01*
X60569Y403724D01*
G37*
G36*
X64235Y407391D02*
X79735Y407391D01*
X79735Y400057D01*
X64235Y400057D01*
X64235Y407391D01*
G37*
G54D27*
G36*
X113364Y386659D02*
X113364Y371159D01*
X106030Y371159D01*
X106030Y386659D01*
X113364Y386659D01*
G37*
G36*
X109697Y382992D02*
X94197Y382992D01*
X94197Y390326D01*
X109697Y390326D01*
X109697Y382992D01*
G37*
G36*
X106030Y386659D02*
X106030Y402159D01*
X113364Y402159D01*
X113364Y386659D01*
X106030Y386659D01*
G37*
G36*
X109697Y390326D02*
X125197Y390326D01*
X125197Y382992D01*
X109697Y382992D01*
X109697Y390326D01*
G37*
G54D27*
G36*
X-22747Y224152D02*
X-22747Y208652D01*
X-30080Y208652D01*
X-30080Y224152D01*
X-22747Y224152D01*
G37*
G36*
X-26414Y220485D02*
X-41914Y220485D01*
X-41914Y227818D01*
X-26414Y227818D01*
X-26414Y220485D01*
G37*
G36*
X-30080Y224152D02*
X-30080Y239652D01*
X-22747Y239652D01*
X-22747Y224152D01*
X-30080Y224152D01*
G37*
G36*
X-26414Y227818D02*
X-10914Y227818D01*
X-10914Y220485D01*
X-26414Y220485D01*
X-26414Y227818D01*
G37*
G54D27*
G36*
X5414Y288109D02*
X5414Y272609D01*
X-1920Y272609D01*
X-1920Y288109D01*
X5414Y288109D01*
G37*
G36*
X1747Y284442D02*
X-13753Y284442D01*
X-13753Y291776D01*
X1747Y291776D01*
X1747Y284442D01*
G37*
G36*
X-1920Y288109D02*
X-1920Y303609D01*
X5414Y303609D01*
X5414Y288109D01*
X-1920Y288109D01*
G37*
G36*
X1747Y291776D02*
X17247Y291776D01*
X17247Y284442D01*
X1747Y284442D01*
X1747Y291776D01*
G37*
G54D28*
G36*
X359253Y401951D02*
X359253Y416451D01*
X375319Y416451D01*
X375319Y401951D01*
X359253Y401951D01*
G37*
G36*
X367286Y409984D02*
X381786Y409984D01*
X381786Y393918D01*
X367286Y393918D01*
X367286Y409984D01*
G37*
G36*
X375319Y401951D02*
X375319Y387451D01*
X359253Y387451D01*
X359253Y401951D01*
X375319Y401951D01*
G37*
G36*
X367286Y393918D02*
X352786Y393918D01*
X352786Y409984D01*
X367286Y409984D01*
X367286Y393918D01*
G37*
G54D29*
G36*
X610879Y398776D02*
X610879Y413276D01*
X625345Y413276D01*
X625345Y398776D01*
X610879Y398776D01*
G37*
G36*
X618112Y406009D02*
X632612Y406009D01*
X632612Y391543D01*
X618112Y391543D01*
X618112Y406009D01*
G37*
G36*
X625345Y398776D02*
X625345Y384276D01*
X610879Y384276D01*
X610879Y398776D01*
X625345Y398776D01*
G37*
G36*
X618112Y391543D02*
X603612Y391543D01*
X603612Y406009D01*
X618112Y406009D01*
X618112Y391543D01*
G37*
G54D23*
G36*
X658814Y386659D02*
X658814Y401159D01*
X665480Y401159D01*
X665480Y386659D01*
X658814Y386659D01*
G37*
G36*
X662147Y389992D02*
X676647Y389992D01*
X676647Y383326D01*
X662147Y383326D01*
X662147Y389992D01*
G37*
G36*
X665480Y386659D02*
X665480Y372159D01*
X658814Y372159D01*
X658814Y386659D01*
X665480Y386659D01*
G37*
G36*
X662147Y383326D02*
X647647Y383326D01*
X647647Y389992D01*
X662147Y389992D01*
X662147Y383326D01*
G37*
G54D23*
G36*
X728664Y386659D02*
X728664Y401159D01*
X735330Y401159D01*
X735330Y386659D01*
X728664Y386659D01*
G37*
G36*
X731997Y389992D02*
X746497Y389992D01*
X746497Y383326D01*
X731997Y383326D01*
X731997Y389992D01*
G37*
G36*
X735330Y386659D02*
X735330Y372159D01*
X728664Y372159D01*
X728664Y386659D01*
X735330Y386659D01*
G37*
G36*
X731997Y383326D02*
X717497Y383326D01*
X717497Y389992D01*
X731997Y389992D01*
X731997Y383326D01*
G37*
G54D23*
G36*
X817564Y386659D02*
X817564Y401159D01*
X824230Y401159D01*
X824230Y386659D01*
X817564Y386659D01*
G37*
G36*
X820897Y389992D02*
X835397Y389992D01*
X835397Y383326D01*
X820897Y383326D01*
X820897Y389992D01*
G37*
G36*
X824230Y386659D02*
X824230Y372159D01*
X817564Y372159D01*
X817564Y386659D01*
X824230Y386659D01*
G37*
G36*
X820897Y383326D02*
X806397Y383326D01*
X806397Y389992D01*
X820897Y389992D01*
X820897Y383326D01*
G37*
G54D23*
G36*
X887414Y386659D02*
X887414Y401159D01*
X894080Y401159D01*
X894080Y386659D01*
X887414Y386659D01*
G37*
G36*
X890747Y389992D02*
X905247Y389992D01*
X905247Y383326D01*
X890747Y383326D01*
X890747Y389992D01*
G37*
G36*
X894080Y386659D02*
X894080Y372159D01*
X887414Y372159D01*
X887414Y386659D01*
X894080Y386659D01*
G37*
G36*
X890747Y383326D02*
X876247Y383326D01*
X876247Y389992D01*
X890747Y389992D01*
X890747Y383326D01*
G37*
G54D29*
G36*
X966479Y389251D02*
X966479Y403751D01*
X980945Y403751D01*
X980945Y389251D01*
X966479Y389251D01*
G37*
G36*
X973712Y396484D02*
X988212Y396484D01*
X988212Y382018D01*
X973712Y382018D01*
X973712Y396484D01*
G37*
G36*
X980945Y389251D02*
X980945Y374751D01*
X966479Y374751D01*
X966479Y389251D01*
X980945Y389251D01*
G37*
G36*
X973712Y382018D02*
X959212Y382018D01*
X959212Y396484D01*
X973712Y396484D01*
X973712Y382018D01*
G37*
G54D27*
G36*
X1164800Y370675D02*
X1164800Y355175D01*
X1157466Y355175D01*
X1157466Y370675D01*
X1164800Y370675D01*
G37*
G36*
X1161133Y367008D02*
X1145633Y367008D01*
X1145633Y374341D01*
X1161133Y374341D01*
X1161133Y367008D01*
G37*
G36*
X1157466Y370675D02*
X1157466Y386175D01*
X1164800Y386175D01*
X1164800Y370675D01*
X1157466Y370675D01*
G37*
G36*
X1161133Y374341D02*
X1176633Y374341D01*
X1176633Y367008D01*
X1161133Y367008D01*
X1161133Y374341D01*
G37*
G54D27*
G36*
X1274402Y403724D02*
X1274402Y388224D01*
X1267069Y388224D01*
X1267069Y403724D01*
X1274402Y403724D01*
G37*
G36*
X1270735Y400057D02*
X1255235Y400057D01*
X1255235Y407390D01*
X1270735Y407390D01*
X1270735Y400057D01*
G37*
G36*
X1267069Y403724D02*
X1267069Y419224D01*
X1274402Y419224D01*
X1274402Y403724D01*
X1267069Y403724D01*
G37*
G36*
X1270735Y407390D02*
X1286235Y407390D01*
X1286235Y400057D01*
X1270735Y400057D01*
X1270735Y407390D01*
G37*
G54D27*
G36*
X1274402Y403724D02*
X1274402Y388224D01*
X1267069Y388224D01*
X1267069Y403724D01*
X1274402Y403724D01*
G37*
G36*
X1270735Y400057D02*
X1255235Y400057D01*
X1255235Y407390D01*
X1270735Y407390D01*
X1270735Y400057D01*
G37*
G36*
X1267069Y403724D02*
X1267069Y419224D01*
X1274402Y419224D01*
X1274402Y403724D01*
X1267069Y403724D01*
G37*
G36*
X1270735Y407390D02*
X1286235Y407390D01*
X1286235Y400057D01*
X1270735Y400057D01*
X1270735Y407390D01*
G37*
G54D27*
G36*
X1227316Y370675D02*
X1227316Y386175D01*
X1234650Y386175D01*
X1234650Y370675D01*
X1227316Y370675D01*
G37*
G36*
X1230983Y374341D02*
X1246483Y374341D01*
X1246483Y367008D01*
X1230983Y367008D01*
X1230983Y374341D01*
G37*
G36*
X1234650Y370675D02*
X1234650Y355175D01*
X1227316Y355175D01*
X1227316Y370675D01*
X1234650Y370675D01*
G37*
G36*
X1230983Y367008D02*
X1215483Y367008D01*
X1215483Y374341D01*
X1230983Y374341D01*
X1230983Y367008D01*
G37*
G54D23*
G36*
X449264Y202509D02*
X449264Y217009D01*
X455930Y217009D01*
X455930Y202509D01*
X449264Y202509D01*
G37*
G36*
X452597Y205842D02*
X467097Y205842D01*
X467097Y199176D01*
X452597Y199176D01*
X452597Y205842D01*
G37*
G36*
X455930Y202509D02*
X455930Y188009D01*
X449264Y188009D01*
X449264Y202509D01*
X455930Y202509D01*
G37*
G36*
X452597Y199176D02*
X438097Y199176D01*
X438097Y205842D01*
X452597Y205842D01*
X452597Y199176D01*
G37*
G54D23*
G36*
X519114Y202509D02*
X519114Y217009D01*
X525780Y217009D01*
X525780Y202509D01*
X519114Y202509D01*
G37*
G36*
X522447Y205842D02*
X536947Y205842D01*
X536947Y199176D01*
X522447Y199176D01*
X522447Y205842D01*
G37*
G36*
X525780Y202509D02*
X525780Y188009D01*
X519114Y188009D01*
X519114Y202509D01*
X525780Y202509D01*
G37*
G36*
X522447Y199176D02*
X507947Y199176D01*
X507947Y205842D01*
X522447Y205842D01*
X522447Y199176D01*
G37*
G54D27*
G36*
X67902Y213224D02*
X67902Y197724D01*
X60569Y197724D01*
X60569Y213224D01*
X67902Y213224D01*
G37*
G36*
X64235Y209557D02*
X48735Y209557D01*
X48735Y216890D01*
X64235Y216890D01*
X64235Y209557D01*
G37*
G36*
X60569Y213224D02*
X60569Y228724D01*
X67902Y228724D01*
X67902Y213224D01*
X60569Y213224D01*
G37*
G36*
X64235Y216890D02*
X79735Y216890D01*
X79735Y209557D01*
X64235Y209557D01*
X64235Y216890D01*
G37*
G54D27*
G36*
X175880Y180283D02*
X175880Y195783D01*
X183214Y195783D01*
X183214Y180283D01*
X175880Y180283D01*
G37*
G36*
X179547Y183950D02*
X195047Y183950D01*
X195047Y176616D01*
X179547Y176616D01*
X179547Y183950D01*
G37*
G36*
X183214Y180283D02*
X183214Y164783D01*
X175880Y164783D01*
X175880Y180283D01*
X183214Y180283D01*
G37*
G36*
X179547Y176616D02*
X164047Y176616D01*
X164047Y183950D01*
X179547Y183950D01*
X179547Y176616D01*
G37*
G54D27*
G36*
X113364Y196159D02*
X113364Y180659D01*
X106030Y180659D01*
X106030Y196159D01*
X113364Y196159D01*
G37*
G36*
X109697Y192492D02*
X94197Y192492D01*
X94197Y199826D01*
X109697Y199826D01*
X109697Y192492D01*
G37*
G36*
X106030Y196159D02*
X106030Y211659D01*
X113364Y211659D01*
X113364Y196159D01*
X106030Y196159D01*
G37*
G36*
X109697Y199826D02*
X125197Y199826D01*
X125197Y192492D01*
X109697Y192492D01*
X109697Y199826D01*
G37*
G54D27*
G36*
X67902Y213224D02*
X67902Y197724D01*
X60569Y197724D01*
X60569Y213224D01*
X67902Y213224D01*
G37*
G36*
X64235Y209557D02*
X48735Y209557D01*
X48735Y216890D01*
X64235Y216890D01*
X64235Y209557D01*
G37*
G36*
X60569Y213224D02*
X60569Y228724D01*
X67902Y228724D01*
X67902Y213224D01*
X60569Y213224D01*
G37*
G36*
X64235Y216890D02*
X79735Y216890D01*
X79735Y209557D01*
X64235Y209557D01*
X64235Y216890D01*
G37*
G54D27*
G36*
X113364Y196159D02*
X113364Y180659D01*
X106030Y180659D01*
X106030Y196159D01*
X113364Y196159D01*
G37*
G36*
X109697Y192492D02*
X94197Y192492D01*
X94197Y199826D01*
X109697Y199826D01*
X109697Y192492D01*
G37*
G36*
X106030Y196159D02*
X106030Y211659D01*
X113364Y211659D01*
X113364Y196159D01*
X106030Y196159D01*
G37*
G36*
X109697Y199826D02*
X125197Y199826D01*
X125197Y192492D01*
X109697Y192492D01*
X109697Y199826D01*
G37*
G54D28*
G36*
X359253Y211451D02*
X359253Y225951D01*
X375319Y225951D01*
X375319Y211451D01*
X359253Y211451D01*
G37*
G36*
X367286Y219484D02*
X381786Y219484D01*
X381786Y203418D01*
X367286Y203418D01*
X367286Y219484D01*
G37*
G36*
X375319Y211451D02*
X375319Y196951D01*
X359253Y196951D01*
X359253Y211451D01*
X375319Y211451D01*
G37*
G36*
X367286Y203418D02*
X352786Y203418D01*
X352786Y219484D01*
X367286Y219484D01*
X367286Y203418D01*
G37*
G54D29*
G36*
X610879Y208276D02*
X610879Y222776D01*
X625345Y222776D01*
X625345Y208276D01*
X610879Y208276D01*
G37*
G36*
X618112Y215509D02*
X632612Y215509D01*
X632612Y201043D01*
X618112Y201043D01*
X618112Y215509D01*
G37*
G36*
X625345Y208276D02*
X625345Y193776D01*
X610879Y193776D01*
X610879Y208276D01*
X625345Y208276D01*
G37*
G36*
X618112Y201043D02*
X603612Y201043D01*
X603612Y215509D01*
X618112Y215509D01*
X618112Y201043D01*
G37*
G54D23*
G36*
X658814Y196159D02*
X658814Y210659D01*
X665480Y210659D01*
X665480Y196159D01*
X658814Y196159D01*
G37*
G36*
X662147Y199492D02*
X676647Y199492D01*
X676647Y192826D01*
X662147Y192826D01*
X662147Y199492D01*
G37*
G36*
X665480Y196159D02*
X665480Y181659D01*
X658814Y181659D01*
X658814Y196159D01*
X665480Y196159D01*
G37*
G36*
X662147Y192826D02*
X647647Y192826D01*
X647647Y199492D01*
X662147Y199492D01*
X662147Y192826D01*
G37*
G54D23*
G36*
X728664Y196159D02*
X728664Y210659D01*
X735330Y210659D01*
X735330Y196159D01*
X728664Y196159D01*
G37*
G36*
X731997Y199492D02*
X746497Y199492D01*
X746497Y192826D01*
X731997Y192826D01*
X731997Y199492D01*
G37*
G36*
X735330Y196159D02*
X735330Y181659D01*
X728664Y181659D01*
X728664Y196159D01*
X735330Y196159D01*
G37*
G36*
X731997Y192826D02*
X717497Y192826D01*
X717497Y199492D01*
X731997Y199492D01*
X731997Y192826D01*
G37*
G54D23*
G36*
X817564Y196159D02*
X817564Y210659D01*
X824230Y210659D01*
X824230Y196159D01*
X817564Y196159D01*
G37*
G36*
X820897Y199492D02*
X835397Y199492D01*
X835397Y192826D01*
X820897Y192826D01*
X820897Y199492D01*
G37*
G36*
X824230Y196159D02*
X824230Y181659D01*
X817564Y181659D01*
X817564Y196159D01*
X824230Y196159D01*
G37*
G36*
X820897Y192826D02*
X806397Y192826D01*
X806397Y199492D01*
X820897Y199492D01*
X820897Y192826D01*
G37*
G54D23*
G36*
X887414Y196159D02*
X887414Y210659D01*
X894080Y210659D01*
X894080Y196159D01*
X887414Y196159D01*
G37*
G36*
X890747Y199492D02*
X905247Y199492D01*
X905247Y192826D01*
X890747Y192826D01*
X890747Y199492D01*
G37*
G36*
X894080Y196159D02*
X894080Y181659D01*
X887414Y181659D01*
X887414Y196159D01*
X894080Y196159D01*
G37*
G36*
X890747Y192826D02*
X876247Y192826D01*
X876247Y199492D01*
X890747Y199492D01*
X890747Y192826D01*
G37*
G54D29*
G36*
X966479Y198751D02*
X966479Y213251D01*
X980945Y213251D01*
X980945Y198751D01*
X966479Y198751D01*
G37*
G36*
X973712Y205984D02*
X988212Y205984D01*
X988212Y191518D01*
X973712Y191518D01*
X973712Y205984D01*
G37*
G36*
X980945Y198751D02*
X980945Y184251D01*
X966479Y184251D01*
X966479Y198751D01*
X980945Y198751D01*
G37*
G36*
X973712Y191518D02*
X959212Y191518D01*
X959212Y205984D01*
X973712Y205984D01*
X973712Y191518D01*
G37*
G54D27*
G36*
X1164800Y180174D02*
X1164800Y164674D01*
X1157466Y164674D01*
X1157466Y180174D01*
X1164800Y180174D01*
G37*
G36*
X1161133Y176508D02*
X1145633Y176508D01*
X1145633Y183841D01*
X1161133Y183841D01*
X1161133Y176508D01*
G37*
G36*
X1157466Y180174D02*
X1157466Y195674D01*
X1164800Y195674D01*
X1164800Y180174D01*
X1157466Y180174D01*
G37*
G36*
X1161133Y183841D02*
X1176633Y183841D01*
X1176633Y176508D01*
X1161133Y176508D01*
X1161133Y183841D01*
G37*
G54D27*
G36*
X1274402Y213224D02*
X1274402Y197724D01*
X1267069Y197724D01*
X1267069Y213224D01*
X1274402Y213224D01*
G37*
G36*
X1270735Y209557D02*
X1255235Y209557D01*
X1255235Y216890D01*
X1270735Y216890D01*
X1270735Y209557D01*
G37*
G36*
X1267069Y213224D02*
X1267069Y228724D01*
X1274402Y228724D01*
X1274402Y213224D01*
X1267069Y213224D01*
G37*
G36*
X1270735Y216890D02*
X1286235Y216890D01*
X1286235Y209557D01*
X1270735Y209557D01*
X1270735Y216890D01*
G37*
G54D27*
G36*
X1274402Y213224D02*
X1274402Y197724D01*
X1267069Y197724D01*
X1267069Y213224D01*
X1274402Y213224D01*
G37*
G36*
X1270735Y209557D02*
X1255235Y209557D01*
X1255235Y216890D01*
X1270735Y216890D01*
X1270735Y209557D01*
G37*
G36*
X1267069Y213224D02*
X1267069Y228724D01*
X1274402Y228724D01*
X1274402Y213224D01*
X1267069Y213224D01*
G37*
G36*
X1270735Y216890D02*
X1286235Y216890D01*
X1286235Y209557D01*
X1270735Y209557D01*
X1270735Y216890D01*
G37*
G54D27*
G36*
X1227316Y180175D02*
X1227316Y195675D01*
X1234650Y195675D01*
X1234650Y180175D01*
X1227316Y180175D01*
G37*
G36*
X1230983Y183841D02*
X1246483Y183841D01*
X1246483Y176508D01*
X1230983Y176508D01*
X1230983Y183841D01*
G37*
G36*
X1234650Y180175D02*
X1234650Y164675D01*
X1227316Y164675D01*
X1227316Y180175D01*
X1234650Y180175D01*
G37*
G36*
X1230983Y176508D02*
X1215483Y176508D01*
X1215483Y183841D01*
X1230983Y183841D01*
X1230983Y176508D01*
G37*
G54D23*
G36*
X449264Y12009D02*
X449264Y26509D01*
X455930Y26509D01*
X455930Y12009D01*
X449264Y12009D01*
G37*
G36*
X452597Y15342D02*
X467097Y15342D01*
X467097Y8676D01*
X452597Y8676D01*
X452597Y15342D01*
G37*
G36*
X455930Y12009D02*
X455930Y-2491D01*
X449264Y-2491D01*
X449264Y12009D01*
X455930Y12009D01*
G37*
G36*
X452597Y8676D02*
X438097Y8676D01*
X438097Y15342D01*
X452597Y15342D01*
X452597Y8676D01*
G37*
G54D23*
G36*
X519114Y12009D02*
X519114Y26509D01*
X525780Y26509D01*
X525780Y12009D01*
X519114Y12009D01*
G37*
G36*
X522447Y15342D02*
X536947Y15342D01*
X536947Y8676D01*
X522447Y8676D01*
X522447Y15342D01*
G37*
G36*
X525780Y12009D02*
X525780Y-2491D01*
X519114Y-2491D01*
X519114Y12009D01*
X525780Y12009D01*
G37*
G36*
X522447Y8676D02*
X507947Y8676D01*
X507947Y15342D01*
X522447Y15342D01*
X522447Y8676D01*
G37*
G54D27*
G36*
X67902Y22724D02*
X67902Y7224D01*
X60569Y7224D01*
X60569Y22724D01*
X67902Y22724D01*
G37*
G36*
X64235Y19057D02*
X48735Y19057D01*
X48735Y26390D01*
X64235Y26390D01*
X64235Y19057D01*
G37*
G36*
X60569Y22724D02*
X60569Y38224D01*
X67902Y38224D01*
X67902Y22724D01*
X60569Y22724D01*
G37*
G36*
X64235Y26390D02*
X79735Y26390D01*
X79735Y19057D01*
X64235Y19057D01*
X64235Y26390D01*
G37*
G54D27*
G36*
X175880Y-10217D02*
X175880Y5283D01*
X183214Y5283D01*
X183214Y-10217D01*
X175880Y-10217D01*
G37*
G36*
X179547Y-6550D02*
X195047Y-6550D01*
X195047Y-13884D01*
X179547Y-13884D01*
X179547Y-6550D01*
G37*
G36*
X183214Y-10217D02*
X183214Y-25717D01*
X175880Y-25717D01*
X175880Y-10217D01*
X183214Y-10217D01*
G37*
G36*
X179547Y-13884D02*
X164047Y-13884D01*
X164047Y-6550D01*
X179547Y-6550D01*
X179547Y-13884D01*
G37*
G54D27*
G36*
X113364Y5659D02*
X113364Y-9841D01*
X106030Y-9841D01*
X106030Y5659D01*
X113364Y5659D01*
G37*
G36*
X109697Y1992D02*
X94197Y1992D01*
X94197Y9326D01*
X109697Y9326D01*
X109697Y1992D01*
G37*
G36*
X106030Y5659D02*
X106030Y21159D01*
X113364Y21159D01*
X113364Y5659D01*
X106030Y5659D01*
G37*
G36*
X109697Y9326D02*
X125197Y9326D01*
X125197Y1992D01*
X109697Y1992D01*
X109697Y9326D01*
G37*
G54D27*
G36*
X67902Y22724D02*
X67902Y7224D01*
X60569Y7224D01*
X60569Y22724D01*
X67902Y22724D01*
G37*
G36*
X64235Y19057D02*
X48735Y19057D01*
X48735Y26390D01*
X64235Y26390D01*
X64235Y19057D01*
G37*
G36*
X60569Y22724D02*
X60569Y38224D01*
X67902Y38224D01*
X67902Y22724D01*
X60569Y22724D01*
G37*
G36*
X64235Y26390D02*
X79735Y26390D01*
X79735Y19057D01*
X64235Y19057D01*
X64235Y26390D01*
G37*
G54D27*
G36*
X113364Y5659D02*
X113364Y-9841D01*
X106030Y-9841D01*
X106030Y5659D01*
X113364Y5659D01*
G37*
G36*
X109697Y1992D02*
X94197Y1992D01*
X94197Y9326D01*
X109697Y9326D01*
X109697Y1992D01*
G37*
G36*
X106030Y5659D02*
X106030Y21159D01*
X113364Y21159D01*
X113364Y5659D01*
X106030Y5659D01*
G37*
G36*
X109697Y9326D02*
X125197Y9326D01*
X125197Y1992D01*
X109697Y1992D01*
X109697Y9326D01*
G37*
G54D28*
G36*
X359253Y20951D02*
X359253Y35451D01*
X375319Y35451D01*
X375319Y20951D01*
X359253Y20951D01*
G37*
G36*
X367286Y28984D02*
X381786Y28984D01*
X381786Y12918D01*
X367286Y12918D01*
X367286Y28984D01*
G37*
G36*
X375319Y20951D02*
X375319Y6451D01*
X359253Y6451D01*
X359253Y20951D01*
X375319Y20951D01*
G37*
G36*
X367286Y12918D02*
X352786Y12918D01*
X352786Y28984D01*
X367286Y28984D01*
X367286Y12918D01*
G37*
G54D29*
G36*
X610879Y17776D02*
X610879Y32276D01*
X625345Y32276D01*
X625345Y17776D01*
X610879Y17776D01*
G37*
G36*
X618112Y25009D02*
X632612Y25009D01*
X632612Y10543D01*
X618112Y10543D01*
X618112Y25009D01*
G37*
G36*
X625345Y17776D02*
X625345Y3276D01*
X610879Y3276D01*
X610879Y17776D01*
X625345Y17776D01*
G37*
G36*
X618112Y10543D02*
X603612Y10543D01*
X603612Y25009D01*
X618112Y25009D01*
X618112Y10543D01*
G37*
G54D23*
G36*
X658814Y5659D02*
X658814Y20159D01*
X665480Y20159D01*
X665480Y5659D01*
X658814Y5659D01*
G37*
G36*
X662147Y8992D02*
X676647Y8992D01*
X676647Y2326D01*
X662147Y2326D01*
X662147Y8992D01*
G37*
G36*
X665480Y5659D02*
X665480Y-8841D01*
X658814Y-8841D01*
X658814Y5659D01*
X665480Y5659D01*
G37*
G36*
X662147Y2326D02*
X647647Y2326D01*
X647647Y8992D01*
X662147Y8992D01*
X662147Y2326D01*
G37*
G54D23*
G36*
X728664Y5659D02*
X728664Y20159D01*
X735330Y20159D01*
X735330Y5659D01*
X728664Y5659D01*
G37*
G36*
X731997Y8992D02*
X746497Y8992D01*
X746497Y2326D01*
X731997Y2326D01*
X731997Y8992D01*
G37*
G36*
X735330Y5659D02*
X735330Y-8841D01*
X728664Y-8841D01*
X728664Y5659D01*
X735330Y5659D01*
G37*
G36*
X731997Y2326D02*
X717497Y2326D01*
X717497Y8992D01*
X731997Y8992D01*
X731997Y2326D01*
G37*
G54D23*
G36*
X817564Y5659D02*
X817564Y20159D01*
X824230Y20159D01*
X824230Y5659D01*
X817564Y5659D01*
G37*
G36*
X820897Y8992D02*
X835397Y8992D01*
X835397Y2326D01*
X820897Y2326D01*
X820897Y8992D01*
G37*
G36*
X824230Y5659D02*
X824230Y-8841D01*
X817564Y-8841D01*
X817564Y5659D01*
X824230Y5659D01*
G37*
G36*
X820897Y2326D02*
X806397Y2326D01*
X806397Y8992D01*
X820897Y8992D01*
X820897Y2326D01*
G37*
G54D23*
G36*
X887414Y5659D02*
X887414Y20159D01*
X894080Y20159D01*
X894080Y5659D01*
X887414Y5659D01*
G37*
G36*
X890747Y8992D02*
X905247Y8992D01*
X905247Y2326D01*
X890747Y2326D01*
X890747Y8992D01*
G37*
G36*
X894080Y5659D02*
X894080Y-8841D01*
X887414Y-8841D01*
X887414Y5659D01*
X894080Y5659D01*
G37*
G36*
X890747Y2326D02*
X876247Y2326D01*
X876247Y8992D01*
X890747Y8992D01*
X890747Y2326D01*
G37*
G54D29*
G36*
X966479Y8251D02*
X966479Y22751D01*
X980945Y22751D01*
X980945Y8251D01*
X966479Y8251D01*
G37*
G36*
X973712Y15484D02*
X988212Y15484D01*
X988212Y1018D01*
X973712Y1018D01*
X973712Y15484D01*
G37*
G36*
X980945Y8251D02*
X980945Y-6249D01*
X966479Y-6249D01*
X966479Y8251D01*
X980945Y8251D01*
G37*
G36*
X973712Y1018D02*
X959212Y1018D01*
X959212Y15484D01*
X973712Y15484D01*
X973712Y1018D01*
G37*
G54D27*
G36*
X1164800Y-10326D02*
X1164800Y-25826D01*
X1157466Y-25826D01*
X1157466Y-10326D01*
X1164800Y-10326D01*
G37*
G36*
X1161133Y-13992D02*
X1145633Y-13992D01*
X1145633Y-6659D01*
X1161133Y-6659D01*
X1161133Y-13992D01*
G37*
G36*
X1157466Y-10326D02*
X1157466Y5174D01*
X1164800Y5174D01*
X1164800Y-10326D01*
X1157466Y-10326D01*
G37*
G36*
X1161133Y-6659D02*
X1176633Y-6659D01*
X1176633Y-13992D01*
X1161133Y-13992D01*
X1161133Y-6659D01*
G37*
G54D27*
G36*
X1274402Y22724D02*
X1274402Y7224D01*
X1267069Y7224D01*
X1267069Y22724D01*
X1274402Y22724D01*
G37*
G36*
X1270735Y19057D02*
X1255235Y19057D01*
X1255235Y26390D01*
X1270735Y26390D01*
X1270735Y19057D01*
G37*
G36*
X1267069Y22724D02*
X1267069Y38224D01*
X1274402Y38224D01*
X1274402Y22724D01*
X1267069Y22724D01*
G37*
G36*
X1270735Y26390D02*
X1286235Y26390D01*
X1286235Y19057D01*
X1270735Y19057D01*
X1270735Y26390D01*
G37*
G54D27*
G36*
X1274402Y22724D02*
X1274402Y7224D01*
X1267069Y7224D01*
X1267069Y22724D01*
X1274402Y22724D01*
G37*
G36*
X1270735Y19057D02*
X1255235Y19057D01*
X1255235Y26390D01*
X1270735Y26390D01*
X1270735Y19057D01*
G37*
G36*
X1267069Y22724D02*
X1267069Y38224D01*
X1274402Y38224D01*
X1274402Y22724D01*
X1267069Y22724D01*
G37*
G36*
X1270735Y26390D02*
X1286235Y26390D01*
X1286235Y19057D01*
X1270735Y19057D01*
X1270735Y26390D01*
G37*
G54D27*
G36*
X1227316Y-10325D02*
X1227316Y5175D01*
X1234650Y5175D01*
X1234650Y-10325D01*
X1227316Y-10325D01*
G37*
G36*
X1230983Y-6659D02*
X1246483Y-6659D01*
X1246483Y-13992D01*
X1230983Y-13992D01*
X1230983Y-6659D01*
G37*
G36*
X1234650Y-10325D02*
X1234650Y-25825D01*
X1227316Y-25825D01*
X1227316Y-10325D01*
X1234650Y-10325D01*
G37*
G36*
X1230983Y-13992D02*
X1215483Y-13992D01*
X1215483Y-6659D01*
X1230983Y-6659D01*
X1230983Y-13992D01*
G37*
G54D23*
G36*
X449264Y-178491D02*
X449264Y-163991D01*
X455930Y-163991D01*
X455930Y-178491D01*
X449264Y-178491D01*
G37*
G36*
X452597Y-175158D02*
X467097Y-175158D01*
X467097Y-181824D01*
X452597Y-181824D01*
X452597Y-175158D01*
G37*
G36*
X455930Y-178491D02*
X455930Y-192991D01*
X449264Y-192991D01*
X449264Y-178491D01*
X455930Y-178491D01*
G37*
G36*
X452597Y-181824D02*
X438097Y-181824D01*
X438097Y-175158D01*
X452597Y-175158D01*
X452597Y-181824D01*
G37*
G54D23*
G36*
X519114Y-178491D02*
X519114Y-163991D01*
X525780Y-163991D01*
X525780Y-178491D01*
X519114Y-178491D01*
G37*
G36*
X522447Y-175158D02*
X536947Y-175158D01*
X536947Y-181824D01*
X522447Y-181824D01*
X522447Y-175158D01*
G37*
G36*
X525780Y-178491D02*
X525780Y-192991D01*
X519114Y-192991D01*
X519114Y-178491D01*
X525780Y-178491D01*
G37*
G36*
X522447Y-181824D02*
X507947Y-181824D01*
X507947Y-175158D01*
X522447Y-175158D01*
X522447Y-181824D01*
G37*
G54D27*
G36*
X67902Y-167776D02*
X67902Y-183276D01*
X60569Y-183276D01*
X60569Y-167776D01*
X67902Y-167776D01*
G37*
G36*
X64235Y-171443D02*
X48735Y-171443D01*
X48735Y-164110D01*
X64235Y-164110D01*
X64235Y-171443D01*
G37*
G36*
X60569Y-167776D02*
X60569Y-152276D01*
X67902Y-152276D01*
X67902Y-167776D01*
X60569Y-167776D01*
G37*
G36*
X64235Y-164110D02*
X79735Y-164110D01*
X79735Y-171443D01*
X64235Y-171443D01*
X64235Y-164110D01*
G37*
G54D27*
G36*
X175880Y-200717D02*
X175880Y-185217D01*
X183214Y-185217D01*
X183214Y-200717D01*
X175880Y-200717D01*
G37*
G36*
X179547Y-197050D02*
X195047Y-197050D01*
X195047Y-204384D01*
X179547Y-204384D01*
X179547Y-197050D01*
G37*
G36*
X183214Y-200717D02*
X183214Y-216217D01*
X175880Y-216217D01*
X175880Y-200717D01*
X183214Y-200717D01*
G37*
G36*
X179547Y-204384D02*
X164047Y-204384D01*
X164047Y-197050D01*
X179547Y-197050D01*
X179547Y-204384D01*
G37*
G54D27*
G36*
X113364Y-184841D02*
X113364Y-200341D01*
X106030Y-200341D01*
X106030Y-184841D01*
X113364Y-184841D01*
G37*
G36*
X109697Y-188508D02*
X94197Y-188508D01*
X94197Y-181174D01*
X109697Y-181174D01*
X109697Y-188508D01*
G37*
G36*
X106030Y-184841D02*
X106030Y-169341D01*
X113364Y-169341D01*
X113364Y-184841D01*
X106030Y-184841D01*
G37*
G36*
X109697Y-181174D02*
X125197Y-181174D01*
X125197Y-188508D01*
X109697Y-188508D01*
X109697Y-181174D01*
G37*
G54D27*
G36*
X67902Y-167776D02*
X67902Y-183276D01*
X60569Y-183276D01*
X60569Y-167776D01*
X67902Y-167776D01*
G37*
G36*
X64235Y-171443D02*
X48735Y-171443D01*
X48735Y-164110D01*
X64235Y-164110D01*
X64235Y-171443D01*
G37*
G36*
X60569Y-167776D02*
X60569Y-152276D01*
X67902Y-152276D01*
X67902Y-167776D01*
X60569Y-167776D01*
G37*
G36*
X64235Y-164110D02*
X79735Y-164110D01*
X79735Y-171443D01*
X64235Y-171443D01*
X64235Y-164110D01*
G37*
G54D27*
G36*
X113364Y-184841D02*
X113364Y-200341D01*
X106030Y-200341D01*
X106030Y-184841D01*
X113364Y-184841D01*
G37*
G36*
X109697Y-188508D02*
X94197Y-188508D01*
X94197Y-181174D01*
X109697Y-181174D01*
X109697Y-188508D01*
G37*
G36*
X106030Y-184841D02*
X106030Y-169341D01*
X113364Y-169341D01*
X113364Y-184841D01*
X106030Y-184841D01*
G37*
G36*
X109697Y-181174D02*
X125197Y-181174D01*
X125197Y-188508D01*
X109697Y-188508D01*
X109697Y-181174D01*
G37*
G54D28*
G36*
X359253Y-169549D02*
X359253Y-155049D01*
X375319Y-155049D01*
X375319Y-169549D01*
X359253Y-169549D01*
G37*
G36*
X367286Y-161516D02*
X381786Y-161516D01*
X381786Y-177582D01*
X367286Y-177582D01*
X367286Y-161516D01*
G37*
G36*
X375319Y-169549D02*
X375319Y-184049D01*
X359253Y-184049D01*
X359253Y-169549D01*
X375319Y-169549D01*
G37*
G36*
X367286Y-177582D02*
X352786Y-177582D01*
X352786Y-161516D01*
X367286Y-161516D01*
X367286Y-177582D01*
G37*
G54D29*
G36*
X610879Y-172724D02*
X610879Y-158224D01*
X625345Y-158224D01*
X625345Y-172724D01*
X610879Y-172724D01*
G37*
G36*
X618112Y-165491D02*
X632612Y-165491D01*
X632612Y-179957D01*
X618112Y-179957D01*
X618112Y-165491D01*
G37*
G36*
X625345Y-172724D02*
X625345Y-187224D01*
X610879Y-187224D01*
X610879Y-172724D01*
X625345Y-172724D01*
G37*
G36*
X618112Y-179957D02*
X603612Y-179957D01*
X603612Y-165491D01*
X618112Y-165491D01*
X618112Y-179957D01*
G37*
G54D23*
G36*
X658814Y-184841D02*
X658814Y-170341D01*
X665480Y-170341D01*
X665480Y-184841D01*
X658814Y-184841D01*
G37*
G36*
X662147Y-181508D02*
X676647Y-181508D01*
X676647Y-188174D01*
X662147Y-188174D01*
X662147Y-181508D01*
G37*
G36*
X665480Y-184841D02*
X665480Y-199341D01*
X658814Y-199341D01*
X658814Y-184841D01*
X665480Y-184841D01*
G37*
G36*
X662147Y-188174D02*
X647647Y-188174D01*
X647647Y-181508D01*
X662147Y-181508D01*
X662147Y-188174D01*
G37*
G54D23*
G36*
X728664Y-184841D02*
X728664Y-170341D01*
X735330Y-170341D01*
X735330Y-184841D01*
X728664Y-184841D01*
G37*
G36*
X731997Y-181508D02*
X746497Y-181508D01*
X746497Y-188174D01*
X731997Y-188174D01*
X731997Y-181508D01*
G37*
G36*
X735330Y-184841D02*
X735330Y-199341D01*
X728664Y-199341D01*
X728664Y-184841D01*
X735330Y-184841D01*
G37*
G36*
X731997Y-188174D02*
X717497Y-188174D01*
X717497Y-181508D01*
X731997Y-181508D01*
X731997Y-188174D01*
G37*
G54D23*
G36*
X817564Y-184841D02*
X817564Y-170341D01*
X824230Y-170341D01*
X824230Y-184841D01*
X817564Y-184841D01*
G37*
G36*
X820897Y-181508D02*
X835397Y-181508D01*
X835397Y-188174D01*
X820897Y-188174D01*
X820897Y-181508D01*
G37*
G36*
X824230Y-184841D02*
X824230Y-199341D01*
X817564Y-199341D01*
X817564Y-184841D01*
X824230Y-184841D01*
G37*
G36*
X820897Y-188174D02*
X806397Y-188174D01*
X806397Y-181508D01*
X820897Y-181508D01*
X820897Y-188174D01*
G37*
G54D23*
G36*
X887414Y-184841D02*
X887414Y-170341D01*
X894080Y-170341D01*
X894080Y-184841D01*
X887414Y-184841D01*
G37*
G36*
X890747Y-181508D02*
X905247Y-181508D01*
X905247Y-188174D01*
X890747Y-188174D01*
X890747Y-181508D01*
G37*
G36*
X894080Y-184841D02*
X894080Y-199341D01*
X887414Y-199341D01*
X887414Y-184841D01*
X894080Y-184841D01*
G37*
G36*
X890747Y-188174D02*
X876247Y-188174D01*
X876247Y-181508D01*
X890747Y-181508D01*
X890747Y-188174D01*
G37*
G54D29*
G36*
X966479Y-182249D02*
X966479Y-167749D01*
X980945Y-167749D01*
X980945Y-182249D01*
X966479Y-182249D01*
G37*
G36*
X973712Y-175016D02*
X988212Y-175016D01*
X988212Y-189482D01*
X973712Y-189482D01*
X973712Y-175016D01*
G37*
G36*
X980945Y-182249D02*
X980945Y-196749D01*
X966479Y-196749D01*
X966479Y-182249D01*
X980945Y-182249D01*
G37*
G36*
X973712Y-189482D02*
X959212Y-189482D01*
X959212Y-175016D01*
X973712Y-175016D01*
X973712Y-189482D01*
G37*
G54D27*
G36*
X1164800Y-200826D02*
X1164800Y-216326D01*
X1157466Y-216326D01*
X1157466Y-200826D01*
X1164800Y-200826D01*
G37*
G36*
X1161133Y-204492D02*
X1145633Y-204492D01*
X1145633Y-197159D01*
X1161133Y-197159D01*
X1161133Y-204492D01*
G37*
G36*
X1157466Y-200826D02*
X1157466Y-185326D01*
X1164800Y-185326D01*
X1164800Y-200826D01*
X1157466Y-200826D01*
G37*
G36*
X1161133Y-197159D02*
X1176633Y-197159D01*
X1176633Y-204492D01*
X1161133Y-204492D01*
X1161133Y-197159D01*
G37*
G54D27*
G36*
X1274402Y-167776D02*
X1274402Y-183276D01*
X1267069Y-183276D01*
X1267069Y-167776D01*
X1274402Y-167776D01*
G37*
G36*
X1270735Y-171443D02*
X1255235Y-171443D01*
X1255235Y-164110D01*
X1270735Y-164110D01*
X1270735Y-171443D01*
G37*
G36*
X1267069Y-167776D02*
X1267069Y-152276D01*
X1274402Y-152276D01*
X1274402Y-167776D01*
X1267069Y-167776D01*
G37*
G36*
X1270735Y-164110D02*
X1286235Y-164110D01*
X1286235Y-171443D01*
X1270735Y-171443D01*
X1270735Y-164110D01*
G37*
G54D27*
G36*
X1274402Y-167776D02*
X1274402Y-183276D01*
X1267069Y-183276D01*
X1267069Y-167776D01*
X1274402Y-167776D01*
G37*
G36*
X1270735Y-171443D02*
X1255235Y-171443D01*
X1255235Y-164110D01*
X1270735Y-164110D01*
X1270735Y-171443D01*
G37*
G36*
X1267069Y-167776D02*
X1267069Y-152276D01*
X1274402Y-152276D01*
X1274402Y-167776D01*
X1267069Y-167776D01*
G37*
G36*
X1270735Y-164110D02*
X1286235Y-164110D01*
X1286235Y-171443D01*
X1270735Y-171443D01*
X1270735Y-164110D01*
G37*
G54D27*
G36*
X1227316Y-200825D02*
X1227316Y-185325D01*
X1234650Y-185325D01*
X1234650Y-200825D01*
X1227316Y-200825D01*
G37*
G36*
X1230983Y-197159D02*
X1246483Y-197159D01*
X1246483Y-204492D01*
X1230983Y-204492D01*
X1230983Y-197159D01*
G37*
G36*
X1234650Y-200825D02*
X1234650Y-216325D01*
X1227316Y-216325D01*
X1227316Y-200825D01*
X1234650Y-200825D01*
G37*
G36*
X1230983Y-204492D02*
X1215483Y-204492D01*
X1215483Y-197159D01*
X1230983Y-197159D01*
X1230983Y-204492D01*
G37*
G54D23*
G36*
X449264Y-368991D02*
X449264Y-354491D01*
X455930Y-354491D01*
X455930Y-368991D01*
X449264Y-368991D01*
G37*
G36*
X452597Y-365658D02*
X467097Y-365658D01*
X467097Y-372324D01*
X452597Y-372324D01*
X452597Y-365658D01*
G37*
G36*
X455930Y-368991D02*
X455930Y-383491D01*
X449264Y-383491D01*
X449264Y-368991D01*
X455930Y-368991D01*
G37*
G36*
X452597Y-372324D02*
X438097Y-372324D01*
X438097Y-365658D01*
X452597Y-365658D01*
X452597Y-372324D01*
G37*
G54D23*
G36*
X519114Y-368991D02*
X519114Y-354491D01*
X525780Y-354491D01*
X525780Y-368991D01*
X519114Y-368991D01*
G37*
G36*
X522447Y-365658D02*
X536947Y-365658D01*
X536947Y-372324D01*
X522447Y-372324D01*
X522447Y-365658D01*
G37*
G36*
X525780Y-368991D02*
X525780Y-383491D01*
X519114Y-383491D01*
X519114Y-368991D01*
X525780Y-368991D01*
G37*
G36*
X522447Y-372324D02*
X507947Y-372324D01*
X507947Y-365658D01*
X522447Y-365658D01*
X522447Y-372324D01*
G37*
G54D27*
G36*
X67902Y-358276D02*
X67902Y-373776D01*
X60569Y-373776D01*
X60569Y-358276D01*
X67902Y-358276D01*
G37*
G36*
X64235Y-361943D02*
X48735Y-361943D01*
X48735Y-354610D01*
X64235Y-354610D01*
X64235Y-361943D01*
G37*
G36*
X60569Y-358276D02*
X60569Y-342776D01*
X67902Y-342776D01*
X67902Y-358276D01*
X60569Y-358276D01*
G37*
G36*
X64235Y-354610D02*
X79735Y-354610D01*
X79735Y-361943D01*
X64235Y-361943D01*
X64235Y-354610D01*
G37*
G54D27*
G36*
X175880Y-391217D02*
X175880Y-375717D01*
X183214Y-375717D01*
X183214Y-391217D01*
X175880Y-391217D01*
G37*
G36*
X179547Y-387550D02*
X195047Y-387550D01*
X195047Y-394884D01*
X179547Y-394884D01*
X179547Y-387550D01*
G37*
G36*
X183214Y-391217D02*
X183214Y-406717D01*
X175880Y-406717D01*
X175880Y-391217D01*
X183214Y-391217D01*
G37*
G36*
X179547Y-394884D02*
X164047Y-394884D01*
X164047Y-387550D01*
X179547Y-387550D01*
X179547Y-394884D01*
G37*
G54D27*
G36*
X113364Y-375341D02*
X113364Y-390841D01*
X106030Y-390841D01*
X106030Y-375341D01*
X113364Y-375341D01*
G37*
G36*
X109697Y-379008D02*
X94197Y-379008D01*
X94197Y-371674D01*
X109697Y-371674D01*
X109697Y-379008D01*
G37*
G36*
X106030Y-375341D02*
X106030Y-359841D01*
X113364Y-359841D01*
X113364Y-375341D01*
X106030Y-375341D01*
G37*
G36*
X109697Y-371674D02*
X125197Y-371674D01*
X125197Y-379008D01*
X109697Y-379008D01*
X109697Y-371674D01*
G37*
G54D27*
G36*
X67902Y-358276D02*
X67902Y-373776D01*
X60569Y-373776D01*
X60569Y-358276D01*
X67902Y-358276D01*
G37*
G36*
X64235Y-361943D02*
X48735Y-361943D01*
X48735Y-354610D01*
X64235Y-354610D01*
X64235Y-361943D01*
G37*
G36*
X60569Y-358276D02*
X60569Y-342776D01*
X67902Y-342776D01*
X67902Y-358276D01*
X60569Y-358276D01*
G37*
G36*
X64235Y-354610D02*
X79735Y-354610D01*
X79735Y-361943D01*
X64235Y-361943D01*
X64235Y-354610D01*
G37*
G54D27*
G36*
X113364Y-375341D02*
X113364Y-390841D01*
X106030Y-390841D01*
X106030Y-375341D01*
X113364Y-375341D01*
G37*
G36*
X109697Y-379008D02*
X94197Y-379008D01*
X94197Y-371674D01*
X109697Y-371674D01*
X109697Y-379008D01*
G37*
G36*
X106030Y-375341D02*
X106030Y-359841D01*
X113364Y-359841D01*
X113364Y-375341D01*
X106030Y-375341D01*
G37*
G36*
X109697Y-371674D02*
X125197Y-371674D01*
X125197Y-379008D01*
X109697Y-379008D01*
X109697Y-371674D01*
G37*
G54D28*
G36*
X359253Y-360049D02*
X359253Y-345549D01*
X375319Y-345549D01*
X375319Y-360049D01*
X359253Y-360049D01*
G37*
G36*
X367286Y-352016D02*
X381786Y-352016D01*
X381786Y-368082D01*
X367286Y-368082D01*
X367286Y-352016D01*
G37*
G36*
X375319Y-360049D02*
X375319Y-374549D01*
X359253Y-374549D01*
X359253Y-360049D01*
X375319Y-360049D01*
G37*
G36*
X367286Y-368082D02*
X352786Y-368082D01*
X352786Y-352016D01*
X367286Y-352016D01*
X367286Y-368082D01*
G37*
G54D29*
G36*
X610879Y-363224D02*
X610879Y-348724D01*
X625345Y-348724D01*
X625345Y-363224D01*
X610879Y-363224D01*
G37*
G36*
X618112Y-355991D02*
X632612Y-355991D01*
X632612Y-370457D01*
X618112Y-370457D01*
X618112Y-355991D01*
G37*
G36*
X625345Y-363224D02*
X625345Y-377724D01*
X610879Y-377724D01*
X610879Y-363224D01*
X625345Y-363224D01*
G37*
G36*
X618112Y-370457D02*
X603612Y-370457D01*
X603612Y-355991D01*
X618112Y-355991D01*
X618112Y-370457D01*
G37*
G54D23*
G36*
X658814Y-375341D02*
X658814Y-360841D01*
X665480Y-360841D01*
X665480Y-375341D01*
X658814Y-375341D01*
G37*
G36*
X662147Y-372008D02*
X676647Y-372008D01*
X676647Y-378674D01*
X662147Y-378674D01*
X662147Y-372008D01*
G37*
G36*
X665480Y-375341D02*
X665480Y-389841D01*
X658814Y-389841D01*
X658814Y-375341D01*
X665480Y-375341D01*
G37*
G36*
X662147Y-378674D02*
X647647Y-378674D01*
X647647Y-372008D01*
X662147Y-372008D01*
X662147Y-378674D01*
G37*
G54D23*
G36*
X728664Y-375341D02*
X728664Y-360841D01*
X735330Y-360841D01*
X735330Y-375341D01*
X728664Y-375341D01*
G37*
G36*
X731997Y-372008D02*
X746497Y-372008D01*
X746497Y-378674D01*
X731997Y-378674D01*
X731997Y-372008D01*
G37*
G36*
X735330Y-375341D02*
X735330Y-389841D01*
X728664Y-389841D01*
X728664Y-375341D01*
X735330Y-375341D01*
G37*
G36*
X731997Y-378674D02*
X717497Y-378674D01*
X717497Y-372008D01*
X731997Y-372008D01*
X731997Y-378674D01*
G37*
G54D23*
G36*
X817564Y-375341D02*
X817564Y-360841D01*
X824230Y-360841D01*
X824230Y-375341D01*
X817564Y-375341D01*
G37*
G36*
X820897Y-372008D02*
X835397Y-372008D01*
X835397Y-378674D01*
X820897Y-378674D01*
X820897Y-372008D01*
G37*
G36*
X824230Y-375341D02*
X824230Y-389841D01*
X817564Y-389841D01*
X817564Y-375341D01*
X824230Y-375341D01*
G37*
G36*
X820897Y-378674D02*
X806397Y-378674D01*
X806397Y-372008D01*
X820897Y-372008D01*
X820897Y-378674D01*
G37*
G54D23*
G36*
X887414Y-375341D02*
X887414Y-360841D01*
X894080Y-360841D01*
X894080Y-375341D01*
X887414Y-375341D01*
G37*
G36*
X890747Y-372008D02*
X905247Y-372008D01*
X905247Y-378674D01*
X890747Y-378674D01*
X890747Y-372008D01*
G37*
G36*
X894080Y-375341D02*
X894080Y-389841D01*
X887414Y-389841D01*
X887414Y-375341D01*
X894080Y-375341D01*
G37*
G36*
X890747Y-378674D02*
X876247Y-378674D01*
X876247Y-372008D01*
X890747Y-372008D01*
X890747Y-378674D01*
G37*
G54D29*
G36*
X966479Y-372749D02*
X966479Y-358249D01*
X980945Y-358249D01*
X980945Y-372749D01*
X966479Y-372749D01*
G37*
G36*
X973712Y-365516D02*
X988212Y-365516D01*
X988212Y-379982D01*
X973712Y-379982D01*
X973712Y-365516D01*
G37*
G36*
X980945Y-372749D02*
X980945Y-387249D01*
X966479Y-387249D01*
X966479Y-372749D01*
X980945Y-372749D01*
G37*
G36*
X973712Y-379982D02*
X959212Y-379982D01*
X959212Y-365516D01*
X973712Y-365516D01*
X973712Y-379982D01*
G37*
G54D27*
G36*
X1164800Y-391326D02*
X1164800Y-406826D01*
X1157466Y-406826D01*
X1157466Y-391326D01*
X1164800Y-391326D01*
G37*
G36*
X1161133Y-394993D02*
X1145633Y-394993D01*
X1145633Y-387659D01*
X1161133Y-387659D01*
X1161133Y-394993D01*
G37*
G36*
X1157466Y-391326D02*
X1157466Y-375826D01*
X1164800Y-375826D01*
X1164800Y-391326D01*
X1157466Y-391326D01*
G37*
G54D27*
G36*
X1274402Y-358276D02*
X1274402Y-373776D01*
X1267069Y-373776D01*
X1267069Y-358276D01*
X1274402Y-358276D01*
G37*
G36*
X1270735Y-361943D02*
X1255235Y-361943D01*
X1255235Y-354610D01*
X1270735Y-354610D01*
X1270735Y-361943D01*
G37*
G36*
X1267069Y-358276D02*
X1267069Y-342776D01*
X1274402Y-342776D01*
X1274402Y-358276D01*
X1267069Y-358276D01*
G37*
G36*
X1270735Y-354610D02*
X1286235Y-354610D01*
X1286235Y-361943D01*
X1270735Y-361943D01*
X1270735Y-354610D01*
G37*
G54D27*
G36*
X1274402Y-358276D02*
X1274402Y-373776D01*
X1267069Y-373776D01*
X1267069Y-358276D01*
X1274402Y-358276D01*
G37*
G36*
X1270735Y-361943D02*
X1255235Y-361943D01*
X1255235Y-354610D01*
X1270735Y-354610D01*
X1270735Y-361943D01*
G37*
G36*
X1267069Y-358276D02*
X1267069Y-342776D01*
X1274402Y-342776D01*
X1274402Y-358276D01*
X1267069Y-358276D01*
G37*
G36*
X1270735Y-354610D02*
X1286235Y-354610D01*
X1286235Y-361943D01*
X1270735Y-361943D01*
X1270735Y-354610D01*
G37*
G54D27*
G36*
X1227316Y-391325D02*
X1227316Y-375825D01*
X1234650Y-375825D01*
X1234650Y-391325D01*
X1227316Y-391325D01*
G37*
G36*
X1230983Y-387659D02*
X1246483Y-387659D01*
X1246483Y-394992D01*
X1230983Y-394992D01*
X1230983Y-387659D01*
G37*
G36*
X1234650Y-391325D02*
X1234650Y-406825D01*
X1227316Y-406825D01*
X1227316Y-391325D01*
X1234650Y-391325D01*
G37*
G36*
X1230983Y-394992D02*
X1215483Y-394992D01*
X1215483Y-387659D01*
X1230983Y-387659D01*
X1230983Y-394992D01*
G37*
G54D23*
G36*
X449264Y-559491D02*
X449264Y-544991D01*
X455930Y-544991D01*
X455930Y-559491D01*
X449264Y-559491D01*
G37*
G36*
X452597Y-556158D02*
X467097Y-556158D01*
X467097Y-562824D01*
X452597Y-562824D01*
X452597Y-556158D01*
G37*
G36*
X455930Y-559491D02*
X455930Y-573991D01*
X449264Y-573991D01*
X449264Y-559491D01*
X455930Y-559491D01*
G37*
G36*
X452597Y-562824D02*
X438097Y-562824D01*
X438097Y-556158D01*
X452597Y-556158D01*
X452597Y-562824D01*
G37*
G54D23*
G36*
X519114Y-559491D02*
X519114Y-544991D01*
X525780Y-544991D01*
X525780Y-559491D01*
X519114Y-559491D01*
G37*
G36*
X522447Y-556158D02*
X536947Y-556158D01*
X536947Y-562824D01*
X522447Y-562824D01*
X522447Y-556158D01*
G37*
G36*
X525780Y-559491D02*
X525780Y-573991D01*
X519114Y-573991D01*
X519114Y-559491D01*
X525780Y-559491D01*
G37*
G36*
X522447Y-562824D02*
X507947Y-562824D01*
X507947Y-556158D01*
X522447Y-556158D01*
X522447Y-562824D01*
G37*
G54D27*
G36*
X67902Y-548776D02*
X67902Y-564276D01*
X60569Y-564276D01*
X60569Y-548776D01*
X67902Y-548776D01*
G37*
G36*
X64235Y-552443D02*
X48735Y-552443D01*
X48735Y-545110D01*
X64235Y-545110D01*
X64235Y-552443D01*
G37*
G36*
X60569Y-548776D02*
X60569Y-533276D01*
X67902Y-533276D01*
X67902Y-548776D01*
X60569Y-548776D01*
G37*
G36*
X64235Y-545110D02*
X79735Y-545110D01*
X79735Y-552443D01*
X64235Y-552443D01*
X64235Y-545110D01*
G37*
G54D27*
G36*
X175880Y-581717D02*
X175880Y-566217D01*
X183214Y-566217D01*
X183214Y-581717D01*
X175880Y-581717D01*
G37*
G36*
X179547Y-578050D02*
X195047Y-578050D01*
X195047Y-585384D01*
X179547Y-585384D01*
X179547Y-578050D01*
G37*
G36*
X183214Y-581717D02*
X183214Y-597217D01*
X175880Y-597217D01*
X175880Y-581717D01*
X183214Y-581717D01*
G37*
G36*
X179547Y-585384D02*
X164047Y-585384D01*
X164047Y-578050D01*
X179547Y-578050D01*
X179547Y-585384D01*
G37*
G54D27*
G36*
X113364Y-565841D02*
X113364Y-581341D01*
X106030Y-581341D01*
X106030Y-565841D01*
X113364Y-565841D01*
G37*
G36*
X109697Y-569508D02*
X94197Y-569508D01*
X94197Y-562174D01*
X109697Y-562174D01*
X109697Y-569508D01*
G37*
G36*
X106030Y-565841D02*
X106030Y-550341D01*
X113364Y-550341D01*
X113364Y-565841D01*
X106030Y-565841D01*
G37*
G36*
X109697Y-562174D02*
X125197Y-562174D01*
X125197Y-569508D01*
X109697Y-569508D01*
X109697Y-562174D01*
G37*
G54D27*
G36*
X67902Y-548776D02*
X67902Y-564276D01*
X60569Y-564276D01*
X60569Y-548776D01*
X67902Y-548776D01*
G37*
G36*
X64235Y-552443D02*
X48735Y-552443D01*
X48735Y-545110D01*
X64235Y-545110D01*
X64235Y-552443D01*
G37*
G36*
X60569Y-548776D02*
X60569Y-533276D01*
X67902Y-533276D01*
X67902Y-548776D01*
X60569Y-548776D01*
G37*
G36*
X64235Y-545110D02*
X79735Y-545110D01*
X79735Y-552443D01*
X64235Y-552443D01*
X64235Y-545110D01*
G37*
G54D27*
G36*
X113364Y-565841D02*
X113364Y-581341D01*
X106030Y-581341D01*
X106030Y-565841D01*
X113364Y-565841D01*
G37*
G36*
X109697Y-569508D02*
X94197Y-569508D01*
X94197Y-562174D01*
X109697Y-562174D01*
X109697Y-569508D01*
G37*
G36*
X106030Y-565841D02*
X106030Y-550341D01*
X113364Y-550341D01*
X113364Y-565841D01*
X106030Y-565841D01*
G37*
G36*
X109697Y-562174D02*
X125197Y-562174D01*
X125197Y-569508D01*
X109697Y-569508D01*
X109697Y-562174D01*
G37*
G54D28*
G36*
X359253Y-550549D02*
X359253Y-536049D01*
X375319Y-536049D01*
X375319Y-550549D01*
X359253Y-550549D01*
G37*
G36*
X367286Y-542516D02*
X381786Y-542516D01*
X381786Y-558582D01*
X367286Y-558582D01*
X367286Y-542516D01*
G37*
G36*
X375319Y-550549D02*
X375319Y-565049D01*
X359253Y-565049D01*
X359253Y-550549D01*
X375319Y-550549D01*
G37*
G36*
X367286Y-558582D02*
X352786Y-558582D01*
X352786Y-542516D01*
X367286Y-542516D01*
X367286Y-558582D01*
G37*
G54D29*
G36*
X610879Y-553724D02*
X610879Y-539224D01*
X625345Y-539224D01*
X625345Y-553724D01*
X610879Y-553724D01*
G37*
G36*
X618112Y-546491D02*
X632612Y-546491D01*
X632612Y-560957D01*
X618112Y-560957D01*
X618112Y-546491D01*
G37*
G36*
X625345Y-553724D02*
X625345Y-568224D01*
X610879Y-568224D01*
X610879Y-553724D01*
X625345Y-553724D01*
G37*
G36*
X618112Y-560957D02*
X603612Y-560957D01*
X603612Y-546491D01*
X618112Y-546491D01*
X618112Y-560957D01*
G37*
G54D23*
G36*
X658814Y-565841D02*
X658814Y-551341D01*
X665480Y-551341D01*
X665480Y-565841D01*
X658814Y-565841D01*
G37*
G36*
X662147Y-562508D02*
X676647Y-562508D01*
X676647Y-569174D01*
X662147Y-569174D01*
X662147Y-562508D01*
G37*
G36*
X665480Y-565841D02*
X665480Y-580341D01*
X658814Y-580341D01*
X658814Y-565841D01*
X665480Y-565841D01*
G37*
G36*
X662147Y-569174D02*
X647647Y-569174D01*
X647647Y-562508D01*
X662147Y-562508D01*
X662147Y-569174D01*
G37*
G54D23*
G36*
X728664Y-565841D02*
X728664Y-551341D01*
X735330Y-551341D01*
X735330Y-565841D01*
X728664Y-565841D01*
G37*
G36*
X731997Y-562508D02*
X746497Y-562508D01*
X746497Y-569174D01*
X731997Y-569174D01*
X731997Y-562508D01*
G37*
G36*
X735330Y-565841D02*
X735330Y-580341D01*
X728664Y-580341D01*
X728664Y-565841D01*
X735330Y-565841D01*
G37*
G36*
X731997Y-569174D02*
X717497Y-569174D01*
X717497Y-562508D01*
X731997Y-562508D01*
X731997Y-569174D01*
G37*
G54D23*
G36*
X817564Y-565841D02*
X817564Y-551341D01*
X824230Y-551341D01*
X824230Y-565841D01*
X817564Y-565841D01*
G37*
G36*
X820897Y-562508D02*
X835397Y-562508D01*
X835397Y-569174D01*
X820897Y-569174D01*
X820897Y-562508D01*
G37*
G36*
X824230Y-565841D02*
X824230Y-580341D01*
X817564Y-580341D01*
X817564Y-565841D01*
X824230Y-565841D01*
G37*
G36*
X820897Y-569174D02*
X806397Y-569174D01*
X806397Y-562508D01*
X820897Y-562508D01*
X820897Y-569174D01*
G37*
G54D23*
G36*
X887414Y-565841D02*
X887414Y-551341D01*
X894080Y-551341D01*
X894080Y-565841D01*
X887414Y-565841D01*
G37*
G36*
X890747Y-562508D02*
X905247Y-562508D01*
X905247Y-569174D01*
X890747Y-569174D01*
X890747Y-562508D01*
G37*
G36*
X894080Y-565841D02*
X894080Y-580341D01*
X887414Y-580341D01*
X887414Y-565841D01*
X894080Y-565841D01*
G37*
G36*
X890747Y-569174D02*
X876247Y-569174D01*
X876247Y-562508D01*
X890747Y-562508D01*
X890747Y-569174D01*
G37*
G54D29*
G36*
X966479Y-563249D02*
X966479Y-548749D01*
X980945Y-548749D01*
X980945Y-563249D01*
X966479Y-563249D01*
G37*
G36*
X973712Y-556016D02*
X988212Y-556016D01*
X988212Y-570482D01*
X973712Y-570482D01*
X973712Y-556016D01*
G37*
G36*
X980945Y-563249D02*
X980945Y-577749D01*
X966479Y-577749D01*
X966479Y-563249D01*
X980945Y-563249D01*
G37*
G36*
X973712Y-570482D02*
X959212Y-570482D01*
X959212Y-556016D01*
X973712Y-556016D01*
X973712Y-570482D01*
G37*
G54D27*
G36*
X1164800Y-581826D02*
X1164800Y-597326D01*
X1157466Y-597326D01*
X1157466Y-581826D01*
X1164800Y-581826D01*
G37*
G36*
X1161133Y-585492D02*
X1145633Y-585492D01*
X1145633Y-578159D01*
X1161133Y-578159D01*
X1161133Y-585492D01*
G37*
G36*
X1157466Y-581826D02*
X1157466Y-566326D01*
X1164800Y-566326D01*
X1164800Y-581826D01*
X1157466Y-581826D01*
G37*
G36*
X1161133Y-578159D02*
X1176633Y-578159D01*
X1176633Y-585492D01*
X1161133Y-585492D01*
X1161133Y-578159D01*
G37*
G54D27*
G36*
X1274402Y-548776D02*
X1274402Y-564276D01*
X1267069Y-564276D01*
X1267069Y-548776D01*
X1274402Y-548776D01*
G37*
G36*
X1270735Y-552443D02*
X1255235Y-552443D01*
X1255235Y-545110D01*
X1270735Y-545110D01*
X1270735Y-552443D01*
G37*
G36*
X1267069Y-548776D02*
X1267069Y-533276D01*
X1274402Y-533276D01*
X1274402Y-548776D01*
X1267069Y-548776D01*
G37*
G36*
X1270735Y-545110D02*
X1286235Y-545110D01*
X1286235Y-552443D01*
X1270735Y-552443D01*
X1270735Y-545110D01*
G37*
G54D27*
G36*
X1274402Y-548776D02*
X1274402Y-564276D01*
X1267069Y-564276D01*
X1267069Y-548776D01*
X1274402Y-548776D01*
G37*
G36*
X1270735Y-552443D02*
X1255235Y-552443D01*
X1255235Y-545110D01*
X1270735Y-545110D01*
X1270735Y-552443D01*
G37*
G36*
X1267069Y-548776D02*
X1267069Y-533276D01*
X1274402Y-533276D01*
X1274402Y-548776D01*
X1267069Y-548776D01*
G37*
G36*
X1270735Y-545110D02*
X1286235Y-545110D01*
X1286235Y-552443D01*
X1270735Y-552443D01*
X1270735Y-545110D01*
G37*
G54D27*
G36*
X1227316Y-581825D02*
X1227316Y-566325D01*
X1234650Y-566325D01*
X1234650Y-581825D01*
X1227316Y-581825D01*
G37*
G36*
X1230983Y-578159D02*
X1246483Y-578159D01*
X1246483Y-585492D01*
X1230983Y-585492D01*
X1230983Y-578159D01*
G37*
G36*
X1234650Y-581825D02*
X1234650Y-597325D01*
X1227316Y-597325D01*
X1227316Y-581825D01*
X1234650Y-581825D01*
G37*
G36*
X1230983Y-585492D02*
X1215483Y-585492D01*
X1215483Y-578159D01*
X1230983Y-578159D01*
X1230983Y-585492D01*
G37*
G54D30*
G36*
X1366997Y402609D02*
X1386497Y402609D01*
X1386497Y383409D01*
X1366997Y383409D01*
X1366997Y402609D01*
G37*
G36*
X1376597Y393009D02*
X1376597Y373509D01*
X1357397Y373509D01*
X1357397Y393009D01*
X1376597Y393009D01*
G37*
G36*
X1366997Y383409D02*
X1347497Y383409D01*
X1347497Y402609D01*
X1366997Y402609D01*
X1366997Y383409D01*
G37*
G36*
X1357397Y393009D02*
X1357397Y412509D01*
X1376597Y412509D01*
X1376597Y393009D01*
X1357397Y393009D01*
G37*
G54D30*
G36*
X1468597Y402609D02*
X1488097Y402609D01*
X1488097Y383409D01*
X1468597Y383409D01*
X1468597Y402609D01*
G37*
G36*
X1478197Y393009D02*
X1478197Y373509D01*
X1458997Y373509D01*
X1458997Y393009D01*
X1478197Y393009D01*
G37*
G36*
X1468597Y383409D02*
X1449097Y383409D01*
X1449097Y402609D01*
X1468597Y402609D01*
X1468597Y383409D01*
G37*
G36*
X1458997Y393009D02*
X1458997Y412509D01*
X1478197Y412509D01*
X1478197Y393009D01*
X1458997Y393009D01*
G37*
G54D30*
G36*
X1363822Y180359D02*
X1383322Y180359D01*
X1383322Y161159D01*
X1363822Y161159D01*
X1363822Y180359D01*
G37*
G36*
X1373422Y170759D02*
X1373422Y151259D01*
X1354222Y151259D01*
X1354222Y170759D01*
X1373422Y170759D01*
G37*
G36*
X1363822Y161159D02*
X1344322Y161159D01*
X1344322Y180359D01*
X1363822Y180359D01*
X1363822Y161159D01*
G37*
G36*
X1354222Y170759D02*
X1354222Y190259D01*
X1373422Y190259D01*
X1373422Y170759D01*
X1354222Y170759D01*
G37*
G54D30*
G36*
X1465422Y180359D02*
X1484922Y180359D01*
X1484922Y161159D01*
X1465422Y161159D01*
X1465422Y180359D01*
G37*
G36*
X1475022Y170759D02*
X1475022Y151259D01*
X1455822Y151259D01*
X1455822Y170759D01*
X1475022Y170759D01*
G37*
G36*
X1465422Y161159D02*
X1445922Y161159D01*
X1445922Y180359D01*
X1465422Y180359D01*
X1465422Y161159D01*
G37*
G36*
X1455822Y170759D02*
X1455822Y190259D01*
X1475022Y190259D01*
X1475022Y170759D01*
X1455822Y170759D01*
G37*
G54D30*
G36*
X1363822Y-16491D02*
X1383322Y-16491D01*
X1383322Y-35691D01*
X1363822Y-35691D01*
X1363822Y-16491D01*
G37*
G36*
X1373422Y-26091D02*
X1373422Y-45591D01*
X1354222Y-45591D01*
X1354222Y-26091D01*
X1373422Y-26091D01*
G37*
G36*
X1363822Y-35691D02*
X1344322Y-35691D01*
X1344322Y-16491D01*
X1363822Y-16491D01*
X1363822Y-35691D01*
G37*
G36*
X1354222Y-26091D02*
X1354222Y-6591D01*
X1373422Y-6591D01*
X1373422Y-26091D01*
X1354222Y-26091D01*
G37*
G54D30*
G36*
X1465422Y-16491D02*
X1484922Y-16491D01*
X1484922Y-35691D01*
X1465422Y-35691D01*
X1465422Y-16491D01*
G37*
G36*
X1475022Y-26091D02*
X1475022Y-45591D01*
X1455822Y-45591D01*
X1455822Y-26091D01*
X1475022Y-26091D01*
G37*
G36*
X1465422Y-35691D02*
X1445922Y-35691D01*
X1445922Y-16491D01*
X1465422Y-16491D01*
X1465422Y-35691D01*
G37*
G36*
X1455822Y-26091D02*
X1455822Y-6591D01*
X1475022Y-6591D01*
X1475022Y-26091D01*
X1455822Y-26091D01*
G37*
G54D30*
G36*
X1363822Y-219691D02*
X1383322Y-219691D01*
X1383322Y-238891D01*
X1363822Y-238891D01*
X1363822Y-219691D01*
G37*
G36*
X1373422Y-229291D02*
X1373422Y-248791D01*
X1354222Y-248791D01*
X1354222Y-229291D01*
X1373422Y-229291D01*
G37*
G36*
X1363822Y-238891D02*
X1344322Y-238891D01*
X1344322Y-219691D01*
X1363822Y-219691D01*
X1363822Y-238891D01*
G37*
G36*
X1354222Y-229291D02*
X1354222Y-209791D01*
X1373422Y-209791D01*
X1373422Y-229291D01*
X1354222Y-229291D01*
G37*
G54D30*
G36*
X1465422Y-219691D02*
X1484922Y-219691D01*
X1484922Y-238891D01*
X1465422Y-238891D01*
X1465422Y-219691D01*
G37*
G36*
X1475022Y-229291D02*
X1475022Y-248791D01*
X1455822Y-248791D01*
X1455822Y-229291D01*
X1475022Y-229291D01*
G37*
G36*
X1465422Y-238891D02*
X1445922Y-238891D01*
X1445922Y-219691D01*
X1465422Y-219691D01*
X1465422Y-238891D01*
G37*
G36*
X1455822Y-229291D02*
X1455822Y-209791D01*
X1475022Y-209791D01*
X1475022Y-229291D01*
X1455822Y-229291D01*
G37*
G54D30*
G36*
X1363822Y-403841D02*
X1383322Y-403841D01*
X1383322Y-423041D01*
X1363822Y-423041D01*
X1363822Y-403841D01*
G37*
G36*
X1373422Y-413441D02*
X1373422Y-432941D01*
X1354222Y-432941D01*
X1354222Y-413441D01*
X1373422Y-413441D01*
G37*
G36*
X1363822Y-423041D02*
X1344322Y-423041D01*
X1344322Y-403841D01*
X1363822Y-403841D01*
X1363822Y-423041D01*
G37*
G36*
X1354222Y-413441D02*
X1354222Y-393941D01*
X1373422Y-393941D01*
X1373422Y-413441D01*
X1354222Y-413441D01*
G37*
G54D30*
G36*
X1465422Y-403841D02*
X1484922Y-403841D01*
X1484922Y-423041D01*
X1465422Y-423041D01*
X1465422Y-403841D01*
G37*
G36*
X1475022Y-413441D02*
X1475022Y-432941D01*
X1455822Y-432941D01*
X1455822Y-413441D01*
X1475022Y-413441D01*
G37*
G36*
X1465422Y-423041D02*
X1445922Y-423041D01*
X1445922Y-403841D01*
X1465422Y-403841D01*
X1465422Y-423041D01*
G37*
G36*
X1455822Y-413441D02*
X1455822Y-393941D01*
X1475022Y-393941D01*
X1475022Y-413441D01*
X1455822Y-413441D01*
G37*
G54D30*
G36*
X1363822Y-587991D02*
X1383322Y-587991D01*
X1383322Y-607191D01*
X1363822Y-607191D01*
X1363822Y-587991D01*
G37*
G36*
X1373422Y-597591D02*
X1373422Y-617091D01*
X1354222Y-617091D01*
X1354222Y-597591D01*
X1373422Y-597591D01*
G37*
G36*
X1363822Y-607191D02*
X1344322Y-607191D01*
X1344322Y-587991D01*
X1363822Y-587991D01*
X1363822Y-607191D01*
G37*
G36*
X1354222Y-597591D02*
X1354222Y-578091D01*
X1373422Y-578091D01*
X1373422Y-597591D01*
X1354222Y-597591D01*
G37*
G54D30*
G36*
X1465422Y-587991D02*
X1484922Y-587991D01*
X1484922Y-607191D01*
X1465422Y-607191D01*
X1465422Y-587991D01*
G37*
G36*
X1475022Y-597591D02*
X1475022Y-617091D01*
X1455822Y-617091D01*
X1455822Y-597591D01*
X1475022Y-597591D01*
G37*
G36*
X1465422Y-607191D02*
X1445922Y-607191D01*
X1445922Y-587991D01*
X1465422Y-587991D01*
X1465422Y-607191D01*
G37*
G36*
X1455822Y-597591D02*
X1455822Y-578091D01*
X1475022Y-578091D01*
X1475022Y-597591D01*
X1455822Y-597591D01*
G37*
G54D26*
G36*
X183080Y639084D02*
X183080Y653584D01*
X195014Y653584D01*
X195014Y639084D01*
X183080Y639084D01*
G37*
G36*
X189047Y645051D02*
X203547Y645051D01*
X203547Y633117D01*
X189047Y633117D01*
X189047Y645051D01*
G37*
G36*
X195014Y639084D02*
X195014Y624584D01*
X183080Y624584D01*
X183080Y639084D01*
X195014Y639084D01*
G37*
G36*
X189047Y633117D02*
X174547Y633117D01*
X174547Y645051D01*
X189047Y645051D01*
X189047Y633117D01*
G37*
G54D23*
G36*
X1550964Y-10241D02*
X1550964Y4259D01*
X1557630Y4259D01*
X1557630Y-10241D01*
X1550964Y-10241D01*
G37*
G36*
X1554297Y-6908D02*
X1568797Y-6908D01*
X1568797Y-13574D01*
X1554297Y-13574D01*
X1554297Y-6908D01*
G37*
G36*
X1557630Y-10241D02*
X1557630Y-24741D01*
X1550964Y-24741D01*
X1550964Y-10241D01*
X1557630Y-10241D01*
G37*
G36*
X1554297Y-13574D02*
X1539797Y-13574D01*
X1539797Y-6908D01*
X1554297Y-6908D01*
X1554297Y-13574D01*
G37*
G54D23*
G36*
X1601764Y-10241D02*
X1601764Y4259D01*
X1608430Y4259D01*
X1608430Y-10241D01*
X1601764Y-10241D01*
G37*
G36*
X1605097Y-6908D02*
X1619597Y-6908D01*
X1619597Y-13574D01*
X1605097Y-13574D01*
X1605097Y-6908D01*
G37*
G36*
X1608430Y-10241D02*
X1608430Y-24741D01*
X1601764Y-24741D01*
X1601764Y-10241D01*
X1608430Y-10241D01*
G37*
G36*
X1605097Y-13574D02*
X1590597Y-13574D01*
X1590597Y-6908D01*
X1605097Y-6908D01*
X1605097Y-13574D01*
G37*
G54D23*
G36*
X1550964Y-61041D02*
X1550964Y-46541D01*
X1557630Y-46541D01*
X1557630Y-61041D01*
X1550964Y-61041D01*
G37*
G36*
X1554297Y-57708D02*
X1568797Y-57708D01*
X1568797Y-64374D01*
X1554297Y-64374D01*
X1554297Y-57708D01*
G37*
G36*
X1557630Y-61041D02*
X1557630Y-75541D01*
X1550964Y-75541D01*
X1550964Y-61041D01*
X1557630Y-61041D01*
G37*
G36*
X1554297Y-64374D02*
X1539797Y-64374D01*
X1539797Y-57708D01*
X1554297Y-57708D01*
X1554297Y-64374D01*
G37*
G54D23*
G36*
X1601764Y-61041D02*
X1601764Y-46541D01*
X1608430Y-46541D01*
X1608430Y-61041D01*
X1601764Y-61041D01*
G37*
G36*
X1605097Y-57708D02*
X1619597Y-57708D01*
X1619597Y-64374D01*
X1605097Y-64374D01*
X1605097Y-57708D01*
G37*
G36*
X1608430Y-61041D02*
X1608430Y-75541D01*
X1601764Y-75541D01*
X1601764Y-61041D01*
X1608430Y-61041D01*
G37*
G36*
X1605097Y-64374D02*
X1590597Y-64374D01*
X1590597Y-57708D01*
X1605097Y-57708D01*
X1605097Y-64374D01*
G37*
G54D26*
G36*
X1586047Y457726D02*
X1600547Y457726D01*
X1600547Y445792D01*
X1586047Y445792D01*
X1586047Y457726D01*
G37*
G36*
X1592014Y451759D02*
X1592014Y437259D01*
X1580080Y437259D01*
X1580080Y451759D01*
X1592014Y451759D01*
G37*
G36*
X1586047Y445792D02*
X1571547Y445792D01*
X1571547Y457726D01*
X1586047Y457726D01*
X1586047Y445792D01*
G37*
G36*
X1580080Y451759D02*
X1580080Y466259D01*
X1592014Y466259D01*
X1592014Y451759D01*
X1580080Y451759D01*
G37*
G54D26*
G36*
X1586047Y241826D02*
X1600547Y241826D01*
X1600547Y229892D01*
X1586047Y229892D01*
X1586047Y241826D01*
G37*
G36*
X1592014Y235859D02*
X1592014Y221359D01*
X1580080Y221359D01*
X1580080Y235859D01*
X1592014Y235859D01*
G37*
G36*
X1586047Y229892D02*
X1571547Y229892D01*
X1571547Y241826D01*
X1586047Y241826D01*
X1586047Y229892D01*
G37*
G36*
X1580080Y235859D02*
X1580080Y250359D01*
X1592014Y250359D01*
X1592014Y235859D01*
X1580080Y235859D01*
G37*
G54D26*
G36*
X1586047Y-215374D02*
X1600547Y-215374D01*
X1600547Y-227308D01*
X1586047Y-227308D01*
X1586047Y-215374D01*
G37*
G36*
X1592014Y-221341D02*
X1592014Y-235841D01*
X1580080Y-235841D01*
X1580080Y-221341D01*
X1592014Y-221341D01*
G37*
G36*
X1586047Y-227308D02*
X1571547Y-227308D01*
X1571547Y-215374D01*
X1586047Y-215374D01*
X1586047Y-227308D01*
G37*
G36*
X1580080Y-221341D02*
X1580080Y-206841D01*
X1592014Y-206841D01*
X1592014Y-221341D01*
X1580080Y-221341D01*
G37*
G54D26*
G36*
X1586047Y-412224D02*
X1600547Y-412224D01*
X1600547Y-424158D01*
X1586047Y-424158D01*
X1586047Y-412224D01*
G37*
G36*
X1592014Y-418191D02*
X1592014Y-432691D01*
X1580080Y-432691D01*
X1580080Y-418191D01*
X1592014Y-418191D01*
G37*
G36*
X1586047Y-424158D02*
X1571547Y-424158D01*
X1571547Y-412224D01*
X1586047Y-412224D01*
X1586047Y-424158D01*
G37*
G36*
X1580080Y-418191D02*
X1580080Y-403691D01*
X1592014Y-403691D01*
X1592014Y-418191D01*
X1580080Y-418191D01*
G37*
G54D26*
G36*
X106497Y-647174D02*
X120997Y-647174D01*
X120997Y-659108D01*
X106497Y-659108D01*
X106497Y-647174D01*
G37*
G36*
X112464Y-653141D02*
X112464Y-667641D01*
X100530Y-667641D01*
X100530Y-653141D01*
X112464Y-653141D01*
G37*
G36*
X106497Y-659108D02*
X91997Y-659108D01*
X91997Y-647174D01*
X106497Y-647174D01*
X106497Y-659108D01*
G37*
G36*
X100530Y-653141D02*
X100530Y-638641D01*
X112464Y-638641D01*
X112464Y-653141D01*
X100530Y-653141D01*
G37*
G54D26*
G36*
X1287597Y-640824D02*
X1302097Y-640824D01*
X1302097Y-652758D01*
X1287597Y-652758D01*
X1287597Y-640824D01*
G37*
G36*
X1293564Y-646791D02*
X1293564Y-661291D01*
X1281630Y-661291D01*
X1281630Y-646791D01*
X1293564Y-646791D01*
G37*
G36*
X1287597Y-652758D02*
X1273097Y-652758D01*
X1273097Y-640824D01*
X1287597Y-640824D01*
X1287597Y-652758D01*
G37*
G36*
X1281630Y-646791D02*
X1281630Y-632291D01*
X1293564Y-632291D01*
X1293564Y-646791D01*
X1281630Y-646791D01*
G37*
G54D26*
G36*
X697047Y-653524D02*
X711547Y-653524D01*
X711547Y-665458D01*
X697047Y-665458D01*
X697047Y-653524D01*
G37*
G36*
X703014Y-659491D02*
X703014Y-673991D01*
X691080Y-673991D01*
X691080Y-659491D01*
X703014Y-659491D01*
G37*
G36*
X697047Y-665458D02*
X682547Y-665458D01*
X682547Y-653524D01*
X697047Y-653524D01*
X697047Y-665458D01*
G37*
G36*
X691080Y-659491D02*
X691080Y-644991D01*
X703014Y-644991D01*
X703014Y-659491D01*
X691080Y-659491D01*
G37*
X171747Y570084D02*
G54D31*
D03*
X197247Y570084D02*
G54D31*
D03*
X381297Y570084D02*
G54D31*
D03*
X406797Y570084D02*
G54D31*
D03*
X452597Y462859D02*
G54D31*
D03*
X522447Y462859D02*
G54D31*
D03*
X452597Y393009D02*
G54D31*
D03*
X522447Y393009D02*
G54D31*
D03*
X522447Y424759D02*
G54D31*
D03*
X452597Y424759D02*
G54D31*
D03*
X109697Y386659D02*
G54D32*
D03*
X109697Y488259D02*
G54D32*
D03*
X609897Y566909D02*
G54D31*
D03*
X635397Y566909D02*
G54D31*
D03*
X825797Y566909D02*
G54D31*
D03*
X851297Y566909D02*
G54D31*
D03*
X-84003Y142159D02*
G54D33*
D03*
X-33203Y142159D02*
G54D33*
D03*
X-58603Y116759D02*
G54D33*
D03*
X-33203Y91359D02*
G54D33*
D03*
X-84003Y91359D02*
G54D33*
D03*
X-84003Y-226141D02*
G54D33*
D03*
X-33203Y-226141D02*
G54D33*
D03*
X-58603Y-251541D02*
G54D33*
D03*
X-33203Y-276941D02*
G54D33*
D03*
X-84003Y-276941D02*
G54D33*
D03*
X452597Y393009D02*
G54D34*
D03*
X522447Y393009D02*
G54D34*
D03*
X-84003Y142159D02*
G54D34*
D03*
X-33203Y142159D02*
G54D34*
D03*
X-84003Y91359D02*
G54D34*
D03*
X-33203Y91359D02*
G54D34*
D03*
X-84003Y-226141D02*
G54D35*
D03*
X-33203Y-226141D02*
G54D34*
D03*
X-84003Y-276941D02*
G54D34*
D03*
X-33203Y-276941D02*
G54D34*
D03*
X-87153Y196159D02*
G54D32*
D03*
X-87153Y297759D02*
G54D32*
D03*
X-26526Y275132D02*
G54D31*
D03*
X-26414Y224152D02*
G54D31*
D03*
X-60028Y589134D02*
G54D31*
D03*
X-34528Y589134D02*
G54D31*
D03*
X-87153Y196159D02*
G54D34*
D03*
G36*
X388597Y652259D02*
X408597Y652259D01*
X408597Y632259D01*
X388597Y632259D01*
X388597Y652259D01*
G37*
G36*
X610847Y652259D02*
X630847Y652259D01*
X630847Y632259D01*
X610847Y632259D01*
X610847Y652259D01*
G37*
G36*
X820397Y655434D02*
X840397Y655434D01*
X840397Y635434D01*
X820397Y635434D01*
X820397Y655434D01*
G37*
G36*
X1061697Y652259D02*
X1081697Y652259D01*
X1081697Y632259D01*
X1061697Y632259D01*
X1061697Y652259D01*
G37*
G36*
X1242672Y652259D02*
X1262672Y652259D01*
X1262672Y632259D01*
X1242672Y632259D01*
X1242672Y652259D01*
G37*
X-118903Y624659D02*
G54D36*
D03*
X-112553Y-623116D02*
G54D36*
D03*
G36*
X-112103Y487159D02*
X-112103Y467159D01*
X-132103Y467159D01*
X-132103Y487159D01*
X-112103Y487159D01*
G37*
G36*
X-112103Y-401841D02*
X-112103Y-421841D01*
X-132103Y-421841D01*
X-132103Y-401841D01*
X-112103Y-401841D01*
G37*
X300197Y367609D02*
G54D33*
D03*
X179547Y370783D02*
G54D33*
D03*
X300197Y488259D02*
G54D33*
D03*
X179547Y488259D02*
G54D33*
D03*
X159584Y427934D02*
G54D33*
D03*
X64123Y454704D02*
G54D31*
D03*
X64235Y403724D02*
G54D31*
D03*
X64235Y403724D02*
G54D33*
D03*
X-120650Y-120650D02*
G54D33*
D03*
X-117476Y0D02*
G54D33*
D03*
X0Y-120650D02*
G54D33*
D03*
X0Y0D02*
G54D33*
D03*
X-60325Y20112D02*
G54D33*
D03*
X179547Y370783D02*
G54D37*
D03*
X-117476Y0D02*
G54D33*
D03*
G54D38*
X64123Y454704D02*
X65247Y453209D01*
X103347Y491309D01*
X109697Y491309D01*
X109697Y488259D01*
G54D38*
X179547Y488259D02*
X179547Y491309D01*
X109697Y491309D01*
X109697Y488259D01*
G54D39*
X-120650Y-120650D02*
X-118903Y-118291D01*
X-106203Y-130991D01*
X-106203Y-232591D01*
X-87153Y-251641D01*
X-61753Y-251641D01*
X-58603Y-251541D01*
X109697Y386659D02*
G54D33*
D03*
X14266Y249896D02*
G54D33*
D03*
X64235Y403724D02*
G54D33*
D03*
X109697Y386659D02*
G54D33*
D03*
X-26414Y224152D02*
G54D33*
D03*
X1747Y288109D02*
G54D33*
D03*
G54D39*
X197247Y570084D02*
X195422Y567509D01*
X170022Y567509D01*
X171747Y570084D01*
G54D39*
X635397Y566909D02*
X633572Y564334D01*
X608172Y564334D01*
X609897Y566909D01*
G54D39*
X851297Y566909D02*
X849472Y564334D01*
X824072Y564334D01*
X825797Y566909D01*
X367174Y452932D02*
G54D31*
D03*
X367286Y401952D02*
G54D31*
D03*
X408449Y452932D02*
G54D31*
D03*
X408562Y401952D02*
G54D31*
D03*
X367286Y401951D02*
G54D34*
D03*
X576724Y449757D02*
G54D31*
D03*
X576836Y398776D02*
G54D31*
D03*
X617999Y449757D02*
G54D31*
D03*
X618112Y398776D02*
G54D31*
D03*
X618112Y398776D02*
G54D34*
D03*
X662147Y456509D02*
G54D31*
D03*
X731997Y456509D02*
G54D31*
D03*
X662147Y386659D02*
G54D31*
D03*
X731997Y386659D02*
G54D31*
D03*
X731997Y418409D02*
G54D31*
D03*
X662147Y418409D02*
G54D31*
D03*
X662147Y386659D02*
G54D34*
D03*
X731997Y386659D02*
G54D34*
D03*
X776749Y449757D02*
G54D31*
D03*
X776862Y398776D02*
G54D31*
D03*
X820897Y456509D02*
G54D31*
D03*
X890747Y456509D02*
G54D31*
D03*
X820897Y386659D02*
G54D31*
D03*
X890747Y386659D02*
G54D31*
D03*
X890747Y418409D02*
G54D31*
D03*
X820897Y418409D02*
G54D31*
D03*
X820897Y386659D02*
G54D34*
D03*
X890747Y386659D02*
G54D34*
D03*
X932324Y443407D02*
G54D31*
D03*
X932436Y392426D02*
G54D31*
D03*
X973599Y440232D02*
G54D31*
D03*
X973712Y389252D02*
G54D31*
D03*
X973712Y389251D02*
G54D34*
D03*
G54D40*
X408449Y452932D02*
X404041Y455897D01*
X416741Y468597D01*
X454841Y468597D01*
X452597Y462859D01*
G54D40*
X576724Y449757D02*
X581841Y455897D01*
X569141Y468597D01*
X518341Y468597D01*
X522447Y462859D01*
G54D40*
X617999Y449757D02*
X619941Y455897D01*
X581841Y417797D01*
X581841Y405097D01*
X576837Y398777D01*
G54D40*
X662147Y456509D02*
X658041Y455897D01*
X619941Y455897D01*
X617999Y449757D01*
G54D40*
X776749Y449757D02*
X772341Y455897D01*
X734241Y455897D01*
X731997Y456509D01*
G54D40*
X820897Y456509D02*
X823141Y455897D01*
X772341Y405097D01*
X776861Y398777D01*
G54D40*
X932324Y443407D02*
X937441Y443197D01*
X924741Y455897D01*
X886641Y455897D01*
X890747Y456509D01*
G54D40*
X973599Y440232D02*
X975541Y443197D01*
X937441Y405097D01*
X937441Y392397D01*
X932437Y392427D01*
G54D40*
X367174Y452932D02*
X365941Y455897D01*
X302441Y392397D01*
X302441Y366997D01*
X300197Y367609D01*
G54D40*
X408561Y401951D02*
X404041Y405097D01*
X365941Y443197D01*
X365941Y455897D01*
X367174Y452932D01*
X1230983Y472274D02*
G54D32*
D03*
X1230983Y370675D02*
G54D32*
D03*
X1040483Y491324D02*
G54D33*
D03*
X1161133Y488151D02*
G54D33*
D03*
X1040483Y370674D02*
G54D33*
D03*
X1161133Y370675D02*
G54D33*
D03*
X1181095Y431000D02*
G54D33*
D03*
X1161133Y370675D02*
G54D37*
D03*
X1270623Y454704D02*
G54D31*
D03*
X1270735Y403724D02*
G54D31*
D03*
X1270735Y403724D02*
G54D33*
D03*
X1270735Y403724D02*
G54D33*
D03*
X1230983Y370675D02*
G54D33*
D03*
G54D40*
X1040483Y491325D02*
X1039041Y493997D01*
X988241Y443197D01*
X975541Y443197D01*
X973599Y440232D01*
G54D40*
X1161133Y488151D02*
X1166041Y493997D01*
X1191441Y468597D01*
X1229541Y468597D01*
X1230983Y472275D01*
G54D40*
X1270623Y454704D02*
X1267641Y455897D01*
X1254941Y468597D01*
X1229541Y468597D01*
X1230983Y472275D01*
X452597Y272359D02*
G54D31*
D03*
X522447Y272359D02*
G54D31*
D03*
X452597Y202509D02*
G54D31*
D03*
X522447Y202509D02*
G54D31*
D03*
X522447Y234259D02*
G54D31*
D03*
X452597Y234259D02*
G54D31*
D03*
X109697Y196159D02*
G54D32*
D03*
X109697Y297759D02*
G54D32*
D03*
X452597Y202509D02*
G54D34*
D03*
X522447Y202509D02*
G54D34*
D03*
X300197Y177109D02*
G54D33*
D03*
X179547Y180283D02*
G54D33*
D03*
X300197Y297759D02*
G54D33*
D03*
X179547Y297759D02*
G54D33*
D03*
X159584Y237434D02*
G54D33*
D03*
X64123Y264204D02*
G54D31*
D03*
X64235Y213224D02*
G54D31*
D03*
X64235Y213224D02*
G54D33*
D03*
X179547Y180283D02*
G54D37*
D03*
G54D38*
X64123Y264204D02*
X65247Y262709D01*
X103347Y300809D01*
X109697Y300809D01*
X109697Y297759D01*
G54D38*
X179547Y297759D02*
X179547Y300809D01*
X109697Y300809D01*
X109697Y297759D01*
X109697Y196159D02*
G54D33*
D03*
X64235Y213224D02*
G54D33*
D03*
X109697Y196159D02*
G54D33*
D03*
X367174Y262432D02*
G54D31*
D03*
X367286Y211452D02*
G54D31*
D03*
X408449Y262432D02*
G54D31*
D03*
X408562Y211452D02*
G54D31*
D03*
X367286Y211451D02*
G54D34*
D03*
X576724Y259257D02*
G54D31*
D03*
X576836Y208276D02*
G54D31*
D03*
X617999Y259257D02*
G54D31*
D03*
X618112Y208276D02*
G54D31*
D03*
X618112Y208276D02*
G54D34*
D03*
X662147Y266009D02*
G54D31*
D03*
X731997Y266009D02*
G54D31*
D03*
X662147Y196159D02*
G54D31*
D03*
X731997Y196159D02*
G54D31*
D03*
X731997Y227909D02*
G54D31*
D03*
X662147Y227909D02*
G54D31*
D03*
X662147Y196159D02*
G54D34*
D03*
X731997Y196159D02*
G54D34*
D03*
X776749Y259257D02*
G54D31*
D03*
X776862Y208276D02*
G54D31*
D03*
X820897Y266009D02*
G54D31*
D03*
X890747Y266009D02*
G54D31*
D03*
X820897Y196159D02*
G54D31*
D03*
X890747Y196159D02*
G54D31*
D03*
X890747Y227909D02*
G54D31*
D03*
X820897Y227909D02*
G54D31*
D03*
X820897Y196159D02*
G54D34*
D03*
X890747Y196159D02*
G54D34*
D03*
X932324Y252907D02*
G54D31*
D03*
X932436Y201926D02*
G54D31*
D03*
X973599Y249732D02*
G54D31*
D03*
X973712Y198752D02*
G54D31*
D03*
X973712Y198751D02*
G54D34*
D03*
G54D40*
X408449Y262432D02*
X404041Y265397D01*
X416741Y278097D01*
X454841Y278097D01*
X452597Y272359D01*
G54D40*
X576724Y259257D02*
X581841Y265397D01*
X569141Y278097D01*
X518341Y278097D01*
X522447Y272359D01*
G54D40*
X617999Y259257D02*
X619941Y265397D01*
X581841Y227297D01*
X581841Y214597D01*
X576837Y208277D01*
G54D40*
X662147Y266009D02*
X658041Y265397D01*
X619941Y265397D01*
X617999Y259257D01*
G54D40*
X776749Y259257D02*
X772341Y265397D01*
X734241Y265397D01*
X731997Y266009D01*
G54D40*
X820897Y266009D02*
X823141Y265397D01*
X772341Y214597D01*
X776861Y208277D01*
G54D40*
X932324Y252907D02*
X937441Y252697D01*
X924741Y265397D01*
X886641Y265397D01*
X890747Y266009D01*
G54D40*
X973599Y249732D02*
X975541Y252697D01*
X937441Y214597D01*
X937441Y201897D01*
X932437Y201927D01*
G54D40*
X367174Y262432D02*
X365941Y265397D01*
X302441Y201897D01*
X302441Y176497D01*
X300197Y177109D01*
G54D40*
X408561Y211451D02*
X404041Y214597D01*
X365941Y252697D01*
X365941Y265397D01*
X367174Y262432D01*
X1230983Y281774D02*
G54D32*
D03*
X1230983Y180175D02*
G54D32*
D03*
X1040483Y300824D02*
G54D33*
D03*
X1161133Y297651D02*
G54D33*
D03*
X1040483Y180174D02*
G54D33*
D03*
X1161133Y180174D02*
G54D33*
D03*
X1181595Y240500D02*
G54D33*
D03*
X1161133Y180174D02*
G54D37*
D03*
X1270623Y264204D02*
G54D31*
D03*
X1270735Y213224D02*
G54D31*
D03*
X1270735Y213224D02*
G54D33*
D03*
X1270735Y213224D02*
G54D33*
D03*
X1230983Y180175D02*
G54D33*
D03*
G54D40*
X1040483Y300825D02*
X1039041Y303497D01*
X988241Y252697D01*
X975541Y252697D01*
X973599Y249732D01*
G54D40*
X1161133Y297651D02*
X1166041Y303497D01*
X1191441Y278097D01*
X1229541Y278097D01*
X1230983Y281775D01*
G54D40*
X1270623Y264204D02*
X1267641Y265397D01*
X1254941Y278097D01*
X1229541Y278097D01*
X1230983Y281775D01*
X452597Y81859D02*
G54D31*
D03*
X522447Y81859D02*
G54D31*
D03*
X452597Y12009D02*
G54D31*
D03*
X522447Y12009D02*
G54D31*
D03*
X522447Y43759D02*
G54D31*
D03*
X452597Y43759D02*
G54D31*
D03*
X109697Y5659D02*
G54D32*
D03*
X109697Y107259D02*
G54D32*
D03*
X452597Y12009D02*
G54D34*
D03*
X522447Y12009D02*
G54D34*
D03*
X300197Y-13391D02*
G54D33*
D03*
X179547Y-10217D02*
G54D33*
D03*
X300197Y107259D02*
G54D33*
D03*
X179547Y107259D02*
G54D33*
D03*
X159584Y46934D02*
G54D33*
D03*
X64123Y73704D02*
G54D31*
D03*
X64235Y22724D02*
G54D31*
D03*
X64235Y22724D02*
G54D33*
D03*
X179547Y-10217D02*
G54D37*
D03*
G54D38*
X64123Y73704D02*
X65247Y72209D01*
X103347Y110309D01*
X109697Y110309D01*
X109697Y107259D01*
G54D38*
X179547Y107259D02*
X179547Y110309D01*
X109697Y110309D01*
X109697Y107259D01*
X109697Y5659D02*
G54D33*
D03*
X64235Y22724D02*
G54D33*
D03*
X109697Y5659D02*
G54D33*
D03*
X367174Y71932D02*
G54D31*
D03*
X367286Y20952D02*
G54D31*
D03*
X408449Y71932D02*
G54D31*
D03*
X408562Y20952D02*
G54D31*
D03*
X367286Y20951D02*
G54D34*
D03*
X576724Y68757D02*
G54D31*
D03*
X576836Y17776D02*
G54D31*
D03*
X617999Y68757D02*
G54D31*
D03*
X618112Y17776D02*
G54D31*
D03*
X618112Y17776D02*
G54D34*
D03*
X662147Y75509D02*
G54D31*
D03*
X731997Y75509D02*
G54D31*
D03*
X662147Y5659D02*
G54D31*
D03*
X731997Y5659D02*
G54D31*
D03*
X731997Y37409D02*
G54D31*
D03*
X662147Y37409D02*
G54D31*
D03*
X662147Y5659D02*
G54D34*
D03*
X731997Y5659D02*
G54D34*
D03*
X776749Y68757D02*
G54D31*
D03*
X776862Y17776D02*
G54D31*
D03*
X820897Y75509D02*
G54D31*
D03*
X890747Y75509D02*
G54D31*
D03*
X820897Y5659D02*
G54D31*
D03*
X890747Y5659D02*
G54D31*
D03*
X890747Y37409D02*
G54D31*
D03*
X820897Y37409D02*
G54D31*
D03*
X820897Y5659D02*
G54D34*
D03*
X890747Y5659D02*
G54D34*
D03*
X932324Y62407D02*
G54D31*
D03*
X932436Y11426D02*
G54D31*
D03*
X973599Y59232D02*
G54D31*
D03*
X973712Y8252D02*
G54D31*
D03*
X973712Y8251D02*
G54D34*
D03*
G54D40*
X408449Y71932D02*
X404041Y74897D01*
X416741Y87597D01*
X454841Y87597D01*
X452597Y81859D01*
G54D40*
X576724Y68757D02*
X581841Y74897D01*
X569141Y87597D01*
X518341Y87597D01*
X522447Y81859D01*
G54D40*
X617999Y68757D02*
X619941Y74897D01*
X581841Y36797D01*
X581841Y24097D01*
X576837Y17777D01*
G54D40*
X662147Y75509D02*
X658041Y74897D01*
X619941Y74897D01*
X617999Y68757D01*
G54D40*
X776749Y68757D02*
X772341Y74897D01*
X734241Y74897D01*
X731997Y75509D01*
G54D40*
X820897Y75509D02*
X823141Y74897D01*
X772341Y24097D01*
X776861Y17777D01*
G54D40*
X932324Y62407D02*
X937441Y62197D01*
X924741Y74897D01*
X886641Y74897D01*
X890747Y75509D01*
G54D40*
X973599Y59232D02*
X975541Y62197D01*
X937441Y24097D01*
X937441Y11397D01*
X932437Y11427D01*
G54D40*
X367174Y71932D02*
X365941Y74897D01*
X302441Y11397D01*
X302441Y-14003D01*
X300197Y-13391D01*
G54D40*
X408561Y20951D02*
X404041Y24097D01*
X365941Y62197D01*
X365941Y74897D01*
X367174Y71932D01*
X1230983Y91274D02*
G54D32*
D03*
X1230983Y-10325D02*
G54D32*
D03*
X1040483Y110324D02*
G54D33*
D03*
X1161133Y107151D02*
G54D33*
D03*
X1040483Y-10326D02*
G54D33*
D03*
X1161133Y-10326D02*
G54D33*
D03*
X1181095Y50000D02*
G54D33*
D03*
X1161133Y-10326D02*
G54D37*
D03*
X1270623Y73704D02*
G54D31*
D03*
X1270735Y22724D02*
G54D31*
D03*
X1270735Y22724D02*
G54D33*
D03*
X1270735Y22724D02*
G54D33*
D03*
X1230983Y-10325D02*
G54D33*
D03*
G54D40*
X1040483Y110325D02*
X1039041Y112997D01*
X988241Y62197D01*
X975541Y62197D01*
X973599Y59232D01*
G54D40*
X1161133Y107151D02*
X1166041Y112997D01*
X1191441Y87597D01*
X1229541Y87597D01*
X1230983Y91275D01*
G54D40*
X1270623Y73704D02*
X1267641Y74897D01*
X1254941Y87597D01*
X1229541Y87597D01*
X1230983Y91275D01*
X452597Y-108641D02*
G54D31*
D03*
X522447Y-108641D02*
G54D31*
D03*
X452597Y-178491D02*
G54D31*
D03*
X522447Y-178491D02*
G54D31*
D03*
X522447Y-146741D02*
G54D31*
D03*
X452597Y-146741D02*
G54D31*
D03*
X109697Y-184841D02*
G54D32*
D03*
X109697Y-83241D02*
G54D32*
D03*
X452597Y-178491D02*
G54D34*
D03*
X522447Y-178491D02*
G54D34*
D03*
X300197Y-203891D02*
G54D33*
D03*
X179547Y-200717D02*
G54D33*
D03*
X300197Y-83241D02*
G54D33*
D03*
X179547Y-83241D02*
G54D33*
D03*
X159584Y-143566D02*
G54D33*
D03*
X64123Y-116796D02*
G54D31*
D03*
X64235Y-167776D02*
G54D31*
D03*
X64235Y-167776D02*
G54D33*
D03*
X179547Y-200717D02*
G54D37*
D03*
G54D38*
X64123Y-116796D02*
X65247Y-118291D01*
X103347Y-80191D01*
X109697Y-80191D01*
X109697Y-83241D01*
G54D38*
X179547Y-83241D02*
X179547Y-80191D01*
X109697Y-80191D01*
X109697Y-83241D01*
X109697Y-184841D02*
G54D33*
D03*
X64235Y-167776D02*
G54D33*
D03*
X109697Y-184841D02*
G54D33*
D03*
X367174Y-118568D02*
G54D31*
D03*
X367286Y-169548D02*
G54D31*
D03*
X408449Y-118568D02*
G54D31*
D03*
X408562Y-169548D02*
G54D31*
D03*
X367286Y-169549D02*
G54D34*
D03*
X576724Y-121743D02*
G54D31*
D03*
X576836Y-172724D02*
G54D31*
D03*
X617999Y-121743D02*
G54D31*
D03*
X618112Y-172724D02*
G54D31*
D03*
X618112Y-172724D02*
G54D34*
D03*
X662147Y-114991D02*
G54D31*
D03*
X731997Y-114991D02*
G54D31*
D03*
X662147Y-184841D02*
G54D31*
D03*
X731997Y-184841D02*
G54D31*
D03*
X731997Y-153091D02*
G54D31*
D03*
X662147Y-153091D02*
G54D31*
D03*
X662147Y-184841D02*
G54D34*
D03*
X731997Y-184841D02*
G54D34*
D03*
X776749Y-121743D02*
G54D31*
D03*
X776862Y-172724D02*
G54D31*
D03*
X820897Y-114991D02*
G54D31*
D03*
X890747Y-114991D02*
G54D31*
D03*
X820897Y-184841D02*
G54D31*
D03*
X890747Y-184841D02*
G54D31*
D03*
X890747Y-153091D02*
G54D31*
D03*
X820897Y-153091D02*
G54D31*
D03*
X820897Y-184841D02*
G54D34*
D03*
X890747Y-184841D02*
G54D34*
D03*
X932324Y-128093D02*
G54D31*
D03*
X932436Y-179074D02*
G54D31*
D03*
X973599Y-131268D02*
G54D31*
D03*
X973712Y-182248D02*
G54D31*
D03*
X973712Y-182249D02*
G54D34*
D03*
G54D40*
X408449Y-118568D02*
X404041Y-115603D01*
X416741Y-102903D01*
X454841Y-102903D01*
X452597Y-108641D01*
G54D40*
X576724Y-121743D02*
X581841Y-115603D01*
X569141Y-102903D01*
X518341Y-102903D01*
X522447Y-108641D01*
G54D40*
X617999Y-121743D02*
X619941Y-115603D01*
X581841Y-153703D01*
X581841Y-166403D01*
X576837Y-172723D01*
G54D40*
X662147Y-114991D02*
X658041Y-115603D01*
X619941Y-115603D01*
X617999Y-121743D01*
G54D40*
X776749Y-121743D02*
X772341Y-115603D01*
X734241Y-115603D01*
X731997Y-114991D01*
G54D40*
X820897Y-114991D02*
X823141Y-115603D01*
X772341Y-166403D01*
X776861Y-172723D01*
G54D40*
X932324Y-128093D02*
X937441Y-128303D01*
X924741Y-115603D01*
X886641Y-115603D01*
X890747Y-114991D01*
G54D40*
X973599Y-131268D02*
X975541Y-128303D01*
X937441Y-166403D01*
X937441Y-179103D01*
X932437Y-179073D01*
G54D40*
X367174Y-118568D02*
X365941Y-115603D01*
X302441Y-179103D01*
X302441Y-204503D01*
X300197Y-203891D01*
G54D40*
X408561Y-169549D02*
X404041Y-166403D01*
X365941Y-128303D01*
X365941Y-115603D01*
X367174Y-118568D01*
X1230983Y-99226D02*
G54D32*
D03*
X1230983Y-200825D02*
G54D32*
D03*
X1040483Y-80176D02*
G54D33*
D03*
X1161133Y-83349D02*
G54D33*
D03*
X1040483Y-200826D02*
G54D33*
D03*
X1161133Y-200826D02*
G54D33*
D03*
X1181095Y-140500D02*
G54D33*
D03*
X1161133Y-200826D02*
G54D37*
D03*
X1270623Y-116796D02*
G54D31*
D03*
X1270735Y-167776D02*
G54D31*
D03*
X1270735Y-167776D02*
G54D33*
D03*
X1270735Y-167776D02*
G54D33*
D03*
X1230983Y-200825D02*
G54D33*
D03*
G54D40*
X1040483Y-80175D02*
X1039041Y-77503D01*
X988241Y-128303D01*
X975541Y-128303D01*
X973599Y-131268D01*
G54D40*
X1161133Y-83349D02*
X1166041Y-77503D01*
X1191441Y-102903D01*
X1229541Y-102903D01*
X1230983Y-99225D01*
G54D40*
X1270623Y-116796D02*
X1267641Y-115603D01*
X1254941Y-102903D01*
X1229541Y-102903D01*
X1230983Y-99225D01*
X452597Y-299141D02*
G54D31*
D03*
X522447Y-299141D02*
G54D31*
D03*
X452597Y-368991D02*
G54D31*
D03*
X522447Y-368991D02*
G54D31*
D03*
X522447Y-337241D02*
G54D31*
D03*
X452597Y-337241D02*
G54D31*
D03*
X109697Y-375341D02*
G54D32*
D03*
X109697Y-273741D02*
G54D32*
D03*
X452597Y-368991D02*
G54D34*
D03*
X522447Y-368991D02*
G54D34*
D03*
X300197Y-394391D02*
G54D33*
D03*
X179547Y-391217D02*
G54D33*
D03*
X300197Y-273741D02*
G54D33*
D03*
X179547Y-273741D02*
G54D33*
D03*
X159584Y-334066D02*
G54D33*
D03*
X64123Y-307296D02*
G54D31*
D03*
X64235Y-358276D02*
G54D31*
D03*
X64235Y-358276D02*
G54D33*
D03*
X179547Y-391217D02*
G54D37*
D03*
G54D38*
X64123Y-307296D02*
X65247Y-308791D01*
X103347Y-270691D01*
X109697Y-270691D01*
X109697Y-273741D01*
G54D38*
X179547Y-273741D02*
X179547Y-270691D01*
X109697Y-270691D01*
X109697Y-273741D01*
X109697Y-375341D02*
G54D33*
D03*
X64235Y-358276D02*
G54D33*
D03*
X109697Y-375341D02*
G54D33*
D03*
X367174Y-309068D02*
G54D31*
D03*
X367286Y-360048D02*
G54D31*
D03*
X408449Y-309068D02*
G54D31*
D03*
X408562Y-360048D02*
G54D31*
D03*
X367286Y-360049D02*
G54D34*
D03*
X576724Y-312243D02*
G54D31*
D03*
X576836Y-363224D02*
G54D31*
D03*
X617999Y-312243D02*
G54D31*
D03*
X618112Y-363224D02*
G54D31*
D03*
X618112Y-363224D02*
G54D34*
D03*
X662147Y-305491D02*
G54D31*
D03*
X731997Y-305491D02*
G54D31*
D03*
X662147Y-375341D02*
G54D31*
D03*
X731997Y-375341D02*
G54D31*
D03*
X731997Y-343591D02*
G54D31*
D03*
X662147Y-343591D02*
G54D31*
D03*
X662147Y-375341D02*
G54D34*
D03*
X731997Y-375341D02*
G54D34*
D03*
X776749Y-312243D02*
G54D31*
D03*
X776862Y-363224D02*
G54D31*
D03*
X820897Y-305491D02*
G54D31*
D03*
X890747Y-305491D02*
G54D31*
D03*
X820897Y-375341D02*
G54D31*
D03*
X890747Y-375341D02*
G54D31*
D03*
X890747Y-343591D02*
G54D31*
D03*
X820897Y-343591D02*
G54D31*
D03*
X820897Y-375341D02*
G54D34*
D03*
X890747Y-375341D02*
G54D34*
D03*
X932324Y-318593D02*
G54D31*
D03*
X932436Y-369574D02*
G54D31*
D03*
X973599Y-321768D02*
G54D31*
D03*
X973712Y-372748D02*
G54D31*
D03*
X973712Y-372749D02*
G54D34*
D03*
G54D40*
X408449Y-309068D02*
X404041Y-306103D01*
X416741Y-293403D01*
X454841Y-293403D01*
X452597Y-299141D01*
G54D40*
X576724Y-312243D02*
X581841Y-306103D01*
X569141Y-293403D01*
X518341Y-293403D01*
X522447Y-299141D01*
G54D40*
X617999Y-312243D02*
X619941Y-306103D01*
X581841Y-344203D01*
X581841Y-356903D01*
X576837Y-363223D01*
G54D40*
X662147Y-305491D02*
X658041Y-306103D01*
X619941Y-306103D01*
X617999Y-312243D01*
G54D40*
X776749Y-312243D02*
X772341Y-306103D01*
X734241Y-306103D01*
X731997Y-305491D01*
G54D40*
X820897Y-305491D02*
X823141Y-306103D01*
X772341Y-356903D01*
X776861Y-363223D01*
G54D40*
X932324Y-318593D02*
X937441Y-318803D01*
X924741Y-306103D01*
X886641Y-306103D01*
X890747Y-305491D01*
G54D40*
X973599Y-321768D02*
X975541Y-318803D01*
X937441Y-356903D01*
X937441Y-369603D01*
X932437Y-369573D01*
G54D40*
X367174Y-309068D02*
X365941Y-306103D01*
X302441Y-369603D01*
X302441Y-395003D01*
X300197Y-394391D01*
G54D40*
X408561Y-360049D02*
X404041Y-356903D01*
X365941Y-318803D01*
X365941Y-306103D01*
X367174Y-309068D01*
X1230983Y-289726D02*
G54D32*
D03*
X1230983Y-391325D02*
G54D32*
D03*
X1040483Y-270676D02*
G54D33*
D03*
X1161133Y-273849D02*
G54D33*
D03*
X1040483Y-391326D02*
G54D33*
D03*
X1161133Y-391326D02*
G54D33*
D03*
X1181095Y-331000D02*
G54D33*
D03*
X1161133Y-391326D02*
G54D37*
D03*
X1270623Y-307296D02*
G54D31*
D03*
X1270735Y-358276D02*
G54D31*
D03*
X1270735Y-358276D02*
G54D33*
D03*
X1270735Y-358276D02*
G54D33*
D03*
X1230983Y-391325D02*
G54D33*
D03*
G54D40*
X1040483Y-270675D02*
X1039041Y-268003D01*
X988241Y-318803D01*
X975541Y-318803D01*
X973599Y-321768D01*
G54D40*
X1161133Y-273849D02*
X1166041Y-268003D01*
X1191441Y-293403D01*
X1229541Y-293403D01*
X1230983Y-289725D01*
G54D40*
X1270623Y-307296D02*
X1267641Y-306103D01*
X1254941Y-293403D01*
X1229541Y-293403D01*
X1230983Y-289725D01*
X452597Y-489641D02*
G54D31*
D03*
X522447Y-489641D02*
G54D31*
D03*
X452597Y-559491D02*
G54D31*
D03*
X522447Y-559491D02*
G54D31*
D03*
X522447Y-527741D02*
G54D31*
D03*
X452597Y-527741D02*
G54D31*
D03*
X109697Y-565841D02*
G54D32*
D03*
X109697Y-464241D02*
G54D32*
D03*
X452597Y-559491D02*
G54D34*
D03*
X522447Y-559491D02*
G54D34*
D03*
X300197Y-584891D02*
G54D33*
D03*
X179547Y-581717D02*
G54D33*
D03*
X300197Y-464241D02*
G54D33*
D03*
X179547Y-464241D02*
G54D33*
D03*
X159584Y-524566D02*
G54D33*
D03*
X64123Y-497796D02*
G54D31*
D03*
X64235Y-548776D02*
G54D31*
D03*
X64235Y-548776D02*
G54D33*
D03*
X179547Y-581717D02*
G54D37*
D03*
G54D38*
X64123Y-497796D02*
X65247Y-499291D01*
X103347Y-461191D01*
X109697Y-461191D01*
X109697Y-464241D01*
G54D38*
X179547Y-464241D02*
X179547Y-461191D01*
X109697Y-461191D01*
X109697Y-464241D01*
X109697Y-565841D02*
G54D33*
D03*
X64235Y-548776D02*
G54D33*
D03*
X109697Y-565841D02*
G54D33*
D03*
X367174Y-499568D02*
G54D31*
D03*
X367286Y-550548D02*
G54D31*
D03*
X408449Y-499568D02*
G54D31*
D03*
X408562Y-550548D02*
G54D31*
D03*
X367286Y-550549D02*
G54D34*
D03*
X576724Y-502743D02*
G54D31*
D03*
X576836Y-553724D02*
G54D31*
D03*
X617999Y-502743D02*
G54D31*
D03*
X618112Y-553724D02*
G54D31*
D03*
X618112Y-553724D02*
G54D34*
D03*
X662147Y-495991D02*
G54D31*
D03*
X731997Y-495991D02*
G54D31*
D03*
X662147Y-565841D02*
G54D31*
D03*
X731997Y-565841D02*
G54D31*
D03*
X731997Y-534091D02*
G54D31*
D03*
X662147Y-534091D02*
G54D31*
D03*
X662147Y-565841D02*
G54D34*
D03*
X731997Y-565841D02*
G54D34*
D03*
X776749Y-502743D02*
G54D31*
D03*
X776862Y-553724D02*
G54D31*
D03*
X820897Y-495991D02*
G54D31*
D03*
X890747Y-495991D02*
G54D31*
D03*
X820897Y-565841D02*
G54D31*
D03*
X890747Y-565841D02*
G54D31*
D03*
X890747Y-534091D02*
G54D31*
D03*
X820897Y-534091D02*
G54D31*
D03*
X820897Y-565841D02*
G54D34*
D03*
X890747Y-565841D02*
G54D34*
D03*
X932324Y-509093D02*
G54D31*
D03*
X932436Y-560074D02*
G54D31*
D03*
X973599Y-512268D02*
G54D31*
D03*
X973712Y-563248D02*
G54D31*
D03*
X973712Y-563249D02*
G54D34*
D03*
G54D40*
X408449Y-499568D02*
X404041Y-496603D01*
X416741Y-483903D01*
X454841Y-483903D01*
X452597Y-489641D01*
G54D40*
X576724Y-502743D02*
X581841Y-496603D01*
X569141Y-483903D01*
X518341Y-483903D01*
X522447Y-489641D01*
G54D40*
X617999Y-502743D02*
X619941Y-496603D01*
X581841Y-534703D01*
X581841Y-547403D01*
X576837Y-553723D01*
G54D40*
X662147Y-495991D02*
X658041Y-496603D01*
X619941Y-496603D01*
X617999Y-502743D01*
G54D40*
X776749Y-502743D02*
X772341Y-496603D01*
X734241Y-496603D01*
X731997Y-495991D01*
G54D40*
X820897Y-495991D02*
X823141Y-496603D01*
X772341Y-547403D01*
X776861Y-553723D01*
G54D40*
X932324Y-509093D02*
X937441Y-509303D01*
X924741Y-496603D01*
X886641Y-496603D01*
X890747Y-495991D01*
G54D40*
X973599Y-512268D02*
X975541Y-509303D01*
X937441Y-547403D01*
X937441Y-560103D01*
X932437Y-560073D01*
G54D40*
X367174Y-499568D02*
X365941Y-496603D01*
X302441Y-560103D01*
X302441Y-585503D01*
X300197Y-584891D01*
G54D40*
X408561Y-550549D02*
X404041Y-547403D01*
X365941Y-509303D01*
X365941Y-496603D01*
X367174Y-499568D01*
X1230983Y-480226D02*
G54D32*
D03*
X1230983Y-581825D02*
G54D32*
D03*
X1040483Y-461176D02*
G54D33*
D03*
X1161133Y-464349D02*
G54D33*
D03*
X1040483Y-581826D02*
G54D33*
D03*
X1161133Y-581826D02*
G54D33*
D03*
X1181096Y-521500D02*
G54D33*
D03*
X1161133Y-581826D02*
G54D37*
D03*
X1270623Y-497796D02*
G54D31*
D03*
X1270735Y-548776D02*
G54D31*
D03*
X1270735Y-548776D02*
G54D33*
D03*
X1270735Y-548776D02*
G54D33*
D03*
X1230983Y-581825D02*
G54D33*
D03*
G54D40*
X1040483Y-461175D02*
X1039041Y-458503D01*
X988241Y-509303D01*
X975541Y-509303D01*
X973599Y-512268D01*
G54D40*
X1161133Y-464349D02*
X1166041Y-458503D01*
X1191441Y-483903D01*
X1229541Y-483903D01*
X1230983Y-480225D01*
G54D40*
X1270623Y-497796D02*
X1267641Y-496603D01*
X1254941Y-483903D01*
X1229541Y-483903D01*
X1230983Y-480225D01*
X1054397Y570084D02*
G54D31*
D03*
X1079897Y570084D02*
G54D31*
D03*
G54D39*
X1079897Y570084D02*
X1078072Y567509D01*
X1052672Y567509D01*
X1054397Y570084D01*
X1251247Y566909D02*
G54D31*
D03*
X1276747Y566909D02*
G54D31*
D03*
G54D39*
X1276747Y566909D02*
X1274922Y564334D01*
X1249522Y564334D01*
X1251247Y566909D01*
G54D40*
X109697Y488259D02*
X111941Y493997D01*
X188141Y570197D01*
X200841Y570197D01*
X197247Y570084D01*
G54D40*
X1230983Y472275D02*
X1229541Y468597D01*
X1153341Y544797D01*
X378641Y544797D01*
X353241Y570197D01*
X200841Y570197D01*
X197247Y570084D01*
G54D40*
X179547Y297759D02*
X175441Y303497D01*
X124641Y354297D01*
X111941Y354297D01*
X86541Y379697D01*
X86541Y417797D01*
X73841Y430497D01*
X61141Y430497D01*
X35741Y455897D01*
X150041Y570197D01*
X150041Y582897D01*
X162741Y595597D01*
X200841Y595597D01*
X213541Y582897D01*
X365941Y582897D01*
X378641Y570197D01*
X381297Y570084D01*
G54D40*
X1230983Y281775D02*
X1229541Y278097D01*
X1293041Y341597D01*
X1293041Y468597D01*
X1166041Y595597D01*
X607241Y595597D01*
X581841Y570197D01*
X404041Y570197D01*
X406797Y570084D01*
G54D40*
X406797Y570084D02*
X404041Y570197D01*
X378641Y570197D01*
X381297Y570084D01*
X1366997Y494609D02*
G54D41*
D03*
X1468597Y494609D02*
G54D33*
D03*
X1468597Y494609D02*
G54D41*
D03*
X1366997Y494609D02*
G54D41*
D03*
X1366997Y393009D02*
G54D33*
D03*
X1366997Y393009D02*
G54D41*
D03*
X1468597Y494609D02*
G54D41*
D03*
X1468597Y393009D02*
G54D33*
D03*
X1468597Y393009D02*
G54D41*
D03*
X1363822Y272359D02*
G54D41*
D03*
X1465422Y272359D02*
G54D33*
D03*
X1465422Y272359D02*
G54D41*
D03*
X1363822Y272359D02*
G54D41*
D03*
X1363822Y170759D02*
G54D33*
D03*
X1363822Y170759D02*
G54D41*
D03*
X1465422Y272359D02*
G54D41*
D03*
X1465422Y170759D02*
G54D33*
D03*
X1465422Y170759D02*
G54D41*
D03*
X1363822Y75509D02*
G54D41*
D03*
X1465422Y75509D02*
G54D33*
D03*
X1465422Y75509D02*
G54D41*
D03*
X1363822Y75509D02*
G54D41*
D03*
X1363822Y-26091D02*
G54D33*
D03*
X1363822Y-26091D02*
G54D41*
D03*
X1465422Y75509D02*
G54D41*
D03*
X1465422Y-26091D02*
G54D33*
D03*
X1465422Y-26091D02*
G54D41*
D03*
X1363822Y-127691D02*
G54D41*
D03*
X1465422Y-127691D02*
G54D33*
D03*
X1465422Y-127691D02*
G54D41*
D03*
X1363822Y-127691D02*
G54D41*
D03*
X1363822Y-229291D02*
G54D33*
D03*
X1363822Y-229291D02*
G54D41*
D03*
X1465422Y-127691D02*
G54D41*
D03*
X1465422Y-229291D02*
G54D33*
D03*
X1465422Y-229291D02*
G54D41*
D03*
X1363822Y-311841D02*
G54D41*
D03*
X1465422Y-311841D02*
G54D33*
D03*
X1465422Y-311841D02*
G54D41*
D03*
X1363822Y-311841D02*
G54D41*
D03*
X1363822Y-413441D02*
G54D33*
D03*
X1363822Y-413441D02*
G54D41*
D03*
X1465422Y-311841D02*
G54D41*
D03*
X1465422Y-413441D02*
G54D33*
D03*
X1465422Y-413441D02*
G54D41*
D03*
X1363822Y-495991D02*
G54D41*
D03*
X1465422Y-495991D02*
G54D33*
D03*
X1465422Y-495991D02*
G54D41*
D03*
X1363822Y-495991D02*
G54D41*
D03*
X1363822Y-597591D02*
G54D33*
D03*
X1363822Y-597591D02*
G54D41*
D03*
X1465422Y-495991D02*
G54D41*
D03*
X1465422Y-597591D02*
G54D33*
D03*
X1465422Y-597591D02*
G54D41*
D03*
X1366997Y393009D02*
G54D41*
D03*
X1468597Y393009D02*
G54D41*
D03*
X1363822Y170759D02*
G54D41*
D03*
X1465422Y170759D02*
G54D41*
D03*
X1363822Y-26091D02*
G54D41*
D03*
X1465422Y-26091D02*
G54D41*
D03*
X1363822Y-229291D02*
G54D41*
D03*
X1465422Y-229291D02*
G54D41*
D03*
X1363822Y-413441D02*
G54D41*
D03*
X1465422Y-413441D02*
G54D41*
D03*
X1363822Y-597591D02*
G54D41*
D03*
X1465422Y-597591D02*
G54D41*
D03*
G54D42*
X1366997Y494609D02*
X1316197Y443809D01*
X1316197Y342209D01*
X1290797Y316809D01*
X1290797Y253309D01*
X1278097Y240609D01*
X1265397Y240609D01*
X1252697Y253309D01*
X1227297Y253309D01*
X1214597Y266009D01*
X1176497Y266009D01*
X1163797Y278709D01*
X1151097Y278709D01*
X1138397Y291409D01*
X1138397Y380309D01*
X1176497Y418409D01*
X1176497Y431109D01*
X1178595Y431000D01*
G54D42*
X1363822Y272359D02*
X1366997Y278709D01*
X1239997Y151709D01*
X1227297Y151709D01*
X1176497Y202509D01*
X1176497Y240609D01*
X1178595Y240500D01*
G54D42*
X1363822Y75509D02*
X1366997Y75509D01*
X1341597Y50109D01*
X1176497Y50109D01*
X1178595Y50000D01*
G54D42*
X1363822Y-127691D02*
X1366997Y-127691D01*
X1354297Y-140391D01*
X1176497Y-140391D01*
X1178595Y-140500D01*
G54D42*
X1363822Y-311841D02*
X1366997Y-305491D01*
X1341597Y-330891D01*
X1176497Y-330891D01*
X1178595Y-331000D01*
G54D42*
X1363822Y-495991D02*
X1366997Y-495991D01*
X1341597Y-521391D01*
X1176497Y-521391D01*
X1178595Y-521501D01*
G54D42*
X-60325Y11113D02*
X-55403Y12009D01*
X96997Y164409D01*
X109697Y164409D01*
X160497Y215209D01*
X173197Y215209D01*
X211297Y253309D01*
X211297Y380309D01*
X160497Y431109D01*
X162085Y427934D01*
X1601947Y-616766D02*
G54D36*
D03*
X1595597Y621484D02*
G54D36*
D03*
G36*
X179047Y649084D02*
X199047Y649084D01*
X199047Y629084D01*
X179047Y629084D01*
X179047Y649084D01*
G37*
X1554297Y-10241D02*
G54D33*
D03*
X1605097Y-10241D02*
G54D33*
D03*
X1579697Y-35641D02*
G54D33*
D03*
X1605097Y-61041D02*
G54D33*
D03*
X1554297Y-61041D02*
G54D33*
D03*
X1554297Y-10241D02*
G54D35*
D03*
X1605097Y-10241D02*
G54D34*
D03*
X1554297Y-61041D02*
G54D34*
D03*
X1605097Y-61041D02*
G54D34*
D03*
X1519397Y-13391D02*
G54D33*
D03*
G36*
X1596047Y461759D02*
X1596047Y441759D01*
X1576047Y441759D01*
X1576047Y461759D01*
X1596047Y461759D01*
G37*
G36*
X1596047Y245859D02*
X1596047Y225859D01*
X1576047Y225859D01*
X1576047Y245859D01*
X1596047Y245859D01*
G37*
G36*
X1596047Y-211341D02*
X1596047Y-231341D01*
X1576047Y-231341D01*
X1576047Y-211341D01*
X1596047Y-211341D01*
G37*
G36*
X1596047Y-408191D02*
X1596047Y-428191D01*
X1576047Y-428191D01*
X1576047Y-408191D01*
X1596047Y-408191D01*
G37*
G36*
X116497Y-643141D02*
X116497Y-663141D01*
X96497Y-663141D01*
X96497Y-643141D01*
X116497Y-643141D01*
G37*
G36*
X1297597Y-636791D02*
X1297597Y-656791D01*
X1277597Y-656791D01*
X1277597Y-636791D01*
X1297597Y-636791D01*
G37*
G36*
X707047Y-649491D02*
X707047Y-669491D01*
X687047Y-669491D01*
X687047Y-649491D01*
X707047Y-649491D01*
G37*
G54D17*
X159585Y-334066D02*
X160000Y-336000D01*
X208000Y-288000D01*
X208000Y-176000D01*
X176000Y-144000D01*
X160000Y-144000D01*
X159585Y-143566D01*
G54D17*
X159585Y-524566D02*
X160000Y-528000D01*
X208000Y-480000D01*
X208000Y-368000D01*
X176000Y-336000D01*
X160000Y-336000D01*
X159585Y-334066D01*
G54D17*
X159585Y46934D02*
X160000Y48000D01*
X208000Y96000D01*
X208000Y384000D01*
X160000Y432000D01*
X159585Y427934D01*
G54D17*
X159585Y-143566D02*
X160000Y-144000D01*
X208000Y-96000D01*
X208000Y0D01*
X160000Y48000D01*
X159585Y46934D01*
M02*
