%FSLAX34Y34*%
%MOMM*%
%LNCOPPER_BOTTOM*%
G71*
G01*
%ADD10C,3.200*%
%ADD11C,3.000*%
%ADD12C,1.600*%
%ADD13C,3.000*%
%ADD14C,2.800*%
%ADD15C,3.200*%
%ADD16C,1.400*%
%ADD17C,1.800*%
%ADD18C,1.300*%
%ADD19C,0.667*%
%ADD20C,0.813*%
%ADD21C,0.733*%
%ADD22C,1.380*%
%ADD23C,1.467*%
%ADD24C,1.447*%
%ADD25C,1.000*%
%ADD26C,2.230*%
%ADD27C,2.000*%
%ADD28C,1.800*%
%ADD29C,0.800*%
%ADD30C,2.200*%
%ADD31C,2.000*%
%ADD32C,3.000*%
%ADD33C,0.600*%
%ADD34C,1.000*%
%ADD35C,0.500*%
%LPD*%
G36*
X-12700Y254000D02*
X587300Y254000D01*
X587300Y-206000D01*
X-12700Y-206000D01*
X-12700Y254000D01*
G37*
%LPC*%
X128929Y98375D02*
G54D10*
D03*
X128979Y174625D02*
G54D10*
D03*
X47936Y94975D02*
G54D10*
D03*
X48048Y43994D02*
G54D10*
D03*
X162235Y69575D02*
G54D10*
D03*
X162348Y18594D02*
G54D10*
D03*
X128945Y-130225D02*
G54D10*
D03*
X128995Y-53975D02*
G54D10*
D03*
X249666Y126389D02*
G54D10*
D03*
X173416Y126439D02*
G54D10*
D03*
X174625Y-53975D02*
G54D10*
D03*
X174575Y-130225D02*
G54D10*
D03*
X306729Y98374D02*
G54D10*
D03*
X306778Y174624D02*
G54D10*
D03*
X204060Y-26141D02*
G54D10*
D03*
X301625Y-28575D02*
G54D10*
D03*
X301575Y-104825D02*
G54D10*
D03*
X377825Y-28575D02*
G54D10*
D03*
X377775Y-104825D02*
G54D10*
D03*
X428625Y-28575D02*
G54D10*
D03*
X428575Y-104825D02*
G54D10*
D03*
X528097Y37469D02*
G54D10*
D03*
X477116Y37357D02*
G54D10*
D03*
X456642Y168193D02*
G54D10*
D03*
X380392Y168243D02*
G54D10*
D03*
X490675Y231175D02*
G54D10*
D03*
X516175Y231175D02*
G54D10*
D03*
X58875Y-187925D02*
G54D10*
D03*
X84375Y-187925D02*
G54D10*
D03*
X241300Y50800D02*
G54D11*
D03*
X225400Y33225D02*
G54D11*
D03*
X241335Y15609D02*
G54D11*
D03*
X342900Y50800D02*
G54D11*
D03*
X327000Y33225D02*
G54D11*
D03*
X342935Y15609D02*
G54D11*
D03*
X419100Y50800D02*
G54D11*
D03*
X403200Y33225D02*
G54D11*
D03*
X419135Y15609D02*
G54D11*
D03*
G54D12*
X128995Y-53975D02*
X130150Y-57050D01*
X130150Y95350D01*
X128929Y98375D01*
G54D12*
X306778Y174624D02*
X307950Y171550D01*
X130150Y171550D01*
X128979Y174625D01*
G54D12*
X173416Y126439D02*
X174600Y127100D01*
X161900Y114400D01*
X161900Y69950D01*
X162235Y69575D01*
G54D12*
X128995Y-53975D02*
X130150Y-57050D01*
X161900Y-25300D01*
X161900Y19150D01*
X162348Y18594D01*
G54D12*
X225400Y33225D02*
X225400Y31850D01*
X136500Y-57050D01*
X130150Y-57050D01*
X128995Y-53975D01*
G54D12*
X342935Y15609D02*
X346050Y12800D01*
X301600Y-31650D01*
X301625Y-28575D01*
G54D12*
X327000Y33225D02*
X327000Y31850D01*
X307950Y50900D01*
X307950Y95350D01*
X306729Y98374D01*
G54D12*
X342900Y50800D02*
X346050Y50900D01*
X377800Y82650D01*
X377800Y165200D01*
X380392Y168243D01*
G54D12*
X306729Y98374D02*
X307950Y95350D01*
X276200Y127100D01*
X250800Y127100D01*
X249666Y126389D01*
G54D12*
X419100Y50800D02*
X422250Y50900D01*
X377800Y95350D01*
X377800Y165200D01*
X380392Y168243D01*
G54D12*
X477116Y37357D02*
X479400Y38200D01*
X473050Y31850D01*
X473050Y25500D01*
X447650Y100D01*
X447650Y-38000D01*
X428600Y-57050D01*
X428600Y-107850D01*
X428575Y-104825D01*
G54D12*
X419135Y15609D02*
X422250Y12800D01*
X377800Y-31650D01*
X377825Y-28575D01*
G54D12*
X241300Y50800D02*
X244450Y50900D01*
X288900Y95350D01*
X307950Y95350D01*
X306729Y98374D01*
G54D12*
X380392Y168243D02*
X377800Y165200D01*
X371450Y171550D01*
X307950Y171550D01*
X306778Y174624D01*
X22200Y-25300D02*
G54D13*
D03*
X73000Y-25300D02*
G54D13*
D03*
X47600Y-50700D02*
G54D13*
D03*
X73000Y-76100D02*
G54D13*
D03*
X22200Y-76100D02*
G54D13*
D03*
X492100Y-25300D02*
G54D13*
D03*
X542900Y-25300D02*
G54D13*
D03*
X517500Y-50700D02*
G54D13*
D03*
X542900Y-76100D02*
G54D13*
D03*
X492100Y-76100D02*
G54D13*
D03*
G54D12*
X47600Y-50700D02*
X47600Y44550D01*
X48048Y43994D01*
G54D12*
X128995Y-53975D02*
X130150Y-57050D01*
X66650Y6450D01*
X66650Y57250D01*
X47600Y76300D01*
X47600Y95350D01*
X47936Y94975D01*
G54D12*
X517500Y-50700D02*
X517500Y-18950D01*
X530200Y-6250D01*
X530200Y38200D01*
X528097Y37469D01*
X193626Y199009D02*
G54D10*
D03*
X244606Y199122D02*
G54D10*
D03*
G54D12*
X403200Y33225D02*
X403200Y30250D01*
X390500Y17550D01*
X346050Y17550D01*
X342935Y15609D01*
X128945Y-130225D02*
G54D14*
D03*
X174575Y-130225D02*
G54D14*
D03*
X301575Y-104825D02*
G54D14*
D03*
X377775Y-104825D02*
G54D14*
D03*
X128945Y-130225D02*
G54D14*
D03*
X174575Y-130225D02*
G54D14*
D03*
X301575Y-104825D02*
G54D14*
D03*
X377775Y-104825D02*
G54D14*
D03*
G36*
X120073Y244348D02*
X158073Y244348D01*
X158073Y206348D01*
X120073Y206348D01*
X120073Y244348D01*
G37*
G36*
X405823Y244348D02*
X443823Y244348D01*
X443823Y206348D01*
X405823Y206348D01*
X405823Y244348D01*
G37*
G36*
X128803Y-165862D02*
X166803Y-165862D01*
X166803Y-203862D01*
X128803Y-203862D01*
X128803Y-165862D01*
G37*
G36*
X477093Y-162052D02*
X515093Y-162052D01*
X515093Y-200052D01*
X477093Y-200052D01*
X477093Y-162052D01*
G37*
X8890Y228600D02*
G54D15*
D03*
X14290Y-183950D02*
G54D15*
D03*
X558800Y-184150D02*
G54D15*
D03*
X558800Y228600D02*
G54D15*
D03*
X254860Y-26141D02*
G54D10*
D03*
X257175Y-53975D02*
G54D10*
D03*
X257125Y-130225D02*
G54D10*
D03*
G54D16*
X241335Y15609D02*
X244450Y17550D01*
X219050Y-7850D01*
X219050Y-39600D01*
X206350Y-52300D01*
X174600Y-52300D01*
X174625Y-53975D01*
G54D16*
X204060Y-26141D02*
X206350Y-26900D01*
X180950Y-52300D01*
X174600Y-52300D01*
X174625Y-53975D01*
G54D16*
X257175Y-53975D02*
X257150Y-52300D01*
X257150Y-26900D01*
X254860Y-26141D01*
X257125Y-130225D02*
G54D14*
D03*
G54D12*
X516175Y231175D02*
X514350Y230250D01*
X457200Y173100D01*
X457200Y166750D01*
X456642Y168193D01*
G54D12*
X84375Y-187925D02*
X82550Y-188850D01*
X120650Y-150750D01*
X266700Y-150750D01*
X292100Y-125350D01*
X438150Y-125350D01*
X469900Y-93600D01*
X469900Y-17400D01*
X495300Y8000D01*
X495300Y46100D01*
X457200Y84200D01*
X457200Y166750D01*
X456642Y168193D01*
G54D12*
X244606Y199122D02*
X247650Y198500D01*
X273050Y173100D01*
X304800Y173100D01*
X306778Y174624D01*
G36*
X-9927Y154348D02*
X28073Y154348D01*
X28073Y116348D01*
X-9927Y116348D01*
X-9927Y154348D01*
G37*
G36*
X540073Y154348D02*
X578073Y154348D01*
X578073Y116348D01*
X540073Y116348D01*
X540073Y154348D01*
G37*
X60675Y231175D02*
G54D10*
D03*
X86175Y231175D02*
G54D10*
D03*
G54D16*
X86175Y231175D02*
X90000Y230000D01*
X120000Y200000D01*
X160000Y200000D01*
X180000Y220000D01*
X250000Y220000D01*
X270000Y200000D01*
X440000Y200000D01*
X450000Y210000D01*
X500000Y210000D01*
X520000Y230000D01*
X516175Y231175D01*
G54D16*
X428625Y-28575D02*
X430000Y-30000D01*
X380000Y-30000D01*
X377825Y-28575D01*
X557400Y15400D02*
G54D17*
D03*
G54D18*
X557400Y15400D02*
X555000Y15000D01*
X535000Y35000D01*
X530000Y35000D01*
X528097Y37469D01*
%LPD*%
G54D19*
G36*
X487342Y231175D02*
X487342Y247675D01*
X494008Y247675D01*
X494008Y231175D01*
X487342Y231175D01*
G37*
G54D20*
G54D19*
G36*
X55542Y-187925D02*
X55542Y-171425D01*
X62208Y-171425D01*
X62208Y-187925D01*
X55542Y-187925D01*
G37*
G54D20*
G54D21*
G36*
X18533Y-25300D02*
X18533Y-9800D01*
X25867Y-9800D01*
X25867Y-25300D01*
X18533Y-25300D01*
G37*
G36*
X22200Y-21633D02*
X37700Y-21633D01*
X37700Y-28967D01*
X22200Y-28967D01*
X22200Y-21633D01*
G37*
G36*
X25867Y-25300D02*
X25867Y-40800D01*
X18533Y-40800D01*
X18533Y-25300D01*
X25867Y-25300D01*
G37*
G36*
X22200Y-28967D02*
X6700Y-28967D01*
X6700Y-21633D01*
X22200Y-21633D01*
X22200Y-28967D01*
G37*
G54D21*
G36*
X69333Y-25300D02*
X69333Y-9800D01*
X76667Y-9800D01*
X76667Y-25300D01*
X69333Y-25300D01*
G37*
G36*
X73000Y-21633D02*
X88500Y-21633D01*
X88500Y-28967D01*
X73000Y-28967D01*
X73000Y-21633D01*
G37*
G36*
X76667Y-25300D02*
X76667Y-40800D01*
X69333Y-40800D01*
X69333Y-25300D01*
X76667Y-25300D01*
G37*
G36*
X73000Y-28967D02*
X57500Y-28967D01*
X57500Y-21633D01*
X73000Y-21633D01*
X73000Y-28967D01*
G37*
G54D21*
G36*
X69333Y-76100D02*
X69333Y-60600D01*
X76667Y-60600D01*
X76667Y-76100D01*
X69333Y-76100D01*
G37*
G36*
X73000Y-72433D02*
X88500Y-72433D01*
X88500Y-79767D01*
X73000Y-79767D01*
X73000Y-72433D01*
G37*
G36*
X76667Y-76100D02*
X76667Y-91600D01*
X69333Y-91600D01*
X69333Y-76100D01*
X76667Y-76100D01*
G37*
G36*
X73000Y-79767D02*
X57500Y-79767D01*
X57500Y-72433D01*
X73000Y-72433D01*
X73000Y-79767D01*
G37*
G54D21*
G36*
X18533Y-76100D02*
X18533Y-60600D01*
X25867Y-60600D01*
X25867Y-76100D01*
X18533Y-76100D01*
G37*
G36*
X22200Y-72433D02*
X37700Y-72433D01*
X37700Y-79767D01*
X22200Y-79767D01*
X22200Y-72433D01*
G37*
G36*
X25867Y-76100D02*
X25867Y-91600D01*
X18533Y-91600D01*
X18533Y-76100D01*
X25867Y-76100D01*
G37*
G36*
X22200Y-79767D02*
X6700Y-79767D01*
X6700Y-72433D01*
X22200Y-72433D01*
X22200Y-79767D01*
G37*
G54D21*
G36*
X488433Y-25300D02*
X488433Y-9800D01*
X495767Y-9800D01*
X495767Y-25300D01*
X488433Y-25300D01*
G37*
G36*
X492100Y-21633D02*
X507600Y-21633D01*
X507600Y-28967D01*
X492100Y-28967D01*
X492100Y-21633D01*
G37*
G36*
X495767Y-25300D02*
X495767Y-40800D01*
X488433Y-40800D01*
X488433Y-25300D01*
X495767Y-25300D01*
G37*
G36*
X492100Y-28967D02*
X476600Y-28967D01*
X476600Y-21633D01*
X492100Y-21633D01*
X492100Y-28967D01*
G37*
G54D21*
G36*
X539233Y-25300D02*
X539233Y-9800D01*
X546567Y-9800D01*
X546567Y-25300D01*
X539233Y-25300D01*
G37*
G36*
X542900Y-21633D02*
X558400Y-21633D01*
X558400Y-28967D01*
X542900Y-28967D01*
X542900Y-21633D01*
G37*
G36*
X546567Y-25300D02*
X546567Y-40800D01*
X539233Y-40800D01*
X539233Y-25300D01*
X546567Y-25300D01*
G37*
G36*
X542900Y-28967D02*
X527400Y-28967D01*
X527400Y-21633D01*
X542900Y-21633D01*
X542900Y-28967D01*
G37*
G54D21*
G36*
X539233Y-76100D02*
X539233Y-60600D01*
X546567Y-60600D01*
X546567Y-76100D01*
X539233Y-76100D01*
G37*
G36*
X542900Y-72433D02*
X558400Y-72433D01*
X558400Y-79767D01*
X542900Y-79767D01*
X542900Y-72433D01*
G37*
G36*
X546567Y-76100D02*
X546567Y-91600D01*
X539233Y-91600D01*
X539233Y-76100D01*
X546567Y-76100D01*
G37*
G36*
X542900Y-79767D02*
X527400Y-79767D01*
X527400Y-72433D01*
X542900Y-72433D01*
X542900Y-79767D01*
G37*
G54D21*
G36*
X488433Y-76100D02*
X488433Y-60600D01*
X495767Y-60600D01*
X495767Y-76100D01*
X488433Y-76100D01*
G37*
G36*
X492100Y-72433D02*
X507600Y-72433D01*
X507600Y-79767D01*
X492100Y-79767D01*
X492100Y-72433D01*
G37*
G36*
X495767Y-76100D02*
X495767Y-91600D01*
X488433Y-91600D01*
X488433Y-76100D01*
X495767Y-76100D01*
G37*
G36*
X492100Y-79767D02*
X476600Y-79767D01*
X476600Y-72433D01*
X492100Y-72433D01*
X492100Y-79767D01*
G37*
G54D19*
G36*
X193626Y202343D02*
X210126Y202343D01*
X210126Y195676D01*
X193626Y195676D01*
X193626Y202343D01*
G37*
G54D22*
G36*
X122045Y-130225D02*
X122045Y-115725D01*
X135845Y-115725D01*
X135845Y-130225D01*
X122045Y-130225D01*
G37*
G36*
X128945Y-123325D02*
X143445Y-123325D01*
X143445Y-137125D01*
X128945Y-137125D01*
X128945Y-123325D01*
G37*
G36*
X135845Y-130225D02*
X135845Y-144725D01*
X122045Y-144725D01*
X122045Y-130225D01*
X135845Y-130225D01*
G37*
G36*
X128945Y-137125D02*
X114445Y-137125D01*
X114445Y-123325D01*
X128945Y-123325D01*
X128945Y-137125D01*
G37*
G54D23*
G36*
X167242Y-130225D02*
X167242Y-115725D01*
X181908Y-115725D01*
X181908Y-130225D01*
X167242Y-130225D01*
G37*
G36*
X174575Y-122892D02*
X189075Y-122892D01*
X189075Y-137558D01*
X174575Y-137558D01*
X174575Y-122892D01*
G37*
G36*
X181908Y-130225D02*
X181908Y-144725D01*
X167242Y-144725D01*
X167242Y-130225D01*
X181908Y-130225D01*
G37*
G36*
X174575Y-137558D02*
X160075Y-137558D01*
X160075Y-122892D01*
X174575Y-122892D01*
X174575Y-137558D01*
G37*
G54D24*
G36*
X294342Y-104825D02*
X294342Y-90325D01*
X308808Y-90325D01*
X308808Y-104825D01*
X294342Y-104825D01*
G37*
G36*
X301575Y-97592D02*
X316075Y-97592D01*
X316075Y-112058D01*
X301575Y-112058D01*
X301575Y-97592D01*
G37*
G36*
X308808Y-104825D02*
X308808Y-119325D01*
X294342Y-119325D01*
X294342Y-104825D01*
X308808Y-104825D01*
G37*
G36*
X301575Y-112058D02*
X287075Y-112058D01*
X287075Y-97592D01*
X301575Y-97592D01*
X301575Y-112058D01*
G37*
G54D24*
G36*
X370542Y-104825D02*
X370542Y-90325D01*
X385008Y-90325D01*
X385008Y-104825D01*
X370542Y-104825D01*
G37*
G36*
X377775Y-97592D02*
X392275Y-97592D01*
X392275Y-112058D01*
X377775Y-112058D01*
X377775Y-97592D01*
G37*
G36*
X385008Y-104825D02*
X385008Y-119325D01*
X370542Y-119325D01*
X370542Y-104825D01*
X385008Y-104825D01*
G37*
G36*
X377775Y-112058D02*
X363275Y-112058D01*
X363275Y-97592D01*
X377775Y-97592D01*
X377775Y-112058D01*
G37*
G54D25*
G36*
X134073Y225348D02*
X134073Y244848D01*
X144073Y244848D01*
X144073Y225348D01*
X134073Y225348D01*
G37*
G36*
X139073Y230348D02*
X158573Y230348D01*
X158573Y220348D01*
X139073Y220348D01*
X139073Y230348D01*
G37*
G36*
X144073Y225348D02*
X144073Y205848D01*
X134073Y205848D01*
X134073Y225348D01*
X144073Y225348D01*
G37*
G36*
X139073Y220348D02*
X119573Y220348D01*
X119573Y230348D01*
X139073Y230348D01*
X139073Y220348D01*
G37*
G54D25*
G36*
X419823Y225348D02*
X419823Y244848D01*
X429823Y244848D01*
X429823Y225348D01*
X419823Y225348D01*
G37*
G36*
X424823Y230348D02*
X444323Y230348D01*
X444323Y220348D01*
X424823Y220348D01*
X424823Y230348D01*
G37*
G36*
X429823Y225348D02*
X429823Y205848D01*
X419823Y205848D01*
X419823Y225348D01*
X429823Y225348D01*
G37*
G36*
X424823Y220348D02*
X405323Y220348D01*
X405323Y230348D01*
X424823Y230348D01*
X424823Y220348D01*
G37*
G54D25*
G36*
X142803Y-184862D02*
X142803Y-165362D01*
X152803Y-165362D01*
X152803Y-184862D01*
X142803Y-184862D01*
G37*
G36*
X147803Y-179862D02*
X167303Y-179862D01*
X167303Y-189862D01*
X147803Y-189862D01*
X147803Y-179862D01*
G37*
G36*
X152803Y-184862D02*
X152803Y-204362D01*
X142803Y-204362D01*
X142803Y-184862D01*
X152803Y-184862D01*
G37*
G36*
X147803Y-189862D02*
X128303Y-189862D01*
X128303Y-179862D01*
X147803Y-179862D01*
X147803Y-189862D01*
G37*
G54D25*
G36*
X491093Y-181052D02*
X491093Y-161552D01*
X501093Y-161552D01*
X501093Y-181052D01*
X491093Y-181052D01*
G37*
G36*
X496093Y-176052D02*
X515593Y-176052D01*
X515593Y-186052D01*
X496093Y-186052D01*
X496093Y-176052D01*
G37*
G36*
X501093Y-181052D02*
X501093Y-200552D01*
X491093Y-200552D01*
X491093Y-181052D01*
X501093Y-181052D01*
G37*
G36*
X496093Y-186052D02*
X476593Y-186052D01*
X476593Y-176052D01*
X496093Y-176052D01*
X496093Y-186052D01*
G37*
G54D26*
G36*
X8890Y239750D02*
X25390Y239750D01*
X25390Y217450D01*
X8890Y217450D01*
X8890Y239750D01*
G37*
G36*
X20040Y228600D02*
X20040Y212100D01*
X-2260Y212100D01*
X-2260Y228600D01*
X20040Y228600D01*
G37*
G36*
X8890Y217450D02*
X-7610Y217450D01*
X-7610Y239750D01*
X8890Y239750D01*
X8890Y217450D01*
G37*
G36*
X-2260Y228600D02*
X-2260Y245100D01*
X20040Y245100D01*
X20040Y228600D01*
X-2260Y228600D01*
G37*
G54D26*
G36*
X14290Y-172800D02*
X30790Y-172800D01*
X30790Y-195100D01*
X14290Y-195100D01*
X14290Y-172800D01*
G37*
G36*
X25440Y-183950D02*
X25440Y-200450D01*
X3140Y-200450D01*
X3140Y-183950D01*
X25440Y-183950D01*
G37*
G36*
X14290Y-195100D02*
X-2210Y-195100D01*
X-2210Y-172800D01*
X14290Y-172800D01*
X14290Y-195100D01*
G37*
G36*
X3140Y-183950D02*
X3140Y-167450D01*
X25440Y-167450D01*
X25440Y-183950D01*
X3140Y-183950D01*
G37*
G54D26*
G36*
X558800Y-173000D02*
X575300Y-173000D01*
X575300Y-195300D01*
X558800Y-195300D01*
X558800Y-173000D01*
G37*
G36*
X569950Y-184150D02*
X569950Y-200650D01*
X547650Y-200650D01*
X547650Y-184150D01*
X569950Y-184150D01*
G37*
G36*
X558800Y-195300D02*
X542300Y-195300D01*
X542300Y-173000D01*
X558800Y-173000D01*
X558800Y-195300D01*
G37*
G36*
X547650Y-184150D02*
X547650Y-167650D01*
X569950Y-167650D01*
X569950Y-184150D01*
X547650Y-184150D01*
G37*
G54D26*
G36*
X558800Y239750D02*
X575300Y239750D01*
X575300Y217450D01*
X558800Y217450D01*
X558800Y239750D01*
G37*
G36*
X569950Y228600D02*
X569950Y212100D01*
X547650Y212100D01*
X547650Y228600D01*
X569950Y228600D01*
G37*
G36*
X558800Y217450D02*
X542300Y217450D01*
X542300Y239750D01*
X558800Y239750D01*
X558800Y217450D01*
G37*
G36*
X547650Y228600D02*
X547650Y245100D01*
X569950Y245100D01*
X569950Y228600D01*
X547650Y228600D01*
G37*
G54D23*
G36*
X249792Y-130225D02*
X249792Y-115725D01*
X264458Y-115725D01*
X264458Y-130225D01*
X249792Y-130225D01*
G37*
G36*
X257125Y-122892D02*
X271625Y-122892D01*
X271625Y-137558D01*
X257125Y-137558D01*
X257125Y-122892D01*
G37*
G36*
X264458Y-130225D02*
X264458Y-144725D01*
X249792Y-144725D01*
X249792Y-130225D01*
X264458Y-130225D01*
G37*
G36*
X257125Y-137558D02*
X242625Y-137558D01*
X242625Y-122892D01*
X257125Y-122892D01*
X257125Y-137558D01*
G37*
G54D25*
G36*
X4073Y135348D02*
X4073Y154848D01*
X14073Y154848D01*
X14073Y135348D01*
X4073Y135348D01*
G37*
G36*
X9073Y140348D02*
X28573Y140348D01*
X28573Y130348D01*
X9073Y130348D01*
X9073Y140348D01*
G37*
G36*
X14073Y135348D02*
X14073Y115848D01*
X4073Y115848D01*
X4073Y135348D01*
X14073Y135348D01*
G37*
G36*
X9073Y130348D02*
X-10427Y130348D01*
X-10427Y140348D01*
X9073Y140348D01*
X9073Y130348D01*
G37*
G54D25*
G36*
X554073Y135348D02*
X554073Y154848D01*
X564073Y154848D01*
X564073Y135348D01*
X554073Y135348D01*
G37*
G36*
X559073Y140348D02*
X578573Y140348D01*
X578573Y130348D01*
X559073Y130348D01*
X559073Y140348D01*
G37*
G36*
X564073Y135348D02*
X564073Y115848D01*
X554073Y115848D01*
X554073Y135348D01*
X564073Y135348D01*
G37*
G36*
X559073Y130348D02*
X539573Y130348D01*
X539573Y140348D01*
X559073Y140348D01*
X559073Y130348D01*
G37*
G54D19*
G36*
X57342Y231175D02*
X57342Y247675D01*
X64008Y247675D01*
X64008Y231175D01*
X57342Y231175D01*
G37*
G54D20*
X128929Y98375D02*
G54D27*
D03*
X128979Y174625D02*
G54D27*
D03*
X47936Y94975D02*
G54D27*
D03*
X48048Y43994D02*
G54D27*
D03*
X162235Y69575D02*
G54D27*
D03*
X162348Y18594D02*
G54D27*
D03*
X128945Y-130225D02*
G54D27*
D03*
X128995Y-53975D02*
G54D27*
D03*
X249666Y126389D02*
G54D27*
D03*
X173416Y126439D02*
G54D27*
D03*
X174625Y-53975D02*
G54D27*
D03*
X174575Y-130225D02*
G54D27*
D03*
X306729Y98374D02*
G54D27*
D03*
X306778Y174624D02*
G54D27*
D03*
X204060Y-26141D02*
G54D27*
D03*
X301625Y-28575D02*
G54D27*
D03*
X301575Y-104825D02*
G54D27*
D03*
X377825Y-28575D02*
G54D27*
D03*
X377775Y-104825D02*
G54D27*
D03*
X428625Y-28575D02*
G54D27*
D03*
X428575Y-104825D02*
G54D27*
D03*
X528097Y37469D02*
G54D27*
D03*
X477116Y37357D02*
G54D27*
D03*
X456642Y168193D02*
G54D27*
D03*
X380392Y168243D02*
G54D27*
D03*
X490675Y231175D02*
G54D27*
D03*
X516175Y231175D02*
G54D27*
D03*
X58875Y-187925D02*
G54D27*
D03*
X84375Y-187925D02*
G54D27*
D03*
X241300Y50800D02*
G54D28*
D03*
X225400Y33225D02*
G54D28*
D03*
X241335Y15609D02*
G54D28*
D03*
X342900Y50800D02*
G54D28*
D03*
X327000Y33225D02*
G54D28*
D03*
X342935Y15609D02*
G54D28*
D03*
X419100Y50800D02*
G54D28*
D03*
X403200Y33225D02*
G54D28*
D03*
X419135Y15609D02*
G54D28*
D03*
G54D29*
X128995Y-53975D02*
X130150Y-57050D01*
X130150Y95350D01*
X128929Y98375D01*
G54D29*
X306778Y174624D02*
X307950Y171550D01*
X130150Y171550D01*
X128979Y174625D01*
G54D29*
X173416Y126439D02*
X174600Y127100D01*
X161900Y114400D01*
X161900Y69950D01*
X162235Y69575D01*
G54D29*
X128995Y-53975D02*
X130150Y-57050D01*
X161900Y-25300D01*
X161900Y19150D01*
X162348Y18594D01*
G54D29*
X225400Y33225D02*
X225400Y31850D01*
X136500Y-57050D01*
X130150Y-57050D01*
X128995Y-53975D01*
G54D29*
X342935Y15609D02*
X346050Y12800D01*
X301600Y-31650D01*
X301625Y-28575D01*
G54D29*
X327000Y33225D02*
X327000Y31850D01*
X307950Y50900D01*
X307950Y95350D01*
X306729Y98374D01*
G54D29*
X342900Y50800D02*
X346050Y50900D01*
X377800Y82650D01*
X377800Y165200D01*
X380392Y168243D01*
G54D29*
X306729Y98374D02*
X307950Y95350D01*
X276200Y127100D01*
X250800Y127100D01*
X249666Y126389D01*
G54D29*
X419100Y50800D02*
X422250Y50900D01*
X377800Y95350D01*
X377800Y165200D01*
X380392Y168243D01*
G54D29*
X477116Y37357D02*
X479400Y38200D01*
X473050Y31850D01*
X473050Y25500D01*
X447650Y100D01*
X447650Y-38000D01*
X428600Y-57050D01*
X428600Y-107850D01*
X428575Y-104825D01*
G54D29*
X419135Y15609D02*
X422250Y12800D01*
X377800Y-31650D01*
X377825Y-28575D01*
G54D29*
X241300Y50800D02*
X244450Y50900D01*
X288900Y95350D01*
X307950Y95350D01*
X306729Y98374D01*
G54D29*
X380392Y168243D02*
X377800Y165200D01*
X371450Y171550D01*
X307950Y171550D01*
X306778Y174624D01*
X22200Y-25300D02*
G54D30*
D03*
X73000Y-25300D02*
G54D30*
D03*
X47600Y-50700D02*
G54D30*
D03*
X73000Y-76100D02*
G54D30*
D03*
X22200Y-76100D02*
G54D30*
D03*
X492100Y-25300D02*
G54D30*
D03*
X542900Y-25300D02*
G54D30*
D03*
X517500Y-50700D02*
G54D30*
D03*
X542900Y-76100D02*
G54D30*
D03*
X492100Y-76100D02*
G54D30*
D03*
G54D29*
X47600Y-50700D02*
X47600Y44550D01*
X48048Y43994D01*
G54D29*
X128995Y-53975D02*
X130150Y-57050D01*
X66650Y6450D01*
X66650Y57250D01*
X47600Y76300D01*
X47600Y95350D01*
X47936Y94975D01*
G54D29*
X517500Y-50700D02*
X517500Y-18950D01*
X530200Y-6250D01*
X530200Y38200D01*
X528097Y37469D01*
X193626Y199009D02*
G54D27*
D03*
X244606Y199122D02*
G54D27*
D03*
G54D29*
X403200Y33225D02*
X403200Y30250D01*
X390500Y17550D01*
X346050Y17550D01*
X342935Y15609D01*
X128945Y-130225D02*
G54D31*
D03*
X174575Y-130225D02*
G54D31*
D03*
X301575Y-104825D02*
G54D31*
D03*
X377775Y-104825D02*
G54D31*
D03*
X128945Y-130225D02*
G54D31*
D03*
X174575Y-130225D02*
G54D31*
D03*
X301575Y-104825D02*
G54D31*
D03*
X377775Y-104825D02*
G54D31*
D03*
G36*
X124073Y240348D02*
X154073Y240348D01*
X154073Y210348D01*
X124073Y210348D01*
X124073Y240348D01*
G37*
G36*
X409823Y240348D02*
X439823Y240348D01*
X439823Y210348D01*
X409823Y210348D01*
X409823Y240348D01*
G37*
G36*
X132803Y-169862D02*
X162803Y-169862D01*
X162803Y-199862D01*
X132803Y-199862D01*
X132803Y-169862D01*
G37*
G36*
X481093Y-166052D02*
X511093Y-166052D01*
X511093Y-196052D01*
X481093Y-196052D01*
X481093Y-166052D01*
G37*
X8890Y228600D02*
G54D32*
D03*
X14290Y-183950D02*
G54D32*
D03*
X558800Y-184150D02*
G54D32*
D03*
X558800Y228600D02*
G54D32*
D03*
X254860Y-26141D02*
G54D27*
D03*
X257175Y-53975D02*
G54D27*
D03*
X257125Y-130225D02*
G54D27*
D03*
G54D33*
X241335Y15609D02*
X244450Y17550D01*
X219050Y-7850D01*
X219050Y-39600D01*
X206350Y-52300D01*
X174600Y-52300D01*
X174625Y-53975D01*
G54D33*
X204060Y-26141D02*
X206350Y-26900D01*
X180950Y-52300D01*
X174600Y-52300D01*
X174625Y-53975D01*
G54D33*
X257175Y-53975D02*
X257150Y-52300D01*
X257150Y-26900D01*
X254860Y-26141D01*
X257125Y-130225D02*
G54D31*
D03*
G54D29*
X516175Y231175D02*
X514350Y230250D01*
X457200Y173100D01*
X457200Y166750D01*
X456642Y168193D01*
G54D29*
X84375Y-187925D02*
X82550Y-188850D01*
X120650Y-150750D01*
X266700Y-150750D01*
X292100Y-125350D01*
X438150Y-125350D01*
X469900Y-93600D01*
X469900Y-17400D01*
X495300Y8000D01*
X495300Y46100D01*
X457200Y84200D01*
X457200Y166750D01*
X456642Y168193D01*
G54D29*
X244606Y199122D02*
X247650Y198500D01*
X273050Y173100D01*
X304800Y173100D01*
X306778Y174624D01*
G36*
X-5927Y150348D02*
X24073Y150348D01*
X24073Y120348D01*
X-5927Y120348D01*
X-5927Y150348D01*
G37*
G36*
X544073Y150348D02*
X574073Y150348D01*
X574073Y120348D01*
X544073Y120348D01*
X544073Y150348D01*
G37*
X60675Y231175D02*
G54D27*
D03*
X86175Y231175D02*
G54D27*
D03*
G54D33*
X86175Y231175D02*
X90000Y230000D01*
X120000Y200000D01*
X160000Y200000D01*
X180000Y220000D01*
X250000Y220000D01*
X270000Y200000D01*
X440000Y200000D01*
X450000Y210000D01*
X500000Y210000D01*
X520000Y230000D01*
X516175Y231175D01*
G54D33*
X428625Y-28575D02*
X430000Y-30000D01*
X380000Y-30000D01*
X377825Y-28575D01*
X557400Y15400D02*
G54D34*
D03*
G54D35*
X557400Y15400D02*
X555000Y15000D01*
X535000Y35000D01*
X530000Y35000D01*
X528097Y37469D01*
M02*
