%FSLAX34Y34*%
%MOMM*%
%LNSOLDERMASK_BOTTOM*%
G71*
G01*
%ADD10C,2.600*%
%ADD11C,2.400*%
%ADD12C,2.800*%
%ADD13C,2.600*%
%ADD14C,3.600*%
%ADD15C,1.600*%
%LPD*%
X128929Y98375D02*
G54D10*
D03*
X128979Y174625D02*
G54D10*
D03*
X47936Y94975D02*
G54D10*
D03*
X48048Y43994D02*
G54D10*
D03*
X162235Y69575D02*
G54D10*
D03*
X162348Y18594D02*
G54D10*
D03*
X128945Y-130225D02*
G54D10*
D03*
X128995Y-53975D02*
G54D10*
D03*
X249666Y126389D02*
G54D10*
D03*
X173416Y126439D02*
G54D10*
D03*
X174625Y-53975D02*
G54D10*
D03*
X174575Y-130225D02*
G54D10*
D03*
X306729Y98374D02*
G54D10*
D03*
X306778Y174624D02*
G54D10*
D03*
X204060Y-26141D02*
G54D10*
D03*
X301625Y-28575D02*
G54D10*
D03*
X301575Y-104825D02*
G54D10*
D03*
X377825Y-28575D02*
G54D10*
D03*
X377775Y-104825D02*
G54D10*
D03*
X428625Y-28575D02*
G54D10*
D03*
X428575Y-104825D02*
G54D10*
D03*
X528097Y37469D02*
G54D10*
D03*
X477116Y37357D02*
G54D10*
D03*
X456642Y168193D02*
G54D10*
D03*
X380392Y168243D02*
G54D10*
D03*
X490675Y231175D02*
G54D10*
D03*
X516175Y231175D02*
G54D10*
D03*
X58875Y-187925D02*
G54D10*
D03*
X84375Y-187925D02*
G54D10*
D03*
X241300Y50800D02*
G54D11*
D03*
X225400Y33225D02*
G54D11*
D03*
X241335Y15609D02*
G54D11*
D03*
X342900Y50800D02*
G54D11*
D03*
X327000Y33225D02*
G54D11*
D03*
X342935Y15609D02*
G54D11*
D03*
X419100Y50800D02*
G54D11*
D03*
X403200Y33225D02*
G54D11*
D03*
X419135Y15609D02*
G54D11*
D03*
X22200Y-25300D02*
G54D12*
D03*
X73000Y-25300D02*
G54D12*
D03*
X47600Y-50700D02*
G54D12*
D03*
X73000Y-76100D02*
G54D12*
D03*
X22200Y-76100D02*
G54D12*
D03*
X492100Y-25300D02*
G54D12*
D03*
X542900Y-25300D02*
G54D12*
D03*
X517500Y-50700D02*
G54D12*
D03*
X542900Y-76100D02*
G54D12*
D03*
X492100Y-76100D02*
G54D12*
D03*
X193626Y199009D02*
G54D10*
D03*
X244606Y199122D02*
G54D10*
D03*
X128945Y-130225D02*
G54D13*
D03*
X174575Y-130225D02*
G54D13*
D03*
X301575Y-104825D02*
G54D13*
D03*
X377775Y-104825D02*
G54D13*
D03*
X128945Y-130225D02*
G54D13*
D03*
X174575Y-130225D02*
G54D13*
D03*
X301575Y-104825D02*
G54D13*
D03*
X377775Y-104825D02*
G54D13*
D03*
G36*
X121073Y243348D02*
X157073Y243348D01*
X157073Y207348D01*
X121073Y207348D01*
X121073Y243348D01*
G37*
G36*
X406823Y243348D02*
X442823Y243348D01*
X442823Y207348D01*
X406823Y207348D01*
X406823Y243348D01*
G37*
G36*
X129803Y-166862D02*
X165803Y-166862D01*
X165803Y-202862D01*
X129803Y-202862D01*
X129803Y-166862D01*
G37*
G36*
X478093Y-163052D02*
X514093Y-163052D01*
X514093Y-199052D01*
X478093Y-199052D01*
X478093Y-163052D01*
G37*
X8890Y228600D02*
G54D14*
D03*
X14290Y-183950D02*
G54D14*
D03*
X558800Y-184150D02*
G54D14*
D03*
X558800Y228600D02*
G54D14*
D03*
X254860Y-26141D02*
G54D10*
D03*
X257175Y-53975D02*
G54D10*
D03*
X257125Y-130225D02*
G54D10*
D03*
X257125Y-130225D02*
G54D13*
D03*
G36*
X-8927Y153348D02*
X27073Y153348D01*
X27073Y117348D01*
X-8927Y117348D01*
X-8927Y153348D01*
G37*
G36*
X541073Y153348D02*
X577073Y153348D01*
X577073Y117348D01*
X541073Y117348D01*
X541073Y153348D01*
G37*
X60675Y231175D02*
G54D10*
D03*
X86175Y231175D02*
G54D10*
D03*
X557400Y15400D02*
G54D15*
D03*
M02*
