%FSLAX34Y34*%
%MOMM*%
%LNCOPPER_TOP*%
G71*
G01*
%ADD10C,3.200*%
%ADD11C,3.000*%
%ADD12C,1.600*%
%ADD13C,3.000*%
%ADD14C,2.800*%
%ADD15C,3.200*%
%ADD16C,0.667*%
%ADD17C,0.813*%
%ADD18C,0.733*%
%ADD19C,1.380*%
%ADD20C,1.467*%
%ADD21C,1.447*%
%ADD22C,1.000*%
%ADD23C,2.230*%
%ADD24C,2.000*%
%ADD25C,1.800*%
%ADD26C,0.800*%
%ADD27C,2.200*%
%ADD28C,2.000*%
%ADD29C,3.000*%
%LPD*%
G36*
X0Y500000D02*
X600000Y500000D01*
X600000Y40000D01*
X0Y40000D01*
X0Y500000D01*
G37*
%LPC*%
X141629Y344375D02*
G54D10*
D03*
X141679Y420625D02*
G54D10*
D03*
X60636Y340975D02*
G54D10*
D03*
X60748Y289994D02*
G54D10*
D03*
X174935Y315575D02*
G54D10*
D03*
X175048Y264594D02*
G54D10*
D03*
X141645Y115775D02*
G54D10*
D03*
X141695Y192025D02*
G54D10*
D03*
X262366Y372389D02*
G54D10*
D03*
X186116Y372439D02*
G54D10*
D03*
X187325Y192025D02*
G54D10*
D03*
X187275Y115775D02*
G54D10*
D03*
X319429Y344374D02*
G54D10*
D03*
X319478Y420624D02*
G54D10*
D03*
X216760Y219859D02*
G54D10*
D03*
X314325Y217425D02*
G54D10*
D03*
X314275Y141175D02*
G54D10*
D03*
X390525Y217425D02*
G54D10*
D03*
X390475Y141175D02*
G54D10*
D03*
X441325Y217425D02*
G54D10*
D03*
X441275Y141175D02*
G54D10*
D03*
X540797Y283469D02*
G54D10*
D03*
X489816Y283357D02*
G54D10*
D03*
X469342Y414193D02*
G54D10*
D03*
X393092Y414243D02*
G54D10*
D03*
X528775Y413675D02*
G54D10*
D03*
X554275Y413675D02*
G54D10*
D03*
X46175Y96175D02*
G54D10*
D03*
X71675Y96175D02*
G54D10*
D03*
X254000Y296800D02*
G54D11*
D03*
X238100Y279225D02*
G54D11*
D03*
X254035Y261609D02*
G54D11*
D03*
X355600Y296800D02*
G54D11*
D03*
X339700Y279225D02*
G54D11*
D03*
X355635Y261609D02*
G54D11*
D03*
X431800Y296800D02*
G54D11*
D03*
X415900Y279225D02*
G54D11*
D03*
X431835Y261609D02*
G54D11*
D03*
G54D12*
X441325Y217425D02*
X441300Y214350D01*
X390500Y214350D01*
X390525Y217425D01*
X34900Y220700D02*
G54D13*
D03*
X85700Y220700D02*
G54D13*
D03*
X60300Y195300D02*
G54D13*
D03*
X85700Y169900D02*
G54D13*
D03*
X34900Y169900D02*
G54D13*
D03*
X504800Y220700D02*
G54D13*
D03*
X555600Y220700D02*
G54D13*
D03*
X530200Y195300D02*
G54D13*
D03*
X555600Y169900D02*
G54D13*
D03*
X504800Y169900D02*
G54D13*
D03*
X473026Y356109D02*
G54D10*
D03*
X524006Y356222D02*
G54D10*
D03*
X141645Y115775D02*
G54D14*
D03*
X187275Y115775D02*
G54D14*
D03*
X314275Y141175D02*
G54D14*
D03*
X390475Y141175D02*
G54D14*
D03*
G36*
X132773Y490348D02*
X170773Y490348D01*
X170773Y452348D01*
X132773Y452348D01*
X132773Y490348D01*
G37*
G36*
X418523Y490348D02*
X456523Y490348D01*
X456523Y452348D01*
X418523Y452348D01*
X418523Y490348D01*
G37*
G36*
X131503Y80138D02*
X169503Y80138D01*
X169503Y42138D01*
X131503Y42138D01*
X131503Y80138D01*
G37*
G36*
X419793Y83948D02*
X457793Y83948D01*
X457793Y45948D01*
X419793Y45948D01*
X419793Y83948D01*
G37*
X21590Y474600D02*
G54D15*
D03*
X21590Y61850D02*
G54D15*
D03*
X571500Y61850D02*
G54D15*
D03*
X571500Y474600D02*
G54D15*
D03*
X267560Y219859D02*
G54D10*
D03*
X269875Y192025D02*
G54D10*
D03*
X269825Y115775D02*
G54D10*
D03*
X269825Y115775D02*
G54D14*
D03*
%LPD*%
G54D16*
G36*
X525442Y413675D02*
X525442Y430175D01*
X532108Y430175D01*
X532108Y413675D01*
X525442Y413675D01*
G37*
G54D17*
G54D16*
G36*
X42842Y96175D02*
X42842Y112675D01*
X49508Y112675D01*
X49508Y96175D01*
X42842Y96175D01*
G37*
G54D17*
G54D18*
G36*
X31233Y220700D02*
X31233Y236200D01*
X38567Y236200D01*
X38567Y220700D01*
X31233Y220700D01*
G37*
G36*
X34900Y224367D02*
X50400Y224367D01*
X50400Y217033D01*
X34900Y217033D01*
X34900Y224367D01*
G37*
G36*
X38567Y220700D02*
X38567Y205200D01*
X31233Y205200D01*
X31233Y220700D01*
X38567Y220700D01*
G37*
G36*
X34900Y217033D02*
X19400Y217033D01*
X19400Y224367D01*
X34900Y224367D01*
X34900Y217033D01*
G37*
G54D18*
G36*
X82033Y220700D02*
X82033Y236200D01*
X89367Y236200D01*
X89367Y220700D01*
X82033Y220700D01*
G37*
G36*
X85700Y224367D02*
X101200Y224367D01*
X101200Y217033D01*
X85700Y217033D01*
X85700Y224367D01*
G37*
G36*
X89367Y220700D02*
X89367Y205200D01*
X82033Y205200D01*
X82033Y220700D01*
X89367Y220700D01*
G37*
G36*
X85700Y217033D02*
X70200Y217033D01*
X70200Y224367D01*
X85700Y224367D01*
X85700Y217033D01*
G37*
G54D18*
G36*
X82033Y169900D02*
X82033Y185400D01*
X89367Y185400D01*
X89367Y169900D01*
X82033Y169900D01*
G37*
G36*
X85700Y173567D02*
X101200Y173567D01*
X101200Y166233D01*
X85700Y166233D01*
X85700Y173567D01*
G37*
G36*
X89367Y169900D02*
X89367Y154400D01*
X82033Y154400D01*
X82033Y169900D01*
X89367Y169900D01*
G37*
G36*
X85700Y166233D02*
X70200Y166233D01*
X70200Y173567D01*
X85700Y173567D01*
X85700Y166233D01*
G37*
G54D18*
G36*
X31233Y169900D02*
X31233Y185400D01*
X38567Y185400D01*
X38567Y169900D01*
X31233Y169900D01*
G37*
G36*
X34900Y173567D02*
X50400Y173567D01*
X50400Y166233D01*
X34900Y166233D01*
X34900Y173567D01*
G37*
G36*
X38567Y169900D02*
X38567Y154400D01*
X31233Y154400D01*
X31233Y169900D01*
X38567Y169900D01*
G37*
G36*
X34900Y166233D02*
X19400Y166233D01*
X19400Y173567D01*
X34900Y173567D01*
X34900Y166233D01*
G37*
G54D18*
G36*
X501133Y220700D02*
X501133Y236200D01*
X508467Y236200D01*
X508467Y220700D01*
X501133Y220700D01*
G37*
G36*
X504800Y224367D02*
X520300Y224367D01*
X520300Y217033D01*
X504800Y217033D01*
X504800Y224367D01*
G37*
G36*
X508467Y220700D02*
X508467Y205200D01*
X501133Y205200D01*
X501133Y220700D01*
X508467Y220700D01*
G37*
G36*
X504800Y217033D02*
X489300Y217033D01*
X489300Y224367D01*
X504800Y224367D01*
X504800Y217033D01*
G37*
G54D18*
G36*
X551933Y220700D02*
X551933Y236200D01*
X559267Y236200D01*
X559267Y220700D01*
X551933Y220700D01*
G37*
G36*
X555600Y224367D02*
X571100Y224367D01*
X571100Y217033D01*
X555600Y217033D01*
X555600Y224367D01*
G37*
G36*
X559267Y220700D02*
X559267Y205200D01*
X551933Y205200D01*
X551933Y220700D01*
X559267Y220700D01*
G37*
G36*
X555600Y217033D02*
X540100Y217033D01*
X540100Y224367D01*
X555600Y224367D01*
X555600Y217033D01*
G37*
G54D18*
G36*
X551933Y169900D02*
X551933Y185400D01*
X559267Y185400D01*
X559267Y169900D01*
X551933Y169900D01*
G37*
G36*
X555600Y173567D02*
X571100Y173567D01*
X571100Y166233D01*
X555600Y166233D01*
X555600Y173567D01*
G37*
G36*
X559267Y169900D02*
X559267Y154400D01*
X551933Y154400D01*
X551933Y169900D01*
X559267Y169900D01*
G37*
G36*
X555600Y166233D02*
X540100Y166233D01*
X540100Y173567D01*
X555600Y173567D01*
X555600Y166233D01*
G37*
G54D18*
G36*
X501133Y169900D02*
X501133Y185400D01*
X508467Y185400D01*
X508467Y169900D01*
X501133Y169900D01*
G37*
G36*
X504800Y173567D02*
X520300Y173567D01*
X520300Y166233D01*
X504800Y166233D01*
X504800Y173567D01*
G37*
G36*
X508467Y169900D02*
X508467Y154400D01*
X501133Y154400D01*
X501133Y169900D01*
X508467Y169900D01*
G37*
G36*
X504800Y166233D02*
X489300Y166233D01*
X489300Y173567D01*
X504800Y173567D01*
X504800Y166233D01*
G37*
G54D16*
G36*
X473026Y359443D02*
X489526Y359443D01*
X489526Y352776D01*
X473026Y352776D01*
X473026Y359443D01*
G37*
G54D19*
G36*
X134745Y115775D02*
X134745Y130275D01*
X148545Y130275D01*
X148545Y115775D01*
X134745Y115775D01*
G37*
G36*
X141645Y122675D02*
X156145Y122675D01*
X156145Y108875D01*
X141645Y108875D01*
X141645Y122675D01*
G37*
G36*
X148545Y115775D02*
X148545Y101275D01*
X134745Y101275D01*
X134745Y115775D01*
X148545Y115775D01*
G37*
G36*
X141645Y108875D02*
X127145Y108875D01*
X127145Y122675D01*
X141645Y122675D01*
X141645Y108875D01*
G37*
G54D20*
G36*
X179942Y115775D02*
X179942Y130275D01*
X194608Y130275D01*
X194608Y115775D01*
X179942Y115775D01*
G37*
G36*
X187275Y123108D02*
X201775Y123108D01*
X201775Y108442D01*
X187275Y108442D01*
X187275Y123108D01*
G37*
G36*
X194608Y115775D02*
X194608Y101275D01*
X179942Y101275D01*
X179942Y115775D01*
X194608Y115775D01*
G37*
G36*
X187275Y108442D02*
X172775Y108442D01*
X172775Y123108D01*
X187275Y123108D01*
X187275Y108442D01*
G37*
G54D21*
G36*
X307042Y141175D02*
X307042Y155675D01*
X321508Y155675D01*
X321508Y141175D01*
X307042Y141175D01*
G37*
G36*
X314275Y148408D02*
X328775Y148408D01*
X328775Y133942D01*
X314275Y133942D01*
X314275Y148408D01*
G37*
G36*
X321508Y141175D02*
X321508Y126675D01*
X307042Y126675D01*
X307042Y141175D01*
X321508Y141175D01*
G37*
G36*
X314275Y133942D02*
X299775Y133942D01*
X299775Y148408D01*
X314275Y148408D01*
X314275Y133942D01*
G37*
G54D21*
G36*
X383242Y141175D02*
X383242Y155675D01*
X397708Y155675D01*
X397708Y141175D01*
X383242Y141175D01*
G37*
G36*
X390475Y148408D02*
X404975Y148408D01*
X404975Y133942D01*
X390475Y133942D01*
X390475Y148408D01*
G37*
G36*
X397708Y141175D02*
X397708Y126675D01*
X383242Y126675D01*
X383242Y141175D01*
X397708Y141175D01*
G37*
G36*
X390475Y133942D02*
X375975Y133942D01*
X375975Y148408D01*
X390475Y148408D01*
X390475Y133942D01*
G37*
G54D22*
G36*
X146773Y471348D02*
X146773Y490848D01*
X156773Y490848D01*
X156773Y471348D01*
X146773Y471348D01*
G37*
G36*
X151773Y476348D02*
X171273Y476348D01*
X171273Y466348D01*
X151773Y466348D01*
X151773Y476348D01*
G37*
G36*
X156773Y471348D02*
X156773Y451848D01*
X146773Y451848D01*
X146773Y471348D01*
X156773Y471348D01*
G37*
G36*
X151773Y466348D02*
X132273Y466348D01*
X132273Y476348D01*
X151773Y476348D01*
X151773Y466348D01*
G37*
G54D22*
G36*
X432523Y471348D02*
X432523Y490848D01*
X442523Y490848D01*
X442523Y471348D01*
X432523Y471348D01*
G37*
G36*
X437523Y476348D02*
X457023Y476348D01*
X457023Y466348D01*
X437523Y466348D01*
X437523Y476348D01*
G37*
G36*
X442523Y471348D02*
X442523Y451848D01*
X432523Y451848D01*
X432523Y471348D01*
X442523Y471348D01*
G37*
G36*
X437523Y466348D02*
X418023Y466348D01*
X418023Y476348D01*
X437523Y476348D01*
X437523Y466348D01*
G37*
G54D22*
G36*
X145503Y61138D02*
X145503Y80638D01*
X155503Y80638D01*
X155503Y61138D01*
X145503Y61138D01*
G37*
G36*
X150503Y66138D02*
X170003Y66138D01*
X170003Y56138D01*
X150503Y56138D01*
X150503Y66138D01*
G37*
G36*
X155503Y61138D02*
X155503Y41638D01*
X145503Y41638D01*
X145503Y61138D01*
X155503Y61138D01*
G37*
G36*
X150503Y56138D02*
X131003Y56138D01*
X131003Y66138D01*
X150503Y66138D01*
X150503Y56138D01*
G37*
G54D22*
G36*
X433793Y64948D02*
X433793Y84448D01*
X443793Y84448D01*
X443793Y64948D01*
X433793Y64948D01*
G37*
G36*
X438793Y69948D02*
X458293Y69948D01*
X458293Y59948D01*
X438793Y59948D01*
X438793Y69948D01*
G37*
G36*
X443793Y64948D02*
X443793Y45448D01*
X433793Y45448D01*
X433793Y64948D01*
X443793Y64948D01*
G37*
G36*
X438793Y59948D02*
X419293Y59948D01*
X419293Y69948D01*
X438793Y69948D01*
X438793Y59948D01*
G37*
G54D23*
G36*
X21590Y485750D02*
X38090Y485750D01*
X38090Y463450D01*
X21590Y463450D01*
X21590Y485750D01*
G37*
G36*
X32740Y474600D02*
X32740Y458100D01*
X10440Y458100D01*
X10440Y474600D01*
X32740Y474600D01*
G37*
G36*
X21590Y463450D02*
X5090Y463450D01*
X5090Y485750D01*
X21590Y485750D01*
X21590Y463450D01*
G37*
G36*
X10440Y474600D02*
X10440Y491100D01*
X32740Y491100D01*
X32740Y474600D01*
X10440Y474600D01*
G37*
G54D23*
G36*
X21590Y73000D02*
X38090Y73000D01*
X38090Y50700D01*
X21590Y50700D01*
X21590Y73000D01*
G37*
G36*
X32740Y61850D02*
X32740Y45350D01*
X10440Y45350D01*
X10440Y61850D01*
X32740Y61850D01*
G37*
G36*
X21590Y50700D02*
X5090Y50700D01*
X5090Y73000D01*
X21590Y73000D01*
X21590Y50700D01*
G37*
G36*
X10440Y61850D02*
X10440Y78350D01*
X32740Y78350D01*
X32740Y61850D01*
X10440Y61850D01*
G37*
G54D23*
G36*
X571500Y73000D02*
X588000Y73000D01*
X588000Y50700D01*
X571500Y50700D01*
X571500Y73000D01*
G37*
G36*
X582650Y61850D02*
X582650Y45350D01*
X560350Y45350D01*
X560350Y61850D01*
X582650Y61850D01*
G37*
G36*
X571500Y50700D02*
X555000Y50700D01*
X555000Y73000D01*
X571500Y73000D01*
X571500Y50700D01*
G37*
G36*
X560350Y61850D02*
X560350Y78350D01*
X582650Y78350D01*
X582650Y61850D01*
X560350Y61850D01*
G37*
G54D23*
G36*
X571500Y485750D02*
X588000Y485750D01*
X588000Y463450D01*
X571500Y463450D01*
X571500Y485750D01*
G37*
G36*
X582650Y474600D02*
X582650Y458100D01*
X560350Y458100D01*
X560350Y474600D01*
X582650Y474600D01*
G37*
G36*
X571500Y463450D02*
X555000Y463450D01*
X555000Y485750D01*
X571500Y485750D01*
X571500Y463450D01*
G37*
G36*
X560350Y474600D02*
X560350Y491100D01*
X582650Y491100D01*
X582650Y474600D01*
X560350Y474600D01*
G37*
G54D20*
G36*
X262492Y115775D02*
X262492Y130275D01*
X277158Y130275D01*
X277158Y115775D01*
X262492Y115775D01*
G37*
G36*
X269825Y123108D02*
X284325Y123108D01*
X284325Y108442D01*
X269825Y108442D01*
X269825Y123108D01*
G37*
G36*
X277158Y115775D02*
X277158Y101275D01*
X262492Y101275D01*
X262492Y115775D01*
X277158Y115775D01*
G37*
G36*
X269825Y108442D02*
X255325Y108442D01*
X255325Y123108D01*
X269825Y123108D01*
X269825Y108442D01*
G37*
X141629Y344375D02*
G54D24*
D03*
X141679Y420625D02*
G54D24*
D03*
X60636Y340975D02*
G54D24*
D03*
X60748Y289994D02*
G54D24*
D03*
X174935Y315575D02*
G54D24*
D03*
X175048Y264594D02*
G54D24*
D03*
X141645Y115775D02*
G54D24*
D03*
X141695Y192025D02*
G54D24*
D03*
X262366Y372389D02*
G54D24*
D03*
X186116Y372439D02*
G54D24*
D03*
X187325Y192025D02*
G54D24*
D03*
X187275Y115775D02*
G54D24*
D03*
X319429Y344374D02*
G54D24*
D03*
X319478Y420624D02*
G54D24*
D03*
X216760Y219859D02*
G54D24*
D03*
X314325Y217425D02*
G54D24*
D03*
X314275Y141175D02*
G54D24*
D03*
X390525Y217425D02*
G54D24*
D03*
X390475Y141175D02*
G54D24*
D03*
X441325Y217425D02*
G54D24*
D03*
X441275Y141175D02*
G54D24*
D03*
X540797Y283469D02*
G54D24*
D03*
X489816Y283357D02*
G54D24*
D03*
X469342Y414193D02*
G54D24*
D03*
X393092Y414243D02*
G54D24*
D03*
X528775Y413675D02*
G54D24*
D03*
X554275Y413675D02*
G54D24*
D03*
X46175Y96175D02*
G54D24*
D03*
X71675Y96175D02*
G54D24*
D03*
X254000Y296800D02*
G54D25*
D03*
X238100Y279225D02*
G54D25*
D03*
X254035Y261609D02*
G54D25*
D03*
X355600Y296800D02*
G54D25*
D03*
X339700Y279225D02*
G54D25*
D03*
X355635Y261609D02*
G54D25*
D03*
X431800Y296800D02*
G54D25*
D03*
X415900Y279225D02*
G54D25*
D03*
X431835Y261609D02*
G54D25*
D03*
G54D26*
X441325Y217425D02*
X441300Y214350D01*
X390500Y214350D01*
X390525Y217425D01*
X34900Y220700D02*
G54D27*
D03*
X85700Y220700D02*
G54D27*
D03*
X60300Y195300D02*
G54D27*
D03*
X85700Y169900D02*
G54D27*
D03*
X34900Y169900D02*
G54D27*
D03*
X504800Y220700D02*
G54D27*
D03*
X555600Y220700D02*
G54D27*
D03*
X530200Y195300D02*
G54D27*
D03*
X555600Y169900D02*
G54D27*
D03*
X504800Y169900D02*
G54D27*
D03*
X473026Y356109D02*
G54D24*
D03*
X524006Y356222D02*
G54D24*
D03*
X141645Y115775D02*
G54D28*
D03*
X187275Y115775D02*
G54D28*
D03*
X314275Y141175D02*
G54D28*
D03*
X390475Y141175D02*
G54D28*
D03*
G36*
X136773Y486348D02*
X166773Y486348D01*
X166773Y456348D01*
X136773Y456348D01*
X136773Y486348D01*
G37*
G36*
X422523Y486348D02*
X452523Y486348D01*
X452523Y456348D01*
X422523Y456348D01*
X422523Y486348D01*
G37*
G36*
X135503Y76138D02*
X165503Y76138D01*
X165503Y46138D01*
X135503Y46138D01*
X135503Y76138D01*
G37*
G36*
X423793Y79948D02*
X453793Y79948D01*
X453793Y49948D01*
X423793Y49948D01*
X423793Y79948D01*
G37*
X21590Y474600D02*
G54D29*
D03*
X21590Y61850D02*
G54D29*
D03*
X571500Y61850D02*
G54D29*
D03*
X571500Y474600D02*
G54D29*
D03*
X267560Y219859D02*
G54D24*
D03*
X269875Y192025D02*
G54D24*
D03*
X269825Y115775D02*
G54D24*
D03*
X269825Y115775D02*
G54D28*
D03*
M02*
