%FSLAX34Y34*%
%MOMM*%
%LNSOLDERMASK_TOP*%
G71*
G01*
%ADD10C,2.600*%
%ADD11C,2.600*%
%ADD12C,4.900*%
%ADD13R,1.100X1.000*%
%ADD14C,1.600*%
%LPD*%
X6350Y-3050D02*
G54D10*
D03*
X6350Y-28450D02*
G54D10*
D03*
X-158750Y-107950D02*
G54D10*
D03*
X-158750Y-158750D02*
G54D10*
D03*
X146050Y-158750D02*
G54D10*
D03*
X196850Y-158750D02*
G54D10*
D03*
X-64083Y-13184D02*
G54D10*
D03*
X-64133Y-89434D02*
G54D10*
D03*
X-64083Y-13184D02*
G54D11*
D03*
X67931Y-22198D02*
G54D10*
D03*
X68043Y-73179D02*
G54D10*
D03*
X67931Y-22198D02*
G54D11*
D03*
X29203Y-114626D02*
G54D10*
D03*
X-21778Y-114739D02*
G54D10*
D03*
X29203Y-114626D02*
G54D11*
D03*
X27416Y-159362D02*
G54D10*
D03*
X-48834Y-159312D02*
G54D10*
D03*
X27416Y-159361D02*
G54D11*
D03*
X-184733Y18566D02*
G54D10*
D03*
X-184783Y-57684D02*
G54D10*
D03*
X-184733Y18566D02*
G54D11*
D03*
X-108542Y18492D02*
G54D10*
D03*
X-184792Y18542D02*
G54D10*
D03*
X-108542Y18492D02*
G54D11*
D03*
X-108542Y18492D02*
G54D10*
D03*
X-108592Y-57758D02*
G54D10*
D03*
X-108542Y18492D02*
G54D11*
D03*
X120067Y18566D02*
G54D10*
D03*
X120017Y-57684D02*
G54D10*
D03*
X120067Y18566D02*
G54D11*
D03*
X196258Y18492D02*
G54D10*
D03*
X120008Y18542D02*
G54D10*
D03*
X196258Y18492D02*
G54D11*
D03*
X196258Y18492D02*
G54D10*
D03*
X196208Y-57758D02*
G54D10*
D03*
X196258Y18492D02*
G54D11*
D03*
X-250377Y-13139D02*
G54D10*
D03*
X-250377Y-38539D02*
G54D10*
D03*
X244923Y-13139D02*
G54D10*
D03*
X244923Y-38539D02*
G54D10*
D03*
X244923Y-127439D02*
G54D10*
D03*
X244923Y-152839D02*
G54D10*
D03*
X-163150Y139173D02*
G54D10*
D03*
X-163150Y75673D02*
G54D10*
D03*
X-74250Y139173D02*
G54D10*
D03*
X-74250Y107423D02*
G54D10*
D03*
X-74250Y75673D02*
G54D10*
D03*
X182290Y72380D02*
G54D10*
D03*
X182290Y135880D02*
G54D10*
D03*
X93390Y72380D02*
G54D10*
D03*
X93390Y104130D02*
G54D10*
D03*
X93390Y135880D02*
G54D10*
D03*
X-254000Y127000D02*
G54D12*
D03*
X254000Y127000D02*
G54D12*
D03*
X-254000Y-203200D02*
G54D12*
D03*
X254000Y-203200D02*
G54D12*
D03*
G36*
X-267000Y82900D02*
X-241000Y82900D01*
X-241000Y56900D01*
X-267000Y56900D01*
X-267000Y82900D01*
G37*
G36*
X-267000Y-120300D02*
X-241000Y-120300D01*
X-241000Y-146300D01*
X-267000Y-146300D01*
X-267000Y-120300D01*
G37*
G36*
X-203500Y-196500D02*
X-177500Y-196500D01*
X-177500Y-222500D01*
X-203500Y-222500D01*
X-203500Y-196500D01*
G37*
G36*
X75900Y-196500D02*
X101900Y-196500D01*
X101900Y-222500D01*
X75900Y-222500D01*
X75900Y-196500D01*
G37*
G36*
X126700Y165450D02*
X152700Y165450D01*
X152700Y139450D01*
X126700Y139450D01*
X126700Y165450D01*
G37*
G36*
X-222550Y159100D02*
X-196550Y159100D01*
X-196550Y133100D01*
X-222550Y133100D01*
X-222550Y159100D01*
G37*
G36*
X241000Y76550D02*
X267000Y76550D01*
X267000Y50550D01*
X241000Y50550D01*
X241000Y76550D01*
G37*
X14967Y111144D02*
G54D13*
D03*
X14967Y131144D02*
G54D13*
D03*
X-5033Y121144D02*
G54D13*
D03*
X17512Y60530D02*
G54D13*
D03*
X17512Y80530D02*
G54D13*
D03*
X-2488Y70530D02*
G54D13*
D03*
X-269100Y3010D02*
G54D14*
D03*
X264300Y3010D02*
G54D14*
D03*
X-27800Y28410D02*
G54D14*
D03*
X264300Y-98590D02*
G54D14*
D03*
M02*
