%FSLAX34Y34*%
%MOMM*%
%LNCOPPER_BOTTOM*%
G71*
G01*
%ADD10C,2.800*%
%ADD11C,3.200*%
%ADD12C,2.800*%
%ADD13C,1.700*%
%ADD14C,1.800*%
%ADD15C,1.400*%
%ADD16C,0.680*%
%ADD17C,1.467*%
%ADD18C,0.667*%
%ADD19C,2.000*%
%ADD20C,2.000*%
%ADD21C,0.900*%
%ADD22C,4.300*%
%ADD23C,1.000*%
%ADD24C,0.600*%
%LPD*%
G36*
X-279400Y165100D02*
X280600Y165100D01*
X280600Y-234900D01*
X-279400Y-234900D01*
X-279400Y165100D01*
G37*
%LPC*%
X6350Y-3050D02*
G54D10*
D03*
X6350Y-28450D02*
G54D10*
D03*
X-158750Y-107950D02*
G54D10*
D03*
X-158750Y-158750D02*
G54D10*
D03*
X146050Y-158750D02*
G54D10*
D03*
X196850Y-158750D02*
G54D10*
D03*
X-64083Y-13184D02*
G54D11*
D03*
X-64133Y-89434D02*
G54D11*
D03*
X-64083Y-13184D02*
G54D12*
D03*
X67931Y-22198D02*
G54D11*
D03*
X68043Y-73179D02*
G54D11*
D03*
X67931Y-22198D02*
G54D12*
D03*
X29203Y-114626D02*
G54D11*
D03*
X-21778Y-114739D02*
G54D11*
D03*
X29203Y-114626D02*
G54D12*
D03*
X27416Y-159362D02*
G54D11*
D03*
X-48834Y-159312D02*
G54D11*
D03*
X27416Y-159361D02*
G54D12*
D03*
X-184733Y18566D02*
G54D11*
D03*
X-184783Y-57684D02*
G54D11*
D03*
X-184733Y18566D02*
G54D12*
D03*
X-108542Y18492D02*
G54D11*
D03*
X-184792Y18542D02*
G54D11*
D03*
X-108542Y18492D02*
G54D12*
D03*
X-108542Y18492D02*
G54D11*
D03*
X-108592Y-57758D02*
G54D11*
D03*
X-108542Y18492D02*
G54D12*
D03*
X120067Y18566D02*
G54D11*
D03*
X120017Y-57684D02*
G54D11*
D03*
X120067Y18566D02*
G54D12*
D03*
X196258Y18492D02*
G54D11*
D03*
X120008Y18542D02*
G54D11*
D03*
X196258Y18492D02*
G54D12*
D03*
X196258Y18492D02*
G54D11*
D03*
X196208Y-57758D02*
G54D11*
D03*
X196258Y18492D02*
G54D12*
D03*
X-250377Y-13139D02*
G54D10*
D03*
X-250377Y-38539D02*
G54D10*
D03*
X244923Y-13139D02*
G54D10*
D03*
X244923Y-38539D02*
G54D10*
D03*
G54D13*
X244923Y-13139D02*
X219523Y12261D01*
X194123Y12261D01*
X196258Y18492D01*
G54D13*
X27416Y-159361D02*
X29023Y-165539D01*
X41723Y-178239D01*
X156023Y-178239D01*
X181423Y-152839D01*
X194123Y-152839D01*
X196850Y-158750D01*
G54D13*
X68043Y-73179D02*
X67123Y-76639D01*
X143323Y-152839D01*
X146050Y-158750D01*
G54D13*
X68043Y-73179D02*
X67123Y-76639D01*
X16323Y-25839D01*
X3623Y-25839D01*
X6350Y-28450D01*
G54D13*
X67931Y-22198D02*
X67123Y-25839D01*
X41723Y-439D01*
X3623Y-439D01*
X6350Y-3050D01*
G54D13*
X-64083Y-13184D02*
X-59877Y-13139D01*
X-47177Y-439D01*
X3623Y-439D01*
X6350Y-3050D01*
G54D13*
X-21778Y-114739D02*
X-21777Y-114739D01*
X-47177Y-89339D01*
X-59877Y-89339D01*
X-64133Y-89434D01*
G54D13*
X-48834Y-159312D02*
X-47177Y-165539D01*
X-59877Y-152839D01*
X-161477Y-152839D01*
X-158750Y-158750D01*
X244923Y-127439D02*
G54D10*
D03*
X244923Y-152839D02*
G54D10*
D03*
G54D13*
X244923Y-127439D02*
X232223Y-127439D01*
X206823Y-152839D01*
X194123Y-152839D01*
X196850Y-158750D01*
X-163150Y139173D02*
G54D10*
D03*
X-163150Y75673D02*
G54D10*
D03*
X-74250Y139173D02*
G54D10*
D03*
X-74250Y107423D02*
G54D10*
D03*
X-74250Y75673D02*
G54D10*
D03*
X182290Y72380D02*
G54D10*
D03*
X182290Y135880D02*
G54D10*
D03*
X93390Y72380D02*
G54D10*
D03*
X93390Y104130D02*
G54D10*
D03*
X93390Y135880D02*
G54D10*
D03*
G54D13*
X-250377Y-13139D02*
X-224977Y12261D01*
X-186877Y12261D01*
X-184792Y18542D01*
G54D13*
X-163150Y139173D02*
X-161477Y139261D01*
X-110677Y88461D01*
X-110677Y12261D01*
X-108542Y18492D01*
G54D13*
X182290Y135880D02*
X181423Y139261D01*
X117923Y75761D01*
X117923Y12261D01*
X120008Y18542D01*
G54D13*
X-48834Y-159312D02*
X-47177Y-165539D01*
X-21777Y-140139D01*
X-21777Y-114739D01*
X-21778Y-114739D01*
G36*
X-268000Y83900D02*
X-240000Y83900D01*
X-240000Y55900D01*
X-268000Y55900D01*
X-268000Y83900D01*
G37*
G36*
X-268000Y-119300D02*
X-240000Y-119300D01*
X-240000Y-147300D01*
X-268000Y-147300D01*
X-268000Y-119300D01*
G37*
G36*
X-204500Y-195500D02*
X-176500Y-195500D01*
X-176500Y-223500D01*
X-204500Y-223500D01*
X-204500Y-195500D01*
G37*
G36*
X74900Y-195500D02*
X102900Y-195500D01*
X102900Y-223500D01*
X74900Y-223500D01*
X74900Y-195500D01*
G37*
G36*
X125700Y166450D02*
X153700Y166450D01*
X153700Y138450D01*
X125700Y138450D01*
X125700Y166450D01*
G37*
G36*
X-223550Y160100D02*
X-195550Y160100D01*
X-195550Y132100D01*
X-223550Y132100D01*
X-223550Y160100D01*
G37*
G36*
X240000Y77550D02*
X268000Y77550D01*
X268000Y49550D01*
X240000Y49550D01*
X240000Y77550D01*
G37*
G54D13*
X-2488Y70530D02*
X0Y76200D01*
X-76200Y76200D01*
X-74250Y75673D01*
G54D13*
X-5033Y121144D02*
X0Y127000D01*
X-12700Y139700D01*
X-76200Y139700D01*
X-74250Y139173D01*
G54D13*
X17512Y60530D02*
X12700Y63500D01*
X88900Y139700D01*
X93390Y135880D01*
G54D13*
X14967Y131144D02*
X12700Y127000D01*
X25400Y139700D01*
X88900Y139700D01*
X93390Y135880D01*
G54D13*
X93390Y104130D02*
X88900Y101600D01*
X0Y12700D01*
X0Y0D01*
X6350Y-3050D01*
X-269100Y3010D02*
G54D14*
D03*
X264300Y3010D02*
G54D14*
D03*
X-27800Y28410D02*
G54D14*
D03*
X264300Y-98590D02*
G54D14*
D03*
G54D15*
X-269100Y3010D02*
X-266700Y0D01*
X-254000Y-12700D01*
X-247650Y-12700D01*
X-250377Y-13139D01*
G54D15*
X-27800Y28410D02*
X-25400Y25400D01*
X0Y0D01*
X6350Y0D01*
X6350Y-3050D01*
G54D15*
X264300Y3010D02*
X266700Y0D01*
X254000Y-12700D01*
X247650Y-12700D01*
X244923Y-13139D01*
G54D15*
X264300Y-98590D02*
X266700Y-101600D01*
X247650Y-120650D01*
X247650Y-127000D01*
X244923Y-127439D01*
%LPD*%
G54D16*
G36*
X-158750Y-104550D02*
X-144250Y-104550D01*
X-144250Y-111350D01*
X-158750Y-111350D01*
X-158750Y-104550D01*
G37*
G36*
X-155350Y-107950D02*
X-155350Y-122450D01*
X-162150Y-122450D01*
X-162150Y-107950D01*
X-155350Y-107950D01*
G37*
G36*
X-158750Y-111350D02*
X-173250Y-111350D01*
X-173250Y-104550D01*
X-158750Y-104550D01*
X-158750Y-111350D01*
G37*
G36*
X-162150Y-107950D02*
X-162150Y-93450D01*
X-155350Y-93450D01*
X-155350Y-107950D01*
X-162150Y-107950D01*
G37*
G54D17*
G36*
X21870Y-114626D02*
X21870Y-100126D01*
X36536Y-100126D01*
X36536Y-114626D01*
X21870Y-114626D01*
G37*
G36*
X29203Y-107293D02*
X43703Y-107293D01*
X43703Y-121960D01*
X29203Y-121960D01*
X29203Y-107293D01*
G37*
G36*
X36536Y-114626D02*
X36536Y-129126D01*
X21870Y-129126D01*
X21870Y-114626D01*
X36536Y-114626D01*
G37*
G36*
X29203Y-121960D02*
X14703Y-121960D01*
X14703Y-107293D01*
X29203Y-107293D01*
X29203Y-121960D01*
G37*
G54D18*
G36*
X-184783Y-54351D02*
X-168283Y-54351D01*
X-168283Y-61017D01*
X-184783Y-61017D01*
X-184783Y-54351D01*
G37*
G36*
X-181450Y-57684D02*
X-181450Y-74184D01*
X-188116Y-74184D01*
X-188116Y-57684D01*
X-181450Y-57684D01*
G37*
G36*
X-184783Y-61017D02*
X-201283Y-61017D01*
X-201283Y-54351D01*
X-184783Y-54351D01*
X-184783Y-61017D01*
G37*
G36*
X-188116Y-57684D02*
X-188116Y-41184D01*
X-181450Y-41184D01*
X-181450Y-57684D01*
X-188116Y-57684D01*
G37*
G54D16*
G36*
X-108592Y-54358D02*
X-92092Y-54358D01*
X-92092Y-61158D01*
X-108592Y-61158D01*
X-108592Y-54358D01*
G37*
G36*
X-105192Y-57758D02*
X-105192Y-74258D01*
X-111992Y-74258D01*
X-111992Y-57758D01*
X-105192Y-57758D01*
G37*
G36*
X-108592Y-61158D02*
X-125092Y-61158D01*
X-125092Y-54358D01*
X-108592Y-54358D01*
X-108592Y-61158D01*
G37*
G36*
X-111992Y-57758D02*
X-111992Y-41258D01*
X-105192Y-41258D01*
X-105192Y-57758D01*
X-111992Y-57758D01*
G37*
G54D18*
G36*
X120017Y-54351D02*
X136517Y-54351D01*
X136517Y-61017D01*
X120017Y-61017D01*
X120017Y-54351D01*
G37*
G36*
X123350Y-57684D02*
X123350Y-74184D01*
X116684Y-74184D01*
X116684Y-57684D01*
X123350Y-57684D01*
G37*
G36*
X120017Y-61017D02*
X103517Y-61017D01*
X103517Y-54351D01*
X120017Y-54351D01*
X120017Y-61017D01*
G37*
G36*
X116684Y-57684D02*
X116684Y-41184D01*
X123350Y-41184D01*
X123350Y-57684D01*
X116684Y-57684D01*
G37*
G54D16*
G36*
X196208Y-54358D02*
X212708Y-54358D01*
X212708Y-61158D01*
X196208Y-61158D01*
X196208Y-54358D01*
G37*
G36*
X199608Y-57758D02*
X199608Y-74258D01*
X192808Y-74258D01*
X192808Y-57758D01*
X199608Y-57758D01*
G37*
G36*
X196208Y-61158D02*
X179708Y-61158D01*
X179708Y-54358D01*
X196208Y-54358D01*
X196208Y-61158D01*
G37*
G36*
X192808Y-57758D02*
X192808Y-41258D01*
X199608Y-41258D01*
X199608Y-57758D01*
X192808Y-57758D01*
G37*
G54D18*
G36*
X-253710Y-38539D02*
X-253710Y-24039D01*
X-247044Y-24039D01*
X-247044Y-38539D01*
X-253710Y-38539D01*
G37*
G36*
X-250377Y-35206D02*
X-235877Y-35206D01*
X-235877Y-41872D01*
X-250377Y-41872D01*
X-250377Y-35206D01*
G37*
G36*
X-247044Y-38539D02*
X-247044Y-53039D01*
X-253710Y-53039D01*
X-253710Y-38539D01*
X-247044Y-38539D01*
G37*
G36*
X-250377Y-41872D02*
X-264877Y-41872D01*
X-264877Y-35206D01*
X-250377Y-35206D01*
X-250377Y-41872D01*
G37*
G54D18*
G36*
X241590Y-38539D02*
X241590Y-24039D01*
X248256Y-24039D01*
X248256Y-38539D01*
X241590Y-38539D01*
G37*
G36*
X244923Y-35206D02*
X259423Y-35206D01*
X259423Y-41872D01*
X244923Y-41872D01*
X244923Y-35206D01*
G37*
G36*
X248256Y-38539D02*
X248256Y-53039D01*
X241590Y-53039D01*
X241590Y-38539D01*
X248256Y-38539D01*
G37*
G36*
X244923Y-41872D02*
X230423Y-41872D01*
X230423Y-35206D01*
X244923Y-35206D01*
X244923Y-41872D01*
G37*
G54D18*
G36*
X241590Y-152839D02*
X241590Y-138339D01*
X248256Y-138339D01*
X248256Y-152839D01*
X241590Y-152839D01*
G37*
G36*
X244923Y-149506D02*
X259423Y-149506D01*
X259423Y-156172D01*
X244923Y-156172D01*
X244923Y-149506D01*
G37*
G36*
X248256Y-152839D02*
X248256Y-167339D01*
X241590Y-167339D01*
X241590Y-152839D01*
X248256Y-152839D01*
G37*
G36*
X244923Y-156172D02*
X230423Y-156172D01*
X230423Y-149506D01*
X244923Y-149506D01*
X244923Y-156172D01*
G37*
G54D18*
G36*
X-166483Y75673D02*
X-166483Y90173D01*
X-159817Y90173D01*
X-159817Y75673D01*
X-166483Y75673D01*
G37*
G36*
X-163150Y79006D02*
X-148650Y79006D01*
X-148650Y72340D01*
X-163150Y72340D01*
X-163150Y79006D01*
G37*
G36*
X-159817Y75673D02*
X-159817Y61173D01*
X-166483Y61173D01*
X-166483Y75673D01*
X-159817Y75673D01*
G37*
G36*
X-163150Y72340D02*
X-177650Y72340D01*
X-177650Y79006D01*
X-163150Y79006D01*
X-163150Y72340D01*
G37*
G54D18*
G36*
X-77583Y107423D02*
X-77583Y121923D01*
X-70917Y121923D01*
X-70917Y107423D01*
X-77583Y107423D01*
G37*
G36*
X-74250Y110756D02*
X-59750Y110756D01*
X-59750Y104090D01*
X-74250Y104090D01*
X-74250Y110756D01*
G37*
G36*
X-70917Y107423D02*
X-70917Y92923D01*
X-77583Y92923D01*
X-77583Y107423D01*
X-70917Y107423D01*
G37*
G36*
X-74250Y104090D02*
X-88750Y104090D01*
X-88750Y110756D01*
X-74250Y110756D01*
X-74250Y104090D01*
G37*
G54D18*
G36*
X185623Y72380D02*
X185623Y57880D01*
X178957Y57880D01*
X178957Y72380D01*
X185623Y72380D01*
G37*
G36*
X182290Y69047D02*
X167790Y69047D01*
X167790Y75713D01*
X182290Y75713D01*
X182290Y69047D01*
G37*
G36*
X178957Y72380D02*
X178957Y86880D01*
X185623Y86880D01*
X185623Y72380D01*
X178957Y72380D01*
G37*
G36*
X182290Y75713D02*
X196790Y75713D01*
X196790Y69047D01*
X182290Y69047D01*
X182290Y75713D01*
G37*
G54D18*
G36*
X-257333Y69900D02*
X-257333Y84400D01*
X-250667Y84400D01*
X-250667Y69900D01*
X-257333Y69900D01*
G37*
G36*
X-254000Y73233D02*
X-239500Y73233D01*
X-239500Y66567D01*
X-254000Y66567D01*
X-254000Y73233D01*
G37*
G36*
X-250667Y69900D02*
X-250667Y55400D01*
X-257333Y55400D01*
X-257333Y69900D01*
X-250667Y69900D01*
G37*
G36*
X-254000Y66567D02*
X-268500Y66567D01*
X-268500Y73233D01*
X-254000Y73233D01*
X-254000Y66567D01*
G37*
G54D18*
G36*
X-257333Y-133300D02*
X-257333Y-118800D01*
X-250667Y-118800D01*
X-250667Y-133300D01*
X-257333Y-133300D01*
G37*
G36*
X-254000Y-129967D02*
X-239500Y-129967D01*
X-239500Y-136633D01*
X-254000Y-136633D01*
X-254000Y-129967D01*
G37*
G36*
X-250667Y-133300D02*
X-250667Y-147800D01*
X-257333Y-147800D01*
X-257333Y-133300D01*
X-250667Y-133300D01*
G37*
G36*
X-254000Y-136633D02*
X-268500Y-136633D01*
X-268500Y-129967D01*
X-254000Y-129967D01*
X-254000Y-136633D01*
G37*
G54D18*
G36*
X-193833Y-209500D02*
X-193833Y-195000D01*
X-187167Y-195000D01*
X-187167Y-209500D01*
X-193833Y-209500D01*
G37*
G36*
X-190500Y-206167D02*
X-176000Y-206167D01*
X-176000Y-212833D01*
X-190500Y-212833D01*
X-190500Y-206167D01*
G37*
G36*
X-187167Y-209500D02*
X-187167Y-224000D01*
X-193833Y-224000D01*
X-193833Y-209500D01*
X-187167Y-209500D01*
G37*
G36*
X-190500Y-212833D02*
X-205000Y-212833D01*
X-205000Y-206167D01*
X-190500Y-206167D01*
X-190500Y-212833D01*
G37*
G54D18*
G36*
X85567Y-209500D02*
X85567Y-195000D01*
X92233Y-195000D01*
X92233Y-209500D01*
X85567Y-209500D01*
G37*
G36*
X88900Y-206167D02*
X103400Y-206167D01*
X103400Y-212833D01*
X88900Y-212833D01*
X88900Y-206167D01*
G37*
G36*
X92233Y-209500D02*
X92233Y-224000D01*
X85567Y-224000D01*
X85567Y-209500D01*
X92233Y-209500D01*
G37*
G36*
X88900Y-212833D02*
X74400Y-212833D01*
X74400Y-206167D01*
X88900Y-206167D01*
X88900Y-212833D01*
G37*
G54D18*
G36*
X136367Y152450D02*
X136367Y166950D01*
X143033Y166950D01*
X143033Y152450D01*
X136367Y152450D01*
G37*
G36*
X139700Y155783D02*
X154200Y155783D01*
X154200Y149117D01*
X139700Y149117D01*
X139700Y155783D01*
G37*
G36*
X143033Y152450D02*
X143033Y137950D01*
X136367Y137950D01*
X136367Y152450D01*
X143033Y152450D01*
G37*
G36*
X139700Y149117D02*
X125200Y149117D01*
X125200Y155783D01*
X139700Y155783D01*
X139700Y149117D01*
G37*
G54D18*
G36*
X-212883Y146100D02*
X-212883Y160600D01*
X-206217Y160600D01*
X-206217Y146100D01*
X-212883Y146100D01*
G37*
G36*
X-209550Y149433D02*
X-195050Y149433D01*
X-195050Y142767D01*
X-209550Y142767D01*
X-209550Y149433D01*
G37*
G36*
X-206217Y146100D02*
X-206217Y131600D01*
X-212883Y131600D01*
X-212883Y146100D01*
X-206217Y146100D01*
G37*
G36*
X-209550Y142767D02*
X-224050Y142767D01*
X-224050Y149433D01*
X-209550Y149433D01*
X-209550Y142767D01*
G37*
G54D18*
G36*
X250667Y63550D02*
X250667Y78050D01*
X257333Y78050D01*
X257333Y63550D01*
X250667Y63550D01*
G37*
G36*
X254000Y66883D02*
X268500Y66883D01*
X268500Y60217D01*
X254000Y60217D01*
X254000Y66883D01*
G37*
G36*
X257333Y63550D02*
X257333Y49050D01*
X250667Y49050D01*
X250667Y63550D01*
X257333Y63550D01*
G37*
G36*
X254000Y60217D02*
X239500Y60217D01*
X239500Y66883D01*
X254000Y66883D01*
X254000Y60217D01*
G37*
X6350Y-3050D02*
G54D19*
D03*
X6350Y-28450D02*
G54D19*
D03*
X-158750Y-107950D02*
G54D19*
D03*
X-158750Y-158750D02*
G54D19*
D03*
X146050Y-158750D02*
G54D19*
D03*
X196850Y-158750D02*
G54D19*
D03*
X-64083Y-13184D02*
G54D19*
D03*
X-64133Y-89434D02*
G54D19*
D03*
X-64083Y-13184D02*
G54D20*
D03*
X67931Y-22198D02*
G54D19*
D03*
X68043Y-73179D02*
G54D19*
D03*
X67931Y-22198D02*
G54D20*
D03*
X29203Y-114626D02*
G54D19*
D03*
X-21778Y-114739D02*
G54D19*
D03*
X29203Y-114626D02*
G54D20*
D03*
X27416Y-159362D02*
G54D19*
D03*
X-48834Y-159312D02*
G54D19*
D03*
X27416Y-159361D02*
G54D20*
D03*
X-184733Y18566D02*
G54D19*
D03*
X-184783Y-57684D02*
G54D19*
D03*
X-184733Y18566D02*
G54D20*
D03*
X-108542Y18492D02*
G54D19*
D03*
X-184792Y18542D02*
G54D19*
D03*
X-108542Y18492D02*
G54D20*
D03*
X-108542Y18492D02*
G54D19*
D03*
X-108592Y-57758D02*
G54D19*
D03*
X-108542Y18492D02*
G54D20*
D03*
X120067Y18566D02*
G54D19*
D03*
X120017Y-57684D02*
G54D19*
D03*
X120067Y18566D02*
G54D20*
D03*
X196258Y18492D02*
G54D19*
D03*
X120008Y18542D02*
G54D19*
D03*
X196258Y18492D02*
G54D20*
D03*
X196258Y18492D02*
G54D19*
D03*
X196208Y-57758D02*
G54D19*
D03*
X196258Y18492D02*
G54D20*
D03*
X-250377Y-13139D02*
G54D19*
D03*
X-250377Y-38539D02*
G54D19*
D03*
X244923Y-13139D02*
G54D19*
D03*
X244923Y-38539D02*
G54D19*
D03*
G54D21*
X244923Y-13139D02*
X219523Y12261D01*
X194123Y12261D01*
X196258Y18492D01*
G54D21*
X27416Y-159361D02*
X29023Y-165539D01*
X41723Y-178239D01*
X156023Y-178239D01*
X181423Y-152839D01*
X194123Y-152839D01*
X196850Y-158750D01*
G54D21*
X68043Y-73179D02*
X67123Y-76639D01*
X143323Y-152839D01*
X146050Y-158750D01*
G54D21*
X68043Y-73179D02*
X67123Y-76639D01*
X16323Y-25839D01*
X3623Y-25839D01*
X6350Y-28450D01*
G54D21*
X67931Y-22198D02*
X67123Y-25839D01*
X41723Y-439D01*
X3623Y-439D01*
X6350Y-3050D01*
G54D21*
X-64083Y-13184D02*
X-59877Y-13139D01*
X-47177Y-439D01*
X3623Y-439D01*
X6350Y-3050D01*
G54D21*
X-21778Y-114739D02*
X-21777Y-114739D01*
X-47177Y-89339D01*
X-59877Y-89339D01*
X-64133Y-89434D01*
G54D21*
X-48834Y-159312D02*
X-47177Y-165539D01*
X-59877Y-152839D01*
X-161477Y-152839D01*
X-158750Y-158750D01*
X244923Y-127439D02*
G54D19*
D03*
X244923Y-152839D02*
G54D19*
D03*
G54D21*
X244923Y-127439D02*
X232223Y-127439D01*
X206823Y-152839D01*
X194123Y-152839D01*
X196850Y-158750D01*
X-163150Y139173D02*
G54D19*
D03*
X-163150Y75673D02*
G54D19*
D03*
X-74250Y139173D02*
G54D19*
D03*
X-74250Y107423D02*
G54D19*
D03*
X-74250Y75673D02*
G54D19*
D03*
X182290Y72380D02*
G54D19*
D03*
X182290Y135880D02*
G54D19*
D03*
X93390Y72380D02*
G54D19*
D03*
X93390Y104130D02*
G54D19*
D03*
X93390Y135880D02*
G54D19*
D03*
G54D21*
X-250377Y-13139D02*
X-224977Y12261D01*
X-186877Y12261D01*
X-184792Y18542D01*
G54D21*
X-163150Y139173D02*
X-161477Y139261D01*
X-110677Y88461D01*
X-110677Y12261D01*
X-108542Y18492D01*
G54D21*
X182290Y135880D02*
X181423Y139261D01*
X117923Y75761D01*
X117923Y12261D01*
X120008Y18542D01*
G54D21*
X-48834Y-159312D02*
X-47177Y-165539D01*
X-21777Y-140139D01*
X-21777Y-114739D01*
X-21778Y-114739D01*
X-254000Y127000D02*
G54D22*
D03*
X254000Y127000D02*
G54D22*
D03*
X-254000Y-203200D02*
G54D22*
D03*
X254000Y-203200D02*
G54D22*
D03*
G36*
X-264000Y79900D02*
X-244000Y79900D01*
X-244000Y59900D01*
X-264000Y59900D01*
X-264000Y79900D01*
G37*
G36*
X-264000Y-123300D02*
X-244000Y-123300D01*
X-244000Y-143300D01*
X-264000Y-143300D01*
X-264000Y-123300D01*
G37*
G36*
X-200500Y-199500D02*
X-180500Y-199500D01*
X-180500Y-219500D01*
X-200500Y-219500D01*
X-200500Y-199500D01*
G37*
G36*
X78900Y-199500D02*
X98900Y-199500D01*
X98900Y-219500D01*
X78900Y-219500D01*
X78900Y-199500D01*
G37*
G36*
X129700Y162450D02*
X149700Y162450D01*
X149700Y142450D01*
X129700Y142450D01*
X129700Y162450D01*
G37*
G36*
X-219550Y156100D02*
X-199550Y156100D01*
X-199550Y136100D01*
X-219550Y136100D01*
X-219550Y156100D01*
G37*
G36*
X244000Y73550D02*
X264000Y73550D01*
X264000Y53550D01*
X244000Y53550D01*
X244000Y73550D01*
G37*
G54D21*
X-2488Y70530D02*
X0Y76200D01*
X-76200Y76200D01*
X-74250Y75673D01*
G54D21*
X-5033Y121144D02*
X0Y127000D01*
X-12700Y139700D01*
X-76200Y139700D01*
X-74250Y139173D01*
G54D21*
X17512Y60530D02*
X12700Y63500D01*
X88900Y139700D01*
X93390Y135880D01*
G54D21*
X14967Y131144D02*
X12700Y127000D01*
X25400Y139700D01*
X88900Y139700D01*
X93390Y135880D01*
G54D21*
X93390Y104130D02*
X88900Y101600D01*
X0Y12700D01*
X0Y0D01*
X6350Y-3050D01*
X-269100Y3010D02*
G54D23*
D03*
X264300Y3010D02*
G54D23*
D03*
X-27800Y28410D02*
G54D23*
D03*
X264300Y-98590D02*
G54D23*
D03*
G54D24*
X-269100Y3010D02*
X-266700Y0D01*
X-254000Y-12700D01*
X-247650Y-12700D01*
X-250377Y-13139D01*
G54D24*
X-27800Y28410D02*
X-25400Y25400D01*
X0Y0D01*
X6350Y0D01*
X6350Y-3050D01*
G54D24*
X264300Y3010D02*
X266700Y0D01*
X254000Y-12700D01*
X247650Y-12700D01*
X244923Y-13139D01*
G54D24*
X264300Y-98590D02*
X266700Y-101600D01*
X247650Y-120650D01*
X247650Y-127000D01*
X244923Y-127439D01*
M02*
