%FSLAX34Y34*%
%MOMM*%
%LNCOPPER_BOTTOM*%
G71*
G01*
%ADD10C,2.800*%
%ADD11C,3.200*%
%ADD12C,3.000*%
%ADD13C,2.800*%
%ADD14C,2.600*%
%ADD15C,1.600*%
%ADD16C,2.800*%
%ADD17C,3.000*%
%ADD18C,1.400*%
%ADD19C,3.000*%
%ADD20C,3.800*%
%ADD21C,1.800*%
%ADD22C,0.667*%
%ADD23C,0.813*%
%ADD24C,0.733*%
%ADD25C,1.380*%
%ADD26C,1.467*%
%ADD27C,1.447*%
%ADD28C,1.203*%
%ADD29C,1.093*%
%ADD30C,1.000*%
%ADD31C,2.000*%
%ADD32C,2.000*%
%ADD33C,1.800*%
%ADD34C,0.800*%
%ADD35C,2.000*%
%ADD36C,2.200*%
%ADD37C,1.800*%
%ADD38C,0.600*%
%ADD39C,2.200*%
%ADD40C,3.000*%
%ADD41C,1.000*%
%LPD*%
G36*
X-200000Y660000D02*
X1500000Y660000D01*
X1500000Y-200000D01*
X-200000Y-200000D01*
X-200000Y660000D01*
G37*
%LPC*%
X643280Y326750D02*
G54D10*
D03*
X668680Y326750D02*
G54D10*
D03*
X694080Y326750D02*
G54D10*
D03*
X1030985Y264021D02*
G54D10*
D03*
X1005585Y264021D02*
G54D10*
D03*
X980185Y264021D02*
G54D10*
D03*
X599879Y259323D02*
G54D11*
D03*
X548899Y259211D02*
G54D11*
D03*
X640105Y256775D02*
G54D11*
D03*
X640055Y180525D02*
G54D11*
D03*
X551205Y409175D02*
G54D11*
D03*
X551155Y332925D02*
G54D11*
D03*
X690905Y256775D02*
G54D11*
D03*
X690855Y180525D02*
G54D11*
D03*
X676079Y399023D02*
G54D11*
D03*
X625099Y398911D02*
G54D11*
D03*
X741705Y256775D02*
G54D12*
D03*
X741655Y180525D02*
G54D12*
D03*
X697214Y141461D02*
G54D11*
D03*
X748195Y141573D02*
G54D11*
D03*
X642703Y148698D02*
G54D11*
D03*
X566453Y148748D02*
G54D11*
D03*
X523679Y195823D02*
G54D11*
D03*
X472699Y195711D02*
G54D11*
D03*
X523679Y145023D02*
G54D11*
D03*
X472699Y144911D02*
G54D11*
D03*
X478092Y72750D02*
G54D13*
D03*
X513192Y72750D02*
G54D13*
D03*
X642703Y85198D02*
G54D11*
D03*
X566453Y85248D02*
G54D11*
D03*
X681380Y25000D02*
G54D14*
D03*
X681380Y94850D02*
G54D13*
D03*
X815779Y94223D02*
G54D11*
D03*
X764798Y94111D02*
G54D11*
D03*
X807803Y402698D02*
G54D11*
D03*
X731553Y402748D02*
G54D11*
D03*
X1011580Y348850D02*
G54D13*
D03*
X1087780Y348850D02*
G54D13*
D03*
X1243659Y337898D02*
G54D11*
D03*
X1243546Y388879D02*
G54D11*
D03*
X795680Y348850D02*
G54D13*
D03*
X795680Y259950D02*
G54D13*
D03*
X909980Y348850D02*
G54D13*
D03*
X909980Y259950D02*
G54D13*
D03*
X796378Y147460D02*
G54D11*
D03*
X796265Y198440D02*
G54D11*
D03*
X1121255Y402225D02*
G54D11*
D03*
X1146755Y402225D02*
G54D11*
D03*
X1190078Y350660D02*
G54D11*
D03*
X1189965Y401640D02*
G54D11*
D03*
X1100480Y272650D02*
G54D13*
D03*
X1189380Y272650D02*
G54D13*
D03*
X1100480Y183750D02*
G54D13*
D03*
X1189380Y183750D02*
G54D13*
D03*
X917380Y399023D02*
G54D11*
D03*
X866400Y398910D02*
G54D11*
D03*
X909980Y209150D02*
G54D13*
D03*
X909980Y107550D02*
G54D13*
D03*
X859878Y147460D02*
G54D11*
D03*
X859765Y198440D02*
G54D11*
D03*
G54D15*
X566453Y85248D02*
X567080Y82150D01*
X560730Y75800D01*
X516280Y75800D01*
X513192Y72750D01*
G54D15*
X513192Y72750D02*
X516280Y75800D01*
X567080Y126600D01*
X567080Y145650D01*
X566453Y148748D01*
G54D15*
X523679Y195823D02*
X522630Y196450D01*
X541680Y177400D01*
X636930Y177400D01*
X640055Y180525D01*
G54D15*
X642703Y148698D02*
X643280Y145650D01*
X636930Y152000D01*
X636930Y177400D01*
X640055Y180525D01*
G54D15*
X681380Y94850D02*
X668680Y82150D01*
X643280Y82150D01*
X642703Y85198D01*
G54D15*
X764799Y94111D02*
X763930Y94850D01*
X681380Y94850D01*
G54D15*
X909980Y107550D02*
X903630Y113900D01*
X808380Y113900D01*
X789330Y94850D01*
X681380Y94850D01*
G54D15*
X640105Y256775D02*
X643280Y259950D01*
X598830Y259950D01*
X599879Y259323D01*
G54D15*
X690905Y256775D02*
X694080Y259950D01*
X643280Y259950D01*
X640105Y256775D01*
G54D15*
X690905Y256775D02*
X694080Y259950D01*
X694080Y329800D01*
X694080Y326750D01*
G54D15*
X741705Y256775D02*
X744880Y259950D01*
X713130Y291700D01*
X713130Y336150D01*
X706780Y342500D01*
X655980Y342500D01*
X643280Y329800D01*
X643280Y326750D01*
G54D15*
X551155Y332925D02*
X548030Y329800D01*
X617880Y259950D01*
X643280Y259950D01*
X640105Y256775D01*
G54D15*
X625099Y398911D02*
X624230Y399650D01*
X611530Y412350D01*
X554380Y412350D01*
X551205Y409175D01*
G54D15*
X676079Y399023D02*
X675030Y399650D01*
X643280Y367900D01*
X636930Y367900D01*
X624230Y355200D01*
X624230Y317100D01*
X630580Y310750D01*
X655980Y310750D01*
X668680Y323450D01*
X668680Y329800D01*
X668680Y326750D01*
G54D15*
X795680Y348850D02*
X776630Y367900D01*
X636930Y367900D01*
X624230Y355200D01*
X624230Y317100D01*
X630580Y310750D01*
X655980Y310750D01*
X668680Y323450D01*
X668680Y329800D01*
X668680Y326750D01*
G54D15*
X909980Y348850D02*
X878230Y380600D01*
X802030Y380600D01*
X782980Y399650D01*
X732180Y399650D01*
X731553Y402748D01*
G54D15*
X866400Y398910D02*
X865530Y399650D01*
X808380Y399650D01*
X807803Y402698D01*
G54D15*
X859765Y198440D02*
X859180Y196450D01*
X871880Y209150D01*
X909980Y209150D01*
G54D15*
X909980Y209150D02*
X909980Y259950D01*
G54D15*
X796265Y198440D02*
X795680Y196450D01*
X795680Y259950D01*
G54D15*
X748195Y141573D02*
X751230Y139300D01*
X763930Y152000D01*
X763930Y190100D01*
X744880Y209150D01*
X744880Y259950D01*
X741705Y256775D01*
G54D15*
X1189380Y183750D02*
X1163980Y158350D01*
X1100480Y132950D01*
X1075080Y158350D01*
X1075080Y247250D01*
X1100480Y272650D01*
X472699Y144911D02*
G54D16*
D03*
X472699Y195711D02*
G54D16*
D03*
X815779Y94223D02*
G54D16*
D03*
X1087780Y348850D02*
G54D16*
D03*
X741655Y180525D02*
G54D16*
D03*
X690855Y180525D02*
G54D17*
D03*
X697214Y141461D02*
G54D17*
D03*
X796378Y147460D02*
G54D17*
D03*
X859878Y147460D02*
G54D17*
D03*
X681380Y25000D02*
G54D13*
D03*
X472699Y195711D02*
G54D17*
D03*
X472699Y144911D02*
G54D17*
D03*
X478092Y72750D02*
G54D17*
D03*
X815779Y94223D02*
G54D17*
D03*
X741655Y180525D02*
G54D17*
D03*
X1190078Y350660D02*
G54D17*
D03*
G54D15*
X523679Y145023D02*
X525780Y144150D01*
X532130Y150500D01*
X563880Y150500D01*
X566453Y148748D01*
G54D15*
X1189965Y401640D02*
X1192530Y404500D01*
X1148080Y404500D01*
X1146755Y402225D01*
G54D15*
X917380Y399023D02*
X919480Y398150D01*
X1008380Y309250D01*
X1008380Y264800D01*
X1005585Y264021D01*
X980185Y264021D02*
G54D16*
D03*
G54D15*
X909980Y348850D02*
X913130Y347350D01*
X957580Y302900D01*
X957580Y258450D01*
X976630Y239400D01*
X982980Y239400D01*
X989330Y245750D01*
X1014730Y245750D01*
X1033780Y264800D01*
X1030985Y264021D01*
G54D15*
X1011580Y348850D02*
X1014730Y347350D01*
X1008380Y341000D01*
X1008380Y264800D01*
X1005585Y264021D01*
X690905Y256775D02*
G54D12*
D03*
X690855Y180525D02*
G54D12*
D03*
X118159Y313875D02*
G54D11*
D03*
X118209Y390125D02*
G54D11*
D03*
X37166Y310475D02*
G54D11*
D03*
X37278Y259494D02*
G54D11*
D03*
X151465Y285075D02*
G54D11*
D03*
X151578Y234094D02*
G54D11*
D03*
X118175Y85275D02*
G54D11*
D03*
X118225Y161525D02*
G54D11*
D03*
X238896Y341889D02*
G54D11*
D03*
X162646Y341939D02*
G54D11*
D03*
X163855Y161525D02*
G54D11*
D03*
X163805Y85275D02*
G54D11*
D03*
X295958Y313874D02*
G54D11*
D03*
X296008Y390124D02*
G54D11*
D03*
X193290Y189359D02*
G54D11*
D03*
X290855Y186925D02*
G54D11*
D03*
X290805Y110675D02*
G54D11*
D03*
X367055Y186925D02*
G54D11*
D03*
X367005Y110675D02*
G54D11*
D03*
X417855Y186925D02*
G54D11*
D03*
X417805Y110675D02*
G54D11*
D03*
X468630Y253700D02*
G54D11*
D03*
X468518Y304680D02*
G54D11*
D03*
X445872Y383693D02*
G54D11*
D03*
X369622Y383743D02*
G54D11*
D03*
X335605Y421275D02*
G54D11*
D03*
X361105Y421275D02*
G54D11*
D03*
X230530Y266300D02*
G54D17*
D03*
X214630Y248725D02*
G54D17*
D03*
X230564Y231109D02*
G54D17*
D03*
X332130Y266300D02*
G54D17*
D03*
X316230Y248725D02*
G54D17*
D03*
X332165Y231109D02*
G54D17*
D03*
X408330Y266300D02*
G54D17*
D03*
X392430Y248725D02*
G54D17*
D03*
X408365Y231109D02*
G54D17*
D03*
G54D15*
X118225Y161525D02*
X119380Y158450D01*
X119380Y310850D01*
X118159Y313875D01*
G54D15*
X296008Y390124D02*
X297180Y387050D01*
X119380Y387050D01*
X118209Y390125D01*
G54D15*
X162646Y341939D02*
X163830Y342600D01*
X151130Y329900D01*
X151130Y285450D01*
X151465Y285075D01*
G54D15*
X118225Y161525D02*
X119380Y158450D01*
X151130Y190200D01*
X151130Y234650D01*
X151578Y234094D01*
G54D15*
X214630Y248725D02*
X214630Y247350D01*
X125730Y158450D01*
X119380Y158450D01*
X118225Y161525D01*
G54D15*
X332165Y231109D02*
X335280Y228300D01*
X290830Y183850D01*
X290855Y186925D01*
G54D15*
X316230Y248725D02*
X316230Y247350D01*
X297180Y266400D01*
X297180Y310850D01*
X295959Y313874D01*
G54D15*
X332130Y266300D02*
X335280Y266400D01*
X367030Y298150D01*
X367030Y380700D01*
X369622Y383743D01*
G54D15*
X295959Y313874D02*
X297180Y310850D01*
X265430Y342600D01*
X240030Y342600D01*
X238896Y341889D01*
G54D15*
X408330Y266300D02*
X411480Y266400D01*
X367030Y310850D01*
X367030Y380700D01*
X369622Y383743D01*
G54D15*
X466346Y252857D02*
X468630Y253700D01*
X462280Y247350D01*
X462280Y241000D01*
X436880Y215600D01*
X436880Y177500D01*
X417830Y158450D01*
X417830Y107650D01*
X417805Y110675D01*
G54D15*
X408365Y231109D02*
X411480Y228300D01*
X367030Y183850D01*
X367055Y186925D01*
G54D15*
X230530Y266300D02*
X233680Y266400D01*
X278130Y310850D01*
X297180Y310850D01*
X295959Y313874D01*
G54D15*
X369622Y383743D02*
X367030Y380700D01*
X360680Y387050D01*
X297180Y387050D01*
X296008Y390124D01*
G54D15*
X118225Y161525D02*
X119380Y158450D01*
X55880Y221950D01*
X55880Y272750D01*
X36830Y291800D01*
X36830Y310850D01*
X37166Y310475D01*
X182856Y414509D02*
G54D11*
D03*
X233836Y414622D02*
G54D11*
D03*
G54D15*
X392430Y248725D02*
X392430Y245750D01*
X379730Y233050D01*
X335280Y233050D01*
X332165Y231109D01*
X118175Y85275D02*
G54D16*
D03*
X163805Y85275D02*
G54D16*
D03*
X290805Y110675D02*
G54D16*
D03*
X367005Y110675D02*
G54D16*
D03*
X118175Y85275D02*
G54D16*
D03*
X163805Y85275D02*
G54D16*
D03*
X290805Y110675D02*
G54D16*
D03*
X367005Y110675D02*
G54D16*
D03*
X244090Y189359D02*
G54D11*
D03*
X246405Y161525D02*
G54D11*
D03*
X246355Y85275D02*
G54D11*
D03*
G54D18*
X230565Y231109D02*
X233680Y233050D01*
X208280Y207650D01*
X208280Y175900D01*
X195580Y163200D01*
X163830Y163200D01*
X163855Y161525D01*
G54D18*
X193290Y189359D02*
X195580Y188600D01*
X170180Y163200D01*
X163830Y163200D01*
X163855Y161525D01*
G54D18*
X246405Y161525D02*
X246380Y163200D01*
X246380Y188600D01*
X244090Y189359D01*
X246355Y85275D02*
G54D16*
D03*
G54D15*
X233836Y414622D02*
X236880Y414000D01*
X262280Y388600D01*
X294030Y388600D01*
X296008Y390124D01*
G54D18*
X417855Y186925D02*
X419230Y185500D01*
X369230Y185500D01*
X367055Y186925D01*
G54D15*
X468518Y304680D02*
X468630Y302900D01*
X513080Y258450D01*
X551180Y258450D01*
X548899Y259211D01*
G54D15*
X445872Y383693D02*
X443230Y385450D01*
X551180Y277500D01*
X557530Y277500D01*
X570230Y264800D01*
X570230Y252100D01*
X532130Y214000D01*
X513080Y214000D01*
X506730Y207650D01*
X506730Y182250D01*
X525780Y163200D01*
X525780Y144150D01*
X523679Y145023D01*
G54D15*
X1100480Y272650D02*
X1024280Y348850D01*
X1011580Y348850D01*
G54D15*
X1100480Y183750D02*
X1144930Y228200D01*
X1144930Y399650D01*
X1146755Y402225D01*
X1223280Y225350D02*
G54D19*
D03*
X33680Y190100D02*
G54D10*
D03*
X33680Y132950D02*
G54D10*
D03*
G54D15*
X33680Y190100D02*
X40030Y196450D01*
X40030Y259950D01*
X37278Y259494D01*
X31080Y428850D02*
G54D20*
D03*
X31080Y28850D02*
G54D20*
D03*
X1251080Y23850D02*
G54D20*
D03*
X1251080Y433850D02*
G54D20*
D03*
X1221080Y288850D02*
G54D19*
D03*
X1286080Y288850D02*
G54D19*
D03*
G54D15*
X1189380Y272650D02*
X1191080Y268850D01*
X1201080Y278850D01*
X1201080Y298850D01*
X1221080Y318850D01*
X1221080Y348850D01*
X1241080Y368850D01*
X1241080Y388850D01*
X1243546Y388879D01*
X1283280Y225350D02*
G54D19*
D03*
G54D15*
X1221080Y288850D02*
X1241080Y308850D01*
X1241080Y338850D01*
X1243659Y337899D01*
G54D15*
X361105Y421275D02*
X361080Y418850D01*
X401080Y378850D01*
X441080Y378850D01*
X445872Y383693D01*
X291080Y28850D02*
G54D20*
D03*
X831080Y28850D02*
G54D20*
D03*
X441080Y318850D02*
G54D21*
D03*
X1281080Y318850D02*
G54D21*
D03*
X21080Y208850D02*
G54D21*
D03*
G54D15*
X21080Y208850D02*
X31080Y198850D01*
X31080Y188850D01*
X33680Y190100D01*
G54D15*
X441080Y318850D02*
X451080Y308850D01*
X471080Y308850D01*
X468518Y304680D01*
G54D15*
X1281080Y318850D02*
X1281080Y288850D01*
X1286080Y288850D01*
X981080Y428850D02*
G54D20*
D03*
%LPD*%
G54D22*
G36*
X1117922Y402225D02*
X1117922Y418725D01*
X1124588Y418725D01*
X1124588Y402225D01*
X1117922Y402225D01*
G37*
G54D23*
G54D22*
G36*
X469366Y144911D02*
X469366Y159411D01*
X476032Y159411D01*
X476032Y144911D01*
X469366Y144911D01*
G37*
G36*
X472699Y148244D02*
X487199Y148244D01*
X487199Y141578D01*
X472699Y141578D01*
X472699Y148244D01*
G37*
G36*
X476032Y144911D02*
X476032Y130411D01*
X469366Y130411D01*
X469366Y144911D01*
X476032Y144911D01*
G37*
G36*
X472699Y141578D02*
X458199Y141578D01*
X458199Y148244D01*
X472699Y148244D01*
X472699Y141578D01*
G37*
G54D22*
G36*
X469366Y195711D02*
X469366Y210211D01*
X476032Y210211D01*
X476032Y195711D01*
X469366Y195711D01*
G37*
G36*
X472699Y199044D02*
X487199Y199044D01*
X487199Y192378D01*
X472699Y192378D01*
X472699Y199044D01*
G37*
G36*
X476032Y195711D02*
X476032Y181211D01*
X469366Y181211D01*
X469366Y195711D01*
X476032Y195711D01*
G37*
G36*
X472699Y192378D02*
X458199Y192378D01*
X458199Y199044D01*
X472699Y199044D01*
X472699Y192378D01*
G37*
G54D22*
G36*
X812446Y94223D02*
X812446Y108723D01*
X819112Y108723D01*
X819112Y94223D01*
X812446Y94223D01*
G37*
G36*
X815779Y97556D02*
X830279Y97556D01*
X830279Y90890D01*
X815779Y90890D01*
X815779Y97556D01*
G37*
G36*
X819112Y94223D02*
X819112Y79723D01*
X812446Y79723D01*
X812446Y94223D01*
X819112Y94223D01*
G37*
G36*
X815779Y90890D02*
X801279Y90890D01*
X801279Y97556D01*
X815779Y97556D01*
X815779Y90890D01*
G37*
G54D22*
G36*
X1084447Y348850D02*
X1084447Y363350D01*
X1091114Y363350D01*
X1091114Y348850D01*
X1084447Y348850D01*
G37*
G36*
X1087780Y352183D02*
X1102280Y352183D01*
X1102280Y345517D01*
X1087780Y345517D01*
X1087780Y352183D01*
G37*
G36*
X1091114Y348850D02*
X1091114Y334350D01*
X1084447Y334350D01*
X1084447Y348850D01*
X1091114Y348850D01*
G37*
G36*
X1087780Y345517D02*
X1073280Y345517D01*
X1073280Y352183D01*
X1087780Y352183D01*
X1087780Y345517D01*
G37*
G54D22*
G36*
X738322Y180525D02*
X738322Y195025D01*
X744988Y195025D01*
X744988Y180525D01*
X738322Y180525D01*
G37*
G36*
X741655Y183858D02*
X756155Y183858D01*
X756155Y177192D01*
X741655Y177192D01*
X741655Y183858D01*
G37*
G36*
X744988Y180525D02*
X744988Y166025D01*
X738322Y166025D01*
X738322Y180525D01*
X744988Y180525D01*
G37*
G36*
X741655Y177192D02*
X727155Y177192D01*
X727155Y183858D01*
X741655Y183858D01*
X741655Y177192D01*
G37*
G54D24*
G36*
X687188Y180525D02*
X687188Y196025D01*
X694522Y196025D01*
X694522Y180525D01*
X687188Y180525D01*
G37*
G36*
X690855Y184192D02*
X706355Y184192D01*
X706355Y176858D01*
X690855Y176858D01*
X690855Y184192D01*
G37*
G36*
X694522Y180525D02*
X694522Y165025D01*
X687188Y165025D01*
X687188Y180525D01*
X694522Y180525D01*
G37*
G36*
X690855Y176858D02*
X675355Y176858D01*
X675355Y184192D01*
X690855Y184192D01*
X690855Y176858D01*
G37*
G54D24*
G36*
X693547Y141461D02*
X693547Y156961D01*
X700881Y156961D01*
X700881Y141461D01*
X693547Y141461D01*
G37*
G36*
X697214Y145127D02*
X712714Y145127D01*
X712714Y137794D01*
X697214Y137794D01*
X697214Y145127D01*
G37*
G36*
X700881Y141461D02*
X700881Y125961D01*
X693547Y125961D01*
X693547Y141461D01*
X700881Y141461D01*
G37*
G36*
X697214Y137794D02*
X681714Y137794D01*
X681714Y145127D01*
X697214Y145127D01*
X697214Y137794D01*
G37*
G54D24*
G36*
X792711Y147460D02*
X792711Y162960D01*
X800044Y162960D01*
X800044Y147460D01*
X792711Y147460D01*
G37*
G36*
X796378Y151126D02*
X811878Y151126D01*
X811878Y143793D01*
X796378Y143793D01*
X796378Y151126D01*
G37*
G36*
X800044Y147460D02*
X800044Y131960D01*
X792711Y131960D01*
X792711Y147460D01*
X800044Y147460D01*
G37*
G36*
X796378Y143793D02*
X780878Y143793D01*
X780878Y151126D01*
X796378Y151126D01*
X796378Y143793D01*
G37*
G54D24*
G36*
X856211Y147460D02*
X856211Y162960D01*
X863544Y162960D01*
X863544Y147460D01*
X856211Y147460D01*
G37*
G36*
X859878Y151126D02*
X875378Y151126D01*
X875378Y143793D01*
X859878Y143793D01*
X859878Y151126D01*
G37*
G36*
X863544Y147460D02*
X863544Y131960D01*
X856211Y131960D01*
X856211Y147460D01*
X863544Y147460D01*
G37*
G36*
X859878Y143793D02*
X844378Y143793D01*
X844378Y151126D01*
X859878Y151126D01*
X859878Y143793D01*
G37*
G54D22*
G36*
X678047Y25000D02*
X678047Y39500D01*
X684713Y39500D01*
X684713Y25000D01*
X678047Y25000D01*
G37*
G36*
X681380Y28333D02*
X695880Y28333D01*
X695880Y21667D01*
X681380Y21667D01*
X681380Y28333D01*
G37*
G36*
X684713Y25000D02*
X684713Y10500D01*
X678047Y10500D01*
X678047Y25000D01*
X684713Y25000D01*
G37*
G36*
X681380Y21667D02*
X666880Y21667D01*
X666880Y28333D01*
X681380Y28333D01*
X681380Y21667D01*
G37*
G54D24*
G36*
X469032Y195711D02*
X469032Y211211D01*
X476365Y211211D01*
X476365Y195711D01*
X469032Y195711D01*
G37*
G36*
X472699Y199378D02*
X488199Y199378D01*
X488199Y192044D01*
X472699Y192044D01*
X472699Y199378D01*
G37*
G36*
X476365Y195711D02*
X476365Y180211D01*
X469032Y180211D01*
X469032Y195711D01*
X476365Y195711D01*
G37*
G36*
X472699Y192044D02*
X457199Y192044D01*
X457199Y199378D01*
X472699Y199378D01*
X472699Y192044D01*
G37*
G54D24*
G36*
X469032Y144911D02*
X469032Y160411D01*
X476365Y160411D01*
X476365Y144911D01*
X469032Y144911D01*
G37*
G36*
X472699Y148578D02*
X488199Y148578D01*
X488199Y141244D01*
X472699Y141244D01*
X472699Y148578D01*
G37*
G36*
X476365Y144911D02*
X476365Y129411D01*
X469032Y129411D01*
X469032Y144911D01*
X476365Y144911D01*
G37*
G36*
X472699Y141244D02*
X457199Y141244D01*
X457199Y148578D01*
X472699Y148578D01*
X472699Y141244D01*
G37*
G54D24*
G36*
X474425Y72750D02*
X474425Y88250D01*
X481759Y88250D01*
X481759Y72750D01*
X474425Y72750D01*
G37*
G36*
X478092Y76417D02*
X493592Y76417D01*
X493592Y69083D01*
X478092Y69083D01*
X478092Y76417D01*
G37*
G36*
X481759Y72750D02*
X481759Y57250D01*
X474425Y57250D01*
X474425Y72750D01*
X481759Y72750D01*
G37*
G36*
X478092Y69083D02*
X462592Y69083D01*
X462592Y76417D01*
X478092Y76417D01*
X478092Y69083D01*
G37*
G54D24*
G36*
X812112Y94223D02*
X812112Y109723D01*
X819446Y109723D01*
X819446Y94223D01*
X812112Y94223D01*
G37*
G36*
X815779Y97890D02*
X831279Y97890D01*
X831279Y90556D01*
X815779Y90556D01*
X815779Y97890D01*
G37*
G36*
X819446Y94223D02*
X819446Y78723D01*
X812112Y78723D01*
X812112Y94223D01*
X819446Y94223D01*
G37*
G36*
X815779Y90556D02*
X800279Y90556D01*
X800279Y97890D01*
X815779Y97890D01*
X815779Y90556D01*
G37*
G54D24*
G36*
X737988Y180525D02*
X737988Y196025D01*
X745322Y196025D01*
X745322Y180525D01*
X737988Y180525D01*
G37*
G36*
X741655Y184192D02*
X757155Y184192D01*
X757155Y176858D01*
X741655Y176858D01*
X741655Y184192D01*
G37*
G36*
X745322Y180525D02*
X745322Y165025D01*
X737988Y165025D01*
X737988Y180525D01*
X745322Y180525D01*
G37*
G36*
X741655Y176858D02*
X726155Y176858D01*
X726155Y184192D01*
X741655Y184192D01*
X741655Y176858D01*
G37*
G54D24*
G36*
X1186411Y350660D02*
X1186411Y366160D01*
X1193744Y366160D01*
X1193744Y350660D01*
X1186411Y350660D01*
G37*
G36*
X1190078Y354326D02*
X1205578Y354326D01*
X1205578Y346993D01*
X1190078Y346993D01*
X1190078Y354326D01*
G37*
G36*
X1193744Y350660D02*
X1193744Y335160D01*
X1186411Y335160D01*
X1186411Y350660D01*
X1193744Y350660D01*
G37*
G36*
X1190078Y346993D02*
X1174578Y346993D01*
X1174578Y354326D01*
X1190078Y354326D01*
X1190078Y346993D01*
G37*
G54D22*
G36*
X976852Y264021D02*
X976852Y278521D01*
X983519Y278521D01*
X983519Y264021D01*
X976852Y264021D01*
G37*
G36*
X980185Y267354D02*
X994685Y267354D01*
X994685Y260688D01*
X980185Y260688D01*
X980185Y267354D01*
G37*
G36*
X983519Y264021D02*
X983519Y249521D01*
X976852Y249521D01*
X976852Y264021D01*
X983519Y264021D01*
G37*
G36*
X980185Y260688D02*
X965685Y260688D01*
X965685Y267354D01*
X980185Y267354D01*
X980185Y260688D01*
G37*
G54D22*
G36*
X332272Y421275D02*
X332272Y437775D01*
X338938Y437775D01*
X338938Y421275D01*
X332272Y421275D01*
G37*
G54D23*
G54D22*
G36*
X182856Y417843D02*
X199356Y417843D01*
X199356Y411176D01*
X182856Y411176D01*
X182856Y417843D01*
G37*
G54D25*
G36*
X111275Y85275D02*
X111275Y99775D01*
X125075Y99775D01*
X125075Y85275D01*
X111275Y85275D01*
G37*
G36*
X118175Y92175D02*
X132675Y92175D01*
X132675Y78375D01*
X118175Y78375D01*
X118175Y92175D01*
G37*
G36*
X125075Y85275D02*
X125075Y70775D01*
X111275Y70775D01*
X111275Y85275D01*
X125075Y85275D01*
G37*
G36*
X118175Y78375D02*
X103675Y78375D01*
X103675Y92175D01*
X118175Y92175D01*
X118175Y78375D01*
G37*
G54D26*
G36*
X156472Y85275D02*
X156472Y99775D01*
X171138Y99775D01*
X171138Y85275D01*
X156472Y85275D01*
G37*
G36*
X163805Y92608D02*
X178305Y92608D01*
X178305Y77942D01*
X163805Y77942D01*
X163805Y92608D01*
G37*
G36*
X171138Y85275D02*
X171138Y70775D01*
X156472Y70775D01*
X156472Y85275D01*
X171138Y85275D01*
G37*
G36*
X163805Y77942D02*
X149305Y77942D01*
X149305Y92608D01*
X163805Y92608D01*
X163805Y77942D01*
G37*
G54D27*
G36*
X283572Y110675D02*
X283572Y125175D01*
X298038Y125175D01*
X298038Y110675D01*
X283572Y110675D01*
G37*
G36*
X290805Y117908D02*
X305305Y117908D01*
X305305Y103442D01*
X290805Y103442D01*
X290805Y117908D01*
G37*
G36*
X298038Y110675D02*
X298038Y96175D01*
X283572Y96175D01*
X283572Y110675D01*
X298038Y110675D01*
G37*
G36*
X290805Y103442D02*
X276305Y103442D01*
X276305Y117908D01*
X290805Y117908D01*
X290805Y103442D01*
G37*
G54D27*
G36*
X359772Y110675D02*
X359772Y125175D01*
X374238Y125175D01*
X374238Y110675D01*
X359772Y110675D01*
G37*
G36*
X367005Y117908D02*
X381505Y117908D01*
X381505Y103442D01*
X367005Y103442D01*
X367005Y117908D01*
G37*
G36*
X374238Y110675D02*
X374238Y96175D01*
X359772Y96175D01*
X359772Y110675D01*
X374238Y110675D01*
G37*
G36*
X367005Y103442D02*
X352505Y103442D01*
X352505Y117908D01*
X367005Y117908D01*
X367005Y103442D01*
G37*
G54D26*
G36*
X239022Y85275D02*
X239022Y99775D01*
X253688Y99775D01*
X253688Y85275D01*
X239022Y85275D01*
G37*
G36*
X246355Y92608D02*
X260855Y92608D01*
X260855Y77942D01*
X246355Y77942D01*
X246355Y92608D01*
G37*
G36*
X253688Y85275D02*
X253688Y70775D01*
X239022Y70775D01*
X239022Y85275D01*
X253688Y85275D01*
G37*
G36*
X246355Y77942D02*
X231855Y77942D01*
X231855Y92608D01*
X246355Y92608D01*
X246355Y77942D01*
G37*
G54D28*
G36*
X1217267Y225350D02*
X1217267Y240850D01*
X1229293Y240850D01*
X1229293Y225350D01*
X1217267Y225350D01*
G37*
G36*
X1223280Y231363D02*
X1238780Y231363D01*
X1238780Y219337D01*
X1223280Y219337D01*
X1223280Y231363D01*
G37*
G36*
X1229293Y225350D02*
X1229293Y209850D01*
X1217267Y209850D01*
X1217267Y225350D01*
X1229293Y225350D01*
G37*
G36*
X1223280Y219337D02*
X1207780Y219337D01*
X1207780Y231363D01*
X1223280Y231363D01*
X1223280Y219337D01*
G37*
G54D29*
G36*
X28213Y132950D02*
X28213Y147450D01*
X39147Y147450D01*
X39147Y132950D01*
X28213Y132950D01*
G37*
G36*
X33680Y138417D02*
X48180Y138417D01*
X48180Y127483D01*
X33680Y127483D01*
X33680Y138417D01*
G37*
G36*
X39147Y132950D02*
X39147Y118450D01*
X28213Y118450D01*
X28213Y132950D01*
X39147Y132950D01*
G37*
G36*
X33680Y127483D02*
X19180Y127483D01*
X19180Y138417D01*
X33680Y138417D01*
X33680Y127483D01*
G37*
G54D30*
G36*
X26080Y428850D02*
X26080Y448350D01*
X36080Y448350D01*
X36080Y428850D01*
X26080Y428850D01*
G37*
G36*
X31080Y433850D02*
X50580Y433850D01*
X50580Y423850D01*
X31080Y423850D01*
X31080Y433850D01*
G37*
G36*
X36080Y428850D02*
X36080Y409350D01*
X26080Y409350D01*
X26080Y428850D01*
X36080Y428850D01*
G37*
G36*
X31080Y423850D02*
X11580Y423850D01*
X11580Y433850D01*
X31080Y433850D01*
X31080Y423850D01*
G37*
G54D30*
G36*
X26080Y28850D02*
X26080Y48350D01*
X36080Y48350D01*
X36080Y28850D01*
X26080Y28850D01*
G37*
G36*
X31080Y33850D02*
X50580Y33850D01*
X50580Y23850D01*
X31080Y23850D01*
X31080Y33850D01*
G37*
G36*
X36080Y28850D02*
X36080Y9350D01*
X26080Y9350D01*
X26080Y28850D01*
X36080Y28850D01*
G37*
G36*
X31080Y23850D02*
X11580Y23850D01*
X11580Y33850D01*
X31080Y33850D01*
X31080Y23850D01*
G37*
G54D30*
G36*
X1246080Y23850D02*
X1246080Y43350D01*
X1256080Y43350D01*
X1256080Y23850D01*
X1246080Y23850D01*
G37*
G36*
X1251080Y28850D02*
X1270580Y28850D01*
X1270580Y18850D01*
X1251080Y18850D01*
X1251080Y28850D01*
G37*
G36*
X1256080Y23850D02*
X1256080Y4350D01*
X1246080Y4350D01*
X1246080Y23850D01*
X1256080Y23850D01*
G37*
G36*
X1251080Y18850D02*
X1231580Y18850D01*
X1231580Y28850D01*
X1251080Y28850D01*
X1251080Y18850D01*
G37*
G54D30*
G36*
X1246080Y433850D02*
X1246080Y453350D01*
X1256080Y453350D01*
X1256080Y433850D01*
X1246080Y433850D01*
G37*
G36*
X1251080Y438850D02*
X1270580Y438850D01*
X1270580Y428850D01*
X1251080Y428850D01*
X1251080Y438850D01*
G37*
G36*
X1256080Y433850D02*
X1256080Y414350D01*
X1246080Y414350D01*
X1246080Y433850D01*
X1256080Y433850D01*
G37*
G36*
X1251080Y428850D02*
X1231580Y428850D01*
X1231580Y438850D01*
X1251080Y438850D01*
X1251080Y428850D01*
G37*
G54D28*
G36*
X1277267Y225350D02*
X1277267Y240850D01*
X1289293Y240850D01*
X1289293Y225350D01*
X1277267Y225350D01*
G37*
G36*
X1283280Y231363D02*
X1298780Y231363D01*
X1298780Y219337D01*
X1283280Y219337D01*
X1283280Y231363D01*
G37*
G36*
X1289293Y225350D02*
X1289293Y209850D01*
X1277267Y209850D01*
X1277267Y225350D01*
X1289293Y225350D01*
G37*
G36*
X1283280Y219337D02*
X1267780Y219337D01*
X1267780Y231363D01*
X1283280Y231363D01*
X1283280Y219337D01*
G37*
G54D30*
G36*
X286080Y28850D02*
X286080Y48350D01*
X296080Y48350D01*
X296080Y28850D01*
X286080Y28850D01*
G37*
G36*
X291080Y33850D02*
X310580Y33850D01*
X310580Y23850D01*
X291080Y23850D01*
X291080Y33850D01*
G37*
G36*
X296080Y28850D02*
X296080Y9350D01*
X286080Y9350D01*
X286080Y28850D01*
X296080Y28850D01*
G37*
G36*
X291080Y23850D02*
X271580Y23850D01*
X271580Y33850D01*
X291080Y33850D01*
X291080Y23850D01*
G37*
G54D30*
G36*
X826080Y28850D02*
X826080Y48350D01*
X836080Y48350D01*
X836080Y28850D01*
X826080Y28850D01*
G37*
G36*
X831080Y33850D02*
X850580Y33850D01*
X850580Y23850D01*
X831080Y23850D01*
X831080Y33850D01*
G37*
G36*
X836080Y28850D02*
X836080Y9350D01*
X826080Y9350D01*
X826080Y28850D01*
X836080Y28850D01*
G37*
G36*
X831080Y23850D02*
X811580Y23850D01*
X811580Y33850D01*
X831080Y33850D01*
X831080Y23850D01*
G37*
G54D30*
G36*
X976080Y428850D02*
X976080Y448350D01*
X986080Y448350D01*
X986080Y428850D01*
X976080Y428850D01*
G37*
G36*
X981080Y433850D02*
X1000580Y433850D01*
X1000580Y423850D01*
X981080Y423850D01*
X981080Y433850D01*
G37*
G36*
X986080Y428850D02*
X986080Y409350D01*
X976080Y409350D01*
X976080Y428850D01*
X986080Y428850D01*
G37*
G36*
X981080Y423850D02*
X961580Y423850D01*
X961580Y433850D01*
X981080Y433850D01*
X981080Y423850D01*
G37*
X643280Y326750D02*
G54D31*
D03*
X668680Y326750D02*
G54D31*
D03*
X694080Y326750D02*
G54D31*
D03*
X1030985Y264021D02*
G54D31*
D03*
X1005585Y264021D02*
G54D31*
D03*
X980185Y264021D02*
G54D31*
D03*
X599879Y259323D02*
G54D32*
D03*
X548899Y259211D02*
G54D32*
D03*
X640105Y256775D02*
G54D32*
D03*
X640055Y180525D02*
G54D32*
D03*
X551205Y409175D02*
G54D32*
D03*
X551155Y332925D02*
G54D32*
D03*
X690905Y256775D02*
G54D32*
D03*
X690855Y180525D02*
G54D32*
D03*
X676079Y399023D02*
G54D32*
D03*
X625099Y398911D02*
G54D32*
D03*
X741705Y256775D02*
G54D33*
D03*
X741655Y180525D02*
G54D33*
D03*
X697214Y141461D02*
G54D32*
D03*
X748195Y141573D02*
G54D32*
D03*
X642703Y148698D02*
G54D32*
D03*
X566453Y148748D02*
G54D32*
D03*
X523679Y195823D02*
G54D32*
D03*
X472699Y195711D02*
G54D32*
D03*
X523679Y145023D02*
G54D32*
D03*
X472699Y144911D02*
G54D32*
D03*
X478092Y72750D02*
G54D32*
D03*
X513192Y72750D02*
G54D32*
D03*
X642703Y85198D02*
G54D32*
D03*
X566453Y85248D02*
G54D32*
D03*
X681380Y25000D02*
G54D33*
D03*
X681380Y94850D02*
G54D32*
D03*
X815779Y94223D02*
G54D32*
D03*
X764798Y94111D02*
G54D32*
D03*
X807803Y402698D02*
G54D32*
D03*
X731553Y402748D02*
G54D32*
D03*
X1011580Y348850D02*
G54D32*
D03*
X1087780Y348850D02*
G54D32*
D03*
X1243659Y337898D02*
G54D32*
D03*
X1243546Y388879D02*
G54D32*
D03*
X795680Y348850D02*
G54D32*
D03*
X795680Y259950D02*
G54D32*
D03*
X909980Y348850D02*
G54D32*
D03*
X909980Y259950D02*
G54D32*
D03*
X796378Y147460D02*
G54D32*
D03*
X796265Y198440D02*
G54D32*
D03*
X1121255Y402225D02*
G54D32*
D03*
X1146755Y402225D02*
G54D32*
D03*
X1190078Y350660D02*
G54D32*
D03*
X1189965Y401640D02*
G54D32*
D03*
X1100480Y272650D02*
G54D32*
D03*
X1189380Y272650D02*
G54D32*
D03*
X1100480Y183750D02*
G54D32*
D03*
X1189380Y183750D02*
G54D32*
D03*
X917380Y399023D02*
G54D32*
D03*
X866400Y398910D02*
G54D32*
D03*
X909980Y209150D02*
G54D32*
D03*
X909980Y107550D02*
G54D32*
D03*
X859878Y147460D02*
G54D32*
D03*
X859765Y198440D02*
G54D32*
D03*
G54D34*
X566453Y85248D02*
X567080Y82150D01*
X560730Y75800D01*
X516280Y75800D01*
X513192Y72750D01*
G54D34*
X513192Y72750D02*
X516280Y75800D01*
X567080Y126600D01*
X567080Y145650D01*
X566453Y148748D01*
G54D34*
X523679Y195823D02*
X522630Y196450D01*
X541680Y177400D01*
X636930Y177400D01*
X640055Y180525D01*
G54D34*
X642703Y148698D02*
X643280Y145650D01*
X636930Y152000D01*
X636930Y177400D01*
X640055Y180525D01*
G54D34*
X681380Y94850D02*
X668680Y82150D01*
X643280Y82150D01*
X642703Y85198D01*
G54D34*
X764799Y94111D02*
X763930Y94850D01*
X681380Y94850D01*
G54D34*
X909980Y107550D02*
X903630Y113900D01*
X808380Y113900D01*
X789330Y94850D01*
X681380Y94850D01*
G54D34*
X640105Y256775D02*
X643280Y259950D01*
X598830Y259950D01*
X599879Y259323D01*
G54D34*
X690905Y256775D02*
X694080Y259950D01*
X643280Y259950D01*
X640105Y256775D01*
G54D34*
X690905Y256775D02*
X694080Y259950D01*
X694080Y329800D01*
X694080Y326750D01*
G54D34*
X741705Y256775D02*
X744880Y259950D01*
X713130Y291700D01*
X713130Y336150D01*
X706780Y342500D01*
X655980Y342500D01*
X643280Y329800D01*
X643280Y326750D01*
G54D34*
X551155Y332925D02*
X548030Y329800D01*
X617880Y259950D01*
X643280Y259950D01*
X640105Y256775D01*
G54D34*
X625099Y398911D02*
X624230Y399650D01*
X611530Y412350D01*
X554380Y412350D01*
X551205Y409175D01*
G54D34*
X676079Y399023D02*
X675030Y399650D01*
X643280Y367900D01*
X636930Y367900D01*
X624230Y355200D01*
X624230Y317100D01*
X630580Y310750D01*
X655980Y310750D01*
X668680Y323450D01*
X668680Y329800D01*
X668680Y326750D01*
G54D34*
X795680Y348850D02*
X776630Y367900D01*
X636930Y367900D01*
X624230Y355200D01*
X624230Y317100D01*
X630580Y310750D01*
X655980Y310750D01*
X668680Y323450D01*
X668680Y329800D01*
X668680Y326750D01*
G54D34*
X909980Y348850D02*
X878230Y380600D01*
X802030Y380600D01*
X782980Y399650D01*
X732180Y399650D01*
X731553Y402748D01*
G54D34*
X866400Y398910D02*
X865530Y399650D01*
X808380Y399650D01*
X807803Y402698D01*
G54D34*
X859765Y198440D02*
X859180Y196450D01*
X871880Y209150D01*
X909980Y209150D01*
G54D34*
X909980Y209150D02*
X909980Y259950D01*
G54D34*
X796265Y198440D02*
X795680Y196450D01*
X795680Y259950D01*
G54D34*
X748195Y141573D02*
X751230Y139300D01*
X763930Y152000D01*
X763930Y190100D01*
X744880Y209150D01*
X744880Y259950D01*
X741705Y256775D01*
G54D34*
X1189380Y183750D02*
X1163980Y158350D01*
X1100480Y132950D01*
X1075080Y158350D01*
X1075080Y247250D01*
X1100480Y272650D01*
X472699Y144911D02*
G54D35*
D03*
X472699Y195711D02*
G54D35*
D03*
X815779Y94223D02*
G54D35*
D03*
X1087780Y348850D02*
G54D35*
D03*
X741655Y180525D02*
G54D35*
D03*
X690855Y180525D02*
G54D36*
D03*
X697214Y141461D02*
G54D36*
D03*
X796378Y147460D02*
G54D36*
D03*
X859878Y147460D02*
G54D36*
D03*
X681380Y25000D02*
G54D32*
D03*
X472699Y195711D02*
G54D36*
D03*
X472699Y144911D02*
G54D36*
D03*
X478092Y72750D02*
G54D36*
D03*
X815779Y94223D02*
G54D36*
D03*
X741655Y180525D02*
G54D36*
D03*
X1190078Y350660D02*
G54D36*
D03*
G54D34*
X523679Y145023D02*
X525780Y144150D01*
X532130Y150500D01*
X563880Y150500D01*
X566453Y148748D01*
G54D34*
X1189965Y401640D02*
X1192530Y404500D01*
X1148080Y404500D01*
X1146755Y402225D01*
G54D34*
X917380Y399023D02*
X919480Y398150D01*
X1008380Y309250D01*
X1008380Y264800D01*
X1005585Y264021D01*
X980185Y264021D02*
G54D35*
D03*
G54D34*
X909980Y348850D02*
X913130Y347350D01*
X957580Y302900D01*
X957580Y258450D01*
X976630Y239400D01*
X982980Y239400D01*
X989330Y245750D01*
X1014730Y245750D01*
X1033780Y264800D01*
X1030985Y264021D01*
G54D34*
X1011580Y348850D02*
X1014730Y347350D01*
X1008380Y341000D01*
X1008380Y264800D01*
X1005585Y264021D01*
X690905Y256775D02*
G54D33*
D03*
X690855Y180525D02*
G54D33*
D03*
X118159Y313875D02*
G54D32*
D03*
X118209Y390125D02*
G54D32*
D03*
X37166Y310475D02*
G54D32*
D03*
X37278Y259494D02*
G54D32*
D03*
X151465Y285075D02*
G54D32*
D03*
X151578Y234094D02*
G54D32*
D03*
X118175Y85275D02*
G54D32*
D03*
X118225Y161525D02*
G54D32*
D03*
X238896Y341889D02*
G54D32*
D03*
X162646Y341939D02*
G54D32*
D03*
X163855Y161525D02*
G54D32*
D03*
X163805Y85275D02*
G54D32*
D03*
X295958Y313874D02*
G54D32*
D03*
X296008Y390124D02*
G54D32*
D03*
X193290Y189359D02*
G54D32*
D03*
X290855Y186925D02*
G54D32*
D03*
X290805Y110675D02*
G54D32*
D03*
X367055Y186925D02*
G54D32*
D03*
X367005Y110675D02*
G54D32*
D03*
X417855Y186925D02*
G54D32*
D03*
X417805Y110675D02*
G54D32*
D03*
X468630Y253700D02*
G54D32*
D03*
X468518Y304680D02*
G54D32*
D03*
X445872Y383693D02*
G54D32*
D03*
X369622Y383743D02*
G54D32*
D03*
X335605Y421275D02*
G54D32*
D03*
X361105Y421275D02*
G54D32*
D03*
X230530Y266300D02*
G54D37*
D03*
X214630Y248725D02*
G54D37*
D03*
X230564Y231109D02*
G54D37*
D03*
X332130Y266300D02*
G54D37*
D03*
X316230Y248725D02*
G54D37*
D03*
X332165Y231109D02*
G54D37*
D03*
X408330Y266300D02*
G54D37*
D03*
X392430Y248725D02*
G54D37*
D03*
X408365Y231109D02*
G54D37*
D03*
G54D34*
X118225Y161525D02*
X119380Y158450D01*
X119380Y310850D01*
X118159Y313875D01*
G54D34*
X296008Y390124D02*
X297180Y387050D01*
X119380Y387050D01*
X118209Y390125D01*
G54D34*
X162646Y341939D02*
X163830Y342600D01*
X151130Y329900D01*
X151130Y285450D01*
X151465Y285075D01*
G54D34*
X118225Y161525D02*
X119380Y158450D01*
X151130Y190200D01*
X151130Y234650D01*
X151578Y234094D01*
G54D34*
X214630Y248725D02*
X214630Y247350D01*
X125730Y158450D01*
X119380Y158450D01*
X118225Y161525D01*
G54D34*
X332165Y231109D02*
X335280Y228300D01*
X290830Y183850D01*
X290855Y186925D01*
G54D34*
X316230Y248725D02*
X316230Y247350D01*
X297180Y266400D01*
X297180Y310850D01*
X295959Y313874D01*
G54D34*
X332130Y266300D02*
X335280Y266400D01*
X367030Y298150D01*
X367030Y380700D01*
X369622Y383743D01*
G54D34*
X295959Y313874D02*
X297180Y310850D01*
X265430Y342600D01*
X240030Y342600D01*
X238896Y341889D01*
G54D34*
X408330Y266300D02*
X411480Y266400D01*
X367030Y310850D01*
X367030Y380700D01*
X369622Y383743D01*
G54D34*
X466346Y252857D02*
X468630Y253700D01*
X462280Y247350D01*
X462280Y241000D01*
X436880Y215600D01*
X436880Y177500D01*
X417830Y158450D01*
X417830Y107650D01*
X417805Y110675D01*
G54D34*
X408365Y231109D02*
X411480Y228300D01*
X367030Y183850D01*
X367055Y186925D01*
G54D34*
X230530Y266300D02*
X233680Y266400D01*
X278130Y310850D01*
X297180Y310850D01*
X295959Y313874D01*
G54D34*
X369622Y383743D02*
X367030Y380700D01*
X360680Y387050D01*
X297180Y387050D01*
X296008Y390124D01*
G54D34*
X118225Y161525D02*
X119380Y158450D01*
X55880Y221950D01*
X55880Y272750D01*
X36830Y291800D01*
X36830Y310850D01*
X37166Y310475D01*
X182856Y414509D02*
G54D32*
D03*
X233836Y414622D02*
G54D32*
D03*
G54D34*
X392430Y248725D02*
X392430Y245750D01*
X379730Y233050D01*
X335280Y233050D01*
X332165Y231109D01*
X118175Y85275D02*
G54D35*
D03*
X163805Y85275D02*
G54D35*
D03*
X290805Y110675D02*
G54D35*
D03*
X367005Y110675D02*
G54D35*
D03*
X118175Y85275D02*
G54D35*
D03*
X163805Y85275D02*
G54D35*
D03*
X290805Y110675D02*
G54D35*
D03*
X367005Y110675D02*
G54D35*
D03*
X244090Y189359D02*
G54D32*
D03*
X246405Y161525D02*
G54D32*
D03*
X246355Y85275D02*
G54D32*
D03*
G54D38*
X230565Y231109D02*
X233680Y233050D01*
X208280Y207650D01*
X208280Y175900D01*
X195580Y163200D01*
X163830Y163200D01*
X163855Y161525D01*
G54D38*
X193290Y189359D02*
X195580Y188600D01*
X170180Y163200D01*
X163830Y163200D01*
X163855Y161525D01*
G54D38*
X246405Y161525D02*
X246380Y163200D01*
X246380Y188600D01*
X244090Y189359D01*
X246355Y85275D02*
G54D35*
D03*
G54D34*
X233836Y414622D02*
X236880Y414000D01*
X262280Y388600D01*
X294030Y388600D01*
X296008Y390124D01*
G54D38*
X417855Y186925D02*
X419230Y185500D01*
X369230Y185500D01*
X367055Y186925D01*
G54D34*
X468518Y304680D02*
X468630Y302900D01*
X513080Y258450D01*
X551180Y258450D01*
X548899Y259211D01*
G54D34*
X445872Y383693D02*
X443230Y385450D01*
X551180Y277500D01*
X557530Y277500D01*
X570230Y264800D01*
X570230Y252100D01*
X532130Y214000D01*
X513080Y214000D01*
X506730Y207650D01*
X506730Y182250D01*
X525780Y163200D01*
X525780Y144150D01*
X523679Y145023D01*
G54D34*
X1100480Y272650D02*
X1024280Y348850D01*
X1011580Y348850D01*
G54D34*
X1100480Y183750D02*
X1144930Y228200D01*
X1144930Y399650D01*
X1146755Y402225D01*
X1223280Y225350D02*
G54D39*
D03*
X33680Y190100D02*
G54D31*
D03*
X33680Y132950D02*
G54D31*
D03*
G54D34*
X33680Y190100D02*
X40030Y196450D01*
X40030Y259950D01*
X37278Y259494D01*
X31080Y428850D02*
G54D40*
D03*
X31080Y28850D02*
G54D40*
D03*
X1251080Y23850D02*
G54D40*
D03*
X1251080Y433850D02*
G54D40*
D03*
X1221080Y288850D02*
G54D39*
D03*
X1286080Y288850D02*
G54D39*
D03*
G54D34*
X1189380Y272650D02*
X1191080Y268850D01*
X1201080Y278850D01*
X1201080Y298850D01*
X1221080Y318850D01*
X1221080Y348850D01*
X1241080Y368850D01*
X1241080Y388850D01*
X1243546Y388879D01*
X1283280Y225350D02*
G54D39*
D03*
G54D34*
X1221080Y288850D02*
X1241080Y308850D01*
X1241080Y338850D01*
X1243659Y337899D01*
G54D34*
X361105Y421275D02*
X361080Y418850D01*
X401080Y378850D01*
X441080Y378850D01*
X445872Y383693D01*
X291080Y28850D02*
G54D40*
D03*
X831080Y28850D02*
G54D40*
D03*
X441080Y318850D02*
G54D41*
D03*
X1281080Y318850D02*
G54D41*
D03*
X21080Y208850D02*
G54D41*
D03*
G54D34*
X21080Y208850D02*
X31080Y198850D01*
X31080Y188850D01*
X33680Y190100D01*
G54D34*
X441080Y318850D02*
X451080Y308850D01*
X471080Y308850D01*
X468518Y304680D01*
G54D34*
X1281080Y318850D02*
X1281080Y288850D01*
X1286080Y288850D01*
X981080Y428850D02*
G54D40*
D03*
M02*
