%FSLAX34Y34*%
%MOMM*%
%LNSILK_TOP*%
G71*
G01*
%ADD10C,0.150*%
%ADD11C,0.090*%
%ADD12C,0.159*%
%ADD13C,0.100*%
%ADD14C,0.167*%
%ADD15C,0.206*%
%ADD16C,0.200*%
%ADD17C,0.144*%
%ADD18C,0.222*%
%ADD19C,0.170*%
%ADD20C,0.600*%
%ADD21C,0.111*%
%ADD22C,0.400*%
%ADD23C,0.178*%
%ADD24C,0.133*%
%LPD*%
G54D10*
X-190500Y-9400D02*
X-190500Y-34600D01*
X-114300Y-34600D01*
X-114300Y-9400D01*
X-190500Y-9400D01*
G54D11*
X-175700Y-45900D02*
X-179400Y-45900D01*
X-179400Y-38800D01*
X-175700Y-38800D01*
G54D11*
X-179400Y-42300D02*
X-175700Y-42300D01*
G54D11*
X-149700Y-44600D02*
X-150300Y-45500D01*
X-151300Y-45900D01*
X-152400Y-45900D01*
X-153500Y-45500D01*
X-154000Y-44600D01*
X-154000Y-40100D01*
X-153500Y-39200D01*
X-152400Y-38800D01*
X-151300Y-38800D01*
X-150300Y-39200D01*
X-149700Y-40100D01*
G54D11*
X-128600Y-45900D02*
X-128600Y-38800D01*
X-125900Y-38800D01*
X-124900Y-39200D01*
X-124300Y-40100D01*
X-124300Y-41000D01*
X-124900Y-41900D01*
X-125900Y-42300D01*
X-124900Y-42800D01*
X-124300Y-43700D01*
X-124300Y-44600D01*
X-124900Y-45500D01*
X-125900Y-45900D01*
X-128600Y-45900D01*
G54D11*
X-128600Y-42300D02*
X-125900Y-42300D01*
G54D12*
X-191251Y11350D02*
X-191251Y11350D01*
G54D12*
X-191250Y-3650D02*
X-191250Y-3650D01*
G36*
X229005Y-100729D02*
X140205Y-100729D01*
X140205Y-107129D01*
X229005Y-107129D01*
X229005Y-100729D01*
G37*
G54D13*
X229005Y-100729D02*
X140205Y-100729D01*
X140205Y-107129D01*
X229005Y-107129D01*
X229005Y-100729D01*
G54D10*
X229005Y-107129D02*
X229005Y-69129D01*
X140005Y-69129D01*
X140005Y-107129D01*
X229005Y-107129D01*
G54D11*
X211505Y-57829D02*
X211506Y-64929D01*
X208805Y-64929D01*
X207806Y-64529D01*
X207205Y-63629D01*
X207205Y-62729D01*
X207805Y-61829D01*
X208805Y-61429D01*
X207805Y-60929D01*
X207205Y-60029D01*
X207205Y-59129D01*
X207805Y-58229D01*
X208805Y-57829D01*
X211505Y-57829D01*
G54D11*
X211506Y-61429D02*
X208805Y-61429D01*
G54D11*
X181805Y-59129D02*
X182405Y-58229D01*
X183405Y-57829D01*
X184505Y-57829D01*
X185605Y-58229D01*
X186105Y-59129D01*
X186105Y-63629D01*
X185605Y-64529D01*
X184505Y-64929D01*
X183405Y-64929D01*
X182405Y-64529D01*
X181805Y-63629D01*
G54D11*
X157005Y-57829D02*
X160705Y-57829D01*
X160705Y-64929D01*
X157005Y-64929D01*
G54D11*
X160705Y-61429D02*
X157005Y-61429D01*
G54D12*
X229755Y-127879D02*
X229755Y-127879D01*
G54D12*
X229755Y-112879D02*
X229755Y-112879D01*
G54D10*
X-210986Y-102360D02*
X-210986Y-76960D01*
X-282586Y-76960D01*
X-282586Y-102360D01*
X-210986Y-102360D01*
G54D14*
X-255641Y-69068D02*
X-256641Y-70735D01*
X-258641Y-71568D01*
X-260641Y-71568D01*
X-262641Y-70735D01*
X-263641Y-69068D01*
X-263641Y-60735D01*
X-262641Y-59068D01*
X-260641Y-58235D01*
X-258641Y-58235D01*
X-256641Y-59068D01*
X-255641Y-60735D01*
G54D14*
X-243974Y-58235D02*
X-251974Y-58235D01*
X-251974Y-64068D01*
X-250974Y-64068D01*
X-248974Y-63235D01*
X-246974Y-63235D01*
X-244974Y-64068D01*
X-243974Y-65735D01*
X-243974Y-69068D01*
X-244974Y-70735D01*
X-246974Y-71568D01*
X-248974Y-71568D01*
X-250974Y-70735D01*
X-251974Y-69068D01*
G54D14*
X-232307Y-60735D02*
X-233307Y-59068D01*
X-235307Y-58235D01*
X-237307Y-58235D01*
X-239307Y-59068D01*
X-240307Y-60735D01*
X-240307Y-64902D01*
X-240307Y-65735D01*
X-237307Y-64068D01*
X-235307Y-64068D01*
X-233307Y-64902D01*
X-232307Y-66568D01*
X-232307Y-69068D01*
X-233307Y-70735D01*
X-235307Y-71568D01*
X-237307Y-71568D01*
X-239307Y-70735D01*
X-240307Y-69068D01*
X-240307Y-64902D01*
G54D10*
X-192121Y-104871D02*
X-169946Y-104871D01*
X-169946Y-155571D01*
X-192121Y-155571D01*
X-192121Y-104871D01*
G54D10*
X-181034Y-104671D02*
X-181034Y-96771D01*
G54D10*
X-181034Y-155671D02*
X-181033Y-163571D01*
G54D14*
X-158775Y-141313D02*
X-157109Y-138313D01*
X-155442Y-137313D01*
X-152109Y-137313D01*
G54D14*
X-152109Y-145313D02*
X-165442Y-145313D01*
X-165442Y-140313D01*
X-164609Y-138313D01*
X-162942Y-137313D01*
X-161275Y-137313D01*
X-159609Y-138313D01*
X-158775Y-140313D01*
X-158775Y-145313D01*
G54D14*
X-152109Y-127646D02*
X-165442Y-127646D01*
X-157109Y-133646D01*
X-155442Y-133646D01*
X-155442Y-125646D01*
G54D14*
X-152109Y-113979D02*
X-152109Y-121979D01*
X-152942Y-121979D01*
X-154609Y-120979D01*
X-159609Y-114979D01*
X-161275Y-113979D01*
X-162942Y-113979D01*
X-164609Y-114979D01*
X-165442Y-116979D01*
X-165442Y-118979D01*
X-164609Y-120979D01*
X-162942Y-121979D01*
G54D10*
X-281021Y47529D02*
X-258846Y47529D01*
X-258846Y-3171D01*
X-281021Y-3171D01*
X-281021Y47529D01*
G54D10*
X-269934Y47729D02*
X-269934Y55629D01*
G54D10*
X-269934Y-3271D02*
X-269933Y-11171D01*
G54D14*
X-247675Y11087D02*
X-246009Y14087D01*
X-244342Y15087D01*
X-241009Y15087D01*
G54D14*
X-241009Y7087D02*
X-254342Y7087D01*
X-254342Y12087D01*
X-253509Y14087D01*
X-251842Y15087D01*
X-250175Y15087D01*
X-248509Y14087D01*
X-247675Y12087D01*
X-247675Y7087D01*
G54D14*
X-241009Y24754D02*
X-254342Y24754D01*
X-246009Y18754D01*
X-244342Y18754D01*
X-244342Y26754D01*
G54D14*
X-254342Y38421D02*
X-254342Y30421D01*
X-248509Y30421D01*
X-248509Y31421D01*
X-249342Y33421D01*
X-249342Y35421D01*
X-248509Y37421D01*
X-246842Y38421D01*
X-243509Y38421D01*
X-241842Y37421D01*
X-241009Y35421D01*
X-241009Y33421D01*
X-241842Y31421D01*
X-243509Y30421D01*
G54D14*
X-101309Y-145313D02*
X-101309Y-145313D01*
G54D10*
X-134786Y37340D02*
X-134786Y62740D01*
X-206386Y62740D01*
X-206386Y37340D01*
X-134786Y37340D01*
G54D14*
X-179441Y70632D02*
X-180441Y68965D01*
X-182441Y68132D01*
X-184441Y68132D01*
X-186441Y68965D01*
X-187441Y70632D01*
X-187441Y78965D01*
X-186441Y80632D01*
X-184441Y81465D01*
X-182441Y81465D01*
X-180441Y80632D01*
X-179441Y78965D01*
G54D14*
X-167774Y81465D02*
X-175774Y81465D01*
X-175774Y75632D01*
X-174774Y75632D01*
X-172774Y76465D01*
X-170774Y76465D01*
X-168774Y75632D01*
X-167774Y73965D01*
X-167774Y70632D01*
X-168774Y68965D01*
X-170774Y68132D01*
X-172774Y68132D01*
X-174774Y68965D01*
X-175774Y70632D01*
G54D14*
X-159107Y74798D02*
X-161107Y74798D01*
X-163107Y75632D01*
X-164107Y77298D01*
X-164107Y78965D01*
X-163107Y80632D01*
X-161107Y81465D01*
X-159107Y81465D01*
X-157107Y80632D01*
X-156107Y78965D01*
X-156107Y77298D01*
X-157107Y75632D01*
X-159107Y74798D01*
X-157107Y73965D01*
X-156107Y72298D01*
X-156107Y70632D01*
X-157107Y68965D01*
X-159107Y68132D01*
X-161107Y68132D01*
X-163107Y68965D01*
X-164107Y70632D01*
X-164107Y72298D01*
X-163107Y73965D01*
X-161107Y74798D01*
G54D10*
X-90521Y-104871D02*
X-68346Y-104871D01*
X-68346Y-155571D01*
X-90521Y-155571D01*
X-90521Y-104871D01*
G54D10*
X-79434Y-104671D02*
X-79434Y-96771D01*
G54D10*
X-79434Y-155671D02*
X-79434Y-163571D01*
G54D14*
X-57175Y-141313D02*
X-55509Y-138313D01*
X-53842Y-137313D01*
X-50509Y-137313D01*
G54D14*
X-50509Y-145313D02*
X-63842Y-145313D01*
X-63842Y-140313D01*
X-63009Y-138313D01*
X-61342Y-137313D01*
X-59675Y-137313D01*
X-58009Y-138313D01*
X-57175Y-140313D01*
X-57175Y-145313D01*
G54D14*
X-50509Y-127646D02*
X-63842Y-127646D01*
X-55509Y-133646D01*
X-53842Y-133646D01*
X-53842Y-125646D01*
G54D14*
X-61342Y-113979D02*
X-63009Y-114979D01*
X-63842Y-116979D01*
X-63842Y-118979D01*
X-63009Y-120979D01*
X-61342Y-121979D01*
X-57175Y-121979D01*
X-56342Y-121979D01*
X-58009Y-118979D01*
X-58009Y-116979D01*
X-57175Y-114979D01*
X-55509Y-113979D01*
X-53009Y-113979D01*
X-51342Y-114979D01*
X-50509Y-116979D01*
X-50509Y-118979D01*
X-51342Y-120979D01*
X-53009Y-121979D01*
X-57175Y-121979D01*
G54D10*
X-134081Y-194556D02*
X-134081Y-219956D01*
X-62481Y-219956D01*
X-62481Y-194556D01*
X-134081Y-194556D01*
G54D14*
X-89425Y-227848D02*
X-88425Y-226181D01*
X-86425Y-225348D01*
X-84425Y-225348D01*
X-82425Y-226181D01*
X-81425Y-227848D01*
X-81425Y-236181D01*
X-82425Y-237848D01*
X-84425Y-238681D01*
X-86425Y-238681D01*
X-88425Y-237848D01*
X-89425Y-236181D01*
G54D14*
X-101092Y-238681D02*
X-93092Y-238681D01*
X-93092Y-232848D01*
X-94092Y-232848D01*
X-96092Y-233681D01*
X-98092Y-233681D01*
X-100092Y-232848D01*
X-101092Y-231181D01*
X-101092Y-227848D01*
X-100092Y-226181D01*
X-98092Y-225348D01*
X-96092Y-225348D01*
X-94092Y-226181D01*
X-93092Y-227848D01*
G54D14*
X-104759Y-227848D02*
X-105759Y-226181D01*
X-107759Y-225348D01*
X-109759Y-225348D01*
X-111759Y-226181D01*
X-112759Y-227848D01*
X-112759Y-232014D01*
X-112759Y-232848D01*
X-109759Y-231181D01*
X-107759Y-231181D01*
X-105759Y-232014D01*
X-104759Y-233681D01*
X-104759Y-236181D01*
X-105759Y-237848D01*
X-107759Y-238681D01*
X-109759Y-238681D01*
X-111759Y-237848D01*
X-112759Y-236181D01*
X-112759Y-232014D01*
G54D10*
X-191173Y-189006D02*
X-191173Y-211181D01*
X-241873Y-211181D01*
X-241873Y-189006D01*
X-191173Y-189006D01*
G54D10*
X-190973Y-200094D02*
X-183073Y-200094D01*
G54D10*
X-241973Y-200094D02*
X-249873Y-200094D01*
G54D14*
X-227615Y-222352D02*
X-224615Y-224019D01*
X-223615Y-225685D01*
X-223615Y-229019D01*
G54D14*
X-231615Y-229019D02*
X-231615Y-215685D01*
X-226615Y-215685D01*
X-224615Y-216519D01*
X-223615Y-218185D01*
X-223615Y-219852D01*
X-224615Y-221519D01*
X-226615Y-222352D01*
X-231615Y-222352D01*
G54D14*
X-213948Y-229019D02*
X-213948Y-215685D01*
X-219948Y-224019D01*
X-219948Y-225685D01*
X-211948Y-225685D01*
G54D14*
X-208281Y-218185D02*
X-207281Y-216519D01*
X-205281Y-215685D01*
X-203281Y-215685D01*
X-201281Y-216519D01*
X-200281Y-218185D01*
X-200281Y-219852D01*
X-201281Y-221519D01*
X-203281Y-222352D01*
X-201281Y-223185D01*
X-200281Y-224852D01*
X-200281Y-226519D01*
X-201281Y-228185D01*
X-203281Y-229019D01*
X-205281Y-229019D01*
X-207281Y-228185D01*
X-208281Y-226519D01*
G54D10*
X-287186Y-165860D02*
X-287186Y-140460D01*
X-358786Y-140460D01*
X-358786Y-165860D01*
X-287186Y-165860D01*
G54D14*
X-331841Y-132568D02*
X-332841Y-134235D01*
X-334841Y-135068D01*
X-336841Y-135068D01*
X-338841Y-134235D01*
X-339841Y-132568D01*
X-339841Y-124235D01*
X-338841Y-122568D01*
X-336841Y-121735D01*
X-334841Y-121735D01*
X-332841Y-122568D01*
X-331841Y-124235D01*
G54D14*
X-320174Y-121735D02*
X-328174Y-121735D01*
X-328174Y-127568D01*
X-327174Y-127568D01*
X-325174Y-126735D01*
X-323174Y-126735D01*
X-321174Y-127568D01*
X-320174Y-129235D01*
X-320174Y-132568D01*
X-321174Y-134235D01*
X-323174Y-135068D01*
X-325174Y-135068D01*
X-327174Y-134235D01*
X-328174Y-132568D01*
G54D14*
X-316507Y-121735D02*
X-308507Y-121735D01*
X-309507Y-123402D01*
X-311507Y-125902D01*
X-313507Y-129235D01*
X-314507Y-131735D01*
X-314507Y-135068D01*
G54D10*
X-287186Y-216660D02*
X-287186Y-191260D01*
X-358786Y-191260D01*
X-358786Y-216660D01*
X-287186Y-216660D01*
G54D14*
X-331841Y-183368D02*
X-332841Y-185035D01*
X-334841Y-185868D01*
X-336841Y-185868D01*
X-338841Y-185035D01*
X-339841Y-183368D01*
X-339841Y-175035D01*
X-338841Y-173368D01*
X-336841Y-172535D01*
X-334841Y-172535D01*
X-332841Y-173368D01*
X-331841Y-175035D01*
G54D14*
X-320174Y-175035D02*
X-321174Y-173368D01*
X-323174Y-172535D01*
X-325174Y-172535D01*
X-327174Y-173368D01*
X-328174Y-175035D01*
X-328174Y-179202D01*
X-328174Y-180035D01*
X-325174Y-178368D01*
X-323174Y-178368D01*
X-321174Y-179202D01*
X-320174Y-180868D01*
X-320174Y-183368D01*
X-321174Y-185035D01*
X-323174Y-185868D01*
X-325174Y-185868D01*
X-327174Y-185035D01*
X-328174Y-183368D01*
X-328174Y-179202D01*
G54D14*
X-308507Y-175035D02*
X-308507Y-183368D01*
X-309507Y-185035D01*
X-311507Y-185868D01*
X-313507Y-185868D01*
X-315507Y-185035D01*
X-316507Y-183368D01*
X-316507Y-175035D01*
X-315507Y-173368D01*
X-313507Y-172535D01*
X-311507Y-172535D01*
X-309507Y-173368D01*
X-308507Y-175035D01*
G54D10*
X-304088Y-263400D02*
X-311688Y-263400D01*
G54D10*
X-307888Y-267200D02*
X-307888Y-259600D01*
G54D10*
G75*
G01X-285544Y-276100D02*
G03X-285544Y-276100I-39850J0D01*
G01*
G54D15*
X-272094Y-304600D02*
X-272094Y-304600D01*
G54D15*
X-284794Y-310500D02*
X-284794Y-310500D01*
G54D10*
X-191173Y-252506D02*
X-191173Y-274681D01*
X-241873Y-274681D01*
X-241873Y-252506D01*
X-191173Y-252506D01*
G54D10*
X-190973Y-263594D02*
X-183073Y-263594D01*
G54D10*
X-241973Y-263594D02*
X-249873Y-263594D01*
G54D14*
X-227615Y-285852D02*
X-224615Y-287519D01*
X-223615Y-289185D01*
X-223615Y-292519D01*
G54D14*
X-231615Y-292519D02*
X-231615Y-279185D01*
X-226615Y-279185D01*
X-224615Y-280019D01*
X-223615Y-281685D01*
X-223615Y-283352D01*
X-224615Y-285019D01*
X-226615Y-285852D01*
X-231615Y-285852D01*
G54D14*
X-213948Y-292519D02*
X-213948Y-279185D01*
X-219948Y-287519D01*
X-219948Y-289185D01*
X-211948Y-289185D01*
G54D14*
X-208281Y-279185D02*
X-200281Y-279185D01*
X-201281Y-280852D01*
X-203281Y-283352D01*
X-205281Y-286685D01*
X-206281Y-289185D01*
X-206281Y-292519D01*
G54D10*
X-148400Y-300950D02*
X-131000Y-300950D01*
X-131000Y-270550D01*
X-148400Y-270550D01*
X-148400Y-300950D01*
G36*
X-148300Y-300850D02*
X-131600Y-300850D01*
X-131600Y-293650D01*
X-148300Y-293650D01*
X-148300Y-300850D01*
G37*
G54D13*
X-148300Y-300850D02*
X-131600Y-300850D01*
X-131600Y-293650D01*
X-148300Y-293650D01*
X-148300Y-300850D01*
G54D10*
X4914Y-267460D02*
X4914Y-242060D01*
X-66686Y-242060D01*
X-66686Y-267460D01*
X4914Y-267460D01*
G54D14*
X-39742Y-234168D02*
X-40742Y-235835D01*
X-42742Y-236668D01*
X-44742Y-236668D01*
X-46742Y-235835D01*
X-47742Y-234168D01*
X-47742Y-225835D01*
X-46742Y-224168D01*
X-44742Y-223335D01*
X-42742Y-223335D01*
X-40742Y-224168D01*
X-39742Y-225835D01*
G54D14*
X-28074Y-225835D02*
X-29074Y-224168D01*
X-31074Y-223335D01*
X-33074Y-223335D01*
X-35074Y-224168D01*
X-36074Y-225835D01*
X-36074Y-230002D01*
X-36074Y-230835D01*
X-33074Y-229168D01*
X-31074Y-229168D01*
X-29074Y-230002D01*
X-28074Y-231668D01*
X-28074Y-234168D01*
X-29074Y-235835D01*
X-31074Y-236668D01*
X-33074Y-236668D01*
X-35074Y-235835D01*
X-36074Y-234168D01*
X-36074Y-230002D01*
G54D14*
X-16408Y-225835D02*
X-17408Y-224168D01*
X-19408Y-223335D01*
X-21408Y-223335D01*
X-23408Y-224168D01*
X-24408Y-225835D01*
X-24408Y-230002D01*
X-24408Y-230835D01*
X-21408Y-229168D01*
X-19408Y-229168D01*
X-17408Y-230002D01*
X-16408Y-231668D01*
X-16408Y-234168D01*
X-17408Y-235835D01*
X-19408Y-236668D01*
X-21408Y-236668D01*
X-23408Y-235835D01*
X-24408Y-234168D01*
X-24408Y-230002D01*
G54D10*
X-26073Y64994D02*
X-26073Y42819D01*
X-76773Y42819D01*
X-76773Y64994D01*
X-26073Y64994D01*
G54D10*
X-25873Y53906D02*
X-17973Y53906D01*
G54D10*
X-76873Y53906D02*
X-84773Y53906D01*
G54D14*
X-62515Y31648D02*
X-59515Y29981D01*
X-58515Y28314D01*
X-58515Y24981D01*
G54D14*
X-66515Y24981D02*
X-66515Y38314D01*
X-61515Y38314D01*
X-59515Y37481D01*
X-58515Y35814D01*
X-58515Y34148D01*
X-59515Y32481D01*
X-61515Y31648D01*
X-66515Y31648D01*
G54D14*
X-48848Y24981D02*
X-48848Y38314D01*
X-54848Y29981D01*
X-54848Y28314D01*
X-46848Y28314D01*
G54D14*
X-38181Y31648D02*
X-40181Y31648D01*
X-42181Y32481D01*
X-43181Y34148D01*
X-43181Y35814D01*
X-42181Y37481D01*
X-40181Y38314D01*
X-38181Y38314D01*
X-36181Y37481D01*
X-35181Y35814D01*
X-35181Y34148D01*
X-36181Y32481D01*
X-38181Y31648D01*
X-36181Y30814D01*
X-35181Y29148D01*
X-35181Y27481D01*
X-36181Y25814D01*
X-38181Y24981D01*
X-40181Y24981D01*
X-42181Y25814D01*
X-43181Y27481D01*
X-43181Y29148D01*
X-42181Y30814D01*
X-40181Y31648D01*
G54D10*
X213400Y8700D02*
X213400Y-8700D01*
X243800Y-8700D01*
X243800Y8700D01*
X213400Y8700D01*
G36*
X213500Y8600D02*
X213500Y-8100D01*
X220700Y-8100D01*
X220700Y8600D01*
X213500Y8600D01*
G37*
G54D13*
X213500Y8600D02*
X213500Y-8100D01*
X220700Y-8100D01*
X220700Y8600D01*
X213500Y8600D01*
G54D10*
X202400Y0D02*
X213500Y0D01*
G54D10*
X243700Y0D02*
X254800Y0D01*
G54D15*
X206900Y35450D02*
X206900Y35450D01*
G54D15*
X181500Y15950D02*
X181500Y15950D01*
G54D10*
X409746Y-21166D02*
X435146Y-21166D01*
X435146Y50434D01*
X409746Y50434D01*
X409746Y-21166D01*
G54D14*
X443037Y23489D02*
X441371Y24489D01*
X440537Y26489D01*
X440537Y28489D01*
X441371Y30489D01*
X443037Y31489D01*
X451371Y31489D01*
X453037Y30489D01*
X453871Y28489D01*
X453871Y26489D01*
X453037Y24489D01*
X451371Y23489D01*
G54D14*
X451371Y11822D02*
X453037Y12822D01*
X453871Y14822D01*
X453871Y16822D01*
X453037Y18822D01*
X451371Y19822D01*
X447204Y19822D01*
X446371Y19822D01*
X448037Y16822D01*
X448037Y14822D01*
X447204Y12822D01*
X445537Y11822D01*
X443037Y11822D01*
X441371Y12822D01*
X440537Y14822D01*
X440537Y16822D01*
X441371Y18822D01*
X443037Y19822D01*
X447204Y19822D01*
G54D14*
X453871Y155D02*
X453871Y8155D01*
X448037Y8155D01*
X448037Y7155D01*
X448871Y5155D01*
X448871Y3155D01*
X448037Y1155D01*
X446371Y155D01*
X443037Y155D01*
X441371Y1155D01*
X440537Y3155D01*
X440537Y5155D01*
X441371Y7155D01*
X443037Y8155D01*
G54D10*
X-37536Y-211606D02*
X-12136Y-211606D01*
X-12136Y-140006D01*
X-37536Y-140006D01*
X-37536Y-211606D01*
G54D14*
X-4244Y-166950D02*
X-5911Y-165950D01*
X-6744Y-163950D01*
X-6744Y-161950D01*
X-5911Y-159950D01*
X-4244Y-158950D01*
X4089Y-158950D01*
X5756Y-159950D01*
X6589Y-161950D01*
X6589Y-163950D01*
X5756Y-165950D01*
X4089Y-166950D01*
G54D14*
X4089Y-178617D02*
X5756Y-177617D01*
X6589Y-175617D01*
X6589Y-173617D01*
X5756Y-171617D01*
X4089Y-170617D01*
X-78Y-170617D01*
X-911Y-170617D01*
X756Y-173617D01*
X756Y-175617D01*
X-78Y-177617D01*
X-1744Y-178617D01*
X-4244Y-178617D01*
X-5911Y-177617D01*
X-6744Y-175617D01*
X-6744Y-173617D01*
X-5911Y-171617D01*
X-4244Y-170617D01*
X-78Y-170617D01*
G54D14*
X-6744Y-190284D02*
X-6744Y-182284D01*
X-5911Y-182284D01*
X-4244Y-183284D01*
X756Y-189284D01*
X2422Y-190284D01*
X4089Y-190284D01*
X5756Y-189284D01*
X6589Y-187284D01*
X6589Y-185284D01*
X5756Y-183284D01*
X4089Y-182284D01*
G54D16*
X297200Y34514D02*
X303200Y18514D01*
X309200Y34514D01*
G54D16*
X313600Y18514D02*
X313600Y34514D01*
G54D16*
X318000Y18514D02*
X318000Y34514D01*
X327600Y18514D01*
X327600Y34514D01*
G54D10*
X287404Y40688D02*
X287404Y66088D01*
X338204Y66088D01*
X338204Y40688D01*
X287404Y40688D01*
G54D16*
X286421Y53917D02*
X280070Y53917D01*
G54D16*
X280070Y45980D02*
X280071Y61855D01*
G54D16*
X276896Y59474D02*
X276896Y48361D01*
G54D16*
X273721Y51536D02*
X273721Y56298D01*
G54D10*
X356164Y-8406D02*
X381564Y-8406D01*
X381564Y63194D01*
X356164Y63194D01*
X356164Y-8406D01*
G54D14*
X389456Y36250D02*
X387789Y37250D01*
X386956Y39250D01*
X386956Y41250D01*
X387789Y43250D01*
X389456Y44250D01*
X397789Y44250D01*
X399456Y43250D01*
X400289Y41250D01*
X400289Y39250D01*
X399456Y37250D01*
X397789Y36250D01*
G54D14*
X397789Y24583D02*
X399456Y25583D01*
X400289Y27583D01*
X400289Y29583D01*
X399456Y31583D01*
X397789Y32583D01*
X393623Y32583D01*
X392789Y32583D01*
X394456Y29583D01*
X394456Y27583D01*
X393623Y25583D01*
X391956Y24583D01*
X389456Y24583D01*
X387789Y25583D01*
X386956Y27583D01*
X386956Y29583D01*
X387789Y31583D01*
X389456Y32583D01*
X393623Y32583D01*
G54D14*
X400289Y20916D02*
X400289Y12916D01*
X398623Y13916D01*
X396123Y15916D01*
X392789Y17916D01*
X390289Y18916D01*
X386956Y18916D01*
G54D10*
X106515Y37339D02*
X106515Y62740D01*
X34915Y62739D01*
X34915Y37339D01*
X106515Y37339D01*
G54D14*
X61859Y70631D02*
X60859Y68964D01*
X58859Y68131D01*
X56859Y68131D01*
X54859Y68964D01*
X53859Y70631D01*
X53859Y78964D01*
X54859Y80631D01*
X56859Y81464D01*
X58859Y81464D01*
X60859Y80631D01*
X61859Y78964D01*
G54D14*
X73526Y78964D02*
X72526Y80631D01*
X70526Y81464D01*
X68526Y81464D01*
X66526Y80631D01*
X65526Y78964D01*
X65526Y74798D01*
X65526Y73964D01*
X68526Y75631D01*
X70526Y75631D01*
X72526Y74798D01*
X73526Y73131D01*
X73526Y70631D01*
X72526Y68964D01*
X70526Y68131D01*
X68526Y68131D01*
X66526Y68964D01*
X65526Y70631D01*
X65526Y74798D01*
G54D14*
X83193Y68131D02*
X83193Y81464D01*
X77193Y73131D01*
X77193Y71464D01*
X85193Y71464D01*
G54D10*
X79400Y-171500D02*
X98400Y-171500D01*
X98400Y-209500D01*
X79400Y-209500D01*
X79400Y-171500D01*
G54D10*
X88900Y-171400D02*
X88900Y-150800D01*
G54D10*
X88900Y-230200D02*
X88900Y-209600D01*
G54D17*
X104060Y-188384D02*
X104060Y-199940D01*
X110126Y-199940D01*
G54D17*
X105650Y-129700D02*
X105650Y-129700D01*
G54D10*
X25964Y-211606D02*
X51364Y-211606D01*
X51364Y-140006D01*
X25964Y-140006D01*
X25964Y-211606D01*
G54D14*
X59256Y-166950D02*
X57589Y-165950D01*
X56756Y-163950D01*
X56756Y-161950D01*
X57589Y-159950D01*
X59256Y-158950D01*
X67589Y-158950D01*
X69256Y-159950D01*
X70089Y-161950D01*
X70089Y-163950D01*
X69256Y-165950D01*
X67589Y-166950D01*
G54D14*
X67589Y-178617D02*
X69256Y-177617D01*
X70089Y-175617D01*
X70089Y-173617D01*
X69256Y-171617D01*
X67589Y-170617D01*
X63422Y-170617D01*
X62589Y-170617D01*
X64256Y-173617D01*
X64256Y-175617D01*
X63422Y-177617D01*
X61756Y-178617D01*
X59256Y-178617D01*
X57589Y-177617D01*
X56756Y-175617D01*
X56756Y-173617D01*
X57589Y-171617D01*
X59256Y-170617D01*
X63422Y-170617D01*
G54D14*
X67589Y-182284D02*
X69256Y-183284D01*
X70089Y-185284D01*
X70089Y-187284D01*
X69256Y-189284D01*
X67589Y-190284D01*
X65922Y-190284D01*
X64256Y-189284D01*
X63422Y-187284D01*
X62589Y-189284D01*
X60922Y-190284D01*
X59256Y-190284D01*
X57589Y-189284D01*
X56756Y-187284D01*
X56756Y-185284D01*
X57589Y-183284D01*
X59256Y-182284D01*
G54D18*
X-54000Y-5311D02*
X-51333Y-4200D01*
X-48133Y-4200D01*
X-46000Y-6422D01*
X-46000Y-14200D01*
G54D18*
X-46000Y-10867D02*
X-47333Y-8644D01*
X-50000Y-8200D01*
X-52667Y-8644D01*
X-54000Y-10867D01*
X-53467Y-13089D01*
X-51333Y-14200D01*
X-50000Y-14200D01*
X-49467Y-14200D01*
X-47333Y-13089D01*
X-46000Y-10867D01*
G54D18*
X-54000Y-90400D02*
X-54000Y-72622D01*
G54D18*
X-54000Y-83289D02*
X-52667Y-81067D01*
X-50000Y-80400D01*
X-47333Y-81067D01*
X-46000Y-83289D01*
X-46000Y-87733D01*
X-47333Y-89956D01*
X-50000Y-90400D01*
X-52667Y-89956D01*
X-54000Y-87733D01*
G54D18*
X117767Y7833D02*
X115100Y8500D01*
X112433Y7833D01*
X111100Y5611D01*
X111100Y1167D01*
X112433Y-1056D01*
X115100Y-1500D01*
X117767Y-1056D01*
G54D18*
X119100Y-90400D02*
X119100Y-72622D01*
G54D18*
X119100Y-83289D02*
X117767Y-81067D01*
X115100Y-80400D01*
X112433Y-81067D01*
X111100Y-83289D01*
X111100Y-87733D01*
X112433Y-89956D01*
X115100Y-90400D01*
X117767Y-89956D01*
X119100Y-87733D01*
G54D18*
X276200Y-183111D02*
X278867Y-182000D01*
X282067Y-182000D01*
X284200Y-184222D01*
X284200Y-192000D01*
G54D18*
X284200Y-188667D02*
X282867Y-186444D01*
X280200Y-186000D01*
X277533Y-186444D01*
X276200Y-188667D01*
X276733Y-190889D01*
X278867Y-192000D01*
X280200Y-192000D01*
X280733Y-192000D01*
X282867Y-190889D01*
X284200Y-188667D01*
G54D18*
X270800Y-54211D02*
X273467Y-53100D01*
X276667Y-53100D01*
X278800Y-55322D01*
X278800Y-63100D01*
G54D18*
X278800Y-59767D02*
X277467Y-57544D01*
X274800Y-57100D01*
X272133Y-57544D01*
X270800Y-59767D01*
X271333Y-61989D01*
X273467Y-63100D01*
X274800Y-63100D01*
X275333Y-63100D01*
X277467Y-61989D01*
X278800Y-59767D01*
G54D18*
X283689Y-51989D02*
X290356Y-45322D01*
X290356Y-63100D01*
G54D18*
X337800Y-63100D02*
X337800Y-45322D01*
G54D18*
X337800Y-55989D02*
X339133Y-53767D01*
X341800Y-53100D01*
X344467Y-53767D01*
X345800Y-55989D01*
X345800Y-60433D01*
X344467Y-62656D01*
X341800Y-63100D01*
X339133Y-62656D01*
X337800Y-60433D01*
G54D18*
X350689Y-51989D02*
X357356Y-45322D01*
X357356Y-63100D01*
G54D18*
X365100Y-204700D02*
X365100Y-186922D01*
G54D18*
X365100Y-197589D02*
X366433Y-195367D01*
X369100Y-194700D01*
X371767Y-195367D01*
X373100Y-197589D01*
X373100Y-202033D01*
X371767Y-204256D01*
X369100Y-204700D01*
X366433Y-204256D01*
X365100Y-202033D01*
G54D18*
X319633Y-264867D02*
X326300Y-268200D01*
G54D18*
X324967Y-253756D02*
X324967Y-264867D01*
X323633Y-267089D01*
X320967Y-268200D01*
X318300Y-268200D01*
X315633Y-267089D01*
X314300Y-264867D01*
X314300Y-253756D01*
X315633Y-251533D01*
X318300Y-250422D01*
X320967Y-250422D01*
X323633Y-251533D01*
X324967Y-253756D01*
G54D18*
X336522Y-259311D02*
X340522Y-261533D01*
X341856Y-263756D01*
X341856Y-268200D01*
G54D18*
X331189Y-268200D02*
X331189Y-250422D01*
X337856Y-250422D01*
X340522Y-251533D01*
X341856Y-253756D01*
X341856Y-255978D01*
X340522Y-258200D01*
X337856Y-259311D01*
X331189Y-259311D01*
G54D18*
X346745Y-268200D02*
X346745Y-250422D01*
X353412Y-250422D01*
X356078Y-251533D01*
X357412Y-253756D01*
X357412Y-255978D01*
X356078Y-258200D01*
X353412Y-259311D01*
X346745Y-259311D01*
G54D18*
X367457Y-260422D02*
X378124Y-260422D01*
G54D18*
X388169Y-268200D02*
X388169Y-250422D01*
X394836Y-250422D01*
X397502Y-251533D01*
X398836Y-253756D01*
X398836Y-255978D01*
X397502Y-258200D01*
X394836Y-259311D01*
X388169Y-259311D01*
G54D18*
X403725Y-268200D02*
X410392Y-250422D01*
X417058Y-268200D01*
G54D18*
X406392Y-261533D02*
X414392Y-261533D01*
G54D18*
X421967Y-83956D02*
X421967Y-95066D01*
X420634Y-97289D01*
X417967Y-98400D01*
X415300Y-98400D01*
X412634Y-97289D01*
X411300Y-95066D01*
X411300Y-83956D01*
X412634Y-81733D01*
X415300Y-80622D01*
X417967Y-80622D01*
X420634Y-81733D01*
X421967Y-83956D01*
G54D18*
X426856Y-80622D02*
X426856Y-95066D01*
X428190Y-97289D01*
X430856Y-98400D01*
X433523Y-98400D01*
X436190Y-97289D01*
X437523Y-95066D01*
X437523Y-80622D01*
G54D18*
X447746Y-98400D02*
X447746Y-80622D01*
G54D18*
X442412Y-80622D02*
X453079Y-80622D01*
G54D10*
X-141321Y-104871D02*
X-119146Y-104871D01*
X-119146Y-155571D01*
X-141321Y-155571D01*
X-141321Y-104871D01*
G54D10*
X-130234Y-104671D02*
X-130234Y-96771D01*
G54D10*
X-130234Y-155671D02*
X-130233Y-163571D01*
G54D14*
X-107975Y-141313D02*
X-106309Y-138313D01*
X-104642Y-137313D01*
X-101309Y-137313D01*
G54D14*
X-101309Y-145313D02*
X-114642Y-145313D01*
X-114642Y-140313D01*
X-113809Y-138313D01*
X-112142Y-137313D01*
X-110475Y-137313D01*
X-108809Y-138313D01*
X-107975Y-140313D01*
X-107975Y-145313D01*
G54D14*
X-101309Y-127646D02*
X-114642Y-127646D01*
X-106309Y-133646D01*
X-104642Y-133646D01*
X-104642Y-125646D01*
G54D14*
X-101309Y-115979D02*
X-114642Y-115979D01*
X-106309Y-121979D01*
X-104642Y-121979D01*
X-104642Y-113979D01*
G54D14*
X-401600Y-291100D02*
X-402600Y-292767D01*
X-404600Y-293600D01*
X-406600Y-293600D01*
X-408600Y-292767D01*
X-409600Y-291100D01*
X-409600Y-282767D01*
X-408600Y-281100D01*
X-406600Y-280267D01*
X-404600Y-280267D01*
X-402600Y-281100D01*
X-401600Y-282767D01*
G54D14*
X-389933Y-282767D02*
X-390933Y-281100D01*
X-392933Y-280267D01*
X-394933Y-280267D01*
X-396933Y-281100D01*
X-397933Y-282767D01*
X-397933Y-286933D01*
X-397933Y-287767D01*
X-394933Y-286100D01*
X-392933Y-286100D01*
X-390933Y-286933D01*
X-389933Y-288600D01*
X-389933Y-291100D01*
X-390933Y-292767D01*
X-392933Y-293600D01*
X-394933Y-293600D01*
X-396933Y-292767D01*
X-397933Y-291100D01*
X-397933Y-286933D01*
G54D14*
X-386266Y-285267D02*
X-381266Y-280267D01*
X-381266Y-293600D01*
G54D14*
X-117500Y-293600D02*
X-117500Y-280267D01*
X-112500Y-280267D01*
X-110500Y-281100D01*
X-109500Y-282767D01*
X-109500Y-291100D01*
X-110500Y-292767D01*
X-112500Y-293600D01*
X-117500Y-293600D01*
G54D14*
X-105833Y-291100D02*
X-104833Y-292767D01*
X-102833Y-293600D01*
X-100833Y-293600D01*
X-98833Y-292767D01*
X-97833Y-291100D01*
X-97833Y-286933D01*
X-97833Y-286100D01*
X-100833Y-287767D01*
X-102833Y-287767D01*
X-104833Y-286933D01*
X-105833Y-285267D01*
X-105833Y-282767D01*
X-104833Y-281100D01*
X-102833Y-280267D01*
X-100833Y-280267D01*
X-98833Y-281100D01*
X-97833Y-282767D01*
X-97833Y-286933D01*
G54D14*
X23083Y-36117D02*
X23083Y-49450D01*
X30083Y-49450D01*
G54D14*
X38750Y-42783D02*
X36750Y-42783D01*
X34750Y-41950D01*
X33750Y-40283D01*
X33750Y-38617D01*
X34750Y-36950D01*
X36750Y-36117D01*
X38750Y-36117D01*
X40750Y-36950D01*
X41750Y-38617D01*
X41750Y-40283D01*
X40750Y-41950D01*
X38750Y-42783D01*
X40750Y-43617D01*
X41750Y-45283D01*
X41750Y-46950D01*
X40750Y-48617D01*
X38750Y-49450D01*
X36750Y-49450D01*
X34750Y-48617D01*
X33750Y-46950D01*
X33750Y-45283D01*
X34750Y-43617D01*
X36750Y-42783D01*
G54D14*
X316873Y-110569D02*
X316873Y-123902D01*
X323873Y-123902D01*
G54D14*
X327540Y-121402D02*
X328540Y-123069D01*
X330540Y-123902D01*
X332540Y-123902D01*
X334540Y-123069D01*
X335540Y-121402D01*
X335540Y-117235D01*
X335540Y-116402D01*
X332540Y-118069D01*
X330540Y-118069D01*
X328540Y-117235D01*
X327540Y-115569D01*
X327540Y-113069D01*
X328540Y-111402D01*
X330540Y-110569D01*
X332540Y-110569D01*
X334540Y-111402D01*
X335540Y-113069D01*
X335540Y-117235D01*
G54D14*
X212700Y23900D02*
X212700Y37233D01*
X217700Y37233D01*
X219700Y36400D01*
X220700Y34733D01*
X220700Y26400D01*
X219700Y24733D01*
X217700Y23900D01*
X212700Y23900D01*
G54D14*
X224367Y32233D02*
X229367Y37233D01*
X229367Y23900D01*
G54D14*
X241034Y34733D02*
X241034Y26400D01*
X240034Y24733D01*
X238034Y23900D01*
X236034Y23900D01*
X234034Y24733D01*
X233034Y26400D01*
X233034Y34733D01*
X234034Y36400D01*
X236034Y37233D01*
X238034Y37233D01*
X240034Y36400D01*
X241034Y34733D01*
G54D10*
X-691775Y-22179D02*
X-713950Y-22179D01*
X-713950Y28521D01*
X-691775Y28521D01*
X-691775Y-22179D01*
G54D10*
X-702862Y-22379D02*
X-702862Y-30279D01*
G54D10*
X-702862Y28621D02*
X-702863Y36521D01*
G54D14*
X-725120Y12095D02*
X-726787Y10095D01*
X-728454Y9429D01*
X-731787Y9429D01*
G54D14*
X-731787Y14762D02*
X-718454Y14762D01*
X-718454Y11429D01*
X-719287Y10095D01*
X-720954Y9429D01*
X-722620Y9429D01*
X-724287Y10095D01*
X-725120Y11429D01*
X-725120Y14762D01*
G54D14*
X-731787Y429D02*
X-731787Y5762D01*
X-730954Y5762D01*
X-729287Y5095D01*
X-724287Y1095D01*
X-722620Y429D01*
X-720954Y429D01*
X-719287Y1095D01*
X-718454Y2429D01*
X-718454Y3762D01*
X-719287Y5095D01*
X-720954Y5762D01*
G54D10*
X-771081Y-28160D02*
X-796481Y-28160D01*
X-796481Y-99760D01*
X-771081Y-99760D01*
X-771081Y-28160D01*
G54D14*
X-804372Y-72816D02*
X-802706Y-73816D01*
X-801872Y-75816D01*
X-801872Y-77816D01*
X-802706Y-79816D01*
X-804372Y-80816D01*
X-812706Y-80816D01*
X-814372Y-79816D01*
X-815206Y-77816D01*
X-815206Y-75816D01*
X-814372Y-73816D01*
X-812706Y-72816D01*
G54D14*
X-810206Y-69149D02*
X-815206Y-64149D01*
X-801872Y-64149D01*
G54D10*
X-656781Y-53560D02*
X-682182Y-53560D01*
X-682181Y-125160D01*
X-656781Y-125160D01*
X-656781Y-53560D01*
G54D14*
X-690073Y-98216D02*
X-688406Y-99216D01*
X-687573Y-101216D01*
X-687573Y-103216D01*
X-688406Y-105216D01*
X-690073Y-106216D01*
X-698406Y-106216D01*
X-700073Y-105216D01*
X-700906Y-103216D01*
X-700906Y-101216D01*
X-700073Y-99216D01*
X-698406Y-98216D01*
G54D14*
X-687573Y-86549D02*
X-687573Y-94549D01*
X-688406Y-94549D01*
X-690073Y-93549D01*
X-695073Y-87549D01*
X-696740Y-86549D01*
X-698406Y-86549D01*
X-700073Y-87549D01*
X-700906Y-89549D01*
X-700906Y-91549D01*
X-700073Y-93549D01*
X-698406Y-94549D01*
G54D10*
X-691759Y-250779D02*
X-713934Y-250779D01*
X-713934Y-200079D01*
X-691759Y-200079D01*
X-691759Y-250779D01*
G54D10*
X-702846Y-250979D02*
X-702846Y-258879D01*
G54D10*
X-702846Y-199979D02*
X-702847Y-192079D01*
G54D14*
X-725105Y-214304D02*
X-726771Y-217304D01*
X-728438Y-218304D01*
X-731771Y-218304D01*
G54D14*
X-731771Y-210304D02*
X-718438Y-210304D01*
X-718438Y-215304D01*
X-719271Y-217304D01*
X-720938Y-218304D01*
X-722605Y-218304D01*
X-724271Y-217304D01*
X-725105Y-215304D01*
X-725105Y-210304D01*
G54D14*
X-723438Y-221971D02*
X-718438Y-226971D01*
X-731771Y-226971D01*
G54D10*
X-594980Y4185D02*
X-594980Y-17990D01*
X-645680Y-17990D01*
X-645680Y4185D01*
X-594980Y4185D01*
G54D10*
X-594780Y-6902D02*
X-586880Y-6902D01*
G54D10*
X-645780Y-6903D02*
X-653680Y-6903D01*
G54D14*
X-629254Y-29160D02*
X-627254Y-30827D01*
X-626588Y-32494D01*
X-626588Y-35827D01*
G54D14*
X-631921Y-35827D02*
X-631921Y-22494D01*
X-628588Y-22494D01*
X-627254Y-23327D01*
X-626588Y-24994D01*
X-626588Y-26660D01*
X-627254Y-28327D01*
X-628588Y-29160D01*
X-631921Y-29160D01*
G54D14*
X-622921Y-24994D02*
X-622254Y-23327D01*
X-620921Y-22494D01*
X-619588Y-22494D01*
X-618254Y-23327D01*
X-617588Y-24994D01*
X-617588Y-26660D01*
X-618254Y-28327D01*
X-619588Y-29160D01*
X-618254Y-29994D01*
X-617588Y-31660D01*
X-617588Y-33327D01*
X-618254Y-34994D01*
X-619588Y-35827D01*
X-620921Y-35827D01*
X-622254Y-34994D01*
X-622921Y-33327D01*
G54D10*
X-668371Y-200121D02*
X-646196Y-200121D01*
X-646196Y-250821D01*
X-668371Y-250821D01*
X-668371Y-200121D01*
G54D10*
X-657284Y-199921D02*
X-657284Y-192021D01*
G54D10*
X-657284Y-250921D02*
X-657283Y-258821D01*
G54D14*
X-635025Y-236563D02*
X-633359Y-233563D01*
X-631692Y-232563D01*
X-628359Y-232563D01*
G54D14*
X-628359Y-240563D02*
X-641692Y-240563D01*
X-641692Y-235563D01*
X-640859Y-233563D01*
X-639192Y-232563D01*
X-637525Y-232563D01*
X-635859Y-233563D01*
X-635025Y-235563D01*
X-635025Y-240563D01*
G54D14*
X-628359Y-222896D02*
X-641692Y-222896D01*
X-633359Y-228896D01*
X-631692Y-228896D01*
X-631692Y-220896D01*
G54D10*
X-513976Y-22180D02*
X-536150Y-22180D01*
X-536150Y28520D01*
X-513976Y28520D01*
X-513976Y-22180D01*
G54D10*
X-525063Y-22380D02*
X-525063Y-30280D01*
G54D10*
X-525063Y28620D02*
X-525063Y36520D01*
G54D14*
X-547321Y12094D02*
X-548988Y10094D01*
X-550654Y9428D01*
X-553988Y9428D01*
G54D14*
X-553988Y14761D02*
X-540654Y14761D01*
X-540654Y11428D01*
X-541488Y10094D01*
X-543154Y9428D01*
X-544821Y9428D01*
X-546488Y10094D01*
X-547321Y11428D01*
X-547321Y14761D01*
G54D14*
X-540654Y428D02*
X-540654Y5761D01*
X-546488Y5761D01*
X-546488Y5094D01*
X-545654Y3761D01*
X-545654Y2428D01*
X-546488Y1094D01*
X-548154Y428D01*
X-551488Y428D01*
X-553154Y1094D01*
X-553988Y2428D01*
X-553988Y3761D01*
X-553154Y5094D01*
X-551488Y5761D01*
G54D10*
X-566594Y-172212D02*
X-566594Y-146812D01*
X-638194Y-146812D01*
X-638194Y-172212D01*
X-566594Y-172212D01*
G54D14*
X-611250Y-138921D02*
X-612250Y-140587D01*
X-614250Y-141421D01*
X-616250Y-141421D01*
X-618250Y-140587D01*
X-619250Y-138921D01*
X-619250Y-130587D01*
X-618250Y-128921D01*
X-616250Y-128087D01*
X-614250Y-128087D01*
X-612250Y-128921D01*
X-611250Y-130587D01*
G54D14*
X-607583Y-130587D02*
X-606583Y-128921D01*
X-604583Y-128087D01*
X-602583Y-128087D01*
X-600583Y-128921D01*
X-599583Y-130587D01*
X-599583Y-132254D01*
X-600583Y-133921D01*
X-602582Y-134754D01*
X-600583Y-135587D01*
X-599583Y-137254D01*
X-599583Y-138921D01*
X-600583Y-140587D01*
X-602583Y-141421D01*
X-604582Y-141421D01*
X-606583Y-140587D01*
X-607583Y-138921D01*
G54D10*
X-541371Y-174721D02*
X-519196Y-174721D01*
X-519196Y-225421D01*
X-541371Y-225421D01*
X-541371Y-174721D01*
G54D10*
X-530284Y-174521D02*
X-530284Y-166621D01*
G54D10*
X-530284Y-225521D02*
X-530284Y-233421D01*
G54D14*
X-508025Y-211163D02*
X-506359Y-208163D01*
X-504692Y-207163D01*
X-501359Y-207163D01*
G54D14*
X-501359Y-215163D02*
X-514692Y-215163D01*
X-514692Y-210163D01*
X-513859Y-208163D01*
X-512192Y-207163D01*
X-510525Y-207163D01*
X-508859Y-208163D01*
X-508025Y-210163D01*
X-508025Y-215163D01*
G54D14*
X-512192Y-195496D02*
X-513859Y-196496D01*
X-514692Y-198496D01*
X-514692Y-200496D01*
X-513859Y-202496D01*
X-512192Y-203496D01*
X-508025Y-203496D01*
X-507192Y-203496D01*
X-508859Y-200496D01*
X-508859Y-198496D01*
X-508025Y-196496D01*
X-506359Y-195496D01*
X-503859Y-195496D01*
X-502192Y-196496D01*
X-501359Y-198496D01*
X-501359Y-200496D01*
X-502192Y-202496D01*
X-503859Y-203496D01*
X-508025Y-203496D01*
G54D10*
X-465171Y-174721D02*
X-442996Y-174721D01*
X-442996Y-225421D01*
X-465171Y-225421D01*
X-465171Y-174721D01*
G54D10*
X-454084Y-174521D02*
X-454084Y-166621D01*
G54D10*
X-454084Y-225521D02*
X-454084Y-233421D01*
G54D14*
X-431825Y-211163D02*
X-430159Y-208163D01*
X-428492Y-207163D01*
X-425159Y-207163D01*
G54D14*
X-425159Y-215163D02*
X-438492Y-215163D01*
X-438492Y-210163D01*
X-437659Y-208163D01*
X-435992Y-207163D01*
X-434325Y-207163D01*
X-432659Y-208163D01*
X-431825Y-210163D01*
X-431825Y-215163D01*
G54D14*
X-438492Y-203496D02*
X-438492Y-195496D01*
X-436825Y-196496D01*
X-434325Y-198496D01*
X-430992Y-200496D01*
X-428492Y-201496D01*
X-425159Y-201496D01*
G54D10*
X-414371Y-174721D02*
X-392196Y-174721D01*
X-392196Y-225421D01*
X-414371Y-225421D01*
X-414371Y-174721D01*
G54D10*
X-403284Y-174521D02*
X-403284Y-166621D01*
G54D10*
X-403284Y-225521D02*
X-403284Y-233421D01*
G54D14*
X-381025Y-211163D02*
X-379359Y-208163D01*
X-377692Y-207163D01*
X-374359Y-207163D01*
G54D14*
X-374359Y-215163D02*
X-387692Y-215163D01*
X-387692Y-210163D01*
X-386859Y-208163D01*
X-385192Y-207163D01*
X-383525Y-207163D01*
X-381859Y-208163D01*
X-381025Y-210163D01*
X-381025Y-215163D01*
G54D14*
X-376859Y-203496D02*
X-375192Y-202496D01*
X-374359Y-200496D01*
X-374359Y-198496D01*
X-375192Y-196496D01*
X-376859Y-195496D01*
X-381025Y-195496D01*
X-381859Y-195496D01*
X-380192Y-198496D01*
X-380192Y-200496D01*
X-381025Y-202496D01*
X-382692Y-203496D01*
X-385192Y-203496D01*
X-386859Y-202496D01*
X-387692Y-200496D01*
X-387692Y-198496D01*
X-386859Y-196496D01*
X-385192Y-195496D01*
X-381025Y-195496D01*
G54D10*
X-365284Y-105365D02*
X-339883Y-105365D01*
X-339883Y-33765D01*
X-365283Y-33765D01*
X-365284Y-105365D01*
G54D14*
X-331992Y-60742D02*
X-333658Y-59742D01*
X-334492Y-57742D01*
X-334492Y-55742D01*
X-333658Y-53742D01*
X-331992Y-52742D01*
X-323659Y-52742D01*
X-321992Y-53742D01*
X-321158Y-55742D01*
X-321158Y-57742D01*
X-321992Y-59742D01*
X-323658Y-60742D01*
G54D14*
X-334492Y-70408D02*
X-321159Y-70408D01*
X-329492Y-64408D01*
X-331158Y-64408D01*
X-331158Y-72409D01*
G54D10*
X-388004Y45989D02*
X-388004Y23814D01*
X-438704Y23814D01*
X-438704Y45989D01*
X-388004Y45989D01*
G54D10*
X-387804Y34902D02*
X-379904Y34902D01*
G54D10*
X-438804Y34902D02*
X-446704Y34901D01*
G54D14*
X-424446Y12643D02*
X-421446Y10977D01*
X-420446Y9310D01*
X-420446Y5977D01*
G54D14*
X-428446Y5977D02*
X-428446Y19310D01*
X-423446Y19310D01*
X-421446Y18477D01*
X-420446Y16810D01*
X-420446Y15143D01*
X-421446Y13477D01*
X-423446Y12643D01*
X-428446Y12643D01*
G54D14*
X-411779Y12643D02*
X-413779Y12643D01*
X-415779Y13477D01*
X-416779Y15143D01*
X-416779Y16810D01*
X-415779Y18477D01*
X-413779Y19310D01*
X-411779Y19310D01*
X-409779Y18477D01*
X-408779Y16810D01*
X-408779Y15143D01*
X-409779Y13477D01*
X-411779Y12643D01*
X-409779Y11810D01*
X-408779Y10143D01*
X-408779Y8477D01*
X-409779Y6810D01*
X-411779Y5977D01*
X-413779Y5977D01*
X-415779Y6810D01*
X-416779Y8477D01*
X-416779Y10143D01*
X-415779Y11810D01*
X-413779Y12643D01*
G54D16*
X-437650Y69964D02*
X-428050Y69964D01*
G54D16*
X-432850Y73964D02*
X-432850Y65964D01*
G54D16*
X-423650Y78964D02*
X-417650Y62964D01*
X-411650Y78964D01*
G54D16*
X-402450Y62964D02*
X-402450Y78964D01*
G54D16*
X-407250Y78964D02*
X-397650Y78964D01*
G54D16*
X-393250Y78964D02*
X-381250Y62964D01*
G54D16*
X-393250Y62964D02*
X-381250Y78964D01*
G54D10*
X-498246Y59738D02*
X-498246Y85138D01*
X-447446Y85138D01*
X-447446Y59738D01*
X-498246Y59738D01*
G54D16*
X-505579Y72967D02*
X-511930Y72967D01*
G54D16*
X-511930Y65030D02*
X-511929Y80905D01*
G54D16*
X-515104Y78523D02*
X-515104Y67411D01*
G54D16*
X-518279Y70586D02*
X-518279Y75348D01*
G54D10*
X-589850Y-74750D02*
X-581850Y-74750D01*
X-581850Y-125475D01*
X-589850Y-125475D01*
G54D10*
G75*
G01X-589811Y-74619D02*
G03X-589811Y-125619I0J-25500D01*
G01*
G54D14*
X-597994Y-63075D02*
X-592994Y-65575D01*
G54D14*
X-593994Y-54742D02*
X-593994Y-63075D01*
X-594994Y-64742D01*
X-596994Y-65575D01*
X-598994Y-65575D01*
X-600994Y-64742D01*
X-601994Y-63075D01*
X-601994Y-54742D01*
X-600994Y-53075D01*
X-598994Y-52242D01*
X-596994Y-52242D01*
X-594994Y-53075D01*
X-593994Y-54742D01*
G54D14*
X-589328Y-57242D02*
X-584328Y-52242D01*
X-584328Y-65575D01*
G54D10*
X-488250Y-74750D02*
X-480250Y-74750D01*
X-480250Y-125475D01*
X-488250Y-125475D01*
G54D10*
G75*
G01X-488211Y-74619D02*
G03X-488211Y-125619I0J-25500D01*
G01*
G54D19*
X-496394Y-63075D02*
X-491394Y-65575D01*
G54D19*
X-492394Y-54742D02*
X-492394Y-63075D01*
X-493394Y-64742D01*
X-495394Y-65575D01*
X-497394Y-65575D01*
X-499394Y-64742D01*
X-500394Y-63075D01*
X-500394Y-54742D01*
X-499394Y-53075D01*
X-497394Y-52242D01*
X-495394Y-52242D01*
X-493394Y-53075D01*
X-492394Y-54742D01*
G54D19*
X-479694Y-65575D02*
X-487694Y-65575D01*
X-487694Y-64742D01*
X-486694Y-63075D01*
X-480694Y-58075D01*
X-479694Y-56409D01*
X-479694Y-54742D01*
X-480694Y-53075D01*
X-482694Y-52242D01*
X-484694Y-52242D01*
X-486694Y-53075D01*
X-487694Y-54742D01*
G54D10*
X-412050Y-74750D02*
X-404050Y-74750D01*
X-404050Y-125475D01*
X-412050Y-125475D01*
G54D10*
G75*
G01X-412011Y-74619D02*
G03X-412011Y-125619I0J-25500D01*
G01*
G54D14*
X-420178Y-63075D02*
X-415178Y-65575D01*
G54D14*
X-416178Y-54742D02*
X-416178Y-63075D01*
X-417178Y-64742D01*
X-419178Y-65575D01*
X-421178Y-65575D01*
X-423178Y-64742D01*
X-424178Y-63075D01*
X-424178Y-54742D01*
X-423178Y-53075D01*
X-421178Y-52242D01*
X-419178Y-52242D01*
X-417178Y-53075D01*
X-416178Y-54742D01*
G54D14*
X-411511Y-54742D02*
X-410511Y-53075D01*
X-408511Y-52242D01*
X-406511Y-52242D01*
X-404511Y-53075D01*
X-403511Y-54742D01*
X-403511Y-56409D01*
X-404511Y-58075D01*
X-406511Y-58909D01*
X-404511Y-59742D01*
X-403511Y-61409D01*
X-403511Y-63075D01*
X-404511Y-64742D01*
X-406511Y-65575D01*
X-408511Y-65575D01*
X-410511Y-64742D01*
X-411511Y-63075D01*
G54D10*
X-648439Y78493D02*
X-648440Y53092D01*
X-576840Y53093D01*
X-576840Y78493D01*
X-648439Y78493D01*
G54D14*
X-607451Y36868D02*
X-608451Y35201D01*
X-610451Y34368D01*
X-612451Y34368D01*
X-614451Y35201D01*
X-615451Y36868D01*
X-615451Y45201D01*
X-614451Y46868D01*
X-612451Y47701D01*
X-610451Y47701D01*
X-608451Y46868D01*
X-607451Y45201D01*
G54D14*
X-603784Y45201D02*
X-602784Y46868D01*
X-600784Y47701D01*
X-598784Y47701D01*
X-596784Y46868D01*
X-595784Y45201D01*
X-595784Y43535D01*
X-596784Y41868D01*
X-598784Y41035D01*
X-596784Y40201D01*
X-595784Y38535D01*
X-595784Y36868D01*
X-596784Y35201D01*
X-598784Y34368D01*
X-600784Y34368D01*
X-602784Y35201D01*
X-603784Y36868D01*
G54D18*
X-797750Y-198350D02*
X-797750Y-180572D01*
G54D18*
X-792861Y-198350D02*
X-792861Y-180572D01*
X-782194Y-198350D01*
X-782194Y-180572D01*
G54D10*
X-585821Y-200121D02*
X-563646Y-200121D01*
X-563646Y-250821D01*
X-585821Y-250821D01*
X-585821Y-200121D01*
G54D10*
X-574734Y-199921D02*
X-574734Y-192021D01*
G54D10*
X-574734Y-250921D02*
X-574734Y-258821D01*
G54D14*
X-552475Y-236563D02*
X-550809Y-233563D01*
X-549142Y-232563D01*
X-545809Y-232563D01*
G54D14*
X-545809Y-240563D02*
X-559142Y-240563D01*
X-559142Y-235563D01*
X-558309Y-233563D01*
X-556642Y-232563D01*
X-554975Y-232563D01*
X-553309Y-233563D01*
X-552475Y-235563D01*
X-552475Y-240563D01*
G54D14*
X-545809Y-222896D02*
X-559142Y-222896D01*
G54D14*
X-551142Y-222896D02*
X-552809Y-223896D01*
X-553309Y-225896D01*
X-552809Y-227896D01*
X-551142Y-228896D01*
X-547809Y-228896D01*
X-546142Y-227896D01*
X-545809Y-225896D01*
X-546142Y-223896D01*
X-547809Y-222896D01*
G54D20*
G75*
G01X82550Y-44450D02*
G03X82550Y-44450I-50800J0D01*
G01*
G54D20*
G75*
G01X374650Y-120650D02*
G03X374650Y-120650I-50800J0D01*
G01*
G54D21*
X-487433Y-22933D02*
X-484100Y-24600D01*
G54D21*
X-484767Y-17378D02*
X-484767Y-22933D01*
X-485433Y-24044D01*
X-486767Y-24600D01*
X-488100Y-24600D01*
X-489433Y-24044D01*
X-490100Y-22933D01*
X-490100Y-17378D01*
X-489433Y-16267D01*
X-488100Y-15711D01*
X-486767Y-15711D01*
X-485433Y-16267D01*
X-484767Y-17378D01*
G54D21*
X-481656Y-19044D02*
X-478323Y-15711D01*
X-478323Y-24600D01*
G54D21*
X-470546Y-24600D02*
X-475879Y-24600D01*
X-475879Y-24044D01*
X-475212Y-22933D01*
X-471212Y-19600D01*
X-470546Y-18489D01*
X-470546Y-17378D01*
X-471212Y-16267D01*
X-472546Y-15711D01*
X-473879Y-15711D01*
X-475212Y-16267D01*
X-475879Y-17378D01*
G54D21*
X-468102Y-17378D02*
X-467435Y-16267D01*
X-466102Y-15711D01*
X-464769Y-15711D01*
X-463435Y-16267D01*
X-462769Y-17378D01*
X-462769Y-18489D01*
X-463435Y-19600D01*
X-464769Y-20156D01*
X-463435Y-20711D01*
X-462769Y-21822D01*
X-462769Y-22933D01*
X-463435Y-24044D01*
X-464769Y-24600D01*
X-466102Y-24600D01*
X-467435Y-24044D01*
X-468102Y-22933D01*
G54D21*
X-452415Y-24600D02*
X-457748Y-24600D01*
X-457748Y-24044D01*
X-457081Y-22933D01*
X-453081Y-19600D01*
X-452415Y-18489D01*
X-452415Y-17378D01*
X-453081Y-16267D01*
X-454415Y-15711D01*
X-455748Y-15711D01*
X-457081Y-16267D01*
X-457748Y-17378D01*
G54D21*
X-449971Y-24600D02*
X-449971Y-19600D01*
G54D21*
X-449971Y-20711D02*
X-449304Y-19933D01*
X-447971Y-19600D01*
X-446638Y-19933D01*
X-445971Y-20711D01*
X-445971Y-24600D01*
G54D21*
X-443527Y-17378D02*
X-442860Y-16267D01*
X-441527Y-15711D01*
X-440194Y-15711D01*
X-438860Y-16267D01*
X-438194Y-17378D01*
X-438194Y-18489D01*
X-438860Y-19600D01*
X-440194Y-20156D01*
X-438860Y-20711D01*
X-438194Y-21822D01*
X-438194Y-22933D01*
X-438860Y-24044D01*
X-440194Y-24600D01*
X-441527Y-24600D01*
X-442860Y-24044D01*
X-443527Y-22933D01*
G54D21*
X-435750Y-22933D02*
X-435083Y-24044D01*
X-433750Y-24600D01*
X-432417Y-24600D01*
X-431083Y-24044D01*
X-430417Y-22933D01*
X-430417Y-20156D01*
X-430417Y-19600D01*
X-432417Y-20711D01*
X-433750Y-20711D01*
X-435083Y-20156D01*
X-435750Y-19044D01*
X-435750Y-17378D01*
X-435083Y-16267D01*
X-433750Y-15711D01*
X-432417Y-15711D01*
X-431083Y-16267D01*
X-430417Y-17378D01*
X-430417Y-20156D01*
G54D21*
X-422640Y-17378D02*
X-422640Y-22933D01*
X-423306Y-24044D01*
X-424640Y-24600D01*
X-425973Y-24600D01*
X-427306Y-24044D01*
X-427973Y-22933D01*
X-427973Y-17378D01*
X-427306Y-16267D01*
X-425973Y-15711D01*
X-424640Y-15711D01*
X-423306Y-16267D01*
X-422640Y-17378D01*
G54D21*
X-416196Y-24600D02*
X-416196Y-15711D01*
X-420196Y-21267D01*
X-420196Y-22378D01*
X-414863Y-22378D01*
G54D21*
X-161300Y4600D02*
X-161300Y13489D01*
X-157967Y13489D01*
X-156633Y12933D01*
X-155967Y11822D01*
X-155967Y10711D01*
X-156633Y9600D01*
X-157967Y9044D01*
X-156633Y8489D01*
X-155967Y7378D01*
X-155967Y6267D01*
X-156633Y5156D01*
X-157967Y4600D01*
X-161300Y4600D01*
G54D21*
X-161300Y9044D02*
X-157967Y9044D01*
G54D21*
X-153523Y4600D02*
X-153523Y13489D01*
X-150190Y13489D01*
X-148856Y12933D01*
X-148190Y11822D01*
X-148190Y6267D01*
X-148856Y5156D01*
X-150190Y4600D01*
X-153523Y4600D01*
G54D21*
X-145746Y10156D02*
X-142413Y13489D01*
X-142413Y4600D01*
G54D21*
X-139969Y11822D02*
X-139302Y12933D01*
X-137969Y13489D01*
X-136636Y13489D01*
X-135302Y12933D01*
X-134636Y11822D01*
X-134636Y10711D01*
X-135302Y9600D01*
X-136636Y9044D01*
X-135302Y8489D01*
X-134636Y7378D01*
X-134636Y6267D01*
X-135302Y5156D01*
X-136636Y4600D01*
X-137969Y4600D01*
X-139302Y5156D01*
X-139969Y6267D01*
G54D21*
X-126859Y13489D02*
X-132192Y13489D01*
X-132192Y9600D01*
X-131525Y9600D01*
X-130192Y10156D01*
X-128859Y10156D01*
X-127525Y9600D01*
X-126859Y8489D01*
X-126859Y6267D01*
X-127525Y5156D01*
X-128859Y4600D01*
X-130192Y4600D01*
X-131525Y5156D01*
X-132192Y6267D01*
G54D21*
X157733Y-50800D02*
X152400Y-50800D01*
X152400Y-50244D01*
X153067Y-49133D01*
X157067Y-45800D01*
X157733Y-44689D01*
X157733Y-43578D01*
X157067Y-42467D01*
X155733Y-41911D01*
X154400Y-41911D01*
X153067Y-42467D01*
X152400Y-43578D01*
G54D21*
X160177Y-49133D02*
X160844Y-50244D01*
X162177Y-50800D01*
X163510Y-50800D01*
X164844Y-50244D01*
X165510Y-49133D01*
X165510Y-48022D01*
X164844Y-46911D01*
X163510Y-46356D01*
X162177Y-46356D01*
X160844Y-45800D01*
X160177Y-44689D01*
X160177Y-43578D01*
X160844Y-42467D01*
X162177Y-41911D01*
X163510Y-41911D01*
X164844Y-42467D01*
X165510Y-43578D01*
G54D21*
X173287Y-49133D02*
X172621Y-50244D01*
X171287Y-50800D01*
X169954Y-50800D01*
X168621Y-50244D01*
X167954Y-49133D01*
X167954Y-43578D01*
X168621Y-42467D01*
X169954Y-41911D01*
X171287Y-41911D01*
X172621Y-42467D01*
X173287Y-43578D01*
G54D21*
X175731Y-45244D02*
X179064Y-41911D01*
X179064Y-50800D01*
G54D21*
X181508Y-49133D02*
X182175Y-50244D01*
X183508Y-50800D01*
X184841Y-50800D01*
X186175Y-50244D01*
X186841Y-49133D01*
X186841Y-46356D01*
X186841Y-45800D01*
X184841Y-46911D01*
X183508Y-46911D01*
X182175Y-46356D01*
X181508Y-45244D01*
X181508Y-43578D01*
X182175Y-42467D01*
X183508Y-41911D01*
X184841Y-41911D01*
X186175Y-42467D01*
X186841Y-43578D01*
X186841Y-46356D01*
G54D21*
X194618Y-43578D02*
X193952Y-42467D01*
X192618Y-41911D01*
X191285Y-41911D01*
X189952Y-42467D01*
X189285Y-43578D01*
X189285Y-46356D01*
X189285Y-46911D01*
X191285Y-45800D01*
X192618Y-45800D01*
X193952Y-46356D01*
X194618Y-47467D01*
X194618Y-49133D01*
X193952Y-50244D01*
X192618Y-50800D01*
X191285Y-50800D01*
X189952Y-50244D01*
X189285Y-49133D01*
X189285Y-46356D01*
G54D21*
X197062Y-49133D02*
X197729Y-50244D01*
X199062Y-50800D01*
X200395Y-50800D01*
X201729Y-50244D01*
X202395Y-49133D01*
X202395Y-46356D01*
X202395Y-45800D01*
X200395Y-46911D01*
X199062Y-46911D01*
X197729Y-46356D01*
X197062Y-45244D01*
X197062Y-43578D01*
X197729Y-42467D01*
X199062Y-41911D01*
X200395Y-41911D01*
X201729Y-42467D01*
X202395Y-43578D01*
X202395Y-46356D01*
G54D16*
X460007Y-145482D02*
X460007Y-151832D01*
G54D16*
X467944Y-151832D02*
X452070Y-151832D01*
G54D16*
X454451Y-155007D02*
X465563Y-155007D01*
G54D16*
X462388Y-158182D02*
X457626Y-158182D01*
G54D16*
X-789593Y-237882D02*
X-789593Y-244232D01*
G54D16*
X-781656Y-244232D02*
X-797530Y-244232D01*
G54D16*
X-795149Y-247407D02*
X-784037Y-247407D01*
G54D16*
X-787212Y-250582D02*
X-791974Y-250582D01*
G54D22*
X400000Y-60000D02*
X465000Y-60000D01*
G54D16*
X400007Y-145482D02*
X400007Y-151832D01*
G54D16*
X407944Y-151832D02*
X392070Y-151832D01*
G54D16*
X394451Y-155007D02*
X405563Y-155007D01*
G54D16*
X402388Y-158182D02*
X397626Y-158182D01*
G54D23*
X-400000Y-25000D02*
X-400000Y-10778D01*
G54D23*
X-396089Y-25000D02*
X-396089Y-10778D01*
X-387556Y-25000D01*
X-387556Y-10778D01*
G54D24*
X-555700Y-298200D02*
X-555700Y-287533D01*
X-551700Y-287533D01*
X-550100Y-288200D01*
X-549300Y-289533D01*
X-549300Y-290867D01*
X-550100Y-292200D01*
X-551700Y-292867D01*
X-555700Y-292867D01*
G54D24*
X-543167Y-292867D02*
X-540767Y-294200D01*
X-539967Y-295533D01*
X-539967Y-298200D01*
G54D24*
X-546367Y-298200D02*
X-546367Y-287533D01*
X-542367Y-287533D01*
X-540767Y-288200D01*
X-539967Y-289533D01*
X-539967Y-290867D01*
X-540767Y-292200D01*
X-542367Y-292867D01*
X-546367Y-292867D01*
G54D24*
X-531434Y-298200D02*
X-537034Y-298200D01*
X-537034Y-287533D01*
X-531434Y-287533D01*
G54D24*
X-537034Y-292867D02*
X-531434Y-292867D01*
G54D24*
X-528501Y-293533D02*
X-522101Y-293533D01*
G54D24*
X-519168Y-298200D02*
X-519168Y-287533D01*
X-515168Y-287533D01*
X-513568Y-288200D01*
X-512768Y-289533D01*
X-512768Y-296200D01*
X-513568Y-297533D01*
X-515168Y-298200D01*
X-519168Y-298200D01*
G54D24*
X-506635Y-292867D02*
X-504235Y-294200D01*
X-503435Y-295533D01*
X-503435Y-298200D01*
G54D24*
X-509835Y-298200D02*
X-509835Y-287533D01*
X-505835Y-287533D01*
X-504235Y-288200D01*
X-503435Y-289533D01*
X-503435Y-290867D01*
X-504235Y-292200D01*
X-505835Y-292867D01*
X-509835Y-292867D01*
G54D24*
X-500502Y-298200D02*
X-500502Y-287533D01*
G54D24*
X-497569Y-287533D02*
X-493569Y-298200D01*
X-489569Y-287533D01*
G54D24*
X-481036Y-298200D02*
X-486636Y-298200D01*
X-486636Y-287533D01*
X-481036Y-287533D01*
G54D24*
X-486636Y-292867D02*
X-481036Y-292867D01*
G54D24*
X-474903Y-292867D02*
X-472503Y-294200D01*
X-471703Y-295533D01*
X-471703Y-298200D01*
G54D24*
X-478103Y-298200D02*
X-478103Y-287533D01*
X-474103Y-287533D01*
X-472503Y-288200D01*
X-471703Y-289533D01*
X-471703Y-290867D01*
X-472503Y-292200D01*
X-474103Y-292867D01*
X-478103Y-292867D01*
G54D24*
X-195700Y-68200D02*
X-195700Y-57533D01*
X-191700Y-57533D01*
X-190100Y-58200D01*
X-189300Y-59533D01*
X-189300Y-66200D01*
X-190100Y-67533D01*
X-191700Y-68200D01*
X-195700Y-68200D01*
G54D24*
X-183167Y-62867D02*
X-180767Y-64200D01*
X-179967Y-65533D01*
X-179967Y-68200D01*
G54D24*
X-186367Y-68200D02*
X-186367Y-57533D01*
X-182367Y-57533D01*
X-180767Y-58200D01*
X-179967Y-59533D01*
X-179967Y-60867D01*
X-180767Y-62200D01*
X-182367Y-62867D01*
X-186367Y-62867D01*
G54D24*
X-177034Y-68200D02*
X-177034Y-57533D01*
G54D24*
X-174101Y-57533D02*
X-170101Y-68200D01*
X-166101Y-57533D01*
G54D24*
X-157568Y-68200D02*
X-163168Y-68200D01*
X-163168Y-57533D01*
X-157568Y-57533D01*
G54D24*
X-163168Y-62867D02*
X-157568Y-62867D01*
G54D24*
X-151435Y-62867D02*
X-149035Y-64200D01*
X-148235Y-65533D01*
X-148235Y-68200D01*
G54D24*
X-154635Y-68200D02*
X-154635Y-57533D01*
X-150635Y-57533D01*
X-149035Y-58200D01*
X-148235Y-59533D01*
X-148235Y-60867D01*
X-149035Y-62200D01*
X-150635Y-62867D01*
X-154635Y-62867D01*
M02*
