; Drill file
; Format: 2.4 (00.0000)
M48
INCH
T01C0.0236
T02C0.0276
T03C0.0354
T04C0.0394
T05C0.0472
T06C0.0709
%
G05
G90
T01
X-003120Y-003620
T02
X-031500Y-005510
X-014960Y-001180
X018110Y-001180
T03
X-027670Y-010380
X-025880Y-010380
X-025870Y-007380
X-024720Y-006280
X-022720Y-006280
X-022630Y-007380
X-020870Y-006370
X-019250Y-004640
X-019880Y-003940
X-019250Y-003250
X-020670Y-001380
X-022920Y-000270
X-023120Y002590
X-025130Y002590
X-027670Y001630
X-025920Y-000270
X-027670Y-001380
X-026360Y-002510
X-026360Y-004520
X-023880Y-003940
X-023250Y-003250
X-023250Y-004640
X-027670Y-007380
X-030860Y-003520
X-030860Y-001510
X-020670Y001620
X-019110Y002850
X-018110Y002850
X-017770Y001370
X-014770Y001370
X-013880Y-001740
X-013880Y-003750
X-013720Y-006030
X-013720Y-008030
X-011710Y-008020
X-010020Y-007880
X-010020Y-010380
X-012120Y-010870
X-013500Y-010870
X-015880Y-009380
X-017880Y-009380
X-020880Y-009380
X-022630Y-010380
X-017880Y-006370
X-015870Y-006370
X-016250Y-004640
X-016880Y-003940
X-016250Y-003250
X-011710Y-006020
X-010720Y-003530
X-008710Y-003520
X-007130Y-003620
X-005120Y-003620
X-005130Y-006630
X-004880Y-008160
X-005500Y-010000
X-007020Y-010380
X-007020Y-007880
X-007130Y-006630
X-003130Y-006630
X-002870Y-008160
X-000970Y-007930
X-000980Y-005920
X-001000Y-003500
X001520Y-005920
X001530Y-007930
X003500Y-009500
X-000210Y-010020
X-002220Y-010030
X-005500Y-012750
X003500Y-005500
X003500Y-003500
X003500Y000000
X003790Y001980
X001780Y001970
X-000520Y002120
X-001000Y000000
X-003520Y002120
X-005710Y001980
X-007720Y001970
X-010620Y002370
X-010630Y-000630
X007500Y000000
X010500Y000000
X011820Y002100
X012820Y002100
X014520Y002080
X014530Y000070
X016640Y-000430
X016630Y001580
X014500Y-003000
X011000Y-003000
X011000Y-006500
X014500Y-006500
T04
X-031000Y-008500
X-031000Y-006250
X-007000Y-000870
X-006000Y-000870
X-005000Y-000870
X006260Y-003340
X007260Y-003340
X008260Y-003340
T05
X015830Y-004860
X018200Y-004860
X018310Y-002360
X015750Y-002360
T06
X-031100Y-012600
X-020870Y-012600
X-031100Y003150
X000390Y-012600
X016930Y-012800
X016930Y003350
X006300Y003150
M30
