; Drill file
; Format: 2.4 (00.0000)
M48
INCH
T01C0.0236
T02C0.0276
T03C0.0354
T04C0.0394
T05C0.0472
T06C0.0709
%
G05
G90
T01
X029200Y010110
T02
X000830Y008220
X017370Y012550
X050440Y012550
T03
X004650Y003360
X006450Y003360
X006450Y006360
X007610Y007460
X009610Y007460
X009700Y006360
X011450Y007360
X013080Y009100
X012450Y009790
X013080Y010480
X011650Y012360
X009410Y013460
X009210Y016320
X007200Y016320
X004650Y015360
X006400Y013460
X004650Y012360
X005960Y011220
X005970Y009220
X008450Y009790
X009080Y010480
X009080Y009100
X004650Y006360
X001470Y010220
X001460Y012220
X011650Y015360
X013210Y016590
X014220Y016590
X014550Y015110
X017550Y015110
X018450Y012000
X018450Y009990
X018610Y007710
X018610Y005710
X020620Y005710
X022300Y005860
X022300Y003360
X020200Y002860
X018820Y002860
X016450Y004360
X014450Y004360
X011450Y004360
X009700Y003360
X014450Y007360
X016450Y007360
X016080Y009100
X015450Y009790
X016080Y010480
X020620Y007710
X021610Y010210
X023620Y010210
X025200Y010110
X027200Y010110
X027200Y007110
X027450Y005570
X026830Y003730
X025300Y003350
X025300Y005850
X025200Y007110
X029200Y007110
X029460Y005570
X031350Y005810
X031350Y007810
X031330Y010230
X033850Y007810
X033850Y005810
X035830Y004230
X032120Y003710
X030110Y003710
X026830Y000980
X035830Y008230
X035830Y010230
X035830Y013730
X036120Y015710
X034110Y015710
X031800Y015850
X031330Y013730
X028800Y015860
X026620Y015710
X024610Y015710
X021700Y016110
X021700Y013110
X039830Y013730
X042830Y013730
X044140Y015840
X045150Y015840
X046850Y015810
X046850Y013810
X048960Y013300
X048960Y015310
X046830Y010730
X043330Y010730
X043330Y007230
X046830Y007230
T04
X001330Y005230
X001330Y007480
X025330Y012860
X026330Y012860
X027330Y012860
X038590Y010390
X039590Y010390
X040590Y010390
T05
X048160Y008870
X050520Y008870
X050630Y011370
X048070Y011370
T06
X001220Y001140
X011460Y001140
X001220Y016880
X032720Y001140
X049260Y000940
X049260Y017080
X038630Y016880
M30
