%FSLAX34Y34*%
%MOMM*%
%LNSOLDERMASK_BOTTOM*%
G71*
G01*
%ADD10C,2.600*%
%ADD11C,2.600*%
%ADD12C,2.400*%
%ADD13C,2.600*%
%ADD14C,2.800*%
%ADD15C,2.400*%
%ADD16C,2.800*%
%ADD17C,3.600*%
%ADD18C,1.600*%
%LPD*%
X643280Y326750D02*
G54D10*
D03*
X668680Y326750D02*
G54D10*
D03*
X694080Y326750D02*
G54D10*
D03*
X1030985Y264021D02*
G54D10*
D03*
X1005585Y264021D02*
G54D10*
D03*
X980185Y264021D02*
G54D10*
D03*
X599879Y259323D02*
G54D11*
D03*
X548899Y259211D02*
G54D11*
D03*
X640105Y256775D02*
G54D11*
D03*
X640055Y180525D02*
G54D11*
D03*
X551205Y409175D02*
G54D11*
D03*
X551155Y332925D02*
G54D11*
D03*
X690905Y256775D02*
G54D11*
D03*
X690855Y180525D02*
G54D11*
D03*
X676079Y399023D02*
G54D11*
D03*
X625099Y398911D02*
G54D11*
D03*
X741705Y256775D02*
G54D12*
D03*
X741655Y180525D02*
G54D12*
D03*
X697214Y141461D02*
G54D11*
D03*
X748195Y141573D02*
G54D11*
D03*
X642703Y148698D02*
G54D11*
D03*
X566453Y148748D02*
G54D11*
D03*
X523679Y195823D02*
G54D11*
D03*
X472699Y195711D02*
G54D11*
D03*
X523679Y145023D02*
G54D11*
D03*
X472699Y144911D02*
G54D11*
D03*
X478092Y72750D02*
G54D11*
D03*
X513192Y72750D02*
G54D11*
D03*
X642703Y85198D02*
G54D11*
D03*
X566453Y85248D02*
G54D11*
D03*
X681380Y25000D02*
G54D12*
D03*
X681380Y94850D02*
G54D11*
D03*
X815779Y94223D02*
G54D11*
D03*
X764798Y94111D02*
G54D11*
D03*
X807803Y402698D02*
G54D11*
D03*
X731553Y402748D02*
G54D11*
D03*
X1011580Y348850D02*
G54D11*
D03*
X1087780Y348850D02*
G54D11*
D03*
X1243659Y337898D02*
G54D11*
D03*
X1243546Y388879D02*
G54D11*
D03*
X795680Y348850D02*
G54D11*
D03*
X795680Y259950D02*
G54D11*
D03*
X909980Y348850D02*
G54D11*
D03*
X909980Y259950D02*
G54D11*
D03*
X796378Y147460D02*
G54D11*
D03*
X796265Y198440D02*
G54D11*
D03*
X1121255Y402225D02*
G54D11*
D03*
X1146755Y402225D02*
G54D11*
D03*
X1190078Y350660D02*
G54D11*
D03*
X1189965Y401640D02*
G54D11*
D03*
X1100480Y272650D02*
G54D11*
D03*
X1189380Y272650D02*
G54D11*
D03*
X1100480Y183750D02*
G54D11*
D03*
X1189380Y183750D02*
G54D11*
D03*
X917380Y399023D02*
G54D11*
D03*
X866400Y398910D02*
G54D11*
D03*
X909980Y209150D02*
G54D11*
D03*
X909980Y107550D02*
G54D11*
D03*
X859878Y147460D02*
G54D11*
D03*
X859765Y198440D02*
G54D11*
D03*
X472699Y144911D02*
G54D13*
D03*
X472699Y195711D02*
G54D13*
D03*
X815779Y94223D02*
G54D13*
D03*
X1087780Y348850D02*
G54D13*
D03*
X741655Y180525D02*
G54D13*
D03*
X690855Y180525D02*
G54D14*
D03*
X697214Y141461D02*
G54D14*
D03*
X796378Y147460D02*
G54D14*
D03*
X859878Y147460D02*
G54D14*
D03*
X681380Y25000D02*
G54D11*
D03*
X472699Y195711D02*
G54D14*
D03*
X472699Y144911D02*
G54D14*
D03*
X478092Y72750D02*
G54D14*
D03*
X815779Y94223D02*
G54D14*
D03*
X741655Y180525D02*
G54D14*
D03*
X1190078Y350660D02*
G54D14*
D03*
X980185Y264021D02*
G54D13*
D03*
X690905Y256775D02*
G54D12*
D03*
X690855Y180525D02*
G54D12*
D03*
X118159Y313875D02*
G54D11*
D03*
X118209Y390125D02*
G54D11*
D03*
X37166Y310475D02*
G54D11*
D03*
X37278Y259494D02*
G54D11*
D03*
X151465Y285075D02*
G54D11*
D03*
X151578Y234094D02*
G54D11*
D03*
X118175Y85275D02*
G54D11*
D03*
X118225Y161525D02*
G54D11*
D03*
X238896Y341889D02*
G54D11*
D03*
X162646Y341939D02*
G54D11*
D03*
X163855Y161525D02*
G54D11*
D03*
X163805Y85275D02*
G54D11*
D03*
X295958Y313874D02*
G54D11*
D03*
X296008Y390124D02*
G54D11*
D03*
X193290Y189359D02*
G54D11*
D03*
X290855Y186925D02*
G54D11*
D03*
X290805Y110675D02*
G54D11*
D03*
X367055Y186925D02*
G54D11*
D03*
X367005Y110675D02*
G54D11*
D03*
X417855Y186925D02*
G54D11*
D03*
X417805Y110675D02*
G54D11*
D03*
X468630Y253700D02*
G54D11*
D03*
X468518Y304680D02*
G54D11*
D03*
X445872Y383693D02*
G54D11*
D03*
X369622Y383743D02*
G54D11*
D03*
X335605Y421275D02*
G54D11*
D03*
X361105Y421275D02*
G54D11*
D03*
X230530Y266300D02*
G54D15*
D03*
X214630Y248725D02*
G54D15*
D03*
X230564Y231109D02*
G54D15*
D03*
X332130Y266300D02*
G54D15*
D03*
X316230Y248725D02*
G54D15*
D03*
X332165Y231109D02*
G54D15*
D03*
X408330Y266300D02*
G54D15*
D03*
X392430Y248725D02*
G54D15*
D03*
X408365Y231109D02*
G54D15*
D03*
X182856Y414509D02*
G54D11*
D03*
X233836Y414622D02*
G54D11*
D03*
X118175Y85275D02*
G54D13*
D03*
X163805Y85275D02*
G54D13*
D03*
X290805Y110675D02*
G54D13*
D03*
X367005Y110675D02*
G54D13*
D03*
X118175Y85275D02*
G54D13*
D03*
X163805Y85275D02*
G54D13*
D03*
X290805Y110675D02*
G54D13*
D03*
X367005Y110675D02*
G54D13*
D03*
X244090Y189359D02*
G54D11*
D03*
X246405Y161525D02*
G54D11*
D03*
X246355Y85275D02*
G54D11*
D03*
X246355Y85275D02*
G54D13*
D03*
X1223280Y225350D02*
G54D16*
D03*
X33680Y190100D02*
G54D10*
D03*
X33680Y132950D02*
G54D10*
D03*
X31080Y428850D02*
G54D17*
D03*
X31080Y28850D02*
G54D17*
D03*
X1251080Y23850D02*
G54D17*
D03*
X1251080Y433850D02*
G54D17*
D03*
X1221080Y288850D02*
G54D16*
D03*
X1286080Y288850D02*
G54D16*
D03*
X1283280Y225350D02*
G54D16*
D03*
X291080Y28850D02*
G54D17*
D03*
X831080Y28850D02*
G54D17*
D03*
X441080Y318850D02*
G54D18*
D03*
X1281080Y318850D02*
G54D18*
D03*
X21080Y208850D02*
G54D18*
D03*
X981080Y428850D02*
G54D17*
D03*
M02*
