; Drill file
; Format: 2.4 (00.0000)
M48
INCH
T01C0.0354
%
G05
G90
T01
X000640Y036100
X002270Y036100
X004000Y035750
X004000Y037000
X004000Y038500
X002260Y038110
X000640Y038110
X006750Y038500
X006750Y037000
X006750Y035750
X008890Y035980
X010520Y035980
X012250Y035500
X012250Y036750
X012250Y038250
X010510Y037980
X008890Y037980
X015000Y038250
X015000Y036750
X015000Y035500
X016770Y035980
X018500Y035500
X018500Y036750
X018500Y038250
X016760Y037980
X021250Y038250
X021250Y036750
X021250Y035500
X022890Y035730
X024520Y035600
X024510Y037610
X022890Y037730
M30
