%FSLAX34Y34*%
%MOMM*%
%LNCOPPER_TOP*%
G71*
G01*
%ADD10C,2.800*%
%ADD11C,2.800*%
%ADD12C,3.200*%
%ADD13C,0.667*%
%ADD14C,1.607*%
%ADD15C,1.447*%
%ADD16C,2.000*%
%ADD17C,2.000*%
%LPD*%
G36*
X0Y1000000D02*
X640000Y1000000D01*
X640000Y880000D01*
X0Y880000D01*
X0Y1000000D01*
G37*
%LPC*%
X101600Y977900D02*
G54D10*
D03*
X171450Y977900D02*
G54D10*
D03*
X101600Y908050D02*
G54D10*
D03*
X171450Y908050D02*
G54D10*
D03*
X171450Y939800D02*
G54D10*
D03*
X101600Y939800D02*
G54D10*
D03*
X101600Y908050D02*
G54D11*
D03*
X171450Y908050D02*
G54D11*
D03*
X16177Y967973D02*
G54D12*
D03*
X16290Y916992D02*
G54D12*
D03*
X57452Y967973D02*
G54D12*
D03*
X57564Y916992D02*
G54D12*
D03*
X16289Y916992D02*
G54D11*
D03*
X225727Y964798D02*
G54D12*
D03*
X225840Y913818D02*
G54D12*
D03*
X267002Y964798D02*
G54D12*
D03*
X267114Y913818D02*
G54D12*
D03*
X267115Y913817D02*
G54D11*
D03*
X311150Y971550D02*
G54D10*
D03*
X381000Y971550D02*
G54D10*
D03*
X311150Y901700D02*
G54D10*
D03*
X381000Y901700D02*
G54D10*
D03*
X381000Y933450D02*
G54D10*
D03*
X311150Y933450D02*
G54D10*
D03*
X311150Y901700D02*
G54D11*
D03*
X381000Y901700D02*
G54D11*
D03*
X425752Y964798D02*
G54D12*
D03*
X425864Y913818D02*
G54D12*
D03*
X469900Y971550D02*
G54D10*
D03*
X539750Y971550D02*
G54D10*
D03*
X469900Y901700D02*
G54D10*
D03*
X539750Y901700D02*
G54D10*
D03*
X539750Y933450D02*
G54D10*
D03*
X469900Y933450D02*
G54D10*
D03*
X469900Y901700D02*
G54D11*
D03*
X539750Y901700D02*
G54D11*
D03*
X581327Y958448D02*
G54D12*
D03*
X581440Y907468D02*
G54D12*
D03*
X622602Y955273D02*
G54D12*
D03*
X622714Y904292D02*
G54D12*
D03*
X622715Y904292D02*
G54D11*
D03*
%LPD*%
G54D13*
G36*
X98267Y908050D02*
X98267Y922550D01*
X104933Y922550D01*
X104933Y908050D01*
X98267Y908050D01*
G37*
G36*
X101600Y911383D02*
X116100Y911383D01*
X116100Y904717D01*
X101600Y904717D01*
X101600Y911383D01*
G37*
G36*
X104933Y908050D02*
X104933Y893550D01*
X98267Y893550D01*
X98267Y908050D01*
X104933Y908050D01*
G37*
G36*
X101600Y904717D02*
X87100Y904717D01*
X87100Y911383D01*
X101600Y911383D01*
X101600Y904717D01*
G37*
G54D13*
G36*
X168117Y908050D02*
X168117Y922550D01*
X174783Y922550D01*
X174783Y908050D01*
X168117Y908050D01*
G37*
G36*
X171450Y911383D02*
X185950Y911383D01*
X185950Y904717D01*
X171450Y904717D01*
X171450Y911383D01*
G37*
G36*
X174783Y908050D02*
X174783Y893550D01*
X168117Y893550D01*
X168117Y908050D01*
X174783Y908050D01*
G37*
G36*
X171450Y904717D02*
X156950Y904717D01*
X156950Y911383D01*
X171450Y911383D01*
X171450Y904717D01*
G37*
G54D14*
G36*
X8256Y916992D02*
X8256Y931492D01*
X24322Y931492D01*
X24322Y916992D01*
X8256Y916992D01*
G37*
G36*
X16289Y925025D02*
X30789Y925025D01*
X30789Y908959D01*
X16289Y908959D01*
X16289Y925025D01*
G37*
G36*
X24322Y916992D02*
X24322Y902492D01*
X8256Y902492D01*
X8256Y916992D01*
X24322Y916992D01*
G37*
G36*
X16289Y908959D02*
X1789Y908959D01*
X1789Y925025D01*
X16289Y925025D01*
X16289Y908959D01*
G37*
G54D15*
G36*
X259882Y913817D02*
X259882Y928317D01*
X274348Y928317D01*
X274348Y913817D01*
X259882Y913817D01*
G37*
G36*
X267115Y921050D02*
X281615Y921050D01*
X281615Y906584D01*
X267115Y906584D01*
X267115Y921050D01*
G37*
G36*
X274348Y913817D02*
X274348Y899317D01*
X259882Y899317D01*
X259882Y913817D01*
X274348Y913817D01*
G37*
G36*
X267115Y906584D02*
X252615Y906584D01*
X252615Y921050D01*
X267115Y921050D01*
X267115Y906584D01*
G37*
G54D13*
G36*
X307817Y901700D02*
X307817Y916200D01*
X314483Y916200D01*
X314483Y901700D01*
X307817Y901700D01*
G37*
G36*
X311150Y905033D02*
X325650Y905033D01*
X325650Y898367D01*
X311150Y898367D01*
X311150Y905033D01*
G37*
G36*
X314483Y901700D02*
X314483Y887200D01*
X307817Y887200D01*
X307817Y901700D01*
X314483Y901700D01*
G37*
G36*
X311150Y898367D02*
X296650Y898367D01*
X296650Y905033D01*
X311150Y905033D01*
X311150Y898367D01*
G37*
G54D13*
G36*
X377667Y901700D02*
X377667Y916200D01*
X384333Y916200D01*
X384333Y901700D01*
X377667Y901700D01*
G37*
G36*
X381000Y905033D02*
X395500Y905033D01*
X395500Y898367D01*
X381000Y898367D01*
X381000Y905033D01*
G37*
G36*
X384333Y901700D02*
X384333Y887200D01*
X377667Y887200D01*
X377667Y901700D01*
X384333Y901700D01*
G37*
G36*
X381000Y898367D02*
X366500Y898367D01*
X366500Y905033D01*
X381000Y905033D01*
X381000Y898367D01*
G37*
G54D13*
G36*
X466567Y901700D02*
X466567Y916200D01*
X473233Y916200D01*
X473233Y901700D01*
X466567Y901700D01*
G37*
G36*
X469900Y905033D02*
X484400Y905033D01*
X484400Y898367D01*
X469900Y898367D01*
X469900Y905033D01*
G37*
G36*
X473233Y901700D02*
X473233Y887200D01*
X466567Y887200D01*
X466567Y901700D01*
X473233Y901700D01*
G37*
G36*
X469900Y898367D02*
X455400Y898367D01*
X455400Y905033D01*
X469900Y905033D01*
X469900Y898367D01*
G37*
G54D13*
G36*
X536417Y901700D02*
X536417Y916200D01*
X543083Y916200D01*
X543083Y901700D01*
X536417Y901700D01*
G37*
G36*
X539750Y905033D02*
X554250Y905033D01*
X554250Y898367D01*
X539750Y898367D01*
X539750Y905033D01*
G37*
G36*
X543083Y901700D02*
X543083Y887200D01*
X536417Y887200D01*
X536417Y901700D01*
X543083Y901700D01*
G37*
G36*
X539750Y898367D02*
X525250Y898367D01*
X525250Y905033D01*
X539750Y905033D01*
X539750Y898367D01*
G37*
G54D15*
G36*
X615482Y904292D02*
X615482Y918792D01*
X629948Y918792D01*
X629948Y904292D01*
X615482Y904292D01*
G37*
G36*
X622715Y911525D02*
X637215Y911525D01*
X637215Y897059D01*
X622715Y897059D01*
X622715Y911525D01*
G37*
G36*
X629948Y904292D02*
X629948Y889792D01*
X615482Y889792D01*
X615482Y904292D01*
X629948Y904292D01*
G37*
G36*
X622715Y897059D02*
X608215Y897059D01*
X608215Y911525D01*
X622715Y911525D01*
X622715Y897059D01*
G37*
X101600Y977900D02*
G54D16*
D03*
X171450Y977900D02*
G54D16*
D03*
X101600Y908050D02*
G54D16*
D03*
X171450Y908050D02*
G54D16*
D03*
X171450Y939800D02*
G54D16*
D03*
X101600Y939800D02*
G54D16*
D03*
X101600Y908050D02*
G54D17*
D03*
X171450Y908050D02*
G54D17*
D03*
X16177Y967973D02*
G54D16*
D03*
X16290Y916992D02*
G54D16*
D03*
X57452Y967973D02*
G54D16*
D03*
X57564Y916992D02*
G54D16*
D03*
X16289Y916992D02*
G54D17*
D03*
X225727Y964798D02*
G54D16*
D03*
X225840Y913818D02*
G54D16*
D03*
X267002Y964798D02*
G54D16*
D03*
X267114Y913818D02*
G54D16*
D03*
X267115Y913817D02*
G54D17*
D03*
X311150Y971550D02*
G54D16*
D03*
X381000Y971550D02*
G54D16*
D03*
X311150Y901700D02*
G54D16*
D03*
X381000Y901700D02*
G54D16*
D03*
X381000Y933450D02*
G54D16*
D03*
X311150Y933450D02*
G54D16*
D03*
X311150Y901700D02*
G54D17*
D03*
X381000Y901700D02*
G54D17*
D03*
X425752Y964798D02*
G54D16*
D03*
X425864Y913818D02*
G54D16*
D03*
X469900Y971550D02*
G54D16*
D03*
X539750Y971550D02*
G54D16*
D03*
X469900Y901700D02*
G54D16*
D03*
X539750Y901700D02*
G54D16*
D03*
X539750Y933450D02*
G54D16*
D03*
X469900Y933450D02*
G54D16*
D03*
X469900Y901700D02*
G54D17*
D03*
X539750Y901700D02*
G54D17*
D03*
X581327Y958448D02*
G54D16*
D03*
X581440Y907468D02*
G54D16*
D03*
X622602Y955273D02*
G54D16*
D03*
X622714Y904292D02*
G54D16*
D03*
X622715Y904292D02*
G54D17*
D03*
M02*
