%FSLAX34Y34*%
%MOMM*%
%LNSILK_TOP*%
G71*
G01*
%ADD10C,0.167*%
%ADD11C,0.150*%
%ADD12C,0.222*%
%ADD13C,0.200*%
%LPD*%
G54D10*
X225300Y33179D02*
X225300Y33179D01*
G54D11*
X277956Y129388D02*
X277956Y154788D01*
X206356Y154788D01*
X206356Y129388D01*
X277956Y129388D01*
G54D10*
X225300Y160179D02*
X225300Y160179D01*
G54D11*
X232210Y108338D02*
X206810Y108338D01*
X206810Y36738D01*
X232210Y36738D01*
X232210Y108338D01*
G54D10*
X201419Y55682D02*
X201419Y55682D01*
G54D11*
X283010Y108338D02*
X257610Y108338D01*
X257610Y36738D01*
X283010Y36738D01*
X283010Y108338D01*
G54D10*
X252219Y55682D02*
X252219Y55682D01*
G54D12*
X438150Y82650D02*
X444817Y100428D01*
X451483Y82650D01*
G54D12*
X440817Y89317D02*
X448817Y89317D01*
G54D12*
X461705Y82650D02*
X461705Y100428D01*
G54D12*
X456372Y100428D02*
X467039Y100428D01*
G54D12*
X477261Y82650D02*
X477261Y100428D01*
G54D12*
X471928Y100428D02*
X482595Y100428D01*
G54D12*
X487484Y82650D02*
X487484Y100428D01*
X498151Y82650D01*
X498151Y100428D01*
G54D11*
X27054Y113687D02*
X52454Y113687D01*
X52454Y62887D01*
X27054Y62887D01*
X27054Y113687D01*
G54D13*
X44204Y140135D02*
X44204Y133785D01*
G54D13*
X52141Y133785D02*
X36266Y133785D01*
G54D13*
X38647Y130610D02*
X49760Y130610D01*
G54D13*
X46585Y127435D02*
X41823Y127435D01*
G54D11*
X547754Y113687D02*
X573154Y113687D01*
X573154Y62887D01*
X547754Y62887D01*
X547754Y113687D01*
G54D13*
X564904Y140135D02*
X564904Y133785D01*
G54D13*
X572841Y133785D02*
X556966Y133785D01*
G54D13*
X559348Y130610D02*
X570460Y130610D01*
G54D13*
X567285Y127435D02*
X562523Y127435D01*
G54D11*
X438150Y133450D02*
X514350Y133450D01*
G54D12*
X241300Y177800D02*
X241300Y195578D01*
X247967Y195578D01*
X250633Y194467D01*
X251967Y192244D01*
X251967Y190022D01*
X250633Y187800D01*
X247967Y186689D01*
X250633Y185578D01*
X251967Y183356D01*
X251967Y181133D01*
X250633Y178911D01*
X247967Y177800D01*
X241300Y177800D01*
G54D12*
X241300Y186689D02*
X247967Y186689D01*
G54D12*
X256856Y177800D02*
X256856Y195578D01*
X263523Y195578D01*
X266189Y194467D01*
X267523Y192244D01*
X267523Y190022D01*
X266189Y187800D01*
X263523Y186689D01*
X256856Y186689D01*
G54D12*
X272412Y177800D02*
X272412Y195578D01*
X281745Y195578D01*
G54D12*
X272412Y186689D02*
X281745Y186689D01*
G54D12*
X286634Y185578D02*
X297301Y185578D01*
G54D12*
X302190Y177800D02*
X308857Y195578D01*
X315523Y177800D01*
G54D12*
X304857Y184467D02*
X312857Y184467D01*
G54D12*
X325745Y177800D02*
X325745Y195578D01*
G54D12*
X320412Y195578D02*
X331079Y195578D01*
G54D12*
X341301Y177800D02*
X341301Y195578D01*
G54D12*
X335968Y195578D02*
X346635Y195578D01*
G54D12*
X351524Y177800D02*
X351524Y195578D01*
X362191Y177800D01*
X362191Y195578D01*
G54D10*
X304800Y12700D02*
X304800Y26033D01*
X309800Y26033D01*
X311800Y25200D01*
X312800Y23533D01*
X312800Y21867D01*
X311800Y20200D01*
X309800Y19367D01*
X311800Y18533D01*
X312800Y16867D01*
X312800Y15200D01*
X311800Y13533D01*
X309800Y12700D01*
X304800Y12700D01*
G54D10*
X304800Y19367D02*
X309800Y19367D01*
G54D10*
X316467Y12700D02*
X316467Y26033D01*
X321467Y26033D01*
X323467Y25200D01*
X324467Y23533D01*
X324467Y21867D01*
X323467Y20200D01*
X321467Y19367D01*
X316467Y19367D01*
G54D10*
X328134Y12700D02*
X328134Y26033D01*
X335134Y26033D01*
G54D10*
X328134Y19367D02*
X335134Y19367D01*
G54D10*
X338801Y18533D02*
X346801Y18533D01*
G54D10*
X350468Y12700D02*
X355468Y26033D01*
X360468Y12700D01*
G54D10*
X352468Y17700D02*
X358468Y17700D01*
G54D10*
X368135Y12700D02*
X368135Y26033D01*
G54D10*
X364135Y26033D02*
X372135Y26033D01*
G54D10*
X379802Y12700D02*
X379802Y26033D01*
G54D10*
X375802Y26033D02*
X383802Y26033D01*
G54D10*
X387469Y12700D02*
X387469Y26033D01*
X395469Y12700D01*
X395469Y26033D01*
G54D10*
X118300Y88900D02*
X118300Y102233D01*
G54D10*
X114300Y102233D02*
X122300Y102233D01*
G54D10*
X125967Y97233D02*
X130967Y102233D01*
X130967Y88900D01*
G54D10*
X359600Y88900D02*
X359600Y102233D01*
G54D10*
X355600Y102233D02*
X363600Y102233D01*
G54D10*
X375267Y88900D02*
X367267Y88900D01*
X367267Y89733D01*
X368267Y91400D01*
X374267Y96400D01*
X375267Y98067D01*
X375267Y99733D01*
X374267Y101400D01*
X372267Y102233D01*
X370267Y102233D01*
X368267Y101400D01*
X367267Y99733D01*
M02*
