; Drill file
; Format: 2.4 (00.0000)
M48
INCH
T01C0.0354
T02C0.0394
T03C0.1181
%
G05
G90
T01
X002300Y002470
X004180Y002470
X005000Y000840
X006740Y001530
X006740Y002910
X008920Y003820
X010280Y003710
X011510Y003340
X012940Y003710
X014170Y002610
X015500Y000840
X017170Y002610
X018300Y003720
X018300Y004720
X016180Y004970
X014300Y004970
X014070Y007940
X013070Y007940
X011680Y006470
X009800Y006470
X010250Y009090
X011510Y001340
X010270Y000710
X008920Y000820
X012940Y000710
X002050Y005220
X002050Y006220
X002050Y007220
X000800Y004720
X000800Y003720
T02
X004300Y005720
X006050Y005720
X007800Y005720
X007050Y007470
X005050Y007470
T03
X001000Y001090
X001000Y008840
X018000Y008590
X018000Y000840
M30
