%FSLAX34Y34*%
%MOMM*%
%LNSILK_TOP*%
G71*
G01*
%ADD10C,0.111*%
%ADD11C,0.178*%
%ADD12C,0.150*%
%ADD13C,0.167*%
%ADD14C,0.222*%
%LPD*%
G54D10*
X467500Y213316D02*
X469722Y216649D01*
X469722Y207760D01*
G54D10*
X410350Y214982D02*
X410794Y216093D01*
X411683Y216649D01*
X412572Y216649D01*
X413461Y216093D01*
X413906Y214982D01*
X413906Y213871D01*
X413461Y212760D01*
X412572Y212204D01*
X413461Y211649D01*
X413906Y210538D01*
X413906Y209427D01*
X413461Y208316D01*
X412572Y207760D01*
X411683Y207760D01*
X410794Y208316D01*
X410350Y209427D01*
G54D10*
X369456Y216649D02*
X365900Y216649D01*
X365900Y212760D01*
X366344Y212760D01*
X367233Y213316D01*
X368122Y213316D01*
X369011Y212760D01*
X369456Y211649D01*
X369456Y209427D01*
X369011Y208316D01*
X368122Y207760D01*
X367233Y207760D01*
X366344Y208316D01*
X365900Y209427D01*
G54D10*
X315100Y216649D02*
X318656Y216649D01*
X318211Y215538D01*
X317322Y213871D01*
X316433Y211649D01*
X315989Y209982D01*
X315989Y207760D01*
G54D10*
X471056Y112510D02*
X467500Y112510D01*
X467500Y113066D01*
X467944Y114177D01*
X470611Y117510D01*
X471056Y118621D01*
X471056Y119732D01*
X470611Y120843D01*
X469722Y121399D01*
X468833Y121399D01*
X467944Y120843D01*
X467500Y119732D01*
G54D10*
X419367Y112510D02*
X419367Y121399D01*
X416700Y115843D01*
X416700Y114732D01*
X420256Y114732D01*
G54D10*
X369456Y119732D02*
X369011Y120843D01*
X368122Y121399D01*
X367233Y121399D01*
X366344Y120843D01*
X365900Y119732D01*
X365900Y116954D01*
X365900Y116399D01*
X367233Y117510D01*
X368122Y117510D01*
X369011Y116954D01*
X369456Y115843D01*
X369456Y114177D01*
X369011Y113066D01*
X368122Y112510D01*
X367233Y112510D01*
X366344Y113066D01*
X365900Y114177D01*
X365900Y116954D01*
G54D10*
X317322Y116954D02*
X316433Y116954D01*
X315544Y117510D01*
X315100Y118621D01*
X315100Y119732D01*
X315544Y120843D01*
X316433Y121399D01*
X317322Y121399D01*
X318211Y120843D01*
X318656Y119732D01*
X318656Y118621D01*
X318211Y117510D01*
X317322Y116954D01*
X318211Y116399D01*
X318656Y115288D01*
X318656Y114177D01*
X318211Y113066D01*
X317322Y112510D01*
X316433Y112510D01*
X315544Y113066D01*
X315100Y114177D01*
X315100Y115288D01*
X315544Y116399D01*
X316433Y116954D01*
G54D10*
X213500Y213316D02*
X215722Y216649D01*
X215722Y207760D01*
G54D10*
X156350Y214982D02*
X156795Y216093D01*
X157683Y216649D01*
X158572Y216649D01*
X159461Y216093D01*
X159906Y214982D01*
X159906Y213871D01*
X159461Y212760D01*
X158572Y212204D01*
X159461Y211649D01*
X159906Y210538D01*
X159906Y209427D01*
X159461Y208316D01*
X158572Y207760D01*
X157683Y207760D01*
X156795Y208316D01*
X156350Y209427D01*
G54D10*
X115456Y216649D02*
X111900Y216649D01*
X111900Y212760D01*
X112345Y212760D01*
X113233Y213316D01*
X114122Y213316D01*
X115011Y212760D01*
X115456Y211649D01*
X115456Y209427D01*
X115011Y208316D01*
X114122Y207760D01*
X113233Y207760D01*
X112345Y208316D01*
X111900Y209427D01*
G54D10*
X61100Y216649D02*
X64656Y216649D01*
X64211Y215538D01*
X63322Y213871D01*
X62433Y211649D01*
X61989Y209982D01*
X61989Y207760D01*
G54D10*
X217056Y112510D02*
X213500Y112510D01*
X213500Y113066D01*
X213945Y114177D01*
X216611Y117510D01*
X217056Y118621D01*
X217056Y119732D01*
X216611Y120843D01*
X215722Y121399D01*
X214833Y121399D01*
X213945Y120843D01*
X213500Y119732D01*
G54D10*
X159017Y112510D02*
X159017Y121399D01*
X156350Y115843D01*
X156350Y114732D01*
X159906Y114732D01*
G54D10*
X115456Y119732D02*
X115011Y120843D01*
X114122Y121399D01*
X113233Y121399D01*
X112345Y120843D01*
X111900Y119732D01*
X111900Y116954D01*
X111900Y116399D01*
X113233Y117510D01*
X114122Y117510D01*
X115011Y116954D01*
X115456Y115843D01*
X115456Y114177D01*
X115011Y113066D01*
X114122Y112510D01*
X113233Y112510D01*
X112345Y113066D01*
X111900Y114177D01*
X111900Y116954D01*
G54D10*
X56972Y116954D02*
X56083Y116954D01*
X55194Y117510D01*
X54750Y118621D01*
X54750Y119732D01*
X55194Y120843D01*
X56083Y121399D01*
X56972Y121399D01*
X57861Y120843D01*
X58306Y119732D01*
X58306Y118621D01*
X57861Y117510D01*
X56972Y116954D01*
X57861Y116399D01*
X58306Y115288D01*
X58306Y114177D01*
X57861Y113066D01*
X56972Y112510D01*
X56083Y112510D01*
X55194Y113066D01*
X54750Y114177D01*
X54750Y115288D01*
X55194Y116399D01*
X56083Y116954D01*
G54D11*
X353200Y156960D02*
X353200Y171182D01*
G54D11*
X358889Y156960D02*
X358889Y171182D01*
G54D11*
X353200Y164071D02*
X358889Y164071D01*
G54D11*
X362800Y156960D02*
X362800Y171182D01*
X366356Y171182D01*
X367778Y170293D01*
X368489Y168516D01*
X368489Y166738D01*
X367778Y164960D01*
X366356Y164071D01*
X362800Y164071D01*
G54D11*
X372400Y156960D02*
X372400Y171182D01*
X377378Y171182D01*
G54D11*
X372400Y164071D02*
X377378Y164071D01*
G54D11*
X381289Y163182D02*
X386978Y163182D01*
G54D11*
X396578Y171182D02*
X390889Y171182D01*
X390889Y164960D01*
X391600Y164960D01*
X393022Y165849D01*
X394445Y165849D01*
X395867Y164960D01*
X396578Y163182D01*
X396578Y159627D01*
X395867Y157849D01*
X394445Y156960D01*
X393022Y156960D01*
X391600Y157849D01*
X390889Y159627D01*
G54D11*
X406178Y168516D02*
X406178Y159627D01*
X405467Y157849D01*
X404045Y156960D01*
X402622Y156960D01*
X401200Y157849D01*
X400489Y159627D01*
X400489Y168516D01*
X401200Y170293D01*
X402622Y171182D01*
X404045Y171182D01*
X405467Y170293D01*
X406178Y168516D01*
G54D11*
X415778Y171182D02*
X410089Y171182D01*
X410089Y164960D01*
X410800Y164960D01*
X412222Y165849D01*
X413645Y165849D01*
X415067Y164960D01*
X415778Y163182D01*
X415778Y159627D01*
X415067Y157849D01*
X413645Y156960D01*
X412222Y156960D01*
X410800Y157849D01*
X410089Y159627D01*
G54D11*
X419689Y171182D02*
X426800Y156960D01*
G54D11*
X419689Y156960D02*
X426800Y171182D01*
G54D10*
X473850Y207760D02*
X473850Y216649D01*
G54D10*
X476294Y207760D02*
X476294Y216649D01*
X479405Y216649D01*
G54D10*
X476294Y212204D02*
X479405Y212204D01*
G54D10*
X418478Y212204D02*
X419811Y211093D01*
X420256Y209982D01*
X420256Y207760D01*
G54D10*
X416700Y207760D02*
X416700Y216649D01*
X418922Y216649D01*
X419811Y216093D01*
X420256Y214982D01*
X420256Y213871D01*
X419811Y212760D01*
X418922Y212204D01*
X416700Y212204D01*
G54D10*
X422700Y207760D02*
X422700Y216649D01*
X425811Y216649D01*
G54D10*
X422700Y212204D02*
X425811Y212204D01*
G54D10*
X424828Y116954D02*
X426161Y115843D01*
X426606Y114732D01*
X426606Y112510D01*
G54D10*
X423050Y112510D02*
X423050Y121399D01*
X425272Y121399D01*
X426161Y120843D01*
X426606Y119732D01*
X426606Y118621D01*
X426161Y117510D01*
X425272Y116954D01*
X423050Y116954D01*
G54D10*
X429050Y112510D02*
X429050Y121399D01*
X432161Y121399D01*
G54D10*
X429050Y116954D02*
X432161Y116954D01*
G54D10*
X321450Y121399D02*
X321450Y112510D01*
X324561Y112510D01*
G54D10*
X330561Y119732D02*
X330561Y114177D01*
X330116Y113066D01*
X329227Y112510D01*
X328338Y112510D01*
X327449Y113066D01*
X327005Y114177D01*
X327005Y119732D01*
X327449Y120843D01*
X328338Y121399D01*
X329227Y121399D01*
X330116Y120843D01*
X330561Y119732D01*
G54D11*
X118250Y159627D02*
X118961Y157849D01*
X120383Y156960D01*
X121806Y156960D01*
X123228Y157849D01*
X123939Y159627D01*
X123939Y161404D01*
X123228Y163182D01*
X121806Y164071D01*
X120383Y164071D01*
X118961Y164960D01*
X118250Y166738D01*
X118250Y168516D01*
X118961Y170293D01*
X120383Y171182D01*
X121806Y171182D01*
X123228Y170293D01*
X123939Y168516D01*
G54D11*
X127850Y156960D02*
X127850Y171182D01*
X131406Y171182D01*
X132828Y170293D01*
X133539Y168516D01*
X133539Y166738D01*
X132828Y164960D01*
X131406Y164071D01*
X132828Y163182D01*
X133539Y161404D01*
X133539Y159627D01*
X132828Y157849D01*
X131406Y156960D01*
X127850Y156960D01*
G54D11*
X127850Y164071D02*
X131406Y164071D01*
G54D11*
X137450Y171182D02*
X137450Y156960D01*
X142428Y156960D01*
G54D11*
X146339Y163182D02*
X152028Y163182D01*
G54D11*
X155939Y165849D02*
X159495Y171182D01*
X159495Y156960D01*
G54D10*
X61100Y121399D02*
X61100Y112510D01*
X64211Y112510D01*
G54D10*
X70211Y119732D02*
X70211Y114177D01*
X69766Y113066D01*
X68877Y112510D01*
X67988Y112510D01*
X67099Y113066D01*
X66655Y114177D01*
X66655Y119732D01*
X67099Y120843D01*
X67988Y121399D01*
X68877Y121399D01*
X69766Y120843D01*
X70211Y119732D01*
G54D10*
X221628Y212204D02*
X222961Y211093D01*
X223406Y209982D01*
X223406Y207760D01*
G54D10*
X219850Y207760D02*
X219850Y216649D01*
X222072Y216649D01*
X222961Y216093D01*
X223406Y214982D01*
X223406Y213871D01*
X222961Y212760D01*
X222072Y212204D01*
X219850Y212204D01*
G54D10*
X225850Y207760D02*
X225850Y216649D01*
X228961Y216649D01*
G54D10*
X225850Y212204D02*
X228961Y212204D01*
G54D10*
X162700Y207760D02*
X162700Y216649D01*
G54D10*
X165144Y207760D02*
X165144Y216649D01*
X168255Y216649D01*
G54D10*
X165144Y212204D02*
X168255Y212204D01*
G54D10*
X162700Y112510D02*
X162700Y121399D01*
G54D10*
X165144Y112510D02*
X165144Y121399D01*
X168255Y121399D01*
G54D10*
X165144Y116954D02*
X168255Y116954D01*
G54D10*
X315100Y73616D02*
X317322Y76949D01*
X317322Y68060D01*
G54D10*
X321544Y72504D02*
X322877Y71393D01*
X323322Y70282D01*
X323322Y68060D01*
G54D10*
X319766Y68060D02*
X319766Y76949D01*
X321988Y76949D01*
X322877Y76393D01*
X323322Y75282D01*
X323322Y74171D01*
X322877Y73060D01*
X321988Y72504D01*
X319766Y72504D01*
G54D10*
X325766Y68060D02*
X325766Y76949D01*
X328877Y76949D01*
G54D10*
X325766Y72504D02*
X328877Y72504D01*
G54D10*
X293256Y68060D02*
X289700Y68060D01*
X289700Y68616D01*
X290144Y69727D01*
X292811Y73060D01*
X293256Y74171D01*
X293256Y75282D01*
X292811Y76393D01*
X291922Y76949D01*
X291033Y76949D01*
X290144Y76393D01*
X289700Y75282D01*
G54D10*
X295700Y68060D02*
X295700Y76949D01*
G54D10*
X298144Y68060D02*
X298144Y76949D01*
X301255Y76949D01*
G54D10*
X298144Y72504D02*
X301255Y72504D01*
G54D10*
X264300Y75282D02*
X264744Y76393D01*
X265633Y76949D01*
X266522Y76949D01*
X267411Y76393D01*
X267856Y75282D01*
X267856Y74171D01*
X267411Y73060D01*
X266522Y72504D01*
X267411Y71949D01*
X267856Y70838D01*
X267856Y69727D01*
X267411Y68616D01*
X266522Y68060D01*
X265633Y68060D01*
X264744Y68616D01*
X264300Y69727D01*
G54D10*
X241567Y68060D02*
X241567Y76949D01*
X238900Y71393D01*
X238900Y70282D01*
X242456Y70282D01*
G54D10*
X244900Y76949D02*
X244900Y68060D01*
X248011Y68060D01*
G54D10*
X254011Y75282D02*
X254011Y69727D01*
X253566Y68616D01*
X252677Y68060D01*
X251788Y68060D01*
X250899Y68616D01*
X250455Y69727D01*
X250455Y75282D01*
X250899Y76393D01*
X251788Y76949D01*
X252677Y76949D01*
X253566Y76393D01*
X254011Y75282D01*
G54D12*
X35700Y226810D02*
X238900Y226810D01*
X238900Y112510D01*
X35700Y112510D01*
X35700Y226810D01*
G54D12*
X289700Y226810D02*
X480200Y226810D01*
X480200Y112510D01*
X289700Y112510D01*
X289700Y226810D01*
G54D12*
X213500Y80760D02*
X340500Y80760D01*
X340500Y4560D01*
X213500Y4560D01*
X213500Y80760D01*
G54D13*
X260617Y10910D02*
X260617Y24243D01*
G54D13*
X257950Y24243D02*
X263283Y24243D01*
G54D13*
X266950Y10910D02*
X266950Y24243D01*
X271617Y24243D01*
G54D13*
X266950Y17577D02*
X271617Y17577D01*
G54D13*
X275284Y10910D02*
X275284Y24243D01*
X278617Y15910D01*
X281951Y24243D01*
X281951Y10910D01*
G54D13*
X285618Y16743D02*
X290951Y16743D01*
G54D13*
X294618Y16743D02*
X299951Y16743D01*
G54D13*
X297285Y20077D02*
X297285Y13410D01*
G54D13*
X295285Y19243D02*
X299285Y14243D01*
G54D13*
X295285Y14243D02*
X299285Y19243D01*
G54D13*
X407200Y236310D02*
X407200Y249643D01*
G54D13*
X410867Y236310D02*
X410867Y249643D01*
X417867Y249643D01*
G54D13*
X410867Y242977D02*
X417867Y242977D01*
G54D13*
X42900Y281077D02*
X45900Y279410D01*
X46900Y277743D01*
X46900Y274410D01*
G54D13*
X38900Y274410D02*
X38900Y287743D01*
X43900Y287743D01*
X45900Y286910D01*
X46900Y285243D01*
X46900Y283577D01*
X45900Y281910D01*
X43900Y281077D01*
X38900Y281077D01*
G54D13*
X50567Y274410D02*
X50567Y287743D01*
X57567Y287743D01*
G54D13*
X50567Y281077D02*
X57567Y281077D01*
G54D13*
X115100Y287743D02*
X115100Y274410D01*
X122100Y274410D01*
G54D13*
X133767Y285243D02*
X133767Y276910D01*
X132767Y275243D01*
X130767Y274410D01*
X128767Y274410D01*
X126767Y275243D01*
X125767Y276910D01*
X125767Y285243D01*
X126767Y286910D01*
X128767Y287743D01*
X130767Y287743D01*
X132767Y286910D01*
X133767Y285243D01*
G54D11*
X165100Y279400D02*
X165100Y293622D01*
X170433Y293622D01*
X172567Y292733D01*
X173633Y290956D01*
X173633Y282067D01*
X172567Y280289D01*
X170433Y279400D01*
X165100Y279400D01*
G54D11*
X177544Y285622D02*
X186077Y285622D01*
G54D11*
X189988Y279400D02*
X189988Y293622D01*
X195321Y293622D01*
X197455Y292733D01*
X198521Y290956D01*
X198521Y289178D01*
X197455Y287400D01*
X195321Y286511D01*
X197455Y285622D01*
X198521Y283844D01*
X198521Y282067D01*
X197455Y280289D01*
X195321Y279400D01*
X189988Y279400D01*
G54D11*
X189988Y286511D02*
X195321Y286511D01*
G54D11*
X202432Y279400D02*
X207765Y293622D01*
X213099Y279400D01*
G54D11*
X204565Y284733D02*
X210965Y284733D01*
G54D11*
X217010Y293622D02*
X217010Y279400D01*
X224477Y279400D01*
G54D11*
X228388Y285622D02*
X236921Y285622D01*
G54D11*
X240832Y279400D02*
X240832Y293622D01*
X246165Y284733D01*
X251499Y293622D01*
X251499Y279400D01*
G54D11*
X255410Y279400D02*
X255410Y293622D01*
G54D11*
X259321Y293622D02*
X269988Y279400D01*
G54D11*
X259321Y279400D02*
X269988Y293622D01*
G54D11*
X281366Y279400D02*
X273899Y279400D01*
X273899Y293622D01*
X281366Y293622D01*
G54D11*
X273899Y286511D02*
X281366Y286511D01*
G54D11*
X289544Y286511D02*
X292744Y284733D01*
X293810Y282956D01*
X293810Y279400D01*
G54D11*
X285277Y279400D02*
X285277Y293622D01*
X290610Y293622D01*
X292744Y292733D01*
X293810Y290956D01*
X293810Y289178D01*
X292744Y287400D01*
X290610Y286511D01*
X285277Y286511D01*
G54D11*
X297721Y285622D02*
X306254Y285622D01*
G54D11*
X310165Y279400D02*
X315498Y293622D01*
X320832Y279400D01*
G54D11*
X312298Y284733D02*
X318698Y284733D01*
G54D11*
X324743Y279400D02*
X324743Y293622D01*
X330076Y293622D01*
X332210Y292733D01*
X333276Y290956D01*
X333276Y282067D01*
X332210Y280289D01*
X330076Y279400D01*
X324743Y279400D01*
G54D11*
X337187Y279400D02*
X342520Y293622D01*
X347854Y279400D01*
G54D11*
X339320Y284733D02*
X345720Y284733D01*
G54D11*
X351765Y279400D02*
X351765Y293622D01*
X357098Y293622D01*
X359232Y292733D01*
X360298Y290956D01*
X360298Y289178D01*
X359232Y287400D01*
X357098Y286511D01*
X351765Y286511D01*
G54D11*
X368476Y279400D02*
X368476Y293622D01*
G54D11*
X364209Y293622D02*
X372742Y293622D01*
G54D11*
X384120Y279400D02*
X376653Y279400D01*
X376653Y293622D01*
X384120Y293622D01*
G54D11*
X376653Y286511D02*
X384120Y286511D01*
G54D11*
X392298Y286511D02*
X395498Y284733D01*
X396564Y282956D01*
X396564Y279400D01*
G54D11*
X388031Y279400D02*
X388031Y293622D01*
X393364Y293622D01*
X395498Y292733D01*
X396564Y290956D01*
X396564Y289178D01*
X395498Y287400D01*
X393364Y286511D01*
X388031Y286511D01*
G54D14*
X378967Y16033D02*
X377633Y13811D01*
X374967Y12700D01*
X372300Y12700D01*
X369633Y13811D01*
X368300Y16033D01*
X368300Y27144D01*
X369633Y29367D01*
X372300Y30478D01*
X374967Y30478D01*
X377633Y29367D01*
X378967Y27144D01*
M02*
