%FSLAX34Y34*%
%MOMM*%
%LNSOLDERMASK_TOP*%
G71*
G01*
%ADD10C,2.600*%
%ADD11C,2.600*%
%ADD12C,1.600*%
%LPD*%
X315100Y188710D02*
G54D10*
D03*
X340500Y188710D02*
G54D10*
D03*
X340500Y188710D02*
G54D10*
D03*
X365900Y188710D02*
G54D10*
D03*
X365900Y188710D02*
G54D10*
D03*
X391300Y188710D02*
G54D10*
D03*
X391300Y188710D02*
G54D10*
D03*
X416700Y188710D02*
G54D10*
D03*
X416700Y188710D02*
G54D10*
D03*
X442100Y188710D02*
G54D10*
D03*
X442100Y188710D02*
G54D10*
D03*
X467500Y188710D02*
G54D10*
D03*
X467500Y188710D02*
G54D10*
D03*
X467500Y163310D02*
G54D10*
D03*
X467500Y163310D02*
G54D10*
D03*
X467500Y137910D02*
G54D10*
D03*
X315100Y188710D02*
G54D10*
D03*
X315100Y163310D02*
G54D10*
D03*
X315100Y163310D02*
G54D10*
D03*
X315100Y137910D02*
G54D10*
D03*
X315100Y137910D02*
G54D10*
D03*
X340500Y137910D02*
G54D10*
D03*
X340500Y137910D02*
G54D10*
D03*
X365900Y137910D02*
G54D10*
D03*
X365900Y137910D02*
G54D10*
D03*
X391300Y137910D02*
G54D10*
D03*
X391300Y137910D02*
G54D10*
D03*
X416700Y137910D02*
G54D10*
D03*
X416700Y137910D02*
G54D10*
D03*
X442100Y137910D02*
G54D10*
D03*
X442100Y137910D02*
G54D10*
D03*
X467500Y137910D02*
G54D10*
D03*
X467500Y137910D02*
G54D10*
D03*
X315100Y137910D02*
G54D10*
D03*
X61100Y188710D02*
G54D10*
D03*
X86500Y188710D02*
G54D10*
D03*
X86500Y188710D02*
G54D10*
D03*
X111900Y188710D02*
G54D10*
D03*
X111900Y188710D02*
G54D10*
D03*
X137300Y188710D02*
G54D10*
D03*
X137300Y188710D02*
G54D10*
D03*
X162700Y188710D02*
G54D10*
D03*
X162700Y188710D02*
G54D10*
D03*
X188100Y188710D02*
G54D10*
D03*
X188100Y188710D02*
G54D10*
D03*
X213500Y188710D02*
G54D10*
D03*
X213500Y188710D02*
G54D10*
D03*
X213500Y163310D02*
G54D10*
D03*
X213500Y163310D02*
G54D10*
D03*
X213500Y137910D02*
G54D10*
D03*
X61100Y188710D02*
G54D10*
D03*
X61100Y163310D02*
G54D10*
D03*
X61100Y163310D02*
G54D10*
D03*
X61100Y137910D02*
G54D10*
D03*
X61100Y137910D02*
G54D10*
D03*
X86500Y137910D02*
G54D10*
D03*
X86500Y137910D02*
G54D10*
D03*
X111900Y137910D02*
G54D10*
D03*
X111900Y137910D02*
G54D10*
D03*
X137300Y137910D02*
G54D10*
D03*
X137300Y137910D02*
G54D10*
D03*
X162700Y137910D02*
G54D10*
D03*
X162700Y137910D02*
G54D10*
D03*
X188100Y137910D02*
G54D10*
D03*
X188100Y137910D02*
G54D10*
D03*
X213500Y137910D02*
G54D10*
D03*
X213500Y137910D02*
G54D10*
D03*
X61100Y137910D02*
G54D10*
D03*
X238900Y42660D02*
G54D10*
D03*
X238900Y42660D02*
G54D10*
D03*
X264300Y42660D02*
G54D10*
D03*
X264300Y42660D02*
G54D10*
D03*
X289700Y42660D02*
G54D10*
D03*
X289700Y42660D02*
G54D10*
D03*
X315100Y42660D02*
G54D10*
D03*
X315100Y42660D02*
G54D10*
D03*
X61100Y264910D02*
G54D10*
D03*
X86500Y264910D02*
G54D10*
D03*
X111900Y264910D02*
G54D10*
D03*
X454800Y264910D02*
G54D10*
D03*
X429400Y264910D02*
G54D10*
D03*
X25400Y25400D02*
G54D10*
D03*
X25400Y25400D02*
G54D11*
D03*
X482600Y25400D02*
G54D11*
D03*
G36*
X8550Y289900D02*
X29550Y289900D01*
X29550Y268900D01*
X8550Y268900D01*
X8550Y289900D01*
G37*
G36*
X8550Y86700D02*
X29550Y86700D01*
X29550Y65700D01*
X8550Y65700D01*
X8550Y86700D01*
G37*
G36*
X122850Y29550D02*
X143850Y29550D01*
X143850Y8550D01*
X122850Y8550D01*
X122850Y29550D01*
G37*
G36*
X402250Y29550D02*
X423250Y29550D01*
X423250Y8550D01*
X402250Y8550D01*
X402250Y29550D01*
G37*
G36*
X472100Y74000D02*
X493100Y74000D01*
X493100Y53000D01*
X472100Y53000D01*
X472100Y74000D01*
G37*
G36*
X478450Y289900D02*
X499450Y289900D01*
X499450Y268900D01*
X478450Y268900D01*
X478450Y289900D01*
G37*
X61100Y239510D02*
G54D12*
D03*
X111900Y239510D02*
G54D12*
D03*
X404000Y264910D02*
G54D12*
D03*
M02*
