%FSLAX34Y34*%
%MOMM*%
%LNSILK_TOP*%
G71*
G01*
%ADD10C,0.400*%
%ADD11C,0.150*%
%ADD12C,0.111*%
%ADD13C,0.200*%
%ADD14C,0.178*%
%ADD15C,0.167*%
%ADD16C,0.067*%
%LPD*%
G54D10*
X12700Y127000D02*
X139700Y127000D01*
X139700Y0D01*
X12700Y0D01*
X12700Y127000D01*
G54D11*
X-100900Y126800D02*
X-92900Y126800D01*
X-92900Y76075D01*
X-100900Y76075D01*
G54D11*
G75*
G01X-100861Y126931D02*
G03X-100861Y75931I0J-25500D01*
G01*
G54D11*
X-37400Y126800D02*
X-29400Y126800D01*
X-29400Y76075D01*
X-37400Y76075D01*
G54D11*
G75*
G01X-37361Y126931D02*
G03X-37361Y75931I0J-25500D01*
G01*
G54D12*
X-101600Y63500D02*
X-101600Y72389D01*
G54D12*
X-101600Y67056D02*
X-100933Y68167D01*
X-99600Y68500D01*
X-98267Y68167D01*
X-97600Y67056D01*
X-97600Y64833D01*
X-98267Y63722D01*
X-99600Y63500D01*
X-100933Y63722D01*
X-101600Y64833D01*
G54D11*
X-101225Y-23829D02*
X-123400Y-23829D01*
X-123400Y26871D01*
X-101225Y26871D01*
X-101225Y-23829D01*
G54D11*
X-112312Y-24029D02*
X-112312Y-31929D01*
G54D11*
X-112312Y26971D02*
X-112313Y34871D01*
G54D11*
X-37725Y-23829D02*
X-59900Y-23829D01*
X-59900Y26871D01*
X-37725Y26871D01*
X-37725Y-23829D01*
G54D11*
X-48812Y-24029D02*
X-48812Y-31929D01*
G54D11*
X-48812Y26971D02*
X-48813Y34871D01*
G54D12*
X-127000Y-8000D02*
X-127000Y-8000D01*
G54D12*
X-76200Y-8000D02*
X-76200Y-8000D01*
G54D12*
X46167Y68200D02*
X46167Y77089D01*
G54D12*
X43500Y77089D02*
X48833Y77089D01*
G54D12*
X51277Y73756D02*
X54610Y77089D01*
X54610Y68200D01*
G54D12*
X59631Y72089D02*
X64964Y72089D01*
G54D12*
X69985Y68200D02*
X69985Y77089D01*
X74652Y77089D01*
G54D12*
X69985Y72644D02*
X74652Y72644D01*
G54D12*
X79763Y68200D02*
X79763Y77089D01*
G54D12*
X77096Y77089D02*
X82429Y77089D01*
G54D12*
X84873Y75422D02*
X85540Y76533D01*
X86873Y77089D01*
X88206Y77089D01*
X89540Y76533D01*
X90206Y75422D01*
X90206Y74311D01*
X89540Y73200D01*
X88206Y72644D01*
X89540Y72089D01*
X90206Y70978D01*
X90206Y69867D01*
X89540Y68756D01*
X88206Y68200D01*
X86873Y68200D01*
X85540Y68756D01*
X84873Y69867D01*
G54D12*
X92650Y77089D02*
X97983Y77089D01*
X97317Y75978D01*
X95983Y74311D01*
X94650Y72089D01*
X93983Y70422D01*
X93983Y68200D01*
G54D12*
X100427Y72089D02*
X105760Y72089D01*
G54D12*
X112204Y68200D02*
X112204Y77089D01*
X108204Y71533D01*
X108204Y70422D01*
X113537Y70422D01*
G54D12*
X115981Y75422D02*
X116648Y76533D01*
X117981Y77089D01*
X119314Y77089D01*
X120648Y76533D01*
X121314Y75422D01*
X121314Y74311D01*
X120648Y73200D01*
X119314Y72644D01*
X120648Y72089D01*
X121314Y70978D01*
X121314Y69867D01*
X120648Y68756D01*
X119314Y68200D01*
X117981Y68200D01*
X116648Y68756D01*
X115981Y69867D01*
G54D12*
X-50800Y63500D02*
X-50800Y72389D01*
G54D12*
X-50800Y67056D02*
X-50133Y68167D01*
X-48800Y68500D01*
X-47467Y68167D01*
X-46800Y67056D01*
X-46800Y64833D01*
X-47467Y63722D01*
X-48800Y63500D01*
X-50133Y63722D01*
X-50800Y64833D01*
G54D11*
X191200Y-108150D02*
X199200Y-108150D01*
X199200Y-158875D01*
X191200Y-158875D01*
G54D11*
G75*
G01X184889Y-108019D02*
G03X184889Y-159019I0J-25500D01*
G01*
G54D12*
X-135700Y89456D02*
X-136767Y88900D01*
X-138100Y88900D01*
X-139433Y89456D01*
X-139700Y90567D01*
X-139700Y92456D01*
X-139033Y93567D01*
X-137700Y93900D01*
X-136367Y93567D01*
X-135700Y92789D01*
X-135700Y91678D01*
X-139700Y91678D01*
G54D12*
X-72200Y89456D02*
X-73267Y88900D01*
X-74600Y88900D01*
X-75933Y89456D01*
X-76200Y90567D01*
X-76200Y92456D01*
X-75533Y93567D01*
X-74200Y93900D01*
X-72867Y93567D01*
X-72200Y92789D01*
X-72200Y91678D01*
X-76200Y91678D01*
G54D11*
X-35386Y-65126D02*
X-60786Y-65126D01*
X-60786Y-136726D01*
X-35386Y-136726D01*
X-35386Y-65126D01*
G54D12*
X-50800Y-109600D02*
X-50800Y-109600D01*
G54D11*
X-150864Y-87002D02*
X-150864Y-64827D01*
X-100164Y-64827D01*
X-100164Y-87002D01*
X-150864Y-87002D01*
G54D11*
X-151064Y-75914D02*
X-158964Y-75914D01*
G54D11*
X-100064Y-75914D02*
X-92164Y-75914D01*
G54D12*
X-135035Y-61227D02*
X-135035Y-61227D01*
G54D11*
X-152025Y14271D02*
X-174200Y14271D01*
X-174200Y64971D01*
X-152025Y64971D01*
X-152025Y14271D01*
G54D11*
X-163112Y14071D02*
X-163112Y6171D01*
G54D11*
X-163112Y65071D02*
X-163113Y72971D01*
G54D12*
X-177800Y30100D02*
X-177800Y30100D01*
G54D11*
X-106414Y198748D02*
X-106414Y220923D01*
X-55714Y220923D01*
X-55714Y198748D01*
X-106414Y198748D01*
G54D11*
X-106614Y209836D02*
X-114514Y209836D01*
G54D11*
X-55614Y209836D02*
X-47714Y209836D01*
G54D12*
X-58835Y224523D02*
X-58835Y224523D01*
G54D11*
X-106414Y160648D02*
X-106414Y182823D01*
X-55714Y182823D01*
X-55714Y160648D01*
X-106414Y160648D01*
G54D11*
X-106614Y171736D02*
X-114514Y171736D01*
G54D11*
X-55614Y171736D02*
X-47714Y171736D01*
G54D12*
X-90585Y186423D02*
X-90585Y186423D01*
G54D11*
X15414Y226974D02*
X-9986Y226974D01*
X-9986Y155374D01*
X15414Y155374D01*
X15414Y226974D01*
G54D12*
X0Y182500D02*
X0Y182500D01*
G54D11*
X63176Y149808D02*
X63176Y171983D01*
X113876Y171983D01*
X113876Y149808D01*
X63176Y149808D01*
G54D11*
X62976Y160896D02*
X55076Y160896D01*
G54D11*
X113976Y160896D02*
X121876Y160896D01*
G54D12*
X79005Y188283D02*
X79005Y188283D01*
G54D11*
X205914Y99974D02*
X180514Y99974D01*
X180514Y28374D01*
X205914Y28374D01*
X205914Y99974D01*
G54D11*
X102787Y-48260D02*
X102787Y-22859D01*
X31186Y-22860D01*
X31187Y-48260D01*
X102787Y-48260D01*
G54D12*
X58313Y-32846D02*
X58313Y-32846D01*
G54D11*
X280936Y-112402D02*
X280936Y-90226D01*
X331636Y-90226D01*
X331636Y-112402D01*
X280936Y-112402D01*
G54D11*
X280736Y-101314D02*
X272836Y-101314D01*
G54D11*
X331736Y-101314D02*
X339636Y-101314D01*
G54D11*
X101975Y-138129D02*
X79800Y-138129D01*
X79800Y-87429D01*
X101975Y-87429D01*
X101975Y-138129D01*
G54D11*
X90888Y-138329D02*
X90888Y-146229D01*
G54D11*
X90888Y-87329D02*
X90887Y-79429D01*
G54D11*
X51175Y-138129D02*
X29000Y-138129D01*
X29000Y-87429D01*
X51175Y-87429D01*
X51175Y-138129D01*
G54D11*
X40088Y-138329D02*
X40088Y-146229D01*
G54D11*
X40088Y-87329D02*
X40087Y-79429D01*
G54D11*
X204736Y-61602D02*
X204736Y-39427D01*
X255436Y-39426D01*
X255436Y-61602D01*
X204736Y-61602D01*
G54D11*
X204536Y-50514D02*
X196636Y-50514D01*
G54D11*
X255536Y-50514D02*
X263436Y-50514D01*
G54D11*
X280936Y-150502D02*
X280936Y-128326D01*
X331636Y-128326D01*
X331636Y-150502D01*
X280936Y-150502D01*
G54D11*
X280736Y-139414D02*
X272836Y-139414D01*
G54D11*
X331736Y-139414D02*
X339636Y-139414D01*
G54D11*
X255186Y-22860D02*
X255187Y2541D01*
X183586Y2540D01*
X183587Y-22860D01*
X255186Y-22860D01*
G54D12*
X210713Y-7446D02*
X210713Y-7446D01*
G54D11*
X358314Y188874D02*
X332914Y188874D01*
X332914Y117274D01*
X358314Y117274D01*
X358314Y188874D01*
G54D12*
X342900Y144400D02*
X342900Y144400D01*
G54D10*
X254000Y125350D02*
X292100Y125350D01*
X292100Y23750D01*
X254000Y23750D01*
X254000Y125350D01*
G54D11*
X215268Y152637D02*
X215268Y174812D01*
X265968Y174812D01*
X265968Y152637D01*
X215268Y152637D01*
G54D11*
X215068Y163724D02*
X207168Y163724D01*
G54D11*
X266068Y163725D02*
X273968Y163725D01*
G54D11*
X-160486Y188374D02*
X-185886Y188374D01*
X-185886Y116774D01*
X-160486Y116774D01*
X-160486Y188374D01*
G54D13*
X208300Y230714D02*
X217900Y230714D01*
G54D13*
X213100Y234714D02*
X213100Y226714D01*
G54D13*
X222300Y239714D02*
X228300Y223714D01*
X234300Y239714D01*
G54D11*
X137704Y220488D02*
X137704Y245888D01*
X188504Y245888D01*
X188504Y220488D01*
X137704Y220488D01*
G54D13*
X130371Y233717D02*
X124020Y233717D01*
G54D13*
X124020Y225780D02*
X124021Y241655D01*
G54D13*
X120846Y239273D02*
X120846Y228161D01*
G54D13*
X117671Y231336D02*
X117671Y236098D01*
G54D14*
X-185001Y-121884D02*
X-181801Y-123662D01*
X-180734Y-125440D01*
X-180734Y-128995D01*
G54D14*
X-189268Y-128995D02*
X-189268Y-114773D01*
X-183934Y-114773D01*
X-181801Y-115662D01*
X-180734Y-117440D01*
X-180734Y-119218D01*
X-181801Y-120995D01*
X-183934Y-121884D01*
X-189268Y-121884D01*
G54D14*
X-176824Y-128995D02*
X-176824Y-114773D01*
X-169357Y-114773D01*
G54D14*
X-176824Y-121884D02*
X-169357Y-121884D01*
G54D14*
X-165446Y-122773D02*
X-156912Y-122773D01*
G54D14*
X-148878Y-128995D02*
X-148878Y-114773D01*
X-143544Y-114773D01*
X-141411Y-115662D01*
X-140344Y-117440D01*
X-140344Y-126329D01*
X-141411Y-128106D01*
X-143544Y-128995D01*
X-148878Y-128995D01*
G54D14*
X-132167Y-121884D02*
X-128967Y-123662D01*
X-127900Y-125440D01*
X-127900Y-128995D01*
G54D14*
X-136434Y-128995D02*
X-136434Y-114773D01*
X-131100Y-114773D01*
X-128967Y-115662D01*
X-127900Y-117440D01*
X-127900Y-119218D01*
X-128967Y-120995D01*
X-131100Y-121884D01*
X-136434Y-121884D01*
G54D14*
X-123990Y-128995D02*
X-123990Y-114773D01*
G54D14*
X-120079Y-114773D02*
X-114745Y-128995D01*
X-109412Y-114773D01*
G54D14*
X-98034Y-128995D02*
X-105501Y-128995D01*
X-105501Y-114773D01*
X-98034Y-114773D01*
G54D14*
X-105501Y-121884D02*
X-98034Y-121884D01*
G54D14*
X-89856Y-121884D02*
X-86656Y-123662D01*
X-85589Y-125440D01*
X-85589Y-128995D01*
G54D14*
X-94123Y-128995D02*
X-94123Y-114773D01*
X-88789Y-114773D01*
X-86656Y-115662D01*
X-85589Y-117440D01*
X-85589Y-119218D01*
X-86656Y-120995D01*
X-88789Y-121884D01*
X-94123Y-121884D01*
G54D15*
X116750Y-104850D02*
X108750Y-104850D01*
X108750Y-104017D01*
X109750Y-102350D01*
X115750Y-97350D01*
X116750Y-95683D01*
X116750Y-94017D01*
X115750Y-92350D01*
X113750Y-91517D01*
X111750Y-91517D01*
X109750Y-92350D01*
X108750Y-94017D01*
G54D15*
X120417Y-104850D02*
X120417Y-91517D01*
X128417Y-104850D01*
X128417Y-91517D01*
G54D15*
X140084Y-91517D02*
X132084Y-91517D01*
X132084Y-97350D01*
X133084Y-97350D01*
X135084Y-96517D01*
X137084Y-96517D01*
X139084Y-97350D01*
X140084Y-99017D01*
X140084Y-102350D01*
X139084Y-104017D01*
X137084Y-104850D01*
X135084Y-104850D01*
X133084Y-104017D01*
X132084Y-102350D01*
G54D15*
X143751Y-102350D02*
X144751Y-104017D01*
X146751Y-104850D01*
X148751Y-104850D01*
X150751Y-104017D01*
X151751Y-102350D01*
X151751Y-98183D01*
X151751Y-97350D01*
X148751Y-99017D01*
X146751Y-99017D01*
X144751Y-98183D01*
X143751Y-96517D01*
X143751Y-94017D01*
X144751Y-92350D01*
X146751Y-91517D01*
X148751Y-91517D01*
X150751Y-92350D01*
X151751Y-94017D01*
X151751Y-98183D01*
G54D15*
X163418Y-94017D02*
X163418Y-102350D01*
X162418Y-104017D01*
X160418Y-104850D01*
X158418Y-104850D01*
X156418Y-104017D01*
X155418Y-102350D01*
X155418Y-94017D01*
X156418Y-92350D01*
X158418Y-91517D01*
X160418Y-91517D01*
X162418Y-92350D01*
X163418Y-94017D01*
G54D15*
X167085Y-96517D02*
X172085Y-91517D01*
X172085Y-104850D01*
G54D12*
X181800Y-177244D02*
X180733Y-177800D01*
X179400Y-177800D01*
X178067Y-177244D01*
X177800Y-176133D01*
X177800Y-174244D01*
X178467Y-173133D01*
X179800Y-172800D01*
X181133Y-173133D01*
X181800Y-173911D01*
X181800Y-175022D01*
X177800Y-175022D01*
G54D12*
X152400Y-155100D02*
X152400Y-146211D01*
G54D12*
X152400Y-151544D02*
X153067Y-150433D01*
X154400Y-150100D01*
X155733Y-150433D01*
X156400Y-151544D01*
X156400Y-153767D01*
X155733Y-154878D01*
X154400Y-155100D01*
X153067Y-154878D01*
X152400Y-153767D01*
G54D12*
X193833Y-96933D02*
X192500Y-96600D01*
X191167Y-96933D01*
X190500Y-98044D01*
X190500Y-100267D01*
X191167Y-101378D01*
X192500Y-101600D01*
X193833Y-101378D01*
G54D12*
X-22067Y131667D02*
X-23400Y132000D01*
X-24733Y131667D01*
X-25400Y130556D01*
X-25400Y128333D01*
X-24733Y127222D01*
X-23400Y127000D01*
X-22067Y127222D01*
G54D12*
X-85567Y131667D02*
X-86900Y132000D01*
X-88233Y131667D01*
X-88900Y130556D01*
X-88900Y128333D01*
X-88233Y127222D01*
X-86900Y127000D01*
X-85567Y127222D01*
G54D10*
X175975Y233175D02*
X175975Y210249D01*
X126630Y160904D01*
G54D10*
X175975Y233175D02*
X175975Y190280D01*
X202472Y163783D01*
G54D12*
X195975Y193175D02*
X195975Y202064D01*
X200642Y202064D01*
G54D12*
X195975Y197619D02*
X200642Y197619D01*
G54D12*
X207086Y193731D02*
X206019Y193175D01*
X204686Y193175D01*
X203353Y193731D01*
X203086Y194842D01*
X203086Y196731D01*
X203753Y197842D01*
X205086Y198175D01*
X206419Y197842D01*
X207086Y197064D01*
X207086Y195953D01*
X203086Y195953D01*
G54D12*
X209530Y193175D02*
X209530Y198175D01*
G54D12*
X209530Y197064D02*
X210863Y198175D01*
X212197Y198175D01*
G54D12*
X214641Y193175D02*
X214641Y198175D01*
G54D12*
X214641Y197064D02*
X215974Y198175D01*
X217308Y198175D01*
G54D12*
X219752Y193175D02*
X219752Y198175D01*
G54D12*
X219752Y199842D02*
X219752Y199842D01*
G54D12*
X223529Y202064D02*
X223529Y193731D01*
X224196Y193175D01*
X224863Y193397D01*
G54D12*
X222196Y198175D02*
X224863Y198175D01*
G54D12*
X231307Y193731D02*
X230240Y193175D01*
X228907Y193175D01*
X227574Y193731D01*
X227307Y194842D01*
X227307Y196731D01*
X227974Y197842D01*
X229307Y198175D01*
X230640Y197842D01*
X231307Y197064D01*
X231307Y195953D01*
X227307Y195953D01*
G54D12*
X105975Y193175D02*
X105975Y202064D01*
X110642Y202064D01*
G54D12*
X105975Y197619D02*
X110642Y197619D01*
G54D12*
X117086Y193731D02*
X116019Y193175D01*
X114686Y193175D01*
X113353Y193731D01*
X113086Y194842D01*
X113086Y196731D01*
X113753Y197842D01*
X115086Y198175D01*
X116419Y197842D01*
X117086Y197064D01*
X117086Y195953D01*
X113086Y195953D01*
G54D12*
X119530Y193175D02*
X119530Y198175D01*
G54D12*
X119530Y197064D02*
X120863Y198175D01*
X122197Y198175D01*
G54D12*
X124641Y193175D02*
X124641Y198175D01*
G54D12*
X124641Y197064D02*
X125974Y198175D01*
X127308Y198175D01*
G54D12*
X129752Y193175D02*
X129752Y198175D01*
G54D12*
X129752Y199842D02*
X129752Y199842D01*
G54D12*
X133529Y202064D02*
X133529Y193731D01*
X134196Y193175D01*
X134863Y193397D01*
G54D12*
X132196Y198175D02*
X134863Y198175D01*
G54D12*
X141307Y193731D02*
X140240Y193175D01*
X138907Y193175D01*
X137574Y193731D01*
X137307Y194842D01*
X137307Y196731D01*
X137974Y197842D01*
X139307Y198175D01*
X140640Y197842D01*
X141307Y197064D01*
X141307Y195953D01*
X137307Y195953D01*
G54D10*
X-48107Y-156322D02*
X34632Y-156322D01*
X40029Y-150925D01*
G54D12*
X-24025Y-146825D02*
X-24025Y-137936D01*
X-19358Y-137936D01*
G54D12*
X-24025Y-142381D02*
X-19358Y-142381D01*
G54D12*
X-12914Y-146269D02*
X-13981Y-146825D01*
X-15314Y-146825D01*
X-16647Y-146269D01*
X-16914Y-145158D01*
X-16914Y-143269D01*
X-16247Y-142158D01*
X-14914Y-141825D01*
X-13581Y-142158D01*
X-12914Y-142936D01*
X-12914Y-144047D01*
X-16914Y-144047D01*
G54D12*
X-10470Y-146825D02*
X-10470Y-141825D01*
G54D12*
X-10470Y-142936D02*
X-9137Y-141825D01*
X-7803Y-141825D01*
G54D12*
X-5359Y-146825D02*
X-5359Y-141825D01*
G54D12*
X-5359Y-142936D02*
X-4026Y-141825D01*
X-2692Y-141825D01*
G54D12*
X-248Y-146825D02*
X-248Y-141825D01*
G54D12*
X-248Y-140158D02*
X-248Y-140158D01*
G54D12*
X3529Y-137936D02*
X3529Y-146269D01*
X4196Y-146825D01*
X4863Y-146603D01*
G54D12*
X2196Y-141825D02*
X4863Y-141825D01*
G54D12*
X11307Y-146269D02*
X10240Y-146825D01*
X8907Y-146825D01*
X7574Y-146269D01*
X7307Y-145158D01*
X7307Y-143269D01*
X7974Y-142158D01*
X9307Y-141825D01*
X10640Y-142158D01*
X11307Y-142936D01*
X11307Y-144047D01*
X7307Y-144047D01*
G54D11*
X324614Y14874D02*
X299214Y14874D01*
X299214Y-56726D01*
X324614Y-56726D01*
X324614Y14874D01*
G54D12*
X309200Y-29600D02*
X309200Y-29600D01*
G54D12*
X-204971Y34075D02*
X-204971Y42964D01*
G54D12*
X-202527Y34075D02*
X-202527Y42964D01*
X-197194Y34075D01*
X-197194Y42964D01*
G54D12*
X350362Y41297D02*
X350362Y35742D01*
X349696Y34631D01*
X348362Y34075D01*
X347029Y34075D01*
X345696Y34631D01*
X345029Y35742D01*
X345029Y41297D01*
X345696Y42408D01*
X347029Y42964D01*
X348362Y42964D01*
X349696Y42408D01*
X350362Y41297D01*
G54D12*
X352806Y42964D02*
X352806Y35742D01*
X353473Y34631D01*
X354806Y34075D01*
X356139Y34075D01*
X357473Y34631D01*
X358139Y35742D01*
X358139Y42964D01*
G54D12*
X363250Y34075D02*
X363250Y42964D01*
G54D12*
X360583Y42964D02*
X365916Y42964D01*
G54D12*
X300029Y-95369D02*
X303362Y-92036D01*
X303362Y-100925D01*
G54D12*
X311139Y-92036D02*
X305806Y-92036D01*
X305806Y-95925D01*
X306473Y-95925D01*
X307806Y-95369D01*
X309139Y-95369D01*
X310473Y-95925D01*
X311139Y-97036D01*
X311139Y-99258D01*
X310473Y-100369D01*
X309139Y-100925D01*
X307806Y-100925D01*
X306473Y-100369D01*
X305806Y-99258D01*
G54D12*
X300029Y-135369D02*
X303362Y-132036D01*
X303362Y-140925D01*
G54D12*
X311139Y-132036D02*
X305806Y-132036D01*
X305806Y-135925D01*
X306473Y-135925D01*
X307806Y-135369D01*
X309139Y-135369D01*
X310473Y-135925D01*
X311139Y-137036D01*
X311139Y-139258D01*
X310473Y-140369D01*
X309139Y-140925D01*
X307806Y-140925D01*
X306473Y-140369D01*
X305806Y-139258D01*
G54D12*
X304029Y-20925D02*
X304029Y-12036D01*
X300029Y-17592D01*
X300029Y-18703D01*
X305362Y-18703D01*
G54D12*
X307806Y-12036D02*
X313139Y-12036D01*
X312473Y-13147D01*
X311139Y-14814D01*
X309806Y-17036D01*
X309139Y-18703D01*
X309139Y-20925D01*
G54D12*
X315583Y-20925D02*
X315583Y-15925D01*
G54D12*
X315583Y-17036D02*
X316250Y-16258D01*
X317583Y-15925D01*
X318916Y-16258D01*
X319583Y-17036D01*
X319583Y-20925D01*
G54D12*
X345362Y206297D02*
X345362Y200742D01*
X344696Y199631D01*
X343362Y199075D01*
X342029Y199075D01*
X340696Y199631D01*
X340029Y200742D01*
X340029Y206297D01*
X340696Y207408D01*
X342029Y207964D01*
X343362Y207964D01*
X344696Y207408D01*
X345362Y206297D01*
G54D12*
X347806Y199075D02*
X347806Y199075D01*
G54D12*
X350250Y204631D02*
X353583Y207964D01*
X353583Y199075D01*
G54D12*
X360027Y204075D02*
X360027Y199075D01*
G54D12*
X360027Y200186D02*
X359360Y199297D01*
X358027Y199075D01*
X356694Y199297D01*
X356027Y200186D01*
X356027Y204075D01*
G54D12*
X240029Y164631D02*
X243362Y167964D01*
X243362Y159075D01*
G54D12*
X251139Y159075D02*
X245806Y159075D01*
X245806Y159631D01*
X246473Y160742D01*
X250473Y164075D01*
X251139Y165186D01*
X251139Y166297D01*
X250473Y167408D01*
X249139Y167964D01*
X247806Y167964D01*
X246473Y167408D01*
X245806Y166297D01*
G54D12*
X80029Y164631D02*
X83362Y167964D01*
X83362Y159075D01*
G54D12*
X91139Y167964D02*
X85806Y167964D01*
X85806Y164075D01*
X86473Y164075D01*
X87806Y164631D01*
X89139Y164631D01*
X90473Y164075D01*
X91139Y162964D01*
X91139Y160742D01*
X90473Y159631D01*
X89139Y159075D01*
X87806Y159075D01*
X86473Y159631D01*
X85806Y160742D01*
G54D12*
X165362Y56297D02*
X165362Y50742D01*
X164696Y49631D01*
X163362Y49075D01*
X162029Y49075D01*
X160696Y49631D01*
X160029Y50742D01*
X160029Y56297D01*
X160696Y57408D01*
X162029Y57964D01*
X163362Y57964D01*
X164696Y57408D01*
X165362Y56297D01*
G54D12*
X167806Y49075D02*
X167806Y49075D01*
G54D12*
X170250Y54631D02*
X173583Y57964D01*
X173583Y49075D01*
G54D12*
X180027Y54075D02*
X180027Y49075D01*
G54D12*
X180027Y50186D02*
X179360Y49297D01*
X178027Y49075D01*
X176694Y49297D01*
X176027Y50186D01*
X176027Y54075D01*
G54D12*
X114029Y-40925D02*
X114029Y-32036D01*
X110029Y-37592D01*
X110029Y-38703D01*
X115362Y-38703D01*
G54D12*
X117806Y-32036D02*
X123139Y-32036D01*
X122473Y-33147D01*
X121139Y-34814D01*
X119806Y-37036D01*
X119139Y-38703D01*
X119139Y-40925D01*
G54D12*
X125583Y-40925D02*
X125583Y-35925D01*
G54D12*
X125583Y-37036D02*
X126250Y-36258D01*
X127583Y-35925D01*
X128916Y-36258D01*
X129583Y-37036D01*
X129583Y-40925D01*
G54D12*
X5029Y-115369D02*
X8362Y-112036D01*
X8362Y-120925D01*
G54D12*
X16139Y-113703D02*
X16139Y-119258D01*
X15473Y-120369D01*
X14139Y-120925D01*
X12806Y-120925D01*
X11473Y-120369D01*
X10806Y-119258D01*
X10806Y-113703D01*
X11473Y-112592D01*
X12806Y-112036D01*
X14139Y-112036D01*
X15473Y-112592D01*
X16139Y-113703D01*
G54D12*
X23916Y-113703D02*
X23916Y-119258D01*
X23250Y-120369D01*
X21916Y-120925D01*
X20583Y-120925D01*
X19250Y-120369D01*
X18583Y-119258D01*
X18583Y-113703D01*
X19250Y-112592D01*
X20583Y-112036D01*
X21916Y-112036D01*
X23250Y-112592D01*
X23916Y-113703D01*
G54D12*
X105029Y-113703D02*
X105696Y-112592D01*
X107029Y-112036D01*
X108362Y-112036D01*
X109696Y-112592D01*
X110362Y-113703D01*
X110362Y-114814D01*
X109696Y-115925D01*
X108362Y-116481D01*
X109696Y-117036D01*
X110362Y-118147D01*
X110362Y-119258D01*
X109696Y-120369D01*
X108362Y-120925D01*
X107029Y-120925D01*
X105696Y-120369D01*
X105029Y-119258D01*
G54D12*
X112806Y-119258D02*
X113473Y-120369D01*
X114806Y-120925D01*
X116139Y-120925D01*
X117473Y-120369D01*
X118139Y-119258D01*
X118139Y-116481D01*
X118139Y-115925D01*
X116139Y-117036D01*
X114806Y-117036D01*
X113473Y-116481D01*
X112806Y-115369D01*
X112806Y-113703D01*
X113473Y-112592D01*
X114806Y-112036D01*
X116139Y-112036D01*
X117473Y-112592D01*
X118139Y-113703D01*
X118139Y-116481D01*
G54D12*
X125916Y-113703D02*
X125916Y-119258D01*
X125250Y-120369D01*
X123916Y-120925D01*
X122583Y-120925D01*
X121250Y-120369D01*
X120583Y-119258D01*
X120583Y-113703D01*
X121250Y-112592D01*
X122583Y-112036D01*
X123916Y-112036D01*
X125250Y-112592D01*
X125916Y-113703D01*
G54D12*
X214029Y-15925D02*
X214029Y-7036D01*
X210029Y-12592D01*
X210029Y-13703D01*
X215362Y-13703D01*
G54D12*
X217806Y-7036D02*
X223139Y-7036D01*
X222473Y-8147D01*
X221139Y-9814D01*
X219806Y-12036D01*
X219139Y-13703D01*
X219139Y-15925D01*
G54D12*
X225583Y-15925D02*
X225583Y-10925D01*
G54D12*
X225583Y-12036D02*
X226250Y-11258D01*
X227583Y-10925D01*
X228916Y-11258D01*
X229583Y-12036D01*
X229583Y-15925D01*
G54D12*
X224029Y-50925D02*
X224029Y-42036D01*
X220029Y-47592D01*
X220029Y-48703D01*
X225362Y-48703D01*
G54D12*
X227806Y-42036D02*
X233139Y-42036D01*
X232473Y-43147D01*
X231139Y-44814D01*
X229806Y-47036D01*
X229139Y-48703D01*
X229139Y-50925D01*
G54D12*
X240916Y-43703D02*
X240916Y-49258D01*
X240250Y-50369D01*
X238916Y-50925D01*
X237583Y-50925D01*
X236250Y-50369D01*
X235583Y-49258D01*
X235583Y-43703D01*
X236250Y-42592D01*
X237583Y-42036D01*
X238916Y-42036D01*
X240250Y-42592D01*
X240916Y-43703D01*
G54D12*
X-175971Y199075D02*
X-175971Y207964D01*
X-179971Y202408D01*
X-179971Y201297D01*
X-174638Y201297D01*
G54D12*
X-172194Y207964D02*
X-166861Y207964D01*
X-167527Y206853D01*
X-168861Y205186D01*
X-170194Y202964D01*
X-170861Y201297D01*
X-170861Y199075D01*
G54D12*
X-164417Y199075D02*
X-164417Y204075D01*
G54D12*
X-164417Y202964D02*
X-163750Y203742D01*
X-162417Y204075D01*
X-161084Y203742D01*
X-160417Y202964D01*
X-160417Y199075D01*
G54D12*
X-169971Y34631D02*
X-166638Y37964D01*
X-166638Y29075D01*
G54D12*
X-164194Y29075D02*
X-164194Y37964D01*
G54D12*
X-162194Y32408D02*
X-160194Y29075D01*
G54D12*
X-164194Y31297D02*
X-160194Y34075D01*
G54D12*
X-84638Y177964D02*
X-89971Y177964D01*
X-89971Y174075D01*
X-89304Y174075D01*
X-87971Y174631D01*
X-86638Y174631D01*
X-85304Y174075D01*
X-84638Y172964D01*
X-84638Y170742D01*
X-85304Y169631D01*
X-86638Y169075D01*
X-87971Y169075D01*
X-89304Y169631D01*
X-89971Y170742D01*
G54D12*
X-76861Y176297D02*
X-77527Y177408D01*
X-78861Y177964D01*
X-80194Y177964D01*
X-81527Y177408D01*
X-82194Y176297D01*
X-82194Y173519D01*
X-82194Y172964D01*
X-80194Y174075D01*
X-78861Y174075D01*
X-77527Y173519D01*
X-76861Y172408D01*
X-76861Y170742D01*
X-77527Y169631D01*
X-78861Y169075D01*
X-80194Y169075D01*
X-81527Y169631D01*
X-82194Y170742D01*
X-82194Y173519D01*
G54D12*
X-69084Y176297D02*
X-69084Y170742D01*
X-69750Y169631D01*
X-71084Y169075D01*
X-72417Y169075D01*
X-73750Y169631D01*
X-74417Y170742D01*
X-74417Y176297D01*
X-73750Y177408D01*
X-72417Y177964D01*
X-71084Y177964D01*
X-69750Y177408D01*
X-69084Y176297D01*
G54D12*
X-99971Y231297D02*
X-99304Y232408D01*
X-97971Y232964D01*
X-96638Y232964D01*
X-95304Y232408D01*
X-94638Y231297D01*
X-94638Y230186D01*
X-95304Y229075D01*
X-96638Y228519D01*
X-95304Y227964D01*
X-94638Y226853D01*
X-94638Y225742D01*
X-95304Y224631D01*
X-96638Y224075D01*
X-97971Y224075D01*
X-99304Y224631D01*
X-99971Y225742D01*
G54D12*
X-92194Y224075D02*
X-92194Y232964D01*
G54D12*
X-90194Y227408D02*
X-88194Y224075D01*
G54D12*
X-92194Y226297D02*
X-88194Y229075D01*
G54D12*
X-85750Y231297D02*
X-85083Y232408D01*
X-83750Y232964D01*
X-82417Y232964D01*
X-81083Y232408D01*
X-80417Y231297D01*
X-80417Y230186D01*
X-81083Y229075D01*
X-82417Y228519D01*
X-81083Y227964D01*
X-80417Y226853D01*
X-80417Y225742D01*
X-81083Y224631D01*
X-82417Y224075D01*
X-83750Y224075D01*
X-85083Y224631D01*
X-85750Y225742D01*
G54D12*
X24029Y209075D02*
X24029Y217964D01*
X20029Y212408D01*
X20029Y211297D01*
X25362Y211297D01*
G54D12*
X27806Y217964D02*
X33139Y217964D01*
X32473Y216853D01*
X31139Y215186D01*
X29806Y212964D01*
X29139Y211297D01*
X29139Y209075D01*
G54D12*
X35583Y209075D02*
X35583Y214075D01*
G54D12*
X35583Y212964D02*
X36250Y213742D01*
X37583Y214075D01*
X38916Y213742D01*
X39583Y212964D01*
X39583Y209075D01*
G54D12*
X-129638Y-73703D02*
X-129638Y-79258D01*
X-130304Y-80369D01*
X-131638Y-80925D01*
X-132971Y-80925D01*
X-134304Y-80369D01*
X-134971Y-79258D01*
X-134971Y-73703D01*
X-134304Y-72592D01*
X-132971Y-72036D01*
X-131638Y-72036D01*
X-130304Y-72592D01*
X-129638Y-73703D01*
G54D12*
X-121861Y-80925D02*
X-127194Y-80925D01*
X-127194Y-80369D01*
X-126527Y-79258D01*
X-122527Y-75925D01*
X-121861Y-74814D01*
X-121861Y-73703D01*
X-122527Y-72592D01*
X-123861Y-72036D01*
X-125194Y-72036D01*
X-126527Y-72592D01*
X-127194Y-73703D01*
G54D12*
X-114084Y-80925D02*
X-119417Y-80925D01*
X-119417Y-80369D01*
X-118750Y-79258D01*
X-114750Y-75925D01*
X-114084Y-74814D01*
X-114084Y-73703D01*
X-114750Y-72592D01*
X-116084Y-72036D01*
X-117417Y-72036D01*
X-118750Y-72592D01*
X-119417Y-73703D01*
G54D12*
X-107640Y-75925D02*
X-107640Y-80925D01*
G54D12*
X-107640Y-79814D02*
X-108307Y-80703D01*
X-109640Y-80925D01*
X-110973Y-80703D01*
X-111640Y-79814D01*
X-111640Y-75925D01*
G54D12*
X-25971Y-90925D02*
X-25971Y-82036D01*
X-29971Y-87592D01*
X-29971Y-88703D01*
X-24638Y-88703D01*
G54D12*
X-22194Y-82036D02*
X-16861Y-82036D01*
X-17527Y-83147D01*
X-18861Y-84814D01*
X-20194Y-87036D01*
X-20861Y-88703D01*
X-20861Y-90925D01*
G54D12*
X-119971Y4631D02*
X-116638Y7964D01*
X-116638Y-925D01*
G54D12*
X-108861Y6297D02*
X-108861Y742D01*
X-109527Y-369D01*
X-110861Y-925D01*
X-112194Y-925D01*
X-113527Y-369D01*
X-114194Y742D01*
X-114194Y6297D01*
X-113527Y7408D01*
X-112194Y7964D01*
X-110861Y7964D01*
X-109527Y7408D01*
X-108861Y6297D01*
G54D12*
X-101084Y6297D02*
X-101084Y742D01*
X-101750Y-369D01*
X-103084Y-925D01*
X-104417Y-925D01*
X-105750Y-369D01*
X-106417Y742D01*
X-106417Y6297D01*
X-105750Y7408D01*
X-104417Y7964D01*
X-103084Y7964D01*
X-101750Y7408D01*
X-101084Y6297D01*
G54D12*
X-59971Y4631D02*
X-56638Y7964D01*
X-56638Y-925D01*
G54D12*
X-48861Y6297D02*
X-48861Y742D01*
X-49527Y-369D01*
X-50861Y-925D01*
X-52194Y-925D01*
X-53527Y-369D01*
X-54194Y742D01*
X-54194Y6297D01*
X-53527Y7408D01*
X-52194Y7964D01*
X-50861Y7964D01*
X-49527Y7408D01*
X-48861Y6297D01*
G54D12*
X-41084Y6297D02*
X-41084Y742D01*
X-41750Y-369D01*
X-43084Y-925D01*
X-44417Y-925D01*
X-45750Y-369D01*
X-46417Y742D01*
X-46417Y6297D01*
X-45750Y7408D01*
X-44417Y7964D01*
X-43084Y7964D01*
X-41750Y7408D01*
X-41084Y6297D01*
G54D13*
X-201143Y368D02*
X-201143Y-5982D01*
G54D13*
X-193205Y-5982D02*
X-209080Y-5982D01*
G54D13*
X-206699Y-9157D02*
X-195587Y-9157D01*
G54D13*
X-198762Y-12332D02*
X-203524Y-12332D01*
G54D13*
X348857Y368D02*
X348857Y-5982D01*
G54D13*
X356794Y-5982D02*
X340920Y-5982D01*
G54D13*
X343301Y-9157D02*
X354413Y-9157D01*
G54D13*
X351238Y-12332D02*
X346476Y-12332D01*
G54D12*
X-177304Y-150925D02*
X-177304Y-142036D01*
G54D12*
X-179971Y-142036D02*
X-174638Y-142036D01*
G54D12*
X-169527Y-146481D02*
X-167527Y-147592D01*
X-166861Y-148703D01*
X-166861Y-150925D01*
G54D12*
X-172194Y-150925D02*
X-172194Y-142036D01*
X-168861Y-142036D01*
X-167527Y-142592D01*
X-166861Y-143703D01*
X-166861Y-144814D01*
X-167527Y-145925D01*
X-168861Y-146481D01*
X-172194Y-146481D01*
G54D12*
X-164417Y-145925D02*
X-159084Y-145925D01*
G54D12*
X-164417Y-148147D02*
X-159084Y-148147D01*
G54D12*
X-151307Y-150925D02*
X-156640Y-150925D01*
X-156640Y-150369D01*
X-155973Y-149258D01*
X-151973Y-145925D01*
X-151307Y-144814D01*
X-151307Y-143703D01*
X-151973Y-142592D01*
X-153307Y-142036D01*
X-154640Y-142036D01*
X-155973Y-142592D01*
X-156640Y-143703D01*
G54D12*
X-148863Y-145925D02*
X-143530Y-150925D01*
G54D12*
X-148863Y-150925D02*
X-143530Y-145925D01*
G54D12*
X-138509Y-150925D02*
X-138509Y-142036D01*
X-135176Y-147592D01*
X-131842Y-142036D01*
X-131842Y-150925D01*
G54D12*
X-129398Y-150925D02*
X-129398Y-142036D01*
X-126065Y-142036D01*
X-124731Y-142592D01*
X-124065Y-143703D01*
X-124065Y-144814D01*
X-124731Y-145925D01*
X-126065Y-146481D01*
X-129398Y-146481D01*
G54D12*
X-121621Y-149258D02*
X-120954Y-150369D01*
X-119621Y-150925D01*
X-118288Y-150925D01*
X-116954Y-150369D01*
X-116288Y-149258D01*
X-116288Y-148147D01*
X-116954Y-147036D01*
X-118288Y-146481D01*
X-119621Y-146481D01*
X-120954Y-145925D01*
X-121621Y-144814D01*
X-121621Y-143703D01*
X-120954Y-142592D01*
X-119621Y-142036D01*
X-118288Y-142036D01*
X-116954Y-142592D01*
X-116288Y-143703D01*
G54D12*
X-113844Y-150925D02*
X-113844Y-142036D01*
G54D12*
X-108511Y-150925D02*
X-108511Y-142036D01*
G54D12*
X-113844Y-146481D02*
X-108511Y-146481D01*
G54D12*
X-106067Y-145369D02*
X-102734Y-142036D01*
X-102734Y-150925D01*
G54D12*
X-94957Y-143703D02*
X-94957Y-149258D01*
X-95623Y-150369D01*
X-96957Y-150925D01*
X-98290Y-150925D01*
X-99623Y-150369D01*
X-100290Y-149258D01*
X-100290Y-143703D01*
X-99623Y-142592D01*
X-98290Y-142036D01*
X-96957Y-142036D01*
X-95623Y-142592D01*
X-94957Y-143703D01*
G54D12*
X276286Y88064D02*
X275175Y86064D01*
X274064Y85398D01*
X271842Y85398D01*
G54D12*
X271842Y90731D02*
X280731Y90731D01*
X280731Y87398D01*
X280175Y86064D01*
X279064Y85398D01*
X277953Y85398D01*
X276842Y86064D01*
X276286Y87398D01*
X276286Y90731D01*
G54D12*
X271842Y82954D02*
X280731Y82954D01*
X280731Y78287D01*
G54D12*
X276286Y82954D02*
X276286Y78287D01*
G54D12*
X273509Y70510D02*
X272398Y71176D01*
X271842Y72510D01*
X271842Y73843D01*
X272398Y75176D01*
X273509Y75843D01*
X279064Y75843D01*
X280175Y75176D01*
X280731Y73843D01*
X280731Y72510D01*
X280175Y71176D01*
X279064Y70510D01*
G54D12*
X271842Y60156D02*
X271842Y65489D01*
X272398Y65489D01*
X273509Y64822D01*
X276842Y60822D01*
X277953Y60156D01*
X279064Y60156D01*
X280175Y60822D01*
X280731Y62156D01*
X280731Y63489D01*
X280175Y64822D01*
X279064Y65489D01*
G54D12*
X271842Y52379D02*
X271842Y57712D01*
X272398Y57712D01*
X273509Y57045D01*
X276842Y53045D01*
X277953Y52379D01*
X279064Y52379D01*
X280175Y53045D01*
X280731Y54379D01*
X280731Y55712D01*
X280175Y57045D01*
X279064Y57712D01*
G54D12*
X276842Y45935D02*
X271842Y45935D01*
G54D12*
X272953Y45935D02*
X272064Y46602D01*
X271842Y47935D01*
X272064Y49268D01*
X272953Y49935D01*
X276842Y49935D01*
G54D12*
X271842Y43491D02*
X280731Y43491D01*
G54D12*
X271842Y38158D02*
X280731Y38158D01*
G54D12*
X276286Y43491D02*
X276286Y38158D01*
G54D12*
X200000Y130000D02*
X200000Y138889D01*
X204667Y138889D01*
G54D12*
X200000Y134444D02*
X204667Y134444D01*
G54D12*
X209778Y130000D02*
X209778Y138889D01*
G54D12*
X207111Y138889D02*
X212444Y138889D01*
G54D12*
X214888Y137222D02*
X215555Y138333D01*
X216888Y138889D01*
X218221Y138889D01*
X219555Y138333D01*
X220221Y137222D01*
X220221Y136111D01*
X219555Y135000D01*
X218221Y134444D01*
X219555Y133889D01*
X220221Y132778D01*
X220221Y131667D01*
X219555Y130556D01*
X218221Y130000D01*
X216888Y130000D01*
X215555Y130556D01*
X214888Y131667D01*
G54D12*
X222665Y138889D02*
X227998Y138889D01*
X227332Y137778D01*
X225998Y136111D01*
X224665Y133889D01*
X223998Y132222D01*
X223998Y130000D01*
G54D12*
X230442Y133889D02*
X235775Y133889D01*
G54D12*
X242219Y130000D02*
X242219Y138889D01*
X238219Y133333D01*
X238219Y132222D01*
X243552Y132222D01*
G54D12*
X245996Y137222D02*
X246663Y138333D01*
X247996Y138889D01*
X249329Y138889D01*
X250663Y138333D01*
X251329Y137222D01*
X251329Y136111D01*
X250663Y135000D01*
X249329Y134444D01*
X250663Y133889D01*
X251329Y132778D01*
X251329Y131667D01*
X250663Y130556D01*
X249329Y130000D01*
X247996Y130000D01*
X246663Y130556D01*
X245996Y131667D01*
G54D16*
X-208400Y100000D02*
X-208400Y105333D01*
G54D16*
X-210000Y105333D02*
X-206800Y105333D01*
G54D16*
X-205333Y103333D02*
X-203333Y105333D01*
X-203333Y100000D01*
G54D16*
X351600Y100000D02*
X351600Y105333D01*
G54D16*
X350000Y105333D02*
X353200Y105333D01*
G54D16*
X357867Y100000D02*
X354667Y100000D01*
X354667Y100333D01*
X355067Y101000D01*
X357467Y103000D01*
X357867Y103667D01*
X357867Y104333D01*
X357467Y105000D01*
X356667Y105333D01*
X355867Y105333D01*
X355067Y105000D01*
X354667Y104333D01*
M02*
