%FSLAX34Y34*%
%MOMM*%
%LNCOPPER_TOP*%
G71*
G01*
%ADD10C,2.800*%
%ADD11C,3.000*%
%ADD12C,3.200*%
%ADD13C,2.800*%
%ADD14C,3.000*%
%ADD15C,3.400*%
%ADD16C,1.600*%
%ADD17C,1.700*%
%ADD18C,3.000*%
%ADD19C,1.467*%
%ADD20C,0.667*%
%ADD21C,0.895*%
%ADD22C,0.733*%
%ADD23C,2.000*%
%ADD24C,1.800*%
%ADD25C,2.000*%
%ADD26C,2.200*%
%ADD27C,0.800*%
%ADD28C,0.900*%
%ADD29C,2.200*%
%LPD*%
G36*
X-217850Y249650D02*
X382150Y249650D01*
X382150Y-190350D01*
X-217850Y-190350D01*
X-217850Y249650D01*
G37*
%LPC*%
X0Y127000D02*
G54D10*
D03*
X152400Y127000D02*
G54D10*
D03*
X0Y0D02*
G54D10*
D03*
X152400Y0D02*
G54D10*
D03*
X-101600Y119000D02*
G54D11*
D03*
X-117500Y101425D02*
G54D11*
D03*
X-101565Y83809D02*
G54D11*
D03*
X-38100Y119000D02*
G54D11*
D03*
X-54000Y101425D02*
G54D11*
D03*
X-38065Y83809D02*
G54D11*
D03*
X-112371Y-36625D02*
G54D12*
D03*
X-112321Y39625D02*
G54D12*
D03*
X-48871Y-36625D02*
G54D12*
D03*
X-48821Y39625D02*
G54D12*
D03*
X190500Y-115950D02*
G54D11*
D03*
X149200Y-133525D02*
G54D11*
D03*
X190535Y-163841D02*
G54D11*
D03*
X-48219Y-75341D02*
G54D12*
D03*
X-48107Y-126322D02*
G54D12*
D03*
X-163660Y-75856D02*
G54D12*
D03*
X-87410Y-75906D02*
G54D12*
D03*
X-163171Y1475D02*
G54D12*
D03*
X-163121Y77725D02*
G54D12*
D03*
X-119210Y209894D02*
G54D12*
D03*
X-42960Y209844D02*
G54D12*
D03*
X-119210Y171794D02*
G54D12*
D03*
X-42960Y171744D02*
G54D12*
D03*
X2581Y216759D02*
G54D12*
D03*
X2693Y165778D02*
G54D12*
D03*
X50380Y160954D02*
G54D12*
D03*
X126630Y160904D02*
G54D12*
D03*
X193081Y89759D02*
G54D12*
D03*
X193193Y38778D02*
G54D12*
D03*
X92572Y-35426D02*
G54D12*
D03*
X41591Y-35539D02*
G54D12*
D03*
X268140Y-101256D02*
G54D12*
D03*
X344390Y-101306D02*
G54D12*
D03*
X90829Y-150925D02*
G54D12*
D03*
X90879Y-74675D02*
G54D12*
D03*
X40029Y-150925D02*
G54D12*
D03*
X40079Y-74675D02*
G54D12*
D03*
X191940Y-50456D02*
G54D12*
D03*
X268190Y-50506D02*
G54D12*
D03*
X268140Y-139356D02*
G54D12*
D03*
X344390Y-139406D02*
G54D12*
D03*
X244972Y-10026D02*
G54D12*
D03*
X193991Y-10139D02*
G54D12*
D03*
X345481Y178659D02*
G54D12*
D03*
X345593Y127678D02*
G54D12*
D03*
X193193Y38778D02*
G54D13*
D03*
X40029Y-150925D02*
G54D13*
D03*
X344390Y-101306D02*
G54D13*
D03*
X344390Y-101306D02*
G54D13*
D03*
X344390Y-139406D02*
G54D13*
D03*
X241300Y74550D02*
G54D14*
D03*
X304800Y74550D02*
G54D14*
D03*
X345593Y127678D02*
G54D13*
D03*
X202472Y163783D02*
G54D12*
D03*
X278722Y163733D02*
G54D12*
D03*
X278722Y163733D02*
G54D12*
D03*
X-163660Y-75856D02*
G54D13*
D03*
X-163171Y1475D02*
G54D13*
D03*
X-173319Y178159D02*
G54D12*
D03*
X-173207Y127178D02*
G54D12*
D03*
X150475Y233175D02*
G54D12*
D03*
X175975Y233175D02*
G54D15*
D03*
G54D16*
X-112321Y39625D02*
X-114300Y36450D01*
X-120650Y42800D01*
X-120650Y99950D01*
X-117500Y101425D01*
G54D16*
X-38065Y83809D02*
X-38100Y80900D01*
X-101600Y80900D01*
X-101565Y83809D01*
X-48107Y-126322D02*
G54D13*
D03*
X-48107Y-156322D02*
G54D13*
D03*
X-199971Y59075D02*
G54D10*
D03*
X-199971Y19075D02*
G54D10*
D03*
X311781Y4659D02*
G54D12*
D03*
X311893Y-46322D02*
G54D12*
D03*
X311893Y-46322D02*
G54D13*
D03*
X350029Y59075D02*
G54D10*
D03*
X350029Y19075D02*
G54D10*
D03*
X-210000Y90000D02*
G54D17*
D03*
X350000Y90000D02*
G54D17*
D03*
X-199274Y231487D02*
G54D18*
D03*
X360726Y231487D02*
G54D18*
D03*
X-199274Y-168513D02*
G54D18*
D03*
X360726Y-173513D02*
G54D18*
D03*
%LPD*%
G54D19*
G36*
X185860Y38778D02*
X185860Y53278D01*
X200527Y53278D01*
X200527Y38778D01*
X185860Y38778D01*
G37*
G36*
X193193Y46112D02*
X207693Y46112D01*
X207693Y31445D01*
X193193Y31445D01*
X193193Y46112D01*
G37*
G36*
X200527Y38778D02*
X200527Y24278D01*
X185860Y24278D01*
X185860Y38778D01*
X200527Y38778D01*
G37*
G36*
X193193Y31445D02*
X178693Y31445D01*
X178693Y46112D01*
X193193Y46112D01*
X193193Y31445D01*
G37*
G54D19*
G36*
X337057Y-101306D02*
X337057Y-86806D01*
X351723Y-86806D01*
X351723Y-101306D01*
X337057Y-101306D01*
G37*
G36*
X344390Y-93972D02*
X358890Y-93972D01*
X358890Y-108639D01*
X344390Y-108639D01*
X344390Y-93972D01*
G37*
G36*
X351723Y-101306D02*
X351723Y-115806D01*
X337057Y-115806D01*
X337057Y-101306D01*
X351723Y-101306D01*
G37*
G36*
X344390Y-108639D02*
X329890Y-108639D01*
X329890Y-93972D01*
X344390Y-93972D01*
X344390Y-108639D01*
G37*
G54D19*
G36*
X337057Y-101306D02*
X337057Y-86806D01*
X351723Y-86806D01*
X351723Y-101306D01*
X337057Y-101306D01*
G37*
G36*
X344390Y-93972D02*
X358890Y-93972D01*
X358890Y-108639D01*
X344390Y-108639D01*
X344390Y-93972D01*
G37*
G36*
X351723Y-101306D02*
X351723Y-115806D01*
X337057Y-115806D01*
X337057Y-101306D01*
X351723Y-101306D01*
G37*
G36*
X344390Y-108639D02*
X329890Y-108639D01*
X329890Y-93972D01*
X344390Y-93972D01*
X344390Y-108639D01*
G37*
G54D19*
G36*
X337057Y-139406D02*
X337057Y-124906D01*
X351723Y-124906D01*
X351723Y-139406D01*
X337057Y-139406D01*
G37*
G36*
X344390Y-132072D02*
X358890Y-132072D01*
X358890Y-146739D01*
X344390Y-146739D01*
X344390Y-132072D01*
G37*
G36*
X351723Y-139406D02*
X351723Y-153906D01*
X337057Y-153906D01*
X337057Y-139406D01*
X351723Y-139406D01*
G37*
G36*
X344390Y-146739D02*
X329890Y-146739D01*
X329890Y-132072D01*
X344390Y-132072D01*
X344390Y-146739D01*
G37*
G54D19*
G36*
X338260Y127678D02*
X338260Y142178D01*
X352927Y142178D01*
X352927Y127678D01*
X338260Y127678D01*
G37*
G36*
X345593Y135012D02*
X360093Y135012D01*
X360093Y120345D01*
X345593Y120345D01*
X345593Y135012D01*
G37*
G36*
X352927Y127678D02*
X352927Y113178D01*
X338260Y113178D01*
X338260Y127678D01*
X352927Y127678D01*
G37*
G36*
X345593Y120345D02*
X331093Y120345D01*
X331093Y135012D01*
X345593Y135012D01*
X345593Y120345D01*
G37*
G54D19*
G36*
X-170993Y-75856D02*
X-170993Y-61356D01*
X-156327Y-61356D01*
X-156327Y-75856D01*
X-170993Y-75856D01*
G37*
G36*
X-163660Y-68522D02*
X-149160Y-68522D01*
X-149160Y-83189D01*
X-163660Y-83189D01*
X-163660Y-68522D01*
G37*
G36*
X-156327Y-75856D02*
X-156327Y-90356D01*
X-170993Y-90356D01*
X-170993Y-75856D01*
X-156327Y-75856D01*
G37*
G36*
X-163660Y-83189D02*
X-178160Y-83189D01*
X-178160Y-68522D01*
X-163660Y-68522D01*
X-163660Y-83189D01*
G37*
G54D19*
G36*
X-170504Y1475D02*
X-170504Y15975D01*
X-155838Y15975D01*
X-155838Y1475D01*
X-170504Y1475D01*
G37*
G36*
X-163171Y8808D02*
X-148671Y8808D01*
X-148671Y-5858D01*
X-163171Y-5858D01*
X-163171Y8808D01*
G37*
G36*
X-155838Y1475D02*
X-155838Y-13025D01*
X-170504Y-13025D01*
X-170504Y1475D01*
X-155838Y1475D01*
G37*
G36*
X-163171Y-5858D02*
X-177671Y-5858D01*
X-177671Y8808D01*
X-163171Y8808D01*
X-163171Y-5858D01*
G37*
G54D20*
G36*
X147142Y233175D02*
X147142Y249675D01*
X153808Y249675D01*
X153808Y233175D01*
X147142Y233175D01*
G37*
G54D21*
G54D19*
G36*
X-55440Y-126322D02*
X-55440Y-111822D01*
X-40773Y-111822D01*
X-40773Y-126322D01*
X-55440Y-126322D01*
G37*
G36*
X-48107Y-118988D02*
X-33607Y-118988D01*
X-33607Y-133655D01*
X-48107Y-133655D01*
X-48107Y-118988D01*
G37*
G36*
X-40773Y-126322D02*
X-40773Y-140822D01*
X-55440Y-140822D01*
X-55440Y-126322D01*
X-40773Y-126322D01*
G37*
G36*
X-48107Y-133655D02*
X-62607Y-133655D01*
X-62607Y-118988D01*
X-48107Y-118988D01*
X-48107Y-133655D01*
G37*
G54D19*
G36*
X-55440Y-156322D02*
X-55440Y-141822D01*
X-40773Y-141822D01*
X-40773Y-156322D01*
X-55440Y-156322D01*
G37*
G36*
X-48107Y-148988D02*
X-33607Y-148988D01*
X-33607Y-163655D01*
X-48107Y-163655D01*
X-48107Y-148988D01*
G37*
G36*
X-40773Y-156322D02*
X-40773Y-170822D01*
X-55440Y-170822D01*
X-55440Y-156322D01*
X-40773Y-156322D01*
G37*
G36*
X-48107Y-163655D02*
X-62607Y-163655D01*
X-62607Y-148988D01*
X-48107Y-148988D01*
X-48107Y-163655D01*
G37*
G54D20*
G36*
X-203304Y19075D02*
X-203304Y33575D01*
X-196638Y33575D01*
X-196638Y19075D01*
X-203304Y19075D01*
G37*
G36*
X-199971Y22408D02*
X-185471Y22408D01*
X-185471Y15742D01*
X-199971Y15742D01*
X-199971Y22408D01*
G37*
G36*
X-196638Y19075D02*
X-196638Y4575D01*
X-203304Y4575D01*
X-203304Y19075D01*
X-196638Y19075D01*
G37*
G36*
X-199971Y15742D02*
X-214471Y15742D01*
X-214471Y22408D01*
X-199971Y22408D01*
X-199971Y15742D01*
G37*
G54D20*
G36*
X346696Y19075D02*
X346696Y33575D01*
X353362Y33575D01*
X353362Y19075D01*
X346696Y19075D01*
G37*
G36*
X350029Y22408D02*
X364529Y22408D01*
X364529Y15742D01*
X350029Y15742D01*
X350029Y22408D01*
G37*
G36*
X353362Y19075D02*
X353362Y4575D01*
X346696Y4575D01*
X346696Y19075D01*
X353362Y19075D01*
G37*
G36*
X350029Y15742D02*
X335529Y15742D01*
X335529Y22408D01*
X350029Y22408D01*
X350029Y15742D01*
G37*
G54D22*
G36*
X-202941Y231487D02*
X-202941Y246987D01*
X-195607Y246987D01*
X-195607Y231487D01*
X-202941Y231487D01*
G37*
G36*
X-199274Y235154D02*
X-183774Y235154D01*
X-183774Y227820D01*
X-199274Y227820D01*
X-199274Y235154D01*
G37*
G36*
X-195607Y231487D02*
X-195607Y215987D01*
X-202941Y215987D01*
X-202941Y231487D01*
X-195607Y231487D01*
G37*
G36*
X-199274Y227820D02*
X-214774Y227820D01*
X-214774Y235154D01*
X-199274Y235154D01*
X-199274Y227820D01*
G37*
G54D22*
G36*
X357059Y231487D02*
X357059Y246987D01*
X364393Y246987D01*
X364393Y231487D01*
X357059Y231487D01*
G37*
G36*
X360726Y235154D02*
X376226Y235154D01*
X376226Y227820D01*
X360726Y227820D01*
X360726Y235154D01*
G37*
G36*
X364393Y231487D02*
X364393Y215987D01*
X357059Y215987D01*
X357059Y231487D01*
X364393Y231487D01*
G37*
G36*
X360726Y227820D02*
X345226Y227820D01*
X345226Y235154D01*
X360726Y235154D01*
X360726Y227820D01*
G37*
G54D22*
G36*
X-202941Y-168513D02*
X-202941Y-153013D01*
X-195607Y-153013D01*
X-195607Y-168513D01*
X-202941Y-168513D01*
G37*
G36*
X-199274Y-164846D02*
X-183774Y-164846D01*
X-183774Y-172180D01*
X-199274Y-172180D01*
X-199274Y-164846D01*
G37*
G36*
X-195607Y-168513D02*
X-195607Y-184013D01*
X-202941Y-184013D01*
X-202941Y-168513D01*
X-195607Y-168513D01*
G37*
G36*
X-199274Y-172180D02*
X-214774Y-172180D01*
X-214774Y-164846D01*
X-199274Y-164846D01*
X-199274Y-172180D01*
G37*
G54D22*
G36*
X357059Y-173513D02*
X357059Y-158013D01*
X364393Y-158013D01*
X364393Y-173513D01*
X357059Y-173513D01*
G37*
G36*
X360726Y-169846D02*
X376226Y-169846D01*
X376226Y-177180D01*
X360726Y-177180D01*
X360726Y-169846D01*
G37*
G36*
X364393Y-173513D02*
X364393Y-189013D01*
X357059Y-189013D01*
X357059Y-173513D01*
X364393Y-173513D01*
G37*
G36*
X360726Y-177180D02*
X345226Y-177180D01*
X345226Y-169846D01*
X360726Y-169846D01*
X360726Y-177180D01*
G37*
X0Y127000D02*
G54D23*
D03*
X152400Y127000D02*
G54D23*
D03*
X0Y0D02*
G54D23*
D03*
X152400Y0D02*
G54D23*
D03*
X-101600Y119000D02*
G54D24*
D03*
X-117500Y101425D02*
G54D24*
D03*
X-101565Y83809D02*
G54D24*
D03*
X-38100Y119000D02*
G54D24*
D03*
X-54000Y101425D02*
G54D24*
D03*
X-38065Y83809D02*
G54D24*
D03*
X-112371Y-36625D02*
G54D23*
D03*
X-112321Y39625D02*
G54D23*
D03*
X-48871Y-36625D02*
G54D23*
D03*
X-48821Y39625D02*
G54D23*
D03*
X190500Y-115950D02*
G54D24*
D03*
X149200Y-133525D02*
G54D24*
D03*
X190535Y-163841D02*
G54D24*
D03*
X-48219Y-75341D02*
G54D23*
D03*
X-48107Y-126322D02*
G54D23*
D03*
X-163660Y-75856D02*
G54D23*
D03*
X-87410Y-75906D02*
G54D23*
D03*
X-163171Y1475D02*
G54D23*
D03*
X-163121Y77725D02*
G54D23*
D03*
X-119210Y209894D02*
G54D23*
D03*
X-42960Y209844D02*
G54D23*
D03*
X-119210Y171794D02*
G54D23*
D03*
X-42960Y171744D02*
G54D23*
D03*
X2581Y216759D02*
G54D23*
D03*
X2693Y165778D02*
G54D23*
D03*
X50380Y160954D02*
G54D23*
D03*
X126630Y160904D02*
G54D23*
D03*
X193081Y89759D02*
G54D23*
D03*
X193193Y38778D02*
G54D23*
D03*
X92572Y-35426D02*
G54D23*
D03*
X41591Y-35539D02*
G54D23*
D03*
X268140Y-101256D02*
G54D23*
D03*
X344390Y-101306D02*
G54D23*
D03*
X90829Y-150925D02*
G54D23*
D03*
X90879Y-74675D02*
G54D23*
D03*
X40029Y-150925D02*
G54D23*
D03*
X40079Y-74675D02*
G54D23*
D03*
X191940Y-50456D02*
G54D23*
D03*
X268190Y-50506D02*
G54D23*
D03*
X268140Y-139356D02*
G54D23*
D03*
X344390Y-139406D02*
G54D23*
D03*
X244972Y-10026D02*
G54D23*
D03*
X193991Y-10139D02*
G54D23*
D03*
X345481Y178659D02*
G54D23*
D03*
X345593Y127678D02*
G54D23*
D03*
X193193Y38778D02*
G54D25*
D03*
X40029Y-150925D02*
G54D25*
D03*
X344390Y-101306D02*
G54D25*
D03*
X344390Y-101306D02*
G54D25*
D03*
X344390Y-139406D02*
G54D25*
D03*
X241300Y74550D02*
G54D26*
D03*
X304800Y74550D02*
G54D26*
D03*
X345593Y127678D02*
G54D25*
D03*
X202472Y163783D02*
G54D23*
D03*
X278722Y163733D02*
G54D23*
D03*
X278722Y163733D02*
G54D23*
D03*
X-163660Y-75856D02*
G54D25*
D03*
X-163171Y1475D02*
G54D25*
D03*
X-173319Y178159D02*
G54D23*
D03*
X-173207Y127178D02*
G54D23*
D03*
X150475Y233175D02*
G54D23*
D03*
X175975Y233175D02*
G54D26*
D03*
G54D27*
X-112321Y39625D02*
X-114300Y36450D01*
X-120650Y42800D01*
X-120650Y99950D01*
X-117500Y101425D01*
G54D27*
X-38065Y83809D02*
X-38100Y80900D01*
X-101600Y80900D01*
X-101565Y83809D01*
X-48107Y-126322D02*
G54D25*
D03*
X-48107Y-156322D02*
G54D25*
D03*
X-199971Y59075D02*
G54D23*
D03*
X-199971Y19075D02*
G54D23*
D03*
X311781Y4659D02*
G54D23*
D03*
X311893Y-46322D02*
G54D23*
D03*
X311893Y-46322D02*
G54D25*
D03*
X350029Y59075D02*
G54D23*
D03*
X350029Y19075D02*
G54D23*
D03*
X-210000Y90000D02*
G54D28*
D03*
X350000Y90000D02*
G54D28*
D03*
X-199274Y231487D02*
G54D29*
D03*
X360726Y231487D02*
G54D29*
D03*
X-199274Y-168513D02*
G54D29*
D03*
X360726Y-173513D02*
G54D29*
D03*
M02*
