; Drill file
; Format: 2.4 (00.0000)
M48
INCH
T01C0.0283
T02C0.0354
T03C0.0394
T04C0.1299
%
G05
G90
T01
X008430Y-003040
X012430Y-003040
X035930Y-007040
X039930Y-007040
T02
X002830Y-007370
X002830Y-005870
X002930Y-004320
X003320Y-002770
X004010Y-002140
X004700Y-002770
X004940Y-004310
X005840Y-005870
X005840Y-007370
X006250Y-001000
X005250Y-001000
X011070Y-001150
X012070Y-001150
X013910Y-002930
X015910Y-002930
X018060Y-002670
X018060Y-001170
X021060Y-001170
X021060Y-002670
X022860Y-002910
X022750Y-004440
X021250Y-004750
X020620Y-005440
X021250Y-006140
X020830Y-007870
X022750Y-009440
X024390Y-010830
X024330Y-012380
X026330Y-012380
X026390Y-010830
X028750Y-009440
X030390Y-009830
X030310Y-011420
X030250Y-014000
X028620Y-014690
X030250Y-015890
X033310Y-014920
X033310Y-013420
X033310Y-011420
X032390Y-009830
X030360Y-007910
X030350Y-005900
X028750Y-004440
X027740Y-003100
X028570Y-001150
X029570Y-001150
X030720Y-002990
X033720Y-002990
X036350Y-002400
X036360Y-004410
X041410Y-006930
X043410Y-006930
X040360Y-013410
X038350Y-013410
X036310Y-013420
X036310Y-014920
X026330Y-015380
X024330Y-015380
X020860Y-014410
X020850Y-012400
X020830Y-010880
X019310Y-012420
X018330Y-010880
X016330Y-009380
X014350Y-009900
X014360Y-011910
X016310Y-012420
X018330Y-007870
X018750Y-006140
X018120Y-005440
X018750Y-004750
X016330Y-006370
X022850Y-000900
X024730Y-003100
T03
X006130Y-013560
X008930Y-012060
X009930Y-011060
X008930Y-010060
X010930Y-010060
X010930Y-012060
X010680Y-007790
X012680Y-007790
X014680Y-007790
X014680Y-004790
X012680Y-004790
X010680Y-004790
X007680Y-004790
X007680Y-007790
X014130Y-017060
X026630Y-017060
X036180Y-011790
X036180Y-008790
X034750Y-006500
X032250Y-006500
X039180Y-008790
X041180Y-008790
X043180Y-008790
X043180Y-011790
X041180Y-011790
X039180Y-011790
X043630Y-014560
X038130Y-017060
X039430Y-004560
X040430Y-003560
X039430Y-002560
X041430Y-002560
X041430Y-004560
X043630Y-004060
T04
X001000Y-016500
X001000Y-001000
X043630Y-001060
X043500Y-016500
M30
