%FSLAX34Y34*%
%MOMM*%
%LNSILK_TOP*%
G71*
G01*
%ADD10C,0.150*%
%ADD11C,0.167*%
%ADD12C,0.200*%
%ADD13C,0.144*%
%ADD14C,0.206*%
%ADD15C,0.222*%
%ADD16C,0.111*%
%ADD17C,0.300*%
%LPD*%
G54D10*
X265470Y491135D02*
X265470Y468960D01*
X214770Y468960D01*
X214770Y491135D01*
X265470Y491135D01*
G54D10*
X265670Y480048D02*
X273570Y480048D01*
G54D10*
X214670Y480048D02*
X206770Y480047D01*
G54D11*
X231196Y457790D02*
X233196Y456123D01*
X233863Y454456D01*
X233863Y451123D01*
G54D11*
X228529Y451123D02*
X228529Y464456D01*
X231863Y464456D01*
X233196Y463623D01*
X233863Y461956D01*
X233863Y460290D01*
X233196Y458623D01*
X231863Y457790D01*
X228529Y457790D01*
G54D11*
X237529Y459456D02*
X240863Y464456D01*
X240863Y451123D01*
G54D10*
X162615Y345616D02*
X162615Y371017D01*
X91015Y371017D01*
X91015Y345617D01*
X162615Y345616D01*
G54D11*
X81478Y350634D02*
X83144Y349634D01*
X83978Y347634D01*
X83978Y345634D01*
X83144Y343634D01*
X81478Y342634D01*
X73144Y342634D01*
X71478Y343634D01*
X70644Y345634D01*
X70644Y347634D01*
X71478Y349634D01*
X73144Y350634D01*
G54D11*
X75644Y354301D02*
X70644Y359301D01*
X83978Y359301D01*
G54D10*
X643112Y289336D02*
X643112Y314736D01*
X571512Y314736D01*
X571512Y289336D01*
X643112Y289336D01*
G54D11*
X598488Y322628D02*
X597488Y320961D01*
X595488Y320128D01*
X593488Y320128D01*
X591488Y320961D01*
X590488Y322628D01*
X590488Y330961D01*
X591488Y332628D01*
X593488Y333461D01*
X595488Y333461D01*
X597488Y332628D01*
X598488Y330961D01*
G54D11*
X602155Y322628D02*
X603155Y320961D01*
X605155Y320128D01*
X607155Y320128D01*
X609155Y320961D01*
X610155Y322628D01*
X610155Y326794D01*
X610155Y327628D01*
X607155Y325961D01*
X605155Y325961D01*
X603155Y326794D01*
X602155Y328461D01*
X602155Y330961D01*
X603155Y332628D01*
X605155Y333461D01*
X607155Y333461D01*
X609155Y332628D01*
X610155Y330961D01*
X610155Y326794D01*
G54D12*
X719500Y464314D02*
X725500Y448314D01*
X731500Y464314D01*
G54D12*
X735900Y448314D02*
X735900Y464314D01*
G54D12*
X740300Y448314D02*
X740300Y464314D01*
X749900Y448314D01*
X749900Y464314D01*
G54D10*
X697004Y476838D02*
X697004Y502238D01*
X747804Y502238D01*
X747804Y476838D01*
X697004Y476838D01*
G54D10*
X334100Y285200D02*
X342100Y285200D01*
X342100Y234475D01*
X334100Y234475D01*
G54D10*
G75*
G01X334139Y285331D02*
G03X334139Y234331I0J-25500D01*
G01*
G54D11*
X325956Y296875D02*
X330956Y294375D01*
G54D11*
X329956Y305208D02*
X329956Y296875D01*
X328956Y295208D01*
X326956Y294375D01*
X324956Y294375D01*
X322956Y295208D01*
X321956Y296875D01*
X321956Y305208D01*
X322956Y306875D01*
X324956Y307708D01*
X326956Y307708D01*
X328956Y306875D01*
X329956Y305208D01*
G54D11*
X334623Y302708D02*
X339623Y307708D01*
X339623Y294375D01*
G54D10*
X38100Y201300D02*
X139700Y201300D01*
X139700Y99700D01*
X38100Y99700D01*
X38100Y201300D01*
G54D13*
X37350Y228050D02*
X37350Y228050D01*
G54D13*
X37350Y208550D02*
X37350Y208550D01*
G54D10*
X287512Y390936D02*
X287512Y416336D01*
X215912Y416336D01*
X215912Y390936D01*
X287512Y390936D01*
G54D11*
X238888Y428394D02*
X241888Y426728D01*
X242888Y425061D01*
X242888Y421728D01*
G54D11*
X234888Y421728D02*
X234888Y435061D01*
X239888Y435061D01*
X241888Y434228D01*
X242888Y432561D01*
X242888Y430894D01*
X241888Y429228D01*
X239888Y428394D01*
X234888Y428394D01*
G54D11*
X246555Y432561D02*
X247555Y434228D01*
X249555Y435061D01*
X251555Y435061D01*
X253555Y434228D01*
X254555Y432561D01*
X254555Y430894D01*
X253555Y429228D01*
X251555Y428394D01*
X253555Y427561D01*
X254555Y425894D01*
X254555Y424228D01*
X253555Y422561D01*
X251555Y421728D01*
X249555Y421728D01*
X247555Y422561D01*
X246555Y424228D01*
G54D10*
X278170Y351435D02*
X278170Y329260D01*
X227470Y329260D01*
X227470Y351435D01*
X278170Y351435D01*
G54D10*
X278370Y340348D02*
X286270Y340348D01*
G54D10*
X227370Y340348D02*
X219470Y340347D01*
G54D11*
X240213Y313923D02*
X239546Y312256D01*
X238213Y311423D01*
X236879Y311423D01*
X235546Y312256D01*
X234879Y313923D01*
X234879Y322256D01*
X235546Y323923D01*
X236879Y324756D01*
X238213Y324756D01*
X239546Y323923D01*
X240213Y322256D01*
G54D11*
X249213Y311423D02*
X243879Y311423D01*
X243879Y312256D01*
X244546Y313923D01*
X248546Y318923D01*
X249213Y320590D01*
X249213Y322256D01*
X248546Y323923D01*
X247213Y324756D01*
X245879Y324756D01*
X244546Y323923D01*
X243879Y322256D01*
G54D10*
X341670Y173635D02*
X341670Y151460D01*
X290970Y151460D01*
X290970Y173635D01*
X341670Y173635D01*
G54D10*
X341870Y162548D02*
X349770Y162548D01*
G54D10*
X290870Y162548D02*
X282970Y162547D01*
G54D11*
X307396Y140290D02*
X309396Y138623D01*
X310063Y136956D01*
X310063Y133623D01*
G54D11*
X304729Y133623D02*
X304729Y146956D01*
X308063Y146956D01*
X309396Y146123D01*
X310063Y144456D01*
X310063Y142790D01*
X309396Y141123D01*
X308063Y140290D01*
X304729Y140290D01*
G54D11*
X317729Y133623D02*
X317729Y146956D01*
X313729Y138623D01*
X313729Y136956D01*
X319063Y136956D01*
G54D10*
X330669Y128590D02*
X305269Y128590D01*
X305269Y56990D01*
X330669Y56990D01*
X330669Y128590D01*
G54D11*
X221178Y71234D02*
X222844Y70234D01*
X223678Y68234D01*
X223678Y66234D01*
X222844Y64234D01*
X221178Y63234D01*
X212844Y63234D01*
X211178Y64234D01*
X210344Y66234D01*
X210344Y68234D01*
X211178Y70234D01*
X212844Y71234D01*
G54D11*
X212844Y74901D02*
X211178Y75901D01*
X210344Y77901D01*
X210344Y79901D01*
X211178Y81901D01*
X212844Y82901D01*
X214511Y82901D01*
X216178Y81901D01*
X217011Y79901D01*
X217844Y81901D01*
X219511Y82901D01*
X221178Y82901D01*
X222844Y81901D01*
X223678Y79901D01*
X223678Y77901D01*
X222844Y75901D01*
X221178Y74901D01*
G54D10*
X384575Y58370D02*
X362400Y58370D01*
X362400Y109070D01*
X384575Y109070D01*
X384575Y58370D01*
G54D10*
X373487Y58170D02*
X373487Y50270D01*
G54D10*
X373487Y109170D02*
X373487Y117070D01*
G54D11*
X351229Y92644D02*
X349563Y90644D01*
X347896Y89978D01*
X344563Y89978D01*
G54D11*
X344563Y95311D02*
X357896Y95311D01*
X357896Y91978D01*
X357063Y90644D01*
X355396Y89978D01*
X353729Y89978D01*
X352063Y90644D01*
X351229Y91978D01*
X351229Y95311D01*
G54D11*
X357896Y80978D02*
X357896Y86311D01*
X352063Y86311D01*
X352063Y85644D01*
X352896Y84311D01*
X352896Y82978D01*
X352063Y81644D01*
X350396Y80978D01*
X347063Y80978D01*
X345396Y81644D01*
X344563Y82978D01*
X344563Y84311D01*
X345396Y85644D01*
X347063Y86311D01*
G54D10*
X597369Y509590D02*
X571969Y509590D01*
X571969Y437990D01*
X597369Y437990D01*
X597369Y509590D01*
G54D10*
X470369Y509590D02*
X444969Y509590D01*
X444969Y437990D01*
X470369Y437990D01*
X470369Y509590D01*
G54D10*
X509656Y492506D02*
X509656Y484906D01*
G54D10*
X513456Y488706D02*
X505856Y488706D01*
G54D10*
G75*
G01X562206Y471200D02*
G03X562206Y471200I-39850J0D01*
G01*
G54D14*
X588956Y511800D02*
X588956Y511800D01*
G54D14*
X569456Y511800D02*
X569456Y511800D01*
G54D10*
X393654Y388596D02*
X393654Y366421D01*
X342954Y366421D01*
X342954Y388596D01*
X393654Y388596D01*
G54D10*
X393854Y377509D02*
X401754Y377509D01*
G54D10*
X342854Y377509D02*
X334954Y377508D01*
G54D11*
X359380Y355251D02*
X361380Y353584D01*
X362046Y351918D01*
X362046Y348584D01*
G54D11*
X356713Y348584D02*
X356713Y361918D01*
X360046Y361918D01*
X361380Y361084D01*
X362046Y359418D01*
X362046Y357751D01*
X361380Y356084D01*
X360046Y355251D01*
X356713Y355251D01*
G54D11*
X371046Y348584D02*
X365713Y348584D01*
X365713Y349418D01*
X366380Y351084D01*
X370380Y356084D01*
X371046Y357751D01*
X371046Y359418D01*
X370380Y361084D01*
X369046Y361918D01*
X367713Y361918D01*
X366380Y361084D01*
X365713Y359418D01*
G54D11*
X488950Y47300D02*
X493950Y60633D01*
X498950Y47300D01*
G54D11*
X490950Y52300D02*
X496950Y52300D01*
G54D11*
X506617Y47300D02*
X506617Y60633D01*
G54D11*
X502617Y60633D02*
X510617Y60633D01*
G54D11*
X518284Y47300D02*
X518284Y60633D01*
G54D11*
X514284Y60633D02*
X522284Y60633D01*
G54D11*
X525951Y47300D02*
X525951Y60633D01*
X533951Y47300D01*
X533951Y60633D01*
G54D11*
X722400Y415233D02*
X722400Y406900D01*
X721400Y405233D01*
X719400Y404400D01*
X717400Y404400D01*
X715400Y405233D01*
X714400Y406900D01*
X714400Y415233D01*
X715400Y416900D01*
X717400Y417733D01*
X719400Y417733D01*
X721400Y416900D01*
X722400Y415233D01*
G54D11*
X726067Y417733D02*
X726067Y406900D01*
X727067Y405233D01*
X729067Y404400D01*
X731067Y404400D01*
X733067Y405233D01*
X734067Y406900D01*
X734067Y417733D01*
G54D11*
X741734Y404400D02*
X741734Y417733D01*
G54D11*
X737734Y417733D02*
X745734Y417733D01*
G54D11*
X515200Y315500D02*
X515200Y328833D01*
G54D11*
X511200Y328833D02*
X519200Y328833D01*
G54D11*
X522867Y322167D02*
X524867Y323000D01*
X527267Y323000D01*
X528867Y321333D01*
X528867Y315500D01*
G54D11*
X528867Y318000D02*
X527867Y319667D01*
X525867Y320000D01*
X523867Y319667D01*
X522867Y318000D01*
X523267Y316333D01*
X524867Y315500D01*
X525867Y315500D01*
X526267Y315500D01*
X527867Y316333D01*
X528867Y318000D01*
G54D11*
X532534Y323000D02*
X532534Y312167D01*
G54D11*
X532534Y318000D02*
X533534Y315833D01*
X535534Y315500D01*
X537534Y315833D01*
X538534Y317500D01*
X538534Y320833D01*
X537534Y322500D01*
X535534Y323000D01*
X533534Y322500D01*
X532534Y320500D01*
G54D11*
X489800Y379000D02*
X489800Y392333D01*
G54D11*
X485800Y392333D02*
X493800Y392333D01*
G54D11*
X497467Y387333D02*
X502467Y392333D01*
X502467Y379000D01*
G54D15*
X85750Y525050D02*
X85750Y542828D01*
G54D15*
X90639Y525050D02*
X90639Y542828D01*
X99972Y542828D01*
G54D15*
X90639Y533939D02*
X99972Y533939D01*
G54D15*
X104861Y532828D02*
X115528Y532828D01*
G54D15*
X120417Y525050D02*
X127084Y542828D01*
X133750Y525050D01*
G54D15*
X123084Y531717D02*
X131084Y531717D01*
G54D15*
X138639Y525050D02*
X138639Y542828D01*
X145306Y531717D01*
X151972Y542828D01*
X151972Y525050D01*
G54D15*
X156861Y525050D02*
X156861Y542828D01*
X163528Y542828D01*
X166194Y541717D01*
X167528Y539494D01*
X167528Y537272D01*
X166194Y535050D01*
X163528Y533939D01*
X156861Y533939D01*
G54D15*
X177573Y532828D02*
X188240Y532828D01*
G54D15*
X203796Y525050D02*
X193129Y525050D01*
X193129Y526161D01*
X194462Y528383D01*
X202462Y535050D01*
X203796Y537272D01*
X203796Y539494D01*
X202462Y541717D01*
X199796Y542828D01*
X197129Y542828D01*
X194462Y541717D01*
X193129Y539494D01*
G54D15*
X208685Y525050D02*
X208685Y542828D01*
X219352Y525050D01*
X219352Y542828D01*
G54D15*
X234908Y542828D02*
X224241Y542828D01*
X224241Y535050D01*
X225574Y535050D01*
X228241Y536161D01*
X230908Y536161D01*
X233574Y535050D01*
X234908Y532828D01*
X234908Y528383D01*
X233574Y526161D01*
X230908Y525050D01*
X228241Y525050D01*
X225574Y526161D01*
X224241Y528383D01*
G54D15*
X239797Y536161D02*
X246464Y542828D01*
X246464Y525050D01*
G54D15*
X262020Y539494D02*
X262020Y528383D01*
X260686Y526161D01*
X258020Y525050D01*
X255353Y525050D01*
X252686Y526161D01*
X251353Y528383D01*
X251353Y539494D01*
X252686Y541717D01*
X255353Y542828D01*
X258020Y542828D01*
X260686Y541717D01*
X262020Y539494D01*
G54D15*
X266909Y528383D02*
X268242Y526161D01*
X270909Y525050D01*
X273576Y525050D01*
X276242Y526161D01*
X277576Y528383D01*
X277576Y533939D01*
X277576Y535050D01*
X273576Y532828D01*
X270909Y532828D01*
X268242Y533939D01*
X266909Y536161D01*
X266909Y539494D01*
X268242Y541717D01*
X270909Y542828D01*
X273576Y542828D01*
X276242Y541717D01*
X277576Y539494D01*
X277576Y533939D01*
G54D12*
X482600Y148900D02*
X546100Y148900D01*
G54D16*
X513867Y167544D02*
X515867Y166433D01*
X516533Y165322D01*
X516533Y163100D01*
G54D16*
X511200Y163100D02*
X511200Y171989D01*
X514533Y171989D01*
X515867Y171433D01*
X516533Y170322D01*
X516533Y169211D01*
X515867Y168100D01*
X514533Y167544D01*
X511200Y167544D01*
G54D16*
X518977Y163100D02*
X522310Y171989D01*
X525644Y163100D01*
G54D16*
X520310Y166433D02*
X524310Y166433D01*
G54D16*
X528088Y168656D02*
X531421Y171989D01*
X531421Y163100D01*
G54D16*
X463067Y104044D02*
X465067Y102933D01*
X465733Y101822D01*
X465733Y99600D01*
G54D16*
X460400Y99600D02*
X460400Y108489D01*
X463733Y108489D01*
X465067Y107933D01*
X465733Y106822D01*
X465733Y105711D01*
X465067Y104600D01*
X463733Y104044D01*
X460400Y104044D01*
G54D16*
X468177Y99600D02*
X471510Y108489D01*
X474844Y99600D01*
G54D16*
X469510Y102933D02*
X473510Y102933D01*
G54D16*
X482621Y99600D02*
X477288Y99600D01*
X477288Y100156D01*
X477955Y101267D01*
X481955Y104600D01*
X482621Y105711D01*
X482621Y106822D01*
X481955Y107933D01*
X480621Y108489D01*
X479288Y108489D01*
X477955Y107933D01*
X477288Y106822D01*
G54D16*
X551967Y104044D02*
X553967Y102933D01*
X554633Y101822D01*
X554633Y99600D01*
G54D16*
X549300Y99600D02*
X549300Y108489D01*
X552633Y108489D01*
X553967Y107933D01*
X554633Y106822D01*
X554633Y105711D01*
X553967Y104600D01*
X552633Y104044D01*
X549300Y104044D01*
G54D16*
X557077Y99600D02*
X560410Y108489D01*
X563744Y99600D01*
G54D16*
X558410Y102933D02*
X562410Y102933D01*
G54D16*
X566188Y106822D02*
X566855Y107933D01*
X568188Y108489D01*
X569521Y108489D01*
X570855Y107933D01*
X571521Y106822D01*
X571521Y105711D01*
X570855Y104600D01*
X569521Y104044D01*
X570855Y103489D01*
X571521Y102378D01*
X571521Y101267D01*
X570855Y100156D01*
X569521Y99600D01*
X568188Y99600D01*
X566855Y100156D01*
X566188Y101267D01*
G54D12*
X469900Y402900D02*
X520700Y402900D01*
X520700Y288600D01*
X469900Y288600D01*
X469900Y402900D01*
G54D16*
X482600Y263200D02*
X482600Y272089D01*
X487267Y272089D01*
G54D16*
X482600Y267644D02*
X487267Y267644D01*
G54D16*
X492378Y263200D02*
X492378Y272089D01*
G54D16*
X489711Y272089D02*
X495044Y272089D01*
G54D16*
X502821Y272089D02*
X497488Y272089D01*
X497488Y268200D01*
X498155Y268200D01*
X499488Y268756D01*
X500821Y268756D01*
X502155Y268200D01*
X502821Y267089D01*
X502821Y264867D01*
X502155Y263756D01*
X500821Y263200D01*
X499488Y263200D01*
X498155Y263756D01*
X497488Y264867D01*
G54D16*
X510598Y270422D02*
X510598Y264867D01*
X509932Y263756D01*
X508598Y263200D01*
X507265Y263200D01*
X505932Y263756D01*
X505265Y264867D01*
X505265Y270422D01*
X505932Y271533D01*
X507265Y272089D01*
X508598Y272089D01*
X509932Y271533D01*
X510598Y270422D01*
G54D16*
X513042Y267089D02*
X518375Y267089D01*
G54D16*
X520819Y272089D02*
X526152Y272089D01*
X525486Y270978D01*
X524152Y269311D01*
X522819Y267089D01*
X522152Y265422D01*
X522152Y263200D01*
G54D16*
X533929Y272089D02*
X528596Y272089D01*
X528596Y268200D01*
X529263Y268200D01*
X530596Y268756D01*
X531929Y268756D01*
X533263Y268200D01*
X533929Y267089D01*
X533929Y264867D01*
X533263Y263756D01*
X531929Y263200D01*
X530596Y263200D01*
X529263Y263756D01*
X528596Y264867D01*
G54D10*
X390500Y502800D02*
X390500Y483800D01*
X352500Y483800D01*
X352500Y502800D01*
X390500Y502800D01*
G54D10*
X390600Y493300D02*
X411200Y493300D01*
G54D10*
X331800Y493300D02*
X352400Y493300D01*
G54D13*
X365413Y469750D02*
X365413Y458194D01*
X371480Y458194D01*
G54D13*
X432300Y476550D02*
X432300Y476550D01*
G54D10*
X404569Y422990D02*
X404569Y448390D01*
X332969Y448390D01*
X332969Y422990D01*
X404569Y422990D01*
G54D10*
X598556Y403606D02*
X598556Y396006D01*
G54D10*
X602356Y399806D02*
X594756Y399806D01*
G54D10*
G75*
G01X651106Y382300D02*
G03X651106Y382300I-39850J0D01*
G01*
G54D14*
X677856Y422900D02*
X677856Y422900D01*
G54D14*
X658356Y422900D02*
X658356Y422900D01*
G54D17*
X156200Y34949D02*
X256800Y35049D01*
X256700Y234949D01*
X156200Y234949D01*
X156200Y34949D01*
G54D12*
X168300Y223549D02*
X168300Y198149D01*
X174600Y198149D01*
X174500Y198149D01*
X180900Y180649D01*
X181000Y180649D01*
X188900Y210849D01*
X196900Y179049D01*
X204800Y210849D01*
X214400Y179049D01*
X223800Y210849D01*
X231800Y179049D01*
X238200Y198149D01*
X244500Y198149D01*
X244500Y223549D01*
G54D12*
X168300Y45749D02*
X193600Y45749D01*
X193600Y64749D01*
G54D12*
X168300Y96549D02*
X193600Y96549D01*
X193600Y77549D01*
G54D12*
X244500Y45749D02*
X219100Y45749D01*
X219100Y64749D01*
G54D12*
X244500Y96549D02*
X219100Y96549D01*
X219100Y77549D01*
G36*
X193700Y64749D02*
X193700Y64849D01*
X187300Y52149D01*
X200000Y52149D01*
X193600Y64749D01*
X193700Y64749D01*
G37*
G54D17*
X193700Y64749D02*
X193700Y64849D01*
X187300Y52149D01*
X200000Y52149D01*
X193600Y64749D01*
X193700Y64749D01*
G36*
X219100Y64649D02*
X219100Y64749D01*
X212700Y52049D01*
X225400Y52049D01*
X219000Y64649D01*
X219100Y64649D01*
G37*
G54D17*
X219100Y64649D02*
X219100Y64749D01*
X212700Y52049D01*
X225400Y52049D01*
X219000Y64649D01*
X219100Y64649D01*
G36*
X193800Y77749D02*
X193800Y77649D01*
X200200Y90349D01*
X187500Y90349D01*
X193900Y77749D01*
X193800Y77749D01*
G37*
G54D17*
X193800Y77749D02*
X193800Y77649D01*
X200200Y90349D01*
X187500Y90349D01*
X193900Y77749D01*
X193800Y77749D01*
G36*
X219100Y77649D02*
X219100Y77549D01*
X225500Y90249D01*
X212800Y90249D01*
X219200Y77649D01*
X219100Y77649D01*
G37*
G54D17*
X219100Y77649D02*
X219100Y77549D01*
X225500Y90249D01*
X212800Y90249D01*
X219200Y77649D01*
X219100Y77649D01*
G54D12*
X193700Y77549D02*
X193700Y77449D01*
X174700Y71049D01*
X174700Y71149D01*
X160400Y71149D01*
X160400Y134649D01*
X160400Y147349D01*
X168300Y147349D01*
G54D12*
X219100Y77549D02*
X219100Y77549D01*
X238100Y71149D01*
X252400Y71149D01*
X252400Y147349D01*
X244500Y147349D01*
G54D10*
X130200Y294400D02*
X130200Y267000D01*
X54000Y267000D01*
X54000Y294400D01*
X130200Y294400D01*
G54D10*
X60300Y267000D02*
X60300Y294400D01*
G54D10*
X245025Y268692D02*
X245025Y294092D01*
X173425Y294092D01*
X173425Y268692D01*
X245025Y268692D01*
G54D11*
X200369Y301984D02*
X199369Y300317D01*
X197369Y299484D01*
X195369Y299484D01*
X193369Y300317D01*
X192369Y301984D01*
X192369Y310317D01*
X193369Y311984D01*
X195369Y312817D01*
X197369Y312817D01*
X199369Y311984D01*
X200369Y310317D01*
G54D11*
X208036Y306150D02*
X211036Y304484D01*
X212036Y302817D01*
X212036Y299484D01*
G54D11*
X204036Y299484D02*
X204036Y312817D01*
X209036Y312817D01*
X211036Y311984D01*
X212036Y310317D01*
X212036Y308650D01*
X211036Y306984D01*
X209036Y306150D01*
X204036Y306150D01*
G54D11*
X215703Y307817D02*
X220703Y312817D01*
X220703Y299484D01*
G54D16*
X81084Y291833D02*
X81084Y282944D01*
X85750Y282944D01*
G54D16*
X90861Y287389D02*
X92861Y286278D01*
X93528Y285167D01*
X93528Y282944D01*
G54D16*
X88195Y282944D02*
X88195Y291833D01*
X91528Y291833D01*
X92861Y291278D01*
X93528Y290167D01*
X93528Y289056D01*
X92861Y287944D01*
X91528Y287389D01*
X88195Y287389D01*
G54D16*
X95972Y288500D02*
X99305Y291833D01*
X99305Y282944D01*
G54D10*
X685800Y391800D02*
X787400Y391800D01*
X787400Y290200D01*
X685800Y290200D01*
X685800Y391800D01*
G54D13*
X685050Y418550D02*
X685050Y418550D01*
G54D13*
X685050Y399050D02*
X685050Y399050D01*
G54D11*
X322778Y33134D02*
X324444Y32134D01*
X325278Y30134D01*
X325278Y28134D01*
X324444Y26134D01*
X322778Y25134D01*
X314444Y25134D01*
X312778Y26134D01*
X311944Y28134D01*
X311944Y30134D01*
X312778Y32134D01*
X314444Y33134D01*
G54D11*
X314444Y36801D02*
X312778Y37801D01*
X311944Y39801D01*
X311944Y41801D01*
X312778Y43801D01*
X314444Y44801D01*
X316111Y44801D01*
X317778Y43801D01*
X318611Y41801D01*
X319444Y43801D01*
X321111Y44801D01*
X322778Y44801D01*
X324444Y43801D01*
X325278Y41801D01*
X325278Y39801D01*
X324444Y37801D01*
X322778Y36801D01*
G54D17*
X607050Y34949D02*
X707650Y35049D01*
X707550Y234949D01*
X607050Y234949D01*
X607050Y34949D01*
G54D12*
X619150Y223549D02*
X619150Y198149D01*
X625450Y198149D01*
X625350Y198149D01*
X631750Y180649D01*
X631850Y180649D01*
X639750Y210849D01*
X647750Y179049D01*
X655650Y210849D01*
X665250Y179049D01*
X674650Y210849D01*
X682650Y179049D01*
X689050Y198149D01*
X695350Y198149D01*
X695350Y223549D01*
G54D12*
X619150Y45749D02*
X644450Y45749D01*
X644450Y64749D01*
G54D12*
X619150Y96549D02*
X644450Y96549D01*
X644450Y77549D01*
G54D12*
X695350Y45749D02*
X669950Y45749D01*
X669950Y64749D01*
G54D12*
X695350Y96549D02*
X669950Y96549D01*
X669950Y77549D01*
G36*
X644550Y64749D02*
X644550Y64849D01*
X638150Y52149D01*
X650850Y52149D01*
X644450Y64749D01*
X644550Y64749D01*
G37*
G54D17*
X644550Y64749D02*
X644550Y64849D01*
X638150Y52149D01*
X650850Y52149D01*
X644450Y64749D01*
X644550Y64749D01*
G36*
X669950Y64649D02*
X669950Y64749D01*
X663550Y52049D01*
X676250Y52049D01*
X669850Y64649D01*
X669950Y64649D01*
G37*
G54D17*
X669950Y64649D02*
X669950Y64749D01*
X663550Y52049D01*
X676250Y52049D01*
X669850Y64649D01*
X669950Y64649D01*
G36*
X644650Y77749D02*
X644650Y77649D01*
X651050Y90349D01*
X638350Y90349D01*
X644750Y77749D01*
X644650Y77749D01*
G37*
G54D17*
X644650Y77749D02*
X644650Y77649D01*
X651050Y90349D01*
X638350Y90349D01*
X644750Y77749D01*
X644650Y77749D01*
G36*
X669950Y77649D02*
X669950Y77549D01*
X676350Y90249D01*
X663650Y90249D01*
X670050Y77649D01*
X669950Y77649D01*
G37*
G54D17*
X669950Y77649D02*
X669950Y77549D01*
X676350Y90249D01*
X663650Y90249D01*
X670050Y77649D01*
X669950Y77649D01*
G54D12*
X644550Y77549D02*
X644550Y77449D01*
X625550Y71049D01*
X625550Y71149D01*
X611250Y71149D01*
X611250Y134649D01*
X611250Y147349D01*
X619150Y147349D01*
G54D12*
X669950Y77549D02*
X669950Y77549D01*
X688950Y71149D01*
X703250Y71149D01*
X703250Y147349D01*
X695350Y147349D01*
G54D10*
X753500Y153700D02*
X726100Y153700D01*
X726100Y229900D01*
X753500Y229900D01*
X753500Y153700D01*
G54D10*
X726100Y223600D02*
X753500Y223600D01*
G54D10*
X729925Y42392D02*
X755325Y42392D01*
X755325Y113992D01*
X729925Y113992D01*
X729925Y42392D01*
G54D16*
X743213Y208295D02*
X734324Y208295D01*
X734324Y203628D01*
G54D16*
X738768Y198517D02*
X737657Y196517D01*
X736546Y195850D01*
X734324Y195850D01*
G54D16*
X734324Y201184D02*
X743213Y201184D01*
X743213Y197850D01*
X742657Y196517D01*
X741546Y195850D01*
X740435Y195850D01*
X739324Y196517D01*
X738768Y197850D01*
X738768Y201184D01*
G54D16*
X734324Y188073D02*
X734324Y193407D01*
X734880Y193407D01*
X735990Y192740D01*
X739324Y188740D01*
X740435Y188073D01*
X741546Y188073D01*
X742657Y188740D01*
X743213Y190073D01*
X743213Y191407D01*
X742657Y192740D01*
X741546Y193407D01*
G54D12*
X90688Y466634D02*
X96688Y450634D01*
X102688Y466634D01*
G54D12*
X111888Y458634D02*
X115488Y456634D01*
X116688Y454634D01*
X116688Y450634D01*
G54D12*
X107088Y450634D02*
X107088Y466634D01*
X113088Y466634D01*
X115488Y465634D01*
X116688Y463634D01*
X116688Y461634D01*
X115488Y459634D01*
X113088Y458634D01*
X107088Y458634D01*
G54D12*
X129488Y450634D02*
X121088Y450634D01*
X121088Y466634D01*
X129488Y466634D01*
G54D12*
X121088Y458634D02*
X129488Y458634D01*
G54D12*
X133888Y466634D02*
X133888Y450634D01*
X142288Y450634D01*
G54D10*
X62638Y479335D02*
X62639Y504735D01*
X113438Y504735D01*
X113438Y479335D01*
X62638Y479335D01*
G54D12*
X69511Y471937D02*
X69512Y465586D01*
G54D12*
X77449Y465586D02*
X61574Y465587D01*
G54D12*
X63955Y462412D02*
X75068Y462412D01*
G54D12*
X71892Y459237D02*
X67130Y459237D01*
G54D12*
X697747Y464224D02*
X697748Y457874D01*
G54D12*
X705685Y457874D02*
X689810Y457874D01*
G54D12*
X692191Y454699D02*
X703304Y454699D01*
G54D12*
X700128Y451524D02*
X695366Y451524D01*
G54D11*
X79400Y74200D02*
X79400Y87533D01*
G54D11*
X83067Y74200D02*
X83067Y87533D01*
X91067Y74200D01*
X91067Y87533D01*
G54D11*
X460400Y372967D02*
X462400Y373800D01*
X464800Y373800D01*
X466400Y372133D01*
X466400Y366300D01*
G54D11*
X466400Y368800D02*
X465400Y370467D01*
X463400Y370800D01*
X461400Y370467D01*
X460400Y368800D01*
X460800Y367133D01*
X462400Y366300D01*
X463400Y366300D01*
X463800Y366300D01*
X465400Y367133D01*
X466400Y368800D01*
G54D11*
X536600Y366300D02*
X536600Y379633D01*
G54D11*
X536600Y371633D02*
X537600Y373300D01*
X539600Y373800D01*
X541600Y373300D01*
X542600Y371633D01*
X542600Y368300D01*
X541600Y366633D01*
X539600Y366300D01*
X537600Y366633D01*
X536600Y368300D01*
G54D11*
X627578Y490334D02*
X629244Y489334D01*
X630078Y487334D01*
X630078Y485334D01*
X629244Y483334D01*
X627578Y482334D01*
X619244Y482334D01*
X617578Y483334D01*
X616744Y485334D01*
X616744Y487334D01*
X617578Y489334D01*
X619244Y490334D01*
G54D11*
X630078Y500001D02*
X616744Y500001D01*
X625078Y494001D01*
X626744Y494001D01*
X626744Y502001D01*
G54D11*
X520042Y519674D02*
X519042Y518007D01*
X517042Y517174D01*
X515042Y517174D01*
X513042Y518007D01*
X512042Y519674D01*
X512042Y528007D01*
X513042Y529674D01*
X515042Y530507D01*
X517042Y530507D01*
X519042Y529674D01*
X520042Y528007D01*
G54D11*
X529709Y517174D02*
X529709Y530507D01*
X523709Y522174D01*
X523709Y520507D01*
X531709Y520507D01*
G54D11*
X456542Y519674D02*
X455542Y518007D01*
X453542Y517174D01*
X451542Y517174D01*
X449542Y518007D01*
X448542Y519674D01*
X448542Y528007D01*
X449542Y529674D01*
X451542Y530507D01*
X453542Y530507D01*
X455542Y529674D01*
X456542Y528007D01*
G54D11*
X468209Y530507D02*
X460209Y530507D01*
X460209Y524674D01*
X461209Y524674D01*
X463209Y525507D01*
X465209Y525507D01*
X467209Y524674D01*
X468209Y523007D01*
X468209Y519674D01*
X467209Y518007D01*
X465209Y517174D01*
X463209Y517174D01*
X461209Y518007D01*
X460209Y519674D01*
G54D11*
X418442Y437124D02*
X417442Y435457D01*
X415442Y434624D01*
X413442Y434624D01*
X411442Y435457D01*
X410442Y437124D01*
X410442Y445457D01*
X411442Y447124D01*
X413442Y447957D01*
X415442Y447957D01*
X417442Y447124D01*
X418442Y445457D01*
G54D11*
X430109Y445457D02*
X429109Y447124D01*
X427109Y447957D01*
X425109Y447957D01*
X423109Y447124D01*
X422109Y445457D01*
X422109Y441290D01*
X422109Y440457D01*
X425109Y442124D01*
X427109Y442124D01*
X429109Y441290D01*
X430109Y439624D01*
X430109Y437124D01*
X429109Y435457D01*
X427109Y434624D01*
X425109Y434624D01*
X423109Y435457D01*
X422109Y437124D01*
X422109Y441290D01*
G54D11*
X659742Y405374D02*
X658742Y403707D01*
X656742Y402874D01*
X654742Y402874D01*
X652742Y403707D01*
X651742Y405374D01*
X651742Y413707D01*
X652742Y415374D01*
X654742Y416207D01*
X656742Y416207D01*
X658742Y415374D01*
X659742Y413707D01*
G54D11*
X668410Y409540D02*
X666410Y409540D01*
X664410Y410374D01*
X663410Y412040D01*
X663410Y413707D01*
X664410Y415374D01*
X666410Y416207D01*
X668410Y416207D01*
X670410Y415374D01*
X671410Y413707D01*
X671410Y412040D01*
X670410Y410374D01*
X668410Y409540D01*
X670410Y408707D01*
X671410Y407040D01*
X671410Y405374D01*
X670410Y403707D01*
X668410Y402874D01*
X666410Y402874D01*
X664410Y403707D01*
X663410Y405374D01*
X663410Y407040D01*
X664410Y408707D01*
X666410Y409540D01*
G54D11*
X765298Y86817D02*
X763631Y87817D01*
X762798Y89817D01*
X762798Y91818D01*
X763631Y93818D01*
X765298Y94817D01*
X773631Y94818D01*
X775298Y93818D01*
X776131Y91817D01*
X776131Y89817D01*
X775298Y87818D01*
X773631Y86817D01*
G54D11*
X769465Y79150D02*
X767798Y76151D01*
X766131Y75151D01*
X762798Y75151D01*
G54D11*
X762798Y83151D02*
X776131Y83151D01*
X776131Y78151D01*
X775298Y76150D01*
X773631Y75151D01*
X771965Y75151D01*
X770298Y76150D01*
X769465Y78150D01*
X769465Y83150D01*
G54D11*
X762798Y63484D02*
X762798Y71484D01*
X763631Y71483D01*
X765298Y70483D01*
X770298Y64483D01*
X771964Y63484D01*
X773631Y63484D01*
X775298Y64484D01*
X776131Y66483D01*
X776131Y68484D01*
X775298Y70484D01*
X773632Y71484D01*
G54D11*
X118300Y19367D02*
X121300Y17700D01*
X122300Y16033D01*
X122300Y12700D01*
G54D11*
X114300Y12700D02*
X114300Y26033D01*
X119300Y26033D01*
X121300Y25200D01*
X122300Y23533D01*
X122300Y21867D01*
X121300Y20200D01*
X119300Y19367D01*
X114300Y19367D01*
G54D11*
X132967Y12700D02*
X125967Y12700D01*
X125967Y26033D01*
X132967Y26033D01*
G54D11*
X125967Y19367D02*
X132967Y19367D01*
G54D11*
X136634Y26033D02*
X136634Y12700D01*
X143634Y12700D01*
G54D11*
X147301Y21033D02*
X152301Y26033D01*
X152301Y12700D01*
G54D11*
X562800Y19367D02*
X565800Y17700D01*
X566800Y16033D01*
X566800Y12700D01*
G54D11*
X558800Y12700D02*
X558800Y26033D01*
X563800Y26033D01*
X565800Y25200D01*
X566800Y23533D01*
X566800Y21867D01*
X565800Y20200D01*
X563800Y19367D01*
X558800Y19367D01*
G54D11*
X577467Y12700D02*
X570467Y12700D01*
X570467Y26033D01*
X577467Y26033D01*
G54D11*
X570467Y19367D02*
X577467Y19367D01*
G54D11*
X581134Y26033D02*
X581134Y12700D01*
X588134Y12700D01*
G54D11*
X599801Y12700D02*
X591801Y12700D01*
X591801Y13533D01*
X592801Y15200D01*
X598801Y20200D01*
X599801Y21867D01*
X599801Y23533D01*
X598801Y25200D01*
X596801Y26033D01*
X594801Y26033D01*
X592801Y25200D01*
X591801Y23533D01*
M02*
