; Drill file
; Format: 2.4 (00.0000)
M48
INCH
T01C0.0283
T02C0.0354
T03C0.0394
T04C0.0787
%
G05
G90
T01
X-007600Y002250
X019900Y000750
X019900Y-003250
T02
X-003600Y002250
X-001990Y002280
X000020Y002280
X002270Y001430
X003900Y002120
X003900Y000230
X004730Y-002400
X005480Y-004000
X003290Y-004140
X003290Y-006150
X005480Y-007010
X009770Y-005440
X009770Y-002940
X012270Y-002940
X012270Y-005440
X020010Y-004720
X020020Y-006730
X015690Y003100
X013680Y003090
X014840Y005560
X014840Y006940
X013790Y008850
X013790Y010860
X011340Y010440
X011340Y009060
X008790Y008850
X008790Y010860
X007400Y010620
X006300Y008360
X004290Y008350
X003770Y006060
X002230Y004600
X001690Y007100
X-000320Y007090
X-000770Y004600
X-003230Y005310
X-005230Y005310
X-004770Y007350
X-003270Y007350
X-003270Y010350
X-004770Y010350
X-006330Y009450
X-007870Y009220
X-008500Y008520
X-007870Y007830
X-006320Y007440
X-005510Y012320
X-004500Y012320
X-001270Y010100
X-000100Y012500
X000900Y012500
X001730Y010100
X003400Y010620
X006780Y006060
X008770Y005060
X010270Y004060
X011770Y005060
X018720Y010470
X019720Y010470
X001730Y-002400
T03
X-006730Y-003880
X-005730Y-002880
X-006730Y-001880
X-004730Y-001880
X-004730Y-003880
X-002600Y-003000
X-002600Y-005000
X-002600Y-007000
X000400Y-007000
X000400Y-005000
X000400Y-003000
X000400Y000000
X-002600Y000000
X006880Y-008010
X015150Y-007000
X015150Y-005000
X015150Y-003000
X015150Y000000
X018150Y000000
X018150Y-003000
X018150Y-005000
X018150Y-007000
X018770Y003620
X019770Y004620
X018770Y005620
X020770Y005620
X020770Y003620
X006880Y012240
T04
X-008350Y-007880
X-008350Y012370
X021150Y012370
X021150Y-007880
M30
