%FSLAX34Y34*%
%MOMM*%
%LNSOLDERMASK_BOTTOM*%
G71*
G01*
%ADD10C,2.600*%
%ADD11C,2.400*%
%ADD12C,2.800*%
%ADD13C,2.600*%
%ADD14C,3.600*%
%ADD15C,2.500*%
%ADD16C,1.600*%
%LPD*%
X-255134Y127889D02*
G54D10*
D03*
X-331384Y127939D02*
G54D10*
D03*
X-381000Y6350D02*
G54D10*
D03*
X-431980Y6238D02*
G54D10*
D03*
X99496Y-49930D02*
G54D10*
D03*
X48516Y-50043D02*
G54D10*
D03*
X176375Y137425D02*
G54D10*
D03*
X201875Y137425D02*
G54D10*
D03*
X-200000Y-74700D02*
G54D11*
D03*
X-241300Y-92275D02*
G54D11*
D03*
X-199965Y-122591D02*
G54D11*
D03*
X-469900Y-176200D02*
G54D12*
D03*
X-419100Y-176200D02*
G54D12*
D03*
X-444500Y-201600D02*
G54D12*
D03*
X-419100Y-227000D02*
G54D12*
D03*
X-469900Y-227000D02*
G54D12*
D03*
X-256103Y51669D02*
G54D10*
D03*
X-307084Y51557D02*
G54D10*
D03*
X-242434Y-11811D02*
G54D10*
D03*
X-318684Y-11761D02*
G54D10*
D03*
X-178934Y-189611D02*
G54D10*
D03*
X-255184Y-189561D02*
G54D10*
D03*
X-215564Y-233725D02*
G54D10*
D03*
X-215452Y-284706D02*
G54D10*
D03*
X-159972Y-306526D02*
G54D10*
D03*
X-159921Y-230276D02*
G54D10*
D03*
X51136Y147275D02*
G54D10*
D03*
X51248Y96294D02*
G54D10*
D03*
X-75864Y147275D02*
G54D10*
D03*
X-75752Y96294D02*
G54D10*
D03*
X-76200Y0D02*
G54D10*
D03*
X0Y0D02*
G54D10*
D03*
X-38100Y-25400D02*
G54D10*
D03*
X-11044Y101506D02*
G54D10*
D03*
X-11044Y136606D02*
G54D10*
D03*
X-50800Y-203200D02*
G54D10*
D03*
X12700Y-203200D02*
G54D10*
D03*
X12700Y-266700D02*
G54D10*
D03*
X-50800Y-266700D02*
G54D10*
D03*
X-126950Y25350D02*
G54D10*
D03*
X-203200Y25400D02*
G54D10*
D03*
X-255134Y127889D02*
G54D13*
D03*
X-215452Y-284706D02*
G54D13*
D03*
X-159972Y-306526D02*
G54D13*
D03*
X-288900Y-128551D02*
G54D13*
D03*
X-50800Y-266700D02*
G54D13*
D03*
X12700Y-266700D02*
G54D13*
D03*
G36*
X-137427Y195398D02*
X-111427Y195398D01*
X-111427Y169398D01*
X-137427Y169398D01*
X-137427Y195398D01*
G37*
X-511150Y-328700D02*
G54D14*
D03*
X-511150Y185650D02*
G54D14*
D03*
X238150Y185650D02*
G54D14*
D03*
X238150Y-328700D02*
G54D14*
D03*
X-111100Y141200D02*
G54D10*
D03*
X-212700Y141200D02*
G54D10*
D03*
X-139046Y83723D02*
G54D10*
D03*
X-190027Y83611D02*
G54D10*
D03*
X77856Y12606D02*
G54D10*
D03*
X77856Y47706D02*
G54D10*
D03*
X-365100Y-128551D02*
G54D12*
D03*
X-288900Y-128551D02*
G54D12*
D03*
X-365100Y-204751D02*
G54D12*
D03*
X-365100Y-255551D02*
G54D12*
D03*
X-365100Y-306351D02*
G54D12*
D03*
X-288900Y-204751D02*
G54D12*
D03*
X-288900Y-255551D02*
G54D12*
D03*
X-288900Y-306351D02*
G54D12*
D03*
X-390500Y-71400D02*
G54D15*
D03*
X-492100Y-71400D02*
G54D15*
D03*
X-298590Y-70575D02*
G54D10*
D03*
X-349570Y-70687D02*
G54D10*
D03*
X-390500Y-71400D02*
G54D10*
D03*
X-390500Y-71400D02*
G54D13*
D03*
X-298590Y-70575D02*
G54D13*
D03*
X177800Y14300D02*
G54D12*
D03*
X228600Y14300D02*
G54D12*
D03*
X203200Y-11100D02*
G54D12*
D03*
X228600Y-36500D02*
G54D12*
D03*
X177800Y-36500D02*
G54D12*
D03*
X85750Y-128551D02*
G54D12*
D03*
X161950Y-128551D02*
G54D12*
D03*
X85750Y-204751D02*
G54D12*
D03*
X85750Y-255551D02*
G54D12*
D03*
X85750Y-306351D02*
G54D12*
D03*
X161950Y-204751D02*
G54D12*
D03*
X161950Y-255551D02*
G54D12*
D03*
X161950Y-306351D02*
G54D12*
D03*
X206400Y-211100D02*
G54D15*
D03*
X206400Y-109500D02*
G54D15*
D03*
X209358Y-299493D02*
G54D10*
D03*
X209246Y-248512D02*
G54D10*
D03*
X-438941Y184372D02*
G54D10*
D03*
X-413441Y184372D02*
G54D10*
D03*
X206400Y-211100D02*
G54D13*
D03*
X209358Y-299493D02*
G54D13*
D03*
X51248Y96294D02*
G54D13*
D03*
X-11044Y101506D02*
G54D13*
D03*
X-75752Y96294D02*
G54D13*
D03*
X-139046Y83723D02*
G54D13*
D03*
X77856Y12606D02*
G54D13*
D03*
X-255184Y-189561D02*
G54D13*
D03*
X161950Y-128551D02*
G54D13*
D03*
X-499041Y105521D02*
G54D11*
D03*
X-514941Y87946D02*
G54D11*
D03*
X-499006Y70330D02*
G54D11*
D03*
X-459655Y60456D02*
G54D10*
D03*
X-459767Y111437D02*
G54D10*
D03*
X-420308Y58048D02*
G54D10*
D03*
X-420258Y134298D02*
G54D10*
D03*
X-382208Y58048D02*
G54D10*
D03*
X-382158Y134298D02*
G54D10*
D03*
X-301600Y188949D02*
G54D10*
D03*
X-276200Y188949D02*
G54D10*
D03*
G36*
X-137427Y-318952D02*
X-111427Y-318952D01*
X-111427Y-344952D01*
X-137427Y-344952D01*
X-137427Y-318952D01*
G37*
X-38100Y-6350D02*
G54D10*
D03*
X134740Y16100D02*
G54D16*
D03*
X-487560Y-136300D02*
G54D16*
D03*
M02*
