; Drill file
; Format: 2.4 (00.0000)
M48
INCH
T01C0.0197
T02C0.0283
T03C0.0354
T04C0.0394
T05C0.0787
%
G05
G90
T01
X-019200Y-005370
X005300Y000630
T02
X-019370Y-002810
X008130Y-004310
X008130Y-008310
T03
X-015370Y-002810
X-013760Y-002780
X-011760Y-002780
X-009500Y-003630
X-007870Y-002940
X-007870Y-004830
X-007040Y-007470
X-006300Y-009070
X-008490Y-009200
X-008480Y-011210
X-006300Y-012070
X-002000Y-010500
X-002000Y-008000
X000500Y-008000
X000500Y-010500
X008240Y-009780
X008240Y-011790
X003920Y-001970
X001910Y-001970
X003070Y000500
X003070Y001880
X002020Y003790
X002010Y005800
X-000430Y005380
X-000430Y004000
X-002980Y003790
X-002990Y005800
X-004370Y005560
X-005470Y003300
X-007480Y003290
X-008000Y001000
X-009540Y-000460
X-010080Y002030
X-012090Y002030
X-012550Y-000460
X-015000Y000250
X-017010Y000250
X-016550Y002290
X-015050Y002290
X-015050Y005290
X-016550Y005290
X-018100Y004390
X-019650Y004150
X-020270Y003460
X-019650Y002770
X-018100Y002380
X-017280Y007260
X-016280Y007260
X-013050Y005040
X-011870Y007440
X-010870Y007440
X-010040Y005030
X-008370Y005560
X-005000Y001000
X-003000Y000000
X-001500Y-000250
X-001500Y-001000
X000000Y000000
X006940Y005410
X007950Y005410
X-010050Y-007460
T04
X-018500Y-008940
X-017500Y-007940
X-018500Y-006940
X-016500Y-006940
X-016500Y-008940
X-014370Y-008060
X-014370Y-010060
X-014370Y-012060
X-011370Y-012060
X-011370Y-010060
X-011370Y-008060
X-011370Y-005060
X-014370Y-005060
X-004900Y-013070
X003380Y-012060
X003380Y-010060
X003380Y-008060
X003380Y-005060
X006380Y-005060
X006380Y-008060
X006380Y-010060
X006380Y-012060
X007000Y-001440
X008000Y-000440
X007000Y000560
X009000Y000560
X009000Y-001440
X-004900Y007180
T05
X-020120Y-012940
X-020120Y007310
X009380Y007310
X009380Y-012940
M30
