%FSLAX34Y34*%
%MOMM*%
%LNCOPPER_TOP*%
G71*
G01*
%ADD10C,3.200*%
%ADD11C,3.000*%
%ADD12C,3.000*%
%ADD13C,2.800*%
%ADD14C,1.600*%
%ADD15C,2.800*%
%ADD16C,3.200*%
%ADD17C,2.700*%
%ADD18C,1.400*%
%ADD19C,0.667*%
%ADD20C,0.813*%
%ADD21C,0.733*%
%ADD22C,1.453*%
%ADD23C,1.467*%
%ADD24C,1.000*%
%ADD25C,2.230*%
%ADD26C,1.447*%
%ADD27C,2.000*%
%ADD28C,1.800*%
%ADD29C,2.200*%
%ADD30C,0.800*%
%ADD31C,2.000*%
%ADD32C,3.000*%
%ADD33C,1.900*%
%ADD34C,0.600*%
%LPD*%
G36*
X-200000Y760000D02*
X1000000Y760000D01*
X1000000Y-200000D01*
X-200000Y-200000D01*
X-200000Y760000D01*
G37*
%LPC*%
X278266Y479989D02*
G54D10*
D03*
X202016Y480039D02*
G54D10*
D03*
X152400Y358450D02*
G54D10*
D03*
X101420Y358338D02*
G54D10*
D03*
X632896Y302170D02*
G54D10*
D03*
X581916Y302057D02*
G54D10*
D03*
X709775Y489525D02*
G54D10*
D03*
X735275Y489525D02*
G54D10*
D03*
X333400Y277400D02*
G54D11*
D03*
X317500Y259825D02*
G54D11*
D03*
X333435Y242209D02*
G54D11*
D03*
X63500Y175900D02*
G54D12*
D03*
X114300Y175900D02*
G54D12*
D03*
X88900Y150500D02*
G54D12*
D03*
X114300Y125100D02*
G54D12*
D03*
X63500Y125100D02*
G54D12*
D03*
X277297Y403769D02*
G54D10*
D03*
X226316Y403657D02*
G54D10*
D03*
X290966Y340289D02*
G54D10*
D03*
X214716Y340339D02*
G54D10*
D03*
X354466Y162489D02*
G54D10*
D03*
X278216Y162539D02*
G54D10*
D03*
X317836Y118375D02*
G54D10*
D03*
X317948Y67394D02*
G54D10*
D03*
X373428Y45574D02*
G54D10*
D03*
X373479Y121824D02*
G54D10*
D03*
X584536Y499375D02*
G54D10*
D03*
X584648Y448394D02*
G54D10*
D03*
X457536Y499375D02*
G54D10*
D03*
X457648Y448394D02*
G54D10*
D03*
X457200Y352100D02*
G54D13*
D03*
X533400Y352100D02*
G54D13*
D03*
X495300Y326700D02*
G54D13*
D03*
X522356Y453606D02*
G54D13*
D03*
X522356Y488706D02*
G54D13*
D03*
X482600Y148900D02*
G54D13*
D03*
X546100Y148900D02*
G54D13*
D03*
X546100Y85400D02*
G54D13*
D03*
X482600Y85400D02*
G54D13*
D03*
X406450Y377450D02*
G54D10*
D03*
X330200Y377500D02*
G54D10*
D03*
G54D14*
X354466Y162489D02*
X355600Y161600D01*
X336550Y180650D01*
X336550Y244150D01*
X333435Y242209D01*
X278266Y479989D02*
G54D15*
D03*
X317948Y67394D02*
G54D15*
D03*
X373428Y45574D02*
G54D15*
D03*
X244500Y223549D02*
G54D15*
D03*
X482600Y85400D02*
G54D15*
D03*
X546100Y85400D02*
G54D15*
D03*
G36*
X389973Y553498D02*
X427973Y553498D01*
X427973Y515498D01*
X389973Y515498D01*
X389973Y553498D01*
G37*
G36*
X415373Y45498D02*
X453373Y45498D01*
X453373Y7498D01*
X415373Y7498D01*
X415373Y45498D01*
G37*
X22250Y23400D02*
G54D16*
D03*
X22250Y537750D02*
G54D16*
D03*
X777900Y537750D02*
G54D16*
D03*
X777900Y23400D02*
G54D16*
D03*
X422300Y493300D02*
G54D13*
D03*
X320700Y493300D02*
G54D13*
D03*
X394354Y435823D02*
G54D10*
D03*
X343373Y435711D02*
G54D10*
D03*
X611256Y364706D02*
G54D13*
D03*
X611256Y399806D02*
G54D13*
D03*
X168300Y223549D02*
G54D12*
D03*
X244500Y223549D02*
G54D12*
D03*
X168300Y147349D02*
G54D12*
D03*
X168300Y96549D02*
G54D12*
D03*
X168300Y45749D02*
G54D12*
D03*
X244500Y147349D02*
G54D12*
D03*
X244500Y96549D02*
G54D12*
D03*
X244500Y45749D02*
G54D12*
D03*
X142900Y280700D02*
G54D17*
D03*
X41300Y280700D02*
G54D17*
D03*
X234810Y281525D02*
G54D10*
D03*
X183830Y281413D02*
G54D10*
D03*
X142900Y280700D02*
G54D13*
D03*
X142900Y280700D02*
G54D15*
D03*
X234810Y281525D02*
G54D15*
D03*
X711200Y366400D02*
G54D12*
D03*
X762000Y366400D02*
G54D12*
D03*
X736600Y341000D02*
G54D12*
D03*
X762000Y315600D02*
G54D12*
D03*
X711200Y315600D02*
G54D12*
D03*
X619150Y223549D02*
G54D12*
D03*
X695350Y223549D02*
G54D12*
D03*
X619150Y147349D02*
G54D12*
D03*
X619150Y96549D02*
G54D12*
D03*
X619150Y45749D02*
G54D12*
D03*
X695350Y147349D02*
G54D12*
D03*
X695350Y96549D02*
G54D12*
D03*
X695350Y45749D02*
G54D12*
D03*
X739800Y141000D02*
G54D17*
D03*
X739800Y242600D02*
G54D17*
D03*
X742758Y52607D02*
G54D10*
D03*
X742646Y103588D02*
G54D10*
D03*
X75409Y492022D02*
G54D10*
D03*
X100909Y492022D02*
G54D10*
D03*
X739800Y141000D02*
G54D15*
D03*
X742758Y52607D02*
G54D15*
D03*
X584648Y448394D02*
G54D15*
D03*
X522356Y453606D02*
G54D15*
D03*
X457648Y448394D02*
G54D15*
D03*
X394354Y435823D02*
G54D15*
D03*
X611256Y364706D02*
G54D15*
D03*
X278216Y162539D02*
G54D15*
D03*
X695350Y223549D02*
G54D15*
D03*
G54D18*
X619150Y223549D02*
X619150Y226600D01*
X549300Y296450D01*
X327050Y296450D01*
X276250Y245650D01*
X238150Y245650D01*
X219100Y226600D01*
X168300Y226600D01*
X168300Y223549D01*
G54D18*
X739800Y242600D02*
X739800Y245650D01*
X689000Y245650D01*
X669950Y226600D01*
X619150Y226600D01*
X619150Y223549D01*
%LPD*%
G54D19*
G36*
X706442Y489525D02*
X706442Y506025D01*
X713108Y506025D01*
X713108Y489525D01*
X706442Y489525D01*
G37*
G54D20*
G54D21*
G36*
X59833Y175900D02*
X59833Y191400D01*
X67167Y191400D01*
X67167Y175900D01*
X59833Y175900D01*
G37*
G36*
X63500Y179567D02*
X79000Y179567D01*
X79000Y172233D01*
X63500Y172233D01*
X63500Y179567D01*
G37*
G36*
X67167Y175900D02*
X67167Y160400D01*
X59833Y160400D01*
X59833Y175900D01*
X67167Y175900D01*
G37*
G36*
X63500Y172233D02*
X48000Y172233D01*
X48000Y179567D01*
X63500Y179567D01*
X63500Y172233D01*
G37*
G54D21*
G36*
X110633Y175900D02*
X110633Y191400D01*
X117967Y191400D01*
X117967Y175900D01*
X110633Y175900D01*
G37*
G36*
X114300Y179567D02*
X129800Y179567D01*
X129800Y172233D01*
X114300Y172233D01*
X114300Y179567D01*
G37*
G36*
X117967Y175900D02*
X117967Y160400D01*
X110633Y160400D01*
X110633Y175900D01*
X117967Y175900D01*
G37*
G36*
X114300Y172233D02*
X98800Y172233D01*
X98800Y179567D01*
X114300Y179567D01*
X114300Y172233D01*
G37*
G54D21*
G36*
X110633Y125100D02*
X110633Y140600D01*
X117967Y140600D01*
X117967Y125100D01*
X110633Y125100D01*
G37*
G36*
X114300Y128767D02*
X129800Y128767D01*
X129800Y121433D01*
X114300Y121433D01*
X114300Y128767D01*
G37*
G36*
X117967Y125100D02*
X117967Y109600D01*
X110633Y109600D01*
X110633Y125100D01*
X117967Y125100D01*
G37*
G36*
X114300Y121433D02*
X98800Y121433D01*
X98800Y128767D01*
X114300Y128767D01*
X114300Y121433D01*
G37*
G54D21*
G36*
X59833Y125100D02*
X59833Y140600D01*
X67167Y140600D01*
X67167Y125100D01*
X59833Y125100D01*
G37*
G36*
X63500Y128767D02*
X79000Y128767D01*
X79000Y121433D01*
X63500Y121433D01*
X63500Y128767D01*
G37*
G36*
X67167Y125100D02*
X67167Y109600D01*
X59833Y109600D01*
X59833Y125100D01*
X67167Y125100D01*
G37*
G36*
X63500Y121433D02*
X48000Y121433D01*
X48000Y128767D01*
X63500Y128767D01*
X63500Y121433D01*
G37*
G54D22*
G36*
X270999Y479989D02*
X270999Y494489D01*
X285533Y494489D01*
X285533Y479989D01*
X270999Y479989D01*
G37*
G36*
X278266Y487256D02*
X292766Y487256D01*
X292766Y472722D01*
X278266Y472722D01*
X278266Y487256D01*
G37*
G36*
X285533Y479989D02*
X285533Y465489D01*
X270999Y465489D01*
X270999Y479989D01*
X285533Y479989D01*
G37*
G36*
X278266Y472722D02*
X263766Y472722D01*
X263766Y487256D01*
X278266Y487256D01*
X278266Y472722D01*
G37*
G54D23*
G36*
X310615Y67394D02*
X310615Y81894D01*
X325281Y81894D01*
X325281Y67394D01*
X310615Y67394D01*
G37*
G36*
X317948Y74727D02*
X332448Y74727D01*
X332448Y60061D01*
X317948Y60061D01*
X317948Y74727D01*
G37*
G36*
X325281Y67394D02*
X325281Y52894D01*
X310615Y52894D01*
X310615Y67394D01*
X325281Y67394D01*
G37*
G36*
X317948Y60061D02*
X303448Y60061D01*
X303448Y74727D01*
X317948Y74727D01*
X317948Y60061D01*
G37*
G54D23*
G36*
X366095Y45574D02*
X366095Y60074D01*
X380762Y60074D01*
X380762Y45574D01*
X366095Y45574D01*
G37*
G36*
X373428Y52907D02*
X387928Y52907D01*
X387928Y38241D01*
X373428Y38241D01*
X373428Y52907D01*
G37*
G36*
X380762Y45574D02*
X380762Y31074D01*
X366095Y31074D01*
X366095Y45574D01*
X380762Y45574D01*
G37*
G36*
X373428Y38241D02*
X358928Y38241D01*
X358928Y52907D01*
X373428Y52907D01*
X373428Y38241D01*
G37*
G54D23*
G36*
X237166Y223549D02*
X237166Y238049D01*
X251833Y238049D01*
X251833Y223549D01*
X237166Y223549D01*
G37*
G36*
X244500Y230882D02*
X259000Y230882D01*
X259000Y216216D01*
X244500Y216216D01*
X244500Y230882D01*
G37*
G36*
X251833Y223549D02*
X251833Y209049D01*
X237166Y209049D01*
X237166Y223549D01*
X251833Y223549D01*
G37*
G36*
X244500Y216216D02*
X230000Y216216D01*
X230000Y230882D01*
X244500Y230882D01*
X244500Y216216D01*
G37*
G54D23*
G36*
X475267Y85400D02*
X475267Y99900D01*
X489933Y99900D01*
X489933Y85400D01*
X475267Y85400D01*
G37*
G36*
X482600Y92733D02*
X497100Y92733D01*
X497100Y78067D01*
X482600Y78067D01*
X482600Y92733D01*
G37*
G36*
X489933Y85400D02*
X489933Y70900D01*
X475267Y70900D01*
X475267Y85400D01*
X489933Y85400D01*
G37*
G36*
X482600Y78067D02*
X468100Y78067D01*
X468100Y92733D01*
X482600Y92733D01*
X482600Y78067D01*
G37*
G54D23*
G36*
X538767Y85400D02*
X538767Y99900D01*
X553433Y99900D01*
X553433Y85400D01*
X538767Y85400D01*
G37*
G36*
X546100Y92733D02*
X560600Y92733D01*
X560600Y78067D01*
X546100Y78067D01*
X546100Y92733D01*
G37*
G36*
X553433Y85400D02*
X553433Y70900D01*
X538767Y70900D01*
X538767Y85400D01*
X553433Y85400D01*
G37*
G36*
X546100Y78067D02*
X531600Y78067D01*
X531600Y92733D01*
X546100Y92733D01*
X546100Y78067D01*
G37*
G54D24*
G36*
X403973Y534498D02*
X403973Y553998D01*
X413973Y553998D01*
X413973Y534498D01*
X403973Y534498D01*
G37*
G36*
X408973Y539498D02*
X428473Y539498D01*
X428473Y529498D01*
X408973Y529498D01*
X408973Y539498D01*
G37*
G36*
X413973Y534498D02*
X413973Y514998D01*
X403973Y514998D01*
X403973Y534498D01*
X413973Y534498D01*
G37*
G36*
X408973Y529498D02*
X389473Y529498D01*
X389473Y539498D01*
X408973Y539498D01*
X408973Y529498D01*
G37*
G54D24*
G36*
X429373Y26498D02*
X429373Y45998D01*
X439373Y45998D01*
X439373Y26498D01*
X429373Y26498D01*
G37*
G36*
X434373Y31498D02*
X453873Y31498D01*
X453873Y21498D01*
X434373Y21498D01*
X434373Y31498D01*
G37*
G36*
X439373Y26498D02*
X439373Y6998D01*
X429373Y6998D01*
X429373Y26498D01*
X439373Y26498D01*
G37*
G36*
X434373Y21498D02*
X414873Y21498D01*
X414873Y31498D01*
X434373Y31498D01*
X434373Y21498D01*
G37*
G54D25*
G36*
X22250Y34550D02*
X38750Y34550D01*
X38750Y12250D01*
X22250Y12250D01*
X22250Y34550D01*
G37*
G36*
X33400Y23400D02*
X33400Y6900D01*
X11100Y6900D01*
X11100Y23400D01*
X33400Y23400D01*
G37*
G36*
X22250Y12250D02*
X5750Y12250D01*
X5750Y34550D01*
X22250Y34550D01*
X22250Y12250D01*
G37*
G36*
X11100Y23400D02*
X11100Y39900D01*
X33400Y39900D01*
X33400Y23400D01*
X11100Y23400D01*
G37*
G54D25*
G36*
X22250Y548900D02*
X38750Y548900D01*
X38750Y526600D01*
X22250Y526600D01*
X22250Y548900D01*
G37*
G36*
X33400Y537750D02*
X33400Y521250D01*
X11100Y521250D01*
X11100Y537750D01*
X33400Y537750D01*
G37*
G36*
X22250Y526600D02*
X5750Y526600D01*
X5750Y548900D01*
X22250Y548900D01*
X22250Y526600D01*
G37*
G36*
X11100Y537750D02*
X11100Y554250D01*
X33400Y554250D01*
X33400Y537750D01*
X11100Y537750D01*
G37*
G54D25*
G36*
X777900Y548900D02*
X794400Y548900D01*
X794400Y526600D01*
X777900Y526600D01*
X777900Y548900D01*
G37*
G36*
X789050Y537750D02*
X789050Y521250D01*
X766750Y521250D01*
X766750Y537750D01*
X789050Y537750D01*
G37*
G36*
X777900Y526600D02*
X761400Y526600D01*
X761400Y548900D01*
X777900Y548900D01*
X777900Y526600D01*
G37*
G36*
X766750Y537750D02*
X766750Y554250D01*
X789050Y554250D01*
X789050Y537750D01*
X766750Y537750D01*
G37*
G54D25*
G36*
X777900Y34550D02*
X794400Y34550D01*
X794400Y12250D01*
X777900Y12250D01*
X777900Y34550D01*
G37*
G36*
X789050Y23400D02*
X789050Y6900D01*
X766750Y6900D01*
X766750Y23400D01*
X789050Y23400D01*
G37*
G36*
X777900Y12250D02*
X761400Y12250D01*
X761400Y34550D01*
X777900Y34550D01*
X777900Y12250D01*
G37*
G36*
X766750Y23400D02*
X766750Y39900D01*
X789050Y39900D01*
X789050Y23400D01*
X766750Y23400D01*
G37*
G54D26*
G36*
X135667Y280700D02*
X135667Y295200D01*
X150133Y295200D01*
X150133Y280700D01*
X135667Y280700D01*
G37*
G36*
X142900Y287933D02*
X157400Y287933D01*
X157400Y273467D01*
X142900Y273467D01*
X142900Y287933D01*
G37*
G36*
X150133Y280700D02*
X150133Y266200D01*
X135667Y266200D01*
X135667Y280700D01*
X150133Y280700D01*
G37*
G36*
X142900Y273467D02*
X128400Y273467D01*
X128400Y287933D01*
X142900Y287933D01*
X142900Y273467D01*
G37*
G54D26*
G36*
X227577Y281525D02*
X227577Y296025D01*
X242043Y296025D01*
X242043Y281525D01*
X227577Y281525D01*
G37*
G36*
X234810Y288759D02*
X249310Y288759D01*
X249310Y274292D01*
X234810Y274292D01*
X234810Y288759D01*
G37*
G36*
X242043Y281525D02*
X242043Y267025D01*
X227577Y267025D01*
X227577Y281525D01*
X242043Y281525D01*
G37*
G36*
X234810Y274292D02*
X220310Y274292D01*
X220310Y288759D01*
X234810Y288759D01*
X234810Y274292D01*
G37*
G54D21*
G36*
X707533Y366400D02*
X707533Y381900D01*
X714867Y381900D01*
X714867Y366400D01*
X707533Y366400D01*
G37*
G36*
X711200Y370067D02*
X726700Y370067D01*
X726700Y362733D01*
X711200Y362733D01*
X711200Y370067D01*
G37*
G36*
X714867Y366400D02*
X714867Y350900D01*
X707533Y350900D01*
X707533Y366400D01*
X714867Y366400D01*
G37*
G36*
X711200Y362733D02*
X695700Y362733D01*
X695700Y370067D01*
X711200Y370067D01*
X711200Y362733D01*
G37*
G54D21*
G36*
X758333Y366400D02*
X758333Y381900D01*
X765667Y381900D01*
X765667Y366400D01*
X758333Y366400D01*
G37*
G36*
X762000Y370067D02*
X777500Y370067D01*
X777500Y362733D01*
X762000Y362733D01*
X762000Y370067D01*
G37*
G36*
X765667Y366400D02*
X765667Y350900D01*
X758333Y350900D01*
X758333Y366400D01*
X765667Y366400D01*
G37*
G36*
X762000Y362733D02*
X746500Y362733D01*
X746500Y370067D01*
X762000Y370067D01*
X762000Y362733D01*
G37*
G54D21*
G36*
X758333Y315600D02*
X758333Y331100D01*
X765667Y331100D01*
X765667Y315600D01*
X758333Y315600D01*
G37*
G36*
X762000Y319267D02*
X777500Y319267D01*
X777500Y311933D01*
X762000Y311933D01*
X762000Y319267D01*
G37*
G36*
X765667Y315600D02*
X765667Y300100D01*
X758333Y300100D01*
X758333Y315600D01*
X765667Y315600D01*
G37*
G36*
X762000Y311933D02*
X746500Y311933D01*
X746500Y319267D01*
X762000Y319267D01*
X762000Y311933D01*
G37*
G54D21*
G36*
X707533Y315600D02*
X707533Y331100D01*
X714867Y331100D01*
X714867Y315600D01*
X707533Y315600D01*
G37*
G36*
X711200Y319267D02*
X726700Y319267D01*
X726700Y311933D01*
X711200Y311933D01*
X711200Y319267D01*
G37*
G36*
X714867Y315600D02*
X714867Y300100D01*
X707533Y300100D01*
X707533Y315600D01*
X714867Y315600D01*
G37*
G36*
X711200Y311933D02*
X695700Y311933D01*
X695700Y319267D01*
X711200Y319267D01*
X711200Y311933D01*
G37*
G54D19*
G36*
X72076Y492022D02*
X72076Y508522D01*
X78742Y508522D01*
X78742Y492022D01*
X72076Y492022D01*
G37*
G54D20*
G54D23*
G36*
X732467Y141000D02*
X732467Y155500D01*
X747133Y155500D01*
X747133Y141000D01*
X732467Y141000D01*
G37*
G36*
X739800Y148333D02*
X754300Y148333D01*
X754300Y133667D01*
X739800Y133667D01*
X739800Y148333D01*
G37*
G36*
X747133Y141000D02*
X747133Y126500D01*
X732467Y126500D01*
X732467Y141000D01*
X747133Y141000D01*
G37*
G36*
X739800Y133667D02*
X725300Y133667D01*
X725300Y148333D01*
X739800Y148333D01*
X739800Y133667D01*
G37*
G54D23*
G36*
X735425Y52607D02*
X735425Y67107D01*
X750092Y67107D01*
X750092Y52607D01*
X735425Y52607D01*
G37*
G36*
X742758Y59940D02*
X757258Y59940D01*
X757258Y45274D01*
X742758Y45274D01*
X742758Y59940D01*
G37*
G36*
X750092Y52607D02*
X750092Y38107D01*
X735425Y38107D01*
X735425Y52607D01*
X750092Y52607D01*
G37*
G36*
X742758Y45274D02*
X728258Y45274D01*
X728258Y59940D01*
X742758Y59940D01*
X742758Y45274D01*
G37*
G54D23*
G36*
X577315Y448394D02*
X577315Y462894D01*
X591981Y462894D01*
X591981Y448394D01*
X577315Y448394D01*
G37*
G36*
X584648Y455727D02*
X599148Y455727D01*
X599148Y441061D01*
X584648Y441061D01*
X584648Y455727D01*
G37*
G36*
X591981Y448394D02*
X591981Y433894D01*
X577315Y433894D01*
X577315Y448394D01*
X591981Y448394D01*
G37*
G36*
X584648Y441061D02*
X570148Y441061D01*
X570148Y455727D01*
X584648Y455727D01*
X584648Y441061D01*
G37*
G54D23*
G36*
X515023Y453606D02*
X515023Y468106D01*
X529689Y468106D01*
X529689Y453606D01*
X515023Y453606D01*
G37*
G36*
X522356Y460939D02*
X536856Y460939D01*
X536856Y446273D01*
X522356Y446273D01*
X522356Y460939D01*
G37*
G36*
X529689Y453606D02*
X529689Y439106D01*
X515023Y439106D01*
X515023Y453606D01*
X529689Y453606D01*
G37*
G36*
X522356Y446273D02*
X507856Y446273D01*
X507856Y460939D01*
X522356Y460939D01*
X522356Y446273D01*
G37*
G54D23*
G36*
X450315Y448394D02*
X450315Y462894D01*
X464981Y462894D01*
X464981Y448394D01*
X450315Y448394D01*
G37*
G36*
X457648Y455727D02*
X472148Y455727D01*
X472148Y441061D01*
X457648Y441061D01*
X457648Y455727D01*
G37*
G36*
X464981Y448394D02*
X464981Y433894D01*
X450315Y433894D01*
X450315Y448394D01*
X464981Y448394D01*
G37*
G36*
X457648Y441061D02*
X443148Y441061D01*
X443148Y455727D01*
X457648Y455727D01*
X457648Y441061D01*
G37*
G54D23*
G36*
X387020Y435823D02*
X387020Y450323D01*
X401687Y450323D01*
X401687Y435823D01*
X387020Y435823D01*
G37*
G36*
X394354Y443157D02*
X408854Y443157D01*
X408854Y428490D01*
X394354Y428490D01*
X394354Y443157D01*
G37*
G36*
X401687Y435823D02*
X401687Y421323D01*
X387020Y421323D01*
X387020Y435823D01*
X401687Y435823D01*
G37*
G36*
X394354Y428490D02*
X379854Y428490D01*
X379854Y443157D01*
X394354Y443157D01*
X394354Y428490D01*
G37*
G54D23*
G36*
X603923Y364706D02*
X603923Y379206D01*
X618589Y379206D01*
X618589Y364706D01*
X603923Y364706D01*
G37*
G36*
X611256Y372039D02*
X625756Y372039D01*
X625756Y357373D01*
X611256Y357373D01*
X611256Y372039D01*
G37*
G36*
X618589Y364706D02*
X618589Y350206D01*
X603923Y350206D01*
X603923Y364706D01*
X618589Y364706D01*
G37*
G36*
X611256Y357373D02*
X596756Y357373D01*
X596756Y372039D01*
X611256Y372039D01*
X611256Y357373D01*
G37*
G54D23*
G36*
X270883Y162539D02*
X270883Y177039D01*
X285550Y177039D01*
X285550Y162539D01*
X270883Y162539D01*
G37*
G36*
X278216Y169872D02*
X292716Y169872D01*
X292716Y155206D01*
X278216Y155206D01*
X278216Y169872D01*
G37*
G36*
X285550Y162539D02*
X285550Y148039D01*
X270883Y148039D01*
X270883Y162539D01*
X285550Y162539D01*
G37*
G36*
X278216Y155206D02*
X263716Y155206D01*
X263716Y169872D01*
X278216Y169872D01*
X278216Y155206D01*
G37*
G54D23*
G36*
X688016Y223549D02*
X688016Y238049D01*
X702683Y238049D01*
X702683Y223549D01*
X688016Y223549D01*
G37*
G36*
X695350Y230882D02*
X709850Y230882D01*
X709850Y216216D01*
X695350Y216216D01*
X695350Y230882D01*
G37*
G36*
X702683Y223549D02*
X702683Y209049D01*
X688016Y209049D01*
X688016Y223549D01*
X702683Y223549D01*
G37*
G36*
X695350Y216216D02*
X680850Y216216D01*
X680850Y230882D01*
X695350Y230882D01*
X695350Y216216D01*
G37*
X278266Y479989D02*
G54D27*
D03*
X202016Y480039D02*
G54D27*
D03*
X152400Y358450D02*
G54D27*
D03*
X101420Y358338D02*
G54D27*
D03*
X632896Y302170D02*
G54D27*
D03*
X581916Y302057D02*
G54D27*
D03*
X709775Y489525D02*
G54D27*
D03*
X735275Y489525D02*
G54D27*
D03*
X333400Y277400D02*
G54D28*
D03*
X317500Y259825D02*
G54D28*
D03*
X333435Y242209D02*
G54D28*
D03*
X63500Y175900D02*
G54D29*
D03*
X114300Y175900D02*
G54D29*
D03*
X88900Y150500D02*
G54D29*
D03*
X114300Y125100D02*
G54D29*
D03*
X63500Y125100D02*
G54D29*
D03*
X277297Y403769D02*
G54D27*
D03*
X226316Y403657D02*
G54D27*
D03*
X290966Y340289D02*
G54D27*
D03*
X214716Y340339D02*
G54D27*
D03*
X354466Y162489D02*
G54D27*
D03*
X278216Y162539D02*
G54D27*
D03*
X317836Y118375D02*
G54D27*
D03*
X317948Y67394D02*
G54D27*
D03*
X373428Y45574D02*
G54D27*
D03*
X373479Y121824D02*
G54D27*
D03*
X584536Y499375D02*
G54D27*
D03*
X584648Y448394D02*
G54D27*
D03*
X457536Y499375D02*
G54D27*
D03*
X457648Y448394D02*
G54D27*
D03*
X457200Y352100D02*
G54D27*
D03*
X533400Y352100D02*
G54D27*
D03*
X495300Y326700D02*
G54D27*
D03*
X522356Y453606D02*
G54D27*
D03*
X522356Y488706D02*
G54D27*
D03*
X482600Y148900D02*
G54D27*
D03*
X546100Y148900D02*
G54D27*
D03*
X546100Y85400D02*
G54D27*
D03*
X482600Y85400D02*
G54D27*
D03*
X406450Y377450D02*
G54D27*
D03*
X330200Y377500D02*
G54D27*
D03*
G54D30*
X354466Y162489D02*
X355600Y161600D01*
X336550Y180650D01*
X336550Y244150D01*
X333435Y242209D01*
X278266Y479989D02*
G54D31*
D03*
X317948Y67394D02*
G54D31*
D03*
X373428Y45574D02*
G54D31*
D03*
X244500Y223549D02*
G54D31*
D03*
X482600Y85400D02*
G54D31*
D03*
X546100Y85400D02*
G54D31*
D03*
G36*
X393973Y549498D02*
X423973Y549498D01*
X423973Y519498D01*
X393973Y519498D01*
X393973Y549498D01*
G37*
G36*
X419373Y41498D02*
X449373Y41498D01*
X449373Y11498D01*
X419373Y11498D01*
X419373Y41498D01*
G37*
X22250Y23400D02*
G54D32*
D03*
X22250Y537750D02*
G54D32*
D03*
X777900Y537750D02*
G54D32*
D03*
X777900Y23400D02*
G54D32*
D03*
X422300Y493300D02*
G54D27*
D03*
X320700Y493300D02*
G54D27*
D03*
X394354Y435823D02*
G54D27*
D03*
X343373Y435711D02*
G54D27*
D03*
X611256Y364706D02*
G54D27*
D03*
X611256Y399806D02*
G54D27*
D03*
X168300Y223549D02*
G54D29*
D03*
X244500Y223549D02*
G54D29*
D03*
X168300Y147349D02*
G54D29*
D03*
X168300Y96549D02*
G54D29*
D03*
X168300Y45749D02*
G54D29*
D03*
X244500Y147349D02*
G54D29*
D03*
X244500Y96549D02*
G54D29*
D03*
X244500Y45749D02*
G54D29*
D03*
X142900Y280700D02*
G54D33*
D03*
X41300Y280700D02*
G54D33*
D03*
X234810Y281525D02*
G54D27*
D03*
X183830Y281413D02*
G54D27*
D03*
X142900Y280700D02*
G54D27*
D03*
X142900Y280700D02*
G54D31*
D03*
X234810Y281525D02*
G54D31*
D03*
X711200Y366400D02*
G54D29*
D03*
X762000Y366400D02*
G54D29*
D03*
X736600Y341000D02*
G54D29*
D03*
X762000Y315600D02*
G54D29*
D03*
X711200Y315600D02*
G54D29*
D03*
X619150Y223549D02*
G54D29*
D03*
X695350Y223549D02*
G54D29*
D03*
X619150Y147349D02*
G54D29*
D03*
X619150Y96549D02*
G54D29*
D03*
X619150Y45749D02*
G54D29*
D03*
X695350Y147349D02*
G54D29*
D03*
X695350Y96549D02*
G54D29*
D03*
X695350Y45749D02*
G54D29*
D03*
X739800Y141000D02*
G54D33*
D03*
X739800Y242600D02*
G54D33*
D03*
X742758Y52607D02*
G54D27*
D03*
X742646Y103588D02*
G54D27*
D03*
X75409Y492022D02*
G54D27*
D03*
X100909Y492022D02*
G54D27*
D03*
X739800Y141000D02*
G54D31*
D03*
X742758Y52607D02*
G54D31*
D03*
X584648Y448394D02*
G54D31*
D03*
X522356Y453606D02*
G54D31*
D03*
X457648Y448394D02*
G54D31*
D03*
X394354Y435823D02*
G54D31*
D03*
X611256Y364706D02*
G54D31*
D03*
X278216Y162539D02*
G54D31*
D03*
X695350Y223549D02*
G54D31*
D03*
G54D34*
X619150Y223549D02*
X619150Y226600D01*
X549300Y296450D01*
X327050Y296450D01*
X276250Y245650D01*
X238150Y245650D01*
X219100Y226600D01*
X168300Y226600D01*
X168300Y223549D01*
G54D34*
X739800Y242600D02*
X739800Y245650D01*
X689000Y245650D01*
X669950Y226600D01*
X619150Y226600D01*
X619150Y223549D01*
M02*
