%FSLAX34Y34*%
%MOMM*%
%LNSILK_TOP*%
G71*
G01*
%ADD10C,0.150*%
%ADD11C,0.167*%
%ADD12C,0.200*%
%ADD13C,0.144*%
%ADD14C,0.206*%
%ADD15C,0.222*%
%ADD16C,0.111*%
%ADD17C,0.300*%
%LPD*%
G54D10*
X31130Y267586D02*
X31130Y245411D01*
X-19570Y245411D01*
X-19570Y267586D01*
X31130Y267586D01*
G54D10*
X31330Y256498D02*
X39230Y256498D01*
G54D10*
X-19670Y256498D02*
X-27570Y256498D01*
G54D11*
X-3144Y234241D02*
X-1144Y232574D01*
X-477Y230907D01*
X-477Y227574D01*
G54D11*
X-5811Y227574D02*
X-5811Y240907D01*
X-2477Y240907D01*
X-1144Y240074D01*
X-477Y238407D01*
X-477Y236741D01*
X-1144Y235074D01*
X-2477Y234241D01*
X-5811Y234241D01*
G54D11*
X3189Y235907D02*
X6523Y240907D01*
X6523Y227574D01*
G54D10*
X-71725Y122068D02*
X-71725Y147468D01*
X-143325Y147468D01*
X-143325Y122068D01*
X-71725Y122068D01*
G54D11*
X-152862Y127085D02*
X-151196Y126085D01*
X-150362Y124085D01*
X-150362Y122085D01*
X-151196Y120085D01*
X-152862Y119085D01*
X-161196Y119085D01*
X-162862Y120085D01*
X-163696Y122085D01*
X-163696Y124085D01*
X-162862Y126085D01*
X-161196Y127085D01*
G54D11*
X-158696Y130752D02*
X-163696Y135752D01*
X-150362Y135752D01*
G54D10*
X408772Y65787D02*
X408772Y91187D01*
X337172Y91187D01*
X337172Y65787D01*
X408772Y65787D01*
G54D11*
X364148Y99079D02*
X363148Y97412D01*
X361148Y96579D01*
X359148Y96579D01*
X357148Y97412D01*
X356148Y99079D01*
X356148Y107412D01*
X357148Y109079D01*
X359148Y109912D01*
X361148Y109912D01*
X363148Y109079D01*
X364148Y107412D01*
G54D11*
X367815Y99079D02*
X368815Y97412D01*
X370815Y96579D01*
X372815Y96579D01*
X374815Y97412D01*
X375815Y99079D01*
X375815Y103245D01*
X375815Y104079D01*
X372815Y102412D01*
X370815Y102412D01*
X368815Y103245D01*
X367815Y104912D01*
X367815Y107412D01*
X368815Y109079D01*
X370815Y109912D01*
X372815Y109912D01*
X374815Y109079D01*
X375815Y107412D01*
X375815Y103245D01*
G54D12*
X485160Y231765D02*
X494760Y231765D01*
G54D12*
X489960Y235765D02*
X489960Y227765D01*
G54D12*
X499160Y240765D02*
X505160Y224765D01*
X511160Y240765D01*
G54D10*
X462664Y253288D02*
X462664Y278689D01*
X513464Y278688D01*
X513464Y253288D01*
X462664Y253288D01*
G54D10*
X99760Y61651D02*
X107760Y61651D01*
X107760Y10926D01*
X99760Y10926D01*
G54D10*
G75*
G01X93449Y61782D02*
G03X93449Y10782I0J-25500D01*
G01*
G54D11*
X91616Y73326D02*
X96616Y70826D01*
G54D11*
X95616Y81659D02*
X95616Y73326D01*
X94616Y71659D01*
X92616Y70826D01*
X90616Y70826D01*
X88616Y71659D01*
X87616Y73326D01*
X87616Y81659D01*
X88616Y83326D01*
X90616Y84159D01*
X92616Y84159D01*
X94616Y83326D01*
X95616Y81659D01*
G54D11*
X100283Y79159D02*
X105283Y84159D01*
X105283Y70826D01*
G54D10*
X-196240Y-22249D02*
X-94640Y-22249D01*
X-94640Y-123849D01*
X-196240Y-123849D01*
X-196240Y-22249D01*
G54D13*
X-196990Y4501D02*
X-196990Y4501D01*
G54D13*
X-196990Y-14999D02*
X-196990Y-14999D01*
G54D10*
X53172Y167387D02*
X53172Y192787D01*
X-18428Y192787D01*
X-18428Y167387D01*
X53172Y167387D01*
G54D11*
X4548Y204845D02*
X7548Y203179D01*
X8548Y201512D01*
X8548Y198179D01*
G54D11*
X548Y198179D02*
X548Y211512D01*
X5548Y211512D01*
X7548Y210679D01*
X8548Y209012D01*
X8548Y207345D01*
X7548Y205679D01*
X5548Y204845D01*
X548Y204845D01*
G54D11*
X12215Y209012D02*
X13215Y210679D01*
X15215Y211512D01*
X17215Y211512D01*
X19215Y210679D01*
X20215Y209012D01*
X20215Y207345D01*
X19215Y205679D01*
X17215Y204845D01*
X19215Y204012D01*
X20215Y202345D01*
X20215Y200679D01*
X19215Y199012D01*
X17215Y198179D01*
X15215Y198179D01*
X13215Y199012D01*
X12215Y200679D01*
G54D10*
X43830Y127886D02*
X43830Y105711D01*
X-6870Y105711D01*
X-6870Y127886D01*
X43830Y127886D01*
G54D10*
X44030Y116798D02*
X51930Y116798D01*
G54D10*
X-6970Y116798D02*
X-14870Y116798D01*
G54D11*
X5873Y90374D02*
X5206Y88707D01*
X3873Y87874D01*
X2539Y87874D01*
X1206Y88707D01*
X539Y90374D01*
X539Y98707D01*
X1206Y100374D01*
X2539Y101207D01*
X3873Y101207D01*
X5206Y100374D01*
X5873Y98707D01*
G54D11*
X14873Y87874D02*
X9539Y87874D01*
X9539Y88707D01*
X10206Y90374D01*
X14206Y95374D01*
X14873Y97041D01*
X14873Y98707D01*
X14206Y100374D01*
X12873Y101207D01*
X11539Y101207D01*
X10206Y100374D01*
X9539Y98707D01*
G54D10*
X107330Y-49914D02*
X107330Y-72089D01*
X56630Y-72089D01*
X56630Y-49914D01*
X107330Y-49914D01*
G54D10*
X107530Y-61002D02*
X115430Y-61002D01*
G54D10*
X56530Y-61002D02*
X48630Y-61002D01*
G54D11*
X73056Y-83259D02*
X75056Y-84926D01*
X75723Y-86593D01*
X75723Y-89926D01*
G54D11*
X70389Y-89926D02*
X70389Y-76593D01*
X73723Y-76593D01*
X75056Y-77426D01*
X75723Y-79093D01*
X75723Y-80759D01*
X75056Y-82426D01*
X73723Y-83259D01*
X70389Y-83259D01*
G54D11*
X83389Y-89926D02*
X83389Y-76593D01*
X79389Y-84926D01*
X79389Y-86593D01*
X84723Y-86593D01*
G54D10*
X96329Y-94959D02*
X70929Y-94959D01*
X70929Y-166560D01*
X96329Y-166559D01*
X96329Y-94959D01*
G54D11*
X-13162Y-152315D02*
X-11496Y-153315D01*
X-10662Y-155315D01*
X-10662Y-157315D01*
X-11496Y-159315D01*
X-13162Y-160315D01*
X-21496Y-160315D01*
X-23162Y-159315D01*
X-23996Y-157315D01*
X-23996Y-155315D01*
X-23162Y-153315D01*
X-21496Y-152315D01*
G54D11*
X-21496Y-148648D02*
X-23162Y-147648D01*
X-23996Y-145648D01*
X-23996Y-143648D01*
X-23162Y-141648D01*
X-21496Y-140648D01*
X-19829Y-140648D01*
X-18162Y-141648D01*
X-17329Y-143648D01*
X-16496Y-141648D01*
X-14829Y-140648D01*
X-13162Y-140648D01*
X-11496Y-141648D01*
X-10662Y-143648D01*
X-10662Y-145648D01*
X-11496Y-147648D01*
X-13162Y-148648D01*
G54D10*
X150235Y-165179D02*
X128060Y-165179D01*
X128060Y-114479D01*
X150235Y-114479D01*
X150235Y-165179D01*
G54D10*
X139147Y-165379D02*
X139147Y-173279D01*
G54D10*
X139147Y-114379D02*
X139147Y-106479D01*
G54D11*
X116889Y-130904D02*
X115223Y-132904D01*
X113556Y-133571D01*
X110223Y-133571D01*
G54D11*
X110223Y-128238D02*
X123556Y-128238D01*
X123556Y-131571D01*
X122723Y-132904D01*
X121056Y-133571D01*
X119389Y-133571D01*
X117723Y-132904D01*
X116889Y-131571D01*
X116889Y-128238D01*
G54D11*
X123556Y-142571D02*
X123556Y-137238D01*
X117723Y-137238D01*
X117723Y-137904D01*
X118556Y-139238D01*
X118556Y-140571D01*
X117723Y-141904D01*
X116056Y-142571D01*
X112723Y-142571D01*
X111056Y-141904D01*
X110223Y-140571D01*
X110223Y-139238D01*
X111056Y-137904D01*
X112723Y-137238D01*
G54D10*
X363029Y286041D02*
X337629Y286041D01*
X337629Y214441D01*
X363029Y214441D01*
X363029Y286041D01*
G54D10*
X236029Y286041D02*
X210629Y286041D01*
X210629Y214441D01*
X236029Y214441D01*
X236029Y286041D01*
G54D10*
X275316Y268957D02*
X275316Y261357D01*
G54D10*
X279116Y265157D02*
X271516Y265157D01*
G54D10*
G75*
G01X327866Y247651D02*
G03X327866Y247651I-39850J0D01*
G01*
G54D14*
X354616Y288251D02*
X354616Y288251D01*
G54D14*
X335116Y288251D02*
X335116Y288251D01*
G54D10*
X159314Y165047D02*
X159314Y142872D01*
X108614Y142872D01*
X108614Y165047D01*
X159314Y165047D01*
G54D10*
X159514Y153960D02*
X167414Y153960D01*
G54D10*
X108514Y153960D02*
X100614Y153960D01*
G54D11*
X125040Y131702D02*
X127040Y130035D01*
X127706Y128368D01*
X127706Y125035D01*
G54D11*
X122373Y125035D02*
X122373Y138368D01*
X125706Y138368D01*
X127040Y137535D01*
X127706Y135868D01*
X127706Y134202D01*
X127040Y132535D01*
X125706Y131702D01*
X122373Y131702D01*
G54D11*
X136706Y125035D02*
X131373Y125035D01*
X131373Y125868D01*
X132040Y127535D01*
X136040Y132535D01*
X136706Y134202D01*
X136706Y135868D01*
X136040Y137535D01*
X134706Y138368D01*
X133373Y138368D01*
X132040Y137535D01*
X131373Y135868D01*
G54D11*
X254610Y-176249D02*
X259610Y-162916D01*
X264610Y-176249D01*
G54D11*
X256610Y-171249D02*
X262610Y-171249D01*
G54D11*
X272277Y-176249D02*
X272277Y-162916D01*
G54D11*
X268277Y-162916D02*
X276277Y-162916D01*
G54D11*
X283944Y-176249D02*
X283944Y-162916D01*
G54D11*
X279944Y-162916D02*
X287944Y-162916D01*
G54D11*
X291611Y-176249D02*
X291611Y-162916D01*
X299611Y-176249D01*
X299611Y-162916D01*
G54D11*
X488060Y191684D02*
X488060Y183351D01*
X487060Y181684D01*
X485060Y180851D01*
X483060Y180851D01*
X481060Y181684D01*
X480060Y183351D01*
X480060Y191684D01*
X481060Y193351D01*
X483060Y194184D01*
X485060Y194184D01*
X487060Y193351D01*
X488060Y191684D01*
G54D11*
X491727Y194184D02*
X491727Y183351D01*
X492727Y181684D01*
X494727Y180851D01*
X496727Y180851D01*
X498727Y181684D01*
X499727Y183351D01*
X499727Y194184D01*
G54D11*
X507394Y180851D02*
X507394Y194184D01*
G54D11*
X503394Y194184D02*
X511394Y194184D01*
G54D11*
X280860Y91951D02*
X280860Y105284D01*
G54D11*
X276860Y105284D02*
X284860Y105284D01*
G54D11*
X288527Y98618D02*
X290527Y99451D01*
X292927Y99451D01*
X294527Y97784D01*
X294527Y91951D01*
G54D11*
X294527Y94451D02*
X293527Y96118D01*
X291527Y96451D01*
X289527Y96118D01*
X288527Y94451D01*
X288927Y92784D01*
X290527Y91951D01*
X291527Y91951D01*
X291927Y91951D01*
X293527Y92784D01*
X294527Y94451D01*
G54D11*
X298194Y99451D02*
X298194Y88618D01*
G54D11*
X298194Y94451D02*
X299194Y92284D01*
X301194Y91951D01*
X303194Y92284D01*
X304194Y93951D01*
X304194Y97284D01*
X303194Y98951D01*
X301194Y99451D01*
X299194Y98951D01*
X298194Y96951D01*
G54D11*
X255460Y155451D02*
X255460Y168784D01*
G54D11*
X251460Y168784D02*
X259460Y168784D01*
G54D11*
X263127Y163784D02*
X268127Y168784D01*
X268127Y155451D01*
G54D15*
X364743Y310390D02*
X368743Y308168D01*
X370077Y305945D01*
X370077Y301501D01*
G54D15*
X359410Y301501D02*
X359410Y319279D01*
X366077Y319279D01*
X368743Y318168D01*
X370077Y315945D01*
X370077Y313723D01*
X368743Y311501D01*
X366077Y310390D01*
X359410Y310390D01*
G54D15*
X374966Y301501D02*
X374966Y319279D01*
X384299Y319279D01*
G54D15*
X374966Y310390D02*
X384299Y310390D01*
G54D15*
X389188Y309279D02*
X399855Y309279D01*
G54D15*
X404744Y301501D02*
X404744Y319279D01*
X411411Y319279D01*
X414077Y318168D01*
X415411Y315945D01*
X415411Y313723D01*
X414077Y311501D01*
X411411Y310390D01*
X404744Y310390D01*
G54D15*
X425633Y310390D02*
X429633Y308168D01*
X430967Y305945D01*
X430967Y301501D01*
G54D15*
X420300Y301501D02*
X420300Y319279D01*
X426967Y319279D01*
X429633Y318168D01*
X430967Y315945D01*
X430967Y313723D01*
X429633Y311501D01*
X426967Y310390D01*
X420300Y310390D01*
G54D15*
X445189Y301501D02*
X435856Y301501D01*
X435856Y319279D01*
X445189Y319279D01*
G54D15*
X435856Y310390D02*
X445189Y310390D01*
G54D15*
X450078Y301501D02*
X456745Y319279D01*
X463411Y301501D01*
G54D15*
X452745Y308168D02*
X460745Y308168D01*
G54D15*
X468300Y301501D02*
X468300Y319279D01*
X474967Y308168D01*
X481633Y319279D01*
X481633Y301501D01*
G54D15*
X486522Y301501D02*
X486522Y319279D01*
X493189Y319279D01*
X495855Y318168D01*
X497189Y315945D01*
X497189Y313723D01*
X495855Y311501D01*
X493189Y310390D01*
X486522Y310390D01*
G54D12*
X248260Y-74649D02*
X311760Y-74649D01*
G54D16*
X279527Y-56004D02*
X281527Y-57116D01*
X282193Y-58227D01*
X282193Y-60449D01*
G54D16*
X276860Y-60449D02*
X276860Y-51560D01*
X280193Y-51560D01*
X281527Y-52116D01*
X282193Y-53227D01*
X282193Y-54338D01*
X281527Y-55449D01*
X280193Y-56004D01*
X276860Y-56004D01*
G54D16*
X284637Y-60449D02*
X287970Y-51560D01*
X291304Y-60449D01*
G54D16*
X285970Y-57116D02*
X289970Y-57116D01*
G54D16*
X293748Y-54893D02*
X297081Y-51560D01*
X297081Y-60449D01*
G54D16*
X228727Y-119504D02*
X230727Y-120616D01*
X231393Y-121727D01*
X231393Y-123949D01*
G54D16*
X226060Y-123949D02*
X226060Y-115060D01*
X229393Y-115060D01*
X230727Y-115616D01*
X231393Y-116727D01*
X231393Y-117838D01*
X230727Y-118949D01*
X229393Y-119504D01*
X226060Y-119504D01*
G54D16*
X233837Y-123949D02*
X237170Y-115060D01*
X240504Y-123949D01*
G54D16*
X235170Y-120616D02*
X239170Y-120616D01*
G54D16*
X248281Y-123949D02*
X242948Y-123949D01*
X242948Y-123393D01*
X243615Y-122282D01*
X247615Y-118949D01*
X248281Y-117838D01*
X248281Y-116727D01*
X247615Y-115616D01*
X246281Y-115060D01*
X244948Y-115060D01*
X243615Y-115616D01*
X242948Y-116727D01*
G54D16*
X317627Y-119504D02*
X319627Y-120616D01*
X320293Y-121727D01*
X320293Y-123949D01*
G54D16*
X314960Y-123949D02*
X314960Y-115060D01*
X318293Y-115060D01*
X319627Y-115616D01*
X320293Y-116727D01*
X320293Y-117838D01*
X319627Y-118949D01*
X318293Y-119504D01*
X314960Y-119504D01*
G54D16*
X322737Y-123949D02*
X326070Y-115060D01*
X329404Y-123949D01*
G54D16*
X324070Y-120616D02*
X328070Y-120616D01*
G54D16*
X331848Y-116727D02*
X332515Y-115616D01*
X333848Y-115060D01*
X335181Y-115060D01*
X336515Y-115616D01*
X337181Y-116727D01*
X337181Y-117838D01*
X336515Y-118949D01*
X335181Y-119504D01*
X336515Y-120060D01*
X337181Y-121171D01*
X337181Y-122282D01*
X336515Y-123393D01*
X335181Y-123949D01*
X333848Y-123949D01*
X332515Y-123393D01*
X331848Y-122282D01*
G54D12*
X235560Y179351D02*
X286360Y179351D01*
X286360Y65051D01*
X235560Y65051D01*
X235560Y179351D01*
G54D16*
X248260Y39651D02*
X248260Y48540D01*
X252927Y48540D01*
G54D16*
X248260Y44096D02*
X252927Y44096D01*
G54D16*
X258038Y39651D02*
X258038Y48540D01*
G54D16*
X255371Y48540D02*
X260704Y48540D01*
G54D16*
X268481Y48540D02*
X263148Y48540D01*
X263148Y44651D01*
X263815Y44651D01*
X265148Y45207D01*
X266481Y45207D01*
X267815Y44651D01*
X268481Y43540D01*
X268481Y41318D01*
X267815Y40207D01*
X266481Y39651D01*
X265148Y39651D01*
X263815Y40207D01*
X263148Y41318D01*
G54D16*
X276258Y46873D02*
X276258Y41318D01*
X275592Y40207D01*
X274258Y39651D01*
X272925Y39651D01*
X271592Y40207D01*
X270925Y41318D01*
X270925Y46873D01*
X271592Y47984D01*
X272925Y48540D01*
X274258Y48540D01*
X275592Y47984D01*
X276258Y46873D01*
G54D16*
X278702Y43540D02*
X284035Y43540D01*
G54D16*
X286479Y48540D02*
X291812Y48540D01*
X291146Y47429D01*
X289812Y45762D01*
X288479Y43540D01*
X287812Y41873D01*
X287812Y39651D01*
G54D16*
X299589Y48540D02*
X294256Y48540D01*
X294256Y44651D01*
X294923Y44651D01*
X296256Y45207D01*
X297589Y45207D01*
X298923Y44651D01*
X299589Y43540D01*
X299589Y41318D01*
X298923Y40207D01*
X297589Y39651D01*
X296256Y39651D01*
X294923Y40207D01*
X294256Y41318D01*
G54D10*
X156160Y279251D02*
X156160Y260251D01*
X118160Y260251D01*
X118160Y279251D01*
X156160Y279251D01*
G54D10*
X156260Y269751D02*
X176860Y269751D01*
G54D10*
X97460Y269751D02*
X118060Y269751D01*
G54D13*
X131073Y246201D02*
X131073Y234645D01*
X137140Y234645D01*
G54D13*
X197960Y253001D02*
X197960Y253001D01*
G54D10*
X170229Y199441D02*
X170229Y224841D01*
X98629Y224841D01*
X98629Y199441D01*
X170229Y199441D01*
G54D10*
X364216Y180057D02*
X364216Y172457D01*
G54D10*
X368016Y176257D02*
X360416Y176257D01*
G54D10*
G75*
G01X416766Y158751D02*
G03X416766Y158751I-39850J0D01*
G01*
G54D14*
X443516Y199351D02*
X443516Y199351D01*
G54D14*
X424016Y199351D02*
X424016Y199351D01*
G54D17*
X-78140Y-188600D02*
X22460Y-188500D01*
X22360Y11400D01*
X-78140Y11400D01*
X-78140Y-188600D01*
G54D12*
X-66040Y0D02*
X-66040Y-25400D01*
X-59740Y-25400D01*
X-59840Y-25400D01*
X-53440Y-42900D01*
X-53340Y-42900D01*
X-45440Y-12700D01*
X-37440Y-44500D01*
X-29540Y-12700D01*
X-19940Y-44500D01*
X-10540Y-12700D01*
X-2540Y-44500D01*
X3860Y-25400D01*
X10160Y-25400D01*
X10160Y0D01*
G54D12*
X-66040Y-177800D02*
X-40740Y-177800D01*
X-40740Y-158800D01*
G54D12*
X-66040Y-127000D02*
X-40740Y-127000D01*
X-40740Y-146000D01*
G54D12*
X10160Y-177800D02*
X-15240Y-177800D01*
X-15240Y-158800D01*
G54D12*
X10160Y-127000D02*
X-15240Y-127000D01*
X-15240Y-146000D01*
G36*
X-40640Y-158800D02*
X-40640Y-158700D01*
X-47040Y-171400D01*
X-34340Y-171400D01*
X-40740Y-158800D01*
X-40640Y-158800D01*
G37*
G54D17*
X-40640Y-158800D02*
X-40640Y-158700D01*
X-47040Y-171400D01*
X-34340Y-171400D01*
X-40740Y-158800D01*
X-40640Y-158800D01*
G36*
X-15240Y-158900D02*
X-15240Y-158800D01*
X-21640Y-171500D01*
X-8940Y-171500D01*
X-15340Y-158900D01*
X-15240Y-158900D01*
G37*
G54D17*
X-15240Y-158900D02*
X-15240Y-158800D01*
X-21640Y-171500D01*
X-8940Y-171500D01*
X-15340Y-158900D01*
X-15240Y-158900D01*
G36*
X-40540Y-145800D02*
X-40540Y-145900D01*
X-34140Y-133200D01*
X-46840Y-133200D01*
X-40440Y-145800D01*
X-40540Y-145800D01*
G37*
G54D17*
X-40540Y-145800D02*
X-40540Y-145900D01*
X-34140Y-133200D01*
X-46840Y-133200D01*
X-40440Y-145800D01*
X-40540Y-145800D01*
G36*
X-15240Y-145900D02*
X-15240Y-146000D01*
X-8840Y-133300D01*
X-21540Y-133300D01*
X-15140Y-145900D01*
X-15240Y-145900D01*
G37*
G54D17*
X-15240Y-145900D02*
X-15240Y-146000D01*
X-8840Y-133300D01*
X-21540Y-133300D01*
X-15140Y-145900D01*
X-15240Y-145900D01*
G54D12*
X-40640Y-146000D02*
X-40640Y-146100D01*
X-59640Y-152500D01*
X-59640Y-152400D01*
X-73940Y-152400D01*
X-73940Y-88900D01*
X-73940Y-76200D01*
X-66040Y-76200D01*
G54D12*
X-15240Y-146000D02*
X-15240Y-146000D01*
X3760Y-152400D01*
X18060Y-152400D01*
X18060Y-76200D01*
X10160Y-76200D01*
G54D10*
X-104140Y70851D02*
X-104140Y43451D01*
X-180340Y43451D01*
X-180340Y70851D01*
X-104140Y70851D01*
G54D10*
X-174040Y43451D02*
X-174040Y70851D01*
G54D10*
X10685Y45143D02*
X10685Y70543D01*
X-60915Y70543D01*
X-60915Y45143D01*
X10685Y45143D01*
G54D11*
X-33971Y78435D02*
X-34971Y76768D01*
X-36971Y75935D01*
X-38971Y75935D01*
X-40971Y76768D01*
X-41971Y78435D01*
X-41971Y86768D01*
X-40971Y88435D01*
X-38971Y89268D01*
X-36971Y89268D01*
X-34971Y88435D01*
X-33971Y86768D01*
G54D11*
X-26304Y82601D02*
X-23304Y80935D01*
X-22304Y79268D01*
X-22304Y75935D01*
G54D11*
X-30304Y75935D02*
X-30304Y89268D01*
X-25304Y89268D01*
X-23304Y88435D01*
X-22304Y86768D01*
X-22304Y85101D01*
X-23304Y83435D01*
X-25304Y82601D01*
X-30304Y82601D01*
G54D11*
X-18637Y84268D02*
X-13637Y89268D01*
X-13637Y75935D01*
G54D16*
X-153256Y68284D02*
X-153256Y59396D01*
X-148590Y59396D01*
G54D16*
X-143479Y63840D02*
X-141479Y62729D01*
X-140812Y61618D01*
X-140812Y59396D01*
G54D16*
X-146145Y59395D02*
X-146145Y68284D01*
X-142812Y68284D01*
X-141479Y67729D01*
X-140812Y66618D01*
X-140812Y65507D01*
X-141479Y64395D01*
X-142812Y63840D01*
X-146145Y63840D01*
G54D16*
X-138368Y64951D02*
X-135035Y68284D01*
X-135035Y59396D01*
G54D10*
X451460Y168251D02*
X553060Y168251D01*
X553060Y66651D01*
X451460Y66651D01*
X451460Y168251D01*
G54D13*
X450710Y195001D02*
X450710Y195001D01*
G54D13*
X450710Y175501D02*
X450710Y175501D01*
G54D11*
X88438Y-190415D02*
X90104Y-191415D01*
X90938Y-193415D01*
X90938Y-195415D01*
X90104Y-197415D01*
X88438Y-198415D01*
X80104Y-198415D01*
X78438Y-197415D01*
X77604Y-195415D01*
X77604Y-193415D01*
X78438Y-191415D01*
X80104Y-190415D01*
G54D11*
X80104Y-186748D02*
X78438Y-185748D01*
X77604Y-183748D01*
X77604Y-181748D01*
X78438Y-179748D01*
X80104Y-178748D01*
X81771Y-178748D01*
X83438Y-179748D01*
X84271Y-181748D01*
X85104Y-179748D01*
X86771Y-178748D01*
X88438Y-178748D01*
X90104Y-179748D01*
X90938Y-181748D01*
X90938Y-183748D01*
X90104Y-185748D01*
X88438Y-186748D01*
G54D17*
X372710Y-188600D02*
X473310Y-188500D01*
X473210Y11400D01*
X372710Y11400D01*
X372710Y-188600D01*
G54D12*
X384810Y0D02*
X384810Y-25400D01*
X391110Y-25400D01*
X391010Y-25400D01*
X397410Y-42900D01*
X397510Y-42900D01*
X405410Y-12700D01*
X413410Y-44500D01*
X421310Y-12700D01*
X430910Y-44500D01*
X440310Y-12700D01*
X448310Y-44500D01*
X454710Y-25400D01*
X461010Y-25400D01*
X461010Y0D01*
G54D12*
X384810Y-177800D02*
X410110Y-177800D01*
X410110Y-158800D01*
G54D12*
X384810Y-127000D02*
X410110Y-127000D01*
X410110Y-146000D01*
G54D12*
X461010Y-177800D02*
X435610Y-177800D01*
X435610Y-158800D01*
G54D12*
X461010Y-127000D02*
X435610Y-127000D01*
X435610Y-146000D01*
G36*
X410210Y-158800D02*
X410210Y-158700D01*
X403810Y-171400D01*
X416510Y-171400D01*
X410110Y-158800D01*
X410210Y-158800D01*
G37*
G54D17*
X410210Y-158800D02*
X410210Y-158700D01*
X403810Y-171400D01*
X416510Y-171400D01*
X410110Y-158800D01*
X410210Y-158800D01*
G36*
X435610Y-158900D02*
X435610Y-158800D01*
X429210Y-171500D01*
X441910Y-171500D01*
X435510Y-158900D01*
X435610Y-158900D01*
G37*
G54D17*
X435610Y-158900D02*
X435610Y-158800D01*
X429210Y-171500D01*
X441910Y-171500D01*
X435510Y-158900D01*
X435610Y-158900D01*
G36*
X410310Y-145800D02*
X410310Y-145900D01*
X416710Y-133200D01*
X404010Y-133200D01*
X410410Y-145800D01*
X410310Y-145800D01*
G37*
G54D17*
X410310Y-145800D02*
X410310Y-145900D01*
X416710Y-133200D01*
X404010Y-133200D01*
X410410Y-145800D01*
X410310Y-145800D01*
G36*
X435610Y-145900D02*
X435610Y-146000D01*
X442010Y-133300D01*
X429310Y-133300D01*
X435710Y-145900D01*
X435610Y-145900D01*
G37*
G54D17*
X435610Y-145900D02*
X435610Y-146000D01*
X442010Y-133300D01*
X429310Y-133300D01*
X435710Y-145900D01*
X435610Y-145900D01*
G54D12*
X410210Y-146000D02*
X410210Y-146100D01*
X391210Y-152500D01*
X391210Y-152400D01*
X376910Y-152400D01*
X376910Y-88900D01*
X376910Y-76200D01*
X384810Y-76200D01*
G54D12*
X435610Y-146000D02*
X435610Y-146000D01*
X454610Y-152400D01*
X468910Y-152400D01*
X468910Y-76200D01*
X461010Y-76200D01*
G54D10*
X519160Y-69849D02*
X491760Y-69849D01*
X491760Y6351D01*
X519160Y6351D01*
X519160Y-69849D01*
G54D10*
X491760Y51D02*
X519160Y51D01*
G54D10*
X495585Y-181157D02*
X520985Y-181157D01*
X520985Y-109557D01*
X495585Y-109557D01*
X495585Y-181157D01*
G54D16*
X508873Y-15254D02*
X499984Y-15254D01*
X499984Y-19921D01*
G54D16*
X504428Y-25032D02*
X503317Y-27032D01*
X502206Y-27699D01*
X499984Y-27699D01*
G54D16*
X499984Y-22365D02*
X508873Y-22365D01*
X508873Y-25699D01*
X508317Y-27032D01*
X507206Y-27699D01*
X506095Y-27699D01*
X504984Y-27032D01*
X504428Y-25699D01*
X504428Y-22365D01*
G54D16*
X499984Y-35476D02*
X499984Y-30142D01*
X500540Y-30142D01*
X501650Y-30809D01*
X504984Y-34809D01*
X506095Y-35476D01*
X507206Y-35476D01*
X508317Y-34809D01*
X508873Y-33476D01*
X508873Y-32142D01*
X508317Y-30809D01*
X507206Y-30142D01*
G54D12*
X-92852Y310285D02*
X-83252Y310285D01*
G54D12*
X-88052Y314285D02*
X-88052Y306285D01*
G54D12*
X-78852Y319285D02*
X-72852Y303285D01*
X-66852Y319285D01*
G54D12*
X-57652Y311285D02*
X-54052Y309285D01*
X-52852Y307285D01*
X-52852Y303285D01*
G54D12*
X-62452Y303285D02*
X-62452Y319285D01*
X-56452Y319285D01*
X-54052Y318285D01*
X-52852Y316285D01*
X-52852Y314285D01*
X-54052Y312285D01*
X-56452Y311285D01*
X-62452Y311285D01*
G54D10*
X-152652Y300236D02*
X-152651Y325636D01*
X-101852Y325636D01*
X-101852Y300236D01*
X-152652Y300236D01*
G54D12*
X-164829Y311888D02*
X-164828Y305537D01*
G54D12*
X-156891Y305537D02*
X-172766Y305538D01*
G54D12*
X-170385Y302363D02*
X-159272Y302363D01*
G54D12*
X-162448Y299188D02*
X-167210Y299188D01*
G54D12*
X463407Y240675D02*
X463408Y234325D01*
G54D12*
X471345Y234325D02*
X455470Y234325D01*
G54D12*
X457851Y231150D02*
X468964Y231150D01*
G54D12*
X465788Y227975D02*
X461026Y227975D01*
G54D11*
X-154940Y-149349D02*
X-154940Y-136016D01*
G54D11*
X-151273Y-149349D02*
X-151273Y-136016D01*
X-143273Y-149349D01*
X-143273Y-136016D01*
G54D11*
X226060Y149418D02*
X228060Y150251D01*
X230460Y150251D01*
X232060Y148584D01*
X232060Y142751D01*
G54D11*
X232060Y145251D02*
X231060Y146918D01*
X229060Y147251D01*
X227060Y146918D01*
X226060Y145251D01*
X226460Y143584D01*
X228060Y142751D01*
X229060Y142751D01*
X229460Y142751D01*
X231060Y143584D01*
X232060Y145251D01*
G54D11*
X302260Y142751D02*
X302260Y156084D01*
G54D11*
X302260Y148084D02*
X303260Y149751D01*
X305260Y150251D01*
X307260Y149751D01*
X308260Y148084D01*
X308260Y144751D01*
X307260Y143084D01*
X305260Y142751D01*
X303260Y143084D01*
X302260Y144751D01*
G54D11*
X393238Y266785D02*
X394904Y265785D01*
X395738Y263785D01*
X395738Y261785D01*
X394904Y259785D01*
X393238Y258785D01*
X384904Y258785D01*
X383238Y259785D01*
X382404Y261785D01*
X382404Y263785D01*
X383238Y265785D01*
X384904Y266785D01*
G54D11*
X395738Y276452D02*
X382404Y276452D01*
X390738Y270452D01*
X392404Y270452D01*
X392404Y278452D01*
G54D11*
X285702Y296124D02*
X284702Y294458D01*
X282702Y293624D01*
X280702Y293624D01*
X278702Y294458D01*
X277702Y296124D01*
X277702Y304458D01*
X278702Y306124D01*
X280702Y306958D01*
X282702Y306958D01*
X284702Y306124D01*
X285702Y304458D01*
G54D11*
X295369Y293624D02*
X295369Y306958D01*
X289369Y298624D01*
X289369Y296958D01*
X297369Y296958D01*
G54D11*
X222202Y296124D02*
X221202Y294458D01*
X219202Y293624D01*
X217202Y293624D01*
X215202Y294458D01*
X214202Y296124D01*
X214202Y304458D01*
X215202Y306124D01*
X217202Y306958D01*
X219202Y306958D01*
X221202Y306124D01*
X222202Y304458D01*
G54D11*
X233869Y306958D02*
X225869Y306958D01*
X225869Y301124D01*
X226869Y301124D01*
X228869Y301958D01*
X230869Y301958D01*
X232869Y301124D01*
X233869Y299458D01*
X233869Y296124D01*
X232869Y294458D01*
X230869Y293624D01*
X228869Y293624D01*
X226869Y294458D01*
X225869Y296124D01*
G54D11*
X184102Y213574D02*
X183102Y211908D01*
X181102Y211074D01*
X179102Y211074D01*
X177102Y211908D01*
X176102Y213574D01*
X176102Y221908D01*
X177102Y223574D01*
X179102Y224408D01*
X181102Y224408D01*
X183102Y223574D01*
X184102Y221908D01*
G54D11*
X195769Y221908D02*
X194769Y223574D01*
X192769Y224408D01*
X190769Y224408D01*
X188769Y223574D01*
X187769Y221908D01*
X187769Y217741D01*
X187769Y216908D01*
X190769Y218574D01*
X192769Y218574D01*
X194769Y217741D01*
X195769Y216074D01*
X195769Y213574D01*
X194769Y211908D01*
X192769Y211074D01*
X190769Y211074D01*
X188769Y211908D01*
X187769Y213574D01*
X187769Y217741D01*
G54D11*
X425402Y181824D02*
X424402Y180158D01*
X422402Y179324D01*
X420402Y179324D01*
X418402Y180158D01*
X417402Y181824D01*
X417402Y190158D01*
X418402Y191824D01*
X420402Y192658D01*
X422402Y192658D01*
X424402Y191824D01*
X425402Y190158D01*
G54D11*
X434070Y185991D02*
X432070Y185991D01*
X430070Y186824D01*
X429070Y188491D01*
X429070Y190158D01*
X430070Y191824D01*
X432070Y192658D01*
X434070Y192658D01*
X436070Y191824D01*
X437070Y190158D01*
X437070Y188491D01*
X436070Y186824D01*
X434070Y185991D01*
X436070Y185158D01*
X437070Y183491D01*
X437070Y181824D01*
X436070Y180158D01*
X434070Y179324D01*
X432070Y179324D01*
X430070Y180158D01*
X429070Y181824D01*
X429070Y183491D01*
X430070Y185158D01*
X432070Y185991D01*
G54D11*
X530958Y-136732D02*
X529291Y-135732D01*
X528458Y-133732D01*
X528458Y-131731D01*
X529291Y-129731D01*
X530958Y-128732D01*
X539291Y-128731D01*
X540958Y-129732D01*
X541791Y-131732D01*
X541791Y-133732D01*
X540958Y-135731D01*
X539291Y-136732D01*
G54D11*
X535125Y-144398D02*
X533458Y-147398D01*
X531791Y-148398D01*
X528458Y-148398D01*
G54D11*
X528458Y-140398D02*
X541791Y-140398D01*
X541791Y-145398D01*
X540958Y-147399D01*
X539291Y-148398D01*
X537625Y-148398D01*
X535958Y-147399D01*
X535125Y-145399D01*
X535125Y-140399D01*
G54D11*
X528458Y-160066D02*
X528458Y-152066D01*
X529291Y-152066D01*
X530958Y-153066D01*
X535958Y-159066D01*
X537624Y-160065D01*
X539291Y-160066D01*
X540958Y-159065D01*
X541791Y-157066D01*
X541791Y-155066D01*
X540958Y-153066D01*
X539292Y-152065D01*
G54D11*
X-116040Y-204182D02*
X-113040Y-205849D01*
X-112040Y-207516D01*
X-112040Y-210849D01*
G54D11*
X-120040Y-210849D02*
X-120040Y-197516D01*
X-115040Y-197516D01*
X-113040Y-198349D01*
X-112040Y-200016D01*
X-112040Y-201682D01*
X-113040Y-203349D01*
X-115040Y-204182D01*
X-120040Y-204182D01*
G54D11*
X-101373Y-210849D02*
X-108373Y-210849D01*
X-108373Y-197516D01*
X-101373Y-197516D01*
G54D11*
X-108373Y-204182D02*
X-101373Y-204182D01*
G54D11*
X-97706Y-197516D02*
X-97706Y-210849D01*
X-90706Y-210849D01*
G54D11*
X-87039Y-202516D02*
X-82039Y-197516D01*
X-82039Y-210849D01*
G54D11*
X328460Y-204182D02*
X331460Y-205849D01*
X332460Y-207516D01*
X332460Y-210849D01*
G54D11*
X324460Y-210849D02*
X324460Y-197516D01*
X329460Y-197516D01*
X331460Y-198349D01*
X332460Y-200016D01*
X332460Y-201682D01*
X331460Y-203349D01*
X329460Y-204182D01*
X324460Y-204182D01*
G54D11*
X343127Y-210849D02*
X336127Y-210849D01*
X336127Y-197516D01*
X343127Y-197516D01*
G54D11*
X336127Y-204182D02*
X343127Y-204182D01*
G54D11*
X346794Y-197516D02*
X346794Y-210849D01*
X353794Y-210849D01*
G54D11*
X365461Y-210849D02*
X357461Y-210849D01*
X357461Y-210016D01*
X358461Y-208349D01*
X364461Y-203349D01*
X365461Y-201682D01*
X365461Y-200016D01*
X364461Y-198349D01*
X362461Y-197516D01*
X360461Y-197516D01*
X358461Y-198349D01*
X357461Y-200016D01*
G54D10*
X-199281Y241872D02*
X-191281Y241872D01*
X-191281Y191146D01*
X-199281Y191146D01*
G54D10*
G75*
G01X-199242Y242002D02*
G03X-199242Y191002I0J-25500D01*
G01*
G54D10*
X-173428Y178792D02*
X-148028Y178792D01*
X-148028Y250392D01*
X-173428Y250392D01*
X-173428Y178792D01*
G54D11*
X-165794Y259905D02*
X-166794Y258239D01*
X-168794Y257405D01*
X-170794Y257405D01*
X-172794Y258239D01*
X-173794Y259905D01*
X-173794Y268239D01*
X-172794Y269905D01*
X-170794Y270739D01*
X-168794Y270739D01*
X-166794Y269905D01*
X-165794Y268239D01*
G54D11*
X-162127Y265739D02*
X-157127Y270739D01*
X-157127Y257405D01*
G54D11*
X-147460Y257405D02*
X-147460Y270739D01*
X-153460Y262405D01*
X-153460Y260739D01*
X-145460Y260739D01*
G54D10*
X-110101Y199396D02*
X-132276Y199396D01*
X-132276Y250096D01*
X-110102Y250095D01*
X-110101Y199396D01*
G54D10*
X-121189Y199195D02*
X-121189Y191295D01*
G54D10*
X-121189Y250196D02*
X-121189Y258096D01*
G54D10*
X-72001Y199396D02*
X-94176Y199396D01*
X-94176Y250096D01*
X-72002Y250095D01*
X-72001Y199396D01*
G54D10*
X-83089Y199195D02*
X-83089Y191295D01*
G54D10*
X-83089Y250196D02*
X-83089Y258096D01*
G54D11*
X-131024Y231225D02*
X-128024Y229558D01*
X-127024Y227891D01*
X-127024Y224558D01*
G54D11*
X-135024Y224558D02*
X-135024Y237891D01*
X-130024Y237891D01*
X-128024Y237058D01*
X-127024Y235391D01*
X-127024Y233725D01*
X-128024Y232058D01*
X-130024Y231225D01*
X-135024Y231225D01*
G54D11*
X-123357Y232891D02*
X-118357Y237891D01*
X-118357Y224558D01*
G54D11*
X-106690Y235391D02*
X-106690Y227058D01*
X-107690Y225391D01*
X-109690Y224558D01*
X-111690Y224558D01*
X-113690Y225391D01*
X-114690Y227058D01*
X-114690Y235391D01*
X-113690Y237058D01*
X-111690Y237891D01*
X-109690Y237891D01*
X-107690Y237058D01*
X-106690Y235391D01*
G54D11*
X-80224Y231225D02*
X-77224Y229558D01*
X-76224Y227891D01*
X-76224Y224558D01*
G54D11*
X-84224Y224558D02*
X-84224Y237891D01*
X-79224Y237891D01*
X-77224Y237058D01*
X-76224Y235391D01*
X-76224Y233725D01*
X-77224Y232058D01*
X-79224Y231225D01*
X-84224Y231225D01*
G54D11*
X-72557Y232891D02*
X-67557Y237891D01*
X-67557Y224558D01*
G54D11*
X-63890Y232891D02*
X-58890Y237891D01*
X-58890Y224558D01*
G54D16*
X-187548Y248222D02*
X-188615Y247666D01*
X-189948Y247666D01*
X-191281Y248222D01*
X-191548Y249333D01*
X-191548Y251222D01*
X-190881Y252333D01*
X-189548Y252666D01*
X-188215Y252333D01*
X-187548Y251555D01*
X-187548Y250444D01*
X-191548Y250444D01*
G54D16*
X-227640Y185451D02*
X-227640Y194340D01*
G54D16*
X-227640Y189007D02*
X-226973Y190118D01*
X-225640Y190451D01*
X-224307Y190118D01*
X-223640Y189007D01*
X-223640Y186784D01*
X-224307Y185673D01*
X-225640Y185451D01*
X-226973Y185673D01*
X-227640Y186784D01*
G54D16*
X-190506Y188218D02*
X-191840Y188551D01*
X-193173Y188218D01*
X-193840Y187107D01*
X-193840Y184884D01*
X-193173Y183773D01*
X-191840Y183551D01*
X-190506Y183773D01*
G54D12*
X48260Y311150D02*
X48260Y327150D01*
X54260Y327150D01*
X56660Y326150D01*
X57860Y324150D01*
X57860Y322150D01*
X56660Y320150D01*
X54260Y319150D01*
X48260Y319150D01*
G54D12*
X67060Y311150D02*
X67060Y327150D01*
G54D12*
X62260Y327150D02*
X71860Y327150D01*
G54D12*
X81060Y311150D02*
X81060Y327150D01*
G54D12*
X76260Y327150D02*
X85860Y327150D01*
G54D11*
X135000Y25400D02*
X127000Y25400D01*
X127000Y26233D01*
X128000Y27900D01*
X134000Y32900D01*
X135000Y34567D01*
X135000Y36233D01*
X134000Y37900D01*
X132000Y38733D01*
X130000Y38733D01*
X128000Y37900D01*
X127000Y36233D01*
G54D11*
X138667Y25400D02*
X138667Y38733D01*
X146667Y25400D01*
X146667Y38733D01*
G54D11*
X158334Y38733D02*
X150334Y38733D01*
X150334Y32900D01*
X151334Y32900D01*
X153334Y33733D01*
X155334Y33733D01*
X157334Y32900D01*
X158334Y31233D01*
X158334Y27900D01*
X157334Y26233D01*
X155334Y25400D01*
X153334Y25400D01*
X151334Y26233D01*
X150334Y27900D01*
G54D11*
X162001Y33733D02*
X167001Y38733D01*
X167001Y25400D01*
G54D11*
X178668Y36233D02*
X178668Y27900D01*
X177668Y26233D01*
X175668Y25400D01*
X173668Y25400D01*
X171668Y26233D01*
X170668Y27900D01*
X170668Y36233D01*
X171668Y37900D01*
X173668Y38733D01*
X175668Y38733D01*
X177668Y37900D01*
X178668Y36233D01*
G54D11*
X182335Y27900D02*
X183335Y26233D01*
X185335Y25400D01*
X187335Y25400D01*
X189335Y26233D01*
X190335Y27900D01*
X190335Y32067D01*
X190335Y32900D01*
X187335Y31233D01*
X185335Y31233D01*
X183335Y32067D01*
X182335Y33733D01*
X182335Y36233D01*
X183335Y37900D01*
X185335Y38733D01*
X187335Y38733D01*
X189335Y37900D01*
X190335Y36233D01*
X190335Y32067D01*
M02*
