%FSLAX34Y34*%
%MOMM*%
%LNSOLDERMASK_BOTTOM*%
G71*
G01*
%ADD10C,2.600*%
%ADD11C,2.400*%
%ADD12C,2.800*%
%ADD13C,2.600*%
%ADD14C,3.600*%
%ADD15C,2.500*%
%LPD*%
X43926Y256440D02*
G54D10*
D03*
X-32324Y256490D02*
G54D10*
D03*
X-81940Y134901D02*
G54D10*
D03*
X-132920Y134789D02*
G54D10*
D03*
X398556Y78620D02*
G54D10*
D03*
X347576Y78508D02*
G54D10*
D03*
X475435Y265976D02*
G54D10*
D03*
X500935Y265976D02*
G54D10*
D03*
X99060Y53851D02*
G54D11*
D03*
X57760Y36276D02*
G54D11*
D03*
X99095Y5960D02*
G54D11*
D03*
X-170840Y-47649D02*
G54D12*
D03*
X-120040Y-47649D02*
G54D12*
D03*
X-145440Y-73049D02*
G54D12*
D03*
X-120040Y-98449D02*
G54D12*
D03*
X-170840Y-98449D02*
G54D12*
D03*
X42957Y180220D02*
G54D10*
D03*
X-8024Y180108D02*
G54D10*
D03*
X56626Y116740D02*
G54D10*
D03*
X-19624Y116790D02*
G54D10*
D03*
X120126Y-61060D02*
G54D10*
D03*
X43876Y-61010D02*
G54D10*
D03*
X83496Y-105174D02*
G54D10*
D03*
X83608Y-156155D02*
G54D10*
D03*
X139088Y-177975D02*
G54D10*
D03*
X139139Y-101725D02*
G54D10*
D03*
X350196Y275826D02*
G54D10*
D03*
X350308Y224845D02*
G54D10*
D03*
X223196Y275826D02*
G54D10*
D03*
X223308Y224845D02*
G54D10*
D03*
X222860Y128551D02*
G54D10*
D03*
X299060Y128551D02*
G54D10*
D03*
X260960Y103151D02*
G54D10*
D03*
X288016Y230057D02*
G54D10*
D03*
X288016Y265157D02*
G54D10*
D03*
X248260Y-74649D02*
G54D10*
D03*
X311760Y-74649D02*
G54D10*
D03*
X311760Y-138149D02*
G54D10*
D03*
X248260Y-138149D02*
G54D10*
D03*
X172110Y153901D02*
G54D10*
D03*
X95860Y153951D02*
G54D10*
D03*
X43926Y256440D02*
G54D13*
D03*
X83608Y-156155D02*
G54D13*
D03*
X139088Y-177975D02*
G54D13*
D03*
X10160Y0D02*
G54D13*
D03*
X248260Y-138149D02*
G54D13*
D03*
X311760Y-138149D02*
G54D13*
D03*
G36*
X161633Y323949D02*
X187633Y323949D01*
X187633Y297949D01*
X161633Y297949D01*
X161633Y323949D01*
G37*
X-212090Y-200149D02*
G54D14*
D03*
X-212090Y314201D02*
G54D14*
D03*
X537210Y314201D02*
G54D14*
D03*
X537210Y-200149D02*
G54D14*
D03*
X187960Y269751D02*
G54D10*
D03*
X86360Y269751D02*
G54D10*
D03*
X160014Y212274D02*
G54D10*
D03*
X109033Y212162D02*
G54D10*
D03*
X376916Y141157D02*
G54D10*
D03*
X376916Y176257D02*
G54D10*
D03*
X-66040Y0D02*
G54D12*
D03*
X10160Y0D02*
G54D12*
D03*
X-66040Y-76200D02*
G54D12*
D03*
X-66040Y-127000D02*
G54D12*
D03*
X-66040Y-177800D02*
G54D12*
D03*
X10160Y-76200D02*
G54D12*
D03*
X10160Y-127000D02*
G54D12*
D03*
X10160Y-177800D02*
G54D12*
D03*
X-91440Y57151D02*
G54D15*
D03*
X-193040Y57151D02*
G54D15*
D03*
X470Y57976D02*
G54D10*
D03*
X-50510Y57864D02*
G54D10*
D03*
X-91440Y57151D02*
G54D10*
D03*
X-91440Y57151D02*
G54D13*
D03*
X470Y57976D02*
G54D13*
D03*
X476860Y142851D02*
G54D12*
D03*
X527660Y142851D02*
G54D12*
D03*
X502260Y117451D02*
G54D12*
D03*
X527660Y92051D02*
G54D12*
D03*
X476860Y92051D02*
G54D12*
D03*
X384810Y0D02*
G54D12*
D03*
X461010Y0D02*
G54D12*
D03*
X384810Y-76200D02*
G54D12*
D03*
X384810Y-127000D02*
G54D12*
D03*
X384810Y-177800D02*
G54D12*
D03*
X461010Y-76200D02*
G54D12*
D03*
X461010Y-127000D02*
G54D12*
D03*
X461010Y-177800D02*
G54D12*
D03*
X505460Y-82549D02*
G54D15*
D03*
X505460Y19051D02*
G54D15*
D03*
X508418Y-170942D02*
G54D10*
D03*
X508306Y-119962D02*
G54D10*
D03*
X-139881Y312923D02*
G54D10*
D03*
X-114381Y312923D02*
G54D10*
D03*
X505460Y-82549D02*
G54D13*
D03*
X508418Y-170942D02*
G54D13*
D03*
X350308Y224845D02*
G54D13*
D03*
X288016Y230057D02*
G54D13*
D03*
X223308Y224845D02*
G54D13*
D03*
X160014Y212274D02*
G54D13*
D03*
X376916Y141157D02*
G54D13*
D03*
X43876Y-61010D02*
G54D13*
D03*
X461010Y0D02*
G54D13*
D03*
X-199981Y234072D02*
G54D11*
D03*
X-215881Y216497D02*
G54D11*
D03*
X-199946Y198881D02*
G54D11*
D03*
X-160595Y189007D02*
G54D10*
D03*
X-160707Y239988D02*
G54D10*
D03*
X-121248Y186599D02*
G54D10*
D03*
X-121198Y262850D02*
G54D10*
D03*
X-83148Y186599D02*
G54D10*
D03*
X-83098Y262850D02*
G54D10*
D03*
X-2540Y317500D02*
G54D10*
D03*
X22860Y317500D02*
G54D10*
D03*
G36*
X161633Y-190401D02*
X187633Y-190401D01*
X187633Y-216401D01*
X161633Y-216401D01*
X161633Y-190401D01*
G37*
M02*
