%FSLAX34Y34*%
%MOMM*%
%LNCOPPER_TOP*%
G71*
G01*
%ADD10C,3.000*%
%ADD11C,3.000*%
%ADD12C,0.733*%
%ADD13C,2.200*%
%ADD14C,2.200*%
%LPD*%
G36*
X0Y1000000D02*
X670000Y1000000D01*
X670000Y790000D01*
X0Y790000D01*
X0Y1000000D01*
G37*
%LPC*%
X19050Y914400D02*
G54D10*
D03*
X19050Y812800D02*
G54D10*
D03*
X158750Y890350D02*
G54D11*
D03*
X158750Y989250D02*
G54D11*
D03*
X209550Y831850D02*
G54D10*
D03*
X107950Y831850D02*
G54D10*
D03*
X287100Y895350D02*
G54D11*
D03*
X386000Y895350D02*
G54D11*
D03*
X514350Y825500D02*
G54D10*
D03*
X412750Y825500D02*
G54D10*
D03*
X514350Y890350D02*
G54D11*
D03*
X514350Y989250D02*
G54D11*
D03*
X647700Y914400D02*
G54D10*
D03*
X647700Y812800D02*
G54D10*
D03*
X19050Y914400D02*
G54D11*
D03*
X209550Y831850D02*
G54D11*
D03*
X514350Y825500D02*
G54D11*
D03*
X647700Y812800D02*
G54D11*
D03*
%LPD*%
G54D12*
G36*
X15383Y914400D02*
X15383Y929900D01*
X22717Y929900D01*
X22717Y914400D01*
X15383Y914400D01*
G37*
G36*
X19050Y918067D02*
X34550Y918067D01*
X34550Y910733D01*
X19050Y910733D01*
X19050Y918067D01*
G37*
G36*
X22717Y914400D02*
X22717Y898900D01*
X15383Y898900D01*
X15383Y914400D01*
X22717Y914400D01*
G37*
G36*
X19050Y910733D02*
X3550Y910733D01*
X3550Y918067D01*
X19050Y918067D01*
X19050Y910733D01*
G37*
G54D12*
G36*
X205883Y831850D02*
X205883Y847350D01*
X213217Y847350D01*
X213217Y831850D01*
X205883Y831850D01*
G37*
G36*
X209550Y835517D02*
X225050Y835517D01*
X225050Y828183D01*
X209550Y828183D01*
X209550Y835517D01*
G37*
G36*
X213217Y831850D02*
X213217Y816350D01*
X205883Y816350D01*
X205883Y831850D01*
X213217Y831850D01*
G37*
G36*
X209550Y828183D02*
X194050Y828183D01*
X194050Y835517D01*
X209550Y835517D01*
X209550Y828183D01*
G37*
G54D12*
G36*
X510683Y825500D02*
X510683Y841000D01*
X518017Y841000D01*
X518017Y825500D01*
X510683Y825500D01*
G37*
G36*
X514350Y829167D02*
X529850Y829167D01*
X529850Y821833D01*
X514350Y821833D01*
X514350Y829167D01*
G37*
G36*
X518017Y825500D02*
X518017Y810000D01*
X510683Y810000D01*
X510683Y825500D01*
X518017Y825500D01*
G37*
G36*
X514350Y821833D02*
X498850Y821833D01*
X498850Y829167D01*
X514350Y829167D01*
X514350Y821833D01*
G37*
G54D12*
G36*
X644033Y812800D02*
X644033Y828300D01*
X651367Y828300D01*
X651367Y812800D01*
X644033Y812800D01*
G37*
G36*
X647700Y816467D02*
X663200Y816467D01*
X663200Y809133D01*
X647700Y809133D01*
X647700Y816467D01*
G37*
G36*
X651367Y812800D02*
X651367Y797300D01*
X644033Y797300D01*
X644033Y812800D01*
X651367Y812800D01*
G37*
G36*
X647700Y809133D02*
X632200Y809133D01*
X632200Y816467D01*
X647700Y816467D01*
X647700Y809133D01*
G37*
X19050Y914400D02*
G54D13*
D03*
X19050Y812800D02*
G54D13*
D03*
X158750Y890350D02*
G54D14*
D03*
X158750Y989250D02*
G54D14*
D03*
X209550Y831850D02*
G54D13*
D03*
X107950Y831850D02*
G54D13*
D03*
X287100Y895350D02*
G54D14*
D03*
X386000Y895350D02*
G54D14*
D03*
X514350Y825500D02*
G54D13*
D03*
X412750Y825500D02*
G54D13*
D03*
X514350Y890350D02*
G54D14*
D03*
X514350Y989250D02*
G54D14*
D03*
X647700Y914400D02*
G54D13*
D03*
X647700Y812800D02*
G54D13*
D03*
X19050Y914400D02*
G54D14*
D03*
X209550Y831850D02*
G54D14*
D03*
X514350Y825500D02*
G54D14*
D03*
X647700Y812800D02*
G54D14*
D03*
M02*
