%FSLAX34Y34*%
%MOMM*%
%LNSOLDERMASK_BOTTOM*%
G71*
G01*
%ADD10C,2.800*%
%ADD11C,2.600*%
%ADD12C,2.500*%
%ADD13C,2.400*%
%ADD14C,1.600*%
%ADD15C,4.900*%
%LPD*%
X-790608Y-382754D02*
G54D10*
D03*
X-739808Y-382754D02*
G54D10*
D03*
X-765208Y-408154D02*
G54D10*
D03*
X-739808Y-433554D02*
G54D10*
D03*
X-790608Y-433554D02*
G54D10*
D03*
G36*
X-284285Y-487972D02*
X-310285Y-487972D01*
X-310285Y-461972D01*
X-284285Y-461972D01*
X-284285Y-487972D01*
G37*
G36*
X-191173Y-292988D02*
X-191173Y-266988D01*
X-165173Y-266988D01*
X-165173Y-292988D01*
X-191173Y-292988D01*
G37*
G36*
X-151486Y-292988D02*
X-151486Y-266988D01*
X-125486Y-266988D01*
X-125486Y-292988D01*
X-151486Y-292988D01*
G37*
G36*
X-230861Y-292988D02*
X-230861Y-266988D01*
X-204861Y-266988D01*
X-204861Y-292988D01*
X-230861Y-292988D01*
G37*
G36*
X514012Y-728236D02*
X550012Y-728236D01*
X550012Y-764236D01*
X514012Y-764236D01*
X514012Y-728236D01*
G37*
G36*
X-308602Y-520610D02*
X-282602Y-520610D01*
X-282602Y-546610D01*
X-308602Y-546610D01*
X-308602Y-520610D01*
G37*
X-603672Y59022D02*
G54D11*
D03*
X-578273Y59022D02*
G54D11*
D03*
X-552873Y59022D02*
G54D11*
D03*
X-390190Y-14116D02*
G54D11*
D03*
X-453690Y23984D02*
G54D11*
D03*
X-390190Y58909D02*
G54D11*
D03*
X-578273Y59022D02*
G54D11*
D03*
X-453690Y23984D02*
G54D11*
D03*
X-338533Y51486D02*
G54D11*
D03*
X-338421Y505D02*
G54D11*
D03*
X-338421Y505D02*
G54D11*
D03*
X-338421Y505D02*
G54D11*
D03*
G36*
X-299076Y-55076D02*
X-273076Y-55076D01*
X-273076Y-81076D01*
X-299076Y-81076D01*
X-299076Y-55076D01*
G37*
G36*
X-273172Y-138722D02*
X-299172Y-138722D01*
X-299172Y-112722D01*
X-273172Y-112722D01*
X-273172Y-138722D01*
G37*
G36*
X-339411Y-368347D02*
X-339411Y-342347D01*
X-313411Y-342347D01*
X-313411Y-368347D01*
X-339411Y-368347D01*
G37*
G36*
X-339886Y-293734D02*
X-339886Y-267734D01*
X-313886Y-267734D01*
X-313886Y-293734D01*
X-339886Y-293734D01*
G37*
X-374512Y-353759D02*
G54D11*
D03*
G36*
X-388306Y-293893D02*
X-388306Y-267893D01*
X-362306Y-267893D01*
X-362306Y-293893D01*
X-388306Y-293893D01*
G37*
G36*
X-447875Y-228439D02*
X-447875Y-254439D01*
X-473875Y-254439D01*
X-473875Y-228439D01*
X-447875Y-228439D01*
G37*
G36*
X-405012Y-231614D02*
X-405012Y-257614D01*
X-431012Y-257614D01*
X-431012Y-231614D01*
X-405012Y-231614D01*
G37*
X-332235Y-179780D02*
G54D11*
D03*
X-281254Y-179893D02*
G54D11*
D03*
X-281254Y-179893D02*
G54D11*
D03*
X-338586Y-421080D02*
G54D11*
D03*
X-287605Y-421192D02*
G54D11*
D03*
X-287605Y-421192D02*
G54D11*
D03*
X-287605Y-421192D02*
G54D11*
D03*
G36*
X65238Y-363000D02*
X39238Y-363000D01*
X39238Y-337000D01*
X65238Y-337000D01*
X65238Y-363000D01*
G37*
G36*
X-57000Y-363000D02*
X-83000Y-363000D01*
X-83000Y-337000D01*
X-57000Y-337000D01*
X-57000Y-363000D01*
G37*
G36*
X65237Y-474919D02*
X39237Y-474919D01*
X39237Y-448919D01*
X65237Y-448919D01*
X65237Y-474919D01*
G37*
G36*
X-53825Y-476506D02*
X-79825Y-476506D01*
X-79825Y-450506D01*
X-53825Y-450506D01*
X-53825Y-476506D01*
G37*
G36*
X-194348Y-607314D02*
X-194348Y-581314D01*
X-168348Y-581314D01*
X-168348Y-607314D01*
X-194348Y-607314D01*
G37*
G36*
X-154660Y-607313D02*
X-154660Y-581313D01*
X-128660Y-581313D01*
X-128660Y-607313D01*
X-154660Y-607313D01*
G37*
G36*
X-234036Y-607313D02*
X-234036Y-581313D01*
X-208036Y-581313D01*
X-208036Y-607313D01*
X-234036Y-607313D01*
G37*
G36*
X115786Y-333310D02*
X141786Y-333310D01*
X141786Y-359310D01*
X115786Y-359310D01*
X115786Y-333310D01*
G37*
G36*
X118961Y-466660D02*
X144961Y-466660D01*
X144961Y-492660D01*
X118961Y-492660D01*
X118961Y-466660D01*
G37*
G36*
X438048Y-336486D02*
X464048Y-336486D01*
X464048Y-362486D01*
X438048Y-362486D01*
X438048Y-336486D01*
G37*
X451048Y-476486D02*
G54D11*
D03*
X101204Y-437273D02*
G54D11*
D03*
X101317Y-386293D02*
G54D11*
D03*
X101317Y-386293D02*
G54D11*
D03*
X101317Y-386293D02*
G54D11*
D03*
X-14661Y-603838D02*
G54D11*
D03*
X42489Y-603838D02*
G54D11*
D03*
X99639Y-603838D02*
G54D11*
D03*
X156789Y-603838D02*
G54D11*
D03*
X-14661Y-210138D02*
G54D11*
D03*
X42489Y-210138D02*
G54D11*
D03*
X99639Y-210138D02*
G54D11*
D03*
X156789Y-210138D02*
G54D11*
D03*
X42489Y-603838D02*
G54D11*
D03*
X156789Y-603838D02*
G54D11*
D03*
X42489Y-210138D02*
G54D11*
D03*
X156789Y-210138D02*
G54D11*
D03*
X23439Y43868D02*
G54D11*
D03*
X-2061Y43868D02*
G54D11*
D03*
X53439Y-760832D02*
G54D11*
D03*
X27939Y-760832D02*
G54D11*
D03*
G36*
X-387512Y-340759D02*
X-361512Y-340759D01*
X-361512Y-366759D01*
X-387512Y-366759D01*
X-387512Y-340759D01*
G37*
X-603672Y-722060D02*
G54D11*
D03*
X-578273Y-722060D02*
G54D11*
D03*
X-552873Y-722060D02*
G54D11*
D03*
X-415590Y-648922D02*
G54D11*
D03*
X-479090Y-687022D02*
G54D11*
D03*
X-415590Y-721947D02*
G54D11*
D03*
X-578273Y-722060D02*
G54D11*
D03*
X-479090Y-687022D02*
G54D11*
D03*
X-363933Y-714524D02*
G54D11*
D03*
X-363821Y-663543D02*
G54D11*
D03*
X-363821Y-663543D02*
G54D11*
D03*
X-363821Y-663543D02*
G54D11*
D03*
G36*
X438048Y-463486D02*
X464048Y-463486D01*
X464048Y-489486D01*
X438048Y-489486D01*
X438048Y-463486D01*
G37*
X-675061Y56568D02*
G54D11*
D03*
X-700561Y56568D02*
G54D11*
D03*
X-675061Y-718132D02*
G54D11*
D03*
X-700561Y-718132D02*
G54D11*
D03*
X-756012Y-273719D02*
G54D12*
D03*
X-756012Y-172119D02*
G54D12*
D03*
X-799637Y-244978D02*
G54D11*
D03*
X-799749Y-193998D02*
G54D11*
D03*
X-799637Y-244978D02*
G54D11*
D03*
X-756012Y-273719D02*
G54D11*
D03*
X-760805Y-69252D02*
G54D13*
D03*
X-776705Y-86827D02*
G54D13*
D03*
X-760771Y-104443D02*
G54D13*
D03*
X-702369Y-114317D02*
G54D11*
D03*
X-702481Y-63336D02*
G54D11*
D03*
X-631272Y-129425D02*
G54D11*
D03*
X-631222Y-53174D02*
G54D11*
D03*
X-567772Y-129425D02*
G54D11*
D03*
X-567722Y-53174D02*
G54D11*
D03*
X-822848Y60934D02*
G54D11*
D03*
X-797448Y60934D02*
G54D11*
D03*
X-822848Y60934D02*
G54D11*
D03*
X-594248Y-383566D02*
G54D11*
D03*
X-543448Y-383566D02*
G54D11*
D03*
X-594248Y-434366D02*
G54D11*
D03*
X-543448Y-434366D02*
G54D11*
D03*
X-594248Y-434366D02*
G54D11*
D03*
X-543448Y-434366D02*
G54D11*
D03*
G36*
X534918Y-87242D02*
X488918Y-87242D01*
X488918Y-41242D01*
X534918Y-41242D01*
X534918Y-87242D01*
G37*
G36*
X529918Y-158442D02*
X493918Y-158442D01*
X493918Y-122442D01*
X529918Y-122442D01*
X529918Y-158442D01*
G37*
X-822848Y-15266D02*
G54D11*
D03*
X-797448Y-15266D02*
G54D11*
D03*
X90732Y-287077D02*
G54D11*
D03*
X39752Y-287190D02*
G54D11*
D03*
X90732Y-287077D02*
G54D11*
D03*
X7344Y-511456D02*
G54D11*
D03*
X58325Y-511343D02*
G54D11*
D03*
X7344Y-511456D02*
G54D11*
D03*
G36*
X514012Y135364D02*
X550012Y135364D01*
X550012Y99364D01*
X514012Y99364D01*
X514012Y135364D01*
G37*
G36*
X-876638Y-728236D02*
X-840638Y-728236D01*
X-840638Y-764236D01*
X-876638Y-764236D01*
X-876638Y-728236D01*
G37*
G36*
X-448888Y-87836D02*
X-412888Y-87836D01*
X-412888Y-123836D01*
X-448888Y-123836D01*
X-448888Y-87836D01*
G37*
G36*
X-209888Y-728236D02*
X-173888Y-728236D01*
X-173888Y-764236D01*
X-209888Y-764236D01*
X-209888Y-728236D01*
G37*
G36*
X-209888Y84564D02*
X-173888Y84564D01*
X-173888Y48564D01*
X-209888Y48564D01*
X-209888Y84564D01*
G37*
G36*
X-879813Y-340886D02*
X-843813Y-340886D01*
X-843813Y-376886D01*
X-879813Y-376886D01*
X-879813Y-340886D01*
G37*
X201014Y51312D02*
G54D12*
D03*
X302614Y51312D02*
G54D12*
D03*
X229755Y94937D02*
G54D11*
D03*
X280736Y95049D02*
G54D11*
D03*
X229755Y94937D02*
G54D11*
D03*
X201014Y51312D02*
G54D11*
D03*
G36*
X-879813Y138539D02*
X-843813Y138539D01*
X-843813Y102539D01*
X-879813Y102539D01*
X-879813Y138539D01*
G37*
G36*
X510837Y-398036D02*
X546837Y-398036D01*
X546837Y-434036D01*
X510837Y-434036D01*
X510837Y-398036D01*
G37*
X-320825Y82594D02*
G54D14*
D03*
X-371625Y-749256D02*
G54D14*
D03*
X477688Y-309518D02*
G54D14*
D03*
X-861814Y-668573D02*
G54D15*
D03*
X-868164Y-71673D02*
G54D15*
D03*
X528836Y-655873D02*
G54D15*
D03*
X528836Y29927D02*
G54D15*
D03*
X-544314Y-306623D02*
G54D10*
D03*
X-664964Y-303449D02*
G54D10*
D03*
X-544314Y-185973D02*
G54D10*
D03*
X-664964Y-185973D02*
G54D10*
D03*
X-684173Y-246298D02*
G54D10*
D03*
X-664964Y-303449D02*
G54D11*
D03*
X242155Y-56410D02*
G54D10*
D03*
X362805Y-59584D02*
G54D10*
D03*
X242155Y-177060D02*
G54D10*
D03*
X362805Y-177060D02*
G54D10*
D03*
X378918Y-116735D02*
G54D10*
D03*
X362805Y-177060D02*
G54D11*
D03*
X-286012Y-33719D02*
G54D12*
D03*
X-286012Y67881D02*
G54D12*
D03*
X-296012Y-723719D02*
G54D12*
D03*
X-296012Y-622119D02*
G54D12*
D03*
X441048Y-279486D02*
G54D11*
D03*
X0Y0D02*
G54D11*
D03*
X0Y-70000D02*
G54D11*
D03*
X-64661Y-673838D02*
G54D11*
D03*
X-64661Y-733838D02*
G54D11*
D03*
X-749961Y31562D02*
G54D11*
D03*
X-749961Y-25588D02*
G54D11*
D03*
X-699961Y-25588D02*
G54D11*
D03*
X-644961Y-664238D02*
G54D11*
D03*
X-644961Y-607088D02*
G54D11*
D03*
X-644961Y-607088D02*
G54D11*
D03*
X-519961Y26562D02*
G54D11*
D03*
X-519961Y-30588D02*
G54D11*
D03*
X-519961Y-30588D02*
G54D11*
D03*
X-470933Y117835D02*
G54D11*
D03*
X-470820Y66855D02*
G54D11*
D03*
X-460615Y-755422D02*
G54D11*
D03*
X-511595Y-755309D02*
G54D11*
D03*
X-511595Y-755309D02*
G54D11*
D03*
X-511595Y-755309D02*
G54D11*
D03*
X-524961Y-664238D02*
G54D11*
D03*
X-524961Y-607088D02*
G54D11*
D03*
X-524961Y-607088D02*
G54D11*
D03*
X-470933Y117835D02*
G54D11*
D03*
X-749961Y-25588D02*
G54D11*
D03*
M02*
