%FSLAX34Y34*%
%MOMM*%
%LNCOPPER_BOTTOM*%
G71*
G01*
%ADD10C,3.000*%
%ADD11C,2.800*%
%ADD12C,3.200*%
%ADD13C,2.900*%
%ADD14C,3.200*%
%ADD15C,2.800*%
%ADD16C,3.300*%
%ADD17C,2.700*%
%ADD18C,3.000*%
%ADD19C,1.400*%
%ADD20C,1.800*%
%ADD21C,2.200*%
%ADD22C,1.800*%
%ADD23C,0.733*%
%ADD24C,0.667*%
%ADD25C,1.000*%
%ADD26C,0.767*%
%ADD27C,1.713*%
%ADD28C,0.813*%
%ADD29C,0.680*%
%ADD30C,1.607*%
%ADD31C,2.200*%
%ADD32C,2.000*%
%ADD33C,2.100*%
%ADD34C,2.400*%
%ADD35C,2.000*%
%ADD36C,2.500*%
%ADD37C,1.900*%
%ADD38C,1.800*%
%ADD39C,0.600*%
%ADD40C,1.000*%
%ADD41C,4.300*%
%LPD*%
G36*
X-893564Y156927D02*
X576436Y156927D01*
X576436Y-793073D01*
X-893564Y-793073D01*
X-893564Y156927D01*
G37*
%LPC*%
X-790608Y-382754D02*
G54D10*
D03*
X-739808Y-382754D02*
G54D10*
D03*
X-765208Y-408154D02*
G54D10*
D03*
X-739808Y-433554D02*
G54D10*
D03*
X-790608Y-433554D02*
G54D10*
D03*
G36*
X-283285Y-488972D02*
X-311285Y-488972D01*
X-311285Y-460972D01*
X-283285Y-460972D01*
X-283285Y-488972D01*
G37*
G36*
X-192173Y-293988D02*
X-192173Y-265988D01*
X-164173Y-265988D01*
X-164173Y-293988D01*
X-192173Y-293988D01*
G37*
G36*
X-152486Y-293988D02*
X-152486Y-265988D01*
X-124486Y-265988D01*
X-124486Y-293988D01*
X-152486Y-293988D01*
G37*
G36*
X-231861Y-293988D02*
X-231861Y-265988D01*
X-203861Y-265988D01*
X-203861Y-293988D01*
X-231861Y-293988D01*
G37*
G36*
X513012Y-727236D02*
X551012Y-727236D01*
X551012Y-765236D01*
X513012Y-765236D01*
X513012Y-727236D01*
G37*
G36*
X-309602Y-519610D02*
X-281602Y-519610D01*
X-281602Y-547610D01*
X-309602Y-547610D01*
X-309602Y-519610D01*
G37*
X-603672Y59022D02*
G54D11*
D03*
X-578273Y59022D02*
G54D11*
D03*
X-552873Y59022D02*
G54D11*
D03*
X-390190Y-14116D02*
G54D11*
D03*
X-453690Y23984D02*
G54D11*
D03*
X-390190Y58909D02*
G54D11*
D03*
X-578273Y59022D02*
G54D11*
D03*
X-453690Y23984D02*
G54D11*
D03*
X-338533Y51486D02*
G54D12*
D03*
X-338421Y505D02*
G54D12*
D03*
X-338421Y505D02*
G54D11*
D03*
X-338421Y505D02*
G54D11*
D03*
G36*
X-300076Y-54076D02*
X-272076Y-54076D01*
X-272076Y-82076D01*
X-300076Y-82076D01*
X-300076Y-54076D01*
G37*
G36*
X-272172Y-139722D02*
X-300172Y-139722D01*
X-300172Y-111722D01*
X-272172Y-111722D01*
X-272172Y-139722D01*
G37*
G36*
X-340411Y-369347D02*
X-340411Y-341347D01*
X-312411Y-341347D01*
X-312411Y-369347D01*
X-340411Y-369347D01*
G37*
G36*
X-340886Y-294734D02*
X-340886Y-266734D01*
X-312886Y-266734D01*
X-312886Y-294734D01*
X-340886Y-294734D01*
G37*
X-374512Y-353759D02*
G54D11*
D03*
G36*
X-389306Y-294893D02*
X-389306Y-266893D01*
X-361306Y-266893D01*
X-361306Y-294893D01*
X-389306Y-294893D01*
G37*
G36*
X-446875Y-227439D02*
X-446875Y-255439D01*
X-474875Y-255439D01*
X-474875Y-227439D01*
X-446875Y-227439D01*
G37*
G36*
X-404012Y-230614D02*
X-404012Y-258614D01*
X-432012Y-258614D01*
X-432012Y-230614D01*
X-404012Y-230614D01*
G37*
X-332235Y-179780D02*
G54D12*
D03*
X-281254Y-179893D02*
G54D12*
D03*
X-281254Y-179893D02*
G54D11*
D03*
X-338586Y-421080D02*
G54D12*
D03*
X-287605Y-421192D02*
G54D12*
D03*
X-287605Y-421192D02*
G54D11*
D03*
X-287605Y-421192D02*
G54D11*
D03*
G36*
X66238Y-364000D02*
X38238Y-364000D01*
X38238Y-336000D01*
X66238Y-336000D01*
X66238Y-364000D01*
G37*
G36*
X-56000Y-364000D02*
X-84000Y-364000D01*
X-84000Y-336000D01*
X-56000Y-336000D01*
X-56000Y-364000D01*
G37*
G36*
X66237Y-475919D02*
X38237Y-475919D01*
X38237Y-447919D01*
X66237Y-447919D01*
X66237Y-475919D01*
G37*
G36*
X-52825Y-477506D02*
X-80825Y-477506D01*
X-80825Y-449506D01*
X-52825Y-449506D01*
X-52825Y-477506D01*
G37*
G36*
X-195348Y-608314D02*
X-195348Y-580314D01*
X-167348Y-580314D01*
X-167348Y-608314D01*
X-195348Y-608314D01*
G37*
G36*
X-155660Y-608313D02*
X-155660Y-580313D01*
X-127660Y-580313D01*
X-127660Y-608313D01*
X-155660Y-608313D01*
G37*
G36*
X-235036Y-608313D02*
X-235036Y-580313D01*
X-207036Y-580313D01*
X-207036Y-608313D01*
X-235036Y-608313D01*
G37*
G36*
X114786Y-332310D02*
X142786Y-332310D01*
X142786Y-360310D01*
X114786Y-360310D01*
X114786Y-332310D01*
G37*
G36*
X117961Y-465660D02*
X145961Y-465660D01*
X145961Y-493660D01*
X117961Y-493660D01*
X117961Y-465660D01*
G37*
G36*
X437048Y-335486D02*
X465048Y-335486D01*
X465048Y-363486D01*
X437048Y-363486D01*
X437048Y-335486D01*
G37*
X451048Y-476486D02*
G54D11*
D03*
G54D13*
X-178173Y-286338D02*
X-178173Y-318821D01*
X-177950Y-319044D01*
X-81906Y-319044D01*
X-78161Y-324438D01*
X-70000Y-356350D01*
G54D13*
X-181348Y-594314D02*
X-177950Y-636544D01*
X-114450Y-636544D01*
X-89050Y-585744D01*
X-60848Y-523266D01*
X-63650Y-473031D01*
X-66825Y-450806D01*
X101204Y-437273D02*
G54D12*
D03*
X101317Y-386293D02*
G54D12*
D03*
X101317Y-386293D02*
G54D11*
D03*
X101317Y-386293D02*
G54D11*
D03*
X-14661Y-603838D02*
G54D11*
D03*
X42489Y-603838D02*
G54D11*
D03*
X99639Y-603838D02*
G54D11*
D03*
X156789Y-603838D02*
G54D11*
D03*
X-14661Y-210138D02*
G54D11*
D03*
X42489Y-210138D02*
G54D11*
D03*
X99639Y-210138D02*
G54D11*
D03*
X156789Y-210138D02*
G54D11*
D03*
X42489Y-603838D02*
G54D11*
D03*
X156789Y-603838D02*
G54D11*
D03*
X42489Y-210138D02*
G54D11*
D03*
X156789Y-210138D02*
G54D11*
D03*
G54D14*
X-14661Y-210138D02*
X-14661Y-222838D01*
X36139Y-273638D01*
X40752Y-320066D01*
X52238Y-350000D01*
G54D14*
X99639Y-603838D02*
X112339Y-603838D01*
X61539Y-553038D01*
X36139Y-553038D01*
X-14661Y-603838D01*
G54D14*
X99639Y-210138D02*
X112339Y-222838D01*
X86939Y-248238D01*
X36139Y-248238D01*
X10739Y-222838D01*
X-14661Y-222838D01*
X-14661Y-210138D01*
X23439Y43868D02*
G54D12*
D03*
X-2061Y43868D02*
G54D12*
D03*
X53439Y-760832D02*
G54D12*
D03*
X27939Y-760832D02*
G54D12*
D03*
G54D15*
X-286076Y-61727D02*
X-283964Y-65323D01*
X-283964Y-27223D01*
X-285428Y-27325D01*
G54D15*
X-281254Y-179893D02*
X-283964Y-179623D01*
X-283964Y-141523D01*
X-286172Y-138422D01*
G54D16*
X-281254Y-179893D02*
X-283964Y-179623D01*
X-258564Y-268523D01*
X-220464Y-281223D01*
X-217861Y-279988D01*
G54D15*
X-332235Y-179781D02*
X-334764Y-179623D01*
X-322064Y-192323D01*
X-322064Y-281223D01*
X-326886Y-280734D01*
G54D15*
X-418012Y-244614D02*
X-385564Y-281223D01*
X-372864Y-281223D01*
X-375306Y-280893D01*
G54D15*
X-338586Y-421080D02*
X-334764Y-420923D01*
X-322064Y-408223D01*
X-322064Y-357423D01*
X-326411Y-355347D01*
G54D15*
X-287605Y-421192D02*
X-283964Y-420923D01*
X-296664Y-433623D01*
X-296664Y-471723D01*
X-297285Y-474972D01*
G54D16*
X-297285Y-474972D02*
X-293415Y-474972D01*
X-258564Y-509823D01*
X-258564Y-586023D01*
X-221036Y-594313D01*
G36*
X-388512Y-339759D02*
X-360512Y-339759D01*
X-360512Y-367759D01*
X-388512Y-367759D01*
X-388512Y-339759D01*
G37*
X-603672Y-722060D02*
G54D11*
D03*
X-578273Y-722060D02*
G54D11*
D03*
X-552873Y-722060D02*
G54D11*
D03*
X-415590Y-648922D02*
G54D11*
D03*
X-479090Y-687022D02*
G54D11*
D03*
X-415590Y-721947D02*
G54D11*
D03*
X-578273Y-722060D02*
G54D11*
D03*
X-479090Y-687022D02*
G54D11*
D03*
X-363933Y-714524D02*
G54D12*
D03*
X-363821Y-663543D02*
G54D12*
D03*
X-363821Y-663543D02*
G54D11*
D03*
X-363821Y-663543D02*
G54D11*
D03*
G54D13*
X-70000Y-350000D02*
X-70000Y-363494D01*
X-46188Y-387306D01*
X100303Y-387306D01*
X101317Y-386293D01*
G54D15*
X-66825Y-450806D02*
X-66825Y-443226D01*
X-47290Y-423691D01*
X87622Y-423691D01*
X101204Y-437273D01*
G54D16*
X52237Y-461919D02*
X58325Y-511343D01*
X52237Y-543736D01*
X61539Y-553038D01*
G54D16*
X101317Y-386293D02*
X101317Y-373780D01*
X128786Y-346310D01*
G54D16*
X101204Y-437273D02*
X101204Y-448904D01*
X131961Y-479660D01*
G36*
X437048Y-462486D02*
X465048Y-462486D01*
X465048Y-490486D01*
X437048Y-490486D01*
X437048Y-462486D01*
G37*
X-675061Y56568D02*
G54D12*
D03*
X-700561Y56568D02*
G54D12*
D03*
X-675061Y-718132D02*
G54D12*
D03*
X-700561Y-718132D02*
G54D12*
D03*
X-756012Y-273719D02*
G54D17*
D03*
X-756012Y-172119D02*
G54D17*
D03*
X-799637Y-244978D02*
G54D12*
D03*
X-799749Y-193998D02*
G54D12*
D03*
X-799637Y-244978D02*
G54D12*
D03*
X-756012Y-273719D02*
G54D12*
D03*
X-760805Y-69252D02*
G54D18*
D03*
X-776705Y-86827D02*
G54D18*
D03*
X-760771Y-104443D02*
G54D18*
D03*
X-702369Y-114317D02*
G54D12*
D03*
X-702481Y-63336D02*
G54D12*
D03*
X-631272Y-129425D02*
G54D12*
D03*
X-631222Y-53174D02*
G54D12*
D03*
X-567772Y-129425D02*
G54D12*
D03*
X-567722Y-53174D02*
G54D12*
D03*
X-822848Y60934D02*
G54D11*
D03*
X-797448Y60934D02*
G54D11*
D03*
X-822848Y60934D02*
G54D11*
D03*
X-594248Y-383566D02*
G54D11*
D03*
X-543448Y-383566D02*
G54D11*
D03*
X-594248Y-434366D02*
G54D11*
D03*
X-543448Y-434366D02*
G54D11*
D03*
X-594248Y-434366D02*
G54D11*
D03*
X-543448Y-434366D02*
G54D11*
D03*
G54D19*
X-799749Y-193997D02*
X-797448Y-193066D01*
X-778398Y-174016D01*
X-752998Y-174016D01*
X-756012Y-172119D01*
G54D19*
X-631272Y-129425D02*
X-632348Y-129566D01*
X-645048Y-116866D01*
X-702198Y-116866D01*
X-702369Y-114317D01*
G54D19*
X-567772Y-129425D02*
X-568848Y-129566D01*
X-632348Y-129566D01*
X-631272Y-129425D01*
G54D19*
X-631222Y-53175D02*
X-632348Y-53366D01*
X-645048Y-66066D01*
X-702198Y-66066D01*
X-702481Y-63336D01*
G54D19*
X-702481Y-63336D02*
X-702198Y-66066D01*
X-708548Y-72416D01*
X-759348Y-72416D01*
X-760805Y-69252D01*
G54D19*
X-745522Y61126D02*
X-732822Y73826D01*
X-637572Y73826D01*
X-619648Y10134D01*
X-597722Y-16024D01*
X-567722Y-53174D01*
X-566596Y-52984D01*
G54D20*
X-516333Y57836D02*
X-490933Y57836D01*
X-549798Y60934D01*
X-552873Y59022D01*
G54D20*
X-490933Y57836D02*
X-492648Y60934D01*
X-391048Y60934D01*
X-390190Y58909D01*
G54D20*
X-338533Y51486D02*
X-340248Y54584D01*
X-391048Y3784D01*
X-391048Y-15266D01*
X-390190Y-14116D01*
G54D20*
X-285378Y48925D02*
X-283098Y48234D01*
X-286012Y67881D01*
X-340248Y54584D01*
X-338533Y51486D01*
G54D20*
X-700561Y-718132D02*
X-702198Y-720116D01*
X-689498Y-732816D01*
X-689498Y-739166D01*
X-683148Y-745516D01*
X-670448Y-745516D01*
X-645048Y-720116D01*
X-600598Y-720116D01*
X-603672Y-722060D01*
G54D20*
X-516333Y-720874D02*
X-518048Y-720116D01*
X-416448Y-720116D01*
X-415590Y-721947D01*
G54D20*
X-363933Y-714524D02*
X-365648Y-713766D01*
X-416448Y-662966D01*
X-416448Y-650266D01*
X-415590Y-648922D01*
G54D20*
X-363933Y-714524D02*
X-365648Y-713766D01*
X-359298Y-720116D01*
X-295798Y-720116D01*
X-294903Y-720462D01*
G54D15*
X-295602Y-546311D02*
X-295798Y-548666D01*
X-296012Y-622119D01*
G54D16*
X99639Y-603838D02*
X91552Y-599466D01*
X66152Y-574066D01*
X15352Y-574066D01*
X-10048Y-599466D01*
X-14661Y-603838D01*
G36*
X535918Y-88242D02*
X487918Y-88242D01*
X487918Y-40242D01*
X535918Y-40242D01*
X535918Y-88242D01*
G37*
G36*
X530918Y-159442D02*
X492918Y-159442D01*
X492918Y-121442D01*
X530918Y-121442D01*
X530918Y-159442D01*
G37*
G54D19*
X-745522Y61126D02*
X-797256Y61126D01*
X-797448Y60934D01*
G54D21*
X-765208Y-408154D02*
X-631536Y-408154D01*
X-619648Y-396266D01*
X-822848Y-15266D02*
G54D11*
D03*
X-797448Y-15266D02*
G54D11*
D03*
G54D19*
X-700561Y56568D02*
X-725614Y56568D01*
X-797448Y-15266D01*
G54D19*
X-822848Y-15266D02*
X-822848Y-129566D01*
X-778398Y-174016D01*
G54D19*
X-756012Y-172119D02*
X-712998Y-172119D01*
X-664964Y-185973D01*
X90732Y-287077D02*
G54D12*
D03*
X39752Y-287190D02*
G54D12*
D03*
X90732Y-287077D02*
G54D12*
D03*
X7344Y-511456D02*
G54D12*
D03*
X58325Y-511343D02*
G54D12*
D03*
X7344Y-511456D02*
G54D12*
D03*
G36*
X513012Y136364D02*
X551012Y136364D01*
X551012Y98364D01*
X513012Y98364D01*
X513012Y136364D01*
G37*
G36*
X-877638Y-727236D02*
X-839638Y-727236D01*
X-839638Y-765236D01*
X-877638Y-765236D01*
X-877638Y-727236D01*
G37*
G36*
X-449888Y-86836D02*
X-411888Y-86836D01*
X-411888Y-124836D01*
X-449888Y-124836D01*
X-449888Y-86836D01*
G37*
G36*
X-210888Y-727236D02*
X-172888Y-727236D01*
X-172888Y-765236D01*
X-210888Y-765236D01*
X-210888Y-727236D01*
G37*
G36*
X-210888Y85564D02*
X-172888Y85564D01*
X-172888Y47564D01*
X-210888Y47564D01*
X-210888Y85564D01*
G37*
G36*
X-880813Y-339886D02*
X-842813Y-339886D01*
X-842813Y-377886D01*
X-880813Y-377886D01*
X-880813Y-339886D01*
G37*
X201014Y51312D02*
G54D17*
D03*
X302614Y51312D02*
G54D17*
D03*
X229755Y94937D02*
G54D12*
D03*
X280736Y95049D02*
G54D12*
D03*
X229755Y94937D02*
G54D12*
D03*
X201014Y51312D02*
G54D12*
D03*
G54D19*
X280736Y95049D02*
X281667Y92748D01*
X300717Y73698D01*
X300717Y48298D01*
X302614Y51312D01*
G54D19*
X302614Y51312D02*
X302614Y8298D01*
X362805Y-59584D01*
G54D19*
X-822848Y-15266D02*
X-829198Y-15266D01*
X-873648Y29184D01*
X-873648Y79984D01*
G54D19*
X-873648Y79984D02*
X-848248Y79984D01*
X-822848Y105384D01*
X-570361Y96162D01*
X-500361Y86162D01*
X-440361Y96162D01*
X-310361Y106162D01*
X193152Y105384D01*
X218552Y130784D01*
G54D19*
X218552Y130784D02*
X243952Y130784D01*
X269352Y105384D01*
G36*
X-880813Y139539D02*
X-842813Y139539D01*
X-842813Y101539D01*
X-880813Y101539D01*
X-880813Y139539D01*
G37*
G36*
X509837Y-397036D02*
X547837Y-397036D01*
X547837Y-435036D01*
X509837Y-435036D01*
X509837Y-397036D01*
G37*
G54D15*
X-531229Y-252288D02*
X-544314Y-306623D01*
X-524375Y-241439D01*
X-460875Y-241439D01*
G54D20*
X-516333Y-720874D02*
X-511325Y-717506D01*
X-549425Y-717506D01*
X-552873Y-722060D01*
X-320825Y82594D02*
G54D22*
D03*
X-371625Y-749256D02*
G54D22*
D03*
G54D20*
X-371625Y-749256D02*
X-371625Y-755606D01*
X-358925Y-742906D01*
X-358925Y-717506D01*
X-363933Y-714524D01*
G54D20*
X-320825Y82594D02*
X-333525Y69894D01*
X-333525Y57194D01*
X-338533Y51486D01*
X477688Y-309518D02*
G54D22*
D03*
G54D20*
X477688Y-309518D02*
X477688Y-322846D01*
X451048Y-349486D01*
X-544314Y-306623D02*
G54D10*
D03*
X-664964Y-303449D02*
G54D10*
D03*
X-544314Y-185973D02*
G54D10*
D03*
X-664964Y-185973D02*
G54D10*
D03*
X-684173Y-246298D02*
G54D10*
D03*
X-664964Y-303449D02*
G54D12*
D03*
G54D21*
X-619648Y-396266D02*
X-606948Y-396266D01*
X-594248Y-383566D01*
G54D21*
X-543448Y-383566D02*
X-543448Y-350207D01*
X-541139Y-347898D01*
X-715764Y-347898D01*
X-725289Y-338373D01*
X-725289Y-246298D01*
X-718939Y-239948D01*
X-682426Y-239948D01*
X-684173Y-246298D01*
X242155Y-56410D02*
G54D10*
D03*
X362805Y-59584D02*
G54D10*
D03*
X242155Y-177060D02*
G54D10*
D03*
X362805Y-177060D02*
G54D10*
D03*
X378918Y-116735D02*
G54D10*
D03*
G54D16*
X451048Y-349486D02*
X451048Y-292336D01*
X420886Y-262173D01*
X312936Y-262173D01*
X297061Y-246298D01*
X297061Y-55798D01*
X303411Y-49448D01*
X249117Y-49448D01*
X242155Y-56410D01*
G54D16*
X378918Y-116735D02*
X448550Y-59585D01*
X516918Y-64242D01*
X362805Y-177060D02*
G54D12*
D03*
G54D19*
X-797448Y-15266D02*
X-797195Y-19584D01*
X-767195Y-49584D01*
X-627195Y-49584D01*
X-631222Y-53175D01*
G54D19*
X-702369Y-114317D02*
X-707195Y-109584D01*
X-727195Y-89584D01*
X-777195Y-89584D01*
X-776705Y-86827D01*
G54D19*
X-760771Y-104443D02*
X-757195Y-99584D01*
X-757195Y-169584D01*
X-756012Y-172119D01*
X-286012Y-33719D02*
G54D17*
D03*
X-286012Y67881D02*
G54D17*
D03*
X-296012Y-723719D02*
G54D17*
D03*
X-296012Y-622119D02*
G54D17*
D03*
X441048Y-279486D02*
G54D11*
D03*
X0Y0D02*
G54D11*
D03*
X0Y-70000D02*
G54D11*
D03*
X-64661Y-673838D02*
G54D11*
D03*
X-64661Y-733838D02*
G54D11*
D03*
G54D13*
X0Y-70000D02*
X-4661Y-73838D01*
X-14661Y-83838D01*
X-14661Y-213838D01*
X-14661Y-210138D01*
G54D20*
X0Y0D02*
X-4661Y-3838D01*
X-4661Y46162D01*
X-2061Y43868D01*
G54D20*
X-64661Y-733838D02*
X-34661Y-763838D01*
X25339Y-763838D01*
X27939Y-760832D01*
G54D13*
X-64661Y-673838D02*
X-14661Y-623838D01*
X-14661Y-603838D01*
X-749961Y31562D02*
G54D11*
D03*
X-749961Y-25588D02*
G54D11*
D03*
X-699961Y-25588D02*
G54D11*
D03*
X-644961Y-664238D02*
G54D11*
D03*
X-644961Y-607088D02*
G54D11*
D03*
X-644961Y-607088D02*
G54D11*
D03*
X-519961Y26562D02*
G54D11*
D03*
X-519961Y-30588D02*
G54D11*
D03*
X-519961Y-30588D02*
G54D11*
D03*
X-470933Y117835D02*
G54D12*
D03*
X-470820Y66855D02*
G54D12*
D03*
X-460615Y-755422D02*
G54D12*
D03*
X-511595Y-755309D02*
G54D12*
D03*
X-511595Y-755309D02*
G54D11*
D03*
X-511595Y-755309D02*
G54D11*
D03*
X-524961Y-664238D02*
G54D11*
D03*
X-524961Y-607088D02*
G54D11*
D03*
X-524961Y-607088D02*
G54D11*
D03*
G54D20*
X-644961Y-664238D02*
X-640361Y-663838D01*
X-600361Y-703838D01*
X-600361Y-723838D01*
X-603672Y-722060D01*
G54D20*
X-524961Y-664238D02*
X-520361Y-663838D01*
X-550361Y-693838D01*
X-550361Y-723838D01*
X-552873Y-722060D01*
G54D20*
X-519961Y26562D02*
X-520361Y26162D01*
X-550361Y56162D01*
X-552873Y59022D01*
X-470933Y117835D02*
G54D11*
D03*
X-749961Y-25588D02*
G54D11*
D03*
%LPD*%
G54D23*
G36*
X-794274Y-382754D02*
X-794274Y-367254D01*
X-786941Y-367254D01*
X-786941Y-382754D01*
X-794274Y-382754D01*
G37*
G36*
X-790608Y-379088D02*
X-775108Y-379088D01*
X-775108Y-386421D01*
X-790608Y-386421D01*
X-790608Y-379088D01*
G37*
G36*
X-786941Y-382754D02*
X-786941Y-398254D01*
X-794274Y-398254D01*
X-794274Y-382754D01*
X-786941Y-382754D01*
G37*
G36*
X-790608Y-386421D02*
X-806108Y-386421D01*
X-806108Y-379088D01*
X-790608Y-379088D01*
X-790608Y-386421D01*
G37*
G54D23*
G36*
X-743474Y-382754D02*
X-743474Y-367254D01*
X-736141Y-367254D01*
X-736141Y-382754D01*
X-743474Y-382754D01*
G37*
G36*
X-739808Y-379088D02*
X-724308Y-379088D01*
X-724308Y-386421D01*
X-739808Y-386421D01*
X-739808Y-379088D01*
G37*
G36*
X-736141Y-382754D02*
X-736141Y-398254D01*
X-743474Y-398254D01*
X-743474Y-382754D01*
X-736141Y-382754D01*
G37*
G36*
X-739808Y-386421D02*
X-755308Y-386421D01*
X-755308Y-379088D01*
X-739808Y-379088D01*
X-739808Y-386421D01*
G37*
G54D23*
G36*
X-743474Y-433554D02*
X-743474Y-418054D01*
X-736141Y-418054D01*
X-736141Y-433554D01*
X-743474Y-433554D01*
G37*
G36*
X-739808Y-429888D02*
X-724308Y-429888D01*
X-724308Y-437221D01*
X-739808Y-437221D01*
X-739808Y-429888D01*
G37*
G36*
X-736141Y-433554D02*
X-736141Y-449054D01*
X-743474Y-449054D01*
X-743474Y-433554D01*
X-736141Y-433554D01*
G37*
G36*
X-739808Y-437221D02*
X-755308Y-437221D01*
X-755308Y-429888D01*
X-739808Y-429888D01*
X-739808Y-437221D01*
G37*
G54D23*
G36*
X-794274Y-433554D02*
X-794274Y-418054D01*
X-786941Y-418054D01*
X-786941Y-433554D01*
X-794274Y-433554D01*
G37*
G36*
X-790608Y-429888D02*
X-775108Y-429888D01*
X-775108Y-437221D01*
X-790608Y-437221D01*
X-790608Y-429888D01*
G37*
G36*
X-786941Y-433554D02*
X-786941Y-449054D01*
X-794274Y-449054D01*
X-794274Y-433554D01*
X-786941Y-433554D01*
G37*
G36*
X-790608Y-437221D02*
X-806108Y-437221D01*
X-806108Y-429888D01*
X-790608Y-429888D01*
X-790608Y-437221D01*
G37*
G54D24*
G36*
X-141819Y-279988D02*
X-141819Y-265488D01*
X-135152Y-265488D01*
X-135152Y-279988D01*
X-141819Y-279988D01*
G37*
G36*
X-138486Y-276655D02*
X-123986Y-276655D01*
X-123986Y-283322D01*
X-138486Y-283322D01*
X-138486Y-276655D01*
G37*
G54D25*
G36*
X527012Y-746236D02*
X527012Y-726736D01*
X537012Y-726736D01*
X537012Y-746236D01*
X527012Y-746236D01*
G37*
G36*
X532012Y-741236D02*
X551512Y-741236D01*
X551512Y-751236D01*
X532012Y-751236D01*
X532012Y-741236D01*
G37*
G36*
X537012Y-746236D02*
X537012Y-765736D01*
X527012Y-765736D01*
X527012Y-746236D01*
X537012Y-746236D01*
G37*
G36*
X532012Y-751236D02*
X512512Y-751236D01*
X512512Y-741236D01*
X532012Y-741236D01*
X532012Y-751236D01*
G37*
G54D26*
G36*
X-574439Y59022D02*
X-574439Y44522D01*
X-582106Y44522D01*
X-582106Y59022D01*
X-574439Y59022D01*
G37*
G36*
X-578273Y55189D02*
X-592773Y55189D01*
X-592773Y62856D01*
X-578273Y62856D01*
X-578273Y55189D01*
G37*
G36*
X-582106Y59022D02*
X-582106Y73522D01*
X-574439Y73522D01*
X-574439Y59022D01*
X-582106Y59022D01*
G37*
G36*
X-578273Y62856D02*
X-563773Y62856D01*
X-563773Y55189D01*
X-578273Y55189D01*
X-578273Y62856D01*
G37*
G54D26*
G36*
X-453690Y27817D02*
X-439190Y27817D01*
X-439190Y20151D01*
X-453690Y20151D01*
X-453690Y27817D01*
G37*
G36*
X-449856Y23984D02*
X-449856Y9484D01*
X-457523Y9484D01*
X-457523Y23984D01*
X-449856Y23984D01*
G37*
G36*
X-453690Y20151D02*
X-468190Y20151D01*
X-468190Y27817D01*
X-453690Y27817D01*
X-453690Y20151D01*
G37*
G36*
X-457523Y23984D02*
X-457523Y38484D01*
X-449856Y38484D01*
X-449856Y23984D01*
X-457523Y23984D01*
G37*
G54D26*
G36*
X-342254Y505D02*
X-342254Y15005D01*
X-334587Y15005D01*
X-334587Y505D01*
X-342254Y505D01*
G37*
G36*
X-338421Y4338D02*
X-323921Y4338D01*
X-323921Y-3328D01*
X-338421Y-3328D01*
X-338421Y4338D01*
G37*
G36*
X-334587Y505D02*
X-334587Y-13995D01*
X-342254Y-13995D01*
X-342254Y505D01*
X-334587Y505D01*
G37*
G36*
X-338421Y-3328D02*
X-352921Y-3328D01*
X-352921Y4338D01*
X-338421Y4338D01*
X-338421Y-3328D01*
G37*
G54D27*
G36*
X-346987Y505D02*
X-346987Y15005D01*
X-329854Y15005D01*
X-329854Y505D01*
X-346987Y505D01*
G37*
G36*
X-338421Y9072D02*
X-323921Y9072D01*
X-323921Y-8062D01*
X-338421Y-8062D01*
X-338421Y9072D01*
G37*
G36*
X-329854Y505D02*
X-329854Y-13995D01*
X-346987Y-13995D01*
X-346987Y505D01*
X-329854Y505D01*
G37*
G36*
X-338421Y-8062D02*
X-352921Y-8062D01*
X-352921Y9072D01*
X-338421Y9072D01*
X-338421Y-8062D01*
G37*
G54D24*
G36*
X-144994Y-594313D02*
X-144994Y-579813D01*
X-138327Y-579813D01*
X-138327Y-594313D01*
X-144994Y-594313D01*
G37*
G36*
X-141660Y-590980D02*
X-127160Y-590980D01*
X-127160Y-597647D01*
X-141660Y-597647D01*
X-141660Y-590980D01*
G37*
G54D27*
G36*
X51056Y-603838D02*
X51056Y-618338D01*
X33922Y-618338D01*
X33922Y-603838D01*
X51056Y-603838D01*
G37*
G36*
X42489Y-612405D02*
X27989Y-612405D01*
X27989Y-595271D01*
X42489Y-595271D01*
X42489Y-612405D01*
G37*
G36*
X33922Y-603838D02*
X33922Y-589338D01*
X51056Y-589338D01*
X51056Y-603838D01*
X33922Y-603838D01*
G37*
G36*
X42489Y-595271D02*
X56989Y-595271D01*
X56989Y-612405D01*
X42489Y-612405D01*
X42489Y-595271D01*
G37*
G54D27*
G36*
X165356Y-603838D02*
X165356Y-618338D01*
X148222Y-618338D01*
X148222Y-603838D01*
X165356Y-603838D01*
G37*
G36*
X156789Y-612405D02*
X142289Y-612405D01*
X142289Y-595271D01*
X156789Y-595271D01*
X156789Y-612405D01*
G37*
G36*
X148222Y-603838D02*
X148222Y-589338D01*
X165356Y-589338D01*
X165356Y-603838D01*
X148222Y-603838D01*
G37*
G36*
X156789Y-595271D02*
X171289Y-595271D01*
X171289Y-612405D01*
X156789Y-612405D01*
X156789Y-595271D01*
G37*
G54D27*
G36*
X51056Y-210138D02*
X51056Y-224638D01*
X33922Y-224638D01*
X33922Y-210138D01*
X51056Y-210138D01*
G37*
G36*
X42489Y-218705D02*
X27989Y-218705D01*
X27989Y-201571D01*
X42489Y-201571D01*
X42489Y-218705D01*
G37*
G36*
X33922Y-210138D02*
X33922Y-195638D01*
X51056Y-195638D01*
X51056Y-210138D01*
X33922Y-210138D01*
G37*
G36*
X42489Y-201571D02*
X56989Y-201571D01*
X56989Y-218705D01*
X42489Y-218705D01*
X42489Y-201571D01*
G37*
G54D27*
G36*
X165356Y-210138D02*
X165356Y-224638D01*
X148222Y-224638D01*
X148222Y-210138D01*
X165356Y-210138D01*
G37*
G36*
X156789Y-218705D02*
X142289Y-218705D01*
X142289Y-201571D01*
X156789Y-201571D01*
X156789Y-218705D01*
G37*
G36*
X148222Y-210138D02*
X148222Y-195638D01*
X165356Y-195638D01*
X165356Y-210138D01*
X148222Y-210138D01*
G37*
G36*
X156789Y-201571D02*
X171289Y-201571D01*
X171289Y-218705D01*
X156789Y-218705D01*
X156789Y-201571D01*
G37*
G54D24*
G36*
X26773Y43868D02*
X26773Y27368D01*
X20106Y27368D01*
X20106Y43868D01*
X26773Y43868D01*
G37*
G54D28*
G54D24*
G36*
X56773Y-760832D02*
X56773Y-777332D01*
X50106Y-777332D01*
X50106Y-760832D01*
X56773Y-760832D01*
G37*
G54D28*
G54D27*
G36*
X-383079Y-353759D02*
X-383079Y-339259D01*
X-365945Y-339259D01*
X-365945Y-353759D01*
X-383079Y-353759D01*
G37*
G36*
X-374512Y-345193D02*
X-360012Y-345193D01*
X-360012Y-362326D01*
X-374512Y-362326D01*
X-374512Y-345193D01*
G37*
G36*
X-365945Y-353759D02*
X-365945Y-368259D01*
X-383079Y-368259D01*
X-383079Y-353759D01*
X-365945Y-353759D01*
G37*
G36*
X-374512Y-362326D02*
X-389012Y-362326D01*
X-389012Y-345193D01*
X-374512Y-345193D01*
X-374512Y-362326D01*
G37*
G54D26*
G36*
X-574439Y-722060D02*
X-574439Y-736560D01*
X-582106Y-736560D01*
X-582106Y-722060D01*
X-574439Y-722060D01*
G37*
G36*
X-578273Y-725894D02*
X-592773Y-725894D01*
X-592773Y-718227D01*
X-578273Y-718227D01*
X-578273Y-725894D01*
G37*
G36*
X-582106Y-722060D02*
X-582106Y-707560D01*
X-574439Y-707560D01*
X-574439Y-722060D01*
X-582106Y-722060D01*
G37*
G36*
X-578273Y-718227D02*
X-563773Y-718227D01*
X-563773Y-725894D01*
X-578273Y-725894D01*
X-578273Y-718227D01*
G37*
G54D26*
G36*
X-479090Y-690855D02*
X-493590Y-690855D01*
X-493590Y-683189D01*
X-479090Y-683189D01*
X-479090Y-690855D01*
G37*
G36*
X-482923Y-687022D02*
X-482923Y-672522D01*
X-475256Y-672522D01*
X-475256Y-687022D01*
X-482923Y-687022D01*
G37*
G36*
X-479090Y-683189D02*
X-464590Y-683189D01*
X-464590Y-690855D01*
X-479090Y-690855D01*
X-479090Y-683189D01*
G37*
G36*
X-475256Y-687022D02*
X-475256Y-701522D01*
X-482923Y-701522D01*
X-482923Y-687022D01*
X-475256Y-687022D01*
G37*
G54D26*
G36*
X-367654Y-663543D02*
X-367654Y-649043D01*
X-359987Y-649043D01*
X-359987Y-663543D01*
X-367654Y-663543D01*
G37*
G36*
X-363821Y-659710D02*
X-349321Y-659710D01*
X-349321Y-667376D01*
X-363821Y-667376D01*
X-363821Y-659710D01*
G37*
G36*
X-359987Y-663543D02*
X-359987Y-678043D01*
X-367654Y-678043D01*
X-367654Y-663543D01*
X-359987Y-663543D01*
G37*
G36*
X-363821Y-667376D02*
X-378321Y-667376D01*
X-378321Y-659710D01*
X-363821Y-659710D01*
X-363821Y-667376D01*
G37*
G54D27*
G36*
X-372387Y-663543D02*
X-372387Y-649043D01*
X-355254Y-649043D01*
X-355254Y-663543D01*
X-372387Y-663543D01*
G37*
G36*
X-363821Y-654976D02*
X-349321Y-654976D01*
X-349321Y-672110D01*
X-363821Y-672110D01*
X-363821Y-654976D01*
G37*
G36*
X-355254Y-663543D02*
X-355254Y-678043D01*
X-372387Y-678043D01*
X-372387Y-663543D01*
X-355254Y-663543D01*
G37*
G36*
X-363821Y-672110D02*
X-378321Y-672110D01*
X-378321Y-654976D01*
X-363821Y-654976D01*
X-363821Y-672110D01*
G37*
G54D27*
G36*
X442482Y-476486D02*
X442482Y-461986D01*
X459615Y-461986D01*
X459615Y-476486D01*
X442482Y-476486D01*
G37*
G36*
X451048Y-467919D02*
X465548Y-467919D01*
X465548Y-485052D01*
X451048Y-485052D01*
X451048Y-467919D01*
G37*
G36*
X459615Y-476486D02*
X459615Y-490986D01*
X442482Y-490986D01*
X442482Y-476486D01*
X459615Y-476486D01*
G37*
G36*
X451048Y-485052D02*
X436548Y-485052D01*
X436548Y-467919D01*
X451048Y-467919D01*
X451048Y-485052D01*
G37*
G54D24*
G36*
X-671727Y56568D02*
X-671727Y40068D01*
X-678394Y40068D01*
X-678394Y56568D01*
X-671727Y56568D01*
G37*
G54D28*
G54D24*
G36*
X-671727Y-718132D02*
X-671727Y-734632D01*
X-678394Y-734632D01*
X-678394Y-718132D01*
X-671727Y-718132D01*
G37*
G54D28*
G54D29*
G36*
X-796237Y-244978D02*
X-796237Y-261478D01*
X-803037Y-261478D01*
X-803037Y-244978D01*
X-796237Y-244978D01*
G37*
G36*
X-799637Y-248378D02*
X-816137Y-248378D01*
X-816137Y-241578D01*
X-799637Y-241578D01*
X-799637Y-248378D01*
G37*
G36*
X-803037Y-244978D02*
X-803037Y-228478D01*
X-796237Y-228478D01*
X-796237Y-244978D01*
X-803037Y-244978D01*
G37*
G36*
X-799637Y-241578D02*
X-783137Y-241578D01*
X-783137Y-248378D01*
X-799637Y-248378D01*
X-799637Y-241578D01*
G37*
G54D29*
G36*
X-752612Y-273719D02*
X-752612Y-290219D01*
X-759412Y-290219D01*
X-759412Y-273719D01*
X-752612Y-273719D01*
G37*
G36*
X-756012Y-277119D02*
X-772512Y-277119D01*
X-772512Y-270319D01*
X-756012Y-270319D01*
X-756012Y-277119D01*
G37*
G36*
X-759412Y-273719D02*
X-759412Y-257219D01*
X-752612Y-257219D01*
X-752612Y-273719D01*
X-759412Y-273719D01*
G37*
G36*
X-756012Y-270319D02*
X-739512Y-270319D01*
X-739512Y-277119D01*
X-756012Y-277119D01*
X-756012Y-270319D01*
G37*
G54D26*
G36*
X-819015Y60934D02*
X-819015Y46434D01*
X-826681Y46434D01*
X-826681Y60934D01*
X-819015Y60934D01*
G37*
G36*
X-822848Y57101D02*
X-837348Y57101D01*
X-837348Y64767D01*
X-822848Y64767D01*
X-822848Y57101D01*
G37*
G36*
X-826681Y60934D02*
X-826681Y75434D01*
X-819015Y75434D01*
X-819015Y60934D01*
X-826681Y60934D01*
G37*
G36*
X-822848Y64767D02*
X-808348Y64767D01*
X-808348Y57101D01*
X-822848Y57101D01*
X-822848Y64767D01*
G37*
G54D26*
G36*
X-590415Y-434366D02*
X-590415Y-448866D01*
X-598081Y-448866D01*
X-598081Y-434366D01*
X-590415Y-434366D01*
G37*
G36*
X-594248Y-438199D02*
X-608748Y-438199D01*
X-608748Y-430533D01*
X-594248Y-430533D01*
X-594248Y-438199D01*
G37*
G36*
X-598081Y-434366D02*
X-598081Y-419866D01*
X-590415Y-419866D01*
X-590415Y-434366D01*
X-598081Y-434366D01*
G37*
G36*
X-594248Y-430533D02*
X-579748Y-430533D01*
X-579748Y-438199D01*
X-594248Y-438199D01*
X-594248Y-430533D01*
G37*
G54D26*
G36*
X-539615Y-434366D02*
X-539615Y-448866D01*
X-547281Y-448866D01*
X-547281Y-434366D01*
X-539615Y-434366D01*
G37*
G36*
X-543448Y-438199D02*
X-557948Y-438199D01*
X-557948Y-430533D01*
X-543448Y-430533D01*
X-543448Y-438199D01*
G37*
G36*
X-547281Y-434366D02*
X-547281Y-419866D01*
X-539615Y-419866D01*
X-539615Y-434366D01*
X-547281Y-434366D01*
G37*
G36*
X-543448Y-430533D02*
X-528948Y-430533D01*
X-528948Y-438199D01*
X-543448Y-438199D01*
X-543448Y-430533D01*
G37*
G54D25*
G36*
X516918Y-140442D02*
X516918Y-159942D01*
X506918Y-159942D01*
X506918Y-140442D01*
X516918Y-140442D01*
G37*
G36*
X511918Y-145442D02*
X492418Y-145442D01*
X492418Y-135442D01*
X511918Y-135442D01*
X511918Y-145442D01*
G37*
G36*
X506918Y-140442D02*
X506918Y-120942D01*
X516918Y-120942D01*
X516918Y-140442D01*
X506918Y-140442D01*
G37*
G36*
X511918Y-135442D02*
X531418Y-135442D01*
X531418Y-145442D01*
X511918Y-145442D01*
X511918Y-135442D01*
G37*
G54D29*
G36*
X90732Y-283677D02*
X107232Y-283677D01*
X107232Y-290477D01*
X90732Y-290477D01*
X90732Y-283677D01*
G37*
G36*
X94132Y-287077D02*
X94132Y-303577D01*
X87332Y-303577D01*
X87332Y-287077D01*
X94132Y-287077D01*
G37*
G36*
X90732Y-290477D02*
X74232Y-290477D01*
X74232Y-283677D01*
X90732Y-283677D01*
X90732Y-290477D01*
G37*
G36*
X87332Y-287077D02*
X87332Y-270577D01*
X94132Y-270577D01*
X94132Y-287077D01*
X87332Y-287077D01*
G37*
G54D29*
G36*
X7344Y-514856D02*
X-9156Y-514856D01*
X-9156Y-508056D01*
X7344Y-508056D01*
X7344Y-514856D01*
G37*
G36*
X3944Y-511456D02*
X3944Y-494956D01*
X10744Y-494956D01*
X10744Y-511456D01*
X3944Y-511456D01*
G37*
G36*
X7344Y-508056D02*
X23844Y-508056D01*
X23844Y-514856D01*
X7344Y-514856D01*
X7344Y-508056D01*
G37*
G36*
X10744Y-511456D02*
X10744Y-527956D01*
X3944Y-527956D01*
X3944Y-511456D01*
X10744Y-511456D01*
G37*
G54D25*
G36*
X527012Y117364D02*
X527012Y136864D01*
X537012Y136864D01*
X537012Y117364D01*
X527012Y117364D01*
G37*
G36*
X532012Y122364D02*
X551512Y122364D01*
X551512Y112364D01*
X532012Y112364D01*
X532012Y122364D01*
G37*
G36*
X537012Y117364D02*
X537012Y97864D01*
X527012Y97864D01*
X527012Y117364D01*
X537012Y117364D01*
G37*
G36*
X532012Y112364D02*
X512512Y112364D01*
X512512Y122364D01*
X532012Y122364D01*
X532012Y112364D01*
G37*
G54D25*
G36*
X-863638Y-746236D02*
X-863638Y-726736D01*
X-853638Y-726736D01*
X-853638Y-746236D01*
X-863638Y-746236D01*
G37*
G36*
X-858638Y-741236D02*
X-839138Y-741236D01*
X-839138Y-751236D01*
X-858638Y-751236D01*
X-858638Y-741236D01*
G37*
G36*
X-853638Y-746236D02*
X-853638Y-765736D01*
X-863638Y-765736D01*
X-863638Y-746236D01*
X-853638Y-746236D01*
G37*
G36*
X-858638Y-751236D02*
X-878138Y-751236D01*
X-878138Y-741236D01*
X-858638Y-741236D01*
X-858638Y-751236D01*
G37*
G54D25*
G36*
X-435888Y-105836D02*
X-435888Y-86336D01*
X-425888Y-86336D01*
X-425888Y-105836D01*
X-435888Y-105836D01*
G37*
G36*
X-430888Y-100836D02*
X-411388Y-100836D01*
X-411388Y-110836D01*
X-430888Y-110836D01*
X-430888Y-100836D01*
G37*
G36*
X-425888Y-105836D02*
X-425888Y-125336D01*
X-435888Y-125336D01*
X-435888Y-105836D01*
X-425888Y-105836D01*
G37*
G36*
X-430888Y-110836D02*
X-450388Y-110836D01*
X-450388Y-100836D01*
X-430888Y-100836D01*
X-430888Y-110836D01*
G37*
G54D25*
G36*
X-196888Y-746236D02*
X-196888Y-726736D01*
X-186888Y-726736D01*
X-186888Y-746236D01*
X-196888Y-746236D01*
G37*
G36*
X-191888Y-741236D02*
X-172388Y-741236D01*
X-172388Y-751236D01*
X-191888Y-751236D01*
X-191888Y-741236D01*
G37*
G36*
X-186888Y-746236D02*
X-186888Y-765736D01*
X-196888Y-765736D01*
X-196888Y-746236D01*
X-186888Y-746236D01*
G37*
G36*
X-191888Y-751236D02*
X-211388Y-751236D01*
X-211388Y-741236D01*
X-191888Y-741236D01*
X-191888Y-751236D01*
G37*
G54D25*
G36*
X-196888Y66564D02*
X-196888Y86064D01*
X-186888Y86064D01*
X-186888Y66564D01*
X-196888Y66564D01*
G37*
G36*
X-191888Y71564D02*
X-172388Y71564D01*
X-172388Y61564D01*
X-191888Y61564D01*
X-191888Y71564D01*
G37*
G36*
X-186888Y66564D02*
X-186888Y47064D01*
X-196888Y47064D01*
X-196888Y66564D01*
X-186888Y66564D01*
G37*
G36*
X-191888Y61564D02*
X-211388Y61564D01*
X-211388Y71564D01*
X-191888Y71564D01*
X-191888Y61564D01*
G37*
G54D25*
G36*
X-866813Y-358886D02*
X-866813Y-339386D01*
X-856813Y-339386D01*
X-856813Y-358886D01*
X-866813Y-358886D01*
G37*
G36*
X-861813Y-353886D02*
X-842313Y-353886D01*
X-842313Y-363886D01*
X-861813Y-363886D01*
X-861813Y-353886D01*
G37*
G36*
X-856813Y-358886D02*
X-856813Y-378386D01*
X-866813Y-378386D01*
X-866813Y-358886D01*
X-856813Y-358886D01*
G37*
G36*
X-861813Y-363886D02*
X-881313Y-363886D01*
X-881313Y-353886D01*
X-861813Y-353886D01*
X-861813Y-363886D01*
G37*
G54D29*
G36*
X229755Y91537D02*
X213255Y91537D01*
X213255Y98337D01*
X229755Y98337D01*
X229755Y91537D01*
G37*
G36*
X226355Y94937D02*
X226355Y111437D01*
X233155Y111437D01*
X233155Y94937D01*
X226355Y94937D01*
G37*
G36*
X229755Y98337D02*
X246255Y98337D01*
X246255Y91537D01*
X229755Y91537D01*
X229755Y98337D01*
G37*
G36*
X233155Y94937D02*
X233155Y78437D01*
X226355Y78437D01*
X226355Y94937D01*
X233155Y94937D01*
G37*
G54D29*
G36*
X201014Y47912D02*
X184514Y47912D01*
X184514Y54712D01*
X201014Y54712D01*
X201014Y47912D01*
G37*
G36*
X197614Y51312D02*
X197614Y67812D01*
X204414Y67812D01*
X204414Y51312D01*
X197614Y51312D01*
G37*
G36*
X201014Y54712D02*
X217514Y54712D01*
X217514Y47912D01*
X201014Y47912D01*
X201014Y54712D01*
G37*
G36*
X204414Y51312D02*
X204414Y34812D01*
X197614Y34812D01*
X197614Y51312D01*
X204414Y51312D01*
G37*
G54D25*
G36*
X-866813Y120539D02*
X-866813Y140039D01*
X-856813Y140039D01*
X-856813Y120539D01*
X-866813Y120539D01*
G37*
G36*
X-861813Y125539D02*
X-842313Y125539D01*
X-842313Y115539D01*
X-861813Y115539D01*
X-861813Y125539D01*
G37*
G36*
X-856813Y120539D02*
X-856813Y101039D01*
X-866813Y101039D01*
X-866813Y120539D01*
X-856813Y120539D01*
G37*
G36*
X-861813Y115539D02*
X-881313Y115539D01*
X-881313Y125539D01*
X-861813Y125539D01*
X-861813Y115539D01*
G37*
G54D25*
G36*
X523837Y-416036D02*
X523837Y-396536D01*
X533837Y-396536D01*
X533837Y-416036D01*
X523837Y-416036D01*
G37*
G36*
X528837Y-411036D02*
X548337Y-411036D01*
X548337Y-421036D01*
X528837Y-421036D01*
X528837Y-411036D01*
G37*
G36*
X533837Y-416036D02*
X533837Y-435536D01*
X523837Y-435536D01*
X523837Y-416036D01*
X533837Y-416036D01*
G37*
G36*
X528837Y-421036D02*
X509337Y-421036D01*
X509337Y-411036D01*
X528837Y-411036D01*
X528837Y-421036D01*
G37*
G54D29*
G36*
X-661564Y-303449D02*
X-661564Y-319949D01*
X-668364Y-319949D01*
X-668364Y-303449D01*
X-661564Y-303449D01*
G37*
G36*
X-664964Y-306849D02*
X-681464Y-306849D01*
X-681464Y-300049D01*
X-664964Y-300049D01*
X-664964Y-306849D01*
G37*
G36*
X-668364Y-303449D02*
X-668364Y-286949D01*
X-661564Y-286949D01*
X-661564Y-303449D01*
X-668364Y-303449D01*
G37*
G36*
X-664964Y-300049D02*
X-648464Y-300049D01*
X-648464Y-306849D01*
X-664964Y-306849D01*
X-664964Y-300049D01*
G37*
G54D29*
G36*
X366205Y-177060D02*
X366205Y-193560D01*
X359405Y-193560D01*
X359405Y-177060D01*
X366205Y-177060D01*
G37*
G36*
X362805Y-180460D02*
X346305Y-180460D01*
X346305Y-173660D01*
X362805Y-173660D01*
X362805Y-180460D01*
G37*
G36*
X359405Y-177060D02*
X359405Y-160560D01*
X366205Y-160560D01*
X366205Y-177060D01*
X359405Y-177060D01*
G37*
G36*
X362805Y-173660D02*
X379305Y-173660D01*
X379305Y-180460D01*
X362805Y-180460D01*
X362805Y-173660D01*
G37*
G54D27*
G36*
X-699961Y-34155D02*
X-714461Y-34155D01*
X-714461Y-17021D01*
X-699961Y-17021D01*
X-699961Y-34155D01*
G37*
G36*
X-708528Y-25588D02*
X-708528Y-11088D01*
X-691394Y-11088D01*
X-691394Y-25588D01*
X-708528Y-25588D01*
G37*
G36*
X-699961Y-17021D02*
X-685461Y-17021D01*
X-685461Y-34155D01*
X-699961Y-34155D01*
X-699961Y-17021D01*
G37*
G36*
X-691394Y-25588D02*
X-691394Y-40088D01*
X-708528Y-40088D01*
X-708528Y-25588D01*
X-691394Y-25588D01*
G37*
G54D27*
G36*
X-644961Y-598521D02*
X-630461Y-598521D01*
X-630461Y-615655D01*
X-644961Y-615655D01*
X-644961Y-598521D01*
G37*
G36*
X-636394Y-607088D02*
X-636394Y-621588D01*
X-653528Y-621588D01*
X-653528Y-607088D01*
X-636394Y-607088D01*
G37*
G36*
X-644961Y-615655D02*
X-659461Y-615655D01*
X-659461Y-598521D01*
X-644961Y-598521D01*
X-644961Y-615655D01*
G37*
G36*
X-653528Y-607088D02*
X-653528Y-592588D01*
X-636394Y-592588D01*
X-636394Y-607088D01*
X-653528Y-607088D01*
G37*
G54D27*
G36*
X-519961Y-39155D02*
X-534461Y-39155D01*
X-534461Y-22021D01*
X-519961Y-22021D01*
X-519961Y-39155D01*
G37*
G36*
X-528528Y-30588D02*
X-528528Y-16088D01*
X-511394Y-16088D01*
X-511394Y-30588D01*
X-528528Y-30588D01*
G37*
G36*
X-519961Y-22021D02*
X-505461Y-22021D01*
X-505461Y-39155D01*
X-519961Y-39155D01*
X-519961Y-22021D01*
G37*
G36*
X-511394Y-30588D02*
X-511394Y-45088D01*
X-528528Y-45088D01*
X-528528Y-30588D01*
X-511394Y-30588D01*
G37*
G54D26*
G36*
X-511595Y-759143D02*
X-526095Y-759143D01*
X-526095Y-751476D01*
X-511595Y-751476D01*
X-511595Y-759143D01*
G37*
G36*
X-515429Y-755309D02*
X-515429Y-740809D01*
X-507762Y-740809D01*
X-507762Y-755309D01*
X-515429Y-755309D01*
G37*
G36*
X-511595Y-751476D02*
X-497095Y-751476D01*
X-497095Y-759143D01*
X-511595Y-759143D01*
X-511595Y-751476D01*
G37*
G36*
X-507762Y-755309D02*
X-507762Y-769809D01*
X-515429Y-769809D01*
X-515429Y-755309D01*
X-507762Y-755309D01*
G37*
G54D27*
G36*
X-511595Y-763876D02*
X-526095Y-763876D01*
X-526095Y-746743D01*
X-511595Y-746743D01*
X-511595Y-763876D01*
G37*
G36*
X-520162Y-755309D02*
X-520162Y-740809D01*
X-503029Y-740809D01*
X-503029Y-755309D01*
X-520162Y-755309D01*
G37*
G36*
X-511595Y-746743D02*
X-497095Y-746743D01*
X-497095Y-763876D01*
X-511595Y-763876D01*
X-511595Y-746743D01*
G37*
G36*
X-503029Y-755309D02*
X-503029Y-769809D01*
X-520162Y-769809D01*
X-520162Y-755309D01*
X-503029Y-755309D01*
G37*
G54D27*
G36*
X-524961Y-598521D02*
X-510461Y-598521D01*
X-510461Y-615655D01*
X-524961Y-615655D01*
X-524961Y-598521D01*
G37*
G36*
X-516394Y-607088D02*
X-516394Y-621588D01*
X-533528Y-621588D01*
X-533528Y-607088D01*
X-516394Y-607088D01*
G37*
G36*
X-524961Y-615655D02*
X-539461Y-615655D01*
X-539461Y-598521D01*
X-524961Y-598521D01*
X-524961Y-615655D01*
G37*
G36*
X-533528Y-607088D02*
X-533528Y-592588D01*
X-516394Y-592588D01*
X-516394Y-607088D01*
X-533528Y-607088D01*
G37*
G54D30*
G36*
X-478966Y117835D02*
X-478966Y132335D01*
X-462900Y132335D01*
X-462900Y117835D01*
X-478966Y117835D01*
G37*
G36*
X-470933Y125868D02*
X-456433Y125868D01*
X-456433Y109802D01*
X-470933Y109802D01*
X-470933Y125868D01*
G37*
G36*
X-462900Y117835D02*
X-462900Y103335D01*
X-478966Y103335D01*
X-478966Y117835D01*
X-462900Y117835D01*
G37*
G36*
X-470933Y109802D02*
X-485433Y109802D01*
X-485433Y125868D01*
X-470933Y125868D01*
X-470933Y109802D01*
G37*
G54D27*
G36*
X-749961Y-34155D02*
X-764461Y-34155D01*
X-764461Y-17021D01*
X-749961Y-17021D01*
X-749961Y-34155D01*
G37*
G36*
X-758528Y-25588D02*
X-758528Y-11088D01*
X-741394Y-11088D01*
X-741394Y-25588D01*
X-758528Y-25588D01*
G37*
G36*
X-749961Y-17021D02*
X-735461Y-17021D01*
X-735461Y-34155D01*
X-749961Y-34155D01*
X-749961Y-17021D01*
G37*
G36*
X-741394Y-25588D02*
X-741394Y-40088D01*
X-758528Y-40088D01*
X-758528Y-25588D01*
X-741394Y-25588D01*
G37*
X-790608Y-382754D02*
G54D31*
D03*
X-739808Y-382754D02*
G54D31*
D03*
X-765208Y-408154D02*
G54D31*
D03*
X-739808Y-433554D02*
G54D31*
D03*
X-790608Y-433554D02*
G54D31*
D03*
G36*
X-287285Y-484972D02*
X-307285Y-484972D01*
X-307285Y-464972D01*
X-287285Y-464972D01*
X-287285Y-484972D01*
G37*
G36*
X-188173Y-289988D02*
X-188173Y-269988D01*
X-168173Y-269988D01*
X-168173Y-289988D01*
X-188173Y-289988D01*
G37*
G36*
X-148486Y-289988D02*
X-148486Y-269988D01*
X-128486Y-269988D01*
X-128486Y-289988D01*
X-148486Y-289988D01*
G37*
G36*
X-227861Y-289988D02*
X-227861Y-269988D01*
X-207861Y-269988D01*
X-207861Y-289988D01*
X-227861Y-289988D01*
G37*
G36*
X517012Y-731236D02*
X547012Y-731236D01*
X547012Y-761236D01*
X517012Y-761236D01*
X517012Y-731236D01*
G37*
G36*
X-305602Y-523610D02*
X-285602Y-523610D01*
X-285602Y-543610D01*
X-305602Y-543610D01*
X-305602Y-523610D01*
G37*
X-603672Y59022D02*
G54D32*
D03*
X-578273Y59022D02*
G54D32*
D03*
X-552873Y59022D02*
G54D32*
D03*
X-390190Y-14116D02*
G54D32*
D03*
X-453690Y23984D02*
G54D32*
D03*
X-390190Y58909D02*
G54D32*
D03*
X-578273Y59022D02*
G54D32*
D03*
X-453690Y23984D02*
G54D32*
D03*
X-338533Y51486D02*
G54D32*
D03*
X-338421Y505D02*
G54D32*
D03*
X-338421Y505D02*
G54D32*
D03*
X-338421Y505D02*
G54D32*
D03*
G36*
X-296076Y-58076D02*
X-276076Y-58076D01*
X-276076Y-78076D01*
X-296076Y-78076D01*
X-296076Y-58076D01*
G37*
G36*
X-276172Y-135722D02*
X-296172Y-135722D01*
X-296172Y-115722D01*
X-276172Y-115722D01*
X-276172Y-135722D01*
G37*
G36*
X-336411Y-365347D02*
X-336411Y-345347D01*
X-316411Y-345347D01*
X-316411Y-365347D01*
X-336411Y-365347D01*
G37*
G36*
X-336886Y-290734D02*
X-336886Y-270734D01*
X-316886Y-270734D01*
X-316886Y-290734D01*
X-336886Y-290734D01*
G37*
X-374512Y-353759D02*
G54D32*
D03*
G36*
X-385306Y-290893D02*
X-385306Y-270893D01*
X-365306Y-270893D01*
X-365306Y-290893D01*
X-385306Y-290893D01*
G37*
G36*
X-450875Y-231439D02*
X-450875Y-251439D01*
X-470875Y-251439D01*
X-470875Y-231439D01*
X-450875Y-231439D01*
G37*
G36*
X-408012Y-234614D02*
X-408012Y-254614D01*
X-428012Y-254614D01*
X-428012Y-234614D01*
X-408012Y-234614D01*
G37*
X-332235Y-179780D02*
G54D32*
D03*
X-281254Y-179893D02*
G54D32*
D03*
X-281254Y-179893D02*
G54D32*
D03*
X-338586Y-421080D02*
G54D32*
D03*
X-287605Y-421192D02*
G54D32*
D03*
X-287605Y-421192D02*
G54D32*
D03*
X-287605Y-421192D02*
G54D32*
D03*
G36*
X62238Y-360000D02*
X42238Y-360000D01*
X42238Y-340000D01*
X62238Y-340000D01*
X62238Y-360000D01*
G37*
G36*
X-60000Y-360000D02*
X-80000Y-360000D01*
X-80000Y-340000D01*
X-60000Y-340000D01*
X-60000Y-360000D01*
G37*
G36*
X62237Y-471919D02*
X42237Y-471919D01*
X42237Y-451919D01*
X62237Y-451919D01*
X62237Y-471919D01*
G37*
G36*
X-56825Y-473506D02*
X-76825Y-473506D01*
X-76825Y-453506D01*
X-56825Y-453506D01*
X-56825Y-473506D01*
G37*
G36*
X-191348Y-604314D02*
X-191348Y-584314D01*
X-171348Y-584314D01*
X-171348Y-604314D01*
X-191348Y-604314D01*
G37*
G36*
X-151660Y-604313D02*
X-151660Y-584313D01*
X-131660Y-584313D01*
X-131660Y-604313D01*
X-151660Y-604313D01*
G37*
G36*
X-231036Y-604313D02*
X-231036Y-584313D01*
X-211036Y-584313D01*
X-211036Y-604313D01*
X-231036Y-604313D01*
G37*
G36*
X118786Y-336310D02*
X138786Y-336310D01*
X138786Y-356310D01*
X118786Y-356310D01*
X118786Y-336310D01*
G37*
G36*
X121961Y-469660D02*
X141961Y-469660D01*
X141961Y-489660D01*
X121961Y-489660D01*
X121961Y-469660D01*
G37*
G36*
X441048Y-339486D02*
X461048Y-339486D01*
X461048Y-359486D01*
X441048Y-359486D01*
X441048Y-339486D01*
G37*
X451048Y-476486D02*
G54D32*
D03*
G54D33*
X-178173Y-286338D02*
X-178173Y-318821D01*
X-177950Y-319044D01*
X-81906Y-319044D01*
X-78161Y-324438D01*
X-70000Y-356350D01*
G54D33*
X-181348Y-594314D02*
X-177950Y-636544D01*
X-114450Y-636544D01*
X-89050Y-585744D01*
X-60848Y-523266D01*
X-63650Y-473031D01*
X-66825Y-450806D01*
X101204Y-437273D02*
G54D32*
D03*
X101317Y-386293D02*
G54D32*
D03*
X101317Y-386293D02*
G54D32*
D03*
X101317Y-386293D02*
G54D32*
D03*
X-14661Y-603838D02*
G54D32*
D03*
X42489Y-603838D02*
G54D32*
D03*
X99639Y-603838D02*
G54D32*
D03*
X156789Y-603838D02*
G54D32*
D03*
X-14661Y-210138D02*
G54D32*
D03*
X42489Y-210138D02*
G54D32*
D03*
X99639Y-210138D02*
G54D32*
D03*
X156789Y-210138D02*
G54D32*
D03*
X42489Y-603838D02*
G54D32*
D03*
X156789Y-603838D02*
G54D32*
D03*
X42489Y-210138D02*
G54D32*
D03*
X156789Y-210138D02*
G54D32*
D03*
G54D34*
X-14661Y-210138D02*
X-14661Y-222838D01*
X36139Y-273638D01*
X40752Y-320066D01*
X52238Y-350000D01*
G54D34*
X99639Y-603838D02*
X112339Y-603838D01*
X61539Y-553038D01*
X36139Y-553038D01*
X-14661Y-603838D01*
G54D34*
X99639Y-210138D02*
X112339Y-222838D01*
X86939Y-248238D01*
X36139Y-248238D01*
X10739Y-222838D01*
X-14661Y-222838D01*
X-14661Y-210138D01*
X23439Y43868D02*
G54D32*
D03*
X-2061Y43868D02*
G54D32*
D03*
X53439Y-760832D02*
G54D32*
D03*
X27939Y-760832D02*
G54D32*
D03*
G54D35*
X-286076Y-61727D02*
X-283964Y-65323D01*
X-283964Y-27223D01*
X-285428Y-27325D01*
G54D35*
X-281254Y-179893D02*
X-283964Y-179623D01*
X-283964Y-141523D01*
X-286172Y-138422D01*
G54D36*
X-281254Y-179893D02*
X-283964Y-179623D01*
X-258564Y-268523D01*
X-220464Y-281223D01*
X-217861Y-279988D01*
G54D35*
X-332235Y-179781D02*
X-334764Y-179623D01*
X-322064Y-192323D01*
X-322064Y-281223D01*
X-326886Y-280734D01*
G54D35*
X-418012Y-244614D02*
X-385564Y-281223D01*
X-372864Y-281223D01*
X-375306Y-280893D01*
G54D35*
X-338586Y-421080D02*
X-334764Y-420923D01*
X-322064Y-408223D01*
X-322064Y-357423D01*
X-326411Y-355347D01*
G54D35*
X-287605Y-421192D02*
X-283964Y-420923D01*
X-296664Y-433623D01*
X-296664Y-471723D01*
X-297285Y-474972D01*
G54D36*
X-297285Y-474972D02*
X-293415Y-474972D01*
X-258564Y-509823D01*
X-258564Y-586023D01*
X-221036Y-594313D01*
G36*
X-384512Y-343759D02*
X-364512Y-343759D01*
X-364512Y-363759D01*
X-384512Y-363759D01*
X-384512Y-343759D01*
G37*
X-603672Y-722060D02*
G54D32*
D03*
X-578273Y-722060D02*
G54D32*
D03*
X-552873Y-722060D02*
G54D32*
D03*
X-415590Y-648922D02*
G54D32*
D03*
X-479090Y-687022D02*
G54D32*
D03*
X-415590Y-721947D02*
G54D32*
D03*
X-578273Y-722060D02*
G54D32*
D03*
X-479090Y-687022D02*
G54D32*
D03*
X-363933Y-714524D02*
G54D32*
D03*
X-363821Y-663543D02*
G54D32*
D03*
X-363821Y-663543D02*
G54D32*
D03*
X-363821Y-663543D02*
G54D32*
D03*
G54D33*
X-70000Y-350000D02*
X-70000Y-363494D01*
X-46188Y-387306D01*
X100303Y-387306D01*
X101317Y-386293D01*
G54D35*
X-66825Y-450806D02*
X-66825Y-443226D01*
X-47290Y-423691D01*
X87622Y-423691D01*
X101204Y-437273D01*
G54D36*
X52237Y-461919D02*
X58325Y-511343D01*
X52237Y-543736D01*
X61539Y-553038D01*
G54D36*
X101317Y-386293D02*
X101317Y-373780D01*
X128786Y-346310D01*
G54D36*
X101204Y-437273D02*
X101204Y-448904D01*
X131961Y-479660D01*
G36*
X441048Y-466486D02*
X461048Y-466486D01*
X461048Y-486486D01*
X441048Y-486486D01*
X441048Y-466486D01*
G37*
X-675061Y56568D02*
G54D32*
D03*
X-700561Y56568D02*
G54D32*
D03*
X-675061Y-718132D02*
G54D32*
D03*
X-700561Y-718132D02*
G54D32*
D03*
X-756012Y-273719D02*
G54D37*
D03*
X-756012Y-172119D02*
G54D37*
D03*
X-799637Y-244978D02*
G54D32*
D03*
X-799749Y-193998D02*
G54D32*
D03*
X-799637Y-244978D02*
G54D32*
D03*
X-756012Y-273719D02*
G54D32*
D03*
X-760805Y-69252D02*
G54D38*
D03*
X-776705Y-86827D02*
G54D38*
D03*
X-760771Y-104443D02*
G54D38*
D03*
X-702369Y-114317D02*
G54D32*
D03*
X-702481Y-63336D02*
G54D32*
D03*
X-631272Y-129425D02*
G54D32*
D03*
X-631222Y-53174D02*
G54D32*
D03*
X-567772Y-129425D02*
G54D32*
D03*
X-567722Y-53174D02*
G54D32*
D03*
X-822848Y60934D02*
G54D32*
D03*
X-797448Y60934D02*
G54D32*
D03*
X-822848Y60934D02*
G54D32*
D03*
X-594248Y-383566D02*
G54D32*
D03*
X-543448Y-383566D02*
G54D32*
D03*
X-594248Y-434366D02*
G54D32*
D03*
X-543448Y-434366D02*
G54D32*
D03*
X-594248Y-434366D02*
G54D32*
D03*
X-543448Y-434366D02*
G54D32*
D03*
G54D39*
X-799749Y-193997D02*
X-797448Y-193066D01*
X-778398Y-174016D01*
X-752998Y-174016D01*
X-756012Y-172119D01*
G54D39*
X-631272Y-129425D02*
X-632348Y-129566D01*
X-645048Y-116866D01*
X-702198Y-116866D01*
X-702369Y-114317D01*
G54D39*
X-567772Y-129425D02*
X-568848Y-129566D01*
X-632348Y-129566D01*
X-631272Y-129425D01*
G54D39*
X-631222Y-53175D02*
X-632348Y-53366D01*
X-645048Y-66066D01*
X-702198Y-66066D01*
X-702481Y-63336D01*
G54D39*
X-702481Y-63336D02*
X-702198Y-66066D01*
X-708548Y-72416D01*
X-759348Y-72416D01*
X-760805Y-69252D01*
G54D39*
X-745522Y61126D02*
X-732822Y73826D01*
X-637572Y73826D01*
X-619648Y10134D01*
X-597722Y-16024D01*
X-567722Y-53174D01*
X-566596Y-52984D01*
G54D25*
X-516333Y57836D02*
X-490933Y57836D01*
X-549798Y60934D01*
X-552873Y59022D01*
G54D25*
X-490933Y57836D02*
X-492648Y60934D01*
X-391048Y60934D01*
X-390190Y58909D01*
G54D25*
X-338533Y51486D02*
X-340248Y54584D01*
X-391048Y3784D01*
X-391048Y-15266D01*
X-390190Y-14116D01*
G54D25*
X-285378Y48925D02*
X-283098Y48234D01*
X-286012Y67881D01*
X-340248Y54584D01*
X-338533Y51486D01*
G54D25*
X-700561Y-718132D02*
X-702198Y-720116D01*
X-689498Y-732816D01*
X-689498Y-739166D01*
X-683148Y-745516D01*
X-670448Y-745516D01*
X-645048Y-720116D01*
X-600598Y-720116D01*
X-603672Y-722060D01*
G54D25*
X-516333Y-720874D02*
X-518048Y-720116D01*
X-416448Y-720116D01*
X-415590Y-721947D01*
G54D25*
X-363933Y-714524D02*
X-365648Y-713766D01*
X-416448Y-662966D01*
X-416448Y-650266D01*
X-415590Y-648922D01*
G54D25*
X-363933Y-714524D02*
X-365648Y-713766D01*
X-359298Y-720116D01*
X-295798Y-720116D01*
X-294903Y-720462D01*
G54D35*
X-295602Y-546311D02*
X-295798Y-548666D01*
X-296012Y-622119D01*
G54D36*
X99639Y-603838D02*
X91552Y-599466D01*
X66152Y-574066D01*
X15352Y-574066D01*
X-10048Y-599466D01*
X-14661Y-603838D01*
G36*
X531918Y-84242D02*
X491918Y-84242D01*
X491918Y-44242D01*
X531918Y-44242D01*
X531918Y-84242D01*
G37*
G36*
X526918Y-155442D02*
X496918Y-155442D01*
X496918Y-125442D01*
X526918Y-125442D01*
X526918Y-155442D01*
G37*
G54D39*
X-745522Y61126D02*
X-797256Y61126D01*
X-797448Y60934D01*
G54D19*
X-765208Y-408154D02*
X-631536Y-408154D01*
X-619648Y-396266D01*
X-822848Y-15266D02*
G54D32*
D03*
X-797448Y-15266D02*
G54D32*
D03*
G54D39*
X-700561Y56568D02*
X-725614Y56568D01*
X-797448Y-15266D01*
G54D39*
X-822848Y-15266D02*
X-822848Y-129566D01*
X-778398Y-174016D01*
G54D39*
X-756012Y-172119D02*
X-712998Y-172119D01*
X-664964Y-185973D01*
X90732Y-287077D02*
G54D32*
D03*
X39752Y-287190D02*
G54D32*
D03*
X90732Y-287077D02*
G54D32*
D03*
X7344Y-511456D02*
G54D32*
D03*
X58325Y-511343D02*
G54D32*
D03*
X7344Y-511456D02*
G54D32*
D03*
G36*
X517012Y132364D02*
X547012Y132364D01*
X547012Y102364D01*
X517012Y102364D01*
X517012Y132364D01*
G37*
G36*
X-873638Y-731236D02*
X-843638Y-731236D01*
X-843638Y-761236D01*
X-873638Y-761236D01*
X-873638Y-731236D01*
G37*
G36*
X-445888Y-90836D02*
X-415888Y-90836D01*
X-415888Y-120836D01*
X-445888Y-120836D01*
X-445888Y-90836D01*
G37*
G36*
X-206888Y-731236D02*
X-176888Y-731236D01*
X-176888Y-761236D01*
X-206888Y-761236D01*
X-206888Y-731236D01*
G37*
G36*
X-206888Y81564D02*
X-176888Y81564D01*
X-176888Y51564D01*
X-206888Y51564D01*
X-206888Y81564D01*
G37*
G36*
X-876813Y-343886D02*
X-846813Y-343886D01*
X-846813Y-373886D01*
X-876813Y-373886D01*
X-876813Y-343886D01*
G37*
X201014Y51312D02*
G54D37*
D03*
X302614Y51312D02*
G54D37*
D03*
X229755Y94937D02*
G54D32*
D03*
X280736Y95049D02*
G54D32*
D03*
X229755Y94937D02*
G54D32*
D03*
X201014Y51312D02*
G54D32*
D03*
G54D39*
X280736Y95049D02*
X281667Y92748D01*
X300717Y73698D01*
X300717Y48298D01*
X302614Y51312D01*
G54D39*
X302614Y51312D02*
X302614Y8298D01*
X362805Y-59584D01*
G54D39*
X-822848Y-15266D02*
X-829198Y-15266D01*
X-873648Y29184D01*
X-873648Y79984D01*
G54D39*
X-873648Y79984D02*
X-848248Y79984D01*
X-822848Y105384D01*
X-570361Y96162D01*
X-500361Y86162D01*
X-440361Y96162D01*
X-310361Y106162D01*
X193152Y105384D01*
X218552Y130784D01*
G54D39*
X218552Y130784D02*
X243952Y130784D01*
X269352Y105384D01*
G36*
X-876813Y135539D02*
X-846813Y135539D01*
X-846813Y105539D01*
X-876813Y105539D01*
X-876813Y135539D01*
G37*
G36*
X513837Y-401036D02*
X543837Y-401036D01*
X543837Y-431036D01*
X513837Y-431036D01*
X513837Y-401036D01*
G37*
G54D35*
X-531229Y-252288D02*
X-544314Y-306623D01*
X-524375Y-241439D01*
X-460875Y-241439D01*
G54D25*
X-516333Y-720874D02*
X-511325Y-717506D01*
X-549425Y-717506D01*
X-552873Y-722060D01*
X-320825Y82594D02*
G54D40*
D03*
X-371625Y-749256D02*
G54D40*
D03*
G54D25*
X-371625Y-749256D02*
X-371625Y-755606D01*
X-358925Y-742906D01*
X-358925Y-717506D01*
X-363933Y-714524D01*
G54D25*
X-320825Y82594D02*
X-333525Y69894D01*
X-333525Y57194D01*
X-338533Y51486D01*
X477688Y-309518D02*
G54D40*
D03*
G54D25*
X477688Y-309518D02*
X477688Y-322846D01*
X451048Y-349486D01*
X-861814Y-668573D02*
G54D41*
D03*
X-868164Y-71673D02*
G54D41*
D03*
X528836Y-655873D02*
G54D41*
D03*
X528836Y29927D02*
G54D41*
D03*
X-544314Y-306623D02*
G54D31*
D03*
X-664964Y-303449D02*
G54D31*
D03*
X-544314Y-185973D02*
G54D31*
D03*
X-664964Y-185973D02*
G54D31*
D03*
X-684173Y-246298D02*
G54D31*
D03*
X-664964Y-303449D02*
G54D32*
D03*
G54D19*
X-619648Y-396266D02*
X-606948Y-396266D01*
X-594248Y-383566D01*
G54D19*
X-543448Y-383566D02*
X-543448Y-350207D01*
X-541139Y-347898D01*
X-715764Y-347898D01*
X-725289Y-338373D01*
X-725289Y-246298D01*
X-718939Y-239948D01*
X-682426Y-239948D01*
X-684173Y-246298D01*
X242155Y-56410D02*
G54D31*
D03*
X362805Y-59584D02*
G54D31*
D03*
X242155Y-177060D02*
G54D31*
D03*
X362805Y-177060D02*
G54D31*
D03*
X378918Y-116735D02*
G54D31*
D03*
G54D36*
X451048Y-349486D02*
X451048Y-292336D01*
X420886Y-262173D01*
X312936Y-262173D01*
X297061Y-246298D01*
X297061Y-55798D01*
X303411Y-49448D01*
X249117Y-49448D01*
X242155Y-56410D01*
G54D36*
X378918Y-116735D02*
X448550Y-59585D01*
X516918Y-64242D01*
X362805Y-177060D02*
G54D32*
D03*
G54D39*
X-797448Y-15266D02*
X-797195Y-19584D01*
X-767195Y-49584D01*
X-627195Y-49584D01*
X-631222Y-53175D01*
G54D39*
X-702369Y-114317D02*
X-707195Y-109584D01*
X-727195Y-89584D01*
X-777195Y-89584D01*
X-776705Y-86827D01*
G54D39*
X-760771Y-104443D02*
X-757195Y-99584D01*
X-757195Y-169584D01*
X-756012Y-172119D01*
X-286012Y-33719D02*
G54D37*
D03*
X-286012Y67881D02*
G54D37*
D03*
X-296012Y-723719D02*
G54D37*
D03*
X-296012Y-622119D02*
G54D37*
D03*
X441048Y-279486D02*
G54D32*
D03*
X0Y0D02*
G54D32*
D03*
X0Y-70000D02*
G54D32*
D03*
X-64661Y-673838D02*
G54D32*
D03*
X-64661Y-733838D02*
G54D32*
D03*
G54D33*
X0Y-70000D02*
X-4661Y-73838D01*
X-14661Y-83838D01*
X-14661Y-213838D01*
X-14661Y-210138D01*
G54D25*
X0Y0D02*
X-4661Y-3838D01*
X-4661Y46162D01*
X-2061Y43868D01*
G54D25*
X-64661Y-733838D02*
X-34661Y-763838D01*
X25339Y-763838D01*
X27939Y-760832D01*
G54D33*
X-64661Y-673838D02*
X-14661Y-623838D01*
X-14661Y-603838D01*
X-749961Y31562D02*
G54D32*
D03*
X-749961Y-25588D02*
G54D32*
D03*
X-699961Y-25588D02*
G54D32*
D03*
X-644961Y-664238D02*
G54D32*
D03*
X-644961Y-607088D02*
G54D32*
D03*
X-644961Y-607088D02*
G54D32*
D03*
X-519961Y26562D02*
G54D32*
D03*
X-519961Y-30588D02*
G54D32*
D03*
X-519961Y-30588D02*
G54D32*
D03*
X-470933Y117835D02*
G54D32*
D03*
X-470820Y66855D02*
G54D32*
D03*
X-460615Y-755422D02*
G54D32*
D03*
X-511595Y-755309D02*
G54D32*
D03*
X-511595Y-755309D02*
G54D32*
D03*
X-511595Y-755309D02*
G54D32*
D03*
X-524961Y-664238D02*
G54D32*
D03*
X-524961Y-607088D02*
G54D32*
D03*
X-524961Y-607088D02*
G54D32*
D03*
G54D25*
X-644961Y-664238D02*
X-640361Y-663838D01*
X-600361Y-703838D01*
X-600361Y-723838D01*
X-603672Y-722060D01*
G54D25*
X-524961Y-664238D02*
X-520361Y-663838D01*
X-550361Y-693838D01*
X-550361Y-723838D01*
X-552873Y-722060D01*
G54D25*
X-519961Y26562D02*
X-520361Y26162D01*
X-550361Y56162D01*
X-552873Y59022D01*
X-470933Y117835D02*
G54D32*
D03*
X-749961Y-25588D02*
G54D32*
D03*
M02*
