%FSLAX34Y34*%
%MOMM*%
%LNSILK_TOP*%
G71*
G01*
%ADD10C,0.150*%
%ADD11C,0.144*%
%ADD12C,0.167*%
%ADD13C,0.111*%
%ADD14C,0.222*%
%ADD15C,0.444*%
%ADD16C,0.400*%
%ADD17C,0.200*%
%ADD18C,0.500*%
%ADD19C,0.300*%
%LPD*%
G54D10*
X-151044Y-171381D02*
X-49444Y-171381D01*
X-49444Y-272981D01*
X-151044Y-272981D01*
X-151044Y-171381D01*
G54D11*
X-151794Y-144631D02*
X-151794Y-144631D01*
G54D11*
X-151794Y-164131D02*
X-151794Y-164131D01*
G54D12*
X397557Y-556834D02*
X399224Y-557834D01*
X400057Y-559834D01*
X400057Y-561834D01*
X399224Y-563834D01*
X397557Y-564834D01*
X389224Y-564834D01*
X387557Y-563834D01*
X386724Y-561834D01*
X386724Y-559834D01*
X387557Y-557834D01*
X389224Y-556834D01*
G54D12*
X400057Y-547166D02*
X386724Y-547166D01*
X395057Y-553166D01*
X396724Y-553166D01*
X396724Y-545166D01*
G54D13*
X450597Y-72299D02*
X450597Y-69632D01*
X453374Y-69632D01*
X454486Y-70299D01*
X455041Y-71632D01*
X455041Y-72965D01*
X454485Y-74299D01*
X453374Y-74965D01*
X447819Y-74965D01*
X446708Y-74299D01*
X446152Y-72965D01*
X446152Y-71632D01*
X446708Y-70299D01*
X447819Y-69632D01*
G54D13*
X493141Y-74966D02*
X484252Y-74965D01*
X484252Y-71632D01*
X484808Y-70299D01*
X485919Y-69632D01*
X491474Y-69632D01*
X492586Y-70299D01*
X493141Y-71632D01*
X493141Y-74966D01*
G54D13*
X529574Y-74965D02*
X530685Y-74299D01*
X531241Y-72965D01*
X531241Y-71632D01*
X530685Y-70299D01*
X529574Y-69632D01*
X528463Y-69632D01*
X527352Y-70299D01*
X526797Y-71632D01*
X526797Y-72965D01*
X526241Y-74299D01*
X525130Y-74965D01*
X524019Y-74965D01*
X522908Y-74299D01*
X522352Y-72965D01*
X522352Y-71632D01*
X522908Y-70299D01*
X524019Y-69632D01*
G54D14*
X496676Y173431D02*
X496676Y191209D01*
G54D14*
X491342Y191209D02*
X502009Y191209D01*
G54D14*
X512232Y182320D02*
X516232Y180098D01*
X517565Y177876D01*
X517565Y173431D01*
G54D14*
X506898Y173432D02*
X506898Y191209D01*
X513565Y191209D01*
X516232Y190098D01*
X517565Y187876D01*
X517565Y185654D01*
X516232Y183431D01*
X513565Y182320D01*
X506898Y182320D01*
G54D14*
X522454Y184543D02*
X529121Y191209D01*
X529121Y173431D01*
G54D15*
X-144469Y-318788D02*
X-144469Y-354344D01*
X-132024Y-354344D01*
G54D15*
X-122247Y-354344D02*
X-122247Y-318788D01*
G54D15*
X-112469Y-354344D02*
X-112469Y-318788D01*
X-98246Y-354344D01*
X-98246Y-318788D01*
G54D15*
X-76024Y-354344D02*
X-88469Y-354344D01*
X-88469Y-318788D01*
X-76024Y-318788D01*
G54D15*
X-88469Y-336566D02*
X-76024Y-336566D01*
G54D15*
X-66247Y-354344D02*
X-57358Y-318788D01*
X-48469Y-354344D01*
G54D15*
X-62691Y-341010D02*
X-52024Y-341010D01*
G54D15*
X-31580Y-336566D02*
X-26246Y-341010D01*
X-24468Y-345455D01*
X-24468Y-354344D01*
G54D15*
X-38691Y-354344D02*
X-38691Y-318788D01*
X-29802Y-318788D01*
X-26246Y-321010D01*
X-24468Y-325455D01*
X-24468Y-329899D01*
X-26246Y-334344D01*
X-29802Y-336566D01*
X-38691Y-336566D01*
G54D15*
X-4557Y-354344D02*
X4332Y-318788D01*
X13221Y-354344D01*
G54D15*
X-1001Y-341010D02*
X9666Y-341010D01*
G54D15*
X22999Y-354344D02*
X22999Y-318788D01*
X31888Y-341010D01*
X40777Y-318788D01*
X40777Y-354344D01*
G54D15*
X50555Y-354344D02*
X50555Y-318788D01*
X59444Y-318788D01*
X63000Y-321010D01*
X64778Y-325455D01*
X64778Y-329899D01*
X63000Y-334344D01*
X59444Y-336566D01*
X50555Y-336566D01*
G54D15*
X74555Y-318788D02*
X74555Y-354344D01*
X87000Y-354344D01*
G54D15*
X96777Y-354344D02*
X96777Y-318788D01*
G54D15*
X106555Y-354344D02*
X106555Y-318788D01*
X119000Y-318788D01*
G54D15*
X106555Y-336566D02*
X119000Y-336566D01*
G54D15*
X128777Y-354344D02*
X128777Y-318788D01*
G54D15*
X151000Y-354344D02*
X138555Y-354344D01*
X138555Y-318788D01*
X151000Y-318788D01*
G54D15*
X138555Y-336566D02*
X151000Y-336566D01*
G54D15*
X167888Y-336566D02*
X173222Y-341010D01*
X175000Y-345455D01*
X175000Y-354344D01*
G54D15*
X160777Y-354344D02*
X160777Y-318788D01*
X169666Y-318788D01*
X173222Y-321010D01*
X175000Y-325455D01*
X175000Y-329899D01*
X173222Y-334344D01*
X169666Y-336566D01*
X160777Y-336566D01*
G54D14*
X1168179Y173174D02*
X1168179Y162063D01*
X1166845Y159841D01*
X1164179Y158730D01*
X1161512Y158730D01*
X1158845Y159841D01*
X1157512Y162063D01*
X1157512Y173174D01*
X1158845Y175397D01*
X1161512Y176508D01*
X1164179Y176508D01*
X1166846Y175396D01*
X1168179Y173174D01*
G54D14*
X1173068Y176508D02*
X1173068Y162063D01*
X1174401Y159841D01*
X1177068Y158730D01*
X1179735Y158730D01*
X1182401Y159841D01*
X1183735Y162063D01*
X1183735Y176508D01*
G54D14*
X1193957Y158730D02*
X1193957Y176508D01*
G54D14*
X1188624Y176508D02*
X1199291Y176508D01*
G54D12*
X347353Y-497334D02*
X349020Y-494334D01*
X350686Y-493334D01*
X354020Y-493334D01*
G54D12*
X354020Y-501334D02*
X340686Y-501334D01*
X340686Y-496334D01*
X341520Y-494334D01*
X343186Y-493334D01*
X344853Y-493334D01*
X346520Y-494334D01*
X347353Y-496334D01*
X347353Y-501334D01*
G54D12*
X354020Y-483666D02*
X340686Y-483666D01*
X349020Y-489666D01*
X350686Y-489666D01*
X350686Y-481666D01*
G54D16*
X326500Y-288900D02*
X413812Y-288900D01*
X413812Y-355575D01*
X326500Y-355575D01*
X326500Y-288900D01*
G54D10*
G75*
G01X295474Y209957D02*
G03X295474Y209957I-38100J0D01*
G01*
G54D10*
X339264Y247674D02*
X313864Y247674D01*
X313864Y176074D01*
X339264Y176074D01*
X339264Y247674D01*
G54D16*
X332056Y52809D02*
X419369Y52809D01*
X419369Y119484D01*
X332056Y119484D01*
X332056Y52809D01*
G54D12*
X369773Y95700D02*
X369773Y82367D01*
X376773Y82367D01*
G54D12*
X380440Y90700D02*
X385440Y95700D01*
X385440Y82367D01*
G54D12*
X360535Y-318098D02*
X360535Y-331431D01*
X367535Y-331431D01*
G54D12*
X379202Y-331431D02*
X371202Y-331431D01*
X371202Y-330598D01*
X372202Y-328931D01*
X378202Y-323931D01*
X379202Y-322264D01*
X379202Y-320598D01*
X378202Y-318931D01*
X376202Y-318098D01*
X374202Y-318098D01*
X372202Y-318931D01*
X371202Y-320598D01*
G54D16*
X234890Y-158261D02*
X234890Y-102698D01*
X388877Y-102698D01*
X388877Y-158261D01*
X234890Y-158261D01*
G54D12*
X303042Y-143032D02*
X303042Y-129699D01*
G54D12*
X299042Y-129699D02*
X307042Y-129699D01*
G54D12*
X310709Y-134699D02*
X315709Y-129699D01*
X315709Y-143032D01*
G54D16*
X246952Y-23716D02*
X246952Y-88804D01*
X208852Y-88804D01*
X208852Y-23716D01*
X246952Y-23716D01*
G54D12*
X230265Y3704D02*
X216932Y3704D01*
X216932Y-3296D01*
G54D12*
X227765Y-6962D02*
X229432Y-7962D01*
X230265Y-9962D01*
X230265Y-11962D01*
X229432Y-13962D01*
X227765Y-14962D01*
X226099Y-14962D01*
X224432Y-13962D01*
X223599Y-11962D01*
X222765Y-13962D01*
X221099Y-14962D01*
X219432Y-14962D01*
X217765Y-13962D01*
X216932Y-11962D01*
X216932Y-9962D01*
X217765Y-7962D01*
X219432Y-6962D01*
G54D10*
X322514Y-6641D02*
X322514Y18760D01*
X394114Y18759D01*
X394114Y-6641D01*
X322514Y-6641D01*
G54D10*
X316163Y-247940D02*
X316163Y-222540D01*
X387764Y-222540D01*
X387763Y-247940D01*
X316163Y-247940D01*
G54D14*
X653859Y-295557D02*
X653859Y-277780D01*
G54D14*
X648526Y-277780D02*
X659193Y-277780D01*
G54D14*
X674749Y-295557D02*
X664082Y-295557D01*
X664082Y-294446D01*
X665415Y-292224D01*
X673415Y-285557D01*
X674749Y-283335D01*
X674749Y-281113D01*
X673415Y-278891D01*
X670749Y-277780D01*
X668082Y-277780D01*
X665415Y-278891D01*
X664082Y-281113D01*
G54D13*
X447422Y-386624D02*
X447422Y-383957D01*
X450199Y-383957D01*
X451310Y-384624D01*
X451866Y-385957D01*
X451866Y-387290D01*
X451310Y-388624D01*
X450199Y-389290D01*
X444644Y-389290D01*
X443533Y-388624D01*
X442977Y-387290D01*
X442977Y-385957D01*
X443533Y-384624D01*
X444644Y-383957D01*
G54D13*
X489966Y-389290D02*
X481077Y-389290D01*
X481077Y-385957D01*
X481632Y-384624D01*
X482744Y-383957D01*
X488299Y-383957D01*
X489410Y-384624D01*
X489966Y-385957D01*
X489966Y-389290D01*
G54D13*
X526399Y-389290D02*
X527510Y-388624D01*
X528066Y-387290D01*
X528066Y-385957D01*
X527510Y-384624D01*
X526399Y-383957D01*
X525288Y-383957D01*
X524177Y-384624D01*
X523622Y-385957D01*
X523622Y-387290D01*
X523066Y-388624D01*
X521955Y-389290D01*
X520844Y-389290D01*
X519732Y-388624D01*
X519177Y-387290D01*
X519177Y-385957D01*
X519733Y-384624D01*
X520844Y-383957D01*
G54D16*
X815975Y-330200D02*
X1081088Y-330200D01*
X1081088Y-127000D01*
X815975Y-127000D01*
X815975Y-330200D01*
G54D16*
X819150Y-184150D02*
X1079500Y-184150D01*
X1079500Y-130175D01*
X819150Y-130175D01*
X819150Y-184150D01*
G54D16*
X819150Y-330200D02*
X1079500Y-330200D01*
X1079500Y-276225D01*
X819150Y-276225D01*
X819150Y-330200D01*
G54D12*
X629046Y-274638D02*
X634046Y-279638D01*
X620712Y-279638D01*
G54D12*
X711200Y-201675D02*
X711200Y-193675D01*
X712033Y-193675D01*
X713700Y-194675D01*
X718700Y-200675D01*
X720367Y-201675D01*
X722033Y-201675D01*
X723700Y-200675D01*
X724533Y-198675D01*
X724533Y-196675D01*
X723700Y-194675D01*
X722033Y-193675D01*
G54D12*
X596900Y-202850D02*
X610233Y-202850D01*
X601900Y-196850D01*
X600233Y-196850D01*
X600233Y-204850D01*
G54D12*
X722033Y-250825D02*
X723700Y-251825D01*
X724533Y-253825D01*
X724533Y-255825D01*
X723700Y-257825D01*
X722033Y-258825D01*
X720367Y-258825D01*
X718700Y-257825D01*
X717867Y-255825D01*
X717033Y-257825D01*
X715367Y-258825D01*
X713700Y-258825D01*
X712033Y-257825D01*
X711200Y-255825D01*
X711200Y-253825D01*
X712033Y-251825D01*
X713700Y-250825D01*
G54D10*
X779002Y-261515D02*
X753601Y-261515D01*
X753602Y-189915D01*
X779002Y-189915D01*
X779002Y-261515D01*
G54D14*
X650303Y-435487D02*
X660970Y-435487D01*
G54D14*
X655636Y-431043D02*
X655636Y-439932D01*
G54D14*
X764603Y-435487D02*
X775270Y-435487D01*
G54D14*
X769936Y-431043D02*
X769936Y-439932D01*
G54D14*
X650303Y-41787D02*
X660970Y-41787D01*
G54D14*
X655636Y-37343D02*
X655636Y-46232D01*
G54D14*
X764603Y-41787D02*
X775270Y-41787D01*
G54D14*
X769936Y-37343D02*
X769936Y-46232D01*
G54D17*
X638184Y256093D02*
X647784Y256093D01*
G54D17*
X642984Y260093D02*
X642984Y252093D01*
G54D17*
X652184Y265093D02*
X658184Y249093D01*
X664184Y265093D01*
G54D10*
X701174Y242529D02*
X701174Y217128D01*
X650374Y217129D01*
X650374Y242529D01*
X701174Y242529D01*
G54D17*
X713963Y244203D02*
X713963Y237853D01*
G54D17*
X721901Y237853D02*
X706026Y237853D01*
G54D17*
X708407Y234678D02*
X719519Y234678D01*
G54D17*
X716344Y231503D02*
X711582Y231503D01*
G54D17*
X675484Y-544807D02*
X685084Y-544807D01*
G54D17*
X680284Y-540807D02*
X680284Y-548807D01*
G54D17*
X689484Y-535807D02*
X695484Y-551807D01*
X701484Y-535807D01*
G54D10*
X731174Y-562172D02*
X731174Y-587572D01*
X680374Y-587571D01*
X680374Y-562171D01*
X731174Y-562172D01*
G54D17*
X751263Y-576697D02*
X751263Y-583047D01*
G54D17*
X759201Y-583047D02*
X743326Y-583047D01*
G54D17*
X745707Y-586222D02*
X756819Y-586222D01*
G54D17*
X753644Y-589397D02*
X748882Y-589397D01*
G54D10*
G75*
G01X270074Y-501049D02*
G03X270074Y-501049I-38100J0D01*
G01*
G54D10*
X313864Y-538766D02*
X288464Y-538766D01*
X288464Y-467166D01*
X313864Y-467166D01*
X313864Y-538766D01*
G54D17*
X-98416Y278793D02*
X-88816Y278793D01*
G54D17*
X-93616Y282793D02*
X-93616Y274793D01*
G54D17*
X-84416Y287793D02*
X-78416Y271793D01*
X-72416Y287793D01*
G54D17*
X-68016Y271793D02*
X-68016Y287793D01*
X-62016Y287793D01*
X-59616Y286793D01*
X-58416Y284793D01*
X-58416Y282793D01*
X-59616Y280793D01*
X-62016Y279793D01*
X-59616Y278793D01*
X-58416Y276793D01*
X-58416Y274793D01*
X-59616Y272793D01*
X-62016Y271793D01*
X-68016Y271793D01*
G54D17*
X-68016Y279793D02*
X-62016Y279793D01*
G54D17*
X-54016Y271793D02*
X-54016Y287793D01*
G54D17*
X-49616Y271793D02*
X-43616Y287793D01*
X-37616Y271793D01*
G54D17*
X-47216Y277793D02*
X-40016Y277793D01*
G54D17*
X-33216Y274793D02*
X-32016Y272793D01*
X-29616Y271793D01*
X-27216Y271793D01*
X-24816Y272793D01*
X-23616Y274793D01*
X-23616Y276793D01*
X-24816Y278793D01*
X-27216Y279793D01*
X-29616Y279793D01*
X-32016Y280793D01*
X-33216Y282793D01*
X-33216Y284793D01*
X-32016Y286793D01*
X-29616Y287793D01*
X-27216Y287793D01*
X-24816Y286793D01*
X-23616Y284793D01*
G54D10*
X2674Y255229D02*
X2674Y229828D01*
X-48126Y229829D01*
X-48126Y255229D01*
X2674Y255229D01*
G54D17*
X72Y288182D02*
X73Y281832D01*
G54D17*
X8010Y281832D02*
X-7865Y281832D01*
G54D17*
X-5484Y278657D02*
X5629Y278657D01*
G54D17*
X2454Y275482D02*
X-2308Y275482D01*
G54D17*
X-98416Y-572108D02*
X-88816Y-572108D01*
G54D17*
X-93616Y-568108D02*
X-93616Y-576108D01*
G54D17*
X-84416Y-563108D02*
X-78416Y-579108D01*
X-72416Y-563108D01*
G54D17*
X-68016Y-579108D02*
X-68016Y-563108D01*
X-62016Y-563108D01*
X-59616Y-564108D01*
X-58416Y-566108D01*
X-58416Y-568108D01*
X-59616Y-570108D01*
X-62016Y-571108D01*
X-59616Y-572108D01*
X-58416Y-574108D01*
X-58416Y-576108D01*
X-59616Y-578108D01*
X-62016Y-579108D01*
X-68016Y-579108D01*
G54D17*
X-68016Y-571108D02*
X-62016Y-571108D01*
G54D17*
X-54016Y-579108D02*
X-54016Y-563108D01*
G54D17*
X-49616Y-579108D02*
X-43616Y-563108D01*
X-37616Y-579108D01*
G54D17*
X-47216Y-573108D02*
X-40016Y-573108D01*
G54D17*
X-33216Y-576108D02*
X-32016Y-578108D01*
X-29616Y-579108D01*
X-27216Y-579108D01*
X-24816Y-578108D01*
X-23616Y-576108D01*
X-23616Y-574108D01*
X-24816Y-572108D01*
X-27216Y-571108D01*
X-29616Y-571108D01*
X-32016Y-570108D01*
X-33216Y-568108D01*
X-33216Y-566108D01*
X-32016Y-564108D01*
X-29616Y-563108D01*
X-27216Y-563108D01*
X-24816Y-564108D01*
X-23616Y-566108D01*
G54D10*
X2674Y-519472D02*
X2674Y-544872D01*
X-48126Y-544871D01*
X-48126Y-519471D01*
X2674Y-519472D01*
G54D17*
X-7237Y-563997D02*
X-7237Y-570347D01*
G54D17*
X701Y-570347D02*
X-15174Y-570347D01*
G54D17*
X-12793Y-573522D02*
X-1681Y-573522D01*
G54D17*
X-4856Y-576697D02*
X-9618Y-576697D01*
G54D10*
X-77348Y-75046D02*
X-104748Y-75046D01*
X-104748Y1154D01*
X-77348Y1154D01*
X-77348Y-75046D01*
G54D10*
X-104748Y-5146D02*
X-77348Y-5146D01*
G54D10*
X-147506Y-69220D02*
X-122106Y-69220D01*
X-122106Y2380D01*
X-147506Y2380D01*
X-147506Y-69220D01*
G54D12*
X-77982Y-29264D02*
X-91315Y-29264D01*
X-91315Y-36264D01*
G54D12*
X-82982Y-39931D02*
X-77982Y-44931D01*
X-91315Y-44931D01*
G54D10*
X-95141Y124521D02*
X-87141Y124521D01*
X-87141Y73795D01*
X-95141Y73795D01*
G54D10*
G75*
G01X-95103Y124651D02*
G03X-95103Y73651I0J-25500D01*
G01*
G54D10*
X-50238Y61441D02*
X-24838Y61441D01*
X-24838Y133041D01*
X-50238Y133041D01*
X-50238Y61441D01*
G54D12*
X-16947Y106064D02*
X-18613Y107064D01*
X-19447Y109064D01*
X-19447Y111064D01*
X-18613Y113064D01*
X-16947Y114064D01*
X-8613Y114064D01*
X-6947Y113064D01*
X-6113Y111064D01*
X-6113Y109064D01*
X-6947Y107064D01*
X-8613Y106064D01*
G54D12*
X-11113Y102398D02*
X-6113Y97398D01*
X-19447Y97398D01*
G54D12*
X-19447Y87730D02*
X-6113Y87730D01*
X-14447Y93730D01*
X-16113Y93730D01*
X-16113Y85730D01*
G54D10*
X44839Y69344D02*
X22664Y69344D01*
X22664Y120044D01*
X44839Y120044D01*
X44839Y69344D01*
G54D10*
X33751Y69144D02*
X33751Y61244D01*
G54D10*
X33751Y120144D02*
X33751Y128044D01*
G54D10*
X108339Y69344D02*
X86164Y69344D01*
X86164Y120044D01*
X108338Y120044D01*
X108339Y69344D01*
G54D10*
X97251Y69144D02*
X97251Y61244D01*
G54D10*
X97251Y120144D02*
X97251Y128044D01*
G54D18*
X70716Y-197593D02*
X121516Y-197593D01*
G54D18*
X1227682Y20131D02*
X1126082Y20131D01*
X1126082Y147131D01*
X1227682Y147131D01*
X1227682Y20131D01*
G54D14*
X-208684Y221507D02*
X-208684Y239285D01*
X-202017Y239285D01*
X-199351Y238174D01*
X-198017Y235951D01*
X-198017Y233729D01*
X-199351Y231507D01*
X-202017Y230396D01*
X-208684Y230396D01*
G54D14*
X-187795Y221507D02*
X-187795Y239285D01*
G54D14*
X-193128Y239285D02*
X-182461Y239285D01*
G54D14*
X-172239Y221507D02*
X-172239Y239285D01*
G54D14*
X-177572Y239285D02*
X-166905Y239285D01*
G54D14*
X386176Y-204068D02*
X386176Y-186291D01*
G54D14*
X380842Y-186291D02*
X391509Y-186291D01*
G54D14*
X401732Y-195180D02*
X405732Y-197402D01*
X407065Y-199624D01*
X407065Y-204068D01*
G54D14*
X396398Y-204068D02*
X396398Y-186291D01*
X403065Y-186291D01*
X405732Y-187402D01*
X407065Y-189624D01*
X407065Y-191846D01*
X405732Y-194068D01*
X403065Y-195180D01*
X396398Y-195180D01*
G54D14*
X422621Y-204068D02*
X411954Y-204068D01*
X411954Y-202957D01*
X413288Y-200735D01*
X421288Y-194068D01*
X422621Y-191846D01*
X422621Y-189624D01*
X421288Y-187402D01*
X418621Y-186291D01*
X415954Y-186291D01*
X413288Y-187402D01*
X411954Y-189624D01*
G54D14*
X781916Y-326182D02*
X788583Y-319515D01*
X788583Y-337293D01*
G54D14*
X792583Y-134093D02*
X781916Y-134093D01*
X781916Y-132982D01*
X783249Y-130760D01*
X791249Y-124093D01*
X792583Y-121871D01*
X792583Y-119648D01*
X791249Y-117426D01*
X788583Y-116315D01*
X785916Y-116315D01*
X783249Y-117426D01*
X781916Y-119648D01*
G54D14*
X1112116Y-322848D02*
X1113449Y-320626D01*
X1116116Y-319515D01*
X1118783Y-319515D01*
X1121449Y-320626D01*
X1122783Y-322848D01*
X1122783Y-325071D01*
X1121449Y-327293D01*
X1118783Y-328404D01*
X1121449Y-329515D01*
X1122783Y-331738D01*
X1122783Y-333960D01*
X1121449Y-336182D01*
X1118783Y-337293D01*
X1116116Y-337293D01*
X1113449Y-336182D01*
X1112116Y-333960D01*
G54D14*
X1117416Y-210293D02*
X1117416Y-192515D01*
X1109416Y-203626D01*
X1109416Y-205848D01*
X1120083Y-205848D01*
G54D14*
X933259Y-244757D02*
X933259Y-226980D01*
G54D14*
X927926Y-226980D02*
X938593Y-226980D01*
G54D14*
X943482Y-230313D02*
X944815Y-228091D01*
X947482Y-226980D01*
X950149Y-226980D01*
X952815Y-228091D01*
X954149Y-230313D01*
X954149Y-232535D01*
X952815Y-234757D01*
X950149Y-235868D01*
X952815Y-236980D01*
X954149Y-239202D01*
X954149Y-241424D01*
X952815Y-243646D01*
X950149Y-244757D01*
X947482Y-244757D01*
X944815Y-243646D01*
X943482Y-241424D01*
G54D13*
X286616Y-115838D02*
X289949Y-112504D01*
X289949Y-121393D01*
G54D13*
X286616Y-139571D02*
X287283Y-138460D01*
X288616Y-137904D01*
X289949Y-137904D01*
X291283Y-138460D01*
X291949Y-139571D01*
X291949Y-140682D01*
X291283Y-141793D01*
X289949Y-142348D01*
X291283Y-142904D01*
X291949Y-144015D01*
X291949Y-145126D01*
X291283Y-146238D01*
X289949Y-146793D01*
X288616Y-146793D01*
X287283Y-146238D01*
X286616Y-145126D01*
G54D13*
X342749Y-121393D02*
X337416Y-121393D01*
X337416Y-120838D01*
X338083Y-119726D01*
X342083Y-116393D01*
X342749Y-115282D01*
X342749Y-114171D01*
X342083Y-113060D01*
X340749Y-112504D01*
X339416Y-112504D01*
X338083Y-113060D01*
X337416Y-114171D01*
G54D13*
X341416Y-146793D02*
X341416Y-137904D01*
X337416Y-143460D01*
X337416Y-144571D01*
X342749Y-144571D01*
G54D12*
X157616Y304807D02*
X156616Y303140D01*
X154616Y302307D01*
X152616Y302307D01*
X150616Y303140D01*
X149616Y304807D01*
X149616Y313140D01*
X150616Y314807D01*
X152616Y315640D01*
X154616Y315640D01*
X156616Y314807D01*
X157616Y313140D01*
G54D12*
X161283Y313140D02*
X162283Y314807D01*
X164283Y315640D01*
X166283Y315640D01*
X168283Y314807D01*
X169283Y313140D01*
X169283Y311474D01*
X168283Y309807D01*
X166283Y308974D01*
X168283Y308140D01*
X169283Y306474D01*
X169283Y304807D01*
X168283Y303140D01*
X166283Y302307D01*
X164283Y302307D01*
X162283Y303140D01*
X161283Y304807D01*
G54D12*
X252516Y202774D02*
X255516Y201107D01*
X256516Y199440D01*
X256516Y196107D01*
G54D12*
X248516Y196107D02*
X248516Y209440D01*
X253516Y209440D01*
X255516Y208607D01*
X256516Y206940D01*
X256516Y205274D01*
X255516Y203607D01*
X253516Y202774D01*
X248516Y202774D01*
G54D12*
X260183Y204440D02*
X265183Y209440D01*
X265183Y196107D01*
G54D12*
X320016Y262107D02*
X319016Y260440D01*
X317016Y259607D01*
X315016Y259607D01*
X313016Y260440D01*
X312016Y262107D01*
X312016Y270440D01*
X313016Y272107D01*
X315016Y272940D01*
X317016Y272940D01*
X319016Y272107D01*
X320016Y270440D01*
G54D12*
X331683Y272940D02*
X323683Y272940D01*
X323683Y267107D01*
X324683Y267107D01*
X326683Y267940D01*
X328683Y267940D01*
X330683Y267107D01*
X331683Y265440D01*
X331683Y262107D01*
X330683Y260440D01*
X328683Y259607D01*
X326683Y259607D01*
X324683Y260440D01*
X323683Y262107D01*
G54D12*
X406816Y216274D02*
X409816Y214607D01*
X410816Y212940D01*
X410816Y209607D01*
G54D12*
X402816Y209607D02*
X402816Y222940D01*
X407816Y222940D01*
X409816Y222107D01*
X410816Y220440D01*
X410816Y218774D01*
X409816Y217107D01*
X407816Y216274D01*
X402816Y216274D01*
G54D12*
X414483Y220440D02*
X415483Y222107D01*
X417483Y222940D01*
X419483Y222940D01*
X421483Y222107D01*
X422483Y220440D01*
X422483Y218774D01*
X421483Y217107D01*
X419483Y216274D01*
X421483Y215440D01*
X422483Y213774D01*
X422483Y212107D01*
X421483Y210440D01*
X419483Y209607D01*
X417483Y209607D01*
X415483Y210440D01*
X414483Y212107D01*
G54D12*
X307316Y20807D02*
X306316Y19140D01*
X304316Y18307D01*
X302316Y18307D01*
X300316Y19140D01*
X299316Y20807D01*
X299316Y29140D01*
X300316Y30807D01*
X302316Y31640D01*
X304316Y31640D01*
X306316Y30807D01*
X307316Y29140D01*
G54D12*
X310983Y26640D02*
X315983Y31640D01*
X315983Y18307D01*
G54D12*
X234916Y-591393D02*
X233916Y-593060D01*
X231916Y-593893D01*
X229916Y-593893D01*
X227916Y-593060D01*
X226916Y-591393D01*
X226916Y-583060D01*
X227916Y-581393D01*
X229916Y-580560D01*
X231916Y-580560D01*
X233916Y-581393D01*
X234916Y-583060D01*
G54D12*
X244583Y-593893D02*
X244583Y-580560D01*
X238583Y-588893D01*
X238583Y-590560D01*
X246583Y-590560D01*
G54D12*
X227116Y-483026D02*
X230116Y-484693D01*
X231116Y-486360D01*
X231116Y-489693D01*
G54D12*
X223116Y-489693D02*
X223116Y-476360D01*
X228116Y-476360D01*
X230116Y-477193D01*
X231116Y-478860D01*
X231116Y-480526D01*
X230116Y-482193D01*
X228116Y-483026D01*
X223116Y-483026D01*
G54D12*
X242783Y-489693D02*
X234783Y-489693D01*
X234783Y-488860D01*
X235783Y-487193D01*
X241783Y-482193D01*
X242783Y-480526D01*
X242783Y-478860D01*
X241783Y-477193D01*
X239783Y-476360D01*
X237783Y-476360D01*
X235783Y-477193D01*
X234783Y-478860D01*
G54D12*
X307316Y-436393D02*
X306316Y-438060D01*
X304316Y-438893D01*
X302316Y-438893D01*
X300316Y-438060D01*
X299316Y-436393D01*
X299316Y-428060D01*
X300316Y-426393D01*
X302316Y-425560D01*
X304316Y-425560D01*
X306316Y-426393D01*
X307316Y-428060D01*
G54D12*
X318983Y-428060D02*
X317983Y-426393D01*
X315983Y-425560D01*
X313983Y-425560D01*
X311983Y-426393D01*
X310983Y-428060D01*
X310983Y-432226D01*
X310983Y-433060D01*
X313983Y-431393D01*
X315983Y-431393D01*
X317983Y-432226D01*
X318983Y-433893D01*
X318983Y-436393D01*
X317983Y-438060D01*
X315983Y-438893D01*
X313983Y-438893D01*
X311983Y-438060D01*
X310983Y-436393D01*
X310983Y-432226D01*
G54D12*
X281916Y-233193D02*
X280916Y-234860D01*
X278916Y-235693D01*
X276916Y-235693D01*
X274916Y-234860D01*
X273916Y-233193D01*
X273916Y-224860D01*
X274916Y-223193D01*
X276916Y-222360D01*
X278916Y-222360D01*
X280916Y-223193D01*
X281916Y-224860D01*
G54D12*
X293583Y-235693D02*
X285583Y-235693D01*
X285583Y-234860D01*
X286583Y-233193D01*
X292583Y-228193D01*
X293583Y-226526D01*
X293583Y-224860D01*
X292583Y-223193D01*
X290583Y-222360D01*
X288583Y-222360D01*
X286583Y-223193D01*
X285583Y-224860D01*
G54D12*
X-133084Y105307D02*
X-133084Y118640D01*
G54D12*
X-137084Y118640D02*
X-129084Y118640D01*
G54D12*
X-125417Y113640D02*
X-120417Y118640D01*
X-120417Y105307D01*
G54D12*
X23916Y101174D02*
X26916Y99507D01*
X27916Y97840D01*
X27916Y94507D01*
G54D12*
X19916Y94507D02*
X19916Y107840D01*
X24916Y107840D01*
X26916Y107007D01*
X27916Y105340D01*
X27916Y103674D01*
X26916Y102007D01*
X24916Y101174D01*
X19916Y101174D01*
G54D12*
X31583Y102840D02*
X36583Y107840D01*
X36583Y94507D01*
G54D12*
X48250Y105340D02*
X48250Y97007D01*
X47250Y95340D01*
X45250Y94507D01*
X43250Y94507D01*
X41250Y95340D01*
X40250Y97007D01*
X40250Y105340D01*
X41250Y107007D01*
X43250Y107840D01*
X45250Y107840D01*
X47250Y107007D01*
X48250Y105340D01*
G54D12*
X100116Y101174D02*
X103116Y99507D01*
X104116Y97840D01*
X104116Y94507D01*
G54D12*
X96116Y94507D02*
X96116Y107840D01*
X101116Y107840D01*
X103116Y107007D01*
X104116Y105340D01*
X104116Y103674D01*
X103116Y102007D01*
X101116Y101174D01*
X96116Y101174D01*
G54D12*
X107783Y102840D02*
X112783Y107840D01*
X112783Y94507D01*
G54D12*
X116450Y102840D02*
X121450Y107840D01*
X121450Y94507D01*
G54D12*
X-175284Y-29993D02*
X-176284Y-31660D01*
X-178284Y-32493D01*
X-180284Y-32493D01*
X-182284Y-31660D01*
X-183284Y-29993D01*
X-183284Y-21660D01*
X-182284Y-19993D01*
X-180284Y-19160D01*
X-178284Y-19160D01*
X-176284Y-19993D01*
X-175284Y-21660D01*
G54D12*
X-171617Y-24160D02*
X-166617Y-19160D01*
X-166617Y-32493D01*
G54D12*
X-154950Y-19160D02*
X-162950Y-19160D01*
X-162950Y-24993D01*
X-161950Y-24993D01*
X-159950Y-24160D01*
X-157950Y-24160D01*
X-155950Y-24993D01*
X-154950Y-26660D01*
X-154950Y-29993D01*
X-155950Y-31660D01*
X-157950Y-32493D01*
X-159950Y-32493D01*
X-161950Y-31660D01*
X-162950Y-29993D01*
G54D12*
X784416Y-218293D02*
X782749Y-217293D01*
X781916Y-215293D01*
X781916Y-213293D01*
X782749Y-211293D01*
X784416Y-210293D01*
X792749Y-210293D01*
X794416Y-211293D01*
X795249Y-213293D01*
X795249Y-215293D01*
X794416Y-217293D01*
X792749Y-218293D01*
G54D12*
X784416Y-221960D02*
X782749Y-222960D01*
X781916Y-224960D01*
X781916Y-226960D01*
X782749Y-228960D01*
X784416Y-229960D01*
X788583Y-229960D01*
X789416Y-229960D01*
X787749Y-226960D01*
X787749Y-224960D01*
X788583Y-222960D01*
X790249Y-221960D01*
X792749Y-221960D01*
X794416Y-222960D01*
X795249Y-224960D01*
X795249Y-226960D01*
X794416Y-228960D01*
X792749Y-229960D01*
X788583Y-229960D01*
G54D10*
X765911Y-113938D02*
X765912Y-88537D01*
X694311Y-88537D01*
X694311Y-113937D01*
X765911Y-113938D01*
G54D10*
X662094Y-312649D02*
X662093Y-338050D01*
X733694Y-338050D01*
X733693Y-312650D01*
X662094Y-312649D01*
G54D12*
X930852Y260216D02*
X930852Y260216D01*
G54D12*
X637516Y-334793D02*
X636516Y-336460D01*
X634516Y-337293D01*
X632516Y-337293D01*
X630516Y-336460D01*
X629516Y-334793D01*
X629516Y-326460D01*
X630516Y-324793D01*
X632516Y-323960D01*
X634516Y-323960D01*
X636516Y-324793D01*
X637516Y-326460D01*
G54D12*
X641183Y-323960D02*
X649183Y-323960D01*
X648183Y-325626D01*
X646183Y-328126D01*
X644183Y-331460D01*
X643183Y-333960D01*
X643183Y-337293D01*
G54D12*
X662916Y-106193D02*
X661916Y-107860D01*
X659916Y-108693D01*
X657916Y-108693D01*
X655916Y-107860D01*
X654916Y-106193D01*
X654916Y-97860D01*
X655916Y-96193D01*
X657916Y-95360D01*
X659916Y-95360D01*
X661916Y-96193D01*
X662916Y-97860D01*
G54D12*
X671583Y-102026D02*
X669583Y-102026D01*
X667583Y-101193D01*
X666583Y-99526D01*
X666583Y-97860D01*
X667583Y-96193D01*
X669583Y-95360D01*
X671583Y-95360D01*
X673583Y-96193D01*
X674583Y-97860D01*
X674583Y-99526D01*
X673583Y-101193D01*
X671583Y-102026D01*
X673583Y-102860D01*
X674583Y-104526D01*
X674583Y-106193D01*
X673583Y-107860D01*
X671583Y-108693D01*
X669583Y-108693D01*
X667583Y-107860D01*
X666583Y-106193D01*
X666583Y-104526D01*
X667583Y-102860D01*
X669583Y-102026D01*
G54D12*
X675616Y-469093D02*
X674616Y-470760D01*
X672616Y-471593D01*
X670616Y-471593D01*
X668616Y-470760D01*
X667616Y-469093D01*
X667616Y-460760D01*
X668616Y-459093D01*
X670616Y-458260D01*
X672616Y-458260D01*
X674616Y-459093D01*
X675616Y-460760D01*
G54D12*
X679283Y-463260D02*
X684283Y-458260D01*
X684283Y-471593D01*
G54D12*
X695950Y-460760D02*
X695950Y-469093D01*
X694950Y-470760D01*
X692950Y-471593D01*
X690950Y-471593D01*
X688950Y-470760D01*
X687950Y-469093D01*
X687950Y-460760D01*
X688950Y-459093D01*
X690950Y-458260D01*
X692950Y-458260D01*
X694950Y-459093D01*
X695950Y-460760D01*
G54D12*
X789916Y-474093D02*
X788916Y-475760D01*
X786916Y-476593D01*
X784916Y-476593D01*
X782916Y-475760D01*
X781916Y-474093D01*
X781916Y-465760D01*
X782916Y-464093D01*
X784916Y-463260D01*
X786916Y-463260D01*
X788916Y-464093D01*
X789916Y-465760D01*
G54D12*
X793583Y-468260D02*
X798583Y-463260D01*
X798583Y-476593D01*
G54D12*
X802250Y-468260D02*
X807250Y-463260D01*
X807250Y-476593D01*
G54D12*
X675616Y-55393D02*
X674616Y-57060D01*
X672616Y-57893D01*
X670616Y-57893D01*
X668616Y-57060D01*
X667616Y-55393D01*
X667616Y-47060D01*
X668616Y-45393D01*
X670616Y-44560D01*
X672616Y-44560D01*
X674616Y-45393D01*
X675616Y-47060D01*
G54D12*
X679283Y-49560D02*
X684283Y-44560D01*
X684283Y-57893D01*
G54D12*
X695950Y-57893D02*
X687950Y-57893D01*
X687950Y-57060D01*
X688950Y-55393D01*
X694950Y-50393D01*
X695950Y-48726D01*
X695950Y-47060D01*
X694950Y-45393D01*
X692950Y-44560D01*
X690950Y-44560D01*
X688950Y-45393D01*
X687950Y-47060D01*
G54D12*
X789916Y-55393D02*
X788916Y-57060D01*
X786916Y-57893D01*
X784916Y-57893D01*
X782916Y-57060D01*
X781916Y-55393D01*
X781916Y-47060D01*
X782916Y-45393D01*
X784916Y-44560D01*
X786916Y-44560D01*
X788916Y-45393D01*
X789916Y-47060D01*
G54D12*
X793583Y-49560D02*
X798583Y-44560D01*
X798583Y-57893D01*
G54D12*
X802250Y-47060D02*
X803250Y-45393D01*
X805250Y-44560D01*
X807250Y-44560D01*
X809250Y-45393D01*
X810250Y-47060D01*
X810250Y-48726D01*
X809250Y-50393D01*
X807250Y-51226D01*
X809250Y-52060D01*
X810250Y-53726D01*
X810250Y-55393D01*
X809250Y-57060D01*
X807250Y-57893D01*
X805250Y-57893D01*
X803250Y-57060D01*
X802250Y-55393D01*
G54D10*
X878678Y223585D02*
X878678Y250985D01*
X954878Y250985D01*
X954878Y223585D01*
X878678Y223585D01*
G54D10*
X948578Y250985D02*
X948578Y223585D01*
G54D10*
X884504Y293743D02*
X884504Y268343D01*
X956104Y268343D01*
X956104Y293743D01*
X884504Y293743D01*
G54D12*
X908788Y237566D02*
X908788Y224233D01*
X915788Y224233D01*
G54D12*
X927455Y224233D02*
X919455Y224233D01*
X919455Y225066D01*
X920455Y226733D01*
X926455Y231733D01*
X927455Y233400D01*
X927455Y235066D01*
X926455Y236733D01*
X924455Y237566D01*
X922455Y237566D01*
X920455Y236733D01*
X919455Y235066D01*
G54D19*
X28575Y-177800D02*
X161925Y-177800D01*
X161925Y-269875D01*
X28575Y-269875D01*
X28575Y-177800D01*
G54D14*
X-103438Y-281645D02*
X-103438Y-263867D01*
G54D14*
X-98549Y-281645D02*
X-98549Y-263867D01*
X-87882Y-281645D01*
X-87882Y-263867D01*
G54D16*
X919089Y-415933D02*
X1084189Y-415933D01*
X1084189Y-530233D01*
X919089Y-530233D01*
X919089Y-415933D01*
G54D12*
X974439Y283767D02*
X973439Y282100D01*
X971439Y281267D01*
X969439Y281267D01*
X967439Y282100D01*
X966439Y283767D01*
X966439Y292100D01*
X967439Y293767D01*
X969439Y294600D01*
X971439Y294600D01*
X973439Y293767D01*
X974439Y292100D01*
G54D12*
X978106Y289600D02*
X983106Y294600D01*
X983106Y281267D01*
G54D12*
X992773Y281267D02*
X992773Y294600D01*
X986773Y286267D01*
X986773Y284600D01*
X994773Y284600D01*
G54D13*
X58389Y262217D02*
X58389Y271106D01*
G54D13*
X114522Y269439D02*
X114522Y263884D01*
X113856Y262773D01*
X112522Y262217D01*
X111189Y262217D01*
X109856Y262773D01*
X109189Y263884D01*
X109189Y269439D01*
X109856Y270550D01*
X111189Y271106D01*
X112522Y271106D01*
X113856Y270550D01*
X114522Y269439D01*
G54D17*
X88972Y224682D02*
X88973Y218332D01*
G54D17*
X96910Y218332D02*
X81035Y218332D01*
G54D17*
X83416Y215157D02*
X94529Y215157D01*
G54D17*
X91354Y211982D02*
X86592Y211982D01*
G54D17*
X88013Y-563997D02*
X88013Y-570347D01*
G54D17*
X95951Y-570347D02*
X80076Y-570347D01*
G54D17*
X82457Y-573522D02*
X93569Y-573522D01*
G54D17*
X90394Y-576697D02*
X85632Y-576697D01*
G54D13*
X55889Y-566333D02*
X55889Y-557444D01*
G54D13*
X114522Y-556611D02*
X114522Y-562166D01*
X113856Y-563278D01*
X112522Y-563833D01*
X111189Y-563833D01*
X109856Y-563278D01*
X109189Y-562166D01*
X109189Y-556611D01*
X109856Y-555500D01*
X111189Y-554944D01*
X112522Y-554944D01*
X113856Y-555500D01*
X114522Y-556611D01*
G54D13*
X-83408Y130871D02*
X-84475Y130315D01*
X-85808Y130315D01*
X-87141Y130871D01*
X-87408Y131982D01*
X-87408Y133871D01*
X-86741Y134982D01*
X-85408Y135315D01*
X-84075Y134982D01*
X-83408Y134204D01*
X-83408Y133093D01*
X-87408Y133093D01*
G54D13*
X-136200Y93500D02*
X-136200Y102389D01*
G54D13*
X-136200Y97056D02*
X-135533Y98167D01*
X-134200Y98500D01*
X-132867Y98167D01*
X-132200Y97056D01*
X-132200Y94833D01*
X-132867Y93722D01*
X-134200Y93500D01*
X-135533Y93722D01*
X-136200Y94833D01*
G54D13*
X-73667Y70867D02*
X-75000Y71200D01*
X-76333Y70867D01*
X-77000Y69756D01*
X-77000Y67533D01*
X-76333Y66422D01*
X-75000Y66200D01*
X-73667Y66422D01*
G54D16*
X-43328Y28269D02*
X153522Y28269D01*
X153522Y-143181D01*
X-43328Y-143181D01*
X-43328Y28269D01*
G54D14*
X107826Y-29102D02*
X107826Y-19102D01*
G54D14*
X107826Y-21324D02*
X109160Y-19768D01*
X111826Y-19102D01*
X114493Y-19768D01*
X115826Y-21324D01*
X115827Y-29102D01*
G54D14*
X127382Y-19768D02*
X124716Y-19102D01*
X122049Y-19768D01*
X120716Y-21991D01*
X120716Y-26435D01*
X122049Y-28657D01*
X124716Y-29102D01*
X127382Y-28657D01*
G54D14*
X110021Y-98596D02*
X110021Y-88596D01*
G54D14*
X110021Y-90818D02*
X111354Y-89263D01*
X114021Y-88596D01*
X116688Y-89263D01*
X118021Y-90818D01*
X118021Y-98596D01*
G54D14*
X122910Y-89707D02*
X125577Y-88596D01*
X128776Y-88596D01*
X130910Y-90818D01*
X130910Y-98596D01*
G54D14*
X130910Y-95263D02*
X129577Y-93040D01*
X126910Y-92596D01*
X124243Y-93040D01*
X122910Y-95263D01*
X123443Y-97485D01*
X125576Y-98596D01*
X126910Y-98596D01*
X127443Y-98596D01*
X129577Y-97485D01*
X130910Y-95263D01*
G54D16*
X1071097Y-19356D02*
X874247Y-19356D01*
X874247Y152094D01*
X1071097Y152094D01*
X1071097Y-19356D01*
G54D14*
X900430Y28033D02*
X900430Y38033D01*
G54D14*
X900430Y35811D02*
X901764Y37367D01*
X904430Y38033D01*
X907097Y37366D01*
X908430Y35811D01*
X908431Y28033D01*
G54D14*
X919986Y37366D02*
X917320Y38033D01*
X914653Y37366D01*
X913320Y35144D01*
X913320Y30700D01*
X914653Y28478D01*
X917320Y28033D01*
X919986Y28478D01*
G54D14*
X896859Y97509D02*
X896859Y107509D01*
G54D14*
X896859Y105287D02*
X898192Y106842D01*
X900859Y107509D01*
X903526Y106842D01*
X904859Y105287D01*
X904859Y97509D01*
G54D14*
X909748Y106398D02*
X912415Y107509D01*
X915614Y107509D01*
X917748Y105287D01*
X917748Y97509D01*
G54D14*
X917748Y100842D02*
X916414Y103064D01*
X913748Y103509D01*
X911081Y103064D01*
X909748Y100842D01*
X910281Y98620D01*
X912414Y97509D01*
X913748Y97509D01*
X914281Y97509D01*
X916415Y98620D01*
X917748Y100842D01*
G54D13*
X-154564Y191389D02*
X-154564Y200278D01*
G54D13*
X-157231Y200278D02*
X-151898Y200278D01*
G54D13*
X-145454Y191945D02*
X-146521Y191389D01*
X-147854Y191389D01*
X-149187Y191945D01*
X-149454Y193056D01*
X-149454Y194945D01*
X-148787Y196056D01*
X-147454Y196389D01*
X-146121Y196056D01*
X-145454Y195278D01*
X-145454Y194167D01*
X-149454Y194167D01*
G54D13*
X-143010Y191945D02*
X-141677Y191389D01*
X-140343Y191389D01*
X-139010Y191945D01*
X-139010Y193056D01*
X-139677Y193611D01*
X-142343Y194167D01*
X-143010Y194722D01*
X-143010Y195833D01*
X-141677Y196389D01*
X-140343Y196389D01*
X-139010Y195833D01*
G54D13*
X-135233Y200278D02*
X-135233Y191945D01*
X-134566Y191389D01*
X-133899Y191611D01*
G54D13*
X-136566Y196389D02*
X-133899Y196389D01*
G54D13*
X-132231Y56389D02*
X-132231Y65278D01*
X-128898Y65278D01*
X-127564Y64722D01*
X-126898Y63611D01*
X-126898Y62500D01*
X-127564Y61389D01*
X-128898Y60833D01*
X-127564Y60278D01*
X-126898Y59167D01*
X-126898Y58056D01*
X-127564Y56945D01*
X-128898Y56389D01*
X-132231Y56389D01*
G54D13*
X-132231Y60833D02*
X-128898Y60833D01*
G54D13*
X-119121Y58056D02*
X-119787Y56945D01*
X-121121Y56389D01*
X-122454Y56389D01*
X-123787Y56945D01*
X-124454Y58056D01*
X-124454Y63611D01*
X-123787Y64722D01*
X-122454Y65278D01*
X-121121Y65278D01*
X-119787Y64722D01*
X-119121Y63611D01*
G54D13*
X-116677Y63611D02*
X-116010Y64722D01*
X-114677Y65278D01*
X-113344Y65278D01*
X-112010Y64722D01*
X-111344Y63611D01*
X-111344Y62500D01*
X-112010Y61389D01*
X-113344Y60833D01*
X-112010Y60278D01*
X-111344Y59167D01*
X-111344Y58056D01*
X-112010Y56945D01*
X-113344Y56389D01*
X-114677Y56389D01*
X-116010Y56945D01*
X-116677Y58056D01*
G54D13*
X-103567Y56389D02*
X-108900Y56389D01*
X-108900Y56945D01*
X-108233Y58056D01*
X-104233Y61389D01*
X-103567Y62500D01*
X-103567Y63611D01*
X-104233Y64722D01*
X-105567Y65278D01*
X-106900Y65278D01*
X-108233Y64722D01*
X-108900Y63611D01*
G54D13*
X-101123Y65278D02*
X-95790Y65278D01*
X-96456Y64167D01*
X-97790Y62500D01*
X-99123Y60278D01*
X-99790Y58611D01*
X-99790Y56389D01*
G54D10*
X392652Y164954D02*
X365252Y164954D01*
X365252Y241154D01*
X392652Y241154D01*
X392652Y164954D01*
G54D10*
X382652Y-525046D02*
X355252Y-525046D01*
X355252Y-448846D01*
X382652Y-448846D01*
X382652Y-525046D01*
G54D13*
X634964Y-224027D02*
X634964Y-215138D01*
X639631Y-215138D01*
G54D13*
X634964Y-219582D02*
X639631Y-219582D01*
G54D13*
X644742Y-224027D02*
X644742Y-215138D01*
G54D13*
X642075Y-215138D02*
X647408Y-215138D01*
G54D13*
X655185Y-215138D02*
X649852Y-215138D01*
X649852Y-219027D01*
X650519Y-219027D01*
X651852Y-218472D01*
X653185Y-218472D01*
X654519Y-219027D01*
X655185Y-220138D01*
X655185Y-222360D01*
X654519Y-223472D01*
X653185Y-224027D01*
X651852Y-224027D01*
X650519Y-223472D01*
X649852Y-222360D01*
G54D13*
X662962Y-216805D02*
X662962Y-222360D01*
X662296Y-223472D01*
X660962Y-224027D01*
X659629Y-224027D01*
X658296Y-223472D01*
X657629Y-222360D01*
X657629Y-216805D01*
X658296Y-215694D01*
X659629Y-215138D01*
X660962Y-215138D01*
X662296Y-215694D01*
X662962Y-216805D01*
G54D13*
X665406Y-220138D02*
X670739Y-220138D01*
G54D13*
X677183Y-224027D02*
X677183Y-215138D01*
X673183Y-220694D01*
X673183Y-221805D01*
X678516Y-221805D01*
G54D13*
X680960Y-216805D02*
X681627Y-215694D01*
X682960Y-215138D01*
X684293Y-215138D01*
X685627Y-215694D01*
X686293Y-216805D01*
X686293Y-217916D01*
X685627Y-219027D01*
X684293Y-219582D01*
X685627Y-220138D01*
X686293Y-221249D01*
X686293Y-222360D01*
X685627Y-223472D01*
X684293Y-224027D01*
X682960Y-224027D01*
X681627Y-223472D01*
X680960Y-222360D01*
G54D13*
X688737Y-219027D02*
X694070Y-224027D01*
G54D13*
X688737Y-224027D02*
X694070Y-219027D01*
G54D13*
X701847Y-224027D02*
X696514Y-224027D01*
X696514Y-223472D01*
X697181Y-222360D01*
X701181Y-219027D01*
X701847Y-217916D01*
X701847Y-216805D01*
X701181Y-215694D01*
X699847Y-215138D01*
X698514Y-215138D01*
X697181Y-215694D01*
X696514Y-216805D01*
G54D13*
X904964Y-214027D02*
X904964Y-205138D01*
X908297Y-205138D01*
X909631Y-205694D01*
X910297Y-206805D01*
X910297Y-207916D01*
X909631Y-209027D01*
X908297Y-209582D01*
X909631Y-210138D01*
X910297Y-211249D01*
X910297Y-212360D01*
X909631Y-213472D01*
X908297Y-214027D01*
X904964Y-214027D01*
G54D13*
X904964Y-209582D02*
X908297Y-209582D01*
G54D13*
X912741Y-214027D02*
X912741Y-205138D01*
X918074Y-214027D01*
X918074Y-205138D01*
G54D13*
X920518Y-210138D02*
X925851Y-210138D01*
G54D13*
X932295Y-214027D02*
X932295Y-205138D01*
X928295Y-210694D01*
X928295Y-211805D01*
X933628Y-211805D01*
G54D13*
X936072Y-206805D02*
X936739Y-205694D01*
X938072Y-205138D01*
X939405Y-205138D01*
X940739Y-205694D01*
X941405Y-206805D01*
X941405Y-207916D01*
X940739Y-209027D01*
X939405Y-209582D01*
X940739Y-210138D01*
X941405Y-211249D01*
X941405Y-212360D01*
X940739Y-213472D01*
X939405Y-214027D01*
X938072Y-214027D01*
X936739Y-213472D01*
X936072Y-212360D01*
G54D13*
X943849Y-210138D02*
X949182Y-210138D01*
G54D13*
X951626Y-206805D02*
X952293Y-205694D01*
X953626Y-205138D01*
X954959Y-205138D01*
X956293Y-205694D01*
X956959Y-206805D01*
X956959Y-207916D01*
X956293Y-209027D01*
X954959Y-209582D01*
X956293Y-210138D01*
X956959Y-211249D01*
X956959Y-212360D01*
X956293Y-213472D01*
X954959Y-214027D01*
X953626Y-214027D01*
X952293Y-213472D01*
X951626Y-212360D01*
G54D13*
X959403Y-206805D02*
X960070Y-205694D01*
X961403Y-205138D01*
X962736Y-205138D01*
X964070Y-205694D01*
X964736Y-206805D01*
X964736Y-207916D01*
X964070Y-209027D01*
X962736Y-209582D01*
X964070Y-210138D01*
X964736Y-211249D01*
X964736Y-212360D01*
X964070Y-213472D01*
X962736Y-214027D01*
X961403Y-214027D01*
X960070Y-213472D01*
X959403Y-212360D01*
G54D13*
X967180Y-208472D02*
X970513Y-205138D01*
X970513Y-214027D01*
G54D13*
X978290Y-214027D02*
X972957Y-214027D01*
X972957Y-213472D01*
X973624Y-212360D01*
X977624Y-209027D01*
X978290Y-207916D01*
X978290Y-206805D01*
X977624Y-205694D01*
X976290Y-205138D01*
X974957Y-205138D01*
X973624Y-205694D01*
X972957Y-206805D01*
G54D13*
X294964Y-194027D02*
X294964Y-185138D01*
X299631Y-185138D01*
G54D13*
X294964Y-189582D02*
X299631Y-189582D01*
G54D13*
X304742Y-194027D02*
X304742Y-185138D01*
G54D13*
X302075Y-185138D02*
X307408Y-185138D01*
G54D13*
X315185Y-185138D02*
X309852Y-185138D01*
X309852Y-189027D01*
X310519Y-189027D01*
X311852Y-188472D01*
X313185Y-188472D01*
X314519Y-189027D01*
X315185Y-190138D01*
X315185Y-192360D01*
X314519Y-193472D01*
X313185Y-194027D01*
X311852Y-194027D01*
X310519Y-193472D01*
X309852Y-192360D01*
G54D13*
X322962Y-186805D02*
X322962Y-192360D01*
X322296Y-193472D01*
X320962Y-194027D01*
X319629Y-194027D01*
X318296Y-193472D01*
X317629Y-192360D01*
X317629Y-186805D01*
X318296Y-185694D01*
X319629Y-185138D01*
X320962Y-185138D01*
X322296Y-185694D01*
X322962Y-186805D01*
G54D13*
X325406Y-190138D02*
X330739Y-190138D01*
G54D13*
X337183Y-194027D02*
X337183Y-185138D01*
X333183Y-190694D01*
X333183Y-191805D01*
X338516Y-191805D01*
G54D13*
X340960Y-186805D02*
X341627Y-185694D01*
X342960Y-185138D01*
X344293Y-185138D01*
X345627Y-185694D01*
X346293Y-186805D01*
X346293Y-187916D01*
X345627Y-189027D01*
X344293Y-189582D01*
X345627Y-190138D01*
X346293Y-191249D01*
X346293Y-192360D01*
X345627Y-193472D01*
X344293Y-194027D01*
X342960Y-194027D01*
X341627Y-193472D01*
X340960Y-192360D01*
G54D16*
X664964Y185973D02*
X664964Y115973D01*
G54D16*
X600303Y-487865D02*
X600303Y-547865D01*
G54D14*
X-102619Y217535D02*
X-102619Y206868D01*
G54D14*
X-98175Y212202D02*
X-107064Y212202D01*
G54D12*
X-63725Y200222D02*
X-63725Y200222D01*
G54D14*
X37625Y-478265D02*
X37625Y-467598D01*
G54D14*
X33181Y-472932D02*
X42070Y-472932D01*
G54D14*
X127381Y212535D02*
X127381Y201868D01*
G54D14*
X131825Y207202D02*
X122936Y207202D01*
G54D10*
X206864Y314023D02*
X181464Y314023D01*
X181464Y242423D01*
X206864Y242423D01*
X206864Y314023D01*
G54D10*
X214564Y-556615D02*
X214564Y-582016D01*
X142964Y-582016D01*
X142964Y-556616D01*
X214564Y-556615D01*
G54D14*
X157625Y-478265D02*
X157625Y-467598D01*
G54D14*
X153181Y-472932D02*
X162070Y-472932D01*
G54D16*
G75*
G01X-45397Y187135D02*
G03X-45397Y187135I-40000J0D01*
G01*
G54D16*
G75*
G01X184603Y187135D02*
G03X184603Y187135I-40000J0D01*
G01*
G54D16*
G75*
G01X717103Y-22865D02*
G03X717103Y-22865I-40000J0D01*
G01*
G54D16*
G75*
G01X829603Y-22865D02*
G03X829603Y-22865I-40000J0D01*
G01*
G54D16*
G75*
G01X719603Y-412865D02*
G03X719603Y-412865I-40000J0D01*
G01*
G54D16*
G75*
G01X834603Y-417865D02*
G03X834603Y-417865I-40000J0D01*
G01*
G54D16*
G75*
G01X59603Y-447865D02*
G03X59603Y-447865I-40000J0D01*
G01*
G54D16*
G75*
G01X184603Y-447865D02*
G03X184603Y-447865I-40000J0D01*
G01*
G54D14*
X691631Y150306D02*
X688964Y150973D01*
X686297Y150306D01*
X684964Y148084D01*
X684964Y143640D01*
X686297Y141417D01*
X688964Y140973D01*
X691631Y141417D01*
G54D14*
X696520Y140973D02*
X696520Y158751D01*
G54D14*
X696520Y148084D02*
X697853Y150306D01*
X700520Y150973D01*
X703187Y150306D01*
X704520Y148084D01*
X704520Y140973D01*
G54D14*
X717409Y143640D02*
X717409Y148084D01*
X716076Y150306D01*
X713409Y150973D01*
X710742Y150306D01*
X709409Y148084D01*
X709409Y143640D01*
X710742Y141417D01*
X713409Y140973D01*
X716076Y141417D01*
X717409Y143640D01*
G54D14*
X722298Y140973D02*
X722298Y158751D01*
G54D14*
X726298Y147640D02*
X730298Y140973D01*
G54D14*
X722298Y145417D02*
X730298Y150973D01*
G54D14*
X743187Y142084D02*
X741054Y140973D01*
X738387Y140973D01*
X735720Y142084D01*
X735187Y144306D01*
X735187Y148084D01*
X736520Y150306D01*
X739187Y150973D01*
X741854Y150306D01*
X743187Y148751D01*
X743187Y146529D01*
X735187Y146529D01*
G54D14*
X626631Y-514694D02*
X623964Y-514027D01*
X621297Y-514694D01*
X619964Y-516916D01*
X619964Y-521360D01*
X621297Y-523582D01*
X623964Y-524027D01*
X626631Y-523582D01*
G54D14*
X631520Y-524027D02*
X631520Y-506249D01*
G54D14*
X631520Y-516916D02*
X632853Y-514694D01*
X635520Y-514027D01*
X638187Y-514694D01*
X639520Y-516916D01*
X639520Y-524027D01*
G54D14*
X652409Y-521360D02*
X652409Y-516916D01*
X651076Y-514694D01*
X648409Y-514027D01*
X645742Y-514694D01*
X644409Y-516916D01*
X644409Y-521360D01*
X645742Y-523582D01*
X648409Y-524027D01*
X651076Y-523582D01*
X652409Y-521360D01*
G54D14*
X657298Y-524027D02*
X657298Y-506249D01*
G54D14*
X661298Y-517360D02*
X665298Y-524027D01*
G54D14*
X657298Y-519582D02*
X665298Y-514027D01*
G54D14*
X678187Y-522916D02*
X676054Y-524027D01*
X673387Y-524027D01*
X670720Y-522916D01*
X670187Y-520694D01*
X670187Y-516916D01*
X671520Y-514694D01*
X674187Y-514027D01*
X676854Y-514694D01*
X678187Y-516249D01*
X678187Y-518472D01*
X670187Y-518472D01*
G54D17*
X1188971Y-3083D02*
X1182620Y-3083D01*
G54D17*
X1182620Y-11020D02*
X1182621Y4855D01*
G54D17*
X1179446Y2473D02*
X1179446Y-8639D01*
G54D17*
X1176271Y-5464D02*
X1176271Y-702D01*
M02*
