; Drill file
; Format: 2.4 (00.0000)
M48
INCH
T01C0.0197
T02C0.0283
T03C0.0354
T04C0.0394
T05C0.1299
%
G05
G90
T01
X-014630Y-029500
X-012630Y003250
X018810Y-012190
T02
X-011650Y-028490
X-011650Y-024490
X-011260Y-001330
X-011260Y002670
X-029760Y-006780
X011910Y002020
T03
X-027580Y-028270
X-026580Y-028270
X-025390Y-026150
X-025390Y-023900
X-020670Y-023900
X-020670Y-026150
X-018860Y-027050
X-018130Y-029740
X-020140Y-029740
X-021770Y-028430
X-022770Y-028430
X-023770Y-028430
X-016360Y-028420
X-014330Y-028130
X-014320Y-026120
X-016360Y-025550
X-011640Y-021010
X-011700Y-018700
X-011320Y-016580
X-013330Y-016580
X-012850Y-013990
X-014740Y-013930
X-014780Y-011060
X-012870Y-011050
X-016460Y-009630
X-018140Y-009510
X-013080Y-007080
X-011070Y-007080
X-011270Y-004950
X-011260Y-002680
X-013320Y000020
X-013330Y002030
X-015360Y002320
X-017860Y000940
X-018540Y002630
X-018540Y004640
X-021770Y002320
X-022770Y002320
X-023770Y002320
X-026580Y002230
X-027580Y002230
X-029530Y001240
X-031400Y002400
X-032400Y002400
X-032400Y-000600
X-031400Y-000600
X-029530Y-001010
X-029950Y-002730
X-030580Y-003420
X-029950Y-004110
X-027650Y-004500
X-027660Y-002490
X-027560Y-001010
X-024850Y-002090
X-022350Y-002090
X-020470Y-001200
X-020470Y001050
X-015360Y-000560
X-022350Y-005100
X-024850Y-005100
X-031490Y-007640
X-031480Y-009640
X-029760Y-010780
X-023400Y-015100
X-021400Y-015100
X-021400Y-017100
X-023400Y-017100
X-008700Y-023400
X-007140Y-023400
X-005580Y-023400
X-002550Y-026530
X-002550Y-028890
X001100Y-029950
X002100Y-029950
X001670Y-023770
X-000580Y-023770
X000290Y-020140
X002300Y-020130
X002060Y-018190
X003980Y-017220
X003990Y-015210
X005070Y-013630
X003570Y-011300
X001570Y-011310
X002060Y-013780
X-002760Y-013780
X-005450Y-011020
X-007010Y-011020
X-008580Y-011020
X-000580Y-008270
X001670Y-008270
X003920Y-008270
X006170Y-008270
X000000Y-002760
X000000Y000000
X-000080Y001730
X000920Y001730
X007910Y002020
X009050Y003740
X011050Y003740
X017360Y-011000
X017760Y-013760
X017760Y-018760
X005200Y-018880
X006170Y-023770
X003920Y-023770
X-002630Y-018250
T04
X-033800Y-029380
X-031130Y-017070
X-030130Y-016070
X-031130Y-015070
X-029130Y-015070
X-029130Y-017070
X-033930Y-014130
X-026180Y-011950
X-026940Y-009700
X-026180Y-007320
X-021430Y-007320
X-021430Y-012070
X-016960Y-004170
X-007550Y002620
X009530Y-002220
X009530Y-006970
X014280Y-006970
X014920Y-004600
X014280Y-002350
X020950Y004620
X020820Y-016380
X020950Y-029380
X-007550Y-029380
X-033930Y004750
T05
X-033930Y-026320
X-034180Y-002820
X020820Y001180
X020820Y-025820
M30
