; Drill file
; Format: 2.4 (00.0000)
M48
INCH
T01C0.0197
T02C0.0283
T03C0.0354
T04C0.0394
T05C0.1299
%
G05
G90
T01
X020670Y001600
X022670Y034350
X054110Y018910
T02
X023650Y002600
X023650Y006600
X024050Y029770
X024050Y033770
X005540Y024320
X047220Y033120
T03
X007720Y002820
X008730Y002820
X009910Y004950
X009910Y007200
X014640Y007200
X014640Y004950
X016440Y004050
X017170Y001360
X015160Y001360
X013540Y002670
X012540Y002670
X011540Y002670
X018940Y002670
X020980Y002970
X020980Y004970
X018940Y005550
X023670Y010090
X023600Y012400
X023980Y014520
X021980Y014520
X022450Y017110
X020560Y017170
X020530Y020040
X022440Y020040
X018850Y021470
X017160Y021590
X022230Y024020
X024230Y024010
X024040Y026150
X024040Y028420
X021980Y031120
X021980Y033120
X019940Y033420
X017440Y032040
X016770Y033730
X016770Y035740
X013540Y033420
X012540Y033420
X011540Y033420
X008730Y033320
X007720Y033320
X005780Y032340
X003910Y033500
X002910Y033500
X002910Y030500
X003910Y030500
X005780Y030090
X005350Y028370
X004730Y027680
X005350Y026990
X007650Y026600
X007650Y028600
X007750Y030090
X010450Y029000
X012950Y029000
X014830Y029890
X014830Y032140
X019940Y030540
X012950Y026000
X010450Y026000
X003820Y023460
X003820Y021450
X005540Y020320
X011910Y016000
X013910Y016000
X013910Y014000
X011910Y014000
X027000Y007700
X028560Y007700
X030120Y007700
X032760Y004570
X032760Y002210
X036410Y001140
X037410Y001140
X036980Y007320
X034730Y007320
X035590Y010960
X037600Y010970
X037360Y012910
X039290Y013880
X039290Y015890
X040380Y017460
X038880Y019800
X036870Y019790
X037360Y017320
X032550Y017320
X030250Y020070
X028680Y020070
X027120Y020070
X034730Y022820
X036980Y022820
X039230Y022820
X041480Y022820
X035310Y028340
X035310Y031100
X035220Y032820
X036230Y032820
X043220Y033120
X044350Y034840
X046360Y034840
X052670Y020090
X053060Y017340
X053060Y012340
X040500Y012210
X041480Y007320
X039230Y007320
X032670Y012850
T04
X000980Y014610
X004180Y014030
X005180Y015030
X004180Y016030
X006180Y016030
X006180Y014030
X009130Y019150
X008370Y021400
X009130Y023780
X013880Y023780
X013880Y019030
X027750Y033720
X044840Y028880
X044840Y024130
X049590Y024130
X050420Y026500
X049590Y028750
X056250Y035720
X056130Y014720
X027750Y001720
X001380Y035840
T05
X001380Y001630
X001130Y028280
X056130Y032280
X055340Y001730
M30
