; Drill file
; Format: 2.4 (00.0000)
M48
INCH
T01C0.0197
T02C0.0283
T03C0.0354
T04C0.0394
T05C0.1299
%
G05
G90
T01
X-028910Y-027150
X-026910Y005600
X004520Y-009840
T02
X-044050Y-004430
X-002370Y004370
T03
X-041860Y-025930
X-040860Y-025930
X-038050Y-026080
X-037050Y-026080
X-036050Y-026080
X-034610Y-026040
X-033150Y-024700
X-034610Y-024030
X-030650Y-023200
X-028610Y-023780
X-028610Y-025790
X-030650Y-026080
X-025890Y-026020
X-025900Y-023020
X-022990Y-021050
X-021420Y-021050
X-019860Y-021050
X-014860Y-021430
X-012610Y-021430
X-010360Y-021430
X-008110Y-021430
X-009090Y-016540
X-010300Y-014870
X-010290Y-012860
X-009210Y-011290
X-010710Y-008960
X-012720Y-008960
X-012230Y-011430
X-012230Y-015840
X-011990Y-017790
X-013990Y-017790
X-016910Y-015900
X-017040Y-011430
X-019740Y-008680
X-021300Y-008680
X-022860Y-008680
X-027150Y-008710
X-029060Y-008710
X-030740Y-007280
X-032430Y-007160
X-029030Y-011580
X-027130Y-011640
X-027610Y-014230
X-025610Y-014240
X-025990Y-016350
X-025920Y-018660
X-035680Y-014760
X-035680Y-012760
X-037680Y-012760
X-037680Y-014760
X-044050Y-008430
X-045770Y-007300
X-045770Y-005290
X-044240Y-001770
X-044860Y-001070
X-044240Y-000380
X-041940Y-000150
X-041940Y-002150
X-039140Y-002750
X-036640Y-002750
X-036630Y000250
X-039130Y000250
X-038050Y004670
X-037050Y004670
X-036050Y004670
X-033610Y004620
X-032150Y003290
X-033610Y002620
X-029650Y001790
X-027610Y002370
X-027610Y004370
X-029650Y004670
X-025520Y004270
X-025520Y001270
X-025550Y-000330
X-025550Y-002600
X-025360Y-004740
X-027360Y-004730
X-014860Y-005930
X-012610Y-005930
X-010360Y-005930
X-008110Y-005930
X-006370Y004370
X-005240Y006080
X-003230Y006090
X-013360Y004070
X-014360Y004070
X003470Y-011410
X003470Y-016410
X-013360Y-026430
X-014360Y-026430
X-040860Y004570
X-041860Y004570
X-045680Y004740
X-046680Y004740
X-046680Y001740
X-045680Y001740
T04
X-048090Y-027030
X-045410Y-014720
X-044410Y-013720
X-045410Y-012720
X-043410Y-012720
X-043410Y-014720
X-048210Y-011780
X-040460Y-009600
X-041220Y-007350
X-040460Y-004980
X-035710Y-004980
X-035710Y-009730
X-031840Y-001030
X-021840Y004970
X-004750Y000120
X-004750Y-004630
X000000Y-004630
X000630Y-002250
X000000Y000000
X006660Y006970
X006540Y-014030
X006660Y-027030
X-021840Y-027030
X-048210Y007090
T05
X-048210Y-023980
X-048460Y-000480
X006540Y003520
X006540Y-023480
M30
