%FSLAX34Y34*%
%MOMM*%
%LNSOLDERMASK_BOTTOM*%
G71*
G01*
%ADD10C,2.800*%
%ADD11C,2.600*%
%ADD12C,2.500*%
%ADD13C,2.400*%
%ADD14C,1.600*%
%ADD15C,4.900*%
%LPD*%
X-1153413Y-323170D02*
G54D10*
D03*
X-1102613Y-323170D02*
G54D10*
D03*
X-1128013Y-348570D02*
G54D10*
D03*
X-1102613Y-373970D02*
G54D10*
D03*
X-1153413Y-373970D02*
G54D10*
D03*
G36*
X-647090Y-428388D02*
X-673090Y-428388D01*
X-673090Y-402388D01*
X-647090Y-402388D01*
X-647090Y-428388D01*
G37*
G36*
X-553978Y-233404D02*
X-553978Y-207404D01*
X-527978Y-207404D01*
X-527978Y-233404D01*
X-553978Y-233404D01*
G37*
G36*
X-514290Y-233404D02*
X-514290Y-207404D01*
X-488290Y-207404D01*
X-488290Y-233404D01*
X-514290Y-233404D01*
G37*
G36*
X-593666Y-233404D02*
X-593666Y-207404D01*
X-567666Y-207404D01*
X-567666Y-233404D01*
X-593666Y-233404D01*
G37*
G36*
X151207Y-668652D02*
X187207Y-668652D01*
X187207Y-704652D01*
X151207Y-704652D01*
X151207Y-668652D01*
G37*
X-657758Y-584628D02*
G54D11*
D03*
X-657708Y-660878D02*
G54D11*
D03*
G36*
X-671406Y-461026D02*
X-645406Y-461026D01*
X-645406Y-487026D01*
X-671406Y-487026D01*
X-671406Y-461026D01*
G37*
X-966478Y118606D02*
G54D11*
D03*
X-941078Y118606D02*
G54D11*
D03*
X-915678Y118606D02*
G54D11*
D03*
X-752995Y45468D02*
G54D11*
D03*
X-816495Y83568D02*
G54D11*
D03*
X-752995Y118493D02*
G54D11*
D03*
X-941078Y118606D02*
G54D11*
D03*
X-816495Y83568D02*
G54D11*
D03*
X-701338Y111070D02*
G54D11*
D03*
X-701226Y60089D02*
G54D11*
D03*
X-701226Y60089D02*
G54D11*
D03*
X-701226Y60089D02*
G54D11*
D03*
X-648233Y32259D02*
G54D11*
D03*
X-648183Y108509D02*
G54D11*
D03*
G36*
X-661882Y4508D02*
X-635882Y4508D01*
X-635882Y-21492D01*
X-661882Y-21492D01*
X-661882Y4508D01*
G37*
G36*
X-635978Y-79138D02*
X-661978Y-79138D01*
X-661978Y-53138D01*
X-635978Y-53138D01*
X-635978Y-79138D01*
G37*
G36*
X-702216Y-308763D02*
X-702216Y-282763D01*
X-676216Y-282763D01*
X-676216Y-308763D01*
X-702216Y-308763D01*
G37*
G36*
X-702692Y-234150D02*
X-702692Y-208150D01*
X-676692Y-208150D01*
X-676692Y-234150D01*
X-702692Y-234150D01*
G37*
X-737317Y-294175D02*
G54D11*
D03*
G36*
X-751111Y-234309D02*
X-751111Y-208309D01*
X-725111Y-208309D01*
X-725111Y-234309D01*
X-751111Y-234309D01*
G37*
G36*
X-810680Y-168855D02*
X-810680Y-194855D01*
X-836680Y-194855D01*
X-836680Y-168855D01*
X-810680Y-168855D01*
G37*
G36*
X-767817Y-172030D02*
X-767817Y-198030D01*
X-793817Y-198030D01*
X-793817Y-172030D01*
X-767817Y-172030D01*
G37*
X-695040Y-120196D02*
G54D11*
D03*
X-644059Y-120309D02*
G54D11*
D03*
X-644059Y-120309D02*
G54D11*
D03*
X-701391Y-361496D02*
G54D11*
D03*
X-650410Y-361608D02*
G54D11*
D03*
X-650410Y-361608D02*
G54D11*
D03*
X-650410Y-361608D02*
G54D11*
D03*
G36*
X-297568Y-303416D02*
X-323568Y-303416D01*
X-323568Y-277416D01*
X-297568Y-277416D01*
X-297568Y-303416D01*
G37*
G36*
X-419805Y-303416D02*
X-445805Y-303416D01*
X-445805Y-277416D01*
X-419805Y-277416D01*
X-419805Y-303416D01*
G37*
G36*
X-297568Y-415335D02*
X-323568Y-415335D01*
X-323568Y-389335D01*
X-297568Y-389335D01*
X-297568Y-415335D01*
G37*
G36*
X-416630Y-416922D02*
X-442630Y-416922D01*
X-442630Y-390922D01*
X-416630Y-390922D01*
X-416630Y-416922D01*
G37*
G36*
X-557153Y-547730D02*
X-557153Y-521730D01*
X-531153Y-521730D01*
X-531153Y-547730D01*
X-557153Y-547730D01*
G37*
G36*
X-517466Y-547729D02*
X-517466Y-521729D01*
X-491466Y-521729D01*
X-491466Y-547729D01*
X-517466Y-547729D01*
G37*
G36*
X-596841Y-547729D02*
X-596841Y-521729D01*
X-570841Y-521729D01*
X-570841Y-547729D01*
X-596841Y-547729D01*
G37*
G36*
X-247019Y-273726D02*
X-221019Y-273726D01*
X-221019Y-299726D01*
X-247019Y-299726D01*
X-247019Y-273726D01*
G37*
G36*
X-243844Y-407076D02*
X-217844Y-407076D01*
X-217844Y-433076D01*
X-243844Y-433076D01*
X-243844Y-407076D01*
G37*
G36*
X75244Y-276902D02*
X101244Y-276902D01*
X101244Y-302902D01*
X75244Y-302902D01*
X75244Y-276902D01*
G37*
X88244Y-416902D02*
G54D11*
D03*
X-261600Y-377689D02*
G54D11*
D03*
X-261488Y-326709D02*
G54D11*
D03*
X-261488Y-326709D02*
G54D11*
D03*
X-261488Y-326709D02*
G54D11*
D03*
X-377466Y-544254D02*
G54D11*
D03*
X-320316Y-544254D02*
G54D11*
D03*
X-263166Y-544254D02*
G54D11*
D03*
X-206016Y-544254D02*
G54D11*
D03*
X-377466Y-150554D02*
G54D11*
D03*
X-320316Y-150554D02*
G54D11*
D03*
X-263166Y-150554D02*
G54D11*
D03*
X-206016Y-150554D02*
G54D11*
D03*
X-320316Y-544254D02*
G54D11*
D03*
X-206016Y-544254D02*
G54D11*
D03*
X-320316Y-150554D02*
G54D11*
D03*
X-206016Y-150554D02*
G54D11*
D03*
X-339366Y103452D02*
G54D11*
D03*
X-364866Y103452D02*
G54D11*
D03*
X-339366Y-671248D02*
G54D11*
D03*
X-364866Y-671248D02*
G54D11*
D03*
G36*
X-750317Y-281175D02*
X-724317Y-281175D01*
X-724317Y-307175D01*
X-750317Y-307175D01*
X-750317Y-281175D01*
G37*
X-853738Y117420D02*
G54D11*
D03*
X-853626Y66439D02*
G54D11*
D03*
X-853626Y66439D02*
G54D11*
D03*
X-853626Y66439D02*
G54D11*
D03*
X-966478Y-662476D02*
G54D11*
D03*
X-941078Y-662476D02*
G54D11*
D03*
X-915678Y-662476D02*
G54D11*
D03*
X-778395Y-589338D02*
G54D11*
D03*
X-841895Y-627438D02*
G54D11*
D03*
X-778395Y-662363D02*
G54D11*
D03*
X-941078Y-662476D02*
G54D11*
D03*
X-841895Y-627438D02*
G54D11*
D03*
X-726738Y-654940D02*
G54D11*
D03*
X-726626Y-603959D02*
G54D11*
D03*
X-726626Y-603959D02*
G54D11*
D03*
X-726626Y-603959D02*
G54D11*
D03*
X-879138Y-661290D02*
G54D11*
D03*
X-879026Y-610309D02*
G54D11*
D03*
X-879026Y-610309D02*
G54D11*
D03*
X-879026Y-610309D02*
G54D11*
D03*
G36*
X75244Y-403902D02*
X101244Y-403902D01*
X101244Y-429902D01*
X75244Y-429902D01*
X75244Y-403902D01*
G37*
X-1037866Y116152D02*
G54D11*
D03*
X-1063366Y116152D02*
G54D11*
D03*
X-1037866Y-658548D02*
G54D11*
D03*
X-1063366Y-658548D02*
G54D11*
D03*
X-1118817Y-214135D02*
G54D12*
D03*
X-1118817Y-112535D02*
G54D12*
D03*
X-1162442Y-185394D02*
G54D11*
D03*
X-1162554Y-134414D02*
G54D11*
D03*
X-1162442Y-185394D02*
G54D11*
D03*
X-1118817Y-214135D02*
G54D11*
D03*
X-1123610Y-9668D02*
G54D13*
D03*
X-1139510Y-27243D02*
G54D13*
D03*
X-1123576Y-44859D02*
G54D13*
D03*
X-1065174Y-54733D02*
G54D11*
D03*
X-1065286Y-3752D02*
G54D11*
D03*
X-994077Y-69841D02*
G54D11*
D03*
X-994026Y6410D02*
G54D11*
D03*
X-930577Y-69841D02*
G54D11*
D03*
X-930527Y6410D02*
G54D11*
D03*
X-1185653Y120518D02*
G54D11*
D03*
X-1160253Y120518D02*
G54D11*
D03*
X-1185653Y120518D02*
G54D11*
D03*
X-957053Y-323982D02*
G54D11*
D03*
X-906253Y-323982D02*
G54D11*
D03*
X-957053Y-374782D02*
G54D11*
D03*
X-906253Y-374782D02*
G54D11*
D03*
X-957053Y-374782D02*
G54D11*
D03*
X-906253Y-374782D02*
G54D11*
D03*
G36*
X172113Y-27658D02*
X126113Y-27658D01*
X126113Y18342D01*
X172113Y18342D01*
X172113Y-27658D01*
G37*
G36*
X167113Y-98858D02*
X131113Y-98858D01*
X131113Y-62858D01*
X167113Y-62858D01*
X167113Y-98858D01*
G37*
X-1185653Y44318D02*
G54D11*
D03*
X-1160253Y44318D02*
G54D11*
D03*
X-272073Y-227493D02*
G54D11*
D03*
X-323053Y-227606D02*
G54D11*
D03*
X-272073Y-227493D02*
G54D11*
D03*
X-355461Y-451872D02*
G54D11*
D03*
X-304480Y-451759D02*
G54D11*
D03*
X-355461Y-451872D02*
G54D11*
D03*
G36*
X151207Y194948D02*
X187207Y194948D01*
X187207Y158948D01*
X151207Y158948D01*
X151207Y194948D01*
G37*
G36*
X-1239443Y-668652D02*
X-1203443Y-668652D01*
X-1203443Y-704652D01*
X-1239443Y-704652D01*
X-1239443Y-668652D01*
G37*
G36*
X-826693Y-8252D02*
X-790693Y-8252D01*
X-790693Y-44252D01*
X-826693Y-44252D01*
X-826693Y-8252D01*
G37*
G36*
X-572693Y-668652D02*
X-536693Y-668652D01*
X-536693Y-704652D01*
X-572693Y-704652D01*
X-572693Y-668652D01*
G37*
G36*
X-572693Y144148D02*
X-536693Y144148D01*
X-536693Y108148D01*
X-572693Y108148D01*
X-572693Y144148D01*
G37*
G36*
X-1242618Y-281302D02*
X-1206618Y-281302D01*
X-1206618Y-317302D01*
X-1242618Y-317302D01*
X-1242618Y-281302D01*
G37*
X-161791Y110896D02*
G54D12*
D03*
X-60191Y110896D02*
G54D12*
D03*
X-133050Y154521D02*
G54D11*
D03*
X-82070Y154633D02*
G54D11*
D03*
X-133050Y154521D02*
G54D11*
D03*
X-161791Y110896D02*
G54D11*
D03*
G36*
X-1242618Y198123D02*
X-1206618Y198123D01*
X-1206618Y162123D01*
X-1242618Y162123D01*
X-1242618Y198123D01*
G37*
G36*
X148032Y-338452D02*
X184032Y-338452D01*
X184032Y-374452D01*
X148032Y-374452D01*
X148032Y-338452D01*
G37*
X-683630Y142178D02*
G54D14*
D03*
X-734430Y-689672D02*
G54D14*
D03*
X114882Y-249934D02*
G54D14*
D03*
X-1224619Y-608989D02*
G54D15*
D03*
X-1230969Y-12089D02*
G54D15*
D03*
X166031Y-596289D02*
G54D15*
D03*
X166031Y89511D02*
G54D15*
D03*
X-907119Y-247039D02*
G54D10*
D03*
X-1027769Y-243865D02*
G54D10*
D03*
X-907119Y-126389D02*
G54D10*
D03*
X-1027769Y-126389D02*
G54D10*
D03*
X-1046978Y-186714D02*
G54D10*
D03*
X-1027769Y-243865D02*
G54D11*
D03*
X-120650Y3174D02*
G54D10*
D03*
X0Y0D02*
G54D10*
D03*
X-120650Y-117476D02*
G54D10*
D03*
X0Y-117476D02*
G54D10*
D03*
X16112Y-57151D02*
G54D10*
D03*
X0Y-117476D02*
G54D11*
D03*
M02*
