%FSLAX34Y34*%
%MOMM*%
%LNSILK_TOP*%
G71*
G01*
%ADD10C,0.150*%
%ADD11C,0.222*%
%ADD12C,0.100*%
%ADD13C,0.111*%
%ADD14C,0.167*%
%LPD*%
G54D10*
X108921Y177970D02*
X131096Y177970D01*
X131096Y127270D01*
X108921Y127270D01*
X108921Y177970D01*
G54D10*
X120009Y178170D02*
X120009Y186070D01*
G54D10*
X120009Y127170D02*
X120009Y119270D01*
G54D10*
X183462Y201838D02*
X183462Y179663D01*
X132762Y179663D01*
X132762Y201838D01*
X183462Y201838D01*
G54D10*
X183662Y190751D02*
X191562Y190751D01*
G54D10*
X132662Y190751D02*
X124762Y190751D01*
G54D10*
X185112Y177896D02*
X207287Y177896D01*
X207287Y127196D01*
X185112Y127196D01*
X185112Y177896D01*
G54D10*
X196199Y178096D02*
X196199Y185996D01*
G54D10*
X196199Y127096D02*
X196199Y119196D01*
G54D10*
X413721Y177970D02*
X435896Y177970D01*
X435896Y127270D01*
X413721Y127270D01*
X413721Y177970D01*
G54D10*
X424809Y178170D02*
X424809Y186070D01*
G54D10*
X424809Y127170D02*
X424809Y119270D01*
G54D10*
X488262Y201838D02*
X488262Y179663D01*
X437562Y179663D01*
X437562Y201838D01*
X488262Y201838D01*
G54D10*
X488462Y190751D02*
X496362Y190751D01*
G54D10*
X437462Y190751D02*
X429562Y190751D01*
G54D10*
X489912Y177896D02*
X512087Y177896D01*
X512087Y127196D01*
X489912Y127196D01*
X489912Y177896D01*
G54D10*
X500999Y178096D02*
X500999Y185996D01*
G54D10*
X500999Y127096D02*
X500999Y119196D01*
G54D11*
X41723Y202239D02*
X41723Y184461D01*
X47945Y184461D01*
G54D11*
X59945Y198905D02*
X59945Y187794D01*
X59056Y185572D01*
X57279Y184461D01*
X55501Y184461D01*
X53723Y185572D01*
X52834Y187794D01*
X52834Y198905D01*
X53723Y201128D01*
X55501Y202239D01*
X57279Y202239D01*
X59056Y201128D01*
X59945Y198905D01*
G54D11*
X540578Y193350D02*
X543245Y191128D01*
X544134Y188905D01*
X544134Y184461D01*
G54D11*
X537023Y184461D02*
X537023Y202239D01*
X541468Y202239D01*
X543245Y201128D01*
X544134Y198905D01*
X544134Y196683D01*
X543245Y194461D01*
X541468Y193350D01*
X537023Y193350D01*
G54D11*
X549023Y184461D02*
X549023Y202239D01*
X555245Y202239D01*
G54D11*
X549023Y193350D02*
X555245Y193350D01*
G54D11*
X568773Y76511D02*
X568773Y94289D01*
G54D11*
X573662Y76511D02*
X573662Y94289D01*
X579884Y94289D01*
G54D11*
X573662Y85400D02*
X579884Y85400D01*
G54D10*
X329973Y309111D02*
X329973Y326511D01*
X299573Y326511D01*
X299573Y309111D01*
X329973Y309111D01*
G36*
X329873Y309211D02*
X329873Y325911D01*
X322673Y325911D01*
X322673Y309211D01*
X329873Y309211D01*
G37*
G54D12*
X329873Y309211D02*
X329873Y325911D01*
X322673Y325911D01*
X322673Y309211D01*
X329873Y309211D01*
G54D10*
X340973Y317811D02*
X329873Y317811D01*
G54D10*
X299673Y317811D02*
X288573Y317811D01*
G54D10*
X344173Y264511D02*
X361573Y264511D01*
X361573Y294911D01*
X344173Y294911D01*
X344173Y264511D01*
G36*
X344273Y264611D02*
X360973Y264611D01*
X360973Y271811D01*
X344273Y271811D01*
X344273Y264611D01*
G37*
G54D12*
X344273Y264611D02*
X360973Y264611D01*
X360973Y271811D01*
X344273Y271811D01*
X344273Y264611D01*
G54D10*
X352873Y253511D02*
X352873Y264611D01*
G54D10*
X352873Y294811D02*
X352873Y305911D01*
G54D10*
X299573Y250311D02*
X299573Y232911D01*
X329973Y232911D01*
X329973Y250311D01*
X299573Y250311D01*
G36*
X299673Y250211D02*
X299673Y233511D01*
X306873Y233511D01*
X306873Y250211D01*
X299673Y250211D01*
G37*
G54D12*
X299673Y250211D02*
X299673Y233511D01*
X306873Y233511D01*
X306873Y250211D01*
X299673Y250211D01*
G54D10*
X288573Y241611D02*
X299673Y241611D01*
G54D10*
X329873Y241611D02*
X340973Y241611D01*
G54D10*
X285373Y294911D02*
X267973Y294911D01*
X267973Y264511D01*
X285373Y264511D01*
X285373Y294911D01*
G36*
X285273Y294811D02*
X268573Y294811D01*
X268573Y287611D01*
X285273Y287611D01*
X285273Y294811D01*
G37*
G54D12*
X285273Y294811D02*
X268573Y294811D01*
X268573Y287611D01*
X285273Y287611D01*
X285273Y294811D01*
G54D10*
X276673Y305911D02*
X276673Y294811D01*
G54D10*
X276673Y264611D02*
X276673Y253511D01*
G54D13*
X333823Y273361D02*
X333823Y282250D01*
X336045Y282250D01*
X336934Y281694D01*
X337379Y280583D01*
X337379Y275028D01*
X336934Y273917D01*
X336045Y273361D01*
X333823Y273361D01*
G54D13*
X339823Y278917D02*
X342045Y282250D01*
X342045Y273361D01*
G54D13*
X308423Y254311D02*
X308423Y263200D01*
X310645Y263200D01*
X311534Y262644D01*
X311979Y261533D01*
X311979Y255978D01*
X311534Y254867D01*
X310645Y254311D01*
X308423Y254311D01*
G54D13*
X317979Y254311D02*
X314423Y254311D01*
X314423Y254867D01*
X314867Y255978D01*
X317534Y259311D01*
X317979Y260422D01*
X317979Y261533D01*
X317534Y262644D01*
X316645Y263200D01*
X315756Y263200D01*
X314867Y262644D01*
X314423Y261533D01*
G54D13*
X289373Y273361D02*
X289373Y282250D01*
X291595Y282250D01*
X292484Y281694D01*
X292929Y280583D01*
X292929Y275028D01*
X292484Y273917D01*
X291595Y273361D01*
X289373Y273361D01*
G54D13*
X295373Y280583D02*
X295817Y281694D01*
X296706Y282250D01*
X297595Y282250D01*
X298484Y281694D01*
X298929Y280583D01*
X298929Y279472D01*
X298484Y278361D01*
X297595Y277805D01*
X298484Y277250D01*
X298929Y276139D01*
X298929Y275028D01*
X298484Y273917D01*
X297595Y273361D01*
X296706Y273361D01*
X295817Y273917D01*
X295373Y275028D01*
G54D13*
X308423Y298761D02*
X308423Y307650D01*
X310645Y307650D01*
X311534Y307094D01*
X311979Y305983D01*
X311979Y300428D01*
X311534Y299317D01*
X310645Y298761D01*
X308423Y298761D01*
G54D13*
X317090Y298761D02*
X317090Y307650D01*
X314423Y302094D01*
X314423Y300983D01*
X317979Y300983D01*
G54D13*
X143323Y146361D02*
X145545Y155250D01*
X147767Y146361D01*
G54D13*
X144212Y149694D02*
X146879Y149694D01*
G54D13*
X151989Y146361D02*
X151989Y155250D01*
G54D13*
X150211Y155250D02*
X153767Y155250D01*
G54D13*
X157989Y146361D02*
X157989Y155250D01*
G54D13*
X156211Y155250D02*
X159767Y155250D01*
G54D13*
X162211Y146361D02*
X162211Y155250D01*
X165767Y146361D01*
X165767Y155250D01*
G54D13*
X448123Y146361D02*
X450345Y155250D01*
X452567Y146361D01*
G54D13*
X449012Y149694D02*
X451678Y149694D01*
G54D13*
X456789Y146361D02*
X456789Y155250D01*
G54D13*
X455011Y155250D02*
X458567Y155250D01*
G54D13*
X462789Y146361D02*
X462789Y155250D01*
G54D13*
X461011Y155250D02*
X464566Y155250D01*
G54D13*
X467011Y146361D02*
X467011Y155250D01*
X470566Y146361D01*
X470566Y155250D01*
G54D10*
X154350Y254223D02*
X217850Y254223D01*
X217850Y305023D01*
X154350Y305023D01*
X154350Y254223D01*
G54D13*
X194228Y279623D02*
X194228Y288512D01*
G54D13*
X192450Y288512D02*
X196006Y288512D01*
G54D13*
X198450Y285179D02*
X200672Y288512D01*
X200672Y279623D01*
G54D10*
X474390Y301730D02*
X410890Y301730D01*
X410890Y250930D01*
X474390Y250930D01*
X474390Y301730D01*
G54D13*
X425368Y276330D02*
X425368Y285219D01*
G54D13*
X423590Y285219D02*
X427146Y285219D01*
G54D13*
X433146Y276330D02*
X429590Y276330D01*
X429590Y276886D01*
X430034Y277997D01*
X432701Y281330D01*
X433146Y282441D01*
X433146Y283552D01*
X432701Y284663D01*
X431812Y285219D01*
X430923Y285219D01*
X430034Y284663D01*
X429590Y283552D01*
G54D14*
X254000Y146800D02*
X254000Y160133D01*
X259000Y160133D01*
X261000Y159300D01*
X262000Y157633D01*
X262000Y155967D01*
X261000Y154300D01*
X259000Y153467D01*
X261000Y152633D01*
X262000Y150967D01*
X262000Y149300D01*
X261000Y147633D01*
X259000Y146800D01*
X254000Y146800D01*
G54D14*
X254000Y153467D02*
X259000Y153467D01*
G54D14*
X265667Y146800D02*
X270667Y160133D01*
X275667Y146800D01*
G54D14*
X267667Y151800D02*
X273667Y151800D01*
G54D14*
X279334Y160133D02*
X279334Y146800D01*
X286334Y146800D01*
G54D14*
X290001Y152633D02*
X298001Y152633D01*
G54D14*
X309668Y146800D02*
X301668Y146800D01*
X301668Y147633D01*
X302668Y149300D01*
X308668Y154300D01*
X309668Y155967D01*
X309668Y157633D01*
X308668Y159300D01*
X306668Y160133D01*
X304668Y160133D01*
X302668Y159300D01*
X301668Y157633D01*
G54D14*
X313335Y152633D02*
X321335Y152633D01*
G54D14*
X325002Y146800D02*
X325002Y160133D01*
X330002Y151800D01*
X335002Y160133D01*
X335002Y146800D01*
G54D14*
X338669Y146800D02*
X338669Y160133D01*
G54D14*
X342336Y160133D02*
X352336Y146800D01*
G54D14*
X342336Y146800D02*
X352336Y160133D01*
G54D14*
X363003Y146800D02*
X356003Y146800D01*
X356003Y160133D01*
X363003Y160133D01*
G54D14*
X356003Y153467D02*
X363003Y153467D01*
G54D14*
X370670Y153467D02*
X373670Y151800D01*
X374670Y150133D01*
X374670Y146800D01*
G54D14*
X366670Y146800D02*
X366670Y160133D01*
X371670Y160133D01*
X373670Y159300D01*
X374670Y157633D01*
X374670Y155967D01*
X373670Y154300D01*
X371670Y153467D01*
X366670Y153467D01*
M02*
