%FSLAX34Y34*%
%MOMM*%
%LNSOLDERMASK_TOP*%
G71*
G01*
%ADD10C,2.600*%
%ADD11C,2.600*%
%ADD12C,2.400*%
%ADD13C,1.600*%
%ADD14C,4.900*%
%LPD*%
X120067Y190766D02*
G54D10*
D03*
X120017Y114516D02*
G54D10*
D03*
X120067Y190766D02*
G54D11*
D03*
X196258Y190692D02*
G54D10*
D03*
X120008Y190742D02*
G54D10*
D03*
X196257Y190692D02*
G54D11*
D03*
X196258Y190692D02*
G54D10*
D03*
X196208Y114442D02*
G54D10*
D03*
X196258Y190692D02*
G54D11*
D03*
X424867Y190766D02*
G54D10*
D03*
X424817Y114516D02*
G54D10*
D03*
X424867Y190766D02*
G54D11*
D03*
X501058Y190692D02*
G54D10*
D03*
X424808Y190742D02*
G54D10*
D03*
X501058Y190692D02*
G54D11*
D03*
X501058Y190692D02*
G54D10*
D03*
X501008Y114442D02*
G54D10*
D03*
X501058Y190692D02*
G54D11*
D03*
X54423Y159061D02*
G54D10*
D03*
X54423Y133661D02*
G54D10*
D03*
X549723Y159061D02*
G54D10*
D03*
X549723Y133661D02*
G54D10*
D03*
X549723Y82861D02*
G54D10*
D03*
X549723Y57461D02*
G54D10*
D03*
X352873Y241611D02*
G54D12*
D03*
X352873Y317811D02*
G54D12*
D03*
X276673Y317811D02*
G54D12*
D03*
X276673Y241611D02*
G54D12*
D03*
X141650Y311373D02*
G54D10*
D03*
X141650Y247873D02*
G54D10*
D03*
X230550Y311373D02*
G54D10*
D03*
X230550Y279623D02*
G54D10*
D03*
X230550Y247873D02*
G54D10*
D03*
X487090Y244580D02*
G54D10*
D03*
X487090Y308080D02*
G54D10*
D03*
X398190Y244580D02*
G54D10*
D03*
X398190Y276330D02*
G54D10*
D03*
X398190Y308080D02*
G54D10*
D03*
X569100Y187910D02*
G54D13*
D03*
X575450Y111710D02*
G54D13*
D03*
X35700Y175210D02*
G54D13*
D03*
X50800Y45200D02*
G54D14*
D03*
G36*
X177500Y51900D02*
X203500Y51900D01*
X203500Y25900D01*
X177500Y25900D01*
X177500Y51900D01*
G37*
G36*
X355300Y51900D02*
X381300Y51900D01*
X381300Y25900D01*
X355300Y25900D01*
X355300Y51900D01*
G37*
X469900Y45200D02*
G54D14*
D03*
X558800Y299200D02*
G54D14*
D03*
X50800Y299200D02*
G54D14*
D03*
G36*
X88600Y331300D02*
X114600Y331300D01*
X114600Y305300D01*
X88600Y305300D01*
X88600Y331300D01*
G37*
G36*
X507700Y331300D02*
X533700Y331300D01*
X533700Y305300D01*
X507700Y305300D01*
X507700Y331300D01*
G37*
M02*
