; Drill file
; Format: 2.4 (00.0000)
M48
INCH
T01C0.0236
T02C0.0276
T03C0.0283
T04C0.0315
T05C0.0354
T06C0.0394
T07C0.0591
T08C0.0787
%
G05
G90
T01
X-047240Y018500
T02
X-043580Y-011160
X-043510Y-004980
X-043030Y001800
X-039530Y025100
X-033310Y025380
X-024370Y025340
X-016890Y023610
X-013130Y013550
X-011710Y013470
X-010710Y010420
X-015670Y010540
X-000360Y013800
X000080Y001600
X003820Y001910
X006890Y-004270
X000080Y-005840
T03
X-023290Y008480
X-023290Y012480
X-026680Y012240
X-027180Y025240
X-023180Y025240
X-016000Y024290
X002500Y024290
T04
X-044690Y007420
X-044690Y008420
X-044690Y009420
X-044690Y010420
X-044690Y011420
X-044690Y012420
X-044690Y013420
X-044690Y014420
X-044690Y015420
X-044690Y016420
X-044690Y017420
X-044690Y018420
X-044690Y019420
X-044690Y020420
X-044690Y021420
X-042700Y021380
X-042700Y022380
X-041700Y022380
X-041700Y021380
X-040700Y021380
X-040700Y022380
X-038690Y021420
X-038690Y019420
X-038690Y018420
X-038690Y017420
X-038690Y016420
X-038690Y015420
X-038690Y014420
X-038690Y013420
X-038690Y012420
X-038690Y011420
X-038690Y010420
X-038690Y009420
X-038690Y008420
X-038690Y007420
T05
X-044500Y-012500
X-046340Y-003970
X-050500Y-004500
X-050300Y004000
X-047640Y006690
X-047680Y009570
X-047580Y011150
X-050250Y012000
X-047580Y014150
X-047700Y024320
X-048700Y024320
X-049700Y024320
X-046700Y024320
X-045700Y024320
X-044700Y024320
X-043700Y024320
X-041000Y025000
X-036510Y023920
X-036510Y022920
X-035120Y022600
X-034000Y022540
X-034000Y019540
X-035080Y019720
X-036610Y019240
X-036610Y016240
X-036460Y014690
X-036460Y012690
X-036610Y010740
X-034570Y010140
X-034560Y008130
X-036610Y006740
X-036460Y005190
X-034450Y005190
X-026640Y004620
X-026650Y006630
X-026680Y008240
X-024810Y010110
X-024810Y012110
X-022700Y013750
X-021450Y016130
X-020280Y016060
X-017780Y016060
X-019030Y013680
X-016840Y012930
X-015130Y012650
X-015130Y014650
X-016840Y009930
X-017200Y004860
X-015190Y004870
X-015190Y002620
X-017200Y002610
X-016700Y000450
X-016700Y-001300
X-016700Y-003050
X-017200Y-005510
X-015190Y-005510
X-011450Y-005120
X-011450Y-006180
X-011450Y-007180
X-011450Y-007240
X-012240Y-011320
X-014690Y-010010
X-016700Y-010010
X-022000Y-012500
X-022200Y-003050
X-022200Y-001300
X-022200Y000450
X-011450Y000070
X-011450Y-000030
X-011450Y001070
X-011450Y002140
X-012740Y006180
X-009730Y006180
X-009590Y009930
X-007670Y010690
X-007680Y012690
X-009590Y012930
X-003950Y010130
X-002170Y010440
X-002180Y012440
X-000450Y012630
X000550Y012630
X001550Y012630
X001480Y015540
X001540Y016660
X004540Y016660
X004360Y015580
X005900Y012270
X006900Y012270
X009400Y012270
X010400Y012270
X002010Y008080
X000080Y006450
X-001700Y006450
X-004700Y005450
X-004700Y007950
X002010Y005080
X005270Y001760
X006890Y001800
X003800Y000190
X000060Y000080
X000000Y-004280
X003920Y-004510
X002510Y-009920
X000580Y-011050
X-001200Y-011050
X-004700Y-010300
X-004700Y-012800
X-009230Y-011320
X002510Y-012920
X006800Y-012540
X010270Y-006590
X-001530Y017680
X-002780Y020060
X-003950Y020130
X-006450Y020130
X-005200Y017750
X-000280Y020060
X006500Y024290
X008110Y024310
X010120Y024320
X-008380Y024320
X-010390Y024310
X-012000Y024290
X-023180Y021240
X-023150Y019630
X-024510Y020090
X-025590Y020280
X-027150Y019630
X-027180Y021240
X-025630Y023150
X-024510Y023090
X-023140Y017620
X-023950Y016130
X-026780Y016060
X-027140Y017620
X-029280Y016060
X-030450Y016130
X-032950Y016130
X-031700Y013750
X-028030Y013680
X-033500Y-012500
T06
X-046340Y-009470
X-044340Y-009470
X-044340Y-006970
X-046340Y-006970
X-046340Y-001970
X-045340Y-000970
X-046340Y000030
X-044340Y000030
X-044340Y-001970
X-031200Y004450
X-031200Y006450
X-031200Y008450
X-031200Y011450
X-028200Y011450
X-028200Y008450
X-028200Y006450
X-028200Y004450
X-021700Y004450
X-021700Y006450
X-021700Y008450
X-021700Y011450
X-018700Y011450
X-018700Y008450
X-018700Y006450
X-018700Y004450
X-018700Y017950
X-018700Y019950
X-018700Y021950
X-018700Y024950
X-021700Y024950
X-021700Y021950
X-021700Y019950
X-021700Y017950
X-015430Y019210
X-012430Y019210
X-010430Y019210
X-008430Y019210
X-008430Y022210
X-010430Y022210
X-012430Y022210
X-015430Y022210
X-028700Y021950
X-028700Y019950
X-028700Y017950
X-031700Y017950
X-031700Y019950
X-031700Y021950
X-031700Y024950
X-028700Y024950
X-038690Y020420
X002570Y019460
X005570Y019460
X007570Y019460
X009570Y019460
X009570Y022460
X007570Y022460
X005570Y022460
X002570Y022460
X005970Y-000230
X006970Y-001230
X007970Y-000230
X007970Y-002230
X005970Y-002230
X010280Y-001180
T07
X-044680Y022410
X-038680Y022410
T08
X-050500Y-012380
X-050500Y020120
X009000Y016620
X010000Y-012380
M30
