%FSLAX34Y34*%
%MOMM*%
%LNSOLDERMASK_BOTTOM*%
G71*
G01*
%ADD10C,2.600*%
%ADD11C,2.800*%
%ADD12R,0.835X1.470*%
%ADD13C,2.500*%
%ADD14C,2.250*%
%ADD15C,2.600*%
%ADD16C,2.500*%
%ADD17C,3.600*%
%ADD18C,2.600*%
%ADD19C,1.800*%
%LPD*%
X903470Y269830D02*
G54D10*
D03*
X878070Y269830D02*
G54D10*
D03*
X852670Y269830D02*
G54D10*
D03*
X808720Y265036D02*
G54D10*
D03*
X808833Y214055D02*
G54D10*
D03*
X620503Y277527D02*
G54D10*
D03*
X620453Y201277D02*
G54D10*
D03*
X669020Y271386D02*
G54D10*
D03*
X669133Y220405D02*
G54D10*
D03*
X436353Y277527D02*
G54D10*
D03*
X436303Y201277D02*
G54D10*
D03*
G36*
X560270Y-10920D02*
X586270Y-10920D01*
X586270Y-36920D01*
X560270Y-36920D01*
X560270Y-10920D01*
G37*
X573270Y-49320D02*
G54D10*
D03*
G36*
X560270Y14480D02*
X586270Y14480D01*
X586270Y-11520D01*
X560270Y-11520D01*
X560270Y14480D01*
G37*
G36*
X560270Y-195070D02*
X586270Y-195070D01*
X586270Y-221070D01*
X560270Y-221070D01*
X560270Y-195070D01*
G37*
X573270Y-233470D02*
G54D10*
D03*
G36*
X560270Y-169670D02*
X586270Y-169670D01*
X586270Y-195670D01*
X560270Y-195670D01*
X560270Y-169670D01*
G37*
X478053Y15438D02*
G54D10*
D03*
X427072Y15325D02*
G54D10*
D03*
X478053Y-190937D02*
G54D10*
D03*
X427072Y-191050D02*
G54D10*
D03*
X478053Y72588D02*
G54D10*
D03*
X427073Y72475D02*
G54D10*
D03*
X490753Y-305237D02*
G54D10*
D03*
X439773Y-305350D02*
G54D10*
D03*
X616751Y105950D02*
G54D10*
D03*
X540501Y106000D02*
G54D10*
D03*
X629451Y-338550D02*
G54D10*
D03*
X553201Y-338500D02*
G54D10*
D03*
X744720Y150830D02*
G54D10*
D03*
X744720Y87330D02*
G54D10*
D03*
X744720Y-312720D02*
G54D10*
D03*
X744720Y-376220D02*
G54D10*
D03*
X856020Y112730D02*
G54D10*
D03*
X820920Y112730D02*
G54D10*
D03*
X868720Y-331770D02*
G54D10*
D03*
X833620Y-331770D02*
G54D10*
D03*
X1013779Y260552D02*
G54D10*
D03*
X1039279Y260552D02*
G54D10*
D03*
X915113Y77935D02*
G54D10*
D03*
X915163Y154185D02*
G54D10*
D03*
X865520Y-49070D02*
G54D10*
D03*
X864020Y-159670D02*
G54D10*
D03*
X960620Y-46070D02*
G54D10*
D03*
X963620Y-165670D02*
G54D10*
D03*
X300220Y-39670D02*
G54D10*
D03*
X439920Y-39670D02*
G54D10*
D03*
X439920Y-128570D02*
G54D10*
D03*
X439920Y-84120D02*
G54D10*
D03*
X1102679Y260552D02*
G54D10*
D03*
X1128179Y260552D02*
G54D10*
D03*
X878070Y269830D02*
G54D10*
D03*
X808833Y214055D02*
G54D10*
D03*
X763770Y206330D02*
G54D10*
D03*
X669133Y220405D02*
G54D10*
D03*
X963620Y-165670D02*
G54D10*
D03*
X856020Y112730D02*
G54D10*
D03*
X915113Y77935D02*
G54D10*
D03*
X868720Y-331770D02*
G54D10*
D03*
X300220Y-128570D02*
G54D10*
D03*
X439920Y-84120D02*
G54D10*
D03*
X1015570Y-56920D02*
G54D11*
D03*
X1066370Y-56920D02*
G54D11*
D03*
X1040970Y-82320D02*
G54D11*
D03*
X1066370Y-107720D02*
G54D11*
D03*
X1015570Y-107720D02*
G54D11*
D03*
X300220Y-84120D02*
G54D10*
D03*
X808833Y214055D02*
G54D10*
D03*
X669133Y220405D02*
G54D10*
D03*
X915113Y77935D02*
G54D10*
D03*
X927813Y-379265D02*
G54D10*
D03*
X927863Y-303015D02*
G54D10*
D03*
X927813Y-379265D02*
G54D10*
D03*
G36*
X560270Y-220470D02*
X586270Y-220470D01*
X586270Y-246470D01*
X560270Y-246470D01*
X560270Y-220470D01*
G37*
G36*
X560270Y-36320D02*
X586270Y-36320D01*
X586270Y-62320D01*
X560270Y-62320D01*
X560270Y-36320D01*
G37*
X-175561Y171505D02*
G54D12*
D03*
X-185721Y171505D02*
G54D12*
D03*
X-195373Y171505D02*
G54D12*
D03*
X-205533Y171505D02*
G54D12*
D03*
X-215439Y171505D02*
G54D12*
D03*
X-271065Y493069D02*
G54D13*
D03*
X-271065Y467669D02*
G54D13*
D03*
X-271065Y442269D02*
G54D13*
D03*
X-271065Y416869D02*
G54D13*
D03*
X-271065Y391469D02*
G54D13*
D03*
X-271065Y366069D02*
G54D13*
D03*
X-271065Y340669D02*
G54D13*
D03*
X-271065Y315269D02*
G54D13*
D03*
X-271065Y289869D02*
G54D13*
D03*
X-271065Y264469D02*
G54D13*
D03*
X-271065Y239069D02*
G54D13*
D03*
X-271065Y213669D02*
G54D13*
D03*
X-271065Y188269D02*
G54D13*
D03*
X-271065Y162869D02*
G54D13*
D03*
X-271065Y137469D02*
G54D13*
D03*
X-118665Y493069D02*
G54D13*
D03*
X-118665Y467669D02*
G54D13*
D03*
X-118665Y442269D02*
G54D13*
D03*
X-118665Y416869D02*
G54D13*
D03*
X-118665Y391469D02*
G54D13*
D03*
X-118665Y366069D02*
G54D13*
D03*
X-118665Y340669D02*
G54D13*
D03*
X-118665Y315269D02*
G54D13*
D03*
X-118665Y289869D02*
G54D13*
D03*
X-118665Y264469D02*
G54D13*
D03*
X-118665Y239069D02*
G54D13*
D03*
X-118665Y213669D02*
G54D13*
D03*
X-118665Y188269D02*
G54D13*
D03*
X-118665Y162869D02*
G54D13*
D03*
X-118665Y137469D02*
G54D13*
D03*
X-118506Y518310D02*
G54D14*
D03*
X-270906Y518310D02*
G54D14*
D03*
X-169719Y492053D02*
G54D13*
D03*
X-169719Y517453D02*
G54D13*
D03*
X-195119Y492053D02*
G54D13*
D03*
X-195119Y517453D02*
G54D13*
D03*
X-220519Y492053D02*
G54D13*
D03*
X-220519Y517453D02*
G54D13*
D03*
X-65966Y361499D02*
G54D10*
D03*
X-65966Y437699D02*
G54D10*
D03*
X-63391Y556624D02*
G54D10*
D03*
X-63391Y531124D02*
G54D10*
D03*
X-62209Y322234D02*
G54D10*
D03*
X-62096Y271253D02*
G54D10*
D03*
X-65966Y221799D02*
G54D10*
D03*
X-65966Y120199D02*
G54D10*
D03*
X-13841Y155614D02*
G54D10*
D03*
X-13953Y206594D02*
G54D10*
D03*
X-11091Y80882D02*
G54D10*
D03*
X-62071Y80770D02*
G54D10*
D03*
X-62096Y271253D02*
G54D10*
D03*
X-13953Y206594D02*
G54D10*
D03*
X-62071Y80770D02*
G54D10*
D03*
X-271065Y416869D02*
G54D10*
D03*
X-118665Y467669D02*
G54D10*
D03*
X71620Y239729D02*
G54D11*
D03*
X147820Y239730D02*
G54D11*
D03*
X71620Y163530D02*
G54D11*
D03*
X71620Y112730D02*
G54D11*
D03*
X71620Y61930D02*
G54D11*
D03*
X147820Y163530D02*
G54D11*
D03*
X147820Y112730D02*
G54D11*
D03*
X147820Y61930D02*
G54D11*
D03*
X58920Y582630D02*
G54D11*
D03*
X135120Y582630D02*
G54D11*
D03*
X58920Y506430D02*
G54D11*
D03*
X58920Y455630D02*
G54D11*
D03*
X58920Y404830D02*
G54D11*
D03*
X135120Y506430D02*
G54D11*
D03*
X135120Y455630D02*
G54D11*
D03*
X135120Y404830D02*
G54D11*
D03*
X312920Y239730D02*
G54D11*
D03*
X389120Y239730D02*
G54D11*
D03*
X312920Y163530D02*
G54D11*
D03*
X312920Y112730D02*
G54D11*
D03*
X312920Y61930D02*
G54D11*
D03*
X389120Y163530D02*
G54D11*
D03*
X389120Y112730D02*
G54D11*
D03*
X389120Y61930D02*
G54D11*
D03*
X312920Y582630D02*
G54D11*
D03*
X389120Y582630D02*
G54D11*
D03*
X312920Y506430D02*
G54D11*
D03*
X312920Y455630D02*
G54D11*
D03*
X312920Y404830D02*
G54D11*
D03*
X389120Y506430D02*
G54D11*
D03*
X389120Y455630D02*
G54D11*
D03*
X389120Y404830D02*
G54D11*
D03*
X929255Y443165D02*
G54D11*
D03*
X929254Y519365D02*
G54D11*
D03*
X1005455Y443165D02*
G54D11*
D03*
X1056255Y443165D02*
G54D11*
D03*
X1107055Y443165D02*
G54D11*
D03*
X1005455Y519366D02*
G54D11*
D03*
X1056255Y519365D02*
G54D11*
D03*
X1107055Y519365D02*
G54D11*
D03*
X472055Y436815D02*
G54D11*
D03*
X472055Y513016D02*
G54D11*
D03*
X548255Y436816D02*
G54D11*
D03*
X599055Y436816D02*
G54D11*
D03*
X649855Y436815D02*
G54D11*
D03*
X548255Y513016D02*
G54D11*
D03*
X599055Y513016D02*
G54D11*
D03*
X649855Y513016D02*
G54D11*
D03*
X27057Y358617D02*
G54D10*
D03*
X90557Y358617D02*
G54D10*
D03*
X58807Y298292D02*
G54D10*
D03*
X135120Y201630D02*
G54D10*
D03*
X120280Y356826D02*
G54D10*
D03*
X183781Y356826D02*
G54D10*
D03*
X152030Y296501D02*
G54D10*
D03*
X183781Y356826D02*
G54D10*
D03*
X58807Y298292D02*
G54D10*
D03*
X255657Y358617D02*
G54D10*
D03*
X319157Y358617D02*
G54D10*
D03*
X287407Y298292D02*
G54D10*
D03*
X348880Y356826D02*
G54D10*
D03*
X412381Y356826D02*
G54D10*
D03*
X380630Y296501D02*
G54D10*
D03*
X380630Y296501D02*
G54D10*
D03*
X287407Y298292D02*
G54D10*
D03*
X700158Y460217D02*
G54D10*
D03*
X763658Y460217D02*
G54D10*
D03*
X731908Y399892D02*
G54D10*
D03*
X793380Y458426D02*
G54D10*
D03*
X856880Y458426D02*
G54D10*
D03*
X825130Y398101D02*
G54D10*
D03*
X856881Y458426D02*
G54D10*
D03*
X731908Y399892D02*
G54D10*
D03*
X-271065Y416869D02*
G54D15*
D03*
X173740Y488548D02*
G54D16*
D03*
X173740Y590148D02*
G54D16*
D03*
X174565Y396638D02*
G54D10*
D03*
X174453Y447619D02*
G54D10*
D03*
X173740Y488548D02*
G54D10*
D03*
X173740Y488548D02*
G54D15*
D03*
X174565Y396638D02*
G54D15*
D03*
X275340Y488548D02*
G54D16*
D03*
X275340Y590148D02*
G54D16*
D03*
X276165Y396638D02*
G54D10*
D03*
X276053Y447619D02*
G54D10*
D03*
X275340Y488548D02*
G54D10*
D03*
X275340Y488548D02*
G54D15*
D03*
X276165Y396638D02*
G54D15*
D03*
X186440Y158348D02*
G54D16*
D03*
X186440Y259948D02*
G54D16*
D03*
X187265Y66438D02*
G54D10*
D03*
X187153Y117418D02*
G54D10*
D03*
X186440Y158348D02*
G54D10*
D03*
X186440Y158348D02*
G54D15*
D03*
X187265Y66438D02*
G54D15*
D03*
X272442Y164285D02*
G54D16*
D03*
X272442Y265885D02*
G54D16*
D03*
X233897Y205725D02*
G54D10*
D03*
X233785Y256706D02*
G54D10*
D03*
X233897Y205725D02*
G54D15*
D03*
X272442Y164285D02*
G54D15*
D03*
X559249Y565846D02*
G54D16*
D03*
X457649Y565846D02*
G54D16*
D03*
X651159Y566671D02*
G54D10*
D03*
X600179Y566559D02*
G54D10*
D03*
X559249Y565846D02*
G54D10*
D03*
X559249Y565846D02*
G54D15*
D03*
X651159Y566671D02*
G54D15*
D03*
X1029149Y565846D02*
G54D16*
D03*
X927549Y565846D02*
G54D16*
D03*
X1121059Y566671D02*
G54D10*
D03*
X1070079Y566559D02*
G54D10*
D03*
X1029149Y565846D02*
G54D10*
D03*
X1029149Y565846D02*
G54D15*
D03*
X1121059Y566671D02*
G54D15*
D03*
X135120Y582630D02*
G54D10*
D03*
X147820Y239730D02*
G54D10*
D03*
X389120Y582630D02*
G54D10*
D03*
X389120Y239730D02*
G54D10*
D03*
X472055Y436815D02*
G54D10*
D03*
X929255Y443165D02*
G54D10*
D03*
X152030Y296501D02*
G54D10*
D03*
X825130Y398101D02*
G54D10*
D03*
X-398280Y566630D02*
G54D10*
D03*
X-372880Y566630D02*
G54D10*
D03*
X-372880Y566630D02*
G54D10*
D03*
X-347480Y566630D02*
G54D10*
D03*
X-296680Y566630D02*
G54D10*
D03*
X-296680Y566630D02*
G54D10*
D03*
X-271280Y566630D02*
G54D10*
D03*
X-271280Y566630D02*
G54D10*
D03*
X-245880Y566630D02*
G54D10*
D03*
X-322080Y566630D02*
G54D10*
D03*
X-418600Y-365550D02*
G54D17*
D03*
X-418600Y459950D02*
G54D17*
D03*
X1118100Y-365550D02*
G54D17*
D03*
X1092700Y371050D02*
G54D17*
D03*
G36*
X-425250Y266700D02*
X-399250Y266700D01*
X-399250Y240700D01*
X-425250Y240700D01*
X-425250Y266700D01*
G37*
G36*
X-426520Y63500D02*
X-400520Y63500D01*
X-400520Y37500D01*
X-426520Y37500D01*
X-426520Y63500D01*
G37*
G36*
X-431600Y-152400D02*
X-405600Y-152400D01*
X-405600Y-178400D01*
X-431600Y-178400D01*
X-431600Y-152400D01*
G37*
G36*
X-279200Y-355600D02*
X-253200Y-355600D01*
X-253200Y-381600D01*
X-279200Y-381600D01*
X-279200Y-355600D01*
G37*
G36*
X200Y-355600D02*
X26200Y-355600D01*
X26200Y-381600D01*
X200Y-381600D01*
X200Y-355600D01*
G37*
G36*
X292300Y-355600D02*
X318300Y-355600D01*
X318300Y-381600D01*
X292300Y-381600D01*
X292300Y-355600D01*
G37*
G36*
X1023800Y-226600D02*
X1049800Y-226600D01*
X1049800Y-252600D01*
X1023800Y-252600D01*
X1023800Y-226600D01*
G37*
G36*
X-190300Y596900D02*
X-164300Y596900D01*
X-164300Y570900D01*
X-190300Y570900D01*
X-190300Y596900D01*
G37*
X-312930Y-50220D02*
G54D11*
D03*
X-262130Y-50220D02*
G54D11*
D03*
X-287530Y-75620D02*
G54D11*
D03*
X-262130Y-101020D02*
G54D11*
D03*
X-312930Y-101020D02*
G54D11*
D03*
X-312930Y-228020D02*
G54D18*
D03*
X-262130Y-228020D02*
G54D10*
D03*
X-262130Y-291520D02*
G54D10*
D03*
X-312930Y-291520D02*
G54D10*
D03*
X-262130Y-228020D02*
G54D18*
D03*
X-312930Y-291520D02*
G54D18*
D03*
X-262130Y-291520D02*
G54D18*
D03*
X-312930Y-151820D02*
G54D10*
D03*
X-344497Y308527D02*
G54D10*
D03*
X-344547Y232277D02*
G54D10*
D03*
X-347000Y192000D02*
G54D10*
D03*
X-346000Y119000D02*
G54D10*
D03*
X-346000Y119000D02*
G54D10*
D03*
X503Y521527D02*
G54D10*
D03*
X453Y445277D02*
G54D10*
D03*
X-28000Y523000D02*
G54D10*
D03*
X-27000Y450000D02*
G54D10*
D03*
X903159Y372282D02*
G54D10*
D03*
X979409Y372232D02*
G54D10*
D03*
X901686Y343779D02*
G54D10*
D03*
X974686Y344779D02*
G54D10*
D03*
X241503Y535527D02*
G54D10*
D03*
X241453Y459277D02*
G54D10*
D03*
X213000Y537000D02*
G54D10*
D03*
X214000Y464000D02*
G54D10*
D03*
X-140058Y586605D02*
G54D19*
D03*
X17942Y593605D02*
G54D19*
D03*
X244942Y592605D02*
G54D19*
D03*
X434942Y548605D02*
G54D19*
D03*
X479787Y270217D02*
G54D10*
D03*
X479674Y321197D02*
G54D10*
D03*
X479674Y321197D02*
G54D10*
D03*
X-229058Y417605D02*
G54D10*
D03*
X960942Y-2395D02*
G54D19*
D03*
X1038942Y-159395D02*
G54D19*
D03*
X865942Y-10395D02*
G54D19*
D03*
X865942Y-199395D02*
G54D19*
D03*
X854942Y299605D02*
G54D19*
D03*
X-229058Y-5395D02*
G54D19*
D03*
X-243058Y-334395D02*
G54D19*
D03*
X-241058Y-177395D02*
G54D19*
D03*
X1135942Y35605D02*
G54D10*
D03*
X1135942Y9605D02*
G54D10*
D03*
X1135942Y-16395D02*
G54D10*
D03*
X1135942Y-43395D02*
G54D10*
D03*
X1135942Y-70395D02*
G54D10*
D03*
X1136942Y-95395D02*
G54D10*
D03*
X1137942Y-119395D02*
G54D10*
D03*
X1138942Y-145395D02*
G54D10*
D03*
X1139442Y-170395D02*
G54D10*
D03*
X1038942Y-5395D02*
G54D10*
D03*
X997942Y-6395D02*
G54D10*
D03*
M02*
