%FSLAX34Y34*%
%MOMM*%
%LNCOPPER_TOP*%
G71*
G01*
%ADD10C,2.800*%
%ADD11C,3.200*%
%ADD12C,3.000*%
%ADD13C,1.400*%
%ADD14C,2.700*%
%ADD15C,2.450*%
%ADD16C,2.800*%
%ADD17C,2.700*%
%ADD18C,1.100*%
%ADD19C,3.200*%
%ADD20C,2.800*%
%ADD21C,1.700*%
%ADD22C,1.800*%
%ADD23C,2.000*%
%ADD24C,1.000*%
%ADD25C,0.667*%
%ADD26C,0.813*%
%ADD27C,0.767*%
%ADD28C,0.733*%
%ADD29C,1.713*%
%ADD30C,1.360*%
%ADD31C,1.587*%
%ADD32C,1.627*%
%ADD33C,0.787*%
%ADD34C,1.447*%
%ADD35C,1.200*%
%ADD36C,2.230*%
%ADD37C,0.827*%
%ADD38C,2.000*%
%ADD39C,2.200*%
%ADD40C,0.600*%
%ADD41C,1.900*%
%ADD42C,1.650*%
%ADD43C,2.000*%
%ADD44C,1.900*%
%ADD45C,0.300*%
%ADD46C,3.000*%
%ADD47C,2.000*%
%ADD48C,0.900*%
%ADD49C,1.200*%
%ADD50C,0.200*%
%LPD*%
G36*
X-444000Y606000D02*
X1156000Y606000D01*
X1156000Y-394000D01*
X-444000Y-394000D01*
X-444000Y606000D01*
G37*
%LPC*%
X903470Y269830D02*
G54D10*
D03*
X878070Y269830D02*
G54D10*
D03*
X852670Y269830D02*
G54D10*
D03*
X808720Y265036D02*
G54D11*
D03*
X808833Y214055D02*
G54D11*
D03*
X620503Y277527D02*
G54D11*
D03*
X620453Y201277D02*
G54D11*
D03*
X669020Y271386D02*
G54D11*
D03*
X669133Y220405D02*
G54D11*
D03*
X436353Y277527D02*
G54D11*
D03*
X436303Y201277D02*
G54D11*
D03*
G36*
X559270Y-9920D02*
X587270Y-9920D01*
X587270Y-37920D01*
X559270Y-37920D01*
X559270Y-9920D01*
G37*
G36*
X559270Y15480D02*
X587270Y15480D01*
X587270Y-12520D01*
X559270Y-12520D01*
X559270Y15480D01*
G37*
G36*
X559270Y-194070D02*
X587270Y-194070D01*
X587270Y-222070D01*
X559270Y-222070D01*
X559270Y-194070D01*
G37*
G36*
X559270Y-168670D02*
X587270Y-168670D01*
X587270Y-196670D01*
X559270Y-196670D01*
X559270Y-168670D01*
G37*
X478053Y15438D02*
G54D11*
D03*
X427072Y15325D02*
G54D11*
D03*
X478053Y-190937D02*
G54D11*
D03*
X427072Y-191050D02*
G54D11*
D03*
X478053Y72588D02*
G54D11*
D03*
X427073Y72475D02*
G54D11*
D03*
X490753Y-305237D02*
G54D11*
D03*
X439773Y-305350D02*
G54D11*
D03*
X616751Y105950D02*
G54D11*
D03*
X540501Y106000D02*
G54D11*
D03*
X629451Y-338550D02*
G54D11*
D03*
X553201Y-338500D02*
G54D11*
D03*
X744720Y150830D02*
G54D10*
D03*
X744720Y87330D02*
G54D10*
D03*
X744720Y-312720D02*
G54D10*
D03*
X744720Y-376220D02*
G54D10*
D03*
X856020Y112730D02*
G54D10*
D03*
X820920Y112730D02*
G54D10*
D03*
X868720Y-331770D02*
G54D10*
D03*
X833620Y-331770D02*
G54D10*
D03*
X1013779Y260552D02*
G54D11*
D03*
X1039279Y260552D02*
G54D11*
D03*
X915113Y77935D02*
G54D11*
D03*
X915163Y154185D02*
G54D11*
D03*
X865520Y-49070D02*
G54D10*
D03*
X864020Y-159670D02*
G54D10*
D03*
X960620Y-46070D02*
G54D10*
D03*
X963620Y-165670D02*
G54D10*
D03*
X300220Y-39670D02*
G54D10*
D03*
X439920Y-39670D02*
G54D10*
D03*
X439920Y-128570D02*
G54D10*
D03*
X439920Y-84120D02*
G54D10*
D03*
X1102679Y260552D02*
G54D11*
D03*
X1128179Y260552D02*
G54D11*
D03*
X878070Y269830D02*
G54D10*
D03*
X808833Y214055D02*
G54D10*
D03*
X763770Y206330D02*
G54D10*
D03*
X669133Y220405D02*
G54D10*
D03*
X963620Y-165670D02*
G54D10*
D03*
X856020Y112730D02*
G54D10*
D03*
X915113Y77935D02*
G54D10*
D03*
X868720Y-331770D02*
G54D10*
D03*
X300220Y-128570D02*
G54D10*
D03*
X439920Y-84120D02*
G54D10*
D03*
X1015570Y-56920D02*
G54D12*
D03*
X1066370Y-56920D02*
G54D12*
D03*
X1040970Y-82320D02*
G54D12*
D03*
X1066370Y-107720D02*
G54D12*
D03*
X1015570Y-107720D02*
G54D12*
D03*
X300220Y-84120D02*
G54D10*
D03*
X808833Y214055D02*
G54D10*
D03*
X669133Y220405D02*
G54D10*
D03*
X915113Y77935D02*
G54D10*
D03*
X927813Y-379265D02*
G54D11*
D03*
X927863Y-303015D02*
G54D11*
D03*
X927813Y-379265D02*
G54D10*
D03*
G36*
X559270Y-219470D02*
X587270Y-219470D01*
X587270Y-247470D01*
X559270Y-247470D01*
X559270Y-219470D01*
G37*
G36*
X559270Y-35320D02*
X587270Y-35320D01*
X587270Y-63320D01*
X559270Y-63320D01*
X559270Y-35320D01*
G37*
G54D13*
X629451Y-338550D02*
X630420Y-338120D01*
X598670Y-306370D01*
X598670Y-230170D01*
X579620Y-211120D01*
X573270Y-211120D01*
X573270Y-208070D01*
X-271065Y493069D02*
G54D14*
D03*
X-271065Y467669D02*
G54D14*
D03*
X-271065Y442269D02*
G54D14*
D03*
X-271065Y416869D02*
G54D14*
D03*
X-271065Y391469D02*
G54D14*
D03*
X-271065Y366069D02*
G54D14*
D03*
X-271065Y340669D02*
G54D14*
D03*
X-271065Y315269D02*
G54D14*
D03*
X-271065Y289869D02*
G54D14*
D03*
X-271065Y264469D02*
G54D14*
D03*
X-271065Y239069D02*
G54D14*
D03*
X-271065Y213669D02*
G54D14*
D03*
X-271065Y188269D02*
G54D14*
D03*
X-271065Y162869D02*
G54D14*
D03*
X-271065Y137469D02*
G54D14*
D03*
X-118665Y493069D02*
G54D14*
D03*
X-118665Y467669D02*
G54D14*
D03*
X-118665Y442269D02*
G54D14*
D03*
X-118665Y416869D02*
G54D14*
D03*
X-118665Y391469D02*
G54D14*
D03*
X-118665Y366069D02*
G54D14*
D03*
X-118665Y340669D02*
G54D14*
D03*
X-118665Y315269D02*
G54D14*
D03*
X-118665Y289869D02*
G54D14*
D03*
X-118665Y264469D02*
G54D14*
D03*
X-118665Y239069D02*
G54D14*
D03*
X-118665Y213669D02*
G54D14*
D03*
X-118665Y188269D02*
G54D14*
D03*
X-118665Y162869D02*
G54D14*
D03*
X-118665Y137469D02*
G54D14*
D03*
X-118506Y518310D02*
G54D15*
D03*
X-270906Y518310D02*
G54D15*
D03*
X-169719Y492053D02*
G54D14*
D03*
X-169719Y517453D02*
G54D14*
D03*
X-195119Y492053D02*
G54D14*
D03*
X-195119Y517453D02*
G54D14*
D03*
X-220519Y492053D02*
G54D14*
D03*
X-220519Y517453D02*
G54D14*
D03*
X-65966Y361499D02*
G54D10*
D03*
X-65966Y437699D02*
G54D10*
D03*
X-63391Y556624D02*
G54D11*
D03*
X-63391Y531124D02*
G54D11*
D03*
X-62209Y322234D02*
G54D11*
D03*
X-62096Y271253D02*
G54D11*
D03*
X-65966Y221799D02*
G54D10*
D03*
X-65966Y120199D02*
G54D10*
D03*
X-13841Y155614D02*
G54D11*
D03*
X-13953Y206594D02*
G54D11*
D03*
X-11091Y80882D02*
G54D11*
D03*
X-62071Y80770D02*
G54D11*
D03*
X-62096Y271253D02*
G54D10*
D03*
X-13953Y206594D02*
G54D10*
D03*
X-62071Y80770D02*
G54D10*
D03*
X-271065Y416869D02*
G54D10*
D03*
X-118665Y467669D02*
G54D10*
D03*
G54D13*
X-13841Y155613D02*
X-15116Y157029D01*
X-40516Y182429D01*
X-40516Y277679D01*
X-46866Y284029D01*
X-46866Y442779D01*
X-97666Y493579D01*
X-116716Y493579D01*
X-118665Y493069D01*
X71620Y239729D02*
G54D12*
D03*
X147820Y239730D02*
G54D12*
D03*
X71620Y163530D02*
G54D12*
D03*
X71620Y112730D02*
G54D12*
D03*
X71620Y61930D02*
G54D12*
D03*
X147820Y163530D02*
G54D12*
D03*
X147820Y112730D02*
G54D12*
D03*
X147820Y61930D02*
G54D12*
D03*
X58920Y582630D02*
G54D12*
D03*
X135120Y582630D02*
G54D12*
D03*
X58920Y506430D02*
G54D12*
D03*
X58920Y455630D02*
G54D12*
D03*
X58920Y404830D02*
G54D12*
D03*
X135120Y506430D02*
G54D12*
D03*
X135120Y455630D02*
G54D12*
D03*
X135120Y404830D02*
G54D12*
D03*
X312920Y239730D02*
G54D12*
D03*
X389120Y239730D02*
G54D12*
D03*
X312920Y163530D02*
G54D12*
D03*
X312920Y112730D02*
G54D12*
D03*
X312920Y61930D02*
G54D12*
D03*
X389120Y163530D02*
G54D12*
D03*
X389120Y112730D02*
G54D12*
D03*
X389120Y61930D02*
G54D12*
D03*
X312920Y582630D02*
G54D12*
D03*
X389120Y582630D02*
G54D12*
D03*
X312920Y506430D02*
G54D12*
D03*
X312920Y455630D02*
G54D12*
D03*
X312920Y404830D02*
G54D12*
D03*
X389120Y506430D02*
G54D12*
D03*
X389120Y455630D02*
G54D12*
D03*
X389120Y404830D02*
G54D12*
D03*
X929255Y443165D02*
G54D12*
D03*
X929254Y519365D02*
G54D12*
D03*
X1005455Y443165D02*
G54D12*
D03*
X1056255Y443165D02*
G54D12*
D03*
X1107055Y443165D02*
G54D12*
D03*
X1005455Y519366D02*
G54D12*
D03*
X1056255Y519365D02*
G54D12*
D03*
X1107055Y519365D02*
G54D12*
D03*
X472055Y436815D02*
G54D12*
D03*
X472055Y513016D02*
G54D12*
D03*
X548255Y436816D02*
G54D12*
D03*
X599055Y436816D02*
G54D12*
D03*
X649855Y436815D02*
G54D12*
D03*
X548255Y513016D02*
G54D12*
D03*
X599055Y513016D02*
G54D12*
D03*
X649855Y513016D02*
G54D12*
D03*
X27057Y358617D02*
G54D10*
D03*
X90557Y358617D02*
G54D10*
D03*
X58807Y298292D02*
G54D10*
D03*
X135120Y201630D02*
G54D10*
D03*
X120280Y356826D02*
G54D10*
D03*
X183781Y356826D02*
G54D10*
D03*
X152030Y296501D02*
G54D10*
D03*
X183781Y356826D02*
G54D10*
D03*
X58807Y298292D02*
G54D10*
D03*
X255657Y358617D02*
G54D10*
D03*
X319157Y358617D02*
G54D10*
D03*
X287407Y298292D02*
G54D10*
D03*
X348880Y356826D02*
G54D10*
D03*
X412381Y356826D02*
G54D10*
D03*
X380630Y296501D02*
G54D10*
D03*
X380630Y296501D02*
G54D10*
D03*
X287407Y298292D02*
G54D10*
D03*
X700158Y460217D02*
G54D10*
D03*
X763658Y460217D02*
G54D10*
D03*
X731908Y399892D02*
G54D10*
D03*
X793380Y458426D02*
G54D10*
D03*
X856880Y458426D02*
G54D10*
D03*
X825130Y398101D02*
G54D10*
D03*
X856881Y458426D02*
G54D10*
D03*
X731908Y399892D02*
G54D10*
D03*
X-271065Y416869D02*
G54D16*
D03*
X173740Y488548D02*
G54D17*
D03*
X173740Y590148D02*
G54D17*
D03*
X174565Y396638D02*
G54D11*
D03*
X174453Y447619D02*
G54D11*
D03*
X173740Y488548D02*
G54D10*
D03*
X173740Y488548D02*
G54D16*
D03*
X174565Y396638D02*
G54D16*
D03*
X275340Y488548D02*
G54D17*
D03*
X275340Y590148D02*
G54D17*
D03*
X276165Y396638D02*
G54D11*
D03*
X276053Y447619D02*
G54D11*
D03*
X275340Y488548D02*
G54D10*
D03*
X275340Y488548D02*
G54D16*
D03*
X276165Y396638D02*
G54D16*
D03*
X186440Y158348D02*
G54D17*
D03*
X186440Y259948D02*
G54D17*
D03*
X187265Y66438D02*
G54D11*
D03*
X187153Y117418D02*
G54D11*
D03*
X186440Y158348D02*
G54D10*
D03*
X186440Y158348D02*
G54D16*
D03*
X187265Y66438D02*
G54D16*
D03*
X272442Y164285D02*
G54D17*
D03*
X272442Y265885D02*
G54D17*
D03*
X233897Y205725D02*
G54D11*
D03*
X233785Y256706D02*
G54D11*
D03*
X233897Y205725D02*
G54D16*
D03*
X272442Y164285D02*
G54D16*
D03*
X559249Y565846D02*
G54D17*
D03*
X457649Y565846D02*
G54D17*
D03*
X651159Y566671D02*
G54D11*
D03*
X600179Y566559D02*
G54D11*
D03*
X559249Y565846D02*
G54D10*
D03*
X559249Y565846D02*
G54D16*
D03*
X651159Y566671D02*
G54D16*
D03*
X1029149Y565846D02*
G54D17*
D03*
X927549Y565846D02*
G54D17*
D03*
X1121059Y566671D02*
G54D11*
D03*
X1070079Y566559D02*
G54D11*
D03*
X1029149Y565846D02*
G54D10*
D03*
X1029149Y565846D02*
G54D16*
D03*
X1121059Y566671D02*
G54D16*
D03*
X135120Y582630D02*
G54D10*
D03*
X147820Y239730D02*
G54D10*
D03*
X389120Y582630D02*
G54D10*
D03*
X389120Y239730D02*
G54D10*
D03*
X472055Y436815D02*
G54D10*
D03*
X929255Y443165D02*
G54D10*
D03*
X152030Y296501D02*
G54D10*
D03*
X825130Y398101D02*
G54D10*
D03*
G54D18*
X27057Y358617D02*
X27170Y357080D01*
X39870Y344380D01*
X39870Y293580D01*
X46220Y287230D01*
X46220Y280880D01*
X52570Y274530D01*
X52570Y230080D01*
X71620Y211030D01*
X71620Y166580D01*
X71620Y163530D01*
G54D18*
X120280Y356826D02*
X122420Y357080D01*
X116070Y350730D01*
X116070Y191980D01*
X141470Y166580D01*
X147820Y166580D01*
X147820Y163530D01*
G54D18*
X186440Y259948D02*
X185920Y261830D01*
X166870Y242780D01*
X166870Y153880D01*
X160520Y147530D01*
X135120Y147530D01*
X77970Y204680D01*
X77970Y217380D01*
X71620Y223730D01*
X71620Y242780D01*
X71620Y239729D01*
G54D18*
X90557Y358617D02*
X90670Y357080D01*
X135120Y401530D01*
X135120Y407880D01*
X135120Y404830D01*
G54D18*
X183781Y356826D02*
X185920Y357080D01*
X135120Y407880D01*
X135120Y404830D01*
G54D18*
X186440Y259948D02*
X185920Y261830D01*
X198620Y274530D01*
X198620Y401530D01*
X192270Y407880D01*
X192270Y496780D01*
X173220Y515830D01*
X173220Y592030D01*
X173740Y590148D01*
G54D18*
X174453Y447619D02*
X173220Y445980D01*
X192270Y465030D01*
X192270Y496780D01*
X173220Y515830D01*
X173220Y592030D01*
X173740Y590148D01*
G54D18*
X135120Y506430D02*
X135120Y509480D01*
X77970Y452330D01*
X77970Y445980D01*
X52570Y420580D01*
X46220Y420580D01*
X8120Y382480D01*
X8120Y350730D01*
X33520Y325330D01*
X33520Y287230D01*
X39870Y280880D01*
X39870Y274530D01*
X46220Y268180D01*
X46220Y223730D01*
X52570Y217380D01*
X52570Y153880D01*
X71620Y134830D01*
X192270Y134830D01*
X243070Y185630D01*
X630420Y185630D01*
X649470Y204680D01*
X649470Y230080D01*
X687570Y268180D01*
X808220Y268180D01*
X808720Y265036D01*
G54D18*
X319157Y358617D02*
X319270Y357080D01*
X370070Y407880D01*
X389120Y407880D01*
X389120Y404830D01*
G54D18*
X412381Y356826D02*
X414520Y357080D01*
X389120Y382480D01*
X389120Y407880D01*
X389120Y404830D01*
G54D18*
X348880Y356826D02*
X351020Y357080D01*
X420870Y287230D01*
X420870Y268180D01*
X433570Y255480D01*
X484370Y255480D01*
X490720Y261830D01*
X630420Y261830D01*
X655820Y287230D01*
X674870Y287230D01*
X681220Y280880D01*
X814570Y280880D01*
X827270Y268180D01*
X827270Y261830D01*
X795520Y230080D01*
X757420Y230080D01*
X693920Y166580D01*
X389120Y166580D01*
X389120Y163530D01*
G54D18*
X312920Y582630D02*
X312920Y585680D01*
X331970Y566630D01*
X331970Y395180D01*
X300220Y363430D01*
X300220Y350730D01*
X312920Y338030D01*
X312920Y242780D01*
X312920Y239730D01*
G54D18*
X389120Y506430D02*
X389120Y509480D01*
X452620Y445980D01*
X452620Y426930D01*
X585970Y293580D01*
X681220Y293580D01*
X687570Y287230D01*
X820920Y287230D01*
X833620Y274530D01*
X833620Y255480D01*
X827270Y249130D01*
X827270Y198330D01*
X795520Y166580D01*
X738370Y166580D01*
X719320Y147530D01*
X376420Y147530D01*
X370070Y153880D01*
X370070Y172930D01*
X446270Y249130D01*
X490720Y249130D01*
X497070Y255480D01*
X674870Y255480D01*
X687570Y268180D01*
X808220Y268180D01*
X808720Y265036D01*
G54D18*
X548255Y436816D02*
X547870Y439630D01*
X700270Y287230D01*
X820920Y287230D01*
X833620Y274530D01*
X833620Y255480D01*
X827270Y249130D01*
X827270Y198330D01*
X795520Y166580D01*
X738370Y166580D01*
X719320Y147530D01*
X376420Y147530D01*
X370070Y153880D01*
X370070Y172930D01*
X382770Y185630D01*
X446270Y185630D01*
X466320Y184680D01*
X487370Y190680D01*
X521942Y210605D01*
X535170Y255480D01*
X674870Y255480D01*
X687570Y268180D01*
X808220Y268180D01*
X808720Y265036D01*
G54D18*
X457649Y565846D02*
X458970Y566630D01*
X471670Y553930D01*
X471670Y515830D01*
X472055Y513016D01*
G54D18*
X600179Y566559D02*
X598670Y566630D01*
X579620Y585680D01*
X547870Y585680D01*
X528820Y566630D01*
X458970Y566630D01*
X457649Y565846D01*
G54D18*
X173740Y590148D02*
X173220Y592030D01*
X141470Y560280D01*
X128770Y560280D01*
X103370Y585680D01*
X58920Y585680D01*
X58920Y582630D01*
G54D18*
X275340Y590148D02*
X274820Y592030D01*
X281170Y585680D01*
X312920Y585680D01*
X312920Y582630D01*
G54D18*
X71620Y61930D02*
X71620Y64980D01*
X135120Y1480D01*
X135120Y-17570D01*
X141470Y-23920D01*
X306570Y-23920D01*
X395470Y-112820D01*
X827270Y-112820D01*
X856942Y-117395D01*
X872020Y-99070D01*
X883370Y-83070D01*
X890770Y-55670D01*
X890770Y84030D01*
X897120Y90380D01*
X897120Y160230D01*
X922520Y185630D01*
X922520Y274530D01*
X700270Y496780D01*
X465320Y496780D01*
X439920Y522180D01*
X376420Y522180D01*
X370070Y515830D01*
X370070Y445980D01*
X395470Y420580D01*
X401820Y420580D01*
X433570Y388830D01*
X433570Y274530D01*
X436353Y277527D01*
G54D18*
X312920Y61930D02*
X312920Y64980D01*
X439920Y-62020D01*
X446270Y-62020D01*
X497070Y-112820D01*
X827270Y-112820D01*
X856942Y-117395D01*
X872020Y-99070D01*
X883370Y-83070D01*
X890770Y-55670D01*
X890770Y84030D01*
X897120Y90380D01*
X897120Y160230D01*
X922520Y185630D01*
X922520Y274530D01*
X700270Y496780D01*
X465320Y496780D01*
X439920Y522180D01*
X376420Y522180D01*
X370070Y515830D01*
X370070Y445980D01*
X395470Y420580D01*
X401820Y420580D01*
X433570Y388830D01*
X433570Y274530D01*
X436353Y277527D01*
G54D18*
X478520Y271386D02*
X478020Y274530D01*
X433570Y274530D01*
X436353Y277527D01*
G54D18*
X472055Y513016D02*
X471670Y515830D01*
X497070Y541230D01*
X1049520Y541230D01*
X1055870Y534880D01*
X1068570Y534880D01*
X1074920Y528530D01*
X1074920Y509480D01*
X1068570Y503130D01*
X998720Y503130D01*
X979670Y522180D01*
X928870Y522180D01*
X929254Y519365D01*
G54D18*
X1107055Y519365D02*
X1106670Y522180D01*
X1081270Y496780D01*
X465320Y496780D01*
X439920Y522180D01*
X376420Y522180D01*
X370070Y515830D01*
X370070Y496780D01*
X395470Y471380D01*
X401820Y471380D01*
X433570Y439630D01*
X433570Y274530D01*
X436353Y277527D01*
X-398280Y566630D02*
G54D10*
D03*
X-372880Y566630D02*
G54D10*
D03*
X-372880Y566630D02*
G54D10*
D03*
X-347480Y566630D02*
G54D10*
D03*
X-296680Y566630D02*
G54D10*
D03*
X-296680Y566630D02*
G54D10*
D03*
X-271280Y566630D02*
G54D10*
D03*
X-271280Y566630D02*
G54D10*
D03*
X-245880Y566630D02*
G54D10*
D03*
G54D18*
X-398280Y566630D02*
X-366530Y534880D01*
X-264930Y534880D01*
X-239530Y509480D01*
X-239530Y490430D01*
X-137930Y388830D01*
X-118880Y388830D01*
X-118665Y391469D01*
G54D18*
X-372880Y566630D02*
X-391930Y585680D01*
X-404630Y585680D01*
X-417330Y572980D01*
X-417330Y560280D01*
X-296680Y439630D01*
X-296680Y191980D01*
X-290330Y185630D01*
X-290330Y134830D01*
X-277630Y122130D01*
X-264930Y122130D01*
X-137930Y249130D01*
X-137930Y344380D01*
X-118880Y363430D01*
X-118665Y366069D01*
G54D18*
X-347480Y566630D02*
X-372880Y592030D01*
X-410980Y592030D01*
X-423680Y579330D01*
X-423680Y553930D01*
X-303030Y433280D01*
X-303030Y185630D01*
X-296680Y179280D01*
X-296680Y128480D01*
X-283980Y115780D01*
X-258580Y115780D01*
X-252230Y122130D01*
X-112530Y122130D01*
X-99830Y134830D01*
X-99830Y318980D01*
X-118880Y338030D01*
X-118665Y340669D01*
X-322080Y566630D02*
G54D10*
D03*
X-418600Y-365550D02*
G54D19*
D03*
X-418600Y459950D02*
G54D19*
D03*
X1118100Y-365550D02*
G54D19*
D03*
X1092700Y371050D02*
G54D19*
D03*
G36*
X-426250Y267700D02*
X-398250Y267700D01*
X-398250Y239700D01*
X-426250Y239700D01*
X-426250Y267700D01*
G37*
G36*
X-427520Y64500D02*
X-399520Y64500D01*
X-399520Y36500D01*
X-427520Y36500D01*
X-427520Y64500D01*
G37*
G36*
X-432600Y-151400D02*
X-404600Y-151400D01*
X-404600Y-179400D01*
X-432600Y-179400D01*
X-432600Y-151400D01*
G37*
G36*
X-280200Y-354600D02*
X-252200Y-354600D01*
X-252200Y-382600D01*
X-280200Y-382600D01*
X-280200Y-354600D01*
G37*
G36*
X-800Y-354600D02*
X27200Y-354600D01*
X27200Y-382600D01*
X-800Y-382600D01*
X-800Y-354600D01*
G37*
G36*
X291300Y-354600D02*
X319300Y-354600D01*
X319300Y-382600D01*
X291300Y-382600D01*
X291300Y-354600D01*
G37*
G36*
X1022800Y-225600D02*
X1050800Y-225600D01*
X1050800Y-253600D01*
X1022800Y-253600D01*
X1022800Y-225600D01*
G37*
G36*
X-191300Y597900D02*
X-163300Y597900D01*
X-163300Y569900D01*
X-191300Y569900D01*
X-191300Y597900D01*
G37*
X-312930Y-50220D02*
G54D12*
D03*
X-262130Y-50220D02*
G54D12*
D03*
X-287530Y-75620D02*
G54D12*
D03*
X-262130Y-101020D02*
G54D12*
D03*
X-312930Y-101020D02*
G54D12*
D03*
X-312930Y-228020D02*
G54D20*
D03*
X-262130Y-228020D02*
G54D10*
D03*
X-262130Y-291520D02*
G54D10*
D03*
X-312930Y-291520D02*
G54D10*
D03*
X-262130Y-228020D02*
G54D20*
D03*
X-312930Y-291520D02*
G54D20*
D03*
X-262130Y-291520D02*
G54D20*
D03*
X-312930Y-151820D02*
G54D10*
D03*
G54D13*
X-262130Y-228020D02*
X-312930Y-228020D01*
G54D13*
X-262130Y-291520D02*
X-312930Y-291520D01*
G54D21*
X616751Y105950D02*
X614862Y106731D01*
X614462Y73331D01*
X603462Y-4569D01*
X570412Y-26619D01*
X573270Y-23920D01*
X-344497Y308527D02*
G54D11*
D03*
X-344547Y232277D02*
G54D11*
D03*
X-347000Y192000D02*
G54D10*
D03*
X-346000Y119000D02*
G54D10*
D03*
X-346000Y119000D02*
G54D10*
D03*
X503Y521527D02*
G54D11*
D03*
X453Y445277D02*
G54D11*
D03*
X-28000Y523000D02*
G54D10*
D03*
X-27000Y450000D02*
G54D10*
D03*
X903159Y372282D02*
G54D11*
D03*
X979409Y372232D02*
G54D11*
D03*
X901686Y343779D02*
G54D10*
D03*
X974686Y344779D02*
G54D10*
D03*
X241503Y535527D02*
G54D11*
D03*
X241453Y459277D02*
G54D11*
D03*
X213000Y537000D02*
G54D10*
D03*
X214000Y464000D02*
G54D10*
D03*
G54D13*
X903159Y372282D02*
X900000Y372000D01*
X948000Y324000D01*
X988000Y324000D01*
X1012000Y348000D01*
X1108000Y348000D01*
X1124000Y364000D01*
X1124000Y532000D01*
X1116000Y540000D01*
X996000Y540000D01*
X972000Y516000D01*
X932000Y516000D01*
X929254Y519365D01*
G54D13*
X901686Y343779D02*
X900000Y340000D01*
X900000Y372000D01*
X903159Y372282D01*
G54D22*
X865520Y-49070D02*
X864942Y-51895D01*
X859942Y-78395D01*
X846942Y-96895D01*
X716942Y-94895D01*
X622942Y-93895D01*
X608942Y-78395D01*
X608942Y-39395D01*
X576942Y-27895D01*
X573270Y-23920D01*
G54D22*
X864020Y-162670D02*
X864942Y-158895D01*
X855942Y-143395D01*
X805942Y-131895D01*
X653942Y-125895D01*
X618942Y-133895D01*
X610942Y-191395D01*
X573270Y-208070D01*
X-140058Y586605D02*
G54D23*
D03*
G54D24*
X-140058Y586605D02*
X-139058Y587605D01*
X-139058Y463605D01*
X-135058Y459605D01*
X-135058Y435605D01*
X-119058Y419605D01*
X-119058Y415605D01*
X-118665Y416869D01*
X17942Y593605D02*
G54D23*
D03*
X244942Y592605D02*
G54D23*
D03*
X434942Y548605D02*
G54D23*
D03*
X479787Y270217D02*
G54D11*
D03*
X479674Y321197D02*
G54D11*
D03*
X479674Y321197D02*
G54D10*
D03*
X-229058Y417605D02*
G54D10*
D03*
G54D22*
X-262130Y-228020D02*
X-264058Y-231395D01*
X-72058Y-39395D01*
X303942Y-39395D01*
X300220Y-39670D01*
G54D22*
X-262130Y-291520D02*
X-264058Y-295395D01*
X-96058Y-127395D01*
X303942Y-127395D01*
X300220Y-128570D01*
X960942Y-2395D02*
G54D23*
D03*
X1038942Y-159395D02*
G54D23*
D03*
X865942Y-10395D02*
G54D23*
D03*
X865942Y-199395D02*
G54D23*
D03*
X854942Y299605D02*
G54D23*
D03*
X-229058Y-5395D02*
G54D23*
D03*
X-243058Y-334395D02*
G54D23*
D03*
X-241058Y-177395D02*
G54D23*
D03*
G54D22*
X-241058Y-177395D02*
X-240058Y-175395D01*
X-264058Y-199395D01*
X-264058Y-231395D01*
X-262130Y-228020D01*
G54D22*
X-243058Y-334395D02*
X-240058Y-335395D01*
X-264058Y-311395D01*
X-264058Y-295395D01*
X-262130Y-291520D01*
X1135942Y35605D02*
G54D10*
D03*
X1135942Y9605D02*
G54D10*
D03*
X1135942Y-16395D02*
G54D10*
D03*
X1135942Y-43395D02*
G54D10*
D03*
X1135942Y-70395D02*
G54D10*
D03*
X1136942Y-95395D02*
G54D10*
D03*
X1137942Y-119395D02*
G54D10*
D03*
X1138942Y-145395D02*
G54D10*
D03*
X1139442Y-170395D02*
G54D10*
D03*
X1038942Y-5395D02*
G54D10*
D03*
X997942Y-6395D02*
G54D10*
D03*
%LPD*%
G54D25*
G36*
X1010446Y260552D02*
X1010446Y277052D01*
X1017112Y277052D01*
X1017112Y260552D01*
X1010446Y260552D01*
G37*
G54D26*
G54D25*
G36*
X1099346Y260552D02*
X1099346Y277052D01*
X1106012Y277052D01*
X1106012Y260552D01*
X1099346Y260552D01*
G37*
G54D26*
G54D27*
G36*
X874237Y269830D02*
X874237Y284330D01*
X881903Y284330D01*
X881903Y269830D01*
X874237Y269830D01*
G37*
G36*
X878070Y273663D02*
X892570Y273663D01*
X892570Y265997D01*
X878070Y265997D01*
X878070Y273663D01*
G37*
G36*
X881903Y269830D02*
X881903Y255330D01*
X874237Y255330D01*
X874237Y269830D01*
X881903Y269830D01*
G37*
G36*
X878070Y265997D02*
X863570Y265997D01*
X863570Y273663D01*
X878070Y273663D01*
X878070Y265997D01*
G37*
G54D27*
G36*
X805000Y214055D02*
X805000Y228555D01*
X812666Y228555D01*
X812666Y214055D01*
X805000Y214055D01*
G37*
G36*
X808833Y217888D02*
X823333Y217888D01*
X823333Y210222D01*
X808833Y210222D01*
X808833Y217888D01*
G37*
G36*
X812666Y214055D02*
X812666Y199555D01*
X805000Y199555D01*
X805000Y214055D01*
X812666Y214055D01*
G37*
G36*
X808833Y210222D02*
X794333Y210222D01*
X794333Y217888D01*
X808833Y217888D01*
X808833Y210222D01*
G37*
G54D27*
G36*
X759937Y206330D02*
X759937Y220830D01*
X767603Y220830D01*
X767603Y206330D01*
X759937Y206330D01*
G37*
G36*
X763770Y210163D02*
X778270Y210163D01*
X778270Y202497D01*
X763770Y202497D01*
X763770Y210163D01*
G37*
G36*
X767603Y206330D02*
X767603Y191830D01*
X759937Y191830D01*
X759937Y206330D01*
X767603Y206330D01*
G37*
G36*
X763770Y202497D02*
X749270Y202497D01*
X749270Y210163D01*
X763770Y210163D01*
X763770Y202497D01*
G37*
G54D27*
G36*
X665300Y220405D02*
X665300Y234905D01*
X672966Y234905D01*
X672966Y220405D01*
X665300Y220405D01*
G37*
G36*
X669133Y224238D02*
X683633Y224238D01*
X683633Y216572D01*
X669133Y216572D01*
X669133Y224238D01*
G37*
G36*
X672966Y220405D02*
X672966Y205905D01*
X665300Y205905D01*
X665300Y220405D01*
X672966Y220405D01*
G37*
G36*
X669133Y216572D02*
X654633Y216572D01*
X654633Y224238D01*
X669133Y224238D01*
X669133Y216572D01*
G37*
G54D27*
G36*
X959787Y-165670D02*
X959787Y-151170D01*
X967453Y-151170D01*
X967453Y-165670D01*
X959787Y-165670D01*
G37*
G36*
X963620Y-161837D02*
X978120Y-161837D01*
X978120Y-169503D01*
X963620Y-169503D01*
X963620Y-161837D01*
G37*
G36*
X967453Y-165670D02*
X967453Y-180170D01*
X959787Y-180170D01*
X959787Y-165670D01*
X967453Y-165670D01*
G37*
G36*
X963620Y-169503D02*
X949120Y-169503D01*
X949120Y-161837D01*
X963620Y-161837D01*
X963620Y-169503D01*
G37*
G54D27*
G36*
X852187Y112730D02*
X852187Y127230D01*
X859853Y127230D01*
X859853Y112730D01*
X852187Y112730D01*
G37*
G36*
X856020Y116563D02*
X870520Y116563D01*
X870520Y108897D01*
X856020Y108897D01*
X856020Y116563D01*
G37*
G36*
X859853Y112730D02*
X859853Y98230D01*
X852187Y98230D01*
X852187Y112730D01*
X859853Y112730D01*
G37*
G36*
X856020Y108897D02*
X841520Y108897D01*
X841520Y116563D01*
X856020Y116563D01*
X856020Y108897D01*
G37*
G54D27*
G36*
X911280Y77935D02*
X911280Y92435D01*
X918946Y92435D01*
X918946Y77935D01*
X911280Y77935D01*
G37*
G36*
X915113Y81768D02*
X929613Y81768D01*
X929613Y74102D01*
X915113Y74102D01*
X915113Y81768D01*
G37*
G36*
X918946Y77935D02*
X918946Y63435D01*
X911280Y63435D01*
X911280Y77935D01*
X918946Y77935D01*
G37*
G36*
X915113Y74102D02*
X900613Y74102D01*
X900613Y81768D01*
X915113Y81768D01*
X915113Y74102D01*
G37*
G54D27*
G36*
X864887Y-331770D02*
X864887Y-317270D01*
X872553Y-317270D01*
X872553Y-331770D01*
X864887Y-331770D01*
G37*
G36*
X868720Y-327937D02*
X883220Y-327937D01*
X883220Y-335603D01*
X868720Y-335603D01*
X868720Y-327937D01*
G37*
G36*
X872553Y-331770D02*
X872553Y-346270D01*
X864887Y-346270D01*
X864887Y-331770D01*
X872553Y-331770D01*
G37*
G36*
X868720Y-335603D02*
X854220Y-335603D01*
X854220Y-327937D01*
X868720Y-327937D01*
X868720Y-335603D01*
G37*
G54D27*
G36*
X436087Y-84120D02*
X436087Y-69620D01*
X443753Y-69620D01*
X443753Y-84120D01*
X436087Y-84120D01*
G37*
G36*
X439920Y-80287D02*
X454420Y-80287D01*
X454420Y-87953D01*
X439920Y-87953D01*
X439920Y-80287D01*
G37*
G36*
X443753Y-84120D02*
X443753Y-98620D01*
X436087Y-98620D01*
X436087Y-84120D01*
X443753Y-84120D01*
G37*
G36*
X439920Y-87953D02*
X425420Y-87953D01*
X425420Y-80287D01*
X439920Y-80287D01*
X439920Y-87953D01*
G37*
G54D28*
G36*
X1011903Y-56920D02*
X1011903Y-41420D01*
X1019237Y-41420D01*
X1019237Y-56920D01*
X1011903Y-56920D01*
G37*
G36*
X1015570Y-53253D02*
X1031070Y-53253D01*
X1031070Y-60587D01*
X1015570Y-60587D01*
X1015570Y-53253D01*
G37*
G36*
X1019237Y-56920D02*
X1019237Y-72420D01*
X1011903Y-72420D01*
X1011903Y-56920D01*
X1019237Y-56920D01*
G37*
G36*
X1015570Y-60587D02*
X1000070Y-60587D01*
X1000070Y-53253D01*
X1015570Y-53253D01*
X1015570Y-60587D01*
G37*
G54D28*
G36*
X1062703Y-56920D02*
X1062703Y-41420D01*
X1070037Y-41420D01*
X1070037Y-56920D01*
X1062703Y-56920D01*
G37*
G36*
X1066370Y-53253D02*
X1081870Y-53253D01*
X1081870Y-60587D01*
X1066370Y-60587D01*
X1066370Y-53253D01*
G37*
G36*
X1070037Y-56920D02*
X1070037Y-72420D01*
X1062703Y-72420D01*
X1062703Y-56920D01*
X1070037Y-56920D01*
G37*
G36*
X1066370Y-60587D02*
X1050870Y-60587D01*
X1050870Y-53253D01*
X1066370Y-53253D01*
X1066370Y-60587D01*
G37*
G54D28*
G36*
X1062703Y-107720D02*
X1062703Y-92220D01*
X1070037Y-92220D01*
X1070037Y-107720D01*
X1062703Y-107720D01*
G37*
G36*
X1066370Y-104053D02*
X1081870Y-104053D01*
X1081870Y-111387D01*
X1066370Y-111387D01*
X1066370Y-104053D01*
G37*
G36*
X1070037Y-107720D02*
X1070037Y-123220D01*
X1062703Y-123220D01*
X1062703Y-107720D01*
X1070037Y-107720D01*
G37*
G36*
X1066370Y-111387D02*
X1050870Y-111387D01*
X1050870Y-104053D01*
X1066370Y-104053D01*
X1066370Y-111387D01*
G37*
G54D28*
G36*
X1011903Y-107720D02*
X1011903Y-92220D01*
X1019237Y-92220D01*
X1019237Y-107720D01*
X1011903Y-107720D01*
G37*
G36*
X1015570Y-104053D02*
X1031070Y-104053D01*
X1031070Y-111387D01*
X1015570Y-111387D01*
X1015570Y-104053D01*
G37*
G36*
X1019237Y-107720D02*
X1019237Y-123220D01*
X1011903Y-123220D01*
X1011903Y-107720D01*
X1019237Y-107720D01*
G37*
G36*
X1015570Y-111387D02*
X1000070Y-111387D01*
X1000070Y-104053D01*
X1015570Y-104053D01*
X1015570Y-111387D01*
G37*
G54D27*
G36*
X296387Y-84120D02*
X296387Y-69620D01*
X304053Y-69620D01*
X304053Y-84120D01*
X296387Y-84120D01*
G37*
G36*
X300220Y-80287D02*
X314720Y-80287D01*
X314720Y-87953D01*
X300220Y-87953D01*
X300220Y-80287D01*
G37*
G36*
X304053Y-84120D02*
X304053Y-98620D01*
X296387Y-98620D01*
X296387Y-84120D01*
X304053Y-84120D01*
G37*
G36*
X300220Y-87953D02*
X285720Y-87953D01*
X285720Y-80287D01*
X300220Y-80287D01*
X300220Y-87953D01*
G37*
G54D29*
G36*
X800266Y214055D02*
X800266Y228555D01*
X817400Y228555D01*
X817400Y214055D01*
X800266Y214055D01*
G37*
G36*
X808833Y222622D02*
X823333Y222622D01*
X823333Y205488D01*
X808833Y205488D01*
X808833Y222622D01*
G37*
G36*
X817400Y214055D02*
X817400Y199555D01*
X800266Y199555D01*
X800266Y214055D01*
X817400Y214055D01*
G37*
G36*
X808833Y205488D02*
X794333Y205488D01*
X794333Y222622D01*
X808833Y222622D01*
X808833Y205488D01*
G37*
G54D29*
G36*
X660566Y220405D02*
X660566Y234905D01*
X677700Y234905D01*
X677700Y220405D01*
X660566Y220405D01*
G37*
G36*
X669133Y228972D02*
X683633Y228972D01*
X683633Y211838D01*
X669133Y211838D01*
X669133Y228972D01*
G37*
G36*
X677700Y220405D02*
X677700Y205905D01*
X660566Y205905D01*
X660566Y220405D01*
X677700Y220405D01*
G37*
G36*
X669133Y211838D02*
X654633Y211838D01*
X654633Y228972D01*
X669133Y228972D01*
X669133Y211838D01*
G37*
G54D29*
G36*
X906546Y77935D02*
X906546Y92435D01*
X923680Y92435D01*
X923680Y77935D01*
X906546Y77935D01*
G37*
G36*
X915113Y86502D02*
X929613Y86502D01*
X929613Y69368D01*
X915113Y69368D01*
X915113Y86502D01*
G37*
G36*
X923680Y77935D02*
X923680Y63435D01*
X906546Y63435D01*
X906546Y77935D01*
X923680Y77935D01*
G37*
G36*
X915113Y69368D02*
X900613Y69368D01*
X900613Y86502D01*
X915113Y86502D01*
X915113Y69368D01*
G37*
G54D29*
G36*
X919246Y-379265D02*
X919246Y-364765D01*
X936380Y-364765D01*
X936380Y-379265D01*
X919246Y-379265D01*
G37*
G36*
X927813Y-370698D02*
X942313Y-370698D01*
X942313Y-387832D01*
X927813Y-387832D01*
X927813Y-370698D01*
G37*
G36*
X936380Y-379265D02*
X936380Y-393765D01*
X919246Y-393765D01*
X919246Y-379265D01*
X936380Y-379265D01*
G37*
G36*
X927813Y-387832D02*
X913313Y-387832D01*
X913313Y-370698D01*
X927813Y-370698D01*
X927813Y-387832D01*
G37*
G54D25*
G36*
X569937Y-233470D02*
X569937Y-218970D01*
X576603Y-218970D01*
X576603Y-233470D01*
X569937Y-233470D01*
G37*
G36*
X573270Y-230137D02*
X587770Y-230137D01*
X587770Y-236803D01*
X573270Y-236803D01*
X573270Y-230137D01*
G37*
G36*
X576603Y-233470D02*
X576603Y-247970D01*
X569937Y-247970D01*
X569937Y-233470D01*
X576603Y-233470D01*
G37*
G36*
X573270Y-236803D02*
X558770Y-236803D01*
X558770Y-230137D01*
X573270Y-230137D01*
X573270Y-236803D01*
G37*
G54D25*
G36*
X569937Y-49320D02*
X569937Y-34820D01*
X576603Y-34820D01*
X576603Y-49320D01*
X569937Y-49320D01*
G37*
G36*
X573270Y-45987D02*
X587770Y-45987D01*
X587770Y-52653D01*
X573270Y-52653D01*
X573270Y-45987D01*
G37*
G36*
X576603Y-49320D02*
X576603Y-63820D01*
X569937Y-63820D01*
X569937Y-49320D01*
X576603Y-49320D01*
G37*
G36*
X573270Y-52653D02*
X558770Y-52653D01*
X558770Y-45987D01*
X573270Y-45987D01*
X573270Y-52653D01*
G37*
G54D25*
G36*
X-63391Y559957D02*
X-46891Y559957D01*
X-46891Y553291D01*
X-63391Y553291D01*
X-63391Y559957D01*
G37*
G54D26*
G54D30*
G36*
X-62096Y278053D02*
X-47596Y278053D01*
X-47596Y264453D01*
X-62096Y264453D01*
X-62096Y278053D01*
G37*
G36*
X-55296Y271253D02*
X-55296Y256753D01*
X-68896Y256753D01*
X-68896Y271253D01*
X-55296Y271253D01*
G37*
G36*
X-62096Y264453D02*
X-76596Y264453D01*
X-76596Y278053D01*
X-62096Y278053D01*
X-62096Y264453D01*
G37*
G36*
X-68896Y271253D02*
X-68896Y285753D01*
X-55296Y285753D01*
X-55296Y271253D01*
X-68896Y271253D01*
G37*
G54D31*
G36*
X-13953Y214527D02*
X547Y214527D01*
X547Y198661D01*
X-13953Y198661D01*
X-13953Y214527D01*
G37*
G36*
X-6020Y206594D02*
X-6020Y192094D01*
X-21887Y192094D01*
X-21887Y206594D01*
X-6020Y206594D01*
G37*
G36*
X-13953Y198661D02*
X-28453Y198661D01*
X-28453Y214527D01*
X-13953Y214527D01*
X-13953Y198661D01*
G37*
G36*
X-21887Y206594D02*
X-21887Y221094D01*
X-6020Y221094D01*
X-6020Y206594D01*
X-21887Y206594D01*
G37*
G54D32*
G36*
X-62071Y88903D02*
X-47571Y88903D01*
X-47571Y72637D01*
X-62071Y72637D01*
X-62071Y88903D01*
G37*
G36*
X-53938Y80770D02*
X-53938Y66270D01*
X-70205Y66270D01*
X-70205Y80770D01*
X-53938Y80770D01*
G37*
G36*
X-62071Y72637D02*
X-76571Y72637D01*
X-76571Y88903D01*
X-62071Y88903D01*
X-62071Y72637D01*
G37*
G36*
X-70205Y80770D02*
X-70205Y95270D01*
X-53938Y95270D01*
X-53938Y80770D01*
X-70205Y80770D01*
G37*
G54D33*
G36*
X-271065Y420802D02*
X-256565Y420802D01*
X-256565Y412936D01*
X-271065Y412936D01*
X-271065Y420802D01*
G37*
G36*
X-267132Y416869D02*
X-267132Y402369D01*
X-274998Y402369D01*
X-274998Y416869D01*
X-267132Y416869D01*
G37*
G36*
X-271065Y412936D02*
X-285565Y412936D01*
X-285565Y420802D01*
X-271065Y420802D01*
X-271065Y412936D01*
G37*
G36*
X-274998Y416869D02*
X-274998Y431369D01*
X-267132Y431369D01*
X-267132Y416869D01*
X-274998Y416869D01*
G37*
G54D33*
G36*
X-118665Y471602D02*
X-104165Y471602D01*
X-104165Y463736D01*
X-118665Y463736D01*
X-118665Y471602D01*
G37*
G36*
X-114732Y467669D02*
X-114732Y453169D01*
X-122598Y453169D01*
X-122598Y467669D01*
X-114732Y467669D01*
G37*
G36*
X-118665Y463736D02*
X-133165Y463736D01*
X-133165Y471602D01*
X-118665Y471602D01*
X-118665Y463736D01*
G37*
G36*
X-122598Y467669D02*
X-122598Y482169D01*
X-114732Y482169D01*
X-114732Y467669D01*
X-122598Y467669D01*
G37*
G54D25*
G36*
X58807Y294959D02*
X44307Y294959D01*
X44307Y301626D01*
X58807Y301626D01*
X58807Y294959D01*
G37*
G36*
X55474Y298292D02*
X55474Y312792D01*
X62141Y312792D01*
X62141Y298292D01*
X55474Y298292D01*
G37*
G36*
X58807Y301626D02*
X73307Y301626D01*
X73307Y294959D01*
X58807Y294959D01*
X58807Y301626D01*
G37*
G36*
X62141Y298292D02*
X62141Y283792D01*
X55474Y283792D01*
X55474Y298292D01*
X62141Y298292D01*
G37*
G54D27*
G36*
X131286Y201630D02*
X131286Y216130D01*
X138953Y216130D01*
X138953Y201630D01*
X131286Y201630D01*
G37*
G36*
X135120Y205463D02*
X149620Y205463D01*
X149620Y197796D01*
X135120Y197796D01*
X135120Y205463D01*
G37*
G36*
X138953Y201630D02*
X138953Y187130D01*
X131286Y187130D01*
X131286Y201630D01*
X138953Y201630D01*
G37*
G36*
X135120Y197796D02*
X120620Y197796D01*
X120620Y205463D01*
X135120Y205463D01*
X135120Y197796D01*
G37*
G54D27*
G36*
X54974Y298292D02*
X54974Y312792D01*
X62641Y312792D01*
X62641Y298292D01*
X54974Y298292D01*
G37*
G36*
X58807Y302126D02*
X73307Y302126D01*
X73307Y294459D01*
X58807Y294459D01*
X58807Y302126D01*
G37*
G36*
X62641Y298292D02*
X62641Y283792D01*
X54974Y283792D01*
X54974Y298292D01*
X62641Y298292D01*
G37*
G36*
X58807Y294459D02*
X44307Y294459D01*
X44307Y302126D01*
X58807Y302126D01*
X58807Y294459D01*
G37*
G54D27*
G36*
X380630Y292668D02*
X366130Y292668D01*
X366130Y300334D01*
X380630Y300334D01*
X380630Y292668D01*
G37*
G36*
X376797Y296501D02*
X376797Y311001D01*
X384464Y311001D01*
X384464Y296501D01*
X376797Y296501D01*
G37*
G36*
X380630Y300334D02*
X395130Y300334D01*
X395130Y292668D01*
X380630Y292668D01*
X380630Y300334D01*
G37*
G36*
X384464Y296501D02*
X384464Y282001D01*
X376797Y282001D01*
X376797Y296501D01*
X384464Y296501D01*
G37*
G54D27*
G36*
X283574Y298292D02*
X283574Y312792D01*
X291241Y312792D01*
X291241Y298292D01*
X283574Y298292D01*
G37*
G36*
X287407Y302126D02*
X301907Y302126D01*
X301907Y294459D01*
X287407Y294459D01*
X287407Y302126D01*
G37*
G36*
X291241Y298292D02*
X291241Y283792D01*
X283574Y283792D01*
X283574Y298292D01*
X291241Y298292D01*
G37*
G36*
X287407Y294459D02*
X272907Y294459D01*
X272907Y302126D01*
X287407Y302126D01*
X287407Y294459D01*
G37*
G54D25*
G36*
X731908Y396559D02*
X717408Y396559D01*
X717408Y403226D01*
X731908Y403226D01*
X731908Y396559D01*
G37*
G36*
X728574Y399892D02*
X728574Y414392D01*
X735241Y414392D01*
X735241Y399892D01*
X728574Y399892D01*
G37*
G36*
X731908Y403226D02*
X746408Y403226D01*
X746408Y396559D01*
X731908Y396559D01*
X731908Y403226D01*
G37*
G36*
X735241Y399892D02*
X735241Y385392D01*
X728574Y385392D01*
X728574Y399892D01*
X735241Y399892D01*
G37*
G54D27*
G36*
X728074Y399892D02*
X728074Y414392D01*
X735741Y414392D01*
X735741Y399892D01*
X728074Y399892D01*
G37*
G36*
X731908Y403726D02*
X746408Y403726D01*
X746408Y396059D01*
X731908Y396059D01*
X731908Y403726D01*
G37*
G36*
X735741Y399892D02*
X735741Y385392D01*
X728074Y385392D01*
X728074Y399892D01*
X735741Y399892D01*
G37*
G36*
X731908Y396059D02*
X717408Y396059D01*
X717408Y403726D01*
X731908Y403726D01*
X731908Y396059D01*
G37*
G54D34*
G36*
X-271065Y424102D02*
X-256565Y424102D01*
X-256565Y409636D01*
X-271065Y409636D01*
X-271065Y424102D01*
G37*
G36*
X-263832Y416869D02*
X-263832Y402369D01*
X-278298Y402369D01*
X-278298Y416869D01*
X-263832Y416869D01*
G37*
G36*
X-271065Y409636D02*
X-285565Y409636D01*
X-285565Y424102D01*
X-271065Y424102D01*
X-271065Y409636D01*
G37*
G36*
X-278298Y416869D02*
X-278298Y431369D01*
X-263832Y431369D01*
X-263832Y416869D01*
X-278298Y416869D01*
G37*
G54D34*
G36*
X173740Y495781D02*
X188240Y495781D01*
X188240Y481315D01*
X173740Y481315D01*
X173740Y495781D01*
G37*
G36*
X180973Y488548D02*
X180973Y474048D01*
X166506Y474048D01*
X166506Y488548D01*
X180973Y488548D01*
G37*
G36*
X173740Y481315D02*
X159240Y481315D01*
X159240Y495781D01*
X173740Y495781D01*
X173740Y481315D01*
G37*
G36*
X166506Y488548D02*
X166506Y503048D01*
X180973Y503048D01*
X180973Y488548D01*
X166506Y488548D01*
G37*
G54D34*
G36*
X174565Y403871D02*
X189065Y403871D01*
X189065Y389405D01*
X174565Y389405D01*
X174565Y403871D01*
G37*
G36*
X181798Y396638D02*
X181798Y382138D01*
X167332Y382138D01*
X167332Y396638D01*
X181798Y396638D01*
G37*
G36*
X174565Y389405D02*
X160065Y389405D01*
X160065Y403871D01*
X174565Y403871D01*
X174565Y389405D01*
G37*
G36*
X167332Y396638D02*
X167332Y411138D01*
X181798Y411138D01*
X181798Y396638D01*
X167332Y396638D01*
G37*
G54D34*
G36*
X275340Y495781D02*
X289840Y495781D01*
X289840Y481315D01*
X275340Y481315D01*
X275340Y495781D01*
G37*
G36*
X282573Y488548D02*
X282573Y474048D01*
X268106Y474048D01*
X268106Y488548D01*
X282573Y488548D01*
G37*
G36*
X275340Y481315D02*
X260840Y481315D01*
X260840Y495781D01*
X275340Y495781D01*
X275340Y481315D01*
G37*
G36*
X268106Y488548D02*
X268106Y503048D01*
X282573Y503048D01*
X282573Y488548D01*
X268106Y488548D01*
G37*
G54D34*
G36*
X276165Y403871D02*
X290665Y403871D01*
X290665Y389405D01*
X276165Y389405D01*
X276165Y403871D01*
G37*
G36*
X283398Y396638D02*
X283398Y382138D01*
X268932Y382138D01*
X268932Y396638D01*
X283398Y396638D01*
G37*
G36*
X276165Y389405D02*
X261665Y389405D01*
X261665Y403871D01*
X276165Y403871D01*
X276165Y389405D01*
G37*
G36*
X268932Y396638D02*
X268932Y411138D01*
X283398Y411138D01*
X283398Y396638D01*
X268932Y396638D01*
G37*
G54D34*
G36*
X186440Y165581D02*
X200940Y165581D01*
X200940Y151115D01*
X186440Y151115D01*
X186440Y165581D01*
G37*
G36*
X193673Y158348D02*
X193673Y143848D01*
X179206Y143848D01*
X179206Y158348D01*
X193673Y158348D01*
G37*
G36*
X186440Y151115D02*
X171940Y151115D01*
X171940Y165581D01*
X186440Y165581D01*
X186440Y151115D01*
G37*
G36*
X179206Y158348D02*
X179206Y172848D01*
X193673Y172848D01*
X193673Y158348D01*
X179206Y158348D01*
G37*
G54D34*
G36*
X187265Y73671D02*
X201765Y73671D01*
X201765Y59205D01*
X187265Y59205D01*
X187265Y73671D01*
G37*
G36*
X194498Y66438D02*
X194498Y51938D01*
X180032Y51938D01*
X180032Y66438D01*
X194498Y66438D01*
G37*
G36*
X187265Y59205D02*
X172765Y59205D01*
X172765Y73671D01*
X187265Y73671D01*
X187265Y59205D01*
G37*
G36*
X180032Y66438D02*
X180032Y80938D01*
X194498Y80938D01*
X194498Y66438D01*
X180032Y66438D01*
G37*
G54D34*
G36*
X233897Y212959D02*
X248397Y212959D01*
X248397Y198492D01*
X233897Y198492D01*
X233897Y212959D01*
G37*
G36*
X241130Y205725D02*
X241130Y191225D01*
X226664Y191225D01*
X226664Y205725D01*
X241130Y205725D01*
G37*
G36*
X233897Y198492D02*
X219397Y198492D01*
X219397Y212959D01*
X233897Y212959D01*
X233897Y198492D01*
G37*
G36*
X226664Y205725D02*
X226664Y220225D01*
X241130Y220225D01*
X241130Y205725D01*
X226664Y205725D01*
G37*
G54D34*
G36*
X272442Y171519D02*
X286942Y171519D01*
X286942Y157052D01*
X272442Y157052D01*
X272442Y171519D01*
G37*
G36*
X279675Y164285D02*
X279675Y149785D01*
X265208Y149785D01*
X265208Y164285D01*
X279675Y164285D01*
G37*
G36*
X272442Y157052D02*
X257942Y157052D01*
X257942Y171519D01*
X272442Y171519D01*
X272442Y157052D01*
G37*
G36*
X265208Y164285D02*
X265208Y178785D01*
X279675Y178785D01*
X279675Y164285D01*
X265208Y164285D01*
G37*
G54D34*
G36*
X552016Y565846D02*
X552016Y580346D01*
X566482Y580346D01*
X566482Y565846D01*
X552016Y565846D01*
G37*
G36*
X559249Y573079D02*
X573749Y573079D01*
X573749Y558613D01*
X559249Y558613D01*
X559249Y573079D01*
G37*
G36*
X566482Y565846D02*
X566482Y551346D01*
X552016Y551346D01*
X552016Y565846D01*
X566482Y565846D01*
G37*
G36*
X559249Y558613D02*
X544749Y558613D01*
X544749Y573079D01*
X559249Y573079D01*
X559249Y558613D01*
G37*
G54D34*
G36*
X643926Y566671D02*
X643926Y581171D01*
X658392Y581171D01*
X658392Y566671D01*
X643926Y566671D01*
G37*
G36*
X651159Y573904D02*
X665659Y573904D01*
X665659Y559438D01*
X651159Y559438D01*
X651159Y573904D01*
G37*
G36*
X658392Y566671D02*
X658392Y552171D01*
X643926Y552171D01*
X643926Y566671D01*
X658392Y566671D01*
G37*
G36*
X651159Y559438D02*
X636659Y559438D01*
X636659Y573904D01*
X651159Y573904D01*
X651159Y559438D01*
G37*
G54D34*
G36*
X1021916Y565846D02*
X1021916Y580346D01*
X1036382Y580346D01*
X1036382Y565846D01*
X1021916Y565846D01*
G37*
G36*
X1029149Y573079D02*
X1043649Y573079D01*
X1043649Y558613D01*
X1029149Y558613D01*
X1029149Y573079D01*
G37*
G36*
X1036382Y565846D02*
X1036382Y551346D01*
X1021916Y551346D01*
X1021916Y565846D01*
X1036382Y565846D01*
G37*
G36*
X1029149Y558613D02*
X1014649Y558613D01*
X1014649Y573079D01*
X1029149Y573079D01*
X1029149Y558613D01*
G37*
G54D34*
G36*
X1113826Y566671D02*
X1113826Y581171D01*
X1128292Y581171D01*
X1128292Y566671D01*
X1113826Y566671D01*
G37*
G36*
X1121059Y573904D02*
X1135559Y573904D01*
X1135559Y559438D01*
X1121059Y559438D01*
X1121059Y573904D01*
G37*
G36*
X1128292Y566671D02*
X1128292Y552171D01*
X1113826Y552171D01*
X1113826Y566671D01*
X1128292Y566671D01*
G37*
G36*
X1121059Y559438D02*
X1106559Y559438D01*
X1106559Y573904D01*
X1121059Y573904D01*
X1121059Y559438D01*
G37*
G54D27*
G36*
X131286Y582630D02*
X131286Y597130D01*
X138953Y597130D01*
X138953Y582630D01*
X131286Y582630D01*
G37*
G36*
X135120Y586463D02*
X149620Y586463D01*
X149620Y578796D01*
X135120Y578796D01*
X135120Y586463D01*
G37*
G36*
X138953Y582630D02*
X138953Y568130D01*
X131286Y568130D01*
X131286Y582630D01*
X138953Y582630D01*
G37*
G36*
X135120Y578796D02*
X120620Y578796D01*
X120620Y586463D01*
X135120Y586463D01*
X135120Y578796D01*
G37*
G54D27*
G36*
X143986Y239730D02*
X143986Y254230D01*
X151653Y254230D01*
X151653Y239730D01*
X143986Y239730D01*
G37*
G36*
X147820Y243563D02*
X162320Y243563D01*
X162320Y235896D01*
X147820Y235896D01*
X147820Y243563D01*
G37*
G36*
X151653Y239730D02*
X151653Y225230D01*
X143986Y225230D01*
X143986Y239730D01*
X151653Y239730D01*
G37*
G36*
X147820Y235896D02*
X133320Y235896D01*
X133320Y243563D01*
X147820Y243563D01*
X147820Y235896D01*
G37*
G54D27*
G36*
X385286Y582630D02*
X385286Y597130D01*
X392953Y597130D01*
X392953Y582630D01*
X385286Y582630D01*
G37*
G36*
X389120Y586463D02*
X403620Y586463D01*
X403620Y578796D01*
X389120Y578796D01*
X389120Y586463D01*
G37*
G36*
X392953Y582630D02*
X392953Y568130D01*
X385286Y568130D01*
X385286Y582630D01*
X392953Y582630D01*
G37*
G36*
X389120Y578796D02*
X374620Y578796D01*
X374620Y586463D01*
X389120Y586463D01*
X389120Y578796D01*
G37*
G54D27*
G36*
X385286Y239730D02*
X385286Y254230D01*
X392953Y254230D01*
X392953Y239730D01*
X385286Y239730D01*
G37*
G36*
X389120Y243563D02*
X403620Y243563D01*
X403620Y235896D01*
X389120Y235896D01*
X389120Y243563D01*
G37*
G36*
X392953Y239730D02*
X392953Y225230D01*
X385286Y225230D01*
X385286Y239730D01*
X392953Y239730D01*
G37*
G36*
X389120Y235896D02*
X374620Y235896D01*
X374620Y243563D01*
X389120Y243563D01*
X389120Y235896D01*
G37*
G54D27*
G36*
X468221Y436815D02*
X468221Y451315D01*
X475888Y451315D01*
X475888Y436815D01*
X468221Y436815D01*
G37*
G36*
X472055Y440649D02*
X486555Y440649D01*
X486555Y432982D01*
X472055Y432982D01*
X472055Y440649D01*
G37*
G36*
X475888Y436815D02*
X475888Y422315D01*
X468221Y422315D01*
X468221Y436815D01*
X475888Y436815D01*
G37*
G36*
X472055Y432982D02*
X457555Y432982D01*
X457555Y440649D01*
X472055Y440649D01*
X472055Y432982D01*
G37*
G54D27*
G36*
X925422Y443165D02*
X925422Y457665D01*
X933088Y457665D01*
X933088Y443165D01*
X925422Y443165D01*
G37*
G36*
X929255Y446999D02*
X943755Y446999D01*
X943755Y439332D01*
X929255Y439332D01*
X929255Y446999D01*
G37*
G36*
X933088Y443165D02*
X933088Y428665D01*
X925422Y428665D01*
X925422Y443165D01*
X933088Y443165D01*
G37*
G36*
X929255Y439332D02*
X914755Y439332D01*
X914755Y446999D01*
X929255Y446999D01*
X929255Y439332D01*
G37*
G54D27*
G36*
X148197Y296501D02*
X148197Y311001D01*
X155864Y311001D01*
X155864Y296501D01*
X148197Y296501D01*
G37*
G36*
X152030Y300334D02*
X166530Y300334D01*
X166530Y292668D01*
X152030Y292668D01*
X152030Y300334D01*
G37*
G36*
X155864Y296501D02*
X155864Y282001D01*
X148197Y282001D01*
X148197Y296501D01*
X155864Y296501D01*
G37*
G36*
X152030Y292668D02*
X137530Y292668D01*
X137530Y300334D01*
X152030Y300334D01*
X152030Y292668D01*
G37*
G54D27*
G36*
X821297Y398101D02*
X821297Y412601D01*
X828964Y412601D01*
X828964Y398101D01*
X821297Y398101D01*
G37*
G36*
X825130Y401934D02*
X839630Y401934D01*
X839630Y394268D01*
X825130Y394268D01*
X825130Y401934D01*
G37*
G36*
X828964Y398101D02*
X828964Y383601D01*
X821297Y383601D01*
X821297Y398101D01*
X828964Y398101D01*
G37*
G36*
X825130Y394268D02*
X810630Y394268D01*
X810630Y401934D01*
X825130Y401934D01*
X825130Y394268D01*
G37*
G54D35*
G36*
X-328080Y566630D02*
X-328080Y581130D01*
X-316080Y581130D01*
X-316080Y566630D01*
X-328080Y566630D01*
G37*
G36*
X-322080Y572630D02*
X-307580Y572630D01*
X-307580Y560630D01*
X-322080Y560630D01*
X-322080Y572630D01*
G37*
G36*
X-316080Y566630D02*
X-316080Y552130D01*
X-328080Y552130D01*
X-328080Y566630D01*
X-316080Y566630D01*
G37*
G36*
X-322080Y560630D02*
X-336580Y560630D01*
X-336580Y572630D01*
X-322080Y572630D01*
X-322080Y560630D01*
G37*
G54D36*
G36*
X-418600Y-354400D02*
X-402100Y-354400D01*
X-402100Y-376700D01*
X-418600Y-376700D01*
X-418600Y-354400D01*
G37*
G36*
X-407450Y-365550D02*
X-407450Y-382050D01*
X-429750Y-382050D01*
X-429750Y-365550D01*
X-407450Y-365550D01*
G37*
G36*
X-418600Y-376700D02*
X-435100Y-376700D01*
X-435100Y-354400D01*
X-418600Y-354400D01*
X-418600Y-376700D01*
G37*
G36*
X-429750Y-365550D02*
X-429750Y-349050D01*
X-407450Y-349050D01*
X-407450Y-365550D01*
X-429750Y-365550D01*
G37*
G54D36*
G36*
X-418600Y471100D02*
X-402100Y471100D01*
X-402100Y448800D01*
X-418600Y448800D01*
X-418600Y471100D01*
G37*
G36*
X-407450Y459950D02*
X-407450Y443450D01*
X-429750Y443450D01*
X-429750Y459950D01*
X-407450Y459950D01*
G37*
G36*
X-418600Y448800D02*
X-435100Y448800D01*
X-435100Y471100D01*
X-418600Y471100D01*
X-418600Y448800D01*
G37*
G36*
X-429750Y459950D02*
X-429750Y476450D01*
X-407450Y476450D01*
X-407450Y459950D01*
X-429750Y459950D01*
G37*
G54D36*
G36*
X1118100Y-354400D02*
X1134600Y-354400D01*
X1134600Y-376700D01*
X1118100Y-376700D01*
X1118100Y-354400D01*
G37*
G36*
X1129250Y-365550D02*
X1129250Y-382050D01*
X1106950Y-382050D01*
X1106950Y-365550D01*
X1129250Y-365550D01*
G37*
G36*
X1118100Y-376700D02*
X1101600Y-376700D01*
X1101600Y-354400D01*
X1118100Y-354400D01*
X1118100Y-376700D01*
G37*
G36*
X1106950Y-365550D02*
X1106950Y-349050D01*
X1129250Y-349050D01*
X1129250Y-365550D01*
X1106950Y-365550D01*
G37*
G54D36*
G36*
X1092700Y382200D02*
X1109200Y382200D01*
X1109200Y359900D01*
X1092700Y359900D01*
X1092700Y382200D01*
G37*
G36*
X1103850Y371050D02*
X1103850Y354550D01*
X1081550Y354550D01*
X1081550Y371050D01*
X1103850Y371050D01*
G37*
G36*
X1092700Y359900D02*
X1076200Y359900D01*
X1076200Y382200D01*
X1092700Y382200D01*
X1092700Y359900D01*
G37*
G36*
X1081550Y371050D02*
X1081550Y387550D01*
X1103850Y387550D01*
X1103850Y371050D01*
X1081550Y371050D01*
G37*
G54D37*
G36*
X-416383Y253700D02*
X-416383Y268200D01*
X-408117Y268200D01*
X-408117Y253700D01*
X-416383Y253700D01*
G37*
G36*
X-412250Y257833D02*
X-397750Y257833D01*
X-397750Y249567D01*
X-412250Y249567D01*
X-412250Y257833D01*
G37*
G36*
X-408117Y253700D02*
X-408117Y239200D01*
X-416383Y239200D01*
X-416383Y253700D01*
X-408117Y253700D01*
G37*
G36*
X-412250Y249567D02*
X-426750Y249567D01*
X-426750Y257833D01*
X-412250Y257833D01*
X-412250Y249567D01*
G37*
G54D37*
G36*
X-417653Y50500D02*
X-417653Y65000D01*
X-409387Y65000D01*
X-409387Y50500D01*
X-417653Y50500D01*
G37*
G36*
X-413520Y54633D02*
X-399020Y54633D01*
X-399020Y46367D01*
X-413520Y46367D01*
X-413520Y54633D01*
G37*
G36*
X-409387Y50500D02*
X-409387Y36000D01*
X-417653Y36000D01*
X-417653Y50500D01*
X-409387Y50500D01*
G37*
G36*
X-413520Y46367D02*
X-428020Y46367D01*
X-428020Y54633D01*
X-413520Y54633D01*
X-413520Y46367D01*
G37*
G54D37*
G36*
X-422733Y-165400D02*
X-422733Y-150900D01*
X-414467Y-150900D01*
X-414467Y-165400D01*
X-422733Y-165400D01*
G37*
G36*
X-418600Y-161267D02*
X-404100Y-161267D01*
X-404100Y-169533D01*
X-418600Y-169533D01*
X-418600Y-161267D01*
G37*
G36*
X-414467Y-165400D02*
X-414467Y-179900D01*
X-422733Y-179900D01*
X-422733Y-165400D01*
X-414467Y-165400D01*
G37*
G36*
X-418600Y-169533D02*
X-433100Y-169533D01*
X-433100Y-161267D01*
X-418600Y-161267D01*
X-418600Y-169533D01*
G37*
G54D37*
G36*
X-270333Y-368600D02*
X-270333Y-354100D01*
X-262067Y-354100D01*
X-262067Y-368600D01*
X-270333Y-368600D01*
G37*
G36*
X-266200Y-364467D02*
X-251700Y-364467D01*
X-251700Y-372733D01*
X-266200Y-372733D01*
X-266200Y-364467D01*
G37*
G36*
X-262067Y-368600D02*
X-262067Y-383100D01*
X-270333Y-383100D01*
X-270333Y-368600D01*
X-262067Y-368600D01*
G37*
G36*
X-266200Y-372733D02*
X-280700Y-372733D01*
X-280700Y-364467D01*
X-266200Y-364467D01*
X-266200Y-372733D01*
G37*
G54D37*
G36*
X9067Y-368600D02*
X9067Y-354100D01*
X17333Y-354100D01*
X17333Y-368600D01*
X9067Y-368600D01*
G37*
G36*
X13200Y-364467D02*
X27700Y-364467D01*
X27700Y-372733D01*
X13200Y-372733D01*
X13200Y-364467D01*
G37*
G36*
X17333Y-368600D02*
X17333Y-383100D01*
X9067Y-383100D01*
X9067Y-368600D01*
X17333Y-368600D01*
G37*
G36*
X13200Y-372733D02*
X-1300Y-372733D01*
X-1300Y-364467D01*
X13200Y-364467D01*
X13200Y-372733D01*
G37*
G54D37*
G36*
X301167Y-368600D02*
X301167Y-354100D01*
X309433Y-354100D01*
X309433Y-368600D01*
X301167Y-368600D01*
G37*
G36*
X305300Y-364467D02*
X319800Y-364467D01*
X319800Y-372733D01*
X305300Y-372733D01*
X305300Y-364467D01*
G37*
G36*
X309433Y-368600D02*
X309433Y-383100D01*
X301167Y-383100D01*
X301167Y-368600D01*
X309433Y-368600D01*
G37*
G36*
X305300Y-372733D02*
X290800Y-372733D01*
X290800Y-364467D01*
X305300Y-364467D01*
X305300Y-372733D01*
G37*
G54D37*
G36*
X1032667Y-239600D02*
X1032667Y-225100D01*
X1040933Y-225100D01*
X1040933Y-239600D01*
X1032667Y-239600D01*
G37*
G36*
X1036800Y-235467D02*
X1051300Y-235467D01*
X1051300Y-243733D01*
X1036800Y-243733D01*
X1036800Y-235467D01*
G37*
G36*
X1040933Y-239600D02*
X1040933Y-254100D01*
X1032667Y-254100D01*
X1032667Y-239600D01*
X1040933Y-239600D01*
G37*
G36*
X1036800Y-243733D02*
X1022300Y-243733D01*
X1022300Y-235467D01*
X1036800Y-235467D01*
X1036800Y-243733D01*
G37*
G54D37*
G36*
X-181433Y583900D02*
X-181433Y598400D01*
X-173167Y598400D01*
X-173167Y583900D01*
X-181433Y583900D01*
G37*
G36*
X-177300Y588033D02*
X-162800Y588033D01*
X-162800Y579767D01*
X-177300Y579767D01*
X-177300Y588033D01*
G37*
G36*
X-173167Y583900D02*
X-173167Y569400D01*
X-181433Y569400D01*
X-181433Y583900D01*
X-173167Y583900D01*
G37*
G36*
X-177300Y579767D02*
X-191800Y579767D01*
X-191800Y588033D01*
X-177300Y588033D01*
X-177300Y579767D01*
G37*
G54D28*
G36*
X-316597Y-50220D02*
X-316597Y-34720D01*
X-309263Y-34720D01*
X-309263Y-50220D01*
X-316597Y-50220D01*
G37*
G36*
X-312930Y-46553D02*
X-297430Y-46553D01*
X-297430Y-53887D01*
X-312930Y-53887D01*
X-312930Y-46553D01*
G37*
G36*
X-309263Y-50220D02*
X-309263Y-65720D01*
X-316597Y-65720D01*
X-316597Y-50220D01*
X-309263Y-50220D01*
G37*
G36*
X-312930Y-53887D02*
X-328430Y-53887D01*
X-328430Y-46553D01*
X-312930Y-46553D01*
X-312930Y-53887D01*
G37*
G54D28*
G36*
X-265797Y-50220D02*
X-265797Y-34720D01*
X-258463Y-34720D01*
X-258463Y-50220D01*
X-265797Y-50220D01*
G37*
G36*
X-262130Y-46553D02*
X-246630Y-46553D01*
X-246630Y-53887D01*
X-262130Y-53887D01*
X-262130Y-46553D01*
G37*
G36*
X-258463Y-50220D02*
X-258463Y-65720D01*
X-265797Y-65720D01*
X-265797Y-50220D01*
X-258463Y-50220D01*
G37*
G36*
X-262130Y-53887D02*
X-277630Y-53887D01*
X-277630Y-46553D01*
X-262130Y-46553D01*
X-262130Y-53887D01*
G37*
G54D28*
G36*
X-265797Y-101020D02*
X-265797Y-85520D01*
X-258463Y-85520D01*
X-258463Y-101020D01*
X-265797Y-101020D01*
G37*
G36*
X-262130Y-97353D02*
X-246630Y-97353D01*
X-246630Y-104687D01*
X-262130Y-104687D01*
X-262130Y-97353D01*
G37*
G36*
X-258463Y-101020D02*
X-258463Y-116520D01*
X-265797Y-116520D01*
X-265797Y-101020D01*
X-258463Y-101020D01*
G37*
G36*
X-262130Y-104687D02*
X-277630Y-104687D01*
X-277630Y-97353D01*
X-262130Y-97353D01*
X-262130Y-104687D01*
G37*
G54D28*
G36*
X-316597Y-101020D02*
X-316597Y-85520D01*
X-309263Y-85520D01*
X-309263Y-101020D01*
X-316597Y-101020D01*
G37*
G36*
X-312930Y-97353D02*
X-297430Y-97353D01*
X-297430Y-104687D01*
X-312930Y-104687D01*
X-312930Y-97353D01*
G37*
G36*
X-309263Y-101020D02*
X-309263Y-116520D01*
X-316597Y-116520D01*
X-316597Y-101020D01*
X-309263Y-101020D01*
G37*
G36*
X-312930Y-104687D02*
X-328430Y-104687D01*
X-328430Y-97353D01*
X-312930Y-97353D01*
X-312930Y-104687D01*
G37*
G54D32*
G36*
X-346000Y127133D02*
X-331500Y127133D01*
X-331500Y110867D01*
X-346000Y110867D01*
X-346000Y127133D01*
G37*
G36*
X-337867Y119000D02*
X-337867Y104500D01*
X-354133Y104500D01*
X-354133Y119000D01*
X-337867Y119000D01*
G37*
G36*
X-346000Y110867D02*
X-360500Y110867D01*
X-360500Y127133D01*
X-346000Y127133D01*
X-346000Y110867D01*
G37*
G36*
X-354133Y119000D02*
X-354133Y133500D01*
X-337867Y133500D01*
X-337867Y119000D01*
X-354133Y119000D01*
G37*
G54D32*
G36*
X-27000Y458133D02*
X-12500Y458133D01*
X-12500Y441867D01*
X-27000Y441867D01*
X-27000Y458133D01*
G37*
G36*
X-18867Y450000D02*
X-18867Y435500D01*
X-35133Y435500D01*
X-35133Y450000D01*
X-18867Y450000D01*
G37*
G36*
X-27000Y441867D02*
X-41500Y441867D01*
X-41500Y458133D01*
X-27000Y458133D01*
X-27000Y441867D01*
G37*
G36*
X-35133Y450000D02*
X-35133Y464500D01*
X-18867Y464500D01*
X-18867Y450000D01*
X-35133Y450000D01*
G37*
G54D32*
G36*
X966552Y344779D02*
X966552Y359279D01*
X982819Y359279D01*
X982819Y344779D01*
X966552Y344779D01*
G37*
G36*
X974686Y352913D02*
X989186Y352913D01*
X989186Y336646D01*
X974686Y336646D01*
X974686Y352913D01*
G37*
G36*
X982819Y344779D02*
X982819Y330279D01*
X966552Y330279D01*
X966552Y344779D01*
X982819Y344779D01*
G37*
G36*
X974686Y336646D02*
X960186Y336646D01*
X960186Y352913D01*
X974686Y352913D01*
X974686Y336646D01*
G37*
G54D32*
G36*
X214000Y472133D02*
X228500Y472133D01*
X228500Y455867D01*
X214000Y455867D01*
X214000Y472133D01*
G37*
G36*
X222133Y464000D02*
X222133Y449500D01*
X205867Y449500D01*
X205867Y464000D01*
X222133Y464000D01*
G37*
G36*
X214000Y455867D02*
X199500Y455867D01*
X199500Y472133D01*
X214000Y472133D01*
X214000Y455867D01*
G37*
G36*
X205867Y464000D02*
X205867Y478500D01*
X222133Y478500D01*
X222133Y464000D01*
X205867Y464000D01*
G37*
G54D29*
G36*
X471108Y321197D02*
X471108Y335697D01*
X488241Y335697D01*
X488241Y321197D01*
X471108Y321197D01*
G37*
G36*
X479674Y329764D02*
X494174Y329764D01*
X494174Y312631D01*
X479674Y312631D01*
X479674Y329764D01*
G37*
G36*
X488241Y321197D02*
X488241Y306697D01*
X471108Y306697D01*
X471108Y321197D01*
X488241Y321197D01*
G37*
G36*
X479674Y312631D02*
X465174Y312631D01*
X465174Y329764D01*
X479674Y329764D01*
X479674Y312631D01*
G37*
G54D25*
G36*
X-232391Y417605D02*
X-232391Y432105D01*
X-225725Y432105D01*
X-225725Y417605D01*
X-232391Y417605D01*
G37*
G36*
X-229058Y420938D02*
X-214558Y420938D01*
X-214558Y414272D01*
X-229058Y414272D01*
X-229058Y420938D01*
G37*
G36*
X-225725Y417605D02*
X-225725Y403105D01*
X-232391Y403105D01*
X-232391Y417605D01*
X-225725Y417605D01*
G37*
G36*
X-229058Y414272D02*
X-243558Y414272D01*
X-243558Y420938D01*
X-229058Y420938D01*
X-229058Y414272D01*
G37*
X903470Y269830D02*
G54D38*
D03*
X878070Y269830D02*
G54D38*
D03*
X852670Y269830D02*
G54D38*
D03*
X808720Y265036D02*
G54D38*
D03*
X808833Y214055D02*
G54D38*
D03*
X620503Y277527D02*
G54D38*
D03*
X620453Y201277D02*
G54D38*
D03*
X669020Y271386D02*
G54D38*
D03*
X669133Y220405D02*
G54D38*
D03*
X436353Y277527D02*
G54D38*
D03*
X436303Y201277D02*
G54D38*
D03*
G36*
X563270Y-13920D02*
X583270Y-13920D01*
X583270Y-33920D01*
X563270Y-33920D01*
X563270Y-13920D01*
G37*
G36*
X563270Y11480D02*
X583270Y11480D01*
X583270Y-8520D01*
X563270Y-8520D01*
X563270Y11480D01*
G37*
G36*
X563270Y-198070D02*
X583270Y-198070D01*
X583270Y-218070D01*
X563270Y-218070D01*
X563270Y-198070D01*
G37*
G36*
X563270Y-172670D02*
X583270Y-172670D01*
X583270Y-192670D01*
X563270Y-192670D01*
X563270Y-172670D01*
G37*
X478053Y15438D02*
G54D38*
D03*
X427072Y15325D02*
G54D38*
D03*
X478053Y-190937D02*
G54D38*
D03*
X427072Y-191050D02*
G54D38*
D03*
X478053Y72588D02*
G54D38*
D03*
X427073Y72475D02*
G54D38*
D03*
X490753Y-305237D02*
G54D38*
D03*
X439773Y-305350D02*
G54D38*
D03*
X616751Y105950D02*
G54D38*
D03*
X540501Y106000D02*
G54D38*
D03*
X629451Y-338550D02*
G54D38*
D03*
X553201Y-338500D02*
G54D38*
D03*
X744720Y150830D02*
G54D38*
D03*
X744720Y87330D02*
G54D38*
D03*
X744720Y-312720D02*
G54D38*
D03*
X744720Y-376220D02*
G54D38*
D03*
X856020Y112730D02*
G54D38*
D03*
X820920Y112730D02*
G54D38*
D03*
X868720Y-331770D02*
G54D38*
D03*
X833620Y-331770D02*
G54D38*
D03*
X1013779Y260552D02*
G54D38*
D03*
X1039279Y260552D02*
G54D38*
D03*
X915113Y77935D02*
G54D38*
D03*
X915163Y154185D02*
G54D38*
D03*
X865520Y-49070D02*
G54D38*
D03*
X864020Y-159670D02*
G54D38*
D03*
X960620Y-46070D02*
G54D38*
D03*
X963620Y-165670D02*
G54D38*
D03*
X300220Y-39670D02*
G54D38*
D03*
X439920Y-39670D02*
G54D38*
D03*
X439920Y-128570D02*
G54D38*
D03*
X439920Y-84120D02*
G54D38*
D03*
X1102679Y260552D02*
G54D38*
D03*
X1128179Y260552D02*
G54D38*
D03*
X878070Y269830D02*
G54D38*
D03*
X808833Y214055D02*
G54D38*
D03*
X763770Y206330D02*
G54D38*
D03*
X669133Y220405D02*
G54D38*
D03*
X963620Y-165670D02*
G54D38*
D03*
X856020Y112730D02*
G54D38*
D03*
X915113Y77935D02*
G54D38*
D03*
X868720Y-331770D02*
G54D38*
D03*
X300220Y-128570D02*
G54D38*
D03*
X439920Y-84120D02*
G54D38*
D03*
X1015570Y-56920D02*
G54D39*
D03*
X1066370Y-56920D02*
G54D39*
D03*
X1040970Y-82320D02*
G54D39*
D03*
X1066370Y-107720D02*
G54D39*
D03*
X1015570Y-107720D02*
G54D39*
D03*
X300220Y-84120D02*
G54D38*
D03*
X808833Y214055D02*
G54D38*
D03*
X669133Y220405D02*
G54D38*
D03*
X915113Y77935D02*
G54D38*
D03*
X927813Y-379265D02*
G54D38*
D03*
X927863Y-303015D02*
G54D38*
D03*
X927813Y-379265D02*
G54D38*
D03*
G36*
X563270Y-223470D02*
X583270Y-223470D01*
X583270Y-243470D01*
X563270Y-243470D01*
X563270Y-223470D01*
G37*
G36*
X563270Y-39320D02*
X583270Y-39320D01*
X583270Y-59320D01*
X563270Y-59320D01*
X563270Y-39320D01*
G37*
G54D40*
X629451Y-338550D02*
X630420Y-338120D01*
X598670Y-306370D01*
X598670Y-230170D01*
X579620Y-211120D01*
X573270Y-211120D01*
X573270Y-208070D01*
X-271065Y493069D02*
G54D41*
D03*
X-271065Y467669D02*
G54D41*
D03*
X-271065Y442269D02*
G54D41*
D03*
X-271065Y416869D02*
G54D41*
D03*
X-271065Y391469D02*
G54D41*
D03*
X-271065Y366069D02*
G54D41*
D03*
X-271065Y340669D02*
G54D41*
D03*
X-271065Y315269D02*
G54D41*
D03*
X-271065Y289869D02*
G54D41*
D03*
X-271065Y264469D02*
G54D41*
D03*
X-271065Y239069D02*
G54D41*
D03*
X-271065Y213669D02*
G54D41*
D03*
X-271065Y188269D02*
G54D41*
D03*
X-271065Y162869D02*
G54D41*
D03*
X-271065Y137469D02*
G54D41*
D03*
X-118665Y493069D02*
G54D41*
D03*
X-118665Y467669D02*
G54D41*
D03*
X-118665Y442269D02*
G54D41*
D03*
X-118665Y416869D02*
G54D41*
D03*
X-118665Y391469D02*
G54D41*
D03*
X-118665Y366069D02*
G54D41*
D03*
X-118665Y340669D02*
G54D41*
D03*
X-118665Y315269D02*
G54D41*
D03*
X-118665Y289869D02*
G54D41*
D03*
X-118665Y264469D02*
G54D41*
D03*
X-118665Y239069D02*
G54D41*
D03*
X-118665Y213669D02*
G54D41*
D03*
X-118665Y188269D02*
G54D41*
D03*
X-118665Y162869D02*
G54D41*
D03*
X-118665Y137469D02*
G54D41*
D03*
X-118506Y518310D02*
G54D42*
D03*
X-270906Y518310D02*
G54D42*
D03*
X-169719Y492053D02*
G54D41*
D03*
X-169719Y517453D02*
G54D41*
D03*
X-195119Y492053D02*
G54D41*
D03*
X-195119Y517453D02*
G54D41*
D03*
X-220519Y492053D02*
G54D41*
D03*
X-220519Y517453D02*
G54D41*
D03*
X-65966Y361499D02*
G54D38*
D03*
X-65966Y437699D02*
G54D38*
D03*
X-63391Y556624D02*
G54D38*
D03*
X-63391Y531124D02*
G54D38*
D03*
X-62209Y322234D02*
G54D38*
D03*
X-62096Y271253D02*
G54D38*
D03*
X-65966Y221799D02*
G54D38*
D03*
X-65966Y120199D02*
G54D38*
D03*
X-13841Y155614D02*
G54D38*
D03*
X-13953Y206594D02*
G54D38*
D03*
X-11091Y80882D02*
G54D38*
D03*
X-62071Y80770D02*
G54D38*
D03*
X-62096Y271253D02*
G54D38*
D03*
X-13953Y206594D02*
G54D38*
D03*
X-62071Y80770D02*
G54D38*
D03*
X-271065Y416869D02*
G54D38*
D03*
X-118665Y467669D02*
G54D38*
D03*
G54D40*
X-13841Y155613D02*
X-15116Y157029D01*
X-40516Y182429D01*
X-40516Y277679D01*
X-46866Y284029D01*
X-46866Y442779D01*
X-97666Y493579D01*
X-116716Y493579D01*
X-118665Y493069D01*
X71620Y239729D02*
G54D39*
D03*
X147820Y239730D02*
G54D39*
D03*
X71620Y163530D02*
G54D39*
D03*
X71620Y112730D02*
G54D39*
D03*
X71620Y61930D02*
G54D39*
D03*
X147820Y163530D02*
G54D39*
D03*
X147820Y112730D02*
G54D39*
D03*
X147820Y61930D02*
G54D39*
D03*
X58920Y582630D02*
G54D39*
D03*
X135120Y582630D02*
G54D39*
D03*
X58920Y506430D02*
G54D39*
D03*
X58920Y455630D02*
G54D39*
D03*
X58920Y404830D02*
G54D39*
D03*
X135120Y506430D02*
G54D39*
D03*
X135120Y455630D02*
G54D39*
D03*
X135120Y404830D02*
G54D39*
D03*
X312920Y239730D02*
G54D39*
D03*
X389120Y239730D02*
G54D39*
D03*
X312920Y163530D02*
G54D39*
D03*
X312920Y112730D02*
G54D39*
D03*
X312920Y61930D02*
G54D39*
D03*
X389120Y163530D02*
G54D39*
D03*
X389120Y112730D02*
G54D39*
D03*
X389120Y61930D02*
G54D39*
D03*
X312920Y582630D02*
G54D39*
D03*
X389120Y582630D02*
G54D39*
D03*
X312920Y506430D02*
G54D39*
D03*
X312920Y455630D02*
G54D39*
D03*
X312920Y404830D02*
G54D39*
D03*
X389120Y506430D02*
G54D39*
D03*
X389120Y455630D02*
G54D39*
D03*
X389120Y404830D02*
G54D39*
D03*
X929255Y443165D02*
G54D39*
D03*
X929254Y519365D02*
G54D39*
D03*
X1005455Y443165D02*
G54D39*
D03*
X1056255Y443165D02*
G54D39*
D03*
X1107055Y443165D02*
G54D39*
D03*
X1005455Y519366D02*
G54D39*
D03*
X1056255Y519365D02*
G54D39*
D03*
X1107055Y519365D02*
G54D39*
D03*
X472055Y436815D02*
G54D39*
D03*
X472055Y513016D02*
G54D39*
D03*
X548255Y436816D02*
G54D39*
D03*
X599055Y436816D02*
G54D39*
D03*
X649855Y436815D02*
G54D39*
D03*
X548255Y513016D02*
G54D39*
D03*
X599055Y513016D02*
G54D39*
D03*
X649855Y513016D02*
G54D39*
D03*
X27057Y358617D02*
G54D38*
D03*
X90557Y358617D02*
G54D38*
D03*
X58807Y298292D02*
G54D38*
D03*
X135120Y201630D02*
G54D38*
D03*
X120280Y356826D02*
G54D38*
D03*
X183781Y356826D02*
G54D38*
D03*
X152030Y296501D02*
G54D38*
D03*
X183781Y356826D02*
G54D38*
D03*
X58807Y298292D02*
G54D38*
D03*
X255657Y358617D02*
G54D38*
D03*
X319157Y358617D02*
G54D38*
D03*
X287407Y298292D02*
G54D38*
D03*
X348880Y356826D02*
G54D38*
D03*
X412381Y356826D02*
G54D38*
D03*
X380630Y296501D02*
G54D38*
D03*
X380630Y296501D02*
G54D38*
D03*
X287407Y298292D02*
G54D38*
D03*
X700158Y460217D02*
G54D38*
D03*
X763658Y460217D02*
G54D38*
D03*
X731908Y399892D02*
G54D38*
D03*
X793380Y458426D02*
G54D38*
D03*
X856880Y458426D02*
G54D38*
D03*
X825130Y398101D02*
G54D38*
D03*
X856881Y458426D02*
G54D38*
D03*
X731908Y399892D02*
G54D38*
D03*
X-271065Y416869D02*
G54D43*
D03*
X173740Y488548D02*
G54D44*
D03*
X173740Y590148D02*
G54D44*
D03*
X174565Y396638D02*
G54D38*
D03*
X174453Y447619D02*
G54D38*
D03*
X173740Y488548D02*
G54D38*
D03*
X173740Y488548D02*
G54D43*
D03*
X174565Y396638D02*
G54D43*
D03*
X275340Y488548D02*
G54D44*
D03*
X275340Y590148D02*
G54D44*
D03*
X276165Y396638D02*
G54D38*
D03*
X276053Y447619D02*
G54D38*
D03*
X275340Y488548D02*
G54D38*
D03*
X275340Y488548D02*
G54D43*
D03*
X276165Y396638D02*
G54D43*
D03*
X186440Y158348D02*
G54D44*
D03*
X186440Y259948D02*
G54D44*
D03*
X187265Y66438D02*
G54D38*
D03*
X187153Y117418D02*
G54D38*
D03*
X186440Y158348D02*
G54D38*
D03*
X186440Y158348D02*
G54D43*
D03*
X187265Y66438D02*
G54D43*
D03*
X272442Y164285D02*
G54D44*
D03*
X272442Y265885D02*
G54D44*
D03*
X233897Y205725D02*
G54D38*
D03*
X233785Y256706D02*
G54D38*
D03*
X233897Y205725D02*
G54D43*
D03*
X272442Y164285D02*
G54D43*
D03*
X559249Y565846D02*
G54D44*
D03*
X457649Y565846D02*
G54D44*
D03*
X651159Y566671D02*
G54D38*
D03*
X600179Y566559D02*
G54D38*
D03*
X559249Y565846D02*
G54D38*
D03*
X559249Y565846D02*
G54D43*
D03*
X651159Y566671D02*
G54D43*
D03*
X1029149Y565846D02*
G54D44*
D03*
X927549Y565846D02*
G54D44*
D03*
X1121059Y566671D02*
G54D38*
D03*
X1070079Y566559D02*
G54D38*
D03*
X1029149Y565846D02*
G54D38*
D03*
X1029149Y565846D02*
G54D43*
D03*
X1121059Y566671D02*
G54D43*
D03*
X135120Y582630D02*
G54D38*
D03*
X147820Y239730D02*
G54D38*
D03*
X389120Y582630D02*
G54D38*
D03*
X389120Y239730D02*
G54D38*
D03*
X472055Y436815D02*
G54D38*
D03*
X929255Y443165D02*
G54D38*
D03*
X152030Y296501D02*
G54D38*
D03*
X825130Y398101D02*
G54D38*
D03*
G54D45*
X27057Y358617D02*
X27170Y357080D01*
X39870Y344380D01*
X39870Y293580D01*
X46220Y287230D01*
X46220Y280880D01*
X52570Y274530D01*
X52570Y230080D01*
X71620Y211030D01*
X71620Y166580D01*
X71620Y163530D01*
G54D45*
X120280Y356826D02*
X122420Y357080D01*
X116070Y350730D01*
X116070Y191980D01*
X141470Y166580D01*
X147820Y166580D01*
X147820Y163530D01*
G54D45*
X186440Y259948D02*
X185920Y261830D01*
X166870Y242780D01*
X166870Y153880D01*
X160520Y147530D01*
X135120Y147530D01*
X77970Y204680D01*
X77970Y217380D01*
X71620Y223730D01*
X71620Y242780D01*
X71620Y239729D01*
G54D45*
X90557Y358617D02*
X90670Y357080D01*
X135120Y401530D01*
X135120Y407880D01*
X135120Y404830D01*
G54D45*
X183781Y356826D02*
X185920Y357080D01*
X135120Y407880D01*
X135120Y404830D01*
G54D45*
X186440Y259948D02*
X185920Y261830D01*
X198620Y274530D01*
X198620Y401530D01*
X192270Y407880D01*
X192270Y496780D01*
X173220Y515830D01*
X173220Y592030D01*
X173740Y590148D01*
G54D45*
X174453Y447619D02*
X173220Y445980D01*
X192270Y465030D01*
X192270Y496780D01*
X173220Y515830D01*
X173220Y592030D01*
X173740Y590148D01*
G54D45*
X135120Y506430D02*
X135120Y509480D01*
X77970Y452330D01*
X77970Y445980D01*
X52570Y420580D01*
X46220Y420580D01*
X8120Y382480D01*
X8120Y350730D01*
X33520Y325330D01*
X33520Y287230D01*
X39870Y280880D01*
X39870Y274530D01*
X46220Y268180D01*
X46220Y223730D01*
X52570Y217380D01*
X52570Y153880D01*
X71620Y134830D01*
X192270Y134830D01*
X243070Y185630D01*
X630420Y185630D01*
X649470Y204680D01*
X649470Y230080D01*
X687570Y268180D01*
X808220Y268180D01*
X808720Y265036D01*
G54D45*
X319157Y358617D02*
X319270Y357080D01*
X370070Y407880D01*
X389120Y407880D01*
X389120Y404830D01*
G54D45*
X412381Y356826D02*
X414520Y357080D01*
X389120Y382480D01*
X389120Y407880D01*
X389120Y404830D01*
G54D45*
X348880Y356826D02*
X351020Y357080D01*
X420870Y287230D01*
X420870Y268180D01*
X433570Y255480D01*
X484370Y255480D01*
X490720Y261830D01*
X630420Y261830D01*
X655820Y287230D01*
X674870Y287230D01*
X681220Y280880D01*
X814570Y280880D01*
X827270Y268180D01*
X827270Y261830D01*
X795520Y230080D01*
X757420Y230080D01*
X693920Y166580D01*
X389120Y166580D01*
X389120Y163530D01*
G54D45*
X312920Y582630D02*
X312920Y585680D01*
X331970Y566630D01*
X331970Y395180D01*
X300220Y363430D01*
X300220Y350730D01*
X312920Y338030D01*
X312920Y242780D01*
X312920Y239730D01*
G54D45*
X389120Y506430D02*
X389120Y509480D01*
X452620Y445980D01*
X452620Y426930D01*
X585970Y293580D01*
X681220Y293580D01*
X687570Y287230D01*
X820920Y287230D01*
X833620Y274530D01*
X833620Y255480D01*
X827270Y249130D01*
X827270Y198330D01*
X795520Y166580D01*
X738370Y166580D01*
X719320Y147530D01*
X376420Y147530D01*
X370070Y153880D01*
X370070Y172930D01*
X446270Y249130D01*
X490720Y249130D01*
X497070Y255480D01*
X674870Y255480D01*
X687570Y268180D01*
X808220Y268180D01*
X808720Y265036D01*
G54D45*
X548255Y436816D02*
X547870Y439630D01*
X700270Y287230D01*
X820920Y287230D01*
X833620Y274530D01*
X833620Y255480D01*
X827270Y249130D01*
X827270Y198330D01*
X795520Y166580D01*
X738370Y166580D01*
X719320Y147530D01*
X376420Y147530D01*
X370070Y153880D01*
X370070Y172930D01*
X382770Y185630D01*
X446270Y185630D01*
X466320Y184680D01*
X487370Y190680D01*
X521942Y210605D01*
X535170Y255480D01*
X674870Y255480D01*
X687570Y268180D01*
X808220Y268180D01*
X808720Y265036D01*
G54D45*
X457649Y565846D02*
X458970Y566630D01*
X471670Y553930D01*
X471670Y515830D01*
X472055Y513016D01*
G54D45*
X600179Y566559D02*
X598670Y566630D01*
X579620Y585680D01*
X547870Y585680D01*
X528820Y566630D01*
X458970Y566630D01*
X457649Y565846D01*
G54D45*
X173740Y590148D02*
X173220Y592030D01*
X141470Y560280D01*
X128770Y560280D01*
X103370Y585680D01*
X58920Y585680D01*
X58920Y582630D01*
G54D45*
X275340Y590148D02*
X274820Y592030D01*
X281170Y585680D01*
X312920Y585680D01*
X312920Y582630D01*
G54D45*
X71620Y61930D02*
X71620Y64980D01*
X135120Y1480D01*
X135120Y-17570D01*
X141470Y-23920D01*
X306570Y-23920D01*
X395470Y-112820D01*
X827270Y-112820D01*
X856942Y-117395D01*
X872020Y-99070D01*
X883370Y-83070D01*
X890770Y-55670D01*
X890770Y84030D01*
X897120Y90380D01*
X897120Y160230D01*
X922520Y185630D01*
X922520Y274530D01*
X700270Y496780D01*
X465320Y496780D01*
X439920Y522180D01*
X376420Y522180D01*
X370070Y515830D01*
X370070Y445980D01*
X395470Y420580D01*
X401820Y420580D01*
X433570Y388830D01*
X433570Y274530D01*
X436353Y277527D01*
G54D45*
X312920Y61930D02*
X312920Y64980D01*
X439920Y-62020D01*
X446270Y-62020D01*
X497070Y-112820D01*
X827270Y-112820D01*
X856942Y-117395D01*
X872020Y-99070D01*
X883370Y-83070D01*
X890770Y-55670D01*
X890770Y84030D01*
X897120Y90380D01*
X897120Y160230D01*
X922520Y185630D01*
X922520Y274530D01*
X700270Y496780D01*
X465320Y496780D01*
X439920Y522180D01*
X376420Y522180D01*
X370070Y515830D01*
X370070Y445980D01*
X395470Y420580D01*
X401820Y420580D01*
X433570Y388830D01*
X433570Y274530D01*
X436353Y277527D01*
G54D45*
X478520Y271386D02*
X478020Y274530D01*
X433570Y274530D01*
X436353Y277527D01*
G54D45*
X472055Y513016D02*
X471670Y515830D01*
X497070Y541230D01*
X1049520Y541230D01*
X1055870Y534880D01*
X1068570Y534880D01*
X1074920Y528530D01*
X1074920Y509480D01*
X1068570Y503130D01*
X998720Y503130D01*
X979670Y522180D01*
X928870Y522180D01*
X929254Y519365D01*
G54D45*
X1107055Y519365D02*
X1106670Y522180D01*
X1081270Y496780D01*
X465320Y496780D01*
X439920Y522180D01*
X376420Y522180D01*
X370070Y515830D01*
X370070Y496780D01*
X395470Y471380D01*
X401820Y471380D01*
X433570Y439630D01*
X433570Y274530D01*
X436353Y277527D01*
X-398280Y566630D02*
G54D38*
D03*
X-372880Y566630D02*
G54D38*
D03*
X-372880Y566630D02*
G54D38*
D03*
X-347480Y566630D02*
G54D38*
D03*
X-296680Y566630D02*
G54D38*
D03*
X-296680Y566630D02*
G54D38*
D03*
X-271280Y566630D02*
G54D38*
D03*
X-271280Y566630D02*
G54D38*
D03*
X-245880Y566630D02*
G54D38*
D03*
G54D45*
X-398280Y566630D02*
X-366530Y534880D01*
X-264930Y534880D01*
X-239530Y509480D01*
X-239530Y490430D01*
X-137930Y388830D01*
X-118880Y388830D01*
X-118665Y391469D01*
G54D45*
X-372880Y566630D02*
X-391930Y585680D01*
X-404630Y585680D01*
X-417330Y572980D01*
X-417330Y560280D01*
X-296680Y439630D01*
X-296680Y191980D01*
X-290330Y185630D01*
X-290330Y134830D01*
X-277630Y122130D01*
X-264930Y122130D01*
X-137930Y249130D01*
X-137930Y344380D01*
X-118880Y363430D01*
X-118665Y366069D01*
G54D45*
X-347480Y566630D02*
X-372880Y592030D01*
X-410980Y592030D01*
X-423680Y579330D01*
X-423680Y553930D01*
X-303030Y433280D01*
X-303030Y185630D01*
X-296680Y179280D01*
X-296680Y128480D01*
X-283980Y115780D01*
X-258580Y115780D01*
X-252230Y122130D01*
X-112530Y122130D01*
X-99830Y134830D01*
X-99830Y318980D01*
X-118880Y338030D01*
X-118665Y340669D01*
X-322080Y566630D02*
G54D38*
D03*
X-418600Y-365550D02*
G54D46*
D03*
X-418600Y459950D02*
G54D46*
D03*
X1118100Y-365550D02*
G54D46*
D03*
X1092700Y371050D02*
G54D46*
D03*
G36*
X-422250Y263700D02*
X-402250Y263700D01*
X-402250Y243700D01*
X-422250Y243700D01*
X-422250Y263700D01*
G37*
G36*
X-423520Y60500D02*
X-403520Y60500D01*
X-403520Y40500D01*
X-423520Y40500D01*
X-423520Y60500D01*
G37*
G36*
X-428600Y-155400D02*
X-408600Y-155400D01*
X-408600Y-175400D01*
X-428600Y-175400D01*
X-428600Y-155400D01*
G37*
G36*
X-276200Y-358600D02*
X-256200Y-358600D01*
X-256200Y-378600D01*
X-276200Y-378600D01*
X-276200Y-358600D01*
G37*
G36*
X3200Y-358600D02*
X23200Y-358600D01*
X23200Y-378600D01*
X3200Y-378600D01*
X3200Y-358600D01*
G37*
G36*
X295300Y-358600D02*
X315300Y-358600D01*
X315300Y-378600D01*
X295300Y-378600D01*
X295300Y-358600D01*
G37*
G36*
X1026800Y-229600D02*
X1046800Y-229600D01*
X1046800Y-249600D01*
X1026800Y-249600D01*
X1026800Y-229600D01*
G37*
G36*
X-187300Y593900D02*
X-167300Y593900D01*
X-167300Y573900D01*
X-187300Y573900D01*
X-187300Y593900D01*
G37*
X-312930Y-50220D02*
G54D39*
D03*
X-262130Y-50220D02*
G54D39*
D03*
X-287530Y-75620D02*
G54D39*
D03*
X-262130Y-101020D02*
G54D39*
D03*
X-312930Y-101020D02*
G54D39*
D03*
X-312930Y-228020D02*
G54D47*
D03*
X-262130Y-228020D02*
G54D38*
D03*
X-262130Y-291520D02*
G54D38*
D03*
X-312930Y-291520D02*
G54D38*
D03*
X-262130Y-228020D02*
G54D47*
D03*
X-312930Y-291520D02*
G54D47*
D03*
X-262130Y-291520D02*
G54D47*
D03*
X-312930Y-151820D02*
G54D38*
D03*
G54D40*
X-262130Y-228020D02*
X-312930Y-228020D01*
G54D40*
X-262130Y-291520D02*
X-312930Y-291520D01*
G54D48*
X616751Y105950D02*
X614862Y106731D01*
X614462Y73331D01*
X603462Y-4569D01*
X570412Y-26619D01*
X573270Y-23920D01*
X-344497Y308527D02*
G54D38*
D03*
X-344547Y232277D02*
G54D38*
D03*
X-347000Y192000D02*
G54D38*
D03*
X-346000Y119000D02*
G54D38*
D03*
X-346000Y119000D02*
G54D38*
D03*
X503Y521527D02*
G54D38*
D03*
X453Y445277D02*
G54D38*
D03*
X-28000Y523000D02*
G54D38*
D03*
X-27000Y450000D02*
G54D38*
D03*
X903159Y372282D02*
G54D38*
D03*
X979409Y372232D02*
G54D38*
D03*
X901686Y343779D02*
G54D38*
D03*
X974686Y344779D02*
G54D38*
D03*
X241503Y535527D02*
G54D38*
D03*
X241453Y459277D02*
G54D38*
D03*
X213000Y537000D02*
G54D38*
D03*
X214000Y464000D02*
G54D38*
D03*
G54D40*
X903159Y372282D02*
X900000Y372000D01*
X948000Y324000D01*
X988000Y324000D01*
X1012000Y348000D01*
X1108000Y348000D01*
X1124000Y364000D01*
X1124000Y532000D01*
X1116000Y540000D01*
X996000Y540000D01*
X972000Y516000D01*
X932000Y516000D01*
X929254Y519365D01*
G54D40*
X901686Y343779D02*
X900000Y340000D01*
X900000Y372000D01*
X903159Y372282D01*
G54D24*
X865520Y-49070D02*
X864942Y-51895D01*
X859942Y-78395D01*
X846942Y-96895D01*
X716942Y-94895D01*
X622942Y-93895D01*
X608942Y-78395D01*
X608942Y-39395D01*
X576942Y-27895D01*
X573270Y-23920D01*
G54D24*
X864020Y-162670D02*
X864942Y-158895D01*
X855942Y-143395D01*
X805942Y-131895D01*
X653942Y-125895D01*
X618942Y-133895D01*
X610942Y-191395D01*
X573270Y-208070D01*
X-140058Y586605D02*
G54D49*
D03*
G54D50*
X-140058Y586605D02*
X-139058Y587605D01*
X-139058Y463605D01*
X-135058Y459605D01*
X-135058Y435605D01*
X-119058Y419605D01*
X-119058Y415605D01*
X-118665Y416869D01*
X17942Y593605D02*
G54D49*
D03*
X244942Y592605D02*
G54D49*
D03*
X434942Y548605D02*
G54D49*
D03*
X479787Y270217D02*
G54D38*
D03*
X479674Y321197D02*
G54D38*
D03*
X479674Y321197D02*
G54D38*
D03*
X-229058Y417605D02*
G54D38*
D03*
G54D24*
X-262130Y-228020D02*
X-264058Y-231395D01*
X-72058Y-39395D01*
X303942Y-39395D01*
X300220Y-39670D01*
G54D24*
X-262130Y-291520D02*
X-264058Y-295395D01*
X-96058Y-127395D01*
X303942Y-127395D01*
X300220Y-128570D01*
X960942Y-2395D02*
G54D49*
D03*
X1038942Y-159395D02*
G54D49*
D03*
X865942Y-10395D02*
G54D49*
D03*
X865942Y-199395D02*
G54D49*
D03*
X854942Y299605D02*
G54D49*
D03*
X-229058Y-5395D02*
G54D49*
D03*
X-243058Y-334395D02*
G54D49*
D03*
X-241058Y-177395D02*
G54D49*
D03*
G54D24*
X-241058Y-177395D02*
X-240058Y-175395D01*
X-264058Y-199395D01*
X-264058Y-231395D01*
X-262130Y-228020D01*
G54D24*
X-243058Y-334395D02*
X-240058Y-335395D01*
X-264058Y-311395D01*
X-264058Y-295395D01*
X-262130Y-291520D01*
X1135942Y35605D02*
G54D38*
D03*
X1135942Y9605D02*
G54D38*
D03*
X1135942Y-16395D02*
G54D38*
D03*
X1135942Y-43395D02*
G54D38*
D03*
X1135942Y-70395D02*
G54D38*
D03*
X1136942Y-95395D02*
G54D38*
D03*
X1137942Y-119395D02*
G54D38*
D03*
X1138942Y-145395D02*
G54D38*
D03*
X1139442Y-170395D02*
G54D38*
D03*
X1038942Y-5395D02*
G54D38*
D03*
X997942Y-6395D02*
G54D38*
D03*
M02*
