%FSLAX34Y34*%
%MOMM*%
%LNSILK_TOP*%
G71*
G01*
%ADD10C,0.200*%
%ADD11C,0.111*%
%ADD12C,0.150*%
%ADD13C,0.167*%
%ADD14C,0.206*%
%ADD15C,0.144*%
%ADD16C,0.222*%
%ADD17C,0.127*%
%ADD18C,0.102*%
%ADD19C,0.050*%
%ADD20C,0.203*%
%ADD21C,0.500*%
%ADD22C,0.100*%
%ADD23C,0.300*%
%ADD24C,0.444*%
%LPD*%
G54D10*
G75*
G01X420870Y-79420D02*
G03X420870Y-79420I-50800J0D01*
G01*
G54D10*
G75*
G01X401820Y-79420D02*
G03X401820Y-79420I-31750J0D01*
G01*
G54D10*
G75*
G01X966620Y-99520D02*
G03X966620Y-99520I-50800J0D01*
G01*
G54D10*
G75*
G01X947570Y-99520D02*
G03X947570Y-99520I-31750J0D01*
G01*
G54D11*
X922520Y269830D02*
X922520Y278719D01*
G54D11*
X880737Y248874D02*
X883403Y248874D01*
X883403Y246097D01*
X882737Y244986D01*
X881403Y244430D01*
X880070Y244430D01*
X878737Y244986D01*
X878070Y246097D01*
X878070Y251652D01*
X878737Y252763D01*
X880070Y253319D01*
X881403Y253319D01*
X882737Y252763D01*
X883403Y251652D01*
G54D11*
X835778Y273877D02*
X835778Y268322D01*
X835112Y267211D01*
X833778Y266655D01*
X832445Y266655D01*
X831112Y267211D01*
X830445Y268322D01*
X830445Y273877D01*
X831112Y274988D01*
X832445Y275544D01*
X833778Y275544D01*
X835112Y274988D01*
X835778Y273877D01*
G54D12*
X821554Y275251D02*
X796154Y275251D01*
X796154Y203651D01*
X821554Y203651D01*
X821554Y275251D01*
G54D13*
X788262Y230595D02*
X789929Y229595D01*
X790762Y227595D01*
X790762Y225595D01*
X789929Y223595D01*
X788262Y222595D01*
X779929Y222595D01*
X778262Y223595D01*
X777429Y225595D01*
X777429Y227595D01*
X778262Y229595D01*
X779929Y230595D01*
G54D13*
X788262Y234262D02*
X789929Y235262D01*
X790762Y237262D01*
X790762Y239262D01*
X789929Y241262D01*
X788262Y242262D01*
X784096Y242262D01*
X783262Y242262D01*
X784929Y239262D01*
X784929Y237262D01*
X784096Y235262D01*
X782429Y234262D01*
X779929Y234262D01*
X778262Y235262D01*
X777429Y237262D01*
X777429Y239262D01*
X778262Y241262D01*
X779929Y242262D01*
X784096Y242262D01*
G54D13*
X777429Y253929D02*
X777429Y245929D01*
X783262Y245929D01*
X783262Y246929D01*
X782429Y248929D01*
X782429Y250929D01*
X783262Y252929D01*
X784929Y253929D01*
X788262Y253929D01*
X789929Y252929D01*
X790762Y250929D01*
X790762Y248929D01*
X789929Y246929D01*
X788262Y245929D01*
G54D12*
X609357Y264731D02*
X631532Y264731D01*
X631532Y214031D01*
X609357Y214031D01*
X609357Y264731D01*
G54D12*
X620444Y264931D02*
X620444Y272831D01*
G54D12*
X620444Y213931D02*
X620444Y206031D01*
G54D13*
X642702Y230457D02*
X644369Y232457D01*
X646036Y233123D01*
X649369Y233123D01*
G54D13*
X649369Y227790D02*
X636036Y227790D01*
X636036Y231123D01*
X636869Y232457D01*
X638536Y233123D01*
X640202Y233123D01*
X641869Y232457D01*
X642702Y231123D01*
X642702Y227790D01*
G54D13*
X646869Y236790D02*
X648536Y237457D01*
X649369Y238790D01*
X649369Y240123D01*
X648536Y241457D01*
X646869Y242123D01*
X642702Y242123D01*
X641869Y242123D01*
X643536Y240123D01*
X643536Y238790D01*
X642702Y237457D01*
X641036Y236790D01*
X638536Y236790D01*
X636869Y237457D01*
X636036Y238790D01*
X636036Y240123D01*
X636869Y241457D01*
X638536Y242123D01*
X642702Y242123D01*
G54D13*
X642702Y249123D02*
X642702Y247790D01*
X641869Y246457D01*
X640202Y245790D01*
X638536Y245790D01*
X636869Y246457D01*
X636036Y247790D01*
X636036Y249123D01*
X636869Y250457D01*
X638536Y251123D01*
X640202Y251123D01*
X641869Y250457D01*
X642702Y249123D01*
X643536Y250457D01*
X645202Y251123D01*
X646869Y251123D01*
X648536Y250457D01*
X649369Y249123D01*
X649369Y247790D01*
X648536Y246457D01*
X646869Y245790D01*
X645202Y245790D01*
X643536Y246457D01*
X642702Y247790D01*
G54D12*
X681854Y281601D02*
X656454Y281601D01*
X656454Y210001D01*
X681854Y210001D01*
X681854Y281601D01*
G54D13*
X651062Y228945D02*
X651062Y228945D01*
G54D12*
X425207Y264731D02*
X447382Y264731D01*
X447382Y214031D01*
X425207Y214031D01*
X425207Y264731D01*
G54D12*
X436294Y264931D02*
X436294Y272831D01*
G54D12*
X436294Y213931D02*
X436294Y206031D01*
G54D13*
X458552Y230457D02*
X460219Y232457D01*
X461886Y233123D01*
X465219Y233123D01*
G54D13*
X465219Y227790D02*
X451886Y227790D01*
X451886Y231123D01*
X452719Y232457D01*
X454386Y233123D01*
X456052Y233123D01*
X457719Y232457D01*
X458552Y231123D01*
X458552Y227790D01*
G54D13*
X462719Y236790D02*
X464386Y237457D01*
X465219Y238790D01*
X465219Y240123D01*
X464386Y241457D01*
X462719Y242123D01*
X458552Y242123D01*
X457719Y242123D01*
X459386Y240123D01*
X459386Y238790D01*
X458552Y237457D01*
X456886Y236790D01*
X454386Y236790D01*
X452719Y237457D01*
X451886Y238790D01*
X451886Y240123D01*
X452719Y241457D01*
X454386Y242123D01*
X458552Y242123D01*
G54D13*
X451886Y245790D02*
X451886Y251123D01*
X453552Y250457D01*
X456052Y249123D01*
X459386Y247790D01*
X461886Y247123D01*
X465219Y247123D01*
G54D11*
X588637Y5924D02*
X591303Y5924D01*
X591303Y3147D01*
X590637Y2036D01*
X589303Y1480D01*
X587970Y1480D01*
X586637Y2036D01*
X585970Y3147D01*
X585970Y8702D01*
X586637Y9813D01*
X587970Y10369D01*
X589303Y10369D01*
X590637Y9813D01*
X591303Y8702D01*
G54D11*
X585970Y-23920D02*
X585970Y-15031D01*
X589303Y-15031D01*
X590637Y-15587D01*
X591303Y-16698D01*
X591303Y-22253D01*
X590637Y-23364D01*
X589303Y-23920D01*
X585970Y-23920D01*
G54D11*
X585970Y-208070D02*
X585970Y-199181D01*
X589303Y-199181D01*
X590637Y-199737D01*
X591303Y-200848D01*
X591303Y-206403D01*
X590637Y-207514D01*
X589303Y-208070D01*
X585970Y-208070D01*
G54D11*
X585970Y-54003D02*
X586637Y-55114D01*
X587970Y-55670D01*
X589303Y-55670D01*
X590637Y-55114D01*
X591303Y-54003D01*
X591303Y-52892D01*
X590637Y-51781D01*
X589303Y-51226D01*
X587970Y-51226D01*
X586637Y-50670D01*
X585970Y-49559D01*
X585970Y-48448D01*
X586637Y-47337D01*
X587970Y-46781D01*
X589303Y-46781D01*
X590637Y-47337D01*
X591303Y-48448D01*
G54D11*
X585970Y-238153D02*
X586637Y-239264D01*
X587970Y-239820D01*
X589303Y-239820D01*
X590637Y-239264D01*
X591303Y-238153D01*
X591303Y-237042D01*
X590637Y-235931D01*
X589303Y-235376D01*
X587970Y-235376D01*
X586637Y-234820D01*
X585970Y-233709D01*
X585970Y-232598D01*
X586637Y-231487D01*
X587970Y-230931D01*
X589303Y-230931D01*
X590637Y-231487D01*
X591303Y-232598D01*
G54D11*
X588637Y-171876D02*
X591303Y-171876D01*
X591303Y-174653D01*
X590637Y-175764D01*
X589303Y-176320D01*
X587970Y-176320D01*
X586637Y-175764D01*
X585970Y-174653D01*
X585970Y-169098D01*
X586637Y-167987D01*
X587970Y-167431D01*
X589303Y-167431D01*
X590637Y-167987D01*
X591303Y-169098D01*
G54D12*
X488268Y2604D02*
X488268Y28005D01*
X416668Y28004D01*
X416668Y2604D01*
X488268Y2604D01*
G54D13*
X443613Y35896D02*
X442613Y34229D01*
X440613Y33396D01*
X438613Y33396D01*
X436613Y34229D01*
X435613Y35896D01*
X435613Y44229D01*
X436613Y45896D01*
X438613Y46729D01*
X440613Y46729D01*
X442613Y45896D01*
X443613Y44229D01*
G54D13*
X447280Y35896D02*
X448280Y34229D01*
X450280Y33396D01*
X452280Y33396D01*
X454280Y34229D01*
X455280Y35896D01*
X455280Y40063D01*
X455280Y40896D01*
X452280Y39229D01*
X450280Y39229D01*
X448280Y40063D01*
X447280Y41729D01*
X447280Y44229D01*
X448280Y45896D01*
X450280Y46729D01*
X452280Y46729D01*
X454280Y45896D01*
X455280Y44229D01*
X455280Y40063D01*
G54D13*
X458947Y44229D02*
X459947Y45896D01*
X461947Y46729D01*
X463947Y46729D01*
X465947Y45896D01*
X466947Y44229D01*
X466947Y42563D01*
X465947Y40896D01*
X463947Y40063D01*
X465947Y39229D01*
X466947Y37563D01*
X466947Y35896D01*
X465947Y34229D01*
X463947Y33396D01*
X461947Y33396D01*
X459947Y34229D01*
X458947Y35896D01*
G54D12*
X488268Y-203771D02*
X488268Y-178370D01*
X416668Y-178370D01*
X416668Y-203771D01*
X488268Y-203771D01*
G54D13*
X443613Y-170479D02*
X442613Y-172146D01*
X440613Y-172979D01*
X438613Y-172979D01*
X436613Y-172146D01*
X435613Y-170479D01*
X435613Y-162146D01*
X436613Y-160479D01*
X438613Y-159646D01*
X440613Y-159646D01*
X442613Y-160479D01*
X443613Y-162146D01*
G54D13*
X447280Y-170479D02*
X448280Y-172146D01*
X450280Y-172979D01*
X452280Y-172979D01*
X454280Y-172146D01*
X455280Y-170479D01*
X455280Y-166312D01*
X455280Y-165479D01*
X452280Y-167146D01*
X450280Y-167146D01*
X448280Y-166312D01*
X447280Y-164646D01*
X447280Y-162146D01*
X448280Y-160479D01*
X450280Y-159646D01*
X452280Y-159646D01*
X454280Y-160479D01*
X455280Y-162146D01*
X455280Y-166312D01*
G54D13*
X464947Y-172979D02*
X464947Y-159646D01*
X458947Y-167979D01*
X458947Y-169646D01*
X466947Y-169646D01*
G54D12*
X488268Y59754D02*
X488268Y85155D01*
X416668Y85154D01*
X416668Y59754D01*
X488268Y59754D01*
G54D13*
X443613Y93046D02*
X442613Y91379D01*
X440613Y90546D01*
X438613Y90546D01*
X436613Y91379D01*
X435613Y93046D01*
X435613Y101379D01*
X436613Y103046D01*
X438613Y103879D01*
X440613Y103879D01*
X442613Y103046D01*
X443613Y101379D01*
G54D13*
X455280Y90546D02*
X447280Y90546D01*
X447280Y91379D01*
X448280Y93046D01*
X454280Y98046D01*
X455280Y99713D01*
X455280Y101379D01*
X454280Y103046D01*
X452280Y103879D01*
X450280Y103879D01*
X448280Y103046D01*
X447280Y101379D01*
G54D13*
X466947Y101379D02*
X465947Y103046D01*
X463947Y103879D01*
X461947Y103879D01*
X459947Y103046D01*
X458947Y101379D01*
X458947Y97213D01*
X458947Y96379D01*
X461947Y98046D01*
X463947Y98046D01*
X465947Y97213D01*
X466947Y95546D01*
X466947Y93046D01*
X465947Y91379D01*
X463947Y90546D01*
X461947Y90546D01*
X459947Y91379D01*
X458947Y93046D01*
X458947Y97213D01*
G54D13*
X470614Y98879D02*
X475614Y103879D01*
X475614Y90546D01*
G54D12*
X500968Y-318071D02*
X500968Y-292670D01*
X429368Y-292670D01*
X429368Y-318071D01*
X500968Y-318071D01*
G54D13*
X456313Y-284779D02*
X455313Y-286446D01*
X453313Y-287279D01*
X451313Y-287279D01*
X449313Y-286446D01*
X448313Y-284779D01*
X448313Y-276446D01*
X449313Y-274779D01*
X451313Y-273946D01*
X453313Y-273946D01*
X455313Y-274779D01*
X456313Y-276446D01*
G54D13*
X467980Y-287279D02*
X459980Y-287279D01*
X459980Y-286446D01*
X460980Y-284779D01*
X466980Y-279779D01*
X467980Y-278112D01*
X467980Y-276446D01*
X466980Y-274779D01*
X464980Y-273946D01*
X462980Y-273946D01*
X460980Y-274779D01*
X459980Y-276446D01*
G54D13*
X479647Y-276446D02*
X478647Y-274779D01*
X476647Y-273946D01*
X474647Y-273946D01*
X472647Y-274779D01*
X471647Y-276446D01*
X471647Y-280612D01*
X471647Y-281446D01*
X474647Y-279779D01*
X476647Y-279779D01*
X478647Y-280612D01*
X479647Y-282279D01*
X479647Y-284779D01*
X478647Y-286446D01*
X476647Y-287279D01*
X474647Y-287279D01*
X472647Y-286446D01*
X471647Y-284779D01*
X471647Y-280612D01*
G54D13*
X491314Y-287279D02*
X483314Y-287279D01*
X483314Y-286446D01*
X484314Y-284779D01*
X490314Y-279779D01*
X491314Y-278112D01*
X491314Y-276446D01*
X490314Y-274779D01*
X488314Y-273946D01*
X486314Y-273946D01*
X484314Y-274779D01*
X483314Y-276446D01*
G54D12*
X603955Y117096D02*
X603955Y94921D01*
X553255Y94921D01*
X553255Y117096D01*
X603955Y117096D01*
G54D12*
X604155Y106008D02*
X612055Y106008D01*
G54D12*
X553155Y106008D02*
X545255Y106008D01*
G54D13*
X569681Y83750D02*
X571681Y82084D01*
X572347Y80417D01*
X572347Y77084D01*
G54D13*
X567014Y77084D02*
X567014Y90417D01*
X570347Y90417D01*
X571681Y89584D01*
X572347Y87917D01*
X572347Y86250D01*
X571681Y84584D01*
X570347Y83750D01*
X567014Y83750D01*
G54D13*
X581347Y77084D02*
X576014Y77084D01*
X576014Y77917D01*
X576681Y79584D01*
X580681Y84584D01*
X581347Y86250D01*
X581347Y87917D01*
X580681Y89584D01*
X579347Y90417D01*
X578014Y90417D01*
X576681Y89584D01*
X576014Y87917D01*
G54D13*
X590347Y87917D02*
X589681Y89584D01*
X588347Y90417D01*
X587014Y90417D01*
X585681Y89584D01*
X585014Y87917D01*
X585014Y83750D01*
X585014Y82917D01*
X587014Y84584D01*
X588347Y84584D01*
X589681Y83750D01*
X590347Y82084D01*
X590347Y79584D01*
X589681Y77917D01*
X588347Y77084D01*
X587014Y77084D01*
X585681Y77917D01*
X585014Y79584D01*
X585014Y83750D01*
G54D13*
X594014Y85417D02*
X597347Y90417D01*
X597347Y77084D01*
G54D12*
X616655Y-327404D02*
X616655Y-349579D01*
X565955Y-349579D01*
X565955Y-327404D01*
X616655Y-327404D01*
G54D12*
X616855Y-338492D02*
X624755Y-338492D01*
G54D12*
X565855Y-338492D02*
X557955Y-338492D01*
G54D13*
X582381Y-360750D02*
X584381Y-362416D01*
X585047Y-364083D01*
X585047Y-367416D01*
G54D13*
X579714Y-367416D02*
X579714Y-354083D01*
X583047Y-354083D01*
X584381Y-354916D01*
X585047Y-356583D01*
X585047Y-358250D01*
X584381Y-359916D01*
X583047Y-360750D01*
X579714Y-360750D01*
G54D13*
X594047Y-367416D02*
X588714Y-367416D01*
X588714Y-366583D01*
X589381Y-364916D01*
X593381Y-359916D01*
X594047Y-358250D01*
X594047Y-356583D01*
X593381Y-354916D01*
X592047Y-354083D01*
X590714Y-354083D01*
X589381Y-354916D01*
X588714Y-356583D01*
G54D13*
X603047Y-356583D02*
X602381Y-354916D01*
X601047Y-354083D01*
X599714Y-354083D01*
X598381Y-354916D01*
X597714Y-356583D01*
X597714Y-360750D01*
X597714Y-361583D01*
X599714Y-359916D01*
X601047Y-359916D01*
X602381Y-360750D01*
X603047Y-362416D01*
X603047Y-364916D01*
X602381Y-366583D01*
X601047Y-367416D01*
X599714Y-367416D01*
X598381Y-366583D01*
X597714Y-364916D01*
X597714Y-360750D01*
G54D13*
X612047Y-367416D02*
X606714Y-367416D01*
X606714Y-366583D01*
X607381Y-364916D01*
X611381Y-359916D01*
X612047Y-358250D01*
X612047Y-356583D01*
X611381Y-354916D01*
X610047Y-354083D01*
X608714Y-354083D01*
X607381Y-354916D01*
X606714Y-356583D01*
G54D12*
X817120Y100030D02*
X824720Y100030D01*
G54D12*
X820920Y103830D02*
X820920Y96230D01*
G54D12*
G75*
G01X878276Y112730D02*
G03X878276Y112730I-39850J0D01*
G01*
G54D14*
X797826Y179330D02*
X797826Y179330D01*
G54D14*
X937526Y83630D02*
X937526Y83630D01*
G54D12*
X829820Y-344470D02*
X837420Y-344470D01*
G54D12*
X833620Y-340670D02*
X833620Y-348270D01*
G54D12*
G75*
G01X890976Y-331770D02*
G03X890976Y-331770I-39850J0D01*
G01*
G54D14*
X810526Y-265170D02*
X810526Y-265170D01*
G54D14*
X810526Y-284670D02*
X810526Y-284670D01*
G54D10*
X1029058Y241514D02*
X1035058Y225514D01*
X1041058Y241514D01*
G54D10*
X1050258Y225514D02*
X1050258Y241514D01*
G54D10*
X1045458Y241514D02*
X1055058Y241514D01*
G54D10*
X1059458Y241514D02*
X1071458Y225514D01*
G54D10*
X1059458Y225514D02*
X1071458Y241514D01*
G54D12*
X1001008Y247865D02*
X1001009Y273265D01*
X1051808Y273265D01*
X1051808Y247865D01*
X1001008Y247865D01*
G54D10*
X1007881Y240467D02*
X1007882Y234116D01*
G54D10*
X1015819Y234116D02*
X999944Y234117D01*
G54D10*
X1002325Y230942D02*
X1013438Y230942D01*
G54D10*
X1010263Y227767D02*
X1005500Y227767D01*
G54D12*
X926259Y90731D02*
X904084Y90731D01*
X904084Y141431D01*
X926259Y141431D01*
X926259Y90731D01*
G54D12*
X915172Y90531D02*
X915172Y82631D01*
G54D12*
X915172Y141531D02*
X915172Y149431D01*
G54D13*
X888747Y122339D02*
X887081Y123006D01*
X886247Y124339D01*
X886247Y125672D01*
X887081Y127006D01*
X888747Y127672D01*
X897081Y127672D01*
X898747Y127006D01*
X899581Y125672D01*
X899581Y124339D01*
X898747Y123006D01*
X897081Y122339D01*
G54D13*
X888747Y118672D02*
X887081Y118006D01*
X886247Y116672D01*
X886247Y115339D01*
X887081Y114006D01*
X888747Y113339D01*
X892914Y113339D01*
X893747Y113339D01*
X892081Y115339D01*
X892081Y116672D01*
X892914Y118006D01*
X894581Y118672D01*
X897081Y118672D01*
X898747Y118006D01*
X899581Y116672D01*
X899581Y115339D01*
X898747Y114006D01*
X897081Y113339D01*
X892914Y113339D01*
G54D13*
X897081Y104339D02*
X898747Y105006D01*
X899581Y106339D01*
X899581Y107672D01*
X898747Y109006D01*
X897081Y109672D01*
X892914Y109672D01*
X892081Y109672D01*
X893747Y107672D01*
X893747Y106339D01*
X892914Y105006D01*
X891247Y104339D01*
X888747Y104339D01*
X887081Y105006D01*
X886247Y106339D01*
X886247Y107672D01*
X887081Y109006D01*
X888747Y109672D01*
X892914Y109672D01*
G54D10*
X1117958Y232514D02*
X1127558Y232514D01*
G54D10*
X1122758Y236514D02*
X1122758Y228514D01*
G54D10*
X1131958Y241514D02*
X1137958Y225514D01*
X1143958Y241514D01*
G54D12*
X1089908Y247865D02*
X1089909Y273265D01*
X1140708Y273265D01*
X1140708Y247865D01*
X1089908Y247865D01*
G54D10*
X1096781Y240467D02*
X1096782Y234116D01*
G54D10*
X1104719Y234116D02*
X1088844Y234117D01*
G54D10*
X1091225Y230942D02*
X1102338Y230942D01*
G54D10*
X1099163Y227767D02*
X1094400Y227767D01*
G54D12*
X990170Y-31520D02*
X1091770Y-31520D01*
X1091770Y-133120D01*
X990170Y-133120D01*
X990170Y-31520D01*
G54D15*
X989420Y-4770D02*
X989420Y-4770D01*
G54D15*
X989420Y-24270D02*
X989420Y-24270D01*
G54D10*
X687570Y-325420D02*
X789170Y-325420D01*
X789170Y-376220D01*
X687570Y-376220D01*
X687570Y-325420D01*
G54D10*
X687570Y144480D02*
X789170Y144480D01*
X789170Y93680D01*
X687570Y93680D01*
X687570Y144480D01*
G54D13*
X729814Y239105D02*
X731814Y237439D01*
X732481Y235772D01*
X732481Y232439D01*
G54D13*
X727148Y232439D02*
X727148Y245772D01*
X730481Y245772D01*
X731814Y244939D01*
X732481Y243272D01*
X732481Y241605D01*
X731814Y239939D01*
X730481Y239105D01*
X727148Y239105D01*
G54D13*
X736148Y245772D02*
X739481Y232439D01*
X742814Y245772D01*
G54D13*
X746482Y243272D02*
X747148Y244939D01*
X748482Y245772D01*
X749815Y245772D01*
X751148Y244939D01*
X751815Y243272D01*
X751815Y241605D01*
X751148Y239939D01*
X749815Y239105D01*
X751148Y238272D01*
X751815Y236605D01*
X751815Y234939D01*
X751148Y233272D01*
X749815Y232439D01*
X748482Y232439D01*
X747148Y233272D01*
X746482Y234939D01*
G54D13*
X732020Y126063D02*
X732020Y112730D01*
X736687Y112730D01*
G54D13*
X740354Y115230D02*
X741021Y113563D01*
X742354Y112730D01*
X743687Y112730D01*
X745021Y113563D01*
X745687Y115230D01*
X745687Y119397D01*
X745687Y120230D01*
X743687Y118563D01*
X742354Y118563D01*
X741021Y119397D01*
X740354Y121063D01*
X740354Y123563D01*
X741021Y125230D01*
X742354Y126063D01*
X743687Y126063D01*
X745021Y125230D01*
X745687Y123563D01*
X745687Y119397D01*
G54D13*
X744720Y-337487D02*
X744720Y-350820D01*
X749387Y-350820D01*
G54D13*
X756387Y-344153D02*
X755054Y-344153D01*
X753721Y-343320D01*
X753054Y-341653D01*
X753054Y-339987D01*
X753721Y-338320D01*
X755054Y-337487D01*
X756387Y-337487D01*
X757721Y-338320D01*
X758387Y-339987D01*
X758387Y-341653D01*
X757721Y-343320D01*
X756387Y-344153D01*
X757721Y-344987D01*
X758387Y-346653D01*
X758387Y-348320D01*
X757721Y-349987D01*
X756387Y-350820D01*
X755054Y-350820D01*
X753721Y-349987D01*
X753054Y-348320D01*
X753054Y-346653D01*
X753721Y-344987D01*
X755054Y-344153D01*
G54D13*
X838953Y51730D02*
X838287Y50063D01*
X836953Y49230D01*
X835620Y49230D01*
X834287Y50063D01*
X833620Y51730D01*
X833620Y60063D01*
X834287Y61730D01*
X835620Y62563D01*
X836953Y62563D01*
X838287Y61730D01*
X838953Y60063D01*
G54D13*
X842620Y51730D02*
X843287Y50063D01*
X844620Y49230D01*
X845953Y49230D01*
X847287Y50063D01*
X847953Y51730D01*
X847953Y55897D01*
X847953Y56730D01*
X845953Y55063D01*
X844620Y55063D01*
X843287Y55897D01*
X842620Y57563D01*
X842620Y60063D01*
X843287Y61730D01*
X844620Y62563D01*
X845953Y62563D01*
X847287Y61730D01*
X847953Y60063D01*
X847953Y55897D01*
G54D13*
X854953Y55897D02*
X853620Y55897D01*
X852287Y56730D01*
X851620Y58397D01*
X851620Y60063D01*
X852287Y61730D01*
X853620Y62563D01*
X854953Y62563D01*
X856287Y61730D01*
X856953Y60063D01*
X856953Y58397D01*
X856287Y56730D01*
X854953Y55897D01*
X856287Y55063D01*
X856953Y53397D01*
X856953Y51730D01*
X856287Y50063D01*
X854953Y49230D01*
X853620Y49230D01*
X852287Y50063D01*
X851620Y51730D01*
X851620Y53397D01*
X852287Y55063D01*
X853620Y55897D01*
G54D13*
X851653Y-380070D02*
X850987Y-381737D01*
X849653Y-382570D01*
X848320Y-382570D01*
X846987Y-381737D01*
X846320Y-380070D01*
X846320Y-371737D01*
X846987Y-370070D01*
X848320Y-369237D01*
X849653Y-369237D01*
X850987Y-370070D01*
X851653Y-371737D01*
G54D13*
X855320Y-380070D02*
X855987Y-381737D01*
X857320Y-382570D01*
X858653Y-382570D01*
X859987Y-381737D01*
X860653Y-380070D01*
X860653Y-375903D01*
X860653Y-375070D01*
X858653Y-376737D01*
X857320Y-376737D01*
X855987Y-375903D01*
X855320Y-374237D01*
X855320Y-371737D01*
X855987Y-370070D01*
X857320Y-369237D01*
X858653Y-369237D01*
X859987Y-370070D01*
X860653Y-371737D01*
X860653Y-375903D01*
G54D13*
X864320Y-380070D02*
X864987Y-381737D01*
X866320Y-382570D01*
X867653Y-382570D01*
X868987Y-381737D01*
X869653Y-380070D01*
X869653Y-375903D01*
X869653Y-375070D01*
X867653Y-376737D01*
X866320Y-376737D01*
X864987Y-375903D01*
X864320Y-374237D01*
X864320Y-371737D01*
X864987Y-370070D01*
X866320Y-369237D01*
X867653Y-369237D01*
X868987Y-370070D01*
X869653Y-371737D01*
X869653Y-375903D01*
G54D16*
X871720Y232108D02*
X871720Y217663D01*
X872609Y215441D01*
X874387Y214330D01*
X876164Y214330D01*
X877942Y215441D01*
X878831Y217663D01*
X878831Y232108D01*
G54D16*
X890831Y214330D02*
X883720Y214330D01*
X883720Y215441D01*
X884609Y217663D01*
X889942Y224330D01*
X890831Y226552D01*
X890831Y228774D01*
X889942Y230997D01*
X888164Y232108D01*
X886387Y232108D01*
X884609Y230997D01*
X883720Y228774D01*
G54D12*
X938959Y-366469D02*
X916784Y-366469D01*
X916784Y-315769D01*
X938959Y-315769D01*
X938959Y-366469D01*
G54D12*
X927872Y-366669D02*
X927872Y-374569D01*
G54D12*
X927872Y-315669D02*
X927872Y-307769D01*
G54D13*
X901447Y-334861D02*
X899780Y-334194D01*
X898947Y-332861D01*
X898947Y-331528D01*
X899780Y-330194D01*
X901447Y-329528D01*
X909780Y-329528D01*
X911447Y-330194D01*
X912280Y-331528D01*
X912280Y-332861D01*
X911447Y-334194D01*
X909780Y-334861D01*
G54D13*
X901447Y-338528D02*
X899780Y-339194D01*
X898947Y-340528D01*
X898947Y-341861D01*
X899780Y-343194D01*
X901447Y-343861D01*
X905614Y-343861D01*
X906447Y-343861D01*
X904780Y-341861D01*
X904780Y-340528D01*
X905614Y-339194D01*
X907280Y-338528D01*
X909780Y-338528D01*
X911447Y-339194D01*
X912280Y-340528D01*
X912280Y-341861D01*
X911447Y-343194D01*
X909780Y-343861D01*
X905614Y-343861D01*
G54D13*
X901447Y-347528D02*
X899780Y-348194D01*
X898947Y-349528D01*
X898947Y-350861D01*
X899780Y-352194D01*
X901447Y-352861D01*
X905614Y-352861D01*
X906447Y-352861D01*
X904780Y-350861D01*
X904780Y-349528D01*
X905614Y-348194D01*
X907280Y-347528D01*
X909780Y-347528D01*
X911447Y-348194D01*
X912280Y-349528D01*
X912280Y-350861D01*
X911447Y-352194D01*
X909780Y-352861D01*
X905614Y-352861D01*
G54D17*
X-283765Y99369D02*
X-283765Y531169D01*
X-105965Y531169D01*
X-105965Y99369D01*
X-283765Y99369D01*
G54D17*
X-165147Y80827D02*
X-165147Y184967D01*
X-224837Y184967D01*
X-224837Y80827D01*
X-165147Y80827D01*
G54D18*
X-186239Y467250D02*
X-180392Y467250D01*
X-178444Y469198D01*
X-178444Y473097D01*
X-180392Y475045D01*
X-186239Y475045D01*
X-186239Y463351D01*
G54D18*
X-190138Y473097D02*
X-192086Y475045D01*
X-195985Y475045D01*
X-197934Y473097D01*
X-197934Y471146D01*
X-195985Y469198D01*
X-192086Y469198D01*
X-190138Y467250D01*
X-190138Y465299D01*
X-192086Y463351D01*
X-195985Y463351D01*
X-197934Y465299D01*
G54D18*
X-201832Y465299D02*
X-203781Y463351D01*
X-207680Y463351D01*
X-209628Y465299D01*
X-209628Y473097D01*
X-207680Y475045D01*
X-203781Y475045D01*
X-201832Y473097D01*
G54D18*
X-213524Y475045D02*
X-217423Y475045D01*
G54D18*
X-215475Y475045D02*
X-215475Y463351D01*
G54D18*
X-217423Y463351D02*
X-213524Y463351D01*
G54D18*
X-201210Y390773D02*
X-201210Y382975D01*
G54D18*
X-207057Y390773D02*
X-199262Y390773D01*
X-195363Y386874D01*
X-199262Y382975D01*
X-207057Y382975D01*
G54D18*
X-207057Y379079D02*
X-199262Y379079D01*
G54D18*
X-203158Y379079D02*
X-199262Y375180D01*
X-199262Y373232D01*
G54D18*
X-199262Y361538D02*
X-199262Y367385D01*
X-201210Y369333D01*
X-205109Y369333D01*
X-207057Y367385D01*
X-207057Y361538D01*
X-195363Y361538D01*
G54D18*
X-199262Y357639D02*
X-205109Y357639D01*
X-207057Y355691D01*
X-207057Y349844D01*
X-199262Y349844D01*
G54D18*
X-199262Y345945D02*
X-199262Y343996D01*
X-207057Y343996D01*
G54D18*
X-207057Y345944D02*
X-207057Y342048D01*
G54D18*
X-207057Y338149D02*
X-199262Y338149D01*
X-199262Y332302D01*
X-201210Y330354D01*
X-207057Y330354D01*
G54D18*
X-201210Y326455D02*
X-205109Y326455D01*
X-207057Y324507D01*
X-207057Y320608D01*
X-205109Y318660D01*
X-201210Y318660D01*
X-199262Y320608D01*
X-199262Y324507D01*
X-201210Y326455D01*
G54D18*
X-188007Y320608D02*
X-188007Y324507D01*
X-186059Y326455D01*
X-182160Y326455D01*
X-180212Y324507D01*
X-180212Y320608D01*
X-182160Y318660D01*
X-186059Y318660D01*
X-188007Y320608D01*
G54D18*
X-188007Y330354D02*
X-182160Y330354D01*
X-180212Y332302D01*
X-180212Y338149D01*
X-188007Y338149D01*
G54D18*
X-184108Y342048D02*
X-184108Y347895D01*
X-186059Y349844D01*
X-188007Y347895D01*
X-188007Y342048D01*
X-182160Y342048D01*
X-180212Y343996D01*
X-180212Y347895D01*
G54D18*
X-176313Y353740D02*
X-188007Y353740D01*
X-176313Y361538D01*
X-188007Y361538D01*
G54D18*
X-193415Y343996D02*
X-195363Y343996D01*
G54D19*
X-259508Y498022D02*
X-255950Y498022D01*
X-255950Y496242D01*
X-256541Y495650D01*
X-258914Y495649D01*
X-259508Y496242D01*
X-259508Y498022D01*
G54D19*
X-257136Y494514D02*
X-255950Y493328D01*
X-259508Y493328D01*
G54D19*
X-259508Y494514D02*
X-259508Y492142D01*
G54D19*
X-259508Y489820D02*
X-255950Y489820D01*
G54D19*
X-255950Y491006D02*
X-255950Y488634D01*
G54D19*
X-255950Y487496D02*
X-259508Y485124D01*
G54D19*
X-259508Y487496D02*
X-255950Y485124D01*
G54D19*
X-264390Y482784D02*
X-266762Y479226D01*
G54D19*
X-267900Y479226D02*
X-269087Y480412D01*
G54D19*
X-270273Y479226D02*
X-270273Y482785D01*
X-268492Y482785D01*
X-267900Y482193D01*
X-267900Y481006D01*
X-268492Y480412D01*
X-270273Y480412D01*
G54D19*
X-266762Y482785D02*
X-264390Y479226D01*
G54D19*
X-272000Y479226D02*
X-271408Y479820D01*
X-271408Y482193D01*
X-272000Y482785D01*
X-273186Y482784D01*
X-273780Y482193D01*
X-273780Y479820D01*
X-273186Y479226D01*
X-272000Y479226D01*
G54D19*
X-275508Y479226D02*
X-274916Y479820D01*
X-274916Y482193D01*
X-275508Y482784D01*
X-277288Y482784D01*
X-277288Y479226D01*
X-275508Y479226D01*
G54D19*
X-276018Y453826D02*
X-276018Y457385D01*
X-274238Y457385D01*
X-273646Y456793D01*
X-273646Y455607D01*
X-274238Y455012D01*
X-276018Y455012D01*
G54D19*
X-270138Y456793D02*
X-270730Y457384D01*
X-271916Y457384D01*
X-272510Y456793D01*
X-272510Y456198D01*
X-271916Y455606D01*
X-270730Y455606D01*
X-270138Y455012D01*
X-270138Y454420D01*
X-270730Y453826D01*
X-271916Y453826D01*
X-272510Y454420D01*
G54D19*
X-273646Y453826D02*
X-274832Y455012D01*
G54D19*
X-269003Y457385D02*
X-266630Y457384D01*
G54D19*
X-267817Y457384D02*
X-267817Y453826D01*
G54D19*
X-266630Y431393D02*
X-267222Y431984D01*
X-269003Y431984D01*
X-269003Y428426D01*
X-267222Y428426D01*
X-266630Y429020D01*
X-266630Y431393D01*
G54D19*
X-270138Y431985D02*
X-270138Y428426D01*
X-272510Y431984D01*
X-272510Y428426D01*
G54D19*
X-273646Y431393D02*
X-274238Y431984D01*
X-275424Y431984D01*
X-276018Y431393D01*
X-276018Y429020D01*
X-275424Y428426D01*
X-274238Y428426D01*
X-273646Y429020D01*
X-273646Y430207D01*
X-274832Y430207D01*
G54D19*
X-274748Y403026D02*
X-274748Y406585D01*
X-272968Y406585D01*
X-272376Y405993D01*
X-272376Y403620D01*
X-272968Y403026D01*
X-274748Y403026D01*
G54D19*
X-271240Y405993D02*
X-270646Y406584D01*
X-269460Y406585D01*
X-268868Y405993D01*
X-268868Y405398D01*
X-271240Y403026D01*
X-268868Y403026D01*
G54D19*
X-271240Y380593D02*
X-270646Y381185D01*
X-269460Y381185D01*
X-268868Y380593D01*
X-268868Y379998D01*
X-269460Y379407D01*
X-268868Y378812D01*
X-268868Y378220D01*
X-269460Y377626D01*
X-270646Y377626D01*
X-271240Y378220D01*
G54D19*
X-272968Y377626D02*
X-272376Y378220D01*
X-272376Y380593D01*
X-272968Y381185D01*
X-274748Y381185D01*
X-274748Y377626D01*
X-272968Y377626D01*
G54D19*
X-270054Y379407D02*
X-269460Y379407D01*
G54D19*
X-272376Y355193D02*
X-272968Y355785D01*
X-274748Y355785D01*
X-274748Y352226D01*
X-272968Y352226D01*
X-272376Y352820D01*
X-272376Y355193D01*
G54D19*
X-269460Y352226D02*
X-269460Y355785D01*
X-271240Y354007D01*
X-268868Y354007D01*
G54D19*
X-268868Y330385D02*
X-271240Y330385D01*
X-271240Y328607D01*
X-270054Y329198D01*
X-269460Y329198D01*
X-268868Y328607D01*
X-268868Y327420D01*
X-269460Y326826D01*
X-270646Y326826D01*
X-271240Y327420D01*
G54D19*
X-272968Y326826D02*
X-272376Y327420D01*
X-272376Y329793D01*
X-272968Y330385D01*
X-274748Y330385D01*
X-274748Y326826D01*
X-272968Y326826D01*
G54D19*
X-272376Y304393D02*
X-272968Y304985D01*
X-274748Y304985D01*
X-274748Y301426D01*
X-272968Y301426D01*
X-272376Y302020D01*
X-272376Y304393D01*
G54D19*
X-271240Y302020D02*
X-271240Y303207D01*
X-269460Y303207D01*
X-268868Y302612D01*
X-268868Y302020D01*
X-269460Y301426D01*
X-270646Y301426D01*
X-271240Y302020D01*
G54D19*
X-271240Y303207D02*
X-270054Y304393D01*
X-268868Y304985D01*
G54D19*
X-271240Y276026D02*
X-271240Y276620D01*
X-268868Y278993D01*
X-268868Y279585D01*
X-271240Y279585D01*
G54D19*
X-272376Y276620D02*
X-272376Y278993D01*
X-272968Y279585D01*
X-274748Y279585D01*
X-274748Y276026D01*
X-272968Y276026D01*
X-272376Y276620D01*
G54D19*
X-269460Y252407D02*
X-268868Y252998D01*
X-268868Y253593D01*
X-269460Y254185D01*
X-270646Y254185D01*
X-271240Y253593D01*
X-271240Y252998D01*
X-270646Y252407D01*
X-269460Y252407D01*
X-268868Y251812D01*
X-268868Y251220D01*
X-269460Y250626D01*
X-270646Y250626D01*
X-271240Y251220D01*
X-271240Y251812D01*
X-270646Y252407D01*
G54D19*
X-272376Y251220D02*
X-272376Y253593D01*
X-272968Y254185D01*
X-274748Y254185D01*
X-274748Y250626D01*
X-272968Y250626D01*
X-272376Y251220D01*
G54D19*
X-272376Y228193D02*
X-272968Y228785D01*
X-274748Y228785D01*
X-274748Y225226D01*
X-272968Y225226D01*
X-272376Y225820D01*
X-272376Y228193D01*
G54D19*
X-271240Y225820D02*
X-270646Y225226D01*
X-269460Y225226D01*
X-268868Y225820D01*
X-268868Y228193D01*
X-269460Y228785D01*
X-270646Y228785D01*
X-271240Y228193D01*
X-271240Y227598D01*
X-270646Y227007D01*
X-268868Y227007D01*
G54D19*
X-272510Y202198D02*
X-271324Y203385D01*
X-271324Y199826D01*
G54D19*
X-272510Y199826D02*
X-270138Y199826D01*
G54D19*
X-268408Y199826D02*
X-269003Y200420D01*
X-266630Y202793D01*
X-266630Y200420D01*
X-267222Y199826D01*
X-268408Y199826D01*
G54D19*
X-269003Y200420D02*
X-269003Y202793D01*
X-268408Y203385D01*
X-267222Y203385D01*
X-266630Y202793D01*
G54D19*
X-273646Y200420D02*
X-273646Y202793D01*
X-274238Y203385D01*
X-276018Y203385D01*
X-276018Y199826D01*
X-274238Y199826D01*
X-273646Y200420D01*
G54D19*
X-273646Y177393D02*
X-274238Y177985D01*
X-276018Y177985D01*
X-276018Y174426D01*
X-274238Y174426D01*
X-273646Y175020D01*
X-273646Y177393D01*
G54D19*
X-272510Y176798D02*
X-271324Y177985D01*
X-271324Y174426D01*
G54D19*
X-272510Y174426D02*
X-270138Y174426D01*
G54D19*
X-269003Y174426D02*
X-266630Y174426D01*
G54D19*
X-267817Y174426D02*
X-267817Y177985D01*
X-269003Y176798D01*
G54D19*
X-266630Y149026D02*
X-269003Y149026D01*
X-266630Y151398D01*
X-266630Y151993D01*
X-267222Y152585D01*
X-268408Y152585D01*
X-269003Y151993D01*
G54D19*
X-270138Y149026D02*
X-272510Y149026D01*
G54D19*
X-271324Y149026D02*
X-271324Y152585D01*
X-272510Y151398D01*
G54D19*
X-273646Y149620D02*
X-273646Y151993D01*
X-274238Y152585D01*
X-276018Y152584D01*
X-276018Y149026D01*
X-274238Y149026D01*
X-273646Y149620D01*
G54D19*
X-123618Y149026D02*
X-123618Y152585D01*
X-121838Y152585D01*
X-121246Y151993D01*
X-121246Y149620D01*
X-121838Y149026D01*
X-123618Y149026D01*
G54D19*
X-120110Y151398D02*
X-118924Y152585D01*
X-118924Y149026D01*
G54D19*
X-120110Y149026D02*
X-117738Y149026D01*
G54D19*
X-116603Y149620D02*
X-116008Y149026D01*
X-114822Y149026D01*
X-114230Y149620D01*
X-114231Y150212D01*
X-114822Y150807D01*
X-115417Y150806D01*
G54D19*
X-114822Y150807D02*
X-114230Y151399D01*
X-114230Y151993D01*
X-114822Y152585D01*
X-116008Y152585D01*
X-116603Y151993D01*
G54D19*
X-115417Y176207D02*
X-114822Y176207D01*
X-114230Y175612D01*
X-114230Y175020D01*
X-114822Y174426D01*
X-116008Y174426D01*
X-116603Y175020D01*
G54D19*
X-114822Y176207D02*
X-114230Y176798D01*
X-114230Y177393D01*
X-114822Y177984D01*
X-116008Y177985D01*
X-116603Y177393D01*
G54D19*
X-117738Y177985D02*
X-117738Y175612D01*
X-118924Y174426D01*
X-120110Y175612D01*
X-120110Y177985D01*
G54D19*
X-123618Y177393D02*
X-123024Y177985D01*
X-121838Y177985D01*
X-121246Y177393D01*
X-121246Y176798D01*
X-121838Y176206D01*
X-121246Y175612D01*
X-121246Y175020D01*
X-121838Y174426D01*
X-123024Y174426D01*
X-123618Y175020D01*
G54D19*
X-122432Y176207D02*
X-121838Y176206D01*
G54D19*
X-122516Y199826D02*
X-122516Y202198D01*
X-123702Y203385D01*
X-124888Y202198D01*
X-124888Y199826D01*
G54D19*
X-124888Y201606D02*
X-122516Y201606D01*
G54D19*
X-121380Y201012D02*
X-119600Y201012D01*
X-119008Y201607D01*
X-119008Y202793D01*
X-119600Y203385D01*
X-121380Y203385D01*
X-121380Y199826D01*
G54D19*
X-120194Y201012D02*
X-119008Y199826D01*
G54D19*
X-115500Y203385D02*
X-117873Y203385D01*
X-117873Y199826D01*
X-115500Y199826D01*
G54D19*
X-114362Y199826D02*
X-114362Y203385D01*
X-111990Y203385D01*
G54D19*
X-113176Y201607D02*
X-114362Y201607D01*
G54D19*
X-117873Y201607D02*
X-116687Y201607D01*
G54D19*
X-115790Y225226D02*
X-116976Y225226D01*
X-117570Y225820D01*
X-115198Y228193D01*
X-115198Y225820D01*
X-115790Y225226D01*
G54D19*
X-117570Y225820D02*
X-117570Y228193D01*
X-116976Y228784D01*
X-115790Y228784D01*
X-115198Y228193D01*
G54D19*
X-121078Y225226D02*
X-121078Y227598D01*
X-119892Y228785D01*
X-118706Y227598D01*
X-118706Y225226D01*
G54D19*
X-118706Y227007D02*
X-121078Y227007D01*
G54D19*
X-121078Y250626D02*
X-121078Y252998D01*
X-119892Y254185D01*
X-118706Y252998D01*
X-118706Y250626D01*
G54D19*
X-117570Y250626D02*
X-115198Y250626D01*
G54D19*
X-116384Y250626D02*
X-116384Y254185D01*
X-117570Y252998D01*
G54D19*
X-118706Y252407D02*
X-121078Y252407D01*
G54D19*
X-121078Y276026D02*
X-121078Y278398D01*
X-119892Y279585D01*
X-118706Y278398D01*
X-118706Y276026D01*
G54D19*
X-115198Y276026D02*
X-117570Y276026D01*
X-115198Y278398D01*
X-115198Y278993D01*
X-115790Y279585D01*
X-116976Y279585D01*
X-117570Y278993D01*
G54D19*
X-118706Y277807D02*
X-121078Y277807D01*
G54D19*
X-117570Y304393D02*
X-116976Y304984D01*
X-115790Y304984D01*
X-115198Y304393D01*
X-115198Y303798D01*
X-115790Y303207D01*
X-115198Y302612D01*
X-115198Y302020D01*
X-115790Y301426D01*
X-116976Y301426D01*
X-117570Y302020D01*
G54D19*
X-118706Y301426D02*
X-118706Y303798D01*
X-119892Y304985D01*
X-121078Y303798D01*
X-121078Y301426D01*
G54D19*
X-121078Y303207D02*
X-118706Y303207D01*
G54D19*
X-115790Y303207D02*
X-116384Y303207D01*
G54D19*
X-115790Y326826D02*
X-115790Y330385D01*
X-117570Y328606D01*
X-115198Y328606D01*
G54D19*
X-118706Y328607D02*
X-121078Y328607D01*
G54D19*
X-121078Y326826D02*
X-121078Y329198D01*
X-119892Y330385D01*
X-118706Y329198D01*
X-118706Y326826D01*
G54D19*
X-121078Y352226D02*
X-121078Y354598D01*
X-119892Y355785D01*
X-118706Y354598D01*
X-118706Y352226D01*
G54D19*
X-117570Y352820D02*
X-116976Y352226D01*
X-115790Y352226D01*
X-115198Y352820D01*
X-115198Y354007D01*
X-115790Y354598D01*
X-116384Y354598D01*
X-117570Y354007D01*
X-117570Y355785D01*
X-115198Y355785D01*
G54D19*
X-118706Y354007D02*
X-121078Y354007D01*
G54D19*
X-121078Y377626D02*
X-121078Y379998D01*
X-119892Y381185D01*
X-118706Y379998D01*
X-118706Y377626D01*
G54D19*
X-115198Y381185D02*
X-116384Y380593D01*
X-117570Y379407D01*
X-117570Y378220D01*
X-116976Y377626D01*
X-115790Y377626D01*
X-115198Y378220D01*
X-115198Y378812D01*
X-115790Y379407D01*
X-117570Y379407D01*
G54D19*
X-118706Y379407D02*
X-121078Y379407D01*
G54D19*
X-121078Y403026D02*
X-121078Y405398D01*
X-119892Y406585D01*
X-118706Y405398D01*
X-118706Y403026D01*
G54D19*
X-117570Y403026D02*
X-117570Y403620D01*
X-115198Y405993D01*
X-115198Y406585D01*
X-117570Y406585D01*
G54D19*
X-118706Y404806D02*
X-121078Y404807D01*
G54D19*
X-117738Y431984D02*
X-120110Y431984D01*
X-120110Y430207D01*
X-118924Y430798D01*
X-118330Y430798D01*
X-117738Y430206D01*
X-117738Y429020D01*
X-118330Y428426D01*
X-119516Y428426D01*
X-120110Y429020D01*
G54D19*
X-116603Y431985D02*
X-116603Y429612D01*
X-115417Y428426D01*
X-114230Y429612D01*
X-114230Y431984D01*
G54D19*
X-121246Y430207D02*
X-123618Y430206D01*
G54D19*
X-122432Y431393D02*
X-122432Y429020D01*
G54D19*
X-121246Y453826D02*
X-122432Y455012D01*
G54D19*
X-123618Y453826D02*
X-123618Y457384D01*
X-121838Y457384D01*
X-121246Y456793D01*
X-121246Y455606D01*
X-121838Y455012D01*
X-123618Y455012D01*
G54D19*
X-120110Y454420D02*
X-119516Y453826D01*
X-118330Y453826D01*
X-117738Y454420D01*
X-117738Y455012D01*
X-118330Y455606D01*
X-119516Y455607D01*
X-120110Y456198D01*
X-120110Y456793D01*
X-119516Y457384D01*
X-118330Y457384D01*
X-117738Y456793D01*
G54D19*
X-116603Y457384D02*
X-114230Y457384D01*
G54D19*
X-115417Y457385D02*
X-115417Y453826D01*
G54D19*
X-116603Y479226D02*
X-114822Y479226D01*
X-114230Y479820D01*
X-114230Y482193D01*
X-114822Y482785D01*
X-116603Y482785D01*
X-116603Y479226D01*
G54D19*
X-120110Y479226D02*
X-120110Y482785D01*
X-117738Y479226D01*
X-117738Y482785D01*
G54D19*
X-121246Y482193D02*
X-121838Y482785D01*
X-123024Y482785D01*
X-123618Y482193D01*
X-123618Y479820D01*
X-123024Y479226D01*
X-121838Y479226D01*
X-121246Y479820D01*
X-121246Y481007D01*
X-122432Y481007D01*
G54D19*
X-130220Y488997D02*
X-133778Y488997D01*
X-130220Y491370D01*
X-133778Y491370D01*
G54D19*
X-133778Y492523D02*
X-133778Y493709D01*
G54D19*
X-133778Y493115D02*
X-130220Y493115D01*
G54D19*
X-130220Y492523D02*
X-130220Y493709D01*
G54D19*
X-130220Y494845D02*
X-132592Y494845D01*
X-133778Y496031D01*
X-132592Y497217D01*
X-130220Y497217D01*
G54D10*
X-182419Y492053D02*
X-182419Y485653D01*
X-176119Y479353D01*
X-163319Y479353D01*
X-157019Y485653D01*
X-157019Y498453D01*
X-163319Y504753D01*
X-176119Y504753D01*
X-182419Y498453D01*
X-182419Y492053D01*
G54D10*
X-182419Y517453D02*
X-182419Y511053D01*
X-176119Y504753D01*
X-163319Y504753D01*
X-157019Y511053D01*
X-157019Y523853D01*
X-163319Y530153D01*
X-176119Y530153D01*
X-182419Y523853D01*
X-182419Y517453D01*
G54D10*
X-207819Y492053D02*
X-207819Y485653D01*
X-201519Y479353D01*
X-188719Y479353D01*
X-182419Y485653D01*
X-182419Y498453D01*
X-188719Y504753D01*
X-201519Y504753D01*
X-207819Y498453D01*
X-207819Y492053D01*
G54D10*
X-207819Y517453D02*
X-207819Y511053D01*
X-201519Y504753D01*
X-188719Y504753D01*
X-182419Y511053D01*
X-182419Y523853D01*
X-188719Y530153D01*
X-201519Y530153D01*
X-207819Y523853D01*
X-207819Y517453D01*
G54D10*
X-233219Y492053D02*
X-233219Y485653D01*
X-226919Y479353D01*
X-214119Y479353D01*
X-207819Y485653D01*
X-207819Y498453D01*
X-214119Y504753D01*
X-226919Y504753D01*
X-233219Y498453D01*
X-233219Y492053D01*
G54D10*
X-233219Y517453D02*
X-233219Y511053D01*
X-226919Y504753D01*
X-214119Y504753D01*
X-207819Y511053D01*
X-207819Y523853D01*
X-214119Y530153D01*
X-226919Y530153D01*
X-233219Y523853D01*
X-233219Y517453D01*
G54D20*
X-206676Y270184D02*
X-218106Y265358D01*
X-216582Y262818D01*
X-220900Y256722D01*
X-216074Y251896D01*
X-209978Y256214D01*
G54D20*
X-203120Y253674D02*
X-201850Y246054D01*
X-195246Y246054D01*
X-193722Y253674D01*
G54D20*
X-187372Y256468D02*
X-180768Y251896D01*
X-176196Y256722D01*
X-180768Y263326D01*
G54D20*
X-178228Y269676D02*
X-170100Y270946D01*
X-170100Y277804D01*
X-178228Y279074D01*
G54D20*
X-180768Y285424D02*
X-176196Y292028D01*
X-180768Y296854D01*
X-187372Y292282D01*
G54D20*
X-193722Y295076D02*
X-195246Y302696D01*
X-201850Y302696D01*
X-203120Y295076D01*
G54D20*
X-209978Y292536D02*
X-216074Y296600D01*
X-220900Y292028D01*
X-216582Y285932D01*
X-218106Y283392D01*
X-206676Y278312D01*
G54D20*
X-209978Y256189D02*
X-208937Y255604D01*
X-207845Y255071D01*
X-206702Y254614D01*
X-205559Y254233D01*
X-204390Y253903D01*
X-203196Y253649D01*
G54D20*
X-193697Y253700D02*
X-192376Y254080D01*
X-191081Y254563D01*
X-189811Y255122D01*
X-188591Y255757D01*
X-187398Y256493D01*
G54D20*
X-206422Y270184D02*
X-205965Y269346D01*
X-205432Y268584D01*
X-204822Y267847D01*
X-204136Y267187D01*
X-203400Y266628D01*
X-202587Y266120D01*
X-201749Y265688D01*
X-200860Y265358D01*
X-199945Y265129D01*
X-199005Y264977D01*
X-198066Y264926D01*
X-197126Y264977D01*
X-196186Y265104D01*
X-195272Y265358D01*
X-194383Y265663D01*
X-193519Y266095D01*
X-192732Y266577D01*
X-191970Y267161D01*
X-191284Y267822D01*
X-190674Y268533D01*
X-190141Y269320D01*
X-189684Y270133D01*
X-189303Y270997D01*
X-189023Y271911D01*
X-188820Y272826D01*
X-188718Y273766D01*
X-188718Y274731D01*
X-188820Y275670D01*
X-189023Y276585D01*
X-189303Y277499D01*
X-189684Y278363D01*
X-190141Y279176D01*
X-190674Y279963D01*
X-191284Y280674D01*
X-191970Y281335D01*
X-192732Y281919D01*
X-193519Y282401D01*
X-194383Y282833D01*
X-195272Y283138D01*
X-196186Y283392D01*
X-197126Y283519D01*
X-198066Y283570D01*
X-199005Y283519D01*
X-199945Y283367D01*
X-200860Y283138D01*
X-201749Y282808D01*
X-202587Y282376D01*
X-203400Y281868D01*
X-204136Y281309D01*
X-204822Y280649D01*
X-205432Y279912D01*
X-205965Y279150D01*
X-206422Y278312D01*
G54D20*
X-209902Y292434D02*
X-208632Y293146D01*
X-207311Y293755D01*
X-205965Y294289D01*
X-204568Y294720D01*
X-203146Y295051D01*
G54D20*
X-180692Y285322D02*
X-180057Y284180D01*
X-179473Y282986D01*
X-178990Y281766D01*
X-178558Y280522D01*
X-178228Y279252D01*
G54D20*
X-187499Y292257D02*
X-188668Y292942D01*
X-189887Y293552D01*
X-191131Y294085D01*
X-192427Y294543D01*
X-193722Y294898D01*
G54D20*
X-178152Y269549D02*
X-178508Y268228D01*
X-178939Y266933D01*
X-179447Y265663D01*
X-180032Y264418D01*
X-180717Y263224D01*
X-151050Y519104D02*
G54D21*
D03*
G54D12*
X-74666Y384399D02*
X-57266Y384399D01*
X-57266Y414799D01*
X-74666Y414799D01*
X-74666Y384399D01*
G36*
X-74566Y384499D02*
X-57866Y384499D01*
X-57866Y391699D01*
X-74566Y391699D01*
X-74566Y384499D01*
G37*
G54D22*
X-74566Y384499D02*
X-57866Y384499D01*
X-57866Y391699D01*
X-74566Y391699D01*
X-74566Y384499D01*
G54D12*
X-65966Y373399D02*
X-65966Y384499D01*
G54D12*
X-65966Y414699D02*
X-65966Y425799D01*
G54D14*
X-101416Y390599D02*
X-101416Y390599D01*
G54D14*
X-81916Y352499D02*
X-81916Y352499D01*
G54D10*
X-82252Y559599D02*
X-98252Y553599D01*
X-82252Y547599D01*
G54D10*
X-98252Y543199D02*
X-82252Y543199D01*
G54D10*
X-98252Y538799D02*
X-82252Y538799D01*
X-98252Y529199D01*
X-82252Y529199D01*
G54D12*
X-76079Y569395D02*
X-50678Y569395D01*
X-50679Y518595D01*
X-76079Y518595D01*
X-76079Y569395D01*
G54D12*
X-49375Y332449D02*
X-74776Y332449D01*
X-74776Y260849D01*
X-49376Y260849D01*
X-49375Y332449D01*
G54D13*
X-80167Y279793D02*
X-80167Y279793D01*
G54D12*
X-75466Y189999D02*
X-56466Y189999D01*
X-56466Y151999D01*
X-75466Y151999D01*
X-75466Y189999D01*
G54D12*
X-65966Y190099D02*
X-65966Y210699D01*
G54D12*
X-65966Y131299D02*
X-65966Y151899D01*
G54D15*
X-50806Y173114D02*
X-50806Y161559D01*
X-44740Y161559D01*
G54D15*
X-49216Y231799D02*
X-49216Y231799D01*
G54D12*
X-26674Y145399D02*
X-1274Y145399D01*
X-1274Y216998D01*
X-26674Y216998D01*
X-26674Y145399D01*
G54D13*
X-72083Y159954D02*
X-72083Y159954D01*
G54D12*
X-876Y68049D02*
X-876Y93449D01*
X-72476Y93449D01*
X-72476Y68049D01*
X-876Y68049D01*
G54D23*
X59520Y51130D02*
X160120Y51230D01*
X160020Y251130D01*
X59520Y251130D01*
X59520Y51130D01*
G54D10*
X71620Y239730D02*
X71620Y214330D01*
X77920Y214330D01*
X77820Y214330D01*
X84220Y196829D01*
X84320Y196830D01*
X92220Y227030D01*
X100220Y195230D01*
X108120Y227030D01*
X117720Y195229D01*
X127120Y227029D01*
X135120Y195229D01*
X141520Y214329D01*
X147820Y214330D01*
X147820Y239730D01*
G54D10*
X71620Y61930D02*
X96920Y61930D01*
X96920Y80930D01*
G54D10*
X71620Y112730D02*
X96920Y112730D01*
X96920Y93730D01*
G54D10*
X147820Y61930D02*
X122420Y61930D01*
X122420Y80930D01*
G54D10*
X147820Y112730D02*
X122420Y112730D01*
X122420Y93730D01*
G36*
X97020Y80930D02*
X97020Y81029D01*
X90620Y68330D01*
X103320Y68330D01*
X96920Y80930D01*
X97020Y80930D01*
G37*
G54D23*
X97020Y80930D02*
X97020Y81029D01*
X90620Y68330D01*
X103320Y68330D01*
X96920Y80930D01*
X97020Y80930D01*
G36*
X122420Y80829D02*
X122420Y80930D01*
X116020Y68230D01*
X128720Y68230D01*
X122320Y80830D01*
X122420Y80829D01*
G37*
G54D23*
X122420Y80829D02*
X122420Y80930D01*
X116020Y68230D01*
X128720Y68230D01*
X122320Y80830D01*
X122420Y80829D01*
G36*
X97120Y93930D02*
X97120Y93830D01*
X103520Y106530D01*
X90820Y106530D01*
X97220Y93930D01*
X97120Y93930D01*
G37*
G54D23*
X97120Y93930D02*
X97120Y93830D01*
X103520Y106530D01*
X90820Y106530D01*
X97220Y93930D01*
X97120Y93930D01*
G36*
X122420Y93830D02*
X122420Y93730D01*
X128820Y106430D01*
X116120Y106430D01*
X122520Y93830D01*
X122420Y93830D01*
G37*
G54D23*
X122420Y93830D02*
X122420Y93730D01*
X128820Y106430D01*
X116120Y106430D01*
X122520Y93830D01*
X122420Y93830D01*
G54D10*
X97020Y93730D02*
X97020Y93630D01*
X78020Y87230D01*
X78020Y87330D01*
X63720Y87330D01*
X63720Y150830D01*
X63720Y163530D01*
X71620Y163530D01*
G54D10*
X122420Y93730D02*
X122420Y93730D01*
X141420Y87330D01*
X155720Y87330D01*
X155720Y163530D01*
X147820Y163530D01*
G54D23*
X46820Y394030D02*
X147420Y394130D01*
X147320Y594030D01*
X46820Y594030D01*
X46820Y394030D01*
G54D10*
X58920Y582630D02*
X58920Y557230D01*
X65220Y557230D01*
X65120Y557230D01*
X71520Y539730D01*
X71620Y539729D01*
X79520Y569929D01*
X87520Y538129D01*
X95420Y569930D01*
X105020Y538129D01*
X114420Y569930D01*
X122420Y538129D01*
X128820Y557230D01*
X135120Y557230D01*
X135120Y582630D01*
G54D10*
X58920Y404830D02*
X84220Y404830D01*
X84220Y423830D01*
G54D10*
X58920Y455629D02*
X84220Y455630D01*
X84220Y436630D01*
G54D10*
X135120Y404830D02*
X109720Y404830D01*
X109720Y423830D01*
G54D10*
X135120Y455630D02*
X109720Y455630D01*
X109720Y436630D01*
G36*
X84320Y423829D02*
X84320Y423930D01*
X77920Y411230D01*
X90620Y411230D01*
X84220Y423830D01*
X84320Y423829D01*
G37*
G54D23*
X84320Y423829D02*
X84320Y423930D01*
X77920Y411230D01*
X90620Y411230D01*
X84220Y423830D01*
X84320Y423829D01*
G36*
X109720Y423729D02*
X109720Y423830D01*
X103320Y411130D01*
X116020Y411130D01*
X109620Y423730D01*
X109720Y423729D01*
G37*
G54D23*
X109720Y423729D02*
X109720Y423830D01*
X103320Y411130D01*
X116020Y411130D01*
X109620Y423730D01*
X109720Y423729D01*
G36*
X84420Y436830D02*
X84420Y436730D01*
X90820Y449430D01*
X78120Y449429D01*
X84520Y436830D01*
X84420Y436830D01*
G37*
G54D23*
X84420Y436830D02*
X84420Y436730D01*
X90820Y449430D01*
X78120Y449429D01*
X84520Y436830D01*
X84420Y436830D01*
G36*
X109720Y436730D02*
X109720Y436630D01*
X116120Y449330D01*
X103420Y449330D01*
X109820Y436730D01*
X109720Y436730D01*
G37*
G54D23*
X109720Y436730D02*
X109720Y436630D01*
X116120Y449330D01*
X103420Y449330D01*
X109820Y436730D01*
X109720Y436730D01*
G54D10*
X84320Y436630D02*
X84320Y436530D01*
X65320Y430130D01*
X65320Y430230D01*
X51020Y430230D01*
X51020Y493730D01*
X51020Y506430D01*
X58920Y506430D01*
G54D10*
X109720Y436630D02*
X109720Y436630D01*
X128720Y430230D01*
X143020Y430230D01*
X143020Y506430D01*
X135120Y506430D01*
G54D23*
X300820Y51130D02*
X401420Y51230D01*
X401320Y251130D01*
X300820Y251130D01*
X300820Y51130D01*
G54D10*
X312920Y239730D02*
X312920Y214330D01*
X319220Y214330D01*
X319120Y214330D01*
X325520Y196830D01*
X325620Y196830D01*
X333520Y227030D01*
X341520Y195230D01*
X349420Y227030D01*
X359020Y195230D01*
X368420Y227030D01*
X376420Y195230D01*
X382820Y214330D01*
X389120Y214330D01*
X389120Y239730D01*
G54D10*
X312920Y61930D02*
X338220Y61930D01*
X338220Y80930D01*
G54D10*
X312920Y112730D02*
X338220Y112730D01*
X338220Y93730D01*
G54D10*
X389120Y61930D02*
X363720Y61930D01*
X363720Y80930D01*
G54D10*
X389120Y112730D02*
X363720Y112730D01*
X363720Y93730D01*
G36*
X338320Y80930D02*
X338320Y81030D01*
X331920Y68330D01*
X344620Y68330D01*
X338220Y80930D01*
X338320Y80930D01*
G37*
G54D23*
X338320Y80930D02*
X338320Y81030D01*
X331920Y68330D01*
X344620Y68330D01*
X338220Y80930D01*
X338320Y80930D01*
G36*
X363720Y80830D02*
X363720Y80930D01*
X357320Y68230D01*
X370020Y68230D01*
X363620Y80830D01*
X363720Y80830D01*
G37*
G54D23*
X363720Y80830D02*
X363720Y80930D01*
X357320Y68230D01*
X370020Y68230D01*
X363620Y80830D01*
X363720Y80830D01*
G36*
X338420Y93930D02*
X338420Y93830D01*
X344820Y106530D01*
X332120Y106530D01*
X338520Y93930D01*
X338420Y93930D01*
G37*
G54D23*
X338420Y93930D02*
X338420Y93830D01*
X344820Y106530D01*
X332120Y106530D01*
X338520Y93930D01*
X338420Y93930D01*
G36*
X363720Y93830D02*
X363720Y93730D01*
X370120Y106430D01*
X357420Y106430D01*
X363820Y93830D01*
X363720Y93830D01*
G37*
G54D23*
X363720Y93830D02*
X363720Y93730D01*
X370120Y106430D01*
X357420Y106430D01*
X363820Y93830D01*
X363720Y93830D01*
G54D10*
X338320Y93730D02*
X338320Y93630D01*
X319320Y87230D01*
X319320Y87330D01*
X305020Y87330D01*
X305020Y150830D01*
X305020Y163530D01*
X312920Y163530D01*
G54D10*
X363720Y93730D02*
X363720Y93730D01*
X382720Y87330D01*
X397020Y87330D01*
X397020Y163530D01*
X389120Y163530D01*
G54D23*
X300820Y394030D02*
X401420Y394130D01*
X401320Y594030D01*
X300820Y594030D01*
X300820Y394030D01*
G54D10*
X312920Y582630D02*
X312920Y557230D01*
X319220Y557230D01*
X319120Y557230D01*
X325520Y539730D01*
X325620Y539729D01*
X333520Y569929D01*
X341520Y538129D01*
X349420Y569930D01*
X359020Y538129D01*
X368420Y569930D01*
X376420Y538130D01*
X382820Y557230D01*
X389120Y557230D01*
X389120Y582630D01*
G54D10*
X312920Y404830D02*
X338220Y404830D01*
X338220Y423830D01*
G54D10*
X312920Y455629D02*
X338220Y455630D01*
X338220Y436630D01*
G54D10*
X389120Y404830D02*
X363720Y404830D01*
X363720Y423830D01*
G54D10*
X389120Y455630D02*
X363720Y455630D01*
X363720Y436630D01*
G36*
X338320Y423829D02*
X338320Y423930D01*
X331920Y411230D01*
X344620Y411230D01*
X338220Y423830D01*
X338320Y423829D01*
G37*
G54D23*
X338320Y423829D02*
X338320Y423930D01*
X331920Y411230D01*
X344620Y411230D01*
X338220Y423830D01*
X338320Y423829D01*
G36*
X363720Y423729D02*
X363720Y423830D01*
X357320Y411130D01*
X370020Y411130D01*
X363620Y423730D01*
X363720Y423729D01*
G37*
G54D23*
X363720Y423729D02*
X363720Y423830D01*
X357320Y411130D01*
X370020Y411130D01*
X363620Y423730D01*
X363720Y423729D01*
G36*
X338420Y436830D02*
X338420Y436730D01*
X344820Y449430D01*
X332120Y449429D01*
X338520Y436830D01*
X338420Y436830D01*
G37*
G54D23*
X338420Y436830D02*
X338420Y436730D01*
X344820Y449430D01*
X332120Y449429D01*
X338520Y436830D01*
X338420Y436830D01*
G36*
X363720Y436730D02*
X363720Y436630D01*
X370120Y449330D01*
X357420Y449330D01*
X363820Y436730D01*
X363720Y436730D01*
G37*
G54D23*
X363720Y436730D02*
X363720Y436630D01*
X370120Y449330D01*
X357420Y449330D01*
X363820Y436730D01*
X363720Y436730D01*
G54D10*
X338320Y436630D02*
X338320Y436530D01*
X319320Y430130D01*
X319320Y430230D01*
X305020Y430230D01*
X305020Y493730D01*
X305020Y506430D01*
X312920Y506430D01*
G54D10*
X363720Y436630D02*
X363720Y436630D01*
X382720Y430230D01*
X397020Y430230D01*
X397020Y506430D01*
X389120Y506430D01*
G54D23*
X1117855Y431065D02*
X1117755Y531665D01*
X917855Y531565D01*
X917855Y431065D01*
X1117855Y431065D01*
G54D10*
X929255Y443166D02*
X954655Y443166D01*
X954655Y449465D01*
X954655Y449366D01*
X972155Y455766D01*
X972155Y455866D01*
X941955Y463766D01*
X973755Y471766D01*
X941955Y479666D01*
X973755Y489266D01*
X941955Y498666D01*
X973755Y506666D01*
X954655Y513066D01*
X954655Y519365D01*
X929255Y519365D01*
G54D10*
X1107055Y443166D02*
X1107055Y468466D01*
X1088055Y468466D01*
G54D10*
X1056255Y443166D02*
X1056255Y468466D01*
X1075255Y468465D01*
G54D10*
X1107055Y519366D02*
X1107055Y493966D01*
X1088055Y493965D01*
G54D10*
X1056255Y519365D02*
X1056255Y493965D01*
X1075255Y493966D01*
G36*
X1088055Y468566D02*
X1087955Y468566D01*
X1100655Y462166D01*
X1100655Y474866D01*
X1088055Y468466D01*
X1088055Y468566D01*
G37*
G54D23*
X1088055Y468566D02*
X1087955Y468566D01*
X1100655Y462166D01*
X1100655Y474866D01*
X1088055Y468466D01*
X1088055Y468566D01*
G36*
X1088155Y493966D02*
X1088055Y493965D01*
X1100755Y487565D01*
X1100755Y500266D01*
X1088155Y493866D01*
X1088155Y493966D01*
G37*
G54D23*
X1088155Y493966D02*
X1088055Y493965D01*
X1100755Y487565D01*
X1100755Y500266D01*
X1088155Y493866D01*
X1088155Y493966D01*
G36*
X1075055Y468666D02*
X1075155Y468665D01*
X1062455Y475066D01*
X1062455Y462366D01*
X1075055Y468765D01*
X1075055Y468666D01*
G37*
G54D23*
X1075055Y468666D02*
X1075155Y468665D01*
X1062455Y475066D01*
X1062455Y462366D01*
X1075055Y468765D01*
X1075055Y468666D01*
G36*
X1075155Y493965D02*
X1075255Y493966D01*
X1062555Y500365D01*
X1062555Y487666D01*
X1075155Y494066D01*
X1075155Y493965D01*
G37*
G54D23*
X1075155Y493965D02*
X1075255Y493966D01*
X1062555Y500365D01*
X1062555Y487666D01*
X1075155Y494066D01*
X1075155Y493965D01*
G54D10*
X1075255Y468566D02*
X1075355Y468566D01*
X1081755Y449565D01*
X1081655Y449565D01*
X1081655Y435265D01*
X1018155Y435266D01*
X1005455Y435266D01*
X1005455Y443166D01*
G54D10*
X1075255Y493966D02*
X1075255Y493966D01*
X1081655Y512966D01*
X1081655Y527265D01*
X1005455Y527265D01*
X1005455Y519366D01*
G54D23*
X660655Y424715D02*
X660555Y525316D01*
X460655Y525215D01*
X460655Y424715D01*
X660655Y424715D01*
G54D10*
X472055Y436816D02*
X497455Y436816D01*
X497455Y443115D01*
X497455Y443016D01*
X514955Y449416D01*
X514955Y449515D01*
X484755Y457416D01*
X516555Y465416D01*
X484755Y473315D01*
X516555Y482916D01*
X484755Y492315D01*
X516555Y500316D01*
X497455Y506716D01*
X497455Y513016D01*
X472055Y513016D01*
G54D10*
X649855Y436816D02*
X649855Y462116D01*
X630855Y462116D01*
G54D10*
X599055Y436816D02*
X599055Y462116D01*
X618055Y462116D01*
G54D10*
X649855Y513016D02*
X649855Y487616D01*
X630855Y487615D01*
G54D10*
X599055Y513016D02*
X599055Y487616D01*
X618055Y487616D01*
G36*
X630855Y462216D02*
X630755Y462216D01*
X643455Y455816D01*
X643455Y468516D01*
X630855Y462116D01*
X630855Y462216D01*
G37*
G54D23*
X630855Y462216D02*
X630755Y462216D01*
X643455Y455816D01*
X643455Y468516D01*
X630855Y462116D01*
X630855Y462216D01*
G36*
X630955Y487616D02*
X630855Y487615D01*
X643555Y481215D01*
X643555Y493916D01*
X630955Y487516D01*
X630955Y487616D01*
G37*
G54D23*
X630955Y487616D02*
X630855Y487615D01*
X643555Y481215D01*
X643555Y493916D01*
X630955Y487516D01*
X630955Y487616D01*
G36*
X617855Y462316D02*
X617955Y462315D01*
X605255Y468716D01*
X605255Y456016D01*
X617855Y462416D01*
X617855Y462316D01*
G37*
G54D23*
X617855Y462316D02*
X617955Y462315D01*
X605255Y468716D01*
X605255Y456016D01*
X617855Y462416D01*
X617855Y462316D01*
G36*
X617955Y487616D02*
X618055Y487616D01*
X605355Y494015D01*
X605355Y481316D01*
X617955Y487716D01*
X617955Y487616D01*
G37*
G54D23*
X617955Y487616D02*
X618055Y487616D01*
X605355Y494015D01*
X605355Y481316D01*
X617955Y487716D01*
X617955Y487616D01*
G54D10*
X618055Y462215D02*
X618155Y462216D01*
X624555Y443215D01*
X624455Y443215D01*
X624455Y428915D01*
X560955Y428915D01*
X548255Y428916D01*
X548255Y436815D01*
G54D10*
X618055Y487616D02*
X618055Y487616D01*
X624455Y506616D01*
X624455Y520916D01*
X548255Y520916D01*
X548255Y513016D01*
G54D11*
X28648Y321339D02*
X28648Y330228D01*
X30870Y330228D01*
X31759Y329672D01*
X32203Y328561D01*
X32203Y327450D01*
X31759Y326339D01*
X30870Y325783D01*
X31759Y325228D01*
X32203Y324116D01*
X32203Y323005D01*
X31759Y321894D01*
X30870Y321339D01*
X28648Y321339D01*
G54D11*
X28648Y325783D02*
X30870Y325783D01*
G54D11*
X34648Y321339D02*
X34648Y330228D01*
G54D11*
X37092Y321339D02*
X39314Y330228D01*
X41536Y321339D01*
G54D11*
X37981Y324672D02*
X40647Y324672D01*
G54D11*
X43980Y323005D02*
X44424Y321894D01*
X45313Y321339D01*
X46202Y321339D01*
X47091Y321894D01*
X47535Y323005D01*
X47535Y324116D01*
X47091Y325228D01*
X46202Y325783D01*
X45313Y325783D01*
X44424Y326339D01*
X43980Y327450D01*
X43980Y328561D01*
X44424Y329672D01*
X45313Y330228D01*
X46202Y330228D01*
X47091Y329672D01*
X47535Y328561D01*
G54D11*
X49980Y325228D02*
X53535Y325228D01*
G54D11*
X58202Y325783D02*
X57313Y325783D01*
X56424Y326339D01*
X55980Y327450D01*
X55980Y328561D01*
X56424Y329672D01*
X57313Y330228D01*
X58202Y330228D01*
X59091Y329672D01*
X59535Y328561D01*
X59535Y327450D01*
X59091Y326339D01*
X58202Y325783D01*
X59091Y325228D01*
X59535Y324116D01*
X59535Y323005D01*
X59091Y321894D01*
X58202Y321339D01*
X57313Y321339D01*
X56424Y321894D01*
X55980Y323005D01*
X55980Y324116D01*
X56424Y325228D01*
X57313Y325783D01*
G54D11*
X65535Y328561D02*
X65535Y323005D01*
X65091Y321894D01*
X64202Y321339D01*
X63313Y321339D01*
X62424Y321894D01*
X61980Y323005D01*
X61980Y328561D01*
X62424Y329672D01*
X63313Y330228D01*
X64202Y330228D01*
X65091Y329672D01*
X65535Y328561D01*
G54D11*
X70646Y321339D02*
X70646Y330228D01*
X67980Y324672D01*
X67980Y323561D01*
X71535Y323561D01*
G54D11*
X77535Y328561D02*
X77535Y323005D01*
X77091Y321894D01*
X76202Y321339D01*
X75313Y321339D01*
X74424Y321894D01*
X73980Y323005D01*
X73980Y328561D01*
X74424Y329672D01*
X75313Y330228D01*
X76202Y330228D01*
X77091Y329672D01*
X77535Y328561D01*
G54D11*
X79980Y325228D02*
X83535Y325228D01*
G54D11*
X87758Y321339D02*
X87758Y330228D01*
G54D11*
X85980Y330228D02*
X89535Y330228D01*
G54D11*
X95535Y321339D02*
X91980Y321339D01*
X91980Y321894D01*
X92424Y323005D01*
X95091Y326339D01*
X95535Y327450D01*
X95535Y328561D01*
X95091Y329672D01*
X94202Y330228D01*
X93313Y330228D01*
X92424Y329672D01*
X91980Y328561D01*
G54D11*
X125390Y319794D02*
X125390Y328683D01*
X127612Y328683D01*
X128501Y328127D01*
X128945Y327016D01*
X128945Y325905D01*
X128501Y324794D01*
X127612Y324238D01*
X128501Y323683D01*
X128945Y322572D01*
X128945Y321461D01*
X128501Y320350D01*
X127612Y319794D01*
X125390Y319794D01*
G54D11*
X125390Y324238D02*
X127612Y324238D01*
G54D11*
X131390Y319794D02*
X131390Y328683D01*
G54D11*
X133834Y319794D02*
X136056Y328683D01*
X138278Y319794D01*
G54D11*
X134723Y323127D02*
X137389Y323127D01*
G54D11*
X140722Y321461D02*
X141166Y320350D01*
X142055Y319794D01*
X142944Y319794D01*
X143833Y320350D01*
X144277Y321461D01*
X144277Y322572D01*
X143833Y323683D01*
X142944Y324238D01*
X142055Y324238D01*
X141166Y324794D01*
X140722Y325905D01*
X140722Y327016D01*
X141166Y328127D01*
X142055Y328683D01*
X142944Y328683D01*
X143833Y328127D01*
X144277Y327016D01*
G54D11*
X146722Y323683D02*
X150277Y323683D01*
G54D11*
X154944Y324238D02*
X154055Y324238D01*
X153166Y324794D01*
X152722Y325905D01*
X152722Y327016D01*
X153166Y328127D01*
X154055Y328683D01*
X154944Y328683D01*
X155833Y328127D01*
X156277Y327016D01*
X156277Y325905D01*
X155833Y324794D01*
X154944Y324238D01*
X155833Y323683D01*
X156277Y322572D01*
X156277Y321461D01*
X155833Y320350D01*
X154944Y319794D01*
X154055Y319794D01*
X153166Y320350D01*
X152722Y321461D01*
X152722Y322572D01*
X153166Y323683D01*
X154055Y324238D01*
G54D11*
X162277Y327016D02*
X162277Y321461D01*
X161833Y320350D01*
X160944Y319794D01*
X160055Y319794D01*
X159166Y320350D01*
X158722Y321461D01*
X158722Y327016D01*
X159166Y328127D01*
X160055Y328683D01*
X160944Y328683D01*
X161833Y328127D01*
X162277Y327016D01*
G54D11*
X167389Y319794D02*
X167389Y328683D01*
X164722Y323127D01*
X164722Y322016D01*
X168277Y322016D01*
G54D11*
X174277Y327016D02*
X174277Y321461D01*
X173833Y320350D01*
X172944Y319794D01*
X172055Y319794D01*
X171166Y320350D01*
X170722Y321461D01*
X170722Y327016D01*
X171166Y328127D01*
X172055Y328683D01*
X172944Y328683D01*
X173833Y328127D01*
X174277Y327016D01*
G54D11*
X176722Y323683D02*
X180277Y323683D01*
G54D11*
X184500Y319794D02*
X184500Y328683D01*
G54D11*
X182722Y328683D02*
X186277Y328683D01*
G54D11*
X188722Y325350D02*
X190944Y328683D01*
X190944Y319794D01*
G54D11*
X257248Y321339D02*
X257248Y330228D01*
X259470Y330228D01*
X260359Y329672D01*
X260803Y328561D01*
X260803Y327450D01*
X260359Y326339D01*
X259470Y325783D01*
X260359Y325228D01*
X260803Y324116D01*
X260803Y323005D01*
X260359Y321894D01*
X259470Y321339D01*
X257248Y321339D01*
G54D11*
X257248Y325783D02*
X259470Y325783D01*
G54D11*
X263248Y321339D02*
X263248Y330228D01*
G54D11*
X265692Y321339D02*
X267914Y330228D01*
X270136Y321339D01*
G54D11*
X266581Y324672D02*
X269247Y324672D01*
G54D11*
X272580Y323005D02*
X273024Y321894D01*
X273913Y321339D01*
X274802Y321339D01*
X275691Y321894D01*
X276135Y323005D01*
X276135Y324116D01*
X275691Y325228D01*
X274802Y325783D01*
X273913Y325783D01*
X273024Y326339D01*
X272580Y327450D01*
X272580Y328561D01*
X273024Y329672D01*
X273913Y330228D01*
X274802Y330228D01*
X275691Y329672D01*
X276135Y328561D01*
G54D11*
X278580Y325228D02*
X282135Y325228D01*
G54D11*
X287246Y321339D02*
X287246Y330228D01*
X284580Y324672D01*
X284580Y323561D01*
X288135Y323561D01*
G54D11*
X294135Y328561D02*
X294135Y323005D01*
X293691Y321894D01*
X292802Y321339D01*
X291913Y321339D01*
X291024Y321894D01*
X290580Y323005D01*
X290580Y328561D01*
X291024Y329672D01*
X291913Y330228D01*
X292802Y330228D01*
X293691Y329672D01*
X294135Y328561D01*
G54D11*
X296580Y325228D02*
X300135Y325228D01*
G54D11*
X304358Y321339D02*
X304358Y330228D01*
G54D11*
X302580Y330228D02*
X306135Y330228D01*
G54D11*
X312135Y321339D02*
X308580Y321339D01*
X308580Y321894D01*
X309024Y323005D01*
X311691Y326339D01*
X312135Y327450D01*
X312135Y328561D01*
X311691Y329672D01*
X310802Y330228D01*
X309913Y330228D01*
X309024Y329672D01*
X308580Y328561D01*
G54D11*
X364706Y322572D02*
X364706Y331461D01*
X366928Y331461D01*
X367817Y330906D01*
X368261Y329794D01*
X368261Y328683D01*
X367817Y327572D01*
X366928Y327017D01*
X367817Y326461D01*
X368261Y325350D01*
X368261Y324239D01*
X367817Y323128D01*
X366928Y322572D01*
X364706Y322572D01*
G54D11*
X364706Y327017D02*
X366928Y327017D01*
G54D11*
X370706Y322572D02*
X370706Y331461D01*
G54D11*
X373150Y322572D02*
X375372Y331461D01*
X377594Y322572D01*
G54D11*
X374038Y325906D02*
X376705Y325906D01*
G54D11*
X380038Y324239D02*
X380482Y323128D01*
X381371Y322572D01*
X382260Y322572D01*
X383149Y323128D01*
X383593Y324239D01*
X383593Y325350D01*
X383149Y326461D01*
X382260Y327017D01*
X381371Y327017D01*
X380482Y327572D01*
X380038Y328683D01*
X380038Y329794D01*
X380482Y330906D01*
X381371Y331461D01*
X382260Y331461D01*
X383149Y330906D01*
X383593Y329794D01*
G54D11*
X386038Y326461D02*
X389593Y326461D01*
G54D11*
X394704Y322572D02*
X394704Y331461D01*
X392038Y325906D01*
X392038Y324794D01*
X395593Y324794D01*
G54D11*
X401593Y329794D02*
X401593Y324239D01*
X401149Y323128D01*
X400260Y322572D01*
X399371Y322572D01*
X398482Y323128D01*
X398038Y324239D01*
X398038Y329794D01*
X398482Y330906D01*
X399371Y331461D01*
X400260Y331461D01*
X401149Y330906D01*
X401593Y329794D01*
G54D11*
X404038Y326461D02*
X407593Y326461D01*
G54D11*
X411815Y322572D02*
X411815Y331461D01*
G54D11*
X410038Y331461D02*
X413593Y331461D01*
G54D11*
X416038Y328128D02*
X418260Y331461D01*
X418260Y322572D01*
G54D11*
X701748Y422939D02*
X701748Y431828D01*
X703970Y431828D01*
X704859Y431272D01*
X705303Y430161D01*
X705303Y429050D01*
X704859Y427939D01*
X703970Y427383D01*
X704859Y426828D01*
X705303Y425716D01*
X705303Y424605D01*
X704859Y423494D01*
X703970Y422939D01*
X701748Y422939D01*
G54D11*
X701748Y427383D02*
X703970Y427383D01*
G54D11*
X707748Y422939D02*
X707748Y431828D01*
G54D11*
X710192Y422939D02*
X712414Y431828D01*
X714636Y422939D01*
G54D11*
X711081Y426272D02*
X713747Y426272D01*
G54D11*
X717080Y424605D02*
X717524Y423494D01*
X718413Y422939D01*
X719302Y422939D01*
X720191Y423494D01*
X720635Y424605D01*
X720635Y425716D01*
X720191Y426828D01*
X719302Y427383D01*
X718413Y427383D01*
X717524Y427939D01*
X717080Y429050D01*
X717080Y430161D01*
X717524Y431272D01*
X718413Y431828D01*
X719302Y431828D01*
X720191Y431272D01*
X720635Y430161D01*
G54D11*
X723080Y426828D02*
X726635Y426828D01*
G54D11*
X729080Y428494D02*
X731302Y431828D01*
X731302Y422939D01*
G54D11*
X737301Y431828D02*
X733746Y431828D01*
X733746Y427939D01*
X734190Y427939D01*
X735079Y428494D01*
X735968Y428494D01*
X736857Y427939D01*
X737301Y426828D01*
X737301Y424605D01*
X736857Y423494D01*
X735968Y422939D01*
X735079Y422939D01*
X734190Y423494D01*
X733746Y424605D01*
G54D11*
X739746Y428494D02*
X741968Y431828D01*
X741968Y422939D01*
G54D11*
X747967Y430161D02*
X747967Y424605D01*
X747523Y423494D01*
X746634Y422939D01*
X745745Y422939D01*
X744856Y423494D01*
X744412Y424605D01*
X744412Y430161D01*
X744856Y431272D01*
X745745Y431828D01*
X746634Y431828D01*
X747523Y431272D01*
X747967Y430161D01*
G54D11*
X750412Y426828D02*
X753967Y426828D01*
G54D11*
X758190Y422939D02*
X758190Y431828D01*
G54D11*
X756412Y431828D02*
X759967Y431828D01*
G54D11*
X765967Y422939D02*
X762412Y422939D01*
X762412Y423494D01*
X762856Y424605D01*
X765523Y427939D01*
X765967Y429050D01*
X765967Y430161D01*
X765523Y431272D01*
X764634Y431828D01*
X763745Y431828D01*
X762856Y431272D01*
X762412Y430161D01*
G54D11*
X798490Y421394D02*
X798490Y430283D01*
X800712Y430283D01*
X801601Y429727D01*
X802046Y428616D01*
X802046Y427505D01*
X801601Y426394D01*
X800712Y425838D01*
X801601Y425283D01*
X802046Y424172D01*
X802046Y423061D01*
X801601Y421950D01*
X800712Y421394D01*
X798490Y421394D01*
G54D11*
X798490Y425838D02*
X800712Y425838D01*
G54D11*
X804490Y421394D02*
X804490Y430283D01*
G54D11*
X806934Y421394D02*
X809156Y430283D01*
X811378Y421394D01*
G54D11*
X807823Y424727D02*
X810490Y424727D01*
G54D11*
X813822Y423061D02*
X814266Y421950D01*
X815155Y421394D01*
X816044Y421394D01*
X816933Y421950D01*
X817378Y423061D01*
X817378Y424172D01*
X816933Y425283D01*
X816044Y425838D01*
X815155Y425838D01*
X814266Y426394D01*
X813822Y427505D01*
X813822Y428616D01*
X814266Y429727D01*
X815155Y430283D01*
X816044Y430283D01*
X816933Y429727D01*
X817378Y428616D01*
G54D11*
X819822Y425283D02*
X823378Y425283D01*
G54D11*
X825822Y426950D02*
X828044Y430283D01*
X828044Y421394D01*
G54D11*
X834044Y430283D02*
X830488Y430283D01*
X830488Y426394D01*
X830932Y426394D01*
X831821Y426950D01*
X832710Y426950D01*
X833599Y426394D01*
X834044Y425283D01*
X834044Y423061D01*
X833599Y421950D01*
X832710Y421394D01*
X831821Y421394D01*
X830932Y421950D01*
X830488Y423061D01*
G54D11*
X836488Y426950D02*
X838710Y430283D01*
X838710Y421394D01*
G54D11*
X844710Y428616D02*
X844710Y423061D01*
X844265Y421950D01*
X843376Y421394D01*
X842487Y421394D01*
X841598Y421950D01*
X841154Y423061D01*
X841154Y428616D01*
X841598Y429727D01*
X842487Y430283D01*
X843376Y430283D01*
X844265Y429727D01*
X844710Y428616D01*
G54D11*
X847154Y425283D02*
X850710Y425283D01*
G54D11*
X854932Y421394D02*
X854932Y430283D01*
G54D11*
X853154Y430283D02*
X856710Y430283D01*
G54D11*
X859154Y426950D02*
X861376Y430283D01*
X861376Y421394D01*
G54D15*
X170887Y430727D02*
X170887Y430727D01*
G54D15*
X151387Y430727D02*
X151387Y430727D01*
G54D12*
X187440Y501248D02*
X160040Y501248D01*
X160040Y577448D01*
X187440Y577448D01*
X187440Y501248D01*
G54D12*
X160040Y571148D02*
X187440Y571148D01*
G54D12*
X161731Y386423D02*
X187132Y386423D01*
X187132Y458023D01*
X161732Y458023D01*
X161731Y386423D01*
G54D13*
X195023Y431079D02*
X193356Y432079D01*
X192523Y434079D01*
X192523Y436079D01*
X193356Y438079D01*
X195023Y439079D01*
X203356Y439079D01*
X205023Y438079D01*
X205856Y436079D01*
X205856Y434079D01*
X205023Y432079D01*
X203356Y431079D01*
G54D13*
X199190Y423412D02*
X197523Y420412D01*
X195856Y419412D01*
X192523Y419412D01*
G54D13*
X192523Y427412D02*
X205856Y427412D01*
X205856Y422412D01*
X205023Y420412D01*
X203356Y419412D01*
X201690Y419412D01*
X200023Y420412D01*
X199190Y422412D01*
X199190Y427412D01*
G54D13*
X192523Y407745D02*
X192523Y415745D01*
X193356Y415745D01*
X195023Y414745D01*
X200023Y408745D01*
X201690Y407745D01*
X203356Y407745D01*
X205023Y408745D01*
X205856Y410745D01*
X205856Y412745D01*
X205023Y414745D01*
X203356Y415745D01*
G54D11*
X172173Y550364D02*
X163284Y550364D01*
X163284Y545698D01*
G54D11*
X167728Y540587D02*
X166617Y538587D01*
X165506Y537920D01*
X163284Y537920D01*
G54D11*
X163284Y543253D02*
X172173Y543253D01*
X172173Y539920D01*
X171618Y538587D01*
X170506Y537920D01*
X169395Y537920D01*
X168284Y538587D01*
X167728Y539920D01*
X167728Y543253D01*
G54D11*
X168840Y535476D02*
X172173Y532143D01*
X163284Y532143D01*
G54D15*
X272487Y430727D02*
X272487Y430727D01*
G54D15*
X252987Y430727D02*
X252987Y430727D01*
G54D12*
X289040Y501248D02*
X261640Y501248D01*
X261640Y577448D01*
X289040Y577448D01*
X289040Y501248D01*
G54D12*
X261640Y571148D02*
X289040Y571148D01*
G54D12*
X263331Y386423D02*
X288732Y386423D01*
X288732Y458023D01*
X263332Y458023D01*
X263331Y386423D01*
G54D13*
X296623Y431079D02*
X294956Y432079D01*
X294123Y434079D01*
X294123Y436079D01*
X294956Y438079D01*
X296623Y439079D01*
X304956Y439079D01*
X306623Y438079D01*
X307456Y436079D01*
X307456Y434079D01*
X306623Y432079D01*
X304956Y431079D01*
G54D13*
X300790Y423412D02*
X299123Y420412D01*
X297456Y419412D01*
X294123Y419412D01*
G54D13*
X294123Y427412D02*
X307456Y427412D01*
X307456Y422412D01*
X306623Y420412D01*
X304956Y419412D01*
X303290Y419412D01*
X301623Y420412D01*
X300790Y422412D01*
X300790Y427412D01*
G54D13*
X294123Y407745D02*
X294123Y415745D01*
X294956Y415745D01*
X296623Y414745D01*
X301623Y408745D01*
X303290Y407745D01*
X304956Y407745D01*
X306623Y408745D01*
X307456Y410745D01*
X307456Y412745D01*
X306623Y414745D01*
X304956Y415745D01*
G54D11*
X273773Y550364D02*
X264884Y550364D01*
X264884Y545698D01*
G54D11*
X269329Y540587D02*
X268217Y538587D01*
X267106Y537920D01*
X264884Y537920D01*
G54D11*
X264884Y543253D02*
X273773Y543253D01*
X273773Y539920D01*
X273217Y538587D01*
X272106Y537920D01*
X270995Y537920D01*
X269884Y538587D01*
X269329Y539920D01*
X269329Y543253D01*
G54D11*
X264884Y530143D02*
X264884Y535476D01*
X265440Y535476D01*
X266551Y534810D01*
X269884Y530810D01*
X270995Y530143D01*
X272106Y530143D01*
X273217Y530810D01*
X273773Y532143D01*
X273773Y533476D01*
X273217Y534810D01*
X272106Y535476D01*
G54D15*
X183587Y100527D02*
X183587Y100527D01*
G54D15*
X164087Y100527D02*
X164087Y100527D01*
G54D12*
X200140Y171048D02*
X172740Y171048D01*
X172740Y247248D01*
X200140Y247248D01*
X200140Y171048D01*
G54D12*
X172740Y240948D02*
X200140Y240948D01*
G54D12*
X174431Y56223D02*
X199832Y56223D01*
X199832Y127823D01*
X174432Y127823D01*
X174431Y56223D01*
G54D13*
X207723Y100879D02*
X206056Y101879D01*
X205223Y103879D01*
X205223Y105879D01*
X206056Y107879D01*
X207723Y108879D01*
X216056Y108879D01*
X217723Y107879D01*
X218556Y105879D01*
X218556Y103879D01*
X217723Y101879D01*
X216056Y100879D01*
G54D13*
X211890Y93212D02*
X210223Y90212D01*
X208556Y89212D01*
X205223Y89212D01*
G54D13*
X205223Y97212D02*
X218556Y97212D01*
X218556Y92212D01*
X217723Y90212D01*
X216056Y89212D01*
X214390Y89212D01*
X212723Y90212D01*
X211890Y92212D01*
X211890Y97212D01*
G54D13*
X205223Y77545D02*
X205223Y85545D01*
X206056Y85545D01*
X207723Y84545D01*
X212723Y78545D01*
X214390Y77545D01*
X216056Y77545D01*
X217723Y78545D01*
X218556Y80545D01*
X218556Y82545D01*
X217723Y84545D01*
X216056Y85545D01*
G54D11*
X184873Y220164D02*
X175984Y220164D01*
X175984Y215498D01*
G54D11*
X180428Y210387D02*
X179317Y208387D01*
X178206Y207720D01*
X175984Y207720D01*
G54D11*
X175984Y213053D02*
X184873Y213053D01*
X184873Y209720D01*
X184318Y208387D01*
X183206Y207720D01*
X182095Y207720D01*
X180984Y208387D01*
X180428Y209720D01*
X180428Y213053D01*
G54D11*
X181540Y205276D02*
X184873Y201943D01*
X175984Y201943D01*
G54D15*
X260699Y93764D02*
X260699Y93764D01*
G54D15*
X241199Y93764D02*
X241199Y93764D01*
G54D12*
X286142Y176985D02*
X258742Y176985D01*
X258742Y253185D01*
X286142Y253185D01*
X286142Y176985D01*
G54D12*
X258742Y246885D02*
X286142Y246885D01*
G54D12*
X221063Y195510D02*
X246464Y195510D01*
X246464Y267110D01*
X221064Y267110D01*
X221063Y195510D01*
G54D13*
X262688Y224832D02*
X264355Y223832D01*
X265188Y221832D01*
X265188Y219832D01*
X264355Y217832D01*
X262688Y216832D01*
X254355Y216832D01*
X252688Y217832D01*
X251855Y219832D01*
X251855Y221832D01*
X252688Y223832D01*
X254355Y224832D01*
G54D13*
X258522Y232499D02*
X260188Y235499D01*
X261855Y236499D01*
X265188Y236499D01*
G54D13*
X265188Y228499D02*
X251855Y228499D01*
X251855Y233499D01*
X252688Y235499D01*
X254355Y236499D01*
X256022Y236499D01*
X257688Y235499D01*
X258522Y233499D01*
X258522Y228499D01*
G54D13*
X265188Y248166D02*
X265188Y240166D01*
X264355Y240166D01*
X262688Y241166D01*
X257688Y247166D01*
X256022Y248166D01*
X254355Y248166D01*
X252688Y247166D01*
X251855Y245166D01*
X251855Y243166D01*
X252688Y241166D01*
X254355Y240166D01*
G54D11*
X284210Y213402D02*
X275321Y213402D01*
X275321Y208735D01*
G54D11*
X279766Y203624D02*
X278654Y201624D01*
X277543Y200957D01*
X275321Y200957D01*
G54D11*
X275321Y206291D02*
X284210Y206291D01*
X284210Y202957D01*
X283654Y201624D01*
X282543Y200957D01*
X281432Y200957D01*
X280321Y201624D01*
X279766Y202957D01*
X279766Y206291D01*
G54D11*
X275321Y193180D02*
X275321Y198514D01*
X275877Y198514D01*
X276988Y197847D01*
X280321Y193847D01*
X281432Y193180D01*
X282543Y193180D01*
X283654Y193847D01*
X284210Y195180D01*
X284210Y196514D01*
X283654Y197847D01*
X282543Y198514D01*
G54D15*
X617070Y562993D02*
X617070Y562993D01*
G54D15*
X617070Y543493D02*
X617070Y543493D01*
G54D12*
X546549Y579546D02*
X546549Y552146D01*
X470349Y552146D01*
X470349Y579546D01*
X546549Y579546D01*
G54D12*
X476649Y552146D02*
X476649Y579546D01*
G54D12*
X661374Y553838D02*
X661374Y579238D01*
X589774Y579238D01*
X589774Y553838D01*
X661374Y553838D01*
G54D13*
X616719Y587130D02*
X615719Y585463D01*
X613719Y584630D01*
X611719Y584630D01*
X609719Y585463D01*
X608719Y587130D01*
X608719Y595463D01*
X609719Y597130D01*
X611719Y597963D01*
X613719Y597963D01*
X615719Y597130D01*
X616719Y595463D01*
G54D13*
X624386Y591296D02*
X627386Y589630D01*
X628386Y587963D01*
X628386Y584630D01*
G54D13*
X620386Y584630D02*
X620386Y597963D01*
X625386Y597963D01*
X627386Y597130D01*
X628386Y595463D01*
X628386Y593796D01*
X627386Y592130D01*
X625386Y591296D01*
X620386Y591296D01*
G54D13*
X632053Y595463D02*
X633053Y597130D01*
X635053Y597963D01*
X637053Y597963D01*
X639053Y597130D01*
X640053Y595463D01*
X640053Y593796D01*
X639053Y592130D01*
X637053Y591296D01*
X639053Y590463D01*
X640053Y588796D01*
X640053Y587130D01*
X639053Y585463D01*
X637053Y584630D01*
X635053Y584630D01*
X633053Y585463D01*
X632053Y587130D01*
G54D11*
X497433Y564279D02*
X497433Y555390D01*
X502099Y555390D01*
G54D11*
X507210Y559835D02*
X509210Y558724D01*
X509877Y557613D01*
X509877Y555390D01*
G54D11*
X504544Y555390D02*
X504544Y564279D01*
X507877Y564279D01*
X509210Y563724D01*
X509877Y562613D01*
X509877Y561502D01*
X509210Y560390D01*
X507877Y559835D01*
X504544Y559835D01*
G54D11*
X512321Y562613D02*
X512987Y563724D01*
X514321Y564279D01*
X515654Y564279D01*
X516987Y563724D01*
X517654Y562613D01*
X517654Y561502D01*
X516987Y560390D01*
X515654Y559835D01*
X516987Y559279D01*
X517654Y558168D01*
X517654Y557057D01*
X516987Y555946D01*
X515654Y555390D01*
X514321Y555390D01*
X512987Y555946D01*
X512321Y557057D01*
G54D15*
X1086970Y562993D02*
X1086970Y562993D01*
G54D15*
X1086970Y543493D02*
X1086970Y543493D01*
G54D12*
X1016449Y579546D02*
X1016449Y552146D01*
X940249Y552146D01*
X940249Y579546D01*
X1016449Y579546D01*
G54D12*
X946549Y552146D02*
X946549Y579546D01*
G54D12*
X1131274Y553838D02*
X1131274Y579238D01*
X1059674Y579238D01*
X1059674Y553838D01*
X1131274Y553838D01*
G54D13*
X1086619Y587130D02*
X1085619Y585463D01*
X1083619Y584630D01*
X1081619Y584630D01*
X1079619Y585463D01*
X1078619Y587130D01*
X1078619Y595463D01*
X1079619Y597130D01*
X1081619Y597963D01*
X1083619Y597963D01*
X1085619Y597130D01*
X1086619Y595463D01*
G54D13*
X1094286Y591296D02*
X1097286Y589630D01*
X1098286Y587963D01*
X1098286Y584630D01*
G54D13*
X1090286Y584630D02*
X1090286Y597963D01*
X1095286Y597963D01*
X1097286Y597130D01*
X1098286Y595463D01*
X1098286Y593796D01*
X1097286Y592130D01*
X1095286Y591296D01*
X1090286Y591296D01*
G54D13*
X1101953Y595463D02*
X1102953Y597130D01*
X1104953Y597963D01*
X1106953Y597963D01*
X1108953Y597130D01*
X1109953Y595463D01*
X1109953Y593796D01*
X1108953Y592130D01*
X1106953Y591296D01*
X1108953Y590463D01*
X1109953Y588796D01*
X1109953Y587130D01*
X1108953Y585463D01*
X1106953Y584630D01*
X1104953Y584630D01*
X1102953Y585463D01*
X1101953Y587130D01*
G54D11*
X967333Y564279D02*
X967333Y555390D01*
X971999Y555390D01*
G54D11*
X977110Y559835D02*
X979110Y558724D01*
X979777Y557613D01*
X979777Y555390D01*
G54D11*
X974444Y555390D02*
X974444Y564279D01*
X977777Y564279D01*
X979110Y563724D01*
X979777Y562613D01*
X979777Y561502D01*
X979110Y560390D01*
X977777Y559835D01*
X974444Y559835D01*
G54D11*
X982221Y562613D02*
X982887Y563724D01*
X984221Y564279D01*
X985554Y564279D01*
X986887Y563724D01*
X987554Y562613D01*
X987554Y561502D01*
X986887Y560390D01*
X985554Y559835D01*
X986887Y559279D01*
X987554Y558168D01*
X987554Y557057D01*
X986887Y555946D01*
X985554Y555390D01*
X984221Y555390D01*
X982887Y555946D01*
X982221Y557057D01*
G54D13*
X460562Y228945D02*
X460562Y228945D01*
G54D16*
X851176Y4830D02*
X851176Y22608D01*
G54D16*
X847620Y22608D02*
X854731Y22608D01*
G54D16*
X863176Y13719D02*
X865842Y11497D01*
X866731Y9274D01*
X866731Y4830D01*
G54D16*
X859620Y4830D02*
X859620Y22608D01*
X864064Y22608D01*
X865842Y21497D01*
X866731Y19274D01*
X866731Y17052D01*
X865842Y14830D01*
X864064Y13719D01*
X859620Y13719D01*
G54D16*
X871620Y15941D02*
X876064Y22608D01*
X876064Y4830D01*
G54D16*
X853526Y-241770D02*
X853526Y-223992D01*
G54D16*
X849970Y-223992D02*
X857081Y-223992D01*
G54D16*
X865526Y-232881D02*
X868192Y-235103D01*
X869081Y-237326D01*
X869081Y-241770D01*
G54D16*
X861970Y-241770D02*
X861970Y-223992D01*
X866414Y-223992D01*
X868192Y-225103D01*
X869081Y-227326D01*
X869081Y-229548D01*
X868192Y-231770D01*
X866414Y-232881D01*
X861970Y-232881D01*
G54D16*
X881081Y-241770D02*
X873970Y-241770D01*
X873970Y-240659D01*
X874859Y-238437D01*
X880192Y-231770D01*
X881081Y-229548D01*
X881081Y-227326D01*
X880192Y-225103D01*
X878414Y-223992D01*
X876637Y-223992D01*
X874859Y-225103D01*
X873970Y-227326D01*
G54D10*
X-40169Y557804D02*
X-33819Y557804D01*
G54D10*
X-33819Y565741D02*
X-33819Y549866D01*
G54D10*
X-30644Y552247D02*
X-30644Y563360D01*
G54D10*
X-27469Y560185D02*
X-27469Y555423D01*
G54D11*
X-410980Y541230D02*
X-408758Y550119D01*
X-406536Y541230D01*
G54D11*
X-410091Y544563D02*
X-407424Y544563D01*
G54D11*
X-404092Y550119D02*
X-400536Y550119D01*
X-400981Y549008D01*
X-401870Y547341D01*
X-402759Y545119D01*
X-403203Y543452D01*
X-403203Y541230D01*
G54D11*
X-379230Y541230D02*
X-377008Y550119D01*
X-374786Y541230D01*
G54D11*
X-378341Y544563D02*
X-375674Y544563D01*
G54D11*
X-368786Y548452D02*
X-369231Y549563D01*
X-370120Y550119D01*
X-371009Y550119D01*
X-371898Y549563D01*
X-372342Y548452D01*
X-372342Y545674D01*
X-372342Y545119D01*
X-371009Y546230D01*
X-370120Y546230D01*
X-369231Y545674D01*
X-368786Y544563D01*
X-368786Y542897D01*
X-369231Y541786D01*
X-370120Y541230D01*
X-371009Y541230D01*
X-371898Y541786D01*
X-372342Y542897D01*
X-372342Y545674D01*
G54D11*
X-353830Y541230D02*
X-351608Y550119D01*
X-349386Y541230D01*
G54D11*
X-352941Y544563D02*
X-350274Y544563D01*
G54D11*
X-343386Y550119D02*
X-346942Y550119D01*
X-346942Y546230D01*
X-346498Y546230D01*
X-345609Y546786D01*
X-344720Y546786D01*
X-343831Y546230D01*
X-343386Y545119D01*
X-343386Y542897D01*
X-343831Y541786D01*
X-344720Y541230D01*
X-345609Y541230D01*
X-346498Y541786D01*
X-346942Y542897D01*
G54D11*
X-296680Y541230D02*
X-296680Y550119D01*
X-294458Y550119D01*
X-293569Y549563D01*
X-293124Y548452D01*
X-293124Y542897D01*
X-293569Y541786D01*
X-294458Y541230D01*
X-296680Y541230D01*
G54D11*
X-287124Y550119D02*
X-290680Y550119D01*
X-290680Y546230D01*
X-290236Y546230D01*
X-289347Y546786D01*
X-288458Y546786D01*
X-287569Y546230D01*
X-287124Y545119D01*
X-287124Y542897D01*
X-287569Y541786D01*
X-288458Y541230D01*
X-289347Y541230D01*
X-290236Y541786D01*
X-290680Y542897D01*
G54D11*
X-271280Y541230D02*
X-271280Y550119D01*
X-269058Y550119D01*
X-268169Y549563D01*
X-267724Y548452D01*
X-267724Y542897D01*
X-268169Y541786D01*
X-269058Y541230D01*
X-271280Y541230D01*
G54D11*
X-261724Y548452D02*
X-262169Y549563D01*
X-263058Y550119D01*
X-263947Y550119D01*
X-264836Y549563D01*
X-265280Y548452D01*
X-265280Y545674D01*
X-265280Y545119D01*
X-263947Y546230D01*
X-263058Y546230D01*
X-262169Y545674D01*
X-261724Y544563D01*
X-261724Y542897D01*
X-262169Y541786D01*
X-263058Y541230D01*
X-263947Y541230D01*
X-264836Y541786D01*
X-265280Y542897D01*
X-265280Y545674D01*
G54D11*
X-245880Y541230D02*
X-245880Y550119D01*
X-243658Y550119D01*
X-242769Y549563D01*
X-242324Y548452D01*
X-242324Y542897D01*
X-242769Y541786D01*
X-243658Y541230D01*
X-245880Y541230D01*
G54D11*
X-239880Y550119D02*
X-236324Y550119D01*
X-236769Y549008D01*
X-237658Y547341D01*
X-238547Y545119D01*
X-238991Y543452D01*
X-238991Y541230D01*
G54D12*
G75*
G01X109720Y338030D02*
G03X109720Y338030I-50800J0D01*
G01*
G54D12*
G75*
G01X211320Y338030D02*
G03X211320Y338030I-50800J0D01*
G01*
G54D12*
G75*
G01X338320Y338030D02*
G03X338320Y338030I-50800J0D01*
G01*
G54D12*
G75*
G01X439920Y338030D02*
G03X439920Y338030I-50800J0D01*
G01*
G54D12*
G75*
G01X782820Y439630D02*
G03X782820Y439630I-50800J0D01*
G01*
G54D12*
G75*
G01X884420Y439630D02*
G03X884420Y439630I-50800J0D01*
G01*
G54D24*
X-64259Y-233296D02*
X-64259Y-268851D01*
X-45592Y-268851D01*
G54D24*
X-35814Y-268851D02*
X-35814Y-233296D01*
G54D24*
X-26036Y-268851D02*
X-26036Y-233296D01*
X-4702Y-268851D01*
X-4702Y-233296D01*
G54D24*
X23742Y-268851D02*
X5075Y-268851D01*
X5075Y-233296D01*
X23742Y-233296D01*
G54D24*
X5075Y-251073D02*
X23742Y-251073D01*
G54D24*
X33520Y-268851D02*
X46854Y-233296D01*
X60187Y-268851D01*
G54D24*
X38854Y-255518D02*
X54854Y-255518D01*
G54D24*
X80632Y-251073D02*
X88632Y-255518D01*
X91299Y-259962D01*
X91299Y-268851D01*
G54D24*
X69965Y-268851D02*
X69965Y-233296D01*
X83299Y-233296D01*
X88632Y-235518D01*
X91299Y-239962D01*
X91299Y-244407D01*
X88632Y-248851D01*
X83299Y-251073D01*
X69965Y-251073D01*
G54D24*
X101076Y-253296D02*
X122410Y-253296D01*
G54D24*
X132187Y-268851D02*
X145521Y-233296D01*
X158854Y-268851D01*
G54D24*
X137521Y-255518D02*
X153521Y-255518D01*
G54D24*
X168632Y-268851D02*
X168632Y-233296D01*
X181966Y-255518D01*
X195299Y-233296D01*
X195299Y-268851D01*
G54D24*
X205077Y-268851D02*
X205077Y-233296D01*
X218411Y-233296D01*
X223744Y-235518D01*
X226411Y-239962D01*
X226411Y-244407D01*
X223744Y-248851D01*
X218411Y-251073D01*
X205077Y-251073D01*
G54D24*
X236188Y-233296D02*
X236188Y-268851D01*
X254855Y-268851D01*
G54D24*
X264633Y-268851D02*
X264633Y-233296D01*
G54D24*
X274411Y-268851D02*
X274411Y-233296D01*
X293078Y-233296D01*
G54D24*
X274411Y-251073D02*
X293078Y-251073D01*
G54D24*
X302856Y-268851D02*
X302856Y-233296D01*
G54D24*
X331301Y-268851D02*
X312634Y-268851D01*
X312634Y-233296D01*
X331301Y-233296D01*
G54D24*
X312634Y-251073D02*
X331301Y-251073D01*
G54D24*
X351746Y-251073D02*
X359746Y-255518D01*
X362413Y-259962D01*
X362413Y-268851D01*
G54D24*
X341079Y-268851D02*
X341079Y-233296D01*
X354413Y-233296D01*
X359746Y-235518D01*
X362413Y-239962D01*
X362413Y-244407D01*
X359746Y-248851D01*
X354413Y-251073D01*
X341079Y-251073D01*
G54D16*
X-336400Y-14000D02*
X-336400Y3778D01*
G54D16*
X-331511Y-14000D02*
X-331511Y3778D01*
X-320844Y-14000D01*
X-320844Y3778D01*
G54D16*
X-315955Y-6222D02*
X-305288Y-6222D01*
G54D16*
X-300399Y3778D02*
X-300399Y-10667D01*
X-299066Y-12889D01*
X-296399Y-14000D01*
X-293732Y-14000D01*
X-291066Y-12889D01*
X-289732Y-10667D01*
X-289732Y3778D01*
G54D16*
X-284843Y-14000D02*
X-284843Y3778D01*
X-274176Y-14000D01*
X-274176Y3778D01*
G54D16*
X-269287Y-14000D02*
X-269287Y3778D01*
X-262620Y3778D01*
X-259954Y2667D01*
X-258620Y444D01*
X-258620Y-1778D01*
X-259954Y-4000D01*
X-262620Y-5111D01*
X-259954Y-6222D01*
X-258620Y-8444D01*
X-258620Y-10667D01*
X-259954Y-12889D01*
X-262620Y-14000D01*
X-269287Y-14000D01*
G54D16*
X-269287Y-5111D02*
X-262620Y-5111D01*
G54D16*
X1001167Y-315256D02*
X1001167Y-326367D01*
X999833Y-328589D01*
X997167Y-329700D01*
X994500Y-329700D01*
X991833Y-328589D01*
X990500Y-326367D01*
X990500Y-315256D01*
X991833Y-313033D01*
X994500Y-311922D01*
X997167Y-311922D01*
X999833Y-313033D01*
X1001167Y-315256D01*
G54D16*
X1006056Y-311922D02*
X1006056Y-326367D01*
X1007389Y-328589D01*
X1010056Y-329700D01*
X1012723Y-329700D01*
X1015389Y-328589D01*
X1016723Y-326367D01*
X1016723Y-311922D01*
G54D16*
X1026945Y-329700D02*
X1026945Y-311922D01*
G54D16*
X1021612Y-311922D02*
X1032279Y-311922D01*
G54D12*
X-338330Y-24820D02*
X-236730Y-24820D01*
X-236730Y-126420D01*
X-338330Y-126420D01*
X-338330Y-24820D01*
G54D15*
X-339080Y1930D02*
X-339080Y1930D01*
G54D15*
X-339080Y-17570D02*
X-339080Y-17570D01*
G54D12*
X-338330Y-208970D02*
X-236730Y-208970D01*
X-236730Y-310570D01*
X-338330Y-310570D01*
X-338330Y-208970D01*
G54D16*
X-333700Y-197231D02*
X-333700Y-179454D01*
G54D16*
X-328811Y-197231D02*
X-328811Y-179454D01*
X-318144Y-197231D01*
X-318144Y-179454D01*
G54D16*
X-313255Y-197231D02*
X-299922Y-197231D01*
G54D16*
X-295033Y-197231D02*
X-295033Y-179454D01*
X-288366Y-179454D01*
X-285700Y-180564D01*
X-284366Y-182787D01*
X-284366Y-185009D01*
X-285700Y-187231D01*
X-288366Y-188342D01*
X-285700Y-189454D01*
X-284366Y-191676D01*
X-284366Y-193898D01*
X-285700Y-196120D01*
X-288366Y-197231D01*
X-295033Y-197231D01*
G54D16*
X-295033Y-188342D02*
X-288366Y-188342D01*
G54D16*
X-279477Y-197231D02*
X-272810Y-179454D01*
X-266144Y-197231D01*
G54D16*
X-276810Y-190564D02*
X-268810Y-190564D01*
G54D16*
X-261255Y-179454D02*
X-261255Y-197231D01*
X-251922Y-197231D01*
G54D15*
X-205380Y-323301D02*
X-205380Y-323301D01*
G54D12*
X-312930Y-101020D02*
X-312930Y-151820D01*
G54D12*
G75*
G01X769644Y-7569D02*
G03X769644Y-7569I-13494J0D01*
G01*
G54D12*
G75*
G01X756150Y-7569D02*
G03X756150Y-7569I-27782J0D01*
G01*
G54D12*
X-355643Y295731D02*
X-333468Y295731D01*
X-333468Y245031D01*
X-355643Y245031D01*
X-355643Y295731D01*
G54D12*
X-344556Y295931D02*
X-344556Y303831D01*
G54D12*
X-344556Y244931D02*
X-344556Y237031D01*
G54D16*
X-354667Y152000D02*
X-354667Y169778D01*
G54D16*
X-360000Y169778D02*
X-349333Y169778D01*
G54D16*
X-344444Y169778D02*
X-331111Y152000D01*
G54D16*
X-344444Y152000D02*
X-331111Y169778D01*
G54D12*
X-347000Y192000D02*
X-347000Y120000D01*
X-346000Y119000D01*
G54D12*
X-10643Y508731D02*
X11532Y508731D01*
X11532Y458031D01*
X-10643Y458031D01*
X-10643Y508731D01*
G54D12*
X444Y508931D02*
X444Y516831D01*
G54D12*
X444Y457931D02*
X444Y450031D01*
G54D16*
X-34333Y491889D02*
X-37000Y491889D01*
X-39667Y493000D01*
X-41000Y495222D01*
X-41000Y497444D01*
X-39667Y499667D01*
X-37000Y500778D01*
X-34333Y500778D01*
X-31667Y499667D01*
X-30333Y497444D01*
X-30333Y495222D01*
X-31667Y493000D01*
X-34333Y491889D01*
X-31667Y490778D01*
X-30333Y488556D01*
X-30333Y486333D01*
X-31667Y484111D01*
X-34333Y483000D01*
X-37000Y483000D01*
X-39667Y484111D01*
X-41000Y486333D01*
X-41000Y488556D01*
X-39667Y490778D01*
X-37000Y491889D01*
G54D16*
X-14777Y497444D02*
X-14777Y486333D01*
X-16111Y484111D01*
X-18777Y483000D01*
X-21444Y483000D01*
X-24111Y484111D01*
X-25444Y486333D01*
X-25444Y497444D01*
X-24111Y499667D01*
X-21444Y500778D01*
X-18777Y500778D01*
X-16111Y499667D01*
X-14777Y497444D01*
G54D16*
X-1888Y483000D02*
X-1888Y500778D01*
X-9888Y489667D01*
X-9888Y487444D01*
X779Y487444D01*
G54D16*
X16335Y497444D02*
X16335Y486333D01*
X15001Y484111D01*
X12335Y483000D01*
X9668Y483000D01*
X7001Y484111D01*
X5668Y486333D01*
X5668Y497444D01*
X7001Y499667D01*
X9668Y500778D01*
X12335Y500778D01*
X15001Y499667D01*
X16335Y497444D01*
G54D12*
X-28000Y523000D02*
X-28000Y451000D01*
X-27000Y450000D01*
G54D12*
X915955Y361136D02*
X915955Y383311D01*
X966655Y383311D01*
X966654Y361136D01*
X915955Y361136D01*
G54D12*
X915754Y372224D02*
X907855Y372224D01*
G54D12*
X966755Y372224D02*
X974655Y372224D01*
G54D12*
X901686Y343779D02*
X973686Y343779D01*
X974686Y344779D01*
G54D12*
X230357Y522731D02*
X252532Y522731D01*
X252532Y472031D01*
X230357Y472031D01*
X230357Y522731D01*
G54D12*
X241444Y522931D02*
X241444Y530831D01*
G54D12*
X241444Y471931D02*
X241444Y464031D01*
G54D16*
X225667Y493000D02*
X215000Y493000D01*
X215000Y494111D01*
X216333Y496333D01*
X224333Y503000D01*
X225667Y505222D01*
X225667Y507444D01*
X224333Y509667D01*
X221667Y510778D01*
X219000Y510778D01*
X216333Y509667D01*
X215000Y507444D01*
G54D16*
X241223Y507444D02*
X241223Y496333D01*
X239889Y494111D01*
X237223Y493000D01*
X234556Y493000D01*
X231889Y494111D01*
X230556Y496333D01*
X230556Y507444D01*
X231889Y509667D01*
X234556Y510778D01*
X237223Y510778D01*
X239889Y509667D01*
X241223Y507444D01*
G54D12*
X213000Y537000D02*
X213000Y465000D01*
X214000Y464000D01*
G54D16*
X916000Y393111D02*
X922667Y399778D01*
X922667Y382000D01*
G54D16*
X938223Y399778D02*
X927556Y399778D01*
X927556Y392000D01*
X928889Y392000D01*
X931556Y393111D01*
X934223Y393111D01*
X936889Y392000D01*
X938223Y389778D01*
X938223Y385333D01*
X936889Y383111D01*
X934223Y382000D01*
X931556Y382000D01*
X928889Y383111D01*
X927556Y385333D01*
G54D16*
X943112Y393111D02*
X949779Y399778D01*
X949779Y382000D01*
G54D16*
X965335Y396444D02*
X965335Y385333D01*
X964001Y383111D01*
X961335Y382000D01*
X958668Y382000D01*
X956001Y383111D01*
X954668Y385333D01*
X954668Y396444D01*
X956001Y398667D01*
X958668Y399778D01*
X961335Y399778D01*
X964001Y398667D01*
X965335Y396444D01*
G54D11*
X-132058Y572494D02*
X-126725Y572494D01*
G54D11*
X-129391Y574716D02*
X-129391Y570272D01*
G54D11*
X-118948Y577494D02*
X-124281Y577494D01*
X-124281Y573605D01*
X-123614Y573605D01*
X-122281Y574161D01*
X-120948Y574161D01*
X-119614Y573605D01*
X-118948Y572494D01*
X-118948Y570272D01*
X-119614Y569161D01*
X-120948Y568605D01*
X-122281Y568605D01*
X-123614Y569161D01*
X-124281Y570272D01*
G54D11*
X-116504Y577494D02*
X-113171Y568605D01*
X-109837Y577494D01*
G54D11*
X-17058Y596494D02*
X-11725Y596494D01*
G54D11*
X-14391Y598716D02*
X-14391Y594272D01*
G54D11*
X-3948Y601494D02*
X-9281Y601494D01*
X-9281Y597605D01*
X-8614Y597605D01*
X-7281Y598161D01*
X-5948Y598161D01*
X-4614Y597605D01*
X-3948Y596494D01*
X-3948Y594272D01*
X-4614Y593161D01*
X-5948Y592605D01*
X-7281Y592605D01*
X-8614Y593161D01*
X-9281Y594272D01*
G54D11*
X-1504Y601494D02*
X1829Y592605D01*
X5163Y601494D01*
G54D11*
X207942Y590494D02*
X213275Y590494D01*
G54D11*
X210609Y592716D02*
X210609Y588272D01*
G54D11*
X221052Y595494D02*
X215719Y595494D01*
X215719Y591605D01*
X216386Y591605D01*
X217719Y592161D01*
X219052Y592161D01*
X220386Y591605D01*
X221052Y590494D01*
X221052Y588272D01*
X220386Y587161D01*
X219052Y586605D01*
X217719Y586605D01*
X216386Y587161D01*
X215719Y588272D01*
G54D11*
X223496Y595494D02*
X226829Y586605D01*
X230163Y595494D01*
G54D11*
X420942Y565494D02*
X426275Y565494D01*
G54D11*
X423609Y567716D02*
X423609Y563272D01*
G54D11*
X434052Y570494D02*
X428719Y570494D01*
X428719Y566605D01*
X429386Y566605D01*
X430719Y567161D01*
X432052Y567161D01*
X433386Y566605D01*
X434052Y565494D01*
X434052Y563272D01*
X433386Y562161D01*
X432052Y561605D01*
X430719Y561605D01*
X429386Y562161D01*
X428719Y563272D01*
G54D11*
X436496Y570494D02*
X439829Y561605D01*
X443163Y570494D01*
G54D12*
X466954Y260002D02*
X492354Y260002D01*
X492354Y331602D01*
X466954Y331602D01*
X466954Y260002D01*
G54D11*
X505609Y323049D02*
X507609Y321938D01*
X508275Y320827D01*
X508275Y318605D01*
G54D11*
X502942Y318605D02*
X502942Y327494D01*
X506275Y327494D01*
X507609Y326938D01*
X508275Y325827D01*
X508275Y324716D01*
X507609Y323605D01*
X506275Y323049D01*
X502942Y323049D01*
G54D11*
X510719Y320272D02*
X511386Y319161D01*
X512719Y318605D01*
X514052Y318605D01*
X515386Y319161D01*
X516052Y320272D01*
X516052Y323049D01*
X516052Y323605D01*
X514052Y322494D01*
X512719Y322494D01*
X511386Y323049D01*
X510719Y324161D01*
X510719Y325827D01*
X511386Y326938D01*
X512719Y327494D01*
X514052Y327494D01*
X515386Y326938D01*
X516052Y325827D01*
X516052Y323049D01*
G54D11*
X518496Y327494D02*
X523829Y327494D01*
X523163Y326383D01*
X521829Y324716D01*
X520496Y322494D01*
X519829Y320827D01*
X519829Y318605D01*
G54D16*
X1067942Y-291395D02*
X1067942Y-273617D01*
X1059942Y-284728D01*
X1059942Y-286950D01*
X1070609Y-286950D01*
G54D11*
X1011609Y15605D02*
X1006942Y15605D01*
X1006942Y24494D01*
X1011609Y24494D01*
G54D11*
X1006942Y20049D02*
X1011609Y20049D01*
G54D11*
X1014053Y15605D02*
X1014053Y20605D01*
G54D11*
X1014053Y19494D02*
X1014720Y20272D01*
X1016053Y20605D01*
X1017386Y20272D01*
X1018053Y19494D01*
X1018053Y15605D01*
G54D11*
X1020497Y20049D02*
X1021830Y20605D01*
X1023430Y20605D01*
X1024497Y19494D01*
X1024497Y15605D01*
G54D11*
X1024497Y17272D02*
X1023830Y18383D01*
X1022497Y18605D01*
X1021164Y18383D01*
X1020497Y17272D01*
X1020764Y16161D01*
X1021830Y15605D01*
X1022497Y15605D01*
X1022764Y15605D01*
X1023830Y16161D01*
X1024497Y17272D01*
G54D11*
X1026941Y15605D02*
X1026941Y24494D01*
G54D11*
X1026941Y19161D02*
X1027608Y20272D01*
X1028941Y20605D01*
X1030274Y20272D01*
X1030941Y19161D01*
X1030941Y16938D01*
X1030274Y15827D01*
X1028941Y15605D01*
X1027608Y15827D01*
X1026941Y16938D01*
G54D11*
X1033385Y15605D02*
X1033385Y24494D01*
G54D11*
X1039829Y16161D02*
X1038762Y15605D01*
X1037429Y15605D01*
X1036096Y16161D01*
X1035829Y17272D01*
X1035829Y19161D01*
X1036496Y20272D01*
X1037829Y20605D01*
X1039162Y20272D01*
X1039829Y19494D01*
X1039829Y18383D01*
X1035829Y18383D01*
M02*
