%FSLAX34Y34*%
%MOMM*%
%LNCOPPER_BOTTOM*%
G71*
G01*
%ADD10C,2.800*%
%ADD11C,3.200*%
%ADD12C,1.700*%
%ADD13C,3.000*%
%ADD14C,1.800*%
%ADD15C,1.400*%
%ADD16C,0.800*%
%ADD17R,1.435X2.070*%
%ADD18C,2.700*%
%ADD19C,2.450*%
%ADD20C,0.900*%
%ADD21C,2.800*%
%ADD22C,2.700*%
%ADD23C,1.100*%
%ADD24C,3.200*%
%ADD25C,2.800*%
%ADD26C,2.000*%
%ADD27C,1.000*%
%ADD28C,0.667*%
%ADD29C,0.813*%
%ADD30C,0.767*%
%ADD31C,0.733*%
%ADD32C,1.713*%
%ADD33C,1.360*%
%ADD34C,1.587*%
%ADD35C,1.627*%
%ADD36C,0.787*%
%ADD37C,1.447*%
%ADD38C,1.200*%
%ADD39C,2.230*%
%ADD40C,0.827*%
%ADD41C,2.000*%
%ADD42C,2.200*%
%ADD43C,0.600*%
%ADD44C,0.000*%
%ADD45R,0.635X1.270*%
%ADD46C,1.900*%
%ADD47C,1.650*%
%ADD48C,0.500*%
%ADD49C,2.000*%
%ADD50C,1.900*%
%ADD51C,0.300*%
%ADD52C,3.000*%
%ADD53C,2.000*%
%ADD54C,1.200*%
%ADD55C,0.200*%
%LPD*%
G36*
X-444000Y606000D02*
X1156000Y606000D01*
X1156000Y-394000D01*
X-444000Y-394000D01*
X-444000Y606000D01*
G37*
%LPC*%
X903470Y269830D02*
G54D10*
D03*
X878070Y269830D02*
G54D10*
D03*
X852670Y269830D02*
G54D10*
D03*
X808720Y265036D02*
G54D11*
D03*
X808833Y214055D02*
G54D11*
D03*
X620503Y277527D02*
G54D11*
D03*
X620453Y201277D02*
G54D11*
D03*
X669020Y271386D02*
G54D11*
D03*
X669133Y220405D02*
G54D11*
D03*
X436353Y277527D02*
G54D11*
D03*
X436303Y201277D02*
G54D11*
D03*
G36*
X559270Y-9920D02*
X587270Y-9920D01*
X587270Y-37920D01*
X559270Y-37920D01*
X559270Y-9920D01*
G37*
X573270Y-49320D02*
G54D10*
D03*
G36*
X559270Y15480D02*
X587270Y15480D01*
X587270Y-12520D01*
X559270Y-12520D01*
X559270Y15480D01*
G37*
G36*
X559270Y-194070D02*
X587270Y-194070D01*
X587270Y-222070D01*
X559270Y-222070D01*
X559270Y-194070D01*
G37*
X573270Y-233470D02*
G54D10*
D03*
G36*
X559270Y-168670D02*
X587270Y-168670D01*
X587270Y-196670D01*
X559270Y-196670D01*
X559270Y-168670D01*
G37*
X478053Y15438D02*
G54D11*
D03*
X427072Y15325D02*
G54D11*
D03*
X478053Y-190937D02*
G54D11*
D03*
X427072Y-191050D02*
G54D11*
D03*
X478053Y72588D02*
G54D11*
D03*
X427073Y72475D02*
G54D11*
D03*
X490753Y-305237D02*
G54D11*
D03*
X439773Y-305350D02*
G54D11*
D03*
X616751Y105950D02*
G54D11*
D03*
X540501Y106000D02*
G54D11*
D03*
X629451Y-338550D02*
G54D11*
D03*
X553201Y-338500D02*
G54D11*
D03*
X744720Y150830D02*
G54D10*
D03*
X744720Y87330D02*
G54D10*
D03*
X744720Y-312720D02*
G54D10*
D03*
X744720Y-376220D02*
G54D10*
D03*
X856020Y112730D02*
G54D10*
D03*
X820920Y112730D02*
G54D10*
D03*
X868720Y-331770D02*
G54D10*
D03*
X833620Y-331770D02*
G54D10*
D03*
X1013779Y260552D02*
G54D11*
D03*
X1039279Y260552D02*
G54D11*
D03*
X915113Y77935D02*
G54D11*
D03*
X915163Y154185D02*
G54D11*
D03*
X865520Y-49070D02*
G54D10*
D03*
X864020Y-159670D02*
G54D10*
D03*
X960620Y-46070D02*
G54D10*
D03*
X963620Y-165670D02*
G54D10*
D03*
X300220Y-39670D02*
G54D10*
D03*
X439920Y-39670D02*
G54D10*
D03*
X439920Y-128570D02*
G54D10*
D03*
X439920Y-84120D02*
G54D10*
D03*
X1102679Y260552D02*
G54D11*
D03*
X1128179Y260552D02*
G54D11*
D03*
X878070Y269830D02*
G54D10*
D03*
X808833Y214055D02*
G54D10*
D03*
X763770Y206330D02*
G54D10*
D03*
X669133Y220405D02*
G54D10*
D03*
X963620Y-165670D02*
G54D10*
D03*
X856020Y112730D02*
G54D10*
D03*
X915113Y77935D02*
G54D10*
D03*
X868720Y-331770D02*
G54D10*
D03*
X300220Y-128570D02*
G54D10*
D03*
X439920Y-84120D02*
G54D10*
D03*
G54D12*
X1039279Y260552D02*
X1036820Y265130D01*
X1024120Y277830D01*
X1024120Y290530D01*
X1011420Y290530D01*
X986020Y265130D01*
X909820Y265130D01*
X903470Y269830D01*
X1015570Y-56920D02*
G54D13*
D03*
X1066370Y-56920D02*
G54D13*
D03*
X1040970Y-82320D02*
G54D13*
D03*
X1066370Y-107720D02*
G54D13*
D03*
X1015570Y-107720D02*
G54D13*
D03*
X300220Y-84120D02*
G54D10*
D03*
X808833Y214055D02*
G54D10*
D03*
X669133Y220405D02*
G54D10*
D03*
X915113Y77935D02*
G54D10*
D03*
G54D14*
X439920Y-128570D02*
X427220Y-141270D01*
X427220Y-192070D01*
X427072Y-191050D01*
G54D14*
X439920Y-39670D02*
X427220Y-26970D01*
X427220Y17480D01*
X427072Y15325D01*
G54D12*
X573270Y-182670D02*
X573270Y-185720D01*
X554220Y-166670D01*
X554220Y11130D01*
X560570Y17480D01*
X560570Y112730D01*
X480020Y178280D01*
X466320Y184680D01*
X433570Y201630D01*
X436303Y201277D01*
G54D12*
X478053Y15438D02*
X478020Y17480D01*
X478020Y-90470D01*
X541520Y-153970D01*
X541520Y-173020D01*
X554220Y-185720D01*
X541520Y-242870D01*
X560570Y-261920D01*
X585970Y-261920D01*
X605020Y-230170D01*
X605020Y-109520D01*
X592320Y-96820D01*
X592320Y-14270D01*
X579620Y-1570D01*
X573270Y-1570D01*
X573270Y1480D01*
G54D12*
X427073Y72475D02*
X427220Y74630D01*
X420870Y80980D01*
X420870Y290530D01*
X427220Y296880D01*
X446270Y296880D01*
X452620Y290530D01*
X490720Y290530D01*
X522470Y258780D01*
X528820Y258780D01*
X554220Y233380D01*
X554220Y201630D01*
X573270Y182580D01*
X573270Y-1570D01*
X573270Y1480D01*
G54D12*
X573270Y1480D02*
X573270Y-1570D01*
X598670Y23830D01*
X598670Y112730D01*
X617720Y131780D01*
X617720Y201630D01*
X620453Y201277D01*
G54D15*
X478053Y-190937D02*
X478020Y-192070D01*
X465320Y-179370D01*
X465320Y-77770D01*
X458970Y-71420D01*
X458970Y23830D01*
X471670Y36530D01*
X484370Y36530D01*
X554220Y-33320D01*
X554220Y-122220D01*
X573270Y-141270D01*
X573270Y-185720D01*
X573270Y-182670D01*
G54D12*
X439773Y-305350D02*
X439920Y-306370D01*
X465320Y-280970D01*
X465320Y-77770D01*
X458970Y-71420D01*
X458970Y23830D01*
X471670Y36530D01*
X484370Y36530D01*
X554220Y-33320D01*
X554220Y-122220D01*
X573270Y-141270D01*
X573270Y-185720D01*
X573270Y-182670D01*
G54D14*
X820920Y112730D02*
X795520Y87330D01*
X744720Y87330D01*
G54D14*
X915163Y154185D02*
X916170Y157180D01*
X897120Y138130D01*
X852670Y138130D01*
X827270Y112730D01*
X820920Y112730D01*
G54D12*
X744720Y150830D02*
X700270Y106380D01*
X617720Y106380D01*
X616751Y105950D01*
G54D14*
X540501Y106000D02*
X541520Y106380D01*
X509770Y74630D01*
X478020Y74630D01*
X478053Y72588D01*
X927813Y-379265D02*
G54D11*
D03*
X927863Y-303015D02*
G54D11*
D03*
X927813Y-379265D02*
G54D10*
D03*
G36*
X559270Y-219470D02*
X587270Y-219470D01*
X587270Y-247470D01*
X559270Y-247470D01*
X559270Y-219470D01*
G37*
G36*
X559270Y-35320D02*
X587270Y-35320D01*
X587270Y-63320D01*
X559270Y-63320D01*
X559270Y-35320D01*
G37*
G54D14*
X553201Y-338500D02*
X554220Y-338120D01*
X522470Y-306370D01*
X490720Y-306370D01*
X490753Y-305237D01*
G54D14*
X744720Y-312720D02*
X719320Y-338120D01*
X630420Y-338120D01*
X629451Y-338550D01*
G54D14*
X833620Y-331770D02*
X789170Y-376220D01*
X744720Y-376220D01*
G54D14*
X927863Y-303015D02*
X928870Y-300020D01*
X922520Y-306370D01*
X865370Y-306370D01*
X839970Y-331770D01*
X833620Y-331770D01*
G54D14*
X1128179Y260552D02*
X1125720Y258780D01*
X1024120Y157180D01*
X916170Y157180D01*
X915163Y154185D01*
G54D16*
X-271352Y120319D02*
X-271065Y120324D01*
X-270778Y120319D01*
X-270489Y120304D01*
X-270202Y120278D01*
X-269917Y120243D01*
X-269633Y120200D01*
X-269348Y120144D01*
X-269069Y120078D01*
X-268789Y120004D01*
X-268515Y119920D01*
X-268241Y119826D01*
X-267974Y119722D01*
X-267707Y119610D01*
X-267446Y119488D01*
X-267189Y119359D01*
X-266938Y119219D01*
X-266691Y119069D01*
X-266450Y118912D01*
X-266214Y118747D01*
X-265982Y118574D01*
X-265759Y118394D01*
X-265541Y118203D01*
X-265330Y118007D01*
X-265127Y117804D01*
X-264931Y117594D01*
X-264741Y117375D01*
X-264560Y117152D01*
X-264388Y116920D01*
X-264223Y116684D01*
X-264065Y116443D01*
X-263915Y116197D01*
X-263775Y115945D01*
X-263646Y115688D01*
X-263524Y115427D01*
X-263412Y115160D01*
X-263308Y114894D01*
X-263214Y114619D01*
X-263130Y114345D01*
X-263057Y114066D01*
X-262991Y113786D01*
X-262935Y113502D01*
X-262891Y113217D01*
X-262856Y112932D01*
X-262831Y112646D01*
X-262815Y112356D01*
X-262810Y112069D01*
X-262815Y111782D01*
X-262831Y111492D01*
X-262856Y111205D01*
X-262891Y110921D01*
X-262935Y110637D01*
X-262991Y110352D01*
X-263057Y110073D01*
X-263130Y109793D01*
X-263214Y109519D01*
X-263308Y109244D01*
X-263412Y108978D01*
X-263524Y108711D01*
X-263646Y108450D01*
X-263775Y108193D01*
X-263915Y107942D01*
X-264065Y107695D01*
X-264222Y107454D01*
X-264388Y107218D01*
X-264560Y106987D01*
X-264741Y106763D01*
X-264931Y106544D01*
X-265127Y106334D01*
X-265330Y106131D01*
X-265541Y105935D01*
X-265759Y105744D01*
X-265983Y105564D01*
X-266214Y105391D01*
X-266450Y105226D01*
X-266692Y105069D01*
X-266938Y104919D01*
X-267189Y104779D01*
X-267446Y104650D01*
X-267707Y104528D01*
X-267974Y104416D01*
X-268241Y104312D01*
X-268515Y104218D01*
X-268790Y104134D01*
X-269069Y104060D01*
X-269348Y103994D01*
X-269633Y103938D01*
X-269917Y103895D01*
X-270202Y103860D01*
X-270489Y103834D01*
X-270778Y103819D01*
X-271065Y103814D01*
X-271352Y103819D01*
X-271642Y103834D01*
X-271929Y103860D01*
X-272213Y103895D01*
X-272498Y103939D01*
X-272782Y103994D01*
X-273062Y104060D01*
X-273341Y104134D01*
X-273615Y104218D01*
X-273890Y104312D01*
X-274156Y104416D01*
X-274423Y104528D01*
X-274685Y104650D01*
X-274942Y104779D01*
X-275193Y104919D01*
X-275439Y105069D01*
X-275680Y105226D01*
X-275916Y105391D01*
X-276148Y105564D01*
X-276371Y105744D01*
X-276590Y105935D01*
X-276801Y106131D01*
X-277004Y106334D01*
X-277199Y106545D01*
X-277390Y106763D01*
X-277570Y106987D01*
X-277743Y107218D01*
X-277908Y107454D01*
X-278065Y107695D01*
X-278216Y107941D01*
X-278355Y108193D01*
X-278485Y108450D01*
X-278606Y108711D01*
X-278718Y108978D01*
X-278822Y109244D01*
X-278916Y109519D01*
X-279000Y109793D01*
X-279074Y110072D01*
X-279140Y110352D01*
X-279196Y110637D01*
X-279239Y110921D01*
X-279274Y111205D01*
X-279300Y111492D01*
X-279315Y111782D01*
X-279320Y112069D01*
X-279315Y112356D01*
X-279300Y112645D01*
X-279274Y112932D01*
X-279239Y113217D01*
X-279196Y113502D01*
X-279140Y113786D01*
X-279074Y114066D01*
X-279000Y114345D01*
X-278916Y114619D01*
X-278822Y114893D01*
X-278718Y115160D01*
X-278606Y115427D01*
X-278485Y115688D01*
X-278355Y115945D01*
X-278216Y116197D01*
X-278066Y116443D01*
X-277908Y116684D01*
X-277743Y116920D01*
X-277570Y117151D01*
X-277390Y117375D01*
X-277199Y117594D01*
X-277004Y117804D01*
X-276801Y118008D01*
X-276590Y118203D01*
X-276372Y118394D01*
X-276148Y118574D01*
X-275917Y118747D01*
X-275680Y118912D01*
X-275439Y119069D01*
X-275193Y119219D01*
X-274941Y119359D01*
X-274684Y119488D01*
X-274423Y119610D01*
X-274156Y119722D01*
X-273890Y119826D01*
X-273615Y119920D01*
X-273341Y120004D01*
X-273062Y120078D01*
X-272782Y120144D01*
X-272498Y120200D01*
X-272213Y120243D01*
X-271929Y120278D01*
X-271642Y120304D01*
X-271352Y120319D01*
G54D16*
X-118952Y120319D02*
X-118665Y120324D01*
X-118378Y120319D01*
X-118089Y120304D01*
X-117802Y120278D01*
X-117517Y120243D01*
X-117233Y120199D01*
X-116948Y120144D01*
X-116669Y120078D01*
X-116389Y120004D01*
X-116115Y119920D01*
X-115841Y119826D01*
X-115574Y119722D01*
X-115307Y119610D01*
X-115046Y119488D01*
X-114789Y119359D01*
X-114538Y119219D01*
X-114291Y119069D01*
X-114050Y118912D01*
X-113814Y118747D01*
X-113582Y118574D01*
X-113359Y118394D01*
X-113141Y118203D01*
X-112930Y118007D01*
X-112727Y117804D01*
X-112531Y117594D01*
X-112341Y117375D01*
X-112160Y117152D01*
X-111988Y116920D01*
X-111822Y116684D01*
X-111665Y116443D01*
X-111515Y116196D01*
X-111375Y115945D01*
X-111246Y115688D01*
X-111124Y115427D01*
X-111012Y115160D01*
X-110908Y114894D01*
X-110814Y114619D01*
X-110730Y114345D01*
X-110657Y114066D01*
X-110591Y113786D01*
X-110535Y113501D01*
X-110492Y113217D01*
X-110456Y112933D01*
X-110430Y112646D01*
X-110415Y112356D01*
X-110410Y112069D01*
X-110415Y111782D01*
X-110431Y111492D01*
X-110456Y111205D01*
X-110491Y110921D01*
X-110535Y110637D01*
X-110591Y110352D01*
X-110656Y110072D01*
X-110730Y109793D01*
X-110814Y109519D01*
X-110908Y109245D01*
X-111012Y108978D01*
X-111124Y108711D01*
X-111246Y108450D01*
X-111375Y108193D01*
X-111515Y107942D01*
X-111665Y107695D01*
X-111822Y107454D01*
X-111988Y107218D01*
X-112160Y106987D01*
X-112341Y106763D01*
X-112531Y106545D01*
X-112727Y106334D01*
X-112930Y106131D01*
X-113141Y105935D01*
X-113359Y105744D01*
X-113583Y105564D01*
X-113814Y105391D01*
X-114050Y105226D01*
X-114291Y105069D01*
X-114538Y104919D01*
X-114789Y104779D01*
X-115046Y104650D01*
X-115307Y104528D01*
X-115574Y104416D01*
X-115841Y104312D01*
X-116115Y104218D01*
X-116389Y104134D01*
X-116669Y104060D01*
X-116948Y103994D01*
X-117233Y103939D01*
X-117517Y103895D01*
X-117802Y103860D01*
X-118089Y103834D01*
X-118378Y103819D01*
X-118665Y103814D01*
X-118952Y103819D01*
X-119242Y103834D01*
X-119529Y103860D01*
X-119814Y103895D01*
X-120098Y103939D01*
X-120382Y103994D01*
X-120662Y104060D01*
X-120941Y104134D01*
X-121215Y104218D01*
X-121490Y104312D01*
X-121756Y104416D01*
X-122023Y104528D01*
X-122285Y104650D01*
X-122541Y104779D01*
X-122793Y104919D01*
X-123039Y105069D01*
X-123280Y105226D01*
X-123517Y105391D01*
X-123748Y105564D01*
X-123971Y105744D01*
X-124190Y105935D01*
X-124400Y106131D01*
X-124604Y106334D01*
X-124799Y106545D01*
X-124990Y106763D01*
X-125170Y106987D01*
X-125343Y107218D01*
X-125508Y107454D01*
X-125665Y107695D01*
X-125815Y107942D01*
X-125955Y108193D01*
X-126085Y108450D01*
X-126206Y108711D01*
X-126318Y108978D01*
X-126422Y109244D01*
X-126516Y109519D01*
X-126600Y109793D01*
X-126674Y110072D01*
X-126740Y110352D01*
X-126796Y110637D01*
X-126839Y110921D01*
X-126874Y111205D01*
X-126900Y111493D01*
X-126915Y111782D01*
X-126920Y112069D01*
X-126915Y112356D01*
X-126900Y112646D01*
X-126874Y112932D01*
X-126839Y113217D01*
X-126796Y113502D01*
X-126740Y113786D01*
X-126674Y114066D01*
X-126600Y114345D01*
X-126516Y114619D01*
X-126422Y114894D01*
X-126318Y115160D01*
X-126206Y115427D01*
X-126085Y115688D01*
X-125955Y115945D01*
X-125815Y116197D01*
X-125665Y116443D01*
X-125508Y116684D01*
X-125343Y116920D01*
X-125170Y117151D01*
X-124990Y117375D01*
X-124799Y117594D01*
X-124604Y117804D01*
X-124401Y118008D01*
X-124189Y118203D01*
X-123972Y118394D01*
X-123748Y118574D01*
X-123517Y118747D01*
X-123280Y118912D01*
X-123039Y119069D01*
X-122793Y119219D01*
X-122541Y119359D01*
X-122285Y119488D01*
X-122023Y119610D01*
X-121756Y119722D01*
X-121490Y119826D01*
X-121215Y119920D01*
X-120941Y120004D01*
X-120662Y120078D01*
X-120382Y120144D01*
X-120098Y120200D01*
X-119813Y120243D01*
X-119529Y120278D01*
X-119242Y120304D01*
X-118952Y120319D01*
X-175561Y171505D02*
G54D17*
D03*
X-185721Y171505D02*
G54D17*
D03*
X-195373Y171505D02*
G54D17*
D03*
X-205533Y171505D02*
G54D17*
D03*
X-215439Y171505D02*
G54D17*
D03*
X-271065Y493069D02*
G54D18*
D03*
X-271065Y467669D02*
G54D18*
D03*
X-271065Y442269D02*
G54D18*
D03*
X-271065Y416869D02*
G54D18*
D03*
X-271065Y391469D02*
G54D18*
D03*
X-271065Y366069D02*
G54D18*
D03*
X-271065Y340669D02*
G54D18*
D03*
X-271065Y315269D02*
G54D18*
D03*
X-271065Y289869D02*
G54D18*
D03*
X-271065Y264469D02*
G54D18*
D03*
X-271065Y239069D02*
G54D18*
D03*
X-271065Y213669D02*
G54D18*
D03*
X-271065Y188269D02*
G54D18*
D03*
X-271065Y162869D02*
G54D18*
D03*
X-271065Y137469D02*
G54D18*
D03*
X-118665Y493069D02*
G54D18*
D03*
X-118665Y467669D02*
G54D18*
D03*
X-118665Y442269D02*
G54D18*
D03*
X-118665Y416869D02*
G54D18*
D03*
X-118665Y391469D02*
G54D18*
D03*
X-118665Y366069D02*
G54D18*
D03*
X-118665Y340669D02*
G54D18*
D03*
X-118665Y315269D02*
G54D18*
D03*
X-118665Y289869D02*
G54D18*
D03*
X-118665Y264469D02*
G54D18*
D03*
X-118665Y239069D02*
G54D18*
D03*
X-118665Y213669D02*
G54D18*
D03*
X-118665Y188269D02*
G54D18*
D03*
X-118665Y162869D02*
G54D18*
D03*
X-118665Y137469D02*
G54D18*
D03*
X-118506Y518310D02*
G54D19*
D03*
X-270906Y518310D02*
G54D19*
D03*
X-169719Y492053D02*
G54D18*
D03*
X-169719Y517453D02*
G54D18*
D03*
X-195119Y492053D02*
G54D18*
D03*
X-195119Y517453D02*
G54D18*
D03*
X-220519Y492053D02*
G54D18*
D03*
X-220519Y517453D02*
G54D18*
D03*
X-65966Y361499D02*
G54D10*
D03*
X-65966Y437699D02*
G54D10*
D03*
X-63391Y556624D02*
G54D11*
D03*
X-63391Y531124D02*
G54D11*
D03*
X-62209Y322234D02*
G54D11*
D03*
X-62096Y271253D02*
G54D11*
D03*
X-65966Y221799D02*
G54D10*
D03*
X-65966Y120199D02*
G54D10*
D03*
X-13841Y155614D02*
G54D11*
D03*
X-13953Y206594D02*
G54D11*
D03*
X-11091Y80882D02*
G54D11*
D03*
X-62071Y80770D02*
G54D11*
D03*
X-62096Y271253D02*
G54D10*
D03*
X-13953Y206594D02*
G54D10*
D03*
X-62071Y80770D02*
G54D10*
D03*
G54D20*
X-62209Y322234D02*
X-61515Y321619D01*
X-67865Y327969D01*
X-67865Y359719D01*
X-65966Y361499D01*
G54D20*
X-65966Y221799D02*
X-67865Y220019D01*
X-42465Y245419D01*
X-42465Y283519D01*
X-61515Y302569D01*
X-61515Y321619D01*
X-62209Y322234D01*
G54D15*
X-63391Y531124D02*
X-65916Y531679D01*
X-65916Y436429D01*
X-65966Y437699D01*
X-271065Y416869D02*
G54D10*
D03*
X-118665Y467669D02*
G54D10*
D03*
G54D15*
X-13841Y155613D02*
X-15116Y157029D01*
X-53216Y118929D01*
X-65916Y118929D01*
X-65966Y120199D01*
X71620Y239729D02*
G54D13*
D03*
X147820Y239730D02*
G54D13*
D03*
X71620Y163530D02*
G54D13*
D03*
X71620Y112730D02*
G54D13*
D03*
X71620Y61930D02*
G54D13*
D03*
X147820Y163530D02*
G54D13*
D03*
X147820Y112730D02*
G54D13*
D03*
X147820Y61930D02*
G54D13*
D03*
X58920Y582630D02*
G54D13*
D03*
X135120Y582630D02*
G54D13*
D03*
X58920Y506430D02*
G54D13*
D03*
X58920Y455630D02*
G54D13*
D03*
X58920Y404830D02*
G54D13*
D03*
X135120Y506430D02*
G54D13*
D03*
X135120Y455630D02*
G54D13*
D03*
X135120Y404830D02*
G54D13*
D03*
X312920Y239730D02*
G54D13*
D03*
X389120Y239730D02*
G54D13*
D03*
X312920Y163530D02*
G54D13*
D03*
X312920Y112730D02*
G54D13*
D03*
X312920Y61930D02*
G54D13*
D03*
X389120Y163530D02*
G54D13*
D03*
X389120Y112730D02*
G54D13*
D03*
X389120Y61930D02*
G54D13*
D03*
X312920Y582630D02*
G54D13*
D03*
X389120Y582630D02*
G54D13*
D03*
X312920Y506430D02*
G54D13*
D03*
X312920Y455630D02*
G54D13*
D03*
X312920Y404830D02*
G54D13*
D03*
X389120Y506430D02*
G54D13*
D03*
X389120Y455630D02*
G54D13*
D03*
X389120Y404830D02*
G54D13*
D03*
X929255Y443165D02*
G54D13*
D03*
X929254Y519365D02*
G54D13*
D03*
X1005455Y443165D02*
G54D13*
D03*
X1056255Y443165D02*
G54D13*
D03*
X1107055Y443165D02*
G54D13*
D03*
X1005455Y519366D02*
G54D13*
D03*
X1056255Y519365D02*
G54D13*
D03*
X1107055Y519365D02*
G54D13*
D03*
X472055Y436815D02*
G54D13*
D03*
X472055Y513016D02*
G54D13*
D03*
X548255Y436816D02*
G54D13*
D03*
X599055Y436816D02*
G54D13*
D03*
X649855Y436815D02*
G54D13*
D03*
X548255Y513016D02*
G54D13*
D03*
X599055Y513016D02*
G54D13*
D03*
X649855Y513016D02*
G54D13*
D03*
X27057Y358617D02*
G54D10*
D03*
X90557Y358617D02*
G54D10*
D03*
X58807Y298292D02*
G54D10*
D03*
X135120Y201630D02*
G54D10*
D03*
X120280Y356826D02*
G54D10*
D03*
X183781Y356826D02*
G54D10*
D03*
X152030Y296501D02*
G54D10*
D03*
X183781Y356826D02*
G54D10*
D03*
X58807Y298292D02*
G54D10*
D03*
X255657Y358617D02*
G54D10*
D03*
X319157Y358617D02*
G54D10*
D03*
X287407Y298292D02*
G54D10*
D03*
X348880Y356826D02*
G54D10*
D03*
X412381Y356826D02*
G54D10*
D03*
X380630Y296501D02*
G54D10*
D03*
X380630Y296501D02*
G54D10*
D03*
X287407Y298292D02*
G54D10*
D03*
X700158Y460217D02*
G54D10*
D03*
X763658Y460217D02*
G54D10*
D03*
X731908Y399892D02*
G54D10*
D03*
X793380Y458426D02*
G54D10*
D03*
X856880Y458426D02*
G54D10*
D03*
X825130Y398101D02*
G54D10*
D03*
X856881Y458426D02*
G54D10*
D03*
X731908Y399892D02*
G54D10*
D03*
X-271065Y416869D02*
G54D21*
D03*
X173740Y488548D02*
G54D22*
D03*
X173740Y590148D02*
G54D22*
D03*
X174565Y396638D02*
G54D11*
D03*
X174453Y447619D02*
G54D11*
D03*
X173740Y488548D02*
G54D10*
D03*
X173740Y488548D02*
G54D21*
D03*
X174565Y396638D02*
G54D21*
D03*
X275340Y488548D02*
G54D22*
D03*
X275340Y590148D02*
G54D22*
D03*
X276165Y396638D02*
G54D11*
D03*
X276053Y447619D02*
G54D11*
D03*
X275340Y488548D02*
G54D10*
D03*
X275340Y488548D02*
G54D21*
D03*
X276165Y396638D02*
G54D21*
D03*
X186440Y158348D02*
G54D22*
D03*
X186440Y259948D02*
G54D22*
D03*
X187265Y66438D02*
G54D11*
D03*
X187153Y117418D02*
G54D11*
D03*
X186440Y158348D02*
G54D10*
D03*
X186440Y158348D02*
G54D21*
D03*
X187265Y66438D02*
G54D21*
D03*
X272442Y164285D02*
G54D22*
D03*
X272442Y265885D02*
G54D22*
D03*
X233897Y205725D02*
G54D11*
D03*
X233785Y256706D02*
G54D11*
D03*
X233897Y205725D02*
G54D21*
D03*
X272442Y164285D02*
G54D21*
D03*
X559249Y565846D02*
G54D22*
D03*
X457649Y565846D02*
G54D22*
D03*
X651159Y566671D02*
G54D11*
D03*
X600179Y566559D02*
G54D11*
D03*
X559249Y565846D02*
G54D10*
D03*
X559249Y565846D02*
G54D21*
D03*
X651159Y566671D02*
G54D21*
D03*
X1029149Y565846D02*
G54D22*
D03*
X927549Y565846D02*
G54D22*
D03*
X1121059Y566671D02*
G54D11*
D03*
X1070079Y566559D02*
G54D11*
D03*
X1029149Y565846D02*
G54D10*
D03*
X1029149Y565846D02*
G54D21*
D03*
X1121059Y566671D02*
G54D21*
D03*
X135120Y582630D02*
G54D10*
D03*
X147820Y239730D02*
G54D10*
D03*
X389120Y582630D02*
G54D10*
D03*
X389120Y239730D02*
G54D10*
D03*
X472055Y436815D02*
G54D10*
D03*
X929255Y443165D02*
G54D10*
D03*
X152030Y296501D02*
G54D10*
D03*
X825130Y398101D02*
G54D10*
D03*
G54D23*
X58920Y582630D02*
X58920Y585680D01*
X46220Y572980D01*
X-74430Y572980D01*
X-112530Y534880D01*
X-226830Y534880D01*
X-252230Y509480D01*
X-252230Y407880D01*
X-271280Y388830D01*
X-271065Y391469D01*
G54D23*
X312920Y582630D02*
X312920Y585680D01*
X287520Y560280D01*
X128770Y560280D01*
X90670Y598380D01*
X46220Y598380D01*
X27170Y579330D01*
X-80780Y579330D01*
X-118880Y541230D01*
X-233180Y541230D01*
X-239530Y534880D01*
X-277630Y534880D01*
X-290330Y522180D01*
X-290330Y388830D01*
X-271280Y369780D01*
X-271280Y363430D01*
X-271065Y366069D01*
G54D23*
X472055Y513016D02*
X471670Y515830D01*
X408170Y452330D01*
X408170Y445980D01*
X382770Y420580D01*
X376420Y420580D01*
X331970Y376130D01*
X312920Y376130D01*
X204970Y268180D01*
X204970Y255480D01*
X154170Y204680D01*
X154170Y191980D01*
X141470Y179280D01*
X58920Y179280D01*
X52570Y172930D01*
X-23630Y172930D01*
X-61730Y134830D01*
X-74430Y134830D01*
X-112530Y96730D01*
X-125230Y96730D01*
X-163330Y134830D01*
X-163330Y179280D01*
X-252230Y268180D01*
X-252230Y318980D01*
X-271280Y338030D01*
X-271065Y340669D01*
G54D23*
X389120Y61930D02*
X389120Y64980D01*
X408170Y84030D01*
X408170Y293580D01*
X420870Y306280D01*
X452620Y306280D01*
X458970Y299930D01*
X497070Y299930D01*
X522470Y274530D01*
X617720Y274530D01*
X620503Y277527D01*
G54D23*
X1107055Y443165D02*
X1106670Y445980D01*
X1081270Y420580D01*
X725670Y420580D01*
X617720Y312630D01*
X617720Y274530D01*
X620503Y277527D01*
G54D23*
X700158Y460217D02*
X700270Y458680D01*
X681220Y439630D01*
X649470Y439630D01*
X649855Y436815D01*
G54D23*
X856881Y458426D02*
X859020Y458680D01*
X839970Y439630D01*
X649470Y439630D01*
X649855Y436815D01*
G54D23*
X1070079Y566559D02*
X1068570Y566630D01*
X1049520Y585680D01*
X1017770Y585680D01*
X998720Y566630D01*
X928870Y566630D01*
X927549Y565846D01*
G54D23*
X927549Y565846D02*
X928870Y566630D01*
X928870Y522180D01*
X929254Y519365D01*
G54D23*
X255657Y358617D02*
X255770Y357080D01*
X274820Y376130D01*
X287520Y376130D01*
X300220Y388830D01*
X325620Y388830D01*
X370070Y433280D01*
X370070Y465030D01*
X395470Y490430D01*
X401820Y490430D01*
X439920Y528530D01*
X484370Y528530D01*
X490720Y522180D01*
X490720Y503130D01*
X408170Y420580D01*
X408170Y395180D01*
X363720Y350730D01*
X363720Y344380D01*
X331970Y312630D01*
X331970Y230080D01*
X312920Y211030D01*
X312920Y166580D01*
X312920Y163530D01*
G54D23*
X147820Y61930D02*
X147820Y64980D01*
X185920Y103080D01*
X198620Y103080D01*
X224020Y128480D01*
X268470Y128480D01*
X274820Y134830D01*
X281170Y134830D01*
X293870Y147530D01*
X325620Y147530D01*
X408170Y230080D01*
X408170Y293580D01*
X420870Y306280D01*
X452620Y306280D01*
X458970Y299930D01*
X497070Y299930D01*
X522470Y274530D01*
X617720Y274530D01*
X620503Y277527D01*
G54D23*
X669020Y271386D02*
X668520Y274530D01*
X617720Y274530D01*
X620503Y277527D01*
G54D23*
X808720Y265036D02*
X808220Y268180D01*
X852670Y268180D01*
X852670Y269830D01*
G54D23*
X187153Y117418D02*
X185920Y115780D01*
X147820Y77680D01*
X135120Y77680D01*
X128770Y71330D01*
X128770Y52280D01*
X204970Y-23920D01*
X306570Y-23920D01*
X408170Y-125520D01*
X408170Y-195370D01*
X420870Y-208070D01*
X420870Y-309670D01*
X433570Y-322370D01*
X446270Y-322370D01*
X497070Y-271570D01*
X592320Y-271570D01*
X635500Y-292400D01*
X800600Y-292400D01*
X859942Y-281395D01*
X889500Y-254300D01*
X903470Y-150920D01*
X885100Y66800D01*
X737100Y63200D01*
X725670Y90380D01*
X878070Y242780D01*
X1043170Y242780D01*
X1125720Y325330D01*
X1125720Y452330D01*
X1087620Y490430D01*
X1087620Y572980D01*
X1068570Y592030D01*
X1011420Y592030D01*
X1005070Y585680D01*
X547870Y585680D01*
X497070Y534880D01*
X433570Y534880D01*
X420870Y522180D01*
X376420Y522180D01*
X325620Y471380D01*
X300220Y471380D01*
X293870Y465030D01*
X293870Y439630D01*
X274820Y420580D01*
X268470Y420580D01*
X198620Y350730D01*
X198620Y344380D01*
X185920Y331680D01*
X185920Y261830D01*
X186440Y259948D01*
G54D23*
X793380Y458426D02*
X795520Y458680D01*
X814570Y477730D01*
X859020Y477730D01*
X871720Y465030D01*
X935220Y465030D01*
X954270Y445980D01*
X1005070Y445980D01*
X1005455Y443165D01*
G54D23*
X763658Y460217D02*
X763770Y458680D01*
X808220Y503130D01*
X941570Y503130D01*
X960620Y522180D01*
X1005070Y522180D01*
X1005455Y519366D01*
G54D23*
X-11091Y80882D02*
X-10930Y84030D01*
X-10930Y153880D01*
X-13841Y155614D01*
X-398280Y566630D02*
G54D10*
D03*
X-372880Y566630D02*
G54D10*
D03*
X-372880Y566630D02*
G54D10*
D03*
X-347480Y566630D02*
G54D10*
D03*
X-296680Y566630D02*
G54D10*
D03*
X-296680Y566630D02*
G54D10*
D03*
X-271280Y566630D02*
G54D10*
D03*
X-271280Y566630D02*
G54D10*
D03*
X-245880Y566630D02*
G54D10*
D03*
G54D23*
X-296680Y566630D02*
X-296680Y382480D01*
X-290330Y376130D01*
X-290330Y338030D01*
X-271280Y318980D01*
X-271280Y312630D01*
X-271065Y315269D01*
G54D23*
X-271280Y566630D02*
X-290330Y585680D01*
X-404630Y585680D01*
X-417330Y572980D01*
X-417330Y560280D01*
X-303030Y445980D01*
X-303030Y376130D01*
X-296680Y369780D01*
X-296680Y331680D01*
X-290330Y325330D01*
X-290330Y312630D01*
X-271280Y293580D01*
X-271280Y287230D01*
X-271065Y289869D01*
G54D23*
X-245880Y566630D02*
X-271280Y592030D01*
X-410980Y592030D01*
X-423680Y579330D01*
X-423680Y553930D01*
X-309380Y439630D01*
X-309380Y369780D01*
X-303030Y363430D01*
X-303030Y325330D01*
X-296680Y318980D01*
X-296680Y306280D01*
X-290330Y299930D01*
X-290330Y287230D01*
X-271280Y268180D01*
X-271280Y261830D01*
X-271065Y264469D01*
X-322080Y566630D02*
G54D10*
D03*
G54D23*
X276053Y447619D02*
X274820Y445980D01*
X287520Y458680D01*
X287520Y471380D01*
X293870Y477730D01*
X293870Y496780D01*
X274820Y515830D01*
X274820Y592030D01*
X275340Y590148D01*
G54D23*
X272442Y265885D02*
X274820Y268180D01*
X300220Y242780D01*
X312920Y242780D01*
X312920Y239730D01*
G54D23*
X233785Y256706D02*
X236720Y255480D01*
X249420Y268180D01*
X274820Y268180D01*
X272442Y265885D01*
X-418600Y-365550D02*
G54D24*
D03*
X-418600Y459950D02*
G54D24*
D03*
X1118100Y-365550D02*
G54D24*
D03*
X1092700Y371050D02*
G54D24*
D03*
G36*
X-426250Y267700D02*
X-398250Y267700D01*
X-398250Y239700D01*
X-426250Y239700D01*
X-426250Y267700D01*
G37*
G36*
X-427520Y64500D02*
X-399520Y64500D01*
X-399520Y36500D01*
X-427520Y36500D01*
X-427520Y64500D01*
G37*
G36*
X-432600Y-151400D02*
X-404600Y-151400D01*
X-404600Y-179400D01*
X-432600Y-179400D01*
X-432600Y-151400D01*
G37*
G36*
X-280200Y-354600D02*
X-252200Y-354600D01*
X-252200Y-382600D01*
X-280200Y-382600D01*
X-280200Y-354600D01*
G37*
G36*
X-800Y-354600D02*
X27200Y-354600D01*
X27200Y-382600D01*
X-800Y-382600D01*
X-800Y-354600D01*
G37*
G36*
X291300Y-354600D02*
X319300Y-354600D01*
X319300Y-382600D01*
X291300Y-382600D01*
X291300Y-354600D01*
G37*
G36*
X1022800Y-225600D02*
X1050800Y-225600D01*
X1050800Y-253600D01*
X1022800Y-253600D01*
X1022800Y-225600D01*
G37*
G36*
X-191300Y597900D02*
X-163300Y597900D01*
X-163300Y569900D01*
X-191300Y569900D01*
X-191300Y597900D01*
G37*
X-312930Y-50220D02*
G54D13*
D03*
X-262130Y-50220D02*
G54D13*
D03*
X-287530Y-75620D02*
G54D13*
D03*
X-262130Y-101020D02*
G54D13*
D03*
X-312930Y-101020D02*
G54D13*
D03*
X-312930Y-228020D02*
G54D25*
D03*
X-262130Y-228020D02*
G54D10*
D03*
X-262130Y-291520D02*
G54D10*
D03*
X-312930Y-291520D02*
G54D10*
D03*
X-262130Y-228020D02*
G54D25*
D03*
X-312930Y-291520D02*
G54D25*
D03*
X-262130Y-291520D02*
G54D25*
D03*
X-312930Y-151820D02*
G54D10*
D03*
X-344497Y308527D02*
G54D11*
D03*
X-344547Y232277D02*
G54D11*
D03*
X-347000Y192000D02*
G54D10*
D03*
X-346000Y119000D02*
G54D10*
D03*
G54D23*
X-347000Y192000D02*
X-348000Y188000D01*
X-348000Y236000D01*
X-344547Y232277D01*
X-346000Y119000D02*
G54D10*
D03*
G54D23*
X-344497Y308527D02*
X-348000Y308000D01*
X-276000Y236000D01*
X-268000Y236000D01*
X-271065Y239069D01*
X503Y521527D02*
G54D11*
D03*
X453Y445277D02*
G54D11*
D03*
X-28000Y523000D02*
G54D10*
D03*
X-27000Y450000D02*
G54D10*
D03*
G54D15*
X-28000Y523000D02*
X-28000Y524000D01*
X20000Y572000D01*
X36000Y572000D01*
X44000Y580000D01*
X60000Y580000D01*
X58920Y582630D01*
G54D15*
X-27000Y450000D02*
X-28000Y452000D01*
X4000Y484000D01*
X4000Y524000D01*
X503Y521527D01*
X903159Y372282D02*
G54D11*
D03*
X979409Y372232D02*
G54D11*
D03*
X901686Y343779D02*
G54D10*
D03*
X974686Y344779D02*
G54D10*
D03*
X241503Y535527D02*
G54D11*
D03*
X241453Y459277D02*
G54D11*
D03*
X213000Y537000D02*
G54D10*
D03*
X214000Y464000D02*
G54D10*
D03*
G54D15*
X213000Y537000D02*
X212000Y540000D01*
X252000Y580000D01*
X316000Y580000D01*
X312920Y582630D01*
G54D15*
X213000Y537000D02*
X212000Y540000D01*
X220000Y532000D01*
X244000Y532000D01*
X241503Y535527D01*
X-140058Y586605D02*
G54D26*
D03*
X17942Y593605D02*
G54D26*
D03*
X244942Y592605D02*
G54D26*
D03*
X434942Y548605D02*
G54D26*
D03*
G54D27*
X17942Y593605D02*
X16942Y591605D01*
X12942Y587605D01*
X-139058Y587605D01*
X-140058Y586605D01*
G54D27*
X244942Y592605D02*
X244942Y591605D01*
X232942Y603605D01*
X40942Y603605D01*
X28942Y591605D01*
X16942Y591605D01*
X17942Y593605D01*
G54D27*
X434942Y548605D02*
X436942Y547605D01*
X408942Y575605D01*
X408942Y587605D01*
X392942Y603605D01*
X268942Y603605D01*
X256942Y591605D01*
X244942Y591605D01*
X244942Y592605D01*
X479787Y270217D02*
G54D11*
D03*
X479674Y321197D02*
G54D11*
D03*
X479674Y321197D02*
G54D10*
D03*
G54D14*
X-312930Y-151820D02*
X-312058Y-151395D01*
X-288058Y-127395D01*
X303942Y-127395D01*
X300220Y-128570D01*
X-229058Y417605D02*
G54D10*
D03*
G54D14*
X-287530Y-75620D02*
X-288058Y-79395D01*
X-288058Y-39395D01*
X-272058Y-23395D01*
X-256058Y-23395D01*
X-240058Y-39395D01*
X303942Y-39395D01*
X300220Y-39670D01*
X960942Y-2395D02*
G54D26*
D03*
X1038942Y-159395D02*
G54D26*
D03*
X865942Y-10395D02*
G54D26*
D03*
X865942Y-199395D02*
G54D26*
D03*
G54D14*
X960942Y-2395D02*
X959942Y605D01*
X959942Y-47395D01*
X960620Y-46070D01*
G54D14*
X865942Y-10395D02*
X863942Y-7395D01*
X863942Y-47395D01*
X865520Y-49070D01*
G54D14*
X865942Y-199395D02*
X863942Y-199395D01*
X863942Y-159395D01*
X864020Y-159670D01*
X854942Y299605D02*
G54D26*
D03*
G54D14*
X854942Y299605D02*
X855942Y296605D01*
X855942Y272605D01*
X852670Y269830D01*
X-229058Y-5395D02*
G54D26*
D03*
X-243058Y-334395D02*
G54D26*
D03*
X-241058Y-177395D02*
G54D26*
D03*
G54D14*
X-229058Y-5395D02*
X-232058Y-7395D01*
X-248058Y-23395D01*
X-272058Y-23395D01*
X-288058Y-39395D01*
X-288058Y-79395D01*
X-287530Y-75620D01*
X1135942Y35605D02*
G54D10*
D03*
X1135942Y9605D02*
G54D10*
D03*
X1135942Y-16395D02*
G54D10*
D03*
X1135942Y-43395D02*
G54D10*
D03*
X1135942Y-70395D02*
G54D10*
D03*
X1136942Y-95395D02*
G54D10*
D03*
X1137942Y-119395D02*
G54D10*
D03*
X1138942Y-145395D02*
G54D10*
D03*
X1139442Y-170395D02*
G54D10*
D03*
X1038942Y-5395D02*
G54D10*
D03*
X997942Y-6395D02*
G54D10*
D03*
G54D14*
X1038942Y-159395D02*
X1039942Y-159395D01*
X1039942Y-79395D01*
X1040970Y-82320D01*
G54D14*
X997942Y-6395D02*
X999942Y-7395D01*
X1039942Y-47395D01*
X1039942Y-79395D01*
X1040970Y-82320D01*
G54D14*
X1038942Y-5395D02*
X1039942Y-7395D01*
X1079942Y32605D01*
X1135942Y32605D01*
X1135942Y35605D01*
G54D14*
X1038942Y-5395D02*
X1039942Y-7395D01*
X1055942Y8605D01*
X1135942Y8605D01*
X1135942Y9605D01*
G54D14*
X1038942Y-5395D02*
X1039942Y-7395D01*
X1047942Y-15395D01*
X1135942Y-15395D01*
X1135942Y-16395D01*
G54D14*
X1038942Y-5395D02*
X1039942Y-7395D01*
X1063942Y-31395D01*
X1071942Y-31395D01*
X1079942Y-39395D01*
X1087942Y-39395D01*
X1095942Y-47395D01*
X1135942Y-47395D01*
X1135942Y-43395D01*
G54D14*
X1038942Y-5395D02*
X1039942Y-7395D01*
X1063942Y-31395D01*
X1071942Y-31395D01*
X1079942Y-39395D01*
X1087942Y-39395D01*
X1119942Y-71395D01*
X1135942Y-71395D01*
X1135942Y-70395D01*
G54D14*
X1038942Y-5395D02*
X1039942Y-7395D01*
X1063942Y-31395D01*
X1071942Y-31395D01*
X1079942Y-39395D01*
X1087942Y-39395D01*
X1135942Y-87395D01*
X1135942Y-95395D01*
X1136942Y-95395D01*
G54D14*
X1038942Y-5395D02*
X1039942Y-7395D01*
X1063942Y-31395D01*
X1071942Y-31395D01*
X1079942Y-39395D01*
X1087942Y-39395D01*
X1135942Y-87395D01*
X1135942Y-119395D01*
X1137942Y-119395D01*
G54D14*
X1038942Y-5395D02*
X1039942Y-7395D01*
X1063942Y-31395D01*
X1071942Y-31395D01*
X1079942Y-39395D01*
X1087942Y-39395D01*
X1135942Y-87395D01*
X1135942Y-143395D01*
X1138942Y-145395D01*
G54D14*
X1038942Y-5395D02*
X1039942Y-7395D01*
X1063942Y-31395D01*
X1071942Y-31395D01*
X1079942Y-39395D01*
X1087942Y-39395D01*
X1135942Y-87395D01*
X1135942Y-167395D01*
X1139442Y-170395D01*
G54D14*
X1040970Y-82320D02*
X1039942Y-79395D01*
X1039942Y-47395D01*
X1023942Y-31395D01*
X1007942Y-31395D01*
X991942Y-47395D01*
X959942Y-47395D01*
X960620Y-46070D01*
%LPD*%
G54D28*
G36*
X1010446Y260552D02*
X1010446Y277052D01*
X1017112Y277052D01*
X1017112Y260552D01*
X1010446Y260552D01*
G37*
G54D29*
G54D28*
G36*
X1099346Y260552D02*
X1099346Y277052D01*
X1106012Y277052D01*
X1106012Y260552D01*
X1099346Y260552D01*
G37*
G54D29*
G54D30*
G36*
X874237Y269830D02*
X874237Y284330D01*
X881903Y284330D01*
X881903Y269830D01*
X874237Y269830D01*
G37*
G36*
X878070Y273663D02*
X892570Y273663D01*
X892570Y265997D01*
X878070Y265997D01*
X878070Y273663D01*
G37*
G36*
X881903Y269830D02*
X881903Y255330D01*
X874237Y255330D01*
X874237Y269830D01*
X881903Y269830D01*
G37*
G36*
X878070Y265997D02*
X863570Y265997D01*
X863570Y273663D01*
X878070Y273663D01*
X878070Y265997D01*
G37*
G54D30*
G36*
X805000Y214055D02*
X805000Y228555D01*
X812666Y228555D01*
X812666Y214055D01*
X805000Y214055D01*
G37*
G36*
X808833Y217888D02*
X823333Y217888D01*
X823333Y210222D01*
X808833Y210222D01*
X808833Y217888D01*
G37*
G36*
X812666Y214055D02*
X812666Y199555D01*
X805000Y199555D01*
X805000Y214055D01*
X812666Y214055D01*
G37*
G36*
X808833Y210222D02*
X794333Y210222D01*
X794333Y217888D01*
X808833Y217888D01*
X808833Y210222D01*
G37*
G54D30*
G36*
X759937Y206330D02*
X759937Y220830D01*
X767603Y220830D01*
X767603Y206330D01*
X759937Y206330D01*
G37*
G36*
X763770Y210163D02*
X778270Y210163D01*
X778270Y202497D01*
X763770Y202497D01*
X763770Y210163D01*
G37*
G36*
X767603Y206330D02*
X767603Y191830D01*
X759937Y191830D01*
X759937Y206330D01*
X767603Y206330D01*
G37*
G36*
X763770Y202497D02*
X749270Y202497D01*
X749270Y210163D01*
X763770Y210163D01*
X763770Y202497D01*
G37*
G54D30*
G36*
X665300Y220405D02*
X665300Y234905D01*
X672966Y234905D01*
X672966Y220405D01*
X665300Y220405D01*
G37*
G36*
X669133Y224238D02*
X683633Y224238D01*
X683633Y216572D01*
X669133Y216572D01*
X669133Y224238D01*
G37*
G36*
X672966Y220405D02*
X672966Y205905D01*
X665300Y205905D01*
X665300Y220405D01*
X672966Y220405D01*
G37*
G36*
X669133Y216572D02*
X654633Y216572D01*
X654633Y224238D01*
X669133Y224238D01*
X669133Y216572D01*
G37*
G54D30*
G36*
X959787Y-165670D02*
X959787Y-151170D01*
X967453Y-151170D01*
X967453Y-165670D01*
X959787Y-165670D01*
G37*
G36*
X963620Y-161837D02*
X978120Y-161837D01*
X978120Y-169503D01*
X963620Y-169503D01*
X963620Y-161837D01*
G37*
G36*
X967453Y-165670D02*
X967453Y-180170D01*
X959787Y-180170D01*
X959787Y-165670D01*
X967453Y-165670D01*
G37*
G36*
X963620Y-169503D02*
X949120Y-169503D01*
X949120Y-161837D01*
X963620Y-161837D01*
X963620Y-169503D01*
G37*
G54D30*
G36*
X852187Y112730D02*
X852187Y127230D01*
X859853Y127230D01*
X859853Y112730D01*
X852187Y112730D01*
G37*
G36*
X856020Y116563D02*
X870520Y116563D01*
X870520Y108897D01*
X856020Y108897D01*
X856020Y116563D01*
G37*
G36*
X859853Y112730D02*
X859853Y98230D01*
X852187Y98230D01*
X852187Y112730D01*
X859853Y112730D01*
G37*
G36*
X856020Y108897D02*
X841520Y108897D01*
X841520Y116563D01*
X856020Y116563D01*
X856020Y108897D01*
G37*
G54D30*
G36*
X911280Y77935D02*
X911280Y92435D01*
X918946Y92435D01*
X918946Y77935D01*
X911280Y77935D01*
G37*
G36*
X915113Y81768D02*
X929613Y81768D01*
X929613Y74102D01*
X915113Y74102D01*
X915113Y81768D01*
G37*
G36*
X918946Y77935D02*
X918946Y63435D01*
X911280Y63435D01*
X911280Y77935D01*
X918946Y77935D01*
G37*
G36*
X915113Y74102D02*
X900613Y74102D01*
X900613Y81768D01*
X915113Y81768D01*
X915113Y74102D01*
G37*
G54D30*
G36*
X864887Y-331770D02*
X864887Y-317270D01*
X872553Y-317270D01*
X872553Y-331770D01*
X864887Y-331770D01*
G37*
G36*
X868720Y-327937D02*
X883220Y-327937D01*
X883220Y-335603D01*
X868720Y-335603D01*
X868720Y-327937D01*
G37*
G36*
X872553Y-331770D02*
X872553Y-346270D01*
X864887Y-346270D01*
X864887Y-331770D01*
X872553Y-331770D01*
G37*
G36*
X868720Y-335603D02*
X854220Y-335603D01*
X854220Y-327937D01*
X868720Y-327937D01*
X868720Y-335603D01*
G37*
G54D30*
G36*
X436087Y-84120D02*
X436087Y-69620D01*
X443753Y-69620D01*
X443753Y-84120D01*
X436087Y-84120D01*
G37*
G36*
X439920Y-80287D02*
X454420Y-80287D01*
X454420Y-87953D01*
X439920Y-87953D01*
X439920Y-80287D01*
G37*
G36*
X443753Y-84120D02*
X443753Y-98620D01*
X436087Y-98620D01*
X436087Y-84120D01*
X443753Y-84120D01*
G37*
G36*
X439920Y-87953D02*
X425420Y-87953D01*
X425420Y-80287D01*
X439920Y-80287D01*
X439920Y-87953D01*
G37*
G54D31*
G36*
X1011903Y-56920D02*
X1011903Y-41420D01*
X1019237Y-41420D01*
X1019237Y-56920D01*
X1011903Y-56920D01*
G37*
G36*
X1015570Y-53253D02*
X1031070Y-53253D01*
X1031070Y-60587D01*
X1015570Y-60587D01*
X1015570Y-53253D01*
G37*
G36*
X1019237Y-56920D02*
X1019237Y-72420D01*
X1011903Y-72420D01*
X1011903Y-56920D01*
X1019237Y-56920D01*
G37*
G36*
X1015570Y-60587D02*
X1000070Y-60587D01*
X1000070Y-53253D01*
X1015570Y-53253D01*
X1015570Y-60587D01*
G37*
G54D31*
G36*
X1062703Y-56920D02*
X1062703Y-41420D01*
X1070037Y-41420D01*
X1070037Y-56920D01*
X1062703Y-56920D01*
G37*
G36*
X1066370Y-53253D02*
X1081870Y-53253D01*
X1081870Y-60587D01*
X1066370Y-60587D01*
X1066370Y-53253D01*
G37*
G36*
X1070037Y-56920D02*
X1070037Y-72420D01*
X1062703Y-72420D01*
X1062703Y-56920D01*
X1070037Y-56920D01*
G37*
G36*
X1066370Y-60587D02*
X1050870Y-60587D01*
X1050870Y-53253D01*
X1066370Y-53253D01*
X1066370Y-60587D01*
G37*
G54D31*
G36*
X1062703Y-107720D02*
X1062703Y-92220D01*
X1070037Y-92220D01*
X1070037Y-107720D01*
X1062703Y-107720D01*
G37*
G36*
X1066370Y-104053D02*
X1081870Y-104053D01*
X1081870Y-111387D01*
X1066370Y-111387D01*
X1066370Y-104053D01*
G37*
G36*
X1070037Y-107720D02*
X1070037Y-123220D01*
X1062703Y-123220D01*
X1062703Y-107720D01*
X1070037Y-107720D01*
G37*
G36*
X1066370Y-111387D02*
X1050870Y-111387D01*
X1050870Y-104053D01*
X1066370Y-104053D01*
X1066370Y-111387D01*
G37*
G54D31*
G36*
X1011903Y-107720D02*
X1011903Y-92220D01*
X1019237Y-92220D01*
X1019237Y-107720D01*
X1011903Y-107720D01*
G37*
G36*
X1015570Y-104053D02*
X1031070Y-104053D01*
X1031070Y-111387D01*
X1015570Y-111387D01*
X1015570Y-104053D01*
G37*
G36*
X1019237Y-107720D02*
X1019237Y-123220D01*
X1011903Y-123220D01*
X1011903Y-107720D01*
X1019237Y-107720D01*
G37*
G36*
X1015570Y-111387D02*
X1000070Y-111387D01*
X1000070Y-104053D01*
X1015570Y-104053D01*
X1015570Y-111387D01*
G37*
G54D30*
G36*
X296387Y-84120D02*
X296387Y-69620D01*
X304053Y-69620D01*
X304053Y-84120D01*
X296387Y-84120D01*
G37*
G36*
X300220Y-80287D02*
X314720Y-80287D01*
X314720Y-87953D01*
X300220Y-87953D01*
X300220Y-80287D01*
G37*
G36*
X304053Y-84120D02*
X304053Y-98620D01*
X296387Y-98620D01*
X296387Y-84120D01*
X304053Y-84120D01*
G37*
G36*
X300220Y-87953D02*
X285720Y-87953D01*
X285720Y-80287D01*
X300220Y-80287D01*
X300220Y-87953D01*
G37*
G54D32*
G36*
X800266Y214055D02*
X800266Y228555D01*
X817400Y228555D01*
X817400Y214055D01*
X800266Y214055D01*
G37*
G36*
X808833Y222622D02*
X823333Y222622D01*
X823333Y205488D01*
X808833Y205488D01*
X808833Y222622D01*
G37*
G36*
X817400Y214055D02*
X817400Y199555D01*
X800266Y199555D01*
X800266Y214055D01*
X817400Y214055D01*
G37*
G36*
X808833Y205488D02*
X794333Y205488D01*
X794333Y222622D01*
X808833Y222622D01*
X808833Y205488D01*
G37*
G54D32*
G36*
X660566Y220405D02*
X660566Y234905D01*
X677700Y234905D01*
X677700Y220405D01*
X660566Y220405D01*
G37*
G36*
X669133Y228972D02*
X683633Y228972D01*
X683633Y211838D01*
X669133Y211838D01*
X669133Y228972D01*
G37*
G36*
X677700Y220405D02*
X677700Y205905D01*
X660566Y205905D01*
X660566Y220405D01*
X677700Y220405D01*
G37*
G36*
X669133Y211838D02*
X654633Y211838D01*
X654633Y228972D01*
X669133Y228972D01*
X669133Y211838D01*
G37*
G54D32*
G36*
X906546Y77935D02*
X906546Y92435D01*
X923680Y92435D01*
X923680Y77935D01*
X906546Y77935D01*
G37*
G36*
X915113Y86502D02*
X929613Y86502D01*
X929613Y69368D01*
X915113Y69368D01*
X915113Y86502D01*
G37*
G36*
X923680Y77935D02*
X923680Y63435D01*
X906546Y63435D01*
X906546Y77935D01*
X923680Y77935D01*
G37*
G36*
X915113Y69368D02*
X900613Y69368D01*
X900613Y86502D01*
X915113Y86502D01*
X915113Y69368D01*
G37*
G54D32*
G36*
X919246Y-379265D02*
X919246Y-364765D01*
X936380Y-364765D01*
X936380Y-379265D01*
X919246Y-379265D01*
G37*
G36*
X927813Y-370698D02*
X942313Y-370698D01*
X942313Y-387832D01*
X927813Y-387832D01*
X927813Y-370698D01*
G37*
G36*
X936380Y-379265D02*
X936380Y-393765D01*
X919246Y-393765D01*
X919246Y-379265D01*
X936380Y-379265D01*
G37*
G36*
X927813Y-387832D02*
X913313Y-387832D01*
X913313Y-370698D01*
X927813Y-370698D01*
X927813Y-387832D01*
G37*
G54D28*
G36*
X569937Y-233470D02*
X569937Y-218970D01*
X576603Y-218970D01*
X576603Y-233470D01*
X569937Y-233470D01*
G37*
G36*
X573270Y-230137D02*
X587770Y-230137D01*
X587770Y-236803D01*
X573270Y-236803D01*
X573270Y-230137D01*
G37*
G36*
X576603Y-233470D02*
X576603Y-247970D01*
X569937Y-247970D01*
X569937Y-233470D01*
X576603Y-233470D01*
G37*
G36*
X573270Y-236803D02*
X558770Y-236803D01*
X558770Y-230137D01*
X573270Y-230137D01*
X573270Y-236803D01*
G37*
G54D28*
G36*
X569937Y-49320D02*
X569937Y-34820D01*
X576603Y-34820D01*
X576603Y-49320D01*
X569937Y-49320D01*
G37*
G36*
X573270Y-45987D02*
X587770Y-45987D01*
X587770Y-52653D01*
X573270Y-52653D01*
X573270Y-45987D01*
G37*
G36*
X576603Y-49320D02*
X576603Y-63820D01*
X569937Y-63820D01*
X569937Y-49320D01*
X576603Y-49320D01*
G37*
G36*
X573270Y-52653D02*
X558770Y-52653D01*
X558770Y-45987D01*
X573270Y-45987D01*
X573270Y-52653D01*
G37*
G54D28*
G36*
X-63391Y559957D02*
X-46891Y559957D01*
X-46891Y553291D01*
X-63391Y553291D01*
X-63391Y559957D01*
G37*
G54D29*
G54D33*
G36*
X-62096Y278053D02*
X-47596Y278053D01*
X-47596Y264453D01*
X-62096Y264453D01*
X-62096Y278053D01*
G37*
G36*
X-55296Y271253D02*
X-55296Y256753D01*
X-68896Y256753D01*
X-68896Y271253D01*
X-55296Y271253D01*
G37*
G36*
X-62096Y264453D02*
X-76596Y264453D01*
X-76596Y278053D01*
X-62096Y278053D01*
X-62096Y264453D01*
G37*
G36*
X-68896Y271253D02*
X-68896Y285753D01*
X-55296Y285753D01*
X-55296Y271253D01*
X-68896Y271253D01*
G37*
G54D34*
G36*
X-13953Y214527D02*
X547Y214527D01*
X547Y198661D01*
X-13953Y198661D01*
X-13953Y214527D01*
G37*
G36*
X-6020Y206594D02*
X-6020Y192094D01*
X-21887Y192094D01*
X-21887Y206594D01*
X-6020Y206594D01*
G37*
G36*
X-13953Y198661D02*
X-28453Y198661D01*
X-28453Y214527D01*
X-13953Y214527D01*
X-13953Y198661D01*
G37*
G36*
X-21887Y206594D02*
X-21887Y221094D01*
X-6020Y221094D01*
X-6020Y206594D01*
X-21887Y206594D01*
G37*
G54D35*
G36*
X-62071Y88903D02*
X-47571Y88903D01*
X-47571Y72637D01*
X-62071Y72637D01*
X-62071Y88903D01*
G37*
G36*
X-53938Y80770D02*
X-53938Y66270D01*
X-70205Y66270D01*
X-70205Y80770D01*
X-53938Y80770D01*
G37*
G36*
X-62071Y72637D02*
X-76571Y72637D01*
X-76571Y88903D01*
X-62071Y88903D01*
X-62071Y72637D01*
G37*
G36*
X-70205Y80770D02*
X-70205Y95270D01*
X-53938Y95270D01*
X-53938Y80770D01*
X-70205Y80770D01*
G37*
G54D36*
G36*
X-271065Y420802D02*
X-256565Y420802D01*
X-256565Y412936D01*
X-271065Y412936D01*
X-271065Y420802D01*
G37*
G36*
X-267132Y416869D02*
X-267132Y402369D01*
X-274998Y402369D01*
X-274998Y416869D01*
X-267132Y416869D01*
G37*
G36*
X-271065Y412936D02*
X-285565Y412936D01*
X-285565Y420802D01*
X-271065Y420802D01*
X-271065Y412936D01*
G37*
G36*
X-274998Y416869D02*
X-274998Y431369D01*
X-267132Y431369D01*
X-267132Y416869D01*
X-274998Y416869D01*
G37*
G54D36*
G36*
X-118665Y471602D02*
X-104165Y471602D01*
X-104165Y463736D01*
X-118665Y463736D01*
X-118665Y471602D01*
G37*
G36*
X-114732Y467669D02*
X-114732Y453169D01*
X-122598Y453169D01*
X-122598Y467669D01*
X-114732Y467669D01*
G37*
G36*
X-118665Y463736D02*
X-133165Y463736D01*
X-133165Y471602D01*
X-118665Y471602D01*
X-118665Y463736D01*
G37*
G36*
X-122598Y467669D02*
X-122598Y482169D01*
X-114732Y482169D01*
X-114732Y467669D01*
X-122598Y467669D01*
G37*
G54D28*
G36*
X58807Y294959D02*
X44307Y294959D01*
X44307Y301626D01*
X58807Y301626D01*
X58807Y294959D01*
G37*
G36*
X55474Y298292D02*
X55474Y312792D01*
X62141Y312792D01*
X62141Y298292D01*
X55474Y298292D01*
G37*
G36*
X58807Y301626D02*
X73307Y301626D01*
X73307Y294959D01*
X58807Y294959D01*
X58807Y301626D01*
G37*
G36*
X62141Y298292D02*
X62141Y283792D01*
X55474Y283792D01*
X55474Y298292D01*
X62141Y298292D01*
G37*
G54D30*
G36*
X131286Y201630D02*
X131286Y216130D01*
X138953Y216130D01*
X138953Y201630D01*
X131286Y201630D01*
G37*
G36*
X135120Y205463D02*
X149620Y205463D01*
X149620Y197796D01*
X135120Y197796D01*
X135120Y205463D01*
G37*
G36*
X138953Y201630D02*
X138953Y187130D01*
X131286Y187130D01*
X131286Y201630D01*
X138953Y201630D01*
G37*
G36*
X135120Y197796D02*
X120620Y197796D01*
X120620Y205463D01*
X135120Y205463D01*
X135120Y197796D01*
G37*
G54D30*
G36*
X54974Y298292D02*
X54974Y312792D01*
X62641Y312792D01*
X62641Y298292D01*
X54974Y298292D01*
G37*
G36*
X58807Y302126D02*
X73307Y302126D01*
X73307Y294459D01*
X58807Y294459D01*
X58807Y302126D01*
G37*
G36*
X62641Y298292D02*
X62641Y283792D01*
X54974Y283792D01*
X54974Y298292D01*
X62641Y298292D01*
G37*
G36*
X58807Y294459D02*
X44307Y294459D01*
X44307Y302126D01*
X58807Y302126D01*
X58807Y294459D01*
G37*
G54D30*
G36*
X380630Y292668D02*
X366130Y292668D01*
X366130Y300334D01*
X380630Y300334D01*
X380630Y292668D01*
G37*
G36*
X376797Y296501D02*
X376797Y311001D01*
X384464Y311001D01*
X384464Y296501D01*
X376797Y296501D01*
G37*
G36*
X380630Y300334D02*
X395130Y300334D01*
X395130Y292668D01*
X380630Y292668D01*
X380630Y300334D01*
G37*
G36*
X384464Y296501D02*
X384464Y282001D01*
X376797Y282001D01*
X376797Y296501D01*
X384464Y296501D01*
G37*
G54D30*
G36*
X283574Y298292D02*
X283574Y312792D01*
X291241Y312792D01*
X291241Y298292D01*
X283574Y298292D01*
G37*
G36*
X287407Y302126D02*
X301907Y302126D01*
X301907Y294459D01*
X287407Y294459D01*
X287407Y302126D01*
G37*
G36*
X291241Y298292D02*
X291241Y283792D01*
X283574Y283792D01*
X283574Y298292D01*
X291241Y298292D01*
G37*
G36*
X287407Y294459D02*
X272907Y294459D01*
X272907Y302126D01*
X287407Y302126D01*
X287407Y294459D01*
G37*
G54D28*
G36*
X731908Y396559D02*
X717408Y396559D01*
X717408Y403226D01*
X731908Y403226D01*
X731908Y396559D01*
G37*
G36*
X728574Y399892D02*
X728574Y414392D01*
X735241Y414392D01*
X735241Y399892D01*
X728574Y399892D01*
G37*
G36*
X731908Y403226D02*
X746408Y403226D01*
X746408Y396559D01*
X731908Y396559D01*
X731908Y403226D01*
G37*
G36*
X735241Y399892D02*
X735241Y385392D01*
X728574Y385392D01*
X728574Y399892D01*
X735241Y399892D01*
G37*
G54D30*
G36*
X728074Y399892D02*
X728074Y414392D01*
X735741Y414392D01*
X735741Y399892D01*
X728074Y399892D01*
G37*
G36*
X731908Y403726D02*
X746408Y403726D01*
X746408Y396059D01*
X731908Y396059D01*
X731908Y403726D01*
G37*
G36*
X735741Y399892D02*
X735741Y385392D01*
X728074Y385392D01*
X728074Y399892D01*
X735741Y399892D01*
G37*
G36*
X731908Y396059D02*
X717408Y396059D01*
X717408Y403726D01*
X731908Y403726D01*
X731908Y396059D01*
G37*
G54D37*
G36*
X-271065Y424102D02*
X-256565Y424102D01*
X-256565Y409636D01*
X-271065Y409636D01*
X-271065Y424102D01*
G37*
G36*
X-263832Y416869D02*
X-263832Y402369D01*
X-278298Y402369D01*
X-278298Y416869D01*
X-263832Y416869D01*
G37*
G36*
X-271065Y409636D02*
X-285565Y409636D01*
X-285565Y424102D01*
X-271065Y424102D01*
X-271065Y409636D01*
G37*
G36*
X-278298Y416869D02*
X-278298Y431369D01*
X-263832Y431369D01*
X-263832Y416869D01*
X-278298Y416869D01*
G37*
G54D37*
G36*
X173740Y495781D02*
X188240Y495781D01*
X188240Y481315D01*
X173740Y481315D01*
X173740Y495781D01*
G37*
G36*
X180973Y488548D02*
X180973Y474048D01*
X166506Y474048D01*
X166506Y488548D01*
X180973Y488548D01*
G37*
G36*
X173740Y481315D02*
X159240Y481315D01*
X159240Y495781D01*
X173740Y495781D01*
X173740Y481315D01*
G37*
G36*
X166506Y488548D02*
X166506Y503048D01*
X180973Y503048D01*
X180973Y488548D01*
X166506Y488548D01*
G37*
G54D37*
G36*
X174565Y403871D02*
X189065Y403871D01*
X189065Y389405D01*
X174565Y389405D01*
X174565Y403871D01*
G37*
G36*
X181798Y396638D02*
X181798Y382138D01*
X167332Y382138D01*
X167332Y396638D01*
X181798Y396638D01*
G37*
G36*
X174565Y389405D02*
X160065Y389405D01*
X160065Y403871D01*
X174565Y403871D01*
X174565Y389405D01*
G37*
G36*
X167332Y396638D02*
X167332Y411138D01*
X181798Y411138D01*
X181798Y396638D01*
X167332Y396638D01*
G37*
G54D37*
G36*
X275340Y495781D02*
X289840Y495781D01*
X289840Y481315D01*
X275340Y481315D01*
X275340Y495781D01*
G37*
G36*
X282573Y488548D02*
X282573Y474048D01*
X268106Y474048D01*
X268106Y488548D01*
X282573Y488548D01*
G37*
G36*
X275340Y481315D02*
X260840Y481315D01*
X260840Y495781D01*
X275340Y495781D01*
X275340Y481315D01*
G37*
G36*
X268106Y488548D02*
X268106Y503048D01*
X282573Y503048D01*
X282573Y488548D01*
X268106Y488548D01*
G37*
G54D37*
G36*
X276165Y403871D02*
X290665Y403871D01*
X290665Y389405D01*
X276165Y389405D01*
X276165Y403871D01*
G37*
G36*
X283398Y396638D02*
X283398Y382138D01*
X268932Y382138D01*
X268932Y396638D01*
X283398Y396638D01*
G37*
G36*
X276165Y389405D02*
X261665Y389405D01*
X261665Y403871D01*
X276165Y403871D01*
X276165Y389405D01*
G37*
G36*
X268932Y396638D02*
X268932Y411138D01*
X283398Y411138D01*
X283398Y396638D01*
X268932Y396638D01*
G37*
G54D37*
G36*
X186440Y165581D02*
X200940Y165581D01*
X200940Y151115D01*
X186440Y151115D01*
X186440Y165581D01*
G37*
G36*
X193673Y158348D02*
X193673Y143848D01*
X179206Y143848D01*
X179206Y158348D01*
X193673Y158348D01*
G37*
G36*
X186440Y151115D02*
X171940Y151115D01*
X171940Y165581D01*
X186440Y165581D01*
X186440Y151115D01*
G37*
G36*
X179206Y158348D02*
X179206Y172848D01*
X193673Y172848D01*
X193673Y158348D01*
X179206Y158348D01*
G37*
G54D37*
G36*
X187265Y73671D02*
X201765Y73671D01*
X201765Y59205D01*
X187265Y59205D01*
X187265Y73671D01*
G37*
G36*
X194498Y66438D02*
X194498Y51938D01*
X180032Y51938D01*
X180032Y66438D01*
X194498Y66438D01*
G37*
G36*
X187265Y59205D02*
X172765Y59205D01*
X172765Y73671D01*
X187265Y73671D01*
X187265Y59205D01*
G37*
G36*
X180032Y66438D02*
X180032Y80938D01*
X194498Y80938D01*
X194498Y66438D01*
X180032Y66438D01*
G37*
G54D37*
G36*
X233897Y212959D02*
X248397Y212959D01*
X248397Y198492D01*
X233897Y198492D01*
X233897Y212959D01*
G37*
G36*
X241130Y205725D02*
X241130Y191225D01*
X226664Y191225D01*
X226664Y205725D01*
X241130Y205725D01*
G37*
G36*
X233897Y198492D02*
X219397Y198492D01*
X219397Y212959D01*
X233897Y212959D01*
X233897Y198492D01*
G37*
G36*
X226664Y205725D02*
X226664Y220225D01*
X241130Y220225D01*
X241130Y205725D01*
X226664Y205725D01*
G37*
G54D37*
G36*
X272442Y171519D02*
X286942Y171519D01*
X286942Y157052D01*
X272442Y157052D01*
X272442Y171519D01*
G37*
G36*
X279675Y164285D02*
X279675Y149785D01*
X265208Y149785D01*
X265208Y164285D01*
X279675Y164285D01*
G37*
G36*
X272442Y157052D02*
X257942Y157052D01*
X257942Y171519D01*
X272442Y171519D01*
X272442Y157052D01*
G37*
G36*
X265208Y164285D02*
X265208Y178785D01*
X279675Y178785D01*
X279675Y164285D01*
X265208Y164285D01*
G37*
G54D37*
G36*
X552016Y565846D02*
X552016Y580346D01*
X566482Y580346D01*
X566482Y565846D01*
X552016Y565846D01*
G37*
G36*
X559249Y573079D02*
X573749Y573079D01*
X573749Y558613D01*
X559249Y558613D01*
X559249Y573079D01*
G37*
G36*
X566482Y565846D02*
X566482Y551346D01*
X552016Y551346D01*
X552016Y565846D01*
X566482Y565846D01*
G37*
G36*
X559249Y558613D02*
X544749Y558613D01*
X544749Y573079D01*
X559249Y573079D01*
X559249Y558613D01*
G37*
G54D37*
G36*
X643926Y566671D02*
X643926Y581171D01*
X658392Y581171D01*
X658392Y566671D01*
X643926Y566671D01*
G37*
G36*
X651159Y573904D02*
X665659Y573904D01*
X665659Y559438D01*
X651159Y559438D01*
X651159Y573904D01*
G37*
G36*
X658392Y566671D02*
X658392Y552171D01*
X643926Y552171D01*
X643926Y566671D01*
X658392Y566671D01*
G37*
G36*
X651159Y559438D02*
X636659Y559438D01*
X636659Y573904D01*
X651159Y573904D01*
X651159Y559438D01*
G37*
G54D37*
G36*
X1021916Y565846D02*
X1021916Y580346D01*
X1036382Y580346D01*
X1036382Y565846D01*
X1021916Y565846D01*
G37*
G36*
X1029149Y573079D02*
X1043649Y573079D01*
X1043649Y558613D01*
X1029149Y558613D01*
X1029149Y573079D01*
G37*
G36*
X1036382Y565846D02*
X1036382Y551346D01*
X1021916Y551346D01*
X1021916Y565846D01*
X1036382Y565846D01*
G37*
G36*
X1029149Y558613D02*
X1014649Y558613D01*
X1014649Y573079D01*
X1029149Y573079D01*
X1029149Y558613D01*
G37*
G54D37*
G36*
X1113826Y566671D02*
X1113826Y581171D01*
X1128292Y581171D01*
X1128292Y566671D01*
X1113826Y566671D01*
G37*
G36*
X1121059Y573904D02*
X1135559Y573904D01*
X1135559Y559438D01*
X1121059Y559438D01*
X1121059Y573904D01*
G37*
G36*
X1128292Y566671D02*
X1128292Y552171D01*
X1113826Y552171D01*
X1113826Y566671D01*
X1128292Y566671D01*
G37*
G36*
X1121059Y559438D02*
X1106559Y559438D01*
X1106559Y573904D01*
X1121059Y573904D01*
X1121059Y559438D01*
G37*
G54D30*
G36*
X131286Y582630D02*
X131286Y597130D01*
X138953Y597130D01*
X138953Y582630D01*
X131286Y582630D01*
G37*
G36*
X135120Y586463D02*
X149620Y586463D01*
X149620Y578796D01*
X135120Y578796D01*
X135120Y586463D01*
G37*
G36*
X138953Y582630D02*
X138953Y568130D01*
X131286Y568130D01*
X131286Y582630D01*
X138953Y582630D01*
G37*
G36*
X135120Y578796D02*
X120620Y578796D01*
X120620Y586463D01*
X135120Y586463D01*
X135120Y578796D01*
G37*
G54D30*
G36*
X143986Y239730D02*
X143986Y254230D01*
X151653Y254230D01*
X151653Y239730D01*
X143986Y239730D01*
G37*
G36*
X147820Y243563D02*
X162320Y243563D01*
X162320Y235896D01*
X147820Y235896D01*
X147820Y243563D01*
G37*
G36*
X151653Y239730D02*
X151653Y225230D01*
X143986Y225230D01*
X143986Y239730D01*
X151653Y239730D01*
G37*
G36*
X147820Y235896D02*
X133320Y235896D01*
X133320Y243563D01*
X147820Y243563D01*
X147820Y235896D01*
G37*
G54D30*
G36*
X385286Y582630D02*
X385286Y597130D01*
X392953Y597130D01*
X392953Y582630D01*
X385286Y582630D01*
G37*
G36*
X389120Y586463D02*
X403620Y586463D01*
X403620Y578796D01*
X389120Y578796D01*
X389120Y586463D01*
G37*
G36*
X392953Y582630D02*
X392953Y568130D01*
X385286Y568130D01*
X385286Y582630D01*
X392953Y582630D01*
G37*
G36*
X389120Y578796D02*
X374620Y578796D01*
X374620Y586463D01*
X389120Y586463D01*
X389120Y578796D01*
G37*
G54D30*
G36*
X385286Y239730D02*
X385286Y254230D01*
X392953Y254230D01*
X392953Y239730D01*
X385286Y239730D01*
G37*
G36*
X389120Y243563D02*
X403620Y243563D01*
X403620Y235896D01*
X389120Y235896D01*
X389120Y243563D01*
G37*
G36*
X392953Y239730D02*
X392953Y225230D01*
X385286Y225230D01*
X385286Y239730D01*
X392953Y239730D01*
G37*
G36*
X389120Y235896D02*
X374620Y235896D01*
X374620Y243563D01*
X389120Y243563D01*
X389120Y235896D01*
G37*
G54D30*
G36*
X468221Y436815D02*
X468221Y451315D01*
X475888Y451315D01*
X475888Y436815D01*
X468221Y436815D01*
G37*
G36*
X472055Y440649D02*
X486555Y440649D01*
X486555Y432982D01*
X472055Y432982D01*
X472055Y440649D01*
G37*
G36*
X475888Y436815D02*
X475888Y422315D01*
X468221Y422315D01*
X468221Y436815D01*
X475888Y436815D01*
G37*
G36*
X472055Y432982D02*
X457555Y432982D01*
X457555Y440649D01*
X472055Y440649D01*
X472055Y432982D01*
G37*
G54D30*
G36*
X925422Y443165D02*
X925422Y457665D01*
X933088Y457665D01*
X933088Y443165D01*
X925422Y443165D01*
G37*
G36*
X929255Y446999D02*
X943755Y446999D01*
X943755Y439332D01*
X929255Y439332D01*
X929255Y446999D01*
G37*
G36*
X933088Y443165D02*
X933088Y428665D01*
X925422Y428665D01*
X925422Y443165D01*
X933088Y443165D01*
G37*
G36*
X929255Y439332D02*
X914755Y439332D01*
X914755Y446999D01*
X929255Y446999D01*
X929255Y439332D01*
G37*
G54D30*
G36*
X148197Y296501D02*
X148197Y311001D01*
X155864Y311001D01*
X155864Y296501D01*
X148197Y296501D01*
G37*
G36*
X152030Y300334D02*
X166530Y300334D01*
X166530Y292668D01*
X152030Y292668D01*
X152030Y300334D01*
G37*
G36*
X155864Y296501D02*
X155864Y282001D01*
X148197Y282001D01*
X148197Y296501D01*
X155864Y296501D01*
G37*
G36*
X152030Y292668D02*
X137530Y292668D01*
X137530Y300334D01*
X152030Y300334D01*
X152030Y292668D01*
G37*
G54D30*
G36*
X821297Y398101D02*
X821297Y412601D01*
X828964Y412601D01*
X828964Y398101D01*
X821297Y398101D01*
G37*
G36*
X825130Y401934D02*
X839630Y401934D01*
X839630Y394268D01*
X825130Y394268D01*
X825130Y401934D01*
G37*
G36*
X828964Y398101D02*
X828964Y383601D01*
X821297Y383601D01*
X821297Y398101D01*
X828964Y398101D01*
G37*
G36*
X825130Y394268D02*
X810630Y394268D01*
X810630Y401934D01*
X825130Y401934D01*
X825130Y394268D01*
G37*
G54D38*
G36*
X-328080Y566630D02*
X-328080Y581130D01*
X-316080Y581130D01*
X-316080Y566630D01*
X-328080Y566630D01*
G37*
G36*
X-322080Y572630D02*
X-307580Y572630D01*
X-307580Y560630D01*
X-322080Y560630D01*
X-322080Y572630D01*
G37*
G36*
X-316080Y566630D02*
X-316080Y552130D01*
X-328080Y552130D01*
X-328080Y566630D01*
X-316080Y566630D01*
G37*
G36*
X-322080Y560630D02*
X-336580Y560630D01*
X-336580Y572630D01*
X-322080Y572630D01*
X-322080Y560630D01*
G37*
G54D39*
G36*
X-418600Y-354400D02*
X-402100Y-354400D01*
X-402100Y-376700D01*
X-418600Y-376700D01*
X-418600Y-354400D01*
G37*
G36*
X-407450Y-365550D02*
X-407450Y-382050D01*
X-429750Y-382050D01*
X-429750Y-365550D01*
X-407450Y-365550D01*
G37*
G36*
X-418600Y-376700D02*
X-435100Y-376700D01*
X-435100Y-354400D01*
X-418600Y-354400D01*
X-418600Y-376700D01*
G37*
G36*
X-429750Y-365550D02*
X-429750Y-349050D01*
X-407450Y-349050D01*
X-407450Y-365550D01*
X-429750Y-365550D01*
G37*
G54D39*
G36*
X-418600Y471100D02*
X-402100Y471100D01*
X-402100Y448800D01*
X-418600Y448800D01*
X-418600Y471100D01*
G37*
G36*
X-407450Y459950D02*
X-407450Y443450D01*
X-429750Y443450D01*
X-429750Y459950D01*
X-407450Y459950D01*
G37*
G36*
X-418600Y448800D02*
X-435100Y448800D01*
X-435100Y471100D01*
X-418600Y471100D01*
X-418600Y448800D01*
G37*
G36*
X-429750Y459950D02*
X-429750Y476450D01*
X-407450Y476450D01*
X-407450Y459950D01*
X-429750Y459950D01*
G37*
G54D39*
G36*
X1118100Y-354400D02*
X1134600Y-354400D01*
X1134600Y-376700D01*
X1118100Y-376700D01*
X1118100Y-354400D01*
G37*
G36*
X1129250Y-365550D02*
X1129250Y-382050D01*
X1106950Y-382050D01*
X1106950Y-365550D01*
X1129250Y-365550D01*
G37*
G36*
X1118100Y-376700D02*
X1101600Y-376700D01*
X1101600Y-354400D01*
X1118100Y-354400D01*
X1118100Y-376700D01*
G37*
G36*
X1106950Y-365550D02*
X1106950Y-349050D01*
X1129250Y-349050D01*
X1129250Y-365550D01*
X1106950Y-365550D01*
G37*
G54D39*
G36*
X1092700Y382200D02*
X1109200Y382200D01*
X1109200Y359900D01*
X1092700Y359900D01*
X1092700Y382200D01*
G37*
G36*
X1103850Y371050D02*
X1103850Y354550D01*
X1081550Y354550D01*
X1081550Y371050D01*
X1103850Y371050D01*
G37*
G36*
X1092700Y359900D02*
X1076200Y359900D01*
X1076200Y382200D01*
X1092700Y382200D01*
X1092700Y359900D01*
G37*
G36*
X1081550Y371050D02*
X1081550Y387550D01*
X1103850Y387550D01*
X1103850Y371050D01*
X1081550Y371050D01*
G37*
G54D40*
G36*
X-416383Y253700D02*
X-416383Y268200D01*
X-408117Y268200D01*
X-408117Y253700D01*
X-416383Y253700D01*
G37*
G36*
X-412250Y257833D02*
X-397750Y257833D01*
X-397750Y249567D01*
X-412250Y249567D01*
X-412250Y257833D01*
G37*
G36*
X-408117Y253700D02*
X-408117Y239200D01*
X-416383Y239200D01*
X-416383Y253700D01*
X-408117Y253700D01*
G37*
G36*
X-412250Y249567D02*
X-426750Y249567D01*
X-426750Y257833D01*
X-412250Y257833D01*
X-412250Y249567D01*
G37*
G54D40*
G36*
X-417653Y50500D02*
X-417653Y65000D01*
X-409387Y65000D01*
X-409387Y50500D01*
X-417653Y50500D01*
G37*
G36*
X-413520Y54633D02*
X-399020Y54633D01*
X-399020Y46367D01*
X-413520Y46367D01*
X-413520Y54633D01*
G37*
G36*
X-409387Y50500D02*
X-409387Y36000D01*
X-417653Y36000D01*
X-417653Y50500D01*
X-409387Y50500D01*
G37*
G36*
X-413520Y46367D02*
X-428020Y46367D01*
X-428020Y54633D01*
X-413520Y54633D01*
X-413520Y46367D01*
G37*
G54D40*
G36*
X-422733Y-165400D02*
X-422733Y-150900D01*
X-414467Y-150900D01*
X-414467Y-165400D01*
X-422733Y-165400D01*
G37*
G36*
X-418600Y-161267D02*
X-404100Y-161267D01*
X-404100Y-169533D01*
X-418600Y-169533D01*
X-418600Y-161267D01*
G37*
G36*
X-414467Y-165400D02*
X-414467Y-179900D01*
X-422733Y-179900D01*
X-422733Y-165400D01*
X-414467Y-165400D01*
G37*
G36*
X-418600Y-169533D02*
X-433100Y-169533D01*
X-433100Y-161267D01*
X-418600Y-161267D01*
X-418600Y-169533D01*
G37*
G54D40*
G36*
X-270333Y-368600D02*
X-270333Y-354100D01*
X-262067Y-354100D01*
X-262067Y-368600D01*
X-270333Y-368600D01*
G37*
G36*
X-266200Y-364467D02*
X-251700Y-364467D01*
X-251700Y-372733D01*
X-266200Y-372733D01*
X-266200Y-364467D01*
G37*
G36*
X-262067Y-368600D02*
X-262067Y-383100D01*
X-270333Y-383100D01*
X-270333Y-368600D01*
X-262067Y-368600D01*
G37*
G36*
X-266200Y-372733D02*
X-280700Y-372733D01*
X-280700Y-364467D01*
X-266200Y-364467D01*
X-266200Y-372733D01*
G37*
G54D40*
G36*
X9067Y-368600D02*
X9067Y-354100D01*
X17333Y-354100D01*
X17333Y-368600D01*
X9067Y-368600D01*
G37*
G36*
X13200Y-364467D02*
X27700Y-364467D01*
X27700Y-372733D01*
X13200Y-372733D01*
X13200Y-364467D01*
G37*
G36*
X17333Y-368600D02*
X17333Y-383100D01*
X9067Y-383100D01*
X9067Y-368600D01*
X17333Y-368600D01*
G37*
G36*
X13200Y-372733D02*
X-1300Y-372733D01*
X-1300Y-364467D01*
X13200Y-364467D01*
X13200Y-372733D01*
G37*
G54D40*
G36*
X301167Y-368600D02*
X301167Y-354100D01*
X309433Y-354100D01*
X309433Y-368600D01*
X301167Y-368600D01*
G37*
G36*
X305300Y-364467D02*
X319800Y-364467D01*
X319800Y-372733D01*
X305300Y-372733D01*
X305300Y-364467D01*
G37*
G36*
X309433Y-368600D02*
X309433Y-383100D01*
X301167Y-383100D01*
X301167Y-368600D01*
X309433Y-368600D01*
G37*
G36*
X305300Y-372733D02*
X290800Y-372733D01*
X290800Y-364467D01*
X305300Y-364467D01*
X305300Y-372733D01*
G37*
G54D40*
G36*
X1032667Y-239600D02*
X1032667Y-225100D01*
X1040933Y-225100D01*
X1040933Y-239600D01*
X1032667Y-239600D01*
G37*
G36*
X1036800Y-235467D02*
X1051300Y-235467D01*
X1051300Y-243733D01*
X1036800Y-243733D01*
X1036800Y-235467D01*
G37*
G36*
X1040933Y-239600D02*
X1040933Y-254100D01*
X1032667Y-254100D01*
X1032667Y-239600D01*
X1040933Y-239600D01*
G37*
G36*
X1036800Y-243733D02*
X1022300Y-243733D01*
X1022300Y-235467D01*
X1036800Y-235467D01*
X1036800Y-243733D01*
G37*
G54D40*
G36*
X-181433Y583900D02*
X-181433Y598400D01*
X-173167Y598400D01*
X-173167Y583900D01*
X-181433Y583900D01*
G37*
G36*
X-177300Y588033D02*
X-162800Y588033D01*
X-162800Y579767D01*
X-177300Y579767D01*
X-177300Y588033D01*
G37*
G36*
X-173167Y583900D02*
X-173167Y569400D01*
X-181433Y569400D01*
X-181433Y583900D01*
X-173167Y583900D01*
G37*
G36*
X-177300Y579767D02*
X-191800Y579767D01*
X-191800Y588033D01*
X-177300Y588033D01*
X-177300Y579767D01*
G37*
G54D31*
G36*
X-316597Y-50220D02*
X-316597Y-34720D01*
X-309263Y-34720D01*
X-309263Y-50220D01*
X-316597Y-50220D01*
G37*
G36*
X-312930Y-46553D02*
X-297430Y-46553D01*
X-297430Y-53887D01*
X-312930Y-53887D01*
X-312930Y-46553D01*
G37*
G36*
X-309263Y-50220D02*
X-309263Y-65720D01*
X-316597Y-65720D01*
X-316597Y-50220D01*
X-309263Y-50220D01*
G37*
G36*
X-312930Y-53887D02*
X-328430Y-53887D01*
X-328430Y-46553D01*
X-312930Y-46553D01*
X-312930Y-53887D01*
G37*
G54D31*
G36*
X-265797Y-50220D02*
X-265797Y-34720D01*
X-258463Y-34720D01*
X-258463Y-50220D01*
X-265797Y-50220D01*
G37*
G36*
X-262130Y-46553D02*
X-246630Y-46553D01*
X-246630Y-53887D01*
X-262130Y-53887D01*
X-262130Y-46553D01*
G37*
G36*
X-258463Y-50220D02*
X-258463Y-65720D01*
X-265797Y-65720D01*
X-265797Y-50220D01*
X-258463Y-50220D01*
G37*
G36*
X-262130Y-53887D02*
X-277630Y-53887D01*
X-277630Y-46553D01*
X-262130Y-46553D01*
X-262130Y-53887D01*
G37*
G54D31*
G36*
X-265797Y-101020D02*
X-265797Y-85520D01*
X-258463Y-85520D01*
X-258463Y-101020D01*
X-265797Y-101020D01*
G37*
G36*
X-262130Y-97353D02*
X-246630Y-97353D01*
X-246630Y-104687D01*
X-262130Y-104687D01*
X-262130Y-97353D01*
G37*
G36*
X-258463Y-101020D02*
X-258463Y-116520D01*
X-265797Y-116520D01*
X-265797Y-101020D01*
X-258463Y-101020D01*
G37*
G36*
X-262130Y-104687D02*
X-277630Y-104687D01*
X-277630Y-97353D01*
X-262130Y-97353D01*
X-262130Y-104687D01*
G37*
G54D31*
G36*
X-316597Y-101020D02*
X-316597Y-85520D01*
X-309263Y-85520D01*
X-309263Y-101020D01*
X-316597Y-101020D01*
G37*
G36*
X-312930Y-97353D02*
X-297430Y-97353D01*
X-297430Y-104687D01*
X-312930Y-104687D01*
X-312930Y-97353D01*
G37*
G36*
X-309263Y-101020D02*
X-309263Y-116520D01*
X-316597Y-116520D01*
X-316597Y-101020D01*
X-309263Y-101020D01*
G37*
G36*
X-312930Y-104687D02*
X-328430Y-104687D01*
X-328430Y-97353D01*
X-312930Y-97353D01*
X-312930Y-104687D01*
G37*
G54D35*
G36*
X-346000Y127133D02*
X-331500Y127133D01*
X-331500Y110867D01*
X-346000Y110867D01*
X-346000Y127133D01*
G37*
G36*
X-337867Y119000D02*
X-337867Y104500D01*
X-354133Y104500D01*
X-354133Y119000D01*
X-337867Y119000D01*
G37*
G36*
X-346000Y110867D02*
X-360500Y110867D01*
X-360500Y127133D01*
X-346000Y127133D01*
X-346000Y110867D01*
G37*
G36*
X-354133Y119000D02*
X-354133Y133500D01*
X-337867Y133500D01*
X-337867Y119000D01*
X-354133Y119000D01*
G37*
G54D35*
G36*
X-27000Y458133D02*
X-12500Y458133D01*
X-12500Y441867D01*
X-27000Y441867D01*
X-27000Y458133D01*
G37*
G36*
X-18867Y450000D02*
X-18867Y435500D01*
X-35133Y435500D01*
X-35133Y450000D01*
X-18867Y450000D01*
G37*
G36*
X-27000Y441867D02*
X-41500Y441867D01*
X-41500Y458133D01*
X-27000Y458133D01*
X-27000Y441867D01*
G37*
G36*
X-35133Y450000D02*
X-35133Y464500D01*
X-18867Y464500D01*
X-18867Y450000D01*
X-35133Y450000D01*
G37*
G54D35*
G36*
X966552Y344779D02*
X966552Y359279D01*
X982819Y359279D01*
X982819Y344779D01*
X966552Y344779D01*
G37*
G36*
X974686Y352913D02*
X989186Y352913D01*
X989186Y336646D01*
X974686Y336646D01*
X974686Y352913D01*
G37*
G36*
X982819Y344779D02*
X982819Y330279D01*
X966552Y330279D01*
X966552Y344779D01*
X982819Y344779D01*
G37*
G36*
X974686Y336646D02*
X960186Y336646D01*
X960186Y352913D01*
X974686Y352913D01*
X974686Y336646D01*
G37*
G54D35*
G36*
X214000Y472133D02*
X228500Y472133D01*
X228500Y455867D01*
X214000Y455867D01*
X214000Y472133D01*
G37*
G36*
X222133Y464000D02*
X222133Y449500D01*
X205867Y449500D01*
X205867Y464000D01*
X222133Y464000D01*
G37*
G36*
X214000Y455867D02*
X199500Y455867D01*
X199500Y472133D01*
X214000Y472133D01*
X214000Y455867D01*
G37*
G36*
X205867Y464000D02*
X205867Y478500D01*
X222133Y478500D01*
X222133Y464000D01*
X205867Y464000D01*
G37*
G54D32*
G36*
X471108Y321197D02*
X471108Y335697D01*
X488241Y335697D01*
X488241Y321197D01*
X471108Y321197D01*
G37*
G36*
X479674Y329764D02*
X494174Y329764D01*
X494174Y312631D01*
X479674Y312631D01*
X479674Y329764D01*
G37*
G36*
X488241Y321197D02*
X488241Y306697D01*
X471108Y306697D01*
X471108Y321197D01*
X488241Y321197D01*
G37*
G36*
X479674Y312631D02*
X465174Y312631D01*
X465174Y329764D01*
X479674Y329764D01*
X479674Y312631D01*
G37*
G54D28*
G36*
X-232391Y417605D02*
X-232391Y432105D01*
X-225725Y432105D01*
X-225725Y417605D01*
X-232391Y417605D01*
G37*
G36*
X-229058Y420938D02*
X-214558Y420938D01*
X-214558Y414272D01*
X-229058Y414272D01*
X-229058Y420938D01*
G37*
G36*
X-225725Y417605D02*
X-225725Y403105D01*
X-232391Y403105D01*
X-232391Y417605D01*
X-225725Y417605D01*
G37*
G36*
X-229058Y414272D02*
X-243558Y414272D01*
X-243558Y420938D01*
X-229058Y420938D01*
X-229058Y414272D01*
G37*
X903470Y269830D02*
G54D41*
D03*
X878070Y269830D02*
G54D41*
D03*
X852670Y269830D02*
G54D41*
D03*
X808720Y265036D02*
G54D41*
D03*
X808833Y214055D02*
G54D41*
D03*
X620503Y277527D02*
G54D41*
D03*
X620453Y201277D02*
G54D41*
D03*
X669020Y271386D02*
G54D41*
D03*
X669133Y220405D02*
G54D41*
D03*
X436353Y277527D02*
G54D41*
D03*
X436303Y201277D02*
G54D41*
D03*
G36*
X563270Y-13920D02*
X583270Y-13920D01*
X583270Y-33920D01*
X563270Y-33920D01*
X563270Y-13920D01*
G37*
X573270Y-49320D02*
G54D41*
D03*
G36*
X563270Y11480D02*
X583270Y11480D01*
X583270Y-8520D01*
X563270Y-8520D01*
X563270Y11480D01*
G37*
G36*
X563270Y-198070D02*
X583270Y-198070D01*
X583270Y-218070D01*
X563270Y-218070D01*
X563270Y-198070D01*
G37*
X573270Y-233470D02*
G54D41*
D03*
G36*
X563270Y-172670D02*
X583270Y-172670D01*
X583270Y-192670D01*
X563270Y-192670D01*
X563270Y-172670D01*
G37*
X478053Y15438D02*
G54D41*
D03*
X427072Y15325D02*
G54D41*
D03*
X478053Y-190937D02*
G54D41*
D03*
X427072Y-191050D02*
G54D41*
D03*
X478053Y72588D02*
G54D41*
D03*
X427073Y72475D02*
G54D41*
D03*
X490753Y-305237D02*
G54D41*
D03*
X439773Y-305350D02*
G54D41*
D03*
X616751Y105950D02*
G54D41*
D03*
X540501Y106000D02*
G54D41*
D03*
X629451Y-338550D02*
G54D41*
D03*
X553201Y-338500D02*
G54D41*
D03*
X744720Y150830D02*
G54D41*
D03*
X744720Y87330D02*
G54D41*
D03*
X744720Y-312720D02*
G54D41*
D03*
X744720Y-376220D02*
G54D41*
D03*
X856020Y112730D02*
G54D41*
D03*
X820920Y112730D02*
G54D41*
D03*
X868720Y-331770D02*
G54D41*
D03*
X833620Y-331770D02*
G54D41*
D03*
X1013779Y260552D02*
G54D41*
D03*
X1039279Y260552D02*
G54D41*
D03*
X915113Y77935D02*
G54D41*
D03*
X915163Y154185D02*
G54D41*
D03*
X865520Y-49070D02*
G54D41*
D03*
X864020Y-159670D02*
G54D41*
D03*
X960620Y-46070D02*
G54D41*
D03*
X963620Y-165670D02*
G54D41*
D03*
X300220Y-39670D02*
G54D41*
D03*
X439920Y-39670D02*
G54D41*
D03*
X439920Y-128570D02*
G54D41*
D03*
X439920Y-84120D02*
G54D41*
D03*
X1102679Y260552D02*
G54D41*
D03*
X1128179Y260552D02*
G54D41*
D03*
X878070Y269830D02*
G54D41*
D03*
X808833Y214055D02*
G54D41*
D03*
X763770Y206330D02*
G54D41*
D03*
X669133Y220405D02*
G54D41*
D03*
X963620Y-165670D02*
G54D41*
D03*
X856020Y112730D02*
G54D41*
D03*
X915113Y77935D02*
G54D41*
D03*
X868720Y-331770D02*
G54D41*
D03*
X300220Y-128570D02*
G54D41*
D03*
X439920Y-84120D02*
G54D41*
D03*
G54D20*
X1039279Y260552D02*
X1036820Y265130D01*
X1024120Y277830D01*
X1024120Y290530D01*
X1011420Y290530D01*
X986020Y265130D01*
X909820Y265130D01*
X903470Y269830D01*
X1015570Y-56920D02*
G54D42*
D03*
X1066370Y-56920D02*
G54D42*
D03*
X1040970Y-82320D02*
G54D42*
D03*
X1066370Y-107720D02*
G54D42*
D03*
X1015570Y-107720D02*
G54D42*
D03*
X300220Y-84120D02*
G54D41*
D03*
X808833Y214055D02*
G54D41*
D03*
X669133Y220405D02*
G54D41*
D03*
X915113Y77935D02*
G54D41*
D03*
G54D27*
X439920Y-128570D02*
X427220Y-141270D01*
X427220Y-192070D01*
X427072Y-191050D01*
G54D27*
X439920Y-39670D02*
X427220Y-26970D01*
X427220Y17480D01*
X427072Y15325D01*
G54D20*
X573270Y-182670D02*
X573270Y-185720D01*
X554220Y-166670D01*
X554220Y11130D01*
X560570Y17480D01*
X560570Y112730D01*
X480020Y178280D01*
X466320Y184680D01*
X433570Y201630D01*
X436303Y201277D01*
G54D20*
X478053Y15438D02*
X478020Y17480D01*
X478020Y-90470D01*
X541520Y-153970D01*
X541520Y-173020D01*
X554220Y-185720D01*
X541520Y-242870D01*
X560570Y-261920D01*
X585970Y-261920D01*
X605020Y-230170D01*
X605020Y-109520D01*
X592320Y-96820D01*
X592320Y-14270D01*
X579620Y-1570D01*
X573270Y-1570D01*
X573270Y1480D01*
G54D20*
X427073Y72475D02*
X427220Y74630D01*
X420870Y80980D01*
X420870Y290530D01*
X427220Y296880D01*
X446270Y296880D01*
X452620Y290530D01*
X490720Y290530D01*
X522470Y258780D01*
X528820Y258780D01*
X554220Y233380D01*
X554220Y201630D01*
X573270Y182580D01*
X573270Y-1570D01*
X573270Y1480D01*
G54D20*
X573270Y1480D02*
X573270Y-1570D01*
X598670Y23830D01*
X598670Y112730D01*
X617720Y131780D01*
X617720Y201630D01*
X620453Y201277D01*
G54D43*
X478053Y-190937D02*
X478020Y-192070D01*
X465320Y-179370D01*
X465320Y-77770D01*
X458970Y-71420D01*
X458970Y23830D01*
X471670Y36530D01*
X484370Y36530D01*
X554220Y-33320D01*
X554220Y-122220D01*
X573270Y-141270D01*
X573270Y-185720D01*
X573270Y-182670D01*
G54D20*
X439773Y-305350D02*
X439920Y-306370D01*
X465320Y-280970D01*
X465320Y-77770D01*
X458970Y-71420D01*
X458970Y23830D01*
X471670Y36530D01*
X484370Y36530D01*
X554220Y-33320D01*
X554220Y-122220D01*
X573270Y-141270D01*
X573270Y-185720D01*
X573270Y-182670D01*
G54D27*
X820920Y112730D02*
X795520Y87330D01*
X744720Y87330D01*
G54D27*
X915163Y154185D02*
X916170Y157180D01*
X897120Y138130D01*
X852670Y138130D01*
X827270Y112730D01*
X820920Y112730D01*
G54D20*
X744720Y150830D02*
X700270Y106380D01*
X617720Y106380D01*
X616751Y105950D01*
G54D27*
X540501Y106000D02*
X541520Y106380D01*
X509770Y74630D01*
X478020Y74630D01*
X478053Y72588D01*
X927813Y-379265D02*
G54D41*
D03*
X927863Y-303015D02*
G54D41*
D03*
X927813Y-379265D02*
G54D41*
D03*
G36*
X563270Y-223470D02*
X583270Y-223470D01*
X583270Y-243470D01*
X563270Y-243470D01*
X563270Y-223470D01*
G37*
G36*
X563270Y-39320D02*
X583270Y-39320D01*
X583270Y-59320D01*
X563270Y-59320D01*
X563270Y-39320D01*
G37*
G54D27*
X553201Y-338500D02*
X554220Y-338120D01*
X522470Y-306370D01*
X490720Y-306370D01*
X490753Y-305237D01*
G54D27*
X744720Y-312720D02*
X719320Y-338120D01*
X630420Y-338120D01*
X629451Y-338550D01*
G54D27*
X833620Y-331770D02*
X789170Y-376220D01*
X744720Y-376220D01*
G54D27*
X927863Y-303015D02*
X928870Y-300020D01*
X922520Y-306370D01*
X865370Y-306370D01*
X839970Y-331770D01*
X833620Y-331770D01*
G54D27*
X1128179Y260552D02*
X1125720Y258780D01*
X1024120Y157180D01*
X916170Y157180D01*
X915163Y154185D01*
G54D44*
X-271352Y120319D02*
X-271065Y120324D01*
X-270778Y120319D01*
X-270489Y120304D01*
X-270202Y120278D01*
X-269917Y120243D01*
X-269633Y120200D01*
X-269348Y120144D01*
X-269069Y120078D01*
X-268789Y120004D01*
X-268515Y119920D01*
X-268241Y119826D01*
X-267974Y119722D01*
X-267707Y119610D01*
X-267446Y119488D01*
X-267189Y119359D01*
X-266938Y119219D01*
X-266691Y119069D01*
X-266450Y118912D01*
X-266214Y118747D01*
X-265982Y118574D01*
X-265759Y118394D01*
X-265541Y118203D01*
X-265330Y118007D01*
X-265127Y117804D01*
X-264931Y117594D01*
X-264741Y117375D01*
X-264560Y117152D01*
X-264388Y116920D01*
X-264223Y116684D01*
X-264065Y116443D01*
X-263915Y116197D01*
X-263775Y115945D01*
X-263646Y115688D01*
X-263524Y115427D01*
X-263412Y115160D01*
X-263308Y114894D01*
X-263214Y114619D01*
X-263130Y114345D01*
X-263057Y114066D01*
X-262991Y113786D01*
X-262935Y113502D01*
X-262891Y113217D01*
X-262856Y112932D01*
X-262831Y112646D01*
X-262815Y112356D01*
X-262810Y112069D01*
X-262815Y111782D01*
X-262831Y111492D01*
X-262856Y111205D01*
X-262891Y110921D01*
X-262935Y110637D01*
X-262991Y110352D01*
X-263057Y110073D01*
X-263130Y109793D01*
X-263214Y109519D01*
X-263308Y109244D01*
X-263412Y108978D01*
X-263524Y108711D01*
X-263646Y108450D01*
X-263775Y108193D01*
X-263915Y107942D01*
X-264065Y107695D01*
X-264222Y107454D01*
X-264388Y107218D01*
X-264560Y106987D01*
X-264741Y106763D01*
X-264931Y106544D01*
X-265127Y106334D01*
X-265330Y106131D01*
X-265541Y105935D01*
X-265759Y105744D01*
X-265983Y105564D01*
X-266214Y105391D01*
X-266450Y105226D01*
X-266692Y105069D01*
X-266938Y104919D01*
X-267189Y104779D01*
X-267446Y104650D01*
X-267707Y104528D01*
X-267974Y104416D01*
X-268241Y104312D01*
X-268515Y104218D01*
X-268790Y104134D01*
X-269069Y104060D01*
X-269348Y103994D01*
X-269633Y103938D01*
X-269917Y103895D01*
X-270202Y103860D01*
X-270489Y103834D01*
X-270778Y103819D01*
X-271065Y103814D01*
X-271352Y103819D01*
X-271642Y103834D01*
X-271929Y103860D01*
X-272213Y103895D01*
X-272498Y103939D01*
X-272782Y103994D01*
X-273062Y104060D01*
X-273341Y104134D01*
X-273615Y104218D01*
X-273890Y104312D01*
X-274156Y104416D01*
X-274423Y104528D01*
X-274685Y104650D01*
X-274942Y104779D01*
X-275193Y104919D01*
X-275439Y105069D01*
X-275680Y105226D01*
X-275916Y105391D01*
X-276148Y105564D01*
X-276371Y105744D01*
X-276590Y105935D01*
X-276801Y106131D01*
X-277004Y106334D01*
X-277199Y106545D01*
X-277390Y106763D01*
X-277570Y106987D01*
X-277743Y107218D01*
X-277908Y107454D01*
X-278065Y107695D01*
X-278216Y107941D01*
X-278355Y108193D01*
X-278485Y108450D01*
X-278606Y108711D01*
X-278718Y108978D01*
X-278822Y109244D01*
X-278916Y109519D01*
X-279000Y109793D01*
X-279074Y110072D01*
X-279140Y110352D01*
X-279196Y110637D01*
X-279239Y110921D01*
X-279274Y111205D01*
X-279300Y111492D01*
X-279315Y111782D01*
X-279320Y112069D01*
X-279315Y112356D01*
X-279300Y112645D01*
X-279274Y112932D01*
X-279239Y113217D01*
X-279196Y113502D01*
X-279140Y113786D01*
X-279074Y114066D01*
X-279000Y114345D01*
X-278916Y114619D01*
X-278822Y114893D01*
X-278718Y115160D01*
X-278606Y115427D01*
X-278485Y115688D01*
X-278355Y115945D01*
X-278216Y116197D01*
X-278066Y116443D01*
X-277908Y116684D01*
X-277743Y116920D01*
X-277570Y117151D01*
X-277390Y117375D01*
X-277199Y117594D01*
X-277004Y117804D01*
X-276801Y118008D01*
X-276590Y118203D01*
X-276372Y118394D01*
X-276148Y118574D01*
X-275917Y118747D01*
X-275680Y118912D01*
X-275439Y119069D01*
X-275193Y119219D01*
X-274941Y119359D01*
X-274684Y119488D01*
X-274423Y119610D01*
X-274156Y119722D01*
X-273890Y119826D01*
X-273615Y119920D01*
X-273341Y120004D01*
X-273062Y120078D01*
X-272782Y120144D01*
X-272498Y120200D01*
X-272213Y120243D01*
X-271929Y120278D01*
X-271642Y120304D01*
X-271352Y120319D01*
G54D44*
X-118952Y120319D02*
X-118665Y120324D01*
X-118378Y120319D01*
X-118089Y120304D01*
X-117802Y120278D01*
X-117517Y120243D01*
X-117233Y120199D01*
X-116948Y120144D01*
X-116669Y120078D01*
X-116389Y120004D01*
X-116115Y119920D01*
X-115841Y119826D01*
X-115574Y119722D01*
X-115307Y119610D01*
X-115046Y119488D01*
X-114789Y119359D01*
X-114538Y119219D01*
X-114291Y119069D01*
X-114050Y118912D01*
X-113814Y118747D01*
X-113582Y118574D01*
X-113359Y118394D01*
X-113141Y118203D01*
X-112930Y118007D01*
X-112727Y117804D01*
X-112531Y117594D01*
X-112341Y117375D01*
X-112160Y117152D01*
X-111988Y116920D01*
X-111822Y116684D01*
X-111665Y116443D01*
X-111515Y116196D01*
X-111375Y115945D01*
X-111246Y115688D01*
X-111124Y115427D01*
X-111012Y115160D01*
X-110908Y114894D01*
X-110814Y114619D01*
X-110730Y114345D01*
X-110657Y114066D01*
X-110591Y113786D01*
X-110535Y113501D01*
X-110492Y113217D01*
X-110456Y112933D01*
X-110430Y112646D01*
X-110415Y112356D01*
X-110410Y112069D01*
X-110415Y111782D01*
X-110431Y111492D01*
X-110456Y111205D01*
X-110491Y110921D01*
X-110535Y110637D01*
X-110591Y110352D01*
X-110656Y110072D01*
X-110730Y109793D01*
X-110814Y109519D01*
X-110908Y109245D01*
X-111012Y108978D01*
X-111124Y108711D01*
X-111246Y108450D01*
X-111375Y108193D01*
X-111515Y107942D01*
X-111665Y107695D01*
X-111822Y107454D01*
X-111988Y107218D01*
X-112160Y106987D01*
X-112341Y106763D01*
X-112531Y106545D01*
X-112727Y106334D01*
X-112930Y106131D01*
X-113141Y105935D01*
X-113359Y105744D01*
X-113583Y105564D01*
X-113814Y105391D01*
X-114050Y105226D01*
X-114291Y105069D01*
X-114538Y104919D01*
X-114789Y104779D01*
X-115046Y104650D01*
X-115307Y104528D01*
X-115574Y104416D01*
X-115841Y104312D01*
X-116115Y104218D01*
X-116389Y104134D01*
X-116669Y104060D01*
X-116948Y103994D01*
X-117233Y103939D01*
X-117517Y103895D01*
X-117802Y103860D01*
X-118089Y103834D01*
X-118378Y103819D01*
X-118665Y103814D01*
X-118952Y103819D01*
X-119242Y103834D01*
X-119529Y103860D01*
X-119814Y103895D01*
X-120098Y103939D01*
X-120382Y103994D01*
X-120662Y104060D01*
X-120941Y104134D01*
X-121215Y104218D01*
X-121490Y104312D01*
X-121756Y104416D01*
X-122023Y104528D01*
X-122285Y104650D01*
X-122541Y104779D01*
X-122793Y104919D01*
X-123039Y105069D01*
X-123280Y105226D01*
X-123517Y105391D01*
X-123748Y105564D01*
X-123971Y105744D01*
X-124190Y105935D01*
X-124400Y106131D01*
X-124604Y106334D01*
X-124799Y106545D01*
X-124990Y106763D01*
X-125170Y106987D01*
X-125343Y107218D01*
X-125508Y107454D01*
X-125665Y107695D01*
X-125815Y107942D01*
X-125955Y108193D01*
X-126085Y108450D01*
X-126206Y108711D01*
X-126318Y108978D01*
X-126422Y109244D01*
X-126516Y109519D01*
X-126600Y109793D01*
X-126674Y110072D01*
X-126740Y110352D01*
X-126796Y110637D01*
X-126839Y110921D01*
X-126874Y111205D01*
X-126900Y111493D01*
X-126915Y111782D01*
X-126920Y112069D01*
X-126915Y112356D01*
X-126900Y112646D01*
X-126874Y112932D01*
X-126839Y113217D01*
X-126796Y113502D01*
X-126740Y113786D01*
X-126674Y114066D01*
X-126600Y114345D01*
X-126516Y114619D01*
X-126422Y114894D01*
X-126318Y115160D01*
X-126206Y115427D01*
X-126085Y115688D01*
X-125955Y115945D01*
X-125815Y116197D01*
X-125665Y116443D01*
X-125508Y116684D01*
X-125343Y116920D01*
X-125170Y117151D01*
X-124990Y117375D01*
X-124799Y117594D01*
X-124604Y117804D01*
X-124401Y118008D01*
X-124189Y118203D01*
X-123972Y118394D01*
X-123748Y118574D01*
X-123517Y118747D01*
X-123280Y118912D01*
X-123039Y119069D01*
X-122793Y119219D01*
X-122541Y119359D01*
X-122285Y119488D01*
X-122023Y119610D01*
X-121756Y119722D01*
X-121490Y119826D01*
X-121215Y119920D01*
X-120941Y120004D01*
X-120662Y120078D01*
X-120382Y120144D01*
X-120098Y120200D01*
X-119813Y120243D01*
X-119529Y120278D01*
X-119242Y120304D01*
X-118952Y120319D01*
X-175561Y171505D02*
G54D45*
D03*
X-185721Y171505D02*
G54D45*
D03*
X-195373Y171505D02*
G54D45*
D03*
X-205533Y171505D02*
G54D45*
D03*
X-215439Y171505D02*
G54D45*
D03*
X-271065Y493069D02*
G54D46*
D03*
X-271065Y467669D02*
G54D46*
D03*
X-271065Y442269D02*
G54D46*
D03*
X-271065Y416869D02*
G54D46*
D03*
X-271065Y391469D02*
G54D46*
D03*
X-271065Y366069D02*
G54D46*
D03*
X-271065Y340669D02*
G54D46*
D03*
X-271065Y315269D02*
G54D46*
D03*
X-271065Y289869D02*
G54D46*
D03*
X-271065Y264469D02*
G54D46*
D03*
X-271065Y239069D02*
G54D46*
D03*
X-271065Y213669D02*
G54D46*
D03*
X-271065Y188269D02*
G54D46*
D03*
X-271065Y162869D02*
G54D46*
D03*
X-271065Y137469D02*
G54D46*
D03*
X-118665Y493069D02*
G54D46*
D03*
X-118665Y467669D02*
G54D46*
D03*
X-118665Y442269D02*
G54D46*
D03*
X-118665Y416869D02*
G54D46*
D03*
X-118665Y391469D02*
G54D46*
D03*
X-118665Y366069D02*
G54D46*
D03*
X-118665Y340669D02*
G54D46*
D03*
X-118665Y315269D02*
G54D46*
D03*
X-118665Y289869D02*
G54D46*
D03*
X-118665Y264469D02*
G54D46*
D03*
X-118665Y239069D02*
G54D46*
D03*
X-118665Y213669D02*
G54D46*
D03*
X-118665Y188269D02*
G54D46*
D03*
X-118665Y162869D02*
G54D46*
D03*
X-118665Y137469D02*
G54D46*
D03*
X-118506Y518310D02*
G54D47*
D03*
X-270906Y518310D02*
G54D47*
D03*
X-169719Y492053D02*
G54D46*
D03*
X-169719Y517453D02*
G54D46*
D03*
X-195119Y492053D02*
G54D46*
D03*
X-195119Y517453D02*
G54D46*
D03*
X-220519Y492053D02*
G54D46*
D03*
X-220519Y517453D02*
G54D46*
D03*
X-65966Y361499D02*
G54D41*
D03*
X-65966Y437699D02*
G54D41*
D03*
X-63391Y556624D02*
G54D41*
D03*
X-63391Y531124D02*
G54D41*
D03*
X-62209Y322234D02*
G54D41*
D03*
X-62096Y271253D02*
G54D41*
D03*
X-65966Y221799D02*
G54D41*
D03*
X-65966Y120199D02*
G54D41*
D03*
X-13841Y155614D02*
G54D41*
D03*
X-13953Y206594D02*
G54D41*
D03*
X-11091Y80882D02*
G54D41*
D03*
X-62071Y80770D02*
G54D41*
D03*
X-62096Y271253D02*
G54D41*
D03*
X-13953Y206594D02*
G54D41*
D03*
X-62071Y80770D02*
G54D41*
D03*
G54D48*
X-62209Y322234D02*
X-61515Y321619D01*
X-67865Y327969D01*
X-67865Y359719D01*
X-65966Y361499D01*
G54D48*
X-65966Y221799D02*
X-67865Y220019D01*
X-42465Y245419D01*
X-42465Y283519D01*
X-61515Y302569D01*
X-61515Y321619D01*
X-62209Y322234D01*
G54D43*
X-63391Y531124D02*
X-65916Y531679D01*
X-65916Y436429D01*
X-65966Y437699D01*
X-271065Y416869D02*
G54D41*
D03*
X-118665Y467669D02*
G54D41*
D03*
G54D43*
X-13841Y155613D02*
X-15116Y157029D01*
X-53216Y118929D01*
X-65916Y118929D01*
X-65966Y120199D01*
X71620Y239729D02*
G54D42*
D03*
X147820Y239730D02*
G54D42*
D03*
X71620Y163530D02*
G54D42*
D03*
X71620Y112730D02*
G54D42*
D03*
X71620Y61930D02*
G54D42*
D03*
X147820Y163530D02*
G54D42*
D03*
X147820Y112730D02*
G54D42*
D03*
X147820Y61930D02*
G54D42*
D03*
X58920Y582630D02*
G54D42*
D03*
X135120Y582630D02*
G54D42*
D03*
X58920Y506430D02*
G54D42*
D03*
X58920Y455630D02*
G54D42*
D03*
X58920Y404830D02*
G54D42*
D03*
X135120Y506430D02*
G54D42*
D03*
X135120Y455630D02*
G54D42*
D03*
X135120Y404830D02*
G54D42*
D03*
X312920Y239730D02*
G54D42*
D03*
X389120Y239730D02*
G54D42*
D03*
X312920Y163530D02*
G54D42*
D03*
X312920Y112730D02*
G54D42*
D03*
X312920Y61930D02*
G54D42*
D03*
X389120Y163530D02*
G54D42*
D03*
X389120Y112730D02*
G54D42*
D03*
X389120Y61930D02*
G54D42*
D03*
X312920Y582630D02*
G54D42*
D03*
X389120Y582630D02*
G54D42*
D03*
X312920Y506430D02*
G54D42*
D03*
X312920Y455630D02*
G54D42*
D03*
X312920Y404830D02*
G54D42*
D03*
X389120Y506430D02*
G54D42*
D03*
X389120Y455630D02*
G54D42*
D03*
X389120Y404830D02*
G54D42*
D03*
X929255Y443165D02*
G54D42*
D03*
X929254Y519365D02*
G54D42*
D03*
X1005455Y443165D02*
G54D42*
D03*
X1056255Y443165D02*
G54D42*
D03*
X1107055Y443165D02*
G54D42*
D03*
X1005455Y519366D02*
G54D42*
D03*
X1056255Y519365D02*
G54D42*
D03*
X1107055Y519365D02*
G54D42*
D03*
X472055Y436815D02*
G54D42*
D03*
X472055Y513016D02*
G54D42*
D03*
X548255Y436816D02*
G54D42*
D03*
X599055Y436816D02*
G54D42*
D03*
X649855Y436815D02*
G54D42*
D03*
X548255Y513016D02*
G54D42*
D03*
X599055Y513016D02*
G54D42*
D03*
X649855Y513016D02*
G54D42*
D03*
X27057Y358617D02*
G54D41*
D03*
X90557Y358617D02*
G54D41*
D03*
X58807Y298292D02*
G54D41*
D03*
X135120Y201630D02*
G54D41*
D03*
X120280Y356826D02*
G54D41*
D03*
X183781Y356826D02*
G54D41*
D03*
X152030Y296501D02*
G54D41*
D03*
X183781Y356826D02*
G54D41*
D03*
X58807Y298292D02*
G54D41*
D03*
X255657Y358617D02*
G54D41*
D03*
X319157Y358617D02*
G54D41*
D03*
X287407Y298292D02*
G54D41*
D03*
X348880Y356826D02*
G54D41*
D03*
X412381Y356826D02*
G54D41*
D03*
X380630Y296501D02*
G54D41*
D03*
X380630Y296501D02*
G54D41*
D03*
X287407Y298292D02*
G54D41*
D03*
X700158Y460217D02*
G54D41*
D03*
X763658Y460217D02*
G54D41*
D03*
X731908Y399892D02*
G54D41*
D03*
X793380Y458426D02*
G54D41*
D03*
X856880Y458426D02*
G54D41*
D03*
X825130Y398101D02*
G54D41*
D03*
X856881Y458426D02*
G54D41*
D03*
X731908Y399892D02*
G54D41*
D03*
X-271065Y416869D02*
G54D49*
D03*
X173740Y488548D02*
G54D50*
D03*
X173740Y590148D02*
G54D50*
D03*
X174565Y396638D02*
G54D41*
D03*
X174453Y447619D02*
G54D41*
D03*
X173740Y488548D02*
G54D41*
D03*
X173740Y488548D02*
G54D49*
D03*
X174565Y396638D02*
G54D49*
D03*
X275340Y488548D02*
G54D50*
D03*
X275340Y590148D02*
G54D50*
D03*
X276165Y396638D02*
G54D41*
D03*
X276053Y447619D02*
G54D41*
D03*
X275340Y488548D02*
G54D41*
D03*
X275340Y488548D02*
G54D49*
D03*
X276165Y396638D02*
G54D49*
D03*
X186440Y158348D02*
G54D50*
D03*
X186440Y259948D02*
G54D50*
D03*
X187265Y66438D02*
G54D41*
D03*
X187153Y117418D02*
G54D41*
D03*
X186440Y158348D02*
G54D41*
D03*
X186440Y158348D02*
G54D49*
D03*
X187265Y66438D02*
G54D49*
D03*
X272442Y164285D02*
G54D50*
D03*
X272442Y265885D02*
G54D50*
D03*
X233897Y205725D02*
G54D41*
D03*
X233785Y256706D02*
G54D41*
D03*
X233897Y205725D02*
G54D49*
D03*
X272442Y164285D02*
G54D49*
D03*
X559249Y565846D02*
G54D50*
D03*
X457649Y565846D02*
G54D50*
D03*
X651159Y566671D02*
G54D41*
D03*
X600179Y566559D02*
G54D41*
D03*
X559249Y565846D02*
G54D41*
D03*
X559249Y565846D02*
G54D49*
D03*
X651159Y566671D02*
G54D49*
D03*
X1029149Y565846D02*
G54D50*
D03*
X927549Y565846D02*
G54D50*
D03*
X1121059Y566671D02*
G54D41*
D03*
X1070079Y566559D02*
G54D41*
D03*
X1029149Y565846D02*
G54D41*
D03*
X1029149Y565846D02*
G54D49*
D03*
X1121059Y566671D02*
G54D49*
D03*
X135120Y582630D02*
G54D41*
D03*
X147820Y239730D02*
G54D41*
D03*
X389120Y582630D02*
G54D41*
D03*
X389120Y239730D02*
G54D41*
D03*
X472055Y436815D02*
G54D41*
D03*
X929255Y443165D02*
G54D41*
D03*
X152030Y296501D02*
G54D41*
D03*
X825130Y398101D02*
G54D41*
D03*
G54D51*
X58920Y582630D02*
X58920Y585680D01*
X46220Y572980D01*
X-74430Y572980D01*
X-112530Y534880D01*
X-226830Y534880D01*
X-252230Y509480D01*
X-252230Y407880D01*
X-271280Y388830D01*
X-271065Y391469D01*
G54D51*
X312920Y582630D02*
X312920Y585680D01*
X287520Y560280D01*
X128770Y560280D01*
X90670Y598380D01*
X46220Y598380D01*
X27170Y579330D01*
X-80780Y579330D01*
X-118880Y541230D01*
X-233180Y541230D01*
X-239530Y534880D01*
X-277630Y534880D01*
X-290330Y522180D01*
X-290330Y388830D01*
X-271280Y369780D01*
X-271280Y363430D01*
X-271065Y366069D01*
G54D51*
X472055Y513016D02*
X471670Y515830D01*
X408170Y452330D01*
X408170Y445980D01*
X382770Y420580D01*
X376420Y420580D01*
X331970Y376130D01*
X312920Y376130D01*
X204970Y268180D01*
X204970Y255480D01*
X154170Y204680D01*
X154170Y191980D01*
X141470Y179280D01*
X58920Y179280D01*
X52570Y172930D01*
X-23630Y172930D01*
X-61730Y134830D01*
X-74430Y134830D01*
X-112530Y96730D01*
X-125230Y96730D01*
X-163330Y134830D01*
X-163330Y179280D01*
X-252230Y268180D01*
X-252230Y318980D01*
X-271280Y338030D01*
X-271065Y340669D01*
G54D51*
X389120Y61930D02*
X389120Y64980D01*
X408170Y84030D01*
X408170Y293580D01*
X420870Y306280D01*
X452620Y306280D01*
X458970Y299930D01*
X497070Y299930D01*
X522470Y274530D01*
X617720Y274530D01*
X620503Y277527D01*
G54D51*
X1107055Y443165D02*
X1106670Y445980D01*
X1081270Y420580D01*
X725670Y420580D01*
X617720Y312630D01*
X617720Y274530D01*
X620503Y277527D01*
G54D51*
X700158Y460217D02*
X700270Y458680D01*
X681220Y439630D01*
X649470Y439630D01*
X649855Y436815D01*
G54D51*
X856881Y458426D02*
X859020Y458680D01*
X839970Y439630D01*
X649470Y439630D01*
X649855Y436815D01*
G54D51*
X1070079Y566559D02*
X1068570Y566630D01*
X1049520Y585680D01*
X1017770Y585680D01*
X998720Y566630D01*
X928870Y566630D01*
X927549Y565846D01*
G54D51*
X927549Y565846D02*
X928870Y566630D01*
X928870Y522180D01*
X929254Y519365D01*
G54D51*
X255657Y358617D02*
X255770Y357080D01*
X274820Y376130D01*
X287520Y376130D01*
X300220Y388830D01*
X325620Y388830D01*
X370070Y433280D01*
X370070Y465030D01*
X395470Y490430D01*
X401820Y490430D01*
X439920Y528530D01*
X484370Y528530D01*
X490720Y522180D01*
X490720Y503130D01*
X408170Y420580D01*
X408170Y395180D01*
X363720Y350730D01*
X363720Y344380D01*
X331970Y312630D01*
X331970Y230080D01*
X312920Y211030D01*
X312920Y166580D01*
X312920Y163530D01*
G54D51*
X147820Y61930D02*
X147820Y64980D01*
X185920Y103080D01*
X198620Y103080D01*
X224020Y128480D01*
X268470Y128480D01*
X274820Y134830D01*
X281170Y134830D01*
X293870Y147530D01*
X325620Y147530D01*
X408170Y230080D01*
X408170Y293580D01*
X420870Y306280D01*
X452620Y306280D01*
X458970Y299930D01*
X497070Y299930D01*
X522470Y274530D01*
X617720Y274530D01*
X620503Y277527D01*
G54D51*
X669020Y271386D02*
X668520Y274530D01*
X617720Y274530D01*
X620503Y277527D01*
G54D51*
X808720Y265036D02*
X808220Y268180D01*
X852670Y268180D01*
X852670Y269830D01*
G54D51*
X187153Y117418D02*
X185920Y115780D01*
X147820Y77680D01*
X135120Y77680D01*
X128770Y71330D01*
X128770Y52280D01*
X204970Y-23920D01*
X306570Y-23920D01*
X408170Y-125520D01*
X408170Y-195370D01*
X420870Y-208070D01*
X420870Y-309670D01*
X433570Y-322370D01*
X446270Y-322370D01*
X497070Y-271570D01*
X592320Y-271570D01*
X635500Y-292400D01*
X800600Y-292400D01*
X859942Y-281395D01*
X889500Y-254300D01*
X903470Y-150920D01*
X885100Y66800D01*
X737100Y63200D01*
X725670Y90380D01*
X878070Y242780D01*
X1043170Y242780D01*
X1125720Y325330D01*
X1125720Y452330D01*
X1087620Y490430D01*
X1087620Y572980D01*
X1068570Y592030D01*
X1011420Y592030D01*
X1005070Y585680D01*
X547870Y585680D01*
X497070Y534880D01*
X433570Y534880D01*
X420870Y522180D01*
X376420Y522180D01*
X325620Y471380D01*
X300220Y471380D01*
X293870Y465030D01*
X293870Y439630D01*
X274820Y420580D01*
X268470Y420580D01*
X198620Y350730D01*
X198620Y344380D01*
X185920Y331680D01*
X185920Y261830D01*
X186440Y259948D01*
G54D51*
X793380Y458426D02*
X795520Y458680D01*
X814570Y477730D01*
X859020Y477730D01*
X871720Y465030D01*
X935220Y465030D01*
X954270Y445980D01*
X1005070Y445980D01*
X1005455Y443165D01*
G54D51*
X763658Y460217D02*
X763770Y458680D01*
X808220Y503130D01*
X941570Y503130D01*
X960620Y522180D01*
X1005070Y522180D01*
X1005455Y519366D01*
G54D51*
X-11091Y80882D02*
X-10930Y84030D01*
X-10930Y153880D01*
X-13841Y155614D01*
X-398280Y566630D02*
G54D41*
D03*
X-372880Y566630D02*
G54D41*
D03*
X-372880Y566630D02*
G54D41*
D03*
X-347480Y566630D02*
G54D41*
D03*
X-296680Y566630D02*
G54D41*
D03*
X-296680Y566630D02*
G54D41*
D03*
X-271280Y566630D02*
G54D41*
D03*
X-271280Y566630D02*
G54D41*
D03*
X-245880Y566630D02*
G54D41*
D03*
G54D51*
X-296680Y566630D02*
X-296680Y382480D01*
X-290330Y376130D01*
X-290330Y338030D01*
X-271280Y318980D01*
X-271280Y312630D01*
X-271065Y315269D01*
G54D51*
X-271280Y566630D02*
X-290330Y585680D01*
X-404630Y585680D01*
X-417330Y572980D01*
X-417330Y560280D01*
X-303030Y445980D01*
X-303030Y376130D01*
X-296680Y369780D01*
X-296680Y331680D01*
X-290330Y325330D01*
X-290330Y312630D01*
X-271280Y293580D01*
X-271280Y287230D01*
X-271065Y289869D01*
G54D51*
X-245880Y566630D02*
X-271280Y592030D01*
X-410980Y592030D01*
X-423680Y579330D01*
X-423680Y553930D01*
X-309380Y439630D01*
X-309380Y369780D01*
X-303030Y363430D01*
X-303030Y325330D01*
X-296680Y318980D01*
X-296680Y306280D01*
X-290330Y299930D01*
X-290330Y287230D01*
X-271280Y268180D01*
X-271280Y261830D01*
X-271065Y264469D01*
X-322080Y566630D02*
G54D41*
D03*
G54D51*
X276053Y447619D02*
X274820Y445980D01*
X287520Y458680D01*
X287520Y471380D01*
X293870Y477730D01*
X293870Y496780D01*
X274820Y515830D01*
X274820Y592030D01*
X275340Y590148D01*
G54D51*
X272442Y265885D02*
X274820Y268180D01*
X300220Y242780D01*
X312920Y242780D01*
X312920Y239730D01*
G54D51*
X233785Y256706D02*
X236720Y255480D01*
X249420Y268180D01*
X274820Y268180D01*
X272442Y265885D01*
X-418600Y-365550D02*
G54D52*
D03*
X-418600Y459950D02*
G54D52*
D03*
X1118100Y-365550D02*
G54D52*
D03*
X1092700Y371050D02*
G54D52*
D03*
G36*
X-422250Y263700D02*
X-402250Y263700D01*
X-402250Y243700D01*
X-422250Y243700D01*
X-422250Y263700D01*
G37*
G36*
X-423520Y60500D02*
X-403520Y60500D01*
X-403520Y40500D01*
X-423520Y40500D01*
X-423520Y60500D01*
G37*
G36*
X-428600Y-155400D02*
X-408600Y-155400D01*
X-408600Y-175400D01*
X-428600Y-175400D01*
X-428600Y-155400D01*
G37*
G36*
X-276200Y-358600D02*
X-256200Y-358600D01*
X-256200Y-378600D01*
X-276200Y-378600D01*
X-276200Y-358600D01*
G37*
G36*
X3200Y-358600D02*
X23200Y-358600D01*
X23200Y-378600D01*
X3200Y-378600D01*
X3200Y-358600D01*
G37*
G36*
X295300Y-358600D02*
X315300Y-358600D01*
X315300Y-378600D01*
X295300Y-378600D01*
X295300Y-358600D01*
G37*
G36*
X1026800Y-229600D02*
X1046800Y-229600D01*
X1046800Y-249600D01*
X1026800Y-249600D01*
X1026800Y-229600D01*
G37*
G36*
X-187300Y593900D02*
X-167300Y593900D01*
X-167300Y573900D01*
X-187300Y573900D01*
X-187300Y593900D01*
G37*
X-312930Y-50220D02*
G54D42*
D03*
X-262130Y-50220D02*
G54D42*
D03*
X-287530Y-75620D02*
G54D42*
D03*
X-262130Y-101020D02*
G54D42*
D03*
X-312930Y-101020D02*
G54D42*
D03*
X-312930Y-228020D02*
G54D53*
D03*
X-262130Y-228020D02*
G54D41*
D03*
X-262130Y-291520D02*
G54D41*
D03*
X-312930Y-291520D02*
G54D41*
D03*
X-262130Y-228020D02*
G54D53*
D03*
X-312930Y-291520D02*
G54D53*
D03*
X-262130Y-291520D02*
G54D53*
D03*
X-312930Y-151820D02*
G54D41*
D03*
X-344497Y308527D02*
G54D41*
D03*
X-344547Y232277D02*
G54D41*
D03*
X-347000Y192000D02*
G54D41*
D03*
X-346000Y119000D02*
G54D41*
D03*
G54D51*
X-347000Y192000D02*
X-348000Y188000D01*
X-348000Y236000D01*
X-344547Y232277D01*
X-346000Y119000D02*
G54D41*
D03*
G54D51*
X-344497Y308527D02*
X-348000Y308000D01*
X-276000Y236000D01*
X-268000Y236000D01*
X-271065Y239069D01*
X503Y521527D02*
G54D41*
D03*
X453Y445277D02*
G54D41*
D03*
X-28000Y523000D02*
G54D41*
D03*
X-27000Y450000D02*
G54D41*
D03*
G54D43*
X-28000Y523000D02*
X-28000Y524000D01*
X20000Y572000D01*
X36000Y572000D01*
X44000Y580000D01*
X60000Y580000D01*
X58920Y582630D01*
G54D43*
X-27000Y450000D02*
X-28000Y452000D01*
X4000Y484000D01*
X4000Y524000D01*
X503Y521527D01*
X903159Y372282D02*
G54D41*
D03*
X979409Y372232D02*
G54D41*
D03*
X901686Y343779D02*
G54D41*
D03*
X974686Y344779D02*
G54D41*
D03*
X241503Y535527D02*
G54D41*
D03*
X241453Y459277D02*
G54D41*
D03*
X213000Y537000D02*
G54D41*
D03*
X214000Y464000D02*
G54D41*
D03*
G54D43*
X213000Y537000D02*
X212000Y540000D01*
X252000Y580000D01*
X316000Y580000D01*
X312920Y582630D01*
G54D43*
X213000Y537000D02*
X212000Y540000D01*
X220000Y532000D01*
X244000Y532000D01*
X241503Y535527D01*
X-140058Y586605D02*
G54D54*
D03*
X17942Y593605D02*
G54D54*
D03*
X244942Y592605D02*
G54D54*
D03*
X434942Y548605D02*
G54D54*
D03*
G54D55*
X17942Y593605D02*
X16942Y591605D01*
X12942Y587605D01*
X-139058Y587605D01*
X-140058Y586605D01*
G54D55*
X244942Y592605D02*
X244942Y591605D01*
X232942Y603605D01*
X40942Y603605D01*
X28942Y591605D01*
X16942Y591605D01*
X17942Y593605D01*
G54D55*
X434942Y548605D02*
X436942Y547605D01*
X408942Y575605D01*
X408942Y587605D01*
X392942Y603605D01*
X268942Y603605D01*
X256942Y591605D01*
X244942Y591605D01*
X244942Y592605D01*
X479787Y270217D02*
G54D41*
D03*
X479674Y321197D02*
G54D41*
D03*
X479674Y321197D02*
G54D41*
D03*
G54D27*
X-312930Y-151820D02*
X-312058Y-151395D01*
X-288058Y-127395D01*
X303942Y-127395D01*
X300220Y-128570D01*
X-229058Y417605D02*
G54D41*
D03*
G54D27*
X-287530Y-75620D02*
X-288058Y-79395D01*
X-288058Y-39395D01*
X-272058Y-23395D01*
X-256058Y-23395D01*
X-240058Y-39395D01*
X303942Y-39395D01*
X300220Y-39670D01*
X960942Y-2395D02*
G54D54*
D03*
X1038942Y-159395D02*
G54D54*
D03*
X865942Y-10395D02*
G54D54*
D03*
X865942Y-199395D02*
G54D54*
D03*
G54D27*
X960942Y-2395D02*
X959942Y605D01*
X959942Y-47395D01*
X960620Y-46070D01*
G54D27*
X865942Y-10395D02*
X863942Y-7395D01*
X863942Y-47395D01*
X865520Y-49070D01*
G54D27*
X865942Y-199395D02*
X863942Y-199395D01*
X863942Y-159395D01*
X864020Y-159670D01*
X854942Y299605D02*
G54D54*
D03*
G54D27*
X854942Y299605D02*
X855942Y296605D01*
X855942Y272605D01*
X852670Y269830D01*
X-229058Y-5395D02*
G54D54*
D03*
X-243058Y-334395D02*
G54D54*
D03*
X-241058Y-177395D02*
G54D54*
D03*
G54D27*
X-229058Y-5395D02*
X-232058Y-7395D01*
X-248058Y-23395D01*
X-272058Y-23395D01*
X-288058Y-39395D01*
X-288058Y-79395D01*
X-287530Y-75620D01*
X1135942Y35605D02*
G54D41*
D03*
X1135942Y9605D02*
G54D41*
D03*
X1135942Y-16395D02*
G54D41*
D03*
X1135942Y-43395D02*
G54D41*
D03*
X1135942Y-70395D02*
G54D41*
D03*
X1136942Y-95395D02*
G54D41*
D03*
X1137942Y-119395D02*
G54D41*
D03*
X1138942Y-145395D02*
G54D41*
D03*
X1139442Y-170395D02*
G54D41*
D03*
X1038942Y-5395D02*
G54D41*
D03*
X997942Y-6395D02*
G54D41*
D03*
G54D27*
X1038942Y-159395D02*
X1039942Y-159395D01*
X1039942Y-79395D01*
X1040970Y-82320D01*
G54D27*
X997942Y-6395D02*
X999942Y-7395D01*
X1039942Y-47395D01*
X1039942Y-79395D01*
X1040970Y-82320D01*
G54D27*
X1038942Y-5395D02*
X1039942Y-7395D01*
X1079942Y32605D01*
X1135942Y32605D01*
X1135942Y35605D01*
G54D27*
X1038942Y-5395D02*
X1039942Y-7395D01*
X1055942Y8605D01*
X1135942Y8605D01*
X1135942Y9605D01*
G54D27*
X1038942Y-5395D02*
X1039942Y-7395D01*
X1047942Y-15395D01*
X1135942Y-15395D01*
X1135942Y-16395D01*
G54D27*
X1038942Y-5395D02*
X1039942Y-7395D01*
X1063942Y-31395D01*
X1071942Y-31395D01*
X1079942Y-39395D01*
X1087942Y-39395D01*
X1095942Y-47395D01*
X1135942Y-47395D01*
X1135942Y-43395D01*
G54D27*
X1038942Y-5395D02*
X1039942Y-7395D01*
X1063942Y-31395D01*
X1071942Y-31395D01*
X1079942Y-39395D01*
X1087942Y-39395D01*
X1119942Y-71395D01*
X1135942Y-71395D01*
X1135942Y-70395D01*
G54D27*
X1038942Y-5395D02*
X1039942Y-7395D01*
X1063942Y-31395D01*
X1071942Y-31395D01*
X1079942Y-39395D01*
X1087942Y-39395D01*
X1135942Y-87395D01*
X1135942Y-95395D01*
X1136942Y-95395D01*
G54D27*
X1038942Y-5395D02*
X1039942Y-7395D01*
X1063942Y-31395D01*
X1071942Y-31395D01*
X1079942Y-39395D01*
X1087942Y-39395D01*
X1135942Y-87395D01*
X1135942Y-119395D01*
X1137942Y-119395D01*
G54D27*
X1038942Y-5395D02*
X1039942Y-7395D01*
X1063942Y-31395D01*
X1071942Y-31395D01*
X1079942Y-39395D01*
X1087942Y-39395D01*
X1135942Y-87395D01*
X1135942Y-143395D01*
X1138942Y-145395D01*
G54D27*
X1038942Y-5395D02*
X1039942Y-7395D01*
X1063942Y-31395D01*
X1071942Y-31395D01*
X1079942Y-39395D01*
X1087942Y-39395D01*
X1135942Y-87395D01*
X1135942Y-167395D01*
X1139442Y-170395D01*
G54D27*
X1040970Y-82320D02*
X1039942Y-79395D01*
X1039942Y-47395D01*
X1023942Y-31395D01*
X1007942Y-31395D01*
X991942Y-47395D01*
X959942Y-47395D01*
X960620Y-46070D01*
M02*
