%FSLAX34Y34*%
%MOMM*%
%LNCOPPER_TOP*%
G71*
G01*
%ADD10C,2.800*%
%ADD11C,3.200*%
%ADD12C,3.000*%
%ADD13C,3.000*%
%ADD14C,2.800*%
%ADD15C,2.600*%
%ADD16C,1.600*%
%ADD17C,4.800*%
%ADD18C,2.800*%
%ADD19C,3.000*%
%ADD20C,3.800*%
%ADD21C,0.733*%
%ADD22C,0.667*%
%ADD23C,0.813*%
%ADD24C,1.333*%
%ADD25C,1.000*%
%ADD26C,2.000*%
%ADD27C,2.000*%
%ADD28C,2.200*%
%ADD29C,1.800*%
%ADD30C,0.800*%
%ADD31C,4.000*%
%ADD32C,2.000*%
%ADD33C,2.200*%
%ADD34C,3.000*%
%LPD*%
G36*
X0Y500000D02*
X900000Y500000D01*
X900000Y0D01*
X0Y0D01*
X0Y500000D01*
G37*
%LPC*%
X260350Y369950D02*
G54D10*
D03*
X285750Y369950D02*
G54D10*
D03*
X311150Y369950D02*
G54D10*
D03*
X648055Y307221D02*
G54D10*
D03*
X622655Y307221D02*
G54D10*
D03*
X597255Y307221D02*
G54D10*
D03*
X216949Y302523D02*
G54D11*
D03*
X165969Y302411D02*
G54D11*
D03*
X257175Y299975D02*
G54D11*
D03*
X257125Y223725D02*
G54D11*
D03*
X66650Y341350D02*
G54D12*
D03*
X117450Y341350D02*
G54D12*
D03*
X92050Y315950D02*
G54D12*
D03*
X117450Y290550D02*
G54D12*
D03*
X66650Y290550D02*
G54D12*
D03*
X168275Y452375D02*
G54D11*
D03*
X168225Y376125D02*
G54D11*
D03*
X307975Y299975D02*
G54D11*
D03*
X307925Y223725D02*
G54D11*
D03*
X293149Y442223D02*
G54D11*
D03*
X242169Y442111D02*
G54D11*
D03*
X358775Y299975D02*
G54D13*
D03*
X358725Y223725D02*
G54D13*
D03*
X314284Y184661D02*
G54D11*
D03*
X365265Y184773D02*
G54D11*
D03*
X259773Y191898D02*
G54D11*
D03*
X183523Y191948D02*
G54D11*
D03*
X140749Y239023D02*
G54D11*
D03*
X89769Y238911D02*
G54D11*
D03*
X140749Y188223D02*
G54D11*
D03*
X89769Y188111D02*
G54D11*
D03*
X95162Y115950D02*
G54D14*
D03*
X130262Y115950D02*
G54D14*
D03*
X259773Y128398D02*
G54D11*
D03*
X183523Y128448D02*
G54D11*
D03*
X298450Y87250D02*
G54D15*
D03*
X298450Y138050D02*
G54D15*
D03*
X432849Y137423D02*
G54D11*
D03*
X381869Y137311D02*
G54D11*
D03*
X424873Y445898D02*
G54D11*
D03*
X348623Y445948D02*
G54D11*
D03*
X628650Y392050D02*
G54D14*
D03*
X704850Y392050D02*
G54D14*
D03*
X813849Y226324D02*
G54D11*
D03*
X762868Y226211D02*
G54D11*
D03*
X412750Y392050D02*
G54D14*
D03*
X412750Y303150D02*
G54D14*
D03*
X527050Y392050D02*
G54D14*
D03*
X527050Y303150D02*
G54D14*
D03*
X413448Y190660D02*
G54D11*
D03*
X413335Y241640D02*
G54D11*
D03*
X738325Y445425D02*
G54D11*
D03*
X763825Y445425D02*
G54D11*
D03*
X807148Y393860D02*
G54D11*
D03*
X807035Y444840D02*
G54D11*
D03*
X730250Y176150D02*
G54D14*
D03*
X819150Y176150D02*
G54D14*
D03*
X730250Y87250D02*
G54D14*
D03*
X819150Y87250D02*
G54D14*
D03*
X534450Y442223D02*
G54D11*
D03*
X483470Y442110D02*
G54D11*
D03*
X752450Y341350D02*
G54D12*
D03*
X803250Y341350D02*
G54D12*
D03*
X777850Y315950D02*
G54D12*
D03*
X803250Y290550D02*
G54D12*
D03*
X752450Y290550D02*
G54D12*
D03*
X527050Y252350D02*
G54D14*
D03*
X527050Y150750D02*
G54D14*
D03*
X476948Y190660D02*
G54D11*
D03*
X476835Y241640D02*
G54D11*
D03*
G54D16*
X819150Y87250D02*
X730250Y176150D01*
G54D16*
X763825Y445425D02*
X762000Y442850D01*
X742950Y423800D01*
X730250Y423800D01*
X717550Y436500D01*
X622300Y436500D01*
X425450Y239650D01*
X412750Y239650D01*
X413335Y241640D01*
X460350Y352450D02*
G54D17*
D03*
X89769Y188111D02*
G54D18*
D03*
X89769Y238911D02*
G54D18*
D03*
X432849Y137423D02*
G54D18*
D03*
X704850Y392050D02*
G54D18*
D03*
X358725Y223725D02*
G54D18*
D03*
X307925Y223725D02*
G54D19*
D03*
X314284Y184661D02*
G54D19*
D03*
X413448Y190660D02*
G54D19*
D03*
X476948Y190660D02*
G54D19*
D03*
X298450Y87250D02*
G54D18*
D03*
X89769Y238911D02*
G54D19*
D03*
X89769Y188111D02*
G54D19*
D03*
X95162Y115950D02*
G54D19*
D03*
X432849Y137423D02*
G54D19*
D03*
X358725Y223725D02*
G54D19*
D03*
X807148Y393860D02*
G54D19*
D03*
X597255Y307221D02*
G54D18*
D03*
X307975Y299975D02*
G54D13*
D03*
X307925Y223725D02*
G54D13*
D03*
G36*
X37523Y477648D02*
X75523Y477648D01*
X75523Y439648D01*
X37523Y439648D01*
X37523Y477648D01*
G37*
G36*
X831273Y483998D02*
X869273Y483998D01*
X869273Y445998D01*
X831273Y445998D01*
X831273Y483998D01*
G37*
G36*
X37523Y45848D02*
X75523Y45848D01*
X75523Y7848D01*
X37523Y7848D01*
X37523Y45848D01*
G37*
G36*
X831273Y45848D02*
X869273Y45848D01*
X869273Y7848D01*
X831273Y7848D01*
X831273Y45848D01*
G37*
X180950Y34950D02*
G54D20*
D03*
X676250Y34950D02*
G54D20*
D03*
X638150Y473100D02*
G54D20*
D03*
%LPD*%
G54D21*
G36*
X62983Y341350D02*
X62983Y356850D01*
X70317Y356850D01*
X70317Y341350D01*
X62983Y341350D01*
G37*
G36*
X66650Y345017D02*
X82150Y345017D01*
X82150Y337683D01*
X66650Y337683D01*
X66650Y345017D01*
G37*
G36*
X70317Y341350D02*
X70317Y325850D01*
X62983Y325850D01*
X62983Y341350D01*
X70317Y341350D01*
G37*
G36*
X66650Y337683D02*
X51150Y337683D01*
X51150Y345017D01*
X66650Y345017D01*
X66650Y337683D01*
G37*
G54D21*
G36*
X113783Y341350D02*
X113783Y356850D01*
X121117Y356850D01*
X121117Y341350D01*
X113783Y341350D01*
G37*
G36*
X117450Y345017D02*
X132950Y345017D01*
X132950Y337683D01*
X117450Y337683D01*
X117450Y345017D01*
G37*
G36*
X121117Y341350D02*
X121117Y325850D01*
X113783Y325850D01*
X113783Y341350D01*
X121117Y341350D01*
G37*
G36*
X117450Y337683D02*
X101950Y337683D01*
X101950Y345017D01*
X117450Y345017D01*
X117450Y337683D01*
G37*
G54D21*
G36*
X113783Y290550D02*
X113783Y306050D01*
X121117Y306050D01*
X121117Y290550D01*
X113783Y290550D01*
G37*
G36*
X117450Y294217D02*
X132950Y294217D01*
X132950Y286883D01*
X117450Y286883D01*
X117450Y294217D01*
G37*
G36*
X121117Y290550D02*
X121117Y275050D01*
X113783Y275050D01*
X113783Y290550D01*
X121117Y290550D01*
G37*
G36*
X117450Y286883D02*
X101950Y286883D01*
X101950Y294217D01*
X117450Y294217D01*
X117450Y286883D01*
G37*
G54D21*
G36*
X62983Y290550D02*
X62983Y306050D01*
X70317Y306050D01*
X70317Y290550D01*
X62983Y290550D01*
G37*
G36*
X66650Y294217D02*
X82150Y294217D01*
X82150Y286883D01*
X66650Y286883D01*
X66650Y294217D01*
G37*
G36*
X70317Y290550D02*
X70317Y275050D01*
X62983Y275050D01*
X62983Y290550D01*
X70317Y290550D01*
G37*
G36*
X66650Y286883D02*
X51150Y286883D01*
X51150Y294217D01*
X66650Y294217D01*
X66650Y286883D01*
G37*
G54D22*
G36*
X734992Y445425D02*
X734992Y461925D01*
X741658Y461925D01*
X741658Y445425D01*
X734992Y445425D01*
G37*
G54D23*
G54D21*
G36*
X748783Y341350D02*
X748783Y356850D01*
X756117Y356850D01*
X756117Y341350D01*
X748783Y341350D01*
G37*
G36*
X752450Y345017D02*
X767950Y345017D01*
X767950Y337683D01*
X752450Y337683D01*
X752450Y345017D01*
G37*
G36*
X756117Y341350D02*
X756117Y325850D01*
X748783Y325850D01*
X748783Y341350D01*
X756117Y341350D01*
G37*
G36*
X752450Y337683D02*
X736950Y337683D01*
X736950Y345017D01*
X752450Y345017D01*
X752450Y337683D01*
G37*
G54D21*
G36*
X799583Y341350D02*
X799583Y356850D01*
X806917Y356850D01*
X806917Y341350D01*
X799583Y341350D01*
G37*
G36*
X803250Y345017D02*
X818750Y345017D01*
X818750Y337683D01*
X803250Y337683D01*
X803250Y345017D01*
G37*
G36*
X806917Y341350D02*
X806917Y325850D01*
X799583Y325850D01*
X799583Y341350D01*
X806917Y341350D01*
G37*
G36*
X803250Y337683D02*
X787750Y337683D01*
X787750Y345017D01*
X803250Y345017D01*
X803250Y337683D01*
G37*
G54D21*
G36*
X799583Y290550D02*
X799583Y306050D01*
X806917Y306050D01*
X806917Y290550D01*
X799583Y290550D01*
G37*
G36*
X803250Y294217D02*
X818750Y294217D01*
X818750Y286883D01*
X803250Y286883D01*
X803250Y294217D01*
G37*
G36*
X806917Y290550D02*
X806917Y275050D01*
X799583Y275050D01*
X799583Y290550D01*
X806917Y290550D01*
G37*
G36*
X803250Y286883D02*
X787750Y286883D01*
X787750Y294217D01*
X803250Y294217D01*
X803250Y286883D01*
G37*
G54D21*
G36*
X748783Y290550D02*
X748783Y306050D01*
X756117Y306050D01*
X756117Y290550D01*
X748783Y290550D01*
G37*
G36*
X752450Y294217D02*
X767950Y294217D01*
X767950Y286883D01*
X752450Y286883D01*
X752450Y294217D01*
G37*
G36*
X756117Y290550D02*
X756117Y275050D01*
X748783Y275050D01*
X748783Y290550D01*
X756117Y290550D01*
G37*
G36*
X752450Y286883D02*
X736950Y286883D01*
X736950Y294217D01*
X752450Y294217D01*
X752450Y286883D01*
G37*
G54D24*
G36*
X453683Y352450D02*
X453683Y376950D01*
X467017Y376950D01*
X467017Y352450D01*
X453683Y352450D01*
G37*
G36*
X460350Y359117D02*
X484850Y359117D01*
X484850Y345783D01*
X460350Y345783D01*
X460350Y359117D01*
G37*
G36*
X467017Y352450D02*
X467017Y327950D01*
X453683Y327950D01*
X453683Y352450D01*
X467017Y352450D01*
G37*
G36*
X460350Y345783D02*
X435850Y345783D01*
X435850Y359117D01*
X460350Y359117D01*
X460350Y345783D01*
G37*
G54D22*
G36*
X86436Y188111D02*
X86436Y202611D01*
X93102Y202611D01*
X93102Y188111D01*
X86436Y188111D01*
G37*
G36*
X89769Y191444D02*
X104269Y191444D01*
X104269Y184778D01*
X89769Y184778D01*
X89769Y191444D01*
G37*
G36*
X93102Y188111D02*
X93102Y173611D01*
X86436Y173611D01*
X86436Y188111D01*
X93102Y188111D01*
G37*
G36*
X89769Y184778D02*
X75269Y184778D01*
X75269Y191444D01*
X89769Y191444D01*
X89769Y184778D01*
G37*
G54D22*
G36*
X86436Y238911D02*
X86436Y253411D01*
X93102Y253411D01*
X93102Y238911D01*
X86436Y238911D01*
G37*
G36*
X89769Y242244D02*
X104269Y242244D01*
X104269Y235578D01*
X89769Y235578D01*
X89769Y242244D01*
G37*
G36*
X93102Y238911D02*
X93102Y224411D01*
X86436Y224411D01*
X86436Y238911D01*
X93102Y238911D01*
G37*
G36*
X89769Y235578D02*
X75269Y235578D01*
X75269Y242244D01*
X89769Y242244D01*
X89769Y235578D01*
G37*
G54D22*
G36*
X429516Y137423D02*
X429516Y151923D01*
X436182Y151923D01*
X436182Y137423D01*
X429516Y137423D01*
G37*
G36*
X432849Y140756D02*
X447349Y140756D01*
X447349Y134090D01*
X432849Y134090D01*
X432849Y140756D01*
G37*
G36*
X436182Y137423D02*
X436182Y122923D01*
X429516Y122923D01*
X429516Y137423D01*
X436182Y137423D01*
G37*
G36*
X432849Y134090D02*
X418349Y134090D01*
X418349Y140756D01*
X432849Y140756D01*
X432849Y134090D01*
G37*
G54D22*
G36*
X701517Y392050D02*
X701517Y406550D01*
X708183Y406550D01*
X708183Y392050D01*
X701517Y392050D01*
G37*
G36*
X704850Y395383D02*
X719350Y395383D01*
X719350Y388717D01*
X704850Y388717D01*
X704850Y395383D01*
G37*
G36*
X708183Y392050D02*
X708183Y377550D01*
X701517Y377550D01*
X701517Y392050D01*
X708183Y392050D01*
G37*
G36*
X704850Y388717D02*
X690350Y388717D01*
X690350Y395383D01*
X704850Y395383D01*
X704850Y388717D01*
G37*
G54D22*
G36*
X355392Y223725D02*
X355392Y238225D01*
X362058Y238225D01*
X362058Y223725D01*
X355392Y223725D01*
G37*
G36*
X358725Y227058D02*
X373225Y227058D01*
X373225Y220392D01*
X358725Y220392D01*
X358725Y227058D01*
G37*
G36*
X362058Y223725D02*
X362058Y209225D01*
X355392Y209225D01*
X355392Y223725D01*
X362058Y223725D01*
G37*
G36*
X358725Y220392D02*
X344225Y220392D01*
X344225Y227058D01*
X358725Y227058D01*
X358725Y220392D01*
G37*
G54D21*
G36*
X304258Y223725D02*
X304258Y239225D01*
X311592Y239225D01*
X311592Y223725D01*
X304258Y223725D01*
G37*
G36*
X307925Y227392D02*
X323425Y227392D01*
X323425Y220058D01*
X307925Y220058D01*
X307925Y227392D01*
G37*
G36*
X311592Y223725D02*
X311592Y208225D01*
X304258Y208225D01*
X304258Y223725D01*
X311592Y223725D01*
G37*
G36*
X307925Y220058D02*
X292425Y220058D01*
X292425Y227392D01*
X307925Y227392D01*
X307925Y220058D01*
G37*
G54D21*
G36*
X310617Y184661D02*
X310617Y200161D01*
X317951Y200161D01*
X317951Y184661D01*
X310617Y184661D01*
G37*
G36*
X314284Y188327D02*
X329784Y188327D01*
X329784Y180994D01*
X314284Y180994D01*
X314284Y188327D01*
G37*
G36*
X317951Y184661D02*
X317951Y169161D01*
X310617Y169161D01*
X310617Y184661D01*
X317951Y184661D01*
G37*
G36*
X314284Y180994D02*
X298784Y180994D01*
X298784Y188327D01*
X314284Y188327D01*
X314284Y180994D01*
G37*
G54D21*
G36*
X409781Y190660D02*
X409781Y206160D01*
X417114Y206160D01*
X417114Y190660D01*
X409781Y190660D01*
G37*
G36*
X413448Y194326D02*
X428948Y194326D01*
X428948Y186993D01*
X413448Y186993D01*
X413448Y194326D01*
G37*
G36*
X417114Y190660D02*
X417114Y175160D01*
X409781Y175160D01*
X409781Y190660D01*
X417114Y190660D01*
G37*
G36*
X413448Y186993D02*
X397948Y186993D01*
X397948Y194326D01*
X413448Y194326D01*
X413448Y186993D01*
G37*
G54D21*
G36*
X473281Y190660D02*
X473281Y206160D01*
X480614Y206160D01*
X480614Y190660D01*
X473281Y190660D01*
G37*
G36*
X476948Y194326D02*
X492448Y194326D01*
X492448Y186993D01*
X476948Y186993D01*
X476948Y194326D01*
G37*
G36*
X480614Y190660D02*
X480614Y175160D01*
X473281Y175160D01*
X473281Y190660D01*
X480614Y190660D01*
G37*
G36*
X476948Y186993D02*
X461448Y186993D01*
X461448Y194326D01*
X476948Y194326D01*
X476948Y186993D01*
G37*
G54D22*
G36*
X295117Y87250D02*
X295117Y101750D01*
X301783Y101750D01*
X301783Y87250D01*
X295117Y87250D01*
G37*
G36*
X298450Y90583D02*
X312950Y90583D01*
X312950Y83917D01*
X298450Y83917D01*
X298450Y90583D01*
G37*
G36*
X301783Y87250D02*
X301783Y72750D01*
X295117Y72750D01*
X295117Y87250D01*
X301783Y87250D01*
G37*
G36*
X298450Y83917D02*
X283950Y83917D01*
X283950Y90583D01*
X298450Y90583D01*
X298450Y83917D01*
G37*
G54D21*
G36*
X86102Y238911D02*
X86102Y254411D01*
X93435Y254411D01*
X93435Y238911D01*
X86102Y238911D01*
G37*
G36*
X89769Y242578D02*
X105269Y242578D01*
X105269Y235244D01*
X89769Y235244D01*
X89769Y242578D01*
G37*
G36*
X93435Y238911D02*
X93435Y223411D01*
X86102Y223411D01*
X86102Y238911D01*
X93435Y238911D01*
G37*
G36*
X89769Y235244D02*
X74269Y235244D01*
X74269Y242578D01*
X89769Y242578D01*
X89769Y235244D01*
G37*
G54D21*
G36*
X86102Y188111D02*
X86102Y203611D01*
X93435Y203611D01*
X93435Y188111D01*
X86102Y188111D01*
G37*
G36*
X89769Y191778D02*
X105269Y191778D01*
X105269Y184444D01*
X89769Y184444D01*
X89769Y191778D01*
G37*
G36*
X93435Y188111D02*
X93435Y172611D01*
X86102Y172611D01*
X86102Y188111D01*
X93435Y188111D01*
G37*
G36*
X89769Y184444D02*
X74269Y184444D01*
X74269Y191778D01*
X89769Y191778D01*
X89769Y184444D01*
G37*
G54D21*
G36*
X91495Y115950D02*
X91495Y131450D01*
X98829Y131450D01*
X98829Y115950D01*
X91495Y115950D01*
G37*
G36*
X95162Y119617D02*
X110662Y119617D01*
X110662Y112283D01*
X95162Y112283D01*
X95162Y119617D01*
G37*
G36*
X98829Y115950D02*
X98829Y100450D01*
X91495Y100450D01*
X91495Y115950D01*
X98829Y115950D01*
G37*
G36*
X95162Y112283D02*
X79662Y112283D01*
X79662Y119617D01*
X95162Y119617D01*
X95162Y112283D01*
G37*
G54D21*
G36*
X429182Y137423D02*
X429182Y152923D01*
X436516Y152923D01*
X436516Y137423D01*
X429182Y137423D01*
G37*
G36*
X432849Y141090D02*
X448349Y141090D01*
X448349Y133756D01*
X432849Y133756D01*
X432849Y141090D01*
G37*
G36*
X436516Y137423D02*
X436516Y121923D01*
X429182Y121923D01*
X429182Y137423D01*
X436516Y137423D01*
G37*
G36*
X432849Y133756D02*
X417349Y133756D01*
X417349Y141090D01*
X432849Y141090D01*
X432849Y133756D01*
G37*
G54D21*
G36*
X355058Y223725D02*
X355058Y239225D01*
X362392Y239225D01*
X362392Y223725D01*
X355058Y223725D01*
G37*
G36*
X358725Y227392D02*
X374225Y227392D01*
X374225Y220058D01*
X358725Y220058D01*
X358725Y227392D01*
G37*
G36*
X362392Y223725D02*
X362392Y208225D01*
X355058Y208225D01*
X355058Y223725D01*
X362392Y223725D01*
G37*
G36*
X358725Y220058D02*
X343225Y220058D01*
X343225Y227392D01*
X358725Y227392D01*
X358725Y220058D01*
G37*
G54D21*
G36*
X803481Y393860D02*
X803481Y409360D01*
X810814Y409360D01*
X810814Y393860D01*
X803481Y393860D01*
G37*
G36*
X807148Y397526D02*
X822648Y397526D01*
X822648Y390193D01*
X807148Y390193D01*
X807148Y397526D01*
G37*
G36*
X810814Y393860D02*
X810814Y378360D01*
X803481Y378360D01*
X803481Y393860D01*
X810814Y393860D01*
G37*
G36*
X807148Y390193D02*
X791648Y390193D01*
X791648Y397526D01*
X807148Y397526D01*
X807148Y390193D01*
G37*
G54D22*
G36*
X593922Y307221D02*
X593922Y321721D01*
X600588Y321721D01*
X600588Y307221D01*
X593922Y307221D01*
G37*
G36*
X597255Y310554D02*
X611755Y310554D01*
X611755Y303888D01*
X597255Y303888D01*
X597255Y310554D01*
G37*
G36*
X600588Y307221D02*
X600588Y292721D01*
X593922Y292721D01*
X593922Y307221D01*
X600588Y307221D01*
G37*
G36*
X597255Y303888D02*
X582755Y303888D01*
X582755Y310554D01*
X597255Y310554D01*
X597255Y303888D01*
G37*
G54D25*
G36*
X51523Y458648D02*
X51523Y478148D01*
X61523Y478148D01*
X61523Y458648D01*
X51523Y458648D01*
G37*
G36*
X56523Y463648D02*
X76023Y463648D01*
X76023Y453648D01*
X56523Y453648D01*
X56523Y463648D01*
G37*
G36*
X61523Y458648D02*
X61523Y439148D01*
X51523Y439148D01*
X51523Y458648D01*
X61523Y458648D01*
G37*
G36*
X56523Y453648D02*
X37023Y453648D01*
X37023Y463648D01*
X56523Y463648D01*
X56523Y453648D01*
G37*
G54D25*
G36*
X845273Y464998D02*
X845273Y484498D01*
X855273Y484498D01*
X855273Y464998D01*
X845273Y464998D01*
G37*
G36*
X850273Y469998D02*
X869773Y469998D01*
X869773Y459998D01*
X850273Y459998D01*
X850273Y469998D01*
G37*
G36*
X855273Y464998D02*
X855273Y445498D01*
X845273Y445498D01*
X845273Y464998D01*
X855273Y464998D01*
G37*
G36*
X850273Y459998D02*
X830773Y459998D01*
X830773Y469998D01*
X850273Y469998D01*
X850273Y459998D01*
G37*
G54D25*
G36*
X51523Y26848D02*
X51523Y46348D01*
X61523Y46348D01*
X61523Y26848D01*
X51523Y26848D01*
G37*
G36*
X56523Y31848D02*
X76023Y31848D01*
X76023Y21848D01*
X56523Y21848D01*
X56523Y31848D01*
G37*
G36*
X61523Y26848D02*
X61523Y7348D01*
X51523Y7348D01*
X51523Y26848D01*
X61523Y26848D01*
G37*
G36*
X56523Y21848D02*
X37023Y21848D01*
X37023Y31848D01*
X56523Y31848D01*
X56523Y21848D01*
G37*
G54D25*
G36*
X845273Y26848D02*
X845273Y46348D01*
X855273Y46348D01*
X855273Y26848D01*
X845273Y26848D01*
G37*
G36*
X850273Y31848D02*
X869773Y31848D01*
X869773Y21848D01*
X850273Y21848D01*
X850273Y31848D01*
G37*
G36*
X855273Y26848D02*
X855273Y7348D01*
X845273Y7348D01*
X845273Y26848D01*
X855273Y26848D01*
G37*
G36*
X850273Y21848D02*
X830773Y21848D01*
X830773Y31848D01*
X850273Y31848D01*
X850273Y21848D01*
G37*
G54D25*
G36*
X175950Y34950D02*
X175950Y54450D01*
X185950Y54450D01*
X185950Y34950D01*
X175950Y34950D01*
G37*
G36*
X180950Y39950D02*
X200450Y39950D01*
X200450Y29950D01*
X180950Y29950D01*
X180950Y39950D01*
G37*
G36*
X185950Y34950D02*
X185950Y15450D01*
X175950Y15450D01*
X175950Y34950D01*
X185950Y34950D01*
G37*
G36*
X180950Y29950D02*
X161450Y29950D01*
X161450Y39950D01*
X180950Y39950D01*
X180950Y29950D01*
G37*
G54D25*
G36*
X671250Y34950D02*
X671250Y54450D01*
X681250Y54450D01*
X681250Y34950D01*
X671250Y34950D01*
G37*
G36*
X676250Y39950D02*
X695750Y39950D01*
X695750Y29950D01*
X676250Y29950D01*
X676250Y39950D01*
G37*
G36*
X681250Y34950D02*
X681250Y15450D01*
X671250Y15450D01*
X671250Y34950D01*
X681250Y34950D01*
G37*
G36*
X676250Y29950D02*
X656750Y29950D01*
X656750Y39950D01*
X676250Y39950D01*
X676250Y29950D01*
G37*
G54D25*
G36*
X633150Y473100D02*
X633150Y492600D01*
X643150Y492600D01*
X643150Y473100D01*
X633150Y473100D01*
G37*
G36*
X638150Y478100D02*
X657650Y478100D01*
X657650Y468100D01*
X638150Y468100D01*
X638150Y478100D01*
G37*
G36*
X643150Y473100D02*
X643150Y453600D01*
X633150Y453600D01*
X633150Y473100D01*
X643150Y473100D01*
G37*
G36*
X638150Y468100D02*
X618650Y468100D01*
X618650Y478100D01*
X638150Y478100D01*
X638150Y468100D01*
G37*
X260350Y369950D02*
G54D26*
D03*
X285750Y369950D02*
G54D26*
D03*
X311150Y369950D02*
G54D26*
D03*
X648055Y307221D02*
G54D26*
D03*
X622655Y307221D02*
G54D26*
D03*
X597255Y307221D02*
G54D26*
D03*
X216949Y302523D02*
G54D27*
D03*
X165969Y302411D02*
G54D27*
D03*
X257175Y299975D02*
G54D27*
D03*
X257125Y223725D02*
G54D27*
D03*
X66650Y341350D02*
G54D28*
D03*
X117450Y341350D02*
G54D28*
D03*
X92050Y315950D02*
G54D28*
D03*
X117450Y290550D02*
G54D28*
D03*
X66650Y290550D02*
G54D28*
D03*
X168275Y452375D02*
G54D27*
D03*
X168225Y376125D02*
G54D27*
D03*
X307975Y299975D02*
G54D27*
D03*
X307925Y223725D02*
G54D27*
D03*
X293149Y442223D02*
G54D27*
D03*
X242169Y442111D02*
G54D27*
D03*
X358775Y299975D02*
G54D29*
D03*
X358725Y223725D02*
G54D29*
D03*
X314284Y184661D02*
G54D27*
D03*
X365265Y184773D02*
G54D27*
D03*
X259773Y191898D02*
G54D27*
D03*
X183523Y191948D02*
G54D27*
D03*
X140749Y239023D02*
G54D27*
D03*
X89769Y238911D02*
G54D27*
D03*
X140749Y188223D02*
G54D27*
D03*
X89769Y188111D02*
G54D27*
D03*
X95162Y115950D02*
G54D27*
D03*
X130262Y115950D02*
G54D27*
D03*
X259773Y128398D02*
G54D27*
D03*
X183523Y128448D02*
G54D27*
D03*
X298450Y87250D02*
G54D29*
D03*
X298450Y138050D02*
G54D29*
D03*
X432849Y137423D02*
G54D27*
D03*
X381869Y137311D02*
G54D27*
D03*
X424873Y445898D02*
G54D27*
D03*
X348623Y445948D02*
G54D27*
D03*
X628650Y392050D02*
G54D27*
D03*
X704850Y392050D02*
G54D27*
D03*
X813849Y226324D02*
G54D27*
D03*
X762868Y226211D02*
G54D27*
D03*
X412750Y392050D02*
G54D27*
D03*
X412750Y303150D02*
G54D27*
D03*
X527050Y392050D02*
G54D27*
D03*
X527050Y303150D02*
G54D27*
D03*
X413448Y190660D02*
G54D27*
D03*
X413335Y241640D02*
G54D27*
D03*
X738325Y445425D02*
G54D27*
D03*
X763825Y445425D02*
G54D27*
D03*
X807148Y393860D02*
G54D27*
D03*
X807035Y444840D02*
G54D27*
D03*
X730250Y176150D02*
G54D27*
D03*
X819150Y176150D02*
G54D27*
D03*
X730250Y87250D02*
G54D27*
D03*
X819150Y87250D02*
G54D27*
D03*
X534450Y442223D02*
G54D27*
D03*
X483470Y442110D02*
G54D27*
D03*
X752450Y341350D02*
G54D28*
D03*
X803250Y341350D02*
G54D28*
D03*
X777850Y315950D02*
G54D28*
D03*
X803250Y290550D02*
G54D28*
D03*
X752450Y290550D02*
G54D28*
D03*
X527050Y252350D02*
G54D27*
D03*
X527050Y150750D02*
G54D27*
D03*
X476948Y190660D02*
G54D27*
D03*
X476835Y241640D02*
G54D27*
D03*
G54D30*
X819150Y87250D02*
X730250Y176150D01*
G54D30*
X763825Y445425D02*
X762000Y442850D01*
X742950Y423800D01*
X730250Y423800D01*
X717550Y436500D01*
X622300Y436500D01*
X425450Y239650D01*
X412750Y239650D01*
X413335Y241640D01*
X460350Y352450D02*
G54D31*
D03*
X89769Y188111D02*
G54D32*
D03*
X89769Y238911D02*
G54D32*
D03*
X432849Y137423D02*
G54D32*
D03*
X704850Y392050D02*
G54D32*
D03*
X358725Y223725D02*
G54D32*
D03*
X307925Y223725D02*
G54D33*
D03*
X314284Y184661D02*
G54D33*
D03*
X413448Y190660D02*
G54D33*
D03*
X476948Y190660D02*
G54D33*
D03*
X298450Y87250D02*
G54D32*
D03*
X89769Y238911D02*
G54D33*
D03*
X89769Y188111D02*
G54D33*
D03*
X95162Y115950D02*
G54D33*
D03*
X432849Y137423D02*
G54D33*
D03*
X358725Y223725D02*
G54D33*
D03*
X807148Y393860D02*
G54D33*
D03*
X597255Y307221D02*
G54D32*
D03*
X307975Y299975D02*
G54D29*
D03*
X307925Y223725D02*
G54D29*
D03*
G36*
X41523Y473648D02*
X71523Y473648D01*
X71523Y443648D01*
X41523Y443648D01*
X41523Y473648D01*
G37*
G36*
X835273Y479998D02*
X865273Y479998D01*
X865273Y449998D01*
X835273Y449998D01*
X835273Y479998D01*
G37*
G36*
X41523Y41848D02*
X71523Y41848D01*
X71523Y11848D01*
X41523Y11848D01*
X41523Y41848D01*
G37*
G36*
X835273Y41848D02*
X865273Y41848D01*
X865273Y11848D01*
X835273Y11848D01*
X835273Y41848D01*
G37*
X180950Y34950D02*
G54D34*
D03*
X676250Y34950D02*
G54D34*
D03*
X638150Y473100D02*
G54D34*
D03*
M02*
