; Drill file
; Format: 2.4 (00.0000)
M48
INCH
T01C0.0236
T02C0.0354
T03C0.0394
T04C0.063
T05C0.0787
%
G05
G90
T01
X011750Y003440
X011750Y005440
X014130Y011810
T02
X003750Y004560
X005130Y004560
X007230Y005060
X007230Y007560
X005540Y007410
X005540Y009410
X003530Y009410
X003530Y007410
X006530Y011910
X008540Y011910
X010120Y011810
X012120Y011810
X012120Y008810
X012370Y007270
X014380Y007270
X014120Y008810
X016270Y009510
X016280Y007510
X017040Y005410
X015030Y005410
X018780Y007510
X018770Y009510
X020750Y009940
X020750Y011940
X020750Y015440
X021040Y017410
X019030Y017410
X016730Y017560
X016250Y015440
X013730Y017560
X011540Y017410
X009530Y017410
X006620Y017810
X006620Y014810
X010120Y008810
X010230Y007560
X010230Y005060
X016250Y011940
X020750Y005940
X028750Y006940
X030030Y008910
X032040Y008910
X032250Y006940
X032250Y003440
X028750Y003440
X027750Y015440
X029070Y017540
X030070Y017540
X031770Y017510
X031780Y015510
X024750Y015440
T03
X010250Y014560
X011250Y014560
X012250Y014560
X023510Y012100
X024510Y012100
X025510Y012100
T04
X002620Y011440
X003620Y012440
X002620Y013440
X004620Y013440
X004620Y011440
X029620Y011440
X030620Y012440
X029620Y013440
X031620Y013440
X031620Y011440
T05
X002230Y001060
X007120Y001380
X018120Y013880
X025120Y018630
X033480Y018310
X033480Y001060
X026620Y001380
X002230Y018060
M30
