%FSLAX34Y34*%
%MOMM*%
%LNCOPPER_BOTTOM*%
G71*
G01*
%ADD10C,2.800*%
%ADD11C,3.200*%
%ADD12C,1.600*%
%ADD13C,2.800*%
%ADD14C,0.667*%
%ADD15C,1.607*%
%ADD16C,1.447*%
%ADD17C,2.000*%
%ADD18C,0.800*%
%ADD19C,2.000*%
%LPD*%
G36*
X0Y1000000D02*
X360000Y1000000D01*
X360000Y870000D01*
X0Y870000D01*
X0Y1000000D01*
G37*
%LPC*%
X266700Y971550D02*
G54D10*
D03*
X336550Y971550D02*
G54D10*
D03*
X266700Y901700D02*
G54D10*
D03*
X336550Y901700D02*
G54D10*
D03*
X336550Y933450D02*
G54D10*
D03*
X266700Y933450D02*
G54D10*
D03*
X210591Y980321D02*
G54D11*
D03*
X159610Y980209D02*
G54D11*
D03*
X12700Y971550D02*
G54D10*
D03*
X82550Y971550D02*
G54D10*
D03*
X12700Y901700D02*
G54D10*
D03*
X82550Y901700D02*
G54D10*
D03*
X82550Y933450D02*
G54D10*
D03*
X12700Y933450D02*
G54D10*
D03*
X149527Y936223D02*
G54D11*
D03*
X149640Y885242D02*
G54D11*
D03*
X213027Y936223D02*
G54D11*
D03*
X213140Y885242D02*
G54D11*
D03*
G54D12*
X82550Y971550D02*
X88900Y977900D01*
X158750Y977900D01*
X159610Y980209D01*
G54D12*
X149527Y936223D02*
X152400Y933450D01*
X158750Y939800D01*
X158750Y977900D01*
X159610Y980209D01*
G54D12*
X213027Y936223D02*
X215900Y933450D01*
X209550Y939800D01*
X209550Y977900D01*
X210591Y980321D01*
G54D12*
X210591Y980321D02*
X209550Y977900D01*
X215900Y971550D01*
X266700Y971550D01*
X12700Y901700D02*
G54D13*
D03*
X82550Y901700D02*
G54D13*
D03*
X149639Y885242D02*
G54D13*
D03*
X213140Y885242D02*
G54D13*
D03*
X266700Y901700D02*
G54D13*
D03*
X336550Y901700D02*
G54D13*
D03*
%LPD*%
G54D14*
G36*
X9367Y901700D02*
X9367Y916200D01*
X16033Y916200D01*
X16033Y901700D01*
X9367Y901700D01*
G37*
G36*
X12700Y905033D02*
X27200Y905033D01*
X27200Y898367D01*
X12700Y898367D01*
X12700Y905033D01*
G37*
G36*
X16033Y901700D02*
X16033Y887200D01*
X9367Y887200D01*
X9367Y901700D01*
X16033Y901700D01*
G37*
G36*
X12700Y898367D02*
X-1800Y898367D01*
X-1800Y905033D01*
X12700Y905033D01*
X12700Y898367D01*
G37*
G54D14*
G36*
X79217Y901700D02*
X79217Y916200D01*
X85883Y916200D01*
X85883Y901700D01*
X79217Y901700D01*
G37*
G36*
X82550Y905033D02*
X97050Y905033D01*
X97050Y898367D01*
X82550Y898367D01*
X82550Y905033D01*
G37*
G36*
X85883Y901700D02*
X85883Y887200D01*
X79217Y887200D01*
X79217Y901700D01*
X85883Y901700D01*
G37*
G36*
X82550Y898367D02*
X68050Y898367D01*
X68050Y905033D01*
X82550Y905033D01*
X82550Y898367D01*
G37*
G54D15*
G36*
X141606Y885242D02*
X141606Y899742D01*
X157672Y899742D01*
X157672Y885242D01*
X141606Y885242D01*
G37*
G36*
X149639Y893275D02*
X164139Y893275D01*
X164139Y877209D01*
X149639Y877209D01*
X149639Y893275D01*
G37*
G36*
X157672Y885242D02*
X157672Y870742D01*
X141606Y870742D01*
X141606Y885242D01*
X157672Y885242D01*
G37*
G36*
X149639Y877209D02*
X135139Y877209D01*
X135139Y893275D01*
X149639Y893275D01*
X149639Y877209D01*
G37*
G54D16*
G36*
X205907Y885242D02*
X205907Y899742D01*
X220373Y899742D01*
X220373Y885242D01*
X205907Y885242D01*
G37*
G36*
X213140Y892475D02*
X227640Y892475D01*
X227640Y878009D01*
X213140Y878009D01*
X213140Y892475D01*
G37*
G36*
X220373Y885242D02*
X220373Y870742D01*
X205907Y870742D01*
X205907Y885242D01*
X220373Y885242D01*
G37*
G36*
X213140Y878009D02*
X198640Y878009D01*
X198640Y892475D01*
X213140Y892475D01*
X213140Y878009D01*
G37*
G54D14*
G36*
X263367Y901700D02*
X263367Y916200D01*
X270033Y916200D01*
X270033Y901700D01*
X263367Y901700D01*
G37*
G36*
X266700Y905033D02*
X281200Y905033D01*
X281200Y898367D01*
X266700Y898367D01*
X266700Y905033D01*
G37*
G36*
X270033Y901700D02*
X270033Y887200D01*
X263367Y887200D01*
X263367Y901700D01*
X270033Y901700D01*
G37*
G36*
X266700Y898367D02*
X252200Y898367D01*
X252200Y905033D01*
X266700Y905033D01*
X266700Y898367D01*
G37*
G54D14*
G36*
X333217Y901700D02*
X333217Y916200D01*
X339883Y916200D01*
X339883Y901700D01*
X333217Y901700D01*
G37*
G36*
X336550Y905033D02*
X351050Y905033D01*
X351050Y898367D01*
X336550Y898367D01*
X336550Y905033D01*
G37*
G36*
X339883Y901700D02*
X339883Y887200D01*
X333217Y887200D01*
X333217Y901700D01*
X339883Y901700D01*
G37*
G36*
X336550Y898367D02*
X322050Y898367D01*
X322050Y905033D01*
X336550Y905033D01*
X336550Y898367D01*
G37*
X266700Y971550D02*
G54D17*
D03*
X336550Y971550D02*
G54D17*
D03*
X266700Y901700D02*
G54D17*
D03*
X336550Y901700D02*
G54D17*
D03*
X336550Y933450D02*
G54D17*
D03*
X266700Y933450D02*
G54D17*
D03*
X210591Y980321D02*
G54D17*
D03*
X159610Y980209D02*
G54D17*
D03*
X12700Y971550D02*
G54D17*
D03*
X82550Y971550D02*
G54D17*
D03*
X12700Y901700D02*
G54D17*
D03*
X82550Y901700D02*
G54D17*
D03*
X82550Y933450D02*
G54D17*
D03*
X12700Y933450D02*
G54D17*
D03*
X149527Y936223D02*
G54D17*
D03*
X149640Y885242D02*
G54D17*
D03*
X213027Y936223D02*
G54D17*
D03*
X213140Y885242D02*
G54D17*
D03*
G54D18*
X82550Y971550D02*
X88900Y977900D01*
X158750Y977900D01*
X159610Y980209D01*
G54D18*
X149527Y936223D02*
X152400Y933450D01*
X158750Y939800D01*
X158750Y977900D01*
X159610Y980209D01*
G54D18*
X213027Y936223D02*
X215900Y933450D01*
X209550Y939800D01*
X209550Y977900D01*
X210591Y980321D01*
G54D18*
X210591Y980321D02*
X209550Y977900D01*
X215900Y971550D01*
X266700Y971550D01*
X12700Y901700D02*
G54D19*
D03*
X82550Y901700D02*
G54D19*
D03*
X149639Y885242D02*
G54D19*
D03*
X213140Y885242D02*
G54D19*
D03*
X266700Y901700D02*
G54D19*
D03*
X336550Y901700D02*
G54D19*
D03*
M02*
