; Drill file
; Format: 2.4 (00.0000)
M48
INCH
T01C0.0315
T02C0.0354
T03C0.0394
T04C0.0591
T05C0.0787
T06C0.1181
%
G05
G90
T01
X018730Y004360
X018730Y005360
X019730Y005360
X019730Y006360
X018730Y006360
X019690Y008370
X021690Y008370
X022690Y008370
X023690Y008370
X024690Y008370
X025690Y008370
X026690Y008370
X027690Y008370
X028690Y008370
X029690Y008370
X030690Y008370
X031690Y008370
X032690Y008370
X033690Y008370
X033690Y002370
X032690Y002370
X031690Y002370
X030690Y002370
X029690Y002370
X028690Y002370
X027690Y002370
X026690Y002370
X025690Y002370
X024690Y002370
X023690Y002370
X021690Y002370
X020690Y002370
X019690Y002370
X019730Y004360
T02
X005000Y000750
X008640Y001910
X008770Y003670
X008770Y004670
X008770Y005670
X008770Y006670
X008770Y007670
X008770Y008670
X008770Y009670
X007080Y010120
X007050Y008480
X005220Y008570
X005330Y010120
X005320Y012130
X007070Y012130
X008020Y014350
X009020Y014350
X012700Y014250
X015700Y014250
X017250Y014400
X019250Y014400
X021200Y014250
X021680Y013110
X020070Y012370
X020070Y011370
X020070Y010370
X019070Y010370
X018070Y010370
X018070Y011370
X018070Y012370
X019070Y012370
X021680Y010110
X023570Y010370
X024570Y010370
X025570Y010370
X025570Y011370
X025570Y012370
X024570Y012370
X023570Y012370
X023570Y011370
X025200Y014250
X026800Y014300
X028810Y014300
X030250Y014400
X032250Y014400
X032190Y012370
X031190Y012370
X029640Y011920
X031610Y010160
X033620Y010170
X033190Y012370
X034190Y012370
X027510Y009800
X020690Y008370
X022690Y002370
X023070Y000870
X024070Y000870
X025070Y000870
X026070Y000870
X030000Y000750
X019000Y000750
X010650Y001910
X007050Y005480
X005220Y005570
X001000Y013000
X013770Y007420
T03
X001070Y003000
X002070Y004000
X001070Y005000
X003070Y005000
X003070Y003000
X003070Y007380
X002070Y008380
X001070Y009380
X003070Y009380
X001070Y007380
X011820Y004620
X012820Y004620
X013820Y004620
X014820Y004620
X015820Y004620
X015820Y010620
X014820Y010620
X013820Y010620
X012820Y010620
X011820Y010620
T04
X018700Y002380
X018700Y008380
T05
X001000Y000750
X001000Y014750
X005750Y014500
X034500Y014750
X034500Y000750
T06
X011820Y007620
X015820Y007620
M30
