%FSLAX34Y34*%
%MOMM*%
%LNSILK_TOP*%
G71*
G01*
%ADD10C,0.127*%
%ADD11C,0.102*%
%ADD12C,0.050*%
%ADD13C,0.200*%
%ADD14C,0.203*%
%ADD15C,0.500*%
%ADD16C,0.150*%
%ADD17C,0.100*%
%ADD18C,0.206*%
%ADD19C,0.144*%
%ADD20C,0.167*%
%ADD21C,0.111*%
%ADD22C,0.222*%
%LPD*%
G54D10*
X893921Y47541D02*
X462121Y47541D01*
X462121Y225341D01*
X893921Y225341D01*
X893921Y47541D01*
G54D10*
X912463Y166159D02*
X808323Y166159D01*
X808323Y106469D01*
X912463Y106469D01*
X912463Y166159D01*
G54D11*
X526040Y145067D02*
X526040Y150914D01*
X524092Y152862D01*
X520193Y152862D01*
X518245Y150914D01*
X518245Y145067D01*
X529939Y145067D01*
G54D11*
X520193Y141168D02*
X518245Y139220D01*
X518245Y135321D01*
X520193Y133373D01*
X522144Y133373D01*
X524092Y135321D01*
X524092Y139220D01*
X526040Y141168D01*
X527991Y141168D01*
X529939Y139220D01*
X529939Y135321D01*
X527991Y133373D01*
G54D11*
X527991Y129474D02*
X529939Y127526D01*
X529939Y123627D01*
X527991Y121679D01*
X520193Y121679D01*
X518245Y123627D01*
X518245Y127526D01*
X520193Y129474D01*
G54D11*
X518245Y117782D02*
X518245Y113883D01*
G54D11*
X518245Y115831D02*
X529939Y115831D01*
G54D11*
X529939Y113883D02*
X529939Y117782D01*
G54D11*
X602517Y130096D02*
X610315Y130096D01*
G54D11*
X602517Y124249D02*
X602517Y132044D01*
X606416Y135943D01*
X610315Y132044D01*
X610315Y124249D01*
G54D11*
X614211Y124249D02*
X614211Y132044D01*
G54D11*
X614211Y128148D02*
X618110Y132044D01*
X620058Y132044D01*
G54D11*
X631753Y132044D02*
X625905Y132044D01*
X623957Y130096D01*
X623957Y126197D01*
X625905Y124249D01*
X631753Y124249D01*
X631752Y135943D01*
G54D11*
X635651Y132044D02*
X635651Y126197D01*
X637600Y124249D01*
X643447Y124249D01*
X643447Y132044D01*
G54D11*
X647346Y132044D02*
X649294Y132044D01*
X649294Y124249D01*
G54D11*
X647346Y124249D02*
X651242Y124249D01*
G54D11*
X655141Y124249D02*
X655141Y132044D01*
X660988Y132044D01*
X662936Y130096D01*
X662936Y124249D01*
G54D11*
X666835Y130096D02*
X666835Y126197D01*
X668783Y124249D01*
X672682Y124249D01*
X674630Y126197D01*
X674630Y130096D01*
X672682Y132044D01*
X668783Y132044D01*
X666835Y130096D01*
G54D11*
X672682Y143299D02*
X668783Y143299D01*
X666835Y145247D01*
X666835Y149146D01*
X668783Y151094D01*
X672682Y151094D01*
X674630Y149146D01*
X674630Y145247D01*
X672682Y143299D01*
G54D11*
X662936Y143299D02*
X662936Y149146D01*
X660988Y151094D01*
X655141Y151094D01*
X655141Y143299D01*
G54D11*
X651242Y147198D02*
X645395Y147198D01*
X643447Y145247D01*
X645395Y143299D01*
X651242Y143299D01*
X651242Y149146D01*
X649294Y151094D01*
X645395Y151094D01*
G54D11*
X639550Y154993D02*
X639550Y143299D01*
X631752Y154993D01*
X631753Y143299D01*
G54D11*
X649294Y137891D02*
X649294Y135943D01*
G54D12*
X495268Y71798D02*
X495268Y75357D01*
X497049Y75357D01*
X497641Y74765D01*
X497641Y72392D01*
X497049Y71798D01*
X495268Y71798D01*
G54D12*
X498776Y74170D02*
X499962Y75357D01*
X499962Y71798D01*
G54D12*
X498776Y71798D02*
X501148Y71798D01*
G54D12*
X503470Y71798D02*
X503470Y75357D01*
G54D12*
X502284Y75357D02*
X504656Y75357D01*
G54D12*
X505794Y75357D02*
X508166Y71798D01*
G54D12*
X505794Y71798D02*
X508166Y75357D01*
G54D12*
X510506Y66916D02*
X514064Y64544D01*
G54D12*
X514064Y63406D02*
X512878Y62220D01*
G54D12*
X514064Y61034D02*
X510506Y61034D01*
X510506Y62814D01*
X511097Y63406D01*
X512284Y63406D01*
X512878Y62814D01*
X512878Y61034D01*
G54D12*
X510506Y64544D02*
X514064Y66916D01*
G54D12*
X514064Y59306D02*
X513470Y59898D01*
X511097Y59898D01*
X510506Y59306D01*
X510506Y58120D01*
X511097Y57526D01*
X513470Y57526D01*
X514064Y58120D01*
X514064Y59306D01*
G54D12*
X514064Y55799D02*
X513470Y56390D01*
X511097Y56390D01*
X510506Y55799D01*
X510506Y54018D01*
X514064Y54018D01*
X514064Y55799D01*
G54D12*
X539464Y55288D02*
X535906Y55288D01*
X535906Y57068D01*
X536497Y57660D01*
X537684Y57660D01*
X538278Y57069D01*
X538278Y55288D01*
G54D12*
X536497Y61168D02*
X535906Y60576D01*
X535906Y59390D01*
X536497Y58796D01*
X537092Y58796D01*
X537684Y59390D01*
X537684Y60576D01*
X538278Y61168D01*
X538870Y61168D01*
X539464Y60576D01*
X539464Y59390D01*
X538870Y58796D01*
G54D12*
X539464Y57660D02*
X538278Y56474D01*
G54D12*
X535906Y62304D02*
X535906Y64676D01*
G54D12*
X535906Y63490D02*
X539464Y63490D01*
G54D12*
X561897Y64676D02*
X561306Y64084D01*
X561306Y62304D01*
X564864Y62304D01*
X564864Y64084D01*
X564270Y64676D01*
X561897Y64676D01*
G54D12*
X561306Y61168D02*
X564864Y61168D01*
X561306Y58796D01*
X564864Y58796D01*
G54D12*
X561897Y57660D02*
X561306Y57069D01*
X561306Y55882D01*
X561897Y55288D01*
X564270Y55288D01*
X564864Y55882D01*
X564864Y57069D01*
X564270Y57660D01*
X563084Y57660D01*
X563084Y56474D01*
G54D12*
X590264Y56558D02*
X586706Y56558D01*
X586706Y58339D01*
X587297Y58930D01*
X589670Y58930D01*
X590264Y58339D01*
X590264Y56558D01*
G54D12*
X587297Y60066D02*
X586706Y60660D01*
X586706Y61846D01*
X587297Y62438D01*
X587892Y62438D01*
X590264Y60066D01*
X590264Y62438D01*
G54D12*
X612697Y60066D02*
X612106Y60660D01*
X612106Y61846D01*
X612697Y62438D01*
X613292Y62438D01*
X613884Y61846D01*
X614478Y62438D01*
X615070Y62438D01*
X615664Y61846D01*
X615664Y60660D01*
X615070Y60066D01*
G54D12*
X615664Y58339D02*
X615070Y58930D01*
X612697Y58930D01*
X612106Y58339D01*
X612106Y56558D01*
X615664Y56558D01*
X615664Y58339D01*
G54D12*
X613884Y61252D02*
X613884Y61846D01*
G54D12*
X638097Y58930D02*
X637506Y58339D01*
X637506Y56558D01*
X641064Y56558D01*
X641064Y58339D01*
X640470Y58930D01*
X638097Y58930D01*
G54D12*
X641064Y61846D02*
X637506Y61846D01*
X639284Y60066D01*
X639284Y62438D01*
G54D12*
X662906Y62438D02*
X662906Y60066D01*
X664684Y60066D01*
X664092Y61252D01*
X664092Y61846D01*
X664684Y62438D01*
X665870Y62438D01*
X666464Y61846D01*
X666464Y60660D01*
X665870Y60066D01*
G54D12*
X666464Y58339D02*
X665870Y58930D01*
X663497Y58930D01*
X662906Y58339D01*
X662906Y56558D01*
X666464Y56558D01*
X666464Y58339D01*
G54D12*
X688897Y58930D02*
X688306Y58339D01*
X688306Y56558D01*
X691864Y56558D01*
X691864Y58339D01*
X691270Y58930D01*
X688897Y58930D01*
G54D12*
X691270Y60066D02*
X690084Y60066D01*
X690084Y61846D01*
X690678Y62438D01*
X691270Y62438D01*
X691864Y61846D01*
X691864Y60660D01*
X691270Y60066D01*
G54D12*
X690084Y60066D02*
X688897Y61252D01*
X688306Y62438D01*
G54D12*
X717264Y60066D02*
X716670Y60066D01*
X714297Y62438D01*
X713706Y62438D01*
X713706Y60066D01*
G54D12*
X716670Y58930D02*
X714297Y58930D01*
X713706Y58339D01*
X713706Y56558D01*
X717264Y56558D01*
X717264Y58339D01*
X716670Y58930D01*
G54D12*
X740884Y61846D02*
X740292Y62438D01*
X739697Y62438D01*
X739106Y61846D01*
X739106Y60660D01*
X739697Y60066D01*
X740292Y60066D01*
X740884Y60660D01*
X740884Y61846D01*
X741478Y62438D01*
X742070Y62438D01*
X742664Y61846D01*
X742664Y60660D01*
X742070Y60066D01*
X741478Y60066D01*
X740884Y60660D01*
G54D12*
X742070Y58930D02*
X739697Y58930D01*
X739106Y58339D01*
X739106Y56558D01*
X742664Y56558D01*
X742664Y58339D01*
X742070Y58930D01*
G54D12*
X765097Y58930D02*
X764506Y58339D01*
X764506Y56558D01*
X768064Y56558D01*
X768064Y58339D01*
X767470Y58930D01*
X765097Y58930D01*
G54D12*
X767470Y60066D02*
X768064Y60660D01*
X768064Y61846D01*
X767470Y62438D01*
X765097Y62438D01*
X764506Y61846D01*
X764506Y60660D01*
X765097Y60066D01*
X765692Y60066D01*
X766284Y60660D01*
X766284Y62438D01*
G54D12*
X791092Y58796D02*
X789906Y59982D01*
X793464Y59982D01*
G54D12*
X793464Y58796D02*
X793464Y61168D01*
G54D12*
X793464Y62898D02*
X792870Y62304D01*
X790497Y64676D01*
X792870Y64676D01*
X793464Y64084D01*
X793464Y62898D01*
G54D12*
X792870Y62304D02*
X790497Y62304D01*
X789906Y62898D01*
X789906Y64084D01*
X790497Y64676D01*
G54D12*
X792870Y57660D02*
X790497Y57660D01*
X789906Y57069D01*
X789906Y55288D01*
X793464Y55288D01*
X793464Y57069D01*
X792870Y57660D01*
G54D12*
X815897Y57660D02*
X815306Y57069D01*
X815306Y55288D01*
X818864Y55288D01*
X818864Y57069D01*
X818270Y57660D01*
X815897Y57660D01*
G54D12*
X816492Y58796D02*
X815306Y59982D01*
X818864Y59982D01*
G54D12*
X818864Y58796D02*
X818864Y61168D01*
G54D12*
X818864Y62304D02*
X818864Y64676D01*
G54D12*
X818864Y63490D02*
X815306Y63490D01*
X816492Y62304D01*
G54D12*
X844264Y64676D02*
X844264Y62304D01*
X841892Y64676D01*
X841297Y64676D01*
X840706Y64084D01*
X840706Y62898D01*
X841297Y62304D01*
G54D12*
X844264Y61168D02*
X844264Y58796D01*
G54D12*
X844264Y59982D02*
X840706Y59982D01*
X841892Y58796D01*
G54D12*
X843670Y57660D02*
X841297Y57660D01*
X840706Y57069D01*
X840706Y55288D01*
X844264Y55288D01*
X844264Y57069D01*
X843670Y57660D01*
G54D12*
X844264Y207688D02*
X840706Y207688D01*
X840706Y209469D01*
X841297Y210060D01*
X843670Y210060D01*
X844264Y209469D01*
X844264Y207688D01*
G54D12*
X841892Y211196D02*
X840706Y212382D01*
X844264Y212382D01*
G54D12*
X844264Y211196D02*
X844264Y213568D01*
G54D12*
X843670Y214704D02*
X844264Y215298D01*
X844264Y216484D01*
X843670Y217076D01*
X843078Y217076D01*
X842484Y216484D01*
X842484Y215890D01*
G54D12*
X842484Y216484D02*
X841892Y217076D01*
X841297Y217076D01*
X840706Y216484D01*
X840706Y215298D01*
X841297Y214704D01*
G54D12*
X817084Y215890D02*
X817084Y216484D01*
X817678Y217076D01*
X818270Y217076D01*
X818864Y216484D01*
X818864Y215298D01*
X818270Y214704D01*
G54D12*
X817084Y216484D02*
X816492Y217076D01*
X815897Y217076D01*
X815306Y216484D01*
X815306Y215298D01*
X815897Y214704D01*
G54D12*
X815306Y213568D02*
X817678Y213568D01*
X818864Y212382D01*
X817678Y211196D01*
X815306Y211196D01*
G54D12*
X815897Y207688D02*
X815306Y208282D01*
X815306Y209469D01*
X815897Y210060D01*
X816492Y210060D01*
X817084Y209469D01*
X817678Y210060D01*
X818270Y210060D01*
X818864Y209469D01*
X818864Y208282D01*
X818270Y207688D01*
G54D12*
X817084Y208874D02*
X817084Y209469D01*
G54D12*
X793464Y208790D02*
X791092Y208790D01*
X789906Y207604D01*
X791092Y206418D01*
X793464Y206418D01*
G54D12*
X791684Y206418D02*
X791684Y208790D01*
G54D12*
X792278Y209926D02*
X792278Y211706D01*
X791684Y212298D01*
X790497Y212298D01*
X789906Y211706D01*
X789906Y209926D01*
X793464Y209926D01*
G54D12*
X792278Y211112D02*
X793464Y212298D01*
G54D12*
X789906Y215806D02*
X789906Y213434D01*
X793464Y213434D01*
X793464Y215806D01*
G54D12*
X793464Y216944D02*
X789906Y216944D01*
X789906Y219316D01*
G54D12*
X791684Y218130D02*
X791684Y216944D01*
G54D12*
X791684Y213434D02*
X791684Y214620D01*
G54D12*
X768064Y215516D02*
X768064Y214330D01*
X767470Y213736D01*
X765097Y216108D01*
X767470Y216108D01*
X768064Y215516D01*
G54D12*
X767470Y213736D02*
X765097Y213736D01*
X764506Y214330D01*
X764506Y215516D01*
X765097Y216108D01*
G54D12*
X768064Y210228D02*
X765692Y210228D01*
X764506Y211414D01*
X765692Y212600D01*
X768064Y212600D01*
G54D12*
X766284Y212600D02*
X766284Y210228D01*
G54D12*
X742664Y210228D02*
X740292Y210228D01*
X739106Y211414D01*
X740292Y212600D01*
X742664Y212600D01*
G54D12*
X742664Y213736D02*
X742664Y216108D01*
G54D12*
X742664Y214922D02*
X739106Y214922D01*
X740292Y213736D01*
G54D12*
X740884Y212600D02*
X740884Y210228D01*
G54D12*
X717264Y210228D02*
X714892Y210228D01*
X713706Y211414D01*
X714892Y212600D01*
X717264Y212600D01*
G54D12*
X717264Y216108D02*
X717264Y213736D01*
X714892Y216108D01*
X714297Y216108D01*
X713706Y215516D01*
X713706Y214330D01*
X714297Y213736D01*
G54D12*
X715484Y212600D02*
X715484Y210228D01*
G54D12*
X688897Y213736D02*
X688306Y214330D01*
X688306Y215516D01*
X688897Y216108D01*
X689492Y216108D01*
X690084Y215516D01*
X690678Y216108D01*
X691270Y216108D01*
X691864Y215516D01*
X691864Y214330D01*
X691270Y213736D01*
G54D12*
X691864Y212600D02*
X689492Y212600D01*
X688306Y211414D01*
X689492Y210228D01*
X691864Y210228D01*
G54D12*
X690084Y210228D02*
X690084Y212600D01*
G54D12*
X690084Y215516D02*
X690084Y214922D01*
G54D12*
X666464Y215516D02*
X662906Y215516D01*
X664684Y213736D01*
X664684Y216108D01*
G54D12*
X664684Y212600D02*
X664684Y210228D01*
G54D12*
X666464Y210228D02*
X664092Y210228D01*
X662906Y211414D01*
X664092Y212600D01*
X666464Y212600D01*
G54D12*
X641064Y210228D02*
X638692Y210228D01*
X637506Y211414D01*
X638692Y212600D01*
X641064Y212600D01*
G54D12*
X640470Y213736D02*
X641064Y214330D01*
X641064Y215516D01*
X640470Y216108D01*
X639284Y216108D01*
X638692Y215516D01*
X638692Y214922D01*
X639284Y213736D01*
X637506Y213736D01*
X637506Y216108D01*
G54D12*
X639284Y212600D02*
X639284Y210228D01*
G54D12*
X615664Y210228D02*
X613292Y210228D01*
X612106Y211414D01*
X613292Y212600D01*
X615664Y212600D01*
G54D12*
X612106Y216108D02*
X612697Y214922D01*
X613884Y213736D01*
X615070Y213736D01*
X615664Y214330D01*
X615664Y215516D01*
X615070Y216108D01*
X614478Y216108D01*
X613884Y215516D01*
X613884Y213736D01*
G54D12*
X613884Y212600D02*
X613884Y210228D01*
G54D12*
X590264Y210228D02*
X587892Y210228D01*
X586706Y211414D01*
X587892Y212600D01*
X590264Y212600D01*
G54D12*
X590264Y213736D02*
X589670Y213736D01*
X587297Y216108D01*
X586706Y216108D01*
X586706Y213736D01*
G54D12*
X588484Y212600D02*
X588484Y210228D01*
G54D12*
X561306Y213568D02*
X561306Y211196D01*
X563084Y211196D01*
X562492Y212382D01*
X562492Y212976D01*
X563084Y213568D01*
X564270Y213568D01*
X564864Y212976D01*
X564864Y211790D01*
X564270Y211196D01*
G54D12*
X561306Y214704D02*
X563678Y214704D01*
X564864Y215890D01*
X563678Y217076D01*
X561306Y217076D01*
G54D12*
X563084Y210060D02*
X563084Y207688D01*
G54D12*
X561897Y208874D02*
X564270Y208874D01*
G54D12*
X539464Y210060D02*
X538278Y208874D01*
G54D12*
X539464Y207688D02*
X535906Y207688D01*
X535906Y209469D01*
X536497Y210060D01*
X537684Y210060D01*
X538278Y209469D01*
X538278Y207688D01*
G54D12*
X538870Y211196D02*
X539464Y211790D01*
X539464Y212976D01*
X538870Y213568D01*
X538278Y213568D01*
X537684Y212976D01*
X537684Y211790D01*
X537092Y211196D01*
X536497Y211196D01*
X535906Y211790D01*
X535906Y212976D01*
X536497Y213568D01*
G54D12*
X535906Y214704D02*
X535906Y217076D01*
G54D12*
X535906Y215890D02*
X539464Y215890D01*
G54D12*
X514064Y214704D02*
X514064Y216484D01*
X513470Y217076D01*
X511097Y217076D01*
X510506Y216484D01*
X510506Y214704D01*
X514064Y214704D01*
G54D12*
X514064Y211196D02*
X510506Y211196D01*
X514064Y213568D01*
X510506Y213568D01*
G54D12*
X511097Y210060D02*
X510506Y209469D01*
X510506Y208282D01*
X511097Y207688D01*
X513470Y207688D01*
X514064Y208282D01*
X514064Y209469D01*
X513470Y210060D01*
X512284Y210060D01*
X512284Y208874D01*
G54D12*
X504293Y201087D02*
X504293Y197528D01*
X501920Y201087D01*
X501920Y197528D01*
G54D12*
X500767Y197528D02*
X499581Y197528D01*
G54D12*
X500175Y197528D02*
X500175Y201087D01*
G54D12*
X500767Y201087D02*
X499581Y201087D01*
G54D12*
X498446Y201087D02*
X498446Y198714D01*
X497260Y197528D01*
X496073Y198714D01*
X496073Y201087D01*
G54D13*
X501237Y148887D02*
X507637Y148887D01*
X513937Y155187D01*
X513937Y167987D01*
X507637Y174287D01*
X494837Y174287D01*
X488537Y167987D01*
X488537Y155187D01*
X494837Y148887D01*
X501237Y148887D01*
G54D13*
X475837Y148887D02*
X482237Y148887D01*
X488537Y155187D01*
X488537Y167987D01*
X482237Y174287D01*
X469437Y174287D01*
X463137Y167987D01*
X463137Y155187D01*
X469437Y148887D01*
X475837Y148887D01*
G54D13*
X501237Y123487D02*
X507637Y123487D01*
X513937Y129787D01*
X513937Y142587D01*
X507637Y148887D01*
X494837Y148887D01*
X488537Y142587D01*
X488537Y129787D01*
X494837Y123487D01*
X501237Y123487D01*
G54D13*
X475837Y123487D02*
X482237Y123487D01*
X488537Y129787D01*
X488537Y142587D01*
X482237Y148887D01*
X469437Y148887D01*
X463137Y142587D01*
X463137Y129787D01*
X469437Y123487D01*
X475837Y123487D01*
G54D13*
X501237Y98087D02*
X507637Y98087D01*
X513937Y104387D01*
X513937Y117187D01*
X507637Y123487D01*
X494837Y123487D01*
X488537Y117187D01*
X488537Y104387D01*
X494837Y98087D01*
X501237Y98087D01*
G54D13*
X475837Y98087D02*
X482237Y98087D01*
X488537Y104387D01*
X488537Y117187D01*
X482237Y123487D01*
X469437Y123487D01*
X463137Y117187D01*
X463137Y104387D01*
X469437Y98087D01*
X475837Y98087D01*
G54D14*
X723106Y124630D02*
X727932Y113200D01*
X730472Y114724D01*
X736568Y110406D01*
X741394Y115232D01*
X737076Y121328D01*
G54D14*
X739616Y128186D02*
X747236Y129456D01*
X747236Y136060D01*
X739616Y137584D01*
G54D14*
X736822Y143934D02*
X741394Y150538D01*
X736568Y155110D01*
X729964Y150538D01*
G54D14*
X723614Y153078D02*
X722344Y161206D01*
X715486Y161206D01*
X714216Y153078D01*
G54D14*
X707866Y150538D02*
X701262Y155110D01*
X696436Y150538D01*
X701008Y143934D01*
G54D14*
X698214Y137584D02*
X690594Y136060D01*
X690594Y129456D01*
X698214Y128186D01*
G54D14*
X700754Y121328D02*
X696690Y115232D01*
X701262Y110406D01*
X707358Y114724D01*
X709898Y113200D01*
X714978Y124630D01*
G54D14*
X737102Y121328D02*
X737686Y122369D01*
X738219Y123462D01*
X738676Y124605D01*
X739057Y125748D01*
X739388Y126916D01*
X739642Y128110D01*
G54D14*
X739591Y137609D02*
X739210Y138930D01*
X738727Y140226D01*
X738168Y141496D01*
X737533Y142715D01*
X736797Y143909D01*
G54D14*
X723106Y124884D02*
X723944Y125341D01*
X724706Y125875D01*
X725443Y126484D01*
X726103Y127170D01*
X726662Y127907D01*
X727170Y128719D01*
X727602Y129558D01*
X727932Y130447D01*
X728161Y131361D01*
X728313Y132301D01*
X728364Y133241D01*
X728313Y134181D01*
X728186Y135120D01*
X727932Y136035D01*
X727627Y136924D01*
X727196Y137787D01*
X726713Y138575D01*
X726129Y139337D01*
X725468Y140022D01*
X724757Y140632D01*
X723970Y141165D01*
X723157Y141623D01*
X722293Y142004D01*
X721379Y142283D01*
X720465Y142486D01*
X719525Y142588D01*
X718560Y142588D01*
X717620Y142486D01*
X716705Y142283D01*
X715791Y142004D01*
X714927Y141623D01*
X714114Y141165D01*
X713327Y140632D01*
X712616Y140022D01*
X711956Y139337D01*
X711371Y138575D01*
X710889Y137787D01*
X710457Y136924D01*
X710152Y136035D01*
X709898Y135120D01*
X709771Y134181D01*
X709720Y133241D01*
X709771Y132301D01*
X709924Y131361D01*
X710152Y130447D01*
X710482Y129558D01*
X710914Y128719D01*
X711422Y127907D01*
X711981Y127170D01*
X712641Y126484D01*
X713378Y125875D01*
X714140Y125341D01*
X714978Y124884D01*
G54D14*
X700856Y121404D02*
X700144Y122674D01*
X699535Y123995D01*
X699002Y125341D01*
X698570Y126738D01*
X698240Y128161D01*
G54D14*
X707968Y150614D02*
X709111Y151249D01*
X710304Y151833D01*
X711524Y152316D01*
X712768Y152748D01*
X714038Y153078D01*
G54D14*
X701034Y143807D02*
X700348Y142639D01*
X699738Y141419D01*
X699205Y140175D01*
X698748Y138879D01*
X698392Y137584D01*
G54D14*
X723741Y153154D02*
X725062Y152799D01*
X726357Y152367D01*
X727627Y151859D01*
X728872Y151275D01*
X730066Y150589D01*
X474186Y180256D02*
G54D15*
D03*
G54D16*
X375880Y353200D02*
X375880Y370600D01*
X345480Y370600D01*
X345480Y353200D01*
X375880Y353200D01*
G36*
X375780Y353300D02*
X375780Y370000D01*
X368580Y370000D01*
X368580Y353300D01*
X375780Y353300D01*
G37*
G54D17*
X375780Y353300D02*
X375780Y370000D01*
X368580Y370000D01*
X368580Y353300D01*
X375780Y353300D01*
G54D16*
X386880Y361900D02*
X375780Y361900D01*
G54D16*
X345580Y361900D02*
X334480Y361900D01*
G54D18*
X369680Y326450D02*
X369680Y326450D01*
G54D18*
X407780Y345950D02*
X407780Y345950D01*
G54D13*
X200680Y345614D02*
X206680Y329614D01*
X212680Y345614D01*
G54D13*
X217080Y329614D02*
X217080Y345614D01*
G54D13*
X221480Y329614D02*
X221480Y345614D01*
X231080Y329614D01*
X231080Y345614D01*
G54D16*
X190884Y351788D02*
X190884Y377188D01*
X241684Y377188D01*
X241684Y351788D01*
X190884Y351788D01*
G54D13*
X183551Y365017D02*
X177200Y365017D01*
G54D13*
X177200Y357080D02*
X177201Y372955D01*
G54D13*
X174026Y370574D02*
X174026Y359461D01*
G54D13*
X170851Y362636D02*
X170851Y367398D01*
G54D16*
X1880Y263575D02*
X103480Y263575D01*
X103480Y161975D01*
X1880Y161975D01*
X1880Y263575D01*
G54D19*
X1130Y290325D02*
X1130Y290325D01*
G54D19*
X1130Y270825D02*
X1130Y270825D01*
G54D16*
X1880Y152450D02*
X103480Y152450D01*
X103480Y50850D01*
X1880Y50850D01*
X1880Y152450D01*
G54D19*
X1130Y179200D02*
X1130Y179200D01*
G54D19*
X1130Y159700D02*
X1130Y159700D01*
G54D16*
X427830Y378491D02*
X427830Y353090D01*
X499430Y353090D01*
X499430Y378490D01*
X427830Y378491D01*
G54D20*
X480486Y347699D02*
X480486Y347699D01*
G54D16*
X570280Y352400D02*
X570280Y371400D01*
X608280Y371400D01*
X608280Y352400D01*
X570280Y352400D01*
G54D16*
X570180Y361900D02*
X549580Y361900D01*
G54D16*
X628980Y361900D02*
X608380Y361900D01*
G54D19*
X587164Y377060D02*
X598720Y377060D01*
X598720Y383126D01*
G54D19*
X528480Y378650D02*
X528480Y378650D01*
G54D16*
X741880Y350392D02*
X741880Y375792D01*
X670280Y375792D01*
X670280Y350392D01*
X741880Y350392D01*
G54D20*
X689225Y381184D02*
X689225Y381184D01*
G54D16*
X758030Y378491D02*
X758030Y353090D01*
X829630Y353090D01*
X829630Y378490D01*
X758030Y378491D01*
G54D20*
X810686Y347699D02*
X810686Y347699D01*
G54D20*
X55442Y335599D02*
X55442Y335599D01*
G54D20*
X280461Y163549D02*
X280461Y163549D01*
G54D21*
X247253Y251194D02*
X252809Y251194D01*
X253920Y250527D01*
X254476Y249194D01*
X254476Y247860D01*
X253920Y246527D01*
X252809Y245860D01*
X247253Y245860D01*
X246142Y246527D01*
X245587Y247860D01*
X245587Y249194D01*
X246142Y250527D01*
X247253Y251194D01*
G54D21*
X248920Y220460D02*
X245587Y223794D01*
X254476Y223794D01*
G54D21*
X254476Y197219D02*
X254476Y191885D01*
X253920Y191885D01*
X252809Y192552D01*
X249476Y196552D01*
X248364Y197219D01*
X247253Y197219D01*
X246142Y196552D01*
X245587Y195219D01*
X245587Y193885D01*
X246142Y192552D01*
X247253Y191885D01*
G54D21*
X252809Y166485D02*
X253920Y167152D01*
X254476Y168485D01*
X254476Y169819D01*
X253920Y171152D01*
X252809Y171819D01*
X251698Y171819D01*
X250587Y171152D01*
X250031Y169819D01*
X250031Y168485D01*
X249476Y167152D01*
X248364Y166485D01*
X247253Y166485D01*
X246142Y167152D01*
X245587Y168485D01*
X245587Y169819D01*
X246142Y171152D01*
X247253Y171819D01*
G54D21*
X252809Y179596D02*
X253920Y178929D01*
X254476Y177596D01*
X254476Y176262D01*
X253920Y174929D01*
X252809Y174262D01*
X247253Y174262D01*
X246142Y174929D01*
X245587Y176262D01*
X245587Y177596D01*
X246142Y178929D01*
X247253Y179596D01*
G54D21*
X252809Y137910D02*
X253920Y138577D01*
X254476Y139910D01*
X254476Y141244D01*
X253920Y142577D01*
X252809Y143244D01*
X251698Y143244D01*
X250587Y142577D01*
X250031Y141244D01*
X250031Y139910D01*
X249476Y138577D01*
X248364Y137910D01*
X247253Y137910D01*
X246142Y138577D01*
X245587Y139910D01*
X245587Y141244D01*
X246142Y142577D01*
X247253Y143244D01*
G54D21*
X254476Y145687D02*
X245587Y145687D01*
X245587Y149021D01*
X246142Y150354D01*
X247253Y151021D01*
X252809Y151021D01*
X253920Y150354D01*
X254476Y149021D01*
X254476Y145687D01*
G54D21*
X248444Y121527D02*
X248444Y124194D01*
X251221Y124194D01*
X252332Y123527D01*
X252888Y122194D01*
X252888Y120860D01*
X252332Y119527D01*
X251221Y118860D01*
X245666Y118860D01*
X244555Y119527D01*
X243999Y120860D01*
X243999Y122194D01*
X244555Y123527D01*
X245666Y124194D01*
G54D21*
X250587Y87110D02*
X250587Y92444D01*
G54D21*
X248364Y89777D02*
X252809Y89777D01*
G54D21*
X245587Y94887D02*
X254476Y98221D01*
X245587Y101554D01*
G54D21*
X869759Y286969D02*
X872426Y286969D01*
X872426Y284192D01*
X871759Y283081D01*
X870426Y282525D01*
X869092Y282525D01*
X867759Y283081D01*
X867092Y284192D01*
X867092Y289747D01*
X867759Y290858D01*
X869092Y291414D01*
X870426Y291414D01*
X871759Y290858D01*
X872426Y289747D01*
G54D21*
X835342Y284826D02*
X840676Y284826D01*
G54D21*
X838009Y287049D02*
X838009Y282604D01*
G54D21*
X843120Y289826D02*
X846453Y280937D01*
X849786Y289826D01*
G54D21*
X811530Y282604D02*
X812197Y281493D01*
X813530Y280937D01*
X814863Y280937D01*
X816197Y281493D01*
X816863Y282604D01*
X816863Y283715D01*
X816197Y284826D01*
X814863Y285382D01*
X813530Y285382D01*
X812197Y285937D01*
X811530Y287049D01*
X811530Y288160D01*
X812197Y289271D01*
X813530Y289826D01*
X814863Y289826D01*
X816197Y289271D01*
X816863Y288160D01*
G54D21*
X824640Y282604D02*
X823974Y281493D01*
X822640Y280937D01*
X821307Y280937D01*
X819974Y281493D01*
X819307Y282604D01*
X819307Y288160D01*
X819974Y289271D01*
X821307Y289826D01*
X822640Y289826D01*
X823974Y289271D01*
X824640Y288160D01*
G54D21*
X786130Y284192D02*
X786797Y283081D01*
X788130Y282525D01*
X789463Y282525D01*
X790797Y283081D01*
X791463Y284192D01*
X791463Y285303D01*
X790797Y286414D01*
X789463Y286969D01*
X788130Y286969D01*
X786797Y287525D01*
X786130Y288636D01*
X786130Y289747D01*
X786797Y290858D01*
X788130Y291414D01*
X789463Y291414D01*
X790797Y290858D01*
X791463Y289747D01*
G54D21*
X793907Y282525D02*
X793907Y291414D01*
X797240Y291414D01*
X798574Y290858D01*
X799240Y289747D01*
X799240Y284192D01*
X798574Y283081D01*
X797240Y282525D01*
X793907Y282525D01*
G54D16*
X192515Y318239D02*
X167115Y318239D01*
X167115Y246639D01*
X192515Y246639D01*
X192515Y318239D01*
G54D20*
X161723Y265583D02*
X161723Y265583D01*
G54D16*
X148065Y318239D02*
X122665Y318239D01*
X122665Y246639D01*
X148065Y246639D01*
X148065Y318239D01*
G54D20*
X117273Y265583D02*
X117273Y265583D01*
G54D16*
X190218Y151999D02*
X168042Y151999D01*
X168043Y202699D01*
X190218Y202699D01*
X190218Y151999D01*
G54D16*
X179130Y151799D02*
X179130Y143899D01*
G54D16*
X179130Y202799D02*
X179130Y210699D01*
G54D20*
X150205Y192474D02*
X150205Y192474D01*
G54D16*
X143728Y154158D02*
X121553Y154158D01*
X121553Y204858D01*
X143728Y204858D01*
X143728Y154158D01*
G54D16*
X132641Y153957D02*
X132641Y146058D01*
G54D16*
X132641Y204958D02*
X132641Y212858D01*
G54D16*
X864178Y245450D02*
X864178Y270851D01*
X792578Y270851D01*
X792578Y245450D01*
X864178Y245450D01*
G54D20*
X811522Y276242D02*
X811522Y276242D01*
G54D16*
X209281Y61289D02*
X209281Y35888D01*
X280881Y35888D01*
X280881Y61288D01*
X209281Y61289D01*
G54D20*
X261936Y30496D02*
X261936Y30496D01*
G54D16*
X561692Y269474D02*
X539517Y269474D01*
X539517Y320173D01*
X561692Y320173D01*
X561692Y269474D01*
G54D16*
X550605Y269274D02*
X550605Y261374D01*
G54D16*
X550604Y320273D02*
X550604Y328173D01*
G54D20*
X521680Y309949D02*
X521680Y309949D01*
G54D16*
X430530Y317650D02*
X430530Y25550D01*
X201930Y25550D01*
X201930Y317650D01*
X430530Y317650D01*
G54D16*
X715726Y250056D02*
X700046Y265736D01*
X735896Y301586D01*
X751576Y285906D01*
X715726Y250056D01*
G54D16*
X707744Y257754D02*
X702158Y252168D01*
G54D16*
X743807Y293817D02*
X749393Y299403D01*
G54D20*
X716053Y306969D02*
X716053Y306969D01*
G54D22*
X63500Y342900D02*
X63500Y360678D01*
X70167Y360678D01*
X72833Y359567D01*
X74167Y357344D01*
X74167Y346233D01*
X72833Y344011D01*
X70167Y342900D01*
X63500Y342900D01*
G54D22*
X79056Y342900D02*
X79056Y360678D01*
X85723Y360678D01*
X88389Y359567D01*
X89723Y357344D01*
X89723Y346233D01*
X88389Y344011D01*
X85723Y342900D01*
X79056Y342900D01*
G54D22*
X94612Y346233D02*
X95945Y344011D01*
X98612Y342900D01*
X101279Y342900D01*
X103945Y344011D01*
X105279Y346233D01*
X105279Y348456D01*
X103945Y350678D01*
X101279Y351789D01*
X98612Y351789D01*
X95945Y352900D01*
X94612Y355122D01*
X94612Y357344D01*
X95945Y359567D01*
X98612Y360678D01*
X101279Y360678D01*
X103945Y359567D01*
X105279Y357344D01*
G54D21*
X558800Y12700D02*
X558800Y21589D01*
X562133Y21589D01*
X563467Y21033D01*
X564133Y19922D01*
X564133Y14367D01*
X563467Y13256D01*
X562133Y12700D01*
X558800Y12700D01*
G54D21*
X569910Y17144D02*
X568577Y17144D01*
X567244Y17700D01*
X566577Y18811D01*
X566577Y19922D01*
X567244Y21033D01*
X568577Y21589D01*
X569910Y21589D01*
X571244Y21033D01*
X571910Y19922D01*
X571910Y18811D01*
X571244Y17700D01*
X569910Y17144D01*
X571244Y16589D01*
X571910Y15478D01*
X571910Y14367D01*
X571244Y13256D01*
X569910Y12700D01*
X568577Y12700D01*
X567244Y13256D01*
X566577Y14367D01*
X566577Y15478D01*
X567244Y16589D01*
X568577Y17144D01*
G54D21*
X596900Y38100D02*
X596900Y46989D01*
X600233Y46989D01*
X601567Y46433D01*
X602233Y45322D01*
X602233Y39767D01*
X601567Y38656D01*
X600233Y38100D01*
X596900Y38100D01*
G54D21*
X604677Y39767D02*
X605344Y38656D01*
X606677Y38100D01*
X608010Y38100D01*
X609344Y38656D01*
X610010Y39767D01*
X610010Y42544D01*
X610010Y43100D01*
X608010Y41989D01*
X606677Y41989D01*
X605344Y42544D01*
X604677Y43656D01*
X604677Y45322D01*
X605344Y46433D01*
X606677Y46989D01*
X608010Y46989D01*
X609344Y46433D01*
X610010Y45322D01*
X610010Y42544D01*
G54D21*
X635000Y38100D02*
X638333Y46989D01*
X641667Y38100D01*
G54D21*
X636333Y41433D02*
X640333Y41433D01*
G54D21*
X649444Y38100D02*
X644111Y38100D01*
X644111Y38656D01*
X644778Y39767D01*
X648778Y43100D01*
X649444Y44211D01*
X649444Y45322D01*
X648778Y46433D01*
X647444Y46989D01*
X646111Y46989D01*
X644778Y46433D01*
X644111Y45322D01*
G54D21*
X679450Y12700D02*
X682783Y21589D01*
X686117Y12700D01*
G54D21*
X680783Y16033D02*
X684783Y16033D01*
G54D21*
X688561Y18256D02*
X691894Y21589D01*
X691894Y12700D01*
M02*
