%FSLAX34Y34*%
%MOMM*%
%LNCOPPER_BOTTOM*%
G71*
G01*
%ADD10C,0.800*%
%ADD11R,2.070X1.435*%
%ADD12C,2.700*%
%ADD13C,2.450*%
%ADD14C,2.800*%
%ADD15C,3.200*%
%ADD16C,3.000*%
%ADD17C,2.800*%
%ADD18C,4.800*%
%ADD19C,0.900*%
%ADD20C,2.400*%
%ADD21C,1.400*%
%ADD22C,3.200*%
%ADD23C,0.667*%
%ADD24C,0.813*%
%ADD25C,0.733*%
%ADD26C,1.360*%
%ADD27C,1.587*%
%ADD28C,1.627*%
%ADD29C,1.673*%
%ADD30C,1.793*%
%ADD31C,1.053*%
%ADD32C,1.093*%
%ADD33C,1.733*%
%ADD34C,2.230*%
%ADD35C,0.000*%
%ADD36R,1.270X0.635*%
%ADD37C,1.900*%
%ADD38C,1.650*%
%ADD39C,2.000*%
%ADD40C,2.200*%
%ADD41C,2.000*%
%ADD42C,4.000*%
%ADD43C,0.500*%
%ADD44C,0.600*%
%ADD45C,3.000*%
%LPD*%
G36*
X0Y400000D02*
X920000Y400000D01*
X920000Y0D01*
X0Y0D01*
X0Y400000D01*
G37*
%LPC*%
G54D10*
X872971Y59954D02*
X872966Y60241D01*
X872971Y60528D01*
X872986Y60818D01*
X873012Y61105D01*
X873048Y61389D01*
X873091Y61674D01*
X873146Y61958D01*
X873212Y62237D01*
X873286Y62517D01*
X873370Y62791D01*
X873464Y63066D01*
X873568Y63332D01*
X873680Y63599D01*
X873802Y63861D01*
X873931Y64117D01*
X874071Y64369D01*
X874221Y64615D01*
X874378Y64856D01*
X874543Y65092D01*
X874716Y65324D01*
X874896Y65547D01*
X875087Y65766D01*
X875283Y65976D01*
X875486Y66180D01*
X875697Y66375D01*
X875915Y66566D01*
X876139Y66746D01*
X876370Y66919D01*
X876606Y67084D01*
X876847Y67241D01*
X877094Y67391D01*
X877345Y67531D01*
X877602Y67660D01*
X877863Y67782D01*
X878130Y67894D01*
X878396Y67998D01*
X878671Y68092D01*
X878945Y68176D01*
X879224Y68250D01*
X879504Y68316D01*
X879788Y68372D01*
X880073Y68415D01*
X880358Y68450D01*
X880644Y68476D01*
X880934Y68491D01*
X881221Y68496D01*
X881508Y68491D01*
X881798Y68476D01*
X882085Y68450D01*
X882369Y68415D01*
X882654Y68372D01*
X882938Y68316D01*
X883218Y68250D01*
X883497Y68176D01*
X883771Y68092D01*
X884046Y67998D01*
X884312Y67894D01*
X884579Y67782D01*
X884841Y67660D01*
X885097Y67531D01*
X885349Y67391D01*
X885595Y67241D01*
X885836Y67084D01*
X886072Y66919D01*
X886304Y66746D01*
X886527Y66566D01*
X886746Y66375D01*
X886956Y66180D01*
X887160Y65976D01*
X887355Y65766D01*
X887546Y65547D01*
X887726Y65324D01*
X887899Y65092D01*
X888064Y64856D01*
X888221Y64615D01*
X888371Y64368D01*
X888511Y64117D01*
X888640Y63861D01*
X888762Y63599D01*
X888874Y63332D01*
X888978Y63066D01*
X889072Y62791D01*
X889156Y62517D01*
X889230Y62237D01*
X889296Y61958D01*
X889352Y61674D01*
X889395Y61389D01*
X889430Y61105D01*
X889456Y60818D01*
X889471Y60528D01*
X889476Y60241D01*
X889471Y59954D01*
X889456Y59664D01*
X889430Y59377D01*
X889395Y59093D01*
X889352Y58808D01*
X889296Y58524D01*
X889230Y58244D01*
X889156Y57965D01*
X889072Y57691D01*
X888978Y57417D01*
X888874Y57150D01*
X888762Y56883D01*
X888640Y56622D01*
X888511Y56365D01*
X888371Y56114D01*
X888221Y55867D01*
X888064Y55626D01*
X887899Y55390D01*
X887726Y55158D01*
X887546Y54935D01*
X887355Y54717D01*
X887160Y54506D01*
X886956Y54303D01*
X886746Y54107D01*
X886527Y53916D01*
X886304Y53736D01*
X886072Y53563D01*
X885836Y53398D01*
X885595Y53241D01*
X885349Y53091D01*
X885097Y52951D01*
X884841Y52822D01*
X884579Y52700D01*
X884312Y52588D01*
X884046Y52484D01*
X883771Y52390D01*
X883497Y52306D01*
X883218Y52232D01*
X882938Y52166D01*
X882654Y52110D01*
X882369Y52067D01*
X882085Y52032D01*
X881798Y52006D01*
X881508Y51991D01*
X881221Y51986D01*
X880934Y51991D01*
X880645Y52006D01*
X880358Y52032D01*
X880073Y52067D01*
X879788Y52110D01*
X879504Y52166D01*
X879224Y52232D01*
X878945Y52306D01*
X878671Y52390D01*
X878397Y52484D01*
X878130Y52588D01*
X877863Y52700D01*
X877602Y52822D01*
X877345Y52951D01*
X877094Y53091D01*
X876847Y53241D01*
X876606Y53398D01*
X876370Y53563D01*
X876139Y53736D01*
X875915Y53916D01*
X875697Y54107D01*
X875486Y54303D01*
X875282Y54506D01*
X875087Y54717D01*
X874896Y54935D01*
X874716Y55158D01*
X874543Y55390D01*
X874378Y55626D01*
X874221Y55867D01*
X874071Y56114D01*
X873931Y56365D01*
X873802Y56622D01*
X873680Y56883D01*
X873568Y57150D01*
X873464Y57417D01*
X873370Y57691D01*
X873286Y57965D01*
X873212Y58245D01*
X873146Y58524D01*
X873091Y58808D01*
X873048Y59093D01*
X873012Y59377D01*
X872986Y59664D01*
X872971Y59954D01*
G54D10*
X872971Y212354D02*
X872966Y212641D01*
X872971Y212928D01*
X872986Y213218D01*
X873012Y213505D01*
X873048Y213789D01*
X873091Y214074D01*
X873146Y214358D01*
X873212Y214637D01*
X873286Y214917D01*
X873370Y215191D01*
X873464Y215466D01*
X873568Y215732D01*
X873680Y215999D01*
X873802Y216261D01*
X873931Y216517D01*
X874071Y216769D01*
X874221Y217015D01*
X874378Y217256D01*
X874543Y217492D01*
X874716Y217724D01*
X874896Y217947D01*
X875087Y218166D01*
X875283Y218376D01*
X875486Y218580D01*
X875697Y218775D01*
X875915Y218966D01*
X876139Y219146D01*
X876370Y219319D01*
X876606Y219484D01*
X876847Y219641D01*
X877094Y219791D01*
X877345Y219931D01*
X877602Y220060D01*
X877863Y220182D01*
X878130Y220294D01*
X878397Y220398D01*
X878671Y220492D01*
X878945Y220576D01*
X879225Y220650D01*
X879504Y220716D01*
X879789Y220772D01*
X880073Y220815D01*
X880358Y220850D01*
X880644Y220876D01*
X880934Y220891D01*
X881221Y220896D01*
X881508Y220891D01*
X881798Y220876D01*
X882085Y220850D01*
X882369Y220815D01*
X882654Y220772D01*
X882938Y220716D01*
X883218Y220650D01*
X883497Y220576D01*
X883771Y220492D01*
X884046Y220398D01*
X884312Y220294D01*
X884579Y220182D01*
X884840Y220060D01*
X885097Y219931D01*
X885349Y219791D01*
X885595Y219641D01*
X885836Y219484D01*
X886072Y219319D01*
X886304Y219146D01*
X886527Y218966D01*
X886746Y218775D01*
X886956Y218580D01*
X887160Y218376D01*
X887355Y218166D01*
X887546Y217947D01*
X887726Y217724D01*
X887899Y217492D01*
X888064Y217256D01*
X888221Y217015D01*
X888371Y216769D01*
X888511Y216517D01*
X888640Y216261D01*
X888762Y215999D01*
X888874Y215732D01*
X888978Y215466D01*
X889072Y215191D01*
X889156Y214917D01*
X889230Y214637D01*
X889296Y214358D01*
X889352Y214074D01*
X889395Y213789D01*
X889430Y213505D01*
X889456Y213218D01*
X889471Y212928D01*
X889476Y212641D01*
X889471Y212354D01*
X889456Y212064D01*
X889430Y211777D01*
X889395Y211493D01*
X889352Y211208D01*
X889296Y210924D01*
X889230Y210645D01*
X889156Y210365D01*
X889072Y210091D01*
X888978Y209817D01*
X888874Y209550D01*
X888762Y209283D01*
X888640Y209022D01*
X888511Y208765D01*
X888371Y208514D01*
X888221Y208267D01*
X888064Y208026D01*
X887899Y207790D01*
X887726Y207559D01*
X887546Y207335D01*
X887355Y207117D01*
X887160Y206906D01*
X886956Y206703D01*
X886746Y206507D01*
X886527Y206316D01*
X886304Y206136D01*
X886072Y205963D01*
X885836Y205798D01*
X885595Y205641D01*
X885349Y205491D01*
X885097Y205351D01*
X884841Y205222D01*
X884579Y205100D01*
X884312Y204988D01*
X884046Y204884D01*
X883771Y204790D01*
X883497Y204706D01*
X883218Y204632D01*
X882938Y204566D01*
X882654Y204511D01*
X882369Y204467D01*
X882085Y204432D01*
X881798Y204406D01*
X881508Y204391D01*
X881221Y204386D01*
X880934Y204391D01*
X880644Y204406D01*
X880358Y204432D01*
X880073Y204467D01*
X879788Y204511D01*
X879504Y204566D01*
X879224Y204632D01*
X878945Y204706D01*
X878671Y204790D01*
X878396Y204884D01*
X878130Y204988D01*
X877863Y205100D01*
X877602Y205222D01*
X877345Y205351D01*
X877094Y205491D01*
X876847Y205641D01*
X876606Y205798D01*
X876370Y205963D01*
X876139Y206136D01*
X875915Y206316D01*
X875696Y206507D01*
X875486Y206702D01*
X875283Y206906D01*
X875087Y207117D01*
X874896Y207335D01*
X874716Y207558D01*
X874543Y207790D01*
X874378Y208026D01*
X874221Y208267D01*
X874071Y208514D01*
X873931Y208765D01*
X873802Y209022D01*
X873680Y209283D01*
X873568Y209550D01*
X873464Y209817D01*
X873370Y210091D01*
X873286Y210365D01*
X873212Y210645D01*
X873146Y210924D01*
X873090Y211209D01*
X873047Y211493D01*
X873012Y211778D01*
X872986Y212064D01*
X872971Y212354D01*
X821785Y155745D02*
G54D11*
D03*
X821785Y145585D02*
G54D11*
D03*
X821785Y135933D02*
G54D11*
D03*
X821785Y125773D02*
G54D11*
D03*
X821785Y115867D02*
G54D11*
D03*
X500221Y60241D02*
G54D12*
D03*
X525621Y60241D02*
G54D12*
D03*
X551021Y60241D02*
G54D12*
D03*
X576421Y60241D02*
G54D12*
D03*
X601821Y60241D02*
G54D12*
D03*
X627221Y60241D02*
G54D12*
D03*
X652621Y60241D02*
G54D12*
D03*
X678021Y60241D02*
G54D12*
D03*
X703421Y60241D02*
G54D12*
D03*
X728821Y60241D02*
G54D12*
D03*
X754221Y60241D02*
G54D12*
D03*
X779621Y60241D02*
G54D12*
D03*
X805021Y60241D02*
G54D12*
D03*
X830421Y60241D02*
G54D12*
D03*
X855821Y60241D02*
G54D12*
D03*
X500221Y212641D02*
G54D12*
D03*
X525621Y212641D02*
G54D12*
D03*
X551021Y212641D02*
G54D12*
D03*
X576421Y212641D02*
G54D12*
D03*
X601821Y212641D02*
G54D12*
D03*
X627221Y212641D02*
G54D12*
D03*
X652621Y212641D02*
G54D12*
D03*
X678021Y212641D02*
G54D12*
D03*
X703421Y212641D02*
G54D12*
D03*
X728821Y212641D02*
G54D12*
D03*
X754221Y212641D02*
G54D12*
D03*
X779621Y212641D02*
G54D12*
D03*
X805021Y212641D02*
G54D12*
D03*
X830421Y212641D02*
G54D12*
D03*
X855821Y212641D02*
G54D12*
D03*
X474980Y212800D02*
G54D13*
D03*
X474980Y60400D02*
G54D13*
D03*
X501237Y161587D02*
G54D12*
D03*
X475837Y161587D02*
G54D12*
D03*
X501237Y136187D02*
G54D12*
D03*
X475837Y136187D02*
G54D12*
D03*
X501237Y110787D02*
G54D12*
D03*
X475837Y110787D02*
G54D12*
D03*
X398780Y361900D02*
G54D14*
D03*
X322580Y361900D02*
G54D14*
D03*
X203655Y364475D02*
G54D15*
D03*
X229155Y364475D02*
G54D15*
D03*
X27280Y238175D02*
G54D16*
D03*
X78080Y238175D02*
G54D16*
D03*
X52680Y212775D02*
G54D16*
D03*
X78080Y187375D02*
G54D16*
D03*
X27280Y187375D02*
G54D16*
D03*
X792321Y314241D02*
G54D14*
D03*
X817721Y314241D02*
G54D14*
D03*
X843121Y314241D02*
G54D14*
D03*
X868521Y314241D02*
G54D14*
D03*
X222760Y93301D02*
G54D14*
D03*
X222760Y118701D02*
G54D14*
D03*
X222760Y144101D02*
G54D14*
D03*
X222760Y169501D02*
G54D14*
D03*
X222760Y194901D02*
G54D14*
D03*
X222760Y220301D02*
G54D14*
D03*
X222760Y245701D02*
G54D14*
D03*
X300196Y269791D02*
G54D17*
D03*
X325596Y269791D02*
G54D17*
D03*
X350996Y269791D02*
G54D17*
D03*
X376396Y269791D02*
G54D17*
D03*
X401796Y269791D02*
G54D17*
D03*
X401796Y269791D02*
G54D17*
D03*
X401796Y193591D02*
G54D18*
D03*
X300196Y269791D02*
G54D17*
D03*
X300196Y193591D02*
G54D14*
D03*
X300196Y117391D02*
G54D17*
D03*
X300196Y117391D02*
G54D17*
D03*
X325596Y117391D02*
G54D17*
D03*
X350996Y117391D02*
G54D17*
D03*
X376396Y117391D02*
G54D17*
D03*
X401796Y117391D02*
G54D17*
D03*
X300196Y193591D02*
G54D18*
D03*
X27280Y127050D02*
G54D16*
D03*
X78080Y127050D02*
G54D16*
D03*
X52680Y101650D02*
G54D16*
D03*
X78080Y76250D02*
G54D16*
D03*
X27280Y76250D02*
G54D16*
D03*
X458946Y314241D02*
G54D14*
D03*
X484346Y314241D02*
G54D14*
D03*
X509746Y314241D02*
G54D14*
D03*
X509746Y314241D02*
G54D14*
D03*
X509746Y288841D02*
G54D14*
D03*
X509746Y263441D02*
G54D14*
D03*
X458946Y263441D02*
G54D14*
D03*
X484346Y263441D02*
G54D14*
D03*
X509746Y263441D02*
G54D14*
D03*
X458946Y314241D02*
G54D14*
D03*
X458946Y288841D02*
G54D14*
D03*
X458946Y263441D02*
G54D14*
D03*
X438045Y365657D02*
G54D15*
D03*
X489026Y365770D02*
G54D15*
D03*
X538480Y361900D02*
G54D14*
D03*
X640080Y361900D02*
G54D14*
D03*
X731666Y363225D02*
G54D15*
D03*
X680685Y363113D02*
G54D15*
D03*
X768245Y365657D02*
G54D15*
D03*
X819226Y365770D02*
G54D15*
D03*
X179682Y308024D02*
G54D15*
D03*
X179794Y257043D02*
G54D15*
D03*
X135232Y308024D02*
G54D15*
D03*
X135344Y257043D02*
G54D15*
D03*
X179071Y139203D02*
G54D15*
D03*
X179122Y215453D02*
G54D15*
D03*
X132582Y141362D02*
G54D15*
D03*
X132632Y217612D02*
G54D15*
D03*
X853963Y258284D02*
G54D15*
D03*
X802982Y258171D02*
G54D15*
D03*
X219496Y48455D02*
G54D15*
D03*
X270476Y48567D02*
G54D15*
D03*
X550546Y256678D02*
G54D15*
D03*
X550596Y332928D02*
G54D15*
D03*
X222760Y118701D02*
G54D14*
D03*
X868521Y314241D02*
G54D14*
D03*
X489026Y365770D02*
G54D14*
D03*
X731666Y363225D02*
G54D14*
D03*
X819226Y365770D02*
G54D14*
D03*
X550596Y332928D02*
G54D14*
D03*
X802982Y258171D02*
G54D14*
D03*
X270476Y48567D02*
G54D14*
D03*
X350996Y269791D02*
G54D14*
D03*
X376396Y117391D02*
G54D14*
D03*
X401796Y117391D02*
G54D14*
D03*
X300196Y117391D02*
G54D14*
D03*
X350996Y117391D02*
G54D14*
D03*
X300196Y269791D02*
G54D14*
D03*
X401796Y269791D02*
G54D14*
D03*
X135344Y257043D02*
G54D14*
D03*
X179794Y257043D02*
G54D14*
D03*
G54D19*
X438045Y365657D02*
X438660Y366351D01*
X432310Y360001D01*
X400560Y360001D01*
X398780Y361900D01*
G54D19*
X538480Y361900D02*
X540260Y360001D01*
X514860Y385401D01*
X476760Y385401D01*
X457710Y366351D01*
X438660Y366351D01*
X438045Y365657D01*
G54D19*
X680685Y363113D02*
X679960Y360001D01*
X641860Y360001D01*
X640080Y361900D01*
G54D19*
X768245Y365657D02*
X768860Y366351D01*
X749810Y385401D01*
X724410Y385401D01*
X699010Y360001D01*
X679960Y360001D01*
X680685Y363113D01*
G54D19*
X219496Y48455D02*
X216410Y48851D01*
X260860Y93301D01*
X508510Y93301D01*
X578360Y163151D01*
X578360Y213951D01*
X576421Y212641D01*
G54D19*
X219496Y48455D02*
X216410Y48851D01*
X222760Y55201D01*
X222760Y93301D01*
G54D19*
X853963Y258284D02*
X851410Y258401D01*
X883160Y226651D01*
X889510Y226651D01*
X895860Y220301D01*
X895860Y207601D01*
X883160Y194901D01*
X597410Y194901D01*
X578360Y213951D01*
X576421Y212641D01*
G54D19*
X135232Y308024D02*
X133860Y309201D01*
X152910Y290151D01*
X305310Y290151D01*
X324360Y271101D01*
X325596Y269791D01*
G54D19*
X179682Y308024D02*
X178310Y309201D01*
X191010Y296501D01*
X311660Y296501D01*
X318010Y290151D01*
X356110Y290151D01*
X375160Y271101D01*
X376396Y269791D01*
G54D19*
X132632Y217612D02*
X133860Y220301D01*
X159260Y245701D01*
X159260Y264751D01*
X133860Y290151D01*
X133860Y309201D01*
X135232Y308024D01*
G54D19*
X132582Y141362D02*
X133860Y144101D01*
X140210Y137751D01*
X178310Y137751D01*
X179071Y139203D01*
G54D19*
X219496Y48455D02*
X216410Y48851D01*
X178310Y86951D01*
X178310Y137751D01*
X179071Y139203D01*
G54D19*
X509746Y263441D02*
X508510Y264751D01*
X470410Y226651D01*
X464060Y226651D01*
X457710Y220301D01*
X457710Y207601D01*
X470410Y194901D01*
X489460Y188551D01*
X514860Y188551D01*
X540260Y175851D01*
X578360Y213951D01*
X576421Y212641D01*
G54D19*
X222760Y245701D02*
X197360Y220301D01*
X197360Y207601D01*
X191010Y201251D01*
X127510Y201251D01*
X114810Y213951D01*
X51310Y213951D01*
X52680Y212775D01*
G54D19*
X52680Y101650D02*
X51310Y99651D01*
X57660Y106001D01*
X57660Y131401D01*
X121160Y194901D01*
X197360Y194901D01*
X222760Y220301D01*
G54D19*
X222760Y144101D02*
X273560Y194901D01*
X273560Y207601D01*
X311660Y245701D01*
X406910Y245701D01*
X445010Y283801D01*
X445010Y321901D01*
X451360Y328251D01*
X521210Y328251D01*
X540260Y309201D01*
X559310Y309201D01*
X641860Y391751D01*
X756160Y391751D01*
X762510Y385401D01*
X775210Y385401D01*
X787910Y372701D01*
X787910Y360001D01*
X654560Y226651D01*
X654560Y213951D01*
X652621Y212641D01*
G54D19*
X853963Y258284D02*
X851410Y258401D01*
X845060Y264751D01*
X845060Y315551D01*
X843121Y314241D01*
X576421Y60241D02*
G54D20*
D03*
X525621Y212641D02*
G54D20*
D03*
X349760Y188551D02*
G54D20*
D03*
G54D19*
X349760Y188551D02*
X343410Y194901D01*
X298960Y194901D01*
X300196Y193591D01*
G54D19*
X349760Y188551D02*
X356110Y194901D01*
X400560Y194901D01*
X401796Y193591D01*
X598646Y314241D02*
G54D14*
D03*
X598646Y288841D02*
G54D14*
D03*
X598646Y263441D02*
G54D14*
D03*
X649446Y314241D02*
G54D14*
D03*
X624046Y314241D02*
G54D14*
D03*
X598646Y314241D02*
G54D14*
D03*
X649446Y314241D02*
G54D14*
D03*
X649446Y288841D02*
G54D14*
D03*
X649446Y263441D02*
G54D14*
D03*
X649446Y263441D02*
G54D14*
D03*
X624046Y263441D02*
G54D14*
D03*
X598646Y263441D02*
G54D14*
D03*
G54D19*
X768245Y365657D02*
X768860Y366351D01*
X667260Y264751D01*
X667260Y258401D01*
X641860Y233001D01*
X521210Y233001D01*
X502160Y213951D01*
X500221Y212641D01*
G54D19*
X649446Y263441D02*
X648210Y264751D01*
X622810Y239351D01*
X546610Y239351D01*
X521210Y264751D01*
X508510Y264751D01*
X509746Y263441D01*
X698796Y248889D02*
G54D15*
D03*
X752749Y302771D02*
G54D15*
D03*
X752749Y302771D02*
G54D14*
D03*
G54D21*
X792321Y314241D02*
X793750Y311150D01*
X749300Y266700D01*
X692150Y266700D01*
X654050Y228600D01*
X654050Y209550D01*
X652621Y212641D01*
G54D21*
X229155Y364475D02*
X228600Y361950D01*
X323850Y361950D01*
X322580Y361900D01*
G36*
X11400Y344150D02*
X39400Y344150D01*
X39400Y316150D01*
X11400Y316150D01*
X11400Y344150D01*
G37*
G36*
X468600Y33000D02*
X496600Y33000D01*
X496600Y5000D01*
X468600Y5000D01*
X468600Y33000D01*
G37*
G36*
X748000Y33000D02*
X776000Y33000D01*
X776000Y5000D01*
X748000Y5000D01*
X748000Y33000D01*
G37*
G36*
X113000Y33000D02*
X141000Y33000D01*
X141000Y5000D01*
X113000Y5000D01*
X113000Y33000D01*
G37*
X25400Y374600D02*
G54D22*
D03*
X25400Y19000D02*
G54D22*
D03*
X876300Y19000D02*
G54D22*
D03*
X876300Y374600D02*
G54D22*
D03*
X636746Y22141D02*
G54D14*
D03*
X611346Y22141D02*
G54D14*
D03*
X585946Y22141D02*
G54D14*
D03*
X662146Y22141D02*
G54D14*
D03*
X636746Y22141D02*
G54D14*
D03*
X611346Y22141D02*
G54D14*
D03*
G54D21*
X611346Y22141D02*
X609600Y19050D01*
X635000Y44450D01*
X736600Y44450D01*
X749300Y57150D01*
X755650Y57150D01*
X754221Y60241D01*
G54D21*
X585946Y22141D02*
X584200Y19050D01*
X558800Y44450D01*
X469900Y44450D01*
X457200Y57150D01*
X457200Y63500D01*
X476250Y82550D01*
X584200Y82550D01*
X590550Y76200D01*
X711200Y76200D01*
X730250Y57150D01*
X728821Y60241D01*
%LPD*%
G54D23*
G36*
X200322Y364475D02*
X200322Y380975D01*
X206988Y380975D01*
X206988Y364475D01*
X200322Y364475D01*
G37*
G54D24*
G54D25*
G36*
X23613Y238175D02*
X23613Y253675D01*
X30947Y253675D01*
X30947Y238175D01*
X23613Y238175D01*
G37*
G36*
X27280Y241842D02*
X42780Y241842D01*
X42780Y234508D01*
X27280Y234508D01*
X27280Y241842D01*
G37*
G36*
X30947Y238175D02*
X30947Y222675D01*
X23613Y222675D01*
X23613Y238175D01*
X30947Y238175D01*
G37*
G36*
X27280Y234508D02*
X11780Y234508D01*
X11780Y241842D01*
X27280Y241842D01*
X27280Y234508D01*
G37*
G54D25*
G36*
X74413Y238175D02*
X74413Y253675D01*
X81747Y253675D01*
X81747Y238175D01*
X74413Y238175D01*
G37*
G36*
X78080Y241842D02*
X93580Y241842D01*
X93580Y234508D01*
X78080Y234508D01*
X78080Y241842D01*
G37*
G36*
X81747Y238175D02*
X81747Y222675D01*
X74413Y222675D01*
X74413Y238175D01*
X81747Y238175D01*
G37*
G36*
X78080Y234508D02*
X62580Y234508D01*
X62580Y241842D01*
X78080Y241842D01*
X78080Y234508D01*
G37*
G54D25*
G36*
X74413Y187375D02*
X74413Y202875D01*
X81747Y202875D01*
X81747Y187375D01*
X74413Y187375D01*
G37*
G36*
X78080Y191042D02*
X93580Y191042D01*
X93580Y183708D01*
X78080Y183708D01*
X78080Y191042D01*
G37*
G36*
X81747Y187375D02*
X81747Y171875D01*
X74413Y171875D01*
X74413Y187375D01*
X81747Y187375D01*
G37*
G36*
X78080Y183708D02*
X62580Y183708D01*
X62580Y191042D01*
X78080Y191042D01*
X78080Y183708D01*
G37*
G54D25*
G36*
X23613Y187375D02*
X23613Y202875D01*
X30947Y202875D01*
X30947Y187375D01*
X23613Y187375D01*
G37*
G36*
X27280Y191042D02*
X42780Y191042D01*
X42780Y183708D01*
X27280Y183708D01*
X27280Y191042D01*
G37*
G36*
X30947Y187375D02*
X30947Y171875D01*
X23613Y171875D01*
X23613Y187375D01*
X30947Y187375D01*
G37*
G36*
X27280Y183708D02*
X11780Y183708D01*
X11780Y191042D01*
X27280Y191042D01*
X27280Y183708D01*
G37*
G54D25*
G36*
X23613Y127050D02*
X23613Y142550D01*
X30947Y142550D01*
X30947Y127050D01*
X23613Y127050D01*
G37*
G36*
X27280Y130717D02*
X42780Y130717D01*
X42780Y123383D01*
X27280Y123383D01*
X27280Y130717D01*
G37*
G36*
X30947Y127050D02*
X30947Y111550D01*
X23613Y111550D01*
X23613Y127050D01*
X30947Y127050D01*
G37*
G36*
X27280Y123383D02*
X11780Y123383D01*
X11780Y130717D01*
X27280Y130717D01*
X27280Y123383D01*
G37*
G54D25*
G36*
X74413Y127050D02*
X74413Y142550D01*
X81747Y142550D01*
X81747Y127050D01*
X74413Y127050D01*
G37*
G36*
X78080Y130717D02*
X93580Y130717D01*
X93580Y123383D01*
X78080Y123383D01*
X78080Y130717D01*
G37*
G36*
X81747Y127050D02*
X81747Y111550D01*
X74413Y111550D01*
X74413Y127050D01*
X81747Y127050D01*
G37*
G36*
X78080Y123383D02*
X62580Y123383D01*
X62580Y130717D01*
X78080Y130717D01*
X78080Y123383D01*
G37*
G54D25*
G36*
X74413Y76250D02*
X74413Y91750D01*
X81747Y91750D01*
X81747Y76250D01*
X74413Y76250D01*
G37*
G36*
X78080Y79917D02*
X93580Y79917D01*
X93580Y72583D01*
X78080Y72583D01*
X78080Y79917D01*
G37*
G36*
X81747Y76250D02*
X81747Y60750D01*
X74413Y60750D01*
X74413Y76250D01*
X81747Y76250D01*
G37*
G36*
X78080Y72583D02*
X62580Y72583D01*
X62580Y79917D01*
X78080Y79917D01*
X78080Y72583D01*
G37*
G54D25*
G36*
X23613Y76250D02*
X23613Y91750D01*
X30947Y91750D01*
X30947Y76250D01*
X23613Y76250D01*
G37*
G36*
X27280Y79917D02*
X42780Y79917D01*
X42780Y72583D01*
X27280Y72583D01*
X27280Y79917D01*
G37*
G36*
X30947Y76250D02*
X30947Y60750D01*
X23613Y60750D01*
X23613Y76250D01*
X30947Y76250D01*
G37*
G36*
X27280Y72583D02*
X11780Y72583D01*
X11780Y79917D01*
X27280Y79917D01*
X27280Y72583D01*
G37*
G54D23*
G36*
X222760Y115368D02*
X208260Y115368D01*
X208260Y122035D01*
X222760Y122035D01*
X222760Y115368D01*
G37*
G36*
X219426Y118701D02*
X219426Y133201D01*
X226093Y133201D01*
X226093Y118701D01*
X219426Y118701D01*
G37*
G36*
X222760Y122035D02*
X237260Y122035D01*
X237260Y115368D01*
X222760Y115368D01*
X222760Y122035D01*
G37*
G36*
X226093Y118701D02*
X226093Y104201D01*
X219426Y104201D01*
X219426Y118701D01*
X226093Y118701D01*
G37*
G54D23*
G36*
X865188Y314241D02*
X865188Y328741D01*
X871854Y328741D01*
X871854Y314241D01*
X865188Y314241D01*
G37*
G36*
X868521Y317574D02*
X883021Y317574D01*
X883021Y310908D01*
X868521Y310908D01*
X868521Y317574D01*
G37*
G36*
X871854Y314241D02*
X871854Y299741D01*
X865188Y299741D01*
X865188Y314241D01*
X871854Y314241D01*
G37*
G36*
X868521Y310908D02*
X854021Y310908D01*
X854021Y317574D01*
X868521Y317574D01*
X868521Y310908D01*
G37*
G54D26*
G36*
X482226Y365770D02*
X482226Y380270D01*
X495826Y380270D01*
X495826Y365770D01*
X482226Y365770D01*
G37*
G36*
X489026Y372570D02*
X503526Y372570D01*
X503526Y358970D01*
X489026Y358970D01*
X489026Y372570D01*
G37*
G36*
X495826Y365770D02*
X495826Y351270D01*
X482226Y351270D01*
X482226Y365770D01*
X495826Y365770D01*
G37*
G36*
X489026Y358970D02*
X474526Y358970D01*
X474526Y372570D01*
X489026Y372570D01*
X489026Y358970D01*
G37*
G54D27*
G36*
X723732Y363225D02*
X723732Y377725D01*
X739599Y377725D01*
X739599Y363225D01*
X723732Y363225D01*
G37*
G36*
X731666Y371159D02*
X746166Y371159D01*
X746166Y355292D01*
X731666Y355292D01*
X731666Y371159D01*
G37*
G36*
X739599Y363225D02*
X739599Y348725D01*
X723732Y348725D01*
X723732Y363225D01*
X739599Y363225D01*
G37*
G36*
X731666Y355292D02*
X717166Y355292D01*
X717166Y371159D01*
X731666Y371159D01*
X731666Y355292D01*
G37*
G54D28*
G36*
X811092Y365770D02*
X811092Y380270D01*
X827359Y380270D01*
X827359Y365770D01*
X811092Y365770D01*
G37*
G36*
X819226Y373903D02*
X833726Y373903D01*
X833726Y357636D01*
X819226Y357636D01*
X819226Y373903D01*
G37*
G36*
X827359Y365770D02*
X827359Y351270D01*
X811092Y351270D01*
X811092Y365770D01*
X827359Y365770D01*
G37*
G36*
X819226Y357636D02*
X804726Y357636D01*
X804726Y373903D01*
X819226Y373903D01*
X819226Y357636D01*
G37*
G54D27*
G36*
X542663Y332928D02*
X542663Y347428D01*
X558529Y347428D01*
X558529Y332928D01*
X542663Y332928D01*
G37*
G36*
X550596Y340861D02*
X565096Y340861D01*
X565096Y324995D01*
X550596Y324995D01*
X550596Y340861D01*
G37*
G36*
X558529Y332928D02*
X558529Y318428D01*
X542663Y318428D01*
X542663Y332928D01*
X558529Y332928D01*
G37*
G36*
X550596Y324995D02*
X536096Y324995D01*
X536096Y340861D01*
X550596Y340861D01*
X550596Y324995D01*
G37*
G54D29*
G36*
X794616Y258171D02*
X794616Y272671D01*
X811349Y272671D01*
X811349Y258171D01*
X794616Y258171D01*
G37*
G36*
X802982Y266538D02*
X817482Y266538D01*
X817482Y249805D01*
X802982Y249805D01*
X802982Y266538D01*
G37*
G36*
X811349Y258171D02*
X811349Y243671D01*
X794616Y243671D01*
X794616Y258171D01*
X811349Y258171D01*
G37*
G36*
X802982Y249805D02*
X788482Y249805D01*
X788482Y266538D01*
X802982Y266538D01*
X802982Y249805D01*
G37*
G54D30*
G36*
X261509Y48567D02*
X261509Y63067D01*
X279443Y63067D01*
X279443Y48567D01*
X261509Y48567D01*
G37*
G36*
X270476Y57534D02*
X284976Y57534D01*
X284976Y39600D01*
X270476Y39600D01*
X270476Y57534D01*
G37*
G36*
X279443Y48567D02*
X279443Y34067D01*
X261509Y34067D01*
X261509Y48567D01*
X279443Y48567D01*
G37*
G36*
X270476Y39600D02*
X255976Y39600D01*
X255976Y57534D01*
X270476Y57534D01*
X270476Y39600D01*
G37*
G54D23*
G36*
X347663Y269791D02*
X347663Y284291D01*
X354329Y284291D01*
X354329Y269791D01*
X347663Y269791D01*
G37*
G36*
X350996Y273124D02*
X365496Y273124D01*
X365496Y266458D01*
X350996Y266458D01*
X350996Y273124D01*
G37*
G36*
X354329Y269791D02*
X354329Y255291D01*
X347663Y255291D01*
X347663Y269791D01*
X354329Y269791D01*
G37*
G36*
X350996Y266458D02*
X336496Y266458D01*
X336496Y273124D01*
X350996Y273124D01*
X350996Y266458D01*
G37*
G54D23*
G36*
X373063Y117391D02*
X373063Y131891D01*
X379729Y131891D01*
X379729Y117391D01*
X373063Y117391D01*
G37*
G36*
X376396Y120724D02*
X390896Y120724D01*
X390896Y114058D01*
X376396Y114058D01*
X376396Y120724D01*
G37*
G36*
X379729Y117391D02*
X379729Y102891D01*
X373063Y102891D01*
X373063Y117391D01*
X379729Y117391D01*
G37*
G36*
X376396Y114058D02*
X361896Y114058D01*
X361896Y120724D01*
X376396Y120724D01*
X376396Y114058D01*
G37*
G54D23*
G36*
X398463Y117391D02*
X398463Y131891D01*
X405129Y131891D01*
X405129Y117391D01*
X398463Y117391D01*
G37*
G36*
X401796Y120724D02*
X416296Y120724D01*
X416296Y114058D01*
X401796Y114058D01*
X401796Y120724D01*
G37*
G36*
X405129Y117391D02*
X405129Y102891D01*
X398463Y102891D01*
X398463Y117391D01*
X405129Y117391D01*
G37*
G36*
X401796Y114058D02*
X387296Y114058D01*
X387296Y120724D01*
X401796Y120724D01*
X401796Y114058D01*
G37*
G54D23*
G36*
X296863Y117391D02*
X296863Y131891D01*
X303529Y131891D01*
X303529Y117391D01*
X296863Y117391D01*
G37*
G36*
X300196Y120724D02*
X314696Y120724D01*
X314696Y114058D01*
X300196Y114058D01*
X300196Y120724D01*
G37*
G36*
X303529Y117391D02*
X303529Y102891D01*
X296863Y102891D01*
X296863Y117391D01*
X303529Y117391D01*
G37*
G36*
X300196Y114058D02*
X285696Y114058D01*
X285696Y120724D01*
X300196Y120724D01*
X300196Y114058D01*
G37*
G54D23*
G36*
X347663Y117391D02*
X347663Y131891D01*
X354329Y131891D01*
X354329Y117391D01*
X347663Y117391D01*
G37*
G36*
X350996Y120724D02*
X365496Y120724D01*
X365496Y114058D01*
X350996Y114058D01*
X350996Y120724D01*
G37*
G36*
X354329Y117391D02*
X354329Y102891D01*
X347663Y102891D01*
X347663Y117391D01*
X354329Y117391D01*
G37*
G36*
X350996Y114058D02*
X336496Y114058D01*
X336496Y120724D01*
X350996Y120724D01*
X350996Y114058D01*
G37*
G54D23*
G36*
X296863Y269791D02*
X296863Y284291D01*
X303529Y284291D01*
X303529Y269791D01*
X296863Y269791D01*
G37*
G36*
X300196Y273124D02*
X314696Y273124D01*
X314696Y266458D01*
X300196Y266458D01*
X300196Y273124D01*
G37*
G36*
X303529Y269791D02*
X303529Y255291D01*
X296863Y255291D01*
X296863Y269791D01*
X303529Y269791D01*
G37*
G36*
X300196Y266458D02*
X285696Y266458D01*
X285696Y273124D01*
X300196Y273124D01*
X300196Y266458D01*
G37*
G54D23*
G36*
X398463Y269791D02*
X398463Y284291D01*
X405129Y284291D01*
X405129Y269791D01*
X398463Y269791D01*
G37*
G36*
X401796Y273124D02*
X416296Y273124D01*
X416296Y266458D01*
X401796Y266458D01*
X401796Y273124D01*
G37*
G36*
X405129Y269791D02*
X405129Y255291D01*
X398463Y255291D01*
X398463Y269791D01*
X405129Y269791D01*
G37*
G36*
X401796Y266458D02*
X387296Y266458D01*
X387296Y273124D01*
X401796Y273124D01*
X401796Y266458D01*
G37*
G54D26*
G36*
X128544Y257043D02*
X128544Y271543D01*
X142144Y271543D01*
X142144Y257043D01*
X128544Y257043D01*
G37*
G36*
X135344Y263843D02*
X149844Y263843D01*
X149844Y250243D01*
X135344Y250243D01*
X135344Y263843D01*
G37*
G36*
X142144Y257043D02*
X142144Y242543D01*
X128544Y242543D01*
X128544Y257043D01*
X142144Y257043D01*
G37*
G36*
X135344Y250243D02*
X120844Y250243D01*
X120844Y263843D01*
X135344Y263843D01*
X135344Y250243D01*
G37*
G54D26*
G36*
X172994Y257043D02*
X172994Y271543D01*
X186594Y271543D01*
X186594Y257043D01*
X172994Y257043D01*
G37*
G36*
X179794Y263843D02*
X194294Y263843D01*
X194294Y250243D01*
X179794Y250243D01*
X179794Y263843D01*
G37*
G36*
X186594Y257043D02*
X186594Y242543D01*
X172994Y242543D01*
X172994Y257043D01*
X186594Y257043D01*
G37*
G36*
X179794Y250243D02*
X165294Y250243D01*
X165294Y263843D01*
X179794Y263843D01*
X179794Y250243D01*
G37*
G54D31*
G36*
X571154Y60241D02*
X571154Y72741D01*
X581688Y72741D01*
X581688Y60241D01*
X571154Y60241D01*
G37*
G36*
X581688Y60241D02*
X581688Y47741D01*
X571154Y47741D01*
X571154Y60241D01*
X581688Y60241D01*
G37*
G54D32*
G36*
X520154Y212641D02*
X520154Y225141D01*
X531088Y225141D01*
X531088Y212641D01*
X520154Y212641D01*
G37*
G36*
X531088Y212641D02*
X531088Y200141D01*
X520154Y200141D01*
X520154Y212641D01*
X531088Y212641D01*
G37*
G54D23*
G36*
X346427Y188551D02*
X346427Y201051D01*
X353093Y201051D01*
X353093Y188551D01*
X346427Y188551D01*
G37*
G36*
X349760Y191884D02*
X362260Y191884D01*
X362260Y185218D01*
X349760Y185218D01*
X349760Y191884D01*
G37*
G36*
X353093Y188551D02*
X353093Y176051D01*
X346427Y176051D01*
X346427Y188551D01*
X353093Y188551D01*
G37*
G36*
X349760Y185218D02*
X337260Y185218D01*
X337260Y191884D01*
X349760Y191884D01*
X349760Y185218D01*
G37*
G54D33*
G36*
X746621Y308899D02*
X756874Y319152D01*
X769130Y306896D01*
X758877Y296643D01*
X746621Y308899D01*
G37*
G54D23*
G36*
X22067Y330150D02*
X22067Y344650D01*
X28733Y344650D01*
X28733Y330150D01*
X22067Y330150D01*
G37*
G36*
X25400Y333483D02*
X39900Y333483D01*
X39900Y326817D01*
X25400Y326817D01*
X25400Y333483D01*
G37*
G36*
X28733Y330150D02*
X28733Y315650D01*
X22067Y315650D01*
X22067Y330150D01*
X28733Y330150D01*
G37*
G36*
X25400Y326817D02*
X10900Y326817D01*
X10900Y333483D01*
X25400Y333483D01*
X25400Y326817D01*
G37*
G54D23*
G36*
X479267Y19000D02*
X479267Y33500D01*
X485933Y33500D01*
X485933Y19000D01*
X479267Y19000D01*
G37*
G36*
X482600Y22333D02*
X497100Y22333D01*
X497100Y15667D01*
X482600Y15667D01*
X482600Y22333D01*
G37*
G36*
X485933Y19000D02*
X485933Y4500D01*
X479267Y4500D01*
X479267Y19000D01*
X485933Y19000D01*
G37*
G36*
X482600Y15667D02*
X468100Y15667D01*
X468100Y22333D01*
X482600Y22333D01*
X482600Y15667D01*
G37*
G54D23*
G36*
X758667Y19000D02*
X758667Y33500D01*
X765333Y33500D01*
X765333Y19000D01*
X758667Y19000D01*
G37*
G36*
X762000Y22333D02*
X776500Y22333D01*
X776500Y15667D01*
X762000Y15667D01*
X762000Y22333D01*
G37*
G36*
X765333Y19000D02*
X765333Y4500D01*
X758667Y4500D01*
X758667Y19000D01*
X765333Y19000D01*
G37*
G36*
X762000Y15667D02*
X747500Y15667D01*
X747500Y22333D01*
X762000Y22333D01*
X762000Y15667D01*
G37*
G54D23*
G36*
X123667Y19000D02*
X123667Y33500D01*
X130333Y33500D01*
X130333Y19000D01*
X123667Y19000D01*
G37*
G36*
X127000Y22333D02*
X141500Y22333D01*
X141500Y15667D01*
X127000Y15667D01*
X127000Y22333D01*
G37*
G36*
X130333Y19000D02*
X130333Y4500D01*
X123667Y4500D01*
X123667Y19000D01*
X130333Y19000D01*
G37*
G36*
X127000Y15667D02*
X112500Y15667D01*
X112500Y22333D01*
X127000Y22333D01*
X127000Y15667D01*
G37*
G54D34*
G36*
X25400Y385750D02*
X41900Y385750D01*
X41900Y363450D01*
X25400Y363450D01*
X25400Y385750D01*
G37*
G36*
X36550Y374600D02*
X36550Y358100D01*
X14250Y358100D01*
X14250Y374600D01*
X36550Y374600D01*
G37*
G36*
X25400Y363450D02*
X8900Y363450D01*
X8900Y385750D01*
X25400Y385750D01*
X25400Y363450D01*
G37*
G36*
X14250Y374600D02*
X14250Y391100D01*
X36550Y391100D01*
X36550Y374600D01*
X14250Y374600D01*
G37*
G54D34*
G36*
X25400Y30150D02*
X41900Y30150D01*
X41900Y7850D01*
X25400Y7850D01*
X25400Y30150D01*
G37*
G36*
X36550Y19000D02*
X36550Y2500D01*
X14250Y2500D01*
X14250Y19000D01*
X36550Y19000D01*
G37*
G36*
X25400Y7850D02*
X8900Y7850D01*
X8900Y30150D01*
X25400Y30150D01*
X25400Y7850D01*
G37*
G36*
X14250Y19000D02*
X14250Y35500D01*
X36550Y35500D01*
X36550Y19000D01*
X14250Y19000D01*
G37*
G54D34*
G36*
X876300Y30150D02*
X892800Y30150D01*
X892800Y7850D01*
X876300Y7850D01*
X876300Y30150D01*
G37*
G36*
X887450Y19000D02*
X887450Y2500D01*
X865150Y2500D01*
X865150Y19000D01*
X887450Y19000D01*
G37*
G36*
X876300Y7850D02*
X859800Y7850D01*
X859800Y30150D01*
X876300Y30150D01*
X876300Y7850D01*
G37*
G36*
X865150Y19000D02*
X865150Y35500D01*
X887450Y35500D01*
X887450Y19000D01*
X865150Y19000D01*
G37*
G54D34*
G36*
X876300Y385750D02*
X892800Y385750D01*
X892800Y363450D01*
X876300Y363450D01*
X876300Y385750D01*
G37*
G36*
X887450Y374600D02*
X887450Y358100D01*
X865150Y358100D01*
X865150Y374600D01*
X887450Y374600D01*
G37*
G36*
X876300Y363450D02*
X859800Y363450D01*
X859800Y385750D01*
X876300Y385750D01*
X876300Y363450D01*
G37*
G36*
X865150Y374600D02*
X865150Y391100D01*
X887450Y391100D01*
X887450Y374600D01*
X865150Y374600D01*
G37*
G54D35*
X872971Y59954D02*
X872966Y60241D01*
X872971Y60528D01*
X872986Y60818D01*
X873012Y61105D01*
X873048Y61389D01*
X873091Y61674D01*
X873146Y61958D01*
X873212Y62237D01*
X873286Y62517D01*
X873370Y62791D01*
X873464Y63066D01*
X873568Y63332D01*
X873680Y63599D01*
X873802Y63861D01*
X873931Y64117D01*
X874071Y64369D01*
X874221Y64615D01*
X874378Y64856D01*
X874543Y65092D01*
X874716Y65324D01*
X874896Y65547D01*
X875087Y65766D01*
X875283Y65976D01*
X875486Y66180D01*
X875697Y66375D01*
X875915Y66566D01*
X876139Y66746D01*
X876370Y66919D01*
X876606Y67084D01*
X876847Y67241D01*
X877094Y67391D01*
X877345Y67531D01*
X877602Y67660D01*
X877863Y67782D01*
X878130Y67894D01*
X878396Y67998D01*
X878671Y68092D01*
X878945Y68176D01*
X879224Y68250D01*
X879504Y68316D01*
X879788Y68372D01*
X880073Y68415D01*
X880358Y68450D01*
X880644Y68476D01*
X880934Y68491D01*
X881221Y68496D01*
X881508Y68491D01*
X881798Y68476D01*
X882085Y68450D01*
X882369Y68415D01*
X882654Y68372D01*
X882938Y68316D01*
X883218Y68250D01*
X883497Y68176D01*
X883771Y68092D01*
X884046Y67998D01*
X884312Y67894D01*
X884579Y67782D01*
X884841Y67660D01*
X885097Y67531D01*
X885349Y67391D01*
X885595Y67241D01*
X885836Y67084D01*
X886072Y66919D01*
X886304Y66746D01*
X886527Y66566D01*
X886746Y66375D01*
X886956Y66180D01*
X887160Y65976D01*
X887355Y65766D01*
X887546Y65547D01*
X887726Y65324D01*
X887899Y65092D01*
X888064Y64856D01*
X888221Y64615D01*
X888371Y64368D01*
X888511Y64117D01*
X888640Y63861D01*
X888762Y63599D01*
X888874Y63332D01*
X888978Y63066D01*
X889072Y62791D01*
X889156Y62517D01*
X889230Y62237D01*
X889296Y61958D01*
X889352Y61674D01*
X889395Y61389D01*
X889430Y61105D01*
X889456Y60818D01*
X889471Y60528D01*
X889476Y60241D01*
X889471Y59954D01*
X889456Y59664D01*
X889430Y59377D01*
X889395Y59093D01*
X889352Y58808D01*
X889296Y58524D01*
X889230Y58244D01*
X889156Y57965D01*
X889072Y57691D01*
X888978Y57417D01*
X888874Y57150D01*
X888762Y56883D01*
X888640Y56622D01*
X888511Y56365D01*
X888371Y56114D01*
X888221Y55867D01*
X888064Y55626D01*
X887899Y55390D01*
X887726Y55158D01*
X887546Y54935D01*
X887355Y54717D01*
X887160Y54506D01*
X886956Y54303D01*
X886746Y54107D01*
X886527Y53916D01*
X886304Y53736D01*
X886072Y53563D01*
X885836Y53398D01*
X885595Y53241D01*
X885349Y53091D01*
X885097Y52951D01*
X884841Y52822D01*
X884579Y52700D01*
X884312Y52588D01*
X884046Y52484D01*
X883771Y52390D01*
X883497Y52306D01*
X883218Y52232D01*
X882938Y52166D01*
X882654Y52110D01*
X882369Y52067D01*
X882085Y52032D01*
X881798Y52006D01*
X881508Y51991D01*
X881221Y51986D01*
X880934Y51991D01*
X880645Y52006D01*
X880358Y52032D01*
X880073Y52067D01*
X879788Y52110D01*
X879504Y52166D01*
X879224Y52232D01*
X878945Y52306D01*
X878671Y52390D01*
X878397Y52484D01*
X878130Y52588D01*
X877863Y52700D01*
X877602Y52822D01*
X877345Y52951D01*
X877094Y53091D01*
X876847Y53241D01*
X876606Y53398D01*
X876370Y53563D01*
X876139Y53736D01*
X875915Y53916D01*
X875697Y54107D01*
X875486Y54303D01*
X875282Y54506D01*
X875087Y54717D01*
X874896Y54935D01*
X874716Y55158D01*
X874543Y55390D01*
X874378Y55626D01*
X874221Y55867D01*
X874071Y56114D01*
X873931Y56365D01*
X873802Y56622D01*
X873680Y56883D01*
X873568Y57150D01*
X873464Y57417D01*
X873370Y57691D01*
X873286Y57965D01*
X873212Y58245D01*
X873146Y58524D01*
X873091Y58808D01*
X873048Y59093D01*
X873012Y59377D01*
X872986Y59664D01*
X872971Y59954D01*
G54D35*
X872971Y212354D02*
X872966Y212641D01*
X872971Y212928D01*
X872986Y213218D01*
X873012Y213505D01*
X873048Y213789D01*
X873091Y214074D01*
X873146Y214358D01*
X873212Y214637D01*
X873286Y214917D01*
X873370Y215191D01*
X873464Y215466D01*
X873568Y215732D01*
X873680Y215999D01*
X873802Y216261D01*
X873931Y216517D01*
X874071Y216769D01*
X874221Y217015D01*
X874378Y217256D01*
X874543Y217492D01*
X874716Y217724D01*
X874896Y217947D01*
X875087Y218166D01*
X875283Y218376D01*
X875486Y218580D01*
X875697Y218775D01*
X875915Y218966D01*
X876139Y219146D01*
X876370Y219319D01*
X876606Y219484D01*
X876847Y219641D01*
X877094Y219791D01*
X877345Y219931D01*
X877602Y220060D01*
X877863Y220182D01*
X878130Y220294D01*
X878397Y220398D01*
X878671Y220492D01*
X878945Y220576D01*
X879225Y220650D01*
X879504Y220716D01*
X879789Y220772D01*
X880073Y220815D01*
X880358Y220850D01*
X880644Y220876D01*
X880934Y220891D01*
X881221Y220896D01*
X881508Y220891D01*
X881798Y220876D01*
X882085Y220850D01*
X882369Y220815D01*
X882654Y220772D01*
X882938Y220716D01*
X883218Y220650D01*
X883497Y220576D01*
X883771Y220492D01*
X884046Y220398D01*
X884312Y220294D01*
X884579Y220182D01*
X884840Y220060D01*
X885097Y219931D01*
X885349Y219791D01*
X885595Y219641D01*
X885836Y219484D01*
X886072Y219319D01*
X886304Y219146D01*
X886527Y218966D01*
X886746Y218775D01*
X886956Y218580D01*
X887160Y218376D01*
X887355Y218166D01*
X887546Y217947D01*
X887726Y217724D01*
X887899Y217492D01*
X888064Y217256D01*
X888221Y217015D01*
X888371Y216769D01*
X888511Y216517D01*
X888640Y216261D01*
X888762Y215999D01*
X888874Y215732D01*
X888978Y215466D01*
X889072Y215191D01*
X889156Y214917D01*
X889230Y214637D01*
X889296Y214358D01*
X889352Y214074D01*
X889395Y213789D01*
X889430Y213505D01*
X889456Y213218D01*
X889471Y212928D01*
X889476Y212641D01*
X889471Y212354D01*
X889456Y212064D01*
X889430Y211777D01*
X889395Y211493D01*
X889352Y211208D01*
X889296Y210924D01*
X889230Y210645D01*
X889156Y210365D01*
X889072Y210091D01*
X888978Y209817D01*
X888874Y209550D01*
X888762Y209283D01*
X888640Y209022D01*
X888511Y208765D01*
X888371Y208514D01*
X888221Y208267D01*
X888064Y208026D01*
X887899Y207790D01*
X887726Y207559D01*
X887546Y207335D01*
X887355Y207117D01*
X887160Y206906D01*
X886956Y206703D01*
X886746Y206507D01*
X886527Y206316D01*
X886304Y206136D01*
X886072Y205963D01*
X885836Y205798D01*
X885595Y205641D01*
X885349Y205491D01*
X885097Y205351D01*
X884841Y205222D01*
X884579Y205100D01*
X884312Y204988D01*
X884046Y204884D01*
X883771Y204790D01*
X883497Y204706D01*
X883218Y204632D01*
X882938Y204566D01*
X882654Y204511D01*
X882369Y204467D01*
X882085Y204432D01*
X881798Y204406D01*
X881508Y204391D01*
X881221Y204386D01*
X880934Y204391D01*
X880644Y204406D01*
X880358Y204432D01*
X880073Y204467D01*
X879788Y204511D01*
X879504Y204566D01*
X879224Y204632D01*
X878945Y204706D01*
X878671Y204790D01*
X878396Y204884D01*
X878130Y204988D01*
X877863Y205100D01*
X877602Y205222D01*
X877345Y205351D01*
X877094Y205491D01*
X876847Y205641D01*
X876606Y205798D01*
X876370Y205963D01*
X876139Y206136D01*
X875915Y206316D01*
X875696Y206507D01*
X875486Y206702D01*
X875283Y206906D01*
X875087Y207117D01*
X874896Y207335D01*
X874716Y207558D01*
X874543Y207790D01*
X874378Y208026D01*
X874221Y208267D01*
X874071Y208514D01*
X873931Y208765D01*
X873802Y209022D01*
X873680Y209283D01*
X873568Y209550D01*
X873464Y209817D01*
X873370Y210091D01*
X873286Y210365D01*
X873212Y210645D01*
X873146Y210924D01*
X873090Y211209D01*
X873047Y211493D01*
X873012Y211778D01*
X872986Y212064D01*
X872971Y212354D01*
X821785Y155745D02*
G54D36*
D03*
X821785Y145585D02*
G54D36*
D03*
X821785Y135933D02*
G54D36*
D03*
X821785Y125773D02*
G54D36*
D03*
X821785Y115867D02*
G54D36*
D03*
X500221Y60241D02*
G54D37*
D03*
X525621Y60241D02*
G54D37*
D03*
X551021Y60241D02*
G54D37*
D03*
X576421Y60241D02*
G54D37*
D03*
X601821Y60241D02*
G54D37*
D03*
X627221Y60241D02*
G54D37*
D03*
X652621Y60241D02*
G54D37*
D03*
X678021Y60241D02*
G54D37*
D03*
X703421Y60241D02*
G54D37*
D03*
X728821Y60241D02*
G54D37*
D03*
X754221Y60241D02*
G54D37*
D03*
X779621Y60241D02*
G54D37*
D03*
X805021Y60241D02*
G54D37*
D03*
X830421Y60241D02*
G54D37*
D03*
X855821Y60241D02*
G54D37*
D03*
X500221Y212641D02*
G54D37*
D03*
X525621Y212641D02*
G54D37*
D03*
X551021Y212641D02*
G54D37*
D03*
X576421Y212641D02*
G54D37*
D03*
X601821Y212641D02*
G54D37*
D03*
X627221Y212641D02*
G54D37*
D03*
X652621Y212641D02*
G54D37*
D03*
X678021Y212641D02*
G54D37*
D03*
X703421Y212641D02*
G54D37*
D03*
X728821Y212641D02*
G54D37*
D03*
X754221Y212641D02*
G54D37*
D03*
X779621Y212641D02*
G54D37*
D03*
X805021Y212641D02*
G54D37*
D03*
X830421Y212641D02*
G54D37*
D03*
X855821Y212641D02*
G54D37*
D03*
X474980Y212800D02*
G54D38*
D03*
X474980Y60400D02*
G54D38*
D03*
X501237Y161587D02*
G54D37*
D03*
X475837Y161587D02*
G54D37*
D03*
X501237Y136187D02*
G54D37*
D03*
X475837Y136187D02*
G54D37*
D03*
X501237Y110787D02*
G54D37*
D03*
X475837Y110787D02*
G54D37*
D03*
X398780Y361900D02*
G54D39*
D03*
X322580Y361900D02*
G54D39*
D03*
X203655Y364475D02*
G54D39*
D03*
X229155Y364475D02*
G54D39*
D03*
X27280Y238175D02*
G54D40*
D03*
X78080Y238175D02*
G54D40*
D03*
X52680Y212775D02*
G54D40*
D03*
X78080Y187375D02*
G54D40*
D03*
X27280Y187375D02*
G54D40*
D03*
X792321Y314241D02*
G54D39*
D03*
X817721Y314241D02*
G54D39*
D03*
X843121Y314241D02*
G54D39*
D03*
X868521Y314241D02*
G54D39*
D03*
X222760Y93301D02*
G54D39*
D03*
X222760Y118701D02*
G54D39*
D03*
X222760Y144101D02*
G54D39*
D03*
X222760Y169501D02*
G54D39*
D03*
X222760Y194901D02*
G54D39*
D03*
X222760Y220301D02*
G54D39*
D03*
X222760Y245701D02*
G54D39*
D03*
X300196Y269791D02*
G54D41*
D03*
X325596Y269791D02*
G54D41*
D03*
X350996Y269791D02*
G54D41*
D03*
X376396Y269791D02*
G54D41*
D03*
X401796Y269791D02*
G54D41*
D03*
X401796Y269791D02*
G54D41*
D03*
X401796Y193591D02*
G54D42*
D03*
X300196Y269791D02*
G54D41*
D03*
X300196Y193591D02*
G54D39*
D03*
X300196Y117391D02*
G54D41*
D03*
X300196Y117391D02*
G54D41*
D03*
X325596Y117391D02*
G54D41*
D03*
X350996Y117391D02*
G54D41*
D03*
X376396Y117391D02*
G54D41*
D03*
X401796Y117391D02*
G54D41*
D03*
X300196Y193591D02*
G54D42*
D03*
X27280Y127050D02*
G54D40*
D03*
X78080Y127050D02*
G54D40*
D03*
X52680Y101650D02*
G54D40*
D03*
X78080Y76250D02*
G54D40*
D03*
X27280Y76250D02*
G54D40*
D03*
X458946Y314241D02*
G54D39*
D03*
X484346Y314241D02*
G54D39*
D03*
X509746Y314241D02*
G54D39*
D03*
X509746Y314241D02*
G54D39*
D03*
X509746Y288841D02*
G54D39*
D03*
X509746Y263441D02*
G54D39*
D03*
X458946Y263441D02*
G54D39*
D03*
X484346Y263441D02*
G54D39*
D03*
X509746Y263441D02*
G54D39*
D03*
X458946Y314241D02*
G54D39*
D03*
X458946Y288841D02*
G54D39*
D03*
X458946Y263441D02*
G54D39*
D03*
X438045Y365657D02*
G54D39*
D03*
X489026Y365770D02*
G54D39*
D03*
X538480Y361900D02*
G54D39*
D03*
X640080Y361900D02*
G54D39*
D03*
X731666Y363225D02*
G54D39*
D03*
X680685Y363113D02*
G54D39*
D03*
X768245Y365657D02*
G54D39*
D03*
X819226Y365770D02*
G54D39*
D03*
X179682Y308024D02*
G54D39*
D03*
X179794Y257043D02*
G54D39*
D03*
X135232Y308024D02*
G54D39*
D03*
X135344Y257043D02*
G54D39*
D03*
X179071Y139203D02*
G54D39*
D03*
X179122Y215453D02*
G54D39*
D03*
X132582Y141362D02*
G54D39*
D03*
X132632Y217612D02*
G54D39*
D03*
X853963Y258284D02*
G54D39*
D03*
X802982Y258171D02*
G54D39*
D03*
X219496Y48455D02*
G54D39*
D03*
X270476Y48567D02*
G54D39*
D03*
X550546Y256678D02*
G54D39*
D03*
X550596Y332928D02*
G54D39*
D03*
X222760Y118701D02*
G54D39*
D03*
X868521Y314241D02*
G54D39*
D03*
X489026Y365770D02*
G54D39*
D03*
X731666Y363225D02*
G54D39*
D03*
X819226Y365770D02*
G54D39*
D03*
X550596Y332928D02*
G54D39*
D03*
X802982Y258171D02*
G54D39*
D03*
X270476Y48567D02*
G54D39*
D03*
X350996Y269791D02*
G54D39*
D03*
X376396Y117391D02*
G54D39*
D03*
X401796Y117391D02*
G54D39*
D03*
X300196Y117391D02*
G54D39*
D03*
X350996Y117391D02*
G54D39*
D03*
X300196Y269791D02*
G54D39*
D03*
X401796Y269791D02*
G54D39*
D03*
X135344Y257043D02*
G54D39*
D03*
X179794Y257043D02*
G54D39*
D03*
G54D43*
X438045Y365657D02*
X438660Y366351D01*
X432310Y360001D01*
X400560Y360001D01*
X398780Y361900D01*
G54D43*
X538480Y361900D02*
X540260Y360001D01*
X514860Y385401D01*
X476760Y385401D01*
X457710Y366351D01*
X438660Y366351D01*
X438045Y365657D01*
G54D43*
X680685Y363113D02*
X679960Y360001D01*
X641860Y360001D01*
X640080Y361900D01*
G54D43*
X768245Y365657D02*
X768860Y366351D01*
X749810Y385401D01*
X724410Y385401D01*
X699010Y360001D01*
X679960Y360001D01*
X680685Y363113D01*
G54D43*
X219496Y48455D02*
X216410Y48851D01*
X260860Y93301D01*
X508510Y93301D01*
X578360Y163151D01*
X578360Y213951D01*
X576421Y212641D01*
G54D43*
X219496Y48455D02*
X216410Y48851D01*
X222760Y55201D01*
X222760Y93301D01*
G54D43*
X853963Y258284D02*
X851410Y258401D01*
X883160Y226651D01*
X889510Y226651D01*
X895860Y220301D01*
X895860Y207601D01*
X883160Y194901D01*
X597410Y194901D01*
X578360Y213951D01*
X576421Y212641D01*
G54D43*
X135232Y308024D02*
X133860Y309201D01*
X152910Y290151D01*
X305310Y290151D01*
X324360Y271101D01*
X325596Y269791D01*
G54D43*
X179682Y308024D02*
X178310Y309201D01*
X191010Y296501D01*
X311660Y296501D01*
X318010Y290151D01*
X356110Y290151D01*
X375160Y271101D01*
X376396Y269791D01*
G54D43*
X132632Y217612D02*
X133860Y220301D01*
X159260Y245701D01*
X159260Y264751D01*
X133860Y290151D01*
X133860Y309201D01*
X135232Y308024D01*
G54D43*
X132582Y141362D02*
X133860Y144101D01*
X140210Y137751D01*
X178310Y137751D01*
X179071Y139203D01*
G54D43*
X219496Y48455D02*
X216410Y48851D01*
X178310Y86951D01*
X178310Y137751D01*
X179071Y139203D01*
G54D43*
X509746Y263441D02*
X508510Y264751D01*
X470410Y226651D01*
X464060Y226651D01*
X457710Y220301D01*
X457710Y207601D01*
X470410Y194901D01*
X489460Y188551D01*
X514860Y188551D01*
X540260Y175851D01*
X578360Y213951D01*
X576421Y212641D01*
G54D43*
X222760Y245701D02*
X197360Y220301D01*
X197360Y207601D01*
X191010Y201251D01*
X127510Y201251D01*
X114810Y213951D01*
X51310Y213951D01*
X52680Y212775D01*
G54D43*
X52680Y101650D02*
X51310Y99651D01*
X57660Y106001D01*
X57660Y131401D01*
X121160Y194901D01*
X197360Y194901D01*
X222760Y220301D01*
G54D43*
X222760Y144101D02*
X273560Y194901D01*
X273560Y207601D01*
X311660Y245701D01*
X406910Y245701D01*
X445010Y283801D01*
X445010Y321901D01*
X451360Y328251D01*
X521210Y328251D01*
X540260Y309201D01*
X559310Y309201D01*
X641860Y391751D01*
X756160Y391751D01*
X762510Y385401D01*
X775210Y385401D01*
X787910Y372701D01*
X787910Y360001D01*
X654560Y226651D01*
X654560Y213951D01*
X652621Y212641D01*
G54D43*
X853963Y258284D02*
X851410Y258401D01*
X845060Y264751D01*
X845060Y315551D01*
X843121Y314241D01*
X576421Y60241D02*
G54D39*
D03*
X525621Y212641D02*
G54D39*
D03*
X349760Y188551D02*
G54D39*
D03*
G54D43*
X349760Y188551D02*
X343410Y194901D01*
X298960Y194901D01*
X300196Y193591D01*
G54D43*
X349760Y188551D02*
X356110Y194901D01*
X400560Y194901D01*
X401796Y193591D01*
X598646Y314241D02*
G54D39*
D03*
X598646Y288841D02*
G54D39*
D03*
X598646Y263441D02*
G54D39*
D03*
X649446Y314241D02*
G54D39*
D03*
X624046Y314241D02*
G54D39*
D03*
X598646Y314241D02*
G54D39*
D03*
X649446Y314241D02*
G54D39*
D03*
X649446Y288841D02*
G54D39*
D03*
X649446Y263441D02*
G54D39*
D03*
X649446Y263441D02*
G54D39*
D03*
X624046Y263441D02*
G54D39*
D03*
X598646Y263441D02*
G54D39*
D03*
G54D43*
X768245Y365657D02*
X768860Y366351D01*
X667260Y264751D01*
X667260Y258401D01*
X641860Y233001D01*
X521210Y233001D01*
X502160Y213951D01*
X500221Y212641D01*
G54D43*
X649446Y263441D02*
X648210Y264751D01*
X622810Y239351D01*
X546610Y239351D01*
X521210Y264751D01*
X508510Y264751D01*
X509746Y263441D01*
X698796Y248889D02*
G54D39*
D03*
X752749Y302771D02*
G54D39*
D03*
X752749Y302771D02*
G54D39*
D03*
G54D44*
X792321Y314241D02*
X793750Y311150D01*
X749300Y266700D01*
X692150Y266700D01*
X654050Y228600D01*
X654050Y209550D01*
X652621Y212641D01*
G54D44*
X229155Y364475D02*
X228600Y361950D01*
X323850Y361950D01*
X322580Y361900D01*
G36*
X15400Y340150D02*
X35400Y340150D01*
X35400Y320150D01*
X15400Y320150D01*
X15400Y340150D01*
G37*
G36*
X472600Y29000D02*
X492600Y29000D01*
X492600Y9000D01*
X472600Y9000D01*
X472600Y29000D01*
G37*
G36*
X752000Y29000D02*
X772000Y29000D01*
X772000Y9000D01*
X752000Y9000D01*
X752000Y29000D01*
G37*
G36*
X117000Y29000D02*
X137000Y29000D01*
X137000Y9000D01*
X117000Y9000D01*
X117000Y29000D01*
G37*
X25400Y374600D02*
G54D45*
D03*
X25400Y19000D02*
G54D45*
D03*
X876300Y19000D02*
G54D45*
D03*
X876300Y374600D02*
G54D45*
D03*
X636746Y22141D02*
G54D39*
D03*
X611346Y22141D02*
G54D39*
D03*
X585946Y22141D02*
G54D39*
D03*
X662146Y22141D02*
G54D39*
D03*
X636746Y22141D02*
G54D39*
D03*
X611346Y22141D02*
G54D39*
D03*
G54D44*
X611346Y22141D02*
X609600Y19050D01*
X635000Y44450D01*
X736600Y44450D01*
X749300Y57150D01*
X755650Y57150D01*
X754221Y60241D01*
G54D44*
X585946Y22141D02*
X584200Y19050D01*
X558800Y44450D01*
X469900Y44450D01*
X457200Y57150D01*
X457200Y63500D01*
X476250Y82550D01*
X584200Y82550D01*
X590550Y76200D01*
X711200Y76200D01*
X730250Y57150D01*
X728821Y60241D01*
M02*
