%FSLAX34Y34*%
%MOMM*%
%LNSILK_TOP*%
G71*
G01*
%ADD10C,0.250*%
%ADD11C,0.550*%
%ADD12C,0.200*%
%ADD13C,0.170*%
%ADD14C,0.150*%
%ADD15C,0.220*%
%ADD16C,0.160*%
%ADD17C,0.280*%
%LPD*%
G54D10*
X3125Y-77750D02*
X130125Y-77750D01*
G54D10*
X130125Y-427000D02*
X130125Y-331750D01*
G54D10*
X3125Y-427000D02*
X130125Y-427000D01*
G54D11*
X66625Y-426112D02*
X66625Y-80037D01*
G36*
X81100Y-205400D02*
X80900Y-294200D01*
X76100Y-294300D01*
X76300Y-205400D01*
X81100Y-205400D01*
G37*
G54D12*
X81100Y-205400D02*
X80900Y-294200D01*
X76100Y-294300D01*
X76300Y-205400D01*
X81100Y-205400D01*
G54D12*
X76125Y-205444D02*
X114125Y-205444D01*
X114125Y-294444D01*
X76125Y-294444D01*
X76125Y-205444D01*
G54D13*
X90942Y-196066D02*
X95942Y-198566D01*
G54D13*
X94942Y-187733D02*
X94942Y-196066D01*
X93942Y-197733D01*
X91942Y-198566D01*
X89942Y-198566D01*
X87942Y-197733D01*
X86942Y-196066D01*
X86942Y-187733D01*
X87942Y-186066D01*
X89942Y-185233D01*
X91942Y-185233D01*
X93942Y-186066D01*
X94942Y-187733D01*
G54D13*
X107642Y-187733D02*
X106642Y-186066D01*
X104642Y-185233D01*
X102642Y-185233D01*
X100642Y-186066D01*
X99642Y-187733D01*
X99642Y-191900D01*
X99642Y-192733D01*
X102642Y-191066D01*
X104642Y-191066D01*
X106642Y-191900D01*
X107642Y-193566D01*
X107642Y-196066D01*
X106642Y-197733D01*
X104642Y-198566D01*
X102642Y-198566D01*
X100642Y-197733D01*
X99642Y-196066D01*
X99642Y-191900D01*
G36*
X114400Y-205500D02*
X114200Y-294200D01*
X109400Y-294200D01*
X109400Y-205400D01*
X114400Y-205500D01*
G37*
G54D12*
X114400Y-205500D02*
X114200Y-294200D01*
X109400Y-294200D01*
X109400Y-205400D01*
X114400Y-205500D01*
G54D10*
X130125Y-173000D02*
X130125Y-77750D01*
G54D10*
X3125Y-427000D02*
X3125Y-331750D01*
G54D10*
X3125Y-173000D02*
X3125Y-77750D01*
G54D10*
X3125Y-331750D02*
X130125Y-331750D01*
G54D10*
X3116Y-173125D02*
X130116Y-173125D01*
G54D14*
X154580Y-459709D02*
X154580Y-485110D01*
X226180Y-485110D01*
X226180Y-459710D01*
X154580Y-459709D01*
G54D13*
X186513Y-453580D02*
X185513Y-455247D01*
X183513Y-456080D01*
X181513Y-456080D01*
X179513Y-455247D01*
X178513Y-453580D01*
X178513Y-445247D01*
X179513Y-443580D01*
X181513Y-442747D01*
X183513Y-442747D01*
X185513Y-443580D01*
X186513Y-445247D01*
G54D13*
X190213Y-447747D02*
X195213Y-442747D01*
X195213Y-456080D01*
G54D13*
X206913Y-445247D02*
X206913Y-453580D01*
X205913Y-455247D01*
X203913Y-456080D01*
X201913Y-456080D01*
X199913Y-455247D01*
X198913Y-453580D01*
X198913Y-445247D01*
X199913Y-443580D01*
X201913Y-442747D01*
X203913Y-442747D01*
X205913Y-443580D01*
X206913Y-445247D01*
G54D14*
X225409Y-76221D02*
X225409Y-228621D01*
X168259Y-228621D01*
X168259Y-76221D01*
X225409Y-76221D01*
G54D13*
X233653Y-85241D02*
X233653Y-98574D01*
X240653Y-98574D01*
G54D13*
X244353Y-90241D02*
X249353Y-85241D01*
X249353Y-98574D01*
G54D15*
X247281Y-171286D02*
X249948Y-170175D01*
X253148Y-170175D01*
X255281Y-172397D01*
X255281Y-180175D01*
G54D15*
X255281Y-176842D02*
X253948Y-174619D01*
X251281Y-174175D01*
X248615Y-174619D01*
X247281Y-176842D01*
X247815Y-179064D01*
X249948Y-180175D01*
X251281Y-180175D01*
X251815Y-180175D01*
X253948Y-179064D01*
X255281Y-176842D01*
G54D15*
X247094Y-143400D02*
X247094Y-125622D01*
G54D15*
X247094Y-136289D02*
X248427Y-134067D01*
X251094Y-133400D01*
X253760Y-134067D01*
X255094Y-136289D01*
X255094Y-140733D01*
X253760Y-142956D01*
X251094Y-143400D01*
X248427Y-142956D01*
X247094Y-140733D01*
G54D15*
X133919Y-185786D02*
X136585Y-184675D01*
X139785Y-184675D01*
X141919Y-186897D01*
X141919Y-194675D01*
G54D15*
X141919Y-191342D02*
X140585Y-189119D01*
X137919Y-188675D01*
X135252Y-189119D01*
X133919Y-191342D01*
X134452Y-193564D01*
X136585Y-194675D01*
X137919Y-194675D01*
X138452Y-194675D01*
X140585Y-193564D01*
X141919Y-191342D01*
G54D15*
X146819Y-183564D02*
X153485Y-176897D01*
X153485Y-194675D01*
G54D15*
X137719Y-107712D02*
X137719Y-89935D01*
G54D15*
X137719Y-100601D02*
X139052Y-98379D01*
X141719Y-97712D01*
X144385Y-98379D01*
X145719Y-100601D01*
X145719Y-105046D01*
X144385Y-107268D01*
X141719Y-107712D01*
X139052Y-107268D01*
X137719Y-105046D01*
G54D15*
X150619Y-96601D02*
X157285Y-89935D01*
X157285Y-107712D01*
G54D14*
X167521Y-12554D02*
X167521Y-37955D01*
X239121Y-37954D01*
X239121Y-12554D01*
X167521Y-12554D01*
G54D13*
X195940Y-52713D02*
X194940Y-54380D01*
X192940Y-55213D01*
X190940Y-55213D01*
X188940Y-54380D01*
X187940Y-52713D01*
X187940Y-44380D01*
X188940Y-42713D01*
X190940Y-41880D01*
X192940Y-41880D01*
X194940Y-42713D01*
X195940Y-44380D01*
G54D13*
X199640Y-46880D02*
X204640Y-41880D01*
X204640Y-55213D01*
G54D13*
X208340Y-46880D02*
X213340Y-41880D01*
X213340Y-55213D01*
G54D14*
X195229Y-301721D02*
X217404Y-301721D01*
X217404Y-352421D01*
X195229Y-352421D01*
X195229Y-301721D01*
G54D14*
X206316Y-301521D02*
X206316Y-293621D01*
G54D14*
X206316Y-352521D02*
X206317Y-360421D01*
G54D13*
X182575Y-337096D02*
X184241Y-334096D01*
X185908Y-333096D01*
X189241Y-333096D01*
G54D13*
X189241Y-341096D02*
X175908Y-341096D01*
X175908Y-336096D01*
X176741Y-334096D01*
X178408Y-333096D01*
X180075Y-333096D01*
X181741Y-334096D01*
X182575Y-336096D01*
X182575Y-341096D01*
G54D13*
X180908Y-329396D02*
X175908Y-324396D01*
X189241Y-324396D01*
G54D13*
X178408Y-320696D02*
X176741Y-319696D01*
X175908Y-317696D01*
X175908Y-315696D01*
X176741Y-313696D01*
X178408Y-312696D01*
X180075Y-312696D01*
X181741Y-313696D01*
X182575Y-315696D01*
X183408Y-313696D01*
X185075Y-312696D01*
X186741Y-312696D01*
X188408Y-313696D01*
X189241Y-315696D01*
X189241Y-317696D01*
X188408Y-319696D01*
X186741Y-320696D01*
G54D12*
X116300Y-44686D02*
X116300Y-54686D01*
X115100Y-56686D01*
X112700Y-57686D01*
X110300Y-57686D01*
X107900Y-56686D01*
X106700Y-54686D01*
X106700Y-44686D01*
X107900Y-42686D01*
X110300Y-41686D01*
X112700Y-41686D01*
X115100Y-42686D01*
X116300Y-44686D01*
G54D12*
X120700Y-41686D02*
X120700Y-54686D01*
X121900Y-56686D01*
X124300Y-57686D01*
X126700Y-57686D01*
X129100Y-56686D01*
X130300Y-54686D01*
X130300Y-41686D01*
G54D12*
X139500Y-57686D02*
X139500Y-41686D01*
G54D12*
X134700Y-41686D02*
X144300Y-41686D01*
G54D14*
X96904Y-35512D02*
X96904Y-10112D01*
X147704Y-10112D01*
X147704Y-35512D01*
X96904Y-35512D01*
G54D12*
X89571Y-22283D02*
X83221Y-22283D01*
G54D12*
X83221Y-30220D02*
X83221Y-14345D01*
G54D12*
X80046Y-16727D02*
X80046Y-27839D01*
G54D12*
X76871Y-24664D02*
X76871Y-19902D01*
G54D14*
X147604Y-301721D02*
X169779Y-301721D01*
X169779Y-352421D01*
X147604Y-352421D01*
X147604Y-301721D01*
G54D14*
X158691Y-301521D02*
X158691Y-293621D01*
G54D14*
X158691Y-352521D02*
X158692Y-360421D01*
G54D13*
X136450Y-317696D02*
X138116Y-314696D01*
X139783Y-313696D01*
X143116Y-313696D01*
G54D13*
X143116Y-321696D02*
X129783Y-321696D01*
X129783Y-316696D01*
X130616Y-314696D01*
X132283Y-313696D01*
X133950Y-313696D01*
X135616Y-314696D01*
X136450Y-316696D01*
X136450Y-321696D01*
G54D13*
X134783Y-309996D02*
X129783Y-304996D01*
X143116Y-304996D01*
G54D13*
X143116Y-295296D02*
X129783Y-295296D01*
X138116Y-301296D01*
X139783Y-301296D01*
X139783Y-293296D01*
G54D14*
X565004Y-273804D02*
X590405Y-273804D01*
X590404Y-202204D01*
X565004Y-202204D01*
X565004Y-273804D01*
G54D13*
X559175Y-238921D02*
X560842Y-239921D01*
X561675Y-241921D01*
X561675Y-243921D01*
X560842Y-245921D01*
X559175Y-246921D01*
X550842Y-246921D01*
X549175Y-245921D01*
X548342Y-243921D01*
X548342Y-241921D01*
X549175Y-239921D01*
X550842Y-238921D01*
G54D13*
X561675Y-227221D02*
X561675Y-235221D01*
X560842Y-235221D01*
X559175Y-234221D01*
X554175Y-228221D01*
X552508Y-227221D01*
X550842Y-227221D01*
X549175Y-228221D01*
X548342Y-230221D01*
X548342Y-232221D01*
X549175Y-234221D01*
X550842Y-235221D01*
G54D14*
X534100Y-220800D02*
X542100Y-220800D01*
X542100Y-271525D01*
X534100Y-271525D01*
G54D14*
G75*
G01X534139Y-220669D02*
G03X534139Y-271669I0J-25500D01*
G01*
G54D13*
X525956Y-209125D02*
X530956Y-211625D01*
G54D13*
X529956Y-200792D02*
X529956Y-209125D01*
X528956Y-210792D01*
X526956Y-211625D01*
X524956Y-211625D01*
X522956Y-210792D01*
X521956Y-209125D01*
X521956Y-200792D01*
X522956Y-199125D01*
X524956Y-198292D01*
X526956Y-198292D01*
X528956Y-199125D01*
X529956Y-200792D01*
G54D13*
X542656Y-211625D02*
X534656Y-211625D01*
X534656Y-210792D01*
X535656Y-209125D01*
X541656Y-204125D01*
X542656Y-202459D01*
X542656Y-200792D01*
X541656Y-199125D01*
X539656Y-198292D01*
X537656Y-198292D01*
X535656Y-199125D01*
X534656Y-200792D01*
G54D12*
X662312Y-273203D02*
X646312Y-273203D01*
G54D12*
X662312Y-268803D02*
X646312Y-268803D01*
X662312Y-259203D01*
X646312Y-259203D01*
G54D12*
X662312Y-254803D02*
X646312Y-254803D01*
X646312Y-248803D01*
X647312Y-246403D01*
X649312Y-245203D01*
X651312Y-245203D01*
X653312Y-246403D01*
X654312Y-248803D01*
X654312Y-254803D01*
G54D12*
X646312Y-240803D02*
X659312Y-240803D01*
X661312Y-239603D01*
X662312Y-237203D01*
X662312Y-234803D01*
X661312Y-232403D01*
X659312Y-231203D01*
X646312Y-231203D01*
G54D12*
X662312Y-222003D02*
X646312Y-222003D01*
G54D12*
X646312Y-226803D02*
X646312Y-217203D01*
G54D14*
X666748Y-222205D02*
X692148Y-222205D01*
X692148Y-273005D01*
X666748Y-273005D01*
X666748Y-222205D01*
G54D12*
X678302Y-278887D02*
X678302Y-285238D01*
G54D12*
X686239Y-285238D02*
X670364Y-285237D01*
G54D12*
X672746Y-288412D02*
X683858Y-288412D01*
G54D12*
X680683Y-291587D02*
X675921Y-291587D01*
G54D14*
X522254Y-301721D02*
X544429Y-301721D01*
X544429Y-352421D01*
X522254Y-352421D01*
X522254Y-301721D01*
G54D14*
X533341Y-301521D02*
X533341Y-293621D01*
G54D14*
X533341Y-352521D02*
X533342Y-360421D01*
G54D13*
X510700Y-333346D02*
X512366Y-330346D01*
X514033Y-329346D01*
X517366Y-329346D01*
G54D13*
X517366Y-337346D02*
X504033Y-337346D01*
X504033Y-332346D01*
X504866Y-330346D01*
X506533Y-329346D01*
X508200Y-329346D01*
X509866Y-330346D01*
X510700Y-332346D01*
X510700Y-337346D01*
G54D13*
X517366Y-319646D02*
X504033Y-319646D01*
X512366Y-325646D01*
X514033Y-325646D01*
X514033Y-317646D01*
G54D14*
X582579Y-123921D02*
X604754Y-123921D01*
X604754Y-174621D01*
X582579Y-174621D01*
X582579Y-123921D01*
G54D14*
X593666Y-123721D02*
X593666Y-115821D01*
G54D14*
X593666Y-174721D02*
X593667Y-182621D01*
G54D13*
X628925Y-88246D02*
X630591Y-85246D01*
X632258Y-84246D01*
X635591Y-84246D01*
G54D13*
X635591Y-92246D02*
X622258Y-92246D01*
X622258Y-87246D01*
X623091Y-85246D01*
X624758Y-84246D01*
X626425Y-84246D01*
X628091Y-85246D01*
X628925Y-87246D01*
X628925Y-92246D01*
G54D13*
X627258Y-80546D02*
X622258Y-75546D01*
X635591Y-75546D01*
G54D14*
X469754Y-280154D02*
X495155Y-280154D01*
X495154Y-208554D01*
X469754Y-208554D01*
X469754Y-280154D01*
G54D13*
X463925Y-248971D02*
X465592Y-249971D01*
X466425Y-251971D01*
X466425Y-253971D01*
X465592Y-255971D01*
X463925Y-256971D01*
X455592Y-256971D01*
X453925Y-255971D01*
X453092Y-253971D01*
X453092Y-251971D01*
X453925Y-249971D01*
X455592Y-248971D01*
G54D13*
X453092Y-237271D02*
X453092Y-245271D01*
X458925Y-245271D01*
X458925Y-244271D01*
X458092Y-242271D01*
X458092Y-240271D01*
X458925Y-238271D01*
X460592Y-237271D01*
X463925Y-237271D01*
X465592Y-238271D01*
X466425Y-240271D01*
X466425Y-242271D01*
X465592Y-244271D01*
X463925Y-245271D01*
G54D14*
X418400Y-271325D02*
X410400Y-271325D01*
X410400Y-220600D01*
X418400Y-220600D01*
G54D14*
G75*
G01X418361Y-271456D02*
G03X418361Y-220456I0J25500D01*
G01*
G54D13*
X438784Y-218995D02*
X443784Y-221495D01*
G54D13*
X442784Y-210661D02*
X442784Y-218995D01*
X441784Y-220661D01*
X439784Y-221495D01*
X437784Y-221495D01*
X435784Y-220661D01*
X434784Y-218995D01*
X434784Y-210661D01*
X435784Y-208995D01*
X437784Y-208161D01*
X439784Y-208161D01*
X441784Y-208995D01*
X442784Y-210661D01*
G54D13*
X447484Y-210661D02*
X448484Y-208995D01*
X450484Y-208161D01*
X452484Y-208161D01*
X454484Y-208995D01*
X455484Y-210661D01*
X455484Y-212328D01*
X454484Y-213995D01*
X452484Y-214828D01*
X454484Y-215661D01*
X455484Y-217328D01*
X455484Y-218995D01*
X454484Y-220661D01*
X452484Y-221495D01*
X450484Y-221495D01*
X448484Y-220661D01*
X447484Y-218995D01*
G54D14*
X358075Y-271325D02*
X350075Y-271325D01*
X350075Y-220600D01*
X358075Y-220600D01*
G54D14*
G75*
G01X358036Y-271456D02*
G03X358036Y-220456I0J25500D01*
G01*
G54D13*
X376959Y-220195D02*
X381959Y-222695D01*
G54D13*
X380959Y-211861D02*
X380959Y-220195D01*
X379959Y-221861D01*
X377959Y-222695D01*
X375959Y-222695D01*
X373959Y-221861D01*
X372959Y-220195D01*
X372959Y-211861D01*
X373959Y-210195D01*
X375959Y-209361D01*
X377959Y-209361D01*
X379959Y-210195D01*
X380959Y-211861D01*
G54D13*
X391659Y-222695D02*
X391659Y-209361D01*
X385659Y-217695D01*
X385659Y-219361D01*
X393659Y-219361D01*
G54D14*
X407954Y-301721D02*
X430129Y-301721D01*
X430129Y-352421D01*
X407954Y-352421D01*
X407954Y-301721D01*
G54D14*
X419041Y-301521D02*
X419041Y-293621D01*
G54D14*
X419041Y-352521D02*
X419042Y-360421D01*
G54D13*
X397600Y-333846D02*
X399266Y-330846D01*
X400933Y-329846D01*
X404266Y-329846D01*
G54D13*
X404266Y-337846D02*
X390933Y-337846D01*
X390933Y-332846D01*
X391766Y-330846D01*
X393433Y-329846D01*
X395100Y-329846D01*
X396766Y-330846D01*
X397600Y-332846D01*
X397600Y-337846D01*
G54D13*
X390933Y-326146D02*
X390933Y-318146D01*
X392600Y-319146D01*
X395100Y-321146D01*
X398433Y-323146D01*
X400933Y-324146D01*
X404266Y-324146D01*
G54D14*
X297750Y-271325D02*
X289750Y-271325D01*
X289750Y-220600D01*
X297750Y-220600D01*
G54D14*
G75*
G01X297711Y-271456D02*
G03X297711Y-220456I0J25500D01*
G01*
G54D13*
X317434Y-220195D02*
X322434Y-222695D01*
G54D13*
X321434Y-211861D02*
X321434Y-220195D01*
X320434Y-221861D01*
X318434Y-222695D01*
X316434Y-222695D01*
X314434Y-221861D01*
X313434Y-220195D01*
X313434Y-211861D01*
X314434Y-210195D01*
X316434Y-209361D01*
X318434Y-209361D01*
X320434Y-210195D01*
X321434Y-211861D01*
G54D13*
X334134Y-209361D02*
X326134Y-209361D01*
X326134Y-215195D01*
X327134Y-215195D01*
X329134Y-214361D01*
X331134Y-214361D01*
X333134Y-215195D01*
X334134Y-216861D01*
X334134Y-220195D01*
X333134Y-221861D01*
X331134Y-222695D01*
X329134Y-222695D01*
X327134Y-221861D01*
X326134Y-220195D01*
G54D14*
X350804Y-123921D02*
X372979Y-123921D01*
X372979Y-174621D01*
X350804Y-174621D01*
X350804Y-123921D01*
G54D14*
X361891Y-123721D02*
X361891Y-115821D01*
G54D14*
X361891Y-174721D02*
X361892Y-182621D01*
G54D13*
X340850Y-156646D02*
X342516Y-153646D01*
X344183Y-152646D01*
X347516Y-152646D01*
G54D13*
X347516Y-160646D02*
X334183Y-160646D01*
X334183Y-155646D01*
X335016Y-153646D01*
X336683Y-152646D01*
X338350Y-152646D01*
X340016Y-153646D01*
X340850Y-155646D01*
X340850Y-160646D01*
G54D13*
X340850Y-143946D02*
X340850Y-145946D01*
X340016Y-147946D01*
X338350Y-148946D01*
X336683Y-148946D01*
X335016Y-147946D01*
X334183Y-145946D01*
X334183Y-143946D01*
X335016Y-141946D01*
X336683Y-140946D01*
X338350Y-140946D01*
X340016Y-141946D01*
X340850Y-143946D01*
X341683Y-141946D01*
X343350Y-140946D01*
X345016Y-140946D01*
X346683Y-141946D01*
X347516Y-143946D01*
X347516Y-145946D01*
X346683Y-147946D01*
X345016Y-148946D01*
X343350Y-148946D01*
X341683Y-147946D01*
X340850Y-145946D01*
G54D14*
X306625Y-124130D02*
X328800Y-124130D01*
X328800Y-174830D01*
X306625Y-174830D01*
X306625Y-124130D01*
G54D14*
X317712Y-123930D02*
X317712Y-116030D01*
G54D14*
X317712Y-174930D02*
X317713Y-182830D01*
G54D13*
X317700Y-89673D02*
X319367Y-86673D01*
X321033Y-85673D01*
X324367Y-85673D01*
G54D13*
X324367Y-93673D02*
X311033Y-93673D01*
X311033Y-88673D01*
X311867Y-86673D01*
X313533Y-85673D01*
X315200Y-85673D01*
X316867Y-86673D01*
X317700Y-88673D01*
X317700Y-93673D01*
G54D13*
X316033Y-81973D02*
X311033Y-76973D01*
X324367Y-76973D01*
G54D13*
X313533Y-65273D02*
X321867Y-65273D01*
X323533Y-66273D01*
X324367Y-68273D01*
X324367Y-70273D01*
X323533Y-72273D01*
X321867Y-73273D01*
X313533Y-73273D01*
X311867Y-72273D01*
X311033Y-70274D01*
X311033Y-68273D01*
X311867Y-66273D01*
X313533Y-65273D01*
G54D14*
X287304Y-301721D02*
X309479Y-301721D01*
X309479Y-352421D01*
X287304Y-352421D01*
X287304Y-301721D01*
G54D14*
X298391Y-301521D02*
X298391Y-293621D01*
G54D14*
X298392Y-352521D02*
X298392Y-360421D01*
G54D13*
X276250Y-335496D02*
X277916Y-332496D01*
X279583Y-331496D01*
X282916Y-331496D01*
G54D13*
X282916Y-339496D02*
X269583Y-339496D01*
X269583Y-334496D01*
X270416Y-332496D01*
X272083Y-331496D01*
X273750Y-331496D01*
X275416Y-332496D01*
X276250Y-334496D01*
X276250Y-339496D01*
G54D13*
X274583Y-327796D02*
X269583Y-322796D01*
X282916Y-322796D01*
G54D13*
X282916Y-311096D02*
X282916Y-319096D01*
X282083Y-319096D01*
X280416Y-318096D01*
X275416Y-312096D01*
X273750Y-311096D01*
X272083Y-311096D01*
X270416Y-312096D01*
X269583Y-314096D01*
X269583Y-316096D01*
X270416Y-318096D01*
X272083Y-319096D01*
G54D14*
X240814Y-360525D02*
X266215Y-360525D01*
X266214Y-288925D01*
X240814Y-288925D01*
X240814Y-360525D01*
G54D13*
X234385Y-326042D02*
X236052Y-327042D01*
X236885Y-329042D01*
X236885Y-331042D01*
X236052Y-333042D01*
X234385Y-334042D01*
X226052Y-334042D01*
X224385Y-333042D01*
X223552Y-331042D01*
X223552Y-329042D01*
X224385Y-327042D01*
X226052Y-326042D01*
G54D13*
X234385Y-322342D02*
X236052Y-321342D01*
X236885Y-319342D01*
X236885Y-317342D01*
X236052Y-315342D01*
X234385Y-314342D01*
X230218Y-314342D01*
X229385Y-314342D01*
X231052Y-317342D01*
X231052Y-319342D01*
X230218Y-321342D01*
X228552Y-322342D01*
X226052Y-322342D01*
X224385Y-321342D01*
X223552Y-319342D01*
X223552Y-317342D01*
X224385Y-315342D01*
X226052Y-314342D01*
X230218Y-314342D01*
G54D14*
X363504Y-301721D02*
X385679Y-301721D01*
X385679Y-352421D01*
X363504Y-352421D01*
X363504Y-301721D01*
G54D14*
X374591Y-301521D02*
X374591Y-293621D01*
G54D14*
X374591Y-352521D02*
X374592Y-360421D01*
G54D13*
X352550Y-337296D02*
X354216Y-334296D01*
X355883Y-333296D01*
X359216Y-333296D01*
G54D13*
X359216Y-341296D02*
X345883Y-341296D01*
X345883Y-336296D01*
X346716Y-334296D01*
X348383Y-333296D01*
X350050Y-333296D01*
X351716Y-334296D01*
X352550Y-336296D01*
X352550Y-341296D01*
G54D13*
X350883Y-329596D02*
X345883Y-324596D01*
X359216Y-324596D01*
G54D13*
X350883Y-320896D02*
X345883Y-315896D01*
X359216Y-315896D01*
G54D12*
G75*
G01X296368Y-422416D02*
G03X296368Y-422416I-35500J0D01*
G01*
G54D13*
X227092Y-386863D02*
X227092Y-373530D01*
X232092Y-373530D01*
X234092Y-374363D01*
X235092Y-376030D01*
X235092Y-377696D01*
X234092Y-379363D01*
X232092Y-380196D01*
X227092Y-380196D01*
G54D13*
X238792Y-378530D02*
X243792Y-373530D01*
X243792Y-386863D01*
G54D14*
X466025Y-461825D02*
X458025Y-461825D01*
X458025Y-411100D01*
X466025Y-411100D01*
G54D14*
G75*
G01X465986Y-461956D02*
G03X465986Y-410956I0J25500D01*
G01*
G54D13*
X462732Y-480055D02*
X467732Y-482555D01*
G54D13*
X466732Y-471722D02*
X466732Y-480055D01*
X465732Y-481722D01*
X463732Y-482555D01*
X461732Y-482555D01*
X459732Y-481722D01*
X458732Y-480055D01*
X458732Y-471722D01*
X459732Y-470055D01*
X461732Y-469222D01*
X463732Y-469222D01*
X465732Y-470055D01*
X466732Y-471722D01*
G54D13*
X471432Y-474222D02*
X476432Y-469222D01*
X476432Y-482555D01*
G54D12*
X645612Y-115578D02*
X661612Y-109578D01*
X645612Y-103578D01*
G54D14*
X666748Y-85680D02*
X692148Y-85680D01*
X692148Y-136480D01*
X666748Y-136480D01*
X666748Y-85680D01*
G54D12*
X678302Y-142362D02*
X678302Y-148713D01*
G54D12*
X686239Y-148713D02*
X670364Y-148712D01*
G54D12*
X672746Y-151887D02*
X683858Y-151887D01*
G54D12*
X680683Y-155062D02*
X675921Y-155062D01*
G54D14*
X557179Y-409671D02*
X579354Y-409671D01*
X579354Y-460371D01*
X557179Y-460371D01*
X557179Y-409671D01*
G54D14*
X568266Y-409471D02*
X568266Y-401571D01*
G54D14*
X568266Y-460471D02*
X568267Y-468371D01*
G54D13*
X590525Y-446146D02*
X592191Y-443146D01*
X593858Y-442146D01*
X597191Y-442146D01*
G54D13*
X597191Y-450146D02*
X583858Y-450146D01*
X583858Y-445146D01*
X584691Y-443146D01*
X586358Y-442146D01*
X588025Y-442146D01*
X589691Y-443146D01*
X590525Y-445146D01*
X590525Y-450146D01*
G54D13*
X588858Y-438446D02*
X583858Y-433446D01*
X597191Y-433446D01*
G54D13*
X583858Y-421746D02*
X583858Y-429746D01*
X589691Y-429746D01*
X589691Y-428746D01*
X588858Y-426746D01*
X588858Y-424746D01*
X589691Y-422746D01*
X591358Y-421746D01*
X594691Y-421746D01*
X596358Y-422746D01*
X597191Y-424746D01*
X597191Y-426746D01*
X596358Y-428746D01*
X594691Y-429746D01*
G54D14*
X515904Y-409671D02*
X538079Y-409671D01*
X538079Y-460371D01*
X515904Y-460371D01*
X515904Y-409671D01*
G54D14*
X526991Y-409471D02*
X526991Y-401571D01*
G54D14*
X526991Y-460471D02*
X526992Y-468371D01*
G54D13*
X505450Y-443946D02*
X507116Y-440946D01*
X508783Y-439946D01*
X512116Y-439946D01*
G54D13*
X512116Y-447946D02*
X498783Y-447946D01*
X498783Y-442946D01*
X499616Y-440946D01*
X501283Y-439946D01*
X502950Y-439946D01*
X504616Y-440946D01*
X505450Y-442946D01*
X505450Y-447946D01*
G54D13*
X503783Y-436246D02*
X498783Y-431246D01*
X512116Y-431246D01*
G54D13*
X501283Y-419546D02*
X499616Y-420546D01*
X498783Y-422546D01*
X498783Y-424546D01*
X499616Y-426546D01*
X501283Y-427546D01*
X505450Y-427546D01*
X506283Y-427546D01*
X504616Y-424546D01*
X504616Y-422546D01*
X505450Y-420546D01*
X507116Y-419546D01*
X509616Y-419546D01*
X511283Y-420546D01*
X512116Y-422546D01*
X512116Y-424546D01*
X511283Y-426546D01*
X509616Y-427546D01*
X505450Y-427546D01*
G54D14*
X463404Y-388104D02*
X488805Y-388104D01*
X488804Y-316504D01*
X463404Y-316504D01*
X463404Y-388104D01*
G54D13*
X456875Y-358971D02*
X458542Y-359971D01*
X459375Y-361971D01*
X459375Y-363971D01*
X458542Y-365971D01*
X456875Y-366971D01*
X448542Y-366971D01*
X446875Y-365971D01*
X446042Y-363971D01*
X446042Y-361971D01*
X446875Y-359971D01*
X448542Y-358971D01*
G54D13*
X451042Y-355271D02*
X446042Y-350271D01*
X459375Y-350271D01*
G54D13*
X448542Y-338571D02*
X446875Y-339571D01*
X446042Y-341571D01*
X446042Y-343571D01*
X446875Y-345571D01*
X448542Y-346571D01*
X452708Y-346571D01*
X453542Y-346571D01*
X451875Y-343571D01*
X451875Y-341571D01*
X452708Y-339571D01*
X454375Y-338571D01*
X456875Y-338571D01*
X458542Y-339571D01*
X459375Y-341571D01*
X459375Y-343571D01*
X458542Y-345571D01*
X456875Y-346571D01*
X452708Y-346571D01*
G54D14*
X420654Y-409671D02*
X442829Y-409671D01*
X442829Y-460371D01*
X420654Y-460371D01*
X420654Y-409671D01*
G54D14*
X431741Y-409471D02*
X431741Y-401571D01*
G54D14*
X431741Y-460471D02*
X431742Y-468371D01*
G54D13*
X409900Y-447246D02*
X411566Y-444246D01*
X413233Y-443246D01*
X416566Y-443246D01*
G54D13*
X416566Y-451246D02*
X403233Y-451246D01*
X403233Y-446246D01*
X404066Y-444246D01*
X405733Y-443246D01*
X407400Y-443246D01*
X409066Y-444246D01*
X409900Y-446246D01*
X409900Y-451246D01*
G54D13*
X408233Y-439546D02*
X403233Y-434546D01*
X416566Y-434546D01*
G54D13*
X403233Y-430846D02*
X403233Y-422846D01*
X404900Y-423846D01*
X407400Y-425846D01*
X410733Y-427846D01*
X413233Y-428846D01*
X416566Y-428846D01*
G54D14*
X294560Y-460191D02*
X294560Y-485592D01*
X366160Y-485592D01*
X366160Y-460192D01*
X294560Y-460191D01*
G54D13*
X320593Y-454162D02*
X319593Y-455829D01*
X317593Y-456662D01*
X315593Y-456662D01*
X313593Y-455829D01*
X312593Y-454162D01*
X312593Y-445829D01*
X313593Y-444162D01*
X315593Y-443329D01*
X317593Y-443329D01*
X319593Y-444162D01*
X320593Y-445829D01*
G54D13*
X324293Y-448329D02*
X329293Y-443329D01*
X329293Y-456662D01*
G54D13*
X340993Y-443329D02*
X332993Y-443329D01*
X332993Y-449162D01*
X333993Y-449162D01*
X335993Y-448329D01*
X337993Y-448329D01*
X339993Y-449162D01*
X340993Y-450829D01*
X340993Y-454162D01*
X339993Y-455829D01*
X337993Y-456662D01*
X335993Y-456662D01*
X333993Y-455829D01*
X332993Y-454162D01*
G54D14*
X396050Y-450175D02*
X378650Y-450175D01*
X378650Y-419775D01*
X396050Y-419775D01*
X396050Y-450175D01*
G36*
X396200Y-450100D02*
X379400Y-450100D01*
X379400Y-442900D01*
X396200Y-442900D01*
X396200Y-450100D01*
G37*
G54D14*
X396200Y-450100D02*
X379400Y-450100D01*
X379400Y-442900D01*
X396200Y-442900D01*
X396200Y-450100D01*
G54D14*
X387350Y-461175D02*
X387350Y-450075D01*
G54D14*
X387350Y-419875D02*
X387350Y-408775D01*
G54D13*
X374731Y-443924D02*
X361398Y-443924D01*
X361398Y-438924D01*
X362231Y-436924D01*
X363898Y-435924D01*
X372231Y-435924D01*
X373898Y-436924D01*
X374731Y-438924D01*
X374731Y-443924D01*
G54D13*
X366398Y-432224D02*
X361398Y-427224D01*
X374731Y-427224D01*
G54D16*
G75*
G01X575812Y-60088D02*
G03X575812Y-60088I-30000J0D01*
G01*
G54D13*
X537721Y-22629D02*
X536721Y-24296D01*
X534721Y-25129D01*
X532721Y-25129D01*
X530721Y-24296D01*
X529721Y-22629D01*
X529721Y-14296D01*
X530721Y-12629D01*
X532721Y-11796D01*
X534721Y-11796D01*
X536721Y-12629D01*
X537721Y-14296D01*
G54D13*
X541421Y-16796D02*
X546421Y-11796D01*
X546421Y-25129D01*
G54D13*
X550121Y-14296D02*
X551121Y-12629D01*
X553121Y-11796D01*
X555121Y-11796D01*
X557121Y-12629D01*
X558121Y-14296D01*
X558121Y-15963D01*
X557121Y-17629D01*
X555121Y-18463D01*
X557121Y-19296D01*
X558121Y-20963D01*
X558121Y-22629D01*
X557121Y-24296D01*
X555121Y-25129D01*
X553121Y-25129D01*
X551121Y-24296D01*
X550121Y-22629D01*
G54D14*
X514400Y-87529D02*
X525175Y-87529D01*
G54D14*
X519587Y-82242D02*
X519587Y-93017D01*
G54D14*
X349104Y-86479D02*
X374505Y-86479D01*
X374504Y-14879D01*
X349104Y-14879D01*
X349104Y-86479D01*
G54D13*
X341875Y-50096D02*
X343542Y-51096D01*
X344375Y-53096D01*
X344375Y-55096D01*
X343542Y-57096D01*
X341875Y-58096D01*
X333542Y-58096D01*
X331875Y-57096D01*
X331042Y-55096D01*
X331042Y-53096D01*
X331875Y-51096D01*
X333542Y-50096D01*
G54D13*
X333542Y-38396D02*
X331875Y-39396D01*
X331042Y-41396D01*
X331042Y-43396D01*
X331875Y-45396D01*
X333542Y-46396D01*
X337708Y-46396D01*
X338542Y-46396D01*
X336875Y-43396D01*
X336875Y-41396D01*
X337708Y-39396D01*
X339375Y-38396D01*
X341875Y-38396D01*
X343542Y-39396D01*
X344375Y-41396D01*
X344375Y-43396D01*
X343542Y-45396D01*
X341875Y-46396D01*
X337708Y-46396D01*
G54D14*
X395254Y-123921D02*
X417429Y-123921D01*
X417429Y-174621D01*
X395254Y-174621D01*
X395254Y-123921D01*
G54D14*
X406341Y-123721D02*
X406341Y-115821D01*
G54D14*
X406341Y-174721D02*
X406342Y-182621D01*
G54D13*
X385100Y-156946D02*
X386766Y-153946D01*
X388433Y-152946D01*
X391766Y-152946D01*
G54D13*
X391766Y-160946D02*
X378433Y-160946D01*
X378433Y-155946D01*
X379266Y-153946D01*
X380933Y-152946D01*
X382600Y-152946D01*
X384266Y-153946D01*
X385100Y-155946D01*
X385100Y-160946D01*
G54D13*
X389266Y-149246D02*
X390933Y-148246D01*
X391766Y-146246D01*
X391766Y-144246D01*
X390933Y-142246D01*
X389266Y-141246D01*
X385100Y-141246D01*
X384266Y-141246D01*
X385933Y-144246D01*
X385933Y-146246D01*
X385100Y-148246D01*
X383433Y-149246D01*
X380933Y-149246D01*
X379266Y-148246D01*
X378433Y-146246D01*
X378433Y-144246D01*
X379266Y-142246D01*
X380933Y-141246D01*
X385100Y-141246D01*
G54D14*
X272904Y-184904D02*
X298305Y-184904D01*
X298304Y-113304D01*
X272904Y-113304D01*
X272904Y-184904D01*
G54D13*
X283995Y-103650D02*
X282995Y-105317D01*
X280995Y-106150D01*
X278995Y-106150D01*
X276995Y-105317D01*
X275995Y-103650D01*
X275995Y-95317D01*
X276995Y-93650D01*
X278995Y-92817D01*
X280995Y-92817D01*
X282995Y-93650D01*
X283995Y-95317D01*
G54D13*
X287695Y-92817D02*
X295695Y-92817D01*
X294695Y-94483D01*
X292695Y-96983D01*
X290695Y-100317D01*
X289695Y-102817D01*
X289695Y-106150D01*
G54D16*
G75*
G01X312863Y-38338D02*
G03X312863Y-38338I-30000J0D01*
G01*
G54D13*
X280773Y-82372D02*
X279773Y-84039D01*
X277773Y-84872D01*
X275773Y-84872D01*
X273773Y-84039D01*
X272773Y-82372D01*
X272773Y-74039D01*
X273773Y-72372D01*
X275773Y-71539D01*
X277773Y-71539D01*
X279773Y-72372D01*
X280773Y-74039D01*
G54D13*
X289473Y-78206D02*
X287473Y-78206D01*
X285473Y-77372D01*
X284473Y-75706D01*
X284473Y-74039D01*
X285473Y-72372D01*
X287473Y-71539D01*
X289473Y-71539D01*
X291473Y-72372D01*
X292473Y-74039D01*
X292473Y-75706D01*
X291473Y-77372D01*
X289473Y-78206D01*
X291473Y-79039D01*
X292473Y-80706D01*
X292473Y-82372D01*
X291473Y-84039D01*
X289473Y-84872D01*
X287473Y-84872D01*
X285473Y-84039D01*
X284473Y-82372D01*
X284473Y-80706D01*
X285473Y-79039D01*
X287473Y-78206D01*
G54D14*
X263475Y-68046D02*
X252700Y-68046D01*
G54D14*
X258288Y-73333D02*
X258288Y-62558D01*
G54D14*
X479279Y-86479D02*
X504680Y-86479D01*
X504679Y-14879D01*
X479279Y-14879D01*
X479279Y-86479D01*
G54D13*
X472250Y-54746D02*
X473917Y-55746D01*
X474750Y-57746D01*
X474750Y-59746D01*
X473917Y-61746D01*
X472250Y-62746D01*
X463917Y-62746D01*
X462250Y-61746D01*
X461417Y-59746D01*
X461417Y-57746D01*
X462250Y-55746D01*
X463917Y-54746D01*
G54D13*
X466417Y-51046D02*
X461417Y-46046D01*
X474750Y-46046D01*
G54D13*
X474750Y-34346D02*
X474750Y-42346D01*
X473917Y-42346D01*
X472250Y-41346D01*
X467250Y-35346D01*
X465583Y-34346D01*
X463917Y-34346D01*
X462250Y-35346D01*
X461417Y-37346D01*
X461417Y-39346D01*
X462250Y-41346D01*
X463917Y-42346D01*
G54D12*
X661412Y-406628D02*
X645412Y-406628D01*
G54D12*
X645412Y-411428D02*
X645412Y-401828D01*
G54D12*
X645412Y-397428D02*
X661412Y-385428D01*
G54D12*
X661412Y-397428D02*
X645412Y-385428D01*
G54D12*
X661412Y-381028D02*
X645412Y-371428D01*
G54D12*
X661412Y-367028D02*
X645412Y-367028D01*
G54D12*
X656412Y-367028D02*
X645412Y-357428D01*
G54D12*
X653412Y-363428D02*
X661412Y-357428D01*
G54D14*
X666748Y-409620D02*
X692148Y-409620D01*
X692148Y-358820D01*
X666748Y-358820D01*
X666748Y-409620D01*
G54D12*
X678302Y-352938D02*
X678302Y-346587D01*
G54D12*
X686239Y-346587D02*
X670364Y-346588D01*
G54D12*
X672746Y-343413D02*
X683858Y-343413D01*
G54D12*
X680683Y-340238D02*
X675921Y-340238D01*
G54D14*
X449229Y-123921D02*
X471404Y-123921D01*
X471404Y-174621D01*
X449229Y-174621D01*
X449229Y-123921D01*
G54D14*
X460316Y-123721D02*
X460316Y-115821D01*
G54D14*
X460316Y-174721D02*
X460317Y-182621D01*
G54D13*
X437875Y-153346D02*
X439541Y-150346D01*
X441208Y-149346D01*
X444541Y-149346D01*
G54D13*
X444541Y-157346D02*
X431208Y-157346D01*
X431208Y-152346D01*
X432041Y-150346D01*
X433708Y-149346D01*
X435375Y-149346D01*
X437041Y-150346D01*
X437875Y-152346D01*
X437875Y-157346D01*
G54D13*
X431208Y-137646D02*
X431208Y-145646D01*
X437041Y-145646D01*
X437041Y-144646D01*
X436208Y-142646D01*
X436208Y-140646D01*
X437041Y-138646D01*
X438708Y-137646D01*
X442041Y-137646D01*
X443708Y-138646D01*
X444541Y-140646D01*
X444541Y-142646D01*
X443708Y-144646D01*
X442041Y-145646D01*
G54D14*
X482454Y-184904D02*
X507855Y-184904D01*
X507854Y-113304D01*
X482454Y-113304D01*
X482454Y-184904D01*
G54D13*
X492333Y-104971D02*
X491333Y-106637D01*
X489333Y-107471D01*
X487333Y-107471D01*
X485333Y-106637D01*
X484333Y-104971D01*
X484333Y-96637D01*
X485333Y-94971D01*
X487333Y-94137D01*
X489333Y-94137D01*
X491333Y-94971D01*
X492333Y-96637D01*
G54D13*
X496033Y-96637D02*
X497033Y-94971D01*
X499033Y-94137D01*
X501033Y-94137D01*
X503033Y-94971D01*
X504033Y-96637D01*
X504033Y-98304D01*
X503033Y-99971D01*
X501033Y-100804D01*
X503033Y-101637D01*
X504033Y-103304D01*
X504033Y-104971D01*
X503033Y-106637D01*
X501033Y-107471D01*
X499033Y-107471D01*
X497033Y-106637D01*
X496033Y-104971D01*
G54D16*
G75*
G01X575812Y-152162D02*
G03X575812Y-152162I-30000J0D01*
G01*
G54D13*
X542071Y-114704D02*
X541071Y-116371D01*
X539071Y-117204D01*
X537071Y-117204D01*
X535071Y-116371D01*
X534071Y-114704D01*
X534071Y-106371D01*
X535071Y-104704D01*
X537071Y-103871D01*
X539071Y-103871D01*
X541071Y-104704D01*
X542071Y-106371D01*
G54D13*
X551771Y-117204D02*
X551771Y-103871D01*
X545771Y-112204D01*
X545771Y-113871D01*
X553771Y-113871D01*
G54D14*
X562025Y-122454D02*
X572800Y-122454D01*
G54D14*
X567212Y-117167D02*
X567212Y-127942D01*
G54D17*
X678340Y-79053D02*
X678340Y-65720D01*
G54D17*
X672785Y-72386D02*
X683896Y-72386D01*
G54D14*
X566704Y-301721D02*
X588879Y-301721D01*
X588879Y-352421D01*
X566704Y-352421D01*
X566704Y-301721D01*
G54D14*
X577791Y-301521D02*
X577791Y-293621D01*
G54D14*
X577791Y-352521D02*
X577792Y-360421D01*
G54D13*
X555150Y-333346D02*
X556816Y-330346D01*
X558483Y-329346D01*
X561816Y-329346D01*
G54D13*
X561816Y-337346D02*
X548483Y-337346D01*
X548483Y-332346D01*
X549316Y-330346D01*
X550983Y-329346D01*
X552650Y-329346D01*
X554316Y-330346D01*
X555150Y-332346D01*
X555150Y-337346D01*
G54D13*
X550983Y-325646D02*
X549316Y-324646D01*
X548483Y-322646D01*
X548483Y-320646D01*
X549316Y-318646D01*
X550983Y-317646D01*
X552650Y-317646D01*
X554316Y-318646D01*
X555150Y-320646D01*
X555983Y-318646D01*
X557650Y-317646D01*
X559316Y-317646D01*
X560983Y-318646D01*
X561816Y-320646D01*
X561816Y-322646D01*
X560983Y-324646D01*
X559316Y-325646D01*
G54D14*
X617504Y-301721D02*
X639679Y-301721D01*
X639679Y-352421D01*
X617504Y-352421D01*
X617504Y-301721D01*
G54D14*
X628591Y-301521D02*
X628591Y-293621D01*
G54D14*
X628591Y-352521D02*
X628592Y-360421D01*
G54D13*
X605950Y-333346D02*
X607616Y-330346D01*
X609283Y-329346D01*
X612616Y-329346D01*
G54D13*
X612616Y-337346D02*
X599283Y-337346D01*
X599283Y-332346D01*
X600116Y-330346D01*
X601783Y-329346D01*
X603450Y-329346D01*
X605116Y-330346D01*
X605950Y-332346D01*
X605950Y-337346D01*
G54D13*
X612616Y-317646D02*
X612616Y-325646D01*
X611783Y-325646D01*
X610116Y-324646D01*
X605116Y-318646D01*
X603450Y-317646D01*
X601783Y-317646D01*
X600116Y-318646D01*
X599283Y-320646D01*
X599283Y-322646D01*
X600116Y-324646D01*
X601783Y-325646D01*
G54D14*
X617504Y-123921D02*
X639679Y-123921D01*
X639679Y-174621D01*
X617504Y-174621D01*
X617504Y-123921D01*
G54D14*
X628591Y-123721D02*
X628591Y-115821D01*
G54D14*
X628591Y-174721D02*
X628592Y-182621D01*
G54D13*
X593450Y-89646D02*
X595116Y-86646D01*
X596783Y-85646D01*
X600116Y-85646D01*
G54D13*
X600116Y-93646D02*
X586783Y-93646D01*
X586783Y-88646D01*
X587616Y-86646D01*
X589283Y-85646D01*
X590950Y-85646D01*
X592616Y-86646D01*
X593450Y-88646D01*
X593450Y-93646D01*
G54D13*
X589283Y-73946D02*
X587616Y-74946D01*
X586783Y-76946D01*
X586783Y-78946D01*
X587616Y-80946D01*
X589283Y-81946D01*
X593450Y-81946D01*
X594283Y-81946D01*
X592616Y-78946D01*
X592616Y-76946D01*
X593450Y-74946D01*
X595116Y-73946D01*
X597616Y-73946D01*
X599283Y-74946D01*
X600116Y-76946D01*
X600116Y-78946D01*
X599283Y-80946D01*
X597616Y-81946D01*
X593450Y-81946D01*
G54D14*
X615804Y-273804D02*
X641205Y-273804D01*
X641204Y-202204D01*
X615804Y-202204D01*
X615804Y-273804D01*
G54D13*
X609975Y-237421D02*
X611642Y-238421D01*
X612475Y-240421D01*
X612475Y-242421D01*
X611642Y-244421D01*
X609975Y-245421D01*
X601642Y-245421D01*
X599975Y-244421D01*
X599142Y-242421D01*
X599142Y-240421D01*
X599975Y-238421D01*
X601642Y-237421D01*
G54D13*
X604142Y-233721D02*
X599142Y-228721D01*
X612475Y-228721D01*
G54D14*
X352869Y-352010D02*
X327468Y-352010D01*
X327469Y-423610D01*
X352869Y-423610D01*
X352869Y-352010D01*
G54D13*
X319577Y-396666D02*
X321244Y-397666D01*
X322077Y-399666D01*
X322077Y-401666D01*
X321244Y-403666D01*
X319577Y-404666D01*
X311244Y-404666D01*
X309577Y-403666D01*
X308744Y-401666D01*
X308744Y-399666D01*
X309577Y-397666D01*
X311244Y-396666D01*
G54D13*
X313744Y-392966D02*
X308744Y-387966D01*
X322077Y-387966D01*
G54D13*
X322077Y-378266D02*
X308744Y-378266D01*
X317077Y-384266D01*
X318744Y-384266D01*
X318744Y-376266D01*
G54D13*
X161767Y-405988D02*
X161767Y-392655D01*
G54D13*
X157767Y-392655D02*
X165767Y-392655D01*
G54D13*
X169467Y-405988D02*
X169467Y-392655D01*
X174467Y-392655D01*
X176467Y-393488D01*
X177467Y-395155D01*
X177467Y-396821D01*
X176467Y-398488D01*
X174467Y-399321D01*
X169467Y-399321D01*
G54D13*
X181167Y-397655D02*
X186167Y-392655D01*
X186167Y-405988D01*
G36*
X51600Y-294600D02*
X51800Y-205800D01*
X56600Y-205700D01*
X56400Y-294600D01*
X51600Y-294600D01*
G37*
G54D12*
X51600Y-294600D02*
X51800Y-205800D01*
X56600Y-205700D01*
X56400Y-294600D01*
X51600Y-294600D01*
G54D12*
X56531Y-294512D02*
X18532Y-294512D01*
X18531Y-205512D01*
X56531Y-205512D01*
X56531Y-294512D01*
G54D13*
X29728Y-195593D02*
X34728Y-198093D01*
G54D13*
X33728Y-187260D02*
X33728Y-195593D01*
X32728Y-197260D01*
X30728Y-198093D01*
X28728Y-198093D01*
X26728Y-197260D01*
X25728Y-195593D01*
X25728Y-187260D01*
X26728Y-185593D01*
X28728Y-184760D01*
X30728Y-184760D01*
X32728Y-185593D01*
X33728Y-187260D01*
G54D13*
X38428Y-184760D02*
X46428Y-184760D01*
X45428Y-186427D01*
X43428Y-188927D01*
X41428Y-192260D01*
X40428Y-194760D01*
X40428Y-198093D01*
G36*
X18300Y-294500D02*
X18500Y-205800D01*
X23300Y-205800D01*
X23300Y-294600D01*
X18300Y-294500D01*
G37*
G54D12*
X18300Y-294500D02*
X18500Y-205800D01*
X23300Y-205800D01*
X23300Y-294600D01*
X18300Y-294500D01*
M02*
