; Drill file
; Format: 2.4 (00.0000)
M48
INCH
T01C0.0157
T02C0.0197
T03C0.0236
T04C0.0283
T05C0.0354
T06C0.0394
T07C0.0433
T08C0.0472
T09C0.0512
T10C0.0551
T11C0.0787
T12C0.1
T13C0.1181
T14C0.1575
%
G05
G90
T01
X-004510Y041940
T02
X-036380Y012050
X-036380Y013050
X-032880Y035300
X-031880Y035300
X-005620Y037210
X-005500Y036310
X-003630Y037050
X-003000Y036310
X-001750Y035060
X-001630Y033800
X005120Y029300
X006250Y029310
X008380Y027560
X009620Y027550
X011880Y026810
X011870Y025800
X014410Y033610
X012620Y034800
X012750Y036310
X013750Y039310
X013870Y040550
X034500Y042810
X034620Y043800
X037120Y044300
X036750Y045310
X036500Y057310
X036620Y058550
X033870Y058550
X033750Y059810
X036450Y066150
X014500Y066560
X008000Y068810
X007120Y068800
X008870Y071300
X008500Y072310
X-008130Y061800
X-011380Y059050
X-012380Y059050
X-013380Y061550
X-014630Y061300
X036450Y033220
T03
X-015240Y-000580
X-015240Y001420
X-015210Y003450
X-015210Y005450
X-015160Y007040
X-015160Y009040
X-012160Y009040
X-011160Y009040
X-011160Y007040
X-012160Y007040
X-012210Y005450
X-011210Y005450
X-011210Y003450
X-012210Y003450
X-012240Y001420
X-011240Y001420
X-011240Y-000580
X-012240Y-000580
X-012160Y013870
X-011160Y013870
X-011160Y015870
X-012160Y015870
X-012190Y017430
X-011190Y017430
X-011190Y019430
X-012190Y019430
X-015190Y019430
X-015190Y017430
X-015160Y015870
X-015160Y013870
X-015130Y024220
X-015130Y026220
X-015070Y027620
X-015070Y029620
X-012070Y029620
X-011070Y029620
X-011070Y027620
X-012070Y027620
X-012130Y026220
X-011130Y026220
X-011130Y024220
X-012130Y024220
X-012070Y034530
X-011070Y034530
X-011070Y036530
X-012070Y036530
X-015070Y036530
X-015070Y034530
X-022600Y032900
X-006510Y038940
X-004510Y038940
X-006510Y041940
X-006510Y042940
X-004510Y042940
T04
X-038090Y-006970
X-038090Y-002970
X-027850Y-007480
X-023850Y-007480
X-020350Y-007480
X-016350Y-007480
X017610Y015370
X017610Y016370
X017610Y018370
X020610Y018370
X020610Y017370
X020610Y016370
X020610Y015370
X025100Y007440
X026100Y007440
X027100Y007440
X028100Y007440
X028100Y004440
X027100Y004440
X025100Y004440
X-020030Y042490
X-020030Y050990
X-020030Y059490
X-020030Y067990
X-006960Y062580
X-006960Y058580
X-012580Y086550
X-024550Y086450
X-041530Y067990
X-041530Y059490
X-041530Y050990
X-041530Y042490
X-045520Y032740
X-045370Y023960
T05
X-045730Y-012010
X-042730Y-012010
X-042060Y-014450
X-035980Y-013010
X-032980Y-013010
X-032310Y-015450
X-042230Y-002200
X-043230Y-002200
X-044230Y-002200
X-043650Y-000540
X-042150Y-000540
X-042150Y001470
X-043650Y001470
X-047650Y002710
X-047650Y004720
X-047240Y010050
X-044230Y010050
X-042240Y010050
X-039230Y010050
X-034380Y010460
X-034390Y011470
X-034280Y013150
X-034290Y015150
X-034260Y017280
X-033270Y017270
X-030900Y018660
X-030420Y017390
X-028410Y017400
X-027900Y018660
X-027910Y020400
X-026290Y020270
X-025600Y020900
X-024890Y020270
X-023910Y020900
X-023910Y022650
X-024910Y022650
X-025600Y023270
X-026290Y022650
X-027910Y022150
X-027910Y024270
X-028410Y025650
X-026660Y025140
X-025590Y026520
X-026280Y027150
X-024900Y027150
X-023910Y027150
X-023910Y028900
X-024910Y028900
X-024910Y030900
X-023910Y030900
X-025030Y032900
X-026030Y032900
X-026910Y030890
X-027910Y030900
X-027910Y029520
X-026910Y028890
X-028800Y027640
X-029780Y027650
X-030410Y025640
X-030910Y024270
X-032280Y025520
X-034290Y025520
X-033410Y027650
X-032430Y027640
X-030910Y029520
X-030910Y030900
X-031410Y032900
X-030400Y032900
X-033280Y034070
X-033990Y033360
X-030910Y022150
X-030910Y020400
X-032280Y020400
X-034290Y020390
X-026290Y017900
X-025600Y018520
X-024910Y017900
X-023910Y017900
X-023500Y016130
X-023910Y014270
X-023910Y012400
X-020910Y012400
X-020910Y014270
X-021490Y016130
X-020910Y017900
X-021020Y019530
X-020910Y020900
X-019660Y021400
X-019660Y023150
X-020910Y022650
X-020410Y024900
X-018790Y024520
X-018110Y025140
X-017410Y024520
X-016660Y023150
X-016660Y021400
X-016670Y020150
X-016660Y018150
X-019020Y019540
X-016680Y014640
X-016680Y012630
X-018660Y013020
X-022410Y024890
X-024660Y025150
X-020910Y027150
X-019660Y026900
X-019660Y028520
X-020910Y028900
X-020910Y030900
X-020660Y032900
X-019660Y032900
X-016660Y028520
X-016660Y026900
X-013820Y038370
X-011370Y040200
X-012890Y041870
X-011370Y043200
X-010270Y044430
X-010640Y045860
X-010270Y047090
X-010160Y048440
X-011070Y050630
X-012450Y050630
X-012890Y052370
X-011510Y053190
X-011510Y055070
X-008760Y055320
X-007760Y055320
X-006760Y055320
X-003010Y053570
X-000010Y055320
X000070Y061250
X-001930Y061250
X-001880Y065150
X000520Y064360
X002520Y064360
X003900Y064360
X003640Y062580
X002290Y061160
X003640Y060570
X002270Y067440
X000240Y067270
X-000730Y069860
X-002030Y069860
X-001600Y072360
X000400Y072360
X002650Y072860
X002650Y071360
X001520Y069860
X005270Y067430
X007620Y070550
X007620Y071420
X002650Y075110
X-007130Y075670
X-008880Y075170
X-011760Y075070
X-011630Y071670
X-010380Y071670
X-008880Y071670
X-008140Y065560
X-009260Y065070
X-010510Y065070
X-011760Y065070
X-008130Y064170
X-008130Y063300
X-009260Y061320
X-011510Y061320
X-013690Y059980
X-014560Y059980
X-014780Y054570
X-015490Y053860
X-013170Y048450
X-013270Y047090
X-012650Y045860
X-013270Y044430
X-014820Y045370
X-009010Y043070
X-009010Y041190
X-007510Y045690
X-007510Y047570
X-003540Y049300
X-000010Y047820
X005770Y048890
X007270Y048890
X008520Y048890
X008520Y046140
X007270Y046140
X005770Y046140
X008280Y041290
X010780Y041290
X010780Y038790
X009530Y038790
X008280Y038790
X007160Y038310
X002550Y040570
X-001550Y036070
X-002170Y036680
X001130Y028380
X003010Y028380
X005120Y026080
X006620Y026080
X007180Y027430
X006560Y028040
X007900Y028690
X010780Y028790
X010650Y032190
X009400Y032190
X007900Y032190
X013620Y036800
X013620Y037670
X016490Y036360
X016490Y034360
X019680Y036500
X020990Y035360
X020990Y033360
X022640Y031600
X021480Y030500
X019680Y030500
X019680Y027500
X021480Y027500
X024730Y027500
X026480Y028500
X024730Y030500
X024640Y031600
X024100Y033240
X023480Y033930
X024100Y034620
X024430Y037600
X026680Y036500
X028100Y034620
X027480Y033930
X028100Y033240
X029480Y031500
X031480Y031500
X031100Y033240
X030480Y033930
X031100Y034620
X033390Y034100
X035390Y034100
X032580Y039250
X033920Y041730
X034920Y041730
X035620Y043550
X035620Y044420
X031770Y046140
X030520Y046140
X029020Y046140
X029020Y048890
X030520Y048890
X031770Y048890
X029580Y039250
X026680Y039500
X024230Y040460
X022230Y040460
X019680Y039500
X021430Y037600
X018000Y041730
X016990Y041730
X026480Y031500
X029480Y028500
X031480Y028500
X030230Y025090
X029230Y025090
X028230Y025090
X026070Y024280
X024190Y024280
X026270Y021740
X025790Y020410
X026090Y018840
X026720Y018150
X026100Y017460
X024750Y019100
X023950Y017190
X022070Y017190
X021950Y015090
X023480Y014830
X025320Y015340
X026820Y015340
X029260Y014630
X029260Y012750
X029080Y010730
X029080Y009230
X027450Y009720
X025570Y009720
X022980Y009770
X020980Y009760
X021950Y012090
X023490Y012820
X025320Y012340
X026820Y012340
X028990Y016820
X028980Y018830
X028790Y020410
X028280Y021740
X030570Y021590
X032320Y021840
X031820Y024650
X033700Y024650
X032320Y018830
X032260Y017760
X032260Y016760
X030570Y018590
X035260Y017760
X035260Y016760
X032080Y010720
X032080Y009220
X033660Y007400
X033660Y006400
X031700Y006720
X029820Y006720
X029820Y003220
X031700Y003220
X027670Y002400
X026670Y002400
X025660Y002400
X026100Y004440
X023700Y003220
X021820Y003220
X023680Y-000260
X024680Y-000260
X023450Y007220
X021570Y007220
X019700Y007220
X017820Y007220
X014920Y008400
X014910Y005400
X014760Y000130
X013850Y-001080
X011730Y001050
X009950Y-000030
X008070Y-000030
X006170Y000570
X005170Y000650
X004160Y000650
X004100Y-001370
X005430Y-002700
X016640Y000130
X015700Y012690
X013820Y012690
X011700Y012690
X009820Y012690
X009850Y014770
X010800Y015980
X012550Y015590
X012500Y017310
X012490Y019320
X010800Y018980
X008520Y019400
X008520Y020410
X006980Y021810
X005980Y021820
X006630Y024070
X005130Y024070
X012260Y024660
X013270Y024660
X012260Y021500
X018050Y020090
X018980Y021810
X020990Y021820
X021050Y020090
X022630Y021220
X017910Y025300
X016920Y025350
X017610Y017370
X015550Y015590
X017820Y012690
X019700Y012690
X007720Y012650
X005470Y012890
X-000480Y015910
X-000480Y016920
X-016130Y-004790
X-017130Y-004790
X-036650Y002710
X-036650Y004720
X-046140Y018210
X-046140Y019220
X-048140Y018720
X-048140Y017720
X-046900Y033690
X-046900Y036690
X-046400Y038520
X-047410Y038520
X-045530Y042490
X-038200Y044960
X-038200Y046460
X-038200Y047710
X-035450Y047710
X-035450Y046460
X-035450Y044960
X-029450Y044960
X-029450Y046460
X-029450Y047710
X-026700Y047710
X-026700Y046460
X-026700Y044960
X-024030Y042490
X-024030Y050990
X-026700Y053460
X-026700Y054960
X-026700Y056210
X-029450Y056210
X-029450Y054960
X-029450Y053460
X-035450Y053460
X-035450Y054960
X-035450Y056210
X-038200Y056210
X-038200Y054960
X-038200Y053460
X-045530Y050990
X-045530Y059490
X-038200Y061960
X-038200Y063460
X-038200Y064710
X-035450Y064710
X-035450Y063460
X-035450Y061960
X-029450Y061960
X-029450Y063460
X-029450Y064710
X-026700Y064710
X-026700Y063460
X-026700Y061960
X-024030Y059490
X-024030Y067990
X-026700Y070460
X-026700Y071960
X-026700Y073210
X-029450Y073210
X-029450Y071960
X-029450Y070460
X-035450Y070460
X-035450Y071960
X-035450Y073210
X-038200Y073210
X-038200Y071960
X-038200Y070460
X-045530Y067990
X-038560Y080300
X-039230Y082740
X-042230Y082740
X-033230Y083240
X-030230Y083240
X-029560Y080800
X-024550Y082450
X-012580Y082550
X016990Y074660
X018000Y074660
X019680Y072440
X021430Y070540
X019680Y069440
X020990Y068300
X020990Y066290
X022640Y064530
X021480Y063440
X019680Y063440
X019680Y060440
X021480Y060440
X024730Y060440
X026480Y061440
X024730Y063440
X024640Y064530
X024100Y066180
X023480Y066870
X024100Y067560
X024430Y070540
X026680Y069440
X028100Y067560
X027480Y066870
X028100Y066180
X029480Y064440
X031480Y064440
X031100Y066180
X030480Y066870
X031100Y067560
X033390Y067030
X035390Y067040
X032580Y072180
X033920Y074660
X034920Y074660
X029580Y072190
X026680Y072440
X024230Y073400
X022230Y073400
X016490Y069300
X016490Y067290
X016920Y058290
X017910Y058240
X026480Y064440
X029480Y061440
X031480Y061440
X035000Y059170
X035000Y058300
X034370Y-020410
X035870Y-020410
X037370Y-020410
X015370Y-020410
X013870Y-020410
X012370Y-020410
T06
X-046430Y-015400
X-047810Y-014010
X-045700Y-013280
X-044060Y-014460
X-040850Y-013420
X-038060Y-015010
X-036680Y-016400
X-035950Y-014280
X-034310Y-015460
X-031100Y-014420
X-027890Y-014890
X-023140Y-014890
X-020390Y-014890
X-015640Y-014890
X-015640Y-010140
X-018010Y-009400
X-020260Y-010140
X-023140Y-010140
X-025510Y-009400
X-027760Y-010140
X-031100Y-010420
X-031270Y-008740
X-032600Y-009170
X-033520Y-011740
X-034770Y-011740
X-036020Y-011740
X-036600Y-009170
X-036390Y-006390
X-031640Y-006390
X-031640Y-001640
X-034010Y-000900
X-036260Y-001640
X-038490Y-001160
X-040450Y-001150
X-039470Y000850
X-038150Y002020
X-038150Y006020
X-046110Y001990
X-046720Y000850
X-047450Y-001150
X-045740Y-001160
X-046350Y-008170
X-045770Y-010740
X-044520Y-010740
X-043270Y-010740
X-042350Y-008170
X-041020Y-007740
X-040850Y-009420
X-028020Y-000530
X-027270Y-000530
X-026520Y-000530
X-025770Y-000530
X-025020Y-000530
X-024270Y-000530
X-023520Y-000530
X-022770Y-000530
X-022770Y000220
X-022770Y000970
X-022770Y001720
X-022770Y002470
X-022770Y003220
X-022770Y003970
X-022770Y004720
X-022770Y005470
X-022770Y006220
X-023520Y006220
X-024270Y006220
X-025020Y006220
X-025770Y006220
X-026520Y006220
X-027270Y006220
X-028020Y006220
X-028020Y005470
X-028020Y004720
X-028020Y003970
X-028020Y003220
X-028020Y002470
X-028020Y001720
X-028020Y000970
X-028020Y000220
X-020440Y002880
X-018660Y003200
X-016700Y003190
X-017680Y001190
X-016940Y007150
X-013450Y010190
X-012470Y012190
X-014430Y012200
X-009490Y012020
X-009490Y010690
X-009490Y006690
X-009560Y006690
X-009720Y003730
X-009790Y003730
X-007980Y003780
X-007900Y003780
X-007980Y-000220
X-009790Y-000270
X000550Y012160
X001530Y014160
X-000430Y014170
X-003390Y015090
X-003390Y018720
X-003390Y022970
X-003520Y026720
X-007600Y027930
X-009520Y027980
X-009470Y026680
X-009470Y022680
X-009470Y021380
X-012530Y022520
X-014490Y022530
X-013510Y020520
X-009470Y017380
X-009490Y016020
X-007600Y016330
X-017720Y017160
X-019680Y017170
X-018700Y015160
X-013360Y031000
X-012370Y033010
X-014340Y033010
X-009580Y033230
X-009520Y031980
X-005340Y035100
X-004340Y035100
X-003340Y035100
X000030Y036650
X002280Y037420
X001050Y039160
X005050Y039160
X004660Y036650
X004660Y031900
X-000090Y031900
X-007220Y037000
X-009580Y037230
X-008180Y044150
X-004180Y044150
X001260Y047130
X002260Y047130
X003260Y047130
X003500Y049630
X002500Y050630
X001500Y051630
X001500Y049630
X003500Y051630
X003260Y054130
X002260Y054130
X001260Y054130
X-003380Y059650
X-005510Y059650
X-006470Y065300
X-006470Y067300
X-006470Y069300
X-006470Y072300
X-003470Y072300
X-003150Y075090
X-003470Y069300
X-003470Y067300
X-003470Y065300
X-013900Y069590
X-013900Y070590
X-013900Y071590
X-019070Y072190
X-019810Y074440
X-019810Y069820
X-019810Y065940
X-019070Y063690
X-019810Y061320
X-016940Y059270
X-019810Y057440
X-019070Y055190
X-019810Y052820
X-019810Y048940
X-019070Y046690
X-019810Y044320
X-024560Y044320
X-026580Y041350
X-027580Y041350
X-030330Y041350
X-031330Y041350
X-034580Y041350
X-035580Y041350
X-036040Y040040
X-038080Y041350
X-039080Y041350
X-040900Y043840
X-040900Y048590
X-040900Y052340
X-040900Y057090
X-040900Y060840
X-040900Y065590
X-040900Y069340
X-040900Y074090
X-038080Y076850
X-035790Y078080
X-034580Y076850
X-033930Y079850
X-035310Y081240
X-037350Y081330
X-040560Y080290
X-042200Y081470
X-044310Y080740
X-042930Y079350
X-042270Y084010
X-041020Y084010
X-039770Y084010
X-038850Y086580
X-037520Y087010
X-037350Y085330
X-033850Y087080
X-033270Y084510
X-032020Y084510
X-030770Y084510
X-029850Y087080
X-028520Y087510
X-028350Y085830
X-028350Y081830
X-031560Y080790
X-033200Y081970
X-029930Y078470
X-030330Y076850
X-031340Y073860
X-031330Y071850
X-031730Y070120
X-033740Y070120
X-033830Y071850
X-033840Y073860
X-026580Y076850
X-024560Y074570
X-024560Y069820
X-024560Y066070
X-024560Y061320
X-024560Y057570
X-024560Y052820
X-024560Y049070
X-031340Y048360
X-031330Y046350
X-031730Y044620
X-033740Y044620
X-033830Y046350
X-033840Y048360
X-033740Y053120
X-033830Y054850
X-033840Y056860
X-031340Y056860
X-031330Y054850
X-031730Y053120
X-031730Y061620
X-031330Y063350
X-031340Y065360
X-033840Y065360
X-033830Y063350
X-033740Y061620
X-045650Y060970
X-046390Y063220
X-045650Y065590
X-045650Y069470
X-046390Y071720
X-045650Y074090
X-042850Y086580
X-022400Y084160
X-021660Y081910
X-021660Y086540
X-016910Y086540
X-016910Y081790
X-010430Y084260
X-009690Y082010
X-009690Y086630
X-004940Y086630
X-004940Y081880
X010230Y076890
X011730Y077010
X013480Y077010
X015230Y077010
X017480Y076890
X017480Y064570
X016480Y063570
X015480Y064570
X015480Y062570
X017480Y062570
X008980Y065760
X010270Y048890
X012670Y040890
X012670Y032390
X012670Y031390
X012670Y030390
X015480Y029630
X016480Y030630
X015480Y031630
X017480Y031630
X017480Y029630
X019400Y023640
X016090Y019040
X014080Y020020
X014080Y018060
X010380Y021500
X009990Y023900
X009990Y025400
X009990Y026400
X008490Y026400
X008490Y025400
X006720Y016900
X005470Y013890
X006720Y012900
X036400Y012140
X036400Y011140
X036900Y013390
X036900Y014390
X036900Y016640
X036900Y017640
X036900Y018890
X036900Y019890
X036650Y023390
X036650Y024390
X036650Y025390
X035980Y029630
X034980Y030630
X033980Y031630
X035980Y031630
X033980Y029630
X033670Y043950
X034510Y046880
X035510Y046880
X036510Y046880
X036000Y049630
X035000Y050630
X034000Y051630
X036000Y051630
X035510Y054130
X036510Y054130
X034510Y054130
X033070Y057160
X033980Y062570
X034980Y063570
X033980Y064570
X035980Y064570
X035980Y062570
X034000Y049630
X027020Y048890
X033670Y076880
X-006510Y052320
X-008260Y053070
X-008260Y051320
X-008260Y049570
X-006510Y050320
X-020440Y038880
X-035940Y033630
X-038840Y035250
X-041220Y036010
X-043470Y035250
X-045520Y036740
X-043590Y030500
X-045370Y027960
X-043300Y026490
X-038550Y026490
X-036440Y026350
X-038840Y030500
X-038670Y021740
X-040920Y021000
X-043300Y021740
X-045650Y043970
X-046390Y046220
X-045650Y048590
X-045650Y052470
X-046390Y054720
X-045650Y057090
X-048190Y059270
X036900Y004640
X036900Y003640
X036900Y001390
X036900Y000390
X036900Y-000610
X036900Y-001490
T07
X-026440Y007490
X-025440Y007500
X-024440Y007490
X-024440Y010020
X-025450Y010020
X-026440Y010030
X-028860Y012630
X-030350Y012630
X-029910Y015150
X-028410Y015150
T08
X-046110Y005990
X-044360Y005990
X-041610Y005240
X-040110Y005990
X-041610Y013740
X-040110Y014490
X-039360Y014490
X-044360Y014490
X-046110Y014490
X-046860Y014490
X-048050Y020740
X-006250Y-001250
X-006250Y-003250
X-006250Y-005000
X-002250Y-005000
X-002250Y-006750
X000000Y-006250
X000000Y-007250
X-002250Y-001500
X-002250Y000000
X000000Y-000250
X000000Y000500
X000500Y002500
X000500Y003500
X002250Y003500
X002250Y002500
X012250Y002500
X013250Y002500
X013250Y004250
X012250Y004250
X012250Y008000
X013250Y008000
X013250Y009500
X012250Y009500
X014960Y037950
X016630Y038620
X026770Y041890
X035000Y038620
X035000Y071560
X026770Y074830
X016630Y071560
X014960Y070890
T09
X006400Y054260
X007190Y054260
X008770Y054260
X009550Y054260
X027860Y054060
X028650Y054060
X030220Y054060
X031010Y054060
T10
X014630Y053860
X022630Y048360
T11
X-048050Y022950
X-011870Y066860
X-011870Y069860
X-008870Y069860
X-008870Y066860
X007900Y037010
X010900Y037010
X010900Y034010
X007900Y034010
X-047550Y083950
X-047550Y086450
X-047550Y088450
X-045550Y088450
T12
X-030410Y008770
X-020340Y008770
T13
X-039680Y003250
X-039680Y038620
X-043340Y040600
X-014090Y058090
X-014590Y076590
X-027910Y079200
X-042910Y077290
X007530Y076720
X014780Y074590
X014780Y060470
X007160Y058090
X014780Y041660
X014780Y027530
X-002180Y038620
X-002180Y003120
X036800Y027590
X036820Y041620
X036800Y060530
X036820Y074560
T14
X-009440Y-012990
X008560Y-012990
X020000Y048360
X017250Y053860
M30
