; Drill file
; Format: 2.4 (00.0000)
M48
INCH
T01C0.0157
T02C0.0197
T03C0.0236
T04C0.0283
T05C0.0354
T06C0.0394
T07C0.0433
T08C0.0472
T09C0.0512
T10C0.0551
T11C0.0787
T12C0.1
T13C0.1181
T14C0.122
T15C0.1575
%
G05
G90
T01
X-007690Y-047800
T02
X-039560Y-077700
X-039560Y-076700
X-036060Y-054450
X-035060Y-054450
X-008800Y-052530
X-008680Y-053430
X-006810Y-052700
X-006180Y-053430
X-004930Y-054680
X-004810Y-055950
X-005690Y-049430
X-006690Y-049430
X001940Y-060450
X003070Y-060430
X005190Y-062180
X006440Y-062200
X008690Y-062930
X008690Y-063950
X009440Y-054950
X009570Y-053430
X011940Y-053710
X010570Y-050430
X010690Y-049200
X031320Y-046930
X033940Y-045450
X033570Y-044430
X033900Y-054120
X033320Y-032430
X033440Y-031200
X030690Y-031200
X030570Y-029930
X033270Y-023590
X011320Y-023180
X004820Y-020930
X003940Y-020950
X005690Y-018450
X005320Y-017430
X-004930Y-015680
X-005680Y-016320
X-005430Y-020930
X-005810Y-021700
X-010400Y-025450
X-011310Y-027950
X-014560Y-030700
X-015560Y-030700
X-016560Y-028200
X-017810Y-028450
T03
X-018420Y-090320
X-018420Y-088320
X-018390Y-086290
X-018390Y-084290
X-018340Y-082700
X-018340Y-080700
X-015340Y-080700
X-014340Y-080700
X-014340Y-082700
X-015340Y-082700
X-015390Y-084290
X-014390Y-084290
X-014390Y-086290
X-015390Y-086290
X-015420Y-088320
X-014420Y-088320
X-014420Y-090320
X-015420Y-090320
X-015340Y-075870
X-014340Y-075870
X-014340Y-073870
X-015340Y-073870
X-015380Y-072310
X-014380Y-072310
X-014380Y-070310
X-015380Y-070310
X-018380Y-070310
X-018380Y-072310
X-018340Y-073870
X-018340Y-075870
X-018310Y-065530
X-018310Y-063530
X-018250Y-062120
X-018250Y-060120
X-015250Y-060120
X-014250Y-060120
X-014250Y-062120
X-015250Y-062120
X-015310Y-063530
X-014310Y-063530
X-014310Y-065530
X-015310Y-065530
X-015250Y-055220
X-014250Y-055220
X-014250Y-053220
X-015250Y-053220
X-018250Y-053220
X-018250Y-055220
X-025780Y-056850
X-009690Y-050800
X-007690Y-050800
X-009690Y-047800
X-009690Y-046800
X-007690Y-046800
T04
X-041270Y-092710
X-023530Y-097220
X-048550Y-065790
X-048700Y-057000
X-044710Y-047250
X-044710Y-038750
X-044710Y-030250
X-044710Y-021750
X-023210Y-021750
X-023210Y-030250
X-023210Y-038750
X-023210Y-047250
X-010150Y-031160
X-010150Y-027160
X-015760Y-003200
X-027730Y-003290
X014430Y-071380
X014430Y-073380
X014430Y-074380
X017430Y-074380
X017430Y-073380
X017430Y-072380
X017430Y-071380
X021920Y-082300
X022920Y-082300
X023920Y-082300
X024920Y-082300
X024920Y-085300
X023920Y-085300
X021920Y-085300
T05
X-051820Y-106280
X-051820Y-105270
X-049410Y-103890
X-047530Y-103890
X-043930Y-102710
X-043930Y-101710
X-047410Y-098890
X-049290Y-098890
X-048570Y-095780
X-048570Y-094770
X-047420Y-091950
X-046830Y-090280
X-045330Y-090280
X-045420Y-091950
X-045330Y-088270
X-046830Y-088270
X-050830Y-087030
X-050830Y-085020
X-050420Y-079690
X-047420Y-079700
X-045420Y-079690
X-042420Y-079700
X-037570Y-079280
X-037570Y-078270
X-037460Y-076600
X-037470Y-074590
X-037440Y-072460
X-036450Y-072470
X-034080Y-071090
X-033600Y-072350
X-031590Y-072350
X-031080Y-071090
X-031090Y-069350
X-029470Y-069470
X-028780Y-068850
X-028070Y-069470
X-027090Y-068850
X-027090Y-067100
X-028090Y-067100
X-028780Y-066470
X-029470Y-067100
X-031090Y-067600
X-031090Y-065470
X-031590Y-064100
X-029840Y-064600
X-028770Y-063220
X-029460Y-062600
X-028080Y-062600
X-027090Y-062600
X-027090Y-060850
X-028090Y-060850
X-028090Y-058850
X-027090Y-058850
X-028210Y-056840
X-029210Y-056850
X-030090Y-058850
X-031090Y-058840
X-031090Y-060220
X-030090Y-060850
X-031980Y-062110
X-032960Y-062100
X-033590Y-064100
X-034090Y-065470
X-035460Y-064220
X-037470Y-064230
X-036590Y-062100
X-035610Y-062110
X-034090Y-060220
X-034090Y-058840
X-034590Y-056850
X-033580Y-056850
X-036460Y-055670
X-037170Y-056380
X-038860Y-053120
X-038860Y-052190
X-039860Y-052190
X-039860Y-053120
X-038630Y-044780
X-038630Y-043280
X-038630Y-042030
X-041380Y-042030
X-041380Y-043280
X-041380Y-044780
X-048710Y-047250
X-049580Y-051230
X-050590Y-051230
X-050080Y-053060
X-050080Y-056060
X-050850Y-072080
X-051690Y-073370
X-051690Y-074370
X-037470Y-069350
X-035460Y-069350
X-034090Y-069350
X-034090Y-067600
X-029470Y-071850
X-028780Y-071220
X-028090Y-071850
X-027090Y-071850
X-026680Y-073610
X-027090Y-075470
X-027090Y-077350
X-024090Y-077350
X-024090Y-075470
X-024670Y-073610
X-024090Y-071850
X-024200Y-070210
X-024090Y-068850
X-022840Y-068340
X-022840Y-066600
X-024090Y-067100
X-023590Y-064850
X-021970Y-065220
X-021290Y-064600
X-020590Y-065220
X-019840Y-066600
X-019840Y-068350
X-019850Y-069590
X-019840Y-071600
X-022200Y-070210
X-019860Y-075100
X-019860Y-077110
X-021840Y-076720
X-025590Y-064850
X-027840Y-064600
X-024090Y-062600
X-022840Y-062850
X-022840Y-061220
X-024090Y-060850
X-024090Y-058840
X-023840Y-056850
X-022840Y-056850
X-019840Y-061220
X-019840Y-062850
X-017000Y-051380
X-015400Y-051840
X-014550Y-049550
X-012190Y-048560
X-012190Y-046680
X-013450Y-045310
X-013820Y-043880
X-013450Y-042650
X-013350Y-041300
X-014250Y-039110
X-015630Y-039110
X-016070Y-037380
X-014690Y-036550
X-014690Y-034670
X-011940Y-034430
X-010940Y-034430
X-009940Y-034430
X-006190Y-036180
X-005400Y-033340
X-003190Y-034430
X-003110Y-028490
X-005110Y-028490
X-005060Y-024590
X-005420Y-022880
X-004580Y-022050
X-002940Y-022470
X-000910Y-022310
X-001660Y-019890
X-000530Y-018390
X-000530Y-016890
X-000530Y-014640
X-004070Y-016680
X-004780Y-017390
X-005210Y-019890
X-003910Y-019890
X-002660Y-025390
X-000660Y-025390
X000720Y-025390
X000460Y-027160
X-000900Y-028580
X000460Y-029170
X002090Y-022310
X004440Y-019200
X004440Y-018320
X013310Y-020440
X013310Y-022450
X016500Y-020310
X017810Y-021440
X017810Y-023450
X019460Y-025210
X018300Y-026310
X016500Y-026310
X016500Y-029310
X018290Y-029310
X021540Y-029310
X023290Y-028310
X021550Y-026310
X021460Y-025210
X020920Y-023570
X020300Y-022870
X020920Y-022180
X021250Y-019210
X023500Y-020310
X024920Y-022180
X024300Y-022870
X024920Y-023570
X026300Y-025310
X028300Y-025310
X027920Y-023570
X027300Y-022870
X027920Y-022180
X030210Y-022710
X032210Y-022710
X029400Y-017560
X026400Y-017560
X023500Y-017310
X021050Y-016340
X019040Y-016350
X016500Y-017310
X018250Y-019200
X014810Y-015080
X015220Y-006520
X016240Y-005000
X016860Y-004310
X016870Y-005690
X015220Y-003520
X-001380Y-006270
X-004380Y-006270
X-004000Y-002960
X-015760Y-007200
X-014940Y-014670
X-012060Y-014570
X-010310Y-014070
X-012060Y-018070
X-013560Y-018070
X-014810Y-018070
X-014940Y-024670
X-013690Y-024670
X-012440Y-024670
X-011320Y-024190
X-011310Y-025570
X-011310Y-026450
X-012440Y-028420
X-014690Y-028420
X-016750Y-029760
X-017750Y-029760
X-027210Y-030250
X-029880Y-027780
X-029880Y-026280
X-029880Y-025030
X-032630Y-025030
X-032630Y-026280
X-032630Y-027780
X-032630Y-033530
X-032630Y-034780
X-032630Y-036280
X-029880Y-036280
X-029880Y-034780
X-029880Y-033530
X-027210Y-038750
X-029880Y-042030
X-029880Y-043280
X-029880Y-044780
X-032630Y-044780
X-032630Y-043280
X-032630Y-042030
X-027210Y-047250
X-018000Y-044380
X-016450Y-045310
X-015830Y-043890
X-016450Y-042650
X-016350Y-041300
X-014550Y-046550
X-010690Y-044060
X-010690Y-042180
X-006720Y-040450
X-003190Y-041930
X002590Y-040850
X004090Y-040850
X005340Y-040850
X005340Y-043600
X004090Y-043600
X002590Y-043600
X005100Y-048450
X007600Y-048450
X007600Y-050950
X006350Y-050950
X005100Y-050950
X003980Y-051440
X-000630Y-049180
X-004730Y-053680
X-005350Y-053060
X-006650Y-057340
X-006650Y-058840
X-002050Y-061370
X-000170Y-061370
X001940Y-063660
X003440Y-063660
X004000Y-062320
X003380Y-061700
X004720Y-061050
X007600Y-060950
X007470Y-057550
X006220Y-057550
X004720Y-057550
X010440Y-052950
X010440Y-052070
X013000Y-054590
X015010Y-054590
X017290Y-055120
X017920Y-054430
X017290Y-053730
X016920Y-051990
X018920Y-051990
X020290Y-053730
X020920Y-054430
X020290Y-055120
X021720Y-056990
X023960Y-058090
X024160Y-060960
X026170Y-060950
X028720Y-059990
X026970Y-058100
X028720Y-056990
X027410Y-055860
X027400Y-053850
X025760Y-052090
X026920Y-050990
X028720Y-050990
X028720Y-047990
X026920Y-047990
X023670Y-047990
X021920Y-048990
X020380Y-046880
X018920Y-048990
X016920Y-048990
X021920Y-051990
X023760Y-052090
X023670Y-050990
X024290Y-053730
X024920Y-054430
X024290Y-055120
X021720Y-059990
X018820Y-059740
X015820Y-059740
X013300Y-059110
X014730Y-064440
X015800Y-067930
X014870Y-069660
X014430Y-072380
X012370Y-074160
X012520Y-077050
X010640Y-077050
X008520Y-077050
X006640Y-077050
X006670Y-074970
X007620Y-073760
X009370Y-074160
X009310Y-072430
X009310Y-070420
X007620Y-070760
X005340Y-070340
X005340Y-069340
X003800Y-067930
X002800Y-067930
X003450Y-065670
X001950Y-065670
X009080Y-065080
X010090Y-065080
X009080Y-068250
X017810Y-067920
X017870Y-069660
X019450Y-068520
X021570Y-070640
X022910Y-070900
X023540Y-071590
X022920Y-072290
X020770Y-072550
X018890Y-072550
X018770Y-074650
X020300Y-074920
X022140Y-074400
X023640Y-074400
X026080Y-075110
X026080Y-076990
X025900Y-079020
X025900Y-080520
X024270Y-080030
X022390Y-080030
X019800Y-079970
X017800Y-079980
X018760Y-077660
X020310Y-076920
X022140Y-077410
X023640Y-077410
X025810Y-072920
X025800Y-070920
X025610Y-069340
X025100Y-068000
X023090Y-068000
X022610Y-069330
X022890Y-065470
X021010Y-065470
X025050Y-064650
X026050Y-064650
X027050Y-064650
X028640Y-065090
X030520Y-065090
X029140Y-067910
X027390Y-068150
X027390Y-071160
X029140Y-070910
X029080Y-071980
X029080Y-072980
X032080Y-072990
X032080Y-071980
X028900Y-079020
X028900Y-080520
X030480Y-082340
X030480Y-083350
X028520Y-083030
X026640Y-083030
X026640Y-086530
X028520Y-086530
X024490Y-087350
X023490Y-087350
X022480Y-087350
X022920Y-085300
X020520Y-086530
X018640Y-086530
X020500Y-090000
X020260Y-093100
X020950Y-093730
X019560Y-093730
X014850Y-093840
X013460Y-089620
X011570Y-089620
X010670Y-090820
X008550Y-088700
X006770Y-089780
X004890Y-089780
X002990Y-089170
X005190Y-093660
X010350Y-093840
X011730Y-084340
X011740Y-081340
X014640Y-082530
X016520Y-082530
X018390Y-082530
X020270Y-082530
X016520Y-077050
X014640Y-077050
X004540Y-077100
X002290Y-076860
X-003660Y-073830
X-003660Y-072820
X-018150Y-093340
X-030210Y-099070
X-030210Y-100080
X-031870Y-100120
X-036160Y-102750
X-035490Y-105200
X-036130Y-109340
X-037140Y-109340
X-038140Y-109340
X-039150Y-109340
X-040160Y-109330
X-036090Y-110600
X-033090Y-110600
X-030990Y-110710
X-029780Y-111270
X-028760Y-109750
X-028140Y-109060
X-028130Y-110440
X-029780Y-108270
X-029370Y-104620
X-039170Y-102750
X-051870Y-094610
X-039830Y-087030
X-039830Y-085020
X-048710Y-038750
X-041380Y-036280
X-041380Y-034780
X-041380Y-033530
X-038630Y-033530
X-038630Y-034780
X-038630Y-036280
X-038630Y-027780
X-038630Y-026280
X-038630Y-025030
X-041380Y-025030
X-041380Y-026280
X-041380Y-027780
X-048710Y-030250
X-048710Y-021750
X-041380Y-019280
X-041380Y-017780
X-041380Y-016530
X-038630Y-016530
X-038630Y-017780
X-038630Y-019280
X-032630Y-019280
X-032630Y-017780
X-032630Y-016530
X-029880Y-016530
X-029880Y-017780
X-029880Y-019280
X-027210Y-021750
X-027730Y-007290
X-033030Y-007890
X-034910Y-007890
X-039530Y-008010
X-041410Y-008010
X-042290Y-003760
X-040410Y-003760
X-034790Y-002890
X-032910Y-002890
X023300Y-025310
X026290Y-028310
X028290Y-028310
X031820Y-030570
X031820Y-031570
X028590Y-040850
X027340Y-040850
X025840Y-040850
X025840Y-043600
X027340Y-043600
X028590Y-043600
X032440Y-045320
X032440Y-046320
X033880Y-046500
X036100Y-046590
X031900Y-054850
X031910Y-056860
X031800Y-059110
X009600Y-046840
X030840Y-092330
X031850Y-092340
X034630Y-093620
X035850Y-091090
X034190Y-110160
X032690Y-110160
X031190Y-110160
X012190Y-110160
X010690Y-110160
X009190Y-110160
T06
X-054490Y-103860
X-054490Y-101860
X-054490Y-099860
X-054490Y-097860
X-052870Y-094610
X-050630Y-090900
X-048920Y-090900
X-049900Y-088890
X-049290Y-087760
X-043630Y-090900
X-041670Y-090900
X-042650Y-088890
X-041330Y-087720
X-041330Y-083720
X-039440Y-091390
X-037190Y-090650
X-034820Y-091390
X-032450Y-091150
X-032450Y-091900
X-032450Y-092780
X-031700Y-092780
X-031070Y-092780
X-030450Y-092780
X-029700Y-092780
X-028950Y-092780
X-028200Y-092780
X-027450Y-092780
X-026700Y-092780
X-025950Y-092780
X-025950Y-092030
X-025950Y-091150
X-025950Y-090280
X-025950Y-089530
X-025950Y-088780
X-025950Y-088030
X-025950Y-087280
X-025950Y-086530
X-025950Y-085780
X-025950Y-085030
X-025950Y-084280
X-025950Y-083530
X-026700Y-083530
X-027450Y-083530
X-028200Y-083530
X-028950Y-083530
X-029700Y-083530
X-030450Y-083530
X-031200Y-083530
X-031650Y-083470
X-032450Y-083530
X-032450Y-084280
X-032450Y-085030
X-032450Y-085780
X-032450Y-086530
X-032450Y-087280
X-032450Y-088030
X-032450Y-088780
X-032450Y-089530
X-032450Y-090280
X-034820Y-096140
X-034450Y-098480
X-035780Y-098920
X-034280Y-100170
X-031870Y-099110
X-029370Y-103610
X-034280Y-104170
X-037490Y-105200
X-039130Y-104030
X-041240Y-104750
X-042770Y-105210
X-043820Y-107490
X-046600Y-107430
X-045800Y-102600
X-045800Y-101350
X-045800Y-100100
X-043690Y-098650
X-043690Y-095650
X-042690Y-094650
X-041270Y-096710
X-039570Y-096140
X-039780Y-098920
X-039200Y-101480
X-037950Y-101480
X-036700Y-101480
X-041690Y-102150
X-039860Y-106140
X-030990Y-108700
X-023570Y-104640
X-018820Y-104640
X-018820Y-099890
X-021190Y-099150
X-023440Y-099890
X-019530Y-097220
X-020870Y-088550
X-019880Y-086550
X-021850Y-086550
X-023620Y-086860
X-020120Y-082600
X-016630Y-079550
X-015650Y-077550
X-017610Y-077550
X-012670Y-077720
X-012670Y-079050
X-012670Y-083050
X-012740Y-083050
X-012900Y-086010
X-012980Y-086010
X-011160Y-085970
X-011080Y-085970
X-011160Y-089970
X-012980Y-090010
X-002630Y-077590
X-001650Y-075580
X-003610Y-075580
X-006570Y-074650
X-006570Y-071030
X-006570Y-066780
X-006700Y-063030
X-010780Y-061820
X-012700Y-061770
X-012650Y-063060
X-012650Y-067060
X-012650Y-068360
X-015710Y-067220
X-017670Y-067220
X-016690Y-069230
X-012650Y-072360
X-012670Y-073720
X-020900Y-072580
X-022860Y-072580
X-021880Y-074590
X-016540Y-058740
X-015550Y-056740
X-017520Y-056730
X-012760Y-056520
X-012700Y-057770
X-012760Y-052520
X-010400Y-052740
X-007530Y-054650
X-003150Y-053090
X-000900Y-052320
X-002130Y-050590
X001870Y-050590
X001480Y-053090
X001480Y-057840
X-003270Y-057840
X005310Y-063350
X005310Y-064350
X006810Y-064350
X006810Y-063350
X006810Y-065850
X007200Y-068250
X010900Y-069720
X010900Y-071680
X012900Y-070700
X016220Y-066110
X009490Y-059350
X009490Y-058350
X009490Y-057350
X012420Y-052120
X013420Y-051120
X014420Y-050120
X014420Y-052120
X012420Y-050120
X009490Y-048850
X007090Y-040850
X000320Y-040110
X-000680Y-039110
X-001680Y-038110
X000320Y-038110
X-001680Y-040110
X-000920Y-042610
X-007360Y-045590
X-011360Y-045590
X-011440Y-040180
X-011440Y-038430
X-011440Y-036680
X-009690Y-037430
X-009690Y-039430
X-008690Y-030090
X-006560Y-030090
X-006650Y-024450
X-006650Y-022450
X-006650Y-020450
X-006650Y-017450
X-006330Y-014650
X-009650Y-017450
X-009650Y-020450
X-009650Y-022450
X-009650Y-024450
X-017080Y-020150
X-017080Y-019150
X-017080Y-018150
X-022250Y-017550
X-022990Y-015300
X-022990Y-019930
X-022990Y-023800
X-022250Y-026050
X-022990Y-028430
X-020120Y-030470
X-022990Y-032300
X-022250Y-034550
X-022990Y-036930
X-022990Y-040800
X-022250Y-043050
X-022990Y-045430
X-027740Y-045430
X-029760Y-048390
X-033510Y-048390
X-034910Y-045120
X-034510Y-043390
X-034520Y-041390
X-037020Y-041390
X-037010Y-043390
X-036920Y-045130
X-037760Y-048390
X-039230Y-049710
X-041260Y-048390
X-044080Y-045900
X-044080Y-041150
X-044080Y-037400
X-044080Y-032650
X-044080Y-028900
X-044080Y-024150
X-044080Y-020400
X-044080Y-015650
X-041260Y-012890
X-038970Y-011670
X-037760Y-012890
X-037020Y-015890
X-037010Y-017890
X-036920Y-019630
X-034910Y-019620
X-034510Y-017890
X-034520Y-015890
X-033510Y-012890
X-033110Y-011280
X-029760Y-012890
X-027740Y-015180
X-027740Y-019930
X-027740Y-023680
X-027740Y-028430
X-027740Y-032180
X-027740Y-036930
X-027740Y-040680
X-034910Y-036620
X-034510Y-034890
X-034520Y-032890
X-037020Y-032890
X-037010Y-034890
X-036920Y-036630
X-036920Y-028130
X-037010Y-026390
X-037020Y-024390
X-034520Y-024390
X-034510Y-026390
X-034910Y-028120
X-048830Y-028780
X-049570Y-026530
X-048830Y-024150
X-048830Y-020280
X-049570Y-018030
X-048830Y-015650
X-047950Y-009730
X-046010Y-001360
X-045240Y001890
X-043240Y001890
X-041240Y001890
X-039240Y001890
X-037800Y-004350
X-037800Y-005600
X-037800Y-006850
X-031300Y-006600
X-031300Y-005350
X-031300Y-004100
X-025580Y-005580
X-024840Y-007830
X-024840Y-003210
X-020090Y-003210
X-020090Y-007960
X-013610Y-005490
X-012870Y-007740
X-012870Y-003110
X-008120Y-003110
X-003750Y-004620
X-002750Y-004620
X-001750Y-004620
X-001990Y-002950
X002990Y001140
X-008120Y-007860
X007050Y-012850
X008550Y-012730
X010300Y-012730
X012050Y-012730
X014300Y-012850
X014300Y-025180
X013300Y-026180
X014300Y-027180
X012300Y-027180
X012300Y-025180
X005800Y-023980
X023840Y-040850
X030820Y-040110
X031820Y-039110
X030820Y-038110
X032820Y-038110
X032820Y-040110
X032330Y-035610
X032800Y-027180
X031800Y-026180
X030800Y-025180
X032800Y-025180
X030800Y-027180
X030490Y-012860
X030490Y-045800
X030860Y-050090
X030860Y-052090
X032860Y-052090
X032860Y-050090
X030800Y-060280
X033470Y-064360
X033470Y-065360
X033470Y-066360
X033720Y-069860
X033720Y-070860
X033720Y-072110
X033720Y-073110
X033720Y-075360
X033720Y-076360
X033220Y-077610
X033220Y-078610
X033720Y-085110
X033720Y-086110
X033720Y-088360
X033720Y-089360
X033720Y-090360
X033720Y-091230
X034630Y-092610
X034600Y-094980
X027220Y-089860
X018220Y-091360
X017880Y-093220
X024630Y-111110
X003540Y-076850
X002290Y-075850
X003540Y-072850
X-016330Y-047900
X-023620Y-050860
X-039120Y-056110
X-042020Y-054490
X-044400Y-053740
X-046650Y-054490
X-048700Y-053000
X-046770Y-059240
X-048550Y-061790
X-046480Y-063260
X-041730Y-063260
X-039620Y-063400
X-042020Y-059240
X-041850Y-068010
X-044100Y-068750
X-046480Y-068010
X-048830Y-045780
X-049570Y-043530
X-048830Y-041150
X-048830Y-037280
X-049570Y-035030
X-048830Y-032650
X-051370Y-030470
X-051240Y001890
X-049240Y001890
T07
X-029620Y-082250
X-028620Y-082250
X-027620Y-082250
X-027620Y-079720
X-028630Y-079720
X-029620Y-079720
X-032040Y-077120
X-033530Y-077120
X-033090Y-074590
X-031590Y-074590
T08
X-049290Y-083760
X-047040Y-083760
X-044290Y-084510
X-043290Y-083760
X-044290Y-076010
X-043290Y-075260
X-042540Y-075260
X-047040Y-075260
X-049290Y-075260
X-050040Y-075260
X-013160Y-092100
X-013160Y-094100
X-009430Y-094740
X-009430Y-092990
X-009430Y-090990
X-005430Y-091240
X-005430Y-089740
X-003180Y-089990
X-003180Y-089240
X-002680Y-087240
X-002680Y-086240
X-000930Y-086240
X-000930Y-087240
X000220Y-094480
X-003180Y-095240
X-003180Y-095990
X-003180Y-096990
X-005430Y-096490
X-005430Y-094740
X009070Y-087240
X010070Y-087240
X010070Y-085490
X009070Y-085490
X009070Y-081740
X010070Y-081740
X010070Y-080240
X009070Y-080240
X031820Y-051120
X031820Y-018180
X013440Y-018180
T09
X003220Y-035480
X004010Y-035480
X005590Y-035480
X006370Y-035480
X024680Y-035680
X025470Y-035680
X027040Y-035680
X027830Y-035680
T10
X011450Y-035880
X019450Y-041380
T11
X-051510Y-078620
X-051460Y-076770
X-051590Y-068520
X-051510Y-066620
X-015050Y-022890
X-015050Y-019890
X-012050Y-019890
X-012050Y-022890
X004720Y-052740
X007720Y-052740
X007720Y-055740
X004720Y-055740
X-050730Y-005790
X-050730Y-002670
X-048480Y-002790
T12
X-033590Y-080970
X-023520Y-080970
T13
X-051610Y-108680
X-042860Y-086490
X-024610Y-109180
X-005360Y-086620
X011600Y-062210
X011570Y-062120
X011600Y-048090
X006470Y-038900
X003970Y-031650
X011600Y-029280
X018970Y-038900
X033620Y-048030
X033640Y-048120
X033620Y-062150
X029640Y-094680
X032640Y-102680
X001080Y-047650
X-005360Y-051120
X-017670Y-035900
X-017280Y-031650
X-017780Y-013150
X-031090Y-010550
X-028610Y-000310
X-046090Y-012450
X-046520Y-049140
X-042860Y-051120
X004350Y-013020
X011600Y-015150
X033640Y-015180
X033620Y-029210
X034640Y-000180
T14
X-011480Y-093120
X-001480Y-092990
T15
X-012620Y-102740
X005380Y-102740
X016820Y-041380
X014070Y-035880
M30
