%FSLAX34Y34*%
%MOMM*%
%LNSOLDERMASK_TOP*%
G71*
G01*
%ADD10C,2.600*%
%ADD11C,2.400*%
%ADD12C,2.800*%
%ADD13C,2.600*%
%ADD14C,5.100*%
%ADD15C,1.600*%
%ADD16C,3.100*%
%ADD17C,7.600*%
%ADD18C,3.200*%
%ADD19C,2.900*%
%ADD20C,2.600*%
%ADD21C,2.600*%
%ADD22C,2.400*%
%ADD23C,2.500*%
%ADD24C,2.600*%
%ADD25C,3.600*%
%ADD26C,2.800*%
%ADD27C,3.000*%
%ADD28C,1.800*%
%ADD29C,1.600*%
%ADD30C,2.000*%
%ADD31C,2.500*%
%ADD32C,2.700*%
%ADD33C,2.700*%
%ADD34C,2.800*%
%ADD35C,4.200*%
%ADD36C,2.700*%
%ADD37C,2.800*%
%ADD38C,2.100*%
%ADD39C,6.600*%
%ADD40C,4.200*%
%ADD41C,4.600*%
%ADD42C,2.500*%
%ADD43C,2.250*%
%LPD*%
X-558855Y-541229D02*
G54D10*
D03*
X-558805Y-464979D02*
G54D10*
D03*
X-639849Y-544629D02*
G54D10*
D03*
X-639736Y-595610D02*
G54D10*
D03*
X-525549Y-570029D02*
G54D10*
D03*
X-525437Y-621010D02*
G54D10*
D03*
X-558839Y-769829D02*
G54D10*
D03*
X-558789Y-693579D02*
G54D10*
D03*
X-438118Y-513215D02*
G54D10*
D03*
X-514368Y-513165D02*
G54D10*
D03*
X-513159Y-693579D02*
G54D10*
D03*
X-513209Y-769829D02*
G54D10*
D03*
X-381056Y-541230D02*
G54D10*
D03*
X-381006Y-464980D02*
G54D10*
D03*
X-483724Y-665745D02*
G54D10*
D03*
X-386159Y-668179D02*
G54D10*
D03*
X-386209Y-744429D02*
G54D10*
D03*
X-309960Y-668179D02*
G54D10*
D03*
X-310010Y-744429D02*
G54D10*
D03*
X-259160Y-668179D02*
G54D10*
D03*
X-259210Y-744429D02*
G54D10*
D03*
X-159688Y-602134D02*
G54D10*
D03*
X-210668Y-602247D02*
G54D10*
D03*
X-231142Y-471411D02*
G54D10*
D03*
X-307392Y-471361D02*
G54D10*
D03*
X-446484Y-588804D02*
G54D11*
D03*
X-462384Y-606379D02*
G54D11*
D03*
X-446450Y-623995D02*
G54D11*
D03*
X-344884Y-588804D02*
G54D11*
D03*
X-360784Y-606379D02*
G54D11*
D03*
X-344850Y-623995D02*
G54D11*
D03*
X-268684Y-588804D02*
G54D11*
D03*
X-284584Y-606379D02*
G54D11*
D03*
X-268650Y-623995D02*
G54D11*
D03*
X-665584Y-664904D02*
G54D12*
D03*
X-614784Y-664904D02*
G54D12*
D03*
X-640184Y-690304D02*
G54D12*
D03*
X-614784Y-715704D02*
G54D12*
D03*
X-665584Y-715704D02*
G54D12*
D03*
X-195684Y-664904D02*
G54D12*
D03*
X-144884Y-664904D02*
G54D12*
D03*
X-170284Y-690304D02*
G54D12*
D03*
X-144884Y-715704D02*
G54D12*
D03*
X-195684Y-715704D02*
G54D12*
D03*
X-494158Y-440595D02*
G54D10*
D03*
X-443178Y-440482D02*
G54D10*
D03*
X-558839Y-769829D02*
G54D13*
D03*
X-683260Y-410210D02*
G54D14*
D03*
X-432924Y-665745D02*
G54D10*
D03*
X-430609Y-693579D02*
G54D10*
D03*
X-430659Y-769829D02*
G54D10*
D03*
X-601609Y-408429D02*
G54D10*
D03*
X-690384Y-614204D02*
G54D15*
D03*
X-513209Y-769829D02*
G54D13*
D03*
X-430659Y-769829D02*
G54D13*
D03*
X-386209Y-744429D02*
G54D13*
D03*
X-310010Y-744429D02*
G54D13*
D03*
X-123428Y-411004D02*
G54D14*
D03*
X-683260Y-768986D02*
G54D14*
D03*
X-124064Y-767398D02*
G54D14*
D03*
X-633234Y-487204D02*
G54D15*
D03*
X-636410Y-487204D02*
G54D16*
D03*
X-169685Y-487204D02*
G54D16*
D03*
X-550634Y-1076445D02*
G54D17*
D03*
X-620484Y-936744D02*
G54D17*
D03*
X-687159Y-936745D02*
G54D18*
D03*
X-483959Y-1076445D02*
G54D18*
D03*
X-896034Y-926645D02*
G54D19*
D03*
X-816034Y-926645D02*
G54D20*
D03*
X-351034Y-931645D02*
G54D20*
D03*
X-271034Y-931645D02*
G54D20*
D03*
X-816034Y-926645D02*
G54D19*
D03*
X-351034Y-931645D02*
G54D19*
D03*
X-271034Y-931645D02*
G54D12*
D03*
X-876034Y-926645D02*
G54D19*
D03*
X-836034Y-926645D02*
G54D19*
D03*
X-331034Y-931644D02*
G54D19*
D03*
X-291034Y-931645D02*
G54D19*
D03*
X-1020459Y-1044245D02*
G54D12*
D03*
X-1020459Y-993445D02*
G54D12*
D03*
X-995059Y-1018845D02*
G54D12*
D03*
X-969659Y-993444D02*
G54D12*
D03*
X-969659Y-1044245D02*
G54D12*
D03*
X-1020459Y-1044245D02*
G54D21*
D03*
X-969659Y-1044245D02*
G54D13*
D03*
X-194959Y-1044245D02*
G54D12*
D03*
X-194959Y-993445D02*
G54D12*
D03*
X-169559Y-1018845D02*
G54D12*
D03*
X-144159Y-993445D02*
G54D12*
D03*
X-144159Y-1044245D02*
G54D12*
D03*
X-194959Y-1044245D02*
G54D21*
D03*
X-144159Y-1044245D02*
G54D13*
D03*
X-321502Y-1132882D02*
G54D10*
D03*
X-321502Y-1063032D02*
G54D10*
D03*
X-251652Y-1132882D02*
G54D10*
D03*
X-251652Y-1063032D02*
G54D10*
D03*
X-283402Y-1063032D02*
G54D10*
D03*
X-283402Y-1132882D02*
G54D10*
D03*
X-251651Y-1132882D02*
G54D13*
D03*
X-251651Y-1063032D02*
G54D13*
D03*
X-912052Y-1132882D02*
G54D10*
D03*
X-912052Y-1063032D02*
G54D10*
D03*
X-842202Y-1132882D02*
G54D10*
D03*
X-842202Y-1063032D02*
G54D10*
D03*
X-873952Y-1063032D02*
G54D10*
D03*
X-873952Y-1132882D02*
G54D10*
D03*
X-842201Y-1132882D02*
G54D13*
D03*
X-842201Y-1063032D02*
G54D13*
D03*
X-271034Y-931645D02*
G54D19*
D03*
X-797751Y-1063032D02*
G54D21*
D03*
X-372301Y-1063032D02*
G54D21*
D03*
X-156759Y-929920D02*
G54D21*
D03*
X-1001309Y-1107720D02*
G54D21*
D03*
X-1020459Y-993445D02*
G54D13*
D03*
X-969659Y-993444D02*
G54D13*
D03*
X-194959Y-993445D02*
G54D13*
D03*
X-144159Y-993445D02*
G54D13*
D03*
X-144159Y-1044245D02*
G54D13*
D03*
X-683260Y-1246823D02*
G54D14*
D03*
X-123428Y-1247616D02*
G54D14*
D03*
X-683260Y-1605598D02*
G54D14*
D03*
X-124064Y-1604010D02*
G54D14*
D03*
X-169685Y-1323816D02*
G54D16*
D03*
X-1360284Y-606744D02*
G54D22*
D03*
X-1284084Y-606744D02*
G54D22*
D03*
X-1284084Y-530544D02*
G54D22*
D03*
X-1360284Y-530544D02*
G54D22*
D03*
X-1284172Y-395521D02*
G54D10*
D03*
X-1284172Y-484421D02*
G54D10*
D03*
X-1322272Y-484421D02*
G54D10*
D03*
X-1354022Y-484421D02*
G54D10*
D03*
X-1293816Y-747311D02*
G54D10*
D03*
X-1357315Y-652061D02*
G54D10*
D03*
X-1325566Y-652061D02*
G54D10*
D03*
X-1293816Y-652061D02*
G54D10*
D03*
X-1265333Y-639772D02*
G54D10*
D03*
X-1357316Y-398061D02*
G54D10*
D03*
X-1239722Y-382821D02*
G54D10*
D03*
X-1077294Y-530510D02*
G54D10*
D03*
X-1020144Y-530510D02*
G54D10*
D03*
X-991444Y-454310D02*
G54D10*
D03*
X-991444Y-397160D02*
G54D10*
D03*
X-1052494Y-596134D02*
G54D10*
D03*
X-1106446Y-650016D02*
G54D10*
D03*
X-1052494Y-596134D02*
G54D13*
D03*
X-924718Y-592082D02*
G54D10*
D03*
X-1000968Y-592032D02*
G54D10*
D03*
X-924718Y-592082D02*
G54D13*
D03*
X-1045544Y-670210D02*
G54D10*
D03*
X-994744Y-670210D02*
G54D10*
D03*
X-994744Y-670210D02*
G54D10*
D03*
X-966137Y-766316D02*
G54D10*
D03*
X-966249Y-715336D02*
G54D10*
D03*
X-966137Y-766316D02*
G54D10*
D03*
X-991444Y-492410D02*
G54D10*
D03*
X-959694Y-670210D02*
G54D10*
D03*
X-1110314Y-530510D02*
G54D10*
D03*
X-1099394Y-467010D02*
G54D10*
D03*
X-1223090Y-468506D02*
G54D12*
D03*
X-1146890Y-468506D02*
G54D12*
D03*
X-1223090Y-544706D02*
G54D12*
D03*
X-1223090Y-595506D02*
G54D12*
D03*
X-1223090Y-646306D02*
G54D12*
D03*
X-1146890Y-544706D02*
G54D12*
D03*
X-1146890Y-595506D02*
G54D12*
D03*
X-1146890Y-646306D02*
G54D12*
D03*
X-1235591Y-816868D02*
G54D23*
D03*
X-1235591Y-715268D02*
G54D23*
D03*
X-1235591Y-816868D02*
G54D13*
D03*
X-1146890Y-468506D02*
G54D10*
D03*
X-1000639Y-751309D02*
G54D10*
D03*
X-1056859Y-749064D02*
G54D10*
D03*
X-1056859Y-749064D02*
G54D10*
D03*
X-1107659Y-749064D02*
G54D10*
D03*
G54D24*
X-1137475Y-796786D02*
X-1151617Y-782644D01*
G54D24*
X-1191450Y-796786D02*
X-1205592Y-782644D01*
X-1411684Y-511810D02*
G54D21*
D03*
X-1411684Y-537210D02*
G54D21*
D03*
X-1138634Y-397510D02*
G54D21*
D03*
X-1360284Y-530544D02*
G54D25*
D03*
X-1360284Y-606744D02*
G54D25*
D03*
X-1284084Y-606744D02*
G54D25*
D03*
X-1284084Y-530544D02*
G54D25*
D03*
X-781806Y-1364946D02*
G54D22*
D03*
X-858006Y-1364946D02*
G54D22*
D03*
X-858006Y-1441146D02*
G54D22*
D03*
X-781806Y-1441146D02*
G54D22*
D03*
X-857918Y-1576169D02*
G54D10*
D03*
X-857918Y-1487269D02*
G54D10*
D03*
X-819818Y-1487269D02*
G54D10*
D03*
X-788068Y-1487269D02*
G54D10*
D03*
X-784774Y-1256129D02*
G54D10*
D03*
X-848274Y-1256129D02*
G54D10*
D03*
X-784775Y-1319629D02*
G54D10*
D03*
X-816524Y-1319629D02*
G54D10*
D03*
X-848274Y-1319629D02*
G54D10*
D03*
X-876757Y-1331918D02*
G54D10*
D03*
X-784774Y-1573629D02*
G54D10*
D03*
X-736756Y-1532905D02*
G54D21*
D03*
X-736756Y-1507505D02*
G54D21*
D03*
X-736756Y-1266205D02*
G54D21*
D03*
X-781806Y-1441146D02*
G54D25*
D03*
X-781806Y-1364946D02*
G54D25*
D03*
X-858006Y-1364946D02*
G54D25*
D03*
X-858006Y-1441146D02*
G54D25*
D03*
X-1061014Y-1494527D02*
G54D12*
D03*
X-1057840Y-1373877D02*
G54D12*
D03*
X-940364Y-1494527D02*
G54D12*
D03*
X-940364Y-1373877D02*
G54D12*
D03*
X-1000689Y-1354414D02*
G54D12*
D03*
X-1057840Y-1373877D02*
G54D26*
D03*
X-1031993Y-1310296D02*
G54D12*
D03*
X-930393Y-1310296D02*
G54D12*
D03*
X-843093Y-1634436D02*
G54D12*
D03*
X-843093Y-1659836D02*
G54D12*
D03*
X-804993Y-1659836D02*
G54D12*
D03*
X-804993Y-1697936D02*
G54D12*
D03*
X-890498Y-1642442D02*
G54D10*
D03*
X-890385Y-1693422D02*
G54D10*
D03*
X-890498Y-1642442D02*
G54D10*
D03*
X-890386Y-1693423D02*
G54D10*
D03*
X-928598Y-1642442D02*
G54D10*
D03*
X-928486Y-1693422D02*
G54D10*
D03*
X-928598Y-1642442D02*
G54D10*
D03*
X-928486Y-1693423D02*
G54D10*
D03*
X-804993Y-1634436D02*
G54D12*
D03*
X-994026Y-1274486D02*
G54D10*
D03*
X-1031993Y-1310296D02*
G54D12*
D03*
X-1224035Y-975997D02*
G54D27*
D03*
X-1224035Y-1026797D02*
G54D27*
D03*
X-1268485Y-1001396D02*
G54D27*
D03*
X-1268485Y-1045847D02*
G54D27*
D03*
X-1268485Y-956947D02*
G54D27*
D03*
X-1255785Y-899797D02*
G54D10*
D03*
X-1281185Y-899797D02*
G54D10*
D03*
X-1316870Y-1074422D02*
G54D10*
D03*
X-1393120Y-1074372D02*
G54D10*
D03*
X-1395812Y-1108682D02*
G54D10*
D03*
X-1319562Y-1108732D02*
G54D10*
D03*
X-1379878Y-1140158D02*
G54D10*
D03*
X-1328898Y-1140046D02*
G54D10*
D03*
X-1351035Y-906059D02*
G54D10*
D03*
X-1351035Y-953859D02*
G54D10*
D03*
X-1347425Y-1207684D02*
G54D10*
D03*
X-1347475Y-1283934D02*
G54D10*
D03*
X-1287535Y-1258746D02*
G54D10*
D03*
X-1287535Y-1210947D02*
G54D10*
D03*
X-1374979Y-1018903D02*
G54D10*
D03*
X-1339879Y-1018902D02*
G54D10*
D03*
X-1249435Y-1144447D02*
G54D10*
D03*
X-1249435Y-1096646D02*
G54D10*
D03*
X-1395757Y-1176329D02*
G54D10*
D03*
X-1319507Y-1176379D02*
G54D10*
D03*
X-1148560Y-1052752D02*
G54D10*
D03*
X-1395812Y-1108682D02*
G54D10*
D03*
X-1395757Y-1176328D02*
G54D10*
D03*
X-1287535Y-1258746D02*
G54D10*
D03*
X-1347475Y-1283934D02*
G54D10*
D03*
G36*
X-1373085Y-961727D02*
X-1373085Y-987727D01*
X-1399085Y-987727D01*
X-1399085Y-961727D01*
X-1373085Y-961727D01*
G37*
X-1173235Y-1214208D02*
G54D28*
D03*
X-1173235Y-1239608D02*
G54D29*
D03*
X-1224035Y-1214209D02*
G54D29*
D03*
X-1224035Y-1239609D02*
G54D28*
D03*
X-1173235Y-1315809D02*
G54D29*
D03*
X-1224035Y-1315809D02*
G54D29*
D03*
X-1171203Y-1183443D02*
G54D12*
D03*
X-1169039Y-1413417D02*
G54D21*
D03*
X-1224035Y-1214209D02*
G54D28*
D03*
X-1173235Y-1315809D02*
G54D28*
D03*
X-1224035Y-1315809D02*
G54D28*
D03*
G36*
X-545122Y-1924547D02*
X-545122Y-1904547D01*
X-525122Y-1904547D01*
X-525122Y-1924547D01*
X-545122Y-1924547D01*
G37*
X-535122Y-1889147D02*
G54D30*
D03*
X-535122Y-1863747D02*
G54D30*
D03*
X-535122Y-1838347D02*
G54D30*
D03*
X-611322Y-1838347D02*
G54D30*
D03*
X-611322Y-1863747D02*
G54D30*
D03*
X-611321Y-1889147D02*
G54D30*
D03*
X-611322Y-1914547D02*
G54D30*
D03*
X-611322Y-1863747D02*
G54D31*
D03*
X-239372Y-1879186D02*
G54D10*
D03*
X-239372Y-1853686D02*
G54D10*
D03*
X-809361Y-1982522D02*
G54D10*
D03*
X-784466Y-1898937D02*
G54D10*
D03*
X-784416Y-1822687D02*
G54D10*
D03*
X-919658Y-1977529D02*
G54D10*
D03*
X-919658Y-1952029D02*
G54D10*
D03*
X-377401Y-1915245D02*
G54D10*
D03*
X-377452Y-1991496D02*
G54D10*
D03*
X-377401Y-1915245D02*
G54D10*
D03*
X-315517Y-1933178D02*
G54D10*
D03*
X-315517Y-1980978D02*
G54D10*
D03*
X-415502Y-1915245D02*
G54D10*
D03*
X-415552Y-1991496D02*
G54D10*
D03*
X-415501Y-1915245D02*
G54D10*
D03*
X-395846Y-1861472D02*
G54D11*
D03*
X-379946Y-1843897D02*
G54D11*
D03*
X-395881Y-1826281D02*
G54D11*
D03*
X-322473Y-1826678D02*
G54D10*
D03*
X-322361Y-1877659D02*
G54D10*
D03*
X-322473Y-1826679D02*
G54D10*
D03*
X-327403Y-1786551D02*
G54D10*
D03*
X-403653Y-1786501D02*
G54D10*
D03*
X-327403Y-1786551D02*
G54D10*
D03*
X-340436Y-1752579D02*
G54D10*
D03*
X-391416Y-1752691D02*
G54D10*
D03*
X-340436Y-1752578D02*
G54D10*
D03*
X-462173Y-1928278D02*
G54D10*
D03*
X-462061Y-1979259D02*
G54D10*
D03*
X-462173Y-1928279D02*
G54D10*
D03*
X-315517Y-1933178D02*
G54D10*
D03*
X-327403Y-1786551D02*
G54D10*
D03*
X-340436Y-1752579D02*
G54D10*
D03*
X-282151Y-1756495D02*
G54D10*
D03*
X-282201Y-1832746D02*
G54D10*
D03*
X-282150Y-1756495D02*
G54D10*
D03*
X-282151Y-1756495D02*
G54D10*
D03*
X-462173Y-1928278D02*
G54D10*
D03*
X-498211Y-1868222D02*
G54D10*
D03*
X-450411Y-1868222D02*
G54D10*
D03*
X-483967Y-1765823D02*
G54D10*
D03*
X-430085Y-1819776D02*
G54D10*
D03*
X-483966Y-1765822D02*
G54D10*
D03*
X-483966Y-1765823D02*
G54D10*
D03*
X-524028Y-1794722D02*
G54D10*
D03*
X-600278Y-1794672D02*
G54D10*
D03*
X-576525Y-1750796D02*
G54D10*
D03*
X-525544Y-1750684D02*
G54D10*
D03*
X-576524Y-1750796D02*
G54D10*
D03*
X-524028Y-1794722D02*
G54D10*
D03*
X-525544Y-1750684D02*
G54D10*
D03*
X-707761Y-1982522D02*
G54D10*
D03*
X-659961Y-1982522D02*
G54D10*
D03*
X-809361Y-1982522D02*
G54D10*
D03*
X-761561Y-1982522D02*
G54D10*
D03*
X-606161Y-1982522D02*
G54D10*
D03*
X-558361Y-1982522D02*
G54D10*
D03*
X-606161Y-1982522D02*
G54D10*
D03*
X-501226Y-1921595D02*
G54D10*
D03*
X-501276Y-1997846D02*
G54D10*
D03*
X-501226Y-1921595D02*
G54D10*
D03*
X-663728Y-1909022D02*
G54D10*
D03*
X-739978Y-1908972D02*
G54D10*
D03*
X-663728Y-1909022D02*
G54D10*
D03*
X-741307Y-1865148D02*
G54D10*
D03*
X-741419Y-1814168D02*
G54D10*
D03*
X-741307Y-1865148D02*
G54D10*
D03*
X-741419Y-1814167D02*
G54D10*
D03*
X-701046Y-1796272D02*
G54D10*
D03*
X-795062Y-1758854D02*
G54D10*
D03*
X-747262Y-1758854D02*
G54D10*
D03*
X-784466Y-1898937D02*
G54D10*
D03*
X-808584Y-1929734D02*
G54D10*
D03*
X-862536Y-1983616D02*
G54D10*
D03*
X-808584Y-1929735D02*
G54D10*
D03*
X-237760Y-1750241D02*
G54D10*
D03*
X-795062Y-1758854D02*
G54D12*
D03*
X-887936Y-1875666D02*
G54D12*
D03*
X-887937Y-1977266D02*
G54D12*
D03*
X-887936Y-1875666D02*
G54D12*
D03*
X-919658Y-1952029D02*
G54D12*
D03*
X-237760Y-1750241D02*
G54D10*
D03*
X-237810Y-1826491D02*
G54D10*
D03*
X-237760Y-1750241D02*
G54D10*
D03*
X-237760Y-1750241D02*
G54D10*
D03*
X-282151Y-1756495D02*
G54D10*
D03*
X-340436Y-1752579D02*
G54D10*
D03*
X-327403Y-1786551D02*
G54D10*
D03*
X-483967Y-1765823D02*
G54D10*
D03*
X-524028Y-1794722D02*
G54D10*
D03*
X-525544Y-1750684D02*
G54D10*
D03*
X-315517Y-1933178D02*
G54D10*
D03*
X-701046Y-1796272D02*
G54D10*
D03*
X-606161Y-1982522D02*
G54D10*
D03*
X-809361Y-1982522D02*
G54D10*
D03*
X-808584Y-1929735D02*
G54D10*
D03*
X-784466Y-1898937D02*
G54D10*
D03*
X-887936Y-1875666D02*
G54D10*
D03*
X-163122Y-1879236D02*
G54D10*
D03*
X-239372Y-1879186D02*
G54D10*
D03*
X-163122Y-1853736D02*
G54D10*
D03*
X-239372Y-1853686D02*
G54D10*
D03*
X-1959026Y-1162896D02*
G54D10*
D03*
X-2028876Y-1162896D02*
G54D10*
D03*
X-1959026Y-1093046D02*
G54D10*
D03*
X-2028876Y-1093046D02*
G54D10*
D03*
X-2028876Y-1124796D02*
G54D10*
D03*
X-1959026Y-1124796D02*
G54D10*
D03*
X-1915618Y-1171667D02*
G54D32*
D03*
X-1864636Y-1171555D02*
G54D32*
D03*
X-1736776Y-1162896D02*
G54D10*
D03*
X-1806626Y-1162896D02*
G54D10*
D03*
X-1736776Y-1093046D02*
G54D10*
D03*
X-1806626Y-1093046D02*
G54D10*
D03*
X-1806626Y-1124796D02*
G54D10*
D03*
X-1736776Y-1124796D02*
G54D10*
D03*
X-1854553Y-1127569D02*
G54D10*
D03*
X-1854666Y-1076589D02*
G54D10*
D03*
X-1918053Y-1127569D02*
G54D10*
D03*
X-1918166Y-1076589D02*
G54D10*
D03*
X-1736776Y-1093046D02*
G54D13*
D03*
X-1806626Y-1093046D02*
G54D13*
D03*
X-1854666Y-1076588D02*
G54D33*
D03*
X-1918166Y-1076588D02*
G54D13*
D03*
X-1959026Y-1093046D02*
G54D13*
D03*
X-2028876Y-1093046D02*
G54D13*
D03*
X-1918053Y-1127569D02*
G54D32*
D03*
X-1918166Y-1076589D02*
G54D32*
D03*
X-1854666Y-1076589D02*
G54D32*
D03*
X-1854553Y-1127569D02*
G54D32*
D03*
X-1682563Y-1058604D02*
G54D12*
D03*
X-1561913Y-1061778D02*
G54D12*
D03*
X-1682563Y-1179254D02*
G54D12*
D03*
X-1561913Y-1179254D02*
G54D12*
D03*
X-1543100Y-1118929D02*
G54D12*
D03*
X-1669056Y-1225534D02*
G54D23*
D03*
X-1567456Y-1225533D02*
G54D23*
D03*
X-1561913Y-1061778D02*
G54D12*
D03*
X-2097558Y-1191342D02*
G54D12*
D03*
X-2218208Y-1188168D02*
G54D12*
D03*
X-2097558Y-1070692D02*
G54D12*
D03*
X-2218208Y-1070692D02*
G54D12*
D03*
X-2237020Y-1131017D02*
G54D12*
D03*
X-2218207Y-1188168D02*
G54D12*
D03*
X-2218208Y-1070692D02*
G54D12*
D03*
X-2215156Y-1225534D02*
G54D23*
D03*
X-2113556Y-1225533D02*
G54D23*
D03*
X-1669056Y-1225534D02*
G54D10*
D03*
X-2215156Y-1225534D02*
G54D10*
D03*
X-1959026Y-946996D02*
G54D10*
D03*
X-2028876Y-946996D02*
G54D10*
D03*
X-1959026Y-877146D02*
G54D10*
D03*
X-2028876Y-877146D02*
G54D10*
D03*
X-2028876Y-908896D02*
G54D10*
D03*
X-1959026Y-908896D02*
G54D10*
D03*
X-1915618Y-955767D02*
G54D32*
D03*
X-1864636Y-955655D02*
G54D32*
D03*
X-1736776Y-946996D02*
G54D10*
D03*
X-1806626Y-946996D02*
G54D10*
D03*
X-1736776Y-877146D02*
G54D10*
D03*
X-1806626Y-877146D02*
G54D10*
D03*
X-1806626Y-908896D02*
G54D10*
D03*
X-1736776Y-908896D02*
G54D10*
D03*
X-1854553Y-911669D02*
G54D10*
D03*
X-1854666Y-860688D02*
G54D10*
D03*
X-1918053Y-911669D02*
G54D10*
D03*
X-1918166Y-860689D02*
G54D10*
D03*
X-1736776Y-877146D02*
G54D13*
D03*
X-1806626Y-877146D02*
G54D13*
D03*
X-1854666Y-860688D02*
G54D33*
D03*
X-1918166Y-860688D02*
G54D13*
D03*
X-1959026Y-877146D02*
G54D13*
D03*
X-2028876Y-877146D02*
G54D13*
D03*
X-1918053Y-911669D02*
G54D32*
D03*
X-1918166Y-860689D02*
G54D32*
D03*
X-1854666Y-860688D02*
G54D32*
D03*
X-1854553Y-911669D02*
G54D32*
D03*
X-1682563Y-842704D02*
G54D12*
D03*
X-1561913Y-845878D02*
G54D12*
D03*
X-1682563Y-963354D02*
G54D12*
D03*
X-1561913Y-963354D02*
G54D12*
D03*
X-1543100Y-903029D02*
G54D12*
D03*
X-1669056Y-1009634D02*
G54D23*
D03*
X-1567456Y-1009633D02*
G54D23*
D03*
X-1561913Y-845878D02*
G54D12*
D03*
X-2097558Y-975442D02*
G54D12*
D03*
X-2218208Y-972268D02*
G54D12*
D03*
X-2097558Y-854792D02*
G54D12*
D03*
X-2218208Y-854792D02*
G54D12*
D03*
X-2237020Y-915117D02*
G54D12*
D03*
X-2218207Y-972269D02*
G54D12*
D03*
X-2218208Y-854792D02*
G54D12*
D03*
X-2215156Y-1009634D02*
G54D23*
D03*
X-2113556Y-1009633D02*
G54D23*
D03*
X-1669056Y-1009634D02*
G54D10*
D03*
X-2215156Y-1009634D02*
G54D10*
D03*
X-1959026Y-731096D02*
G54D10*
D03*
X-2028876Y-731096D02*
G54D10*
D03*
X-1959026Y-661246D02*
G54D10*
D03*
X-2028876Y-661246D02*
G54D10*
D03*
X-2028876Y-692996D02*
G54D10*
D03*
X-1959026Y-692996D02*
G54D10*
D03*
X-1915618Y-739867D02*
G54D32*
D03*
X-1864636Y-739755D02*
G54D32*
D03*
X-1736776Y-731096D02*
G54D10*
D03*
X-1806626Y-731096D02*
G54D10*
D03*
X-1736776Y-661246D02*
G54D10*
D03*
X-1806626Y-661246D02*
G54D10*
D03*
X-1806626Y-692996D02*
G54D10*
D03*
X-1736776Y-692996D02*
G54D10*
D03*
X-1854553Y-695769D02*
G54D10*
D03*
X-1854666Y-644788D02*
G54D10*
D03*
X-1918053Y-695769D02*
G54D10*
D03*
X-1918166Y-644788D02*
G54D10*
D03*
X-1736776Y-661246D02*
G54D13*
D03*
X-1806626Y-661246D02*
G54D13*
D03*
X-1854666Y-644788D02*
G54D33*
D03*
X-1918166Y-644788D02*
G54D13*
D03*
X-1959026Y-661246D02*
G54D13*
D03*
X-2028876Y-661246D02*
G54D13*
D03*
X-1918053Y-695769D02*
G54D32*
D03*
X-1918166Y-644788D02*
G54D32*
D03*
X-1854666Y-644788D02*
G54D32*
D03*
X-1854553Y-695769D02*
G54D32*
D03*
X-1682563Y-626804D02*
G54D12*
D03*
X-1561913Y-629978D02*
G54D12*
D03*
X-1682563Y-747454D02*
G54D12*
D03*
X-1561913Y-747454D02*
G54D12*
D03*
X-1543100Y-687129D02*
G54D12*
D03*
X-1669056Y-793734D02*
G54D23*
D03*
X-1567456Y-793734D02*
G54D23*
D03*
X-1561913Y-629978D02*
G54D12*
D03*
X-2097558Y-759542D02*
G54D12*
D03*
X-2218208Y-756368D02*
G54D12*
D03*
X-2097558Y-638892D02*
G54D12*
D03*
X-2218208Y-638892D02*
G54D12*
D03*
X-2237020Y-699217D02*
G54D12*
D03*
X-2218207Y-756368D02*
G54D12*
D03*
X-2218208Y-638892D02*
G54D12*
D03*
X-2215156Y-793734D02*
G54D23*
D03*
X-2113556Y-793734D02*
G54D23*
D03*
X-1669056Y-793734D02*
G54D10*
D03*
X-2215156Y-793734D02*
G54D10*
D03*
X-1959026Y-515196D02*
G54D10*
D03*
X-2028876Y-515196D02*
G54D10*
D03*
X-1959026Y-445346D02*
G54D10*
D03*
X-2028876Y-445346D02*
G54D10*
D03*
X-2028876Y-477096D02*
G54D10*
D03*
X-1959026Y-477096D02*
G54D10*
D03*
X-1915618Y-523967D02*
G54D32*
D03*
X-1864636Y-523855D02*
G54D32*
D03*
X-1736776Y-515196D02*
G54D10*
D03*
X-1806626Y-515196D02*
G54D10*
D03*
X-1736776Y-445346D02*
G54D10*
D03*
X-1806626Y-445346D02*
G54D10*
D03*
X-1806626Y-477096D02*
G54D10*
D03*
X-1736776Y-477096D02*
G54D10*
D03*
X-1854553Y-479869D02*
G54D10*
D03*
X-1854666Y-428888D02*
G54D10*
D03*
X-1918053Y-479869D02*
G54D10*
D03*
X-1918166Y-428889D02*
G54D10*
D03*
X-1736776Y-445346D02*
G54D13*
D03*
X-1806626Y-445346D02*
G54D13*
D03*
X-1854666Y-428888D02*
G54D33*
D03*
X-1918166Y-428888D02*
G54D13*
D03*
X-1959026Y-445346D02*
G54D13*
D03*
X-2028876Y-445346D02*
G54D13*
D03*
X-1918053Y-479869D02*
G54D32*
D03*
X-1918166Y-428889D02*
G54D32*
D03*
X-1854666Y-428889D02*
G54D32*
D03*
X-1854553Y-479869D02*
G54D32*
D03*
X-1682563Y-410904D02*
G54D12*
D03*
X-1561913Y-414078D02*
G54D12*
D03*
X-1682563Y-531554D02*
G54D12*
D03*
X-1561913Y-531554D02*
G54D12*
D03*
X-1543100Y-471229D02*
G54D12*
D03*
X-1669056Y-577834D02*
G54D23*
D03*
X-1567456Y-577834D02*
G54D23*
D03*
X-1561913Y-414078D02*
G54D12*
D03*
X-2097558Y-543642D02*
G54D12*
D03*
X-2218208Y-540468D02*
G54D12*
D03*
X-2097558Y-422992D02*
G54D12*
D03*
X-2218208Y-422992D02*
G54D12*
D03*
X-2237020Y-483317D02*
G54D12*
D03*
X-2218207Y-540468D02*
G54D12*
D03*
X-2218208Y-422992D02*
G54D12*
D03*
X-2215156Y-577834D02*
G54D23*
D03*
X-2113556Y-577834D02*
G54D23*
D03*
X-1669056Y-577834D02*
G54D10*
D03*
X-2215156Y-577834D02*
G54D10*
D03*
X-1733902Y-1254569D02*
G54D32*
D03*
X-1733902Y-1254569D02*
G54D32*
D03*
X-1829152Y-1254569D02*
G54D32*
D03*
X-1829152Y-1254569D02*
G54D32*
D03*
X-1937102Y-1254569D02*
G54D32*
D03*
X-1937102Y-1254569D02*
G54D32*
D03*
X-2026002Y-1254569D02*
G54D32*
D03*
X-2026002Y-1254569D02*
G54D32*
D03*
X-1733902Y-352869D02*
G54D32*
D03*
X-1733902Y-352869D02*
G54D32*
D03*
X-1829152Y-352869D02*
G54D32*
D03*
X-1829152Y-352869D02*
G54D32*
D03*
X-1937102Y-352869D02*
G54D32*
D03*
X-1937102Y-352869D02*
G54D32*
D03*
X-2026002Y-352869D02*
G54D32*
D03*
X-2026002Y-352869D02*
G54D32*
D03*
X-2282638Y-799399D02*
G54D21*
D03*
X-1488888Y-799399D02*
G54D21*
D03*
X-876936Y-829310D02*
G54D14*
D03*
X-867410Y-356236D02*
G54D14*
D03*
X-867411Y-356235D02*
G54D14*
D03*
X-1416686Y-829310D02*
G54D14*
D03*
X-1429386Y-359410D02*
G54D14*
D03*
X-2037739Y-1632085D02*
G54D12*
D03*
X-2040913Y-1752735D02*
G54D12*
D03*
X-2158388Y-1632085D02*
G54D12*
D03*
X-2158388Y-1752735D02*
G54D12*
D03*
X-2098064Y-1771548D02*
G54D12*
D03*
X-2165938Y-1530216D02*
G54D12*
D03*
X-2162764Y-1409566D02*
G54D12*
D03*
X-2045288Y-1530216D02*
G54D12*
D03*
X-2045289Y-1409566D02*
G54D12*
D03*
X-2105614Y-1390278D02*
G54D12*
D03*
X-2211018Y-1594792D02*
G54D23*
D03*
X-2211018Y-1696392D02*
G54D23*
D03*
X-2211018Y-1594792D02*
G54D10*
D03*
X-2211018Y-1594792D02*
G54D12*
D03*
X-2214816Y-1371596D02*
G54D23*
D03*
X-2214816Y-1473197D02*
G54D23*
D03*
X-2214816Y-1371596D02*
G54D10*
D03*
X-2214816Y-1371596D02*
G54D12*
D03*
X-2040913Y-1752735D02*
G54D12*
D03*
X-2045289Y-1409566D02*
G54D12*
D03*
X-2162764Y-1409566D02*
G54D12*
D03*
X-2045289Y-1409566D02*
G54D12*
D03*
X-2066528Y-1323816D02*
G54D14*
D03*
X-1114028Y-1323816D02*
G54D14*
D03*
X-2066528Y-2222341D02*
G54D14*
D03*
X-1114028Y-2225516D02*
G54D14*
D03*
X-1029973Y-1584136D02*
G54D10*
D03*
X-982173Y-1584136D02*
G54D10*
D03*
X-1029973Y-1584135D02*
G54D10*
D03*
X-134076Y-1996576D02*
G54D21*
D03*
X-121377Y-1799726D02*
G54D21*
D03*
X-121376Y-1825126D02*
G54D21*
D03*
X-121377Y-2187076D02*
G54D21*
D03*
X-121376Y-2212476D02*
G54D21*
D03*
X-121377Y-1939426D02*
G54D21*
D03*
X-121376Y-1964826D02*
G54D21*
D03*
X-1147995Y-1626317D02*
G54D34*
D03*
X-1144820Y-1721567D02*
G54D34*
D03*
X-1144820Y-1829517D02*
G54D34*
D03*
X-1144820Y-1921592D02*
G54D34*
D03*
X-1575390Y-2082055D02*
G54D35*
D03*
X-1831090Y-2082155D02*
G54D35*
D03*
X-1730364Y-2050230D02*
G54D36*
D03*
X-1704990Y-2050355D02*
G54D36*
D03*
X-1679546Y-2050330D02*
G54D36*
D03*
X-1482284Y-1983971D02*
G54D10*
D03*
X-1482459Y-1932979D02*
G54D10*
D03*
X-1780214Y-1920105D02*
G54D37*
D03*
X-1829614Y-1984205D02*
G54D37*
D03*
X-1791614Y-1984205D02*
G54D37*
D03*
X-1818314Y-1920105D02*
G54D37*
D03*
X-1929490Y-1970955D02*
G54D10*
D03*
X-1929614Y-1920038D02*
G54D10*
D03*
X-1665964Y-1942380D02*
G54D10*
D03*
X-1589714Y-1942430D02*
G54D10*
D03*
X-1932064Y-2039080D02*
G54D10*
D03*
X-1932064Y-2013580D02*
G54D10*
D03*
X-1665964Y-1990005D02*
G54D10*
D03*
X-1589715Y-1990055D02*
G54D10*
D03*
X-1691364Y-1570905D02*
G54D10*
D03*
X-1742281Y-1571030D02*
G54D10*
D03*
X-1726290Y-1615355D02*
G54D11*
D03*
X-1708714Y-1631255D02*
G54D11*
D03*
X-1691098Y-1615320D02*
G54D11*
D03*
X-1719940Y-1469305D02*
G54D10*
D03*
X-1694514Y-1469255D02*
G54D10*
D03*
X-1665964Y-1615355D02*
G54D10*
D03*
X-1589790Y-1615355D02*
G54D10*
D03*
X-1843764Y-1555030D02*
G54D10*
D03*
X-1767514Y-1555080D02*
G54D10*
D03*
X-1685014Y-1666155D02*
G54D10*
D03*
X-1735931Y-1666280D02*
G54D10*
D03*
X-1691364Y-1729655D02*
G54D11*
D03*
X-1708964Y-1713755D02*
G54D11*
D03*
X-1726556Y-1729690D02*
G54D11*
D03*
X-1690990Y-1790055D02*
G54D11*
D03*
X-1708964Y-1774080D02*
G54D11*
D03*
X-1726556Y-1790015D02*
G54D11*
D03*
X-1665964Y-1729655D02*
G54D10*
D03*
X-1589790Y-1729655D02*
G54D10*
D03*
X-1691365Y-1850355D02*
G54D11*
D03*
X-1708964Y-1834405D02*
G54D11*
D03*
X-1726556Y-1850340D02*
G54D11*
D03*
X-1843764Y-1786805D02*
G54D10*
D03*
X-1767514Y-1786855D02*
G54D10*
D03*
X-1843556Y-1830984D02*
G54D10*
D03*
X-1767306Y-1831034D02*
G54D10*
D03*
X-1665964Y-1850305D02*
G54D10*
D03*
X-1589690Y-1850355D02*
G54D10*
D03*
X-1604644Y-1895095D02*
G54D10*
D03*
X-1655560Y-1895220D02*
G54D10*
D03*
X-1665964Y-1774105D02*
G54D10*
D03*
X-1589714Y-1774155D02*
G54D10*
D03*
X-1508689Y-1868955D02*
G54D21*
D03*
X-1533673Y-1919887D02*
G54D21*
D03*
X-1558572Y-1868840D02*
G54D21*
D03*
X-1500864Y-1682030D02*
G54D11*
D03*
X-1518665Y-1666230D02*
G54D11*
D03*
X-1536055Y-1682065D02*
G54D11*
D03*
X-1856464Y-1469305D02*
G54D10*
D03*
X-1830890Y-1469355D02*
G54D10*
D03*
X-1558014Y-1580430D02*
G54D10*
D03*
X-1481764Y-1580480D02*
G54D10*
D03*
X-1558014Y-1621705D02*
G54D10*
D03*
X-1481764Y-1621755D02*
G54D10*
D03*
X-1577064Y-1672505D02*
G54D10*
D03*
X-1627981Y-1672630D02*
G54D10*
D03*
X-1558014Y-1716955D02*
G54D10*
D03*
X-1481764Y-1717005D02*
G54D10*
D03*
X-1481864Y-1843980D02*
G54D10*
D03*
X-1481977Y-1793000D02*
G54D10*
D03*
X-1481815Y-1761405D02*
G54D10*
D03*
X-1558090Y-1761355D02*
G54D10*
D03*
X-1907214Y-1602630D02*
G54D10*
D03*
X-1882352Y-1602942D02*
G54D10*
D03*
X-1878690Y-1786805D02*
G54D10*
D03*
X-1929664Y-1786955D02*
G54D10*
D03*
X-1843764Y-1742355D02*
G54D10*
D03*
X-1767514Y-1742405D02*
G54D10*
D03*
X-1780264Y-1863005D02*
G54D10*
D03*
X-1831240Y-1863155D02*
G54D10*
D03*
X-1903664Y-1866155D02*
G54D10*
D03*
X-1928964Y-1865855D02*
G54D10*
D03*
X-1878690Y-1656630D02*
G54D10*
D03*
X-1929664Y-1656730D02*
G54D10*
D03*
X-1558014Y-1469305D02*
G54D10*
D03*
X-1583490Y-1469305D02*
G54D10*
D03*
X-1843764Y-1688380D02*
G54D10*
D03*
X-1767514Y-1688430D02*
G54D10*
D03*
X-1780290Y-1653430D02*
G54D10*
D03*
X-1831190Y-1653630D02*
G54D10*
D03*
X-1815190Y-1602655D02*
G54D10*
D03*
X-1790290Y-1602955D02*
G54D10*
D03*
X-1665964Y-1570905D02*
G54D10*
D03*
X-1589790Y-1570905D02*
G54D10*
D03*
X-1665964Y-1520105D02*
G54D10*
D03*
X-1589790Y-1520055D02*
G54D10*
D03*
X-1843790Y-1520055D02*
G54D10*
D03*
X-1767589Y-1520055D02*
G54D10*
D03*
X-1691364Y-1520105D02*
G54D10*
D03*
X-1742281Y-1520230D02*
G54D10*
D03*
X-1632740Y-1469305D02*
G54D38*
D03*
X-1592664Y-1808720D02*
G54D10*
D03*
X-1541684Y-1808608D02*
G54D10*
D03*
X-1532565Y-1974180D02*
G54D10*
D03*
X-1679490Y-2114655D02*
G54D36*
D03*
X-1704790Y-2114455D02*
G54D36*
D03*
X-1730277Y-2114524D02*
G54D36*
D03*
X-1342240Y-2125966D02*
G54D29*
D03*
X-1367640Y-2125966D02*
G54D29*
D03*
X-1342240Y-2075166D02*
G54D29*
D03*
X-1367640Y-2075166D02*
G54D29*
D03*
X-1443840Y-2125966D02*
G54D28*
D03*
X-1443840Y-2075166D02*
G54D29*
D03*
X-1299631Y-2134850D02*
G54D12*
D03*
X-1299631Y-2033250D02*
G54D12*
D03*
X-1301615Y-2134850D02*
G54D12*
D03*
X-1342240Y-1952532D02*
G54D29*
D03*
X-1367640Y-1952531D02*
G54D29*
D03*
X-1342240Y-1901732D02*
G54D29*
D03*
X-1367640Y-1901732D02*
G54D29*
D03*
X-1443840Y-1952532D02*
G54D29*
D03*
X-1443840Y-1901732D02*
G54D29*
D03*
X-1375340Y-1995161D02*
G54D21*
D03*
X-1400323Y-2046094D02*
G54D21*
D03*
X-1425222Y-1995047D02*
G54D21*
D03*
X-1339858Y-1603281D02*
G54D29*
D03*
X-1365258Y-1603282D02*
G54D29*
D03*
X-1339858Y-1552482D02*
G54D29*
D03*
X-1365258Y-1552482D02*
G54D29*
D03*
X-1441458Y-1603282D02*
G54D29*
D03*
X-1441458Y-1552482D02*
G54D29*
D03*
X-1339858Y-1427863D02*
G54D29*
D03*
X-1365258Y-1427863D02*
G54D29*
D03*
X-1339858Y-1377062D02*
G54D29*
D03*
X-1365258Y-1377063D02*
G54D29*
D03*
X-1441458Y-1427862D02*
G54D29*
D03*
X-1441458Y-1377063D02*
G54D29*
D03*
X-1372958Y-1466524D02*
G54D21*
D03*
X-1397942Y-1517456D02*
G54D21*
D03*
X-1422841Y-1466410D02*
G54D21*
D03*
X-1376927Y-1732827D02*
G54D21*
D03*
X-1401910Y-1783759D02*
G54D21*
D03*
X-1426810Y-1732712D02*
G54D21*
D03*
X-1341446Y-1689800D02*
G54D29*
D03*
X-1366846Y-1689800D02*
G54D29*
D03*
X-1341446Y-1639000D02*
G54D29*
D03*
X-1366846Y-1639000D02*
G54D29*
D03*
X-1443046Y-1689800D02*
G54D29*
D03*
X-1443046Y-1639000D02*
G54D29*
D03*
X-1343033Y-1862044D02*
G54D29*
D03*
X-1368433Y-1862044D02*
G54D29*
D03*
X-1343033Y-1811244D02*
G54D29*
D03*
X-1368433Y-1811244D02*
G54D29*
D03*
X-1444633Y-1862044D02*
G54D29*
D03*
X-1444633Y-1811244D02*
G54D29*
D03*
X-1299631Y-1999515D02*
G54D12*
D03*
X-1299631Y-1897915D02*
G54D12*
D03*
X-1299631Y-1999515D02*
G54D12*
D03*
X-1299234Y-1863387D02*
G54D12*
D03*
X-1299234Y-1761787D02*
G54D12*
D03*
X-1299234Y-1863387D02*
G54D12*
D03*
X-1299234Y-1728846D02*
G54D12*
D03*
X-1299234Y-1627246D02*
G54D12*
D03*
X-1299234Y-1728846D02*
G54D12*
D03*
X-1300424Y-1594306D02*
G54D12*
D03*
X-1300424Y-1492706D02*
G54D12*
D03*
X-1300424Y-1594306D02*
G54D12*
D03*
X-1302012Y-1460956D02*
G54D12*
D03*
X-1302012Y-1359356D02*
G54D12*
D03*
X-1302012Y-1460956D02*
G54D12*
D03*
X-1251739Y-1595512D02*
G54D21*
D03*
X-1489070Y-2123356D02*
G54D21*
D03*
X-1443840Y-2075166D02*
G54D28*
D03*
X-1367640Y-2125966D02*
G54D28*
D03*
X-1342240Y-2125966D02*
G54D28*
D03*
X-1367640Y-2075166D02*
G54D28*
D03*
X-1342240Y-2075166D02*
G54D28*
D03*
X-1443840Y-1952532D02*
G54D28*
D03*
X-1443840Y-1901732D02*
G54D28*
D03*
X-1367640Y-1952531D02*
G54D28*
D03*
X-1342240Y-1952532D02*
G54D28*
D03*
X-1342240Y-1901732D02*
G54D28*
D03*
X-1367640Y-1901732D02*
G54D28*
D03*
X-1368433Y-1862044D02*
G54D28*
D03*
X-1343033Y-1862044D02*
G54D28*
D03*
X-1343033Y-1811244D02*
G54D28*
D03*
X-1368433Y-1811244D02*
G54D28*
D03*
X-1444633Y-1862044D02*
G54D28*
D03*
X-1444633Y-1811244D02*
G54D28*
D03*
X-1443046Y-1689800D02*
G54D28*
D03*
X-1366846Y-1689800D02*
G54D28*
D03*
X-1443046Y-1639000D02*
G54D28*
D03*
X-1366846Y-1639000D02*
G54D28*
D03*
X-1341446Y-1639000D02*
G54D28*
D03*
X-1341446Y-1689800D02*
G54D28*
D03*
X-1441458Y-1603282D02*
G54D28*
D03*
X-1441458Y-1552482D02*
G54D28*
D03*
X-1365258Y-1603282D02*
G54D28*
D03*
X-1339858Y-1603281D02*
G54D28*
D03*
X-1339858Y-1552482D02*
G54D28*
D03*
X-1365258Y-1552482D02*
G54D28*
D03*
X-1441458Y-1427862D02*
G54D28*
D03*
X-1441458Y-1377063D02*
G54D28*
D03*
X-1365258Y-1427863D02*
G54D28*
D03*
X-1339858Y-1427863D02*
G54D28*
D03*
X-1339858Y-1377062D02*
G54D28*
D03*
X-1365258Y-1377063D02*
G54D28*
D03*
X-1376927Y-1732827D02*
G54D21*
D03*
X-1372958Y-1466524D02*
G54D21*
D03*
X-1344224Y-2319639D02*
G54D29*
D03*
X-1369624Y-2319639D02*
G54D29*
D03*
X-1344224Y-2268839D02*
G54D29*
D03*
X-1369624Y-2268839D02*
G54D29*
D03*
X-1445824Y-2319639D02*
G54D28*
D03*
X-1445824Y-2268839D02*
G54D29*
D03*
X-1445824Y-2268839D02*
G54D28*
D03*
X-1369624Y-2319639D02*
G54D28*
D03*
X-1344224Y-2319639D02*
G54D28*
D03*
X-1369624Y-2268839D02*
G54D28*
D03*
X-1344224Y-2268839D02*
G54D28*
D03*
X-1482893Y-2223761D02*
G54D21*
D03*
X-1507876Y-2274694D02*
G54D21*
D03*
X-1532775Y-2223647D02*
G54D21*
D03*
X-1307476Y-2210150D02*
G54D12*
D03*
X-1307476Y-2311749D02*
G54D12*
D03*
X-1305492Y-2210149D02*
G54D12*
D03*
X-1261438Y-2208959D02*
G54D12*
D03*
X-1261438Y-2310559D02*
G54D12*
D03*
X-1259454Y-2208959D02*
G54D12*
D03*
X-1343430Y-2217245D02*
G54D29*
D03*
X-1368830Y-2217245D02*
G54D29*
D03*
X-1343430Y-2166445D02*
G54D29*
D03*
X-1368830Y-2166445D02*
G54D29*
D03*
X-1445030Y-2217246D02*
G54D28*
D03*
X-1445031Y-2166445D02*
G54D29*
D03*
X-1445031Y-2166445D02*
G54D28*
D03*
X-1368830Y-2217245D02*
G54D28*
D03*
X-1343430Y-2217245D02*
G54D28*
D03*
X-1368830Y-2166445D02*
G54D28*
D03*
X-1343430Y-2166445D02*
G54D28*
D03*
X-1577930Y-1317323D02*
G54D34*
D03*
X-1577930Y-2231723D02*
G54D34*
D03*
X-1770295Y-2147017D02*
G54D12*
D03*
X-1636945Y-2280367D02*
G54D12*
D03*
X-1636945Y-2261317D02*
G54D12*
D03*
X-1636945Y-2242267D02*
G54D12*
D03*
X-1636945Y-2223217D02*
G54D12*
D03*
X-1636945Y-2204167D02*
G54D12*
D03*
X-1636945Y-2185117D02*
G54D12*
D03*
X-1636945Y-2166067D02*
G54D12*
D03*
X-1636945Y-2147017D02*
G54D12*
D03*
X-1636945Y-2299417D02*
G54D12*
D03*
X-1636945Y-2318467D02*
G54D12*
D03*
X-1636945Y-2318467D02*
G54D12*
D03*
X-1732195Y-2147017D02*
G54D12*
D03*
X-1713145Y-2147017D02*
G54D12*
D03*
X-1694095Y-2147017D02*
G54D12*
D03*
X-1675045Y-2147017D02*
G54D12*
D03*
X-1655995Y-2147017D02*
G54D12*
D03*
X-1751245Y-2147017D02*
G54D12*
D03*
X-1770295Y-2147017D02*
G54D12*
D03*
X-1636945Y-2147017D02*
G54D12*
D03*
X-1971630Y-1450673D02*
G54D12*
D03*
X-1242014Y-1365116D02*
G54D12*
D03*
X-1350966Y-747311D02*
G54D10*
D03*
X-881324Y-1750796D02*
G54D10*
D03*
X-906899Y-1750746D02*
G54D10*
D03*
X-842218Y-1786512D02*
G54D10*
D03*
X-842268Y-1812086D02*
G54D10*
D03*
X-721615Y-1678518D02*
G54D10*
D03*
X-747190Y-1678468D02*
G54D10*
D03*
X-203677Y-2142364D02*
G54D10*
D03*
X-203676Y-2116864D02*
G54D10*
D03*
G36*
X-335024Y-2125874D02*
X-355024Y-2125874D01*
X-355024Y-2105874D01*
X-335024Y-2105874D01*
X-335024Y-2125874D01*
G37*
X-370424Y-2115874D02*
G54D30*
D03*
X-395824Y-2115874D02*
G54D30*
D03*
X-421224Y-2115874D02*
G54D30*
D03*
X-421224Y-2192074D02*
G54D30*
D03*
X-395824Y-2192074D02*
G54D30*
D03*
X-370424Y-2192074D02*
G54D30*
D03*
X-345024Y-2192073D02*
G54D30*
D03*
X-395824Y-2192074D02*
G54D31*
D03*
X-457226Y-2311376D02*
G54D10*
D03*
X-406868Y-2243997D02*
G54D10*
D03*
X-381368Y-2243998D02*
G54D10*
D03*
X-381368Y-2243997D02*
G54D10*
D03*
X-355868Y-2243997D02*
G54D10*
D03*
X-253383Y-2223201D02*
G54D10*
D03*
X-301183Y-2223200D02*
G54D10*
D03*
X-456583Y-2223200D02*
G54D10*
D03*
X-504383Y-2223201D02*
G54D10*
D03*
X-253383Y-2134301D02*
G54D10*
D03*
X-301183Y-2134301D02*
G54D10*
D03*
X-243858Y-2070601D02*
G54D10*
D03*
X-320108Y-2070551D02*
G54D10*
D03*
X-243858Y-2032501D02*
G54D10*
D03*
X-320108Y-2032451D02*
G54D10*
D03*
X-243858Y-2032501D02*
G54D10*
D03*
X-361333Y-2058100D02*
G54D10*
D03*
X-409133Y-2058100D02*
G54D10*
D03*
X-510821Y-2121601D02*
G54D10*
D03*
X-463021Y-2121601D02*
G54D10*
D03*
X-474918Y-2056748D02*
G54D10*
D03*
X-525899Y-2056860D02*
G54D10*
D03*
X-474918Y-2056748D02*
G54D10*
D03*
X-606071Y-2121601D02*
G54D10*
D03*
X-558271Y-2121601D02*
G54D10*
D03*
X-243858Y-2032501D02*
G54D10*
D03*
X-134076Y-2021976D02*
G54D21*
D03*
X-121376Y-1856876D02*
G54D21*
D03*
X-121376Y-1882276D02*
G54D21*
D03*
X-127726Y-1660026D02*
G54D21*
D03*
X-127726Y-1685426D02*
G54D21*
D03*
X-127726Y-1710826D02*
G54D21*
D03*
X-679871Y-2167710D02*
G54D10*
D03*
X-679821Y-2091460D02*
G54D10*
D03*
X-722135Y-2063591D02*
G54D16*
D03*
X-722135Y-2101691D02*
G54D16*
D03*
X-722135Y-2196941D02*
G54D16*
D03*
X-722135Y-2241391D02*
G54D16*
D03*
X-1045985Y-2241391D02*
G54D16*
D03*
X-1001535Y-2241391D02*
G54D16*
D03*
X-747535Y-2063591D02*
G54D16*
D03*
X-747535Y-2101691D02*
G54D16*
D03*
X-747535Y-2196941D02*
G54D16*
D03*
X-747535Y-2241391D02*
G54D16*
D03*
X-1045985Y-2215991D02*
G54D16*
D03*
X-1001535Y-2215991D02*
G54D16*
D03*
X-683898Y-2301686D02*
G54D10*
D03*
X-636098Y-2301686D02*
G54D10*
D03*
X-683898Y-2301686D02*
G54D10*
D03*
X-1019739Y-1945155D02*
G54D21*
D03*
X-1044723Y-1996087D02*
G54D21*
D03*
X-1069622Y-1945040D02*
G54D21*
D03*
X-1070822Y-1900722D02*
G54D10*
D03*
X-1070771Y-1875146D02*
G54D10*
D03*
X-760824Y-2278342D02*
G54D10*
D03*
X-706943Y-2332295D02*
G54D10*
D03*
X-121376Y-2295026D02*
G54D21*
D03*
X-121376Y-2342651D02*
G54D21*
D03*
X-121376Y-2269626D02*
G54D21*
D03*
X-798882Y-351895D02*
G54D12*
D03*
X-203518Y-352064D02*
G54D12*
D03*
X-203518Y-1188677D02*
G54D12*
D03*
X-614732Y-351895D02*
G54D12*
D03*
X-716332Y-348720D02*
G54D12*
D03*
X-805833Y-2305750D02*
G54D10*
D03*
X-853633Y-2305751D02*
G54D10*
D03*
X-901968Y-2290352D02*
G54D10*
D03*
X-760782Y-348720D02*
G54D12*
D03*
X-830632Y-634470D02*
G54D12*
D03*
X-290732Y-1667493D02*
G54D10*
D03*
X-316231Y-1667493D02*
G54D10*
D03*
X-316231Y-1667493D02*
G54D10*
D03*
X-341731Y-1667493D02*
G54D10*
D03*
X-444216Y-1688289D02*
G54D10*
D03*
X-396416Y-1688290D02*
G54D10*
D03*
X-202654Y-1678764D02*
G54D10*
D03*
X-250454Y-1678764D02*
G54D10*
D03*
X-565876Y-1704476D02*
G54D21*
D03*
X-121377Y-2320426D02*
G54D21*
D03*
X-2249884Y-1373029D02*
G54D10*
D03*
X-2249934Y-1449279D02*
G54D10*
D03*
X-2249934Y-1449279D02*
G54D13*
D03*
X-2262819Y-1326600D02*
G54D10*
D03*
X-2237344Y-1326600D02*
G54D10*
D03*
X-1403235Y-781284D02*
G54D10*
D03*
X-1428635Y-781284D02*
G54D10*
D03*
X-1265122Y-674921D02*
G54D10*
D03*
X-1265122Y-697146D02*
G54D10*
D03*
X-1265122Y-735246D02*
G54D15*
D03*
X-1430222Y-747946D02*
G54D15*
D03*
X-865073Y-512996D02*
G54D10*
D03*
X-865073Y-490771D02*
G54D10*
D03*
X-842784Y-468154D02*
G54D15*
D03*
X-169748Y-801921D02*
G54D10*
D03*
X-169748Y-827321D02*
G54D10*
D03*
X-201434Y-785654D02*
G54D15*
D03*
X-153872Y-1176571D02*
G54D10*
D03*
X-153872Y-1201971D02*
G54D10*
D03*
X-125234Y-1153954D02*
G54D15*
D03*
X-712672Y-1348021D02*
G54D10*
D03*
X-712672Y-1370246D02*
G54D10*
D03*
X-709434Y-1306354D02*
G54D15*
D03*
X-734834Y-1382554D02*
G54D15*
D03*
X-1098073Y-1388828D02*
G54D10*
D03*
X-1113789Y-1373112D02*
G54D10*
D03*
X-1103134Y-1414304D02*
G54D15*
D03*
X-1134884Y-1382554D02*
G54D15*
D03*
X-876265Y-1608291D02*
G54D10*
D03*
X-891980Y-1592576D02*
G54D10*
D03*
X-899934Y-1560354D02*
G54D15*
D03*
X-845960Y-1604804D02*
G54D15*
D03*
X-1398472Y-741596D02*
G54D15*
D03*
X-833322Y-493946D02*
G54D15*
D03*
X-877772Y-557446D02*
G54D15*
D03*
X-855484Y-557054D02*
G54D15*
D03*
X-198322Y-817796D02*
G54D15*
D03*
X-128472Y-817796D02*
G54D15*
D03*
X-131584Y-849154D02*
G54D15*
D03*
X-115772Y-1179746D02*
G54D15*
D03*
X-182384Y-1217454D02*
G54D15*
D03*
X-1373072Y-805096D02*
G54D15*
D03*
X-1347672Y-805096D02*
G54D15*
D03*
X-706322Y-1274996D02*
G54D15*
D03*
X-738072Y-1421046D02*
G54D15*
D03*
X-928572Y-1560746D02*
G54D15*
D03*
X-814272Y-1605196D02*
G54D15*
D03*
X-1150822Y-1363896D02*
G54D15*
D03*
X-1100022Y-1446446D02*
G54D15*
D03*
X-1198384Y-1382554D02*
G54D15*
D03*
X-1201403Y-1359733D02*
G54D15*
D03*
X-757122Y-1649646D02*
G54D15*
D03*
X-757060Y-1623854D02*
G54D15*
D03*
X-2099600Y-1936912D02*
G54D16*
D03*
X-2185325Y-1936912D02*
G54D16*
D03*
X-2102775Y-2152812D02*
G54D16*
D03*
X-2178975Y-2152812D02*
G54D16*
D03*
X-2077375Y-1936912D02*
G54D16*
D03*
X-2229775Y-1936912D02*
G54D16*
D03*
X-2077375Y-2152812D02*
G54D16*
D03*
X-2131497Y-2049615D02*
G54D10*
D03*
X-2055247Y-2049664D02*
G54D10*
D03*
X-2131497Y-2049614D02*
G54D10*
D03*
X-2261672Y-2049615D02*
G54D10*
D03*
X-2185422Y-2049664D02*
G54D10*
D03*
X-2261672Y-2049614D02*
G54D10*
D03*
X-2027593Y-2151978D02*
G54D12*
D03*
X-2027593Y-2253578D02*
G54D12*
D03*
X-2229775Y-2152812D02*
G54D12*
D03*
X-2229775Y-2254412D02*
G54D12*
D03*
X-1989702Y-2185029D02*
G54D10*
D03*
X-1989590Y-2236010D02*
G54D10*
D03*
X-1989702Y-2185029D02*
G54D10*
D03*
X-2269102Y-2185029D02*
G54D10*
D03*
X-2268990Y-2236010D02*
G54D10*
D03*
X-2269102Y-2185030D02*
G54D10*
D03*
X-1989702Y-2185029D02*
G54D10*
D03*
X-2245385Y-2283255D02*
G54D21*
D03*
X-2220486Y-2334302D02*
G54D21*
D03*
X-2086219Y-2334187D02*
G54D21*
D03*
X-2061235Y-2283255D02*
G54D21*
D03*
X-2036336Y-2334302D02*
G54D21*
D03*
X-2129402Y-2267580D02*
G54D10*
D03*
X-2129290Y-2318560D02*
G54D10*
D03*
X-2129402Y-2267580D02*
G54D10*
D03*
X-2129402Y-2267580D02*
G54D10*
D03*
X-2167502Y-2267580D02*
G54D10*
D03*
X-2167390Y-2318560D02*
G54D10*
D03*
X-2167502Y-2267580D02*
G54D10*
D03*
X-2167502Y-2267580D02*
G54D10*
D03*
X-2131447Y-2360815D02*
G54D10*
D03*
X-2182247Y-2360815D02*
G54D10*
D03*
X-2248825Y-1936912D02*
G54D16*
D03*
X-2058325Y-1936912D02*
G54D16*
D03*
X-2264019Y-2334187D02*
G54D21*
D03*
X-1932064Y-2013580D02*
G54D10*
D03*
X-2290839Y-1914461D02*
G54D10*
D03*
X-2290840Y-1888961D02*
G54D10*
D03*
X-1984328Y-1635642D02*
G54D12*
D03*
X-1298530Y-2634948D02*
G54D12*
D03*
X-841330Y-2634948D02*
G54D39*
D03*
X-1488256Y-227516D02*
G54D12*
D03*
X-1608906Y-224343D02*
G54D12*
D03*
X-1488256Y-106866D02*
G54D12*
D03*
X-1608906Y-106866D02*
G54D12*
D03*
X-1627718Y-167192D02*
G54D12*
D03*
X-1608906Y-224343D02*
G54D12*
D03*
X-1682334Y-108985D02*
G54D23*
D03*
X-1682334Y-210585D02*
G54D10*
D03*
X-1608906Y-224343D02*
G54D12*
D03*
X-1184230Y-225123D02*
G54D12*
D03*
X-1304880Y-221949D02*
G54D12*
D03*
X-1184230Y-104473D02*
G54D12*
D03*
X-1304880Y-104473D02*
G54D12*
D03*
X-1323692Y-164798D02*
G54D12*
D03*
X-1304880Y-221950D02*
G54D12*
D03*
X-1378308Y-106591D02*
G54D23*
D03*
X-1378308Y-208191D02*
G54D10*
D03*
X-1304880Y-221949D02*
G54D12*
D03*
X-2195882Y-272520D02*
G54D12*
D03*
X-2266534Y-172485D02*
G54D25*
D03*
X-1767508Y-293288D02*
G54D14*
D03*
X-2148508Y-341707D02*
G54D14*
D03*
X-2159620Y-1273570D02*
G54D14*
D03*
X-1974221Y-1287989D02*
G54D12*
D03*
X-1967697Y-321768D02*
G54D12*
D03*
X-1818899Y-311862D02*
G54D12*
D03*
X-1973632Y-2602970D02*
G54D12*
D03*
X-1941882Y-2602970D02*
G54D12*
D03*
X-1910132Y-2602970D02*
G54D12*
D03*
X-1972696Y-2635270D02*
G54D10*
D03*
X-1896446Y-2635320D02*
G54D10*
D03*
X-1886784Y-2537843D02*
G54D12*
D03*
X-1988384Y-2537843D02*
G54D12*
D03*
X-1848684Y-2671193D02*
G54D12*
D03*
X-1848684Y-2569593D02*
G54D12*
D03*
X-1879243Y-2697364D02*
G54D10*
D03*
X-1930224Y-2697477D02*
G54D10*
D03*
X-2025492Y-2686076D02*
G54D21*
D03*
X-1971811Y-2667728D02*
G54D21*
D03*
X-1990300Y-2721429D02*
G54D21*
D03*
X-1852982Y-2526770D02*
G54D12*
D03*
X-1930224Y-2697477D02*
G54D21*
D03*
X-1982947Y-2467304D02*
G54D12*
D03*
X-1979773Y-2346654D02*
G54D12*
D03*
X-1862297Y-2467303D02*
G54D12*
D03*
X-1862297Y-2346654D02*
G54D12*
D03*
X-1922622Y-2327841D02*
G54D12*
D03*
X-1979774Y-2346654D02*
G54D12*
D03*
X-1862297Y-2346654D02*
G54D12*
D03*
X-2026134Y-2481884D02*
G54D23*
D03*
X-2026134Y-2380285D02*
G54D23*
D03*
X-668256Y-2823388D02*
G54D10*
D03*
X-744556Y-2823389D02*
G54D10*
D03*
X-706356Y-2823388D02*
G54D10*
D03*
X-1298530Y-2634948D02*
G54D39*
D03*
X-109456Y-2823388D02*
G54D10*
D03*
X-185756Y-2823389D02*
G54D10*
D03*
X-147556Y-2823388D02*
G54D10*
D03*
X-1058935Y-1090297D02*
G54D10*
D03*
X-1115498Y-606640D02*
G54D10*
D03*
X-1094292Y-585434D02*
G54D10*
D03*
X-1058935Y-899797D02*
G54D10*
D03*
X-1135135Y-944247D02*
G54D10*
D03*
X-1435100Y-1152525D02*
G54D10*
D03*
X-1409700Y-1330325D02*
G54D10*
D03*
X-1982672Y-1998896D02*
G54D15*
D03*
X-1982672Y-1973496D02*
G54D15*
D03*
X-1921948Y-1457540D02*
G54D10*
D03*
X-1903917Y-1439508D02*
G54D10*
D03*
X-1893772Y-1408346D02*
G54D15*
D03*
X-1868372Y-1408346D02*
G54D15*
D03*
X-1576547Y-2683204D02*
G54D12*
D03*
X-1573373Y-2562554D02*
G54D12*
D03*
X-1455897Y-2683203D02*
G54D12*
D03*
X-1455897Y-2562554D02*
G54D12*
D03*
X-1516222Y-2543741D02*
G54D12*
D03*
X-1573374Y-2562554D02*
G54D12*
D03*
X-1455897Y-2562554D02*
G54D12*
D03*
X-1474007Y-2494865D02*
G54D23*
D03*
X-1575607Y-2494865D02*
G54D23*
D03*
X-2093805Y-2608749D02*
G54D10*
D03*
X-2093805Y-2634249D02*
G54D10*
D03*
X-2286378Y-1717520D02*
G54D40*
D03*
X-1015603Y-2387441D02*
G54D41*
D03*
G36*
X-1043185Y-2283241D02*
X-1043185Y-2339241D01*
X-1074185Y-2339241D01*
X-1074185Y-2283241D01*
X-1043185Y-2283241D01*
G37*
G36*
X-1043185Y-2435641D02*
X-1043185Y-2491641D01*
X-1074185Y-2491641D01*
X-1074185Y-2435641D01*
X-1043185Y-2435641D01*
G37*
G36*
X-1100335Y-2314991D02*
X-1100335Y-2370991D01*
X-1131335Y-2370991D01*
X-1131335Y-2314991D01*
X-1100335Y-2314991D01*
G37*
G36*
X-1100335Y-2403891D02*
X-1100335Y-2459891D01*
X-1131335Y-2459891D01*
X-1131335Y-2403891D01*
X-1100335Y-2403891D01*
G37*
G36*
X-1201935Y-2308641D02*
X-1201935Y-2364641D01*
X-1232935Y-2364641D01*
X-1232935Y-2308641D01*
X-1201935Y-2308641D01*
G37*
G36*
X-1201935Y-2403891D02*
X-1201935Y-2459891D01*
X-1232935Y-2459891D01*
X-1232935Y-2403891D01*
X-1201935Y-2403891D01*
G37*
G36*
X-1100335Y-2276891D02*
X-1100335Y-2332891D01*
X-1131335Y-2332891D01*
X-1131335Y-2276891D01*
X-1100335Y-2276891D01*
G37*
G36*
X-1100335Y-2448341D02*
X-1100335Y-2504341D01*
X-1131335Y-2504341D01*
X-1131335Y-2448341D01*
X-1100335Y-2448341D01*
G37*
G36*
X-1201935Y-2359441D02*
X-1201935Y-2415441D01*
X-1232935Y-2415441D01*
X-1232935Y-2359441D01*
X-1201935Y-2359441D01*
G37*
G36*
X-1043185Y-2264191D02*
X-1043185Y-2320191D01*
X-1074185Y-2320191D01*
X-1074185Y-2264191D01*
X-1043185Y-2264191D01*
G37*
G36*
X-1043185Y-2461041D02*
X-1043185Y-2517041D01*
X-1074185Y-2517041D01*
X-1074185Y-2461041D01*
X-1043185Y-2461041D01*
G37*
X-1269603Y-2390616D02*
G54D41*
D03*
G36*
X-1325161Y-2351818D02*
X-1299161Y-2351818D01*
X-1299161Y-2377818D01*
X-1325161Y-2377818D01*
X-1325161Y-2351818D01*
G37*
G36*
X-1325161Y-2402618D02*
X-1299161Y-2402618D01*
X-1299161Y-2428618D01*
X-1325161Y-2428618D01*
X-1325161Y-2402618D01*
G37*
G36*
X-985436Y-2412143D02*
X-959436Y-2412143D01*
X-959436Y-2438143D01*
X-985436Y-2438143D01*
X-985436Y-2412143D01*
G37*
X-2399903Y52546D02*
G54D14*
D03*
X-1704578Y-33179D02*
G54D14*
D03*
X-225028Y-2430304D02*
G54D14*
D03*
X-2390378Y-2836704D02*
G54D14*
D03*
X-1602978Y-2798604D02*
G54D14*
D03*
X-1772829Y-129639D02*
G54D12*
D03*
X-1772829Y-161389D02*
G54D12*
D03*
X-1772829Y-193139D02*
G54D12*
D03*
X-1864679Y-225744D02*
G54D10*
D03*
X-1816879Y-225744D02*
G54D10*
D03*
X-1861504Y-98744D02*
G54D10*
D03*
X-1813704Y-98744D02*
G54D10*
D03*
X-1937929Y-135989D02*
G54D12*
D03*
X-1937929Y-167739D02*
G54D12*
D03*
X-1937929Y-199489D02*
G54D12*
D03*
X-2029779Y-228919D02*
G54D10*
D03*
X-1981979Y-228919D02*
G54D10*
D03*
X-2052004Y-120970D02*
G54D10*
D03*
X-2004204Y-120969D02*
G54D10*
D03*
X-2141129Y-2568039D02*
G54D12*
D03*
X-2141129Y-2599789D02*
G54D12*
D03*
X-2141129Y-2631539D02*
G54D12*
D03*
X-2232979Y-2664144D02*
G54D10*
D03*
X-2185179Y-2664144D02*
G54D10*
D03*
X-2229804Y-2537144D02*
G54D10*
D03*
X-2182004Y-2537144D02*
G54D10*
D03*
X-2026134Y-2481884D02*
G54D12*
D03*
X-1474007Y-2494865D02*
G54D12*
D03*
X-2087722Y-2454841D02*
G54D12*
D03*
X-1115834Y-557054D02*
G54D15*
D03*
X-1125422Y-576496D02*
G54D15*
D03*
X-1099394Y-467010D02*
G54D10*
D03*
X-1081363Y-448979D02*
G54D10*
D03*
X-1103134Y-423704D02*
G54D15*
D03*
X-1122247Y-439971D02*
G54D15*
D03*
X-2211464Y-2458180D02*
G54D10*
D03*
X-2211465Y-2432680D02*
G54D10*
D03*
X-2294014Y-2724880D02*
G54D10*
D03*
X-2294015Y-2699380D02*
G54D10*
D03*
X-2209384Y-89935D02*
G54D25*
D03*
X-2320880Y-2428573D02*
G54D12*
D03*
X-2288166Y-1765832D02*
G54D40*
D03*
X-2126968Y22527D02*
G54D12*
D03*
X-2076168Y22527D02*
G54D12*
D03*
X-2025368Y22527D02*
G54D12*
D03*
X-1974568Y22527D02*
G54D12*
D03*
X-2279368Y22527D02*
G54D12*
D03*
X-2228568Y22527D02*
G54D12*
D03*
X-1854666Y-644788D02*
G54D32*
D03*
X-1918166Y-860689D02*
G54D32*
D03*
X-1854666Y-860688D02*
G54D32*
D03*
X-1918166Y-1076589D02*
G54D32*
D03*
X-1854666Y-1076589D02*
G54D32*
D03*
X-1242103Y-671746D02*
G54D15*
D03*
X-248469Y-1472992D02*
G54D10*
D03*
X-248519Y-1549242D02*
G54D10*
D03*
X-167476Y-1469592D02*
G54D10*
D03*
X-167588Y-1418612D02*
G54D10*
D03*
X-281775Y-1444192D02*
G54D10*
D03*
X-281888Y-1393212D02*
G54D10*
D03*
X-248485Y-1244392D02*
G54D10*
D03*
X-248535Y-1320642D02*
G54D10*
D03*
X-369206Y-1501006D02*
G54D10*
D03*
X-292956Y-1501056D02*
G54D10*
D03*
X-294165Y-1320642D02*
G54D10*
D03*
X-294115Y-1244392D02*
G54D10*
D03*
X-426268Y-1472992D02*
G54D10*
D03*
X-426318Y-1549241D02*
G54D10*
D03*
X-323600Y-1348476D02*
G54D10*
D03*
X-421165Y-1346042D02*
G54D10*
D03*
X-421115Y-1269792D02*
G54D10*
D03*
X-497365Y-1346042D02*
G54D10*
D03*
X-497315Y-1269792D02*
G54D10*
D03*
X-548165Y-1346042D02*
G54D10*
D03*
X-548115Y-1269792D02*
G54D10*
D03*
X-647636Y-1412086D02*
G54D10*
D03*
X-596656Y-1411974D02*
G54D10*
D03*
X-576182Y-1542810D02*
G54D10*
D03*
X-499932Y-1542860D02*
G54D10*
D03*
X-360840Y-1425418D02*
G54D11*
D03*
X-344940Y-1407842D02*
G54D11*
D03*
X-360874Y-1390226D02*
G54D11*
D03*
X-462440Y-1425417D02*
G54D11*
D03*
X-446540Y-1407842D02*
G54D11*
D03*
X-462475Y-1390226D02*
G54D11*
D03*
X-538640Y-1425417D02*
G54D11*
D03*
X-522740Y-1407842D02*
G54D11*
D03*
X-538675Y-1390226D02*
G54D11*
D03*
X-143328Y-1348524D02*
G54D12*
D03*
X-194128Y-1348524D02*
G54D12*
D03*
X-168728Y-1323124D02*
G54D12*
D03*
X-194128Y-1297724D02*
G54D12*
D03*
X-143328Y-1297724D02*
G54D12*
D03*
X-611640Y-1349317D02*
G54D12*
D03*
X-662440Y-1349317D02*
G54D12*
D03*
X-637040Y-1323917D02*
G54D12*
D03*
X-662440Y-1298517D02*
G54D12*
D03*
X-611640Y-1298518D02*
G54D12*
D03*
X-313166Y-1573626D02*
G54D10*
D03*
X-364146Y-1573739D02*
G54D10*
D03*
X-248485Y-1244392D02*
G54D13*
D03*
X-124064Y-1604010D02*
G54D14*
D03*
X-374400Y-1348476D02*
G54D10*
D03*
X-376715Y-1320642D02*
G54D10*
D03*
X-376665Y-1244392D02*
G54D10*
D03*
X-116940Y-1400017D02*
G54D15*
D03*
X-294115Y-1244392D02*
G54D13*
D03*
X-376665Y-1244392D02*
G54D13*
D03*
X-421115Y-1269792D02*
G54D13*
D03*
X-497315Y-1269792D02*
G54D13*
D03*
X-683896Y-1603218D02*
G54D14*
D03*
X-124064Y-1245236D02*
G54D14*
D03*
X-683261Y-1246823D02*
G54D14*
D03*
X-203518Y-1188676D02*
G54D10*
D03*
X-674540Y-1389617D02*
G54D15*
D03*
X-170284Y-1526916D02*
G54D10*
D03*
X-640184Y-1526916D02*
G54D10*
D03*
X-603806Y-1662157D02*
G54D10*
D03*
X-558856Y-541228D02*
G54D10*
D03*
X-558806Y-464978D02*
G54D10*
D03*
X-639849Y-544629D02*
G54D10*
D03*
X-639737Y-595610D02*
G54D10*
D03*
X-525550Y-570028D02*
G54D10*
D03*
X-525438Y-621009D02*
G54D10*
D03*
X-558840Y-769828D02*
G54D10*
D03*
X-558790Y-693578D02*
G54D10*
D03*
X-438119Y-513214D02*
G54D10*
D03*
X-514369Y-513164D02*
G54D10*
D03*
X-513160Y-693578D02*
G54D10*
D03*
X-513210Y-769828D02*
G54D10*
D03*
X-381056Y-541230D02*
G54D10*
D03*
X-381007Y-464980D02*
G54D10*
D03*
X-483725Y-665745D02*
G54D10*
D03*
X-386160Y-668178D02*
G54D10*
D03*
X-386210Y-744428D02*
G54D10*
D03*
X-309960Y-668178D02*
G54D10*
D03*
X-310010Y-744428D02*
G54D10*
D03*
X-259160Y-668178D02*
G54D10*
D03*
X-259210Y-744428D02*
G54D10*
D03*
X-159688Y-602134D02*
G54D10*
D03*
X-210669Y-602246D02*
G54D10*
D03*
X-231144Y-471410D02*
G54D10*
D03*
X-307393Y-471360D02*
G54D10*
D03*
X-446485Y-588803D02*
G54D11*
D03*
X-462385Y-606378D02*
G54D11*
D03*
X-446451Y-623994D02*
G54D11*
D03*
X-344885Y-588804D02*
G54D11*
D03*
X-360785Y-606378D02*
G54D11*
D03*
X-344850Y-623994D02*
G54D11*
D03*
X-268685Y-588804D02*
G54D11*
D03*
X-284585Y-606378D02*
G54D11*
D03*
X-268650Y-623994D02*
G54D11*
D03*
X-665585Y-664903D02*
G54D12*
D03*
X-614785Y-664904D02*
G54D12*
D03*
X-640185Y-690303D02*
G54D12*
D03*
X-614785Y-715704D02*
G54D12*
D03*
X-665585Y-715704D02*
G54D12*
D03*
X-195685Y-664904D02*
G54D12*
D03*
X-144885Y-664904D02*
G54D12*
D03*
X-170286Y-690304D02*
G54D12*
D03*
X-144886Y-715704D02*
G54D12*
D03*
X-195685Y-715704D02*
G54D12*
D03*
X-494159Y-440594D02*
G54D10*
D03*
X-443179Y-440482D02*
G54D10*
D03*
X-558840Y-769828D02*
G54D13*
D03*
X-683261Y-410210D02*
G54D14*
D03*
X-432925Y-665745D02*
G54D10*
D03*
X-430610Y-693578D02*
G54D10*
D03*
X-430660Y-769828D02*
G54D10*
D03*
X-601610Y-408428D02*
G54D10*
D03*
X-690385Y-614203D02*
G54D15*
D03*
X-513210Y-769828D02*
G54D13*
D03*
X-430660Y-769828D02*
G54D13*
D03*
X-386210Y-744428D02*
G54D13*
D03*
X-310010Y-744428D02*
G54D13*
D03*
X-123429Y-411004D02*
G54D14*
D03*
X-683261Y-768985D02*
G54D14*
D03*
X-124064Y-767398D02*
G54D14*
D03*
X-132785Y-624603D02*
G54D15*
D03*
X-2161541Y-2754085D02*
G54D12*
D03*
X-2090897Y-2755672D02*
G54D12*
D03*
X-950516Y-1235710D02*
G54D14*
D03*
X-1147835Y-1280797D02*
G54D15*
D03*
X-1122435Y-1280797D02*
G54D15*
D03*
X-195495Y-1556467D02*
G54D12*
D03*
X-846056Y-2404288D02*
G54D10*
D03*
X-1723980Y-2657173D02*
G54D12*
D03*
X-1787480Y-2542873D02*
G54D12*
D03*
X-2286378Y-2022320D02*
G54D40*
D03*
X-2284991Y-1975382D02*
G54D40*
D03*
X-1787479Y-2568373D02*
G54D10*
D03*
X-1787480Y-2542873D02*
G54D10*
D03*
X-1745146Y-2567351D02*
G54D10*
D03*
X-1745147Y-2541851D02*
G54D10*
D03*
X-1723979Y-2682673D02*
G54D10*
D03*
X-1723980Y-2657173D02*
G54D10*
D03*
X-2295380Y-2428572D02*
G54D10*
D03*
X-2320880Y-2428573D02*
G54D10*
D03*
X-1767120Y-2381967D02*
G54D12*
D03*
X-1636945Y-2362917D02*
G54D12*
D03*
X-1636945Y-2381967D02*
G54D12*
D03*
X-1732195Y-2381967D02*
G54D12*
D03*
X-1713145Y-2381967D02*
G54D12*
D03*
X-1694095Y-2381967D02*
G54D12*
D03*
X-1675045Y-2381967D02*
G54D12*
D03*
X-1655995Y-2381967D02*
G54D12*
D03*
X-1751245Y-2381967D02*
G54D12*
D03*
X-1636945Y-2381967D02*
G54D12*
D03*
X-1802045Y-2359742D02*
G54D12*
D03*
X-1802045Y-2340692D02*
G54D12*
D03*
X-1802045Y-2381967D02*
G54D12*
D03*
X-1802045Y-2204167D02*
G54D12*
D03*
X-1802045Y-2185117D02*
G54D12*
D03*
X-1802045Y-2166067D02*
G54D12*
D03*
X-1802045Y-2147017D02*
G54D12*
D03*
X-1802045Y-2261317D02*
G54D12*
D03*
X-1802045Y-2242267D02*
G54D12*
D03*
X-1802045Y-2223217D02*
G54D12*
D03*
X-1802045Y-2204167D02*
G54D12*
D03*
X-1802045Y-2318467D02*
G54D12*
D03*
X-1802045Y-2299417D02*
G54D12*
D03*
X-1802045Y-2280367D02*
G54D12*
D03*
X-1802045Y-2261317D02*
G54D12*
D03*
X-1781890Y-2145630D02*
G54D12*
D03*
X-1636945Y-2340692D02*
G54D12*
D03*
X-1782995Y-2381967D02*
G54D12*
D03*
X-1990430Y-1351041D02*
G54D10*
D03*
X-1990430Y-1374556D02*
G54D10*
D03*
X-1965030Y-1351041D02*
G54D10*
D03*
X-1965030Y-1374556D02*
G54D10*
D03*
X-2269490Y-1856353D02*
G54D10*
D03*
X-286476Y-2307726D02*
G54D21*
D03*
X-194475Y-2370664D02*
G54D10*
D03*
X-168900Y-2370715D02*
G54D10*
D03*
X-445789Y-2406121D02*
G54D11*
D03*
X-463364Y-2390221D02*
G54D11*
D03*
X-480980Y-2406156D02*
G54D11*
D03*
X-515076Y-2345826D02*
G54D21*
D03*
X-1146800Y-1481715D02*
G54D10*
D03*
X-600700Y-2408815D02*
G54D10*
D03*
X-1146800Y-1519815D02*
G54D10*
D03*
X-715000Y-2408815D02*
G54D10*
D03*
X-1997874Y-2802464D02*
G54D10*
D03*
X-1972300Y-2802515D02*
G54D10*
D03*
X-1972300Y-2802515D02*
G54D10*
D03*
X-1946726Y-2802566D02*
G54D10*
D03*
X-523864Y-2393130D02*
G54D21*
D03*
X-98380Y-2377773D02*
G54D12*
D03*
X-98379Y-2403273D02*
G54D10*
D03*
X-98380Y-2377773D02*
G54D10*
D03*
X-148828Y-2633504D02*
G54D14*
D03*
X-2146618Y-59964D02*
G54D12*
D03*
X-2361918Y-2511123D02*
G54D12*
D03*
X-2361918Y-2561923D02*
G54D12*
D03*
X-2361918Y-2612723D02*
G54D12*
D03*
X-2361918Y-2663523D02*
G54D12*
D03*
X-1946726Y-2802566D02*
G54D10*
D03*
X-1921151Y-2802616D02*
G54D10*
D03*
X-2062322Y-2429441D02*
G54D12*
D03*
X-2087722Y-2531041D02*
G54D12*
D03*
X-2036922Y-2619941D02*
G54D12*
D03*
X-2064234Y-2697784D02*
G54D12*
D03*
X-1921151Y-2802616D02*
G54D10*
D03*
X-1895576Y-2802666D02*
G54D10*
D03*
X-1894564Y-2834555D02*
G54D10*
D03*
X-1823068Y-2834614D02*
G54D10*
D03*
X-352380Y-2847673D02*
G54D10*
D03*
X-352380Y-2847673D02*
G54D10*
D03*
G36*
X-1043185Y-2416591D02*
X-1043185Y-2472591D01*
X-1074185Y-2472591D01*
X-1074185Y-2416591D01*
X-1043185Y-2416591D01*
G37*
X-1057547Y-84012D02*
G54D11*
D03*
X-1073447Y-101587D02*
G54D11*
D03*
X-1057512Y-119203D02*
G54D11*
D03*
X-718251Y-267219D02*
G54D10*
D03*
X-718201Y-190970D02*
G54D10*
D03*
X-1254249Y-44842D02*
G54D10*
D03*
X-1177999Y-44892D02*
G54D10*
D03*
X-813436Y-1013460D02*
G54D14*
D03*
X-495936Y-1013460D02*
G54D14*
D03*
X-1426766Y-937260D02*
G54D14*
D03*
X-1369050Y-1342015D02*
G54D10*
D03*
X-1115050Y-872115D02*
G54D10*
D03*
X-734050Y-1215015D02*
G54D10*
D03*
X-60950Y-1208665D02*
G54D10*
D03*
X-117475Y-1206500D02*
G54D10*
D03*
X-460375Y-1216025D02*
G54D10*
D03*
X-67300Y-2338965D02*
G54D10*
D03*
X-1438900Y-2396115D02*
G54D10*
D03*
X-1392634Y-1242060D02*
G54D21*
D03*
X-67300Y-2364365D02*
G54D10*
D03*
X-909479Y-149259D02*
G54D42*
D03*
X-884079Y-149259D02*
G54D42*
D03*
X-858679Y-149259D02*
G54D42*
D03*
X-833279Y-149259D02*
G54D42*
D03*
X-807879Y-149259D02*
G54D42*
D03*
X-782479Y-149259D02*
G54D42*
D03*
X-757079Y-149259D02*
G54D42*
D03*
X-731679Y-149259D02*
G54D42*
D03*
X-706279Y-149259D02*
G54D42*
D03*
X-680879Y-149259D02*
G54D42*
D03*
X-655479Y-149259D02*
G54D42*
D03*
X-630079Y-149259D02*
G54D42*
D03*
X-604679Y-149259D02*
G54D42*
D03*
X-579279Y-149259D02*
G54D42*
D03*
X-553879Y-149259D02*
G54D42*
D03*
X-909479Y3141D02*
G54D42*
D03*
X-884079Y3141D02*
G54D42*
D03*
X-858679Y3141D02*
G54D42*
D03*
X-833279Y3141D02*
G54D42*
D03*
X-807879Y3141D02*
G54D42*
D03*
X-782479Y3141D02*
G54D42*
D03*
X-757079Y3141D02*
G54D42*
D03*
X-731679Y3141D02*
G54D42*
D03*
X-706279Y3141D02*
G54D42*
D03*
X-680879Y3141D02*
G54D42*
D03*
X-655479Y3141D02*
G54D42*
D03*
X-630079Y3141D02*
G54D42*
D03*
X-604679Y3141D02*
G54D42*
D03*
X-579279Y3141D02*
G54D42*
D03*
X-553879Y3141D02*
G54D42*
D03*
X-934720Y3300D02*
G54D43*
D03*
X-934720Y-149100D02*
G54D43*
D03*
X-908463Y-47913D02*
G54D42*
D03*
X-933863Y-47913D02*
G54D42*
D03*
X-908463Y-73313D02*
G54D42*
D03*
X-933863Y-73313D02*
G54D42*
D03*
X-908463Y-98713D02*
G54D42*
D03*
X-933863Y-98713D02*
G54D42*
D03*
X-1469206Y-160843D02*
G54D12*
D03*
X-1330385Y-6826D02*
G54D10*
D03*
X-1406635Y-6775D02*
G54D10*
D03*
X-1120811Y-102553D02*
G54D10*
D03*
X-1120861Y-178803D02*
G54D10*
D03*
X-1082711Y-194628D02*
G54D10*
D03*
X-1082762Y-270878D02*
G54D10*
D03*
X-1450930Y-288623D02*
G54D12*
D03*
X-873080Y-28273D02*
G54D12*
D03*
X-1095499Y44058D02*
G54D10*
D03*
X-1019249Y44008D02*
G54D10*
D03*
X-1158110Y4314D02*
G54D10*
D03*
X-1158110Y52114D02*
G54D10*
D03*
X-1005700Y-5268D02*
G54D10*
D03*
X-1056681Y-5380D02*
G54D10*
D03*
X-765447Y-211012D02*
G54D11*
D03*
X-781347Y-228587D02*
G54D11*
D03*
X-765412Y-246203D02*
G54D11*
D03*
X-896041Y-254446D02*
G54D10*
D03*
X-819791Y-254496D02*
G54D10*
D03*
X-997641Y-229046D02*
G54D10*
D03*
X-921391Y-229096D02*
G54D10*
D03*
X-515041Y-330646D02*
G54D10*
D03*
X-62396Y-2446701D02*
G54D10*
D03*
X-62397Y-2421201D02*
G54D10*
D03*
X-78978Y52546D02*
G54D14*
D03*
X-2396728Y-1420654D02*
G54D14*
D03*
X-2236392Y-58323D02*
G54D12*
D03*
X-2258843Y-80774D02*
G54D12*
D03*
X-2188767Y-23398D02*
G54D12*
D03*
X-2201467Y-55148D02*
G54D12*
D03*
X-1200502Y-1162494D02*
G54D32*
D03*
X-1162402Y-1121219D02*
G54D32*
D03*
X-1289322Y-14162D02*
G54D11*
D03*
X-1305222Y-31737D02*
G54D11*
D03*
X-1289287Y-49353D02*
G54D11*
D03*
X-2146618Y-136164D02*
G54D12*
D03*
X-2121218Y-136164D02*
G54D12*
D03*
X-1841818Y41636D02*
G54D12*
D03*
X-1816418Y41636D02*
G54D12*
D03*
X-1841818Y-21864D02*
G54D12*
D03*
X-1564510Y23364D02*
G54D10*
D03*
X-1564510Y71164D02*
G54D10*
D03*
X-1780123Y-2783232D02*
G54D11*
D03*
X-1762548Y-2799132D02*
G54D11*
D03*
X-1744932Y-2783197D02*
G54D11*
D03*
X-1627864Y-2847255D02*
G54D10*
D03*
X-1556368Y-2847313D02*
G54D10*
D03*
X-1671442Y-2773444D02*
G54D10*
D03*
X-1671499Y-2844941D02*
G54D10*
D03*
X-121376Y-1907676D02*
G54D21*
D03*
X-1268297Y-1490896D02*
G54D15*
D03*
X-1265122Y-1332146D02*
G54D15*
D03*
X-1268297Y-1624246D02*
G54D15*
D03*
X-1268297Y-1757596D02*
G54D15*
D03*
X-1268297Y-1890946D02*
G54D15*
D03*
X-1268297Y-2024296D02*
G54D15*
D03*
X-1306397Y-2335446D02*
G54D15*
D03*
X-1230197Y-2294171D02*
G54D15*
D03*
X-2130142Y108252D02*
G54D12*
D03*
X-2079342Y108252D02*
G54D12*
D03*
X-2028542Y108252D02*
G54D12*
D03*
X-1977742Y108252D02*
G54D12*
D03*
X-390242Y108252D02*
G54D12*
D03*
X-339442Y108252D02*
G54D12*
D03*
X-288642Y108252D02*
G54D12*
D03*
X-237842Y108252D02*
G54D12*
D03*
X-466442Y108252D02*
G54D12*
D03*
X-2003142Y63802D02*
G54D12*
D03*
X-446318Y-34800D02*
G54D29*
D03*
X-446318Y-9400D02*
G54D29*
D03*
X-395518Y-34800D02*
G54D29*
D03*
X-395518Y-9400D02*
G54D29*
D03*
X-446318Y66800D02*
G54D29*
D03*
X-395518Y66800D02*
G54D29*
D03*
X-357418Y-34800D02*
G54D29*
D03*
X-357418Y-9400D02*
G54D29*
D03*
X-306618Y-34800D02*
G54D29*
D03*
X-306618Y-9400D02*
G54D29*
D03*
X-357418Y66800D02*
G54D29*
D03*
X-306618Y66800D02*
G54D29*
D03*
X-268518Y-34800D02*
G54D29*
D03*
X-268518Y-9400D02*
G54D29*
D03*
X-217718Y-34800D02*
G54D29*
D03*
X-217718Y-9400D02*
G54D29*
D03*
X-268518Y66800D02*
G54D29*
D03*
X-217718Y66800D02*
G54D29*
D03*
X-179618Y-34800D02*
G54D29*
D03*
X-179618Y-9400D02*
G54D29*
D03*
X-128818Y-34800D02*
G54D29*
D03*
X-128818Y-9400D02*
G54D29*
D03*
X-179618Y66800D02*
G54D29*
D03*
X-128818Y66800D02*
G54D29*
D03*
X-466442Y-120348D02*
G54D12*
D03*
X-426151Y-197369D02*
G54D10*
D03*
X-426101Y-121120D02*
G54D10*
D03*
X-337251Y-197369D02*
G54D10*
D03*
X-337201Y-121120D02*
G54D10*
D03*
X-242001Y-197369D02*
G54D10*
D03*
X-241951Y-121120D02*
G54D10*
D03*
X-286451Y-197369D02*
G54D10*
D03*
X-286401Y-121120D02*
G54D10*
D03*
X-375351Y-197369D02*
G54D10*
D03*
X-375301Y-121120D02*
G54D10*
D03*
X-197551Y-197369D02*
G54D10*
D03*
X-197501Y-121120D02*
G54D10*
D03*
X-106111Y-197369D02*
G54D10*
D03*
X-106061Y-121120D02*
G54D10*
D03*
X-153101Y-197369D02*
G54D10*
D03*
X-153051Y-121120D02*
G54D10*
D03*
X-444500Y-79250D02*
G54D21*
D03*
X-419100Y-79250D02*
G54D21*
D03*
X-393700Y-79250D02*
G54D21*
D03*
X-355600Y-79250D02*
G54D21*
D03*
X-330200Y-79250D02*
G54D21*
D03*
X-304800Y-79250D02*
G54D21*
D03*
X-266700Y-79250D02*
G54D21*
D03*
X-241300Y-79250D02*
G54D21*
D03*
X-215900Y-79250D02*
G54D21*
D03*
X-177800Y-79250D02*
G54D21*
D03*
X-152400Y-79250D02*
G54D21*
D03*
X-127000Y-79250D02*
G54D21*
D03*
X-453742Y-272748D02*
G54D15*
D03*
X-444500Y-79250D02*
G54D12*
D03*
X-355600Y-79250D02*
G54D12*
D03*
X-266700Y-79250D02*
G54D12*
D03*
X-177800Y-79250D02*
G54D12*
D03*
X-443742Y-52748D02*
G54D15*
D03*
X-393742Y-52748D02*
G54D15*
D03*
X-358742Y-52748D02*
G54D15*
D03*
X-303742Y-52748D02*
G54D15*
D03*
X-268742Y-52748D02*
G54D15*
D03*
X-213742Y-52748D02*
G54D15*
D03*
X-178742Y-52748D02*
G54D15*
D03*
X-126180Y-53245D02*
G54D15*
D03*
X-516442Y43252D02*
G54D12*
D03*
X-86442Y-2171748D02*
G54D12*
D03*
X-66442Y-26748D02*
G54D12*
D03*
M02*
