%FSLAX34Y34*%
%MOMM*%
%LNSOLDERMASK_TOP*%
G71*
G01*
%ADD10C,2.600*%
%ADD11C,2.400*%
%ADD12C,2.800*%
%ADD13C,2.600*%
%ADD14C,5.100*%
%ADD15C,1.600*%
%ADD16C,3.100*%
%ADD17C,7.600*%
%ADD18C,3.200*%
%ADD19C,2.900*%
%ADD20C,2.600*%
%ADD21C,2.600*%
%ADD22C,2.400*%
%ADD23C,2.500*%
%ADD24C,2.600*%
%ADD25C,3.600*%
%ADD26C,2.800*%
%ADD27C,3.000*%
%ADD28C,1.800*%
%ADD29C,1.600*%
%ADD30C,2.000*%
%ADD31C,2.500*%
%ADD32C,2.700*%
%ADD33C,2.700*%
%ADD34C,2.800*%
%ADD35C,4.200*%
%ADD36C,2.700*%
%ADD37C,2.800*%
%ADD38C,2.100*%
%ADD39C,1.600*%
%ADD40C,6.600*%
%ADD41C,4.200*%
%ADD42C,4.600*%
%ADD43C,5.600*%
%ADD44C,2.500*%
%ADD45C,2.250*%
%ADD46C,5.200*%
%LPD*%
X499372Y612809D02*
G54D10*
D03*
X499422Y689059D02*
G54D10*
D03*
X418378Y609409D02*
G54D10*
D03*
X418491Y558428D02*
G54D10*
D03*
X532678Y584009D02*
G54D10*
D03*
X532790Y533028D02*
G54D10*
D03*
X499388Y384209D02*
G54D10*
D03*
X499438Y460459D02*
G54D10*
D03*
X620109Y640823D02*
G54D10*
D03*
X543859Y640873D02*
G54D10*
D03*
X545068Y460459D02*
G54D10*
D03*
X545018Y384209D02*
G54D10*
D03*
X677171Y612808D02*
G54D10*
D03*
X677221Y689058D02*
G54D10*
D03*
X574503Y488293D02*
G54D10*
D03*
X672068Y485859D02*
G54D10*
D03*
X672018Y409609D02*
G54D10*
D03*
X748268Y485859D02*
G54D10*
D03*
X748218Y409609D02*
G54D10*
D03*
X799068Y485859D02*
G54D10*
D03*
X799018Y409609D02*
G54D10*
D03*
X898539Y551904D02*
G54D10*
D03*
X847558Y551791D02*
G54D10*
D03*
X827084Y682627D02*
G54D10*
D03*
X750834Y682677D02*
G54D10*
D03*
X611743Y565234D02*
G54D11*
D03*
X595843Y547659D02*
G54D11*
D03*
X611777Y530043D02*
G54D11*
D03*
X713343Y565234D02*
G54D11*
D03*
X697443Y547659D02*
G54D11*
D03*
X713377Y530043D02*
G54D11*
D03*
X789542Y565234D02*
G54D11*
D03*
X773642Y547659D02*
G54D11*
D03*
X789578Y530043D02*
G54D11*
D03*
X392643Y489134D02*
G54D12*
D03*
X443443Y489134D02*
G54D12*
D03*
X418043Y463734D02*
G54D12*
D03*
X443443Y438334D02*
G54D12*
D03*
X392643Y438334D02*
G54D12*
D03*
X862542Y489134D02*
G54D12*
D03*
X913342Y489134D02*
G54D12*
D03*
X887942Y463734D02*
G54D12*
D03*
X913342Y438334D02*
G54D12*
D03*
X862542Y438334D02*
G54D12*
D03*
X564069Y713443D02*
G54D10*
D03*
X615049Y713556D02*
G54D10*
D03*
X499388Y384209D02*
G54D13*
D03*
X374966Y743828D02*
G54D14*
D03*
X625303Y488293D02*
G54D10*
D03*
X627618Y460459D02*
G54D10*
D03*
X627568Y384209D02*
G54D10*
D03*
X456618Y745609D02*
G54D10*
D03*
X367843Y539834D02*
G54D15*
D03*
X545018Y384209D02*
G54D13*
D03*
X627568Y384209D02*
G54D13*
D03*
X672018Y409609D02*
G54D13*
D03*
X748218Y409609D02*
G54D13*
D03*
X934799Y743034D02*
G54D14*
D03*
X374966Y385052D02*
G54D14*
D03*
X934164Y386640D02*
G54D14*
D03*
X424993Y666834D02*
G54D15*
D03*
X421817Y666834D02*
G54D16*
D03*
X893542Y666834D02*
G54D16*
D03*
X507593Y77593D02*
G54D17*
D03*
X437743Y217294D02*
G54D17*
D03*
X371068Y217293D02*
G54D18*
D03*
X574268Y77593D02*
G54D18*
D03*
X162193Y227393D02*
G54D19*
D03*
X242193Y227393D02*
G54D20*
D03*
X707193Y222393D02*
G54D20*
D03*
X787193Y222393D02*
G54D20*
D03*
X242193Y227393D02*
G54D19*
D03*
X707193Y222393D02*
G54D19*
D03*
X787193Y222393D02*
G54D12*
D03*
X182193Y227393D02*
G54D19*
D03*
X222193Y227393D02*
G54D19*
D03*
X727193Y222394D02*
G54D19*
D03*
X767193Y222393D02*
G54D19*
D03*
X37768Y111063D02*
G54D12*
D03*
X37768Y161863D02*
G54D12*
D03*
X63168Y136463D02*
G54D12*
D03*
X88568Y161864D02*
G54D12*
D03*
X88568Y111063D02*
G54D12*
D03*
X37768Y109793D02*
G54D21*
D03*
X88568Y109793D02*
G54D13*
D03*
X863268Y109793D02*
G54D12*
D03*
X863268Y160593D02*
G54D12*
D03*
X888668Y135193D02*
G54D12*
D03*
X914068Y160593D02*
G54D12*
D03*
X914068Y109793D02*
G54D12*
D03*
X863268Y109793D02*
G54D21*
D03*
X914068Y109793D02*
G54D13*
D03*
X736726Y21156D02*
G54D10*
D03*
X736726Y91006D02*
G54D10*
D03*
X806576Y21156D02*
G54D10*
D03*
X806576Y91006D02*
G54D10*
D03*
X774826Y91006D02*
G54D10*
D03*
X774826Y21156D02*
G54D10*
D03*
X806576Y21156D02*
G54D13*
D03*
X806576Y91006D02*
G54D13*
D03*
X146175Y21156D02*
G54D10*
D03*
X146175Y91006D02*
G54D10*
D03*
X216025Y21156D02*
G54D10*
D03*
X216026Y91006D02*
G54D10*
D03*
X184275Y91006D02*
G54D10*
D03*
X184275Y21156D02*
G54D10*
D03*
X216026Y21156D02*
G54D13*
D03*
X216026Y91006D02*
G54D13*
D03*
X787193Y222393D02*
G54D19*
D03*
X260476Y91006D02*
G54D21*
D03*
X685926Y91006D02*
G54D21*
D03*
X901468Y224118D02*
G54D21*
D03*
X56918Y46318D02*
G54D21*
D03*
X37768Y160593D02*
G54D13*
D03*
X88568Y160594D02*
G54D13*
D03*
X863268Y160593D02*
G54D13*
D03*
X914068Y160593D02*
G54D13*
D03*
X914068Y109793D02*
G54D13*
D03*
X374966Y-92785D02*
G54D14*
D03*
X934799Y-93578D02*
G54D14*
D03*
X374966Y-451560D02*
G54D14*
D03*
X934164Y-449972D02*
G54D14*
D03*
X888542Y-169778D02*
G54D16*
D03*
X-302057Y547294D02*
G54D22*
D03*
X-225858Y547294D02*
G54D22*
D03*
X-225857Y623494D02*
G54D22*
D03*
X-302057Y623494D02*
G54D22*
D03*
X-225945Y758517D02*
G54D10*
D03*
X-225945Y669617D02*
G54D10*
D03*
X-264045Y669617D02*
G54D10*
D03*
X-295795Y669617D02*
G54D10*
D03*
X-235588Y406727D02*
G54D10*
D03*
X-299088Y501977D02*
G54D10*
D03*
X-267338Y501977D02*
G54D10*
D03*
X-235588Y501977D02*
G54D10*
D03*
X-207106Y514266D02*
G54D10*
D03*
X-299088Y755977D02*
G54D10*
D03*
X-181495Y771217D02*
G54D10*
D03*
X-19067Y623528D02*
G54D10*
D03*
X38083Y623528D02*
G54D10*
D03*
X66783Y699728D02*
G54D10*
D03*
X66783Y756878D02*
G54D10*
D03*
X5733Y557904D02*
G54D10*
D03*
X-48219Y504022D02*
G54D10*
D03*
X5733Y557904D02*
G54D13*
D03*
X133508Y561956D02*
G54D10*
D03*
X57259Y562006D02*
G54D10*
D03*
X133508Y561956D02*
G54D13*
D03*
X12683Y483828D02*
G54D10*
D03*
X63483Y483828D02*
G54D10*
D03*
X63483Y483828D02*
G54D10*
D03*
X92090Y387722D02*
G54D10*
D03*
X91978Y438702D02*
G54D10*
D03*
X92090Y387722D02*
G54D10*
D03*
X66783Y661628D02*
G54D10*
D03*
X98533Y483828D02*
G54D10*
D03*
X-52087Y623528D02*
G54D10*
D03*
X-41167Y687028D02*
G54D10*
D03*
X-164863Y685532D02*
G54D12*
D03*
X-88663Y685532D02*
G54D12*
D03*
X-164863Y609332D02*
G54D12*
D03*
X-164863Y558532D02*
G54D12*
D03*
X-164863Y507732D02*
G54D12*
D03*
X-88663Y609332D02*
G54D12*
D03*
X-88663Y558532D02*
G54D12*
D03*
X-88663Y507732D02*
G54D12*
D03*
X-177364Y337170D02*
G54D23*
D03*
X-177364Y438770D02*
G54D23*
D03*
X-177364Y337170D02*
G54D13*
D03*
X-88663Y685532D02*
G54D10*
D03*
X57588Y402729D02*
G54D10*
D03*
X1368Y404974D02*
G54D10*
D03*
X1368Y404974D02*
G54D10*
D03*
X-49432Y404974D02*
G54D10*
D03*
G54D24*
X-79248Y357252D02*
X-93390Y371394D01*
G54D24*
X-133223Y357252D02*
X-147365Y371394D01*
X-353457Y642228D02*
G54D21*
D03*
X-353457Y616828D02*
G54D21*
D03*
X-80407Y756528D02*
G54D21*
D03*
X-302058Y623494D02*
G54D25*
D03*
X-302057Y547294D02*
G54D25*
D03*
X-225858Y547294D02*
G54D25*
D03*
X-225857Y623494D02*
G54D25*
D03*
X276421Y-210908D02*
G54D22*
D03*
X200222Y-210908D02*
G54D22*
D03*
X200221Y-287108D02*
G54D22*
D03*
X276422Y-287108D02*
G54D22*
D03*
X200309Y-422131D02*
G54D10*
D03*
X200309Y-333231D02*
G54D10*
D03*
X238409Y-333231D02*
G54D10*
D03*
X270159Y-333231D02*
G54D10*
D03*
X273453Y-102091D02*
G54D10*
D03*
X209953Y-102091D02*
G54D10*
D03*
X273452Y-165591D02*
G54D10*
D03*
X241703Y-165591D02*
G54D10*
D03*
X209953Y-165591D02*
G54D10*
D03*
X181470Y-177880D02*
G54D10*
D03*
X273452Y-419591D02*
G54D10*
D03*
X321472Y-378867D02*
G54D21*
D03*
X321472Y-353467D02*
G54D21*
D03*
X321472Y-112167D02*
G54D21*
D03*
X276422Y-287108D02*
G54D25*
D03*
X276421Y-210908D02*
G54D25*
D03*
X200222Y-210908D02*
G54D25*
D03*
X200221Y-287108D02*
G54D25*
D03*
X-2787Y-340489D02*
G54D12*
D03*
X387Y-219839D02*
G54D12*
D03*
X117863Y-340489D02*
G54D12*
D03*
X117863Y-219839D02*
G54D12*
D03*
X57538Y-200376D02*
G54D12*
D03*
X387Y-219839D02*
G54D26*
D03*
X26234Y-156258D02*
G54D12*
D03*
X127834Y-156258D02*
G54D12*
D03*
X215134Y-480398D02*
G54D12*
D03*
X215134Y-505798D02*
G54D12*
D03*
X253234Y-505798D02*
G54D12*
D03*
X253234Y-543898D02*
G54D12*
D03*
X167729Y-488404D02*
G54D10*
D03*
X167842Y-539384D02*
G54D10*
D03*
X167729Y-488404D02*
G54D10*
D03*
X167841Y-539385D02*
G54D10*
D03*
X129629Y-488404D02*
G54D10*
D03*
X129741Y-539384D02*
G54D10*
D03*
X129629Y-488404D02*
G54D10*
D03*
X129741Y-539385D02*
G54D10*
D03*
X253234Y-480398D02*
G54D12*
D03*
X64201Y-120448D02*
G54D10*
D03*
X26234Y-156258D02*
G54D12*
D03*
X-165808Y178041D02*
G54D27*
D03*
X-165808Y127241D02*
G54D27*
D03*
X-210258Y152642D02*
G54D27*
D03*
X-210258Y108191D02*
G54D27*
D03*
X-210258Y197091D02*
G54D27*
D03*
X-197558Y254241D02*
G54D10*
D03*
X-222958Y254241D02*
G54D10*
D03*
X-258643Y79616D02*
G54D10*
D03*
X-334893Y79666D02*
G54D10*
D03*
X-337585Y45356D02*
G54D10*
D03*
X-261335Y45306D02*
G54D10*
D03*
X-321651Y13880D02*
G54D10*
D03*
X-270671Y13992D02*
G54D10*
D03*
X-292808Y247979D02*
G54D10*
D03*
X-292808Y200179D02*
G54D10*
D03*
X-289198Y-53646D02*
G54D10*
D03*
X-289248Y-129896D02*
G54D10*
D03*
X-229308Y-104708D02*
G54D10*
D03*
X-229308Y-56909D02*
G54D10*
D03*
X-316752Y135135D02*
G54D10*
D03*
X-281652Y135136D02*
G54D10*
D03*
X-191208Y9591D02*
G54D10*
D03*
X-191208Y57392D02*
G54D10*
D03*
X-337530Y-22291D02*
G54D10*
D03*
X-261280Y-22341D02*
G54D10*
D03*
X-90333Y101286D02*
G54D10*
D03*
X-337585Y45356D02*
G54D10*
D03*
X-337530Y-22290D02*
G54D10*
D03*
X-229308Y-104708D02*
G54D10*
D03*
X-289248Y-129896D02*
G54D10*
D03*
G36*
X-314858Y192311D02*
X-314858Y166311D01*
X-340858Y166311D01*
X-340858Y192311D01*
X-314858Y192311D01*
G37*
X-115008Y-60170D02*
G54D28*
D03*
X-115008Y-85570D02*
G54D29*
D03*
X-165808Y-60171D02*
G54D29*
D03*
X-165808Y-85571D02*
G54D28*
D03*
X-115008Y-161771D02*
G54D29*
D03*
X-165808Y-161771D02*
G54D29*
D03*
X-112976Y-29405D02*
G54D12*
D03*
X-110812Y-259379D02*
G54D21*
D03*
X-165808Y-60171D02*
G54D28*
D03*
X-115008Y-161771D02*
G54D28*
D03*
X-165808Y-161771D02*
G54D28*
D03*
G36*
X513105Y-770509D02*
X513105Y-750509D01*
X533105Y-750509D01*
X533105Y-770509D01*
X513105Y-770509D01*
G37*
X523105Y-735109D02*
G54D30*
D03*
X523105Y-709709D02*
G54D30*
D03*
X523105Y-684309D02*
G54D30*
D03*
X446906Y-684309D02*
G54D30*
D03*
X446906Y-709709D02*
G54D30*
D03*
X446906Y-735109D02*
G54D30*
D03*
X446906Y-760509D02*
G54D30*
D03*
X446906Y-709709D02*
G54D31*
D03*
X818856Y-725148D02*
G54D10*
D03*
X818856Y-699648D02*
G54D10*
D03*
X248866Y-828484D02*
G54D10*
D03*
X273761Y-744899D02*
G54D10*
D03*
X273811Y-668649D02*
G54D10*
D03*
X138569Y-823491D02*
G54D10*
D03*
X138569Y-797991D02*
G54D10*
D03*
X680826Y-761207D02*
G54D10*
D03*
X680776Y-837458D02*
G54D10*
D03*
X680826Y-761207D02*
G54D10*
D03*
X742710Y-779140D02*
G54D10*
D03*
X742710Y-826940D02*
G54D10*
D03*
X642725Y-761207D02*
G54D10*
D03*
X642676Y-837458D02*
G54D10*
D03*
X642726Y-761207D02*
G54D10*
D03*
X662381Y-707434D02*
G54D11*
D03*
X678281Y-689859D02*
G54D11*
D03*
X662346Y-672243D02*
G54D11*
D03*
X735754Y-672640D02*
G54D10*
D03*
X735866Y-723621D02*
G54D10*
D03*
X735754Y-672641D02*
G54D10*
D03*
X730824Y-632513D02*
G54D10*
D03*
X654574Y-632463D02*
G54D10*
D03*
X730824Y-632513D02*
G54D10*
D03*
X717791Y-598541D02*
G54D10*
D03*
X666811Y-598653D02*
G54D10*
D03*
X717790Y-598540D02*
G54D10*
D03*
X596054Y-774240D02*
G54D10*
D03*
X596166Y-825221D02*
G54D10*
D03*
X596054Y-774241D02*
G54D10*
D03*
X742710Y-779140D02*
G54D10*
D03*
X730824Y-632513D02*
G54D10*
D03*
X717791Y-598541D02*
G54D10*
D03*
X776076Y-602457D02*
G54D10*
D03*
X776026Y-678708D02*
G54D10*
D03*
X776076Y-602457D02*
G54D10*
D03*
X776076Y-602457D02*
G54D10*
D03*
X596054Y-774240D02*
G54D10*
D03*
X560016Y-714184D02*
G54D10*
D03*
X607816Y-714184D02*
G54D10*
D03*
X574260Y-611785D02*
G54D10*
D03*
X628142Y-665738D02*
G54D10*
D03*
X574261Y-611784D02*
G54D10*
D03*
X574261Y-611785D02*
G54D10*
D03*
X534199Y-640684D02*
G54D10*
D03*
X457949Y-640634D02*
G54D10*
D03*
X481702Y-596758D02*
G54D10*
D03*
X532682Y-596646D02*
G54D10*
D03*
X481702Y-596758D02*
G54D10*
D03*
X534199Y-640684D02*
G54D10*
D03*
X532683Y-596646D02*
G54D10*
D03*
X350466Y-828484D02*
G54D10*
D03*
X398266Y-828484D02*
G54D10*
D03*
X248866Y-828484D02*
G54D10*
D03*
X296666Y-828484D02*
G54D10*
D03*
X452066Y-828484D02*
G54D10*
D03*
X499866Y-828484D02*
G54D10*
D03*
X452066Y-828484D02*
G54D10*
D03*
X557001Y-767557D02*
G54D10*
D03*
X556951Y-843808D02*
G54D10*
D03*
X557001Y-767557D02*
G54D10*
D03*
X394499Y-754984D02*
G54D10*
D03*
X318249Y-754934D02*
G54D10*
D03*
X394499Y-754984D02*
G54D10*
D03*
X316920Y-711110D02*
G54D10*
D03*
X316808Y-660130D02*
G54D10*
D03*
X316920Y-711110D02*
G54D10*
D03*
X316808Y-660129D02*
G54D10*
D03*
X357181Y-642234D02*
G54D10*
D03*
X263165Y-604816D02*
G54D10*
D03*
X310965Y-604816D02*
G54D10*
D03*
X273761Y-744899D02*
G54D10*
D03*
X249643Y-775696D02*
G54D10*
D03*
X195691Y-829578D02*
G54D10*
D03*
X249643Y-775697D02*
G54D10*
D03*
X820467Y-596203D02*
G54D10*
D03*
X263165Y-604816D02*
G54D12*
D03*
X170291Y-721628D02*
G54D12*
D03*
X170290Y-823228D02*
G54D12*
D03*
X170291Y-721628D02*
G54D12*
D03*
X138569Y-797991D02*
G54D12*
D03*
X820467Y-596203D02*
G54D10*
D03*
X820417Y-672453D02*
G54D10*
D03*
X820468Y-596203D02*
G54D10*
D03*
X820467Y-596203D02*
G54D10*
D03*
X776076Y-602457D02*
G54D10*
D03*
X717791Y-598541D02*
G54D10*
D03*
X730824Y-632513D02*
G54D10*
D03*
X574260Y-611785D02*
G54D10*
D03*
X534199Y-640684D02*
G54D10*
D03*
X532683Y-596646D02*
G54D10*
D03*
X742710Y-779140D02*
G54D10*
D03*
X357181Y-642234D02*
G54D10*
D03*
X452066Y-828484D02*
G54D10*
D03*
X248866Y-828484D02*
G54D10*
D03*
X249643Y-775697D02*
G54D10*
D03*
X273761Y-744899D02*
G54D10*
D03*
X170291Y-721628D02*
G54D10*
D03*
X895106Y-725198D02*
G54D10*
D03*
X818856Y-725148D02*
G54D10*
D03*
X895105Y-699698D02*
G54D10*
D03*
X818856Y-699648D02*
G54D10*
D03*
X-900799Y-8858D02*
G54D10*
D03*
X-970649Y-8858D02*
G54D10*
D03*
X-900799Y60992D02*
G54D10*
D03*
X-970649Y60992D02*
G54D10*
D03*
X-970649Y29242D02*
G54D10*
D03*
X-900799Y29242D02*
G54D10*
D03*
X-857390Y-17629D02*
G54D32*
D03*
X-806410Y-17517D02*
G54D32*
D03*
X-678549Y-8858D02*
G54D10*
D03*
X-748399Y-8858D02*
G54D10*
D03*
X-678549Y60992D02*
G54D10*
D03*
X-748399Y60992D02*
G54D10*
D03*
X-748399Y29242D02*
G54D10*
D03*
X-678549Y29242D02*
G54D10*
D03*
X-796326Y26469D02*
G54D10*
D03*
X-796439Y77449D02*
G54D10*
D03*
X-859826Y26469D02*
G54D10*
D03*
X-859939Y77449D02*
G54D10*
D03*
X-678550Y60992D02*
G54D13*
D03*
X-748399Y60992D02*
G54D13*
D03*
X-796438Y77450D02*
G54D33*
D03*
X-859939Y77450D02*
G54D13*
D03*
X-900799Y60992D02*
G54D13*
D03*
X-970649Y60992D02*
G54D13*
D03*
X-859826Y26469D02*
G54D32*
D03*
X-859939Y77449D02*
G54D32*
D03*
X-796439Y77449D02*
G54D32*
D03*
X-796326Y26469D02*
G54D32*
D03*
X-624336Y95434D02*
G54D12*
D03*
X-503686Y92260D02*
G54D12*
D03*
X-624336Y-25216D02*
G54D12*
D03*
X-503686Y-25216D02*
G54D12*
D03*
X-484874Y35109D02*
G54D12*
D03*
X-610829Y-71496D02*
G54D23*
D03*
X-509229Y-71495D02*
G54D23*
D03*
X-503686Y92260D02*
G54D12*
D03*
X-1039330Y-37304D02*
G54D12*
D03*
X-1159980Y-34130D02*
G54D12*
D03*
X-1039330Y83346D02*
G54D12*
D03*
X-1159980Y83346D02*
G54D12*
D03*
X-1178793Y23021D02*
G54D12*
D03*
X-1159980Y-34130D02*
G54D12*
D03*
X-1159980Y83346D02*
G54D12*
D03*
X-1156929Y-71496D02*
G54D23*
D03*
X-1055329Y-71495D02*
G54D23*
D03*
X-610829Y-71496D02*
G54D10*
D03*
X-1156929Y-71496D02*
G54D10*
D03*
X-900799Y207042D02*
G54D10*
D03*
X-970649Y207042D02*
G54D10*
D03*
X-900799Y276892D02*
G54D10*
D03*
X-970649Y276892D02*
G54D10*
D03*
X-970649Y245142D02*
G54D10*
D03*
X-900799Y245142D02*
G54D10*
D03*
X-857390Y198271D02*
G54D32*
D03*
X-806410Y198383D02*
G54D32*
D03*
X-678549Y207042D02*
G54D10*
D03*
X-748399Y207042D02*
G54D10*
D03*
X-678549Y276892D02*
G54D10*
D03*
X-748399Y276892D02*
G54D10*
D03*
X-748399Y245142D02*
G54D10*
D03*
X-678549Y245142D02*
G54D10*
D03*
X-796326Y242369D02*
G54D10*
D03*
X-796439Y293350D02*
G54D10*
D03*
X-859826Y242369D02*
G54D10*
D03*
X-859939Y293349D02*
G54D10*
D03*
X-678550Y276892D02*
G54D13*
D03*
X-748399Y276892D02*
G54D13*
D03*
X-796438Y293350D02*
G54D33*
D03*
X-859939Y293350D02*
G54D13*
D03*
X-900799Y276892D02*
G54D13*
D03*
X-970649Y276892D02*
G54D13*
D03*
X-859826Y242369D02*
G54D32*
D03*
X-859939Y293349D02*
G54D32*
D03*
X-796439Y293350D02*
G54D32*
D03*
X-796326Y242369D02*
G54D32*
D03*
X-624336Y311334D02*
G54D12*
D03*
X-503686Y308160D02*
G54D12*
D03*
X-624336Y190684D02*
G54D12*
D03*
X-503686Y190684D02*
G54D12*
D03*
X-484874Y251009D02*
G54D12*
D03*
X-610829Y144404D02*
G54D23*
D03*
X-509229Y144405D02*
G54D23*
D03*
X-503686Y308160D02*
G54D12*
D03*
X-1039330Y178596D02*
G54D12*
D03*
X-1159980Y181770D02*
G54D12*
D03*
X-1039330Y299246D02*
G54D12*
D03*
X-1159980Y299246D02*
G54D12*
D03*
X-1178793Y238921D02*
G54D12*
D03*
X-1159980Y181769D02*
G54D12*
D03*
X-1159980Y299246D02*
G54D12*
D03*
X-1156929Y144404D02*
G54D23*
D03*
X-1055329Y144405D02*
G54D23*
D03*
X-610829Y144404D02*
G54D10*
D03*
X-1156929Y144404D02*
G54D10*
D03*
X-900799Y422942D02*
G54D10*
D03*
X-970649Y422942D02*
G54D10*
D03*
X-900799Y492792D02*
G54D10*
D03*
X-970649Y492792D02*
G54D10*
D03*
X-970649Y461042D02*
G54D10*
D03*
X-900799Y461042D02*
G54D10*
D03*
X-857390Y414171D02*
G54D32*
D03*
X-806410Y414283D02*
G54D32*
D03*
X-678549Y422942D02*
G54D10*
D03*
X-748399Y422942D02*
G54D10*
D03*
X-678549Y492792D02*
G54D10*
D03*
X-748399Y492792D02*
G54D10*
D03*
X-748399Y461042D02*
G54D10*
D03*
X-678549Y461042D02*
G54D10*
D03*
X-796326Y458269D02*
G54D10*
D03*
X-796439Y509250D02*
G54D10*
D03*
X-859826Y458269D02*
G54D10*
D03*
X-859939Y509250D02*
G54D10*
D03*
X-678550Y492792D02*
G54D13*
D03*
X-748399Y492792D02*
G54D13*
D03*
X-796438Y509250D02*
G54D33*
D03*
X-859939Y509250D02*
G54D13*
D03*
X-900799Y492792D02*
G54D13*
D03*
X-970649Y492792D02*
G54D13*
D03*
X-859826Y458269D02*
G54D32*
D03*
X-859939Y509250D02*
G54D32*
D03*
X-796439Y509250D02*
G54D32*
D03*
X-796326Y458269D02*
G54D32*
D03*
X-624336Y527234D02*
G54D12*
D03*
X-503686Y524060D02*
G54D12*
D03*
X-624336Y406584D02*
G54D12*
D03*
X-503686Y406584D02*
G54D12*
D03*
X-484874Y466909D02*
G54D12*
D03*
X-610829Y360304D02*
G54D23*
D03*
X-509229Y360304D02*
G54D23*
D03*
X-503686Y524060D02*
G54D12*
D03*
X-1039330Y394496D02*
G54D12*
D03*
X-1159980Y397670D02*
G54D12*
D03*
X-1039330Y515146D02*
G54D12*
D03*
X-1159980Y515146D02*
G54D12*
D03*
X-1178793Y454821D02*
G54D12*
D03*
X-1159980Y397670D02*
G54D12*
D03*
X-1159980Y515146D02*
G54D12*
D03*
X-1156929Y360304D02*
G54D23*
D03*
X-1055329Y360304D02*
G54D23*
D03*
X-610829Y360304D02*
G54D10*
D03*
X-1156929Y360304D02*
G54D10*
D03*
X-900799Y638842D02*
G54D10*
D03*
X-970649Y638842D02*
G54D10*
D03*
X-900799Y708692D02*
G54D10*
D03*
X-970649Y708692D02*
G54D10*
D03*
X-970649Y676942D02*
G54D10*
D03*
X-900799Y676942D02*
G54D10*
D03*
X-857390Y630071D02*
G54D32*
D03*
X-806410Y630183D02*
G54D32*
D03*
X-678549Y638842D02*
G54D10*
D03*
X-748399Y638842D02*
G54D10*
D03*
X-678549Y708692D02*
G54D10*
D03*
X-748399Y708692D02*
G54D10*
D03*
X-748399Y676942D02*
G54D10*
D03*
X-678549Y676942D02*
G54D10*
D03*
X-796326Y674169D02*
G54D10*
D03*
X-796439Y725150D02*
G54D10*
D03*
X-859826Y674169D02*
G54D10*
D03*
X-859939Y725149D02*
G54D10*
D03*
X-678550Y708692D02*
G54D13*
D03*
X-748399Y708692D02*
G54D13*
D03*
X-796438Y725150D02*
G54D33*
D03*
X-859939Y725150D02*
G54D13*
D03*
X-900799Y708692D02*
G54D13*
D03*
X-970649Y708692D02*
G54D13*
D03*
X-859826Y674169D02*
G54D32*
D03*
X-859939Y725149D02*
G54D32*
D03*
X-796439Y725149D02*
G54D32*
D03*
X-796326Y674169D02*
G54D32*
D03*
X-624336Y743134D02*
G54D12*
D03*
X-503686Y739960D02*
G54D12*
D03*
X-624336Y622484D02*
G54D12*
D03*
X-503686Y622484D02*
G54D12*
D03*
X-484874Y682809D02*
G54D12*
D03*
X-610829Y576204D02*
G54D23*
D03*
X-509229Y576204D02*
G54D23*
D03*
X-503686Y739960D02*
G54D12*
D03*
X-1039330Y610396D02*
G54D12*
D03*
X-1159980Y613570D02*
G54D12*
D03*
X-1039330Y731046D02*
G54D12*
D03*
X-1159980Y731046D02*
G54D12*
D03*
X-1178793Y670721D02*
G54D12*
D03*
X-1159980Y613570D02*
G54D12*
D03*
X-1159980Y731046D02*
G54D12*
D03*
X-1156929Y576204D02*
G54D23*
D03*
X-1055329Y576204D02*
G54D23*
D03*
X-610829Y576204D02*
G54D10*
D03*
X-1156929Y576204D02*
G54D10*
D03*
X-675675Y-100531D02*
G54D32*
D03*
X-675675Y-100531D02*
G54D32*
D03*
X-770925Y-100531D02*
G54D32*
D03*
X-770925Y-100531D02*
G54D32*
D03*
X-878875Y-100531D02*
G54D32*
D03*
X-878875Y-100531D02*
G54D32*
D03*
X-967775Y-100531D02*
G54D32*
D03*
X-967775Y-100531D02*
G54D32*
D03*
X-675675Y801169D02*
G54D32*
D03*
X-675675Y801169D02*
G54D32*
D03*
X-770925Y801169D02*
G54D32*
D03*
X-770925Y801169D02*
G54D32*
D03*
X-878875Y801169D02*
G54D32*
D03*
X-878875Y801169D02*
G54D32*
D03*
X-967775Y801169D02*
G54D32*
D03*
X-967775Y801169D02*
G54D32*
D03*
X-1224411Y354639D02*
G54D21*
D03*
X-430661Y354639D02*
G54D21*
D03*
X181292Y324728D02*
G54D14*
D03*
X190816Y797802D02*
G54D14*
D03*
X190816Y797803D02*
G54D14*
D03*
X-358458Y324728D02*
G54D14*
D03*
X-371158Y794628D02*
G54D14*
D03*
X-979512Y-478047D02*
G54D12*
D03*
X-982686Y-598697D02*
G54D12*
D03*
X-1100162Y-478047D02*
G54D12*
D03*
X-1100162Y-598697D02*
G54D12*
D03*
X-1039836Y-617510D02*
G54D12*
D03*
X-1107711Y-376178D02*
G54D12*
D03*
X-1104537Y-255528D02*
G54D12*
D03*
X-987062Y-376178D02*
G54D12*
D03*
X-987062Y-255528D02*
G54D12*
D03*
X-1047386Y-236240D02*
G54D12*
D03*
X-1152791Y-440754D02*
G54D23*
D03*
X-1152791Y-542354D02*
G54D23*
D03*
X-1152791Y-440754D02*
G54D10*
D03*
X-1152791Y-440754D02*
G54D12*
D03*
X-1156589Y-217558D02*
G54D23*
D03*
X-1156588Y-319159D02*
G54D23*
D03*
X-1156589Y-217558D02*
G54D10*
D03*
X-1156589Y-217558D02*
G54D12*
D03*
X-982686Y-598697D02*
G54D12*
D03*
X-987062Y-255528D02*
G54D12*
D03*
X-1104538Y-255528D02*
G54D12*
D03*
X-987062Y-255528D02*
G54D12*
D03*
X-1008301Y-169778D02*
G54D14*
D03*
X-55801Y-169778D02*
G54D14*
D03*
X-1008301Y-1068303D02*
G54D14*
D03*
X-55801Y-1071478D02*
G54D14*
D03*
X28254Y-430098D02*
G54D10*
D03*
X76054Y-430098D02*
G54D10*
D03*
X28254Y-430097D02*
G54D10*
D03*
X924150Y-842538D02*
G54D21*
D03*
X936850Y-645688D02*
G54D21*
D03*
X936851Y-671088D02*
G54D21*
D03*
X936850Y-1033038D02*
G54D21*
D03*
X936851Y-1058438D02*
G54D21*
D03*
X936850Y-785388D02*
G54D21*
D03*
X936851Y-810788D02*
G54D21*
D03*
X-89768Y-472279D02*
G54D34*
D03*
X-86593Y-567529D02*
G54D34*
D03*
X-86593Y-675479D02*
G54D34*
D03*
X-86593Y-767554D02*
G54D34*
D03*
X-517162Y-928017D02*
G54D35*
D03*
X-772862Y-928117D02*
G54D35*
D03*
X-672138Y-896192D02*
G54D36*
D03*
X-646762Y-896317D02*
G54D36*
D03*
X-621319Y-896292D02*
G54D36*
D03*
X-424057Y-829933D02*
G54D10*
D03*
X-424232Y-778941D02*
G54D10*
D03*
X-721988Y-766067D02*
G54D37*
D03*
X-771388Y-830167D02*
G54D37*
D03*
X-733388Y-830167D02*
G54D37*
D03*
X-760088Y-766067D02*
G54D37*
D03*
X-871262Y-816917D02*
G54D10*
D03*
X-871387Y-766000D02*
G54D10*
D03*
X-607737Y-788342D02*
G54D10*
D03*
X-531488Y-788392D02*
G54D10*
D03*
X-873837Y-885042D02*
G54D10*
D03*
X-873838Y-859542D02*
G54D10*
D03*
X-607738Y-835967D02*
G54D10*
D03*
X-531488Y-836017D02*
G54D10*
D03*
X-633138Y-416867D02*
G54D10*
D03*
X-684054Y-416992D02*
G54D10*
D03*
X-668062Y-461317D02*
G54D11*
D03*
X-650488Y-477217D02*
G54D11*
D03*
X-632872Y-461282D02*
G54D11*
D03*
X-661712Y-315267D02*
G54D10*
D03*
X-636288Y-315217D02*
G54D10*
D03*
X-607738Y-461317D02*
G54D10*
D03*
X-531562Y-461317D02*
G54D10*
D03*
X-785538Y-400992D02*
G54D10*
D03*
X-709288Y-401042D02*
G54D10*
D03*
X-626788Y-512117D02*
G54D10*
D03*
X-677704Y-512242D02*
G54D10*
D03*
X-633138Y-575617D02*
G54D11*
D03*
X-650738Y-559717D02*
G54D11*
D03*
X-668328Y-575652D02*
G54D11*
D03*
X-632762Y-636017D02*
G54D11*
D03*
X-650738Y-620042D02*
G54D11*
D03*
X-668328Y-635977D02*
G54D11*
D03*
X-607738Y-575617D02*
G54D10*
D03*
X-531562Y-575617D02*
G54D10*
D03*
X-633138Y-696317D02*
G54D11*
D03*
X-650738Y-680367D02*
G54D11*
D03*
X-668328Y-696302D02*
G54D11*
D03*
X-785538Y-632767D02*
G54D10*
D03*
X-709288Y-632817D02*
G54D10*
D03*
X-785329Y-676946D02*
G54D10*
D03*
X-709079Y-676996D02*
G54D10*
D03*
X-607738Y-696267D02*
G54D10*
D03*
X-531463Y-696317D02*
G54D10*
D03*
X-546416Y-741057D02*
G54D10*
D03*
X-597333Y-741182D02*
G54D10*
D03*
X-607738Y-620067D02*
G54D10*
D03*
X-531488Y-620117D02*
G54D10*
D03*
X-450462Y-714917D02*
G54D21*
D03*
X-475446Y-765849D02*
G54D21*
D03*
X-500345Y-714802D02*
G54D21*
D03*
X-442638Y-527992D02*
G54D11*
D03*
X-460438Y-512192D02*
G54D11*
D03*
X-477828Y-528027D02*
G54D11*
D03*
X-798238Y-315267D02*
G54D10*
D03*
X-772663Y-315317D02*
G54D10*
D03*
X-499788Y-426392D02*
G54D10*
D03*
X-423538Y-426442D02*
G54D10*
D03*
X-499788Y-467667D02*
G54D10*
D03*
X-423538Y-467717D02*
G54D10*
D03*
X-518838Y-518467D02*
G54D10*
D03*
X-569754Y-518592D02*
G54D10*
D03*
X-499788Y-562917D02*
G54D10*
D03*
X-423538Y-562967D02*
G54D10*
D03*
X-423638Y-689942D02*
G54D10*
D03*
X-423750Y-638962D02*
G54D10*
D03*
X-423588Y-607367D02*
G54D10*
D03*
X-499862Y-607317D02*
G54D10*
D03*
X-848988Y-448592D02*
G54D10*
D03*
X-824125Y-448904D02*
G54D10*
D03*
X-820463Y-632767D02*
G54D10*
D03*
X-871438Y-632917D02*
G54D10*
D03*
X-785538Y-588317D02*
G54D10*
D03*
X-709288Y-588367D02*
G54D10*
D03*
X-722038Y-708967D02*
G54D10*
D03*
X-773012Y-709117D02*
G54D10*
D03*
X-845438Y-712117D02*
G54D10*
D03*
X-870738Y-711817D02*
G54D10*
D03*
X-820463Y-502592D02*
G54D10*
D03*
X-871438Y-502692D02*
G54D10*
D03*
X-499788Y-315267D02*
G54D10*
D03*
X-525262Y-315267D02*
G54D10*
D03*
X-785538Y-534342D02*
G54D10*
D03*
X-709288Y-534392D02*
G54D10*
D03*
X-722062Y-499392D02*
G54D10*
D03*
X-772962Y-499592D02*
G54D10*
D03*
X-756962Y-448617D02*
G54D10*
D03*
X-732062Y-448917D02*
G54D10*
D03*
X-607738Y-416867D02*
G54D10*
D03*
X-531562Y-416867D02*
G54D10*
D03*
X-607738Y-366067D02*
G54D10*
D03*
X-531562Y-366017D02*
G54D10*
D03*
X-785562Y-366017D02*
G54D10*
D03*
X-709362Y-366017D02*
G54D10*
D03*
X-633138Y-366067D02*
G54D10*
D03*
X-684054Y-366192D02*
G54D10*
D03*
X-574512Y-315267D02*
G54D38*
D03*
X-534438Y-654682D02*
G54D10*
D03*
X-483457Y-654570D02*
G54D10*
D03*
X-474338Y-820142D02*
G54D10*
D03*
X-621262Y-960617D02*
G54D36*
D03*
X-646562Y-960417D02*
G54D36*
D03*
X-672050Y-960486D02*
G54D36*
D03*
X-284012Y-971928D02*
G54D29*
D03*
X-309412Y-971928D02*
G54D29*
D03*
X-284012Y-921128D02*
G54D29*
D03*
X-309412Y-921128D02*
G54D29*
D03*
X-385612Y-971928D02*
G54D28*
D03*
X-385613Y-921128D02*
G54D29*
D03*
X-241404Y-980812D02*
G54D12*
D03*
X-241404Y-879212D02*
G54D12*
D03*
X-243388Y-980812D02*
G54D12*
D03*
X-284012Y-798494D02*
G54D29*
D03*
X-309412Y-798493D02*
G54D29*
D03*
X-284012Y-747694D02*
G54D29*
D03*
X-309412Y-747694D02*
G54D29*
D03*
X-385613Y-798494D02*
G54D29*
D03*
X-385613Y-747694D02*
G54D29*
D03*
X-317113Y-841123D02*
G54D21*
D03*
X-342096Y-892056D02*
G54D21*
D03*
X-366995Y-841009D02*
G54D21*
D03*
X-281631Y-449243D02*
G54D29*
D03*
X-307031Y-449244D02*
G54D29*
D03*
X-281631Y-398444D02*
G54D29*
D03*
X-307031Y-398444D02*
G54D29*
D03*
X-383231Y-449244D02*
G54D29*
D03*
X-383231Y-398444D02*
G54D29*
D03*
X-281631Y-273825D02*
G54D29*
D03*
X-307031Y-273825D02*
G54D29*
D03*
X-281631Y-223024D02*
G54D29*
D03*
X-307031Y-223025D02*
G54D29*
D03*
X-383231Y-273824D02*
G54D29*
D03*
X-383231Y-223025D02*
G54D29*
D03*
X-314731Y-312486D02*
G54D21*
D03*
X-339715Y-363418D02*
G54D21*
D03*
X-364614Y-312372D02*
G54D21*
D03*
X-318700Y-578789D02*
G54D21*
D03*
X-343684Y-629721D02*
G54D21*
D03*
X-368583Y-578674D02*
G54D21*
D03*
X-283219Y-535762D02*
G54D29*
D03*
X-308619Y-535762D02*
G54D29*
D03*
X-283219Y-484962D02*
G54D29*
D03*
X-308619Y-484962D02*
G54D29*
D03*
X-384819Y-535762D02*
G54D29*
D03*
X-384819Y-484962D02*
G54D29*
D03*
X-284806Y-708006D02*
G54D29*
D03*
X-310206Y-708006D02*
G54D29*
D03*
X-284806Y-657206D02*
G54D29*
D03*
X-310206Y-657206D02*
G54D29*
D03*
X-386406Y-708006D02*
G54D29*
D03*
X-386406Y-657206D02*
G54D29*
D03*
X-241404Y-845477D02*
G54D12*
D03*
X-241404Y-743877D02*
G54D12*
D03*
X-241404Y-845477D02*
G54D12*
D03*
X-241007Y-709349D02*
G54D12*
D03*
X-241007Y-607749D02*
G54D12*
D03*
X-241007Y-709349D02*
G54D12*
D03*
X-241007Y-574808D02*
G54D12*
D03*
X-241007Y-473208D02*
G54D12*
D03*
X-241007Y-574808D02*
G54D12*
D03*
X-242198Y-440268D02*
G54D12*
D03*
X-242198Y-338668D02*
G54D12*
D03*
X-242198Y-440268D02*
G54D12*
D03*
X-243785Y-306918D02*
G54D12*
D03*
X-243785Y-205318D02*
G54D12*
D03*
X-243785Y-306918D02*
G54D12*
D03*
X-193512Y-441474D02*
G54D21*
D03*
X-430843Y-969318D02*
G54D21*
D03*
X-385613Y-921128D02*
G54D28*
D03*
X-309412Y-971928D02*
G54D28*
D03*
X-284012Y-971928D02*
G54D28*
D03*
X-309412Y-921128D02*
G54D28*
D03*
X-284012Y-921128D02*
G54D28*
D03*
X-385613Y-798494D02*
G54D28*
D03*
X-385613Y-747694D02*
G54D28*
D03*
X-309412Y-798493D02*
G54D28*
D03*
X-284012Y-798494D02*
G54D28*
D03*
X-284012Y-747694D02*
G54D28*
D03*
X-309412Y-747694D02*
G54D28*
D03*
X-310206Y-708006D02*
G54D28*
D03*
X-284806Y-708006D02*
G54D28*
D03*
X-284806Y-657206D02*
G54D28*
D03*
X-310206Y-657206D02*
G54D28*
D03*
X-386406Y-708006D02*
G54D28*
D03*
X-386406Y-657206D02*
G54D28*
D03*
X-384819Y-535762D02*
G54D28*
D03*
X-308619Y-535762D02*
G54D28*
D03*
X-384819Y-484962D02*
G54D28*
D03*
X-308619Y-484962D02*
G54D28*
D03*
X-283219Y-484962D02*
G54D28*
D03*
X-283219Y-535762D02*
G54D28*
D03*
X-383231Y-449244D02*
G54D28*
D03*
X-383231Y-398444D02*
G54D28*
D03*
X-307031Y-449244D02*
G54D28*
D03*
X-281631Y-449243D02*
G54D28*
D03*
X-281631Y-398444D02*
G54D28*
D03*
X-307031Y-398444D02*
G54D28*
D03*
X-383231Y-273824D02*
G54D28*
D03*
X-383231Y-223025D02*
G54D28*
D03*
X-307031Y-273825D02*
G54D28*
D03*
X-281631Y-273825D02*
G54D28*
D03*
X-281631Y-223024D02*
G54D28*
D03*
X-307031Y-223025D02*
G54D28*
D03*
X-318700Y-578789D02*
G54D21*
D03*
X-314732Y-312486D02*
G54D21*
D03*
X-285997Y-1165601D02*
G54D29*
D03*
X-311397Y-1165601D02*
G54D29*
D03*
X-285997Y-1114801D02*
G54D29*
D03*
X-311397Y-1114801D02*
G54D29*
D03*
X-387597Y-1165601D02*
G54D28*
D03*
X-387597Y-1114801D02*
G54D29*
D03*
X-387597Y-1114801D02*
G54D28*
D03*
X-311397Y-1165601D02*
G54D28*
D03*
X-285997Y-1165601D02*
G54D28*
D03*
X-311397Y-1114801D02*
G54D28*
D03*
X-285997Y-1114801D02*
G54D28*
D03*
X-424666Y-1069723D02*
G54D21*
D03*
X-449649Y-1120656D02*
G54D21*
D03*
X-474548Y-1069609D02*
G54D21*
D03*
X-249249Y-1056112D02*
G54D12*
D03*
X-249250Y-1157711D02*
G54D12*
D03*
X-247265Y-1056111D02*
G54D12*
D03*
X-203211Y-1054921D02*
G54D12*
D03*
X-203211Y-1156521D02*
G54D12*
D03*
X-201227Y-1054921D02*
G54D12*
D03*
X-285204Y-1063207D02*
G54D29*
D03*
X-310604Y-1063207D02*
G54D29*
D03*
X-285204Y-1012407D02*
G54D29*
D03*
X-310604Y-1012407D02*
G54D29*
D03*
X-386804Y-1063208D02*
G54D28*
D03*
X-386804Y-1012407D02*
G54D29*
D03*
X-386804Y-1012407D02*
G54D28*
D03*
X-310604Y-1063207D02*
G54D28*
D03*
X-285204Y-1063207D02*
G54D28*
D03*
X-310604Y-1012407D02*
G54D28*
D03*
X-285204Y-1012407D02*
G54D28*
D03*
X-519703Y-163285D02*
G54D34*
D03*
X-519703Y-1077685D02*
G54D34*
D03*
X-712068Y-992979D02*
G54D12*
D03*
X-578718Y-1126329D02*
G54D12*
D03*
X-578718Y-1107279D02*
G54D12*
D03*
X-578718Y-1088229D02*
G54D12*
D03*
X-578718Y-1069179D02*
G54D12*
D03*
X-578718Y-1050129D02*
G54D12*
D03*
X-578718Y-1031079D02*
G54D12*
D03*
X-578718Y-1012029D02*
G54D12*
D03*
X-578718Y-992979D02*
G54D12*
D03*
X-578718Y-1145379D02*
G54D12*
D03*
X-578718Y-1164429D02*
G54D12*
D03*
X-578718Y-1164429D02*
G54D12*
D03*
X-673968Y-992979D02*
G54D12*
D03*
X-654918Y-992979D02*
G54D12*
D03*
X-635868Y-992979D02*
G54D12*
D03*
X-616818Y-992979D02*
G54D12*
D03*
X-597768Y-992979D02*
G54D12*
D03*
X-693018Y-992979D02*
G54D12*
D03*
X-712068Y-992979D02*
G54D12*
D03*
X-578718Y-992979D02*
G54D12*
D03*
X-913403Y-296635D02*
G54D12*
D03*
X-183787Y-211078D02*
G54D12*
D03*
X-292738Y406727D02*
G54D10*
D03*
X176903Y-596758D02*
G54D10*
D03*
X151328Y-596708D02*
G54D10*
D03*
X216009Y-632474D02*
G54D10*
D03*
X215959Y-658048D02*
G54D10*
D03*
X336612Y-524480D02*
G54D10*
D03*
X311038Y-524430D02*
G54D10*
D03*
X854550Y-988326D02*
G54D10*
D03*
X854550Y-962826D02*
G54D10*
D03*
G36*
X723203Y-971836D02*
X703203Y-971836D01*
X703203Y-951836D01*
X723203Y-951836D01*
X723203Y-971836D01*
G37*
X687802Y-961836D02*
G54D30*
D03*
X662403Y-961836D02*
G54D30*
D03*
X637003Y-961836D02*
G54D30*
D03*
X637003Y-1038036D02*
G54D30*
D03*
X662402Y-1038036D02*
G54D30*
D03*
X687802Y-1038036D02*
G54D30*
D03*
X713203Y-1038035D02*
G54D30*
D03*
X662402Y-1038036D02*
G54D31*
D03*
X601001Y-1157338D02*
G54D10*
D03*
X651360Y-1089959D02*
G54D10*
D03*
X676859Y-1089960D02*
G54D10*
D03*
X676858Y-1089959D02*
G54D10*
D03*
X702359Y-1089959D02*
G54D10*
D03*
X804844Y-1069163D02*
G54D10*
D03*
X757044Y-1069162D02*
G54D10*
D03*
X601644Y-1069162D02*
G54D10*
D03*
X553844Y-1069163D02*
G54D10*
D03*
X804844Y-980263D02*
G54D10*
D03*
X757044Y-980263D02*
G54D10*
D03*
X814369Y-916563D02*
G54D10*
D03*
X738119Y-916513D02*
G54D10*
D03*
X814369Y-878463D02*
G54D10*
D03*
X738118Y-878413D02*
G54D10*
D03*
X814369Y-878463D02*
G54D10*
D03*
X696894Y-904062D02*
G54D10*
D03*
X649094Y-904062D02*
G54D10*
D03*
X547406Y-967563D02*
G54D10*
D03*
X595206Y-967563D02*
G54D10*
D03*
X583309Y-902710D02*
G54D10*
D03*
X532328Y-902822D02*
G54D10*
D03*
X583309Y-902710D02*
G54D10*
D03*
X452156Y-967563D02*
G54D10*
D03*
X499956Y-967563D02*
G54D10*
D03*
X814369Y-878463D02*
G54D10*
D03*
X924150Y-867938D02*
G54D21*
D03*
X936850Y-702838D02*
G54D21*
D03*
X936850Y-728238D02*
G54D21*
D03*
X930500Y-505988D02*
G54D21*
D03*
X930501Y-531388D02*
G54D21*
D03*
X930500Y-556788D02*
G54D21*
D03*
X378356Y-1013672D02*
G54D10*
D03*
X378406Y-937422D02*
G54D10*
D03*
X336092Y-909553D02*
G54D16*
D03*
X336092Y-947653D02*
G54D16*
D03*
X336092Y-1042903D02*
G54D16*
D03*
X336092Y-1087353D02*
G54D16*
D03*
X12242Y-1087353D02*
G54D16*
D03*
X56692Y-1087353D02*
G54D16*
D03*
X310692Y-909553D02*
G54D16*
D03*
X310692Y-947653D02*
G54D16*
D03*
X310692Y-1042903D02*
G54D16*
D03*
X310692Y-1087353D02*
G54D16*
D03*
X12242Y-1061953D02*
G54D16*
D03*
X56692Y-1061953D02*
G54D16*
D03*
X374329Y-1147648D02*
G54D10*
D03*
X422129Y-1147648D02*
G54D10*
D03*
X374329Y-1147648D02*
G54D10*
D03*
X38488Y-791117D02*
G54D21*
D03*
X13504Y-842049D02*
G54D21*
D03*
X-11395Y-791002D02*
G54D21*
D03*
X-12594Y-746684D02*
G54D10*
D03*
X-12544Y-721108D02*
G54D10*
D03*
X936850Y-1140988D02*
G54D21*
D03*
X936851Y-1188613D02*
G54D21*
D03*
X936850Y-1115588D02*
G54D21*
D03*
X259345Y802143D02*
G54D12*
D03*
X854710Y801974D02*
G54D12*
D03*
X854710Y-34639D02*
G54D12*
D03*
X443495Y802143D02*
G54D12*
D03*
X341895Y805318D02*
G54D12*
D03*
X252394Y-1151712D02*
G54D10*
D03*
X204594Y-1151713D02*
G54D10*
D03*
X156259Y-1136314D02*
G54D10*
D03*
X297445Y805318D02*
G54D12*
D03*
X-410580Y443368D02*
G54D39*
D03*
X767495Y-513455D02*
G54D10*
D03*
X741996Y-513455D02*
G54D10*
D03*
X741996Y-513455D02*
G54D10*
D03*
X716496Y-513455D02*
G54D10*
D03*
X614011Y-534251D02*
G54D10*
D03*
X661810Y-534252D02*
G54D10*
D03*
X855572Y-524726D02*
G54D10*
D03*
X807773Y-524726D02*
G54D10*
D03*
X492350Y-550438D02*
G54D21*
D03*
X936850Y-1166388D02*
G54D21*
D03*
X-1191658Y-218991D02*
G54D10*
D03*
X-1191708Y-295241D02*
G54D10*
D03*
X-1191707Y-295241D02*
G54D13*
D03*
X-1204592Y-172562D02*
G54D10*
D03*
X-1179117Y-172562D02*
G54D10*
D03*
X-345008Y372754D02*
G54D10*
D03*
X-370408Y372754D02*
G54D10*
D03*
X-206895Y479117D02*
G54D10*
D03*
X-206895Y456892D02*
G54D10*
D03*
X-206895Y418792D02*
G54D15*
D03*
X-371995Y406092D02*
G54D15*
D03*
X193154Y641042D02*
G54D10*
D03*
X193154Y663267D02*
G54D10*
D03*
X215443Y685884D02*
G54D15*
D03*
X888480Y352117D02*
G54D10*
D03*
X888480Y326717D02*
G54D10*
D03*
X856792Y368384D02*
G54D15*
D03*
X904354Y-22533D02*
G54D10*
D03*
X904354Y-47933D02*
G54D10*
D03*
X932992Y84D02*
G54D15*
D03*
X345555Y-193983D02*
G54D10*
D03*
X345555Y-216208D02*
G54D10*
D03*
X348792Y-152316D02*
G54D15*
D03*
X323392Y-228516D02*
G54D15*
D03*
X-39846Y-234790D02*
G54D10*
D03*
X-55562Y-219074D02*
G54D10*
D03*
X-44908Y-260266D02*
G54D15*
D03*
X-76658Y-228516D02*
G54D15*
D03*
X181962Y-454253D02*
G54D10*
D03*
X166246Y-438538D02*
G54D10*
D03*
X158292Y-406316D02*
G54D15*
D03*
X212268Y-450766D02*
G54D15*
D03*
X-340245Y412442D02*
G54D15*
D03*
X224905Y660092D02*
G54D15*
D03*
X180455Y596592D02*
G54D15*
D03*
X202743Y596984D02*
G54D15*
D03*
X859905Y336242D02*
G54D15*
D03*
X929755Y336242D02*
G54D15*
D03*
X926642Y304884D02*
G54D15*
D03*
X942455Y-25708D02*
G54D15*
D03*
X875842Y-63416D02*
G54D15*
D03*
X-314845Y348942D02*
G54D15*
D03*
X-289445Y348942D02*
G54D15*
D03*
X351905Y-120958D02*
G54D15*
D03*
X320155Y-267008D02*
G54D15*
D03*
X129655Y-406708D02*
G54D15*
D03*
X243955Y-451158D02*
G54D15*
D03*
X-92595Y-209858D02*
G54D15*
D03*
X-41795Y-292408D02*
G54D15*
D03*
X-140158Y-228516D02*
G54D15*
D03*
X-143176Y-205695D02*
G54D15*
D03*
X301105Y-495608D02*
G54D15*
D03*
X301168Y-469816D02*
G54D15*
D03*
X-1041373Y-782874D02*
G54D16*
D03*
X-1127098Y-782874D02*
G54D16*
D03*
X-1044548Y-998774D02*
G54D16*
D03*
X-1120748Y-998774D02*
G54D16*
D03*
X-1019148Y-782874D02*
G54D16*
D03*
X-1171548Y-782874D02*
G54D16*
D03*
X-1019148Y-998774D02*
G54D16*
D03*
X-1073270Y-895577D02*
G54D10*
D03*
X-997020Y-895626D02*
G54D10*
D03*
X-1073270Y-895576D02*
G54D10*
D03*
X-1203445Y-895577D02*
G54D10*
D03*
X-1127195Y-895626D02*
G54D10*
D03*
X-1203445Y-895576D02*
G54D10*
D03*
X-969366Y-997940D02*
G54D12*
D03*
X-969366Y-1099540D02*
G54D12*
D03*
X-1171548Y-998774D02*
G54D12*
D03*
X-1171548Y-1100374D02*
G54D12*
D03*
X-931475Y-1030991D02*
G54D10*
D03*
X-931363Y-1081972D02*
G54D10*
D03*
X-931475Y-1030991D02*
G54D10*
D03*
X-1210876Y-1030991D02*
G54D10*
D03*
X-1210763Y-1081972D02*
G54D10*
D03*
X-1210875Y-1030992D02*
G54D10*
D03*
X-931475Y-1030991D02*
G54D10*
D03*
X-1187158Y-1129217D02*
G54D21*
D03*
X-1162259Y-1180264D02*
G54D21*
D03*
X-1027992Y-1180149D02*
G54D21*
D03*
X-1003008Y-1129217D02*
G54D21*
D03*
X-978109Y-1180264D02*
G54D21*
D03*
X-1071176Y-1113542D02*
G54D10*
D03*
X-1071063Y-1164522D02*
G54D10*
D03*
X-1071176Y-1113542D02*
G54D10*
D03*
X-1071176Y-1113542D02*
G54D10*
D03*
X-1109276Y-1113542D02*
G54D10*
D03*
X-1109163Y-1164522D02*
G54D10*
D03*
X-1109276Y-1113542D02*
G54D10*
D03*
X-1109276Y-1113542D02*
G54D10*
D03*
X-1073220Y-1206777D02*
G54D10*
D03*
X-1124020Y-1206777D02*
G54D10*
D03*
X-1190598Y-782874D02*
G54D16*
D03*
X-1000098Y-782874D02*
G54D16*
D03*
X-1205792Y-1180149D02*
G54D21*
D03*
X-873838Y-859542D02*
G54D10*
D03*
X-1232612Y-760423D02*
G54D10*
D03*
X-1232613Y-734923D02*
G54D10*
D03*
X-926101Y-481604D02*
G54D12*
D03*
X-240303Y-1480910D02*
G54D12*
D03*
X216897Y-1480910D02*
G54D40*
D03*
X-430029Y926522D02*
G54D12*
D03*
X-550679Y929695D02*
G54D12*
D03*
X-430029Y1047172D02*
G54D12*
D03*
X-550679Y1047172D02*
G54D12*
D03*
X-569491Y986846D02*
G54D12*
D03*
X-550679Y929695D02*
G54D12*
D03*
X-624107Y1045053D02*
G54D23*
D03*
X-624107Y943453D02*
G54D10*
D03*
X-550679Y929695D02*
G54D12*
D03*
X-126003Y928915D02*
G54D12*
D03*
X-246653Y932089D02*
G54D12*
D03*
X-126003Y1049565D02*
G54D12*
D03*
X-246653Y1049565D02*
G54D12*
D03*
X-265466Y989240D02*
G54D12*
D03*
X-246653Y932088D02*
G54D12*
D03*
X-320081Y1047447D02*
G54D23*
D03*
X-320081Y945847D02*
G54D10*
D03*
X-246653Y932089D02*
G54D12*
D03*
X-1137655Y881518D02*
G54D12*
D03*
X-1208307Y981553D02*
G54D25*
D03*
X-709281Y860750D02*
G54D14*
D03*
X-1090281Y812331D02*
G54D14*
D03*
X-1101393Y-119532D02*
G54D14*
D03*
X-915994Y-116488D02*
G54D12*
D03*
X-909470Y827507D02*
G54D12*
D03*
X-760672Y837413D02*
G54D12*
D03*
X-915405Y-1448932D02*
G54D12*
D03*
X-883655Y-1448932D02*
G54D12*
D03*
X-851905Y-1448932D02*
G54D12*
D03*
X-914469Y-1481232D02*
G54D10*
D03*
X-838219Y-1481282D02*
G54D10*
D03*
X-828557Y-1383805D02*
G54D12*
D03*
X-930157Y-1383805D02*
G54D12*
D03*
X-790457Y-1517155D02*
G54D12*
D03*
X-790457Y-1415555D02*
G54D12*
D03*
X-821016Y-1543326D02*
G54D10*
D03*
X-871996Y-1543439D02*
G54D10*
D03*
X-967265Y-1532038D02*
G54D21*
D03*
X-913584Y-1513690D02*
G54D21*
D03*
X-932073Y-1567391D02*
G54D21*
D03*
X-794755Y-1372732D02*
G54D12*
D03*
X-871996Y-1543439D02*
G54D21*
D03*
X-924720Y-1313266D02*
G54D12*
D03*
X-921546Y-1192616D02*
G54D12*
D03*
X-804070Y-1313265D02*
G54D12*
D03*
X-804070Y-1192616D02*
G54D12*
D03*
X-864395Y-1173803D02*
G54D12*
D03*
X-921546Y-1192616D02*
G54D12*
D03*
X-804070Y-1192616D02*
G54D12*
D03*
X-967907Y-1327846D02*
G54D23*
D03*
X-967907Y-1226247D02*
G54D23*
D03*
X389971Y-1669350D02*
G54D10*
D03*
X313671Y-1669351D02*
G54D10*
D03*
X351871Y-1669350D02*
G54D10*
D03*
X-240303Y-1480910D02*
G54D40*
D03*
X948771Y-1669350D02*
G54D10*
D03*
X872471Y-1669351D02*
G54D10*
D03*
X910671Y-1669350D02*
G54D10*
D03*
X-708Y63741D02*
G54D10*
D03*
X-57271Y547398D02*
G54D10*
D03*
X-36065Y568604D02*
G54D10*
D03*
X-708Y254241D02*
G54D10*
D03*
X-76908Y209791D02*
G54D10*
D03*
X-376873Y1513D02*
G54D10*
D03*
X-351473Y-176287D02*
G54D10*
D03*
X-924445Y-844858D02*
G54D15*
D03*
X-924445Y-819458D02*
G54D15*
D03*
X-863721Y-303502D02*
G54D10*
D03*
X-845690Y-285470D02*
G54D10*
D03*
X-835545Y-254308D02*
G54D15*
D03*
X-810145Y-254308D02*
G54D15*
D03*
X-518320Y-1529166D02*
G54D12*
D03*
X-515146Y-1408516D02*
G54D12*
D03*
X-397670Y-1529165D02*
G54D12*
D03*
X-397670Y-1408516D02*
G54D12*
D03*
X-457995Y-1389703D02*
G54D12*
D03*
X-515146Y-1408516D02*
G54D12*
D03*
X-397670Y-1408516D02*
G54D12*
D03*
X-415780Y-1340827D02*
G54D23*
D03*
X-517380Y-1340827D02*
G54D23*
D03*
X-1035578Y-1454711D02*
G54D10*
D03*
X-1035578Y-1480211D02*
G54D10*
D03*
X-1228151Y-563482D02*
G54D41*
D03*
X42624Y-1233403D02*
G54D42*
D03*
G36*
X15042Y-1129203D02*
X15042Y-1185203D01*
X-15958Y-1185203D01*
X-15958Y-1129203D01*
X15042Y-1129203D01*
G37*
G36*
X15042Y-1281603D02*
X15042Y-1337603D01*
X-15958Y-1337603D01*
X-15958Y-1281603D01*
X15042Y-1281603D01*
G37*
G36*
X-42108Y-1160953D02*
X-42108Y-1216953D01*
X-73108Y-1216953D01*
X-73108Y-1160953D01*
X-42108Y-1160953D01*
G37*
G36*
X-42108Y-1249853D02*
X-42108Y-1305853D01*
X-73108Y-1305853D01*
X-73108Y-1249853D01*
X-42108Y-1249853D01*
G37*
G36*
X-143708Y-1154603D02*
X-143708Y-1210603D01*
X-174708Y-1210603D01*
X-174708Y-1154603D01*
X-143708Y-1154603D01*
G37*
G36*
X-143708Y-1249853D02*
X-143708Y-1305853D01*
X-174708Y-1305853D01*
X-174708Y-1249853D01*
X-143708Y-1249853D01*
G37*
G36*
X-42108Y-1122853D02*
X-42108Y-1178853D01*
X-73108Y-1178853D01*
X-73108Y-1122853D01*
X-42108Y-1122853D01*
G37*
G36*
X-42108Y-1294303D02*
X-42108Y-1350303D01*
X-73108Y-1350303D01*
X-73108Y-1294303D01*
X-42108Y-1294303D01*
G37*
G36*
X-143708Y-1205403D02*
X-143708Y-1261403D01*
X-174708Y-1261403D01*
X-174708Y-1205403D01*
X-143708Y-1205403D01*
G37*
G36*
X15042Y-1110153D02*
X15042Y-1166153D01*
X-15958Y-1166153D01*
X-15958Y-1110153D01*
X15042Y-1110153D01*
G37*
G36*
X15042Y-1307003D02*
X15042Y-1363003D01*
X-15958Y-1363003D01*
X-15958Y-1307003D01*
X15042Y-1307003D01*
G37*
X-211376Y-1236578D02*
G54D42*
D03*
G36*
X-266934Y-1197780D02*
X-240934Y-1197780D01*
X-240934Y-1223780D01*
X-266934Y-1223780D01*
X-266934Y-1197780D01*
G37*
G36*
X-266934Y-1248580D02*
X-240934Y-1248580D01*
X-240934Y-1274580D01*
X-266934Y-1274580D01*
X-266934Y-1248580D01*
G37*
G36*
X72791Y-1258105D02*
X98791Y-1258105D01*
X98791Y-1284105D01*
X72791Y-1284105D01*
X72791Y-1258105D01*
G37*
X-1341676Y1268497D02*
G54D14*
D03*
X-646351Y1120859D02*
G54D14*
D03*
X833199Y-1276266D02*
G54D14*
D03*
X-1332151Y-1682666D02*
G54D14*
D03*
X-544751Y-1644566D02*
G54D14*
D03*
X-714602Y1024399D02*
G54D12*
D03*
X-714602Y992649D02*
G54D12*
D03*
X-714602Y960899D02*
G54D12*
D03*
X-806452Y928294D02*
G54D10*
D03*
X-758652Y928294D02*
G54D10*
D03*
X-803277Y1055294D02*
G54D10*
D03*
X-755477Y1055294D02*
G54D10*
D03*
X-879702Y1018049D02*
G54D12*
D03*
X-879702Y986299D02*
G54D12*
D03*
X-879702Y954549D02*
G54D12*
D03*
X-971552Y925119D02*
G54D10*
D03*
X-923752Y925119D02*
G54D10*
D03*
X-993777Y1033068D02*
G54D10*
D03*
X-945977Y1033069D02*
G54D10*
D03*
X-1082902Y-1414001D02*
G54D12*
D03*
X-1082902Y-1445751D02*
G54D12*
D03*
X-1082902Y-1477501D02*
G54D12*
D03*
X-1174752Y-1510106D02*
G54D10*
D03*
X-1126952Y-1510106D02*
G54D10*
D03*
X-1171577Y-1383106D02*
G54D10*
D03*
X-1123777Y-1383106D02*
G54D10*
D03*
X-967907Y-1327846D02*
G54D12*
D03*
X-415780Y-1340827D02*
G54D12*
D03*
X-1029495Y-1300803D02*
G54D12*
D03*
X-57607Y596984D02*
G54D15*
D03*
X-67195Y577542D02*
G54D15*
D03*
X-41167Y687028D02*
G54D10*
D03*
X-23136Y705059D02*
G54D10*
D03*
X-44907Y730334D02*
G54D15*
D03*
X-64020Y714067D02*
G54D15*
D03*
X-1153237Y-1304142D02*
G54D10*
D03*
X-1153238Y-1278642D02*
G54D10*
D03*
X-1235787Y-1570842D02*
G54D10*
D03*
X-1235788Y-1545342D02*
G54D10*
D03*
X-1151157Y1064103D02*
G54D25*
D03*
X-1262653Y-1274535D02*
G54D12*
D03*
X-1229939Y-611794D02*
G54D41*
D03*
X-1068740Y1176565D02*
G54D12*
D03*
X-1017940Y1176565D02*
G54D12*
D03*
X-967140Y1176565D02*
G54D12*
D03*
X-916340Y1176565D02*
G54D12*
D03*
X-1221140Y1176565D02*
G54D12*
D03*
X-1170341Y1176565D02*
G54D12*
D03*
X-796439Y509250D02*
G54D32*
D03*
X-859939Y293349D02*
G54D32*
D03*
X-796438Y293350D02*
G54D32*
D03*
X-859939Y77449D02*
G54D32*
D03*
X-796439Y77449D02*
G54D32*
D03*
X-183876Y482292D02*
G54D15*
D03*
X809758Y-318954D02*
G54D10*
D03*
X809708Y-395204D02*
G54D10*
D03*
X890751Y-315554D02*
G54D10*
D03*
X890639Y-264574D02*
G54D10*
D03*
X776452Y-290154D02*
G54D10*
D03*
X776339Y-239174D02*
G54D10*
D03*
X809742Y-90354D02*
G54D10*
D03*
X809692Y-166604D02*
G54D10*
D03*
X689021Y-346968D02*
G54D10*
D03*
X765270Y-347018D02*
G54D10*
D03*
X764062Y-166604D02*
G54D10*
D03*
X764112Y-90354D02*
G54D10*
D03*
X631958Y-318954D02*
G54D10*
D03*
X631909Y-395203D02*
G54D10*
D03*
X734627Y-194438D02*
G54D10*
D03*
X637062Y-192004D02*
G54D10*
D03*
X637112Y-115754D02*
G54D10*
D03*
X560862Y-192004D02*
G54D10*
D03*
X560912Y-115754D02*
G54D10*
D03*
X510062Y-192004D02*
G54D10*
D03*
X510112Y-115754D02*
G54D10*
D03*
X410591Y-258048D02*
G54D10*
D03*
X461571Y-257936D02*
G54D10*
D03*
X482045Y-388772D02*
G54D10*
D03*
X558295Y-388822D02*
G54D10*
D03*
X697387Y-271380D02*
G54D11*
D03*
X713287Y-253804D02*
G54D11*
D03*
X697352Y-236188D02*
G54D11*
D03*
X595787Y-271379D02*
G54D11*
D03*
X611687Y-253804D02*
G54D11*
D03*
X595752Y-236188D02*
G54D11*
D03*
X519587Y-271379D02*
G54D11*
D03*
X535487Y-253804D02*
G54D11*
D03*
X519552Y-236188D02*
G54D11*
D03*
X914899Y-194486D02*
G54D12*
D03*
X864099Y-194486D02*
G54D12*
D03*
X889499Y-169086D02*
G54D12*
D03*
X864099Y-143686D02*
G54D12*
D03*
X914899Y-143686D02*
G54D12*
D03*
X446587Y-195279D02*
G54D12*
D03*
X395787Y-195279D02*
G54D12*
D03*
X421187Y-169879D02*
G54D12*
D03*
X395787Y-144479D02*
G54D12*
D03*
X446587Y-144480D02*
G54D12*
D03*
X745061Y-419588D02*
G54D10*
D03*
X694081Y-419701D02*
G54D10*
D03*
X809742Y-90354D02*
G54D13*
D03*
X934163Y-449972D02*
G54D14*
D03*
X683827Y-194438D02*
G54D10*
D03*
X681512Y-166604D02*
G54D10*
D03*
X681562Y-90354D02*
G54D10*
D03*
X941287Y-245979D02*
G54D15*
D03*
X764112Y-90354D02*
G54D13*
D03*
X681562Y-90354D02*
G54D13*
D03*
X637112Y-115754D02*
G54D13*
D03*
X560912Y-115754D02*
G54D13*
D03*
X374331Y-449180D02*
G54D14*
D03*
X934163Y-91198D02*
G54D14*
D03*
X374966Y-92785D02*
G54D14*
D03*
X854709Y-34638D02*
G54D10*
D03*
X383687Y-235579D02*
G54D15*
D03*
X887943Y-372878D02*
G54D10*
D03*
X418043Y-372878D02*
G54D10*
D03*
X454421Y-508119D02*
G54D10*
D03*
X499371Y612810D02*
G54D10*
D03*
X499421Y689060D02*
G54D10*
D03*
X418378Y609409D02*
G54D10*
D03*
X418490Y558428D02*
G54D10*
D03*
X532677Y584010D02*
G54D10*
D03*
X532789Y533029D02*
G54D10*
D03*
X499387Y384210D02*
G54D10*
D03*
X499437Y460460D02*
G54D10*
D03*
X620108Y640824D02*
G54D10*
D03*
X543858Y640874D02*
G54D10*
D03*
X545067Y460460D02*
G54D10*
D03*
X545017Y384210D02*
G54D10*
D03*
X677170Y612808D02*
G54D10*
D03*
X677220Y689058D02*
G54D10*
D03*
X574502Y488293D02*
G54D10*
D03*
X672067Y485860D02*
G54D10*
D03*
X672017Y409610D02*
G54D10*
D03*
X748267Y485860D02*
G54D10*
D03*
X748217Y409610D02*
G54D10*
D03*
X799067Y485860D02*
G54D10*
D03*
X799017Y409610D02*
G54D10*
D03*
X898538Y551904D02*
G54D10*
D03*
X847558Y551792D02*
G54D10*
D03*
X827084Y682628D02*
G54D10*
D03*
X750834Y682678D02*
G54D10*
D03*
X611742Y565235D02*
G54D11*
D03*
X595842Y547660D02*
G54D11*
D03*
X611776Y530044D02*
G54D11*
D03*
X713342Y565234D02*
G54D11*
D03*
X697442Y547660D02*
G54D11*
D03*
X713377Y530044D02*
G54D11*
D03*
X789542Y565234D02*
G54D11*
D03*
X773642Y547660D02*
G54D11*
D03*
X789576Y530044D02*
G54D11*
D03*
X392642Y489135D02*
G54D12*
D03*
X443442Y489134D02*
G54D12*
D03*
X418042Y463735D02*
G54D12*
D03*
X443442Y438334D02*
G54D12*
D03*
X392642Y438334D02*
G54D12*
D03*
X862542Y489134D02*
G54D12*
D03*
X913342Y489134D02*
G54D12*
D03*
X887942Y463734D02*
G54D12*
D03*
X913342Y438334D02*
G54D12*
D03*
X862542Y438334D02*
G54D12*
D03*
X564068Y713444D02*
G54D10*
D03*
X615048Y713556D02*
G54D10*
D03*
X499387Y384210D02*
G54D13*
D03*
X374966Y743828D02*
G54D14*
D03*
X625302Y488293D02*
G54D10*
D03*
X627617Y460460D02*
G54D10*
D03*
X627567Y384210D02*
G54D10*
D03*
X456617Y745610D02*
G54D10*
D03*
X367842Y539835D02*
G54D15*
D03*
X545017Y384210D02*
G54D13*
D03*
X627567Y384210D02*
G54D13*
D03*
X672017Y409610D02*
G54D13*
D03*
X748217Y409610D02*
G54D13*
D03*
X934798Y743034D02*
G54D14*
D03*
X374966Y385053D02*
G54D43*
D03*
X934162Y386640D02*
G54D14*
D03*
X925442Y529435D02*
G54D15*
D03*
X-1103314Y-1600047D02*
G54D12*
D03*
X-1032670Y-1601634D02*
G54D12*
D03*
X355362Y35803D02*
G54D14*
D03*
X-89608Y-126759D02*
G54D15*
D03*
X-64208Y-126759D02*
G54D15*
D03*
X862732Y-402429D02*
G54D12*
D03*
X212171Y-1250250D02*
G54D10*
D03*
X-665753Y-1503135D02*
G54D12*
D03*
X-729253Y-1388835D02*
G54D12*
D03*
X-1228151Y-868282D02*
G54D41*
D03*
X-1226764Y-821344D02*
G54D41*
D03*
X-729252Y-1414335D02*
G54D10*
D03*
X-729253Y-1388835D02*
G54D10*
D03*
X-686919Y-1413313D02*
G54D10*
D03*
X-686920Y-1387813D02*
G54D10*
D03*
X-665752Y-1528635D02*
G54D10*
D03*
X-665753Y-1503135D02*
G54D10*
D03*
X-1237153Y-1274534D02*
G54D10*
D03*
X-1262653Y-1274535D02*
G54D10*
D03*
X-708893Y-1227929D02*
G54D12*
D03*
X-578718Y-1208879D02*
G54D12*
D03*
X-578718Y-1227929D02*
G54D12*
D03*
X-673968Y-1227929D02*
G54D12*
D03*
X-654918Y-1227929D02*
G54D12*
D03*
X-635868Y-1227929D02*
G54D12*
D03*
X-616818Y-1227929D02*
G54D12*
D03*
X-597768Y-1227929D02*
G54D12*
D03*
X-693018Y-1227929D02*
G54D12*
D03*
X-578718Y-1227929D02*
G54D12*
D03*
X-743818Y-1205704D02*
G54D12*
D03*
X-743818Y-1186654D02*
G54D12*
D03*
X-743818Y-1227929D02*
G54D12*
D03*
X-743818Y-1050129D02*
G54D12*
D03*
X-743818Y-1031079D02*
G54D12*
D03*
X-743818Y-1012029D02*
G54D12*
D03*
X-743818Y-992979D02*
G54D12*
D03*
X-743818Y-1107279D02*
G54D12*
D03*
X-743818Y-1088229D02*
G54D12*
D03*
X-743818Y-1069179D02*
G54D12*
D03*
X-743818Y-1050129D02*
G54D12*
D03*
X-743818Y-1164429D02*
G54D12*
D03*
X-743818Y-1145379D02*
G54D12*
D03*
X-743818Y-1126329D02*
G54D12*
D03*
X-743818Y-1107279D02*
G54D12*
D03*
X-723662Y-991592D02*
G54D12*
D03*
X-578718Y-1186654D02*
G54D12*
D03*
X-724768Y-1227929D02*
G54D12*
D03*
X-932203Y-197003D02*
G54D10*
D03*
X-932203Y-220518D02*
G54D10*
D03*
X-906803Y-197003D02*
G54D10*
D03*
X-906803Y-220518D02*
G54D10*
D03*
X-1211263Y-702315D02*
G54D10*
D03*
X771750Y-1153688D02*
G54D21*
D03*
X863752Y-1216626D02*
G54D10*
D03*
X889327Y-1216677D02*
G54D10*
D03*
X612438Y-1252083D02*
G54D11*
D03*
X594863Y-1236183D02*
G54D11*
D03*
X577247Y-1252118D02*
G54D11*
D03*
X543150Y-1191788D02*
G54D21*
D03*
X-88573Y-327677D02*
G54D10*
D03*
X457527Y-1254777D02*
G54D10*
D03*
X-88573Y-365777D02*
G54D10*
D03*
X343227Y-1254777D02*
G54D10*
D03*
X-939648Y-1648426D02*
G54D10*
D03*
X-914073Y-1648477D02*
G54D10*
D03*
X-914073Y-1648477D02*
G54D10*
D03*
X-888498Y-1648528D02*
G54D10*
D03*
X534363Y-1239092D02*
G54D21*
D03*
X959847Y-1223735D02*
G54D12*
D03*
X959848Y-1249235D02*
G54D10*
D03*
X959847Y-1223735D02*
G54D10*
D03*
X909399Y-1479466D02*
G54D14*
D03*
X-1088390Y1094074D02*
G54D12*
D03*
X-1303690Y-1357085D02*
G54D12*
D03*
X-1303690Y-1407885D02*
G54D12*
D03*
X-1303690Y-1458685D02*
G54D12*
D03*
X-1303690Y-1509485D02*
G54D12*
D03*
X-888498Y-1648528D02*
G54D10*
D03*
X-862924Y-1648578D02*
G54D10*
D03*
X-1004095Y-1275403D02*
G54D12*
D03*
X-1029495Y-1377003D02*
G54D12*
D03*
X-978695Y-1465903D02*
G54D12*
D03*
X-1006007Y-1543746D02*
G54D12*
D03*
X-862924Y-1648578D02*
G54D10*
D03*
X-837350Y-1648628D02*
G54D10*
D03*
X-836338Y-1680517D02*
G54D10*
D03*
X-764842Y-1680576D02*
G54D10*
D03*
X705847Y-1693635D02*
G54D10*
D03*
X705847Y-1693635D02*
G54D10*
D03*
G36*
X15042Y-1262553D02*
X15042Y-1318553D01*
X-15958Y-1318553D01*
X-15958Y-1262553D01*
X15042Y-1262553D01*
G37*
X680Y1070026D02*
G54D11*
D03*
X-15220Y1052451D02*
G54D11*
D03*
X715Y1034835D02*
G54D11*
D03*
X339976Y886819D02*
G54D10*
D03*
X340026Y963068D02*
G54D10*
D03*
X-196022Y1109196D02*
G54D10*
D03*
X-119772Y1109146D02*
G54D10*
D03*
X244792Y140578D02*
G54D14*
D03*
X-368538Y216778D02*
G54D14*
D03*
X-310823Y-187977D02*
G54D10*
D03*
X-56823Y281923D02*
G54D10*
D03*
X324177Y-60977D02*
G54D10*
D03*
X997277Y-54627D02*
G54D10*
D03*
X942340Y-50874D02*
G54D10*
D03*
X597852Y-61987D02*
G54D10*
D03*
X990927Y-1184927D02*
G54D10*
D03*
X-380673Y-1242077D02*
G54D10*
D03*
X-334407Y-88022D02*
G54D21*
D03*
X990927Y-1210327D02*
G54D10*
D03*
X148748Y1004779D02*
G54D44*
D03*
X174148Y1004779D02*
G54D44*
D03*
X199548Y1004779D02*
G54D44*
D03*
X224948Y1004779D02*
G54D44*
D03*
X250348Y1004779D02*
G54D44*
D03*
X275748Y1004779D02*
G54D44*
D03*
X301148Y1004779D02*
G54D44*
D03*
X326548Y1004779D02*
G54D44*
D03*
X351948Y1004779D02*
G54D44*
D03*
X377348Y1004779D02*
G54D44*
D03*
X402748Y1004779D02*
G54D44*
D03*
X428148Y1004779D02*
G54D44*
D03*
X453548Y1004779D02*
G54D44*
D03*
X478948Y1004779D02*
G54D44*
D03*
X504348Y1004779D02*
G54D44*
D03*
X148748Y1157179D02*
G54D44*
D03*
X174148Y1157179D02*
G54D44*
D03*
X199548Y1157179D02*
G54D44*
D03*
X224948Y1157179D02*
G54D44*
D03*
X250348Y1157179D02*
G54D44*
D03*
X275748Y1157179D02*
G54D44*
D03*
X301148Y1157179D02*
G54D44*
D03*
X326548Y1157179D02*
G54D44*
D03*
X351948Y1157179D02*
G54D44*
D03*
X377348Y1157179D02*
G54D44*
D03*
X402748Y1157179D02*
G54D44*
D03*
X428148Y1157179D02*
G54D44*
D03*
X453548Y1157179D02*
G54D44*
D03*
X478948Y1157179D02*
G54D44*
D03*
X504348Y1157179D02*
G54D44*
D03*
X123507Y1157338D02*
G54D45*
D03*
X123507Y1004938D02*
G54D45*
D03*
X149764Y1106125D02*
G54D44*
D03*
X124364Y1106125D02*
G54D44*
D03*
X149764Y1080725D02*
G54D44*
D03*
X124364Y1080725D02*
G54D44*
D03*
X149764Y1055325D02*
G54D44*
D03*
X124364Y1055325D02*
G54D44*
D03*
X-410979Y993195D02*
G54D12*
D03*
X-272158Y1147212D02*
G54D10*
D03*
X-348408Y1147263D02*
G54D10*
D03*
X-62584Y1051485D02*
G54D10*
D03*
X-62634Y975235D02*
G54D10*
D03*
X-24484Y959410D02*
G54D10*
D03*
X-24534Y883160D02*
G54D10*
D03*
X-392703Y865415D02*
G54D12*
D03*
X185147Y1125765D02*
G54D12*
D03*
X-37272Y1198096D02*
G54D10*
D03*
X38978Y1198046D02*
G54D10*
D03*
X-99882Y1158352D02*
G54D10*
D03*
X-99883Y1206152D02*
G54D10*
D03*
X52526Y1148770D02*
G54D10*
D03*
X1546Y1148658D02*
G54D10*
D03*
X292780Y943026D02*
G54D11*
D03*
X276880Y925451D02*
G54D11*
D03*
X292815Y907835D02*
G54D11*
D03*
X162186Y899592D02*
G54D10*
D03*
X238436Y899542D02*
G54D10*
D03*
X60586Y924992D02*
G54D10*
D03*
X136836Y924942D02*
G54D10*
D03*
X543186Y823392D02*
G54D10*
D03*
X995831Y-1292663D02*
G54D10*
D03*
X995830Y-1267163D02*
G54D10*
D03*
X979249Y1251584D02*
G54D14*
D03*
X-1338501Y-266616D02*
G54D14*
D03*
X-1178165Y1095715D02*
G54D12*
D03*
X-1200616Y1073264D02*
G54D12*
D03*
X-1130540Y1130640D02*
G54D12*
D03*
X-1143240Y1098890D02*
G54D12*
D03*
X-142275Y-8456D02*
G54D32*
D03*
X-104175Y32819D02*
G54D32*
D03*
X-231095Y1139876D02*
G54D11*
D03*
X-246995Y1122301D02*
G54D11*
D03*
X-231060Y1104685D02*
G54D11*
D03*
X-1088390Y1017874D02*
G54D12*
D03*
X-1062990Y1017874D02*
G54D12*
D03*
X-783590Y1195674D02*
G54D12*
D03*
X-758190Y1195674D02*
G54D12*
D03*
X-783590Y1132174D02*
G54D12*
D03*
X-506282Y1177402D02*
G54D10*
D03*
X-506283Y1225202D02*
G54D10*
D03*
X-721896Y-1629194D02*
G54D11*
D03*
X-704321Y-1645094D02*
G54D11*
D03*
X-686705Y-1629159D02*
G54D11*
D03*
X-569638Y-1693217D02*
G54D10*
D03*
X-498141Y-1693275D02*
G54D10*
D03*
X-613214Y-1619406D02*
G54D10*
D03*
X-613272Y-1690903D02*
G54D10*
D03*
X936851Y-753638D02*
G54D21*
D03*
X-210070Y-336858D02*
G54D15*
D03*
X-206895Y-178108D02*
G54D15*
D03*
X-210070Y-470208D02*
G54D15*
D03*
X-210070Y-603558D02*
G54D15*
D03*
X-210070Y-736908D02*
G54D15*
D03*
X-210070Y-870258D02*
G54D15*
D03*
X-248170Y-1181408D02*
G54D15*
D03*
X-171970Y-1140133D02*
G54D15*
D03*
X-1071916Y1262290D02*
G54D12*
D03*
X-1021116Y1262290D02*
G54D12*
D03*
X-970316Y1262290D02*
G54D12*
D03*
X-919516Y1262290D02*
G54D12*
D03*
X667984Y1262290D02*
G54D12*
D03*
X718784Y1262290D02*
G54D12*
D03*
X769584Y1262290D02*
G54D12*
D03*
X820384Y1262290D02*
G54D12*
D03*
X591784Y1262290D02*
G54D12*
D03*
X-944916Y1217840D02*
G54D12*
D03*
X611909Y1119238D02*
G54D29*
D03*
X611909Y1144638D02*
G54D29*
D03*
X662709Y1119238D02*
G54D29*
D03*
X662709Y1144638D02*
G54D29*
D03*
X611909Y1220838D02*
G54D29*
D03*
X662709Y1220838D02*
G54D29*
D03*
X700809Y1119238D02*
G54D29*
D03*
X700809Y1144638D02*
G54D29*
D03*
X751609Y1119238D02*
G54D29*
D03*
X751609Y1144638D02*
G54D29*
D03*
X700809Y1220838D02*
G54D29*
D03*
X751609Y1220838D02*
G54D29*
D03*
X789709Y1119238D02*
G54D29*
D03*
X789709Y1144638D02*
G54D29*
D03*
X840509Y1119238D02*
G54D29*
D03*
X840509Y1144638D02*
G54D29*
D03*
X789709Y1220838D02*
G54D29*
D03*
X840509Y1220838D02*
G54D29*
D03*
X878609Y1119238D02*
G54D29*
D03*
X878609Y1144638D02*
G54D29*
D03*
X929409Y1119238D02*
G54D29*
D03*
X929409Y1144638D02*
G54D29*
D03*
X878609Y1220838D02*
G54D29*
D03*
X929409Y1220838D02*
G54D29*
D03*
X591784Y1033690D02*
G54D12*
D03*
X632076Y956669D02*
G54D10*
D03*
X632126Y1032918D02*
G54D10*
D03*
X720976Y956669D02*
G54D10*
D03*
X721026Y1032918D02*
G54D10*
D03*
X816226Y956669D02*
G54D10*
D03*
X816276Y1032918D02*
G54D10*
D03*
X771776Y956669D02*
G54D10*
D03*
X771826Y1032918D02*
G54D10*
D03*
X682876Y956669D02*
G54D10*
D03*
X682926Y1032918D02*
G54D10*
D03*
X860676Y956669D02*
G54D10*
D03*
X860726Y1032918D02*
G54D10*
D03*
X952116Y956669D02*
G54D10*
D03*
X952166Y1032918D02*
G54D10*
D03*
X905126Y956669D02*
G54D10*
D03*
X905176Y1032918D02*
G54D10*
D03*
X613727Y1074788D02*
G54D21*
D03*
X639127Y1074788D02*
G54D21*
D03*
X664527Y1074788D02*
G54D21*
D03*
X702627Y1074788D02*
G54D21*
D03*
X728027Y1074788D02*
G54D21*
D03*
X753427Y1074788D02*
G54D21*
D03*
X791527Y1074788D02*
G54D21*
D03*
X816927Y1074788D02*
G54D21*
D03*
X842327Y1074788D02*
G54D21*
D03*
X880427Y1074788D02*
G54D21*
D03*
X905827Y1074788D02*
G54D21*
D03*
X931227Y1074788D02*
G54D21*
D03*
X613727Y1074788D02*
G54D12*
D03*
X702627Y1074788D02*
G54D12*
D03*
X791527Y1074788D02*
G54D12*
D03*
X880427Y1074788D02*
G54D12*
D03*
X614485Y1101290D02*
G54D15*
D03*
X664485Y1101290D02*
G54D15*
D03*
X699485Y1101290D02*
G54D15*
D03*
X754485Y1101290D02*
G54D15*
D03*
X789485Y1101290D02*
G54D15*
D03*
X844485Y1101290D02*
G54D15*
D03*
X879485Y1101290D02*
G54D15*
D03*
X932048Y1100793D02*
G54D15*
D03*
X541784Y1197290D02*
G54D12*
D03*
X971784Y-1017710D02*
G54D12*
D03*
X991784Y1127290D02*
G54D12*
D03*
X852512Y-451754D02*
G54D12*
D03*
X588339Y372748D02*
G54D12*
D03*
X771695Y371954D02*
G54D12*
D03*
X370058Y802960D02*
G54D12*
D03*
X934162Y386640D02*
G54D43*
D03*
X934799Y743034D02*
G54D43*
D03*
X374966Y743828D02*
G54D43*
D03*
X374966Y-92785D02*
G54D43*
D03*
X934799Y-93578D02*
G54D43*
D03*
X934164Y-449972D02*
G54D43*
D03*
X374966Y-451560D02*
G54D43*
D03*
X-55801Y-169778D02*
G54D43*
D03*
X-1008301Y-169778D02*
G54D43*
D03*
X-1101393Y-119532D02*
G54D43*
D03*
X-1008301Y-1068303D02*
G54D43*
D03*
X-55801Y-1071478D02*
G54D46*
D03*
X588340Y-463865D02*
G54D12*
D03*
X690733Y-464658D02*
G54D12*
D03*
X-849200Y-1074796D02*
G54D12*
D03*
X-868250Y-160396D02*
G54D12*
D03*
X847318Y264918D02*
G54D18*
D03*
X31343Y-20832D02*
G54D18*
D03*
X891768Y39493D02*
G54D18*
D03*
X98018Y217293D02*
G54D18*
D03*
X42863Y-495300D02*
G54D10*
D03*
X65088Y-495300D02*
G54D10*
D03*
X85725Y-69850D02*
G54D10*
D03*
X85726Y-88900D02*
G54D10*
D03*
X174625Y-68262D02*
G54D10*
D03*
X174626Y-87312D02*
G54D10*
D03*
X117476Y-114300D02*
G54D10*
D03*
X139700Y-114300D02*
G54D10*
D03*
X178331Y-120916D02*
G54D10*
D03*
X178331Y-143141D02*
G54D10*
D03*
X224905Y-60633D02*
G54D28*
D03*
X31230Y-59045D02*
G54D28*
D03*
X158230Y-227320D02*
G54D28*
D03*
X161405Y-203508D02*
G54D28*
D03*
X59805Y-87620D02*
G54D28*
D03*
X130972Y-70892D02*
G54D21*
D03*
X-1064493Y404021D02*
G54D12*
D03*
X-1349377Y1141018D02*
G54D10*
D03*
X-1301577Y1141019D02*
G54D10*
D03*
X222248Y372668D02*
G54D10*
D03*
X270048Y372669D02*
G54D10*
D03*
X180973Y1220394D02*
G54D10*
D03*
X228773Y1220394D02*
G54D10*
D03*
X276225Y1184275D02*
G54D15*
D03*
X-1314015Y1017725D02*
G54D10*
D03*
X-1314127Y1068705D02*
G54D10*
D03*
X-1352115Y1017725D02*
G54D10*
D03*
X-1352227Y1068705D02*
G54D10*
D03*
X-1355608Y1198752D02*
G54D10*
D03*
X-1304628Y1198864D02*
G54D10*
D03*
X-435496Y399742D02*
G54D10*
D03*
X-435496Y421967D02*
G54D10*
D03*
X-421208Y285442D02*
G54D10*
D03*
X-421208Y307667D02*
G54D10*
D03*
X-394705Y284618D02*
G54D39*
D03*
M02*
