; Drill file
; Format: 2.4 (00.0000)
M48
INCH
T01C0.0157
T02C0.0197
T03C0.0236
T04C0.0283
T05C0.0315
T06C0.0354
T07C0.0394
T08C0.0433
T09C0.0472
T10C0.0512
T11C0.0551
T12C0.0591
T13C0.0787
T14C0.1
T15C0.1181
T16C0.122
T17C0.1339
T18C0.1575
%
G05
G90
T01
X-004530Y-003370
X024090Y044060
X024090Y045060
X026090Y045060
X026090Y044060
X027590Y044060
X027590Y045060
X029590Y045060
X029590Y044060
X031090Y044060
X031090Y045060
X033090Y045060
X033090Y044060
X034590Y044060
X034590Y045060
X036590Y045060
X036590Y044060
X036590Y048060
X034590Y048060
X033090Y048060
X031090Y048060
X029590Y048060
X027590Y048060
X026090Y048060
X024090Y048060
T02
X-036400Y-033260
X-036400Y-032260
X-032900Y-010010
X-031900Y-010010
X-008270Y-013260
X-005520Y-009000
X-005640Y-008100
X-003650Y-008260
X-003020Y-009000
X-001770Y-010250
X-001650Y-011510
X-002530Y-004990
X-003530Y-004990
X-008150Y-007010
X-008270Y-018510
X-008270Y-023760
X-008270Y-029010
X-008270Y-034260
X-006770Y-044890
X-009770Y-046510
X005100Y-016010
X006230Y-016000
X008360Y-017750
X009600Y-017760
X011860Y-018500
X011850Y-019510
X012600Y-010510
X012730Y-009000
X015110Y-009270
X013730Y-006000
X013850Y-004760
X034480Y-002500
X037100Y-001010
X036730Y000000
X037060Y-009680
X036480Y012000
X036600Y013240
X033850Y013240
X033730Y014500
X036430Y020840
X014480Y021250
X007980Y023500
X007100Y023490
X008850Y025990
X008480Y027000
X-001770Y028750
X-002520Y028110
X-002270Y023500
X-002650Y022740
X-007240Y018990
X-008150Y016490
X-011400Y013740
X-012400Y013740
X-013400Y016240
X-014650Y015990
X010870Y046620
X024190Y043360
X026160Y043360
X027540Y043360
X029700Y043360
X031080Y043360
X033250Y043360
X034630Y043360
X036690Y043340
T03
X-015260Y-045890
X-015260Y-043890
X-015230Y-041860
X-015230Y-039860
X-015180Y-038260
X-015180Y-036260
X-012180Y-036260
X-011180Y-036260
X-011180Y-038260
X-012180Y-038260
X-012230Y-039860
X-011230Y-039860
X-011230Y-041860
X-012230Y-041860
X-012260Y-043890
X-011260Y-043890
X-011260Y-045890
X-012260Y-045890
X-012180Y-031440
X-011180Y-031440
X-011180Y-029440
X-012180Y-029440
X-012210Y-027870
X-011210Y-027870
X-011210Y-025870
X-012210Y-025870
X-015210Y-025870
X-015210Y-027870
X-015180Y-029440
X-015180Y-031440
X-015150Y-021090
X-015150Y-019090
X-015090Y-017690
X-015090Y-015690
X-012090Y-015690
X-011090Y-015690
X-011090Y-017690
X-012090Y-017690
X-012150Y-019090
X-011150Y-019090
X-011150Y-021090
X-012150Y-021090
X-012090Y-010780
X-011090Y-010780
X-011090Y-008780
X-012090Y-008780
X-015090Y-008780
X-015090Y-010780
X-022620Y-012410
X-006530Y-006370
X-004530Y-006370
X-006530Y-003370
X-006530Y-002370
X-004530Y-002370
X001230Y-002320
X002350Y-003450
X006350Y-008010
X006230Y-008950
X008850Y-002390
X-015540Y011210
X-016160Y017460
T04
X-038110Y-048280
X-020370Y-052790
X-045390Y-021350
X-045530Y-012570
X-041550Y-002810
X-041550Y005690
X-041550Y014190
X-041550Y022690
X-020050Y022690
X-020050Y014190
X-020050Y005690
X-020050Y-002810
X-006980Y013270
X-006980Y017270
X-012600Y041240
X-024570Y041140
X017590Y-026940
X017590Y-028940
X017590Y-029940
X020590Y-029940
X020590Y-028940
X020590Y-027940
X020590Y-026940
X025080Y-037870
X026080Y-037870
X027080Y-037870
X028080Y-037870
X028080Y-040870
X027080Y-040870
X025080Y-040870
T05
X005860Y039560
X006860Y039560
X007860Y039560
X008860Y039560
X009860Y039560
X010860Y039560
X011860Y039560
X012860Y039560
X013860Y039560
X014860Y039560
X015860Y039560
X016860Y039560
X017860Y039560
X018860Y039560
X019860Y039560
X019860Y045560
X018860Y045560
X017860Y045560
X016860Y045560
X015860Y045560
X014860Y045560
X013860Y045560
X012860Y045560
X011860Y045560
X010860Y045560
X009860Y045560
X008860Y045560
X007860Y045560
X006860Y045560
X005860Y045560
X005900Y043550
X004900Y043550
X004900Y042550
X005900Y042550
X005900Y041550
X004900Y041550
T06
X-048650Y-061840
X-048650Y-060840
X-046250Y-059450
X-044370Y-059450
X-040770Y-058280
X-040770Y-057270
X-044240Y-054450
X-046130Y-054450
X-045400Y-051340
X-045400Y-050340
X-044250Y-047510
X-043670Y-045850
X-042170Y-045850
X-042250Y-047510
X-042170Y-043840
X-043670Y-043840
X-047670Y-042600
X-047670Y-040590
X-047380Y-035260
X-044380Y-035260
X-042250Y-035260
X-039250Y-035260
X-034400Y-034840
X-034400Y-033840
X-034300Y-032160
X-034310Y-030160
X-034280Y-028020
X-033280Y-028040
X-030920Y-026650
X-030430Y-027920
X-028430Y-027910
X-027920Y-026650
X-027920Y-024910
X-026310Y-025040
X-025620Y-024410
X-024910Y-025040
X-023930Y-024410
X-023930Y-022660
X-024930Y-022660
X-025620Y-022040
X-026310Y-022660
X-027920Y-023160
X-027920Y-021040
X-028430Y-019660
X-026680Y-020170
X-025610Y-018790
X-026300Y-018160
X-024920Y-018160
X-023930Y-018160
X-023930Y-016410
X-024930Y-016410
X-024930Y-014410
X-023930Y-014410
X-025050Y-012410
X-026050Y-012410
X-026930Y-014420
X-027930Y-014410
X-027920Y-015790
X-026930Y-016420
X-028820Y-017670
X-029800Y-017660
X-030430Y-019670
X-030930Y-021040
X-032300Y-019790
X-034310Y-019790
X-033420Y-017660
X-032450Y-017670
X-030930Y-015790
X-030930Y-014410
X-031430Y-012410
X-030420Y-012410
X-033290Y-011240
X-034000Y-011950
X-035700Y-008680
X-035700Y-007760
X-036700Y-007760
X-036700Y-008680
X-035460Y-000350
X-035460Y001150
X-035460Y002400
X-038210Y002400
X-038210Y001150
X-038210Y-000350
X-045550Y-002810
X-046420Y-006790
X-047420Y-006790
X-046920Y-008620
X-046920Y-011620
X-047690Y-027650
X-048530Y-028930
X-048530Y-029940
X-034310Y-024920
X-032300Y-024910
X-030930Y-024910
X-030930Y-023160
X-026310Y-027410
X-025620Y-026790
X-024930Y-027410
X-023930Y-027410
X-023520Y-029180
X-023930Y-031040
X-023930Y-032910
X-020920Y-032910
X-020920Y-031040
X-021510Y-029180
X-020920Y-027410
X-021040Y-025770
X-020920Y-024410
X-019680Y-023910
X-019680Y-022160
X-020930Y-022660
X-020430Y-020410
X-018810Y-020790
X-018130Y-020170
X-017430Y-020790
X-016670Y-022160
X-016680Y-023910
X-016680Y-025160
X-016680Y-027160
X-019030Y-025770
X-016700Y-030670
X-016700Y-032670
X-018670Y-032290
X-022430Y-020420
X-024680Y-020160
X-020930Y-018160
X-019680Y-018410
X-019680Y-016790
X-020930Y-016410
X-020930Y-014410
X-020680Y-012410
X-019680Y-012410
X-016670Y-016790
X-016670Y-018410
X-013840Y-006940
X-012240Y-007400
X-011390Y-005110
X-009030Y-004120
X-009030Y-002240
X-010290Y-000880
X-010660Y000550
X-010290Y001780
X-010180Y003130
X-011090Y005320
X-012470Y005320
X-012910Y007060
X-011530Y007880
X-011530Y009760
X-008780Y010010
X-007780Y010010
X-006780Y010010
X-003030Y008260
X-002240Y011100
X-000030Y010010
X000050Y015940
X-001950Y015940
X-001900Y019840
X-002250Y021550
X-001420Y022390
X000230Y021960
X002250Y022130
X001500Y024550
X002630Y026050
X002630Y027550
X002630Y029800
X-000910Y027760
X-001620Y027050
X-002050Y024550
X-000750Y024550
X000500Y019050
X002500Y019050
X003880Y019050
X003620Y017270
X002270Y015860
X003630Y015260
X008750Y014670
X010630Y014670
X019660Y015130
X021460Y015130
X021460Y018130
X022620Y019220
X024620Y019220
X024710Y018130
X026460Y019130
X028090Y020870
X027460Y021560
X028080Y022250
X026660Y024130
X024410Y025230
X024210Y028090
X022210Y028090
X019660Y027130
X021410Y025230
X019660Y024130
X020970Y022990
X020980Y020990
X023460Y021560
X024080Y022250
X024090Y020870
X019660Y018130
X016480Y021990
X016470Y023990
X017980Y029350
X021390Y032420
X024880Y037660
X026880Y037660
X028380Y037660
X030380Y037660
X032130Y037660
X033880Y037660
X035630Y037660
X037480Y037660
X037490Y040670
X035640Y040670
X033890Y040670
X032140Y040670
X030390Y040670
X028390Y040670
X026890Y040670
X024890Y040670
X013390Y037920
X011530Y037130
X010900Y036440
X011530Y035740
X013380Y034910
X009390Y035420
X006390Y035420
X005390Y036420
X002390Y036420
X-000960Y037770
X-002470Y038400
X-002460Y041400
X-000600Y041440
X000030Y042130
X000030Y040740
X000060Y045220
X002070Y045230
X001530Y047170
X-001470Y047170
X-003930Y047490
X-003930Y045600
X-004720Y043670
X-007720Y043670
X-009100Y043490
X-009720Y044190
X-009100Y044880
X-010710Y045170
X-013720Y045170
X-019930Y046350
X-019930Y048240
X-029740Y041550
X-031630Y041550
X-031750Y036550
X-029870Y036550
X-024570Y037140
X-026710Y027900
X-026710Y026650
X-026710Y025150
X-029460Y025150
X-029460Y026650
X-029460Y027900
X-035460Y027900
X-035460Y026650
X-035460Y025150
X-038210Y025150
X-038210Y026650
X-038210Y027900
X-038210Y019400
X-038210Y018150
X-038210Y016650
X-035460Y016650
X-035460Y018150
X-035460Y019400
X-029460Y019400
X-029460Y018150
X-029460Y016650
X-026710Y016650
X-026710Y018150
X-026710Y019400
X-024050Y022690
X-024050Y014190
X-026710Y010900
X-026710Y009650
X-026710Y008150
X-029460Y008150
X-029460Y009650
X-029460Y010900
X-035460Y010900
X-035460Y009650
X-035460Y008150
X-038210Y008150
X-038210Y009650
X-038210Y010900
X-045550Y014190
X-045550Y005690
X-029460Y002400
X-029460Y001150
X-029460Y-000350
X-026710Y-000350
X-026710Y001150
X-026710Y002400
X-024050Y005690
X-024050Y-002810
X-014840Y000060
X-013290Y-000880
X-012660Y000550
X-013290Y001790
X-013180Y003140
X-011390Y-002110
X-007530Y000380
X-007530Y002260
X-003560Y003990
X-000030Y002510
X005750Y003580
X007250Y003580
X008500Y003580
X008500Y000830
X007250Y000830
X005750Y000830
X006880Y-002690
X006880Y-003440
X007020Y-004760
X007020Y-005640
X007140Y-007000
X008270Y-006520
X009520Y-006520
X010770Y-006520
X010770Y-004020
X008270Y-004020
X005500Y-004500
X004630Y-004500
X003380Y-003500
X003380Y-002750
X002530Y-004740
X-001570Y-009240
X-002190Y-008620
X-003490Y-012900
X-003490Y-014400
X001110Y-016930
X002990Y-016930
X002560Y-019500
X001690Y-019500
X005100Y-019230
X006600Y-019230
X007160Y-017880
X006550Y-017270
X007890Y-016620
X010770Y-016520
X010640Y-013120
X009390Y-013120
X007890Y-013120
X013600Y-008510
X013600Y-007640
X016170Y-010160
X018170Y-010150
X020460Y-010680
X021080Y-009990
X020450Y-009300
X020080Y-007560
X022080Y-007560
X023450Y-009300
X024080Y-009990
X023460Y-010680
X024880Y-012560
X027130Y-013660
X027330Y-016520
X029330Y-016520
X031880Y-015560
X030130Y-013660
X031880Y-012560
X030570Y-011420
X030560Y-009420
X028920Y-007660
X030080Y-006560
X031880Y-006560
X031880Y-003560
X030080Y-003560
X026830Y-003560
X025080Y-004560
X023540Y-002440
X022080Y-004560
X020080Y-004560
X025080Y-007560
X026920Y-007660
X026830Y-006560
X027450Y-009300
X028080Y-009990
X027460Y-010680
X024880Y-015560
X021980Y-015310
X018980Y-015310
X016460Y-014680
X017890Y-020000
X018960Y-023490
X018030Y-025220
X017590Y-027940
X015530Y-029720
X015680Y-032620
X013800Y-032620
X011680Y-032620
X009800Y-032620
X009830Y-030540
X010780Y-029330
X012530Y-029720
X012480Y-028000
X012470Y-025990
X010780Y-026320
X008500Y-025910
X008500Y-024900
X006960Y-023490
X005960Y-023490
X006610Y-021240
X005110Y-021240
X012250Y-020650
X013250Y-020650
X012240Y-023810
X020970Y-023490
X021030Y-025220
X022610Y-024090
X024730Y-026210
X026080Y-026470
X026700Y-027160
X026080Y-027850
X023930Y-028120
X022050Y-028120
X021930Y-030220
X023470Y-030480
X025300Y-029970
X026800Y-029970
X029240Y-030670
X029240Y-032560
X029060Y-034580
X029060Y-036080
X027440Y-035590
X025550Y-035590
X022960Y-035540
X020960Y-035540
X021930Y-033220
X023470Y-032490
X025300Y-032970
X026800Y-032970
X028970Y-028490
X028970Y-026480
X028770Y-024900
X028260Y-023560
X026250Y-023570
X025770Y-024900
X026060Y-021030
X024170Y-021030
X028210Y-020210
X029210Y-020210
X030220Y-020210
X031800Y-020660
X033680Y-020660
X032300Y-023470
X030550Y-023720
X030550Y-026720
X032300Y-026470
X032240Y-027550
X032240Y-028550
X035240Y-028550
X035240Y-027550
X032060Y-034590
X032060Y-036090
X033640Y-037910
X033640Y-038910
X031690Y-038590
X029800Y-038590
X029800Y-042090
X031690Y-042090
X027650Y-042910
X026650Y-042910
X025640Y-042910
X026080Y-040870
X023690Y-042090
X021800Y-042090
X023660Y-045560
X023420Y-048670
X024110Y-049290
X022730Y-049300
X018010Y-049400
X016620Y-045180
X014740Y-045180
X013510Y-049400
X008350Y-049220
X008050Y-045340
X009940Y-045340
X006150Y-044740
X014900Y-039910
X014900Y-036910
X017800Y-038090
X019680Y-038090
X021550Y-038090
X023430Y-038090
X019680Y-032620
X017800Y-032620
X007700Y-032660
X005460Y-032420
X-000500Y-029400
X-000490Y-028390
X-014990Y-048900
X-027040Y-054640
X-027040Y-055640
X-028710Y-055680
X-033000Y-058320
X-032320Y-060760
X-032970Y-064910
X-033970Y-064900
X-034980Y-064900
X-035990Y-064900
X-036990Y-064900
X-032930Y-066160
X-030110Y-066160
X-028420Y-064140
X-027730Y-064770
X-027040Y-064140
X-024140Y-063760
X-024140Y-066570
X-022430Y-066660
X-019610Y-066660
X-026210Y-060180
X-036000Y-058320
X-048710Y-050180
X-036670Y-042600
X-036670Y-040590
X012350Y-065720
X013850Y-065720
X015350Y-065720
X034350Y-065720
X035850Y-065720
X037350Y-065720
X039210Y-050890
X039210Y-049890
X037790Y-049180
X039010Y-047650
X039010Y-046650
X035010Y-047900
X034010Y-047900
X034960Y-014680
X035070Y-012420
X035060Y-010420
X035600Y-001890
X035600Y-000890
X037100Y-002000
X039260Y-002150
X031750Y000830
X030500Y000830
X029000Y000830
X029000Y003580
X030500Y003580
X031750Y003580
X034980Y012860
X034980Y013860
X031460Y016130
X029460Y016130
X026460Y016130
X024710Y015130
X029460Y019130
X031460Y019130
X031090Y020870
X030460Y021560
X031080Y022250
X033370Y021720
X035380Y021730
X032560Y026880
X029560Y026880
X026660Y027130
X007600Y026110
X007600Y025240
X005260Y022120
X-008150Y020250
X-009280Y019760
X-010530Y019760
X-011780Y019760
X-008150Y018860
X-008150Y017990
X-009280Y016010
X-011530Y016010
X-013580Y014680
X-014580Y014680
X-017150Y015740
X-017150Y016610
X-016580Y012110
X-016580Y011240
X-011650Y026360
X-010400Y026360
X-008900Y026360
X-008900Y029860
X-007150Y030360
X-011780Y029760
X-012600Y037240
X-000970Y034770
X007120Y048050
X009010Y048050
X-037240Y040670
X-039130Y040670
X-038250Y036420
X-036370Y036420
X-051730Y040070
X-053230Y040070
X-053240Y042070
X-051740Y042070
X-051240Y044920
X-053130Y044920
X-053370Y047190
X-051360Y047200
X-045550Y022690
X012760Y-002400
T07
X-051330Y-059430
X-051330Y-057430
X-051330Y-055430
X-051330Y-053430
X-049710Y-050180
X-047470Y-046460
X-045760Y-046470
X-046740Y-044460
X-046120Y-043320
X-040470Y-046460
X-038510Y-046470
X-039490Y-044460
X-038160Y-043290
X-038160Y-039290
X-033430Y-042310
X-034030Y-046210
X-036280Y-046950
X-039530Y-050210
X-040530Y-051210
X-038110Y-052280
X-036410Y-051700
X-036620Y-054480
X-036040Y-057040
X-034790Y-057040
X-033540Y-057040
X-032620Y-054480
X-031290Y-054040
X-031120Y-055730
X-028710Y-054680
X-031660Y-051700
X-029280Y-048340
X-028530Y-048340
X-027910Y-048340
X-027280Y-048340
X-026530Y-048340
X-025780Y-048340
X-025030Y-048340
X-024280Y-048340
X-023530Y-048340
X-022780Y-048340
X-022780Y-047590
X-022780Y-046720
X-022780Y-045840
X-022780Y-045090
X-022780Y-044340
X-022780Y-043590
X-022780Y-042840
X-022780Y-042090
X-022780Y-041340
X-022780Y-040590
X-022780Y-039840
X-022780Y-039090
X-023530Y-039090
X-024280Y-039090
X-025030Y-039090
X-025780Y-039090
X-026530Y-039090
X-027280Y-039090
X-028030Y-039090
X-028490Y-039040
X-029280Y-039090
X-029280Y-039840
X-029280Y-040590
X-029280Y-041340
X-029280Y-042090
X-029280Y-042840
X-029280Y-043590
X-029280Y-044340
X-029280Y-045090
X-029280Y-045840
X-029280Y-046720
X-029280Y-047470
X-031660Y-046950
X-040530Y-054210
X-042630Y-055670
X-042630Y-056920
X-042630Y-058170
X-039610Y-060780
X-038080Y-060320
X-036700Y-061710
X-035970Y-059590
X-034330Y-060770
X-031120Y-059730
X-026210Y-059180
X-020410Y-060200
X-015660Y-060200
X-015660Y-055450
X-018030Y-054710
X-020280Y-055450
X-016370Y-052790
X-017700Y-044120
X-016720Y-042120
X-018680Y-042110
X-016960Y-038160
X-013470Y-035120
X-012480Y-033120
X-014450Y-033110
X-009500Y-033290
X-009500Y-034610
X-009500Y-038610
X-009580Y-038610
X-009730Y-041580
X-009810Y-041580
X-008000Y-041530
X-007920Y-041530
X-008000Y-045530
X-009810Y-045580
X000530Y-033150
X001520Y-031150
X-000450Y-031140
X005460Y-031420
X006700Y-032410
X006700Y-028410
X010360Y-023810
X009970Y-021410
X009970Y-019910
X009970Y-018910
X008470Y-018910
X008470Y-019910
X012660Y-014920
X012660Y-013920
X015580Y-007690
X016580Y-006690
X017580Y-005690
X017580Y-007690
X015580Y-005690
X012660Y-004420
X005160Y-002790
X005030Y-006150
X004640Y-008660
X002270Y-007890
X001030Y-006150
X000020Y-008660
X-004360Y-010210
X-007240Y-008310
X-009600Y-008080
X-009600Y-012080
X-009540Y-013330
X-012390Y-012300
X-014350Y-012300
X-013370Y-014310
X-009540Y-017330
X-009490Y-018630
X-007620Y-017380
X-009490Y-022630
X-009490Y-023930
X-012550Y-022790
X-014510Y-022780
X-013530Y-024790
X-009490Y-027930
X-009500Y-029290
X-017730Y-028150
X-019700Y-028140
X-018720Y-030150
X-036460Y-018960
X-038560Y-018820
X-038860Y-014810
X-035960Y-011680
X-038860Y-010060
X-041240Y-009300
X-043490Y-010060
X-045530Y-008570
X-043610Y-014810
X-045390Y-017350
X-043310Y-018820
X-043310Y-023570
X-040940Y-024310
X-038690Y-023570
X-034180Y-006310
X-034600Y-003960
X-036060Y-004590
X-038100Y-003960
X-040920Y-001470
X-040920Y003280
X-040920Y007030
X-040920Y011780
X-040920Y015530
X-041910Y015910
X-045670Y015660
X-046410Y017910
X-045670Y020280
X-045670Y024160
X-046410Y026410
X-045670Y028780
X-040920Y028780
X-038100Y031540
X-035810Y032580
X-034600Y031540
X-033860Y028550
X-033850Y026540
X-033760Y024810
X-031750Y024810
X-031350Y026540
X-031360Y028550
X-030350Y031540
X-029950Y032970
X-026600Y031540
X-024580Y029260
X-024580Y024510
X-024580Y020760
X-024580Y016010
X-024580Y012260
X-024580Y007510
X-024580Y003760
X-024580Y-000990
X-026600Y-003960
X-030350Y-003960
X-031750Y-000690
X-031350Y001040
X-031360Y003050
X-033860Y003050
X-033850Y001040
X-033760Y-000690
X-033760Y007810
X-033850Y009540
X-033860Y011550
X-031360Y011550
X-031350Y009540
X-031750Y007810
X-031750Y016310
X-031350Y018040
X-031360Y020050
X-033860Y020050
X-033850Y018040
X-033760Y016310
X-040920Y020280
X-040920Y024030
X-044790Y034710
X-042850Y040070
X-041850Y040070
X-042850Y043070
X-045010Y043260
X-044510Y044510
X-046380Y043140
X-047270Y042250
X-048080Y046320
X-046080Y046320
X-042080Y046320
X-040080Y046320
X-038080Y046320
X-037200Y047950
X-036080Y046320
X-036200Y049700
X-038200Y049700
X-040200Y049700
X-042200Y049700
X-030850Y047070
X-029850Y047070
X-030850Y044570
X-028130Y040330
X-028130Y039080
X-028130Y037830
X-022420Y038850
X-021680Y036600
X-021680Y041230
X-016930Y041230
X-016180Y039100
X-016930Y036480
X-015460Y034070
X-009710Y036700
X-010450Y038950
X-009710Y041320
X-004960Y041320
X-004960Y036570
X-003170Y029780
X-003490Y026990
X-006490Y026990
X-006490Y023990
X-006490Y021990
X-006490Y019990
X-003490Y019990
X-003490Y021990
X-003490Y023990
X-003400Y014340
X-005520Y014340
X-008280Y007760
X-008280Y006010
X-008280Y004260
X-006530Y005010
X-006530Y007010
X-004100Y001290
X-005600Y-000330
X-004450Y-001160
X002240Y001820
X001490Y004320
X001490Y004370
X002490Y005370
X001490Y006370
X003490Y006370
X003490Y004370
X010250Y003580
X015460Y017260
X016460Y018260
X017460Y019260
X017460Y017260
X015460Y019260
X023160Y014680
X030380Y014640
X033960Y017260
X034960Y018260
X033960Y019260
X035960Y019260
X035960Y017260
X035490Y008820
X035990Y006320
X034990Y005320
X033990Y006320
X033990Y004320
X035990Y004320
X033650Y-001360
X034020Y-005660
X034020Y-007660
X036020Y-007660
X036020Y-005660
X033970Y-015840
X033560Y-017790
X036630Y-019920
X036630Y-020920
X036630Y-021920
X036880Y-025420
X036880Y-026420
X036880Y-027670
X036880Y-028670
X036880Y-029670
X036880Y-030920
X036880Y-031920
X036380Y-033170
X036380Y-034170
X038260Y-040070
X036880Y-040670
X036880Y-041670
X036880Y-043920
X036880Y-044920
X036880Y-045920
X036880Y-046800
X037790Y-048180
X030380Y-045420
X021380Y-046920
X021040Y-048780
X027790Y-066680
X014060Y-027250
X014060Y-025280
X016070Y-026270
X019380Y-021670
X023160Y-018260
X027190Y-018290
X027000Y003580
X004640Y-013410
X-000110Y-013410
X-013170Y-003470
X-019830Y-000990
X-019090Y001380
X-019830Y003630
X-019830Y007510
X-019090Y009880
X-019830Y012130
X-016960Y013960
X-019830Y016010
X-019090Y018380
X-019830Y020630
X-019830Y024510
X-019090Y026880
X-019830Y029130
X-013920Y025280
X-013920Y024280
X-034630Y037580
X-034630Y038830
X-034630Y040080
X-048210Y013960
X-045670Y011780
X-046410Y009410
X-045670Y007160
X-045670Y003280
X-046410Y000910
X-045670Y-001340
X-038530Y-057710
X-040660Y-063060
X-043440Y-062990
X010210Y031580
X011710Y031710
X013460Y031710
X014570Y031610
X017460Y031580
X023300Y040700
X024160Y042310
X025160Y042310
X026160Y042310
X027660Y042310
X028660Y042310
X029660Y042310
X031160Y042310
X032160Y042310
X033160Y042310
X034660Y042310
X035660Y042310
X036660Y042310
X039050Y044380
X032300Y049700
X030300Y049700
X028300Y049700
X026300Y049700
X023300Y049700
X021330Y047140
X007290Y044320
X033650Y031570
T08
X-026460Y-037810
X-025460Y-037810
X-024460Y-037820
X-024460Y-035290
X-025460Y-035290
X-026460Y-035280
X-028870Y-032680
X-030370Y-032680
X-029920Y-030160
X-028420Y-030160
T09
X-046120Y-039320
X-044120Y-039320
X-041120Y-039320
X-040120Y-039320
X-040120Y-030820
X-039370Y-030820
X-041000Y-030820
X-044370Y-030820
X-046120Y-030820
X-046870Y-030820
X-020460Y-042430
X-010000Y-047670
X-010000Y-049670
X-006270Y-050310
X-006270Y-048560
X-006270Y-046560
X-002270Y-046810
X-002270Y-045310
X-000020Y-045560
X-000020Y-044810
X000480Y-042810
X000480Y-041810
X002230Y-041810
X002230Y-042810
X003380Y-050040
X-000020Y-050810
X-000020Y-051560
X-000020Y-052560
X-002270Y-052060
X-002270Y-050310
X012230Y-042810
X013230Y-042810
X013230Y-041060
X012230Y-041060
X012230Y-037310
X013230Y-037310
X013230Y-035810
X012230Y-035810
X-003410Y-030220
X-003410Y-026590
X-003410Y-022340
X-003530Y-018590
X-020460Y-006430
X016610Y026250
X035180Y026250
X034980Y-006680
T10
X006390Y008950
X007170Y008950
X008750Y008950
X009540Y008950
X027840Y008760
X028630Y008760
X030200Y008760
X030990Y008760
T11
X001230Y-000820
X003860Y008550
X014610Y008550
X022610Y003050
X035110Y001550
X033360Y010430
T12
X004860Y039560
X004860Y045560
T13
X-048350Y-034180
X-048300Y-032340
X-048420Y-024090
X-048350Y-022180
X-011890Y021550
X-011890Y024550
X-008890Y024550
X-008890Y021550
X007880Y-008300
X010880Y-008300
X010880Y-011300
X007880Y-011300
X-047570Y038640
X-045320Y041890
T14
X-030430Y-036540
X-020360Y-036540
T15
X-052450Y-066250
X-021450Y-064750
X032800Y-050250
X035800Y-058250
X013990Y001410
X009640Y005530
X007140Y012780
X007510Y031410
X-014610Y031280
X-027920Y033890
X-025450Y044130
X-042920Y031980
X-052820Y049940
X-014110Y012780
X-014510Y008530
X-052700Y-010500
X038550Y049270
T16
X-008320Y-048680
X001680Y-048560
T17
X-039700Y-042060
X-039700Y-006680
X-043360Y-004710
X-002200Y-006680
X014760Y-003650
X014760Y-017780
X036780Y-017720
X036800Y-003680
X036780Y015220
X036800Y029250
X014760Y029280
X014760Y015160
X-002200Y-042180
T18
X-009460Y-058300
X008540Y-058300
X019980Y003050
X017230Y008550
M30
