; Drill file
; Format: 2.4 (00.0000)
M48
INCH
T01C0.0157
T02C0.0197
T03C0.0236
T04C0.0283
T05C0.0315
T06C0.0354
T07C0.0394
T08C0.0433
T09C0.0472
T10C0.0512
T11C0.0551
T12C0.0591
T13C0.0787
T14C0.1
T15C0.1181
T16C0.122
T17C0.1339
T18C0.1575
%
G05
G90
T01
X002020Y003940
X002020Y004940
X004020Y004940
X004020Y003940
X004020Y007940
X002020Y007940
X-003720Y026260
X038940Y003710
X037400Y073690
X037400Y074690
X035400Y074690
X035400Y073690
X033900Y073690
X033900Y074690
X031900Y074690
X031900Y073690
X030400Y073690
X030400Y074690
X028400Y074690
X028400Y073690
X026900Y073690
X026900Y074690
X024900Y074690
X024900Y073690
X024900Y077690
X026900Y077690
X028400Y077690
X030400Y077690
X031900Y077690
X033900Y077690
X035400Y077690
X037400Y077690
T02
X-035590Y-003630
X-035590Y-002630
X-032090Y019620
X-031090Y019620
X-007460Y016370
X-004710Y020630
X-004830Y021530
X-002840Y021370
X-002210Y020630
X-000960Y019380
X-000840Y018120
X-007340Y022620
X-007460Y011120
X-007460Y005870
X-007460Y000620
X-007460Y-004630
X-005960Y-015260
X-008960Y-016880
X005910Y013620
X007040Y013630
X009160Y011880
X010410Y011870
X012660Y011130
X012660Y010120
X013410Y019120
X013540Y020630
X015910Y020350
X014540Y023630
X014660Y024870
X035290Y027130
X037910Y028620
X037540Y029630
X037860Y019940
X037290Y041630
X037410Y042870
X034660Y042870
X034540Y044130
X037240Y050470
X015290Y050880
X008790Y053130
X007910Y053120
X009660Y055620
X009290Y056630
X-000960Y058380
X-001710Y057740
X-001460Y053130
X-001840Y052370
X-006430Y048620
X-007340Y046120
X-010590Y043370
X-011590Y043370
X-012590Y045870
X-013840Y045620
X011680Y076250
X025000Y072990
X026970Y072990
X028350Y072990
X030510Y072990
X031890Y072990
X034050Y072990
X035430Y072990
X037500Y072970
T03
X-014450Y-016260
X-014450Y-014260
X-014420Y-012230
X-014420Y-010230
X-014380Y-008640
X-014380Y-006640
X-011380Y-006640
X-010380Y-006640
X-010380Y-008640
X-011380Y-008640
X-011420Y-010230
X-010420Y-010230
X-010420Y-012230
X-011420Y-012230
X-011450Y-014260
X-010450Y-014260
X-010450Y-016260
X-011450Y-016260
X-011380Y-001810
X-010380Y-001810
X-010380Y000190
X-011380Y000190
X-011410Y001750
X-010410Y001750
X-010410Y003750
X-011410Y003750
X-014410Y003750
X-014410Y001750
X-014380Y000190
X-014380Y-001810
X-014340Y008530
X-014340Y010530
X-014280Y011940
X-014280Y013940
X-011280Y013940
X-010280Y013940
X-010280Y011940
X-011280Y011940
X-011340Y010530
X-010340Y010530
X-010340Y008530
X-011340Y008530
X-011280Y018850
X-010280Y018850
X-010280Y020850
X-011280Y020850
X-014280Y020850
X-014280Y018850
X-021810Y017220
X-005720Y023260
X-003720Y023260
X-002720Y024640
X-001720Y024640
X-003720Y027260
X-005720Y027260
X-005720Y026260
X002040Y027300
X003160Y026180
X007160Y021620
X007040Y020680
X009660Y027240
X-014730Y040830
X-015360Y047080
T04
X-037300Y-018650
X-019560Y-023160
X-044580Y008280
X-044730Y017060
X-040740Y026810
X-040740Y035310
X-040740Y043810
X-040740Y052310
X-019240Y052310
X-019240Y043810
X-019240Y035310
X-019240Y026810
X-023760Y070770
X-011800Y070870
T05
X006660Y069190
X007660Y069190
X008660Y069190
X009660Y069190
X010660Y069190
X011660Y069190
X012660Y069190
X013660Y069190
X014660Y069190
X015660Y069190
X016660Y069190
X017660Y069190
X018660Y069190
X019660Y069190
X020660Y069190
X020660Y075190
X019660Y075190
X018660Y075190
X017660Y075190
X016660Y075190
X015660Y075190
X014660Y075190
X013660Y075190
X012660Y075190
X011660Y075190
X010660Y075190
X009660Y075190
X008660Y075190
X007660Y075190
X006660Y075190
X006700Y073180
X005700Y073180
X005700Y072180
X006700Y072180
X006700Y071180
X005700Y071180
T06
X-047850Y-032220
X-047850Y-031210
X-047340Y-028760
X-047340Y-027760
X-045440Y-029830
X-043560Y-029830
X-039960Y-028650
X-039960Y-027640
X-043440Y-024830
X-045320Y-024830
X-044600Y-021720
X-044600Y-020710
X-043450Y-017880
X-042860Y-016220
X-041360Y-016220
X-041450Y-017880
X-041370Y-014210
X-042870Y-014210
X-046860Y-012970
X-046870Y-010960
X-046570Y-005630
X-043570Y-005630
X-041450Y-005630
X-038450Y-005630
X-033600Y-005220
X-033600Y-004210
X-033500Y-002530
X-033500Y-000530
X-033470Y001600
X-032480Y001590
X-030110Y002980
X-029630Y001710
X-027620Y001720
X-027110Y002970
X-027120Y004710
X-025510Y004590
X-024810Y005220
X-024110Y004590
X-023120Y005220
X-023120Y006970
X-024120Y006970
X-024810Y007590
X-025510Y006960
X-027120Y006460
X-027120Y008590
X-027620Y009970
X-025870Y009460
X-024800Y010840
X-025500Y011470
X-024110Y011470
X-023120Y011470
X-023120Y013220
X-024120Y013220
X-024120Y015220
X-023120Y015220
X-024240Y017220
X-025250Y017220
X-026120Y015210
X-027120Y015220
X-027120Y013840
X-026120Y013210
X-028020Y011950
X-029000Y011970
X-029630Y009960
X-030120Y008590
X-031500Y009840
X-033500Y009840
X-032620Y011970
X-031640Y011950
X-030120Y013840
X-030120Y015220
X-030620Y017220
X-029610Y017210
X-032490Y018390
X-033200Y017680
X-034890Y020950
X-034890Y021870
X-035890Y021870
X-035890Y020950
X-037270Y022130
X-033520Y022100
X-034660Y029280
X-034660Y030780
X-034660Y032030
X-037410Y032030
X-037410Y030780
X-037410Y029280
X-044740Y026810
X-045620Y022830
X-046620Y022830
X-046110Y021010
X-046110Y018000
X-046880Y001980
X-047720Y000690
X-047720Y-000310
X-033500Y004710
X-031500Y004720
X-030120Y004720
X-030120Y006470
X-025510Y002210
X-024810Y002840
X-024120Y002210
X-023120Y002220
X-022710Y000450
X-023120Y-001410
X-023120Y-003280
X-020120Y-003290
X-020120Y-001410
X-020710Y000450
X-020120Y002210
X-020230Y003850
X-020120Y005210
X-018870Y005720
X-018870Y007470
X-020120Y006970
X-019620Y009220
X-018010Y008840
X-017320Y009460
X-016620Y008840
X-015870Y007460
X-015870Y005720
X-015880Y004470
X-015870Y002460
X-018230Y003860
X-015900Y-001040
X-015890Y-003050
X-017870Y-002660
X-021630Y009210
X-023870Y009470
X-020120Y011470
X-018870Y011220
X-018870Y012840
X-020120Y013220
X-020120Y015220
X-019870Y017220
X-018870Y017220
X-015870Y012840
X-015870Y011210
X-013030Y022690
X-011430Y022230
X-010580Y024510
X-008220Y025510
X-008220Y027390
X-009480Y028750
X-009850Y030180
X-009480Y031410
X-009380Y032760
X-010280Y034950
X-011660Y034950
X-012100Y036690
X-010720Y037510
X-010720Y039390
X-007970Y039640
X-006970Y039640
X-005970Y039640
X-002220Y037890
X000780Y039640
X000860Y045570
X-001140Y045570
X-001090Y049470
X-001450Y051180
X-000680Y051950
X001030Y051590
X003060Y051750
X002310Y054180
X003440Y055680
X003440Y057180
X003440Y059430
X-000100Y057390
X-000810Y056680
X-002590Y057870
X-001240Y054180
X000060Y054180
X001310Y048680
X003310Y048680
X004690Y048680
X004430Y046900
X003070Y045480
X004430Y044890
X006060Y051750
X008410Y054740
X008410Y055740
X011930Y055310
X012660Y055340
X012630Y054340
X012600Y053340
X011910Y053290
X012570Y052340
X012690Y056340
X012720Y057340
X011960Y057340
X017280Y053620
X017280Y051610
X020470Y053750
X021780Y052620
X021780Y050610
X023420Y048850
X022270Y047760
X020470Y047760
X020470Y044750
X022260Y044750
X025510Y044750
X027260Y045750
X025520Y047760
X025420Y048850
X024890Y050500
X024260Y051190
X024890Y051880
X025220Y054860
X027470Y053750
X028890Y051880
X028260Y051190
X028890Y050500
X030270Y048760
X032270Y048760
X031890Y050500
X031260Y051190
X031890Y051880
X034170Y051350
X036180Y051360
X033370Y056500
X030370Y056500
X027470Y056760
X025020Y057720
X023010Y057720
X020470Y056760
X022220Y054860
X018780Y058980
X022190Y062040
X025690Y067290
X027690Y067290
X029190Y067290
X031190Y067290
X032940Y067290
X034690Y067290
X036440Y067290
X038290Y067290
X038290Y070290
X036440Y070290
X034690Y070290
X032940Y070290
X031190Y070290
X029190Y070290
X027690Y070290
X025690Y070290
X019360Y077740
X018360Y077740
X017360Y077740
X016360Y077740
X015360Y077740
X014360Y077740
X013360Y077740
X009810Y077670
X007930Y077670
X002340Y076800
X002870Y074860
X000870Y074850
X-000660Y076800
X-003130Y077110
X-003130Y075230
X-003910Y073300
X-006910Y073300
X-008290Y073120
X-008920Y073810
X-008290Y074500
X-009910Y074790
X-012910Y074800
X-019130Y075980
X-019130Y077860
X-028940Y071170
X-030820Y071170
X-030940Y066170
X-029060Y066170
X-023760Y066770
X-025910Y057530
X-025910Y056280
X-025910Y054780
X-028660Y054780
X-028660Y056280
X-028660Y057530
X-034660Y057530
X-034660Y056280
X-034660Y054780
X-037410Y054780
X-037410Y056280
X-037410Y057530
X-037410Y049030
X-037410Y047780
X-037410Y046280
X-034660Y046280
X-034660Y047780
X-034660Y049030
X-028660Y049030
X-028660Y047780
X-028660Y046280
X-025910Y046280
X-025910Y047780
X-025910Y049030
X-023240Y052310
X-023240Y043810
X-025910Y040530
X-025910Y039280
X-025910Y037780
X-028660Y037780
X-028660Y039280
X-028660Y040530
X-034660Y040530
X-034660Y039280
X-034660Y037780
X-037410Y037780
X-037410Y039280
X-037410Y040530
X-044740Y043810
X-044740Y035310
X-028660Y032030
X-028660Y030780
X-028660Y029280
X-025910Y029280
X-025910Y030780
X-025910Y032030
X-023240Y035310
X-023240Y026810
X-014030Y029690
X-012480Y028750
X-011860Y030170
X-012480Y031410
X-012380Y032760
X-010580Y027520
X-006720Y030010
X-006720Y031890
X-002750Y033620
X000780Y032140
X006560Y033210
X008060Y033210
X009310Y033210
X009310Y030460
X008060Y030460
X006560Y030460
X007680Y026940
X007680Y026190
X007830Y024870
X007830Y023990
X007950Y022620
X009070Y023110
X010320Y023110
X011570Y023110
X011570Y025610
X009070Y025610
X006310Y025130
X005430Y025130
X004180Y026130
X004180Y026880
X003330Y024890
X-000760Y020380
X-001380Y021000
X-002680Y016730
X-002680Y015230
X001920Y012690
X003800Y012690
X003370Y010130
X002490Y010130
X005910Y010400
X007410Y010400
X007970Y011740
X007350Y012360
X008690Y013010
X011570Y013110
X011440Y016510
X010190Y016510
X008690Y016510
X014410Y021120
X014410Y021990
X016970Y019470
X018980Y019470
X021260Y018940
X021890Y019640
X021260Y020330
X020890Y022070
X022890Y022070
X024260Y020330
X024890Y019640
X024260Y018940
X025690Y017070
X027930Y015970
X028130Y013100
X030140Y013110
X032680Y014070
X030940Y015970
X032690Y017070
X031380Y018200
X031370Y020210
X029730Y021970
X030890Y023070
X032680Y023070
X032690Y026070
X030890Y026070
X027640Y026070
X025890Y025070
X027640Y023070
X027730Y021970
X028260Y020330
X028890Y019640
X028260Y018940
X025890Y022070
X022890Y025070
X020890Y025070
X029810Y030460
X031310Y030460
X032560Y030460
X032560Y033210
X031310Y033210
X029810Y033210
X036410Y028740
X036410Y027740
X035870Y019210
X035880Y017200
X035760Y014950
X034490Y008970
X032610Y008970
X031020Y009410
X029050Y008710
X029040Y007700
X027110Y006480
X026110Y006480
X023860Y006480
X022860Y006480
X018700Y009620
X014060Y008980
X013050Y008980
X013080Y006980
X014080Y006980
X014020Y005040
X013010Y005040
X010770Y005160
X007410Y008390
X005910Y008390
X004050Y002820
X001800Y002820
X001800Y001480
X015800Y-002090
X015940Y-004200
X015940Y-005210
X017710Y-003960
X022360Y-004020
X023360Y-004020
X023790Y-001930
X022290Y-001930
X025610Y-004020
X026610Y-004020
X029540Y-002560
X031430Y-002560
X032540Y-000430
X032540Y001320
X034700Y001720
X036050Y003320
X036160Y004820
X034700Y004720
X035550Y006370
X032550Y006370
X032540Y004940
X032540Y003570
X037610Y001490
X037610Y000490
X033750Y-005160
X031910Y-005560
X031910Y-006930
X033750Y-007170
X034910Y-009530
X034590Y-011010
X031910Y-010930
X031910Y-009180
X036980Y-008510
X036980Y-007510
X039820Y-017020
X039820Y-018020
X038600Y-019550
X040010Y-020260
X040010Y-021260
X035820Y-018270
X034810Y-018270
X024920Y-019670
X024230Y-019040
X023530Y-019670
X018820Y-019770
X014320Y-019770
X009160Y-019590
X006960Y-015110
X015750Y-013860
X015750Y-012860
X021790Y-012430
X023290Y-012430
X016160Y-036090
X014660Y-036090
X013160Y-036090
X035160Y-036090
X036660Y-036090
X038160Y-036090
X025680Y014070
X022790Y014320
X019780Y014320
X017260Y014950
X035790Y042490
X035790Y043490
X032260Y045750
X030260Y045750
X027270Y048760
X014190Y064540
X012330Y065370
X011710Y066060
X012330Y066750
X014190Y067540
X010190Y065040
X007190Y065040
X006190Y066040
X003190Y066040
X-000160Y067400
X-001660Y068020
X-001660Y071020
X000210Y071060
X000830Y071750
X000830Y070370
X-000160Y064400
X-006340Y059990
X-008090Y059490
X-007340Y057800
X-008090Y055990
X-009590Y055990
X-010840Y055990
X-010970Y059390
X-011800Y066870
X-010970Y049390
X-009720Y049390
X-008470Y049390
X-007350Y049870
X-007340Y048490
X-007340Y047490
X-008470Y045640
X-010720Y045640
X-012710Y044300
X-013780Y044300
X-016340Y045370
X-016340Y046240
X-015780Y041740
X-015780Y040870
X-044740Y052310
X-050810Y065290
X-051810Y065290
X-051890Y067020
X-050890Y067020
X-050930Y069700
X-052430Y069700
X-052430Y071700
X-050930Y071700
X-050440Y074550
X-052320Y074550
X-052560Y076820
X-050560Y076830
X-038320Y070300
X-036440Y070300
X-035560Y066050
X-037440Y066050
X-035870Y-010960
X-035860Y-012970
X-047900Y-020550
X-035200Y-028690
X-032190Y-028690
X-031520Y-031130
X-032160Y-035280
X-033170Y-035280
X-034170Y-035270
X-035180Y-035270
X-036190Y-035270
X-032120Y-036530
X-029310Y-036540
X-027610Y-034510
X-026920Y-035140
X-026230Y-034510
X-023340Y-034130
X-023340Y-036940
X-021620Y-037030
X-018810Y-037040
X-025400Y-030550
X-026240Y-026010
X-026240Y-025010
X-027900Y-026050
X-014180Y-019270
T07
X-050520Y-029800
X-050520Y-027800
X-050520Y-025800
X-050520Y-023800
X-048900Y-020550
X-046670Y-016830
X-044950Y-016840
X-045930Y-014830
X-045320Y-013690
X-039670Y-016830
X-037700Y-016840
X-038680Y-014830
X-037360Y-013660
X-037360Y-009660
X-032630Y-012690
X-033230Y-016580
X-035480Y-017330
X-038730Y-020580
X-039730Y-021580
X-037300Y-022650
X-035600Y-022080
X-035810Y-024850
X-035230Y-027420
X-033980Y-027420
X-032730Y-027420
X-031810Y-024850
X-030480Y-024420
X-030310Y-026100
X-027900Y-025050
X-030850Y-022080
X-028480Y-018720
X-027730Y-018720
X-027100Y-018720
X-026480Y-018720
X-025730Y-018720
X-024980Y-018720
X-024230Y-018720
X-023480Y-018720
X-022730Y-018720
X-021980Y-018720
X-021980Y-017970
X-021980Y-017090
X-021980Y-016220
X-021980Y-015470
X-021980Y-014720
X-021980Y-013970
X-021980Y-013220
X-021980Y-012470
X-021980Y-011720
X-021980Y-010970
X-021980Y-010220
X-021980Y-009470
X-022730Y-009470
X-023480Y-009470
X-024230Y-009470
X-024980Y-009470
X-025730Y-009470
X-026480Y-009470
X-027230Y-009470
X-027680Y-009410
X-028480Y-009470
X-028480Y-010220
X-028480Y-010970
X-028480Y-011720
X-028480Y-012470
X-028480Y-013220
X-028480Y-013970
X-028480Y-014720
X-028480Y-015470
X-028480Y-016220
X-028480Y-017090
X-028480Y-017840
X-030850Y-017330
X-039730Y-024580
X-041830Y-026040
X-041830Y-027290
X-041830Y-028540
X-038800Y-031150
X-037280Y-030690
X-035890Y-032080
X-035160Y-029970
X-033520Y-031140
X-030310Y-030100
X-025400Y-029550
X-019600Y-030580
X-014850Y-030580
X-014850Y-025830
X-017230Y-025080
X-019480Y-025830
X-015560Y-023160
X-016900Y-014490
X-015910Y-012490
X-017880Y-012480
X-016160Y-008530
X-012660Y-005490
X-011680Y-003490
X-013640Y-003480
X-008700Y-003660
X-008700Y-004990
X-008700Y-008990
X-008780Y-008990
X-008930Y-011950
X-009010Y-011950
X-007190Y-011900
X-007120Y-011900
X-007190Y-015900
X-009010Y-015950
X-008700Y000340
X-008680Y001700
X-008680Y005700
X-008680Y007000
X-011740Y006840
X-013700Y006850
X-012720Y004840
X-016930Y001480
X-018890Y001490
X-017910Y-000520
X-008680Y011000
X-008730Y012290
X-006810Y012250
X-008730Y016290
X-008790Y017540
X-011580Y017330
X-013550Y017330
X-012570Y015320
X-008790Y021540
X-006430Y021320
X-003560Y019420
X000820Y020970
X003070Y021740
X001840Y023480
X005840Y023480
X005450Y020970
X005450Y016220
X000700Y016220
X009280Y010710
X009280Y009710
X010780Y009710
X010780Y010710
X010780Y008210
X013460Y014710
X013460Y015710
X016390Y021940
X017390Y022940
X018390Y023940
X018390Y021940
X016390Y023940
X013460Y025210
X005960Y026840
X003050Y031450
X002290Y033950
X002290Y034000
X003290Y035000
X002290Y036000
X004290Y036000
X004290Y034000
X011060Y033210
X-003300Y030920
X-004800Y029290
X-003640Y028470
X-005720Y034640
X-007470Y033890
X-007470Y035640
X-007470Y037390
X-005720Y036640
X-012360Y026160
X-019020Y028640
X-018280Y031010
X-019020Y033260
X-019020Y037140
X-018280Y039510
X-019020Y041760
X-016150Y043590
X-019020Y045640
X-018280Y048010
X-019020Y050260
X-019020Y054140
X-018280Y056510
X-019020Y058760
X-023770Y058890
X-025800Y061170
X-029140Y062600
X-029550Y061170
X-030550Y058180
X-030550Y056170
X-030940Y054440
X-032950Y054430
X-033050Y056170
X-033050Y058180
X-033800Y061170
X-035000Y062210
X-037300Y061170
X-040110Y058410
X-040110Y053660
X-040110Y049910
X-041100Y045530
X-040110Y045160
X-040110Y041410
X-040110Y036660
X-040110Y032910
X-044860Y032910
X-045600Y030530
X-044860Y028280
X-040110Y028160
X-037300Y025670
X-035260Y025040
X-033800Y025670
X-033380Y023310
X-029550Y025670
X-030940Y028940
X-030550Y030670
X-030550Y032680
X-033050Y032680
X-033050Y030670
X-032950Y028930
X-025800Y025670
X-023770Y028640
X-023770Y033390
X-023770Y037140
X-023770Y041890
X-023770Y045640
X-023770Y050390
X-023770Y054140
X-030550Y049680
X-030550Y047670
X-030940Y045940
X-032950Y045930
X-033050Y047670
X-033050Y049680
X-033050Y041180
X-033050Y039170
X-032950Y037430
X-030940Y037440
X-030550Y039170
X-030550Y041180
X-044860Y041410
X-045600Y039030
X-044860Y036780
X-047400Y043590
X-044860Y045280
X-045600Y047530
X-044860Y049910
X-044860Y053780
X-045600Y056030
X-044860Y058410
X-043980Y064330
X-042040Y069700
X-041040Y069700
X-042040Y072700
X-044200Y072890
X-043700Y074140
X-045580Y072770
X-046460Y071880
X-047270Y075950
X-045270Y075950
X-041270Y075950
X-039270Y075950
X-037270Y075950
X-036400Y077570
X-035270Y075950
X-035400Y079320
X-037400Y079320
X-039400Y079320
X-041400Y079320
X-030040Y076700
X-029040Y076700
X-030040Y074200
X-027330Y069960
X-027330Y068710
X-027330Y067460
X-021610Y068480
X-020870Y066230
X-020870Y070860
X-016120Y070860
X-015370Y068730
X-016120Y066110
X-014650Y063700
X-008900Y066320
X-009650Y068570
X-008900Y070950
X-004150Y070950
X-004150Y066200
X-002360Y059410
X-002680Y056620
X-005680Y056620
X-005680Y053620
X-005680Y051620
X-005680Y049620
X-002680Y049620
X-002680Y051620
X-002680Y053620
X-013110Y053910
X-013110Y054910
X-033830Y067210
X-033830Y068460
X-033830Y069710
X008100Y073950
X011020Y061210
X012520Y061330
X014270Y061330
X015380Y061240
X018270Y061210
X024100Y070320
X024970Y071940
X025970Y071940
X026970Y071940
X028470Y071940
X029470Y071940
X030470Y071940
X031970Y071940
X032970Y071940
X033970Y071940
X035470Y071940
X036470Y071940
X037470Y071940
X039850Y074010
X039600Y077130
X033100Y079320
X031100Y079320
X029100Y079320
X027100Y079320
X024100Y079320
X022140Y076770
X034460Y061200
X034760Y048890
X035760Y047890
X034760Y046890
X036760Y046890
X036760Y048890
X031190Y044270
X023970Y044300
X018260Y046890
X017260Y047890
X018260Y048890
X016260Y048890
X016260Y046890
X027810Y033210
X034790Y033950
X035790Y034950
X034790Y035950
X036790Y035950
X036790Y033950
X036300Y038450
X034460Y028260
X034830Y023970
X034830Y021970
X036830Y021970
X036830Y023970
X034770Y013780
X034370Y011840
X031440Y012960
X028000Y011330
X023970Y011370
X021070Y002170
X019110Y002170
X020090Y000160
X020170Y-008460
X018200Y-008450
X019180Y-010460
X022190Y-017290
X021840Y-019160
X031190Y-015790
X036990Y-014870
X037990Y-014870
X038020Y-013670
X037020Y-013670
X037690Y-012040
X037690Y-011040
X039070Y-010440
X037690Y-016290
X037690Y-017170
X038600Y-018550
X037340Y-002730
X036340Y-002730
X036460Y-001350
X037460Y-001350
X037690Y003210
X037690Y004210
X037440Y007710
X037440Y008710
X037440Y009710
X028600Y-037050
X-037730Y-028080
X-039850Y-033430
X-042630Y-033370
X-040130Y005320
X-037880Y006060
X-042510Y006060
X-042510Y010810
X-044580Y012280
X-042800Y014820
X-038050Y014820
X-037760Y010810
X-035650Y010670
X-035150Y017950
X-038050Y019570
X-040430Y020330
X-042680Y019570
X-044730Y021060
T08
X-025650Y-008190
X-024650Y-008180
X-023650Y-008190
X-023660Y-005660
X-024660Y-005660
X-025660Y-005660
X-028070Y-003060
X-029560Y-003060
X-029120Y-000530
X-027620Y-000530
T09
X-045320Y-009690
X-043320Y-009690
X-040320Y-009690
X-039320Y-009690
X-039320Y-001190
X-038570Y-001190
X-040190Y-001190
X-043570Y-001190
X-045320Y-001190
X-046070Y-001190
X-019650Y-012800
X-009190Y-018040
X-009190Y-020040
X-005460Y-020680
X-005460Y-018930
X-005460Y-016930
X-001460Y-017180
X-001460Y-015680
X000790Y-015930
X000790Y-015180
X-001460Y-020680
X-001460Y-022430
X000790Y-021930
X000790Y-021180
X000790Y-022930
X004180Y-020420
X-002600Y-000590
X-002600Y003030
X-002600Y007280
X-002730Y011030
X-019650Y023200
X-004720Y043970
X-002590Y043970
X017410Y055880
X035990Y055880
X035790Y022940
T10
X007190Y038580
X007980Y038580
X009550Y038580
X010340Y038580
X028650Y038380
X029440Y038380
X031010Y038380
X031800Y038380
T11
X002040Y028810
X004670Y038180
X015420Y038180
X023420Y032680
X035920Y031180
X034170Y040060
T12
X005670Y069190
X005670Y075190
T13
X-047550Y-004560
X-047490Y-002710
X-047620Y005540
X-047550Y007440
X-011090Y051170
X-011090Y054170
X-008090Y054170
X-008090Y051170
X008690Y021320
X011690Y021320
X011690Y018320
X008690Y018320
X-046760Y068270
X-044510Y071520
T14
X-029620Y-006910
X-019550Y-006910
T15
X-051640Y-036620
X-020640Y-035120
X033610Y-020620
X036610Y-028620
X010440Y035160
X007940Y042410
X008320Y061040
X-013810Y060910
X-027120Y063520
X-024640Y073760
X-042120Y061610
X-052020Y079570
X-013310Y042410
X-051890Y019130
X039360Y078900
T16
X-007520Y-019060
X002480Y-018930
T17
X-038890Y-012430
X-038890Y022940
X-042560Y024920
X-001390Y022940
X015570Y025970
X015570Y011850
X006160Y-005060
X-001390Y-012560
X037580Y011910
X037610Y025940
X037580Y044850
X037610Y058880
X015570Y058910
X015570Y044790
T18
X-008650Y-028680
X009350Y-028680
X020790Y032680
X018040Y038180
M30
