%FSLAX34Y34*%
%MOMM*%
%LNSOLDERMASK_BOTTOM*%
G71*
G01*
%ADD10C,2.600*%
%ADD11C,2.400*%
%ADD12C,2.800*%
%ADD13C,2.600*%
%ADD14C,5.100*%
%ADD15C,1.600*%
%ADD16C,3.100*%
%ADD17C,7.600*%
%ADD18C,3.200*%
%ADD19C,2.900*%
%ADD20C,2.600*%
%ADD21C,2.600*%
%ADD22C,2.400*%
%ADD23C,2.600*%
%ADD24C,3.600*%
%ADD25C,2.800*%
%ADD26C,3.000*%
%ADD27C,1.800*%
%ADD28C,1.600*%
%ADD29C,2.700*%
%ADD30C,2.700*%
%ADD31C,2.500*%
%ADD32C,2.800*%
%ADD33C,4.200*%
%ADD34C,2.700*%
%ADD35C,2.800*%
%ADD36C,2.100*%
%ADD37C,1.600*%
%ADD38C,6.600*%
%ADD39C,4.200*%
%ADD40C,4.600*%
%ADD41C,5.600*%
%ADD42C,1.900*%
%ADD43R,1.470X0.835*%
%ADD44C,2.500*%
%ADD45C,2.250*%
%ADD46C,5.200*%
%ADD47C,1.200*%
%LPD*%
X1238195Y1903521D02*
G54D10*
D03*
X1238245Y1979771D02*
G54D10*
D03*
X1157201Y1900121D02*
G54D10*
D03*
X1157314Y1849140D02*
G54D10*
D03*
X1271501Y1874721D02*
G54D10*
D03*
X1271613Y1823740D02*
G54D10*
D03*
X1238211Y1674921D02*
G54D10*
D03*
X1238261Y1751171D02*
G54D10*
D03*
X1358932Y1931535D02*
G54D10*
D03*
X1282682Y1931585D02*
G54D10*
D03*
X1283891Y1751171D02*
G54D10*
D03*
X1283841Y1674921D02*
G54D10*
D03*
X1415994Y1903520D02*
G54D10*
D03*
X1416044Y1979770D02*
G54D10*
D03*
X1313326Y1779005D02*
G54D10*
D03*
X1410891Y1776571D02*
G54D10*
D03*
X1410841Y1700321D02*
G54D10*
D03*
X1487090Y1776571D02*
G54D10*
D03*
X1487040Y1700321D02*
G54D10*
D03*
X1537890Y1776571D02*
G54D10*
D03*
X1537840Y1700321D02*
G54D10*
D03*
X1637362Y1842616D02*
G54D10*
D03*
X1586382Y1842503D02*
G54D10*
D03*
X1565908Y1973339D02*
G54D10*
D03*
X1489658Y1973389D02*
G54D10*
D03*
X1350566Y1855946D02*
G54D11*
D03*
X1334666Y1838371D02*
G54D11*
D03*
X1350600Y1820755D02*
G54D11*
D03*
X1452166Y1855946D02*
G54D11*
D03*
X1436266Y1838371D02*
G54D11*
D03*
X1452200Y1820755D02*
G54D11*
D03*
X1528366Y1855946D02*
G54D11*
D03*
X1512466Y1838371D02*
G54D11*
D03*
X1528400Y1820755D02*
G54D11*
D03*
X1131466Y1779846D02*
G54D12*
D03*
X1182266Y1779846D02*
G54D12*
D03*
X1156866Y1754446D02*
G54D12*
D03*
X1182266Y1729046D02*
G54D12*
D03*
X1131466Y1729046D02*
G54D12*
D03*
X1601366Y1779846D02*
G54D12*
D03*
X1652166Y1779846D02*
G54D12*
D03*
X1626766Y1754446D02*
G54D12*
D03*
X1652166Y1729046D02*
G54D12*
D03*
X1601366Y1729046D02*
G54D12*
D03*
X1302892Y2004155D02*
G54D10*
D03*
X1353872Y2004268D02*
G54D10*
D03*
X1238211Y1674921D02*
G54D13*
D03*
X1283841Y1674921D02*
G54D13*
D03*
X1410841Y1700321D02*
G54D13*
D03*
X1487040Y1700321D02*
G54D13*
D03*
X1238211Y1674921D02*
G54D13*
D03*
X1113790Y2034540D02*
G54D14*
D03*
X1364126Y1779005D02*
G54D10*
D03*
X1366441Y1751171D02*
G54D10*
D03*
X1366391Y1674921D02*
G54D10*
D03*
X1195441Y2036321D02*
G54D10*
D03*
X1106666Y1830546D02*
G54D15*
D03*
X1283841Y1674921D02*
G54D13*
D03*
X1366391Y1674921D02*
G54D13*
D03*
X1410841Y1700321D02*
G54D13*
D03*
X1487040Y1700321D02*
G54D13*
D03*
X1673622Y2033746D02*
G54D14*
D03*
X1113790Y1675764D02*
G54D14*
D03*
X1672986Y1677352D02*
G54D14*
D03*
X1163816Y1957546D02*
G54D15*
D03*
X1160640Y1957546D02*
G54D16*
D03*
X1632365Y1957546D02*
G54D16*
D03*
X1246416Y1368305D02*
G54D17*
D03*
X1176566Y1508006D02*
G54D17*
D03*
X1109891Y1508005D02*
G54D18*
D03*
X1313091Y1368305D02*
G54D18*
D03*
X901016Y1518105D02*
G54D19*
D03*
X981016Y1518105D02*
G54D20*
D03*
X1446016Y1513105D02*
G54D20*
D03*
X1526016Y1513105D02*
G54D20*
D03*
X981016Y1518105D02*
G54D19*
D03*
X1446016Y1513105D02*
G54D19*
D03*
X1526016Y1513105D02*
G54D12*
D03*
X921016Y1518105D02*
G54D19*
D03*
X961016Y1518105D02*
G54D19*
D03*
X1466016Y1513106D02*
G54D19*
D03*
X1506016Y1513105D02*
G54D19*
D03*
X776591Y1401775D02*
G54D12*
D03*
X776591Y1452575D02*
G54D12*
D03*
X801991Y1427175D02*
G54D12*
D03*
X827391Y1452576D02*
G54D12*
D03*
X827391Y1401775D02*
G54D12*
D03*
X776591Y1400505D02*
G54D21*
D03*
X827391Y1400505D02*
G54D13*
D03*
X1602091Y1400505D02*
G54D12*
D03*
X1602091Y1451305D02*
G54D12*
D03*
X1627491Y1425905D02*
G54D12*
D03*
X1652891Y1451305D02*
G54D12*
D03*
X1652891Y1400505D02*
G54D12*
D03*
X1602091Y1400505D02*
G54D21*
D03*
X1652891Y1400505D02*
G54D13*
D03*
X1475548Y1311868D02*
G54D10*
D03*
X1475548Y1381718D02*
G54D10*
D03*
X1545398Y1311868D02*
G54D10*
D03*
X1545398Y1381718D02*
G54D10*
D03*
X1513648Y1381718D02*
G54D10*
D03*
X1513648Y1311868D02*
G54D10*
D03*
X1545399Y1311868D02*
G54D13*
D03*
X1545399Y1381718D02*
G54D13*
D03*
X884998Y1311868D02*
G54D10*
D03*
X884998Y1381718D02*
G54D10*
D03*
X954848Y1311868D02*
G54D10*
D03*
X954848Y1381718D02*
G54D10*
D03*
X923098Y1381718D02*
G54D10*
D03*
X923098Y1311868D02*
G54D10*
D03*
X954849Y1311868D02*
G54D13*
D03*
X954849Y1381718D02*
G54D13*
D03*
X1526016Y1513105D02*
G54D19*
D03*
X999299Y1381718D02*
G54D21*
D03*
X1424749Y1381718D02*
G54D21*
D03*
X1640291Y1514830D02*
G54D21*
D03*
X795741Y1337030D02*
G54D21*
D03*
X776591Y1451305D02*
G54D13*
D03*
X827391Y1451306D02*
G54D13*
D03*
X1602091Y1451305D02*
G54D13*
D03*
X1652891Y1451305D02*
G54D13*
D03*
X1652891Y1400505D02*
G54D13*
D03*
X1113790Y1197927D02*
G54D14*
D03*
X1673622Y1197134D02*
G54D14*
D03*
X1113790Y839152D02*
G54D14*
D03*
X1672986Y840740D02*
G54D14*
D03*
X1627365Y1120934D02*
G54D16*
D03*
X512966Y1838006D02*
G54D22*
D03*
X512966Y1914206D02*
G54D22*
D03*
X436766Y1838006D02*
G54D22*
D03*
X512966Y1838006D02*
G54D22*
D03*
X436766Y1914206D02*
G54D22*
D03*
X436766Y1838006D02*
G54D22*
D03*
X512966Y1914206D02*
G54D22*
D03*
X436766Y1914206D02*
G54D22*
D03*
X512878Y2049229D02*
G54D10*
D03*
X512878Y1960329D02*
G54D10*
D03*
X474778Y1960329D02*
G54D10*
D03*
X443028Y1960329D02*
G54D10*
D03*
X503234Y1697439D02*
G54D10*
D03*
X439735Y1792689D02*
G54D10*
D03*
X471484Y1792689D02*
G54D10*
D03*
X503234Y1792689D02*
G54D10*
D03*
X531717Y1804978D02*
G54D10*
D03*
X439734Y2046689D02*
G54D10*
D03*
X557328Y2061929D02*
G54D10*
D03*
X719756Y1914240D02*
G54D10*
D03*
X776906Y1914240D02*
G54D10*
D03*
X805606Y1990440D02*
G54D10*
D03*
X805606Y2047590D02*
G54D10*
D03*
X744556Y1848616D02*
G54D10*
D03*
X690604Y1794734D02*
G54D10*
D03*
X744556Y1848616D02*
G54D13*
D03*
X872332Y1852668D02*
G54D10*
D03*
X796082Y1852718D02*
G54D10*
D03*
X872332Y1852668D02*
G54D13*
D03*
X751506Y1774540D02*
G54D10*
D03*
X802306Y1774540D02*
G54D10*
D03*
X802306Y1774540D02*
G54D10*
D03*
X830913Y1678434D02*
G54D10*
D03*
X830801Y1729414D02*
G54D10*
D03*
X830913Y1678434D02*
G54D10*
D03*
X805606Y1952340D02*
G54D10*
D03*
X837356Y1774540D02*
G54D10*
D03*
X686736Y1914240D02*
G54D10*
D03*
X697656Y1977740D02*
G54D10*
D03*
X573960Y1976244D02*
G54D12*
D03*
X650160Y1976244D02*
G54D12*
D03*
X573960Y1900044D02*
G54D12*
D03*
X573960Y1849244D02*
G54D12*
D03*
X573960Y1798444D02*
G54D12*
D03*
X650160Y1900044D02*
G54D12*
D03*
X650160Y1849244D02*
G54D12*
D03*
X650160Y1798444D02*
G54D12*
D03*
X650160Y1976244D02*
G54D10*
D03*
X796411Y1693441D02*
G54D10*
D03*
X740191Y1695686D02*
G54D10*
D03*
X740191Y1695686D02*
G54D10*
D03*
X689391Y1695686D02*
G54D10*
D03*
G54D23*
X659575Y1647964D02*
X645433Y1662106D01*
G54D23*
X605600Y1647964D02*
X591458Y1662106D01*
X385366Y1932940D02*
G54D21*
D03*
X385366Y1907540D02*
G54D21*
D03*
X658416Y2047240D02*
G54D21*
D03*
X436766Y1914206D02*
G54D24*
D03*
X436766Y1838006D02*
G54D24*
D03*
X512966Y1838006D02*
G54D24*
D03*
X512966Y1914206D02*
G54D24*
D03*
X939044Y1079804D02*
G54D22*
D03*
X939044Y1003604D02*
G54D22*
D03*
X1015244Y1079804D02*
G54D22*
D03*
X939044Y1079804D02*
G54D22*
D03*
X1015244Y1003604D02*
G54D22*
D03*
X1015244Y1079804D02*
G54D22*
D03*
X939044Y1003604D02*
G54D22*
D03*
X1015244Y1003604D02*
G54D22*
D03*
X939132Y868581D02*
G54D10*
D03*
X939132Y957481D02*
G54D10*
D03*
X977232Y957481D02*
G54D10*
D03*
X1008982Y957481D02*
G54D10*
D03*
X1012276Y1188621D02*
G54D10*
D03*
X948776Y1188621D02*
G54D10*
D03*
X1012275Y1125121D02*
G54D10*
D03*
X980526Y1125121D02*
G54D10*
D03*
X948776Y1125121D02*
G54D10*
D03*
X920293Y1112832D02*
G54D10*
D03*
X1012276Y871121D02*
G54D10*
D03*
X1060294Y911845D02*
G54D21*
D03*
X1060294Y937245D02*
G54D21*
D03*
X1060294Y1178545D02*
G54D21*
D03*
X1015244Y1003604D02*
G54D24*
D03*
X1015244Y1079804D02*
G54D24*
D03*
X939044Y1079804D02*
G54D24*
D03*
X939044Y1003604D02*
G54D24*
D03*
X736036Y950223D02*
G54D12*
D03*
X739210Y1070873D02*
G54D12*
D03*
X856686Y950223D02*
G54D12*
D03*
X856686Y1070873D02*
G54D12*
D03*
X796361Y1090336D02*
G54D12*
D03*
X739210Y1070873D02*
G54D25*
D03*
X765057Y1134454D02*
G54D12*
D03*
X866657Y1134454D02*
G54D12*
D03*
X953957Y810314D02*
G54D12*
D03*
X953957Y784914D02*
G54D12*
D03*
X992057Y784914D02*
G54D12*
D03*
X992057Y746814D02*
G54D12*
D03*
X906552Y802308D02*
G54D10*
D03*
X906665Y751328D02*
G54D10*
D03*
X906552Y802308D02*
G54D10*
D03*
X906664Y751327D02*
G54D10*
D03*
X868452Y802308D02*
G54D10*
D03*
X868564Y751328D02*
G54D10*
D03*
X868452Y802308D02*
G54D10*
D03*
X868564Y751327D02*
G54D10*
D03*
X992057Y810314D02*
G54D12*
D03*
X803024Y1170264D02*
G54D10*
D03*
X765057Y1134454D02*
G54D12*
D03*
X573015Y1468753D02*
G54D26*
D03*
X573015Y1417953D02*
G54D26*
D03*
X528565Y1443354D02*
G54D26*
D03*
X528565Y1398903D02*
G54D26*
D03*
X528565Y1487803D02*
G54D26*
D03*
X541265Y1544953D02*
G54D10*
D03*
X515865Y1544953D02*
G54D10*
D03*
X566665Y1544953D02*
G54D10*
D03*
X480180Y1370328D02*
G54D10*
D03*
X403930Y1370378D02*
G54D10*
D03*
X401238Y1336068D02*
G54D10*
D03*
X477488Y1336018D02*
G54D10*
D03*
X417172Y1304592D02*
G54D10*
D03*
X468152Y1304704D02*
G54D10*
D03*
X446015Y1538691D02*
G54D10*
D03*
X446015Y1490891D02*
G54D10*
D03*
X449625Y1237066D02*
G54D10*
D03*
X449575Y1160816D02*
G54D10*
D03*
X509515Y1186004D02*
G54D10*
D03*
X509515Y1233803D02*
G54D10*
D03*
X422071Y1425847D02*
G54D10*
D03*
X457171Y1425848D02*
G54D10*
D03*
X547615Y1300303D02*
G54D10*
D03*
X547615Y1348104D02*
G54D10*
D03*
X401293Y1268421D02*
G54D10*
D03*
X477543Y1268371D02*
G54D10*
D03*
X648490Y1391998D02*
G54D10*
D03*
X401238Y1336068D02*
G54D10*
D03*
X401293Y1268422D02*
G54D10*
D03*
X509515Y1186004D02*
G54D10*
D03*
X449575Y1160816D02*
G54D10*
D03*
G36*
X423965Y1483023D02*
X423965Y1457023D01*
X397965Y1457023D01*
X397965Y1483023D01*
X423965Y1483023D01*
G37*
X623815Y1230542D02*
G54D27*
D03*
X623815Y1205142D02*
G54D28*
D03*
X573015Y1230541D02*
G54D28*
D03*
X573015Y1205141D02*
G54D27*
D03*
X623815Y1128941D02*
G54D28*
D03*
X573015Y1128941D02*
G54D28*
D03*
X625847Y1261307D02*
G54D12*
D03*
X628011Y1031333D02*
G54D21*
D03*
X573015Y1230541D02*
G54D27*
D03*
X623815Y1128941D02*
G54D27*
D03*
X573015Y1128941D02*
G54D27*
D03*
X1673566Y550483D02*
G54D10*
D03*
X1673566Y575983D02*
G54D10*
D03*
X-161976Y1281854D02*
G54D10*
D03*
X-231826Y1281854D02*
G54D10*
D03*
X-161976Y1351704D02*
G54D10*
D03*
X-231826Y1351704D02*
G54D10*
D03*
X-231826Y1319954D02*
G54D10*
D03*
X-161976Y1319954D02*
G54D10*
D03*
X-118568Y1273083D02*
G54D29*
D03*
X-67586Y1273195D02*
G54D29*
D03*
X60274Y1281854D02*
G54D10*
D03*
X-9576Y1281854D02*
G54D10*
D03*
X60274Y1351704D02*
G54D10*
D03*
X-9576Y1351704D02*
G54D10*
D03*
X-9576Y1319954D02*
G54D10*
D03*
X60274Y1319954D02*
G54D10*
D03*
X-57503Y1317181D02*
G54D10*
D03*
X-57616Y1368161D02*
G54D10*
D03*
X-121003Y1317181D02*
G54D10*
D03*
X-121116Y1368161D02*
G54D10*
D03*
X60274Y1351704D02*
G54D13*
D03*
X-9576Y1351704D02*
G54D13*
D03*
X-57616Y1368162D02*
G54D30*
D03*
X-121116Y1368162D02*
G54D13*
D03*
X-161976Y1351704D02*
G54D13*
D03*
X-231826Y1351704D02*
G54D13*
D03*
X-121003Y1317181D02*
G54D29*
D03*
X-121116Y1368161D02*
G54D29*
D03*
X-57616Y1368161D02*
G54D29*
D03*
X-57503Y1317181D02*
G54D29*
D03*
X114487Y1386146D02*
G54D12*
D03*
X235137Y1382972D02*
G54D12*
D03*
X114487Y1265496D02*
G54D12*
D03*
X235137Y1265496D02*
G54D12*
D03*
X253950Y1325821D02*
G54D12*
D03*
X127994Y1219216D02*
G54D31*
D03*
X229594Y1219217D02*
G54D31*
D03*
X235137Y1382972D02*
G54D12*
D03*
X-300508Y1253408D02*
G54D12*
D03*
X-421158Y1256582D02*
G54D12*
D03*
X-300508Y1374058D02*
G54D12*
D03*
X-421158Y1374058D02*
G54D12*
D03*
X-439970Y1313733D02*
G54D12*
D03*
X-421157Y1256582D02*
G54D12*
D03*
X-421158Y1374058D02*
G54D12*
D03*
X-418106Y1219216D02*
G54D31*
D03*
X-316506Y1219217D02*
G54D31*
D03*
X127994Y1219216D02*
G54D10*
D03*
X-418106Y1219216D02*
G54D10*
D03*
X-161976Y1497754D02*
G54D10*
D03*
X-231826Y1497754D02*
G54D10*
D03*
X-161976Y1567604D02*
G54D10*
D03*
X-231826Y1567604D02*
G54D10*
D03*
X-231826Y1535854D02*
G54D10*
D03*
X-161976Y1535854D02*
G54D10*
D03*
X-118568Y1488983D02*
G54D29*
D03*
X-67586Y1489095D02*
G54D29*
D03*
X60274Y1497754D02*
G54D10*
D03*
X-9576Y1497754D02*
G54D10*
D03*
X60274Y1567604D02*
G54D10*
D03*
X-9576Y1567604D02*
G54D10*
D03*
X-9576Y1535854D02*
G54D10*
D03*
X60274Y1535854D02*
G54D10*
D03*
X-57503Y1533081D02*
G54D10*
D03*
X-57616Y1584062D02*
G54D10*
D03*
X-121003Y1533081D02*
G54D10*
D03*
X-121116Y1584061D02*
G54D10*
D03*
X60274Y1567604D02*
G54D13*
D03*
X-9576Y1567604D02*
G54D13*
D03*
X-57616Y1584062D02*
G54D30*
D03*
X-121116Y1584062D02*
G54D13*
D03*
X-161976Y1567604D02*
G54D13*
D03*
X-231826Y1567604D02*
G54D13*
D03*
X-121003Y1533081D02*
G54D29*
D03*
X-121116Y1584061D02*
G54D29*
D03*
X-57616Y1584062D02*
G54D29*
D03*
X-57503Y1533081D02*
G54D29*
D03*
X114487Y1602046D02*
G54D12*
D03*
X235137Y1598872D02*
G54D12*
D03*
X114487Y1481396D02*
G54D12*
D03*
X235137Y1481396D02*
G54D12*
D03*
X253950Y1541721D02*
G54D12*
D03*
X127994Y1435116D02*
G54D31*
D03*
X229594Y1435117D02*
G54D31*
D03*
X235137Y1598872D02*
G54D12*
D03*
X-300508Y1469308D02*
G54D12*
D03*
X-421158Y1472482D02*
G54D12*
D03*
X-300508Y1589958D02*
G54D12*
D03*
X-421158Y1589958D02*
G54D12*
D03*
X-439970Y1529633D02*
G54D12*
D03*
X-421157Y1472481D02*
G54D12*
D03*
X-421158Y1589958D02*
G54D12*
D03*
X-418106Y1435116D02*
G54D31*
D03*
X-316506Y1435117D02*
G54D31*
D03*
X127994Y1435116D02*
G54D10*
D03*
X-418106Y1435116D02*
G54D10*
D03*
X-161976Y1713654D02*
G54D10*
D03*
X-231826Y1713654D02*
G54D10*
D03*
X-161976Y1783504D02*
G54D10*
D03*
X-231826Y1783504D02*
G54D10*
D03*
X-231826Y1751754D02*
G54D10*
D03*
X-161976Y1751754D02*
G54D10*
D03*
X-118568Y1704883D02*
G54D29*
D03*
X-67586Y1704995D02*
G54D29*
D03*
X60274Y1713654D02*
G54D10*
D03*
X-9576Y1713654D02*
G54D10*
D03*
X60274Y1783504D02*
G54D10*
D03*
X-9576Y1783504D02*
G54D10*
D03*
X-9576Y1751754D02*
G54D10*
D03*
X60274Y1751754D02*
G54D10*
D03*
X-57503Y1748981D02*
G54D10*
D03*
X-57616Y1799962D02*
G54D10*
D03*
X-121003Y1748981D02*
G54D10*
D03*
X-121116Y1799962D02*
G54D10*
D03*
X60274Y1783504D02*
G54D13*
D03*
X-9576Y1783504D02*
G54D13*
D03*
X-57616Y1799962D02*
G54D30*
D03*
X-121116Y1799962D02*
G54D13*
D03*
X-161976Y1783504D02*
G54D13*
D03*
X-231826Y1783504D02*
G54D13*
D03*
X-121003Y1748981D02*
G54D29*
D03*
X-121116Y1799962D02*
G54D29*
D03*
X-57616Y1799962D02*
G54D29*
D03*
X-57503Y1748981D02*
G54D29*
D03*
X114487Y1817946D02*
G54D12*
D03*
X235137Y1814772D02*
G54D12*
D03*
X114487Y1697296D02*
G54D12*
D03*
X235137Y1697296D02*
G54D12*
D03*
X253950Y1757621D02*
G54D12*
D03*
X127994Y1651016D02*
G54D31*
D03*
X229594Y1651016D02*
G54D31*
D03*
X235137Y1814772D02*
G54D12*
D03*
X-300508Y1685208D02*
G54D12*
D03*
X-421158Y1688382D02*
G54D12*
D03*
X-300508Y1805858D02*
G54D12*
D03*
X-421158Y1805858D02*
G54D12*
D03*
X-439970Y1745533D02*
G54D12*
D03*
X-421157Y1688382D02*
G54D12*
D03*
X-421158Y1805858D02*
G54D12*
D03*
X-418106Y1651016D02*
G54D31*
D03*
X-316506Y1651016D02*
G54D31*
D03*
X127994Y1651016D02*
G54D10*
D03*
X-418106Y1651016D02*
G54D10*
D03*
X-161976Y1929554D02*
G54D10*
D03*
X-231826Y1929554D02*
G54D10*
D03*
X-161976Y1999404D02*
G54D10*
D03*
X-231826Y1999404D02*
G54D10*
D03*
X-231826Y1967654D02*
G54D10*
D03*
X-161976Y1967654D02*
G54D10*
D03*
X-118568Y1920783D02*
G54D29*
D03*
X-67586Y1920895D02*
G54D29*
D03*
X60274Y1929554D02*
G54D10*
D03*
X-9576Y1929554D02*
G54D10*
D03*
X60274Y1999404D02*
G54D10*
D03*
X-9576Y1999404D02*
G54D10*
D03*
X-9576Y1967654D02*
G54D10*
D03*
X60274Y1967654D02*
G54D10*
D03*
X-57503Y1964881D02*
G54D10*
D03*
X-57616Y2015862D02*
G54D10*
D03*
X-121003Y1964881D02*
G54D10*
D03*
X-121116Y2015861D02*
G54D10*
D03*
X60274Y1999404D02*
G54D13*
D03*
X-9576Y1999404D02*
G54D13*
D03*
X-57616Y2015862D02*
G54D30*
D03*
X-121116Y2015862D02*
G54D13*
D03*
X-161976Y1999404D02*
G54D13*
D03*
X-231826Y1999404D02*
G54D13*
D03*
X-121003Y1964881D02*
G54D29*
D03*
X-121116Y2015861D02*
G54D29*
D03*
X-57616Y2015861D02*
G54D29*
D03*
X-57503Y1964881D02*
G54D29*
D03*
X114487Y2033846D02*
G54D12*
D03*
X235137Y2030672D02*
G54D12*
D03*
X114487Y1913196D02*
G54D12*
D03*
X235137Y1913196D02*
G54D12*
D03*
X253950Y1973521D02*
G54D12*
D03*
X127994Y1866916D02*
G54D31*
D03*
X229594Y1866916D02*
G54D31*
D03*
X235137Y2030672D02*
G54D12*
D03*
X-300508Y1901108D02*
G54D12*
D03*
X-421158Y1904282D02*
G54D12*
D03*
X-300508Y2021758D02*
G54D12*
D03*
X-421158Y2021758D02*
G54D12*
D03*
X-439970Y1961433D02*
G54D12*
D03*
X-421157Y1904282D02*
G54D12*
D03*
X-421158Y2021758D02*
G54D12*
D03*
X-418106Y1866916D02*
G54D31*
D03*
X-316506Y1866916D02*
G54D31*
D03*
X127994Y1866916D02*
G54D10*
D03*
X-418106Y1866916D02*
G54D10*
D03*
X63148Y1190181D02*
G54D29*
D03*
X63148Y1190181D02*
G54D29*
D03*
X-32102Y1190181D02*
G54D29*
D03*
X-32102Y1190181D02*
G54D29*
D03*
X-140052Y1190181D02*
G54D29*
D03*
X-140052Y1190181D02*
G54D29*
D03*
X-228952Y1190181D02*
G54D29*
D03*
X-228952Y1190181D02*
G54D29*
D03*
X63148Y2091881D02*
G54D29*
D03*
X63148Y2091881D02*
G54D29*
D03*
X-32102Y2091881D02*
G54D29*
D03*
X-32102Y2091881D02*
G54D29*
D03*
X-140052Y2091881D02*
G54D29*
D03*
X-140052Y2091881D02*
G54D29*
D03*
X-228952Y2091881D02*
G54D29*
D03*
X-228952Y2091881D02*
G54D29*
D03*
X-485588Y1645351D02*
G54D21*
D03*
X308162Y1645351D02*
G54D21*
D03*
X920114Y1615440D02*
G54D14*
D03*
X929640Y2088514D02*
G54D14*
D03*
X929639Y2088515D02*
G54D14*
D03*
X380364Y1615440D02*
G54D14*
D03*
X367664Y2085340D02*
G54D14*
D03*
X-240689Y812665D02*
G54D12*
D03*
X-243863Y692015D02*
G54D12*
D03*
X-361338Y812665D02*
G54D12*
D03*
X-361338Y692015D02*
G54D12*
D03*
X-301014Y673202D02*
G54D12*
D03*
X-368888Y914534D02*
G54D12*
D03*
X-365714Y1035184D02*
G54D12*
D03*
X-248238Y914534D02*
G54D12*
D03*
X-248239Y1035184D02*
G54D12*
D03*
X-308564Y1054472D02*
G54D12*
D03*
X-413968Y849958D02*
G54D31*
D03*
X-413968Y748358D02*
G54D31*
D03*
X-413968Y849958D02*
G54D10*
D03*
X-413968Y849958D02*
G54D12*
D03*
X-417766Y1073154D02*
G54D31*
D03*
X-417766Y971553D02*
G54D31*
D03*
X-417766Y1073154D02*
G54D10*
D03*
X-417766Y1073154D02*
G54D12*
D03*
X-243863Y692015D02*
G54D12*
D03*
X-248239Y1035184D02*
G54D12*
D03*
X-365714Y1035184D02*
G54D12*
D03*
X-248239Y1035184D02*
G54D12*
D03*
X-269478Y1120934D02*
G54D14*
D03*
X683022Y1120934D02*
G54D14*
D03*
X-269478Y222409D02*
G54D14*
D03*
X683022Y219234D02*
G54D14*
D03*
X767077Y860614D02*
G54D10*
D03*
X814877Y860614D02*
G54D10*
D03*
X767077Y860615D02*
G54D10*
D03*
X1675673Y645024D02*
G54D21*
D03*
X1675674Y619624D02*
G54D21*
D03*
X1675673Y257674D02*
G54D21*
D03*
X1675674Y232274D02*
G54D21*
D03*
X1644489Y503774D02*
G54D21*
D03*
X1669889Y503774D02*
G54D21*
D03*
X649055Y818433D02*
G54D32*
D03*
X652230Y723183D02*
G54D32*
D03*
X652230Y615233D02*
G54D32*
D03*
X652230Y523158D02*
G54D32*
D03*
X221660Y362695D02*
G54D33*
D03*
X-34040Y362595D02*
G54D33*
D03*
X66686Y394520D02*
G54D34*
D03*
X92060Y394395D02*
G54D34*
D03*
X117504Y394420D02*
G54D34*
D03*
X314766Y460779D02*
G54D10*
D03*
X314591Y511771D02*
G54D10*
D03*
X16836Y524645D02*
G54D35*
D03*
X-32564Y460545D02*
G54D35*
D03*
X5436Y460545D02*
G54D35*
D03*
X-21264Y524645D02*
G54D35*
D03*
X-132440Y473795D02*
G54D10*
D03*
X-132564Y524712D02*
G54D10*
D03*
X131086Y502370D02*
G54D10*
D03*
X207336Y502320D02*
G54D10*
D03*
X-135014Y405670D02*
G54D10*
D03*
X-135014Y431170D02*
G54D10*
D03*
X131086Y454745D02*
G54D10*
D03*
X207335Y454695D02*
G54D10*
D03*
X105686Y873845D02*
G54D10*
D03*
X54769Y873720D02*
G54D10*
D03*
X70760Y829395D02*
G54D11*
D03*
X88336Y813495D02*
G54D11*
D03*
X105952Y829430D02*
G54D11*
D03*
X77110Y975445D02*
G54D10*
D03*
X102536Y975495D02*
G54D10*
D03*
X131086Y829395D02*
G54D10*
D03*
X207260Y829395D02*
G54D10*
D03*
X-46714Y889720D02*
G54D10*
D03*
X29536Y889670D02*
G54D10*
D03*
X112036Y778595D02*
G54D10*
D03*
X61119Y778470D02*
G54D10*
D03*
X105686Y715095D02*
G54D11*
D03*
X88086Y730995D02*
G54D11*
D03*
X70494Y715060D02*
G54D11*
D03*
X106060Y654695D02*
G54D11*
D03*
X88086Y670670D02*
G54D11*
D03*
X70494Y654735D02*
G54D11*
D03*
X131086Y715095D02*
G54D10*
D03*
X207260Y715095D02*
G54D10*
D03*
X105685Y594395D02*
G54D11*
D03*
X88086Y610345D02*
G54D11*
D03*
X70494Y594410D02*
G54D11*
D03*
X-46714Y657945D02*
G54D10*
D03*
X29536Y657895D02*
G54D10*
D03*
X-46506Y613766D02*
G54D10*
D03*
X29744Y613716D02*
G54D10*
D03*
X131086Y594445D02*
G54D10*
D03*
X207360Y594395D02*
G54D10*
D03*
X192406Y549655D02*
G54D10*
D03*
X141490Y549530D02*
G54D10*
D03*
X131086Y670645D02*
G54D10*
D03*
X207336Y670595D02*
G54D10*
D03*
X288361Y575795D02*
G54D21*
D03*
X263377Y524863D02*
G54D21*
D03*
X238478Y575910D02*
G54D21*
D03*
X296186Y762720D02*
G54D11*
D03*
X278385Y778520D02*
G54D11*
D03*
X260995Y762685D02*
G54D11*
D03*
X-59414Y975445D02*
G54D10*
D03*
X-33840Y975395D02*
G54D10*
D03*
X239036Y864320D02*
G54D10*
D03*
X315286Y864270D02*
G54D10*
D03*
X239036Y823045D02*
G54D10*
D03*
X315286Y822995D02*
G54D10*
D03*
X219986Y772245D02*
G54D10*
D03*
X169069Y772120D02*
G54D10*
D03*
X239036Y727795D02*
G54D10*
D03*
X315286Y727745D02*
G54D10*
D03*
X315186Y600770D02*
G54D10*
D03*
X315073Y651750D02*
G54D10*
D03*
X315235Y683345D02*
G54D10*
D03*
X238960Y683395D02*
G54D10*
D03*
X-110164Y842120D02*
G54D10*
D03*
X-85302Y841808D02*
G54D10*
D03*
X-81640Y657945D02*
G54D10*
D03*
X-132614Y657795D02*
G54D10*
D03*
X-46714Y702395D02*
G54D10*
D03*
X29536Y702345D02*
G54D10*
D03*
X16786Y581745D02*
G54D10*
D03*
X-34190Y581595D02*
G54D10*
D03*
X-106614Y578595D02*
G54D10*
D03*
X-131914Y578895D02*
G54D10*
D03*
X-81640Y788120D02*
G54D10*
D03*
X-132614Y788020D02*
G54D10*
D03*
X239036Y975445D02*
G54D10*
D03*
X213560Y975445D02*
G54D10*
D03*
X-46714Y756370D02*
G54D10*
D03*
X29536Y756320D02*
G54D10*
D03*
X16760Y791320D02*
G54D10*
D03*
X-34140Y791120D02*
G54D10*
D03*
X-18140Y842095D02*
G54D10*
D03*
X6760Y841795D02*
G54D10*
D03*
X131086Y873845D02*
G54D10*
D03*
X207260Y873845D02*
G54D10*
D03*
X131086Y924645D02*
G54D10*
D03*
X207260Y924695D02*
G54D10*
D03*
X-46740Y924695D02*
G54D10*
D03*
X29461Y924695D02*
G54D10*
D03*
X105686Y924645D02*
G54D10*
D03*
X54769Y924520D02*
G54D10*
D03*
X164310Y975445D02*
G54D36*
D03*
X204386Y636030D02*
G54D10*
D03*
X255366Y636142D02*
G54D10*
D03*
X264485Y470570D02*
G54D10*
D03*
X117560Y330095D02*
G54D34*
D03*
X92260Y330295D02*
G54D34*
D03*
X66773Y330226D02*
G54D34*
D03*
X454810Y318784D02*
G54D28*
D03*
X429410Y318784D02*
G54D28*
D03*
X454810Y369584D02*
G54D28*
D03*
X429410Y369584D02*
G54D28*
D03*
X353210Y318784D02*
G54D27*
D03*
X353210Y369584D02*
G54D28*
D03*
X497419Y309900D02*
G54D12*
D03*
X497419Y411500D02*
G54D12*
D03*
X495435Y309900D02*
G54D12*
D03*
X454810Y492218D02*
G54D28*
D03*
X429410Y492219D02*
G54D28*
D03*
X454810Y543018D02*
G54D28*
D03*
X429410Y543018D02*
G54D28*
D03*
X353210Y492218D02*
G54D28*
D03*
X353210Y543018D02*
G54D28*
D03*
X421710Y449589D02*
G54D21*
D03*
X396727Y398656D02*
G54D21*
D03*
X371828Y449703D02*
G54D21*
D03*
X457192Y841469D02*
G54D28*
D03*
X431792Y841468D02*
G54D28*
D03*
X457192Y892268D02*
G54D28*
D03*
X431792Y892268D02*
G54D28*
D03*
X355592Y841468D02*
G54D28*
D03*
X355592Y892268D02*
G54D28*
D03*
X457192Y1016887D02*
G54D28*
D03*
X431792Y1016887D02*
G54D28*
D03*
X457192Y1067688D02*
G54D28*
D03*
X431792Y1067687D02*
G54D28*
D03*
X355592Y1016888D02*
G54D28*
D03*
X355592Y1067687D02*
G54D28*
D03*
X424092Y978226D02*
G54D21*
D03*
X399108Y927294D02*
G54D21*
D03*
X374209Y978340D02*
G54D21*
D03*
X420123Y711923D02*
G54D21*
D03*
X395140Y660991D02*
G54D21*
D03*
X370240Y712038D02*
G54D21*
D03*
X455604Y754950D02*
G54D28*
D03*
X430204Y754950D02*
G54D28*
D03*
X455604Y805750D02*
G54D28*
D03*
X430204Y805750D02*
G54D28*
D03*
X354004Y754950D02*
G54D28*
D03*
X354004Y805750D02*
G54D28*
D03*
X454017Y582706D02*
G54D28*
D03*
X428617Y582706D02*
G54D28*
D03*
X454017Y633506D02*
G54D28*
D03*
X428617Y633506D02*
G54D28*
D03*
X352417Y582706D02*
G54D28*
D03*
X352417Y633506D02*
G54D28*
D03*
X497419Y445235D02*
G54D12*
D03*
X497419Y546835D02*
G54D12*
D03*
X497419Y445235D02*
G54D12*
D03*
X497816Y581363D02*
G54D12*
D03*
X497816Y682963D02*
G54D12*
D03*
X497816Y581363D02*
G54D12*
D03*
X497816Y715904D02*
G54D12*
D03*
X497816Y817504D02*
G54D12*
D03*
X497816Y715904D02*
G54D12*
D03*
X496626Y850444D02*
G54D12*
D03*
X496626Y952044D02*
G54D12*
D03*
X496626Y850444D02*
G54D12*
D03*
X495038Y983794D02*
G54D12*
D03*
X495038Y1085394D02*
G54D12*
D03*
X495038Y983794D02*
G54D12*
D03*
X545311Y849238D02*
G54D21*
D03*
X307980Y321394D02*
G54D21*
D03*
X353210Y369584D02*
G54D27*
D03*
X429410Y318784D02*
G54D27*
D03*
X454810Y318784D02*
G54D27*
D03*
X429410Y369584D02*
G54D27*
D03*
X454810Y369584D02*
G54D27*
D03*
X353210Y492218D02*
G54D27*
D03*
X353210Y543018D02*
G54D27*
D03*
X429410Y492219D02*
G54D27*
D03*
X454810Y492218D02*
G54D27*
D03*
X454810Y543018D02*
G54D27*
D03*
X429410Y543018D02*
G54D27*
D03*
X428617Y582706D02*
G54D27*
D03*
X454017Y582706D02*
G54D27*
D03*
X454017Y633506D02*
G54D27*
D03*
X428617Y633506D02*
G54D27*
D03*
X352417Y582706D02*
G54D27*
D03*
X352417Y633506D02*
G54D27*
D03*
X354004Y754950D02*
G54D27*
D03*
X430204Y754950D02*
G54D27*
D03*
X354004Y805750D02*
G54D27*
D03*
X430204Y805750D02*
G54D27*
D03*
X455604Y805750D02*
G54D27*
D03*
X455604Y754950D02*
G54D27*
D03*
X355592Y841468D02*
G54D27*
D03*
X355592Y892268D02*
G54D27*
D03*
X431792Y841468D02*
G54D27*
D03*
X457192Y841469D02*
G54D27*
D03*
X457192Y892268D02*
G54D27*
D03*
X431792Y892268D02*
G54D27*
D03*
X355592Y1016888D02*
G54D27*
D03*
X355592Y1067687D02*
G54D27*
D03*
X431792Y1016887D02*
G54D27*
D03*
X457192Y1016887D02*
G54D27*
D03*
X457192Y1067688D02*
G54D27*
D03*
X431792Y1067687D02*
G54D27*
D03*
X420123Y711923D02*
G54D21*
D03*
X424092Y978226D02*
G54D21*
D03*
X452826Y125111D02*
G54D28*
D03*
X427426Y125111D02*
G54D28*
D03*
X452826Y175911D02*
G54D28*
D03*
X427426Y175911D02*
G54D28*
D03*
X351226Y125111D02*
G54D27*
D03*
X351226Y175911D02*
G54D28*
D03*
X351226Y175911D02*
G54D27*
D03*
X427426Y125111D02*
G54D27*
D03*
X452826Y125111D02*
G54D27*
D03*
X427426Y175911D02*
G54D27*
D03*
X452826Y175911D02*
G54D27*
D03*
X314157Y220989D02*
G54D21*
D03*
X289174Y170056D02*
G54D21*
D03*
X264275Y221103D02*
G54D21*
D03*
X489574Y234600D02*
G54D12*
D03*
X489574Y133001D02*
G54D12*
D03*
X491558Y234601D02*
G54D12*
D03*
X535612Y235791D02*
G54D12*
D03*
X535612Y134191D02*
G54D12*
D03*
X537596Y235791D02*
G54D12*
D03*
X453620Y227505D02*
G54D28*
D03*
X428220Y227505D02*
G54D28*
D03*
X453620Y278305D02*
G54D28*
D03*
X428220Y278305D02*
G54D28*
D03*
X352020Y227504D02*
G54D27*
D03*
X352019Y278305D02*
G54D28*
D03*
X352019Y278305D02*
G54D27*
D03*
X428220Y227505D02*
G54D27*
D03*
X453620Y227505D02*
G54D27*
D03*
X428220Y278305D02*
G54D27*
D03*
X453620Y278305D02*
G54D27*
D03*
X219120Y1127427D02*
G54D32*
D03*
X219120Y213027D02*
G54D32*
D03*
X26755Y297733D02*
G54D12*
D03*
X160105Y164383D02*
G54D12*
D03*
X160105Y183433D02*
G54D12*
D03*
X160105Y202483D02*
G54D12*
D03*
X160105Y221533D02*
G54D12*
D03*
X160105Y240583D02*
G54D12*
D03*
X160105Y259633D02*
G54D12*
D03*
X160105Y278683D02*
G54D12*
D03*
X160105Y297733D02*
G54D12*
D03*
X160105Y145333D02*
G54D12*
D03*
X160105Y126283D02*
G54D12*
D03*
X160105Y126283D02*
G54D12*
D03*
X64855Y297733D02*
G54D12*
D03*
X83905Y297733D02*
G54D12*
D03*
X102955Y297733D02*
G54D12*
D03*
X122005Y297733D02*
G54D12*
D03*
X141055Y297733D02*
G54D12*
D03*
X45805Y297733D02*
G54D12*
D03*
X26755Y297733D02*
G54D12*
D03*
X160105Y297733D02*
G54D12*
D03*
X-174580Y994077D02*
G54D12*
D03*
X555036Y1079634D02*
G54D12*
D03*
X446084Y1697439D02*
G54D10*
D03*
X1076064Y715385D02*
G54D10*
D03*
X1050489Y715436D02*
G54D10*
D03*
X1075435Y766232D02*
G54D10*
D03*
X1049860Y766282D02*
G54D10*
D03*
X1669324Y784724D02*
G54D21*
D03*
X1669324Y759324D02*
G54D21*
D03*
X1669324Y733924D02*
G54D21*
D03*
X1675674Y102099D02*
G54D21*
D03*
X998168Y2092855D02*
G54D12*
D03*
X1593532Y2092686D02*
G54D12*
D03*
X1593532Y1256073D02*
G54D12*
D03*
X1182318Y2092855D02*
G54D12*
D03*
X1080718Y2096030D02*
G54D12*
D03*
X895082Y154398D02*
G54D10*
D03*
X1036268Y2096030D02*
G54D12*
D03*
X328243Y1734080D02*
G54D37*
D03*
X1506318Y777257D02*
G54D10*
D03*
X1594396Y765986D02*
G54D10*
D03*
X1546596Y765986D02*
G54D10*
D03*
X1675673Y124324D02*
G54D21*
D03*
X-452834Y1071721D02*
G54D10*
D03*
X-452884Y995471D02*
G54D10*
D03*
X-452884Y995471D02*
G54D13*
D03*
X-452884Y995471D02*
G54D13*
D03*
X-465769Y1118150D02*
G54D10*
D03*
X-440294Y1118150D02*
G54D10*
D03*
X395402Y1663466D02*
G54D10*
D03*
X368415Y1663466D02*
G54D10*
D03*
X531928Y1769829D02*
G54D10*
D03*
X531928Y1744429D02*
G54D10*
D03*
X531928Y1709504D02*
G54D15*
D03*
X366828Y1696804D02*
G54D15*
D03*
X931977Y1928580D02*
G54D10*
D03*
X931977Y1953979D02*
G54D10*
D03*
X954266Y1976596D02*
G54D15*
D03*
X1627302Y1642829D02*
G54D10*
D03*
X1627302Y1617429D02*
G54D10*
D03*
X1595616Y1659096D02*
G54D15*
D03*
X1643178Y1268179D02*
G54D10*
D03*
X1643178Y1242779D02*
G54D10*
D03*
X1671816Y1290796D02*
G54D15*
D03*
X1084378Y1096729D02*
G54D10*
D03*
X1084378Y1074504D02*
G54D10*
D03*
X1087616Y1138396D02*
G54D15*
D03*
X1062216Y1062196D02*
G54D15*
D03*
X698977Y1055922D02*
G54D10*
D03*
X683261Y1071638D02*
G54D10*
D03*
X693916Y1030446D02*
G54D15*
D03*
X662166Y1062196D02*
G54D15*
D03*
X920785Y836459D02*
G54D10*
D03*
X905070Y852174D02*
G54D10*
D03*
X897116Y884396D02*
G54D15*
D03*
X951090Y839946D02*
G54D15*
D03*
X398578Y1703154D02*
G54D15*
D03*
X963728Y1950804D02*
G54D15*
D03*
X919278Y1887304D02*
G54D15*
D03*
X941566Y1887696D02*
G54D15*
D03*
X1598728Y1626954D02*
G54D15*
D03*
X1668578Y1626954D02*
G54D15*
D03*
X1665466Y1595596D02*
G54D15*
D03*
X1681278Y1265004D02*
G54D15*
D03*
X1614666Y1227296D02*
G54D15*
D03*
X423978Y1639654D02*
G54D15*
D03*
X449378Y1639654D02*
G54D15*
D03*
X1090728Y1169754D02*
G54D15*
D03*
X1058978Y1023704D02*
G54D15*
D03*
X868478Y884004D02*
G54D15*
D03*
X982778Y839554D02*
G54D15*
D03*
X646228Y1080854D02*
G54D15*
D03*
X697028Y998304D02*
G54D15*
D03*
X598666Y1062196D02*
G54D15*
D03*
X595647Y1085017D02*
G54D15*
D03*
X1039928Y795104D02*
G54D15*
D03*
X1039990Y820896D02*
G54D15*
D03*
X-302550Y507838D02*
G54D16*
D03*
X-388275Y507838D02*
G54D16*
D03*
X-305725Y291938D02*
G54D16*
D03*
X-381925Y291938D02*
G54D16*
D03*
X-280325Y507838D02*
G54D16*
D03*
X-432725Y507838D02*
G54D16*
D03*
X-280325Y291938D02*
G54D16*
D03*
X-432725Y291938D02*
G54D16*
D03*
X-334447Y395135D02*
G54D10*
D03*
X-258197Y395086D02*
G54D10*
D03*
X-464622Y395135D02*
G54D10*
D03*
X-388372Y395086D02*
G54D10*
D03*
X-220621Y292772D02*
G54D12*
D03*
X-220621Y191172D02*
G54D12*
D03*
X-432725Y291938D02*
G54D12*
D03*
X-432725Y190338D02*
G54D12*
D03*
X-184715Y259721D02*
G54D10*
D03*
X-184603Y208740D02*
G54D10*
D03*
X-472052Y259721D02*
G54D10*
D03*
X-471940Y208740D02*
G54D10*
D03*
X-448335Y161495D02*
G54D21*
D03*
X-423436Y110448D02*
G54D21*
D03*
X-289169Y110563D02*
G54D21*
D03*
X-264185Y161495D02*
G54D21*
D03*
X-239286Y110448D02*
G54D21*
D03*
X-332352Y177170D02*
G54D10*
D03*
X-332240Y126190D02*
G54D10*
D03*
X-370452Y177170D02*
G54D10*
D03*
X-370340Y126190D02*
G54D10*
D03*
X-334397Y83935D02*
G54D10*
D03*
X-385197Y83935D02*
G54D10*
D03*
X-451775Y507838D02*
G54D16*
D03*
X-261275Y507838D02*
G54D16*
D03*
X-466969Y110563D02*
G54D21*
D03*
X-135014Y431170D02*
G54D10*
D03*
X-493789Y530289D02*
G54D10*
D03*
X-493790Y555789D02*
G54D10*
D03*
X-187278Y809108D02*
G54D12*
D03*
X498520Y-190198D02*
G54D12*
D03*
X955720Y-190198D02*
G54D38*
D03*
X308794Y2217234D02*
G54D12*
D03*
X188144Y2220407D02*
G54D12*
D03*
X308794Y2337884D02*
G54D12*
D03*
X188144Y2337884D02*
G54D12*
D03*
X169332Y2277558D02*
G54D12*
D03*
X188144Y2220407D02*
G54D12*
D03*
X114716Y2234166D02*
G54D31*
D03*
X114716Y2335765D02*
G54D31*
D03*
X114716Y2234165D02*
G54D10*
D03*
X188144Y2220407D02*
G54D12*
D03*
X612820Y2219627D02*
G54D12*
D03*
X492170Y2222801D02*
G54D12*
D03*
X612820Y2340277D02*
G54D12*
D03*
X492170Y2340277D02*
G54D12*
D03*
X473358Y2279952D02*
G54D12*
D03*
X492170Y2222800D02*
G54D12*
D03*
X418742Y2236559D02*
G54D31*
D03*
X418742Y2338159D02*
G54D31*
D03*
X418742Y2236559D02*
G54D10*
D03*
X492170Y2222801D02*
G54D12*
D03*
X-398832Y2172230D02*
G54D12*
D03*
X-469484Y2272265D02*
G54D24*
D03*
X29542Y2151462D02*
G54D14*
D03*
X-351458Y2103043D02*
G54D14*
D03*
X-362570Y1171180D02*
G54D14*
D03*
X-177171Y1174224D02*
G54D12*
D03*
X-170647Y2118219D02*
G54D12*
D03*
X-21849Y2128125D02*
G54D12*
D03*
X-176582Y-158220D02*
G54D12*
D03*
X-144832Y-158220D02*
G54D12*
D03*
X-113082Y-158220D02*
G54D12*
D03*
X-175646Y-190520D02*
G54D10*
D03*
X-99396Y-190570D02*
G54D10*
D03*
X-89734Y-93093D02*
G54D12*
D03*
X-191334Y-93093D02*
G54D12*
D03*
X-51634Y-226443D02*
G54D12*
D03*
X-51634Y-124843D02*
G54D12*
D03*
X-82193Y-252614D02*
G54D10*
D03*
X-133174Y-252727D02*
G54D10*
D03*
X-228442Y-241326D02*
G54D21*
D03*
X-174761Y-222978D02*
G54D21*
D03*
X-193250Y-276679D02*
G54D21*
D03*
X-55932Y-82020D02*
G54D12*
D03*
X-133174Y-252727D02*
G54D21*
D03*
X-185897Y-22554D02*
G54D12*
D03*
X-182723Y98096D02*
G54D12*
D03*
X-65247Y-22553D02*
G54D12*
D03*
X-65247Y98096D02*
G54D12*
D03*
X-125572Y116909D02*
G54D12*
D03*
X-182724Y98096D02*
G54D12*
D03*
X-65247Y98096D02*
G54D12*
D03*
X-229084Y-37134D02*
G54D31*
D03*
X-229084Y64465D02*
G54D31*
D03*
X1128794Y-381417D02*
G54D10*
D03*
X1052494Y-381418D02*
G54D10*
D03*
X1090694Y-380623D02*
G54D10*
D03*
X498520Y-190198D02*
G54D38*
D03*
X1687594Y-378638D02*
G54D10*
D03*
X1611294Y-378639D02*
G54D10*
D03*
X1649494Y-378638D02*
G54D10*
D03*
X738115Y1354453D02*
G54D10*
D03*
X681552Y1838110D02*
G54D10*
D03*
X701170Y1857728D02*
G54D10*
D03*
X738115Y1544953D02*
G54D10*
D03*
X661915Y1500503D02*
G54D10*
D03*
X361950Y1292225D02*
G54D10*
D03*
X387350Y1114425D02*
G54D10*
D03*
X-185622Y445854D02*
G54D15*
D03*
X-185622Y471254D02*
G54D15*
D03*
X-124898Y987210D02*
G54D10*
D03*
X-106867Y1005242D02*
G54D10*
D03*
X-96722Y1036404D02*
G54D15*
D03*
X-71322Y1036404D02*
G54D15*
D03*
X220503Y-238454D02*
G54D12*
D03*
X223677Y-117804D02*
G54D12*
D03*
X341153Y-238453D02*
G54D12*
D03*
X341153Y-117804D02*
G54D12*
D03*
X280828Y-98991D02*
G54D12*
D03*
X223676Y-117804D02*
G54D12*
D03*
X341153Y-117804D02*
G54D12*
D03*
X323043Y-50115D02*
G54D31*
D03*
X221443Y-50115D02*
G54D31*
D03*
X-296755Y-163999D02*
G54D10*
D03*
X-296755Y-189499D02*
G54D10*
D03*
X-489328Y727230D02*
G54D39*
D03*
X781447Y57309D02*
G54D40*
D03*
G36*
X753865Y154760D02*
X753865Y98760D01*
X722865Y98760D01*
X722865Y154760D01*
X753865Y154760D01*
G37*
G36*
X753865Y9109D02*
X753865Y-46891D01*
X722865Y-46891D01*
X722865Y9109D01*
X753865Y9109D01*
G37*
G36*
X696715Y141669D02*
X696715Y85669D01*
X665715Y85669D01*
X665715Y141669D01*
X696715Y141669D01*
G37*
G36*
X696715Y38477D02*
X696715Y-17523D01*
X665715Y-17523D01*
X665715Y38477D01*
X696715Y38477D01*
G37*
G36*
X595115Y134124D02*
X595115Y78124D01*
X564115Y78124D01*
X564115Y134124D01*
X595115Y134124D01*
G37*
G36*
X595115Y40859D02*
X595115Y-15141D01*
X564115Y-15141D01*
X564115Y40859D01*
X595115Y40859D01*
G37*
G36*
X696715Y180563D02*
X696715Y124563D01*
X665715Y124563D01*
X665715Y180563D01*
X696715Y180563D01*
G37*
G36*
X696715Y-13119D02*
X696715Y-69119D01*
X665715Y-69119D01*
X665715Y-13119D01*
X696715Y-13119D01*
G37*
G36*
X595115Y85309D02*
X595115Y29309D01*
X564115Y29309D01*
X564115Y85309D01*
X595115Y85309D01*
G37*
G36*
X753865Y177383D02*
X753865Y121383D01*
X722865Y121383D01*
X722865Y177383D01*
X753865Y177383D01*
G37*
G36*
X753865Y-16291D02*
X753865Y-72291D01*
X722865Y-72291D01*
X722865Y-16291D01*
X753865Y-16291D01*
G37*
X527447Y54134D02*
G54D40*
D03*
G36*
X471889Y92932D02*
X497889Y92932D01*
X497889Y66932D01*
X471889Y66932D01*
X471889Y92932D01*
G37*
G36*
X471889Y42132D02*
X497889Y42132D01*
X497889Y16132D01*
X471889Y16132D01*
X471889Y42132D01*
G37*
X-602853Y2559209D02*
G54D14*
D03*
X92472Y2411571D02*
G54D14*
D03*
X1572022Y14446D02*
G54D14*
D03*
X-593328Y-391954D02*
G54D14*
D03*
X194072Y-353854D02*
G54D14*
D03*
X24221Y2315111D02*
G54D12*
D03*
X24221Y2283361D02*
G54D12*
D03*
X24221Y2251611D02*
G54D12*
D03*
X-67629Y2219006D02*
G54D10*
D03*
X-19829Y2219006D02*
G54D10*
D03*
X-64454Y2346006D02*
G54D10*
D03*
X-16654Y2346006D02*
G54D10*
D03*
X-140879Y2308761D02*
G54D12*
D03*
X-140879Y2277011D02*
G54D12*
D03*
X-140879Y2245261D02*
G54D12*
D03*
X-232729Y2215831D02*
G54D10*
D03*
X-184929Y2215831D02*
G54D10*
D03*
X-254954Y2323780D02*
G54D10*
D03*
X-207154Y2323781D02*
G54D10*
D03*
X-344079Y-123289D02*
G54D12*
D03*
X-344079Y-155039D02*
G54D12*
D03*
X-344079Y-186789D02*
G54D12*
D03*
X-435929Y-219394D02*
G54D10*
D03*
X-388129Y-219394D02*
G54D10*
D03*
X-432754Y-92394D02*
G54D10*
D03*
X-384954Y-92394D02*
G54D10*
D03*
X-229084Y-37134D02*
G54D12*
D03*
X323043Y-50115D02*
G54D12*
D03*
X-290672Y-10091D02*
G54D12*
D03*
X681216Y1887696D02*
G54D15*
D03*
X671628Y1868254D02*
G54D15*
D03*
X697656Y1977740D02*
G54D10*
D03*
X715687Y1995771D02*
G54D10*
D03*
X693916Y2021046D02*
G54D15*
D03*
X674803Y2004779D02*
G54D15*
D03*
X-414414Y-13430D02*
G54D10*
D03*
X-414415Y12070D02*
G54D10*
D03*
X-496964Y-280130D02*
G54D10*
D03*
X-496965Y-254630D02*
G54D10*
D03*
X-412334Y2354815D02*
G54D24*
D03*
X-523830Y16177D02*
G54D12*
D03*
X-491116Y678918D02*
G54D39*
D03*
X-329918Y2467277D02*
G54D12*
D03*
X-279118Y2467277D02*
G54D12*
D03*
X-228318Y2467277D02*
G54D12*
D03*
X-177518Y2467277D02*
G54D12*
D03*
X-482318Y2467277D02*
G54D12*
D03*
X-431518Y2467277D02*
G54D12*
D03*
X-57616Y1799962D02*
G54D29*
D03*
X-121116Y1584061D02*
G54D29*
D03*
X-57616Y1584062D02*
G54D29*
D03*
X-121116Y1368161D02*
G54D29*
D03*
X-57616Y1368161D02*
G54D29*
D03*
X554947Y1773004D02*
G54D15*
D03*
X1548581Y971758D02*
G54D10*
D03*
X1548531Y895508D02*
G54D10*
D03*
X1629574Y975158D02*
G54D10*
D03*
X1629462Y1026138D02*
G54D10*
D03*
X1515275Y1000558D02*
G54D10*
D03*
X1515162Y1051538D02*
G54D10*
D03*
X1548565Y1200358D02*
G54D10*
D03*
X1548515Y1124108D02*
G54D10*
D03*
X1427844Y943744D02*
G54D10*
D03*
X1504094Y943694D02*
G54D10*
D03*
X1502885Y1124108D02*
G54D10*
D03*
X1502935Y1200358D02*
G54D10*
D03*
X1370782Y971758D02*
G54D10*
D03*
X1370732Y895509D02*
G54D10*
D03*
X1473450Y1096274D02*
G54D10*
D03*
X1375885Y1098708D02*
G54D10*
D03*
X1375935Y1174958D02*
G54D10*
D03*
X1299685Y1098708D02*
G54D10*
D03*
X1299735Y1174958D02*
G54D10*
D03*
X1248885Y1098708D02*
G54D10*
D03*
X1248935Y1174958D02*
G54D10*
D03*
X1149414Y1032664D02*
G54D10*
D03*
X1200394Y1032776D02*
G54D10*
D03*
X1220868Y901940D02*
G54D10*
D03*
X1297118Y901890D02*
G54D10*
D03*
X1436210Y1019332D02*
G54D11*
D03*
X1452110Y1036908D02*
G54D11*
D03*
X1436176Y1054524D02*
G54D11*
D03*
X1334610Y1019333D02*
G54D11*
D03*
X1350510Y1036908D02*
G54D11*
D03*
X1334575Y1054524D02*
G54D11*
D03*
X1258410Y1019333D02*
G54D11*
D03*
X1274310Y1036908D02*
G54D11*
D03*
X1258375Y1054524D02*
G54D11*
D03*
X1653722Y1096226D02*
G54D12*
D03*
X1602922Y1096226D02*
G54D12*
D03*
X1628322Y1121626D02*
G54D12*
D03*
X1602922Y1147026D02*
G54D12*
D03*
X1653722Y1147026D02*
G54D12*
D03*
X1185410Y1095433D02*
G54D12*
D03*
X1134610Y1095433D02*
G54D12*
D03*
X1160010Y1120833D02*
G54D12*
D03*
X1134610Y1146233D02*
G54D12*
D03*
X1185410Y1146232D02*
G54D12*
D03*
X1483884Y871124D02*
G54D10*
D03*
X1432904Y871011D02*
G54D10*
D03*
X1548565Y1200358D02*
G54D13*
D03*
X1502935Y1200358D02*
G54D13*
D03*
X1375935Y1174958D02*
G54D13*
D03*
X1299735Y1174958D02*
G54D13*
D03*
X1548565Y1200358D02*
G54D13*
D03*
X1672986Y840740D02*
G54D14*
D03*
X1422650Y1096274D02*
G54D10*
D03*
X1420335Y1124108D02*
G54D10*
D03*
X1420385Y1200358D02*
G54D10*
D03*
X1680110Y1044733D02*
G54D15*
D03*
X1502935Y1200358D02*
G54D13*
D03*
X1420385Y1200358D02*
G54D13*
D03*
X1375935Y1174958D02*
G54D13*
D03*
X1299735Y1174958D02*
G54D13*
D03*
X1113154Y841532D02*
G54D14*
D03*
X1672986Y1199514D02*
G54D14*
D03*
X1113789Y1197927D02*
G54D14*
D03*
X1593532Y1256074D02*
G54D10*
D03*
X1122510Y1055133D02*
G54D15*
D03*
X1626766Y917834D02*
G54D10*
D03*
X1156866Y917834D02*
G54D10*
D03*
X1193244Y782593D02*
G54D10*
D03*
X1238194Y1903522D02*
G54D10*
D03*
X1238244Y1979772D02*
G54D10*
D03*
X1157201Y1900121D02*
G54D10*
D03*
X1157313Y1849140D02*
G54D10*
D03*
X1271500Y1874722D02*
G54D10*
D03*
X1271612Y1823741D02*
G54D10*
D03*
X1238210Y1674922D02*
G54D10*
D03*
X1238260Y1751172D02*
G54D10*
D03*
X1358931Y1931536D02*
G54D10*
D03*
X1282681Y1931586D02*
G54D10*
D03*
X1283890Y1751172D02*
G54D10*
D03*
X1283840Y1674922D02*
G54D10*
D03*
X1415994Y1903520D02*
G54D10*
D03*
X1416043Y1979770D02*
G54D10*
D03*
X1313325Y1779005D02*
G54D10*
D03*
X1410890Y1776572D02*
G54D10*
D03*
X1410840Y1700322D02*
G54D10*
D03*
X1487090Y1776572D02*
G54D10*
D03*
X1487040Y1700322D02*
G54D10*
D03*
X1537890Y1776572D02*
G54D10*
D03*
X1537840Y1700322D02*
G54D10*
D03*
X1637362Y1842616D02*
G54D10*
D03*
X1586381Y1842504D02*
G54D10*
D03*
X1565906Y1973340D02*
G54D10*
D03*
X1489657Y1973390D02*
G54D10*
D03*
X1350565Y1855947D02*
G54D11*
D03*
X1334665Y1838372D02*
G54D11*
D03*
X1350599Y1820756D02*
G54D11*
D03*
X1452165Y1855946D02*
G54D11*
D03*
X1436265Y1838372D02*
G54D11*
D03*
X1452200Y1820756D02*
G54D11*
D03*
X1528365Y1855946D02*
G54D11*
D03*
X1512465Y1838372D02*
G54D11*
D03*
X1528400Y1820756D02*
G54D11*
D03*
X1131465Y1779847D02*
G54D12*
D03*
X1182265Y1779846D02*
G54D12*
D03*
X1156865Y1754447D02*
G54D12*
D03*
X1182265Y1729046D02*
G54D12*
D03*
X1131465Y1729046D02*
G54D12*
D03*
X1601365Y1779846D02*
G54D12*
D03*
X1652165Y1779846D02*
G54D12*
D03*
X1626764Y1754446D02*
G54D12*
D03*
X1652164Y1729046D02*
G54D12*
D03*
X1601365Y1729046D02*
G54D12*
D03*
X1302891Y2004156D02*
G54D10*
D03*
X1353871Y2004268D02*
G54D10*
D03*
X1238210Y1674922D02*
G54D13*
D03*
X1283840Y1674922D02*
G54D13*
D03*
X1410840Y1700322D02*
G54D13*
D03*
X1487040Y1700322D02*
G54D13*
D03*
X1238210Y1674922D02*
G54D13*
D03*
X1113789Y2034540D02*
G54D14*
D03*
X1364125Y1779005D02*
G54D10*
D03*
X1366440Y1751172D02*
G54D10*
D03*
X1366390Y1674922D02*
G54D10*
D03*
X1195440Y2036322D02*
G54D10*
D03*
X1106665Y1830547D02*
G54D15*
D03*
X1283840Y1674922D02*
G54D13*
D03*
X1366390Y1674922D02*
G54D13*
D03*
X1410840Y1700322D02*
G54D13*
D03*
X1487040Y1700322D02*
G54D13*
D03*
X1673621Y2033746D02*
G54D14*
D03*
X1113789Y1675765D02*
G54D41*
D03*
X1672986Y1677352D02*
G54D14*
D03*
X1664265Y1820147D02*
G54D15*
D03*
X-364491Y-309335D02*
G54D12*
D03*
X-293847Y-310922D02*
G54D12*
D03*
X649215Y1163953D02*
G54D42*
D03*
X674615Y1163953D02*
G54D42*
D03*
X1601555Y888283D02*
G54D12*
D03*
X73070Y-212423D02*
G54D12*
D03*
X-2336Y-127501D02*
G54D12*
D03*
X-489328Y422430D02*
G54D39*
D03*
X-487941Y469368D02*
G54D39*
D03*
X-2335Y-153001D02*
G54D10*
D03*
X-2336Y-127501D02*
G54D10*
D03*
X73071Y-237923D02*
G54D10*
D03*
X73070Y-212423D02*
G54D10*
D03*
X-498330Y16178D02*
G54D10*
D03*
X-523830Y16177D02*
G54D10*
D03*
X29930Y62783D02*
G54D12*
D03*
X160105Y81833D02*
G54D12*
D03*
X160105Y62783D02*
G54D12*
D03*
X64855Y62783D02*
G54D12*
D03*
X83905Y62783D02*
G54D12*
D03*
X102955Y62783D02*
G54D12*
D03*
X122005Y62783D02*
G54D12*
D03*
X141055Y62783D02*
G54D12*
D03*
X45805Y62783D02*
G54D12*
D03*
X160105Y62783D02*
G54D12*
D03*
X-4995Y85008D02*
G54D12*
D03*
X-4995Y104058D02*
G54D12*
D03*
X-4995Y62783D02*
G54D12*
D03*
X-4995Y240583D02*
G54D12*
D03*
X-4995Y259633D02*
G54D12*
D03*
X-4995Y278683D02*
G54D12*
D03*
X-4995Y297733D02*
G54D12*
D03*
X-4995Y183433D02*
G54D12*
D03*
X-4995Y202483D02*
G54D12*
D03*
X-4995Y221533D02*
G54D12*
D03*
X-4995Y240583D02*
G54D12*
D03*
X-4995Y126283D02*
G54D12*
D03*
X-4995Y145333D02*
G54D12*
D03*
X-4995Y164383D02*
G54D12*
D03*
X-4995Y183433D02*
G54D12*
D03*
X15160Y299120D02*
G54D12*
D03*
X160105Y104058D02*
G54D12*
D03*
X14055Y62783D02*
G54D12*
D03*
X-193380Y1093709D02*
G54D10*
D03*
X-193380Y1070194D02*
G54D10*
D03*
X-167980Y1093709D02*
G54D10*
D03*
X-167980Y1070194D02*
G54D10*
D03*
X-472440Y588397D02*
G54D10*
D03*
X1510574Y137024D02*
G54D21*
D03*
X1602575Y74086D02*
G54D10*
D03*
X1628150Y74035D02*
G54D10*
D03*
X1351261Y38629D02*
G54D11*
D03*
X1333686Y54529D02*
G54D11*
D03*
X1316070Y38594D02*
G54D11*
D03*
X1196350Y35935D02*
G54D10*
D03*
X1082050Y35935D02*
G54D10*
D03*
X-200824Y-357714D02*
G54D10*
D03*
X-175250Y-357765D02*
G54D10*
D03*
X-175250Y-357765D02*
G54D10*
D03*
X-149676Y-357816D02*
G54D10*
D03*
X1273186Y51620D02*
G54D21*
D03*
X1698670Y66977D02*
G54D12*
D03*
X1698671Y41477D02*
G54D10*
D03*
X1698670Y66977D02*
G54D10*
D03*
X1648222Y-188754D02*
G54D14*
D03*
X-349568Y2384786D02*
G54D12*
D03*
X-564868Y-66373D02*
G54D12*
D03*
X-564868Y-117173D02*
G54D12*
D03*
X-564868Y-167973D02*
G54D12*
D03*
X-564868Y-218773D02*
G54D12*
D03*
X-149676Y-357816D02*
G54D10*
D03*
X-124101Y-357866D02*
G54D10*
D03*
X-265272Y15309D02*
G54D12*
D03*
X-290672Y-86291D02*
G54D12*
D03*
X-239872Y-175191D02*
G54D12*
D03*
X-267184Y-253034D02*
G54D12*
D03*
X-124101Y-357866D02*
G54D10*
D03*
X-98526Y-357916D02*
G54D10*
D03*
X-97514Y-389805D02*
G54D10*
D03*
X-26018Y-389864D02*
G54D10*
D03*
G36*
X753865Y28159D02*
X753865Y-27841D01*
X722865Y-27841D01*
X722865Y28159D01*
X753865Y28159D01*
G37*
X739503Y2360738D02*
G54D11*
D03*
X723603Y2343163D02*
G54D11*
D03*
X739538Y2325547D02*
G54D11*
D03*
X1078799Y2177531D02*
G54D10*
D03*
X1078849Y2253780D02*
G54D10*
D03*
X542801Y2399908D02*
G54D10*
D03*
X619051Y2399858D02*
G54D10*
D03*
X983614Y1431290D02*
G54D14*
D03*
X428000Y1102735D02*
G54D10*
D03*
X358150Y48635D02*
G54D10*
D03*
X404416Y1202690D02*
G54D21*
D03*
X1209135Y2390995D02*
G54D43*
D03*
X1209135Y2380835D02*
G54D43*
D03*
X1209135Y2371183D02*
G54D43*
D03*
X1209135Y2361023D02*
G54D43*
D03*
X1209135Y2351117D02*
G54D43*
D03*
X887571Y2295491D02*
G54D44*
D03*
X912971Y2295491D02*
G54D44*
D03*
X938371Y2295491D02*
G54D44*
D03*
X963771Y2295491D02*
G54D44*
D03*
X989171Y2295491D02*
G54D44*
D03*
X1014571Y2295491D02*
G54D44*
D03*
X1039971Y2295491D02*
G54D44*
D03*
X1065371Y2295491D02*
G54D44*
D03*
X1090771Y2295491D02*
G54D44*
D03*
X1116171Y2295491D02*
G54D44*
D03*
X1141571Y2295491D02*
G54D44*
D03*
X1166971Y2295491D02*
G54D44*
D03*
X1192371Y2295491D02*
G54D44*
D03*
X1217771Y2295491D02*
G54D44*
D03*
X1243171Y2295491D02*
G54D44*
D03*
X887571Y2447891D02*
G54D44*
D03*
X912971Y2447891D02*
G54D44*
D03*
X938371Y2447891D02*
G54D44*
D03*
X963771Y2447891D02*
G54D44*
D03*
X989171Y2447891D02*
G54D44*
D03*
X1014571Y2447891D02*
G54D44*
D03*
X1039971Y2447891D02*
G54D44*
D03*
X1065371Y2447891D02*
G54D44*
D03*
X1090771Y2447891D02*
G54D44*
D03*
X1116171Y2447891D02*
G54D44*
D03*
X1141571Y2447891D02*
G54D44*
D03*
X1166971Y2447891D02*
G54D44*
D03*
X1192371Y2447891D02*
G54D44*
D03*
X1217771Y2447891D02*
G54D44*
D03*
X1243171Y2447891D02*
G54D44*
D03*
X862330Y2448050D02*
G54D45*
D03*
X862330Y2295650D02*
G54D45*
D03*
X888587Y2396837D02*
G54D44*
D03*
X863187Y2396837D02*
G54D44*
D03*
X888587Y2371437D02*
G54D44*
D03*
X863187Y2371437D02*
G54D44*
D03*
X888587Y2346037D02*
G54D44*
D03*
X863187Y2346037D02*
G54D44*
D03*
X327844Y2283907D02*
G54D12*
D03*
X466665Y2437924D02*
G54D10*
D03*
X390415Y2437975D02*
G54D10*
D03*
X676239Y2342197D02*
G54D10*
D03*
X676189Y2265947D02*
G54D10*
D03*
X714339Y2250122D02*
G54D10*
D03*
X714288Y2173872D02*
G54D10*
D03*
X346120Y2156127D02*
G54D12*
D03*
X923970Y2416477D02*
G54D12*
D03*
X701551Y2488808D02*
G54D10*
D03*
X777801Y2488758D02*
G54D10*
D03*
X638940Y2449064D02*
G54D10*
D03*
X638940Y2496864D02*
G54D10*
D03*
X791350Y2439482D02*
G54D10*
D03*
X740369Y2439370D02*
G54D10*
D03*
X1031603Y2233738D02*
G54D11*
D03*
X1015703Y2216163D02*
G54D11*
D03*
X1031638Y2198547D02*
G54D11*
D03*
X901009Y2190304D02*
G54D10*
D03*
X977259Y2190254D02*
G54D10*
D03*
X799409Y2215704D02*
G54D10*
D03*
X875659Y2215654D02*
G54D10*
D03*
X1282009Y2114104D02*
G54D10*
D03*
X1734654Y-1951D02*
G54D10*
D03*
X1734653Y23549D02*
G54D10*
D03*
X1718072Y2542296D02*
G54D14*
D03*
X-599678Y1024096D02*
G54D14*
D03*
X-439342Y2386427D02*
G54D12*
D03*
X-461793Y2363976D02*
G54D12*
D03*
X-391717Y2421352D02*
G54D12*
D03*
X-404417Y2389602D02*
G54D12*
D03*
X596548Y1282256D02*
G54D29*
D03*
X634648Y1323531D02*
G54D29*
D03*
X507728Y2430588D02*
G54D11*
D03*
X491828Y2413013D02*
G54D11*
D03*
X507763Y2395397D02*
G54D11*
D03*
X-349568Y2308586D02*
G54D12*
D03*
X-324168Y2308586D02*
G54D12*
D03*
X-44768Y2486386D02*
G54D12*
D03*
X-19368Y2486386D02*
G54D12*
D03*
X-44768Y2422886D02*
G54D12*
D03*
X232540Y2468114D02*
G54D10*
D03*
X232540Y2515914D02*
G54D10*
D03*
X16927Y-338482D02*
G54D11*
D03*
X34502Y-354382D02*
G54D11*
D03*
X52118Y-338447D02*
G54D11*
D03*
X169186Y-402505D02*
G54D10*
D03*
X240682Y-402563D02*
G54D10*
D03*
X125608Y-328694D02*
G54D10*
D03*
X125551Y-400191D02*
G54D10*
D03*
X528753Y953854D02*
G54D15*
D03*
X531928Y1112604D02*
G54D15*
D03*
X528753Y820504D02*
G54D15*
D03*
X528753Y687154D02*
G54D15*
D03*
X528753Y553804D02*
G54D15*
D03*
X528753Y420454D02*
G54D15*
D03*
X490653Y109304D02*
G54D15*
D03*
X566853Y150579D02*
G54D15*
D03*
X-333092Y2553002D02*
G54D12*
D03*
X-282292Y2553002D02*
G54D12*
D03*
X-231492Y2553002D02*
G54D12*
D03*
X-180692Y2553002D02*
G54D12*
D03*
X1406808Y2553002D02*
G54D12*
D03*
X1457608Y2553002D02*
G54D12*
D03*
X1508408Y2553002D02*
G54D12*
D03*
X1559208Y2553002D02*
G54D12*
D03*
X1330608Y2553002D02*
G54D12*
D03*
X-206092Y2508552D02*
G54D12*
D03*
X1350732Y2409950D02*
G54D28*
D03*
X1350732Y2435350D02*
G54D28*
D03*
X1401532Y2409950D02*
G54D28*
D03*
X1401532Y2435350D02*
G54D28*
D03*
X1350732Y2511550D02*
G54D28*
D03*
X1401532Y2511550D02*
G54D28*
D03*
X1439632Y2409950D02*
G54D28*
D03*
X1439632Y2435350D02*
G54D28*
D03*
X1490432Y2409950D02*
G54D28*
D03*
X1490432Y2435350D02*
G54D28*
D03*
X1439632Y2511550D02*
G54D28*
D03*
X1490432Y2511550D02*
G54D28*
D03*
X1528532Y2409950D02*
G54D28*
D03*
X1528532Y2435350D02*
G54D28*
D03*
X1579332Y2409950D02*
G54D28*
D03*
X1579332Y2435350D02*
G54D28*
D03*
X1528532Y2511550D02*
G54D28*
D03*
X1579332Y2511550D02*
G54D28*
D03*
X1617432Y2409950D02*
G54D28*
D03*
X1617432Y2435350D02*
G54D28*
D03*
X1668232Y2409950D02*
G54D28*
D03*
X1668232Y2435350D02*
G54D28*
D03*
X1617432Y2511550D02*
G54D28*
D03*
X1668232Y2511550D02*
G54D28*
D03*
X1330608Y2324402D02*
G54D12*
D03*
X1370899Y2247381D02*
G54D10*
D03*
X1370949Y2323630D02*
G54D10*
D03*
X1459799Y2247381D02*
G54D10*
D03*
X1459849Y2323630D02*
G54D10*
D03*
X1555049Y2247381D02*
G54D10*
D03*
X1555099Y2323630D02*
G54D10*
D03*
X1510599Y2247381D02*
G54D10*
D03*
X1510649Y2323630D02*
G54D10*
D03*
X1421699Y2247381D02*
G54D10*
D03*
X1421749Y2323630D02*
G54D10*
D03*
X1599499Y2247381D02*
G54D10*
D03*
X1599549Y2323630D02*
G54D10*
D03*
X1690939Y2247381D02*
G54D10*
D03*
X1690989Y2323630D02*
G54D10*
D03*
X1643949Y2247381D02*
G54D10*
D03*
X1643999Y2323630D02*
G54D10*
D03*
X1352550Y2365500D02*
G54D21*
D03*
X1377950Y2365500D02*
G54D21*
D03*
X1403350Y2365500D02*
G54D21*
D03*
X1441450Y2365500D02*
G54D21*
D03*
X1466850Y2365500D02*
G54D21*
D03*
X1492250Y2365500D02*
G54D21*
D03*
X1530350Y2365500D02*
G54D21*
D03*
X1555750Y2365500D02*
G54D21*
D03*
X1581150Y2365500D02*
G54D21*
D03*
X1619250Y2365500D02*
G54D21*
D03*
X1644650Y2365500D02*
G54D21*
D03*
X1670050Y2365500D02*
G54D21*
D03*
X1352550Y2365500D02*
G54D12*
D03*
X1441450Y2365500D02*
G54D12*
D03*
X1530350Y2365500D02*
G54D12*
D03*
X1619250Y2365500D02*
G54D12*
D03*
X1353308Y2392002D02*
G54D15*
D03*
X1403308Y2392002D02*
G54D15*
D03*
X1438308Y2392002D02*
G54D15*
D03*
X1493308Y2392002D02*
G54D15*
D03*
X1528308Y2392002D02*
G54D15*
D03*
X1583308Y2392002D02*
G54D15*
D03*
X1618308Y2392002D02*
G54D15*
D03*
X1670870Y2391505D02*
G54D15*
D03*
X1280608Y2488002D02*
G54D12*
D03*
X1710608Y273002D02*
G54D12*
D03*
X1715918Y2418002D02*
G54D12*
D03*
X1591335Y838958D02*
G54D12*
D03*
X1327162Y1663460D02*
G54D12*
D03*
X1510518Y1662666D02*
G54D12*
D03*
X1108881Y2093672D02*
G54D12*
D03*
X1672986Y1677352D02*
G54D41*
D03*
X1673622Y2033746D02*
G54D41*
D03*
X1113789Y2034540D02*
G54D41*
D03*
X1113790Y1197927D02*
G54D41*
D03*
X1673622Y1197134D02*
G54D41*
D03*
X1672986Y840740D02*
G54D41*
D03*
X1113790Y839152D02*
G54D41*
D03*
X683022Y1120934D02*
G54D41*
D03*
X-269478Y1120934D02*
G54D41*
D03*
X-362570Y1171180D02*
G54D41*
D03*
X-269478Y222409D02*
G54D41*
D03*
X683022Y219234D02*
G54D46*
D03*
X1327163Y826847D02*
G54D12*
D03*
X1429556Y826054D02*
G54D12*
D03*
X-110377Y215916D02*
G54D12*
D03*
X-129427Y1130316D02*
G54D12*
D03*
X1586141Y1555630D02*
G54D18*
D03*
X770166Y1269880D02*
G54D18*
D03*
X1630591Y1330205D02*
G54D18*
D03*
X836841Y1508005D02*
G54D18*
D03*
X781686Y795412D02*
G54D10*
D03*
X803911Y795412D02*
G54D10*
D03*
X824548Y1220862D02*
G54D10*
D03*
X824548Y1201812D02*
G54D10*
D03*
X913448Y1222450D02*
G54D10*
D03*
X913448Y1203400D02*
G54D10*
D03*
X856299Y1176412D02*
G54D10*
D03*
X878523Y1176412D02*
G54D10*
D03*
X917154Y1169796D02*
G54D10*
D03*
X917154Y1147571D02*
G54D10*
D03*
X963728Y1230079D02*
G54D27*
D03*
X770053Y1231667D02*
G54D27*
D03*
X897053Y1063392D02*
G54D27*
D03*
X900228Y1087204D02*
G54D27*
D03*
X798628Y1203092D02*
G54D27*
D03*
X869794Y1219820D02*
G54D21*
D03*
X-325670Y1694733D02*
G54D12*
D03*
X-610554Y2431730D02*
G54D10*
D03*
X-562754Y2431731D02*
G54D10*
D03*
X919796Y2511106D02*
G54D10*
D03*
X967596Y2511106D02*
G54D10*
D03*
X1015048Y2474987D02*
G54D15*
D03*
X-575192Y2308437D02*
G54D10*
D03*
X-575304Y2359417D02*
G54D10*
D03*
X-613292Y2308437D02*
G54D10*
D03*
X-613404Y2359417D02*
G54D10*
D03*
X-616784Y2489464D02*
G54D10*
D03*
X-565804Y2489576D02*
G54D10*
D03*
X303327Y1690454D02*
G54D10*
D03*
X303327Y1712679D02*
G54D10*
D03*
X317615Y1576154D02*
G54D10*
D03*
X317615Y1598379D02*
G54D10*
D03*
X344118Y1575330D02*
G54D37*
D03*
X531928Y2006366D02*
G54D10*
D03*
X652578Y2007954D02*
G54D10*
D03*
X-572158Y2196504D02*
G54D10*
D03*
X-597557Y2196504D02*
G54D10*
D03*
X-599596Y2240544D02*
G54D10*
D03*
X-574197Y2240544D02*
G54D10*
D03*
X-484072Y-192320D02*
G54D10*
D03*
X-484072Y-166921D02*
G54D10*
D03*
X1057784Y2512702D02*
G54D10*
D03*
X1083184Y2512702D02*
G54D10*
D03*
X1108584Y2512702D02*
G54D10*
D03*
X1133984Y2512702D02*
G54D10*
D03*
X1159384Y2512702D02*
G54D10*
D03*
X1184784Y2512702D02*
G54D10*
D03*
X1210184Y2512702D02*
G54D10*
D03*
X1083184Y2512702D02*
G54D10*
D03*
X1724258Y2497377D02*
G54D12*
D03*
X769707Y638300D02*
G54D28*
D03*
X769707Y663700D02*
G54D28*
D03*
X820507Y638300D02*
G54D28*
D03*
X820507Y663700D02*
G54D28*
D03*
X769707Y739900D02*
G54D28*
D03*
X820507Y739900D02*
G54D28*
D03*
X764077Y609789D02*
G54D10*
D03*
X821227Y609789D02*
G54D10*
D03*
X764077Y575658D02*
G54D10*
D03*
X1041503Y1994645D02*
G54D10*
D03*
X1040709Y1969245D02*
G54D10*
D03*
X1040710Y1969246D02*
G54D10*
D03*
X1039915Y1943845D02*
G54D10*
D03*
X1039915Y1943845D02*
G54D10*
D03*
X1039122Y1918445D02*
G54D10*
D03*
X1039122Y1918446D02*
G54D10*
D03*
X1038328Y1893045D02*
G54D10*
D03*
X1038328Y1893045D02*
G54D10*
D03*
X1037534Y1867646D02*
G54D10*
D03*
X1022056Y1994645D02*
G54D10*
D03*
X1021262Y1943052D02*
G54D10*
D03*
X1020865Y1891854D02*
G54D10*
D03*
X-228305Y1100356D02*
G54D10*
D03*
X-133055Y1099562D02*
G54D10*
D03*
X1516924Y867274D02*
G54D21*
D03*
X1599779Y581840D02*
G54D10*
D03*
X1599829Y658090D02*
G54D10*
D03*
X1707423Y632324D02*
G54D47*
D03*
X1599829Y658090D02*
G54D10*
D03*
X1599779Y581840D02*
G54D10*
D03*
X1544815Y628809D02*
G54D10*
D03*
X1544815Y663734D02*
G54D10*
D03*
X1544815Y571659D02*
G54D10*
D03*
X1544815Y527209D02*
G54D10*
D03*
X1284465Y489109D02*
G54D10*
D03*
X1322565Y489109D02*
G54D10*
D03*
X1545182Y699938D02*
G54D10*
D03*
X1621432Y699888D02*
G54D10*
D03*
X1636890Y660559D02*
G54D10*
D03*
X1634112Y622459D02*
G54D10*
D03*
X1468752Y473264D02*
G54D10*
D03*
X1516552Y473264D02*
G54D10*
D03*
X1468752Y473264D02*
G54D10*
D03*
X1298974Y702800D02*
G54D10*
D03*
X1324474Y702800D02*
G54D10*
D03*
X1381524Y702800D02*
G54D10*
D03*
X1407024Y702800D02*
G54D10*
D03*
X1641312Y468849D02*
G54D21*
D03*
X1666712Y468850D02*
G54D21*
D03*
X1528940Y362109D02*
G54D10*
D03*
X1528940Y397034D02*
G54D10*
D03*
X1528940Y304959D02*
G54D10*
D03*
X1528940Y260509D02*
G54D10*
D03*
X1271765Y222409D02*
G54D10*
D03*
X1309865Y222409D02*
G54D10*
D03*
X1286274Y436100D02*
G54D10*
D03*
X1311774Y436100D02*
G54D10*
D03*
X1368824Y436100D02*
G54D10*
D03*
X1394324Y436100D02*
G54D10*
D03*
X1657691Y321883D02*
G54D10*
D03*
X1657691Y347383D02*
G54D10*
D03*
X1253561Y593258D02*
G54D21*
D03*
X1228577Y542326D02*
G54D21*
D03*
X1203678Y593372D02*
G54D21*
D03*
X1575600Y356033D02*
G54D10*
D03*
X1575487Y407014D02*
G54D10*
D03*
X1658776Y191036D02*
G54D21*
D03*
X1684176Y191037D02*
G54D21*
D03*
X1657982Y160476D02*
G54D21*
D03*
X1683382Y160476D02*
G54D21*
D03*
X1596806Y258524D02*
G54D10*
D03*
X1605140Y296226D02*
G54D10*
D03*
X1123104Y405916D02*
G54D10*
D03*
X1123154Y431491D02*
G54D10*
D03*
X1118341Y186047D02*
G54D10*
D03*
X1118391Y211622D02*
G54D10*
D03*
X1230542Y323382D02*
G54D21*
D03*
X1205558Y272450D02*
G54D21*
D03*
X1180659Y323497D02*
G54D21*
D03*
X1456082Y733735D02*
G54D10*
D03*
X1456132Y759310D02*
G54D10*
D03*
X1074476Y666173D02*
G54D10*
D03*
X1048901Y666223D02*
G54D10*
D03*
X1168096Y437545D02*
G54D10*
D03*
X1119677Y485170D02*
G54D10*
D03*
X991883Y669320D02*
G54D10*
D03*
X788390Y453378D02*
G54D10*
D03*
X813791Y452584D02*
G54D10*
D03*
X813790Y452584D02*
G54D10*
D03*
X839190Y451790D02*
G54D10*
D03*
X839190Y451790D02*
G54D10*
D03*
X864591Y450997D02*
G54D10*
D03*
X864590Y450997D02*
G54D10*
D03*
X889990Y450203D02*
G54D10*
D03*
X889990Y450203D02*
G54D10*
D03*
X915390Y449410D02*
G54D10*
D03*
X788391Y433931D02*
G54D10*
D03*
X839984Y433138D02*
G54D10*
D03*
X891181Y432740D02*
G54D10*
D03*
X1231303Y660150D02*
G54D10*
D03*
X1120972Y598237D02*
G54D10*
D03*
X416374Y2014890D02*
G54D21*
D03*
X306837Y2011714D02*
G54D21*
D03*
X178730Y-8134D02*
G54D10*
D03*
X153330Y-8134D02*
G54D10*
D03*
X320811Y-8929D02*
G54D10*
D03*
X295412Y-8929D02*
G54D10*
D03*
X149417Y-268943D02*
G54D10*
D03*
X98436Y-269055D02*
G54D10*
D03*
X13861Y-83791D02*
G54D10*
D03*
X39362Y-83790D02*
G54D10*
D03*
X1081653Y54587D02*
G54D10*
D03*
X1138406Y33554D02*
G54D10*
D03*
X1196350Y54984D02*
G54D10*
D03*
G36*
X810423Y71106D02*
X836423Y71106D01*
X836423Y45106D01*
X810423Y45106D01*
X810423Y71106D01*
G37*
G36*
X848920Y-369426D02*
X874920Y-369426D01*
X874920Y-395426D01*
X848920Y-395426D01*
X848920Y-369426D01*
G37*
X1737751Y309008D02*
G54D12*
D03*
X440668Y16866D02*
G54D10*
D03*
X415268Y16866D02*
G54D10*
D03*
X439874Y53378D02*
G54D10*
D03*
X414474Y53378D02*
G54D10*
D03*
X879611Y-4168D02*
G54D10*
D03*
X854212Y-4168D02*
G54D10*
D03*
X879611Y28772D02*
G54D10*
D03*
X854212Y28772D02*
G54D10*
D03*
M02*
