%FSLAX34Y34*%
%MOMM*%
%LNSOLDERMASK_TOP*%
G71*
G01*
%ADD10C,2.600*%
%ADD11C,2.400*%
%ADD12C,2.800*%
%ADD13C,2.600*%
%ADD14C,5.100*%
%ADD15C,1.600*%
%ADD16C,3.100*%
%ADD17C,7.600*%
%ADD18C,3.200*%
%ADD19C,2.900*%
%ADD20C,2.600*%
%ADD21C,2.600*%
%ADD22C,2.400*%
%ADD23C,2.600*%
%ADD24C,3.600*%
%ADD25C,2.800*%
%ADD26C,3.000*%
%ADD27C,1.800*%
%ADD28C,1.600*%
%ADD29C,2.700*%
%ADD30C,2.700*%
%ADD31C,2.500*%
%ADD32C,2.800*%
%ADD33C,4.200*%
%ADD34C,2.700*%
%ADD35C,2.800*%
%ADD36C,2.100*%
%ADD37C,1.600*%
%ADD38C,6.600*%
%ADD39C,4.200*%
%ADD40C,4.600*%
%ADD41C,5.600*%
%ADD42C,1.900*%
%ADD43C,2.500*%
%ADD44C,2.250*%
%ADD45C,5.200*%
%ADD46C,1.200*%
%LPD*%
X519851Y1365358D02*
G54D10*
D03*
X519901Y1441608D02*
G54D10*
D03*
X438857Y1361958D02*
G54D10*
D03*
X438970Y1310977D02*
G54D10*
D03*
X553157Y1336558D02*
G54D10*
D03*
X553269Y1285578D02*
G54D10*
D03*
X519867Y1136758D02*
G54D10*
D03*
X519917Y1213008D02*
G54D10*
D03*
X640588Y1393372D02*
G54D10*
D03*
X564338Y1393422D02*
G54D10*
D03*
X565547Y1213008D02*
G54D10*
D03*
X565497Y1136758D02*
G54D10*
D03*
X697650Y1365357D02*
G54D10*
D03*
X697700Y1441607D02*
G54D10*
D03*
X594982Y1240842D02*
G54D10*
D03*
X692547Y1238408D02*
G54D10*
D03*
X692497Y1162158D02*
G54D10*
D03*
X768746Y1238408D02*
G54D10*
D03*
X768696Y1162158D02*
G54D10*
D03*
X819546Y1238408D02*
G54D10*
D03*
X819496Y1162158D02*
G54D10*
D03*
X919018Y1304453D02*
G54D10*
D03*
X868038Y1304340D02*
G54D10*
D03*
X847564Y1435176D02*
G54D10*
D03*
X771314Y1435226D02*
G54D10*
D03*
X632222Y1317783D02*
G54D11*
D03*
X616322Y1300208D02*
G54D11*
D03*
X632256Y1282592D02*
G54D11*
D03*
X733822Y1317783D02*
G54D11*
D03*
X717922Y1300208D02*
G54D11*
D03*
X733856Y1282592D02*
G54D11*
D03*
X810022Y1317783D02*
G54D11*
D03*
X794122Y1300208D02*
G54D11*
D03*
X810056Y1282592D02*
G54D11*
D03*
X413122Y1241683D02*
G54D12*
D03*
X463922Y1241683D02*
G54D12*
D03*
X438522Y1216283D02*
G54D12*
D03*
X463922Y1190883D02*
G54D12*
D03*
X413122Y1190883D02*
G54D12*
D03*
X883022Y1241683D02*
G54D12*
D03*
X933822Y1241683D02*
G54D12*
D03*
X908422Y1216283D02*
G54D12*
D03*
X933822Y1190883D02*
G54D12*
D03*
X883022Y1190883D02*
G54D12*
D03*
X584548Y1465992D02*
G54D10*
D03*
X635528Y1466105D02*
G54D10*
D03*
X519867Y1136758D02*
G54D13*
D03*
X395446Y1496376D02*
G54D14*
D03*
X645782Y1240842D02*
G54D10*
D03*
X648097Y1213008D02*
G54D10*
D03*
X648047Y1136758D02*
G54D10*
D03*
X477097Y1498158D02*
G54D10*
D03*
X388322Y1292383D02*
G54D15*
D03*
X565497Y1136758D02*
G54D13*
D03*
X648047Y1136758D02*
G54D13*
D03*
X692497Y1162158D02*
G54D13*
D03*
X768696Y1162158D02*
G54D13*
D03*
X955278Y1495583D02*
G54D14*
D03*
X395446Y1137602D02*
G54D14*
D03*
X954642Y1139189D02*
G54D14*
D03*
X445472Y1419383D02*
G54D15*
D03*
X442296Y1419384D02*
G54D16*
D03*
X914021Y1419384D02*
G54D16*
D03*
X528072Y830142D02*
G54D17*
D03*
X458222Y969842D02*
G54D17*
D03*
X391547Y969842D02*
G54D18*
D03*
X594747Y830142D02*
G54D18*
D03*
X182672Y979942D02*
G54D19*
D03*
X262672Y979942D02*
G54D20*
D03*
X727672Y974942D02*
G54D20*
D03*
X807672Y974942D02*
G54D20*
D03*
X262672Y979942D02*
G54D19*
D03*
X727672Y974942D02*
G54D19*
D03*
X807672Y974942D02*
G54D12*
D03*
X202672Y979942D02*
G54D19*
D03*
X242672Y979942D02*
G54D19*
D03*
X747672Y974942D02*
G54D19*
D03*
X787672Y974942D02*
G54D19*
D03*
X58247Y863612D02*
G54D12*
D03*
X58247Y914412D02*
G54D12*
D03*
X83647Y889012D02*
G54D12*
D03*
X109047Y914412D02*
G54D12*
D03*
X109047Y863612D02*
G54D12*
D03*
X58247Y862342D02*
G54D21*
D03*
X109047Y862342D02*
G54D13*
D03*
X883747Y862342D02*
G54D12*
D03*
X883747Y913142D02*
G54D12*
D03*
X909147Y887742D02*
G54D12*
D03*
X934547Y913142D02*
G54D12*
D03*
X934547Y862342D02*
G54D12*
D03*
X883747Y862342D02*
G54D21*
D03*
X934547Y862342D02*
G54D13*
D03*
X757204Y773705D02*
G54D10*
D03*
X757204Y843555D02*
G54D10*
D03*
X827054Y773705D02*
G54D10*
D03*
X827054Y843555D02*
G54D10*
D03*
X795304Y843555D02*
G54D10*
D03*
X795304Y773705D02*
G54D10*
D03*
X827055Y773705D02*
G54D13*
D03*
X827055Y843555D02*
G54D13*
D03*
X166654Y773705D02*
G54D10*
D03*
X166654Y843555D02*
G54D10*
D03*
X236504Y773705D02*
G54D10*
D03*
X236504Y843556D02*
G54D10*
D03*
X204754Y843556D02*
G54D10*
D03*
X204754Y773706D02*
G54D10*
D03*
X236505Y773705D02*
G54D13*
D03*
X236505Y843556D02*
G54D13*
D03*
X807672Y974942D02*
G54D19*
D03*
X280955Y843555D02*
G54D21*
D03*
X706405Y843555D02*
G54D21*
D03*
X921947Y976667D02*
G54D21*
D03*
X77397Y798868D02*
G54D21*
D03*
X58247Y913142D02*
G54D13*
D03*
X109047Y913143D02*
G54D13*
D03*
X883747Y913142D02*
G54D13*
D03*
X934547Y913142D02*
G54D13*
D03*
X934547Y862342D02*
G54D13*
D03*
X395446Y659764D02*
G54D14*
D03*
X955278Y658971D02*
G54D14*
D03*
X395446Y300989D02*
G54D14*
D03*
X954642Y302576D02*
G54D14*
D03*
X909021Y582771D02*
G54D16*
D03*
X-281578Y1299843D02*
G54D22*
D03*
X-205378Y1299843D02*
G54D22*
D03*
X-205378Y1376043D02*
G54D22*
D03*
X-281578Y1376043D02*
G54D22*
D03*
X-205466Y1511066D02*
G54D10*
D03*
X-205466Y1422166D02*
G54D10*
D03*
X-243566Y1422166D02*
G54D10*
D03*
X-275316Y1422166D02*
G54D10*
D03*
X-215110Y1159276D02*
G54D10*
D03*
X-278609Y1254526D02*
G54D10*
D03*
X-246860Y1254526D02*
G54D10*
D03*
X-215110Y1254526D02*
G54D10*
D03*
X-186627Y1266814D02*
G54D10*
D03*
X-278610Y1508526D02*
G54D10*
D03*
X-161016Y1523766D02*
G54D10*
D03*
X1412Y1376076D02*
G54D10*
D03*
X58562Y1376076D02*
G54D10*
D03*
X87262Y1452276D02*
G54D10*
D03*
X87262Y1509426D02*
G54D10*
D03*
X26212Y1310453D02*
G54D10*
D03*
X-27740Y1256572D02*
G54D10*
D03*
X26212Y1310453D02*
G54D13*
D03*
X153988Y1314504D02*
G54D10*
D03*
X77738Y1314554D02*
G54D10*
D03*
X153988Y1314505D02*
G54D13*
D03*
X33162Y1236376D02*
G54D10*
D03*
X83962Y1236376D02*
G54D10*
D03*
X83962Y1236376D02*
G54D10*
D03*
X112569Y1140270D02*
G54D10*
D03*
X112457Y1191251D02*
G54D10*
D03*
X112569Y1140270D02*
G54D10*
D03*
X87262Y1414176D02*
G54D10*
D03*
X119012Y1236376D02*
G54D10*
D03*
X-31608Y1376076D02*
G54D10*
D03*
X-20688Y1439576D02*
G54D10*
D03*
X-144384Y1438082D02*
G54D12*
D03*
X-68184Y1438082D02*
G54D12*
D03*
X-144384Y1361882D02*
G54D12*
D03*
X-144384Y1311082D02*
G54D12*
D03*
X-144384Y1260282D02*
G54D12*
D03*
X-68184Y1361882D02*
G54D12*
D03*
X-68184Y1311082D02*
G54D12*
D03*
X-68184Y1260282D02*
G54D12*
D03*
X-68184Y1438082D02*
G54D10*
D03*
X78067Y1155278D02*
G54D10*
D03*
X21847Y1157523D02*
G54D10*
D03*
X21847Y1157523D02*
G54D10*
D03*
X-28953Y1157523D02*
G54D10*
D03*
G54D23*
X-58769Y1109801D02*
X-72911Y1123943D01*
G54D23*
X-112744Y1109801D02*
X-126886Y1123943D01*
X-332978Y1394777D02*
G54D21*
D03*
X-332978Y1369377D02*
G54D21*
D03*
X-59928Y1509077D02*
G54D21*
D03*
X-281578Y1376042D02*
G54D24*
D03*
X-281578Y1299843D02*
G54D24*
D03*
X-205378Y1299843D02*
G54D24*
D03*
X-205378Y1376043D02*
G54D24*
D03*
X296900Y541641D02*
G54D22*
D03*
X220700Y541641D02*
G54D22*
D03*
X220700Y465441D02*
G54D22*
D03*
X296900Y465441D02*
G54D22*
D03*
X220788Y330418D02*
G54D10*
D03*
X220788Y419318D02*
G54D10*
D03*
X258888Y419318D02*
G54D10*
D03*
X290638Y419318D02*
G54D10*
D03*
X293932Y650458D02*
G54D10*
D03*
X230432Y650458D02*
G54D10*
D03*
X293931Y586958D02*
G54D10*
D03*
X262182Y586958D02*
G54D10*
D03*
X230432Y586958D02*
G54D10*
D03*
X201949Y574669D02*
G54D10*
D03*
X293932Y332958D02*
G54D10*
D03*
X341950Y373682D02*
G54D21*
D03*
X341950Y399082D02*
G54D21*
D03*
X341950Y640382D02*
G54D21*
D03*
X296900Y465441D02*
G54D24*
D03*
X296900Y541641D02*
G54D24*
D03*
X220700Y541641D02*
G54D24*
D03*
X220700Y465441D02*
G54D24*
D03*
X17692Y412060D02*
G54D12*
D03*
X20866Y532710D02*
G54D12*
D03*
X138342Y412060D02*
G54D12*
D03*
X138342Y532710D02*
G54D12*
D03*
X78017Y552173D02*
G54D12*
D03*
X20866Y532710D02*
G54D25*
D03*
X46713Y596292D02*
G54D12*
D03*
X148313Y596291D02*
G54D12*
D03*
X235613Y272152D02*
G54D12*
D03*
X235613Y246752D02*
G54D12*
D03*
X273713Y246752D02*
G54D12*
D03*
X273713Y208652D02*
G54D12*
D03*
X188208Y264145D02*
G54D10*
D03*
X188321Y213164D02*
G54D10*
D03*
X188208Y264144D02*
G54D10*
D03*
X188320Y213164D02*
G54D10*
D03*
X150108Y264145D02*
G54D10*
D03*
X150220Y213164D02*
G54D10*
D03*
X150108Y264144D02*
G54D10*
D03*
X150220Y213164D02*
G54D10*
D03*
X273713Y272152D02*
G54D12*
D03*
X84680Y632101D02*
G54D10*
D03*
X46713Y596292D02*
G54D12*
D03*
X-145329Y930590D02*
G54D26*
D03*
X-145329Y879790D02*
G54D26*
D03*
X-189779Y905190D02*
G54D26*
D03*
X-189779Y860740D02*
G54D26*
D03*
X-189779Y949640D02*
G54D26*
D03*
X-177079Y1006790D02*
G54D10*
D03*
X-202479Y1006790D02*
G54D10*
D03*
X-238164Y832165D02*
G54D10*
D03*
X-314414Y832215D02*
G54D10*
D03*
X-317106Y797905D02*
G54D10*
D03*
X-240856Y797855D02*
G54D10*
D03*
X-301172Y766429D02*
G54D10*
D03*
X-250192Y766541D02*
G54D10*
D03*
X-272329Y1000528D02*
G54D10*
D03*
X-272329Y952728D02*
G54D10*
D03*
X-268719Y698904D02*
G54D10*
D03*
X-268769Y622654D02*
G54D10*
D03*
X-208829Y647840D02*
G54D10*
D03*
X-208829Y695640D02*
G54D10*
D03*
X-296273Y887684D02*
G54D10*
D03*
X-261173Y887684D02*
G54D10*
D03*
X-170729Y762140D02*
G54D10*
D03*
X-170729Y809940D02*
G54D10*
D03*
X-317051Y730258D02*
G54D10*
D03*
X-240801Y730208D02*
G54D10*
D03*
X-69854Y853835D02*
G54D10*
D03*
X-317106Y797906D02*
G54D10*
D03*
X-317051Y730258D02*
G54D10*
D03*
X-208829Y647840D02*
G54D10*
D03*
X-268769Y622654D02*
G54D10*
D03*
G36*
X-294379Y944860D02*
X-294379Y918860D01*
X-320379Y918860D01*
X-320379Y944860D01*
X-294379Y944860D01*
G37*
X-94529Y692378D02*
G54D27*
D03*
X-94529Y666978D02*
G54D28*
D03*
X-145329Y692378D02*
G54D28*
D03*
X-145329Y666978D02*
G54D27*
D03*
X-94529Y590778D02*
G54D28*
D03*
X-145329Y590778D02*
G54D28*
D03*
X-92497Y723144D02*
G54D12*
D03*
X-90333Y493170D02*
G54D21*
D03*
X-145329Y692378D02*
G54D27*
D03*
X-94529Y590778D02*
G54D27*
D03*
X-145329Y590778D02*
G54D27*
D03*
X955222Y12320D02*
G54D10*
D03*
X955222Y37820D02*
G54D10*
D03*
X-880320Y743691D02*
G54D10*
D03*
X-950170Y743691D02*
G54D10*
D03*
X-880320Y813541D02*
G54D10*
D03*
X-950170Y813541D02*
G54D10*
D03*
X-950170Y781791D02*
G54D10*
D03*
X-880320Y781791D02*
G54D10*
D03*
X-836912Y734920D02*
G54D29*
D03*
X-785930Y735032D02*
G54D29*
D03*
X-658070Y743691D02*
G54D10*
D03*
X-727920Y743691D02*
G54D10*
D03*
X-658070Y813541D02*
G54D10*
D03*
X-727920Y813541D02*
G54D10*
D03*
X-727920Y781791D02*
G54D10*
D03*
X-658070Y781791D02*
G54D10*
D03*
X-775847Y779018D02*
G54D10*
D03*
X-775960Y829998D02*
G54D10*
D03*
X-839347Y779018D02*
G54D10*
D03*
X-839460Y829998D02*
G54D10*
D03*
X-658070Y813541D02*
G54D13*
D03*
X-727920Y813541D02*
G54D13*
D03*
X-775960Y829999D02*
G54D30*
D03*
X-839460Y829999D02*
G54D13*
D03*
X-880320Y813541D02*
G54D13*
D03*
X-950170Y813541D02*
G54D13*
D03*
X-839347Y779018D02*
G54D29*
D03*
X-839460Y829998D02*
G54D29*
D03*
X-775960Y829998D02*
G54D29*
D03*
X-775847Y779018D02*
G54D29*
D03*
X-603857Y847983D02*
G54D12*
D03*
X-483207Y844809D02*
G54D12*
D03*
X-603857Y727333D02*
G54D12*
D03*
X-483207Y727333D02*
G54D12*
D03*
X-464394Y787658D02*
G54D12*
D03*
X-590350Y681054D02*
G54D31*
D03*
X-488750Y681054D02*
G54D31*
D03*
X-483207Y844809D02*
G54D12*
D03*
X-1018852Y715244D02*
G54D12*
D03*
X-1139502Y718418D02*
G54D12*
D03*
X-1018852Y835895D02*
G54D12*
D03*
X-1139502Y835895D02*
G54D12*
D03*
X-1158314Y775570D02*
G54D12*
D03*
X-1139501Y718418D02*
G54D12*
D03*
X-1139502Y835895D02*
G54D12*
D03*
X-1136450Y681054D02*
G54D31*
D03*
X-1034850Y681054D02*
G54D31*
D03*
X-590350Y681054D02*
G54D10*
D03*
X-1136450Y681054D02*
G54D10*
D03*
X-880320Y959591D02*
G54D10*
D03*
X-950170Y959591D02*
G54D10*
D03*
X-880320Y1029441D02*
G54D10*
D03*
X-950170Y1029441D02*
G54D10*
D03*
X-950170Y997691D02*
G54D10*
D03*
X-880320Y997691D02*
G54D10*
D03*
X-836912Y950820D02*
G54D29*
D03*
X-785930Y950932D02*
G54D29*
D03*
X-658070Y959591D02*
G54D10*
D03*
X-727920Y959591D02*
G54D10*
D03*
X-658070Y1029441D02*
G54D10*
D03*
X-727920Y1029441D02*
G54D10*
D03*
X-727920Y997691D02*
G54D10*
D03*
X-658070Y997691D02*
G54D10*
D03*
X-775847Y994918D02*
G54D10*
D03*
X-775960Y1045898D02*
G54D10*
D03*
X-839347Y994918D02*
G54D10*
D03*
X-839460Y1045898D02*
G54D10*
D03*
X-658070Y1029441D02*
G54D13*
D03*
X-727920Y1029441D02*
G54D13*
D03*
X-775960Y1045899D02*
G54D30*
D03*
X-839460Y1045899D02*
G54D13*
D03*
X-880320Y1029441D02*
G54D13*
D03*
X-950170Y1029441D02*
G54D13*
D03*
X-839347Y994918D02*
G54D29*
D03*
X-839460Y1045898D02*
G54D29*
D03*
X-775960Y1045898D02*
G54D29*
D03*
X-775847Y994918D02*
G54D29*
D03*
X-603857Y1063883D02*
G54D12*
D03*
X-483207Y1060709D02*
G54D12*
D03*
X-603857Y943233D02*
G54D12*
D03*
X-483207Y943233D02*
G54D12*
D03*
X-464394Y1003558D02*
G54D12*
D03*
X-590350Y896954D02*
G54D31*
D03*
X-488750Y896954D02*
G54D31*
D03*
X-483207Y1060709D02*
G54D12*
D03*
X-1018852Y931144D02*
G54D12*
D03*
X-1139502Y934318D02*
G54D12*
D03*
X-1018852Y1051794D02*
G54D12*
D03*
X-1139502Y1051794D02*
G54D12*
D03*
X-1158314Y991470D02*
G54D12*
D03*
X-1139501Y934318D02*
G54D12*
D03*
X-1139502Y1051794D02*
G54D12*
D03*
X-1136450Y896954D02*
G54D31*
D03*
X-1034850Y896954D02*
G54D31*
D03*
X-590350Y896954D02*
G54D10*
D03*
X-1136450Y896954D02*
G54D10*
D03*
X-880320Y1175491D02*
G54D10*
D03*
X-950170Y1175491D02*
G54D10*
D03*
X-880320Y1245341D02*
G54D10*
D03*
X-950170Y1245341D02*
G54D10*
D03*
X-950170Y1213591D02*
G54D10*
D03*
X-880320Y1213591D02*
G54D10*
D03*
X-836912Y1166720D02*
G54D29*
D03*
X-785930Y1166832D02*
G54D29*
D03*
X-658070Y1175491D02*
G54D10*
D03*
X-727920Y1175491D02*
G54D10*
D03*
X-658070Y1245341D02*
G54D10*
D03*
X-727920Y1245341D02*
G54D10*
D03*
X-727920Y1213591D02*
G54D10*
D03*
X-658070Y1213591D02*
G54D10*
D03*
X-775847Y1210818D02*
G54D10*
D03*
X-775960Y1261798D02*
G54D10*
D03*
X-839347Y1210818D02*
G54D10*
D03*
X-839460Y1261798D02*
G54D10*
D03*
X-658070Y1245341D02*
G54D13*
D03*
X-727920Y1245341D02*
G54D13*
D03*
X-775960Y1261799D02*
G54D30*
D03*
X-839460Y1261799D02*
G54D13*
D03*
X-880320Y1245341D02*
G54D13*
D03*
X-950170Y1245341D02*
G54D13*
D03*
X-839347Y1210818D02*
G54D29*
D03*
X-839460Y1261799D02*
G54D29*
D03*
X-775960Y1261798D02*
G54D29*
D03*
X-775847Y1210818D02*
G54D29*
D03*
X-603857Y1279783D02*
G54D12*
D03*
X-483207Y1276609D02*
G54D12*
D03*
X-603857Y1159133D02*
G54D12*
D03*
X-483207Y1159133D02*
G54D12*
D03*
X-464394Y1219458D02*
G54D12*
D03*
X-590350Y1112853D02*
G54D31*
D03*
X-488750Y1112854D02*
G54D31*
D03*
X-483207Y1276609D02*
G54D12*
D03*
X-1018852Y1147044D02*
G54D12*
D03*
X-1139502Y1150218D02*
G54D12*
D03*
X-1018852Y1267694D02*
G54D12*
D03*
X-1139502Y1267694D02*
G54D12*
D03*
X-1158314Y1207370D02*
G54D12*
D03*
X-1139501Y1150218D02*
G54D12*
D03*
X-1139502Y1267694D02*
G54D12*
D03*
X-1136450Y1112853D02*
G54D31*
D03*
X-1034850Y1112854D02*
G54D31*
D03*
X-590350Y1112854D02*
G54D10*
D03*
X-1136450Y1112853D02*
G54D10*
D03*
X-880320Y1391391D02*
G54D10*
D03*
X-950170Y1391391D02*
G54D10*
D03*
X-880320Y1461241D02*
G54D10*
D03*
X-950170Y1461241D02*
G54D10*
D03*
X-950170Y1429491D02*
G54D10*
D03*
X-880320Y1429491D02*
G54D10*
D03*
X-836912Y1382620D02*
G54D29*
D03*
X-785930Y1382732D02*
G54D29*
D03*
X-658070Y1391391D02*
G54D10*
D03*
X-727920Y1391391D02*
G54D10*
D03*
X-658070Y1461241D02*
G54D10*
D03*
X-727920Y1461241D02*
G54D10*
D03*
X-727920Y1429491D02*
G54D10*
D03*
X-658070Y1429491D02*
G54D10*
D03*
X-775847Y1426718D02*
G54D10*
D03*
X-775960Y1477698D02*
G54D10*
D03*
X-839347Y1426718D02*
G54D10*
D03*
X-839460Y1477698D02*
G54D10*
D03*
X-658070Y1461241D02*
G54D13*
D03*
X-727920Y1461241D02*
G54D13*
D03*
X-775960Y1477699D02*
G54D30*
D03*
X-839460Y1477699D02*
G54D13*
D03*
X-880320Y1461241D02*
G54D13*
D03*
X-950170Y1461241D02*
G54D13*
D03*
X-839347Y1426718D02*
G54D29*
D03*
X-839460Y1477698D02*
G54D29*
D03*
X-775960Y1477698D02*
G54D29*
D03*
X-775847Y1426718D02*
G54D29*
D03*
X-603857Y1495683D02*
G54D12*
D03*
X-483207Y1492509D02*
G54D12*
D03*
X-603857Y1375033D02*
G54D12*
D03*
X-483207Y1375033D02*
G54D12*
D03*
X-464394Y1435358D02*
G54D12*
D03*
X-590350Y1328754D02*
G54D31*
D03*
X-488750Y1328754D02*
G54D31*
D03*
X-483207Y1492509D02*
G54D12*
D03*
X-1018852Y1362944D02*
G54D12*
D03*
X-1139502Y1366118D02*
G54D12*
D03*
X-1018852Y1483594D02*
G54D12*
D03*
X-1139502Y1483594D02*
G54D12*
D03*
X-1158314Y1423270D02*
G54D12*
D03*
X-1139501Y1366118D02*
G54D12*
D03*
X-1139502Y1483594D02*
G54D12*
D03*
X-1136450Y1328753D02*
G54D31*
D03*
X-1034850Y1328754D02*
G54D31*
D03*
X-590350Y1328754D02*
G54D10*
D03*
X-1136450Y1328754D02*
G54D10*
D03*
X-655196Y652018D02*
G54D29*
D03*
X-655196Y652018D02*
G54D29*
D03*
X-750446Y652018D02*
G54D29*
D03*
X-750446Y652018D02*
G54D29*
D03*
X-858396Y652018D02*
G54D29*
D03*
X-858396Y652018D02*
G54D29*
D03*
X-947296Y652018D02*
G54D29*
D03*
X-947296Y652018D02*
G54D29*
D03*
X-655196Y1553718D02*
G54D29*
D03*
X-655196Y1553718D02*
G54D29*
D03*
X-750446Y1553718D02*
G54D29*
D03*
X-750446Y1553718D02*
G54D29*
D03*
X-858396Y1553718D02*
G54D29*
D03*
X-858396Y1553718D02*
G54D29*
D03*
X-947296Y1553718D02*
G54D29*
D03*
X-947296Y1553718D02*
G54D29*
D03*
X-1203932Y1107188D02*
G54D21*
D03*
X-410182Y1107188D02*
G54D21*
D03*
X201770Y1077276D02*
G54D14*
D03*
X211296Y1550352D02*
G54D14*
D03*
X211295Y1550352D02*
G54D14*
D03*
X-337980Y1077276D02*
G54D14*
D03*
X-350680Y1547176D02*
G54D14*
D03*
X-959033Y274502D02*
G54D12*
D03*
X-962207Y153852D02*
G54D12*
D03*
X-1079682Y274502D02*
G54D12*
D03*
X-1079682Y153852D02*
G54D12*
D03*
X-1019358Y135040D02*
G54D12*
D03*
X-1087232Y376371D02*
G54D12*
D03*
X-1084058Y497021D02*
G54D12*
D03*
X-966582Y376371D02*
G54D12*
D03*
X-966583Y497021D02*
G54D12*
D03*
X-1026908Y516308D02*
G54D12*
D03*
X-1132312Y311795D02*
G54D31*
D03*
X-1132312Y210195D02*
G54D31*
D03*
X-1132312Y311795D02*
G54D10*
D03*
X-1132312Y311795D02*
G54D12*
D03*
X-1136110Y534990D02*
G54D31*
D03*
X-1136110Y433390D02*
G54D31*
D03*
X-1136110Y534990D02*
G54D10*
D03*
X-1136110Y534990D02*
G54D12*
D03*
X-962207Y153852D02*
G54D12*
D03*
X-966583Y497021D02*
G54D12*
D03*
X-1084058Y497021D02*
G54D12*
D03*
X-966583Y497021D02*
G54D12*
D03*
X-987822Y582771D02*
G54D14*
D03*
X-35322Y582771D02*
G54D14*
D03*
X-987822Y-315754D02*
G54D14*
D03*
X-35322Y-318929D02*
G54D14*
D03*
X48733Y322452D02*
G54D10*
D03*
X96533Y322451D02*
G54D10*
D03*
X48733Y322452D02*
G54D10*
D03*
X957329Y106861D02*
G54D21*
D03*
X957330Y81461D02*
G54D21*
D03*
X957329Y-280489D02*
G54D21*
D03*
X957330Y-305889D02*
G54D21*
D03*
X926145Y-34389D02*
G54D21*
D03*
X951545Y-34388D02*
G54D21*
D03*
X-69289Y280270D02*
G54D32*
D03*
X-66114Y185020D02*
G54D32*
D03*
X-66114Y77070D02*
G54D32*
D03*
X-66114Y-15005D02*
G54D32*
D03*
X-496684Y-175468D02*
G54D33*
D03*
X-752384Y-175568D02*
G54D33*
D03*
X-651658Y-143643D02*
G54D34*
D03*
X-626284Y-143768D02*
G54D34*
D03*
X-600840Y-143743D02*
G54D34*
D03*
X-403578Y-77384D02*
G54D10*
D03*
X-403753Y-26392D02*
G54D10*
D03*
X-701508Y-13518D02*
G54D35*
D03*
X-750908Y-77618D02*
G54D35*
D03*
X-712908Y-77618D02*
G54D35*
D03*
X-739608Y-13518D02*
G54D35*
D03*
X-850784Y-64368D02*
G54D10*
D03*
X-850908Y-13452D02*
G54D10*
D03*
X-587258Y-35793D02*
G54D10*
D03*
X-511008Y-35843D02*
G54D10*
D03*
X-853358Y-132493D02*
G54D10*
D03*
X-853358Y-106993D02*
G54D10*
D03*
X-587258Y-83418D02*
G54D10*
D03*
X-511009Y-83468D02*
G54D10*
D03*
X-612658Y335682D02*
G54D10*
D03*
X-663575Y335557D02*
G54D10*
D03*
X-647584Y291232D02*
G54D11*
D03*
X-630008Y275332D02*
G54D11*
D03*
X-612392Y291267D02*
G54D11*
D03*
X-641234Y437282D02*
G54D10*
D03*
X-615808Y437332D02*
G54D10*
D03*
X-587258Y291232D02*
G54D10*
D03*
X-511084Y291232D02*
G54D10*
D03*
X-765058Y351557D02*
G54D10*
D03*
X-688808Y351507D02*
G54D10*
D03*
X-606308Y240432D02*
G54D10*
D03*
X-657225Y240307D02*
G54D10*
D03*
X-612658Y176932D02*
G54D11*
D03*
X-630258Y192832D02*
G54D11*
D03*
X-647850Y176898D02*
G54D11*
D03*
X-612284Y116532D02*
G54D11*
D03*
X-630258Y132507D02*
G54D11*
D03*
X-647850Y116572D02*
G54D11*
D03*
X-587258Y176932D02*
G54D10*
D03*
X-511084Y176932D02*
G54D10*
D03*
X-612659Y56232D02*
G54D11*
D03*
X-630258Y72182D02*
G54D11*
D03*
X-647850Y56247D02*
G54D11*
D03*
X-765058Y119782D02*
G54D10*
D03*
X-688808Y119732D02*
G54D10*
D03*
X-764850Y75603D02*
G54D10*
D03*
X-688600Y75553D02*
G54D10*
D03*
X-587258Y56282D02*
G54D10*
D03*
X-510984Y56232D02*
G54D10*
D03*
X-525938Y11492D02*
G54D10*
D03*
X-576854Y11367D02*
G54D10*
D03*
X-587258Y132482D02*
G54D10*
D03*
X-511008Y132432D02*
G54D10*
D03*
X-429983Y37632D02*
G54D21*
D03*
X-454967Y-13300D02*
G54D21*
D03*
X-479866Y37746D02*
G54D21*
D03*
X-422158Y224557D02*
G54D11*
D03*
X-439959Y240357D02*
G54D11*
D03*
X-457349Y224522D02*
G54D11*
D03*
X-777758Y437282D02*
G54D10*
D03*
X-752184Y437232D02*
G54D10*
D03*
X-479308Y326157D02*
G54D10*
D03*
X-403058Y326107D02*
G54D10*
D03*
X-479308Y284882D02*
G54D10*
D03*
X-403058Y284832D02*
G54D10*
D03*
X-498358Y234082D02*
G54D10*
D03*
X-549275Y233957D02*
G54D10*
D03*
X-479308Y189632D02*
G54D10*
D03*
X-403058Y189582D02*
G54D10*
D03*
X-403158Y62607D02*
G54D10*
D03*
X-403271Y113588D02*
G54D10*
D03*
X-403109Y145182D02*
G54D10*
D03*
X-479384Y145232D02*
G54D10*
D03*
X-828508Y303957D02*
G54D10*
D03*
X-803646Y303644D02*
G54D10*
D03*
X-799984Y119782D02*
G54D10*
D03*
X-850958Y119632D02*
G54D10*
D03*
X-765058Y164232D02*
G54D10*
D03*
X-688808Y164182D02*
G54D10*
D03*
X-701558Y43582D02*
G54D10*
D03*
X-752534Y43432D02*
G54D10*
D03*
X-824958Y40432D02*
G54D10*
D03*
X-850258Y40732D02*
G54D10*
D03*
X-799984Y249957D02*
G54D10*
D03*
X-850958Y249857D02*
G54D10*
D03*
X-479308Y437282D02*
G54D10*
D03*
X-504784Y437282D02*
G54D10*
D03*
X-765058Y218207D02*
G54D10*
D03*
X-688808Y218157D02*
G54D10*
D03*
X-701584Y253157D02*
G54D10*
D03*
X-752484Y252957D02*
G54D10*
D03*
X-736484Y303932D02*
G54D10*
D03*
X-711584Y303632D02*
G54D10*
D03*
X-587258Y335682D02*
G54D10*
D03*
X-511084Y335682D02*
G54D10*
D03*
X-587258Y386482D02*
G54D10*
D03*
X-511084Y386532D02*
G54D10*
D03*
X-765084Y386532D02*
G54D10*
D03*
X-688883Y386532D02*
G54D10*
D03*
X-612658Y386482D02*
G54D10*
D03*
X-663575Y386357D02*
G54D10*
D03*
X-554034Y437282D02*
G54D36*
D03*
X-513958Y97868D02*
G54D10*
D03*
X-462978Y97980D02*
G54D10*
D03*
X-453859Y-67593D02*
G54D10*
D03*
X-600784Y-208068D02*
G54D34*
D03*
X-626084Y-207868D02*
G54D34*
D03*
X-651571Y-207936D02*
G54D34*
D03*
X-263534Y-219379D02*
G54D28*
D03*
X-288934Y-219379D02*
G54D28*
D03*
X-263534Y-168579D02*
G54D28*
D03*
X-288934Y-168579D02*
G54D28*
D03*
X-365134Y-219379D02*
G54D27*
D03*
X-365134Y-168579D02*
G54D28*
D03*
X-220925Y-228262D02*
G54D12*
D03*
X-220925Y-126662D02*
G54D12*
D03*
X-222909Y-228262D02*
G54D12*
D03*
X-263534Y-45944D02*
G54D28*
D03*
X-288934Y-45944D02*
G54D28*
D03*
X-263534Y4856D02*
G54D28*
D03*
X-288934Y4856D02*
G54D28*
D03*
X-365134Y-45944D02*
G54D28*
D03*
X-365134Y4856D02*
G54D28*
D03*
X-296634Y-88574D02*
G54D21*
D03*
X-321617Y-139506D02*
G54D21*
D03*
X-346516Y-88460D02*
G54D21*
D03*
X-261152Y303306D02*
G54D28*
D03*
X-286552Y303306D02*
G54D28*
D03*
X-261152Y354106D02*
G54D28*
D03*
X-286552Y354106D02*
G54D28*
D03*
X-362752Y303306D02*
G54D28*
D03*
X-362752Y354106D02*
G54D28*
D03*
X-261152Y478724D02*
G54D28*
D03*
X-286552Y478724D02*
G54D28*
D03*
X-261152Y529524D02*
G54D28*
D03*
X-286552Y529524D02*
G54D28*
D03*
X-362752Y478724D02*
G54D28*
D03*
X-362752Y529524D02*
G54D28*
D03*
X-294252Y440063D02*
G54D21*
D03*
X-319236Y389131D02*
G54D21*
D03*
X-344135Y440178D02*
G54D21*
D03*
X-298221Y173760D02*
G54D21*
D03*
X-323204Y122828D02*
G54D21*
D03*
X-348104Y173874D02*
G54D21*
D03*
X-262740Y216787D02*
G54D28*
D03*
X-288140Y216787D02*
G54D28*
D03*
X-262740Y267587D02*
G54D28*
D03*
X-288140Y267587D02*
G54D28*
D03*
X-364340Y216787D02*
G54D28*
D03*
X-364340Y267587D02*
G54D28*
D03*
X-264327Y44543D02*
G54D28*
D03*
X-289727Y44543D02*
G54D28*
D03*
X-264327Y95343D02*
G54D28*
D03*
X-289727Y95343D02*
G54D28*
D03*
X-365927Y44543D02*
G54D28*
D03*
X-365927Y95343D02*
G54D28*
D03*
X-220925Y-92928D02*
G54D12*
D03*
X-220925Y8672D02*
G54D12*
D03*
X-220925Y-92928D02*
G54D12*
D03*
X-220528Y43200D02*
G54D12*
D03*
X-220528Y144800D02*
G54D12*
D03*
X-220528Y43200D02*
G54D12*
D03*
X-220528Y177741D02*
G54D12*
D03*
X-220528Y279340D02*
G54D12*
D03*
X-220528Y177740D02*
G54D12*
D03*
X-221718Y312282D02*
G54D12*
D03*
X-221718Y413881D02*
G54D12*
D03*
X-221718Y312281D02*
G54D12*
D03*
X-223306Y445632D02*
G54D12*
D03*
X-223306Y547231D02*
G54D12*
D03*
X-223306Y445631D02*
G54D12*
D03*
X-173033Y311076D02*
G54D21*
D03*
X-410364Y-216768D02*
G54D21*
D03*
X-365134Y-168579D02*
G54D27*
D03*
X-288934Y-219379D02*
G54D27*
D03*
X-263534Y-219379D02*
G54D27*
D03*
X-288934Y-168579D02*
G54D27*
D03*
X-263534Y-168579D02*
G54D27*
D03*
X-365134Y-45944D02*
G54D27*
D03*
X-365134Y4856D02*
G54D27*
D03*
X-288934Y-45944D02*
G54D27*
D03*
X-263534Y-45944D02*
G54D27*
D03*
X-263534Y4856D02*
G54D27*
D03*
X-288934Y4856D02*
G54D27*
D03*
X-289727Y44543D02*
G54D27*
D03*
X-264327Y44543D02*
G54D27*
D03*
X-264327Y95343D02*
G54D27*
D03*
X-289727Y95343D02*
G54D27*
D03*
X-365927Y44543D02*
G54D27*
D03*
X-365927Y95343D02*
G54D27*
D03*
X-364340Y216787D02*
G54D27*
D03*
X-288140Y216787D02*
G54D27*
D03*
X-364340Y267587D02*
G54D27*
D03*
X-288140Y267587D02*
G54D27*
D03*
X-262740Y267587D02*
G54D27*
D03*
X-262740Y216787D02*
G54D27*
D03*
X-362752Y303306D02*
G54D27*
D03*
X-362752Y354106D02*
G54D27*
D03*
X-286552Y303306D02*
G54D27*
D03*
X-261152Y303306D02*
G54D27*
D03*
X-261152Y354106D02*
G54D27*
D03*
X-286552Y354106D02*
G54D27*
D03*
X-362752Y478724D02*
G54D27*
D03*
X-362752Y529524D02*
G54D27*
D03*
X-286552Y478724D02*
G54D27*
D03*
X-261152Y478724D02*
G54D27*
D03*
X-261152Y529524D02*
G54D27*
D03*
X-286552Y529524D02*
G54D27*
D03*
X-298221Y173760D02*
G54D21*
D03*
X-294252Y440063D02*
G54D21*
D03*
X-265518Y-413052D02*
G54D28*
D03*
X-290918Y-413052D02*
G54D28*
D03*
X-265518Y-362252D02*
G54D28*
D03*
X-290918Y-362252D02*
G54D28*
D03*
X-367118Y-413052D02*
G54D27*
D03*
X-367118Y-362252D02*
G54D28*
D03*
X-367118Y-362252D02*
G54D27*
D03*
X-290918Y-413052D02*
G54D27*
D03*
X-265518Y-413052D02*
G54D27*
D03*
X-290918Y-362252D02*
G54D27*
D03*
X-265518Y-362252D02*
G54D27*
D03*
X-404187Y-317174D02*
G54D21*
D03*
X-429170Y-368106D02*
G54D21*
D03*
X-454069Y-317060D02*
G54D21*
D03*
X-228770Y-303562D02*
G54D12*
D03*
X-228770Y-405162D02*
G54D12*
D03*
X-226786Y-303562D02*
G54D12*
D03*
X-182732Y-302372D02*
G54D12*
D03*
X-182732Y-403972D02*
G54D12*
D03*
X-180748Y-302372D02*
G54D12*
D03*
X-264724Y-310658D02*
G54D28*
D03*
X-290124Y-310658D02*
G54D28*
D03*
X-264724Y-259858D02*
G54D28*
D03*
X-290124Y-259858D02*
G54D28*
D03*
X-366324Y-310658D02*
G54D27*
D03*
X-366325Y-259858D02*
G54D28*
D03*
X-366325Y-259858D02*
G54D27*
D03*
X-290124Y-310658D02*
G54D27*
D03*
X-264724Y-310658D02*
G54D27*
D03*
X-290124Y-259858D02*
G54D27*
D03*
X-264724Y-259858D02*
G54D27*
D03*
X-499224Y589264D02*
G54D32*
D03*
X-499224Y-325136D02*
G54D32*
D03*
X-691589Y-240430D02*
G54D12*
D03*
X-558239Y-373780D02*
G54D12*
D03*
X-558239Y-354730D02*
G54D12*
D03*
X-558239Y-335680D02*
G54D12*
D03*
X-558239Y-316630D02*
G54D12*
D03*
X-558239Y-297580D02*
G54D12*
D03*
X-558239Y-278530D02*
G54D12*
D03*
X-558239Y-259480D02*
G54D12*
D03*
X-558239Y-240430D02*
G54D12*
D03*
X-558239Y-392830D02*
G54D12*
D03*
X-558239Y-411880D02*
G54D12*
D03*
X-558239Y-411880D02*
G54D12*
D03*
X-653489Y-240430D02*
G54D12*
D03*
X-634439Y-240430D02*
G54D12*
D03*
X-615389Y-240430D02*
G54D12*
D03*
X-596339Y-240430D02*
G54D12*
D03*
X-577289Y-240430D02*
G54D12*
D03*
X-672539Y-240430D02*
G54D12*
D03*
X-691589Y-240430D02*
G54D12*
D03*
X-558239Y-240430D02*
G54D12*
D03*
X-892924Y455914D02*
G54D12*
D03*
X-163308Y541471D02*
G54D12*
D03*
X-272260Y1159276D02*
G54D10*
D03*
X357720Y177222D02*
G54D10*
D03*
X332145Y177273D02*
G54D10*
D03*
X357091Y228069D02*
G54D10*
D03*
X331516Y228120D02*
G54D10*
D03*
X950980Y246561D02*
G54D21*
D03*
X950980Y221161D02*
G54D21*
D03*
X950980Y195761D02*
G54D21*
D03*
X957330Y-436064D02*
G54D21*
D03*
X279824Y1554692D02*
G54D12*
D03*
X875188Y1554523D02*
G54D12*
D03*
X875188Y717910D02*
G54D12*
D03*
X463974Y1554692D02*
G54D12*
D03*
X362374Y1557867D02*
G54D12*
D03*
X176738Y-383765D02*
G54D10*
D03*
X317924Y1557867D02*
G54D12*
D03*
X-390101Y1195917D02*
G54D37*
D03*
X787974Y239094D02*
G54D10*
D03*
X876052Y227822D02*
G54D10*
D03*
X828252Y227823D02*
G54D10*
D03*
X957329Y-413839D02*
G54D21*
D03*
X-1171178Y533558D02*
G54D10*
D03*
X-1171228Y457308D02*
G54D10*
D03*
X-1171228Y457308D02*
G54D13*
D03*
X-1184113Y579986D02*
G54D10*
D03*
X-1158638Y579987D02*
G54D10*
D03*
X-322942Y1125304D02*
G54D10*
D03*
X-349929Y1125304D02*
G54D10*
D03*
X-186416Y1231666D02*
G54D10*
D03*
X-186416Y1206266D02*
G54D10*
D03*
X-186416Y1171341D02*
G54D15*
D03*
X-351516Y1158641D02*
G54D15*
D03*
X213633Y1390416D02*
G54D10*
D03*
X213633Y1415816D02*
G54D10*
D03*
X235922Y1438433D02*
G54D15*
D03*
X908958Y1104666D02*
G54D10*
D03*
X908958Y1079266D02*
G54D10*
D03*
X877272Y1120933D02*
G54D15*
D03*
X924834Y730016D02*
G54D10*
D03*
X924834Y704616D02*
G54D10*
D03*
X953472Y752633D02*
G54D15*
D03*
X366034Y558566D02*
G54D10*
D03*
X366034Y536341D02*
G54D10*
D03*
X369272Y600233D02*
G54D15*
D03*
X343872Y524033D02*
G54D15*
D03*
X-19367Y517759D02*
G54D10*
D03*
X-35083Y533475D02*
G54D10*
D03*
X-24428Y492283D02*
G54D15*
D03*
X-56178Y524033D02*
G54D15*
D03*
X202441Y298296D02*
G54D10*
D03*
X186726Y314011D02*
G54D10*
D03*
X178772Y346233D02*
G54D15*
D03*
X232746Y301783D02*
G54D15*
D03*
X-319766Y1164991D02*
G54D15*
D03*
X245384Y1412641D02*
G54D15*
D03*
X200934Y1349141D02*
G54D15*
D03*
X223222Y1349533D02*
G54D15*
D03*
X880384Y1088791D02*
G54D15*
D03*
X950234Y1088791D02*
G54D15*
D03*
X947122Y1057433D02*
G54D15*
D03*
X962934Y726841D02*
G54D15*
D03*
X896322Y689133D02*
G54D15*
D03*
X-294366Y1101491D02*
G54D15*
D03*
X-268966Y1101491D02*
G54D15*
D03*
X372384Y631591D02*
G54D15*
D03*
X340634Y485541D02*
G54D15*
D03*
X150134Y345841D02*
G54D15*
D03*
X264434Y301391D02*
G54D15*
D03*
X-72116Y542691D02*
G54D15*
D03*
X-21316Y460141D02*
G54D15*
D03*
X-119678Y524033D02*
G54D15*
D03*
X-122697Y546854D02*
G54D15*
D03*
X321584Y256941D02*
G54D15*
D03*
X321646Y282733D02*
G54D15*
D03*
X-1020894Y-30325D02*
G54D16*
D03*
X-1106619Y-30325D02*
G54D16*
D03*
X-1024069Y-246225D02*
G54D16*
D03*
X-1100269Y-246225D02*
G54D16*
D03*
X-998669Y-30325D02*
G54D16*
D03*
X-1151069Y-30325D02*
G54D16*
D03*
X-998669Y-246225D02*
G54D16*
D03*
X-1052791Y-143028D02*
G54D10*
D03*
X-976541Y-143078D02*
G54D10*
D03*
X-1052791Y-143027D02*
G54D10*
D03*
X-1182966Y-143028D02*
G54D10*
D03*
X-1106716Y-143078D02*
G54D10*
D03*
X-1182966Y-143027D02*
G54D10*
D03*
X-948887Y-245392D02*
G54D12*
D03*
X-948887Y-346991D02*
G54D12*
D03*
X-1151069Y-246225D02*
G54D12*
D03*
X-1151069Y-347825D02*
G54D12*
D03*
X-910996Y-278442D02*
G54D10*
D03*
X-910884Y-329423D02*
G54D10*
D03*
X-910996Y-278442D02*
G54D10*
D03*
X-1190396Y-278442D02*
G54D10*
D03*
X-1190284Y-329423D02*
G54D10*
D03*
X-1190396Y-278442D02*
G54D10*
D03*
X-910996Y-278442D02*
G54D10*
D03*
X-1166679Y-376668D02*
G54D21*
D03*
X-1141780Y-427714D02*
G54D21*
D03*
X-1007513Y-427600D02*
G54D21*
D03*
X-982529Y-376668D02*
G54D21*
D03*
X-957630Y-427714D02*
G54D21*
D03*
X-1050696Y-360993D02*
G54D10*
D03*
X-1050584Y-411974D02*
G54D10*
D03*
X-1050696Y-360993D02*
G54D10*
D03*
X-1050696Y-360993D02*
G54D10*
D03*
X-1088796Y-360993D02*
G54D10*
D03*
X-1088684Y-411974D02*
G54D10*
D03*
X-1088796Y-360993D02*
G54D10*
D03*
X-1088796Y-360993D02*
G54D10*
D03*
X-1052741Y-454228D02*
G54D10*
D03*
X-1103541Y-454228D02*
G54D10*
D03*
X-1170119Y-30325D02*
G54D16*
D03*
X-979619Y-30325D02*
G54D16*
D03*
X-1185313Y-427600D02*
G54D21*
D03*
X-853358Y-106993D02*
G54D10*
D03*
X-1212133Y-7874D02*
G54D10*
D03*
X-1212134Y17626D02*
G54D10*
D03*
X-905622Y270945D02*
G54D12*
D03*
X-219824Y-728361D02*
G54D12*
D03*
X237376Y-728361D02*
G54D38*
D03*
X-409550Y1679070D02*
G54D12*
D03*
X-530200Y1682244D02*
G54D12*
D03*
X-409550Y1799720D02*
G54D12*
D03*
X-530200Y1799720D02*
G54D12*
D03*
X-549012Y1739396D02*
G54D12*
D03*
X-530200Y1682244D02*
G54D12*
D03*
X-603628Y1797602D02*
G54D31*
D03*
X-603628Y1696002D02*
G54D10*
D03*
X-530200Y1682244D02*
G54D12*
D03*
X-105524Y1681464D02*
G54D12*
D03*
X-226174Y1684638D02*
G54D12*
D03*
X-105524Y1802114D02*
G54D12*
D03*
X-226174Y1802114D02*
G54D12*
D03*
X-244986Y1741789D02*
G54D12*
D03*
X-226174Y1684638D02*
G54D12*
D03*
X-299602Y1799996D02*
G54D31*
D03*
X-299602Y1698396D02*
G54D10*
D03*
X-226174Y1684638D02*
G54D12*
D03*
X-1117176Y1634067D02*
G54D12*
D03*
X-1187828Y1734102D02*
G54D24*
D03*
X-688802Y1613299D02*
G54D14*
D03*
X-1069802Y1564880D02*
G54D14*
D03*
X-1080914Y633018D02*
G54D14*
D03*
X-895515Y636060D02*
G54D12*
D03*
X-888991Y1580056D02*
G54D12*
D03*
X-740193Y1589962D02*
G54D12*
D03*
X-894926Y-696383D02*
G54D12*
D03*
X-863176Y-696383D02*
G54D12*
D03*
X-831426Y-696383D02*
G54D12*
D03*
X-893990Y-728683D02*
G54D10*
D03*
X-817740Y-728733D02*
G54D10*
D03*
X-808078Y-631256D02*
G54D12*
D03*
X-909678Y-631256D02*
G54D12*
D03*
X-769978Y-764606D02*
G54D12*
D03*
X-769978Y-663006D02*
G54D12*
D03*
X-800537Y-790778D02*
G54D10*
D03*
X-851518Y-790890D02*
G54D10*
D03*
X-946786Y-779489D02*
G54D21*
D03*
X-893105Y-761140D02*
G54D21*
D03*
X-911594Y-814842D02*
G54D21*
D03*
X-774276Y-620183D02*
G54D12*
D03*
X-851518Y-790890D02*
G54D21*
D03*
X-904241Y-560716D02*
G54D12*
D03*
X-901067Y-440066D02*
G54D12*
D03*
X-783591Y-560716D02*
G54D12*
D03*
X-783591Y-440066D02*
G54D12*
D03*
X-843916Y-421254D02*
G54D12*
D03*
X-901068Y-440066D02*
G54D12*
D03*
X-783591Y-440066D02*
G54D12*
D03*
X-947428Y-575297D02*
G54D31*
D03*
X-947428Y-473698D02*
G54D31*
D03*
X410450Y-916801D02*
G54D10*
D03*
X334150Y-916802D02*
G54D10*
D03*
X372350Y-916801D02*
G54D10*
D03*
X-219824Y-728361D02*
G54D38*
D03*
X969250Y-916801D02*
G54D10*
D03*
X892950Y-916802D02*
G54D10*
D03*
X931150Y-916801D02*
G54D10*
D03*
X19771Y816290D02*
G54D10*
D03*
X-36792Y1299947D02*
G54D10*
D03*
X-17174Y1319566D02*
G54D10*
D03*
X19771Y1006790D02*
G54D10*
D03*
X-56429Y962340D02*
G54D10*
D03*
X-356394Y754062D02*
G54D10*
D03*
X-330994Y576262D02*
G54D10*
D03*
X-903966Y-92309D02*
G54D15*
D03*
X-903966Y-66909D02*
G54D15*
D03*
X-843242Y449047D02*
G54D10*
D03*
X-825211Y467078D02*
G54D10*
D03*
X-815066Y498241D02*
G54D15*
D03*
X-789666Y498241D02*
G54D15*
D03*
X-497841Y-776616D02*
G54D12*
D03*
X-494667Y-655966D02*
G54D12*
D03*
X-377191Y-776616D02*
G54D12*
D03*
X-377191Y-655966D02*
G54D12*
D03*
X-437516Y-637154D02*
G54D12*
D03*
X-494668Y-655966D02*
G54D12*
D03*
X-377191Y-655966D02*
G54D12*
D03*
X-395301Y-588278D02*
G54D31*
D03*
X-496901Y-588278D02*
G54D31*
D03*
X-1015099Y-702162D02*
G54D10*
D03*
X-1015099Y-727662D02*
G54D10*
D03*
X-1207672Y189068D02*
G54D39*
D03*
X63103Y-480854D02*
G54D40*
D03*
G36*
X35521Y-376654D02*
X35521Y-432654D01*
X4521Y-432654D01*
X4521Y-376654D01*
X35521Y-376654D01*
G37*
G36*
X35521Y-529054D02*
X35521Y-585054D01*
X4521Y-585054D01*
X4521Y-529054D01*
X35521Y-529054D01*
G37*
G36*
X-21629Y-408404D02*
X-21629Y-464404D01*
X-52629Y-464404D01*
X-52629Y-408404D01*
X-21629Y-408404D01*
G37*
G36*
X-21629Y-497304D02*
X-21629Y-553304D01*
X-52629Y-553304D01*
X-52629Y-497304D01*
X-21629Y-497304D01*
G37*
G36*
X-123229Y-402054D02*
X-123229Y-458054D01*
X-154229Y-458054D01*
X-154229Y-402054D01*
X-123229Y-402054D01*
G37*
G36*
X-123229Y-497304D02*
X-123229Y-553304D01*
X-154229Y-553304D01*
X-154229Y-497304D01*
X-123229Y-497304D01*
G37*
G36*
X-21629Y-370304D02*
X-21629Y-426304D01*
X-52629Y-426304D01*
X-52629Y-370304D01*
X-21629Y-370304D01*
G37*
G36*
X-21629Y-541754D02*
X-21629Y-597754D01*
X-52629Y-597754D01*
X-52629Y-541754D01*
X-21629Y-541754D01*
G37*
G36*
X-123229Y-452854D02*
X-123229Y-508854D01*
X-154229Y-508854D01*
X-154229Y-452854D01*
X-123229Y-452854D01*
G37*
G36*
X35521Y-357604D02*
X35521Y-413604D01*
X4521Y-413604D01*
X4521Y-357604D01*
X35521Y-357604D01*
G37*
G36*
X35521Y-554454D02*
X35521Y-610454D01*
X4521Y-610454D01*
X4521Y-554454D01*
X35521Y-554454D01*
G37*
X-190897Y-484029D02*
G54D40*
D03*
G36*
X-246455Y-445231D02*
X-220455Y-445231D01*
X-220455Y-471231D01*
X-246455Y-471231D01*
X-246455Y-445231D01*
G37*
G36*
X-246455Y-496031D02*
X-220455Y-496031D01*
X-220455Y-522031D01*
X-246455Y-522031D01*
X-246455Y-496031D01*
G37*
G36*
X93270Y-505556D02*
X119270Y-505556D01*
X119270Y-531556D01*
X93270Y-531556D01*
X93270Y-505556D01*
G37*
X-1321197Y2021046D02*
G54D14*
D03*
X-625872Y1873408D02*
G54D14*
D03*
X853678Y-523717D02*
G54D14*
D03*
X-1311672Y-930117D02*
G54D14*
D03*
X-524272Y-892017D02*
G54D14*
D03*
X-694123Y1776948D02*
G54D12*
D03*
X-694123Y1745198D02*
G54D12*
D03*
X-694123Y1713448D02*
G54D12*
D03*
X-785973Y1680843D02*
G54D10*
D03*
X-738173Y1680843D02*
G54D10*
D03*
X-782798Y1807842D02*
G54D10*
D03*
X-734998Y1807843D02*
G54D10*
D03*
X-859223Y1770598D02*
G54D12*
D03*
X-859223Y1738848D02*
G54D12*
D03*
X-859223Y1707098D02*
G54D12*
D03*
X-951073Y1677668D02*
G54D10*
D03*
X-903273Y1677668D02*
G54D10*
D03*
X-973298Y1785618D02*
G54D10*
D03*
X-925498Y1785618D02*
G54D10*
D03*
X-1062423Y-661452D02*
G54D12*
D03*
X-1062423Y-693202D02*
G54D12*
D03*
X-1062423Y-724952D02*
G54D12*
D03*
X-1154273Y-757557D02*
G54D10*
D03*
X-1106473Y-757557D02*
G54D10*
D03*
X-1151098Y-630558D02*
G54D10*
D03*
X-1103298Y-630557D02*
G54D10*
D03*
X-947428Y-575297D02*
G54D12*
D03*
X-395301Y-588278D02*
G54D12*
D03*
X-1009016Y-548254D02*
G54D12*
D03*
X-37128Y1349533D02*
G54D15*
D03*
X-46716Y1330091D02*
G54D15*
D03*
X-20688Y1439576D02*
G54D10*
D03*
X-2657Y1457608D02*
G54D10*
D03*
X-24428Y1482883D02*
G54D15*
D03*
X-43541Y1466616D02*
G54D15*
D03*
X-1132758Y-551593D02*
G54D10*
D03*
X-1132759Y-526093D02*
G54D10*
D03*
X-1215308Y-818293D02*
G54D10*
D03*
X-1215309Y-792793D02*
G54D10*
D03*
X-1130678Y1816652D02*
G54D24*
D03*
X-1242174Y-521986D02*
G54D12*
D03*
X-1209460Y140755D02*
G54D39*
D03*
X-1048262Y1929114D02*
G54D12*
D03*
X-997462Y1929114D02*
G54D12*
D03*
X-946662Y1929114D02*
G54D12*
D03*
X-895862Y1929114D02*
G54D12*
D03*
X-1200662Y1929114D02*
G54D12*
D03*
X-1149862Y1929114D02*
G54D12*
D03*
X-775960Y1261798D02*
G54D29*
D03*
X-839460Y1045898D02*
G54D29*
D03*
X-775960Y1045899D02*
G54D29*
D03*
X-839460Y829998D02*
G54D29*
D03*
X-775960Y829998D02*
G54D29*
D03*
X-163397Y1234841D02*
G54D15*
D03*
X830237Y433595D02*
G54D10*
D03*
X830187Y357344D02*
G54D10*
D03*
X911230Y436995D02*
G54D10*
D03*
X911118Y487976D02*
G54D10*
D03*
X796931Y462395D02*
G54D10*
D03*
X796818Y513376D02*
G54D10*
D03*
X830221Y662195D02*
G54D10*
D03*
X830171Y585944D02*
G54D10*
D03*
X709500Y405581D02*
G54D10*
D03*
X785750Y405531D02*
G54D10*
D03*
X784541Y585944D02*
G54D10*
D03*
X784591Y662195D02*
G54D10*
D03*
X652438Y433596D02*
G54D10*
D03*
X652388Y357346D02*
G54D10*
D03*
X755106Y558111D02*
G54D10*
D03*
X657541Y560544D02*
G54D10*
D03*
X657591Y636795D02*
G54D10*
D03*
X581341Y560544D02*
G54D10*
D03*
X581391Y636795D02*
G54D10*
D03*
X530541Y560544D02*
G54D10*
D03*
X530591Y636795D02*
G54D10*
D03*
X431070Y494500D02*
G54D10*
D03*
X482050Y494613D02*
G54D10*
D03*
X502524Y363776D02*
G54D10*
D03*
X578774Y363727D02*
G54D10*
D03*
X717866Y481170D02*
G54D11*
D03*
X733766Y498745D02*
G54D11*
D03*
X717832Y516360D02*
G54D11*
D03*
X616266Y481170D02*
G54D11*
D03*
X632166Y498744D02*
G54D11*
D03*
X616231Y516360D02*
G54D11*
D03*
X540066Y481170D02*
G54D11*
D03*
X555966Y498745D02*
G54D11*
D03*
X540031Y516361D02*
G54D11*
D03*
X935378Y558064D02*
G54D12*
D03*
X884578Y558064D02*
G54D12*
D03*
X909978Y583464D02*
G54D12*
D03*
X884578Y608864D02*
G54D12*
D03*
X935378Y608864D02*
G54D12*
D03*
X467066Y557270D02*
G54D12*
D03*
X416266Y557270D02*
G54D12*
D03*
X441666Y582670D02*
G54D12*
D03*
X416266Y608070D02*
G54D12*
D03*
X467066Y608070D02*
G54D12*
D03*
X765540Y332960D02*
G54D10*
D03*
X714560Y332848D02*
G54D10*
D03*
X830221Y662195D02*
G54D13*
D03*
X954642Y302576D02*
G54D14*
D03*
X704306Y558111D02*
G54D10*
D03*
X701991Y585945D02*
G54D10*
D03*
X702041Y662195D02*
G54D10*
D03*
X961766Y506570D02*
G54D15*
D03*
X784591Y662195D02*
G54D13*
D03*
X702041Y662195D02*
G54D13*
D03*
X657591Y636795D02*
G54D13*
D03*
X581391Y636795D02*
G54D13*
D03*
X394810Y303370D02*
G54D14*
D03*
X954642Y661351D02*
G54D14*
D03*
X395445Y659764D02*
G54D14*
D03*
X875188Y717910D02*
G54D10*
D03*
X404166Y516970D02*
G54D15*
D03*
X908422Y379671D02*
G54D10*
D03*
X438522Y379671D02*
G54D10*
D03*
X474900Y244430D02*
G54D10*
D03*
X519850Y1365358D02*
G54D10*
D03*
X519900Y1441608D02*
G54D10*
D03*
X438857Y1361958D02*
G54D10*
D03*
X438969Y1310978D02*
G54D10*
D03*
X553156Y1336558D02*
G54D10*
D03*
X553268Y1285578D02*
G54D10*
D03*
X519866Y1136759D02*
G54D10*
D03*
X519916Y1213009D02*
G54D10*
D03*
X640587Y1393372D02*
G54D10*
D03*
X564337Y1393422D02*
G54D10*
D03*
X565546Y1213008D02*
G54D10*
D03*
X565496Y1136759D02*
G54D10*
D03*
X697650Y1365358D02*
G54D10*
D03*
X697699Y1441608D02*
G54D10*
D03*
X594981Y1240842D02*
G54D10*
D03*
X692546Y1238409D02*
G54D10*
D03*
X692496Y1162159D02*
G54D10*
D03*
X768746Y1238408D02*
G54D10*
D03*
X768696Y1162158D02*
G54D10*
D03*
X819546Y1238408D02*
G54D10*
D03*
X819496Y1162158D02*
G54D10*
D03*
X919018Y1304453D02*
G54D10*
D03*
X868037Y1304340D02*
G54D10*
D03*
X847562Y1435176D02*
G54D10*
D03*
X771313Y1435226D02*
G54D10*
D03*
X632221Y1317784D02*
G54D11*
D03*
X616321Y1300209D02*
G54D11*
D03*
X632255Y1282593D02*
G54D11*
D03*
X733821Y1317784D02*
G54D11*
D03*
X717921Y1300208D02*
G54D11*
D03*
X733856Y1282593D02*
G54D11*
D03*
X810021Y1317784D02*
G54D11*
D03*
X794121Y1300208D02*
G54D11*
D03*
X810056Y1282593D02*
G54D11*
D03*
X413121Y1241684D02*
G54D12*
D03*
X463921Y1241684D02*
G54D12*
D03*
X438521Y1216284D02*
G54D12*
D03*
X463921Y1190884D02*
G54D12*
D03*
X413121Y1190884D02*
G54D12*
D03*
X883021Y1241684D02*
G54D12*
D03*
X933821Y1241684D02*
G54D12*
D03*
X908420Y1216284D02*
G54D12*
D03*
X933820Y1190884D02*
G54D12*
D03*
X883021Y1190884D02*
G54D12*
D03*
X584547Y1465993D02*
G54D10*
D03*
X635527Y1466106D02*
G54D10*
D03*
X519866Y1136759D02*
G54D13*
D03*
X395445Y1496377D02*
G54D14*
D03*
X645781Y1240842D02*
G54D10*
D03*
X648096Y1213009D02*
G54D10*
D03*
X648046Y1136759D02*
G54D10*
D03*
X477096Y1498159D02*
G54D10*
D03*
X388321Y1292384D02*
G54D15*
D03*
X565496Y1136759D02*
G54D13*
D03*
X648046Y1136759D02*
G54D13*
D03*
X692496Y1162159D02*
G54D13*
D03*
X768696Y1162158D02*
G54D13*
D03*
X955277Y1495584D02*
G54D14*
D03*
X395445Y1137602D02*
G54D41*
D03*
X954642Y1139190D02*
G54D14*
D03*
X945921Y1281984D02*
G54D15*
D03*
X-1082835Y-847498D02*
G54D12*
D03*
X-1012191Y-849085D02*
G54D12*
D03*
X-69129Y625790D02*
G54D42*
D03*
X-43729Y625790D02*
G54D42*
D03*
X883211Y350120D02*
G54D12*
D03*
X232650Y-497701D02*
G54D10*
D03*
X-645274Y-750586D02*
G54D12*
D03*
X-708774Y-636286D02*
G54D12*
D03*
X-1207672Y-115732D02*
G54D39*
D03*
X-1206285Y-68795D02*
G54D39*
D03*
X-708773Y-661786D02*
G54D10*
D03*
X-708774Y-636286D02*
G54D10*
D03*
X-666440Y-660764D02*
G54D10*
D03*
X-666441Y-635264D02*
G54D10*
D03*
X-645273Y-776086D02*
G54D10*
D03*
X-645274Y-750586D02*
G54D10*
D03*
X-1216674Y-521985D02*
G54D10*
D03*
X-1242174Y-521986D02*
G54D10*
D03*
X-688414Y-475380D02*
G54D12*
D03*
X-558239Y-456330D02*
G54D12*
D03*
X-558239Y-475380D02*
G54D12*
D03*
X-653489Y-475380D02*
G54D12*
D03*
X-634439Y-475380D02*
G54D12*
D03*
X-615389Y-475380D02*
G54D12*
D03*
X-596339Y-475380D02*
G54D12*
D03*
X-577289Y-475380D02*
G54D12*
D03*
X-672539Y-475380D02*
G54D12*
D03*
X-558239Y-475380D02*
G54D12*
D03*
X-723339Y-453155D02*
G54D12*
D03*
X-723339Y-434105D02*
G54D12*
D03*
X-723339Y-475380D02*
G54D12*
D03*
X-723339Y-297580D02*
G54D12*
D03*
X-723339Y-278530D02*
G54D12*
D03*
X-723339Y-259480D02*
G54D12*
D03*
X-723339Y-240430D02*
G54D12*
D03*
X-723339Y-354730D02*
G54D12*
D03*
X-723339Y-335680D02*
G54D12*
D03*
X-723339Y-316630D02*
G54D12*
D03*
X-723339Y-297580D02*
G54D12*
D03*
X-723339Y-411880D02*
G54D12*
D03*
X-723339Y-392830D02*
G54D12*
D03*
X-723339Y-373780D02*
G54D12*
D03*
X-723339Y-354730D02*
G54D12*
D03*
X-703184Y-239043D02*
G54D12*
D03*
X-558239Y-434105D02*
G54D12*
D03*
X-704289Y-475380D02*
G54D12*
D03*
X-911724Y555546D02*
G54D10*
D03*
X-911724Y532030D02*
G54D10*
D03*
X-886324Y555546D02*
G54D10*
D03*
X-886324Y532030D02*
G54D10*
D03*
X-1190784Y50234D02*
G54D10*
D03*
X792230Y-401139D02*
G54D21*
D03*
X884231Y-464077D02*
G54D10*
D03*
X909806Y-464128D02*
G54D10*
D03*
X632917Y-499534D02*
G54D11*
D03*
X615342Y-483634D02*
G54D11*
D03*
X597726Y-499568D02*
G54D11*
D03*
X563630Y-439239D02*
G54D21*
D03*
X-68094Y424872D02*
G54D10*
D03*
X478006Y-502228D02*
G54D10*
D03*
X-68094Y386772D02*
G54D10*
D03*
X363706Y-502228D02*
G54D10*
D03*
X-919168Y-895878D02*
G54D10*
D03*
X-893594Y-895928D02*
G54D10*
D03*
X-893594Y-895928D02*
G54D10*
D03*
X-868020Y-895978D02*
G54D10*
D03*
X554842Y-486543D02*
G54D21*
D03*
X980326Y-471186D02*
G54D12*
D03*
X980327Y-496686D02*
G54D10*
D03*
X980326Y-471186D02*
G54D10*
D03*
X929878Y-726917D02*
G54D14*
D03*
X-1067912Y1846623D02*
G54D12*
D03*
X-1283212Y-604536D02*
G54D12*
D03*
X-1283212Y-655336D02*
G54D12*
D03*
X-1283212Y-706136D02*
G54D12*
D03*
X-1283212Y-756936D02*
G54D12*
D03*
X-868020Y-895978D02*
G54D10*
D03*
X-842445Y-896029D02*
G54D10*
D03*
X-983616Y-522854D02*
G54D12*
D03*
X-1009016Y-624454D02*
G54D12*
D03*
X-958216Y-713354D02*
G54D12*
D03*
X-985528Y-791197D02*
G54D12*
D03*
X-842445Y-896029D02*
G54D10*
D03*
X-816870Y-896080D02*
G54D10*
D03*
X-815858Y-927968D02*
G54D10*
D03*
X-744362Y-928026D02*
G54D10*
D03*
X726326Y-941086D02*
G54D10*
D03*
X726326Y-941086D02*
G54D10*
D03*
G36*
X35521Y-510004D02*
X35521Y-566004D01*
X4521Y-566004D01*
X4521Y-510004D01*
X35521Y-510004D01*
G37*
X21159Y1822575D02*
G54D11*
D03*
X5259Y1805000D02*
G54D11*
D03*
X21194Y1787384D02*
G54D11*
D03*
X360455Y1639368D02*
G54D10*
D03*
X360505Y1715618D02*
G54D10*
D03*
X-175543Y1861744D02*
G54D10*
D03*
X-99293Y1861694D02*
G54D10*
D03*
X265270Y893126D02*
G54D14*
D03*
X-290344Y564572D02*
G54D10*
D03*
X1011406Y-432378D02*
G54D10*
D03*
X-360194Y-489528D02*
G54D10*
D03*
X-313928Y664527D02*
G54D21*
D03*
X1011406Y-457778D02*
G54D10*
D03*
X169227Y1757328D02*
G54D43*
D03*
X194627Y1757328D02*
G54D43*
D03*
X220027Y1757328D02*
G54D43*
D03*
X245427Y1757328D02*
G54D43*
D03*
X270827Y1757328D02*
G54D43*
D03*
X296227Y1757328D02*
G54D43*
D03*
X321627Y1757328D02*
G54D43*
D03*
X347027Y1757328D02*
G54D43*
D03*
X372427Y1757328D02*
G54D43*
D03*
X397827Y1757328D02*
G54D43*
D03*
X423227Y1757328D02*
G54D43*
D03*
X448627Y1757328D02*
G54D43*
D03*
X474027Y1757328D02*
G54D43*
D03*
X499427Y1757328D02*
G54D43*
D03*
X524827Y1757328D02*
G54D43*
D03*
X169227Y1909728D02*
G54D43*
D03*
X194627Y1909728D02*
G54D43*
D03*
X220027Y1909728D02*
G54D43*
D03*
X245427Y1909728D02*
G54D43*
D03*
X270827Y1909728D02*
G54D43*
D03*
X296227Y1909728D02*
G54D43*
D03*
X321627Y1909728D02*
G54D43*
D03*
X347027Y1909728D02*
G54D43*
D03*
X372427Y1909728D02*
G54D43*
D03*
X397827Y1909728D02*
G54D43*
D03*
X423227Y1909728D02*
G54D43*
D03*
X448627Y1909728D02*
G54D43*
D03*
X474027Y1909728D02*
G54D43*
D03*
X499427Y1909728D02*
G54D43*
D03*
X524827Y1909728D02*
G54D43*
D03*
X143986Y1909887D02*
G54D44*
D03*
X143986Y1757487D02*
G54D44*
D03*
X170243Y1858674D02*
G54D43*
D03*
X144843Y1858674D02*
G54D43*
D03*
X170243Y1833274D02*
G54D43*
D03*
X144843Y1833274D02*
G54D43*
D03*
X170243Y1807874D02*
G54D43*
D03*
X144843Y1807874D02*
G54D43*
D03*
X-390500Y1745744D02*
G54D12*
D03*
X-251679Y1899761D02*
G54D10*
D03*
X-327929Y1899812D02*
G54D10*
D03*
X-42105Y1804034D02*
G54D10*
D03*
X-42155Y1727784D02*
G54D10*
D03*
X-4005Y1711959D02*
G54D10*
D03*
X-4056Y1635709D02*
G54D10*
D03*
X-372224Y1617964D02*
G54D12*
D03*
X205626Y1878314D02*
G54D12*
D03*
X-16793Y1950644D02*
G54D10*
D03*
X59457Y1950594D02*
G54D10*
D03*
X-79404Y1910901D02*
G54D10*
D03*
X-79404Y1958701D02*
G54D10*
D03*
X73006Y1901319D02*
G54D10*
D03*
X22025Y1901207D02*
G54D10*
D03*
X313259Y1695575D02*
G54D11*
D03*
X297359Y1678000D02*
G54D11*
D03*
X313294Y1660384D02*
G54D11*
D03*
X182665Y1652142D02*
G54D10*
D03*
X258915Y1652092D02*
G54D10*
D03*
X81065Y1677542D02*
G54D10*
D03*
X157315Y1677492D02*
G54D10*
D03*
X563665Y1575942D02*
G54D10*
D03*
X1016310Y-540114D02*
G54D10*
D03*
X1016309Y-514614D02*
G54D10*
D03*
X999728Y2004133D02*
G54D14*
D03*
X-1318022Y485933D02*
G54D14*
D03*
X-1157686Y1848264D02*
G54D12*
D03*
X-1180137Y1825814D02*
G54D12*
D03*
X-1110061Y1883189D02*
G54D12*
D03*
X-1122761Y1851439D02*
G54D12*
D03*
X-121796Y744093D02*
G54D29*
D03*
X-83696Y785368D02*
G54D29*
D03*
X-210616Y1892425D02*
G54D11*
D03*
X-226516Y1874850D02*
G54D11*
D03*
X-210581Y1857234D02*
G54D11*
D03*
X-1067912Y1770423D02*
G54D12*
D03*
X-1042512Y1770423D02*
G54D12*
D03*
X-763112Y1948223D02*
G54D12*
D03*
X-737712Y1948223D02*
G54D12*
D03*
X-763112Y1884723D02*
G54D12*
D03*
X-485804Y1929951D02*
G54D10*
D03*
X-485804Y1977751D02*
G54D10*
D03*
X-701417Y-876646D02*
G54D11*
D03*
X-683842Y-892545D02*
G54D11*
D03*
X-666226Y-876610D02*
G54D11*
D03*
X-549158Y-940668D02*
G54D10*
D03*
X-477662Y-940726D02*
G54D10*
D03*
X-592736Y-866858D02*
G54D10*
D03*
X-592793Y-938354D02*
G54D10*
D03*
X-189591Y415691D02*
G54D15*
D03*
X-186416Y574441D02*
G54D15*
D03*
X-189591Y282341D02*
G54D15*
D03*
X-189591Y148991D02*
G54D15*
D03*
X-189591Y15641D02*
G54D15*
D03*
X-189591Y-117709D02*
G54D15*
D03*
X-227691Y-428859D02*
G54D15*
D03*
X-151491Y-387584D02*
G54D15*
D03*
X-1051436Y2014839D02*
G54D12*
D03*
X-1000636Y2014839D02*
G54D12*
D03*
X-949836Y2014839D02*
G54D12*
D03*
X-899036Y2014839D02*
G54D12*
D03*
X688464Y2014839D02*
G54D12*
D03*
X739264Y2014839D02*
G54D12*
D03*
X790064Y2014839D02*
G54D12*
D03*
X840864Y2014839D02*
G54D12*
D03*
X612264Y2014839D02*
G54D12*
D03*
X-924436Y1970389D02*
G54D12*
D03*
X632388Y1871787D02*
G54D28*
D03*
X632388Y1897187D02*
G54D28*
D03*
X683188Y1871787D02*
G54D28*
D03*
X683188Y1897187D02*
G54D28*
D03*
X632388Y1973387D02*
G54D28*
D03*
X683188Y1973387D02*
G54D28*
D03*
X721288Y1871787D02*
G54D28*
D03*
X721288Y1897187D02*
G54D28*
D03*
X772088Y1871787D02*
G54D28*
D03*
X772088Y1897187D02*
G54D28*
D03*
X721288Y1973387D02*
G54D28*
D03*
X772088Y1973387D02*
G54D28*
D03*
X810188Y1871787D02*
G54D28*
D03*
X810188Y1897187D02*
G54D28*
D03*
X860988Y1871787D02*
G54D28*
D03*
X860988Y1897187D02*
G54D28*
D03*
X810188Y1973387D02*
G54D28*
D03*
X860988Y1973387D02*
G54D28*
D03*
X899088Y1871787D02*
G54D28*
D03*
X899088Y1897187D02*
G54D28*
D03*
X949888Y1871787D02*
G54D28*
D03*
X949888Y1897187D02*
G54D28*
D03*
X899088Y1973387D02*
G54D28*
D03*
X949888Y1973387D02*
G54D28*
D03*
X612264Y1786239D02*
G54D12*
D03*
X652555Y1709218D02*
G54D10*
D03*
X652605Y1785468D02*
G54D10*
D03*
X741455Y1709218D02*
G54D10*
D03*
X741505Y1785468D02*
G54D10*
D03*
X836705Y1709218D02*
G54D10*
D03*
X836755Y1785468D02*
G54D10*
D03*
X792255Y1709218D02*
G54D10*
D03*
X792305Y1785468D02*
G54D10*
D03*
X703355Y1709218D02*
G54D10*
D03*
X703405Y1785468D02*
G54D10*
D03*
X881155Y1709218D02*
G54D10*
D03*
X881205Y1785468D02*
G54D10*
D03*
X972595Y1709218D02*
G54D10*
D03*
X972645Y1785468D02*
G54D10*
D03*
X925605Y1709218D02*
G54D10*
D03*
X925655Y1785468D02*
G54D10*
D03*
X634206Y1827337D02*
G54D21*
D03*
X659606Y1827337D02*
G54D21*
D03*
X685006Y1827337D02*
G54D21*
D03*
X723106Y1827337D02*
G54D21*
D03*
X748506Y1827337D02*
G54D21*
D03*
X773906Y1827337D02*
G54D21*
D03*
X812006Y1827337D02*
G54D21*
D03*
X837406Y1827337D02*
G54D21*
D03*
X862806Y1827337D02*
G54D21*
D03*
X900906Y1827337D02*
G54D21*
D03*
X926306Y1827337D02*
G54D21*
D03*
X951706Y1827337D02*
G54D21*
D03*
X634206Y1827337D02*
G54D12*
D03*
X723106Y1827337D02*
G54D12*
D03*
X812006Y1827337D02*
G54D12*
D03*
X900906Y1827337D02*
G54D12*
D03*
X634964Y1853839D02*
G54D15*
D03*
X684964Y1853839D02*
G54D15*
D03*
X719964Y1853839D02*
G54D15*
D03*
X774964Y1853839D02*
G54D15*
D03*
X809964Y1853839D02*
G54D15*
D03*
X864964Y1853839D02*
G54D15*
D03*
X899964Y1853839D02*
G54D15*
D03*
X952526Y1853342D02*
G54D15*
D03*
X562264Y1949839D02*
G54D12*
D03*
X992264Y-265161D02*
G54D12*
D03*
X1012264Y1879839D02*
G54D12*
D03*
X872991Y300795D02*
G54D12*
D03*
X608818Y1125297D02*
G54D12*
D03*
X792174Y1124503D02*
G54D12*
D03*
X390537Y1555509D02*
G54D12*
D03*
X954642Y1139190D02*
G54D41*
D03*
X955278Y1495583D02*
G54D41*
D03*
X395445Y1496377D02*
G54D41*
D03*
X395446Y659764D02*
G54D41*
D03*
X955278Y658971D02*
G54D41*
D03*
X954642Y302576D02*
G54D41*
D03*
X395446Y300989D02*
G54D41*
D03*
X-35322Y582771D02*
G54D41*
D03*
X-987822Y582771D02*
G54D41*
D03*
X-1080914Y633018D02*
G54D41*
D03*
X-987822Y-315754D02*
G54D41*
D03*
X-35322Y-318929D02*
G54D45*
D03*
X608819Y288684D02*
G54D12*
D03*
X711212Y287890D02*
G54D12*
D03*
X-828721Y-322247D02*
G54D12*
D03*
X-847771Y592153D02*
G54D12*
D03*
X867797Y1017467D02*
G54D18*
D03*
X51822Y731717D02*
G54D18*
D03*
X912247Y792042D02*
G54D18*
D03*
X118497Y969842D02*
G54D18*
D03*
X63342Y257249D02*
G54D10*
D03*
X85567Y257250D02*
G54D10*
D03*
X106204Y682699D02*
G54D10*
D03*
X106204Y663650D02*
G54D10*
D03*
X195104Y684287D02*
G54D10*
D03*
X195104Y665237D02*
G54D10*
D03*
X137955Y638249D02*
G54D10*
D03*
X160179Y638250D02*
G54D10*
D03*
X198810Y631633D02*
G54D10*
D03*
X198810Y609408D02*
G54D10*
D03*
X245384Y691916D02*
G54D27*
D03*
X51709Y693504D02*
G54D27*
D03*
X178709Y525228D02*
G54D27*
D03*
X181884Y549041D02*
G54D27*
D03*
X80284Y664928D02*
G54D27*
D03*
X151450Y681657D02*
G54D21*
D03*
X-1044014Y1156570D02*
G54D12*
D03*
X-1328898Y1893568D02*
G54D10*
D03*
X-1281098Y1893568D02*
G54D10*
D03*
X201452Y1972942D02*
G54D10*
D03*
X249252Y1972943D02*
G54D10*
D03*
X296704Y1936824D02*
G54D15*
D03*
X-1293536Y1770274D02*
G54D10*
D03*
X-1293648Y1821254D02*
G54D10*
D03*
X-1331636Y1770274D02*
G54D10*
D03*
X-1331748Y1821254D02*
G54D10*
D03*
X-1335128Y1951300D02*
G54D10*
D03*
X-1284148Y1951412D02*
G54D10*
D03*
X-415017Y1152292D02*
G54D10*
D03*
X-415017Y1174516D02*
G54D10*
D03*
X-400729Y1037992D02*
G54D10*
D03*
X-400729Y1060216D02*
G54D10*
D03*
X-374226Y1037167D02*
G54D37*
D03*
X-186416Y1468204D02*
G54D10*
D03*
X-65766Y1469791D02*
G54D10*
D03*
X-1290502Y1658340D02*
G54D10*
D03*
X-1315901Y1658340D02*
G54D10*
D03*
X-1317940Y1702382D02*
G54D10*
D03*
X-1292541Y1702382D02*
G54D10*
D03*
X-1202416Y-730483D02*
G54D10*
D03*
X-1202416Y-705084D02*
G54D10*
D03*
X339440Y1974539D02*
G54D10*
D03*
X364840Y1974539D02*
G54D10*
D03*
X390240Y1974539D02*
G54D10*
D03*
X415640Y1974539D02*
G54D10*
D03*
X441040Y1974539D02*
G54D10*
D03*
X466440Y1974539D02*
G54D10*
D03*
X491840Y1974539D02*
G54D10*
D03*
X364840Y1974539D02*
G54D10*
D03*
X1005914Y1959214D02*
G54D12*
D03*
X51363Y100137D02*
G54D28*
D03*
X51363Y125537D02*
G54D28*
D03*
X102163Y100137D02*
G54D28*
D03*
X102163Y125537D02*
G54D28*
D03*
X51363Y201737D02*
G54D28*
D03*
X102163Y201737D02*
G54D28*
D03*
X45733Y71626D02*
G54D10*
D03*
X102883Y71626D02*
G54D10*
D03*
X45733Y37495D02*
G54D10*
D03*
X323159Y1456482D02*
G54D10*
D03*
X322365Y1431082D02*
G54D10*
D03*
X322366Y1431082D02*
G54D10*
D03*
X321571Y1405682D02*
G54D10*
D03*
X321571Y1405682D02*
G54D10*
D03*
X320778Y1380282D02*
G54D10*
D03*
X320778Y1380282D02*
G54D10*
D03*
X319984Y1354882D02*
G54D10*
D03*
X319984Y1354882D02*
G54D10*
D03*
X319190Y1329482D02*
G54D10*
D03*
X303712Y1456482D02*
G54D10*
D03*
X302918Y1404888D02*
G54D10*
D03*
X302521Y1353692D02*
G54D10*
D03*
X-946649Y562193D02*
G54D10*
D03*
X-851399Y561399D02*
G54D10*
D03*
X798580Y329111D02*
G54D21*
D03*
X881435Y43676D02*
G54D10*
D03*
X881485Y119926D02*
G54D10*
D03*
X989079Y94161D02*
G54D46*
D03*
X881485Y119926D02*
G54D10*
D03*
X881435Y43676D02*
G54D10*
D03*
X826471Y90646D02*
G54D10*
D03*
X826471Y125571D02*
G54D10*
D03*
X826471Y33496D02*
G54D10*
D03*
X826471Y-10954D02*
G54D10*
D03*
X566121Y-49054D02*
G54D10*
D03*
X604221Y-49054D02*
G54D10*
D03*
X826838Y161775D02*
G54D10*
D03*
X903088Y161725D02*
G54D10*
D03*
X918546Y122396D02*
G54D10*
D03*
X915768Y84296D02*
G54D10*
D03*
X750408Y-64898D02*
G54D10*
D03*
X798208Y-64899D02*
G54D10*
D03*
X750408Y-64898D02*
G54D10*
D03*
X580630Y164636D02*
G54D10*
D03*
X606130Y164636D02*
G54D10*
D03*
X663180Y164636D02*
G54D10*
D03*
X688680Y164636D02*
G54D10*
D03*
X922968Y-69314D02*
G54D21*
D03*
X948368Y-69314D02*
G54D21*
D03*
X810596Y-176054D02*
G54D10*
D03*
X810596Y-141129D02*
G54D10*
D03*
X810596Y-233204D02*
G54D10*
D03*
X810596Y-277654D02*
G54D10*
D03*
X553421Y-315754D02*
G54D10*
D03*
X591521Y-315754D02*
G54D10*
D03*
X567930Y-102064D02*
G54D10*
D03*
X593430Y-102064D02*
G54D10*
D03*
X650480Y-102064D02*
G54D10*
D03*
X675980Y-102064D02*
G54D10*
D03*
X939347Y-216280D02*
G54D10*
D03*
X939347Y-190780D02*
G54D10*
D03*
X535217Y55094D02*
G54D21*
D03*
X510233Y4162D02*
G54D21*
D03*
X485334Y55209D02*
G54D21*
D03*
X857256Y-182130D02*
G54D10*
D03*
X857143Y-131150D02*
G54D10*
D03*
X940432Y-347127D02*
G54D21*
D03*
X965832Y-347126D02*
G54D21*
D03*
X939638Y-377688D02*
G54D21*
D03*
X965038Y-377687D02*
G54D21*
D03*
X878462Y-279639D02*
G54D10*
D03*
X886796Y-241936D02*
G54D10*
D03*
X404760Y-132247D02*
G54D10*
D03*
X404810Y-106672D02*
G54D10*
D03*
X399997Y-352116D02*
G54D10*
D03*
X400047Y-326541D02*
G54D10*
D03*
X512198Y-214780D02*
G54D21*
D03*
X487214Y-265712D02*
G54D21*
D03*
X462315Y-214666D02*
G54D21*
D03*
X737738Y195572D02*
G54D10*
D03*
X737788Y221147D02*
G54D10*
D03*
X356132Y128010D02*
G54D10*
D03*
X330557Y128060D02*
G54D10*
D03*
X449752Y-100618D02*
G54D10*
D03*
X401333Y-52993D02*
G54D10*
D03*
X273539Y131157D02*
G54D10*
D03*
X156527Y-128430D02*
G54D41*
D03*
M02*
