%FSLAX34Y34*%
%MOMM*%
%LNSOLDERMASK_TOP*%
G71*
G01*
%ADD10C,2.600*%
%ADD11C,2.400*%
%ADD12C,2.800*%
%ADD13C,2.600*%
%ADD14C,5.100*%
%ADD15C,1.600*%
%ADD16C,3.100*%
%ADD17C,7.600*%
%ADD18C,3.200*%
%ADD19C,2.900*%
%ADD20C,2.600*%
%ADD21C,2.600*%
%ADD22C,2.400*%
%ADD23C,2.600*%
%ADD24C,3.600*%
%ADD25C,2.800*%
%ADD26C,3.000*%
%ADD27C,1.800*%
%ADD28C,1.600*%
%ADD29C,2.000*%
%ADD30C,2.500*%
%ADD31C,2.700*%
%ADD32C,2.700*%
%ADD33C,2.500*%
%ADD34C,2.800*%
%ADD35C,4.200*%
%ADD36C,2.700*%
%ADD37C,2.800*%
%ADD38C,2.100*%
%ADD39C,1.600*%
%ADD40C,6.600*%
%ADD41C,4.200*%
%ADD42C,4.600*%
%ADD43C,5.600*%
%ADD44C,1.900*%
%ADD45C,2.500*%
%ADD46C,2.250*%
%ADD47C,5.200*%
%LPD*%
X289561Y-120097D02*
G54D10*
D03*
X289611Y-43847D02*
G54D10*
D03*
X208567Y-123497D02*
G54D10*
D03*
X208680Y-174478D02*
G54D10*
D03*
X322867Y-148897D02*
G54D10*
D03*
X322979Y-199878D02*
G54D10*
D03*
X289577Y-348697D02*
G54D10*
D03*
X289627Y-272447D02*
G54D10*
D03*
X410298Y-92083D02*
G54D10*
D03*
X334048Y-92033D02*
G54D10*
D03*
X335257Y-272447D02*
G54D10*
D03*
X335207Y-348697D02*
G54D10*
D03*
X467360Y-120098D02*
G54D10*
D03*
X467410Y-43848D02*
G54D10*
D03*
X364692Y-244613D02*
G54D10*
D03*
X462257Y-247047D02*
G54D10*
D03*
X462207Y-323297D02*
G54D10*
D03*
X538456Y-247047D02*
G54D10*
D03*
X538406Y-323297D02*
G54D10*
D03*
X589256Y-247047D02*
G54D10*
D03*
X589206Y-323297D02*
G54D10*
D03*
X688728Y-181002D02*
G54D10*
D03*
X637748Y-181115D02*
G54D10*
D03*
X617274Y-50279D02*
G54D10*
D03*
X541024Y-50229D02*
G54D10*
D03*
X401932Y-167672D02*
G54D11*
D03*
X386032Y-185247D02*
G54D11*
D03*
X401966Y-202863D02*
G54D11*
D03*
X503532Y-167672D02*
G54D11*
D03*
X487632Y-185247D02*
G54D11*
D03*
X503566Y-202863D02*
G54D11*
D03*
X579732Y-167672D02*
G54D11*
D03*
X563832Y-185247D02*
G54D11*
D03*
X579766Y-202863D02*
G54D11*
D03*
X182832Y-243772D02*
G54D12*
D03*
X233632Y-243772D02*
G54D12*
D03*
X208232Y-269172D02*
G54D12*
D03*
X233632Y-294572D02*
G54D12*
D03*
X182832Y-294572D02*
G54D12*
D03*
X652732Y-243772D02*
G54D12*
D03*
X703532Y-243772D02*
G54D12*
D03*
X678132Y-269172D02*
G54D12*
D03*
X703532Y-294572D02*
G54D12*
D03*
X652732Y-294572D02*
G54D12*
D03*
X354258Y-19463D02*
G54D10*
D03*
X405238Y-19350D02*
G54D10*
D03*
X289577Y-348697D02*
G54D13*
D03*
X165156Y10922D02*
G54D14*
D03*
X415492Y-244613D02*
G54D10*
D03*
X417807Y-272447D02*
G54D10*
D03*
X417757Y-348697D02*
G54D10*
D03*
X246807Y12703D02*
G54D10*
D03*
X158032Y-193072D02*
G54D15*
D03*
X335207Y-348697D02*
G54D13*
D03*
X417757Y-348697D02*
G54D13*
D03*
X462207Y-323297D02*
G54D13*
D03*
X538406Y-323297D02*
G54D13*
D03*
X724988Y10128D02*
G54D14*
D03*
X165156Y-347854D02*
G54D14*
D03*
X724352Y-346266D02*
G54D14*
D03*
X215182Y-66072D02*
G54D15*
D03*
X212006Y-66072D02*
G54D16*
D03*
X683731Y-66072D02*
G54D16*
D03*
X297782Y-655313D02*
G54D17*
D03*
X227932Y-515612D02*
G54D17*
D03*
X161257Y-515613D02*
G54D18*
D03*
X364457Y-655313D02*
G54D18*
D03*
X-47618Y-505513D02*
G54D19*
D03*
X32382Y-505513D02*
G54D20*
D03*
X497382Y-510513D02*
G54D20*
D03*
X577382Y-510513D02*
G54D20*
D03*
X32382Y-505513D02*
G54D19*
D03*
X497382Y-510513D02*
G54D19*
D03*
X577382Y-510513D02*
G54D12*
D03*
X-27618Y-505513D02*
G54D19*
D03*
X12382Y-505513D02*
G54D19*
D03*
X517382Y-510512D02*
G54D19*
D03*
X557382Y-510513D02*
G54D19*
D03*
X-172043Y-621843D02*
G54D12*
D03*
X-172043Y-571043D02*
G54D12*
D03*
X-146643Y-596443D02*
G54D12*
D03*
X-121243Y-571042D02*
G54D12*
D03*
X-121243Y-621843D02*
G54D12*
D03*
X-172043Y-623113D02*
G54D21*
D03*
X-121243Y-623113D02*
G54D13*
D03*
X653457Y-623113D02*
G54D12*
D03*
X653457Y-572313D02*
G54D12*
D03*
X678857Y-597713D02*
G54D12*
D03*
X704257Y-572313D02*
G54D12*
D03*
X704257Y-623113D02*
G54D12*
D03*
X653457Y-623113D02*
G54D21*
D03*
X704257Y-623113D02*
G54D13*
D03*
X526914Y-711750D02*
G54D10*
D03*
X526914Y-641900D02*
G54D10*
D03*
X596764Y-711750D02*
G54D10*
D03*
X596764Y-641900D02*
G54D10*
D03*
X565014Y-641900D02*
G54D10*
D03*
X565014Y-711750D02*
G54D10*
D03*
X596765Y-711750D02*
G54D13*
D03*
X596765Y-641900D02*
G54D13*
D03*
X-63636Y-711750D02*
G54D10*
D03*
X-63636Y-641900D02*
G54D10*
D03*
X6214Y-711750D02*
G54D10*
D03*
X6214Y-641900D02*
G54D10*
D03*
X-25536Y-641900D02*
G54D10*
D03*
X-25536Y-711750D02*
G54D10*
D03*
X6215Y-711750D02*
G54D13*
D03*
X6215Y-641900D02*
G54D13*
D03*
X577382Y-510513D02*
G54D19*
D03*
X50665Y-641900D02*
G54D21*
D03*
X476115Y-641900D02*
G54D21*
D03*
X691657Y-508788D02*
G54D21*
D03*
X-152893Y-686588D02*
G54D21*
D03*
X-172043Y-572313D02*
G54D13*
D03*
X-121243Y-572312D02*
G54D13*
D03*
X653457Y-572313D02*
G54D13*
D03*
X704257Y-572313D02*
G54D13*
D03*
X704257Y-623113D02*
G54D13*
D03*
X165156Y-825691D02*
G54D14*
D03*
X724988Y-826484D02*
G54D14*
D03*
X165156Y-1184466D02*
G54D14*
D03*
X724352Y-1182878D02*
G54D14*
D03*
X678731Y-902684D02*
G54D16*
D03*
X-511868Y-185612D02*
G54D22*
D03*
X-435668Y-185612D02*
G54D22*
D03*
X-435668Y-109412D02*
G54D22*
D03*
X-511868Y-109412D02*
G54D22*
D03*
X-435756Y25611D02*
G54D10*
D03*
X-435756Y-63289D02*
G54D10*
D03*
X-473856Y-63289D02*
G54D10*
D03*
X-505606Y-63289D02*
G54D10*
D03*
X-445400Y-326179D02*
G54D10*
D03*
X-508899Y-230929D02*
G54D10*
D03*
X-477150Y-230929D02*
G54D10*
D03*
X-445400Y-230929D02*
G54D10*
D03*
X-416917Y-218640D02*
G54D10*
D03*
X-508900Y23071D02*
G54D10*
D03*
X-391306Y38311D02*
G54D10*
D03*
X-228878Y-109378D02*
G54D10*
D03*
X-171728Y-109378D02*
G54D10*
D03*
X-143028Y-33178D02*
G54D10*
D03*
X-143028Y23972D02*
G54D10*
D03*
X-204078Y-175002D02*
G54D10*
D03*
X-258030Y-228884D02*
G54D10*
D03*
X-204078Y-175002D02*
G54D13*
D03*
X-76302Y-170950D02*
G54D10*
D03*
X-152552Y-170900D02*
G54D10*
D03*
X-76302Y-170950D02*
G54D13*
D03*
X-197128Y-249078D02*
G54D10*
D03*
X-146328Y-249078D02*
G54D10*
D03*
X-146328Y-249078D02*
G54D10*
D03*
X-117721Y-345184D02*
G54D10*
D03*
X-117833Y-294204D02*
G54D10*
D03*
X-117721Y-345184D02*
G54D10*
D03*
X-143028Y-71278D02*
G54D10*
D03*
X-111278Y-249078D02*
G54D10*
D03*
X-261898Y-109378D02*
G54D10*
D03*
X-250978Y-45878D02*
G54D10*
D03*
X-374674Y-47374D02*
G54D12*
D03*
X-298474Y-47374D02*
G54D12*
D03*
X-374674Y-123574D02*
G54D12*
D03*
X-374674Y-174374D02*
G54D12*
D03*
X-374674Y-225174D02*
G54D12*
D03*
X-298474Y-123574D02*
G54D12*
D03*
X-298474Y-174374D02*
G54D12*
D03*
X-298474Y-225174D02*
G54D12*
D03*
X-298474Y-47374D02*
G54D10*
D03*
X-152223Y-330177D02*
G54D10*
D03*
X-208443Y-327932D02*
G54D10*
D03*
X-208443Y-327932D02*
G54D10*
D03*
X-259243Y-327932D02*
G54D10*
D03*
G54D23*
X-289059Y-375654D02*
X-303201Y-361512D01*
G54D23*
X-343034Y-375654D02*
X-357176Y-361512D01*
X-563268Y-90678D02*
G54D21*
D03*
X-563268Y-116078D02*
G54D21*
D03*
X-290218Y23622D02*
G54D21*
D03*
X-511868Y-109412D02*
G54D24*
D03*
X-511868Y-185612D02*
G54D24*
D03*
X-435668Y-185612D02*
G54D24*
D03*
X-435668Y-109412D02*
G54D24*
D03*
X66610Y-943814D02*
G54D22*
D03*
X-9590Y-943814D02*
G54D22*
D03*
X-9590Y-1020014D02*
G54D22*
D03*
X66610Y-1020014D02*
G54D22*
D03*
X-9502Y-1155037D02*
G54D10*
D03*
X-9502Y-1066137D02*
G54D10*
D03*
X28598Y-1066137D02*
G54D10*
D03*
X60348Y-1066137D02*
G54D10*
D03*
X63642Y-834997D02*
G54D10*
D03*
X142Y-834997D02*
G54D10*
D03*
X63641Y-898497D02*
G54D10*
D03*
X31892Y-898497D02*
G54D10*
D03*
X142Y-898497D02*
G54D10*
D03*
X-28341Y-910786D02*
G54D10*
D03*
X63642Y-1152497D02*
G54D10*
D03*
X111660Y-1111773D02*
G54D21*
D03*
X111660Y-1086373D02*
G54D21*
D03*
X111660Y-845073D02*
G54D21*
D03*
X66610Y-1020014D02*
G54D24*
D03*
X66610Y-943814D02*
G54D24*
D03*
X-9590Y-943814D02*
G54D24*
D03*
X-9590Y-1020014D02*
G54D24*
D03*
X-212598Y-1073395D02*
G54D12*
D03*
X-209424Y-952745D02*
G54D12*
D03*
X-91948Y-1073395D02*
G54D12*
D03*
X-91948Y-952745D02*
G54D12*
D03*
X-152273Y-933282D02*
G54D12*
D03*
X-209424Y-952745D02*
G54D25*
D03*
X-183577Y-889164D02*
G54D12*
D03*
X-81977Y-889164D02*
G54D12*
D03*
X5323Y-1213304D02*
G54D12*
D03*
X5323Y-1238704D02*
G54D12*
D03*
X43423Y-1238704D02*
G54D12*
D03*
X43423Y-1276804D02*
G54D12*
D03*
X-42082Y-1221310D02*
G54D10*
D03*
X-41969Y-1272290D02*
G54D10*
D03*
X-42082Y-1221310D02*
G54D10*
D03*
X-41970Y-1272291D02*
G54D10*
D03*
X-80182Y-1221310D02*
G54D10*
D03*
X-80070Y-1272290D02*
G54D10*
D03*
X-80182Y-1221310D02*
G54D10*
D03*
X-80070Y-1272291D02*
G54D10*
D03*
X43423Y-1213304D02*
G54D12*
D03*
X-145610Y-853354D02*
G54D10*
D03*
X-183577Y-889164D02*
G54D12*
D03*
X-375619Y-554865D02*
G54D26*
D03*
X-375619Y-605665D02*
G54D26*
D03*
X-420069Y-580264D02*
G54D26*
D03*
X-420069Y-624715D02*
G54D26*
D03*
X-420069Y-535815D02*
G54D26*
D03*
X-407369Y-478665D02*
G54D10*
D03*
X-432769Y-478665D02*
G54D10*
D03*
X-468454Y-653290D02*
G54D10*
D03*
X-544704Y-653240D02*
G54D10*
D03*
X-547396Y-687550D02*
G54D10*
D03*
X-471146Y-687600D02*
G54D10*
D03*
X-531462Y-719026D02*
G54D10*
D03*
X-480482Y-718914D02*
G54D10*
D03*
X-502619Y-484927D02*
G54D10*
D03*
X-502619Y-532727D02*
G54D10*
D03*
X-499009Y-786552D02*
G54D10*
D03*
X-499059Y-862802D02*
G54D10*
D03*
X-439119Y-837614D02*
G54D10*
D03*
X-439119Y-789815D02*
G54D10*
D03*
X-526563Y-597771D02*
G54D10*
D03*
X-491463Y-597770D02*
G54D10*
D03*
X-401019Y-723315D02*
G54D10*
D03*
X-401019Y-675514D02*
G54D10*
D03*
X-547341Y-755197D02*
G54D10*
D03*
X-471091Y-755247D02*
G54D10*
D03*
X-300144Y-631620D02*
G54D10*
D03*
X-547396Y-687550D02*
G54D10*
D03*
X-547341Y-755196D02*
G54D10*
D03*
X-439119Y-837614D02*
G54D10*
D03*
X-499059Y-862802D02*
G54D10*
D03*
G36*
X-524669Y-540595D02*
X-524669Y-566595D01*
X-550669Y-566595D01*
X-550669Y-540595D01*
X-524669Y-540595D01*
G37*
X-324819Y-793076D02*
G54D27*
D03*
X-324819Y-818476D02*
G54D28*
D03*
X-375619Y-793077D02*
G54D28*
D03*
X-375619Y-818477D02*
G54D27*
D03*
X-324819Y-894677D02*
G54D28*
D03*
X-375619Y-894677D02*
G54D28*
D03*
X-322787Y-762311D02*
G54D12*
D03*
X-320623Y-992285D02*
G54D21*
D03*
X-375619Y-793077D02*
G54D27*
D03*
X-324819Y-894677D02*
G54D27*
D03*
X-375619Y-894677D02*
G54D27*
D03*
G36*
X303294Y-1503415D02*
X303294Y-1483415D01*
X323294Y-1483415D01*
X323294Y-1503415D01*
X303294Y-1503415D01*
G37*
X313294Y-1468015D02*
G54D29*
D03*
X313294Y-1442615D02*
G54D29*
D03*
X313294Y-1417215D02*
G54D29*
D03*
X237094Y-1417215D02*
G54D29*
D03*
X237094Y-1442615D02*
G54D29*
D03*
X237095Y-1468015D02*
G54D29*
D03*
X237094Y-1493415D02*
G54D29*
D03*
X237094Y-1442615D02*
G54D30*
D03*
X609044Y-1458054D02*
G54D10*
D03*
X609044Y-1432554D02*
G54D10*
D03*
X63950Y-1477805D02*
G54D10*
D03*
X64000Y-1401555D02*
G54D10*
D03*
X-71242Y-1556397D02*
G54D10*
D03*
X-71242Y-1530897D02*
G54D10*
D03*
X471015Y-1494113D02*
G54D10*
D03*
X470964Y-1570364D02*
G54D10*
D03*
X471015Y-1494113D02*
G54D10*
D03*
X532899Y-1512046D02*
G54D10*
D03*
X532899Y-1559846D02*
G54D10*
D03*
X432914Y-1494113D02*
G54D10*
D03*
X432864Y-1570364D02*
G54D10*
D03*
X432915Y-1494113D02*
G54D10*
D03*
X452570Y-1440340D02*
G54D11*
D03*
X468470Y-1422765D02*
G54D11*
D03*
X452535Y-1405149D02*
G54D11*
D03*
X525943Y-1405546D02*
G54D10*
D03*
X526055Y-1456527D02*
G54D10*
D03*
X525943Y-1405547D02*
G54D10*
D03*
X521013Y-1365419D02*
G54D10*
D03*
X444763Y-1365369D02*
G54D10*
D03*
X521013Y-1365419D02*
G54D10*
D03*
X507980Y-1331447D02*
G54D10*
D03*
X457000Y-1331559D02*
G54D10*
D03*
X507980Y-1331446D02*
G54D10*
D03*
X386243Y-1507146D02*
G54D10*
D03*
X386355Y-1558127D02*
G54D10*
D03*
X386243Y-1507147D02*
G54D10*
D03*
X532899Y-1512046D02*
G54D10*
D03*
X521013Y-1365419D02*
G54D10*
D03*
X507980Y-1331447D02*
G54D10*
D03*
X566265Y-1335363D02*
G54D10*
D03*
X566215Y-1411614D02*
G54D10*
D03*
X566266Y-1335363D02*
G54D10*
D03*
X566265Y-1335363D02*
G54D10*
D03*
X386243Y-1507146D02*
G54D10*
D03*
X350205Y-1447090D02*
G54D10*
D03*
X398005Y-1447090D02*
G54D10*
D03*
X364449Y-1344691D02*
G54D10*
D03*
X418331Y-1398644D02*
G54D10*
D03*
X364450Y-1344690D02*
G54D10*
D03*
X364450Y-1344691D02*
G54D10*
D03*
X324388Y-1373590D02*
G54D10*
D03*
X248138Y-1373540D02*
G54D10*
D03*
X271891Y-1329664D02*
G54D10*
D03*
X322872Y-1329552D02*
G54D10*
D03*
X271892Y-1329664D02*
G54D10*
D03*
X324388Y-1373590D02*
G54D10*
D03*
X322872Y-1329552D02*
G54D10*
D03*
X140655Y-1561390D02*
G54D10*
D03*
X188455Y-1561390D02*
G54D10*
D03*
X39055Y-1564565D02*
G54D10*
D03*
X86855Y-1566152D02*
G54D10*
D03*
X242255Y-1561390D02*
G54D10*
D03*
X290055Y-1561390D02*
G54D10*
D03*
X242255Y-1561390D02*
G54D10*
D03*
X347190Y-1500463D02*
G54D10*
D03*
X347140Y-1576714D02*
G54D10*
D03*
X347190Y-1500463D02*
G54D10*
D03*
X184688Y-1487890D02*
G54D10*
D03*
X108438Y-1487840D02*
G54D10*
D03*
X184688Y-1487890D02*
G54D10*
D03*
X107109Y-1444016D02*
G54D10*
D03*
X106997Y-1393036D02*
G54D10*
D03*
X107109Y-1444016D02*
G54D10*
D03*
X106997Y-1393035D02*
G54D10*
D03*
X147370Y-1375140D02*
G54D10*
D03*
X53354Y-1337722D02*
G54D10*
D03*
X101154Y-1337722D02*
G54D10*
D03*
X63950Y-1477805D02*
G54D10*
D03*
X610656Y-1329109D02*
G54D10*
D03*
X53354Y-1337722D02*
G54D12*
D03*
X-39520Y-1454534D02*
G54D12*
D03*
X-71242Y-1530897D02*
G54D12*
D03*
X610656Y-1329109D02*
G54D10*
D03*
X610606Y-1405359D02*
G54D10*
D03*
X610656Y-1329109D02*
G54D10*
D03*
X610656Y-1329109D02*
G54D10*
D03*
X566265Y-1335363D02*
G54D10*
D03*
X507980Y-1331447D02*
G54D10*
D03*
X521013Y-1365419D02*
G54D10*
D03*
X364449Y-1344691D02*
G54D10*
D03*
X324388Y-1373590D02*
G54D10*
D03*
X322872Y-1329552D02*
G54D10*
D03*
X532899Y-1512046D02*
G54D10*
D03*
X147370Y-1375140D02*
G54D10*
D03*
X242255Y-1561390D02*
G54D10*
D03*
X63950Y-1477805D02*
G54D10*
D03*
X685294Y-1458104D02*
G54D10*
D03*
X609044Y-1458054D02*
G54D10*
D03*
X685294Y-1432604D02*
G54D10*
D03*
X609044Y-1432554D02*
G54D10*
D03*
X-1110610Y-741764D02*
G54D10*
D03*
X-1180460Y-741764D02*
G54D10*
D03*
X-1110610Y-671914D02*
G54D10*
D03*
X-1180460Y-671914D02*
G54D10*
D03*
X-1180460Y-703664D02*
G54D10*
D03*
X-1110610Y-703664D02*
G54D10*
D03*
X-1067202Y-750535D02*
G54D31*
D03*
X-1016220Y-750423D02*
G54D31*
D03*
X-888360Y-741764D02*
G54D10*
D03*
X-958210Y-741764D02*
G54D10*
D03*
X-888360Y-671914D02*
G54D10*
D03*
X-958210Y-671914D02*
G54D10*
D03*
X-958210Y-703664D02*
G54D10*
D03*
X-888360Y-703664D02*
G54D10*
D03*
X-1006137Y-706437D02*
G54D10*
D03*
X-1006250Y-655457D02*
G54D10*
D03*
X-1069637Y-706437D02*
G54D10*
D03*
X-1069750Y-655457D02*
G54D10*
D03*
X-888360Y-671914D02*
G54D13*
D03*
X-958210Y-671914D02*
G54D13*
D03*
X-1006250Y-655456D02*
G54D32*
D03*
X-1069750Y-655456D02*
G54D13*
D03*
X-1110610Y-671914D02*
G54D13*
D03*
X-1180460Y-671914D02*
G54D13*
D03*
X-1069637Y-706437D02*
G54D31*
D03*
X-1069750Y-655457D02*
G54D31*
D03*
X-1006250Y-655457D02*
G54D31*
D03*
X-1006137Y-706437D02*
G54D31*
D03*
X-834147Y-637472D02*
G54D12*
D03*
X-713497Y-640646D02*
G54D12*
D03*
X-834147Y-758122D02*
G54D12*
D03*
X-713497Y-758122D02*
G54D12*
D03*
X-694684Y-697797D02*
G54D12*
D03*
X-820640Y-804402D02*
G54D33*
D03*
X-719040Y-804401D02*
G54D33*
D03*
X-713497Y-640646D02*
G54D12*
D03*
X-1249142Y-770210D02*
G54D12*
D03*
X-1369792Y-767036D02*
G54D12*
D03*
X-1249142Y-649560D02*
G54D12*
D03*
X-1369792Y-649560D02*
G54D12*
D03*
X-1388604Y-709885D02*
G54D12*
D03*
X-1369791Y-767036D02*
G54D12*
D03*
X-1369792Y-649560D02*
G54D12*
D03*
X-1366740Y-804402D02*
G54D33*
D03*
X-1265140Y-804401D02*
G54D33*
D03*
X-820640Y-804402D02*
G54D10*
D03*
X-1366740Y-804402D02*
G54D10*
D03*
X-1110610Y-525864D02*
G54D10*
D03*
X-1180460Y-525864D02*
G54D10*
D03*
X-1110610Y-456014D02*
G54D10*
D03*
X-1180460Y-456014D02*
G54D10*
D03*
X-1180460Y-487764D02*
G54D10*
D03*
X-1110610Y-487764D02*
G54D10*
D03*
X-1067202Y-534635D02*
G54D31*
D03*
X-1016220Y-534523D02*
G54D31*
D03*
X-888360Y-525864D02*
G54D10*
D03*
X-958210Y-525864D02*
G54D10*
D03*
X-888360Y-456014D02*
G54D10*
D03*
X-958210Y-456014D02*
G54D10*
D03*
X-958210Y-487764D02*
G54D10*
D03*
X-888360Y-487764D02*
G54D10*
D03*
X-1006137Y-490537D02*
G54D10*
D03*
X-1006250Y-439556D02*
G54D10*
D03*
X-1069637Y-490537D02*
G54D10*
D03*
X-1069750Y-439557D02*
G54D10*
D03*
X-888360Y-456014D02*
G54D13*
D03*
X-958210Y-456014D02*
G54D13*
D03*
X-1006250Y-439556D02*
G54D32*
D03*
X-1069750Y-439556D02*
G54D13*
D03*
X-1110610Y-456014D02*
G54D13*
D03*
X-1180460Y-456014D02*
G54D13*
D03*
X-1069637Y-490537D02*
G54D31*
D03*
X-1069750Y-439557D02*
G54D31*
D03*
X-1006250Y-439556D02*
G54D31*
D03*
X-1006137Y-490537D02*
G54D31*
D03*
X-834147Y-421572D02*
G54D12*
D03*
X-713497Y-424746D02*
G54D12*
D03*
X-834147Y-542222D02*
G54D12*
D03*
X-713497Y-542222D02*
G54D12*
D03*
X-694684Y-481897D02*
G54D12*
D03*
X-820640Y-588502D02*
G54D33*
D03*
X-719040Y-588501D02*
G54D33*
D03*
X-713497Y-424746D02*
G54D12*
D03*
X-1249142Y-554310D02*
G54D12*
D03*
X-1369792Y-551136D02*
G54D12*
D03*
X-1249142Y-433660D02*
G54D12*
D03*
X-1369792Y-433660D02*
G54D12*
D03*
X-1388604Y-493985D02*
G54D12*
D03*
X-1369791Y-551137D02*
G54D12*
D03*
X-1369792Y-433660D02*
G54D12*
D03*
X-1366740Y-588502D02*
G54D33*
D03*
X-1265140Y-588501D02*
G54D33*
D03*
X-820640Y-588502D02*
G54D10*
D03*
X-1366740Y-588502D02*
G54D10*
D03*
X-1110610Y-309964D02*
G54D10*
D03*
X-1180460Y-309964D02*
G54D10*
D03*
X-1110610Y-240114D02*
G54D10*
D03*
X-1180460Y-240114D02*
G54D10*
D03*
X-1180460Y-271864D02*
G54D10*
D03*
X-1110610Y-271864D02*
G54D10*
D03*
X-1067202Y-318735D02*
G54D31*
D03*
X-1016220Y-318623D02*
G54D31*
D03*
X-888360Y-309964D02*
G54D10*
D03*
X-958210Y-309964D02*
G54D10*
D03*
X-888360Y-240114D02*
G54D10*
D03*
X-958210Y-240114D02*
G54D10*
D03*
X-958210Y-271864D02*
G54D10*
D03*
X-888360Y-271864D02*
G54D10*
D03*
X-1006137Y-274637D02*
G54D10*
D03*
X-1006250Y-223656D02*
G54D10*
D03*
X-1069637Y-274637D02*
G54D10*
D03*
X-1069750Y-223656D02*
G54D10*
D03*
X-888360Y-240114D02*
G54D13*
D03*
X-958210Y-240114D02*
G54D13*
D03*
X-1006250Y-223656D02*
G54D32*
D03*
X-1069750Y-223656D02*
G54D13*
D03*
X-1110610Y-240114D02*
G54D13*
D03*
X-1180460Y-240114D02*
G54D13*
D03*
X-1069637Y-274637D02*
G54D31*
D03*
X-1069750Y-223656D02*
G54D31*
D03*
X-1006250Y-223656D02*
G54D31*
D03*
X-1006137Y-274637D02*
G54D31*
D03*
X-834147Y-205672D02*
G54D12*
D03*
X-713497Y-208846D02*
G54D12*
D03*
X-834147Y-326322D02*
G54D12*
D03*
X-713497Y-326322D02*
G54D12*
D03*
X-694684Y-265997D02*
G54D12*
D03*
X-820640Y-372602D02*
G54D33*
D03*
X-719040Y-372602D02*
G54D33*
D03*
X-713497Y-208846D02*
G54D12*
D03*
X-1249142Y-338410D02*
G54D12*
D03*
X-1369792Y-335236D02*
G54D12*
D03*
X-1249142Y-217760D02*
G54D12*
D03*
X-1369792Y-217760D02*
G54D12*
D03*
X-1388604Y-278085D02*
G54D12*
D03*
X-1369791Y-335236D02*
G54D12*
D03*
X-1369792Y-217760D02*
G54D12*
D03*
X-1366740Y-372602D02*
G54D33*
D03*
X-1265140Y-372602D02*
G54D33*
D03*
X-820640Y-372602D02*
G54D10*
D03*
X-1366740Y-372602D02*
G54D10*
D03*
X-1110610Y-94064D02*
G54D10*
D03*
X-1180460Y-94064D02*
G54D10*
D03*
X-1110610Y-24214D02*
G54D10*
D03*
X-1180460Y-24214D02*
G54D10*
D03*
X-1180460Y-55964D02*
G54D10*
D03*
X-1110610Y-55964D02*
G54D10*
D03*
X-1067202Y-102835D02*
G54D31*
D03*
X-1016220Y-102723D02*
G54D31*
D03*
X-888360Y-94064D02*
G54D10*
D03*
X-958210Y-94064D02*
G54D10*
D03*
X-888360Y-24214D02*
G54D10*
D03*
X-958210Y-24214D02*
G54D10*
D03*
X-958210Y-55964D02*
G54D10*
D03*
X-888360Y-55964D02*
G54D10*
D03*
X-1006137Y-58737D02*
G54D10*
D03*
X-1006250Y-7756D02*
G54D10*
D03*
X-1069637Y-58737D02*
G54D10*
D03*
X-1069750Y-7757D02*
G54D10*
D03*
X-888360Y-24214D02*
G54D13*
D03*
X-958210Y-24214D02*
G54D13*
D03*
X-1006250Y-7756D02*
G54D32*
D03*
X-1069750Y-7756D02*
G54D13*
D03*
X-1110610Y-24214D02*
G54D13*
D03*
X-1180460Y-24214D02*
G54D13*
D03*
X-1069637Y-58737D02*
G54D31*
D03*
X-1069750Y-7757D02*
G54D31*
D03*
X-1006250Y-7757D02*
G54D31*
D03*
X-1006137Y-58737D02*
G54D31*
D03*
X-834147Y10228D02*
G54D12*
D03*
X-713497Y7054D02*
G54D12*
D03*
X-834147Y-110422D02*
G54D12*
D03*
X-713497Y-110422D02*
G54D12*
D03*
X-694684Y-50097D02*
G54D12*
D03*
X-820640Y-156702D02*
G54D33*
D03*
X-719040Y-156702D02*
G54D33*
D03*
X-713497Y7054D02*
G54D12*
D03*
X-1249142Y-122510D02*
G54D12*
D03*
X-1369792Y-119336D02*
G54D12*
D03*
X-1249142Y-1860D02*
G54D12*
D03*
X-1369792Y-1860D02*
G54D12*
D03*
X-1388604Y-62185D02*
G54D12*
D03*
X-1369791Y-119336D02*
G54D12*
D03*
X-1369792Y-1860D02*
G54D12*
D03*
X-1366740Y-156702D02*
G54D33*
D03*
X-1265140Y-156702D02*
G54D33*
D03*
X-820640Y-156702D02*
G54D10*
D03*
X-1366740Y-156702D02*
G54D10*
D03*
X-885486Y-833437D02*
G54D31*
D03*
X-885486Y-833437D02*
G54D31*
D03*
X-980736Y-833437D02*
G54D31*
D03*
X-980736Y-833437D02*
G54D31*
D03*
X-1088686Y-833437D02*
G54D31*
D03*
X-1088686Y-833437D02*
G54D31*
D03*
X-1177586Y-833437D02*
G54D31*
D03*
X-1177586Y-833437D02*
G54D31*
D03*
X-885486Y68263D02*
G54D31*
D03*
X-885486Y68263D02*
G54D31*
D03*
X-980736Y68263D02*
G54D31*
D03*
X-980736Y68263D02*
G54D31*
D03*
X-1088686Y68263D02*
G54D31*
D03*
X-1088686Y68263D02*
G54D31*
D03*
X-1177586Y68263D02*
G54D31*
D03*
X-1177586Y68263D02*
G54D31*
D03*
X-1434222Y-378267D02*
G54D21*
D03*
X-640472Y-378267D02*
G54D21*
D03*
X-28520Y-408178D02*
G54D14*
D03*
X-18994Y64896D02*
G54D14*
D03*
X-18995Y64897D02*
G54D14*
D03*
X-568270Y-408178D02*
G54D14*
D03*
X-580970Y61722D02*
G54D14*
D03*
X-1189323Y-1210953D02*
G54D12*
D03*
X-1192497Y-1331603D02*
G54D12*
D03*
X-1309972Y-1210953D02*
G54D12*
D03*
X-1309972Y-1331603D02*
G54D12*
D03*
X-1249648Y-1350416D02*
G54D12*
D03*
X-1317522Y-1109084D02*
G54D12*
D03*
X-1314348Y-988434D02*
G54D12*
D03*
X-1196872Y-1109084D02*
G54D12*
D03*
X-1196873Y-988434D02*
G54D12*
D03*
X-1257198Y-969146D02*
G54D12*
D03*
X-1362602Y-1173660D02*
G54D33*
D03*
X-1362602Y-1275260D02*
G54D33*
D03*
X-1362602Y-1173660D02*
G54D10*
D03*
X-1362602Y-1173660D02*
G54D12*
D03*
X-1366400Y-950464D02*
G54D33*
D03*
X-1366400Y-1052065D02*
G54D33*
D03*
X-1366400Y-950464D02*
G54D10*
D03*
X-1366400Y-950464D02*
G54D12*
D03*
X-1192497Y-1331603D02*
G54D12*
D03*
X-1196873Y-988434D02*
G54D12*
D03*
X-1314348Y-988434D02*
G54D12*
D03*
X-1196873Y-988434D02*
G54D12*
D03*
X-1218112Y-902684D02*
G54D14*
D03*
X-265612Y-902684D02*
G54D14*
D03*
X-1218112Y-1801209D02*
G54D14*
D03*
X-265612Y-1804384D02*
G54D14*
D03*
X-181557Y-1163004D02*
G54D10*
D03*
X-133757Y-1163004D02*
G54D10*
D03*
X-181557Y-1163003D02*
G54D10*
D03*
X714340Y-1575444D02*
G54D21*
D03*
X727039Y-1378594D02*
G54D21*
D03*
X727040Y-1403994D02*
G54D21*
D03*
X727039Y-1765944D02*
G54D21*
D03*
X727040Y-1791344D02*
G54D21*
D03*
X727039Y-1518294D02*
G54D21*
D03*
X727040Y-1543694D02*
G54D21*
D03*
X-299579Y-1205185D02*
G54D34*
D03*
X-296404Y-1300435D02*
G54D34*
D03*
X-296404Y-1408385D02*
G54D34*
D03*
X-296404Y-1500460D02*
G54D34*
D03*
X-726974Y-1660923D02*
G54D35*
D03*
X-982674Y-1661023D02*
G54D35*
D03*
X-881948Y-1629098D02*
G54D36*
D03*
X-856574Y-1629223D02*
G54D36*
D03*
X-831130Y-1629198D02*
G54D36*
D03*
X-633868Y-1562839D02*
G54D10*
D03*
X-634043Y-1511847D02*
G54D10*
D03*
X-931798Y-1498973D02*
G54D37*
D03*
X-981198Y-1563073D02*
G54D37*
D03*
X-943198Y-1563073D02*
G54D37*
D03*
X-969898Y-1498973D02*
G54D37*
D03*
X-1081074Y-1549823D02*
G54D10*
D03*
X-1081198Y-1498906D02*
G54D10*
D03*
X-817548Y-1521248D02*
G54D10*
D03*
X-741298Y-1521298D02*
G54D10*
D03*
X-1083648Y-1617948D02*
G54D10*
D03*
X-1083648Y-1592448D02*
G54D10*
D03*
X-817548Y-1568873D02*
G54D10*
D03*
X-741299Y-1568923D02*
G54D10*
D03*
X-842948Y-1149773D02*
G54D10*
D03*
X-893865Y-1149898D02*
G54D10*
D03*
X-877874Y-1194223D02*
G54D11*
D03*
X-860298Y-1210123D02*
G54D11*
D03*
X-842682Y-1194188D02*
G54D11*
D03*
X-871524Y-1048173D02*
G54D10*
D03*
X-846098Y-1048123D02*
G54D10*
D03*
X-817548Y-1194223D02*
G54D10*
D03*
X-741374Y-1194223D02*
G54D10*
D03*
X-995348Y-1133898D02*
G54D10*
D03*
X-919098Y-1133948D02*
G54D10*
D03*
X-836598Y-1245023D02*
G54D10*
D03*
X-887515Y-1245148D02*
G54D10*
D03*
X-842948Y-1308523D02*
G54D11*
D03*
X-860548Y-1292623D02*
G54D11*
D03*
X-878140Y-1308558D02*
G54D11*
D03*
X-842574Y-1368923D02*
G54D11*
D03*
X-860548Y-1352948D02*
G54D11*
D03*
X-878140Y-1368883D02*
G54D11*
D03*
X-817548Y-1308523D02*
G54D10*
D03*
X-741374Y-1308523D02*
G54D10*
D03*
X-842949Y-1429223D02*
G54D11*
D03*
X-860548Y-1413273D02*
G54D11*
D03*
X-878140Y-1429208D02*
G54D11*
D03*
X-995348Y-1365673D02*
G54D10*
D03*
X-919098Y-1365723D02*
G54D10*
D03*
X-995140Y-1409852D02*
G54D10*
D03*
X-918890Y-1409902D02*
G54D10*
D03*
X-817548Y-1429173D02*
G54D10*
D03*
X-741274Y-1429223D02*
G54D10*
D03*
X-756228Y-1473963D02*
G54D10*
D03*
X-807144Y-1474088D02*
G54D10*
D03*
X-817548Y-1352973D02*
G54D10*
D03*
X-741298Y-1353023D02*
G54D10*
D03*
X-660273Y-1447823D02*
G54D21*
D03*
X-685257Y-1498755D02*
G54D21*
D03*
X-710156Y-1447708D02*
G54D21*
D03*
X-652448Y-1260898D02*
G54D11*
D03*
X-670249Y-1245098D02*
G54D11*
D03*
X-687639Y-1260933D02*
G54D11*
D03*
X-1008048Y-1048173D02*
G54D10*
D03*
X-982474Y-1048223D02*
G54D10*
D03*
X-709598Y-1159298D02*
G54D10*
D03*
X-633348Y-1159348D02*
G54D10*
D03*
X-709598Y-1200573D02*
G54D10*
D03*
X-633348Y-1200623D02*
G54D10*
D03*
X-728648Y-1251373D02*
G54D10*
D03*
X-779565Y-1251498D02*
G54D10*
D03*
X-709598Y-1295823D02*
G54D10*
D03*
X-633348Y-1295873D02*
G54D10*
D03*
X-633448Y-1422848D02*
G54D10*
D03*
X-633561Y-1371868D02*
G54D10*
D03*
X-633399Y-1340273D02*
G54D10*
D03*
X-709674Y-1340223D02*
G54D10*
D03*
X-1058798Y-1181498D02*
G54D10*
D03*
X-1033936Y-1181810D02*
G54D10*
D03*
X-1030274Y-1365673D02*
G54D10*
D03*
X-1081248Y-1365823D02*
G54D10*
D03*
X-995348Y-1321223D02*
G54D10*
D03*
X-919098Y-1321273D02*
G54D10*
D03*
X-931848Y-1441873D02*
G54D10*
D03*
X-982824Y-1442023D02*
G54D10*
D03*
X-1055248Y-1445023D02*
G54D10*
D03*
X-1080548Y-1444723D02*
G54D10*
D03*
X-1030274Y-1235498D02*
G54D10*
D03*
X-1081248Y-1235598D02*
G54D10*
D03*
X-709598Y-1048173D02*
G54D10*
D03*
X-735074Y-1048173D02*
G54D10*
D03*
X-995348Y-1267248D02*
G54D10*
D03*
X-919098Y-1267298D02*
G54D10*
D03*
X-931874Y-1232298D02*
G54D10*
D03*
X-982774Y-1232498D02*
G54D10*
D03*
X-966774Y-1181523D02*
G54D10*
D03*
X-941874Y-1181823D02*
G54D10*
D03*
X-817548Y-1149773D02*
G54D10*
D03*
X-741374Y-1149773D02*
G54D10*
D03*
X-817548Y-1098973D02*
G54D10*
D03*
X-741374Y-1098923D02*
G54D10*
D03*
X-995374Y-1098923D02*
G54D10*
D03*
X-919173Y-1098923D02*
G54D10*
D03*
X-842948Y-1098973D02*
G54D10*
D03*
X-893865Y-1099098D02*
G54D10*
D03*
X-784324Y-1048173D02*
G54D38*
D03*
X-744248Y-1387588D02*
G54D10*
D03*
X-693268Y-1387476D02*
G54D10*
D03*
X-684149Y-1553048D02*
G54D10*
D03*
X-831074Y-1693523D02*
G54D36*
D03*
X-856374Y-1693323D02*
G54D36*
D03*
X-881861Y-1693392D02*
G54D36*
D03*
X-493824Y-1704834D02*
G54D28*
D03*
X-519224Y-1704834D02*
G54D28*
D03*
X-493824Y-1654034D02*
G54D28*
D03*
X-519224Y-1654034D02*
G54D28*
D03*
X-595424Y-1704834D02*
G54D27*
D03*
X-595424Y-1654034D02*
G54D28*
D03*
X-451215Y-1713718D02*
G54D12*
D03*
X-451215Y-1612118D02*
G54D12*
D03*
X-453199Y-1713718D02*
G54D12*
D03*
X-493824Y-1531400D02*
G54D28*
D03*
X-519224Y-1531399D02*
G54D28*
D03*
X-493824Y-1480600D02*
G54D28*
D03*
X-519224Y-1480600D02*
G54D28*
D03*
X-595424Y-1531400D02*
G54D28*
D03*
X-595424Y-1480600D02*
G54D28*
D03*
X-526924Y-1574029D02*
G54D21*
D03*
X-551907Y-1624962D02*
G54D21*
D03*
X-576806Y-1573915D02*
G54D21*
D03*
X-491442Y-1182149D02*
G54D28*
D03*
X-516842Y-1182150D02*
G54D28*
D03*
X-491442Y-1131350D02*
G54D28*
D03*
X-516842Y-1131350D02*
G54D28*
D03*
X-593042Y-1182150D02*
G54D28*
D03*
X-593042Y-1131350D02*
G54D28*
D03*
X-491442Y-1006731D02*
G54D28*
D03*
X-516842Y-1006731D02*
G54D28*
D03*
X-491442Y-955930D02*
G54D28*
D03*
X-516842Y-955931D02*
G54D28*
D03*
X-593042Y-1006730D02*
G54D28*
D03*
X-593042Y-955931D02*
G54D28*
D03*
X-524542Y-1045392D02*
G54D21*
D03*
X-549526Y-1096324D02*
G54D21*
D03*
X-574425Y-1045278D02*
G54D21*
D03*
X-528511Y-1311695D02*
G54D21*
D03*
X-553494Y-1362627D02*
G54D21*
D03*
X-578394Y-1311580D02*
G54D21*
D03*
X-493030Y-1268668D02*
G54D28*
D03*
X-518430Y-1268668D02*
G54D28*
D03*
X-493030Y-1217868D02*
G54D28*
D03*
X-518430Y-1217868D02*
G54D28*
D03*
X-594630Y-1268668D02*
G54D28*
D03*
X-594630Y-1217868D02*
G54D28*
D03*
X-494617Y-1440912D02*
G54D28*
D03*
X-520017Y-1440912D02*
G54D28*
D03*
X-494617Y-1390112D02*
G54D28*
D03*
X-520017Y-1390112D02*
G54D28*
D03*
X-596217Y-1440912D02*
G54D28*
D03*
X-596217Y-1390112D02*
G54D28*
D03*
X-451215Y-1578383D02*
G54D12*
D03*
X-451215Y-1476783D02*
G54D12*
D03*
X-451215Y-1578383D02*
G54D12*
D03*
X-450818Y-1442255D02*
G54D12*
D03*
X-450818Y-1340655D02*
G54D12*
D03*
X-450818Y-1442255D02*
G54D12*
D03*
X-450818Y-1307714D02*
G54D12*
D03*
X-450818Y-1206114D02*
G54D12*
D03*
X-450818Y-1307714D02*
G54D12*
D03*
X-452008Y-1173174D02*
G54D12*
D03*
X-452008Y-1071574D02*
G54D12*
D03*
X-452008Y-1173174D02*
G54D12*
D03*
X-453596Y-1039824D02*
G54D12*
D03*
X-453596Y-938224D02*
G54D12*
D03*
X-453596Y-1039824D02*
G54D12*
D03*
X-403323Y-1174380D02*
G54D21*
D03*
X-640654Y-1702224D02*
G54D21*
D03*
X-595424Y-1654034D02*
G54D27*
D03*
X-519224Y-1704834D02*
G54D27*
D03*
X-493824Y-1704834D02*
G54D27*
D03*
X-519224Y-1654034D02*
G54D27*
D03*
X-493824Y-1654034D02*
G54D27*
D03*
X-595424Y-1531400D02*
G54D27*
D03*
X-595424Y-1480600D02*
G54D27*
D03*
X-519224Y-1531399D02*
G54D27*
D03*
X-493824Y-1531400D02*
G54D27*
D03*
X-493824Y-1480600D02*
G54D27*
D03*
X-519224Y-1480600D02*
G54D27*
D03*
X-520017Y-1440912D02*
G54D27*
D03*
X-494617Y-1440912D02*
G54D27*
D03*
X-494617Y-1390112D02*
G54D27*
D03*
X-520017Y-1390112D02*
G54D27*
D03*
X-596217Y-1440912D02*
G54D27*
D03*
X-596217Y-1390112D02*
G54D27*
D03*
X-594630Y-1268668D02*
G54D27*
D03*
X-518430Y-1268668D02*
G54D27*
D03*
X-594630Y-1217868D02*
G54D27*
D03*
X-518430Y-1217868D02*
G54D27*
D03*
X-493030Y-1217868D02*
G54D27*
D03*
X-493030Y-1268668D02*
G54D27*
D03*
X-593042Y-1182150D02*
G54D27*
D03*
X-593042Y-1131350D02*
G54D27*
D03*
X-516842Y-1182150D02*
G54D27*
D03*
X-491442Y-1182149D02*
G54D27*
D03*
X-491442Y-1131350D02*
G54D27*
D03*
X-516842Y-1131350D02*
G54D27*
D03*
X-593042Y-1006730D02*
G54D27*
D03*
X-593042Y-955931D02*
G54D27*
D03*
X-516842Y-1006731D02*
G54D27*
D03*
X-491442Y-1006731D02*
G54D27*
D03*
X-491442Y-955930D02*
G54D27*
D03*
X-516842Y-955931D02*
G54D27*
D03*
X-528511Y-1311695D02*
G54D21*
D03*
X-524542Y-1045392D02*
G54D21*
D03*
X-495808Y-1898507D02*
G54D28*
D03*
X-521208Y-1898507D02*
G54D28*
D03*
X-495808Y-1847707D02*
G54D28*
D03*
X-521208Y-1847707D02*
G54D28*
D03*
X-597408Y-1898507D02*
G54D27*
D03*
X-597408Y-1847707D02*
G54D28*
D03*
X-597408Y-1847707D02*
G54D27*
D03*
X-521208Y-1898507D02*
G54D27*
D03*
X-495808Y-1898507D02*
G54D27*
D03*
X-521208Y-1847707D02*
G54D27*
D03*
X-495808Y-1847707D02*
G54D27*
D03*
X-634477Y-1802629D02*
G54D21*
D03*
X-659460Y-1853562D02*
G54D21*
D03*
X-684359Y-1802515D02*
G54D21*
D03*
X-459060Y-1789018D02*
G54D12*
D03*
X-459060Y-1890617D02*
G54D12*
D03*
X-457076Y-1789017D02*
G54D12*
D03*
X-413022Y-1787827D02*
G54D12*
D03*
X-413022Y-1889427D02*
G54D12*
D03*
X-411038Y-1787827D02*
G54D12*
D03*
X-495014Y-1796113D02*
G54D28*
D03*
X-520414Y-1796113D02*
G54D28*
D03*
X-495014Y-1745313D02*
G54D28*
D03*
X-520414Y-1745313D02*
G54D28*
D03*
X-596614Y-1796114D02*
G54D27*
D03*
X-596615Y-1745313D02*
G54D28*
D03*
X-596615Y-1745313D02*
G54D27*
D03*
X-520414Y-1796113D02*
G54D27*
D03*
X-495014Y-1796113D02*
G54D27*
D03*
X-520414Y-1745313D02*
G54D27*
D03*
X-495014Y-1745313D02*
G54D27*
D03*
X-729514Y-896191D02*
G54D34*
D03*
X-729514Y-1810591D02*
G54D34*
D03*
X-921879Y-1725885D02*
G54D12*
D03*
X-788529Y-1859235D02*
G54D12*
D03*
X-788529Y-1840185D02*
G54D12*
D03*
X-788529Y-1821135D02*
G54D12*
D03*
X-788529Y-1802085D02*
G54D12*
D03*
X-788529Y-1783035D02*
G54D12*
D03*
X-788529Y-1763985D02*
G54D12*
D03*
X-788529Y-1744935D02*
G54D12*
D03*
X-788529Y-1725885D02*
G54D12*
D03*
X-788529Y-1878285D02*
G54D12*
D03*
X-788529Y-1897335D02*
G54D12*
D03*
X-788529Y-1897335D02*
G54D12*
D03*
X-883779Y-1725885D02*
G54D12*
D03*
X-864729Y-1725885D02*
G54D12*
D03*
X-845679Y-1725885D02*
G54D12*
D03*
X-826629Y-1725885D02*
G54D12*
D03*
X-807579Y-1725885D02*
G54D12*
D03*
X-902829Y-1725885D02*
G54D12*
D03*
X-921879Y-1725885D02*
G54D12*
D03*
X-788529Y-1725885D02*
G54D12*
D03*
X-1123214Y-1029541D02*
G54D12*
D03*
X-393598Y-943984D02*
G54D12*
D03*
X-502550Y-326179D02*
G54D10*
D03*
X-32908Y-1329664D02*
G54D10*
D03*
X-58483Y-1329614D02*
G54D10*
D03*
X6198Y-1365380D02*
G54D10*
D03*
X6148Y-1390954D02*
G54D10*
D03*
X126801Y-1257386D02*
G54D10*
D03*
X101226Y-1257336D02*
G54D10*
D03*
X644739Y-1721232D02*
G54D10*
D03*
X644740Y-1695732D02*
G54D10*
D03*
G36*
X513392Y-1704742D02*
X493392Y-1704742D01*
X493392Y-1684742D01*
X513392Y-1684742D01*
X513392Y-1704742D01*
G37*
X477992Y-1694742D02*
G54D29*
D03*
X452592Y-1694742D02*
G54D29*
D03*
X427192Y-1694742D02*
G54D29*
D03*
X427192Y-1770942D02*
G54D29*
D03*
X452592Y-1770942D02*
G54D29*
D03*
X477992Y-1770942D02*
G54D29*
D03*
X503392Y-1770941D02*
G54D29*
D03*
X452592Y-1770942D02*
G54D30*
D03*
X391190Y-1890244D02*
G54D10*
D03*
X441548Y-1822865D02*
G54D10*
D03*
X467048Y-1822866D02*
G54D10*
D03*
X467048Y-1822865D02*
G54D10*
D03*
X492548Y-1822865D02*
G54D10*
D03*
X595033Y-1802069D02*
G54D10*
D03*
X547233Y-1802068D02*
G54D10*
D03*
X391833Y-1802068D02*
G54D10*
D03*
X344033Y-1802069D02*
G54D10*
D03*
X595033Y-1713169D02*
G54D10*
D03*
X547233Y-1713169D02*
G54D10*
D03*
X604558Y-1649469D02*
G54D10*
D03*
X528308Y-1649419D02*
G54D10*
D03*
X604558Y-1611369D02*
G54D10*
D03*
X528308Y-1611319D02*
G54D10*
D03*
X604558Y-1611369D02*
G54D10*
D03*
X487083Y-1636968D02*
G54D10*
D03*
X439283Y-1636968D02*
G54D10*
D03*
X337595Y-1700469D02*
G54D10*
D03*
X385395Y-1700469D02*
G54D10*
D03*
X373498Y-1635616D02*
G54D10*
D03*
X322517Y-1635728D02*
G54D10*
D03*
X373498Y-1635616D02*
G54D10*
D03*
X242345Y-1700469D02*
G54D10*
D03*
X290145Y-1700469D02*
G54D10*
D03*
X604558Y-1611369D02*
G54D10*
D03*
X714340Y-1600844D02*
G54D21*
D03*
X727040Y-1435744D02*
G54D21*
D03*
X727040Y-1461144D02*
G54D21*
D03*
X720690Y-1238894D02*
G54D21*
D03*
X720690Y-1264294D02*
G54D21*
D03*
X720690Y-1289694D02*
G54D21*
D03*
X168545Y-1746578D02*
G54D10*
D03*
X168595Y-1670328D02*
G54D10*
D03*
X126281Y-1642459D02*
G54D16*
D03*
X126281Y-1680559D02*
G54D16*
D03*
X126281Y-1775809D02*
G54D16*
D03*
X126281Y-1820259D02*
G54D16*
D03*
X-197569Y-1820259D02*
G54D16*
D03*
X-153119Y-1820259D02*
G54D16*
D03*
X100881Y-1642459D02*
G54D16*
D03*
X100881Y-1680559D02*
G54D16*
D03*
X100881Y-1775809D02*
G54D16*
D03*
X100881Y-1820259D02*
G54D16*
D03*
X-197569Y-1794859D02*
G54D16*
D03*
X-153119Y-1794859D02*
G54D16*
D03*
X164518Y-1880554D02*
G54D10*
D03*
X212318Y-1880554D02*
G54D10*
D03*
X164518Y-1880554D02*
G54D10*
D03*
X-171323Y-1524023D02*
G54D21*
D03*
X-196307Y-1574955D02*
G54D21*
D03*
X-221206Y-1523908D02*
G54D21*
D03*
X-222406Y-1479590D02*
G54D10*
D03*
X-222355Y-1454014D02*
G54D10*
D03*
X727040Y-1873894D02*
G54D21*
D03*
X727040Y-1921519D02*
G54D21*
D03*
X727040Y-1848494D02*
G54D21*
D03*
X49534Y69237D02*
G54D12*
D03*
X644898Y69068D02*
G54D12*
D03*
X644898Y-767545D02*
G54D12*
D03*
X233684Y69237D02*
G54D12*
D03*
X132084Y72412D02*
G54D12*
D03*
X42583Y-1884618D02*
G54D10*
D03*
X-5217Y-1884619D02*
G54D10*
D03*
X-53552Y-1869220D02*
G54D10*
D03*
X87634Y72412D02*
G54D12*
D03*
X-620391Y-289538D02*
G54D39*
D03*
X557684Y-1246361D02*
G54D10*
D03*
X532185Y-1246361D02*
G54D10*
D03*
X532185Y-1246361D02*
G54D10*
D03*
X506685Y-1246361D02*
G54D10*
D03*
X404200Y-1267157D02*
G54D10*
D03*
X452000Y-1267158D02*
G54D10*
D03*
X645762Y-1257632D02*
G54D10*
D03*
X597962Y-1257632D02*
G54D10*
D03*
X282540Y-1283344D02*
G54D21*
D03*
X727039Y-1899294D02*
G54D21*
D03*
X-1401468Y-951897D02*
G54D10*
D03*
X-1401518Y-1028147D02*
G54D10*
D03*
X-1401518Y-1028147D02*
G54D13*
D03*
X-1414403Y-905468D02*
G54D10*
D03*
X-1388928Y-905468D02*
G54D10*
D03*
X-553232Y-360152D02*
G54D10*
D03*
X-580219Y-360152D02*
G54D10*
D03*
X-416706Y-253789D02*
G54D10*
D03*
X-416706Y-279189D02*
G54D10*
D03*
X-416706Y-314114D02*
G54D15*
D03*
X-581806Y-326814D02*
G54D15*
D03*
X-16657Y-95038D02*
G54D10*
D03*
X-16657Y-69639D02*
G54D10*
D03*
X5632Y-47022D02*
G54D15*
D03*
X678668Y-380789D02*
G54D10*
D03*
X678668Y-406189D02*
G54D10*
D03*
X646982Y-364522D02*
G54D15*
D03*
X694544Y-755439D02*
G54D10*
D03*
X694544Y-780839D02*
G54D10*
D03*
X723182Y-732822D02*
G54D15*
D03*
X135744Y-926889D02*
G54D10*
D03*
X135744Y-949114D02*
G54D10*
D03*
X138982Y-885222D02*
G54D15*
D03*
X113582Y-961422D02*
G54D15*
D03*
X-249657Y-967696D02*
G54D10*
D03*
X-265373Y-951980D02*
G54D10*
D03*
X-254718Y-993172D02*
G54D15*
D03*
X-286468Y-961422D02*
G54D15*
D03*
X-27849Y-1187159D02*
G54D10*
D03*
X-43564Y-1171444D02*
G54D10*
D03*
X-51518Y-1139222D02*
G54D15*
D03*
X2456Y-1183672D02*
G54D15*
D03*
X-550056Y-320464D02*
G54D15*
D03*
X15094Y-72814D02*
G54D15*
D03*
X-29356Y-136314D02*
G54D15*
D03*
X-7068Y-135922D02*
G54D15*
D03*
X650094Y-396664D02*
G54D15*
D03*
X719944Y-396664D02*
G54D15*
D03*
X716832Y-428022D02*
G54D15*
D03*
X732644Y-758614D02*
G54D15*
D03*
X666032Y-796322D02*
G54D15*
D03*
X-524656Y-383964D02*
G54D15*
D03*
X-499256Y-383964D02*
G54D15*
D03*
X142094Y-853864D02*
G54D15*
D03*
X110344Y-999914D02*
G54D15*
D03*
X-80156Y-1139614D02*
G54D15*
D03*
X34144Y-1184064D02*
G54D15*
D03*
X-302406Y-942764D02*
G54D15*
D03*
X-251606Y-1025314D02*
G54D15*
D03*
X-349968Y-961422D02*
G54D15*
D03*
X-352987Y-938601D02*
G54D15*
D03*
X91294Y-1228514D02*
G54D15*
D03*
X91356Y-1202722D02*
G54D15*
D03*
X-1251184Y-1515780D02*
G54D16*
D03*
X-1336909Y-1515780D02*
G54D16*
D03*
X-1254359Y-1731680D02*
G54D16*
D03*
X-1330559Y-1731680D02*
G54D16*
D03*
X-1228959Y-1515780D02*
G54D16*
D03*
X-1381359Y-1515780D02*
G54D16*
D03*
X-1228959Y-1731680D02*
G54D16*
D03*
X-1283081Y-1628483D02*
G54D10*
D03*
X-1206831Y-1628532D02*
G54D10*
D03*
X-1283081Y-1628482D02*
G54D10*
D03*
X-1413256Y-1628483D02*
G54D10*
D03*
X-1337006Y-1628532D02*
G54D10*
D03*
X-1413256Y-1628482D02*
G54D10*
D03*
X-1179177Y-1730846D02*
G54D12*
D03*
X-1179177Y-1832446D02*
G54D12*
D03*
X-1381359Y-1731680D02*
G54D12*
D03*
X-1381359Y-1833280D02*
G54D12*
D03*
X-1141286Y-1763897D02*
G54D10*
D03*
X-1141174Y-1814878D02*
G54D10*
D03*
X-1141286Y-1763897D02*
G54D10*
D03*
X-1420686Y-1763897D02*
G54D10*
D03*
X-1420574Y-1814878D02*
G54D10*
D03*
X-1420686Y-1763898D02*
G54D10*
D03*
X-1141286Y-1763897D02*
G54D10*
D03*
X-1396969Y-1862123D02*
G54D21*
D03*
X-1372070Y-1913170D02*
G54D21*
D03*
X-1237803Y-1913055D02*
G54D21*
D03*
X-1212819Y-1862123D02*
G54D21*
D03*
X-1187920Y-1913170D02*
G54D21*
D03*
X-1280986Y-1846448D02*
G54D10*
D03*
X-1280874Y-1897428D02*
G54D10*
D03*
X-1280986Y-1846448D02*
G54D10*
D03*
X-1280986Y-1846448D02*
G54D10*
D03*
X-1319086Y-1846448D02*
G54D10*
D03*
X-1318974Y-1897428D02*
G54D10*
D03*
X-1319086Y-1846448D02*
G54D10*
D03*
X-1319086Y-1846448D02*
G54D10*
D03*
X-1283031Y-1939683D02*
G54D10*
D03*
X-1333831Y-1939683D02*
G54D10*
D03*
X-1400409Y-1515780D02*
G54D16*
D03*
X-1209909Y-1515780D02*
G54D16*
D03*
X-1415603Y-1913055D02*
G54D21*
D03*
X-1083648Y-1592448D02*
G54D10*
D03*
X-1442423Y-1493329D02*
G54D10*
D03*
X-1442424Y-1467829D02*
G54D10*
D03*
X-1135912Y-1214510D02*
G54D12*
D03*
X-450114Y-2213816D02*
G54D12*
D03*
X7086Y-2213816D02*
G54D40*
D03*
X-639840Y193616D02*
G54D12*
D03*
X-760490Y196789D02*
G54D12*
D03*
X-639840Y314266D02*
G54D12*
D03*
X-760490Y314266D02*
G54D12*
D03*
X-779302Y253940D02*
G54D12*
D03*
X-760490Y196789D02*
G54D12*
D03*
X-833918Y312147D02*
G54D33*
D03*
X-833918Y210547D02*
G54D10*
D03*
X-760490Y196789D02*
G54D12*
D03*
X-335814Y196009D02*
G54D12*
D03*
X-456464Y199183D02*
G54D12*
D03*
X-335814Y316659D02*
G54D12*
D03*
X-456464Y316659D02*
G54D12*
D03*
X-475276Y256334D02*
G54D12*
D03*
X-456464Y199182D02*
G54D12*
D03*
X-529892Y314541D02*
G54D33*
D03*
X-529892Y212941D02*
G54D10*
D03*
X-456464Y199183D02*
G54D12*
D03*
X-1347466Y148612D02*
G54D12*
D03*
X-1418118Y248647D02*
G54D24*
D03*
X-919092Y127844D02*
G54D14*
D03*
X-1300092Y79425D02*
G54D14*
D03*
X-1311204Y-852438D02*
G54D14*
D03*
X-1125805Y-849394D02*
G54D12*
D03*
X-1119281Y94601D02*
G54D12*
D03*
X-970483Y104507D02*
G54D12*
D03*
X-1125216Y-2181838D02*
G54D12*
D03*
X-1093466Y-2181838D02*
G54D12*
D03*
X-1061716Y-2181838D02*
G54D12*
D03*
X-1124280Y-2214138D02*
G54D10*
D03*
X-1048030Y-2214188D02*
G54D10*
D03*
X-1038368Y-2116711D02*
G54D12*
D03*
X-1139968Y-2116711D02*
G54D12*
D03*
X-1000268Y-2250061D02*
G54D12*
D03*
X-1000268Y-2148461D02*
G54D12*
D03*
X-1030827Y-2276232D02*
G54D10*
D03*
X-1081808Y-2276345D02*
G54D10*
D03*
X-1177076Y-2264944D02*
G54D21*
D03*
X-1123395Y-2246596D02*
G54D21*
D03*
X-1141884Y-2300297D02*
G54D21*
D03*
X-1004566Y-2105638D02*
G54D12*
D03*
X-1081808Y-2276345D02*
G54D21*
D03*
X-1134531Y-2046172D02*
G54D12*
D03*
X-1131357Y-1925522D02*
G54D12*
D03*
X-1013881Y-2046171D02*
G54D12*
D03*
X-1013881Y-1925522D02*
G54D12*
D03*
X-1074206Y-1906709D02*
G54D12*
D03*
X-1131358Y-1925522D02*
G54D12*
D03*
X-1013881Y-1925522D02*
G54D12*
D03*
X-1177718Y-2060752D02*
G54D33*
D03*
X-1177718Y-1959153D02*
G54D33*
D03*
X180160Y-2402256D02*
G54D10*
D03*
X103860Y-2402257D02*
G54D10*
D03*
X142060Y-2402256D02*
G54D10*
D03*
X-450114Y-2213816D02*
G54D40*
D03*
X738960Y-2402256D02*
G54D10*
D03*
X662660Y-2402257D02*
G54D10*
D03*
X700860Y-2402256D02*
G54D10*
D03*
X-210519Y-669165D02*
G54D10*
D03*
X-267082Y-185508D02*
G54D10*
D03*
X-247464Y-165890D02*
G54D10*
D03*
X-210519Y-478665D02*
G54D10*
D03*
X-286719Y-523115D02*
G54D10*
D03*
X-586684Y-731393D02*
G54D10*
D03*
X-561284Y-909193D02*
G54D10*
D03*
X-1134256Y-1577764D02*
G54D15*
D03*
X-1134256Y-1552364D02*
G54D15*
D03*
X-1073532Y-1036408D02*
G54D10*
D03*
X-1055501Y-1018376D02*
G54D10*
D03*
X-1045356Y-987214D02*
G54D15*
D03*
X-1019956Y-987214D02*
G54D15*
D03*
X-728131Y-2262072D02*
G54D12*
D03*
X-724957Y-2141422D02*
G54D12*
D03*
X-607481Y-2262071D02*
G54D12*
D03*
X-607481Y-2141422D02*
G54D12*
D03*
X-667806Y-2122609D02*
G54D12*
D03*
X-724958Y-2141422D02*
G54D12*
D03*
X-607481Y-2141422D02*
G54D12*
D03*
X-625591Y-2073733D02*
G54D33*
D03*
X-727191Y-2073733D02*
G54D33*
D03*
X-1245389Y-2187617D02*
G54D10*
D03*
X-1245389Y-2213117D02*
G54D10*
D03*
X-1437962Y-1296388D02*
G54D41*
D03*
X-167187Y-1966309D02*
G54D42*
D03*
G36*
X-194769Y-1862109D02*
X-194769Y-1918109D01*
X-225769Y-1918109D01*
X-225769Y-1862109D01*
X-194769Y-1862109D01*
G37*
G36*
X-194769Y-2014509D02*
X-194769Y-2070509D01*
X-225769Y-2070509D01*
X-225769Y-2014509D01*
X-194769Y-2014509D01*
G37*
G36*
X-251919Y-1893859D02*
X-251919Y-1949859D01*
X-282919Y-1949859D01*
X-282919Y-1893859D01*
X-251919Y-1893859D01*
G37*
G36*
X-251919Y-1982759D02*
X-251919Y-2038759D01*
X-282919Y-2038759D01*
X-282919Y-1982759D01*
X-251919Y-1982759D01*
G37*
G36*
X-353519Y-1887509D02*
X-353519Y-1943509D01*
X-384519Y-1943509D01*
X-384519Y-1887509D01*
X-353519Y-1887509D01*
G37*
G36*
X-353519Y-1982759D02*
X-353519Y-2038759D01*
X-384519Y-2038759D01*
X-384519Y-1982759D01*
X-353519Y-1982759D01*
G37*
G36*
X-251919Y-1855759D02*
X-251919Y-1911759D01*
X-282919Y-1911759D01*
X-282919Y-1855759D01*
X-251919Y-1855759D01*
G37*
G36*
X-251919Y-2027209D02*
X-251919Y-2083209D01*
X-282919Y-2083209D01*
X-282919Y-2027209D01*
X-251919Y-2027209D01*
G37*
G36*
X-353519Y-1938309D02*
X-353519Y-1994309D01*
X-384519Y-1994309D01*
X-384519Y-1938309D01*
X-353519Y-1938309D01*
G37*
G36*
X-194769Y-1843059D02*
X-194769Y-1899059D01*
X-225769Y-1899059D01*
X-225769Y-1843059D01*
X-194769Y-1843059D01*
G37*
G36*
X-194769Y-2039909D02*
X-194769Y-2095909D01*
X-225769Y-2095909D01*
X-225769Y-2039909D01*
X-194769Y-2039909D01*
G37*
X-421187Y-1969484D02*
G54D42*
D03*
G36*
X-476745Y-1930686D02*
X-450745Y-1930686D01*
X-450745Y-1956686D01*
X-476745Y-1956686D01*
X-476745Y-1930686D01*
G37*
G36*
X-476745Y-1981486D02*
X-450745Y-1981486D01*
X-450745Y-2007486D01*
X-476745Y-2007486D01*
X-476745Y-1981486D01*
G37*
G36*
X-137020Y-1991011D02*
X-111020Y-1991011D01*
X-111020Y-2017011D01*
X-137020Y-2017011D01*
X-137020Y-1991011D01*
G37*
X-1551487Y535591D02*
G54D14*
D03*
X-856162Y387953D02*
G54D14*
D03*
X623388Y-2009172D02*
G54D14*
D03*
X-1541962Y-2415572D02*
G54D14*
D03*
X-754562Y-2377472D02*
G54D14*
D03*
X-924413Y291493D02*
G54D12*
D03*
X-924413Y259743D02*
G54D12*
D03*
X-924413Y227993D02*
G54D12*
D03*
X-1016263Y195388D02*
G54D10*
D03*
X-968463Y195388D02*
G54D10*
D03*
X-1013088Y322388D02*
G54D10*
D03*
X-965288Y322388D02*
G54D10*
D03*
X-1089513Y285143D02*
G54D12*
D03*
X-1089513Y253393D02*
G54D12*
D03*
X-1089513Y221643D02*
G54D12*
D03*
X-1181363Y192213D02*
G54D10*
D03*
X-1133563Y192213D02*
G54D10*
D03*
X-1203588Y300162D02*
G54D10*
D03*
X-1155788Y300163D02*
G54D10*
D03*
X-1292713Y-2146907D02*
G54D12*
D03*
X-1292713Y-2178657D02*
G54D12*
D03*
X-1292713Y-2210407D02*
G54D12*
D03*
X-1384563Y-2243012D02*
G54D10*
D03*
X-1336763Y-2243012D02*
G54D10*
D03*
X-1381388Y-2116012D02*
G54D10*
D03*
X-1333588Y-2116012D02*
G54D10*
D03*
X-1177718Y-2060752D02*
G54D12*
D03*
X-625591Y-2073733D02*
G54D12*
D03*
X-1239306Y-2033709D02*
G54D12*
D03*
X-267418Y-135922D02*
G54D15*
D03*
X-277006Y-155364D02*
G54D15*
D03*
X-250978Y-45878D02*
G54D10*
D03*
X-232947Y-27847D02*
G54D10*
D03*
X-254718Y-2572D02*
G54D15*
D03*
X-273831Y-18839D02*
G54D15*
D03*
X-1363048Y-2037048D02*
G54D10*
D03*
X-1363049Y-2011548D02*
G54D10*
D03*
X-1445598Y-2303748D02*
G54D10*
D03*
X-1445599Y-2278248D02*
G54D10*
D03*
X-1360968Y331197D02*
G54D24*
D03*
X-1472464Y-2007441D02*
G54D12*
D03*
X-1439750Y-1344700D02*
G54D41*
D03*
X-1278552Y443659D02*
G54D12*
D03*
X-1227752Y443659D02*
G54D12*
D03*
X-1176952Y443659D02*
G54D12*
D03*
X-1126152Y443659D02*
G54D12*
D03*
X-1430952Y443659D02*
G54D12*
D03*
X-1380152Y443659D02*
G54D12*
D03*
X-1006250Y-223656D02*
G54D31*
D03*
X-1069750Y-439557D02*
G54D31*
D03*
X-1006250Y-439556D02*
G54D31*
D03*
X-1069750Y-655457D02*
G54D31*
D03*
X-1006250Y-655457D02*
G54D31*
D03*
X-393687Y-250614D02*
G54D15*
D03*
X599947Y-1051860D02*
G54D10*
D03*
X599897Y-1128110D02*
G54D10*
D03*
X680940Y-1048460D02*
G54D10*
D03*
X680828Y-997480D02*
G54D10*
D03*
X566641Y-1023060D02*
G54D10*
D03*
X566528Y-972080D02*
G54D10*
D03*
X599931Y-823260D02*
G54D10*
D03*
X599881Y-899510D02*
G54D10*
D03*
X479210Y-1079874D02*
G54D10*
D03*
X555460Y-1079924D02*
G54D10*
D03*
X554251Y-899510D02*
G54D10*
D03*
X554301Y-823260D02*
G54D10*
D03*
X422148Y-1051860D02*
G54D10*
D03*
X422098Y-1128109D02*
G54D10*
D03*
X524816Y-927344D02*
G54D10*
D03*
X427251Y-924910D02*
G54D10*
D03*
X427301Y-848660D02*
G54D10*
D03*
X351051Y-924910D02*
G54D10*
D03*
X351101Y-848660D02*
G54D10*
D03*
X300251Y-924910D02*
G54D10*
D03*
X300301Y-848660D02*
G54D10*
D03*
X200780Y-990954D02*
G54D10*
D03*
X251760Y-990842D02*
G54D10*
D03*
X272234Y-1121678D02*
G54D10*
D03*
X348484Y-1121728D02*
G54D10*
D03*
X487576Y-1004286D02*
G54D11*
D03*
X503476Y-986710D02*
G54D11*
D03*
X487542Y-969094D02*
G54D11*
D03*
X385976Y-1004285D02*
G54D11*
D03*
X401876Y-986710D02*
G54D11*
D03*
X385941Y-969094D02*
G54D11*
D03*
X309776Y-1004285D02*
G54D11*
D03*
X325676Y-986710D02*
G54D11*
D03*
X309741Y-969094D02*
G54D11*
D03*
X705088Y-927392D02*
G54D12*
D03*
X654288Y-927392D02*
G54D12*
D03*
X679688Y-901992D02*
G54D12*
D03*
X654288Y-876592D02*
G54D12*
D03*
X705088Y-876592D02*
G54D12*
D03*
X236776Y-928185D02*
G54D12*
D03*
X185976Y-928185D02*
G54D12*
D03*
X211376Y-902785D02*
G54D12*
D03*
X185976Y-877385D02*
G54D12*
D03*
X236776Y-877386D02*
G54D12*
D03*
X535250Y-1152494D02*
G54D10*
D03*
X484270Y-1152607D02*
G54D10*
D03*
X599931Y-823260D02*
G54D13*
D03*
X724352Y-1182878D02*
G54D14*
D03*
X474016Y-927344D02*
G54D10*
D03*
X471701Y-899510D02*
G54D10*
D03*
X471751Y-823260D02*
G54D10*
D03*
X731476Y-978885D02*
G54D15*
D03*
X554301Y-823260D02*
G54D13*
D03*
X471751Y-823260D02*
G54D13*
D03*
X427301Y-848660D02*
G54D13*
D03*
X351101Y-848660D02*
G54D13*
D03*
X164520Y-1182086D02*
G54D14*
D03*
X724352Y-824104D02*
G54D14*
D03*
X165155Y-825691D02*
G54D14*
D03*
X644898Y-767544D02*
G54D10*
D03*
X173876Y-968485D02*
G54D15*
D03*
X678132Y-1105784D02*
G54D10*
D03*
X208232Y-1105784D02*
G54D10*
D03*
X244610Y-1241025D02*
G54D10*
D03*
X289560Y-120096D02*
G54D10*
D03*
X289610Y-43846D02*
G54D10*
D03*
X208567Y-123497D02*
G54D10*
D03*
X208679Y-174478D02*
G54D10*
D03*
X322866Y-148896D02*
G54D10*
D03*
X322978Y-199877D02*
G54D10*
D03*
X289576Y-348696D02*
G54D10*
D03*
X289626Y-272446D02*
G54D10*
D03*
X410297Y-92082D02*
G54D10*
D03*
X334047Y-92032D02*
G54D10*
D03*
X335256Y-272446D02*
G54D10*
D03*
X335206Y-348696D02*
G54D10*
D03*
X467360Y-120098D02*
G54D10*
D03*
X467409Y-43848D02*
G54D10*
D03*
X364691Y-244613D02*
G54D10*
D03*
X462256Y-247046D02*
G54D10*
D03*
X462206Y-323296D02*
G54D10*
D03*
X538456Y-247046D02*
G54D10*
D03*
X538406Y-323296D02*
G54D10*
D03*
X589256Y-247046D02*
G54D10*
D03*
X589206Y-323296D02*
G54D10*
D03*
X688728Y-181002D02*
G54D10*
D03*
X637747Y-181114D02*
G54D10*
D03*
X617272Y-50278D02*
G54D10*
D03*
X541023Y-50228D02*
G54D10*
D03*
X401931Y-167671D02*
G54D11*
D03*
X386031Y-185246D02*
G54D11*
D03*
X401965Y-202862D02*
G54D11*
D03*
X503531Y-167672D02*
G54D11*
D03*
X487631Y-185246D02*
G54D11*
D03*
X503566Y-202862D02*
G54D11*
D03*
X579731Y-167672D02*
G54D11*
D03*
X563831Y-185246D02*
G54D11*
D03*
X579766Y-202862D02*
G54D11*
D03*
X182831Y-243771D02*
G54D12*
D03*
X233631Y-243772D02*
G54D12*
D03*
X208231Y-269171D02*
G54D12*
D03*
X233631Y-294572D02*
G54D12*
D03*
X182831Y-294572D02*
G54D12*
D03*
X652731Y-243772D02*
G54D12*
D03*
X703531Y-243772D02*
G54D12*
D03*
X678130Y-269172D02*
G54D12*
D03*
X703530Y-294572D02*
G54D12*
D03*
X652731Y-294572D02*
G54D12*
D03*
X354257Y-19462D02*
G54D10*
D03*
X405237Y-19350D02*
G54D10*
D03*
X289576Y-348696D02*
G54D13*
D03*
X165155Y10922D02*
G54D14*
D03*
X415491Y-244613D02*
G54D10*
D03*
X417806Y-272446D02*
G54D10*
D03*
X417756Y-348696D02*
G54D10*
D03*
X246806Y12704D02*
G54D10*
D03*
X158031Y-193071D02*
G54D15*
D03*
X335206Y-348696D02*
G54D13*
D03*
X417756Y-348696D02*
G54D13*
D03*
X462206Y-323296D02*
G54D13*
D03*
X538406Y-323296D02*
G54D13*
D03*
X724987Y10128D02*
G54D14*
D03*
X165155Y-347853D02*
G54D43*
D03*
X724352Y-346266D02*
G54D14*
D03*
X715631Y-203471D02*
G54D15*
D03*
X-1313125Y-2332953D02*
G54D12*
D03*
X-1242481Y-2334540D02*
G54D12*
D03*
X145550Y-697103D02*
G54D14*
D03*
X-299419Y-859665D02*
G54D44*
D03*
X-274019Y-859665D02*
G54D44*
D03*
X652921Y-1135335D02*
G54D12*
D03*
X2360Y-1983156D02*
G54D10*
D03*
X-875564Y-2236041D02*
G54D12*
D03*
X-939064Y-2121741D02*
G54D12*
D03*
X-1437962Y-1601188D02*
G54D41*
D03*
X-1436575Y-1554250D02*
G54D41*
D03*
X-939063Y-2147241D02*
G54D10*
D03*
X-939064Y-2121741D02*
G54D10*
D03*
X-896730Y-2146219D02*
G54D10*
D03*
X-896731Y-2120719D02*
G54D10*
D03*
X-875563Y-2261541D02*
G54D10*
D03*
X-875564Y-2236041D02*
G54D10*
D03*
X-1446964Y-2007440D02*
G54D10*
D03*
X-1472464Y-2007441D02*
G54D10*
D03*
X-918704Y-1960835D02*
G54D12*
D03*
X-788529Y-1941785D02*
G54D12*
D03*
X-788529Y-1960835D02*
G54D12*
D03*
X-883779Y-1960835D02*
G54D12*
D03*
X-864729Y-1960835D02*
G54D12*
D03*
X-845679Y-1960835D02*
G54D12*
D03*
X-826629Y-1960835D02*
G54D12*
D03*
X-807579Y-1960835D02*
G54D12*
D03*
X-902829Y-1960835D02*
G54D12*
D03*
X-788529Y-1960835D02*
G54D12*
D03*
X-953629Y-1938610D02*
G54D12*
D03*
X-953629Y-1919560D02*
G54D12*
D03*
X-953629Y-1960835D02*
G54D12*
D03*
X-953629Y-1783035D02*
G54D12*
D03*
X-953629Y-1763985D02*
G54D12*
D03*
X-953629Y-1744935D02*
G54D12*
D03*
X-953629Y-1725885D02*
G54D12*
D03*
X-953629Y-1840185D02*
G54D12*
D03*
X-953629Y-1821135D02*
G54D12*
D03*
X-953629Y-1802085D02*
G54D12*
D03*
X-953629Y-1783035D02*
G54D12*
D03*
X-953629Y-1897335D02*
G54D12*
D03*
X-953629Y-1878285D02*
G54D12*
D03*
X-953629Y-1859235D02*
G54D12*
D03*
X-953629Y-1840185D02*
G54D12*
D03*
X-933474Y-1724498D02*
G54D12*
D03*
X-788529Y-1919560D02*
G54D12*
D03*
X-934579Y-1960835D02*
G54D12*
D03*
X-1142014Y-929909D02*
G54D10*
D03*
X-1142014Y-953424D02*
G54D10*
D03*
X-1116614Y-929909D02*
G54D10*
D03*
X-1116614Y-953424D02*
G54D10*
D03*
X-1421074Y-1435221D02*
G54D10*
D03*
X561940Y-1886594D02*
G54D21*
D03*
X653941Y-1949532D02*
G54D10*
D03*
X679516Y-1949583D02*
G54D10*
D03*
X402627Y-1984989D02*
G54D11*
D03*
X385052Y-1969089D02*
G54D11*
D03*
X367436Y-1985024D02*
G54D11*
D03*
X333340Y-1924694D02*
G54D21*
D03*
X-298384Y-1060583D02*
G54D10*
D03*
X247716Y-1987683D02*
G54D10*
D03*
X-298384Y-1098683D02*
G54D10*
D03*
X133416Y-1987683D02*
G54D10*
D03*
X-1149458Y-2381332D02*
G54D10*
D03*
X-1123884Y-2381383D02*
G54D10*
D03*
X-1123884Y-2381383D02*
G54D10*
D03*
X-1098310Y-2381434D02*
G54D10*
D03*
X324552Y-1971998D02*
G54D21*
D03*
X750036Y-1956641D02*
G54D12*
D03*
X750037Y-1982141D02*
G54D10*
D03*
X750036Y-1956641D02*
G54D10*
D03*
X699588Y-2212372D02*
G54D14*
D03*
X-1298202Y361168D02*
G54D12*
D03*
X-1513502Y-2089991D02*
G54D12*
D03*
X-1513502Y-2140791D02*
G54D12*
D03*
X-1513502Y-2191591D02*
G54D12*
D03*
X-1513502Y-2242391D02*
G54D12*
D03*
X-1098310Y-2381434D02*
G54D10*
D03*
X-1072735Y-2381484D02*
G54D10*
D03*
X-1213906Y-2008309D02*
G54D12*
D03*
X-1239306Y-2109909D02*
G54D12*
D03*
X-1188506Y-2198809D02*
G54D12*
D03*
X-1215818Y-2276652D02*
G54D12*
D03*
X-1072735Y-2381484D02*
G54D10*
D03*
X-1047160Y-2381534D02*
G54D10*
D03*
X-1046148Y-2413423D02*
G54D10*
D03*
X-974652Y-2413482D02*
G54D10*
D03*
X496036Y-2426541D02*
G54D10*
D03*
X496036Y-2426541D02*
G54D10*
D03*
G36*
X-194769Y-1995459D02*
X-194769Y-2051459D01*
X-225769Y-2051459D01*
X-225769Y-1995459D01*
X-194769Y-1995459D01*
G37*
X-209131Y337120D02*
G54D11*
D03*
X-225031Y319545D02*
G54D11*
D03*
X-209096Y301929D02*
G54D11*
D03*
X130165Y153913D02*
G54D10*
D03*
X130215Y230162D02*
G54D10*
D03*
X-405833Y376290D02*
G54D10*
D03*
X-329583Y376240D02*
G54D10*
D03*
X34980Y-592328D02*
G54D14*
D03*
X-520634Y-920883D02*
G54D10*
D03*
X-266634Y-450983D02*
G54D10*
D03*
X114366Y-793883D02*
G54D10*
D03*
X787466Y-787533D02*
G54D10*
D03*
X732528Y-783780D02*
G54D10*
D03*
X388041Y-794893D02*
G54D10*
D03*
X781116Y-1917833D02*
G54D10*
D03*
X-590484Y-1974983D02*
G54D10*
D03*
X-544218Y-820928D02*
G54D21*
D03*
X781116Y-1943233D02*
G54D10*
D03*
X-61063Y271873D02*
G54D45*
D03*
X-35663Y271873D02*
G54D45*
D03*
X-10263Y271873D02*
G54D45*
D03*
X15137Y271873D02*
G54D45*
D03*
X40537Y271873D02*
G54D45*
D03*
X65937Y271873D02*
G54D45*
D03*
X91337Y271873D02*
G54D45*
D03*
X116737Y271873D02*
G54D45*
D03*
X142137Y271873D02*
G54D45*
D03*
X167537Y271873D02*
G54D45*
D03*
X192937Y271873D02*
G54D45*
D03*
X218337Y271873D02*
G54D45*
D03*
X243737Y271873D02*
G54D45*
D03*
X269137Y271873D02*
G54D45*
D03*
X294537Y271873D02*
G54D45*
D03*
X-61063Y424273D02*
G54D45*
D03*
X-35663Y424273D02*
G54D45*
D03*
X-10263Y424273D02*
G54D45*
D03*
X15137Y424273D02*
G54D45*
D03*
X40537Y424273D02*
G54D45*
D03*
X65937Y424273D02*
G54D45*
D03*
X91337Y424273D02*
G54D45*
D03*
X116737Y424273D02*
G54D45*
D03*
X142137Y424273D02*
G54D45*
D03*
X167537Y424273D02*
G54D45*
D03*
X192937Y424273D02*
G54D45*
D03*
X218337Y424273D02*
G54D45*
D03*
X243737Y424273D02*
G54D45*
D03*
X269137Y424273D02*
G54D45*
D03*
X294537Y424273D02*
G54D45*
D03*
X-86304Y424432D02*
G54D46*
D03*
X-86304Y272032D02*
G54D46*
D03*
X-60047Y373219D02*
G54D45*
D03*
X-85447Y373219D02*
G54D45*
D03*
X-60047Y347819D02*
G54D45*
D03*
X-85447Y347819D02*
G54D45*
D03*
X-60047Y322419D02*
G54D45*
D03*
X-85447Y322419D02*
G54D45*
D03*
X-620790Y260289D02*
G54D12*
D03*
X-481969Y414306D02*
G54D10*
D03*
X-558219Y414357D02*
G54D10*
D03*
X-272395Y318579D02*
G54D10*
D03*
X-272445Y242329D02*
G54D10*
D03*
X-234295Y226504D02*
G54D10*
D03*
X-234346Y150254D02*
G54D10*
D03*
X-602514Y132509D02*
G54D12*
D03*
X-24664Y392859D02*
G54D12*
D03*
X-247083Y465190D02*
G54D10*
D03*
X-170833Y465140D02*
G54D10*
D03*
X-309694Y425446D02*
G54D10*
D03*
X-309694Y473246D02*
G54D10*
D03*
X-157284Y415864D02*
G54D10*
D03*
X-208265Y415752D02*
G54D10*
D03*
X82969Y210120D02*
G54D11*
D03*
X67069Y192545D02*
G54D11*
D03*
X83004Y174929D02*
G54D11*
D03*
X-47625Y166686D02*
G54D10*
D03*
X28625Y166636D02*
G54D10*
D03*
X-149225Y192086D02*
G54D10*
D03*
X-72975Y192036D02*
G54D10*
D03*
X333375Y90486D02*
G54D10*
D03*
X786020Y-2025569D02*
G54D10*
D03*
X786019Y-2000069D02*
G54D10*
D03*
X769438Y518678D02*
G54D14*
D03*
X-1548312Y-999522D02*
G54D14*
D03*
X-1387976Y362809D02*
G54D12*
D03*
X-1410427Y340358D02*
G54D12*
D03*
X-1340351Y397734D02*
G54D12*
D03*
X-1353051Y365984D02*
G54D12*
D03*
X-352086Y-741362D02*
G54D31*
D03*
X-313986Y-700087D02*
G54D31*
D03*
X-440906Y406970D02*
G54D11*
D03*
X-456806Y389395D02*
G54D11*
D03*
X-440871Y371779D02*
G54D11*
D03*
X-1298202Y284968D02*
G54D12*
D03*
X-1272802Y284968D02*
G54D12*
D03*
X-993402Y462768D02*
G54D12*
D03*
X-968002Y462768D02*
G54D12*
D03*
X-993402Y399268D02*
G54D12*
D03*
X-716094Y444496D02*
G54D10*
D03*
X-716094Y492296D02*
G54D10*
D03*
X-931707Y-2362100D02*
G54D11*
D03*
X-914132Y-2378000D02*
G54D11*
D03*
X-896516Y-2362065D02*
G54D11*
D03*
X-779448Y-2426123D02*
G54D10*
D03*
X-707952Y-2426181D02*
G54D10*
D03*
X-823026Y-2352312D02*
G54D10*
D03*
X-823083Y-2423809D02*
G54D10*
D03*
X727040Y-1486544D02*
G54D21*
D03*
X-419881Y-1069764D02*
G54D15*
D03*
X-416706Y-911014D02*
G54D15*
D03*
X-419881Y-1203114D02*
G54D15*
D03*
X-419881Y-1336464D02*
G54D15*
D03*
X-419881Y-1469814D02*
G54D15*
D03*
X-419881Y-1603164D02*
G54D15*
D03*
X-457981Y-1914314D02*
G54D15*
D03*
X-381781Y-1873039D02*
G54D15*
D03*
X-1281726Y529384D02*
G54D12*
D03*
X-1230926Y529384D02*
G54D12*
D03*
X-1180126Y529384D02*
G54D12*
D03*
X-1129326Y529384D02*
G54D12*
D03*
X458174Y529384D02*
G54D12*
D03*
X508974Y529384D02*
G54D12*
D03*
X559774Y529384D02*
G54D12*
D03*
X610574Y529384D02*
G54D12*
D03*
X381974Y529384D02*
G54D12*
D03*
X-1154726Y484934D02*
G54D12*
D03*
X402098Y386332D02*
G54D28*
D03*
X402098Y411732D02*
G54D28*
D03*
X452898Y386332D02*
G54D28*
D03*
X452898Y411732D02*
G54D28*
D03*
X402098Y487932D02*
G54D28*
D03*
X452898Y487932D02*
G54D28*
D03*
X490998Y386332D02*
G54D28*
D03*
X490998Y411732D02*
G54D28*
D03*
X541798Y386332D02*
G54D28*
D03*
X541798Y411732D02*
G54D28*
D03*
X490998Y487932D02*
G54D28*
D03*
X541798Y487932D02*
G54D28*
D03*
X579898Y386332D02*
G54D28*
D03*
X579898Y411732D02*
G54D28*
D03*
X630698Y386332D02*
G54D28*
D03*
X630698Y411732D02*
G54D28*
D03*
X579898Y487932D02*
G54D28*
D03*
X630698Y487932D02*
G54D28*
D03*
X668798Y386332D02*
G54D28*
D03*
X668798Y411732D02*
G54D28*
D03*
X719598Y386332D02*
G54D28*
D03*
X719598Y411732D02*
G54D28*
D03*
X668798Y487932D02*
G54D28*
D03*
X719598Y487932D02*
G54D28*
D03*
X381974Y300784D02*
G54D12*
D03*
X422265Y223763D02*
G54D10*
D03*
X422315Y300012D02*
G54D10*
D03*
X511165Y223763D02*
G54D10*
D03*
X511215Y300012D02*
G54D10*
D03*
X606415Y223763D02*
G54D10*
D03*
X606465Y300012D02*
G54D10*
D03*
X561965Y223763D02*
G54D10*
D03*
X562015Y300012D02*
G54D10*
D03*
X473065Y223763D02*
G54D10*
D03*
X473115Y300012D02*
G54D10*
D03*
X650865Y223763D02*
G54D10*
D03*
X650915Y300012D02*
G54D10*
D03*
X742305Y223763D02*
G54D10*
D03*
X742355Y300012D02*
G54D10*
D03*
X695315Y223763D02*
G54D10*
D03*
X695365Y300012D02*
G54D10*
D03*
X403916Y341882D02*
G54D21*
D03*
X429316Y341882D02*
G54D21*
D03*
X454716Y341882D02*
G54D21*
D03*
X492816Y341882D02*
G54D21*
D03*
X518216Y341882D02*
G54D21*
D03*
X543616Y341882D02*
G54D21*
D03*
X581716Y341882D02*
G54D21*
D03*
X607116Y341882D02*
G54D21*
D03*
X632516Y341882D02*
G54D21*
D03*
X670616Y341882D02*
G54D21*
D03*
X696016Y341882D02*
G54D21*
D03*
X721416Y341882D02*
G54D21*
D03*
X403916Y341882D02*
G54D12*
D03*
X492816Y341882D02*
G54D12*
D03*
X581716Y341882D02*
G54D12*
D03*
X670616Y341882D02*
G54D12*
D03*
X404674Y368384D02*
G54D15*
D03*
X454674Y368384D02*
G54D15*
D03*
X489674Y368384D02*
G54D15*
D03*
X544674Y368384D02*
G54D15*
D03*
X579674Y368384D02*
G54D15*
D03*
X634674Y368384D02*
G54D15*
D03*
X669674Y368384D02*
G54D15*
D03*
X722236Y367887D02*
G54D15*
D03*
X331974Y464384D02*
G54D12*
D03*
X761974Y-1750616D02*
G54D12*
D03*
X781974Y394384D02*
G54D12*
D03*
X642701Y-1184660D02*
G54D12*
D03*
X378528Y-360158D02*
G54D12*
D03*
X561884Y-360952D02*
G54D12*
D03*
X160247Y70054D02*
G54D12*
D03*
X724352Y-346266D02*
G54D43*
D03*
X724988Y10128D02*
G54D43*
D03*
X165155Y10922D02*
G54D43*
D03*
X165156Y-825691D02*
G54D43*
D03*
X724988Y-826484D02*
G54D43*
D03*
X724352Y-1182878D02*
G54D43*
D03*
X165156Y-1184466D02*
G54D43*
D03*
X-265612Y-902684D02*
G54D43*
D03*
X-1218112Y-902684D02*
G54D43*
D03*
X-1311204Y-852438D02*
G54D43*
D03*
X-1218112Y-1801209D02*
G54D43*
D03*
X-265612Y-1804384D02*
G54D47*
D03*
X378529Y-1196771D02*
G54D12*
D03*
X480922Y-1197564D02*
G54D12*
D03*
X-1059011Y-1807702D02*
G54D12*
D03*
X-1078061Y-893302D02*
G54D12*
D03*
X637507Y-467988D02*
G54D18*
D03*
X-178468Y-753738D02*
G54D18*
D03*
X681957Y-693413D02*
G54D18*
D03*
X-111793Y-515613D02*
G54D18*
D03*
X-166948Y-1228206D02*
G54D10*
D03*
X-144723Y-1228206D02*
G54D10*
D03*
X-124086Y-802756D02*
G54D10*
D03*
X-124086Y-821806D02*
G54D10*
D03*
X-35186Y-801168D02*
G54D10*
D03*
X-35186Y-820218D02*
G54D10*
D03*
X-92335Y-847206D02*
G54D10*
D03*
X-70111Y-847206D02*
G54D10*
D03*
X-31480Y-853822D02*
G54D10*
D03*
X-31480Y-876047D02*
G54D10*
D03*
X15094Y-793539D02*
G54D27*
D03*
X-178581Y-791951D02*
G54D27*
D03*
X-51581Y-960226D02*
G54D27*
D03*
X-48406Y-936414D02*
G54D27*
D03*
X-150006Y-820526D02*
G54D27*
D03*
X-78840Y-803798D02*
G54D21*
D03*
X-1274304Y-328885D02*
G54D12*
D03*
X-1559188Y408112D02*
G54D10*
D03*
X-1511388Y408113D02*
G54D10*
D03*
X-28838Y487488D02*
G54D10*
D03*
X18962Y487488D02*
G54D10*
D03*
X66414Y451369D02*
G54D15*
D03*
X-1523826Y284819D02*
G54D10*
D03*
X-1523938Y335799D02*
G54D10*
D03*
X-1561926Y284819D02*
G54D10*
D03*
X-1562038Y335799D02*
G54D10*
D03*
X-1565418Y465846D02*
G54D10*
D03*
X-1514438Y465958D02*
G54D10*
D03*
X-645307Y-333164D02*
G54D10*
D03*
X-645307Y-310939D02*
G54D10*
D03*
X-631019Y-447464D02*
G54D10*
D03*
X-631019Y-425239D02*
G54D10*
D03*
X-604516Y-448288D02*
G54D39*
D03*
X-416706Y-17252D02*
G54D10*
D03*
X-296056Y-15664D02*
G54D10*
D03*
X-1520792Y172886D02*
G54D10*
D03*
X-1546191Y172886D02*
G54D10*
D03*
X-1548230Y216926D02*
G54D10*
D03*
X-1522831Y216926D02*
G54D10*
D03*
X-1432706Y-2215938D02*
G54D10*
D03*
X-1432706Y-2190539D02*
G54D10*
D03*
X13458Y-1466238D02*
G54D12*
D03*
X85300Y-1538080D02*
G54D12*
D03*
X-3394Y-1569786D02*
G54D10*
D03*
X-6518Y-1493535D02*
G54D10*
D03*
X13458Y-1466238D02*
G54D12*
D03*
X109150Y489084D02*
G54D10*
D03*
X134550Y489084D02*
G54D10*
D03*
X159950Y489084D02*
G54D10*
D03*
X185350Y489084D02*
G54D10*
D03*
X210750Y489084D02*
G54D10*
D03*
X236150Y489084D02*
G54D10*
D03*
X261550Y489084D02*
G54D10*
D03*
X134550Y489084D02*
G54D10*
D03*
X775624Y473759D02*
G54D12*
D03*
X-178927Y-1385318D02*
G54D28*
D03*
X-178927Y-1359918D02*
G54D28*
D03*
X-128127Y-1385318D02*
G54D28*
D03*
X-128127Y-1359918D02*
G54D28*
D03*
X-178927Y-1283718D02*
G54D28*
D03*
X-128127Y-1283718D02*
G54D28*
D03*
X-184557Y-1413829D02*
G54D10*
D03*
X-127407Y-1413829D02*
G54D10*
D03*
X-184557Y-1432879D02*
G54D10*
D03*
X-119517Y-1590932D02*
G54D10*
D03*
X-121104Y-1487744D02*
G54D10*
D03*
X-122692Y-1536956D02*
G54D10*
D03*
X92869Y-28973D02*
G54D10*
D03*
X92075Y-54373D02*
G54D10*
D03*
X92076Y-54372D02*
G54D10*
D03*
X91281Y-79773D02*
G54D10*
D03*
X91281Y-79773D02*
G54D10*
D03*
X90488Y-105173D02*
G54D10*
D03*
X90488Y-105172D02*
G54D10*
D03*
X89694Y-130573D02*
G54D10*
D03*
X89694Y-130573D02*
G54D10*
D03*
X88900Y-155972D02*
G54D10*
D03*
X73422Y-28973D02*
G54D10*
D03*
X72628Y-80566D02*
G54D10*
D03*
X72231Y-131764D02*
G54D10*
D03*
X-1176939Y-923262D02*
G54D10*
D03*
X-1081689Y-924056D02*
G54D10*
D03*
M02*
