; Drill file
; Format: 2.4 (00.0000)
M48
INCH
T01C0.0157
T02C0.0197
T03C0.0236
T04C0.0283
T05C0.0315
T06C0.0354
T07C0.0394
T08C0.0433
T09C0.0472
T10C0.0512
T11C0.0551
T12C0.0591
T13C0.0787
T14C0.1
T15C0.1181
T16C0.122
T17C0.1339
T18C0.1575
%
G05
G90
T01
X-007040Y-054540
X-007040Y-053540
X-005040Y-053540
X-005040Y-054540
X-005040Y-050540
X-007040Y-050540
X-012790Y-032220
X015830Y015210
X015830Y016210
X017830Y016210
X017830Y015210
X019330Y015210
X019330Y016210
X021330Y016210
X021330Y015210
X022830Y015210
X022830Y016210
X024830Y016210
X024830Y015210
X026330Y015210
X026330Y016210
X028330Y016210
X028330Y015210
X028330Y019210
X026330Y019210
X024830Y019210
X022830Y019210
X021330Y019210
X019330Y019210
X017830Y019210
X015830Y019210
T02
X-044660Y-062120
X-044660Y-061120
X-041160Y-038870
X-040160Y-038870
X-016530Y-042120
X-013780Y-037850
X-013900Y-036950
X-011910Y-037120
X-011280Y-037850
X-010030Y-039100
X-009910Y-040370
X-016410Y-035870
X-016530Y-047370
X-016530Y-052620
X-016530Y-057870
X-016530Y-063120
X-015030Y-073740
X-018030Y-075370
X-003160Y-044870
X-002030Y-044850
X000100Y-046600
X001340Y-046620
X003600Y-047350
X003590Y-048370
X004340Y-039370
X004470Y-037850
X006850Y-038130
X005470Y-034850
X005590Y-033620
X026220Y-031350
X028840Y-029870
X028470Y-028850
X028800Y-038540
X028220Y-016850
X028340Y-015620
X025590Y-015620
X025470Y-014350
X028170Y-008010
X006220Y-007600
X-000280Y-005350
X-001160Y-005370
X000590Y-002870
X000220Y-001850
X-010030Y-000100
X-010780Y-000740
X-010530Y-005350
X-010910Y-006120
X-015500Y-009870
X-016410Y-012370
X-019660Y-015120
X-020660Y-015120
X-021660Y-012620
X-022910Y-012870
X002610Y017770
X015930Y014500
X017900Y014500
X019280Y014500
X021440Y014500
X022820Y014500
X024990Y014500
X026370Y014500
X028430Y014480
T03
X-023520Y-074740
X-023520Y-072740
X-023490Y-070710
X-023490Y-068710
X-023440Y-067120
X-023440Y-065120
X-020440Y-065120
X-019440Y-065120
X-019440Y-067120
X-020440Y-067120
X-020490Y-068710
X-019490Y-068710
X-019490Y-070710
X-020490Y-070710
X-020520Y-072740
X-019520Y-072740
X-019520Y-074740
X-020520Y-074740
X-020440Y-060290
X-019440Y-060290
X-019440Y-058290
X-020440Y-058290
X-020470Y-056730
X-019470Y-056730
X-019470Y-054730
X-020470Y-054730
X-023470Y-054730
X-023470Y-056730
X-023440Y-058290
X-023440Y-060290
X-023410Y-049950
X-023410Y-047950
X-023350Y-046540
X-023350Y-044540
X-020350Y-044540
X-019350Y-044540
X-019350Y-046540
X-020350Y-046540
X-020410Y-047950
X-019410Y-047950
X-019410Y-049950
X-020410Y-049950
X-020350Y-039640
X-019350Y-039640
X-019350Y-037640
X-020350Y-037640
X-023350Y-037640
X-023350Y-039640
X-030880Y-041270
X-014790Y-035220
X-012790Y-035220
X-011790Y-033850
X-010790Y-033850
X-012790Y-031220
X-014790Y-031220
X-014790Y-032220
X-007030Y-031180
X-005910Y-032300
X-001910Y-036870
X-002030Y-037800
X000590Y-031240
X-023800Y-017650
X-024420Y-011400
T04
X-046370Y-077130
X-028630Y-081640
X-053650Y-050210
X-053800Y-041420
X-049810Y-031670
X-049810Y-023170
X-049810Y-014670
X-049810Y-006170
X-028310Y-006170
X-028310Y-014670
X-028310Y-023170
X-028310Y-031670
X-032830Y012290
X-020860Y012380
X009330Y-055800
X009330Y-057800
X009330Y-058800
X012330Y-058800
X012330Y-057800
X012330Y-056800
X012330Y-055800
X016820Y-066720
X017820Y-066720
X018820Y-066720
X019820Y-066720
X019820Y-069720
X018820Y-069720
X016820Y-069720
T05
X-002400Y010700
X-001400Y010700
X-000400Y010700
X000600Y010700
X001600Y010700
X002600Y010700
X003600Y010700
X004600Y010700
X005600Y010700
X006600Y010700
X007600Y010700
X008600Y010700
X009600Y010700
X010600Y010700
X011600Y010700
X011600Y016700
X010600Y016700
X009600Y016700
X008600Y016700
X007600Y016700
X006600Y016700
X005600Y016700
X004600Y016700
X003600Y016700
X002600Y016700
X001600Y016700
X000600Y016700
X-000400Y016700
X-001400Y016700
X-002400Y016700
X-002360Y014690
X-003360Y014690
X-003360Y013690
X-002360Y013690
X-002360Y012690
X-003360Y012690
T06
X-056910Y-090700
X-056910Y-089690
X-056410Y-087240
X-056410Y-086240
X-054510Y-088310
X-052630Y-088310
X-049030Y-087130
X-049030Y-086130
X-052500Y-083310
X-054390Y-083310
X-053660Y-080200
X-053660Y-079190
X-052510Y-076370
X-051930Y-074700
X-050430Y-074700
X-050510Y-076370
X-050430Y-072690
X-051930Y-072690
X-055930Y-071450
X-055930Y-069440
X-055640Y-064110
X-052640Y-064120
X-050510Y-064110
X-047510Y-064120
X-042660Y-063700
X-042660Y-062690
X-042560Y-061020
X-042570Y-059010
X-042540Y-056880
X-041550Y-056890
X-039180Y-055510
X-038690Y-056770
X-036690Y-056770
X-036180Y-055510
X-036180Y-053770
X-034570Y-053890
X-033880Y-053270
X-033170Y-053890
X-032190Y-053270
X-032190Y-051520
X-033190Y-051520
X-033880Y-050890
X-034570Y-051520
X-036180Y-052020
X-036180Y-049890
X-036690Y-048520
X-034940Y-049020
X-033870Y-047640
X-034560Y-047020
X-033180Y-047020
X-032190Y-047020
X-032190Y-045270
X-033190Y-045270
X-033190Y-043270
X-032190Y-043270
X-033310Y-041260
X-034310Y-041270
X-035190Y-043270
X-036190Y-043260
X-036180Y-044640
X-035190Y-045270
X-037080Y-046530
X-038060Y-046520
X-038690Y-048520
X-039190Y-049890
X-040560Y-048640
X-042570Y-048650
X-041680Y-046520
X-040710Y-046530
X-039190Y-044640
X-039190Y-043260
X-039690Y-041270
X-038680Y-041270
X-041560Y-040090
X-042270Y-040800
X-043960Y-037540
X-043960Y-036610
X-044960Y-036610
X-044960Y-037540
X-046340Y-036350
X-042590Y-036380
X-043720Y-029200
X-043720Y-027700
X-043720Y-026450
X-046470Y-026450
X-046470Y-027700
X-046470Y-029200
X-053810Y-031670
X-054680Y-035650
X-055690Y-035650
X-055180Y-037480
X-055180Y-040480
X-055950Y-056500
X-056790Y-057790
X-056790Y-058790
X-042570Y-053770
X-040560Y-053770
X-039190Y-053770
X-039190Y-052020
X-034570Y-056270
X-033880Y-055640
X-033190Y-056270
X-032190Y-056270
X-031780Y-058030
X-032190Y-059890
X-032190Y-061770
X-029180Y-061770
X-029180Y-059890
X-029770Y-058030
X-029180Y-056270
X-029300Y-054630
X-029180Y-053270
X-027940Y-052760
X-027940Y-051020
X-029190Y-051520
X-028690Y-049270
X-027070Y-049640
X-026390Y-049020
X-025690Y-049640
X-024930Y-051020
X-024940Y-052770
X-024940Y-054010
X-024940Y-056020
X-027290Y-054630
X-024960Y-059520
X-024960Y-061530
X-026930Y-061140
X-030690Y-049270
X-032940Y-049020
X-029190Y-047020
X-027940Y-047270
X-027940Y-045640
X-029190Y-045270
X-029190Y-043260
X-028940Y-041270
X-027940Y-041270
X-024930Y-045640
X-024930Y-047270
X-022100Y-035790
X-020500Y-036260
X-019650Y-033970
X-017290Y-032980
X-017290Y-031100
X-018550Y-029730
X-018920Y-028300
X-018550Y-027070
X-018440Y-025720
X-019350Y-023530
X-020730Y-023530
X-021170Y-021800
X-019790Y-020970
X-019790Y-019090
X-017040Y-018850
X-016040Y-018850
X-015040Y-018850
X-011290Y-020600
X-010500Y-017760
X-008290Y-018850
X-008210Y-012910
X-010210Y-012910
X-010160Y-009010
X-010520Y-007300
X-009740Y-006530
X-008030Y-006890
X-006010Y-006730
X-006760Y-004310
X-005630Y-002810
X-005630Y-001310
X-005630Y000940
X-009170Y-001100
X-009880Y-001810
X-011660Y-000620
X-010310Y-004310
X-009010Y-004310
X-007760Y-009810
X-005760Y-009810
X-004380Y-009810
X-004640Y-011580
X-005990Y-013000
X-004630Y-013590
X-003000Y-006730
X-000660Y-003740
X-000660Y-002740
X002860Y-003170
X003590Y-003140
X003560Y-004140
X003530Y-005140
X002840Y-005190
X003500Y-006140
X003630Y-002140
X003660Y-001140
X002890Y-001140
X008210Y-004860
X008220Y-006870
X011400Y-004730
X012710Y-005860
X012720Y-007870
X014360Y-009630
X013200Y-010730
X011400Y-010730
X011400Y-013730
X013200Y-013730
X016450Y-013730
X018200Y-012730
X016450Y-010730
X016360Y-009630
X015830Y-007990
X015200Y-007290
X015820Y-006600
X016150Y-003630
X018400Y-004730
X019820Y-006600
X019200Y-007290
X019830Y-007990
X021200Y-009730
X023200Y-009730
X022830Y-007990
X022200Y-007290
X022820Y-006600
X025110Y-007130
X027120Y-007130
X024300Y-001980
X021300Y-001980
X018400Y-001730
X015950Y-000760
X013950Y-000770
X011400Y-001730
X013150Y-003620
X009720Y000500
X013120Y003560
X016620Y008810
X018620Y008810
X020120Y008810
X022120Y008810
X023870Y008810
X025620Y008810
X027370Y008810
X029220Y008810
X029230Y011810
X027380Y011810
X025630Y011810
X023880Y011810
X022130Y011810
X020130Y011810
X018630Y011810
X016630Y011810
X010300Y019260
X009300Y019260
X008300Y019260
X007300Y019260
X006300Y019260
X005300Y019260
X004300Y019260
X000750Y019190
X-001140Y019190
X-006730Y018310
X-006190Y016370
X-008200Y016370
X-009730Y018310
X-012190Y018630
X-012190Y016750
X-012980Y014810
X-015980Y014810
X-017360Y014640
X-017980Y015330
X-017360Y016020
X-018980Y016310
X-021980Y016310
X-028190Y017500
X-028190Y019380
X-038000Y012690
X-039890Y012690
X-040010Y007690
X-038130Y007690
X-032830Y008290
X-034970Y-000950
X-034970Y-002200
X-034970Y-003700
X-037720Y-003700
X-037720Y-002200
X-037720Y-000950
X-043720Y-000950
X-043720Y-002200
X-043720Y-003700
X-046470Y-003700
X-046470Y-002200
X-046470Y-000950
X-046470Y-009450
X-046470Y-010700
X-046470Y-012200
X-043720Y-012200
X-043720Y-010700
X-043720Y-009450
X-037720Y-009450
X-037720Y-010700
X-037720Y-012200
X-034970Y-012200
X-034970Y-010700
X-034970Y-009450
X-032310Y-006170
X-032310Y-014670
X-034970Y-017950
X-034970Y-019200
X-034970Y-020700
X-037720Y-020700
X-037720Y-019200
X-037720Y-017950
X-043720Y-017950
X-043720Y-019200
X-043720Y-020700
X-046470Y-020700
X-046470Y-019200
X-046470Y-017950
X-053810Y-014670
X-053810Y-023170
X-037720Y-026450
X-037720Y-027700
X-037720Y-029200
X-034970Y-029200
X-034970Y-027700
X-034970Y-026450
X-032310Y-023170
X-032310Y-031670
X-023100Y-028800
X-021550Y-029730
X-020920Y-028310
X-021550Y-027070
X-021450Y-025720
X-019650Y-030970
X-015790Y-028480
X-015790Y-026600
X-011820Y-024870
X-008290Y-026350
X-002510Y-025270
X-001010Y-025270
X000240Y-025270
X000240Y-028020
X-001010Y-028020
X-002510Y-028020
X-001390Y-031540
X-001390Y-032290
X-001240Y-033620
X-001240Y-034490
X-001120Y-035860
X000010Y-035370
X001260Y-035370
X002510Y-035370
X002510Y-032870
X000010Y-032870
X-002760Y-033350
X-003640Y-033350
X-004890Y-032350
X-004890Y-031600
X-005730Y-033600
X-009830Y-038100
X-010450Y-037480
X-011750Y-041760
X-011750Y-043260
X-007150Y-045790
X-005270Y-045790
X-005700Y-048350
X-006570Y-048350
X-003160Y-048080
X-001660Y-048080
X-001100Y-046740
X-001720Y-046120
X-000370Y-045470
X002510Y-045370
X002380Y-041970
X001130Y-041970
X-000370Y-041970
X005340Y-037370
X005340Y-036490
X007900Y-039010
X009910Y-039010
X012200Y-039540
X012820Y-038850
X012190Y-038150
X011820Y-036410
X013820Y-036410
X015190Y-038150
X015820Y-038850
X015200Y-039540
X016620Y-041410
X018870Y-042510
X019070Y-045380
X021070Y-045370
X023620Y-044410
X021870Y-042520
X023620Y-041410
X022310Y-040280
X022300Y-038270
X020660Y-036510
X021820Y-035410
X023620Y-035410
X023620Y-032410
X021820Y-032410
X018570Y-032410
X016820Y-033410
X015280Y-031300
X013820Y-033410
X011820Y-033410
X016820Y-036410
X018660Y-036510
X018570Y-035410
X019190Y-038150
X019820Y-038850
X019200Y-039540
X016620Y-044410
X013720Y-044160
X010720Y-044160
X008200Y-043530
X009630Y-048860
X010700Y-052350
X009770Y-054080
X009330Y-056800
X007270Y-058580
X007420Y-061470
X005540Y-061470
X003420Y-061660
X001540Y-061600
X-000130Y-061800
X-002800Y-061280
X-004830Y-060510
X-004770Y-058570
X-005020Y-055660
X-007270Y-055660
X-007270Y-056410
X-008750Y-057240
X-008760Y-058250
X-004710Y-062640
X-000260Y-058800
X002520Y-058180
X004270Y-058580
X004220Y-056850
X004210Y-054840
X002520Y-055180
X000240Y-054760
X000240Y-053760
X-001300Y-052350
X-002300Y-052350
X-001650Y-050090
X-003150Y-050090
X003990Y-049500
X004990Y-049500
X003980Y-052670
X012710Y-052340
X012770Y-054080
X014350Y-052940
X016470Y-055060
X017820Y-055320
X018440Y-056010
X017820Y-056710
X015670Y-056970
X013790Y-056970
X013670Y-059070
X015210Y-059340
X017040Y-058820
X018540Y-058820
X020980Y-059530
X020980Y-061410
X020800Y-063440
X020800Y-064940
X019180Y-064450
X017290Y-064450
X014700Y-064390
X012700Y-064400
X013670Y-062080
X015210Y-061340
X017040Y-061830
X018540Y-061830
X020710Y-057340
X020710Y-055340
X020510Y-053760
X020000Y-052420
X017990Y-052420
X017510Y-053750
X017800Y-049890
X015910Y-049890
X019950Y-049070
X020950Y-049070
X021960Y-049070
X023540Y-049510
X025420Y-049510
X024040Y-052330
X022290Y-052570
X022290Y-055580
X024040Y-055330
X023980Y-056400
X023980Y-057400
X026980Y-057410
X026980Y-056400
X023800Y-063440
X023800Y-064940
X025380Y-066760
X025380Y-067770
X023430Y-067450
X021540Y-067450
X021540Y-070950
X023430Y-070950
X019390Y-071770
X018390Y-071770
X017380Y-071770
X017820Y-069720
X015430Y-070950
X013540Y-070950
X015400Y-074420
X015160Y-077520
X015850Y-078150
X014470Y-078150
X009750Y-078260
X008360Y-074040
X006480Y-074040
X005250Y-078260
X000090Y-078080
X-000210Y-074200
X001680Y-074200
X-002110Y-073590
X006640Y-068760
X006640Y-065760
X009540Y-066950
X011420Y-066950
X013290Y-066950
X015170Y-066950
X011420Y-061470
X009540Y-061470
X025750Y-076750
X026750Y-076760
X029530Y-078040
X030950Y-078740
X030950Y-079750
X030750Y-076510
X030750Y-075510
X029090Y-094580
X027590Y-094580
X026090Y-094580
X007090Y-094580
X005590Y-094580
X004090Y-094580
X-027870Y-095520
X-030690Y-095520
X-032400Y-095430
X-032400Y-092610
X-035300Y-092990
X-035990Y-093620
X-036680Y-093000
X-038370Y-095020
X-041190Y-095020
X-041230Y-093760
X-042230Y-093760
X-043240Y-093760
X-044250Y-093760
X-045250Y-093750
X-040580Y-089620
X-041260Y-087170
X-044260Y-087170
X-036970Y-084540
X-035300Y-084500
X-035300Y-083490
X-034470Y-089040
X-023250Y-077760
X-044930Y-071450
X-044930Y-069440
X-056970Y-079030
X-024840Y-017620
X-024840Y-016740
X-022840Y-014180
X-021780Y-014180
X-019790Y-012840
X-017540Y-012840
X-016410Y-010990
X-016410Y-009990
X-016410Y-008610
X-017540Y-009090
X-018790Y-009090
X-020040Y-009090
X-025410Y-012240
X-025410Y-013120
X-019910Y-002490
X-018660Y-002490
X-017160Y-002490
X-016410Y-000680
X-017160Y001010
X-015410Y001510
X-020040Y000910
X-020860Y008380
X-010730Y009540
X-009220Y008920
X-009230Y005920
X-005880Y007560
X-002870Y007560
X-001880Y006560
X001130Y006560
X002640Y007580
X003270Y008270
X003270Y006890
X005120Y006060
X005130Y009060
X-008230Y011890
X-008860Y012580
X-008230Y013270
X-010720Y012540
X-044630Y007570
X-046510Y007570
X-047390Y011820
X-045500Y011820
X-059990Y011210
X-061490Y011210
X-061500Y013220
X-060000Y013220
X-059500Y016070
X-061390Y016070
X-061630Y018340
X-059620Y018340
X-059950Y008540
X-060950Y008540
X-060870Y006810
X-059870Y006810
X-053810Y-006170
X004500Y-031260
X020740Y-028020
X022240Y-028020
X023490Y-028020
X023490Y-025270
X022240Y-025270
X020740Y-025270
X027340Y-029740
X027340Y-030740
X028840Y-030860
X031000Y-031010
X026800Y-039270
X026810Y-041280
X026700Y-043530
X026720Y-015990
X026720Y-014990
X023200Y-012730
X021200Y-012730
X018200Y-009730
T07
X-059590Y-088280
X-059590Y-086280
X-059590Y-084280
X-059590Y-082280
X-057970Y-079030
X-055730Y-075320
X-054020Y-075320
X-055000Y-073310
X-054380Y-072180
X-048730Y-075320
X-046770Y-075320
X-047750Y-073310
X-046420Y-072140
X-046420Y-068140
X-041690Y-071170
X-042290Y-075070
X-044540Y-075810
X-047790Y-079070
X-048790Y-080070
X-046370Y-081130
X-044670Y-080560
X-044880Y-083340
X-044300Y-085900
X-043050Y-085900
X-041800Y-085900
X-040880Y-083340
X-039550Y-082900
X-039380Y-084590
X-036970Y-083530
X-039920Y-080560
X-037540Y-077200
X-036790Y-077200
X-036170Y-077200
X-035540Y-077200
X-034790Y-077200
X-034040Y-077200
X-033290Y-077200
X-032540Y-077200
X-031790Y-077200
X-031040Y-077200
X-031040Y-076450
X-031040Y-075570
X-031040Y-074700
X-031040Y-073950
X-031040Y-073200
X-031040Y-072450
X-031040Y-071700
X-031040Y-070950
X-031040Y-070200
X-031040Y-069450
X-031040Y-068700
X-031040Y-067950
X-031790Y-067950
X-032540Y-067950
X-033290Y-067950
X-034040Y-067950
X-034790Y-067950
X-035540Y-067950
X-036290Y-067950
X-036750Y-067890
X-037540Y-067950
X-037540Y-068700
X-037540Y-069450
X-037540Y-070200
X-037540Y-070950
X-037540Y-071700
X-037540Y-072450
X-037540Y-073200
X-037540Y-073950
X-037540Y-074700
X-037540Y-075570
X-037540Y-076320
X-039920Y-075810
X-048790Y-083070
X-050890Y-084520
X-050890Y-085770
X-050890Y-087020
X-047870Y-089630
X-046340Y-089170
X-044960Y-090560
X-044230Y-088450
X-042590Y-089620
X-039380Y-088590
X-034470Y-088030
X-028670Y-089060
X-023920Y-089060
X-023920Y-084310
X-026290Y-083570
X-028540Y-084310
X-024630Y-081640
X-025960Y-072970
X-024980Y-070970
X-026940Y-070970
X-025220Y-067020
X-021730Y-063970
X-020750Y-061970
X-022710Y-061970
X-017760Y-062140
X-017760Y-063470
X-017760Y-067470
X-017840Y-067470
X-018000Y-070430
X-018070Y-070430
X-016260Y-070390
X-016180Y-070390
X-016260Y-074390
X-018070Y-074430
X-007730Y-062010
X-006740Y-060000
X-008710Y-060000
X-002800Y-060270
X-001560Y-057270
X000530Y-057730
X003360Y-060550
X005800Y-056100
X005800Y-054140
X007810Y-055120
X011120Y-050530
X014900Y-047120
X018930Y-047150
X025300Y-046640
X025710Y-044700
X028370Y-048780
X028370Y-049780
X028370Y-050780
X028620Y-054280
X028620Y-055280
X028620Y-056530
X028620Y-057530
X028620Y-058530
X028620Y-059780
X028620Y-060780
X028120Y-062030
X028120Y-063030
X030000Y-068920
X028620Y-069530
X028620Y-070530
X028620Y-072780
X028620Y-073780
X028620Y-074780
X028620Y-075650
X029530Y-077030
X022120Y-074280
X013120Y-075780
X012780Y-077640
X019530Y-095530
X002100Y-052670
X001710Y-050270
X001710Y-048770
X001710Y-047770
X000210Y-047770
X000210Y-048770
X004400Y-043770
X004400Y-042770
X007320Y-036540
X008320Y-035540
X009320Y-034540
X009320Y-036540
X007320Y-034540
X004400Y-033270
X-003100Y-031650
X-003230Y-035010
X-003620Y-037510
X-006000Y-036740
X-007230Y-035010
X-008250Y-037510
X-012620Y-039070
X-015500Y-037160
X-017860Y-036940
X-017860Y-040940
X-017800Y-042190
X-020650Y-041160
X-022620Y-041150
X-021630Y-043160
X-017800Y-046190
X-017750Y-047480
X-015880Y-046240
X-017750Y-051480
X-017750Y-052780
X-020810Y-051640
X-022770Y-051640
X-021790Y-053650
X-017750Y-056780
X-017760Y-058140
X-025990Y-057000
X-027960Y-057000
X-026980Y-059010
X-044720Y-047820
X-046820Y-047680
X-047120Y-043660
X-044220Y-040530
X-047120Y-038910
X-049500Y-038160
X-051750Y-038910
X-053800Y-037420
X-051870Y-043660
X-053650Y-046210
X-051570Y-047680
X-051570Y-052430
X-049200Y-053170
X-046950Y-052430
X-042440Y-035170
X-042860Y-032810
X-044320Y-033440
X-046360Y-032810
X-049180Y-030320
X-049180Y-025570
X-049180Y-021820
X-049180Y-017070
X-049180Y-013320
X-050170Y-012950
X-053930Y-013200
X-054670Y-010950
X-053930Y-008570
X-053930Y-004700
X-054670Y-002450
X-053930Y-000070
X-049180Y-000070
X-046360Y002690
X-044070Y003720
X-042860Y002690
X-042120Y-000310
X-042110Y-002310
X-042020Y-004050
X-040010Y-004040
X-039610Y-002310
X-039620Y-000310
X-038610Y002690
X-038210Y004110
X-034860Y002690
X-032840Y000400
X-032840Y-004350
X-032840Y-008100
X-032840Y-012850
X-032840Y-016600
X-032840Y-021350
X-032840Y-025100
X-032840Y-029850
X-034860Y-032810
X-038610Y-032810
X-040010Y-029540
X-039610Y-027810
X-039620Y-025810
X-042120Y-025810
X-042110Y-027810
X-042020Y-029550
X-042020Y-021050
X-042110Y-019310
X-042120Y-017310
X-039620Y-017310
X-039610Y-019310
X-040010Y-021040
X-040010Y-012540
X-039610Y-010810
X-039620Y-008810
X-042120Y-008810
X-042110Y-010810
X-042020Y-012550
X-049180Y-008570
X-049180Y-004820
X-053050Y005850
X-051110Y011220
X-050110Y011220
X-051110Y014220
X-053270Y014410
X-052770Y015660
X-054640Y014280
X-055530Y013400
X-056340Y017470
X-054340Y017470
X-050340Y017470
X-048340Y017470
X-046340Y017470
X-045460Y019090
X-044340Y017470
X-044460Y020840
X-046460Y020840
X-048460Y020840
X-050460Y020840
X-039110Y018220
X-038110Y018220
X-039110Y015720
X-036390Y011480
X-036390Y010230
X-036390Y008980
X-030680Y010000
X-029940Y007750
X-029940Y012370
X-025190Y012370
X-024440Y010250
X-025190Y007620
X-023720Y005220
X-017970Y007840
X-018710Y010090
X-017970Y012470
X-013220Y012470
X-013220Y007720
X-011430Y000930
X-011750Y-001870
X-014750Y-001870
X-014750Y-004870
X-014750Y-006870
X-014750Y-008870
X-011750Y-008870
X-011750Y-006870
X-011750Y-004870
X-022180Y-004570
X-022180Y-003570
X-027350Y-001970
X-028090Y000280
X-028090Y-004350
X-028090Y-008220
X-027350Y-010470
X-028090Y-012850
X-025220Y-014890
X-028090Y-016720
X-027350Y-018970
X-028090Y-021350
X-028090Y-025220
X-027350Y-027470
X-028090Y-029850
X-021430Y-032320
X-013860Y-029190
X-012710Y-030010
X-012360Y-027560
X-014790Y-023850
X-016540Y-024600
X-016540Y-022850
X-016540Y-021100
X-014790Y-021850
X-006770Y-022480
X-005770Y-023480
X-006770Y-024480
X-006770Y-024530
X-004770Y-024480
X-004770Y-022480
X-006020Y-027030
X001990Y-025270
X007200Y-011600
X008200Y-010600
X009200Y-009600
X009200Y-011600
X007200Y-009600
X014900Y-014180
X022120Y-014210
X025700Y-011600
X026700Y-010600
X025700Y-009600
X027700Y-009600
X027700Y-011600
X027230Y-020030
X027730Y-022530
X026730Y-023530
X025730Y-022530
X025730Y-024530
X027730Y-024530
X025390Y-030220
X025760Y-034510
X025760Y-036510
X027760Y-036510
X027760Y-034510
X018740Y-025270
X-003620Y-042260
X-008370Y-042260
X001950Y002730
X003450Y002850
X005200Y002850
X006310Y002760
X009200Y002730
X015040Y011840
X015900Y013460
X016900Y013460
X017900Y013460
X019400Y013460
X020400Y013460
X021400Y013460
X022900Y013460
X023900Y013460
X024900Y013460
X026400Y013460
X027400Y013460
X028400Y013460
X030790Y015530
X030540Y018650
X024040Y020840
X022040Y020840
X020040Y020840
X018040Y020840
X015040Y020840
X013070Y018280
X-000970Y015470
X025390Y002720
X-042890Y008730
X-042890Y009980
X-042890Y011230
X-056470Y-014890
X-053930Y-017070
X-054670Y-019450
X-053930Y-021700
X-053930Y-025570
X-054670Y-027950
X-053930Y-030200
X-046790Y-086570
X-048920Y-091910
X-051700Y-091850
T08
X-034720Y-066670
X-033720Y-066670
X-032720Y-066670
X-032720Y-064140
X-033720Y-064140
X-034720Y-064140
X-037130Y-061540
X-038630Y-061540
X-038180Y-059010
X-036680Y-059010
T09
X-054380Y-068180
X-052380Y-068180
X-049380Y-068180
X-048380Y-068180
X-048380Y-059680
X-047630Y-059680
X-049260Y-059680
X-052630Y-059680
X-054380Y-059680
X-055130Y-059680
X-028720Y-071280
X-018260Y-076520
X-018260Y-078520
X-014530Y-079160
X-014530Y-077410
X-014530Y-075410
X-010530Y-075660
X-010530Y-074160
X-008280Y-074410
X-008280Y-073660
X-007780Y-071660
X-007780Y-070660
X-006030Y-070660
X-006030Y-071660
X-004880Y-078900
X-008280Y-079660
X-008280Y-080410
X-008280Y-081410
X-010530Y-080910
X-010530Y-079160
X003970Y-071660
X004970Y-071660
X004970Y-069910
X003970Y-069910
X003970Y-066160
X004970Y-066160
X004970Y-064660
X003970Y-064660
X-011670Y-059070
X-011670Y-055450
X-011670Y-051200
X-011790Y-047450
X-028720Y-035280
X-013780Y-014510
X-011660Y-014510
X008350Y-002600
X026920Y-002600
X026720Y-035540
T10
X-001870Y-019900
X-001090Y-019900
X000490Y-019900
X001270Y-019900
X019580Y-020100
X020370Y-020100
X021940Y-020100
X022730Y-020100
T11
X-007030Y-029670
X-004400Y-020300
X006350Y-020300
X014350Y-025800
X026850Y-027300
X025100Y-018420
T12
X-003400Y010710
X-003400Y016710
T13
X-056610Y-063040
X-056560Y-061190
X-056680Y-052940
X-056610Y-051040
X-020150Y-007310
X-020150Y-004310
X-017150Y-004310
X-017150Y-007310
X-000380Y-037160
X002620Y-037160
X002620Y-040160
X-000380Y-040160
X-055830Y009790
X-053580Y013040
T14
X-038690Y-065390
X-028620Y-065390
T15
X-060710Y-095100
X-029710Y-093600
X024540Y-079100
X027540Y-087100
X005730Y-027440
X001380Y-023320
X-001120Y-016070
X-000750Y002560
X-022870Y002430
X-036180Y005030
X-033710Y015270
X-051180Y003130
X-061080Y021090
X-022370Y-016070
X-060960Y-039350
X030290Y020420
T16
X-016580Y-077540
X-006580Y-077410
T17
X-047960Y-070910
X-047960Y-035540
X-051620Y-033560
X-010460Y-035540
X006500Y-032510
X006500Y-046630
X028520Y-046570
X028540Y-032540
X028520Y-013630
X028540Y000400
X006500Y000430
X006500Y-013690
X-010460Y-071040
T18
X-017720Y-087160
X000280Y-087160
X011720Y-025800
X008970Y-020300
M30
