%FSLAX34Y34*%
%MOMM*%
%LNSOLDERMASK_TOP*%
G71*
G01*
%ADD10C,2.600*%
%ADD11C,2.400*%
%ADD12C,2.800*%
%ADD13C,2.600*%
%ADD14C,5.100*%
%ADD15C,1.600*%
%ADD16C,3.100*%
%ADD17C,7.600*%
%ADD18C,3.200*%
%ADD19C,2.900*%
%ADD20C,2.600*%
%ADD21C,2.600*%
%ADD22C,2.400*%
%ADD23C,2.600*%
%ADD24C,3.600*%
%ADD25C,2.800*%
%ADD26C,3.000*%
%ADD27C,1.800*%
%ADD28C,1.600*%
%ADD29C,2.700*%
%ADD30C,2.700*%
%ADD31C,2.500*%
%ADD32C,2.800*%
%ADD33C,4.200*%
%ADD34C,2.700*%
%ADD35C,2.800*%
%ADD36C,2.100*%
%ADD37C,1.600*%
%ADD38C,6.600*%
%ADD39C,4.200*%
%ADD40C,4.600*%
%ADD41C,5.600*%
%ADD42C,1.900*%
%ADD43C,2.500*%
%ADD44C,2.250*%
%ADD45C,5.200*%
%ADD46C,1.200*%
%LPD*%
X850845Y1998771D02*
G54D10*
D03*
X850895Y2075021D02*
G54D10*
D03*
X769851Y1995371D02*
G54D10*
D03*
X769964Y1944390D02*
G54D10*
D03*
X884151Y1969971D02*
G54D10*
D03*
X884263Y1918990D02*
G54D10*
D03*
X850861Y1770171D02*
G54D10*
D03*
X850911Y1846421D02*
G54D10*
D03*
X971582Y2026785D02*
G54D10*
D03*
X895332Y2026835D02*
G54D10*
D03*
X896541Y1846421D02*
G54D10*
D03*
X896491Y1770171D02*
G54D10*
D03*
X1028644Y1998770D02*
G54D10*
D03*
X1028694Y2075020D02*
G54D10*
D03*
X925976Y1874255D02*
G54D10*
D03*
X1023541Y1871821D02*
G54D10*
D03*
X1023491Y1795571D02*
G54D10*
D03*
X1099740Y1871821D02*
G54D10*
D03*
X1099690Y1795571D02*
G54D10*
D03*
X1150540Y1871821D02*
G54D10*
D03*
X1150490Y1795571D02*
G54D10*
D03*
X1250012Y1937866D02*
G54D10*
D03*
X1199032Y1937753D02*
G54D10*
D03*
X1178558Y2068589D02*
G54D10*
D03*
X1102308Y2068639D02*
G54D10*
D03*
X963216Y1951196D02*
G54D11*
D03*
X947316Y1933621D02*
G54D11*
D03*
X963250Y1916005D02*
G54D11*
D03*
X1064816Y1951196D02*
G54D11*
D03*
X1048916Y1933621D02*
G54D11*
D03*
X1064850Y1916005D02*
G54D11*
D03*
X1141016Y1951196D02*
G54D11*
D03*
X1125116Y1933621D02*
G54D11*
D03*
X1141050Y1916005D02*
G54D11*
D03*
X744116Y1875096D02*
G54D12*
D03*
X794916Y1875096D02*
G54D12*
D03*
X769516Y1849696D02*
G54D12*
D03*
X794916Y1824296D02*
G54D12*
D03*
X744116Y1824296D02*
G54D12*
D03*
X1214016Y1875096D02*
G54D12*
D03*
X1264816Y1875096D02*
G54D12*
D03*
X1239416Y1849696D02*
G54D12*
D03*
X1264816Y1824296D02*
G54D12*
D03*
X1214016Y1824296D02*
G54D12*
D03*
X915542Y2099405D02*
G54D10*
D03*
X966522Y2099518D02*
G54D10*
D03*
X850861Y1770171D02*
G54D13*
D03*
X726440Y2129790D02*
G54D14*
D03*
X976776Y1874255D02*
G54D10*
D03*
X979091Y1846421D02*
G54D10*
D03*
X979041Y1770171D02*
G54D10*
D03*
X808091Y2131571D02*
G54D10*
D03*
X719316Y1925796D02*
G54D15*
D03*
X896491Y1770171D02*
G54D13*
D03*
X979041Y1770171D02*
G54D13*
D03*
X1023491Y1795571D02*
G54D13*
D03*
X1099690Y1795571D02*
G54D13*
D03*
X1286272Y2128996D02*
G54D14*
D03*
X726440Y1771014D02*
G54D14*
D03*
X1285636Y1772602D02*
G54D14*
D03*
X776466Y2052796D02*
G54D15*
D03*
X773290Y2052796D02*
G54D16*
D03*
X1245015Y2052796D02*
G54D16*
D03*
X859066Y1463555D02*
G54D17*
D03*
X789216Y1603256D02*
G54D17*
D03*
X722541Y1603255D02*
G54D18*
D03*
X925741Y1463555D02*
G54D18*
D03*
X513666Y1613355D02*
G54D19*
D03*
X593666Y1613355D02*
G54D20*
D03*
X1058666Y1608355D02*
G54D20*
D03*
X1138666Y1608355D02*
G54D20*
D03*
X593666Y1613355D02*
G54D19*
D03*
X1058666Y1608355D02*
G54D19*
D03*
X1138666Y1608355D02*
G54D12*
D03*
X533666Y1613355D02*
G54D19*
D03*
X573666Y1613355D02*
G54D19*
D03*
X1078666Y1608356D02*
G54D19*
D03*
X1118666Y1608355D02*
G54D19*
D03*
X389241Y1497025D02*
G54D12*
D03*
X389241Y1547825D02*
G54D12*
D03*
X414641Y1522425D02*
G54D12*
D03*
X440041Y1547826D02*
G54D12*
D03*
X440041Y1497025D02*
G54D12*
D03*
X389241Y1495755D02*
G54D21*
D03*
X440041Y1495755D02*
G54D13*
D03*
X1214741Y1495755D02*
G54D12*
D03*
X1214741Y1546555D02*
G54D12*
D03*
X1240141Y1521155D02*
G54D12*
D03*
X1265541Y1546555D02*
G54D12*
D03*
X1265541Y1495755D02*
G54D12*
D03*
X1214741Y1495755D02*
G54D21*
D03*
X1265541Y1495755D02*
G54D13*
D03*
X1088198Y1407118D02*
G54D10*
D03*
X1088198Y1476968D02*
G54D10*
D03*
X1158048Y1407118D02*
G54D10*
D03*
X1158048Y1476968D02*
G54D10*
D03*
X1126298Y1476968D02*
G54D10*
D03*
X1126298Y1407118D02*
G54D10*
D03*
X1158049Y1407118D02*
G54D13*
D03*
X1158049Y1476968D02*
G54D13*
D03*
X497648Y1407118D02*
G54D10*
D03*
X497648Y1476968D02*
G54D10*
D03*
X567498Y1407118D02*
G54D10*
D03*
X567498Y1476968D02*
G54D10*
D03*
X535748Y1476968D02*
G54D10*
D03*
X535748Y1407118D02*
G54D10*
D03*
X567499Y1407118D02*
G54D13*
D03*
X567499Y1476968D02*
G54D13*
D03*
X1138666Y1608355D02*
G54D19*
D03*
X611949Y1476968D02*
G54D21*
D03*
X1037399Y1476968D02*
G54D21*
D03*
X1252941Y1610080D02*
G54D21*
D03*
X408391Y1432280D02*
G54D21*
D03*
X389241Y1546555D02*
G54D13*
D03*
X440041Y1546556D02*
G54D13*
D03*
X1214741Y1546555D02*
G54D13*
D03*
X1265541Y1546555D02*
G54D13*
D03*
X1265541Y1495755D02*
G54D13*
D03*
X726440Y1293177D02*
G54D14*
D03*
X1286272Y1292384D02*
G54D14*
D03*
X726440Y934402D02*
G54D14*
D03*
X1285636Y935990D02*
G54D14*
D03*
X1240015Y1216184D02*
G54D16*
D03*
X49416Y1933256D02*
G54D22*
D03*
X125616Y1933256D02*
G54D22*
D03*
X125616Y2009456D02*
G54D22*
D03*
X49416Y2009456D02*
G54D22*
D03*
X125528Y2144479D02*
G54D10*
D03*
X125528Y2055579D02*
G54D10*
D03*
X87428Y2055579D02*
G54D10*
D03*
X55678Y2055579D02*
G54D10*
D03*
X115884Y1792689D02*
G54D10*
D03*
X52385Y1887939D02*
G54D10*
D03*
X84134Y1887939D02*
G54D10*
D03*
X115884Y1887939D02*
G54D10*
D03*
X144367Y1900228D02*
G54D10*
D03*
X52384Y2141939D02*
G54D10*
D03*
X169978Y2157179D02*
G54D10*
D03*
X332406Y2009490D02*
G54D10*
D03*
X389556Y2009490D02*
G54D10*
D03*
X418256Y2085690D02*
G54D10*
D03*
X418256Y2142840D02*
G54D10*
D03*
X357206Y1943866D02*
G54D10*
D03*
X303254Y1889984D02*
G54D10*
D03*
X357206Y1943866D02*
G54D13*
D03*
X484982Y1947918D02*
G54D10*
D03*
X408732Y1947968D02*
G54D10*
D03*
X484982Y1947918D02*
G54D13*
D03*
X364156Y1869790D02*
G54D10*
D03*
X414956Y1869790D02*
G54D10*
D03*
X414956Y1869790D02*
G54D10*
D03*
X443563Y1773684D02*
G54D10*
D03*
X443451Y1824664D02*
G54D10*
D03*
X443563Y1773684D02*
G54D10*
D03*
X418256Y2047590D02*
G54D10*
D03*
X450006Y1869790D02*
G54D10*
D03*
X299386Y2009490D02*
G54D10*
D03*
X310306Y2072990D02*
G54D10*
D03*
X186610Y2071494D02*
G54D12*
D03*
X262810Y2071494D02*
G54D12*
D03*
X186610Y1995294D02*
G54D12*
D03*
X186610Y1944494D02*
G54D12*
D03*
X186610Y1893694D02*
G54D12*
D03*
X262810Y1995294D02*
G54D12*
D03*
X262810Y1944494D02*
G54D12*
D03*
X262810Y1893694D02*
G54D12*
D03*
X262810Y2071494D02*
G54D10*
D03*
X409061Y1788691D02*
G54D10*
D03*
X352841Y1790936D02*
G54D10*
D03*
X352841Y1790936D02*
G54D10*
D03*
X302041Y1790936D02*
G54D10*
D03*
G54D23*
X272225Y1743214D02*
X258083Y1757356D01*
G54D23*
X218250Y1743214D02*
X204108Y1757356D01*
X-1984Y2028190D02*
G54D21*
D03*
X-1984Y2002790D02*
G54D21*
D03*
X271066Y2142490D02*
G54D21*
D03*
X49416Y2009456D02*
G54D24*
D03*
X49416Y1933256D02*
G54D24*
D03*
X125616Y1933256D02*
G54D24*
D03*
X125616Y2009456D02*
G54D24*
D03*
X627894Y1175054D02*
G54D22*
D03*
X551694Y1175054D02*
G54D22*
D03*
X551694Y1098854D02*
G54D22*
D03*
X627894Y1098854D02*
G54D22*
D03*
X551782Y963831D02*
G54D10*
D03*
X551782Y1052731D02*
G54D10*
D03*
X589882Y1052731D02*
G54D10*
D03*
X621632Y1052731D02*
G54D10*
D03*
X624926Y1283871D02*
G54D10*
D03*
X561426Y1283871D02*
G54D10*
D03*
X624925Y1220371D02*
G54D10*
D03*
X593176Y1220371D02*
G54D10*
D03*
X561426Y1220371D02*
G54D10*
D03*
X532943Y1208082D02*
G54D10*
D03*
X624926Y966371D02*
G54D10*
D03*
X672944Y1007095D02*
G54D21*
D03*
X672944Y1032495D02*
G54D21*
D03*
X672944Y1273795D02*
G54D21*
D03*
X627894Y1098854D02*
G54D24*
D03*
X627894Y1175054D02*
G54D24*
D03*
X551694Y1175054D02*
G54D24*
D03*
X551694Y1098854D02*
G54D24*
D03*
X348686Y1045473D02*
G54D12*
D03*
X351860Y1166123D02*
G54D12*
D03*
X469336Y1045473D02*
G54D12*
D03*
X469336Y1166123D02*
G54D12*
D03*
X409011Y1185586D02*
G54D12*
D03*
X351860Y1166123D02*
G54D25*
D03*
X377707Y1229704D02*
G54D12*
D03*
X479307Y1229704D02*
G54D12*
D03*
X566607Y905564D02*
G54D12*
D03*
X566607Y880164D02*
G54D12*
D03*
X604707Y880164D02*
G54D12*
D03*
X604707Y842064D02*
G54D12*
D03*
X519202Y897558D02*
G54D10*
D03*
X519315Y846578D02*
G54D10*
D03*
X519202Y897558D02*
G54D10*
D03*
X519314Y846577D02*
G54D10*
D03*
X481102Y897558D02*
G54D10*
D03*
X481214Y846578D02*
G54D10*
D03*
X481102Y897558D02*
G54D10*
D03*
X481214Y846577D02*
G54D10*
D03*
X604707Y905564D02*
G54D12*
D03*
X415674Y1265514D02*
G54D10*
D03*
X377707Y1229704D02*
G54D12*
D03*
X185665Y1564003D02*
G54D26*
D03*
X185665Y1513203D02*
G54D26*
D03*
X141215Y1538604D02*
G54D26*
D03*
X141215Y1494153D02*
G54D26*
D03*
X141215Y1583053D02*
G54D26*
D03*
X153915Y1640203D02*
G54D10*
D03*
X128515Y1640203D02*
G54D10*
D03*
X179315Y1640203D02*
G54D10*
D03*
X92830Y1465578D02*
G54D10*
D03*
X16580Y1465628D02*
G54D10*
D03*
X13888Y1431318D02*
G54D10*
D03*
X90138Y1431268D02*
G54D10*
D03*
X29822Y1399842D02*
G54D10*
D03*
X80802Y1399954D02*
G54D10*
D03*
X58665Y1633941D02*
G54D10*
D03*
X58665Y1586141D02*
G54D10*
D03*
X62275Y1332316D02*
G54D10*
D03*
X62225Y1256066D02*
G54D10*
D03*
X122165Y1281254D02*
G54D10*
D03*
X122165Y1329053D02*
G54D10*
D03*
X34721Y1521097D02*
G54D10*
D03*
X69821Y1521098D02*
G54D10*
D03*
X160265Y1395553D02*
G54D10*
D03*
X160265Y1443354D02*
G54D10*
D03*
X13943Y1363671D02*
G54D10*
D03*
X90193Y1363621D02*
G54D10*
D03*
X261140Y1487248D02*
G54D10*
D03*
X13888Y1431318D02*
G54D10*
D03*
X13943Y1363671D02*
G54D10*
D03*
X122165Y1281254D02*
G54D10*
D03*
X62225Y1256066D02*
G54D10*
D03*
G36*
X36615Y1578273D02*
X36615Y1552273D01*
X10615Y1552273D01*
X10615Y1578273D01*
X36615Y1578273D01*
G37*
X236465Y1325792D02*
G54D27*
D03*
X236465Y1300392D02*
G54D28*
D03*
X185665Y1325791D02*
G54D28*
D03*
X185665Y1300391D02*
G54D27*
D03*
X236465Y1224191D02*
G54D28*
D03*
X185665Y1224191D02*
G54D28*
D03*
X238497Y1356557D02*
G54D12*
D03*
X240661Y1126583D02*
G54D21*
D03*
X185665Y1325791D02*
G54D27*
D03*
X236465Y1224191D02*
G54D27*
D03*
X185665Y1224191D02*
G54D27*
D03*
X1286216Y645733D02*
G54D10*
D03*
X1286216Y671233D02*
G54D10*
D03*
X-549326Y1377104D02*
G54D10*
D03*
X-619176Y1377104D02*
G54D10*
D03*
X-549326Y1446954D02*
G54D10*
D03*
X-619176Y1446954D02*
G54D10*
D03*
X-619176Y1415204D02*
G54D10*
D03*
X-549326Y1415204D02*
G54D10*
D03*
X-505918Y1368333D02*
G54D29*
D03*
X-454936Y1368445D02*
G54D29*
D03*
X-327076Y1377104D02*
G54D10*
D03*
X-396926Y1377104D02*
G54D10*
D03*
X-327076Y1446954D02*
G54D10*
D03*
X-396926Y1446954D02*
G54D10*
D03*
X-396926Y1415204D02*
G54D10*
D03*
X-327076Y1415204D02*
G54D10*
D03*
X-444853Y1412431D02*
G54D10*
D03*
X-444966Y1463411D02*
G54D10*
D03*
X-508353Y1412431D02*
G54D10*
D03*
X-508466Y1463411D02*
G54D10*
D03*
X-327076Y1446954D02*
G54D13*
D03*
X-396926Y1446954D02*
G54D13*
D03*
X-444966Y1463412D02*
G54D30*
D03*
X-508466Y1463412D02*
G54D13*
D03*
X-549326Y1446954D02*
G54D13*
D03*
X-619176Y1446954D02*
G54D13*
D03*
X-508353Y1412431D02*
G54D29*
D03*
X-508466Y1463411D02*
G54D29*
D03*
X-444966Y1463411D02*
G54D29*
D03*
X-444853Y1412431D02*
G54D29*
D03*
X-272863Y1481396D02*
G54D12*
D03*
X-152213Y1478222D02*
G54D12*
D03*
X-272863Y1360746D02*
G54D12*
D03*
X-152213Y1360746D02*
G54D12*
D03*
X-133400Y1421071D02*
G54D12*
D03*
X-259356Y1314466D02*
G54D31*
D03*
X-157756Y1314467D02*
G54D31*
D03*
X-152213Y1478222D02*
G54D12*
D03*
X-687858Y1348658D02*
G54D12*
D03*
X-808508Y1351832D02*
G54D12*
D03*
X-687858Y1469308D02*
G54D12*
D03*
X-808508Y1469308D02*
G54D12*
D03*
X-827320Y1408983D02*
G54D12*
D03*
X-808507Y1351832D02*
G54D12*
D03*
X-808508Y1469308D02*
G54D12*
D03*
X-805456Y1314466D02*
G54D31*
D03*
X-703856Y1314467D02*
G54D31*
D03*
X-259356Y1314466D02*
G54D10*
D03*
X-805456Y1314466D02*
G54D10*
D03*
X-549326Y1593004D02*
G54D10*
D03*
X-619176Y1593004D02*
G54D10*
D03*
X-549326Y1662854D02*
G54D10*
D03*
X-619176Y1662854D02*
G54D10*
D03*
X-619176Y1631104D02*
G54D10*
D03*
X-549326Y1631104D02*
G54D10*
D03*
X-505918Y1584233D02*
G54D29*
D03*
X-454936Y1584345D02*
G54D29*
D03*
X-327076Y1593004D02*
G54D10*
D03*
X-396926Y1593004D02*
G54D10*
D03*
X-327076Y1662854D02*
G54D10*
D03*
X-396926Y1662854D02*
G54D10*
D03*
X-396926Y1631104D02*
G54D10*
D03*
X-327076Y1631104D02*
G54D10*
D03*
X-444853Y1628331D02*
G54D10*
D03*
X-444966Y1679312D02*
G54D10*
D03*
X-508353Y1628331D02*
G54D10*
D03*
X-508466Y1679311D02*
G54D10*
D03*
X-327076Y1662854D02*
G54D13*
D03*
X-396926Y1662854D02*
G54D13*
D03*
X-444966Y1679312D02*
G54D30*
D03*
X-508466Y1679312D02*
G54D13*
D03*
X-549326Y1662854D02*
G54D13*
D03*
X-619176Y1662854D02*
G54D13*
D03*
X-508353Y1628331D02*
G54D29*
D03*
X-508466Y1679311D02*
G54D29*
D03*
X-444966Y1679312D02*
G54D29*
D03*
X-444853Y1628331D02*
G54D29*
D03*
X-272863Y1697296D02*
G54D12*
D03*
X-152213Y1694122D02*
G54D12*
D03*
X-272863Y1576646D02*
G54D12*
D03*
X-152213Y1576646D02*
G54D12*
D03*
X-133400Y1636971D02*
G54D12*
D03*
X-259356Y1530366D02*
G54D31*
D03*
X-157756Y1530367D02*
G54D31*
D03*
X-152213Y1694122D02*
G54D12*
D03*
X-687858Y1564558D02*
G54D12*
D03*
X-808508Y1567732D02*
G54D12*
D03*
X-687858Y1685208D02*
G54D12*
D03*
X-808508Y1685208D02*
G54D12*
D03*
X-827320Y1624883D02*
G54D12*
D03*
X-808507Y1567731D02*
G54D12*
D03*
X-808508Y1685208D02*
G54D12*
D03*
X-805456Y1530366D02*
G54D31*
D03*
X-703856Y1530367D02*
G54D31*
D03*
X-259356Y1530366D02*
G54D10*
D03*
X-805456Y1530366D02*
G54D10*
D03*
X-549326Y1808904D02*
G54D10*
D03*
X-619176Y1808904D02*
G54D10*
D03*
X-549326Y1878754D02*
G54D10*
D03*
X-619176Y1878754D02*
G54D10*
D03*
X-619176Y1847004D02*
G54D10*
D03*
X-549326Y1847004D02*
G54D10*
D03*
X-505918Y1800133D02*
G54D29*
D03*
X-454936Y1800245D02*
G54D29*
D03*
X-327076Y1808904D02*
G54D10*
D03*
X-396926Y1808904D02*
G54D10*
D03*
X-327076Y1878754D02*
G54D10*
D03*
X-396926Y1878754D02*
G54D10*
D03*
X-396926Y1847004D02*
G54D10*
D03*
X-327076Y1847004D02*
G54D10*
D03*
X-444853Y1844231D02*
G54D10*
D03*
X-444966Y1895212D02*
G54D10*
D03*
X-508353Y1844231D02*
G54D10*
D03*
X-508466Y1895212D02*
G54D10*
D03*
X-327076Y1878754D02*
G54D13*
D03*
X-396926Y1878754D02*
G54D13*
D03*
X-444966Y1895212D02*
G54D30*
D03*
X-508466Y1895212D02*
G54D13*
D03*
X-549326Y1878754D02*
G54D13*
D03*
X-619176Y1878754D02*
G54D13*
D03*
X-508353Y1844231D02*
G54D29*
D03*
X-508466Y1895212D02*
G54D29*
D03*
X-444966Y1895212D02*
G54D29*
D03*
X-444853Y1844231D02*
G54D29*
D03*
X-272863Y1913196D02*
G54D12*
D03*
X-152213Y1910022D02*
G54D12*
D03*
X-272863Y1792546D02*
G54D12*
D03*
X-152213Y1792546D02*
G54D12*
D03*
X-133400Y1852871D02*
G54D12*
D03*
X-259356Y1746266D02*
G54D31*
D03*
X-157756Y1746266D02*
G54D31*
D03*
X-152213Y1910022D02*
G54D12*
D03*
X-687858Y1780458D02*
G54D12*
D03*
X-808508Y1783632D02*
G54D12*
D03*
X-687858Y1901108D02*
G54D12*
D03*
X-808508Y1901108D02*
G54D12*
D03*
X-827320Y1840783D02*
G54D12*
D03*
X-808507Y1783632D02*
G54D12*
D03*
X-808508Y1901108D02*
G54D12*
D03*
X-805456Y1746266D02*
G54D31*
D03*
X-703856Y1746266D02*
G54D31*
D03*
X-259356Y1746266D02*
G54D10*
D03*
X-805456Y1746266D02*
G54D10*
D03*
X-549326Y2024804D02*
G54D10*
D03*
X-619176Y2024804D02*
G54D10*
D03*
X-549326Y2094654D02*
G54D10*
D03*
X-619176Y2094654D02*
G54D10*
D03*
X-619176Y2062904D02*
G54D10*
D03*
X-549326Y2062904D02*
G54D10*
D03*
X-505918Y2016033D02*
G54D29*
D03*
X-454936Y2016145D02*
G54D29*
D03*
X-327076Y2024804D02*
G54D10*
D03*
X-396926Y2024804D02*
G54D10*
D03*
X-327076Y2094654D02*
G54D10*
D03*
X-396926Y2094654D02*
G54D10*
D03*
X-396926Y2062904D02*
G54D10*
D03*
X-327076Y2062904D02*
G54D10*
D03*
X-444853Y2060131D02*
G54D10*
D03*
X-444966Y2111112D02*
G54D10*
D03*
X-508353Y2060131D02*
G54D10*
D03*
X-508466Y2111111D02*
G54D10*
D03*
X-327076Y2094654D02*
G54D13*
D03*
X-396926Y2094654D02*
G54D13*
D03*
X-444966Y2111112D02*
G54D30*
D03*
X-508466Y2111112D02*
G54D13*
D03*
X-549326Y2094654D02*
G54D13*
D03*
X-619176Y2094654D02*
G54D13*
D03*
X-508353Y2060131D02*
G54D29*
D03*
X-508466Y2111111D02*
G54D29*
D03*
X-444966Y2111111D02*
G54D29*
D03*
X-444853Y2060131D02*
G54D29*
D03*
X-272863Y2129096D02*
G54D12*
D03*
X-152213Y2125922D02*
G54D12*
D03*
X-272863Y2008446D02*
G54D12*
D03*
X-152213Y2008446D02*
G54D12*
D03*
X-133400Y2068771D02*
G54D12*
D03*
X-259356Y1962166D02*
G54D31*
D03*
X-157756Y1962166D02*
G54D31*
D03*
X-152213Y2125922D02*
G54D12*
D03*
X-687858Y1996358D02*
G54D12*
D03*
X-808508Y1999532D02*
G54D12*
D03*
X-687858Y2117008D02*
G54D12*
D03*
X-808508Y2117008D02*
G54D12*
D03*
X-827320Y2056683D02*
G54D12*
D03*
X-808507Y1999532D02*
G54D12*
D03*
X-808508Y2117008D02*
G54D12*
D03*
X-805456Y1962166D02*
G54D31*
D03*
X-703856Y1962166D02*
G54D31*
D03*
X-259356Y1962166D02*
G54D10*
D03*
X-805456Y1962166D02*
G54D10*
D03*
X-324202Y1285431D02*
G54D29*
D03*
X-324202Y1285431D02*
G54D29*
D03*
X-419452Y1285431D02*
G54D29*
D03*
X-419452Y1285431D02*
G54D29*
D03*
X-527402Y1285431D02*
G54D29*
D03*
X-527402Y1285431D02*
G54D29*
D03*
X-616302Y1285431D02*
G54D29*
D03*
X-616302Y1285431D02*
G54D29*
D03*
X-324202Y2187131D02*
G54D29*
D03*
X-324202Y2187131D02*
G54D29*
D03*
X-419452Y2187131D02*
G54D29*
D03*
X-419452Y2187131D02*
G54D29*
D03*
X-527402Y2187131D02*
G54D29*
D03*
X-527402Y2187131D02*
G54D29*
D03*
X-616302Y2187131D02*
G54D29*
D03*
X-616302Y2187131D02*
G54D29*
D03*
X-872938Y1740601D02*
G54D21*
D03*
X-79188Y1740601D02*
G54D21*
D03*
X532764Y1710690D02*
G54D14*
D03*
X542290Y2183764D02*
G54D14*
D03*
X542289Y2183765D02*
G54D14*
D03*
X-6986Y1710690D02*
G54D14*
D03*
X-19686Y2180590D02*
G54D14*
D03*
X-628039Y907915D02*
G54D12*
D03*
X-631213Y787265D02*
G54D12*
D03*
X-748688Y907915D02*
G54D12*
D03*
X-748688Y787265D02*
G54D12*
D03*
X-688364Y768452D02*
G54D12*
D03*
X-756238Y1009784D02*
G54D12*
D03*
X-753064Y1130434D02*
G54D12*
D03*
X-635588Y1009784D02*
G54D12*
D03*
X-635589Y1130434D02*
G54D12*
D03*
X-695914Y1149722D02*
G54D12*
D03*
X-801318Y945208D02*
G54D31*
D03*
X-801318Y843608D02*
G54D31*
D03*
X-801318Y945208D02*
G54D10*
D03*
X-801318Y945208D02*
G54D12*
D03*
X-805116Y1168404D02*
G54D31*
D03*
X-805116Y1066803D02*
G54D31*
D03*
X-805116Y1168404D02*
G54D10*
D03*
X-805116Y1168404D02*
G54D12*
D03*
X-631213Y787265D02*
G54D12*
D03*
X-635589Y1130434D02*
G54D12*
D03*
X-753064Y1130434D02*
G54D12*
D03*
X-635589Y1130434D02*
G54D12*
D03*
X-656828Y1216184D02*
G54D14*
D03*
X295672Y1216184D02*
G54D14*
D03*
X-656828Y317659D02*
G54D14*
D03*
X295672Y314484D02*
G54D14*
D03*
X379727Y955864D02*
G54D10*
D03*
X427527Y955864D02*
G54D10*
D03*
X379727Y955865D02*
G54D10*
D03*
X1288323Y740274D02*
G54D21*
D03*
X1288324Y714874D02*
G54D21*
D03*
X1288323Y352924D02*
G54D21*
D03*
X1288324Y327524D02*
G54D21*
D03*
X1257139Y599024D02*
G54D21*
D03*
X1282539Y599024D02*
G54D21*
D03*
X261705Y913683D02*
G54D32*
D03*
X264880Y818433D02*
G54D32*
D03*
X264880Y710483D02*
G54D32*
D03*
X264880Y618408D02*
G54D32*
D03*
X-165690Y457945D02*
G54D33*
D03*
X-421390Y457845D02*
G54D33*
D03*
X-320664Y489770D02*
G54D34*
D03*
X-295290Y489645D02*
G54D34*
D03*
X-269846Y489670D02*
G54D34*
D03*
X-72584Y556029D02*
G54D10*
D03*
X-72759Y607021D02*
G54D10*
D03*
X-370514Y619895D02*
G54D35*
D03*
X-419914Y555795D02*
G54D35*
D03*
X-381914Y555795D02*
G54D35*
D03*
X-408614Y619895D02*
G54D35*
D03*
X-519790Y569045D02*
G54D10*
D03*
X-519914Y619962D02*
G54D10*
D03*
X-256264Y597620D02*
G54D10*
D03*
X-180014Y597570D02*
G54D10*
D03*
X-522364Y500920D02*
G54D10*
D03*
X-522364Y526420D02*
G54D10*
D03*
X-256264Y549995D02*
G54D10*
D03*
X-180015Y549945D02*
G54D10*
D03*
X-281664Y969095D02*
G54D10*
D03*
X-332581Y968970D02*
G54D10*
D03*
X-316590Y924645D02*
G54D11*
D03*
X-299014Y908745D02*
G54D11*
D03*
X-281398Y924680D02*
G54D11*
D03*
X-310240Y1070695D02*
G54D10*
D03*
X-284814Y1070745D02*
G54D10*
D03*
X-256264Y924645D02*
G54D10*
D03*
X-180090Y924645D02*
G54D10*
D03*
X-434064Y984970D02*
G54D10*
D03*
X-357814Y984920D02*
G54D10*
D03*
X-275314Y873845D02*
G54D10*
D03*
X-326231Y873720D02*
G54D10*
D03*
X-281664Y810345D02*
G54D11*
D03*
X-299264Y826245D02*
G54D11*
D03*
X-316856Y810310D02*
G54D11*
D03*
X-281290Y749945D02*
G54D11*
D03*
X-299264Y765920D02*
G54D11*
D03*
X-316856Y749985D02*
G54D11*
D03*
X-256264Y810345D02*
G54D10*
D03*
X-180090Y810345D02*
G54D10*
D03*
X-281665Y689645D02*
G54D11*
D03*
X-299264Y705595D02*
G54D11*
D03*
X-316856Y689660D02*
G54D11*
D03*
X-434064Y753195D02*
G54D10*
D03*
X-357814Y753145D02*
G54D10*
D03*
X-433856Y709016D02*
G54D10*
D03*
X-357606Y708966D02*
G54D10*
D03*
X-256264Y689695D02*
G54D10*
D03*
X-179990Y689645D02*
G54D10*
D03*
X-194944Y644905D02*
G54D10*
D03*
X-245860Y644780D02*
G54D10*
D03*
X-256264Y765895D02*
G54D10*
D03*
X-180014Y765845D02*
G54D10*
D03*
X-98989Y671045D02*
G54D21*
D03*
X-123973Y620113D02*
G54D21*
D03*
X-148872Y671160D02*
G54D21*
D03*
X-91164Y857970D02*
G54D11*
D03*
X-108965Y873770D02*
G54D11*
D03*
X-126355Y857935D02*
G54D11*
D03*
X-446764Y1070695D02*
G54D10*
D03*
X-421190Y1070645D02*
G54D10*
D03*
X-148314Y959570D02*
G54D10*
D03*
X-72064Y959520D02*
G54D10*
D03*
X-148314Y918295D02*
G54D10*
D03*
X-72064Y918245D02*
G54D10*
D03*
X-167364Y867495D02*
G54D10*
D03*
X-218281Y867370D02*
G54D10*
D03*
X-148314Y823045D02*
G54D10*
D03*
X-72064Y822995D02*
G54D10*
D03*
X-72164Y696020D02*
G54D10*
D03*
X-72277Y747000D02*
G54D10*
D03*
X-72115Y778595D02*
G54D10*
D03*
X-148390Y778645D02*
G54D10*
D03*
X-497514Y937370D02*
G54D10*
D03*
X-472652Y937058D02*
G54D10*
D03*
X-468990Y753195D02*
G54D10*
D03*
X-519964Y753045D02*
G54D10*
D03*
X-434064Y797645D02*
G54D10*
D03*
X-357814Y797595D02*
G54D10*
D03*
X-370564Y676995D02*
G54D10*
D03*
X-421540Y676845D02*
G54D10*
D03*
X-493964Y673845D02*
G54D10*
D03*
X-519264Y674145D02*
G54D10*
D03*
X-468990Y883370D02*
G54D10*
D03*
X-519964Y883270D02*
G54D10*
D03*
X-148314Y1070695D02*
G54D10*
D03*
X-173790Y1070695D02*
G54D10*
D03*
X-434064Y851620D02*
G54D10*
D03*
X-357814Y851570D02*
G54D10*
D03*
X-370590Y886570D02*
G54D10*
D03*
X-421490Y886370D02*
G54D10*
D03*
X-405490Y937345D02*
G54D10*
D03*
X-380590Y937045D02*
G54D10*
D03*
X-256264Y969095D02*
G54D10*
D03*
X-180090Y969095D02*
G54D10*
D03*
X-256264Y1019895D02*
G54D10*
D03*
X-180090Y1019945D02*
G54D10*
D03*
X-434090Y1019945D02*
G54D10*
D03*
X-357889Y1019945D02*
G54D10*
D03*
X-281664Y1019895D02*
G54D10*
D03*
X-332581Y1019770D02*
G54D10*
D03*
X-223040Y1070695D02*
G54D36*
D03*
X-182964Y731280D02*
G54D10*
D03*
X-131984Y731392D02*
G54D10*
D03*
X-122865Y565820D02*
G54D10*
D03*
X-269790Y425345D02*
G54D34*
D03*
X-295090Y425545D02*
G54D34*
D03*
X-320577Y425476D02*
G54D34*
D03*
X67460Y414034D02*
G54D28*
D03*
X42060Y414034D02*
G54D28*
D03*
X67460Y464834D02*
G54D28*
D03*
X42060Y464834D02*
G54D28*
D03*
X-34140Y414034D02*
G54D27*
D03*
X-34140Y464834D02*
G54D28*
D03*
X110069Y405150D02*
G54D12*
D03*
X110069Y506750D02*
G54D12*
D03*
X148262Y331041D02*
G54D12*
D03*
X67460Y587468D02*
G54D28*
D03*
X42060Y587469D02*
G54D28*
D03*
X67460Y638268D02*
G54D28*
D03*
X42060Y638268D02*
G54D28*
D03*
X-34140Y587468D02*
G54D28*
D03*
X-34140Y638268D02*
G54D28*
D03*
X34360Y544839D02*
G54D21*
D03*
X9377Y493906D02*
G54D21*
D03*
X-15522Y544953D02*
G54D21*
D03*
X69842Y936719D02*
G54D28*
D03*
X44442Y936718D02*
G54D28*
D03*
X69842Y987518D02*
G54D28*
D03*
X44442Y987518D02*
G54D28*
D03*
X-31758Y936718D02*
G54D28*
D03*
X-31758Y987518D02*
G54D28*
D03*
X69842Y1112137D02*
G54D28*
D03*
X44442Y1112137D02*
G54D28*
D03*
X69842Y1162938D02*
G54D28*
D03*
X44442Y1162937D02*
G54D28*
D03*
X-31758Y1112138D02*
G54D28*
D03*
X-31758Y1162937D02*
G54D28*
D03*
X36742Y1073476D02*
G54D21*
D03*
X11758Y1022544D02*
G54D21*
D03*
X-13141Y1073590D02*
G54D21*
D03*
X32773Y807173D02*
G54D21*
D03*
X7790Y756241D02*
G54D21*
D03*
X-17110Y807288D02*
G54D21*
D03*
X68254Y850200D02*
G54D28*
D03*
X42854Y850200D02*
G54D28*
D03*
X68254Y901000D02*
G54D28*
D03*
X42854Y901000D02*
G54D28*
D03*
X-33346Y850200D02*
G54D28*
D03*
X-33346Y901000D02*
G54D28*
D03*
X66667Y677956D02*
G54D28*
D03*
X41267Y677956D02*
G54D28*
D03*
X66667Y728756D02*
G54D28*
D03*
X41267Y728756D02*
G54D28*
D03*
X-34933Y677956D02*
G54D28*
D03*
X-34933Y728756D02*
G54D28*
D03*
X110069Y540485D02*
G54D12*
D03*
X110069Y642085D02*
G54D12*
D03*
X110466Y676613D02*
G54D12*
D03*
X110466Y778213D02*
G54D12*
D03*
X110466Y811154D02*
G54D12*
D03*
X110466Y912754D02*
G54D12*
D03*
X109276Y945694D02*
G54D12*
D03*
X109276Y1047294D02*
G54D12*
D03*
X107688Y1079044D02*
G54D12*
D03*
X107688Y1180644D02*
G54D12*
D03*
X157961Y944488D02*
G54D21*
D03*
X-79370Y416644D02*
G54D21*
D03*
X-34140Y464834D02*
G54D27*
D03*
X42060Y414034D02*
G54D27*
D03*
X67460Y414034D02*
G54D27*
D03*
X42060Y464834D02*
G54D27*
D03*
X67460Y464834D02*
G54D27*
D03*
X-34140Y587468D02*
G54D27*
D03*
X-34140Y638268D02*
G54D27*
D03*
X42060Y587469D02*
G54D27*
D03*
X67460Y587468D02*
G54D27*
D03*
X67460Y638268D02*
G54D27*
D03*
X42061Y638268D02*
G54D27*
D03*
X41267Y677956D02*
G54D27*
D03*
X66667Y677956D02*
G54D27*
D03*
X66667Y728756D02*
G54D27*
D03*
X41267Y728756D02*
G54D27*
D03*
X-34933Y677956D02*
G54D27*
D03*
X-34933Y728756D02*
G54D27*
D03*
X-33346Y850200D02*
G54D27*
D03*
X42854Y850200D02*
G54D27*
D03*
X-33346Y901000D02*
G54D27*
D03*
X42854Y901000D02*
G54D27*
D03*
X68254Y901000D02*
G54D27*
D03*
X68254Y850200D02*
G54D27*
D03*
X-31758Y936718D02*
G54D27*
D03*
X-31758Y987518D02*
G54D27*
D03*
X44442Y936718D02*
G54D27*
D03*
X69842Y936719D02*
G54D27*
D03*
X69842Y987518D02*
G54D27*
D03*
X44442Y987519D02*
G54D27*
D03*
X-31758Y1112138D02*
G54D27*
D03*
X-31758Y1162937D02*
G54D27*
D03*
X44442Y1112137D02*
G54D27*
D03*
X69842Y1112137D02*
G54D27*
D03*
X69842Y1162938D02*
G54D27*
D03*
X44442Y1162937D02*
G54D27*
D03*
X32773Y807173D02*
G54D21*
D03*
X36742Y1073476D02*
G54D21*
D03*
X65476Y220361D02*
G54D28*
D03*
X40076Y220361D02*
G54D28*
D03*
X65476Y271161D02*
G54D28*
D03*
X40076Y271161D02*
G54D28*
D03*
X-36124Y220361D02*
G54D27*
D03*
X-36124Y271161D02*
G54D28*
D03*
X-36124Y271161D02*
G54D27*
D03*
X40076Y220361D02*
G54D27*
D03*
X65476Y220361D02*
G54D27*
D03*
X40076Y271161D02*
G54D27*
D03*
X65476Y271161D02*
G54D27*
D03*
X-73193Y316239D02*
G54D21*
D03*
X-98176Y265306D02*
G54D21*
D03*
X-123075Y316353D02*
G54D21*
D03*
X102224Y329850D02*
G54D12*
D03*
X102224Y228251D02*
G54D12*
D03*
X148262Y331041D02*
G54D12*
D03*
X148262Y229441D02*
G54D12*
D03*
X66270Y322755D02*
G54D28*
D03*
X40870Y322755D02*
G54D28*
D03*
X66270Y373555D02*
G54D28*
D03*
X40870Y373555D02*
G54D28*
D03*
X-35330Y322754D02*
G54D27*
D03*
X-35331Y373555D02*
G54D28*
D03*
X-35331Y373555D02*
G54D27*
D03*
X40870Y322755D02*
G54D27*
D03*
X66270Y322755D02*
G54D27*
D03*
X40869Y373555D02*
G54D27*
D03*
X66270Y373555D02*
G54D27*
D03*
X-168230Y1222677D02*
G54D32*
D03*
X-168230Y308277D02*
G54D32*
D03*
X-360595Y392983D02*
G54D12*
D03*
X-227245Y259633D02*
G54D12*
D03*
X-227245Y278683D02*
G54D12*
D03*
X-227245Y297733D02*
G54D12*
D03*
X-227245Y316783D02*
G54D12*
D03*
X-227245Y335833D02*
G54D12*
D03*
X-227245Y354883D02*
G54D12*
D03*
X-227245Y373933D02*
G54D12*
D03*
X-227245Y392983D02*
G54D12*
D03*
X-227245Y240583D02*
G54D12*
D03*
X-227245Y221533D02*
G54D12*
D03*
X-227245Y221533D02*
G54D12*
D03*
X-322495Y392983D02*
G54D12*
D03*
X-303445Y392983D02*
G54D12*
D03*
X-284395Y392983D02*
G54D12*
D03*
X-265345Y392983D02*
G54D12*
D03*
X-246295Y392983D02*
G54D12*
D03*
X-341545Y392983D02*
G54D12*
D03*
X-360595Y392983D02*
G54D12*
D03*
X-227245Y392983D02*
G54D12*
D03*
X-561930Y1089327D02*
G54D12*
D03*
X167686Y1174884D02*
G54D12*
D03*
X58734Y1792689D02*
G54D10*
D03*
X688714Y810635D02*
G54D10*
D03*
X663139Y810686D02*
G54D10*
D03*
X688085Y861482D02*
G54D10*
D03*
X662510Y861532D02*
G54D10*
D03*
X1281974Y879974D02*
G54D21*
D03*
X1281974Y854574D02*
G54D21*
D03*
X1281974Y829174D02*
G54D21*
D03*
X1288324Y197349D02*
G54D21*
D03*
X610818Y2188105D02*
G54D12*
D03*
X1206182Y2187936D02*
G54D12*
D03*
X1206182Y1351323D02*
G54D12*
D03*
X794968Y2188105D02*
G54D12*
D03*
X693368Y2191280D02*
G54D12*
D03*
X507732Y249648D02*
G54D10*
D03*
X648918Y2191280D02*
G54D12*
D03*
X-59107Y1829330D02*
G54D37*
D03*
X1118968Y872507D02*
G54D10*
D03*
X1207046Y861236D02*
G54D10*
D03*
X1159246Y861236D02*
G54D10*
D03*
X1288323Y219574D02*
G54D21*
D03*
X-840184Y1166971D02*
G54D10*
D03*
X-840234Y1090721D02*
G54D10*
D03*
X-840234Y1090721D02*
G54D13*
D03*
X-853119Y1213400D02*
G54D10*
D03*
X-827644Y1213400D02*
G54D10*
D03*
X8052Y1758716D02*
G54D10*
D03*
X-18935Y1758716D02*
G54D10*
D03*
X144578Y1865079D02*
G54D10*
D03*
X144578Y1839679D02*
G54D10*
D03*
X144578Y1804754D02*
G54D15*
D03*
X-20522Y1792054D02*
G54D15*
D03*
X544627Y2023830D02*
G54D10*
D03*
X544627Y2049229D02*
G54D10*
D03*
X566916Y2071846D02*
G54D15*
D03*
X1239952Y1738079D02*
G54D10*
D03*
X1239952Y1712679D02*
G54D10*
D03*
X1208266Y1754346D02*
G54D15*
D03*
X1255828Y1363429D02*
G54D10*
D03*
X1255828Y1338029D02*
G54D10*
D03*
X1284466Y1386046D02*
G54D15*
D03*
X697028Y1191979D02*
G54D10*
D03*
X697028Y1169754D02*
G54D10*
D03*
X700266Y1233646D02*
G54D15*
D03*
X674866Y1157446D02*
G54D15*
D03*
X311627Y1151172D02*
G54D10*
D03*
X295911Y1166888D02*
G54D10*
D03*
X306566Y1125696D02*
G54D15*
D03*
X274816Y1157446D02*
G54D15*
D03*
X533435Y931709D02*
G54D10*
D03*
X517720Y947424D02*
G54D10*
D03*
X509766Y979646D02*
G54D15*
D03*
X563740Y935196D02*
G54D15*
D03*
X11228Y1798404D02*
G54D15*
D03*
X576378Y2046054D02*
G54D15*
D03*
X531928Y1982554D02*
G54D15*
D03*
X554216Y1982946D02*
G54D15*
D03*
X1211378Y1722204D02*
G54D15*
D03*
X1281228Y1722204D02*
G54D15*
D03*
X1278116Y1690846D02*
G54D15*
D03*
X1293928Y1360254D02*
G54D15*
D03*
X1227316Y1322546D02*
G54D15*
D03*
X36628Y1734904D02*
G54D15*
D03*
X62028Y1734904D02*
G54D15*
D03*
X703378Y1265004D02*
G54D15*
D03*
X671628Y1118954D02*
G54D15*
D03*
X481128Y979254D02*
G54D15*
D03*
X595428Y934804D02*
G54D15*
D03*
X258878Y1176104D02*
G54D15*
D03*
X309678Y1093554D02*
G54D15*
D03*
X211316Y1157446D02*
G54D15*
D03*
X208297Y1180267D02*
G54D15*
D03*
X652578Y890354D02*
G54D15*
D03*
X652640Y916146D02*
G54D15*
D03*
X-689900Y603088D02*
G54D16*
D03*
X-775625Y603088D02*
G54D16*
D03*
X-693075Y387188D02*
G54D16*
D03*
X-769275Y387188D02*
G54D16*
D03*
X-667675Y603088D02*
G54D16*
D03*
X-820075Y603088D02*
G54D16*
D03*
X-667675Y387188D02*
G54D16*
D03*
X-721797Y490385D02*
G54D10*
D03*
X-645547Y490336D02*
G54D10*
D03*
X-851972Y490385D02*
G54D10*
D03*
X-775722Y490336D02*
G54D10*
D03*
X-607971Y388022D02*
G54D12*
D03*
X-607971Y286422D02*
G54D12*
D03*
X-820075Y387188D02*
G54D12*
D03*
X-820075Y285588D02*
G54D12*
D03*
X-572065Y354971D02*
G54D10*
D03*
X-571953Y303990D02*
G54D10*
D03*
X-859402Y354971D02*
G54D10*
D03*
X-859290Y303990D02*
G54D10*
D03*
X-835685Y256745D02*
G54D21*
D03*
X-810786Y205698D02*
G54D21*
D03*
X-676519Y205813D02*
G54D21*
D03*
X-651535Y256745D02*
G54D21*
D03*
X-626636Y205698D02*
G54D21*
D03*
X-719702Y272420D02*
G54D10*
D03*
X-719590Y221440D02*
G54D10*
D03*
X-757802Y272420D02*
G54D10*
D03*
X-757690Y221440D02*
G54D10*
D03*
X-721747Y179185D02*
G54D10*
D03*
X-772547Y179185D02*
G54D10*
D03*
X-839125Y603088D02*
G54D16*
D03*
X-648625Y603088D02*
G54D16*
D03*
X-854319Y205813D02*
G54D21*
D03*
X-522364Y526420D02*
G54D10*
D03*
X-881139Y625539D02*
G54D10*
D03*
X-881140Y651039D02*
G54D10*
D03*
X-569072Y873402D02*
G54D12*
D03*
X111170Y-94948D02*
G54D12*
D03*
X568370Y-94948D02*
G54D38*
D03*
X-78556Y2312484D02*
G54D12*
D03*
X-199206Y2315657D02*
G54D12*
D03*
X-78556Y2433134D02*
G54D12*
D03*
X-199206Y2433134D02*
G54D12*
D03*
X-218018Y2372808D02*
G54D12*
D03*
X-199206Y2315657D02*
G54D12*
D03*
X-272634Y2431015D02*
G54D31*
D03*
X-272634Y2329415D02*
G54D10*
D03*
X-199206Y2315657D02*
G54D12*
D03*
X225470Y2314877D02*
G54D12*
D03*
X104820Y2318051D02*
G54D12*
D03*
X225470Y2435527D02*
G54D12*
D03*
X104820Y2435527D02*
G54D12*
D03*
X86008Y2375202D02*
G54D12*
D03*
X104820Y2318050D02*
G54D12*
D03*
X31392Y2433409D02*
G54D31*
D03*
X31392Y2331809D02*
G54D10*
D03*
X104820Y2318051D02*
G54D12*
D03*
X-786182Y2267480D02*
G54D12*
D03*
X-856834Y2367515D02*
G54D24*
D03*
X-357808Y2246712D02*
G54D14*
D03*
X-738808Y2198293D02*
G54D14*
D03*
X-749920Y1266430D02*
G54D14*
D03*
X-564521Y1269474D02*
G54D12*
D03*
X-557997Y2213469D02*
G54D12*
D03*
X-409199Y2223375D02*
G54D12*
D03*
X-563932Y-62970D02*
G54D12*
D03*
X-532182Y-62970D02*
G54D12*
D03*
X-500432Y-62970D02*
G54D12*
D03*
X-562996Y-95270D02*
G54D10*
D03*
X-486746Y-95320D02*
G54D10*
D03*
X-477084Y2157D02*
G54D12*
D03*
X-578684Y2157D02*
G54D12*
D03*
X-438984Y-131193D02*
G54D12*
D03*
X-438984Y-29593D02*
G54D12*
D03*
X-469543Y-157364D02*
G54D10*
D03*
X-520524Y-157477D02*
G54D10*
D03*
X-615792Y-146076D02*
G54D21*
D03*
X-562111Y-127728D02*
G54D21*
D03*
X-580600Y-181429D02*
G54D21*
D03*
X-443282Y13230D02*
G54D12*
D03*
X-520524Y-157477D02*
G54D21*
D03*
X-573247Y72696D02*
G54D12*
D03*
X-570073Y193346D02*
G54D12*
D03*
X-452597Y72697D02*
G54D12*
D03*
X-452597Y193346D02*
G54D12*
D03*
X-512922Y212159D02*
G54D12*
D03*
X-570074Y193346D02*
G54D12*
D03*
X-452597Y193346D02*
G54D12*
D03*
X-616434Y58116D02*
G54D31*
D03*
X-616434Y159715D02*
G54D31*
D03*
X741444Y-286167D02*
G54D10*
D03*
X665144Y-286168D02*
G54D10*
D03*
X703344Y-285373D02*
G54D10*
D03*
X111170Y-94948D02*
G54D38*
D03*
X1300244Y-283388D02*
G54D10*
D03*
X1223944Y-283389D02*
G54D10*
D03*
X1262144Y-283388D02*
G54D10*
D03*
X350765Y1449703D02*
G54D10*
D03*
X294202Y1933360D02*
G54D10*
D03*
X313820Y1952978D02*
G54D10*
D03*
X350765Y1640203D02*
G54D10*
D03*
X274565Y1595753D02*
G54D10*
D03*
X-25400Y1387475D02*
G54D10*
D03*
X0Y1209675D02*
G54D10*
D03*
X-572972Y541104D02*
G54D15*
D03*
X-572972Y566504D02*
G54D15*
D03*
X-512248Y1082460D02*
G54D10*
D03*
X-494217Y1100492D02*
G54D10*
D03*
X-484072Y1131654D02*
G54D15*
D03*
X-458672Y1131654D02*
G54D15*
D03*
X-166847Y-143204D02*
G54D12*
D03*
X-163673Y-22554D02*
G54D12*
D03*
X-46197Y-143203D02*
G54D12*
D03*
X-46197Y-22554D02*
G54D12*
D03*
X-106522Y-3741D02*
G54D12*
D03*
X-163674Y-22554D02*
G54D12*
D03*
X-46197Y-22554D02*
G54D12*
D03*
X-229407Y-72340D02*
G54D31*
D03*
X-229407Y29260D02*
G54D31*
D03*
X-684105Y-68749D02*
G54D10*
D03*
X-684105Y-94249D02*
G54D10*
D03*
X-876678Y822480D02*
G54D39*
D03*
X394097Y152559D02*
G54D40*
D03*
G36*
X366515Y250010D02*
X366515Y194010D01*
X335515Y194010D01*
X335515Y250010D01*
X366515Y250010D01*
G37*
G36*
X366515Y104359D02*
X366515Y48359D01*
X335515Y48359D01*
X335515Y104359D01*
X366515Y104359D01*
G37*
G36*
X309365Y236919D02*
X309365Y180919D01*
X278365Y180919D01*
X278365Y236919D01*
X309365Y236919D01*
G37*
G36*
X309365Y133727D02*
X309365Y77727D01*
X278365Y77727D01*
X278365Y133727D01*
X309365Y133727D01*
G37*
G36*
X207765Y229374D02*
X207765Y173374D01*
X176765Y173374D01*
X176765Y229374D01*
X207765Y229374D01*
G37*
G36*
X207765Y136109D02*
X207765Y80109D01*
X176765Y80109D01*
X176765Y136109D01*
X207765Y136109D01*
G37*
G36*
X309365Y275813D02*
X309365Y219813D01*
X278365Y219813D01*
X278365Y275813D01*
X309365Y275813D01*
G37*
G36*
X309365Y82131D02*
X309365Y26131D01*
X278365Y26131D01*
X278365Y82131D01*
X309365Y82131D01*
G37*
G36*
X207765Y180559D02*
X207765Y124559D01*
X176765Y124559D01*
X176765Y180559D01*
X207765Y180559D01*
G37*
G36*
X366515Y272633D02*
X366515Y216633D01*
X335515Y216633D01*
X335515Y272633D01*
X366515Y272633D01*
G37*
G36*
X366515Y78959D02*
X366515Y22959D01*
X335515Y22959D01*
X335515Y78959D01*
X366515Y78959D01*
G37*
X140097Y149384D02*
G54D40*
D03*
G36*
X84539Y188182D02*
X110539Y188182D01*
X110539Y162182D01*
X84539Y162182D01*
X84539Y188182D01*
G37*
G36*
X84539Y137382D02*
X110539Y137382D01*
X110539Y111382D01*
X84539Y111382D01*
X84539Y137382D01*
G37*
X-990203Y2654459D02*
G54D14*
D03*
X-294878Y2506821D02*
G54D14*
D03*
X1184672Y109696D02*
G54D14*
D03*
X-980678Y-296704D02*
G54D14*
D03*
X-193278Y-258604D02*
G54D14*
D03*
X-363129Y2410361D02*
G54D12*
D03*
X-363129Y2378611D02*
G54D12*
D03*
X-363129Y2346861D02*
G54D12*
D03*
X-454979Y2314256D02*
G54D10*
D03*
X-407179Y2314256D02*
G54D10*
D03*
X-451804Y2441256D02*
G54D10*
D03*
X-404004Y2441256D02*
G54D10*
D03*
X-528229Y2404011D02*
G54D12*
D03*
X-528229Y2372261D02*
G54D12*
D03*
X-528229Y2340511D02*
G54D12*
D03*
X-620079Y2311081D02*
G54D10*
D03*
X-572279Y2311081D02*
G54D10*
D03*
X-642304Y2419030D02*
G54D10*
D03*
X-594504Y2419031D02*
G54D10*
D03*
X-731429Y-28039D02*
G54D12*
D03*
X-731429Y-59789D02*
G54D12*
D03*
X-731429Y-91539D02*
G54D12*
D03*
X-823279Y-124144D02*
G54D10*
D03*
X-775479Y-124144D02*
G54D10*
D03*
X-820104Y2856D02*
G54D10*
D03*
X-772304Y2856D02*
G54D10*
D03*
X-616434Y58116D02*
G54D12*
D03*
X-229407Y-72340D02*
G54D12*
D03*
X-678022Y85159D02*
G54D12*
D03*
X293866Y1982946D02*
G54D15*
D03*
X284278Y1963504D02*
G54D15*
D03*
X310306Y2072990D02*
G54D10*
D03*
X328337Y2091021D02*
G54D10*
D03*
X306566Y2116296D02*
G54D15*
D03*
X287453Y2100029D02*
G54D15*
D03*
X-801764Y81820D02*
G54D10*
D03*
X-801765Y107320D02*
G54D10*
D03*
X-884314Y-184880D02*
G54D10*
D03*
X-884315Y-159380D02*
G54D10*
D03*
X-799684Y2450065D02*
G54D24*
D03*
X-911180Y111427D02*
G54D12*
D03*
X-878466Y774168D02*
G54D39*
D03*
X-717268Y2562527D02*
G54D12*
D03*
X-666468Y2562527D02*
G54D12*
D03*
X-615668Y2562527D02*
G54D12*
D03*
X-564868Y2562527D02*
G54D12*
D03*
X-869668Y2562527D02*
G54D12*
D03*
X-818868Y2562527D02*
G54D12*
D03*
X-444966Y1895212D02*
G54D29*
D03*
X-508466Y1679311D02*
G54D29*
D03*
X-444966Y1679312D02*
G54D29*
D03*
X-508466Y1463411D02*
G54D29*
D03*
X-444966Y1463411D02*
G54D29*
D03*
X167597Y1868254D02*
G54D15*
D03*
X1161231Y1067008D02*
G54D10*
D03*
X1161181Y990758D02*
G54D10*
D03*
X1242224Y1070408D02*
G54D10*
D03*
X1242112Y1121388D02*
G54D10*
D03*
X1127925Y1095808D02*
G54D10*
D03*
X1127812Y1146788D02*
G54D10*
D03*
X1161215Y1295608D02*
G54D10*
D03*
X1161165Y1219358D02*
G54D10*
D03*
X1040494Y1038994D02*
G54D10*
D03*
X1116744Y1038944D02*
G54D10*
D03*
X1115535Y1219358D02*
G54D10*
D03*
X1115585Y1295608D02*
G54D10*
D03*
X983432Y1067008D02*
G54D10*
D03*
X983382Y990759D02*
G54D10*
D03*
X1086100Y1191524D02*
G54D10*
D03*
X988535Y1193958D02*
G54D10*
D03*
X988585Y1270208D02*
G54D10*
D03*
X912335Y1193958D02*
G54D10*
D03*
X912385Y1270208D02*
G54D10*
D03*
X861535Y1193958D02*
G54D10*
D03*
X861585Y1270208D02*
G54D10*
D03*
X762064Y1127914D02*
G54D10*
D03*
X813044Y1128026D02*
G54D10*
D03*
X833518Y997190D02*
G54D10*
D03*
X909768Y997140D02*
G54D10*
D03*
X1048860Y1114582D02*
G54D11*
D03*
X1064760Y1132158D02*
G54D11*
D03*
X1048826Y1149774D02*
G54D11*
D03*
X947260Y1114583D02*
G54D11*
D03*
X963160Y1132158D02*
G54D11*
D03*
X947225Y1149774D02*
G54D11*
D03*
X871060Y1114583D02*
G54D11*
D03*
X886960Y1132158D02*
G54D11*
D03*
X871025Y1149774D02*
G54D11*
D03*
X1266372Y1191476D02*
G54D12*
D03*
X1215572Y1191476D02*
G54D12*
D03*
X1240972Y1216876D02*
G54D12*
D03*
X1215572Y1242276D02*
G54D12*
D03*
X1266372Y1242276D02*
G54D12*
D03*
X798060Y1190683D02*
G54D12*
D03*
X747260Y1190683D02*
G54D12*
D03*
X772660Y1216083D02*
G54D12*
D03*
X747260Y1241483D02*
G54D12*
D03*
X798060Y1241482D02*
G54D12*
D03*
X1096534Y966374D02*
G54D10*
D03*
X1045554Y966261D02*
G54D10*
D03*
X1161215Y1295608D02*
G54D13*
D03*
X1285636Y935990D02*
G54D14*
D03*
X1035300Y1191524D02*
G54D10*
D03*
X1032985Y1219358D02*
G54D10*
D03*
X1033035Y1295608D02*
G54D10*
D03*
X1292760Y1139983D02*
G54D15*
D03*
X1115585Y1295608D02*
G54D13*
D03*
X1033035Y1295608D02*
G54D13*
D03*
X988585Y1270208D02*
G54D13*
D03*
X912385Y1270208D02*
G54D13*
D03*
X725804Y936782D02*
G54D14*
D03*
X1285636Y1294764D02*
G54D14*
D03*
X726439Y1293177D02*
G54D14*
D03*
X1206182Y1351324D02*
G54D10*
D03*
X735160Y1150383D02*
G54D15*
D03*
X1239416Y1013084D02*
G54D10*
D03*
X769516Y1013084D02*
G54D10*
D03*
X805894Y877843D02*
G54D10*
D03*
X850844Y1998772D02*
G54D10*
D03*
X850894Y2075022D02*
G54D10*
D03*
X769851Y1995371D02*
G54D10*
D03*
X769963Y1944390D02*
G54D10*
D03*
X884150Y1969972D02*
G54D10*
D03*
X884262Y1918991D02*
G54D10*
D03*
X850860Y1770172D02*
G54D10*
D03*
X850910Y1846422D02*
G54D10*
D03*
X971581Y2026786D02*
G54D10*
D03*
X895331Y2026836D02*
G54D10*
D03*
X896540Y1846422D02*
G54D10*
D03*
X896490Y1770172D02*
G54D10*
D03*
X1028644Y1998770D02*
G54D10*
D03*
X1028693Y2075020D02*
G54D10*
D03*
X925975Y1874255D02*
G54D10*
D03*
X1023540Y1871822D02*
G54D10*
D03*
X1023490Y1795572D02*
G54D10*
D03*
X1099740Y1871822D02*
G54D10*
D03*
X1099690Y1795572D02*
G54D10*
D03*
X1150540Y1871822D02*
G54D10*
D03*
X1150490Y1795572D02*
G54D10*
D03*
X1250012Y1937866D02*
G54D10*
D03*
X1199031Y1937754D02*
G54D10*
D03*
X1178556Y2068590D02*
G54D10*
D03*
X1102307Y2068640D02*
G54D10*
D03*
X963215Y1951197D02*
G54D11*
D03*
X947315Y1933622D02*
G54D11*
D03*
X963249Y1916006D02*
G54D11*
D03*
X1064815Y1951196D02*
G54D11*
D03*
X1048915Y1933622D02*
G54D11*
D03*
X1064850Y1916006D02*
G54D11*
D03*
X1141015Y1951196D02*
G54D11*
D03*
X1125115Y1933622D02*
G54D11*
D03*
X1141050Y1916006D02*
G54D11*
D03*
X744115Y1875097D02*
G54D12*
D03*
X794915Y1875096D02*
G54D12*
D03*
X769515Y1849697D02*
G54D12*
D03*
X794915Y1824296D02*
G54D12*
D03*
X744115Y1824296D02*
G54D12*
D03*
X1214015Y1875096D02*
G54D12*
D03*
X1264815Y1875096D02*
G54D12*
D03*
X1239414Y1849696D02*
G54D12*
D03*
X1264814Y1824296D02*
G54D12*
D03*
X1214015Y1824296D02*
G54D12*
D03*
X915541Y2099406D02*
G54D10*
D03*
X966521Y2099518D02*
G54D10*
D03*
X850860Y1770172D02*
G54D13*
D03*
X726439Y2129790D02*
G54D14*
D03*
X976775Y1874255D02*
G54D10*
D03*
X979090Y1846422D02*
G54D10*
D03*
X979040Y1770172D02*
G54D10*
D03*
X808090Y2131572D02*
G54D10*
D03*
X719315Y1925797D02*
G54D15*
D03*
X896490Y1770172D02*
G54D13*
D03*
X979040Y1770172D02*
G54D13*
D03*
X1023490Y1795572D02*
G54D13*
D03*
X1099690Y1795572D02*
G54D13*
D03*
X1286271Y2128996D02*
G54D14*
D03*
X726439Y1771015D02*
G54D41*
D03*
X1285636Y1772602D02*
G54D14*
D03*
X1276915Y1915397D02*
G54D15*
D03*
X-751841Y-214085D02*
G54D12*
D03*
X-681197Y-215672D02*
G54D12*
D03*
X261865Y1259203D02*
G54D42*
D03*
X287265Y1259203D02*
G54D42*
D03*
X1214205Y983533D02*
G54D12*
D03*
X-389686Y-32251D02*
G54D12*
D03*
X-876678Y517680D02*
G54D39*
D03*
X-875291Y564618D02*
G54D39*
D03*
X-389685Y-57751D02*
G54D10*
D03*
X-389686Y-32251D02*
G54D10*
D03*
X-885680Y111428D02*
G54D10*
D03*
X-911180Y111427D02*
G54D10*
D03*
X-357420Y158033D02*
G54D12*
D03*
X-227245Y177083D02*
G54D12*
D03*
X-227245Y158033D02*
G54D12*
D03*
X-322495Y158033D02*
G54D12*
D03*
X-303445Y158033D02*
G54D12*
D03*
X-284395Y158033D02*
G54D12*
D03*
X-265345Y158033D02*
G54D12*
D03*
X-246295Y158033D02*
G54D12*
D03*
X-341545Y158033D02*
G54D12*
D03*
X-227245Y158033D02*
G54D12*
D03*
X-392345Y180258D02*
G54D12*
D03*
X-392345Y199308D02*
G54D12*
D03*
X-392345Y158033D02*
G54D12*
D03*
X-392345Y335833D02*
G54D12*
D03*
X-392345Y354883D02*
G54D12*
D03*
X-392345Y373933D02*
G54D12*
D03*
X-392345Y392983D02*
G54D12*
D03*
X-392345Y278683D02*
G54D12*
D03*
X-392345Y297733D02*
G54D12*
D03*
X-392345Y316783D02*
G54D12*
D03*
X-392345Y335833D02*
G54D12*
D03*
X-392345Y221533D02*
G54D12*
D03*
X-392345Y240583D02*
G54D12*
D03*
X-392345Y259633D02*
G54D12*
D03*
X-392345Y278683D02*
G54D12*
D03*
X-372190Y394370D02*
G54D12*
D03*
X-227245Y199308D02*
G54D12*
D03*
X-373295Y158033D02*
G54D12*
D03*
X-580730Y1188959D02*
G54D10*
D03*
X-580730Y1165444D02*
G54D10*
D03*
X-555330Y1188959D02*
G54D10*
D03*
X-555330Y1165444D02*
G54D10*
D03*
X-859790Y683647D02*
G54D10*
D03*
X1123224Y232274D02*
G54D21*
D03*
X1215225Y169336D02*
G54D10*
D03*
X1240800Y169285D02*
G54D10*
D03*
X963911Y133879D02*
G54D11*
D03*
X946336Y149779D02*
G54D11*
D03*
X928720Y133844D02*
G54D11*
D03*
X809000Y131185D02*
G54D10*
D03*
X694700Y131185D02*
G54D10*
D03*
X-588174Y-262464D02*
G54D10*
D03*
X-562600Y-262515D02*
G54D10*
D03*
X-562600Y-262515D02*
G54D10*
D03*
X-537026Y-262566D02*
G54D10*
D03*
X885836Y146870D02*
G54D21*
D03*
X1311320Y162227D02*
G54D12*
D03*
X1311321Y136727D02*
G54D10*
D03*
X1311320Y162227D02*
G54D10*
D03*
X1260872Y-93504D02*
G54D14*
D03*
X-736918Y2480036D02*
G54D12*
D03*
X-952218Y28877D02*
G54D12*
D03*
X-952218Y-21923D02*
G54D12*
D03*
X-952218Y-72723D02*
G54D12*
D03*
X-952218Y-123523D02*
G54D12*
D03*
X-537026Y-262566D02*
G54D10*
D03*
X-511451Y-262616D02*
G54D10*
D03*
X-652622Y110559D02*
G54D12*
D03*
X-678022Y8959D02*
G54D12*
D03*
X-627222Y-79941D02*
G54D12*
D03*
X-654534Y-157784D02*
G54D12*
D03*
X-511451Y-262616D02*
G54D10*
D03*
X-485876Y-262666D02*
G54D10*
D03*
X-484864Y-294555D02*
G54D10*
D03*
X-413368Y-294614D02*
G54D10*
D03*
G36*
X366515Y123409D02*
X366515Y67409D01*
X335515Y67409D01*
X335515Y123409D01*
X366515Y123409D01*
G37*
X352153Y2455988D02*
G54D11*
D03*
X336253Y2438413D02*
G54D11*
D03*
X352188Y2420797D02*
G54D11*
D03*
X691449Y2272781D02*
G54D10*
D03*
X691499Y2349030D02*
G54D10*
D03*
X155451Y2495158D02*
G54D10*
D03*
X231701Y2495108D02*
G54D10*
D03*
X596264Y1526540D02*
G54D14*
D03*
X40650Y1197985D02*
G54D10*
D03*
X-29200Y143885D02*
G54D10*
D03*
X17066Y1297940D02*
G54D21*
D03*
X500221Y2390741D02*
G54D43*
D03*
X525621Y2390741D02*
G54D43*
D03*
X551021Y2390741D02*
G54D43*
D03*
X576421Y2390741D02*
G54D43*
D03*
X601821Y2390741D02*
G54D43*
D03*
X627221Y2390741D02*
G54D43*
D03*
X652621Y2390741D02*
G54D43*
D03*
X678021Y2390741D02*
G54D43*
D03*
X703421Y2390741D02*
G54D43*
D03*
X728821Y2390741D02*
G54D43*
D03*
X754221Y2390741D02*
G54D43*
D03*
X779621Y2390741D02*
G54D43*
D03*
X805021Y2390741D02*
G54D43*
D03*
X830421Y2390741D02*
G54D43*
D03*
X855821Y2390741D02*
G54D43*
D03*
X500221Y2543141D02*
G54D43*
D03*
X525621Y2543141D02*
G54D43*
D03*
X551021Y2543141D02*
G54D43*
D03*
X576421Y2543141D02*
G54D43*
D03*
X601821Y2543141D02*
G54D43*
D03*
X627221Y2543141D02*
G54D43*
D03*
X652621Y2543141D02*
G54D43*
D03*
X678021Y2543141D02*
G54D43*
D03*
X703421Y2543141D02*
G54D43*
D03*
X728821Y2543141D02*
G54D43*
D03*
X754221Y2543141D02*
G54D43*
D03*
X779621Y2543141D02*
G54D43*
D03*
X805021Y2543141D02*
G54D43*
D03*
X830421Y2543141D02*
G54D43*
D03*
X855821Y2543141D02*
G54D43*
D03*
X474980Y2543300D02*
G54D44*
D03*
X474980Y2390900D02*
G54D44*
D03*
X501237Y2492087D02*
G54D43*
D03*
X475837Y2492087D02*
G54D43*
D03*
X501237Y2466687D02*
G54D43*
D03*
X475837Y2466687D02*
G54D43*
D03*
X501237Y2441287D02*
G54D43*
D03*
X475837Y2441287D02*
G54D43*
D03*
X-59506Y2379157D02*
G54D12*
D03*
X79315Y2533174D02*
G54D10*
D03*
X3065Y2533225D02*
G54D10*
D03*
X288889Y2437447D02*
G54D10*
D03*
X288839Y2361197D02*
G54D10*
D03*
X326989Y2345372D02*
G54D10*
D03*
X326938Y2269122D02*
G54D10*
D03*
X-41230Y2251377D02*
G54D12*
D03*
X536620Y2511727D02*
G54D12*
D03*
X314201Y2584058D02*
G54D10*
D03*
X390451Y2584008D02*
G54D10*
D03*
X251590Y2544314D02*
G54D10*
D03*
X251590Y2592114D02*
G54D10*
D03*
X404000Y2534732D02*
G54D10*
D03*
X353019Y2534620D02*
G54D10*
D03*
X644253Y2328988D02*
G54D11*
D03*
X628353Y2311413D02*
G54D11*
D03*
X644288Y2293797D02*
G54D11*
D03*
X513659Y2285554D02*
G54D10*
D03*
X589909Y2285504D02*
G54D10*
D03*
X412059Y2310954D02*
G54D10*
D03*
X488309Y2310904D02*
G54D10*
D03*
X894659Y2209354D02*
G54D10*
D03*
X1347304Y93299D02*
G54D10*
D03*
X1347303Y118799D02*
G54D10*
D03*
X1330722Y2637546D02*
G54D14*
D03*
X-987028Y1119346D02*
G54D14*
D03*
X-826692Y2481677D02*
G54D12*
D03*
X-849143Y2459226D02*
G54D12*
D03*
X-779067Y2516602D02*
G54D12*
D03*
X-791767Y2484852D02*
G54D12*
D03*
X209198Y1377506D02*
G54D29*
D03*
X247298Y1418781D02*
G54D29*
D03*
X120378Y2525838D02*
G54D11*
D03*
X104478Y2508263D02*
G54D11*
D03*
X120413Y2490647D02*
G54D11*
D03*
X-736918Y2403836D02*
G54D12*
D03*
X-711518Y2403836D02*
G54D12*
D03*
X-432118Y2581636D02*
G54D12*
D03*
X-406718Y2581636D02*
G54D12*
D03*
X-432118Y2518136D02*
G54D12*
D03*
X-154810Y2563364D02*
G54D10*
D03*
X-154810Y2611164D02*
G54D10*
D03*
X-370423Y-243232D02*
G54D11*
D03*
X-352848Y-259132D02*
G54D11*
D03*
X-335232Y-243197D02*
G54D11*
D03*
X-218164Y-307255D02*
G54D10*
D03*
X-146668Y-307313D02*
G54D10*
D03*
X-261742Y-233444D02*
G54D10*
D03*
X-261799Y-304941D02*
G54D10*
D03*
X141403Y1049104D02*
G54D15*
D03*
X144578Y1207854D02*
G54D15*
D03*
X141403Y915754D02*
G54D15*
D03*
X141403Y782404D02*
G54D15*
D03*
X141403Y649054D02*
G54D15*
D03*
X141403Y515704D02*
G54D15*
D03*
X103303Y204554D02*
G54D15*
D03*
X179503Y245829D02*
G54D15*
D03*
X-720442Y2648252D02*
G54D12*
D03*
X-669642Y2648252D02*
G54D12*
D03*
X-618842Y2648252D02*
G54D12*
D03*
X-568042Y2648252D02*
G54D12*
D03*
X1019458Y2648252D02*
G54D12*
D03*
X1070258Y2648252D02*
G54D12*
D03*
X1121058Y2648252D02*
G54D12*
D03*
X1171858Y2648252D02*
G54D12*
D03*
X943258Y2648252D02*
G54D12*
D03*
X-593442Y2603802D02*
G54D12*
D03*
X963382Y2505200D02*
G54D28*
D03*
X963382Y2530600D02*
G54D28*
D03*
X1014182Y2505200D02*
G54D28*
D03*
X1014182Y2530600D02*
G54D28*
D03*
X963382Y2606800D02*
G54D28*
D03*
X1014182Y2606800D02*
G54D28*
D03*
X1052282Y2505200D02*
G54D28*
D03*
X1052282Y2530600D02*
G54D28*
D03*
X1103082Y2505200D02*
G54D28*
D03*
X1103082Y2530600D02*
G54D28*
D03*
X1052282Y2606800D02*
G54D28*
D03*
X1103082Y2606800D02*
G54D28*
D03*
X1141182Y2505200D02*
G54D28*
D03*
X1141182Y2530600D02*
G54D28*
D03*
X1191982Y2505200D02*
G54D28*
D03*
X1191982Y2530600D02*
G54D28*
D03*
X1141182Y2606800D02*
G54D28*
D03*
X1191982Y2606800D02*
G54D28*
D03*
X1230082Y2505200D02*
G54D28*
D03*
X1230082Y2530600D02*
G54D28*
D03*
X1280882Y2505200D02*
G54D28*
D03*
X1280882Y2530600D02*
G54D28*
D03*
X1230082Y2606800D02*
G54D28*
D03*
X1280882Y2606800D02*
G54D28*
D03*
X943258Y2419652D02*
G54D12*
D03*
X983549Y2342631D02*
G54D10*
D03*
X983599Y2418880D02*
G54D10*
D03*
X1072449Y2342631D02*
G54D10*
D03*
X1072499Y2418880D02*
G54D10*
D03*
X1167699Y2342631D02*
G54D10*
D03*
X1167749Y2418880D02*
G54D10*
D03*
X1123249Y2342631D02*
G54D10*
D03*
X1123299Y2418880D02*
G54D10*
D03*
X1034349Y2342631D02*
G54D10*
D03*
X1034399Y2418880D02*
G54D10*
D03*
X1212149Y2342631D02*
G54D10*
D03*
X1212199Y2418880D02*
G54D10*
D03*
X1303589Y2342631D02*
G54D10*
D03*
X1303639Y2418880D02*
G54D10*
D03*
X1256599Y2342631D02*
G54D10*
D03*
X1256649Y2418880D02*
G54D10*
D03*
X965200Y2460750D02*
G54D21*
D03*
X990600Y2460750D02*
G54D21*
D03*
X1016000Y2460750D02*
G54D21*
D03*
X1054100Y2460750D02*
G54D21*
D03*
X1079500Y2460750D02*
G54D21*
D03*
X1104900Y2460750D02*
G54D21*
D03*
X1143000Y2460750D02*
G54D21*
D03*
X1168400Y2460750D02*
G54D21*
D03*
X1193800Y2460750D02*
G54D21*
D03*
X1231900Y2460750D02*
G54D21*
D03*
X1257300Y2460750D02*
G54D21*
D03*
X1282700Y2460750D02*
G54D21*
D03*
X965200Y2460750D02*
G54D12*
D03*
X1054100Y2460750D02*
G54D12*
D03*
X1143000Y2460750D02*
G54D12*
D03*
X1231900Y2460750D02*
G54D12*
D03*
X965958Y2487252D02*
G54D15*
D03*
X1015958Y2487252D02*
G54D15*
D03*
X1050958Y2487252D02*
G54D15*
D03*
X1105958Y2487252D02*
G54D15*
D03*
X1140958Y2487252D02*
G54D15*
D03*
X1195958Y2487252D02*
G54D15*
D03*
X1230958Y2487252D02*
G54D15*
D03*
X1283520Y2486755D02*
G54D15*
D03*
X893258Y2583252D02*
G54D12*
D03*
X1323258Y368252D02*
G54D12*
D03*
X1328568Y2513252D02*
G54D12*
D03*
X1203985Y934208D02*
G54D12*
D03*
X939812Y1758710D02*
G54D12*
D03*
X1123168Y1757916D02*
G54D12*
D03*
X721531Y2188922D02*
G54D12*
D03*
X1285636Y1772602D02*
G54D41*
D03*
X1286272Y2128996D02*
G54D41*
D03*
X726439Y2129790D02*
G54D41*
D03*
X726440Y1293177D02*
G54D41*
D03*
X1286272Y1292384D02*
G54D41*
D03*
X1285636Y935990D02*
G54D41*
D03*
X726440Y934402D02*
G54D41*
D03*
X295672Y1216184D02*
G54D41*
D03*
X-656828Y1216184D02*
G54D41*
D03*
X-749920Y1266430D02*
G54D41*
D03*
X-656828Y317659D02*
G54D41*
D03*
X295672Y314484D02*
G54D45*
D03*
X939813Y922097D02*
G54D12*
D03*
X1042206Y921304D02*
G54D12*
D03*
X-497727Y311166D02*
G54D12*
D03*
X-516777Y1225566D02*
G54D12*
D03*
X1198791Y1650880D02*
G54D18*
D03*
X382816Y1365130D02*
G54D18*
D03*
X1243241Y1425455D02*
G54D18*
D03*
X449491Y1603255D02*
G54D18*
D03*
X394336Y890662D02*
G54D10*
D03*
X416561Y890662D02*
G54D10*
D03*
X437198Y1316112D02*
G54D10*
D03*
X437198Y1297062D02*
G54D10*
D03*
X526098Y1317700D02*
G54D10*
D03*
X526098Y1298650D02*
G54D10*
D03*
X468949Y1271662D02*
G54D10*
D03*
X491173Y1271662D02*
G54D10*
D03*
X529804Y1265046D02*
G54D10*
D03*
X529804Y1242821D02*
G54D10*
D03*
X576378Y1325329D02*
G54D27*
D03*
X382703Y1326917D02*
G54D27*
D03*
X509703Y1158642D02*
G54D27*
D03*
X512878Y1182454D02*
G54D27*
D03*
X411278Y1298342D02*
G54D27*
D03*
X482444Y1315070D02*
G54D21*
D03*
X-713020Y1789983D02*
G54D12*
D03*
X-997904Y2526980D02*
G54D10*
D03*
X-950104Y2526981D02*
G54D10*
D03*
X532446Y2606356D02*
G54D10*
D03*
X580246Y2606356D02*
G54D10*
D03*
X627698Y2570237D02*
G54D15*
D03*
X-962542Y2403687D02*
G54D10*
D03*
X-962654Y2454667D02*
G54D10*
D03*
X-1000642Y2403687D02*
G54D10*
D03*
X-1000754Y2454667D02*
G54D10*
D03*
X-1004134Y2584714D02*
G54D10*
D03*
X-953154Y2584826D02*
G54D10*
D03*
X-84023Y1785704D02*
G54D10*
D03*
X-84023Y1807929D02*
G54D10*
D03*
X-69735Y1671404D02*
G54D10*
D03*
X-69735Y1693629D02*
G54D10*
D03*
X-43232Y1670580D02*
G54D37*
D03*
X144578Y2101616D02*
G54D10*
D03*
X265228Y2103204D02*
G54D10*
D03*
X-959508Y2291754D02*
G54D10*
D03*
X-984907Y2291754D02*
G54D10*
D03*
X-986946Y2335794D02*
G54D10*
D03*
X-961547Y2335794D02*
G54D10*
D03*
X-871422Y-97070D02*
G54D10*
D03*
X-871422Y-71671D02*
G54D10*
D03*
X670434Y2607952D02*
G54D10*
D03*
X695834Y2607952D02*
G54D10*
D03*
X721234Y2607952D02*
G54D10*
D03*
X746634Y2607952D02*
G54D10*
D03*
X772034Y2607952D02*
G54D10*
D03*
X797434Y2607952D02*
G54D10*
D03*
X822834Y2607952D02*
G54D10*
D03*
X695834Y2607952D02*
G54D10*
D03*
X1336908Y2592627D02*
G54D12*
D03*
X382357Y733550D02*
G54D28*
D03*
X382357Y758950D02*
G54D28*
D03*
X433157Y733550D02*
G54D28*
D03*
X433157Y758950D02*
G54D28*
D03*
X382357Y835150D02*
G54D28*
D03*
X433157Y835150D02*
G54D28*
D03*
X376727Y705039D02*
G54D10*
D03*
X433877Y705039D02*
G54D10*
D03*
X376727Y670908D02*
G54D10*
D03*
X654153Y2089895D02*
G54D10*
D03*
X653359Y2064495D02*
G54D10*
D03*
X653360Y2064496D02*
G54D10*
D03*
X652565Y2039095D02*
G54D10*
D03*
X652565Y2039095D02*
G54D10*
D03*
X651772Y2013695D02*
G54D10*
D03*
X651772Y2013696D02*
G54D10*
D03*
X650978Y1988295D02*
G54D10*
D03*
X650978Y1988295D02*
G54D10*
D03*
X650184Y1962896D02*
G54D10*
D03*
X634706Y2089895D02*
G54D10*
D03*
X633912Y2038302D02*
G54D10*
D03*
X633515Y1987104D02*
G54D10*
D03*
X-615655Y1195606D02*
G54D10*
D03*
X-520405Y1194812D02*
G54D10*
D03*
X1129574Y962524D02*
G54D21*
D03*
X1212429Y677090D02*
G54D10*
D03*
X1212479Y753340D02*
G54D10*
D03*
X1320073Y727574D02*
G54D46*
D03*
X1212479Y753340D02*
G54D10*
D03*
X1212429Y677090D02*
G54D10*
D03*
X1157465Y724059D02*
G54D10*
D03*
X1157465Y758984D02*
G54D10*
D03*
X1157465Y666909D02*
G54D10*
D03*
X1157465Y622459D02*
G54D10*
D03*
X897115Y584359D02*
G54D10*
D03*
X935215Y584359D02*
G54D10*
D03*
X1157832Y795188D02*
G54D10*
D03*
X1234082Y795138D02*
G54D10*
D03*
X1249540Y755809D02*
G54D10*
D03*
X1246762Y717709D02*
G54D10*
D03*
X1081402Y568514D02*
G54D10*
D03*
X1129202Y568514D02*
G54D10*
D03*
X1081402Y568514D02*
G54D10*
D03*
X911624Y798050D02*
G54D10*
D03*
X937124Y798050D02*
G54D10*
D03*
X994174Y798050D02*
G54D10*
D03*
X1019674Y798050D02*
G54D10*
D03*
X1253962Y564099D02*
G54D21*
D03*
X1279362Y564100D02*
G54D21*
D03*
X1141590Y457359D02*
G54D10*
D03*
X1141590Y492284D02*
G54D10*
D03*
X1141590Y400209D02*
G54D10*
D03*
X1141590Y355759D02*
G54D10*
D03*
X884415Y317659D02*
G54D10*
D03*
X922515Y317659D02*
G54D10*
D03*
X898924Y531350D02*
G54D10*
D03*
X924424Y531350D02*
G54D10*
D03*
X981474Y531350D02*
G54D10*
D03*
X1006974Y531350D02*
G54D10*
D03*
X1270341Y417133D02*
G54D10*
D03*
X1270341Y442633D02*
G54D10*
D03*
X866211Y688508D02*
G54D21*
D03*
X841227Y637576D02*
G54D21*
D03*
X816328Y688622D02*
G54D21*
D03*
X1188250Y451283D02*
G54D10*
D03*
X1188137Y502264D02*
G54D10*
D03*
X1271426Y286286D02*
G54D21*
D03*
X1296826Y286287D02*
G54D21*
D03*
X1270632Y255726D02*
G54D21*
D03*
X1296032Y255726D02*
G54D21*
D03*
X1209456Y353774D02*
G54D10*
D03*
X1217790Y391476D02*
G54D10*
D03*
X735754Y501166D02*
G54D10*
D03*
X735804Y526741D02*
G54D10*
D03*
X730991Y281297D02*
G54D10*
D03*
X731041Y306872D02*
G54D10*
D03*
X843192Y418632D02*
G54D21*
D03*
X818208Y367700D02*
G54D21*
D03*
X793309Y418747D02*
G54D21*
D03*
X1068732Y828985D02*
G54D10*
D03*
X1068782Y854560D02*
G54D10*
D03*
X687126Y761423D02*
G54D10*
D03*
X661551Y761473D02*
G54D10*
D03*
X780746Y532795D02*
G54D10*
D03*
X732327Y580420D02*
G54D10*
D03*
X604533Y764570D02*
G54D10*
D03*
X401040Y548628D02*
G54D10*
D03*
X426441Y547834D02*
G54D10*
D03*
X426440Y547834D02*
G54D10*
D03*
X451840Y547040D02*
G54D10*
D03*
X451840Y547040D02*
G54D10*
D03*
X477241Y546247D02*
G54D10*
D03*
X477240Y546247D02*
G54D10*
D03*
X502640Y545453D02*
G54D10*
D03*
X502640Y545453D02*
G54D10*
D03*
X528040Y544660D02*
G54D10*
D03*
X401041Y529181D02*
G54D10*
D03*
X452634Y528388D02*
G54D10*
D03*
X503831Y527990D02*
G54D10*
D03*
X843953Y755400D02*
G54D10*
D03*
X733622Y693487D02*
G54D10*
D03*
X29024Y2110140D02*
G54D21*
D03*
X-80513Y2106964D02*
G54D21*
D03*
X-208620Y87116D02*
G54D10*
D03*
X-234020Y87116D02*
G54D10*
D03*
X-66539Y86321D02*
G54D10*
D03*
X-91938Y86321D02*
G54D10*
D03*
X-237933Y-173693D02*
G54D10*
D03*
X-288914Y-173805D02*
G54D10*
D03*
X-373489Y11459D02*
G54D10*
D03*
X-347988Y11460D02*
G54D10*
D03*
X694303Y149837D02*
G54D10*
D03*
X751056Y128804D02*
G54D10*
D03*
X809000Y150234D02*
G54D10*
D03*
G36*
X423073Y166356D02*
X449073Y166356D01*
X449073Y140356D01*
X423073Y140356D01*
X423073Y166356D01*
G37*
G36*
X461570Y-274176D02*
X487570Y-274176D01*
X487570Y-300176D01*
X461570Y-300176D01*
X461570Y-274176D01*
G37*
X1350401Y404258D02*
G54D12*
D03*
X53318Y112116D02*
G54D10*
D03*
X27918Y112116D02*
G54D10*
D03*
X52524Y148628D02*
G54D10*
D03*
X27124Y148628D02*
G54D10*
D03*
X492261Y91082D02*
G54D10*
D03*
X466862Y91082D02*
G54D10*
D03*
X492261Y124022D02*
G54D10*
D03*
X466862Y124022D02*
G54D10*
D03*
X881177Y2619497D02*
G54D28*
D03*
X855777Y2619496D02*
G54D28*
D03*
X988782Y2606800D02*
G54D28*
D03*
X1077682Y2606800D02*
G54D28*
D03*
X1166582Y2606800D02*
G54D28*
D03*
X1255482Y2606800D02*
G54D28*
D03*
X102224Y329850D02*
G54D12*
D03*
X110069Y405150D02*
G54D12*
D03*
X110069Y540485D02*
G54D12*
D03*
X110466Y676613D02*
G54D12*
D03*
X110466Y811154D02*
G54D12*
D03*
X109276Y945694D02*
G54D12*
D03*
X107688Y1079044D02*
G54D12*
D03*
X-388008Y-210146D02*
G54D10*
D03*
X-413407Y-210146D02*
G54D10*
D03*
X-32408Y-222846D02*
G54D10*
D03*
X-57807Y-222846D02*
G54D10*
D03*
X-100423Y529456D02*
G54D10*
D03*
X-82462Y511495D02*
G54D10*
D03*
X347778Y404580D02*
G54D10*
D03*
X347777Y429979D02*
G54D10*
D03*
X-93784Y1011703D02*
G54D10*
D03*
X-75823Y1029664D02*
G54D10*
D03*
X443028Y220430D02*
G54D10*
D03*
X1320073Y308474D02*
G54D21*
D03*
X1288732Y2299061D02*
G54D12*
D03*
X1288732Y2264136D02*
G54D12*
D03*
X-331672Y-147871D02*
G54D10*
D03*
X-331672Y-122471D02*
G54D10*
D03*
X643900Y-173616D02*
G54D10*
D03*
X580400Y-205366D02*
G54D10*
D03*
X720100Y-211716D02*
G54D10*
D03*
X637550Y-211716D02*
G54D10*
D03*
X518488Y-17248D02*
G54D10*
D03*
X570082Y24821D02*
G54D10*
D03*
X-574628Y798789D02*
G54D12*
D03*
X-562724Y995664D02*
G54D12*
D03*
X-624070Y707096D02*
G54D12*
D03*
X-708208Y709478D02*
G54D12*
D03*
X210982Y1126951D02*
G54D21*
D03*
X-229407Y29260D02*
G54D12*
D03*
X-128356Y-243720D02*
G54D10*
D03*
X-146316Y-225760D02*
G54D10*
D03*
M02*
