; Drill file
; Format: 2.4 (00.0000)
M48
INCH
T01C0.0157
T02C0.0197
T03C0.0236
T04C0.0283
T05C0.0354
T06C0.0394
T07C0.0433
T08C0.0472
T09C0.0512
T10C0.0551
T11C0.0787
T12C0.0827
T13C0.1
T14C0.1181
T15C0.1575
%
G05
G90
T01
X027930Y036810
T02
X-012430Y035920
X-011430Y035920
X017820Y056170
X019070Y056420
X020070Y053920
X021070Y053920
X024320Y056670
X039570Y063670
X040440Y063680
X041320Y066170
X040940Y067180
X046940Y061430
X066190Y054680
X066320Y053420
X069070Y053420
X068940Y052180
X068900Y061020
X069190Y040180
X069570Y039170
X067070Y038670
X066940Y037680
X068900Y028080
X046850Y028480
X045070Y029670
X045190Y031180
X046190Y034180
X046320Y035420
X038690Y024180
X037570Y024170
X040820Y022430
X042070Y022420
X044320Y021680
X044320Y020670
X030820Y028670
X030690Y029930
X029440Y031180
X028820Y031920
X026820Y032080
X026940Y031180
T03
X017200Y-005710
X017200Y-003710
X017230Y-001680
X017230Y000320
X017280Y001910
X017280Y003910
X020280Y003910
X021280Y003910
X021280Y001910
X020280Y001910
X020230Y000320
X021230Y000320
X021230Y-001680
X020230Y-001680
X020200Y-003710
X021200Y-003710
X021200Y-005710
X020200Y-005710
X020280Y008740
X021280Y008740
X021280Y010740
X020280Y010740
X020250Y012300
X021250Y012300
X021250Y014300
X020250Y014300
X017250Y014300
X017250Y012300
X017280Y010740
X017280Y008740
X017310Y019090
X017310Y021090
X017370Y022490
X017370Y024490
X020370Y024490
X021370Y024490
X021370Y022490
X020370Y022490
X020310Y021090
X021310Y021090
X021310Y019090
X020310Y019090
X020370Y029400
X021370Y029400
X021370Y031400
X020370Y031400
X017370Y031400
X017370Y029400
X009840Y027770
X025930Y033810
X027930Y033810
X025930Y036810
X025930Y037810
X027930Y037810
T04
X-012920Y018830
X-013070Y027610
X-009090Y037360
X-009090Y045860
X-009090Y054360
X-009090Y062860
X012410Y062860
X012410Y054360
X012410Y045860
X012410Y037360
X025480Y053450
X025480Y057450
X039050Y080150
X040050Y080150
X041050Y080150
X041050Y083150
X042050Y083150
X040050Y083150
X039050Y083150
X050060Y013240
X050060Y011240
X050060Y010240
X053060Y010240
X053060Y011240
X053060Y012240
X053060Y013240
X057540Y002310
X058540Y002310
X059540Y002310
X060540Y002310
X060540Y-000690
X059540Y-000690
X057540Y-000690
T05
X-011790Y-007330
X-010790Y-007330
X-009790Y-007330
X-009710Y-005670
X-011210Y-005670
X-011210Y-003660
X-009710Y-003660
X-015210Y-002420
X-015210Y-000410
X-014790Y004920
X-011790Y004920
X-009790Y004920
X-006790Y004920
X-002950Y006340
X-001940Y006340
X-001940Y005330
X-001840Y008020
X-001850Y010020
X-001820Y012150
X-000820Y012140
X001540Y013530
X002030Y012260
X004030Y012270
X004540Y013530
X004540Y015260
X006150Y015140
X006840Y015770
X007550Y015140
X008530Y015770
X008530Y017520
X007530Y017520
X006840Y018140
X006150Y017520
X004540Y017010
X004540Y019140
X004030Y020520
X005780Y020010
X006850Y021390
X006160Y022020
X007540Y022020
X008530Y022020
X008530Y023770
X007530Y023770
X007530Y025770
X008530Y025770
X007410Y027770
X006410Y027770
X005530Y025760
X004530Y025770
X004540Y024390
X005530Y023760
X003640Y022500
X002660Y022520
X002030Y020510
X001530Y019140
X000160Y020390
X-001850Y020390
X-000960Y022520
X000010Y022510
X001530Y024390
X001530Y025770
X001030Y027770
X002040Y027760
X007780Y020020
X010030Y019760
X012030Y019770
X013650Y019390
X014330Y020010
X015030Y019390
X015790Y018010
X015780Y016270
X015780Y015020
X015780Y013020
X013430Y014410
X012780Y016270
X011540Y015760
X011420Y014400
X011540Y012760
X010950Y011000
X011540Y009140
X011540Y007260
X013790Y007890
X015770Y007500
X015760Y009510
X008940Y011000
X008530Y012770
X007530Y012760
X006840Y013390
X006150Y012770
X008530Y009140
X008530Y007270
X001530Y015270
X000160Y015270
X-001850Y015260
X001530Y017020
X011530Y017520
X012780Y018020
X012780Y021770
X011530Y022020
X011530Y023770
X012780Y023390
X011530Y025770
X011780Y027770
X012780Y027770
X015790Y023390
X015790Y021760
X021070Y035060
X019550Y036740
X021070Y038070
X022170Y039300
X021800Y040730
X022170Y041960
X022280Y043310
X021370Y045500
X019990Y045500
X019550Y047240
X020930Y048060
X020930Y049940
X023680Y050190
X024680Y050190
X025680Y050190
X023190Y056190
X020940Y056190
X018750Y054850
X017880Y054850
X017570Y060420
X017570Y061290
X020690Y059940
X021940Y059940
X023190Y059940
X024310Y060430
X024320Y059040
X024320Y058170
X030560Y060020
X032960Y059230
X034960Y059230
X036340Y059230
X036080Y057450
X034730Y056030
X036090Y055440
X032510Y056120
X030510Y056120
X032690Y062140
X034720Y062300
X033960Y064730
X035090Y066230
X035090Y067730
X035090Y069980
X032840Y067230
X030840Y067230
X030410Y064730
X031710Y064730
X037720Y062300
X040070Y065420
X040070Y066290
X048930Y064170
X048940Y062160
X052120Y064300
X053430Y063170
X053440Y061160
X055080Y059400
X053920Y058310
X052120Y058310
X052120Y055300
X053920Y055300
X057170Y055300
X058920Y056300
X057170Y058310
X057080Y059400
X056550Y061050
X055920Y061740
X056550Y062430
X056870Y065410
X059120Y064300
X060550Y062430
X059920Y061740
X060550Y061050
X061920Y059310
X063920Y059310
X063550Y061050
X062920Y061740
X063550Y062430
X065830Y061900
X067840Y061910
X065020Y067050
X066360Y069530
X067370Y069530
X062020Y067060
X059120Y067310
X056680Y068270
X054670Y068270
X052120Y067310
X053870Y065410
X050440Y069530
X049430Y069530
X046670Y076110
X043670Y076110
X041750Y076490
X041840Y078050
X042050Y080150
X043230Y081880
X044700Y081950
X046270Y081860
X047170Y080110
X048360Y082540
X047730Y083240
X048360Y083930
X050200Y083960
X050200Y081950
X052020Y081860
X052920Y080110
X054110Y082540
X053480Y083240
X054110Y083930
X052020Y084860
X050960Y086440
X049960Y086440
X046960Y086190
X045960Y086190
X046270Y084860
X044700Y083960
X043220Y083880
X041070Y084990
X040070Y084990
X039070Y084990
X037770Y084110
X038460Y086940
X039460Y086940
X040960Y086940
X042480Y086630
X044490Y086630
X044170Y080110
X038840Y078060
X039740Y076480
X037770Y081110
X049920Y080110
X064460Y080200
X064460Y079190
X064460Y077450
X064460Y076440
X064460Y082440
X064460Y083450
X064460Y085440
X064460Y086450
X058920Y059310
X061920Y056300
X063920Y056300
X067440Y054040
X067440Y053170
X064220Y043760
X062970Y043760
X061470Y043760
X061470Y041010
X062970Y041010
X064220Y041010
X068070Y039290
X068070Y038420
X067370Y036600
X066360Y036600
X065020Y034120
X062020Y034120
X059120Y034370
X056680Y035330
X054670Y035330
X052120Y034370
X053870Y032470
X052120Y031370
X053430Y030230
X053440Y028230
X055080Y026470
X053920Y025370
X052120Y025370
X052120Y022370
X053920Y022370
X057170Y022370
X058920Y023370
X057170Y025370
X057080Y026470
X056550Y028110
X055920Y028800
X056550Y029490
X056870Y032470
X059120Y031370
X060550Y029490
X059920Y028800
X060550Y028110
X061920Y026370
X063920Y026370
X063550Y028110
X062920Y028800
X063550Y029490
X065830Y028970
X067840Y028970
X063920Y023370
X061920Y023370
X061670Y019960
X062680Y019960
X064260Y019520
X066140Y019520
X064760Y016710
X063010Y016460
X061230Y015280
X060720Y016610
X058710Y016610
X058230Y015280
X058540Y013710
X059160Y013020
X058540Y012330
X057190Y013970
X056390Y012060
X054510Y012060
X054390Y009960
X055930Y009700
X057760Y010210
X059260Y010210
X061700Y009500
X061700Y007620
X061520Y005600
X061520Y004100
X059900Y004590
X058020Y004590
X055430Y004640
X053420Y004630
X054390Y006960
X055930Y007690
X057760Y007210
X059260Y007210
X061430Y011690
X061430Y013700
X063010Y013460
X064760Y013700
X064700Y012630
X064700Y011630
X067700Y011630
X067700Y012630
X064520Y005590
X064520Y004090
X066100Y002270
X066100Y001270
X064150Y001590
X062270Y001590
X062270Y-001910
X064150Y-001910
X060110Y-002730
X059110Y-002730
X058100Y-002730
X058540Y-000690
X056150Y-001910
X054270Y-001910
X056120Y-005390
X057130Y-005390
X055890Y002090
X054010Y002090
X052140Y002090
X050260Y002090
X047360Y003270
X047360Y000270
X047200Y-005000
X046290Y-006210
X044170Y-004090
X042400Y-005160
X040520Y-005160
X038610Y-004560
X037610Y-004480
X036600Y-004480
X035140Y-005160
X033260Y-005160
X037920Y007760
X040170Y007520
X042260Y007560
X044140Y007560
X046260Y007560
X048140Y007560
X050260Y007560
X052140Y007560
X047990Y010450
X050060Y012240
X050490Y014960
X051430Y016680
X053430Y016690
X053490Y014950
X055070Y016090
X056630Y019150
X058520Y019150
X060670Y019960
X058920Y026370
X048940Y029230
X048930Y031230
X046070Y031670
X046070Y032540
X043230Y033660
X041980Y033660
X040730Y033660
X039610Y033180
X040730Y036160
X043230Y036160
X040970Y041010
X039720Y041010
X038220Y041010
X038220Y043760
X039720Y043760
X040970Y043760
X034990Y035440
X030890Y030930
X030270Y031550
X023430Y036060
X023430Y037940
X024930Y040560
X024930Y042440
X028900Y044170
X019280Y043320
X019170Y041960
X019800Y040720
X019170Y039300
X008410Y037360
X005750Y039830
X005750Y041330
X005750Y042580
X003000Y042580
X003000Y041330
X003000Y039830
X-003000Y039830
X-003000Y041330
X-003000Y042580
X-005750Y042580
X-005750Y041330
X-005750Y039830
X-013090Y037360
X-013760Y035550
X-013150Y034930
X-013960Y033380
X-014960Y033380
X-014450Y031560
X-014460Y028550
X-013690Y014090
X-013690Y013080
X-015690Y012580
X-015690Y013590
X-004210Y-000410
X-004210Y-002420
X031960Y010780
X031970Y011790
X038420Y016690
X039430Y016680
X040970Y015280
X040960Y014270
X043240Y013850
X044930Y014190
X044940Y012180
X044990Y010460
X043240Y010850
X042290Y009640
X044700Y016370
X044710Y019530
X045710Y019530
X049360Y020220
X050350Y020170
X043230Y023660
X040350Y023560
X039620Y022290
X039010Y022910
X039060Y020950
X037560Y020950
X037570Y018940
X039070Y018940
X035460Y023250
X033570Y023250
X040350Y027060
X041850Y027060
X043100Y027060
X049430Y036600
X050440Y036600
X050350Y053110
X049360Y053160
X023570Y066540
X022070Y066540
X020820Y066540
X020690Y069940
X023570Y070040
X025320Y070540
X011870Y071990
X005750Y068080
X005750Y066830
X005750Y065330
X003000Y065330
X003000Y066830
X003000Y068080
X-003000Y068080
X-003000Y066830
X-003000Y065330
X-005750Y065330
X-005750Y066830
X-005750Y068080
X-005750Y059580
X-005750Y058330
X-005750Y056830
X-003000Y056830
X-003000Y058330
X-003000Y059580
X003000Y059580
X003000Y058330
X003000Y056830
X005750Y056830
X005750Y058330
X005750Y059580
X008410Y062860
X008410Y054360
X005750Y051080
X005750Y049830
X005750Y048330
X003000Y048330
X003000Y049830
X003000Y051080
X-003000Y051080
X-003000Y049830
X-003000Y048330
X-005750Y048330
X-005750Y049830
X-005750Y051080
X-013090Y054360
X-013090Y045860
X-013090Y062860
X008410Y045860
X049080Y-005000
T06
X-015010Y-006280
X-013300Y-006290
X-014280Y-004280
X-013660Y-003140
X-008010Y-006280
X-006050Y-006290
X-007030Y-004280
X-005700Y-003110
X-005700Y000890
X004430Y001080
X004430Y000330
X004430Y-000420
X004430Y-001170
X004430Y-001920
X004430Y-002670
X004430Y-003420
X004430Y-004170
X004430Y-004920
X004430Y-005670
X005180Y-005670
X005930Y-005670
X006680Y-005670
X007430Y-005670
X008180Y-005670
X008930Y-005670
X009680Y-005670
X009680Y-004920
X009680Y-004170
X009680Y-003420
X009680Y-002670
X009680Y-001920
X009680Y-001170
X009680Y-000420
X009680Y000330
X009680Y001080
X008930Y001080
X008180Y001080
X007430Y001080
X006680Y001080
X005930Y001080
X005180Y001080
X012000Y-002250
X013780Y-001930
X015740Y-001940
X014760Y-003940
X015500Y002020
X018990Y005060
X019980Y007060
X018010Y007070
X022960Y006890
X022960Y005560
X022960Y001560
X022880Y001560
X022730Y-001400
X022650Y-001400
X024460Y-001350
X024540Y-001350
X024460Y-005350
X022650Y-005400
X018000Y-014500
X000000Y-014500
X013740Y010030
X014730Y012030
X012760Y012040
X018930Y015390
X019910Y017390
X017950Y017400
X022970Y017550
X022970Y016250
X022970Y012250
X022960Y010890
X024840Y011200
X029050Y009960
X032010Y009040
X033980Y009030
X032990Y007030
X037920Y008760
X039170Y007770
X039170Y011770
X042820Y016370
X042430Y018770
X042430Y020270
X042430Y021270
X040930Y021270
X040930Y020270
X045120Y025260
X045120Y026260
X045120Y027260
X047920Y026500
X048920Y025500
X049920Y026500
X049920Y024500
X047920Y024500
X051840Y018510
X048530Y013910
X046520Y014890
X046520Y012930
X037100Y026770
X037100Y031520
X034730Y032290
X033490Y034030
X032480Y031520
X029100Y029970
X028100Y029970
X027100Y029970
X025230Y031870
X022860Y032100
X022860Y028100
X022930Y026850
X020070Y027880
X018110Y027880
X019090Y025870
X022930Y022850
X022970Y021550
X024840Y022800
X028930Y021580
X029050Y017830
X029050Y013580
X032350Y026770
X037490Y034030
X042170Y038260
X045120Y035760
X042720Y043760
X035950Y044500
X034950Y045500
X033950Y046500
X033950Y044500
X033700Y042000
X034700Y042000
X035700Y042000
X035950Y046500
X035700Y049000
X034700Y049000
X033700Y049000
X029060Y054520
X026940Y054520
X025970Y060170
X025970Y062170
X025970Y064170
X025970Y067170
X028970Y067170
X029300Y068960
X029300Y069960
X029300Y070960
X028970Y064170
X028970Y062170
X028970Y060170
X018550Y064460
X018550Y065460
X018550Y066460
X013370Y067060
X012630Y069310
X012630Y064690
X012630Y060810
X013370Y058560
X012630Y056190
X015510Y054140
X012630Y052310
X013370Y050060
X012630Y047690
X012630Y043810
X013370Y041560
X012630Y039190
X007880Y039190
X005860Y036220
X004860Y036220
X002110Y036220
X001110Y036220
X-002140Y036220
X-003140Y036220
X-005640Y036220
X-006640Y036220
X-008460Y038710
X-008460Y043460
X-008460Y047210
X-008460Y051960
X-008460Y055710
X-008460Y060460
X-008460Y064210
X-008460Y068960
X-006640Y071720
X-005640Y071720
X-003140Y071720
X-002140Y071720
X-001400Y068730
X-001390Y066720
X-001290Y064980
X000710Y064990
X001110Y066720
X001100Y068730
X001110Y071720
X002110Y071720
X004860Y071720
X005860Y071720
X007880Y069440
X007880Y064690
X007880Y060940
X007880Y056190
X007880Y052440
X007880Y047690
X007880Y043940
X001100Y043230
X001110Y041220
X000710Y039490
X-001290Y039480
X-001390Y041220
X-001400Y043230
X-001290Y047980
X-001390Y049720
X-001400Y051730
X001100Y051730
X001110Y049720
X000710Y047990
X000710Y056490
X001110Y058220
X001100Y060230
X-001400Y060230
X-001390Y058220
X-001290Y056480
X-013210Y055830
X-013950Y058080
X-013210Y060460
X-013210Y064330
X-013950Y066580
X-013210Y068960
X-015740Y054140
X-013210Y051960
X-013950Y049580
X-013210Y047330
X-013210Y043460
X-013950Y041080
X-013210Y038830
X-013070Y031610
X-011020Y030120
X-008770Y030880
X-006400Y030120
X-003500Y028500
X-006400Y025370
X-006100Y021360
X-004000Y021220
X-006230Y016610
X-008480Y015870
X-010850Y016610
X-010850Y021360
X-012920Y022830
X-011150Y025370
X-015600Y017860
X012000Y033750
X024260Y039020
X028260Y039020
X025930Y045190
X024180Y044440
X024180Y046190
X024180Y047940
X025930Y047190
X041420Y060630
X047920Y059440
X048920Y058440
X049920Y059440
X049920Y057440
X047920Y057440
X047670Y071880
X045920Y071880
X044170Y071880
X042670Y071760
X046870Y077620
X047870Y077620
X048870Y077620
X049730Y075380
X049920Y071760
X056720Y079430
X055950Y081680
X056720Y084060
X057000Y086050
X059730Y087630
X061000Y086050
X061470Y084060
X061470Y079310
X059730Y075380
X066110Y071750
X066420Y059440
X067420Y058440
X068420Y059440
X068420Y057440
X066420Y057440
X065510Y052030
X066950Y049000
X067950Y049000
X068950Y049000
X068450Y046500
X067450Y045500
X066450Y046500
X066450Y044500
X068450Y044500
X067950Y041750
X068950Y041750
X066950Y041750
X066110Y038810
X059470Y043760
X066420Y026500
X067420Y025500
X068420Y026500
X068420Y024500
X066420Y024500
X069090Y020260
X069090Y019260
X069090Y018260
X069340Y014760
X069340Y013760
X069340Y012510
X069340Y011510
X069340Y009260
X069340Y008260
X068840Y007010
X068840Y006010
X069340Y-000490
X069340Y-001490
X069340Y-003740
X069340Y-004740
X069340Y-005740
X069340Y-006620
X053730Y087630
X041730Y087630
T07
X006000Y002360
X007010Y002370
X008000Y002360
X008000Y004890
X007000Y004890
X006000Y004900
X003590Y007490
X002090Y007490
X002540Y010020
X004040Y010020
T08
X-013660Y000860
X-011910Y000860
X-009160Y000110
X-007660Y000860
X-009160Y008610
X-007660Y009360
X-006910Y009360
X-011910Y009360
X-013660Y009360
X-014410Y009360
X-015600Y015610
X032940Y-001630
X032940Y-002630
X034690Y-002630
X034690Y-001630
X044690Y-000880
X045690Y-000880
X045690Y-002630
X044690Y-002630
X044690Y002870
X045690Y002870
X045690Y004370
X044690Y004370
X047400Y032820
X049070Y033490
X059210Y036760
X067440Y033490
X067440Y066430
X059210Y069700
X049070Y066430
X047400Y065760
T09
X038850Y049130
X039630Y049130
X041210Y049130
X042000Y049130
X060300Y048930
X061090Y048930
X062670Y048930
X063450Y048930
T10
X047070Y048730
X055070Y043230
T11
X040340Y028880
X040340Y031880
X043340Y031880
X043340Y028880
X023570Y061730
X020570Y061730
X020570Y064730
X023570Y064730
T12
X038000Y075560
X059000Y082060
X062500Y087560
X062000Y075560
T13
X002030Y003640
X012100Y003640
T14
X-007240Y-001880
X-007240Y033490
X018350Y052960
X017850Y071460
X039970Y071590
X047220Y069460
X047220Y055340
X039600Y052960
X047220Y036530
X047220Y022400
X030260Y033490
X030260Y-002010
X069240Y022460
X069260Y036490
X069240Y055400
X069260Y069430
T15
X052440Y043230
X049690Y048730
M30
