%FSLAX34Y34*%
%MOMM*%
%LNCOPPER_BOTTOM*%
G71*
G01*
%ADD10C,3.000*%
%ADD11C,3.200*%
%ADD12C,2.800*%
%ADD13C,2.800*%
%ADD14C,1.400*%
%ADD15C,1.100*%
%ADD16C,1.800*%
%ADD17C,3.000*%
%ADD18C,1.467*%
%ADD19C,0.667*%
%ADD20C,0.813*%
%ADD21C,0.767*%
%ADD22C,1.713*%
%ADD23C,0.733*%
%ADD24C,1.000*%
%ADD25C,1.800*%
%ADD26C,2.000*%
%ADD27C,2.000*%
%ADD28C,0.600*%
%ADD29C,0.300*%
%ADD30C,1.000*%
%ADD31C,2.200*%
%ADD32C,4.300*%
%LPD*%
G36*
X0Y500000D02*
X1250000Y500000D01*
X1250000Y0D01*
X0Y0D01*
X0Y500000D01*
G37*
%LPC*%
X939800Y430150D02*
G54D10*
D03*
X923900Y412575D02*
G54D10*
D03*
X939835Y394959D02*
G54D10*
D03*
X1003300Y430150D02*
G54D10*
D03*
X987400Y412575D02*
G54D10*
D03*
X1003335Y394959D02*
G54D10*
D03*
X939800Y74550D02*
G54D10*
D03*
X923900Y56975D02*
G54D10*
D03*
X939835Y39359D02*
G54D10*
D03*
X1003300Y74550D02*
G54D10*
D03*
X987400Y56975D02*
G54D10*
D03*
X1003335Y39359D02*
G54D10*
D03*
X941729Y261825D02*
G54D11*
D03*
X941779Y338075D02*
G54D11*
D03*
X941729Y147525D02*
G54D11*
D03*
X941779Y223775D02*
G54D11*
D03*
X992529Y261825D02*
G54D11*
D03*
X992579Y338075D02*
G54D11*
D03*
X992529Y147525D02*
G54D11*
D03*
X992579Y223775D02*
G54D11*
D03*
X894738Y259265D02*
G54D11*
D03*
X894788Y335515D02*
G54D11*
D03*
X894738Y144965D02*
G54D11*
D03*
X894788Y221215D02*
G54D11*
D03*
X882038Y30665D02*
G54D11*
D03*
X882088Y106915D02*
G54D11*
D03*
X882038Y373565D02*
G54D11*
D03*
X882088Y449815D02*
G54D11*
D03*
X851777Y315084D02*
G54D11*
D03*
X851777Y264284D02*
G54D11*
D03*
X851777Y213484D02*
G54D11*
D03*
X851777Y162684D02*
G54D11*
D03*
X1034438Y259265D02*
G54D11*
D03*
X1034488Y335515D02*
G54D11*
D03*
X1035927Y213484D02*
G54D11*
D03*
X1035927Y162684D02*
G54D11*
D03*
X894738Y259265D02*
G54D12*
D03*
X894788Y221215D02*
G54D12*
D03*
X941779Y223775D02*
G54D12*
D03*
X941729Y261825D02*
G54D12*
D03*
X992579Y223775D02*
G54D12*
D03*
X992529Y261825D02*
G54D12*
D03*
X1035927Y162684D02*
G54D12*
D03*
X660400Y298450D02*
G54D13*
D03*
X812800Y298450D02*
G54D13*
D03*
X660400Y171450D02*
G54D13*
D03*
X660400Y234950D02*
G54D13*
D03*
X812800Y234950D02*
G54D13*
D03*
X812800Y171450D02*
G54D13*
D03*
X1079500Y298450D02*
G54D13*
D03*
X1231900Y298450D02*
G54D13*
D03*
X1079500Y171450D02*
G54D13*
D03*
X1079500Y234950D02*
G54D13*
D03*
X1231900Y234950D02*
G54D13*
D03*
X1231900Y171450D02*
G54D13*
D03*
X660400Y234950D02*
G54D12*
D03*
X812800Y234950D02*
G54D12*
D03*
X1079500Y234950D02*
G54D12*
D03*
X1231900Y234950D02*
G54D12*
D03*
X1125675Y458125D02*
G54D11*
D03*
X1151175Y458125D02*
G54D11*
D03*
X508000Y252350D02*
G54D10*
D03*
X492100Y234775D02*
G54D10*
D03*
X508035Y217159D02*
G54D10*
D03*
X571500Y252350D02*
G54D10*
D03*
X555600Y234775D02*
G54D10*
D03*
X571535Y217159D02*
G54D10*
D03*
X522629Y96725D02*
G54D11*
D03*
X522679Y172975D02*
G54D11*
D03*
X573429Y96725D02*
G54D11*
D03*
X573479Y172975D02*
G54D11*
D03*
X475638Y94165D02*
G54D11*
D03*
X475688Y170415D02*
G54D11*
D03*
X475688Y170415D02*
G54D11*
D03*
X439027Y251584D02*
G54D11*
D03*
X439027Y200784D02*
G54D11*
D03*
X488348Y310139D02*
G54D11*
D03*
X564599Y310089D02*
G54D11*
D03*
X564599Y310089D02*
G54D11*
D03*
X615736Y208265D02*
G54D11*
D03*
X615686Y132015D02*
G54D11*
D03*
X614248Y254047D02*
G54D11*
D03*
X614248Y304847D02*
G54D11*
D03*
X614248Y304847D02*
G54D12*
D03*
X522629Y96725D02*
G54D12*
D03*
X573429Y96725D02*
G54D12*
D03*
X475638Y94165D02*
G54D12*
D03*
G54D14*
X488348Y310139D02*
X488950Y309500D01*
X488950Y233300D01*
X492100Y234775D01*
G54D14*
X475688Y170415D02*
X476250Y169800D01*
X488950Y182500D01*
X488950Y233300D01*
X492100Y234775D01*
G54D14*
X522679Y172975D02*
X520700Y176150D01*
X508000Y188850D01*
X508000Y214250D01*
X508035Y217159D01*
G54D14*
X555600Y234775D02*
X552450Y233300D01*
X488950Y233300D01*
X492100Y234775D01*
G54D14*
X571500Y252350D02*
X508000Y252350D01*
G54D14*
X564599Y310089D02*
X565150Y309500D01*
X571500Y303150D01*
X571500Y252350D01*
G54D14*
X573479Y172975D02*
X571500Y176150D01*
X571500Y214250D01*
X571535Y217159D01*
G54D14*
X615736Y208265D02*
X615950Y207900D01*
X654050Y169800D01*
X660400Y169800D01*
X660400Y171450D01*
G54D14*
X614248Y254047D02*
X615950Y252350D01*
X615950Y207900D01*
X615736Y208265D01*
G54D14*
X564599Y310089D02*
X565150Y309500D01*
X590550Y284100D01*
X628650Y284100D01*
X641350Y296800D01*
X660400Y296800D01*
X660400Y298450D01*
G54D14*
X812800Y171450D02*
X812800Y169800D01*
X850900Y207900D01*
X850900Y214250D01*
X851777Y213484D01*
G54D14*
X812800Y298450D02*
X812800Y296800D01*
X844550Y265050D01*
X850900Y265050D01*
X851777Y264284D01*
G54D14*
X851777Y315084D02*
X850900Y315850D01*
X869950Y334900D01*
X895350Y334900D01*
X894788Y335515D01*
G54D14*
X882038Y373565D02*
X882650Y373000D01*
X895350Y360300D01*
X895350Y334900D01*
X894788Y335515D01*
G54D14*
X894788Y335515D02*
X895350Y334900D01*
X920750Y360300D01*
X920750Y411100D01*
X923900Y412575D01*
G54D14*
X941779Y338075D02*
X939800Y341250D01*
X939800Y392050D01*
X939835Y394959D01*
G54D14*
X987400Y412575D02*
X984250Y411100D01*
X920750Y411100D01*
X923900Y412575D01*
G54D14*
X1003300Y430150D02*
X939800Y430150D01*
G54D14*
X882088Y449815D02*
X882650Y449200D01*
X901700Y430150D01*
X1003300Y430150D01*
G54D14*
X1079500Y298450D02*
X1079500Y296800D01*
X1054100Y322200D01*
X1054100Y341250D01*
X1022350Y373000D01*
X1022350Y404750D01*
X1003300Y423800D01*
X1003300Y430150D01*
G54D14*
X992579Y338075D02*
X990600Y341250D01*
X1003300Y353950D01*
X1003300Y392050D01*
X1003335Y394959D01*
G54D14*
X992529Y261825D02*
X990600Y258700D01*
X939800Y258700D01*
X941729Y261825D01*
G54D14*
X894738Y259265D02*
X895350Y258700D01*
X939800Y258700D01*
X941729Y261825D01*
G54D14*
X894788Y221215D02*
X895350Y220600D01*
X895350Y258700D01*
X894738Y259265D01*
G54D14*
X894788Y221215D02*
X895350Y220600D01*
X901700Y226950D01*
X939800Y226950D01*
X941779Y223775D01*
G54D14*
X992579Y223775D02*
X990600Y226950D01*
X939800Y226950D01*
X941779Y223775D01*
G54D14*
X1035927Y213484D02*
X1035050Y214250D01*
X1035050Y258700D01*
X1034438Y259265D01*
G54D14*
X1079500Y234950D02*
X1079500Y233300D01*
X1060450Y214250D01*
X1035050Y214250D01*
X1035927Y213484D01*
G54D14*
X1079500Y171450D02*
X1079500Y169800D01*
X1022350Y112650D01*
X1022350Y68200D01*
X1003300Y49150D01*
X1003300Y36450D01*
X1003335Y39359D01*
G54D14*
X992529Y147525D02*
X990600Y144400D01*
X1003300Y131700D01*
X1003300Y74550D01*
G54D14*
X941729Y147525D02*
X939800Y144400D01*
X939800Y74550D01*
G54D14*
X882088Y106915D02*
X882650Y106300D01*
X920750Y68200D01*
X920750Y55500D01*
X923900Y56975D01*
G54D14*
X851777Y162684D02*
X850900Y163450D01*
X882650Y131700D01*
X882650Y106300D01*
X882088Y106915D01*
G54D14*
X882088Y106915D02*
X882650Y106300D01*
X895350Y119000D01*
X895350Y144400D01*
X894738Y144965D01*
G54D14*
X987400Y56975D02*
X984250Y55500D01*
X920750Y55500D01*
X923900Y56975D01*
G54D14*
X882038Y30665D02*
X882650Y30100D01*
X889000Y23750D01*
X952500Y23750D01*
X965200Y36450D01*
X1003300Y36450D01*
X1003335Y39359D01*
G54D14*
X1003335Y39359D02*
X1003300Y36450D01*
X939800Y36450D01*
X939835Y39359D01*
G54D14*
X439027Y200784D02*
X438150Y201550D01*
X469900Y233300D01*
X488950Y233300D01*
X492100Y234775D01*
X249579Y58625D02*
G54D11*
D03*
X249629Y134875D02*
G54D11*
D03*
X202588Y56065D02*
G54D11*
D03*
X202638Y132315D02*
G54D11*
D03*
X202638Y132315D02*
G54D11*
D03*
X249579Y58625D02*
G54D12*
D03*
X202588Y56065D02*
G54D12*
D03*
X389074Y170207D02*
G54D13*
D03*
X331924Y208307D02*
G54D13*
D03*
X389074Y243232D02*
G54D13*
D03*
X331924Y208307D02*
G54D13*
D03*
X294681Y121509D02*
G54D11*
D03*
X294793Y70528D02*
G54D11*
D03*
X294793Y70528D02*
G54D13*
D03*
X294793Y70528D02*
G54D13*
D03*
X263197Y311639D02*
G54D11*
D03*
X263085Y362620D02*
G54D11*
D03*
X301031Y362809D02*
G54D11*
D03*
X301143Y311828D02*
G54D11*
D03*
X301143Y311828D02*
G54D13*
D03*
X301143Y311828D02*
G54D13*
D03*
X202672Y259329D02*
G54D11*
D03*
X202622Y183079D02*
G54D11*
D03*
X202622Y183079D02*
G54D11*
D03*
X142281Y185009D02*
G54D11*
D03*
X142393Y134028D02*
G54D11*
D03*
X76200Y425450D02*
G54D13*
D03*
X228600Y425450D02*
G54D13*
D03*
X76200Y298450D02*
G54D13*
D03*
X76200Y361950D02*
G54D13*
D03*
X228600Y361950D02*
G54D13*
D03*
X228600Y298450D02*
G54D13*
D03*
X76200Y361950D02*
G54D12*
D03*
X228600Y361950D02*
G54D12*
D03*
X262303Y414266D02*
G54D11*
D03*
X335938Y56065D02*
G54D11*
D03*
X335988Y132315D02*
G54D11*
D03*
X335988Y132315D02*
G54D11*
D03*
X335938Y56065D02*
G54D12*
D03*
G54D14*
X262303Y414266D02*
X260350Y411100D01*
X247650Y423800D01*
X228600Y423800D01*
X228600Y425450D01*
G54D14*
X262303Y414266D02*
X260350Y411100D01*
X298450Y373000D01*
X298450Y360300D01*
X301031Y362809D01*
G54D14*
X228600Y361950D02*
X228600Y360300D01*
X260350Y360300D01*
X263085Y362620D01*
G54D14*
X263197Y311639D02*
X260350Y309500D01*
X323850Y246000D01*
X387350Y246000D01*
X389074Y243232D01*
G54D14*
X228600Y298450D02*
X228600Y296800D01*
X203200Y271400D01*
X203200Y258700D01*
X202672Y259329D01*
G54D14*
X142393Y134028D02*
X139700Y131700D01*
X190500Y182500D01*
X203200Y182500D01*
X202622Y183079D01*
G54D15*
X202622Y183079D02*
X203200Y182500D01*
X222250Y201550D01*
X260350Y201550D01*
X257850Y204050D01*
G54D15*
X202638Y132315D02*
X203200Y131700D01*
X260350Y188850D01*
X260350Y201550D01*
X257850Y204050D01*
G54D15*
X249629Y134875D02*
X247650Y138050D01*
X279400Y169800D01*
X279400Y195200D01*
X280750Y193850D01*
G54D14*
X294681Y121509D02*
X292100Y119000D01*
X273050Y138050D01*
X247650Y138050D01*
X249629Y134875D01*
G54D14*
X335988Y132315D02*
X336550Y131700D01*
X323850Y119000D01*
X292100Y119000D01*
X294681Y121509D01*
G54D14*
X389074Y170207D02*
X387350Y169800D01*
X419100Y201550D01*
X419100Y207900D01*
X438150Y226950D01*
X438150Y252350D01*
X439027Y251584D01*
G54D14*
X992579Y223775D02*
X990600Y226950D01*
X990600Y258700D01*
X992529Y261825D01*
G54D14*
X941779Y223775D02*
X939800Y226950D01*
X939800Y258700D01*
X941729Y261825D01*
X393700Y277750D02*
G54D16*
D03*
X812800Y328550D02*
G54D16*
D03*
X1219200Y328550D02*
G54D16*
D03*
X1219200Y138050D02*
G54D16*
D03*
G54D15*
X202672Y259329D02*
X203200Y258700D01*
X247650Y214250D01*
X279400Y214250D01*
X280750Y214250D01*
G54D14*
X1219200Y328550D02*
X1231900Y315850D01*
X1231900Y296800D01*
X1231900Y298450D01*
G54D14*
X1219200Y138050D02*
X1231900Y150750D01*
X1231900Y169800D01*
X1231900Y171450D01*
G54D14*
X393700Y277750D02*
X387350Y271400D01*
X387350Y246000D01*
X389074Y243232D01*
G54D14*
X812800Y328550D02*
X812800Y296800D01*
X812800Y298450D01*
X29931Y193681D02*
G54D17*
D03*
X80731Y193681D02*
G54D17*
D03*
X55331Y168281D02*
G54D17*
D03*
X80731Y142881D02*
G54D17*
D03*
X29931Y142881D02*
G54D17*
D03*
X127000Y214250D02*
G54D16*
D03*
G54D14*
X55331Y168281D02*
X57150Y169800D01*
X88900Y169800D01*
X101600Y182500D01*
X139700Y182500D01*
X142281Y185009D01*
G54D14*
X127000Y214250D02*
X139700Y201550D01*
X139700Y182500D01*
X142281Y185009D01*
X297849Y424439D02*
G54D11*
D03*
X374098Y424389D02*
G54D11*
D03*
X374098Y424389D02*
G54D11*
D03*
G54D14*
X297849Y424439D02*
X298450Y423800D01*
X285750Y411100D01*
X260350Y411100D01*
X262303Y414266D01*
G36*
X3226Y314337D02*
X41226Y314337D01*
X41226Y276337D01*
X3226Y276337D01*
X3226Y314337D01*
G37*
G36*
X562026Y47637D02*
X600026Y47637D01*
X600026Y9637D01*
X562026Y9637D01*
X562026Y47637D01*
G37*
G36*
X549326Y492137D02*
X587326Y492137D01*
X587326Y454137D01*
X549326Y454137D01*
X549326Y492137D01*
G37*
%LPD*%
G54D18*
G36*
X887405Y259265D02*
X887405Y273765D01*
X902072Y273765D01*
X902072Y259265D01*
X887405Y259265D01*
G37*
G36*
X894738Y266599D02*
X909238Y266599D01*
X909238Y251932D01*
X894738Y251932D01*
X894738Y266599D01*
G37*
G36*
X902072Y259265D02*
X902072Y244765D01*
X887405Y244765D01*
X887405Y259265D01*
X902072Y259265D01*
G37*
G36*
X894738Y251932D02*
X880238Y251932D01*
X880238Y266599D01*
X894738Y266599D01*
X894738Y251932D01*
G37*
G54D18*
G36*
X887455Y221215D02*
X887455Y235715D01*
X902122Y235715D01*
X902122Y221215D01*
X887455Y221215D01*
G37*
G36*
X894788Y228549D02*
X909288Y228549D01*
X909288Y213882D01*
X894788Y213882D01*
X894788Y228549D01*
G37*
G36*
X902122Y221215D02*
X902122Y206715D01*
X887455Y206715D01*
X887455Y221215D01*
X902122Y221215D01*
G37*
G36*
X894788Y213882D02*
X880288Y213882D01*
X880288Y228549D01*
X894788Y228549D01*
X894788Y213882D01*
G37*
G54D18*
G36*
X934446Y223775D02*
X934446Y238275D01*
X949112Y238275D01*
X949112Y223775D01*
X934446Y223775D01*
G37*
G36*
X941779Y231108D02*
X956279Y231108D01*
X956279Y216442D01*
X941779Y216442D01*
X941779Y231108D01*
G37*
G36*
X949112Y223775D02*
X949112Y209275D01*
X934446Y209275D01*
X934446Y223775D01*
X949112Y223775D01*
G37*
G36*
X941779Y216442D02*
X927279Y216442D01*
X927279Y231108D01*
X941779Y231108D01*
X941779Y216442D01*
G37*
G54D18*
G36*
X934396Y261825D02*
X934396Y276325D01*
X949062Y276325D01*
X949062Y261825D01*
X934396Y261825D01*
G37*
G36*
X941729Y269158D02*
X956229Y269158D01*
X956229Y254492D01*
X941729Y254492D01*
X941729Y269158D01*
G37*
G36*
X949062Y261825D02*
X949062Y247325D01*
X934396Y247325D01*
X934396Y261825D01*
X949062Y261825D01*
G37*
G36*
X941729Y254492D02*
X927229Y254492D01*
X927229Y269158D01*
X941729Y269158D01*
X941729Y254492D01*
G37*
G54D18*
G36*
X985246Y223775D02*
X985246Y238275D01*
X999912Y238275D01*
X999912Y223775D01*
X985246Y223775D01*
G37*
G36*
X992579Y231108D02*
X1007079Y231108D01*
X1007079Y216442D01*
X992579Y216442D01*
X992579Y231108D01*
G37*
G36*
X999912Y223775D02*
X999912Y209275D01*
X985246Y209275D01*
X985246Y223775D01*
X999912Y223775D01*
G37*
G36*
X992579Y216442D02*
X978079Y216442D01*
X978079Y231108D01*
X992579Y231108D01*
X992579Y216442D01*
G37*
G54D18*
G36*
X985196Y261825D02*
X985196Y276325D01*
X999862Y276325D01*
X999862Y261825D01*
X985196Y261825D01*
G37*
G36*
X992529Y269158D02*
X1007029Y269158D01*
X1007029Y254492D01*
X992529Y254492D01*
X992529Y269158D01*
G37*
G36*
X999862Y261825D02*
X999862Y247325D01*
X985196Y247325D01*
X985196Y261825D01*
X999862Y261825D01*
G37*
G36*
X992529Y254492D02*
X978029Y254492D01*
X978029Y269158D01*
X992529Y269158D01*
X992529Y254492D01*
G37*
G54D18*
G36*
X1028593Y162684D02*
X1028593Y177184D01*
X1043260Y177184D01*
X1043260Y162684D01*
X1028593Y162684D01*
G37*
G36*
X1035927Y170017D02*
X1050427Y170017D01*
X1050427Y155350D01*
X1035927Y155350D01*
X1035927Y170017D01*
G37*
G36*
X1043260Y162684D02*
X1043260Y148184D01*
X1028593Y148184D01*
X1028593Y162684D01*
X1043260Y162684D01*
G37*
G36*
X1035927Y155350D02*
X1021427Y155350D01*
X1021427Y170017D01*
X1035927Y170017D01*
X1035927Y155350D01*
G37*
G54D19*
G36*
X1122342Y458125D02*
X1122342Y474625D01*
X1129008Y474625D01*
X1129008Y458125D01*
X1122342Y458125D01*
G37*
G54D20*
G54D18*
G36*
X621581Y304847D02*
X621581Y290347D01*
X606914Y290347D01*
X606914Y304847D01*
X621581Y304847D01*
G37*
G36*
X614248Y297514D02*
X599748Y297514D01*
X599748Y312180D01*
X614248Y312180D01*
X614248Y297514D01*
G37*
G36*
X606914Y304847D02*
X606914Y319347D01*
X621581Y319347D01*
X621581Y304847D01*
X606914Y304847D01*
G37*
G36*
X614248Y312180D02*
X628748Y312180D01*
X628748Y297514D01*
X614248Y297514D01*
X614248Y312180D01*
G37*
G54D18*
G36*
X515296Y96725D02*
X515296Y111225D01*
X529962Y111225D01*
X529962Y96725D01*
X515296Y96725D01*
G37*
G36*
X522629Y104058D02*
X537129Y104058D01*
X537129Y89392D01*
X522629Y89392D01*
X522629Y104058D01*
G37*
G36*
X529962Y96725D02*
X529962Y82225D01*
X515296Y82225D01*
X515296Y96725D01*
X529962Y96725D01*
G37*
G36*
X522629Y89392D02*
X508129Y89392D01*
X508129Y104058D01*
X522629Y104058D01*
X522629Y89392D01*
G37*
G54D18*
G36*
X566096Y96725D02*
X566096Y111225D01*
X580762Y111225D01*
X580762Y96725D01*
X566096Y96725D01*
G37*
G36*
X573429Y104058D02*
X587929Y104058D01*
X587929Y89392D01*
X573429Y89392D01*
X573429Y104058D01*
G37*
G36*
X580762Y96725D02*
X580762Y82225D01*
X566096Y82225D01*
X566096Y96725D01*
X580762Y96725D01*
G37*
G36*
X573429Y89392D02*
X558929Y89392D01*
X558929Y104058D01*
X573429Y104058D01*
X573429Y89392D01*
G37*
G54D18*
G36*
X468305Y94165D02*
X468305Y108665D01*
X482972Y108665D01*
X482972Y94165D01*
X468305Y94165D01*
G37*
G36*
X475638Y101499D02*
X490138Y101499D01*
X490138Y86832D01*
X475638Y86832D01*
X475638Y101499D01*
G37*
G36*
X482972Y94165D02*
X482972Y79665D01*
X468305Y79665D01*
X468305Y94165D01*
X482972Y94165D01*
G37*
G36*
X475638Y86832D02*
X461138Y86832D01*
X461138Y101499D01*
X475638Y101499D01*
X475638Y86832D01*
G37*
G54D18*
G36*
X242246Y58625D02*
X242246Y73125D01*
X256912Y73125D01*
X256912Y58625D01*
X242246Y58625D01*
G37*
G36*
X249579Y65958D02*
X264079Y65958D01*
X264079Y51292D01*
X249579Y51292D01*
X249579Y65958D01*
G37*
G36*
X256912Y58625D02*
X256912Y44125D01*
X242246Y44125D01*
X242246Y58625D01*
X256912Y58625D01*
G37*
G36*
X249579Y51292D02*
X235079Y51292D01*
X235079Y65958D01*
X249579Y65958D01*
X249579Y51292D01*
G37*
G54D18*
G36*
X195255Y56065D02*
X195255Y70565D01*
X209922Y70565D01*
X209922Y56065D01*
X195255Y56065D01*
G37*
G36*
X202588Y63399D02*
X217088Y63399D01*
X217088Y48732D01*
X202588Y48732D01*
X202588Y63399D01*
G37*
G36*
X209922Y56065D02*
X209922Y41565D01*
X195255Y41565D01*
X195255Y56065D01*
X209922Y56065D01*
G37*
G36*
X202588Y48732D02*
X188088Y48732D01*
X188088Y63399D01*
X202588Y63399D01*
X202588Y48732D01*
G37*
G54D21*
G36*
X331924Y212140D02*
X346424Y212140D01*
X346424Y204474D01*
X331924Y204474D01*
X331924Y212140D01*
G37*
G36*
X335758Y208307D02*
X335758Y193807D01*
X328091Y193807D01*
X328091Y208307D01*
X335758Y208307D01*
G37*
G36*
X331924Y204474D02*
X317424Y204474D01*
X317424Y212140D01*
X331924Y212140D01*
X331924Y204474D01*
G37*
G36*
X328091Y208307D02*
X328091Y222807D01*
X335758Y222807D01*
X335758Y208307D01*
X328091Y208307D01*
G37*
G54D21*
G36*
X290960Y70528D02*
X290960Y85028D01*
X298627Y85028D01*
X298627Y70528D01*
X290960Y70528D01*
G37*
G36*
X294793Y74361D02*
X309293Y74361D01*
X309293Y66695D01*
X294793Y66695D01*
X294793Y74361D01*
G37*
G36*
X298627Y70528D02*
X298627Y56028D01*
X290960Y56028D01*
X290960Y70528D01*
X298627Y70528D01*
G37*
G36*
X294793Y66695D02*
X280293Y66695D01*
X280293Y74361D01*
X294793Y74361D01*
X294793Y66695D01*
G37*
G54D22*
G36*
X286227Y70528D02*
X286227Y85028D01*
X303360Y85028D01*
X303360Y70528D01*
X286227Y70528D01*
G37*
G36*
X294793Y79095D02*
X309293Y79095D01*
X309293Y61961D01*
X294793Y61961D01*
X294793Y79095D01*
G37*
G36*
X303360Y70528D02*
X303360Y56028D01*
X286227Y56028D01*
X286227Y70528D01*
X303360Y70528D01*
G37*
G36*
X294793Y61961D02*
X280293Y61961D01*
X280293Y79095D01*
X294793Y79095D01*
X294793Y61961D01*
G37*
G54D21*
G36*
X297310Y311828D02*
X297310Y326328D01*
X304977Y326328D01*
X304977Y311828D01*
X297310Y311828D01*
G37*
G36*
X301143Y315661D02*
X315643Y315661D01*
X315643Y307995D01*
X301143Y307995D01*
X301143Y315661D01*
G37*
G36*
X304977Y311828D02*
X304977Y297328D01*
X297310Y297328D01*
X297310Y311828D01*
X304977Y311828D01*
G37*
G36*
X301143Y307995D02*
X286643Y307995D01*
X286643Y315661D01*
X301143Y315661D01*
X301143Y307995D01*
G37*
G54D22*
G36*
X292577Y311828D02*
X292577Y326328D01*
X309710Y326328D01*
X309710Y311828D01*
X292577Y311828D01*
G37*
G36*
X301143Y320395D02*
X315643Y320395D01*
X315643Y303261D01*
X301143Y303261D01*
X301143Y320395D01*
G37*
G36*
X309710Y311828D02*
X309710Y297328D01*
X292577Y297328D01*
X292577Y311828D01*
X309710Y311828D01*
G37*
G36*
X301143Y303261D02*
X286643Y303261D01*
X286643Y320395D01*
X301143Y320395D01*
X301143Y303261D01*
G37*
G54D18*
G36*
X328605Y56065D02*
X328605Y70565D01*
X343272Y70565D01*
X343272Y56065D01*
X328605Y56065D01*
G37*
G36*
X335938Y63399D02*
X350438Y63399D01*
X350438Y48732D01*
X335938Y48732D01*
X335938Y63399D01*
G37*
G36*
X343272Y56065D02*
X343272Y41565D01*
X328605Y41565D01*
X328605Y56065D01*
X343272Y56065D01*
G37*
G36*
X335938Y48732D02*
X321438Y48732D01*
X321438Y63399D01*
X335938Y63399D01*
X335938Y48732D01*
G37*
G54D23*
G36*
X26265Y193681D02*
X26265Y209181D01*
X33598Y209181D01*
X33598Y193681D01*
X26265Y193681D01*
G37*
G36*
X29931Y197348D02*
X45431Y197348D01*
X45431Y190015D01*
X29931Y190015D01*
X29931Y197348D01*
G37*
G36*
X33598Y193681D02*
X33598Y178181D01*
X26265Y178181D01*
X26265Y193681D01*
X33598Y193681D01*
G37*
G36*
X29931Y190015D02*
X14431Y190015D01*
X14431Y197348D01*
X29931Y197348D01*
X29931Y190015D01*
G37*
G54D23*
G36*
X77065Y193681D02*
X77065Y209181D01*
X84398Y209181D01*
X84398Y193681D01*
X77065Y193681D01*
G37*
G36*
X80731Y197348D02*
X96231Y197348D01*
X96231Y190015D01*
X80731Y190015D01*
X80731Y197348D01*
G37*
G36*
X84398Y193681D02*
X84398Y178181D01*
X77065Y178181D01*
X77065Y193681D01*
X84398Y193681D01*
G37*
G36*
X80731Y190015D02*
X65231Y190015D01*
X65231Y197348D01*
X80731Y197348D01*
X80731Y190015D01*
G37*
G54D23*
G36*
X77065Y142881D02*
X77065Y158381D01*
X84398Y158381D01*
X84398Y142881D01*
X77065Y142881D01*
G37*
G36*
X80731Y146548D02*
X96231Y146548D01*
X96231Y139215D01*
X80731Y139215D01*
X80731Y146548D01*
G37*
G36*
X84398Y142881D02*
X84398Y127381D01*
X77065Y127381D01*
X77065Y142881D01*
X84398Y142881D01*
G37*
G36*
X80731Y139215D02*
X65231Y139215D01*
X65231Y146548D01*
X80731Y146548D01*
X80731Y139215D01*
G37*
G54D23*
G36*
X26265Y142881D02*
X26265Y158381D01*
X33598Y158381D01*
X33598Y142881D01*
X26265Y142881D01*
G37*
G36*
X29931Y146548D02*
X45431Y146548D01*
X45431Y139215D01*
X29931Y139215D01*
X29931Y146548D01*
G37*
G36*
X33598Y142881D02*
X33598Y127381D01*
X26265Y127381D01*
X26265Y142881D01*
X33598Y142881D01*
G37*
G36*
X29931Y139215D02*
X14431Y139215D01*
X14431Y146548D01*
X29931Y146548D01*
X29931Y139215D01*
G37*
G54D24*
G36*
X17226Y295337D02*
X17226Y314837D01*
X27226Y314837D01*
X27226Y295337D01*
X17226Y295337D01*
G37*
G36*
X22226Y300337D02*
X41726Y300337D01*
X41726Y290337D01*
X22226Y290337D01*
X22226Y300337D01*
G37*
G36*
X27226Y295337D02*
X27226Y275837D01*
X17226Y275837D01*
X17226Y295337D01*
X27226Y295337D01*
G37*
G36*
X22226Y290337D02*
X2726Y290337D01*
X2726Y300337D01*
X22226Y300337D01*
X22226Y290337D01*
G37*
G54D24*
G36*
X576026Y28637D02*
X576026Y48137D01*
X586026Y48137D01*
X586026Y28637D01*
X576026Y28637D01*
G37*
G36*
X581026Y33637D02*
X600526Y33637D01*
X600526Y23637D01*
X581026Y23637D01*
X581026Y33637D01*
G37*
G36*
X586026Y28637D02*
X586026Y9137D01*
X576026Y9137D01*
X576026Y28637D01*
X586026Y28637D01*
G37*
G36*
X581026Y23637D02*
X561526Y23637D01*
X561526Y33637D01*
X581026Y33637D01*
X581026Y23637D01*
G37*
G54D24*
G36*
X563326Y473137D02*
X563326Y492637D01*
X573326Y492637D01*
X573326Y473137D01*
X563326Y473137D01*
G37*
G36*
X568326Y478137D02*
X587826Y478137D01*
X587826Y468137D01*
X568326Y468137D01*
X568326Y478137D01*
G37*
G36*
X573326Y473137D02*
X573326Y453637D01*
X563326Y453637D01*
X563326Y473137D01*
X573326Y473137D01*
G37*
G36*
X568326Y468137D02*
X548826Y468137D01*
X548826Y478137D01*
X568326Y478137D01*
X568326Y468137D01*
G37*
X939800Y430150D02*
G54D25*
D03*
X923900Y412575D02*
G54D25*
D03*
X939835Y394959D02*
G54D25*
D03*
X1003300Y430150D02*
G54D25*
D03*
X987400Y412575D02*
G54D25*
D03*
X1003335Y394959D02*
G54D25*
D03*
X939800Y74550D02*
G54D25*
D03*
X923900Y56975D02*
G54D25*
D03*
X939835Y39359D02*
G54D25*
D03*
X1003300Y74550D02*
G54D25*
D03*
X987400Y56975D02*
G54D25*
D03*
X1003335Y39359D02*
G54D25*
D03*
X941729Y261825D02*
G54D26*
D03*
X941779Y338075D02*
G54D26*
D03*
X941729Y147525D02*
G54D26*
D03*
X941779Y223775D02*
G54D26*
D03*
X992529Y261825D02*
G54D26*
D03*
X992579Y338075D02*
G54D26*
D03*
X992529Y147525D02*
G54D26*
D03*
X992579Y223775D02*
G54D26*
D03*
X894738Y259265D02*
G54D26*
D03*
X894788Y335515D02*
G54D26*
D03*
X894738Y144965D02*
G54D26*
D03*
X894788Y221215D02*
G54D26*
D03*
X882038Y30665D02*
G54D26*
D03*
X882088Y106915D02*
G54D26*
D03*
X882038Y373565D02*
G54D26*
D03*
X882088Y449815D02*
G54D26*
D03*
X851777Y315084D02*
G54D26*
D03*
X851777Y264284D02*
G54D26*
D03*
X851777Y213484D02*
G54D26*
D03*
X851777Y162684D02*
G54D26*
D03*
X1034438Y259265D02*
G54D26*
D03*
X1034488Y335515D02*
G54D26*
D03*
X1035927Y213484D02*
G54D26*
D03*
X1035927Y162684D02*
G54D26*
D03*
X894738Y259265D02*
G54D27*
D03*
X894788Y221215D02*
G54D27*
D03*
X941779Y223775D02*
G54D27*
D03*
X941729Y261825D02*
G54D27*
D03*
X992579Y223775D02*
G54D27*
D03*
X992529Y261825D02*
G54D27*
D03*
X1035927Y162684D02*
G54D27*
D03*
X660400Y298450D02*
G54D26*
D03*
X812800Y298450D02*
G54D26*
D03*
X660400Y171450D02*
G54D26*
D03*
X660400Y234950D02*
G54D26*
D03*
X812800Y234950D02*
G54D26*
D03*
X812800Y171450D02*
G54D26*
D03*
X1079500Y298450D02*
G54D26*
D03*
X1231900Y298450D02*
G54D26*
D03*
X1079500Y171450D02*
G54D26*
D03*
X1079500Y234950D02*
G54D26*
D03*
X1231900Y234950D02*
G54D26*
D03*
X1231900Y171450D02*
G54D26*
D03*
X660400Y234950D02*
G54D27*
D03*
X812800Y234950D02*
G54D27*
D03*
X1079500Y234950D02*
G54D27*
D03*
X1231900Y234950D02*
G54D27*
D03*
X1125675Y458125D02*
G54D26*
D03*
X1151175Y458125D02*
G54D26*
D03*
X508000Y252350D02*
G54D25*
D03*
X492100Y234775D02*
G54D25*
D03*
X508035Y217159D02*
G54D25*
D03*
X571500Y252350D02*
G54D25*
D03*
X555600Y234775D02*
G54D25*
D03*
X571535Y217159D02*
G54D25*
D03*
X522629Y96725D02*
G54D26*
D03*
X522679Y172975D02*
G54D26*
D03*
X573429Y96725D02*
G54D26*
D03*
X573479Y172975D02*
G54D26*
D03*
X475638Y94165D02*
G54D26*
D03*
X475688Y170415D02*
G54D26*
D03*
X475688Y170415D02*
G54D26*
D03*
X439027Y251584D02*
G54D26*
D03*
X439027Y200784D02*
G54D26*
D03*
X488348Y310139D02*
G54D26*
D03*
X564599Y310089D02*
G54D26*
D03*
X564599Y310089D02*
G54D26*
D03*
X615736Y208265D02*
G54D26*
D03*
X615686Y132015D02*
G54D26*
D03*
X614248Y254047D02*
G54D26*
D03*
X614248Y304847D02*
G54D26*
D03*
X614248Y304847D02*
G54D27*
D03*
X522629Y96725D02*
G54D27*
D03*
X573429Y96725D02*
G54D27*
D03*
X475638Y94165D02*
G54D27*
D03*
G54D28*
X488348Y310139D02*
X488950Y309500D01*
X488950Y233300D01*
X492100Y234775D01*
G54D28*
X475688Y170415D02*
X476250Y169800D01*
X488950Y182500D01*
X488950Y233300D01*
X492100Y234775D01*
G54D28*
X522679Y172975D02*
X520700Y176150D01*
X508000Y188850D01*
X508000Y214250D01*
X508035Y217159D01*
G54D28*
X555600Y234775D02*
X552450Y233300D01*
X488950Y233300D01*
X492100Y234775D01*
G54D28*
X571500Y252350D02*
X508000Y252350D01*
G54D28*
X564599Y310089D02*
X565150Y309500D01*
X571500Y303150D01*
X571500Y252350D01*
G54D28*
X573479Y172975D02*
X571500Y176150D01*
X571500Y214250D01*
X571535Y217159D01*
G54D28*
X615736Y208265D02*
X615950Y207900D01*
X654050Y169800D01*
X660400Y169800D01*
X660400Y171450D01*
G54D28*
X614248Y254047D02*
X615950Y252350D01*
X615950Y207900D01*
X615736Y208265D01*
G54D28*
X564599Y310089D02*
X565150Y309500D01*
X590550Y284100D01*
X628650Y284100D01*
X641350Y296800D01*
X660400Y296800D01*
X660400Y298450D01*
G54D28*
X812800Y171450D02*
X812800Y169800D01*
X850900Y207900D01*
X850900Y214250D01*
X851777Y213484D01*
G54D28*
X812800Y298450D02*
X812800Y296800D01*
X844550Y265050D01*
X850900Y265050D01*
X851777Y264284D01*
G54D28*
X851777Y315084D02*
X850900Y315850D01*
X869950Y334900D01*
X895350Y334900D01*
X894788Y335515D01*
G54D28*
X882038Y373565D02*
X882650Y373000D01*
X895350Y360300D01*
X895350Y334900D01*
X894788Y335515D01*
G54D28*
X894788Y335515D02*
X895350Y334900D01*
X920750Y360300D01*
X920750Y411100D01*
X923900Y412575D01*
G54D28*
X941779Y338075D02*
X939800Y341250D01*
X939800Y392050D01*
X939835Y394959D01*
G54D28*
X987400Y412575D02*
X984250Y411100D01*
X920750Y411100D01*
X923900Y412575D01*
G54D28*
X1003300Y430150D02*
X939800Y430150D01*
G54D28*
X882088Y449815D02*
X882650Y449200D01*
X901700Y430150D01*
X1003300Y430150D01*
G54D28*
X1079500Y298450D02*
X1079500Y296800D01*
X1054100Y322200D01*
X1054100Y341250D01*
X1022350Y373000D01*
X1022350Y404750D01*
X1003300Y423800D01*
X1003300Y430150D01*
G54D28*
X992579Y338075D02*
X990600Y341250D01*
X1003300Y353950D01*
X1003300Y392050D01*
X1003335Y394959D01*
G54D28*
X992529Y261825D02*
X990600Y258700D01*
X939800Y258700D01*
X941729Y261825D01*
G54D28*
X894738Y259265D02*
X895350Y258700D01*
X939800Y258700D01*
X941729Y261825D01*
G54D28*
X894788Y221215D02*
X895350Y220600D01*
X895350Y258700D01*
X894738Y259265D01*
G54D28*
X894788Y221215D02*
X895350Y220600D01*
X901700Y226950D01*
X939800Y226950D01*
X941779Y223775D01*
G54D28*
X992579Y223775D02*
X990600Y226950D01*
X939800Y226950D01*
X941779Y223775D01*
G54D28*
X1035927Y213484D02*
X1035050Y214250D01*
X1035050Y258700D01*
X1034438Y259265D01*
G54D28*
X1079500Y234950D02*
X1079500Y233300D01*
X1060450Y214250D01*
X1035050Y214250D01*
X1035927Y213484D01*
G54D28*
X1079500Y171450D02*
X1079500Y169800D01*
X1022350Y112650D01*
X1022350Y68200D01*
X1003300Y49150D01*
X1003300Y36450D01*
X1003335Y39359D01*
G54D28*
X992529Y147525D02*
X990600Y144400D01*
X1003300Y131700D01*
X1003300Y74550D01*
G54D28*
X941729Y147525D02*
X939800Y144400D01*
X939800Y74550D01*
G54D28*
X882088Y106915D02*
X882650Y106300D01*
X920750Y68200D01*
X920750Y55500D01*
X923900Y56975D01*
G54D28*
X851777Y162684D02*
X850900Y163450D01*
X882650Y131700D01*
X882650Y106300D01*
X882088Y106915D01*
G54D28*
X882088Y106915D02*
X882650Y106300D01*
X895350Y119000D01*
X895350Y144400D01*
X894738Y144965D01*
G54D28*
X987400Y56975D02*
X984250Y55500D01*
X920750Y55500D01*
X923900Y56975D01*
G54D28*
X882038Y30665D02*
X882650Y30100D01*
X889000Y23750D01*
X952500Y23750D01*
X965200Y36450D01*
X1003300Y36450D01*
X1003335Y39359D01*
G54D28*
X1003335Y39359D02*
X1003300Y36450D01*
X939800Y36450D01*
X939835Y39359D01*
G54D28*
X439027Y200784D02*
X438150Y201550D01*
X469900Y233300D01*
X488950Y233300D01*
X492100Y234775D01*
X249579Y58625D02*
G54D26*
D03*
X249629Y134875D02*
G54D26*
D03*
X202588Y56065D02*
G54D26*
D03*
X202638Y132315D02*
G54D26*
D03*
X202638Y132315D02*
G54D26*
D03*
X249579Y58625D02*
G54D27*
D03*
X202588Y56065D02*
G54D27*
D03*
X389074Y170207D02*
G54D26*
D03*
X331924Y208307D02*
G54D26*
D03*
X389074Y243232D02*
G54D26*
D03*
X331924Y208307D02*
G54D26*
D03*
X294681Y121509D02*
G54D26*
D03*
X294793Y70528D02*
G54D26*
D03*
X294793Y70528D02*
G54D26*
D03*
X294793Y70528D02*
G54D26*
D03*
X263197Y311639D02*
G54D26*
D03*
X263085Y362620D02*
G54D26*
D03*
X301031Y362809D02*
G54D26*
D03*
X301143Y311828D02*
G54D26*
D03*
X301143Y311828D02*
G54D26*
D03*
X301143Y311828D02*
G54D26*
D03*
X202672Y259329D02*
G54D26*
D03*
X202622Y183079D02*
G54D26*
D03*
X202622Y183079D02*
G54D26*
D03*
X142281Y185009D02*
G54D26*
D03*
X142393Y134028D02*
G54D26*
D03*
X76200Y425450D02*
G54D26*
D03*
X228600Y425450D02*
G54D26*
D03*
X76200Y298450D02*
G54D26*
D03*
X76200Y361950D02*
G54D26*
D03*
X228600Y361950D02*
G54D26*
D03*
X228600Y298450D02*
G54D26*
D03*
X76200Y361950D02*
G54D27*
D03*
X228600Y361950D02*
G54D27*
D03*
X262303Y414266D02*
G54D26*
D03*
X335938Y56065D02*
G54D26*
D03*
X335988Y132315D02*
G54D26*
D03*
X335988Y132315D02*
G54D26*
D03*
X335938Y56065D02*
G54D27*
D03*
G54D28*
X262303Y414266D02*
X260350Y411100D01*
X247650Y423800D01*
X228600Y423800D01*
X228600Y425450D01*
G54D28*
X262303Y414266D02*
X260350Y411100D01*
X298450Y373000D01*
X298450Y360300D01*
X301031Y362809D01*
G54D28*
X228600Y361950D02*
X228600Y360300D01*
X260350Y360300D01*
X263085Y362620D01*
G54D28*
X263197Y311639D02*
X260350Y309500D01*
X323850Y246000D01*
X387350Y246000D01*
X389074Y243232D01*
G54D28*
X228600Y298450D02*
X228600Y296800D01*
X203200Y271400D01*
X203200Y258700D01*
X202672Y259329D01*
G54D28*
X142393Y134028D02*
X139700Y131700D01*
X190500Y182500D01*
X203200Y182500D01*
X202622Y183079D01*
G54D29*
X202622Y183079D02*
X203200Y182500D01*
X222250Y201550D01*
X260350Y201550D01*
X257850Y204050D01*
G54D29*
X202638Y132315D02*
X203200Y131700D01*
X260350Y188850D01*
X260350Y201550D01*
X257850Y204050D01*
G54D29*
X249629Y134875D02*
X247650Y138050D01*
X279400Y169800D01*
X279400Y195200D01*
X280750Y193850D01*
G54D28*
X294681Y121509D02*
X292100Y119000D01*
X273050Y138050D01*
X247650Y138050D01*
X249629Y134875D01*
G54D28*
X335988Y132315D02*
X336550Y131700D01*
X323850Y119000D01*
X292100Y119000D01*
X294681Y121509D01*
G54D28*
X389074Y170207D02*
X387350Y169800D01*
X419100Y201550D01*
X419100Y207900D01*
X438150Y226950D01*
X438150Y252350D01*
X439027Y251584D01*
G54D28*
X992579Y223775D02*
X990600Y226950D01*
X990600Y258700D01*
X992529Y261825D01*
G54D28*
X941779Y223775D02*
X939800Y226950D01*
X939800Y258700D01*
X941729Y261825D01*
X393700Y277750D02*
G54D30*
D03*
X812800Y328550D02*
G54D30*
D03*
X1219200Y328550D02*
G54D30*
D03*
X1219200Y138050D02*
G54D30*
D03*
G54D29*
X202672Y259329D02*
X203200Y258700D01*
X247650Y214250D01*
X279400Y214250D01*
X280750Y214250D01*
G54D28*
X1219200Y328550D02*
X1231900Y315850D01*
X1231900Y296800D01*
X1231900Y298450D01*
G54D28*
X1219200Y138050D02*
X1231900Y150750D01*
X1231900Y169800D01*
X1231900Y171450D01*
G54D28*
X393700Y277750D02*
X387350Y271400D01*
X387350Y246000D01*
X389074Y243232D01*
G54D28*
X812800Y328550D02*
X812800Y296800D01*
X812800Y298450D01*
X29931Y193681D02*
G54D31*
D03*
X80731Y193681D02*
G54D31*
D03*
X55331Y168281D02*
G54D31*
D03*
X80731Y142881D02*
G54D31*
D03*
X29931Y142881D02*
G54D31*
D03*
X127000Y214250D02*
G54D30*
D03*
G54D28*
X55331Y168281D02*
X57150Y169800D01*
X88900Y169800D01*
X101600Y182500D01*
X139700Y182500D01*
X142281Y185009D01*
G54D28*
X127000Y214250D02*
X139700Y201550D01*
X139700Y182500D01*
X142281Y185009D01*
X297849Y424439D02*
G54D26*
D03*
X374098Y424389D02*
G54D26*
D03*
X374098Y424389D02*
G54D26*
D03*
G54D28*
X297849Y424439D02*
X298450Y423800D01*
X285750Y411100D01*
X260350Y411100D01*
X262303Y414266D01*
G36*
X7226Y310337D02*
X37226Y310337D01*
X37226Y280337D01*
X7226Y280337D01*
X7226Y310337D01*
G37*
X31750Y30100D02*
G54D32*
D03*
X31750Y474600D02*
G54D32*
D03*
X1212850Y461900D02*
G54D32*
D03*
X1212850Y30100D02*
G54D32*
D03*
G36*
X566026Y43637D02*
X596026Y43637D01*
X596026Y13637D01*
X566026Y13637D01*
X566026Y43637D01*
G37*
G36*
X553326Y488137D02*
X583326Y488137D01*
X583326Y458137D01*
X553326Y458137D01*
X553326Y488137D01*
G37*
M02*
