%FSLAX34Y34*%
%MOMM*%
%LNSILK_TOP*%
G71*
G01*
%ADD10C,0.150*%
%ADD11C,0.111*%
%ADD12C,0.167*%
%ADD13C,0.400*%
%ADD14C,0.200*%
%ADD15C,0.144*%
%ADD16C,0.222*%
%LPD*%
G54D10*
X940500Y437950D02*
X948500Y437950D01*
X948500Y387225D01*
X940500Y387225D01*
G54D10*
G75*
G01X940539Y438081D02*
G03X940539Y387081I0J-25500D01*
G01*
G54D11*
X933967Y451013D02*
X937301Y449347D01*
G54D11*
X936634Y456569D02*
X936634Y451013D01*
X935967Y449902D01*
X934634Y449347D01*
X933301Y449347D01*
X931967Y449902D01*
X931301Y451013D01*
X931301Y456569D01*
X931967Y457680D01*
X933301Y458236D01*
X934634Y458236D01*
X935967Y457680D01*
X936634Y456569D01*
G54D11*
X939745Y451013D02*
X940411Y449902D01*
X941745Y449347D01*
X943078Y449347D01*
X944411Y449902D01*
X945078Y451013D01*
X945078Y453791D01*
X945078Y454347D01*
X943078Y453236D01*
X941745Y453236D01*
X940411Y453791D01*
X939745Y454902D01*
X939745Y456569D01*
X940411Y457680D01*
X941745Y458236D01*
X943078Y458236D01*
X944411Y457680D01*
X945078Y456569D01*
X945078Y453791D01*
G54D11*
X952855Y449347D02*
X947522Y449347D01*
X947522Y449902D01*
X948188Y451013D01*
X952188Y454347D01*
X952855Y455458D01*
X952855Y456569D01*
X952188Y457680D01*
X950855Y458236D01*
X949522Y458236D01*
X948188Y457680D01*
X947522Y456569D01*
G54D10*
X1004000Y437950D02*
X1012000Y437950D01*
X1012000Y387225D01*
X1004000Y387225D01*
G54D10*
G75*
G01X1004039Y438081D02*
G03X1004039Y387081I0J-25500D01*
G01*
G54D11*
X997984Y451013D02*
X1001317Y449347D01*
G54D11*
X1000650Y456569D02*
X1000650Y451013D01*
X999984Y449902D01*
X998650Y449347D01*
X997317Y449347D01*
X995984Y449902D01*
X995317Y451013D01*
X995317Y456569D01*
X995984Y457680D01*
X997317Y458236D01*
X998650Y458236D01*
X999984Y457680D01*
X1000650Y456569D01*
G54D11*
X1003761Y451013D02*
X1004428Y449902D01*
X1005761Y449347D01*
X1007094Y449347D01*
X1008428Y449902D01*
X1009094Y451013D01*
X1009094Y453791D01*
X1009094Y454347D01*
X1007094Y453236D01*
X1005761Y453236D01*
X1004428Y453791D01*
X1003761Y454902D01*
X1003761Y456569D01*
X1004428Y457680D01*
X1005761Y458236D01*
X1007094Y458236D01*
X1008428Y457680D01*
X1009094Y456569D01*
X1009094Y453791D01*
G54D11*
X1011538Y456569D02*
X1012205Y457680D01*
X1013538Y458236D01*
X1014872Y458236D01*
X1016205Y457680D01*
X1016872Y456569D01*
X1016872Y455458D01*
X1016205Y454347D01*
X1014872Y453791D01*
X1016205Y453236D01*
X1016872Y452125D01*
X1016872Y451013D01*
X1016205Y449902D01*
X1014872Y449347D01*
X1013538Y449347D01*
X1012205Y449902D01*
X1011538Y451013D01*
G54D10*
X940500Y82350D02*
X948500Y82350D01*
X948500Y31625D01*
X940500Y31625D01*
G54D10*
G75*
G01X940539Y82481D02*
G03X940539Y31481I0J-25500D01*
G01*
G54D11*
X936412Y95413D02*
X939746Y93747D01*
G54D11*
X939079Y100969D02*
X939079Y95413D01*
X938412Y94302D01*
X937079Y93747D01*
X935746Y93747D01*
X934412Y94302D01*
X933746Y95413D01*
X933746Y100969D01*
X934412Y102080D01*
X935746Y102636D01*
X937079Y102636D01*
X938412Y102080D01*
X939079Y100969D01*
G54D11*
X942190Y95413D02*
X942856Y94302D01*
X944190Y93747D01*
X945523Y93747D01*
X946856Y94302D01*
X947523Y95413D01*
X947523Y98191D01*
X947523Y98747D01*
X945523Y97636D01*
X944190Y97636D01*
X942856Y98191D01*
X942190Y99302D01*
X942190Y100969D01*
X942856Y102080D01*
X944190Y102636D01*
X945523Y102636D01*
X946856Y102080D01*
X947523Y100969D01*
X947523Y98191D01*
G54D11*
X955300Y100969D02*
X954633Y102080D01*
X953300Y102636D01*
X951967Y102636D01*
X950633Y102080D01*
X949967Y100969D01*
X949967Y98191D01*
X949967Y97636D01*
X951967Y98747D01*
X953300Y98747D01*
X954633Y98191D01*
X955300Y97080D01*
X955300Y95413D01*
X954633Y94302D01*
X953300Y93747D01*
X951967Y93747D01*
X950633Y94302D01*
X949967Y95413D01*
X949967Y98191D01*
G54D10*
X1004000Y82350D02*
X1012000Y82350D01*
X1012000Y31625D01*
X1004000Y31625D01*
G54D10*
G75*
G01X1004039Y82481D02*
G03X1004039Y31481I0J-25500D01*
G01*
G54D11*
X999912Y95413D02*
X1003245Y93747D01*
G54D11*
X1002578Y100969D02*
X1002578Y95413D01*
X1001912Y94302D01*
X1000578Y93747D01*
X999245Y93747D01*
X997912Y94302D01*
X997245Y95413D01*
X997245Y100969D01*
X997912Y102080D01*
X999245Y102636D01*
X1000578Y102636D01*
X1001912Y102080D01*
X1002578Y100969D01*
G54D11*
X1005689Y95413D02*
X1006356Y94302D01*
X1007689Y93747D01*
X1009022Y93747D01*
X1010356Y94302D01*
X1011022Y95413D01*
X1011022Y98191D01*
X1011022Y98747D01*
X1009022Y97636D01*
X1007689Y97636D01*
X1006356Y98191D01*
X1005689Y99302D01*
X1005689Y100969D01*
X1006356Y102080D01*
X1007689Y102636D01*
X1009022Y102636D01*
X1010356Y102080D01*
X1011022Y100969D01*
X1011022Y98191D01*
G54D11*
X1013466Y102636D02*
X1018800Y102636D01*
X1018133Y101524D01*
X1016800Y99858D01*
X1015466Y97636D01*
X1014800Y95969D01*
X1014800Y93747D01*
G54D11*
X956500Y375206D02*
X955433Y374650D01*
X954100Y374650D01*
X952767Y375206D01*
X952500Y376317D01*
X952500Y378206D01*
X953167Y379317D01*
X954500Y379650D01*
X955833Y379317D01*
X956500Y378539D01*
X956500Y377428D01*
X952500Y377428D01*
G54D11*
X956500Y83106D02*
X955433Y82550D01*
X954100Y82550D01*
X952767Y83106D01*
X952500Y84217D01*
X952500Y86106D01*
X953167Y87217D01*
X954500Y87550D01*
X955833Y87217D01*
X956500Y86439D01*
X956500Y85328D01*
X952500Y85328D01*
G54D10*
X952875Y274621D02*
X930700Y274621D01*
X930700Y325321D01*
X952875Y325321D01*
X952875Y274621D01*
G54D10*
X941788Y274421D02*
X941788Y266521D01*
G54D10*
X941788Y325421D02*
X941787Y333321D01*
G54D10*
X952875Y160321D02*
X930700Y160321D01*
X930700Y211021D01*
X952875Y211021D01*
X952875Y160321D01*
G54D10*
X941788Y160121D02*
X941788Y152221D01*
G54D10*
X941788Y211121D02*
X941787Y219021D01*
G54D10*
X1003675Y274621D02*
X981500Y274621D01*
X981500Y325321D01*
X1003675Y325321D01*
X1003675Y274621D01*
G54D10*
X992588Y274421D02*
X992588Y266521D01*
G54D10*
X992588Y325421D02*
X992587Y333321D01*
G54D12*
X963663Y311562D02*
X963663Y311562D01*
G54D10*
X1003675Y160321D02*
X981500Y160321D01*
X981500Y211021D01*
X1003675Y211021D01*
X1003675Y160321D01*
G54D10*
X992588Y160121D02*
X992588Y152221D01*
G54D10*
X992588Y211121D02*
X992587Y219021D01*
G54D10*
X905884Y272061D02*
X883710Y272061D01*
X883710Y322761D01*
X905884Y322761D01*
X905884Y272061D01*
G54D10*
X894797Y271861D02*
X894797Y263961D01*
G54D10*
X894797Y322861D02*
X894797Y330761D01*
G54D10*
X905884Y157761D02*
X883710Y157761D01*
X883710Y208461D01*
X905884Y208461D01*
X905884Y157761D01*
G54D10*
X894797Y157561D02*
X894797Y149661D01*
G54D10*
X894797Y208561D02*
X894797Y216461D01*
G54D10*
X893185Y43461D02*
X871010Y43461D01*
X871010Y94161D01*
X893185Y94161D01*
X893185Y43461D01*
G54D10*
X882097Y43261D02*
X882097Y35361D01*
G54D10*
X882097Y94261D02*
X882097Y102161D01*
G54D10*
X893185Y386361D02*
X871010Y386361D01*
X871010Y437061D01*
X893185Y437061D01*
X893185Y386361D01*
G54D10*
X882097Y386161D02*
X882097Y378261D01*
G54D10*
X882097Y437161D02*
X882097Y445061D01*
G54D10*
X839056Y253888D02*
X864456Y253888D01*
X864456Y325488D01*
X839056Y325488D01*
X839056Y253888D01*
G54D10*
X839056Y152288D02*
X864456Y152288D01*
X864456Y223888D01*
X839056Y223888D01*
X839056Y152288D01*
G54D10*
X1045584Y272061D02*
X1023410Y272061D01*
X1023410Y322761D01*
X1045584Y322761D01*
X1045584Y272061D01*
G54D10*
X1034497Y271861D02*
X1034497Y263961D01*
G54D10*
X1034497Y322861D02*
X1034497Y330761D01*
G54D10*
X1023206Y152288D02*
X1048606Y152288D01*
X1048606Y223888D01*
X1023206Y223888D01*
X1023206Y152288D01*
G54D13*
X673100Y298450D02*
X800100Y298450D01*
X800100Y171450D01*
X673100Y171450D01*
X673100Y298450D01*
G54D13*
X1092200Y298450D02*
X1219200Y298450D01*
X1219200Y171450D01*
X1092200Y171450D01*
X1092200Y298450D01*
G54D14*
X1122700Y430264D02*
X1132300Y430264D01*
G54D14*
X1127500Y434264D02*
X1127500Y426264D01*
G54D14*
X1136700Y439264D02*
X1142700Y423264D01*
X1148700Y439264D01*
G54D14*
X1157900Y423264D02*
X1157900Y439264D01*
G54D14*
X1153100Y439264D02*
X1162700Y439264D01*
G54D14*
X1167100Y439264D02*
X1179100Y423264D01*
G54D14*
X1167100Y423264D02*
X1179100Y439264D01*
G54D10*
X1112904Y445438D02*
X1112904Y470838D01*
X1163704Y470838D01*
X1163704Y445438D01*
X1112904Y445438D01*
G54D14*
X1105571Y458667D02*
X1099220Y458667D01*
G54D14*
X1099220Y450730D02*
X1099221Y466605D01*
G54D14*
X1096046Y464223D02*
X1096046Y453111D01*
G54D14*
X1092871Y456286D02*
X1092871Y461048D01*
G54D10*
X508700Y260150D02*
X516700Y260150D01*
X516700Y209425D01*
X508700Y209425D01*
G54D10*
G75*
G01X508739Y260281D02*
G03X508739Y209281I0J-25500D01*
G01*
G54D10*
X572200Y260150D02*
X580200Y260150D01*
X580200Y209425D01*
X572200Y209425D01*
G54D10*
G75*
G01X572239Y260281D02*
G03X572239Y209281I0J-25500D01*
G01*
G54D11*
X512000Y197406D02*
X510933Y196850D01*
X509600Y196850D01*
X508267Y197406D01*
X508000Y198517D01*
X508000Y200406D01*
X508667Y201517D01*
X510000Y201850D01*
X511333Y201517D01*
X512000Y200739D01*
X512000Y199628D01*
X508000Y199628D01*
G54D10*
X533775Y109521D02*
X511600Y109521D01*
X511600Y160221D01*
X533775Y160221D01*
X533775Y109521D01*
G54D10*
X522688Y109321D02*
X522688Y101421D01*
G54D10*
X522688Y160321D02*
X522687Y168221D01*
G54D10*
X584575Y109521D02*
X562400Y109521D01*
X562400Y160221D01*
X584575Y160221D01*
X584575Y109521D01*
G54D10*
X573488Y109321D02*
X573488Y101421D01*
G54D10*
X573488Y160321D02*
X573487Y168221D01*
G54D10*
X486784Y106961D02*
X464610Y106961D01*
X464610Y157661D01*
X486784Y157661D01*
X486784Y106961D01*
G54D10*
X475697Y106761D02*
X475697Y98861D01*
G54D10*
X475697Y157761D02*
X475697Y165661D01*
G54D10*
X426306Y190388D02*
X451706Y190388D01*
X451706Y261988D01*
X426306Y261988D01*
X426306Y190388D01*
G54D10*
X501144Y298993D02*
X501144Y321168D01*
X551844Y321168D01*
X551844Y298993D01*
X501144Y298993D01*
G54D10*
X500944Y310080D02*
X493044Y310080D01*
G54D10*
X551944Y310080D02*
X559844Y310080D01*
G54D10*
X604590Y195469D02*
X626765Y195469D01*
X626765Y144769D01*
X604590Y144770D01*
X604590Y195469D01*
G54D10*
X615677Y195670D02*
X615677Y203570D01*
G54D10*
X615677Y144669D02*
X615678Y136769D01*
G54D10*
X626969Y315243D02*
X601568Y315243D01*
X601569Y243643D01*
X626969Y243643D01*
X626969Y315243D01*
G54D10*
X291850Y186250D02*
X249250Y186250D01*
X249250Y221850D01*
X291850Y221850D01*
X291850Y186250D01*
G54D10*
X260725Y71421D02*
X238550Y71421D01*
X238550Y122121D01*
X260725Y122121D01*
X260725Y71421D01*
G54D10*
X249638Y71221D02*
X249638Y63321D01*
G54D10*
X249638Y122221D02*
X249637Y130121D01*
G54D10*
X213734Y68861D02*
X191560Y68861D01*
X191560Y119561D01*
X213734Y119561D01*
X213734Y68861D01*
G54D10*
X202647Y68661D02*
X202647Y60761D01*
G54D10*
X202647Y119661D02*
X202647Y127561D01*
G54D10*
G75*
G01X409774Y208307D02*
G03X409774Y208307I-38100J0D01*
G01*
G54D10*
X307514Y131724D02*
X282114Y131724D01*
X282114Y60124D01*
X307514Y60124D01*
X307514Y131724D01*
G54D10*
X250364Y301424D02*
X275764Y301424D01*
X275764Y373024D01*
X250364Y373024D01*
X250364Y301424D01*
G54D10*
X313864Y373024D02*
X288464Y373024D01*
X288464Y301424D01*
X313864Y301424D01*
X313864Y373024D01*
G54D10*
X191526Y246533D02*
X213701Y246533D01*
X213701Y195833D01*
X191526Y195833D01*
X191526Y246533D01*
G54D10*
X202614Y246733D02*
X202614Y254633D01*
G54D10*
X202614Y195733D02*
X202614Y187833D01*
G54D10*
X155114Y195224D02*
X129714Y195224D01*
X129714Y123624D01*
X155114Y123624D01*
X155114Y195224D01*
G54D13*
X88900Y425450D02*
X215900Y425450D01*
X215900Y298450D01*
X88900Y298450D01*
X88900Y425450D01*
G54D10*
X347084Y68861D02*
X324910Y68861D01*
X324910Y119561D01*
X347084Y119561D01*
X347084Y68861D01*
G54D10*
X335997Y68661D02*
X335997Y60761D01*
G54D10*
X335997Y119661D02*
X335997Y127561D01*
G54D10*
X4531Y219081D02*
X106131Y219081D01*
X106131Y117481D01*
X4531Y117481D01*
X4531Y219081D01*
G54D15*
X3781Y245831D02*
X3781Y245831D01*
G54D15*
X3781Y226331D02*
X3781Y226331D01*
G54D16*
X25781Y221331D02*
X25781Y239109D01*
G54D16*
X30670Y221331D02*
X30670Y239109D01*
X41337Y221331D01*
X41337Y239109D01*
G54D16*
X1154048Y324676D02*
X1154048Y313565D01*
X1152715Y311342D01*
X1150048Y310231D01*
X1147381Y310231D01*
X1144715Y311342D01*
X1143381Y313565D01*
X1143381Y324676D01*
X1144715Y326898D01*
X1147381Y328009D01*
X1150048Y328009D01*
X1152715Y326898D01*
X1154048Y324676D01*
G54D16*
X1158937Y328009D02*
X1158937Y313565D01*
X1160271Y311342D01*
X1162937Y310231D01*
X1165604Y310231D01*
X1168271Y311342D01*
X1169604Y313565D01*
X1169604Y328009D01*
G54D16*
X1179827Y310231D02*
X1179827Y328009D01*
G54D16*
X1174493Y328009D02*
X1185160Y328009D01*
G54D10*
X310644Y413293D02*
X310644Y435468D01*
X361344Y435468D01*
X361344Y413293D01*
X310644Y413293D01*
G54D10*
X310444Y424380D02*
X302544Y424380D01*
G54D10*
X361444Y424380D02*
X369345Y424381D01*
G54D11*
X332867Y447294D02*
X334867Y446183D01*
X335533Y445072D01*
X335533Y442850D01*
G54D11*
X330200Y442850D02*
X330200Y451739D01*
X333533Y451739D01*
X334867Y451183D01*
X335533Y450072D01*
X335533Y448961D01*
X334867Y447850D01*
X333533Y447294D01*
X330200Y447294D01*
G54D11*
X341310Y447294D02*
X339977Y447294D01*
X338644Y447850D01*
X337977Y448961D01*
X337977Y450072D01*
X338644Y451183D01*
X339977Y451739D01*
X341310Y451739D01*
X342644Y451183D01*
X343310Y450072D01*
X343310Y448961D01*
X342644Y447850D01*
X341310Y447294D01*
X342644Y446739D01*
X343310Y445628D01*
X343310Y444517D01*
X342644Y443406D01*
X341310Y442850D01*
X339977Y442850D01*
X338644Y443406D01*
X337977Y444517D01*
X337977Y445628D01*
X338644Y446739D01*
X339977Y447294D01*
G54D11*
X349754Y442850D02*
X349754Y451739D01*
X345754Y446183D01*
X345754Y445072D01*
X351087Y445072D01*
G54D11*
X322833Y355617D02*
X322167Y354506D01*
X320833Y353950D01*
X319500Y353950D01*
X318167Y354506D01*
X317500Y355617D01*
X317500Y361172D01*
X318167Y362283D01*
X319500Y362839D01*
X320833Y362839D01*
X322167Y362283D01*
X322833Y361172D01*
G54D11*
X328610Y358394D02*
X327277Y358394D01*
X325944Y358950D01*
X325277Y360061D01*
X325277Y361172D01*
X325944Y362283D01*
X327277Y362839D01*
X328610Y362839D01*
X329944Y362283D01*
X330610Y361172D01*
X330610Y360061D01*
X329944Y358950D01*
X328610Y358394D01*
X329944Y357839D01*
X330610Y356728D01*
X330610Y355617D01*
X329944Y354506D01*
X328610Y353950D01*
X327277Y353950D01*
X325944Y354506D01*
X325277Y355617D01*
X325277Y356728D01*
X325944Y357839D01*
X327277Y358394D01*
G54D11*
X333054Y361172D02*
X333721Y362283D01*
X335054Y362839D01*
X336387Y362839D01*
X337721Y362283D01*
X338387Y361172D01*
X338387Y360061D01*
X337721Y358950D01*
X336387Y358394D01*
X337721Y357839D01*
X338387Y356728D01*
X338387Y355617D01*
X337721Y354506D01*
X336387Y353950D01*
X335054Y353950D01*
X333721Y354506D01*
X333054Y355617D01*
G54D11*
X233933Y330217D02*
X233267Y329106D01*
X231933Y328550D01*
X230600Y328550D01*
X229267Y329106D01*
X228600Y330217D01*
X228600Y335772D01*
X229267Y336883D01*
X230600Y337439D01*
X231933Y337439D01*
X233267Y336883D01*
X233933Y335772D01*
G54D11*
X239710Y332994D02*
X238377Y332994D01*
X237044Y333550D01*
X236377Y334661D01*
X236377Y335772D01*
X237044Y336883D01*
X238377Y337439D01*
X239710Y337439D01*
X241044Y336883D01*
X241710Y335772D01*
X241710Y334661D01*
X241044Y333550D01*
X239710Y332994D01*
X241044Y332439D01*
X241710Y331328D01*
X241710Y330217D01*
X241044Y329106D01*
X239710Y328550D01*
X238377Y328550D01*
X237044Y329106D01*
X236377Y330217D01*
X236377Y331328D01*
X237044Y332439D01*
X238377Y332994D01*
G54D11*
X249487Y328550D02*
X244154Y328550D01*
X244154Y329106D01*
X244821Y330217D01*
X248821Y333550D01*
X249487Y334661D01*
X249487Y335772D01*
X248821Y336883D01*
X247487Y337439D01*
X246154Y337439D01*
X244821Y336883D01*
X244154Y335772D01*
G54D11*
X359897Y203863D02*
X361897Y202752D01*
X362563Y201640D01*
X362563Y199418D01*
G54D11*
X357230Y199418D02*
X357230Y208307D01*
X360563Y208307D01*
X361897Y207752D01*
X362563Y206640D01*
X362563Y205529D01*
X361897Y204418D01*
X360563Y203863D01*
X357230Y203863D01*
G54D11*
X365007Y208307D02*
X368340Y199418D01*
X371674Y208307D01*
G54D11*
X374118Y204974D02*
X377451Y208307D01*
X377451Y199418D01*
G54D11*
X358267Y104394D02*
X360267Y103283D01*
X360933Y102172D01*
X360933Y99950D01*
G54D11*
X355600Y99950D02*
X355600Y108839D01*
X358933Y108839D01*
X360267Y108283D01*
X360933Y107172D01*
X360933Y106061D01*
X360267Y104950D01*
X358933Y104394D01*
X355600Y104394D01*
G54D11*
X366710Y104394D02*
X365377Y104394D01*
X364044Y104950D01*
X363377Y106061D01*
X363377Y107172D01*
X364044Y108283D01*
X365377Y108839D01*
X366710Y108839D01*
X368044Y108283D01*
X368710Y107172D01*
X368710Y106061D01*
X368044Y104950D01*
X366710Y104394D01*
X368044Y103839D01*
X368710Y102728D01*
X368710Y101617D01*
X368044Y100506D01*
X366710Y99950D01*
X365377Y99950D01*
X364044Y100506D01*
X363377Y101617D01*
X363377Y102728D01*
X364044Y103839D01*
X365377Y104394D01*
G54D11*
X371154Y107172D02*
X371821Y108283D01*
X373154Y108839D01*
X374487Y108839D01*
X375821Y108283D01*
X376487Y107172D01*
X376487Y106061D01*
X375821Y104950D01*
X374487Y104394D01*
X375821Y103839D01*
X376487Y102728D01*
X376487Y101617D01*
X375821Y100506D01*
X374487Y99950D01*
X373154Y99950D01*
X371821Y100506D01*
X371154Y101617D01*
G54D11*
X297433Y152417D02*
X296767Y151306D01*
X295433Y150750D01*
X294100Y150750D01*
X292767Y151306D01*
X292100Y152417D01*
X292100Y157972D01*
X292767Y159083D01*
X294100Y159639D01*
X295433Y159639D01*
X296767Y159083D01*
X297433Y157972D01*
G54D11*
X303210Y155194D02*
X301877Y155194D01*
X300544Y155750D01*
X299877Y156861D01*
X299877Y157972D01*
X300544Y159083D01*
X301877Y159639D01*
X303210Y159639D01*
X304544Y159083D01*
X305210Y157972D01*
X305210Y156861D01*
X304544Y155750D01*
X303210Y155194D01*
X304544Y154639D01*
X305210Y153528D01*
X305210Y152417D01*
X304544Y151306D01*
X303210Y150750D01*
X301877Y150750D01*
X300544Y151306D01*
X299877Y152417D01*
X299877Y153528D01*
X300544Y154639D01*
X301877Y155194D01*
G54D11*
X307654Y156306D02*
X310987Y159639D01*
X310987Y150750D01*
G54D11*
X256667Y91694D02*
X258667Y90583D01*
X259333Y89472D01*
X259333Y87250D01*
G54D11*
X254000Y87250D02*
X254000Y96139D01*
X257333Y96139D01*
X258667Y95583D01*
X259333Y94472D01*
X259333Y93361D01*
X258667Y92250D01*
X257333Y91694D01*
X254000Y91694D01*
G54D11*
X265110Y91694D02*
X263777Y91694D01*
X262444Y92250D01*
X261777Y93361D01*
X261777Y94472D01*
X262444Y95583D01*
X263777Y96139D01*
X265110Y96139D01*
X266444Y95583D01*
X267110Y94472D01*
X267110Y93361D01*
X266444Y92250D01*
X265110Y91694D01*
X266444Y91139D01*
X267110Y90028D01*
X267110Y88917D01*
X266444Y87806D01*
X265110Y87250D01*
X263777Y87250D01*
X262444Y87806D01*
X261777Y88917D01*
X261777Y90028D01*
X262444Y91139D01*
X263777Y91694D01*
G54D11*
X274887Y87250D02*
X269554Y87250D01*
X269554Y87806D01*
X270221Y88917D01*
X274221Y92250D01*
X274887Y93361D01*
X274887Y94472D01*
X274221Y95583D01*
X272887Y96139D01*
X271554Y96139D01*
X270221Y95583D01*
X269554Y94472D01*
G54D11*
X193167Y91694D02*
X195167Y90583D01*
X195833Y89472D01*
X195833Y87250D01*
G54D11*
X190500Y87250D02*
X190500Y96139D01*
X193833Y96139D01*
X195167Y95583D01*
X195833Y94472D01*
X195833Y93361D01*
X195167Y92250D01*
X193833Y91694D01*
X190500Y91694D01*
G54D11*
X201610Y91694D02*
X200277Y91694D01*
X198944Y92250D01*
X198277Y93361D01*
X198277Y94472D01*
X198944Y95583D01*
X200277Y96139D01*
X201610Y96139D01*
X202944Y95583D01*
X203610Y94472D01*
X203610Y93361D01*
X202944Y92250D01*
X201610Y91694D01*
X202944Y91139D01*
X203610Y90028D01*
X203610Y88917D01*
X202944Y87806D01*
X201610Y87250D01*
X200277Y87250D01*
X198944Y87806D01*
X198277Y88917D01*
X198277Y90028D01*
X198944Y91139D01*
X200277Y91694D01*
G54D11*
X211387Y94472D02*
X211387Y88917D01*
X210721Y87806D01*
X209387Y87250D01*
X208054Y87250D01*
X206721Y87806D01*
X206054Y88917D01*
X206054Y94472D01*
X206721Y95583D01*
X208054Y96139D01*
X209387Y96139D01*
X210721Y95583D01*
X211387Y94472D01*
G54D11*
X193167Y218694D02*
X195167Y217583D01*
X195833Y216472D01*
X195833Y214250D01*
G54D11*
X190500Y214250D02*
X190500Y223139D01*
X193833Y223139D01*
X195167Y222583D01*
X195833Y221472D01*
X195833Y220361D01*
X195167Y219250D01*
X193833Y218694D01*
X190500Y218694D01*
G54D11*
X201610Y218694D02*
X200277Y218694D01*
X198944Y219250D01*
X198277Y220361D01*
X198277Y221472D01*
X198944Y222583D01*
X200277Y223139D01*
X201610Y223139D01*
X202944Y222583D01*
X203610Y221472D01*
X203610Y220361D01*
X202944Y219250D01*
X201610Y218694D01*
X202944Y218139D01*
X203610Y217028D01*
X203610Y215917D01*
X202944Y214806D01*
X201610Y214250D01*
X200277Y214250D01*
X198944Y214806D01*
X198277Y215917D01*
X198277Y217028D01*
X198944Y218139D01*
X200277Y218694D01*
G54D11*
X206054Y219806D02*
X209387Y223139D01*
X209387Y214250D01*
G54D11*
X145033Y152417D02*
X144367Y151306D01*
X143033Y150750D01*
X141700Y150750D01*
X140367Y151306D01*
X139700Y152417D01*
X139700Y157972D01*
X140367Y159083D01*
X141700Y159639D01*
X143033Y159639D01*
X144367Y159083D01*
X145033Y157972D01*
G54D11*
X150810Y155194D02*
X149477Y155194D01*
X148144Y155750D01*
X147477Y156861D01*
X147477Y157972D01*
X148144Y159083D01*
X149477Y159639D01*
X150810Y159639D01*
X152144Y159083D01*
X152810Y157972D01*
X152810Y156861D01*
X152144Y155750D01*
X150810Y155194D01*
X152144Y154639D01*
X152810Y153528D01*
X152810Y152417D01*
X152144Y151306D01*
X150810Y150750D01*
X149477Y150750D01*
X148144Y151306D01*
X147477Y152417D01*
X147477Y153528D01*
X148144Y154639D01*
X149477Y155194D01*
G54D11*
X160587Y157972D02*
X160587Y152417D01*
X159921Y151306D01*
X158587Y150750D01*
X157254Y150750D01*
X155921Y151306D01*
X155254Y152417D01*
X155254Y157972D01*
X155921Y159083D01*
X157254Y159639D01*
X158587Y159639D01*
X159921Y159083D01*
X160587Y157972D01*
G54D11*
X269367Y228617D02*
X272700Y226950D01*
G54D11*
X272033Y234172D02*
X272033Y228617D01*
X271367Y227506D01*
X270033Y226950D01*
X268700Y226950D01*
X267367Y227506D01*
X266700Y228617D01*
X266700Y234172D01*
X267367Y235283D01*
X268700Y235839D01*
X270033Y235839D01*
X271367Y235283D01*
X272033Y234172D01*
G54D11*
X275144Y228617D02*
X275811Y227506D01*
X277144Y226950D01*
X278477Y226950D01*
X279811Y227506D01*
X280477Y228617D01*
X280477Y231394D01*
X280477Y231950D01*
X278477Y230839D01*
X277144Y230839D01*
X275811Y231394D01*
X275144Y232506D01*
X275144Y234172D01*
X275811Y235283D01*
X277144Y235839D01*
X278477Y235839D01*
X279811Y235283D01*
X280477Y234172D01*
X280477Y231394D01*
G54D11*
X288254Y234172D02*
X288254Y228617D01*
X287588Y227506D01*
X286254Y226950D01*
X284921Y226950D01*
X283588Y227506D01*
X282921Y228617D01*
X282921Y234172D01*
X283588Y235283D01*
X284921Y235839D01*
X286254Y235839D01*
X287588Y235283D01*
X288254Y234172D01*
G54D11*
X142367Y353950D02*
X142367Y362839D01*
G54D11*
X139700Y362839D02*
X145033Y362839D01*
G54D11*
X150810Y358394D02*
X149477Y358394D01*
X148144Y358950D01*
X147477Y360061D01*
X147477Y361172D01*
X148144Y362283D01*
X149477Y362839D01*
X150810Y362839D01*
X152144Y362283D01*
X152810Y361172D01*
X152810Y360061D01*
X152144Y358950D01*
X150810Y358394D01*
X152144Y357839D01*
X152810Y356728D01*
X152810Y355617D01*
X152144Y354506D01*
X150810Y353950D01*
X149477Y353950D01*
X148144Y354506D01*
X147477Y355617D01*
X147477Y356728D01*
X148144Y357839D01*
X149477Y358394D01*
G54D11*
X437133Y279417D02*
X436467Y278306D01*
X435133Y277750D01*
X433800Y277750D01*
X432467Y278306D01*
X431800Y279417D01*
X431800Y284972D01*
X432467Y286083D01*
X433800Y286639D01*
X435133Y286639D01*
X436467Y286083D01*
X437133Y284972D01*
G54D11*
X442910Y282194D02*
X441577Y282194D01*
X440244Y282750D01*
X439577Y283861D01*
X439577Y284972D01*
X440244Y286083D01*
X441577Y286639D01*
X442910Y286639D01*
X444244Y286083D01*
X444910Y284972D01*
X444910Y283861D01*
X444244Y282750D01*
X442910Y282194D01*
X444244Y281639D01*
X444910Y280528D01*
X444910Y279417D01*
X444244Y278306D01*
X442910Y277750D01*
X441577Y277750D01*
X440244Y278306D01*
X439577Y279417D01*
X439577Y280528D01*
X440244Y281639D01*
X441577Y282194D01*
G54D11*
X451354Y277750D02*
X451354Y286639D01*
X447354Y281083D01*
X447354Y279972D01*
X452687Y279972D01*
G54D11*
X510667Y332994D02*
X512667Y331883D01*
X513333Y330772D01*
X513333Y328550D01*
G54D11*
X508000Y328550D02*
X508000Y337439D01*
X511333Y337439D01*
X512667Y336883D01*
X513333Y335772D01*
X513333Y334661D01*
X512667Y333550D01*
X511333Y332994D01*
X508000Y332994D01*
G54D11*
X519110Y332994D02*
X517777Y332994D01*
X516444Y333550D01*
X515777Y334661D01*
X515777Y335772D01*
X516444Y336883D01*
X517777Y337439D01*
X519110Y337439D01*
X520444Y336883D01*
X521110Y335772D01*
X521110Y334661D01*
X520444Y333550D01*
X519110Y332994D01*
X520444Y332439D01*
X521110Y331328D01*
X521110Y330217D01*
X520444Y329106D01*
X519110Y328550D01*
X517777Y328550D01*
X516444Y329106D01*
X515777Y330217D01*
X515777Y331328D01*
X516444Y332439D01*
X517777Y332994D01*
G54D11*
X528887Y335772D02*
X528221Y336883D01*
X526887Y337439D01*
X525554Y337439D01*
X524221Y336883D01*
X523554Y335772D01*
X523554Y332994D01*
X523554Y332439D01*
X525554Y333550D01*
X526887Y333550D01*
X528221Y332994D01*
X528887Y331883D01*
X528887Y330217D01*
X528221Y329106D01*
X526887Y328550D01*
X525554Y328550D01*
X524221Y329106D01*
X523554Y330217D01*
X523554Y332994D01*
G54D11*
X447167Y129794D02*
X449167Y128683D01*
X449833Y127572D01*
X449833Y125350D01*
G54D11*
X444500Y125350D02*
X444500Y134239D01*
X447833Y134239D01*
X449167Y133683D01*
X449833Y132572D01*
X449833Y131461D01*
X449167Y130350D01*
X447833Y129794D01*
X444500Y129794D01*
G54D11*
X455610Y129794D02*
X454277Y129794D01*
X452944Y130350D01*
X452277Y131461D01*
X452277Y132572D01*
X452944Y133683D01*
X454277Y134239D01*
X455610Y134239D01*
X456944Y133683D01*
X457610Y132572D01*
X457610Y131461D01*
X456944Y130350D01*
X455610Y129794D01*
X456944Y129239D01*
X457610Y128128D01*
X457610Y127017D01*
X456944Y125906D01*
X455610Y125350D01*
X454277Y125350D01*
X452944Y125906D01*
X452277Y127017D01*
X452277Y128128D01*
X452944Y129239D01*
X454277Y129794D01*
G54D11*
X465387Y134239D02*
X460054Y134239D01*
X460054Y130350D01*
X460721Y130350D01*
X462054Y130906D01*
X463387Y130906D01*
X464721Y130350D01*
X465387Y129239D01*
X465387Y127017D01*
X464721Y125906D01*
X463387Y125350D01*
X462054Y125350D01*
X460721Y125906D01*
X460054Y127017D01*
G54D11*
X510667Y129794D02*
X512667Y128683D01*
X513333Y127572D01*
X513333Y125350D01*
G54D11*
X508000Y125350D02*
X508000Y134239D01*
X511333Y134239D01*
X512667Y133683D01*
X513333Y132572D01*
X513333Y131461D01*
X512667Y130350D01*
X511333Y129794D01*
X508000Y129794D01*
G54D11*
X519110Y129794D02*
X517777Y129794D01*
X516444Y130350D01*
X515777Y131461D01*
X515777Y132572D01*
X516444Y133683D01*
X517777Y134239D01*
X519110Y134239D01*
X520444Y133683D01*
X521110Y132572D01*
X521110Y131461D01*
X520444Y130350D01*
X519110Y129794D01*
X520444Y129239D01*
X521110Y128128D01*
X521110Y127017D01*
X520444Y125906D01*
X519110Y125350D01*
X517777Y125350D01*
X516444Y125906D01*
X515777Y127017D01*
X515777Y128128D01*
X516444Y129239D01*
X517777Y129794D01*
G54D11*
X523554Y134239D02*
X528887Y134239D01*
X528221Y133128D01*
X526887Y131461D01*
X525554Y129239D01*
X524887Y127572D01*
X524887Y125350D01*
G54D11*
X548767Y129794D02*
X550767Y128683D01*
X551433Y127572D01*
X551433Y125350D01*
G54D11*
X546100Y125350D02*
X546100Y134239D01*
X549433Y134239D01*
X550767Y133683D01*
X551433Y132572D01*
X551433Y131461D01*
X550767Y130350D01*
X549433Y129794D01*
X546100Y129794D01*
G54D11*
X557210Y129794D02*
X555877Y129794D01*
X554544Y130350D01*
X553877Y131461D01*
X553877Y132572D01*
X554544Y133683D01*
X555877Y134239D01*
X557210Y134239D01*
X558544Y133683D01*
X559210Y132572D01*
X559210Y131461D01*
X558544Y130350D01*
X557210Y129794D01*
X558544Y129239D01*
X559210Y128128D01*
X559210Y127017D01*
X558544Y125906D01*
X557210Y125350D01*
X555877Y125350D01*
X554544Y125906D01*
X553877Y127017D01*
X553877Y128128D01*
X554544Y129239D01*
X555877Y129794D01*
G54D11*
X564987Y129794D02*
X563654Y129794D01*
X562321Y130350D01*
X561654Y131461D01*
X561654Y132572D01*
X562321Y133683D01*
X563654Y134239D01*
X564987Y134239D01*
X566321Y133683D01*
X566987Y132572D01*
X566987Y131461D01*
X566321Y130350D01*
X564987Y129794D01*
X566321Y129239D01*
X566987Y128128D01*
X566987Y127017D01*
X566321Y125906D01*
X564987Y125350D01*
X563654Y125350D01*
X562321Y125906D01*
X561654Y127017D01*
X561654Y128128D01*
X562321Y129239D01*
X563654Y129794D01*
G54D11*
X485267Y279417D02*
X488600Y277750D01*
G54D11*
X487933Y284972D02*
X487933Y279417D01*
X487267Y278306D01*
X485933Y277750D01*
X484600Y277750D01*
X483267Y278306D01*
X482600Y279417D01*
X482600Y284972D01*
X483267Y286083D01*
X484600Y286639D01*
X485933Y286639D01*
X487267Y286083D01*
X487933Y284972D01*
G54D11*
X491044Y279417D02*
X491711Y278306D01*
X493044Y277750D01*
X494377Y277750D01*
X495711Y278306D01*
X496377Y279417D01*
X496377Y282194D01*
X496377Y282750D01*
X494377Y281639D01*
X493044Y281639D01*
X491711Y282194D01*
X491044Y283306D01*
X491044Y284972D01*
X491711Y286083D01*
X493044Y286639D01*
X494377Y286639D01*
X495711Y286083D01*
X496377Y284972D01*
X496377Y282194D01*
G54D11*
X498821Y283306D02*
X502154Y286639D01*
X502154Y277750D01*
G54D11*
X504598Y283306D02*
X507931Y286639D01*
X507931Y277750D01*
G54D11*
X548767Y279417D02*
X552100Y277750D01*
G54D11*
X551433Y284972D02*
X551433Y279417D01*
X550767Y278306D01*
X549433Y277750D01*
X548100Y277750D01*
X546767Y278306D01*
X546100Y279417D01*
X546100Y284972D01*
X546767Y286083D01*
X548100Y286639D01*
X549433Y286639D01*
X550767Y286083D01*
X551433Y284972D01*
G54D11*
X554544Y279417D02*
X555211Y278306D01*
X556544Y277750D01*
X557877Y277750D01*
X559211Y278306D01*
X559877Y279417D01*
X559877Y282194D01*
X559877Y282750D01*
X557877Y281639D01*
X556544Y281639D01*
X555211Y282194D01*
X554544Y283306D01*
X554544Y284972D01*
X555211Y286083D01*
X556544Y286639D01*
X557877Y286639D01*
X559211Y286083D01*
X559877Y284972D01*
X559877Y282194D01*
G54D11*
X562321Y283306D02*
X565654Y286639D01*
X565654Y277750D01*
G54D11*
X573431Y277750D02*
X568098Y277750D01*
X568098Y278306D01*
X568765Y279417D01*
X572765Y282750D01*
X573431Y283861D01*
X573431Y284972D01*
X572765Y286083D01*
X571431Y286639D01*
X570098Y286639D01*
X568765Y286083D01*
X568098Y284972D01*
G54D11*
X640333Y266717D02*
X639667Y265606D01*
X638333Y265050D01*
X637000Y265050D01*
X635667Y265606D01*
X635000Y266717D01*
X635000Y272272D01*
X635667Y273383D01*
X637000Y273939D01*
X638333Y273939D01*
X639667Y273383D01*
X640333Y272272D01*
G54D11*
X646110Y269494D02*
X644777Y269494D01*
X643444Y270050D01*
X642777Y271161D01*
X642777Y272272D01*
X643444Y273383D01*
X644777Y273939D01*
X646110Y273939D01*
X647444Y273383D01*
X648110Y272272D01*
X648110Y271161D01*
X647444Y270050D01*
X646110Y269494D01*
X647444Y268939D01*
X648110Y267828D01*
X648110Y266717D01*
X647444Y265606D01*
X646110Y265050D01*
X644777Y265050D01*
X643444Y265606D01*
X642777Y266717D01*
X642777Y267828D01*
X643444Y268939D01*
X644777Y269494D01*
G54D11*
X655887Y272272D02*
X655221Y273383D01*
X653887Y273939D01*
X652554Y273939D01*
X651221Y273383D01*
X650554Y272272D01*
X650554Y269494D01*
X650554Y268939D01*
X652554Y270050D01*
X653887Y270050D01*
X655221Y269494D01*
X655887Y268383D01*
X655887Y266717D01*
X655221Y265606D01*
X653887Y265050D01*
X652554Y265050D01*
X651221Y265606D01*
X650554Y266717D01*
X650554Y269494D01*
G54D11*
X612267Y155194D02*
X614267Y154083D01*
X614933Y152972D01*
X614933Y150750D01*
G54D11*
X609600Y150750D02*
X609600Y159639D01*
X612933Y159639D01*
X614267Y159083D01*
X614933Y157972D01*
X614933Y156861D01*
X614267Y155750D01*
X612933Y155194D01*
X609600Y155194D01*
G54D11*
X620710Y155194D02*
X619377Y155194D01*
X618044Y155750D01*
X617377Y156861D01*
X617377Y157972D01*
X618044Y159083D01*
X619377Y159639D01*
X620710Y159639D01*
X622044Y159083D01*
X622710Y157972D01*
X622710Y156861D01*
X622044Y155750D01*
X620710Y155194D01*
X622044Y154639D01*
X622710Y153528D01*
X622710Y152417D01*
X622044Y151306D01*
X620710Y150750D01*
X619377Y150750D01*
X618044Y151306D01*
X617377Y152417D01*
X617377Y153528D01*
X618044Y154639D01*
X619377Y155194D01*
G54D11*
X625154Y152417D02*
X625821Y151306D01*
X627154Y150750D01*
X628487Y150750D01*
X629821Y151306D01*
X630487Y152417D01*
X630487Y155194D01*
X630487Y155750D01*
X628487Y154639D01*
X627154Y154639D01*
X625821Y155194D01*
X625154Y156306D01*
X625154Y157972D01*
X625821Y159083D01*
X627154Y159639D01*
X628487Y159639D01*
X629821Y159083D01*
X630487Y157972D01*
X630487Y155194D01*
G54D11*
X726567Y239650D02*
X726567Y248539D01*
G54D11*
X723900Y248539D02*
X729233Y248539D01*
G54D11*
X731677Y241317D02*
X732344Y240206D01*
X733677Y239650D01*
X735010Y239650D01*
X736344Y240206D01*
X737010Y241317D01*
X737010Y244094D01*
X737010Y244650D01*
X735010Y243539D01*
X733677Y243539D01*
X732344Y244094D01*
X731677Y245206D01*
X731677Y246872D01*
X732344Y247983D01*
X733677Y248539D01*
X735010Y248539D01*
X736344Y247983D01*
X737010Y246872D01*
X737010Y244094D01*
G54D11*
X843533Y292117D02*
X842867Y291006D01*
X841533Y290450D01*
X840200Y290450D01*
X838867Y291006D01*
X838200Y292117D01*
X838200Y297672D01*
X838867Y298783D01*
X840200Y299339D01*
X841533Y299339D01*
X842867Y298783D01*
X843533Y297672D01*
G54D11*
X845977Y292117D02*
X846644Y291006D01*
X847977Y290450D01*
X849310Y290450D01*
X850644Y291006D01*
X851310Y292117D01*
X851310Y294894D01*
X851310Y295450D01*
X849310Y294339D01*
X847977Y294339D01*
X846644Y294894D01*
X845977Y296006D01*
X845977Y297672D01*
X846644Y298783D01*
X847977Y299339D01*
X849310Y299339D01*
X850644Y298783D01*
X851310Y297672D01*
X851310Y294894D01*
G54D11*
X859087Y297672D02*
X859087Y292117D01*
X858421Y291006D01*
X857087Y290450D01*
X855754Y290450D01*
X854421Y291006D01*
X853754Y292117D01*
X853754Y297672D01*
X854421Y298783D01*
X855754Y299339D01*
X857087Y299339D01*
X858421Y298783D01*
X859087Y297672D01*
G54D11*
X843533Y190517D02*
X842867Y189406D01*
X841533Y188850D01*
X840200Y188850D01*
X838867Y189406D01*
X838200Y190517D01*
X838200Y196072D01*
X838867Y197183D01*
X840200Y197739D01*
X841533Y197739D01*
X842867Y197183D01*
X843533Y196072D01*
G54D11*
X845977Y190517D02*
X846644Y189406D01*
X847977Y188850D01*
X849310Y188850D01*
X850644Y189406D01*
X851310Y190517D01*
X851310Y193294D01*
X851310Y193850D01*
X849310Y192739D01*
X847977Y192739D01*
X846644Y193294D01*
X845977Y194406D01*
X845977Y196072D01*
X846644Y197183D01*
X847977Y197739D01*
X849310Y197739D01*
X850644Y197183D01*
X851310Y196072D01*
X851310Y193294D01*
G54D11*
X853754Y194406D02*
X857087Y197739D01*
X857087Y188850D01*
G54D11*
X891667Y294894D02*
X893667Y293783D01*
X894333Y292672D01*
X894333Y290450D01*
G54D11*
X889000Y290450D02*
X889000Y299339D01*
X892333Y299339D01*
X893667Y298783D01*
X894333Y297672D01*
X894333Y296561D01*
X893667Y295450D01*
X892333Y294894D01*
X889000Y294894D01*
G54D11*
X896777Y292117D02*
X897444Y291006D01*
X898777Y290450D01*
X900110Y290450D01*
X901444Y291006D01*
X902110Y292117D01*
X902110Y294894D01*
X902110Y295450D01*
X900110Y294339D01*
X898777Y294339D01*
X897444Y294894D01*
X896777Y296006D01*
X896777Y297672D01*
X897444Y298783D01*
X898777Y299339D01*
X900110Y299339D01*
X901444Y298783D01*
X902110Y297672D01*
X902110Y294894D01*
G54D11*
X909887Y297672D02*
X909887Y292117D01*
X909221Y291006D01*
X907887Y290450D01*
X906554Y290450D01*
X905221Y291006D01*
X904554Y292117D01*
X904554Y297672D01*
X905221Y298783D01*
X906554Y299339D01*
X907887Y299339D01*
X909221Y298783D01*
X909887Y297672D01*
G54D11*
X878967Y180594D02*
X880967Y179483D01*
X881633Y178372D01*
X881633Y176150D01*
G54D11*
X876300Y176150D02*
X876300Y185039D01*
X879633Y185039D01*
X880967Y184483D01*
X881633Y183372D01*
X881633Y182261D01*
X880967Y181150D01*
X879633Y180594D01*
X876300Y180594D01*
G54D11*
X884077Y177817D02*
X884744Y176706D01*
X886077Y176150D01*
X887410Y176150D01*
X888744Y176706D01*
X889410Y177817D01*
X889410Y180594D01*
X889410Y181150D01*
X887410Y180039D01*
X886077Y180039D01*
X884744Y180594D01*
X884077Y181706D01*
X884077Y183372D01*
X884744Y184483D01*
X886077Y185039D01*
X887410Y185039D01*
X888744Y184483D01*
X889410Y183372D01*
X889410Y180594D01*
G54D11*
X891854Y183372D02*
X892521Y184483D01*
X893854Y185039D01*
X895187Y185039D01*
X896521Y184483D01*
X897187Y183372D01*
X897187Y182261D01*
X896521Y181150D01*
X895187Y180594D01*
X896521Y180039D01*
X897187Y178928D01*
X897187Y177817D01*
X896521Y176706D01*
X895187Y176150D01*
X893854Y176150D01*
X892521Y176706D01*
X891854Y177817D01*
G54D11*
X929767Y294894D02*
X931767Y293783D01*
X932433Y292672D01*
X932433Y290450D01*
G54D11*
X927100Y290450D02*
X927100Y299339D01*
X930433Y299339D01*
X931767Y298783D01*
X932433Y297672D01*
X932433Y296561D01*
X931767Y295450D01*
X930433Y294894D01*
X927100Y294894D01*
G54D11*
X934877Y292117D02*
X935544Y291006D01*
X936877Y290450D01*
X938210Y290450D01*
X939544Y291006D01*
X940210Y292117D01*
X940210Y294894D01*
X940210Y295450D01*
X938210Y294339D01*
X936877Y294339D01*
X935544Y294894D01*
X934877Y296006D01*
X934877Y297672D01*
X935544Y298783D01*
X936877Y299339D01*
X938210Y299339D01*
X939544Y298783D01*
X940210Y297672D01*
X940210Y294894D01*
G54D11*
X942654Y296006D02*
X945987Y299339D01*
X945987Y290450D01*
G54D11*
X948431Y296006D02*
X951764Y299339D01*
X951764Y290450D01*
G54D11*
X929767Y180594D02*
X931767Y179483D01*
X932433Y178372D01*
X932433Y176150D01*
G54D11*
X927100Y176150D02*
X927100Y185039D01*
X930433Y185039D01*
X931767Y184483D01*
X932433Y183372D01*
X932433Y182261D01*
X931767Y181150D01*
X930433Y180594D01*
X927100Y180594D01*
G54D11*
X934877Y177817D02*
X935544Y176706D01*
X936877Y176150D01*
X938210Y176150D01*
X939544Y176706D01*
X940210Y177817D01*
X940210Y180594D01*
X940210Y181150D01*
X938210Y180039D01*
X936877Y180039D01*
X935544Y180594D01*
X934877Y181706D01*
X934877Y183372D01*
X935544Y184483D01*
X936877Y185039D01*
X938210Y185039D01*
X939544Y184483D01*
X940210Y183372D01*
X940210Y180594D01*
G54D11*
X946654Y176150D02*
X946654Y185039D01*
X942654Y179483D01*
X942654Y178372D01*
X947987Y178372D01*
G54D11*
X950431Y181706D02*
X953764Y185039D01*
X953764Y176150D01*
G54D11*
X980567Y294894D02*
X982567Y293783D01*
X983233Y292672D01*
X983233Y290450D01*
G54D11*
X977900Y290450D02*
X977900Y299339D01*
X981233Y299339D01*
X982567Y298783D01*
X983233Y297672D01*
X983233Y296561D01*
X982567Y295450D01*
X981233Y294894D01*
X977900Y294894D01*
G54D11*
X985677Y292117D02*
X986344Y291006D01*
X987677Y290450D01*
X989010Y290450D01*
X990344Y291006D01*
X991010Y292117D01*
X991010Y294894D01*
X991010Y295450D01*
X989010Y294339D01*
X987677Y294339D01*
X986344Y294894D01*
X985677Y296006D01*
X985677Y297672D01*
X986344Y298783D01*
X987677Y299339D01*
X989010Y299339D01*
X990344Y298783D01*
X991010Y297672D01*
X991010Y294894D01*
G54D11*
X998787Y297672D02*
X998121Y298783D01*
X996787Y299339D01*
X995454Y299339D01*
X994121Y298783D01*
X993454Y297672D01*
X993454Y294894D01*
X993454Y294339D01*
X995454Y295450D01*
X996787Y295450D01*
X998121Y294894D01*
X998787Y293783D01*
X998787Y292117D01*
X998121Y291006D01*
X996787Y290450D01*
X995454Y290450D01*
X994121Y291006D01*
X993454Y292117D01*
X993454Y294894D01*
G54D11*
X980567Y180594D02*
X982567Y179483D01*
X983233Y178372D01*
X983233Y176150D01*
G54D11*
X977900Y176150D02*
X977900Y185039D01*
X981233Y185039D01*
X982567Y184483D01*
X983233Y183372D01*
X983233Y182261D01*
X982567Y181150D01*
X981233Y180594D01*
X977900Y180594D01*
G54D11*
X985677Y177817D02*
X986344Y176706D01*
X987677Y176150D01*
X989010Y176150D01*
X990344Y176706D01*
X991010Y177817D01*
X991010Y180594D01*
X991010Y181150D01*
X989010Y180039D01*
X987677Y180039D01*
X986344Y180594D01*
X985677Y181706D01*
X985677Y183372D01*
X986344Y184483D01*
X987677Y185039D01*
X989010Y185039D01*
X990344Y184483D01*
X991010Y183372D01*
X991010Y180594D01*
G54D11*
X997454Y176150D02*
X997454Y185039D01*
X993454Y179483D01*
X993454Y178372D01*
X998787Y178372D01*
G54D11*
X1006564Y176150D02*
X1001231Y176150D01*
X1001231Y176706D01*
X1001898Y177817D01*
X1005898Y181150D01*
X1006564Y182261D01*
X1006564Y183372D01*
X1005898Y184483D01*
X1004564Y185039D01*
X1003231Y185039D01*
X1001898Y184483D01*
X1001231Y183372D01*
G54D11*
X866267Y53594D02*
X868267Y52483D01*
X868933Y51372D01*
X868933Y49150D01*
G54D11*
X863600Y49150D02*
X863600Y58039D01*
X866933Y58039D01*
X868267Y57483D01*
X868933Y56372D01*
X868933Y55261D01*
X868267Y54150D01*
X866933Y53594D01*
X863600Y53594D01*
G54D11*
X871377Y50817D02*
X872044Y49706D01*
X873377Y49150D01*
X874710Y49150D01*
X876044Y49706D01*
X876710Y50817D01*
X876710Y53594D01*
X876710Y54150D01*
X874710Y53039D01*
X873377Y53039D01*
X872044Y53594D01*
X871377Y54706D01*
X871377Y56372D01*
X872044Y57483D01*
X873377Y58039D01*
X874710Y58039D01*
X876044Y57483D01*
X876710Y56372D01*
X876710Y53594D01*
G54D11*
X884487Y58039D02*
X879154Y58039D01*
X879154Y54150D01*
X879821Y54150D01*
X881154Y54706D01*
X882487Y54706D01*
X883821Y54150D01*
X884487Y53039D01*
X884487Y50817D01*
X883821Y49706D01*
X882487Y49150D01*
X881154Y49150D01*
X879821Y49706D01*
X879154Y50817D01*
G54D11*
X878967Y409194D02*
X880967Y408083D01*
X881633Y406972D01*
X881633Y404750D01*
G54D11*
X876300Y404750D02*
X876300Y413639D01*
X879633Y413639D01*
X880967Y413083D01*
X881633Y411972D01*
X881633Y410861D01*
X880967Y409750D01*
X879633Y409194D01*
X876300Y409194D01*
G54D11*
X884077Y406417D02*
X884744Y405306D01*
X886077Y404750D01*
X887410Y404750D01*
X888744Y405306D01*
X889410Y406417D01*
X889410Y409194D01*
X889410Y409750D01*
X887410Y408639D01*
X886077Y408639D01*
X884744Y409194D01*
X884077Y410306D01*
X884077Y411972D01*
X884744Y413083D01*
X886077Y413639D01*
X887410Y413639D01*
X888744Y413083D01*
X889410Y411972D01*
X889410Y409194D01*
G54D11*
X897187Y404750D02*
X891854Y404750D01*
X891854Y405306D01*
X892521Y406417D01*
X896521Y409750D01*
X897187Y410861D01*
X897187Y411972D01*
X896521Y413083D01*
X895187Y413639D01*
X893854Y413639D01*
X892521Y413083D01*
X891854Y411972D01*
G54D11*
X1031367Y294894D02*
X1033367Y293783D01*
X1034033Y292672D01*
X1034033Y290450D01*
G54D11*
X1028700Y290450D02*
X1028700Y299339D01*
X1032033Y299339D01*
X1033367Y298783D01*
X1034033Y297672D01*
X1034033Y296561D01*
X1033367Y295450D01*
X1032033Y294894D01*
X1028700Y294894D01*
G54D11*
X1036477Y292117D02*
X1037144Y291006D01*
X1038477Y290450D01*
X1039810Y290450D01*
X1041144Y291006D01*
X1041810Y292117D01*
X1041810Y294894D01*
X1041810Y295450D01*
X1039810Y294339D01*
X1038477Y294339D01*
X1037144Y294894D01*
X1036477Y296006D01*
X1036477Y297672D01*
X1037144Y298783D01*
X1038477Y299339D01*
X1039810Y299339D01*
X1041144Y298783D01*
X1041810Y297672D01*
X1041810Y294894D01*
G54D11*
X1049587Y297672D02*
X1048921Y298783D01*
X1047587Y299339D01*
X1046254Y299339D01*
X1044921Y298783D01*
X1044254Y297672D01*
X1044254Y294894D01*
X1044254Y294339D01*
X1046254Y295450D01*
X1047587Y295450D01*
X1048921Y294894D01*
X1049587Y293783D01*
X1049587Y292117D01*
X1048921Y291006D01*
X1047587Y290450D01*
X1046254Y290450D01*
X1044921Y291006D01*
X1044254Y292117D01*
X1044254Y294894D01*
G54D11*
X1052031Y296006D02*
X1055364Y299339D01*
X1055364Y290450D01*
G54D11*
X1034033Y190517D02*
X1033367Y189406D01*
X1032033Y188850D01*
X1030700Y188850D01*
X1029367Y189406D01*
X1028700Y190517D01*
X1028700Y196072D01*
X1029367Y197183D01*
X1030700Y197739D01*
X1032033Y197739D01*
X1033367Y197183D01*
X1034033Y196072D01*
G54D11*
X1036477Y190517D02*
X1037144Y189406D01*
X1038477Y188850D01*
X1039810Y188850D01*
X1041144Y189406D01*
X1041810Y190517D01*
X1041810Y193294D01*
X1041810Y193850D01*
X1039810Y192739D01*
X1038477Y192739D01*
X1037144Y193294D01*
X1036477Y194406D01*
X1036477Y196072D01*
X1037144Y197183D01*
X1038477Y197739D01*
X1039810Y197739D01*
X1041144Y197183D01*
X1041810Y196072D01*
X1041810Y193294D01*
G54D11*
X1049587Y188850D02*
X1044254Y188850D01*
X1044254Y189406D01*
X1044921Y190517D01*
X1048921Y193850D01*
X1049587Y194961D01*
X1049587Y196072D01*
X1048921Y197183D01*
X1047587Y197739D01*
X1046254Y197739D01*
X1044921Y197183D01*
X1044254Y196072D01*
G54D11*
X1148842Y237269D02*
X1148842Y246158D01*
G54D11*
X1146175Y246158D02*
X1151508Y246158D01*
G54D11*
X1153952Y242824D02*
X1157285Y246158D01*
X1157285Y237269D01*
G54D11*
X1165062Y244491D02*
X1165062Y238935D01*
X1164396Y237824D01*
X1163062Y237269D01*
X1161729Y237269D01*
X1160396Y237824D01*
X1159729Y238935D01*
X1159729Y244491D01*
X1160396Y245602D01*
X1161729Y246158D01*
X1163062Y246158D01*
X1164396Y245602D01*
X1165062Y244491D01*
G54D11*
X1218692Y342838D02*
X1218692Y351726D01*
G54D11*
X1216025Y351726D02*
X1221358Y351726D01*
G54D11*
X1223802Y342838D02*
X1223802Y351726D01*
X1227135Y351726D01*
X1228469Y351171D01*
X1229135Y350060D01*
X1229135Y348949D01*
X1228469Y347838D01*
X1227135Y347282D01*
X1223802Y347282D01*
G54D11*
X1236912Y350060D02*
X1236246Y351171D01*
X1234912Y351726D01*
X1233579Y351726D01*
X1232246Y351171D01*
X1231579Y350060D01*
X1231579Y347282D01*
X1231579Y346726D01*
X1233579Y347838D01*
X1234912Y347838D01*
X1236246Y347282D01*
X1236912Y346171D01*
X1236912Y344504D01*
X1236246Y343393D01*
X1234912Y342838D01*
X1233579Y342838D01*
X1232246Y343393D01*
X1231579Y344504D01*
X1231579Y347282D01*
G54D11*
X1217898Y107094D02*
X1217898Y115983D01*
G54D11*
X1215231Y115983D02*
X1220565Y115983D01*
G54D11*
X1223008Y107094D02*
X1223008Y115983D01*
X1226342Y115983D01*
X1227675Y115427D01*
X1228342Y114316D01*
X1228342Y113205D01*
X1227675Y112094D01*
X1226342Y111538D01*
X1223008Y111538D01*
G54D11*
X1236119Y115983D02*
X1230785Y115983D01*
X1230785Y112094D01*
X1231452Y112094D01*
X1232785Y112649D01*
X1234119Y112649D01*
X1235452Y112094D01*
X1236119Y110983D01*
X1236119Y108760D01*
X1235452Y107649D01*
X1234119Y107094D01*
X1232785Y107094D01*
X1231452Y107649D01*
X1230785Y108760D01*
G54D11*
X782923Y329344D02*
X782923Y338233D01*
G54D11*
X780256Y338233D02*
X785590Y338233D01*
G54D11*
X788033Y329344D02*
X788033Y338233D01*
X791367Y338233D01*
X792700Y337677D01*
X793367Y336566D01*
X793367Y335455D01*
X792700Y334344D01*
X791367Y333788D01*
X788033Y333788D01*
G54D11*
X799810Y329344D02*
X799810Y338233D01*
X795810Y332677D01*
X795810Y331566D01*
X801144Y331566D01*
G54D11*
X382873Y289656D02*
X382873Y298545D01*
G54D11*
X380206Y298545D02*
X385540Y298545D01*
G54D11*
X387983Y289656D02*
X387983Y298545D01*
X391317Y298545D01*
X392650Y297990D01*
X393317Y296878D01*
X393317Y295767D01*
X392650Y294656D01*
X391317Y294101D01*
X387983Y294101D01*
G54D11*
X395760Y296878D02*
X396427Y297990D01*
X397760Y298545D01*
X399094Y298545D01*
X400427Y297990D01*
X401094Y296878D01*
X401094Y295767D01*
X400427Y294656D01*
X399094Y294101D01*
X400427Y293545D01*
X401094Y292434D01*
X401094Y291323D01*
X400427Y290212D01*
X399094Y289656D01*
X397760Y289656D01*
X396427Y290212D01*
X395760Y291323D01*
G54D11*
X119348Y230125D02*
X119348Y239014D01*
G54D11*
X116681Y239014D02*
X122015Y239014D01*
G54D11*
X124458Y230125D02*
X124458Y239014D01*
X127792Y239014D01*
X129125Y238458D01*
X129792Y237347D01*
X129792Y236236D01*
X129125Y235125D01*
X127792Y234570D01*
X124458Y234570D01*
G54D11*
X137569Y230125D02*
X132235Y230125D01*
X132235Y230680D01*
X132902Y231792D01*
X136902Y235125D01*
X137569Y236236D01*
X137569Y237347D01*
X136902Y238458D01*
X135569Y239014D01*
X134235Y239014D01*
X132902Y238458D01*
X132235Y237347D01*
G54D11*
X994600Y375206D02*
X993533Y374650D01*
X992200Y374650D01*
X990867Y375206D01*
X990600Y376317D01*
X990600Y378206D01*
X991267Y379317D01*
X992600Y379650D01*
X993933Y379317D01*
X994600Y378539D01*
X994600Y377428D01*
X990600Y377428D01*
G54D11*
X994600Y83106D02*
X993533Y82550D01*
X992200Y82550D01*
X990867Y83106D01*
X990600Y84217D01*
X990600Y86106D01*
X991267Y87217D01*
X992600Y87550D01*
X993933Y87217D01*
X994600Y86439D01*
X994600Y85328D01*
X990600Y85328D01*
G54D11*
X562800Y197406D02*
X561733Y196850D01*
X560400Y196850D01*
X559067Y197406D01*
X558800Y198517D01*
X558800Y200406D01*
X559467Y201517D01*
X560800Y201850D01*
X562133Y201517D01*
X562800Y200739D01*
X562800Y199628D01*
X558800Y199628D01*
G54D16*
X457200Y408144D02*
X458533Y410367D01*
X461200Y411478D01*
X463867Y411478D01*
X466533Y410367D01*
X467867Y408144D01*
X467867Y405922D01*
X466533Y403700D01*
X463867Y402589D01*
X466533Y401478D01*
X467867Y399256D01*
X467867Y397033D01*
X466533Y394811D01*
X463867Y393700D01*
X461200Y393700D01*
X458533Y394811D01*
X457200Y397033D01*
G54D16*
X477912Y397033D02*
X479245Y394811D01*
X481912Y393700D01*
X484579Y393700D01*
X487245Y394811D01*
X488579Y397033D01*
X488579Y399256D01*
X487245Y401478D01*
X484579Y402589D01*
X481912Y402589D01*
X479245Y403700D01*
X477912Y405922D01*
X477912Y408144D01*
X479245Y410367D01*
X481912Y411478D01*
X484579Y411478D01*
X487245Y410367D01*
X488579Y408144D01*
G54D16*
X498801Y393700D02*
X498801Y411478D01*
G54D16*
X493468Y411478D02*
X504135Y411478D01*
G54D16*
X509024Y393700D02*
X515691Y411478D01*
X522357Y393700D01*
G54D16*
X511691Y400367D02*
X519691Y400367D01*
G54D16*
X532579Y402589D02*
X537913Y402589D01*
X537913Y397033D01*
X536579Y394811D01*
X533913Y393700D01*
X531246Y393700D01*
X528579Y394811D01*
X527246Y397033D01*
X527246Y408144D01*
X528579Y410367D01*
X531246Y411478D01*
X533913Y411478D01*
X536579Y410367D01*
X537913Y408144D01*
G54D16*
X552135Y393700D02*
X542802Y393700D01*
X542802Y411478D01*
X552135Y411478D01*
G54D16*
X542802Y402589D02*
X552135Y402589D01*
G54D16*
X562180Y401478D02*
X572847Y401478D01*
G54D16*
X577736Y401478D02*
X588403Y401478D01*
G54D16*
X603604Y393700D02*
X603604Y411478D01*
X610271Y411478D01*
X612937Y410367D01*
X614271Y408144D01*
X614271Y397033D01*
X612937Y394811D01*
X610271Y393700D01*
X603604Y393700D01*
G54D16*
X624493Y402589D02*
X628493Y400367D01*
X629827Y398144D01*
X629827Y393700D01*
G54D16*
X619160Y393700D02*
X619160Y411478D01*
X625827Y411478D01*
X628493Y410367D01*
X629827Y408144D01*
X629827Y405922D01*
X628493Y403700D01*
X625827Y402589D01*
X619160Y402589D01*
G54D16*
X634716Y393700D02*
X634716Y411478D01*
G54D16*
X639605Y411478D02*
X646272Y393700D01*
X652938Y411478D01*
G54D16*
X667160Y393700D02*
X657827Y393700D01*
X657827Y411478D01*
X667160Y411478D01*
G54D16*
X657827Y402589D02*
X667160Y402589D01*
G54D16*
X677382Y402589D02*
X681382Y400367D01*
X682716Y398144D01*
X682716Y393700D01*
G54D16*
X672049Y393700D02*
X672049Y411478D01*
X678716Y411478D01*
X681382Y410367D01*
X682716Y408144D01*
X682716Y405922D01*
X681382Y403700D01*
X678716Y402589D01*
X672049Y402589D01*
M02*
