; Drill file
; Format: 2.4 (00.0000)
M48
INCH
T01C0.0197
T02C0.0354
T03C0.0394
T04C0.1299
%
G05
G90
T01
X005000Y008440
X015500Y010940
X032000Y012940
X048000Y012940
X048000Y005440
T02
X005610Y005280
X005600Y007280
X007980Y007210
X007980Y005210
X009830Y005310
X011600Y004780
X013230Y005210
X015320Y006700
X017280Y007900
X018730Y006710
X020580Y006810
X020000Y008550
X019370Y009240
X020000Y009940
X021870Y009240
X022500Y009940
X022500Y008550
X022580Y006810
X024240Y008200
X024180Y010000
X026000Y009250
X026000Y011750
X024180Y012000
X022230Y012210
X019230Y012210
X017280Y009900
X015320Y009580
X013070Y008200
X011860Y012280
X010360Y012270
X009000Y011750
X007980Y010210
X009000Y014250
X010360Y014280
X011850Y014280
X011730Y016710
X010330Y016310
X009000Y016750
X014730Y016710
X003000Y016750
X003000Y014250
X003000Y011750
X007980Y002210
X009830Y002310
X011610Y002780
X013230Y002210
X018730Y003710
X020580Y003810
X022580Y003810
X024240Y005200
X026000Y006750
X032000Y006750
X033530Y006400
X035230Y005710
X034730Y004210
X036370Y002240
X037000Y002940
X037000Y001550
X038870Y002240
X039500Y002940
X039500Y001550
X039080Y005810
X040780Y006400
X042500Y006750
X040780Y008400
X039080Y008810
X039080Y010310
X040730Y010210
X042500Y009250
X042500Y011750
X040730Y013210
X039080Y013310
X037080Y013310
X035230Y013210
X034730Y014710
X036370Y016240
X037000Y016940
X037000Y015550
X038870Y016240
X039500Y016940
X039500Y015550
X034730Y017710
X033530Y012400
X032000Y011750
X033530Y010400
X035230Y010210
X035230Y008710
X033530Y008400
X032000Y009250
X037080Y008810
X037080Y010310
X037080Y005810
X034730Y001210
X048500Y006750
X048500Y009250
X048500Y011750
X045320Y018040
X044320Y018040
T03
X001180Y005630
X002180Y006630
X001180Y007630
X003180Y007630
X003180Y005630
X000880Y011630
X022380Y018630
X022880Y001130
T04
X001250Y001190
X001250Y018690
X047750Y018190
X047750Y001190
M30
