%FSLAX34Y34*%
%MOMM*%
%LNSOLDERMASK_BOTTOM*%
G71*
G01*
%ADD10C,2.400*%
%ADD11C,2.600*%
%ADD12C,2.600*%
%ADD13C,1.600*%
%ADD14C,2.800*%
%ADD15C,4.900*%
%LPD*%
X939800Y430150D02*
G54D10*
D03*
X923900Y412575D02*
G54D10*
D03*
X939835Y394959D02*
G54D10*
D03*
X1003300Y430150D02*
G54D10*
D03*
X987400Y412575D02*
G54D10*
D03*
X1003335Y394959D02*
G54D10*
D03*
X939800Y74550D02*
G54D10*
D03*
X923900Y56975D02*
G54D10*
D03*
X939835Y39359D02*
G54D10*
D03*
X1003300Y74550D02*
G54D10*
D03*
X987400Y56975D02*
G54D10*
D03*
X1003335Y39359D02*
G54D10*
D03*
X941729Y261825D02*
G54D11*
D03*
X941779Y338075D02*
G54D11*
D03*
X941729Y147525D02*
G54D11*
D03*
X941779Y223775D02*
G54D11*
D03*
X992529Y261825D02*
G54D11*
D03*
X992579Y338075D02*
G54D11*
D03*
X992529Y147525D02*
G54D11*
D03*
X992579Y223775D02*
G54D11*
D03*
X894738Y259265D02*
G54D11*
D03*
X894788Y335515D02*
G54D11*
D03*
X894738Y144965D02*
G54D11*
D03*
X894788Y221215D02*
G54D11*
D03*
X882038Y30665D02*
G54D11*
D03*
X882088Y106915D02*
G54D11*
D03*
X882038Y373565D02*
G54D11*
D03*
X882088Y449815D02*
G54D11*
D03*
X851777Y315084D02*
G54D11*
D03*
X851777Y264284D02*
G54D11*
D03*
X851777Y213484D02*
G54D11*
D03*
X851777Y162684D02*
G54D11*
D03*
X1034438Y259265D02*
G54D11*
D03*
X1034488Y335515D02*
G54D11*
D03*
X1035927Y213484D02*
G54D11*
D03*
X1035927Y162684D02*
G54D11*
D03*
X894738Y259265D02*
G54D12*
D03*
X894788Y221215D02*
G54D12*
D03*
X941779Y223775D02*
G54D12*
D03*
X941729Y261825D02*
G54D12*
D03*
X992579Y223775D02*
G54D12*
D03*
X992529Y261825D02*
G54D12*
D03*
X1035927Y162684D02*
G54D12*
D03*
X660400Y298450D02*
G54D11*
D03*
X812800Y298450D02*
G54D11*
D03*
X660400Y171450D02*
G54D11*
D03*
X660400Y234950D02*
G54D11*
D03*
X812800Y234950D02*
G54D11*
D03*
X812800Y171450D02*
G54D11*
D03*
X1079500Y298450D02*
G54D11*
D03*
X1231900Y298450D02*
G54D11*
D03*
X1079500Y171450D02*
G54D11*
D03*
X1079500Y234950D02*
G54D11*
D03*
X1231900Y234950D02*
G54D11*
D03*
X1231900Y171450D02*
G54D11*
D03*
X660400Y234950D02*
G54D12*
D03*
X812800Y234950D02*
G54D12*
D03*
X1079500Y234950D02*
G54D12*
D03*
X1231900Y234950D02*
G54D12*
D03*
X1125675Y458125D02*
G54D11*
D03*
X1151175Y458125D02*
G54D11*
D03*
X508000Y252350D02*
G54D10*
D03*
X492100Y234775D02*
G54D10*
D03*
X508035Y217159D02*
G54D10*
D03*
X571500Y252350D02*
G54D10*
D03*
X555600Y234775D02*
G54D10*
D03*
X571535Y217159D02*
G54D10*
D03*
X522629Y96725D02*
G54D11*
D03*
X522679Y172975D02*
G54D11*
D03*
X573429Y96725D02*
G54D11*
D03*
X573479Y172975D02*
G54D11*
D03*
X475638Y94165D02*
G54D11*
D03*
X475688Y170415D02*
G54D11*
D03*
X475688Y170415D02*
G54D11*
D03*
X439027Y251584D02*
G54D11*
D03*
X439027Y200784D02*
G54D11*
D03*
X488348Y310139D02*
G54D11*
D03*
X564599Y310089D02*
G54D11*
D03*
X564599Y310089D02*
G54D11*
D03*
X615736Y208265D02*
G54D11*
D03*
X615686Y132015D02*
G54D11*
D03*
X614248Y254047D02*
G54D11*
D03*
X614248Y304847D02*
G54D11*
D03*
X614248Y304847D02*
G54D12*
D03*
X522629Y96725D02*
G54D12*
D03*
X573429Y96725D02*
G54D12*
D03*
X475638Y94165D02*
G54D12*
D03*
X249579Y58625D02*
G54D11*
D03*
X249629Y134875D02*
G54D11*
D03*
X202588Y56065D02*
G54D11*
D03*
X202638Y132315D02*
G54D11*
D03*
X202638Y132315D02*
G54D11*
D03*
X249579Y58625D02*
G54D12*
D03*
X202588Y56065D02*
G54D12*
D03*
X389074Y170207D02*
G54D11*
D03*
X331924Y208307D02*
G54D11*
D03*
X389074Y243232D02*
G54D11*
D03*
X331924Y208307D02*
G54D11*
D03*
X294681Y121509D02*
G54D11*
D03*
X294793Y70528D02*
G54D11*
D03*
X294793Y70528D02*
G54D11*
D03*
X294793Y70528D02*
G54D11*
D03*
X263197Y311639D02*
G54D11*
D03*
X263085Y362620D02*
G54D11*
D03*
X301031Y362809D02*
G54D11*
D03*
X301143Y311828D02*
G54D11*
D03*
X301143Y311828D02*
G54D11*
D03*
X301143Y311828D02*
G54D11*
D03*
X202672Y259329D02*
G54D11*
D03*
X202622Y183079D02*
G54D11*
D03*
X202622Y183079D02*
G54D11*
D03*
X142281Y185009D02*
G54D11*
D03*
X142393Y134028D02*
G54D11*
D03*
X76200Y425450D02*
G54D11*
D03*
X228600Y425450D02*
G54D11*
D03*
X76200Y298450D02*
G54D11*
D03*
X76200Y361950D02*
G54D11*
D03*
X228600Y361950D02*
G54D11*
D03*
X228600Y298450D02*
G54D11*
D03*
X76200Y361950D02*
G54D12*
D03*
X228600Y361950D02*
G54D12*
D03*
X262303Y414266D02*
G54D11*
D03*
X335938Y56065D02*
G54D11*
D03*
X335988Y132315D02*
G54D11*
D03*
X335988Y132315D02*
G54D11*
D03*
X335938Y56065D02*
G54D12*
D03*
X393700Y277750D02*
G54D13*
D03*
X812800Y328550D02*
G54D13*
D03*
X1219200Y328550D02*
G54D13*
D03*
X1219200Y138050D02*
G54D13*
D03*
X29931Y193681D02*
G54D14*
D03*
X80731Y193681D02*
G54D14*
D03*
X55331Y168281D02*
G54D14*
D03*
X80731Y142881D02*
G54D14*
D03*
X29931Y142881D02*
G54D14*
D03*
X127000Y214250D02*
G54D13*
D03*
X297849Y424439D02*
G54D11*
D03*
X374098Y424389D02*
G54D11*
D03*
X374098Y424389D02*
G54D11*
D03*
G36*
X4226Y313337D02*
X40226Y313337D01*
X40226Y277337D01*
X4226Y277337D01*
X4226Y313337D01*
G37*
X31750Y30100D02*
G54D15*
D03*
X31750Y474600D02*
G54D15*
D03*
X1212850Y461900D02*
G54D15*
D03*
X1212850Y30100D02*
G54D15*
D03*
G36*
X563026Y46637D02*
X599026Y46637D01*
X599026Y10637D01*
X563026Y10637D01*
X563026Y46637D01*
G37*
G36*
X550326Y491137D02*
X586326Y491137D01*
X586326Y455137D01*
X550326Y455137D01*
X550326Y491137D01*
G37*
M02*
