%FSLAX34Y34*%
%MOMM*%
%LNSILK_TOP*%
G71*
G01*
%ADD10C,0.400*%
%ADD11C,0.222*%
%ADD12C,0.150*%
%ADD13C,0.167*%
%ADD14C,0.111*%
%ADD15C,0.200*%
%LPD*%
G54D10*
X-119528Y-35231D02*
X77322Y-35231D01*
X77322Y-206681D01*
X-119528Y-206681D01*
X-119528Y-35231D01*
G54D11*
X31626Y-92602D02*
X31626Y-82601D01*
G54D11*
X31626Y-84824D02*
X32960Y-83268D01*
X35626Y-82601D01*
X38293Y-83268D01*
X39626Y-84824D01*
X39626Y-92602D01*
G54D11*
X51182Y-83268D02*
X48515Y-82602D01*
X45849Y-83268D01*
X44515Y-85490D01*
X44515Y-89935D01*
X45849Y-92157D01*
X48515Y-92602D01*
X51182Y-92157D01*
G54D11*
X33821Y-162096D02*
X33821Y-152096D01*
G54D11*
X33821Y-154318D02*
X35154Y-152762D01*
X37821Y-152096D01*
X40487Y-152762D01*
X41821Y-154318D01*
X41821Y-162096D01*
G54D11*
X46710Y-153207D02*
X49376Y-152096D01*
X52576Y-152096D01*
X54710Y-154318D01*
X54710Y-162096D01*
G54D11*
X54710Y-158762D02*
X53376Y-156540D01*
X50710Y-156096D01*
X48043Y-156540D01*
X46710Y-158762D01*
X47243Y-160985D01*
X49376Y-162096D01*
X50710Y-162096D01*
X51243Y-162096D01*
X53376Y-160985D01*
X54710Y-158762D01*
G54D10*
X305922Y-206681D02*
X109072Y-206681D01*
X109072Y-35231D01*
X305922Y-35231D01*
X305922Y-206681D01*
G54D11*
X135254Y-159292D02*
X135254Y-149292D01*
G54D11*
X135254Y-151514D02*
X136587Y-149959D01*
X139254Y-149292D01*
X141920Y-149959D01*
X143254Y-151514D01*
X143254Y-159292D01*
G54D11*
X154810Y-149959D02*
X152143Y-149292D01*
X149476Y-149959D01*
X148143Y-152181D01*
X148143Y-156625D01*
X149476Y-158848D01*
X152143Y-159292D01*
X154810Y-158848D01*
G54D11*
X131684Y-89816D02*
X131684Y-79816D01*
G54D11*
X131684Y-82038D02*
X133018Y-80483D01*
X135684Y-79816D01*
X138351Y-80483D01*
X139684Y-82039D01*
X139684Y-89816D01*
G54D11*
X144573Y-80928D02*
X147240Y-79816D01*
X150440Y-79816D01*
X152573Y-82038D01*
X152573Y-89816D01*
G54D11*
X152573Y-86483D02*
X151240Y-84261D01*
X148573Y-83816D01*
X145907Y-84261D01*
X144573Y-86483D01*
X145106Y-88705D01*
X147240Y-89816D01*
X148573Y-89816D01*
X149107Y-89816D01*
X151240Y-88705D01*
X152573Y-86483D01*
G54D12*
X172496Y67656D02*
X172496Y59657D01*
X121771Y59657D01*
X121771Y67657D01*
G54D12*
G75*
G01X172627Y67618D02*
G03X121627Y67618I-25500J0D01*
G01*
G54D12*
X-120281Y388D02*
X-120281Y-25013D01*
X-48681Y-25013D01*
X-48681Y387D01*
X-120281Y388D01*
G54D13*
X-80325Y-24054D02*
X-80325Y-24054D01*
G54D12*
X69043Y2830D02*
X69043Y-24570D01*
X-7157Y-24570D01*
X-7157Y2830D01*
X69043Y2830D01*
G54D12*
X-857Y-24570D02*
X-857Y2830D01*
G54D12*
X112190Y3297D02*
X112190Y-22104D01*
X183790Y-22104D01*
X183790Y3297D01*
X112190Y3297D01*
G54D13*
X269621Y16956D02*
X269621Y16956D01*
G54D12*
X292238Y6628D02*
X292238Y-20772D01*
X216038Y-20772D01*
X216038Y6628D01*
X292238Y6628D01*
G54D12*
X222338Y-20772D02*
X222338Y6628D01*
G54D12*
X253753Y109525D02*
X228353Y109525D01*
X228353Y37925D01*
X253753Y37925D01*
X253753Y109525D01*
G54D13*
X222961Y56870D02*
X222961Y56870D01*
G54D12*
X212158Y52114D02*
X189982Y52114D01*
X189982Y102814D01*
X212157Y102814D01*
X212158Y52114D01*
G54D12*
X201070Y51914D02*
X201070Y44013D01*
G54D12*
X201070Y102914D02*
X201070Y110814D01*
G54D13*
X172145Y89055D02*
X172145Y89055D01*
G54D12*
X294707Y58464D02*
X272532Y58464D01*
X272532Y109164D01*
X294707Y109163D01*
X294707Y58464D01*
G54D12*
X283620Y58263D02*
X283620Y50364D01*
G54D12*
X283620Y109264D02*
X283620Y117164D01*
G54D13*
X254695Y95405D02*
X254695Y95405D01*
G54D11*
X184150Y-279400D02*
X184150Y-261622D01*
X190816Y-261622D01*
X193483Y-262733D01*
X194816Y-264955D01*
X194816Y-267177D01*
X193483Y-269400D01*
X190816Y-270511D01*
X184150Y-270511D01*
G54D11*
X199706Y-279400D02*
X206372Y-261622D01*
X213039Y-279400D01*
G54D11*
X202372Y-272733D02*
X210372Y-272733D01*
G54D11*
X217928Y-271622D02*
X228594Y-271622D01*
G54D11*
X233484Y-279400D02*
X233484Y-261622D01*
G54D11*
X238373Y-279400D02*
X238373Y-261622D01*
X249039Y-279400D01*
X249039Y-261622D01*
G54D11*
X-57150Y-276225D02*
X-57150Y-258447D01*
X-50484Y-258447D01*
X-47817Y-259558D01*
X-46484Y-261780D01*
X-46484Y-264002D01*
X-47817Y-266225D01*
X-50484Y-267336D01*
X-57150Y-267336D01*
G54D11*
X-41594Y-276225D02*
X-34928Y-258447D01*
X-28261Y-276225D01*
G54D11*
X-38928Y-269558D02*
X-30928Y-269558D01*
G54D11*
X-23372Y-268447D02*
X-12706Y-268447D01*
G54D11*
X2850Y-261780D02*
X2850Y-272891D01*
X1517Y-275114D01*
X-1150Y-276225D01*
X-3816Y-276225D01*
X-6483Y-275114D01*
X-7816Y-272891D01*
X-7816Y-261780D01*
X-6483Y-259558D01*
X-3816Y-258447D01*
X-1150Y-258447D01*
X1517Y-259558D01*
X2850Y-261780D01*
G54D11*
X7740Y-258447D02*
X7740Y-272891D01*
X9073Y-275114D01*
X11740Y-276225D01*
X14406Y-276225D01*
X17073Y-275114D01*
X18406Y-272891D01*
X18406Y-258447D01*
G54D11*
X28629Y-276225D02*
X28629Y-258447D01*
G54D11*
X23296Y-258447D02*
X33962Y-258447D01*
G54D11*
X-57150Y101600D02*
X-50484Y119378D01*
X-43817Y101600D01*
G54D11*
X-54484Y108267D02*
X-46484Y108267D01*
G54D11*
X-38928Y101600D02*
X-38928Y119378D01*
X-28262Y101600D01*
X-28262Y119378D01*
G54D11*
X-18039Y101600D02*
X-18039Y119378D01*
G54D11*
X-23372Y119378D02*
X-12706Y119378D01*
G54D11*
X341883Y-82550D02*
X341883Y-64772D01*
G54D11*
X336550Y-64772D02*
X347216Y-64772D01*
G54D11*
X352106Y-64772D02*
X365439Y-82550D01*
G54D11*
X352106Y-82550D02*
X365439Y-64772D01*
G54D11*
X69850Y101600D02*
X69850Y119378D01*
X76516Y119378D01*
X79183Y118267D01*
X80516Y116045D01*
X80516Y113822D01*
X79183Y111600D01*
X76516Y110489D01*
X69850Y110489D01*
G54D11*
X90739Y101600D02*
X90739Y119378D01*
G54D11*
X85406Y119378D02*
X96072Y119378D01*
G54D11*
X106295Y101600D02*
X106295Y119378D01*
G54D11*
X100962Y119378D02*
X111628Y119378D01*
G54D11*
X-70867Y50800D02*
X-70867Y68578D01*
G54D11*
X-76200Y68578D02*
X-65534Y68578D01*
G54D11*
X-60644Y68578D02*
X-47311Y50800D01*
G54D11*
X-60644Y50800D02*
X-47311Y68578D01*
G54D11*
X-42422Y58578D02*
X-31756Y58578D01*
G54D11*
X-21533Y59689D02*
X-17533Y57467D01*
X-16200Y55245D01*
X-16200Y50800D01*
G54D11*
X-26866Y50800D02*
X-26866Y68578D01*
X-20200Y68578D01*
X-17533Y67467D01*
X-16200Y65245D01*
X-16200Y63022D01*
X-17533Y60800D01*
X-20200Y59689D01*
X-26866Y59689D01*
G54D11*
X-11310Y68578D02*
X2023Y50800D01*
G54D11*
X-11310Y50800D02*
X2023Y68578D01*
G54D11*
X12068Y54134D02*
X13401Y51911D01*
X16068Y50800D01*
X18734Y50800D01*
X21401Y51911D01*
X22734Y54134D01*
X22734Y56356D01*
X21401Y58578D01*
X18734Y59689D01*
X16068Y59689D01*
X13401Y60800D01*
X12068Y63022D01*
X12068Y65245D01*
X13401Y67467D01*
X16068Y68578D01*
X18734Y68578D01*
X21401Y67467D01*
X22734Y65245D01*
G54D11*
X27624Y68578D02*
X27624Y50800D01*
X34290Y61911D01*
X40957Y50800D01*
X40957Y68578D01*
G54D11*
X45846Y50800D02*
X45846Y68578D01*
G54D11*
X56068Y50800D02*
X56068Y68578D01*
G54D11*
X50735Y68578D02*
X61401Y68578D01*
G54D11*
X76957Y54134D02*
X75624Y51911D01*
X72957Y50800D01*
X70291Y50800D01*
X67624Y51911D01*
X66291Y54134D01*
X66291Y65245D01*
X67624Y67467D01*
X70291Y68578D01*
X72957Y68578D01*
X75624Y67467D01*
X76957Y65245D01*
G54D11*
X81847Y50800D02*
X81847Y68578D01*
G54D11*
X92513Y50800D02*
X92513Y68578D01*
G54D11*
X81847Y59689D02*
X92513Y59689D01*
G54D14*
X146050Y95250D02*
X146050Y104139D01*
G54D14*
X146050Y98806D02*
X146717Y99917D01*
X148050Y100250D01*
X149383Y99917D01*
X150050Y98806D01*
X150050Y96583D01*
X149383Y95472D01*
X148050Y95250D01*
X146717Y95472D01*
X146050Y96583D01*
G54D14*
X111950Y64056D02*
X110883Y63500D01*
X109550Y63500D01*
X108217Y64056D01*
X107950Y65167D01*
X107950Y67056D01*
X108617Y68167D01*
X109950Y68500D01*
X111283Y68167D01*
X111950Y67389D01*
X111950Y66278D01*
X107950Y66278D01*
G54D15*
X370466Y155863D02*
X380066Y155863D01*
G54D15*
X375266Y159863D02*
X375266Y151863D01*
G54D15*
X384466Y164863D02*
X390466Y148863D01*
X396466Y164863D01*
G54D12*
X342729Y111013D02*
X342729Y136413D01*
X393529Y136413D01*
X393529Y111013D01*
X342729Y111013D01*
M02*
