%FSLAX34Y34*%
%MOMM*%
%LNSILK_TOP*%
G71*
G01*
%ADD10C,0.400*%
%ADD11C,0.222*%
%ADD12C,0.150*%
%ADD13C,0.167*%
%ADD14C,0.111*%
%ADD15C,0.200*%
%LPD*%
G54D10*
X-119528Y-35231D02*
X77322Y-35231D01*
X77322Y-206681D01*
X-119528Y-206681D01*
X-119528Y-35231D01*
G54D11*
X31626Y-92602D02*
X31626Y-82601D01*
G54D11*
X31626Y-84824D02*
X32960Y-83268D01*
X35626Y-82601D01*
X38293Y-83268D01*
X39626Y-84824D01*
X39626Y-92602D01*
G54D11*
X51182Y-83268D02*
X48515Y-82602D01*
X45849Y-83268D01*
X44515Y-85490D01*
X44515Y-89935D01*
X45849Y-92157D01*
X48515Y-92602D01*
X51182Y-92157D01*
G54D11*
X33821Y-162096D02*
X33821Y-152096D01*
G54D11*
X33821Y-154318D02*
X35154Y-152762D01*
X37821Y-152096D01*
X40487Y-152762D01*
X41821Y-154318D01*
X41821Y-162096D01*
G54D11*
X46710Y-153207D02*
X49376Y-152096D01*
X52576Y-152096D01*
X54710Y-154318D01*
X54710Y-162096D01*
G54D11*
X54710Y-158762D02*
X53376Y-156540D01*
X50710Y-156096D01*
X48043Y-156540D01*
X46710Y-158762D01*
X47243Y-160985D01*
X49376Y-162096D01*
X50710Y-162096D01*
X51243Y-162096D01*
X53376Y-160985D01*
X54710Y-158762D01*
G54D10*
X305922Y-206681D02*
X109072Y-206681D01*
X109072Y-35231D01*
X305922Y-35231D01*
X305922Y-206681D01*
G54D11*
X135254Y-159292D02*
X135254Y-149292D01*
G54D11*
X135254Y-151514D02*
X136587Y-149959D01*
X139254Y-149292D01*
X141920Y-149959D01*
X143254Y-151514D01*
X143254Y-159292D01*
G54D11*
X154810Y-149959D02*
X152143Y-149292D01*
X149476Y-149959D01*
X148143Y-152181D01*
X148143Y-156625D01*
X149476Y-158848D01*
X152143Y-159292D01*
X154810Y-158848D01*
G54D11*
X131684Y-89816D02*
X131684Y-79816D01*
G54D11*
X131684Y-82038D02*
X133018Y-80483D01*
X135684Y-79816D01*
X138351Y-80483D01*
X139684Y-82039D01*
X139684Y-89816D01*
G54D11*
X144573Y-80928D02*
X147240Y-79816D01*
X150440Y-79816D01*
X152573Y-82038D01*
X152573Y-89816D01*
G54D11*
X152573Y-86483D02*
X151240Y-84261D01*
X148573Y-83816D01*
X145907Y-84261D01*
X144573Y-86483D01*
X145106Y-88705D01*
X147240Y-89816D01*
X148573Y-89816D01*
X149107Y-89816D01*
X151240Y-88705D01*
X152573Y-86483D01*
G54D12*
X172496Y67656D02*
X172496Y59657D01*
X121771Y59657D01*
X121771Y67657D01*
G54D12*
G75*
G01X172627Y67618D02*
G03X121627Y67618I-25500J0D01*
G01*
G54D12*
X-120281Y388D02*
X-120281Y-25013D01*
X-48681Y-25013D01*
X-48681Y387D01*
X-120281Y388D01*
G54D13*
X-80325Y-24054D02*
X-80325Y-24054D01*
G54D12*
X69043Y2830D02*
X69043Y-24570D01*
X-7157Y-24570D01*
X-7157Y2830D01*
X69043Y2830D01*
G54D12*
X-857Y-24570D02*
X-857Y2830D01*
G54D12*
X112190Y3297D02*
X112190Y-22104D01*
X183790Y-22104D01*
X183790Y3297D01*
X112190Y3297D01*
G54D13*
X269621Y16956D02*
X269621Y16956D01*
G54D12*
X292238Y6628D02*
X292238Y-20772D01*
X216038Y-20772D01*
X216038Y6628D01*
X292238Y6628D01*
G54D12*
X222338Y-20772D02*
X222338Y6628D01*
G54D12*
X253753Y109525D02*
X228353Y109525D01*
X228353Y37925D01*
X253753Y37925D01*
X253753Y109525D01*
G54D13*
X222961Y56870D02*
X222961Y56870D01*
G54D12*
X212158Y52114D02*
X189982Y52114D01*
X189982Y102814D01*
X212157Y102814D01*
X212158Y52114D01*
G54D12*
X201070Y51914D02*
X201070Y44013D01*
G54D12*
X201070Y102914D02*
X201070Y110814D01*
G54D13*
X172145Y89055D02*
X172145Y89055D01*
G54D12*
X294707Y58464D02*
X272532Y58464D01*
X272532Y109164D01*
X294707Y109163D01*
X294707Y58464D01*
G54D12*
X283620Y58263D02*
X283620Y50364D01*
G54D12*
X283620Y109264D02*
X283620Y117164D01*
G54D13*
X254695Y95405D02*
X254695Y95405D01*
G54D11*
X184150Y-276225D02*
X184150Y-258447D01*
X190816Y-258447D01*
X193483Y-259558D01*
X194816Y-261780D01*
X194816Y-264002D01*
X193483Y-266225D01*
X190816Y-267336D01*
X184150Y-267336D01*
G54D11*
X199706Y-276225D02*
X206372Y-258447D01*
X213039Y-276225D01*
G54D11*
X202372Y-269558D02*
X210372Y-269558D01*
G54D11*
X217928Y-268447D02*
X228594Y-268447D01*
G54D11*
X233484Y-276225D02*
X233484Y-258447D01*
G54D11*
X238373Y-276225D02*
X238373Y-258447D01*
X249039Y-276225D01*
X249039Y-258447D01*
G54D11*
X-57150Y-276225D02*
X-57150Y-258447D01*
X-50484Y-258447D01*
X-47817Y-259558D01*
X-46484Y-261780D01*
X-46484Y-264002D01*
X-47817Y-266225D01*
X-50484Y-267336D01*
X-57150Y-267336D01*
G54D11*
X-41594Y-276225D02*
X-34928Y-258447D01*
X-28261Y-276225D01*
G54D11*
X-38928Y-269558D02*
X-30928Y-269558D01*
G54D11*
X-23372Y-268447D02*
X-12706Y-268447D01*
G54D11*
X2850Y-261780D02*
X2850Y-272891D01*
X1517Y-275114D01*
X-1150Y-276225D01*
X-3816Y-276225D01*
X-6483Y-275114D01*
X-7816Y-272891D01*
X-7816Y-261780D01*
X-6483Y-259558D01*
X-3816Y-258447D01*
X-1150Y-258447D01*
X1517Y-259558D01*
X2850Y-261780D01*
G54D11*
X7740Y-258447D02*
X7740Y-272891D01*
X9073Y-275114D01*
X11740Y-276225D01*
X14406Y-276225D01*
X17073Y-275114D01*
X18406Y-272891D01*
X18406Y-258447D01*
G54D11*
X28629Y-276225D02*
X28629Y-258447D01*
G54D11*
X23296Y-258447D02*
X33962Y-258447D01*
G54D11*
X-107950Y69850D02*
X-101284Y87628D01*
X-94617Y69850D01*
G54D11*
X-105284Y76517D02*
X-97284Y76517D01*
G54D11*
X-89728Y69850D02*
X-89728Y87628D01*
X-79062Y69850D01*
X-79062Y87628D01*
G54D11*
X-68839Y69850D02*
X-68839Y87628D01*
G54D11*
X-74172Y87628D02*
X-63506Y87628D01*
G54D11*
X341883Y-82550D02*
X341883Y-64772D01*
G54D11*
X336550Y-64772D02*
X347216Y-64772D01*
G54D11*
X352106Y-64772D02*
X365439Y-82550D01*
G54D11*
X352106Y-82550D02*
X365439Y-64772D01*
G54D11*
X69850Y101600D02*
X69850Y119378D01*
X76516Y119378D01*
X79183Y118267D01*
X80516Y116045D01*
X80516Y113822D01*
X79183Y111600D01*
X76516Y110489D01*
X69850Y110489D01*
G54D11*
X90739Y101600D02*
X90739Y119378D01*
G54D11*
X85406Y119378D02*
X96072Y119378D01*
G54D11*
X106295Y101600D02*
X106295Y119378D01*
G54D11*
X100962Y119378D02*
X111628Y119378D01*
G54D11*
X-83567Y38100D02*
X-83567Y55878D01*
G54D11*
X-88900Y55878D02*
X-78234Y55878D01*
G54D11*
X-73344Y55878D02*
X-60011Y38100D01*
G54D11*
X-73344Y38100D02*
X-60011Y55878D01*
G54D11*
X-55122Y45878D02*
X-44456Y45878D01*
G54D11*
X-34233Y46989D02*
X-30233Y44767D01*
X-28900Y42545D01*
X-28900Y38100D01*
G54D11*
X-39566Y38100D02*
X-39566Y55878D01*
X-32900Y55878D01*
X-30233Y54767D01*
X-28900Y52545D01*
X-28900Y50322D01*
X-30233Y48100D01*
X-32900Y46989D01*
X-39566Y46989D01*
G54D11*
X-24010Y55878D02*
X-10677Y38100D01*
G54D11*
X-24010Y38100D02*
X-10677Y55878D01*
G54D11*
X-632Y41434D02*
X701Y39211D01*
X3368Y38100D01*
X6034Y38100D01*
X8701Y39211D01*
X10034Y41434D01*
X10034Y43656D01*
X8701Y45878D01*
X6034Y46989D01*
X3368Y46989D01*
X701Y48100D01*
X-632Y50322D01*
X-632Y52545D01*
X701Y54767D01*
X3368Y55878D01*
X6034Y55878D01*
X8701Y54767D01*
X10034Y52545D01*
G54D11*
X14924Y55878D02*
X14924Y38100D01*
X21590Y49211D01*
X28257Y38100D01*
X28257Y55878D01*
G54D11*
X33146Y38100D02*
X33146Y55878D01*
G54D11*
X43368Y38100D02*
X43368Y55878D01*
G54D11*
X38035Y55878D02*
X48701Y55878D01*
G54D11*
X64257Y41434D02*
X62924Y39211D01*
X60257Y38100D01*
X57591Y38100D01*
X54924Y39211D01*
X53591Y41434D01*
X53591Y52545D01*
X54924Y54767D01*
X57591Y55878D01*
X60257Y55878D01*
X62924Y54767D01*
X64257Y52545D01*
G54D11*
X69147Y38100D02*
X69147Y55878D01*
G54D11*
X79813Y38100D02*
X79813Y55878D01*
G54D11*
X69147Y46989D02*
X79813Y46989D01*
G54D14*
X146050Y95250D02*
X146050Y104139D01*
G54D14*
X146050Y98806D02*
X146717Y99917D01*
X148050Y100250D01*
X149383Y99917D01*
X150050Y98806D01*
X150050Y96583D01*
X149383Y95472D01*
X148050Y95250D01*
X146717Y95472D01*
X146050Y96583D01*
G54D14*
X181800Y70406D02*
X180733Y69850D01*
X179400Y69850D01*
X178067Y70406D01*
X177800Y71517D01*
X177800Y73406D01*
X178467Y74517D01*
X179800Y74850D01*
X181133Y74517D01*
X181800Y73739D01*
X181800Y72628D01*
X177800Y72628D01*
G54D15*
X370466Y155863D02*
X380066Y155863D01*
G54D15*
X375266Y159863D02*
X375266Y151863D01*
G54D15*
X384466Y164863D02*
X390466Y148863D01*
X396466Y164863D01*
G54D12*
X342729Y111013D02*
X342729Y136413D01*
X393529Y136413D01*
X393529Y111013D01*
X342729Y111013D01*
G54D14*
X82550Y76200D02*
X82550Y85089D01*
X85883Y85089D01*
X87217Y84533D01*
X87883Y83422D01*
X87883Y82311D01*
X87217Y81200D01*
X85883Y80644D01*
X87217Y80089D01*
X87883Y78978D01*
X87883Y77867D01*
X87217Y76756D01*
X85883Y76200D01*
X82550Y76200D01*
G54D14*
X82550Y80644D02*
X85883Y80644D01*
G54D14*
X95660Y77867D02*
X94994Y76756D01*
X93660Y76200D01*
X92327Y76200D01*
X90994Y76756D01*
X90327Y77867D01*
X90327Y83422D01*
X90994Y84533D01*
X92327Y85089D01*
X93660Y85089D01*
X94994Y84533D01*
X95660Y83422D01*
G54D14*
X98104Y83422D02*
X98771Y84533D01*
X100104Y85089D01*
X101437Y85089D01*
X102771Y84533D01*
X103437Y83422D01*
X103437Y82311D01*
X102771Y81200D01*
X101437Y80644D01*
X102771Y80089D01*
X103437Y78978D01*
X103437Y77867D01*
X102771Y76756D01*
X101437Y76200D01*
X100104Y76200D01*
X98771Y76756D01*
X98104Y77867D01*
G54D14*
X111214Y76200D02*
X105881Y76200D01*
X105881Y76756D01*
X106548Y77867D01*
X110548Y81200D01*
X111214Y82311D01*
X111214Y83422D01*
X110548Y84533D01*
X109214Y85089D01*
X107881Y85089D01*
X106548Y84533D01*
X105881Y83422D01*
G54D14*
X113658Y85089D02*
X118991Y85089D01*
X118325Y83978D01*
X116991Y82311D01*
X115658Y80089D01*
X114991Y78422D01*
X114991Y76200D01*
G54D15*
X360121Y92367D02*
X353770Y92367D01*
G54D15*
X353770Y84430D02*
X353771Y100305D01*
G54D15*
X350596Y97923D02*
X350596Y86811D01*
G54D15*
X347421Y89986D02*
X347421Y94748D01*
G54D15*
X99771Y-231483D02*
X93420Y-231483D01*
G54D15*
X93420Y-239420D02*
X93421Y-223545D01*
G54D15*
X90246Y-225927D02*
X90246Y-237039D01*
G54D15*
X87071Y-233864D02*
X87071Y-229102D01*
G54D15*
X334721Y-212433D02*
X328370Y-212433D01*
G54D15*
X328370Y-220370D02*
X328371Y-204495D01*
G54D15*
X325196Y-206877D02*
X325196Y-217989D01*
G54D15*
X322021Y-214814D02*
X322021Y-210052D01*
G54D15*
X-1829Y79667D02*
X-8180Y79667D01*
G54D15*
X-8180Y71730D02*
X-8179Y87605D01*
G54D15*
X-11354Y85223D02*
X-11354Y74111D01*
G54D15*
X-14529Y77286D02*
X-14529Y82048D01*
G54D15*
X55321Y136817D02*
X48970Y136817D01*
G54D15*
X48970Y128880D02*
X48971Y144755D01*
G54D15*
X45796Y142373D02*
X45796Y131261D01*
G54D15*
X42621Y134436D02*
X42621Y139198D01*
M02*
