%FSLAX34Y34*%
%MOMM*%
%LNSOLDERMASK_BOTTOM*%
G71*
G01*
%ADD10R,1.470X0.835*%
%ADD11C,2.500*%
%ADD12C,2.250*%
%ADD13C,2.600*%
%ADD14C,4.600*%
%LPD*%
X282228Y153964D02*
G54D10*
D03*
X282228Y143804D02*
G54D10*
D03*
X282228Y134152D02*
G54D10*
D03*
X282228Y123992D02*
G54D10*
D03*
X282228Y114086D02*
G54D10*
D03*
X-39336Y58460D02*
G54D11*
D03*
X-13936Y58460D02*
G54D11*
D03*
X11464Y58460D02*
G54D11*
D03*
X36864Y58460D02*
G54D11*
D03*
X62264Y58460D02*
G54D11*
D03*
X87664Y58460D02*
G54D11*
D03*
X113064Y58460D02*
G54D11*
D03*
X138464Y58460D02*
G54D11*
D03*
X163864Y58460D02*
G54D11*
D03*
X189264Y58460D02*
G54D11*
D03*
X214664Y58460D02*
G54D11*
D03*
X240064Y58460D02*
G54D11*
D03*
X265464Y58460D02*
G54D11*
D03*
X290864Y58460D02*
G54D11*
D03*
X316264Y58460D02*
G54D11*
D03*
X-39336Y210860D02*
G54D11*
D03*
X-13936Y210860D02*
G54D11*
D03*
X11464Y210860D02*
G54D11*
D03*
X36864Y210860D02*
G54D11*
D03*
X62264Y210860D02*
G54D11*
D03*
X87664Y210860D02*
G54D11*
D03*
X113064Y210860D02*
G54D11*
D03*
X138464Y210860D02*
G54D11*
D03*
X163864Y210860D02*
G54D11*
D03*
X189264Y210860D02*
G54D11*
D03*
X214664Y210860D02*
G54D11*
D03*
X240064Y210860D02*
G54D11*
D03*
X265464Y210860D02*
G54D11*
D03*
X290864Y210860D02*
G54D11*
D03*
X316264Y210860D02*
G54D11*
D03*
X-64577Y211019D02*
G54D12*
D03*
X-64577Y58619D02*
G54D12*
D03*
X-38320Y159806D02*
G54D11*
D03*
X-63720Y159806D02*
G54D11*
D03*
X-38320Y134406D02*
G54D11*
D03*
X-63720Y134406D02*
G54D11*
D03*
X-38320Y109006D02*
G54D11*
D03*
X-63720Y109006D02*
G54D11*
D03*
X92234Y263559D02*
G54D13*
D03*
X16034Y263559D02*
G54D13*
D03*
X-102891Y266134D02*
G54D13*
D03*
X-77391Y266134D02*
G54D13*
D03*
X131499Y267316D02*
G54D13*
D03*
X182480Y267429D02*
G54D13*
D03*
X231934Y263559D02*
G54D13*
D03*
X333534Y263559D02*
G54D13*
D03*
X298120Y315684D02*
G54D13*
D03*
X247139Y315572D02*
G54D13*
D03*
X372851Y318434D02*
G54D13*
D03*
X372963Y267454D02*
G54D13*
D03*
X182480Y267429D02*
G54D13*
D03*
X247139Y315572D02*
G54D13*
D03*
X372963Y267454D02*
G54D13*
D03*
X50800Y0D02*
G54D13*
D03*
X25400Y0D02*
G54D13*
D03*
X0Y0D02*
G54D13*
D03*
X101600Y0D02*
G54D13*
D03*
X76200Y0D02*
G54D13*
D03*
X50800Y0D02*
G54D13*
D03*
X152400Y0D02*
G54D13*
D03*
X127000Y0D02*
G54D13*
D03*
X101600Y0D02*
G54D13*
D03*
X203199Y0D02*
G54D13*
D03*
X177799Y0D02*
G54D13*
D03*
X152400Y0D02*
G54D13*
D03*
X228599Y0D02*
G54D13*
D03*
X203199Y0D02*
G54D13*
D03*
X177799Y0D02*
G54D13*
D03*
X253999Y0D02*
G54D13*
D03*
X228599Y0D02*
G54D13*
D03*
X203199Y0D02*
G54D13*
D03*
X-114300Y139700D02*
G54D13*
D03*
X-114300Y139700D02*
G54D13*
D03*
X-114300Y165100D02*
G54D13*
D03*
X-114300Y190500D02*
G54D13*
D03*
X-114300Y88900D02*
G54D13*
D03*
X-114300Y88900D02*
G54D13*
D03*
X-114300Y114300D02*
G54D13*
D03*
X-114300Y139700D02*
G54D13*
D03*
X-114300Y63500D02*
G54D13*
D03*
X-114300Y88900D02*
G54D13*
D03*
X-114300Y165100D02*
G54D13*
D03*
X-114300Y165100D02*
G54D13*
D03*
X-114300Y190500D02*
G54D13*
D03*
X-114300Y215900D02*
G54D13*
D03*
X-114300Y63500D02*
G54D13*
D03*
X36864Y58460D02*
G54D13*
D03*
X-13936Y210860D02*
G54D13*
D03*
X-166846Y301659D02*
G54D14*
D03*
X-166846Y-28541D02*
G54D14*
D03*
X430054Y-28541D02*
G54D14*
D03*
X442754Y301659D02*
G54D14*
D03*
G36*
X-78246Y-28241D02*
X-52246Y-28241D01*
X-52246Y-54241D01*
X-78246Y-54241D01*
X-78246Y-28241D01*
G37*
G36*
X340854Y-21891D02*
X366854Y-21891D01*
X366854Y-47891D01*
X340854Y-47891D01*
X340854Y-21891D01*
G37*
G36*
X112254Y-28241D02*
X138254Y-28241D01*
X138254Y-54241D01*
X112254Y-54241D01*
X112254Y-28241D01*
G37*
G36*
X429754Y238459D02*
X455754Y238459D01*
X455754Y212459D01*
X429754Y212459D01*
X429754Y238459D01*
G37*
G36*
X429754Y60659D02*
X455754Y60659D01*
X455754Y34659D01*
X429754Y34659D01*
X429754Y60659D01*
G37*
G36*
X-192546Y251159D02*
X-166546Y251159D01*
X-166546Y225159D01*
X-192546Y225159D01*
X-192546Y251159D01*
G37*
G36*
X-192546Y60659D02*
X-166546Y60659D01*
X-166546Y34659D01*
X-192546Y34659D01*
X-192546Y60659D01*
G37*
X-90646Y308009D02*
G54D14*
D03*
G36*
X-192546Y162259D02*
X-166546Y162259D01*
X-166546Y136259D01*
X-192546Y136259D01*
X-192546Y162259D01*
G37*
G36*
X429754Y162259D02*
X455754Y162259D01*
X455754Y136259D01*
X429754Y136259D01*
X429754Y162259D01*
G37*
M02*
