%FSLAX34Y34*%
%MOMM*%
%LNSILK_TOP*%
G71*
G01*
%ADD10C,0.300*%
%ADD11C,0.200*%
%ADD12C,0.150*%
%ADD13C,0.167*%
%ADD14C,0.222*%
%ADD15C,0.333*%
%ADD16C,0.111*%
%LPD*%
G54D10*
X48250Y93699D02*
X148850Y93799D01*
X148750Y293699D01*
X48250Y293699D01*
X48250Y93699D01*
G54D11*
X60350Y282299D02*
X60350Y256899D01*
X66650Y256899D01*
X66550Y256899D01*
X72950Y239399D01*
X73050Y239399D01*
X80950Y269599D01*
X88950Y237799D01*
X96850Y269599D01*
X106450Y237799D01*
X115850Y269599D01*
X123850Y237799D01*
X130250Y256899D01*
X136550Y256899D01*
X136550Y282299D01*
G54D11*
X60350Y104499D02*
X85650Y104499D01*
X85650Y123499D01*
G54D11*
X60350Y155299D02*
X85650Y155299D01*
X85650Y136299D01*
G54D11*
X136550Y104499D02*
X111150Y104499D01*
X111150Y123499D01*
G54D11*
X136550Y155299D02*
X111150Y155299D01*
X111150Y136299D01*
G36*
X85750Y123499D02*
X85750Y123599D01*
X79350Y110899D01*
X92050Y110899D01*
X85650Y123499D01*
X85750Y123499D01*
G37*
G54D10*
X85750Y123499D02*
X85750Y123599D01*
X79350Y110899D01*
X92050Y110899D01*
X85650Y123499D01*
X85750Y123499D01*
G36*
X111150Y123399D02*
X111150Y123499D01*
X104750Y110799D01*
X117450Y110799D01*
X111050Y123399D01*
X111150Y123399D01*
G37*
G54D10*
X111150Y123399D02*
X111150Y123499D01*
X104750Y110799D01*
X117450Y110799D01*
X111050Y123399D01*
X111150Y123399D01*
G36*
X85850Y136499D02*
X85850Y136399D01*
X92250Y149099D01*
X79550Y149099D01*
X85950Y136499D01*
X85850Y136499D01*
G37*
G54D10*
X85850Y136499D02*
X85850Y136399D01*
X92250Y149099D01*
X79550Y149099D01*
X85950Y136499D01*
X85850Y136499D01*
G36*
X111150Y136399D02*
X111150Y136299D01*
X117550Y148999D01*
X104850Y148999D01*
X111250Y136399D01*
X111150Y136399D01*
G37*
G54D10*
X111150Y136399D02*
X111150Y136299D01*
X117550Y148999D01*
X104850Y148999D01*
X111250Y136399D01*
X111150Y136399D01*
G54D11*
X85750Y136299D02*
X85750Y136199D01*
X66750Y129799D01*
X66750Y129899D01*
X52450Y129899D01*
X52450Y193399D01*
X52450Y206099D01*
X60350Y206099D01*
G54D11*
X111150Y136299D02*
X111150Y136299D01*
X130150Y129899D01*
X144450Y129899D01*
X144450Y206099D01*
X136550Y206099D01*
G54D10*
X549900Y93699D02*
X650500Y93799D01*
X650400Y293699D01*
X549900Y293699D01*
X549900Y93699D01*
G54D11*
X562000Y282299D02*
X562000Y256899D01*
X568300Y256899D01*
X568200Y256899D01*
X574600Y239399D01*
X574700Y239399D01*
X582600Y269599D01*
X590600Y237799D01*
X598500Y269599D01*
X608100Y237799D01*
X617500Y269599D01*
X625500Y237799D01*
X631900Y256899D01*
X638200Y256899D01*
X638200Y282299D01*
G54D11*
X562000Y104499D02*
X587300Y104499D01*
X587300Y123499D01*
G54D11*
X562000Y155299D02*
X587300Y155299D01*
X587300Y136299D01*
G54D11*
X638200Y104499D02*
X612800Y104499D01*
X612800Y123499D01*
G54D11*
X638200Y155299D02*
X612800Y155299D01*
X612800Y136299D01*
G36*
X587400Y123499D02*
X587400Y123599D01*
X581000Y110899D01*
X593700Y110899D01*
X587300Y123499D01*
X587400Y123499D01*
G37*
G54D10*
X587400Y123499D02*
X587400Y123599D01*
X581000Y110899D01*
X593700Y110899D01*
X587300Y123499D01*
X587400Y123499D01*
G36*
X612800Y123399D02*
X612800Y123499D01*
X606400Y110799D01*
X619100Y110799D01*
X612700Y123399D01*
X612800Y123399D01*
G37*
G54D10*
X612800Y123399D02*
X612800Y123499D01*
X606400Y110799D01*
X619100Y110799D01*
X612700Y123399D01*
X612800Y123399D01*
G36*
X587500Y136499D02*
X587500Y136399D01*
X593900Y149099D01*
X581200Y149099D01*
X587600Y136499D01*
X587500Y136499D01*
G37*
G54D10*
X587500Y136499D02*
X587500Y136399D01*
X593900Y149099D01*
X581200Y149099D01*
X587600Y136499D01*
X587500Y136499D01*
G36*
X612800Y136399D02*
X612800Y136299D01*
X619200Y148999D01*
X606500Y148999D01*
X612900Y136399D01*
X612800Y136399D01*
G37*
G54D10*
X612800Y136399D02*
X612800Y136299D01*
X619200Y148999D01*
X606500Y148999D01*
X612900Y136399D01*
X612800Y136399D01*
G54D11*
X587400Y136299D02*
X587400Y136199D01*
X568400Y129799D01*
X568400Y129899D01*
X554100Y129899D01*
X554100Y193399D01*
X554100Y206099D01*
X562000Y206099D01*
G54D11*
X612800Y136299D02*
X612800Y136299D01*
X631800Y129899D01*
X646100Y129899D01*
X646100Y206099D01*
X638200Y206099D01*
G54D12*
X194225Y346492D02*
X194225Y371892D01*
X122625Y371892D01*
X122625Y346492D01*
X194225Y346492D01*
G54D13*
X149569Y379784D02*
X148569Y378117D01*
X146569Y377284D01*
X144569Y377284D01*
X142569Y378117D01*
X141569Y379784D01*
X141569Y388117D01*
X142569Y389784D01*
X144569Y390617D01*
X146569Y390617D01*
X148569Y389784D01*
X149569Y388117D01*
G54D13*
X157236Y383950D02*
X160236Y382284D01*
X161236Y380617D01*
X161236Y377284D01*
G54D13*
X153236Y377284D02*
X153236Y390617D01*
X158236Y390617D01*
X160236Y389784D01*
X161236Y388117D01*
X161236Y386450D01*
X160236Y384784D01*
X158236Y383950D01*
X153236Y383950D01*
G54D13*
X164903Y385617D02*
X169903Y390617D01*
X169903Y377284D01*
G54D12*
X638200Y334100D02*
X638200Y306700D01*
X562000Y306700D01*
X562000Y334100D01*
X638200Y334100D01*
G54D12*
X568300Y306700D02*
X568300Y334100D01*
G54D12*
X581575Y346492D02*
X581575Y371892D01*
X509975Y371892D01*
X509975Y346492D01*
X581575Y346492D01*
G54D13*
X536919Y379783D02*
X535919Y378117D01*
X533919Y377283D01*
X531919Y377283D01*
X529919Y378117D01*
X528919Y379783D01*
X528919Y388117D01*
X529919Y389783D01*
X531919Y390617D01*
X533919Y390617D01*
X535919Y389783D01*
X536919Y388117D01*
G54D13*
X544586Y383950D02*
X547586Y382283D01*
X548586Y380617D01*
X548586Y377283D01*
G54D13*
X540586Y377283D02*
X540586Y390617D01*
X545586Y390617D01*
X547586Y389783D01*
X548586Y388117D01*
X548586Y386450D01*
X547586Y384783D01*
X545586Y383950D01*
X540586Y383950D01*
G54D13*
X560253Y377283D02*
X552253Y377283D01*
X552253Y378117D01*
X553253Y379783D01*
X559253Y384783D01*
X560253Y386450D01*
X560253Y388117D01*
X559253Y389783D01*
X557253Y390617D01*
X555253Y390617D01*
X553253Y389783D01*
X552253Y388117D01*
G54D12*
X264075Y308392D02*
X264075Y333792D01*
X192475Y333792D01*
X192475Y308392D01*
X264075Y308392D01*
G54D13*
X219419Y341683D02*
X218419Y340017D01*
X216419Y339183D01*
X214419Y339183D01*
X212419Y340017D01*
X211419Y341683D01*
X211419Y350017D01*
X212419Y351683D01*
X214419Y352517D01*
X216419Y352517D01*
X218419Y351683D01*
X219419Y350017D01*
G54D13*
X231086Y339183D02*
X223086Y339183D01*
X223086Y340017D01*
X224086Y341683D01*
X230086Y346683D01*
X231086Y348350D01*
X231086Y350017D01*
X230086Y351683D01*
X228086Y352517D01*
X226086Y352517D01*
X224086Y351683D01*
X223086Y350017D01*
G54D12*
X178625Y107890D02*
X178624Y82490D01*
X250225Y82490D01*
X250224Y107890D01*
X178625Y107890D01*
G54D13*
X223280Y74599D02*
X224280Y76265D01*
X226280Y77099D01*
X228280Y77099D01*
X230280Y76265D01*
X231280Y74599D01*
X231280Y66265D01*
X230280Y64599D01*
X228280Y63765D01*
X226280Y63765D01*
X224280Y64599D01*
X223280Y66265D01*
G54D13*
X219613Y68765D02*
X214613Y63765D01*
X214613Y77099D01*
G54D12*
X187350Y145650D02*
X250850Y145650D01*
X250850Y272650D01*
X187350Y272650D01*
X187350Y145650D01*
G54D12*
X149250Y334100D02*
X149250Y306700D01*
X73050Y306700D01*
X73050Y334100D01*
X149250Y334100D01*
G54D12*
X79350Y306700D02*
X79350Y334100D01*
G54D12*
X283450Y228114D02*
X283450Y164614D01*
X410450Y164614D01*
X410450Y228114D01*
X283450Y228114D01*
G54D12*
X438975Y107890D02*
X438974Y82490D01*
X510575Y82490D01*
X510574Y107890D01*
X438975Y107890D01*
G54D13*
X483630Y74599D02*
X484630Y76265D01*
X486630Y77099D01*
X488630Y77099D01*
X490630Y76265D01*
X491630Y74599D01*
X491630Y66265D01*
X490630Y64599D01*
X488630Y63765D01*
X486630Y63765D01*
X484630Y64599D01*
X483630Y66265D01*
G54D13*
X479963Y66265D02*
X478963Y64599D01*
X476963Y63765D01*
X474963Y63765D01*
X472963Y64599D01*
X471963Y66265D01*
X471963Y67932D01*
X472963Y69599D01*
X474963Y70432D01*
X472963Y71265D01*
X471963Y72932D01*
X471963Y74599D01*
X472963Y76265D01*
X474963Y77099D01*
X476963Y77099D01*
X478963Y76265D01*
X479963Y74599D01*
G54D12*
X441350Y145650D02*
X504850Y145650D01*
X504850Y272650D01*
X441350Y272650D01*
X441350Y145650D01*
G54D12*
X505375Y308392D02*
X505375Y333792D01*
X433775Y333792D01*
X433775Y308392D01*
X505375Y308392D01*
G54D13*
X460719Y341683D02*
X459719Y340017D01*
X457719Y339183D01*
X455719Y339183D01*
X453719Y340017D01*
X452719Y341683D01*
X452719Y350017D01*
X453719Y351683D01*
X455719Y352517D01*
X457719Y352517D01*
X459719Y351683D01*
X460719Y350017D01*
G54D13*
X470386Y339183D02*
X470386Y352517D01*
X464386Y344183D01*
X464386Y342517D01*
X472386Y342517D01*
G54D11*
X32187Y357501D02*
X38187Y341501D01*
X44187Y357501D01*
G54D11*
X48587Y341501D02*
X48587Y357501D01*
G54D11*
X52987Y341501D02*
X52987Y357501D01*
X62587Y341501D01*
X62587Y357501D01*
G54D12*
X22391Y363674D02*
X22391Y389074D01*
X73191Y389074D01*
X73191Y363674D01*
X22391Y363674D01*
G54D11*
X15654Y358835D02*
X15654Y352485D01*
G54D11*
X23591Y352485D02*
X7716Y352485D01*
G54D11*
X10097Y349310D02*
X21210Y349310D01*
G54D11*
X18035Y346135D02*
X13273Y346135D01*
G54D12*
X11204Y218087D02*
X36604Y218087D01*
X36604Y167287D01*
X11204Y167287D01*
X11204Y218087D01*
G54D12*
X665254Y218087D02*
X690654Y218087D01*
X690654Y167287D01*
X665254Y167287D01*
X665254Y218087D01*
G54D11*
X28354Y244536D02*
X28354Y238185D01*
G54D11*
X36291Y238185D02*
X20416Y238186D01*
G54D11*
X22797Y235010D02*
X33910Y235010D01*
G54D11*
X30735Y231835D02*
X25973Y231835D01*
G54D11*
X676054Y244536D02*
X676054Y238185D01*
G54D11*
X683991Y238185D02*
X668116Y238186D01*
G54D11*
X670497Y235010D02*
X681610Y235010D01*
G54D11*
X678435Y231835D02*
X673673Y231835D01*
G54D14*
X32567Y127711D02*
X14789Y127711D01*
G54D14*
X32567Y132600D02*
X14789Y132600D01*
X32567Y143267D01*
X14789Y143267D01*
G54D14*
X679790Y125760D02*
X690901Y125760D01*
X693124Y124426D01*
X694235Y121760D01*
X694235Y119093D01*
X693124Y116426D01*
X690901Y115093D01*
X679790Y115093D01*
X677568Y116426D01*
X676457Y119093D01*
X676457Y121760D01*
X677568Y124426D01*
X679790Y125760D01*
G54D14*
X676457Y130649D02*
X690901Y130649D01*
X693124Y131982D01*
X694235Y134649D01*
X694234Y137316D01*
X693124Y139982D01*
X690901Y141316D01*
X676457Y141316D01*
G54D14*
X694235Y151538D02*
X676457Y151538D01*
G54D14*
X676457Y146205D02*
X676457Y156872D01*
G54D11*
X624088Y360284D02*
X630088Y344284D01*
X636088Y360284D01*
G54D11*
X640488Y344284D02*
X640488Y360284D01*
G54D11*
X644888Y344284D02*
X644888Y360284D01*
X654488Y344284D01*
X654488Y360284D01*
G54D12*
X684938Y392034D02*
X684937Y366634D01*
X634138Y366634D01*
X634138Y392034D01*
X684938Y392034D01*
G54D11*
X679111Y359237D02*
X679112Y352886D01*
G54D11*
X687049Y352886D02*
X671174Y352887D01*
G54D11*
X673555Y349712D02*
X684668Y349712D01*
G54D11*
X681493Y346537D02*
X676730Y346537D01*
G54D15*
X320734Y401320D02*
X320734Y374653D01*
X334734Y374653D01*
G54D15*
X342067Y374653D02*
X342067Y401320D01*
X352067Y401320D01*
X356067Y399654D01*
X358067Y396320D01*
X358067Y392987D01*
X356067Y389654D01*
X352067Y387987D01*
X342067Y387987D01*
G54D15*
X365400Y374653D02*
X365400Y401320D01*
X379400Y401320D01*
G54D15*
X365400Y387987D02*
X379400Y387987D01*
G54D16*
X109634Y325534D02*
X109634Y316645D01*
X114300Y316645D01*
G54D16*
X119411Y321089D02*
X121411Y319978D01*
X122078Y318867D01*
X122078Y316645D01*
G54D16*
X116745Y316645D02*
X116745Y325534D01*
X120078Y325534D01*
X121411Y324978D01*
X122078Y323867D01*
X122078Y322756D01*
X121411Y321645D01*
X120078Y321089D01*
X116745Y321089D01*
G54D16*
X124522Y322200D02*
X127855Y325534D01*
X127855Y316645D01*
G54D16*
X591360Y324839D02*
X591360Y315950D01*
X596027Y315950D01*
G54D16*
X601138Y320394D02*
X603138Y319283D01*
X603804Y318172D01*
X603804Y315950D01*
G54D16*
X598471Y315950D02*
X598471Y324839D01*
X601804Y324839D01*
X603138Y324283D01*
X603804Y323172D01*
X603804Y322061D01*
X603138Y320950D01*
X601804Y320394D01*
X598471Y320394D01*
G54D16*
X611581Y315950D02*
X606248Y315950D01*
X606248Y316505D01*
X606915Y317616D01*
X610915Y320950D01*
X611581Y322061D01*
X611581Y323172D01*
X610915Y324283D01*
X609581Y324839D01*
X608248Y324839D01*
X606915Y324283D01*
X606248Y323172D01*
G54D14*
X201631Y214350D02*
X201631Y196573D01*
X210964Y196573D01*
G54D14*
X215853Y207684D02*
X222520Y214350D01*
X222520Y196573D01*
G54D14*
X328631Y214350D02*
X328631Y196573D01*
X337964Y196573D01*
G54D14*
X353520Y196573D02*
X342853Y196573D01*
X342853Y197684D01*
X344186Y199906D01*
X352186Y206573D01*
X353520Y208795D01*
X353520Y211017D01*
X352186Y213239D01*
X349520Y214350D01*
X346853Y214350D01*
X344186Y213239D01*
X342853Y211017D01*
G54D14*
X468331Y214350D02*
X468331Y196573D01*
X477664Y196573D01*
G54D14*
X482553Y211017D02*
X483886Y213239D01*
X486553Y214350D01*
X489220Y214350D01*
X491886Y213239D01*
X493220Y211017D01*
X493220Y208795D01*
X491886Y206573D01*
X489220Y205462D01*
X491886Y204350D01*
X493220Y202128D01*
X493220Y199906D01*
X491886Y197684D01*
X489220Y196573D01*
X486553Y196573D01*
X483886Y197684D01*
X482553Y199906D01*
G54D14*
X92522Y75372D02*
X96522Y73150D01*
X97855Y70928D01*
X97855Y66483D01*
G54D14*
X87188Y66483D02*
X87188Y84261D01*
X93855Y84261D01*
X96522Y83150D01*
X97855Y80928D01*
X97855Y78705D01*
X96522Y76483D01*
X93855Y75372D01*
X87188Y75372D01*
G54D14*
X102744Y84261D02*
X102744Y66483D01*
X112078Y66483D01*
G54D14*
X116966Y77594D02*
X123633Y84261D01*
X123633Y66483D01*
G54D14*
X592223Y77848D02*
X596223Y75626D01*
X597557Y73404D01*
X597557Y68959D01*
G54D14*
X586890Y68959D02*
X586890Y86737D01*
X593557Y86737D01*
X596223Y85626D01*
X597557Y83404D01*
X597557Y81182D01*
X596223Y78959D01*
X593557Y77848D01*
X586890Y77848D01*
G54D14*
X602446Y86737D02*
X602446Y68959D01*
X611779Y68959D01*
G54D14*
X627335Y68959D02*
X616668Y68959D01*
X616668Y70070D01*
X618001Y72293D01*
X626001Y78959D01*
X627335Y81182D01*
X627335Y83404D01*
X626001Y85626D01*
X623334Y86737D01*
X620668Y86737D01*
X618001Y85626D01*
X616668Y83404D01*
M02*
