%FSLAX34Y34*%
%MOMM*%
%LNCOPPER_TOP*%
G71*
G01*
%ADD10C,3.000*%
%ADD11C,3.200*%
%ADD12C,2.700*%
%ADD13C,2.800*%
%ADD14C,2.800*%
%ADD15C,4.200*%
%ADD16C,0.667*%
%ADD17C,0.813*%
%ADD18C,1.380*%
%ADD19C,3.053*%
%ADD20C,2.907*%
%ADD21C,2.973*%
%ADD22C,1.333*%
%ADD23C,2.200*%
%ADD24C,2.000*%
%ADD25C,1.900*%
%ADD26C,2.000*%
%ADD27C,4.000*%
%LPD*%
G36*
X-200000Y660000D02*
X900000Y660000D01*
X900000Y-200000D01*
X-200000Y-200000D01*
X-200000Y660000D01*
G37*
%LPC*%
X60350Y282299D02*
G54D10*
D03*
X136550Y282299D02*
G54D10*
D03*
X60350Y206099D02*
G54D10*
D03*
X60350Y155299D02*
G54D10*
D03*
X60350Y104499D02*
G54D10*
D03*
X136550Y206099D02*
G54D10*
D03*
X136550Y155299D02*
G54D10*
D03*
X136550Y104499D02*
G54D10*
D03*
X562000Y282299D02*
G54D10*
D03*
X638200Y282299D02*
G54D10*
D03*
X562000Y206099D02*
G54D10*
D03*
X562000Y155299D02*
G54D10*
D03*
X562000Y104499D02*
G54D10*
D03*
X638200Y206099D02*
G54D10*
D03*
X638200Y155299D02*
G54D10*
D03*
X638200Y104499D02*
G54D10*
D03*
X184010Y359325D02*
G54D11*
D03*
X133030Y359213D02*
G54D11*
D03*
X650900Y320400D02*
G54D12*
D03*
X549300Y320400D02*
G54D12*
D03*
X175510Y202059D02*
G54D13*
D03*
X264410Y202059D02*
G54D13*
D03*
X571360Y359325D02*
G54D11*
D03*
X520380Y359213D02*
G54D11*
D03*
X350135Y243334D02*
G54D13*
D03*
X350135Y148084D02*
G54D13*
D03*
X253860Y321225D02*
G54D11*
D03*
X202879Y321113D02*
G54D11*
D03*
X188840Y95057D02*
G54D11*
D03*
X239820Y95169D02*
G54D11*
D03*
X161950Y320400D02*
G54D12*
D03*
X60350Y320400D02*
G54D12*
D03*
X449190Y95057D02*
G54D11*
D03*
X500170Y95169D02*
G54D11*
D03*
X429510Y202059D02*
G54D13*
D03*
X518410Y202059D02*
G54D13*
D03*
X495160Y321225D02*
G54D11*
D03*
X444179Y321113D02*
G54D11*
D03*
X35162Y376361D02*
G54D11*
D03*
X60662Y376361D02*
G54D11*
D03*
X23891Y205316D02*
G54D11*
D03*
X23891Y179816D02*
G54D11*
D03*
X677941Y205316D02*
G54D11*
D03*
X677941Y179816D02*
G54D11*
D03*
X239820Y95169D02*
G54D14*
D03*
X500170Y95169D02*
G54D14*
D03*
X136550Y282299D02*
G54D14*
D03*
X638200Y282299D02*
G54D14*
D03*
X161950Y320400D02*
G54D14*
D03*
X184010Y359325D02*
G54D14*
D03*
X650900Y320400D02*
G54D14*
D03*
X520380Y359213D02*
G54D14*
D03*
X253860Y321225D02*
G54D14*
D03*
X495160Y321225D02*
G54D14*
D03*
X672167Y379347D02*
G54D11*
D03*
X646667Y379347D02*
G54D11*
D03*
G36*
X78100Y39000D02*
X106100Y39000D01*
X106100Y11000D01*
X78100Y11000D01*
X78100Y39000D01*
G37*
G36*
X332100Y39000D02*
X360100Y39000D01*
X360100Y11000D01*
X332100Y11000D01*
X332100Y39000D01*
G37*
G36*
X573400Y39000D02*
X601400Y39000D01*
X601400Y11000D01*
X573400Y11000D01*
X573400Y39000D01*
G37*
G36*
X154300Y445400D02*
X182300Y445400D01*
X182300Y417400D01*
X154300Y417400D01*
X154300Y445400D01*
G37*
G36*
X332100Y445400D02*
X360100Y445400D01*
X360100Y417400D01*
X332100Y417400D01*
X332100Y445400D01*
G37*
G36*
X509900Y445400D02*
X537900Y445400D01*
X537900Y417400D01*
X509900Y417400D01*
X509900Y445400D01*
G37*
X676300Y31350D02*
G54D15*
D03*
X28600Y31350D02*
G54D15*
D03*
X28600Y431400D02*
G54D15*
D03*
X676300Y431400D02*
G54D15*
D03*
X79400Y431400D02*
G54D15*
D03*
X625500Y431400D02*
G54D15*
D03*
G36*
X662300Y293000D02*
X690300Y293000D01*
X690300Y265000D01*
X662300Y265000D01*
X662300Y293000D01*
G37*
G36*
X8250Y293000D02*
X36250Y293000D01*
X36250Y265000D01*
X8250Y265000D01*
X8250Y293000D01*
G37*
%LPD*%
G54D16*
G36*
X31828Y376361D02*
X31828Y392861D01*
X38495Y392861D01*
X38495Y376361D01*
X31828Y376361D01*
G37*
G54D17*
G54D16*
G36*
X23891Y208650D02*
X40391Y208650D01*
X40391Y201983D01*
X23891Y201983D01*
X23891Y208650D01*
G37*
G54D17*
G54D16*
G36*
X677941Y208650D02*
X694441Y208650D01*
X694441Y201983D01*
X677941Y201983D01*
X677941Y208650D01*
G37*
G54D17*
G54D18*
G36*
X232920Y95169D02*
X232920Y109669D01*
X246720Y109669D01*
X246720Y95169D01*
X232920Y95169D01*
G37*
G36*
X239820Y102069D02*
X254320Y102069D01*
X254320Y88269D01*
X239820Y88269D01*
X239820Y102069D01*
G37*
G36*
X246720Y95169D02*
X246720Y80669D01*
X232920Y80669D01*
X232920Y95169D01*
X246720Y95169D01*
G37*
G36*
X239820Y88269D02*
X225320Y88269D01*
X225320Y102069D01*
X239820Y102069D01*
X239820Y88269D01*
G37*
G54D18*
G36*
X493270Y95169D02*
X493270Y109669D01*
X507070Y109669D01*
X507070Y95169D01*
X493270Y95169D01*
G37*
G36*
X500170Y102069D02*
X514670Y102069D01*
X514670Y88269D01*
X500170Y88269D01*
X500170Y102069D01*
G37*
G36*
X507070Y95169D02*
X507070Y80669D01*
X493270Y80669D01*
X493270Y95169D01*
X507070Y95169D01*
G37*
G36*
X500170Y88269D02*
X485670Y88269D01*
X485670Y102069D01*
X500170Y102069D01*
X500170Y88269D01*
G37*
G54D18*
G36*
X129650Y282299D02*
X129650Y296799D01*
X143450Y296799D01*
X143450Y282299D01*
X129650Y282299D01*
G37*
G36*
X136550Y289199D02*
X151050Y289199D01*
X151050Y275399D01*
X136550Y275399D01*
X136550Y289199D01*
G37*
G36*
X143450Y282299D02*
X143450Y267799D01*
X129650Y267799D01*
X129650Y282299D01*
X143450Y282299D01*
G37*
G36*
X136550Y275399D02*
X122050Y275399D01*
X122050Y289199D01*
X136550Y289199D01*
X136550Y275399D01*
G37*
G54D18*
G36*
X631300Y282299D02*
X631300Y296799D01*
X645100Y296799D01*
X645100Y282299D01*
X631300Y282299D01*
G37*
G36*
X638200Y289199D02*
X652700Y289199D01*
X652700Y275399D01*
X638200Y275399D01*
X638200Y289199D01*
G37*
G36*
X645100Y282299D02*
X645100Y267799D01*
X631300Y267799D01*
X631300Y282299D01*
X645100Y282299D01*
G37*
G36*
X638200Y275399D02*
X623700Y275399D01*
X623700Y289199D01*
X638200Y289199D01*
X638200Y275399D01*
G37*
G54D18*
G36*
X155050Y320400D02*
X155050Y334900D01*
X168850Y334900D01*
X168850Y320400D01*
X155050Y320400D01*
G37*
G36*
X161950Y327300D02*
X176450Y327300D01*
X176450Y313500D01*
X161950Y313500D01*
X161950Y327300D01*
G37*
G36*
X168850Y320400D02*
X168850Y305900D01*
X155050Y305900D01*
X155050Y320400D01*
X168850Y320400D01*
G37*
G36*
X161950Y313500D02*
X147450Y313500D01*
X147450Y327300D01*
X161950Y327300D01*
X161950Y313500D01*
G37*
G54D18*
G36*
X177110Y359325D02*
X177110Y373825D01*
X190910Y373825D01*
X190910Y359325D01*
X177110Y359325D01*
G37*
G36*
X184010Y366225D02*
X198510Y366225D01*
X198510Y352425D01*
X184010Y352425D01*
X184010Y366225D01*
G37*
G36*
X190910Y359325D02*
X190910Y344825D01*
X177110Y344825D01*
X177110Y359325D01*
X190910Y359325D01*
G37*
G36*
X184010Y352425D02*
X169510Y352425D01*
X169510Y366225D01*
X184010Y366225D01*
X184010Y352425D01*
G37*
G54D18*
G36*
X644000Y320400D02*
X644000Y334900D01*
X657800Y334900D01*
X657800Y320400D01*
X644000Y320400D01*
G37*
G36*
X650900Y327300D02*
X665400Y327300D01*
X665400Y313500D01*
X650900Y313500D01*
X650900Y327300D01*
G37*
G36*
X657800Y320400D02*
X657800Y305900D01*
X644000Y305900D01*
X644000Y320400D01*
X657800Y320400D01*
G37*
G36*
X650900Y313500D02*
X636400Y313500D01*
X636400Y327300D01*
X650900Y327300D01*
X650900Y313500D01*
G37*
G54D18*
G36*
X513480Y359213D02*
X513480Y373713D01*
X527280Y373713D01*
X527280Y359213D01*
X513480Y359213D01*
G37*
G36*
X520380Y366113D02*
X534880Y366113D01*
X534880Y352313D01*
X520380Y352313D01*
X520380Y366113D01*
G37*
G36*
X527280Y359213D02*
X527280Y344713D01*
X513480Y344713D01*
X513480Y359213D01*
X527280Y359213D01*
G37*
G36*
X520380Y352313D02*
X505880Y352313D01*
X505880Y366113D01*
X520380Y366113D01*
X520380Y352313D01*
G37*
G54D18*
G36*
X246960Y321225D02*
X246960Y335725D01*
X260760Y335725D01*
X260760Y321225D01*
X246960Y321225D01*
G37*
G36*
X253860Y328125D02*
X268360Y328125D01*
X268360Y314325D01*
X253860Y314325D01*
X253860Y328125D01*
G37*
G36*
X260760Y321225D02*
X260760Y306725D01*
X246960Y306725D01*
X246960Y321225D01*
X260760Y321225D01*
G37*
G36*
X253860Y314325D02*
X239360Y314325D01*
X239360Y328125D01*
X253860Y328125D01*
X253860Y314325D01*
G37*
G54D18*
G36*
X488260Y321225D02*
X488260Y335725D01*
X502060Y335725D01*
X502060Y321225D01*
X488260Y321225D01*
G37*
G36*
X495160Y328125D02*
X509660Y328125D01*
X509660Y314325D01*
X495160Y314325D01*
X495160Y328125D01*
G37*
G36*
X502060Y321225D02*
X502060Y306725D01*
X488260Y306725D01*
X488260Y321225D01*
X502060Y321225D01*
G37*
G36*
X495160Y314325D02*
X480660Y314325D01*
X480660Y328125D01*
X495160Y328125D01*
X495160Y314325D01*
G37*
G54D16*
G36*
X675500Y379347D02*
X675500Y362847D01*
X668834Y362847D01*
X668834Y379347D01*
X675500Y379347D01*
G37*
G54D17*
G54D16*
G36*
X88767Y25000D02*
X88767Y39500D01*
X95433Y39500D01*
X95433Y25000D01*
X88767Y25000D01*
G37*
G36*
X92100Y28333D02*
X106600Y28333D01*
X106600Y21667D01*
X92100Y21667D01*
X92100Y28333D01*
G37*
G36*
X95433Y25000D02*
X95433Y10500D01*
X88767Y10500D01*
X88767Y25000D01*
X95433Y25000D01*
G37*
G36*
X92100Y21667D02*
X77600Y21667D01*
X77600Y28333D01*
X92100Y28333D01*
X92100Y21667D01*
G37*
G54D16*
G36*
X342767Y25000D02*
X342767Y39500D01*
X349433Y39500D01*
X349433Y25000D01*
X342767Y25000D01*
G37*
G36*
X346100Y28333D02*
X360600Y28333D01*
X360600Y21666D01*
X346100Y21666D01*
X346100Y28333D01*
G37*
G36*
X349433Y25000D02*
X349433Y10500D01*
X342767Y10500D01*
X342767Y25000D01*
X349433Y25000D01*
G37*
G36*
X346100Y21666D02*
X331600Y21666D01*
X331600Y28333D01*
X346100Y28333D01*
X346100Y21666D01*
G37*
G54D16*
G36*
X584067Y25000D02*
X584067Y39500D01*
X590733Y39500D01*
X590733Y25000D01*
X584067Y25000D01*
G37*
G36*
X587400Y28333D02*
X601900Y28333D01*
X601900Y21667D01*
X587400Y21667D01*
X587400Y28333D01*
G37*
G36*
X590733Y25000D02*
X590733Y10500D01*
X584067Y10500D01*
X584067Y25000D01*
X590733Y25000D01*
G37*
G36*
X587400Y21667D02*
X572900Y21667D01*
X572900Y28333D01*
X587400Y28333D01*
X587400Y21667D01*
G37*
G54D16*
G36*
X164967Y431400D02*
X164967Y445900D01*
X171633Y445900D01*
X171633Y431400D01*
X164967Y431400D01*
G37*
G36*
X168300Y434733D02*
X182800Y434733D01*
X182800Y428067D01*
X168300Y428067D01*
X168300Y434733D01*
G37*
G36*
X171633Y431400D02*
X171633Y416900D01*
X164967Y416900D01*
X164967Y431400D01*
X171633Y431400D01*
G37*
G36*
X168300Y428067D02*
X153800Y428067D01*
X153800Y434733D01*
X168300Y434733D01*
X168300Y428067D01*
G37*
G54D16*
G36*
X342767Y431400D02*
X342767Y445900D01*
X349433Y445900D01*
X349433Y431400D01*
X342767Y431400D01*
G37*
G36*
X346100Y434733D02*
X360600Y434733D01*
X360600Y428067D01*
X346100Y428067D01*
X346100Y434733D01*
G37*
G36*
X349433Y431400D02*
X349433Y416900D01*
X342767Y416900D01*
X342767Y431400D01*
X349433Y431400D01*
G37*
G36*
X346100Y428067D02*
X331600Y428067D01*
X331600Y434733D01*
X346100Y434733D01*
X346100Y428067D01*
G37*
G54D16*
G36*
X520567Y431400D02*
X520567Y445900D01*
X527233Y445900D01*
X527233Y431400D01*
X520567Y431400D01*
G37*
G36*
X523900Y434733D02*
X538400Y434733D01*
X538400Y428067D01*
X523900Y428067D01*
X523900Y434733D01*
G37*
G36*
X527233Y431400D02*
X527233Y416900D01*
X520567Y416900D01*
X520567Y431400D01*
X527233Y431400D01*
G37*
G36*
X523900Y428067D02*
X509400Y428067D01*
X509400Y434733D01*
X523900Y434733D01*
X523900Y428067D01*
G37*
G54D19*
G36*
X676300Y46617D02*
X697800Y46617D01*
X697800Y16083D01*
X676300Y16083D01*
X676300Y46617D01*
G37*
G36*
X691567Y31350D02*
X691567Y9850D01*
X661033Y9850D01*
X661033Y31350D01*
X691567Y31350D01*
G37*
G36*
X676300Y16083D02*
X654800Y16083D01*
X654800Y46617D01*
X676300Y46617D01*
X676300Y16083D01*
G37*
G36*
X661033Y31350D02*
X661033Y52850D01*
X691567Y52850D01*
X691567Y31350D01*
X661033Y31350D01*
G37*
G54D20*
G36*
X28600Y45883D02*
X50100Y45883D01*
X50100Y16817D01*
X28600Y16817D01*
X28600Y45883D01*
G37*
G36*
X43133Y31350D02*
X43133Y9850D01*
X14067Y9850D01*
X14067Y31350D01*
X43133Y31350D01*
G37*
G36*
X28600Y16817D02*
X7100Y16817D01*
X7100Y45883D01*
X28600Y45883D01*
X28600Y16817D01*
G37*
G36*
X14067Y31350D02*
X14067Y52850D01*
X43133Y52850D01*
X43133Y31350D01*
X14067Y31350D01*
G37*
G54D21*
G36*
X28600Y446267D02*
X50100Y446267D01*
X50100Y416533D01*
X28600Y416533D01*
X28600Y446267D01*
G37*
G36*
X43467Y431400D02*
X43467Y409900D01*
X13733Y409900D01*
X13733Y431400D01*
X43467Y431400D01*
G37*
G36*
X28600Y416533D02*
X7100Y416533D01*
X7100Y446267D01*
X28600Y446267D01*
X28600Y416533D01*
G37*
G36*
X13733Y431400D02*
X13733Y452900D01*
X43467Y452900D01*
X43467Y431400D01*
X13733Y431400D01*
G37*
G54D22*
G36*
X676300Y438067D02*
X697800Y438067D01*
X697800Y424733D01*
X676300Y424733D01*
X676300Y438067D01*
G37*
G36*
X682967Y431400D02*
X682967Y409900D01*
X669633Y409900D01*
X669633Y431400D01*
X682967Y431400D01*
G37*
G36*
X676300Y424733D02*
X654800Y424733D01*
X654800Y438067D01*
X676300Y438067D01*
X676300Y424733D01*
G37*
G36*
X669633Y431400D02*
X669633Y452900D01*
X682967Y452900D01*
X682967Y431400D01*
X669633Y431400D01*
G37*
G54D21*
G36*
X79400Y446267D02*
X100900Y446267D01*
X100900Y416533D01*
X79400Y416533D01*
X79400Y446267D01*
G37*
G36*
X94267Y431400D02*
X94267Y409900D01*
X64533Y409900D01*
X64533Y431400D01*
X94267Y431400D01*
G37*
G36*
X79400Y416533D02*
X57900Y416533D01*
X57900Y446267D01*
X79400Y446267D01*
X79400Y416533D01*
G37*
G36*
X64533Y431400D02*
X64533Y452900D01*
X94267Y452900D01*
X94267Y431400D01*
X64533Y431400D01*
G37*
G54D22*
G36*
X625500Y438067D02*
X647000Y438067D01*
X647000Y424733D01*
X625500Y424733D01*
X625500Y438067D01*
G37*
G36*
X632167Y431400D02*
X632167Y409900D01*
X618833Y409900D01*
X618833Y431400D01*
X632167Y431400D01*
G37*
G36*
X625500Y424733D02*
X604000Y424733D01*
X604000Y438067D01*
X625500Y438067D01*
X625500Y424733D01*
G37*
G36*
X618833Y431400D02*
X618833Y452900D01*
X632167Y452900D01*
X632167Y431400D01*
X618833Y431400D01*
G37*
G54D16*
G36*
X672967Y279000D02*
X672967Y293500D01*
X679633Y293500D01*
X679633Y279000D01*
X672967Y279000D01*
G37*
G36*
X676300Y282333D02*
X690800Y282333D01*
X690800Y275667D01*
X676300Y275667D01*
X676300Y282333D01*
G37*
G36*
X679633Y279000D02*
X679633Y264500D01*
X672967Y264500D01*
X672967Y279000D01*
X679633Y279000D01*
G37*
G36*
X676300Y275667D02*
X661800Y275667D01*
X661800Y282333D01*
X676300Y282333D01*
X676300Y275667D01*
G37*
G54D16*
G36*
X18917Y279000D02*
X18917Y293500D01*
X25583Y293500D01*
X25583Y279000D01*
X18917Y279000D01*
G37*
G36*
X22250Y282333D02*
X36750Y282333D01*
X36750Y275667D01*
X22250Y275667D01*
X22250Y282333D01*
G37*
G36*
X25583Y279000D02*
X25583Y264500D01*
X18917Y264500D01*
X18917Y279000D01*
X25583Y279000D01*
G37*
G36*
X22250Y275667D02*
X7750Y275667D01*
X7750Y282333D01*
X22250Y282333D01*
X22250Y275667D01*
G37*
X60350Y282299D02*
G54D23*
D03*
X136550Y282299D02*
G54D23*
D03*
X60350Y206099D02*
G54D23*
D03*
X60350Y155299D02*
G54D23*
D03*
X60350Y104499D02*
G54D23*
D03*
X136550Y206099D02*
G54D23*
D03*
X136550Y155299D02*
G54D23*
D03*
X136550Y104499D02*
G54D23*
D03*
X562000Y282299D02*
G54D23*
D03*
X638200Y282299D02*
G54D23*
D03*
X562000Y206099D02*
G54D23*
D03*
X562000Y155299D02*
G54D23*
D03*
X562000Y104499D02*
G54D23*
D03*
X638200Y206099D02*
G54D23*
D03*
X638200Y155299D02*
G54D23*
D03*
X638200Y104499D02*
G54D23*
D03*
X184010Y359325D02*
G54D24*
D03*
X133030Y359213D02*
G54D24*
D03*
X650900Y320400D02*
G54D25*
D03*
X549300Y320400D02*
G54D25*
D03*
X175510Y202059D02*
G54D26*
D03*
X264410Y202059D02*
G54D26*
D03*
X571360Y359325D02*
G54D24*
D03*
X520380Y359213D02*
G54D24*
D03*
X350135Y243334D02*
G54D26*
D03*
X350135Y148084D02*
G54D26*
D03*
X253860Y321225D02*
G54D24*
D03*
X202879Y321113D02*
G54D24*
D03*
X188840Y95057D02*
G54D24*
D03*
X239820Y95169D02*
G54D24*
D03*
X161950Y320400D02*
G54D25*
D03*
X60350Y320400D02*
G54D25*
D03*
X449190Y95057D02*
G54D24*
D03*
X500170Y95169D02*
G54D24*
D03*
X429510Y202059D02*
G54D26*
D03*
X518410Y202059D02*
G54D26*
D03*
X495160Y321225D02*
G54D24*
D03*
X444179Y321113D02*
G54D24*
D03*
X35162Y376361D02*
G54D24*
D03*
X60662Y376361D02*
G54D24*
D03*
X23891Y205316D02*
G54D24*
D03*
X23891Y179816D02*
G54D24*
D03*
X677941Y205316D02*
G54D24*
D03*
X677941Y179816D02*
G54D24*
D03*
X239820Y95169D02*
G54D24*
D03*
X500170Y95169D02*
G54D24*
D03*
X136550Y282299D02*
G54D24*
D03*
X638200Y282299D02*
G54D24*
D03*
X161950Y320400D02*
G54D24*
D03*
X184010Y359325D02*
G54D24*
D03*
X650900Y320400D02*
G54D24*
D03*
X520380Y359213D02*
G54D24*
D03*
X253860Y321225D02*
G54D24*
D03*
X495160Y321225D02*
G54D24*
D03*
X672167Y379347D02*
G54D24*
D03*
X646667Y379347D02*
G54D24*
D03*
G36*
X82100Y35000D02*
X102100Y35000D01*
X102100Y15000D01*
X82100Y15000D01*
X82100Y35000D01*
G37*
G36*
X336100Y35000D02*
X356100Y35000D01*
X356100Y15000D01*
X336100Y15000D01*
X336100Y35000D01*
G37*
G36*
X577400Y35000D02*
X597400Y35000D01*
X597400Y15000D01*
X577400Y15000D01*
X577400Y35000D01*
G37*
G36*
X158300Y441400D02*
X178300Y441400D01*
X178300Y421400D01*
X158300Y421400D01*
X158300Y441400D01*
G37*
G36*
X336100Y441400D02*
X356100Y441400D01*
X356100Y421400D01*
X336100Y421400D01*
X336100Y441400D01*
G37*
G36*
X513900Y441400D02*
X533900Y441400D01*
X533900Y421400D01*
X513900Y421400D01*
X513900Y441400D01*
G37*
X676300Y31350D02*
G54D27*
D03*
X28600Y31350D02*
G54D27*
D03*
X28600Y431400D02*
G54D27*
D03*
X676300Y431400D02*
G54D27*
D03*
X79400Y431400D02*
G54D27*
D03*
X625500Y431400D02*
G54D27*
D03*
G36*
X666300Y289000D02*
X686300Y289000D01*
X686300Y269000D01*
X666300Y269000D01*
X666300Y289000D01*
G37*
G36*
X12250Y289000D02*
X32250Y289000D01*
X32250Y269000D01*
X12250Y269000D01*
X12250Y289000D01*
G37*
M02*
