%FSLAX34Y34*%
%MOMM*%
%LNSOLDERMASK_TOP*%
G71*
G01*
%ADD10C,2.800*%
%ADD11C,2.600*%
%ADD12C,2.500*%
%ADD13C,2.600*%
%ADD14C,4.600*%
%LPD*%
X60350Y282299D02*
G54D10*
D03*
X136550Y282299D02*
G54D10*
D03*
X60350Y206099D02*
G54D10*
D03*
X60350Y155299D02*
G54D10*
D03*
X60350Y104499D02*
G54D10*
D03*
X136550Y206099D02*
G54D10*
D03*
X136550Y155299D02*
G54D10*
D03*
X136550Y104499D02*
G54D10*
D03*
X562000Y282299D02*
G54D10*
D03*
X638200Y282299D02*
G54D10*
D03*
X562000Y206099D02*
G54D10*
D03*
X562000Y155299D02*
G54D10*
D03*
X562000Y104499D02*
G54D10*
D03*
X638200Y206099D02*
G54D10*
D03*
X638200Y155299D02*
G54D10*
D03*
X638200Y104499D02*
G54D10*
D03*
X184010Y359325D02*
G54D11*
D03*
X133030Y359213D02*
G54D11*
D03*
X650900Y320400D02*
G54D12*
D03*
X549300Y320400D02*
G54D12*
D03*
X175510Y202059D02*
G54D13*
D03*
X264410Y202059D02*
G54D13*
D03*
X571360Y359325D02*
G54D11*
D03*
X520380Y359213D02*
G54D11*
D03*
X350135Y243334D02*
G54D13*
D03*
X350135Y148084D02*
G54D13*
D03*
X253860Y321225D02*
G54D11*
D03*
X202879Y321113D02*
G54D11*
D03*
X188840Y95057D02*
G54D11*
D03*
X239820Y95169D02*
G54D11*
D03*
X161950Y320400D02*
G54D12*
D03*
X60350Y320400D02*
G54D12*
D03*
X449190Y95057D02*
G54D11*
D03*
X500170Y95169D02*
G54D11*
D03*
X429510Y202059D02*
G54D13*
D03*
X518410Y202059D02*
G54D13*
D03*
X495160Y321225D02*
G54D11*
D03*
X444179Y321113D02*
G54D11*
D03*
X35162Y376361D02*
G54D11*
D03*
X60662Y376361D02*
G54D11*
D03*
X23891Y205316D02*
G54D11*
D03*
X23891Y179816D02*
G54D11*
D03*
X677941Y205316D02*
G54D11*
D03*
X677941Y179816D02*
G54D11*
D03*
X239820Y95169D02*
G54D11*
D03*
X500170Y95169D02*
G54D11*
D03*
X136550Y282299D02*
G54D11*
D03*
X638200Y282299D02*
G54D11*
D03*
X161950Y320400D02*
G54D11*
D03*
X184010Y359325D02*
G54D11*
D03*
X650900Y320400D02*
G54D11*
D03*
X520380Y359213D02*
G54D11*
D03*
X253860Y321225D02*
G54D11*
D03*
X495160Y321225D02*
G54D11*
D03*
X672167Y379347D02*
G54D11*
D03*
X646667Y379347D02*
G54D11*
D03*
G36*
X79100Y38000D02*
X105100Y38000D01*
X105100Y12000D01*
X79100Y12000D01*
X79100Y38000D01*
G37*
G36*
X333100Y38000D02*
X359100Y38000D01*
X359100Y12000D01*
X333100Y12000D01*
X333100Y38000D01*
G37*
G36*
X574400Y38000D02*
X600400Y38000D01*
X600400Y12000D01*
X574400Y12000D01*
X574400Y38000D01*
G37*
G36*
X155300Y444400D02*
X181300Y444400D01*
X181300Y418400D01*
X155300Y418400D01*
X155300Y444400D01*
G37*
G36*
X333100Y444400D02*
X359100Y444400D01*
X359100Y418400D01*
X333100Y418400D01*
X333100Y444400D01*
G37*
G36*
X510900Y444400D02*
X536900Y444400D01*
X536900Y418400D01*
X510900Y418400D01*
X510900Y444400D01*
G37*
X676300Y31350D02*
G54D14*
D03*
X28600Y31350D02*
G54D14*
D03*
X28600Y431400D02*
G54D14*
D03*
X676300Y431400D02*
G54D14*
D03*
X79400Y431400D02*
G54D14*
D03*
X625500Y431400D02*
G54D14*
D03*
G36*
X663300Y292000D02*
X689300Y292000D01*
X689300Y266000D01*
X663300Y266000D01*
X663300Y292000D01*
G37*
G36*
X9250Y292000D02*
X35250Y292000D01*
X35250Y266000D01*
X9250Y266000D01*
X9250Y292000D01*
G37*
M02*
