; Drill file
; Format: 2.4 (00.0000)
M48
INCH
T01C0.0283
T02C0.0315
T03C0.0354
T04C0.0394
T05C0.0591
T06C0.063
%
G05
G90
T01
X028210Y021980
X028210Y025980
X024820Y025750
X024320Y038750
X028320Y038750
X035500Y037790
X054000Y037790
T02
X006810Y020920
X006810Y021920
X006810Y022920
X006810Y023920
X006810Y024920
X006810Y025920
X006810Y026920
X006810Y027920
X006810Y028920
X006810Y029920
X006810Y030920
X006810Y032920
X006810Y033920
X006810Y034920
X008800Y034880
X008800Y035880
X009800Y035880
X009800Y034880
X010800Y034880
X010800Y035880
X012810Y034920
X012810Y032920
X012810Y031920
X012810Y030920
X012810Y029920
X012810Y028920
X012810Y027920
X012810Y026920
X012810Y025920
X012810Y024920
X012810Y023920
X012810Y022920
X012810Y021920
X012810Y020920
T03
X015040Y018690
X014880Y020240
X016940Y021640
X016930Y023650
X014880Y024240
X015040Y026190
X015030Y028200
X014880Y029740
X014880Y032740
X012810Y033920
X014980Y036420
X014980Y037430
X007800Y037820
X006800Y037820
X005800Y037820
X004800Y037820
X003800Y037820
X002800Y037820
X001800Y037820
X006810Y031920
X018550Y029630
X021050Y029630
X022220Y029560
X024720Y029560
X024350Y031130
X024350Y033130
X024320Y034750
X028320Y034750
X028350Y033130
X028350Y031130
X027550Y029630
X030050Y029630
X031220Y029560
X033720Y029560
X032470Y027190
X034660Y026440
X036320Y026200
X036320Y024190
X034660Y023440
X034290Y018370
X036300Y018370
X036300Y016120
X034290Y016120
X034800Y013950
X034800Y012200
X034800Y010450
X034290Y007990
X036300Y007990
X040050Y008320
X040050Y007320
X040050Y006320
X039260Y002190
X036800Y003490
X034790Y003490
X042260Y002180
X046800Y003200
X046800Y000700
X050300Y002450
X051680Y002450
X054010Y003580
X054010Y000580
X055300Y008950
X051300Y008950
X051300Y012950
X055300Y012950
X053510Y018580
X051180Y019950
X049800Y019950
X046800Y018950
X046800Y021450
X047550Y023640
X049320Y023940
X049320Y025950
X051050Y026140
X052050Y026140
X053050Y026140
X057390Y025770
X058400Y025770
X060890Y025770
X061900Y025770
X053510Y021580
X043820Y024190
X043820Y026200
X041910Y026440
X041910Y023440
X041760Y019680
X038760Y019690
X040050Y015570
X040050Y014570
X040050Y013570
X029300Y013950
X029300Y012200
X029300Y010450
X024850Y018130
X024850Y020130
X024820Y021750
X026690Y023610
X026680Y025620
X028800Y027260
X023470Y027190
X019800Y027260
X022800Y023450
X017040Y018700
X039500Y037790
X041110Y037820
X043120Y037820
X045050Y033630
X047550Y033630
X048720Y033560
X051220Y033560
X049970Y031190
X046300Y031260
X058000Y037790
X059610Y037820
X061620Y037820
T04
X020300Y017950
X020300Y019950
X020300Y021950
X020300Y024950
X023300Y024950
X023300Y021950
X023300Y019950
X023300Y017950
X029800Y017950
X029800Y019950
X029800Y021950
X029800Y024950
X032800Y024950
X032800Y021950
X032800Y019950
X032800Y017950
X032800Y031450
X032800Y033450
X032800Y035450
X032800Y038450
X029800Y038450
X029800Y035450
X029800Y033450
X029800Y031450
X036070Y032710
X039070Y032710
X041070Y032710
X043070Y032710
X043070Y035710
X041070Y035710
X039070Y035710
X036070Y035710
X022800Y035450
X022800Y033450
X022800Y031450
X019800Y031450
X019800Y033450
X019800Y035450
X019800Y038450
X022800Y038450
X054070Y035960
X054070Y032960
X057070Y032960
X059070Y032960
X061070Y032960
X061070Y035960
X059070Y035960
X057070Y035960
T05
X006810Y035920
X012810Y035920
T06
X009920Y007070
X010920Y008070
X009920Y009070
X011920Y009070
X011920Y007070
X011920Y011570
X010920Y012570
X009920Y013570
X011920Y013570
X009920Y011570
X057420Y011070
X058420Y012070
X057420Y013070
X059420Y013070
X059420Y011070
M30
