%FSLAX34Y34*%
%MOMM*%
%LNSOLDERMASK_TOP*%
G71*
G01*
%ADD10C,2.800*%
%ADD11C,2.600*%
%ADD12C,2.500*%
%ADD13C,2.250*%
%ADD14C,2.800*%
%ADD15C,2.600*%
%ADD16C,2.500*%
%LPD*%
X252070Y344780D02*
G54D10*
D03*
X302870Y344780D02*
G54D10*
D03*
X277470Y319380D02*
G54D10*
D03*
X302870Y293980D02*
G54D10*
D03*
X252070Y293980D02*
G54D10*
D03*
X1347470Y663830D02*
G54D11*
D03*
X1322070Y663830D02*
G54D11*
D03*
X1296670Y663830D02*
G54D11*
D03*
X1252720Y659036D02*
G54D11*
D03*
X1252833Y608055D02*
G54D11*
D03*
X1064503Y671527D02*
G54D11*
D03*
X1064453Y595277D02*
G54D11*
D03*
X1113020Y665386D02*
G54D11*
D03*
X1113133Y614405D02*
G54D11*
D03*
X880353Y671527D02*
G54D11*
D03*
X880303Y595277D02*
G54D11*
D03*
X1017270Y370080D02*
G54D11*
D03*
X1017270Y395480D02*
G54D11*
D03*
X1017270Y185930D02*
G54D11*
D03*
X1017270Y211330D02*
G54D11*
D03*
X922053Y409438D02*
G54D11*
D03*
X871072Y409325D02*
G54D11*
D03*
X922053Y203063D02*
G54D11*
D03*
X871072Y202950D02*
G54D11*
D03*
X922053Y466588D02*
G54D11*
D03*
X871073Y466475D02*
G54D11*
D03*
X934753Y88763D02*
G54D11*
D03*
X883773Y88650D02*
G54D11*
D03*
X1060751Y499950D02*
G54D11*
D03*
X984501Y500000D02*
G54D11*
D03*
X1073451Y55450D02*
G54D11*
D03*
X997201Y55500D02*
G54D11*
D03*
X1188720Y544830D02*
G54D11*
D03*
X1188720Y481330D02*
G54D11*
D03*
X1188720Y81280D02*
G54D11*
D03*
X1188720Y17780D02*
G54D11*
D03*
X1300020Y506730D02*
G54D11*
D03*
X1264920Y506730D02*
G54D11*
D03*
X1312720Y62230D02*
G54D11*
D03*
X1277620Y62230D02*
G54D11*
D03*
X1457779Y654552D02*
G54D11*
D03*
X1483279Y654552D02*
G54D11*
D03*
X1359113Y471935D02*
G54D11*
D03*
X1359163Y548185D02*
G54D11*
D03*
X1303020Y328930D02*
G54D11*
D03*
X1303020Y227330D02*
G54D11*
D03*
X1404620Y328930D02*
G54D11*
D03*
X1404620Y227330D02*
G54D11*
D03*
X744220Y354330D02*
G54D11*
D03*
X883920Y354330D02*
G54D11*
D03*
X883920Y265430D02*
G54D11*
D03*
X883920Y309880D02*
G54D11*
D03*
X1546679Y654552D02*
G54D11*
D03*
X1572179Y654552D02*
G54D11*
D03*
X1322070Y663830D02*
G54D11*
D03*
X1252833Y608055D02*
G54D11*
D03*
X1207770Y600330D02*
G54D11*
D03*
X1113133Y614405D02*
G54D11*
D03*
X1404620Y227330D02*
G54D11*
D03*
X1300020Y506730D02*
G54D11*
D03*
X1359113Y471935D02*
G54D11*
D03*
X1312720Y62230D02*
G54D11*
D03*
X744220Y265430D02*
G54D11*
D03*
X883920Y309880D02*
G54D11*
D03*
X1458570Y332080D02*
G54D10*
D03*
X1509370Y332080D02*
G54D10*
D03*
X1483970Y306680D02*
G54D10*
D03*
X1509370Y281280D02*
G54D10*
D03*
X1458570Y281280D02*
G54D10*
D03*
X744220Y309880D02*
G54D11*
D03*
X1252833Y608055D02*
G54D11*
D03*
X1113133Y614405D02*
G54D11*
D03*
X1359113Y471935D02*
G54D11*
D03*
X1371813Y14735D02*
G54D11*
D03*
X1371863Y90985D02*
G54D11*
D03*
X1371813Y14735D02*
G54D11*
D03*
X1017270Y160530D02*
G54D11*
D03*
X1017270Y344680D02*
G54D11*
D03*
X172935Y887069D02*
G54D12*
D03*
X172935Y861669D02*
G54D12*
D03*
X172935Y836269D02*
G54D12*
D03*
X172935Y810869D02*
G54D12*
D03*
X172935Y785469D02*
G54D12*
D03*
X172935Y760069D02*
G54D12*
D03*
X172935Y734669D02*
G54D12*
D03*
X172935Y709269D02*
G54D12*
D03*
X172935Y683869D02*
G54D12*
D03*
X172935Y658469D02*
G54D12*
D03*
X172935Y633069D02*
G54D12*
D03*
X172935Y607669D02*
G54D12*
D03*
X172935Y582269D02*
G54D12*
D03*
X172935Y556869D02*
G54D12*
D03*
X172935Y531469D02*
G54D12*
D03*
X325335Y887069D02*
G54D12*
D03*
X325335Y861669D02*
G54D12*
D03*
X325335Y836269D02*
G54D12*
D03*
X325335Y810869D02*
G54D12*
D03*
X325335Y785469D02*
G54D12*
D03*
X325335Y760069D02*
G54D12*
D03*
X325335Y734669D02*
G54D12*
D03*
X325335Y709269D02*
G54D12*
D03*
X325335Y683869D02*
G54D12*
D03*
X325335Y658469D02*
G54D12*
D03*
X325335Y633069D02*
G54D12*
D03*
X325335Y607669D02*
G54D12*
D03*
X325335Y582269D02*
G54D12*
D03*
X325335Y556869D02*
G54D12*
D03*
X325335Y531469D02*
G54D12*
D03*
X325494Y912310D02*
G54D13*
D03*
X173094Y912310D02*
G54D13*
D03*
X274281Y886053D02*
G54D12*
D03*
X274281Y911453D02*
G54D12*
D03*
X248881Y886053D02*
G54D12*
D03*
X248881Y911453D02*
G54D12*
D03*
X223481Y886053D02*
G54D12*
D03*
X223481Y911453D02*
G54D12*
D03*
X378034Y755499D02*
G54D11*
D03*
X378034Y831699D02*
G54D11*
D03*
X380609Y950624D02*
G54D11*
D03*
X380609Y925124D02*
G54D11*
D03*
X381791Y716234D02*
G54D11*
D03*
X381904Y665253D02*
G54D11*
D03*
X378034Y615799D02*
G54D11*
D03*
X378034Y514199D02*
G54D11*
D03*
X430159Y549614D02*
G54D11*
D03*
X430047Y600594D02*
G54D11*
D03*
X432909Y474882D02*
G54D11*
D03*
X381929Y474770D02*
G54D11*
D03*
X381904Y665253D02*
G54D11*
D03*
X430047Y600594D02*
G54D11*
D03*
X381929Y474770D02*
G54D11*
D03*
X172935Y810869D02*
G54D11*
D03*
X325335Y861669D02*
G54D11*
D03*
X515620Y633729D02*
G54D14*
D03*
X591820Y633730D02*
G54D14*
D03*
X515620Y557530D02*
G54D14*
D03*
X515620Y506730D02*
G54D14*
D03*
X515620Y455930D02*
G54D14*
D03*
X591820Y557530D02*
G54D14*
D03*
X591820Y506730D02*
G54D14*
D03*
X591820Y455930D02*
G54D14*
D03*
X502920Y976630D02*
G54D14*
D03*
X579120Y976630D02*
G54D14*
D03*
X502920Y900430D02*
G54D14*
D03*
X502920Y849629D02*
G54D14*
D03*
X502920Y798830D02*
G54D14*
D03*
X579120Y900430D02*
G54D14*
D03*
X579120Y849630D02*
G54D14*
D03*
X579120Y798830D02*
G54D14*
D03*
X756920Y633730D02*
G54D14*
D03*
X833120Y633730D02*
G54D14*
D03*
X756920Y557530D02*
G54D14*
D03*
X756920Y506730D02*
G54D14*
D03*
X756920Y455930D02*
G54D14*
D03*
X833120Y557530D02*
G54D14*
D03*
X833120Y506730D02*
G54D14*
D03*
X833120Y455930D02*
G54D14*
D03*
X756920Y976630D02*
G54D14*
D03*
X833120Y976630D02*
G54D14*
D03*
X756920Y900430D02*
G54D14*
D03*
X756920Y849630D02*
G54D14*
D03*
X756920Y798830D02*
G54D14*
D03*
X833120Y900430D02*
G54D14*
D03*
X833120Y849630D02*
G54D14*
D03*
X833120Y798830D02*
G54D14*
D03*
X1373255Y837165D02*
G54D14*
D03*
X1373254Y913365D02*
G54D14*
D03*
X1449455Y837165D02*
G54D14*
D03*
X1500255Y837165D02*
G54D14*
D03*
X1551055Y837165D02*
G54D14*
D03*
X1449455Y913366D02*
G54D14*
D03*
X1500255Y913365D02*
G54D14*
D03*
X1551055Y913365D02*
G54D14*
D03*
X916055Y830815D02*
G54D14*
D03*
X916055Y907016D02*
G54D14*
D03*
X992255Y830816D02*
G54D14*
D03*
X1043055Y830816D02*
G54D14*
D03*
X1093855Y830815D02*
G54D14*
D03*
X992255Y907016D02*
G54D14*
D03*
X1043055Y907016D02*
G54D14*
D03*
X1093855Y907016D02*
G54D14*
D03*
X471057Y752617D02*
G54D11*
D03*
X534557Y752617D02*
G54D11*
D03*
X502807Y692292D02*
G54D11*
D03*
X579120Y595630D02*
G54D11*
D03*
X252070Y230480D02*
G54D10*
D03*
X302870Y230480D02*
G54D10*
D03*
X277470Y205080D02*
G54D10*
D03*
X302870Y179680D02*
G54D10*
D03*
X252070Y179680D02*
G54D10*
D03*
X564280Y750826D02*
G54D11*
D03*
X627781Y750826D02*
G54D11*
D03*
X596030Y690501D02*
G54D11*
D03*
X627781Y750826D02*
G54D11*
D03*
X502807Y692292D02*
G54D11*
D03*
X699657Y752617D02*
G54D11*
D03*
X763157Y752617D02*
G54D11*
D03*
X731407Y692292D02*
G54D11*
D03*
X792880Y750826D02*
G54D11*
D03*
X856381Y750826D02*
G54D11*
D03*
X824630Y690501D02*
G54D11*
D03*
X824630Y690501D02*
G54D11*
D03*
X731407Y692292D02*
G54D11*
D03*
X1144158Y854217D02*
G54D11*
D03*
X1207658Y854217D02*
G54D11*
D03*
X1175908Y793892D02*
G54D11*
D03*
X1237380Y852426D02*
G54D11*
D03*
X1300880Y852426D02*
G54D11*
D03*
X1269130Y792101D02*
G54D11*
D03*
X1300881Y852426D02*
G54D11*
D03*
X1175908Y793892D02*
G54D11*
D03*
X172935Y810869D02*
G54D15*
D03*
X617740Y882548D02*
G54D16*
D03*
X617740Y984148D02*
G54D16*
D03*
X618565Y790638D02*
G54D11*
D03*
X618453Y841619D02*
G54D11*
D03*
X617740Y882548D02*
G54D11*
D03*
X617740Y882548D02*
G54D15*
D03*
X618565Y790638D02*
G54D15*
D03*
X719340Y882548D02*
G54D16*
D03*
X719340Y984148D02*
G54D16*
D03*
X720165Y790638D02*
G54D11*
D03*
X720053Y841619D02*
G54D11*
D03*
X719340Y882548D02*
G54D11*
D03*
X719340Y882548D02*
G54D15*
D03*
X720165Y790638D02*
G54D15*
D03*
X630440Y552348D02*
G54D16*
D03*
X630440Y653948D02*
G54D16*
D03*
X631265Y460438D02*
G54D11*
D03*
X631153Y511418D02*
G54D11*
D03*
X630440Y552348D02*
G54D11*
D03*
X630440Y552348D02*
G54D15*
D03*
X631265Y460438D02*
G54D15*
D03*
X716442Y558285D02*
G54D16*
D03*
X716442Y659885D02*
G54D16*
D03*
X677897Y599725D02*
G54D11*
D03*
X677785Y650706D02*
G54D11*
D03*
X677897Y599725D02*
G54D15*
D03*
X716442Y558285D02*
G54D15*
D03*
X1003249Y959846D02*
G54D16*
D03*
X901649Y959846D02*
G54D16*
D03*
X1095159Y960671D02*
G54D11*
D03*
X1044179Y960559D02*
G54D11*
D03*
X1003249Y959846D02*
G54D11*
D03*
X1003249Y959846D02*
G54D15*
D03*
X1095159Y960671D02*
G54D15*
D03*
X1473149Y959846D02*
G54D16*
D03*
X1371549Y959846D02*
G54D16*
D03*
X1565059Y960671D02*
G54D11*
D03*
X1514079Y960559D02*
G54D11*
D03*
X1473149Y959846D02*
G54D11*
D03*
X1473149Y959846D02*
G54D15*
D03*
X1565059Y960671D02*
G54D15*
D03*
X579120Y976630D02*
G54D11*
D03*
X591820Y633730D02*
G54D11*
D03*
X833120Y976630D02*
G54D11*
D03*
X833120Y633730D02*
G54D11*
D03*
X916055Y830815D02*
G54D11*
D03*
X1373255Y837165D02*
G54D11*
D03*
X596030Y690501D02*
G54D11*
D03*
X1269130Y792101D02*
G54D11*
D03*
X922520Y665386D02*
G54D11*
D03*
X922633Y614405D02*
G54D11*
D03*
X45720Y960630D02*
G54D11*
D03*
X71120Y960630D02*
G54D11*
D03*
X71120Y960630D02*
G54D11*
D03*
X96520Y960630D02*
G54D11*
D03*
X147320Y960630D02*
G54D11*
D03*
X147320Y960630D02*
G54D11*
D03*
X172720Y960630D02*
G54D11*
D03*
X172720Y960630D02*
G54D11*
D03*
X198120Y960630D02*
G54D11*
D03*
X121920Y960630D02*
G54D11*
D03*
M02*
