%FSLAX34Y34*%
%MOMM*%
%LNCOPPER_TOP*%
G71*
G01*
%ADD10C,3.000*%
%ADD11C,2.800*%
%ADD12C,3.200*%
%ADD13C,1.400*%
%ADD14C,2.700*%
%ADD15C,2.450*%
%ADD16C,3.000*%
%ADD17C,2.800*%
%ADD18C,2.700*%
%ADD19C,1.100*%
%ADD20C,0.733*%
%ADD21C,0.667*%
%ADD22C,0.813*%
%ADD23C,0.767*%
%ADD24C,1.713*%
%ADD25C,1.360*%
%ADD26C,1.587*%
%ADD27C,1.627*%
%ADD28C,0.787*%
%ADD29C,1.447*%
%ADD30C,1.200*%
%ADD31C,2.200*%
%ADD32C,2.000*%
%ADD33C,0.600*%
%ADD34C,1.900*%
%ADD35C,1.650*%
%ADD36C,2.200*%
%ADD37C,2.000*%
%ADD38C,1.900*%
%ADD39C,0.300*%
%LPD*%
G36*
X0Y1000000D02*
X1600000Y1000000D01*
X1600000Y0D01*
X0Y0D01*
X0Y1000000D01*
G37*
%LPC*%
X252070Y344780D02*
G54D10*
D03*
X302870Y344780D02*
G54D10*
D03*
X277470Y319380D02*
G54D10*
D03*
X302870Y293980D02*
G54D10*
D03*
X252070Y293980D02*
G54D10*
D03*
X1347470Y663830D02*
G54D11*
D03*
X1322070Y663830D02*
G54D11*
D03*
X1296670Y663830D02*
G54D11*
D03*
X1252720Y659036D02*
G54D12*
D03*
X1252833Y608055D02*
G54D12*
D03*
X1064503Y671527D02*
G54D12*
D03*
X1064453Y595277D02*
G54D12*
D03*
X1113020Y665386D02*
G54D12*
D03*
X1113133Y614405D02*
G54D12*
D03*
X880353Y671527D02*
G54D12*
D03*
X880303Y595277D02*
G54D12*
D03*
X1017270Y370080D02*
G54D11*
D03*
X1017270Y395480D02*
G54D11*
D03*
X1017270Y185930D02*
G54D11*
D03*
X1017270Y211330D02*
G54D11*
D03*
X922053Y409438D02*
G54D12*
D03*
X871072Y409325D02*
G54D12*
D03*
X922053Y203063D02*
G54D12*
D03*
X871072Y202950D02*
G54D12*
D03*
X922053Y466588D02*
G54D12*
D03*
X871073Y466475D02*
G54D12*
D03*
X934753Y88763D02*
G54D12*
D03*
X883773Y88650D02*
G54D12*
D03*
X1060751Y499950D02*
G54D12*
D03*
X984501Y500000D02*
G54D12*
D03*
X1073451Y55450D02*
G54D12*
D03*
X997201Y55500D02*
G54D12*
D03*
X1188720Y544830D02*
G54D11*
D03*
X1188720Y481330D02*
G54D11*
D03*
X1188720Y81280D02*
G54D11*
D03*
X1188720Y17780D02*
G54D11*
D03*
X1300020Y506730D02*
G54D11*
D03*
X1264920Y506730D02*
G54D11*
D03*
X1312720Y62230D02*
G54D11*
D03*
X1277620Y62230D02*
G54D11*
D03*
X1457779Y654552D02*
G54D12*
D03*
X1483279Y654552D02*
G54D12*
D03*
X1359113Y471935D02*
G54D12*
D03*
X1359163Y548185D02*
G54D12*
D03*
X1303020Y328930D02*
G54D11*
D03*
X1303020Y227330D02*
G54D11*
D03*
X1404620Y328930D02*
G54D11*
D03*
X1404620Y227330D02*
G54D11*
D03*
X744220Y354330D02*
G54D11*
D03*
X883920Y354330D02*
G54D11*
D03*
X883920Y265430D02*
G54D11*
D03*
X883920Y309880D02*
G54D11*
D03*
X1546679Y654552D02*
G54D12*
D03*
X1572179Y654552D02*
G54D12*
D03*
X1322070Y663830D02*
G54D11*
D03*
X1252833Y608055D02*
G54D11*
D03*
X1207770Y600330D02*
G54D11*
D03*
X1113133Y614405D02*
G54D11*
D03*
X1404620Y227330D02*
G54D11*
D03*
X1300020Y506730D02*
G54D11*
D03*
X1359113Y471935D02*
G54D11*
D03*
X1312720Y62230D02*
G54D11*
D03*
X744220Y265430D02*
G54D11*
D03*
X883920Y309880D02*
G54D11*
D03*
X1458570Y332080D02*
G54D10*
D03*
X1509370Y332080D02*
G54D10*
D03*
X1483970Y306680D02*
G54D10*
D03*
X1509370Y281280D02*
G54D10*
D03*
X1458570Y281280D02*
G54D10*
D03*
X744220Y309880D02*
G54D11*
D03*
X1252833Y608055D02*
G54D11*
D03*
X1113133Y614405D02*
G54D11*
D03*
X1359113Y471935D02*
G54D11*
D03*
G54D13*
X1060751Y499950D02*
X1061720Y500380D01*
X1029970Y468630D01*
X1029970Y386080D01*
X1017270Y373380D01*
X1017270Y367030D01*
X1017270Y370080D01*
X1371813Y14735D02*
G54D12*
D03*
X1371863Y90985D02*
G54D12*
D03*
X1371813Y14735D02*
G54D11*
D03*
X1017270Y160530D02*
G54D11*
D03*
G54D13*
X1303020Y328930D02*
X1264920Y290830D01*
X1074420Y290830D01*
X1052170Y311430D01*
X1049020Y341630D01*
X1017270Y367030D01*
X1017270Y370080D01*
G54D13*
X1303020Y227330D02*
X1271270Y271780D01*
X1061720Y265430D01*
X1017270Y182880D01*
X1017270Y185930D01*
X1017270Y344680D02*
G54D11*
D03*
G54D13*
X1073451Y55450D02*
X1074420Y55880D01*
X1042670Y87630D01*
X1042670Y163830D01*
X1023620Y182880D01*
X1017270Y182880D01*
X1017270Y185930D01*
X172935Y887069D02*
G54D14*
D03*
X172935Y861669D02*
G54D14*
D03*
X172935Y836269D02*
G54D14*
D03*
X172935Y810869D02*
G54D14*
D03*
X172935Y785469D02*
G54D14*
D03*
X172935Y760069D02*
G54D14*
D03*
X172935Y734669D02*
G54D14*
D03*
X172935Y709269D02*
G54D14*
D03*
X172935Y683869D02*
G54D14*
D03*
X172935Y658469D02*
G54D14*
D03*
X172935Y633069D02*
G54D14*
D03*
X172935Y607669D02*
G54D14*
D03*
X172935Y582269D02*
G54D14*
D03*
X172935Y556869D02*
G54D14*
D03*
X172935Y531469D02*
G54D14*
D03*
X325335Y887069D02*
G54D14*
D03*
X325335Y861669D02*
G54D14*
D03*
X325335Y836269D02*
G54D14*
D03*
X325335Y810869D02*
G54D14*
D03*
X325335Y785469D02*
G54D14*
D03*
X325335Y760069D02*
G54D14*
D03*
X325335Y734669D02*
G54D14*
D03*
X325335Y709269D02*
G54D14*
D03*
X325335Y683869D02*
G54D14*
D03*
X325335Y658469D02*
G54D14*
D03*
X325335Y633069D02*
G54D14*
D03*
X325335Y607669D02*
G54D14*
D03*
X325335Y582269D02*
G54D14*
D03*
X325335Y556869D02*
G54D14*
D03*
X325335Y531469D02*
G54D14*
D03*
X325494Y912310D02*
G54D15*
D03*
X173094Y912310D02*
G54D15*
D03*
X274281Y886053D02*
G54D14*
D03*
X274281Y911453D02*
G54D14*
D03*
X248881Y886053D02*
G54D14*
D03*
X248881Y911453D02*
G54D14*
D03*
X223481Y886053D02*
G54D14*
D03*
X223481Y911453D02*
G54D14*
D03*
X378034Y755499D02*
G54D11*
D03*
X378034Y831699D02*
G54D11*
D03*
X380609Y950624D02*
G54D12*
D03*
X380609Y925124D02*
G54D12*
D03*
X381791Y716234D02*
G54D12*
D03*
X381904Y665253D02*
G54D12*
D03*
X378034Y615799D02*
G54D11*
D03*
X378034Y514199D02*
G54D11*
D03*
X430159Y549614D02*
G54D12*
D03*
X430047Y600594D02*
G54D12*
D03*
X432909Y474882D02*
G54D12*
D03*
X381929Y474770D02*
G54D12*
D03*
X381904Y665253D02*
G54D11*
D03*
X430047Y600594D02*
G54D11*
D03*
X381929Y474770D02*
G54D11*
D03*
X172935Y810869D02*
G54D11*
D03*
X325335Y861669D02*
G54D11*
D03*
G54D13*
X430159Y549613D02*
X428884Y551029D01*
X403484Y576429D01*
X403484Y671679D01*
X397134Y678029D01*
X397134Y836779D01*
X346334Y887579D01*
X327284Y887579D01*
X325335Y887069D01*
X515620Y633729D02*
G54D16*
D03*
X591820Y633730D02*
G54D16*
D03*
X515620Y557530D02*
G54D16*
D03*
X515620Y506730D02*
G54D16*
D03*
X515620Y455930D02*
G54D16*
D03*
X591820Y557530D02*
G54D16*
D03*
X591820Y506730D02*
G54D16*
D03*
X591820Y455930D02*
G54D16*
D03*
X502920Y976630D02*
G54D16*
D03*
X579120Y976630D02*
G54D16*
D03*
X502920Y900430D02*
G54D16*
D03*
X502920Y849629D02*
G54D16*
D03*
X502920Y798830D02*
G54D16*
D03*
X579120Y900430D02*
G54D16*
D03*
X579120Y849630D02*
G54D16*
D03*
X579120Y798830D02*
G54D16*
D03*
X756920Y633730D02*
G54D16*
D03*
X833120Y633730D02*
G54D16*
D03*
X756920Y557530D02*
G54D16*
D03*
X756920Y506730D02*
G54D16*
D03*
X756920Y455930D02*
G54D16*
D03*
X833120Y557530D02*
G54D16*
D03*
X833120Y506730D02*
G54D16*
D03*
X833120Y455930D02*
G54D16*
D03*
X756920Y976630D02*
G54D16*
D03*
X833120Y976630D02*
G54D16*
D03*
X756920Y900430D02*
G54D16*
D03*
X756920Y849630D02*
G54D16*
D03*
X756920Y798830D02*
G54D16*
D03*
X833120Y900430D02*
G54D16*
D03*
X833120Y849630D02*
G54D16*
D03*
X833120Y798830D02*
G54D16*
D03*
X1373255Y837165D02*
G54D16*
D03*
X1373254Y913365D02*
G54D16*
D03*
X1449455Y837165D02*
G54D16*
D03*
X1500255Y837165D02*
G54D16*
D03*
X1551055Y837165D02*
G54D16*
D03*
X1449455Y913366D02*
G54D16*
D03*
X1500255Y913365D02*
G54D16*
D03*
X1551055Y913365D02*
G54D16*
D03*
X916055Y830815D02*
G54D16*
D03*
X916055Y907016D02*
G54D16*
D03*
X992255Y830816D02*
G54D16*
D03*
X1043055Y830816D02*
G54D16*
D03*
X1093855Y830815D02*
G54D16*
D03*
X992255Y907016D02*
G54D16*
D03*
X1043055Y907016D02*
G54D16*
D03*
X1093855Y907016D02*
G54D16*
D03*
X471057Y752617D02*
G54D11*
D03*
X534557Y752617D02*
G54D11*
D03*
X502807Y692292D02*
G54D11*
D03*
X579120Y595630D02*
G54D11*
D03*
X252070Y230480D02*
G54D10*
D03*
X302870Y230480D02*
G54D10*
D03*
X277470Y205080D02*
G54D10*
D03*
X302870Y179680D02*
G54D10*
D03*
X252070Y179680D02*
G54D10*
D03*
G54D13*
X302870Y230480D02*
X299720Y230380D01*
X426720Y357380D01*
X744220Y357380D01*
X744220Y354330D01*
G54D13*
X277470Y205080D02*
X274320Y204980D01*
X337820Y268480D01*
X744220Y268480D01*
X744220Y265430D01*
G54D13*
X302870Y230480D02*
X299720Y230380D01*
X248920Y230380D01*
X252070Y230480D01*
G54D13*
X252070Y179680D02*
X248920Y179580D01*
X248920Y230380D01*
X252070Y230480D01*
G54D13*
X252070Y179680D02*
X248920Y179580D01*
X299720Y179580D01*
X302870Y179680D01*
X564280Y750826D02*
G54D11*
D03*
X627781Y750826D02*
G54D11*
D03*
X596030Y690501D02*
G54D11*
D03*
X627781Y750826D02*
G54D11*
D03*
X502807Y692292D02*
G54D11*
D03*
X699657Y752617D02*
G54D11*
D03*
X763157Y752617D02*
G54D11*
D03*
X731407Y692292D02*
G54D11*
D03*
X792880Y750826D02*
G54D11*
D03*
X856381Y750826D02*
G54D11*
D03*
X824630Y690501D02*
G54D11*
D03*
X824630Y690501D02*
G54D11*
D03*
X731407Y692292D02*
G54D11*
D03*
X1144158Y854217D02*
G54D11*
D03*
X1207658Y854217D02*
G54D11*
D03*
X1175908Y793892D02*
G54D11*
D03*
X1237380Y852426D02*
G54D11*
D03*
X1300880Y852426D02*
G54D11*
D03*
X1269130Y792101D02*
G54D11*
D03*
X1300881Y852426D02*
G54D11*
D03*
X1175908Y793892D02*
G54D11*
D03*
X172935Y810869D02*
G54D17*
D03*
X617740Y882548D02*
G54D18*
D03*
X617740Y984148D02*
G54D18*
D03*
X618565Y790638D02*
G54D12*
D03*
X618453Y841619D02*
G54D12*
D03*
X617740Y882548D02*
G54D11*
D03*
X617740Y882548D02*
G54D17*
D03*
X618565Y790638D02*
G54D17*
D03*
X719340Y882548D02*
G54D18*
D03*
X719340Y984148D02*
G54D18*
D03*
X720165Y790638D02*
G54D12*
D03*
X720053Y841619D02*
G54D12*
D03*
X719340Y882548D02*
G54D11*
D03*
X719340Y882548D02*
G54D17*
D03*
X720165Y790638D02*
G54D17*
D03*
X630440Y552348D02*
G54D18*
D03*
X630440Y653948D02*
G54D18*
D03*
X631265Y460438D02*
G54D12*
D03*
X631153Y511418D02*
G54D12*
D03*
X630440Y552348D02*
G54D11*
D03*
X630440Y552348D02*
G54D17*
D03*
X631265Y460438D02*
G54D17*
D03*
X716442Y558285D02*
G54D18*
D03*
X716442Y659885D02*
G54D18*
D03*
X677897Y599725D02*
G54D12*
D03*
X677785Y650706D02*
G54D12*
D03*
X677897Y599725D02*
G54D17*
D03*
X716442Y558285D02*
G54D17*
D03*
X1003249Y959846D02*
G54D18*
D03*
X901649Y959846D02*
G54D18*
D03*
X1095159Y960671D02*
G54D12*
D03*
X1044179Y960559D02*
G54D12*
D03*
X1003249Y959846D02*
G54D11*
D03*
X1003249Y959846D02*
G54D17*
D03*
X1095159Y960671D02*
G54D17*
D03*
X1473149Y959846D02*
G54D18*
D03*
X1371549Y959846D02*
G54D18*
D03*
X1565059Y960671D02*
G54D12*
D03*
X1514079Y960559D02*
G54D12*
D03*
X1473149Y959846D02*
G54D11*
D03*
X1473149Y959846D02*
G54D17*
D03*
X1565059Y960671D02*
G54D17*
D03*
X579120Y976630D02*
G54D11*
D03*
X591820Y633730D02*
G54D11*
D03*
X833120Y976630D02*
G54D11*
D03*
X833120Y633730D02*
G54D11*
D03*
X916055Y830815D02*
G54D11*
D03*
X1373255Y837165D02*
G54D11*
D03*
X596030Y690501D02*
G54D11*
D03*
X1269130Y792101D02*
G54D11*
D03*
X922520Y665386D02*
G54D12*
D03*
X922633Y614405D02*
G54D12*
D03*
G54D19*
X471057Y752617D02*
X471170Y751080D01*
X483870Y738380D01*
X483870Y687580D01*
X490220Y681230D01*
X490220Y674880D01*
X496570Y668530D01*
X496570Y624080D01*
X515620Y605030D01*
X515620Y560580D01*
X515620Y557530D01*
G54D19*
X564280Y750826D02*
X566420Y751080D01*
X560070Y744730D01*
X560070Y585980D01*
X585470Y560580D01*
X591820Y560580D01*
X591820Y557530D01*
G54D19*
X630440Y653948D02*
X629920Y655830D01*
X610870Y636780D01*
X610870Y547880D01*
X604520Y541530D01*
X579120Y541530D01*
X521970Y598680D01*
X521970Y611380D01*
X515620Y617730D01*
X515620Y636780D01*
X515620Y633729D01*
G54D19*
X534557Y752617D02*
X534670Y751080D01*
X579120Y795530D01*
X579120Y801880D01*
X579120Y798830D01*
G54D19*
X627781Y750826D02*
X629920Y751080D01*
X579120Y801880D01*
X579120Y798830D01*
G54D19*
X630440Y653948D02*
X629920Y655830D01*
X642620Y668530D01*
X642620Y795530D01*
X636270Y801880D01*
X636270Y890780D01*
X617220Y909830D01*
X617220Y986030D01*
X617740Y984148D01*
G54D19*
X618453Y841619D02*
X617220Y839980D01*
X636270Y859030D01*
X636270Y890780D01*
X617220Y909830D01*
X617220Y986030D01*
X617740Y984148D01*
G54D19*
X579120Y900430D02*
X579120Y903480D01*
X521970Y846330D01*
X521970Y839980D01*
X496570Y814580D01*
X490220Y814580D01*
X452120Y776480D01*
X452120Y744730D01*
X477520Y719330D01*
X477520Y681230D01*
X483870Y674880D01*
X483870Y668530D01*
X490220Y662180D01*
X490220Y617730D01*
X496570Y611380D01*
X496570Y547880D01*
X515620Y528830D01*
X636270Y528830D01*
X687070Y579630D01*
X1074420Y579630D01*
X1093470Y598680D01*
X1093470Y624080D01*
X1131570Y662180D01*
X1252220Y662180D01*
X1252720Y659036D01*
G54D19*
X763157Y752617D02*
X763270Y751080D01*
X814070Y801880D01*
X833120Y801880D01*
X833120Y798830D01*
G54D19*
X856381Y750826D02*
X858520Y751080D01*
X833120Y776480D01*
X833120Y801880D01*
X833120Y798830D01*
G54D19*
X792880Y750826D02*
X795020Y751080D01*
X864870Y681230D01*
X864870Y662180D01*
X877570Y649480D01*
X928370Y649480D01*
X934720Y655830D01*
X1074420Y655830D01*
X1099820Y681230D01*
X1118870Y681230D01*
X1125220Y674880D01*
X1258570Y674880D01*
X1271270Y662180D01*
X1271270Y655830D01*
X1239520Y624080D01*
X1201420Y624080D01*
X1137920Y560580D01*
X833120Y560580D01*
X833120Y557530D01*
G54D19*
X756920Y976630D02*
X756920Y979680D01*
X775970Y960630D01*
X775970Y789180D01*
X744220Y757430D01*
X744220Y744730D01*
X756920Y732030D01*
X756920Y636780D01*
X756920Y633730D01*
G54D19*
X833120Y900430D02*
X833120Y903480D01*
X896620Y839980D01*
X896620Y820930D01*
X1029970Y687580D01*
X1125220Y687580D01*
X1131570Y681230D01*
X1264920Y681230D01*
X1277620Y668530D01*
X1277620Y649480D01*
X1271270Y643130D01*
X1271270Y592330D01*
X1239520Y560580D01*
X1182370Y560580D01*
X1163320Y541530D01*
X820420Y541530D01*
X814070Y547880D01*
X814070Y566930D01*
X890270Y643130D01*
X934720Y643130D01*
X941070Y649480D01*
X1118870Y649480D01*
X1131570Y662180D01*
X1252220Y662180D01*
X1252720Y659036D01*
G54D19*
X992255Y830816D02*
X991870Y833630D01*
X1144270Y681230D01*
X1264920Y681230D01*
X1277620Y668530D01*
X1277620Y649480D01*
X1271270Y643130D01*
X1271270Y592330D01*
X1239520Y560580D01*
X1182370Y560580D01*
X1163320Y541530D01*
X820420Y541530D01*
X814070Y547880D01*
X814070Y566930D01*
X826770Y579630D01*
X890270Y579630D01*
X909320Y598680D01*
X928370Y598680D01*
X979170Y649480D01*
X1118870Y649480D01*
X1131570Y662180D01*
X1252220Y662180D01*
X1252720Y659036D01*
G54D19*
X901649Y959846D02*
X902970Y960630D01*
X915670Y947930D01*
X915670Y909830D01*
X916055Y907016D01*
G54D19*
X1044179Y960559D02*
X1042670Y960630D01*
X1023620Y979680D01*
X991870Y979680D01*
X972820Y960630D01*
X902970Y960630D01*
X901649Y959846D01*
G54D19*
X617740Y984148D02*
X617220Y986030D01*
X585470Y954280D01*
X572770Y954280D01*
X547370Y979680D01*
X502920Y979680D01*
X502920Y976630D01*
G54D19*
X719340Y984148D02*
X718820Y986030D01*
X725170Y979680D01*
X756920Y979680D01*
X756920Y976630D01*
G54D19*
X515620Y455930D02*
X515620Y458980D01*
X579120Y395480D01*
X579120Y376430D01*
X585470Y370080D01*
X750570Y370080D01*
X839470Y281180D01*
X1271270Y281180D01*
X1303020Y312930D01*
X1309370Y312930D01*
X1334770Y338330D01*
X1334770Y478030D01*
X1341120Y484380D01*
X1341120Y554230D01*
X1366520Y579630D01*
X1366520Y668530D01*
X1144270Y890780D01*
X909320Y890780D01*
X883920Y916180D01*
X820420Y916180D01*
X814070Y909830D01*
X814070Y839980D01*
X839470Y814580D01*
X845820Y814580D01*
X877570Y782830D01*
X877570Y668530D01*
X880353Y671527D01*
G54D19*
X756920Y455930D02*
X756920Y458980D01*
X883920Y331980D01*
X890270Y331980D01*
X941070Y281180D01*
X1271270Y281180D01*
X1303020Y312930D01*
X1309370Y312930D01*
X1334770Y338330D01*
X1334770Y478030D01*
X1341120Y484380D01*
X1341120Y554230D01*
X1366520Y579630D01*
X1366520Y668530D01*
X1144270Y890780D01*
X909320Y890780D01*
X883920Y916180D01*
X820420Y916180D01*
X814070Y909830D01*
X814070Y839980D01*
X839470Y814580D01*
X845820Y814580D01*
X877570Y782830D01*
X877570Y668530D01*
X880353Y671527D01*
G54D19*
X922520Y665386D02*
X922020Y668530D01*
X877570Y668530D01*
X880353Y671527D01*
G54D19*
X916055Y907016D02*
X915670Y909830D01*
X941070Y935230D01*
X1493520Y935230D01*
X1499870Y928880D01*
X1512570Y928880D01*
X1518920Y922530D01*
X1518920Y903480D01*
X1512570Y897130D01*
X1442720Y897130D01*
X1423670Y916180D01*
X1372870Y916180D01*
X1373254Y913365D01*
G54D19*
X1551055Y913365D02*
X1550670Y916180D01*
X1525270Y890780D01*
X909320Y890780D01*
X883920Y916180D01*
X820420Y916180D01*
X814070Y909830D01*
X814070Y890780D01*
X839470Y865380D01*
X845820Y865380D01*
X877570Y833630D01*
X877570Y668530D01*
X880353Y671527D01*
X45720Y960630D02*
G54D11*
D03*
X71120Y960630D02*
G54D11*
D03*
X71120Y960630D02*
G54D11*
D03*
X96520Y960630D02*
G54D11*
D03*
X147320Y960630D02*
G54D11*
D03*
X147320Y960630D02*
G54D11*
D03*
X172720Y960630D02*
G54D11*
D03*
X172720Y960630D02*
G54D11*
D03*
X198120Y960630D02*
G54D11*
D03*
G54D19*
X45720Y960630D02*
X77470Y928880D01*
X179070Y928880D01*
X204470Y903480D01*
X204470Y884430D01*
X306070Y782830D01*
X325120Y782830D01*
X325335Y785469D01*
G54D19*
X71120Y960630D02*
X52070Y979680D01*
X39370Y979680D01*
X26670Y966980D01*
X26670Y954280D01*
X147320Y833630D01*
X147320Y585980D01*
X153670Y579630D01*
X153670Y528830D01*
X166370Y516130D01*
X179070Y516130D01*
X306070Y643130D01*
X306070Y738380D01*
X325120Y757430D01*
X325335Y760069D01*
G54D19*
X96520Y960630D02*
X71120Y986030D01*
X33020Y986030D01*
X20320Y973330D01*
X20320Y947930D01*
X140970Y827280D01*
X140970Y579630D01*
X147320Y573280D01*
X147320Y522480D01*
X160020Y509780D01*
X185420Y509780D01*
X191770Y516130D01*
X331470Y516130D01*
X344170Y528830D01*
X344170Y712980D01*
X325120Y732030D01*
X325335Y734669D01*
X121920Y960630D02*
G54D11*
D03*
%LPD*%
G54D20*
G36*
X248403Y344780D02*
X248403Y360280D01*
X255737Y360280D01*
X255737Y344780D01*
X248403Y344780D01*
G37*
G36*
X252070Y348447D02*
X267570Y348447D01*
X267570Y341113D01*
X252070Y341113D01*
X252070Y348447D01*
G37*
G36*
X255737Y344780D02*
X255737Y329280D01*
X248403Y329280D01*
X248403Y344780D01*
X255737Y344780D01*
G37*
G36*
X252070Y341113D02*
X236570Y341113D01*
X236570Y348447D01*
X252070Y348447D01*
X252070Y341113D01*
G37*
G54D20*
G36*
X299203Y344780D02*
X299203Y360280D01*
X306537Y360280D01*
X306537Y344780D01*
X299203Y344780D01*
G37*
G36*
X302870Y348447D02*
X318370Y348447D01*
X318370Y341113D01*
X302870Y341113D01*
X302870Y348447D01*
G37*
G36*
X306537Y344780D02*
X306537Y329280D01*
X299203Y329280D01*
X299203Y344780D01*
X306537Y344780D01*
G37*
G36*
X302870Y341113D02*
X287370Y341113D01*
X287370Y348447D01*
X302870Y348447D01*
X302870Y341113D01*
G37*
G54D20*
G36*
X299203Y293980D02*
X299203Y309480D01*
X306537Y309480D01*
X306537Y293980D01*
X299203Y293980D01*
G37*
G36*
X302870Y297647D02*
X318370Y297647D01*
X318370Y290313D01*
X302870Y290313D01*
X302870Y297647D01*
G37*
G36*
X306537Y293980D02*
X306537Y278480D01*
X299203Y278480D01*
X299203Y293980D01*
X306537Y293980D01*
G37*
G36*
X302870Y290313D02*
X287370Y290313D01*
X287370Y297647D01*
X302870Y297647D01*
X302870Y290313D01*
G37*
G54D20*
G36*
X248403Y293980D02*
X248403Y309480D01*
X255737Y309480D01*
X255737Y293980D01*
X248403Y293980D01*
G37*
G36*
X252070Y297647D02*
X267570Y297647D01*
X267570Y290313D01*
X252070Y290313D01*
X252070Y297647D01*
G37*
G36*
X255737Y293980D02*
X255737Y278480D01*
X248403Y278480D01*
X248403Y293980D01*
X255737Y293980D01*
G37*
G36*
X252070Y290313D02*
X236570Y290313D01*
X236570Y297647D01*
X252070Y297647D01*
X252070Y290313D01*
G37*
G54D21*
G36*
X1454446Y654552D02*
X1454446Y671052D01*
X1461112Y671052D01*
X1461112Y654552D01*
X1454446Y654552D01*
G37*
G54D22*
G54D21*
G36*
X1543346Y654552D02*
X1543346Y671052D01*
X1550012Y671052D01*
X1550012Y654552D01*
X1543346Y654552D01*
G37*
G54D22*
G54D23*
G36*
X1318237Y663830D02*
X1318237Y678330D01*
X1325903Y678330D01*
X1325903Y663830D01*
X1318237Y663830D01*
G37*
G36*
X1322070Y667663D02*
X1336570Y667663D01*
X1336570Y659997D01*
X1322070Y659997D01*
X1322070Y667663D01*
G37*
G36*
X1325903Y663830D02*
X1325903Y649330D01*
X1318237Y649330D01*
X1318237Y663830D01*
X1325903Y663830D01*
G37*
G36*
X1322070Y659997D02*
X1307570Y659997D01*
X1307570Y667663D01*
X1322070Y667663D01*
X1322070Y659997D01*
G37*
G54D23*
G36*
X1249000Y608055D02*
X1249000Y622555D01*
X1256666Y622555D01*
X1256666Y608055D01*
X1249000Y608055D01*
G37*
G36*
X1252833Y611889D02*
X1267333Y611889D01*
X1267333Y604222D01*
X1252833Y604222D01*
X1252833Y611889D01*
G37*
G36*
X1256666Y608055D02*
X1256666Y593555D01*
X1249000Y593555D01*
X1249000Y608055D01*
X1256666Y608055D01*
G37*
G36*
X1252833Y604222D02*
X1238333Y604222D01*
X1238333Y611889D01*
X1252833Y611889D01*
X1252833Y604222D01*
G37*
G54D23*
G36*
X1203937Y600330D02*
X1203937Y614830D01*
X1211603Y614830D01*
X1211603Y600330D01*
X1203937Y600330D01*
G37*
G36*
X1207770Y604163D02*
X1222270Y604163D01*
X1222270Y596497D01*
X1207770Y596497D01*
X1207770Y604163D01*
G37*
G36*
X1211603Y600330D02*
X1211603Y585830D01*
X1203937Y585830D01*
X1203937Y600330D01*
X1211603Y600330D01*
G37*
G36*
X1207770Y596497D02*
X1193270Y596497D01*
X1193270Y604163D01*
X1207770Y604163D01*
X1207770Y596497D01*
G37*
G54D23*
G36*
X1109300Y614405D02*
X1109300Y628905D01*
X1116966Y628905D01*
X1116966Y614405D01*
X1109300Y614405D01*
G37*
G36*
X1113133Y618239D02*
X1127633Y618239D01*
X1127633Y610572D01*
X1113133Y610572D01*
X1113133Y618239D01*
G37*
G36*
X1116966Y614405D02*
X1116966Y599905D01*
X1109300Y599905D01*
X1109300Y614405D01*
X1116966Y614405D01*
G37*
G36*
X1113133Y610572D02*
X1098633Y610572D01*
X1098633Y618239D01*
X1113133Y618239D01*
X1113133Y610572D01*
G37*
G54D23*
G36*
X1400787Y227330D02*
X1400787Y241830D01*
X1408453Y241830D01*
X1408453Y227330D01*
X1400787Y227330D01*
G37*
G36*
X1404620Y231163D02*
X1419120Y231163D01*
X1419120Y223497D01*
X1404620Y223497D01*
X1404620Y231163D01*
G37*
G36*
X1408453Y227330D02*
X1408453Y212830D01*
X1400787Y212830D01*
X1400787Y227330D01*
X1408453Y227330D01*
G37*
G36*
X1404620Y223497D02*
X1390120Y223497D01*
X1390120Y231163D01*
X1404620Y231163D01*
X1404620Y223497D01*
G37*
G54D23*
G36*
X1296186Y506730D02*
X1296186Y521230D01*
X1303853Y521230D01*
X1303853Y506730D01*
X1296186Y506730D01*
G37*
G36*
X1300020Y510563D02*
X1314520Y510563D01*
X1314520Y502897D01*
X1300020Y502897D01*
X1300020Y510563D01*
G37*
G36*
X1303853Y506730D02*
X1303853Y492230D01*
X1296186Y492230D01*
X1296186Y506730D01*
X1303853Y506730D01*
G37*
G36*
X1300020Y502897D02*
X1285520Y502897D01*
X1285520Y510563D01*
X1300020Y510563D01*
X1300020Y502897D01*
G37*
G54D23*
G36*
X1355280Y471935D02*
X1355280Y486435D01*
X1362946Y486435D01*
X1362946Y471935D01*
X1355280Y471935D01*
G37*
G36*
X1359113Y475768D02*
X1373613Y475768D01*
X1373613Y468102D01*
X1359113Y468102D01*
X1359113Y475768D01*
G37*
G36*
X1362946Y471935D02*
X1362946Y457435D01*
X1355280Y457435D01*
X1355280Y471935D01*
X1362946Y471935D01*
G37*
G36*
X1359113Y468102D02*
X1344613Y468102D01*
X1344613Y475768D01*
X1359113Y475768D01*
X1359113Y468102D01*
G37*
G54D23*
G36*
X1308887Y62230D02*
X1308887Y76730D01*
X1316553Y76730D01*
X1316553Y62230D01*
X1308887Y62230D01*
G37*
G36*
X1312720Y66063D02*
X1327220Y66063D01*
X1327220Y58397D01*
X1312720Y58397D01*
X1312720Y66063D01*
G37*
G36*
X1316553Y62230D02*
X1316553Y47730D01*
X1308887Y47730D01*
X1308887Y62230D01*
X1316553Y62230D01*
G37*
G36*
X1312720Y58397D02*
X1298220Y58397D01*
X1298220Y66063D01*
X1312720Y66063D01*
X1312720Y58397D01*
G37*
G54D23*
G36*
X880087Y309880D02*
X880087Y324380D01*
X887753Y324380D01*
X887753Y309880D01*
X880087Y309880D01*
G37*
G36*
X883920Y313713D02*
X898420Y313713D01*
X898420Y306047D01*
X883920Y306047D01*
X883920Y313713D01*
G37*
G36*
X887753Y309880D02*
X887753Y295380D01*
X880087Y295380D01*
X880087Y309880D01*
X887753Y309880D01*
G37*
G36*
X883920Y306047D02*
X869420Y306047D01*
X869420Y313713D01*
X883920Y313713D01*
X883920Y306047D01*
G37*
G54D20*
G36*
X1454903Y332080D02*
X1454903Y347580D01*
X1462237Y347580D01*
X1462237Y332080D01*
X1454903Y332080D01*
G37*
G36*
X1458570Y335747D02*
X1474070Y335747D01*
X1474070Y328413D01*
X1458570Y328413D01*
X1458570Y335747D01*
G37*
G36*
X1462237Y332080D02*
X1462237Y316580D01*
X1454903Y316580D01*
X1454903Y332080D01*
X1462237Y332080D01*
G37*
G36*
X1458570Y328413D02*
X1443070Y328413D01*
X1443070Y335747D01*
X1458570Y335747D01*
X1458570Y328413D01*
G37*
G54D20*
G36*
X1505703Y332080D02*
X1505703Y347580D01*
X1513037Y347580D01*
X1513037Y332080D01*
X1505703Y332080D01*
G37*
G36*
X1509370Y335747D02*
X1524870Y335747D01*
X1524870Y328413D01*
X1509370Y328413D01*
X1509370Y335747D01*
G37*
G36*
X1513037Y332080D02*
X1513037Y316580D01*
X1505703Y316580D01*
X1505703Y332080D01*
X1513037Y332080D01*
G37*
G36*
X1509370Y328413D02*
X1493870Y328413D01*
X1493870Y335747D01*
X1509370Y335747D01*
X1509370Y328413D01*
G37*
G54D20*
G36*
X1505703Y281280D02*
X1505703Y296780D01*
X1513037Y296780D01*
X1513037Y281280D01*
X1505703Y281280D01*
G37*
G36*
X1509370Y284947D02*
X1524870Y284947D01*
X1524870Y277613D01*
X1509370Y277613D01*
X1509370Y284947D01*
G37*
G36*
X1513037Y281280D02*
X1513037Y265780D01*
X1505703Y265780D01*
X1505703Y281280D01*
X1513037Y281280D01*
G37*
G36*
X1509370Y277613D02*
X1493870Y277613D01*
X1493870Y284947D01*
X1509370Y284947D01*
X1509370Y277613D01*
G37*
G54D20*
G36*
X1454903Y281280D02*
X1454903Y296780D01*
X1462237Y296780D01*
X1462237Y281280D01*
X1454903Y281280D01*
G37*
G36*
X1458570Y284947D02*
X1474070Y284947D01*
X1474070Y277613D01*
X1458570Y277613D01*
X1458570Y284947D01*
G37*
G36*
X1462237Y281280D02*
X1462237Y265780D01*
X1454903Y265780D01*
X1454903Y281280D01*
X1462237Y281280D01*
G37*
G36*
X1458570Y277613D02*
X1443070Y277613D01*
X1443070Y284947D01*
X1458570Y284947D01*
X1458570Y277613D01*
G37*
G54D23*
G36*
X740387Y309880D02*
X740387Y324380D01*
X748053Y324380D01*
X748053Y309880D01*
X740387Y309880D01*
G37*
G36*
X744220Y313713D02*
X758720Y313713D01*
X758720Y306047D01*
X744220Y306047D01*
X744220Y313713D01*
G37*
G36*
X748053Y309880D02*
X748053Y295380D01*
X740387Y295380D01*
X740387Y309880D01*
X748053Y309880D01*
G37*
G36*
X744220Y306047D02*
X729720Y306047D01*
X729720Y313713D01*
X744220Y313713D01*
X744220Y306047D01*
G37*
G54D24*
G36*
X1244266Y608055D02*
X1244266Y622555D01*
X1261400Y622555D01*
X1261400Y608055D01*
X1244266Y608055D01*
G37*
G36*
X1252833Y616622D02*
X1267333Y616622D01*
X1267333Y599488D01*
X1252833Y599488D01*
X1252833Y616622D01*
G37*
G36*
X1261400Y608055D02*
X1261400Y593555D01*
X1244266Y593555D01*
X1244266Y608055D01*
X1261400Y608055D01*
G37*
G36*
X1252833Y599488D02*
X1238333Y599488D01*
X1238333Y616622D01*
X1252833Y616622D01*
X1252833Y599488D01*
G37*
G54D24*
G36*
X1104566Y614405D02*
X1104566Y628905D01*
X1121700Y628905D01*
X1121700Y614405D01*
X1104566Y614405D01*
G37*
G36*
X1113133Y622972D02*
X1127633Y622972D01*
X1127633Y605839D01*
X1113133Y605839D01*
X1113133Y622972D01*
G37*
G36*
X1121700Y614405D02*
X1121700Y599905D01*
X1104566Y599905D01*
X1104566Y614405D01*
X1121700Y614405D01*
G37*
G36*
X1113133Y605839D02*
X1098633Y605839D01*
X1098633Y622972D01*
X1113133Y622972D01*
X1113133Y605839D01*
G37*
G54D24*
G36*
X1350546Y471935D02*
X1350546Y486435D01*
X1367680Y486435D01*
X1367680Y471935D01*
X1350546Y471935D01*
G37*
G36*
X1359113Y480502D02*
X1373613Y480502D01*
X1373613Y463368D01*
X1359113Y463368D01*
X1359113Y480502D01*
G37*
G36*
X1367680Y471935D02*
X1367680Y457435D01*
X1350546Y457435D01*
X1350546Y471935D01*
X1367680Y471935D01*
G37*
G36*
X1359113Y463368D02*
X1344613Y463368D01*
X1344613Y480502D01*
X1359113Y480502D01*
X1359113Y463368D01*
G37*
G54D24*
G36*
X1363246Y14735D02*
X1363246Y29235D01*
X1380380Y29235D01*
X1380380Y14735D01*
X1363246Y14735D01*
G37*
G36*
X1371813Y23302D02*
X1386313Y23302D01*
X1386313Y6168D01*
X1371813Y6168D01*
X1371813Y23302D01*
G37*
G36*
X1380380Y14735D02*
X1380380Y235D01*
X1363246Y235D01*
X1363246Y14735D01*
X1380380Y14735D01*
G37*
G36*
X1371813Y6168D02*
X1357313Y6168D01*
X1357313Y23302D01*
X1371813Y23302D01*
X1371813Y6168D01*
G37*
G54D21*
G36*
X1013937Y160530D02*
X1013937Y175030D01*
X1020603Y175030D01*
X1020603Y160530D01*
X1013937Y160530D01*
G37*
G36*
X1017270Y163863D02*
X1031770Y163863D01*
X1031770Y157197D01*
X1017270Y157197D01*
X1017270Y163863D01*
G37*
G36*
X1020603Y160530D02*
X1020603Y146030D01*
X1013937Y146030D01*
X1013937Y160530D01*
X1020603Y160530D01*
G37*
G36*
X1017270Y157197D02*
X1002770Y157197D01*
X1002770Y163863D01*
X1017270Y163863D01*
X1017270Y157197D01*
G37*
G54D21*
G36*
X1013937Y344680D02*
X1013937Y359180D01*
X1020603Y359180D01*
X1020603Y344680D01*
X1013937Y344680D01*
G37*
G36*
X1017270Y348013D02*
X1031770Y348013D01*
X1031770Y341347D01*
X1017270Y341347D01*
X1017270Y348013D01*
G37*
G36*
X1020603Y344680D02*
X1020603Y330180D01*
X1013937Y330180D01*
X1013937Y344680D01*
X1020603Y344680D01*
G37*
G36*
X1017270Y341347D02*
X1002770Y341347D01*
X1002770Y348013D01*
X1017270Y348013D01*
X1017270Y341347D01*
G37*
G54D21*
G36*
X380609Y953957D02*
X397109Y953957D01*
X397109Y947291D01*
X380609Y947291D01*
X380609Y953957D01*
G37*
G54D22*
G54D25*
G36*
X381904Y672053D02*
X396404Y672053D01*
X396404Y658453D01*
X381904Y658453D01*
X381904Y672053D01*
G37*
G36*
X388704Y665253D02*
X388704Y650753D01*
X375104Y650753D01*
X375104Y665253D01*
X388704Y665253D01*
G37*
G36*
X381904Y658453D02*
X367404Y658453D01*
X367404Y672053D01*
X381904Y672053D01*
X381904Y658453D01*
G37*
G36*
X375104Y665253D02*
X375104Y679753D01*
X388704Y679753D01*
X388704Y665253D01*
X375104Y665253D01*
G37*
G54D26*
G36*
X430047Y608527D02*
X444547Y608527D01*
X444547Y592661D01*
X430047Y592661D01*
X430047Y608527D01*
G37*
G36*
X437980Y600594D02*
X437980Y586094D01*
X422113Y586094D01*
X422113Y600594D01*
X437980Y600594D01*
G37*
G36*
X430047Y592661D02*
X415547Y592661D01*
X415547Y608527D01*
X430047Y608527D01*
X430047Y592661D01*
G37*
G36*
X422113Y600594D02*
X422113Y615094D01*
X437980Y615094D01*
X437980Y600594D01*
X422113Y600594D01*
G37*
G54D27*
G36*
X381929Y482903D02*
X396429Y482903D01*
X396429Y466637D01*
X381929Y466637D01*
X381929Y482903D01*
G37*
G36*
X390062Y474770D02*
X390062Y460270D01*
X373795Y460270D01*
X373795Y474770D01*
X390062Y474770D01*
G37*
G36*
X381929Y466637D02*
X367429Y466637D01*
X367429Y482903D01*
X381929Y482903D01*
X381929Y466637D01*
G37*
G36*
X373795Y474770D02*
X373795Y489270D01*
X390062Y489270D01*
X390062Y474770D01*
X373795Y474770D01*
G37*
G54D28*
G36*
X172935Y814802D02*
X187435Y814802D01*
X187435Y806936D01*
X172935Y806936D01*
X172935Y814802D01*
G37*
G36*
X176868Y810869D02*
X176868Y796369D01*
X169002Y796369D01*
X169002Y810869D01*
X176868Y810869D01*
G37*
G36*
X172935Y806936D02*
X158435Y806936D01*
X158435Y814802D01*
X172935Y814802D01*
X172935Y806936D01*
G37*
G36*
X169002Y810869D02*
X169002Y825369D01*
X176868Y825369D01*
X176868Y810869D01*
X169002Y810869D01*
G37*
G54D28*
G36*
X325335Y865603D02*
X339835Y865603D01*
X339835Y857736D01*
X325335Y857736D01*
X325335Y865603D01*
G37*
G36*
X329268Y861669D02*
X329268Y847169D01*
X321402Y847169D01*
X321402Y861669D01*
X329268Y861669D01*
G37*
G36*
X325335Y857736D02*
X310835Y857736D01*
X310835Y865603D01*
X325335Y865603D01*
X325335Y857736D01*
G37*
G36*
X321402Y861669D02*
X321402Y876169D01*
X329268Y876169D01*
X329268Y861669D01*
X321402Y861669D01*
G37*
G54D21*
G36*
X502807Y688959D02*
X488307Y688959D01*
X488307Y695626D01*
X502807Y695626D01*
X502807Y688959D01*
G37*
G36*
X499474Y692292D02*
X499474Y706792D01*
X506141Y706792D01*
X506141Y692292D01*
X499474Y692292D01*
G37*
G36*
X502807Y695626D02*
X517307Y695626D01*
X517307Y688959D01*
X502807Y688959D01*
X502807Y695626D01*
G37*
G36*
X506141Y692292D02*
X506141Y677792D01*
X499474Y677792D01*
X499474Y692292D01*
X506141Y692292D01*
G37*
G54D23*
G36*
X575286Y595630D02*
X575286Y610130D01*
X582953Y610130D01*
X582953Y595630D01*
X575286Y595630D01*
G37*
G36*
X579120Y599463D02*
X593620Y599463D01*
X593620Y591796D01*
X579120Y591796D01*
X579120Y599463D01*
G37*
G36*
X582953Y595630D02*
X582953Y581130D01*
X575286Y581130D01*
X575286Y595630D01*
X582953Y595630D01*
G37*
G36*
X579120Y591796D02*
X564620Y591796D01*
X564620Y599463D01*
X579120Y599463D01*
X579120Y591796D01*
G37*
G54D23*
G36*
X498974Y692292D02*
X498974Y706792D01*
X506641Y706792D01*
X506641Y692292D01*
X498974Y692292D01*
G37*
G36*
X502807Y696126D02*
X517307Y696126D01*
X517307Y688459D01*
X502807Y688459D01*
X502807Y696126D01*
G37*
G36*
X506641Y692292D02*
X506641Y677792D01*
X498974Y677792D01*
X498974Y692292D01*
X506641Y692292D01*
G37*
G36*
X502807Y688459D02*
X488307Y688459D01*
X488307Y696126D01*
X502807Y696126D01*
X502807Y688459D01*
G37*
G54D23*
G36*
X824630Y686668D02*
X810130Y686668D01*
X810130Y694334D01*
X824630Y694334D01*
X824630Y686668D01*
G37*
G36*
X820797Y690501D02*
X820797Y705001D01*
X828464Y705001D01*
X828464Y690501D01*
X820797Y690501D01*
G37*
G36*
X824630Y694334D02*
X839130Y694334D01*
X839130Y686668D01*
X824630Y686668D01*
X824630Y694334D01*
G37*
G36*
X828464Y690501D02*
X828464Y676001D01*
X820797Y676001D01*
X820797Y690501D01*
X828464Y690501D01*
G37*
G54D23*
G36*
X727574Y692292D02*
X727574Y706792D01*
X735241Y706792D01*
X735241Y692292D01*
X727574Y692292D01*
G37*
G36*
X731407Y696126D02*
X745907Y696126D01*
X745907Y688459D01*
X731407Y688459D01*
X731407Y696126D01*
G37*
G36*
X735241Y692292D02*
X735241Y677792D01*
X727574Y677792D01*
X727574Y692292D01*
X735241Y692292D01*
G37*
G36*
X731407Y688459D02*
X716907Y688459D01*
X716907Y696126D01*
X731407Y696126D01*
X731407Y688459D01*
G37*
G54D21*
G36*
X1175908Y790559D02*
X1161408Y790559D01*
X1161408Y797226D01*
X1175908Y797226D01*
X1175908Y790559D01*
G37*
G36*
X1172574Y793892D02*
X1172574Y808392D01*
X1179241Y808392D01*
X1179241Y793892D01*
X1172574Y793892D01*
G37*
G36*
X1175908Y797226D02*
X1190408Y797226D01*
X1190408Y790559D01*
X1175908Y790559D01*
X1175908Y797226D01*
G37*
G36*
X1179241Y793892D02*
X1179241Y779392D01*
X1172574Y779392D01*
X1172574Y793892D01*
X1179241Y793892D01*
G37*
G54D23*
G36*
X1172074Y793892D02*
X1172074Y808392D01*
X1179741Y808392D01*
X1179741Y793892D01*
X1172074Y793892D01*
G37*
G36*
X1175908Y797726D02*
X1190408Y797726D01*
X1190408Y790059D01*
X1175908Y790059D01*
X1175908Y797726D01*
G37*
G36*
X1179741Y793892D02*
X1179741Y779392D01*
X1172074Y779392D01*
X1172074Y793892D01*
X1179741Y793892D01*
G37*
G36*
X1175908Y790059D02*
X1161408Y790059D01*
X1161408Y797726D01*
X1175908Y797726D01*
X1175908Y790059D01*
G37*
G54D29*
G36*
X172935Y818102D02*
X187435Y818102D01*
X187435Y803636D01*
X172935Y803636D01*
X172935Y818102D01*
G37*
G36*
X180168Y810869D02*
X180168Y796369D01*
X165702Y796369D01*
X165702Y810869D01*
X180168Y810869D01*
G37*
G36*
X172935Y803636D02*
X158435Y803636D01*
X158435Y818102D01*
X172935Y818102D01*
X172935Y803636D01*
G37*
G36*
X165702Y810869D02*
X165702Y825369D01*
X180168Y825369D01*
X180168Y810869D01*
X165702Y810869D01*
G37*
G54D29*
G36*
X617740Y889781D02*
X632240Y889781D01*
X632240Y875315D01*
X617740Y875315D01*
X617740Y889781D01*
G37*
G36*
X624973Y882548D02*
X624973Y868048D01*
X610506Y868048D01*
X610506Y882548D01*
X624973Y882548D01*
G37*
G36*
X617740Y875315D02*
X603240Y875315D01*
X603240Y889781D01*
X617740Y889781D01*
X617740Y875315D01*
G37*
G36*
X610506Y882548D02*
X610506Y897048D01*
X624973Y897048D01*
X624973Y882548D01*
X610506Y882548D01*
G37*
G54D29*
G36*
X618565Y797871D02*
X633065Y797871D01*
X633065Y783405D01*
X618565Y783405D01*
X618565Y797871D01*
G37*
G36*
X625798Y790638D02*
X625798Y776138D01*
X611332Y776138D01*
X611332Y790638D01*
X625798Y790638D01*
G37*
G36*
X618565Y783405D02*
X604065Y783405D01*
X604065Y797871D01*
X618565Y797871D01*
X618565Y783405D01*
G37*
G36*
X611332Y790638D02*
X611332Y805138D01*
X625798Y805138D01*
X625798Y790638D01*
X611332Y790638D01*
G37*
G54D29*
G36*
X719340Y889781D02*
X733840Y889781D01*
X733840Y875315D01*
X719340Y875315D01*
X719340Y889781D01*
G37*
G36*
X726573Y882548D02*
X726573Y868048D01*
X712106Y868048D01*
X712106Y882548D01*
X726573Y882548D01*
G37*
G36*
X719340Y875315D02*
X704840Y875315D01*
X704840Y889781D01*
X719340Y889781D01*
X719340Y875315D01*
G37*
G36*
X712106Y882548D02*
X712106Y897048D01*
X726573Y897048D01*
X726573Y882548D01*
X712106Y882548D01*
G37*
G54D29*
G36*
X720165Y797871D02*
X734665Y797871D01*
X734665Y783405D01*
X720165Y783405D01*
X720165Y797871D01*
G37*
G36*
X727398Y790638D02*
X727398Y776138D01*
X712932Y776138D01*
X712932Y790638D01*
X727398Y790638D01*
G37*
G36*
X720165Y783405D02*
X705665Y783405D01*
X705665Y797871D01*
X720165Y797871D01*
X720165Y783405D01*
G37*
G36*
X712932Y790638D02*
X712932Y805138D01*
X727398Y805138D01*
X727398Y790638D01*
X712932Y790638D01*
G37*
G54D29*
G36*
X630440Y559581D02*
X644940Y559581D01*
X644940Y545115D01*
X630440Y545115D01*
X630440Y559581D01*
G37*
G36*
X637673Y552348D02*
X637673Y537848D01*
X623206Y537848D01*
X623206Y552348D01*
X637673Y552348D01*
G37*
G36*
X630440Y545115D02*
X615940Y545115D01*
X615940Y559581D01*
X630440Y559581D01*
X630440Y545115D01*
G37*
G36*
X623206Y552348D02*
X623206Y566848D01*
X637673Y566848D01*
X637673Y552348D01*
X623206Y552348D01*
G37*
G54D29*
G36*
X631265Y467671D02*
X645765Y467671D01*
X645765Y453205D01*
X631265Y453205D01*
X631265Y467671D01*
G37*
G36*
X638498Y460438D02*
X638498Y445938D01*
X624032Y445938D01*
X624032Y460438D01*
X638498Y460438D01*
G37*
G36*
X631265Y453205D02*
X616765Y453205D01*
X616765Y467671D01*
X631265Y467671D01*
X631265Y453205D01*
G37*
G36*
X624032Y460438D02*
X624032Y474938D01*
X638498Y474938D01*
X638498Y460438D01*
X624032Y460438D01*
G37*
G54D29*
G36*
X677897Y606959D02*
X692397Y606959D01*
X692397Y592492D01*
X677897Y592492D01*
X677897Y606959D01*
G37*
G36*
X685130Y599725D02*
X685130Y585225D01*
X670664Y585225D01*
X670664Y599725D01*
X685130Y599725D01*
G37*
G36*
X677897Y592492D02*
X663397Y592492D01*
X663397Y606959D01*
X677897Y606959D01*
X677897Y592492D01*
G37*
G36*
X670664Y599725D02*
X670664Y614225D01*
X685130Y614225D01*
X685130Y599725D01*
X670664Y599725D01*
G37*
G54D29*
G36*
X716442Y565519D02*
X730942Y565519D01*
X730942Y551052D01*
X716442Y551052D01*
X716442Y565519D01*
G37*
G36*
X723675Y558285D02*
X723675Y543785D01*
X709208Y543785D01*
X709208Y558285D01*
X723675Y558285D01*
G37*
G36*
X716442Y551052D02*
X701942Y551052D01*
X701942Y565519D01*
X716442Y565519D01*
X716442Y551052D01*
G37*
G36*
X709208Y558285D02*
X709208Y572785D01*
X723675Y572785D01*
X723675Y558285D01*
X709208Y558285D01*
G37*
G54D29*
G36*
X996016Y959846D02*
X996016Y974346D01*
X1010482Y974346D01*
X1010482Y959846D01*
X996016Y959846D01*
G37*
G36*
X1003249Y967079D02*
X1017749Y967079D01*
X1017749Y952613D01*
X1003249Y952613D01*
X1003249Y967079D01*
G37*
G36*
X1010482Y959846D02*
X1010482Y945346D01*
X996016Y945346D01*
X996016Y959846D01*
X1010482Y959846D01*
G37*
G36*
X1003249Y952613D02*
X988749Y952613D01*
X988749Y967079D01*
X1003249Y967079D01*
X1003249Y952613D01*
G37*
G54D29*
G36*
X1087926Y960671D02*
X1087926Y975171D01*
X1102392Y975171D01*
X1102392Y960671D01*
X1087926Y960671D01*
G37*
G36*
X1095159Y967905D02*
X1109659Y967905D01*
X1109659Y953438D01*
X1095159Y953438D01*
X1095159Y967905D01*
G37*
G36*
X1102392Y960671D02*
X1102392Y946171D01*
X1087926Y946171D01*
X1087926Y960671D01*
X1102392Y960671D01*
G37*
G36*
X1095159Y953438D02*
X1080659Y953438D01*
X1080659Y967905D01*
X1095159Y967905D01*
X1095159Y953438D01*
G37*
G54D29*
G36*
X1465916Y959846D02*
X1465916Y974346D01*
X1480382Y974346D01*
X1480382Y959846D01*
X1465916Y959846D01*
G37*
G36*
X1473149Y967079D02*
X1487649Y967079D01*
X1487649Y952612D01*
X1473149Y952612D01*
X1473149Y967079D01*
G37*
G36*
X1480382Y959846D02*
X1480382Y945346D01*
X1465916Y945346D01*
X1465916Y959846D01*
X1480382Y959846D01*
G37*
G36*
X1473149Y952612D02*
X1458649Y952612D01*
X1458649Y967079D01*
X1473149Y967079D01*
X1473149Y952612D01*
G37*
G54D29*
G36*
X1557826Y960671D02*
X1557826Y975171D01*
X1572292Y975171D01*
X1572292Y960671D01*
X1557826Y960671D01*
G37*
G36*
X1565059Y967905D02*
X1579559Y967905D01*
X1579559Y953438D01*
X1565059Y953438D01*
X1565059Y967905D01*
G37*
G36*
X1572292Y960671D02*
X1572292Y946171D01*
X1557826Y946171D01*
X1557826Y960671D01*
X1572292Y960671D01*
G37*
G36*
X1565059Y953438D02*
X1550559Y953438D01*
X1550559Y967905D01*
X1565059Y967905D01*
X1565059Y953438D01*
G37*
G54D23*
G36*
X575286Y976630D02*
X575286Y991130D01*
X582953Y991130D01*
X582953Y976630D01*
X575286Y976630D01*
G37*
G36*
X579120Y980463D02*
X593620Y980463D01*
X593620Y972796D01*
X579120Y972796D01*
X579120Y980463D01*
G37*
G36*
X582953Y976630D02*
X582953Y962130D01*
X575286Y962130D01*
X575286Y976630D01*
X582953Y976630D01*
G37*
G36*
X579120Y972796D02*
X564620Y972796D01*
X564620Y980463D01*
X579120Y980463D01*
X579120Y972796D01*
G37*
G54D23*
G36*
X587986Y633730D02*
X587986Y648230D01*
X595653Y648230D01*
X595653Y633730D01*
X587986Y633730D01*
G37*
G36*
X591820Y637563D02*
X606320Y637563D01*
X606320Y629896D01*
X591820Y629896D01*
X591820Y637563D01*
G37*
G36*
X595653Y633730D02*
X595653Y619230D01*
X587986Y619230D01*
X587986Y633730D01*
X595653Y633730D01*
G37*
G36*
X591820Y629896D02*
X577320Y629896D01*
X577320Y637563D01*
X591820Y637563D01*
X591820Y629896D01*
G37*
G54D23*
G36*
X829286Y976630D02*
X829286Y991130D01*
X836953Y991130D01*
X836953Y976630D01*
X829286Y976630D01*
G37*
G36*
X833120Y980463D02*
X847620Y980463D01*
X847620Y972796D01*
X833120Y972796D01*
X833120Y980463D01*
G37*
G36*
X836953Y976630D02*
X836953Y962130D01*
X829286Y962130D01*
X829286Y976630D01*
X836953Y976630D01*
G37*
G36*
X833120Y972796D02*
X818620Y972796D01*
X818620Y980463D01*
X833120Y980463D01*
X833120Y972796D01*
G37*
G54D23*
G36*
X829286Y633730D02*
X829286Y648230D01*
X836953Y648230D01*
X836953Y633730D01*
X829286Y633730D01*
G37*
G36*
X833120Y637563D02*
X847620Y637563D01*
X847620Y629896D01*
X833120Y629896D01*
X833120Y637563D01*
G37*
G36*
X836953Y633730D02*
X836953Y619230D01*
X829286Y619230D01*
X829286Y633730D01*
X836953Y633730D01*
G37*
G36*
X833120Y629896D02*
X818620Y629896D01*
X818620Y637563D01*
X833120Y637563D01*
X833120Y629896D01*
G37*
G54D23*
G36*
X912221Y830815D02*
X912221Y845315D01*
X919888Y845315D01*
X919888Y830815D01*
X912221Y830815D01*
G37*
G36*
X916055Y834649D02*
X930555Y834649D01*
X930555Y826982D01*
X916055Y826982D01*
X916055Y834649D01*
G37*
G36*
X919888Y830815D02*
X919888Y816315D01*
X912221Y816315D01*
X912221Y830815D01*
X919888Y830815D01*
G37*
G36*
X916055Y826982D02*
X901555Y826982D01*
X901555Y834649D01*
X916055Y834649D01*
X916055Y826982D01*
G37*
G54D23*
G36*
X1369422Y837165D02*
X1369422Y851665D01*
X1377088Y851665D01*
X1377088Y837165D01*
X1369422Y837165D01*
G37*
G36*
X1373255Y840999D02*
X1387755Y840999D01*
X1387755Y833332D01*
X1373255Y833332D01*
X1373255Y840999D01*
G37*
G36*
X1377088Y837165D02*
X1377088Y822665D01*
X1369422Y822665D01*
X1369422Y837165D01*
X1377088Y837165D01*
G37*
G36*
X1373255Y833332D02*
X1358755Y833332D01*
X1358755Y840999D01*
X1373255Y840999D01*
X1373255Y833332D01*
G37*
G54D23*
G36*
X592197Y690501D02*
X592197Y705001D01*
X599864Y705001D01*
X599864Y690501D01*
X592197Y690501D01*
G37*
G36*
X596030Y694334D02*
X610530Y694334D01*
X610530Y686668D01*
X596030Y686668D01*
X596030Y694334D01*
G37*
G36*
X599864Y690501D02*
X599864Y676001D01*
X592197Y676001D01*
X592197Y690501D01*
X599864Y690501D01*
G37*
G36*
X596030Y686668D02*
X581530Y686668D01*
X581530Y694334D01*
X596030Y694334D01*
X596030Y686668D01*
G37*
G54D23*
G36*
X1265297Y792101D02*
X1265297Y806601D01*
X1272964Y806601D01*
X1272964Y792101D01*
X1265297Y792101D01*
G37*
G36*
X1269130Y795935D02*
X1283630Y795935D01*
X1283630Y788268D01*
X1269130Y788268D01*
X1269130Y795935D01*
G37*
G36*
X1272964Y792101D02*
X1272964Y777601D01*
X1265297Y777601D01*
X1265297Y792101D01*
X1272964Y792101D01*
G37*
G36*
X1269130Y788268D02*
X1254630Y788268D01*
X1254630Y795935D01*
X1269130Y795935D01*
X1269130Y788268D01*
G37*
G54D30*
G36*
X115920Y960630D02*
X115920Y975130D01*
X127920Y975130D01*
X127920Y960630D01*
X115920Y960630D01*
G37*
G36*
X121920Y966630D02*
X136420Y966630D01*
X136420Y954630D01*
X121920Y954630D01*
X121920Y966630D01*
G37*
G36*
X127920Y960630D02*
X127920Y946130D01*
X115920Y946130D01*
X115920Y960630D01*
X127920Y960630D01*
G37*
G36*
X121920Y954630D02*
X107420Y954630D01*
X107420Y966630D01*
X121920Y966630D01*
X121920Y954630D01*
G37*
X252070Y344780D02*
G54D31*
D03*
X302870Y344780D02*
G54D31*
D03*
X277470Y319380D02*
G54D31*
D03*
X302870Y293980D02*
G54D31*
D03*
X252070Y293980D02*
G54D31*
D03*
X1347470Y663830D02*
G54D32*
D03*
X1322070Y663830D02*
G54D32*
D03*
X1296670Y663830D02*
G54D32*
D03*
X1252720Y659036D02*
G54D32*
D03*
X1252833Y608055D02*
G54D32*
D03*
X1064503Y671527D02*
G54D32*
D03*
X1064453Y595277D02*
G54D32*
D03*
X1113020Y665386D02*
G54D32*
D03*
X1113133Y614405D02*
G54D32*
D03*
X880353Y671527D02*
G54D32*
D03*
X880303Y595277D02*
G54D32*
D03*
X1017270Y370080D02*
G54D32*
D03*
X1017270Y395480D02*
G54D32*
D03*
X1017270Y185930D02*
G54D32*
D03*
X1017270Y211330D02*
G54D32*
D03*
X922053Y409438D02*
G54D32*
D03*
X871072Y409325D02*
G54D32*
D03*
X922053Y203063D02*
G54D32*
D03*
X871072Y202950D02*
G54D32*
D03*
X922053Y466588D02*
G54D32*
D03*
X871073Y466475D02*
G54D32*
D03*
X934753Y88763D02*
G54D32*
D03*
X883773Y88650D02*
G54D32*
D03*
X1060751Y499950D02*
G54D32*
D03*
X984501Y500000D02*
G54D32*
D03*
X1073451Y55450D02*
G54D32*
D03*
X997201Y55500D02*
G54D32*
D03*
X1188720Y544830D02*
G54D32*
D03*
X1188720Y481330D02*
G54D32*
D03*
X1188720Y81280D02*
G54D32*
D03*
X1188720Y17780D02*
G54D32*
D03*
X1300020Y506730D02*
G54D32*
D03*
X1264920Y506730D02*
G54D32*
D03*
X1312720Y62230D02*
G54D32*
D03*
X1277620Y62230D02*
G54D32*
D03*
X1457779Y654552D02*
G54D32*
D03*
X1483279Y654552D02*
G54D32*
D03*
X1359113Y471935D02*
G54D32*
D03*
X1359163Y548185D02*
G54D32*
D03*
X1303020Y328930D02*
G54D32*
D03*
X1303020Y227330D02*
G54D32*
D03*
X1404620Y328930D02*
G54D32*
D03*
X1404620Y227330D02*
G54D32*
D03*
X744220Y354330D02*
G54D32*
D03*
X883920Y354330D02*
G54D32*
D03*
X883920Y265430D02*
G54D32*
D03*
X883920Y309880D02*
G54D32*
D03*
X1546679Y654552D02*
G54D32*
D03*
X1572179Y654552D02*
G54D32*
D03*
X1322070Y663830D02*
G54D32*
D03*
X1252833Y608055D02*
G54D32*
D03*
X1207770Y600330D02*
G54D32*
D03*
X1113133Y614405D02*
G54D32*
D03*
X1404620Y227330D02*
G54D32*
D03*
X1300020Y506730D02*
G54D32*
D03*
X1359113Y471935D02*
G54D32*
D03*
X1312720Y62230D02*
G54D32*
D03*
X744220Y265430D02*
G54D32*
D03*
X883920Y309880D02*
G54D32*
D03*
X1458570Y332080D02*
G54D31*
D03*
X1509370Y332080D02*
G54D31*
D03*
X1483970Y306680D02*
G54D31*
D03*
X1509370Y281280D02*
G54D31*
D03*
X1458570Y281280D02*
G54D31*
D03*
X744220Y309880D02*
G54D32*
D03*
X1252833Y608055D02*
G54D32*
D03*
X1113133Y614405D02*
G54D32*
D03*
X1359113Y471935D02*
G54D32*
D03*
G54D33*
X1060751Y499950D02*
X1061720Y500380D01*
X1029970Y468630D01*
X1029970Y386080D01*
X1017270Y373380D01*
X1017270Y367030D01*
X1017270Y370080D01*
X1371813Y14735D02*
G54D32*
D03*
X1371863Y90985D02*
G54D32*
D03*
X1371813Y14735D02*
G54D32*
D03*
X1017270Y160530D02*
G54D32*
D03*
G54D33*
X1303020Y328930D02*
X1264920Y290830D01*
X1074420Y290830D01*
X1052170Y311430D01*
X1049020Y341630D01*
X1017270Y367030D01*
X1017270Y370080D01*
G54D33*
X1303020Y227330D02*
X1271270Y271780D01*
X1061720Y265430D01*
X1017270Y182880D01*
X1017270Y185930D01*
X1017270Y344680D02*
G54D32*
D03*
G54D33*
X1073451Y55450D02*
X1074420Y55880D01*
X1042670Y87630D01*
X1042670Y163830D01*
X1023620Y182880D01*
X1017270Y182880D01*
X1017270Y185930D01*
X172935Y887069D02*
G54D34*
D03*
X172935Y861669D02*
G54D34*
D03*
X172935Y836269D02*
G54D34*
D03*
X172935Y810869D02*
G54D34*
D03*
X172935Y785469D02*
G54D34*
D03*
X172935Y760069D02*
G54D34*
D03*
X172935Y734669D02*
G54D34*
D03*
X172935Y709269D02*
G54D34*
D03*
X172935Y683869D02*
G54D34*
D03*
X172935Y658469D02*
G54D34*
D03*
X172935Y633069D02*
G54D34*
D03*
X172935Y607669D02*
G54D34*
D03*
X172935Y582269D02*
G54D34*
D03*
X172935Y556869D02*
G54D34*
D03*
X172935Y531469D02*
G54D34*
D03*
X325335Y887069D02*
G54D34*
D03*
X325335Y861669D02*
G54D34*
D03*
X325335Y836269D02*
G54D34*
D03*
X325335Y810869D02*
G54D34*
D03*
X325335Y785469D02*
G54D34*
D03*
X325335Y760069D02*
G54D34*
D03*
X325335Y734669D02*
G54D34*
D03*
X325335Y709269D02*
G54D34*
D03*
X325335Y683869D02*
G54D34*
D03*
X325335Y658469D02*
G54D34*
D03*
X325335Y633069D02*
G54D34*
D03*
X325335Y607669D02*
G54D34*
D03*
X325335Y582269D02*
G54D34*
D03*
X325335Y556869D02*
G54D34*
D03*
X325335Y531469D02*
G54D34*
D03*
X325494Y912310D02*
G54D35*
D03*
X173094Y912310D02*
G54D35*
D03*
X274281Y886053D02*
G54D34*
D03*
X274281Y911453D02*
G54D34*
D03*
X248881Y886053D02*
G54D34*
D03*
X248881Y911453D02*
G54D34*
D03*
X223481Y886053D02*
G54D34*
D03*
X223481Y911453D02*
G54D34*
D03*
X378034Y755499D02*
G54D32*
D03*
X378034Y831699D02*
G54D32*
D03*
X380609Y950624D02*
G54D32*
D03*
X380609Y925124D02*
G54D32*
D03*
X381791Y716234D02*
G54D32*
D03*
X381904Y665253D02*
G54D32*
D03*
X378034Y615799D02*
G54D32*
D03*
X378034Y514199D02*
G54D32*
D03*
X430159Y549614D02*
G54D32*
D03*
X430047Y600594D02*
G54D32*
D03*
X432909Y474882D02*
G54D32*
D03*
X381929Y474770D02*
G54D32*
D03*
X381904Y665253D02*
G54D32*
D03*
X430047Y600594D02*
G54D32*
D03*
X381929Y474770D02*
G54D32*
D03*
X172935Y810869D02*
G54D32*
D03*
X325335Y861669D02*
G54D32*
D03*
G54D33*
X430159Y549613D02*
X428884Y551029D01*
X403484Y576429D01*
X403484Y671679D01*
X397134Y678029D01*
X397134Y836779D01*
X346334Y887579D01*
X327284Y887579D01*
X325335Y887069D01*
X515620Y633729D02*
G54D36*
D03*
X591820Y633730D02*
G54D36*
D03*
X515620Y557530D02*
G54D36*
D03*
X515620Y506730D02*
G54D36*
D03*
X515620Y455930D02*
G54D36*
D03*
X591820Y557530D02*
G54D36*
D03*
X591820Y506730D02*
G54D36*
D03*
X591820Y455930D02*
G54D36*
D03*
X502920Y976630D02*
G54D36*
D03*
X579120Y976630D02*
G54D36*
D03*
X502920Y900430D02*
G54D36*
D03*
X502920Y849629D02*
G54D36*
D03*
X502920Y798830D02*
G54D36*
D03*
X579120Y900430D02*
G54D36*
D03*
X579120Y849630D02*
G54D36*
D03*
X579120Y798830D02*
G54D36*
D03*
X756920Y633730D02*
G54D36*
D03*
X833120Y633730D02*
G54D36*
D03*
X756920Y557530D02*
G54D36*
D03*
X756920Y506730D02*
G54D36*
D03*
X756920Y455930D02*
G54D36*
D03*
X833120Y557530D02*
G54D36*
D03*
X833120Y506730D02*
G54D36*
D03*
X833120Y455930D02*
G54D36*
D03*
X756920Y976630D02*
G54D36*
D03*
X833120Y976630D02*
G54D36*
D03*
X756920Y900430D02*
G54D36*
D03*
X756920Y849630D02*
G54D36*
D03*
X756920Y798830D02*
G54D36*
D03*
X833120Y900430D02*
G54D36*
D03*
X833120Y849630D02*
G54D36*
D03*
X833120Y798830D02*
G54D36*
D03*
X1373255Y837165D02*
G54D36*
D03*
X1373254Y913365D02*
G54D36*
D03*
X1449455Y837165D02*
G54D36*
D03*
X1500255Y837165D02*
G54D36*
D03*
X1551055Y837165D02*
G54D36*
D03*
X1449455Y913366D02*
G54D36*
D03*
X1500255Y913365D02*
G54D36*
D03*
X1551055Y913365D02*
G54D36*
D03*
X916055Y830815D02*
G54D36*
D03*
X916055Y907016D02*
G54D36*
D03*
X992255Y830816D02*
G54D36*
D03*
X1043055Y830816D02*
G54D36*
D03*
X1093855Y830815D02*
G54D36*
D03*
X992255Y907016D02*
G54D36*
D03*
X1043055Y907016D02*
G54D36*
D03*
X1093855Y907016D02*
G54D36*
D03*
X471057Y752617D02*
G54D32*
D03*
X534557Y752617D02*
G54D32*
D03*
X502807Y692292D02*
G54D32*
D03*
X579120Y595630D02*
G54D32*
D03*
X252070Y230480D02*
G54D31*
D03*
X302870Y230480D02*
G54D31*
D03*
X277470Y205080D02*
G54D31*
D03*
X302870Y179680D02*
G54D31*
D03*
X252070Y179680D02*
G54D31*
D03*
G54D33*
X302870Y230480D02*
X299720Y230380D01*
X426720Y357380D01*
X744220Y357380D01*
X744220Y354330D01*
G54D33*
X277470Y205080D02*
X274320Y204980D01*
X337820Y268480D01*
X744220Y268480D01*
X744220Y265430D01*
G54D33*
X302870Y230480D02*
X299720Y230380D01*
X248920Y230380D01*
X252070Y230480D01*
G54D33*
X252070Y179680D02*
X248920Y179580D01*
X248920Y230380D01*
X252070Y230480D01*
G54D33*
X252070Y179680D02*
X248920Y179580D01*
X299720Y179580D01*
X302870Y179680D01*
X564280Y750826D02*
G54D32*
D03*
X627781Y750826D02*
G54D32*
D03*
X596030Y690501D02*
G54D32*
D03*
X627781Y750826D02*
G54D32*
D03*
X502807Y692292D02*
G54D32*
D03*
X699657Y752617D02*
G54D32*
D03*
X763157Y752617D02*
G54D32*
D03*
X731407Y692292D02*
G54D32*
D03*
X792880Y750826D02*
G54D32*
D03*
X856381Y750826D02*
G54D32*
D03*
X824630Y690501D02*
G54D32*
D03*
X824630Y690501D02*
G54D32*
D03*
X731407Y692292D02*
G54D32*
D03*
X1144158Y854217D02*
G54D32*
D03*
X1207658Y854217D02*
G54D32*
D03*
X1175908Y793892D02*
G54D32*
D03*
X1237380Y852426D02*
G54D32*
D03*
X1300880Y852426D02*
G54D32*
D03*
X1269130Y792101D02*
G54D32*
D03*
X1300881Y852426D02*
G54D32*
D03*
X1175908Y793892D02*
G54D32*
D03*
X172935Y810869D02*
G54D37*
D03*
X617740Y882548D02*
G54D38*
D03*
X617740Y984148D02*
G54D38*
D03*
X618565Y790638D02*
G54D32*
D03*
X618453Y841619D02*
G54D32*
D03*
X617740Y882548D02*
G54D32*
D03*
X617740Y882548D02*
G54D37*
D03*
X618565Y790638D02*
G54D37*
D03*
X719340Y882548D02*
G54D38*
D03*
X719340Y984148D02*
G54D38*
D03*
X720165Y790638D02*
G54D32*
D03*
X720053Y841619D02*
G54D32*
D03*
X719340Y882548D02*
G54D32*
D03*
X719340Y882548D02*
G54D37*
D03*
X720165Y790638D02*
G54D37*
D03*
X630440Y552348D02*
G54D38*
D03*
X630440Y653948D02*
G54D38*
D03*
X631265Y460438D02*
G54D32*
D03*
X631153Y511418D02*
G54D32*
D03*
X630440Y552348D02*
G54D32*
D03*
X630440Y552348D02*
G54D37*
D03*
X631265Y460438D02*
G54D37*
D03*
X716442Y558285D02*
G54D38*
D03*
X716442Y659885D02*
G54D38*
D03*
X677897Y599725D02*
G54D32*
D03*
X677785Y650706D02*
G54D32*
D03*
X677897Y599725D02*
G54D37*
D03*
X716442Y558285D02*
G54D37*
D03*
X1003249Y959846D02*
G54D38*
D03*
X901649Y959846D02*
G54D38*
D03*
X1095159Y960671D02*
G54D32*
D03*
X1044179Y960559D02*
G54D32*
D03*
X1003249Y959846D02*
G54D32*
D03*
X1003249Y959846D02*
G54D37*
D03*
X1095159Y960671D02*
G54D37*
D03*
X1473149Y959846D02*
G54D38*
D03*
X1371549Y959846D02*
G54D38*
D03*
X1565059Y960671D02*
G54D32*
D03*
X1514079Y960559D02*
G54D32*
D03*
X1473149Y959846D02*
G54D32*
D03*
X1473149Y959846D02*
G54D37*
D03*
X1565059Y960671D02*
G54D37*
D03*
X579120Y976630D02*
G54D32*
D03*
X591820Y633730D02*
G54D32*
D03*
X833120Y976630D02*
G54D32*
D03*
X833120Y633730D02*
G54D32*
D03*
X916055Y830815D02*
G54D32*
D03*
X1373255Y837165D02*
G54D32*
D03*
X596030Y690501D02*
G54D32*
D03*
X1269130Y792101D02*
G54D32*
D03*
X922520Y665386D02*
G54D32*
D03*
X922633Y614405D02*
G54D32*
D03*
G54D39*
X471057Y752617D02*
X471170Y751080D01*
X483870Y738380D01*
X483870Y687580D01*
X490220Y681230D01*
X490220Y674880D01*
X496570Y668530D01*
X496570Y624080D01*
X515620Y605030D01*
X515620Y560580D01*
X515620Y557530D01*
G54D39*
X564280Y750826D02*
X566420Y751080D01*
X560070Y744730D01*
X560070Y585980D01*
X585470Y560580D01*
X591820Y560580D01*
X591820Y557530D01*
G54D39*
X630440Y653948D02*
X629920Y655830D01*
X610870Y636780D01*
X610870Y547880D01*
X604520Y541530D01*
X579120Y541530D01*
X521970Y598680D01*
X521970Y611380D01*
X515620Y617730D01*
X515620Y636780D01*
X515620Y633729D01*
G54D39*
X534557Y752617D02*
X534670Y751080D01*
X579120Y795530D01*
X579120Y801880D01*
X579120Y798830D01*
G54D39*
X627781Y750826D02*
X629920Y751080D01*
X579120Y801880D01*
X579120Y798830D01*
G54D39*
X630440Y653948D02*
X629920Y655830D01*
X642620Y668530D01*
X642620Y795530D01*
X636270Y801880D01*
X636270Y890780D01*
X617220Y909830D01*
X617220Y986030D01*
X617740Y984148D01*
G54D39*
X618453Y841619D02*
X617220Y839980D01*
X636270Y859030D01*
X636270Y890780D01*
X617220Y909830D01*
X617220Y986030D01*
X617740Y984148D01*
G54D39*
X579120Y900430D02*
X579120Y903480D01*
X521970Y846330D01*
X521970Y839980D01*
X496570Y814580D01*
X490220Y814580D01*
X452120Y776480D01*
X452120Y744730D01*
X477520Y719330D01*
X477520Y681230D01*
X483870Y674880D01*
X483870Y668530D01*
X490220Y662180D01*
X490220Y617730D01*
X496570Y611380D01*
X496570Y547880D01*
X515620Y528830D01*
X636270Y528830D01*
X687070Y579630D01*
X1074420Y579630D01*
X1093470Y598680D01*
X1093470Y624080D01*
X1131570Y662180D01*
X1252220Y662180D01*
X1252720Y659036D01*
G54D39*
X763157Y752617D02*
X763270Y751080D01*
X814070Y801880D01*
X833120Y801880D01*
X833120Y798830D01*
G54D39*
X856381Y750826D02*
X858520Y751080D01*
X833120Y776480D01*
X833120Y801880D01*
X833120Y798830D01*
G54D39*
X792880Y750826D02*
X795020Y751080D01*
X864870Y681230D01*
X864870Y662180D01*
X877570Y649480D01*
X928370Y649480D01*
X934720Y655830D01*
X1074420Y655830D01*
X1099820Y681230D01*
X1118870Y681230D01*
X1125220Y674880D01*
X1258570Y674880D01*
X1271270Y662180D01*
X1271270Y655830D01*
X1239520Y624080D01*
X1201420Y624080D01*
X1137920Y560580D01*
X833120Y560580D01*
X833120Y557530D01*
G54D39*
X756920Y976630D02*
X756920Y979680D01*
X775970Y960630D01*
X775970Y789180D01*
X744220Y757430D01*
X744220Y744730D01*
X756920Y732030D01*
X756920Y636780D01*
X756920Y633730D01*
G54D39*
X833120Y900430D02*
X833120Y903480D01*
X896620Y839980D01*
X896620Y820930D01*
X1029970Y687580D01*
X1125220Y687580D01*
X1131570Y681230D01*
X1264920Y681230D01*
X1277620Y668530D01*
X1277620Y649480D01*
X1271270Y643130D01*
X1271270Y592330D01*
X1239520Y560580D01*
X1182370Y560580D01*
X1163320Y541530D01*
X820420Y541530D01*
X814070Y547880D01*
X814070Y566930D01*
X890270Y643130D01*
X934720Y643130D01*
X941070Y649480D01*
X1118870Y649480D01*
X1131570Y662180D01*
X1252220Y662180D01*
X1252720Y659036D01*
G54D39*
X992255Y830816D02*
X991870Y833630D01*
X1144270Y681230D01*
X1264920Y681230D01*
X1277620Y668530D01*
X1277620Y649480D01*
X1271270Y643130D01*
X1271270Y592330D01*
X1239520Y560580D01*
X1182370Y560580D01*
X1163320Y541530D01*
X820420Y541530D01*
X814070Y547880D01*
X814070Y566930D01*
X826770Y579630D01*
X890270Y579630D01*
X909320Y598680D01*
X928370Y598680D01*
X979170Y649480D01*
X1118870Y649480D01*
X1131570Y662180D01*
X1252220Y662180D01*
X1252720Y659036D01*
G54D39*
X901649Y959846D02*
X902970Y960630D01*
X915670Y947930D01*
X915670Y909830D01*
X916055Y907016D01*
G54D39*
X1044179Y960559D02*
X1042670Y960630D01*
X1023620Y979680D01*
X991870Y979680D01*
X972820Y960630D01*
X902970Y960630D01*
X901649Y959846D01*
G54D39*
X617740Y984148D02*
X617220Y986030D01*
X585470Y954280D01*
X572770Y954280D01*
X547370Y979680D01*
X502920Y979680D01*
X502920Y976630D01*
G54D39*
X719340Y984148D02*
X718820Y986030D01*
X725170Y979680D01*
X756920Y979680D01*
X756920Y976630D01*
G54D39*
X515620Y455930D02*
X515620Y458980D01*
X579120Y395480D01*
X579120Y376430D01*
X585470Y370080D01*
X750570Y370080D01*
X839470Y281180D01*
X1271270Y281180D01*
X1303020Y312930D01*
X1309370Y312930D01*
X1334770Y338330D01*
X1334770Y478030D01*
X1341120Y484380D01*
X1341120Y554230D01*
X1366520Y579630D01*
X1366520Y668530D01*
X1144270Y890780D01*
X909320Y890780D01*
X883920Y916180D01*
X820420Y916180D01*
X814070Y909830D01*
X814070Y839980D01*
X839470Y814580D01*
X845820Y814580D01*
X877570Y782830D01*
X877570Y668530D01*
X880353Y671527D01*
G54D39*
X756920Y455930D02*
X756920Y458980D01*
X883920Y331980D01*
X890270Y331980D01*
X941070Y281180D01*
X1271270Y281180D01*
X1303020Y312930D01*
X1309370Y312930D01*
X1334770Y338330D01*
X1334770Y478030D01*
X1341120Y484380D01*
X1341120Y554230D01*
X1366520Y579630D01*
X1366520Y668530D01*
X1144270Y890780D01*
X909320Y890780D01*
X883920Y916180D01*
X820420Y916180D01*
X814070Y909830D01*
X814070Y839980D01*
X839470Y814580D01*
X845820Y814580D01*
X877570Y782830D01*
X877570Y668530D01*
X880353Y671527D01*
G54D39*
X922520Y665386D02*
X922020Y668530D01*
X877570Y668530D01*
X880353Y671527D01*
G54D39*
X916055Y907016D02*
X915670Y909830D01*
X941070Y935230D01*
X1493520Y935230D01*
X1499870Y928880D01*
X1512570Y928880D01*
X1518920Y922530D01*
X1518920Y903480D01*
X1512570Y897130D01*
X1442720Y897130D01*
X1423670Y916180D01*
X1372870Y916180D01*
X1373254Y913365D01*
G54D39*
X1551055Y913365D02*
X1550670Y916180D01*
X1525270Y890780D01*
X909320Y890780D01*
X883920Y916180D01*
X820420Y916180D01*
X814070Y909830D01*
X814070Y890780D01*
X839470Y865380D01*
X845820Y865380D01*
X877570Y833630D01*
X877570Y668530D01*
X880353Y671527D01*
X45720Y960630D02*
G54D32*
D03*
X71120Y960630D02*
G54D32*
D03*
X71120Y960630D02*
G54D32*
D03*
X96520Y960630D02*
G54D32*
D03*
X147320Y960630D02*
G54D32*
D03*
X147320Y960630D02*
G54D32*
D03*
X172720Y960630D02*
G54D32*
D03*
X172720Y960630D02*
G54D32*
D03*
X198120Y960630D02*
G54D32*
D03*
G54D39*
X45720Y960630D02*
X77470Y928880D01*
X179070Y928880D01*
X204470Y903480D01*
X204470Y884430D01*
X306070Y782830D01*
X325120Y782830D01*
X325335Y785469D01*
G54D39*
X71120Y960630D02*
X52070Y979680D01*
X39370Y979680D01*
X26670Y966980D01*
X26670Y954280D01*
X147320Y833630D01*
X147320Y585980D01*
X153670Y579630D01*
X153670Y528830D01*
X166370Y516130D01*
X179070Y516130D01*
X306070Y643130D01*
X306070Y738380D01*
X325120Y757430D01*
X325335Y760069D01*
G54D39*
X96520Y960630D02*
X71120Y986030D01*
X33020Y986030D01*
X20320Y973330D01*
X20320Y947930D01*
X140970Y827280D01*
X140970Y579630D01*
X147320Y573280D01*
X147320Y522480D01*
X160020Y509780D01*
X185420Y509780D01*
X191770Y516130D01*
X331470Y516130D01*
X344170Y528830D01*
X344170Y712980D01*
X325120Y732030D01*
X325335Y734669D01*
X121920Y960630D02*
G54D32*
D03*
M02*
