%FSLAX34Y34*%
%MOMM*%
%LNSOLDERMASK_BOTTOM*%
G71*
G01*
%ADD10C,2.800*%
%ADD11C,2.800*%
%ADD12C,2.700*%
%ADD13C,2.600*%
%ADD14C,2.500*%
%ADD15C,2.700*%
%ADD16C,2.800*%
%ADD17C,2.800*%
%ADD18C,4.900*%
%ADD19C,3.600*%
%LPD*%
X-366950Y19050D02*
G54D10*
D03*
X-366950Y-82550D02*
G54D10*
D03*
X-227250Y-5000D02*
G54D11*
D03*
X-227250Y93900D02*
G54D11*
D03*
X-176450Y-63500D02*
G54D10*
D03*
X-278050Y-63500D02*
G54D10*
D03*
X-98900Y0D02*
G54D11*
D03*
X0Y0D02*
G54D11*
D03*
X128350Y-69850D02*
G54D10*
D03*
X26750Y-69850D02*
G54D10*
D03*
X128350Y-5000D02*
G54D11*
D03*
X128350Y93900D02*
G54D11*
D03*
X261700Y19050D02*
G54D10*
D03*
X261700Y-82550D02*
G54D10*
D03*
X-462200Y-63500D02*
G54D11*
D03*
X-582850Y-60326D02*
G54D11*
D03*
X-462200Y57150D02*
G54D11*
D03*
X-582850Y57150D02*
G54D11*
D03*
X-603962Y-3175D02*
G54D11*
D03*
X350460Y59801D02*
G54D11*
D03*
X471110Y56627D02*
G54D11*
D03*
X350460Y-60849D02*
G54D11*
D03*
X471110Y-60849D02*
G54D11*
D03*
X492222Y-524D02*
G54D11*
D03*
X-366950Y19050D02*
G54D11*
D03*
X-176450Y-63500D02*
G54D11*
D03*
X128350Y-69850D02*
G54D11*
D03*
X261700Y-82550D02*
G54D11*
D03*
X-582850Y-60326D02*
G54D12*
D03*
X-700842Y-28488D02*
G54D13*
D03*
X-700954Y22492D02*
G54D13*
D03*
X-658727Y-50520D02*
G54D14*
D03*
X-658727Y51080D02*
G54D14*
D03*
X-658727Y-50520D02*
G54D13*
D03*
X588208Y-41188D02*
G54D13*
D03*
X588096Y9792D02*
G54D13*
D03*
X541423Y-50520D02*
G54D14*
D03*
X541423Y51080D02*
G54D14*
D03*
X541423Y-50520D02*
G54D13*
D03*
X-658727Y-50520D02*
G54D11*
D03*
X-700842Y-28488D02*
G54D11*
D03*
X541423Y-50520D02*
G54D11*
D03*
X588208Y-41188D02*
G54D11*
D03*
X-366950Y-184150D02*
G54D10*
D03*
X-366950Y-285750D02*
G54D10*
D03*
X-227250Y-208200D02*
G54D11*
D03*
X-227250Y-109300D02*
G54D11*
D03*
X-176450Y-266700D02*
G54D10*
D03*
X-278050Y-266700D02*
G54D10*
D03*
X-98900Y-203200D02*
G54D11*
D03*
X0Y-203200D02*
G54D11*
D03*
X128350Y-273050D02*
G54D10*
D03*
X26750Y-273050D02*
G54D10*
D03*
X128350Y-208200D02*
G54D11*
D03*
X128350Y-109300D02*
G54D11*
D03*
X261700Y-184150D02*
G54D10*
D03*
X261700Y-285750D02*
G54D10*
D03*
X-462200Y-266700D02*
G54D11*
D03*
X-582850Y-263526D02*
G54D11*
D03*
X-462200Y-146050D02*
G54D11*
D03*
X-582850Y-146050D02*
G54D11*
D03*
X-603962Y-206375D02*
G54D11*
D03*
X350460Y-143399D02*
G54D15*
D03*
X471110Y-146573D02*
G54D11*
D03*
X350460Y-264049D02*
G54D11*
D03*
X471110Y-264049D02*
G54D11*
D03*
X492223Y-203724D02*
G54D11*
D03*
X-366950Y-184150D02*
G54D11*
D03*
X-176450Y-266700D02*
G54D11*
D03*
X128350Y-273050D02*
G54D11*
D03*
X261700Y-285750D02*
G54D11*
D03*
X-582850Y-263526D02*
G54D16*
D03*
X-700842Y-231688D02*
G54D13*
D03*
X-700954Y-180708D02*
G54D13*
D03*
X-658727Y-253720D02*
G54D14*
D03*
X-658727Y-152120D02*
G54D14*
D03*
X-658727Y-253720D02*
G54D13*
D03*
X588208Y-244388D02*
G54D13*
D03*
X588096Y-193408D02*
G54D13*
D03*
X541423Y-253720D02*
G54D14*
D03*
X541423Y-152120D02*
G54D14*
D03*
X541423Y-253720D02*
G54D13*
D03*
X-658727Y-253720D02*
G54D11*
D03*
X-700842Y-231688D02*
G54D11*
D03*
X541423Y-253720D02*
G54D11*
D03*
X588208Y-244388D02*
G54D11*
D03*
X-366950Y-387350D02*
G54D10*
D03*
X-366950Y-488950D02*
G54D10*
D03*
X-227250Y-411400D02*
G54D11*
D03*
X-227250Y-312500D02*
G54D11*
D03*
X-176450Y-469900D02*
G54D10*
D03*
X-278050Y-469900D02*
G54D10*
D03*
X-98900Y-406400D02*
G54D11*
D03*
X0Y-406400D02*
G54D11*
D03*
X128350Y-476250D02*
G54D10*
D03*
X26750Y-476250D02*
G54D10*
D03*
X128350Y-411400D02*
G54D11*
D03*
X128350Y-312500D02*
G54D11*
D03*
X261700Y-387350D02*
G54D10*
D03*
X261700Y-488950D02*
G54D10*
D03*
X-462200Y-469900D02*
G54D11*
D03*
X-582850Y-466726D02*
G54D11*
D03*
X-462200Y-349250D02*
G54D11*
D03*
X-582850Y-349250D02*
G54D11*
D03*
X-603962Y-409575D02*
G54D11*
D03*
X350460Y-346599D02*
G54D11*
D03*
X471110Y-349773D02*
G54D11*
D03*
X350460Y-467249D02*
G54D11*
D03*
X471110Y-467249D02*
G54D11*
D03*
X492223Y-406924D02*
G54D11*
D03*
X-366950Y-387350D02*
G54D11*
D03*
X-176450Y-469900D02*
G54D11*
D03*
X128350Y-476250D02*
G54D11*
D03*
X261700Y-488950D02*
G54D11*
D03*
X-582850Y-466726D02*
G54D16*
D03*
X-700842Y-434888D02*
G54D13*
D03*
X-700954Y-383908D02*
G54D13*
D03*
X-658727Y-456920D02*
G54D14*
D03*
X-658727Y-355320D02*
G54D14*
D03*
X-658727Y-456920D02*
G54D13*
D03*
X588208Y-447588D02*
G54D13*
D03*
X588096Y-396608D02*
G54D13*
D03*
X541423Y-456920D02*
G54D14*
D03*
X541423Y-355320D02*
G54D14*
D03*
X541423Y-456920D02*
G54D13*
D03*
X-658727Y-456920D02*
G54D11*
D03*
X-700842Y-434888D02*
G54D11*
D03*
X541423Y-456920D02*
G54D11*
D03*
X588208Y-447588D02*
G54D11*
D03*
X-366950Y-590550D02*
G54D10*
D03*
X-366950Y-692150D02*
G54D10*
D03*
X-227250Y-614600D02*
G54D11*
D03*
X-227250Y-515700D02*
G54D11*
D03*
X-176450Y-673100D02*
G54D10*
D03*
X-278050Y-673100D02*
G54D10*
D03*
X-98900Y-609600D02*
G54D11*
D03*
X0Y-609600D02*
G54D11*
D03*
X128350Y-679450D02*
G54D10*
D03*
X26750Y-679450D02*
G54D10*
D03*
X128350Y-614600D02*
G54D11*
D03*
X128350Y-515700D02*
G54D11*
D03*
X261700Y-590550D02*
G54D10*
D03*
X261700Y-692150D02*
G54D10*
D03*
X-462200Y-673100D02*
G54D11*
D03*
X-582850Y-669926D02*
G54D11*
D03*
X-462200Y-552450D02*
G54D11*
D03*
X-582850Y-552450D02*
G54D11*
D03*
X-603962Y-612775D02*
G54D11*
D03*
X350460Y-549798D02*
G54D11*
D03*
X471110Y-552973D02*
G54D11*
D03*
X350460Y-670449D02*
G54D11*
D03*
X471110Y-670449D02*
G54D11*
D03*
X492223Y-610124D02*
G54D11*
D03*
X-366950Y-590550D02*
G54D11*
D03*
X-176450Y-673100D02*
G54D11*
D03*
X128350Y-679450D02*
G54D11*
D03*
X261700Y-692150D02*
G54D11*
D03*
X-582850Y-669926D02*
G54D16*
D03*
X-700842Y-638088D02*
G54D13*
D03*
X-700954Y-587108D02*
G54D13*
D03*
X-658727Y-660120D02*
G54D14*
D03*
X-658727Y-558520D02*
G54D14*
D03*
X-658727Y-660120D02*
G54D13*
D03*
X588208Y-650788D02*
G54D13*
D03*
X588096Y-599808D02*
G54D13*
D03*
X541423Y-660120D02*
G54D14*
D03*
X541423Y-558520D02*
G54D14*
D03*
X541423Y-660120D02*
G54D13*
D03*
X-658727Y-660120D02*
G54D11*
D03*
X-700842Y-638088D02*
G54D11*
D03*
X541423Y-660120D02*
G54D11*
D03*
X588208Y-650788D02*
G54D11*
D03*
X-366950Y-793750D02*
G54D10*
D03*
X-366950Y-895350D02*
G54D10*
D03*
X-227250Y-817800D02*
G54D11*
D03*
X-227250Y-718900D02*
G54D11*
D03*
X-176450Y-876300D02*
G54D10*
D03*
X-278050Y-876300D02*
G54D10*
D03*
X-98900Y-812800D02*
G54D11*
D03*
X0Y-812800D02*
G54D11*
D03*
X128350Y-882650D02*
G54D10*
D03*
X26750Y-882650D02*
G54D10*
D03*
X128350Y-817800D02*
G54D11*
D03*
X128350Y-718900D02*
G54D11*
D03*
X261700Y-793750D02*
G54D10*
D03*
X261700Y-895350D02*
G54D10*
D03*
X-462200Y-876300D02*
G54D11*
D03*
X-582850Y-873126D02*
G54D11*
D03*
X-462200Y-755650D02*
G54D11*
D03*
X-582850Y-755650D02*
G54D11*
D03*
X-603962Y-815975D02*
G54D11*
D03*
X350460Y-752998D02*
G54D11*
D03*
X471110Y-756173D02*
G54D11*
D03*
X350460Y-873649D02*
G54D11*
D03*
X471110Y-873649D02*
G54D11*
D03*
X492223Y-813324D02*
G54D11*
D03*
X-366950Y-793750D02*
G54D11*
D03*
X-176450Y-876300D02*
G54D11*
D03*
X128350Y-882650D02*
G54D11*
D03*
X261700Y-895350D02*
G54D11*
D03*
X-582850Y-873126D02*
G54D16*
D03*
X-700842Y-841288D02*
G54D13*
D03*
X-700954Y-790308D02*
G54D13*
D03*
X-658727Y-863320D02*
G54D14*
D03*
X-658727Y-761720D02*
G54D14*
D03*
X-658727Y-863320D02*
G54D13*
D03*
X588208Y-853988D02*
G54D13*
D03*
X588096Y-803008D02*
G54D13*
D03*
X541423Y-863320D02*
G54D14*
D03*
X541423Y-761720D02*
G54D14*
D03*
X541423Y-863320D02*
G54D13*
D03*
X-658727Y-863320D02*
G54D11*
D03*
X-700842Y-841288D02*
G54D11*
D03*
X541423Y-863320D02*
G54D11*
D03*
X588208Y-853988D02*
G54D11*
D03*
X-366950Y-996950D02*
G54D10*
D03*
X-366950Y-1098550D02*
G54D10*
D03*
X-227250Y-1021000D02*
G54D11*
D03*
X-227250Y-922100D02*
G54D11*
D03*
X-176450Y-1079500D02*
G54D10*
D03*
X-278050Y-1079500D02*
G54D10*
D03*
X-98900Y-1016000D02*
G54D11*
D03*
X0Y-1016000D02*
G54D11*
D03*
X128350Y-1085850D02*
G54D10*
D03*
X26750Y-1085850D02*
G54D10*
D03*
X128350Y-1021000D02*
G54D11*
D03*
X128350Y-922100D02*
G54D11*
D03*
X261700Y-996950D02*
G54D10*
D03*
X261700Y-1098550D02*
G54D10*
D03*
X-462200Y-1079500D02*
G54D11*
D03*
X-582850Y-1076326D02*
G54D11*
D03*
X-462200Y-958850D02*
G54D11*
D03*
X-582850Y-958850D02*
G54D11*
D03*
X-603962Y-1019175D02*
G54D11*
D03*
X350460Y-956198D02*
G54D11*
D03*
X471110Y-959373D02*
G54D11*
D03*
X350460Y-1076849D02*
G54D11*
D03*
X471110Y-1076849D02*
G54D11*
D03*
X492223Y-1016524D02*
G54D11*
D03*
X-366950Y-996950D02*
G54D11*
D03*
X-176450Y-1079500D02*
G54D11*
D03*
X128350Y-1085850D02*
G54D11*
D03*
X261700Y-1098550D02*
G54D11*
D03*
X-582850Y-1076326D02*
G54D16*
D03*
X-700842Y-1044488D02*
G54D13*
D03*
X-700954Y-993508D02*
G54D13*
D03*
X-658727Y-1066520D02*
G54D14*
D03*
X-658727Y-964920D02*
G54D14*
D03*
X-658727Y-1066520D02*
G54D13*
D03*
X588208Y-1057188D02*
G54D13*
D03*
X588096Y-1006208D02*
G54D13*
D03*
X541423Y-1066520D02*
G54D14*
D03*
X541423Y-964920D02*
G54D14*
D03*
X541423Y-1066520D02*
G54D13*
D03*
X-658727Y-1066520D02*
G54D11*
D03*
X-700842Y-1044488D02*
G54D11*
D03*
X541423Y-1066520D02*
G54D11*
D03*
X588208Y-1057188D02*
G54D11*
D03*
X-544750Y209550D02*
G54D17*
D03*
X26750Y209550D02*
G54D17*
D03*
X191850Y209550D02*
G54D17*
D03*
X395050Y209550D02*
G54D17*
D03*
X-379650Y209550D02*
G54D17*
D03*
X-176450Y209550D02*
G54D17*
D03*
X-817825Y-408012D02*
G54D11*
D03*
X-767025Y-408012D02*
G54D11*
D03*
X-792425Y-433412D02*
G54D11*
D03*
X-767025Y-458812D02*
G54D11*
D03*
X-817825Y-458812D02*
G54D11*
D03*
G36*
X-559200Y376550D02*
X-533200Y376550D01*
X-533200Y350550D01*
X-559200Y350550D01*
X-559200Y376550D01*
G37*
G36*
X-396800Y376550D02*
X-370800Y376550D01*
X-370800Y350550D01*
X-396800Y350550D01*
X-396800Y376550D01*
G37*
X-805100Y345950D02*
G54D18*
D03*
G36*
X381200Y376550D02*
X407200Y376550D01*
X407200Y350550D01*
X381200Y350550D01*
X381200Y376550D01*
G37*
X803500Y345950D02*
G54D18*
D03*
G36*
X-529200Y-1155150D02*
X-503200Y-1155150D01*
X-503200Y-1181150D01*
X-529200Y-1181150D01*
X-529200Y-1155150D01*
G37*
G36*
X-376800Y-1155150D02*
X-350800Y-1155150D01*
X-350800Y-1181150D01*
X-376800Y-1181150D01*
X-376800Y-1155150D01*
G37*
X-805100Y-1180750D02*
G54D18*
D03*
G36*
X323600Y-1150150D02*
X349600Y-1150150D01*
X349600Y-1176150D01*
X323600Y-1176150D01*
X323600Y-1150150D01*
G37*
X803500Y-1180750D02*
G54D18*
D03*
G36*
X-808600Y-944250D02*
X-782600Y-944250D01*
X-782600Y-970250D01*
X-808600Y-970250D01*
X-808600Y-944250D01*
G37*
G36*
X-808600Y71750D02*
X-782600Y71750D01*
X-782600Y45750D01*
X-808600Y45750D01*
X-808600Y71750D01*
G37*
X-700842Y-28488D02*
G54D11*
D03*
X-700842Y-434889D02*
G54D11*
D03*
X-700842Y-841288D02*
G54D11*
D03*
X588208Y-244388D02*
G54D11*
D03*
X588208Y-650789D02*
G54D11*
D03*
X588208Y-1057189D02*
G54D11*
D03*
G36*
X438600Y-1150150D02*
X464600Y-1150150D01*
X464600Y-1176150D01*
X438600Y-1176150D01*
X438600Y-1150150D01*
G37*
X680800Y155900D02*
G54D19*
D03*
X782400Y155900D02*
G54D11*
D03*
X782400Y155900D02*
G54D19*
D03*
X680800Y155900D02*
G54D19*
D03*
X680800Y54300D02*
G54D11*
D03*
X680800Y54300D02*
G54D19*
D03*
X782400Y155900D02*
G54D19*
D03*
X782400Y54300D02*
G54D11*
D03*
X782400Y54300D02*
G54D19*
D03*
X680800Y54300D02*
G54D19*
D03*
X782400Y54300D02*
G54D19*
D03*
X680800Y-24100D02*
G54D19*
D03*
X782400Y-24100D02*
G54D11*
D03*
X782400Y-24100D02*
G54D19*
D03*
X680800Y-24100D02*
G54D19*
D03*
X680800Y-125700D02*
G54D11*
D03*
X680800Y-125700D02*
G54D19*
D03*
X782400Y-24100D02*
G54D19*
D03*
X782400Y-125700D02*
G54D11*
D03*
X782400Y-125700D02*
G54D19*
D03*
X680800Y-125700D02*
G54D19*
D03*
X782400Y-125700D02*
G54D19*
D03*
X680800Y-224100D02*
G54D19*
D03*
X782400Y-224100D02*
G54D11*
D03*
X782400Y-224100D02*
G54D19*
D03*
X680800Y-224100D02*
G54D19*
D03*
X680800Y-325700D02*
G54D11*
D03*
X680800Y-325700D02*
G54D19*
D03*
X782400Y-224100D02*
G54D19*
D03*
X782400Y-325700D02*
G54D11*
D03*
X782400Y-325700D02*
G54D19*
D03*
X680800Y-325700D02*
G54D19*
D03*
X782400Y-325700D02*
G54D19*
D03*
X675800Y-574100D02*
G54D19*
D03*
X777400Y-574100D02*
G54D11*
D03*
X777400Y-574100D02*
G54D19*
D03*
X675800Y-574100D02*
G54D19*
D03*
X675800Y-675700D02*
G54D11*
D03*
X675800Y-675700D02*
G54D19*
D03*
X777400Y-574100D02*
G54D19*
D03*
X777400Y-675700D02*
G54D11*
D03*
X777400Y-675700D02*
G54D19*
D03*
X675800Y-675700D02*
G54D19*
D03*
X777400Y-675700D02*
G54D19*
D03*
X675800Y-769100D02*
G54D19*
D03*
X777400Y-769100D02*
G54D11*
D03*
X777400Y-769100D02*
G54D19*
D03*
X675800Y-769100D02*
G54D19*
D03*
X675800Y-870700D02*
G54D11*
D03*
X675800Y-870700D02*
G54D19*
D03*
X777400Y-769100D02*
G54D19*
D03*
X777400Y-870700D02*
G54D11*
D03*
X777400Y-870700D02*
G54D19*
D03*
X675800Y-870700D02*
G54D19*
D03*
X777400Y-870700D02*
G54D19*
D03*
X675800Y-969100D02*
G54D19*
D03*
X777400Y-969100D02*
G54D11*
D03*
X777400Y-969100D02*
G54D19*
D03*
X675800Y-969100D02*
G54D19*
D03*
X675800Y-1070700D02*
G54D11*
D03*
X675800Y-1070700D02*
G54D19*
D03*
X777400Y-969100D02*
G54D19*
D03*
X777400Y-1070700D02*
G54D11*
D03*
X777400Y-1070700D02*
G54D19*
D03*
X675800Y-1070700D02*
G54D19*
D03*
X777400Y-1070700D02*
G54D19*
D03*
X692175Y-428012D02*
G54D11*
D03*
X742975Y-428012D02*
G54D11*
D03*
X717575Y-453412D02*
G54D11*
D03*
X742975Y-478812D02*
G54D11*
D03*
X692175Y-478812D02*
G54D11*
D03*
X801750Y-402850D02*
G54D11*
D03*
X801750Y-492850D02*
G54D11*
D03*
G36*
X-186800Y376550D02*
X-160800Y376550D01*
X-160800Y350550D01*
X-186800Y350550D01*
X-186800Y376550D01*
G37*
G36*
X13200Y376550D02*
X39200Y376550D01*
X39200Y350550D01*
X13200Y350550D01*
X13200Y376550D01*
G37*
G36*
X173200Y371550D02*
X199200Y371550D01*
X199200Y345550D01*
X173200Y345550D01*
X173200Y371550D01*
G37*
G36*
X-86400Y-1160150D02*
X-60400Y-1160150D01*
X-60400Y-1186150D01*
X-86400Y-1186150D01*
X-86400Y-1160150D01*
G37*
G36*
X28600Y-1160150D02*
X54600Y-1160150D01*
X54600Y-1186150D01*
X28600Y-1186150D01*
X28600Y-1160150D01*
G37*
G36*
X-808600Y-138250D02*
X-782600Y-138250D01*
X-782600Y-164250D01*
X-808600Y-164250D01*
X-808600Y-138250D01*
G37*
G36*
X-808600Y-698250D02*
X-782600Y-698250D01*
X-782600Y-724250D01*
X-808600Y-724250D01*
X-808600Y-698250D01*
G37*
M02*
