; Drill file
; Format: 2.4 (00.0000)
M48
INCH
T01C0.0283
T02C0.0315
T03C0.0354
T04C0.0394
T05C0.0591
T06C0.1299
%
G05
G90
T01
X-025930Y-037990
X-025930Y-029990
X-025930Y-021990
X-025930Y-013990
X-025930Y-005990
X-025930Y002010
X021320Y002010
X021320Y-005990
X021320Y-013990
X021320Y-021990
X021320Y-029990
X021320Y-037990
T02
X-014450Y-043250
X-010950Y-042500
X-010950Y-034500
X-014450Y-035250
X-014450Y-027250
X-010950Y-026500
X-010950Y-018500
X-014450Y-019250
X-014450Y-011250
X-010950Y-010500
X-010950Y-002500
X-014450Y-003250
X001050Y-002750
X001050Y-010750
X001050Y-018750
X001050Y-026750
X001050Y-034750
X001050Y-042750
X010300Y-039250
X010300Y-031250
X010300Y-023250
X010300Y-015250
X010300Y-007250
X010300Y000750
T03
X-031320Y-037690
X-027600Y-039110
X-027600Y-031110
X-031320Y-028000
X-027600Y-023110
X-027600Y-015110
X-027600Y-007110
X-031320Y-005950
X-027600Y000890
X-031320Y002310
X-021450Y008250
X-021500Y014310
X-015110Y014310
X-014950Y008250
X-006950Y008250
X-006840Y014310
X001030Y014310
X001050Y008250
X007550Y008250
X007330Y014120
X015520Y014310
X015550Y008250
X023150Y000390
X023150Y-007610
X023150Y-015610
X023150Y-023610
X023150Y-031610
X023150Y-039610
X017780Y-045790
X013250Y-045790
X001640Y-046190
X-002890Y-046190
X-014320Y-045990
X-020320Y-045990
T04
X-027590Y-041120
X-025930Y-041990
X-023780Y-040130
X-022950Y-042380
X-022950Y-037750
X-022950Y-034380
X-023780Y-032120
X-022950Y-029750
X-022950Y-026380
X-023780Y-024130
X-022950Y-021750
X-022950Y-018380
X-023780Y-016130
X-022950Y-013750
X-022950Y-010380
X-023780Y-008120
X-022950Y-005750
X-022950Y-002380
X-023780Y-000130
X-022950Y002250
X-018200Y002250
X-014450Y000750
X-018200Y-002500
X-018200Y-005750
X-014450Y-007250
X-018200Y-010500
X-018200Y-013750
X-014450Y-015250
X-018200Y-018500
X-018200Y-021750
X-014450Y-023250
X-018200Y-026500
X-018200Y-029750
X-014450Y-031250
X-018200Y-034500
X-018200Y-037750
X-014450Y-039250
X-018200Y-042500
X-008950Y-040200
X-006950Y-042500
X-003890Y-040000
X000000Y-040000
X005050Y-040200
X005050Y-042750
X010300Y-043250
X013800Y-042400
X018550Y-042400
X019380Y-040020
X018550Y-037770
X018550Y-034400
X019380Y-032020
X018550Y-029770
X018550Y-026400
X019380Y-024020
X018550Y-021770
X018550Y-018400
X019380Y-016020
X018550Y-013770
X018550Y-010400
X019380Y-008020
X018550Y-005770
X018550Y-002400
X019380Y-000020
X018550Y002230
X013800Y002350
X013800Y-002400
X013800Y-005650
X010300Y-003250
X005050Y-002750
X005050Y-004300
X005050Y-008200
X005050Y-010750
X005050Y-012300
X005050Y-016200
X005050Y-018750
X005050Y-020300
X005050Y-024200
X005050Y-026750
X005050Y-028300
X005050Y-032200
X005050Y-034750
X005050Y-036300
X010300Y-035250
X013800Y-034400
X013800Y-037650
X013800Y-029650
X013800Y-026400
X010300Y-027250
X013800Y-021650
X013800Y-018400
X010300Y-019250
X013800Y-013650
X013800Y-010400
X010300Y-011250
X000000Y-008000
X-003890Y-008000
X-006950Y-010500
X-008950Y-012300
X-008950Y-016200
X-006950Y-018500
X-008950Y-020300
X-008950Y-024200
X-006950Y-026500
X-008950Y-028300
X-008950Y-032200
X-006950Y-034500
X-008950Y-036300
X-003890Y-032000
X000000Y-032000
X000000Y-024000
X-003890Y-024000
X-003890Y-016000
X000000Y-016000
X-008950Y-008200
X-008950Y-004300
X-006950Y-002500
X-008950Y-000200
X-008950Y003700
X-003890Y000000
X000000Y000000
X005050Y-000200
X005050Y003700
X021320Y-001990
X023160Y-001620
X023160Y-009620
X021320Y-009990
X023160Y-017620
X021320Y-017990
X027250Y-018850
X028250Y-017850
X027250Y-016850
X029250Y-016850
X029250Y-018850
X031560Y-019400
X031560Y-015860
X023160Y-025620
X021320Y-025990
X023160Y-033620
X021320Y-033990
X023160Y-041620
X021320Y-041990
X-025930Y-033990
X-027590Y-033120
X-025930Y-025990
X-027590Y-025120
X-025930Y-017990
X-027590Y-017120
X-030200Y-018060
X-031200Y-017060
X-032200Y-016060
X-030200Y-016060
X-032200Y-018060
X-027590Y-009120
X-025930Y-009990
X-025930Y-001990
X-027590Y-001120
T05
X026610Y-042150
X026610Y-038150
X026610Y-034280
X026610Y-030280
X026610Y-026600
X026610Y-022600
X030610Y-022600
X030610Y-026600
X030610Y-030280
X030610Y-034280
X030610Y-038150
X030610Y-042150
X030800Y-012820
X030800Y-008820
X030800Y-004950
X030800Y-000950
X030800Y002140
X030800Y006140
X026800Y006140
X026800Y002140
X026800Y-000950
X026800Y-004950
X026800Y-008820
X026800Y-012820
T06
X-031700Y-046490
X-031700Y013620
X031630Y013620
X031630Y-046490
M30
