%FSLAX34Y34*%
%MOMM*%
%LNSILK_TOP*%
G71*
G01*
%ADD10C,0.150*%
%ADD11C,0.400*%
%ADD12C,0.222*%
%ADD13C,0.167*%
%ADD14C,0.111*%
%ADD15C,0.144*%
%ADD16C,0.333*%
%ADD17C,0.200*%
%LPD*%
G54D10*
X-351850Y29450D02*
X-382050Y29450D01*
X-382050Y-92950D01*
X-351850Y-92950D01*
X-351850Y29450D01*
G54D10*
X-358950Y-30350D02*
X-374950Y-30350D01*
G54D10*
X-358950Y-33550D02*
X-374950Y-33550D01*
G54D10*
X-366950Y6150D02*
X-366950Y-30350D01*
G54D10*
X-366950Y-33550D02*
X-366950Y-70050D01*
G54D11*
X-328850Y0D02*
X-328850Y88900D01*
X-125650Y88900D01*
X-125650Y0D01*
X-328850Y0D01*
G54D10*
X-166050Y-78600D02*
X-166050Y-48400D01*
X-288450Y-48400D01*
X-288450Y-78600D01*
X-166050Y-78600D01*
G54D10*
X-225850Y-71500D02*
X-225850Y-55500D01*
G54D10*
X-229050Y-71500D02*
X-229050Y-55500D01*
G54D10*
X-189350Y-63500D02*
X-225850Y-63500D01*
G54D10*
X-229050Y-63500D02*
X-265550Y-63500D01*
G54D11*
X-93900Y101600D02*
X-5000Y101600D01*
X-5000Y-101600D01*
X-93900Y-101600D01*
X-93900Y101600D01*
G54D10*
X138750Y-84950D02*
X138750Y-54750D01*
X16350Y-54750D01*
X16350Y-84950D01*
X138750Y-84950D01*
G54D10*
X78950Y-77850D02*
X78950Y-61850D01*
G54D10*
X75750Y-77850D02*
X75750Y-61850D01*
G54D10*
X115450Y-69850D02*
X78950Y-69850D01*
G54D10*
X75750Y-69850D02*
X39250Y-69850D01*
G54D11*
X26750Y0D02*
X26750Y88900D01*
X229950Y88900D01*
X229950Y0D01*
X26750Y0D01*
G54D10*
X276800Y29450D02*
X246600Y29450D01*
X246600Y-92950D01*
X276800Y-92950D01*
X276800Y29450D01*
G54D10*
X269700Y-30350D02*
X253700Y-30350D01*
G54D10*
X269700Y-33550D02*
X253700Y-33550D01*
G54D10*
X261700Y6150D02*
X261700Y-30350D01*
G54D10*
X261700Y-33550D02*
X261700Y-70050D01*
G54D11*
X-626178Y85419D02*
X-429328Y85419D01*
X-429328Y-86031D01*
X-626178Y-86031D01*
X-626178Y85419D01*
G54D12*
X-475024Y28048D02*
X-475024Y38048D01*
G54D12*
X-475024Y35826D02*
X-473690Y37382D01*
X-471024Y38048D01*
X-468357Y37382D01*
X-467024Y35826D01*
X-467023Y28048D01*
G54D12*
X-455468Y37382D02*
X-458134Y38048D01*
X-460801Y37382D01*
X-462134Y35159D01*
X-462134Y30715D01*
X-460801Y28493D01*
X-458134Y28048D01*
X-455468Y28493D01*
G54D12*
X-472829Y-41446D02*
X-472829Y-31446D01*
G54D12*
X-472829Y-33668D02*
X-471496Y-32113D01*
X-468829Y-31446D01*
X-466162Y-32113D01*
X-464829Y-33668D01*
X-464829Y-41446D01*
G54D12*
X-459940Y-32557D02*
X-457273Y-31446D01*
X-454074Y-31446D01*
X-451940Y-33668D01*
X-451940Y-41446D01*
G54D12*
X-451940Y-38113D02*
X-453273Y-35890D01*
X-455940Y-35446D01*
X-458607Y-35890D01*
X-459940Y-38113D01*
X-459407Y-40335D01*
X-457274Y-41446D01*
X-455940Y-41446D01*
X-455407Y-41446D01*
X-453273Y-40335D01*
X-451940Y-38113D01*
G54D11*
X514438Y-89118D02*
X317588Y-89118D01*
X317588Y82332D01*
X514438Y82332D01*
X514438Y-89118D01*
G54D12*
X343772Y-41729D02*
X343772Y-31729D01*
G54D12*
X343772Y-33951D02*
X345105Y-32396D01*
X347772Y-31729D01*
X350438Y-32396D01*
X351772Y-33951D01*
X351772Y-41729D01*
G54D12*
X363327Y-32396D02*
X360661Y-31729D01*
X357994Y-32396D01*
X356661Y-34618D01*
X356660Y-39062D01*
X357994Y-41285D01*
X360661Y-41729D01*
X363327Y-41284D01*
G54D12*
X340200Y27747D02*
X340200Y37747D01*
G54D12*
X340200Y35524D02*
X341533Y37080D01*
X344200Y37747D01*
X346867Y37080D01*
X348200Y35524D01*
X348200Y27747D01*
G54D12*
X353089Y36636D02*
X355756Y37747D01*
X358956Y37747D01*
X361089Y35524D01*
X361089Y27747D01*
G54D12*
X361089Y31080D02*
X359756Y33302D01*
X357089Y33747D01*
X354422Y33302D01*
X353089Y31080D01*
X353622Y28858D01*
X355756Y27747D01*
X357089Y27747D01*
X357622Y27747D01*
X359756Y28858D01*
X361089Y31080D01*
G54D10*
X-713675Y-38703D02*
X-688275Y-38704D01*
X-688275Y32897D01*
X-713675Y32896D01*
X-713675Y-38703D01*
G54D13*
X-682884Y13952D02*
X-682884Y13952D01*
G54D10*
X-645027Y-37820D02*
X-672427Y-37820D01*
X-672427Y38380D01*
X-645027Y38380D01*
X-645027Y-37820D01*
G54D10*
X-672427Y32080D02*
X-645027Y32080D01*
G54D14*
X-662482Y65297D02*
X-662482Y65297D01*
G54D10*
X575375Y-51403D02*
X600775Y-51404D01*
X600775Y20197D01*
X575375Y20196D01*
X575375Y-51403D01*
G54D13*
X606166Y1252D02*
X606166Y1252D01*
G54D10*
X555123Y-37820D02*
X527723Y-37820D01*
X527723Y38380D01*
X555123Y38380D01*
X555123Y-37820D01*
G54D10*
X527723Y32080D02*
X555123Y32080D01*
G54D14*
X537668Y1797D02*
X537668Y1797D01*
G54D10*
X-351850Y-173750D02*
X-382050Y-173750D01*
X-382050Y-296150D01*
X-351850Y-296150D01*
X-351850Y-173750D01*
G54D10*
X-358950Y-233550D02*
X-374950Y-233550D01*
G54D10*
X-358950Y-236750D02*
X-374950Y-236750D01*
G54D10*
X-366950Y-197050D02*
X-366950Y-233550D01*
G54D10*
X-366950Y-236750D02*
X-366950Y-273250D01*
G54D11*
X-328850Y-203200D02*
X-328850Y-114300D01*
X-125650Y-114300D01*
X-125650Y-203200D01*
X-328850Y-203200D01*
G54D10*
X-166050Y-281800D02*
X-166050Y-251600D01*
X-288450Y-251600D01*
X-288450Y-281800D01*
X-166050Y-281800D01*
G54D10*
X-225850Y-274700D02*
X-225850Y-258700D01*
G54D10*
X-229050Y-274700D02*
X-229050Y-258700D01*
G54D10*
X-189350Y-266700D02*
X-225850Y-266700D01*
G54D10*
X-229050Y-266700D02*
X-265550Y-266700D01*
G54D11*
X-93900Y-101600D02*
X-5000Y-101600D01*
X-5000Y-304800D01*
X-93900Y-304800D01*
X-93900Y-101600D01*
G54D10*
X138750Y-288150D02*
X138750Y-257950D01*
X16350Y-257950D01*
X16350Y-288150D01*
X138750Y-288150D01*
G54D10*
X78950Y-281050D02*
X78950Y-265050D01*
G54D10*
X75750Y-281050D02*
X75750Y-265050D01*
G54D10*
X115450Y-273050D02*
X78950Y-273050D01*
G54D10*
X75750Y-273050D02*
X39250Y-273050D01*
G54D11*
X26750Y-203200D02*
X26750Y-114300D01*
X229950Y-114300D01*
X229950Y-203200D01*
X26750Y-203200D01*
G54D10*
X276800Y-173750D02*
X246600Y-173750D01*
X246600Y-296150D01*
X276800Y-296150D01*
X276800Y-173750D01*
G54D10*
X269700Y-233550D02*
X253700Y-233550D01*
G54D10*
X269700Y-236750D02*
X253700Y-236750D01*
G54D10*
X261700Y-197050D02*
X261700Y-233550D01*
G54D10*
X261700Y-236750D02*
X261700Y-273250D01*
G54D11*
X-626178Y-117781D02*
X-429328Y-117781D01*
X-429328Y-289231D01*
X-626178Y-289231D01*
X-626178Y-117781D01*
G54D12*
X-475024Y-175152D02*
X-475024Y-165152D01*
G54D12*
X-475024Y-167374D02*
X-473690Y-165818D01*
X-471024Y-165152D01*
X-468357Y-165818D01*
X-467024Y-167374D01*
X-467023Y-175152D01*
G54D12*
X-455468Y-165818D02*
X-458134Y-165152D01*
X-460801Y-165818D01*
X-462134Y-168041D01*
X-462134Y-172485D01*
X-460801Y-174707D01*
X-458134Y-175152D01*
X-455468Y-174707D01*
G54D12*
X-472829Y-244646D02*
X-472829Y-234646D01*
G54D12*
X-472829Y-236868D02*
X-471496Y-235313D01*
X-468829Y-234646D01*
X-466162Y-235313D01*
X-464829Y-236868D01*
X-464829Y-244646D01*
G54D12*
X-459940Y-235757D02*
X-457273Y-234646D01*
X-454074Y-234646D01*
X-451940Y-236868D01*
X-451940Y-244646D01*
G54D12*
X-451940Y-241313D02*
X-453273Y-239090D01*
X-455940Y-238646D01*
X-458607Y-239090D01*
X-459940Y-241313D01*
X-459407Y-243535D01*
X-457274Y-244646D01*
X-455940Y-244646D01*
X-455407Y-244646D01*
X-453273Y-243535D01*
X-451940Y-241313D01*
G54D11*
X514438Y-292318D02*
X317588Y-292318D01*
X317588Y-120868D01*
X514438Y-120868D01*
X514438Y-292318D01*
G54D12*
X343772Y-244929D02*
X343772Y-234929D01*
G54D12*
X343772Y-237151D02*
X345105Y-235596D01*
X347772Y-234929D01*
X350438Y-235596D01*
X351772Y-237151D01*
X351772Y-244929D01*
G54D12*
X363327Y-235596D02*
X360661Y-234929D01*
X357994Y-235596D01*
X356661Y-237818D01*
X356660Y-242262D01*
X357994Y-244485D01*
X360661Y-244929D01*
X363327Y-244484D01*
G54D12*
X340200Y-175453D02*
X340200Y-165453D01*
G54D12*
X340200Y-167676D02*
X341533Y-166120D01*
X344200Y-165453D01*
X346867Y-166120D01*
X348200Y-167676D01*
X348200Y-175453D01*
G54D12*
X353089Y-166564D02*
X355756Y-165453D01*
X358956Y-165453D01*
X361089Y-167676D01*
X361089Y-175453D01*
G54D12*
X361089Y-172120D02*
X359756Y-169898D01*
X357089Y-169453D01*
X354422Y-169898D01*
X353089Y-172120D01*
X353622Y-174342D01*
X355756Y-175453D01*
X357089Y-175453D01*
X357622Y-175453D01*
X359756Y-174342D01*
X361089Y-172120D01*
G54D10*
X-713675Y-241903D02*
X-688275Y-241904D01*
X-688275Y-170303D01*
X-713675Y-170304D01*
X-713675Y-241903D01*
G54D13*
X-682884Y-189248D02*
X-682884Y-189248D01*
G54D10*
X-645027Y-241020D02*
X-672427Y-241020D01*
X-672427Y-164820D01*
X-645027Y-164820D01*
X-645027Y-241020D01*
G54D10*
X-672427Y-171120D02*
X-645027Y-171120D01*
G54D14*
X-662482Y-137903D02*
X-662482Y-137903D01*
G54D10*
X575375Y-254603D02*
X600775Y-254604D01*
X600775Y-183003D01*
X575375Y-183004D01*
X575375Y-254603D01*
G54D13*
X606166Y-201948D02*
X606166Y-201948D01*
G54D10*
X555123Y-241020D02*
X527723Y-241020D01*
X527723Y-164820D01*
X555123Y-164820D01*
X555123Y-241020D01*
G54D10*
X527723Y-171120D02*
X555123Y-171120D01*
G54D14*
X537668Y-201403D02*
X537668Y-201403D01*
G54D10*
X-351850Y-376950D02*
X-382050Y-376950D01*
X-382050Y-499350D01*
X-351850Y-499350D01*
X-351850Y-376950D01*
G54D10*
X-358950Y-436750D02*
X-374950Y-436750D01*
G54D10*
X-358950Y-439950D02*
X-374950Y-439950D01*
G54D10*
X-366950Y-400250D02*
X-366950Y-436750D01*
G54D10*
X-366950Y-439950D02*
X-366950Y-476450D01*
G54D11*
X-328850Y-406400D02*
X-328850Y-317500D01*
X-125650Y-317500D01*
X-125650Y-406400D01*
X-328850Y-406400D01*
G54D10*
X-166050Y-485000D02*
X-166050Y-454800D01*
X-288450Y-454800D01*
X-288450Y-485000D01*
X-166050Y-485000D01*
G54D10*
X-225850Y-477900D02*
X-225850Y-461900D01*
G54D10*
X-229050Y-477900D02*
X-229050Y-461900D01*
G54D10*
X-189350Y-469900D02*
X-225850Y-469900D01*
G54D10*
X-229050Y-469900D02*
X-265550Y-469900D01*
G54D11*
X-93900Y-304800D02*
X-5000Y-304800D01*
X-5000Y-508000D01*
X-93900Y-508000D01*
X-93900Y-304800D01*
G54D10*
X138750Y-491350D02*
X138750Y-461150D01*
X16350Y-461150D01*
X16350Y-491350D01*
X138750Y-491350D01*
G54D10*
X78950Y-484250D02*
X78950Y-468250D01*
G54D10*
X75750Y-484250D02*
X75750Y-468250D01*
G54D10*
X115450Y-476250D02*
X78950Y-476250D01*
G54D10*
X75750Y-476250D02*
X39250Y-476250D01*
G54D11*
X26750Y-406400D02*
X26750Y-317500D01*
X229950Y-317500D01*
X229950Y-406400D01*
X26750Y-406400D01*
G54D10*
X276800Y-376950D02*
X246600Y-376950D01*
X246600Y-499350D01*
X276800Y-499350D01*
X276800Y-376950D01*
G54D10*
X269700Y-436750D02*
X253700Y-436750D01*
G54D10*
X269700Y-439950D02*
X253700Y-439950D01*
G54D10*
X261700Y-400250D02*
X261700Y-436750D01*
G54D10*
X261700Y-439950D02*
X261700Y-476450D01*
G54D11*
X-626178Y-320981D02*
X-429328Y-320981D01*
X-429328Y-492431D01*
X-626178Y-492431D01*
X-626178Y-320981D01*
G54D12*
X-475024Y-378352D02*
X-475024Y-368352D01*
G54D12*
X-475024Y-370574D02*
X-473690Y-369018D01*
X-471024Y-368352D01*
X-468357Y-369018D01*
X-467024Y-370574D01*
X-467023Y-378352D01*
G54D12*
X-455468Y-369018D02*
X-458134Y-368352D01*
X-460801Y-369018D01*
X-462134Y-371240D01*
X-462134Y-375685D01*
X-460801Y-377908D01*
X-458134Y-378352D01*
X-455468Y-377907D01*
G54D12*
X-472829Y-447846D02*
X-472829Y-437846D01*
G54D12*
X-472829Y-440068D02*
X-471496Y-438513D01*
X-468829Y-437846D01*
X-466162Y-438513D01*
X-464829Y-440068D01*
X-464829Y-447846D01*
G54D12*
X-459940Y-438957D02*
X-457273Y-437846D01*
X-454074Y-437846D01*
X-451940Y-440068D01*
X-451940Y-447846D01*
G54D12*
X-451940Y-444513D02*
X-453273Y-442290D01*
X-455940Y-441846D01*
X-458607Y-442290D01*
X-459940Y-444512D01*
X-459407Y-446735D01*
X-457274Y-447846D01*
X-455940Y-447846D01*
X-455407Y-447846D01*
X-453273Y-446735D01*
X-451940Y-444513D01*
G54D11*
X514438Y-495518D02*
X317588Y-495518D01*
X317588Y-324068D01*
X514438Y-324068D01*
X514438Y-495518D01*
G54D12*
X343772Y-448129D02*
X343772Y-438129D01*
G54D12*
X343772Y-440351D02*
X345105Y-438796D01*
X347772Y-438129D01*
X350438Y-438796D01*
X351772Y-440351D01*
X351772Y-448129D01*
G54D12*
X363327Y-438796D02*
X360661Y-438129D01*
X357994Y-438796D01*
X356661Y-441018D01*
X356660Y-445462D01*
X357994Y-447685D01*
X360661Y-448129D01*
X363327Y-447684D01*
G54D12*
X340200Y-378653D02*
X340200Y-368653D01*
G54D12*
X340200Y-370876D02*
X341533Y-369320D01*
X344200Y-368653D01*
X346867Y-369320D01*
X348200Y-370876D01*
X348200Y-378653D01*
G54D12*
X353089Y-369764D02*
X355756Y-368654D01*
X358956Y-368653D01*
X361089Y-370876D01*
X361089Y-378654D01*
G54D12*
X361089Y-375320D02*
X359756Y-373098D01*
X357089Y-372653D01*
X354422Y-373098D01*
X353089Y-375320D01*
X353622Y-377542D01*
X355756Y-378653D01*
X357089Y-378653D01*
X357622Y-378653D01*
X359756Y-377542D01*
X361089Y-375320D01*
G54D10*
X-713675Y-445104D02*
X-688275Y-445104D01*
X-688275Y-373504D01*
X-713675Y-373504D01*
X-713675Y-445104D01*
G54D13*
X-682884Y-392448D02*
X-682884Y-392448D01*
G54D10*
X-645027Y-444220D02*
X-672427Y-444220D01*
X-672427Y-368020D01*
X-645027Y-368020D01*
X-645027Y-444220D01*
G54D10*
X-672427Y-374320D02*
X-645027Y-374320D01*
G54D14*
X-662482Y-341103D02*
X-662482Y-341103D01*
G54D10*
X575375Y-457804D02*
X600775Y-457804D01*
X600775Y-386204D01*
X575375Y-386204D01*
X575375Y-457804D01*
G54D13*
X606166Y-405148D02*
X606166Y-405148D01*
G54D10*
X555123Y-444220D02*
X527723Y-444220D01*
X527723Y-368020D01*
X555123Y-368020D01*
X555123Y-444220D01*
G54D10*
X527723Y-374320D02*
X555123Y-374320D01*
G54D14*
X537668Y-404604D02*
X537668Y-404604D01*
G54D10*
X-351850Y-580150D02*
X-382050Y-580150D01*
X-382050Y-702550D01*
X-351850Y-702550D01*
X-351850Y-580150D01*
G54D10*
X-358950Y-639950D02*
X-374950Y-639950D01*
G54D10*
X-358950Y-643150D02*
X-374950Y-643150D01*
G54D10*
X-366950Y-603450D02*
X-366950Y-639950D01*
G54D10*
X-366950Y-643150D02*
X-366950Y-679650D01*
G54D11*
X-328850Y-609600D02*
X-328850Y-520700D01*
X-125650Y-520700D01*
X-125650Y-609600D01*
X-328850Y-609600D01*
G54D10*
X-166050Y-688200D02*
X-166050Y-658000D01*
X-288450Y-658000D01*
X-288450Y-688200D01*
X-166050Y-688200D01*
G54D10*
X-225850Y-681100D02*
X-225850Y-665100D01*
G54D10*
X-229050Y-681100D02*
X-229050Y-665100D01*
G54D10*
X-189350Y-673100D02*
X-225850Y-673100D01*
G54D10*
X-229050Y-673100D02*
X-265550Y-673100D01*
G54D11*
X-93900Y-508000D02*
X-5000Y-508000D01*
X-5000Y-711200D01*
X-93900Y-711200D01*
X-93900Y-508000D01*
G54D10*
X138750Y-694550D02*
X138750Y-664350D01*
X16350Y-664350D01*
X16350Y-694550D01*
X138750Y-694550D01*
G54D10*
X78950Y-687450D02*
X78950Y-671450D01*
G54D10*
X75750Y-687450D02*
X75750Y-671450D01*
G54D10*
X115450Y-679450D02*
X78950Y-679450D01*
G54D10*
X75750Y-679450D02*
X39250Y-679450D01*
G54D11*
X26750Y-609600D02*
X26750Y-520700D01*
X229950Y-520700D01*
X229950Y-609600D01*
X26750Y-609600D01*
G54D10*
X276800Y-580150D02*
X246600Y-580150D01*
X246600Y-702550D01*
X276800Y-702550D01*
X276800Y-580150D01*
G54D10*
X269700Y-639950D02*
X253700Y-639950D01*
G54D10*
X269700Y-643150D02*
X253700Y-643150D01*
G54D10*
X261700Y-603450D02*
X261700Y-639950D01*
G54D10*
X261700Y-643150D02*
X261700Y-679650D01*
G54D11*
X-626178Y-524181D02*
X-429328Y-524181D01*
X-429328Y-695631D01*
X-626178Y-695631D01*
X-626178Y-524181D01*
G54D12*
X-475024Y-581552D02*
X-475024Y-571552D01*
G54D12*
X-475024Y-573774D02*
X-473690Y-572218D01*
X-471024Y-571552D01*
X-468357Y-572218D01*
X-467024Y-573774D01*
X-467023Y-581552D01*
G54D12*
X-455468Y-572218D02*
X-458134Y-571552D01*
X-460801Y-572218D01*
X-462134Y-574440D01*
X-462134Y-578885D01*
X-460801Y-581108D01*
X-458134Y-581552D01*
X-455468Y-581107D01*
G54D12*
X-472829Y-651046D02*
X-472829Y-641046D01*
G54D12*
X-472829Y-643268D02*
X-471496Y-641713D01*
X-468829Y-641046D01*
X-466162Y-641713D01*
X-464829Y-643268D01*
X-464829Y-651046D01*
G54D12*
X-459940Y-642157D02*
X-457273Y-641046D01*
X-454074Y-641046D01*
X-451940Y-643268D01*
X-451940Y-651046D01*
G54D12*
X-451940Y-647713D02*
X-453273Y-645490D01*
X-455940Y-645046D01*
X-458607Y-645490D01*
X-459940Y-647712D01*
X-459407Y-649935D01*
X-457274Y-651046D01*
X-455940Y-651046D01*
X-455407Y-651046D01*
X-453273Y-649935D01*
X-451940Y-647713D01*
G54D11*
X514438Y-698718D02*
X317588Y-698718D01*
X317588Y-527268D01*
X514438Y-527268D01*
X514438Y-698718D01*
G54D12*
X343772Y-651329D02*
X343772Y-641329D01*
G54D12*
X343772Y-643551D02*
X345105Y-641996D01*
X347772Y-641329D01*
X350438Y-641996D01*
X351772Y-643551D01*
X351772Y-651329D01*
G54D12*
X363327Y-641996D02*
X360661Y-641329D01*
X357994Y-641996D01*
X356661Y-644218D01*
X356660Y-648662D01*
X357994Y-650885D01*
X360661Y-651329D01*
X363327Y-650884D01*
G54D12*
X340200Y-581853D02*
X340200Y-571853D01*
G54D12*
X340200Y-574076D02*
X341533Y-572520D01*
X344200Y-571853D01*
X346867Y-572520D01*
X348200Y-574076D01*
X348200Y-581853D01*
G54D12*
X353089Y-572964D02*
X355756Y-571854D01*
X358956Y-571853D01*
X361089Y-574076D01*
X361089Y-581854D01*
G54D12*
X361089Y-578520D02*
X359756Y-576298D01*
X357089Y-575853D01*
X354422Y-576298D01*
X353089Y-578520D01*
X353622Y-580742D01*
X355756Y-581853D01*
X357089Y-581853D01*
X357622Y-581853D01*
X359756Y-580742D01*
X361089Y-578520D01*
G54D10*
X-713675Y-648304D02*
X-688275Y-648304D01*
X-688275Y-576704D01*
X-713675Y-576704D01*
X-713675Y-648304D01*
G54D13*
X-682884Y-595648D02*
X-682884Y-595648D01*
G54D10*
X-645027Y-647420D02*
X-672427Y-647420D01*
X-672427Y-571220D01*
X-645027Y-571220D01*
X-645027Y-647420D01*
G54D10*
X-672427Y-577520D02*
X-645027Y-577520D01*
G54D14*
X-662482Y-544304D02*
X-662482Y-544304D01*
G54D10*
X575375Y-661004D02*
X600775Y-661004D01*
X600775Y-589404D01*
X575375Y-589404D01*
X575375Y-661004D01*
G54D13*
X606166Y-608348D02*
X606166Y-608348D01*
G54D10*
X555123Y-647420D02*
X527723Y-647420D01*
X527723Y-571220D01*
X555123Y-571220D01*
X555123Y-647420D01*
G54D10*
X527723Y-577520D02*
X555123Y-577520D01*
G54D14*
X537668Y-607804D02*
X537668Y-607804D01*
G54D10*
X-351850Y-783350D02*
X-382050Y-783350D01*
X-382050Y-905750D01*
X-351850Y-905750D01*
X-351850Y-783350D01*
G54D10*
X-358950Y-843150D02*
X-374950Y-843150D01*
G54D10*
X-358950Y-846350D02*
X-374950Y-846350D01*
G54D10*
X-366950Y-806650D02*
X-366950Y-843150D01*
G54D10*
X-366950Y-846350D02*
X-366950Y-882850D01*
G54D11*
X-328850Y-812800D02*
X-328850Y-723900D01*
X-125650Y-723900D01*
X-125650Y-812800D01*
X-328850Y-812800D01*
G54D10*
X-166050Y-891400D02*
X-166050Y-861200D01*
X-288450Y-861200D01*
X-288450Y-891400D01*
X-166050Y-891400D01*
G54D10*
X-225850Y-884300D02*
X-225850Y-868300D01*
G54D10*
X-229050Y-884300D02*
X-229050Y-868300D01*
G54D10*
X-189350Y-876300D02*
X-225850Y-876300D01*
G54D10*
X-229050Y-876300D02*
X-265550Y-876300D01*
G54D11*
X-93900Y-711200D02*
X-5000Y-711200D01*
X-5000Y-914400D01*
X-93900Y-914400D01*
X-93900Y-711200D01*
G54D10*
X138750Y-897750D02*
X138750Y-867550D01*
X16350Y-867550D01*
X16350Y-897750D01*
X138750Y-897750D01*
G54D10*
X78950Y-890650D02*
X78950Y-874650D01*
G54D10*
X75750Y-890650D02*
X75750Y-874650D01*
G54D10*
X115450Y-882650D02*
X78950Y-882650D01*
G54D10*
X75750Y-882650D02*
X39250Y-882650D01*
G54D11*
X26750Y-812800D02*
X26750Y-723900D01*
X229950Y-723900D01*
X229950Y-812800D01*
X26750Y-812800D01*
G54D10*
X276800Y-783350D02*
X246600Y-783350D01*
X246600Y-905750D01*
X276800Y-905750D01*
X276800Y-783350D01*
G54D10*
X269700Y-843150D02*
X253700Y-843150D01*
G54D10*
X269700Y-846350D02*
X253700Y-846350D01*
G54D10*
X261700Y-806650D02*
X261700Y-843150D01*
G54D10*
X261700Y-846350D02*
X261700Y-882850D01*
G54D11*
X-626178Y-727381D02*
X-429328Y-727381D01*
X-429328Y-898831D01*
X-626178Y-898831D01*
X-626178Y-727381D01*
G54D12*
X-475024Y-784752D02*
X-475024Y-774752D01*
G54D12*
X-475024Y-776974D02*
X-473690Y-775418D01*
X-471024Y-774752D01*
X-468357Y-775418D01*
X-467024Y-776974D01*
X-467023Y-784752D01*
G54D12*
X-455468Y-775418D02*
X-458134Y-774752D01*
X-460801Y-775418D01*
X-462134Y-777640D01*
X-462134Y-782085D01*
X-460801Y-784308D01*
X-458134Y-784752D01*
X-455468Y-784307D01*
G54D12*
X-472829Y-854246D02*
X-472829Y-844246D01*
G54D12*
X-472829Y-846468D02*
X-471496Y-844913D01*
X-468829Y-844246D01*
X-466162Y-844913D01*
X-464829Y-846468D01*
X-464829Y-854246D01*
G54D12*
X-459940Y-845357D02*
X-457273Y-844246D01*
X-454074Y-844246D01*
X-451940Y-846468D01*
X-451940Y-854246D01*
G54D12*
X-451940Y-850913D02*
X-453273Y-848690D01*
X-455940Y-848246D01*
X-458607Y-848690D01*
X-459940Y-850912D01*
X-459407Y-853135D01*
X-457274Y-854246D01*
X-455940Y-854246D01*
X-455407Y-854246D01*
X-453273Y-853135D01*
X-451940Y-850913D01*
G54D11*
X514438Y-901918D02*
X317588Y-901918D01*
X317588Y-730468D01*
X514438Y-730468D01*
X514438Y-901918D01*
G54D12*
X343772Y-854529D02*
X343772Y-844529D01*
G54D12*
X343772Y-846751D02*
X345105Y-845196D01*
X347772Y-844529D01*
X350438Y-845196D01*
X351772Y-846751D01*
X351772Y-854529D01*
G54D12*
X363327Y-845196D02*
X360661Y-844529D01*
X357994Y-845196D01*
X356661Y-847418D01*
X356660Y-851862D01*
X357994Y-854085D01*
X360661Y-854529D01*
X363327Y-854084D01*
G54D12*
X340200Y-785053D02*
X340200Y-775053D01*
G54D12*
X340200Y-777276D02*
X341533Y-775720D01*
X344200Y-775053D01*
X346867Y-775720D01*
X348200Y-777276D01*
X348200Y-785053D01*
G54D12*
X353089Y-776164D02*
X355756Y-775054D01*
X358956Y-775053D01*
X361089Y-777276D01*
X361089Y-785054D01*
G54D12*
X361089Y-781720D02*
X359756Y-779498D01*
X357089Y-779053D01*
X354422Y-779498D01*
X353089Y-781720D01*
X353622Y-783942D01*
X355756Y-785053D01*
X357089Y-785053D01*
X357622Y-785053D01*
X359756Y-783942D01*
X361089Y-781720D01*
G54D10*
X-713675Y-851504D02*
X-688275Y-851504D01*
X-688275Y-779904D01*
X-713675Y-779904D01*
X-713675Y-851504D01*
G54D13*
X-682884Y-798848D02*
X-682884Y-798848D01*
G54D10*
X-645027Y-850620D02*
X-672427Y-850620D01*
X-672427Y-774420D01*
X-645027Y-774420D01*
X-645027Y-850620D01*
G54D10*
X-672427Y-780720D02*
X-645027Y-780720D01*
G54D14*
X-662482Y-747504D02*
X-662482Y-747504D01*
G54D10*
X575375Y-864204D02*
X600775Y-864204D01*
X600775Y-792604D01*
X575375Y-792604D01*
X575375Y-864204D01*
G54D13*
X606166Y-811548D02*
X606166Y-811548D01*
G54D10*
X555123Y-850620D02*
X527723Y-850620D01*
X527723Y-774420D01*
X555123Y-774420D01*
X555123Y-850620D01*
G54D10*
X527723Y-780720D02*
X555123Y-780720D01*
G54D14*
X537668Y-811004D02*
X537668Y-811004D01*
G54D10*
X-351850Y-986550D02*
X-382050Y-986550D01*
X-382050Y-1108950D01*
X-351850Y-1108950D01*
X-351850Y-986550D01*
G54D10*
X-358950Y-1046350D02*
X-374950Y-1046350D01*
G54D10*
X-358950Y-1049550D02*
X-374950Y-1049550D01*
G54D10*
X-366950Y-1009850D02*
X-366950Y-1046350D01*
G54D10*
X-366950Y-1049550D02*
X-366950Y-1086050D01*
G54D11*
X-328850Y-1016000D02*
X-328850Y-927100D01*
X-125650Y-927100D01*
X-125650Y-1016000D01*
X-328850Y-1016000D01*
G54D10*
X-166050Y-1094600D02*
X-166050Y-1064400D01*
X-288450Y-1064400D01*
X-288450Y-1094600D01*
X-166050Y-1094600D01*
G54D10*
X-225850Y-1087500D02*
X-225850Y-1071500D01*
G54D10*
X-229050Y-1087500D02*
X-229050Y-1071500D01*
G54D10*
X-189350Y-1079500D02*
X-225850Y-1079500D01*
G54D10*
X-229050Y-1079500D02*
X-265550Y-1079500D01*
G54D11*
X-93900Y-914400D02*
X-5000Y-914400D01*
X-5000Y-1117600D01*
X-93900Y-1117600D01*
X-93900Y-914400D01*
G54D10*
X138750Y-1100950D02*
X138750Y-1070750D01*
X16350Y-1070750D01*
X16350Y-1100950D01*
X138750Y-1100950D01*
G54D10*
X78950Y-1093850D02*
X78950Y-1077850D01*
G54D10*
X75750Y-1093850D02*
X75750Y-1077850D01*
G54D10*
X115450Y-1085850D02*
X78950Y-1085850D01*
G54D10*
X75750Y-1085850D02*
X39250Y-1085850D01*
G54D11*
X26750Y-1016000D02*
X26750Y-927100D01*
X229950Y-927100D01*
X229950Y-1016000D01*
X26750Y-1016000D01*
G54D10*
X276800Y-986550D02*
X246600Y-986550D01*
X246600Y-1108950D01*
X276800Y-1108950D01*
X276800Y-986550D01*
G54D10*
X269700Y-1046350D02*
X253700Y-1046350D01*
G54D10*
X269700Y-1049550D02*
X253700Y-1049550D01*
G54D10*
X261700Y-1009850D02*
X261700Y-1046350D01*
G54D10*
X261700Y-1049550D02*
X261700Y-1086050D01*
G54D11*
X-626178Y-930581D02*
X-429328Y-930581D01*
X-429328Y-1102031D01*
X-626178Y-1102031D01*
X-626178Y-930581D01*
G54D12*
X-475024Y-987952D02*
X-475024Y-977952D01*
G54D12*
X-475024Y-980174D02*
X-473690Y-978618D01*
X-471024Y-977952D01*
X-468357Y-978618D01*
X-467024Y-980174D01*
X-467023Y-987952D01*
G54D12*
X-455468Y-978618D02*
X-458134Y-977952D01*
X-460801Y-978618D01*
X-462134Y-980840D01*
X-462134Y-985285D01*
X-460801Y-987508D01*
X-458134Y-987952D01*
X-455468Y-987507D01*
G54D12*
X-472829Y-1057446D02*
X-472829Y-1047446D01*
G54D12*
X-472829Y-1049668D02*
X-471496Y-1048113D01*
X-468829Y-1047446D01*
X-466162Y-1048113D01*
X-464829Y-1049668D01*
X-464829Y-1057446D01*
G54D12*
X-459940Y-1048557D02*
X-457273Y-1047446D01*
X-454074Y-1047446D01*
X-451940Y-1049668D01*
X-451940Y-1057446D01*
G54D12*
X-451940Y-1054113D02*
X-453273Y-1051890D01*
X-455940Y-1051446D01*
X-458607Y-1051890D01*
X-459940Y-1054112D01*
X-459407Y-1056335D01*
X-457274Y-1057446D01*
X-455940Y-1057446D01*
X-455407Y-1057446D01*
X-453273Y-1056335D01*
X-451940Y-1054113D01*
G54D11*
X514438Y-1105118D02*
X317588Y-1105118D01*
X317588Y-933668D01*
X514438Y-933668D01*
X514438Y-1105118D01*
G54D12*
X343772Y-1057729D02*
X343772Y-1047729D01*
G54D12*
X343772Y-1049951D02*
X345105Y-1048396D01*
X347772Y-1047729D01*
X350438Y-1048396D01*
X351772Y-1049951D01*
X351772Y-1057729D01*
G54D12*
X363327Y-1048396D02*
X360661Y-1047729D01*
X357994Y-1048396D01*
X356661Y-1050618D01*
X356660Y-1055062D01*
X357994Y-1057285D01*
X360661Y-1057729D01*
X363327Y-1057284D01*
G54D12*
X340200Y-988253D02*
X340200Y-978253D01*
G54D12*
X340200Y-980476D02*
X341533Y-978920D01*
X344200Y-978253D01*
X346867Y-978920D01*
X348200Y-980476D01*
X348200Y-988253D01*
G54D12*
X353089Y-979364D02*
X355756Y-978254D01*
X358956Y-978253D01*
X361089Y-980476D01*
X361089Y-988254D01*
G54D12*
X361089Y-984920D02*
X359756Y-982698D01*
X357089Y-982253D01*
X354422Y-982698D01*
X353089Y-984920D01*
X353622Y-987142D01*
X355756Y-988253D01*
X357089Y-988253D01*
X357622Y-988253D01*
X359756Y-987142D01*
X361089Y-984920D01*
G54D10*
X-713675Y-1054704D02*
X-688275Y-1054704D01*
X-688275Y-983104D01*
X-713675Y-983104D01*
X-713675Y-1054704D01*
G54D13*
X-682884Y-1002048D02*
X-682884Y-1002048D01*
G54D10*
X-645027Y-1053820D02*
X-672427Y-1053820D01*
X-672427Y-977620D01*
X-645027Y-977620D01*
X-645027Y-1053820D01*
G54D10*
X-672427Y-983920D02*
X-645027Y-983920D01*
G54D14*
X-662482Y-950704D02*
X-662482Y-950704D01*
G54D10*
X575375Y-1067404D02*
X600775Y-1067404D01*
X600775Y-995804D01*
X575375Y-995804D01*
X575375Y-1067404D01*
G54D13*
X606166Y-1014748D02*
X606166Y-1014748D01*
G54D10*
X555123Y-1053820D02*
X527723Y-1053820D01*
X527723Y-977620D01*
X555123Y-977620D01*
X555123Y-1053820D01*
G54D10*
X527723Y-983920D02*
X555123Y-983920D01*
G54D14*
X537668Y-1014204D02*
X537668Y-1014204D01*
G54D10*
X-843225Y-382612D02*
X-741625Y-382612D01*
X-741625Y-484212D01*
X-843225Y-484212D01*
X-843225Y-382612D01*
G54D15*
X-843975Y-355862D02*
X-843975Y-355862D01*
G54D15*
X-843975Y-375362D02*
X-843975Y-375362D01*
G54D12*
X-542845Y231650D02*
X-542845Y249428D01*
X-536178Y249428D01*
X-533512Y248317D01*
X-532178Y246094D01*
X-532178Y243872D01*
X-533512Y241650D01*
X-536178Y240539D01*
X-533512Y239428D01*
X-532178Y237206D01*
X-532178Y234983D01*
X-533512Y232761D01*
X-536178Y231650D01*
X-542845Y231650D01*
G54D12*
X-542845Y240539D02*
X-536178Y240539D01*
G54D12*
X-527289Y242761D02*
X-520622Y249428D01*
X-520622Y231650D01*
G54D12*
X-368538Y238000D02*
X-368538Y255778D01*
X-361871Y255778D01*
X-359204Y254667D01*
X-357871Y252444D01*
X-357871Y250222D01*
X-359204Y248000D01*
X-361871Y246889D01*
X-359204Y245778D01*
X-357871Y243556D01*
X-357871Y241333D01*
X-359204Y239111D01*
X-361871Y238000D01*
X-368538Y238000D01*
G54D12*
X-368538Y246889D02*
X-361871Y246889D01*
G54D12*
X-342315Y238000D02*
X-352982Y238000D01*
X-352982Y239111D01*
X-351648Y241333D01*
X-343648Y248000D01*
X-342315Y250222D01*
X-342315Y252444D01*
X-343648Y254667D01*
X-346315Y255778D01*
X-348982Y255778D01*
X-351648Y254667D01*
X-352982Y252444D01*
G54D12*
X-170100Y234825D02*
X-170100Y252603D01*
X-163433Y252603D01*
X-160767Y251492D01*
X-159433Y249270D01*
X-159433Y247047D01*
X-160767Y244825D01*
X-163433Y243714D01*
X-160767Y242603D01*
X-159433Y240380D01*
X-159433Y238158D01*
X-160767Y235936D01*
X-163433Y234825D01*
X-170100Y234825D01*
G54D12*
X-170100Y243714D02*
X-163433Y243714D01*
G54D12*
X-154544Y249270D02*
X-153211Y251492D01*
X-150544Y252603D01*
X-147877Y252603D01*
X-145211Y251492D01*
X-143877Y249270D01*
X-143877Y247047D01*
X-145211Y244825D01*
X-147877Y243714D01*
X-145211Y242603D01*
X-143877Y240380D01*
X-143877Y238158D01*
X-145211Y235936D01*
X-147877Y234825D01*
X-150544Y234825D01*
X-153211Y235936D01*
X-154544Y238158D01*
G54D12*
X36275Y231650D02*
X36275Y249428D01*
X42942Y249428D01*
X45608Y248317D01*
X46942Y246094D01*
X46942Y243872D01*
X45608Y241650D01*
X42942Y240539D01*
X45608Y239428D01*
X46942Y237206D01*
X46942Y234983D01*
X45608Y232761D01*
X42942Y231650D01*
X36275Y231650D01*
G54D12*
X36275Y240539D02*
X42942Y240539D01*
G54D12*
X59831Y231650D02*
X59831Y249428D01*
X51831Y238317D01*
X51831Y236094D01*
X62498Y236094D01*
G54D12*
X187088Y228475D02*
X187088Y246253D01*
X193754Y246253D01*
X196421Y245142D01*
X197754Y242920D01*
X197754Y240697D01*
X196421Y238475D01*
X193754Y237364D01*
X196421Y236253D01*
X197754Y234030D01*
X197754Y231808D01*
X196421Y229586D01*
X193754Y228475D01*
X187088Y228475D01*
G54D12*
X187088Y237364D02*
X193754Y237364D01*
G54D12*
X213310Y246253D02*
X202644Y246253D01*
X202644Y238475D01*
X203977Y238475D01*
X206644Y239586D01*
X209310Y239586D01*
X211977Y238475D01*
X213310Y236253D01*
X213310Y231808D01*
X211977Y229586D01*
X209310Y228475D01*
X206644Y228475D01*
X203977Y229586D01*
X202644Y231808D01*
G54D12*
X385525Y238000D02*
X385525Y255778D01*
X392192Y255778D01*
X394858Y254667D01*
X396192Y252444D01*
X396192Y250222D01*
X394858Y248000D01*
X392192Y246889D01*
X394858Y245778D01*
X396192Y243556D01*
X396192Y241333D01*
X394858Y239111D01*
X392192Y238000D01*
X385525Y238000D01*
G54D12*
X385525Y246889D02*
X392192Y246889D01*
G54D12*
X411748Y252444D02*
X410414Y254667D01*
X407748Y255778D01*
X405081Y255778D01*
X402414Y254667D01*
X401081Y252444D01*
X401081Y246889D01*
X401081Y245778D01*
X405081Y248000D01*
X407748Y248000D01*
X410414Y246889D01*
X411748Y244667D01*
X411748Y241333D01*
X410414Y239111D01*
X407748Y238000D01*
X405081Y238000D01*
X402414Y239111D01*
X401081Y241333D01*
X401081Y246889D01*
G54D16*
X-163625Y310442D02*
X-165625Y313775D01*
X-169625Y315442D01*
X-173625Y315442D01*
X-177625Y313775D01*
X-179625Y310442D01*
X-179625Y302108D01*
X-179625Y300442D01*
X-173625Y303775D01*
X-169625Y303775D01*
X-165625Y302108D01*
X-163625Y298775D01*
X-163625Y293775D01*
X-165625Y290442D01*
X-169625Y288775D01*
X-173625Y288775D01*
X-177625Y290442D01*
X-179625Y293775D01*
X-179625Y302108D01*
G54D16*
X-148559Y288775D02*
X-148559Y315442D01*
X-138559Y315442D01*
X-134559Y313775D01*
X-132559Y310442D01*
X-132559Y307108D01*
X-134559Y303775D01*
X-138559Y302108D01*
X-134559Y300442D01*
X-132559Y297108D01*
X-132559Y293775D01*
X-134559Y290442D01*
X-138559Y288775D01*
X-148559Y288775D01*
G54D16*
X-148559Y302108D02*
X-138559Y302108D01*
G54D16*
X-125226Y288775D02*
X-115226Y315442D01*
X-105226Y288775D01*
G54D16*
X-121226Y298775D02*
X-109226Y298775D01*
G54D16*
X-97893Y288775D02*
X-97893Y315442D01*
X-81893Y288775D01*
X-81893Y315442D01*
G54D16*
X-74560Y288775D02*
X-74560Y315442D01*
X-64560Y315442D01*
X-60560Y313775D01*
X-58560Y310442D01*
X-58560Y293775D01*
X-60560Y290442D01*
X-64560Y288775D01*
X-74560Y288775D01*
G54D16*
X-51227Y293775D02*
X-49227Y290442D01*
X-45227Y288775D01*
X-41227Y288775D01*
X-37227Y290442D01*
X-35227Y293775D01*
X-35227Y297108D01*
X-37227Y300442D01*
X-41227Y302108D01*
X-45227Y302108D01*
X-49227Y303775D01*
X-51227Y307108D01*
X-51227Y310442D01*
X-49227Y313775D01*
X-45227Y315442D01*
X-41227Y315442D01*
X-37227Y313775D01*
X-35227Y310442D01*
G54D16*
X-12428Y315442D02*
X-12428Y288775D01*
X1572Y288775D01*
G54D16*
X8905Y288775D02*
X8905Y315442D01*
X18905Y315442D01*
X22905Y313775D01*
X24905Y310442D01*
X24905Y307108D01*
X22905Y303775D01*
X18905Y302108D01*
X8905Y302108D01*
G54D16*
X32238Y288775D02*
X32238Y315442D01*
X46238Y315442D01*
G54D16*
X32238Y302108D02*
X46238Y302108D01*
G54D16*
X61304Y300442D02*
X77304Y300442D01*
G54D16*
X69304Y307108D02*
X69304Y293775D01*
G54D16*
X92370Y288775D02*
X102370Y315442D01*
X112370Y288775D01*
G54D16*
X96370Y298775D02*
X108370Y298775D01*
G54D16*
X127703Y288775D02*
X127703Y315442D01*
G54D16*
X119703Y315442D02*
X135703Y315442D01*
G54D16*
X151036Y288775D02*
X151036Y315442D01*
G54D16*
X143036Y315442D02*
X159036Y315442D01*
G54D16*
X166369Y288775D02*
X166369Y315442D01*
X182369Y288775D01*
X182369Y315442D01*
G54D12*
X-813890Y-353373D02*
X-813890Y-335595D01*
G54D12*
X-809001Y-353373D02*
X-809001Y-335595D01*
X-798334Y-353373D01*
X-798334Y-335595D01*
G54D12*
X711777Y-378928D02*
X711777Y-390040D01*
X710443Y-392262D01*
X707777Y-393373D01*
X705110Y-393373D01*
X702443Y-392262D01*
X701110Y-390040D01*
X701110Y-378928D01*
X702443Y-376706D01*
X705110Y-375595D01*
X707777Y-375595D01*
X710443Y-376706D01*
X711777Y-378928D01*
G54D12*
X716666Y-375595D02*
X716666Y-390040D01*
X717999Y-392262D01*
X720666Y-393373D01*
X723333Y-393373D01*
X725999Y-392262D01*
X727333Y-390040D01*
X727333Y-375595D01*
G54D12*
X737555Y-393373D02*
X737555Y-375595D01*
G54D12*
X732222Y-375595D02*
X742889Y-375595D01*
G54D17*
X712550Y125100D02*
X712550Y141100D01*
X718550Y141100D01*
X720950Y140100D01*
X722150Y138100D01*
X722150Y136100D01*
X720950Y134100D01*
X718550Y133100D01*
X720950Y132100D01*
X722150Y130100D01*
X722150Y128100D01*
X720950Y126100D01*
X718550Y125100D01*
X712550Y125100D01*
G54D17*
X712550Y133100D02*
X718550Y133100D01*
G54D17*
X726550Y135100D02*
X732550Y141100D01*
X732550Y125100D01*
G54D11*
X680800Y155900D02*
X782400Y155900D01*
G54D17*
X722550Y-54900D02*
X722550Y-38900D01*
X728550Y-38900D01*
X730950Y-39900D01*
X732150Y-41900D01*
X732150Y-43900D01*
X730950Y-45900D01*
X728550Y-46900D01*
X730950Y-47900D01*
X732150Y-49900D01*
X732150Y-51900D01*
X730950Y-53900D01*
X728550Y-54900D01*
X722550Y-54900D01*
G54D17*
X722550Y-46900D02*
X728550Y-46900D01*
G54D17*
X746150Y-54900D02*
X736550Y-54900D01*
X736550Y-53900D01*
X737750Y-51900D01*
X744950Y-45900D01*
X746150Y-43900D01*
X746150Y-41900D01*
X744950Y-39900D01*
X742550Y-38900D01*
X740150Y-38900D01*
X737750Y-39900D01*
X736550Y-41900D01*
G54D11*
X680800Y-24100D02*
X782400Y-24100D01*
G54D17*
X722550Y-244900D02*
X722550Y-228900D01*
X728550Y-228900D01*
X730950Y-229900D01*
X732150Y-231900D01*
X732150Y-233900D01*
X730950Y-235900D01*
X728550Y-236900D01*
X730950Y-237900D01*
X732150Y-239900D01*
X732150Y-241900D01*
X730950Y-243900D01*
X728550Y-244900D01*
X722550Y-244900D01*
G54D17*
X722550Y-236900D02*
X728550Y-236900D01*
G54D17*
X736550Y-231900D02*
X737750Y-229900D01*
X740150Y-228900D01*
X742550Y-228900D01*
X744950Y-229900D01*
X746150Y-231900D01*
X746150Y-233900D01*
X744950Y-235900D01*
X742550Y-236900D01*
X744950Y-237900D01*
X746150Y-239900D01*
X746150Y-241900D01*
X744950Y-243900D01*
X742550Y-244900D01*
X740150Y-244900D01*
X737750Y-243900D01*
X736550Y-241900D01*
G54D11*
X680800Y-224100D02*
X782400Y-224100D01*
G54D17*
X717550Y-604900D02*
X717550Y-588900D01*
X723550Y-588900D01*
X725950Y-589900D01*
X727150Y-591900D01*
X727150Y-593900D01*
X725950Y-595900D01*
X723550Y-596900D01*
X725950Y-597900D01*
X727150Y-599900D01*
X727150Y-601900D01*
X725950Y-603900D01*
X723550Y-604900D01*
X717550Y-604900D01*
G54D17*
X717550Y-596900D02*
X723550Y-596900D01*
G54D17*
X738750Y-604900D02*
X738750Y-588900D01*
X731550Y-598900D01*
X731550Y-600900D01*
X741150Y-600900D01*
G54D11*
X675800Y-574100D02*
X777400Y-574100D01*
G54D17*
X712550Y-789900D02*
X712550Y-773900D01*
X718550Y-773900D01*
X720950Y-774900D01*
X722150Y-776900D01*
X722150Y-778900D01*
X720950Y-780900D01*
X718550Y-781900D01*
X720950Y-782900D01*
X722150Y-784900D01*
X722150Y-786900D01*
X720950Y-788900D01*
X718550Y-789900D01*
X712550Y-789900D01*
G54D17*
X712550Y-781900D02*
X718550Y-781900D01*
G54D17*
X736150Y-773900D02*
X726550Y-773900D01*
X726550Y-780900D01*
X727750Y-780900D01*
X730150Y-779900D01*
X732550Y-779900D01*
X734950Y-780900D01*
X736150Y-782900D01*
X736150Y-786900D01*
X734950Y-788900D01*
X732550Y-789900D01*
X730150Y-789900D01*
X727750Y-788900D01*
X726550Y-786900D01*
G54D11*
X675800Y-769100D02*
X777400Y-769100D01*
G54D17*
X707550Y-999900D02*
X707550Y-983900D01*
X713550Y-983900D01*
X715950Y-984900D01*
X717150Y-986900D01*
X717150Y-988900D01*
X715950Y-990900D01*
X713550Y-991900D01*
X715950Y-992900D01*
X717150Y-994900D01*
X717150Y-996900D01*
X715950Y-998900D01*
X713550Y-999900D01*
X707550Y-999900D01*
G54D17*
X707550Y-991900D02*
X713550Y-991900D01*
G54D17*
X731150Y-986900D02*
X729950Y-984900D01*
X727550Y-983900D01*
X725150Y-983900D01*
X722750Y-984900D01*
X721550Y-986900D01*
X721550Y-991900D01*
X721550Y-992900D01*
X725150Y-990900D01*
X727550Y-990900D01*
X729950Y-991900D01*
X731150Y-993900D01*
X731150Y-996900D01*
X729950Y-998900D01*
X727550Y-999900D01*
X725150Y-999900D01*
X722750Y-998900D01*
X721550Y-996900D01*
X721550Y-991900D01*
G54D11*
X675800Y-969100D02*
X777400Y-969100D01*
G54D10*
X666775Y-402612D02*
X768375Y-402612D01*
X768375Y-504212D01*
X666775Y-504212D01*
X666775Y-402612D01*
G54D15*
X666025Y-375862D02*
X666025Y-375862D01*
G54D15*
X666025Y-395362D02*
X666025Y-395362D01*
G54D17*
X-590000Y207000D02*
X-580400Y207000D01*
G54D17*
X-585200Y211000D02*
X-585200Y203000D01*
G54D17*
X-576000Y216000D02*
X-570000Y200000D01*
X-564000Y216000D01*
G54D17*
X-360000Y207000D02*
X-350400Y207000D01*
G54D17*
X-355200Y211000D02*
X-355200Y203000D01*
G54D17*
X-346000Y216000D02*
X-340000Y200000D01*
X-334000Y216000D01*
G54D17*
X-150000Y207000D02*
X-140400Y207000D01*
G54D17*
X-145200Y211000D02*
X-145200Y203000D01*
G54D17*
X-136000Y216000D02*
X-130000Y200000D01*
X-124000Y216000D01*
G54D17*
X50000Y207000D02*
X59600Y207000D01*
G54D17*
X54800Y211000D02*
X54800Y203000D01*
G54D17*
X64000Y216000D02*
X70000Y200000D01*
X76000Y216000D01*
G54D17*
X220000Y207000D02*
X229600Y207000D01*
G54D17*
X224800Y211000D02*
X224800Y203000D01*
G54D17*
X234000Y216000D02*
X240000Y200000D01*
X246000Y216000D01*
G54D17*
X420000Y207000D02*
X429600Y207000D01*
G54D17*
X424800Y211000D02*
X424800Y203000D01*
G54D17*
X434000Y216000D02*
X440000Y200000D01*
X446000Y216000D01*
M02*
