%FSLAX34Y34*%
%MOMM*%
%LNSILK_TOP*%
G71*
G01*
%ADD10C,0.150*%
%ADD11C,0.090*%
%ADD12C,0.159*%
%ADD13C,0.100*%
%ADD14C,0.167*%
%ADD15C,0.144*%
%ADD16C,0.206*%
%ADD17C,0.200*%
%ADD18C,0.250*%
%ADD19C,0.550*%
%LPD*%
G54D10*
X219100Y385800D02*
X219100Y360600D01*
X295300Y360600D01*
X295300Y385800D01*
X219100Y385800D01*
G54D11*
X233900Y349300D02*
X230200Y349300D01*
X230200Y356400D01*
X233900Y356400D01*
G54D11*
X230200Y352900D02*
X233900Y352900D01*
G54D11*
X259900Y350600D02*
X259300Y349700D01*
X258300Y349300D01*
X257200Y349300D01*
X256100Y349700D01*
X255600Y350600D01*
X255600Y355100D01*
X256100Y356000D01*
X257200Y356400D01*
X258300Y356400D01*
X259300Y356000D01*
X259900Y355100D01*
G54D11*
X281000Y349300D02*
X281000Y356400D01*
X283700Y356400D01*
X284700Y356000D01*
X285300Y355100D01*
X285300Y354200D01*
X284700Y353300D01*
X283700Y352900D01*
X284700Y352400D01*
X285300Y351500D01*
X285300Y350600D01*
X284700Y349700D01*
X283700Y349300D01*
X281000Y349300D01*
G54D11*
X281000Y352900D02*
X283700Y352900D01*
G54D12*
X218349Y406550D02*
X218349Y406550D01*
G54D12*
X218350Y391550D02*
X218350Y391550D01*
G36*
X595616Y317360D02*
X595616Y228560D01*
X602016Y228560D01*
X602016Y317360D01*
X595616Y317360D01*
G37*
G54D13*
X595616Y317360D02*
X595616Y228560D01*
X602016Y228560D01*
X602016Y317360D01*
X595616Y317360D01*
G54D10*
X602016Y317360D02*
X564016Y317360D01*
X564016Y228360D01*
X602016Y228360D01*
X602016Y317360D01*
G54D11*
X552716Y299860D02*
X559816Y299861D01*
X559816Y297160D01*
X559415Y296160D01*
X558516Y295560D01*
X557616Y295560D01*
X556716Y296160D01*
X556316Y297160D01*
X555816Y296160D01*
X554915Y295560D01*
X554015Y295560D01*
X553116Y296160D01*
X552716Y297160D01*
X552716Y299860D01*
G54D11*
X556316Y299861D02*
X556316Y297160D01*
G54D11*
X554016Y270160D02*
X553116Y270760D01*
X552716Y271760D01*
X552716Y272860D01*
X553116Y273960D01*
X554016Y274460D01*
X558516Y274460D01*
X559415Y273960D01*
X559816Y272861D01*
X559816Y271760D01*
X559415Y270760D01*
X558516Y270160D01*
G54D11*
X552716Y245360D02*
X552715Y249061D01*
X559816Y249060D01*
X559816Y245360D01*
G54D11*
X556316Y249060D02*
X556316Y245360D01*
G54D12*
X622766Y318110D02*
X622766Y318110D01*
G54D12*
X607766Y318110D02*
X607766Y318110D01*
G54D10*
X198614Y292840D02*
X198614Y318240D01*
X127014Y318240D01*
X127014Y292840D01*
X198614Y292840D01*
G54D14*
X145959Y323632D02*
X145959Y323632D01*
G54D10*
X217479Y290329D02*
X239654Y290329D01*
X239654Y239629D01*
X217479Y239629D01*
X217479Y290329D01*
G54D10*
X228566Y290529D02*
X228566Y298429D01*
G54D10*
X228566Y239529D02*
X228567Y231629D01*
G54D14*
X257491Y249887D02*
X257491Y249887D01*
G54D10*
X12700Y369900D02*
X114300Y369900D01*
X114300Y268300D01*
X12700Y268300D01*
X12700Y369900D01*
G54D15*
X11950Y396650D02*
X11950Y396650D01*
G54D15*
X11950Y377150D02*
X11950Y377150D01*
G54D10*
X128579Y442729D02*
X150754Y442729D01*
X150754Y392029D01*
X128579Y392029D01*
X128579Y442729D01*
G54D10*
X139666Y442929D02*
X139666Y450829D01*
G54D10*
X139666Y391929D02*
X139667Y384029D01*
G54D14*
X168591Y402287D02*
X168591Y402287D01*
G54D10*
X268279Y290329D02*
X290454Y290329D01*
X290454Y239629D01*
X268279Y239629D01*
X268279Y290329D01*
G54D10*
X279366Y290529D02*
X279366Y298429D01*
G54D10*
X279366Y239529D02*
X279367Y231629D01*
G54D14*
X308291Y249887D02*
X308291Y249887D01*
G54D10*
X274814Y432540D02*
X274814Y457940D01*
X203214Y457940D01*
X203214Y432540D01*
X274814Y432540D01*
G54D14*
X222159Y463332D02*
X222159Y463332D01*
G54D10*
X319079Y290329D02*
X341254Y290329D01*
X341254Y239629D01*
X319079Y239629D01*
X319079Y290329D01*
G54D10*
X330166Y290529D02*
X330166Y298429D01*
G54D10*
X330166Y239529D02*
X330167Y231629D01*
G54D14*
X359091Y249887D02*
X359091Y249887D01*
G54D10*
X275519Y200644D02*
X275519Y175244D01*
X347119Y175244D01*
X347119Y200644D01*
X275519Y200644D01*
G54D14*
X328175Y169852D02*
X328175Y169852D01*
G54D10*
X218427Y206194D02*
X218427Y184019D01*
X167727Y184019D01*
X167727Y206194D01*
X218427Y206194D01*
G54D10*
X218627Y195106D02*
X226527Y195106D01*
G54D10*
X167627Y195106D02*
X159727Y195106D01*
G54D14*
X177985Y166181D02*
X177985Y166181D01*
G54D10*
X122414Y229340D02*
X122414Y254740D01*
X50814Y254740D01*
X50814Y229340D01*
X122414Y229340D01*
G54D14*
X69759Y260132D02*
X69759Y260132D01*
G54D10*
X122414Y178540D02*
X122414Y203940D01*
X50814Y203940D01*
X50814Y178540D01*
X122414Y178540D01*
G54D14*
X69759Y209332D02*
X69759Y209332D01*
G54D10*
X105512Y131800D02*
X97912Y131800D01*
G54D10*
X101712Y128000D02*
X101712Y135600D01*
G54D10*
G75*
G01X124056Y119100D02*
G03X124056Y119100I-39850J0D01*
G01*
G54D16*
X124806Y52500D02*
X124806Y52500D01*
G54D16*
X124806Y72000D02*
X124806Y72000D01*
G54D10*
X218427Y142694D02*
X218427Y120519D01*
X167727Y120519D01*
X167727Y142694D01*
X218427Y142694D01*
G54D10*
X218627Y131606D02*
X226527Y131606D01*
G54D10*
X167627Y131606D02*
X159727Y131606D01*
G54D14*
X177985Y102681D02*
X177985Y102681D01*
G54D10*
X261200Y100600D02*
X278600Y100600D01*
X278600Y131000D01*
X261200Y131000D01*
X261200Y100600D01*
G36*
X261300Y100700D02*
X278000Y100700D01*
X278000Y107900D01*
X261300Y107900D01*
X261300Y100700D01*
G37*
G54D13*
X261300Y100700D02*
X278000Y100700D01*
X278000Y107900D01*
X261300Y107900D01*
X261300Y100700D01*
G54D10*
X414514Y127740D02*
X414514Y153140D01*
X342914Y153140D01*
X342914Y127740D01*
X414514Y127740D01*
G54D14*
X361859Y158532D02*
X361859Y158532D01*
G54D10*
X383527Y460194D02*
X383527Y438019D01*
X332827Y438019D01*
X332827Y460194D01*
X383527Y460194D01*
G54D10*
X383727Y449106D02*
X391627Y449106D01*
G54D10*
X332727Y449106D02*
X324827Y449106D01*
G54D14*
X343085Y420181D02*
X343085Y420181D01*
G54D10*
X646900Y283400D02*
X629500Y283400D01*
X629500Y253000D01*
X646900Y253000D01*
X646900Y283400D01*
G36*
X646800Y283300D02*
X630100Y283300D01*
X630100Y276100D01*
X646800Y276100D01*
X646800Y283300D01*
G37*
G54D13*
X646800Y283300D02*
X630100Y283300D01*
X630100Y276100D01*
X646800Y276100D01*
X646800Y283300D01*
G54D10*
X638200Y294400D02*
X638200Y283300D01*
G54D10*
X638200Y253100D02*
X638200Y242000D01*
G54D16*
X673650Y289900D02*
X673650Y289900D01*
G54D16*
X654150Y315300D02*
X654150Y315300D01*
G54D10*
X795514Y216640D02*
X795514Y242041D01*
X723914Y242040D01*
X723914Y216640D01*
X795514Y216640D01*
G54D14*
X742858Y247432D02*
X742858Y247432D01*
G54D10*
X372064Y183594D02*
X397464Y183594D01*
X397464Y255194D01*
X372064Y255194D01*
X372064Y183594D01*
G54D14*
X402856Y236250D02*
X402856Y236250D01*
G54D17*
X706800Y429714D02*
X712800Y413714D01*
X718800Y429714D01*
G54D17*
X723200Y413714D02*
X723200Y429714D01*
G54D17*
X727600Y413714D02*
X727600Y429714D01*
X737200Y413714D01*
X737200Y429714D01*
G54D10*
X697004Y435888D02*
X697004Y461288D01*
X747804Y461288D01*
X747804Y435888D01*
X697004Y435888D01*
G54D17*
X689671Y449117D02*
X683320Y449117D01*
G54D17*
X683320Y441180D02*
X683321Y457055D01*
G54D17*
X680146Y454674D02*
X680146Y443561D01*
G54D17*
X676971Y446736D02*
X676971Y451498D01*
G54D10*
X765764Y386794D02*
X791164Y386794D01*
X791164Y458394D01*
X765764Y458394D01*
X765764Y386794D01*
G54D14*
X796556Y439450D02*
X796556Y439450D01*
G54D10*
X516115Y432539D02*
X516115Y457940D01*
X444515Y457939D01*
X444515Y432539D01*
X516115Y432539D01*
G54D14*
X463459Y463331D02*
X463459Y463331D01*
G54D10*
X698500Y369900D02*
X800100Y369900D01*
X800100Y268300D01*
X698500Y268300D01*
X698500Y369900D01*
G54D15*
X697750Y396650D02*
X697750Y396650D01*
G54D15*
X697750Y377150D02*
X697750Y377150D01*
G54D18*
X666851Y94894D02*
X539851Y94894D01*
G54D18*
X539851Y444144D02*
X539851Y348894D01*
G54D18*
X666851Y444144D02*
X539851Y444144D01*
G54D19*
X603351Y97181D02*
X603351Y443256D01*
G54D18*
X539851Y190144D02*
X539851Y94894D01*
G54D18*
X666851Y444144D02*
X666851Y348894D01*
G54D18*
X666851Y190144D02*
X666851Y94894D01*
G54D18*
X666851Y348894D02*
X539851Y348894D01*
G54D18*
X666860Y190269D02*
X539860Y190269D01*
G54D10*
X489000Y223700D02*
X508000Y223700D01*
X508000Y185700D01*
X489000Y185700D01*
X489000Y223700D01*
G54D10*
X498500Y223800D02*
X498500Y244400D01*
G54D10*
X498500Y165000D02*
X498500Y185600D01*
G54D15*
X522050Y198613D02*
X533606Y198613D01*
X533606Y204680D01*
G54D15*
X515250Y265500D02*
X515250Y265500D01*
G54D10*
X435564Y183594D02*
X460964Y183594D01*
X460964Y255194D01*
X435564Y255194D01*
X435564Y183594D01*
G54D14*
X466356Y236250D02*
X466356Y236250D01*
M02*
