%FSLAX34Y34*%
%MOMM*%
%LNCOPPER_TOP*%
G71*
G01*
%ADD10C,2.800*%
%ADD11C,3.200*%
%ADD12C,3.000*%
%ADD13C,3.000*%
%ADD14C,2.800*%
%ADD15C,2.600*%
%ADD16C,4.800*%
%ADD17C,1.600*%
%ADD18C,4.800*%
%ADD19C,2.800*%
%ADD20C,3.000*%
%ADD21C,0.733*%
%ADD22C,0.667*%
%ADD23C,0.813*%
%ADD24C,1.200*%
%ADD25C,1.333*%
%ADD26C,2.000*%
%ADD27C,2.000*%
%ADD28C,2.200*%
%ADD29C,1.800*%
%ADD30C,3.600*%
%ADD31C,0.800*%
%ADD32C,4.000*%
%ADD33C,2.000*%
%ADD34C,2.200*%
%LPD*%
G36*
X-200000Y700000D02*
X1050000Y700000D01*
X1050000Y-200000D01*
X-200000Y-200000D01*
X-200000Y700000D01*
G37*
%LPC*%
X231800Y373100D02*
G54D10*
D03*
X257200Y373100D02*
G54D10*
D03*
X282600Y373100D02*
G54D10*
D03*
X579716Y298260D02*
G54D10*
D03*
X579716Y272860D02*
G54D10*
D03*
X579716Y247460D02*
G54D10*
D03*
X188399Y305673D02*
G54D11*
D03*
X137419Y305561D02*
G54D11*
D03*
X228625Y303125D02*
G54D11*
D03*
X228575Y226875D02*
G54D11*
D03*
X38100Y344500D02*
G54D12*
D03*
X88900Y344500D02*
G54D12*
D03*
X63500Y319100D02*
G54D12*
D03*
X88900Y293700D02*
G54D12*
D03*
X38100Y293700D02*
G54D12*
D03*
X139725Y455525D02*
G54D11*
D03*
X139675Y379275D02*
G54D11*
D03*
X279425Y303125D02*
G54D11*
D03*
X279375Y226875D02*
G54D11*
D03*
X264599Y445373D02*
G54D11*
D03*
X213619Y445261D02*
G54D11*
D03*
X330225Y303125D02*
G54D13*
D03*
X330175Y226875D02*
G54D13*
D03*
X285734Y187811D02*
G54D11*
D03*
X336715Y187923D02*
G54D11*
D03*
X231223Y195048D02*
G54D11*
D03*
X154973Y195098D02*
G54D11*
D03*
X112199Y242173D02*
G54D11*
D03*
X61219Y242061D02*
G54D11*
D03*
X112199Y191373D02*
G54D11*
D03*
X61219Y191261D02*
G54D11*
D03*
X66612Y119100D02*
G54D14*
D03*
X101712Y119100D02*
G54D14*
D03*
X231223Y131548D02*
G54D11*
D03*
X154973Y131598D02*
G54D11*
D03*
X269900Y90400D02*
G54D15*
D03*
X269900Y141200D02*
G54D15*
D03*
X404299Y140573D02*
G54D11*
D03*
X353319Y140461D02*
G54D11*
D03*
X396323Y449048D02*
G54D11*
D03*
X320073Y449098D02*
G54D11*
D03*
X638200Y306300D02*
G54D14*
D03*
X638200Y230100D02*
G54D14*
D03*
X785299Y229474D02*
G54D11*
D03*
X734318Y229361D02*
G54D11*
D03*
X384200Y395200D02*
G54D14*
D03*
X384200Y306300D02*
G54D14*
D03*
X498500Y395200D02*
G54D14*
D03*
X498500Y306300D02*
G54D14*
D03*
X384898Y193810D02*
G54D11*
D03*
X384785Y244790D02*
G54D11*
D03*
X709775Y448575D02*
G54D11*
D03*
X735275Y448575D02*
G54D11*
D03*
X778598Y397010D02*
G54D11*
D03*
X778485Y447990D02*
G54D11*
D03*
X701700Y179300D02*
G54D14*
D03*
X790600Y179300D02*
G54D14*
D03*
X701700Y90400D02*
G54D14*
D03*
X790600Y90400D02*
G54D14*
D03*
X505900Y445373D02*
G54D11*
D03*
X454920Y445260D02*
G54D11*
D03*
X723900Y344500D02*
G54D12*
D03*
X774700Y344500D02*
G54D12*
D03*
X749300Y319100D02*
G54D12*
D03*
X774700Y293700D02*
G54D12*
D03*
X723900Y293700D02*
G54D12*
D03*
X603276Y409344D02*
G54D16*
D03*
X603376Y140944D02*
G54D16*
D03*
X498500Y255500D02*
G54D14*
D03*
X498500Y153900D02*
G54D14*
D03*
X448398Y193810D02*
G54D11*
D03*
X448285Y244790D02*
G54D11*
D03*
G54D17*
X638200Y306300D02*
X606450Y274550D01*
X581050Y274550D01*
X579716Y272860D01*
G54D17*
X790600Y90400D02*
X701700Y179300D01*
G54D17*
X735275Y448575D02*
X733450Y446000D01*
X714400Y426950D01*
X701700Y426950D01*
X689000Y439650D01*
X593750Y439650D01*
X396900Y242800D01*
X384200Y242800D01*
X384785Y244790D01*
G36*
X24100Y471200D02*
X52100Y471200D01*
X52100Y443200D01*
X24100Y443200D01*
X24100Y471200D01*
G37*
G36*
X24100Y39400D02*
X52100Y39400D01*
X52100Y11400D01*
X24100Y11400D01*
X24100Y39400D01*
G37*
G36*
X798800Y39400D02*
X826800Y39400D01*
X826800Y11400D01*
X798800Y11400D01*
X798800Y39400D01*
G37*
G36*
X811500Y483900D02*
X839500Y483900D01*
X839500Y455900D01*
X811500Y455900D01*
X811500Y483900D01*
G37*
X444500Y50800D02*
G54D18*
D03*
X431800Y355600D02*
G54D18*
D03*
X61219Y191261D02*
G54D19*
D03*
X61219Y242061D02*
G54D19*
D03*
X404299Y140573D02*
G54D19*
D03*
X638200Y230100D02*
G54D19*
D03*
G54D17*
X638200Y230100D02*
X641350Y228600D01*
X622300Y247650D01*
X577850Y247650D01*
X579716Y247460D01*
X330175Y226875D02*
G54D19*
D03*
X279375Y226875D02*
G54D20*
D03*
X285734Y187811D02*
G54D20*
D03*
X384898Y193810D02*
G54D20*
D03*
X448398Y193810D02*
G54D20*
D03*
X269900Y90400D02*
G54D19*
D03*
X61219Y242061D02*
G54D20*
D03*
X61219Y191261D02*
G54D20*
D03*
X66612Y119100D02*
G54D20*
D03*
X404299Y140573D02*
G54D20*
D03*
X330175Y226875D02*
G54D20*
D03*
X778598Y397010D02*
G54D20*
D03*
%LPD*%
G54D21*
G36*
X34433Y344500D02*
X34433Y360000D01*
X41767Y360000D01*
X41767Y344500D01*
X34433Y344500D01*
G37*
G36*
X38100Y348167D02*
X53600Y348167D01*
X53600Y340833D01*
X38100Y340833D01*
X38100Y348167D01*
G37*
G36*
X41767Y344500D02*
X41767Y329000D01*
X34433Y329000D01*
X34433Y344500D01*
X41767Y344500D01*
G37*
G36*
X38100Y340833D02*
X22600Y340833D01*
X22600Y348167D01*
X38100Y348167D01*
X38100Y340833D01*
G37*
G54D21*
G36*
X85233Y344500D02*
X85233Y360000D01*
X92567Y360000D01*
X92567Y344500D01*
X85233Y344500D01*
G37*
G36*
X88900Y348167D02*
X104400Y348167D01*
X104400Y340833D01*
X88900Y340833D01*
X88900Y348167D01*
G37*
G36*
X92567Y344500D02*
X92567Y329000D01*
X85233Y329000D01*
X85233Y344500D01*
X92567Y344500D01*
G37*
G36*
X88900Y340833D02*
X73400Y340833D01*
X73400Y348167D01*
X88900Y348167D01*
X88900Y340833D01*
G37*
G54D21*
G36*
X85233Y293700D02*
X85233Y309200D01*
X92567Y309200D01*
X92567Y293700D01*
X85233Y293700D01*
G37*
G36*
X88900Y297367D02*
X104400Y297367D01*
X104400Y290033D01*
X88900Y290033D01*
X88900Y297367D01*
G37*
G36*
X92567Y293700D02*
X92567Y278200D01*
X85233Y278200D01*
X85233Y293700D01*
X92567Y293700D01*
G37*
G36*
X88900Y290033D02*
X73400Y290033D01*
X73400Y297367D01*
X88900Y297367D01*
X88900Y290033D01*
G37*
G54D21*
G36*
X34433Y293700D02*
X34433Y309200D01*
X41767Y309200D01*
X41767Y293700D01*
X34433Y293700D01*
G37*
G36*
X38100Y297367D02*
X53600Y297367D01*
X53600Y290033D01*
X38100Y290033D01*
X38100Y297367D01*
G37*
G36*
X41767Y293700D02*
X41767Y278200D01*
X34433Y278200D01*
X34433Y293700D01*
X41767Y293700D01*
G37*
G36*
X38100Y290033D02*
X22600Y290033D01*
X22600Y297367D01*
X38100Y297367D01*
X38100Y290033D01*
G37*
G54D22*
G36*
X706442Y448575D02*
X706442Y465075D01*
X713108Y465075D01*
X713108Y448575D01*
X706442Y448575D01*
G37*
G54D23*
G54D21*
G36*
X720233Y344500D02*
X720233Y360000D01*
X727567Y360000D01*
X727567Y344500D01*
X720233Y344500D01*
G37*
G36*
X723900Y348167D02*
X739400Y348167D01*
X739400Y340833D01*
X723900Y340833D01*
X723900Y348167D01*
G37*
G36*
X727567Y344500D02*
X727567Y329000D01*
X720233Y329000D01*
X720233Y344500D01*
X727567Y344500D01*
G37*
G36*
X723900Y340833D02*
X708400Y340833D01*
X708400Y348167D01*
X723900Y348167D01*
X723900Y340833D01*
G37*
G54D21*
G36*
X771033Y344500D02*
X771033Y360000D01*
X778367Y360000D01*
X778367Y344500D01*
X771033Y344500D01*
G37*
G36*
X774700Y348167D02*
X790200Y348167D01*
X790200Y340833D01*
X774700Y340833D01*
X774700Y348167D01*
G37*
G36*
X778367Y344500D02*
X778367Y329000D01*
X771033Y329000D01*
X771033Y344500D01*
X778367Y344500D01*
G37*
G36*
X774700Y340833D02*
X759200Y340833D01*
X759200Y348167D01*
X774700Y348167D01*
X774700Y340833D01*
G37*
G54D21*
G36*
X771033Y293700D02*
X771033Y309200D01*
X778367Y309200D01*
X778367Y293700D01*
X771033Y293700D01*
G37*
G36*
X774700Y297367D02*
X790200Y297367D01*
X790200Y290033D01*
X774700Y290033D01*
X774700Y297367D01*
G37*
G36*
X778367Y293700D02*
X778367Y278200D01*
X771033Y278200D01*
X771033Y293700D01*
X778367Y293700D01*
G37*
G36*
X774700Y290033D02*
X759200Y290033D01*
X759200Y297367D01*
X774700Y297367D01*
X774700Y290033D01*
G37*
G54D21*
G36*
X720233Y293700D02*
X720233Y309200D01*
X727567Y309200D01*
X727567Y293700D01*
X720233Y293700D01*
G37*
G36*
X723900Y297367D02*
X739400Y297367D01*
X739400Y290033D01*
X723900Y290033D01*
X723900Y297367D01*
G37*
G36*
X727567Y293700D02*
X727567Y278200D01*
X720233Y278200D01*
X720233Y293700D01*
X727567Y293700D01*
G37*
G36*
X723900Y290033D02*
X708400Y290033D01*
X708400Y297367D01*
X723900Y297367D01*
X723900Y290033D01*
G37*
G54D24*
G36*
X603276Y415344D02*
X627776Y415344D01*
X627776Y403344D01*
X603276Y403344D01*
X603276Y415344D01*
G37*
G54D24*
G36*
X603376Y146944D02*
X627876Y146944D01*
X627876Y134944D01*
X603376Y134944D01*
X603376Y146944D01*
G37*
G54D22*
G36*
X34767Y457200D02*
X34767Y471700D01*
X41433Y471700D01*
X41433Y457200D01*
X34767Y457200D01*
G37*
G36*
X38100Y460533D02*
X52600Y460533D01*
X52600Y453867D01*
X38100Y453867D01*
X38100Y460533D01*
G37*
G36*
X41433Y457200D02*
X41433Y442700D01*
X34767Y442700D01*
X34767Y457200D01*
X41433Y457200D01*
G37*
G36*
X38100Y453867D02*
X23600Y453867D01*
X23600Y460533D01*
X38100Y460533D01*
X38100Y453867D01*
G37*
G54D22*
G36*
X34767Y25400D02*
X34767Y39900D01*
X41433Y39900D01*
X41433Y25400D01*
X34767Y25400D01*
G37*
G36*
X38100Y28733D02*
X52600Y28733D01*
X52600Y22067D01*
X38100Y22067D01*
X38100Y28733D01*
G37*
G36*
X41433Y25400D02*
X41433Y10900D01*
X34767Y10900D01*
X34767Y25400D01*
X41433Y25400D01*
G37*
G36*
X38100Y22067D02*
X23600Y22067D01*
X23600Y28733D01*
X38100Y28733D01*
X38100Y22067D01*
G37*
G54D22*
G36*
X809467Y25400D02*
X809467Y39900D01*
X816133Y39900D01*
X816133Y25400D01*
X809467Y25400D01*
G37*
G36*
X812800Y28733D02*
X827300Y28733D01*
X827300Y22067D01*
X812800Y22067D01*
X812800Y28733D01*
G37*
G36*
X816133Y25400D02*
X816133Y10900D01*
X809467Y10900D01*
X809467Y25400D01*
X816133Y25400D01*
G37*
G36*
X812800Y22067D02*
X798300Y22067D01*
X798300Y28733D01*
X812800Y28733D01*
X812800Y22067D01*
G37*
G54D22*
G36*
X822167Y469900D02*
X822167Y484400D01*
X828833Y484400D01*
X828833Y469900D01*
X822167Y469900D01*
G37*
G36*
X825500Y473233D02*
X840000Y473233D01*
X840000Y466567D01*
X825500Y466567D01*
X825500Y473233D01*
G37*
G36*
X828833Y469900D02*
X828833Y455400D01*
X822167Y455400D01*
X822167Y469900D01*
X828833Y469900D01*
G37*
G36*
X825500Y466567D02*
X811000Y466567D01*
X811000Y473233D01*
X825500Y473233D01*
X825500Y466567D01*
G37*
G54D25*
G36*
X437833Y50800D02*
X437833Y75300D01*
X451167Y75300D01*
X451167Y50800D01*
X437833Y50800D01*
G37*
G36*
X444500Y57467D02*
X469000Y57467D01*
X469000Y44133D01*
X444500Y44133D01*
X444500Y57467D01*
G37*
G36*
X451167Y50800D02*
X451167Y26300D01*
X437833Y26300D01*
X437833Y50800D01*
X451167Y50800D01*
G37*
G36*
X444500Y44133D02*
X420000Y44133D01*
X420000Y57467D01*
X444500Y57467D01*
X444500Y44133D01*
G37*
G54D25*
G36*
X425133Y355600D02*
X425133Y380100D01*
X438467Y380100D01*
X438467Y355600D01*
X425133Y355600D01*
G37*
G36*
X431800Y362267D02*
X456300Y362267D01*
X456300Y348933D01*
X431800Y348933D01*
X431800Y362267D01*
G37*
G36*
X438467Y355600D02*
X438467Y331100D01*
X425133Y331100D01*
X425133Y355600D01*
X438467Y355600D01*
G37*
G36*
X431800Y348933D02*
X407300Y348933D01*
X407300Y362267D01*
X431800Y362267D01*
X431800Y348933D01*
G37*
G54D22*
G36*
X57886Y191261D02*
X57886Y205761D01*
X64552Y205761D01*
X64552Y191261D01*
X57886Y191261D01*
G37*
G36*
X61219Y194594D02*
X75719Y194594D01*
X75719Y187928D01*
X61219Y187928D01*
X61219Y194594D01*
G37*
G36*
X64552Y191261D02*
X64552Y176761D01*
X57886Y176761D01*
X57886Y191261D01*
X64552Y191261D01*
G37*
G36*
X61219Y187928D02*
X46719Y187928D01*
X46719Y194594D01*
X61219Y194594D01*
X61219Y187928D01*
G37*
G54D22*
G36*
X57886Y242061D02*
X57886Y256561D01*
X64552Y256561D01*
X64552Y242061D01*
X57886Y242061D01*
G37*
G36*
X61219Y245394D02*
X75719Y245394D01*
X75719Y238728D01*
X61219Y238728D01*
X61219Y245394D01*
G37*
G36*
X64552Y242061D02*
X64552Y227561D01*
X57886Y227561D01*
X57886Y242061D01*
X64552Y242061D01*
G37*
G36*
X61219Y238728D02*
X46719Y238728D01*
X46719Y245394D01*
X61219Y245394D01*
X61219Y238728D01*
G37*
G54D22*
G36*
X400966Y140573D02*
X400966Y155073D01*
X407632Y155073D01*
X407632Y140573D01*
X400966Y140573D01*
G37*
G36*
X404299Y143906D02*
X418799Y143906D01*
X418799Y137240D01*
X404299Y137240D01*
X404299Y143906D01*
G37*
G36*
X407632Y140573D02*
X407632Y126073D01*
X400966Y126073D01*
X400966Y140573D01*
X407632Y140573D01*
G37*
G36*
X404299Y137240D02*
X389799Y137240D01*
X389799Y143906D01*
X404299Y143906D01*
X404299Y137240D01*
G37*
G54D22*
G36*
X634867Y230100D02*
X634867Y244600D01*
X641533Y244600D01*
X641533Y230100D01*
X634867Y230100D01*
G37*
G36*
X638200Y233433D02*
X652700Y233433D01*
X652700Y226767D01*
X638200Y226767D01*
X638200Y233433D01*
G37*
G36*
X641533Y230100D02*
X641533Y215600D01*
X634867Y215600D01*
X634867Y230100D01*
X641533Y230100D01*
G37*
G36*
X638200Y226767D02*
X623700Y226767D01*
X623700Y233433D01*
X638200Y233433D01*
X638200Y226767D01*
G37*
G54D22*
G36*
X326842Y226875D02*
X326842Y241375D01*
X333508Y241375D01*
X333508Y226875D01*
X326842Y226875D01*
G37*
G36*
X330175Y230208D02*
X344675Y230208D01*
X344675Y223542D01*
X330175Y223542D01*
X330175Y230208D01*
G37*
G36*
X333508Y226875D02*
X333508Y212375D01*
X326842Y212375D01*
X326842Y226875D01*
X333508Y226875D01*
G37*
G36*
X330175Y223542D02*
X315675Y223542D01*
X315675Y230208D01*
X330175Y230208D01*
X330175Y223542D01*
G37*
G54D21*
G36*
X275708Y226875D02*
X275708Y242375D01*
X283042Y242375D01*
X283042Y226875D01*
X275708Y226875D01*
G37*
G36*
X279375Y230542D02*
X294875Y230542D01*
X294875Y223208D01*
X279375Y223208D01*
X279375Y230542D01*
G37*
G36*
X283042Y226875D02*
X283042Y211375D01*
X275708Y211375D01*
X275708Y226875D01*
X283042Y226875D01*
G37*
G36*
X279375Y223208D02*
X263875Y223208D01*
X263875Y230542D01*
X279375Y230542D01*
X279375Y223208D01*
G37*
G54D21*
G36*
X282067Y187811D02*
X282067Y203311D01*
X289401Y203311D01*
X289401Y187811D01*
X282067Y187811D01*
G37*
G36*
X285734Y191477D02*
X301234Y191477D01*
X301234Y184144D01*
X285734Y184144D01*
X285734Y191477D01*
G37*
G36*
X289401Y187811D02*
X289401Y172311D01*
X282067Y172311D01*
X282067Y187811D01*
X289401Y187811D01*
G37*
G36*
X285734Y184144D02*
X270234Y184144D01*
X270234Y191477D01*
X285734Y191477D01*
X285734Y184144D01*
G37*
G54D21*
G36*
X381231Y193810D02*
X381231Y209310D01*
X388564Y209310D01*
X388564Y193810D01*
X381231Y193810D01*
G37*
G36*
X384898Y197476D02*
X400398Y197476D01*
X400398Y190143D01*
X384898Y190143D01*
X384898Y197476D01*
G37*
G36*
X388564Y193810D02*
X388564Y178310D01*
X381231Y178310D01*
X381231Y193810D01*
X388564Y193810D01*
G37*
G36*
X384898Y190143D02*
X369398Y190143D01*
X369398Y197476D01*
X384898Y197476D01*
X384898Y190143D01*
G37*
G54D21*
G36*
X444731Y193810D02*
X444731Y209310D01*
X452064Y209310D01*
X452064Y193810D01*
X444731Y193810D01*
G37*
G36*
X448398Y197476D02*
X463898Y197476D01*
X463898Y190143D01*
X448398Y190143D01*
X448398Y197476D01*
G37*
G36*
X452064Y193810D02*
X452064Y178310D01*
X444731Y178310D01*
X444731Y193810D01*
X452064Y193810D01*
G37*
G36*
X448398Y190143D02*
X432898Y190143D01*
X432898Y197476D01*
X448398Y197476D01*
X448398Y190143D01*
G37*
G54D22*
G36*
X266567Y90400D02*
X266567Y104900D01*
X273233Y104900D01*
X273233Y90400D01*
X266567Y90400D01*
G37*
G36*
X269900Y93733D02*
X284400Y93733D01*
X284400Y87067D01*
X269900Y87067D01*
X269900Y93733D01*
G37*
G36*
X273233Y90400D02*
X273233Y75900D01*
X266567Y75900D01*
X266567Y90400D01*
X273233Y90400D01*
G37*
G36*
X269900Y87067D02*
X255400Y87067D01*
X255400Y93733D01*
X269900Y93733D01*
X269900Y87067D01*
G37*
G54D21*
G36*
X57552Y242061D02*
X57552Y257561D01*
X64885Y257561D01*
X64885Y242061D01*
X57552Y242061D01*
G37*
G36*
X61219Y245728D02*
X76719Y245728D01*
X76719Y238394D01*
X61219Y238394D01*
X61219Y245728D01*
G37*
G36*
X64885Y242061D02*
X64885Y226561D01*
X57552Y226561D01*
X57552Y242061D01*
X64885Y242061D01*
G37*
G36*
X61219Y238394D02*
X45719Y238394D01*
X45719Y245728D01*
X61219Y245728D01*
X61219Y238394D01*
G37*
G54D21*
G36*
X57552Y191261D02*
X57552Y206761D01*
X64885Y206761D01*
X64885Y191261D01*
X57552Y191261D01*
G37*
G36*
X61219Y194928D02*
X76719Y194928D01*
X76719Y187594D01*
X61219Y187594D01*
X61219Y194928D01*
G37*
G36*
X64885Y191261D02*
X64885Y175761D01*
X57552Y175761D01*
X57552Y191261D01*
X64885Y191261D01*
G37*
G36*
X61219Y187594D02*
X45719Y187594D01*
X45719Y194928D01*
X61219Y194928D01*
X61219Y187594D01*
G37*
G54D21*
G36*
X62945Y119100D02*
X62945Y134600D01*
X70279Y134600D01*
X70279Y119100D01*
X62945Y119100D01*
G37*
G36*
X66612Y122767D02*
X82112Y122767D01*
X82112Y115433D01*
X66612Y115433D01*
X66612Y122767D01*
G37*
G36*
X70279Y119100D02*
X70279Y103600D01*
X62945Y103600D01*
X62945Y119100D01*
X70279Y119100D01*
G37*
G36*
X66612Y115433D02*
X51112Y115433D01*
X51112Y122767D01*
X66612Y122767D01*
X66612Y115433D01*
G37*
G54D21*
G36*
X400632Y140573D02*
X400632Y156073D01*
X407966Y156073D01*
X407966Y140573D01*
X400632Y140573D01*
G37*
G36*
X404299Y144240D02*
X419799Y144240D01*
X419799Y136906D01*
X404299Y136906D01*
X404299Y144240D01*
G37*
G36*
X407966Y140573D02*
X407966Y125073D01*
X400632Y125073D01*
X400632Y140573D01*
X407966Y140573D01*
G37*
G36*
X404299Y136906D02*
X388799Y136906D01*
X388799Y144240D01*
X404299Y144240D01*
X404299Y136906D01*
G37*
G54D21*
G36*
X326508Y226875D02*
X326508Y242375D01*
X333842Y242375D01*
X333842Y226875D01*
X326508Y226875D01*
G37*
G36*
X330175Y230542D02*
X345675Y230542D01*
X345675Y223208D01*
X330175Y223208D01*
X330175Y230542D01*
G37*
G36*
X333842Y226875D02*
X333842Y211375D01*
X326508Y211375D01*
X326508Y226875D01*
X333842Y226875D01*
G37*
G36*
X330175Y223208D02*
X314675Y223208D01*
X314675Y230542D01*
X330175Y230542D01*
X330175Y223208D01*
G37*
G54D21*
G36*
X774931Y397010D02*
X774931Y412510D01*
X782264Y412510D01*
X782264Y397010D01*
X774931Y397010D01*
G37*
G36*
X778598Y400676D02*
X794098Y400676D01*
X794098Y393343D01*
X778598Y393343D01*
X778598Y400676D01*
G37*
G36*
X782264Y397010D02*
X782264Y381510D01*
X774931Y381510D01*
X774931Y397010D01*
X782264Y397010D01*
G37*
G36*
X778598Y393343D02*
X763098Y393343D01*
X763098Y400676D01*
X778598Y400676D01*
X778598Y393343D01*
G37*
X231800Y373100D02*
G54D26*
D03*
X257200Y373100D02*
G54D26*
D03*
X282600Y373100D02*
G54D26*
D03*
X579716Y298260D02*
G54D26*
D03*
X579716Y272860D02*
G54D26*
D03*
X579716Y247460D02*
G54D26*
D03*
X188399Y305673D02*
G54D27*
D03*
X137419Y305561D02*
G54D27*
D03*
X228625Y303125D02*
G54D27*
D03*
X228575Y226875D02*
G54D27*
D03*
X38100Y344500D02*
G54D28*
D03*
X88900Y344500D02*
G54D28*
D03*
X63500Y319100D02*
G54D28*
D03*
X88900Y293700D02*
G54D28*
D03*
X38100Y293700D02*
G54D28*
D03*
X139725Y455525D02*
G54D27*
D03*
X139675Y379275D02*
G54D27*
D03*
X279425Y303125D02*
G54D27*
D03*
X279375Y226875D02*
G54D27*
D03*
X264599Y445373D02*
G54D27*
D03*
X213619Y445261D02*
G54D27*
D03*
X330225Y303125D02*
G54D29*
D03*
X330175Y226875D02*
G54D29*
D03*
X285734Y187811D02*
G54D27*
D03*
X336715Y187923D02*
G54D27*
D03*
X231223Y195048D02*
G54D27*
D03*
X154973Y195098D02*
G54D27*
D03*
X112199Y242173D02*
G54D27*
D03*
X61219Y242061D02*
G54D27*
D03*
X112199Y191373D02*
G54D27*
D03*
X61219Y191261D02*
G54D27*
D03*
X66612Y119100D02*
G54D27*
D03*
X101712Y119100D02*
G54D27*
D03*
X231223Y131548D02*
G54D27*
D03*
X154973Y131598D02*
G54D27*
D03*
X269900Y90400D02*
G54D29*
D03*
X269900Y141200D02*
G54D29*
D03*
X404299Y140573D02*
G54D27*
D03*
X353319Y140461D02*
G54D27*
D03*
X396323Y449048D02*
G54D27*
D03*
X320073Y449098D02*
G54D27*
D03*
X638200Y306300D02*
G54D27*
D03*
X638200Y230100D02*
G54D27*
D03*
X785299Y229474D02*
G54D27*
D03*
X734318Y229361D02*
G54D27*
D03*
X384200Y395200D02*
G54D27*
D03*
X384200Y306300D02*
G54D27*
D03*
X498500Y395200D02*
G54D27*
D03*
X498500Y306300D02*
G54D27*
D03*
X384898Y193810D02*
G54D27*
D03*
X384785Y244790D02*
G54D27*
D03*
X709775Y448575D02*
G54D27*
D03*
X735275Y448575D02*
G54D27*
D03*
X778598Y397010D02*
G54D27*
D03*
X778485Y447990D02*
G54D27*
D03*
X701700Y179300D02*
G54D27*
D03*
X790600Y179300D02*
G54D27*
D03*
X701700Y90400D02*
G54D27*
D03*
X790600Y90400D02*
G54D27*
D03*
X505900Y445373D02*
G54D27*
D03*
X454920Y445260D02*
G54D27*
D03*
X723900Y344500D02*
G54D28*
D03*
X774700Y344500D02*
G54D28*
D03*
X749300Y319100D02*
G54D28*
D03*
X774700Y293700D02*
G54D28*
D03*
X723900Y293700D02*
G54D28*
D03*
X603276Y409344D02*
G54D30*
D03*
X603376Y140944D02*
G54D30*
D03*
X498500Y255500D02*
G54D27*
D03*
X498500Y153900D02*
G54D27*
D03*
X448398Y193810D02*
G54D27*
D03*
X448285Y244790D02*
G54D27*
D03*
G54D31*
X638200Y306300D02*
X606450Y274550D01*
X581050Y274550D01*
X579716Y272860D01*
G54D31*
X790600Y90400D02*
X701700Y179300D01*
G54D31*
X735275Y448575D02*
X733450Y446000D01*
X714400Y426950D01*
X701700Y426950D01*
X689000Y439650D01*
X593750Y439650D01*
X396900Y242800D01*
X384200Y242800D01*
X384785Y244790D01*
G36*
X28100Y467200D02*
X48100Y467200D01*
X48100Y447200D01*
X28100Y447200D01*
X28100Y467200D01*
G37*
G36*
X28100Y35400D02*
X48100Y35400D01*
X48100Y15400D01*
X28100Y15400D01*
X28100Y35400D01*
G37*
G36*
X802800Y35400D02*
X822800Y35400D01*
X822800Y15400D01*
X802800Y15400D01*
X802800Y35400D01*
G37*
G36*
X815500Y479900D02*
X835500Y479900D01*
X835500Y459900D01*
X815500Y459900D01*
X815500Y479900D01*
G37*
X444500Y50800D02*
G54D32*
D03*
X431800Y355600D02*
G54D32*
D03*
X61219Y191261D02*
G54D33*
D03*
X61219Y242061D02*
G54D33*
D03*
X404299Y140573D02*
G54D33*
D03*
X638200Y230100D02*
G54D33*
D03*
G54D31*
X638200Y230100D02*
X641350Y228600D01*
X622300Y247650D01*
X577850Y247650D01*
X579716Y247460D01*
X330175Y226875D02*
G54D33*
D03*
X279375Y226875D02*
G54D34*
D03*
X285734Y187811D02*
G54D34*
D03*
X384898Y193810D02*
G54D34*
D03*
X448398Y193810D02*
G54D34*
D03*
X269900Y90400D02*
G54D33*
D03*
X61219Y242061D02*
G54D34*
D03*
X61219Y191261D02*
G54D34*
D03*
X66612Y119100D02*
G54D34*
D03*
X404299Y140573D02*
G54D34*
D03*
X330175Y226875D02*
G54D34*
D03*
X778598Y397010D02*
G54D34*
D03*
M02*
