; Drill file
; Format: 2.4 (00.0000)
M48
INCH
T01C0.0197
T02C0.0236
T03C0.0354
T04C0.0787
%
G05
G90
T01
X-020750Y003250
X002300Y003130
T02
X-005500Y-006500
X-002000Y-006500
T03
X-016980Y-005710
X-016990Y-003700
X-014800Y-003570
X-015540Y-001970
X-016050Y000040
X-015590Y002530
X-013580Y002530
X-011500Y001500
X-013040Y000040
X-011370Y-002440
X-013000Y-003130
X-011370Y-004330
X-014800Y-006570
X-018550Y-001960
X-020500Y000000
X-020500Y002000
X-018580Y001020
X-018590Y003030
X-016550Y005540
X-013540Y005530
X-011870Y006060
X-010980Y003790
X-008970Y003800
X-008500Y001500
X-006500Y000500
X-005000Y000250
X-005000Y-000500
X-003500Y000500
X-001590Y-001470
X000420Y-001470
X002500Y000000
X002500Y002000
X-000430Y002380
X-000430Y001000
X-001480Y004290
X-001490Y006300
X000940Y006410
X001950Y006410
X-003930Y005880
X-003930Y004500
X-006480Y004290
X-006490Y006300
X-007870Y006060
X-005500Y-003500
X-002000Y-003750
T04
X-020620Y-006940
X-020510Y007250
X003630Y007060
X003630Y-006940
M30
