; Drill file
; Format: 2.4 (00.0000)
M48
INCH
T01C0.0283
T02C0.0354
T03C0.0394
T04C0.0787
%
G05
G90
T01
X002000Y011180
X025500Y010680
X025500Y006680
T02
X000880Y011370
X000880Y014370
X000700Y015700
X000790Y017250
X001180Y018800
X001870Y019420
X002560Y018800
X002800Y017250
X003700Y015700
X004370Y014230
X006370Y014240
X007620Y016840
X010620Y016840
X011280Y019520
X013290Y019520
X014370Y016790
X017370Y016790
X019940Y018480
X019940Y019870
X024320Y019400
X025320Y019400
X019290Y012520
X017280Y012520
X013500Y011300
X012370Y010360
X013500Y009410
X013870Y006990
X016370Y006990
X016370Y004490
X013870Y004490
X009620Y011210
X007610Y011210
X006000Y011180
X005350Y021000
X004340Y021000
X008500Y021000
X009500Y021000
X025610Y005200
X025620Y003200
T03
X002870Y005050
X003870Y006050
X002870Y007050
X004870Y007050
X004870Y005050
X007000Y005930
X007000Y003930
X007000Y001930
X010000Y001930
X010000Y003930
X010000Y005930
X010000Y008930
X007000Y008930
X020750Y009180
X020750Y006180
X020750Y004180
X020750Y002180
X018980Y001170
X023750Y002180
X023750Y004180
X023750Y006180
X023750Y009180
X026980Y009170
X024870Y013050
X023870Y014050
X022870Y015050
X024870Y015050
X022870Y013050
X026980Y017170
X016480Y021170
T04
X001250Y001050
X000750Y021050
X027000Y021300
X027000Y000800
M30
