%FSLAX34Y34*%
%MOMM*%
%LNCOPPER_BOTTOM*%
G71*
G01*
%ADD10C,3.200*%
%ADD11C,3.000*%
%ADD12C,3.000*%
%ADD13C,2.800*%
%ADD14C,2.800*%
%ADD15C,3.200*%
%ADD16C,2.700*%
%ADD17C,1.400*%
%ADD18C,1.800*%
%ADD19C,1.300*%
%ADD20C,0.667*%
%ADD21C,0.813*%
%ADD22C,0.733*%
%ADD23C,1.467*%
%ADD24C,2.230*%
%ADD25C,1.447*%
%ADD26C,1.360*%
%ADD27C,2.000*%
%ADD28C,1.800*%
%ADD29C,2.200*%
%ADD30C,2.000*%
%ADD31C,3.000*%
%ADD32C,1.900*%
%ADD33C,0.600*%
%ADD34C,1.000*%
%ADD35C,0.500*%
%LPD*%
G36*
X0Y560000D02*
X720000Y560000D01*
X720000Y0D01*
X0Y0D01*
X0Y560000D01*
G37*
%LPC*%
X161900Y361650D02*
G54D10*
D03*
X110920Y361538D02*
G54D10*
D03*
X337596Y495870D02*
G54D10*
D03*
X286616Y495757D02*
G54D10*
D03*
X617675Y492725D02*
G54D10*
D03*
X643175Y492725D02*
G54D10*
D03*
X342900Y286950D02*
G54D11*
D03*
X314300Y263025D02*
G54D11*
D03*
X342935Y239059D02*
G54D11*
D03*
X73000Y179100D02*
G54D12*
D03*
X123800Y179100D02*
G54D12*
D03*
X98400Y153700D02*
G54D12*
D03*
X123800Y128300D02*
G54D12*
D03*
X73000Y128300D02*
G54D12*
D03*
X193650Y427690D02*
G54D13*
D03*
X269850Y427690D02*
G54D13*
D03*
X506456Y469506D02*
G54D13*
D03*
X506456Y504606D02*
G54D13*
D03*
X352400Y177500D02*
G54D13*
D03*
X415900Y177500D02*
G54D13*
D03*
X415900Y114000D02*
G54D13*
D03*
X352400Y114000D02*
G54D13*
D03*
X254000Y226749D02*
G54D14*
D03*
X352400Y114000D02*
G54D14*
D03*
X415900Y114000D02*
G54D14*
D03*
G36*
X404473Y551698D02*
X432473Y551698D01*
X432473Y523698D01*
X404473Y523698D01*
X404473Y551698D01*
G37*
X31750Y26600D02*
G54D15*
D03*
X685800Y540950D02*
G54D15*
D03*
X685800Y20250D02*
G54D15*
D03*
X177800Y226749D02*
G54D12*
D03*
X254000Y226749D02*
G54D12*
D03*
X177800Y150549D02*
G54D12*
D03*
X177800Y99749D02*
G54D12*
D03*
X177800Y48949D02*
G54D12*
D03*
X254000Y150549D02*
G54D12*
D03*
X254000Y99749D02*
G54D12*
D03*
X254000Y48949D02*
G54D12*
D03*
X152400Y283900D02*
G54D16*
D03*
X50800Y283900D02*
G54D16*
D03*
X244310Y284725D02*
G54D10*
D03*
X193330Y284613D02*
G54D10*
D03*
X152400Y283900D02*
G54D13*
D03*
X152400Y283900D02*
G54D14*
D03*
X244310Y284725D02*
G54D14*
D03*
X581000Y382300D02*
G54D12*
D03*
X631800Y382300D02*
G54D12*
D03*
X606400Y356900D02*
G54D12*
D03*
X631800Y331500D02*
G54D12*
D03*
X581000Y331500D02*
G54D12*
D03*
X527050Y233099D02*
G54D12*
D03*
X603250Y233099D02*
G54D12*
D03*
X527050Y156899D02*
G54D12*
D03*
X527050Y106099D02*
G54D12*
D03*
X527050Y55299D02*
G54D12*
D03*
X603250Y156899D02*
G54D12*
D03*
X603250Y106099D02*
G54D12*
D03*
X603250Y55299D02*
G54D12*
D03*
X647700Y169600D02*
G54D16*
D03*
X647700Y271200D02*
G54D16*
D03*
X650658Y81207D02*
G54D10*
D03*
X650546Y132188D02*
G54D10*
D03*
X110309Y533322D02*
G54D10*
D03*
X135809Y533322D02*
G54D10*
D03*
X647700Y169600D02*
G54D14*
D03*
X650658Y81207D02*
G54D14*
D03*
X506456Y469506D02*
G54D14*
D03*
X603250Y233099D02*
G54D14*
D03*
X365100Y426420D02*
G54D13*
D03*
X441300Y426420D02*
G54D13*
D03*
X489997Y318070D02*
G54D10*
D03*
X439016Y317957D02*
G54D10*
D03*
X342935Y239059D02*
G54D14*
D03*
X286616Y495757D02*
G54D14*
D03*
G54D17*
X193330Y284613D02*
X193650Y285450D01*
X174600Y304500D01*
X142850Y304500D01*
X123800Y285450D01*
X53950Y285450D01*
X50800Y283900D01*
G54D17*
X193330Y284613D02*
X193650Y285450D01*
X180950Y272750D01*
X180950Y228300D01*
X177800Y226749D01*
G54D17*
X527050Y233099D02*
X530200Y234650D01*
X511150Y215600D01*
X333350Y215600D01*
X317500Y215900D01*
X301600Y247350D01*
X244450Y247350D01*
X225400Y228300D01*
X180950Y228300D01*
X177800Y226749D01*
G54D17*
X193650Y427690D02*
X193650Y425150D01*
X161900Y393400D01*
X161900Y361650D01*
G54D17*
X193650Y427690D02*
X193650Y425150D01*
X314300Y304500D01*
X314300Y260050D01*
X314300Y263025D01*
G54D17*
X365100Y426420D02*
X365100Y425150D01*
X346050Y406100D01*
X346050Y285450D01*
X342900Y286950D01*
G54D17*
X439016Y317957D02*
X441300Y317200D01*
X409550Y285450D01*
X346050Y285450D01*
X342900Y286950D01*
G54D17*
X441300Y426420D02*
X441300Y425150D01*
X466700Y450550D01*
X517500Y450550D01*
X542900Y475950D01*
X625450Y475950D01*
X644500Y495000D01*
X643175Y492725D01*
G54D17*
X441300Y426420D02*
X441300Y425150D01*
X485750Y469600D01*
X485750Y482300D01*
X504800Y501350D01*
X504800Y507700D01*
X506456Y504606D01*
G54D17*
X527050Y55299D02*
X530200Y56850D01*
X581000Y107650D01*
X581000Y241000D01*
X606400Y266400D01*
X606400Y355300D01*
X606400Y356900D01*
G54D17*
X650546Y132188D02*
X650850Y133050D01*
X669900Y152100D01*
X669900Y177500D01*
X650850Y196550D01*
X650850Y272750D01*
X647700Y271200D01*
G54D17*
X603250Y156899D02*
X606400Y158450D01*
X619100Y145750D01*
X619100Y94950D01*
X561950Y37800D01*
X517500Y37800D01*
X460350Y94950D01*
X339700Y94950D01*
X333350Y101300D01*
X257150Y101300D01*
X254000Y99749D01*
G54D17*
X527050Y156899D02*
X530200Y158450D01*
X511150Y177500D01*
X415900Y177500D01*
X269850Y427690D02*
G54D14*
D03*
X65129Y477458D02*
G54D11*
D03*
X47554Y493358D02*
G54D11*
D03*
X29938Y477423D02*
G54D11*
D03*
X20064Y438071D02*
G54D10*
D03*
X71045Y438184D02*
G54D10*
D03*
X17656Y398724D02*
G54D10*
D03*
X93907Y398674D02*
G54D10*
D03*
X22396Y365032D02*
G54D10*
D03*
X22346Y288781D02*
G54D10*
D03*
G54D17*
X93906Y398674D02*
X91407Y400666D01*
X72357Y419716D01*
X72357Y438766D01*
X71045Y438183D01*
G54D17*
X71045Y438183D02*
X72357Y438766D01*
X66007Y445116D01*
X66007Y476866D01*
X65129Y477457D01*
G54D17*
X20064Y438071D02*
X21557Y438766D01*
X46957Y464166D01*
X46957Y495916D01*
X47554Y493357D01*
G54D17*
X17656Y398724D02*
X15207Y400666D01*
X21557Y407016D01*
X21557Y438766D01*
X20064Y438071D01*
X215900Y533400D02*
G54D13*
D03*
X241300Y533400D02*
G54D13*
D03*
G36*
X467973Y43698D02*
X495973Y43698D01*
X495973Y15698D01*
X467973Y15698D01*
X467973Y43698D01*
G37*
G36*
X671173Y450098D02*
X699173Y450098D01*
X699173Y422098D01*
X671173Y422098D01*
X671173Y450098D01*
G37*
G36*
X671173Y246898D02*
X699173Y246898D01*
X699173Y218898D01*
X671173Y218898D01*
X671173Y246898D01*
G37*
G54D17*
X71045Y438184D02*
X69850Y438150D01*
X133350Y501650D01*
X133350Y533400D01*
X135809Y533322D01*
X19050Y534600D02*
G54D15*
D03*
G54D17*
X22396Y365032D02*
X25400Y361950D01*
X19050Y368300D01*
X19050Y400050D01*
X17656Y398724D01*
X624300Y422200D02*
G54D18*
D03*
G54D19*
X624300Y422200D02*
X624300Y421100D01*
X609600Y406400D01*
X609600Y360100D01*
X606400Y356900D01*
%LPD*%
G54D20*
G36*
X614342Y492725D02*
X614342Y509225D01*
X621008Y509225D01*
X621008Y492725D01*
X614342Y492725D01*
G37*
G54D21*
G54D22*
G36*
X69333Y179100D02*
X69333Y194600D01*
X76667Y194600D01*
X76667Y179100D01*
X69333Y179100D01*
G37*
G36*
X73000Y182767D02*
X88500Y182767D01*
X88500Y175433D01*
X73000Y175433D01*
X73000Y182767D01*
G37*
G36*
X76667Y179100D02*
X76667Y163600D01*
X69333Y163600D01*
X69333Y179100D01*
X76667Y179100D01*
G37*
G36*
X73000Y175433D02*
X57500Y175433D01*
X57500Y182767D01*
X73000Y182767D01*
X73000Y175433D01*
G37*
G54D22*
G36*
X120133Y179100D02*
X120133Y194600D01*
X127467Y194600D01*
X127467Y179100D01*
X120133Y179100D01*
G37*
G36*
X123800Y182767D02*
X139300Y182767D01*
X139300Y175433D01*
X123800Y175433D01*
X123800Y182767D01*
G37*
G36*
X127467Y179100D02*
X127467Y163600D01*
X120133Y163600D01*
X120133Y179100D01*
X127467Y179100D01*
G37*
G36*
X123800Y175433D02*
X108300Y175433D01*
X108300Y182767D01*
X123800Y182767D01*
X123800Y175433D01*
G37*
G54D22*
G36*
X120133Y128300D02*
X120133Y143800D01*
X127467Y143800D01*
X127467Y128300D01*
X120133Y128300D01*
G37*
G36*
X123800Y131967D02*
X139300Y131967D01*
X139300Y124633D01*
X123800Y124633D01*
X123800Y131967D01*
G37*
G36*
X127467Y128300D02*
X127467Y112800D01*
X120133Y112800D01*
X120133Y128300D01*
X127467Y128300D01*
G37*
G36*
X123800Y124633D02*
X108300Y124633D01*
X108300Y131967D01*
X123800Y131967D01*
X123800Y124633D01*
G37*
G54D22*
G36*
X69333Y128300D02*
X69333Y143800D01*
X76667Y143800D01*
X76667Y128300D01*
X69333Y128300D01*
G37*
G36*
X73000Y131967D02*
X88500Y131967D01*
X88500Y124633D01*
X73000Y124633D01*
X73000Y131967D01*
G37*
G36*
X76667Y128300D02*
X76667Y112800D01*
X69333Y112800D01*
X69333Y128300D01*
X76667Y128300D01*
G37*
G36*
X73000Y124633D02*
X57500Y124633D01*
X57500Y131967D01*
X73000Y131967D01*
X73000Y124633D01*
G37*
G54D23*
G36*
X246666Y226749D02*
X246666Y241249D01*
X261333Y241249D01*
X261333Y226749D01*
X246666Y226749D01*
G37*
G36*
X254000Y234082D02*
X268500Y234082D01*
X268500Y219416D01*
X254000Y219416D01*
X254000Y234082D01*
G37*
G36*
X261333Y226749D02*
X261333Y212249D01*
X246666Y212249D01*
X246666Y226749D01*
X261333Y226749D01*
G37*
G36*
X254000Y219416D02*
X239500Y219416D01*
X239500Y234082D01*
X254000Y234082D01*
X254000Y219416D01*
G37*
G54D23*
G36*
X345067Y114000D02*
X345067Y128500D01*
X359733Y128500D01*
X359733Y114000D01*
X345067Y114000D01*
G37*
G36*
X352400Y121333D02*
X366900Y121333D01*
X366900Y106667D01*
X352400Y106667D01*
X352400Y121333D01*
G37*
G36*
X359733Y114000D02*
X359733Y99500D01*
X345067Y99500D01*
X345067Y114000D01*
X359733Y114000D01*
G37*
G36*
X352400Y106667D02*
X337900Y106667D01*
X337900Y121333D01*
X352400Y121333D01*
X352400Y106667D01*
G37*
G54D23*
G36*
X408567Y114000D02*
X408567Y128500D01*
X423233Y128500D01*
X423233Y114000D01*
X408567Y114000D01*
G37*
G36*
X415900Y121333D02*
X430400Y121333D01*
X430400Y106667D01*
X415900Y106667D01*
X415900Y121333D01*
G37*
G36*
X423233Y114000D02*
X423233Y99500D01*
X408567Y99500D01*
X408567Y114000D01*
X423233Y114000D01*
G37*
G36*
X415900Y106667D02*
X401400Y106667D01*
X401400Y121333D01*
X415900Y121333D01*
X415900Y106667D01*
G37*
G54D20*
G36*
X415140Y537698D02*
X415140Y552198D01*
X421806Y552198D01*
X421806Y537698D01*
X415140Y537698D01*
G37*
G36*
X418473Y541031D02*
X432973Y541031D01*
X432973Y534365D01*
X418473Y534365D01*
X418473Y541031D01*
G37*
G36*
X421806Y537698D02*
X421806Y523198D01*
X415140Y523198D01*
X415140Y537698D01*
X421806Y537698D01*
G37*
G36*
X418473Y534365D02*
X403973Y534365D01*
X403973Y541031D01*
X418473Y541031D01*
X418473Y534365D01*
G37*
G54D24*
G36*
X31750Y37750D02*
X48250Y37750D01*
X48250Y15450D01*
X31750Y15450D01*
X31750Y37750D01*
G37*
G36*
X42900Y26600D02*
X42900Y10100D01*
X20600Y10100D01*
X20600Y26600D01*
X42900Y26600D01*
G37*
G36*
X31750Y15450D02*
X15250Y15450D01*
X15250Y37750D01*
X31750Y37750D01*
X31750Y15450D01*
G37*
G36*
X20600Y26600D02*
X20600Y43100D01*
X42900Y43100D01*
X42900Y26600D01*
X20600Y26600D01*
G37*
G54D24*
G36*
X685800Y552100D02*
X702300Y552100D01*
X702300Y529800D01*
X685800Y529800D01*
X685800Y552100D01*
G37*
G36*
X696950Y540950D02*
X696950Y524450D01*
X674650Y524450D01*
X674650Y540950D01*
X696950Y540950D01*
G37*
G36*
X685800Y529800D02*
X669300Y529800D01*
X669300Y552100D01*
X685800Y552100D01*
X685800Y529800D01*
G37*
G36*
X674650Y540950D02*
X674650Y557450D01*
X696950Y557450D01*
X696950Y540950D01*
X674650Y540950D01*
G37*
G54D24*
G36*
X685800Y31400D02*
X702300Y31400D01*
X702300Y9100D01*
X685800Y9100D01*
X685800Y31400D01*
G37*
G36*
X696950Y20250D02*
X696950Y3750D01*
X674650Y3750D01*
X674650Y20250D01*
X696950Y20250D01*
G37*
G36*
X685800Y9100D02*
X669300Y9100D01*
X669300Y31400D01*
X685800Y31400D01*
X685800Y9100D01*
G37*
G36*
X674650Y20250D02*
X674650Y36750D01*
X696950Y36750D01*
X696950Y20250D01*
X674650Y20250D01*
G37*
G54D25*
G36*
X145167Y283900D02*
X145167Y298400D01*
X159633Y298400D01*
X159633Y283900D01*
X145167Y283900D01*
G37*
G36*
X152400Y291133D02*
X166900Y291133D01*
X166900Y276667D01*
X152400Y276667D01*
X152400Y291133D01*
G37*
G36*
X159633Y283900D02*
X159633Y269400D01*
X145167Y269400D01*
X145167Y283900D01*
X159633Y283900D01*
G37*
G36*
X152400Y276667D02*
X137900Y276667D01*
X137900Y291133D01*
X152400Y291133D01*
X152400Y276667D01*
G37*
G54D25*
G36*
X237077Y284725D02*
X237077Y299225D01*
X251543Y299225D01*
X251543Y284725D01*
X237077Y284725D01*
G37*
G36*
X244310Y291959D02*
X258810Y291959D01*
X258810Y277492D01*
X244310Y277492D01*
X244310Y291959D01*
G37*
G36*
X251543Y284725D02*
X251543Y270225D01*
X237077Y270225D01*
X237077Y284725D01*
X251543Y284725D01*
G37*
G36*
X244310Y277492D02*
X229810Y277492D01*
X229810Y291959D01*
X244310Y291959D01*
X244310Y277492D01*
G37*
G54D22*
G36*
X577333Y382300D02*
X577333Y397800D01*
X584667Y397800D01*
X584667Y382300D01*
X577333Y382300D01*
G37*
G36*
X581000Y385967D02*
X596500Y385967D01*
X596500Y378633D01*
X581000Y378633D01*
X581000Y385967D01*
G37*
G36*
X584667Y382300D02*
X584667Y366800D01*
X577333Y366800D01*
X577333Y382300D01*
X584667Y382300D01*
G37*
G36*
X581000Y378633D02*
X565500Y378633D01*
X565500Y385967D01*
X581000Y385967D01*
X581000Y378633D01*
G37*
G54D22*
G36*
X628133Y382300D02*
X628133Y397800D01*
X635467Y397800D01*
X635467Y382300D01*
X628133Y382300D01*
G37*
G36*
X631800Y385967D02*
X647300Y385967D01*
X647300Y378633D01*
X631800Y378633D01*
X631800Y385967D01*
G37*
G36*
X635467Y382300D02*
X635467Y366800D01*
X628133Y366800D01*
X628133Y382300D01*
X635467Y382300D01*
G37*
G36*
X631800Y378633D02*
X616300Y378633D01*
X616300Y385967D01*
X631800Y385967D01*
X631800Y378633D01*
G37*
G54D22*
G36*
X628133Y331500D02*
X628133Y347000D01*
X635467Y347000D01*
X635467Y331500D01*
X628133Y331500D01*
G37*
G36*
X631800Y335167D02*
X647300Y335167D01*
X647300Y327833D01*
X631800Y327833D01*
X631800Y335167D01*
G37*
G36*
X635467Y331500D02*
X635467Y316000D01*
X628133Y316000D01*
X628133Y331500D01*
X635467Y331500D01*
G37*
G36*
X631800Y327833D02*
X616300Y327833D01*
X616300Y335167D01*
X631800Y335167D01*
X631800Y327833D01*
G37*
G54D22*
G36*
X577333Y331500D02*
X577333Y347000D01*
X584667Y347000D01*
X584667Y331500D01*
X577333Y331500D01*
G37*
G36*
X581000Y335167D02*
X596500Y335167D01*
X596500Y327833D01*
X581000Y327833D01*
X581000Y335167D01*
G37*
G36*
X584667Y331500D02*
X584667Y316000D01*
X577333Y316000D01*
X577333Y331500D01*
X584667Y331500D01*
G37*
G36*
X581000Y327833D02*
X565500Y327833D01*
X565500Y335167D01*
X581000Y335167D01*
X581000Y327833D01*
G37*
G54D20*
G36*
X106976Y533322D02*
X106976Y549822D01*
X113642Y549822D01*
X113642Y533322D01*
X106976Y533322D01*
G37*
G54D21*
G54D23*
G36*
X640367Y169600D02*
X640367Y184100D01*
X655033Y184100D01*
X655033Y169600D01*
X640367Y169600D01*
G37*
G36*
X647700Y176933D02*
X662200Y176933D01*
X662200Y162267D01*
X647700Y162267D01*
X647700Y176933D01*
G37*
G36*
X655033Y169600D02*
X655033Y155100D01*
X640367Y155100D01*
X640367Y169600D01*
X655033Y169600D01*
G37*
G36*
X647700Y162267D02*
X633200Y162267D01*
X633200Y176933D01*
X647700Y176933D01*
X647700Y162267D01*
G37*
G54D23*
G36*
X643325Y81207D02*
X643325Y95707D01*
X657992Y95707D01*
X657992Y81207D01*
X643325Y81207D01*
G37*
G36*
X650658Y88540D02*
X665158Y88540D01*
X665158Y73874D01*
X650658Y73874D01*
X650658Y88540D01*
G37*
G36*
X657992Y81207D02*
X657992Y66707D01*
X643325Y66707D01*
X643325Y81207D01*
X657992Y81207D01*
G37*
G36*
X650658Y73874D02*
X636158Y73874D01*
X636158Y88540D01*
X650658Y88540D01*
X650658Y73874D01*
G37*
G54D23*
G36*
X499123Y469506D02*
X499123Y484006D01*
X513789Y484006D01*
X513789Y469506D01*
X499123Y469506D01*
G37*
G36*
X506456Y476839D02*
X520956Y476839D01*
X520956Y462173D01*
X506456Y462173D01*
X506456Y476839D01*
G37*
G36*
X513789Y469506D02*
X513789Y455006D01*
X499123Y455006D01*
X499123Y469506D01*
X513789Y469506D01*
G37*
G36*
X506456Y462173D02*
X491956Y462173D01*
X491956Y476839D01*
X506456Y476839D01*
X506456Y462173D01*
G37*
G54D23*
G36*
X595916Y233099D02*
X595916Y247599D01*
X610583Y247599D01*
X610583Y233099D01*
X595916Y233099D01*
G37*
G36*
X603250Y240432D02*
X617750Y240432D01*
X617750Y225766D01*
X603250Y225766D01*
X603250Y240432D01*
G37*
G36*
X610583Y233099D02*
X610583Y218599D01*
X595916Y218599D01*
X595916Y233099D01*
X610583Y233099D01*
G37*
G36*
X603250Y225766D02*
X588750Y225766D01*
X588750Y240432D01*
X603250Y240432D01*
X603250Y225766D01*
G37*
G54D23*
G36*
X335601Y239059D02*
X335601Y253559D01*
X350268Y253559D01*
X350268Y239059D01*
X335601Y239059D01*
G37*
G36*
X342935Y246392D02*
X357435Y246392D01*
X357435Y231726D01*
X342935Y231726D01*
X342935Y246392D01*
G37*
G36*
X350268Y239059D02*
X350268Y224559D01*
X335601Y224559D01*
X335601Y239059D01*
X350268Y239059D01*
G37*
G36*
X342935Y231726D02*
X328435Y231726D01*
X328435Y246392D01*
X342935Y246392D01*
X342935Y231726D01*
G37*
G54D23*
G36*
X279283Y495757D02*
X279283Y510257D01*
X293949Y510257D01*
X293949Y495757D01*
X279283Y495757D01*
G37*
G36*
X286616Y503090D02*
X301116Y503090D01*
X301116Y488424D01*
X286616Y488424D01*
X286616Y503090D01*
G37*
G36*
X293949Y495757D02*
X293949Y481257D01*
X279283Y481257D01*
X279283Y495757D01*
X293949Y495757D01*
G37*
G36*
X286616Y488424D02*
X272116Y488424D01*
X272116Y503090D01*
X286616Y503090D01*
X286616Y488424D01*
G37*
G54D23*
G36*
X262517Y427690D02*
X262517Y442190D01*
X277183Y442190D01*
X277183Y427690D01*
X262517Y427690D01*
G37*
G36*
X269850Y435023D02*
X284350Y435023D01*
X284350Y420357D01*
X269850Y420357D01*
X269850Y435023D01*
G37*
G36*
X277183Y427690D02*
X277183Y413190D01*
X262517Y413190D01*
X262517Y427690D01*
X277183Y427690D01*
G37*
G36*
X269850Y420357D02*
X255350Y420357D01*
X255350Y435023D01*
X269850Y435023D01*
X269850Y420357D01*
G37*
G54D26*
G36*
X234500Y533400D02*
X234500Y547900D01*
X248100Y547900D01*
X248100Y533400D01*
X234500Y533400D01*
G37*
G36*
X241300Y540200D02*
X255800Y540200D01*
X255800Y526600D01*
X241300Y526600D01*
X241300Y540200D01*
G37*
G36*
X248100Y533400D02*
X248100Y518900D01*
X234500Y518900D01*
X234500Y533400D01*
X248100Y533400D01*
G37*
G36*
X241300Y526600D02*
X226800Y526600D01*
X226800Y540200D01*
X241300Y540200D01*
X241300Y526600D01*
G37*
G54D20*
G36*
X478640Y29698D02*
X478640Y44198D01*
X485306Y44198D01*
X485306Y29698D01*
X478640Y29698D01*
G37*
G36*
X481973Y33031D02*
X496473Y33031D01*
X496473Y26365D01*
X481973Y26365D01*
X481973Y33031D01*
G37*
G36*
X485306Y29698D02*
X485306Y15198D01*
X478640Y15198D01*
X478640Y29698D01*
X485306Y29698D01*
G37*
G36*
X481973Y26365D02*
X467473Y26365D01*
X467473Y33031D01*
X481973Y33031D01*
X481973Y26365D01*
G37*
G54D20*
G36*
X681840Y436098D02*
X681840Y450598D01*
X688506Y450598D01*
X688506Y436098D01*
X681840Y436098D01*
G37*
G36*
X685173Y439431D02*
X699673Y439431D01*
X699673Y432765D01*
X685173Y432765D01*
X685173Y439431D01*
G37*
G36*
X688506Y436098D02*
X688506Y421598D01*
X681840Y421598D01*
X681840Y436098D01*
X688506Y436098D01*
G37*
G36*
X685173Y432765D02*
X670673Y432765D01*
X670673Y439431D01*
X685173Y439431D01*
X685173Y432765D01*
G37*
G54D20*
G36*
X681840Y232898D02*
X681840Y247398D01*
X688506Y247398D01*
X688506Y232898D01*
X681840Y232898D01*
G37*
G36*
X685173Y236231D02*
X699673Y236231D01*
X699673Y229565D01*
X685173Y229565D01*
X685173Y236231D01*
G37*
G36*
X688506Y232898D02*
X688506Y218398D01*
X681840Y218398D01*
X681840Y232898D01*
X688506Y232898D01*
G37*
G36*
X685173Y229565D02*
X670673Y229565D01*
X670673Y236231D01*
X685173Y236231D01*
X685173Y229565D01*
G37*
G54D24*
G36*
X19050Y545750D02*
X35550Y545750D01*
X35550Y523450D01*
X19050Y523450D01*
X19050Y545750D01*
G37*
G36*
X30200Y534600D02*
X30200Y518100D01*
X7900Y518100D01*
X7900Y534600D01*
X30200Y534600D01*
G37*
G36*
X19050Y523450D02*
X2550Y523450D01*
X2550Y545750D01*
X19050Y545750D01*
X19050Y523450D01*
G37*
G36*
X7900Y534600D02*
X7900Y551100D01*
X30200Y551100D01*
X30200Y534600D01*
X7900Y534600D01*
G37*
X161900Y361650D02*
G54D27*
D03*
X110920Y361538D02*
G54D27*
D03*
X337596Y495870D02*
G54D27*
D03*
X286616Y495757D02*
G54D27*
D03*
X617675Y492725D02*
G54D27*
D03*
X643175Y492725D02*
G54D27*
D03*
X342900Y286950D02*
G54D28*
D03*
X314300Y263025D02*
G54D28*
D03*
X342935Y239059D02*
G54D28*
D03*
X73000Y179100D02*
G54D29*
D03*
X123800Y179100D02*
G54D29*
D03*
X98400Y153700D02*
G54D29*
D03*
X123800Y128300D02*
G54D29*
D03*
X73000Y128300D02*
G54D29*
D03*
X193650Y427690D02*
G54D27*
D03*
X269850Y427690D02*
G54D27*
D03*
X506456Y469506D02*
G54D27*
D03*
X506456Y504606D02*
G54D27*
D03*
X352400Y177500D02*
G54D27*
D03*
X415900Y177500D02*
G54D27*
D03*
X415900Y114000D02*
G54D27*
D03*
X352400Y114000D02*
G54D27*
D03*
X254000Y226749D02*
G54D30*
D03*
X352400Y114000D02*
G54D30*
D03*
X415900Y114000D02*
G54D30*
D03*
G36*
X408473Y547698D02*
X428473Y547698D01*
X428473Y527698D01*
X408473Y527698D01*
X408473Y547698D01*
G37*
X31750Y26600D02*
G54D31*
D03*
X685800Y540950D02*
G54D31*
D03*
X685800Y20250D02*
G54D31*
D03*
X177800Y226749D02*
G54D29*
D03*
X254000Y226749D02*
G54D29*
D03*
X177800Y150549D02*
G54D29*
D03*
X177800Y99749D02*
G54D29*
D03*
X177800Y48949D02*
G54D29*
D03*
X254000Y150549D02*
G54D29*
D03*
X254000Y99749D02*
G54D29*
D03*
X254000Y48949D02*
G54D29*
D03*
X152400Y283900D02*
G54D32*
D03*
X50800Y283900D02*
G54D32*
D03*
X244310Y284725D02*
G54D27*
D03*
X193330Y284613D02*
G54D27*
D03*
X152400Y283900D02*
G54D27*
D03*
X152400Y283900D02*
G54D30*
D03*
X244310Y284725D02*
G54D30*
D03*
X581000Y382300D02*
G54D29*
D03*
X631800Y382300D02*
G54D29*
D03*
X606400Y356900D02*
G54D29*
D03*
X631800Y331500D02*
G54D29*
D03*
X581000Y331500D02*
G54D29*
D03*
X527050Y233099D02*
G54D29*
D03*
X603250Y233099D02*
G54D29*
D03*
X527050Y156899D02*
G54D29*
D03*
X527050Y106099D02*
G54D29*
D03*
X527050Y55299D02*
G54D29*
D03*
X603250Y156899D02*
G54D29*
D03*
X603250Y106099D02*
G54D29*
D03*
X603250Y55299D02*
G54D29*
D03*
X647700Y169600D02*
G54D32*
D03*
X647700Y271200D02*
G54D32*
D03*
X650658Y81207D02*
G54D27*
D03*
X650546Y132188D02*
G54D27*
D03*
X110309Y533322D02*
G54D27*
D03*
X135809Y533322D02*
G54D27*
D03*
X647700Y169600D02*
G54D30*
D03*
X650658Y81207D02*
G54D30*
D03*
X506456Y469506D02*
G54D30*
D03*
X603250Y233099D02*
G54D30*
D03*
X365100Y426420D02*
G54D27*
D03*
X441300Y426420D02*
G54D27*
D03*
X489997Y318070D02*
G54D27*
D03*
X439016Y317957D02*
G54D27*
D03*
X342935Y239059D02*
G54D30*
D03*
X286616Y495757D02*
G54D30*
D03*
G54D33*
X193330Y284613D02*
X193650Y285450D01*
X174600Y304500D01*
X142850Y304500D01*
X123800Y285450D01*
X53950Y285450D01*
X50800Y283900D01*
G54D33*
X193330Y284613D02*
X193650Y285450D01*
X180950Y272750D01*
X180950Y228300D01*
X177800Y226749D01*
G54D33*
X527050Y233099D02*
X530200Y234650D01*
X511150Y215600D01*
X333350Y215600D01*
X317500Y215900D01*
X301600Y247350D01*
X244450Y247350D01*
X225400Y228300D01*
X180950Y228300D01*
X177800Y226749D01*
G54D33*
X193650Y427690D02*
X193650Y425150D01*
X161900Y393400D01*
X161900Y361650D01*
G54D33*
X193650Y427690D02*
X193650Y425150D01*
X314300Y304500D01*
X314300Y260050D01*
X314300Y263025D01*
G54D33*
X365100Y426420D02*
X365100Y425150D01*
X346050Y406100D01*
X346050Y285450D01*
X342900Y286950D01*
G54D33*
X439016Y317957D02*
X441300Y317200D01*
X409550Y285450D01*
X346050Y285450D01*
X342900Y286950D01*
G54D33*
X441300Y426420D02*
X441300Y425150D01*
X466700Y450550D01*
X517500Y450550D01*
X542900Y475950D01*
X625450Y475950D01*
X644500Y495000D01*
X643175Y492725D01*
G54D33*
X441300Y426420D02*
X441300Y425150D01*
X485750Y469600D01*
X485750Y482300D01*
X504800Y501350D01*
X504800Y507700D01*
X506456Y504606D01*
G54D33*
X527050Y55299D02*
X530200Y56850D01*
X581000Y107650D01*
X581000Y241000D01*
X606400Y266400D01*
X606400Y355300D01*
X606400Y356900D01*
G54D33*
X650546Y132188D02*
X650850Y133050D01*
X669900Y152100D01*
X669900Y177500D01*
X650850Y196550D01*
X650850Y272750D01*
X647700Y271200D01*
G54D33*
X603250Y156899D02*
X606400Y158450D01*
X619100Y145750D01*
X619100Y94950D01*
X561950Y37800D01*
X517500Y37800D01*
X460350Y94950D01*
X339700Y94950D01*
X333350Y101300D01*
X257150Y101300D01*
X254000Y99749D01*
G54D33*
X527050Y156899D02*
X530200Y158450D01*
X511150Y177500D01*
X415900Y177500D01*
X269850Y427690D02*
G54D30*
D03*
X65129Y477458D02*
G54D28*
D03*
X47554Y493358D02*
G54D28*
D03*
X29938Y477423D02*
G54D28*
D03*
X20064Y438071D02*
G54D27*
D03*
X71045Y438184D02*
G54D27*
D03*
X17656Y398724D02*
G54D27*
D03*
X93907Y398674D02*
G54D27*
D03*
X22396Y365032D02*
G54D27*
D03*
X22346Y288781D02*
G54D27*
D03*
G54D33*
X93906Y398674D02*
X91407Y400666D01*
X72357Y419716D01*
X72357Y438766D01*
X71045Y438183D01*
G54D33*
X71045Y438183D02*
X72357Y438766D01*
X66007Y445116D01*
X66007Y476866D01*
X65129Y477457D01*
G54D33*
X20064Y438071D02*
X21557Y438766D01*
X46957Y464166D01*
X46957Y495916D01*
X47554Y493357D01*
G54D33*
X17656Y398724D02*
X15207Y400666D01*
X21557Y407016D01*
X21557Y438766D01*
X20064Y438071D01*
X215900Y533400D02*
G54D27*
D03*
X241300Y533400D02*
G54D27*
D03*
G36*
X471973Y39698D02*
X491973Y39698D01*
X491973Y19698D01*
X471973Y19698D01*
X471973Y39698D01*
G37*
G36*
X675173Y446098D02*
X695173Y446098D01*
X695173Y426098D01*
X675173Y426098D01*
X675173Y446098D01*
G37*
G36*
X675173Y242898D02*
X695173Y242898D01*
X695173Y222898D01*
X675173Y222898D01*
X675173Y242898D01*
G37*
G54D33*
X71045Y438184D02*
X69850Y438150D01*
X133350Y501650D01*
X133350Y533400D01*
X135809Y533322D01*
X19050Y534600D02*
G54D31*
D03*
G54D33*
X22396Y365032D02*
X25400Y361950D01*
X19050Y368300D01*
X19050Y400050D01*
X17656Y398724D01*
X624300Y422200D02*
G54D34*
D03*
G54D35*
X624300Y422200D02*
X624300Y421100D01*
X609600Y406400D01*
X609600Y360100D01*
X606400Y356900D01*
M02*
