; Drill file
; Format: 2.4 (00.0000)
M48
INCH
T01C0.0283
T02C0.0354
T03C0.0394
T04C0.0787
%
G05
G90
T01
X-016370Y-002810
X007130Y-003310
X007130Y-007310
T02
X-012370Y-002810
X-010760Y-002780
X-008760Y-002780
X-006000Y-003630
X-004870Y-002690
X-004870Y-004580
X-004500Y-007000
X-002000Y-007000
X-002000Y-009500
X-004500Y-009500
X-001090Y-001470
X000920Y-001470
X-001000Y002800
X-004000Y002800
X-005080Y005530
X-007090Y005530
X-007750Y002850
X-010750Y002850
X-012000Y000250
X-014010Y000250
X-014030Y005510
X-015030Y005510
X001570Y005880
X001570Y004500
X005940Y005410
X006950Y005410
X007240Y-008780
X007240Y-010790
T03
X-015500Y-008940
X-014500Y-007940
X-015500Y-006940
X-013500Y-006940
X-013500Y-008940
X-011370Y-008060
X-011370Y-010060
X-011370Y-012060
X-008370Y-012060
X-008370Y-010060
X-008370Y-008060
X-008370Y-005060
X-011370Y-005060
X002380Y-004810
X002380Y-007810
X002380Y-009810
X002380Y-011810
X005380Y-011810
X005380Y-009810
X005380Y-007810
X005380Y-004810
X004500Y-000940
X005500Y000060
X004500Y001060
X006500Y001060
X006500Y-000940
T04
X-017120Y-012940
X-001900Y-012820
X009630Y-012440
X009380Y007310
X-001900Y007180
X-017120Y007310
M30
