%FSLAX34Y34*%
%MOMM*%
%LNCOPPER_BOTTOM*%
G71*
G01*
%ADD10C,3.200*%
%ADD11C,3.000*%
%ADD12C,3.000*%
%ADD13C,2.800*%
%ADD14C,2.800*%
%ADD15C,3.200*%
%ADD16C,2.700*%
%ADD17C,1.400*%
%ADD18C,0.667*%
%ADD19C,0.813*%
%ADD20C,0.733*%
%ADD21C,1.467*%
%ADD22C,1.000*%
%ADD23C,2.230*%
%ADD24C,1.447*%
%ADD25C,2.000*%
%ADD26C,1.800*%
%ADD27C,2.200*%
%ADD28C,2.000*%
%ADD29C,3.000*%
%ADD30C,1.900*%
%ADD31C,0.600*%
%LPD*%
G36*
X-657200Y407900D02*
X542800Y407900D01*
X542800Y-552100D01*
X-657200Y-552100D01*
X-657200Y407900D01*
G37*
%LPC*%
X-304800Y6350D02*
G54D10*
D03*
X-355780Y6238D02*
G54D10*
D03*
X-129104Y140570D02*
G54D10*
D03*
X-180084Y140457D02*
G54D10*
D03*
X150975Y137425D02*
G54D10*
D03*
X176475Y137425D02*
G54D10*
D03*
X-123800Y-68350D02*
G54D11*
D03*
X-152400Y-92275D02*
G54D11*
D03*
X-123765Y-116241D02*
G54D11*
D03*
X-393700Y-176200D02*
G54D12*
D03*
X-342900Y-176200D02*
G54D12*
D03*
X-368300Y-201600D02*
G54D12*
D03*
X-342900Y-227000D02*
G54D12*
D03*
X-393700Y-227000D02*
G54D12*
D03*
X-273050Y72390D02*
G54D13*
D03*
X-196850Y72390D02*
G54D13*
D03*
X39756Y114206D02*
G54D13*
D03*
X39756Y149306D02*
G54D13*
D03*
X-114300Y-177800D02*
G54D13*
D03*
X-50800Y-177800D02*
G54D13*
D03*
X-50800Y-241300D02*
G54D13*
D03*
X-114300Y-241300D02*
G54D13*
D03*
X-212700Y-128551D02*
G54D14*
D03*
X-114300Y-241300D02*
G54D14*
D03*
X-50800Y-241300D02*
G54D14*
D03*
G36*
X-67227Y201398D02*
X-29227Y201398D01*
X-29227Y163398D01*
X-67227Y163398D01*
X-67227Y201398D01*
G37*
G36*
X-67227Y-306602D02*
X-29227Y-306602D01*
X-29227Y-344602D01*
X-67227Y-344602D01*
X-67227Y-306602D01*
G37*
X-434950Y-328700D02*
G54D15*
D03*
X-434950Y185650D02*
G54D15*
D03*
X238150Y185650D02*
G54D15*
D03*
X244500Y-316000D02*
G54D15*
D03*
X-288900Y-128551D02*
G54D12*
D03*
X-212700Y-128551D02*
G54D12*
D03*
X-288900Y-204751D02*
G54D12*
D03*
X-288900Y-255551D02*
G54D12*
D03*
X-288900Y-306351D02*
G54D12*
D03*
X-212700Y-204751D02*
G54D12*
D03*
X-212700Y-255551D02*
G54D12*
D03*
X-212700Y-306351D02*
G54D12*
D03*
X-314300Y-71400D02*
G54D16*
D03*
X-415900Y-71400D02*
G54D16*
D03*
X-222390Y-70575D02*
G54D10*
D03*
X-273370Y-70687D02*
G54D10*
D03*
X-314300Y-71400D02*
G54D13*
D03*
X-314300Y-71400D02*
G54D14*
D03*
X-222390Y-70575D02*
G54D14*
D03*
X114300Y27000D02*
G54D12*
D03*
X165100Y27000D02*
G54D12*
D03*
X139700Y1600D02*
G54D12*
D03*
X165100Y-23800D02*
G54D12*
D03*
X114300Y-23800D02*
G54D12*
D03*
X60350Y-122201D02*
G54D12*
D03*
X136550Y-122201D02*
G54D12*
D03*
X60350Y-198401D02*
G54D12*
D03*
X60350Y-249201D02*
G54D12*
D03*
X60350Y-300001D02*
G54D12*
D03*
X136550Y-198401D02*
G54D12*
D03*
X136550Y-249201D02*
G54D12*
D03*
X136550Y-300001D02*
G54D12*
D03*
X181000Y-185700D02*
G54D16*
D03*
X181000Y-84100D02*
G54D16*
D03*
X183958Y-274093D02*
G54D10*
D03*
X183846Y-223112D02*
G54D10*
D03*
X-381791Y139922D02*
G54D10*
D03*
X-356291Y139922D02*
G54D10*
D03*
X181000Y-185700D02*
G54D14*
D03*
X183958Y-274093D02*
G54D14*
D03*
X39756Y114206D02*
G54D14*
D03*
X136550Y-122201D02*
G54D14*
D03*
X-101600Y71120D02*
G54D13*
D03*
X-25400Y71120D02*
G54D13*
D03*
X23297Y-37230D02*
G54D10*
D03*
X-27684Y-37343D02*
G54D10*
D03*
X-123765Y-116241D02*
G54D14*
D03*
X-180084Y140457D02*
G54D14*
D03*
G54D17*
X-356291Y139922D02*
X-355600Y139700D01*
X-412750Y82550D01*
X-412750Y-69850D01*
X-415900Y-71400D01*
G54D17*
X-273370Y-70687D02*
X-273050Y-69850D01*
X-292100Y-50800D01*
X-323850Y-50800D01*
X-342900Y-69850D01*
X-412750Y-69850D01*
X-415900Y-71400D01*
G54D17*
X-273370Y-70687D02*
X-273050Y-69850D01*
X-285750Y-82550D01*
X-285750Y-127000D01*
X-288900Y-128551D01*
G54D17*
X60350Y-122201D02*
X63500Y-120650D01*
X44450Y-139700D01*
X-133350Y-139700D01*
X-165100Y-107950D01*
X-222250Y-107950D01*
X-241300Y-127000D01*
X-285750Y-127000D01*
X-288900Y-128551D01*
G54D17*
X-273050Y72390D02*
X-273050Y69850D01*
X-304800Y38100D01*
X-304800Y6350D01*
G54D17*
X-273050Y72390D02*
X-273050Y69850D01*
X-152400Y-50800D01*
X-152400Y-95250D01*
X-152400Y-92275D01*
G54D17*
X-101600Y71120D02*
X-101600Y69850D01*
X-120650Y50800D01*
X-120650Y-69850D01*
X-123800Y-68350D01*
G54D17*
X-27684Y-37343D02*
X-25400Y-38100D01*
X-57150Y-69850D01*
X-120650Y-69850D01*
X-123800Y-68350D01*
G54D17*
X-25400Y71120D02*
X-25400Y69850D01*
X0Y95250D01*
X50800Y95250D01*
X76200Y120650D01*
X158750Y120650D01*
X177800Y139700D01*
X176475Y137425D01*
G54D17*
X-25400Y71120D02*
X-25400Y69850D01*
X19050Y114300D01*
X19050Y127000D01*
X38100Y146050D01*
X38100Y152400D01*
X39756Y149306D01*
G54D17*
X60350Y-300001D02*
X63500Y-298450D01*
X114300Y-247650D01*
X114300Y-114300D01*
X139700Y-88900D01*
X139700Y0D01*
X139700Y1600D01*
G54D17*
X181000Y-84100D02*
X184150Y-82550D01*
X190500Y-76200D01*
X190500Y31750D01*
X171450Y50800D01*
X107950Y50800D01*
X63500Y6350D01*
X63500Y-120650D01*
X60350Y-122201D01*
G54D17*
X183846Y-223112D02*
X184150Y-222250D01*
X203200Y-203200D01*
X203200Y-177800D01*
X184150Y-158750D01*
X184150Y-82550D01*
X181000Y-84100D01*
G54D17*
X136550Y-198401D02*
X139700Y-196850D01*
X152400Y-209550D01*
X152400Y-260350D01*
X95250Y-317500D01*
X50800Y-317500D01*
X-6350Y-260350D01*
X-127000Y-260350D01*
X-133350Y-254000D01*
X-209550Y-254000D01*
X-212700Y-255551D01*
G54D17*
X60350Y-198401D02*
X63500Y-196850D01*
X44450Y-177800D01*
X-50800Y-177800D01*
G54D17*
X-212700Y-306351D02*
X-209550Y-304800D01*
X-292100Y-222250D01*
X-298450Y-222250D01*
X-317500Y-203200D01*
X-317500Y-171450D01*
X-400050Y-88900D01*
X-425450Y-88900D01*
X-431800Y-82550D01*
X-431800Y-63500D01*
X-425450Y-57150D01*
X-425450Y82550D01*
X-400050Y107950D01*
X-400050Y146050D01*
X-393700Y152400D01*
X-393700Y158750D01*
X-387350Y165100D01*
X-374650Y165100D01*
X-368300Y158750D01*
X-349250Y158750D01*
X-336550Y146050D01*
X-336550Y133350D01*
X-355600Y114300D01*
X-355600Y6350D01*
X-355780Y6238D01*
X-196850Y72390D02*
G54D14*
D03*
%LPD*%
G54D18*
G36*
X147642Y137425D02*
X147642Y153925D01*
X154308Y153925D01*
X154308Y137425D01*
X147642Y137425D01*
G37*
G54D19*
G54D20*
G36*
X-397367Y-176200D02*
X-397367Y-160700D01*
X-390033Y-160700D01*
X-390033Y-176200D01*
X-397367Y-176200D01*
G37*
G36*
X-393700Y-172533D02*
X-378200Y-172533D01*
X-378200Y-179867D01*
X-393700Y-179867D01*
X-393700Y-172533D01*
G37*
G36*
X-390033Y-176200D02*
X-390033Y-191700D01*
X-397367Y-191700D01*
X-397367Y-176200D01*
X-390033Y-176200D01*
G37*
G36*
X-393700Y-179867D02*
X-409200Y-179867D01*
X-409200Y-172533D01*
X-393700Y-172533D01*
X-393700Y-179867D01*
G37*
G54D20*
G36*
X-346567Y-176200D02*
X-346567Y-160700D01*
X-339233Y-160700D01*
X-339233Y-176200D01*
X-346567Y-176200D01*
G37*
G36*
X-342900Y-172533D02*
X-327400Y-172533D01*
X-327400Y-179867D01*
X-342900Y-179867D01*
X-342900Y-172533D01*
G37*
G36*
X-339233Y-176200D02*
X-339233Y-191700D01*
X-346567Y-191700D01*
X-346567Y-176200D01*
X-339233Y-176200D01*
G37*
G36*
X-342900Y-179867D02*
X-358400Y-179867D01*
X-358400Y-172533D01*
X-342900Y-172533D01*
X-342900Y-179867D01*
G37*
G54D20*
G36*
X-346567Y-227000D02*
X-346567Y-211500D01*
X-339233Y-211500D01*
X-339233Y-227000D01*
X-346567Y-227000D01*
G37*
G36*
X-342900Y-223333D02*
X-327400Y-223333D01*
X-327400Y-230667D01*
X-342900Y-230667D01*
X-342900Y-223333D01*
G37*
G36*
X-339233Y-227000D02*
X-339233Y-242500D01*
X-346567Y-242500D01*
X-346567Y-227000D01*
X-339233Y-227000D01*
G37*
G36*
X-342900Y-230667D02*
X-358400Y-230667D01*
X-358400Y-223333D01*
X-342900Y-223333D01*
X-342900Y-230667D01*
G37*
G54D20*
G36*
X-397367Y-227000D02*
X-397367Y-211500D01*
X-390033Y-211500D01*
X-390033Y-227000D01*
X-397367Y-227000D01*
G37*
G36*
X-393700Y-223333D02*
X-378200Y-223333D01*
X-378200Y-230667D01*
X-393700Y-230667D01*
X-393700Y-223333D01*
G37*
G36*
X-390033Y-227000D02*
X-390033Y-242500D01*
X-397367Y-242500D01*
X-397367Y-227000D01*
X-390033Y-227000D01*
G37*
G36*
X-393700Y-230667D02*
X-409200Y-230667D01*
X-409200Y-223333D01*
X-393700Y-223333D01*
X-393700Y-230667D01*
G37*
G54D21*
G36*
X-220034Y-128551D02*
X-220034Y-114051D01*
X-205367Y-114051D01*
X-205367Y-128551D01*
X-220034Y-128551D01*
G37*
G36*
X-212700Y-121218D02*
X-198200Y-121218D01*
X-198200Y-135884D01*
X-212700Y-135884D01*
X-212700Y-121218D01*
G37*
G36*
X-205367Y-128551D02*
X-205367Y-143051D01*
X-220034Y-143051D01*
X-220034Y-128551D01*
X-205367Y-128551D01*
G37*
G36*
X-212700Y-135884D02*
X-227200Y-135884D01*
X-227200Y-121218D01*
X-212700Y-121218D01*
X-212700Y-135884D01*
G37*
G54D21*
G36*
X-121633Y-241300D02*
X-121633Y-226800D01*
X-106967Y-226800D01*
X-106967Y-241300D01*
X-121633Y-241300D01*
G37*
G36*
X-114300Y-233967D02*
X-99800Y-233967D01*
X-99800Y-248633D01*
X-114300Y-248633D01*
X-114300Y-233967D01*
G37*
G36*
X-106967Y-241300D02*
X-106967Y-255800D01*
X-121633Y-255800D01*
X-121633Y-241300D01*
X-106967Y-241300D01*
G37*
G36*
X-114300Y-248633D02*
X-128800Y-248633D01*
X-128800Y-233967D01*
X-114300Y-233967D01*
X-114300Y-248633D01*
G37*
G54D21*
G36*
X-58133Y-241300D02*
X-58133Y-226800D01*
X-43467Y-226800D01*
X-43467Y-241300D01*
X-58133Y-241300D01*
G37*
G36*
X-50800Y-233967D02*
X-36300Y-233967D01*
X-36300Y-248633D01*
X-50800Y-248633D01*
X-50800Y-233967D01*
G37*
G36*
X-43467Y-241300D02*
X-43467Y-255800D01*
X-58133Y-255800D01*
X-58133Y-241300D01*
X-43467Y-241300D01*
G37*
G36*
X-50800Y-248633D02*
X-65300Y-248633D01*
X-65300Y-233967D01*
X-50800Y-233967D01*
X-50800Y-248633D01*
G37*
G54D22*
G36*
X-53227Y182398D02*
X-53227Y201898D01*
X-43227Y201898D01*
X-43227Y182398D01*
X-53227Y182398D01*
G37*
G36*
X-48227Y187398D02*
X-28727Y187398D01*
X-28727Y177398D01*
X-48227Y177398D01*
X-48227Y187398D01*
G37*
G36*
X-43227Y182398D02*
X-43227Y162898D01*
X-53227Y162898D01*
X-53227Y182398D01*
X-43227Y182398D01*
G37*
G36*
X-48227Y177398D02*
X-67727Y177398D01*
X-67727Y187398D01*
X-48227Y187398D01*
X-48227Y177398D01*
G37*
G54D22*
G36*
X-53227Y-325602D02*
X-53227Y-306102D01*
X-43227Y-306102D01*
X-43227Y-325602D01*
X-53227Y-325602D01*
G37*
G36*
X-48227Y-320602D02*
X-28727Y-320602D01*
X-28727Y-330602D01*
X-48227Y-330602D01*
X-48227Y-320602D01*
G37*
G36*
X-43227Y-325602D02*
X-43227Y-345102D01*
X-53227Y-345102D01*
X-53227Y-325602D01*
X-43227Y-325602D01*
G37*
G36*
X-48227Y-330602D02*
X-67727Y-330602D01*
X-67727Y-320602D01*
X-48227Y-320602D01*
X-48227Y-330602D01*
G37*
G54D23*
G36*
X-434950Y-317550D02*
X-418450Y-317550D01*
X-418450Y-339850D01*
X-434950Y-339850D01*
X-434950Y-317550D01*
G37*
G36*
X-423800Y-328700D02*
X-423800Y-345200D01*
X-446100Y-345200D01*
X-446100Y-328700D01*
X-423800Y-328700D01*
G37*
G36*
X-434950Y-339850D02*
X-451450Y-339850D01*
X-451450Y-317550D01*
X-434950Y-317550D01*
X-434950Y-339850D01*
G37*
G36*
X-446100Y-328700D02*
X-446100Y-312200D01*
X-423800Y-312200D01*
X-423800Y-328700D01*
X-446100Y-328700D01*
G37*
G54D23*
G36*
X-434950Y196800D02*
X-418450Y196800D01*
X-418450Y174500D01*
X-434950Y174500D01*
X-434950Y196800D01*
G37*
G36*
X-423800Y185650D02*
X-423800Y169150D01*
X-446100Y169150D01*
X-446100Y185650D01*
X-423800Y185650D01*
G37*
G36*
X-434950Y174500D02*
X-451450Y174500D01*
X-451450Y196800D01*
X-434950Y196800D01*
X-434950Y174500D01*
G37*
G36*
X-446100Y185650D02*
X-446100Y202150D01*
X-423800Y202150D01*
X-423800Y185650D01*
X-446100Y185650D01*
G37*
G54D23*
G36*
X238150Y196800D02*
X254650Y196800D01*
X254650Y174500D01*
X238150Y174500D01*
X238150Y196800D01*
G37*
G36*
X249300Y185650D02*
X249300Y169150D01*
X227000Y169150D01*
X227000Y185650D01*
X249300Y185650D01*
G37*
G36*
X238150Y174500D02*
X221650Y174500D01*
X221650Y196800D01*
X238150Y196800D01*
X238150Y174500D01*
G37*
G36*
X227000Y185650D02*
X227000Y202150D01*
X249300Y202150D01*
X249300Y185650D01*
X227000Y185650D01*
G37*
G54D23*
G36*
X244500Y-304850D02*
X261000Y-304850D01*
X261000Y-327150D01*
X244500Y-327150D01*
X244500Y-304850D01*
G37*
G36*
X255650Y-316000D02*
X255650Y-332500D01*
X233350Y-332500D01*
X233350Y-316000D01*
X255650Y-316000D01*
G37*
G36*
X244500Y-327150D02*
X228000Y-327150D01*
X228000Y-304850D01*
X244500Y-304850D01*
X244500Y-327150D01*
G37*
G36*
X233350Y-316000D02*
X233350Y-299500D01*
X255650Y-299500D01*
X255650Y-316000D01*
X233350Y-316000D01*
G37*
G54D24*
G36*
X-321533Y-71400D02*
X-321533Y-56900D01*
X-307067Y-56900D01*
X-307067Y-71400D01*
X-321533Y-71400D01*
G37*
G36*
X-314300Y-64167D02*
X-299800Y-64167D01*
X-299800Y-78633D01*
X-314300Y-78633D01*
X-314300Y-64167D01*
G37*
G36*
X-307067Y-71400D02*
X-307067Y-85900D01*
X-321533Y-85900D01*
X-321533Y-71400D01*
X-307067Y-71400D01*
G37*
G36*
X-314300Y-78633D02*
X-328800Y-78633D01*
X-328800Y-64167D01*
X-314300Y-64167D01*
X-314300Y-78633D01*
G37*
G54D24*
G36*
X-229623Y-70575D02*
X-229623Y-56075D01*
X-215157Y-56075D01*
X-215157Y-70575D01*
X-229623Y-70575D01*
G37*
G36*
X-222390Y-63341D02*
X-207890Y-63341D01*
X-207890Y-77808D01*
X-222390Y-77808D01*
X-222390Y-63341D01*
G37*
G36*
X-215157Y-70575D02*
X-215157Y-85075D01*
X-229623Y-85075D01*
X-229623Y-70575D01*
X-215157Y-70575D01*
G37*
G36*
X-222390Y-77808D02*
X-236890Y-77808D01*
X-236890Y-63341D01*
X-222390Y-63341D01*
X-222390Y-77808D01*
G37*
G54D20*
G36*
X110633Y27000D02*
X110633Y42500D01*
X117967Y42500D01*
X117967Y27000D01*
X110633Y27000D01*
G37*
G36*
X114300Y30667D02*
X129800Y30667D01*
X129800Y23333D01*
X114300Y23333D01*
X114300Y30667D01*
G37*
G36*
X117967Y27000D02*
X117967Y11500D01*
X110633Y11500D01*
X110633Y27000D01*
X117967Y27000D01*
G37*
G36*
X114300Y23333D02*
X98800Y23333D01*
X98800Y30667D01*
X114300Y30667D01*
X114300Y23333D01*
G37*
G54D20*
G36*
X161433Y27000D02*
X161433Y42500D01*
X168767Y42500D01*
X168767Y27000D01*
X161433Y27000D01*
G37*
G36*
X165100Y30667D02*
X180600Y30667D01*
X180600Y23333D01*
X165100Y23333D01*
X165100Y30667D01*
G37*
G36*
X168767Y27000D02*
X168767Y11500D01*
X161433Y11500D01*
X161433Y27000D01*
X168767Y27000D01*
G37*
G36*
X165100Y23333D02*
X149600Y23333D01*
X149600Y30667D01*
X165100Y30667D01*
X165100Y23333D01*
G37*
G54D20*
G36*
X161433Y-23800D02*
X161433Y-8300D01*
X168767Y-8300D01*
X168767Y-23800D01*
X161433Y-23800D01*
G37*
G36*
X165100Y-20133D02*
X180600Y-20133D01*
X180600Y-27467D01*
X165100Y-27467D01*
X165100Y-20133D01*
G37*
G36*
X168767Y-23800D02*
X168767Y-39300D01*
X161433Y-39300D01*
X161433Y-23800D01*
X168767Y-23800D01*
G37*
G36*
X165100Y-27467D02*
X149600Y-27467D01*
X149600Y-20133D01*
X165100Y-20133D01*
X165100Y-27467D01*
G37*
G54D20*
G36*
X110633Y-23800D02*
X110633Y-8300D01*
X117967Y-8300D01*
X117967Y-23800D01*
X110633Y-23800D01*
G37*
G36*
X114300Y-20133D02*
X129800Y-20133D01*
X129800Y-27467D01*
X114300Y-27467D01*
X114300Y-20133D01*
G37*
G36*
X117967Y-23800D02*
X117967Y-39300D01*
X110633Y-39300D01*
X110633Y-23800D01*
X117967Y-23800D01*
G37*
G36*
X114300Y-27467D02*
X98800Y-27467D01*
X98800Y-20133D01*
X114300Y-20133D01*
X114300Y-27467D01*
G37*
G54D18*
G36*
X-385124Y139922D02*
X-385124Y156422D01*
X-378458Y156422D01*
X-378458Y139922D01*
X-385124Y139922D01*
G37*
G54D19*
G54D21*
G36*
X173667Y-185700D02*
X173667Y-171200D01*
X188333Y-171200D01*
X188333Y-185700D01*
X173667Y-185700D01*
G37*
G36*
X181000Y-178367D02*
X195500Y-178367D01*
X195500Y-193033D01*
X181000Y-193033D01*
X181000Y-178367D01*
G37*
G36*
X188333Y-185700D02*
X188333Y-200200D01*
X173667Y-200200D01*
X173667Y-185700D01*
X188333Y-185700D01*
G37*
G36*
X181000Y-193033D02*
X166500Y-193033D01*
X166500Y-178367D01*
X181000Y-178367D01*
X181000Y-193033D01*
G37*
G54D21*
G36*
X176625Y-274093D02*
X176625Y-259593D01*
X191292Y-259593D01*
X191292Y-274093D01*
X176625Y-274093D01*
G37*
G36*
X183958Y-266760D02*
X198458Y-266760D01*
X198458Y-281426D01*
X183958Y-281426D01*
X183958Y-266760D01*
G37*
G36*
X191292Y-274093D02*
X191292Y-288593D01*
X176625Y-288593D01*
X176625Y-274093D01*
X191292Y-274093D01*
G37*
G36*
X183958Y-281426D02*
X169458Y-281426D01*
X169458Y-266760D01*
X183958Y-266760D01*
X183958Y-281426D01*
G37*
G54D21*
G36*
X32423Y114206D02*
X32423Y128706D01*
X47089Y128706D01*
X47089Y114206D01*
X32423Y114206D01*
G37*
G36*
X39756Y121539D02*
X54256Y121539D01*
X54256Y106873D01*
X39756Y106873D01*
X39756Y121539D01*
G37*
G36*
X47089Y114206D02*
X47089Y99706D01*
X32423Y99706D01*
X32423Y114206D01*
X47089Y114206D01*
G37*
G36*
X39756Y106873D02*
X25256Y106873D01*
X25256Y121539D01*
X39756Y121539D01*
X39756Y106873D01*
G37*
G54D21*
G36*
X129216Y-122201D02*
X129216Y-107701D01*
X143883Y-107701D01*
X143883Y-122201D01*
X129216Y-122201D01*
G37*
G36*
X136550Y-114868D02*
X151050Y-114868D01*
X151050Y-129534D01*
X136550Y-129534D01*
X136550Y-114868D01*
G37*
G36*
X143883Y-122201D02*
X143883Y-136701D01*
X129216Y-136701D01*
X129216Y-122201D01*
X143883Y-122201D01*
G37*
G36*
X136550Y-129534D02*
X122050Y-129534D01*
X122050Y-114868D01*
X136550Y-114868D01*
X136550Y-129534D01*
G37*
G54D21*
G36*
X-131099Y-116241D02*
X-131099Y-101741D01*
X-116432Y-101741D01*
X-116432Y-116241D01*
X-131099Y-116241D01*
G37*
G36*
X-123765Y-108908D02*
X-109265Y-108908D01*
X-109265Y-123574D01*
X-123765Y-123574D01*
X-123765Y-108908D01*
G37*
G36*
X-116432Y-116241D02*
X-116432Y-130741D01*
X-131099Y-130741D01*
X-131099Y-116241D01*
X-116432Y-116241D01*
G37*
G36*
X-123765Y-123574D02*
X-138265Y-123574D01*
X-138265Y-108908D01*
X-123765Y-108908D01*
X-123765Y-123574D01*
G37*
G54D21*
G36*
X-187417Y140457D02*
X-187417Y154957D01*
X-172751Y154957D01*
X-172751Y140457D01*
X-187417Y140457D01*
G37*
G36*
X-180084Y147790D02*
X-165584Y147790D01*
X-165584Y133124D01*
X-180084Y133124D01*
X-180084Y147790D01*
G37*
G36*
X-172751Y140457D02*
X-172751Y125957D01*
X-187417Y125957D01*
X-187417Y140457D01*
X-172751Y140457D01*
G37*
G36*
X-180084Y133124D02*
X-194584Y133124D01*
X-194584Y147790D01*
X-180084Y147790D01*
X-180084Y133124D01*
G37*
G54D21*
G36*
X-204183Y72390D02*
X-204183Y86890D01*
X-189517Y86890D01*
X-189517Y72390D01*
X-204183Y72390D01*
G37*
G36*
X-196850Y79723D02*
X-182350Y79723D01*
X-182350Y65057D01*
X-196850Y65057D01*
X-196850Y79723D01*
G37*
G36*
X-189517Y72390D02*
X-189517Y57890D01*
X-204183Y57890D01*
X-204183Y72390D01*
X-189517Y72390D01*
G37*
G36*
X-196850Y65057D02*
X-211350Y65057D01*
X-211350Y79723D01*
X-196850Y79723D01*
X-196850Y65057D01*
G37*
X-304800Y6350D02*
G54D25*
D03*
X-355780Y6238D02*
G54D25*
D03*
X-129104Y140570D02*
G54D25*
D03*
X-180084Y140457D02*
G54D25*
D03*
X150975Y137425D02*
G54D25*
D03*
X176475Y137425D02*
G54D25*
D03*
X-123800Y-68350D02*
G54D26*
D03*
X-152400Y-92275D02*
G54D26*
D03*
X-123765Y-116241D02*
G54D26*
D03*
X-393700Y-176200D02*
G54D27*
D03*
X-342900Y-176200D02*
G54D27*
D03*
X-368300Y-201600D02*
G54D27*
D03*
X-342900Y-227000D02*
G54D27*
D03*
X-393700Y-227000D02*
G54D27*
D03*
X-273050Y72390D02*
G54D25*
D03*
X-196850Y72390D02*
G54D25*
D03*
X39756Y114206D02*
G54D25*
D03*
X39756Y149306D02*
G54D25*
D03*
X-114300Y-177800D02*
G54D25*
D03*
X-50800Y-177800D02*
G54D25*
D03*
X-50800Y-241300D02*
G54D25*
D03*
X-114300Y-241300D02*
G54D25*
D03*
X-212700Y-128551D02*
G54D28*
D03*
X-114300Y-241300D02*
G54D28*
D03*
X-50800Y-241300D02*
G54D28*
D03*
G36*
X-63227Y197398D02*
X-33227Y197398D01*
X-33227Y167398D01*
X-63227Y167398D01*
X-63227Y197398D01*
G37*
G36*
X-63227Y-310602D02*
X-33227Y-310602D01*
X-33227Y-340602D01*
X-63227Y-340602D01*
X-63227Y-310602D01*
G37*
X-434950Y-328700D02*
G54D29*
D03*
X-434950Y185650D02*
G54D29*
D03*
X238150Y185650D02*
G54D29*
D03*
X244500Y-316000D02*
G54D29*
D03*
X-288900Y-128551D02*
G54D27*
D03*
X-212700Y-128551D02*
G54D27*
D03*
X-288900Y-204751D02*
G54D27*
D03*
X-288900Y-255551D02*
G54D27*
D03*
X-288900Y-306351D02*
G54D27*
D03*
X-212700Y-204751D02*
G54D27*
D03*
X-212700Y-255551D02*
G54D27*
D03*
X-212700Y-306351D02*
G54D27*
D03*
X-314300Y-71400D02*
G54D30*
D03*
X-415900Y-71400D02*
G54D30*
D03*
X-222390Y-70575D02*
G54D25*
D03*
X-273370Y-70687D02*
G54D25*
D03*
X-314300Y-71400D02*
G54D25*
D03*
X-314300Y-71400D02*
G54D28*
D03*
X-222390Y-70575D02*
G54D28*
D03*
X114300Y27000D02*
G54D27*
D03*
X165100Y27000D02*
G54D27*
D03*
X139700Y1600D02*
G54D27*
D03*
X165100Y-23800D02*
G54D27*
D03*
X114300Y-23800D02*
G54D27*
D03*
X60350Y-122201D02*
G54D27*
D03*
X136550Y-122201D02*
G54D27*
D03*
X60350Y-198401D02*
G54D27*
D03*
X60350Y-249201D02*
G54D27*
D03*
X60350Y-300001D02*
G54D27*
D03*
X136550Y-198401D02*
G54D27*
D03*
X136550Y-249201D02*
G54D27*
D03*
X136550Y-300001D02*
G54D27*
D03*
X181000Y-185700D02*
G54D30*
D03*
X181000Y-84100D02*
G54D30*
D03*
X183958Y-274093D02*
G54D25*
D03*
X183846Y-223112D02*
G54D25*
D03*
X-381791Y139922D02*
G54D25*
D03*
X-356291Y139922D02*
G54D25*
D03*
X181000Y-185700D02*
G54D28*
D03*
X183958Y-274093D02*
G54D28*
D03*
X39756Y114206D02*
G54D28*
D03*
X136550Y-122201D02*
G54D28*
D03*
X-101600Y71120D02*
G54D25*
D03*
X-25400Y71120D02*
G54D25*
D03*
X23297Y-37230D02*
G54D25*
D03*
X-27684Y-37343D02*
G54D25*
D03*
X-123765Y-116241D02*
G54D28*
D03*
X-180084Y140457D02*
G54D28*
D03*
G54D31*
X-356291Y139922D02*
X-355600Y139700D01*
X-412750Y82550D01*
X-412750Y-69850D01*
X-415900Y-71400D01*
G54D31*
X-273370Y-70687D02*
X-273050Y-69850D01*
X-292100Y-50800D01*
X-323850Y-50800D01*
X-342900Y-69850D01*
X-412750Y-69850D01*
X-415900Y-71400D01*
G54D31*
X-273370Y-70687D02*
X-273050Y-69850D01*
X-285750Y-82550D01*
X-285750Y-127000D01*
X-288900Y-128551D01*
G54D31*
X60350Y-122201D02*
X63500Y-120650D01*
X44450Y-139700D01*
X-133350Y-139700D01*
X-165100Y-107950D01*
X-222250Y-107950D01*
X-241300Y-127000D01*
X-285750Y-127000D01*
X-288900Y-128551D01*
G54D31*
X-273050Y72390D02*
X-273050Y69850D01*
X-304800Y38100D01*
X-304800Y6350D01*
G54D31*
X-273050Y72390D02*
X-273050Y69850D01*
X-152400Y-50800D01*
X-152400Y-95250D01*
X-152400Y-92275D01*
G54D31*
X-101600Y71120D02*
X-101600Y69850D01*
X-120650Y50800D01*
X-120650Y-69850D01*
X-123800Y-68350D01*
G54D31*
X-27684Y-37343D02*
X-25400Y-38100D01*
X-57150Y-69850D01*
X-120650Y-69850D01*
X-123800Y-68350D01*
G54D31*
X-25400Y71120D02*
X-25400Y69850D01*
X0Y95250D01*
X50800Y95250D01*
X76200Y120650D01*
X158750Y120650D01*
X177800Y139700D01*
X176475Y137425D01*
G54D31*
X-25400Y71120D02*
X-25400Y69850D01*
X19050Y114300D01*
X19050Y127000D01*
X38100Y146050D01*
X38100Y152400D01*
X39756Y149306D01*
G54D31*
X60350Y-300001D02*
X63500Y-298450D01*
X114300Y-247650D01*
X114300Y-114300D01*
X139700Y-88900D01*
X139700Y0D01*
X139700Y1600D01*
G54D31*
X181000Y-84100D02*
X184150Y-82550D01*
X190500Y-76200D01*
X190500Y31750D01*
X171450Y50800D01*
X107950Y50800D01*
X63500Y6350D01*
X63500Y-120650D01*
X60350Y-122201D01*
G54D31*
X183846Y-223112D02*
X184150Y-222250D01*
X203200Y-203200D01*
X203200Y-177800D01*
X184150Y-158750D01*
X184150Y-82550D01*
X181000Y-84100D01*
G54D31*
X136550Y-198401D02*
X139700Y-196850D01*
X152400Y-209550D01*
X152400Y-260350D01*
X95250Y-317500D01*
X50800Y-317500D01*
X-6350Y-260350D01*
X-127000Y-260350D01*
X-133350Y-254000D01*
X-209550Y-254000D01*
X-212700Y-255551D01*
G54D31*
X60350Y-198401D02*
X63500Y-196850D01*
X44450Y-177800D01*
X-50800Y-177800D01*
G54D31*
X-212700Y-306351D02*
X-209550Y-304800D01*
X-292100Y-222250D01*
X-298450Y-222250D01*
X-317500Y-203200D01*
X-317500Y-171450D01*
X-400050Y-88900D01*
X-425450Y-88900D01*
X-431800Y-82550D01*
X-431800Y-63500D01*
X-425450Y-57150D01*
X-425450Y82550D01*
X-400050Y107950D01*
X-400050Y146050D01*
X-393700Y152400D01*
X-393700Y158750D01*
X-387350Y165100D01*
X-374650Y165100D01*
X-368300Y158750D01*
X-349250Y158750D01*
X-336550Y146050D01*
X-336550Y133350D01*
X-355600Y114300D01*
X-355600Y6350D01*
X-355780Y6238D01*
X-196850Y72390D02*
G54D28*
D03*
M02*
