%FSLAX34Y34*%
%MOMM*%
%LNSILK_TOP*%
G71*
G01*
%ADD10C,0.167*%
%ADD11C,0.150*%
%ADD12C,0.200*%
%ADD13C,0.144*%
%ADD14C,0.206*%
%ADD15C,0.222*%
%ADD16C,0.111*%
%ADD17C,0.300*%
%LPD*%
G54D10*
X-76271Y86323D02*
X-76271Y86323D01*
G54D11*
X-294585Y-6484D02*
X-294585Y18917D01*
X-366185Y18917D01*
X-366185Y-6483D01*
X-294585Y-6484D01*
G54D10*
X-375722Y-1466D02*
X-374056Y-2466D01*
X-373222Y-4466D01*
X-373222Y-6466D01*
X-374056Y-8466D01*
X-375722Y-9466D01*
X-384056Y-9466D01*
X-385722Y-8466D01*
X-386556Y-6466D01*
X-386556Y-4466D01*
X-385722Y-2466D01*
X-384056Y-1466D01*
G54D10*
X-381556Y2201D02*
X-386556Y7201D01*
X-373222Y7201D01*
G54D11*
X-118888Y127736D02*
X-118888Y153136D01*
X-190488Y153136D01*
X-190488Y127736D01*
X-118888Y127736D01*
G54D10*
X-163512Y161028D02*
X-164512Y159361D01*
X-166512Y158528D01*
X-168512Y158528D01*
X-170512Y159361D01*
X-171512Y161028D01*
X-171512Y169361D01*
X-170512Y171028D01*
X-168512Y171861D01*
X-166512Y171861D01*
X-164512Y171028D01*
X-163512Y169361D01*
G54D10*
X-159845Y161028D02*
X-158845Y159361D01*
X-156845Y158528D01*
X-154845Y158528D01*
X-152845Y159361D01*
X-151845Y161028D01*
X-151845Y165194D01*
X-151845Y166028D01*
X-154845Y164361D01*
X-156845Y164361D01*
X-158845Y165194D01*
X-159845Y166861D01*
X-159845Y169361D01*
X-158845Y171028D01*
X-156845Y171861D01*
X-154845Y171861D01*
X-152845Y171028D01*
X-151845Y169361D01*
X-151845Y165194D01*
G54D12*
X160700Y112214D02*
X166700Y96214D01*
X172700Y112214D01*
G54D12*
X177100Y96214D02*
X177100Y112214D01*
G54D12*
X181500Y96214D02*
X181500Y112214D01*
X191100Y96214D01*
X191100Y112214D01*
G54D11*
X138204Y124738D02*
X138204Y150138D01*
X189004Y150138D01*
X189004Y124738D01*
X138204Y124738D01*
G54D11*
X-123100Y-66900D02*
X-115100Y-66900D01*
X-115100Y-117625D01*
X-123100Y-117625D01*
G54D11*
G75*
G01X-123061Y-66769D02*
G03X-123061Y-117769I0J-25500D01*
G01*
G54D10*
X-93144Y-55225D02*
X-88144Y-57725D01*
G54D10*
X-89144Y-46892D02*
X-89144Y-55225D01*
X-90144Y-56892D01*
X-92144Y-57725D01*
X-94144Y-57725D01*
X-96144Y-56892D01*
X-97144Y-55225D01*
X-97144Y-46892D01*
X-96144Y-45225D01*
X-94144Y-44392D01*
X-92144Y-44392D01*
X-90144Y-45225D01*
X-89144Y-46892D01*
G54D10*
X-84477Y-49392D02*
X-79477Y-44392D01*
X-79477Y-57725D01*
G54D11*
X-419100Y-150800D02*
X-317500Y-150800D01*
X-317500Y-252400D01*
X-419100Y-252400D01*
X-419100Y-150800D01*
G54D13*
X-419850Y-124050D02*
X-419850Y-124050D01*
G54D13*
X-419850Y-143550D02*
X-419850Y-143550D01*
G54D10*
X-236022Y-280866D02*
X-234356Y-281866D01*
X-233522Y-283866D01*
X-233522Y-285866D01*
X-234356Y-287866D01*
X-236022Y-288866D01*
X-244356Y-288866D01*
X-246022Y-287866D01*
X-246856Y-285866D01*
X-246856Y-283866D01*
X-246022Y-281866D01*
X-244356Y-280866D01*
G54D10*
X-244356Y-277199D02*
X-246022Y-276199D01*
X-246856Y-274199D01*
X-246856Y-272199D01*
X-246022Y-270199D01*
X-244356Y-269199D01*
X-242689Y-269199D01*
X-241022Y-270199D01*
X-240189Y-272199D01*
X-239356Y-270199D01*
X-237689Y-269199D01*
X-236022Y-269199D01*
X-234356Y-270199D01*
X-233522Y-272199D01*
X-233522Y-274199D01*
X-234356Y-276199D01*
X-236022Y-277199D01*
G54D11*
X27056Y153106D02*
X27056Y145506D01*
G54D11*
X30856Y149306D02*
X23256Y149306D01*
G54D11*
G75*
G01X79606Y131800D02*
G03X79606Y131800I-39850J0D01*
G01*
G54D14*
X106356Y172400D02*
X106356Y172400D01*
G54D14*
X86856Y172400D02*
X86856Y172400D01*
G54D10*
X-107950Y-304800D02*
X-102950Y-291467D01*
X-97950Y-304800D01*
G54D10*
X-105950Y-299800D02*
X-99950Y-299800D01*
G54D10*
X-90283Y-304800D02*
X-90283Y-291467D01*
G54D10*
X-94283Y-291467D02*
X-86283Y-291467D01*
G54D10*
X-78616Y-304800D02*
X-78616Y-291467D01*
G54D10*
X-82616Y-291467D02*
X-74616Y-291467D01*
G54D10*
X-70949Y-304800D02*
X-70949Y-291467D01*
X-62949Y-304800D01*
X-62949Y-291467D01*
G54D10*
X227100Y-25767D02*
X227100Y-34100D01*
X226100Y-35767D01*
X224100Y-36600D01*
X222100Y-36600D01*
X220100Y-35767D01*
X219100Y-34100D01*
X219100Y-25767D01*
X220100Y-24100D01*
X222100Y-23267D01*
X224100Y-23267D01*
X226100Y-24100D01*
X227100Y-25767D01*
G54D10*
X230767Y-23267D02*
X230767Y-34100D01*
X231767Y-35767D01*
X233767Y-36600D01*
X235767Y-36600D01*
X237767Y-35767D01*
X238767Y-34100D01*
X238767Y-23267D01*
G54D10*
X246434Y-36600D02*
X246434Y-23267D01*
G54D10*
X242434Y-23267D02*
X250434Y-23267D01*
G54D10*
X-219050Y35790D02*
X-219050Y35790D01*
G54D10*
X-244450Y112623D02*
X-244450Y99290D01*
X-237450Y99290D01*
G54D10*
X-233783Y107623D02*
X-228783Y112623D01*
X-228783Y99290D01*
G54D15*
X-377800Y179300D02*
X-377800Y197078D01*
G54D15*
X-372911Y179300D02*
X-372911Y197078D01*
X-363578Y197078D01*
G54D15*
X-372911Y188189D02*
X-363578Y188189D01*
G54D15*
X-358689Y187078D02*
X-348022Y187078D01*
G54D15*
X-343133Y179300D02*
X-336466Y197078D01*
X-329800Y179300D01*
G54D15*
X-340466Y185967D02*
X-332466Y185967D01*
G54D15*
X-324911Y179300D02*
X-324911Y197078D01*
X-318244Y185967D01*
X-311578Y197078D01*
X-311578Y179300D01*
G54D15*
X-306689Y179300D02*
X-306689Y197078D01*
X-300022Y197078D01*
X-297356Y195967D01*
X-296022Y193744D01*
X-296022Y191522D01*
X-297356Y189300D01*
X-300022Y188189D01*
X-306689Y188189D01*
G54D15*
X-285977Y187078D02*
X-275310Y187078D01*
G54D15*
X-265265Y179300D02*
X-265265Y197078D01*
X-258598Y185967D01*
X-251932Y197078D01*
X-251932Y179300D01*
G54D15*
X-241710Y188189D02*
X-237710Y185967D01*
X-236376Y183744D01*
X-236376Y179300D01*
G54D15*
X-247043Y179300D02*
X-247043Y197078D01*
X-240376Y197078D01*
X-237710Y195967D01*
X-236376Y193744D01*
X-236376Y191522D01*
X-237710Y189300D01*
X-240376Y188189D01*
X-247043Y188189D01*
G54D15*
X-231487Y179300D02*
X-231487Y197078D01*
X-222154Y197078D01*
G54D15*
X-231487Y188189D02*
X-222154Y188189D01*
G54D15*
X-217265Y193744D02*
X-215932Y195967D01*
X-213265Y197078D01*
X-210598Y197078D01*
X-207932Y195967D01*
X-206598Y193744D01*
X-206598Y191522D01*
X-207932Y189300D01*
X-210598Y188189D01*
X-207932Y187078D01*
X-206598Y184856D01*
X-206598Y182633D01*
X-207932Y180411D01*
X-210598Y179300D01*
X-213265Y179300D01*
X-215932Y180411D01*
X-217265Y182633D01*
G54D15*
X-191042Y179300D02*
X-201709Y179300D01*
X-201709Y180411D01*
X-200376Y182633D01*
X-192376Y189300D01*
X-191042Y191522D01*
X-191042Y193744D01*
X-192376Y195967D01*
X-195042Y197078D01*
X-197709Y197078D01*
X-200376Y195967D01*
X-201709Y193744D01*
G54D15*
X-186153Y197078D02*
X-175486Y197078D01*
X-176820Y194856D01*
X-179486Y191522D01*
X-182153Y187078D01*
X-183486Y183744D01*
X-183486Y179300D01*
G54D12*
X-114300Y-177800D02*
X-50800Y-177800D01*
G54D16*
X-83033Y-159156D02*
X-81033Y-160267D01*
X-80367Y-161378D01*
X-80367Y-163600D01*
G54D16*
X-85700Y-163600D02*
X-85700Y-154711D01*
X-82367Y-154711D01*
X-81033Y-155267D01*
X-80367Y-156378D01*
X-80367Y-157489D01*
X-81033Y-158600D01*
X-82367Y-159156D01*
X-85700Y-159156D01*
G54D16*
X-77923Y-163600D02*
X-74590Y-154711D01*
X-71256Y-163600D01*
G54D16*
X-76590Y-160267D02*
X-72590Y-160267D01*
G54D16*
X-68812Y-158044D02*
X-65479Y-154711D01*
X-65479Y-163600D01*
G54D16*
X-133833Y-222656D02*
X-131833Y-223767D01*
X-131167Y-224878D01*
X-131167Y-227100D01*
G54D16*
X-136500Y-227100D02*
X-136500Y-218211D01*
X-133167Y-218211D01*
X-131833Y-218767D01*
X-131167Y-219878D01*
X-131167Y-220989D01*
X-131833Y-222100D01*
X-133167Y-222656D01*
X-136500Y-222656D01*
G54D16*
X-128723Y-227100D02*
X-125390Y-218211D01*
X-122056Y-227100D01*
G54D16*
X-127390Y-223767D02*
X-123390Y-223767D01*
G54D16*
X-114279Y-227100D02*
X-119612Y-227100D01*
X-119612Y-226544D01*
X-118945Y-225433D01*
X-114945Y-222100D01*
X-114279Y-220989D01*
X-114279Y-219878D01*
X-114945Y-218767D01*
X-116279Y-218211D01*
X-117612Y-218211D01*
X-118945Y-218767D01*
X-119612Y-219878D01*
G54D16*
X-44933Y-222656D02*
X-42933Y-223767D01*
X-42267Y-224878D01*
X-42267Y-227100D01*
G54D16*
X-47600Y-227100D02*
X-47600Y-218211D01*
X-44267Y-218211D01*
X-42933Y-218767D01*
X-42267Y-219878D01*
X-42267Y-220989D01*
X-42933Y-222100D01*
X-44267Y-222656D01*
X-47600Y-222656D01*
G54D16*
X-39823Y-227100D02*
X-36490Y-218211D01*
X-33156Y-227100D01*
G54D16*
X-38490Y-223767D02*
X-34490Y-223767D01*
G54D16*
X-30712Y-219878D02*
X-30045Y-218767D01*
X-28712Y-218211D01*
X-27379Y-218211D01*
X-26045Y-218767D01*
X-25379Y-219878D01*
X-25379Y-220989D01*
X-26045Y-222100D01*
X-27379Y-222656D01*
X-26045Y-223211D01*
X-25379Y-224322D01*
X-25379Y-225433D01*
X-26045Y-226544D01*
X-27379Y-227100D01*
X-28712Y-227100D01*
X-30045Y-226544D01*
X-30712Y-225433D01*
G54D12*
X-260350Y123190D02*
X-209550Y123190D01*
X-209550Y8890D01*
X-260350Y8890D01*
X-260350Y123190D01*
G54D16*
X-266700Y-12700D02*
X-266700Y-3811D01*
X-262033Y-3811D01*
G54D16*
X-266700Y-8256D02*
X-262033Y-8256D01*
G54D16*
X-256922Y-12700D02*
X-256922Y-3811D01*
G54D16*
X-259589Y-3811D02*
X-254256Y-3811D01*
G54D16*
X-246479Y-3811D02*
X-251812Y-3811D01*
X-251812Y-7700D01*
X-251145Y-7700D01*
X-249812Y-7144D01*
X-248479Y-7144D01*
X-247145Y-7700D01*
X-246479Y-8811D01*
X-246479Y-11033D01*
X-247145Y-12144D01*
X-248479Y-12700D01*
X-249812Y-12700D01*
X-251145Y-12144D01*
X-251812Y-11033D01*
G54D16*
X-238702Y-5478D02*
X-238702Y-11033D01*
X-239368Y-12144D01*
X-240702Y-12700D01*
X-242035Y-12700D01*
X-243368Y-12144D01*
X-244035Y-11033D01*
X-244035Y-5478D01*
X-243368Y-4367D01*
X-242035Y-3811D01*
X-240702Y-3811D01*
X-239368Y-4367D01*
X-238702Y-5478D01*
G54D16*
X-236258Y-8811D02*
X-230925Y-8811D01*
G54D16*
X-228481Y-3811D02*
X-223148Y-3811D01*
X-223814Y-4922D01*
X-225148Y-6589D01*
X-226481Y-8811D01*
X-227148Y-10478D01*
X-227148Y-12700D01*
G54D16*
X-215371Y-3811D02*
X-220704Y-3811D01*
X-220704Y-7700D01*
X-220037Y-7700D01*
X-218704Y-7144D01*
X-217371Y-7144D01*
X-216037Y-7700D01*
X-215371Y-8811D01*
X-215371Y-11033D01*
X-216037Y-12144D01*
X-217371Y-12700D01*
X-218704Y-12700D01*
X-220037Y-12144D01*
X-220704Y-11033D01*
G54D17*
X-301000Y-317151D02*
X-200400Y-317051D01*
X-200500Y-117151D01*
X-301000Y-117151D01*
X-301000Y-317151D01*
G54D12*
X-288900Y-128551D02*
X-288900Y-153951D01*
X-282600Y-153951D01*
X-282700Y-153951D01*
X-276300Y-171451D01*
X-276200Y-171451D01*
X-268300Y-141251D01*
X-260300Y-173051D01*
X-252400Y-141251D01*
X-242800Y-173051D01*
X-233400Y-141251D01*
X-225400Y-173051D01*
X-219000Y-153951D01*
X-212700Y-153951D01*
X-212700Y-128551D01*
G54D12*
X-288900Y-306351D02*
X-263600Y-306351D01*
X-263600Y-287351D01*
G54D12*
X-288900Y-255551D02*
X-263600Y-255551D01*
X-263600Y-274551D01*
G54D12*
X-212700Y-306351D02*
X-238100Y-306351D01*
X-238100Y-287351D01*
G54D12*
X-212700Y-255551D02*
X-238100Y-255551D01*
X-238100Y-274551D01*
G36*
X-263500Y-287351D02*
X-263500Y-287251D01*
X-269900Y-299951D01*
X-257200Y-299951D01*
X-263600Y-287351D01*
X-263500Y-287351D01*
G37*
G54D17*
X-263500Y-287351D02*
X-263500Y-287251D01*
X-269900Y-299951D01*
X-257200Y-299951D01*
X-263600Y-287351D01*
X-263500Y-287351D01*
G36*
X-238100Y-287451D02*
X-238100Y-287351D01*
X-244500Y-300051D01*
X-231800Y-300051D01*
X-238200Y-287451D01*
X-238100Y-287451D01*
G37*
G54D17*
X-238100Y-287451D02*
X-238100Y-287351D01*
X-244500Y-300051D01*
X-231800Y-300051D01*
X-238200Y-287451D01*
X-238100Y-287451D01*
G36*
X-263400Y-274351D02*
X-263400Y-274451D01*
X-257000Y-261751D01*
X-269700Y-261751D01*
X-263300Y-274351D01*
X-263400Y-274351D01*
G37*
G54D17*
X-263400Y-274351D02*
X-263400Y-274451D01*
X-257000Y-261751D01*
X-269700Y-261751D01*
X-263300Y-274351D01*
X-263400Y-274351D01*
G36*
X-238100Y-274451D02*
X-238100Y-274551D01*
X-231700Y-261851D01*
X-244400Y-261851D01*
X-238000Y-274451D01*
X-238100Y-274451D01*
G37*
G54D17*
X-238100Y-274451D02*
X-238100Y-274551D01*
X-231700Y-261851D01*
X-244400Y-261851D01*
X-238000Y-274451D01*
X-238100Y-274451D01*
G54D12*
X-263500Y-274551D02*
X-263500Y-274651D01*
X-282500Y-281051D01*
X-282500Y-280951D01*
X-296800Y-280951D01*
X-296800Y-217451D01*
X-296800Y-204751D01*
X-288900Y-204751D01*
G54D12*
X-238100Y-274551D02*
X-238100Y-274551D01*
X-219100Y-280951D01*
X-204800Y-280951D01*
X-204800Y-204751D01*
X-212700Y-204751D01*
G54D11*
X-327000Y-57700D02*
X-327000Y-85100D01*
X-403200Y-85100D01*
X-403200Y-57700D01*
X-327000Y-57700D01*
G54D11*
X-396900Y-85100D02*
X-396900Y-57700D01*
G54D11*
X-212175Y-83408D02*
X-212175Y-58008D01*
X-283775Y-58008D01*
X-283775Y-83408D01*
X-212175Y-83408D01*
G54D10*
X-256831Y-50116D02*
X-257831Y-51783D01*
X-259831Y-52616D01*
X-261831Y-52616D01*
X-263831Y-51783D01*
X-264831Y-50116D01*
X-264831Y-41783D01*
X-263831Y-40116D01*
X-261831Y-39283D01*
X-259831Y-39283D01*
X-257831Y-40116D01*
X-256831Y-41783D01*
G54D10*
X-249164Y-45950D02*
X-246164Y-47616D01*
X-245164Y-49283D01*
X-245164Y-52616D01*
G54D10*
X-253164Y-52616D02*
X-253164Y-39283D01*
X-248164Y-39283D01*
X-246164Y-40116D01*
X-245164Y-41783D01*
X-245164Y-43450D01*
X-246164Y-45116D01*
X-248164Y-45950D01*
X-253164Y-45950D01*
G54D10*
X-241497Y-44283D02*
X-236497Y-39283D01*
X-236497Y-52616D01*
G54D16*
X-376116Y-60267D02*
X-376116Y-69156D01*
X-371450Y-69156D01*
G54D16*
X-366339Y-64711D02*
X-364339Y-65822D01*
X-363672Y-66933D01*
X-363672Y-69156D01*
G54D16*
X-369005Y-69156D02*
X-369005Y-60267D01*
X-365672Y-60267D01*
X-364339Y-60822D01*
X-363672Y-61933D01*
X-363672Y-63044D01*
X-364339Y-64156D01*
X-365672Y-64711D01*
X-369005Y-64711D01*
G54D16*
X-361228Y-63600D02*
X-357895Y-60267D01*
X-357895Y-69156D01*
G54D11*
X88900Y52400D02*
X190500Y52400D01*
X190500Y-49200D01*
X88900Y-49200D01*
X88900Y52400D01*
G54D13*
X88150Y79150D02*
X88150Y79150D01*
G54D13*
X88150Y59650D02*
X88150Y59650D01*
G54D17*
X48250Y-310801D02*
X148850Y-310701D01*
X148750Y-110801D01*
X48250Y-110801D01*
X48250Y-310801D01*
G54D12*
X60350Y-122201D02*
X60350Y-147601D01*
X66650Y-147601D01*
X66550Y-147601D01*
X72950Y-165101D01*
X73050Y-165101D01*
X80950Y-134901D01*
X88950Y-166701D01*
X96850Y-134901D01*
X106450Y-166701D01*
X115850Y-134901D01*
X123850Y-166701D01*
X130250Y-147601D01*
X136550Y-147601D01*
X136550Y-122201D01*
G54D12*
X60350Y-300001D02*
X85650Y-300001D01*
X85650Y-281001D01*
G54D12*
X60350Y-249201D02*
X85650Y-249201D01*
X85650Y-268201D01*
G54D12*
X136550Y-300001D02*
X111150Y-300001D01*
X111150Y-281001D01*
G54D12*
X136550Y-249201D02*
X111150Y-249201D01*
X111150Y-268201D01*
G36*
X85750Y-281001D02*
X85750Y-280901D01*
X79350Y-293601D01*
X92050Y-293601D01*
X85650Y-281001D01*
X85750Y-281001D01*
G37*
G54D17*
X85750Y-281001D02*
X85750Y-280901D01*
X79350Y-293601D01*
X92050Y-293601D01*
X85650Y-281001D01*
X85750Y-281001D01*
G36*
X111150Y-281101D02*
X111150Y-281001D01*
X104750Y-293701D01*
X117450Y-293701D01*
X111050Y-281101D01*
X111150Y-281101D01*
G37*
G54D17*
X111150Y-281101D02*
X111150Y-281001D01*
X104750Y-293701D01*
X117450Y-293701D01*
X111050Y-281101D01*
X111150Y-281101D01*
G36*
X85850Y-268001D02*
X85850Y-268101D01*
X92250Y-255401D01*
X79550Y-255401D01*
X85950Y-268001D01*
X85850Y-268001D01*
G37*
G54D17*
X85850Y-268001D02*
X85850Y-268101D01*
X92250Y-255401D01*
X79550Y-255401D01*
X85950Y-268001D01*
X85850Y-268001D01*
G36*
X111150Y-268101D02*
X111150Y-268201D01*
X117550Y-255501D01*
X104850Y-255501D01*
X111250Y-268101D01*
X111150Y-268101D01*
G37*
G54D17*
X111150Y-268101D02*
X111150Y-268201D01*
X117550Y-255501D01*
X104850Y-255501D01*
X111250Y-268101D01*
X111150Y-268101D01*
G54D12*
X85750Y-268201D02*
X85750Y-268301D01*
X66750Y-274701D01*
X66750Y-274601D01*
X52450Y-274601D01*
X52450Y-211101D01*
X52450Y-198401D01*
X60350Y-198401D01*
G54D12*
X111150Y-268201D02*
X111150Y-268201D01*
X130150Y-274601D01*
X144450Y-274601D01*
X144450Y-198401D01*
X136550Y-198401D01*
G54D11*
X194700Y-173000D02*
X167300Y-173000D01*
X167300Y-96800D01*
X194700Y-96800D01*
X194700Y-173000D01*
G54D11*
X167300Y-103100D02*
X194700Y-103100D01*
G54D11*
X171125Y-284308D02*
X196525Y-284308D01*
X196525Y-212708D01*
X171125Y-212708D01*
X171125Y-284308D01*
G54D16*
X184413Y-118405D02*
X175524Y-118405D01*
X175524Y-123072D01*
G54D16*
X179968Y-128183D02*
X178857Y-130183D01*
X177746Y-130850D01*
X175524Y-130850D01*
G54D16*
X175524Y-125516D02*
X184413Y-125516D01*
X184413Y-128850D01*
X183857Y-130183D01*
X182746Y-130850D01*
X181635Y-130850D01*
X180524Y-130183D01*
X179968Y-128850D01*
X179968Y-125516D01*
G54D16*
X175524Y-138627D02*
X175524Y-133293D01*
X176080Y-133293D01*
X177190Y-133960D01*
X180524Y-137960D01*
X181635Y-138627D01*
X182746Y-138627D01*
X183857Y-137960D01*
X184413Y-136627D01*
X184413Y-135293D01*
X183857Y-133960D01*
X182746Y-133293D01*
G54D12*
X-366512Y114534D02*
X-360512Y98534D01*
X-354512Y114534D01*
G54D12*
X-345312Y106534D02*
X-341712Y104534D01*
X-340512Y102534D01*
X-340512Y98534D01*
G54D12*
X-350112Y98534D02*
X-350112Y114534D01*
X-344112Y114534D01*
X-341712Y113534D01*
X-340512Y111534D01*
X-340512Y109534D01*
X-341712Y107534D01*
X-344112Y106534D01*
X-350112Y106534D01*
G54D12*
X-327712Y98534D02*
X-336112Y98534D01*
X-336112Y114534D01*
X-327712Y114534D01*
G54D12*
X-336112Y106534D02*
X-327712Y106534D01*
G54D12*
X-323312Y114534D02*
X-323312Y98534D01*
X-314912Y98534D01*
G54D11*
X-394562Y127235D02*
X-394561Y152635D01*
X-343762Y152635D01*
X-343762Y127235D01*
X-394562Y127235D01*
G54D12*
X-387689Y119837D02*
X-387688Y113486D01*
G54D12*
X-379751Y113486D02*
X-395626Y113487D01*
G54D12*
X-393245Y110312D02*
X-382132Y110312D01*
G54D12*
X-385308Y107137D02*
X-390070Y107137D01*
G54D12*
X138947Y112124D02*
X138948Y105774D01*
G54D12*
X146885Y105774D02*
X131010Y105774D01*
G54D12*
X133391Y102599D02*
X144504Y102599D01*
G54D12*
X141328Y99424D02*
X136566Y99424D01*
G54D10*
X-377800Y-277900D02*
X-377800Y-264567D01*
G54D10*
X-374133Y-277900D02*
X-374133Y-264567D01*
X-366133Y-277900D01*
X-366133Y-264567D01*
G54D10*
X-269850Y93257D02*
X-267850Y94090D01*
X-265450Y94090D01*
X-263850Y92423D01*
X-263850Y86590D01*
G54D10*
X-263850Y89090D02*
X-264850Y90757D01*
X-266850Y91090D01*
X-268850Y90757D01*
X-269850Y89090D01*
X-269450Y87423D01*
X-267850Y86590D01*
X-266850Y86590D01*
X-266450Y86590D01*
X-264850Y87423D01*
X-263850Y89090D01*
G54D10*
X-187300Y52300D02*
X-187300Y65633D01*
G54D10*
X-187300Y57633D02*
X-186300Y59300D01*
X-184300Y59800D01*
X-182300Y59300D01*
X-181300Y57633D01*
X-181300Y54300D01*
X-182300Y52633D01*
X-184300Y52300D01*
X-186300Y52633D01*
X-187300Y54300D01*
G54D10*
X24742Y167574D02*
X23742Y165907D01*
X21742Y165074D01*
X19742Y165074D01*
X17742Y165907D01*
X16742Y167574D01*
X16742Y175907D01*
X17742Y177574D01*
X19742Y178407D01*
X21742Y178407D01*
X23742Y177574D01*
X24742Y175907D01*
G54D10*
X34409Y165074D02*
X34409Y178407D01*
X28409Y170074D01*
X28409Y168407D01*
X36409Y168407D01*
G54D10*
X206498Y-239883D02*
X204831Y-238882D01*
X203998Y-236882D01*
X203998Y-234882D01*
X204831Y-232882D01*
X206498Y-231882D01*
X214831Y-231882D01*
X216498Y-232882D01*
X217331Y-234882D01*
X217331Y-236883D01*
X216498Y-238882D01*
X214831Y-239883D01*
G54D10*
X210665Y-247550D02*
X208998Y-250550D01*
X207331Y-251550D01*
X203998Y-251550D01*
G54D10*
X203998Y-243549D02*
X217331Y-243550D01*
X217331Y-248550D01*
X216498Y-250550D01*
X214831Y-251549D01*
X213165Y-251550D01*
X211498Y-250550D01*
X210665Y-248550D01*
X210665Y-243550D01*
G54D10*
X203998Y-263216D02*
X203998Y-255216D01*
X204831Y-255216D01*
X206498Y-256217D01*
X211498Y-262216D01*
X213164Y-263216D01*
X214831Y-263216D01*
X216498Y-262216D01*
X217331Y-260217D01*
X217331Y-258216D01*
X216498Y-256216D01*
X214832Y-255216D01*
G54D10*
X-351600Y-332733D02*
X-348600Y-334400D01*
X-347600Y-336067D01*
X-347600Y-339400D01*
G54D10*
X-355600Y-339400D02*
X-355600Y-326067D01*
X-350600Y-326067D01*
X-348600Y-326900D01*
X-347600Y-328567D01*
X-347600Y-330233D01*
X-348600Y-331900D01*
X-350600Y-332733D01*
X-355600Y-332733D01*
G54D10*
X-336933Y-339400D02*
X-343933Y-339400D01*
X-343933Y-326067D01*
X-336933Y-326067D01*
G54D10*
X-343933Y-332733D02*
X-336933Y-332733D01*
G54D10*
X-333266Y-326067D02*
X-333266Y-339400D01*
X-326266Y-339400D01*
G54D10*
X-322599Y-331067D02*
X-317599Y-326067D01*
X-317599Y-339400D01*
G54D10*
X156400Y-320033D02*
X159400Y-321700D01*
X160400Y-323367D01*
X160400Y-326700D01*
G54D10*
X152400Y-326700D02*
X152400Y-313367D01*
X157400Y-313367D01*
X159400Y-314200D01*
X160400Y-315867D01*
X160400Y-317533D01*
X159400Y-319200D01*
X157400Y-320033D01*
X152400Y-320033D01*
G54D10*
X171067Y-326700D02*
X164067Y-326700D01*
X164067Y-313367D01*
X171067Y-313367D01*
G54D10*
X164067Y-320033D02*
X171067Y-320033D01*
G54D10*
X174734Y-313367D02*
X174734Y-326700D01*
X181734Y-326700D01*
G54D10*
X193401Y-326700D02*
X185401Y-326700D01*
X185401Y-325867D01*
X186401Y-324200D01*
X192401Y-319200D01*
X193401Y-317533D01*
X193401Y-315867D01*
X192401Y-314200D01*
X190401Y-313367D01*
X188401Y-313367D01*
X186401Y-314200D01*
X185401Y-315867D01*
G54D10*
X-47600Y34520D02*
X-47600Y34520D01*
G54D10*
X-73000Y111353D02*
X-73000Y98020D01*
X-66000Y98020D01*
G54D10*
X-54333Y98020D02*
X-62333Y98020D01*
X-62333Y98853D01*
X-61333Y100520D01*
X-55333Y105520D01*
X-54333Y107187D01*
X-54333Y108853D01*
X-55333Y110520D01*
X-57333Y111353D01*
X-59333Y111353D01*
X-61333Y110520D01*
X-62333Y108853D01*
G54D12*
X-88900Y121920D02*
X-38100Y121920D01*
X-38100Y7620D01*
X-88900Y7620D01*
X-88900Y121920D01*
G54D10*
X-98400Y91987D02*
X-96400Y92820D01*
X-94000Y92820D01*
X-92400Y91153D01*
X-92400Y85320D01*
G54D10*
X-92400Y87820D02*
X-93400Y89487D01*
X-95400Y89820D01*
X-97400Y89487D01*
X-98400Y87820D01*
X-98000Y86153D01*
X-96400Y85320D01*
X-95400Y85320D01*
X-95000Y85320D01*
X-93400Y86153D01*
X-92400Y87820D01*
G54D10*
X-22200Y85320D02*
X-22200Y98653D01*
G54D10*
X-22200Y90653D02*
X-21200Y92320D01*
X-19200Y92820D01*
X-17200Y92320D01*
X-16200Y90653D01*
X-16200Y87320D01*
X-17200Y85653D01*
X-19200Y85320D01*
X-21200Y85653D01*
X-22200Y87320D01*
G54D11*
X33512Y-50064D02*
X33512Y-24663D01*
X-38088Y-24664D01*
X-38088Y-50064D01*
X33512Y-50064D01*
G54D10*
X-11112Y-16772D02*
X-12112Y-18439D01*
X-14112Y-19272D01*
X-16112Y-19272D01*
X-18112Y-18439D01*
X-19112Y-16772D01*
X-19112Y-8439D01*
X-18112Y-6772D01*
X-16112Y-5939D01*
X-14112Y-5939D01*
X-12112Y-6772D01*
X-11112Y-8439D01*
G54D10*
X-7445Y-16772D02*
X-6445Y-18439D01*
X-4444Y-19272D01*
X-2444Y-19272D01*
X-444Y-18439D01*
X556Y-16772D01*
X556Y-12606D01*
X556Y-11772D01*
X-2444Y-13439D01*
X-4445Y-13439D01*
X-6444Y-12606D01*
X-7445Y-10939D01*
X-7444Y-8439D01*
X-6444Y-6772D01*
X-4444Y-5939D01*
X-2444Y-5939D01*
X-444Y-6772D01*
X556Y-8439D01*
X556Y-12606D01*
G54D16*
X-88900Y-11430D02*
X-88900Y-2541D01*
X-84233Y-2541D01*
G54D16*
X-88900Y-6986D02*
X-84233Y-6986D01*
G54D16*
X-79122Y-11430D02*
X-79122Y-2541D01*
G54D16*
X-81789Y-2541D02*
X-76456Y-2541D01*
G54D16*
X-68679Y-2541D02*
X-74012Y-2541D01*
X-74012Y-6430D01*
X-73345Y-6430D01*
X-72012Y-5874D01*
X-70679Y-5874D01*
X-69345Y-6430D01*
X-68679Y-7541D01*
X-68679Y-9763D01*
X-69345Y-10874D01*
X-70679Y-11430D01*
X-72012Y-11430D01*
X-73345Y-10874D01*
X-74012Y-9763D01*
G54D16*
X-60902Y-4208D02*
X-60902Y-9763D01*
X-61568Y-10874D01*
X-62902Y-11430D01*
X-64235Y-11430D01*
X-65568Y-10874D01*
X-66235Y-9763D01*
X-66235Y-4208D01*
X-65568Y-3097D01*
X-64235Y-2541D01*
X-62902Y-2541D01*
X-61568Y-3097D01*
X-60902Y-4208D01*
G54D16*
X-58458Y-7541D02*
X-53125Y-7541D01*
G54D16*
X-50681Y-2541D02*
X-45348Y-2541D01*
X-46014Y-3652D01*
X-47348Y-5319D01*
X-48681Y-7541D01*
X-49348Y-9208D01*
X-49348Y-11430D01*
G54D16*
X-37571Y-2541D02*
X-42904Y-2541D01*
X-42904Y-6430D01*
X-42237Y-6430D01*
X-40904Y-5874D01*
X-39571Y-5874D01*
X-38237Y-6430D01*
X-37571Y-7541D01*
X-37571Y-9763D01*
X-38237Y-10874D01*
X-39571Y-11430D01*
X-40904Y-11430D01*
X-42237Y-10874D01*
X-42904Y-9763D01*
M02*
