; Drill file
; Format: 2.4 (00.0000)
M48
INCH
T01C0.0236
T02C0.0283
T03C0.0354
T04C0.0394
T05C0.1299
%
G05
G90
T01
X002910Y014270
X013890Y017390
X013890Y020390
X016890Y020390
X016890Y017390
X014910Y010270
X027910Y014770
X030410Y005270
T02
X001750Y011030
X029750Y011030
T03
X000970Y004550
X001750Y007030
X003610Y012310
X005620Y012320
X007730Y012380
X010720Y012380
X010730Y015380
X012080Y017630
X012080Y018880
X012080Y020130
X008580Y020130
X008580Y017630
X007720Y015380
X005350Y019600
X004340Y019600
X002970Y020550
X000970Y018050
X001640Y014640
X001640Y013640
X009750Y004900
X009750Y002900
X006970Y001050
X014080Y002880
X015140Y004640
X013480Y005630
X013480Y008630
X016250Y009030
X016250Y008030
X018670Y008280
X018680Y006270
X017150Y004640
X017080Y002880
X016970Y001050
X021750Y002900
X023750Y002900
X029640Y002640
X029640Y003640
X029750Y007030
X027620Y012320
X025610Y012310
X022720Y012380
X019730Y012380
X019720Y015380
X018680Y017500
X018680Y018750
X018680Y020000
X022180Y020000
X022180Y017500
X022730Y015380
X027100Y018450
X028110Y018450
X026970Y020550
X030470Y017550
X029640Y014890
X029640Y013890
T04
X003520Y007790
X003520Y010790
X006520Y010790
X008520Y010790
X010520Y010790
X010520Y007790
X008520Y007790
X006520Y007790
X020750Y007780
X020750Y010780
X023750Y010780
X025750Y010780
X027750Y010780
X027750Y007780
X025750Y007780
X023750Y007780
T05
X001470Y001300
X000970Y020300
X029970Y020300
X027470Y001050
M30
