%FSLAX34Y34*%
%MOMM*%
%LNSOLDERMASK_TOP*%
G71*
G01*
%ADD10C,2.600*%
%ADD11C,2.600*%
%ADD12C,2.400*%
%ADD13C,2.500*%
%ADD14C,2.800*%
%ADD15C,1.600*%
%ADD16C,4.900*%
%LPD*%
X196267Y390766D02*
G54D10*
D03*
X196217Y314516D02*
G54D10*
D03*
X196267Y390766D02*
G54D11*
D03*
X272458Y390692D02*
G54D10*
D03*
X196208Y390742D02*
G54D10*
D03*
X272458Y390692D02*
G54D11*
D03*
X272458Y390692D02*
G54D10*
D03*
X272408Y314442D02*
G54D10*
D03*
X272458Y390692D02*
G54D11*
D03*
X501067Y390766D02*
G54D10*
D03*
X501017Y314516D02*
G54D10*
D03*
X501067Y390766D02*
G54D11*
D03*
X577258Y390692D02*
G54D10*
D03*
X501008Y390742D02*
G54D10*
D03*
X577258Y390692D02*
G54D11*
D03*
X577258Y390692D02*
G54D10*
D03*
X577208Y314442D02*
G54D10*
D03*
X577258Y390692D02*
G54D11*
D03*
X41723Y371761D02*
G54D10*
D03*
X41723Y346361D02*
G54D10*
D03*
X752923Y378111D02*
G54D10*
D03*
X752923Y352711D02*
G54D10*
D03*
X429073Y441611D02*
G54D12*
D03*
X429073Y517811D02*
G54D12*
D03*
X352873Y517811D02*
G54D12*
D03*
X352873Y441611D02*
G54D12*
D03*
X217850Y511373D02*
G54D10*
D03*
X217850Y447873D02*
G54D10*
D03*
X306750Y511373D02*
G54D10*
D03*
X306750Y479623D02*
G54D10*
D03*
X306750Y447873D02*
G54D10*
D03*
X563290Y444580D02*
G54D10*
D03*
X563290Y508080D02*
G54D10*
D03*
X474390Y444580D02*
G54D10*
D03*
X474390Y476330D02*
G54D10*
D03*
X474390Y508080D02*
G54D10*
D03*
X412750Y229450D02*
G54D10*
D03*
X412750Y204050D02*
G54D10*
D03*
X247650Y124550D02*
G54D10*
D03*
X247650Y73750D02*
G54D10*
D03*
X552450Y73750D02*
G54D10*
D03*
X603250Y73750D02*
G54D10*
D03*
X342317Y219316D02*
G54D10*
D03*
X342267Y143066D02*
G54D10*
D03*
X342317Y219316D02*
G54D11*
D03*
X474330Y210302D02*
G54D10*
D03*
X474443Y159321D02*
G54D10*
D03*
X474331Y210302D02*
G54D11*
D03*
X435603Y117874D02*
G54D10*
D03*
X384622Y117761D02*
G54D10*
D03*
X435603Y117874D02*
G54D11*
D03*
X433815Y73138D02*
G54D10*
D03*
X357566Y73188D02*
G54D10*
D03*
X433815Y73139D02*
G54D11*
D03*
X752923Y92361D02*
G54D10*
D03*
X752923Y66961D02*
G54D10*
D03*
X44450Y178650D02*
G54D13*
D03*
X44450Y280250D02*
G54D13*
D03*
X89285Y197935D02*
G54D14*
D03*
X89285Y274135D02*
G54D14*
D03*
X165485Y197935D02*
G54D14*
D03*
X216285Y197935D02*
G54D14*
D03*
X267085Y197935D02*
G54D14*
D03*
X165485Y274135D02*
G54D14*
D03*
X216285Y274135D02*
G54D14*
D03*
X267085Y274135D02*
G54D14*
D03*
X142709Y312825D02*
G54D10*
D03*
X91729Y312713D02*
G54D10*
D03*
X527050Y197700D02*
G54D14*
D03*
X527050Y273900D02*
G54D14*
D03*
X603250Y197700D02*
G54D14*
D03*
X654050Y197700D02*
G54D14*
D03*
X704850Y197700D02*
G54D14*
D03*
X603250Y273900D02*
G54D14*
D03*
X654050Y273900D02*
G54D14*
D03*
X704850Y273900D02*
G54D14*
D03*
X755650Y178650D02*
G54D13*
D03*
X755650Y280250D02*
G54D13*
D03*
X701510Y312825D02*
G54D10*
D03*
X650529Y312713D02*
G54D10*
D03*
X110309Y497922D02*
G54D10*
D03*
X135809Y497922D02*
G54D10*
D03*
X713913Y468625D02*
G54D10*
D03*
X688413Y468625D02*
G54D10*
D03*
X142709Y312825D02*
G54D10*
D03*
X44450Y178650D02*
G54D10*
D03*
X755650Y178650D02*
G54D10*
D03*
X650529Y312713D02*
G54D10*
D03*
X89285Y197935D02*
G54D10*
D03*
X603250Y197700D02*
G54D10*
D03*
X527050Y197700D02*
G54D10*
D03*
X73800Y362510D02*
G54D15*
D03*
X708800Y375210D02*
G54D15*
D03*
X772300Y133910D02*
G54D15*
D03*
X378600Y260910D02*
G54D15*
D03*
X37234Y32979D02*
G54D16*
D03*
G36*
X163934Y39679D02*
X189934Y39679D01*
X189934Y13679D01*
X163934Y13679D01*
X163934Y39679D01*
G37*
X697634Y26629D02*
G54D16*
D03*
X761134Y515579D02*
G54D16*
D03*
X24534Y515579D02*
G54D16*
D03*
G36*
X417934Y39679D02*
X443934Y39679D01*
X443934Y13679D01*
X417934Y13679D01*
X417934Y39679D01*
G37*
G36*
X11534Y128579D02*
X37534Y128579D01*
X37534Y102579D01*
X11534Y102579D01*
X11534Y128579D01*
G37*
G36*
X11534Y471479D02*
X37534Y471479D01*
X37534Y445479D01*
X11534Y445479D01*
X11534Y471479D01*
G37*
G36*
X671934Y534979D02*
X697934Y534979D01*
X697934Y508979D01*
X671934Y508979D01*
X671934Y534979D01*
G37*
G36*
X760834Y458779D02*
X786834Y458779D01*
X786834Y432779D01*
X760834Y432779D01*
X760834Y458779D01*
G37*
G36*
X62334Y534979D02*
X88334Y534979D01*
X88334Y508979D01*
X62334Y508979D01*
X62334Y534979D01*
G37*
M02*
