; Drill file
; Format: 2.4 (00.0000)
M48
INCH
T01C0.0236
T02C0.0354
T03C0.0394
T04C0.0787
%
G05
G90
T01
X-010370Y-007190
X-010370Y-005190
X-008000Y001180
T02
X-018380Y-006060
X-017000Y-006060
X-014900Y-005570
X-014900Y-003070
X-016580Y-003220
X-016580Y-001220
X-018590Y-001220
X-018590Y-003220
X-015590Y001280
X-013580Y001280
X-012000Y001180
X-010000Y001180
X-010000Y-001820
X-009750Y-003360
X-007740Y-003350
X-008000Y-001820
X-005850Y-001110
X-005850Y-003120
X-005080Y-005220
X-007090Y-005220
X-003350Y-003120
X-003350Y-001110
X-001370Y-000690
X-001370Y001310
X-001370Y004810
X-001080Y006780
X-003090Y006780
X-005400Y006930
X-005870Y004810
X-008400Y006930
X-010580Y006780
X-012590Y006780
X-015500Y007180
X-018050Y007410
X-019060Y007410
X-015500Y004180
X-012000Y-001820
X-011900Y-003070
X-011900Y-005570
X-005870Y001310
X-001370Y-004690
X006630Y-003690
X007910Y-001720
X009920Y-001720
X010130Y-003690
X010130Y-007190
X006630Y-007190
X005630Y004810
X006940Y006910
X007950Y006910
X009650Y006890
X009650Y004880
X002630Y004810
T03
X-019500Y000810
X-018500Y001810
X-019500Y002810
X-017500Y002810
X-017500Y000810
X-011870Y003940
X-010870Y003940
X-009870Y003940
X001390Y001470
X002390Y001470
X003390Y001470
X007500Y000810
X008500Y001810
X007500Y002810
X009500Y002810
X009500Y000810
T04
X-021150Y-009570
X-015000Y-009250
X-004000Y003250
X003000Y008000
X011850Y007930
X011850Y-009570
X004500Y-009250
X-021150Y007930
M30
