%FSLAX34Y34*%
%MOMM*%
%LNSILK_TOP*%
G71*
G01*
%ADD10C,0.150*%
%ADD11C,0.090*%
%ADD12C,0.159*%
%ADD13C,0.100*%
%ADD14C,0.167*%
%ADD15C,0.144*%
%ADD16C,0.206*%
%ADD17C,0.200*%
%ADD18C,0.222*%
%LPD*%
G54D10*
X-314300Y112750D02*
X-314300Y87550D01*
X-238100Y87550D01*
X-238100Y112750D01*
X-314300Y112750D01*
G54D11*
X-299500Y76250D02*
X-303200Y76250D01*
X-303200Y83350D01*
X-299500Y83350D01*
G54D11*
X-303200Y79850D02*
X-299500Y79850D01*
G54D11*
X-273500Y77550D02*
X-274100Y76650D01*
X-275100Y76250D01*
X-276200Y76250D01*
X-277300Y76650D01*
X-277800Y77550D01*
X-277800Y82050D01*
X-277300Y82950D01*
X-276200Y83350D01*
X-275100Y83350D01*
X-274100Y82950D01*
X-273500Y82050D01*
G54D11*
X-252400Y76250D02*
X-252400Y83350D01*
X-249700Y83350D01*
X-248700Y82950D01*
X-248100Y82050D01*
X-248100Y81150D01*
X-248700Y80250D01*
X-249700Y79850D01*
X-248700Y79350D01*
X-248100Y78450D01*
X-248100Y77550D01*
X-248700Y76650D01*
X-249700Y76250D01*
X-252400Y76250D01*
G54D11*
X-252400Y79850D02*
X-249700Y79850D01*
G54D12*
X-315051Y133500D02*
X-315051Y133500D01*
G54D12*
X-315050Y118500D02*
X-315050Y118500D01*
G36*
X105205Y21421D02*
X16405Y21421D01*
X16405Y15021D01*
X105205Y15021D01*
X105205Y21421D01*
G37*
G54D13*
X105205Y21421D02*
X16405Y21421D01*
X16405Y15021D01*
X105205Y15021D01*
X105205Y21421D01*
G54D10*
X105205Y15021D02*
X105205Y53021D01*
X16205Y53021D01*
X16205Y15021D01*
X105205Y15021D01*
G54D11*
X87705Y64321D02*
X87706Y57221D01*
X85005Y57221D01*
X84005Y57621D01*
X83405Y58521D01*
X83405Y59421D01*
X84005Y60321D01*
X85005Y60721D01*
X84005Y61221D01*
X83405Y62121D01*
X83405Y63021D01*
X84005Y63921D01*
X85005Y64321D01*
X87705Y64321D01*
G54D11*
X87706Y60721D02*
X85005Y60721D01*
G54D11*
X58005Y63021D02*
X58605Y63921D01*
X59605Y64321D01*
X60705Y64321D01*
X61805Y63921D01*
X62305Y63021D01*
X62305Y58521D01*
X61805Y57621D01*
X60705Y57221D01*
X59605Y57221D01*
X58605Y57621D01*
X58005Y58521D01*
G54D11*
X33205Y64321D02*
X36905Y64321D01*
X36905Y57221D01*
X33205Y57221D01*
G54D11*
X36905Y60721D02*
X33205Y60721D01*
G54D12*
X105955Y-5729D02*
X105955Y-5729D01*
G54D12*
X105955Y9271D02*
X105955Y9271D01*
G54D10*
X-334786Y19790D02*
X-334786Y45190D01*
X-406386Y45190D01*
X-406386Y19790D01*
X-334786Y19790D01*
G54D14*
X-379441Y53082D02*
X-380441Y51415D01*
X-382441Y50582D01*
X-384441Y50582D01*
X-386441Y51415D01*
X-387441Y53082D01*
X-387441Y61415D01*
X-386441Y63082D01*
X-384441Y63915D01*
X-382441Y63915D01*
X-380441Y63082D01*
X-379441Y61415D01*
G54D14*
X-367774Y63915D02*
X-375774Y63915D01*
X-375774Y58082D01*
X-374774Y58082D01*
X-372774Y58915D01*
X-370774Y58915D01*
X-368774Y58082D01*
X-367774Y56415D01*
X-367774Y53082D01*
X-368774Y51415D01*
X-370774Y50582D01*
X-372774Y50582D01*
X-374774Y51415D01*
X-375774Y53082D01*
G54D14*
X-356107Y61415D02*
X-357107Y63082D01*
X-359107Y63915D01*
X-361107Y63915D01*
X-363107Y63082D01*
X-364107Y61415D01*
X-364107Y57248D01*
X-364107Y56415D01*
X-361107Y58082D01*
X-359107Y58082D01*
X-357107Y57248D01*
X-356107Y55582D01*
X-356107Y53082D01*
X-357107Y51415D01*
X-359107Y50582D01*
X-361107Y50582D01*
X-363107Y51415D01*
X-364107Y53082D01*
X-364107Y57248D01*
G54D10*
X-315921Y17279D02*
X-293746Y17279D01*
X-293746Y-33421D01*
X-315921Y-33421D01*
X-315921Y17279D01*
G54D10*
X-304834Y17479D02*
X-304834Y25379D01*
G54D10*
X-304834Y-33521D02*
X-304833Y-41421D01*
G54D14*
X-282575Y-19163D02*
X-280909Y-16163D01*
X-279242Y-15163D01*
X-275909Y-15163D01*
G54D14*
X-275909Y-23163D02*
X-289242Y-23163D01*
X-289242Y-18163D01*
X-288409Y-16163D01*
X-286742Y-15163D01*
X-285075Y-15163D01*
X-283409Y-16163D01*
X-282575Y-18163D01*
X-282575Y-23163D01*
G54D14*
X-275909Y-5496D02*
X-289242Y-5496D01*
X-280909Y-11496D01*
X-279242Y-11496D01*
X-279242Y-3496D01*
G54D14*
X-275909Y8171D02*
X-275909Y171D01*
X-276742Y171D01*
X-278409Y1171D01*
X-283409Y7171D01*
X-285075Y8171D01*
X-286742Y8171D01*
X-288409Y7171D01*
X-289242Y5171D01*
X-289242Y3171D01*
X-288409Y1171D01*
X-286742Y171D01*
G54D10*
X-520700Y96850D02*
X-419100Y96850D01*
X-419100Y-4750D01*
X-520700Y-4750D01*
X-520700Y96850D01*
G54D15*
X-521450Y123600D02*
X-521450Y123600D01*
G54D15*
X-521450Y104100D02*
X-521450Y104100D01*
G54D10*
X-404821Y169679D02*
X-382646Y169679D01*
X-382646Y118979D01*
X-404821Y118979D01*
X-404821Y169679D01*
G54D10*
X-393734Y169879D02*
X-393734Y177779D01*
G54D10*
X-393734Y118879D02*
X-393733Y110979D01*
G54D14*
X-371475Y133237D02*
X-369809Y136237D01*
X-368142Y137237D01*
X-364809Y137237D01*
G54D14*
X-364809Y129237D02*
X-378142Y129237D01*
X-378142Y134237D01*
X-377309Y136237D01*
X-375642Y137237D01*
X-373975Y137237D01*
X-372309Y136237D01*
X-371475Y134237D01*
X-371475Y129237D01*
G54D14*
X-364809Y146904D02*
X-378142Y146904D01*
X-369809Y140904D01*
X-368142Y140904D01*
X-368142Y148904D01*
G54D14*
X-378142Y160571D02*
X-378142Y152571D01*
X-372309Y152571D01*
X-372309Y153571D01*
X-373142Y155571D01*
X-373142Y157571D01*
X-372309Y159571D01*
X-370642Y160571D01*
X-367309Y160571D01*
X-365642Y159571D01*
X-364809Y157571D01*
X-364809Y155571D01*
X-365642Y153571D01*
X-367309Y152571D01*
G54D14*
X-225109Y-23163D02*
X-225109Y-23163D01*
G54D10*
X-258586Y159490D02*
X-258586Y184890D01*
X-330186Y184890D01*
X-330186Y159490D01*
X-258586Y159490D01*
G54D14*
X-303241Y192782D02*
X-304241Y191115D01*
X-306241Y190282D01*
X-308241Y190282D01*
X-310241Y191115D01*
X-311241Y192782D01*
X-311241Y201115D01*
X-310241Y202782D01*
X-308241Y203615D01*
X-306241Y203615D01*
X-304241Y202782D01*
X-303241Y201115D01*
G54D14*
X-291574Y203615D02*
X-299574Y203615D01*
X-299574Y197782D01*
X-298574Y197782D01*
X-296574Y198615D01*
X-294574Y198615D01*
X-292574Y197782D01*
X-291574Y196115D01*
X-291574Y192782D01*
X-292574Y191115D01*
X-294574Y190282D01*
X-296574Y190282D01*
X-298574Y191115D01*
X-299574Y192782D01*
G54D14*
X-282907Y196948D02*
X-284907Y196948D01*
X-286907Y197782D01*
X-287907Y199448D01*
X-287907Y201115D01*
X-286907Y202782D01*
X-284907Y203615D01*
X-282907Y203615D01*
X-280907Y202782D01*
X-279907Y201115D01*
X-279907Y199448D01*
X-280907Y197782D01*
X-282907Y196948D01*
X-280907Y196115D01*
X-279907Y194448D01*
X-279907Y192782D01*
X-280907Y191115D01*
X-282907Y190282D01*
X-284907Y190282D01*
X-286907Y191115D01*
X-287907Y192782D01*
X-287907Y194448D01*
X-286907Y196115D01*
X-284907Y196948D01*
G54D10*
X-214321Y17279D02*
X-192146Y17279D01*
X-192146Y-33421D01*
X-214321Y-33421D01*
X-214321Y17279D01*
G54D10*
X-203234Y17479D02*
X-203234Y25379D01*
G54D10*
X-203234Y-33521D02*
X-203233Y-41421D01*
G54D14*
X-180975Y-19163D02*
X-179309Y-16163D01*
X-177642Y-15163D01*
X-174309Y-15163D01*
G54D14*
X-174309Y-23163D02*
X-187642Y-23163D01*
X-187642Y-18163D01*
X-186809Y-16163D01*
X-185142Y-15163D01*
X-183475Y-15163D01*
X-181809Y-16163D01*
X-180975Y-18163D01*
X-180975Y-23163D01*
G54D14*
X-174309Y-5496D02*
X-187642Y-5496D01*
X-179309Y-11496D01*
X-177642Y-11496D01*
X-177642Y-3496D01*
G54D14*
X-185142Y8171D02*
X-186809Y7171D01*
X-187642Y5171D01*
X-187642Y3171D01*
X-186809Y1171D01*
X-185142Y171D01*
X-180975Y171D01*
X-180142Y171D01*
X-181809Y3171D01*
X-181809Y5171D01*
X-180975Y7171D01*
X-179309Y8171D01*
X-176809Y8171D01*
X-175142Y7171D01*
X-174309Y5171D01*
X-174309Y3171D01*
X-175142Y1171D01*
X-176809Y171D01*
X-180975Y171D01*
G54D10*
X-257881Y-72406D02*
X-257881Y-97806D01*
X-186281Y-97806D01*
X-186281Y-72406D01*
X-257881Y-72406D01*
G54D14*
X-213225Y-105698D02*
X-212225Y-104031D01*
X-210225Y-103198D01*
X-208225Y-103198D01*
X-206225Y-104031D01*
X-205225Y-105698D01*
X-205225Y-114031D01*
X-206225Y-115698D01*
X-208225Y-116531D01*
X-210225Y-116531D01*
X-212225Y-115698D01*
X-213225Y-114031D01*
G54D14*
X-224892Y-116531D02*
X-216892Y-116531D01*
X-216892Y-110698D01*
X-217892Y-110698D01*
X-219892Y-111531D01*
X-221892Y-111531D01*
X-223892Y-110698D01*
X-224892Y-109031D01*
X-224892Y-105698D01*
X-223892Y-104031D01*
X-221892Y-103198D01*
X-219892Y-103198D01*
X-217892Y-104031D01*
X-216892Y-105698D01*
G54D14*
X-228559Y-105698D02*
X-229559Y-104031D01*
X-231559Y-103198D01*
X-233559Y-103198D01*
X-235559Y-104031D01*
X-236559Y-105698D01*
X-236559Y-109864D01*
X-236559Y-110698D01*
X-233559Y-109031D01*
X-231559Y-109031D01*
X-229559Y-109864D01*
X-228559Y-111531D01*
X-228559Y-114031D01*
X-229559Y-115698D01*
X-231559Y-116531D01*
X-233559Y-116531D01*
X-235559Y-115698D01*
X-236559Y-114031D01*
X-236559Y-109864D01*
G54D10*
X-314973Y-66856D02*
X-314973Y-89031D01*
X-365673Y-89031D01*
X-365673Y-66856D01*
X-314973Y-66856D01*
G54D10*
X-314773Y-77944D02*
X-306873Y-77944D01*
G54D10*
X-365773Y-77944D02*
X-373673Y-77944D01*
G54D14*
X-351415Y-100202D02*
X-348415Y-101869D01*
X-347415Y-103535D01*
X-347415Y-106869D01*
G54D14*
X-355415Y-106869D02*
X-355415Y-93535D01*
X-350415Y-93535D01*
X-348415Y-94369D01*
X-347415Y-96035D01*
X-347415Y-97702D01*
X-348415Y-99369D01*
X-350415Y-100202D01*
X-355415Y-100202D01*
G54D14*
X-337748Y-106869D02*
X-337748Y-93535D01*
X-343748Y-101869D01*
X-343748Y-103535D01*
X-335748Y-103535D01*
G54D14*
X-332081Y-96035D02*
X-331081Y-94369D01*
X-329081Y-93535D01*
X-327081Y-93535D01*
X-325081Y-94369D01*
X-324081Y-96035D01*
X-324081Y-97702D01*
X-325081Y-99369D01*
X-327081Y-100202D01*
X-325081Y-101035D01*
X-324081Y-102702D01*
X-324081Y-104369D01*
X-325081Y-106035D01*
X-327081Y-106869D01*
X-329081Y-106869D01*
X-331081Y-106035D01*
X-332081Y-104369D01*
G54D10*
X-410986Y-43710D02*
X-410986Y-18310D01*
X-482586Y-18310D01*
X-482586Y-43710D01*
X-410986Y-43710D01*
G54D14*
X-455641Y-10418D02*
X-456641Y-12085D01*
X-458641Y-12918D01*
X-460641Y-12918D01*
X-462641Y-12085D01*
X-463641Y-10418D01*
X-463641Y-2085D01*
X-462641Y-418D01*
X-460641Y415D01*
X-458641Y415D01*
X-456641Y-418D01*
X-455641Y-2085D01*
G54D14*
X-443974Y415D02*
X-451974Y415D01*
X-451974Y-5418D01*
X-450974Y-5418D01*
X-448974Y-4585D01*
X-446974Y-4585D01*
X-444974Y-5418D01*
X-443974Y-7085D01*
X-443974Y-10418D01*
X-444974Y-12085D01*
X-446974Y-12918D01*
X-448974Y-12918D01*
X-450974Y-12085D01*
X-451974Y-10418D01*
G54D14*
X-440307Y415D02*
X-432307Y415D01*
X-433307Y-1252D01*
X-435307Y-3752D01*
X-437307Y-7085D01*
X-438307Y-9585D01*
X-438307Y-12918D01*
G54D10*
X-410986Y-94510D02*
X-410986Y-69110D01*
X-482586Y-69110D01*
X-482586Y-94510D01*
X-410986Y-94510D01*
G54D14*
X-455641Y-61218D02*
X-456641Y-62885D01*
X-458641Y-63718D01*
X-460641Y-63718D01*
X-462641Y-62885D01*
X-463641Y-61218D01*
X-463641Y-52885D01*
X-462641Y-51218D01*
X-460641Y-50385D01*
X-458641Y-50385D01*
X-456641Y-51218D01*
X-455641Y-52885D01*
G54D14*
X-443974Y-52885D02*
X-444974Y-51218D01*
X-446974Y-50385D01*
X-448974Y-50385D01*
X-450974Y-51218D01*
X-451974Y-52885D01*
X-451974Y-57052D01*
X-451974Y-57885D01*
X-448974Y-56218D01*
X-446974Y-56218D01*
X-444974Y-57052D01*
X-443974Y-58718D01*
X-443974Y-61218D01*
X-444974Y-62885D01*
X-446974Y-63718D01*
X-448974Y-63718D01*
X-450974Y-62885D01*
X-451974Y-61218D01*
X-451974Y-57052D01*
G54D14*
X-432307Y-52885D02*
X-432307Y-61218D01*
X-433307Y-62885D01*
X-435307Y-63718D01*
X-437307Y-63718D01*
X-439307Y-62885D01*
X-440307Y-61218D01*
X-440307Y-52885D01*
X-439307Y-51218D01*
X-437307Y-50385D01*
X-435307Y-50385D01*
X-433307Y-51218D01*
X-432307Y-52885D01*
G54D10*
X-427888Y-141250D02*
X-435488Y-141250D01*
G54D10*
X-431688Y-145050D02*
X-431688Y-137450D01*
G54D10*
G75*
G01X-409344Y-153950D02*
G03X-409344Y-153950I-39850J0D01*
G01*
G54D16*
X-408594Y-220550D02*
X-408594Y-220550D01*
G54D16*
X-408594Y-201050D02*
X-408594Y-201050D01*
G54D10*
X-314973Y-130356D02*
X-314973Y-152531D01*
X-365673Y-152531D01*
X-365673Y-130356D01*
X-314973Y-130356D01*
G54D10*
X-314773Y-141444D02*
X-306873Y-141444D01*
G54D10*
X-365773Y-141444D02*
X-373673Y-141444D01*
G54D14*
X-351415Y-163702D02*
X-348415Y-165369D01*
X-347415Y-167035D01*
X-347415Y-170369D01*
G54D14*
X-355415Y-170369D02*
X-355415Y-157035D01*
X-350415Y-157035D01*
X-348415Y-157869D01*
X-347415Y-159535D01*
X-347415Y-161202D01*
X-348415Y-162869D01*
X-350415Y-163702D01*
X-355415Y-163702D01*
G54D14*
X-337748Y-170369D02*
X-337748Y-157035D01*
X-343748Y-165369D01*
X-343748Y-167035D01*
X-335748Y-167035D01*
G54D14*
X-332081Y-157035D02*
X-324081Y-157035D01*
X-325081Y-158702D01*
X-327081Y-161202D01*
X-329081Y-164535D01*
X-330081Y-167035D01*
X-330081Y-170369D01*
G54D10*
X-272200Y-172450D02*
X-254800Y-172450D01*
X-254800Y-142050D01*
X-272200Y-142050D01*
X-272200Y-172450D01*
G36*
X-272100Y-172350D02*
X-255400Y-172350D01*
X-255400Y-165150D01*
X-272100Y-165150D01*
X-272100Y-172350D01*
G37*
G54D13*
X-272100Y-172350D02*
X-255400Y-172350D01*
X-255400Y-165150D01*
X-272100Y-165150D01*
X-272100Y-172350D01*
G54D10*
X-118886Y-145310D02*
X-118886Y-119910D01*
X-190486Y-119910D01*
X-190486Y-145310D01*
X-118886Y-145310D01*
G54D14*
X-163541Y-112018D02*
X-164541Y-113685D01*
X-166541Y-114518D01*
X-168541Y-114518D01*
X-170541Y-113685D01*
X-171541Y-112018D01*
X-171541Y-103685D01*
X-170541Y-102018D01*
X-168541Y-101185D01*
X-166541Y-101185D01*
X-164541Y-102018D01*
X-163541Y-103685D01*
G54D14*
X-151874Y-103685D02*
X-152874Y-102018D01*
X-154874Y-101185D01*
X-156874Y-101185D01*
X-158874Y-102018D01*
X-159874Y-103685D01*
X-159874Y-107852D01*
X-159874Y-108685D01*
X-156874Y-107018D01*
X-154874Y-107018D01*
X-152874Y-107852D01*
X-151874Y-109518D01*
X-151874Y-112018D01*
X-152874Y-113685D01*
X-154874Y-114518D01*
X-156874Y-114518D01*
X-158874Y-113685D01*
X-159874Y-112018D01*
X-159874Y-107852D01*
G54D14*
X-140207Y-103685D02*
X-141207Y-102018D01*
X-143207Y-101185D01*
X-145207Y-101185D01*
X-147207Y-102018D01*
X-148207Y-103685D01*
X-148207Y-107852D01*
X-148207Y-108685D01*
X-145207Y-107018D01*
X-143207Y-107018D01*
X-141207Y-107852D01*
X-140207Y-109518D01*
X-140207Y-112018D01*
X-141207Y-113685D01*
X-143207Y-114518D01*
X-145207Y-114518D01*
X-147207Y-113685D01*
X-148207Y-112018D01*
X-148207Y-107852D01*
G54D10*
X-149873Y187144D02*
X-149873Y164969D01*
X-200573Y164969D01*
X-200573Y187144D01*
X-149873Y187144D01*
G54D10*
X-149673Y176056D02*
X-141773Y176056D01*
G54D10*
X-200673Y176056D02*
X-208573Y176056D01*
G54D14*
X-186315Y153798D02*
X-183315Y152131D01*
X-182315Y150464D01*
X-182315Y147131D01*
G54D14*
X-190315Y147131D02*
X-190315Y160464D01*
X-185315Y160464D01*
X-183315Y159631D01*
X-182315Y157964D01*
X-182315Y156298D01*
X-183315Y154631D01*
X-185315Y153798D01*
X-190315Y153798D01*
G54D14*
X-172648Y147131D02*
X-172648Y160464D01*
X-178648Y152131D01*
X-178648Y150464D01*
X-170648Y150464D01*
G54D14*
X-161981Y153798D02*
X-163981Y153798D01*
X-165981Y154631D01*
X-166981Y156298D01*
X-166981Y157964D01*
X-165981Y159631D01*
X-163981Y160464D01*
X-161981Y160464D01*
X-159981Y159631D01*
X-158981Y157964D01*
X-158981Y156298D01*
X-159981Y154631D01*
X-161981Y153798D01*
X-159981Y152964D01*
X-158981Y151298D01*
X-158981Y149631D01*
X-159981Y147964D01*
X-161981Y147131D01*
X-163981Y147131D01*
X-165981Y147964D01*
X-166981Y149631D01*
X-166981Y151298D01*
X-165981Y152964D01*
X-163981Y153798D01*
G54D10*
X89600Y130850D02*
X89600Y113450D01*
X120000Y113450D01*
X120000Y130850D01*
X89600Y130850D01*
G36*
X89700Y130750D02*
X89700Y114050D01*
X96900Y114050D01*
X96900Y130750D01*
X89700Y130750D01*
G37*
G54D13*
X89700Y130750D02*
X89700Y114050D01*
X96900Y114050D01*
X96900Y130750D01*
X89700Y130750D01*
G54D10*
X78600Y122150D02*
X89700Y122150D01*
G54D10*
X119900Y122150D02*
X131000Y122150D01*
G54D16*
X83100Y157600D02*
X83100Y157600D01*
G54D16*
X57700Y138100D02*
X57700Y138100D01*
G54D10*
X262114Y-56410D02*
X262114Y-31009D01*
X190514Y-31010D01*
X190514Y-56410D01*
X262114Y-56410D01*
G54D14*
X217458Y-23118D02*
X216458Y-24785D01*
X214458Y-25618D01*
X212458Y-25618D01*
X210458Y-24785D01*
X209458Y-23118D01*
X209458Y-14785D01*
X210458Y-13118D01*
X212458Y-12285D01*
X214458Y-12285D01*
X216458Y-13118D01*
X217458Y-14785D01*
G54D14*
X229125Y-14785D02*
X228125Y-13118D01*
X226125Y-12285D01*
X224125Y-12285D01*
X222125Y-13118D01*
X221125Y-14785D01*
X221125Y-18951D01*
X221125Y-19785D01*
X224125Y-18118D01*
X226125Y-18118D01*
X228125Y-18951D01*
X229125Y-20618D01*
X229125Y-23118D01*
X228125Y-24785D01*
X226125Y-25618D01*
X224125Y-25618D01*
X222125Y-24785D01*
X221125Y-23118D01*
X221125Y-18951D01*
G54D14*
X240792Y-12285D02*
X232792Y-12285D01*
X232792Y-18118D01*
X233792Y-18118D01*
X235792Y-17285D01*
X237792Y-17285D01*
X239792Y-18118D01*
X240792Y-19785D01*
X240792Y-23118D01*
X239792Y-24785D01*
X237792Y-25618D01*
X235792Y-25618D01*
X233792Y-24785D01*
X232792Y-23118D01*
G54D10*
X-161336Y-89456D02*
X-135936Y-89456D01*
X-135936Y-17856D01*
X-161336Y-17856D01*
X-161336Y-89456D01*
G54D14*
X-128044Y-44800D02*
X-129711Y-43800D01*
X-130544Y-41800D01*
X-130544Y-39800D01*
X-129711Y-37800D01*
X-128044Y-36800D01*
X-119711Y-36800D01*
X-118044Y-37800D01*
X-117211Y-39800D01*
X-117211Y-41800D01*
X-118044Y-43800D01*
X-119711Y-44800D01*
G54D14*
X-119711Y-56467D02*
X-118044Y-55467D01*
X-117211Y-53467D01*
X-117211Y-51467D01*
X-118044Y-49467D01*
X-119711Y-48467D01*
X-123878Y-48467D01*
X-124711Y-48467D01*
X-123044Y-51467D01*
X-123044Y-53467D01*
X-123878Y-55467D01*
X-125544Y-56467D01*
X-128044Y-56467D01*
X-129711Y-55467D01*
X-130544Y-53467D01*
X-130544Y-51467D01*
X-129711Y-49467D01*
X-128044Y-48467D01*
X-123878Y-48467D01*
G54D14*
X-130544Y-68134D02*
X-130544Y-60134D01*
X-129711Y-60134D01*
X-128044Y-61134D01*
X-123044Y-67134D01*
X-121378Y-68134D01*
X-119711Y-68134D01*
X-118044Y-67134D01*
X-117211Y-65134D01*
X-117211Y-63134D01*
X-118044Y-61134D01*
X-119711Y-60134D01*
G54D17*
X173400Y156664D02*
X179400Y140664D01*
X185400Y156664D01*
G54D17*
X189800Y140664D02*
X189800Y156664D01*
G54D17*
X194200Y140664D02*
X194200Y156664D01*
X203800Y140664D01*
X203800Y156664D01*
G54D10*
X163604Y162838D02*
X163604Y188238D01*
X214404Y188238D01*
X214404Y162838D01*
X163604Y162838D01*
G54D17*
X162621Y176067D02*
X156270Y176067D01*
G54D17*
X156270Y168130D02*
X156271Y184005D01*
G54D17*
X153096Y181624D02*
X153096Y170511D01*
G54D17*
X149921Y173686D02*
X149921Y178448D01*
G54D10*
X232364Y113744D02*
X257764Y113744D01*
X257764Y185344D01*
X232364Y185344D01*
X232364Y113744D01*
G54D14*
X265656Y158400D02*
X263989Y159400D01*
X263156Y161400D01*
X263156Y163400D01*
X263989Y165400D01*
X265656Y166400D01*
X273989Y166400D01*
X275656Y165400D01*
X276489Y163400D01*
X276489Y161400D01*
X275656Y159400D01*
X273989Y158400D01*
G54D14*
X273989Y146733D02*
X275656Y147733D01*
X276489Y149733D01*
X276489Y151733D01*
X275656Y153733D01*
X273989Y154733D01*
X269823Y154733D01*
X268989Y154733D01*
X270656Y151733D01*
X270656Y149733D01*
X269823Y147733D01*
X268156Y146733D01*
X265656Y146733D01*
X263989Y147733D01*
X263156Y149733D01*
X263156Y151733D01*
X263989Y153733D01*
X265656Y154733D01*
X269823Y154733D01*
G54D14*
X276489Y143066D02*
X276489Y135066D01*
X274823Y136066D01*
X272323Y138066D01*
X268989Y140066D01*
X266489Y141066D01*
X263156Y141066D01*
G54D10*
X-17285Y159489D02*
X-17285Y184890D01*
X-88885Y184889D01*
X-88885Y159489D01*
X-17285Y159489D01*
G54D14*
X-61941Y192781D02*
X-62941Y191114D01*
X-64941Y190281D01*
X-66941Y190281D01*
X-68941Y191114D01*
X-69941Y192781D01*
X-69941Y201114D01*
X-68941Y202781D01*
X-66941Y203614D01*
X-64941Y203614D01*
X-62941Y202781D01*
X-61941Y201114D01*
G54D14*
X-50274Y201114D02*
X-51274Y202781D01*
X-53274Y203614D01*
X-55274Y203614D01*
X-57274Y202781D01*
X-58274Y201114D01*
X-58274Y196948D01*
X-58274Y196114D01*
X-55274Y197781D01*
X-53274Y197781D01*
X-51274Y196948D01*
X-50274Y195281D01*
X-50274Y192781D01*
X-51274Y191114D01*
X-53274Y190281D01*
X-55274Y190281D01*
X-57274Y191114D01*
X-58274Y192781D01*
X-58274Y196948D01*
G54D14*
X-40607Y190281D02*
X-40607Y203614D01*
X-46607Y195281D01*
X-46607Y193614D01*
X-38607Y193614D01*
G54D10*
X165100Y96850D02*
X266700Y96850D01*
X266700Y-4750D01*
X165100Y-4750D01*
X165100Y96850D01*
G54D15*
X164350Y123600D02*
X164350Y123600D01*
G54D15*
X164350Y104100D02*
X164350Y104100D01*
G54D10*
X-44400Y-49350D02*
X-25400Y-49350D01*
X-25400Y-87350D01*
X-44400Y-87350D01*
X-44400Y-49350D01*
G54D10*
X-34900Y-49250D02*
X-34900Y-28650D01*
G54D10*
X-34900Y-108050D02*
X-34900Y-87450D01*
G54D15*
X-19740Y-66234D02*
X-19740Y-77790D01*
X-13674Y-77790D01*
G54D15*
X-18150Y-7550D02*
X-18150Y-7550D01*
G54D10*
X-97836Y-89456D02*
X-72436Y-89456D01*
X-72436Y-17856D01*
X-97836Y-17856D01*
X-97836Y-89456D01*
G54D14*
X-64544Y-44800D02*
X-66211Y-43800D01*
X-67044Y-41800D01*
X-67044Y-39800D01*
X-66211Y-37800D01*
X-64544Y-36800D01*
X-56211Y-36800D01*
X-54544Y-37800D01*
X-53711Y-39800D01*
X-53711Y-41800D01*
X-54544Y-43800D01*
X-56211Y-44800D01*
G54D14*
X-56211Y-56467D02*
X-54544Y-55467D01*
X-53711Y-53467D01*
X-53711Y-51467D01*
X-54544Y-49467D01*
X-56211Y-48467D01*
X-60378Y-48467D01*
X-61211Y-48467D01*
X-59544Y-51467D01*
X-59544Y-53467D01*
X-60378Y-55467D01*
X-62044Y-56467D01*
X-64544Y-56467D01*
X-66211Y-55467D01*
X-67044Y-53467D01*
X-67044Y-51467D01*
X-66211Y-49467D01*
X-64544Y-48467D01*
X-60378Y-48467D01*
G54D14*
X-56211Y-60134D02*
X-54544Y-61134D01*
X-53711Y-63134D01*
X-53711Y-65134D01*
X-54544Y-67134D01*
X-56211Y-68134D01*
X-57878Y-68134D01*
X-59544Y-67134D01*
X-60378Y-65134D01*
X-61211Y-67134D01*
X-62878Y-68134D01*
X-64544Y-68134D01*
X-66211Y-67134D01*
X-67044Y-65134D01*
X-67044Y-63134D01*
X-66211Y-61134D01*
X-64544Y-60134D01*
G54D18*
X-177800Y116839D02*
X-175133Y117950D01*
X-171933Y117950D01*
X-169800Y115728D01*
X-169800Y107950D01*
G54D18*
X-169800Y111283D02*
X-171133Y113506D01*
X-173800Y113950D01*
X-176467Y113506D01*
X-177800Y111283D01*
X-177267Y109061D01*
X-175133Y107950D01*
X-173800Y107950D01*
X-173267Y107950D01*
X-171133Y109061D01*
X-169800Y111283D01*
G54D18*
X-177800Y31750D02*
X-177800Y49528D01*
G54D18*
X-177800Y38861D02*
X-176467Y41083D01*
X-173800Y41750D01*
X-171133Y41083D01*
X-169800Y38861D01*
X-169800Y34417D01*
X-171133Y32194D01*
X-173800Y31750D01*
X-176467Y32194D01*
X-177800Y34417D01*
G54D18*
X-6033Y129983D02*
X-8700Y130650D01*
X-11367Y129983D01*
X-12700Y127761D01*
X-12700Y123317D01*
X-11367Y121094D01*
X-8700Y120650D01*
X-6033Y121094D01*
G54D18*
X-4700Y31750D02*
X-4700Y49528D01*
G54D18*
X-4700Y38861D02*
X-6033Y41083D01*
X-8700Y41750D01*
X-11367Y41083D01*
X-12700Y38861D01*
X-12700Y34417D01*
X-11367Y32194D01*
X-8700Y31750D01*
X-6033Y32194D01*
X-4700Y34417D01*
G54D18*
X165100Y-213361D02*
X167767Y-212250D01*
X170967Y-212250D01*
X173100Y-214472D01*
X173100Y-222250D01*
G54D18*
X173100Y-218917D02*
X171767Y-216694D01*
X169100Y-216250D01*
X166433Y-216694D01*
X165100Y-218917D01*
X165633Y-221139D01*
X167767Y-222250D01*
X169100Y-222250D01*
X169633Y-222250D01*
X171767Y-221139D01*
X173100Y-218917D01*
G54D18*
X139700Y-124461D02*
X142367Y-123350D01*
X145567Y-123350D01*
X147700Y-125572D01*
X147700Y-133350D01*
G54D18*
X147700Y-130017D02*
X146367Y-127794D01*
X143700Y-127350D01*
X141033Y-127794D01*
X139700Y-130017D01*
X140233Y-132239D01*
X142367Y-133350D01*
X143700Y-133350D01*
X144233Y-133350D01*
X146367Y-132239D01*
X147700Y-130017D01*
G54D18*
X152589Y-122239D02*
X159256Y-115572D01*
X159256Y-133350D01*
G54D18*
X254000Y-133350D02*
X254000Y-115572D01*
G54D18*
X254000Y-126239D02*
X255333Y-124017D01*
X258000Y-123350D01*
X260667Y-124017D01*
X262000Y-126239D01*
X262000Y-130683D01*
X260667Y-132906D01*
X258000Y-133350D01*
X255333Y-132906D01*
X254000Y-130683D01*
G54D18*
X266889Y-122239D02*
X273556Y-115572D01*
X273556Y-133350D01*
G54D18*
X254000Y-222250D02*
X254000Y-204472D01*
G54D18*
X254000Y-215139D02*
X255333Y-212917D01*
X258000Y-212250D01*
X260667Y-212917D01*
X262000Y-215139D01*
X262000Y-219583D01*
X260667Y-221806D01*
X258000Y-222250D01*
X255333Y-221806D01*
X254000Y-219583D01*
G54D18*
X-167133Y-244317D02*
X-168467Y-246539D01*
X-171133Y-247650D01*
X-173800Y-247650D01*
X-176467Y-246539D01*
X-177800Y-244317D01*
X-177800Y-233206D01*
X-176467Y-230983D01*
X-173800Y-229872D01*
X-171133Y-229872D01*
X-168467Y-230983D01*
X-167133Y-233206D01*
G54D18*
X-162244Y-239872D02*
X-151577Y-239872D01*
G54D18*
X-146688Y-247650D02*
X-140021Y-229872D01*
X-133355Y-247650D01*
G54D18*
X-144021Y-240983D02*
X-136021Y-240983D01*
G54D18*
X-128466Y-247650D02*
X-128466Y-229872D01*
X-121799Y-240983D01*
X-115133Y-229872D01*
X-115133Y-247650D01*
G54D18*
X-110244Y-247650D02*
X-110244Y-229872D01*
X-103577Y-229872D01*
X-100911Y-230983D01*
X-99577Y-233206D01*
X-99577Y-235428D01*
X-100911Y-237650D01*
X-103577Y-238761D01*
X-110244Y-238761D01*
G54D18*
X-94688Y-229872D02*
X-94688Y-247650D01*
X-85355Y-247650D01*
G54D18*
X-529433Y77311D02*
X-547211Y77311D01*
G54D18*
X-529433Y82200D02*
X-547211Y82200D01*
X-529433Y92867D01*
X-547211Y92867D01*
G54D18*
X282891Y69010D02*
X294002Y69010D01*
X296224Y67677D01*
X297335Y65010D01*
X297335Y62343D01*
X296224Y59677D01*
X294002Y58343D01*
X282891Y58343D01*
X280668Y59677D01*
X279557Y62343D01*
X279557Y65010D01*
X280668Y67677D01*
X282891Y69010D01*
G54D18*
X279557Y73899D02*
X294002Y73899D01*
X296224Y75233D01*
X297335Y77899D01*
X297335Y80566D01*
X296224Y83233D01*
X294002Y84566D01*
X279557Y84566D01*
G54D18*
X297335Y94789D02*
X279557Y94789D01*
G54D18*
X279557Y89455D02*
X279557Y100122D01*
G54D10*
X-265121Y17279D02*
X-242946Y17279D01*
X-242946Y-33421D01*
X-265121Y-33421D01*
X-265121Y17279D01*
G54D10*
X-254034Y17479D02*
X-254034Y25379D01*
G54D10*
X-254034Y-33521D02*
X-254033Y-41421D01*
G54D14*
X-231775Y-19163D02*
X-230109Y-16163D01*
X-228442Y-15163D01*
X-225109Y-15163D01*
G54D14*
X-225109Y-23163D02*
X-238442Y-23163D01*
X-238442Y-18163D01*
X-237609Y-16163D01*
X-235942Y-15163D01*
X-234275Y-15163D01*
X-232609Y-16163D01*
X-231775Y-18163D01*
X-231775Y-23163D01*
G54D14*
X-225109Y-5496D02*
X-238442Y-5496D01*
X-230109Y-11496D01*
X-228442Y-11496D01*
X-228442Y-3496D01*
G54D14*
X-225109Y6171D02*
X-238442Y6171D01*
X-230109Y171D01*
X-228442Y171D01*
X-228442Y8171D01*
G54D14*
X-461900Y-219750D02*
X-462900Y-221417D01*
X-464900Y-222250D01*
X-466900Y-222250D01*
X-468900Y-221417D01*
X-469900Y-219750D01*
X-469900Y-211417D01*
X-468900Y-209750D01*
X-466900Y-208917D01*
X-464900Y-208917D01*
X-462900Y-209750D01*
X-461900Y-211417D01*
G54D14*
X-450233Y-211417D02*
X-451233Y-209750D01*
X-453233Y-208917D01*
X-455233Y-208917D01*
X-457233Y-209750D01*
X-458233Y-211417D01*
X-458233Y-215583D01*
X-458233Y-216417D01*
X-455233Y-214750D01*
X-453233Y-214750D01*
X-451233Y-215583D01*
X-450233Y-217250D01*
X-450233Y-219750D01*
X-451233Y-221417D01*
X-453233Y-222250D01*
X-455233Y-222250D01*
X-457233Y-221417D01*
X-458233Y-219750D01*
X-458233Y-215583D01*
G54D14*
X-446566Y-213917D02*
X-441566Y-208917D01*
X-441566Y-222250D01*
G54D14*
X-241300Y-171450D02*
X-241300Y-158117D01*
X-236300Y-158117D01*
X-234300Y-158950D01*
X-233300Y-160617D01*
X-233300Y-168950D01*
X-234300Y-170617D01*
X-236300Y-171450D01*
X-241300Y-171450D01*
G54D14*
X-229633Y-168950D02*
X-228633Y-170617D01*
X-226633Y-171450D01*
X-224633Y-171450D01*
X-222633Y-170617D01*
X-221633Y-168950D01*
X-221633Y-164783D01*
X-221633Y-163950D01*
X-224633Y-165617D01*
X-226633Y-165617D01*
X-228633Y-164783D01*
X-229633Y-163117D01*
X-229633Y-160617D01*
X-228633Y-158950D01*
X-226633Y-158117D01*
X-224633Y-158117D01*
X-222633Y-158950D01*
X-221633Y-160617D01*
X-221633Y-164783D01*
G54D14*
X-111727Y125881D02*
X-111727Y112548D01*
X-104727Y112548D01*
G54D14*
X-96060Y119215D02*
X-98060Y119215D01*
X-100060Y120048D01*
X-101060Y121715D01*
X-101060Y123381D01*
X-100060Y125048D01*
X-98060Y125881D01*
X-96060Y125881D01*
X-94060Y125048D01*
X-93060Y123381D01*
X-93060Y121715D01*
X-94060Y120048D01*
X-96060Y119215D01*
X-94060Y118381D01*
X-93060Y116715D01*
X-93060Y115048D01*
X-94060Y113381D01*
X-96060Y112548D01*
X-98060Y112548D01*
X-100060Y113381D01*
X-101060Y115048D01*
X-101060Y116715D01*
X-100060Y118381D01*
X-98060Y119215D01*
G54D14*
X205773Y-90019D02*
X205773Y-103352D01*
X212773Y-103352D01*
G54D14*
X216440Y-100852D02*
X217440Y-102519D01*
X219440Y-103352D01*
X221440Y-103352D01*
X223440Y-102519D01*
X224440Y-100852D01*
X224440Y-96685D01*
X224440Y-95852D01*
X221440Y-97519D01*
X219440Y-97519D01*
X217440Y-96685D01*
X216440Y-95019D01*
X216440Y-92519D01*
X217440Y-90852D01*
X219440Y-90019D01*
X221440Y-90019D01*
X223440Y-90852D01*
X224440Y-92519D01*
X224440Y-96685D01*
G54D14*
X88900Y146050D02*
X88900Y159383D01*
X93900Y159383D01*
X95900Y158550D01*
X96900Y156883D01*
X96900Y148550D01*
X95900Y146883D01*
X93900Y146050D01*
X88900Y146050D01*
G54D14*
X100567Y154383D02*
X105567Y159383D01*
X105567Y146050D01*
G54D14*
X117234Y156883D02*
X117234Y148550D01*
X116234Y146883D01*
X114234Y146050D01*
X112234Y146050D01*
X110234Y146883D01*
X109234Y148550D01*
X109234Y156883D01*
X110234Y158550D01*
X112234Y159383D01*
X114234Y159383D01*
X116234Y158550D01*
X117234Y156883D01*
G54D17*
X-499700Y169364D02*
X-493700Y153364D01*
X-487700Y169364D01*
G54D17*
X-478500Y153364D02*
X-478500Y169364D01*
G54D17*
X-483300Y169364D02*
X-473700Y169364D01*
G54D17*
X-469300Y169364D02*
X-457300Y153364D01*
G54D17*
X-469300Y153364D02*
X-457300Y169364D01*
G54D10*
X-496796Y175538D02*
X-496796Y200938D01*
X-445996Y200938D01*
X-445996Y175538D01*
X-496796Y175538D01*
G54D17*
X-496796Y193000D02*
X-503146Y193000D01*
G54D17*
X-503146Y185063D02*
X-503146Y200938D01*
G54D17*
X-506320Y198557D02*
X-506320Y187444D01*
G54D17*
X-509496Y190619D02*
X-509496Y195381D01*
M02*
