%FSLAX34Y34*%
%MOMM*%
%LNCOPPER_TOP*%
G71*
G01*
%ADD10C,2.800*%
%ADD11C,3.200*%
%ADD12C,3.000*%
%ADD13C,3.000*%
%ADD14C,2.800*%
%ADD15C,2.600*%
%ADD16C,1.600*%
%ADD17C,4.800*%
%ADD18C,2.800*%
%ADD19C,3.000*%
%ADD20C,3.800*%
%ADD21C,1.400*%
%ADD22C,0.733*%
%ADD23C,0.667*%
%ADD24C,0.813*%
%ADD25C,1.333*%
%ADD26C,1.000*%
%ADD27C,2.000*%
%ADD28C,2.000*%
%ADD29C,2.200*%
%ADD30C,1.800*%
%ADD31C,0.800*%
%ADD32C,4.000*%
%ADD33C,2.000*%
%ADD34C,2.200*%
%ADD35C,3.000*%
%ADD36C,0.600*%
%LPD*%
G36*
X-561950Y230100D02*
X338050Y230100D01*
X338050Y-269900D01*
X-561950Y-269900D01*
X-561950Y230100D01*
G37*
%LPC*%
X-301600Y100050D02*
G54D10*
D03*
X-276200Y100050D02*
G54D10*
D03*
X-250800Y100050D02*
G54D10*
D03*
X86105Y37321D02*
G54D10*
D03*
X60705Y37321D02*
G54D10*
D03*
X35305Y37321D02*
G54D10*
D03*
X-345001Y32623D02*
G54D11*
D03*
X-395981Y32511D02*
G54D11*
D03*
X-304775Y30075D02*
G54D11*
D03*
X-304825Y-46175D02*
G54D11*
D03*
X-495300Y71450D02*
G54D12*
D03*
X-444500Y71450D02*
G54D12*
D03*
X-469900Y46050D02*
G54D12*
D03*
X-444500Y20650D02*
G54D12*
D03*
X-495300Y20650D02*
G54D12*
D03*
X-393675Y182475D02*
G54D11*
D03*
X-393725Y106225D02*
G54D11*
D03*
X-253975Y30075D02*
G54D11*
D03*
X-254025Y-46175D02*
G54D11*
D03*
X-268801Y172323D02*
G54D11*
D03*
X-319781Y172211D02*
G54D11*
D03*
X-203175Y30075D02*
G54D13*
D03*
X-203225Y-46175D02*
G54D13*
D03*
X-247666Y-85239D02*
G54D11*
D03*
X-196685Y-85127D02*
G54D11*
D03*
X-302177Y-78002D02*
G54D11*
D03*
X-378427Y-77952D02*
G54D11*
D03*
X-421201Y-30877D02*
G54D11*
D03*
X-472181Y-30989D02*
G54D11*
D03*
X-421201Y-81677D02*
G54D11*
D03*
X-472181Y-81789D02*
G54D11*
D03*
X-466788Y-153950D02*
G54D14*
D03*
X-431688Y-153950D02*
G54D14*
D03*
X-302177Y-141502D02*
G54D11*
D03*
X-378427Y-141452D02*
G54D11*
D03*
X-263500Y-182650D02*
G54D15*
D03*
X-263500Y-131850D02*
G54D15*
D03*
X-129101Y-132477D02*
G54D11*
D03*
X-180081Y-132589D02*
G54D11*
D03*
X-137077Y175998D02*
G54D11*
D03*
X-213327Y176048D02*
G54D11*
D03*
X66700Y122150D02*
G54D14*
D03*
X142900Y122150D02*
G54D14*
D03*
X251899Y-43576D02*
G54D11*
D03*
X200918Y-43689D02*
G54D11*
D03*
X-149200Y122150D02*
G54D14*
D03*
X-149200Y33250D02*
G54D14*
D03*
X-34900Y122150D02*
G54D14*
D03*
X-34900Y33250D02*
G54D14*
D03*
X-148502Y-79240D02*
G54D11*
D03*
X-148615Y-28260D02*
G54D11*
D03*
X176375Y175525D02*
G54D11*
D03*
X201875Y175525D02*
G54D11*
D03*
X245198Y123960D02*
G54D11*
D03*
X245085Y174940D02*
G54D11*
D03*
X168300Y-93750D02*
G54D14*
D03*
X257200Y-93750D02*
G54D14*
D03*
X168300Y-182650D02*
G54D14*
D03*
X257200Y-182650D02*
G54D14*
D03*
X-27500Y172323D02*
G54D11*
D03*
X-78480Y172210D02*
G54D11*
D03*
X190500Y71450D02*
G54D12*
D03*
X241300Y71450D02*
G54D12*
D03*
X215900Y46050D02*
G54D12*
D03*
X241300Y20650D02*
G54D12*
D03*
X190500Y20650D02*
G54D12*
D03*
X-34900Y-17550D02*
G54D14*
D03*
X-34900Y-119150D02*
G54D14*
D03*
X-85002Y-79240D02*
G54D11*
D03*
X-85115Y-28260D02*
G54D11*
D03*
G54D16*
X257200Y-182650D02*
X168300Y-93750D01*
G54D16*
X201875Y175525D02*
X200050Y172950D01*
X181000Y153900D01*
X168300Y153900D01*
X155600Y166600D01*
X60350Y166600D01*
X-136500Y-30250D01*
X-149200Y-30250D01*
X-148615Y-28260D01*
X-101600Y82550D02*
G54D17*
D03*
X-472181Y-81789D02*
G54D18*
D03*
X-472181Y-30989D02*
G54D18*
D03*
X-129101Y-132477D02*
G54D18*
D03*
X142900Y122150D02*
G54D18*
D03*
X-203225Y-46175D02*
G54D18*
D03*
X-254025Y-46175D02*
G54D19*
D03*
X-247666Y-85239D02*
G54D19*
D03*
X-148502Y-79240D02*
G54D19*
D03*
X-85002Y-79240D02*
G54D19*
D03*
X-263500Y-182650D02*
G54D18*
D03*
X-472181Y-30989D02*
G54D19*
D03*
X-472181Y-81789D02*
G54D19*
D03*
X-466788Y-153950D02*
G54D19*
D03*
X-129101Y-132477D02*
G54D19*
D03*
X-203225Y-46175D02*
G54D19*
D03*
X245198Y123960D02*
G54D19*
D03*
X35305Y37321D02*
G54D18*
D03*
X-253975Y30075D02*
G54D13*
D03*
X-254025Y-46175D02*
G54D13*
D03*
G36*
X-556177Y220448D02*
X-518177Y220448D01*
X-518177Y182448D01*
X-556177Y182448D01*
X-556177Y220448D01*
G37*
G36*
X282023Y220448D02*
X320023Y220448D01*
X320023Y182448D01*
X282023Y182448D01*
X282023Y220448D01*
G37*
G36*
X-556177Y-224052D02*
X-518177Y-224052D01*
X-518177Y-262052D01*
X-556177Y-262052D01*
X-556177Y-224052D01*
G37*
G36*
X282023Y-224052D02*
X320023Y-224052D01*
X320023Y-262052D01*
X282023Y-262052D01*
X282023Y-224052D01*
G37*
X-381000Y-234950D02*
G54D20*
D03*
X114300Y-234950D02*
G54D20*
D03*
X76200Y203200D02*
G54D20*
D03*
X-484025Y188225D02*
G54D11*
D03*
X-458525Y188225D02*
G54D11*
D03*
G54D21*
X-458525Y188225D02*
X-460350Y187300D01*
X-422250Y149200D01*
X-422250Y15850D01*
X-441300Y-3200D01*
X-441300Y-34950D01*
X-422250Y-54000D01*
X-422250Y-79400D01*
X-421201Y-81677D01*
%LPD*%
G54D22*
G36*
X-498967Y71450D02*
X-498967Y86950D01*
X-491633Y86950D01*
X-491633Y71450D01*
X-498967Y71450D01*
G37*
G36*
X-495300Y75117D02*
X-479800Y75117D01*
X-479800Y67783D01*
X-495300Y67783D01*
X-495300Y75117D01*
G37*
G36*
X-491633Y71450D02*
X-491633Y55950D01*
X-498967Y55950D01*
X-498967Y71450D01*
X-491633Y71450D01*
G37*
G36*
X-495300Y67783D02*
X-510800Y67783D01*
X-510800Y75117D01*
X-495300Y75117D01*
X-495300Y67783D01*
G37*
G54D22*
G36*
X-448167Y71450D02*
X-448167Y86950D01*
X-440833Y86950D01*
X-440833Y71450D01*
X-448167Y71450D01*
G37*
G36*
X-444500Y75117D02*
X-429000Y75117D01*
X-429000Y67783D01*
X-444500Y67783D01*
X-444500Y75117D01*
G37*
G36*
X-440833Y71450D02*
X-440833Y55950D01*
X-448167Y55950D01*
X-448167Y71450D01*
X-440833Y71450D01*
G37*
G36*
X-444500Y67783D02*
X-460000Y67783D01*
X-460000Y75117D01*
X-444500Y75117D01*
X-444500Y67783D01*
G37*
G54D22*
G36*
X-448167Y20650D02*
X-448167Y36150D01*
X-440833Y36150D01*
X-440833Y20650D01*
X-448167Y20650D01*
G37*
G36*
X-444500Y24317D02*
X-429000Y24317D01*
X-429000Y16983D01*
X-444500Y16983D01*
X-444500Y24317D01*
G37*
G36*
X-440833Y20650D02*
X-440833Y5150D01*
X-448167Y5150D01*
X-448167Y20650D01*
X-440833Y20650D01*
G37*
G36*
X-444500Y16983D02*
X-460000Y16983D01*
X-460000Y24317D01*
X-444500Y24317D01*
X-444500Y16983D01*
G37*
G54D22*
G36*
X-498967Y20650D02*
X-498967Y36150D01*
X-491633Y36150D01*
X-491633Y20650D01*
X-498967Y20650D01*
G37*
G36*
X-495300Y24317D02*
X-479800Y24317D01*
X-479800Y16983D01*
X-495300Y16983D01*
X-495300Y24317D01*
G37*
G36*
X-491633Y20650D02*
X-491633Y5150D01*
X-498967Y5150D01*
X-498967Y20650D01*
X-491633Y20650D01*
G37*
G36*
X-495300Y16983D02*
X-510800Y16983D01*
X-510800Y24317D01*
X-495300Y24317D01*
X-495300Y16983D01*
G37*
G54D23*
G36*
X173042Y175525D02*
X173042Y192025D01*
X179708Y192025D01*
X179708Y175525D01*
X173042Y175525D01*
G37*
G54D24*
G54D22*
G36*
X186833Y71450D02*
X186833Y86950D01*
X194167Y86950D01*
X194167Y71450D01*
X186833Y71450D01*
G37*
G36*
X190500Y75117D02*
X206000Y75117D01*
X206000Y67783D01*
X190500Y67783D01*
X190500Y75117D01*
G37*
G36*
X194167Y71450D02*
X194167Y55950D01*
X186833Y55950D01*
X186833Y71450D01*
X194167Y71450D01*
G37*
G36*
X190500Y67783D02*
X175000Y67783D01*
X175000Y75117D01*
X190500Y75117D01*
X190500Y67783D01*
G37*
G54D22*
G36*
X237633Y71450D02*
X237633Y86950D01*
X244967Y86950D01*
X244967Y71450D01*
X237633Y71450D01*
G37*
G36*
X241300Y75117D02*
X256800Y75117D01*
X256800Y67783D01*
X241300Y67783D01*
X241300Y75117D01*
G37*
G36*
X244967Y71450D02*
X244967Y55950D01*
X237633Y55950D01*
X237633Y71450D01*
X244967Y71450D01*
G37*
G36*
X241300Y67783D02*
X225800Y67783D01*
X225800Y75117D01*
X241300Y75117D01*
X241300Y67783D01*
G37*
G54D22*
G36*
X237633Y20650D02*
X237633Y36150D01*
X244967Y36150D01*
X244967Y20650D01*
X237633Y20650D01*
G37*
G36*
X241300Y24317D02*
X256800Y24317D01*
X256800Y16983D01*
X241300Y16983D01*
X241300Y24317D01*
G37*
G36*
X244967Y20650D02*
X244967Y5150D01*
X237633Y5150D01*
X237633Y20650D01*
X244967Y20650D01*
G37*
G36*
X241300Y16983D02*
X225800Y16983D01*
X225800Y24317D01*
X241300Y24317D01*
X241300Y16983D01*
G37*
G54D22*
G36*
X186833Y20650D02*
X186833Y36150D01*
X194167Y36150D01*
X194167Y20650D01*
X186833Y20650D01*
G37*
G36*
X190500Y24317D02*
X206000Y24317D01*
X206000Y16983D01*
X190500Y16983D01*
X190500Y24317D01*
G37*
G36*
X194167Y20650D02*
X194167Y5150D01*
X186833Y5150D01*
X186833Y20650D01*
X194167Y20650D01*
G37*
G36*
X190500Y16983D02*
X175000Y16983D01*
X175000Y24317D01*
X190500Y24317D01*
X190500Y16983D01*
G37*
G54D25*
G36*
X-108267Y82550D02*
X-108267Y107050D01*
X-94933Y107050D01*
X-94933Y82550D01*
X-108267Y82550D01*
G37*
G36*
X-101600Y89217D02*
X-77100Y89217D01*
X-77100Y75883D01*
X-101600Y75883D01*
X-101600Y89217D01*
G37*
G36*
X-94933Y82550D02*
X-94933Y58050D01*
X-108267Y58050D01*
X-108267Y82550D01*
X-94933Y82550D01*
G37*
G36*
X-101600Y75883D02*
X-126100Y75883D01*
X-126100Y89217D01*
X-101600Y89217D01*
X-101600Y75883D01*
G37*
G54D23*
G36*
X-475514Y-81789D02*
X-475514Y-67289D01*
X-468848Y-67289D01*
X-468848Y-81789D01*
X-475514Y-81789D01*
G37*
G36*
X-472181Y-78456D02*
X-457681Y-78456D01*
X-457681Y-85122D01*
X-472181Y-85122D01*
X-472181Y-78456D01*
G37*
G36*
X-468848Y-81789D02*
X-468848Y-96289D01*
X-475514Y-96289D01*
X-475514Y-81789D01*
X-468848Y-81789D01*
G37*
G36*
X-472181Y-85122D02*
X-486681Y-85122D01*
X-486681Y-78456D01*
X-472181Y-78456D01*
X-472181Y-85122D01*
G37*
G54D23*
G36*
X-475514Y-30989D02*
X-475514Y-16489D01*
X-468848Y-16489D01*
X-468848Y-30989D01*
X-475514Y-30989D01*
G37*
G36*
X-472181Y-27656D02*
X-457681Y-27656D01*
X-457681Y-34322D01*
X-472181Y-34322D01*
X-472181Y-27656D01*
G37*
G36*
X-468848Y-30989D02*
X-468848Y-45489D01*
X-475514Y-45489D01*
X-475514Y-30989D01*
X-468848Y-30989D01*
G37*
G36*
X-472181Y-34322D02*
X-486681Y-34322D01*
X-486681Y-27656D01*
X-472181Y-27656D01*
X-472181Y-34322D01*
G37*
G54D23*
G36*
X-132434Y-132477D02*
X-132434Y-117977D01*
X-125768Y-117977D01*
X-125768Y-132477D01*
X-132434Y-132477D01*
G37*
G36*
X-129101Y-129144D02*
X-114601Y-129144D01*
X-114601Y-135810D01*
X-129101Y-135810D01*
X-129101Y-129144D01*
G37*
G36*
X-125768Y-132477D02*
X-125768Y-146977D01*
X-132434Y-146977D01*
X-132434Y-132477D01*
X-125768Y-132477D01*
G37*
G36*
X-129101Y-135810D02*
X-143601Y-135810D01*
X-143601Y-129144D01*
X-129101Y-129144D01*
X-129101Y-135810D01*
G37*
G54D23*
G36*
X139567Y122150D02*
X139567Y136650D01*
X146233Y136650D01*
X146233Y122150D01*
X139567Y122150D01*
G37*
G36*
X142900Y125483D02*
X157400Y125483D01*
X157400Y118817D01*
X142900Y118817D01*
X142900Y125483D01*
G37*
G36*
X146233Y122150D02*
X146233Y107650D01*
X139567Y107650D01*
X139567Y122150D01*
X146233Y122150D01*
G37*
G36*
X142900Y118817D02*
X128400Y118817D01*
X128400Y125483D01*
X142900Y125483D01*
X142900Y118817D01*
G37*
G54D23*
G36*
X-206558Y-46175D02*
X-206558Y-31675D01*
X-199892Y-31675D01*
X-199892Y-46175D01*
X-206558Y-46175D01*
G37*
G36*
X-203225Y-42842D02*
X-188725Y-42842D01*
X-188725Y-49508D01*
X-203225Y-49508D01*
X-203225Y-42842D01*
G37*
G36*
X-199892Y-46175D02*
X-199892Y-60675D01*
X-206558Y-60675D01*
X-206558Y-46175D01*
X-199892Y-46175D01*
G37*
G36*
X-203225Y-49508D02*
X-217725Y-49508D01*
X-217725Y-42842D01*
X-203225Y-42842D01*
X-203225Y-49508D01*
G37*
G54D22*
G36*
X-257692Y-46175D02*
X-257692Y-30675D01*
X-250358Y-30675D01*
X-250358Y-46175D01*
X-257692Y-46175D01*
G37*
G36*
X-254025Y-42508D02*
X-238525Y-42508D01*
X-238525Y-49842D01*
X-254025Y-49842D01*
X-254025Y-42508D01*
G37*
G36*
X-250358Y-46175D02*
X-250358Y-61675D01*
X-257692Y-61675D01*
X-257692Y-46175D01*
X-250358Y-46175D01*
G37*
G36*
X-254025Y-49842D02*
X-269525Y-49842D01*
X-269525Y-42508D01*
X-254025Y-42508D01*
X-254025Y-49842D01*
G37*
G54D22*
G36*
X-251333Y-85239D02*
X-251333Y-69739D01*
X-243999Y-69739D01*
X-243999Y-85239D01*
X-251333Y-85239D01*
G37*
G36*
X-247666Y-81573D02*
X-232166Y-81573D01*
X-232166Y-88906D01*
X-247666Y-88906D01*
X-247666Y-81573D01*
G37*
G36*
X-243999Y-85239D02*
X-243999Y-100739D01*
X-251333Y-100739D01*
X-251333Y-85239D01*
X-243999Y-85239D01*
G37*
G36*
X-247666Y-88906D02*
X-263166Y-88906D01*
X-263166Y-81573D01*
X-247666Y-81573D01*
X-247666Y-88906D01*
G37*
G54D22*
G36*
X-152169Y-79240D02*
X-152169Y-63740D01*
X-144836Y-63740D01*
X-144836Y-79240D01*
X-152169Y-79240D01*
G37*
G36*
X-148502Y-75574D02*
X-133002Y-75574D01*
X-133002Y-82907D01*
X-148502Y-82907D01*
X-148502Y-75574D01*
G37*
G36*
X-144836Y-79240D02*
X-144836Y-94740D01*
X-152169Y-94740D01*
X-152169Y-79240D01*
X-144836Y-79240D01*
G37*
G36*
X-148502Y-82907D02*
X-164002Y-82907D01*
X-164002Y-75574D01*
X-148502Y-75574D01*
X-148502Y-82907D01*
G37*
G54D22*
G36*
X-88669Y-79240D02*
X-88669Y-63740D01*
X-81336Y-63740D01*
X-81336Y-79240D01*
X-88669Y-79240D01*
G37*
G36*
X-85002Y-75574D02*
X-69502Y-75574D01*
X-69502Y-82907D01*
X-85002Y-82907D01*
X-85002Y-75574D01*
G37*
G36*
X-81336Y-79240D02*
X-81336Y-94740D01*
X-88669Y-94740D01*
X-88669Y-79240D01*
X-81336Y-79240D01*
G37*
G36*
X-85002Y-82907D02*
X-100502Y-82907D01*
X-100502Y-75574D01*
X-85002Y-75574D01*
X-85002Y-82907D01*
G37*
G54D23*
G36*
X-266833Y-182650D02*
X-266833Y-168150D01*
X-260167Y-168150D01*
X-260167Y-182650D01*
X-266833Y-182650D01*
G37*
G36*
X-263500Y-179317D02*
X-249000Y-179317D01*
X-249000Y-185983D01*
X-263500Y-185983D01*
X-263500Y-179317D01*
G37*
G36*
X-260167Y-182650D02*
X-260167Y-197150D01*
X-266833Y-197150D01*
X-266833Y-182650D01*
X-260167Y-182650D01*
G37*
G36*
X-263500Y-185983D02*
X-278000Y-185983D01*
X-278000Y-179317D01*
X-263500Y-179317D01*
X-263500Y-185983D01*
G37*
G54D22*
G36*
X-475848Y-30989D02*
X-475848Y-15489D01*
X-468515Y-15489D01*
X-468515Y-30989D01*
X-475848Y-30989D01*
G37*
G36*
X-472181Y-27322D02*
X-456681Y-27322D01*
X-456681Y-34656D01*
X-472181Y-34656D01*
X-472181Y-27322D01*
G37*
G36*
X-468515Y-30989D02*
X-468515Y-46489D01*
X-475848Y-46489D01*
X-475848Y-30989D01*
X-468515Y-30989D01*
G37*
G36*
X-472181Y-34656D02*
X-487681Y-34656D01*
X-487681Y-27322D01*
X-472181Y-27322D01*
X-472181Y-34656D01*
G37*
G54D22*
G36*
X-475848Y-81789D02*
X-475848Y-66289D01*
X-468515Y-66289D01*
X-468515Y-81789D01*
X-475848Y-81789D01*
G37*
G36*
X-472181Y-78122D02*
X-456681Y-78122D01*
X-456681Y-85456D01*
X-472181Y-85456D01*
X-472181Y-78122D01*
G37*
G36*
X-468515Y-81789D02*
X-468515Y-97289D01*
X-475848Y-97289D01*
X-475848Y-81789D01*
X-468515Y-81789D01*
G37*
G36*
X-472181Y-85456D02*
X-487681Y-85456D01*
X-487681Y-78122D01*
X-472181Y-78122D01*
X-472181Y-85456D01*
G37*
G54D22*
G36*
X-470455Y-153950D02*
X-470455Y-138450D01*
X-463121Y-138450D01*
X-463121Y-153950D01*
X-470455Y-153950D01*
G37*
G36*
X-466788Y-150283D02*
X-451288Y-150283D01*
X-451288Y-157617D01*
X-466788Y-157617D01*
X-466788Y-150283D01*
G37*
G36*
X-463121Y-153950D02*
X-463121Y-169450D01*
X-470455Y-169450D01*
X-470455Y-153950D01*
X-463121Y-153950D01*
G37*
G36*
X-466788Y-157617D02*
X-482288Y-157617D01*
X-482288Y-150283D01*
X-466788Y-150283D01*
X-466788Y-157617D01*
G37*
G54D22*
G36*
X-132768Y-132477D02*
X-132768Y-116977D01*
X-125434Y-116977D01*
X-125434Y-132477D01*
X-132768Y-132477D01*
G37*
G36*
X-129101Y-128810D02*
X-113601Y-128810D01*
X-113601Y-136144D01*
X-129101Y-136144D01*
X-129101Y-128810D01*
G37*
G36*
X-125434Y-132477D02*
X-125434Y-147977D01*
X-132768Y-147977D01*
X-132768Y-132477D01*
X-125434Y-132477D01*
G37*
G36*
X-129101Y-136144D02*
X-144601Y-136144D01*
X-144601Y-128810D01*
X-129101Y-128810D01*
X-129101Y-136144D01*
G37*
G54D22*
G36*
X-206892Y-46175D02*
X-206892Y-30675D01*
X-199558Y-30675D01*
X-199558Y-46175D01*
X-206892Y-46175D01*
G37*
G36*
X-203225Y-42508D02*
X-187725Y-42508D01*
X-187725Y-49842D01*
X-203225Y-49842D01*
X-203225Y-42508D01*
G37*
G36*
X-199558Y-46175D02*
X-199558Y-61675D01*
X-206892Y-61675D01*
X-206892Y-46175D01*
X-199558Y-46175D01*
G37*
G36*
X-203225Y-49842D02*
X-218725Y-49842D01*
X-218725Y-42508D01*
X-203225Y-42508D01*
X-203225Y-49842D01*
G37*
G54D22*
G36*
X241531Y123960D02*
X241531Y139460D01*
X248864Y139460D01*
X248864Y123960D01*
X241531Y123960D01*
G37*
G36*
X245198Y127626D02*
X260698Y127626D01*
X260698Y120293D01*
X245198Y120293D01*
X245198Y127626D01*
G37*
G36*
X248864Y123960D02*
X248864Y108460D01*
X241531Y108460D01*
X241531Y123960D01*
X248864Y123960D01*
G37*
G36*
X245198Y120293D02*
X229698Y120293D01*
X229698Y127626D01*
X245198Y127626D01*
X245198Y120293D01*
G37*
G54D23*
G36*
X31972Y37321D02*
X31972Y51821D01*
X38639Y51821D01*
X38639Y37321D01*
X31972Y37321D01*
G37*
G36*
X35305Y40654D02*
X49805Y40654D01*
X49805Y33988D01*
X35305Y33988D01*
X35305Y40654D01*
G37*
G36*
X38639Y37321D02*
X38639Y22821D01*
X31972Y22821D01*
X31972Y37321D01*
X38639Y37321D01*
G37*
G36*
X35305Y33988D02*
X20805Y33988D01*
X20805Y40654D01*
X35305Y40654D01*
X35305Y33988D01*
G37*
G54D26*
G36*
X-542177Y201448D02*
X-542177Y220948D01*
X-532177Y220948D01*
X-532177Y201448D01*
X-542177Y201448D01*
G37*
G36*
X-537177Y206448D02*
X-517677Y206448D01*
X-517677Y196448D01*
X-537177Y196448D01*
X-537177Y206448D01*
G37*
G36*
X-532177Y201448D02*
X-532177Y181948D01*
X-542177Y181948D01*
X-542177Y201448D01*
X-532177Y201448D01*
G37*
G36*
X-537177Y196448D02*
X-556677Y196448D01*
X-556677Y206448D01*
X-537177Y206448D01*
X-537177Y196448D01*
G37*
G54D26*
G36*
X296023Y201448D02*
X296023Y220948D01*
X306023Y220948D01*
X306023Y201448D01*
X296023Y201448D01*
G37*
G36*
X301023Y206448D02*
X320523Y206448D01*
X320523Y196448D01*
X301023Y196448D01*
X301023Y206448D01*
G37*
G36*
X306023Y201448D02*
X306023Y181948D01*
X296023Y181948D01*
X296023Y201448D01*
X306023Y201448D01*
G37*
G36*
X301023Y196448D02*
X281523Y196448D01*
X281523Y206448D01*
X301023Y206448D01*
X301023Y196448D01*
G37*
G54D26*
G36*
X-542177Y-243052D02*
X-542177Y-223552D01*
X-532177Y-223552D01*
X-532177Y-243052D01*
X-542177Y-243052D01*
G37*
G36*
X-537177Y-238052D02*
X-517677Y-238052D01*
X-517677Y-248052D01*
X-537177Y-248052D01*
X-537177Y-238052D01*
G37*
G36*
X-532177Y-243052D02*
X-532177Y-262552D01*
X-542177Y-262552D01*
X-542177Y-243052D01*
X-532177Y-243052D01*
G37*
G36*
X-537177Y-248052D02*
X-556677Y-248052D01*
X-556677Y-238052D01*
X-537177Y-238052D01*
X-537177Y-248052D01*
G37*
G54D26*
G36*
X296023Y-243052D02*
X296023Y-223552D01*
X306023Y-223552D01*
X306023Y-243052D01*
X296023Y-243052D01*
G37*
G36*
X301023Y-238052D02*
X320523Y-238052D01*
X320523Y-248052D01*
X301023Y-248052D01*
X301023Y-238052D01*
G37*
G36*
X306023Y-243052D02*
X306023Y-262552D01*
X296023Y-262552D01*
X296023Y-243052D01*
X306023Y-243052D01*
G37*
G36*
X301023Y-248052D02*
X281523Y-248052D01*
X281523Y-238052D01*
X301023Y-238052D01*
X301023Y-248052D01*
G37*
G54D26*
G36*
X-386000Y-234950D02*
X-386000Y-215450D01*
X-376000Y-215450D01*
X-376000Y-234950D01*
X-386000Y-234950D01*
G37*
G36*
X-381000Y-229950D02*
X-361500Y-229950D01*
X-361500Y-239950D01*
X-381000Y-239950D01*
X-381000Y-229950D01*
G37*
G36*
X-376000Y-234950D02*
X-376000Y-254450D01*
X-386000Y-254450D01*
X-386000Y-234950D01*
X-376000Y-234950D01*
G37*
G36*
X-381000Y-239950D02*
X-400500Y-239950D01*
X-400500Y-229950D01*
X-381000Y-229950D01*
X-381000Y-239950D01*
G37*
G54D26*
G36*
X109300Y-234950D02*
X109300Y-215450D01*
X119300Y-215450D01*
X119300Y-234950D01*
X109300Y-234950D01*
G37*
G36*
X114300Y-229950D02*
X133800Y-229950D01*
X133800Y-239950D01*
X114300Y-239950D01*
X114300Y-229950D01*
G37*
G36*
X119300Y-234950D02*
X119300Y-254450D01*
X109300Y-254450D01*
X109300Y-234950D01*
X119300Y-234950D01*
G37*
G36*
X114300Y-239950D02*
X94800Y-239950D01*
X94800Y-229950D01*
X114300Y-229950D01*
X114300Y-239950D01*
G37*
G54D26*
G36*
X71200Y203200D02*
X71200Y222700D01*
X81200Y222700D01*
X81200Y203200D01*
X71200Y203200D01*
G37*
G36*
X76200Y208200D02*
X95700Y208200D01*
X95700Y198200D01*
X76200Y198200D01*
X76200Y208200D01*
G37*
G36*
X81200Y203200D02*
X81200Y183700D01*
X71200Y183700D01*
X71200Y203200D01*
X81200Y203200D01*
G37*
G36*
X76200Y198200D02*
X56700Y198200D01*
X56700Y208200D01*
X76200Y208200D01*
X76200Y198200D01*
G37*
G54D23*
G36*
X-487358Y188225D02*
X-487358Y204725D01*
X-480692Y204725D01*
X-480692Y188225D01*
X-487358Y188225D01*
G37*
G54D24*
X-301600Y100050D02*
G54D27*
D03*
X-276200Y100050D02*
G54D27*
D03*
X-250800Y100050D02*
G54D27*
D03*
X86105Y37321D02*
G54D27*
D03*
X60705Y37321D02*
G54D27*
D03*
X35305Y37321D02*
G54D27*
D03*
X-345001Y32623D02*
G54D28*
D03*
X-395981Y32511D02*
G54D28*
D03*
X-304775Y30075D02*
G54D28*
D03*
X-304825Y-46175D02*
G54D28*
D03*
X-495300Y71450D02*
G54D29*
D03*
X-444500Y71450D02*
G54D29*
D03*
X-469900Y46050D02*
G54D29*
D03*
X-444500Y20650D02*
G54D29*
D03*
X-495300Y20650D02*
G54D29*
D03*
X-393675Y182475D02*
G54D28*
D03*
X-393725Y106225D02*
G54D28*
D03*
X-253975Y30075D02*
G54D28*
D03*
X-254025Y-46175D02*
G54D28*
D03*
X-268801Y172323D02*
G54D28*
D03*
X-319781Y172211D02*
G54D28*
D03*
X-203175Y30075D02*
G54D30*
D03*
X-203225Y-46175D02*
G54D30*
D03*
X-247666Y-85239D02*
G54D28*
D03*
X-196685Y-85127D02*
G54D28*
D03*
X-302177Y-78002D02*
G54D28*
D03*
X-378427Y-77952D02*
G54D28*
D03*
X-421201Y-30877D02*
G54D28*
D03*
X-472181Y-30989D02*
G54D28*
D03*
X-421201Y-81677D02*
G54D28*
D03*
X-472181Y-81789D02*
G54D28*
D03*
X-466788Y-153950D02*
G54D28*
D03*
X-431688Y-153950D02*
G54D28*
D03*
X-302177Y-141502D02*
G54D28*
D03*
X-378427Y-141452D02*
G54D28*
D03*
X-263500Y-182650D02*
G54D30*
D03*
X-263500Y-131850D02*
G54D30*
D03*
X-129101Y-132477D02*
G54D28*
D03*
X-180081Y-132589D02*
G54D28*
D03*
X-137077Y175998D02*
G54D28*
D03*
X-213327Y176048D02*
G54D28*
D03*
X66700Y122150D02*
G54D28*
D03*
X142900Y122150D02*
G54D28*
D03*
X251899Y-43576D02*
G54D28*
D03*
X200918Y-43689D02*
G54D28*
D03*
X-149200Y122150D02*
G54D28*
D03*
X-149200Y33250D02*
G54D28*
D03*
X-34900Y122150D02*
G54D28*
D03*
X-34900Y33250D02*
G54D28*
D03*
X-148502Y-79240D02*
G54D28*
D03*
X-148615Y-28260D02*
G54D28*
D03*
X176375Y175525D02*
G54D28*
D03*
X201875Y175525D02*
G54D28*
D03*
X245198Y123960D02*
G54D28*
D03*
X245085Y174940D02*
G54D28*
D03*
X168300Y-93750D02*
G54D28*
D03*
X257200Y-93750D02*
G54D28*
D03*
X168300Y-182650D02*
G54D28*
D03*
X257200Y-182650D02*
G54D28*
D03*
X-27500Y172323D02*
G54D28*
D03*
X-78480Y172210D02*
G54D28*
D03*
X190500Y71450D02*
G54D29*
D03*
X241300Y71450D02*
G54D29*
D03*
X215900Y46050D02*
G54D29*
D03*
X241300Y20650D02*
G54D29*
D03*
X190500Y20650D02*
G54D29*
D03*
X-34900Y-17550D02*
G54D28*
D03*
X-34900Y-119150D02*
G54D28*
D03*
X-85002Y-79240D02*
G54D28*
D03*
X-85115Y-28260D02*
G54D28*
D03*
G54D31*
X257200Y-182650D02*
X168300Y-93750D01*
G54D31*
X201875Y175525D02*
X200050Y172950D01*
X181000Y153900D01*
X168300Y153900D01*
X155600Y166600D01*
X60350Y166600D01*
X-136500Y-30250D01*
X-149200Y-30250D01*
X-148615Y-28260D01*
X-101600Y82550D02*
G54D32*
D03*
X-472181Y-81789D02*
G54D33*
D03*
X-472181Y-30989D02*
G54D33*
D03*
X-129101Y-132477D02*
G54D33*
D03*
X142900Y122150D02*
G54D33*
D03*
X-203225Y-46175D02*
G54D33*
D03*
X-254025Y-46175D02*
G54D34*
D03*
X-247666Y-85239D02*
G54D34*
D03*
X-148502Y-79240D02*
G54D34*
D03*
X-85002Y-79240D02*
G54D34*
D03*
X-263500Y-182650D02*
G54D33*
D03*
X-472181Y-30989D02*
G54D34*
D03*
X-472181Y-81789D02*
G54D34*
D03*
X-466788Y-153950D02*
G54D34*
D03*
X-129101Y-132477D02*
G54D34*
D03*
X-203225Y-46175D02*
G54D34*
D03*
X245198Y123960D02*
G54D34*
D03*
X35305Y37321D02*
G54D33*
D03*
X-253975Y30075D02*
G54D30*
D03*
X-254025Y-46175D02*
G54D30*
D03*
G36*
X-552177Y216448D02*
X-522177Y216448D01*
X-522177Y186448D01*
X-552177Y186448D01*
X-552177Y216448D01*
G37*
G36*
X286023Y216448D02*
X316023Y216448D01*
X316023Y186448D01*
X286023Y186448D01*
X286023Y216448D01*
G37*
G36*
X-552177Y-228052D02*
X-522177Y-228052D01*
X-522177Y-258052D01*
X-552177Y-258052D01*
X-552177Y-228052D01*
G37*
G36*
X286023Y-228052D02*
X316023Y-228052D01*
X316023Y-258052D01*
X286023Y-258052D01*
X286023Y-228052D01*
G37*
X-381000Y-234950D02*
G54D35*
D03*
X114300Y-234950D02*
G54D35*
D03*
X76200Y203200D02*
G54D35*
D03*
X-484025Y188225D02*
G54D28*
D03*
X-458525Y188225D02*
G54D28*
D03*
G54D36*
X-458525Y188225D02*
X-460350Y187300D01*
X-422250Y149200D01*
X-422250Y15850D01*
X-441300Y-3200D01*
X-441300Y-34950D01*
X-422250Y-54000D01*
X-422250Y-79400D01*
X-421201Y-81677D01*
M02*
