; Drill file
; Format: 2.4 (00.0000)
M48
INCH
T01C0.0283
T02C0.0354
T03C0.0394
T04C0.1299
%
G05
G90
T01
X-030750Y-044120
X-030750Y-036120
X-030750Y-028120
X-030750Y-020120
X-031000Y-012000
X-038500Y-011620
X-038500Y-015620
X-030750Y-004120
X003750Y-004120
X003750Y-012120
X003750Y-020120
X003750Y-028120
X003750Y-036120
X003750Y-044120
T02
X-032540Y-045440
X-027880Y-051560
X-021880Y-051560
X-020750Y-047370
X-020750Y-046120
X-020750Y-044620
X-018000Y-044620
X-018000Y-046120
X-018000Y-047370
X-015360Y-048020
X-015360Y-046010
X-014970Y-044280
X-012960Y-044270
X-012860Y-046010
X-012860Y-048020
X-010750Y-047370
X-010750Y-046120
X-010750Y-044620
X-008000Y-044620
X-008000Y-046120
X-008000Y-047370
X-006380Y-051560
X000120Y-051560
X001960Y-045440
X001960Y-037440
X008500Y-039370
X008500Y-040370
X011500Y-040370
X011500Y-039370
X011500Y-033370
X011500Y-032370
X008500Y-032370
X008500Y-033370
X008500Y-026370
X008500Y-025370
X011500Y-025370
X011500Y-026370
X012250Y-016870
X012250Y-015870
X009250Y-015870
X009250Y-016870
X009250Y-011370
X009250Y-010370
X012250Y-010370
X012250Y-011370
X012250Y-005370
X012250Y-004370
X009250Y-004370
X009250Y-005370
X007570Y-001150
X006570Y-001150
X000760Y-001140
X-000250Y-001140
X-000380Y001940
X-006880Y001940
X-006930Y-001150
X-007930Y-001150
X-008000Y-004620
X-008000Y-006120
X-008000Y-007370
X-010750Y-007370
X-010750Y-006120
X-010750Y-004620
X-012960Y-004270
X-012860Y-006010
X-012860Y-008020
X-015360Y-008020
X-015360Y-006010
X-014970Y-004280
X-018000Y-004620
X-018000Y-006120
X-018000Y-007370
X-020750Y-007370
X-020750Y-006120
X-020750Y-004620
X-022430Y-001150
X-023430Y-001150
X-022380Y001940
X-028380Y001940
X-029930Y-001150
X-030930Y-001150
X-032540Y-005440
X-036430Y-000150
X-037430Y-000150
X-039880Y-004560
X-036110Y-012510
X-032500Y-013500
X-032540Y-021440
X-032540Y-029440
X-032540Y-037440
X-039880Y-039560
X-020750Y-039370
X-020750Y-038120
X-020750Y-036620
X-018000Y-036620
X-018000Y-038120
X-018000Y-039370
X-015360Y-040020
X-015360Y-038010
X-014970Y-036280
X-012960Y-036270
X-012860Y-038010
X-012860Y-040020
X-010750Y-039370
X-010750Y-038120
X-010750Y-036620
X-008000Y-036620
X-008000Y-038120
X-008000Y-039370
X-008000Y-031370
X-008000Y-030120
X-008000Y-028620
X-010750Y-028620
X-010750Y-030120
X-010750Y-031370
X-012860Y-032020
X-012860Y-030010
X-012960Y-028270
X-014970Y-028280
X-015360Y-030010
X-015360Y-032020
X-018000Y-031370
X-018000Y-030120
X-018000Y-028620
X-020750Y-028620
X-020750Y-030120
X-020750Y-031370
X-020750Y-023370
X-020750Y-022120
X-020750Y-020620
X-018000Y-020620
X-018000Y-022120
X-018000Y-023370
X-015360Y-024020
X-015360Y-022010
X-014970Y-020280
X-012960Y-020270
X-012860Y-022010
X-012860Y-024020
X-010750Y-023370
X-010750Y-022120
X-010750Y-020620
X-008000Y-020620
X-008000Y-022120
X-008000Y-023370
X-008000Y-015370
X-008000Y-014120
X-008000Y-012620
X-010750Y-012620
X-010750Y-014120
X-010750Y-015370
X-012860Y-016020
X-012860Y-014010
X-012960Y-012270
X-014970Y-012280
X-015360Y-014010
X-015360Y-016020
X-018000Y-015370
X-018000Y-014120
X-018000Y-012620
X-020750Y-012620
X-020750Y-014120
X-020750Y-015370
X-016430Y-001150
X-015430Y-001150
X-013880Y001940
X001960Y-005440
X001960Y-013440
X001960Y-021440
X001960Y-029440
X-013380Y-051560
T03
X-032540Y-047450
X-030750Y-048120
X-028000Y-048750
X-028440Y-046500
X-028000Y-044120
X-028000Y-040750
X-028440Y-038500
X-028000Y-036120
X-028000Y-032750
X-028440Y-030500
X-028000Y-028120
X-028000Y-024750
X-028440Y-022500
X-028000Y-020120
X-028000Y-016750
X-028440Y-014500
X-028000Y-012120
X-028000Y-008750
X-028440Y-006500
X-028000Y-004120
X-023250Y-004120
X-023250Y-008870
X-023250Y-012120
X-023250Y-016870
X-023250Y-020120
X-023250Y-024870
X-023250Y-028120
X-023250Y-032870
X-023250Y-036120
X-023250Y-040870
X-023250Y-044120
X-023250Y-048870
X-030750Y-040120
X-032540Y-039450
X-036380Y-034250
X-037380Y-033250
X-036380Y-032250
X-038380Y-032250
X-038380Y-034250
X-039820Y-028090
X-035070Y-028090
X-032540Y-031450
X-030750Y-032120
X-030750Y-024120
X-032540Y-023450
X-035070Y-023340
X-037440Y-022910
X-039690Y-023340
X-038380Y-019750
X-037380Y-018750
X-038380Y-017750
X-036380Y-017750
X-036380Y-019750
X-036110Y-014520
X-034510Y-013500
X-035000Y-012000
X-032540Y-007450
X-030750Y-008120
X-005410Y-008640
X-005410Y-011890
X-005410Y-016640
X-005410Y-019890
X-005410Y-024640
X-005410Y-027890
X-005410Y-032640
X-005410Y-035890
X-005410Y-040640
X-005410Y-043890
X-005410Y-048640
X-000660Y-048640
X-000220Y-046270
X-000660Y-044020
X-000660Y-040640
X-000220Y-038270
X-000660Y-036020
X-000660Y-032640
X-000220Y-030270
X-000660Y-028020
X-000660Y-024640
X-000220Y-022270
X-000660Y-020020
X-000660Y-016640
X-000220Y-014270
X-000660Y-012020
X-000660Y-008640
X-000220Y-006270
X-000660Y-004020
X001960Y-007450
X003750Y-008120
X009250Y-008370
X012250Y-008370
X012250Y-014370
X009250Y-014370
X009250Y-019870
X012250Y-019870
X011500Y-028370
X008500Y-028370
X003750Y-032120
X001960Y-031450
X003750Y-024120
X001960Y-023450
X003750Y-016120
X001960Y-015450
X-005410Y-003890
X008500Y-035370
X011500Y-035370
X011500Y-042370
X008500Y-042370
X003750Y-040120
X001960Y-039450
X001960Y-047450
X003750Y-048120
T04
X-039250Y-050750
X011250Y-050750
X010750Y001250
X-039750Y001250
M30
