%FSLAX34Y34*%
%MOMM*%
%LNCOPPER_BOTTOM*%
G71*
G01*
%ADD10C,3.200*%
%ADD11C,2.800*%
%ADD12C,2.700*%
%ADD13C,1.600*%
%ADD14C,3.000*%
%ADD15C,2.800*%
%ADD16C,2.800*%
%ADD17C,3.000*%
%ADD18C,3.000*%
%ADD19C,3.600*%
%ADD20C,1.400*%
%ADD21C,1.700*%
%ADD22C,0.667*%
%ADD23C,1.607*%
%ADD24C,1.447*%
%ADD25C,1.340*%
%ADD26C,0.813*%
%ADD27C,1.193*%
%ADD28C,0.733*%
%ADD29C,0.933*%
%ADD30C,2.000*%
%ADD31C,1.900*%
%ADD32C,0.800*%
%ADD33C,2.200*%
%ADD34C,2.000*%
%ADD35C,2.000*%
%ADD36C,4.300*%
%ADD37C,0.144*%
%ADD38C,2.200*%
%ADD39C,2.200*%
%ADD40C,2.800*%
%ADD41C,0.600*%
%ADD42C,0.900*%
%LPD*%
G36*
X-1047750Y69850D02*
X352250Y69850D01*
X352250Y-1330150D01*
X-1047750Y-1330150D01*
X-1047750Y69850D01*
G37*
%LPC*%
X-785675Y-29175D02*
G54D10*
D03*
X-760175Y-29175D02*
G54D10*
D03*
X-595175Y-29175D02*
G54D10*
D03*
X-569675Y-29175D02*
G54D10*
D03*
X-273050Y-117350D02*
G54D11*
D03*
X-203200Y-117350D02*
G54D11*
D03*
X-273050Y-187200D02*
G54D11*
D03*
X-203200Y-187200D02*
G54D11*
D03*
X-203200Y-155450D02*
G54D11*
D03*
X-273050Y-155450D02*
G54D11*
D03*
X-329159Y-108579D02*
G54D10*
D03*
X-380140Y-108691D02*
G54D10*
D03*
X-527050Y-117350D02*
G54D11*
D03*
X-457200Y-117350D02*
G54D11*
D03*
X-527050Y-187200D02*
G54D11*
D03*
X-457200Y-187200D02*
G54D11*
D03*
X-457200Y-155450D02*
G54D11*
D03*
X-527050Y-155450D02*
G54D11*
D03*
X-390223Y-152677D02*
G54D10*
D03*
X-390110Y-203658D02*
G54D10*
D03*
X-326723Y-152677D02*
G54D10*
D03*
X-326610Y-203658D02*
G54D10*
D03*
X-781050Y-206250D02*
G54D12*
D03*
X-781050Y-104650D02*
G54D12*
D03*
G54D13*
X-457200Y-117350D02*
X-450850Y-111000D01*
X-381000Y-111000D01*
X-380140Y-108691D01*
G54D13*
X-390223Y-152677D02*
X-387350Y-155450D01*
X-381000Y-149100D01*
X-381000Y-111000D01*
X-380140Y-108691D01*
G54D13*
X-326723Y-152677D02*
X-323850Y-155450D01*
X-330200Y-149100D01*
X-330200Y-111000D01*
X-329159Y-108579D01*
G54D13*
X-329159Y-108579D02*
X-330200Y-111000D01*
X-323850Y-117350D01*
X-273050Y-117350D01*
X-417375Y-29175D02*
G54D10*
D03*
X-391875Y-29175D02*
G54D10*
D03*
X-201475Y-29175D02*
G54D10*
D03*
X-175975Y-29175D02*
G54D10*
D03*
X-6283Y-29067D02*
G54D10*
D03*
X19217Y-29067D02*
G54D10*
D03*
X-974750Y-450750D02*
G54D14*
D03*
X-923950Y-450750D02*
G54D14*
D03*
X-949350Y-476150D02*
G54D14*
D03*
X-923950Y-501550D02*
G54D14*
D03*
X-974750Y-501550D02*
G54D14*
D03*
X-974750Y-819050D02*
G54D14*
D03*
X-923950Y-819050D02*
G54D14*
D03*
X-949350Y-844450D02*
G54D14*
D03*
X-923950Y-869850D02*
G54D14*
D03*
X-974750Y-869850D02*
G54D14*
D03*
X-527050Y-187200D02*
G54D15*
D03*
X-457200Y-187200D02*
G54D15*
D03*
X-390111Y-203658D02*
G54D15*
D03*
X-326610Y-203658D02*
G54D15*
D03*
X-273050Y-187200D02*
G54D15*
D03*
X-203200Y-187200D02*
G54D15*
D03*
X-974750Y-450750D02*
G54D15*
D03*
X-923950Y-450750D02*
G54D15*
D03*
X-974750Y-501550D02*
G54D15*
D03*
X-923950Y-501550D02*
G54D15*
D03*
X-974750Y-819050D02*
G54D16*
D03*
X-923950Y-819050D02*
G54D15*
D03*
X-974750Y-869850D02*
G54D15*
D03*
X-923950Y-869850D02*
G54D15*
D03*
X-977900Y-396750D02*
G54D12*
D03*
X-977900Y-295150D02*
G54D12*
D03*
X-917273Y-317777D02*
G54D10*
D03*
X-917160Y-368758D02*
G54D10*
D03*
X-950775Y-3775D02*
G54D10*
D03*
X-925275Y-3775D02*
G54D10*
D03*
X-977900Y-396750D02*
G54D15*
D03*
G36*
X-734750Y63350D02*
X-706750Y63350D01*
X-706750Y35350D01*
X-734750Y35350D01*
X-734750Y63350D01*
G37*
G36*
X-582350Y63350D02*
X-554350Y63350D01*
X-554350Y35350D01*
X-582350Y35350D01*
X-582350Y63350D01*
G37*
G36*
X-366450Y63350D02*
X-338450Y63350D01*
X-338450Y35350D01*
X-366450Y35350D01*
X-366450Y63350D01*
G37*
G36*
X-188650Y63350D02*
X-160650Y63350D01*
X-160650Y35350D01*
X-188650Y35350D01*
X-188650Y63350D01*
G37*
G36*
X-23550Y63350D02*
X4450Y63350D01*
X4450Y35350D01*
X-23550Y35350D01*
X-23550Y63350D01*
G37*
X166825Y-29175D02*
G54D10*
D03*
X192325Y-29175D02*
G54D10*
D03*
G36*
X-998850Y-101750D02*
X-998850Y-129750D01*
X-1026850Y-129750D01*
X-1026850Y-101750D01*
X-998850Y-101750D01*
G37*
G36*
X-998850Y-990750D02*
X-998850Y-1018750D01*
X-1026850Y-1018750D01*
X-1026850Y-990750D01*
X-998850Y-990750D01*
G37*
X-590550Y-225300D02*
G54D14*
D03*
X-711200Y-222126D02*
G54D14*
D03*
X-590550Y-104650D02*
G54D14*
D03*
X-711200Y-104650D02*
G54D14*
D03*
X-722312Y-164975D02*
G54D14*
D03*
X-826624Y-138205D02*
G54D10*
D03*
X-826512Y-189185D02*
G54D10*
D03*
X-826512Y-189185D02*
G54D14*
D03*
X-137456Y-98912D02*
G54D14*
D03*
X-16806Y-102086D02*
G54D14*
D03*
X-137456Y-219562D02*
G54D14*
D03*
X-16806Y-219562D02*
G54D14*
D03*
X-5694Y-159237D02*
G54D14*
D03*
X95250Y-206250D02*
G54D12*
D03*
X95250Y-104650D02*
G54D12*
D03*
X49676Y-138205D02*
G54D10*
D03*
X49788Y-189185D02*
G54D10*
D03*
X49788Y-189185D02*
G54D14*
D03*
X-273050Y-320550D02*
G54D11*
D03*
X-203200Y-320550D02*
G54D11*
D03*
X-273050Y-390400D02*
G54D11*
D03*
X-203200Y-390400D02*
G54D11*
D03*
X-203200Y-358650D02*
G54D11*
D03*
X-273050Y-358650D02*
G54D11*
D03*
X-329159Y-311779D02*
G54D10*
D03*
X-380140Y-311891D02*
G54D10*
D03*
X-527050Y-320550D02*
G54D11*
D03*
X-457200Y-320550D02*
G54D11*
D03*
X-527050Y-390400D02*
G54D11*
D03*
X-457200Y-390400D02*
G54D11*
D03*
X-457200Y-358650D02*
G54D11*
D03*
X-527050Y-358650D02*
G54D11*
D03*
X-390223Y-355877D02*
G54D10*
D03*
X-390110Y-406858D02*
G54D10*
D03*
X-326723Y-355877D02*
G54D10*
D03*
X-326610Y-406858D02*
G54D10*
D03*
G54D13*
X-457200Y-320550D02*
X-450850Y-314200D01*
X-381000Y-314200D01*
X-380140Y-311891D01*
G54D13*
X-390223Y-355877D02*
X-387350Y-358650D01*
X-381000Y-352300D01*
X-381000Y-314200D01*
X-380140Y-311891D01*
G54D13*
X-326723Y-355877D02*
X-323850Y-358650D01*
X-330200Y-352300D01*
X-330200Y-314200D01*
X-329159Y-311779D01*
G54D13*
X-329159Y-311779D02*
X-330200Y-314200D01*
X-323850Y-320550D01*
X-273050Y-320550D01*
X-527050Y-390400D02*
G54D15*
D03*
X-457200Y-390400D02*
G54D15*
D03*
X-390111Y-406858D02*
G54D15*
D03*
X-326610Y-406858D02*
G54D15*
D03*
X-273050Y-390400D02*
G54D15*
D03*
X-203200Y-390400D02*
G54D15*
D03*
X-590550Y-428500D02*
G54D14*
D03*
X-711200Y-425326D02*
G54D14*
D03*
X-590550Y-307850D02*
G54D14*
D03*
X-711200Y-307850D02*
G54D14*
D03*
X-722312Y-368175D02*
G54D14*
D03*
X-825500Y-342900D02*
G54D10*
D03*
X-876480Y-343012D02*
G54D10*
D03*
X-137456Y-302112D02*
G54D14*
D03*
X-16806Y-305286D02*
G54D14*
D03*
X-137456Y-422762D02*
G54D14*
D03*
X-16806Y-422762D02*
G54D14*
D03*
X-5694Y-362437D02*
G54D14*
D03*
X95250Y-409450D02*
G54D12*
D03*
X95250Y-307850D02*
G54D12*
D03*
X49676Y-341405D02*
G54D10*
D03*
X49788Y-392385D02*
G54D10*
D03*
X49788Y-392385D02*
G54D14*
D03*
X-273050Y-523750D02*
G54D11*
D03*
X-203200Y-523750D02*
G54D11*
D03*
X-273050Y-593600D02*
G54D11*
D03*
X-203200Y-593600D02*
G54D11*
D03*
X-203200Y-561850D02*
G54D11*
D03*
X-273050Y-561850D02*
G54D11*
D03*
X-329159Y-514979D02*
G54D10*
D03*
X-380140Y-515091D02*
G54D10*
D03*
X-527050Y-523750D02*
G54D11*
D03*
X-457200Y-523750D02*
G54D11*
D03*
X-527050Y-593600D02*
G54D11*
D03*
X-457200Y-593600D02*
G54D11*
D03*
X-457200Y-561850D02*
G54D11*
D03*
X-527050Y-561850D02*
G54D11*
D03*
X-390223Y-559077D02*
G54D10*
D03*
X-390110Y-610058D02*
G54D10*
D03*
X-326723Y-559077D02*
G54D10*
D03*
X-326610Y-610058D02*
G54D10*
D03*
X-781050Y-612650D02*
G54D12*
D03*
X-781050Y-511050D02*
G54D12*
D03*
G54D13*
X-457200Y-523750D02*
X-450850Y-517400D01*
X-381000Y-517400D01*
X-380140Y-515091D01*
G54D13*
X-390223Y-559077D02*
X-387350Y-561850D01*
X-381000Y-555500D01*
X-381000Y-517400D01*
X-380140Y-515091D01*
G54D13*
X-326723Y-559077D02*
X-323850Y-561850D01*
X-330200Y-555500D01*
X-330200Y-517400D01*
X-329159Y-514979D01*
G54D13*
X-329159Y-514979D02*
X-330200Y-517400D01*
X-323850Y-523750D01*
X-273050Y-523750D01*
X-527050Y-593600D02*
G54D15*
D03*
X-457200Y-593600D02*
G54D15*
D03*
X-390111Y-610058D02*
G54D15*
D03*
X-326610Y-610058D02*
G54D15*
D03*
X-273050Y-593600D02*
G54D15*
D03*
X-203200Y-593600D02*
G54D15*
D03*
X-590550Y-631700D02*
G54D14*
D03*
X-711200Y-628526D02*
G54D14*
D03*
X-590550Y-511050D02*
G54D14*
D03*
X-711200Y-511050D02*
G54D14*
D03*
X-722312Y-571375D02*
G54D14*
D03*
X-826624Y-544605D02*
G54D10*
D03*
X-826512Y-595585D02*
G54D10*
D03*
X-826512Y-595585D02*
G54D14*
D03*
X-137456Y-505312D02*
G54D14*
D03*
X-16806Y-508486D02*
G54D14*
D03*
X-137456Y-625962D02*
G54D14*
D03*
X-16806Y-625962D02*
G54D14*
D03*
X-5694Y-565637D02*
G54D14*
D03*
X95250Y-612650D02*
G54D12*
D03*
X95250Y-511050D02*
G54D12*
D03*
X49676Y-544605D02*
G54D10*
D03*
X49788Y-595585D02*
G54D10*
D03*
X49788Y-595585D02*
G54D14*
D03*
X-273050Y-726950D02*
G54D11*
D03*
X-203200Y-726950D02*
G54D11*
D03*
X-273050Y-796800D02*
G54D11*
D03*
X-203200Y-796800D02*
G54D11*
D03*
X-203200Y-765050D02*
G54D11*
D03*
X-273050Y-765050D02*
G54D11*
D03*
X-329159Y-718179D02*
G54D10*
D03*
X-380140Y-718291D02*
G54D10*
D03*
X-527050Y-726950D02*
G54D11*
D03*
X-457200Y-726950D02*
G54D11*
D03*
X-527050Y-796800D02*
G54D11*
D03*
X-457200Y-796800D02*
G54D11*
D03*
X-457200Y-765050D02*
G54D11*
D03*
X-527050Y-765050D02*
G54D11*
D03*
X-390223Y-762277D02*
G54D10*
D03*
X-390110Y-813258D02*
G54D10*
D03*
X-326723Y-762277D02*
G54D10*
D03*
X-326610Y-813258D02*
G54D10*
D03*
X-781050Y-815850D02*
G54D12*
D03*
X-781050Y-714250D02*
G54D12*
D03*
G54D13*
X-457200Y-726950D02*
X-450850Y-720600D01*
X-381000Y-720600D01*
X-380140Y-718291D01*
G54D13*
X-390223Y-762277D02*
X-387350Y-765050D01*
X-381000Y-758700D01*
X-381000Y-720600D01*
X-380140Y-718291D01*
G54D13*
X-326723Y-762277D02*
X-323850Y-765050D01*
X-330200Y-758700D01*
X-330200Y-720600D01*
X-329159Y-718179D01*
G54D13*
X-329159Y-718179D02*
X-330200Y-720600D01*
X-323850Y-726950D01*
X-273050Y-726950D01*
X-527050Y-796800D02*
G54D15*
D03*
X-457200Y-796800D02*
G54D15*
D03*
X-390111Y-813258D02*
G54D15*
D03*
X-326610Y-813258D02*
G54D15*
D03*
X-273050Y-796800D02*
G54D15*
D03*
X-203200Y-796800D02*
G54D15*
D03*
X-590550Y-834900D02*
G54D16*
D03*
X-711200Y-831726D02*
G54D16*
D03*
X-590550Y-714250D02*
G54D16*
D03*
X-711200Y-714250D02*
G54D16*
D03*
X-722312Y-774575D02*
G54D16*
D03*
X-826624Y-747804D02*
G54D10*
D03*
X-826512Y-798785D02*
G54D10*
D03*
X-826512Y-798785D02*
G54D14*
D03*
X-137456Y-708512D02*
G54D16*
D03*
X-16806Y-711686D02*
G54D16*
D03*
X-137456Y-829162D02*
G54D16*
D03*
X-16806Y-829162D02*
G54D16*
D03*
X-5694Y-768837D02*
G54D16*
D03*
X95250Y-815850D02*
G54D12*
D03*
X95250Y-714250D02*
G54D12*
D03*
X49676Y-747804D02*
G54D10*
D03*
X49788Y-798785D02*
G54D10*
D03*
X49788Y-798785D02*
G54D14*
D03*
X-273050Y-930150D02*
G54D11*
D03*
X-203200Y-930150D02*
G54D11*
D03*
X-273050Y-1000000D02*
G54D11*
D03*
X-203200Y-1000000D02*
G54D11*
D03*
X-203200Y-968250D02*
G54D11*
D03*
X-273050Y-968250D02*
G54D11*
D03*
X-329159Y-921379D02*
G54D10*
D03*
X-380140Y-921491D02*
G54D10*
D03*
X-527050Y-930150D02*
G54D11*
D03*
X-457200Y-930150D02*
G54D11*
D03*
X-527050Y-1000000D02*
G54D11*
D03*
X-457200Y-1000000D02*
G54D11*
D03*
X-457200Y-968250D02*
G54D11*
D03*
X-527050Y-968250D02*
G54D11*
D03*
X-390223Y-965477D02*
G54D10*
D03*
X-390110Y-1016458D02*
G54D10*
D03*
X-326723Y-965477D02*
G54D10*
D03*
X-326610Y-1016458D02*
G54D10*
D03*
X-781050Y-1019050D02*
G54D12*
D03*
X-781050Y-917450D02*
G54D12*
D03*
G54D13*
X-457200Y-930150D02*
X-450850Y-923800D01*
X-381000Y-923800D01*
X-380140Y-921491D01*
G54D13*
X-390223Y-965477D02*
X-387350Y-968250D01*
X-381000Y-961900D01*
X-381000Y-923800D01*
X-380140Y-921491D01*
G54D13*
X-326723Y-965477D02*
X-323850Y-968250D01*
X-330200Y-961900D01*
X-330200Y-923800D01*
X-329159Y-921379D01*
G54D13*
X-329159Y-921379D02*
X-330200Y-923800D01*
X-323850Y-930150D01*
X-273050Y-930150D01*
X-527050Y-1000000D02*
G54D15*
D03*
X-457200Y-1000000D02*
G54D15*
D03*
X-390111Y-1016458D02*
G54D15*
D03*
X-326610Y-1016458D02*
G54D15*
D03*
X-273050Y-1000000D02*
G54D15*
D03*
X-203200Y-1000000D02*
G54D15*
D03*
X-590550Y-1038100D02*
G54D14*
D03*
X-711200Y-1034926D02*
G54D14*
D03*
X-590550Y-917450D02*
G54D14*
D03*
X-711200Y-917450D02*
G54D14*
D03*
X-722312Y-977775D02*
G54D14*
D03*
X-826624Y-951004D02*
G54D10*
D03*
X-826512Y-1001985D02*
G54D10*
D03*
X-826512Y-1001985D02*
G54D14*
D03*
X-137456Y-911712D02*
G54D14*
D03*
X-16806Y-914886D02*
G54D14*
D03*
X-137456Y-1032362D02*
G54D14*
D03*
X-16806Y-1032362D02*
G54D14*
D03*
X-5694Y-972037D02*
G54D14*
D03*
X95250Y-1019050D02*
G54D12*
D03*
X95250Y-917450D02*
G54D12*
D03*
X49676Y-951004D02*
G54D10*
D03*
X49788Y-1001985D02*
G54D10*
D03*
X49788Y-1001985D02*
G54D14*
D03*
X-273050Y-1133350D02*
G54D11*
D03*
X-203200Y-1133350D02*
G54D11*
D03*
X-273050Y-1203200D02*
G54D11*
D03*
X-203200Y-1203200D02*
G54D11*
D03*
X-203200Y-1171450D02*
G54D11*
D03*
X-273050Y-1171450D02*
G54D11*
D03*
X-329159Y-1124579D02*
G54D10*
D03*
X-380140Y-1124691D02*
G54D10*
D03*
X-527050Y-1133350D02*
G54D11*
D03*
X-457200Y-1133350D02*
G54D11*
D03*
X-527050Y-1203200D02*
G54D11*
D03*
X-457200Y-1203200D02*
G54D11*
D03*
X-457200Y-1171450D02*
G54D11*
D03*
X-527050Y-1171450D02*
G54D11*
D03*
X-390223Y-1168677D02*
G54D10*
D03*
X-390110Y-1219658D02*
G54D10*
D03*
X-326723Y-1168677D02*
G54D10*
D03*
X-326610Y-1219658D02*
G54D10*
D03*
X-781050Y-1222250D02*
G54D12*
D03*
X-781050Y-1120650D02*
G54D12*
D03*
G54D13*
X-457200Y-1133350D02*
X-450850Y-1127000D01*
X-381000Y-1127000D01*
X-380140Y-1124691D01*
G54D13*
X-390223Y-1168677D02*
X-387350Y-1171450D01*
X-381000Y-1165100D01*
X-381000Y-1127000D01*
X-380140Y-1124691D01*
G54D13*
X-326723Y-1168677D02*
X-323850Y-1171450D01*
X-330200Y-1165100D01*
X-330200Y-1127000D01*
X-329159Y-1124579D01*
G54D13*
X-329159Y-1124579D02*
X-330200Y-1127000D01*
X-323850Y-1133350D01*
X-273050Y-1133350D01*
X-527050Y-1203200D02*
G54D15*
D03*
X-457200Y-1203200D02*
G54D15*
D03*
X-390111Y-1219658D02*
G54D15*
D03*
X-326610Y-1219658D02*
G54D15*
D03*
X-273050Y-1203200D02*
G54D15*
D03*
X-203200Y-1203200D02*
G54D15*
D03*
X-590550Y-1241300D02*
G54D14*
D03*
X-711200Y-1238126D02*
G54D14*
D03*
X-590550Y-1120650D02*
G54D14*
D03*
X-711200Y-1120650D02*
G54D14*
D03*
X-722312Y-1180975D02*
G54D14*
D03*
X-826624Y-1154204D02*
G54D10*
D03*
X-826512Y-1205185D02*
G54D10*
D03*
X-826512Y-1205185D02*
G54D14*
D03*
X-137456Y-1114912D02*
G54D14*
D03*
X-16806Y-1118086D02*
G54D14*
D03*
X-137456Y-1235562D02*
G54D14*
D03*
X-16806Y-1235562D02*
G54D14*
D03*
X-5694Y-1175237D02*
G54D14*
D03*
X95250Y-1222250D02*
G54D12*
D03*
X95250Y-1120650D02*
G54D12*
D03*
X49676Y-1154204D02*
G54D10*
D03*
X49788Y-1205185D02*
G54D10*
D03*
X49788Y-1205185D02*
G54D14*
D03*
X-781050Y-612650D02*
G54D14*
D03*
X-781050Y-815850D02*
G54D14*
D03*
X-781050Y-1019050D02*
G54D14*
D03*
X95250Y-1222250D02*
G54D14*
D03*
X95250Y-1019050D02*
G54D14*
D03*
X95250Y-815850D02*
G54D14*
D03*
X95250Y-612650D02*
G54D14*
D03*
X95250Y-409450D02*
G54D14*
D03*
X95250Y-206250D02*
G54D14*
D03*
X-1011397Y-713559D02*
G54D14*
D03*
X-1008223Y-592909D02*
G54D14*
D03*
X-890747Y-713559D02*
G54D14*
D03*
X-890747Y-592909D02*
G54D14*
D03*
X-951072Y-581796D02*
G54D14*
D03*
X-711200Y-222126D02*
G54D17*
D03*
X-16806Y-219562D02*
G54D18*
D03*
X-711200Y-425326D02*
G54D18*
D03*
X-16806Y-422762D02*
G54D14*
D03*
X-711200Y-628526D02*
G54D18*
D03*
X-16806Y-625962D02*
G54D14*
D03*
X-711200Y-831726D02*
G54D14*
D03*
X-16806Y-829162D02*
G54D14*
D03*
X-711200Y-1034926D02*
G54D18*
D03*
X-16806Y-1032362D02*
G54D18*
D03*
X-711200Y-1238126D02*
G54D19*
D03*
X-16806Y-1235562D02*
G54D14*
D03*
X-1008223Y-592909D02*
G54D14*
D03*
G54D13*
X-826624Y-138205D02*
X-825500Y-139700D01*
X-787400Y-101600D01*
X-781050Y-101600D01*
X-781050Y-104650D01*
G54D13*
X-711200Y-104650D02*
X-711200Y-101600D01*
X-781050Y-101600D01*
X-781050Y-104650D01*
G54D13*
X-590550Y-225300D02*
X-590550Y-222250D01*
X-546100Y-177800D01*
X-546100Y-146050D01*
X-527050Y-127000D01*
X-527050Y-114300D01*
X-527050Y-117350D01*
G54D13*
X-137456Y-98912D02*
X-139700Y-101600D01*
X-152400Y-114300D01*
X-203200Y-114300D01*
X-203200Y-117350D01*
G54D13*
X95250Y-104650D02*
X95250Y-101600D01*
X-19050Y-101600D01*
X-16806Y-102086D01*
G54D13*
X49676Y-138205D02*
X50800Y-139700D01*
X88900Y-101600D01*
X95250Y-101600D01*
X95250Y-104650D01*
G54D13*
X-826624Y-341405D02*
X-825500Y-342900D01*
X-787400Y-304800D01*
X-781050Y-304800D01*
X-781050Y-307850D01*
G54D13*
X-590550Y-428500D02*
X-590550Y-425450D01*
X-546100Y-381000D01*
X-546100Y-349250D01*
X-527050Y-330200D01*
X-527050Y-317500D01*
X-527050Y-320550D01*
G54D13*
X-137456Y-302112D02*
X-139700Y-304800D01*
X-152400Y-317500D01*
X-203200Y-317500D01*
X-203200Y-320550D01*
G54D13*
X95250Y-307850D02*
X95250Y-304800D01*
X-19050Y-304800D01*
X-16806Y-305286D01*
G54D13*
X49676Y-341405D02*
X50800Y-342900D01*
X88900Y-304800D01*
X95250Y-304800D01*
X95250Y-307850D01*
G54D13*
X-711200Y-307850D02*
X-711200Y-304800D01*
X-781050Y-304800D01*
X-781050Y-307850D01*
G54D13*
X-711200Y-511050D02*
X-711200Y-508000D01*
X-781050Y-508000D01*
X-781050Y-511050D01*
G54D13*
X-826624Y-544605D02*
X-825500Y-546100D01*
X-787400Y-508000D01*
X-781050Y-508000D01*
X-781050Y-511050D01*
G54D13*
X-590550Y-631700D02*
X-590550Y-628650D01*
X-546100Y-584200D01*
X-546100Y-552450D01*
X-527050Y-533400D01*
X-527050Y-520700D01*
X-527050Y-523750D01*
G54D13*
X-137456Y-505312D02*
X-139700Y-508000D01*
X-152400Y-520700D01*
X-203200Y-520700D01*
X-203200Y-523750D01*
G54D13*
X49676Y-544605D02*
X50800Y-546100D01*
X12700Y-508000D01*
X-19050Y-508000D01*
X-16806Y-508486D01*
G54D13*
X49676Y-544605D02*
X50800Y-546100D01*
X88900Y-508000D01*
X95250Y-508000D01*
X95250Y-511050D01*
G54D13*
X-826624Y-747805D02*
X-825500Y-749300D01*
X-787400Y-711200D01*
X-781050Y-711200D01*
X-781050Y-714250D01*
G54D13*
X-711200Y-714250D02*
X-711200Y-711200D01*
X-781050Y-711200D01*
X-781050Y-714250D01*
G54D13*
X-590550Y-834900D02*
X-590550Y-831850D01*
X-546100Y-787400D01*
X-546100Y-755650D01*
X-527050Y-736600D01*
X-527050Y-723900D01*
X-527050Y-726950D01*
G54D13*
X-137456Y-708512D02*
X-139700Y-711200D01*
X-152400Y-723900D01*
X-203200Y-723900D01*
X-203200Y-726950D01*
G54D13*
X49676Y-747805D02*
X50800Y-749300D01*
X12700Y-711200D01*
X-19050Y-711200D01*
X-16806Y-711686D01*
G54D13*
X-826624Y-951005D02*
X-825500Y-952500D01*
X-787400Y-914400D01*
X-781050Y-914400D01*
X-781050Y-917450D01*
G54D13*
X-711200Y-917450D02*
X-711200Y-914400D01*
X-781050Y-914400D01*
X-781050Y-917450D01*
G54D13*
X-590550Y-1038100D02*
X-590550Y-1035050D01*
X-546100Y-990600D01*
X-546100Y-958850D01*
X-527050Y-939800D01*
X-527050Y-927100D01*
X-527050Y-930150D01*
G54D13*
X-137456Y-911712D02*
X-139700Y-914400D01*
X-152400Y-927100D01*
X-203200Y-927100D01*
X-203200Y-930150D01*
G54D13*
X49676Y-951005D02*
X50800Y-952500D01*
X12700Y-914400D01*
X-19050Y-914400D01*
X-16806Y-914886D01*
G54D13*
X49676Y-951005D02*
X50800Y-952500D01*
X88900Y-914400D01*
X95250Y-914400D01*
X95250Y-917450D01*
G54D13*
X-826624Y-1154205D02*
X-825500Y-1155700D01*
X-787400Y-1117600D01*
X-781050Y-1117600D01*
X-781050Y-1120650D01*
G54D13*
X-711200Y-1120650D02*
X-711200Y-1117600D01*
X-781050Y-1117600D01*
X-781050Y-1120650D01*
G54D13*
X-590550Y-1241300D02*
X-590550Y-1238250D01*
X-546100Y-1193800D01*
X-546100Y-1162050D01*
X-527050Y-1143000D01*
X-527050Y-1130300D01*
X-527050Y-1133350D01*
G54D13*
X-137456Y-1114912D02*
X-139700Y-1117600D01*
X-152400Y-1130300D01*
X-203200Y-1130300D01*
X-203200Y-1133350D01*
G54D13*
X49676Y-1154205D02*
X50800Y-1155700D01*
X12700Y-1117600D01*
X-19050Y-1117600D01*
X-16806Y-1118086D01*
G54D13*
X49676Y-1154205D02*
X50800Y-1155700D01*
X88900Y-1117600D01*
X95250Y-1117600D01*
X95250Y-1120650D01*
G54D13*
X49676Y-747805D02*
X50800Y-749300D01*
X88900Y-711200D01*
X95250Y-711200D01*
X95250Y-714250D01*
G54D20*
X-781050Y-104650D02*
X-781050Y-101600D01*
X-762000Y-82550D01*
X-762000Y-31750D01*
X-760175Y-29175D01*
G54D20*
X95250Y-104650D02*
X95250Y-101600D01*
X50800Y-57150D01*
X-558800Y-57150D01*
X-571500Y-44450D01*
X-609600Y-44450D01*
X-622300Y-31750D01*
X-762000Y-31750D01*
X-760175Y-29175D01*
G54D20*
X-781050Y-714250D02*
X-781050Y-711200D01*
X-723900Y-654050D01*
X-704850Y-654050D01*
X-698500Y-647700D01*
X-679450Y-647700D01*
X-673100Y-641350D01*
X-673100Y-203200D01*
X-685800Y-190500D01*
X-685800Y-146050D01*
X-692150Y-139700D01*
X-749300Y-139700D01*
X-768350Y-158750D01*
X-831850Y-158750D01*
X-844550Y-146050D01*
X-844550Y-127000D01*
X-806450Y-88900D01*
X-806450Y-25400D01*
X-793750Y-12700D01*
X-558800Y-12700D01*
X-527050Y-44450D01*
X-190500Y-44450D01*
X-177800Y-31750D01*
X-175975Y-29175D01*
G54D20*
X-951072Y-581796D02*
X-952500Y-584200D01*
X-850900Y-482600D01*
X-850900Y-387350D01*
X-844550Y-381000D01*
X-844550Y-330200D01*
X-749300Y-234950D01*
X-749300Y-203200D01*
X-723900Y-177800D01*
X-723900Y-165100D01*
X-722312Y-164975D01*
G54D20*
X-951072Y-581796D02*
X-952500Y-584200D01*
X-800100Y-431800D01*
X-774700Y-431800D01*
X-723900Y-381000D01*
X-723900Y-368300D01*
X-722312Y-368175D01*
G54D20*
X-951072Y-581796D02*
X-952500Y-584200D01*
X-927100Y-558800D01*
X-869950Y-558800D01*
X-857250Y-571500D01*
X-723900Y-571500D01*
X-722312Y-571375D01*
G54D20*
X-951072Y-581796D02*
X-952500Y-584200D01*
X-844550Y-692150D01*
X-844550Y-755650D01*
X-825500Y-774700D01*
X-723900Y-774700D01*
X-722312Y-774575D01*
G54D20*
X-951072Y-581796D02*
X-952500Y-584200D01*
X-914400Y-622300D01*
X-914400Y-742950D01*
X-844550Y-812800D01*
X-844550Y-958850D01*
X-825500Y-977900D01*
X-723900Y-977900D01*
X-722312Y-977775D01*
G54D20*
X-951072Y-581796D02*
X-952500Y-584200D01*
X-914400Y-622300D01*
X-914400Y-742950D01*
X-850900Y-806450D01*
X-850900Y-1009650D01*
X-844550Y-1016000D01*
X-844550Y-1162050D01*
X-825500Y-1181100D01*
X-723900Y-1181100D01*
X-722312Y-1180975D01*
G54D20*
X-1011397Y-713559D02*
X-1009650Y-711200D01*
X-996950Y-723900D01*
X-996950Y-825500D01*
X-977900Y-844550D01*
X-952500Y-844550D01*
X-949350Y-844450D01*
G36*
X-722050Y-1295550D02*
X-694050Y-1295550D01*
X-694050Y-1323550D01*
X-722050Y-1323550D01*
X-722050Y-1295550D01*
G37*
G36*
X-569650Y-1295550D02*
X-541650Y-1295550D01*
X-541650Y-1323550D01*
X-569650Y-1323550D01*
X-569650Y-1295550D01*
G37*
G36*
X-353750Y-1295550D02*
X-325750Y-1295550D01*
X-325750Y-1323550D01*
X-353750Y-1323550D01*
X-353750Y-1295550D01*
G37*
G36*
X-175950Y-1295550D02*
X-147950Y-1295550D01*
X-147950Y-1323550D01*
X-175950Y-1323550D01*
X-175950Y-1295550D01*
G37*
G36*
X-10850Y-1295550D02*
X17150Y-1295550D01*
X17150Y-1323550D01*
X-10850Y-1323550D01*
X-10850Y-1295550D01*
G37*
X-781050Y-206250D02*
G54D14*
D03*
X-876480Y-343012D02*
G54D14*
D03*
X-826512Y-189185D02*
G54D14*
D03*
X-781050Y-206250D02*
G54D14*
D03*
G54D20*
X-781050Y-612650D02*
X-781050Y-609600D01*
X-793750Y-596900D01*
X-825500Y-596900D01*
X-826512Y-595585D01*
G54D20*
X-711200Y-628526D02*
X-711200Y-628650D01*
X-730250Y-609600D01*
X-781050Y-609600D01*
X-781050Y-612650D01*
X-917160Y-368758D02*
G54D14*
D03*
X-781050Y-1222250D02*
G54D14*
D03*
X95250Y-1222250D02*
G54D14*
D03*
X49788Y-1205185D02*
G54D14*
D03*
X-889000Y-304800D02*
G54D12*
D03*
X-787400Y-304800D02*
G54D12*
D03*
X-889000Y-304800D02*
G54D14*
D03*
G54D20*
X-760175Y-29175D02*
X-762000Y-31750D01*
X-787400Y-31750D01*
X-785675Y-29175D01*
G54D20*
X-569675Y-29175D02*
X-571500Y-31750D01*
X-596900Y-31750D01*
X-595175Y-29175D01*
G54D20*
X-391875Y-29175D02*
X-393700Y-31750D01*
X-419100Y-31750D01*
X-417375Y-29175D01*
G54D20*
X-175975Y-29175D02*
X-177800Y-31750D01*
X-203200Y-31750D01*
X-201475Y-29175D01*
G54D20*
X19217Y-29067D02*
X19050Y-31750D01*
X-6350Y-31750D01*
X-6283Y-29067D01*
G54D20*
X192325Y-29175D02*
X190500Y-31750D01*
X165100Y-31750D01*
X166825Y-29175D01*
X234950Y-288800D02*
G54D11*
D03*
X311150Y-288800D02*
G54D11*
D03*
X234950Y-288800D02*
G54D11*
D03*
X234950Y-365000D02*
G54D11*
D03*
X311150Y-288800D02*
G54D11*
D03*
X311150Y-365000D02*
G54D11*
D03*
X234950Y-365000D02*
G54D14*
D03*
X311150Y-365000D02*
G54D14*
D03*
X234950Y-428500D02*
G54D11*
D03*
X311150Y-428500D02*
G54D11*
D03*
X234950Y-428500D02*
G54D11*
D03*
X234950Y-504700D02*
G54D11*
D03*
X311150Y-428500D02*
G54D11*
D03*
X311150Y-504700D02*
G54D11*
D03*
X234950Y-504700D02*
G54D14*
D03*
X311150Y-504700D02*
G54D14*
D03*
X234950Y-136400D02*
G54D11*
D03*
X311150Y-136400D02*
G54D11*
D03*
X234950Y-136400D02*
G54D11*
D03*
X234950Y-212600D02*
G54D11*
D03*
X311150Y-136400D02*
G54D11*
D03*
X311150Y-212600D02*
G54D11*
D03*
X234950Y-212600D02*
G54D14*
D03*
X311150Y-212600D02*
G54D14*
D03*
X215900Y-644400D02*
G54D11*
D03*
X292100Y-644400D02*
G54D11*
D03*
X215900Y-644400D02*
G54D11*
D03*
X215900Y-720600D02*
G54D11*
D03*
X292100Y-644400D02*
G54D11*
D03*
X292100Y-720600D02*
G54D11*
D03*
X215900Y-720600D02*
G54D14*
D03*
X292100Y-720600D02*
G54D14*
D03*
X215900Y-822200D02*
G54D11*
D03*
X292100Y-822200D02*
G54D11*
D03*
X215900Y-822200D02*
G54D11*
D03*
X215900Y-898400D02*
G54D11*
D03*
X292100Y-822200D02*
G54D11*
D03*
X292100Y-898400D02*
G54D11*
D03*
X215900Y-898400D02*
G54D14*
D03*
X292100Y-898400D02*
G54D14*
D03*
X215900Y-1000000D02*
G54D11*
D03*
X292100Y-1000000D02*
G54D11*
D03*
X215900Y-1000000D02*
G54D11*
D03*
X215900Y-1076200D02*
G54D11*
D03*
X292100Y-1000000D02*
G54D11*
D03*
X292100Y-1076200D02*
G54D11*
D03*
X215900Y-1076200D02*
G54D14*
D03*
X292100Y-1076200D02*
G54D14*
D03*
X234950Y-111000D02*
G54D11*
D03*
X311150Y-111000D02*
G54D11*
D03*
X234950Y-263400D02*
G54D11*
D03*
X311150Y-263400D02*
G54D11*
D03*
X234950Y-403100D02*
G54D11*
D03*
X311150Y-403100D02*
G54D11*
D03*
X215900Y-669800D02*
G54D11*
D03*
X292100Y-669800D02*
G54D11*
D03*
X215900Y-847600D02*
G54D11*
D03*
X292100Y-847600D02*
G54D11*
D03*
X215900Y-1025400D02*
G54D11*
D03*
X292100Y-1025400D02*
G54D11*
D03*
G54D21*
X234950Y-111000D02*
X234950Y-136400D01*
G54D21*
X311150Y-111000D02*
X311150Y-136400D01*
G54D21*
X234950Y-263400D02*
X234950Y-288800D01*
G54D21*
X311150Y-263400D02*
X311150Y-288800D01*
G54D21*
X234950Y-403100D02*
X234950Y-428500D01*
G54D21*
X311150Y-403100D02*
X311150Y-428500D01*
G54D21*
X215900Y-669800D02*
X215900Y-644400D01*
G54D21*
X292100Y-669800D02*
X292100Y-644400D01*
G54D21*
X215900Y-847600D02*
X215900Y-822200D01*
G54D21*
X292100Y-847600D02*
X292100Y-822200D01*
G54D21*
X215900Y-1025400D02*
X215900Y-1000000D01*
G54D21*
X292100Y-1025400D02*
X292100Y-1000000D01*
G54D21*
X234950Y-111000D02*
X228600Y-114300D01*
X177800Y-165100D01*
X0Y-165100D01*
X-5694Y-159237D01*
G54D21*
X234950Y-263400D02*
X228600Y-266700D01*
X127000Y-368300D01*
X0Y-368300D01*
X-5694Y-362437D01*
G54D21*
X234950Y-403100D02*
X228600Y-406400D01*
X63500Y-571500D01*
X0Y-571500D01*
X-5694Y-565637D01*
G54D21*
X215900Y-644400D02*
X215900Y-647700D01*
X88900Y-774700D01*
X0Y-774700D01*
X-5694Y-768837D01*
G54D21*
X215900Y-822200D02*
X215900Y-825500D01*
X63500Y-977900D01*
X0Y-977900D01*
X-5694Y-972037D01*
G54D21*
X215900Y-1000000D02*
X215900Y-1003300D01*
X114300Y-1104900D01*
X114300Y-1130300D01*
X63500Y-1181100D01*
X0Y-1181100D01*
X-5694Y-1175237D01*
%LPD*%
G54D22*
G36*
X-530383Y-187200D02*
X-530383Y-172700D01*
X-523717Y-172700D01*
X-523717Y-187200D01*
X-530383Y-187200D01*
G37*
G36*
X-527050Y-183867D02*
X-512550Y-183867D01*
X-512550Y-190533D01*
X-527050Y-190533D01*
X-527050Y-183867D01*
G37*
G36*
X-523717Y-187200D02*
X-523717Y-201700D01*
X-530383Y-201700D01*
X-530383Y-187200D01*
X-523717Y-187200D01*
G37*
G36*
X-527050Y-190533D02*
X-541550Y-190533D01*
X-541550Y-183867D01*
X-527050Y-183867D01*
X-527050Y-190533D01*
G37*
G54D22*
G36*
X-460533Y-187200D02*
X-460533Y-172700D01*
X-453867Y-172700D01*
X-453867Y-187200D01*
X-460533Y-187200D01*
G37*
G36*
X-457200Y-183867D02*
X-442700Y-183867D01*
X-442700Y-190533D01*
X-457200Y-190533D01*
X-457200Y-183867D01*
G37*
G36*
X-453867Y-187200D02*
X-453867Y-201700D01*
X-460533Y-201700D01*
X-460533Y-187200D01*
X-453867Y-187200D01*
G37*
G36*
X-457200Y-190533D02*
X-471700Y-190533D01*
X-471700Y-183867D01*
X-457200Y-183867D01*
X-457200Y-190533D01*
G37*
G54D23*
G36*
X-398144Y-203658D02*
X-398144Y-189158D01*
X-382078Y-189158D01*
X-382078Y-203658D01*
X-398144Y-203658D01*
G37*
G36*
X-390111Y-195625D02*
X-375611Y-195625D01*
X-375611Y-211691D01*
X-390111Y-211691D01*
X-390111Y-195625D01*
G37*
G36*
X-382078Y-203658D02*
X-382078Y-218158D01*
X-398144Y-218158D01*
X-398144Y-203658D01*
X-382078Y-203658D01*
G37*
G36*
X-390111Y-211691D02*
X-404611Y-211691D01*
X-404611Y-195625D01*
X-390111Y-195625D01*
X-390111Y-211691D01*
G37*
G54D24*
G36*
X-333843Y-203658D02*
X-333843Y-189158D01*
X-319377Y-189158D01*
X-319377Y-203658D01*
X-333843Y-203658D01*
G37*
G36*
X-326610Y-196425D02*
X-312110Y-196425D01*
X-312110Y-210891D01*
X-326610Y-210891D01*
X-326610Y-196425D01*
G37*
G36*
X-319377Y-203658D02*
X-319377Y-218158D01*
X-333843Y-218158D01*
X-333843Y-203658D01*
X-319377Y-203658D01*
G37*
G36*
X-326610Y-210891D02*
X-341110Y-210891D01*
X-341110Y-196425D01*
X-326610Y-196425D01*
X-326610Y-210891D01*
G37*
G54D22*
G36*
X-276383Y-187200D02*
X-276383Y-172700D01*
X-269717Y-172700D01*
X-269717Y-187200D01*
X-276383Y-187200D01*
G37*
G36*
X-273050Y-183867D02*
X-258550Y-183867D01*
X-258550Y-190533D01*
X-273050Y-190533D01*
X-273050Y-183867D01*
G37*
G36*
X-269717Y-187200D02*
X-269717Y-201700D01*
X-276383Y-201700D01*
X-276383Y-187200D01*
X-269717Y-187200D01*
G37*
G36*
X-273050Y-190533D02*
X-287550Y-190533D01*
X-287550Y-183867D01*
X-273050Y-183867D01*
X-273050Y-190533D01*
G37*
G54D22*
G36*
X-206533Y-187200D02*
X-206533Y-172700D01*
X-199867Y-172700D01*
X-199867Y-187200D01*
X-206533Y-187200D01*
G37*
G36*
X-203200Y-183867D02*
X-188700Y-183867D01*
X-188700Y-190533D01*
X-203200Y-190533D01*
X-203200Y-183867D01*
G37*
G36*
X-199867Y-187200D02*
X-199867Y-201700D01*
X-206533Y-201700D01*
X-206533Y-187200D01*
X-199867Y-187200D01*
G37*
G36*
X-203200Y-190533D02*
X-217700Y-190533D01*
X-217700Y-183867D01*
X-203200Y-183867D01*
X-203200Y-190533D01*
G37*
G54D22*
G36*
X-978083Y-450750D02*
X-978083Y-436250D01*
X-971417Y-436250D01*
X-971417Y-450750D01*
X-978083Y-450750D01*
G37*
G36*
X-974750Y-447417D02*
X-960250Y-447417D01*
X-960250Y-454083D01*
X-974750Y-454083D01*
X-974750Y-447417D01*
G37*
G36*
X-971417Y-450750D02*
X-971417Y-465250D01*
X-978083Y-465250D01*
X-978083Y-450750D01*
X-971417Y-450750D01*
G37*
G36*
X-974750Y-454083D02*
X-989250Y-454083D01*
X-989250Y-447417D01*
X-974750Y-447417D01*
X-974750Y-454083D01*
G37*
G54D22*
G36*
X-927283Y-450750D02*
X-927283Y-436250D01*
X-920617Y-436250D01*
X-920617Y-450750D01*
X-927283Y-450750D01*
G37*
G36*
X-923950Y-447417D02*
X-909450Y-447417D01*
X-909450Y-454083D01*
X-923950Y-454083D01*
X-923950Y-447417D01*
G37*
G36*
X-920617Y-450750D02*
X-920617Y-465250D01*
X-927283Y-465250D01*
X-927283Y-450750D01*
X-920617Y-450750D01*
G37*
G36*
X-923950Y-454083D02*
X-938450Y-454083D01*
X-938450Y-447417D01*
X-923950Y-447417D01*
X-923950Y-454083D01*
G37*
G54D22*
G36*
X-978083Y-501550D02*
X-978083Y-487050D01*
X-971417Y-487050D01*
X-971417Y-501550D01*
X-978083Y-501550D01*
G37*
G36*
X-974750Y-498217D02*
X-960250Y-498217D01*
X-960250Y-504883D01*
X-974750Y-504883D01*
X-974750Y-498217D01*
G37*
G36*
X-971417Y-501550D02*
X-971417Y-516050D01*
X-978083Y-516050D01*
X-978083Y-501550D01*
X-971417Y-501550D01*
G37*
G36*
X-974750Y-504883D02*
X-989250Y-504883D01*
X-989250Y-498217D01*
X-974750Y-498217D01*
X-974750Y-504883D01*
G37*
G54D22*
G36*
X-927283Y-501550D02*
X-927283Y-487050D01*
X-920617Y-487050D01*
X-920617Y-501550D01*
X-927283Y-501550D01*
G37*
G36*
X-923950Y-498217D02*
X-909450Y-498217D01*
X-909450Y-504883D01*
X-923950Y-504883D01*
X-923950Y-498217D01*
G37*
G36*
X-920617Y-501550D02*
X-920617Y-516050D01*
X-927283Y-516050D01*
X-927283Y-501550D01*
X-920617Y-501550D01*
G37*
G36*
X-923950Y-504883D02*
X-938450Y-504883D01*
X-938450Y-498217D01*
X-923950Y-498217D01*
X-923950Y-504883D01*
G37*
G54D22*
G36*
X-978083Y-819050D02*
X-978083Y-804550D01*
X-971417Y-804550D01*
X-971417Y-819050D01*
X-978083Y-819050D01*
G37*
G36*
X-974750Y-815717D02*
X-960250Y-815717D01*
X-960250Y-822383D01*
X-974750Y-822383D01*
X-974750Y-815717D01*
G37*
G36*
X-971417Y-819050D02*
X-971417Y-833550D01*
X-978083Y-833550D01*
X-978083Y-819050D01*
X-971417Y-819050D01*
G37*
G36*
X-974750Y-822383D02*
X-989250Y-822383D01*
X-989250Y-815717D01*
X-974750Y-815717D01*
X-974750Y-822383D01*
G37*
G54D22*
G36*
X-927283Y-819050D02*
X-927283Y-804550D01*
X-920617Y-804550D01*
X-920617Y-819050D01*
X-927283Y-819050D01*
G37*
G36*
X-923950Y-815717D02*
X-909450Y-815717D01*
X-909450Y-822383D01*
X-923950Y-822383D01*
X-923950Y-815717D01*
G37*
G36*
X-920617Y-819050D02*
X-920617Y-833550D01*
X-927283Y-833550D01*
X-927283Y-819050D01*
X-920617Y-819050D01*
G37*
G36*
X-923950Y-822383D02*
X-938450Y-822383D01*
X-938450Y-815717D01*
X-923950Y-815717D01*
X-923950Y-822383D01*
G37*
G54D22*
G36*
X-978083Y-869850D02*
X-978083Y-855350D01*
X-971417Y-855350D01*
X-971417Y-869850D01*
X-978083Y-869850D01*
G37*
G36*
X-974750Y-866517D02*
X-960250Y-866517D01*
X-960250Y-873183D01*
X-974750Y-873183D01*
X-974750Y-866517D01*
G37*
G36*
X-971417Y-869850D02*
X-971417Y-884350D01*
X-978083Y-884350D01*
X-978083Y-869850D01*
X-971417Y-869850D01*
G37*
G36*
X-974750Y-873183D02*
X-989250Y-873183D01*
X-989250Y-866517D01*
X-974750Y-866517D01*
X-974750Y-873183D01*
G37*
G54D22*
G36*
X-927283Y-869850D02*
X-927283Y-855350D01*
X-920617Y-855350D01*
X-920617Y-869850D01*
X-927283Y-869850D01*
G37*
G36*
X-923950Y-866517D02*
X-909450Y-866517D01*
X-909450Y-873183D01*
X-923950Y-873183D01*
X-923950Y-866517D01*
G37*
G36*
X-920617Y-869850D02*
X-920617Y-884350D01*
X-927283Y-884350D01*
X-927283Y-869850D01*
X-920617Y-869850D01*
G37*
G36*
X-923950Y-873183D02*
X-938450Y-873183D01*
X-938450Y-866517D01*
X-923950Y-866517D01*
X-923950Y-873183D01*
G37*
G54D25*
G36*
X-957475Y-3775D02*
X-957475Y12725D01*
X-944075Y12725D01*
X-944075Y-3775D01*
X-957475Y-3775D01*
G37*
G54D26*
G54D22*
G36*
X-981233Y-396750D02*
X-981233Y-382250D01*
X-974567Y-382250D01*
X-974567Y-396750D01*
X-981233Y-396750D01*
G37*
G36*
X-977900Y-393417D02*
X-963400Y-393417D01*
X-963400Y-400083D01*
X-977900Y-400083D01*
X-977900Y-393417D01*
G37*
G36*
X-974567Y-396750D02*
X-974567Y-411250D01*
X-981233Y-411250D01*
X-981233Y-396750D01*
X-974567Y-396750D01*
G37*
G36*
X-977900Y-400083D02*
X-992400Y-400083D01*
X-992400Y-393417D01*
X-977900Y-393417D01*
X-977900Y-400083D01*
G37*
G54D27*
G36*
X-726717Y49350D02*
X-726717Y63850D01*
X-714783Y63850D01*
X-714783Y49350D01*
X-726717Y49350D01*
G37*
G36*
X-720750Y55317D02*
X-706250Y55317D01*
X-706250Y43383D01*
X-720750Y43383D01*
X-720750Y55317D01*
G37*
G36*
X-714783Y49350D02*
X-714783Y34850D01*
X-726717Y34850D01*
X-726717Y49350D01*
X-714783Y49350D01*
G37*
G36*
X-720750Y43383D02*
X-735250Y43383D01*
X-735250Y55317D01*
X-720750Y55317D01*
X-720750Y43383D01*
G37*
G54D27*
G36*
X-574317Y49350D02*
X-574317Y63850D01*
X-562383Y63850D01*
X-562383Y49350D01*
X-574317Y49350D01*
G37*
G36*
X-568350Y55317D02*
X-553850Y55317D01*
X-553850Y43383D01*
X-568350Y43383D01*
X-568350Y55317D01*
G37*
G36*
X-562383Y49350D02*
X-562383Y34850D01*
X-574317Y34850D01*
X-574317Y49350D01*
X-562383Y49350D01*
G37*
G36*
X-568350Y43383D02*
X-582850Y43383D01*
X-582850Y55317D01*
X-568350Y55317D01*
X-568350Y43383D01*
G37*
G54D27*
G36*
X-358417Y49350D02*
X-358417Y63850D01*
X-346483Y63850D01*
X-346483Y49350D01*
X-358417Y49350D01*
G37*
G36*
X-352450Y55317D02*
X-337950Y55317D01*
X-337950Y43383D01*
X-352450Y43383D01*
X-352450Y55317D01*
G37*
G36*
X-346483Y49350D02*
X-346483Y34850D01*
X-358417Y34850D01*
X-358417Y49350D01*
X-346483Y49350D01*
G37*
G36*
X-352450Y43383D02*
X-366950Y43383D01*
X-366950Y55317D01*
X-352450Y55317D01*
X-352450Y43383D01*
G37*
G54D27*
G36*
X-180617Y49350D02*
X-180617Y63850D01*
X-168683Y63850D01*
X-168683Y49350D01*
X-180617Y49350D01*
G37*
G36*
X-174650Y55317D02*
X-160150Y55317D01*
X-160150Y43383D01*
X-174650Y43383D01*
X-174650Y55317D01*
G37*
G36*
X-168683Y49350D02*
X-168683Y34850D01*
X-180617Y34850D01*
X-180617Y49350D01*
X-168683Y49350D01*
G37*
G36*
X-174650Y43383D02*
X-189150Y43383D01*
X-189150Y55317D01*
X-174650Y55317D01*
X-174650Y43383D01*
G37*
G54D27*
G36*
X-15517Y49350D02*
X-15517Y63850D01*
X-3583Y63850D01*
X-3583Y49350D01*
X-15517Y49350D01*
G37*
G36*
X-9550Y55317D02*
X4950Y55317D01*
X4950Y43383D01*
X-9550Y43383D01*
X-9550Y55317D01*
G37*
G36*
X-3583Y49350D02*
X-3583Y34850D01*
X-15517Y34850D01*
X-15517Y49350D01*
X-3583Y49350D01*
G37*
G36*
X-9550Y43383D02*
X-24050Y43383D01*
X-24050Y55317D01*
X-9550Y55317D01*
X-9550Y43383D01*
G37*
G54D26*
G54D27*
G36*
X-1012850Y-109783D02*
X-998350Y-109783D01*
X-998350Y-121717D01*
X-1012850Y-121717D01*
X-1012850Y-109783D01*
G37*
G36*
X-1006883Y-115750D02*
X-1006883Y-130250D01*
X-1018817Y-130250D01*
X-1018817Y-115750D01*
X-1006883Y-115750D01*
G37*
G36*
X-1012850Y-121717D02*
X-1027350Y-121717D01*
X-1027350Y-109783D01*
X-1012850Y-109783D01*
X-1012850Y-121717D01*
G37*
G36*
X-1018817Y-115750D02*
X-1018817Y-101250D01*
X-1006883Y-101250D01*
X-1006883Y-115750D01*
X-1018817Y-115750D01*
G37*
G54D27*
G36*
X-1012850Y-998783D02*
X-998350Y-998783D01*
X-998350Y-1010717D01*
X-1012850Y-1010717D01*
X-1012850Y-998783D01*
G37*
G36*
X-1006883Y-1004750D02*
X-1006883Y-1019250D01*
X-1018817Y-1019250D01*
X-1018817Y-1004750D01*
X-1006883Y-1004750D01*
G37*
G36*
X-1012850Y-1010717D02*
X-1027350Y-1010717D01*
X-1027350Y-998783D01*
X-1012850Y-998783D01*
X-1012850Y-1010717D01*
G37*
G36*
X-1018817Y-1004750D02*
X-1018817Y-990250D01*
X-1006883Y-990250D01*
X-1006883Y-1004750D01*
X-1018817Y-1004750D01*
G37*
G54D28*
G36*
X-822845Y-189185D02*
X-822845Y-204685D01*
X-830178Y-204685D01*
X-830178Y-189185D01*
X-822845Y-189185D01*
G37*
G36*
X-826512Y-192852D02*
X-842012Y-192852D01*
X-842012Y-185518D01*
X-826512Y-185518D01*
X-826512Y-192852D01*
G37*
G36*
X-830178Y-189185D02*
X-830178Y-173685D01*
X-822845Y-173685D01*
X-822845Y-189185D01*
X-830178Y-189185D01*
G37*
G36*
X-826512Y-185518D02*
X-811012Y-185518D01*
X-811012Y-192852D01*
X-826512Y-192852D01*
X-826512Y-185518D01*
G37*
G54D28*
G36*
X53455Y-189185D02*
X53455Y-204685D01*
X46122Y-204685D01*
X46122Y-189185D01*
X53455Y-189185D01*
G37*
G36*
X49788Y-192852D02*
X34288Y-192852D01*
X34288Y-185518D01*
X49788Y-185518D01*
X49788Y-192852D01*
G37*
G36*
X46122Y-189185D02*
X46122Y-173685D01*
X53455Y-173685D01*
X53455Y-189185D01*
X46122Y-189185D01*
G37*
G36*
X49788Y-185518D02*
X65288Y-185518D01*
X65288Y-192852D01*
X49788Y-192852D01*
X49788Y-185518D01*
G37*
G54D22*
G36*
X-530383Y-390400D02*
X-530383Y-375900D01*
X-523717Y-375900D01*
X-523717Y-390400D01*
X-530383Y-390400D01*
G37*
G36*
X-527050Y-387067D02*
X-512550Y-387067D01*
X-512550Y-393733D01*
X-527050Y-393733D01*
X-527050Y-387067D01*
G37*
G36*
X-523717Y-390400D02*
X-523717Y-404900D01*
X-530383Y-404900D01*
X-530383Y-390400D01*
X-523717Y-390400D01*
G37*
G36*
X-527050Y-393733D02*
X-541550Y-393733D01*
X-541550Y-387067D01*
X-527050Y-387067D01*
X-527050Y-393733D01*
G37*
G54D22*
G36*
X-460533Y-390400D02*
X-460533Y-375900D01*
X-453867Y-375900D01*
X-453867Y-390400D01*
X-460533Y-390400D01*
G37*
G36*
X-457200Y-387067D02*
X-442700Y-387067D01*
X-442700Y-393733D01*
X-457200Y-393733D01*
X-457200Y-387067D01*
G37*
G36*
X-453867Y-390400D02*
X-453867Y-404900D01*
X-460533Y-404900D01*
X-460533Y-390400D01*
X-453867Y-390400D01*
G37*
G36*
X-457200Y-393733D02*
X-471700Y-393733D01*
X-471700Y-387067D01*
X-457200Y-387067D01*
X-457200Y-393733D01*
G37*
G54D23*
G36*
X-398144Y-406858D02*
X-398144Y-392358D01*
X-382078Y-392358D01*
X-382078Y-406858D01*
X-398144Y-406858D01*
G37*
G36*
X-390111Y-398825D02*
X-375611Y-398825D01*
X-375611Y-414891D01*
X-390111Y-414891D01*
X-390111Y-398825D01*
G37*
G36*
X-382078Y-406858D02*
X-382078Y-421358D01*
X-398144Y-421358D01*
X-398144Y-406858D01*
X-382078Y-406858D01*
G37*
G36*
X-390111Y-414891D02*
X-404611Y-414891D01*
X-404611Y-398825D01*
X-390111Y-398825D01*
X-390111Y-414891D01*
G37*
G54D24*
G36*
X-333843Y-406858D02*
X-333843Y-392358D01*
X-319377Y-392358D01*
X-319377Y-406858D01*
X-333843Y-406858D01*
G37*
G36*
X-326610Y-399625D02*
X-312110Y-399625D01*
X-312110Y-414091D01*
X-326610Y-414091D01*
X-326610Y-399625D01*
G37*
G36*
X-319377Y-406858D02*
X-319377Y-421358D01*
X-333843Y-421358D01*
X-333843Y-406858D01*
X-319377Y-406858D01*
G37*
G36*
X-326610Y-414091D02*
X-341110Y-414091D01*
X-341110Y-399625D01*
X-326610Y-399625D01*
X-326610Y-414091D01*
G37*
G54D22*
G36*
X-276383Y-390400D02*
X-276383Y-375900D01*
X-269717Y-375900D01*
X-269717Y-390400D01*
X-276383Y-390400D01*
G37*
G36*
X-273050Y-387067D02*
X-258550Y-387067D01*
X-258550Y-393733D01*
X-273050Y-393733D01*
X-273050Y-387067D01*
G37*
G36*
X-269717Y-390400D02*
X-269717Y-404900D01*
X-276383Y-404900D01*
X-276383Y-390400D01*
X-269717Y-390400D01*
G37*
G36*
X-273050Y-393733D02*
X-287550Y-393733D01*
X-287550Y-387067D01*
X-273050Y-387067D01*
X-273050Y-393733D01*
G37*
G54D22*
G36*
X-206533Y-390400D02*
X-206533Y-375900D01*
X-199867Y-375900D01*
X-199867Y-390400D01*
X-206533Y-390400D01*
G37*
G36*
X-203200Y-387067D02*
X-188700Y-387067D01*
X-188700Y-393733D01*
X-203200Y-393733D01*
X-203200Y-387067D01*
G37*
G36*
X-199867Y-390400D02*
X-199867Y-404900D01*
X-206533Y-404900D01*
X-206533Y-390400D01*
X-199867Y-390400D01*
G37*
G36*
X-203200Y-393733D02*
X-217700Y-393733D01*
X-217700Y-387067D01*
X-203200Y-387067D01*
X-203200Y-393733D01*
G37*
G54D28*
G36*
X53455Y-392385D02*
X53455Y-407885D01*
X46122Y-407885D01*
X46122Y-392385D01*
X53455Y-392385D01*
G37*
G36*
X49788Y-396052D02*
X34288Y-396052D01*
X34288Y-388718D01*
X49788Y-388718D01*
X49788Y-396052D01*
G37*
G36*
X46122Y-392385D02*
X46122Y-376885D01*
X53455Y-376885D01*
X53455Y-392385D01*
X46122Y-392385D01*
G37*
G36*
X49788Y-388718D02*
X65288Y-388718D01*
X65288Y-396052D01*
X49788Y-396052D01*
X49788Y-388718D01*
G37*
G54D22*
G36*
X-530383Y-593600D02*
X-530383Y-579100D01*
X-523717Y-579100D01*
X-523717Y-593600D01*
X-530383Y-593600D01*
G37*
G36*
X-527050Y-590267D02*
X-512550Y-590267D01*
X-512550Y-596933D01*
X-527050Y-596933D01*
X-527050Y-590267D01*
G37*
G36*
X-523717Y-593600D02*
X-523717Y-608100D01*
X-530383Y-608100D01*
X-530383Y-593600D01*
X-523717Y-593600D01*
G37*
G36*
X-527050Y-596933D02*
X-541550Y-596933D01*
X-541550Y-590267D01*
X-527050Y-590267D01*
X-527050Y-596933D01*
G37*
G54D22*
G36*
X-460533Y-593600D02*
X-460533Y-579100D01*
X-453867Y-579100D01*
X-453867Y-593600D01*
X-460533Y-593600D01*
G37*
G36*
X-457200Y-590267D02*
X-442700Y-590267D01*
X-442700Y-596933D01*
X-457200Y-596933D01*
X-457200Y-590267D01*
G37*
G36*
X-453867Y-593600D02*
X-453867Y-608100D01*
X-460533Y-608100D01*
X-460533Y-593600D01*
X-453867Y-593600D01*
G37*
G36*
X-457200Y-596933D02*
X-471700Y-596933D01*
X-471700Y-590267D01*
X-457200Y-590267D01*
X-457200Y-596933D01*
G37*
G54D23*
G36*
X-398144Y-610058D02*
X-398144Y-595558D01*
X-382078Y-595558D01*
X-382078Y-610058D01*
X-398144Y-610058D01*
G37*
G36*
X-390111Y-602025D02*
X-375611Y-602025D01*
X-375611Y-618091D01*
X-390111Y-618091D01*
X-390111Y-602025D01*
G37*
G36*
X-382078Y-610058D02*
X-382078Y-624558D01*
X-398144Y-624558D01*
X-398144Y-610058D01*
X-382078Y-610058D01*
G37*
G36*
X-390111Y-618091D02*
X-404611Y-618091D01*
X-404611Y-602025D01*
X-390111Y-602025D01*
X-390111Y-618091D01*
G37*
G54D24*
G36*
X-333843Y-610058D02*
X-333843Y-595558D01*
X-319377Y-595558D01*
X-319377Y-610058D01*
X-333843Y-610058D01*
G37*
G36*
X-326610Y-602825D02*
X-312110Y-602825D01*
X-312110Y-617291D01*
X-326610Y-617291D01*
X-326610Y-602825D01*
G37*
G36*
X-319377Y-610058D02*
X-319377Y-624558D01*
X-333843Y-624558D01*
X-333843Y-610058D01*
X-319377Y-610058D01*
G37*
G36*
X-326610Y-617291D02*
X-341110Y-617291D01*
X-341110Y-602825D01*
X-326610Y-602825D01*
X-326610Y-617291D01*
G37*
G54D22*
G36*
X-276383Y-593600D02*
X-276383Y-579100D01*
X-269717Y-579100D01*
X-269717Y-593600D01*
X-276383Y-593600D01*
G37*
G36*
X-273050Y-590267D02*
X-258550Y-590267D01*
X-258550Y-596933D01*
X-273050Y-596933D01*
X-273050Y-590267D01*
G37*
G36*
X-269717Y-593600D02*
X-269717Y-608100D01*
X-276383Y-608100D01*
X-276383Y-593600D01*
X-269717Y-593600D01*
G37*
G36*
X-273050Y-596933D02*
X-287550Y-596933D01*
X-287550Y-590267D01*
X-273050Y-590267D01*
X-273050Y-596933D01*
G37*
G54D22*
G36*
X-206533Y-593600D02*
X-206533Y-579100D01*
X-199867Y-579100D01*
X-199867Y-593600D01*
X-206533Y-593600D01*
G37*
G36*
X-203200Y-590267D02*
X-188700Y-590267D01*
X-188700Y-596933D01*
X-203200Y-596933D01*
X-203200Y-590267D01*
G37*
G36*
X-199867Y-593600D02*
X-199867Y-608100D01*
X-206533Y-608100D01*
X-206533Y-593600D01*
X-199867Y-593600D01*
G37*
G36*
X-203200Y-596933D02*
X-217700Y-596933D01*
X-217700Y-590267D01*
X-203200Y-590267D01*
X-203200Y-596933D01*
G37*
G54D28*
G36*
X-822845Y-595585D02*
X-822845Y-611085D01*
X-830178Y-611085D01*
X-830178Y-595585D01*
X-822845Y-595585D01*
G37*
G36*
X-826512Y-599252D02*
X-842012Y-599252D01*
X-842012Y-591918D01*
X-826512Y-591918D01*
X-826512Y-599252D01*
G37*
G36*
X-830178Y-595585D02*
X-830178Y-580085D01*
X-822845Y-580085D01*
X-822845Y-595585D01*
X-830178Y-595585D01*
G37*
G36*
X-826512Y-591918D02*
X-811012Y-591918D01*
X-811012Y-599252D01*
X-826512Y-599252D01*
X-826512Y-591918D01*
G37*
G54D28*
G36*
X53455Y-595585D02*
X53455Y-611085D01*
X46122Y-611085D01*
X46122Y-595585D01*
X53455Y-595585D01*
G37*
G36*
X49788Y-599252D02*
X34288Y-599252D01*
X34288Y-591918D01*
X49788Y-591918D01*
X49788Y-599252D01*
G37*
G36*
X46122Y-595585D02*
X46122Y-580085D01*
X53455Y-580085D01*
X53455Y-595585D01*
X46122Y-595585D01*
G37*
G36*
X49788Y-591918D02*
X65288Y-591918D01*
X65288Y-599252D01*
X49788Y-599252D01*
X49788Y-591918D01*
G37*
G54D22*
G36*
X-530383Y-796800D02*
X-530383Y-782300D01*
X-523717Y-782300D01*
X-523717Y-796800D01*
X-530383Y-796800D01*
G37*
G36*
X-527050Y-793467D02*
X-512550Y-793467D01*
X-512550Y-800133D01*
X-527050Y-800133D01*
X-527050Y-793467D01*
G37*
G36*
X-523717Y-796800D02*
X-523717Y-811300D01*
X-530383Y-811300D01*
X-530383Y-796800D01*
X-523717Y-796800D01*
G37*
G36*
X-527050Y-800133D02*
X-541550Y-800133D01*
X-541550Y-793467D01*
X-527050Y-793467D01*
X-527050Y-800133D01*
G37*
G54D22*
G36*
X-460533Y-796800D02*
X-460533Y-782300D01*
X-453867Y-782300D01*
X-453867Y-796800D01*
X-460533Y-796800D01*
G37*
G36*
X-457200Y-793467D02*
X-442700Y-793467D01*
X-442700Y-800133D01*
X-457200Y-800133D01*
X-457200Y-793467D01*
G37*
G36*
X-453867Y-796800D02*
X-453867Y-811300D01*
X-460533Y-811300D01*
X-460533Y-796800D01*
X-453867Y-796800D01*
G37*
G36*
X-457200Y-800133D02*
X-471700Y-800133D01*
X-471700Y-793467D01*
X-457200Y-793467D01*
X-457200Y-800133D01*
G37*
G54D23*
G36*
X-398144Y-813258D02*
X-398144Y-798758D01*
X-382078Y-798758D01*
X-382078Y-813258D01*
X-398144Y-813258D01*
G37*
G36*
X-390111Y-805225D02*
X-375611Y-805225D01*
X-375611Y-821291D01*
X-390111Y-821291D01*
X-390111Y-805225D01*
G37*
G36*
X-382078Y-813258D02*
X-382078Y-827758D01*
X-398144Y-827758D01*
X-398144Y-813258D01*
X-382078Y-813258D01*
G37*
G36*
X-390111Y-821291D02*
X-404611Y-821291D01*
X-404611Y-805225D01*
X-390111Y-805225D01*
X-390111Y-821291D01*
G37*
G54D24*
G36*
X-333843Y-813258D02*
X-333843Y-798758D01*
X-319377Y-798758D01*
X-319377Y-813258D01*
X-333843Y-813258D01*
G37*
G36*
X-326610Y-806025D02*
X-312110Y-806025D01*
X-312110Y-820491D01*
X-326610Y-820491D01*
X-326610Y-806025D01*
G37*
G36*
X-319377Y-813258D02*
X-319377Y-827758D01*
X-333843Y-827758D01*
X-333843Y-813258D01*
X-319377Y-813258D01*
G37*
G36*
X-326610Y-820491D02*
X-341110Y-820491D01*
X-341110Y-806025D01*
X-326610Y-806025D01*
X-326610Y-820491D01*
G37*
G54D22*
G36*
X-276383Y-796800D02*
X-276383Y-782300D01*
X-269717Y-782300D01*
X-269717Y-796800D01*
X-276383Y-796800D01*
G37*
G36*
X-273050Y-793467D02*
X-258550Y-793467D01*
X-258550Y-800133D01*
X-273050Y-800133D01*
X-273050Y-793467D01*
G37*
G36*
X-269717Y-796800D02*
X-269717Y-811300D01*
X-276383Y-811300D01*
X-276383Y-796800D01*
X-269717Y-796800D01*
G37*
G36*
X-273050Y-800133D02*
X-287550Y-800133D01*
X-287550Y-793467D01*
X-273050Y-793467D01*
X-273050Y-800133D01*
G37*
G54D22*
G36*
X-206533Y-796800D02*
X-206533Y-782300D01*
X-199867Y-782300D01*
X-199867Y-796800D01*
X-206533Y-796800D01*
G37*
G36*
X-203200Y-793467D02*
X-188700Y-793467D01*
X-188700Y-800133D01*
X-203200Y-800133D01*
X-203200Y-793467D01*
G37*
G36*
X-199867Y-796800D02*
X-199867Y-811300D01*
X-206533Y-811300D01*
X-206533Y-796800D01*
X-199867Y-796800D01*
G37*
G36*
X-203200Y-800133D02*
X-217700Y-800133D01*
X-217700Y-793467D01*
X-203200Y-793467D01*
X-203200Y-800133D01*
G37*
G54D28*
G36*
X-822845Y-798785D02*
X-822845Y-814285D01*
X-830178Y-814285D01*
X-830178Y-798785D01*
X-822845Y-798785D01*
G37*
G36*
X-826512Y-802452D02*
X-842012Y-802452D01*
X-842012Y-795118D01*
X-826512Y-795118D01*
X-826512Y-802452D01*
G37*
G36*
X-830178Y-798785D02*
X-830178Y-783285D01*
X-822845Y-783285D01*
X-822845Y-798785D01*
X-830178Y-798785D01*
G37*
G36*
X-826512Y-795118D02*
X-811012Y-795118D01*
X-811012Y-802452D01*
X-826512Y-802452D01*
X-826512Y-795118D01*
G37*
G54D28*
G36*
X53455Y-798785D02*
X53455Y-814285D01*
X46122Y-814285D01*
X46122Y-798785D01*
X53455Y-798785D01*
G37*
G36*
X49788Y-802452D02*
X34288Y-802452D01*
X34288Y-795118D01*
X49788Y-795118D01*
X49788Y-802452D01*
G37*
G36*
X46122Y-798785D02*
X46122Y-783285D01*
X53455Y-783285D01*
X53455Y-798785D01*
X46122Y-798785D01*
G37*
G36*
X49788Y-795118D02*
X65288Y-795118D01*
X65288Y-802452D01*
X49788Y-802452D01*
X49788Y-795118D01*
G37*
G54D22*
G36*
X-530383Y-1000000D02*
X-530383Y-985500D01*
X-523717Y-985500D01*
X-523717Y-1000000D01*
X-530383Y-1000000D01*
G37*
G36*
X-527050Y-996667D02*
X-512550Y-996667D01*
X-512550Y-1003333D01*
X-527050Y-1003333D01*
X-527050Y-996667D01*
G37*
G36*
X-523717Y-1000000D02*
X-523717Y-1014500D01*
X-530383Y-1014500D01*
X-530383Y-1000000D01*
X-523717Y-1000000D01*
G37*
G36*
X-527050Y-1003333D02*
X-541550Y-1003333D01*
X-541550Y-996667D01*
X-527050Y-996667D01*
X-527050Y-1003333D01*
G37*
G54D22*
G36*
X-460533Y-1000000D02*
X-460533Y-985500D01*
X-453867Y-985500D01*
X-453867Y-1000000D01*
X-460533Y-1000000D01*
G37*
G36*
X-457200Y-996667D02*
X-442700Y-996667D01*
X-442700Y-1003333D01*
X-457200Y-1003333D01*
X-457200Y-996667D01*
G37*
G36*
X-453867Y-1000000D02*
X-453867Y-1014500D01*
X-460533Y-1014500D01*
X-460533Y-1000000D01*
X-453867Y-1000000D01*
G37*
G36*
X-457200Y-1003333D02*
X-471700Y-1003333D01*
X-471700Y-996667D01*
X-457200Y-996667D01*
X-457200Y-1003333D01*
G37*
G54D23*
G36*
X-398144Y-1016458D02*
X-398144Y-1001958D01*
X-382078Y-1001958D01*
X-382078Y-1016458D01*
X-398144Y-1016458D01*
G37*
G36*
X-390111Y-1008425D02*
X-375611Y-1008425D01*
X-375611Y-1024491D01*
X-390111Y-1024491D01*
X-390111Y-1008425D01*
G37*
G36*
X-382078Y-1016458D02*
X-382078Y-1030958D01*
X-398144Y-1030958D01*
X-398144Y-1016458D01*
X-382078Y-1016458D01*
G37*
G36*
X-390111Y-1024491D02*
X-404611Y-1024491D01*
X-404611Y-1008425D01*
X-390111Y-1008425D01*
X-390111Y-1024491D01*
G37*
G54D24*
G36*
X-333843Y-1016458D02*
X-333843Y-1001958D01*
X-319377Y-1001958D01*
X-319377Y-1016458D01*
X-333843Y-1016458D01*
G37*
G36*
X-326610Y-1009225D02*
X-312110Y-1009225D01*
X-312110Y-1023691D01*
X-326610Y-1023691D01*
X-326610Y-1009225D01*
G37*
G36*
X-319377Y-1016458D02*
X-319377Y-1030958D01*
X-333843Y-1030958D01*
X-333843Y-1016458D01*
X-319377Y-1016458D01*
G37*
G36*
X-326610Y-1023691D02*
X-341110Y-1023691D01*
X-341110Y-1009225D01*
X-326610Y-1009225D01*
X-326610Y-1023691D01*
G37*
G54D22*
G36*
X-276383Y-1000000D02*
X-276383Y-985500D01*
X-269717Y-985500D01*
X-269717Y-1000000D01*
X-276383Y-1000000D01*
G37*
G36*
X-273050Y-996667D02*
X-258550Y-996667D01*
X-258550Y-1003333D01*
X-273050Y-1003333D01*
X-273050Y-996667D01*
G37*
G36*
X-269717Y-1000000D02*
X-269717Y-1014500D01*
X-276383Y-1014500D01*
X-276383Y-1000000D01*
X-269717Y-1000000D01*
G37*
G36*
X-273050Y-1003333D02*
X-287550Y-1003333D01*
X-287550Y-996667D01*
X-273050Y-996667D01*
X-273050Y-1003333D01*
G37*
G54D22*
G36*
X-206533Y-1000000D02*
X-206533Y-985500D01*
X-199867Y-985500D01*
X-199867Y-1000000D01*
X-206533Y-1000000D01*
G37*
G36*
X-203200Y-996667D02*
X-188700Y-996667D01*
X-188700Y-1003333D01*
X-203200Y-1003333D01*
X-203200Y-996667D01*
G37*
G36*
X-199867Y-1000000D02*
X-199867Y-1014500D01*
X-206533Y-1014500D01*
X-206533Y-1000000D01*
X-199867Y-1000000D01*
G37*
G36*
X-203200Y-1003333D02*
X-217700Y-1003333D01*
X-217700Y-996667D01*
X-203200Y-996667D01*
X-203200Y-1003333D01*
G37*
G54D28*
G36*
X-822845Y-1001985D02*
X-822845Y-1017485D01*
X-830178Y-1017485D01*
X-830178Y-1001985D01*
X-822845Y-1001985D01*
G37*
G36*
X-826512Y-1005652D02*
X-842012Y-1005652D01*
X-842012Y-998318D01*
X-826512Y-998318D01*
X-826512Y-1005652D01*
G37*
G36*
X-830178Y-1001985D02*
X-830178Y-986485D01*
X-822845Y-986485D01*
X-822845Y-1001985D01*
X-830178Y-1001985D01*
G37*
G36*
X-826512Y-998318D02*
X-811012Y-998318D01*
X-811012Y-1005652D01*
X-826512Y-1005652D01*
X-826512Y-998318D01*
G37*
G54D28*
G36*
X53455Y-1001985D02*
X53455Y-1017485D01*
X46122Y-1017485D01*
X46122Y-1001985D01*
X53455Y-1001985D01*
G37*
G36*
X49788Y-1005652D02*
X34288Y-1005652D01*
X34288Y-998318D01*
X49788Y-998318D01*
X49788Y-1005652D01*
G37*
G36*
X46122Y-1001985D02*
X46122Y-986485D01*
X53455Y-986485D01*
X53455Y-1001985D01*
X46122Y-1001985D01*
G37*
G36*
X49788Y-998318D02*
X65288Y-998318D01*
X65288Y-1005652D01*
X49788Y-1005652D01*
X49788Y-998318D01*
G37*
G54D22*
G36*
X-530383Y-1203200D02*
X-530383Y-1188700D01*
X-523717Y-1188700D01*
X-523717Y-1203200D01*
X-530383Y-1203200D01*
G37*
G36*
X-527050Y-1199867D02*
X-512550Y-1199867D01*
X-512550Y-1206533D01*
X-527050Y-1206533D01*
X-527050Y-1199867D01*
G37*
G36*
X-523717Y-1203200D02*
X-523717Y-1217700D01*
X-530383Y-1217700D01*
X-530383Y-1203200D01*
X-523717Y-1203200D01*
G37*
G36*
X-527050Y-1206533D02*
X-541550Y-1206533D01*
X-541550Y-1199867D01*
X-527050Y-1199867D01*
X-527050Y-1206533D01*
G37*
G54D22*
G36*
X-460533Y-1203200D02*
X-460533Y-1188700D01*
X-453867Y-1188700D01*
X-453867Y-1203200D01*
X-460533Y-1203200D01*
G37*
G36*
X-457200Y-1199867D02*
X-442700Y-1199867D01*
X-442700Y-1206533D01*
X-457200Y-1206533D01*
X-457200Y-1199867D01*
G37*
G36*
X-453867Y-1203200D02*
X-453867Y-1217700D01*
X-460533Y-1217700D01*
X-460533Y-1203200D01*
X-453867Y-1203200D01*
G37*
G36*
X-457200Y-1206533D02*
X-471700Y-1206533D01*
X-471700Y-1199867D01*
X-457200Y-1199867D01*
X-457200Y-1206533D01*
G37*
G54D23*
G36*
X-398144Y-1219658D02*
X-398144Y-1205158D01*
X-382078Y-1205158D01*
X-382078Y-1219658D01*
X-398144Y-1219658D01*
G37*
G36*
X-390111Y-1211625D02*
X-375611Y-1211625D01*
X-375611Y-1227691D01*
X-390111Y-1227691D01*
X-390111Y-1211625D01*
G37*
G36*
X-382078Y-1219658D02*
X-382078Y-1234158D01*
X-398144Y-1234158D01*
X-398144Y-1219658D01*
X-382078Y-1219658D01*
G37*
G36*
X-390111Y-1227691D02*
X-404611Y-1227691D01*
X-404611Y-1211625D01*
X-390111Y-1211625D01*
X-390111Y-1227691D01*
G37*
G54D24*
G36*
X-333843Y-1219658D02*
X-333843Y-1205158D01*
X-319377Y-1205158D01*
X-319377Y-1219658D01*
X-333843Y-1219658D01*
G37*
G36*
X-326610Y-1212425D02*
X-312110Y-1212425D01*
X-312110Y-1226891D01*
X-326610Y-1226891D01*
X-326610Y-1212425D01*
G37*
G36*
X-319377Y-1219658D02*
X-319377Y-1234158D01*
X-333843Y-1234158D01*
X-333843Y-1219658D01*
X-319377Y-1219658D01*
G37*
G36*
X-326610Y-1226891D02*
X-341110Y-1226891D01*
X-341110Y-1212425D01*
X-326610Y-1212425D01*
X-326610Y-1226891D01*
G37*
G54D22*
G36*
X-276383Y-1203200D02*
X-276383Y-1188700D01*
X-269717Y-1188700D01*
X-269717Y-1203200D01*
X-276383Y-1203200D01*
G37*
G36*
X-273050Y-1199867D02*
X-258550Y-1199867D01*
X-258550Y-1206533D01*
X-273050Y-1206533D01*
X-273050Y-1199867D01*
G37*
G36*
X-269717Y-1203200D02*
X-269717Y-1217700D01*
X-276383Y-1217700D01*
X-276383Y-1203200D01*
X-269717Y-1203200D01*
G37*
G36*
X-273050Y-1206533D02*
X-287550Y-1206533D01*
X-287550Y-1199867D01*
X-273050Y-1199867D01*
X-273050Y-1206533D01*
G37*
G54D22*
G36*
X-206533Y-1203200D02*
X-206533Y-1188700D01*
X-199867Y-1188700D01*
X-199867Y-1203200D01*
X-206533Y-1203200D01*
G37*
G36*
X-203200Y-1199867D02*
X-188700Y-1199867D01*
X-188700Y-1206533D01*
X-203200Y-1206533D01*
X-203200Y-1199867D01*
G37*
G36*
X-199867Y-1203200D02*
X-199867Y-1217700D01*
X-206533Y-1217700D01*
X-206533Y-1203200D01*
X-199867Y-1203200D01*
G37*
G36*
X-203200Y-1206533D02*
X-217700Y-1206533D01*
X-217700Y-1199867D01*
X-203200Y-1199867D01*
X-203200Y-1206533D01*
G37*
G54D28*
G36*
X-822845Y-1205185D02*
X-822845Y-1220685D01*
X-830178Y-1220685D01*
X-830178Y-1205185D01*
X-822845Y-1205185D01*
G37*
G36*
X-826512Y-1208852D02*
X-842012Y-1208852D01*
X-842012Y-1201518D01*
X-826512Y-1201518D01*
X-826512Y-1208852D01*
G37*
G36*
X-830178Y-1205185D02*
X-830178Y-1189685D01*
X-822845Y-1189685D01*
X-822845Y-1205185D01*
X-830178Y-1205185D01*
G37*
G36*
X-826512Y-1201518D02*
X-811012Y-1201518D01*
X-811012Y-1208852D01*
X-826512Y-1208852D01*
X-826512Y-1201518D01*
G37*
G54D28*
G36*
X53455Y-1205185D02*
X53455Y-1220685D01*
X46122Y-1220685D01*
X46122Y-1205185D01*
X53455Y-1205185D01*
G37*
G36*
X49788Y-1208852D02*
X34288Y-1208852D01*
X34288Y-1201518D01*
X49788Y-1201518D01*
X49788Y-1208852D01*
G37*
G36*
X46122Y-1205185D02*
X46122Y-1189685D01*
X53455Y-1189685D01*
X53455Y-1205185D01*
X46122Y-1205185D01*
G37*
G36*
X49788Y-1201518D02*
X65288Y-1201518D01*
X65288Y-1208852D01*
X49788Y-1208852D01*
X49788Y-1201518D01*
G37*
G54D28*
G36*
X-777383Y-612650D02*
X-777383Y-628150D01*
X-784717Y-628150D01*
X-784717Y-612650D01*
X-777383Y-612650D01*
G37*
G36*
X-781050Y-616317D02*
X-796550Y-616317D01*
X-796550Y-608983D01*
X-781050Y-608983D01*
X-781050Y-616317D01*
G37*
G36*
X-784717Y-612650D02*
X-784717Y-597150D01*
X-777383Y-597150D01*
X-777383Y-612650D01*
X-784717Y-612650D01*
G37*
G36*
X-781050Y-608983D02*
X-765550Y-608983D01*
X-765550Y-616317D01*
X-781050Y-616317D01*
X-781050Y-608983D01*
G37*
G54D28*
G36*
X-777383Y-815850D02*
X-777383Y-831350D01*
X-784717Y-831350D01*
X-784717Y-815850D01*
X-777383Y-815850D01*
G37*
G36*
X-781050Y-819517D02*
X-796550Y-819517D01*
X-796550Y-812183D01*
X-781050Y-812183D01*
X-781050Y-819517D01*
G37*
G36*
X-784717Y-815850D02*
X-784717Y-800350D01*
X-777383Y-800350D01*
X-777383Y-815850D01*
X-784717Y-815850D01*
G37*
G36*
X-781050Y-812183D02*
X-765550Y-812183D01*
X-765550Y-819517D01*
X-781050Y-819517D01*
X-781050Y-812183D01*
G37*
G54D28*
G36*
X-777383Y-1019050D02*
X-777383Y-1034550D01*
X-784717Y-1034550D01*
X-784717Y-1019050D01*
X-777383Y-1019050D01*
G37*
G36*
X-781050Y-1022717D02*
X-796550Y-1022717D01*
X-796550Y-1015383D01*
X-781050Y-1015383D01*
X-781050Y-1022717D01*
G37*
G36*
X-784717Y-1019050D02*
X-784717Y-1003550D01*
X-777383Y-1003550D01*
X-777383Y-1019050D01*
X-784717Y-1019050D01*
G37*
G36*
X-781050Y-1015383D02*
X-765550Y-1015383D01*
X-765550Y-1022717D01*
X-781050Y-1022717D01*
X-781050Y-1015383D01*
G37*
G54D28*
G36*
X98917Y-1222250D02*
X98917Y-1237750D01*
X91583Y-1237750D01*
X91583Y-1222250D01*
X98917Y-1222250D01*
G37*
G36*
X95250Y-1225917D02*
X79750Y-1225917D01*
X79750Y-1218583D01*
X95250Y-1218583D01*
X95250Y-1225917D01*
G37*
G36*
X91583Y-1222250D02*
X91583Y-1206750D01*
X98917Y-1206750D01*
X98917Y-1222250D01*
X91583Y-1222250D01*
G37*
G36*
X95250Y-1218583D02*
X110750Y-1218583D01*
X110750Y-1225917D01*
X95250Y-1225917D01*
X95250Y-1218583D01*
G37*
G54D28*
G36*
X98917Y-1019050D02*
X98917Y-1034550D01*
X91583Y-1034550D01*
X91583Y-1019050D01*
X98917Y-1019050D01*
G37*
G36*
X95250Y-1022717D02*
X79750Y-1022717D01*
X79750Y-1015383D01*
X95250Y-1015383D01*
X95250Y-1022717D01*
G37*
G36*
X91583Y-1019050D02*
X91583Y-1003550D01*
X98917Y-1003550D01*
X98917Y-1019050D01*
X91583Y-1019050D01*
G37*
G36*
X95250Y-1015383D02*
X110750Y-1015383D01*
X110750Y-1022717D01*
X95250Y-1022717D01*
X95250Y-1015383D01*
G37*
G54D28*
G36*
X98917Y-815850D02*
X98917Y-831350D01*
X91583Y-831350D01*
X91583Y-815850D01*
X98917Y-815850D01*
G37*
G36*
X95250Y-819517D02*
X79750Y-819517D01*
X79750Y-812183D01*
X95250Y-812183D01*
X95250Y-819517D01*
G37*
G36*
X91583Y-815850D02*
X91583Y-800350D01*
X98917Y-800350D01*
X98917Y-815850D01*
X91583Y-815850D01*
G37*
G36*
X95250Y-812183D02*
X110750Y-812183D01*
X110750Y-819517D01*
X95250Y-819517D01*
X95250Y-812183D01*
G37*
G54D28*
G36*
X98917Y-612650D02*
X98917Y-628150D01*
X91583Y-628150D01*
X91583Y-612650D01*
X98917Y-612650D01*
G37*
G36*
X95250Y-616317D02*
X79750Y-616317D01*
X79750Y-608983D01*
X95250Y-608983D01*
X95250Y-616317D01*
G37*
G36*
X91583Y-612650D02*
X91583Y-597150D01*
X98917Y-597150D01*
X98917Y-612650D01*
X91583Y-612650D01*
G37*
G36*
X95250Y-608983D02*
X110750Y-608983D01*
X110750Y-616317D01*
X95250Y-616317D01*
X95250Y-608983D01*
G37*
G54D28*
G36*
X98917Y-409450D02*
X98917Y-424950D01*
X91583Y-424950D01*
X91583Y-409450D01*
X98917Y-409450D01*
G37*
G36*
X95250Y-413117D02*
X79750Y-413117D01*
X79750Y-405783D01*
X95250Y-405783D01*
X95250Y-413117D01*
G37*
G36*
X91583Y-409450D02*
X91583Y-393950D01*
X98917Y-393950D01*
X98917Y-409450D01*
X91583Y-409450D01*
G37*
G36*
X95250Y-405783D02*
X110750Y-405783D01*
X110750Y-413117D01*
X95250Y-413117D01*
X95250Y-405783D01*
G37*
G54D28*
G36*
X98917Y-206250D02*
X98917Y-221750D01*
X91583Y-221750D01*
X91583Y-206250D01*
X98917Y-206250D01*
G37*
G36*
X95250Y-209917D02*
X79750Y-209917D01*
X79750Y-202583D01*
X95250Y-202583D01*
X95250Y-209917D01*
G37*
G36*
X91583Y-206250D02*
X91583Y-190750D01*
X98917Y-190750D01*
X98917Y-206250D01*
X91583Y-206250D01*
G37*
G36*
X95250Y-202583D02*
X110750Y-202583D01*
X110750Y-209917D01*
X95250Y-209917D01*
X95250Y-202583D01*
G37*
G54D28*
G36*
X-714867Y-222126D02*
X-714867Y-206626D01*
X-707533Y-206626D01*
X-707533Y-222126D01*
X-714867Y-222126D01*
G37*
G36*
X-711200Y-218459D02*
X-695700Y-218459D01*
X-695700Y-225793D01*
X-711200Y-225793D01*
X-711200Y-218459D01*
G37*
G36*
X-707533Y-222126D02*
X-707533Y-237626D01*
X-714867Y-237626D01*
X-714867Y-222126D01*
X-707533Y-222126D01*
G37*
G36*
X-711200Y-225793D02*
X-726700Y-225793D01*
X-726700Y-218459D01*
X-711200Y-218459D01*
X-711200Y-225793D01*
G37*
G54D28*
G36*
X-20473Y-219562D02*
X-20473Y-204062D01*
X-13139Y-204062D01*
X-13139Y-219562D01*
X-20473Y-219562D01*
G37*
G36*
X-16806Y-215895D02*
X-1306Y-215895D01*
X-1306Y-223229D01*
X-16806Y-223229D01*
X-16806Y-215895D01*
G37*
G36*
X-13139Y-219562D02*
X-13139Y-235062D01*
X-20473Y-235062D01*
X-20473Y-219562D01*
X-13139Y-219562D01*
G37*
G36*
X-16806Y-223229D02*
X-32306Y-223229D01*
X-32306Y-215895D01*
X-16806Y-215895D01*
X-16806Y-223229D01*
G37*
G54D28*
G36*
X-714867Y-425326D02*
X-714867Y-409826D01*
X-707533Y-409826D01*
X-707533Y-425326D01*
X-714867Y-425326D01*
G37*
G36*
X-711200Y-421659D02*
X-695700Y-421659D01*
X-695700Y-428993D01*
X-711200Y-428993D01*
X-711200Y-421659D01*
G37*
G36*
X-707533Y-425326D02*
X-707533Y-440826D01*
X-714867Y-440826D01*
X-714867Y-425326D01*
X-707533Y-425326D01*
G37*
G36*
X-711200Y-428993D02*
X-726700Y-428993D01*
X-726700Y-421659D01*
X-711200Y-421659D01*
X-711200Y-428993D01*
G37*
G54D28*
G36*
X-20473Y-422762D02*
X-20473Y-407262D01*
X-13139Y-407262D01*
X-13139Y-422762D01*
X-20473Y-422762D01*
G37*
G36*
X-16806Y-419095D02*
X-1306Y-419095D01*
X-1306Y-426429D01*
X-16806Y-426429D01*
X-16806Y-419095D01*
G37*
G36*
X-13139Y-422762D02*
X-13139Y-438262D01*
X-20473Y-438262D01*
X-20473Y-422762D01*
X-13139Y-422762D01*
G37*
G36*
X-16806Y-426429D02*
X-32306Y-426429D01*
X-32306Y-419095D01*
X-16806Y-419095D01*
X-16806Y-426429D01*
G37*
G54D28*
G36*
X-714867Y-628526D02*
X-714867Y-613026D01*
X-707533Y-613026D01*
X-707533Y-628526D01*
X-714867Y-628526D01*
G37*
G36*
X-711200Y-624859D02*
X-695700Y-624859D01*
X-695700Y-632193D01*
X-711200Y-632193D01*
X-711200Y-624859D01*
G37*
G36*
X-707533Y-628526D02*
X-707533Y-644026D01*
X-714867Y-644026D01*
X-714867Y-628526D01*
X-707533Y-628526D01*
G37*
G36*
X-711200Y-632193D02*
X-726700Y-632193D01*
X-726700Y-624859D01*
X-711200Y-624859D01*
X-711200Y-632193D01*
G37*
G54D28*
G36*
X-20473Y-625962D02*
X-20473Y-610462D01*
X-13139Y-610462D01*
X-13139Y-625962D01*
X-20473Y-625962D01*
G37*
G36*
X-16806Y-622295D02*
X-1306Y-622295D01*
X-1306Y-629629D01*
X-16806Y-629629D01*
X-16806Y-622295D01*
G37*
G36*
X-13139Y-625962D02*
X-13139Y-641462D01*
X-20473Y-641462D01*
X-20473Y-625962D01*
X-13139Y-625962D01*
G37*
G36*
X-16806Y-629629D02*
X-32306Y-629629D01*
X-32306Y-622295D01*
X-16806Y-622295D01*
X-16806Y-629629D01*
G37*
G54D28*
G36*
X-714867Y-831726D02*
X-714867Y-816226D01*
X-707533Y-816226D01*
X-707533Y-831726D01*
X-714867Y-831726D01*
G37*
G36*
X-711200Y-828059D02*
X-695700Y-828059D01*
X-695700Y-835393D01*
X-711200Y-835393D01*
X-711200Y-828059D01*
G37*
G36*
X-707533Y-831726D02*
X-707533Y-847226D01*
X-714867Y-847226D01*
X-714867Y-831726D01*
X-707533Y-831726D01*
G37*
G36*
X-711200Y-835393D02*
X-726700Y-835393D01*
X-726700Y-828059D01*
X-711200Y-828059D01*
X-711200Y-835393D01*
G37*
G54D28*
G36*
X-20473Y-829162D02*
X-20473Y-813662D01*
X-13139Y-813662D01*
X-13139Y-829162D01*
X-20473Y-829162D01*
G37*
G36*
X-16806Y-825495D02*
X-1306Y-825495D01*
X-1306Y-832829D01*
X-16806Y-832829D01*
X-16806Y-825495D01*
G37*
G36*
X-13139Y-829162D02*
X-13139Y-844662D01*
X-20473Y-844662D01*
X-20473Y-829162D01*
X-13139Y-829162D01*
G37*
G36*
X-16806Y-832829D02*
X-32306Y-832829D01*
X-32306Y-825495D01*
X-16806Y-825495D01*
X-16806Y-832829D01*
G37*
G54D28*
G36*
X-714867Y-1034926D02*
X-714867Y-1019426D01*
X-707533Y-1019426D01*
X-707533Y-1034926D01*
X-714867Y-1034926D01*
G37*
G36*
X-711200Y-1031259D02*
X-695700Y-1031259D01*
X-695700Y-1038593D01*
X-711200Y-1038593D01*
X-711200Y-1031259D01*
G37*
G36*
X-707533Y-1034926D02*
X-707533Y-1050426D01*
X-714867Y-1050426D01*
X-714867Y-1034926D01*
X-707533Y-1034926D01*
G37*
G36*
X-711200Y-1038593D02*
X-726700Y-1038593D01*
X-726700Y-1031259D01*
X-711200Y-1031259D01*
X-711200Y-1038593D01*
G37*
G54D28*
G36*
X-20473Y-1032362D02*
X-20473Y-1016862D01*
X-13139Y-1016862D01*
X-13139Y-1032362D01*
X-20473Y-1032362D01*
G37*
G36*
X-16806Y-1028695D02*
X-1306Y-1028695D01*
X-1306Y-1036029D01*
X-16806Y-1036029D01*
X-16806Y-1028695D01*
G37*
G36*
X-13139Y-1032362D02*
X-13139Y-1047862D01*
X-20473Y-1047862D01*
X-20473Y-1032362D01*
X-13139Y-1032362D01*
G37*
G36*
X-16806Y-1036029D02*
X-32306Y-1036029D01*
X-32306Y-1028695D01*
X-16806Y-1028695D01*
X-16806Y-1036029D01*
G37*
G54D29*
G36*
X-715867Y-1238126D02*
X-715867Y-1219626D01*
X-706533Y-1219626D01*
X-706533Y-1238126D01*
X-715867Y-1238126D01*
G37*
G36*
X-711200Y-1233459D02*
X-692700Y-1233459D01*
X-692700Y-1242793D01*
X-711200Y-1242793D01*
X-711200Y-1233459D01*
G37*
G36*
X-706533Y-1238126D02*
X-706533Y-1256626D01*
X-715867Y-1256626D01*
X-715867Y-1238126D01*
X-706533Y-1238126D01*
G37*
G36*
X-711200Y-1242793D02*
X-729700Y-1242793D01*
X-729700Y-1233459D01*
X-711200Y-1233459D01*
X-711200Y-1242793D01*
G37*
G54D28*
G36*
X-20473Y-1235562D02*
X-20473Y-1220062D01*
X-13139Y-1220062D01*
X-13139Y-1235562D01*
X-20473Y-1235562D01*
G37*
G36*
X-16806Y-1231895D02*
X-1306Y-1231895D01*
X-1306Y-1239229D01*
X-16806Y-1239229D01*
X-16806Y-1231895D01*
G37*
G36*
X-13139Y-1235562D02*
X-13139Y-1251062D01*
X-20473Y-1251062D01*
X-20473Y-1235562D01*
X-13139Y-1235562D01*
G37*
G36*
X-16806Y-1239229D02*
X-32306Y-1239229D01*
X-32306Y-1231895D01*
X-16806Y-1231895D01*
X-16806Y-1239229D01*
G37*
G54D28*
G36*
X-1008223Y-589242D02*
X-992723Y-589242D01*
X-992723Y-596576D01*
X-1008223Y-596576D01*
X-1008223Y-589242D01*
G37*
G36*
X-1004556Y-592909D02*
X-1004556Y-608409D01*
X-1011890Y-608409D01*
X-1011890Y-592909D01*
X-1004556Y-592909D01*
G37*
G36*
X-1008223Y-596576D02*
X-1023723Y-596576D01*
X-1023723Y-589242D01*
X-1008223Y-589242D01*
X-1008223Y-596576D01*
G37*
G36*
X-1011890Y-592909D02*
X-1011890Y-577409D01*
X-1004556Y-577409D01*
X-1004556Y-592909D01*
X-1011890Y-592909D01*
G37*
G54D27*
G36*
X-714017Y-1309550D02*
X-714017Y-1295050D01*
X-702083Y-1295050D01*
X-702083Y-1309550D01*
X-714017Y-1309550D01*
G37*
G36*
X-708050Y-1303583D02*
X-693550Y-1303583D01*
X-693550Y-1315517D01*
X-708050Y-1315517D01*
X-708050Y-1303583D01*
G37*
G36*
X-702083Y-1309550D02*
X-702083Y-1324050D01*
X-714017Y-1324050D01*
X-714017Y-1309550D01*
X-702083Y-1309550D01*
G37*
G36*
X-708050Y-1315517D02*
X-722550Y-1315517D01*
X-722550Y-1303583D01*
X-708050Y-1303583D01*
X-708050Y-1315517D01*
G37*
G54D27*
G36*
X-561617Y-1309550D02*
X-561617Y-1295050D01*
X-549683Y-1295050D01*
X-549683Y-1309550D01*
X-561617Y-1309550D01*
G37*
G36*
X-555650Y-1303583D02*
X-541150Y-1303583D01*
X-541150Y-1315517D01*
X-555650Y-1315517D01*
X-555650Y-1303583D01*
G37*
G36*
X-549683Y-1309550D02*
X-549683Y-1324050D01*
X-561617Y-1324050D01*
X-561617Y-1309550D01*
X-549683Y-1309550D01*
G37*
G36*
X-555650Y-1315517D02*
X-570150Y-1315517D01*
X-570150Y-1303583D01*
X-555650Y-1303583D01*
X-555650Y-1315517D01*
G37*
G54D27*
G36*
X-345717Y-1309550D02*
X-345717Y-1295050D01*
X-333783Y-1295050D01*
X-333783Y-1309550D01*
X-345717Y-1309550D01*
G37*
G36*
X-339750Y-1303583D02*
X-325250Y-1303583D01*
X-325250Y-1315517D01*
X-339750Y-1315517D01*
X-339750Y-1303583D01*
G37*
G36*
X-333783Y-1309550D02*
X-333783Y-1324050D01*
X-345717Y-1324050D01*
X-345717Y-1309550D01*
X-333783Y-1309550D01*
G37*
G36*
X-339750Y-1315517D02*
X-354250Y-1315517D01*
X-354250Y-1303583D01*
X-339750Y-1303583D01*
X-339750Y-1315517D01*
G37*
G54D27*
G36*
X-167917Y-1309550D02*
X-167917Y-1295050D01*
X-155983Y-1295050D01*
X-155983Y-1309550D01*
X-167917Y-1309550D01*
G37*
G36*
X-161950Y-1303583D02*
X-147450Y-1303583D01*
X-147450Y-1315517D01*
X-161950Y-1315517D01*
X-161950Y-1303583D01*
G37*
G36*
X-155983Y-1309550D02*
X-155983Y-1324050D01*
X-167917Y-1324050D01*
X-167917Y-1309550D01*
X-155983Y-1309550D01*
G37*
G36*
X-161950Y-1315517D02*
X-176450Y-1315517D01*
X-176450Y-1303583D01*
X-161950Y-1303583D01*
X-161950Y-1315517D01*
G37*
G54D27*
G36*
X-2817Y-1309550D02*
X-2817Y-1295050D01*
X9117Y-1295050D01*
X9117Y-1309550D01*
X-2817Y-1309550D01*
G37*
G36*
X3150Y-1303583D02*
X17650Y-1303583D01*
X17650Y-1315517D01*
X3150Y-1315517D01*
X3150Y-1303583D01*
G37*
G36*
X9117Y-1309550D02*
X9117Y-1324050D01*
X-2817Y-1324050D01*
X-2817Y-1309550D01*
X9117Y-1309550D01*
G37*
G36*
X3150Y-1315517D02*
X-11350Y-1315517D01*
X-11350Y-1303583D01*
X3150Y-1303583D01*
X3150Y-1315517D01*
G37*
G54D28*
G36*
X-777383Y-206250D02*
X-777383Y-221750D01*
X-784717Y-221750D01*
X-784717Y-206250D01*
X-777383Y-206250D01*
G37*
G36*
X-781050Y-209917D02*
X-796550Y-209917D01*
X-796550Y-202583D01*
X-781050Y-202583D01*
X-781050Y-209917D01*
G37*
G36*
X-784717Y-206250D02*
X-784717Y-190750D01*
X-777383Y-190750D01*
X-777383Y-206250D01*
X-784717Y-206250D01*
G37*
G36*
X-781050Y-202583D02*
X-765550Y-202583D01*
X-765550Y-209917D01*
X-781050Y-209917D01*
X-781050Y-202583D01*
G37*
G54D28*
G36*
X-872814Y-343012D02*
X-872814Y-358512D01*
X-880147Y-358512D01*
X-880147Y-343012D01*
X-872814Y-343012D01*
G37*
G36*
X-876480Y-346679D02*
X-891980Y-346679D01*
X-891980Y-339346D01*
X-876480Y-339346D01*
X-876480Y-346679D01*
G37*
G36*
X-880147Y-343012D02*
X-880147Y-327512D01*
X-872814Y-327512D01*
X-872814Y-343012D01*
X-880147Y-343012D01*
G37*
G36*
X-876480Y-339346D02*
X-860980Y-339346D01*
X-860980Y-346679D01*
X-876480Y-346679D01*
X-876480Y-339346D01*
G37*
G54D28*
G36*
X-822845Y-189185D02*
X-822845Y-204685D01*
X-830178Y-204685D01*
X-830178Y-189185D01*
X-822845Y-189185D01*
G37*
G36*
X-826512Y-192852D02*
X-842012Y-192852D01*
X-842012Y-185518D01*
X-826512Y-185518D01*
X-826512Y-192852D01*
G37*
G36*
X-830178Y-189185D02*
X-830178Y-173685D01*
X-822845Y-173685D01*
X-822845Y-189185D01*
X-830178Y-189185D01*
G37*
G36*
X-826512Y-185518D02*
X-811012Y-185518D01*
X-811012Y-192852D01*
X-826512Y-192852D01*
X-826512Y-185518D01*
G37*
G54D28*
G36*
X-777383Y-206250D02*
X-777383Y-221750D01*
X-784717Y-221750D01*
X-784717Y-206250D01*
X-777383Y-206250D01*
G37*
G36*
X-781050Y-209917D02*
X-796550Y-209917D01*
X-796550Y-202583D01*
X-781050Y-202583D01*
X-781050Y-209917D01*
G37*
G36*
X-784717Y-206250D02*
X-784717Y-190750D01*
X-777383Y-190750D01*
X-777383Y-206250D01*
X-784717Y-206250D01*
G37*
G36*
X-781050Y-202583D02*
X-765550Y-202583D01*
X-765550Y-209917D01*
X-781050Y-209917D01*
X-781050Y-202583D01*
G37*
G54D28*
G36*
X-913494Y-368758D02*
X-913494Y-384258D01*
X-920827Y-384258D01*
X-920827Y-368758D01*
X-913494Y-368758D01*
G37*
G36*
X-917160Y-372424D02*
X-932660Y-372424D01*
X-932660Y-365091D01*
X-917160Y-365091D01*
X-917160Y-372424D01*
G37*
G36*
X-920827Y-368758D02*
X-920827Y-353258D01*
X-913494Y-353258D01*
X-913494Y-368758D01*
X-920827Y-368758D01*
G37*
G36*
X-917160Y-365091D02*
X-901660Y-365091D01*
X-901660Y-372424D01*
X-917160Y-372424D01*
X-917160Y-365091D01*
G37*
G54D28*
G36*
X-777383Y-1222250D02*
X-777383Y-1237750D01*
X-784717Y-1237750D01*
X-784717Y-1222250D01*
X-777383Y-1222250D01*
G37*
G36*
X-781050Y-1225917D02*
X-796550Y-1225917D01*
X-796550Y-1218583D01*
X-781050Y-1218583D01*
X-781050Y-1225917D01*
G37*
G36*
X-784717Y-1222250D02*
X-784717Y-1206750D01*
X-777383Y-1206750D01*
X-777383Y-1222250D01*
X-784717Y-1222250D01*
G37*
G36*
X-781050Y-1218583D02*
X-765550Y-1218583D01*
X-765550Y-1225917D01*
X-781050Y-1225917D01*
X-781050Y-1218583D01*
G37*
G54D28*
G36*
X98917Y-1222250D02*
X98917Y-1237750D01*
X91583Y-1237750D01*
X91583Y-1222250D01*
X98917Y-1222250D01*
G37*
G36*
X95250Y-1225917D02*
X79750Y-1225917D01*
X79750Y-1218583D01*
X95250Y-1218583D01*
X95250Y-1225917D01*
G37*
G36*
X91583Y-1222250D02*
X91583Y-1206750D01*
X98917Y-1206750D01*
X98917Y-1222250D01*
X91583Y-1222250D01*
G37*
G36*
X95250Y-1218583D02*
X110750Y-1218583D01*
X110750Y-1225917D01*
X95250Y-1225917D01*
X95250Y-1218583D01*
G37*
G54D28*
G36*
X53455Y-1205185D02*
X53455Y-1220685D01*
X46122Y-1220685D01*
X46122Y-1205185D01*
X53455Y-1205185D01*
G37*
G36*
X49788Y-1208852D02*
X34288Y-1208852D01*
X34288Y-1201518D01*
X49788Y-1201518D01*
X49788Y-1208852D01*
G37*
G36*
X46122Y-1205185D02*
X46122Y-1189685D01*
X53455Y-1189685D01*
X53455Y-1205185D01*
X46122Y-1205185D01*
G37*
G36*
X49788Y-1201518D02*
X65288Y-1201518D01*
X65288Y-1208852D01*
X49788Y-1208852D01*
X49788Y-1201518D01*
G37*
G54D28*
G36*
X-885333Y-304800D02*
X-885333Y-320300D01*
X-892667Y-320300D01*
X-892667Y-304800D01*
X-885333Y-304800D01*
G37*
G36*
X-889000Y-308467D02*
X-904500Y-308467D01*
X-904500Y-301133D01*
X-889000Y-301133D01*
X-889000Y-308467D01*
G37*
G36*
X-892667Y-304800D02*
X-892667Y-289300D01*
X-885333Y-289300D01*
X-885333Y-304800D01*
X-892667Y-304800D01*
G37*
G36*
X-889000Y-301133D02*
X-873500Y-301133D01*
X-873500Y-308467D01*
X-889000Y-308467D01*
X-889000Y-301133D01*
G37*
G54D28*
G36*
X231283Y-365000D02*
X231283Y-349500D01*
X238617Y-349500D01*
X238617Y-365000D01*
X231283Y-365000D01*
G37*
G36*
X234950Y-361333D02*
X250450Y-361333D01*
X250450Y-368667D01*
X234950Y-368667D01*
X234950Y-361333D01*
G37*
G36*
X238617Y-365000D02*
X238617Y-380500D01*
X231283Y-380500D01*
X231283Y-365000D01*
X238617Y-365000D01*
G37*
G36*
X234950Y-368667D02*
X219450Y-368667D01*
X219450Y-361333D01*
X234950Y-361333D01*
X234950Y-368667D01*
G37*
G54D28*
G36*
X307483Y-365000D02*
X307483Y-349500D01*
X314817Y-349500D01*
X314817Y-365000D01*
X307483Y-365000D01*
G37*
G36*
X311150Y-361333D02*
X326650Y-361333D01*
X326650Y-368667D01*
X311150Y-368667D01*
X311150Y-361333D01*
G37*
G36*
X314817Y-365000D02*
X314817Y-380500D01*
X307483Y-380500D01*
X307483Y-365000D01*
X314817Y-365000D01*
G37*
G36*
X311150Y-368667D02*
X295650Y-368667D01*
X295650Y-361333D01*
X311150Y-361333D01*
X311150Y-368667D01*
G37*
G54D28*
G36*
X231283Y-504700D02*
X231283Y-489200D01*
X238617Y-489200D01*
X238617Y-504700D01*
X231283Y-504700D01*
G37*
G36*
X234950Y-501033D02*
X250450Y-501033D01*
X250450Y-508367D01*
X234950Y-508367D01*
X234950Y-501033D01*
G37*
G36*
X238617Y-504700D02*
X238617Y-520200D01*
X231283Y-520200D01*
X231283Y-504700D01*
X238617Y-504700D01*
G37*
G36*
X234950Y-508367D02*
X219450Y-508367D01*
X219450Y-501033D01*
X234950Y-501033D01*
X234950Y-508367D01*
G37*
G54D28*
G36*
X307483Y-504700D02*
X307483Y-489200D01*
X314817Y-489200D01*
X314817Y-504700D01*
X307483Y-504700D01*
G37*
G36*
X311150Y-501033D02*
X326650Y-501033D01*
X326650Y-508367D01*
X311150Y-508367D01*
X311150Y-501033D01*
G37*
G36*
X314817Y-504700D02*
X314817Y-520200D01*
X307483Y-520200D01*
X307483Y-504700D01*
X314817Y-504700D01*
G37*
G36*
X311150Y-508367D02*
X295650Y-508367D01*
X295650Y-501033D01*
X311150Y-501033D01*
X311150Y-508367D01*
G37*
G54D28*
G36*
X231283Y-212600D02*
X231283Y-197100D01*
X238617Y-197100D01*
X238617Y-212600D01*
X231283Y-212600D01*
G37*
G36*
X234950Y-208933D02*
X250450Y-208933D01*
X250450Y-216267D01*
X234950Y-216267D01*
X234950Y-208933D01*
G37*
G36*
X238617Y-212600D02*
X238617Y-228100D01*
X231283Y-228100D01*
X231283Y-212600D01*
X238617Y-212600D01*
G37*
G36*
X234950Y-216267D02*
X219450Y-216267D01*
X219450Y-208933D01*
X234950Y-208933D01*
X234950Y-216267D01*
G37*
G54D28*
G36*
X307483Y-212600D02*
X307483Y-197100D01*
X314817Y-197100D01*
X314817Y-212600D01*
X307483Y-212600D01*
G37*
G36*
X311150Y-208933D02*
X326650Y-208933D01*
X326650Y-216267D01*
X311150Y-216267D01*
X311150Y-208933D01*
G37*
G36*
X314817Y-212600D02*
X314817Y-228100D01*
X307483Y-228100D01*
X307483Y-212600D01*
X314817Y-212600D01*
G37*
G36*
X311150Y-216267D02*
X295650Y-216267D01*
X295650Y-208933D01*
X311150Y-208933D01*
X311150Y-216267D01*
G37*
G54D28*
G36*
X212233Y-720600D02*
X212233Y-705100D01*
X219567Y-705100D01*
X219567Y-720600D01*
X212233Y-720600D01*
G37*
G36*
X215900Y-716933D02*
X231400Y-716933D01*
X231400Y-724267D01*
X215900Y-724267D01*
X215900Y-716933D01*
G37*
G36*
X219567Y-720600D02*
X219567Y-736100D01*
X212233Y-736100D01*
X212233Y-720600D01*
X219567Y-720600D01*
G37*
G36*
X215900Y-724267D02*
X200400Y-724267D01*
X200400Y-716933D01*
X215900Y-716933D01*
X215900Y-724267D01*
G37*
G54D28*
G36*
X288433Y-720600D02*
X288433Y-705100D01*
X295767Y-705100D01*
X295767Y-720600D01*
X288433Y-720600D01*
G37*
G36*
X292100Y-716933D02*
X307600Y-716933D01*
X307600Y-724267D01*
X292100Y-724267D01*
X292100Y-716933D01*
G37*
G36*
X295767Y-720600D02*
X295767Y-736100D01*
X288433Y-736100D01*
X288433Y-720600D01*
X295767Y-720600D01*
G37*
G36*
X292100Y-724267D02*
X276600Y-724267D01*
X276600Y-716933D01*
X292100Y-716933D01*
X292100Y-724267D01*
G37*
G54D28*
G36*
X212233Y-898400D02*
X212233Y-882900D01*
X219567Y-882900D01*
X219567Y-898400D01*
X212233Y-898400D01*
G37*
G36*
X215900Y-894733D02*
X231400Y-894733D01*
X231400Y-902067D01*
X215900Y-902067D01*
X215900Y-894733D01*
G37*
G36*
X219567Y-898400D02*
X219567Y-913900D01*
X212233Y-913900D01*
X212233Y-898400D01*
X219567Y-898400D01*
G37*
G36*
X215900Y-902067D02*
X200400Y-902067D01*
X200400Y-894733D01*
X215900Y-894733D01*
X215900Y-902067D01*
G37*
G54D28*
G36*
X288433Y-898400D02*
X288433Y-882900D01*
X295767Y-882900D01*
X295767Y-898400D01*
X288433Y-898400D01*
G37*
G36*
X292100Y-894733D02*
X307600Y-894733D01*
X307600Y-902067D01*
X292100Y-902067D01*
X292100Y-894733D01*
G37*
G36*
X295767Y-898400D02*
X295767Y-913900D01*
X288433Y-913900D01*
X288433Y-898400D01*
X295767Y-898400D01*
G37*
G36*
X292100Y-902067D02*
X276600Y-902067D01*
X276600Y-894733D01*
X292100Y-894733D01*
X292100Y-902067D01*
G37*
G54D28*
G36*
X212233Y-1076200D02*
X212233Y-1060700D01*
X219567Y-1060700D01*
X219567Y-1076200D01*
X212233Y-1076200D01*
G37*
G36*
X215900Y-1072533D02*
X231400Y-1072533D01*
X231400Y-1079867D01*
X215900Y-1079867D01*
X215900Y-1072533D01*
G37*
G36*
X219567Y-1076200D02*
X219567Y-1091700D01*
X212233Y-1091700D01*
X212233Y-1076200D01*
X219567Y-1076200D01*
G37*
G36*
X215900Y-1079867D02*
X200400Y-1079867D01*
X200400Y-1072533D01*
X215900Y-1072533D01*
X215900Y-1079867D01*
G37*
G54D28*
G36*
X288433Y-1076200D02*
X288433Y-1060700D01*
X295767Y-1060700D01*
X295767Y-1076200D01*
X288433Y-1076200D01*
G37*
G36*
X292100Y-1072533D02*
X307600Y-1072533D01*
X307600Y-1079867D01*
X292100Y-1079867D01*
X292100Y-1072533D01*
G37*
G36*
X295767Y-1076200D02*
X295767Y-1091700D01*
X288433Y-1091700D01*
X288433Y-1076200D01*
X295767Y-1076200D01*
G37*
G36*
X292100Y-1079867D02*
X276600Y-1079867D01*
X276600Y-1072533D01*
X292100Y-1072533D01*
X292100Y-1079867D01*
G37*
X-785675Y-29175D02*
G54D30*
D03*
X-760175Y-29175D02*
G54D30*
D03*
X-595175Y-29175D02*
G54D30*
D03*
X-569675Y-29175D02*
G54D30*
D03*
X-273050Y-117350D02*
G54D30*
D03*
X-203200Y-117350D02*
G54D30*
D03*
X-273050Y-187200D02*
G54D30*
D03*
X-203200Y-187200D02*
G54D30*
D03*
X-203200Y-155450D02*
G54D30*
D03*
X-273050Y-155450D02*
G54D30*
D03*
X-329159Y-108579D02*
G54D30*
D03*
X-380140Y-108691D02*
G54D30*
D03*
X-527050Y-117350D02*
G54D30*
D03*
X-457200Y-117350D02*
G54D30*
D03*
X-527050Y-187200D02*
G54D30*
D03*
X-457200Y-187200D02*
G54D30*
D03*
X-457200Y-155450D02*
G54D30*
D03*
X-527050Y-155450D02*
G54D30*
D03*
X-390223Y-152677D02*
G54D30*
D03*
X-390110Y-203658D02*
G54D30*
D03*
X-326723Y-152677D02*
G54D30*
D03*
X-326610Y-203658D02*
G54D30*
D03*
X-781050Y-206250D02*
G54D31*
D03*
X-781050Y-104650D02*
G54D31*
D03*
G54D32*
X-457200Y-117350D02*
X-450850Y-111000D01*
X-381000Y-111000D01*
X-380140Y-108691D01*
G54D32*
X-390223Y-152677D02*
X-387350Y-155450D01*
X-381000Y-149100D01*
X-381000Y-111000D01*
X-380140Y-108691D01*
G54D32*
X-326723Y-152677D02*
X-323850Y-155450D01*
X-330200Y-149100D01*
X-330200Y-111000D01*
X-329159Y-108579D01*
G54D32*
X-329159Y-108579D02*
X-330200Y-111000D01*
X-323850Y-117350D01*
X-273050Y-117350D01*
X-417375Y-29175D02*
G54D30*
D03*
X-391875Y-29175D02*
G54D30*
D03*
X-201475Y-29175D02*
G54D30*
D03*
X-175975Y-29175D02*
G54D30*
D03*
X-6283Y-29067D02*
G54D30*
D03*
X19217Y-29067D02*
G54D30*
D03*
X-974750Y-450750D02*
G54D33*
D03*
X-923950Y-450750D02*
G54D33*
D03*
X-949350Y-476150D02*
G54D33*
D03*
X-923950Y-501550D02*
G54D33*
D03*
X-974750Y-501550D02*
G54D33*
D03*
X-974750Y-819050D02*
G54D33*
D03*
X-923950Y-819050D02*
G54D33*
D03*
X-949350Y-844450D02*
G54D33*
D03*
X-923950Y-869850D02*
G54D33*
D03*
X-974750Y-869850D02*
G54D33*
D03*
X-527050Y-187200D02*
G54D34*
D03*
X-457200Y-187200D02*
G54D34*
D03*
X-390111Y-203658D02*
G54D34*
D03*
X-326610Y-203658D02*
G54D34*
D03*
X-273050Y-187200D02*
G54D34*
D03*
X-203200Y-187200D02*
G54D34*
D03*
X-974750Y-450750D02*
G54D34*
D03*
X-923950Y-450750D02*
G54D34*
D03*
X-974750Y-501550D02*
G54D34*
D03*
X-923950Y-501550D02*
G54D34*
D03*
X-974750Y-819050D02*
G54D35*
D03*
X-923950Y-819050D02*
G54D34*
D03*
X-974750Y-869850D02*
G54D34*
D03*
X-923950Y-869850D02*
G54D34*
D03*
X-977900Y-396750D02*
G54D31*
D03*
X-977900Y-295150D02*
G54D31*
D03*
X-917273Y-317777D02*
G54D30*
D03*
X-917160Y-368758D02*
G54D30*
D03*
X-950775Y-3775D02*
G54D30*
D03*
X-925275Y-3775D02*
G54D30*
D03*
X-977900Y-396750D02*
G54D34*
D03*
G36*
X-730750Y59350D02*
X-710750Y59350D01*
X-710750Y39350D01*
X-730750Y39350D01*
X-730750Y59350D01*
G37*
G36*
X-578350Y59350D02*
X-558350Y59350D01*
X-558350Y39350D01*
X-578350Y39350D01*
X-578350Y59350D01*
G37*
G36*
X-362450Y59350D02*
X-342450Y59350D01*
X-342450Y39350D01*
X-362450Y39350D01*
X-362450Y59350D01*
G37*
G36*
X-184650Y59350D02*
X-164650Y59350D01*
X-164650Y39350D01*
X-184650Y39350D01*
X-184650Y59350D01*
G37*
G36*
X-19550Y59350D02*
X450Y59350D01*
X450Y39350D01*
X-19550Y39350D01*
X-19550Y59350D01*
G37*
X166825Y-29175D02*
G54D30*
D03*
X192325Y-29175D02*
G54D30*
D03*
X-1009650Y31750D02*
G54D36*
D03*
X273050Y31750D02*
G54D36*
D03*
X285750Y-1289050D02*
G54D36*
D03*
X-996950Y-1289050D02*
G54D36*
D03*
G36*
X-1002850Y-105750D02*
X-1002850Y-125750D01*
X-1022850Y-125750D01*
X-1022850Y-105750D01*
X-1002850Y-105750D01*
G37*
G36*
X-1002850Y-994750D02*
X-1002850Y-1014750D01*
X-1022850Y-1014750D01*
X-1022850Y-994750D01*
X-1002850Y-994750D01*
G37*
X-590550Y-225300D02*
G54D33*
D03*
X-711200Y-222126D02*
G54D33*
D03*
X-590550Y-104650D02*
G54D33*
D03*
X-711200Y-104650D02*
G54D33*
D03*
X-722312Y-164975D02*
G54D33*
D03*
G54D37*
X-555678Y-48381D02*
X-555678Y-48381D01*
G54D37*
X-555678Y-67881D02*
X-555678Y-67881D01*
X-826624Y-138205D02*
G54D30*
D03*
X-826512Y-189185D02*
G54D30*
D03*
X-826512Y-189185D02*
G54D33*
D03*
X-137456Y-98912D02*
G54D33*
D03*
X-16806Y-102086D02*
G54D33*
D03*
X-137456Y-219562D02*
G54D33*
D03*
X-16806Y-219562D02*
G54D33*
D03*
X-5694Y-159237D02*
G54D33*
D03*
G54D37*
X-172328Y-275831D02*
X-172328Y-275831D01*
G54D37*
X-172328Y-256331D02*
X-172328Y-256331D01*
X95250Y-206250D02*
G54D31*
D03*
X95250Y-104650D02*
G54D31*
D03*
X49676Y-138205D02*
G54D30*
D03*
X49788Y-189185D02*
G54D30*
D03*
X49788Y-189185D02*
G54D33*
D03*
X-273050Y-320550D02*
G54D30*
D03*
X-203200Y-320550D02*
G54D30*
D03*
X-273050Y-390400D02*
G54D30*
D03*
X-203200Y-390400D02*
G54D30*
D03*
X-203200Y-358650D02*
G54D30*
D03*
X-273050Y-358650D02*
G54D30*
D03*
X-329159Y-311779D02*
G54D30*
D03*
X-380140Y-311891D02*
G54D30*
D03*
X-527050Y-320550D02*
G54D30*
D03*
X-457200Y-320550D02*
G54D30*
D03*
X-527050Y-390400D02*
G54D30*
D03*
X-457200Y-390400D02*
G54D30*
D03*
X-457200Y-358650D02*
G54D30*
D03*
X-527050Y-358650D02*
G54D30*
D03*
X-390223Y-355877D02*
G54D30*
D03*
X-390110Y-406858D02*
G54D30*
D03*
X-326723Y-355877D02*
G54D30*
D03*
X-326610Y-406858D02*
G54D30*
D03*
G54D32*
X-457200Y-320550D02*
X-450850Y-314200D01*
X-381000Y-314200D01*
X-380140Y-311891D01*
G54D32*
X-390223Y-355877D02*
X-387350Y-358650D01*
X-381000Y-352300D01*
X-381000Y-314200D01*
X-380140Y-311891D01*
G54D32*
X-326723Y-355877D02*
X-323850Y-358650D01*
X-330200Y-352300D01*
X-330200Y-314200D01*
X-329159Y-311779D01*
G54D32*
X-329159Y-311779D02*
X-330200Y-314200D01*
X-323850Y-320550D01*
X-273050Y-320550D01*
X-527050Y-390400D02*
G54D34*
D03*
X-457200Y-390400D02*
G54D34*
D03*
X-390111Y-406858D02*
G54D34*
D03*
X-326610Y-406858D02*
G54D34*
D03*
X-273050Y-390400D02*
G54D34*
D03*
X-203200Y-390400D02*
G54D34*
D03*
X-590550Y-428500D02*
G54D33*
D03*
X-711200Y-425326D02*
G54D33*
D03*
X-590550Y-307850D02*
G54D33*
D03*
X-711200Y-307850D02*
G54D33*
D03*
X-722312Y-368175D02*
G54D33*
D03*
G54D37*
X-555678Y-251581D02*
X-555678Y-251581D01*
G54D37*
X-555678Y-271081D02*
X-555678Y-271081D01*
X-825500Y-342900D02*
G54D30*
D03*
X-876480Y-343012D02*
G54D30*
D03*
X-137456Y-302112D02*
G54D33*
D03*
X-16806Y-305286D02*
G54D33*
D03*
X-137456Y-422762D02*
G54D33*
D03*
X-16806Y-422762D02*
G54D33*
D03*
X-5694Y-362437D02*
G54D33*
D03*
G54D37*
X-172328Y-479031D02*
X-172328Y-479031D01*
G54D37*
X-172328Y-459531D02*
X-172328Y-459531D01*
X95250Y-409450D02*
G54D31*
D03*
X95250Y-307850D02*
G54D31*
D03*
X49676Y-341405D02*
G54D30*
D03*
X49788Y-392385D02*
G54D30*
D03*
X49788Y-392385D02*
G54D33*
D03*
X-273050Y-523750D02*
G54D30*
D03*
X-203200Y-523750D02*
G54D30*
D03*
X-273050Y-593600D02*
G54D30*
D03*
X-203200Y-593600D02*
G54D30*
D03*
X-203200Y-561850D02*
G54D30*
D03*
X-273050Y-561850D02*
G54D30*
D03*
X-329159Y-514979D02*
G54D30*
D03*
X-380140Y-515091D02*
G54D30*
D03*
X-527050Y-523750D02*
G54D30*
D03*
X-457200Y-523750D02*
G54D30*
D03*
X-527050Y-593600D02*
G54D30*
D03*
X-457200Y-593600D02*
G54D30*
D03*
X-457200Y-561850D02*
G54D30*
D03*
X-527050Y-561850D02*
G54D30*
D03*
X-390223Y-559077D02*
G54D30*
D03*
X-390110Y-610058D02*
G54D30*
D03*
X-326723Y-559077D02*
G54D30*
D03*
X-326610Y-610058D02*
G54D30*
D03*
X-781050Y-612650D02*
G54D31*
D03*
X-781050Y-511050D02*
G54D31*
D03*
G54D32*
X-457200Y-523750D02*
X-450850Y-517400D01*
X-381000Y-517400D01*
X-380140Y-515091D01*
G54D32*
X-390223Y-559077D02*
X-387350Y-561850D01*
X-381000Y-555500D01*
X-381000Y-517400D01*
X-380140Y-515091D01*
G54D32*
X-326723Y-559077D02*
X-323850Y-561850D01*
X-330200Y-555500D01*
X-330200Y-517400D01*
X-329159Y-514979D01*
G54D32*
X-329159Y-514979D02*
X-330200Y-517400D01*
X-323850Y-523750D01*
X-273050Y-523750D01*
X-527050Y-593600D02*
G54D34*
D03*
X-457200Y-593600D02*
G54D34*
D03*
X-390111Y-610058D02*
G54D34*
D03*
X-326610Y-610058D02*
G54D34*
D03*
X-273050Y-593600D02*
G54D34*
D03*
X-203200Y-593600D02*
G54D34*
D03*
X-590550Y-631700D02*
G54D33*
D03*
X-711200Y-628526D02*
G54D33*
D03*
X-590550Y-511050D02*
G54D33*
D03*
X-711200Y-511050D02*
G54D33*
D03*
X-722312Y-571375D02*
G54D33*
D03*
G54D37*
X-555678Y-454781D02*
X-555678Y-454781D01*
G54D37*
X-555678Y-474281D02*
X-555678Y-474281D01*
X-826624Y-544605D02*
G54D30*
D03*
X-826512Y-595585D02*
G54D30*
D03*
X-826512Y-595585D02*
G54D33*
D03*
X-137456Y-505312D02*
G54D33*
D03*
X-16806Y-508486D02*
G54D33*
D03*
X-137456Y-625962D02*
G54D33*
D03*
X-16806Y-625962D02*
G54D33*
D03*
X-5694Y-565637D02*
G54D33*
D03*
G54D37*
X-172328Y-682231D02*
X-172328Y-682231D01*
G54D37*
X-172328Y-662731D02*
X-172328Y-662731D01*
X95250Y-612650D02*
G54D31*
D03*
X95250Y-511050D02*
G54D31*
D03*
X49676Y-544605D02*
G54D30*
D03*
X49788Y-595585D02*
G54D30*
D03*
X49788Y-595585D02*
G54D33*
D03*
X-273050Y-726950D02*
G54D30*
D03*
X-203200Y-726950D02*
G54D30*
D03*
X-273050Y-796800D02*
G54D30*
D03*
X-203200Y-796800D02*
G54D30*
D03*
X-203200Y-765050D02*
G54D30*
D03*
X-273050Y-765050D02*
G54D30*
D03*
X-329159Y-718179D02*
G54D30*
D03*
X-380140Y-718291D02*
G54D30*
D03*
X-527050Y-726950D02*
G54D30*
D03*
X-457200Y-726950D02*
G54D30*
D03*
X-527050Y-796800D02*
G54D30*
D03*
X-457200Y-796800D02*
G54D30*
D03*
X-457200Y-765050D02*
G54D30*
D03*
X-527050Y-765050D02*
G54D30*
D03*
X-390223Y-762277D02*
G54D30*
D03*
X-390110Y-813258D02*
G54D30*
D03*
X-326723Y-762277D02*
G54D30*
D03*
X-326610Y-813258D02*
G54D30*
D03*
X-781050Y-815850D02*
G54D31*
D03*
X-781050Y-714250D02*
G54D31*
D03*
G54D32*
X-457200Y-726950D02*
X-450850Y-720600D01*
X-381000Y-720600D01*
X-380140Y-718291D01*
G54D32*
X-390223Y-762277D02*
X-387350Y-765050D01*
X-381000Y-758700D01*
X-381000Y-720600D01*
X-380140Y-718291D01*
G54D32*
X-326723Y-762277D02*
X-323850Y-765050D01*
X-330200Y-758700D01*
X-330200Y-720600D01*
X-329159Y-718179D01*
G54D32*
X-329159Y-718179D02*
X-330200Y-720600D01*
X-323850Y-726950D01*
X-273050Y-726950D01*
X-527050Y-796800D02*
G54D34*
D03*
X-457200Y-796800D02*
G54D34*
D03*
X-390111Y-813258D02*
G54D34*
D03*
X-326610Y-813258D02*
G54D34*
D03*
X-273050Y-796800D02*
G54D34*
D03*
X-203200Y-796800D02*
G54D34*
D03*
X-590550Y-834900D02*
G54D35*
D03*
X-711200Y-831726D02*
G54D35*
D03*
X-590550Y-714250D02*
G54D35*
D03*
X-711200Y-714250D02*
G54D35*
D03*
X-722312Y-774575D02*
G54D35*
D03*
G54D37*
X-555678Y-657981D02*
X-555678Y-657981D01*
G54D37*
X-555678Y-677481D02*
X-555678Y-677481D01*
X-826624Y-747804D02*
G54D30*
D03*
X-826512Y-798785D02*
G54D30*
D03*
X-826512Y-798785D02*
G54D33*
D03*
X-137456Y-708512D02*
G54D35*
D03*
X-16806Y-711686D02*
G54D35*
D03*
X-137456Y-829162D02*
G54D35*
D03*
X-16806Y-829162D02*
G54D35*
D03*
X-5694Y-768837D02*
G54D35*
D03*
G54D37*
X-172328Y-885431D02*
X-172328Y-885431D01*
G54D37*
X-172328Y-865931D02*
X-172328Y-865931D01*
X95250Y-815850D02*
G54D31*
D03*
X95250Y-714250D02*
G54D31*
D03*
X49676Y-747804D02*
G54D30*
D03*
X49788Y-798785D02*
G54D30*
D03*
X49788Y-798785D02*
G54D33*
D03*
X-273050Y-930150D02*
G54D30*
D03*
X-203200Y-930150D02*
G54D30*
D03*
X-273050Y-1000000D02*
G54D30*
D03*
X-203200Y-1000000D02*
G54D30*
D03*
X-203200Y-968250D02*
G54D30*
D03*
X-273050Y-968250D02*
G54D30*
D03*
X-329159Y-921379D02*
G54D30*
D03*
X-380140Y-921491D02*
G54D30*
D03*
X-527050Y-930150D02*
G54D30*
D03*
X-457200Y-930150D02*
G54D30*
D03*
X-527050Y-1000000D02*
G54D30*
D03*
X-457200Y-1000000D02*
G54D30*
D03*
X-457200Y-968250D02*
G54D30*
D03*
X-527050Y-968250D02*
G54D30*
D03*
X-390223Y-965477D02*
G54D30*
D03*
X-390110Y-1016458D02*
G54D30*
D03*
X-326723Y-965477D02*
G54D30*
D03*
X-326610Y-1016458D02*
G54D30*
D03*
X-781050Y-1019050D02*
G54D31*
D03*
X-781050Y-917450D02*
G54D31*
D03*
G54D32*
X-457200Y-930150D02*
X-450850Y-923800D01*
X-381000Y-923800D01*
X-380140Y-921491D01*
G54D32*
X-390223Y-965477D02*
X-387350Y-968250D01*
X-381000Y-961900D01*
X-381000Y-923800D01*
X-380140Y-921491D01*
G54D32*
X-326723Y-965477D02*
X-323850Y-968250D01*
X-330200Y-961900D01*
X-330200Y-923800D01*
X-329159Y-921379D01*
G54D32*
X-329159Y-921379D02*
X-330200Y-923800D01*
X-323850Y-930150D01*
X-273050Y-930150D01*
X-527050Y-1000000D02*
G54D34*
D03*
X-457200Y-1000000D02*
G54D34*
D03*
X-390111Y-1016458D02*
G54D34*
D03*
X-326610Y-1016458D02*
G54D34*
D03*
X-273050Y-1000000D02*
G54D34*
D03*
X-203200Y-1000000D02*
G54D34*
D03*
X-590550Y-1038100D02*
G54D33*
D03*
X-711200Y-1034926D02*
G54D33*
D03*
X-590550Y-917450D02*
G54D33*
D03*
X-711200Y-917450D02*
G54D33*
D03*
X-722312Y-977775D02*
G54D33*
D03*
G54D37*
X-555678Y-861181D02*
X-555678Y-861181D01*
G54D37*
X-555678Y-880681D02*
X-555678Y-880681D01*
X-826624Y-951004D02*
G54D30*
D03*
X-826512Y-1001985D02*
G54D30*
D03*
X-826512Y-1001985D02*
G54D33*
D03*
X-137456Y-911712D02*
G54D33*
D03*
X-16806Y-914886D02*
G54D33*
D03*
X-137456Y-1032362D02*
G54D33*
D03*
X-16806Y-1032362D02*
G54D33*
D03*
X-5694Y-972037D02*
G54D33*
D03*
G54D37*
X-172328Y-1088631D02*
X-172328Y-1088631D01*
G54D37*
X-172328Y-1069131D02*
X-172328Y-1069131D01*
X95250Y-1019050D02*
G54D31*
D03*
X95250Y-917450D02*
G54D31*
D03*
X49676Y-951004D02*
G54D30*
D03*
X49788Y-1001985D02*
G54D30*
D03*
X49788Y-1001985D02*
G54D33*
D03*
X-273050Y-1133350D02*
G54D30*
D03*
X-203200Y-1133350D02*
G54D30*
D03*
X-273050Y-1203200D02*
G54D30*
D03*
X-203200Y-1203200D02*
G54D30*
D03*
X-203200Y-1171450D02*
G54D30*
D03*
X-273050Y-1171450D02*
G54D30*
D03*
X-329159Y-1124579D02*
G54D30*
D03*
X-380140Y-1124691D02*
G54D30*
D03*
X-527050Y-1133350D02*
G54D30*
D03*
X-457200Y-1133350D02*
G54D30*
D03*
X-527050Y-1203200D02*
G54D30*
D03*
X-457200Y-1203200D02*
G54D30*
D03*
X-457200Y-1171450D02*
G54D30*
D03*
X-527050Y-1171450D02*
G54D30*
D03*
X-390223Y-1168677D02*
G54D30*
D03*
X-390110Y-1219658D02*
G54D30*
D03*
X-326723Y-1168677D02*
G54D30*
D03*
X-326610Y-1219658D02*
G54D30*
D03*
X-781050Y-1222250D02*
G54D31*
D03*
X-781050Y-1120650D02*
G54D31*
D03*
G54D32*
X-457200Y-1133350D02*
X-450850Y-1127000D01*
X-381000Y-1127000D01*
X-380140Y-1124691D01*
G54D32*
X-390223Y-1168677D02*
X-387350Y-1171450D01*
X-381000Y-1165100D01*
X-381000Y-1127000D01*
X-380140Y-1124691D01*
G54D32*
X-326723Y-1168677D02*
X-323850Y-1171450D01*
X-330200Y-1165100D01*
X-330200Y-1127000D01*
X-329159Y-1124579D01*
G54D32*
X-329159Y-1124579D02*
X-330200Y-1127000D01*
X-323850Y-1133350D01*
X-273050Y-1133350D01*
X-527050Y-1203200D02*
G54D34*
D03*
X-457200Y-1203200D02*
G54D34*
D03*
X-390111Y-1219658D02*
G54D34*
D03*
X-326610Y-1219658D02*
G54D34*
D03*
X-273050Y-1203200D02*
G54D34*
D03*
X-203200Y-1203200D02*
G54D34*
D03*
X-590550Y-1241300D02*
G54D33*
D03*
X-711200Y-1238126D02*
G54D33*
D03*
X-590550Y-1120650D02*
G54D33*
D03*
X-711200Y-1120650D02*
G54D33*
D03*
X-722312Y-1180975D02*
G54D33*
D03*
G54D37*
X-555678Y-1064381D02*
X-555678Y-1064381D01*
G54D37*
X-555678Y-1083881D02*
X-555678Y-1083881D01*
X-826624Y-1154204D02*
G54D30*
D03*
X-826512Y-1205185D02*
G54D30*
D03*
X-826512Y-1205185D02*
G54D33*
D03*
X-137456Y-1114912D02*
G54D33*
D03*
X-16806Y-1118086D02*
G54D33*
D03*
X-137456Y-1235562D02*
G54D33*
D03*
X-16806Y-1235562D02*
G54D33*
D03*
X-5694Y-1175237D02*
G54D33*
D03*
G54D37*
X-159628Y-1266431D02*
X-159628Y-1266431D01*
G54D37*
X-172328Y-1272331D02*
X-172328Y-1272331D01*
X95250Y-1222250D02*
G54D31*
D03*
X95250Y-1120650D02*
G54D31*
D03*
X49676Y-1154204D02*
G54D30*
D03*
X49788Y-1205185D02*
G54D30*
D03*
X49788Y-1205185D02*
G54D33*
D03*
X-781050Y-612650D02*
G54D33*
D03*
X-781050Y-815850D02*
G54D33*
D03*
X-781050Y-1019050D02*
G54D33*
D03*
X95250Y-1222250D02*
G54D33*
D03*
X95250Y-1019050D02*
G54D33*
D03*
X95250Y-815850D02*
G54D33*
D03*
X95250Y-612650D02*
G54D33*
D03*
X95250Y-409450D02*
G54D33*
D03*
X95250Y-206250D02*
G54D33*
D03*
X-1011397Y-713559D02*
G54D33*
D03*
X-1008223Y-592909D02*
G54D33*
D03*
X-890747Y-713559D02*
G54D33*
D03*
X-890747Y-592909D02*
G54D33*
D03*
X-951072Y-581796D02*
G54D33*
D03*
G54D37*
X-834478Y-748431D02*
X-834478Y-748431D01*
G54D37*
X-853978Y-748431D02*
X-853978Y-748431D01*
X-711200Y-222126D02*
G54D38*
D03*
X-16806Y-219562D02*
G54D39*
D03*
X-711200Y-425326D02*
G54D39*
D03*
X-16806Y-422762D02*
G54D33*
D03*
X-711200Y-628526D02*
G54D39*
D03*
X-16806Y-625962D02*
G54D33*
D03*
X-711200Y-831726D02*
G54D33*
D03*
X-16806Y-829162D02*
G54D33*
D03*
X-711200Y-1034926D02*
G54D39*
D03*
X-16806Y-1032362D02*
G54D39*
D03*
X-711200Y-1238126D02*
G54D40*
D03*
X-16806Y-1235562D02*
G54D33*
D03*
X-1008223Y-592909D02*
G54D33*
D03*
G54D32*
X-826624Y-138205D02*
X-825500Y-139700D01*
X-787400Y-101600D01*
X-781050Y-101600D01*
X-781050Y-104650D01*
G54D32*
X-711200Y-104650D02*
X-711200Y-101600D01*
X-781050Y-101600D01*
X-781050Y-104650D01*
G54D32*
X-590550Y-225300D02*
X-590550Y-222250D01*
X-546100Y-177800D01*
X-546100Y-146050D01*
X-527050Y-127000D01*
X-527050Y-114300D01*
X-527050Y-117350D01*
G54D32*
X-137456Y-98912D02*
X-139700Y-101600D01*
X-152400Y-114300D01*
X-203200Y-114300D01*
X-203200Y-117350D01*
G54D32*
X95250Y-104650D02*
X95250Y-101600D01*
X-19050Y-101600D01*
X-16806Y-102086D01*
G54D32*
X49676Y-138205D02*
X50800Y-139700D01*
X88900Y-101600D01*
X95250Y-101600D01*
X95250Y-104650D01*
G54D32*
X-826624Y-341405D02*
X-825500Y-342900D01*
X-787400Y-304800D01*
X-781050Y-304800D01*
X-781050Y-307850D01*
G54D32*
X-590550Y-428500D02*
X-590550Y-425450D01*
X-546100Y-381000D01*
X-546100Y-349250D01*
X-527050Y-330200D01*
X-527050Y-317500D01*
X-527050Y-320550D01*
G54D32*
X-137456Y-302112D02*
X-139700Y-304800D01*
X-152400Y-317500D01*
X-203200Y-317500D01*
X-203200Y-320550D01*
G54D32*
X95250Y-307850D02*
X95250Y-304800D01*
X-19050Y-304800D01*
X-16806Y-305286D01*
G54D32*
X49676Y-341405D02*
X50800Y-342900D01*
X88900Y-304800D01*
X95250Y-304800D01*
X95250Y-307850D01*
G54D32*
X-711200Y-307850D02*
X-711200Y-304800D01*
X-781050Y-304800D01*
X-781050Y-307850D01*
G54D32*
X-711200Y-511050D02*
X-711200Y-508000D01*
X-781050Y-508000D01*
X-781050Y-511050D01*
G54D32*
X-826624Y-544605D02*
X-825500Y-546100D01*
X-787400Y-508000D01*
X-781050Y-508000D01*
X-781050Y-511050D01*
G54D32*
X-590550Y-631700D02*
X-590550Y-628650D01*
X-546100Y-584200D01*
X-546100Y-552450D01*
X-527050Y-533400D01*
X-527050Y-520700D01*
X-527050Y-523750D01*
G54D32*
X-137456Y-505312D02*
X-139700Y-508000D01*
X-152400Y-520700D01*
X-203200Y-520700D01*
X-203200Y-523750D01*
G54D32*
X49676Y-544605D02*
X50800Y-546100D01*
X12700Y-508000D01*
X-19050Y-508000D01*
X-16806Y-508486D01*
G54D32*
X49676Y-544605D02*
X50800Y-546100D01*
X88900Y-508000D01*
X95250Y-508000D01*
X95250Y-511050D01*
G54D32*
X-826624Y-747805D02*
X-825500Y-749300D01*
X-787400Y-711200D01*
X-781050Y-711200D01*
X-781050Y-714250D01*
G54D32*
X-711200Y-714250D02*
X-711200Y-711200D01*
X-781050Y-711200D01*
X-781050Y-714250D01*
G54D32*
X-590550Y-834900D02*
X-590550Y-831850D01*
X-546100Y-787400D01*
X-546100Y-755650D01*
X-527050Y-736600D01*
X-527050Y-723900D01*
X-527050Y-726950D01*
G54D32*
X-137456Y-708512D02*
X-139700Y-711200D01*
X-152400Y-723900D01*
X-203200Y-723900D01*
X-203200Y-726950D01*
G54D32*
X49676Y-747805D02*
X50800Y-749300D01*
X12700Y-711200D01*
X-19050Y-711200D01*
X-16806Y-711686D01*
G54D32*
X-826624Y-951005D02*
X-825500Y-952500D01*
X-787400Y-914400D01*
X-781050Y-914400D01*
X-781050Y-917450D01*
G54D32*
X-711200Y-917450D02*
X-711200Y-914400D01*
X-781050Y-914400D01*
X-781050Y-917450D01*
G54D32*
X-590550Y-1038100D02*
X-590550Y-1035050D01*
X-546100Y-990600D01*
X-546100Y-958850D01*
X-527050Y-939800D01*
X-527050Y-927100D01*
X-527050Y-930150D01*
G54D32*
X-137456Y-911712D02*
X-139700Y-914400D01*
X-152400Y-927100D01*
X-203200Y-927100D01*
X-203200Y-930150D01*
G54D32*
X49676Y-951005D02*
X50800Y-952500D01*
X12700Y-914400D01*
X-19050Y-914400D01*
X-16806Y-914886D01*
G54D32*
X49676Y-951005D02*
X50800Y-952500D01*
X88900Y-914400D01*
X95250Y-914400D01*
X95250Y-917450D01*
G54D32*
X-826624Y-1154205D02*
X-825500Y-1155700D01*
X-787400Y-1117600D01*
X-781050Y-1117600D01*
X-781050Y-1120650D01*
G54D32*
X-711200Y-1120650D02*
X-711200Y-1117600D01*
X-781050Y-1117600D01*
X-781050Y-1120650D01*
G54D32*
X-590550Y-1241300D02*
X-590550Y-1238250D01*
X-546100Y-1193800D01*
X-546100Y-1162050D01*
X-527050Y-1143000D01*
X-527050Y-1130300D01*
X-527050Y-1133350D01*
G54D32*
X-137456Y-1114912D02*
X-139700Y-1117600D01*
X-152400Y-1130300D01*
X-203200Y-1130300D01*
X-203200Y-1133350D01*
G54D32*
X49676Y-1154205D02*
X50800Y-1155700D01*
X12700Y-1117600D01*
X-19050Y-1117600D01*
X-16806Y-1118086D01*
G54D32*
X49676Y-1154205D02*
X50800Y-1155700D01*
X88900Y-1117600D01*
X95250Y-1117600D01*
X95250Y-1120650D01*
G54D32*
X49676Y-747805D02*
X50800Y-749300D01*
X88900Y-711200D01*
X95250Y-711200D01*
X95250Y-714250D01*
G54D41*
X-781050Y-104650D02*
X-781050Y-101600D01*
X-762000Y-82550D01*
X-762000Y-31750D01*
X-760175Y-29175D01*
G54D41*
X95250Y-104650D02*
X95250Y-101600D01*
X50800Y-57150D01*
X-558800Y-57150D01*
X-571500Y-44450D01*
X-609600Y-44450D01*
X-622300Y-31750D01*
X-762000Y-31750D01*
X-760175Y-29175D01*
G54D41*
X-781050Y-714250D02*
X-781050Y-711200D01*
X-723900Y-654050D01*
X-704850Y-654050D01*
X-698500Y-647700D01*
X-679450Y-647700D01*
X-673100Y-641350D01*
X-673100Y-203200D01*
X-685800Y-190500D01*
X-685800Y-146050D01*
X-692150Y-139700D01*
X-749300Y-139700D01*
X-768350Y-158750D01*
X-831850Y-158750D01*
X-844550Y-146050D01*
X-844550Y-127000D01*
X-806450Y-88900D01*
X-806450Y-25400D01*
X-793750Y-12700D01*
X-558800Y-12700D01*
X-527050Y-44450D01*
X-190500Y-44450D01*
X-177800Y-31750D01*
X-175975Y-29175D01*
G54D41*
X-951072Y-581796D02*
X-952500Y-584200D01*
X-850900Y-482600D01*
X-850900Y-387350D01*
X-844550Y-381000D01*
X-844550Y-330200D01*
X-749300Y-234950D01*
X-749300Y-203200D01*
X-723900Y-177800D01*
X-723900Y-165100D01*
X-722312Y-164975D01*
G54D41*
X-951072Y-581796D02*
X-952500Y-584200D01*
X-800100Y-431800D01*
X-774700Y-431800D01*
X-723900Y-381000D01*
X-723900Y-368300D01*
X-722312Y-368175D01*
G54D41*
X-951072Y-581796D02*
X-952500Y-584200D01*
X-927100Y-558800D01*
X-869950Y-558800D01*
X-857250Y-571500D01*
X-723900Y-571500D01*
X-722312Y-571375D01*
G54D41*
X-951072Y-581796D02*
X-952500Y-584200D01*
X-844550Y-692150D01*
X-844550Y-755650D01*
X-825500Y-774700D01*
X-723900Y-774700D01*
X-722312Y-774575D01*
G54D41*
X-951072Y-581796D02*
X-952500Y-584200D01*
X-914400Y-622300D01*
X-914400Y-742950D01*
X-844550Y-812800D01*
X-844550Y-958850D01*
X-825500Y-977900D01*
X-723900Y-977900D01*
X-722312Y-977775D01*
G54D41*
X-951072Y-581796D02*
X-952500Y-584200D01*
X-914400Y-622300D01*
X-914400Y-742950D01*
X-850900Y-806450D01*
X-850900Y-1009650D01*
X-844550Y-1016000D01*
X-844550Y-1162050D01*
X-825500Y-1181100D01*
X-723900Y-1181100D01*
X-722312Y-1180975D01*
G54D41*
X-1011397Y-713559D02*
X-1009650Y-711200D01*
X-996950Y-723900D01*
X-996950Y-825500D01*
X-977900Y-844550D01*
X-952500Y-844550D01*
X-949350Y-844450D01*
G36*
X-718050Y-1299550D02*
X-698050Y-1299550D01*
X-698050Y-1319550D01*
X-718050Y-1319550D01*
X-718050Y-1299550D01*
G37*
G36*
X-565650Y-1299550D02*
X-545650Y-1299550D01*
X-545650Y-1319550D01*
X-565650Y-1319550D01*
X-565650Y-1299550D01*
G37*
G36*
X-349750Y-1299550D02*
X-329750Y-1299550D01*
X-329750Y-1319550D01*
X-349750Y-1319550D01*
X-349750Y-1299550D01*
G37*
G36*
X-171950Y-1299550D02*
X-151950Y-1299550D01*
X-151950Y-1319550D01*
X-171950Y-1319550D01*
X-171950Y-1299550D01*
G37*
G36*
X-6850Y-1299550D02*
X13150Y-1299550D01*
X13150Y-1319550D01*
X-6850Y-1319550D01*
X-6850Y-1299550D01*
G37*
X-781050Y-206250D02*
G54D33*
D03*
X-876480Y-343012D02*
G54D33*
D03*
X-826512Y-189185D02*
G54D33*
D03*
X-781050Y-206250D02*
G54D33*
D03*
G54D41*
X-781050Y-612650D02*
X-781050Y-609600D01*
X-793750Y-596900D01*
X-825500Y-596900D01*
X-826512Y-595585D01*
G54D41*
X-711200Y-628526D02*
X-711200Y-628650D01*
X-730250Y-609600D01*
X-781050Y-609600D01*
X-781050Y-612650D01*
X-917160Y-368758D02*
G54D33*
D03*
X-781050Y-1222250D02*
G54D33*
D03*
X95250Y-1222250D02*
G54D33*
D03*
X49788Y-1205185D02*
G54D33*
D03*
X-889000Y-304800D02*
G54D31*
D03*
X-787400Y-304800D02*
G54D31*
D03*
X-889000Y-304800D02*
G54D33*
D03*
G54D41*
X-760175Y-29175D02*
X-762000Y-31750D01*
X-787400Y-31750D01*
X-785675Y-29175D01*
G54D41*
X-569675Y-29175D02*
X-571500Y-31750D01*
X-596900Y-31750D01*
X-595175Y-29175D01*
G54D41*
X-391875Y-29175D02*
X-393700Y-31750D01*
X-419100Y-31750D01*
X-417375Y-29175D01*
G54D41*
X-175975Y-29175D02*
X-177800Y-31750D01*
X-203200Y-31750D01*
X-201475Y-29175D01*
G54D41*
X19217Y-29067D02*
X19050Y-31750D01*
X-6350Y-31750D01*
X-6283Y-29067D01*
G54D41*
X192325Y-29175D02*
X190500Y-31750D01*
X165100Y-31750D01*
X166825Y-29175D01*
X234950Y-288800D02*
G54D30*
D03*
X311150Y-288800D02*
G54D30*
D03*
X234950Y-288800D02*
G54D30*
D03*
X234950Y-365000D02*
G54D30*
D03*
X311150Y-288800D02*
G54D30*
D03*
X311150Y-365000D02*
G54D30*
D03*
X234950Y-365000D02*
G54D33*
D03*
X311150Y-365000D02*
G54D33*
D03*
X234950Y-428500D02*
G54D30*
D03*
X311150Y-428500D02*
G54D30*
D03*
X234950Y-428500D02*
G54D30*
D03*
X234950Y-504700D02*
G54D30*
D03*
X311150Y-428500D02*
G54D30*
D03*
X311150Y-504700D02*
G54D30*
D03*
X234950Y-504700D02*
G54D33*
D03*
X311150Y-504700D02*
G54D33*
D03*
X234950Y-136400D02*
G54D30*
D03*
X311150Y-136400D02*
G54D30*
D03*
X234950Y-136400D02*
G54D30*
D03*
X234950Y-212600D02*
G54D30*
D03*
X311150Y-136400D02*
G54D30*
D03*
X311150Y-212600D02*
G54D30*
D03*
X234950Y-212600D02*
G54D33*
D03*
X311150Y-212600D02*
G54D33*
D03*
X215900Y-644400D02*
G54D30*
D03*
X292100Y-644400D02*
G54D30*
D03*
X215900Y-644400D02*
G54D30*
D03*
X215900Y-720600D02*
G54D30*
D03*
X292100Y-644400D02*
G54D30*
D03*
X292100Y-720600D02*
G54D30*
D03*
X215900Y-720600D02*
G54D33*
D03*
X292100Y-720600D02*
G54D33*
D03*
X215900Y-822200D02*
G54D30*
D03*
X292100Y-822200D02*
G54D30*
D03*
X215900Y-822200D02*
G54D30*
D03*
X215900Y-898400D02*
G54D30*
D03*
X292100Y-822200D02*
G54D30*
D03*
X292100Y-898400D02*
G54D30*
D03*
X215900Y-898400D02*
G54D33*
D03*
X292100Y-898400D02*
G54D33*
D03*
X215900Y-1000000D02*
G54D30*
D03*
X292100Y-1000000D02*
G54D30*
D03*
X215900Y-1000000D02*
G54D30*
D03*
X215900Y-1076200D02*
G54D30*
D03*
X292100Y-1000000D02*
G54D30*
D03*
X292100Y-1076200D02*
G54D30*
D03*
X215900Y-1076200D02*
G54D33*
D03*
X292100Y-1076200D02*
G54D33*
D03*
X234950Y-111000D02*
G54D30*
D03*
X311150Y-111000D02*
G54D30*
D03*
X234950Y-263400D02*
G54D30*
D03*
X311150Y-263400D02*
G54D30*
D03*
X234950Y-403100D02*
G54D30*
D03*
X311150Y-403100D02*
G54D30*
D03*
X215900Y-669800D02*
G54D30*
D03*
X292100Y-669800D02*
G54D30*
D03*
X215900Y-847600D02*
G54D30*
D03*
X292100Y-847600D02*
G54D30*
D03*
X215900Y-1025400D02*
G54D30*
D03*
X292100Y-1025400D02*
G54D30*
D03*
G54D42*
X234950Y-111000D02*
X234950Y-136400D01*
G54D42*
X311150Y-111000D02*
X311150Y-136400D01*
G54D42*
X234950Y-263400D02*
X234950Y-288800D01*
G54D42*
X311150Y-263400D02*
X311150Y-288800D01*
G54D42*
X234950Y-403100D02*
X234950Y-428500D01*
G54D42*
X311150Y-403100D02*
X311150Y-428500D01*
G54D42*
X215900Y-669800D02*
X215900Y-644400D01*
G54D42*
X292100Y-669800D02*
X292100Y-644400D01*
G54D42*
X215900Y-847600D02*
X215900Y-822200D01*
G54D42*
X292100Y-847600D02*
X292100Y-822200D01*
G54D42*
X215900Y-1025400D02*
X215900Y-1000000D01*
G54D42*
X292100Y-1025400D02*
X292100Y-1000000D01*
G54D42*
X234950Y-111000D02*
X228600Y-114300D01*
X177800Y-165100D01*
X0Y-165100D01*
X-5694Y-159237D01*
G54D42*
X234950Y-263400D02*
X228600Y-266700D01*
X127000Y-368300D01*
X0Y-368300D01*
X-5694Y-362437D01*
G54D42*
X234950Y-403100D02*
X228600Y-406400D01*
X63500Y-571500D01*
X0Y-571500D01*
X-5694Y-565637D01*
G54D42*
X215900Y-644400D02*
X215900Y-647700D01*
X88900Y-774700D01*
X0Y-774700D01*
X-5694Y-768837D01*
G54D42*
X215900Y-822200D02*
X215900Y-825500D01*
X63500Y-977900D01*
X0Y-977900D01*
X-5694Y-972037D01*
G54D42*
X215900Y-1000000D02*
X215900Y-1003300D01*
X114300Y-1104900D01*
X114300Y-1130300D01*
X63500Y-1181100D01*
X0Y-1181100D01*
X-5694Y-1175237D01*
M02*
