%FSLAX34Y34*%
%MOMM*%
%LNSILK_TOP*%
G71*
G01*
%ADD10C,0.200*%
%ADD11C,0.150*%
%ADD12C,0.167*%
%ADD13C,0.144*%
%ADD14C,0.333*%
%ADD15C,0.222*%
%ADD16C,0.400*%
%ADD17C,0.111*%
%LPD*%
G54D10*
X-788650Y-3236D02*
X-782650Y2764D01*
X-782650Y-13236D01*
G54D10*
X-768650Y-236D02*
X-769850Y1764D01*
X-772250Y2764D01*
X-774650Y2764D01*
X-777050Y1764D01*
X-778250Y-236D01*
X-778250Y-5236D01*
X-778250Y-6236D01*
X-774650Y-4236D01*
X-772250Y-4236D01*
X-769850Y-5236D01*
X-768650Y-7236D01*
X-768650Y-10236D01*
X-769850Y-12236D01*
X-772250Y-13236D01*
X-774650Y-13236D01*
X-777050Y-12236D01*
X-778250Y-10236D01*
X-778250Y-5236D01*
G54D10*
X-754650Y-236D02*
X-754650Y-10236D01*
X-755850Y-12236D01*
X-758250Y-13236D01*
X-760650Y-13236D01*
X-763050Y-12236D01*
X-764250Y-10236D01*
X-764250Y-236D01*
X-763050Y1764D01*
X-760650Y2764D01*
X-758250Y2764D01*
X-755850Y1764D01*
X-754650Y-236D01*
G54D11*
X-798446Y-41862D02*
X-798446Y-16462D01*
X-747646Y-16462D01*
X-747646Y-41862D01*
X-798446Y-41862D01*
G54D10*
X-592150Y-5236D02*
X-594550Y-5236D01*
X-596950Y-4236D01*
X-598150Y-2236D01*
X-598150Y-236D01*
X-596950Y1764D01*
X-594550Y2764D01*
X-592150Y2764D01*
X-589750Y1764D01*
X-588550Y-236D01*
X-588550Y-2236D01*
X-589750Y-4236D01*
X-592150Y-5236D01*
X-589750Y-6236D01*
X-588550Y-8236D01*
X-588550Y-10236D01*
X-589750Y-12236D01*
X-592150Y-13236D01*
X-594550Y-13236D01*
X-596950Y-12236D01*
X-598150Y-10236D01*
X-598150Y-8236D01*
X-596950Y-6236D01*
X-594550Y-5236D01*
G54D10*
X-574550Y-236D02*
X-574550Y-10236D01*
X-575750Y-12236D01*
X-578150Y-13236D01*
X-580550Y-13236D01*
X-582950Y-12236D01*
X-584150Y-10236D01*
X-584150Y-236D01*
X-582950Y1764D01*
X-580550Y2764D01*
X-578150Y2764D01*
X-575750Y1764D01*
X-574550Y-236D01*
G54D11*
X-607946Y-41862D02*
X-607946Y-16462D01*
X-557146Y-16462D01*
X-557146Y-41862D01*
X-607946Y-41862D01*
G54D11*
X-285750Y-98300D02*
X-184150Y-98300D01*
X-184150Y-206250D01*
X-285750Y-206250D01*
X-285750Y-98300D01*
G54D11*
X-318944Y-121412D02*
X-318944Y-96012D01*
X-390544Y-96012D01*
X-390544Y-121412D01*
X-318944Y-121412D01*
G54D12*
X-371600Y-90621D02*
X-371600Y-90621D01*
G54D11*
X-539750Y-98300D02*
X-438150Y-98300D01*
X-438150Y-206250D01*
X-539750Y-206250D01*
X-539750Y-98300D01*
G54D11*
X-377390Y-142462D02*
X-402790Y-142462D01*
X-402790Y-214062D01*
X-377390Y-214062D01*
X-377390Y-142462D01*
G54D12*
X-408181Y-195118D02*
X-408181Y-195118D01*
G54D11*
X-313890Y-142462D02*
X-339290Y-142462D01*
X-339290Y-214062D01*
X-313890Y-214062D01*
X-313890Y-142462D01*
G54D12*
X-344681Y-195118D02*
X-344681Y-195118D01*
G54D11*
X-767350Y-193550D02*
X-794750Y-193550D01*
X-794750Y-117350D01*
X-767350Y-117350D01*
X-767350Y-193550D01*
G54D11*
X-794750Y-123650D02*
X-767350Y-123650D01*
G54D10*
X-413150Y-13236D02*
X-413150Y2764D01*
X-420350Y-7236D01*
X-420350Y-9236D01*
X-410750Y-9236D01*
G54D10*
X-396750Y-236D02*
X-396750Y-10236D01*
X-397950Y-12236D01*
X-400350Y-13236D01*
X-402750Y-13236D01*
X-405150Y-12236D01*
X-406350Y-10236D01*
X-406350Y-236D01*
X-405150Y1764D01*
X-402750Y2764D01*
X-400350Y2764D01*
X-397950Y1764D01*
X-396750Y-236D01*
G54D11*
X-430146Y-41862D02*
X-430146Y-16462D01*
X-379346Y-16462D01*
X-379346Y-41862D01*
X-430146Y-41862D01*
G54D10*
X-204450Y-236D02*
X-203250Y1764D01*
X-200850Y2764D01*
X-198450Y2764D01*
X-196050Y1764D01*
X-194850Y-236D01*
X-194850Y-2236D01*
X-196050Y-4236D01*
X-198450Y-5236D01*
X-196050Y-6236D01*
X-194850Y-8236D01*
X-194850Y-10236D01*
X-196050Y-12236D01*
X-198450Y-13236D01*
X-200850Y-13236D01*
X-203250Y-12236D01*
X-204450Y-10236D01*
G54D10*
X-180850Y-236D02*
X-180850Y-10236D01*
X-182050Y-12236D01*
X-184450Y-13236D01*
X-186850Y-13236D01*
X-189250Y-12236D01*
X-190450Y-10236D01*
X-190450Y-236D01*
X-189250Y1764D01*
X-186850Y2764D01*
X-184450Y2764D01*
X-182050Y1764D01*
X-180850Y-236D01*
G54D11*
X-214246Y-41862D02*
X-214246Y-16462D01*
X-163446Y-16462D01*
X-163446Y-41862D01*
X-214246Y-41862D01*
G54D10*
X-9258Y-3128D02*
X-3258Y2872D01*
X-3258Y-13128D01*
G54D10*
X1142Y2872D02*
X10742Y2872D01*
X9542Y872D01*
X7142Y-2128D01*
X4742Y-6128D01*
X3542Y-9128D01*
X3542Y-13128D01*
G54D10*
X15142Y-6128D02*
X24742Y-6128D01*
G54D10*
X29142Y-128D02*
X30342Y1872D01*
X32742Y2872D01*
X35142Y2872D01*
X37542Y1872D01*
X38742Y-128D01*
X38742Y-2128D01*
X37542Y-4128D01*
X35142Y-5128D01*
X37542Y-6128D01*
X38742Y-8128D01*
X38742Y-10128D01*
X37542Y-12128D01*
X35142Y-13128D01*
X32742Y-13128D01*
X30342Y-12128D01*
X29142Y-10128D01*
G54D10*
X52742Y-128D02*
X52742Y-10128D01*
X51542Y-12128D01*
X49142Y-13128D01*
X46742Y-13128D01*
X44342Y-12128D01*
X43142Y-10128D01*
X43142Y-128D01*
X44342Y1872D01*
X46742Y2872D01*
X49142Y2872D01*
X51542Y1872D01*
X52742Y-128D01*
G54D11*
X-19054Y-41754D02*
X-19054Y-16354D01*
X31746Y-16354D01*
X31746Y-41754D01*
X-19054Y-41754D01*
G54D11*
X-1000150Y-425350D02*
X-898550Y-425350D01*
X-898550Y-526950D01*
X-1000150Y-526950D01*
X-1000150Y-425350D01*
G54D13*
X-1000900Y-398600D02*
X-1000900Y-398600D01*
G54D13*
X-1000900Y-418100D02*
X-1000900Y-418100D01*
G54D11*
X-1000150Y-793650D02*
X-898550Y-793650D01*
X-898550Y-895250D01*
X-1000150Y-895250D01*
X-1000150Y-793650D01*
G54D13*
X-1000900Y-766900D02*
X-1000900Y-766900D01*
G54D13*
X-1000900Y-786400D02*
X-1000900Y-786400D01*
G54D11*
X-964200Y-384050D02*
X-991600Y-384050D01*
X-991600Y-307850D01*
X-964200Y-307850D01*
X-964200Y-384050D01*
G54D11*
X-991600Y-314150D02*
X-964200Y-314150D01*
G54D11*
X-904440Y-307562D02*
X-929840Y-307562D01*
X-929840Y-379162D01*
X-904440Y-379162D01*
X-904440Y-307562D01*
G54D12*
X-935231Y-360218D02*
X-935231Y-360218D01*
G54D10*
X-948950Y-30636D02*
X-945350Y-32636D01*
X-944150Y-34636D01*
X-944150Y-38636D01*
G54D10*
X-953750Y-38636D02*
X-953750Y-22636D01*
X-947750Y-22636D01*
X-945350Y-23636D01*
X-944150Y-25636D01*
X-944150Y-27636D01*
X-945350Y-29636D01*
X-947750Y-30636D01*
X-953750Y-30636D01*
G54D10*
X-939750Y-22636D02*
X-927750Y-38636D01*
G54D10*
X-939750Y-38636D02*
X-927750Y-22636D01*
G54D10*
X-923350Y-38636D02*
X-913750Y-22636D01*
G54D10*
X-904550Y-38636D02*
X-904550Y-22636D01*
G54D10*
X-909350Y-22636D02*
X-899750Y-22636D01*
G54D10*
X-895350Y-22636D02*
X-883350Y-38636D01*
G54D10*
X-895350Y-38636D02*
X-883350Y-22636D01*
G54D11*
X-963546Y-16462D02*
X-963546Y8938D01*
X-912746Y8938D01*
X-912746Y-16462D01*
X-963546Y-16462D01*
G54D10*
X-970879Y-3233D02*
X-977230Y-3233D01*
G54D10*
X-977230Y-11170D02*
X-977229Y4705D01*
G54D10*
X-980404Y2324D02*
X-980404Y-8789D01*
G54D10*
X-983579Y-5614D02*
X-983579Y-852D01*
G54D10*
X-950900Y-399850D02*
X-947300Y-401850D01*
X-946100Y-403850D01*
X-946100Y-407850D01*
G54D10*
X-955700Y-407850D02*
X-955700Y-391850D01*
X-949700Y-391850D01*
X-947300Y-392850D01*
X-946100Y-394850D01*
X-946100Y-396850D01*
X-947300Y-398850D01*
X-949700Y-399850D01*
X-955700Y-399850D01*
G54D10*
X-941700Y-391850D02*
X-929700Y-407850D01*
G54D10*
X-941700Y-407850D02*
X-929700Y-391850D01*
G54D10*
X-969950Y-928550D02*
X-969950Y-912550D01*
G54D10*
X-974750Y-912550D02*
X-965150Y-912550D01*
G54D10*
X-960750Y-912550D02*
X-948750Y-928550D01*
G54D10*
X-960750Y-928550D02*
X-948750Y-912550D01*
G54D14*
X-909848Y-940558D02*
X-906515Y-938558D01*
X-904848Y-934558D01*
X-904848Y-930558D01*
X-906515Y-926558D01*
X-909848Y-924558D01*
X-918181Y-924558D01*
X-919848Y-924558D01*
X-916515Y-930558D01*
X-916515Y-934558D01*
X-918181Y-938558D01*
X-921515Y-940558D01*
X-926515Y-940558D01*
X-929848Y-938558D01*
X-931515Y-934558D01*
X-931515Y-930558D01*
X-929848Y-926558D01*
X-926515Y-924558D01*
X-918181Y-924558D01*
G54D14*
X-919848Y-955624D02*
X-919848Y-971624D01*
G54D14*
X-931515Y-986690D02*
X-904848Y-986690D01*
X-904848Y-996690D01*
X-906515Y-1000690D01*
X-909848Y-1002690D01*
X-913181Y-1002690D01*
X-916515Y-1000690D01*
X-918181Y-996690D01*
X-919848Y-1000690D01*
X-923181Y-1002690D01*
X-926515Y-1002690D01*
X-929848Y-1000690D01*
X-931515Y-996690D01*
X-931515Y-986690D01*
G54D14*
X-918181Y-986690D02*
X-918181Y-996690D01*
G54D14*
X-931515Y-1010022D02*
X-904848Y-1020022D01*
X-931515Y-1030022D01*
G54D14*
X-921515Y-1014022D02*
X-921515Y-1026022D01*
G54D14*
X-931515Y-1037356D02*
X-904848Y-1037356D01*
X-931515Y-1053356D01*
X-904848Y-1053356D01*
G54D14*
X-931515Y-1060688D02*
X-904848Y-1060688D01*
X-904848Y-1070688D01*
X-906515Y-1074688D01*
X-909848Y-1076688D01*
X-926515Y-1076688D01*
X-929848Y-1074688D01*
X-931515Y-1070688D01*
X-931515Y-1060688D01*
G54D14*
X-926515Y-1084022D02*
X-929848Y-1086022D01*
X-931515Y-1090022D01*
X-931515Y-1094022D01*
X-929848Y-1098022D01*
X-926515Y-1100022D01*
X-923181Y-1100022D01*
X-919848Y-1098022D01*
X-918181Y-1094022D01*
X-918181Y-1090022D01*
X-916515Y-1086022D01*
X-913181Y-1084022D01*
X-909848Y-1084022D01*
X-906515Y-1086022D01*
X-904848Y-1090022D01*
X-904848Y-1094022D01*
X-906515Y-1098022D01*
X-909848Y-1100022D01*
G54D14*
X-919848Y-1115088D02*
X-919848Y-1131088D01*
G54D14*
X-931515Y-1146154D02*
X-904848Y-1146154D01*
X-904848Y-1156154D01*
X-906515Y-1160154D01*
X-909848Y-1162154D01*
X-913181Y-1162154D01*
X-916515Y-1160154D01*
X-918181Y-1156154D01*
X-919848Y-1160154D01*
X-923181Y-1162154D01*
X-926515Y-1162154D01*
X-929848Y-1160154D01*
X-931515Y-1156154D01*
X-931515Y-1146154D01*
G54D14*
X-918181Y-1146154D02*
X-918181Y-1156154D01*
G54D14*
X-931515Y-1169486D02*
X-904848Y-1169486D01*
X-904848Y-1179486D01*
X-906515Y-1183486D01*
X-909848Y-1185486D01*
X-913181Y-1185486D01*
X-916515Y-1183486D01*
X-918181Y-1179486D01*
X-918181Y-1169486D01*
G54D14*
X-931515Y-1192820D02*
X-904848Y-1192820D01*
X-904848Y-1206820D01*
G54D14*
X-918181Y-1192820D02*
X-918181Y-1206820D01*
G54D14*
X-931515Y-1221886D02*
X-904848Y-1231886D01*
X-931515Y-1241886D01*
G54D14*
X-921515Y-1225886D02*
X-921515Y-1237886D01*
G54D14*
X-931515Y-1257218D02*
X-904848Y-1257218D01*
G54D14*
X-904848Y-1249218D02*
X-904848Y-1265218D01*
G54D14*
X-931515Y-1280552D02*
X-904848Y-1280552D01*
G54D14*
X-904848Y-1272552D02*
X-904848Y-1288552D01*
G54D14*
X-931515Y-1295884D02*
X-904848Y-1295884D01*
X-931515Y-1311884D01*
X-904848Y-1311884D01*
G54D15*
X-371500Y-72889D02*
X-364833Y-66222D01*
X-364833Y-84000D01*
G54D15*
X-349277Y-69556D02*
X-350611Y-67333D01*
X-353277Y-66222D01*
X-355944Y-66222D01*
X-358611Y-67333D01*
X-359944Y-69556D01*
X-359944Y-75111D01*
X-359944Y-76222D01*
X-355944Y-74000D01*
X-353277Y-74000D01*
X-350611Y-75111D01*
X-349277Y-77333D01*
X-349277Y-80667D01*
X-350611Y-82889D01*
X-353277Y-84000D01*
X-355944Y-84000D01*
X-358611Y-82889D01*
X-359944Y-80667D01*
X-359944Y-75111D01*
G54D15*
X-333721Y-69556D02*
X-333721Y-80667D01*
X-335055Y-82889D01*
X-337721Y-84000D01*
X-340388Y-84000D01*
X-343055Y-82889D01*
X-344388Y-80667D01*
X-344388Y-69556D01*
X-343055Y-67333D01*
X-340388Y-66222D01*
X-337721Y-66222D01*
X-335055Y-67333D01*
X-333721Y-69556D01*
G54D11*
X154054Y-41862D02*
X154054Y-16462D01*
X204854Y-16462D01*
X204854Y-41862D01*
X154054Y-41862D01*
G54D10*
X142850Y-4150D02*
X148850Y1850D01*
X148850Y-14150D01*
G54D10*
X162850Y1850D02*
X153250Y1850D01*
X153250Y-5150D01*
X154450Y-5150D01*
X156850Y-4150D01*
X159250Y-4150D01*
X161650Y-5150D01*
X162850Y-7150D01*
X162850Y-11150D01*
X161650Y-13150D01*
X159250Y-14150D01*
X156850Y-14150D01*
X154450Y-13150D01*
X153250Y-11150D01*
G54D10*
X167250Y-7150D02*
X176850Y-7150D01*
G54D10*
X181250Y-4150D02*
X187250Y1850D01*
X187250Y-14150D01*
G54D10*
X201250Y-1150D02*
X201250Y-11150D01*
X200050Y-13150D01*
X197650Y-14150D01*
X195250Y-14150D01*
X192850Y-13150D01*
X191650Y-11150D01*
X191650Y-1150D01*
X192850Y850D01*
X195250Y1850D01*
X197650Y1850D01*
X200050Y850D01*
X201250Y-1150D01*
G54D16*
X-754528Y-76381D02*
X-557678Y-76381D01*
X-557678Y-247831D01*
X-754528Y-247831D01*
X-754528Y-76381D01*
G54D15*
X-603374Y-133752D02*
X-603374Y-123752D01*
G54D15*
X-603374Y-125974D02*
X-602040Y-124418D01*
X-599374Y-123752D01*
X-596707Y-124418D01*
X-595374Y-125974D01*
X-595373Y-133752D01*
G54D15*
X-583818Y-124418D02*
X-586484Y-123752D01*
X-589151Y-124418D01*
X-590484Y-126641D01*
X-590484Y-131085D01*
X-589151Y-133307D01*
X-586484Y-133752D01*
X-583818Y-133307D01*
G54D15*
X-601179Y-203246D02*
X-601179Y-193246D01*
G54D15*
X-601179Y-195468D02*
X-599846Y-193913D01*
X-597179Y-193246D01*
X-594512Y-193913D01*
X-593179Y-195468D01*
X-593179Y-203246D01*
G54D15*
X-588290Y-194357D02*
X-585623Y-193246D01*
X-582424Y-193246D01*
X-580290Y-195468D01*
X-580290Y-203246D01*
G54D15*
X-580290Y-199913D02*
X-581623Y-197690D01*
X-584290Y-197246D01*
X-586957Y-197690D01*
X-588290Y-199913D01*
X-587757Y-202135D01*
X-585624Y-203246D01*
X-584290Y-203246D01*
X-583757Y-203246D01*
X-581623Y-202135D01*
X-580290Y-199913D01*
G54D11*
X-813791Y-127990D02*
X-839191Y-127990D01*
X-839191Y-199590D01*
X-813791Y-199590D01*
X-813791Y-127990D01*
G54D12*
X-844582Y-180645D02*
X-844582Y-180645D01*
G54D17*
X-765432Y-147303D02*
X-765432Y-147303D01*
G54D13*
X-781928Y-315081D02*
X-781928Y-315081D01*
G54D16*
X26522Y-247831D02*
X-170328Y-247831D01*
X-170328Y-76381D01*
X26522Y-76381D01*
X26522Y-247831D01*
G54D15*
X-124632Y-190460D02*
X-124632Y-200460D01*
G54D15*
X-124632Y-198238D02*
X-125966Y-199794D01*
X-128632Y-200460D01*
X-131299Y-199794D01*
X-132632Y-198238D01*
X-132633Y-190460D01*
G54D15*
X-144188Y-199794D02*
X-141522Y-200460D01*
X-138855Y-199794D01*
X-137522Y-197571D01*
X-137522Y-193127D01*
X-138855Y-190905D01*
X-141522Y-190460D01*
X-144188Y-190905D01*
G54D15*
X-126827Y-120966D02*
X-126827Y-130966D01*
G54D15*
X-126827Y-128744D02*
X-128160Y-130299D01*
X-130827Y-130966D01*
X-133494Y-130299D01*
X-134827Y-128744D01*
X-134827Y-120966D01*
G54D15*
X-139716Y-129855D02*
X-142383Y-130966D01*
X-145582Y-130966D01*
X-147716Y-128744D01*
X-147716Y-120966D01*
G54D15*
X-147716Y-124299D02*
X-146383Y-126522D01*
X-143716Y-126966D01*
X-141049Y-126522D01*
X-139716Y-124299D01*
X-140249Y-122077D01*
X-142382Y-120966D01*
X-143716Y-120966D01*
X-144249Y-120966D01*
X-146383Y-122077D01*
X-147716Y-124299D01*
G54D11*
X108950Y-193550D02*
X81550Y-193550D01*
X81550Y-117350D01*
X108950Y-117350D01*
X108950Y-193550D01*
G54D11*
X81550Y-123650D02*
X108950Y-123650D01*
G54D11*
X62509Y-127990D02*
X37109Y-127990D01*
X37109Y-199590D01*
X62509Y-199590D01*
X62509Y-127990D01*
G54D12*
X31718Y-180645D02*
X31718Y-180645D01*
G54D17*
X110868Y-147303D02*
X110868Y-147303D01*
G54D11*
X-285750Y-301500D02*
X-184150Y-301500D01*
X-184150Y-409450D01*
X-285750Y-409450D01*
X-285750Y-301500D01*
G54D11*
X-318944Y-324612D02*
X-318944Y-299212D01*
X-390544Y-299212D01*
X-390544Y-324612D01*
X-318944Y-324612D01*
G54D12*
X-371600Y-293821D02*
X-371600Y-293821D01*
G54D11*
X-539750Y-301500D02*
X-438150Y-301500D01*
X-438150Y-409450D01*
X-539750Y-409450D01*
X-539750Y-301500D01*
G54D11*
X-377390Y-345662D02*
X-402790Y-345662D01*
X-402790Y-417262D01*
X-377390Y-417262D01*
X-377390Y-345662D01*
G54D12*
X-408181Y-398318D02*
X-408181Y-398318D01*
G54D11*
X-313890Y-345662D02*
X-339290Y-345662D01*
X-339290Y-417262D01*
X-313890Y-417262D01*
X-313890Y-345662D01*
G54D12*
X-344681Y-398318D02*
X-344681Y-398318D01*
G54D15*
X-358483Y-271961D02*
X-361150Y-271961D01*
X-363817Y-270850D01*
X-365150Y-268628D01*
X-365150Y-266406D01*
X-363817Y-264183D01*
X-361150Y-263072D01*
X-358483Y-263072D01*
X-355817Y-264183D01*
X-354483Y-266406D01*
X-354483Y-268628D01*
X-355817Y-270850D01*
X-358483Y-271961D01*
X-355817Y-273072D01*
X-354483Y-275294D01*
X-354483Y-277517D01*
X-355817Y-279739D01*
X-358483Y-280850D01*
X-361150Y-280850D01*
X-363817Y-279739D01*
X-365150Y-277517D01*
X-365150Y-275294D01*
X-363817Y-273072D01*
X-361150Y-271961D01*
G54D15*
X-338927Y-266406D02*
X-338927Y-277517D01*
X-340261Y-279739D01*
X-342927Y-280850D01*
X-345594Y-280850D01*
X-348261Y-279739D01*
X-349594Y-277517D01*
X-349594Y-266406D01*
X-348261Y-264183D01*
X-345594Y-263072D01*
X-342927Y-263072D01*
X-340261Y-264183D01*
X-338927Y-266406D01*
G54D16*
X-754528Y-279581D02*
X-557678Y-279581D01*
X-557678Y-451031D01*
X-754528Y-451031D01*
X-754528Y-279581D01*
G54D15*
X-603374Y-336952D02*
X-603374Y-326952D01*
G54D15*
X-603374Y-329174D02*
X-602040Y-327618D01*
X-599374Y-326952D01*
X-596707Y-327618D01*
X-595374Y-329174D01*
X-595373Y-336952D01*
G54D15*
X-583818Y-327618D02*
X-586484Y-326952D01*
X-589151Y-327618D01*
X-590484Y-329841D01*
X-590484Y-334285D01*
X-589151Y-336507D01*
X-586484Y-336952D01*
X-583818Y-336507D01*
G54D15*
X-601179Y-406446D02*
X-601179Y-396446D01*
G54D15*
X-601179Y-398668D02*
X-599846Y-397113D01*
X-597179Y-396446D01*
X-594512Y-397113D01*
X-593179Y-398668D01*
X-593179Y-406446D01*
G54D15*
X-588290Y-397557D02*
X-585623Y-396446D01*
X-582424Y-396446D01*
X-580290Y-398668D01*
X-580290Y-406446D01*
G54D15*
X-580290Y-403113D02*
X-581623Y-400890D01*
X-584290Y-400446D01*
X-586957Y-400890D01*
X-588290Y-403113D01*
X-587757Y-405335D01*
X-585624Y-406446D01*
X-584290Y-406446D01*
X-583757Y-406446D01*
X-581623Y-405335D01*
X-580290Y-403113D01*
G54D11*
X-815285Y-355734D02*
X-815285Y-330333D01*
X-886885Y-330333D01*
X-886885Y-355733D01*
X-815285Y-355734D01*
G54D12*
X-867941Y-324942D02*
X-867941Y-324942D01*
G54D17*
X-765432Y-350503D02*
X-765432Y-350503D01*
G54D16*
X26522Y-451031D02*
X-170328Y-451031D01*
X-170328Y-279581D01*
X26522Y-279581D01*
X26522Y-451031D01*
G54D15*
X-124632Y-393660D02*
X-124632Y-403660D01*
G54D15*
X-124632Y-401438D02*
X-125966Y-402994D01*
X-128632Y-403660D01*
X-131299Y-402994D01*
X-132632Y-401438D01*
X-132633Y-393660D01*
G54D15*
X-144188Y-402994D02*
X-141522Y-403660D01*
X-138855Y-402994D01*
X-137522Y-400771D01*
X-137522Y-396327D01*
X-138855Y-394105D01*
X-141522Y-393660D01*
X-144188Y-394105D01*
G54D15*
X-126827Y-324166D02*
X-126827Y-334166D01*
G54D15*
X-126827Y-331944D02*
X-128160Y-333499D01*
X-130827Y-334166D01*
X-133494Y-333499D01*
X-134827Y-331944D01*
X-134827Y-324166D01*
G54D15*
X-139716Y-333055D02*
X-142383Y-334166D01*
X-145582Y-334166D01*
X-147716Y-331944D01*
X-147716Y-324166D01*
G54D15*
X-147716Y-327499D02*
X-146383Y-329722D01*
X-143716Y-330166D01*
X-141049Y-329722D01*
X-139716Y-327499D01*
X-140249Y-325277D01*
X-142382Y-324166D01*
X-143716Y-324166D01*
X-144249Y-324166D01*
X-146383Y-325277D01*
X-147716Y-327499D01*
G54D11*
X108950Y-396750D02*
X81550Y-396750D01*
X81550Y-320550D01*
X108950Y-320550D01*
X108950Y-396750D01*
G54D11*
X81550Y-326850D02*
X108950Y-326850D01*
G54D11*
X62509Y-331190D02*
X37109Y-331190D01*
X37109Y-402790D01*
X62509Y-402790D01*
X62509Y-331190D01*
G54D12*
X31718Y-383845D02*
X31718Y-383845D01*
G54D17*
X110868Y-350503D02*
X110868Y-350503D01*
G54D11*
X-285750Y-504700D02*
X-184150Y-504700D01*
X-184150Y-612650D01*
X-285750Y-612650D01*
X-285750Y-504700D01*
G54D11*
X-318944Y-527812D02*
X-318944Y-502412D01*
X-390544Y-502412D01*
X-390544Y-527812D01*
X-318944Y-527812D01*
G54D12*
X-371600Y-497021D02*
X-371600Y-497021D01*
G54D11*
X-539750Y-504700D02*
X-438150Y-504700D01*
X-438150Y-612650D01*
X-539750Y-612650D01*
X-539750Y-504700D01*
G54D11*
X-377390Y-548862D02*
X-402790Y-548862D01*
X-402790Y-620462D01*
X-377390Y-620462D01*
X-377390Y-548862D01*
G54D12*
X-408181Y-601518D02*
X-408181Y-601518D01*
G54D11*
X-313890Y-548862D02*
X-339290Y-548862D01*
X-339290Y-620462D01*
X-313890Y-620462D01*
X-313890Y-548862D01*
G54D12*
X-344681Y-601518D02*
X-344681Y-601518D01*
G54D11*
X-767350Y-599950D02*
X-794750Y-599950D01*
X-794750Y-523750D01*
X-767350Y-523750D01*
X-767350Y-599950D01*
G54D11*
X-794750Y-530050D02*
X-767350Y-530050D01*
G54D15*
X-357150Y-496750D02*
X-357150Y-478972D01*
X-365150Y-490083D01*
X-365150Y-492306D01*
X-354483Y-492306D01*
G54D15*
X-338927Y-482306D02*
X-338927Y-493417D01*
X-340261Y-495639D01*
X-342927Y-496750D01*
X-345594Y-496750D01*
X-348261Y-495639D01*
X-349594Y-493417D01*
X-349594Y-482306D01*
X-348261Y-480083D01*
X-345594Y-478972D01*
X-342927Y-478972D01*
X-340261Y-480083D01*
X-338927Y-482306D01*
G54D16*
X-754528Y-482781D02*
X-557678Y-482781D01*
X-557678Y-654231D01*
X-754528Y-654231D01*
X-754528Y-482781D01*
G54D15*
X-603374Y-540152D02*
X-603374Y-530152D01*
G54D15*
X-603374Y-532374D02*
X-602040Y-530818D01*
X-599374Y-530152D01*
X-596707Y-530818D01*
X-595374Y-532374D01*
X-595373Y-540152D01*
G54D15*
X-583818Y-530818D02*
X-586484Y-530152D01*
X-589151Y-530818D01*
X-590484Y-533041D01*
X-590484Y-537485D01*
X-589151Y-539707D01*
X-586484Y-540152D01*
X-583818Y-539707D01*
G54D15*
X-601179Y-609646D02*
X-601179Y-599646D01*
G54D15*
X-601179Y-601868D02*
X-599846Y-600313D01*
X-597179Y-599646D01*
X-594512Y-600313D01*
X-593179Y-601868D01*
X-593179Y-609646D01*
G54D15*
X-588290Y-600757D02*
X-585623Y-599646D01*
X-582424Y-599646D01*
X-580290Y-601868D01*
X-580290Y-609646D01*
G54D15*
X-580290Y-606313D02*
X-581623Y-604090D01*
X-584290Y-603646D01*
X-586957Y-604090D01*
X-588290Y-606313D01*
X-587757Y-608535D01*
X-585624Y-609646D01*
X-584290Y-609646D01*
X-583757Y-609646D01*
X-581623Y-608535D01*
X-580290Y-606313D01*
G54D11*
X-813791Y-534390D02*
X-839191Y-534390D01*
X-839191Y-605990D01*
X-813791Y-605990D01*
X-813791Y-534390D01*
G54D12*
X-844582Y-587045D02*
X-844582Y-587045D01*
G54D17*
X-765432Y-553703D02*
X-765432Y-553703D01*
G54D16*
X26522Y-654231D02*
X-170328Y-654231D01*
X-170328Y-482781D01*
X26522Y-482781D01*
X26522Y-654231D01*
G54D15*
X-124632Y-596860D02*
X-124632Y-606860D01*
G54D15*
X-124632Y-604638D02*
X-125966Y-606194D01*
X-128632Y-606860D01*
X-131299Y-606194D01*
X-132632Y-604638D01*
X-132633Y-596860D01*
G54D15*
X-144188Y-606194D02*
X-141522Y-606860D01*
X-138855Y-606194D01*
X-137522Y-603971D01*
X-137522Y-599527D01*
X-138855Y-597305D01*
X-141522Y-596860D01*
X-144188Y-597305D01*
G54D15*
X-126827Y-527366D02*
X-126827Y-537366D01*
G54D15*
X-126827Y-535144D02*
X-128160Y-536699D01*
X-130827Y-537366D01*
X-133494Y-536699D01*
X-134827Y-535144D01*
X-134827Y-527366D01*
G54D15*
X-139716Y-536255D02*
X-142383Y-537366D01*
X-145582Y-537366D01*
X-147716Y-535144D01*
X-147716Y-527366D01*
G54D15*
X-147716Y-530699D02*
X-146383Y-532922D01*
X-143716Y-533366D01*
X-141049Y-532922D01*
X-139716Y-530699D01*
X-140249Y-528477D01*
X-142382Y-527366D01*
X-143716Y-527366D01*
X-144249Y-527366D01*
X-146383Y-528477D01*
X-147716Y-530699D01*
G54D11*
X108950Y-599950D02*
X81550Y-599950D01*
X81550Y-523750D01*
X108950Y-523750D01*
X108950Y-599950D01*
G54D11*
X81550Y-530050D02*
X108950Y-530050D01*
G54D11*
X62509Y-534390D02*
X37109Y-534390D01*
X37109Y-605990D01*
X62509Y-605990D01*
X62509Y-534390D01*
G54D12*
X31718Y-587045D02*
X31718Y-587045D01*
G54D17*
X110868Y-553703D02*
X110868Y-553703D01*
G54D11*
X-285750Y-707900D02*
X-184150Y-707900D01*
X-184150Y-815850D01*
X-285750Y-815850D01*
X-285750Y-707900D01*
G54D11*
X-318944Y-731012D02*
X-318944Y-705612D01*
X-390544Y-705612D01*
X-390544Y-731012D01*
X-318944Y-731012D01*
G54D12*
X-371600Y-700220D02*
X-371600Y-700220D01*
G54D11*
X-539750Y-707900D02*
X-438150Y-707900D01*
X-438150Y-815850D01*
X-539750Y-815850D01*
X-539750Y-707900D01*
G54D11*
X-377390Y-752062D02*
X-402790Y-752062D01*
X-402790Y-823662D01*
X-377390Y-823662D01*
X-377390Y-752062D01*
G54D12*
X-408181Y-804718D02*
X-408181Y-804718D01*
G54D11*
X-313890Y-752062D02*
X-339290Y-752062D01*
X-339290Y-823662D01*
X-313890Y-823662D01*
X-313890Y-752062D01*
G54D12*
X-344681Y-804718D02*
X-344681Y-804718D01*
G54D11*
X-767350Y-803150D02*
X-794750Y-803150D01*
X-794750Y-726950D01*
X-767350Y-726950D01*
X-767350Y-803150D01*
G54D11*
X-794750Y-733250D02*
X-767350Y-733250D01*
G54D15*
X-365150Y-672806D02*
X-363817Y-670583D01*
X-361150Y-669472D01*
X-358483Y-669472D01*
X-355817Y-670583D01*
X-354483Y-672806D01*
X-354483Y-675028D01*
X-355817Y-677250D01*
X-358483Y-678361D01*
X-355817Y-679472D01*
X-354483Y-681694D01*
X-354483Y-683917D01*
X-355817Y-686139D01*
X-358483Y-687250D01*
X-361150Y-687250D01*
X-363817Y-686139D01*
X-365150Y-683917D01*
G54D15*
X-338927Y-672806D02*
X-338927Y-683917D01*
X-340261Y-686139D01*
X-342927Y-687250D01*
X-345594Y-687250D01*
X-348261Y-686139D01*
X-349594Y-683917D01*
X-349594Y-672806D01*
X-348261Y-670583D01*
X-345594Y-669472D01*
X-342927Y-669472D01*
X-340261Y-670583D01*
X-338927Y-672806D01*
G54D16*
X-754528Y-685981D02*
X-557678Y-685981D01*
X-557678Y-857431D01*
X-754528Y-857431D01*
X-754528Y-685981D01*
G54D15*
X-603374Y-743352D02*
X-603374Y-733352D01*
G54D15*
X-603374Y-735574D02*
X-602040Y-734018D01*
X-599374Y-733352D01*
X-596707Y-734018D01*
X-595374Y-735574D01*
X-595373Y-743352D01*
G54D15*
X-583818Y-734018D02*
X-586484Y-733352D01*
X-589151Y-734018D01*
X-590484Y-736240D01*
X-590484Y-740685D01*
X-589151Y-742908D01*
X-586484Y-743352D01*
X-583818Y-742907D01*
G54D15*
X-601179Y-812846D02*
X-601179Y-802846D01*
G54D15*
X-601179Y-805068D02*
X-599846Y-803513D01*
X-597179Y-802846D01*
X-594512Y-803513D01*
X-593179Y-805068D01*
X-593179Y-812846D01*
G54D15*
X-588290Y-803957D02*
X-585623Y-802846D01*
X-582424Y-802846D01*
X-580290Y-805068D01*
X-580290Y-812846D01*
G54D15*
X-580290Y-809513D02*
X-581623Y-807290D01*
X-584290Y-806846D01*
X-586957Y-807290D01*
X-588290Y-809512D01*
X-587757Y-811735D01*
X-585624Y-812846D01*
X-584290Y-812846D01*
X-583757Y-812846D01*
X-581623Y-811735D01*
X-580290Y-809513D01*
G54D11*
X-813791Y-737590D02*
X-839191Y-737590D01*
X-839191Y-809190D01*
X-813791Y-809190D01*
X-813791Y-737590D01*
G54D12*
X-844582Y-790246D02*
X-844582Y-790246D01*
G54D17*
X-765432Y-756904D02*
X-765432Y-756904D01*
G54D16*
X26522Y-857431D02*
X-170328Y-857431D01*
X-170328Y-685981D01*
X26522Y-685981D01*
X26522Y-857431D01*
G54D15*
X-124632Y-800060D02*
X-124632Y-810060D01*
G54D15*
X-124632Y-807838D02*
X-125966Y-809394D01*
X-128632Y-810060D01*
X-131299Y-809394D01*
X-132632Y-807838D01*
X-132633Y-800060D01*
G54D15*
X-144188Y-809394D02*
X-141522Y-810060D01*
X-138855Y-809394D01*
X-137522Y-807172D01*
X-137522Y-802727D01*
X-138855Y-800504D01*
X-141522Y-800060D01*
X-144188Y-800505D01*
G54D15*
X-126827Y-730566D02*
X-126827Y-740566D01*
G54D15*
X-126827Y-738344D02*
X-128160Y-739899D01*
X-130827Y-740566D01*
X-133494Y-739899D01*
X-134827Y-738344D01*
X-134827Y-730566D01*
G54D15*
X-139716Y-739455D02*
X-142383Y-740566D01*
X-145582Y-740566D01*
X-147716Y-738344D01*
X-147716Y-730566D01*
G54D15*
X-147716Y-733899D02*
X-146383Y-736122D01*
X-143716Y-736566D01*
X-141049Y-736122D01*
X-139716Y-733900D01*
X-140249Y-731677D01*
X-142382Y-730566D01*
X-143716Y-730566D01*
X-144249Y-730566D01*
X-146383Y-731677D01*
X-147716Y-733899D01*
G54D11*
X108950Y-803150D02*
X81550Y-803150D01*
X81550Y-726950D01*
X108950Y-726950D01*
X108950Y-803150D01*
G54D11*
X81550Y-733250D02*
X108950Y-733250D01*
G54D11*
X62509Y-737590D02*
X37109Y-737590D01*
X37109Y-809190D01*
X62509Y-809190D01*
X62509Y-737590D01*
G54D12*
X31718Y-790246D02*
X31718Y-790246D01*
G54D17*
X110868Y-756904D02*
X110868Y-756904D01*
G54D11*
X-285750Y-911100D02*
X-184150Y-911100D01*
X-184150Y-1019050D01*
X-285750Y-1019050D01*
X-285750Y-911100D01*
G54D11*
X-318944Y-934212D02*
X-318944Y-908812D01*
X-390544Y-908812D01*
X-390544Y-934212D01*
X-318944Y-934212D01*
G54D12*
X-371600Y-903420D02*
X-371600Y-903420D01*
G54D11*
X-539750Y-911100D02*
X-438150Y-911100D01*
X-438150Y-1019050D01*
X-539750Y-1019050D01*
X-539750Y-911100D01*
G54D11*
X-377390Y-955262D02*
X-402790Y-955262D01*
X-402790Y-1026862D01*
X-377390Y-1026862D01*
X-377390Y-955262D01*
G54D12*
X-408181Y-1007918D02*
X-408181Y-1007918D01*
G54D11*
X-313890Y-955262D02*
X-339290Y-955262D01*
X-339290Y-1026862D01*
X-313890Y-1026862D01*
X-313890Y-955262D01*
G54D12*
X-344681Y-1007918D02*
X-344681Y-1007918D01*
G54D11*
X-767350Y-1006350D02*
X-794750Y-1006350D01*
X-794750Y-930150D01*
X-767350Y-930150D01*
X-767350Y-1006350D01*
G54D11*
X-794750Y-936450D02*
X-767350Y-936450D01*
G54D15*
X-365150Y-892039D02*
X-358483Y-885372D01*
X-358483Y-903150D01*
G54D15*
X-353594Y-885372D02*
X-342927Y-885372D01*
X-344261Y-887594D01*
X-346927Y-890928D01*
X-349594Y-895372D01*
X-350927Y-898706D01*
X-350927Y-903150D01*
G54D15*
X-338038Y-895372D02*
X-327371Y-895372D01*
G54D15*
X-311815Y-903150D02*
X-322482Y-903150D01*
X-322482Y-902039D01*
X-321149Y-899817D01*
X-313149Y-893150D01*
X-311815Y-890928D01*
X-311815Y-888706D01*
X-313149Y-886483D01*
X-315815Y-885372D01*
X-318482Y-885372D01*
X-321149Y-886483D01*
X-322482Y-888706D01*
G54D15*
X-296259Y-888706D02*
X-296259Y-899817D01*
X-297593Y-902039D01*
X-300259Y-903150D01*
X-302926Y-903150D01*
X-305593Y-902039D01*
X-306926Y-899817D01*
X-306926Y-888706D01*
X-305593Y-886483D01*
X-302926Y-885372D01*
X-300259Y-885372D01*
X-297593Y-886483D01*
X-296259Y-888706D01*
G54D16*
X-754528Y-889181D02*
X-557678Y-889181D01*
X-557678Y-1060631D01*
X-754528Y-1060631D01*
X-754528Y-889181D01*
G54D15*
X-603374Y-946552D02*
X-603374Y-936552D01*
G54D15*
X-603374Y-938774D02*
X-602040Y-937218D01*
X-599374Y-936552D01*
X-596707Y-937218D01*
X-595374Y-938774D01*
X-595373Y-946552D01*
G54D15*
X-583818Y-937218D02*
X-586484Y-936552D01*
X-589151Y-937218D01*
X-590484Y-939440D01*
X-590484Y-943885D01*
X-589151Y-946108D01*
X-586484Y-946552D01*
X-583818Y-946107D01*
G54D15*
X-601179Y-1016046D02*
X-601179Y-1006046D01*
G54D15*
X-601179Y-1008268D02*
X-599846Y-1006713D01*
X-597179Y-1006046D01*
X-594512Y-1006713D01*
X-593179Y-1008268D01*
X-593179Y-1016046D01*
G54D15*
X-588290Y-1007157D02*
X-585623Y-1006046D01*
X-582424Y-1006046D01*
X-580290Y-1008268D01*
X-580290Y-1016046D01*
G54D15*
X-580290Y-1012713D02*
X-581623Y-1010490D01*
X-584290Y-1010046D01*
X-586957Y-1010490D01*
X-588290Y-1012712D01*
X-587757Y-1014935D01*
X-585624Y-1016046D01*
X-584290Y-1016046D01*
X-583757Y-1016046D01*
X-581623Y-1014935D01*
X-580290Y-1012713D01*
G54D11*
X-813791Y-940790D02*
X-839191Y-940790D01*
X-839191Y-1012390D01*
X-813791Y-1012390D01*
X-813791Y-940790D01*
G54D12*
X-844582Y-993446D02*
X-844582Y-993446D01*
G54D17*
X-765432Y-960104D02*
X-765432Y-960104D01*
G54D16*
X26522Y-1060631D02*
X-170328Y-1060631D01*
X-170328Y-889181D01*
X26522Y-889181D01*
X26522Y-1060631D01*
G54D15*
X-124632Y-1003260D02*
X-124632Y-1013260D01*
G54D15*
X-124632Y-1011038D02*
X-125966Y-1012594D01*
X-128632Y-1013260D01*
X-131299Y-1012594D01*
X-132632Y-1011038D01*
X-132633Y-1003260D01*
G54D15*
X-144188Y-1012594D02*
X-141522Y-1013260D01*
X-138855Y-1012594D01*
X-137522Y-1010372D01*
X-137522Y-1005927D01*
X-138855Y-1003704D01*
X-141522Y-1003260D01*
X-144188Y-1003705D01*
G54D15*
X-126827Y-933766D02*
X-126827Y-943766D01*
G54D15*
X-126827Y-941544D02*
X-128160Y-943099D01*
X-130827Y-943766D01*
X-133494Y-943099D01*
X-134827Y-941544D01*
X-134827Y-933766D01*
G54D15*
X-139716Y-942655D02*
X-142383Y-943766D01*
X-145582Y-943766D01*
X-147716Y-941544D01*
X-147716Y-933766D01*
G54D15*
X-147716Y-937099D02*
X-146383Y-939322D01*
X-143716Y-939766D01*
X-141049Y-939322D01*
X-139716Y-937100D01*
X-140249Y-934877D01*
X-142382Y-933766D01*
X-143716Y-933766D01*
X-144249Y-933766D01*
X-146383Y-934877D01*
X-147716Y-937099D01*
G54D11*
X108950Y-1006350D02*
X81550Y-1006350D01*
X81550Y-930150D01*
X108950Y-930150D01*
X108950Y-1006350D01*
G54D11*
X81550Y-936450D02*
X108950Y-936450D01*
G54D11*
X62509Y-940790D02*
X37109Y-940790D01*
X37109Y-1012390D01*
X62509Y-1012390D01*
X62509Y-940790D01*
G54D12*
X31718Y-993446D02*
X31718Y-993446D01*
G54D17*
X110868Y-960104D02*
X110868Y-960104D01*
G54D11*
X-285750Y-1114300D02*
X-184150Y-1114300D01*
X-184150Y-1222250D01*
X-285750Y-1222250D01*
X-285750Y-1114300D01*
G54D11*
X-318944Y-1137412D02*
X-318944Y-1112012D01*
X-390544Y-1112012D01*
X-390544Y-1137412D01*
X-318944Y-1137412D01*
G54D12*
X-371600Y-1106620D02*
X-371600Y-1106620D01*
G54D11*
X-539750Y-1114300D02*
X-438150Y-1114300D01*
X-438150Y-1222250D01*
X-539750Y-1222250D01*
X-539750Y-1114300D01*
G54D11*
X-377390Y-1158462D02*
X-402790Y-1158462D01*
X-402790Y-1230062D01*
X-377390Y-1230062D01*
X-377390Y-1158462D01*
G54D12*
X-408181Y-1211118D02*
X-408181Y-1211118D01*
G54D11*
X-313890Y-1158462D02*
X-339290Y-1158462D01*
X-339290Y-1230062D01*
X-313890Y-1230062D01*
X-313890Y-1158462D01*
G54D12*
X-344681Y-1211118D02*
X-344681Y-1211118D01*
G54D11*
X-767350Y-1209550D02*
X-794750Y-1209550D01*
X-794750Y-1133350D01*
X-767350Y-1133350D01*
X-767350Y-1209550D01*
G54D11*
X-794750Y-1139650D02*
X-767350Y-1139650D01*
G54D15*
X-377850Y-1095239D02*
X-371183Y-1088572D01*
X-371183Y-1106350D01*
G54D15*
X-355627Y-1088572D02*
X-366294Y-1088572D01*
X-366294Y-1096350D01*
X-364961Y-1096350D01*
X-362294Y-1095239D01*
X-359627Y-1095239D01*
X-356961Y-1096350D01*
X-355627Y-1098572D01*
X-355627Y-1103016D01*
X-356961Y-1105239D01*
X-359627Y-1106350D01*
X-362294Y-1106350D01*
X-364961Y-1105239D01*
X-366294Y-1103016D01*
G54D15*
X-350738Y-1098572D02*
X-340071Y-1098572D01*
G54D15*
X-335182Y-1095239D02*
X-328515Y-1088572D01*
X-328515Y-1106350D01*
G54D15*
X-312959Y-1091906D02*
X-312959Y-1103016D01*
X-314293Y-1105239D01*
X-316959Y-1106350D01*
X-319626Y-1106350D01*
X-322293Y-1105239D01*
X-323626Y-1103016D01*
X-323626Y-1091906D01*
X-322293Y-1089684D01*
X-319626Y-1088572D01*
X-316959Y-1088572D01*
X-314293Y-1089684D01*
X-312959Y-1091906D01*
G54D16*
X-754528Y-1092381D02*
X-557678Y-1092381D01*
X-557678Y-1263831D01*
X-754528Y-1263831D01*
X-754528Y-1092381D01*
G54D15*
X-603374Y-1149752D02*
X-603374Y-1139752D01*
G54D15*
X-603374Y-1141974D02*
X-602040Y-1140418D01*
X-599374Y-1139752D01*
X-596707Y-1140418D01*
X-595374Y-1141974D01*
X-595373Y-1149752D01*
G54D15*
X-583818Y-1140418D02*
X-586484Y-1139752D01*
X-589151Y-1140418D01*
X-590484Y-1142640D01*
X-590484Y-1147085D01*
X-589151Y-1149308D01*
X-586484Y-1149752D01*
X-583818Y-1149307D01*
G54D15*
X-601179Y-1219246D02*
X-601179Y-1209246D01*
G54D15*
X-601179Y-1211468D02*
X-599846Y-1209913D01*
X-597179Y-1209246D01*
X-594512Y-1209913D01*
X-593179Y-1211468D01*
X-593179Y-1219246D01*
G54D15*
X-588290Y-1210357D02*
X-585623Y-1209246D01*
X-582424Y-1209246D01*
X-580290Y-1211468D01*
X-580290Y-1219246D01*
G54D15*
X-580290Y-1215913D02*
X-581623Y-1213690D01*
X-584290Y-1213246D01*
X-586957Y-1213690D01*
X-588290Y-1215912D01*
X-587757Y-1218135D01*
X-585624Y-1219246D01*
X-584290Y-1219246D01*
X-583757Y-1219246D01*
X-581623Y-1218135D01*
X-580290Y-1215913D01*
G54D11*
X-813791Y-1143990D02*
X-839191Y-1143990D01*
X-839191Y-1215590D01*
X-813791Y-1215590D01*
X-813791Y-1143990D01*
G54D12*
X-844582Y-1196646D02*
X-844582Y-1196646D01*
G54D17*
X-765432Y-1163304D02*
X-765432Y-1163304D01*
G54D16*
X26522Y-1263831D02*
X-170328Y-1263831D01*
X-170328Y-1092381D01*
X26522Y-1092381D01*
X26522Y-1263831D01*
G54D15*
X-124632Y-1206460D02*
X-124632Y-1216460D01*
G54D15*
X-124632Y-1214238D02*
X-125966Y-1215794D01*
X-128632Y-1216460D01*
X-131299Y-1215794D01*
X-132632Y-1214238D01*
X-132633Y-1206460D01*
G54D15*
X-144188Y-1215794D02*
X-141522Y-1216460D01*
X-138855Y-1215794D01*
X-137522Y-1213572D01*
X-137522Y-1209127D01*
X-138855Y-1206904D01*
X-141522Y-1206460D01*
X-144188Y-1206905D01*
G54D15*
X-126827Y-1136966D02*
X-126827Y-1146966D01*
G54D15*
X-126827Y-1144744D02*
X-128160Y-1146299D01*
X-130827Y-1146966D01*
X-133494Y-1146299D01*
X-134827Y-1144744D01*
X-134827Y-1136966D01*
G54D15*
X-139716Y-1145855D02*
X-142383Y-1146966D01*
X-145582Y-1146966D01*
X-147716Y-1144744D01*
X-147716Y-1136966D01*
G54D15*
X-147716Y-1140299D02*
X-146383Y-1142522D01*
X-143716Y-1142966D01*
X-141049Y-1142522D01*
X-139716Y-1140300D01*
X-140249Y-1138077D01*
X-142382Y-1136966D01*
X-143716Y-1136966D01*
X-144249Y-1136966D01*
X-146383Y-1138077D01*
X-147716Y-1140299D01*
G54D11*
X108950Y-1209550D02*
X81550Y-1209550D01*
X81550Y-1133350D01*
X108950Y-1133350D01*
X108950Y-1209550D01*
G54D11*
X81550Y-1139650D02*
X108950Y-1139650D01*
G54D11*
X62509Y-1143990D02*
X37109Y-1143990D01*
X37109Y-1215590D01*
X62509Y-1215590D01*
X62509Y-1143990D01*
G54D12*
X31718Y-1196646D02*
X31718Y-1196646D01*
G54D17*
X110868Y-1163304D02*
X110868Y-1163304D01*
G54D16*
X-862478Y-549581D02*
X-862478Y-746431D01*
X-1033928Y-746431D01*
X-1033928Y-549581D01*
X-862478Y-549581D01*
G54D15*
X-919849Y-700736D02*
X-909849Y-700736D01*
G54D15*
X-912071Y-700736D02*
X-910515Y-702069D01*
X-909849Y-704736D01*
X-910516Y-707402D01*
X-912071Y-708736D01*
X-919849Y-708736D01*
G54D15*
X-910516Y-720291D02*
X-909849Y-717624D01*
X-910516Y-714958D01*
X-912738Y-713624D01*
X-917182Y-713624D01*
X-919404Y-714958D01*
X-919849Y-717624D01*
X-919404Y-720291D01*
G54D15*
X-989343Y-702930D02*
X-979343Y-702930D01*
G54D15*
X-981565Y-702930D02*
X-980010Y-704263D01*
X-979343Y-706930D01*
X-980010Y-709596D01*
X-981565Y-710930D01*
X-989343Y-710930D01*
G54D15*
X-980454Y-715819D02*
X-979343Y-718486D01*
X-979343Y-721686D01*
X-981565Y-723819D01*
X-989343Y-723819D01*
G54D15*
X-986010Y-723819D02*
X-983788Y-722486D01*
X-983343Y-719819D01*
X-983787Y-717152D01*
X-986010Y-715819D01*
X-988232Y-716352D01*
X-989343Y-718486D01*
X-989343Y-719819D01*
X-989343Y-720352D01*
X-988232Y-722486D01*
X-986010Y-723819D01*
G54D11*
X-876300Y-318500D02*
X-876300Y-291100D01*
X-800100Y-291100D01*
X-800100Y-318500D01*
X-876300Y-318500D01*
G54D11*
X-806400Y-291100D02*
X-806400Y-318500D01*
G54D12*
X268683Y-161800D02*
X273683Y-166800D01*
X260350Y-166800D01*
G54D12*
X271183Y-178467D02*
X272850Y-177467D01*
X273683Y-175467D01*
X273683Y-173467D01*
X272850Y-171467D01*
X271183Y-170467D01*
X267017Y-170467D01*
X266183Y-170467D01*
X267850Y-173467D01*
X267850Y-175467D01*
X267017Y-177467D01*
X265350Y-178467D01*
X262850Y-178467D01*
X261183Y-177467D01*
X260350Y-175467D01*
X260350Y-173467D01*
X261183Y-171467D01*
X262850Y-170467D01*
X267017Y-170467D01*
G54D12*
X271183Y-190134D02*
X262850Y-190134D01*
X261183Y-189134D01*
X260350Y-187134D01*
X260350Y-185134D01*
X261183Y-183134D01*
X262850Y-182134D01*
X271183Y-182134D01*
X272850Y-183134D01*
X273683Y-185134D01*
X273683Y-187134D01*
X272850Y-189134D01*
X271183Y-190134D01*
G54D12*
X267017Y-319200D02*
X267017Y-317200D01*
X267850Y-315200D01*
X269517Y-314200D01*
X271183Y-314200D01*
X272850Y-315200D01*
X273683Y-317200D01*
X273683Y-319200D01*
X272850Y-321200D01*
X271183Y-322200D01*
X269517Y-322200D01*
X267850Y-321200D01*
X267017Y-319200D01*
X266183Y-321200D01*
X264517Y-322200D01*
X262850Y-322200D01*
X261183Y-321200D01*
X260350Y-319200D01*
X260350Y-317200D01*
X261183Y-315200D01*
X262850Y-314200D01*
X264517Y-314200D01*
X266183Y-315200D01*
X267017Y-317200D01*
G54D12*
X271183Y-333867D02*
X262850Y-333867D01*
X261183Y-332867D01*
X260350Y-330867D01*
X260350Y-328867D01*
X261183Y-326867D01*
X262850Y-325867D01*
X271183Y-325867D01*
X272850Y-326867D01*
X273683Y-328867D01*
X273683Y-330867D01*
X272850Y-332867D01*
X271183Y-333867D01*
G54D12*
X260350Y-447200D02*
X273683Y-447200D01*
X265350Y-441200D01*
X263683Y-441200D01*
X263683Y-449200D01*
G54D12*
X271183Y-460867D02*
X262850Y-460867D01*
X261183Y-459867D01*
X260350Y-457867D01*
X260350Y-455867D01*
X261183Y-453867D01*
X262850Y-452867D01*
X271183Y-452867D01*
X272850Y-453867D01*
X273683Y-455867D01*
X273683Y-457867D01*
X272850Y-459867D01*
X271183Y-460867D01*
G54D12*
X252133Y-644400D02*
X253800Y-645400D01*
X254633Y-647400D01*
X254633Y-649400D01*
X253800Y-651400D01*
X252133Y-652400D01*
X250467Y-652400D01*
X248800Y-651400D01*
X247967Y-649400D01*
X247133Y-651400D01*
X245467Y-652400D01*
X243800Y-652400D01*
X242133Y-651400D01*
X241300Y-649400D01*
X241300Y-647400D01*
X242133Y-645400D01*
X243800Y-644400D01*
G54D12*
X252133Y-664067D02*
X243800Y-664067D01*
X242133Y-663067D01*
X241300Y-661067D01*
X241300Y-659067D01*
X242133Y-657067D01*
X243800Y-656067D01*
X252133Y-656067D01*
X253800Y-657067D01*
X254633Y-659067D01*
X254633Y-661067D01*
X253800Y-663067D01*
X252133Y-664067D01*
G54D12*
X241300Y-855600D02*
X241300Y-847600D01*
X242133Y-847600D01*
X243800Y-848600D01*
X248800Y-854600D01*
X250467Y-855600D01*
X252133Y-855600D01*
X253800Y-854600D01*
X254633Y-852600D01*
X254633Y-850600D01*
X253800Y-848600D01*
X252133Y-847600D01*
G54D12*
X252133Y-867267D02*
X243800Y-867267D01*
X242133Y-866267D01*
X241300Y-864267D01*
X241300Y-862267D01*
X242133Y-860267D01*
X243800Y-859267D01*
X252133Y-859267D01*
X253800Y-860267D01*
X254633Y-862267D01*
X254633Y-864267D01*
X253800Y-866267D01*
X252133Y-867267D01*
G54D12*
X247133Y-870934D02*
X247133Y-878934D01*
G54D12*
X249633Y-882601D02*
X254633Y-887601D01*
X241300Y-887601D01*
G54D12*
X254633Y-891268D02*
X254633Y-899268D01*
X252967Y-898268D01*
X250467Y-896268D01*
X247133Y-894268D01*
X244633Y-893268D01*
X241300Y-893268D01*
G54D12*
X249633Y-1000000D02*
X254633Y-1005000D01*
X241300Y-1005000D01*
G54D12*
X254633Y-1016667D02*
X254633Y-1008667D01*
X248800Y-1008667D01*
X248800Y-1009667D01*
X249633Y-1011667D01*
X249633Y-1013667D01*
X248800Y-1015667D01*
X247133Y-1016667D01*
X243800Y-1016667D01*
X242133Y-1015667D01*
X241300Y-1013667D01*
X241300Y-1011667D01*
X242133Y-1009667D01*
X243800Y-1008667D01*
G54D12*
X247133Y-1020334D02*
X247133Y-1028334D01*
G54D12*
X249633Y-1032001D02*
X254633Y-1037001D01*
X241300Y-1037001D01*
G54D12*
X252133Y-1048668D02*
X243800Y-1048668D01*
X242133Y-1047668D01*
X241300Y-1045668D01*
X241300Y-1043668D01*
X242133Y-1041668D01*
X243800Y-1040668D01*
X252133Y-1040668D01*
X253800Y-1041668D01*
X254633Y-1043668D01*
X254633Y-1045668D01*
X253800Y-1047668D01*
X252133Y-1048668D01*
G54D10*
X222250Y-546100D02*
X336550Y-546100D01*
X336550Y-609600D01*
X222250Y-609600D01*
X222250Y-546100D01*
M02*
