%FSLAX34Y34*%
%MOMM*%
%LNCOPPER_TOP*%
G71*
G01*
%ADD10C,2.000*%
%ADD11C,1.900*%
%ADD12C,2.200*%
%ADD13C,2.000*%
%ADD14C,2.000*%
%ADD15C,4.300*%
%ADD16C,2.200*%
%ADD17C,2.200*%
%ADD18C,2.800*%
%ADD19C,0.800*%
%ADD20C,0.600*%
%ADD21C,0.900*%
%LPD*%
X-785675Y-29175D02*
G54D10*
D03*
X-760175Y-29175D02*
G54D10*
D03*
X-595175Y-29175D02*
G54D10*
D03*
X-569675Y-29175D02*
G54D10*
D03*
X-273050Y-117350D02*
G54D10*
D03*
X-203200Y-117350D02*
G54D10*
D03*
X-273050Y-187200D02*
G54D10*
D03*
X-203200Y-187200D02*
G54D10*
D03*
X-203200Y-155450D02*
G54D10*
D03*
X-273050Y-155450D02*
G54D10*
D03*
X-329159Y-108579D02*
G54D10*
D03*
X-380140Y-108691D02*
G54D10*
D03*
X-527050Y-117350D02*
G54D10*
D03*
X-457200Y-117350D02*
G54D10*
D03*
X-527050Y-187200D02*
G54D10*
D03*
X-457200Y-187200D02*
G54D10*
D03*
X-457200Y-155450D02*
G54D10*
D03*
X-527050Y-155450D02*
G54D10*
D03*
X-390223Y-152677D02*
G54D10*
D03*
X-390110Y-203658D02*
G54D10*
D03*
X-326723Y-152677D02*
G54D10*
D03*
X-326610Y-203658D02*
G54D10*
D03*
X-781050Y-206250D02*
G54D11*
D03*
X-781050Y-104650D02*
G54D11*
D03*
X-417375Y-29175D02*
G54D10*
D03*
X-391875Y-29175D02*
G54D10*
D03*
X-201475Y-29175D02*
G54D10*
D03*
X-175975Y-29175D02*
G54D10*
D03*
X-6283Y-29067D02*
G54D10*
D03*
X19217Y-29067D02*
G54D10*
D03*
X-974750Y-450750D02*
G54D12*
D03*
X-923950Y-450750D02*
G54D12*
D03*
X-949350Y-476150D02*
G54D12*
D03*
X-923950Y-501550D02*
G54D12*
D03*
X-974750Y-501550D02*
G54D12*
D03*
X-974750Y-819050D02*
G54D12*
D03*
X-923950Y-819050D02*
G54D12*
D03*
X-949350Y-844450D02*
G54D12*
D03*
X-923950Y-869850D02*
G54D12*
D03*
X-974750Y-869850D02*
G54D12*
D03*
X-527050Y-187200D02*
G54D13*
D03*
X-457200Y-187200D02*
G54D13*
D03*
X-390111Y-203658D02*
G54D13*
D03*
X-326610Y-203658D02*
G54D13*
D03*
X-273050Y-187200D02*
G54D13*
D03*
X-203200Y-187200D02*
G54D13*
D03*
X-974750Y-450750D02*
G54D13*
D03*
X-923950Y-450750D02*
G54D13*
D03*
X-974750Y-501550D02*
G54D13*
D03*
X-923950Y-501550D02*
G54D13*
D03*
X-974750Y-819050D02*
G54D14*
D03*
X-923950Y-819050D02*
G54D13*
D03*
X-974750Y-869850D02*
G54D13*
D03*
X-923950Y-869850D02*
G54D13*
D03*
X-977900Y-396750D02*
G54D11*
D03*
X-977900Y-295150D02*
G54D11*
D03*
X-917273Y-317777D02*
G54D10*
D03*
X-917160Y-368758D02*
G54D10*
D03*
X-950775Y-3775D02*
G54D10*
D03*
X-925275Y-3775D02*
G54D10*
D03*
X-977900Y-396750D02*
G54D13*
D03*
G36*
X-730750Y59350D02*
X-710750Y59350D01*
X-710750Y39350D01*
X-730750Y39350D01*
X-730750Y59350D01*
G37*
G36*
X-578350Y59350D02*
X-558350Y59350D01*
X-558350Y39350D01*
X-578350Y39350D01*
X-578350Y59350D01*
G37*
G36*
X-362450Y59350D02*
X-342450Y59350D01*
X-342450Y39350D01*
X-362450Y39350D01*
X-362450Y59350D01*
G37*
G36*
X-184650Y59350D02*
X-164650Y59350D01*
X-164650Y39350D01*
X-184650Y39350D01*
X-184650Y59350D01*
G37*
G36*
X-19550Y59350D02*
X450Y59350D01*
X450Y39350D01*
X-19550Y39350D01*
X-19550Y59350D01*
G37*
X166825Y-29175D02*
G54D10*
D03*
X192325Y-29175D02*
G54D10*
D03*
X-1009650Y31750D02*
G54D15*
D03*
X273050Y31750D02*
G54D15*
D03*
X285750Y-1289050D02*
G54D15*
D03*
X-996950Y-1289050D02*
G54D15*
D03*
G36*
X-1002850Y-105750D02*
X-1002850Y-125750D01*
X-1022850Y-125750D01*
X-1022850Y-105750D01*
X-1002850Y-105750D01*
G37*
G36*
X-1002850Y-994750D02*
X-1002850Y-1014750D01*
X-1022850Y-1014750D01*
X-1022850Y-994750D01*
X-1002850Y-994750D01*
G37*
X-590550Y-225300D02*
G54D12*
D03*
X-711200Y-222126D02*
G54D12*
D03*
X-590550Y-104650D02*
G54D12*
D03*
X-711200Y-104650D02*
G54D12*
D03*
X-722312Y-164975D02*
G54D12*
D03*
X-826624Y-138205D02*
G54D10*
D03*
X-826512Y-189185D02*
G54D10*
D03*
X-826512Y-189185D02*
G54D12*
D03*
X-137456Y-98912D02*
G54D12*
D03*
X-16806Y-102086D02*
G54D12*
D03*
X-137456Y-219562D02*
G54D12*
D03*
X-16806Y-219562D02*
G54D12*
D03*
X-5694Y-159237D02*
G54D12*
D03*
X95250Y-206250D02*
G54D11*
D03*
X95250Y-104650D02*
G54D11*
D03*
X49676Y-138205D02*
G54D10*
D03*
X49788Y-189185D02*
G54D10*
D03*
X49788Y-189185D02*
G54D12*
D03*
X-273050Y-320550D02*
G54D10*
D03*
X-203200Y-320550D02*
G54D10*
D03*
X-273050Y-390400D02*
G54D10*
D03*
X-203200Y-390400D02*
G54D10*
D03*
X-203200Y-358650D02*
G54D10*
D03*
X-273050Y-358650D02*
G54D10*
D03*
X-329159Y-311779D02*
G54D10*
D03*
X-380140Y-311891D02*
G54D10*
D03*
X-527050Y-320550D02*
G54D10*
D03*
X-457200Y-320550D02*
G54D10*
D03*
X-527050Y-390400D02*
G54D10*
D03*
X-457200Y-390400D02*
G54D10*
D03*
X-457200Y-358650D02*
G54D10*
D03*
X-527050Y-358650D02*
G54D10*
D03*
X-390223Y-355877D02*
G54D10*
D03*
X-390110Y-406858D02*
G54D10*
D03*
X-326723Y-355877D02*
G54D10*
D03*
X-326610Y-406858D02*
G54D10*
D03*
X-527050Y-390400D02*
G54D13*
D03*
X-457200Y-390400D02*
G54D13*
D03*
X-390111Y-406858D02*
G54D13*
D03*
X-326610Y-406858D02*
G54D13*
D03*
X-273050Y-390400D02*
G54D13*
D03*
X-203200Y-390400D02*
G54D13*
D03*
X-590550Y-428500D02*
G54D12*
D03*
X-711200Y-425326D02*
G54D12*
D03*
X-590550Y-307850D02*
G54D12*
D03*
X-711200Y-307850D02*
G54D12*
D03*
X-722312Y-368175D02*
G54D12*
D03*
X-825500Y-342900D02*
G54D10*
D03*
X-876480Y-343012D02*
G54D10*
D03*
X-137456Y-302112D02*
G54D12*
D03*
X-16806Y-305286D02*
G54D12*
D03*
X-137456Y-422762D02*
G54D12*
D03*
X-16806Y-422762D02*
G54D12*
D03*
X-5694Y-362437D02*
G54D12*
D03*
X95250Y-409450D02*
G54D11*
D03*
X95250Y-307850D02*
G54D11*
D03*
X49676Y-341405D02*
G54D10*
D03*
X49788Y-392385D02*
G54D10*
D03*
X49788Y-392385D02*
G54D12*
D03*
X-273050Y-523750D02*
G54D10*
D03*
X-203200Y-523750D02*
G54D10*
D03*
X-273050Y-593600D02*
G54D10*
D03*
X-203200Y-593600D02*
G54D10*
D03*
X-203200Y-561850D02*
G54D10*
D03*
X-273050Y-561850D02*
G54D10*
D03*
X-329159Y-514979D02*
G54D10*
D03*
X-380140Y-515091D02*
G54D10*
D03*
X-527050Y-523750D02*
G54D10*
D03*
X-457200Y-523750D02*
G54D10*
D03*
X-527050Y-593600D02*
G54D10*
D03*
X-457200Y-593600D02*
G54D10*
D03*
X-457200Y-561850D02*
G54D10*
D03*
X-527050Y-561850D02*
G54D10*
D03*
X-390223Y-559077D02*
G54D10*
D03*
X-390110Y-610058D02*
G54D10*
D03*
X-326723Y-559077D02*
G54D10*
D03*
X-326610Y-610058D02*
G54D10*
D03*
X-781050Y-612650D02*
G54D11*
D03*
X-781050Y-511050D02*
G54D11*
D03*
X-527050Y-593600D02*
G54D13*
D03*
X-457200Y-593600D02*
G54D13*
D03*
X-390111Y-610058D02*
G54D13*
D03*
X-326610Y-610058D02*
G54D13*
D03*
X-273050Y-593600D02*
G54D13*
D03*
X-203200Y-593600D02*
G54D13*
D03*
X-590550Y-631700D02*
G54D12*
D03*
X-711200Y-628526D02*
G54D12*
D03*
X-590550Y-511050D02*
G54D12*
D03*
X-711200Y-511050D02*
G54D12*
D03*
X-722312Y-571375D02*
G54D12*
D03*
X-826624Y-544605D02*
G54D10*
D03*
X-826512Y-595585D02*
G54D10*
D03*
X-826512Y-595585D02*
G54D12*
D03*
X-137456Y-505312D02*
G54D12*
D03*
X-16806Y-508486D02*
G54D12*
D03*
X-137456Y-625962D02*
G54D12*
D03*
X-16806Y-625962D02*
G54D12*
D03*
X-5694Y-565637D02*
G54D12*
D03*
X95250Y-612650D02*
G54D11*
D03*
X95250Y-511050D02*
G54D11*
D03*
X49676Y-544605D02*
G54D10*
D03*
X49788Y-595585D02*
G54D10*
D03*
X49788Y-595585D02*
G54D12*
D03*
X-273050Y-726950D02*
G54D10*
D03*
X-203200Y-726950D02*
G54D10*
D03*
X-273050Y-796800D02*
G54D10*
D03*
X-203200Y-796800D02*
G54D10*
D03*
X-203200Y-765050D02*
G54D10*
D03*
X-273050Y-765050D02*
G54D10*
D03*
X-329159Y-718179D02*
G54D10*
D03*
X-380140Y-718291D02*
G54D10*
D03*
X-527050Y-726950D02*
G54D10*
D03*
X-457200Y-726950D02*
G54D10*
D03*
X-527050Y-796800D02*
G54D10*
D03*
X-457200Y-796800D02*
G54D10*
D03*
X-457200Y-765050D02*
G54D10*
D03*
X-527050Y-765050D02*
G54D10*
D03*
X-390223Y-762277D02*
G54D10*
D03*
X-390110Y-813258D02*
G54D10*
D03*
X-326723Y-762277D02*
G54D10*
D03*
X-326610Y-813258D02*
G54D10*
D03*
X-781050Y-815850D02*
G54D11*
D03*
X-781050Y-714250D02*
G54D11*
D03*
X-527050Y-796800D02*
G54D13*
D03*
X-457200Y-796800D02*
G54D13*
D03*
X-390111Y-813258D02*
G54D13*
D03*
X-326610Y-813258D02*
G54D13*
D03*
X-273050Y-796800D02*
G54D13*
D03*
X-203200Y-796800D02*
G54D13*
D03*
X-590550Y-834900D02*
G54D14*
D03*
X-711200Y-831726D02*
G54D14*
D03*
X-590550Y-714250D02*
G54D14*
D03*
X-711200Y-714250D02*
G54D14*
D03*
X-722312Y-774575D02*
G54D14*
D03*
X-826624Y-747804D02*
G54D10*
D03*
X-826512Y-798785D02*
G54D10*
D03*
X-826512Y-798785D02*
G54D12*
D03*
X-137456Y-708512D02*
G54D14*
D03*
X-16806Y-711686D02*
G54D14*
D03*
X-137456Y-829162D02*
G54D14*
D03*
X-16806Y-829162D02*
G54D14*
D03*
X-5694Y-768837D02*
G54D14*
D03*
X95250Y-815850D02*
G54D11*
D03*
X95250Y-714250D02*
G54D11*
D03*
X49676Y-747804D02*
G54D10*
D03*
X49788Y-798785D02*
G54D10*
D03*
X49788Y-798785D02*
G54D12*
D03*
X-273050Y-930150D02*
G54D10*
D03*
X-203200Y-930150D02*
G54D10*
D03*
X-273050Y-1000000D02*
G54D10*
D03*
X-203200Y-1000000D02*
G54D10*
D03*
X-203200Y-968250D02*
G54D10*
D03*
X-273050Y-968250D02*
G54D10*
D03*
X-329159Y-921379D02*
G54D10*
D03*
X-380140Y-921491D02*
G54D10*
D03*
X-527050Y-930150D02*
G54D10*
D03*
X-457200Y-930150D02*
G54D10*
D03*
X-527050Y-1000000D02*
G54D10*
D03*
X-457200Y-1000000D02*
G54D10*
D03*
X-457200Y-968250D02*
G54D10*
D03*
X-527050Y-968250D02*
G54D10*
D03*
X-390223Y-965477D02*
G54D10*
D03*
X-390110Y-1016458D02*
G54D10*
D03*
X-326723Y-965477D02*
G54D10*
D03*
X-326610Y-1016458D02*
G54D10*
D03*
X-781050Y-1019050D02*
G54D11*
D03*
X-781050Y-917450D02*
G54D11*
D03*
X-527050Y-1000000D02*
G54D13*
D03*
X-457200Y-1000000D02*
G54D13*
D03*
X-390111Y-1016458D02*
G54D13*
D03*
X-326610Y-1016458D02*
G54D13*
D03*
X-273050Y-1000000D02*
G54D13*
D03*
X-203200Y-1000000D02*
G54D13*
D03*
X-590550Y-1038100D02*
G54D12*
D03*
X-711200Y-1034926D02*
G54D12*
D03*
X-590550Y-917450D02*
G54D12*
D03*
X-711200Y-917450D02*
G54D12*
D03*
X-722312Y-977775D02*
G54D12*
D03*
X-826624Y-951004D02*
G54D10*
D03*
X-826512Y-1001985D02*
G54D10*
D03*
X-826512Y-1001985D02*
G54D12*
D03*
X-137456Y-911712D02*
G54D12*
D03*
X-16806Y-914886D02*
G54D12*
D03*
X-137456Y-1032362D02*
G54D12*
D03*
X-16806Y-1032362D02*
G54D12*
D03*
X-5694Y-972037D02*
G54D12*
D03*
X95250Y-1019050D02*
G54D11*
D03*
X95250Y-917450D02*
G54D11*
D03*
X49676Y-951004D02*
G54D10*
D03*
X49788Y-1001985D02*
G54D10*
D03*
X49788Y-1001985D02*
G54D12*
D03*
X-273050Y-1133350D02*
G54D10*
D03*
X-203200Y-1133350D02*
G54D10*
D03*
X-273050Y-1203200D02*
G54D10*
D03*
X-203200Y-1203200D02*
G54D10*
D03*
X-203200Y-1171450D02*
G54D10*
D03*
X-273050Y-1171450D02*
G54D10*
D03*
X-329159Y-1124579D02*
G54D10*
D03*
X-380140Y-1124691D02*
G54D10*
D03*
X-527050Y-1133350D02*
G54D10*
D03*
X-457200Y-1133350D02*
G54D10*
D03*
X-527050Y-1203200D02*
G54D10*
D03*
X-457200Y-1203200D02*
G54D10*
D03*
X-457200Y-1171450D02*
G54D10*
D03*
X-527050Y-1171450D02*
G54D10*
D03*
X-390223Y-1168677D02*
G54D10*
D03*
X-390110Y-1219658D02*
G54D10*
D03*
X-326723Y-1168677D02*
G54D10*
D03*
X-326610Y-1219658D02*
G54D10*
D03*
X-781050Y-1222250D02*
G54D11*
D03*
X-781050Y-1120650D02*
G54D11*
D03*
X-527050Y-1203200D02*
G54D13*
D03*
X-457200Y-1203200D02*
G54D13*
D03*
X-390111Y-1219658D02*
G54D13*
D03*
X-326610Y-1219658D02*
G54D13*
D03*
X-273050Y-1203200D02*
G54D13*
D03*
X-203200Y-1203200D02*
G54D13*
D03*
X-590550Y-1241300D02*
G54D12*
D03*
X-711200Y-1238126D02*
G54D12*
D03*
X-590550Y-1120650D02*
G54D12*
D03*
X-711200Y-1120650D02*
G54D12*
D03*
X-722312Y-1180975D02*
G54D12*
D03*
X-826624Y-1154204D02*
G54D10*
D03*
X-826512Y-1205185D02*
G54D10*
D03*
X-826512Y-1205185D02*
G54D12*
D03*
X-137456Y-1114912D02*
G54D12*
D03*
X-16806Y-1118086D02*
G54D12*
D03*
X-137456Y-1235562D02*
G54D12*
D03*
X-16806Y-1235562D02*
G54D12*
D03*
X-5694Y-1175237D02*
G54D12*
D03*
X95250Y-1222250D02*
G54D11*
D03*
X95250Y-1120650D02*
G54D11*
D03*
X49676Y-1154204D02*
G54D10*
D03*
X49788Y-1205185D02*
G54D10*
D03*
X49788Y-1205185D02*
G54D12*
D03*
X-781050Y-612650D02*
G54D12*
D03*
X-781050Y-815850D02*
G54D12*
D03*
X-781050Y-1019050D02*
G54D12*
D03*
X95250Y-1222250D02*
G54D12*
D03*
X95250Y-1019050D02*
G54D12*
D03*
X95250Y-815850D02*
G54D12*
D03*
X95250Y-612650D02*
G54D12*
D03*
X95250Y-409450D02*
G54D12*
D03*
X95250Y-206250D02*
G54D12*
D03*
X-1011397Y-713559D02*
G54D12*
D03*
X-1008223Y-592909D02*
G54D12*
D03*
X-890747Y-713559D02*
G54D12*
D03*
X-890747Y-592909D02*
G54D12*
D03*
X-951072Y-581796D02*
G54D12*
D03*
X-711200Y-222126D02*
G54D16*
D03*
X-16806Y-219562D02*
G54D17*
D03*
X-711200Y-425326D02*
G54D17*
D03*
X-16806Y-422762D02*
G54D12*
D03*
X-711200Y-628526D02*
G54D17*
D03*
X-16806Y-625962D02*
G54D12*
D03*
X-711200Y-831726D02*
G54D12*
D03*
X-16806Y-829162D02*
G54D12*
D03*
X-711200Y-1034926D02*
G54D17*
D03*
X-16806Y-1032362D02*
G54D17*
D03*
X-711200Y-1238126D02*
G54D18*
D03*
X-16806Y-1235562D02*
G54D12*
D03*
X-1008223Y-592909D02*
G54D12*
D03*
G54D19*
X-890747Y-592909D02*
X-889000Y-590550D01*
X-895350Y-584200D01*
X-895350Y-361950D01*
X-914400Y-342900D01*
X-914400Y-317500D01*
X-917273Y-317777D01*
G54D19*
X-925275Y-3775D02*
X-927100Y-6350D01*
X-977900Y-57150D01*
X-977900Y-292100D01*
X-977900Y-295150D01*
G54D19*
X-917273Y-317777D02*
X-914400Y-317500D01*
X-939800Y-292100D01*
X-977900Y-292100D01*
X-977900Y-295150D01*
G54D20*
X-781050Y-307850D02*
X-781050Y-304800D01*
X-717550Y-241300D01*
X-679450Y-241300D01*
X-628650Y-190500D01*
X-628650Y-88900D01*
X-571500Y-31750D01*
X-569675Y-29175D01*
G54D20*
X95250Y-307850D02*
X95250Y-304800D01*
X19050Y-228600D01*
X19050Y-203200D01*
X0Y-184150D01*
X-38100Y-184150D01*
X-101600Y-120650D01*
X-101600Y-82550D01*
X-139700Y-44450D01*
X-431800Y-44450D01*
X-444500Y-31750D01*
X-571500Y-31750D01*
X-569675Y-29175D01*
G54D20*
X-781050Y-511050D02*
X-781050Y-508000D01*
X-762000Y-488950D01*
X-762000Y-400050D01*
X-800100Y-361950D01*
X-800100Y-298450D01*
X-749300Y-247650D01*
X-749300Y-203200D01*
X-730250Y-184150D01*
X-692150Y-184150D01*
X-641350Y-133350D01*
X-641350Y-82550D01*
X-615950Y-57150D01*
X-615950Y-25400D01*
X-603250Y-12700D01*
X-406400Y-12700D01*
X-393700Y-25400D01*
X-393700Y-31750D01*
X-391875Y-29175D01*
G54D20*
X95250Y-511050D02*
X95250Y-508000D01*
X114300Y-488950D01*
X114300Y-298450D01*
X31750Y-215900D01*
X31750Y-146050D01*
X12700Y-127000D01*
X-44450Y-127000D01*
X-88900Y-82550D01*
X-88900Y-76200D01*
X-152400Y-12700D01*
X-209550Y-12700D01*
X-228600Y-31750D01*
X-393700Y-31750D01*
X-391875Y-29175D01*
G54D20*
X95250Y-917450D02*
X95250Y-914400D01*
X127000Y-882650D01*
X127000Y-292100D01*
X114300Y-279400D01*
X114300Y-95250D01*
X50800Y-31750D01*
X19050Y-31750D01*
X19217Y-29067D01*
G54D20*
X-781050Y-917450D02*
X-781050Y-914400D01*
X-844550Y-850900D01*
X-844550Y-330200D01*
X-812800Y-298450D01*
X-812800Y-292100D01*
X-762000Y-241300D01*
X-762000Y-196850D01*
X-755650Y-190500D01*
X-755650Y-146050D01*
X-736600Y-127000D01*
X-679450Y-127000D01*
X-654050Y-101600D01*
X-654050Y-76200D01*
X-628650Y-50800D01*
X-628650Y-19050D01*
X-609600Y0D01*
X-146050Y0D01*
X-101600Y-44450D01*
X6350Y-44450D01*
X19050Y-31750D01*
X19217Y-29067D01*
G54D20*
X-711200Y-1120650D02*
X-711200Y-1117600D01*
X-628650Y-1035050D01*
X-628650Y-1022350D01*
X-552450Y-946150D01*
X-190500Y-946150D01*
X-184150Y-939800D01*
X12700Y-939800D01*
X19050Y-933450D01*
X107950Y-933450D01*
X146050Y-895350D01*
X146050Y-584200D01*
X190500Y-539750D01*
X190500Y-31750D01*
X192325Y-29175D01*
G54D20*
X95250Y-1120650D02*
X95250Y-1117600D01*
X146050Y-1066800D01*
X146050Y-584200D01*
X190500Y-539750D01*
X190500Y-31750D01*
X192325Y-29175D01*
G54D20*
X-890747Y-713559D02*
X-889000Y-711200D01*
X-927100Y-673100D01*
X-927100Y-552450D01*
X-952500Y-527050D01*
X-952500Y-476250D01*
X-949350Y-476150D01*
G36*
X-718050Y-1299550D02*
X-698050Y-1299550D01*
X-698050Y-1319550D01*
X-718050Y-1319550D01*
X-718050Y-1299550D01*
G37*
G36*
X-565650Y-1299550D02*
X-545650Y-1299550D01*
X-545650Y-1319550D01*
X-565650Y-1319550D01*
X-565650Y-1299550D01*
G37*
G36*
X-349750Y-1299550D02*
X-329750Y-1299550D01*
X-329750Y-1319550D01*
X-349750Y-1319550D01*
X-349750Y-1299550D01*
G37*
G36*
X-171950Y-1299550D02*
X-151950Y-1299550D01*
X-151950Y-1319550D01*
X-171950Y-1319550D01*
X-171950Y-1299550D01*
G37*
G36*
X-6850Y-1299550D02*
X13150Y-1299550D01*
X13150Y-1319550D01*
X-6850Y-1319550D01*
X-6850Y-1299550D01*
G37*
X-781050Y-206250D02*
G54D12*
D03*
X-876480Y-343012D02*
G54D12*
D03*
X-826512Y-189185D02*
G54D12*
D03*
X-781050Y-206250D02*
G54D12*
D03*
X-917160Y-368758D02*
G54D12*
D03*
X-781050Y-1222250D02*
G54D12*
D03*
X95250Y-1222250D02*
G54D12*
D03*
X49788Y-1205185D02*
G54D12*
D03*
G54D20*
X-711200Y-628526D02*
X-711200Y-628650D01*
X-673100Y-590550D01*
X-527050Y-590550D01*
X-527050Y-593600D01*
G54D20*
X-711200Y-425326D02*
X-711200Y-425450D01*
X-692150Y-406400D01*
X-387350Y-406400D01*
X-390111Y-406858D01*
X-889000Y-304800D02*
G54D11*
D03*
X-787400Y-304800D02*
G54D11*
D03*
X-889000Y-304800D02*
G54D12*
D03*
G54D20*
X95250Y-815850D02*
X95250Y-812800D01*
X-323850Y-812800D01*
X-326610Y-813258D01*
X234950Y-288800D02*
G54D10*
D03*
X311150Y-288800D02*
G54D10*
D03*
X234950Y-288800D02*
G54D10*
D03*
X234950Y-365000D02*
G54D10*
D03*
X311150Y-288800D02*
G54D10*
D03*
X311150Y-365000D02*
G54D10*
D03*
X234950Y-365000D02*
G54D12*
D03*
X311150Y-365000D02*
G54D12*
D03*
X234950Y-428500D02*
G54D10*
D03*
X311150Y-428500D02*
G54D10*
D03*
X234950Y-428500D02*
G54D10*
D03*
X234950Y-504700D02*
G54D10*
D03*
X311150Y-428500D02*
G54D10*
D03*
X311150Y-504700D02*
G54D10*
D03*
X234950Y-504700D02*
G54D12*
D03*
X311150Y-504700D02*
G54D12*
D03*
X234950Y-136400D02*
G54D10*
D03*
X311150Y-136400D02*
G54D10*
D03*
X234950Y-136400D02*
G54D10*
D03*
X234950Y-212600D02*
G54D10*
D03*
X311150Y-136400D02*
G54D10*
D03*
X311150Y-212600D02*
G54D10*
D03*
X234950Y-212600D02*
G54D12*
D03*
X311150Y-212600D02*
G54D12*
D03*
X215900Y-644400D02*
G54D10*
D03*
X292100Y-644400D02*
G54D10*
D03*
X215900Y-644400D02*
G54D10*
D03*
X215900Y-720600D02*
G54D10*
D03*
X292100Y-644400D02*
G54D10*
D03*
X292100Y-720600D02*
G54D10*
D03*
X215900Y-720600D02*
G54D12*
D03*
X292100Y-720600D02*
G54D12*
D03*
X215900Y-822200D02*
G54D10*
D03*
X292100Y-822200D02*
G54D10*
D03*
X215900Y-822200D02*
G54D10*
D03*
X215900Y-898400D02*
G54D10*
D03*
X292100Y-822200D02*
G54D10*
D03*
X292100Y-898400D02*
G54D10*
D03*
X215900Y-898400D02*
G54D12*
D03*
X292100Y-898400D02*
G54D12*
D03*
X215900Y-1000000D02*
G54D10*
D03*
X292100Y-1000000D02*
G54D10*
D03*
X215900Y-1000000D02*
G54D10*
D03*
X215900Y-1076200D02*
G54D10*
D03*
X292100Y-1000000D02*
G54D10*
D03*
X292100Y-1076200D02*
G54D10*
D03*
X215900Y-1076200D02*
G54D12*
D03*
X292100Y-1076200D02*
G54D12*
D03*
G36*
X246700Y-560900D02*
X286700Y-560900D01*
X286700Y-600900D01*
X246700Y-600900D01*
X246700Y-560900D01*
G37*
X234950Y-111000D02*
G54D10*
D03*
X311150Y-111000D02*
G54D10*
D03*
X234950Y-263400D02*
G54D10*
D03*
X311150Y-263400D02*
G54D10*
D03*
X234950Y-403100D02*
G54D10*
D03*
X311150Y-403100D02*
G54D10*
D03*
X215900Y-669800D02*
G54D10*
D03*
X292100Y-669800D02*
G54D10*
D03*
X215900Y-847600D02*
G54D10*
D03*
X292100Y-847600D02*
G54D10*
D03*
X215900Y-1025400D02*
G54D10*
D03*
X292100Y-1025400D02*
G54D10*
D03*
G54D21*
X266700Y-580900D02*
X266700Y-584200D01*
X279400Y-571500D01*
X279400Y-203200D01*
X304800Y-177800D01*
X304800Y-139700D01*
X311150Y-136400D01*
G54D21*
X266700Y-580900D02*
X266700Y-584200D01*
X279400Y-571500D01*
X279400Y-355600D01*
X304800Y-330200D01*
X304800Y-292100D01*
X311150Y-288800D01*
G54D21*
X311150Y-403100D02*
X304800Y-406400D01*
X266700Y-444500D01*
X266700Y-584200D01*
X266700Y-580900D01*
G54D21*
X266700Y-580900D02*
X266700Y-584200D01*
X292100Y-609600D01*
X292100Y-647700D01*
X292100Y-644400D01*
G54D21*
X266700Y-580900D02*
X266700Y-584200D01*
X266700Y-901700D01*
X292100Y-927100D01*
X292100Y-1003300D01*
X292100Y-1000000D01*
G54D21*
X266700Y-580900D02*
X266700Y-584200D01*
X266700Y-723900D01*
X292100Y-749300D01*
X292100Y-825500D01*
X292100Y-822200D01*
G36*
X304300Y-569300D02*
X324300Y-569300D01*
X324300Y-589300D01*
X304300Y-589300D01*
X304300Y-569300D01*
G37*
M02*
