; Drill file
; Format: 2.4 (00.0000)
M48
INCH
T01C0.0283
T02C0.0354
T03C0.0394
T04C0.0591
T05C0.1299
%
G05
G90
T01
X-030090Y-035480
X-030090Y-027480
X-030090Y-019480
X-030090Y-011480
X-030340Y-003360
X-037840Y-002980
X-037840Y-006980
X-030090Y004520
X004410Y004520
X004410Y-003480
X004410Y-011480
X004410Y-019480
X004410Y-027480
X004410Y-035480
T02
X-031880Y-036800
X-027210Y-042910
X-021210Y-042910
X-020090Y-038730
X-020090Y-037480
X-020090Y-035980
X-017340Y-035980
X-017340Y-037480
X-017340Y-038730
X-014700Y-039370
X-014700Y-037370
X-014300Y-035630
X-012300Y-035630
X-012200Y-037370
X-012200Y-039370
X-010090Y-038730
X-010090Y-037480
X-010090Y-035980
X-007340Y-035980
X-007340Y-037480
X-007340Y-038730
X-005710Y-042910
X000790Y-042910
X002620Y-036800
X002620Y-028800
X002620Y-020800
X002620Y-012800
X002620Y-004800
X002620Y003200
X001420Y007500
X000410Y007500
X000290Y010590
X-006210Y010590
X-006270Y007500
X-007270Y007500
X-007340Y004020
X-007340Y002520
X-007340Y001270
X-010090Y001270
X-010090Y002520
X-010090Y004020
X-012300Y004370
X-012200Y002630
X-012200Y000630
X-014700Y000630
X-014700Y002630
X-014300Y004360
X-017340Y004020
X-017340Y002520
X-017340Y001270
X-020090Y001270
X-020090Y002520
X-020090Y004020
X-021770Y007500
X-022770Y007500
X-021710Y010590
X-027710Y010590
X-029270Y007500
X-030270Y007500
X-031880Y003200
X-035770Y008500
X-036770Y008500
X-039210Y004090
X-035450Y-003870
X-031840Y-004860
X-031880Y-012800
X-031880Y-020800
X-031880Y-028800
X-039210Y-030910
X-020090Y-030730
X-020090Y-029480
X-020090Y-027980
X-017340Y-027980
X-017340Y-029480
X-017340Y-030730
X-014700Y-031370
X-014700Y-029370
X-014300Y-027640
X-012300Y-027630
X-012200Y-029370
X-012200Y-031370
X-010090Y-030730
X-010090Y-029480
X-010090Y-027980
X-007340Y-027980
X-007340Y-029480
X-007340Y-030730
X-007340Y-022730
X-007340Y-021480
X-007340Y-019980
X-010090Y-019980
X-010090Y-021480
X-010090Y-022730
X-012200Y-023370
X-012200Y-021370
X-012300Y-019630
X-014300Y-019640
X-014700Y-021370
X-014700Y-023370
X-017340Y-022730
X-017340Y-021480
X-017340Y-019980
X-020090Y-019980
X-020090Y-021480
X-020090Y-022730
X-020090Y-014730
X-020090Y-013480
X-020090Y-011980
X-017340Y-011980
X-017340Y-013480
X-017340Y-014730
X-014700Y-015370
X-014700Y-013370
X-014300Y-011630
X-012300Y-011630
X-012200Y-013370
X-012200Y-015370
X-010090Y-014730
X-010090Y-013480
X-010090Y-011980
X-007340Y-011980
X-007340Y-013480
X-007340Y-014730
X-007340Y-006730
X-007340Y-005480
X-007340Y-003980
X-010090Y-003980
X-010090Y-005480
X-010090Y-006730
X-012200Y-007370
X-012200Y-005370
X-012300Y-003630
X-014300Y-003630
X-014700Y-005370
X-014700Y-007370
X-017340Y-006730
X-017340Y-005480
X-017340Y-003980
X-020090Y-003980
X-020090Y-005480
X-020090Y-006730
X-015770Y007500
X-014770Y007500
X-013210Y010590
X007230Y007500
X008230Y007500
X-012710Y-042910
T03
X-031880Y-038800
X-030090Y-039480
X-028030Y-037850
X-027340Y-040100
X-027340Y-035480
X-027340Y-032100
X-028030Y-029850
X-027340Y-027480
X-027340Y-024100
X-028030Y-021850
X-027340Y-019480
X-027340Y-016100
X-028030Y-013850
X-027340Y-011480
X-027340Y-008100
X-028030Y-005850
X-027340Y-003480
X-027340Y-000100
X-028030Y002150
X-027340Y004520
X-022590Y004520
X-022590Y-000230
X-022590Y-003480
X-022590Y-008230
X-022590Y-011480
X-022590Y-016230
X-022590Y-019480
X-022590Y-024230
X-022590Y-027480
X-022590Y-032230
X-022590Y-035480
X-022590Y-040230
X-030090Y-031480
X-031880Y-030800
X-035710Y-025600
X-036710Y-024600
X-035710Y-023600
X-037710Y-023600
X-037710Y-025600
X-039160Y-019450
X-034410Y-019450
X-031880Y-022800
X-030090Y-023480
X-030090Y-015480
X-031880Y-014800
X-034410Y-014700
X-036780Y-014260
X-039030Y-014700
X-037710Y-011100
X-036710Y-010100
X-037710Y-009100
X-035710Y-009100
X-035710Y-011100
X-035450Y-005870
X-033850Y-004860
X-034340Y-003360
X-031880Y001200
X-030090Y000520
X-004750Y000000
X-004750Y-003250
X-004750Y-008000
X-004750Y-011250
X-004750Y-016000
X-004750Y-019250
X-004750Y-024000
X-004750Y-027250
X-004750Y-032000
X-004750Y-035250
X-004750Y-040000
X000000Y-040000
X000690Y-037630
X002620Y-038800
X004410Y-039480
X000000Y-035370
X000000Y-032000
X000690Y-029620
X002620Y-030800
X004410Y-031480
X000000Y-027370
X000000Y-024000
X000690Y-021630
X002620Y-022800
X004410Y-023480
X000000Y-019370
X000000Y-016000
X000810Y-013630
X002620Y-014800
X004410Y-015480
X000000Y-011370
X000000Y-008000
X000810Y-005620
X002620Y-006800
X004410Y-007480
X000000Y-003370
X000000Y000000
X000810Y002370
X002620Y001200
X004410Y000520
X000000Y004630
X-004750Y004750
X015410Y-016980
X016790Y-016850
X017790Y-017850
X018790Y-016850
X018790Y-018850
X016790Y-018850
T04
X009290Y-039980
X009290Y-035980
X009290Y-032730
X009290Y-028730
X009290Y-025480
X009290Y-021480
X013290Y-021480
X013290Y-017480
X013290Y-013480
X013290Y-009730
X013290Y-005730
X009290Y-005730
X009290Y-009730
X009290Y-013480
X009290Y-017480
X013290Y-025480
X013290Y-028730
X013290Y-032730
X013290Y-035980
X013290Y-039980
X013410Y-000980
X013410Y003020
X009410Y003020
X009410Y-000980
T05
X-038590Y-042110
X011910Y-042110
X011410Y009890
X-039090Y009890
M30
