; Drill file
; Format: 2.4 (00.0000)
M48
INCH
T01C0.0283
T02C0.0354
T03C0.0394
T04C0.0591
T05C0.1299
%
G05
G90
T01
X-009970Y-039550
X-009970Y-031550
X-009970Y-023550
X-009970Y-015550
X-010220Y-007430
X-017720Y-007050
X-017720Y-011050
X-009970Y000450
X024530Y000450
X024530Y-007550
X024530Y-015550
X024530Y-023550
X024530Y-031550
X024530Y-039550
T02
X-011770Y-040870
X-007100Y-046980
X-001100Y-046980
X000030Y-042800
X000030Y-041550
X000030Y-040050
X002780Y-040050
X002780Y-041550
X002780Y-042800
X005420Y-043450
X005410Y-041440
X005810Y-039710
X007820Y-039700
X007910Y-041440
X007920Y-043450
X010030Y-042800
X010030Y-041550
X010030Y-040050
X012780Y-040050
X012780Y-041550
X012780Y-042800
X014400Y-046980
X020900Y-046980
X022730Y-040870
X022730Y-032870
X022730Y-024870
X022730Y-016870
X022730Y-008870
X023050Y-000750
X021530Y003430
X020530Y003430
X020870Y005850
X027350Y003420
X028350Y003420
X027960Y005930
X038430Y001870
X038390Y-007580
X038200Y-015730
X038310Y-027660
X038390Y-034350
X038120Y-042150
X012780Y-034800
X012780Y-033550
X012780Y-032050
X010030Y-032050
X010030Y-033550
X010030Y-034800
X007920Y-035450
X007910Y-033440
X007820Y-031700
X005810Y-031710
X005410Y-033440
X005420Y-035450
X002780Y-034800
X002780Y-033550
X002780Y-032050
X000030Y-032050
X000030Y-033550
X000030Y-034800
X000030Y-026800
X000030Y-025550
X000030Y-024050
X002780Y-024050
X002780Y-025550
X002780Y-026800
X005420Y-027450
X005410Y-025440
X005810Y-023710
X007820Y-023700
X007910Y-025440
X007920Y-027450
X010030Y-026800
X010030Y-025550
X010030Y-024050
X012780Y-024050
X012780Y-025550
X012780Y-026800
X012780Y-018800
X012780Y-017550
X012780Y-016050
X010030Y-016050
X010030Y-017550
X010030Y-018800
X007920Y-019450
X007910Y-017440
X007820Y-015700
X005810Y-015710
X005410Y-017440
X005420Y-019450
X002780Y-018800
X002780Y-017550
X002780Y-016050
X000030Y-016050
X000030Y-017550
X000030Y-018800
X000030Y-010800
X000030Y-009550
X000030Y-008050
X002780Y-008050
X002780Y-009550
X002780Y-010800
X005420Y-011450
X005410Y-009440
X005810Y-007710
X007820Y-007700
X007910Y-009440
X007920Y-011450
X010030Y-010800
X010030Y-009550
X010030Y-008050
X012780Y-008050
X012780Y-009550
X012780Y-010800
X012780Y-002800
X012780Y-001550
X012780Y-000050
X010030Y-000050
X010030Y-001550
X010030Y-002800
X007920Y-003450
X007910Y-001440
X007820Y000300
X005810Y000290
X005410Y-001440
X005420Y-003450
X002780Y-002800
X002780Y-001550
X002780Y-000050
X000030Y-000050
X000030Y-001550
X000030Y-002800
X-001650Y003420
X-002650Y003420
X-002500Y005930
X-009370Y006120
X-009150Y003420
X-010150Y003420
X-011770Y-000870
X-015650Y004420
X-016650Y004420
X-019100Y000020
X-015340Y-007940
X-011720Y-008930
X-011770Y-016870
X-011450Y-024750
X-011770Y-032870
X-019100Y-034980
X007400Y-046980
X005350Y003420
X004350Y003420
X005130Y005810
X013000Y005930
X012850Y003420
X013850Y003420
T03
X-011760Y-042880
X-009970Y-043550
X-008010Y-041920
X-007220Y-044170
X-007220Y-039550
X-007220Y-036170
X-008010Y-033920
X-007220Y-031550
X-007220Y-028170
X-008010Y-025920
X-007220Y-023550
X-007220Y-020170
X-008010Y-017920
X-007220Y-015550
X-007220Y-012170
X-008010Y-009920
X-007220Y-007550
X-007220Y-004170
X-007990Y-001920
X-007220Y000450
X-002470Y000450
X-002470Y-004300
X-002470Y-007550
X-002470Y-012300
X-002470Y-015550
X-002470Y-020300
X-002470Y-023550
X-002470Y-028300
X-002470Y-031550
X-002470Y-036300
X-002470Y-039550
X-002470Y-044300
X-009970Y-035550
X-011760Y-034880
X-015600Y-029670
X-016600Y-028670
X-015600Y-027670
X-017600Y-027670
X-017600Y-029670
X-019040Y-023520
X-014290Y-023520
X-011450Y-026760
X-009970Y-027550
X-009970Y-019550
X-011760Y-018880
X-014290Y-018770
X-016670Y-017980
X-018920Y-018770
X-017600Y-015170
X-016600Y-014170
X-017600Y-013170
X-015600Y-013170
X-015600Y-015170
X-015330Y-009950
X-013730Y-008930
X-014220Y-007430
X-011760Y-002880
X-009970Y-003550
X015370Y-004070
X015370Y-007320
X015370Y-012070
X015370Y-015320
X015370Y-020070
X015370Y-023320
X015370Y-028070
X015370Y-031320
X015370Y-036070
X015370Y-039320
X015370Y-044070
X020120Y-044070
X020800Y-041700
X022740Y-042880
X024530Y-043550
X020120Y-039450
X020120Y-036070
X020800Y-033700
X022740Y-034880
X024530Y-035550
X020120Y-031450
X020120Y-028070
X020800Y-025700
X022740Y-026880
X024530Y-027550
X020120Y-023450
X020120Y-020070
X020930Y-017700
X022740Y-018880
X024530Y-019550
X020120Y-015450
X020120Y-012070
X020930Y-009700
X022740Y-010880
X024530Y-011550
X020120Y-007450
X020120Y-004070
X020930Y-001700
X023050Y-002760
X024530Y-003550
X020120Y000550
X015370Y000680
X035530Y-021050
X036900Y-020920
X037900Y-021920
X038900Y-020920
X038900Y-022920
X036900Y-022920
T04
X029400Y-044050
X029400Y-040050
X029400Y-036800
X029400Y-032800
X029400Y-029550
X029400Y-025550
X033400Y-025550
X033400Y-021550
X033400Y-017550
X033400Y-013800
X033400Y-009800
X029400Y-009800
X029400Y-013800
X029400Y-017550
X029400Y-021550
X033400Y-029550
X033400Y-032800
X033400Y-036800
X033400Y-040050
X033400Y-044050
X033530Y-005050
X033530Y-001050
X029530Y-001050
X029530Y-005050
T05
X-018470Y-046180
X032030Y-046180
X031530Y005820
X-018970Y005820
M30
