%FSLAX34Y34*%
%MOMM*%
%LNSILK_TOP*%
G71*
G01*
%ADD10C,0.200*%
%ADD11C,0.150*%
%ADD12C,0.167*%
%ADD13C,0.144*%
%ADD14C,0.333*%
%ADD15C,0.222*%
%ADD16C,0.400*%
%ADD17C,0.111*%
%LPD*%
G54D10*
X-260900Y112914D02*
X-254900Y118914D01*
X-254900Y102914D01*
G54D10*
X-240900Y115914D02*
X-242100Y117914D01*
X-244500Y118914D01*
X-246900Y118914D01*
X-249300Y117914D01*
X-250500Y115914D01*
X-250500Y110914D01*
X-250500Y109914D01*
X-246900Y111914D01*
X-244500Y111914D01*
X-242100Y110914D01*
X-240900Y108914D01*
X-240900Y105914D01*
X-242100Y103914D01*
X-244500Y102914D01*
X-246900Y102914D01*
X-249300Y103914D01*
X-250500Y105914D01*
X-250500Y110914D01*
G54D10*
X-226900Y115914D02*
X-226900Y105914D01*
X-228100Y103914D01*
X-230500Y102914D01*
X-232900Y102914D01*
X-235300Y103914D01*
X-236500Y105914D01*
X-236500Y115914D01*
X-235300Y117914D01*
X-232900Y118914D01*
X-230500Y118914D01*
X-228100Y117914D01*
X-226900Y115914D01*
G54D11*
X-270696Y74288D02*
X-270696Y99688D01*
X-219896Y99688D01*
X-219896Y74288D01*
X-270696Y74288D01*
G54D10*
X-64400Y110914D02*
X-66800Y110914D01*
X-69200Y111914D01*
X-70400Y113914D01*
X-70400Y115914D01*
X-69200Y117914D01*
X-66800Y118914D01*
X-64400Y118914D01*
X-62000Y117914D01*
X-60800Y115914D01*
X-60800Y113914D01*
X-62000Y111914D01*
X-64400Y110914D01*
X-62000Y109914D01*
X-60800Y107914D01*
X-60800Y105914D01*
X-62000Y103914D01*
X-64400Y102914D01*
X-66800Y102914D01*
X-69200Y103914D01*
X-70400Y105914D01*
X-70400Y107914D01*
X-69200Y109914D01*
X-66800Y110914D01*
G54D10*
X-46800Y115914D02*
X-46800Y105914D01*
X-48000Y103914D01*
X-50400Y102914D01*
X-52800Y102914D01*
X-55200Y103914D01*
X-56400Y105914D01*
X-56400Y115914D01*
X-55200Y117914D01*
X-52800Y118914D01*
X-50400Y118914D01*
X-48000Y117914D01*
X-46800Y115914D01*
G54D11*
X-80196Y74288D02*
X-80196Y99688D01*
X-29396Y99688D01*
X-29396Y74288D01*
X-80196Y74288D01*
G54D11*
X242000Y17850D02*
X343600Y17850D01*
X343600Y-90100D01*
X242000Y-90100D01*
X242000Y17850D01*
G54D11*
X208806Y-5262D02*
X208806Y20138D01*
X137206Y20138D01*
X137206Y-5262D01*
X208806Y-5262D01*
G54D12*
X156150Y25529D02*
X156150Y25529D01*
G54D11*
X-12000Y17850D02*
X89600Y17850D01*
X89600Y-90100D01*
X-12000Y-90100D01*
X-12000Y17850D01*
G54D11*
X150360Y-26312D02*
X124960Y-26312D01*
X124960Y-97912D01*
X150360Y-97912D01*
X150360Y-26312D01*
G54D12*
X119569Y-78968D02*
X119569Y-78968D01*
G54D11*
X213860Y-26312D02*
X188460Y-26312D01*
X188460Y-97912D01*
X213860Y-97912D01*
X213860Y-26312D01*
G54D12*
X183069Y-78968D02*
X183069Y-78968D01*
G54D11*
X-239600Y-77400D02*
X-267000Y-77400D01*
X-267000Y-1200D01*
X-239600Y-1200D01*
X-239600Y-77400D01*
G54D11*
X-267000Y-7500D02*
X-239600Y-7500D01*
G54D10*
X114600Y102914D02*
X114600Y118914D01*
X107400Y108914D01*
X107400Y106914D01*
X117000Y106914D01*
G54D10*
X131000Y115914D02*
X131000Y105914D01*
X129800Y103914D01*
X127400Y102914D01*
X125000Y102914D01*
X122600Y103914D01*
X121400Y105914D01*
X121400Y115914D01*
X122600Y117914D01*
X125000Y118914D01*
X127400Y118914D01*
X129800Y117914D01*
X131000Y115914D01*
G54D11*
X97604Y74288D02*
X97604Y99688D01*
X148404Y99688D01*
X148404Y74288D01*
X97604Y74288D01*
G54D10*
X323300Y115914D02*
X324500Y117914D01*
X326900Y118914D01*
X329300Y118914D01*
X331700Y117914D01*
X332900Y115914D01*
X332900Y113914D01*
X331700Y111914D01*
X329300Y110914D01*
X331700Y109914D01*
X332900Y107914D01*
X332900Y105914D01*
X331700Y103914D01*
X329300Y102914D01*
X326900Y102914D01*
X324500Y103914D01*
X323300Y105914D01*
G54D10*
X346900Y115914D02*
X346900Y105914D01*
X345700Y103914D01*
X343300Y102914D01*
X340900Y102914D01*
X338500Y103914D01*
X337300Y105914D01*
X337300Y115914D01*
X338500Y117914D01*
X340900Y118914D01*
X343300Y118914D01*
X345700Y117914D01*
X346900Y115914D01*
G54D11*
X313504Y74288D02*
X313504Y99688D01*
X364304Y99688D01*
X364304Y74288D01*
X313504Y74288D01*
G54D10*
X500492Y113022D02*
X506492Y119022D01*
X506492Y103022D01*
G54D10*
X510892Y119022D02*
X520492Y119022D01*
X519292Y117022D01*
X516892Y114022D01*
X514492Y110022D01*
X513292Y107022D01*
X513292Y103022D01*
G54D10*
X524892Y110022D02*
X534492Y110022D01*
G54D10*
X538892Y116022D02*
X540092Y118022D01*
X542492Y119022D01*
X544892Y119022D01*
X547292Y118022D01*
X548492Y116022D01*
X548492Y114022D01*
X547292Y112022D01*
X544892Y111022D01*
X547292Y110022D01*
X548492Y108022D01*
X548492Y106022D01*
X547292Y104022D01*
X544892Y103022D01*
X542492Y103022D01*
X540092Y104022D01*
X538892Y106022D01*
G54D10*
X562492Y116022D02*
X562492Y106022D01*
X561292Y104022D01*
X558892Y103022D01*
X556492Y103022D01*
X554092Y104022D01*
X552892Y106022D01*
X552892Y116022D01*
X554092Y118022D01*
X556492Y119022D01*
X558892Y119022D01*
X561292Y118022D01*
X562492Y116022D01*
G54D11*
X508696Y74396D02*
X508696Y99796D01*
X559496Y99796D01*
X559496Y74396D01*
X508696Y74396D01*
G54D11*
X-472400Y-309200D02*
X-370800Y-309200D01*
X-370800Y-410800D01*
X-472400Y-410800D01*
X-472400Y-309200D01*
G54D13*
X-473150Y-282450D02*
X-473150Y-282450D01*
G54D13*
X-473150Y-301950D02*
X-473150Y-301950D01*
G54D11*
X-472400Y-677500D02*
X-370800Y-677500D01*
X-370800Y-779100D01*
X-472400Y-779100D01*
X-472400Y-677500D01*
G54D13*
X-473150Y-650750D02*
X-473150Y-650750D01*
G54D13*
X-473150Y-670250D02*
X-473150Y-670250D01*
G54D11*
X-436450Y-267900D02*
X-463850Y-267900D01*
X-463850Y-191700D01*
X-436450Y-191700D01*
X-436450Y-267900D01*
G54D11*
X-463850Y-198000D02*
X-436450Y-198000D01*
G54D11*
X-376690Y-191412D02*
X-402090Y-191412D01*
X-402090Y-263012D01*
X-376690Y-263012D01*
X-376690Y-191412D01*
G54D12*
X-407481Y-244068D02*
X-407481Y-244068D01*
G54D10*
X-421200Y85514D02*
X-417600Y83514D01*
X-416400Y81514D01*
X-416400Y77514D01*
G54D10*
X-426000Y77514D02*
X-426000Y93514D01*
X-420000Y93514D01*
X-417600Y92514D01*
X-416400Y90514D01*
X-416400Y88514D01*
X-417600Y86514D01*
X-420000Y85514D01*
X-426000Y85514D01*
G54D10*
X-412000Y93514D02*
X-400000Y77514D01*
G54D10*
X-412000Y77514D02*
X-400000Y93514D01*
G54D10*
X-395600Y77514D02*
X-386000Y93514D01*
G54D10*
X-376800Y77514D02*
X-376800Y93514D01*
G54D10*
X-381600Y93514D02*
X-372000Y93514D01*
G54D10*
X-367600Y93514D02*
X-355600Y77514D01*
G54D10*
X-367600Y77514D02*
X-355600Y93514D01*
G54D11*
X-435796Y99688D02*
X-435796Y125088D01*
X-384996Y125088D01*
X-384996Y99688D01*
X-435796Y99688D01*
G54D10*
X-443129Y112917D02*
X-449480Y112917D01*
G54D10*
X-449480Y104980D02*
X-449479Y120855D01*
G54D10*
X-452654Y118474D02*
X-452654Y107361D01*
G54D10*
X-455829Y110536D02*
X-455829Y115298D01*
G54D10*
X-423150Y-283700D02*
X-419550Y-285700D01*
X-418350Y-287700D01*
X-418350Y-291700D01*
G54D10*
X-427950Y-291700D02*
X-427950Y-275700D01*
X-421950Y-275700D01*
X-419550Y-276700D01*
X-418350Y-278700D01*
X-418350Y-280700D01*
X-419550Y-282700D01*
X-421950Y-283700D01*
X-427950Y-283700D01*
G54D10*
X-413950Y-275700D02*
X-401950Y-291700D01*
G54D10*
X-413950Y-291700D02*
X-401950Y-275700D01*
G54D10*
X-442200Y-812400D02*
X-442200Y-796400D01*
G54D10*
X-447000Y-796400D02*
X-437400Y-796400D01*
G54D10*
X-433000Y-796400D02*
X-421000Y-812400D01*
G54D10*
X-433000Y-812400D02*
X-421000Y-796400D01*
G54D14*
X-382098Y-824408D02*
X-378765Y-822408D01*
X-377098Y-818408D01*
X-377098Y-814408D01*
X-378765Y-810408D01*
X-382098Y-808408D01*
X-390431Y-808408D01*
X-392098Y-808408D01*
X-388765Y-814408D01*
X-388765Y-818408D01*
X-390431Y-822408D01*
X-393765Y-824408D01*
X-398765Y-824408D01*
X-402098Y-822408D01*
X-403765Y-818408D01*
X-403765Y-814408D01*
X-402098Y-810408D01*
X-398765Y-808408D01*
X-390431Y-808408D01*
G54D14*
X-392098Y-839474D02*
X-392098Y-855474D01*
G54D14*
X-403765Y-870540D02*
X-377098Y-870540D01*
X-377098Y-880540D01*
X-378765Y-884540D01*
X-382098Y-886540D01*
X-385431Y-886540D01*
X-388765Y-884540D01*
X-390431Y-880540D01*
X-392098Y-884540D01*
X-395431Y-886540D01*
X-398765Y-886540D01*
X-402098Y-884540D01*
X-403765Y-880540D01*
X-403765Y-870540D01*
G54D14*
X-390431Y-870540D02*
X-390431Y-880540D01*
G54D14*
X-403765Y-893872D02*
X-377098Y-903872D01*
X-403765Y-913872D01*
G54D14*
X-393765Y-897872D02*
X-393765Y-909872D01*
G54D14*
X-403765Y-921206D02*
X-377098Y-921206D01*
X-403765Y-937206D01*
X-377098Y-937206D01*
G54D14*
X-403765Y-944538D02*
X-377098Y-944538D01*
X-377098Y-954538D01*
X-378765Y-958538D01*
X-382098Y-960538D01*
X-398765Y-960538D01*
X-402098Y-958538D01*
X-403765Y-954538D01*
X-403765Y-944538D01*
G54D14*
X-398765Y-967872D02*
X-402098Y-969872D01*
X-403765Y-973872D01*
X-403765Y-977872D01*
X-402098Y-981872D01*
X-398765Y-983872D01*
X-395431Y-983872D01*
X-392098Y-981872D01*
X-390431Y-977872D01*
X-390431Y-973872D01*
X-388765Y-969872D01*
X-385431Y-967872D01*
X-382098Y-967872D01*
X-378765Y-969872D01*
X-377098Y-973872D01*
X-377098Y-977872D01*
X-378765Y-981872D01*
X-382098Y-983872D01*
G54D14*
X-392098Y-998938D02*
X-392098Y-1014938D01*
G54D14*
X-403765Y-1030004D02*
X-377098Y-1030004D01*
X-377098Y-1040004D01*
X-378765Y-1044004D01*
X-382098Y-1046004D01*
X-385431Y-1046004D01*
X-388765Y-1044004D01*
X-390431Y-1040004D01*
X-392098Y-1044004D01*
X-395431Y-1046004D01*
X-398765Y-1046004D01*
X-402098Y-1044004D01*
X-403765Y-1040004D01*
X-403765Y-1030004D01*
G54D14*
X-390431Y-1030004D02*
X-390431Y-1040004D01*
G54D14*
X-403765Y-1053336D02*
X-377098Y-1053336D01*
X-377098Y-1063336D01*
X-378765Y-1067336D01*
X-382098Y-1069336D01*
X-385431Y-1069336D01*
X-388765Y-1067336D01*
X-390431Y-1063336D01*
X-390431Y-1053336D01*
G54D14*
X-403765Y-1076670D02*
X-377098Y-1076670D01*
X-377098Y-1090670D01*
G54D14*
X-390431Y-1076670D02*
X-390431Y-1090670D01*
G54D14*
X-403765Y-1105736D02*
X-377098Y-1115736D01*
X-403765Y-1125736D01*
G54D14*
X-393765Y-1109736D02*
X-393765Y-1121736D01*
G54D14*
X-403765Y-1141068D02*
X-377098Y-1141068D01*
G54D14*
X-377098Y-1133068D02*
X-377098Y-1149068D01*
G54D14*
X-403765Y-1164402D02*
X-377098Y-1164402D01*
G54D14*
X-377098Y-1156402D02*
X-377098Y-1172402D01*
G54D14*
X-403765Y-1179734D02*
X-377098Y-1179734D01*
X-403765Y-1195734D01*
X-377098Y-1195734D01*
G54D15*
X156250Y43261D02*
X162917Y49928D01*
X162917Y32150D01*
G54D15*
X178473Y46594D02*
X177139Y48817D01*
X174473Y49928D01*
X171806Y49928D01*
X169139Y48817D01*
X167806Y46594D01*
X167806Y41039D01*
X167806Y39928D01*
X171806Y42150D01*
X174473Y42150D01*
X177139Y41039D01*
X178473Y38817D01*
X178473Y35483D01*
X177139Y33261D01*
X174473Y32150D01*
X171806Y32150D01*
X169139Y33261D01*
X167806Y35483D01*
X167806Y41039D01*
G54D15*
X194029Y46594D02*
X194029Y35483D01*
X192695Y33261D01*
X190029Y32150D01*
X187362Y32150D01*
X184695Y33261D01*
X183362Y35483D01*
X183362Y46594D01*
X184695Y48817D01*
X187362Y49928D01*
X190029Y49928D01*
X192695Y48817D01*
X194029Y46594D01*
G54D11*
X681804Y74288D02*
X681804Y99688D01*
X732604Y99688D01*
X732604Y74288D01*
X681804Y74288D01*
G54D10*
X670600Y112000D02*
X676600Y118000D01*
X676600Y102000D01*
G54D10*
X690600Y118000D02*
X681000Y118000D01*
X681000Y111000D01*
X682200Y111000D01*
X684600Y112000D01*
X687000Y112000D01*
X689400Y111000D01*
X690600Y109000D01*
X690600Y105000D01*
X689400Y103000D01*
X687000Y102000D01*
X684600Y102000D01*
X682200Y103000D01*
X681000Y105000D01*
G54D10*
X695000Y109000D02*
X704600Y109000D01*
G54D10*
X709000Y112000D02*
X715000Y118000D01*
X715000Y102000D01*
G54D10*
X729000Y115000D02*
X729000Y105000D01*
X727800Y103000D01*
X725400Y102000D01*
X723000Y102000D01*
X720600Y103000D01*
X719400Y105000D01*
X719400Y115000D01*
X720600Y117000D01*
X723000Y118000D01*
X725400Y118000D01*
X727800Y117000D01*
X729000Y115000D01*
G54D16*
X-226778Y39769D02*
X-29928Y39769D01*
X-29928Y-131681D01*
X-226778Y-131681D01*
X-226778Y39769D01*
G54D15*
X-75624Y-17602D02*
X-75624Y-7602D01*
G54D15*
X-75624Y-9824D02*
X-74290Y-8268D01*
X-71624Y-7602D01*
X-68957Y-8268D01*
X-67624Y-9824D01*
X-67623Y-17602D01*
G54D15*
X-56068Y-8268D02*
X-58734Y-7602D01*
X-61401Y-8268D01*
X-62734Y-10491D01*
X-62734Y-14935D01*
X-61401Y-17157D01*
X-58734Y-17602D01*
X-56068Y-17157D01*
G54D15*
X-73429Y-87096D02*
X-73429Y-77096D01*
G54D15*
X-73429Y-79318D02*
X-72096Y-77763D01*
X-69429Y-77096D01*
X-66762Y-77763D01*
X-65429Y-79318D01*
X-65429Y-87096D01*
G54D15*
X-60540Y-78207D02*
X-57873Y-77096D01*
X-54674Y-77096D01*
X-52540Y-79318D01*
X-52540Y-87096D01*
G54D15*
X-52540Y-83763D02*
X-53873Y-81540D01*
X-56540Y-81096D01*
X-59207Y-81540D01*
X-60540Y-83763D01*
X-60007Y-85985D01*
X-57874Y-87096D01*
X-56540Y-87096D01*
X-56007Y-87096D01*
X-53873Y-85985D01*
X-52540Y-83763D01*
G54D11*
X-286041Y-11840D02*
X-311441Y-11840D01*
X-311441Y-83440D01*
X-286041Y-83440D01*
X-286041Y-11840D01*
G54D12*
X-316832Y-64495D02*
X-316832Y-64495D01*
G54D17*
X-237682Y-31153D02*
X-237682Y-31153D01*
G54D13*
X-254178Y-198931D02*
X-254178Y-198931D01*
G54D16*
X554272Y-131681D02*
X357422Y-131681D01*
X357422Y39769D01*
X554272Y39769D01*
X554272Y-131681D01*
G54D15*
X383606Y-84292D02*
X383606Y-74292D01*
G54D15*
X383606Y-76514D02*
X384939Y-74958D01*
X387606Y-74292D01*
X390272Y-74958D01*
X391606Y-76514D01*
X391606Y-84292D01*
G54D15*
X403161Y-74958D02*
X400495Y-74292D01*
X397828Y-74958D01*
X396495Y-77181D01*
X396494Y-81625D01*
X397828Y-83847D01*
X400495Y-84292D01*
X403161Y-83847D01*
G54D15*
X380034Y-14816D02*
X380034Y-4816D01*
G54D15*
X380034Y-7038D02*
X381367Y-5483D01*
X384034Y-4816D01*
X386701Y-5483D01*
X388034Y-7038D01*
X388034Y-14816D01*
G54D15*
X392923Y-5927D02*
X395590Y-4816D01*
X398790Y-4816D01*
X400923Y-7038D01*
X400923Y-14816D01*
G54D15*
X400923Y-11483D02*
X399590Y-9260D01*
X396923Y-8816D01*
X394256Y-9260D01*
X392923Y-11483D01*
X393456Y-13705D01*
X395590Y-14816D01*
X396923Y-14816D01*
X397456Y-14816D01*
X399590Y-13705D01*
X400923Y-11483D01*
G54D11*
X636700Y-77400D02*
X609300Y-77400D01*
X609300Y-1200D01*
X636700Y-1200D01*
X636700Y-77400D01*
G54D11*
X609300Y-7500D02*
X636700Y-7500D01*
G54D11*
X598259Y-8840D02*
X572859Y-8840D01*
X572859Y-80440D01*
X598259Y-80440D01*
X598259Y-8840D01*
G54D12*
X567468Y-61495D02*
X567468Y-61495D01*
G54D17*
X638618Y-31153D02*
X638618Y-31153D01*
G54D11*
X242000Y-185350D02*
X343600Y-185350D01*
X343600Y-293300D01*
X242000Y-293300D01*
X242000Y-185350D01*
G54D11*
X208806Y-208462D02*
X208806Y-183062D01*
X137206Y-183062D01*
X137206Y-208462D01*
X208806Y-208462D01*
G54D12*
X156150Y-177671D02*
X156150Y-177671D01*
G54D11*
X-12000Y-185350D02*
X89600Y-185350D01*
X89600Y-293300D01*
X-12000Y-293300D01*
X-12000Y-185350D01*
G54D11*
X150360Y-229512D02*
X124960Y-229512D01*
X124960Y-301112D01*
X150360Y-301112D01*
X150360Y-229512D01*
G54D12*
X119569Y-282168D02*
X119569Y-282168D01*
G54D11*
X213860Y-229512D02*
X188460Y-229512D01*
X188460Y-301112D01*
X213860Y-301112D01*
X213860Y-229512D01*
G54D12*
X183069Y-282168D02*
X183069Y-282168D01*
G54D15*
X169267Y-155811D02*
X166600Y-155811D01*
X163933Y-154700D01*
X162600Y-152478D01*
X162600Y-150256D01*
X163933Y-148033D01*
X166600Y-146922D01*
X169267Y-146922D01*
X171933Y-148033D01*
X173267Y-150256D01*
X173267Y-152478D01*
X171933Y-154700D01*
X169267Y-155811D01*
X171933Y-156922D01*
X173267Y-159144D01*
X173267Y-161367D01*
X171933Y-163589D01*
X169267Y-164700D01*
X166600Y-164700D01*
X163933Y-163589D01*
X162600Y-161367D01*
X162600Y-159144D01*
X163933Y-156922D01*
X166600Y-155811D01*
G54D15*
X188823Y-150256D02*
X188823Y-161367D01*
X187489Y-163589D01*
X184823Y-164700D01*
X182156Y-164700D01*
X179489Y-163589D01*
X178156Y-161367D01*
X178156Y-150256D01*
X179489Y-148033D01*
X182156Y-146922D01*
X184823Y-146922D01*
X187489Y-148033D01*
X188823Y-150256D01*
G54D16*
X-226778Y-163431D02*
X-29928Y-163431D01*
X-29928Y-334881D01*
X-226778Y-334881D01*
X-226778Y-163431D01*
G54D15*
X-75624Y-220802D02*
X-75624Y-210802D01*
G54D15*
X-75624Y-213024D02*
X-74290Y-211468D01*
X-71624Y-210802D01*
X-68957Y-211468D01*
X-67624Y-213024D01*
X-67623Y-220802D01*
G54D15*
X-56068Y-211468D02*
X-58734Y-210802D01*
X-61401Y-211468D01*
X-62734Y-213691D01*
X-62734Y-218135D01*
X-61401Y-220357D01*
X-58734Y-220802D01*
X-56068Y-220357D01*
G54D15*
X-73429Y-290296D02*
X-73429Y-280296D01*
G54D15*
X-73429Y-282518D02*
X-72096Y-280963D01*
X-69429Y-280296D01*
X-66762Y-280963D01*
X-65429Y-282518D01*
X-65429Y-290296D01*
G54D15*
X-60540Y-281407D02*
X-57873Y-280296D01*
X-54674Y-280296D01*
X-52540Y-282518D01*
X-52540Y-290296D01*
G54D15*
X-52540Y-286963D02*
X-53873Y-284740D01*
X-56540Y-284296D01*
X-59207Y-284740D01*
X-60540Y-286963D01*
X-60007Y-289185D01*
X-57874Y-290296D01*
X-56540Y-290296D01*
X-56007Y-290296D01*
X-53873Y-289185D01*
X-52540Y-286963D01*
G54D11*
X-287535Y-239584D02*
X-287535Y-214183D01*
X-359135Y-214183D01*
X-359135Y-239583D01*
X-287535Y-239584D01*
G54D12*
X-340191Y-208792D02*
X-340191Y-208792D01*
G54D17*
X-237682Y-234353D02*
X-237682Y-234353D01*
G54D16*
X554272Y-334881D02*
X357422Y-334881D01*
X357422Y-163431D01*
X554272Y-163431D01*
X554272Y-334881D01*
G54D15*
X383606Y-287492D02*
X383606Y-277492D01*
G54D15*
X383606Y-279714D02*
X384939Y-278158D01*
X387606Y-277492D01*
X390272Y-278158D01*
X391606Y-279714D01*
X391606Y-287492D01*
G54D15*
X403161Y-278158D02*
X400495Y-277492D01*
X397828Y-278158D01*
X396495Y-280381D01*
X396494Y-284825D01*
X397828Y-287047D01*
X400495Y-287492D01*
X403161Y-287047D01*
G54D15*
X380034Y-218016D02*
X380034Y-208016D01*
G54D15*
X380034Y-210238D02*
X381367Y-208683D01*
X384034Y-208016D01*
X386701Y-208683D01*
X388034Y-210238D01*
X388034Y-218016D01*
G54D15*
X392923Y-209127D02*
X395590Y-208016D01*
X398790Y-208016D01*
X400923Y-210238D01*
X400923Y-218016D01*
G54D15*
X400923Y-214683D02*
X399590Y-212460D01*
X396923Y-212016D01*
X394256Y-212460D01*
X392923Y-214683D01*
X393456Y-216905D01*
X395590Y-218016D01*
X396923Y-218016D01*
X397456Y-218016D01*
X399590Y-216905D01*
X400923Y-214683D01*
G54D11*
X636700Y-280600D02*
X609300Y-280600D01*
X609300Y-204400D01*
X636700Y-204400D01*
X636700Y-280600D01*
G54D11*
X609300Y-210700D02*
X636700Y-210700D01*
G54D11*
X590259Y-215040D02*
X564859Y-215040D01*
X564859Y-286640D01*
X590259Y-286640D01*
X590259Y-215040D01*
G54D12*
X559468Y-267695D02*
X559468Y-267695D01*
G54D17*
X638618Y-234353D02*
X638618Y-234353D01*
G54D11*
X242000Y-388550D02*
X343600Y-388550D01*
X343600Y-496500D01*
X242000Y-496500D01*
X242000Y-388550D01*
G54D11*
X208806Y-411662D02*
X208806Y-386262D01*
X137206Y-386262D01*
X137206Y-411662D01*
X208806Y-411662D01*
G54D12*
X156150Y-380871D02*
X156150Y-380871D01*
G54D11*
X-12000Y-388550D02*
X89600Y-388550D01*
X89600Y-496500D01*
X-12000Y-496500D01*
X-12000Y-388550D01*
G54D11*
X150360Y-432712D02*
X124960Y-432712D01*
X124960Y-504312D01*
X150360Y-504312D01*
X150360Y-432712D01*
G54D12*
X119569Y-485368D02*
X119569Y-485368D01*
G54D11*
X213860Y-432712D02*
X188460Y-432712D01*
X188460Y-504312D01*
X213860Y-504312D01*
X213860Y-432712D01*
G54D12*
X183069Y-485368D02*
X183069Y-485368D01*
G54D11*
X-239600Y-483800D02*
X-267000Y-483800D01*
X-267000Y-407600D01*
X-239600Y-407600D01*
X-239600Y-483800D01*
G54D11*
X-267000Y-413900D02*
X-239600Y-413900D01*
G54D15*
X170600Y-380600D02*
X170600Y-362822D01*
X162600Y-373933D01*
X162600Y-376156D01*
X173267Y-376156D01*
G54D15*
X188823Y-366156D02*
X188823Y-377267D01*
X187489Y-379489D01*
X184823Y-380600D01*
X182156Y-380600D01*
X179489Y-379489D01*
X178156Y-377267D01*
X178156Y-366156D01*
X179489Y-363933D01*
X182156Y-362822D01*
X184823Y-362822D01*
X187489Y-363933D01*
X188823Y-366156D01*
G54D16*
X-226778Y-366631D02*
X-29928Y-366631D01*
X-29928Y-538081D01*
X-226778Y-538081D01*
X-226778Y-366631D01*
G54D15*
X-75624Y-424002D02*
X-75624Y-414002D01*
G54D15*
X-75624Y-416224D02*
X-74290Y-414668D01*
X-71624Y-414002D01*
X-68957Y-414668D01*
X-67624Y-416224D01*
X-67623Y-424002D01*
G54D15*
X-56068Y-414668D02*
X-58734Y-414002D01*
X-61401Y-414668D01*
X-62734Y-416891D01*
X-62734Y-421335D01*
X-61401Y-423557D01*
X-58734Y-424002D01*
X-56068Y-423557D01*
G54D15*
X-73429Y-493496D02*
X-73429Y-483496D01*
G54D15*
X-73429Y-485718D02*
X-72096Y-484163D01*
X-69429Y-483496D01*
X-66762Y-484163D01*
X-65429Y-485718D01*
X-65429Y-493496D01*
G54D15*
X-60540Y-484607D02*
X-57873Y-483496D01*
X-54674Y-483496D01*
X-52540Y-485718D01*
X-52540Y-493496D01*
G54D15*
X-52540Y-490163D02*
X-53873Y-487940D01*
X-56540Y-487496D01*
X-59207Y-487940D01*
X-60540Y-490163D01*
X-60007Y-492385D01*
X-57874Y-493496D01*
X-56540Y-493496D01*
X-56007Y-493496D01*
X-53873Y-492385D01*
X-52540Y-490163D01*
G54D11*
X-286041Y-418240D02*
X-311441Y-418240D01*
X-311441Y-489840D01*
X-286041Y-489840D01*
X-286041Y-418240D01*
G54D12*
X-316832Y-470895D02*
X-316832Y-470895D01*
G54D17*
X-237682Y-437553D02*
X-237682Y-437553D01*
G54D16*
X554272Y-538081D02*
X357422Y-538081D01*
X357422Y-366631D01*
X554272Y-366631D01*
X554272Y-538081D01*
G54D15*
X383606Y-490692D02*
X383606Y-480692D01*
G54D15*
X383606Y-482914D02*
X384939Y-481358D01*
X387606Y-480692D01*
X390272Y-481358D01*
X391606Y-482914D01*
X391606Y-490692D01*
G54D15*
X403161Y-481358D02*
X400495Y-480692D01*
X397828Y-481358D01*
X396495Y-483581D01*
X396494Y-488025D01*
X397828Y-490247D01*
X400495Y-490692D01*
X403161Y-490247D01*
G54D15*
X380034Y-421216D02*
X380034Y-411216D01*
G54D15*
X380034Y-413438D02*
X381367Y-411883D01*
X384034Y-411216D01*
X386701Y-411883D01*
X388034Y-413438D01*
X388034Y-421216D01*
G54D15*
X392923Y-412327D02*
X395590Y-411216D01*
X398790Y-411216D01*
X400923Y-413438D01*
X400923Y-421216D01*
G54D15*
X400923Y-417883D02*
X399590Y-415660D01*
X396923Y-415216D01*
X394256Y-415660D01*
X392923Y-417883D01*
X393456Y-420105D01*
X395590Y-421216D01*
X396923Y-421216D01*
X397456Y-421216D01*
X399590Y-420105D01*
X400923Y-417883D01*
G54D11*
X636700Y-483800D02*
X609300Y-483800D01*
X609300Y-407600D01*
X636700Y-407600D01*
X636700Y-483800D01*
G54D11*
X609300Y-413900D02*
X636700Y-413900D01*
G54D11*
X590259Y-418240D02*
X564859Y-418240D01*
X564859Y-489840D01*
X590259Y-489840D01*
X590259Y-418240D01*
G54D12*
X559468Y-470895D02*
X559468Y-470895D01*
G54D17*
X638618Y-437553D02*
X638618Y-437553D01*
G54D11*
X242000Y-591750D02*
X343600Y-591750D01*
X343600Y-699700D01*
X242000Y-699700D01*
X242000Y-591750D01*
G54D11*
X208806Y-614862D02*
X208806Y-589462D01*
X137206Y-589462D01*
X137206Y-614862D01*
X208806Y-614862D01*
G54D12*
X156150Y-584071D02*
X156150Y-584071D01*
G54D11*
X-12000Y-591750D02*
X89600Y-591750D01*
X89600Y-699700D01*
X-12000Y-699700D01*
X-12000Y-591750D01*
G54D11*
X150360Y-635912D02*
X124960Y-635912D01*
X124960Y-707512D01*
X150360Y-707512D01*
X150360Y-635912D01*
G54D12*
X119569Y-688568D02*
X119569Y-688568D01*
G54D11*
X213860Y-635912D02*
X188460Y-635912D01*
X188460Y-707512D01*
X213860Y-707512D01*
X213860Y-635912D01*
G54D12*
X183069Y-688568D02*
X183069Y-688568D01*
G54D11*
X-239600Y-687000D02*
X-267000Y-687000D01*
X-267000Y-610800D01*
X-239600Y-610800D01*
X-239600Y-687000D01*
G54D11*
X-267000Y-617100D02*
X-239600Y-617100D01*
G54D15*
X162600Y-556656D02*
X163933Y-554433D01*
X166600Y-553322D01*
X169267Y-553322D01*
X171933Y-554433D01*
X173267Y-556656D01*
X173267Y-558878D01*
X171933Y-561100D01*
X169267Y-562211D01*
X171933Y-563322D01*
X173267Y-565544D01*
X173267Y-567767D01*
X171933Y-569989D01*
X169267Y-571100D01*
X166600Y-571100D01*
X163933Y-569989D01*
X162600Y-567767D01*
G54D15*
X188823Y-556656D02*
X188823Y-567767D01*
X187489Y-569989D01*
X184823Y-571100D01*
X182156Y-571100D01*
X179489Y-569989D01*
X178156Y-567767D01*
X178156Y-556656D01*
X179489Y-554433D01*
X182156Y-553322D01*
X184823Y-553322D01*
X187489Y-554433D01*
X188823Y-556656D01*
G54D16*
X-226778Y-569831D02*
X-29928Y-569831D01*
X-29928Y-741281D01*
X-226778Y-741281D01*
X-226778Y-569831D01*
G54D15*
X-75624Y-627202D02*
X-75624Y-617202D01*
G54D15*
X-75624Y-619424D02*
X-74290Y-617868D01*
X-71624Y-617202D01*
X-68957Y-617868D01*
X-67624Y-619424D01*
X-67623Y-627202D01*
G54D15*
X-56068Y-617868D02*
X-58734Y-617202D01*
X-61401Y-617868D01*
X-62734Y-620091D01*
X-62734Y-624535D01*
X-61401Y-626757D01*
X-58734Y-627202D01*
X-56068Y-626757D01*
G54D15*
X-73429Y-696696D02*
X-73429Y-686696D01*
G54D15*
X-73429Y-688918D02*
X-72096Y-687363D01*
X-69429Y-686696D01*
X-66762Y-687363D01*
X-65429Y-688918D01*
X-65429Y-696696D01*
G54D15*
X-60540Y-687807D02*
X-57873Y-686696D01*
X-54674Y-686696D01*
X-52540Y-688918D01*
X-52540Y-696696D01*
G54D15*
X-52540Y-693363D02*
X-53873Y-691140D01*
X-56540Y-690696D01*
X-59207Y-691140D01*
X-60540Y-693363D01*
X-60007Y-695585D01*
X-57874Y-696696D01*
X-56540Y-696696D01*
X-56007Y-696696D01*
X-53873Y-695585D01*
X-52540Y-693363D01*
G54D11*
X-278041Y-618440D02*
X-303441Y-618440D01*
X-303441Y-690040D01*
X-278041Y-690040D01*
X-278041Y-618440D01*
G54D12*
X-308832Y-671095D02*
X-308832Y-671095D01*
G54D17*
X-237682Y-640753D02*
X-237682Y-640753D01*
G54D16*
X554272Y-741281D02*
X357422Y-741281D01*
X357422Y-569831D01*
X554272Y-569831D01*
X554272Y-741281D01*
G54D15*
X383606Y-693892D02*
X383606Y-683892D01*
G54D15*
X383606Y-686114D02*
X384939Y-684558D01*
X387606Y-683892D01*
X390272Y-684558D01*
X391606Y-686114D01*
X391606Y-693892D01*
G54D15*
X403161Y-684558D02*
X400495Y-683892D01*
X397828Y-684558D01*
X396495Y-686781D01*
X396494Y-691225D01*
X397828Y-693447D01*
X400495Y-693892D01*
X403161Y-693447D01*
G54D15*
X380034Y-624416D02*
X380034Y-614416D01*
G54D15*
X380034Y-616638D02*
X381367Y-615083D01*
X384034Y-614416D01*
X386701Y-615083D01*
X388034Y-616638D01*
X388034Y-624416D01*
G54D15*
X392923Y-615527D02*
X395590Y-614416D01*
X398790Y-614416D01*
X400923Y-616638D01*
X400923Y-624416D01*
G54D15*
X400923Y-621083D02*
X399590Y-618860D01*
X396923Y-618416D01*
X394256Y-618860D01*
X392923Y-621083D01*
X393456Y-623305D01*
X395590Y-624416D01*
X396923Y-624416D01*
X397456Y-624416D01*
X399590Y-623305D01*
X400923Y-621083D01*
G54D11*
X636700Y-687000D02*
X609300Y-687000D01*
X609300Y-610800D01*
X636700Y-610800D01*
X636700Y-687000D01*
G54D11*
X609300Y-617100D02*
X636700Y-617100D01*
G54D11*
X590259Y-621440D02*
X564859Y-621440D01*
X564859Y-693040D01*
X590259Y-693040D01*
X590259Y-621440D01*
G54D12*
X559468Y-674095D02*
X559468Y-674095D01*
G54D17*
X638618Y-640753D02*
X638618Y-640753D01*
G54D11*
X242000Y-794950D02*
X343600Y-794950D01*
X343600Y-902900D01*
X242000Y-902900D01*
X242000Y-794950D01*
G54D11*
X208806Y-818062D02*
X208806Y-792662D01*
X137206Y-792662D01*
X137206Y-818062D01*
X208806Y-818062D01*
G54D12*
X156150Y-787270D02*
X156150Y-787270D01*
G54D11*
X-12000Y-794950D02*
X89600Y-794950D01*
X89600Y-902900D01*
X-12000Y-902900D01*
X-12000Y-794950D01*
G54D11*
X150360Y-839112D02*
X124960Y-839112D01*
X124960Y-910712D01*
X150360Y-910712D01*
X150360Y-839112D01*
G54D12*
X119569Y-891768D02*
X119569Y-891768D01*
G54D11*
X213860Y-839112D02*
X188460Y-839112D01*
X188460Y-910712D01*
X213860Y-910712D01*
X213860Y-839112D01*
G54D12*
X183069Y-891768D02*
X183069Y-891768D01*
G54D11*
X-239600Y-890200D02*
X-267000Y-890200D01*
X-267000Y-814000D01*
X-239600Y-814000D01*
X-239600Y-890200D01*
G54D11*
X-267000Y-820300D02*
X-239600Y-820300D01*
G54D15*
X162600Y-775889D02*
X169267Y-769222D01*
X169267Y-787000D01*
G54D15*
X174156Y-769222D02*
X184823Y-769222D01*
X183489Y-771444D01*
X180823Y-774778D01*
X178156Y-779222D01*
X176823Y-782556D01*
X176823Y-787000D01*
G54D15*
X189712Y-779222D02*
X200379Y-779222D01*
G54D15*
X215935Y-787000D02*
X205268Y-787000D01*
X205268Y-785889D01*
X206601Y-783667D01*
X214601Y-777000D01*
X215935Y-774778D01*
X215935Y-772556D01*
X214601Y-770333D01*
X211935Y-769222D01*
X209268Y-769222D01*
X206601Y-770333D01*
X205268Y-772556D01*
G54D15*
X231491Y-772556D02*
X231491Y-783667D01*
X230157Y-785889D01*
X227491Y-787000D01*
X224824Y-787000D01*
X222157Y-785889D01*
X220824Y-783667D01*
X220824Y-772556D01*
X222157Y-770333D01*
X224824Y-769222D01*
X227491Y-769222D01*
X230157Y-770333D01*
X231491Y-772556D01*
G54D16*
X-226778Y-773031D02*
X-29928Y-773031D01*
X-29928Y-944481D01*
X-226778Y-944481D01*
X-226778Y-773031D01*
G54D15*
X-75624Y-830402D02*
X-75624Y-820402D01*
G54D15*
X-75624Y-822624D02*
X-74290Y-821068D01*
X-71624Y-820402D01*
X-68957Y-821068D01*
X-67624Y-822624D01*
X-67623Y-830402D01*
G54D15*
X-56068Y-821068D02*
X-58734Y-820402D01*
X-61401Y-821068D01*
X-62734Y-823290D01*
X-62734Y-827735D01*
X-61401Y-829958D01*
X-58734Y-830402D01*
X-56068Y-829957D01*
G54D15*
X-73429Y-899896D02*
X-73429Y-889896D01*
G54D15*
X-73429Y-892118D02*
X-72096Y-890563D01*
X-69429Y-889896D01*
X-66762Y-890563D01*
X-65429Y-892118D01*
X-65429Y-899896D01*
G54D15*
X-60540Y-891007D02*
X-57873Y-889896D01*
X-54674Y-889896D01*
X-52540Y-892118D01*
X-52540Y-899896D01*
G54D15*
X-52540Y-896563D02*
X-53873Y-894340D01*
X-56540Y-893896D01*
X-59207Y-894340D01*
X-60540Y-896562D01*
X-60007Y-898785D01*
X-57874Y-899896D01*
X-56540Y-899896D01*
X-56007Y-899896D01*
X-53873Y-898785D01*
X-52540Y-896563D01*
G54D11*
X-286041Y-824640D02*
X-311441Y-824640D01*
X-311441Y-896240D01*
X-286041Y-896240D01*
X-286041Y-824640D01*
G54D12*
X-316832Y-877296D02*
X-316832Y-877296D01*
G54D17*
X-237682Y-843954D02*
X-237682Y-843954D01*
G54D16*
X554272Y-944481D02*
X357422Y-944481D01*
X357422Y-773031D01*
X554272Y-773031D01*
X554272Y-944481D01*
G54D15*
X383606Y-897092D02*
X383606Y-887092D01*
G54D15*
X383606Y-889314D02*
X384939Y-887758D01*
X387606Y-887092D01*
X390272Y-887758D01*
X391606Y-889314D01*
X391606Y-897092D01*
G54D15*
X403161Y-887758D02*
X400495Y-887092D01*
X397828Y-887758D01*
X396495Y-889980D01*
X396494Y-894425D01*
X397828Y-896648D01*
X400495Y-897092D01*
X403161Y-896647D01*
G54D15*
X380034Y-827616D02*
X380034Y-817616D01*
G54D15*
X380034Y-819838D02*
X381367Y-818283D01*
X384034Y-817616D01*
X386701Y-818283D01*
X388034Y-819838D01*
X388034Y-827616D01*
G54D15*
X392923Y-818727D02*
X395590Y-817616D01*
X398790Y-817616D01*
X400923Y-819838D01*
X400923Y-827616D01*
G54D15*
X400923Y-824283D02*
X399590Y-822060D01*
X396923Y-821616D01*
X394256Y-822060D01*
X392923Y-824282D01*
X393456Y-826505D01*
X395590Y-827616D01*
X396923Y-827616D01*
X397456Y-827616D01*
X399590Y-826505D01*
X400923Y-824283D01*
G54D11*
X636700Y-890200D02*
X609300Y-890200D01*
X609300Y-814000D01*
X636700Y-814000D01*
X636700Y-890200D01*
G54D11*
X609300Y-820300D02*
X636700Y-820300D01*
G54D11*
X590259Y-824640D02*
X564859Y-824640D01*
X564859Y-896240D01*
X590259Y-896240D01*
X590259Y-824640D01*
G54D12*
X559468Y-877296D02*
X559468Y-877296D01*
G54D17*
X638618Y-843954D02*
X638618Y-843954D01*
G54D11*
X242000Y-998150D02*
X343600Y-998150D01*
X343600Y-1106100D01*
X242000Y-1106100D01*
X242000Y-998150D01*
G54D11*
X208806Y-1021262D02*
X208806Y-995862D01*
X137206Y-995862D01*
X137206Y-1021262D01*
X208806Y-1021262D01*
G54D12*
X156150Y-990470D02*
X156150Y-990470D01*
G54D11*
X-12000Y-998150D02*
X89600Y-998150D01*
X89600Y-1106100D01*
X-12000Y-1106100D01*
X-12000Y-998150D01*
G54D11*
X150360Y-1042312D02*
X124960Y-1042312D01*
X124960Y-1113912D01*
X150360Y-1113912D01*
X150360Y-1042312D01*
G54D12*
X119569Y-1094968D02*
X119569Y-1094968D01*
G54D11*
X213860Y-1042312D02*
X188460Y-1042312D01*
X188460Y-1113912D01*
X213860Y-1113912D01*
X213860Y-1042312D01*
G54D12*
X183069Y-1094968D02*
X183069Y-1094968D01*
G54D11*
X-239600Y-1093400D02*
X-267000Y-1093400D01*
X-267000Y-1017200D01*
X-239600Y-1017200D01*
X-239600Y-1093400D01*
G54D11*
X-267000Y-1023500D02*
X-239600Y-1023500D01*
G54D15*
X149900Y-979089D02*
X156567Y-972422D01*
X156567Y-990200D01*
G54D15*
X172123Y-972422D02*
X161456Y-972422D01*
X161456Y-980200D01*
X162789Y-980200D01*
X165456Y-979089D01*
X168123Y-979089D01*
X170789Y-980200D01*
X172123Y-982422D01*
X172123Y-986866D01*
X170789Y-989089D01*
X168123Y-990200D01*
X165456Y-990200D01*
X162789Y-989089D01*
X161456Y-986866D01*
G54D15*
X177012Y-982422D02*
X187679Y-982422D01*
G54D15*
X192568Y-979089D02*
X199235Y-972422D01*
X199235Y-990200D01*
G54D15*
X214791Y-975756D02*
X214791Y-986866D01*
X213457Y-989089D01*
X210791Y-990200D01*
X208124Y-990200D01*
X205457Y-989089D01*
X204124Y-986866D01*
X204124Y-975756D01*
X205457Y-973534D01*
X208124Y-972422D01*
X210791Y-972422D01*
X213457Y-973534D01*
X214791Y-975756D01*
G54D16*
X-226778Y-976231D02*
X-29928Y-976231D01*
X-29928Y-1147681D01*
X-226778Y-1147681D01*
X-226778Y-976231D01*
G54D15*
X-75624Y-1033602D02*
X-75624Y-1023602D01*
G54D15*
X-75624Y-1025824D02*
X-74290Y-1024268D01*
X-71624Y-1023602D01*
X-68957Y-1024268D01*
X-67624Y-1025824D01*
X-67623Y-1033602D01*
G54D15*
X-56068Y-1024268D02*
X-58734Y-1023602D01*
X-61401Y-1024268D01*
X-62734Y-1026490D01*
X-62734Y-1030935D01*
X-61401Y-1033158D01*
X-58734Y-1033602D01*
X-56068Y-1033157D01*
G54D15*
X-73429Y-1103096D02*
X-73429Y-1093096D01*
G54D15*
X-73429Y-1095318D02*
X-72096Y-1093763D01*
X-69429Y-1093096D01*
X-66762Y-1093763D01*
X-65429Y-1095318D01*
X-65429Y-1103096D01*
G54D15*
X-60540Y-1094207D02*
X-57873Y-1093096D01*
X-54674Y-1093096D01*
X-52540Y-1095318D01*
X-52540Y-1103096D01*
G54D15*
X-52540Y-1099763D02*
X-53873Y-1097540D01*
X-56540Y-1097096D01*
X-59207Y-1097540D01*
X-60540Y-1099762D01*
X-60007Y-1101985D01*
X-57874Y-1103096D01*
X-56540Y-1103096D01*
X-56007Y-1103096D01*
X-53873Y-1101985D01*
X-52540Y-1099763D01*
G54D11*
X-286041Y-1027840D02*
X-311441Y-1027840D01*
X-311441Y-1099440D01*
X-286041Y-1099440D01*
X-286041Y-1027840D01*
G54D12*
X-316832Y-1080496D02*
X-316832Y-1080496D01*
G54D17*
X-237682Y-1047154D02*
X-237682Y-1047154D01*
G54D16*
X554272Y-1147681D02*
X357422Y-1147681D01*
X357422Y-976231D01*
X554272Y-976231D01*
X554272Y-1147681D01*
G54D15*
X383606Y-1100292D02*
X383606Y-1090292D01*
G54D15*
X383606Y-1092514D02*
X384939Y-1090958D01*
X387606Y-1090292D01*
X390272Y-1090958D01*
X391606Y-1092514D01*
X391606Y-1100292D01*
G54D15*
X403161Y-1090958D02*
X400495Y-1090292D01*
X397828Y-1090958D01*
X396495Y-1093180D01*
X396494Y-1097625D01*
X397828Y-1099848D01*
X400495Y-1100292D01*
X403161Y-1099847D01*
G54D15*
X380034Y-1030816D02*
X380034Y-1020816D01*
G54D15*
X380034Y-1023038D02*
X381367Y-1021483D01*
X384034Y-1020816D01*
X386701Y-1021483D01*
X388034Y-1023038D01*
X388034Y-1030816D01*
G54D15*
X392923Y-1021927D02*
X395590Y-1020816D01*
X398790Y-1020816D01*
X400923Y-1023038D01*
X400923Y-1030816D01*
G54D15*
X400923Y-1027483D02*
X399590Y-1025260D01*
X396923Y-1024816D01*
X394256Y-1025260D01*
X392923Y-1027482D01*
X393456Y-1029705D01*
X395590Y-1030816D01*
X396923Y-1030816D01*
X397456Y-1030816D01*
X399590Y-1029705D01*
X400923Y-1027483D01*
G54D11*
X636700Y-1093400D02*
X609300Y-1093400D01*
X609300Y-1017200D01*
X636700Y-1017200D01*
X636700Y-1093400D01*
G54D11*
X609300Y-1023500D02*
X636700Y-1023500D01*
G54D11*
X590259Y-1027840D02*
X564859Y-1027840D01*
X564859Y-1099440D01*
X590259Y-1099440D01*
X590259Y-1027840D01*
G54D12*
X559468Y-1080496D02*
X559468Y-1080496D01*
G54D17*
X638618Y-1047154D02*
X638618Y-1047154D01*
G54D16*
X-334728Y-433431D02*
X-334728Y-630281D01*
X-506178Y-630281D01*
X-506178Y-433431D01*
X-334728Y-433431D01*
G54D15*
X-392099Y-584586D02*
X-382099Y-584586D01*
G54D15*
X-384321Y-584586D02*
X-382765Y-585919D01*
X-382099Y-588586D01*
X-382766Y-591252D01*
X-384321Y-592586D01*
X-392099Y-592586D01*
G54D15*
X-382766Y-604141D02*
X-382099Y-601475D01*
X-382766Y-598808D01*
X-384988Y-597475D01*
X-389432Y-597474D01*
X-391654Y-598808D01*
X-392099Y-601475D01*
X-391654Y-604141D01*
G54D15*
X-461593Y-586780D02*
X-451593Y-586780D01*
G54D15*
X-453815Y-586780D02*
X-452260Y-588113D01*
X-451593Y-590780D01*
X-452260Y-593447D01*
X-453815Y-594780D01*
X-461593Y-594780D01*
G54D15*
X-452704Y-599669D02*
X-451593Y-602336D01*
X-451593Y-605536D01*
X-453815Y-607669D01*
X-461593Y-607669D01*
G54D15*
X-458260Y-607669D02*
X-456038Y-606336D01*
X-455593Y-603669D01*
X-456037Y-601002D01*
X-458260Y-599669D01*
X-460482Y-600202D01*
X-461593Y-602336D01*
X-461593Y-603669D01*
X-461593Y-604202D01*
X-460482Y-606336D01*
X-458260Y-607669D01*
G54D11*
X-348550Y-202350D02*
X-348550Y-174950D01*
X-272350Y-174950D01*
X-272350Y-202350D01*
X-348550Y-202350D01*
G54D11*
X-278650Y-174950D02*
X-278650Y-202350D01*
G54D10*
X781750Y-44900D02*
X787750Y-38900D01*
X787750Y-54900D01*
G54D10*
X801750Y-41900D02*
X800550Y-39900D01*
X798150Y-38900D01*
X795750Y-38900D01*
X793350Y-39900D01*
X792150Y-41900D01*
X792150Y-46900D01*
X792150Y-47900D01*
X795750Y-45900D01*
X798150Y-45900D01*
X800550Y-46900D01*
X801750Y-48900D01*
X801750Y-51900D01*
X800550Y-53900D01*
X798150Y-54900D01*
X795750Y-54900D01*
X793350Y-53900D01*
X792150Y-51900D01*
X792150Y-46900D01*
G54D10*
X815750Y-41900D02*
X815750Y-51900D01*
X814550Y-53900D01*
X812150Y-54900D01*
X809750Y-54900D01*
X807350Y-53900D01*
X806150Y-51900D01*
X806150Y-41900D01*
X807350Y-39900D01*
X809750Y-38900D01*
X812150Y-38900D01*
X814550Y-39900D01*
X815750Y-41900D01*
G54D10*
X794100Y-259900D02*
X791700Y-259900D01*
X789300Y-258900D01*
X788100Y-256900D01*
X788100Y-254900D01*
X789300Y-252900D01*
X791700Y-251900D01*
X794100Y-251900D01*
X796500Y-252900D01*
X797700Y-254900D01*
X797700Y-256900D01*
X796500Y-258900D01*
X794100Y-259900D01*
X796500Y-260900D01*
X797700Y-262900D01*
X797700Y-264900D01*
X796500Y-266900D01*
X794100Y-267900D01*
X791700Y-267900D01*
X789300Y-266900D01*
X788100Y-264900D01*
X788100Y-262900D01*
X789300Y-260900D01*
X791700Y-259900D01*
G54D10*
X811700Y-254900D02*
X811700Y-264900D01*
X810500Y-266900D01*
X808100Y-267900D01*
X805700Y-267900D01*
X803300Y-266900D01*
X802100Y-264900D01*
X802100Y-254900D01*
X803300Y-252900D01*
X805700Y-251900D01*
X808100Y-251900D01*
X810500Y-252900D01*
X811700Y-254900D01*
G54D10*
X788950Y-464750D02*
X788950Y-448750D01*
X781750Y-458750D01*
X781750Y-460750D01*
X791350Y-460750D01*
G54D10*
X805350Y-451750D02*
X805350Y-461750D01*
X804150Y-463750D01*
X801750Y-464750D01*
X799350Y-464750D01*
X796950Y-463750D01*
X795750Y-461750D01*
X795750Y-451750D01*
X796950Y-449750D01*
X799350Y-448750D01*
X801750Y-448750D01*
X804150Y-449750D01*
X805350Y-451750D01*
G54D10*
X781750Y-654950D02*
X782950Y-652950D01*
X785350Y-651950D01*
X787750Y-651950D01*
X790150Y-652950D01*
X791350Y-654950D01*
X791350Y-656950D01*
X790150Y-658950D01*
X787750Y-659950D01*
X790150Y-660950D01*
X791350Y-662950D01*
X791350Y-664950D01*
X790150Y-666950D01*
X787750Y-667950D01*
X785350Y-667950D01*
X782950Y-666950D01*
X781750Y-664950D01*
G54D10*
X805350Y-654950D02*
X805350Y-664950D01*
X804150Y-666950D01*
X801750Y-667950D01*
X799350Y-667950D01*
X796950Y-666950D01*
X795750Y-664950D01*
X795750Y-654950D01*
X796950Y-652950D01*
X799350Y-651950D01*
X801750Y-651950D01*
X804150Y-652950D01*
X805350Y-654950D01*
G54D10*
X778650Y-851425D02*
X769050Y-851425D01*
X769050Y-850425D01*
X770250Y-848425D01*
X777450Y-842425D01*
X778650Y-840425D01*
X778650Y-838425D01*
X777450Y-836425D01*
X775050Y-835425D01*
X772650Y-835425D01*
X770250Y-836425D01*
X769050Y-838425D01*
G54D10*
X792650Y-838425D02*
X792650Y-848425D01*
X791450Y-850425D01*
X789050Y-851425D01*
X786650Y-851425D01*
X784250Y-850425D01*
X783050Y-848425D01*
X783050Y-838425D01*
X784250Y-836425D01*
X786650Y-835425D01*
X789050Y-835425D01*
X791450Y-836425D01*
X792650Y-838425D01*
G54D10*
X797050Y-844425D02*
X806650Y-844425D01*
G54D10*
X811050Y-841425D02*
X817050Y-835425D01*
X817050Y-851425D01*
G54D10*
X821450Y-835425D02*
X831050Y-835425D01*
X829850Y-837425D01*
X827450Y-840425D01*
X825050Y-844425D01*
X823850Y-847425D01*
X823850Y-851425D01*
G54D10*
X765875Y-1028750D02*
X771875Y-1022750D01*
X771875Y-1038750D01*
G54D10*
X785875Y-1022750D02*
X776275Y-1022750D01*
X776275Y-1029750D01*
X777475Y-1029750D01*
X779875Y-1028750D01*
X782275Y-1028750D01*
X784675Y-1029750D01*
X785875Y-1031750D01*
X785875Y-1035750D01*
X784675Y-1037750D01*
X782275Y-1038750D01*
X779875Y-1038750D01*
X777475Y-1037750D01*
X776275Y-1035750D01*
G54D10*
X790275Y-1031750D02*
X799875Y-1031750D01*
G54D10*
X804275Y-1028750D02*
X810275Y-1022750D01*
X810275Y-1038750D01*
G54D10*
X824275Y-1025750D02*
X824275Y-1035750D01*
X823075Y-1037750D01*
X820675Y-1038750D01*
X818275Y-1038750D01*
X815875Y-1037750D01*
X814675Y-1035750D01*
X814675Y-1025750D01*
X815875Y-1023750D01*
X818275Y-1022750D01*
X820675Y-1022750D01*
X823075Y-1023750D01*
X824275Y-1025750D01*
G54D16*
X750000Y-26600D02*
X851600Y-26600D01*
G54D16*
X746825Y-248850D02*
X848425Y-248850D01*
G54D16*
X746825Y-445700D02*
X848425Y-445700D01*
G54D16*
X746825Y-648900D02*
X848425Y-648900D01*
G54D16*
X746825Y-833050D02*
X848425Y-833050D01*
G54D16*
X746825Y-1017200D02*
X848425Y-1017200D01*
G54D11*
X911900Y-506050D02*
X1013500Y-506050D01*
X1013500Y-607650D01*
X911900Y-607650D01*
X911900Y-506050D01*
G54D13*
X911150Y-479300D02*
X911150Y-479300D01*
G54D13*
X911150Y-498800D02*
X911150Y-498800D01*
G54D10*
X934275Y-629500D02*
X937875Y-631500D01*
X939075Y-633500D01*
X939075Y-637500D01*
G54D10*
X929475Y-637500D02*
X929475Y-621500D01*
X935475Y-621500D01*
X937875Y-622500D01*
X939075Y-624500D01*
X939075Y-626500D01*
X937875Y-628500D01*
X935475Y-629500D01*
X929475Y-629500D01*
G54D10*
X943475Y-621500D02*
X955475Y-637500D01*
G54D10*
X943475Y-637500D02*
X955475Y-621500D01*
G54D10*
X959875Y-637500D02*
X969475Y-621500D01*
G54D10*
X978675Y-637500D02*
X978675Y-621500D01*
G54D10*
X973875Y-621500D02*
X983475Y-621500D01*
G54D10*
X987875Y-621500D02*
X999875Y-637500D01*
G54D10*
X987875Y-637500D02*
X999875Y-621500D01*
G54D16*
X-238000Y155500D02*
X-238000Y92550D01*
X-232425Y86975D01*
G54D16*
X-63600Y150500D02*
X-63600Y108650D01*
X-41925Y86975D01*
G54D16*
X130300Y147500D02*
X130300Y92550D01*
X135875Y86975D01*
G54D16*
X330100Y150500D02*
X330100Y108650D01*
X351775Y86975D01*
G54D16*
X530200Y148500D02*
X530200Y103850D01*
X546967Y87083D01*
G54D16*
X710200Y150500D02*
X710200Y96850D01*
X720075Y86975D01*
M02*
