%FSLAX34Y34*%
%MOMM*%
%LNCOPPER_TOP*%
G71*
G01*
%ADD10C,3.200*%
%ADD11C,2.800*%
%ADD12C,2.700*%
%ADD13C,3.000*%
%ADD14C,2.800*%
%ADD15C,2.800*%
%ADD16C,3.000*%
%ADD17C,3.000*%
%ADD18C,3.600*%
%ADD19C,1.600*%
%ADD20C,1.400*%
%ADD21C,1.700*%
%ADD22C,3.800*%
%ADD23C,1.800*%
%ADD24C,0.667*%
%ADD25C,1.607*%
%ADD26C,1.447*%
%ADD27C,1.340*%
%ADD28C,0.813*%
%ADD29C,1.193*%
%ADD30C,0.733*%
%ADD31C,0.933*%
%ADD32C,1.920*%
%ADD33C,2.000*%
%ADD34C,1.900*%
%ADD35C,2.200*%
%ADD36C,2.000*%
%ADD37C,2.000*%
%ADD38C,4.300*%
%ADD39C,2.200*%
%ADD40C,2.200*%
%ADD41C,2.800*%
%ADD42C,0.800*%
%ADD43C,0.600*%
%ADD44C,0.900*%
%ADD45C,3.000*%
%ADD46C,1.000*%
%LPD*%
G36*
X-520000Y186000D02*
X1040000Y186000D01*
X1040000Y-1214000D01*
X-520000Y-1214000D01*
X-520000Y186000D01*
G37*
%LPC*%
X-257925Y86975D02*
G54D10*
D03*
X-232425Y86975D02*
G54D10*
D03*
X-67425Y86975D02*
G54D10*
D03*
X-41925Y86975D02*
G54D10*
D03*
X254700Y-1200D02*
G54D11*
D03*
X324550Y-1200D02*
G54D11*
D03*
X254700Y-71050D02*
G54D11*
D03*
X324550Y-71050D02*
G54D11*
D03*
X324550Y-39300D02*
G54D11*
D03*
X254700Y-39300D02*
G54D11*
D03*
X198591Y7571D02*
G54D10*
D03*
X147610Y7459D02*
G54D10*
D03*
X700Y-1200D02*
G54D11*
D03*
X70550Y-1200D02*
G54D11*
D03*
X700Y-71050D02*
G54D11*
D03*
X70550Y-71050D02*
G54D11*
D03*
X70550Y-39300D02*
G54D11*
D03*
X700Y-39300D02*
G54D11*
D03*
X137527Y-36527D02*
G54D10*
D03*
X137640Y-87508D02*
G54D10*
D03*
X201027Y-36527D02*
G54D10*
D03*
X201140Y-87508D02*
G54D10*
D03*
X-253300Y-90100D02*
G54D12*
D03*
X-253300Y11500D02*
G54D12*
D03*
X110375Y86975D02*
G54D10*
D03*
X135875Y86975D02*
G54D10*
D03*
X326275Y86975D02*
G54D10*
D03*
X351775Y86975D02*
G54D10*
D03*
X521467Y87083D02*
G54D10*
D03*
X546967Y87083D02*
G54D10*
D03*
X-447000Y-334600D02*
G54D13*
D03*
X-396200Y-334600D02*
G54D13*
D03*
X-421600Y-360000D02*
G54D13*
D03*
X-396200Y-385400D02*
G54D13*
D03*
X-447000Y-385400D02*
G54D13*
D03*
X-447000Y-702900D02*
G54D13*
D03*
X-396200Y-702900D02*
G54D13*
D03*
X-421600Y-728300D02*
G54D13*
D03*
X-396200Y-753700D02*
G54D13*
D03*
X-447000Y-753700D02*
G54D13*
D03*
X700Y-71050D02*
G54D14*
D03*
X70550Y-71050D02*
G54D14*
D03*
X137639Y-87508D02*
G54D14*
D03*
X201140Y-87508D02*
G54D14*
D03*
X254700Y-71050D02*
G54D14*
D03*
X324550Y-71050D02*
G54D14*
D03*
X-447000Y-334600D02*
G54D14*
D03*
X-396200Y-334600D02*
G54D14*
D03*
X-447000Y-385400D02*
G54D14*
D03*
X-396200Y-385400D02*
G54D14*
D03*
X-447000Y-702900D02*
G54D15*
D03*
X-396200Y-702900D02*
G54D14*
D03*
X-447000Y-753700D02*
G54D14*
D03*
X-396200Y-753700D02*
G54D14*
D03*
X-450150Y-280600D02*
G54D12*
D03*
X-450150Y-179000D02*
G54D12*
D03*
X-389523Y-201627D02*
G54D10*
D03*
X-389410Y-252608D02*
G54D10*
D03*
X-423025Y112375D02*
G54D10*
D03*
X-397525Y112375D02*
G54D10*
D03*
X-450150Y-280600D02*
G54D14*
D03*
G36*
X-252000Y169500D02*
X-224000Y169500D01*
X-224000Y141500D01*
X-252000Y141500D01*
X-252000Y169500D01*
G37*
G36*
X-77600Y164500D02*
X-49600Y164500D01*
X-49600Y136500D01*
X-77600Y136500D01*
X-77600Y164500D01*
G37*
G36*
X116300Y161500D02*
X144300Y161500D01*
X144300Y133500D01*
X116300Y133500D01*
X116300Y161500D01*
G37*
G36*
X316100Y164500D02*
X344100Y164500D01*
X344100Y136500D01*
X316100Y136500D01*
X316100Y164500D01*
G37*
G36*
X516200Y162500D02*
X544200Y162500D01*
X544200Y134500D01*
X516200Y134500D01*
X516200Y162500D01*
G37*
X694575Y86975D02*
G54D10*
D03*
X720075Y86975D02*
G54D10*
D03*
G36*
X-471100Y14400D02*
X-471100Y-13600D01*
X-499100Y-13600D01*
X-499100Y14400D01*
X-471100Y14400D01*
G37*
G36*
X-471100Y-874600D02*
X-471100Y-902600D01*
X-499100Y-902600D01*
X-499100Y-874600D01*
X-471100Y-874600D01*
G37*
X-62800Y-109150D02*
G54D13*
D03*
X-183450Y-105976D02*
G54D13*
D03*
X-62800Y11500D02*
G54D13*
D03*
X-183450Y11500D02*
G54D13*
D03*
X-202912Y-48825D02*
G54D13*
D03*
X-298874Y-22055D02*
G54D10*
D03*
X-298762Y-73035D02*
G54D10*
D03*
X-298762Y-73035D02*
G54D13*
D03*
X390294Y17238D02*
G54D13*
D03*
X510944Y14064D02*
G54D13*
D03*
X390294Y-103412D02*
G54D13*
D03*
X510944Y-103412D02*
G54D13*
D03*
X531582Y-43087D02*
G54D13*
D03*
X623000Y-90100D02*
G54D12*
D03*
X623000Y11500D02*
G54D12*
D03*
X585426Y-19055D02*
G54D10*
D03*
X585538Y-70035D02*
G54D10*
D03*
X585538Y-70035D02*
G54D13*
D03*
X254700Y-204400D02*
G54D11*
D03*
X324550Y-204400D02*
G54D11*
D03*
X254700Y-274250D02*
G54D11*
D03*
X324550Y-274250D02*
G54D11*
D03*
X324550Y-242500D02*
G54D11*
D03*
X254700Y-242500D02*
G54D11*
D03*
X198591Y-195629D02*
G54D10*
D03*
X147610Y-195741D02*
G54D10*
D03*
X700Y-204400D02*
G54D11*
D03*
X70550Y-204400D02*
G54D11*
D03*
X700Y-274250D02*
G54D11*
D03*
X70550Y-274250D02*
G54D11*
D03*
X70550Y-242500D02*
G54D11*
D03*
X700Y-242500D02*
G54D11*
D03*
X137527Y-239727D02*
G54D10*
D03*
X137640Y-290708D02*
G54D10*
D03*
X201027Y-239727D02*
G54D10*
D03*
X201140Y-290708D02*
G54D10*
D03*
X700Y-274250D02*
G54D14*
D03*
X70550Y-274250D02*
G54D14*
D03*
X137639Y-290708D02*
G54D14*
D03*
X201140Y-290708D02*
G54D14*
D03*
X254700Y-274250D02*
G54D14*
D03*
X324550Y-274250D02*
G54D14*
D03*
X-62800Y-312350D02*
G54D13*
D03*
X-183450Y-309176D02*
G54D13*
D03*
X-62800Y-191700D02*
G54D13*
D03*
X-183450Y-191700D02*
G54D13*
D03*
X-203412Y-252025D02*
G54D13*
D03*
X-297750Y-226750D02*
G54D10*
D03*
X-348730Y-226862D02*
G54D10*
D03*
X390294Y-185962D02*
G54D13*
D03*
X510944Y-189136D02*
G54D13*
D03*
X390294Y-306612D02*
G54D13*
D03*
X510944Y-306612D02*
G54D13*
D03*
X531582Y-246287D02*
G54D13*
D03*
X623000Y-293300D02*
G54D12*
D03*
X623000Y-191700D02*
G54D12*
D03*
X577426Y-225255D02*
G54D10*
D03*
X577538Y-276235D02*
G54D10*
D03*
X577538Y-276235D02*
G54D13*
D03*
X254700Y-407600D02*
G54D11*
D03*
X324550Y-407600D02*
G54D11*
D03*
X254700Y-477450D02*
G54D11*
D03*
X324550Y-477450D02*
G54D11*
D03*
X324550Y-445700D02*
G54D11*
D03*
X254700Y-445700D02*
G54D11*
D03*
X198591Y-398829D02*
G54D10*
D03*
X147610Y-398941D02*
G54D10*
D03*
X700Y-407600D02*
G54D11*
D03*
X70550Y-407600D02*
G54D11*
D03*
X700Y-477450D02*
G54D11*
D03*
X70550Y-477450D02*
G54D11*
D03*
X70550Y-445700D02*
G54D11*
D03*
X700Y-445700D02*
G54D11*
D03*
X137527Y-442927D02*
G54D10*
D03*
X137640Y-493908D02*
G54D10*
D03*
X201027Y-442927D02*
G54D10*
D03*
X201140Y-493908D02*
G54D10*
D03*
X-253300Y-496500D02*
G54D12*
D03*
X-253300Y-394900D02*
G54D12*
D03*
X700Y-477450D02*
G54D14*
D03*
X70550Y-477450D02*
G54D14*
D03*
X137639Y-493908D02*
G54D14*
D03*
X201140Y-493908D02*
G54D14*
D03*
X254700Y-477450D02*
G54D14*
D03*
X324550Y-477450D02*
G54D14*
D03*
X-62800Y-515550D02*
G54D13*
D03*
X-183450Y-512376D02*
G54D13*
D03*
X-62800Y-394900D02*
G54D13*
D03*
X-183450Y-394900D02*
G54D13*
D03*
X-203412Y-455225D02*
G54D13*
D03*
X-298874Y-428455D02*
G54D10*
D03*
X-298762Y-479435D02*
G54D10*
D03*
X-298762Y-479435D02*
G54D13*
D03*
X390294Y-389162D02*
G54D13*
D03*
X510944Y-392336D02*
G54D13*
D03*
X390294Y-509812D02*
G54D13*
D03*
X510944Y-509812D02*
G54D13*
D03*
X531582Y-449487D02*
G54D13*
D03*
X623000Y-496500D02*
G54D12*
D03*
X623000Y-394900D02*
G54D12*
D03*
X577426Y-428455D02*
G54D10*
D03*
X577538Y-479435D02*
G54D10*
D03*
X577538Y-479435D02*
G54D13*
D03*
X254700Y-610800D02*
G54D11*
D03*
X324550Y-610800D02*
G54D11*
D03*
X254700Y-680650D02*
G54D11*
D03*
X324550Y-680650D02*
G54D11*
D03*
X324550Y-648900D02*
G54D11*
D03*
X254700Y-648900D02*
G54D11*
D03*
X198591Y-602029D02*
G54D10*
D03*
X147610Y-602141D02*
G54D10*
D03*
X700Y-610800D02*
G54D11*
D03*
X70550Y-610800D02*
G54D11*
D03*
X700Y-680650D02*
G54D11*
D03*
X70550Y-680650D02*
G54D11*
D03*
X70550Y-648900D02*
G54D11*
D03*
X700Y-648900D02*
G54D11*
D03*
X137527Y-646127D02*
G54D10*
D03*
X137640Y-697108D02*
G54D10*
D03*
X201027Y-646127D02*
G54D10*
D03*
X201140Y-697108D02*
G54D10*
D03*
X-253300Y-699700D02*
G54D12*
D03*
X-253300Y-598100D02*
G54D12*
D03*
X700Y-680650D02*
G54D14*
D03*
X70550Y-680650D02*
G54D14*
D03*
X137639Y-697108D02*
G54D14*
D03*
X201140Y-697108D02*
G54D14*
D03*
X254700Y-680650D02*
G54D14*
D03*
X324550Y-680650D02*
G54D14*
D03*
X-62800Y-718750D02*
G54D15*
D03*
X-183450Y-715576D02*
G54D15*
D03*
X-62800Y-598100D02*
G54D15*
D03*
X-183450Y-598100D02*
G54D15*
D03*
X-203412Y-658425D02*
G54D15*
D03*
X-290874Y-628655D02*
G54D10*
D03*
X-290762Y-679635D02*
G54D10*
D03*
X-290762Y-679635D02*
G54D13*
D03*
X390294Y-592362D02*
G54D15*
D03*
X510944Y-595536D02*
G54D15*
D03*
X390294Y-713012D02*
G54D15*
D03*
X510944Y-713012D02*
G54D15*
D03*
X528406Y-652687D02*
G54D15*
D03*
X623000Y-699700D02*
G54D12*
D03*
X623000Y-598100D02*
G54D12*
D03*
X577426Y-631655D02*
G54D10*
D03*
X577538Y-682635D02*
G54D10*
D03*
X577538Y-682635D02*
G54D13*
D03*
X254700Y-814000D02*
G54D11*
D03*
X324550Y-814000D02*
G54D11*
D03*
X254700Y-883850D02*
G54D11*
D03*
X324550Y-883850D02*
G54D11*
D03*
X324550Y-852100D02*
G54D11*
D03*
X254700Y-852100D02*
G54D11*
D03*
X198591Y-805229D02*
G54D10*
D03*
X147610Y-805341D02*
G54D10*
D03*
X700Y-814000D02*
G54D11*
D03*
X70550Y-814000D02*
G54D11*
D03*
X700Y-883850D02*
G54D11*
D03*
X70550Y-883850D02*
G54D11*
D03*
X70550Y-852100D02*
G54D11*
D03*
X700Y-852100D02*
G54D11*
D03*
X137527Y-849327D02*
G54D10*
D03*
X137640Y-900308D02*
G54D10*
D03*
X201027Y-849327D02*
G54D10*
D03*
X201140Y-900308D02*
G54D10*
D03*
X-253300Y-902900D02*
G54D12*
D03*
X-253300Y-801300D02*
G54D12*
D03*
X700Y-883850D02*
G54D14*
D03*
X70550Y-883850D02*
G54D14*
D03*
X137639Y-900308D02*
G54D14*
D03*
X201140Y-900308D02*
G54D14*
D03*
X254700Y-883850D02*
G54D14*
D03*
X324550Y-883850D02*
G54D14*
D03*
X-62800Y-921950D02*
G54D13*
D03*
X-183450Y-918776D02*
G54D13*
D03*
X-62800Y-801300D02*
G54D13*
D03*
X-183450Y-801300D02*
G54D13*
D03*
X-203412Y-861625D02*
G54D13*
D03*
X-298874Y-834854D02*
G54D10*
D03*
X-298762Y-885835D02*
G54D10*
D03*
X-298762Y-885835D02*
G54D13*
D03*
X390294Y-795562D02*
G54D13*
D03*
X510944Y-798736D02*
G54D13*
D03*
X390294Y-916212D02*
G54D13*
D03*
X510944Y-916212D02*
G54D13*
D03*
X528406Y-855887D02*
G54D13*
D03*
X623000Y-902900D02*
G54D12*
D03*
X623000Y-801300D02*
G54D12*
D03*
X577426Y-834854D02*
G54D10*
D03*
X577538Y-885835D02*
G54D10*
D03*
X577538Y-885835D02*
G54D13*
D03*
X254700Y-1017200D02*
G54D11*
D03*
X324550Y-1017200D02*
G54D11*
D03*
X254700Y-1087050D02*
G54D11*
D03*
X324550Y-1087050D02*
G54D11*
D03*
X324550Y-1055300D02*
G54D11*
D03*
X254700Y-1055300D02*
G54D11*
D03*
X198591Y-1008429D02*
G54D10*
D03*
X147610Y-1008541D02*
G54D10*
D03*
X700Y-1017200D02*
G54D11*
D03*
X70550Y-1017200D02*
G54D11*
D03*
X700Y-1087050D02*
G54D11*
D03*
X70550Y-1087050D02*
G54D11*
D03*
X70550Y-1055300D02*
G54D11*
D03*
X700Y-1055300D02*
G54D11*
D03*
X137527Y-1052527D02*
G54D10*
D03*
X137640Y-1103508D02*
G54D10*
D03*
X201027Y-1052527D02*
G54D10*
D03*
X201140Y-1103508D02*
G54D10*
D03*
X-253300Y-1106100D02*
G54D12*
D03*
X-253300Y-1004500D02*
G54D12*
D03*
X700Y-1087050D02*
G54D14*
D03*
X70550Y-1087050D02*
G54D14*
D03*
X137639Y-1103508D02*
G54D14*
D03*
X201140Y-1103508D02*
G54D14*
D03*
X254700Y-1087050D02*
G54D14*
D03*
X324550Y-1087050D02*
G54D14*
D03*
X-62800Y-1125150D02*
G54D13*
D03*
X-183450Y-1121976D02*
G54D13*
D03*
X-62800Y-1004500D02*
G54D13*
D03*
X-183450Y-1004500D02*
G54D13*
D03*
X-203412Y-1064825D02*
G54D13*
D03*
X-298874Y-1038054D02*
G54D10*
D03*
X-298762Y-1089035D02*
G54D10*
D03*
X-298762Y-1089035D02*
G54D13*
D03*
X390294Y-998762D02*
G54D13*
D03*
X510944Y-1001936D02*
G54D13*
D03*
X390294Y-1119412D02*
G54D13*
D03*
X510944Y-1119412D02*
G54D13*
D03*
X528406Y-1059087D02*
G54D13*
D03*
X623000Y-1106100D02*
G54D12*
D03*
X623000Y-1004500D02*
G54D12*
D03*
X577426Y-1038054D02*
G54D10*
D03*
X577538Y-1089035D02*
G54D10*
D03*
X577538Y-1089035D02*
G54D13*
D03*
X-253300Y-496500D02*
G54D13*
D03*
X-253300Y-699700D02*
G54D13*
D03*
X-253300Y-902900D02*
G54D13*
D03*
X623000Y-1106100D02*
G54D13*
D03*
X623000Y-902900D02*
G54D13*
D03*
X623000Y-699700D02*
G54D13*
D03*
X623000Y-496500D02*
G54D13*
D03*
X623000Y-293300D02*
G54D13*
D03*
X623000Y-90100D02*
G54D13*
D03*
X-483647Y-597409D02*
G54D13*
D03*
X-480473Y-476759D02*
G54D13*
D03*
X-362997Y-597409D02*
G54D13*
D03*
X-362997Y-476759D02*
G54D13*
D03*
X-423322Y-456646D02*
G54D13*
D03*
X-183450Y-105976D02*
G54D16*
D03*
X510944Y-103412D02*
G54D17*
D03*
X-183450Y-309176D02*
G54D17*
D03*
X510944Y-306612D02*
G54D13*
D03*
X-183450Y-512376D02*
G54D17*
D03*
X510944Y-509812D02*
G54D13*
D03*
X-183450Y-715576D02*
G54D13*
D03*
X510944Y-713012D02*
G54D13*
D03*
X-183450Y-918776D02*
G54D17*
D03*
X510944Y-916212D02*
G54D17*
D03*
X-183450Y-1121976D02*
G54D18*
D03*
X510944Y-1119412D02*
G54D13*
D03*
X-480473Y-476759D02*
G54D13*
D03*
G54D19*
X-362997Y-476759D02*
X-361250Y-474400D01*
X-367600Y-468050D01*
X-367600Y-245800D01*
X-386650Y-226750D01*
X-386650Y-201350D01*
X-389523Y-201627D01*
G54D19*
X-397525Y112375D02*
X-399350Y109800D01*
X-450150Y59000D01*
X-450150Y-175950D01*
X-450150Y-179000D01*
G54D19*
X-389523Y-201627D02*
X-386650Y-201350D01*
X-412050Y-175950D01*
X-450150Y-175950D01*
X-450150Y-179000D01*
G54D20*
X-253300Y-191700D02*
X-253300Y-188650D01*
X-189800Y-125150D01*
X-151700Y-125150D01*
X-100900Y-74350D01*
X-100900Y27250D01*
X-43750Y84400D01*
X-41925Y86975D01*
G54D20*
X623000Y-191700D02*
X623000Y-188650D01*
X546800Y-112450D01*
X546800Y-87050D01*
X527750Y-68000D01*
X489650Y-68000D01*
X426150Y-4500D01*
X426150Y33600D01*
X388050Y71700D01*
X95950Y71700D01*
X83250Y84400D01*
X-43750Y84400D01*
X-41925Y86975D01*
G54D20*
X-253300Y-394900D02*
X-253300Y-391850D01*
X-234250Y-372800D01*
X-234250Y-283900D01*
X-272350Y-245800D01*
X-272350Y-182300D01*
X-221550Y-131500D01*
X-221550Y-87050D01*
X-202500Y-68000D01*
X-164400Y-68000D01*
X-113600Y-17200D01*
X-113600Y33600D01*
X-88200Y59000D01*
X-88200Y90750D01*
X-75500Y103450D01*
X121350Y103450D01*
X134050Y90750D01*
X134050Y84400D01*
X135875Y86975D01*
G54D20*
X623000Y-394900D02*
X623000Y-391850D01*
X642050Y-372800D01*
X642050Y-182300D01*
X559500Y-99750D01*
X559500Y-29900D01*
X540450Y-10850D01*
X483300Y-10850D01*
X438850Y33600D01*
X438850Y39950D01*
X375350Y103450D01*
X318200Y103450D01*
X299150Y84400D01*
X134050Y84400D01*
X135875Y86975D01*
G54D20*
X623000Y-801300D02*
X623000Y-798250D01*
X654750Y-766500D01*
X654750Y-175950D01*
X642050Y-163250D01*
X642050Y20900D01*
X578550Y84400D01*
X546800Y84400D01*
X546967Y87083D01*
G54D20*
X-253300Y-801300D02*
X-253300Y-798250D01*
X-316800Y-734750D01*
X-322056Y-478412D01*
X-316800Y-214050D01*
X-285050Y-182300D01*
X-285050Y-175950D01*
X-234250Y-125150D01*
X-234250Y-80700D01*
X-227900Y-74350D01*
X-227900Y-29900D01*
X-208850Y-10850D01*
X-151700Y-10850D01*
X-126300Y14550D01*
X-126300Y39950D01*
X-100900Y65350D01*
X-100900Y97100D01*
X-81850Y116150D01*
X381700Y116150D01*
X426150Y71700D01*
X534100Y71700D01*
X546800Y84400D01*
X546967Y87083D01*
G54D20*
X-183450Y-1004500D02*
X-183450Y-1001450D01*
X-100900Y-918900D01*
X-100900Y-906200D01*
X-24700Y-830000D01*
X337250Y-830000D01*
X343600Y-823650D01*
X540450Y-823650D01*
X546800Y-817300D01*
X635700Y-817300D01*
X673800Y-779200D01*
X673800Y-468050D01*
X718250Y-423600D01*
X718250Y84400D01*
X720075Y86975D01*
G54D20*
X623000Y-1004500D02*
X623000Y-1001450D01*
X673800Y-950650D01*
X673800Y-468050D01*
X718250Y-423600D01*
X718250Y84400D01*
X720075Y86975D01*
G54D20*
X-362997Y-597409D02*
X-361250Y-595050D01*
X-399350Y-556950D01*
X-399350Y-436300D01*
X-424750Y-410900D01*
X-424750Y-360100D01*
X-421600Y-360000D01*
G36*
X-194300Y-1179400D02*
X-166300Y-1179400D01*
X-166300Y-1207400D01*
X-194300Y-1207400D01*
X-194300Y-1179400D01*
G37*
G36*
X-41900Y-1179400D02*
X-13900Y-1179400D01*
X-13900Y-1207400D01*
X-41900Y-1207400D01*
X-41900Y-1179400D01*
G37*
G36*
X174000Y-1179400D02*
X202000Y-1179400D01*
X202000Y-1207400D01*
X174000Y-1207400D01*
X174000Y-1179400D01*
G37*
G36*
X351800Y-1179400D02*
X379800Y-1179400D01*
X379800Y-1207400D01*
X351800Y-1207400D01*
X351800Y-1179400D01*
G37*
G36*
X516900Y-1179400D02*
X544900Y-1179400D01*
X544900Y-1207400D01*
X516900Y-1207400D01*
X516900Y-1179400D01*
G37*
X-253300Y-90100D02*
G54D13*
D03*
X-348730Y-226862D02*
G54D13*
D03*
X-298762Y-73035D02*
G54D13*
D03*
X-253300Y-90100D02*
G54D13*
D03*
X-389410Y-252608D02*
G54D13*
D03*
X-253300Y-1106100D02*
G54D13*
D03*
X623000Y-1106100D02*
G54D13*
D03*
X577538Y-1089035D02*
G54D13*
D03*
G54D20*
X-183450Y-512376D02*
X-183450Y-512500D01*
X-145350Y-474400D01*
X700Y-474400D01*
X700Y-477450D01*
G54D20*
X-183450Y-309176D02*
X-183450Y-309300D01*
X-164400Y-290250D01*
X140400Y-290250D01*
X137639Y-290708D01*
X-361250Y-188650D02*
G54D12*
D03*
X-259650Y-188650D02*
G54D12*
D03*
X-361250Y-188650D02*
G54D13*
D03*
G54D20*
X623000Y-699700D02*
X623000Y-696650D01*
X203900Y-696650D01*
X201140Y-697108D01*
G54D21*
X510944Y-595536D02*
X510944Y-598712D01*
X485544Y-573312D01*
X-73256Y-573312D01*
X-98656Y-598712D01*
X-187556Y-598712D01*
X-183450Y-598100D01*
X750000Y-26600D02*
G54D22*
D03*
X851600Y-26600D02*
G54D13*
D03*
X851600Y-26600D02*
G54D22*
D03*
X750000Y-26600D02*
G54D22*
D03*
X750000Y-128200D02*
G54D13*
D03*
X750000Y-128200D02*
G54D22*
D03*
X851600Y-26600D02*
G54D22*
D03*
X851600Y-128200D02*
G54D13*
D03*
X851600Y-128200D02*
G54D22*
D03*
X746825Y-248850D02*
G54D22*
D03*
X848425Y-248850D02*
G54D13*
D03*
X848425Y-248850D02*
G54D22*
D03*
X746825Y-248850D02*
G54D22*
D03*
X746825Y-350450D02*
G54D13*
D03*
X746825Y-350450D02*
G54D22*
D03*
X848425Y-248850D02*
G54D22*
D03*
X848425Y-350450D02*
G54D13*
D03*
X848425Y-350450D02*
G54D22*
D03*
X746825Y-445700D02*
G54D22*
D03*
X848425Y-445700D02*
G54D13*
D03*
X848425Y-445700D02*
G54D22*
D03*
X746825Y-445700D02*
G54D22*
D03*
X746825Y-547300D02*
G54D13*
D03*
X746825Y-547300D02*
G54D22*
D03*
X848425Y-445700D02*
G54D22*
D03*
X848425Y-547300D02*
G54D13*
D03*
X848425Y-547300D02*
G54D22*
D03*
X746825Y-648900D02*
G54D22*
D03*
X848425Y-648900D02*
G54D13*
D03*
X848425Y-648900D02*
G54D22*
D03*
X746825Y-648900D02*
G54D22*
D03*
X746825Y-750500D02*
G54D13*
D03*
X746825Y-750500D02*
G54D22*
D03*
X848425Y-648900D02*
G54D22*
D03*
X848425Y-750500D02*
G54D13*
D03*
X848425Y-750500D02*
G54D22*
D03*
X746825Y-833050D02*
G54D22*
D03*
X848425Y-833050D02*
G54D13*
D03*
X848425Y-833050D02*
G54D22*
D03*
X746825Y-833050D02*
G54D22*
D03*
X746825Y-934650D02*
G54D13*
D03*
X746825Y-934650D02*
G54D22*
D03*
X848425Y-833050D02*
G54D22*
D03*
X848425Y-934650D02*
G54D13*
D03*
X848425Y-934650D02*
G54D22*
D03*
X746825Y-1017200D02*
G54D22*
D03*
X848425Y-1017200D02*
G54D13*
D03*
X848425Y-1017200D02*
G54D22*
D03*
X746825Y-1017200D02*
G54D22*
D03*
X746825Y-1118800D02*
G54D13*
D03*
X746825Y-1118800D02*
G54D22*
D03*
X848425Y-1017200D02*
G54D22*
D03*
X848425Y-1118800D02*
G54D13*
D03*
X848425Y-1118800D02*
G54D22*
D03*
X750000Y-128200D02*
G54D22*
D03*
X851600Y-128200D02*
G54D22*
D03*
X746825Y-350450D02*
G54D22*
D03*
X848425Y-350450D02*
G54D22*
D03*
X746825Y-547300D02*
G54D22*
D03*
X848425Y-547300D02*
G54D22*
D03*
X746825Y-750500D02*
G54D22*
D03*
X848425Y-750500D02*
G54D22*
D03*
X746825Y-934650D02*
G54D22*
D03*
X848425Y-934650D02*
G54D22*
D03*
X746825Y-1118800D02*
G54D22*
D03*
X848425Y-1118800D02*
G54D22*
D03*
G54D23*
X848425Y-248850D02*
X851600Y-242500D01*
X902400Y-293300D01*
X902400Y-560000D01*
X908750Y-576000D01*
X937300Y-531450D02*
G54D13*
D03*
X988100Y-531450D02*
G54D13*
D03*
X962700Y-556850D02*
G54D13*
D03*
X988100Y-582250D02*
G54D13*
D03*
X937300Y-582250D02*
G54D13*
D03*
X937300Y-531450D02*
G54D15*
D03*
X937300Y-582250D02*
G54D14*
D03*
X902400Y-534600D02*
G54D13*
D03*
G54D23*
X902400Y-534600D02*
X908750Y-534600D01*
X934150Y-560000D01*
X959550Y-560000D01*
X962700Y-556850D01*
G36*
X696200Y164500D02*
X724200Y164500D01*
X724200Y136500D01*
X696200Y136500D01*
X696200Y164500D01*
G37*
G36*
X962200Y61500D02*
X990200Y61500D01*
X990200Y33500D01*
X962200Y33500D01*
X962200Y61500D01*
G37*
G36*
X961200Y-178500D02*
X989200Y-178500D01*
X989200Y-206500D01*
X961200Y-206500D01*
X961200Y-178500D01*
G37*
G36*
X956200Y-385500D02*
X984200Y-385500D01*
X984200Y-413500D01*
X956200Y-413500D01*
X956200Y-385500D01*
G37*
G36*
X959200Y-688500D02*
X987200Y-688500D01*
X987200Y-716500D01*
X959200Y-716500D01*
X959200Y-688500D01*
G37*
G36*
X961200Y-858500D02*
X989200Y-858500D01*
X989200Y-886500D01*
X961200Y-886500D01*
X961200Y-858500D01*
G37*
G36*
X954200Y-1056500D02*
X982200Y-1056500D01*
X982200Y-1084500D01*
X954200Y-1084500D01*
X954200Y-1056500D01*
G37*
%LPD*%
G54D24*
G36*
X-2633Y-71050D02*
X-2633Y-56550D01*
X4033Y-56550D01*
X4033Y-71050D01*
X-2633Y-71050D01*
G37*
G36*
X700Y-67717D02*
X15200Y-67717D01*
X15200Y-74383D01*
X700Y-74383D01*
X700Y-67717D01*
G37*
G36*
X4033Y-71050D02*
X4033Y-85550D01*
X-2633Y-85550D01*
X-2633Y-71050D01*
X4033Y-71050D01*
G37*
G36*
X700Y-74383D02*
X-13800Y-74383D01*
X-13800Y-67717D01*
X700Y-67717D01*
X700Y-74383D01*
G37*
G54D24*
G36*
X67217Y-71050D02*
X67217Y-56550D01*
X73883Y-56550D01*
X73883Y-71050D01*
X67217Y-71050D01*
G37*
G36*
X70550Y-67717D02*
X85050Y-67717D01*
X85050Y-74383D01*
X70550Y-74383D01*
X70550Y-67717D01*
G37*
G36*
X73883Y-71050D02*
X73883Y-85550D01*
X67217Y-85550D01*
X67217Y-71050D01*
X73883Y-71050D01*
G37*
G36*
X70550Y-74383D02*
X56050Y-74383D01*
X56050Y-67717D01*
X70550Y-67717D01*
X70550Y-74383D01*
G37*
G54D25*
G36*
X129606Y-87508D02*
X129606Y-73008D01*
X145672Y-73008D01*
X145672Y-87508D01*
X129606Y-87508D01*
G37*
G36*
X137639Y-79475D02*
X152139Y-79475D01*
X152139Y-95541D01*
X137639Y-95541D01*
X137639Y-79475D01*
G37*
G36*
X145672Y-87508D02*
X145672Y-102008D01*
X129606Y-102008D01*
X129606Y-87508D01*
X145672Y-87508D01*
G37*
G36*
X137639Y-95541D02*
X123139Y-95541D01*
X123139Y-79475D01*
X137639Y-79475D01*
X137639Y-95541D01*
G37*
G54D26*
G36*
X193907Y-87508D02*
X193907Y-73008D01*
X208373Y-73008D01*
X208373Y-87508D01*
X193907Y-87508D01*
G37*
G36*
X201140Y-80275D02*
X215640Y-80275D01*
X215640Y-94741D01*
X201140Y-94741D01*
X201140Y-80275D01*
G37*
G36*
X208373Y-87508D02*
X208373Y-102008D01*
X193907Y-102008D01*
X193907Y-87508D01*
X208373Y-87508D01*
G37*
G36*
X201140Y-94741D02*
X186640Y-94741D01*
X186640Y-80275D01*
X201140Y-80275D01*
X201140Y-94741D01*
G37*
G54D24*
G36*
X251367Y-71050D02*
X251367Y-56550D01*
X258033Y-56550D01*
X258033Y-71050D01*
X251367Y-71050D01*
G37*
G36*
X254700Y-67717D02*
X269200Y-67717D01*
X269200Y-74383D01*
X254700Y-74383D01*
X254700Y-67717D01*
G37*
G36*
X258033Y-71050D02*
X258033Y-85550D01*
X251367Y-85550D01*
X251367Y-71050D01*
X258033Y-71050D01*
G37*
G36*
X254700Y-74383D02*
X240200Y-74383D01*
X240200Y-67717D01*
X254700Y-67717D01*
X254700Y-74383D01*
G37*
G54D24*
G36*
X321217Y-71050D02*
X321217Y-56550D01*
X327883Y-56550D01*
X327883Y-71050D01*
X321217Y-71050D01*
G37*
G36*
X324550Y-67717D02*
X339050Y-67717D01*
X339050Y-74383D01*
X324550Y-74383D01*
X324550Y-67717D01*
G37*
G36*
X327883Y-71050D02*
X327883Y-85550D01*
X321217Y-85550D01*
X321217Y-71050D01*
X327883Y-71050D01*
G37*
G36*
X324550Y-74383D02*
X310050Y-74383D01*
X310050Y-67717D01*
X324550Y-67717D01*
X324550Y-74383D01*
G37*
G54D24*
G36*
X-450333Y-334600D02*
X-450333Y-320100D01*
X-443667Y-320100D01*
X-443667Y-334600D01*
X-450333Y-334600D01*
G37*
G36*
X-447000Y-331267D02*
X-432500Y-331267D01*
X-432500Y-337933D01*
X-447000Y-337933D01*
X-447000Y-331267D01*
G37*
G36*
X-443667Y-334600D02*
X-443667Y-349100D01*
X-450333Y-349100D01*
X-450333Y-334600D01*
X-443667Y-334600D01*
G37*
G36*
X-447000Y-337933D02*
X-461500Y-337933D01*
X-461500Y-331267D01*
X-447000Y-331267D01*
X-447000Y-337933D01*
G37*
G54D24*
G36*
X-399533Y-334600D02*
X-399533Y-320100D01*
X-392867Y-320100D01*
X-392867Y-334600D01*
X-399533Y-334600D01*
G37*
G36*
X-396200Y-331267D02*
X-381700Y-331267D01*
X-381700Y-337933D01*
X-396200Y-337933D01*
X-396200Y-331267D01*
G37*
G36*
X-392867Y-334600D02*
X-392867Y-349100D01*
X-399533Y-349100D01*
X-399533Y-334600D01*
X-392867Y-334600D01*
G37*
G36*
X-396200Y-337933D02*
X-410700Y-337933D01*
X-410700Y-331267D01*
X-396200Y-331267D01*
X-396200Y-337933D01*
G37*
G54D24*
G36*
X-450333Y-385400D02*
X-450333Y-370900D01*
X-443667Y-370900D01*
X-443667Y-385400D01*
X-450333Y-385400D01*
G37*
G36*
X-447000Y-382067D02*
X-432500Y-382067D01*
X-432500Y-388733D01*
X-447000Y-388733D01*
X-447000Y-382067D01*
G37*
G36*
X-443667Y-385400D02*
X-443667Y-399900D01*
X-450333Y-399900D01*
X-450333Y-385400D01*
X-443667Y-385400D01*
G37*
G36*
X-447000Y-388733D02*
X-461500Y-388733D01*
X-461500Y-382067D01*
X-447000Y-382067D01*
X-447000Y-388733D01*
G37*
G54D24*
G36*
X-399533Y-385400D02*
X-399533Y-370900D01*
X-392867Y-370900D01*
X-392867Y-385400D01*
X-399533Y-385400D01*
G37*
G36*
X-396200Y-382067D02*
X-381700Y-382067D01*
X-381700Y-388733D01*
X-396200Y-388733D01*
X-396200Y-382067D01*
G37*
G36*
X-392867Y-385400D02*
X-392867Y-399900D01*
X-399533Y-399900D01*
X-399533Y-385400D01*
X-392867Y-385400D01*
G37*
G36*
X-396200Y-388733D02*
X-410700Y-388733D01*
X-410700Y-382067D01*
X-396200Y-382067D01*
X-396200Y-388733D01*
G37*
G54D24*
G36*
X-450333Y-702900D02*
X-450333Y-688400D01*
X-443667Y-688400D01*
X-443667Y-702900D01*
X-450333Y-702900D01*
G37*
G36*
X-447000Y-699567D02*
X-432500Y-699567D01*
X-432500Y-706233D01*
X-447000Y-706233D01*
X-447000Y-699567D01*
G37*
G36*
X-443667Y-702900D02*
X-443667Y-717400D01*
X-450333Y-717400D01*
X-450333Y-702900D01*
X-443667Y-702900D01*
G37*
G36*
X-447000Y-706233D02*
X-461500Y-706233D01*
X-461500Y-699567D01*
X-447000Y-699567D01*
X-447000Y-706233D01*
G37*
G54D24*
G36*
X-399533Y-702900D02*
X-399533Y-688400D01*
X-392867Y-688400D01*
X-392867Y-702900D01*
X-399533Y-702900D01*
G37*
G36*
X-396200Y-699567D02*
X-381700Y-699567D01*
X-381700Y-706233D01*
X-396200Y-706233D01*
X-396200Y-699567D01*
G37*
G36*
X-392867Y-702900D02*
X-392867Y-717400D01*
X-399533Y-717400D01*
X-399533Y-702900D01*
X-392867Y-702900D01*
G37*
G36*
X-396200Y-706233D02*
X-410700Y-706233D01*
X-410700Y-699567D01*
X-396200Y-699567D01*
X-396200Y-706233D01*
G37*
G54D24*
G36*
X-450333Y-753700D02*
X-450333Y-739200D01*
X-443667Y-739200D01*
X-443667Y-753700D01*
X-450333Y-753700D01*
G37*
G36*
X-447000Y-750367D02*
X-432500Y-750367D01*
X-432500Y-757033D01*
X-447000Y-757033D01*
X-447000Y-750367D01*
G37*
G36*
X-443667Y-753700D02*
X-443667Y-768200D01*
X-450333Y-768200D01*
X-450333Y-753700D01*
X-443667Y-753700D01*
G37*
G36*
X-447000Y-757033D02*
X-461500Y-757033D01*
X-461500Y-750367D01*
X-447000Y-750367D01*
X-447000Y-757033D01*
G37*
G54D24*
G36*
X-399533Y-753700D02*
X-399533Y-739200D01*
X-392867Y-739200D01*
X-392867Y-753700D01*
X-399533Y-753700D01*
G37*
G36*
X-396200Y-750367D02*
X-381700Y-750367D01*
X-381700Y-757033D01*
X-396200Y-757033D01*
X-396200Y-750367D01*
G37*
G36*
X-392867Y-753700D02*
X-392867Y-768200D01*
X-399533Y-768200D01*
X-399533Y-753700D01*
X-392867Y-753700D01*
G37*
G36*
X-396200Y-757033D02*
X-410700Y-757033D01*
X-410700Y-750367D01*
X-396200Y-750367D01*
X-396200Y-757033D01*
G37*
G54D27*
G36*
X-429725Y112375D02*
X-429725Y128875D01*
X-416325Y128875D01*
X-416325Y112375D01*
X-429725Y112375D01*
G37*
G54D28*
G54D24*
G36*
X-453483Y-280600D02*
X-453483Y-266100D01*
X-446817Y-266100D01*
X-446817Y-280600D01*
X-453483Y-280600D01*
G37*
G36*
X-450150Y-277267D02*
X-435650Y-277267D01*
X-435650Y-283933D01*
X-450150Y-283933D01*
X-450150Y-277267D01*
G37*
G36*
X-446817Y-280600D02*
X-446817Y-295100D01*
X-453483Y-295100D01*
X-453483Y-280600D01*
X-446817Y-280600D01*
G37*
G36*
X-450150Y-283933D02*
X-464650Y-283933D01*
X-464650Y-277267D01*
X-450150Y-277267D01*
X-450150Y-283933D01*
G37*
G54D29*
G36*
X-243967Y155500D02*
X-243967Y170000D01*
X-232033Y170000D01*
X-232033Y155500D01*
X-243967Y155500D01*
G37*
G36*
X-238000Y161467D02*
X-223500Y161467D01*
X-223500Y149533D01*
X-238000Y149533D01*
X-238000Y161467D01*
G37*
G36*
X-232033Y155500D02*
X-232033Y141000D01*
X-243967Y141000D01*
X-243967Y155500D01*
X-232033Y155500D01*
G37*
G36*
X-238000Y149533D02*
X-252500Y149533D01*
X-252500Y161467D01*
X-238000Y161467D01*
X-238000Y149533D01*
G37*
G54D29*
G36*
X-69567Y150500D02*
X-69567Y165000D01*
X-57633Y165000D01*
X-57633Y150500D01*
X-69567Y150500D01*
G37*
G36*
X-63600Y156467D02*
X-49100Y156467D01*
X-49100Y144533D01*
X-63600Y144533D01*
X-63600Y156467D01*
G37*
G36*
X-57633Y150500D02*
X-57633Y136000D01*
X-69567Y136000D01*
X-69567Y150500D01*
X-57633Y150500D01*
G37*
G36*
X-63600Y144533D02*
X-78100Y144533D01*
X-78100Y156467D01*
X-63600Y156467D01*
X-63600Y144533D01*
G37*
G54D29*
G36*
X124333Y147500D02*
X124333Y162000D01*
X136267Y162000D01*
X136267Y147500D01*
X124333Y147500D01*
G37*
G36*
X130300Y153467D02*
X144800Y153467D01*
X144800Y141533D01*
X130300Y141533D01*
X130300Y153467D01*
G37*
G36*
X136267Y147500D02*
X136267Y133000D01*
X124333Y133000D01*
X124333Y147500D01*
X136267Y147500D01*
G37*
G36*
X130300Y141533D02*
X115800Y141533D01*
X115800Y153467D01*
X130300Y153467D01*
X130300Y141533D01*
G37*
G54D29*
G36*
X324133Y150500D02*
X324133Y165000D01*
X336067Y165000D01*
X336067Y150500D01*
X324133Y150500D01*
G37*
G36*
X330100Y156467D02*
X344600Y156467D01*
X344600Y144533D01*
X330100Y144533D01*
X330100Y156467D01*
G37*
G36*
X336067Y150500D02*
X336067Y136000D01*
X324133Y136000D01*
X324133Y150500D01*
X336067Y150500D01*
G37*
G36*
X330100Y144533D02*
X315600Y144533D01*
X315600Y156467D01*
X330100Y156467D01*
X330100Y144533D01*
G37*
G54D29*
G36*
X524233Y148500D02*
X524233Y163000D01*
X536167Y163000D01*
X536167Y148500D01*
X524233Y148500D01*
G37*
G36*
X530200Y154467D02*
X544700Y154467D01*
X544700Y142533D01*
X530200Y142533D01*
X530200Y154467D01*
G37*
G36*
X536167Y148500D02*
X536167Y134000D01*
X524233Y134000D01*
X524233Y148500D01*
X536167Y148500D01*
G37*
G36*
X530200Y142533D02*
X515700Y142533D01*
X515700Y154467D01*
X530200Y154467D01*
X530200Y142533D01*
G37*
G54D28*
G54D29*
G36*
X-485100Y6367D02*
X-470600Y6367D01*
X-470600Y-5567D01*
X-485100Y-5567D01*
X-485100Y6367D01*
G37*
G36*
X-479133Y400D02*
X-479133Y-14100D01*
X-491067Y-14100D01*
X-491067Y400D01*
X-479133Y400D01*
G37*
G36*
X-485100Y-5567D02*
X-499600Y-5567D01*
X-499600Y6367D01*
X-485100Y6367D01*
X-485100Y-5567D01*
G37*
G36*
X-491067Y400D02*
X-491067Y14900D01*
X-479133Y14900D01*
X-479133Y400D01*
X-491067Y400D01*
G37*
G54D29*
G36*
X-485100Y-882633D02*
X-470600Y-882633D01*
X-470600Y-894567D01*
X-485100Y-894567D01*
X-485100Y-882633D01*
G37*
G36*
X-479133Y-888600D02*
X-479133Y-903100D01*
X-491067Y-903100D01*
X-491067Y-888600D01*
X-479133Y-888600D01*
G37*
G36*
X-485100Y-894567D02*
X-499600Y-894567D01*
X-499600Y-882633D01*
X-485100Y-882633D01*
X-485100Y-894567D01*
G37*
G36*
X-491067Y-888600D02*
X-491067Y-874100D01*
X-479133Y-874100D01*
X-479133Y-888600D01*
X-491067Y-888600D01*
G37*
G54D30*
G36*
X-295095Y-73035D02*
X-295095Y-88535D01*
X-302428Y-88535D01*
X-302428Y-73035D01*
X-295095Y-73035D01*
G37*
G36*
X-298762Y-76702D02*
X-314262Y-76702D01*
X-314262Y-69368D01*
X-298762Y-69368D01*
X-298762Y-76702D01*
G37*
G36*
X-302428Y-73035D02*
X-302428Y-57535D01*
X-295095Y-57535D01*
X-295095Y-73035D01*
X-302428Y-73035D01*
G37*
G36*
X-298762Y-69368D02*
X-283262Y-69368D01*
X-283262Y-76702D01*
X-298762Y-76702D01*
X-298762Y-69368D01*
G37*
G54D30*
G36*
X589205Y-70035D02*
X589205Y-85535D01*
X581872Y-85535D01*
X581872Y-70035D01*
X589205Y-70035D01*
G37*
G36*
X585538Y-73702D02*
X570038Y-73702D01*
X570038Y-66368D01*
X585538Y-66368D01*
X585538Y-73702D01*
G37*
G36*
X581872Y-70035D02*
X581872Y-54535D01*
X589205Y-54535D01*
X589205Y-70035D01*
X581872Y-70035D01*
G37*
G36*
X585538Y-66368D02*
X601038Y-66368D01*
X601038Y-73702D01*
X585538Y-73702D01*
X585538Y-66368D01*
G37*
G54D24*
G36*
X-2633Y-274250D02*
X-2633Y-259750D01*
X4033Y-259750D01*
X4033Y-274250D01*
X-2633Y-274250D01*
G37*
G36*
X700Y-270917D02*
X15200Y-270917D01*
X15200Y-277583D01*
X700Y-277583D01*
X700Y-270917D01*
G37*
G36*
X4033Y-274250D02*
X4033Y-288750D01*
X-2633Y-288750D01*
X-2633Y-274250D01*
X4033Y-274250D01*
G37*
G36*
X700Y-277583D02*
X-13800Y-277583D01*
X-13800Y-270917D01*
X700Y-270917D01*
X700Y-277583D01*
G37*
G54D24*
G36*
X67217Y-274250D02*
X67217Y-259750D01*
X73883Y-259750D01*
X73883Y-274250D01*
X67217Y-274250D01*
G37*
G36*
X70550Y-270917D02*
X85050Y-270917D01*
X85050Y-277583D01*
X70550Y-277583D01*
X70550Y-270917D01*
G37*
G36*
X73883Y-274250D02*
X73883Y-288750D01*
X67217Y-288750D01*
X67217Y-274250D01*
X73883Y-274250D01*
G37*
G36*
X70550Y-277583D02*
X56050Y-277583D01*
X56050Y-270917D01*
X70550Y-270917D01*
X70550Y-277583D01*
G37*
G54D25*
G36*
X129606Y-290708D02*
X129606Y-276208D01*
X145672Y-276208D01*
X145672Y-290708D01*
X129606Y-290708D01*
G37*
G36*
X137639Y-282675D02*
X152139Y-282675D01*
X152139Y-298741D01*
X137639Y-298741D01*
X137639Y-282675D01*
G37*
G36*
X145672Y-290708D02*
X145672Y-305208D01*
X129606Y-305208D01*
X129606Y-290708D01*
X145672Y-290708D01*
G37*
G36*
X137639Y-298741D02*
X123139Y-298741D01*
X123139Y-282675D01*
X137639Y-282675D01*
X137639Y-298741D01*
G37*
G54D26*
G36*
X193907Y-290708D02*
X193907Y-276208D01*
X208373Y-276208D01*
X208373Y-290708D01*
X193907Y-290708D01*
G37*
G36*
X201140Y-283475D02*
X215640Y-283475D01*
X215640Y-297941D01*
X201140Y-297941D01*
X201140Y-283475D01*
G37*
G36*
X208373Y-290708D02*
X208373Y-305208D01*
X193907Y-305208D01*
X193907Y-290708D01*
X208373Y-290708D01*
G37*
G36*
X201140Y-297941D02*
X186640Y-297941D01*
X186640Y-283475D01*
X201140Y-283475D01*
X201140Y-297941D01*
G37*
G54D24*
G36*
X251367Y-274250D02*
X251367Y-259750D01*
X258033Y-259750D01*
X258033Y-274250D01*
X251367Y-274250D01*
G37*
G36*
X254700Y-270917D02*
X269200Y-270917D01*
X269200Y-277583D01*
X254700Y-277583D01*
X254700Y-270917D01*
G37*
G36*
X258033Y-274250D02*
X258033Y-288750D01*
X251367Y-288750D01*
X251367Y-274250D01*
X258033Y-274250D01*
G37*
G36*
X254700Y-277583D02*
X240200Y-277583D01*
X240200Y-270917D01*
X254700Y-270917D01*
X254700Y-277583D01*
G37*
G54D24*
G36*
X321217Y-274250D02*
X321217Y-259750D01*
X327883Y-259750D01*
X327883Y-274250D01*
X321217Y-274250D01*
G37*
G36*
X324550Y-270917D02*
X339050Y-270917D01*
X339050Y-277583D01*
X324550Y-277583D01*
X324550Y-270917D01*
G37*
G36*
X327883Y-274250D02*
X327883Y-288750D01*
X321217Y-288750D01*
X321217Y-274250D01*
X327883Y-274250D01*
G37*
G36*
X324550Y-277583D02*
X310050Y-277583D01*
X310050Y-270917D01*
X324550Y-270917D01*
X324550Y-277583D01*
G37*
G54D30*
G36*
X581205Y-276235D02*
X581205Y-291735D01*
X573872Y-291735D01*
X573872Y-276235D01*
X581205Y-276235D01*
G37*
G36*
X577538Y-279902D02*
X562038Y-279902D01*
X562038Y-272568D01*
X577538Y-272568D01*
X577538Y-279902D01*
G37*
G36*
X573872Y-276235D02*
X573872Y-260735D01*
X581205Y-260735D01*
X581205Y-276235D01*
X573872Y-276235D01*
G37*
G36*
X577538Y-272568D02*
X593038Y-272568D01*
X593038Y-279902D01*
X577538Y-279902D01*
X577538Y-272568D01*
G37*
G54D24*
G36*
X-2633Y-477450D02*
X-2633Y-462950D01*
X4033Y-462950D01*
X4033Y-477450D01*
X-2633Y-477450D01*
G37*
G36*
X700Y-474117D02*
X15200Y-474117D01*
X15200Y-480783D01*
X700Y-480783D01*
X700Y-474117D01*
G37*
G36*
X4033Y-477450D02*
X4033Y-491950D01*
X-2633Y-491950D01*
X-2633Y-477450D01*
X4033Y-477450D01*
G37*
G36*
X700Y-480783D02*
X-13800Y-480783D01*
X-13800Y-474117D01*
X700Y-474117D01*
X700Y-480783D01*
G37*
G54D24*
G36*
X67217Y-477450D02*
X67217Y-462950D01*
X73883Y-462950D01*
X73883Y-477450D01*
X67217Y-477450D01*
G37*
G36*
X70550Y-474117D02*
X85050Y-474117D01*
X85050Y-480783D01*
X70550Y-480783D01*
X70550Y-474117D01*
G37*
G36*
X73883Y-477450D02*
X73883Y-491950D01*
X67217Y-491950D01*
X67217Y-477450D01*
X73883Y-477450D01*
G37*
G36*
X70550Y-480783D02*
X56050Y-480783D01*
X56050Y-474117D01*
X70550Y-474117D01*
X70550Y-480783D01*
G37*
G54D25*
G36*
X129606Y-493908D02*
X129606Y-479408D01*
X145672Y-479408D01*
X145672Y-493908D01*
X129606Y-493908D01*
G37*
G36*
X137639Y-485875D02*
X152139Y-485875D01*
X152139Y-501941D01*
X137639Y-501941D01*
X137639Y-485875D01*
G37*
G36*
X145672Y-493908D02*
X145672Y-508408D01*
X129606Y-508408D01*
X129606Y-493908D01*
X145672Y-493908D01*
G37*
G36*
X137639Y-501941D02*
X123139Y-501941D01*
X123139Y-485875D01*
X137639Y-485875D01*
X137639Y-501941D01*
G37*
G54D26*
G36*
X193907Y-493908D02*
X193907Y-479408D01*
X208373Y-479408D01*
X208373Y-493908D01*
X193907Y-493908D01*
G37*
G36*
X201140Y-486675D02*
X215640Y-486675D01*
X215640Y-501141D01*
X201140Y-501141D01*
X201140Y-486675D01*
G37*
G36*
X208373Y-493908D02*
X208373Y-508408D01*
X193907Y-508408D01*
X193907Y-493908D01*
X208373Y-493908D01*
G37*
G36*
X201140Y-501141D02*
X186640Y-501141D01*
X186640Y-486675D01*
X201140Y-486675D01*
X201140Y-501141D01*
G37*
G54D24*
G36*
X251367Y-477450D02*
X251367Y-462950D01*
X258033Y-462950D01*
X258033Y-477450D01*
X251367Y-477450D01*
G37*
G36*
X254700Y-474117D02*
X269200Y-474117D01*
X269200Y-480783D01*
X254700Y-480783D01*
X254700Y-474117D01*
G37*
G36*
X258033Y-477450D02*
X258033Y-491950D01*
X251367Y-491950D01*
X251367Y-477450D01*
X258033Y-477450D01*
G37*
G36*
X254700Y-480783D02*
X240200Y-480783D01*
X240200Y-474117D01*
X254700Y-474117D01*
X254700Y-480783D01*
G37*
G54D24*
G36*
X321217Y-477450D02*
X321217Y-462950D01*
X327883Y-462950D01*
X327883Y-477450D01*
X321217Y-477450D01*
G37*
G36*
X324550Y-474117D02*
X339050Y-474117D01*
X339050Y-480783D01*
X324550Y-480783D01*
X324550Y-474117D01*
G37*
G36*
X327883Y-477450D02*
X327883Y-491950D01*
X321217Y-491950D01*
X321217Y-477450D01*
X327883Y-477450D01*
G37*
G36*
X324550Y-480783D02*
X310050Y-480783D01*
X310050Y-474117D01*
X324550Y-474117D01*
X324550Y-480783D01*
G37*
G54D30*
G36*
X-295095Y-479435D02*
X-295095Y-494935D01*
X-302428Y-494935D01*
X-302428Y-479435D01*
X-295095Y-479435D01*
G37*
G36*
X-298762Y-483102D02*
X-314262Y-483102D01*
X-314262Y-475768D01*
X-298762Y-475768D01*
X-298762Y-483102D01*
G37*
G36*
X-302428Y-479435D02*
X-302428Y-463935D01*
X-295095Y-463935D01*
X-295095Y-479435D01*
X-302428Y-479435D01*
G37*
G36*
X-298762Y-475768D02*
X-283262Y-475768D01*
X-283262Y-483102D01*
X-298762Y-483102D01*
X-298762Y-475768D01*
G37*
G54D30*
G36*
X581205Y-479435D02*
X581205Y-494935D01*
X573872Y-494935D01*
X573872Y-479435D01*
X581205Y-479435D01*
G37*
G36*
X577538Y-483102D02*
X562038Y-483102D01*
X562038Y-475768D01*
X577538Y-475768D01*
X577538Y-483102D01*
G37*
G36*
X573872Y-479435D02*
X573872Y-463935D01*
X581205Y-463935D01*
X581205Y-479435D01*
X573872Y-479435D01*
G37*
G36*
X577538Y-475768D02*
X593038Y-475768D01*
X593038Y-483102D01*
X577538Y-483102D01*
X577538Y-475768D01*
G37*
G54D24*
G36*
X-2633Y-680650D02*
X-2633Y-666150D01*
X4033Y-666150D01*
X4033Y-680650D01*
X-2633Y-680650D01*
G37*
G36*
X700Y-677317D02*
X15200Y-677317D01*
X15200Y-683983D01*
X700Y-683983D01*
X700Y-677317D01*
G37*
G36*
X4033Y-680650D02*
X4033Y-695150D01*
X-2633Y-695150D01*
X-2633Y-680650D01*
X4033Y-680650D01*
G37*
G36*
X700Y-683983D02*
X-13800Y-683983D01*
X-13800Y-677317D01*
X700Y-677317D01*
X700Y-683983D01*
G37*
G54D24*
G36*
X67217Y-680650D02*
X67217Y-666150D01*
X73883Y-666150D01*
X73883Y-680650D01*
X67217Y-680650D01*
G37*
G36*
X70550Y-677317D02*
X85050Y-677317D01*
X85050Y-683983D01*
X70550Y-683983D01*
X70550Y-677317D01*
G37*
G36*
X73883Y-680650D02*
X73883Y-695150D01*
X67217Y-695150D01*
X67217Y-680650D01*
X73883Y-680650D01*
G37*
G36*
X70550Y-683983D02*
X56050Y-683983D01*
X56050Y-677317D01*
X70550Y-677317D01*
X70550Y-683983D01*
G37*
G54D25*
G36*
X129606Y-697108D02*
X129606Y-682608D01*
X145672Y-682608D01*
X145672Y-697108D01*
X129606Y-697108D01*
G37*
G36*
X137639Y-689075D02*
X152139Y-689075D01*
X152139Y-705141D01*
X137639Y-705141D01*
X137639Y-689075D01*
G37*
G36*
X145672Y-697108D02*
X145672Y-711608D01*
X129606Y-711608D01*
X129606Y-697108D01*
X145672Y-697108D01*
G37*
G36*
X137639Y-705141D02*
X123139Y-705141D01*
X123139Y-689075D01*
X137639Y-689075D01*
X137639Y-705141D01*
G37*
G54D26*
G36*
X193907Y-697108D02*
X193907Y-682608D01*
X208373Y-682608D01*
X208373Y-697108D01*
X193907Y-697108D01*
G37*
G36*
X201140Y-689875D02*
X215640Y-689875D01*
X215640Y-704341D01*
X201140Y-704341D01*
X201140Y-689875D01*
G37*
G36*
X208373Y-697108D02*
X208373Y-711608D01*
X193907Y-711608D01*
X193907Y-697108D01*
X208373Y-697108D01*
G37*
G36*
X201140Y-704341D02*
X186640Y-704341D01*
X186640Y-689875D01*
X201140Y-689875D01*
X201140Y-704341D01*
G37*
G54D24*
G36*
X251367Y-680650D02*
X251367Y-666150D01*
X258033Y-666150D01*
X258033Y-680650D01*
X251367Y-680650D01*
G37*
G36*
X254700Y-677317D02*
X269200Y-677317D01*
X269200Y-683983D01*
X254700Y-683983D01*
X254700Y-677317D01*
G37*
G36*
X258033Y-680650D02*
X258033Y-695150D01*
X251367Y-695150D01*
X251367Y-680650D01*
X258033Y-680650D01*
G37*
G36*
X254700Y-683983D02*
X240200Y-683983D01*
X240200Y-677317D01*
X254700Y-677317D01*
X254700Y-683983D01*
G37*
G54D24*
G36*
X321217Y-680650D02*
X321217Y-666150D01*
X327883Y-666150D01*
X327883Y-680650D01*
X321217Y-680650D01*
G37*
G36*
X324550Y-677317D02*
X339050Y-677317D01*
X339050Y-683983D01*
X324550Y-683983D01*
X324550Y-677317D01*
G37*
G36*
X327883Y-680650D02*
X327883Y-695150D01*
X321217Y-695150D01*
X321217Y-680650D01*
X327883Y-680650D01*
G37*
G36*
X324550Y-683983D02*
X310050Y-683983D01*
X310050Y-677317D01*
X324550Y-677317D01*
X324550Y-683983D01*
G37*
G54D30*
G36*
X-287095Y-679635D02*
X-287095Y-695135D01*
X-294428Y-695135D01*
X-294428Y-679635D01*
X-287095Y-679635D01*
G37*
G36*
X-290762Y-683302D02*
X-306262Y-683302D01*
X-306262Y-675968D01*
X-290762Y-675968D01*
X-290762Y-683302D01*
G37*
G36*
X-294428Y-679635D02*
X-294428Y-664135D01*
X-287095Y-664135D01*
X-287095Y-679635D01*
X-294428Y-679635D01*
G37*
G36*
X-290762Y-675968D02*
X-275262Y-675968D01*
X-275262Y-683302D01*
X-290762Y-683302D01*
X-290762Y-675968D01*
G37*
G54D30*
G36*
X581205Y-682635D02*
X581205Y-698135D01*
X573872Y-698135D01*
X573872Y-682635D01*
X581205Y-682635D01*
G37*
G36*
X577538Y-686302D02*
X562038Y-686302D01*
X562038Y-678968D01*
X577538Y-678968D01*
X577538Y-686302D01*
G37*
G36*
X573872Y-682635D02*
X573872Y-667135D01*
X581205Y-667135D01*
X581205Y-682635D01*
X573872Y-682635D01*
G37*
G36*
X577538Y-678968D02*
X593038Y-678968D01*
X593038Y-686302D01*
X577538Y-686302D01*
X577538Y-678968D01*
G37*
G54D24*
G36*
X-2633Y-883850D02*
X-2633Y-869350D01*
X4033Y-869350D01*
X4033Y-883850D01*
X-2633Y-883850D01*
G37*
G36*
X700Y-880517D02*
X15200Y-880517D01*
X15200Y-887183D01*
X700Y-887183D01*
X700Y-880517D01*
G37*
G36*
X4033Y-883850D02*
X4033Y-898350D01*
X-2633Y-898350D01*
X-2633Y-883850D01*
X4033Y-883850D01*
G37*
G36*
X700Y-887183D02*
X-13800Y-887183D01*
X-13800Y-880517D01*
X700Y-880517D01*
X700Y-887183D01*
G37*
G54D24*
G36*
X67217Y-883850D02*
X67217Y-869350D01*
X73883Y-869350D01*
X73883Y-883850D01*
X67217Y-883850D01*
G37*
G36*
X70550Y-880517D02*
X85050Y-880517D01*
X85050Y-887183D01*
X70550Y-887183D01*
X70550Y-880517D01*
G37*
G36*
X73883Y-883850D02*
X73883Y-898350D01*
X67217Y-898350D01*
X67217Y-883850D01*
X73883Y-883850D01*
G37*
G36*
X70550Y-887183D02*
X56050Y-887183D01*
X56050Y-880517D01*
X70550Y-880517D01*
X70550Y-887183D01*
G37*
G54D25*
G36*
X129606Y-900308D02*
X129606Y-885808D01*
X145672Y-885808D01*
X145672Y-900308D01*
X129606Y-900308D01*
G37*
G36*
X137639Y-892275D02*
X152139Y-892275D01*
X152139Y-908341D01*
X137639Y-908341D01*
X137639Y-892275D01*
G37*
G36*
X145672Y-900308D02*
X145672Y-914808D01*
X129606Y-914808D01*
X129606Y-900308D01*
X145672Y-900308D01*
G37*
G36*
X137639Y-908341D02*
X123139Y-908341D01*
X123139Y-892275D01*
X137639Y-892275D01*
X137639Y-908341D01*
G37*
G54D26*
G36*
X193907Y-900308D02*
X193907Y-885808D01*
X208373Y-885808D01*
X208373Y-900308D01*
X193907Y-900308D01*
G37*
G36*
X201140Y-893075D02*
X215640Y-893075D01*
X215640Y-907541D01*
X201140Y-907541D01*
X201140Y-893075D01*
G37*
G36*
X208373Y-900308D02*
X208373Y-914808D01*
X193907Y-914808D01*
X193907Y-900308D01*
X208373Y-900308D01*
G37*
G36*
X201140Y-907541D02*
X186640Y-907541D01*
X186640Y-893075D01*
X201140Y-893075D01*
X201140Y-907541D01*
G37*
G54D24*
G36*
X251367Y-883850D02*
X251367Y-869350D01*
X258033Y-869350D01*
X258033Y-883850D01*
X251367Y-883850D01*
G37*
G36*
X254700Y-880517D02*
X269200Y-880517D01*
X269200Y-887183D01*
X254700Y-887183D01*
X254700Y-880517D01*
G37*
G36*
X258033Y-883850D02*
X258033Y-898350D01*
X251367Y-898350D01*
X251367Y-883850D01*
X258033Y-883850D01*
G37*
G36*
X254700Y-887183D02*
X240200Y-887183D01*
X240200Y-880517D01*
X254700Y-880517D01*
X254700Y-887183D01*
G37*
G54D24*
G36*
X321217Y-883850D02*
X321217Y-869350D01*
X327883Y-869350D01*
X327883Y-883850D01*
X321217Y-883850D01*
G37*
G36*
X324550Y-880517D02*
X339050Y-880517D01*
X339050Y-887183D01*
X324550Y-887183D01*
X324550Y-880517D01*
G37*
G36*
X327883Y-883850D02*
X327883Y-898350D01*
X321217Y-898350D01*
X321217Y-883850D01*
X327883Y-883850D01*
G37*
G36*
X324550Y-887183D02*
X310050Y-887183D01*
X310050Y-880517D01*
X324550Y-880517D01*
X324550Y-887183D01*
G37*
G54D30*
G36*
X-295095Y-885835D02*
X-295095Y-901335D01*
X-302428Y-901335D01*
X-302428Y-885835D01*
X-295095Y-885835D01*
G37*
G36*
X-298762Y-889502D02*
X-314262Y-889502D01*
X-314262Y-882168D01*
X-298762Y-882168D01*
X-298762Y-889502D01*
G37*
G36*
X-302428Y-885835D02*
X-302428Y-870335D01*
X-295095Y-870335D01*
X-295095Y-885835D01*
X-302428Y-885835D01*
G37*
G36*
X-298762Y-882168D02*
X-283262Y-882168D01*
X-283262Y-889502D01*
X-298762Y-889502D01*
X-298762Y-882168D01*
G37*
G54D30*
G36*
X581205Y-885835D02*
X581205Y-901335D01*
X573872Y-901335D01*
X573872Y-885835D01*
X581205Y-885835D01*
G37*
G36*
X577538Y-889502D02*
X562038Y-889502D01*
X562038Y-882168D01*
X577538Y-882168D01*
X577538Y-889502D01*
G37*
G36*
X573872Y-885835D02*
X573872Y-870335D01*
X581205Y-870335D01*
X581205Y-885835D01*
X573872Y-885835D01*
G37*
G36*
X577538Y-882168D02*
X593038Y-882168D01*
X593038Y-889502D01*
X577538Y-889502D01*
X577538Y-882168D01*
G37*
G54D24*
G36*
X-2633Y-1087050D02*
X-2633Y-1072550D01*
X4033Y-1072550D01*
X4033Y-1087050D01*
X-2633Y-1087050D01*
G37*
G36*
X700Y-1083717D02*
X15200Y-1083717D01*
X15200Y-1090383D01*
X700Y-1090383D01*
X700Y-1083717D01*
G37*
G36*
X4033Y-1087050D02*
X4033Y-1101550D01*
X-2633Y-1101550D01*
X-2633Y-1087050D01*
X4033Y-1087050D01*
G37*
G36*
X700Y-1090383D02*
X-13800Y-1090383D01*
X-13800Y-1083717D01*
X700Y-1083717D01*
X700Y-1090383D01*
G37*
G54D24*
G36*
X67217Y-1087050D02*
X67217Y-1072550D01*
X73883Y-1072550D01*
X73883Y-1087050D01*
X67217Y-1087050D01*
G37*
G36*
X70550Y-1083717D02*
X85050Y-1083717D01*
X85050Y-1090383D01*
X70550Y-1090383D01*
X70550Y-1083717D01*
G37*
G36*
X73883Y-1087050D02*
X73883Y-1101550D01*
X67217Y-1101550D01*
X67217Y-1087050D01*
X73883Y-1087050D01*
G37*
G36*
X70550Y-1090383D02*
X56050Y-1090383D01*
X56050Y-1083717D01*
X70550Y-1083717D01*
X70550Y-1090383D01*
G37*
G54D25*
G36*
X129606Y-1103508D02*
X129606Y-1089008D01*
X145672Y-1089008D01*
X145672Y-1103508D01*
X129606Y-1103508D01*
G37*
G36*
X137639Y-1095475D02*
X152139Y-1095475D01*
X152139Y-1111541D01*
X137639Y-1111541D01*
X137639Y-1095475D01*
G37*
G36*
X145672Y-1103508D02*
X145672Y-1118008D01*
X129606Y-1118008D01*
X129606Y-1103508D01*
X145672Y-1103508D01*
G37*
G36*
X137639Y-1111541D02*
X123139Y-1111541D01*
X123139Y-1095475D01*
X137639Y-1095475D01*
X137639Y-1111541D01*
G37*
G54D26*
G36*
X193907Y-1103508D02*
X193907Y-1089008D01*
X208373Y-1089008D01*
X208373Y-1103508D01*
X193907Y-1103508D01*
G37*
G36*
X201140Y-1096275D02*
X215640Y-1096275D01*
X215640Y-1110741D01*
X201140Y-1110741D01*
X201140Y-1096275D01*
G37*
G36*
X208373Y-1103508D02*
X208373Y-1118008D01*
X193907Y-1118008D01*
X193907Y-1103508D01*
X208373Y-1103508D01*
G37*
G36*
X201140Y-1110741D02*
X186640Y-1110741D01*
X186640Y-1096275D01*
X201140Y-1096275D01*
X201140Y-1110741D01*
G37*
G54D24*
G36*
X251367Y-1087050D02*
X251367Y-1072550D01*
X258033Y-1072550D01*
X258033Y-1087050D01*
X251367Y-1087050D01*
G37*
G36*
X254700Y-1083717D02*
X269200Y-1083717D01*
X269200Y-1090383D01*
X254700Y-1090383D01*
X254700Y-1083717D01*
G37*
G36*
X258033Y-1087050D02*
X258033Y-1101550D01*
X251367Y-1101550D01*
X251367Y-1087050D01*
X258033Y-1087050D01*
G37*
G36*
X254700Y-1090383D02*
X240200Y-1090383D01*
X240200Y-1083717D01*
X254700Y-1083717D01*
X254700Y-1090383D01*
G37*
G54D24*
G36*
X321217Y-1087050D02*
X321217Y-1072550D01*
X327883Y-1072550D01*
X327883Y-1087050D01*
X321217Y-1087050D01*
G37*
G36*
X324550Y-1083717D02*
X339050Y-1083717D01*
X339050Y-1090383D01*
X324550Y-1090383D01*
X324550Y-1083717D01*
G37*
G36*
X327883Y-1087050D02*
X327883Y-1101550D01*
X321217Y-1101550D01*
X321217Y-1087050D01*
X327883Y-1087050D01*
G37*
G36*
X324550Y-1090383D02*
X310050Y-1090383D01*
X310050Y-1083717D01*
X324550Y-1083717D01*
X324550Y-1090383D01*
G37*
G54D30*
G36*
X-295095Y-1089035D02*
X-295095Y-1104535D01*
X-302428Y-1104535D01*
X-302428Y-1089035D01*
X-295095Y-1089035D01*
G37*
G36*
X-298762Y-1092702D02*
X-314262Y-1092702D01*
X-314262Y-1085368D01*
X-298762Y-1085368D01*
X-298762Y-1092702D01*
G37*
G36*
X-302428Y-1089035D02*
X-302428Y-1073535D01*
X-295095Y-1073535D01*
X-295095Y-1089035D01*
X-302428Y-1089035D01*
G37*
G36*
X-298762Y-1085368D02*
X-283262Y-1085368D01*
X-283262Y-1092702D01*
X-298762Y-1092702D01*
X-298762Y-1085368D01*
G37*
G54D30*
G36*
X581205Y-1089035D02*
X581205Y-1104535D01*
X573872Y-1104535D01*
X573872Y-1089035D01*
X581205Y-1089035D01*
G37*
G36*
X577538Y-1092702D02*
X562038Y-1092702D01*
X562038Y-1085368D01*
X577538Y-1085368D01*
X577538Y-1092702D01*
G37*
G36*
X573872Y-1089035D02*
X573872Y-1073535D01*
X581205Y-1073535D01*
X581205Y-1089035D01*
X573872Y-1089035D01*
G37*
G36*
X577538Y-1085368D02*
X593038Y-1085368D01*
X593038Y-1092702D01*
X577538Y-1092702D01*
X577538Y-1085368D01*
G37*
G54D30*
G36*
X-249633Y-496500D02*
X-249633Y-512000D01*
X-256967Y-512000D01*
X-256967Y-496500D01*
X-249633Y-496500D01*
G37*
G36*
X-253300Y-500167D02*
X-268800Y-500167D01*
X-268800Y-492833D01*
X-253300Y-492833D01*
X-253300Y-500167D01*
G37*
G36*
X-256967Y-496500D02*
X-256967Y-481000D01*
X-249633Y-481000D01*
X-249633Y-496500D01*
X-256967Y-496500D01*
G37*
G36*
X-253300Y-492833D02*
X-237800Y-492833D01*
X-237800Y-500167D01*
X-253300Y-500167D01*
X-253300Y-492833D01*
G37*
G54D30*
G36*
X-249633Y-699700D02*
X-249633Y-715200D01*
X-256967Y-715200D01*
X-256967Y-699700D01*
X-249633Y-699700D01*
G37*
G36*
X-253300Y-703367D02*
X-268800Y-703367D01*
X-268800Y-696033D01*
X-253300Y-696033D01*
X-253300Y-703367D01*
G37*
G36*
X-256967Y-699700D02*
X-256967Y-684200D01*
X-249633Y-684200D01*
X-249633Y-699700D01*
X-256967Y-699700D01*
G37*
G36*
X-253300Y-696033D02*
X-237800Y-696033D01*
X-237800Y-703367D01*
X-253300Y-703367D01*
X-253300Y-696033D01*
G37*
G54D30*
G36*
X-249633Y-902900D02*
X-249633Y-918400D01*
X-256967Y-918400D01*
X-256967Y-902900D01*
X-249633Y-902900D01*
G37*
G36*
X-253300Y-906567D02*
X-268800Y-906567D01*
X-268800Y-899233D01*
X-253300Y-899233D01*
X-253300Y-906567D01*
G37*
G36*
X-256967Y-902900D02*
X-256967Y-887400D01*
X-249633Y-887400D01*
X-249633Y-902900D01*
X-256967Y-902900D01*
G37*
G36*
X-253300Y-899233D02*
X-237800Y-899233D01*
X-237800Y-906567D01*
X-253300Y-906567D01*
X-253300Y-899233D01*
G37*
G54D30*
G36*
X626667Y-1106100D02*
X626667Y-1121600D01*
X619333Y-1121600D01*
X619333Y-1106100D01*
X626667Y-1106100D01*
G37*
G36*
X623000Y-1109767D02*
X607500Y-1109767D01*
X607500Y-1102433D01*
X623000Y-1102433D01*
X623000Y-1109767D01*
G37*
G36*
X619333Y-1106100D02*
X619333Y-1090600D01*
X626667Y-1090600D01*
X626667Y-1106100D01*
X619333Y-1106100D01*
G37*
G36*
X623000Y-1102433D02*
X638500Y-1102433D01*
X638500Y-1109767D01*
X623000Y-1109767D01*
X623000Y-1102433D01*
G37*
G54D30*
G36*
X626667Y-902900D02*
X626667Y-918400D01*
X619333Y-918400D01*
X619333Y-902900D01*
X626667Y-902900D01*
G37*
G36*
X623000Y-906567D02*
X607500Y-906567D01*
X607500Y-899233D01*
X623000Y-899233D01*
X623000Y-906567D01*
G37*
G36*
X619333Y-902900D02*
X619333Y-887400D01*
X626667Y-887400D01*
X626667Y-902900D01*
X619333Y-902900D01*
G37*
G36*
X623000Y-899233D02*
X638500Y-899233D01*
X638500Y-906567D01*
X623000Y-906567D01*
X623000Y-899233D01*
G37*
G54D30*
G36*
X626667Y-699700D02*
X626667Y-715200D01*
X619333Y-715200D01*
X619333Y-699700D01*
X626667Y-699700D01*
G37*
G36*
X623000Y-703367D02*
X607500Y-703367D01*
X607500Y-696033D01*
X623000Y-696033D01*
X623000Y-703367D01*
G37*
G36*
X619333Y-699700D02*
X619333Y-684200D01*
X626667Y-684200D01*
X626667Y-699700D01*
X619333Y-699700D01*
G37*
G36*
X623000Y-696033D02*
X638500Y-696033D01*
X638500Y-703367D01*
X623000Y-703367D01*
X623000Y-696033D01*
G37*
G54D30*
G36*
X626667Y-496500D02*
X626667Y-512000D01*
X619333Y-512000D01*
X619333Y-496500D01*
X626667Y-496500D01*
G37*
G36*
X623000Y-500167D02*
X607500Y-500167D01*
X607500Y-492833D01*
X623000Y-492833D01*
X623000Y-500167D01*
G37*
G36*
X619333Y-496500D02*
X619333Y-481000D01*
X626667Y-481000D01*
X626667Y-496500D01*
X619333Y-496500D01*
G37*
G36*
X623000Y-492833D02*
X638500Y-492833D01*
X638500Y-500167D01*
X623000Y-500167D01*
X623000Y-492833D01*
G37*
G54D30*
G36*
X626667Y-293300D02*
X626667Y-308800D01*
X619333Y-308800D01*
X619333Y-293300D01*
X626667Y-293300D01*
G37*
G36*
X623000Y-296967D02*
X607500Y-296967D01*
X607500Y-289633D01*
X623000Y-289633D01*
X623000Y-296967D01*
G37*
G36*
X619333Y-293300D02*
X619333Y-277800D01*
X626667Y-277800D01*
X626667Y-293300D01*
X619333Y-293300D01*
G37*
G36*
X623000Y-289633D02*
X638500Y-289633D01*
X638500Y-296967D01*
X623000Y-296967D01*
X623000Y-289633D01*
G37*
G54D30*
G36*
X626667Y-90100D02*
X626667Y-105600D01*
X619333Y-105600D01*
X619333Y-90100D01*
X626667Y-90100D01*
G37*
G36*
X623000Y-93767D02*
X607500Y-93767D01*
X607500Y-86433D01*
X623000Y-86433D01*
X623000Y-93767D01*
G37*
G36*
X619333Y-90100D02*
X619333Y-74600D01*
X626667Y-74600D01*
X626667Y-90100D01*
X619333Y-90100D01*
G37*
G36*
X623000Y-86433D02*
X638500Y-86433D01*
X638500Y-93767D01*
X623000Y-93767D01*
X623000Y-86433D01*
G37*
G54D30*
G36*
X-187117Y-105976D02*
X-187117Y-90476D01*
X-179783Y-90476D01*
X-179783Y-105976D01*
X-187117Y-105976D01*
G37*
G36*
X-183450Y-102309D02*
X-167950Y-102309D01*
X-167950Y-109643D01*
X-183450Y-109643D01*
X-183450Y-102309D01*
G37*
G36*
X-179783Y-105976D02*
X-179783Y-121476D01*
X-187117Y-121476D01*
X-187117Y-105976D01*
X-179783Y-105976D01*
G37*
G36*
X-183450Y-109643D02*
X-198950Y-109643D01*
X-198950Y-102309D01*
X-183450Y-102309D01*
X-183450Y-109643D01*
G37*
G54D30*
G36*
X507277Y-103412D02*
X507277Y-87912D01*
X514611Y-87912D01*
X514611Y-103412D01*
X507277Y-103412D01*
G37*
G36*
X510944Y-99745D02*
X526444Y-99745D01*
X526444Y-107079D01*
X510944Y-107079D01*
X510944Y-99745D01*
G37*
G36*
X514611Y-103412D02*
X514611Y-118912D01*
X507277Y-118912D01*
X507277Y-103412D01*
X514611Y-103412D01*
G37*
G36*
X510944Y-107079D02*
X495444Y-107079D01*
X495444Y-99745D01*
X510944Y-99745D01*
X510944Y-107079D01*
G37*
G54D30*
G36*
X-187117Y-309176D02*
X-187117Y-293676D01*
X-179783Y-293676D01*
X-179783Y-309176D01*
X-187117Y-309176D01*
G37*
G36*
X-183450Y-305509D02*
X-167950Y-305509D01*
X-167950Y-312843D01*
X-183450Y-312843D01*
X-183450Y-305509D01*
G37*
G36*
X-179783Y-309176D02*
X-179783Y-324676D01*
X-187117Y-324676D01*
X-187117Y-309176D01*
X-179783Y-309176D01*
G37*
G36*
X-183450Y-312843D02*
X-198950Y-312843D01*
X-198950Y-305509D01*
X-183450Y-305509D01*
X-183450Y-312843D01*
G37*
G54D30*
G36*
X507277Y-306612D02*
X507277Y-291112D01*
X514611Y-291112D01*
X514611Y-306612D01*
X507277Y-306612D01*
G37*
G36*
X510944Y-302945D02*
X526444Y-302945D01*
X526444Y-310279D01*
X510944Y-310279D01*
X510944Y-302945D01*
G37*
G36*
X514611Y-306612D02*
X514611Y-322112D01*
X507277Y-322112D01*
X507277Y-306612D01*
X514611Y-306612D01*
G37*
G36*
X510944Y-310279D02*
X495444Y-310279D01*
X495444Y-302945D01*
X510944Y-302945D01*
X510944Y-310279D01*
G37*
G54D30*
G36*
X-187117Y-512376D02*
X-187117Y-496876D01*
X-179783Y-496876D01*
X-179783Y-512376D01*
X-187117Y-512376D01*
G37*
G36*
X-183450Y-508709D02*
X-167950Y-508709D01*
X-167950Y-516043D01*
X-183450Y-516043D01*
X-183450Y-508709D01*
G37*
G36*
X-179783Y-512376D02*
X-179783Y-527876D01*
X-187117Y-527876D01*
X-187117Y-512376D01*
X-179783Y-512376D01*
G37*
G36*
X-183450Y-516043D02*
X-198950Y-516043D01*
X-198950Y-508709D01*
X-183450Y-508709D01*
X-183450Y-516043D01*
G37*
G54D30*
G36*
X507277Y-509812D02*
X507277Y-494312D01*
X514611Y-494312D01*
X514611Y-509812D01*
X507277Y-509812D01*
G37*
G36*
X510944Y-506145D02*
X526444Y-506145D01*
X526444Y-513479D01*
X510944Y-513479D01*
X510944Y-506145D01*
G37*
G36*
X514611Y-509812D02*
X514611Y-525312D01*
X507277Y-525312D01*
X507277Y-509812D01*
X514611Y-509812D01*
G37*
G36*
X510944Y-513479D02*
X495444Y-513479D01*
X495444Y-506145D01*
X510944Y-506145D01*
X510944Y-513479D01*
G37*
G54D30*
G36*
X-187117Y-715576D02*
X-187117Y-700076D01*
X-179783Y-700076D01*
X-179783Y-715576D01*
X-187117Y-715576D01*
G37*
G36*
X-183450Y-711909D02*
X-167950Y-711909D01*
X-167950Y-719243D01*
X-183450Y-719243D01*
X-183450Y-711909D01*
G37*
G36*
X-179783Y-715576D02*
X-179783Y-731076D01*
X-187117Y-731076D01*
X-187117Y-715576D01*
X-179783Y-715576D01*
G37*
G36*
X-183450Y-719243D02*
X-198950Y-719243D01*
X-198950Y-711909D01*
X-183450Y-711909D01*
X-183450Y-719243D01*
G37*
G54D30*
G36*
X507277Y-713012D02*
X507277Y-697512D01*
X514611Y-697512D01*
X514611Y-713012D01*
X507277Y-713012D01*
G37*
G36*
X510944Y-709345D02*
X526444Y-709345D01*
X526444Y-716679D01*
X510944Y-716679D01*
X510944Y-709345D01*
G37*
G36*
X514611Y-713012D02*
X514611Y-728512D01*
X507277Y-728512D01*
X507277Y-713012D01*
X514611Y-713012D01*
G37*
G36*
X510944Y-716679D02*
X495444Y-716679D01*
X495444Y-709345D01*
X510944Y-709345D01*
X510944Y-716679D01*
G37*
G54D30*
G36*
X-187117Y-918776D02*
X-187117Y-903276D01*
X-179783Y-903276D01*
X-179783Y-918776D01*
X-187117Y-918776D01*
G37*
G36*
X-183450Y-915109D02*
X-167950Y-915109D01*
X-167950Y-922443D01*
X-183450Y-922443D01*
X-183450Y-915109D01*
G37*
G36*
X-179783Y-918776D02*
X-179783Y-934276D01*
X-187117Y-934276D01*
X-187117Y-918776D01*
X-179783Y-918776D01*
G37*
G36*
X-183450Y-922443D02*
X-198950Y-922443D01*
X-198950Y-915109D01*
X-183450Y-915109D01*
X-183450Y-922443D01*
G37*
G54D30*
G36*
X507277Y-916212D02*
X507277Y-900712D01*
X514611Y-900712D01*
X514611Y-916212D01*
X507277Y-916212D01*
G37*
G36*
X510944Y-912545D02*
X526444Y-912545D01*
X526444Y-919879D01*
X510944Y-919879D01*
X510944Y-912545D01*
G37*
G36*
X514611Y-916212D02*
X514611Y-931712D01*
X507277Y-931712D01*
X507277Y-916212D01*
X514611Y-916212D01*
G37*
G36*
X510944Y-919879D02*
X495444Y-919879D01*
X495444Y-912545D01*
X510944Y-912545D01*
X510944Y-919879D01*
G37*
G54D31*
G36*
X-188117Y-1121976D02*
X-188117Y-1103476D01*
X-178783Y-1103476D01*
X-178783Y-1121976D01*
X-188117Y-1121976D01*
G37*
G36*
X-183450Y-1117309D02*
X-164950Y-1117309D01*
X-164950Y-1126643D01*
X-183450Y-1126643D01*
X-183450Y-1117309D01*
G37*
G36*
X-178783Y-1121976D02*
X-178783Y-1140476D01*
X-188117Y-1140476D01*
X-188117Y-1121976D01*
X-178783Y-1121976D01*
G37*
G36*
X-183450Y-1126643D02*
X-201950Y-1126643D01*
X-201950Y-1117309D01*
X-183450Y-1117309D01*
X-183450Y-1126643D01*
G37*
G54D30*
G36*
X507277Y-1119412D02*
X507277Y-1103912D01*
X514611Y-1103912D01*
X514611Y-1119412D01*
X507277Y-1119412D01*
G37*
G36*
X510944Y-1115745D02*
X526444Y-1115745D01*
X526444Y-1123079D01*
X510944Y-1123079D01*
X510944Y-1115745D01*
G37*
G36*
X514611Y-1119412D02*
X514611Y-1134912D01*
X507277Y-1134912D01*
X507277Y-1119412D01*
X514611Y-1119412D01*
G37*
G36*
X510944Y-1123079D02*
X495444Y-1123079D01*
X495444Y-1115745D01*
X510944Y-1115745D01*
X510944Y-1123079D01*
G37*
G54D30*
G36*
X-480473Y-473092D02*
X-464973Y-473092D01*
X-464973Y-480426D01*
X-480473Y-480426D01*
X-480473Y-473092D01*
G37*
G36*
X-476806Y-476759D02*
X-476806Y-492259D01*
X-484140Y-492259D01*
X-484140Y-476759D01*
X-476806Y-476759D01*
G37*
G36*
X-480473Y-480426D02*
X-495973Y-480426D01*
X-495973Y-473092D01*
X-480473Y-473092D01*
X-480473Y-480426D01*
G37*
G36*
X-484140Y-476759D02*
X-484140Y-461259D01*
X-476806Y-461259D01*
X-476806Y-476759D01*
X-484140Y-476759D01*
G37*
G54D29*
G36*
X-186267Y-1193400D02*
X-186267Y-1178900D01*
X-174333Y-1178900D01*
X-174333Y-1193400D01*
X-186267Y-1193400D01*
G37*
G36*
X-180300Y-1187433D02*
X-165800Y-1187433D01*
X-165800Y-1199367D01*
X-180300Y-1199367D01*
X-180300Y-1187433D01*
G37*
G36*
X-174333Y-1193400D02*
X-174333Y-1207900D01*
X-186267Y-1207900D01*
X-186267Y-1193400D01*
X-174333Y-1193400D01*
G37*
G36*
X-180300Y-1199367D02*
X-194800Y-1199367D01*
X-194800Y-1187433D01*
X-180300Y-1187433D01*
X-180300Y-1199367D01*
G37*
G54D29*
G36*
X-33867Y-1193400D02*
X-33867Y-1178900D01*
X-21933Y-1178900D01*
X-21933Y-1193400D01*
X-33867Y-1193400D01*
G37*
G36*
X-27900Y-1187433D02*
X-13400Y-1187433D01*
X-13400Y-1199367D01*
X-27900Y-1199367D01*
X-27900Y-1187433D01*
G37*
G36*
X-21933Y-1193400D02*
X-21933Y-1207900D01*
X-33867Y-1207900D01*
X-33867Y-1193400D01*
X-21933Y-1193400D01*
G37*
G36*
X-27900Y-1199367D02*
X-42400Y-1199367D01*
X-42400Y-1187433D01*
X-27900Y-1187433D01*
X-27900Y-1199367D01*
G37*
G54D29*
G36*
X182033Y-1193400D02*
X182033Y-1178900D01*
X193967Y-1178900D01*
X193967Y-1193400D01*
X182033Y-1193400D01*
G37*
G36*
X188000Y-1187433D02*
X202500Y-1187433D01*
X202500Y-1199367D01*
X188000Y-1199367D01*
X188000Y-1187433D01*
G37*
G36*
X193967Y-1193400D02*
X193967Y-1207900D01*
X182033Y-1207900D01*
X182033Y-1193400D01*
X193967Y-1193400D01*
G37*
G36*
X188000Y-1199367D02*
X173500Y-1199367D01*
X173500Y-1187433D01*
X188000Y-1187433D01*
X188000Y-1199367D01*
G37*
G54D29*
G36*
X359833Y-1193400D02*
X359833Y-1178900D01*
X371767Y-1178900D01*
X371767Y-1193400D01*
X359833Y-1193400D01*
G37*
G36*
X365800Y-1187433D02*
X380300Y-1187433D01*
X380300Y-1199367D01*
X365800Y-1199367D01*
X365800Y-1187433D01*
G37*
G36*
X371767Y-1193400D02*
X371767Y-1207900D01*
X359833Y-1207900D01*
X359833Y-1193400D01*
X371767Y-1193400D01*
G37*
G36*
X365800Y-1199367D02*
X351300Y-1199367D01*
X351300Y-1187433D01*
X365800Y-1187433D01*
X365800Y-1199367D01*
G37*
G54D29*
G36*
X524933Y-1193400D02*
X524933Y-1178900D01*
X536867Y-1178900D01*
X536867Y-1193400D01*
X524933Y-1193400D01*
G37*
G36*
X530900Y-1187433D02*
X545400Y-1187433D01*
X545400Y-1199367D01*
X530900Y-1199367D01*
X530900Y-1187433D01*
G37*
G36*
X536867Y-1193400D02*
X536867Y-1207900D01*
X524933Y-1207900D01*
X524933Y-1193400D01*
X536867Y-1193400D01*
G37*
G36*
X530900Y-1199367D02*
X516400Y-1199367D01*
X516400Y-1187433D01*
X530900Y-1187433D01*
X530900Y-1199367D01*
G37*
G54D30*
G36*
X-249633Y-90100D02*
X-249633Y-105600D01*
X-256967Y-105600D01*
X-256967Y-90100D01*
X-249633Y-90100D01*
G37*
G36*
X-253300Y-93767D02*
X-268800Y-93767D01*
X-268800Y-86433D01*
X-253300Y-86433D01*
X-253300Y-93767D01*
G37*
G36*
X-256967Y-90100D02*
X-256967Y-74600D01*
X-249633Y-74600D01*
X-249633Y-90100D01*
X-256967Y-90100D01*
G37*
G36*
X-253300Y-86433D02*
X-237800Y-86433D01*
X-237800Y-93767D01*
X-253300Y-93767D01*
X-253300Y-86433D01*
G37*
G54D30*
G36*
X-345064Y-226862D02*
X-345064Y-242362D01*
X-352397Y-242362D01*
X-352397Y-226862D01*
X-345064Y-226862D01*
G37*
G36*
X-348730Y-230529D02*
X-364230Y-230529D01*
X-364230Y-223196D01*
X-348730Y-223196D01*
X-348730Y-230529D01*
G37*
G36*
X-352397Y-226862D02*
X-352397Y-211362D01*
X-345064Y-211362D01*
X-345064Y-226862D01*
X-352397Y-226862D01*
G37*
G36*
X-348730Y-223196D02*
X-333230Y-223196D01*
X-333230Y-230529D01*
X-348730Y-230529D01*
X-348730Y-223196D01*
G37*
G54D30*
G36*
X-295095Y-73035D02*
X-295095Y-88535D01*
X-302428Y-88535D01*
X-302428Y-73035D01*
X-295095Y-73035D01*
G37*
G36*
X-298762Y-76702D02*
X-314262Y-76702D01*
X-314262Y-69368D01*
X-298762Y-69368D01*
X-298762Y-76702D01*
G37*
G36*
X-302428Y-73035D02*
X-302428Y-57535D01*
X-295095Y-57535D01*
X-295095Y-73035D01*
X-302428Y-73035D01*
G37*
G36*
X-298762Y-69368D02*
X-283262Y-69368D01*
X-283262Y-76702D01*
X-298762Y-76702D01*
X-298762Y-69368D01*
G37*
G54D30*
G36*
X-249633Y-90100D02*
X-249633Y-105600D01*
X-256967Y-105600D01*
X-256967Y-90100D01*
X-249633Y-90100D01*
G37*
G36*
X-253300Y-93767D02*
X-268800Y-93767D01*
X-268800Y-86433D01*
X-253300Y-86433D01*
X-253300Y-93767D01*
G37*
G36*
X-256967Y-90100D02*
X-256967Y-74600D01*
X-249633Y-74600D01*
X-249633Y-90100D01*
X-256967Y-90100D01*
G37*
G36*
X-253300Y-86433D02*
X-237800Y-86433D01*
X-237800Y-93767D01*
X-253300Y-93767D01*
X-253300Y-86433D01*
G37*
G54D30*
G36*
X-385744Y-252608D02*
X-385744Y-268108D01*
X-393077Y-268108D01*
X-393077Y-252608D01*
X-385744Y-252608D01*
G37*
G36*
X-389410Y-256274D02*
X-404910Y-256274D01*
X-404910Y-248941D01*
X-389410Y-248941D01*
X-389410Y-256274D01*
G37*
G36*
X-393077Y-252608D02*
X-393077Y-237108D01*
X-385744Y-237108D01*
X-385744Y-252608D01*
X-393077Y-252608D01*
G37*
G36*
X-389410Y-248941D02*
X-373910Y-248941D01*
X-373910Y-256274D01*
X-389410Y-256274D01*
X-389410Y-248941D01*
G37*
G54D30*
G36*
X-249633Y-1106100D02*
X-249633Y-1121600D01*
X-256967Y-1121600D01*
X-256967Y-1106100D01*
X-249633Y-1106100D01*
G37*
G36*
X-253300Y-1109767D02*
X-268800Y-1109767D01*
X-268800Y-1102433D01*
X-253300Y-1102433D01*
X-253300Y-1109767D01*
G37*
G36*
X-256967Y-1106100D02*
X-256967Y-1090600D01*
X-249633Y-1090600D01*
X-249633Y-1106100D01*
X-256967Y-1106100D01*
G37*
G36*
X-253300Y-1102433D02*
X-237800Y-1102433D01*
X-237800Y-1109767D01*
X-253300Y-1109767D01*
X-253300Y-1102433D01*
G37*
G54D30*
G36*
X626667Y-1106100D02*
X626667Y-1121600D01*
X619333Y-1121600D01*
X619333Y-1106100D01*
X626667Y-1106100D01*
G37*
G36*
X623000Y-1109767D02*
X607500Y-1109767D01*
X607500Y-1102433D01*
X623000Y-1102433D01*
X623000Y-1109767D01*
G37*
G36*
X619333Y-1106100D02*
X619333Y-1090600D01*
X626667Y-1090600D01*
X626667Y-1106100D01*
X619333Y-1106100D01*
G37*
G36*
X623000Y-1102433D02*
X638500Y-1102433D01*
X638500Y-1109767D01*
X623000Y-1109767D01*
X623000Y-1102433D01*
G37*
G54D30*
G36*
X581205Y-1089035D02*
X581205Y-1104535D01*
X573872Y-1104535D01*
X573872Y-1089035D01*
X581205Y-1089035D01*
G37*
G36*
X577538Y-1092702D02*
X562038Y-1092702D01*
X562038Y-1085368D01*
X577538Y-1085368D01*
X577538Y-1092702D01*
G37*
G36*
X573872Y-1089035D02*
X573872Y-1073535D01*
X581205Y-1073535D01*
X581205Y-1089035D01*
X573872Y-1089035D01*
G37*
G36*
X577538Y-1085368D02*
X593038Y-1085368D01*
X593038Y-1092702D01*
X577538Y-1092702D01*
X577538Y-1085368D01*
G37*
G54D30*
G36*
X-357583Y-188650D02*
X-357583Y-204150D01*
X-364917Y-204150D01*
X-364917Y-188650D01*
X-357583Y-188650D01*
G37*
G36*
X-361250Y-192317D02*
X-376750Y-192317D01*
X-376750Y-184983D01*
X-361250Y-184983D01*
X-361250Y-192317D01*
G37*
G36*
X-364917Y-188650D02*
X-364917Y-173150D01*
X-357583Y-173150D01*
X-357583Y-188650D01*
X-364917Y-188650D01*
G37*
G36*
X-361250Y-184983D02*
X-345750Y-184983D01*
X-345750Y-192317D01*
X-361250Y-192317D01*
X-361250Y-184983D01*
G37*
G54D32*
G36*
X750000Y-118600D02*
X769500Y-118600D01*
X769500Y-137800D01*
X750000Y-137800D01*
X750000Y-118600D01*
G37*
G36*
X759600Y-128200D02*
X759600Y-147700D01*
X740400Y-147700D01*
X740400Y-128200D01*
X759600Y-128200D01*
G37*
G36*
X750000Y-137800D02*
X730500Y-137800D01*
X730500Y-118600D01*
X750000Y-118600D01*
X750000Y-137800D01*
G37*
G36*
X740400Y-128200D02*
X740400Y-108700D01*
X759600Y-108700D01*
X759600Y-128200D01*
X740400Y-128200D01*
G37*
G54D32*
G36*
X851600Y-118600D02*
X871100Y-118600D01*
X871100Y-137800D01*
X851600Y-137800D01*
X851600Y-118600D01*
G37*
G36*
X861200Y-128200D02*
X861200Y-147700D01*
X842000Y-147700D01*
X842000Y-128200D01*
X861200Y-128200D01*
G37*
G36*
X851600Y-137800D02*
X832100Y-137800D01*
X832100Y-118600D01*
X851600Y-118600D01*
X851600Y-137800D01*
G37*
G36*
X842000Y-128200D02*
X842000Y-108700D01*
X861200Y-108700D01*
X861200Y-128200D01*
X842000Y-128200D01*
G37*
G54D32*
G36*
X746825Y-340850D02*
X766325Y-340850D01*
X766325Y-360050D01*
X746825Y-360050D01*
X746825Y-340850D01*
G37*
G36*
X756425Y-350450D02*
X756425Y-369950D01*
X737225Y-369950D01*
X737225Y-350450D01*
X756425Y-350450D01*
G37*
G36*
X746825Y-360050D02*
X727325Y-360050D01*
X727325Y-340850D01*
X746825Y-340850D01*
X746825Y-360050D01*
G37*
G36*
X737225Y-350450D02*
X737225Y-330950D01*
X756425Y-330950D01*
X756425Y-350450D01*
X737225Y-350450D01*
G37*
G54D32*
G36*
X848425Y-340850D02*
X867925Y-340850D01*
X867925Y-360050D01*
X848425Y-360050D01*
X848425Y-340850D01*
G37*
G36*
X858025Y-350450D02*
X858025Y-369950D01*
X838825Y-369950D01*
X838825Y-350450D01*
X858025Y-350450D01*
G37*
G36*
X848425Y-360050D02*
X828925Y-360050D01*
X828925Y-340850D01*
X848425Y-340850D01*
X848425Y-360050D01*
G37*
G36*
X838825Y-350450D02*
X838825Y-330950D01*
X858025Y-330950D01*
X858025Y-350450D01*
X838825Y-350450D01*
G37*
G54D32*
G36*
X746825Y-537700D02*
X766325Y-537700D01*
X766325Y-556900D01*
X746825Y-556900D01*
X746825Y-537700D01*
G37*
G36*
X756425Y-547300D02*
X756425Y-566800D01*
X737225Y-566800D01*
X737225Y-547300D01*
X756425Y-547300D01*
G37*
G36*
X746825Y-556900D02*
X727325Y-556900D01*
X727325Y-537700D01*
X746825Y-537700D01*
X746825Y-556900D01*
G37*
G36*
X737225Y-547300D02*
X737225Y-527800D01*
X756425Y-527800D01*
X756425Y-547300D01*
X737225Y-547300D01*
G37*
G54D32*
G36*
X848425Y-537700D02*
X867925Y-537700D01*
X867925Y-556900D01*
X848425Y-556900D01*
X848425Y-537700D01*
G37*
G36*
X858025Y-547300D02*
X858025Y-566800D01*
X838825Y-566800D01*
X838825Y-547300D01*
X858025Y-547300D01*
G37*
G36*
X848425Y-556900D02*
X828925Y-556900D01*
X828925Y-537700D01*
X848425Y-537700D01*
X848425Y-556900D01*
G37*
G36*
X838825Y-547300D02*
X838825Y-527800D01*
X858025Y-527800D01*
X858025Y-547300D01*
X838825Y-547300D01*
G37*
G54D32*
G36*
X746825Y-740900D02*
X766325Y-740900D01*
X766325Y-760100D01*
X746825Y-760100D01*
X746825Y-740900D01*
G37*
G36*
X756425Y-750500D02*
X756425Y-770000D01*
X737225Y-770000D01*
X737225Y-750500D01*
X756425Y-750500D01*
G37*
G36*
X746825Y-760100D02*
X727325Y-760100D01*
X727325Y-740900D01*
X746825Y-740900D01*
X746825Y-760100D01*
G37*
G36*
X737225Y-750500D02*
X737225Y-731000D01*
X756425Y-731000D01*
X756425Y-750500D01*
X737225Y-750500D01*
G37*
G54D32*
G36*
X848425Y-740900D02*
X867925Y-740900D01*
X867925Y-760100D01*
X848425Y-760100D01*
X848425Y-740900D01*
G37*
G36*
X858025Y-750500D02*
X858025Y-770000D01*
X838825Y-770000D01*
X838825Y-750500D01*
X858025Y-750500D01*
G37*
G36*
X848425Y-760100D02*
X828925Y-760100D01*
X828925Y-740900D01*
X848425Y-740900D01*
X848425Y-760100D01*
G37*
G36*
X838825Y-750500D02*
X838825Y-731000D01*
X858025Y-731000D01*
X858025Y-750500D01*
X838825Y-750500D01*
G37*
G54D32*
G36*
X746825Y-925050D02*
X766325Y-925050D01*
X766325Y-944250D01*
X746825Y-944250D01*
X746825Y-925050D01*
G37*
G36*
X756425Y-934650D02*
X756425Y-954150D01*
X737225Y-954150D01*
X737225Y-934650D01*
X756425Y-934650D01*
G37*
G36*
X746825Y-944250D02*
X727325Y-944250D01*
X727325Y-925050D01*
X746825Y-925050D01*
X746825Y-944250D01*
G37*
G36*
X737225Y-934650D02*
X737225Y-915150D01*
X756425Y-915150D01*
X756425Y-934650D01*
X737225Y-934650D01*
G37*
G54D32*
G36*
X848425Y-925050D02*
X867925Y-925050D01*
X867925Y-944250D01*
X848425Y-944250D01*
X848425Y-925050D01*
G37*
G36*
X858025Y-934650D02*
X858025Y-954150D01*
X838825Y-954150D01*
X838825Y-934650D01*
X858025Y-934650D01*
G37*
G36*
X848425Y-944250D02*
X828925Y-944250D01*
X828925Y-925050D01*
X848425Y-925050D01*
X848425Y-944250D01*
G37*
G36*
X838825Y-934650D02*
X838825Y-915150D01*
X858025Y-915150D01*
X858025Y-934650D01*
X838825Y-934650D01*
G37*
G54D32*
G36*
X746825Y-1109200D02*
X766325Y-1109200D01*
X766325Y-1128400D01*
X746825Y-1128400D01*
X746825Y-1109200D01*
G37*
G36*
X756425Y-1118800D02*
X756425Y-1138300D01*
X737225Y-1138300D01*
X737225Y-1118800D01*
X756425Y-1118800D01*
G37*
G36*
X746825Y-1128400D02*
X727325Y-1128400D01*
X727325Y-1109200D01*
X746825Y-1109200D01*
X746825Y-1128400D01*
G37*
G36*
X737225Y-1118800D02*
X737225Y-1099300D01*
X756425Y-1099300D01*
X756425Y-1118800D01*
X737225Y-1118800D01*
G37*
G54D32*
G36*
X848425Y-1109200D02*
X867925Y-1109200D01*
X867925Y-1128400D01*
X848425Y-1128400D01*
X848425Y-1109200D01*
G37*
G36*
X858025Y-1118800D02*
X858025Y-1138300D01*
X838825Y-1138300D01*
X838825Y-1118800D01*
X858025Y-1118800D01*
G37*
G36*
X848425Y-1128400D02*
X828925Y-1128400D01*
X828925Y-1109200D01*
X848425Y-1109200D01*
X848425Y-1128400D01*
G37*
G36*
X838825Y-1118800D02*
X838825Y-1099300D01*
X858025Y-1099300D01*
X858025Y-1118800D01*
X838825Y-1118800D01*
G37*
G54D24*
G36*
X933967Y-531450D02*
X933967Y-516950D01*
X940633Y-516950D01*
X940633Y-531450D01*
X933967Y-531450D01*
G37*
G36*
X937300Y-528117D02*
X951800Y-528117D01*
X951800Y-534783D01*
X937300Y-534783D01*
X937300Y-528117D01*
G37*
G36*
X940633Y-531450D02*
X940633Y-545950D01*
X933967Y-545950D01*
X933967Y-531450D01*
X940633Y-531450D01*
G37*
G36*
X937300Y-534783D02*
X922800Y-534783D01*
X922800Y-528117D01*
X937300Y-528117D01*
X937300Y-534783D01*
G37*
G54D24*
G36*
X933967Y-582250D02*
X933967Y-567750D01*
X940633Y-567750D01*
X940633Y-582250D01*
X933967Y-582250D01*
G37*
G36*
X937300Y-578917D02*
X951800Y-578917D01*
X951800Y-585584D01*
X937300Y-585584D01*
X937300Y-578917D01*
G37*
G36*
X940633Y-582250D02*
X940633Y-596750D01*
X933967Y-596750D01*
X933967Y-582250D01*
X940633Y-582250D01*
G37*
G36*
X937300Y-585584D02*
X922800Y-585584D01*
X922800Y-578917D01*
X937300Y-578917D01*
X937300Y-585584D01*
G37*
G54D29*
G36*
X704233Y150500D02*
X704233Y165000D01*
X716167Y165000D01*
X716167Y150500D01*
X704233Y150500D01*
G37*
G36*
X710200Y156467D02*
X724700Y156467D01*
X724700Y144533D01*
X710200Y144533D01*
X710200Y156467D01*
G37*
G36*
X716167Y150500D02*
X716167Y136000D01*
X704233Y136000D01*
X704233Y150500D01*
X716167Y150500D01*
G37*
G36*
X710200Y144533D02*
X695700Y144533D01*
X695700Y156467D01*
X710200Y156467D01*
X710200Y144533D01*
G37*
G54D29*
G36*
X970233Y47500D02*
X970233Y62000D01*
X982167Y62000D01*
X982167Y47500D01*
X970233Y47500D01*
G37*
G36*
X976200Y53467D02*
X990700Y53467D01*
X990700Y41533D01*
X976200Y41533D01*
X976200Y53467D01*
G37*
G36*
X982167Y47500D02*
X982167Y33000D01*
X970233Y33000D01*
X970233Y47500D01*
X982167Y47500D01*
G37*
G36*
X976200Y41533D02*
X961700Y41533D01*
X961700Y53467D01*
X976200Y53467D01*
X976200Y41533D01*
G37*
G54D29*
G36*
X969233Y-192500D02*
X969233Y-178000D01*
X981167Y-178000D01*
X981167Y-192500D01*
X969233Y-192500D01*
G37*
G36*
X975200Y-186533D02*
X989700Y-186533D01*
X989700Y-198467D01*
X975200Y-198467D01*
X975200Y-186533D01*
G37*
G36*
X981167Y-192500D02*
X981167Y-207000D01*
X969233Y-207000D01*
X969233Y-192500D01*
X981167Y-192500D01*
G37*
G36*
X975200Y-198467D02*
X960700Y-198467D01*
X960700Y-186533D01*
X975200Y-186533D01*
X975200Y-198467D01*
G37*
G54D29*
G36*
X964233Y-399500D02*
X964233Y-385000D01*
X976167Y-385000D01*
X976167Y-399500D01*
X964233Y-399500D01*
G37*
G36*
X970200Y-393533D02*
X984700Y-393533D01*
X984700Y-405467D01*
X970200Y-405467D01*
X970200Y-393533D01*
G37*
G36*
X976167Y-399500D02*
X976167Y-414000D01*
X964233Y-414000D01*
X964233Y-399500D01*
X976167Y-399500D01*
G37*
G36*
X970200Y-405467D02*
X955700Y-405467D01*
X955700Y-393533D01*
X970200Y-393533D01*
X970200Y-405467D01*
G37*
G54D29*
G36*
X967233Y-702500D02*
X967233Y-688000D01*
X979167Y-688000D01*
X979167Y-702500D01*
X967233Y-702500D01*
G37*
G36*
X973200Y-696533D02*
X987700Y-696533D01*
X987700Y-708467D01*
X973200Y-708467D01*
X973200Y-696533D01*
G37*
G36*
X979167Y-702500D02*
X979167Y-717000D01*
X967233Y-717000D01*
X967233Y-702500D01*
X979167Y-702500D01*
G37*
G36*
X973200Y-708467D02*
X958700Y-708467D01*
X958700Y-696533D01*
X973200Y-696533D01*
X973200Y-708467D01*
G37*
G54D29*
G36*
X969233Y-872500D02*
X969233Y-858000D01*
X981167Y-858000D01*
X981167Y-872500D01*
X969233Y-872500D01*
G37*
G36*
X975200Y-866533D02*
X989700Y-866533D01*
X989700Y-878467D01*
X975200Y-878467D01*
X975200Y-866533D01*
G37*
G36*
X981167Y-872500D02*
X981167Y-887000D01*
X969233Y-887000D01*
X969233Y-872500D01*
X981167Y-872500D01*
G37*
G36*
X975200Y-878467D02*
X960700Y-878467D01*
X960700Y-866533D01*
X975200Y-866533D01*
X975200Y-878467D01*
G37*
G54D29*
G36*
X962233Y-1070500D02*
X962233Y-1056000D01*
X974167Y-1056000D01*
X974167Y-1070500D01*
X962233Y-1070500D01*
G37*
G36*
X968200Y-1064533D02*
X982700Y-1064533D01*
X982700Y-1076467D01*
X968200Y-1076467D01*
X968200Y-1064533D01*
G37*
G36*
X974167Y-1070500D02*
X974167Y-1085000D01*
X962233Y-1085000D01*
X962233Y-1070500D01*
X974167Y-1070500D01*
G37*
G36*
X968200Y-1076467D02*
X953700Y-1076467D01*
X953700Y-1064533D01*
X968200Y-1064533D01*
X968200Y-1076467D01*
G37*
X-257925Y86975D02*
G54D33*
D03*
X-232425Y86975D02*
G54D33*
D03*
X-67425Y86975D02*
G54D33*
D03*
X-41925Y86975D02*
G54D33*
D03*
X254700Y-1200D02*
G54D33*
D03*
X324550Y-1200D02*
G54D33*
D03*
X254700Y-71050D02*
G54D33*
D03*
X324550Y-71050D02*
G54D33*
D03*
X324550Y-39300D02*
G54D33*
D03*
X254700Y-39300D02*
G54D33*
D03*
X198591Y7571D02*
G54D33*
D03*
X147610Y7459D02*
G54D33*
D03*
X700Y-1200D02*
G54D33*
D03*
X70550Y-1200D02*
G54D33*
D03*
X700Y-71050D02*
G54D33*
D03*
X70550Y-71050D02*
G54D33*
D03*
X70550Y-39300D02*
G54D33*
D03*
X700Y-39300D02*
G54D33*
D03*
X137527Y-36527D02*
G54D33*
D03*
X137640Y-87508D02*
G54D33*
D03*
X201027Y-36527D02*
G54D33*
D03*
X201140Y-87508D02*
G54D33*
D03*
X-253300Y-90100D02*
G54D34*
D03*
X-253300Y11500D02*
G54D34*
D03*
X110375Y86975D02*
G54D33*
D03*
X135875Y86975D02*
G54D33*
D03*
X326275Y86975D02*
G54D33*
D03*
X351775Y86975D02*
G54D33*
D03*
X521467Y87083D02*
G54D33*
D03*
X546967Y87083D02*
G54D33*
D03*
X-447000Y-334600D02*
G54D35*
D03*
X-396200Y-334600D02*
G54D35*
D03*
X-421600Y-360000D02*
G54D35*
D03*
X-396200Y-385400D02*
G54D35*
D03*
X-447000Y-385400D02*
G54D35*
D03*
X-447000Y-702900D02*
G54D35*
D03*
X-396200Y-702900D02*
G54D35*
D03*
X-421600Y-728300D02*
G54D35*
D03*
X-396200Y-753700D02*
G54D35*
D03*
X-447000Y-753700D02*
G54D35*
D03*
X700Y-71050D02*
G54D36*
D03*
X70550Y-71050D02*
G54D36*
D03*
X137639Y-87508D02*
G54D36*
D03*
X201140Y-87508D02*
G54D36*
D03*
X254700Y-71050D02*
G54D36*
D03*
X324550Y-71050D02*
G54D36*
D03*
X-447000Y-334600D02*
G54D36*
D03*
X-396200Y-334600D02*
G54D36*
D03*
X-447000Y-385400D02*
G54D36*
D03*
X-396200Y-385400D02*
G54D36*
D03*
X-447000Y-702900D02*
G54D37*
D03*
X-396200Y-702900D02*
G54D36*
D03*
X-447000Y-753700D02*
G54D36*
D03*
X-396200Y-753700D02*
G54D36*
D03*
X-450150Y-280600D02*
G54D34*
D03*
X-450150Y-179000D02*
G54D34*
D03*
X-389523Y-201627D02*
G54D33*
D03*
X-389410Y-252608D02*
G54D33*
D03*
X-423025Y112375D02*
G54D33*
D03*
X-397525Y112375D02*
G54D33*
D03*
X-450150Y-280600D02*
G54D36*
D03*
G36*
X-248000Y165500D02*
X-228000Y165500D01*
X-228000Y145500D01*
X-248000Y145500D01*
X-248000Y165500D01*
G37*
G36*
X-73600Y160500D02*
X-53600Y160500D01*
X-53600Y140500D01*
X-73600Y140500D01*
X-73600Y160500D01*
G37*
G36*
X120300Y157500D02*
X140300Y157500D01*
X140300Y137500D01*
X120300Y137500D01*
X120300Y157500D01*
G37*
G36*
X320100Y160500D02*
X340100Y160500D01*
X340100Y140500D01*
X320100Y140500D01*
X320100Y160500D01*
G37*
G36*
X520200Y158500D02*
X540200Y158500D01*
X540200Y138500D01*
X520200Y138500D01*
X520200Y158500D01*
G37*
X694575Y86975D02*
G54D33*
D03*
X720075Y86975D02*
G54D33*
D03*
X-481900Y147900D02*
G54D38*
D03*
X800800Y147900D02*
G54D38*
D03*
X813500Y-1172900D02*
G54D38*
D03*
X-469200Y-1172900D02*
G54D38*
D03*
G36*
X-475100Y10400D02*
X-475100Y-9600D01*
X-495100Y-9600D01*
X-495100Y10400D01*
X-475100Y10400D01*
G37*
G36*
X-475100Y-878600D02*
X-475100Y-898600D01*
X-495100Y-898600D01*
X-495100Y-878600D01*
X-475100Y-878600D01*
G37*
X-62800Y-109150D02*
G54D35*
D03*
X-183450Y-105976D02*
G54D35*
D03*
X-62800Y11500D02*
G54D35*
D03*
X-183450Y11500D02*
G54D35*
D03*
X-202912Y-48825D02*
G54D35*
D03*
X-298874Y-22055D02*
G54D33*
D03*
X-298762Y-73035D02*
G54D33*
D03*
X-298762Y-73035D02*
G54D35*
D03*
X390294Y17238D02*
G54D35*
D03*
X510944Y14064D02*
G54D35*
D03*
X390294Y-103412D02*
G54D35*
D03*
X510944Y-103412D02*
G54D35*
D03*
X531582Y-43087D02*
G54D35*
D03*
X623000Y-90100D02*
G54D34*
D03*
X623000Y11500D02*
G54D34*
D03*
X585426Y-19055D02*
G54D33*
D03*
X585538Y-70035D02*
G54D33*
D03*
X585538Y-70035D02*
G54D35*
D03*
X254700Y-204400D02*
G54D33*
D03*
X324550Y-204400D02*
G54D33*
D03*
X254700Y-274250D02*
G54D33*
D03*
X324550Y-274250D02*
G54D33*
D03*
X324550Y-242500D02*
G54D33*
D03*
X254700Y-242500D02*
G54D33*
D03*
X198591Y-195629D02*
G54D33*
D03*
X147610Y-195741D02*
G54D33*
D03*
X700Y-204400D02*
G54D33*
D03*
X70550Y-204400D02*
G54D33*
D03*
X700Y-274250D02*
G54D33*
D03*
X70550Y-274250D02*
G54D33*
D03*
X70550Y-242500D02*
G54D33*
D03*
X700Y-242500D02*
G54D33*
D03*
X137527Y-239727D02*
G54D33*
D03*
X137640Y-290708D02*
G54D33*
D03*
X201027Y-239727D02*
G54D33*
D03*
X201140Y-290708D02*
G54D33*
D03*
X700Y-274250D02*
G54D36*
D03*
X70550Y-274250D02*
G54D36*
D03*
X137639Y-290708D02*
G54D36*
D03*
X201140Y-290708D02*
G54D36*
D03*
X254700Y-274250D02*
G54D36*
D03*
X324550Y-274250D02*
G54D36*
D03*
X-62800Y-312350D02*
G54D35*
D03*
X-183450Y-309176D02*
G54D35*
D03*
X-62800Y-191700D02*
G54D35*
D03*
X-183450Y-191700D02*
G54D35*
D03*
X-203412Y-252025D02*
G54D35*
D03*
X-297750Y-226750D02*
G54D33*
D03*
X-348730Y-226862D02*
G54D33*
D03*
X390294Y-185962D02*
G54D35*
D03*
X510944Y-189136D02*
G54D35*
D03*
X390294Y-306612D02*
G54D35*
D03*
X510944Y-306612D02*
G54D35*
D03*
X531582Y-246287D02*
G54D35*
D03*
X623000Y-293300D02*
G54D34*
D03*
X623000Y-191700D02*
G54D34*
D03*
X577426Y-225255D02*
G54D33*
D03*
X577538Y-276235D02*
G54D33*
D03*
X577538Y-276235D02*
G54D35*
D03*
X254700Y-407600D02*
G54D33*
D03*
X324550Y-407600D02*
G54D33*
D03*
X254700Y-477450D02*
G54D33*
D03*
X324550Y-477450D02*
G54D33*
D03*
X324550Y-445700D02*
G54D33*
D03*
X254700Y-445700D02*
G54D33*
D03*
X198591Y-398829D02*
G54D33*
D03*
X147610Y-398941D02*
G54D33*
D03*
X700Y-407600D02*
G54D33*
D03*
X70550Y-407600D02*
G54D33*
D03*
X700Y-477450D02*
G54D33*
D03*
X70550Y-477450D02*
G54D33*
D03*
X70550Y-445700D02*
G54D33*
D03*
X700Y-445700D02*
G54D33*
D03*
X137527Y-442927D02*
G54D33*
D03*
X137640Y-493908D02*
G54D33*
D03*
X201027Y-442927D02*
G54D33*
D03*
X201140Y-493908D02*
G54D33*
D03*
X-253300Y-496500D02*
G54D34*
D03*
X-253300Y-394900D02*
G54D34*
D03*
X700Y-477450D02*
G54D36*
D03*
X70550Y-477450D02*
G54D36*
D03*
X137639Y-493908D02*
G54D36*
D03*
X201140Y-493908D02*
G54D36*
D03*
X254700Y-477450D02*
G54D36*
D03*
X324550Y-477450D02*
G54D36*
D03*
X-62800Y-515550D02*
G54D35*
D03*
X-183450Y-512376D02*
G54D35*
D03*
X-62800Y-394900D02*
G54D35*
D03*
X-183450Y-394900D02*
G54D35*
D03*
X-203412Y-455225D02*
G54D35*
D03*
X-298874Y-428455D02*
G54D33*
D03*
X-298762Y-479435D02*
G54D33*
D03*
X-298762Y-479435D02*
G54D35*
D03*
X390294Y-389162D02*
G54D35*
D03*
X510944Y-392336D02*
G54D35*
D03*
X390294Y-509812D02*
G54D35*
D03*
X510944Y-509812D02*
G54D35*
D03*
X531582Y-449487D02*
G54D35*
D03*
X623000Y-496500D02*
G54D34*
D03*
X623000Y-394900D02*
G54D34*
D03*
X577426Y-428455D02*
G54D33*
D03*
X577538Y-479435D02*
G54D33*
D03*
X577538Y-479435D02*
G54D35*
D03*
X254700Y-610800D02*
G54D33*
D03*
X324550Y-610800D02*
G54D33*
D03*
X254700Y-680650D02*
G54D33*
D03*
X324550Y-680650D02*
G54D33*
D03*
X324550Y-648900D02*
G54D33*
D03*
X254700Y-648900D02*
G54D33*
D03*
X198591Y-602029D02*
G54D33*
D03*
X147610Y-602141D02*
G54D33*
D03*
X700Y-610800D02*
G54D33*
D03*
X70550Y-610800D02*
G54D33*
D03*
X700Y-680650D02*
G54D33*
D03*
X70550Y-680650D02*
G54D33*
D03*
X70550Y-648900D02*
G54D33*
D03*
X700Y-648900D02*
G54D33*
D03*
X137527Y-646127D02*
G54D33*
D03*
X137640Y-697108D02*
G54D33*
D03*
X201027Y-646127D02*
G54D33*
D03*
X201140Y-697108D02*
G54D33*
D03*
X-253300Y-699700D02*
G54D34*
D03*
X-253300Y-598100D02*
G54D34*
D03*
X700Y-680650D02*
G54D36*
D03*
X70550Y-680650D02*
G54D36*
D03*
X137639Y-697108D02*
G54D36*
D03*
X201140Y-697108D02*
G54D36*
D03*
X254700Y-680650D02*
G54D36*
D03*
X324550Y-680650D02*
G54D36*
D03*
X-62800Y-718750D02*
G54D37*
D03*
X-183450Y-715576D02*
G54D37*
D03*
X-62800Y-598100D02*
G54D37*
D03*
X-183450Y-598100D02*
G54D37*
D03*
X-203412Y-658425D02*
G54D37*
D03*
X-290874Y-628655D02*
G54D33*
D03*
X-290762Y-679635D02*
G54D33*
D03*
X-290762Y-679635D02*
G54D35*
D03*
X390294Y-592362D02*
G54D37*
D03*
X510944Y-595536D02*
G54D37*
D03*
X390294Y-713012D02*
G54D37*
D03*
X510944Y-713012D02*
G54D37*
D03*
X528406Y-652687D02*
G54D37*
D03*
X623000Y-699700D02*
G54D34*
D03*
X623000Y-598100D02*
G54D34*
D03*
X577426Y-631655D02*
G54D33*
D03*
X577538Y-682635D02*
G54D33*
D03*
X577538Y-682635D02*
G54D35*
D03*
X254700Y-814000D02*
G54D33*
D03*
X324550Y-814000D02*
G54D33*
D03*
X254700Y-883850D02*
G54D33*
D03*
X324550Y-883850D02*
G54D33*
D03*
X324550Y-852100D02*
G54D33*
D03*
X254700Y-852100D02*
G54D33*
D03*
X198591Y-805229D02*
G54D33*
D03*
X147610Y-805341D02*
G54D33*
D03*
X700Y-814000D02*
G54D33*
D03*
X70550Y-814000D02*
G54D33*
D03*
X700Y-883850D02*
G54D33*
D03*
X70550Y-883850D02*
G54D33*
D03*
X70550Y-852100D02*
G54D33*
D03*
X700Y-852100D02*
G54D33*
D03*
X137527Y-849327D02*
G54D33*
D03*
X137640Y-900308D02*
G54D33*
D03*
X201027Y-849327D02*
G54D33*
D03*
X201140Y-900308D02*
G54D33*
D03*
X-253300Y-902900D02*
G54D34*
D03*
X-253300Y-801300D02*
G54D34*
D03*
X700Y-883850D02*
G54D36*
D03*
X70550Y-883850D02*
G54D36*
D03*
X137639Y-900308D02*
G54D36*
D03*
X201140Y-900308D02*
G54D36*
D03*
X254700Y-883850D02*
G54D36*
D03*
X324550Y-883850D02*
G54D36*
D03*
X-62800Y-921950D02*
G54D35*
D03*
X-183450Y-918776D02*
G54D35*
D03*
X-62800Y-801300D02*
G54D35*
D03*
X-183450Y-801300D02*
G54D35*
D03*
X-203412Y-861625D02*
G54D35*
D03*
X-298874Y-834854D02*
G54D33*
D03*
X-298762Y-885835D02*
G54D33*
D03*
X-298762Y-885835D02*
G54D35*
D03*
X390294Y-795562D02*
G54D35*
D03*
X510944Y-798736D02*
G54D35*
D03*
X390294Y-916212D02*
G54D35*
D03*
X510944Y-916212D02*
G54D35*
D03*
X528406Y-855887D02*
G54D35*
D03*
X623000Y-902900D02*
G54D34*
D03*
X623000Y-801300D02*
G54D34*
D03*
X577426Y-834854D02*
G54D33*
D03*
X577538Y-885835D02*
G54D33*
D03*
X577538Y-885835D02*
G54D35*
D03*
X254700Y-1017200D02*
G54D33*
D03*
X324550Y-1017200D02*
G54D33*
D03*
X254700Y-1087050D02*
G54D33*
D03*
X324550Y-1087050D02*
G54D33*
D03*
X324550Y-1055300D02*
G54D33*
D03*
X254700Y-1055300D02*
G54D33*
D03*
X198591Y-1008429D02*
G54D33*
D03*
X147610Y-1008541D02*
G54D33*
D03*
X700Y-1017200D02*
G54D33*
D03*
X70550Y-1017200D02*
G54D33*
D03*
X700Y-1087050D02*
G54D33*
D03*
X70550Y-1087050D02*
G54D33*
D03*
X70550Y-1055300D02*
G54D33*
D03*
X700Y-1055300D02*
G54D33*
D03*
X137527Y-1052527D02*
G54D33*
D03*
X137640Y-1103508D02*
G54D33*
D03*
X201027Y-1052527D02*
G54D33*
D03*
X201140Y-1103508D02*
G54D33*
D03*
X-253300Y-1106100D02*
G54D34*
D03*
X-253300Y-1004500D02*
G54D34*
D03*
X700Y-1087050D02*
G54D36*
D03*
X70550Y-1087050D02*
G54D36*
D03*
X137639Y-1103508D02*
G54D36*
D03*
X201140Y-1103508D02*
G54D36*
D03*
X254700Y-1087050D02*
G54D36*
D03*
X324550Y-1087050D02*
G54D36*
D03*
X-62800Y-1125150D02*
G54D35*
D03*
X-183450Y-1121976D02*
G54D35*
D03*
X-62800Y-1004500D02*
G54D35*
D03*
X-183450Y-1004500D02*
G54D35*
D03*
X-203412Y-1064825D02*
G54D35*
D03*
X-298874Y-1038054D02*
G54D33*
D03*
X-298762Y-1089035D02*
G54D33*
D03*
X-298762Y-1089035D02*
G54D35*
D03*
X390294Y-998762D02*
G54D35*
D03*
X510944Y-1001936D02*
G54D35*
D03*
X390294Y-1119412D02*
G54D35*
D03*
X510944Y-1119412D02*
G54D35*
D03*
X528406Y-1059087D02*
G54D35*
D03*
X623000Y-1106100D02*
G54D34*
D03*
X623000Y-1004500D02*
G54D34*
D03*
X577426Y-1038054D02*
G54D33*
D03*
X577538Y-1089035D02*
G54D33*
D03*
X577538Y-1089035D02*
G54D35*
D03*
X-253300Y-496500D02*
G54D35*
D03*
X-253300Y-699700D02*
G54D35*
D03*
X-253300Y-902900D02*
G54D35*
D03*
X623000Y-1106100D02*
G54D35*
D03*
X623000Y-902900D02*
G54D35*
D03*
X623000Y-699700D02*
G54D35*
D03*
X623000Y-496500D02*
G54D35*
D03*
X623000Y-293300D02*
G54D35*
D03*
X623000Y-90100D02*
G54D35*
D03*
X-483647Y-597409D02*
G54D35*
D03*
X-480473Y-476759D02*
G54D35*
D03*
X-362997Y-597409D02*
G54D35*
D03*
X-362997Y-476759D02*
G54D35*
D03*
X-423322Y-456646D02*
G54D35*
D03*
X-183450Y-105976D02*
G54D39*
D03*
X510944Y-103412D02*
G54D40*
D03*
X-183450Y-309176D02*
G54D40*
D03*
X510944Y-306612D02*
G54D35*
D03*
X-183450Y-512376D02*
G54D40*
D03*
X510944Y-509812D02*
G54D35*
D03*
X-183450Y-715576D02*
G54D35*
D03*
X510944Y-713012D02*
G54D35*
D03*
X-183450Y-918776D02*
G54D40*
D03*
X510944Y-916212D02*
G54D40*
D03*
X-183450Y-1121976D02*
G54D41*
D03*
X510944Y-1119412D02*
G54D35*
D03*
X-480473Y-476759D02*
G54D35*
D03*
G54D42*
X-362997Y-476759D02*
X-361250Y-474400D01*
X-367600Y-468050D01*
X-367600Y-245800D01*
X-386650Y-226750D01*
X-386650Y-201350D01*
X-389523Y-201627D01*
G54D42*
X-397525Y112375D02*
X-399350Y109800D01*
X-450150Y59000D01*
X-450150Y-175950D01*
X-450150Y-179000D01*
G54D42*
X-389523Y-201627D02*
X-386650Y-201350D01*
X-412050Y-175950D01*
X-450150Y-175950D01*
X-450150Y-179000D01*
G54D43*
X-253300Y-191700D02*
X-253300Y-188650D01*
X-189800Y-125150D01*
X-151700Y-125150D01*
X-100900Y-74350D01*
X-100900Y27250D01*
X-43750Y84400D01*
X-41925Y86975D01*
G54D43*
X623000Y-191700D02*
X623000Y-188650D01*
X546800Y-112450D01*
X546800Y-87050D01*
X527750Y-68000D01*
X489650Y-68000D01*
X426150Y-4500D01*
X426150Y33600D01*
X388050Y71700D01*
X95950Y71700D01*
X83250Y84400D01*
X-43750Y84400D01*
X-41925Y86975D01*
G54D43*
X-253300Y-394900D02*
X-253300Y-391850D01*
X-234250Y-372800D01*
X-234250Y-283900D01*
X-272350Y-245800D01*
X-272350Y-182300D01*
X-221550Y-131500D01*
X-221550Y-87050D01*
X-202500Y-68000D01*
X-164400Y-68000D01*
X-113600Y-17200D01*
X-113600Y33600D01*
X-88200Y59000D01*
X-88200Y90750D01*
X-75500Y103450D01*
X121350Y103450D01*
X134050Y90750D01*
X134050Y84400D01*
X135875Y86975D01*
G54D43*
X623000Y-394900D02*
X623000Y-391850D01*
X642050Y-372800D01*
X642050Y-182300D01*
X559500Y-99750D01*
X559500Y-29900D01*
X540450Y-10850D01*
X483300Y-10850D01*
X438850Y33600D01*
X438850Y39950D01*
X375350Y103450D01*
X318200Y103450D01*
X299150Y84400D01*
X134050Y84400D01*
X135875Y86975D01*
G54D43*
X623000Y-801300D02*
X623000Y-798250D01*
X654750Y-766500D01*
X654750Y-175950D01*
X642050Y-163250D01*
X642050Y20900D01*
X578550Y84400D01*
X546800Y84400D01*
X546967Y87083D01*
G54D43*
X-253300Y-801300D02*
X-253300Y-798250D01*
X-316800Y-734750D01*
X-322056Y-478412D01*
X-316800Y-214050D01*
X-285050Y-182300D01*
X-285050Y-175950D01*
X-234250Y-125150D01*
X-234250Y-80700D01*
X-227900Y-74350D01*
X-227900Y-29900D01*
X-208850Y-10850D01*
X-151700Y-10850D01*
X-126300Y14550D01*
X-126300Y39950D01*
X-100900Y65350D01*
X-100900Y97100D01*
X-81850Y116150D01*
X381700Y116150D01*
X426150Y71700D01*
X534100Y71700D01*
X546800Y84400D01*
X546967Y87083D01*
G54D43*
X-183450Y-1004500D02*
X-183450Y-1001450D01*
X-100900Y-918900D01*
X-100900Y-906200D01*
X-24700Y-830000D01*
X337250Y-830000D01*
X343600Y-823650D01*
X540450Y-823650D01*
X546800Y-817300D01*
X635700Y-817300D01*
X673800Y-779200D01*
X673800Y-468050D01*
X718250Y-423600D01*
X718250Y84400D01*
X720075Y86975D01*
G54D43*
X623000Y-1004500D02*
X623000Y-1001450D01*
X673800Y-950650D01*
X673800Y-468050D01*
X718250Y-423600D01*
X718250Y84400D01*
X720075Y86975D01*
G54D43*
X-362997Y-597409D02*
X-361250Y-595050D01*
X-399350Y-556950D01*
X-399350Y-436300D01*
X-424750Y-410900D01*
X-424750Y-360100D01*
X-421600Y-360000D01*
G36*
X-190300Y-1183400D02*
X-170300Y-1183400D01*
X-170300Y-1203400D01*
X-190300Y-1203400D01*
X-190300Y-1183400D01*
G37*
G36*
X-37900Y-1183400D02*
X-17900Y-1183400D01*
X-17900Y-1203400D01*
X-37900Y-1203400D01*
X-37900Y-1183400D01*
G37*
G36*
X178000Y-1183400D02*
X198000Y-1183400D01*
X198000Y-1203400D01*
X178000Y-1203400D01*
X178000Y-1183400D01*
G37*
G36*
X355800Y-1183400D02*
X375800Y-1183400D01*
X375800Y-1203400D01*
X355800Y-1203400D01*
X355800Y-1183400D01*
G37*
G36*
X520900Y-1183400D02*
X540900Y-1183400D01*
X540900Y-1203400D01*
X520900Y-1203400D01*
X520900Y-1183400D01*
G37*
X-253300Y-90100D02*
G54D35*
D03*
X-348730Y-226862D02*
G54D35*
D03*
X-298762Y-73035D02*
G54D35*
D03*
X-253300Y-90100D02*
G54D35*
D03*
X-389410Y-252608D02*
G54D35*
D03*
X-253300Y-1106100D02*
G54D35*
D03*
X623000Y-1106100D02*
G54D35*
D03*
X577538Y-1089035D02*
G54D35*
D03*
G54D43*
X-183450Y-512376D02*
X-183450Y-512500D01*
X-145350Y-474400D01*
X700Y-474400D01*
X700Y-477450D01*
G54D43*
X-183450Y-309176D02*
X-183450Y-309300D01*
X-164400Y-290250D01*
X140400Y-290250D01*
X137639Y-290708D01*
X-361250Y-188650D02*
G54D34*
D03*
X-259650Y-188650D02*
G54D34*
D03*
X-361250Y-188650D02*
G54D35*
D03*
G54D43*
X623000Y-699700D02*
X623000Y-696650D01*
X203900Y-696650D01*
X201140Y-697108D01*
G54D44*
X510944Y-595536D02*
X510944Y-598712D01*
X485544Y-573312D01*
X-73256Y-573312D01*
X-98656Y-598712D01*
X-187556Y-598712D01*
X-183450Y-598100D01*
X750000Y-26600D02*
G54D45*
D03*
X851600Y-26600D02*
G54D35*
D03*
X851600Y-26600D02*
G54D45*
D03*
X750000Y-26600D02*
G54D45*
D03*
X750000Y-128200D02*
G54D35*
D03*
X750000Y-128200D02*
G54D45*
D03*
X851600Y-26600D02*
G54D45*
D03*
X851600Y-128200D02*
G54D35*
D03*
X851600Y-128200D02*
G54D45*
D03*
X746825Y-248850D02*
G54D45*
D03*
X848425Y-248850D02*
G54D35*
D03*
X848425Y-248850D02*
G54D45*
D03*
X746825Y-248850D02*
G54D45*
D03*
X746825Y-350450D02*
G54D35*
D03*
X746825Y-350450D02*
G54D45*
D03*
X848425Y-248850D02*
G54D45*
D03*
X848425Y-350450D02*
G54D35*
D03*
X848425Y-350450D02*
G54D45*
D03*
X746825Y-445700D02*
G54D45*
D03*
X848425Y-445700D02*
G54D35*
D03*
X848425Y-445700D02*
G54D45*
D03*
X746825Y-445700D02*
G54D45*
D03*
X746825Y-547300D02*
G54D35*
D03*
X746825Y-547300D02*
G54D45*
D03*
X848425Y-445700D02*
G54D45*
D03*
X848425Y-547300D02*
G54D35*
D03*
X848425Y-547300D02*
G54D45*
D03*
X746825Y-648900D02*
G54D45*
D03*
X848425Y-648900D02*
G54D35*
D03*
X848425Y-648900D02*
G54D45*
D03*
X746825Y-648900D02*
G54D45*
D03*
X746825Y-750500D02*
G54D35*
D03*
X746825Y-750500D02*
G54D45*
D03*
X848425Y-648900D02*
G54D45*
D03*
X848425Y-750500D02*
G54D35*
D03*
X848425Y-750500D02*
G54D45*
D03*
X746825Y-833050D02*
G54D45*
D03*
X848425Y-833050D02*
G54D35*
D03*
X848425Y-833050D02*
G54D45*
D03*
X746825Y-833050D02*
G54D45*
D03*
X746825Y-934650D02*
G54D35*
D03*
X746825Y-934650D02*
G54D45*
D03*
X848425Y-833050D02*
G54D45*
D03*
X848425Y-934650D02*
G54D35*
D03*
X848425Y-934650D02*
G54D45*
D03*
X746825Y-1017200D02*
G54D45*
D03*
X848425Y-1017200D02*
G54D35*
D03*
X848425Y-1017200D02*
G54D45*
D03*
X746825Y-1017200D02*
G54D45*
D03*
X746825Y-1118800D02*
G54D35*
D03*
X746825Y-1118800D02*
G54D45*
D03*
X848425Y-1017200D02*
G54D45*
D03*
X848425Y-1118800D02*
G54D35*
D03*
X848425Y-1118800D02*
G54D45*
D03*
X750000Y-128200D02*
G54D45*
D03*
X851600Y-128200D02*
G54D45*
D03*
X746825Y-350450D02*
G54D45*
D03*
X848425Y-350450D02*
G54D45*
D03*
X746825Y-547300D02*
G54D45*
D03*
X848425Y-547300D02*
G54D45*
D03*
X746825Y-750500D02*
G54D45*
D03*
X848425Y-750500D02*
G54D45*
D03*
X746825Y-934650D02*
G54D45*
D03*
X848425Y-934650D02*
G54D45*
D03*
X746825Y-1118800D02*
G54D45*
D03*
X848425Y-1118800D02*
G54D45*
D03*
G54D46*
X848425Y-248850D02*
X851600Y-242500D01*
X902400Y-293300D01*
X902400Y-560000D01*
X908750Y-576000D01*
X937300Y-531450D02*
G54D35*
D03*
X988100Y-531450D02*
G54D35*
D03*
X962700Y-556850D02*
G54D35*
D03*
X988100Y-582250D02*
G54D35*
D03*
X937300Y-582250D02*
G54D35*
D03*
X937300Y-531450D02*
G54D37*
D03*
X937300Y-582250D02*
G54D36*
D03*
X902400Y-534600D02*
G54D35*
D03*
G54D46*
X902400Y-534600D02*
X908750Y-534600D01*
X934150Y-560000D01*
X959550Y-560000D01*
X962700Y-556850D01*
G36*
X700200Y160500D02*
X720200Y160500D01*
X720200Y140500D01*
X700200Y140500D01*
X700200Y160500D01*
G37*
G36*
X966200Y57500D02*
X986200Y57500D01*
X986200Y37500D01*
X966200Y37500D01*
X966200Y57500D01*
G37*
G36*
X965200Y-182500D02*
X985200Y-182500D01*
X985200Y-202500D01*
X965200Y-202500D01*
X965200Y-182500D01*
G37*
G36*
X960200Y-389500D02*
X980200Y-389500D01*
X980200Y-409500D01*
X960200Y-409500D01*
X960200Y-389500D01*
G37*
G36*
X963200Y-692500D02*
X983200Y-692500D01*
X983200Y-712500D01*
X963200Y-712500D01*
X963200Y-692500D01*
G37*
G36*
X965200Y-862500D02*
X985200Y-862500D01*
X985200Y-882500D01*
X965200Y-882500D01*
X965200Y-862500D01*
G37*
G36*
X958200Y-1060500D02*
X978200Y-1060500D01*
X978200Y-1080500D01*
X958200Y-1080500D01*
X958200Y-1060500D01*
G37*
M02*
