%FSLAX34Y34*%
%MOMM*%
%LNSOLDERMASK_BOTTOM*%
G71*
G01*
%ADD10C,2.600*%
%ADD11C,2.500*%
%ADD12C,2.800*%
%ADD13C,2.600*%
%ADD14C,2.600*%
%ADD15C,4.900*%
%ADD16C,2.800*%
%ADD17C,2.800*%
%ADD18C,3.400*%
%ADD19C,3.600*%
%LPD*%
X-768869Y190387D02*
G54D10*
D03*
X-743369Y190387D02*
G54D10*
D03*
X-578369Y190387D02*
G54D10*
D03*
X-552869Y190387D02*
G54D10*
D03*
X-256244Y102212D02*
G54D10*
D03*
X-186394Y102212D02*
G54D10*
D03*
X-256244Y32362D02*
G54D10*
D03*
X-186394Y32362D02*
G54D10*
D03*
X-186394Y64112D02*
G54D10*
D03*
X-256244Y64112D02*
G54D10*
D03*
X-312353Y110983D02*
G54D10*
D03*
X-363334Y110871D02*
G54D10*
D03*
X-510244Y102212D02*
G54D10*
D03*
X-440394Y102212D02*
G54D10*
D03*
X-510244Y32362D02*
G54D10*
D03*
X-440394Y32362D02*
G54D10*
D03*
X-440394Y64112D02*
G54D10*
D03*
X-510244Y64112D02*
G54D10*
D03*
X-373417Y66885D02*
G54D10*
D03*
X-373304Y15904D02*
G54D10*
D03*
X-309917Y66885D02*
G54D10*
D03*
X-309804Y15904D02*
G54D10*
D03*
X-764244Y13312D02*
G54D11*
D03*
X-764244Y114912D02*
G54D11*
D03*
X-400569Y190387D02*
G54D10*
D03*
X-375069Y190387D02*
G54D10*
D03*
X-184669Y190387D02*
G54D10*
D03*
X-159169Y190387D02*
G54D10*
D03*
X10523Y190495D02*
G54D10*
D03*
X36023Y190495D02*
G54D10*
D03*
X-957944Y-231188D02*
G54D12*
D03*
X-907144Y-231188D02*
G54D12*
D03*
X-932544Y-256588D02*
G54D12*
D03*
X-907144Y-281988D02*
G54D12*
D03*
X-957944Y-281988D02*
G54D12*
D03*
X-957944Y-599488D02*
G54D12*
D03*
X-907144Y-599488D02*
G54D12*
D03*
X-932544Y-624888D02*
G54D12*
D03*
X-907144Y-650288D02*
G54D12*
D03*
X-957944Y-650288D02*
G54D12*
D03*
X-510244Y32362D02*
G54D13*
D03*
X-440394Y32362D02*
G54D13*
D03*
X-373305Y15904D02*
G54D13*
D03*
X-309804Y15904D02*
G54D13*
D03*
X-256244Y32362D02*
G54D13*
D03*
X-186394Y32362D02*
G54D13*
D03*
X-957944Y-231188D02*
G54D13*
D03*
X-907144Y-231188D02*
G54D13*
D03*
X-957944Y-281988D02*
G54D13*
D03*
X-907144Y-281988D02*
G54D13*
D03*
X-957944Y-599488D02*
G54D14*
D03*
X-907144Y-599488D02*
G54D13*
D03*
X-957944Y-650288D02*
G54D13*
D03*
X-907144Y-650288D02*
G54D13*
D03*
X-961094Y-177188D02*
G54D11*
D03*
X-961094Y-75588D02*
G54D11*
D03*
X-900467Y-98215D02*
G54D10*
D03*
X-900354Y-149196D02*
G54D10*
D03*
X-933969Y215787D02*
G54D10*
D03*
X-908469Y215787D02*
G54D10*
D03*
X-961094Y-177188D02*
G54D13*
D03*
G36*
X-716944Y281912D02*
X-690944Y281912D01*
X-690944Y255912D01*
X-716944Y255912D01*
X-716944Y281912D01*
G37*
G36*
X-564544Y281912D02*
X-538544Y281912D01*
X-538544Y255912D01*
X-564544Y255912D01*
X-564544Y281912D01*
G37*
G36*
X-348644Y281912D02*
X-322644Y281912D01*
X-322644Y255912D01*
X-348644Y255912D01*
X-348644Y281912D01*
G37*
G36*
X-170844Y281912D02*
X-144844Y281912D01*
X-144844Y255912D01*
X-170844Y255912D01*
X-170844Y281912D01*
G37*
G36*
X-5744Y281912D02*
X20256Y281912D01*
X20256Y255912D01*
X-5744Y255912D01*
X-5744Y281912D01*
G37*
X183631Y190387D02*
G54D10*
D03*
X209131Y190387D02*
G54D10*
D03*
X-992844Y251312D02*
G54D15*
D03*
X289856Y251312D02*
G54D15*
D03*
X302556Y-1069488D02*
G54D15*
D03*
X-980144Y-1069488D02*
G54D15*
D03*
G36*
X-983044Y116812D02*
X-983044Y90812D01*
X-1009044Y90812D01*
X-1009044Y116812D01*
X-983044Y116812D01*
G37*
G36*
X-983044Y-772188D02*
X-983044Y-798188D01*
X-1009044Y-798188D01*
X-1009044Y-772188D01*
X-983044Y-772188D01*
G37*
X-573744Y-5738D02*
G54D12*
D03*
X-694394Y-2564D02*
G54D12*
D03*
X-573744Y114912D02*
G54D12*
D03*
X-694394Y114912D02*
G54D12*
D03*
X-711856Y54587D02*
G54D12*
D03*
X-809818Y81357D02*
G54D10*
D03*
X-809706Y30377D02*
G54D10*
D03*
X-809706Y30377D02*
G54D12*
D03*
X-120650Y120650D02*
G54D12*
D03*
X0Y117476D02*
G54D12*
D03*
X-120650Y0D02*
G54D12*
D03*
X0Y0D02*
G54D12*
D03*
X20638Y60325D02*
G54D12*
D03*
X112056Y13312D02*
G54D11*
D03*
X112056Y114912D02*
G54D11*
D03*
X66482Y81357D02*
G54D10*
D03*
X66594Y30377D02*
G54D10*
D03*
X66594Y30377D02*
G54D12*
D03*
X-256244Y-100988D02*
G54D10*
D03*
X-186394Y-100988D02*
G54D10*
D03*
X-256244Y-170838D02*
G54D10*
D03*
X-186394Y-170838D02*
G54D10*
D03*
X-186394Y-139088D02*
G54D10*
D03*
X-256244Y-139088D02*
G54D10*
D03*
X-312353Y-92217D02*
G54D10*
D03*
X-363334Y-92329D02*
G54D10*
D03*
X-510244Y-100988D02*
G54D10*
D03*
X-440394Y-100988D02*
G54D10*
D03*
X-510244Y-170838D02*
G54D10*
D03*
X-440394Y-170838D02*
G54D10*
D03*
X-440394Y-139088D02*
G54D10*
D03*
X-510244Y-139088D02*
G54D10*
D03*
X-373417Y-136315D02*
G54D10*
D03*
X-373304Y-187296D02*
G54D10*
D03*
X-309917Y-136315D02*
G54D10*
D03*
X-309804Y-187296D02*
G54D10*
D03*
X-510244Y-170838D02*
G54D13*
D03*
X-440394Y-170838D02*
G54D13*
D03*
X-373305Y-187296D02*
G54D13*
D03*
X-309804Y-187296D02*
G54D13*
D03*
X-256244Y-170838D02*
G54D13*
D03*
X-186394Y-170838D02*
G54D13*
D03*
X-573744Y-208938D02*
G54D12*
D03*
X-694394Y-205764D02*
G54D12*
D03*
X-573744Y-88288D02*
G54D12*
D03*
X-694394Y-88288D02*
G54D12*
D03*
X-711856Y-148613D02*
G54D12*
D03*
X-808694Y-123338D02*
G54D10*
D03*
X-859674Y-123450D02*
G54D10*
D03*
X-120650Y-82550D02*
G54D12*
D03*
X0Y-85724D02*
G54D12*
D03*
X-120650Y-203200D02*
G54D12*
D03*
X0Y-203200D02*
G54D12*
D03*
X20638Y-142875D02*
G54D12*
D03*
X112056Y-189888D02*
G54D11*
D03*
X112056Y-88288D02*
G54D11*
D03*
X66482Y-121843D02*
G54D10*
D03*
X66594Y-172823D02*
G54D10*
D03*
X66594Y-172823D02*
G54D12*
D03*
X-256244Y-304188D02*
G54D10*
D03*
X-186394Y-304188D02*
G54D10*
D03*
X-256244Y-374038D02*
G54D10*
D03*
X-186394Y-374038D02*
G54D10*
D03*
X-186394Y-342288D02*
G54D10*
D03*
X-256244Y-342288D02*
G54D10*
D03*
X-312353Y-295417D02*
G54D10*
D03*
X-363334Y-295529D02*
G54D10*
D03*
X-510244Y-304188D02*
G54D10*
D03*
X-440394Y-304188D02*
G54D10*
D03*
X-510244Y-374038D02*
G54D10*
D03*
X-440394Y-374038D02*
G54D10*
D03*
X-440394Y-342288D02*
G54D10*
D03*
X-510244Y-342288D02*
G54D10*
D03*
X-373417Y-339515D02*
G54D10*
D03*
X-373304Y-390496D02*
G54D10*
D03*
X-309917Y-339515D02*
G54D10*
D03*
X-309804Y-390496D02*
G54D10*
D03*
X-764244Y-393088D02*
G54D11*
D03*
X-764244Y-291488D02*
G54D11*
D03*
X-510244Y-374038D02*
G54D13*
D03*
X-440394Y-374038D02*
G54D13*
D03*
X-373305Y-390496D02*
G54D13*
D03*
X-309804Y-390496D02*
G54D13*
D03*
X-256244Y-374038D02*
G54D13*
D03*
X-186394Y-374038D02*
G54D13*
D03*
X-573744Y-412138D02*
G54D12*
D03*
X-694394Y-408964D02*
G54D12*
D03*
X-573744Y-291488D02*
G54D12*
D03*
X-694394Y-291488D02*
G54D12*
D03*
X-711856Y-351813D02*
G54D12*
D03*
X-809818Y-325043D02*
G54D10*
D03*
X-809706Y-376023D02*
G54D10*
D03*
X-809706Y-376023D02*
G54D12*
D03*
X-120650Y-285750D02*
G54D12*
D03*
X0Y-288924D02*
G54D12*
D03*
X-120650Y-406400D02*
G54D12*
D03*
X0Y-406400D02*
G54D12*
D03*
X20638Y-346075D02*
G54D12*
D03*
X112056Y-393088D02*
G54D11*
D03*
X112056Y-291488D02*
G54D11*
D03*
X66482Y-325043D02*
G54D10*
D03*
X66594Y-376023D02*
G54D10*
D03*
X66594Y-376023D02*
G54D12*
D03*
X-256244Y-507388D02*
G54D10*
D03*
X-186394Y-507388D02*
G54D10*
D03*
X-256244Y-577238D02*
G54D10*
D03*
X-186394Y-577238D02*
G54D10*
D03*
X-186394Y-545488D02*
G54D10*
D03*
X-256244Y-545488D02*
G54D10*
D03*
X-312353Y-498617D02*
G54D10*
D03*
X-363334Y-498729D02*
G54D10*
D03*
X-510244Y-507388D02*
G54D10*
D03*
X-440394Y-507388D02*
G54D10*
D03*
X-510244Y-577238D02*
G54D10*
D03*
X-440394Y-577238D02*
G54D10*
D03*
X-440394Y-545488D02*
G54D10*
D03*
X-510244Y-545488D02*
G54D10*
D03*
X-373417Y-542715D02*
G54D10*
D03*
X-373304Y-593696D02*
G54D10*
D03*
X-309917Y-542715D02*
G54D10*
D03*
X-309804Y-593696D02*
G54D10*
D03*
X-764244Y-596288D02*
G54D11*
D03*
X-764244Y-494688D02*
G54D11*
D03*
X-510244Y-577238D02*
G54D13*
D03*
X-440394Y-577238D02*
G54D13*
D03*
X-373305Y-593696D02*
G54D13*
D03*
X-309804Y-593696D02*
G54D13*
D03*
X-256244Y-577238D02*
G54D13*
D03*
X-186394Y-577238D02*
G54D13*
D03*
X-573744Y-615338D02*
G54D14*
D03*
X-694394Y-612164D02*
G54D14*
D03*
X-573744Y-494688D02*
G54D14*
D03*
X-694394Y-494688D02*
G54D14*
D03*
X-711856Y-555013D02*
G54D14*
D03*
X-809818Y-528243D02*
G54D10*
D03*
X-809706Y-579223D02*
G54D10*
D03*
X-809706Y-579223D02*
G54D12*
D03*
X-120650Y-488950D02*
G54D14*
D03*
X0Y-492124D02*
G54D14*
D03*
X-120650Y-609600D02*
G54D14*
D03*
X0Y-609600D02*
G54D14*
D03*
X17462Y-549275D02*
G54D14*
D03*
X112056Y-596288D02*
G54D11*
D03*
X112056Y-494688D02*
G54D11*
D03*
X66482Y-528243D02*
G54D10*
D03*
X66594Y-579223D02*
G54D10*
D03*
X66594Y-579223D02*
G54D12*
D03*
X-256244Y-710588D02*
G54D10*
D03*
X-186394Y-710588D02*
G54D10*
D03*
X-256244Y-780438D02*
G54D10*
D03*
X-186394Y-780438D02*
G54D10*
D03*
X-186394Y-748688D02*
G54D10*
D03*
X-256244Y-748688D02*
G54D10*
D03*
X-312353Y-701817D02*
G54D10*
D03*
X-363334Y-701929D02*
G54D10*
D03*
X-510244Y-710588D02*
G54D10*
D03*
X-440394Y-710588D02*
G54D10*
D03*
X-510244Y-780438D02*
G54D10*
D03*
X-440394Y-780438D02*
G54D10*
D03*
X-440394Y-748688D02*
G54D10*
D03*
X-510244Y-748688D02*
G54D10*
D03*
X-373417Y-745915D02*
G54D10*
D03*
X-373304Y-796896D02*
G54D10*
D03*
X-309917Y-745915D02*
G54D10*
D03*
X-309804Y-796896D02*
G54D10*
D03*
X-764244Y-799488D02*
G54D11*
D03*
X-764244Y-697888D02*
G54D11*
D03*
X-510244Y-780438D02*
G54D13*
D03*
X-440394Y-780438D02*
G54D13*
D03*
X-373305Y-796896D02*
G54D13*
D03*
X-309804Y-796896D02*
G54D13*
D03*
X-256244Y-780438D02*
G54D13*
D03*
X-186394Y-780438D02*
G54D13*
D03*
X-573744Y-818538D02*
G54D12*
D03*
X-694394Y-815364D02*
G54D12*
D03*
X-573744Y-697888D02*
G54D12*
D03*
X-694394Y-697888D02*
G54D12*
D03*
X-711856Y-758213D02*
G54D12*
D03*
X-809818Y-731442D02*
G54D10*
D03*
X-809706Y-782423D02*
G54D10*
D03*
X-809706Y-782423D02*
G54D12*
D03*
X-120650Y-692150D02*
G54D12*
D03*
X0Y-695324D02*
G54D12*
D03*
X-120650Y-812800D02*
G54D12*
D03*
X0Y-812800D02*
G54D12*
D03*
X17462Y-752475D02*
G54D12*
D03*
X112056Y-799488D02*
G54D11*
D03*
X112056Y-697888D02*
G54D11*
D03*
X66482Y-731442D02*
G54D10*
D03*
X66594Y-782423D02*
G54D10*
D03*
X66594Y-782423D02*
G54D12*
D03*
X-256244Y-913788D02*
G54D10*
D03*
X-186394Y-913788D02*
G54D10*
D03*
X-256244Y-983638D02*
G54D10*
D03*
X-186394Y-983638D02*
G54D10*
D03*
X-186394Y-951888D02*
G54D10*
D03*
X-256244Y-951888D02*
G54D10*
D03*
X-312353Y-905017D02*
G54D10*
D03*
X-363334Y-905129D02*
G54D10*
D03*
X-510244Y-913788D02*
G54D10*
D03*
X-440394Y-913788D02*
G54D10*
D03*
X-510244Y-983638D02*
G54D10*
D03*
X-440394Y-983638D02*
G54D10*
D03*
X-440394Y-951888D02*
G54D10*
D03*
X-510244Y-951888D02*
G54D10*
D03*
X-373417Y-949115D02*
G54D10*
D03*
X-373304Y-1000096D02*
G54D10*
D03*
X-309917Y-949115D02*
G54D10*
D03*
X-309804Y-1000096D02*
G54D10*
D03*
X-764244Y-1002688D02*
G54D11*
D03*
X-764244Y-901088D02*
G54D11*
D03*
X-510244Y-983638D02*
G54D13*
D03*
X-440394Y-983638D02*
G54D13*
D03*
X-373305Y-1000096D02*
G54D13*
D03*
X-309804Y-1000096D02*
G54D13*
D03*
X-256244Y-983638D02*
G54D13*
D03*
X-186394Y-983638D02*
G54D13*
D03*
X-573744Y-1021738D02*
G54D12*
D03*
X-694394Y-1018564D02*
G54D12*
D03*
X-573744Y-901088D02*
G54D12*
D03*
X-694394Y-901088D02*
G54D12*
D03*
X-711856Y-961413D02*
G54D12*
D03*
X-809818Y-934642D02*
G54D10*
D03*
X-809706Y-985623D02*
G54D10*
D03*
X-809706Y-985623D02*
G54D12*
D03*
X-120650Y-895350D02*
G54D12*
D03*
X0Y-898524D02*
G54D12*
D03*
X-120650Y-1016000D02*
G54D12*
D03*
X0Y-1016000D02*
G54D12*
D03*
X17462Y-955675D02*
G54D12*
D03*
X112056Y-1002688D02*
G54D11*
D03*
X112056Y-901088D02*
G54D11*
D03*
X66482Y-934642D02*
G54D10*
D03*
X66594Y-985623D02*
G54D10*
D03*
X66594Y-985623D02*
G54D12*
D03*
X-764244Y-393088D02*
G54D12*
D03*
X-764244Y-596288D02*
G54D12*
D03*
X-764244Y-799488D02*
G54D12*
D03*
X112056Y-1002688D02*
G54D12*
D03*
X112056Y-799488D02*
G54D12*
D03*
X112056Y-596288D02*
G54D12*
D03*
X112056Y-393088D02*
G54D12*
D03*
X112056Y-189888D02*
G54D12*
D03*
X112056Y13312D02*
G54D12*
D03*
X-994591Y-493997D02*
G54D12*
D03*
X-991417Y-373347D02*
G54D12*
D03*
X-873941Y-493997D02*
G54D12*
D03*
X-873941Y-373347D02*
G54D12*
D03*
X-934266Y-362234D02*
G54D12*
D03*
X-694394Y-2564D02*
G54D16*
D03*
X0Y0D02*
G54D17*
D03*
X-694394Y-205764D02*
G54D17*
D03*
X0Y-203200D02*
G54D12*
D03*
X-694394Y-408964D02*
G54D17*
D03*
X0Y-406400D02*
G54D12*
D03*
X-694394Y-612164D02*
G54D12*
D03*
X0Y-609600D02*
G54D12*
D03*
X-694394Y-815364D02*
G54D17*
D03*
X0Y-812800D02*
G54D17*
D03*
X-694394Y-1018564D02*
G54D18*
D03*
X0Y-1016000D02*
G54D12*
D03*
X-991417Y-373347D02*
G54D12*
D03*
G36*
X-704244Y-1076988D02*
X-678244Y-1076988D01*
X-678244Y-1102988D01*
X-704244Y-1102988D01*
X-704244Y-1076988D01*
G37*
G36*
X-551844Y-1076988D02*
X-525844Y-1076988D01*
X-525844Y-1102988D01*
X-551844Y-1102988D01*
X-551844Y-1076988D01*
G37*
G36*
X-335944Y-1076988D02*
X-309944Y-1076988D01*
X-309944Y-1102988D01*
X-335944Y-1102988D01*
X-335944Y-1076988D01*
G37*
G36*
X-158144Y-1076988D02*
X-132144Y-1076988D01*
X-132144Y-1102988D01*
X-158144Y-1102988D01*
X-158144Y-1076988D01*
G37*
G36*
X6956Y-1076988D02*
X32956Y-1076988D01*
X32956Y-1102988D01*
X6956Y-1102988D01*
X6956Y-1076988D01*
G37*
X-764244Y13312D02*
G54D12*
D03*
X-859674Y-123450D02*
G54D12*
D03*
X-809706Y30377D02*
G54D12*
D03*
X-764244Y13312D02*
G54D12*
D03*
X-900354Y-149196D02*
G54D12*
D03*
X-764244Y-1002688D02*
G54D12*
D03*
X112056Y-1002688D02*
G54D12*
D03*
X66594Y-985623D02*
G54D12*
D03*
X-872194Y-85238D02*
G54D11*
D03*
X-770594Y-85238D02*
G54D11*
D03*
X-872194Y-85238D02*
G54D12*
D03*
X239056Y76812D02*
G54D19*
D03*
X340656Y76812D02*
G54D12*
D03*
X340656Y76812D02*
G54D19*
D03*
X239056Y76812D02*
G54D19*
D03*
X239056Y-24788D02*
G54D12*
D03*
X239056Y-24788D02*
G54D19*
D03*
X340656Y76812D02*
G54D19*
D03*
X340656Y-24788D02*
G54D12*
D03*
X340656Y-24788D02*
G54D19*
D03*
X235881Y-145438D02*
G54D19*
D03*
X337481Y-145438D02*
G54D12*
D03*
X337481Y-145438D02*
G54D19*
D03*
X235881Y-145438D02*
G54D19*
D03*
X235881Y-247038D02*
G54D12*
D03*
X235881Y-247038D02*
G54D19*
D03*
X337481Y-145438D02*
G54D19*
D03*
X337481Y-247038D02*
G54D12*
D03*
X337481Y-247038D02*
G54D19*
D03*
X235881Y-342288D02*
G54D19*
D03*
X337481Y-342288D02*
G54D12*
D03*
X337481Y-342288D02*
G54D19*
D03*
X235881Y-342288D02*
G54D19*
D03*
X235881Y-443888D02*
G54D12*
D03*
X235881Y-443888D02*
G54D19*
D03*
X337481Y-342288D02*
G54D19*
D03*
X337481Y-443888D02*
G54D12*
D03*
X337481Y-443888D02*
G54D19*
D03*
X235881Y-545488D02*
G54D19*
D03*
X337481Y-545488D02*
G54D12*
D03*
X337481Y-545488D02*
G54D19*
D03*
X235881Y-545488D02*
G54D19*
D03*
X235881Y-647088D02*
G54D12*
D03*
X235881Y-647088D02*
G54D19*
D03*
X337481Y-545488D02*
G54D19*
D03*
X337481Y-647088D02*
G54D12*
D03*
X337481Y-647088D02*
G54D19*
D03*
X235881Y-729638D02*
G54D19*
D03*
X337481Y-729638D02*
G54D12*
D03*
X337481Y-729638D02*
G54D19*
D03*
X235881Y-729638D02*
G54D19*
D03*
X235881Y-831238D02*
G54D12*
D03*
X235881Y-831238D02*
G54D19*
D03*
X337481Y-729638D02*
G54D19*
D03*
X337481Y-831238D02*
G54D12*
D03*
X337481Y-831238D02*
G54D19*
D03*
X235881Y-913788D02*
G54D19*
D03*
X337481Y-913788D02*
G54D12*
D03*
X337481Y-913788D02*
G54D19*
D03*
X235881Y-913788D02*
G54D19*
D03*
X235881Y-1015388D02*
G54D12*
D03*
X235881Y-1015388D02*
G54D19*
D03*
X337481Y-913788D02*
G54D19*
D03*
X337481Y-1015388D02*
G54D12*
D03*
X337481Y-1015388D02*
G54D19*
D03*
X239056Y-24788D02*
G54D19*
D03*
X340656Y-24788D02*
G54D19*
D03*
X235881Y-247038D02*
G54D19*
D03*
X337481Y-247038D02*
G54D19*
D03*
X235881Y-443888D02*
G54D19*
D03*
X337481Y-443888D02*
G54D19*
D03*
X235881Y-647088D02*
G54D19*
D03*
X337481Y-647088D02*
G54D19*
D03*
X235881Y-831238D02*
G54D19*
D03*
X337481Y-831238D02*
G54D19*
D03*
X235881Y-1015388D02*
G54D19*
D03*
X337481Y-1015388D02*
G54D19*
D03*
X426356Y-428038D02*
G54D12*
D03*
X477156Y-428038D02*
G54D12*
D03*
X451756Y-453438D02*
G54D12*
D03*
X477156Y-478838D02*
G54D12*
D03*
X426356Y-478838D02*
G54D12*
D03*
X426356Y-428038D02*
G54D14*
D03*
X426356Y-478838D02*
G54D13*
D03*
X391456Y-431188D02*
G54D12*
D03*
M02*
