%FSLAX34Y34*%
%MOMM*%
%LNCOPPER_BOTTOM*%
G71*
G01*
%ADD10C,3.200*%
%ADD11C,2.800*%
%ADD12C,2.700*%
%ADD13C,1.600*%
%ADD14C,3.000*%
%ADD15C,2.800*%
%ADD16C,2.800*%
%ADD17C,3.000*%
%ADD18C,3.000*%
%ADD19C,3.600*%
%ADD20C,1.400*%
%ADD21C,3.800*%
%ADD22C,1.800*%
%ADD23C,0.667*%
%ADD24C,1.607*%
%ADD25C,1.447*%
%ADD26C,1.340*%
%ADD27C,0.813*%
%ADD28C,1.193*%
%ADD29C,0.733*%
%ADD30C,0.933*%
%ADD31C,1.920*%
%ADD32C,2.000*%
%ADD33C,1.900*%
%ADD34C,0.800*%
%ADD35C,2.200*%
%ADD36C,2.000*%
%ADD37C,2.000*%
%ADD38C,4.300*%
%ADD39C,0.144*%
%ADD40C,2.200*%
%ADD41C,2.200*%
%ADD42C,2.800*%
%ADD43C,0.600*%
%ADD44C,3.000*%
%ADD45C,1.000*%
%LPD*%
G36*
X-1030944Y289412D02*
X529056Y289412D01*
X529056Y-1110588D01*
X-1030944Y-1110588D01*
X-1030944Y289412D01*
G37*
%LPC*%
X-768869Y190387D02*
G54D10*
D03*
X-743369Y190387D02*
G54D10*
D03*
X-578369Y190387D02*
G54D10*
D03*
X-552869Y190387D02*
G54D10*
D03*
X-256244Y102212D02*
G54D11*
D03*
X-186394Y102212D02*
G54D11*
D03*
X-256244Y32362D02*
G54D11*
D03*
X-186394Y32362D02*
G54D11*
D03*
X-186394Y64112D02*
G54D11*
D03*
X-256244Y64112D02*
G54D11*
D03*
X-312353Y110983D02*
G54D10*
D03*
X-363334Y110871D02*
G54D10*
D03*
X-510244Y102212D02*
G54D11*
D03*
X-440394Y102212D02*
G54D11*
D03*
X-510244Y32362D02*
G54D11*
D03*
X-440394Y32362D02*
G54D11*
D03*
X-440394Y64112D02*
G54D11*
D03*
X-510244Y64112D02*
G54D11*
D03*
X-373417Y66885D02*
G54D10*
D03*
X-373304Y15904D02*
G54D10*
D03*
X-309917Y66885D02*
G54D10*
D03*
X-309804Y15904D02*
G54D10*
D03*
X-764244Y13312D02*
G54D12*
D03*
X-764244Y114912D02*
G54D12*
D03*
G54D13*
X-440394Y102212D02*
X-434044Y108562D01*
X-364194Y108562D01*
X-363334Y110871D01*
G54D13*
X-373417Y66885D02*
X-370544Y64112D01*
X-364194Y70462D01*
X-364194Y108562D01*
X-363334Y110871D01*
G54D13*
X-309917Y66885D02*
X-307044Y64112D01*
X-313394Y70462D01*
X-313394Y108562D01*
X-312353Y110983D01*
G54D13*
X-312353Y110983D02*
X-313394Y108562D01*
X-307044Y102212D01*
X-256244Y102212D01*
X-400569Y190387D02*
G54D10*
D03*
X-375069Y190387D02*
G54D10*
D03*
X-184669Y190387D02*
G54D10*
D03*
X-159169Y190387D02*
G54D10*
D03*
X10523Y190495D02*
G54D10*
D03*
X36023Y190495D02*
G54D10*
D03*
X-957944Y-231188D02*
G54D14*
D03*
X-907144Y-231188D02*
G54D14*
D03*
X-932544Y-256588D02*
G54D14*
D03*
X-907144Y-281988D02*
G54D14*
D03*
X-957944Y-281988D02*
G54D14*
D03*
X-957944Y-599488D02*
G54D14*
D03*
X-907144Y-599488D02*
G54D14*
D03*
X-932544Y-624888D02*
G54D14*
D03*
X-907144Y-650288D02*
G54D14*
D03*
X-957944Y-650288D02*
G54D14*
D03*
X-510244Y32362D02*
G54D15*
D03*
X-440394Y32362D02*
G54D15*
D03*
X-373305Y15904D02*
G54D15*
D03*
X-309804Y15904D02*
G54D15*
D03*
X-256244Y32362D02*
G54D15*
D03*
X-186394Y32362D02*
G54D15*
D03*
X-957944Y-231188D02*
G54D15*
D03*
X-907144Y-231188D02*
G54D15*
D03*
X-957944Y-281988D02*
G54D15*
D03*
X-907144Y-281988D02*
G54D15*
D03*
X-957944Y-599488D02*
G54D16*
D03*
X-907144Y-599488D02*
G54D15*
D03*
X-957944Y-650288D02*
G54D15*
D03*
X-907144Y-650288D02*
G54D15*
D03*
X-961094Y-177188D02*
G54D12*
D03*
X-961094Y-75588D02*
G54D12*
D03*
X-900467Y-98215D02*
G54D10*
D03*
X-900354Y-149196D02*
G54D10*
D03*
X-933969Y215787D02*
G54D10*
D03*
X-908469Y215787D02*
G54D10*
D03*
X-961094Y-177188D02*
G54D15*
D03*
G36*
X-717944Y282912D02*
X-689944Y282912D01*
X-689944Y254912D01*
X-717944Y254912D01*
X-717944Y282912D01*
G37*
G36*
X-565544Y282912D02*
X-537544Y282912D01*
X-537544Y254912D01*
X-565544Y254912D01*
X-565544Y282912D01*
G37*
G36*
X-349644Y282912D02*
X-321644Y282912D01*
X-321644Y254912D01*
X-349644Y254912D01*
X-349644Y282912D01*
G37*
G36*
X-171844Y282912D02*
X-143844Y282912D01*
X-143844Y254912D01*
X-171844Y254912D01*
X-171844Y282912D01*
G37*
G36*
X-6744Y282912D02*
X21256Y282912D01*
X21256Y254912D01*
X-6744Y254912D01*
X-6744Y282912D01*
G37*
X183631Y190387D02*
G54D10*
D03*
X209131Y190387D02*
G54D10*
D03*
G36*
X-982044Y117812D02*
X-982044Y89812D01*
X-1010044Y89812D01*
X-1010044Y117812D01*
X-982044Y117812D01*
G37*
G36*
X-982044Y-771188D02*
X-982044Y-799188D01*
X-1010044Y-799188D01*
X-1010044Y-771188D01*
X-982044Y-771188D01*
G37*
X-573744Y-5738D02*
G54D14*
D03*
X-694394Y-2564D02*
G54D14*
D03*
X-573744Y114912D02*
G54D14*
D03*
X-694394Y114912D02*
G54D14*
D03*
X-711856Y54587D02*
G54D14*
D03*
X-809818Y81357D02*
G54D10*
D03*
X-809706Y30377D02*
G54D10*
D03*
X-809706Y30377D02*
G54D14*
D03*
X-120650Y120650D02*
G54D14*
D03*
X0Y117476D02*
G54D14*
D03*
X-120650Y0D02*
G54D14*
D03*
X0Y0D02*
G54D14*
D03*
X20638Y60325D02*
G54D14*
D03*
X112056Y13312D02*
G54D12*
D03*
X112056Y114912D02*
G54D12*
D03*
X66482Y81357D02*
G54D10*
D03*
X66594Y30377D02*
G54D10*
D03*
X66594Y30377D02*
G54D14*
D03*
X-256244Y-100988D02*
G54D11*
D03*
X-186394Y-100988D02*
G54D11*
D03*
X-256244Y-170838D02*
G54D11*
D03*
X-186394Y-170838D02*
G54D11*
D03*
X-186394Y-139088D02*
G54D11*
D03*
X-256244Y-139088D02*
G54D11*
D03*
X-312353Y-92217D02*
G54D10*
D03*
X-363334Y-92329D02*
G54D10*
D03*
X-510244Y-100988D02*
G54D11*
D03*
X-440394Y-100988D02*
G54D11*
D03*
X-510244Y-170838D02*
G54D11*
D03*
X-440394Y-170838D02*
G54D11*
D03*
X-440394Y-139088D02*
G54D11*
D03*
X-510244Y-139088D02*
G54D11*
D03*
X-373417Y-136315D02*
G54D10*
D03*
X-373304Y-187296D02*
G54D10*
D03*
X-309917Y-136315D02*
G54D10*
D03*
X-309804Y-187296D02*
G54D10*
D03*
G54D13*
X-440394Y-100988D02*
X-434044Y-94638D01*
X-364194Y-94638D01*
X-363334Y-92329D01*
G54D13*
X-373417Y-136315D02*
X-370544Y-139088D01*
X-364194Y-132738D01*
X-364194Y-94638D01*
X-363334Y-92329D01*
G54D13*
X-309917Y-136315D02*
X-307044Y-139088D01*
X-313394Y-132738D01*
X-313394Y-94638D01*
X-312353Y-92217D01*
G54D13*
X-312353Y-92217D02*
X-313394Y-94638D01*
X-307044Y-100988D01*
X-256244Y-100988D01*
X-510244Y-170838D02*
G54D15*
D03*
X-440394Y-170838D02*
G54D15*
D03*
X-373305Y-187296D02*
G54D15*
D03*
X-309804Y-187296D02*
G54D15*
D03*
X-256244Y-170838D02*
G54D15*
D03*
X-186394Y-170838D02*
G54D15*
D03*
X-573744Y-208938D02*
G54D14*
D03*
X-694394Y-205764D02*
G54D14*
D03*
X-573744Y-88288D02*
G54D14*
D03*
X-694394Y-88288D02*
G54D14*
D03*
X-711856Y-148613D02*
G54D14*
D03*
X-808694Y-123338D02*
G54D10*
D03*
X-859674Y-123450D02*
G54D10*
D03*
X-120650Y-82550D02*
G54D14*
D03*
X0Y-85724D02*
G54D14*
D03*
X-120650Y-203200D02*
G54D14*
D03*
X0Y-203200D02*
G54D14*
D03*
X20638Y-142875D02*
G54D14*
D03*
X112056Y-189888D02*
G54D12*
D03*
X112056Y-88288D02*
G54D12*
D03*
X66482Y-121843D02*
G54D10*
D03*
X66594Y-172823D02*
G54D10*
D03*
X66594Y-172823D02*
G54D14*
D03*
X-256244Y-304188D02*
G54D11*
D03*
X-186394Y-304188D02*
G54D11*
D03*
X-256244Y-374038D02*
G54D11*
D03*
X-186394Y-374038D02*
G54D11*
D03*
X-186394Y-342288D02*
G54D11*
D03*
X-256244Y-342288D02*
G54D11*
D03*
X-312353Y-295417D02*
G54D10*
D03*
X-363334Y-295529D02*
G54D10*
D03*
X-510244Y-304188D02*
G54D11*
D03*
X-440394Y-304188D02*
G54D11*
D03*
X-510244Y-374038D02*
G54D11*
D03*
X-440394Y-374038D02*
G54D11*
D03*
X-440394Y-342288D02*
G54D11*
D03*
X-510244Y-342288D02*
G54D11*
D03*
X-373417Y-339515D02*
G54D10*
D03*
X-373304Y-390496D02*
G54D10*
D03*
X-309917Y-339515D02*
G54D10*
D03*
X-309804Y-390496D02*
G54D10*
D03*
X-764244Y-393088D02*
G54D12*
D03*
X-764244Y-291488D02*
G54D12*
D03*
G54D13*
X-440394Y-304188D02*
X-434044Y-297838D01*
X-364194Y-297838D01*
X-363334Y-295529D01*
G54D13*
X-373417Y-339515D02*
X-370544Y-342288D01*
X-364194Y-335938D01*
X-364194Y-297838D01*
X-363334Y-295529D01*
G54D13*
X-309917Y-339515D02*
X-307044Y-342288D01*
X-313394Y-335938D01*
X-313394Y-297838D01*
X-312353Y-295417D01*
G54D13*
X-312353Y-295417D02*
X-313394Y-297838D01*
X-307044Y-304188D01*
X-256244Y-304188D01*
X-510244Y-374038D02*
G54D15*
D03*
X-440394Y-374038D02*
G54D15*
D03*
X-373305Y-390496D02*
G54D15*
D03*
X-309804Y-390496D02*
G54D15*
D03*
X-256244Y-374038D02*
G54D15*
D03*
X-186394Y-374038D02*
G54D15*
D03*
X-573744Y-412138D02*
G54D14*
D03*
X-694394Y-408964D02*
G54D14*
D03*
X-573744Y-291488D02*
G54D14*
D03*
X-694394Y-291488D02*
G54D14*
D03*
X-711856Y-351813D02*
G54D14*
D03*
X-809818Y-325043D02*
G54D10*
D03*
X-809706Y-376023D02*
G54D10*
D03*
X-809706Y-376023D02*
G54D14*
D03*
X-120650Y-285750D02*
G54D14*
D03*
X0Y-288924D02*
G54D14*
D03*
X-120650Y-406400D02*
G54D14*
D03*
X0Y-406400D02*
G54D14*
D03*
X20638Y-346075D02*
G54D14*
D03*
X112056Y-393088D02*
G54D12*
D03*
X112056Y-291488D02*
G54D12*
D03*
X66482Y-325043D02*
G54D10*
D03*
X66594Y-376023D02*
G54D10*
D03*
X66594Y-376023D02*
G54D14*
D03*
X-256244Y-507388D02*
G54D11*
D03*
X-186394Y-507388D02*
G54D11*
D03*
X-256244Y-577238D02*
G54D11*
D03*
X-186394Y-577238D02*
G54D11*
D03*
X-186394Y-545488D02*
G54D11*
D03*
X-256244Y-545488D02*
G54D11*
D03*
X-312353Y-498617D02*
G54D10*
D03*
X-363334Y-498729D02*
G54D10*
D03*
X-510244Y-507388D02*
G54D11*
D03*
X-440394Y-507388D02*
G54D11*
D03*
X-510244Y-577238D02*
G54D11*
D03*
X-440394Y-577238D02*
G54D11*
D03*
X-440394Y-545488D02*
G54D11*
D03*
X-510244Y-545488D02*
G54D11*
D03*
X-373417Y-542715D02*
G54D10*
D03*
X-373304Y-593696D02*
G54D10*
D03*
X-309917Y-542715D02*
G54D10*
D03*
X-309804Y-593696D02*
G54D10*
D03*
X-764244Y-596288D02*
G54D12*
D03*
X-764244Y-494688D02*
G54D12*
D03*
G54D13*
X-440394Y-507388D02*
X-434044Y-501038D01*
X-364194Y-501038D01*
X-363334Y-498729D01*
G54D13*
X-373417Y-542715D02*
X-370544Y-545488D01*
X-364194Y-539138D01*
X-364194Y-501038D01*
X-363334Y-498729D01*
G54D13*
X-309917Y-542715D02*
X-307044Y-545488D01*
X-313394Y-539138D01*
X-313394Y-501038D01*
X-312353Y-498617D01*
G54D13*
X-312353Y-498617D02*
X-313394Y-501038D01*
X-307044Y-507388D01*
X-256244Y-507388D01*
X-510244Y-577238D02*
G54D15*
D03*
X-440394Y-577238D02*
G54D15*
D03*
X-373305Y-593696D02*
G54D15*
D03*
X-309804Y-593696D02*
G54D15*
D03*
X-256244Y-577238D02*
G54D15*
D03*
X-186394Y-577238D02*
G54D15*
D03*
X-573744Y-615338D02*
G54D16*
D03*
X-694394Y-612164D02*
G54D16*
D03*
X-573744Y-494688D02*
G54D16*
D03*
X-694394Y-494688D02*
G54D16*
D03*
X-711856Y-555013D02*
G54D16*
D03*
X-809818Y-528243D02*
G54D10*
D03*
X-809706Y-579223D02*
G54D10*
D03*
X-809706Y-579223D02*
G54D14*
D03*
X-120650Y-488950D02*
G54D16*
D03*
X0Y-492124D02*
G54D16*
D03*
X-120650Y-609600D02*
G54D16*
D03*
X0Y-609600D02*
G54D16*
D03*
X17462Y-549275D02*
G54D16*
D03*
X112056Y-596288D02*
G54D12*
D03*
X112056Y-494688D02*
G54D12*
D03*
X66482Y-528243D02*
G54D10*
D03*
X66594Y-579223D02*
G54D10*
D03*
X66594Y-579223D02*
G54D14*
D03*
X-256244Y-710588D02*
G54D11*
D03*
X-186394Y-710588D02*
G54D11*
D03*
X-256244Y-780438D02*
G54D11*
D03*
X-186394Y-780438D02*
G54D11*
D03*
X-186394Y-748688D02*
G54D11*
D03*
X-256244Y-748688D02*
G54D11*
D03*
X-312353Y-701817D02*
G54D10*
D03*
X-363334Y-701929D02*
G54D10*
D03*
X-510244Y-710588D02*
G54D11*
D03*
X-440394Y-710588D02*
G54D11*
D03*
X-510244Y-780438D02*
G54D11*
D03*
X-440394Y-780438D02*
G54D11*
D03*
X-440394Y-748688D02*
G54D11*
D03*
X-510244Y-748688D02*
G54D11*
D03*
X-373417Y-745915D02*
G54D10*
D03*
X-373304Y-796896D02*
G54D10*
D03*
X-309917Y-745915D02*
G54D10*
D03*
X-309804Y-796896D02*
G54D10*
D03*
X-764244Y-799488D02*
G54D12*
D03*
X-764244Y-697888D02*
G54D12*
D03*
G54D13*
X-440394Y-710588D02*
X-434044Y-704238D01*
X-364194Y-704238D01*
X-363334Y-701929D01*
G54D13*
X-373417Y-745915D02*
X-370544Y-748688D01*
X-364194Y-742338D01*
X-364194Y-704238D01*
X-363334Y-701929D01*
G54D13*
X-309917Y-745915D02*
X-307044Y-748688D01*
X-313394Y-742338D01*
X-313394Y-704238D01*
X-312353Y-701817D01*
G54D13*
X-312353Y-701817D02*
X-313394Y-704238D01*
X-307044Y-710588D01*
X-256244Y-710588D01*
X-510244Y-780438D02*
G54D15*
D03*
X-440394Y-780438D02*
G54D15*
D03*
X-373305Y-796896D02*
G54D15*
D03*
X-309804Y-796896D02*
G54D15*
D03*
X-256244Y-780438D02*
G54D15*
D03*
X-186394Y-780438D02*
G54D15*
D03*
X-573744Y-818538D02*
G54D14*
D03*
X-694394Y-815364D02*
G54D14*
D03*
X-573744Y-697888D02*
G54D14*
D03*
X-694394Y-697888D02*
G54D14*
D03*
X-711856Y-758213D02*
G54D14*
D03*
X-809818Y-731442D02*
G54D10*
D03*
X-809706Y-782423D02*
G54D10*
D03*
X-809706Y-782423D02*
G54D14*
D03*
X-120650Y-692150D02*
G54D14*
D03*
X0Y-695324D02*
G54D14*
D03*
X-120650Y-812800D02*
G54D14*
D03*
X0Y-812800D02*
G54D14*
D03*
X17462Y-752475D02*
G54D14*
D03*
X112056Y-799488D02*
G54D12*
D03*
X112056Y-697888D02*
G54D12*
D03*
X66482Y-731442D02*
G54D10*
D03*
X66594Y-782423D02*
G54D10*
D03*
X66594Y-782423D02*
G54D14*
D03*
X-256244Y-913788D02*
G54D11*
D03*
X-186394Y-913788D02*
G54D11*
D03*
X-256244Y-983638D02*
G54D11*
D03*
X-186394Y-983638D02*
G54D11*
D03*
X-186394Y-951888D02*
G54D11*
D03*
X-256244Y-951888D02*
G54D11*
D03*
X-312353Y-905017D02*
G54D10*
D03*
X-363334Y-905129D02*
G54D10*
D03*
X-510244Y-913788D02*
G54D11*
D03*
X-440394Y-913788D02*
G54D11*
D03*
X-510244Y-983638D02*
G54D11*
D03*
X-440394Y-983638D02*
G54D11*
D03*
X-440394Y-951888D02*
G54D11*
D03*
X-510244Y-951888D02*
G54D11*
D03*
X-373417Y-949115D02*
G54D10*
D03*
X-373304Y-1000096D02*
G54D10*
D03*
X-309917Y-949115D02*
G54D10*
D03*
X-309804Y-1000096D02*
G54D10*
D03*
X-764244Y-1002688D02*
G54D12*
D03*
X-764244Y-901088D02*
G54D12*
D03*
G54D13*
X-440394Y-913788D02*
X-434044Y-907438D01*
X-364194Y-907438D01*
X-363334Y-905129D01*
G54D13*
X-373417Y-949115D02*
X-370544Y-951888D01*
X-364194Y-945538D01*
X-364194Y-907438D01*
X-363334Y-905129D01*
G54D13*
X-309917Y-949115D02*
X-307044Y-951888D01*
X-313394Y-945538D01*
X-313394Y-907438D01*
X-312353Y-905017D01*
G54D13*
X-312353Y-905017D02*
X-313394Y-907438D01*
X-307044Y-913788D01*
X-256244Y-913788D01*
X-510244Y-983638D02*
G54D15*
D03*
X-440394Y-983638D02*
G54D15*
D03*
X-373305Y-1000096D02*
G54D15*
D03*
X-309804Y-1000096D02*
G54D15*
D03*
X-256244Y-983638D02*
G54D15*
D03*
X-186394Y-983638D02*
G54D15*
D03*
X-573744Y-1021738D02*
G54D14*
D03*
X-694394Y-1018564D02*
G54D14*
D03*
X-573744Y-901088D02*
G54D14*
D03*
X-694394Y-901088D02*
G54D14*
D03*
X-711856Y-961413D02*
G54D14*
D03*
X-809818Y-934642D02*
G54D10*
D03*
X-809706Y-985623D02*
G54D10*
D03*
X-809706Y-985623D02*
G54D14*
D03*
X-120650Y-895350D02*
G54D14*
D03*
X0Y-898524D02*
G54D14*
D03*
X-120650Y-1016000D02*
G54D14*
D03*
X0Y-1016000D02*
G54D14*
D03*
X17462Y-955675D02*
G54D14*
D03*
X112056Y-1002688D02*
G54D12*
D03*
X112056Y-901088D02*
G54D12*
D03*
X66482Y-934642D02*
G54D10*
D03*
X66594Y-985623D02*
G54D10*
D03*
X66594Y-985623D02*
G54D14*
D03*
X-764244Y-393088D02*
G54D14*
D03*
X-764244Y-596288D02*
G54D14*
D03*
X-764244Y-799488D02*
G54D14*
D03*
X112056Y-1002688D02*
G54D14*
D03*
X112056Y-799488D02*
G54D14*
D03*
X112056Y-596288D02*
G54D14*
D03*
X112056Y-393088D02*
G54D14*
D03*
X112056Y-189888D02*
G54D14*
D03*
X112056Y13312D02*
G54D14*
D03*
X-994591Y-493997D02*
G54D14*
D03*
X-991417Y-373347D02*
G54D14*
D03*
X-873941Y-493997D02*
G54D14*
D03*
X-873941Y-373347D02*
G54D14*
D03*
X-934266Y-362234D02*
G54D14*
D03*
X-694394Y-2564D02*
G54D17*
D03*
X0Y0D02*
G54D18*
D03*
X-694394Y-205764D02*
G54D18*
D03*
X0Y-203200D02*
G54D14*
D03*
X-694394Y-408964D02*
G54D18*
D03*
X0Y-406400D02*
G54D14*
D03*
X-694394Y-612164D02*
G54D14*
D03*
X0Y-609600D02*
G54D14*
D03*
X-694394Y-815364D02*
G54D18*
D03*
X0Y-812800D02*
G54D18*
D03*
X-694394Y-1018564D02*
G54D19*
D03*
X0Y-1016000D02*
G54D14*
D03*
X-991417Y-373347D02*
G54D14*
D03*
G54D13*
X-809818Y81357D02*
X-808694Y79862D01*
X-770594Y117962D01*
X-764244Y117962D01*
X-764244Y114912D01*
G54D13*
X-694394Y114912D02*
X-694394Y117962D01*
X-764244Y117962D01*
X-764244Y114912D01*
G54D13*
X-573744Y-5738D02*
X-573744Y-2688D01*
X-529294Y41762D01*
X-529294Y73512D01*
X-510244Y92562D01*
X-510244Y105262D01*
X-510244Y102212D01*
G54D13*
X-120650Y120650D02*
X-122894Y117962D01*
X-135594Y105262D01*
X-186394Y105262D01*
X-186394Y102212D01*
G54D13*
X112056Y114912D02*
X112056Y117962D01*
X-2244Y117962D01*
X0Y117476D01*
G54D13*
X66482Y81357D02*
X67606Y79862D01*
X105706Y117962D01*
X112056Y117962D01*
X112056Y114912D01*
G54D13*
X-809818Y-121843D02*
X-808694Y-123338D01*
X-770594Y-85238D01*
X-764244Y-85238D01*
X-764244Y-88288D01*
G54D13*
X-573744Y-208938D02*
X-573744Y-205888D01*
X-529294Y-161438D01*
X-529294Y-129688D01*
X-510244Y-110638D01*
X-510244Y-97938D01*
X-510244Y-100988D01*
G54D13*
X-120650Y-82550D02*
X-122894Y-85238D01*
X-135594Y-97938D01*
X-186394Y-97938D01*
X-186394Y-100988D01*
G54D13*
X112056Y-88288D02*
X112056Y-85238D01*
X-2244Y-85238D01*
X0Y-85724D01*
G54D13*
X66482Y-121843D02*
X67606Y-123338D01*
X105706Y-85238D01*
X112056Y-85238D01*
X112056Y-88288D01*
G54D13*
X-694394Y-88288D02*
X-694394Y-85238D01*
X-764244Y-85238D01*
X-764244Y-88288D01*
G54D13*
X-694394Y-291488D02*
X-694394Y-288438D01*
X-764244Y-288438D01*
X-764244Y-291488D01*
G54D13*
X-809818Y-325043D02*
X-808694Y-326538D01*
X-770594Y-288438D01*
X-764244Y-288438D01*
X-764244Y-291488D01*
G54D13*
X-573744Y-412138D02*
X-573744Y-409088D01*
X-529294Y-364638D01*
X-529294Y-332888D01*
X-510244Y-313838D01*
X-510244Y-301138D01*
X-510244Y-304188D01*
G54D13*
X-120650Y-285750D02*
X-122894Y-288438D01*
X-135594Y-301138D01*
X-186394Y-301138D01*
X-186394Y-304188D01*
G54D13*
X66482Y-325043D02*
X67606Y-326538D01*
X29506Y-288438D01*
X-2244Y-288438D01*
X0Y-288924D01*
G54D13*
X66482Y-325043D02*
X67606Y-326538D01*
X105706Y-288438D01*
X112056Y-288438D01*
X112056Y-291488D01*
G54D13*
X-809818Y-528243D02*
X-808694Y-529738D01*
X-770594Y-491638D01*
X-764244Y-491638D01*
X-764244Y-494688D01*
G54D13*
X-694394Y-494688D02*
X-694394Y-491638D01*
X-764244Y-491638D01*
X-764244Y-494688D01*
G54D13*
X-573744Y-615338D02*
X-573744Y-612288D01*
X-529294Y-567838D01*
X-529294Y-536088D01*
X-510244Y-517038D01*
X-510244Y-504338D01*
X-510244Y-507388D01*
G54D13*
X-120650Y-488950D02*
X-122894Y-491638D01*
X-135594Y-504338D01*
X-186394Y-504338D01*
X-186394Y-507388D01*
G54D13*
X66482Y-528243D02*
X67606Y-529738D01*
X29506Y-491638D01*
X-2244Y-491638D01*
X0Y-492124D01*
G54D13*
X-809818Y-731443D02*
X-808694Y-732938D01*
X-770594Y-694838D01*
X-764244Y-694838D01*
X-764244Y-697888D01*
G54D13*
X-694394Y-697888D02*
X-694394Y-694838D01*
X-764244Y-694838D01*
X-764244Y-697888D01*
G54D13*
X-573744Y-818538D02*
X-573744Y-815488D01*
X-529294Y-771038D01*
X-529294Y-739288D01*
X-510244Y-720238D01*
X-510244Y-707538D01*
X-510244Y-710588D01*
G54D13*
X-120650Y-692150D02*
X-122894Y-694838D01*
X-135594Y-707538D01*
X-186394Y-707538D01*
X-186394Y-710588D01*
G54D13*
X66482Y-731443D02*
X67606Y-732938D01*
X29506Y-694838D01*
X-2244Y-694838D01*
X0Y-695324D01*
G54D13*
X66482Y-731443D02*
X67606Y-732938D01*
X105706Y-694838D01*
X112056Y-694838D01*
X112056Y-697888D01*
G54D13*
X-809818Y-934643D02*
X-808694Y-936138D01*
X-770594Y-898038D01*
X-764244Y-898038D01*
X-764244Y-901088D01*
G54D13*
X-694394Y-901088D02*
X-694394Y-898038D01*
X-764244Y-898038D01*
X-764244Y-901088D01*
G54D13*
X-573744Y-1021738D02*
X-573744Y-1018688D01*
X-529294Y-974238D01*
X-529294Y-942488D01*
X-510244Y-923438D01*
X-510244Y-910738D01*
X-510244Y-913788D01*
G54D13*
X-120650Y-895350D02*
X-122894Y-898038D01*
X-135594Y-910738D01*
X-186394Y-910738D01*
X-186394Y-913788D01*
G54D13*
X66482Y-934643D02*
X67606Y-936138D01*
X29506Y-898038D01*
X-2244Y-898038D01*
X0Y-898524D01*
G54D13*
X66482Y-934643D02*
X67606Y-936138D01*
X105706Y-898038D01*
X112056Y-898038D01*
X112056Y-901088D01*
G54D13*
X66482Y-528243D02*
X67606Y-529738D01*
X105706Y-491638D01*
X112056Y-491638D01*
X112056Y-494688D01*
G54D20*
X-764244Y114912D02*
X-764244Y117962D01*
X-745194Y137012D01*
X-745194Y187812D01*
X-743369Y190387D01*
G54D20*
X112056Y114912D02*
X112056Y117962D01*
X67606Y162412D01*
X-541994Y162412D01*
X-554694Y175112D01*
X-592794Y175112D01*
X-605494Y187812D01*
X-745194Y187812D01*
X-743369Y190387D01*
G54D20*
X-764244Y-494688D02*
X-764244Y-491638D01*
X-707094Y-434488D01*
X-688044Y-434488D01*
X-681694Y-428138D01*
X-662644Y-428138D01*
X-656294Y-421788D01*
X-656294Y16362D01*
X-668994Y29062D01*
X-668994Y73512D01*
X-675344Y79862D01*
X-732494Y79862D01*
X-751544Y60812D01*
X-815044Y60812D01*
X-827744Y73512D01*
X-827744Y92562D01*
X-789644Y130662D01*
X-789644Y194162D01*
X-776944Y206862D01*
X-541994Y206862D01*
X-510244Y175112D01*
X-173694Y175112D01*
X-160994Y187812D01*
X-159169Y190387D01*
G54D20*
X-934266Y-362234D02*
X-935694Y-364638D01*
X-834094Y-263038D01*
X-834094Y-167788D01*
X-827744Y-161438D01*
X-827744Y-110638D01*
X-732494Y-15388D01*
X-732494Y16362D01*
X-707094Y41762D01*
X-707094Y54462D01*
X-705506Y54587D01*
G54D20*
X-934266Y-362234D02*
X-935694Y-364638D01*
X-783294Y-212238D01*
X-757894Y-212238D01*
X-707094Y-161438D01*
X-711856Y-148613D01*
G54D20*
X-934266Y-362234D02*
X-935694Y-364638D01*
X-910294Y-339238D01*
X-853144Y-339238D01*
X-840444Y-351938D01*
X-707094Y-351938D01*
X-705506Y-351813D01*
G54D20*
X-934266Y-362234D02*
X-935694Y-364638D01*
X-827744Y-472588D01*
X-827744Y-536088D01*
X-808694Y-555138D01*
X-707094Y-555138D01*
X-705506Y-555013D01*
G54D20*
X-934266Y-362234D02*
X-935694Y-364638D01*
X-897594Y-402738D01*
X-897594Y-523388D01*
X-827744Y-593238D01*
X-827744Y-739288D01*
X-808694Y-758338D01*
X-707094Y-758338D01*
X-705506Y-758213D01*
G54D20*
X-934266Y-362234D02*
X-935694Y-364638D01*
X-897594Y-402738D01*
X-897594Y-523388D01*
X-834094Y-586888D01*
X-834094Y-790088D01*
X-827744Y-796438D01*
X-827744Y-942488D01*
X-808694Y-961538D01*
X-707094Y-961538D01*
X-705506Y-961413D01*
G54D20*
X-994591Y-493997D02*
X-992844Y-491638D01*
X-980144Y-504338D01*
X-980144Y-605938D01*
X-961094Y-624988D01*
X-935694Y-624988D01*
X-932544Y-624888D01*
G36*
X-705244Y-1075988D02*
X-677244Y-1075988D01*
X-677244Y-1103988D01*
X-705244Y-1103988D01*
X-705244Y-1075988D01*
G37*
G36*
X-552844Y-1075988D02*
X-524844Y-1075988D01*
X-524844Y-1103988D01*
X-552844Y-1103988D01*
X-552844Y-1075988D01*
G37*
G36*
X-336944Y-1075988D02*
X-308944Y-1075988D01*
X-308944Y-1103988D01*
X-336944Y-1103988D01*
X-336944Y-1075988D01*
G37*
G36*
X-159144Y-1075988D02*
X-131144Y-1075988D01*
X-131144Y-1103988D01*
X-159144Y-1103988D01*
X-159144Y-1075988D01*
G37*
G36*
X5956Y-1075988D02*
X33956Y-1075988D01*
X33956Y-1103988D01*
X5956Y-1103988D01*
X5956Y-1075988D01*
G37*
X-764244Y13312D02*
G54D14*
D03*
X-859674Y-123450D02*
G54D14*
D03*
X-809706Y30377D02*
G54D14*
D03*
X-764244Y13312D02*
G54D14*
D03*
G54D20*
X-764244Y-393088D02*
X-764244Y-390038D01*
X-776944Y-377338D01*
X-808694Y-377338D01*
X-809706Y-376023D01*
G54D20*
X-694394Y-408964D02*
X-694394Y-409088D01*
X-713444Y-390038D01*
X-764244Y-390038D01*
X-764244Y-393088D01*
X-900354Y-149196D02*
G54D14*
D03*
X-764244Y-1002688D02*
G54D14*
D03*
X112056Y-1002688D02*
G54D14*
D03*
X66594Y-985623D02*
G54D14*
D03*
X-872194Y-85238D02*
G54D12*
D03*
X-770594Y-85238D02*
G54D12*
D03*
X-872194Y-85238D02*
G54D14*
D03*
G54D20*
X-743369Y190387D02*
X-745194Y187812D01*
X-770594Y187812D01*
X-768869Y190387D01*
G54D20*
X-552869Y190387D02*
X-554694Y187812D01*
X-580094Y187812D01*
X-578369Y190387D01*
G54D20*
X-375069Y190387D02*
X-376894Y187812D01*
X-402294Y187812D01*
X-400569Y190387D01*
G54D20*
X-159169Y190387D02*
X-160994Y187812D01*
X-186394Y187812D01*
X-184669Y190387D01*
G54D20*
X36023Y190495D02*
X35856Y187812D01*
X10456Y187812D01*
X10523Y190495D01*
G54D20*
X209131Y190387D02*
X207306Y187812D01*
X181906Y187812D01*
X183631Y190387D01*
X239056Y76812D02*
G54D21*
D03*
X340656Y76812D02*
G54D14*
D03*
X340656Y76812D02*
G54D21*
D03*
X239056Y76812D02*
G54D21*
D03*
X239056Y-24788D02*
G54D14*
D03*
X239056Y-24788D02*
G54D21*
D03*
X340656Y76812D02*
G54D21*
D03*
X340656Y-24788D02*
G54D14*
D03*
X340656Y-24788D02*
G54D21*
D03*
X235881Y-145438D02*
G54D21*
D03*
X337481Y-145438D02*
G54D14*
D03*
X337481Y-145438D02*
G54D21*
D03*
X235881Y-145438D02*
G54D21*
D03*
X235881Y-247038D02*
G54D14*
D03*
X235881Y-247038D02*
G54D21*
D03*
X337481Y-145438D02*
G54D21*
D03*
X337481Y-247038D02*
G54D14*
D03*
X337481Y-247038D02*
G54D21*
D03*
X235881Y-342288D02*
G54D21*
D03*
X337481Y-342288D02*
G54D14*
D03*
X337481Y-342288D02*
G54D21*
D03*
X235881Y-342288D02*
G54D21*
D03*
X235881Y-443888D02*
G54D14*
D03*
X235881Y-443888D02*
G54D21*
D03*
X337481Y-342288D02*
G54D21*
D03*
X337481Y-443888D02*
G54D14*
D03*
X337481Y-443888D02*
G54D21*
D03*
X235881Y-545488D02*
G54D21*
D03*
X337481Y-545488D02*
G54D14*
D03*
X337481Y-545488D02*
G54D21*
D03*
X235881Y-545488D02*
G54D21*
D03*
X235881Y-647088D02*
G54D14*
D03*
X235881Y-647088D02*
G54D21*
D03*
X337481Y-545488D02*
G54D21*
D03*
X337481Y-647088D02*
G54D14*
D03*
X337481Y-647088D02*
G54D21*
D03*
X235881Y-729638D02*
G54D21*
D03*
X337481Y-729638D02*
G54D14*
D03*
X337481Y-729638D02*
G54D21*
D03*
X235881Y-729638D02*
G54D21*
D03*
X235881Y-831238D02*
G54D14*
D03*
X235881Y-831238D02*
G54D21*
D03*
X337481Y-729638D02*
G54D21*
D03*
X337481Y-831238D02*
G54D14*
D03*
X337481Y-831238D02*
G54D21*
D03*
X235881Y-913788D02*
G54D21*
D03*
X337481Y-913788D02*
G54D14*
D03*
X337481Y-913788D02*
G54D21*
D03*
X235881Y-913788D02*
G54D21*
D03*
X235881Y-1015388D02*
G54D14*
D03*
X235881Y-1015388D02*
G54D21*
D03*
X337481Y-913788D02*
G54D21*
D03*
X337481Y-1015388D02*
G54D14*
D03*
X337481Y-1015388D02*
G54D21*
D03*
X239056Y-24788D02*
G54D21*
D03*
X340656Y-24788D02*
G54D21*
D03*
X235881Y-247038D02*
G54D21*
D03*
X337481Y-247038D02*
G54D21*
D03*
X235881Y-443888D02*
G54D21*
D03*
X337481Y-443888D02*
G54D21*
D03*
X235881Y-647088D02*
G54D21*
D03*
X337481Y-647088D02*
G54D21*
D03*
X235881Y-831238D02*
G54D21*
D03*
X337481Y-831238D02*
G54D21*
D03*
X235881Y-1015388D02*
G54D21*
D03*
X337481Y-1015388D02*
G54D21*
D03*
G54D22*
X340656Y76812D02*
X391456Y26012D01*
X391456Y-405788D01*
X385106Y-443888D01*
X391456Y-456588D01*
G54D22*
X337481Y-342288D02*
X340656Y-342288D01*
X391456Y-393088D01*
X378756Y-431188D01*
X391456Y-456588D01*
X391456Y-507388D01*
G54D22*
X337481Y-545488D02*
X340656Y-545488D01*
X397806Y-472588D01*
X391456Y-456588D01*
X391456Y-405788D01*
G54D22*
X337481Y-729638D02*
X340656Y-723288D01*
X397806Y-653438D01*
X391456Y-545488D01*
X391456Y-418488D01*
X426356Y-428038D02*
G54D14*
D03*
X477156Y-428038D02*
G54D14*
D03*
X451756Y-453438D02*
G54D14*
D03*
X477156Y-478838D02*
G54D14*
D03*
X426356Y-478838D02*
G54D14*
D03*
X426356Y-428038D02*
G54D16*
D03*
X426356Y-478838D02*
G54D15*
D03*
X391456Y-431188D02*
G54D14*
D03*
G54D22*
X239056Y76812D02*
X241300Y76200D01*
X228600Y63500D01*
X25400Y63500D01*
X20638Y60325D01*
G54D22*
X235881Y-145438D02*
X241300Y-139700D01*
X25400Y-139700D01*
X20638Y-142875D01*
G54D22*
X235881Y-342288D02*
X241300Y-342900D01*
X25400Y-342900D01*
X20638Y-346075D01*
G54D22*
X235881Y-545488D02*
X241300Y-546100D01*
X12700Y-546100D01*
X17462Y-549275D01*
G54D22*
X235881Y-729638D02*
X241300Y-723900D01*
X215900Y-749300D01*
X12700Y-749300D01*
X17462Y-752475D01*
G54D22*
X235881Y-913788D02*
X241300Y-914400D01*
X203200Y-952500D01*
X12700Y-952500D01*
X17462Y-955675D01*
G54D22*
X391456Y-431188D02*
X393700Y-431800D01*
X368300Y-457200D01*
X368300Y-850900D01*
X342900Y-876300D01*
X342900Y-914400D01*
X337481Y-913788D01*
%LPD*%
G54D23*
G36*
X-513577Y32362D02*
X-513577Y46862D01*
X-506911Y46862D01*
X-506911Y32362D01*
X-513577Y32362D01*
G37*
G36*
X-510244Y35695D02*
X-495744Y35695D01*
X-495744Y29029D01*
X-510244Y29029D01*
X-510244Y35695D01*
G37*
G36*
X-506911Y32362D02*
X-506911Y17862D01*
X-513577Y17862D01*
X-513577Y32362D01*
X-506911Y32362D01*
G37*
G36*
X-510244Y29029D02*
X-524744Y29029D01*
X-524744Y35695D01*
X-510244Y35695D01*
X-510244Y29029D01*
G37*
G54D23*
G36*
X-443727Y32362D02*
X-443727Y46862D01*
X-437061Y46862D01*
X-437061Y32362D01*
X-443727Y32362D01*
G37*
G36*
X-440394Y35695D02*
X-425894Y35695D01*
X-425894Y29029D01*
X-440394Y29029D01*
X-440394Y35695D01*
G37*
G36*
X-437061Y32362D02*
X-437061Y17862D01*
X-443727Y17862D01*
X-443727Y32362D01*
X-437061Y32362D01*
G37*
G36*
X-440394Y29029D02*
X-454894Y29029D01*
X-454894Y35695D01*
X-440394Y35695D01*
X-440394Y29029D01*
G37*
G54D24*
G36*
X-381338Y15904D02*
X-381338Y30404D01*
X-365272Y30404D01*
X-365272Y15904D01*
X-381338Y15904D01*
G37*
G36*
X-373305Y23937D02*
X-358805Y23937D01*
X-358805Y7871D01*
X-373305Y7871D01*
X-373305Y23937D01*
G37*
G36*
X-365272Y15904D02*
X-365272Y1404D01*
X-381338Y1404D01*
X-381338Y15904D01*
X-365272Y15904D01*
G37*
G36*
X-373305Y7871D02*
X-387805Y7871D01*
X-387805Y23937D01*
X-373305Y23937D01*
X-373305Y7871D01*
G37*
G54D25*
G36*
X-317037Y15904D02*
X-317037Y30404D01*
X-302571Y30404D01*
X-302571Y15904D01*
X-317037Y15904D01*
G37*
G36*
X-309804Y23137D02*
X-295304Y23137D01*
X-295304Y8671D01*
X-309804Y8671D01*
X-309804Y23137D01*
G37*
G36*
X-302571Y15904D02*
X-302571Y1404D01*
X-317037Y1404D01*
X-317037Y15904D01*
X-302571Y15904D01*
G37*
G36*
X-309804Y8671D02*
X-324304Y8671D01*
X-324304Y23137D01*
X-309804Y23137D01*
X-309804Y8671D01*
G37*
G54D23*
G36*
X-259577Y32362D02*
X-259577Y46862D01*
X-252911Y46862D01*
X-252911Y32362D01*
X-259577Y32362D01*
G37*
G36*
X-256244Y35695D02*
X-241744Y35695D01*
X-241744Y29029D01*
X-256244Y29029D01*
X-256244Y35695D01*
G37*
G36*
X-252911Y32362D02*
X-252911Y17862D01*
X-259577Y17862D01*
X-259577Y32362D01*
X-252911Y32362D01*
G37*
G36*
X-256244Y29029D02*
X-270744Y29029D01*
X-270744Y35695D01*
X-256244Y35695D01*
X-256244Y29029D01*
G37*
G54D23*
G36*
X-189727Y32362D02*
X-189727Y46862D01*
X-183061Y46862D01*
X-183061Y32362D01*
X-189727Y32362D01*
G37*
G36*
X-186394Y35695D02*
X-171894Y35695D01*
X-171894Y29029D01*
X-186394Y29029D01*
X-186394Y35695D01*
G37*
G36*
X-183061Y32362D02*
X-183061Y17862D01*
X-189727Y17862D01*
X-189727Y32362D01*
X-183061Y32362D01*
G37*
G36*
X-186394Y29029D02*
X-200894Y29029D01*
X-200894Y35695D01*
X-186394Y35695D01*
X-186394Y29029D01*
G37*
G54D23*
G36*
X-961277Y-231188D02*
X-961277Y-216688D01*
X-954611Y-216688D01*
X-954611Y-231188D01*
X-961277Y-231188D01*
G37*
G36*
X-957944Y-227855D02*
X-943444Y-227855D01*
X-943444Y-234521D01*
X-957944Y-234521D01*
X-957944Y-227855D01*
G37*
G36*
X-954611Y-231188D02*
X-954611Y-245688D01*
X-961277Y-245688D01*
X-961277Y-231188D01*
X-954611Y-231188D01*
G37*
G36*
X-957944Y-234521D02*
X-972444Y-234521D01*
X-972444Y-227855D01*
X-957944Y-227855D01*
X-957944Y-234521D01*
G37*
G54D23*
G36*
X-910477Y-231188D02*
X-910477Y-216688D01*
X-903811Y-216688D01*
X-903811Y-231188D01*
X-910477Y-231188D01*
G37*
G36*
X-907144Y-227855D02*
X-892644Y-227855D01*
X-892644Y-234521D01*
X-907144Y-234521D01*
X-907144Y-227855D01*
G37*
G36*
X-903811Y-231188D02*
X-903811Y-245688D01*
X-910477Y-245688D01*
X-910477Y-231188D01*
X-903811Y-231188D01*
G37*
G36*
X-907144Y-234521D02*
X-921644Y-234521D01*
X-921644Y-227855D01*
X-907144Y-227855D01*
X-907144Y-234521D01*
G37*
G54D23*
G36*
X-961277Y-281988D02*
X-961277Y-267488D01*
X-954611Y-267488D01*
X-954611Y-281988D01*
X-961277Y-281988D01*
G37*
G36*
X-957944Y-278655D02*
X-943444Y-278655D01*
X-943444Y-285321D01*
X-957944Y-285321D01*
X-957944Y-278655D01*
G37*
G36*
X-954611Y-281988D02*
X-954611Y-296488D01*
X-961277Y-296488D01*
X-961277Y-281988D01*
X-954611Y-281988D01*
G37*
G36*
X-957944Y-285321D02*
X-972444Y-285321D01*
X-972444Y-278655D01*
X-957944Y-278655D01*
X-957944Y-285321D01*
G37*
G54D23*
G36*
X-910477Y-281988D02*
X-910477Y-267488D01*
X-903811Y-267488D01*
X-903811Y-281988D01*
X-910477Y-281988D01*
G37*
G36*
X-907144Y-278655D02*
X-892644Y-278655D01*
X-892644Y-285321D01*
X-907144Y-285321D01*
X-907144Y-278655D01*
G37*
G36*
X-903811Y-281988D02*
X-903811Y-296488D01*
X-910477Y-296488D01*
X-910477Y-281988D01*
X-903811Y-281988D01*
G37*
G36*
X-907144Y-285321D02*
X-921644Y-285321D01*
X-921644Y-278655D01*
X-907144Y-278655D01*
X-907144Y-285321D01*
G37*
G54D23*
G36*
X-961277Y-599488D02*
X-961277Y-584988D01*
X-954611Y-584988D01*
X-954611Y-599488D01*
X-961277Y-599488D01*
G37*
G36*
X-957944Y-596155D02*
X-943444Y-596155D01*
X-943444Y-602821D01*
X-957944Y-602821D01*
X-957944Y-596155D01*
G37*
G36*
X-954611Y-599488D02*
X-954611Y-613988D01*
X-961277Y-613988D01*
X-961277Y-599488D01*
X-954611Y-599488D01*
G37*
G36*
X-957944Y-602821D02*
X-972444Y-602821D01*
X-972444Y-596155D01*
X-957944Y-596155D01*
X-957944Y-602821D01*
G37*
G54D23*
G36*
X-910477Y-599488D02*
X-910477Y-584988D01*
X-903811Y-584988D01*
X-903811Y-599488D01*
X-910477Y-599488D01*
G37*
G36*
X-907144Y-596155D02*
X-892644Y-596155D01*
X-892644Y-602821D01*
X-907144Y-602821D01*
X-907144Y-596155D01*
G37*
G36*
X-903811Y-599488D02*
X-903811Y-613988D01*
X-910477Y-613988D01*
X-910477Y-599488D01*
X-903811Y-599488D01*
G37*
G36*
X-907144Y-602821D02*
X-921644Y-602821D01*
X-921644Y-596155D01*
X-907144Y-596155D01*
X-907144Y-602821D01*
G37*
G54D23*
G36*
X-961277Y-650288D02*
X-961277Y-635788D01*
X-954611Y-635788D01*
X-954611Y-650288D01*
X-961277Y-650288D01*
G37*
G36*
X-957944Y-646955D02*
X-943444Y-646955D01*
X-943444Y-653621D01*
X-957944Y-653621D01*
X-957944Y-646955D01*
G37*
G36*
X-954611Y-650288D02*
X-954611Y-664788D01*
X-961277Y-664788D01*
X-961277Y-650288D01*
X-954611Y-650288D01*
G37*
G36*
X-957944Y-653621D02*
X-972444Y-653621D01*
X-972444Y-646955D01*
X-957944Y-646955D01*
X-957944Y-653621D01*
G37*
G54D23*
G36*
X-910477Y-650288D02*
X-910477Y-635788D01*
X-903811Y-635788D01*
X-903811Y-650288D01*
X-910477Y-650288D01*
G37*
G36*
X-907144Y-646955D02*
X-892644Y-646955D01*
X-892644Y-653621D01*
X-907144Y-653621D01*
X-907144Y-646955D01*
G37*
G36*
X-903811Y-650288D02*
X-903811Y-664788D01*
X-910477Y-664788D01*
X-910477Y-650288D01*
X-903811Y-650288D01*
G37*
G36*
X-907144Y-653621D02*
X-921644Y-653621D01*
X-921644Y-646955D01*
X-907144Y-646955D01*
X-907144Y-653621D01*
G37*
G54D26*
G36*
X-940669Y215787D02*
X-940669Y232287D01*
X-927269Y232287D01*
X-927269Y215787D01*
X-940669Y215787D01*
G37*
G54D27*
G54D23*
G36*
X-964427Y-177188D02*
X-964427Y-162688D01*
X-957761Y-162688D01*
X-957761Y-177188D01*
X-964427Y-177188D01*
G37*
G36*
X-961094Y-173855D02*
X-946594Y-173855D01*
X-946594Y-180521D01*
X-961094Y-180521D01*
X-961094Y-173855D01*
G37*
G36*
X-957761Y-177188D02*
X-957761Y-191688D01*
X-964427Y-191688D01*
X-964427Y-177188D01*
X-957761Y-177188D01*
G37*
G36*
X-961094Y-180521D02*
X-975594Y-180521D01*
X-975594Y-173855D01*
X-961094Y-173855D01*
X-961094Y-180521D01*
G37*
G54D28*
G36*
X-709911Y268912D02*
X-709911Y283412D01*
X-697977Y283412D01*
X-697977Y268912D01*
X-709911Y268912D01*
G37*
G36*
X-703944Y274879D02*
X-689444Y274879D01*
X-689444Y262945D01*
X-703944Y262945D01*
X-703944Y274879D01*
G37*
G36*
X-697977Y268912D02*
X-697977Y254412D01*
X-709911Y254412D01*
X-709911Y268912D01*
X-697977Y268912D01*
G37*
G36*
X-703944Y262945D02*
X-718444Y262945D01*
X-718444Y274879D01*
X-703944Y274879D01*
X-703944Y262945D01*
G37*
G54D28*
G36*
X-557511Y268912D02*
X-557511Y283412D01*
X-545577Y283412D01*
X-545577Y268912D01*
X-557511Y268912D01*
G37*
G36*
X-551544Y274879D02*
X-537044Y274879D01*
X-537044Y262945D01*
X-551544Y262945D01*
X-551544Y274879D01*
G37*
G36*
X-545577Y268912D02*
X-545577Y254412D01*
X-557511Y254412D01*
X-557511Y268912D01*
X-545577Y268912D01*
G37*
G36*
X-551544Y262945D02*
X-566044Y262945D01*
X-566044Y274879D01*
X-551544Y274879D01*
X-551544Y262945D01*
G37*
G54D28*
G36*
X-341611Y268912D02*
X-341611Y283412D01*
X-329677Y283412D01*
X-329677Y268912D01*
X-341611Y268912D01*
G37*
G36*
X-335644Y274879D02*
X-321144Y274879D01*
X-321144Y262945D01*
X-335644Y262945D01*
X-335644Y274879D01*
G37*
G36*
X-329677Y268912D02*
X-329677Y254412D01*
X-341611Y254412D01*
X-341611Y268912D01*
X-329677Y268912D01*
G37*
G36*
X-335644Y262945D02*
X-350144Y262945D01*
X-350144Y274879D01*
X-335644Y274879D01*
X-335644Y262945D01*
G37*
G54D28*
G36*
X-163811Y268912D02*
X-163811Y283412D01*
X-151877Y283412D01*
X-151877Y268912D01*
X-163811Y268912D01*
G37*
G36*
X-157844Y274879D02*
X-143344Y274879D01*
X-143344Y262945D01*
X-157844Y262945D01*
X-157844Y274879D01*
G37*
G36*
X-151877Y268912D02*
X-151877Y254412D01*
X-163811Y254412D01*
X-163811Y268912D01*
X-151877Y268912D01*
G37*
G36*
X-157844Y262945D02*
X-172344Y262945D01*
X-172344Y274879D01*
X-157844Y274879D01*
X-157844Y262945D01*
G37*
G54D28*
G36*
X1289Y268912D02*
X1289Y283412D01*
X13223Y283412D01*
X13223Y268912D01*
X1289Y268912D01*
G37*
G36*
X7256Y274879D02*
X21756Y274879D01*
X21756Y262945D01*
X7256Y262945D01*
X7256Y274879D01*
G37*
G36*
X13223Y268912D02*
X13223Y254412D01*
X1289Y254412D01*
X1289Y268912D01*
X13223Y268912D01*
G37*
G36*
X7256Y262945D02*
X-7244Y262945D01*
X-7244Y274879D01*
X7256Y274879D01*
X7256Y262945D01*
G37*
G54D27*
G54D28*
G36*
X-996044Y109779D02*
X-981544Y109779D01*
X-981544Y97845D01*
X-996044Y97845D01*
X-996044Y109779D01*
G37*
G36*
X-990077Y103812D02*
X-990077Y89312D01*
X-1002011Y89312D01*
X-1002011Y103812D01*
X-990077Y103812D01*
G37*
G36*
X-996044Y97845D02*
X-1010544Y97845D01*
X-1010544Y109779D01*
X-996044Y109779D01*
X-996044Y97845D01*
G37*
G36*
X-1002011Y103812D02*
X-1002011Y118312D01*
X-990077Y118312D01*
X-990077Y103812D01*
X-1002011Y103812D01*
G37*
G54D28*
G36*
X-996044Y-779221D02*
X-981544Y-779221D01*
X-981544Y-791155D01*
X-996044Y-791155D01*
X-996044Y-779221D01*
G37*
G36*
X-990077Y-785188D02*
X-990077Y-799688D01*
X-1002011Y-799688D01*
X-1002011Y-785188D01*
X-990077Y-785188D01*
G37*
G36*
X-996044Y-791155D02*
X-1010544Y-791155D01*
X-1010544Y-779221D01*
X-996044Y-779221D01*
X-996044Y-791155D01*
G37*
G36*
X-1002011Y-785188D02*
X-1002011Y-770688D01*
X-990077Y-770688D01*
X-990077Y-785188D01*
X-1002011Y-785188D01*
G37*
G54D29*
G36*
X-806039Y30377D02*
X-806039Y14877D01*
X-813372Y14877D01*
X-813372Y30377D01*
X-806039Y30377D01*
G37*
G36*
X-809706Y26710D02*
X-825206Y26710D01*
X-825206Y34044D01*
X-809706Y34044D01*
X-809706Y26710D01*
G37*
G36*
X-813372Y30377D02*
X-813372Y45877D01*
X-806039Y45877D01*
X-806039Y30377D01*
X-813372Y30377D01*
G37*
G36*
X-809706Y34044D02*
X-794206Y34044D01*
X-794206Y26710D01*
X-809706Y26710D01*
X-809706Y34044D01*
G37*
G54D29*
G36*
X70261Y30377D02*
X70261Y14877D01*
X62928Y14877D01*
X62928Y30377D01*
X70261Y30377D01*
G37*
G36*
X66594Y26710D02*
X51094Y26710D01*
X51094Y34044D01*
X66594Y34044D01*
X66594Y26710D01*
G37*
G36*
X62928Y30377D02*
X62928Y45877D01*
X70261Y45877D01*
X70261Y30377D01*
X62928Y30377D01*
G37*
G36*
X66594Y34044D02*
X82094Y34044D01*
X82094Y26710D01*
X66594Y26710D01*
X66594Y34044D01*
G37*
G54D23*
G36*
X-513577Y-170838D02*
X-513577Y-156338D01*
X-506911Y-156338D01*
X-506911Y-170838D01*
X-513577Y-170838D01*
G37*
G36*
X-510244Y-167505D02*
X-495744Y-167505D01*
X-495744Y-174171D01*
X-510244Y-174171D01*
X-510244Y-167505D01*
G37*
G36*
X-506911Y-170838D02*
X-506911Y-185338D01*
X-513577Y-185338D01*
X-513577Y-170838D01*
X-506911Y-170838D01*
G37*
G36*
X-510244Y-174171D02*
X-524744Y-174171D01*
X-524744Y-167505D01*
X-510244Y-167505D01*
X-510244Y-174171D01*
G37*
G54D23*
G36*
X-443727Y-170838D02*
X-443727Y-156338D01*
X-437061Y-156338D01*
X-437061Y-170838D01*
X-443727Y-170838D01*
G37*
G36*
X-440394Y-167505D02*
X-425894Y-167505D01*
X-425894Y-174171D01*
X-440394Y-174171D01*
X-440394Y-167505D01*
G37*
G36*
X-437061Y-170838D02*
X-437061Y-185338D01*
X-443727Y-185338D01*
X-443727Y-170838D01*
X-437061Y-170838D01*
G37*
G36*
X-440394Y-174171D02*
X-454894Y-174171D01*
X-454894Y-167505D01*
X-440394Y-167505D01*
X-440394Y-174171D01*
G37*
G54D24*
G36*
X-381338Y-187296D02*
X-381338Y-172796D01*
X-365272Y-172796D01*
X-365272Y-187296D01*
X-381338Y-187296D01*
G37*
G36*
X-373305Y-179263D02*
X-358805Y-179263D01*
X-358805Y-195329D01*
X-373305Y-195329D01*
X-373305Y-179263D01*
G37*
G36*
X-365272Y-187296D02*
X-365272Y-201796D01*
X-381338Y-201796D01*
X-381338Y-187296D01*
X-365272Y-187296D01*
G37*
G36*
X-373305Y-195329D02*
X-387805Y-195329D01*
X-387805Y-179263D01*
X-373305Y-179263D01*
X-373305Y-195329D01*
G37*
G54D25*
G36*
X-317037Y-187296D02*
X-317037Y-172796D01*
X-302571Y-172796D01*
X-302571Y-187296D01*
X-317037Y-187296D01*
G37*
G36*
X-309804Y-180063D02*
X-295304Y-180063D01*
X-295304Y-194529D01*
X-309804Y-194529D01*
X-309804Y-180063D01*
G37*
G36*
X-302571Y-187296D02*
X-302571Y-201796D01*
X-317037Y-201796D01*
X-317037Y-187296D01*
X-302571Y-187296D01*
G37*
G36*
X-309804Y-194529D02*
X-324304Y-194529D01*
X-324304Y-180063D01*
X-309804Y-180063D01*
X-309804Y-194529D01*
G37*
G54D23*
G36*
X-259577Y-170838D02*
X-259577Y-156338D01*
X-252911Y-156338D01*
X-252911Y-170838D01*
X-259577Y-170838D01*
G37*
G36*
X-256244Y-167505D02*
X-241744Y-167505D01*
X-241744Y-174171D01*
X-256244Y-174171D01*
X-256244Y-167505D01*
G37*
G36*
X-252911Y-170838D02*
X-252911Y-185338D01*
X-259577Y-185338D01*
X-259577Y-170838D01*
X-252911Y-170838D01*
G37*
G36*
X-256244Y-174171D02*
X-270744Y-174171D01*
X-270744Y-167505D01*
X-256244Y-167505D01*
X-256244Y-174171D01*
G37*
G54D23*
G36*
X-189727Y-170838D02*
X-189727Y-156338D01*
X-183061Y-156338D01*
X-183061Y-170838D01*
X-189727Y-170838D01*
G37*
G36*
X-186394Y-167505D02*
X-171894Y-167505D01*
X-171894Y-174171D01*
X-186394Y-174171D01*
X-186394Y-167505D01*
G37*
G36*
X-183061Y-170838D02*
X-183061Y-185338D01*
X-189727Y-185338D01*
X-189727Y-170838D01*
X-183061Y-170838D01*
G37*
G36*
X-186394Y-174171D02*
X-200894Y-174171D01*
X-200894Y-167505D01*
X-186394Y-167505D01*
X-186394Y-174171D01*
G37*
G54D29*
G36*
X70261Y-172823D02*
X70261Y-188323D01*
X62928Y-188323D01*
X62928Y-172823D01*
X70261Y-172823D01*
G37*
G36*
X66594Y-176490D02*
X51094Y-176490D01*
X51094Y-169156D01*
X66594Y-169156D01*
X66594Y-176490D01*
G37*
G36*
X62928Y-172823D02*
X62928Y-157323D01*
X70261Y-157323D01*
X70261Y-172823D01*
X62928Y-172823D01*
G37*
G36*
X66594Y-169156D02*
X82094Y-169156D01*
X82094Y-176490D01*
X66594Y-176490D01*
X66594Y-169156D01*
G37*
G54D23*
G36*
X-513577Y-374038D02*
X-513577Y-359538D01*
X-506911Y-359538D01*
X-506911Y-374038D01*
X-513577Y-374038D01*
G37*
G36*
X-510244Y-370705D02*
X-495744Y-370705D01*
X-495744Y-377371D01*
X-510244Y-377371D01*
X-510244Y-370705D01*
G37*
G36*
X-506911Y-374038D02*
X-506911Y-388538D01*
X-513577Y-388538D01*
X-513577Y-374038D01*
X-506911Y-374038D01*
G37*
G36*
X-510244Y-377371D02*
X-524744Y-377371D01*
X-524744Y-370705D01*
X-510244Y-370705D01*
X-510244Y-377371D01*
G37*
G54D23*
G36*
X-443727Y-374038D02*
X-443727Y-359538D01*
X-437061Y-359538D01*
X-437061Y-374038D01*
X-443727Y-374038D01*
G37*
G36*
X-440394Y-370705D02*
X-425894Y-370705D01*
X-425894Y-377371D01*
X-440394Y-377371D01*
X-440394Y-370705D01*
G37*
G36*
X-437061Y-374038D02*
X-437061Y-388538D01*
X-443727Y-388538D01*
X-443727Y-374038D01*
X-437061Y-374038D01*
G37*
G36*
X-440394Y-377371D02*
X-454894Y-377371D01*
X-454894Y-370705D01*
X-440394Y-370705D01*
X-440394Y-377371D01*
G37*
G54D24*
G36*
X-381338Y-390496D02*
X-381338Y-375996D01*
X-365272Y-375996D01*
X-365272Y-390496D01*
X-381338Y-390496D01*
G37*
G36*
X-373305Y-382463D02*
X-358805Y-382463D01*
X-358805Y-398529D01*
X-373305Y-398529D01*
X-373305Y-382463D01*
G37*
G36*
X-365272Y-390496D02*
X-365272Y-404996D01*
X-381338Y-404996D01*
X-381338Y-390496D01*
X-365272Y-390496D01*
G37*
G36*
X-373305Y-398529D02*
X-387805Y-398529D01*
X-387805Y-382463D01*
X-373305Y-382463D01*
X-373305Y-398529D01*
G37*
G54D25*
G36*
X-317037Y-390496D02*
X-317037Y-375996D01*
X-302571Y-375996D01*
X-302571Y-390496D01*
X-317037Y-390496D01*
G37*
G36*
X-309804Y-383263D02*
X-295304Y-383263D01*
X-295304Y-397729D01*
X-309804Y-397729D01*
X-309804Y-383263D01*
G37*
G36*
X-302571Y-390496D02*
X-302571Y-404996D01*
X-317037Y-404996D01*
X-317037Y-390496D01*
X-302571Y-390496D01*
G37*
G36*
X-309804Y-397729D02*
X-324304Y-397729D01*
X-324304Y-383263D01*
X-309804Y-383263D01*
X-309804Y-397729D01*
G37*
G54D23*
G36*
X-259577Y-374038D02*
X-259577Y-359538D01*
X-252911Y-359538D01*
X-252911Y-374038D01*
X-259577Y-374038D01*
G37*
G36*
X-256244Y-370705D02*
X-241744Y-370705D01*
X-241744Y-377371D01*
X-256244Y-377371D01*
X-256244Y-370705D01*
G37*
G36*
X-252911Y-374038D02*
X-252911Y-388538D01*
X-259577Y-388538D01*
X-259577Y-374038D01*
X-252911Y-374038D01*
G37*
G36*
X-256244Y-377371D02*
X-270744Y-377371D01*
X-270744Y-370705D01*
X-256244Y-370705D01*
X-256244Y-377371D01*
G37*
G54D23*
G36*
X-189727Y-374038D02*
X-189727Y-359538D01*
X-183061Y-359538D01*
X-183061Y-374038D01*
X-189727Y-374038D01*
G37*
G36*
X-186394Y-370705D02*
X-171894Y-370705D01*
X-171894Y-377371D01*
X-186394Y-377371D01*
X-186394Y-370705D01*
G37*
G36*
X-183061Y-374038D02*
X-183061Y-388538D01*
X-189727Y-388538D01*
X-189727Y-374038D01*
X-183061Y-374038D01*
G37*
G36*
X-186394Y-377371D02*
X-200894Y-377371D01*
X-200894Y-370705D01*
X-186394Y-370705D01*
X-186394Y-377371D01*
G37*
G54D29*
G36*
X-806039Y-376023D02*
X-806039Y-391523D01*
X-813372Y-391523D01*
X-813372Y-376023D01*
X-806039Y-376023D01*
G37*
G36*
X-809706Y-379690D02*
X-825206Y-379690D01*
X-825206Y-372356D01*
X-809706Y-372356D01*
X-809706Y-379690D01*
G37*
G36*
X-813372Y-376023D02*
X-813372Y-360523D01*
X-806039Y-360523D01*
X-806039Y-376023D01*
X-813372Y-376023D01*
G37*
G36*
X-809706Y-372356D02*
X-794206Y-372356D01*
X-794206Y-379690D01*
X-809706Y-379690D01*
X-809706Y-372356D01*
G37*
G54D29*
G36*
X70261Y-376023D02*
X70261Y-391523D01*
X62928Y-391523D01*
X62928Y-376023D01*
X70261Y-376023D01*
G37*
G36*
X66594Y-379690D02*
X51094Y-379690D01*
X51094Y-372356D01*
X66594Y-372356D01*
X66594Y-379690D01*
G37*
G36*
X62928Y-376023D02*
X62928Y-360523D01*
X70261Y-360523D01*
X70261Y-376023D01*
X62928Y-376023D01*
G37*
G36*
X66594Y-372356D02*
X82094Y-372356D01*
X82094Y-379690D01*
X66594Y-379690D01*
X66594Y-372356D01*
G37*
G54D23*
G36*
X-513577Y-577238D02*
X-513577Y-562738D01*
X-506911Y-562738D01*
X-506911Y-577238D01*
X-513577Y-577238D01*
G37*
G36*
X-510244Y-573905D02*
X-495744Y-573905D01*
X-495744Y-580571D01*
X-510244Y-580571D01*
X-510244Y-573905D01*
G37*
G36*
X-506911Y-577238D02*
X-506911Y-591738D01*
X-513577Y-591738D01*
X-513577Y-577238D01*
X-506911Y-577238D01*
G37*
G36*
X-510244Y-580571D02*
X-524744Y-580571D01*
X-524744Y-573905D01*
X-510244Y-573905D01*
X-510244Y-580571D01*
G37*
G54D23*
G36*
X-443727Y-577238D02*
X-443727Y-562738D01*
X-437061Y-562738D01*
X-437061Y-577238D01*
X-443727Y-577238D01*
G37*
G36*
X-440394Y-573905D02*
X-425894Y-573905D01*
X-425894Y-580571D01*
X-440394Y-580571D01*
X-440394Y-573905D01*
G37*
G36*
X-437061Y-577238D02*
X-437061Y-591738D01*
X-443727Y-591738D01*
X-443727Y-577238D01*
X-437061Y-577238D01*
G37*
G36*
X-440394Y-580571D02*
X-454894Y-580571D01*
X-454894Y-573905D01*
X-440394Y-573905D01*
X-440394Y-580571D01*
G37*
G54D24*
G36*
X-381338Y-593696D02*
X-381338Y-579196D01*
X-365272Y-579196D01*
X-365272Y-593696D01*
X-381338Y-593696D01*
G37*
G36*
X-373305Y-585663D02*
X-358805Y-585663D01*
X-358805Y-601729D01*
X-373305Y-601729D01*
X-373305Y-585663D01*
G37*
G36*
X-365272Y-593696D02*
X-365272Y-608196D01*
X-381338Y-608196D01*
X-381338Y-593696D01*
X-365272Y-593696D01*
G37*
G36*
X-373305Y-601729D02*
X-387805Y-601729D01*
X-387805Y-585663D01*
X-373305Y-585663D01*
X-373305Y-601729D01*
G37*
G54D25*
G36*
X-317037Y-593696D02*
X-317037Y-579196D01*
X-302571Y-579196D01*
X-302571Y-593696D01*
X-317037Y-593696D01*
G37*
G36*
X-309804Y-586463D02*
X-295304Y-586463D01*
X-295304Y-600929D01*
X-309804Y-600929D01*
X-309804Y-586463D01*
G37*
G36*
X-302571Y-593696D02*
X-302571Y-608196D01*
X-317037Y-608196D01*
X-317037Y-593696D01*
X-302571Y-593696D01*
G37*
G36*
X-309804Y-600929D02*
X-324304Y-600929D01*
X-324304Y-586463D01*
X-309804Y-586463D01*
X-309804Y-600929D01*
G37*
G54D23*
G36*
X-259577Y-577238D02*
X-259577Y-562738D01*
X-252911Y-562738D01*
X-252911Y-577238D01*
X-259577Y-577238D01*
G37*
G36*
X-256244Y-573905D02*
X-241744Y-573905D01*
X-241744Y-580571D01*
X-256244Y-580571D01*
X-256244Y-573905D01*
G37*
G36*
X-252911Y-577238D02*
X-252911Y-591738D01*
X-259577Y-591738D01*
X-259577Y-577238D01*
X-252911Y-577238D01*
G37*
G36*
X-256244Y-580571D02*
X-270744Y-580571D01*
X-270744Y-573905D01*
X-256244Y-573905D01*
X-256244Y-580571D01*
G37*
G54D23*
G36*
X-189727Y-577238D02*
X-189727Y-562738D01*
X-183061Y-562738D01*
X-183061Y-577238D01*
X-189727Y-577238D01*
G37*
G36*
X-186394Y-573905D02*
X-171894Y-573905D01*
X-171894Y-580571D01*
X-186394Y-580571D01*
X-186394Y-573905D01*
G37*
G36*
X-183061Y-577238D02*
X-183061Y-591738D01*
X-189727Y-591738D01*
X-189727Y-577238D01*
X-183061Y-577238D01*
G37*
G36*
X-186394Y-580571D02*
X-200894Y-580571D01*
X-200894Y-573905D01*
X-186394Y-573905D01*
X-186394Y-580571D01*
G37*
G54D29*
G36*
X-806039Y-579223D02*
X-806039Y-594723D01*
X-813372Y-594723D01*
X-813372Y-579223D01*
X-806039Y-579223D01*
G37*
G36*
X-809706Y-582890D02*
X-825206Y-582890D01*
X-825206Y-575556D01*
X-809706Y-575556D01*
X-809706Y-582890D01*
G37*
G36*
X-813372Y-579223D02*
X-813372Y-563723D01*
X-806039Y-563723D01*
X-806039Y-579223D01*
X-813372Y-579223D01*
G37*
G36*
X-809706Y-575556D02*
X-794206Y-575556D01*
X-794206Y-582890D01*
X-809706Y-582890D01*
X-809706Y-575556D01*
G37*
G54D29*
G36*
X70261Y-579223D02*
X70261Y-594723D01*
X62928Y-594723D01*
X62928Y-579223D01*
X70261Y-579223D01*
G37*
G36*
X66594Y-582890D02*
X51094Y-582890D01*
X51094Y-575556D01*
X66594Y-575556D01*
X66594Y-582890D01*
G37*
G36*
X62928Y-579223D02*
X62928Y-563723D01*
X70261Y-563723D01*
X70261Y-579223D01*
X62928Y-579223D01*
G37*
G36*
X66594Y-575556D02*
X82094Y-575556D01*
X82094Y-582890D01*
X66594Y-582890D01*
X66594Y-575556D01*
G37*
G54D23*
G36*
X-513577Y-780438D02*
X-513577Y-765938D01*
X-506911Y-765938D01*
X-506911Y-780438D01*
X-513577Y-780438D01*
G37*
G36*
X-510244Y-777105D02*
X-495744Y-777105D01*
X-495744Y-783771D01*
X-510244Y-783771D01*
X-510244Y-777105D01*
G37*
G36*
X-506911Y-780438D02*
X-506911Y-794938D01*
X-513577Y-794938D01*
X-513577Y-780438D01*
X-506911Y-780438D01*
G37*
G36*
X-510244Y-783771D02*
X-524744Y-783771D01*
X-524744Y-777105D01*
X-510244Y-777105D01*
X-510244Y-783771D01*
G37*
G54D23*
G36*
X-443727Y-780438D02*
X-443727Y-765938D01*
X-437061Y-765938D01*
X-437061Y-780438D01*
X-443727Y-780438D01*
G37*
G36*
X-440394Y-777105D02*
X-425894Y-777105D01*
X-425894Y-783771D01*
X-440394Y-783771D01*
X-440394Y-777105D01*
G37*
G36*
X-437061Y-780438D02*
X-437061Y-794938D01*
X-443727Y-794938D01*
X-443727Y-780438D01*
X-437061Y-780438D01*
G37*
G36*
X-440394Y-783771D02*
X-454894Y-783771D01*
X-454894Y-777105D01*
X-440394Y-777105D01*
X-440394Y-783771D01*
G37*
G54D24*
G36*
X-381338Y-796896D02*
X-381338Y-782396D01*
X-365272Y-782396D01*
X-365272Y-796896D01*
X-381338Y-796896D01*
G37*
G36*
X-373305Y-788863D02*
X-358805Y-788863D01*
X-358805Y-804929D01*
X-373305Y-804929D01*
X-373305Y-788863D01*
G37*
G36*
X-365272Y-796896D02*
X-365272Y-811396D01*
X-381338Y-811396D01*
X-381338Y-796896D01*
X-365272Y-796896D01*
G37*
G36*
X-373305Y-804929D02*
X-387805Y-804929D01*
X-387805Y-788863D01*
X-373305Y-788863D01*
X-373305Y-804929D01*
G37*
G54D25*
G36*
X-317037Y-796896D02*
X-317037Y-782396D01*
X-302571Y-782396D01*
X-302571Y-796896D01*
X-317037Y-796896D01*
G37*
G36*
X-309804Y-789663D02*
X-295304Y-789663D01*
X-295304Y-804129D01*
X-309804Y-804129D01*
X-309804Y-789663D01*
G37*
G36*
X-302571Y-796896D02*
X-302571Y-811396D01*
X-317037Y-811396D01*
X-317037Y-796896D01*
X-302571Y-796896D01*
G37*
G36*
X-309804Y-804129D02*
X-324304Y-804129D01*
X-324304Y-789663D01*
X-309804Y-789663D01*
X-309804Y-804129D01*
G37*
G54D23*
G36*
X-259577Y-780438D02*
X-259577Y-765938D01*
X-252911Y-765938D01*
X-252911Y-780438D01*
X-259577Y-780438D01*
G37*
G36*
X-256244Y-777105D02*
X-241744Y-777105D01*
X-241744Y-783771D01*
X-256244Y-783771D01*
X-256244Y-777105D01*
G37*
G36*
X-252911Y-780438D02*
X-252911Y-794938D01*
X-259577Y-794938D01*
X-259577Y-780438D01*
X-252911Y-780438D01*
G37*
G36*
X-256244Y-783771D02*
X-270744Y-783771D01*
X-270744Y-777105D01*
X-256244Y-777105D01*
X-256244Y-783771D01*
G37*
G54D23*
G36*
X-189727Y-780438D02*
X-189727Y-765938D01*
X-183061Y-765938D01*
X-183061Y-780438D01*
X-189727Y-780438D01*
G37*
G36*
X-186394Y-777105D02*
X-171894Y-777105D01*
X-171894Y-783771D01*
X-186394Y-783771D01*
X-186394Y-777105D01*
G37*
G36*
X-183061Y-780438D02*
X-183061Y-794938D01*
X-189727Y-794938D01*
X-189727Y-780438D01*
X-183061Y-780438D01*
G37*
G36*
X-186394Y-783771D02*
X-200894Y-783771D01*
X-200894Y-777105D01*
X-186394Y-777105D01*
X-186394Y-783771D01*
G37*
G54D29*
G36*
X-806039Y-782423D02*
X-806039Y-797923D01*
X-813372Y-797923D01*
X-813372Y-782423D01*
X-806039Y-782423D01*
G37*
G36*
X-809706Y-786090D02*
X-825206Y-786090D01*
X-825206Y-778756D01*
X-809706Y-778756D01*
X-809706Y-786090D01*
G37*
G36*
X-813372Y-782423D02*
X-813372Y-766923D01*
X-806039Y-766923D01*
X-806039Y-782423D01*
X-813372Y-782423D01*
G37*
G36*
X-809706Y-778756D02*
X-794206Y-778756D01*
X-794206Y-786090D01*
X-809706Y-786090D01*
X-809706Y-778756D01*
G37*
G54D29*
G36*
X70261Y-782423D02*
X70261Y-797923D01*
X62928Y-797923D01*
X62928Y-782423D01*
X70261Y-782423D01*
G37*
G36*
X66594Y-786090D02*
X51094Y-786090D01*
X51094Y-778756D01*
X66594Y-778756D01*
X66594Y-786090D01*
G37*
G36*
X62928Y-782423D02*
X62928Y-766923D01*
X70261Y-766923D01*
X70261Y-782423D01*
X62928Y-782423D01*
G37*
G36*
X66594Y-778756D02*
X82094Y-778756D01*
X82094Y-786090D01*
X66594Y-786090D01*
X66594Y-778756D01*
G37*
G54D23*
G36*
X-513577Y-983638D02*
X-513577Y-969138D01*
X-506911Y-969138D01*
X-506911Y-983638D01*
X-513577Y-983638D01*
G37*
G36*
X-510244Y-980305D02*
X-495744Y-980305D01*
X-495744Y-986971D01*
X-510244Y-986971D01*
X-510244Y-980305D01*
G37*
G36*
X-506911Y-983638D02*
X-506911Y-998138D01*
X-513577Y-998138D01*
X-513577Y-983638D01*
X-506911Y-983638D01*
G37*
G36*
X-510244Y-986971D02*
X-524744Y-986971D01*
X-524744Y-980305D01*
X-510244Y-980305D01*
X-510244Y-986971D01*
G37*
G54D23*
G36*
X-443727Y-983638D02*
X-443727Y-969138D01*
X-437061Y-969138D01*
X-437061Y-983638D01*
X-443727Y-983638D01*
G37*
G36*
X-440394Y-980305D02*
X-425894Y-980305D01*
X-425894Y-986971D01*
X-440394Y-986971D01*
X-440394Y-980305D01*
G37*
G36*
X-437061Y-983638D02*
X-437061Y-998138D01*
X-443727Y-998138D01*
X-443727Y-983638D01*
X-437061Y-983638D01*
G37*
G36*
X-440394Y-986971D02*
X-454894Y-986971D01*
X-454894Y-980305D01*
X-440394Y-980305D01*
X-440394Y-986971D01*
G37*
G54D24*
G36*
X-381338Y-1000096D02*
X-381338Y-985596D01*
X-365272Y-985596D01*
X-365272Y-1000096D01*
X-381338Y-1000096D01*
G37*
G36*
X-373305Y-992063D02*
X-358805Y-992063D01*
X-358805Y-1008129D01*
X-373305Y-1008129D01*
X-373305Y-992063D01*
G37*
G36*
X-365272Y-1000096D02*
X-365272Y-1014596D01*
X-381338Y-1014596D01*
X-381338Y-1000096D01*
X-365272Y-1000096D01*
G37*
G36*
X-373305Y-1008129D02*
X-387805Y-1008129D01*
X-387805Y-992063D01*
X-373305Y-992063D01*
X-373305Y-1008129D01*
G37*
G54D25*
G36*
X-317037Y-1000096D02*
X-317037Y-985596D01*
X-302571Y-985596D01*
X-302571Y-1000096D01*
X-317037Y-1000096D01*
G37*
G36*
X-309804Y-992863D02*
X-295304Y-992863D01*
X-295304Y-1007329D01*
X-309804Y-1007329D01*
X-309804Y-992863D01*
G37*
G36*
X-302571Y-1000096D02*
X-302571Y-1014596D01*
X-317037Y-1014596D01*
X-317037Y-1000096D01*
X-302571Y-1000096D01*
G37*
G36*
X-309804Y-1007329D02*
X-324304Y-1007329D01*
X-324304Y-992863D01*
X-309804Y-992863D01*
X-309804Y-1007329D01*
G37*
G54D23*
G36*
X-259577Y-983638D02*
X-259577Y-969138D01*
X-252911Y-969138D01*
X-252911Y-983638D01*
X-259577Y-983638D01*
G37*
G36*
X-256244Y-980305D02*
X-241744Y-980305D01*
X-241744Y-986971D01*
X-256244Y-986971D01*
X-256244Y-980305D01*
G37*
G36*
X-252911Y-983638D02*
X-252911Y-998138D01*
X-259577Y-998138D01*
X-259577Y-983638D01*
X-252911Y-983638D01*
G37*
G36*
X-256244Y-986971D02*
X-270744Y-986971D01*
X-270744Y-980305D01*
X-256244Y-980305D01*
X-256244Y-986971D01*
G37*
G54D23*
G36*
X-189727Y-983638D02*
X-189727Y-969138D01*
X-183061Y-969138D01*
X-183061Y-983638D01*
X-189727Y-983638D01*
G37*
G36*
X-186394Y-980305D02*
X-171894Y-980305D01*
X-171894Y-986971D01*
X-186394Y-986971D01*
X-186394Y-980305D01*
G37*
G36*
X-183061Y-983638D02*
X-183061Y-998138D01*
X-189727Y-998138D01*
X-189727Y-983638D01*
X-183061Y-983638D01*
G37*
G36*
X-186394Y-986971D02*
X-200894Y-986971D01*
X-200894Y-980305D01*
X-186394Y-980305D01*
X-186394Y-986971D01*
G37*
G54D29*
G36*
X-806039Y-985623D02*
X-806039Y-1001123D01*
X-813372Y-1001123D01*
X-813372Y-985623D01*
X-806039Y-985623D01*
G37*
G36*
X-809706Y-989290D02*
X-825206Y-989290D01*
X-825206Y-981956D01*
X-809706Y-981956D01*
X-809706Y-989290D01*
G37*
G36*
X-813372Y-985623D02*
X-813372Y-970123D01*
X-806039Y-970123D01*
X-806039Y-985623D01*
X-813372Y-985623D01*
G37*
G36*
X-809706Y-981956D02*
X-794206Y-981956D01*
X-794206Y-989290D01*
X-809706Y-989290D01*
X-809706Y-981956D01*
G37*
G54D29*
G36*
X70261Y-985623D02*
X70261Y-1001123D01*
X62928Y-1001123D01*
X62928Y-985623D01*
X70261Y-985623D01*
G37*
G36*
X66594Y-989290D02*
X51094Y-989290D01*
X51094Y-981956D01*
X66594Y-981956D01*
X66594Y-989290D01*
G37*
G36*
X62928Y-985623D02*
X62928Y-970123D01*
X70261Y-970123D01*
X70261Y-985623D01*
X62928Y-985623D01*
G37*
G36*
X66594Y-981956D02*
X82094Y-981956D01*
X82094Y-989290D01*
X66594Y-989290D01*
X66594Y-981956D01*
G37*
G54D29*
G36*
X-760577Y-393088D02*
X-760577Y-408588D01*
X-767911Y-408588D01*
X-767911Y-393088D01*
X-760577Y-393088D01*
G37*
G36*
X-764244Y-396755D02*
X-779744Y-396755D01*
X-779744Y-389421D01*
X-764244Y-389421D01*
X-764244Y-396755D01*
G37*
G36*
X-767911Y-393088D02*
X-767911Y-377588D01*
X-760577Y-377588D01*
X-760577Y-393088D01*
X-767911Y-393088D01*
G37*
G36*
X-764244Y-389421D02*
X-748744Y-389421D01*
X-748744Y-396755D01*
X-764244Y-396755D01*
X-764244Y-389421D01*
G37*
G54D29*
G36*
X-760577Y-596288D02*
X-760577Y-611788D01*
X-767911Y-611788D01*
X-767911Y-596288D01*
X-760577Y-596288D01*
G37*
G36*
X-764244Y-599955D02*
X-779744Y-599955D01*
X-779744Y-592621D01*
X-764244Y-592621D01*
X-764244Y-599955D01*
G37*
G36*
X-767911Y-596288D02*
X-767911Y-580788D01*
X-760577Y-580788D01*
X-760577Y-596288D01*
X-767911Y-596288D01*
G37*
G36*
X-764244Y-592621D02*
X-748744Y-592621D01*
X-748744Y-599955D01*
X-764244Y-599955D01*
X-764244Y-592621D01*
G37*
G54D29*
G36*
X-760577Y-799488D02*
X-760577Y-814988D01*
X-767911Y-814988D01*
X-767911Y-799488D01*
X-760577Y-799488D01*
G37*
G36*
X-764244Y-803155D02*
X-779744Y-803155D01*
X-779744Y-795821D01*
X-764244Y-795821D01*
X-764244Y-803155D01*
G37*
G36*
X-767911Y-799488D02*
X-767911Y-783988D01*
X-760577Y-783988D01*
X-760577Y-799488D01*
X-767911Y-799488D01*
G37*
G36*
X-764244Y-795821D02*
X-748744Y-795821D01*
X-748744Y-803155D01*
X-764244Y-803155D01*
X-764244Y-795821D01*
G37*
G54D29*
G36*
X115723Y-1002688D02*
X115723Y-1018188D01*
X108389Y-1018188D01*
X108389Y-1002688D01*
X115723Y-1002688D01*
G37*
G36*
X112056Y-1006355D02*
X96556Y-1006355D01*
X96556Y-999021D01*
X112056Y-999021D01*
X112056Y-1006355D01*
G37*
G36*
X108389Y-1002688D02*
X108389Y-987188D01*
X115723Y-987188D01*
X115723Y-1002688D01*
X108389Y-1002688D01*
G37*
G36*
X112056Y-999021D02*
X127556Y-999021D01*
X127556Y-1006355D01*
X112056Y-1006355D01*
X112056Y-999021D01*
G37*
G54D29*
G36*
X115723Y-799488D02*
X115723Y-814988D01*
X108389Y-814988D01*
X108389Y-799488D01*
X115723Y-799488D01*
G37*
G36*
X112056Y-803155D02*
X96556Y-803155D01*
X96556Y-795821D01*
X112056Y-795821D01*
X112056Y-803155D01*
G37*
G36*
X108389Y-799488D02*
X108389Y-783988D01*
X115723Y-783988D01*
X115723Y-799488D01*
X108389Y-799488D01*
G37*
G36*
X112056Y-795821D02*
X127556Y-795821D01*
X127556Y-803155D01*
X112056Y-803155D01*
X112056Y-795821D01*
G37*
G54D29*
G36*
X115723Y-596288D02*
X115723Y-611788D01*
X108389Y-611788D01*
X108389Y-596288D01*
X115723Y-596288D01*
G37*
G36*
X112056Y-599955D02*
X96556Y-599955D01*
X96556Y-592621D01*
X112056Y-592621D01*
X112056Y-599955D01*
G37*
G36*
X108389Y-596288D02*
X108389Y-580788D01*
X115723Y-580788D01*
X115723Y-596288D01*
X108389Y-596288D01*
G37*
G36*
X112056Y-592621D02*
X127556Y-592621D01*
X127556Y-599955D01*
X112056Y-599955D01*
X112056Y-592621D01*
G37*
G54D29*
G36*
X115723Y-393088D02*
X115723Y-408588D01*
X108389Y-408588D01*
X108389Y-393088D01*
X115723Y-393088D01*
G37*
G36*
X112056Y-396755D02*
X96556Y-396755D01*
X96556Y-389421D01*
X112056Y-389421D01*
X112056Y-396755D01*
G37*
G36*
X108389Y-393088D02*
X108389Y-377588D01*
X115723Y-377588D01*
X115723Y-393088D01*
X108389Y-393088D01*
G37*
G36*
X112056Y-389421D02*
X127556Y-389421D01*
X127556Y-396755D01*
X112056Y-396755D01*
X112056Y-389421D01*
G37*
G54D29*
G36*
X115723Y-189888D02*
X115723Y-205388D01*
X108389Y-205388D01*
X108389Y-189888D01*
X115723Y-189888D01*
G37*
G36*
X112056Y-193555D02*
X96556Y-193555D01*
X96556Y-186221D01*
X112056Y-186221D01*
X112056Y-193555D01*
G37*
G36*
X108389Y-189888D02*
X108389Y-174388D01*
X115723Y-174388D01*
X115723Y-189888D01*
X108389Y-189888D01*
G37*
G36*
X112056Y-186221D02*
X127556Y-186221D01*
X127556Y-193555D01*
X112056Y-193555D01*
X112056Y-186221D01*
G37*
G54D29*
G36*
X115723Y13312D02*
X115723Y-2188D01*
X108389Y-2188D01*
X108389Y13312D01*
X115723Y13312D01*
G37*
G36*
X112056Y9645D02*
X96556Y9645D01*
X96556Y16979D01*
X112056Y16979D01*
X112056Y9645D01*
G37*
G36*
X108389Y13312D02*
X108389Y28812D01*
X115723Y28812D01*
X115723Y13312D01*
X108389Y13312D01*
G37*
G36*
X112056Y16979D02*
X127556Y16979D01*
X127556Y9645D01*
X112056Y9645D01*
X112056Y16979D01*
G37*
G54D29*
G36*
X-698061Y-2564D02*
X-698061Y12936D01*
X-690727Y12936D01*
X-690727Y-2564D01*
X-698061Y-2564D01*
G37*
G36*
X-694394Y1103D02*
X-678894Y1103D01*
X-678894Y-6231D01*
X-694394Y-6231D01*
X-694394Y1103D01*
G37*
G36*
X-690727Y-2564D02*
X-690727Y-18064D01*
X-698061Y-18064D01*
X-698061Y-2564D01*
X-690727Y-2564D01*
G37*
G36*
X-694394Y-6231D02*
X-709894Y-6231D01*
X-709894Y1103D01*
X-694394Y1103D01*
X-694394Y-6231D01*
G37*
G54D29*
G36*
X-3667Y0D02*
X-3667Y15500D01*
X3667Y15500D01*
X3667Y0D01*
X-3667Y0D01*
G37*
G36*
X0Y3667D02*
X15500Y3667D01*
X15500Y-3667D01*
X0Y-3667D01*
X0Y3667D01*
G37*
G36*
X3667Y0D02*
X3667Y-15500D01*
X-3667Y-15500D01*
X-3667Y0D01*
X3667Y0D01*
G37*
G36*
X0Y-3667D02*
X-15500Y-3667D01*
X-15500Y3667D01*
X0Y3667D01*
X0Y-3667D01*
G37*
G54D29*
G36*
X-698061Y-205764D02*
X-698061Y-190264D01*
X-690727Y-190264D01*
X-690727Y-205764D01*
X-698061Y-205764D01*
G37*
G36*
X-694394Y-202097D02*
X-678894Y-202097D01*
X-678894Y-209431D01*
X-694394Y-209431D01*
X-694394Y-202097D01*
G37*
G36*
X-690727Y-205764D02*
X-690727Y-221264D01*
X-698061Y-221264D01*
X-698061Y-205764D01*
X-690727Y-205764D01*
G37*
G36*
X-694394Y-209431D02*
X-709894Y-209431D01*
X-709894Y-202097D01*
X-694394Y-202097D01*
X-694394Y-209431D01*
G37*
G54D29*
G36*
X-3667Y-203200D02*
X-3667Y-187700D01*
X3667Y-187700D01*
X3667Y-203200D01*
X-3667Y-203200D01*
G37*
G36*
X0Y-199533D02*
X15500Y-199533D01*
X15500Y-206867D01*
X0Y-206867D01*
X0Y-199533D01*
G37*
G36*
X3667Y-203200D02*
X3667Y-218700D01*
X-3667Y-218700D01*
X-3667Y-203200D01*
X3667Y-203200D01*
G37*
G36*
X0Y-206867D02*
X-15500Y-206867D01*
X-15500Y-199533D01*
X0Y-199533D01*
X0Y-206867D01*
G37*
G54D29*
G36*
X-698061Y-408964D02*
X-698061Y-393464D01*
X-690727Y-393464D01*
X-690727Y-408964D01*
X-698061Y-408964D01*
G37*
G36*
X-694394Y-405297D02*
X-678894Y-405297D01*
X-678894Y-412631D01*
X-694394Y-412631D01*
X-694394Y-405297D01*
G37*
G36*
X-690727Y-408964D02*
X-690727Y-424464D01*
X-698061Y-424464D01*
X-698061Y-408964D01*
X-690727Y-408964D01*
G37*
G36*
X-694394Y-412631D02*
X-709894Y-412631D01*
X-709894Y-405297D01*
X-694394Y-405297D01*
X-694394Y-412631D01*
G37*
G54D29*
G36*
X-3667Y-406400D02*
X-3667Y-390900D01*
X3667Y-390900D01*
X3667Y-406400D01*
X-3667Y-406400D01*
G37*
G36*
X0Y-402733D02*
X15500Y-402733D01*
X15500Y-410067D01*
X0Y-410067D01*
X0Y-402733D01*
G37*
G36*
X3667Y-406400D02*
X3667Y-421900D01*
X-3667Y-421900D01*
X-3667Y-406400D01*
X3667Y-406400D01*
G37*
G36*
X0Y-410067D02*
X-15500Y-410067D01*
X-15500Y-402733D01*
X0Y-402733D01*
X0Y-410067D01*
G37*
G54D29*
G36*
X-698061Y-612164D02*
X-698061Y-596664D01*
X-690727Y-596664D01*
X-690727Y-612164D01*
X-698061Y-612164D01*
G37*
G36*
X-694394Y-608497D02*
X-678894Y-608497D01*
X-678894Y-615831D01*
X-694394Y-615831D01*
X-694394Y-608497D01*
G37*
G36*
X-690727Y-612164D02*
X-690727Y-627664D01*
X-698061Y-627664D01*
X-698061Y-612164D01*
X-690727Y-612164D01*
G37*
G36*
X-694394Y-615831D02*
X-709894Y-615831D01*
X-709894Y-608497D01*
X-694394Y-608497D01*
X-694394Y-615831D01*
G37*
G54D29*
G36*
X-3667Y-609600D02*
X-3667Y-594100D01*
X3667Y-594100D01*
X3667Y-609600D01*
X-3667Y-609600D01*
G37*
G36*
X0Y-605933D02*
X15500Y-605933D01*
X15500Y-613267D01*
X0Y-613267D01*
X0Y-605933D01*
G37*
G36*
X3667Y-609600D02*
X3667Y-625100D01*
X-3667Y-625100D01*
X-3667Y-609600D01*
X3667Y-609600D01*
G37*
G36*
X0Y-613267D02*
X-15500Y-613267D01*
X-15500Y-605933D01*
X0Y-605933D01*
X0Y-613267D01*
G37*
G54D29*
G36*
X-698061Y-815364D02*
X-698061Y-799864D01*
X-690727Y-799864D01*
X-690727Y-815364D01*
X-698061Y-815364D01*
G37*
G36*
X-694394Y-811697D02*
X-678894Y-811697D01*
X-678894Y-819031D01*
X-694394Y-819031D01*
X-694394Y-811697D01*
G37*
G36*
X-690727Y-815364D02*
X-690727Y-830864D01*
X-698061Y-830864D01*
X-698061Y-815364D01*
X-690727Y-815364D01*
G37*
G36*
X-694394Y-819031D02*
X-709894Y-819031D01*
X-709894Y-811697D01*
X-694394Y-811697D01*
X-694394Y-819031D01*
G37*
G54D29*
G36*
X-3667Y-812800D02*
X-3667Y-797300D01*
X3667Y-797300D01*
X3667Y-812800D01*
X-3667Y-812800D01*
G37*
G36*
X0Y-809133D02*
X15500Y-809133D01*
X15500Y-816467D01*
X0Y-816467D01*
X0Y-809133D01*
G37*
G36*
X3667Y-812800D02*
X3667Y-828300D01*
X-3667Y-828300D01*
X-3667Y-812800D01*
X3667Y-812800D01*
G37*
G36*
X0Y-816467D02*
X-15500Y-816467D01*
X-15500Y-809133D01*
X0Y-809133D01*
X0Y-816467D01*
G37*
G54D30*
G36*
X-699061Y-1018564D02*
X-699061Y-1000064D01*
X-689727Y-1000064D01*
X-689727Y-1018564D01*
X-699061Y-1018564D01*
G37*
G36*
X-694394Y-1013897D02*
X-675894Y-1013897D01*
X-675894Y-1023231D01*
X-694394Y-1023231D01*
X-694394Y-1013897D01*
G37*
G36*
X-689727Y-1018564D02*
X-689727Y-1037064D01*
X-699061Y-1037064D01*
X-699061Y-1018564D01*
X-689727Y-1018564D01*
G37*
G36*
X-694394Y-1023231D02*
X-712894Y-1023231D01*
X-712894Y-1013897D01*
X-694394Y-1013897D01*
X-694394Y-1023231D01*
G37*
G54D29*
G36*
X-3667Y-1016000D02*
X-3667Y-1000500D01*
X3667Y-1000500D01*
X3667Y-1016000D01*
X-3667Y-1016000D01*
G37*
G36*
X0Y-1012333D02*
X15500Y-1012333D01*
X15500Y-1019667D01*
X0Y-1019667D01*
X0Y-1012333D01*
G37*
G36*
X3667Y-1016000D02*
X3667Y-1031500D01*
X-3667Y-1031500D01*
X-3667Y-1016000D01*
X3667Y-1016000D01*
G37*
G36*
X0Y-1019667D02*
X-15500Y-1019667D01*
X-15500Y-1012333D01*
X0Y-1012333D01*
X0Y-1019667D01*
G37*
G54D29*
G36*
X-991417Y-369680D02*
X-975917Y-369680D01*
X-975917Y-377014D01*
X-991417Y-377014D01*
X-991417Y-369680D01*
G37*
G36*
X-987750Y-373347D02*
X-987750Y-388847D01*
X-995084Y-388847D01*
X-995084Y-373347D01*
X-987750Y-373347D01*
G37*
G36*
X-991417Y-377014D02*
X-1006917Y-377014D01*
X-1006917Y-369680D01*
X-991417Y-369680D01*
X-991417Y-377014D01*
G37*
G36*
X-995084Y-373347D02*
X-995084Y-357847D01*
X-987750Y-357847D01*
X-987750Y-373347D01*
X-995084Y-373347D01*
G37*
G54D28*
G36*
X-697211Y-1089988D02*
X-697211Y-1075488D01*
X-685277Y-1075488D01*
X-685277Y-1089988D01*
X-697211Y-1089988D01*
G37*
G36*
X-691244Y-1084021D02*
X-676744Y-1084021D01*
X-676744Y-1095955D01*
X-691244Y-1095955D01*
X-691244Y-1084021D01*
G37*
G36*
X-685277Y-1089988D02*
X-685277Y-1104488D01*
X-697211Y-1104488D01*
X-697211Y-1089988D01*
X-685277Y-1089988D01*
G37*
G36*
X-691244Y-1095955D02*
X-705744Y-1095955D01*
X-705744Y-1084021D01*
X-691244Y-1084021D01*
X-691244Y-1095955D01*
G37*
G54D28*
G36*
X-544811Y-1089988D02*
X-544811Y-1075488D01*
X-532877Y-1075488D01*
X-532877Y-1089988D01*
X-544811Y-1089988D01*
G37*
G36*
X-538844Y-1084021D02*
X-524344Y-1084021D01*
X-524344Y-1095955D01*
X-538844Y-1095955D01*
X-538844Y-1084021D01*
G37*
G36*
X-532877Y-1089988D02*
X-532877Y-1104488D01*
X-544811Y-1104488D01*
X-544811Y-1089988D01*
X-532877Y-1089988D01*
G37*
G36*
X-538844Y-1095955D02*
X-553344Y-1095955D01*
X-553344Y-1084021D01*
X-538844Y-1084021D01*
X-538844Y-1095955D01*
G37*
G54D28*
G36*
X-328911Y-1089988D02*
X-328911Y-1075488D01*
X-316977Y-1075488D01*
X-316977Y-1089988D01*
X-328911Y-1089988D01*
G37*
G36*
X-322944Y-1084021D02*
X-308444Y-1084021D01*
X-308444Y-1095955D01*
X-322944Y-1095955D01*
X-322944Y-1084021D01*
G37*
G36*
X-316977Y-1089988D02*
X-316977Y-1104488D01*
X-328911Y-1104488D01*
X-328911Y-1089988D01*
X-316977Y-1089988D01*
G37*
G36*
X-322944Y-1095955D02*
X-337444Y-1095955D01*
X-337444Y-1084021D01*
X-322944Y-1084021D01*
X-322944Y-1095955D01*
G37*
G54D28*
G36*
X-151111Y-1089988D02*
X-151111Y-1075488D01*
X-139177Y-1075488D01*
X-139177Y-1089988D01*
X-151111Y-1089988D01*
G37*
G36*
X-145144Y-1084021D02*
X-130644Y-1084021D01*
X-130644Y-1095955D01*
X-145144Y-1095955D01*
X-145144Y-1084021D01*
G37*
G36*
X-139177Y-1089988D02*
X-139177Y-1104488D01*
X-151111Y-1104488D01*
X-151111Y-1089988D01*
X-139177Y-1089988D01*
G37*
G36*
X-145144Y-1095955D02*
X-159644Y-1095955D01*
X-159644Y-1084021D01*
X-145144Y-1084021D01*
X-145144Y-1095955D01*
G37*
G54D28*
G36*
X13989Y-1089988D02*
X13989Y-1075488D01*
X25923Y-1075488D01*
X25923Y-1089988D01*
X13989Y-1089988D01*
G37*
G36*
X19956Y-1084021D02*
X34456Y-1084021D01*
X34456Y-1095955D01*
X19956Y-1095955D01*
X19956Y-1084021D01*
G37*
G36*
X25923Y-1089988D02*
X25923Y-1104488D01*
X13989Y-1104488D01*
X13989Y-1089988D01*
X25923Y-1089988D01*
G37*
G36*
X19956Y-1095955D02*
X5456Y-1095955D01*
X5456Y-1084021D01*
X19956Y-1084021D01*
X19956Y-1095955D01*
G37*
G54D29*
G36*
X-760577Y13312D02*
X-760577Y-2188D01*
X-767911Y-2188D01*
X-767911Y13312D01*
X-760577Y13312D01*
G37*
G36*
X-764244Y9645D02*
X-779744Y9645D01*
X-779744Y16979D01*
X-764244Y16979D01*
X-764244Y9645D01*
G37*
G36*
X-767911Y13312D02*
X-767911Y28812D01*
X-760577Y28812D01*
X-760577Y13312D01*
X-767911Y13312D01*
G37*
G36*
X-764244Y16979D02*
X-748744Y16979D01*
X-748744Y9645D01*
X-764244Y9645D01*
X-764244Y16979D01*
G37*
G54D29*
G36*
X-856008Y-123450D02*
X-856008Y-138950D01*
X-863341Y-138950D01*
X-863341Y-123450D01*
X-856008Y-123450D01*
G37*
G36*
X-859674Y-127117D02*
X-875174Y-127117D01*
X-875174Y-119784D01*
X-859674Y-119784D01*
X-859674Y-127117D01*
G37*
G36*
X-863341Y-123450D02*
X-863341Y-107950D01*
X-856008Y-107950D01*
X-856008Y-123450D01*
X-863341Y-123450D01*
G37*
G36*
X-859674Y-119784D02*
X-844174Y-119784D01*
X-844174Y-127117D01*
X-859674Y-127117D01*
X-859674Y-119784D01*
G37*
G54D29*
G36*
X-806039Y30377D02*
X-806039Y14877D01*
X-813372Y14877D01*
X-813372Y30377D01*
X-806039Y30377D01*
G37*
G36*
X-809706Y26710D02*
X-825206Y26710D01*
X-825206Y34044D01*
X-809706Y34044D01*
X-809706Y26710D01*
G37*
G36*
X-813372Y30377D02*
X-813372Y45877D01*
X-806039Y45877D01*
X-806039Y30377D01*
X-813372Y30377D01*
G37*
G36*
X-809706Y34044D02*
X-794206Y34044D01*
X-794206Y26710D01*
X-809706Y26710D01*
X-809706Y34044D01*
G37*
G54D29*
G36*
X-760577Y13312D02*
X-760577Y-2188D01*
X-767911Y-2188D01*
X-767911Y13312D01*
X-760577Y13312D01*
G37*
G36*
X-764244Y9645D02*
X-779744Y9645D01*
X-779744Y16979D01*
X-764244Y16979D01*
X-764244Y9645D01*
G37*
G36*
X-767911Y13312D02*
X-767911Y28812D01*
X-760577Y28812D01*
X-760577Y13312D01*
X-767911Y13312D01*
G37*
G36*
X-764244Y16979D02*
X-748744Y16979D01*
X-748744Y9645D01*
X-764244Y9645D01*
X-764244Y16979D01*
G37*
G54D29*
G36*
X-896688Y-149196D02*
X-896688Y-164696D01*
X-904021Y-164696D01*
X-904021Y-149196D01*
X-896688Y-149196D01*
G37*
G36*
X-900354Y-152862D02*
X-915854Y-152862D01*
X-915854Y-145529D01*
X-900354Y-145529D01*
X-900354Y-152862D01*
G37*
G36*
X-904021Y-149196D02*
X-904021Y-133696D01*
X-896688Y-133696D01*
X-896688Y-149196D01*
X-904021Y-149196D01*
G37*
G36*
X-900354Y-145529D02*
X-884854Y-145529D01*
X-884854Y-152862D01*
X-900354Y-152862D01*
X-900354Y-145529D01*
G37*
G54D29*
G36*
X-760577Y-1002688D02*
X-760577Y-1018188D01*
X-767911Y-1018188D01*
X-767911Y-1002688D01*
X-760577Y-1002688D01*
G37*
G36*
X-764244Y-1006355D02*
X-779744Y-1006355D01*
X-779744Y-999021D01*
X-764244Y-999021D01*
X-764244Y-1006355D01*
G37*
G36*
X-767911Y-1002688D02*
X-767911Y-987188D01*
X-760577Y-987188D01*
X-760577Y-1002688D01*
X-767911Y-1002688D01*
G37*
G36*
X-764244Y-999021D02*
X-748744Y-999021D01*
X-748744Y-1006355D01*
X-764244Y-1006355D01*
X-764244Y-999021D01*
G37*
G54D29*
G36*
X115723Y-1002688D02*
X115723Y-1018188D01*
X108389Y-1018188D01*
X108389Y-1002688D01*
X115723Y-1002688D01*
G37*
G36*
X112056Y-1006355D02*
X96556Y-1006355D01*
X96556Y-999021D01*
X112056Y-999021D01*
X112056Y-1006355D01*
G37*
G36*
X108389Y-1002688D02*
X108389Y-987188D01*
X115723Y-987188D01*
X115723Y-1002688D01*
X108389Y-1002688D01*
G37*
G36*
X112056Y-999021D02*
X127556Y-999021D01*
X127556Y-1006355D01*
X112056Y-1006355D01*
X112056Y-999021D01*
G37*
G54D29*
G36*
X70261Y-985623D02*
X70261Y-1001123D01*
X62928Y-1001123D01*
X62928Y-985623D01*
X70261Y-985623D01*
G37*
G36*
X66594Y-989290D02*
X51094Y-989290D01*
X51094Y-981956D01*
X66594Y-981956D01*
X66594Y-989290D01*
G37*
G36*
X62928Y-985623D02*
X62928Y-970123D01*
X70261Y-970123D01*
X70261Y-985623D01*
X62928Y-985623D01*
G37*
G36*
X66594Y-981956D02*
X82094Y-981956D01*
X82094Y-989290D01*
X66594Y-989290D01*
X66594Y-981956D01*
G37*
G54D29*
G36*
X-868527Y-85238D02*
X-868527Y-100738D01*
X-875861Y-100738D01*
X-875861Y-85238D01*
X-868527Y-85238D01*
G37*
G36*
X-872194Y-88905D02*
X-887694Y-88905D01*
X-887694Y-81571D01*
X-872194Y-81571D01*
X-872194Y-88905D01*
G37*
G36*
X-875861Y-85238D02*
X-875861Y-69738D01*
X-868527Y-69738D01*
X-868527Y-85238D01*
X-875861Y-85238D01*
G37*
G36*
X-872194Y-81571D02*
X-856694Y-81571D01*
X-856694Y-88905D01*
X-872194Y-88905D01*
X-872194Y-81571D01*
G37*
G54D31*
G36*
X239056Y-15188D02*
X258556Y-15188D01*
X258556Y-34388D01*
X239056Y-34388D01*
X239056Y-15188D01*
G37*
G36*
X248656Y-24788D02*
X248656Y-44288D01*
X229456Y-44288D01*
X229456Y-24788D01*
X248656Y-24788D01*
G37*
G36*
X239056Y-34388D02*
X219556Y-34388D01*
X219556Y-15188D01*
X239056Y-15188D01*
X239056Y-34388D01*
G37*
G36*
X229456Y-24788D02*
X229456Y-5288D01*
X248656Y-5288D01*
X248656Y-24788D01*
X229456Y-24788D01*
G37*
G54D31*
G36*
X340656Y-15188D02*
X360156Y-15188D01*
X360156Y-34388D01*
X340656Y-34388D01*
X340656Y-15188D01*
G37*
G36*
X350256Y-24788D02*
X350256Y-44288D01*
X331056Y-44288D01*
X331056Y-24788D01*
X350256Y-24788D01*
G37*
G36*
X340656Y-34388D02*
X321156Y-34388D01*
X321156Y-15188D01*
X340656Y-15188D01*
X340656Y-34388D01*
G37*
G36*
X331056Y-24788D02*
X331056Y-5288D01*
X350256Y-5288D01*
X350256Y-24788D01*
X331056Y-24788D01*
G37*
G54D31*
G36*
X235881Y-237438D02*
X255381Y-237438D01*
X255381Y-256638D01*
X235881Y-256638D01*
X235881Y-237438D01*
G37*
G36*
X245481Y-247038D02*
X245481Y-266538D01*
X226281Y-266538D01*
X226281Y-247038D01*
X245481Y-247038D01*
G37*
G36*
X235881Y-256638D02*
X216381Y-256638D01*
X216381Y-237438D01*
X235881Y-237438D01*
X235881Y-256638D01*
G37*
G36*
X226281Y-247038D02*
X226281Y-227538D01*
X245481Y-227538D01*
X245481Y-247038D01*
X226281Y-247038D01*
G37*
G54D31*
G36*
X337481Y-237438D02*
X356981Y-237438D01*
X356981Y-256638D01*
X337481Y-256638D01*
X337481Y-237438D01*
G37*
G36*
X347081Y-247038D02*
X347081Y-266538D01*
X327881Y-266538D01*
X327881Y-247038D01*
X347081Y-247038D01*
G37*
G36*
X337481Y-256638D02*
X317981Y-256638D01*
X317981Y-237438D01*
X337481Y-237438D01*
X337481Y-256638D01*
G37*
G36*
X327881Y-247038D02*
X327881Y-227538D01*
X347081Y-227538D01*
X347081Y-247038D01*
X327881Y-247038D01*
G37*
G54D31*
G36*
X235881Y-434288D02*
X255381Y-434288D01*
X255381Y-453488D01*
X235881Y-453488D01*
X235881Y-434288D01*
G37*
G36*
X245481Y-443888D02*
X245481Y-463388D01*
X226281Y-463388D01*
X226281Y-443888D01*
X245481Y-443888D01*
G37*
G36*
X235881Y-453488D02*
X216381Y-453488D01*
X216381Y-434288D01*
X235881Y-434288D01*
X235881Y-453488D01*
G37*
G36*
X226281Y-443888D02*
X226281Y-424388D01*
X245481Y-424388D01*
X245481Y-443888D01*
X226281Y-443888D01*
G37*
G54D31*
G36*
X337481Y-434288D02*
X356981Y-434288D01*
X356981Y-453488D01*
X337481Y-453488D01*
X337481Y-434288D01*
G37*
G36*
X347081Y-443888D02*
X347081Y-463388D01*
X327881Y-463388D01*
X327881Y-443888D01*
X347081Y-443888D01*
G37*
G36*
X337481Y-453488D02*
X317981Y-453488D01*
X317981Y-434288D01*
X337481Y-434288D01*
X337481Y-453488D01*
G37*
G36*
X327881Y-443888D02*
X327881Y-424388D01*
X347081Y-424388D01*
X347081Y-443888D01*
X327881Y-443888D01*
G37*
G54D31*
G36*
X235881Y-637488D02*
X255381Y-637488D01*
X255381Y-656688D01*
X235881Y-656688D01*
X235881Y-637488D01*
G37*
G36*
X245481Y-647088D02*
X245481Y-666588D01*
X226281Y-666588D01*
X226281Y-647088D01*
X245481Y-647088D01*
G37*
G36*
X235881Y-656688D02*
X216381Y-656688D01*
X216381Y-637488D01*
X235881Y-637488D01*
X235881Y-656688D01*
G37*
G36*
X226281Y-647088D02*
X226281Y-627588D01*
X245481Y-627588D01*
X245481Y-647088D01*
X226281Y-647088D01*
G37*
G54D31*
G36*
X337481Y-637488D02*
X356981Y-637488D01*
X356981Y-656688D01*
X337481Y-656688D01*
X337481Y-637488D01*
G37*
G36*
X347081Y-647088D02*
X347081Y-666588D01*
X327881Y-666588D01*
X327881Y-647088D01*
X347081Y-647088D01*
G37*
G36*
X337481Y-656688D02*
X317981Y-656688D01*
X317981Y-637488D01*
X337481Y-637488D01*
X337481Y-656688D01*
G37*
G36*
X327881Y-647088D02*
X327881Y-627588D01*
X347081Y-627588D01*
X347081Y-647088D01*
X327881Y-647088D01*
G37*
G54D31*
G36*
X235881Y-821638D02*
X255381Y-821638D01*
X255381Y-840838D01*
X235881Y-840838D01*
X235881Y-821638D01*
G37*
G36*
X245481Y-831238D02*
X245481Y-850738D01*
X226281Y-850738D01*
X226281Y-831238D01*
X245481Y-831238D01*
G37*
G36*
X235881Y-840838D02*
X216381Y-840838D01*
X216381Y-821638D01*
X235881Y-821638D01*
X235881Y-840838D01*
G37*
G36*
X226281Y-831238D02*
X226281Y-811738D01*
X245481Y-811738D01*
X245481Y-831238D01*
X226281Y-831238D01*
G37*
G54D31*
G36*
X337481Y-821638D02*
X356981Y-821638D01*
X356981Y-840838D01*
X337481Y-840838D01*
X337481Y-821638D01*
G37*
G36*
X347081Y-831238D02*
X347081Y-850738D01*
X327881Y-850738D01*
X327881Y-831238D01*
X347081Y-831238D01*
G37*
G36*
X337481Y-840838D02*
X317981Y-840838D01*
X317981Y-821638D01*
X337481Y-821638D01*
X337481Y-840838D01*
G37*
G36*
X327881Y-831238D02*
X327881Y-811738D01*
X347081Y-811738D01*
X347081Y-831238D01*
X327881Y-831238D01*
G37*
G54D31*
G36*
X235881Y-1005788D02*
X255381Y-1005788D01*
X255381Y-1024988D01*
X235881Y-1024988D01*
X235881Y-1005788D01*
G37*
G36*
X245481Y-1015388D02*
X245481Y-1034888D01*
X226281Y-1034888D01*
X226281Y-1015388D01*
X245481Y-1015388D01*
G37*
G36*
X235881Y-1024988D02*
X216381Y-1024988D01*
X216381Y-1005788D01*
X235881Y-1005788D01*
X235881Y-1024988D01*
G37*
G36*
X226281Y-1015388D02*
X226281Y-995888D01*
X245481Y-995888D01*
X245481Y-1015388D01*
X226281Y-1015388D01*
G37*
G54D31*
G36*
X337481Y-1005788D02*
X356981Y-1005788D01*
X356981Y-1024988D01*
X337481Y-1024988D01*
X337481Y-1005788D01*
G37*
G36*
X347081Y-1015388D02*
X347081Y-1034888D01*
X327881Y-1034888D01*
X327881Y-1015388D01*
X347081Y-1015388D01*
G37*
G36*
X337481Y-1024988D02*
X317981Y-1024988D01*
X317981Y-1005788D01*
X337481Y-1005788D01*
X337481Y-1024988D01*
G37*
G36*
X327881Y-1015388D02*
X327881Y-995888D01*
X347081Y-995888D01*
X347081Y-1015388D01*
X327881Y-1015388D01*
G37*
G54D23*
G36*
X423023Y-428038D02*
X423023Y-413538D01*
X429689Y-413538D01*
X429689Y-428038D01*
X423023Y-428038D01*
G37*
G36*
X426356Y-424705D02*
X440856Y-424705D01*
X440856Y-431371D01*
X426356Y-431371D01*
X426356Y-424705D01*
G37*
G36*
X429689Y-428038D02*
X429689Y-442538D01*
X423023Y-442538D01*
X423023Y-428038D01*
X429689Y-428038D01*
G37*
G36*
X426356Y-431371D02*
X411856Y-431371D01*
X411856Y-424705D01*
X426356Y-424705D01*
X426356Y-431371D01*
G37*
G54D23*
G36*
X423023Y-478838D02*
X423023Y-464338D01*
X429689Y-464338D01*
X429689Y-478838D01*
X423023Y-478838D01*
G37*
G36*
X426356Y-475505D02*
X440856Y-475505D01*
X440856Y-482172D01*
X426356Y-482172D01*
X426356Y-475505D01*
G37*
G36*
X429689Y-478838D02*
X429689Y-493338D01*
X423023Y-493338D01*
X423023Y-478838D01*
X429689Y-478838D01*
G37*
G36*
X426356Y-482172D02*
X411856Y-482172D01*
X411856Y-475505D01*
X426356Y-475505D01*
X426356Y-482172D01*
G37*
X-768869Y190387D02*
G54D32*
D03*
X-743369Y190387D02*
G54D32*
D03*
X-578369Y190387D02*
G54D32*
D03*
X-552869Y190387D02*
G54D32*
D03*
X-256244Y102212D02*
G54D32*
D03*
X-186394Y102212D02*
G54D32*
D03*
X-256244Y32362D02*
G54D32*
D03*
X-186394Y32362D02*
G54D32*
D03*
X-186394Y64112D02*
G54D32*
D03*
X-256244Y64112D02*
G54D32*
D03*
X-312353Y110983D02*
G54D32*
D03*
X-363334Y110871D02*
G54D32*
D03*
X-510244Y102212D02*
G54D32*
D03*
X-440394Y102212D02*
G54D32*
D03*
X-510244Y32362D02*
G54D32*
D03*
X-440394Y32362D02*
G54D32*
D03*
X-440394Y64112D02*
G54D32*
D03*
X-510244Y64112D02*
G54D32*
D03*
X-373417Y66885D02*
G54D32*
D03*
X-373304Y15904D02*
G54D32*
D03*
X-309917Y66885D02*
G54D32*
D03*
X-309804Y15904D02*
G54D32*
D03*
X-764244Y13312D02*
G54D33*
D03*
X-764244Y114912D02*
G54D33*
D03*
G54D34*
X-440394Y102212D02*
X-434044Y108562D01*
X-364194Y108562D01*
X-363334Y110871D01*
G54D34*
X-373417Y66885D02*
X-370544Y64112D01*
X-364194Y70462D01*
X-364194Y108562D01*
X-363334Y110871D01*
G54D34*
X-309917Y66885D02*
X-307044Y64112D01*
X-313394Y70462D01*
X-313394Y108562D01*
X-312353Y110983D01*
G54D34*
X-312353Y110983D02*
X-313394Y108562D01*
X-307044Y102212D01*
X-256244Y102212D01*
X-400569Y190387D02*
G54D32*
D03*
X-375069Y190387D02*
G54D32*
D03*
X-184669Y190387D02*
G54D32*
D03*
X-159169Y190387D02*
G54D32*
D03*
X10523Y190495D02*
G54D32*
D03*
X36023Y190495D02*
G54D32*
D03*
X-957944Y-231188D02*
G54D35*
D03*
X-907144Y-231188D02*
G54D35*
D03*
X-932544Y-256588D02*
G54D35*
D03*
X-907144Y-281988D02*
G54D35*
D03*
X-957944Y-281988D02*
G54D35*
D03*
X-957944Y-599488D02*
G54D35*
D03*
X-907144Y-599488D02*
G54D35*
D03*
X-932544Y-624888D02*
G54D35*
D03*
X-907144Y-650288D02*
G54D35*
D03*
X-957944Y-650288D02*
G54D35*
D03*
X-510244Y32362D02*
G54D36*
D03*
X-440394Y32362D02*
G54D36*
D03*
X-373305Y15904D02*
G54D36*
D03*
X-309804Y15904D02*
G54D36*
D03*
X-256244Y32362D02*
G54D36*
D03*
X-186394Y32362D02*
G54D36*
D03*
X-957944Y-231188D02*
G54D36*
D03*
X-907144Y-231188D02*
G54D36*
D03*
X-957944Y-281988D02*
G54D36*
D03*
X-907144Y-281988D02*
G54D36*
D03*
X-957944Y-599488D02*
G54D37*
D03*
X-907144Y-599488D02*
G54D36*
D03*
X-957944Y-650288D02*
G54D36*
D03*
X-907144Y-650288D02*
G54D36*
D03*
X-961094Y-177188D02*
G54D33*
D03*
X-961094Y-75588D02*
G54D33*
D03*
X-900467Y-98215D02*
G54D32*
D03*
X-900354Y-149196D02*
G54D32*
D03*
X-933969Y215787D02*
G54D32*
D03*
X-908469Y215787D02*
G54D32*
D03*
X-961094Y-177188D02*
G54D36*
D03*
G36*
X-713944Y278912D02*
X-693944Y278912D01*
X-693944Y258912D01*
X-713944Y258912D01*
X-713944Y278912D01*
G37*
G36*
X-561544Y278912D02*
X-541544Y278912D01*
X-541544Y258912D01*
X-561544Y258912D01*
X-561544Y278912D01*
G37*
G36*
X-345644Y278912D02*
X-325644Y278912D01*
X-325644Y258912D01*
X-345644Y258912D01*
X-345644Y278912D01*
G37*
G36*
X-167844Y278912D02*
X-147844Y278912D01*
X-147844Y258912D01*
X-167844Y258912D01*
X-167844Y278912D01*
G37*
G36*
X-2744Y278912D02*
X17256Y278912D01*
X17256Y258912D01*
X-2744Y258912D01*
X-2744Y278912D01*
G37*
X183631Y190387D02*
G54D32*
D03*
X209131Y190387D02*
G54D32*
D03*
X-992844Y251312D02*
G54D38*
D03*
X289856Y251312D02*
G54D38*
D03*
X302556Y-1069488D02*
G54D38*
D03*
X-980144Y-1069488D02*
G54D38*
D03*
G36*
X-986044Y113812D02*
X-986044Y93812D01*
X-1006044Y93812D01*
X-1006044Y113812D01*
X-986044Y113812D01*
G37*
G36*
X-986044Y-775188D02*
X-986044Y-795188D01*
X-1006044Y-795188D01*
X-1006044Y-775188D01*
X-986044Y-775188D01*
G37*
X-573744Y-5738D02*
G54D35*
D03*
X-694394Y-2564D02*
G54D35*
D03*
X-573744Y114912D02*
G54D35*
D03*
X-694394Y114912D02*
G54D35*
D03*
X-711856Y54587D02*
G54D35*
D03*
X-809818Y81357D02*
G54D32*
D03*
X-809706Y30377D02*
G54D32*
D03*
X-809706Y30377D02*
G54D35*
D03*
X-120650Y120650D02*
G54D35*
D03*
X0Y117476D02*
G54D35*
D03*
X-120650Y0D02*
G54D35*
D03*
X0Y0D02*
G54D35*
D03*
X20638Y60325D02*
G54D35*
D03*
X112056Y13312D02*
G54D33*
D03*
X112056Y114912D02*
G54D33*
D03*
X66482Y81357D02*
G54D32*
D03*
X66594Y30377D02*
G54D32*
D03*
X66594Y30377D02*
G54D35*
D03*
X-256244Y-100988D02*
G54D32*
D03*
X-186394Y-100988D02*
G54D32*
D03*
X-256244Y-170838D02*
G54D32*
D03*
X-186394Y-170838D02*
G54D32*
D03*
X-186394Y-139088D02*
G54D32*
D03*
X-256244Y-139088D02*
G54D32*
D03*
X-312353Y-92217D02*
G54D32*
D03*
X-363334Y-92329D02*
G54D32*
D03*
X-510244Y-100988D02*
G54D32*
D03*
X-440394Y-100988D02*
G54D32*
D03*
X-510244Y-170838D02*
G54D32*
D03*
X-440394Y-170838D02*
G54D32*
D03*
X-440394Y-139088D02*
G54D32*
D03*
X-510244Y-139088D02*
G54D32*
D03*
X-373417Y-136315D02*
G54D32*
D03*
X-373304Y-187296D02*
G54D32*
D03*
X-309917Y-136315D02*
G54D32*
D03*
X-309804Y-187296D02*
G54D32*
D03*
G54D34*
X-440394Y-100988D02*
X-434044Y-94638D01*
X-364194Y-94638D01*
X-363334Y-92329D01*
G54D34*
X-373417Y-136315D02*
X-370544Y-139088D01*
X-364194Y-132738D01*
X-364194Y-94638D01*
X-363334Y-92329D01*
G54D34*
X-309917Y-136315D02*
X-307044Y-139088D01*
X-313394Y-132738D01*
X-313394Y-94638D01*
X-312353Y-92217D01*
G54D34*
X-312353Y-92217D02*
X-313394Y-94638D01*
X-307044Y-100988D01*
X-256244Y-100988D01*
X-510244Y-170838D02*
G54D36*
D03*
X-440394Y-170838D02*
G54D36*
D03*
X-373305Y-187296D02*
G54D36*
D03*
X-309804Y-187296D02*
G54D36*
D03*
X-256244Y-170838D02*
G54D36*
D03*
X-186394Y-170838D02*
G54D36*
D03*
X-573744Y-208938D02*
G54D35*
D03*
X-694394Y-205764D02*
G54D35*
D03*
X-573744Y-88288D02*
G54D35*
D03*
X-694394Y-88288D02*
G54D35*
D03*
X-711856Y-148613D02*
G54D35*
D03*
X-808694Y-123338D02*
G54D32*
D03*
X-859674Y-123450D02*
G54D32*
D03*
X-120650Y-82550D02*
G54D35*
D03*
X0Y-85724D02*
G54D35*
D03*
X-120650Y-203200D02*
G54D35*
D03*
X0Y-203200D02*
G54D35*
D03*
X20638Y-142875D02*
G54D35*
D03*
X112056Y-189888D02*
G54D33*
D03*
X112056Y-88288D02*
G54D33*
D03*
X66482Y-121843D02*
G54D32*
D03*
X66594Y-172823D02*
G54D32*
D03*
X66594Y-172823D02*
G54D35*
D03*
X-256244Y-304188D02*
G54D32*
D03*
X-186394Y-304188D02*
G54D32*
D03*
X-256244Y-374038D02*
G54D32*
D03*
X-186394Y-374038D02*
G54D32*
D03*
X-186394Y-342288D02*
G54D32*
D03*
X-256244Y-342288D02*
G54D32*
D03*
X-312353Y-295417D02*
G54D32*
D03*
X-363334Y-295529D02*
G54D32*
D03*
X-510244Y-304188D02*
G54D32*
D03*
X-440394Y-304188D02*
G54D32*
D03*
X-510244Y-374038D02*
G54D32*
D03*
X-440394Y-374038D02*
G54D32*
D03*
X-440394Y-342288D02*
G54D32*
D03*
X-510244Y-342288D02*
G54D32*
D03*
X-373417Y-339515D02*
G54D32*
D03*
X-373304Y-390496D02*
G54D32*
D03*
X-309917Y-339515D02*
G54D32*
D03*
X-309804Y-390496D02*
G54D32*
D03*
X-764244Y-393088D02*
G54D33*
D03*
X-764244Y-291488D02*
G54D33*
D03*
G54D34*
X-440394Y-304188D02*
X-434044Y-297838D01*
X-364194Y-297838D01*
X-363334Y-295529D01*
G54D34*
X-373417Y-339515D02*
X-370544Y-342288D01*
X-364194Y-335938D01*
X-364194Y-297838D01*
X-363334Y-295529D01*
G54D34*
X-309917Y-339515D02*
X-307044Y-342288D01*
X-313394Y-335938D01*
X-313394Y-297838D01*
X-312353Y-295417D01*
G54D34*
X-312353Y-295417D02*
X-313394Y-297838D01*
X-307044Y-304188D01*
X-256244Y-304188D01*
X-510244Y-374038D02*
G54D36*
D03*
X-440394Y-374038D02*
G54D36*
D03*
X-373305Y-390496D02*
G54D36*
D03*
X-309804Y-390496D02*
G54D36*
D03*
X-256244Y-374038D02*
G54D36*
D03*
X-186394Y-374038D02*
G54D36*
D03*
X-573744Y-412138D02*
G54D35*
D03*
X-694394Y-408964D02*
G54D35*
D03*
X-573744Y-291488D02*
G54D35*
D03*
X-694394Y-291488D02*
G54D35*
D03*
X-711856Y-351813D02*
G54D35*
D03*
X-809818Y-325043D02*
G54D32*
D03*
X-809706Y-376023D02*
G54D32*
D03*
X-809706Y-376023D02*
G54D35*
D03*
X-120650Y-285750D02*
G54D35*
D03*
X0Y-288924D02*
G54D35*
D03*
X-120650Y-406400D02*
G54D35*
D03*
X0Y-406400D02*
G54D35*
D03*
X20638Y-346075D02*
G54D35*
D03*
X112056Y-393088D02*
G54D33*
D03*
X112056Y-291488D02*
G54D33*
D03*
X66482Y-325043D02*
G54D32*
D03*
X66594Y-376023D02*
G54D32*
D03*
X66594Y-376023D02*
G54D35*
D03*
X-256244Y-507388D02*
G54D32*
D03*
X-186394Y-507388D02*
G54D32*
D03*
X-256244Y-577238D02*
G54D32*
D03*
X-186394Y-577238D02*
G54D32*
D03*
X-186394Y-545488D02*
G54D32*
D03*
X-256244Y-545488D02*
G54D32*
D03*
X-312353Y-498617D02*
G54D32*
D03*
X-363334Y-498729D02*
G54D32*
D03*
X-510244Y-507388D02*
G54D32*
D03*
X-440394Y-507388D02*
G54D32*
D03*
X-510244Y-577238D02*
G54D32*
D03*
X-440394Y-577238D02*
G54D32*
D03*
X-440394Y-545488D02*
G54D32*
D03*
X-510244Y-545488D02*
G54D32*
D03*
X-373417Y-542715D02*
G54D32*
D03*
X-373304Y-593696D02*
G54D32*
D03*
X-309917Y-542715D02*
G54D32*
D03*
X-309804Y-593696D02*
G54D32*
D03*
X-764244Y-596288D02*
G54D33*
D03*
X-764244Y-494688D02*
G54D33*
D03*
G54D34*
X-440394Y-507388D02*
X-434044Y-501038D01*
X-364194Y-501038D01*
X-363334Y-498729D01*
G54D34*
X-373417Y-542715D02*
X-370544Y-545488D01*
X-364194Y-539138D01*
X-364194Y-501038D01*
X-363334Y-498729D01*
G54D34*
X-309917Y-542715D02*
X-307044Y-545488D01*
X-313394Y-539138D01*
X-313394Y-501038D01*
X-312353Y-498617D01*
G54D34*
X-312353Y-498617D02*
X-313394Y-501038D01*
X-307044Y-507388D01*
X-256244Y-507388D01*
X-510244Y-577238D02*
G54D36*
D03*
X-440394Y-577238D02*
G54D36*
D03*
X-373305Y-593696D02*
G54D36*
D03*
X-309804Y-593696D02*
G54D36*
D03*
X-256244Y-577238D02*
G54D36*
D03*
X-186394Y-577238D02*
G54D36*
D03*
X-573744Y-615338D02*
G54D37*
D03*
X-694394Y-612164D02*
G54D37*
D03*
X-573744Y-494688D02*
G54D37*
D03*
X-694394Y-494688D02*
G54D37*
D03*
X-711856Y-555013D02*
G54D37*
D03*
X-809818Y-528243D02*
G54D32*
D03*
X-809706Y-579223D02*
G54D32*
D03*
X-809706Y-579223D02*
G54D35*
D03*
X-120650Y-488950D02*
G54D37*
D03*
X0Y-492124D02*
G54D37*
D03*
X-120650Y-609600D02*
G54D37*
D03*
X0Y-609600D02*
G54D37*
D03*
X17462Y-549275D02*
G54D37*
D03*
X112056Y-596288D02*
G54D33*
D03*
X112056Y-494688D02*
G54D33*
D03*
X66482Y-528243D02*
G54D32*
D03*
X66594Y-579223D02*
G54D32*
D03*
X66594Y-579223D02*
G54D35*
D03*
X-256244Y-710588D02*
G54D32*
D03*
X-186394Y-710588D02*
G54D32*
D03*
X-256244Y-780438D02*
G54D32*
D03*
X-186394Y-780438D02*
G54D32*
D03*
X-186394Y-748688D02*
G54D32*
D03*
X-256244Y-748688D02*
G54D32*
D03*
X-312353Y-701817D02*
G54D32*
D03*
X-363334Y-701929D02*
G54D32*
D03*
X-510244Y-710588D02*
G54D32*
D03*
X-440394Y-710588D02*
G54D32*
D03*
X-510244Y-780438D02*
G54D32*
D03*
X-440394Y-780438D02*
G54D32*
D03*
X-440394Y-748688D02*
G54D32*
D03*
X-510244Y-748688D02*
G54D32*
D03*
X-373417Y-745915D02*
G54D32*
D03*
X-373304Y-796896D02*
G54D32*
D03*
X-309917Y-745915D02*
G54D32*
D03*
X-309804Y-796896D02*
G54D32*
D03*
X-764244Y-799488D02*
G54D33*
D03*
X-764244Y-697888D02*
G54D33*
D03*
G54D34*
X-440394Y-710588D02*
X-434044Y-704238D01*
X-364194Y-704238D01*
X-363334Y-701929D01*
G54D34*
X-373417Y-745915D02*
X-370544Y-748688D01*
X-364194Y-742338D01*
X-364194Y-704238D01*
X-363334Y-701929D01*
G54D34*
X-309917Y-745915D02*
X-307044Y-748688D01*
X-313394Y-742338D01*
X-313394Y-704238D01*
X-312353Y-701817D01*
G54D34*
X-312353Y-701817D02*
X-313394Y-704238D01*
X-307044Y-710588D01*
X-256244Y-710588D01*
X-510244Y-780438D02*
G54D36*
D03*
X-440394Y-780438D02*
G54D36*
D03*
X-373305Y-796896D02*
G54D36*
D03*
X-309804Y-796896D02*
G54D36*
D03*
X-256244Y-780438D02*
G54D36*
D03*
X-186394Y-780438D02*
G54D36*
D03*
X-573744Y-818538D02*
G54D35*
D03*
X-694394Y-815364D02*
G54D35*
D03*
X-573744Y-697888D02*
G54D35*
D03*
X-694394Y-697888D02*
G54D35*
D03*
X-711856Y-758213D02*
G54D35*
D03*
X-809818Y-731442D02*
G54D32*
D03*
X-809706Y-782423D02*
G54D32*
D03*
X-809706Y-782423D02*
G54D35*
D03*
X-120650Y-692150D02*
G54D35*
D03*
X0Y-695324D02*
G54D35*
D03*
X-120650Y-812800D02*
G54D35*
D03*
X0Y-812800D02*
G54D35*
D03*
X17462Y-752475D02*
G54D35*
D03*
X112056Y-799488D02*
G54D33*
D03*
X112056Y-697888D02*
G54D33*
D03*
X66482Y-731442D02*
G54D32*
D03*
X66594Y-782423D02*
G54D32*
D03*
X66594Y-782423D02*
G54D35*
D03*
X-256244Y-913788D02*
G54D32*
D03*
X-186394Y-913788D02*
G54D32*
D03*
X-256244Y-983638D02*
G54D32*
D03*
X-186394Y-983638D02*
G54D32*
D03*
X-186394Y-951888D02*
G54D32*
D03*
X-256244Y-951888D02*
G54D32*
D03*
X-312353Y-905017D02*
G54D32*
D03*
X-363334Y-905129D02*
G54D32*
D03*
X-510244Y-913788D02*
G54D32*
D03*
X-440394Y-913788D02*
G54D32*
D03*
X-510244Y-983638D02*
G54D32*
D03*
X-440394Y-983638D02*
G54D32*
D03*
X-440394Y-951888D02*
G54D32*
D03*
X-510244Y-951888D02*
G54D32*
D03*
X-373417Y-949115D02*
G54D32*
D03*
X-373304Y-1000096D02*
G54D32*
D03*
X-309917Y-949115D02*
G54D32*
D03*
X-309804Y-1000096D02*
G54D32*
D03*
X-764244Y-1002688D02*
G54D33*
D03*
X-764244Y-901088D02*
G54D33*
D03*
G54D34*
X-440394Y-913788D02*
X-434044Y-907438D01*
X-364194Y-907438D01*
X-363334Y-905129D01*
G54D34*
X-373417Y-949115D02*
X-370544Y-951888D01*
X-364194Y-945538D01*
X-364194Y-907438D01*
X-363334Y-905129D01*
G54D34*
X-309917Y-949115D02*
X-307044Y-951888D01*
X-313394Y-945538D01*
X-313394Y-907438D01*
X-312353Y-905017D01*
G54D34*
X-312353Y-905017D02*
X-313394Y-907438D01*
X-307044Y-913788D01*
X-256244Y-913788D01*
X-510244Y-983638D02*
G54D36*
D03*
X-440394Y-983638D02*
G54D36*
D03*
X-373305Y-1000096D02*
G54D36*
D03*
X-309804Y-1000096D02*
G54D36*
D03*
X-256244Y-983638D02*
G54D36*
D03*
X-186394Y-983638D02*
G54D36*
D03*
X-573744Y-1021738D02*
G54D35*
D03*
X-694394Y-1018564D02*
G54D35*
D03*
X-573744Y-901088D02*
G54D35*
D03*
X-694394Y-901088D02*
G54D35*
D03*
X-711856Y-961413D02*
G54D35*
D03*
X-809818Y-934642D02*
G54D32*
D03*
X-809706Y-985623D02*
G54D32*
D03*
X-809706Y-985623D02*
G54D35*
D03*
X-120650Y-895350D02*
G54D35*
D03*
X0Y-898524D02*
G54D35*
D03*
X-120650Y-1016000D02*
G54D35*
D03*
X0Y-1016000D02*
G54D35*
D03*
X17462Y-955675D02*
G54D35*
D03*
X112056Y-1002688D02*
G54D33*
D03*
X112056Y-901088D02*
G54D33*
D03*
X66482Y-934642D02*
G54D32*
D03*
X66594Y-985623D02*
G54D32*
D03*
X66594Y-985623D02*
G54D35*
D03*
X-764244Y-393088D02*
G54D35*
D03*
X-764244Y-596288D02*
G54D35*
D03*
X-764244Y-799488D02*
G54D35*
D03*
X112056Y-1002688D02*
G54D35*
D03*
X112056Y-799488D02*
G54D35*
D03*
X112056Y-596288D02*
G54D35*
D03*
X112056Y-393088D02*
G54D35*
D03*
X112056Y-189888D02*
G54D35*
D03*
X112056Y13312D02*
G54D35*
D03*
X-994591Y-493997D02*
G54D35*
D03*
X-991417Y-373347D02*
G54D35*
D03*
X-873941Y-493997D02*
G54D35*
D03*
X-873941Y-373347D02*
G54D35*
D03*
X-934266Y-362234D02*
G54D35*
D03*
G54D39*
X-817672Y-528869D02*
X-817672Y-528869D01*
G54D39*
X-837172Y-528869D02*
X-837172Y-528869D01*
X-694394Y-2564D02*
G54D40*
D03*
X0Y0D02*
G54D41*
D03*
X-694394Y-205764D02*
G54D41*
D03*
X0Y-203200D02*
G54D35*
D03*
X-694394Y-408964D02*
G54D41*
D03*
X0Y-406400D02*
G54D35*
D03*
X-694394Y-612164D02*
G54D35*
D03*
X0Y-609600D02*
G54D35*
D03*
X-694394Y-815364D02*
G54D41*
D03*
X0Y-812800D02*
G54D41*
D03*
X-694394Y-1018564D02*
G54D42*
D03*
X0Y-1016000D02*
G54D35*
D03*
X-991417Y-373347D02*
G54D35*
D03*
G54D34*
X-809818Y81357D02*
X-808694Y79862D01*
X-770594Y117962D01*
X-764244Y117962D01*
X-764244Y114912D01*
G54D34*
X-694394Y114912D02*
X-694394Y117962D01*
X-764244Y117962D01*
X-764244Y114912D01*
G54D34*
X-573744Y-5738D02*
X-573744Y-2688D01*
X-529294Y41762D01*
X-529294Y73512D01*
X-510244Y92562D01*
X-510244Y105262D01*
X-510244Y102212D01*
G54D34*
X-120650Y120650D02*
X-122894Y117962D01*
X-135594Y105262D01*
X-186394Y105262D01*
X-186394Y102212D01*
G54D34*
X112056Y114912D02*
X112056Y117962D01*
X-2244Y117962D01*
X0Y117476D01*
G54D34*
X66482Y81357D02*
X67606Y79862D01*
X105706Y117962D01*
X112056Y117962D01*
X112056Y114912D01*
G54D34*
X-809818Y-121843D02*
X-808694Y-123338D01*
X-770594Y-85238D01*
X-764244Y-85238D01*
X-764244Y-88288D01*
G54D34*
X-573744Y-208938D02*
X-573744Y-205888D01*
X-529294Y-161438D01*
X-529294Y-129688D01*
X-510244Y-110638D01*
X-510244Y-97938D01*
X-510244Y-100988D01*
G54D34*
X-120650Y-82550D02*
X-122894Y-85238D01*
X-135594Y-97938D01*
X-186394Y-97938D01*
X-186394Y-100988D01*
G54D34*
X112056Y-88288D02*
X112056Y-85238D01*
X-2244Y-85238D01*
X0Y-85724D01*
G54D34*
X66482Y-121843D02*
X67606Y-123338D01*
X105706Y-85238D01*
X112056Y-85238D01*
X112056Y-88288D01*
G54D34*
X-694394Y-88288D02*
X-694394Y-85238D01*
X-764244Y-85238D01*
X-764244Y-88288D01*
G54D34*
X-694394Y-291488D02*
X-694394Y-288438D01*
X-764244Y-288438D01*
X-764244Y-291488D01*
G54D34*
X-809818Y-325043D02*
X-808694Y-326538D01*
X-770594Y-288438D01*
X-764244Y-288438D01*
X-764244Y-291488D01*
G54D34*
X-573744Y-412138D02*
X-573744Y-409088D01*
X-529294Y-364638D01*
X-529294Y-332888D01*
X-510244Y-313838D01*
X-510244Y-301138D01*
X-510244Y-304188D01*
G54D34*
X-120650Y-285750D02*
X-122894Y-288438D01*
X-135594Y-301138D01*
X-186394Y-301138D01*
X-186394Y-304188D01*
G54D34*
X66482Y-325043D02*
X67606Y-326538D01*
X29506Y-288438D01*
X-2244Y-288438D01*
X0Y-288924D01*
G54D34*
X66482Y-325043D02*
X67606Y-326538D01*
X105706Y-288438D01*
X112056Y-288438D01*
X112056Y-291488D01*
G54D34*
X-809818Y-528243D02*
X-808694Y-529738D01*
X-770594Y-491638D01*
X-764244Y-491638D01*
X-764244Y-494688D01*
G54D34*
X-694394Y-494688D02*
X-694394Y-491638D01*
X-764244Y-491638D01*
X-764244Y-494688D01*
G54D34*
X-573744Y-615338D02*
X-573744Y-612288D01*
X-529294Y-567838D01*
X-529294Y-536088D01*
X-510244Y-517038D01*
X-510244Y-504338D01*
X-510244Y-507388D01*
G54D34*
X-120650Y-488950D02*
X-122894Y-491638D01*
X-135594Y-504338D01*
X-186394Y-504338D01*
X-186394Y-507388D01*
G54D34*
X66482Y-528243D02*
X67606Y-529738D01*
X29506Y-491638D01*
X-2244Y-491638D01*
X0Y-492124D01*
G54D34*
X-809818Y-731443D02*
X-808694Y-732938D01*
X-770594Y-694838D01*
X-764244Y-694838D01*
X-764244Y-697888D01*
G54D34*
X-694394Y-697888D02*
X-694394Y-694838D01*
X-764244Y-694838D01*
X-764244Y-697888D01*
G54D34*
X-573744Y-818538D02*
X-573744Y-815488D01*
X-529294Y-771038D01*
X-529294Y-739288D01*
X-510244Y-720238D01*
X-510244Y-707538D01*
X-510244Y-710588D01*
G54D34*
X-120650Y-692150D02*
X-122894Y-694838D01*
X-135594Y-707538D01*
X-186394Y-707538D01*
X-186394Y-710588D01*
G54D34*
X66482Y-731443D02*
X67606Y-732938D01*
X29506Y-694838D01*
X-2244Y-694838D01*
X0Y-695324D01*
G54D34*
X66482Y-731443D02*
X67606Y-732938D01*
X105706Y-694838D01*
X112056Y-694838D01*
X112056Y-697888D01*
G54D34*
X-809818Y-934643D02*
X-808694Y-936138D01*
X-770594Y-898038D01*
X-764244Y-898038D01*
X-764244Y-901088D01*
G54D34*
X-694394Y-901088D02*
X-694394Y-898038D01*
X-764244Y-898038D01*
X-764244Y-901088D01*
G54D34*
X-573744Y-1021738D02*
X-573744Y-1018688D01*
X-529294Y-974238D01*
X-529294Y-942488D01*
X-510244Y-923438D01*
X-510244Y-910738D01*
X-510244Y-913788D01*
G54D34*
X-120650Y-895350D02*
X-122894Y-898038D01*
X-135594Y-910738D01*
X-186394Y-910738D01*
X-186394Y-913788D01*
G54D34*
X66482Y-934643D02*
X67606Y-936138D01*
X29506Y-898038D01*
X-2244Y-898038D01*
X0Y-898524D01*
G54D34*
X66482Y-934643D02*
X67606Y-936138D01*
X105706Y-898038D01*
X112056Y-898038D01*
X112056Y-901088D01*
G54D34*
X66482Y-528243D02*
X67606Y-529738D01*
X105706Y-491638D01*
X112056Y-491638D01*
X112056Y-494688D01*
G54D43*
X-764244Y114912D02*
X-764244Y117962D01*
X-745194Y137012D01*
X-745194Y187812D01*
X-743369Y190387D01*
G54D43*
X112056Y114912D02*
X112056Y117962D01*
X67606Y162412D01*
X-541994Y162412D01*
X-554694Y175112D01*
X-592794Y175112D01*
X-605494Y187812D01*
X-745194Y187812D01*
X-743369Y190387D01*
G54D43*
X-764244Y-494688D02*
X-764244Y-491638D01*
X-707094Y-434488D01*
X-688044Y-434488D01*
X-681694Y-428138D01*
X-662644Y-428138D01*
X-656294Y-421788D01*
X-656294Y16362D01*
X-668994Y29062D01*
X-668994Y73512D01*
X-675344Y79862D01*
X-732494Y79862D01*
X-751544Y60812D01*
X-815044Y60812D01*
X-827744Y73512D01*
X-827744Y92562D01*
X-789644Y130662D01*
X-789644Y194162D01*
X-776944Y206862D01*
X-541994Y206862D01*
X-510244Y175112D01*
X-173694Y175112D01*
X-160994Y187812D01*
X-159169Y190387D01*
G54D43*
X-934266Y-362234D02*
X-935694Y-364638D01*
X-834094Y-263038D01*
X-834094Y-167788D01*
X-827744Y-161438D01*
X-827744Y-110638D01*
X-732494Y-15388D01*
X-732494Y16362D01*
X-707094Y41762D01*
X-707094Y54462D01*
X-705506Y54587D01*
G54D43*
X-934266Y-362234D02*
X-935694Y-364638D01*
X-783294Y-212238D01*
X-757894Y-212238D01*
X-707094Y-161438D01*
X-711856Y-148613D01*
G54D43*
X-934266Y-362234D02*
X-935694Y-364638D01*
X-910294Y-339238D01*
X-853144Y-339238D01*
X-840444Y-351938D01*
X-707094Y-351938D01*
X-705506Y-351813D01*
G54D43*
X-934266Y-362234D02*
X-935694Y-364638D01*
X-827744Y-472588D01*
X-827744Y-536088D01*
X-808694Y-555138D01*
X-707094Y-555138D01*
X-705506Y-555013D01*
G54D43*
X-934266Y-362234D02*
X-935694Y-364638D01*
X-897594Y-402738D01*
X-897594Y-523388D01*
X-827744Y-593238D01*
X-827744Y-739288D01*
X-808694Y-758338D01*
X-707094Y-758338D01*
X-705506Y-758213D01*
G54D43*
X-934266Y-362234D02*
X-935694Y-364638D01*
X-897594Y-402738D01*
X-897594Y-523388D01*
X-834094Y-586888D01*
X-834094Y-790088D01*
X-827744Y-796438D01*
X-827744Y-942488D01*
X-808694Y-961538D01*
X-707094Y-961538D01*
X-705506Y-961413D01*
G54D43*
X-994591Y-493997D02*
X-992844Y-491638D01*
X-980144Y-504338D01*
X-980144Y-605938D01*
X-961094Y-624988D01*
X-935694Y-624988D01*
X-932544Y-624888D01*
G36*
X-701244Y-1079988D02*
X-681244Y-1079988D01*
X-681244Y-1099988D01*
X-701244Y-1099988D01*
X-701244Y-1079988D01*
G37*
G36*
X-548844Y-1079988D02*
X-528844Y-1079988D01*
X-528844Y-1099988D01*
X-548844Y-1099988D01*
X-548844Y-1079988D01*
G37*
G36*
X-332944Y-1079988D02*
X-312944Y-1079988D01*
X-312944Y-1099988D01*
X-332944Y-1099988D01*
X-332944Y-1079988D01*
G37*
G36*
X-155144Y-1079988D02*
X-135144Y-1079988D01*
X-135144Y-1099988D01*
X-155144Y-1099988D01*
X-155144Y-1079988D01*
G37*
G36*
X9956Y-1079988D02*
X29956Y-1079988D01*
X29956Y-1099988D01*
X9956Y-1099988D01*
X9956Y-1079988D01*
G37*
X-764244Y13312D02*
G54D35*
D03*
X-859674Y-123450D02*
G54D35*
D03*
X-809706Y30377D02*
G54D35*
D03*
X-764244Y13312D02*
G54D35*
D03*
G54D43*
X-764244Y-393088D02*
X-764244Y-390038D01*
X-776944Y-377338D01*
X-808694Y-377338D01*
X-809706Y-376023D01*
G54D43*
X-694394Y-408964D02*
X-694394Y-409088D01*
X-713444Y-390038D01*
X-764244Y-390038D01*
X-764244Y-393088D01*
X-900354Y-149196D02*
G54D35*
D03*
X-764244Y-1002688D02*
G54D35*
D03*
X112056Y-1002688D02*
G54D35*
D03*
X66594Y-985623D02*
G54D35*
D03*
X-872194Y-85238D02*
G54D33*
D03*
X-770594Y-85238D02*
G54D33*
D03*
X-872194Y-85238D02*
G54D35*
D03*
G54D43*
X-743369Y190387D02*
X-745194Y187812D01*
X-770594Y187812D01*
X-768869Y190387D01*
G54D43*
X-552869Y190387D02*
X-554694Y187812D01*
X-580094Y187812D01*
X-578369Y190387D01*
G54D43*
X-375069Y190387D02*
X-376894Y187812D01*
X-402294Y187812D01*
X-400569Y190387D01*
G54D43*
X-159169Y190387D02*
X-160994Y187812D01*
X-186394Y187812D01*
X-184669Y190387D01*
G54D43*
X36023Y190495D02*
X35856Y187812D01*
X10456Y187812D01*
X10523Y190495D01*
G54D43*
X209131Y190387D02*
X207306Y187812D01*
X181906Y187812D01*
X183631Y190387D01*
X239056Y76812D02*
G54D44*
D03*
X340656Y76812D02*
G54D35*
D03*
X340656Y76812D02*
G54D44*
D03*
X239056Y76812D02*
G54D44*
D03*
X239056Y-24788D02*
G54D35*
D03*
X239056Y-24788D02*
G54D44*
D03*
X340656Y76812D02*
G54D44*
D03*
X340656Y-24788D02*
G54D35*
D03*
X340656Y-24788D02*
G54D44*
D03*
X235881Y-145438D02*
G54D44*
D03*
X337481Y-145438D02*
G54D35*
D03*
X337481Y-145438D02*
G54D44*
D03*
X235881Y-145438D02*
G54D44*
D03*
X235881Y-247038D02*
G54D35*
D03*
X235881Y-247038D02*
G54D44*
D03*
X337481Y-145438D02*
G54D44*
D03*
X337481Y-247038D02*
G54D35*
D03*
X337481Y-247038D02*
G54D44*
D03*
X235881Y-342288D02*
G54D44*
D03*
X337481Y-342288D02*
G54D35*
D03*
X337481Y-342288D02*
G54D44*
D03*
X235881Y-342288D02*
G54D44*
D03*
X235881Y-443888D02*
G54D35*
D03*
X235881Y-443888D02*
G54D44*
D03*
X337481Y-342288D02*
G54D44*
D03*
X337481Y-443888D02*
G54D35*
D03*
X337481Y-443888D02*
G54D44*
D03*
X235881Y-545488D02*
G54D44*
D03*
X337481Y-545488D02*
G54D35*
D03*
X337481Y-545488D02*
G54D44*
D03*
X235881Y-545488D02*
G54D44*
D03*
X235881Y-647088D02*
G54D35*
D03*
X235881Y-647088D02*
G54D44*
D03*
X337481Y-545488D02*
G54D44*
D03*
X337481Y-647088D02*
G54D35*
D03*
X337481Y-647088D02*
G54D44*
D03*
X235881Y-729638D02*
G54D44*
D03*
X337481Y-729638D02*
G54D35*
D03*
X337481Y-729638D02*
G54D44*
D03*
X235881Y-729638D02*
G54D44*
D03*
X235881Y-831238D02*
G54D35*
D03*
X235881Y-831238D02*
G54D44*
D03*
X337481Y-729638D02*
G54D44*
D03*
X337481Y-831238D02*
G54D35*
D03*
X337481Y-831238D02*
G54D44*
D03*
X235881Y-913788D02*
G54D44*
D03*
X337481Y-913788D02*
G54D35*
D03*
X337481Y-913788D02*
G54D44*
D03*
X235881Y-913788D02*
G54D44*
D03*
X235881Y-1015388D02*
G54D35*
D03*
X235881Y-1015388D02*
G54D44*
D03*
X337481Y-913788D02*
G54D44*
D03*
X337481Y-1015388D02*
G54D35*
D03*
X337481Y-1015388D02*
G54D44*
D03*
X239056Y-24788D02*
G54D44*
D03*
X340656Y-24788D02*
G54D44*
D03*
X235881Y-247038D02*
G54D44*
D03*
X337481Y-247038D02*
G54D44*
D03*
X235881Y-443888D02*
G54D44*
D03*
X337481Y-443888D02*
G54D44*
D03*
X235881Y-647088D02*
G54D44*
D03*
X337481Y-647088D02*
G54D44*
D03*
X235881Y-831238D02*
G54D44*
D03*
X337481Y-831238D02*
G54D44*
D03*
X235881Y-1015388D02*
G54D44*
D03*
X337481Y-1015388D02*
G54D44*
D03*
G54D45*
X340656Y76812D02*
X391456Y26012D01*
X391456Y-405788D01*
X385106Y-443888D01*
X391456Y-456588D01*
G54D45*
X337481Y-342288D02*
X340656Y-342288D01*
X391456Y-393088D01*
X378756Y-431188D01*
X391456Y-456588D01*
X391456Y-507388D01*
G54D45*
X337481Y-545488D02*
X340656Y-545488D01*
X397806Y-472588D01*
X391456Y-456588D01*
X391456Y-405788D01*
G54D45*
X337481Y-729638D02*
X340656Y-723288D01*
X397806Y-653438D01*
X391456Y-545488D01*
X391456Y-418488D01*
X426356Y-428038D02*
G54D35*
D03*
X477156Y-428038D02*
G54D35*
D03*
X451756Y-453438D02*
G54D35*
D03*
X477156Y-478838D02*
G54D35*
D03*
X426356Y-478838D02*
G54D35*
D03*
X426356Y-428038D02*
G54D37*
D03*
X426356Y-478838D02*
G54D36*
D03*
X391456Y-431188D02*
G54D35*
D03*
G54D45*
X239056Y76812D02*
X241300Y76200D01*
X228600Y63500D01*
X25400Y63500D01*
X20638Y60325D01*
G54D45*
X235881Y-145438D02*
X241300Y-139700D01*
X25400Y-139700D01*
X20638Y-142875D01*
G54D45*
X235881Y-342288D02*
X241300Y-342900D01*
X25400Y-342900D01*
X20638Y-346075D01*
G54D45*
X235881Y-545488D02*
X241300Y-546100D01*
X12700Y-546100D01*
X17462Y-549275D01*
G54D45*
X235881Y-729638D02*
X241300Y-723900D01*
X215900Y-749300D01*
X12700Y-749300D01*
X17462Y-752475D01*
G54D45*
X235881Y-913788D02*
X241300Y-914400D01*
X203200Y-952500D01*
X12700Y-952500D01*
X17462Y-955675D01*
G54D45*
X391456Y-431188D02*
X393700Y-431800D01*
X368300Y-457200D01*
X368300Y-850900D01*
X342900Y-876300D01*
X342900Y-914400D01*
X337481Y-913788D01*
M02*
