%FSLAX34Y34*%
%MOMM*%
%LNSOLDERMASK_BOTTOM*%
G71*
G01*
%ADD10C,2.800*%
%ADD11C,2.600*%
%ADD12C,2.600*%
%ADD13C,1.800*%
%LPD*%
X41250Y95350D02*
G54D10*
D03*
X92050Y95350D02*
G54D10*
D03*
X66650Y69950D02*
G54D10*
D03*
X92050Y44550D02*
G54D10*
D03*
X41250Y44550D02*
G54D10*
D03*
X793750Y363600D02*
G54D11*
D03*
X768350Y363600D02*
G54D11*
D03*
X742950Y363600D02*
G54D11*
D03*
X699000Y358806D02*
G54D11*
D03*
X699113Y307825D02*
G54D11*
D03*
X510783Y371297D02*
G54D11*
D03*
X510733Y295047D02*
G54D11*
D03*
X654050Y363600D02*
G54D11*
D03*
X654050Y300100D02*
G54D11*
D03*
X593725Y331850D02*
G54D11*
D03*
X559300Y365156D02*
G54D11*
D03*
X559413Y314175D02*
G54D11*
D03*
X326633Y371297D02*
G54D11*
D03*
X326583Y295047D02*
G54D11*
D03*
X469900Y363600D02*
G54D11*
D03*
X469900Y300100D02*
G54D11*
D03*
X409575Y331850D02*
G54D11*
D03*
X375150Y365156D02*
G54D11*
D03*
X375263Y314175D02*
G54D11*
D03*
G36*
X450550Y82850D02*
X476550Y82850D01*
X476550Y56850D01*
X450550Y56850D01*
X450550Y82850D01*
G37*
G36*
X450550Y57450D02*
X476550Y57450D01*
X476550Y31450D01*
X450550Y31450D01*
X450550Y57450D01*
G37*
G36*
X450550Y108250D02*
X476550Y108250D01*
X476550Y82250D01*
X450550Y82250D01*
X450550Y108250D01*
G37*
G36*
X450550Y-101300D02*
X476550Y-101300D01*
X476550Y-127300D01*
X450550Y-127300D01*
X450550Y-101300D01*
G37*
G36*
X450550Y-126700D02*
X476550Y-126700D01*
X476550Y-152700D01*
X450550Y-152700D01*
X450550Y-126700D01*
G37*
G36*
X450550Y-75900D02*
X476550Y-75900D01*
X476550Y-101900D01*
X450550Y-101900D01*
X450550Y-75900D01*
G37*
X368333Y109208D02*
G54D11*
D03*
X317352Y109095D02*
G54D11*
D03*
X368333Y-97167D02*
G54D11*
D03*
X317352Y-97280D02*
G54D11*
D03*
X368333Y166358D02*
G54D11*
D03*
X317353Y166245D02*
G54D11*
D03*
X381033Y-211467D02*
G54D11*
D03*
X330053Y-211580D02*
G54D11*
D03*
X507031Y199720D02*
G54D11*
D03*
X430781Y199770D02*
G54D11*
D03*
X519731Y-244780D02*
G54D11*
D03*
X443481Y-244730D02*
G54D11*
D03*
X635000Y244600D02*
G54D11*
D03*
X635000Y181100D02*
G54D11*
D03*
X635000Y-218950D02*
G54D11*
D03*
X635000Y-282450D02*
G54D11*
D03*
X746300Y206500D02*
G54D11*
D03*
X711200Y206500D02*
G54D11*
D03*
X759000Y-238000D02*
G54D11*
D03*
X723900Y-238000D02*
G54D11*
D03*
X904059Y354322D02*
G54D11*
D03*
X929559Y354322D02*
G54D11*
D03*
X805393Y171705D02*
G54D11*
D03*
X805443Y247955D02*
G54D11*
D03*
X749300Y28700D02*
G54D11*
D03*
X749300Y-72900D02*
G54D11*
D03*
X850900Y28700D02*
G54D11*
D03*
X850900Y-72900D02*
G54D11*
D03*
X190500Y54100D02*
G54D11*
D03*
X330200Y54100D02*
G54D11*
D03*
X330200Y-34800D02*
G54D11*
D03*
X330200Y9650D02*
G54D11*
D03*
X992959Y354322D02*
G54D11*
D03*
X1018459Y354322D02*
G54D11*
D03*
X768350Y363600D02*
G54D11*
D03*
X699113Y307825D02*
G54D11*
D03*
X654050Y300100D02*
G54D11*
D03*
X469900Y300100D02*
G54D11*
D03*
X559413Y314175D02*
G54D11*
D03*
X375263Y314175D02*
G54D11*
D03*
X850900Y-72900D02*
G54D11*
D03*
X746300Y206500D02*
G54D11*
D03*
X805393Y171705D02*
G54D11*
D03*
X759000Y-238000D02*
G54D11*
D03*
X190500Y-34800D02*
G54D11*
D03*
X330200Y9650D02*
G54D11*
D03*
X904850Y31850D02*
G54D10*
D03*
X955650Y31850D02*
G54D10*
D03*
X930250Y6450D02*
G54D10*
D03*
X955650Y-18950D02*
G54D10*
D03*
X904850Y-18950D02*
G54D10*
D03*
X190500Y9650D02*
G54D11*
D03*
X699113Y307825D02*
G54D11*
D03*
X559413Y314175D02*
G54D11*
D03*
X375263Y314175D02*
G54D11*
D03*
X805393Y171705D02*
G54D11*
D03*
X818093Y-285495D02*
G54D11*
D03*
X818143Y-209245D02*
G54D11*
D03*
X818093Y-285495D02*
G54D11*
D03*
X48870Y-96420D02*
G54D12*
D03*
X99670Y-96420D02*
G54D11*
D03*
X99670Y-159920D02*
G54D11*
D03*
X48870Y-159920D02*
G54D11*
D03*
X99670Y-96420D02*
G54D12*
D03*
X48870Y-159920D02*
G54D12*
D03*
X99670Y-159920D02*
G54D12*
D03*
X38100Y-22100D02*
G54D11*
D03*
X749600Y78800D02*
G54D11*
D03*
X747600Y-117200D02*
G54D11*
D03*
X277600Y-64700D02*
G54D11*
D03*
X278100Y92800D02*
G54D11*
D03*
X1044542Y109405D02*
G54D11*
D03*
X1044542Y83405D02*
G54D11*
D03*
X1044542Y57405D02*
G54D11*
D03*
X1044542Y30405D02*
G54D11*
D03*
X1044542Y3405D02*
G54D11*
D03*
X1045542Y-21595D02*
G54D11*
D03*
X1046542Y-45595D02*
G54D11*
D03*
X1047542Y-71595D02*
G54D11*
D03*
X1048042Y-96595D02*
G54D11*
D03*
X949000Y96000D02*
G54D11*
D03*
X903500Y95500D02*
G54D11*
D03*
X852542Y92405D02*
G54D13*
D03*
X133542Y123405D02*
G54D13*
D03*
X99542Y-47595D02*
G54D13*
D03*
X150542Y-166595D02*
G54D13*
D03*
X349542Y336405D02*
G54D13*
D03*
X533542Y334405D02*
G54D13*
D03*
M02*
