%FSLAX34Y34*%
%MOMM*%
%LNCOPPER_BOTTOM*%
G71*
G01*
%ADD10C,3.000*%
%ADD11C,2.800*%
%ADD12C,3.200*%
%ADD13C,2.400*%
%ADD14C,2.800*%
%ADD15C,2.000*%
%ADD16C,2.300*%
%ADD17C,1.800*%
%ADD18C,1.300*%
%ADD19C,0.733*%
%ADD20C,0.667*%
%ADD21C,0.813*%
%ADD22C,0.767*%
%ADD23C,1.713*%
%ADD24C,2.200*%
%ADD25C,2.000*%
%ADD26C,1.600*%
%ADD27C,2.000*%
%ADD28C,1.200*%
%ADD29C,1.500*%
%ADD30C,1.000*%
%ADD31C,0.500*%
%LPD*%
G36*
X-722844Y145181D02*
X377156Y145181D01*
X377156Y-634819D01*
X-722844Y-634819D01*
X-722844Y145181D01*
G37*
%LPC*%
X-654813Y-129388D02*
G54D10*
D03*
X-604013Y-129388D02*
G54D10*
D03*
X-629413Y-154788D02*
G54D10*
D03*
X-604013Y-180188D02*
G54D10*
D03*
X-654813Y-180188D02*
G54D10*
D03*
X-564715Y-389880D02*
G54D11*
D03*
X-539315Y-389880D02*
G54D11*
D03*
X-513915Y-389880D02*
G54D11*
D03*
X-469966Y-394674D02*
G54D12*
D03*
X-470078Y-445655D02*
G54D12*
D03*
X-281748Y-382183D02*
G54D12*
D03*
X-281698Y-458433D02*
G54D12*
D03*
X-425015Y-389880D02*
G54D11*
D03*
X-425015Y-453380D02*
G54D11*
D03*
X-364690Y-421630D02*
G54D11*
D03*
X-330532Y-439494D02*
G54D12*
D03*
X-330419Y-388514D02*
G54D12*
D03*
X-282983Y12379D02*
G54D12*
D03*
X-282933Y-63871D02*
G54D12*
D03*
X-426250Y4682D02*
G54D11*
D03*
X-426250Y-58818D02*
G54D11*
D03*
X-365925Y-27068D02*
G54D11*
D03*
X-331500Y6238D02*
G54D12*
D03*
X-331613Y-44743D02*
G54D12*
D03*
G36*
X-202650Y-141650D02*
X-174650Y-141650D01*
X-174650Y-169650D01*
X-202650Y-169650D01*
X-202650Y-141650D01*
G37*
G36*
X-202650Y-171813D02*
X-174650Y-171813D01*
X-174650Y-199813D01*
X-202650Y-199813D01*
X-202650Y-171813D01*
G37*
G36*
X-202650Y-111488D02*
X-174650Y-111488D01*
X-174650Y-139488D01*
X-202650Y-139488D01*
X-202650Y-111488D01*
G37*
G36*
X-202650Y-325800D02*
X-174650Y-325800D01*
X-174650Y-353800D01*
X-202650Y-353800D01*
X-202650Y-325800D01*
G37*
G36*
X-202650Y-355963D02*
X-174650Y-355963D01*
X-174650Y-383963D01*
X-202650Y-383963D01*
X-202650Y-355963D01*
G37*
G36*
X-202650Y-295638D02*
X-174650Y-295638D01*
X-174650Y-323638D01*
X-202650Y-323638D01*
X-202650Y-295638D01*
G37*
X-230867Y-129292D02*
G54D12*
D03*
X-281848Y-129405D02*
G54D12*
D03*
X-231867Y-317668D02*
G54D12*
D03*
X-282848Y-317780D02*
G54D12*
D03*
X-228328Y-85560D02*
G54D12*
D03*
X-228441Y-34580D02*
G54D12*
D03*
X-230507Y-409092D02*
G54D12*
D03*
X-230619Y-358112D02*
G54D12*
D03*
X-180007Y-29495D02*
G54D12*
D03*
X-179957Y46755D02*
G54D12*
D03*
X-176307Y-506995D02*
G54D12*
D03*
X-176257Y-430745D02*
G54D12*
D03*
X-76200Y38100D02*
G54D11*
D03*
X-76200Y-25400D02*
G54D11*
D03*
X-79200Y-459450D02*
G54D11*
D03*
X-79200Y-522950D02*
G54D11*
D03*
X42243Y0D02*
G54D11*
D03*
X0Y0D02*
G54D11*
D03*
X45531Y-478500D02*
G54D11*
D03*
X1700Y-478500D02*
G54D11*
D03*
X77644Y101294D02*
G54D12*
D03*
X52144Y101294D02*
G54D12*
D03*
X112193Y-33795D02*
G54D12*
D03*
X112243Y42455D02*
G54D12*
D03*
G36*
X-440506Y-150356D02*
X-412506Y-150356D01*
X-412506Y-178356D01*
X-440506Y-178356D01*
X-440506Y-150356D01*
G37*
G36*
X-296313Y-153432D02*
X-268313Y-153432D01*
X-268313Y-181432D01*
X-296313Y-181432D01*
X-296313Y-153432D01*
G37*
G36*
X-294725Y-251856D02*
X-266725Y-251856D01*
X-266725Y-279856D01*
X-294725Y-279856D01*
X-294725Y-251856D01*
G37*
X-280725Y-212675D02*
G54D11*
D03*
X-539315Y-389880D02*
G54D11*
D03*
X-470078Y-445655D02*
G54D11*
D03*
X-425015Y-453380D02*
G54D11*
D03*
X-426250Y-58818D02*
G54D11*
D03*
X-330419Y-388514D02*
G54D11*
D03*
X-331613Y-44743D02*
G54D11*
D03*
X42243Y0D02*
G54D11*
D03*
X112193Y-33795D02*
G54D11*
D03*
X45531Y-478500D02*
G54D11*
D03*
G36*
X-440506Y-250369D02*
X-412506Y-250369D01*
X-412506Y-278369D01*
X-440506Y-278369D01*
X-440506Y-250369D01*
G37*
G36*
X-440506Y-200363D02*
X-412506Y-200363D01*
X-412506Y-228363D01*
X-440506Y-228363D01*
X-440506Y-200363D01*
G37*
X-470078Y-445655D02*
G54D11*
D03*
X-330419Y-388514D02*
G54D11*
D03*
X-331613Y-44743D02*
G54D11*
D03*
X112193Y-33795D02*
G54D11*
D03*
X115750Y-525750D02*
G54D12*
D03*
X115800Y-449500D02*
G54D12*
D03*
G54D13*
X108481Y-192932D02*
X105038Y-203944D01*
X63762Y-225375D01*
X-36249Y-223788D01*
X-80699Y-223788D01*
X-125150Y-222200D01*
X-155338Y-222238D01*
X-156900Y-187100D01*
X-158200Y-159500D01*
X-188650Y-158700D01*
X-188650Y-155650D01*
G54D13*
X108481Y-292944D02*
X106625Y-280144D01*
X78350Y-263125D01*
X-31488Y-265188D01*
X-146200Y-262888D01*
X-155200Y-304500D01*
X-155200Y-336500D01*
X-188650Y-342850D01*
X-188650Y-339800D01*
X-655780Y-266383D02*
G54D14*
D03*
X-604980Y-266383D02*
G54D11*
D03*
X-604980Y-329883D02*
G54D11*
D03*
X-655780Y-329883D02*
G54D11*
D03*
X-604980Y-266383D02*
G54D14*
D03*
X-655780Y-329883D02*
G54D14*
D03*
X-604980Y-329883D02*
G54D14*
D03*
X-695838Y-182125D02*
G54D11*
D03*
X-448746Y-529370D02*
G54D15*
D03*
X-538233Y-525470D02*
G54D15*
D03*
X-367804Y-71725D02*
G54D15*
D03*
X-304507Y-419075D02*
G54D15*
D03*
G54D16*
X-469965Y-394674D02*
X-466965Y-393480D01*
X-514965Y-393480D01*
X-513915Y-389880D01*
X-570100Y682D02*
G54D11*
D03*
X-544700Y682D02*
G54D11*
D03*
X-519300Y682D02*
G54D11*
D03*
X-473350Y888D02*
G54D12*
D03*
X-473463Y-50093D02*
G54D12*
D03*
X-544700Y682D02*
G54D11*
D03*
X-473463Y-50093D02*
G54D11*
D03*
X-473463Y-50093D02*
G54D11*
D03*
X-661504Y-426666D02*
G54D12*
D03*
X-687004Y-426666D02*
G54D12*
D03*
G54D16*
X-473350Y888D02*
X-476200Y-1500D01*
X-516200Y-1500D01*
X-519300Y682D01*
G54D17*
X-179957Y46755D02*
X-180200Y46500D01*
X-228200Y-1500D01*
X-228200Y-33500D01*
X-228440Y-34579D01*
G54D16*
X-228328Y-85560D02*
X-228200Y-89500D01*
X-228200Y-129500D01*
X-230867Y-129292D01*
G54D16*
X-281848Y-129405D02*
X-284200Y-129500D01*
X-284200Y-65500D01*
X-282932Y-63870D01*
G54D16*
X-180007Y-29495D02*
X-180200Y-25500D01*
X-204200Y-49500D01*
X-155200Y-92500D01*
X-156200Y-106500D01*
X-158200Y-159500D01*
X-188650Y-155650D01*
X-188200Y-153500D01*
X-188650Y-155650D01*
G54D16*
X-76200Y-25400D02*
X-76200Y-25500D01*
X-180200Y-25500D01*
X-180007Y-29495D01*
G54D16*
X0Y0D02*
X3800Y-1500D01*
X-36200Y38500D01*
X-76200Y38500D01*
X-76200Y38100D01*
G54D16*
X112243Y42455D02*
X115800Y38500D01*
X99800Y22500D01*
X27800Y22500D01*
X3800Y-1500D01*
X0Y0D01*
G54D16*
X111943Y-446745D02*
X115800Y-449500D01*
X27800Y-449500D01*
X3800Y-473500D01*
X3800Y-481500D01*
X1700Y-478500D01*
G54D16*
X1700Y-478500D02*
X3800Y-481500D01*
X-36200Y-521500D01*
X-76200Y-521500D01*
X-79200Y-522950D01*
G54D16*
X-176257Y-430745D02*
X-180200Y-433500D01*
X-204200Y-409500D01*
X-228200Y-409500D01*
X-230507Y-409092D01*
G54D16*
X-230619Y-358111D02*
X-228200Y-361500D01*
X-228200Y-321500D01*
X-231867Y-317667D01*
G54D16*
X-231867Y-317667D02*
X-228200Y-321500D01*
X-220200Y-313500D01*
X-188200Y-313500D01*
X-188650Y-314400D01*
G54D16*
X-176257Y-430745D02*
X-180200Y-433500D01*
X-188200Y-425500D01*
X-155200Y-374500D01*
X-155200Y-336500D01*
X-188200Y-337500D01*
X-188650Y-339800D01*
G54D16*
X-230867Y-129292D02*
X-228200Y-129500D01*
X-188200Y-129500D01*
X-188650Y-130250D01*
G54D16*
X-282848Y-317780D02*
X-283900Y-314400D01*
X-283900Y-377900D01*
X-281748Y-382183D01*
X77796Y-579826D02*
G54D12*
D03*
X52296Y-579826D02*
G54D12*
D03*
X112243Y42455D02*
G54D11*
D03*
X-656741Y-37728D02*
G54D12*
D03*
X-682241Y-37728D02*
G54D12*
D03*
G54D16*
X-683728Y11484D02*
X-577675Y10450D01*
X-570100Y682D01*
G54D16*
X-688491Y-388566D02*
X-564715Y-389880D01*
X115750Y-525750D02*
G54D11*
D03*
G54D16*
X-473350Y888D02*
X-477050Y4682D01*
X-426250Y4682D01*
G54D16*
X-331500Y6238D02*
X-337350Y4682D01*
X-362750Y-20718D01*
X-365925Y-27068D01*
G54D16*
X-331500Y6238D02*
X-337350Y4682D01*
X-324650Y17382D01*
X-286550Y17382D01*
X-282982Y12379D01*
G54D16*
X-425015Y-389880D02*
X-426250Y-389018D01*
X-464350Y-389018D01*
X-469965Y-394675D01*
G54D16*
X-330531Y-439495D02*
X-324650Y-439818D01*
X-337350Y-427118D01*
X-362750Y-427118D01*
X-364690Y-421630D01*
G54D16*
X-330531Y-439495D02*
X-324650Y-439818D01*
X-311950Y-452518D01*
X-286550Y-452518D01*
X-281698Y-458433D01*
G36*
X-294725Y-198675D02*
X-266725Y-198675D01*
X-266725Y-226675D01*
X-294725Y-226675D01*
X-294725Y-198675D01*
G37*
G54D16*
X-282312Y-167432D02*
X-282312Y-129332D01*
X-281848Y-129405D01*
G54D16*
X-280725Y-265857D02*
X-282312Y-269032D01*
X-282312Y-319832D01*
X-282848Y-317780D01*
G36*
X94481Y-178932D02*
X122481Y-178932D01*
X122481Y-206932D01*
X94481Y-206932D01*
X94481Y-178932D01*
G37*
G36*
X94481Y-278944D02*
X122481Y-278944D01*
X122481Y-306944D01*
X94481Y-306944D01*
X94481Y-278944D01*
G37*
G36*
X218306Y-180519D02*
X246306Y-180519D01*
X246306Y-208519D01*
X218306Y-208519D01*
X218306Y-180519D01*
G37*
X232306Y-297706D02*
G54D11*
D03*
G54D16*
X-695838Y-182126D02*
X-699824Y-187276D01*
X-649024Y-238076D01*
X-598224Y-238076D01*
X-572824Y-263476D01*
X-420424Y-263476D01*
X-426506Y-264369D01*
G54D16*
X-683728Y11484D02*
X-683728Y-36240D01*
X-682241Y-37728D01*
G54D16*
X-688491Y-388566D02*
X-688491Y-425178D01*
X-687004Y-426666D01*
X-278904Y44162D02*
G54D15*
D03*
X-278904Y-494000D02*
G54D15*
D03*
X-367804Y-465425D02*
G54D15*
D03*
G54D18*
X-278904Y44162D02*
X-280724Y41324D01*
X-280724Y9574D01*
X-282982Y12379D01*
G54D18*
X-367804Y-71726D02*
X-369624Y-72976D01*
X-363274Y-66626D01*
X-363274Y-28526D01*
X-365925Y-27068D01*
G54D18*
X-367804Y-465426D02*
X-369624Y-466676D01*
X-363274Y-460326D01*
X-363274Y-422226D01*
X-364690Y-421630D01*
G54D18*
X-304507Y-419075D02*
X-306124Y-422226D01*
X-325174Y-441276D01*
X-331524Y-441276D01*
X-330531Y-439495D01*
X210046Y-166975D02*
G54D15*
D03*
G36*
X335514Y115649D02*
X363514Y115649D01*
X363514Y87649D01*
X335514Y87649D01*
X335514Y115649D01*
G37*
G36*
X-175661Y-603488D02*
X-147661Y-603488D01*
X-147661Y-631488D01*
X-175661Y-631488D01*
X-175661Y-603488D01*
G37*
G36*
X329958Y-591582D02*
X357958Y-591582D01*
X357958Y-619582D01*
X329958Y-619582D01*
X329958Y-591582D01*
G37*
G54D18*
X210046Y-166975D02*
X212988Y-166638D01*
X232038Y-185688D01*
X232038Y-192038D01*
X232306Y-194519D01*
X286575Y-218288D02*
G54D10*
D03*
X337375Y-218288D02*
G54D10*
D03*
X311975Y-243688D02*
G54D10*
D03*
X337375Y-269088D02*
G54D10*
D03*
X286575Y-269088D02*
G54D10*
D03*
G54D13*
X232306Y-198488D02*
X232306Y-235962D01*
X246326Y-249982D01*
X246326Y-246807D01*
X251088Y-242044D01*
X306363Y-242044D01*
X311975Y-243688D01*
G54D16*
X-617274Y-153938D02*
X-436925Y-153938D01*
X-426506Y-164356D01*
G36*
X218306Y-283706D02*
X246306Y-283706D01*
X246306Y-311706D01*
X218306Y-311706D01*
X218306Y-283706D01*
G37*
G54D18*
X-278904Y-494000D02*
X-281518Y-494457D01*
X-281518Y-456357D01*
X-281698Y-458433D01*
G54D16*
X52144Y101294D02*
X53404Y101294D01*
X70907Y62756D01*
X112243Y42455D01*
G54D16*
X52296Y-579826D02*
X52296Y-513004D01*
X115800Y-449500D01*
%LPD*%
G54D19*
G36*
X-658479Y-129388D02*
X-658479Y-113888D01*
X-651146Y-113888D01*
X-651146Y-129388D01*
X-658479Y-129388D01*
G37*
G36*
X-654813Y-125721D02*
X-639313Y-125721D01*
X-639313Y-133054D01*
X-654813Y-133054D01*
X-654813Y-125721D01*
G37*
G36*
X-651146Y-129388D02*
X-651146Y-144888D01*
X-658479Y-144888D01*
X-658479Y-129388D01*
X-651146Y-129388D01*
G37*
G36*
X-654813Y-133054D02*
X-670313Y-133054D01*
X-670313Y-125721D01*
X-654813Y-125721D01*
X-654813Y-133054D01*
G37*
G54D19*
G36*
X-607679Y-129388D02*
X-607679Y-113888D01*
X-600346Y-113888D01*
X-600346Y-129388D01*
X-607679Y-129388D01*
G37*
G36*
X-604013Y-125721D02*
X-588513Y-125721D01*
X-588513Y-133054D01*
X-604013Y-133054D01*
X-604013Y-125721D01*
G37*
G36*
X-600346Y-129388D02*
X-600346Y-144888D01*
X-607679Y-144888D01*
X-607679Y-129388D01*
X-600346Y-129388D01*
G37*
G36*
X-604013Y-133054D02*
X-619513Y-133054D01*
X-619513Y-125721D01*
X-604013Y-125721D01*
X-604013Y-133054D01*
G37*
G54D19*
G36*
X-607679Y-180188D02*
X-607679Y-164688D01*
X-600346Y-164688D01*
X-600346Y-180188D01*
X-607679Y-180188D01*
G37*
G36*
X-604013Y-176521D02*
X-588513Y-176521D01*
X-588513Y-183854D01*
X-604013Y-183854D01*
X-604013Y-176521D01*
G37*
G36*
X-600346Y-180188D02*
X-600346Y-195688D01*
X-607679Y-195688D01*
X-607679Y-180188D01*
X-600346Y-180188D01*
G37*
G36*
X-604013Y-183854D02*
X-619513Y-183854D01*
X-619513Y-176521D01*
X-604013Y-176521D01*
X-604013Y-183854D01*
G37*
G54D19*
G36*
X-658479Y-180188D02*
X-658479Y-164688D01*
X-651146Y-164688D01*
X-651146Y-180188D01*
X-658479Y-180188D01*
G37*
G36*
X-654813Y-176521D02*
X-639313Y-176521D01*
X-639313Y-183854D01*
X-654813Y-183854D01*
X-654813Y-176521D01*
G37*
G36*
X-651146Y-180188D02*
X-651146Y-195688D01*
X-658479Y-195688D01*
X-658479Y-180188D01*
X-651146Y-180188D01*
G37*
G36*
X-654813Y-183854D02*
X-670313Y-183854D01*
X-670313Y-176521D01*
X-654813Y-176521D01*
X-654813Y-183854D01*
G37*
G54D20*
G36*
X-188650Y-182479D02*
X-174150Y-182479D01*
X-174150Y-189146D01*
X-188650Y-189146D01*
X-188650Y-182479D01*
G37*
G36*
X-185317Y-185813D02*
X-185317Y-200313D01*
X-191984Y-200313D01*
X-191984Y-185813D01*
X-185317Y-185813D01*
G37*
G54D20*
G36*
X-191984Y-369963D02*
X-191984Y-355463D01*
X-185317Y-355463D01*
X-185317Y-369963D01*
X-191984Y-369963D01*
G37*
G36*
X-188650Y-366629D02*
X-174150Y-366629D01*
X-174150Y-373296D01*
X-188650Y-373296D01*
X-188650Y-366629D01*
G37*
G36*
X-185317Y-369963D02*
X-185317Y-384463D01*
X-191984Y-384463D01*
X-191984Y-369963D01*
X-185317Y-369963D01*
G37*
G36*
X-188650Y-373296D02*
X-203150Y-373296D01*
X-203150Y-366629D01*
X-188650Y-366629D01*
X-188650Y-373296D01*
G37*
G54D20*
G36*
X80977Y101294D02*
X80977Y84794D01*
X74310Y84794D01*
X74310Y101294D01*
X80977Y101294D01*
G37*
G54D21*
G54D22*
G36*
X-535482Y-389880D02*
X-535482Y-404380D01*
X-543148Y-404380D01*
X-543148Y-389880D01*
X-535482Y-389880D01*
G37*
G36*
X-539315Y-393714D02*
X-553815Y-393714D01*
X-553815Y-386047D01*
X-539315Y-386047D01*
X-539315Y-393714D01*
G37*
G36*
X-543148Y-389880D02*
X-543148Y-375380D01*
X-535482Y-375380D01*
X-535482Y-389880D01*
X-543148Y-389880D01*
G37*
G36*
X-539315Y-386047D02*
X-524815Y-386047D01*
X-524815Y-393714D01*
X-539315Y-393714D01*
X-539315Y-386047D01*
G37*
G54D22*
G36*
X-466245Y-445655D02*
X-466245Y-460155D01*
X-473911Y-460155D01*
X-473911Y-445655D01*
X-466245Y-445655D01*
G37*
G36*
X-470078Y-449488D02*
X-484578Y-449488D01*
X-484578Y-441822D01*
X-470078Y-441822D01*
X-470078Y-449488D01*
G37*
G36*
X-473911Y-445655D02*
X-473911Y-431155D01*
X-466245Y-431155D01*
X-466245Y-445655D01*
X-473911Y-445655D01*
G37*
G36*
X-470078Y-441822D02*
X-455578Y-441822D01*
X-455578Y-449488D01*
X-470078Y-449488D01*
X-470078Y-441822D01*
G37*
G54D22*
G36*
X-421182Y-453380D02*
X-421182Y-467880D01*
X-428848Y-467880D01*
X-428848Y-453380D01*
X-421182Y-453380D01*
G37*
G36*
X-425015Y-457214D02*
X-439515Y-457214D01*
X-439515Y-449547D01*
X-425015Y-449547D01*
X-425015Y-457214D01*
G37*
G36*
X-428848Y-453380D02*
X-428848Y-438880D01*
X-421182Y-438880D01*
X-421182Y-453380D01*
X-428848Y-453380D01*
G37*
G36*
X-425015Y-449547D02*
X-410515Y-449547D01*
X-410515Y-457214D01*
X-425015Y-457214D01*
X-425015Y-449547D01*
G37*
G54D22*
G36*
X-422416Y-58818D02*
X-422416Y-73318D01*
X-430083Y-73318D01*
X-430083Y-58818D01*
X-422416Y-58818D01*
G37*
G36*
X-426250Y-62651D02*
X-440750Y-62651D01*
X-440750Y-54984D01*
X-426250Y-54984D01*
X-426250Y-62651D01*
G37*
G36*
X-430083Y-58818D02*
X-430083Y-44318D01*
X-422416Y-44318D01*
X-422416Y-58818D01*
X-430083Y-58818D01*
G37*
G36*
X-426250Y-54984D02*
X-411750Y-54984D01*
X-411750Y-62651D01*
X-426250Y-62651D01*
X-426250Y-54984D01*
G37*
G54D22*
G36*
X-334252Y-388514D02*
X-334252Y-374014D01*
X-326586Y-374014D01*
X-326586Y-388514D01*
X-334252Y-388514D01*
G37*
G36*
X-330419Y-384681D02*
X-315919Y-384681D01*
X-315919Y-392347D01*
X-330419Y-392347D01*
X-330419Y-384681D01*
G37*
G36*
X-326586Y-388514D02*
X-326586Y-403014D01*
X-334252Y-403014D01*
X-334252Y-388514D01*
X-326586Y-388514D01*
G37*
G36*
X-330419Y-392347D02*
X-344919Y-392347D01*
X-344919Y-384681D01*
X-330419Y-384681D01*
X-330419Y-392347D01*
G37*
G54D22*
G36*
X-327779Y-44743D02*
X-327779Y-59243D01*
X-335446Y-59243D01*
X-335446Y-44743D01*
X-327779Y-44743D01*
G37*
G36*
X-331613Y-48576D02*
X-346113Y-48576D01*
X-346113Y-40909D01*
X-331613Y-40909D01*
X-331613Y-48576D01*
G37*
G36*
X-335446Y-44743D02*
X-335446Y-30243D01*
X-327779Y-30243D01*
X-327779Y-44743D01*
X-335446Y-44743D01*
G37*
G36*
X-331613Y-40909D02*
X-317113Y-40909D01*
X-317113Y-48576D01*
X-331613Y-48576D01*
X-331613Y-40909D01*
G37*
G54D22*
G36*
X38410Y0D02*
X38410Y14500D01*
X46077Y14500D01*
X46077Y0D01*
X38410Y0D01*
G37*
G36*
X42243Y3833D02*
X56743Y3833D01*
X56743Y-3834D01*
X42243Y-3834D01*
X42243Y3833D01*
G37*
G36*
X46077Y0D02*
X46077Y-14500D01*
X38410Y-14500D01*
X38410Y0D01*
X46077Y0D01*
G37*
G36*
X42243Y-3834D02*
X27743Y-3834D01*
X27743Y3833D01*
X42243Y3833D01*
X42243Y-3834D01*
G37*
G54D22*
G36*
X108360Y-33795D02*
X108360Y-19295D01*
X116026Y-19295D01*
X116026Y-33795D01*
X108360Y-33795D01*
G37*
G36*
X112193Y-29962D02*
X126693Y-29962D01*
X126693Y-37629D01*
X112193Y-37629D01*
X112193Y-29962D01*
G37*
G36*
X116026Y-33795D02*
X116026Y-48295D01*
X108360Y-48295D01*
X108360Y-33795D01*
X116026Y-33795D01*
G37*
G36*
X112193Y-37629D02*
X97693Y-37629D01*
X97693Y-29962D01*
X112193Y-29962D01*
X112193Y-37629D01*
G37*
G54D22*
G36*
X41698Y-478500D02*
X41698Y-464000D01*
X49364Y-464000D01*
X49364Y-478500D01*
X41698Y-478500D01*
G37*
G36*
X45531Y-474667D02*
X60031Y-474667D01*
X60031Y-482334D01*
X45531Y-482334D01*
X45531Y-474667D01*
G37*
G36*
X49364Y-478500D02*
X49364Y-493000D01*
X41698Y-493000D01*
X41698Y-478500D01*
X49364Y-478500D01*
G37*
G36*
X45531Y-482334D02*
X31031Y-482334D01*
X31031Y-474667D01*
X45531Y-474667D01*
X45531Y-482334D01*
G37*
G54D22*
G36*
X-430340Y-214363D02*
X-430340Y-199863D01*
X-422673Y-199863D01*
X-422673Y-214363D01*
X-430340Y-214363D01*
G37*
G36*
X-426506Y-210529D02*
X-412006Y-210529D01*
X-412006Y-218196D01*
X-426506Y-218196D01*
X-426506Y-210529D01*
G37*
G36*
X-422673Y-214363D02*
X-422673Y-228863D01*
X-430340Y-228863D01*
X-430340Y-214363D01*
X-422673Y-214363D01*
G37*
G36*
X-426506Y-218196D02*
X-441006Y-218196D01*
X-441006Y-210529D01*
X-426506Y-210529D01*
X-426506Y-218196D01*
G37*
G54D23*
G36*
X-461511Y-445655D02*
X-461511Y-460155D01*
X-478645Y-460155D01*
X-478645Y-445655D01*
X-461511Y-445655D01*
G37*
G36*
X-470078Y-454222D02*
X-484578Y-454222D01*
X-484578Y-437089D01*
X-470078Y-437089D01*
X-470078Y-454222D01*
G37*
G36*
X-478645Y-445655D02*
X-478645Y-431155D01*
X-461511Y-431155D01*
X-461511Y-445655D01*
X-478645Y-445655D01*
G37*
G36*
X-470078Y-437089D02*
X-455578Y-437089D01*
X-455578Y-454222D01*
X-470078Y-454222D01*
X-470078Y-437089D01*
G37*
G54D23*
G36*
X-338986Y-388514D02*
X-338986Y-374014D01*
X-321852Y-374014D01*
X-321852Y-388514D01*
X-338986Y-388514D01*
G37*
G36*
X-330419Y-379947D02*
X-315919Y-379947D01*
X-315919Y-397081D01*
X-330419Y-397081D01*
X-330419Y-379947D01*
G37*
G36*
X-321852Y-388514D02*
X-321852Y-403014D01*
X-338986Y-403014D01*
X-338986Y-388514D01*
X-321852Y-388514D01*
G37*
G36*
X-330419Y-397081D02*
X-344919Y-397081D01*
X-344919Y-379947D01*
X-330419Y-379947D01*
X-330419Y-397081D01*
G37*
G54D23*
G36*
X-323046Y-44743D02*
X-323046Y-59243D01*
X-340179Y-59243D01*
X-340179Y-44743D01*
X-323046Y-44743D01*
G37*
G36*
X-331613Y-53309D02*
X-346113Y-53309D01*
X-346113Y-36176D01*
X-331613Y-36176D01*
X-331613Y-53309D01*
G37*
G36*
X-340179Y-44743D02*
X-340179Y-30243D01*
X-323046Y-30243D01*
X-323046Y-44743D01*
X-340179Y-44743D01*
G37*
G36*
X-331613Y-36176D02*
X-317113Y-36176D01*
X-317113Y-53309D01*
X-331613Y-53309D01*
X-331613Y-36176D01*
G37*
G54D23*
G36*
X103626Y-33795D02*
X103626Y-19295D01*
X120760Y-19295D01*
X120760Y-33795D01*
X103626Y-33795D01*
G37*
G36*
X112193Y-25229D02*
X126693Y-25229D01*
X126693Y-42362D01*
X112193Y-42362D01*
X112193Y-25229D01*
G37*
G36*
X120760Y-33795D02*
X120760Y-48295D01*
X103626Y-48295D01*
X103626Y-33795D01*
X120760Y-33795D01*
G37*
G36*
X112193Y-42362D02*
X97693Y-42362D01*
X97693Y-25229D01*
X112193Y-25229D01*
X112193Y-42362D01*
G37*
G54D22*
G36*
X-540866Y682D02*
X-540866Y-13818D01*
X-548533Y-13818D01*
X-548533Y682D01*
X-540866Y682D01*
G37*
G36*
X-544700Y-3151D02*
X-559200Y-3151D01*
X-559200Y4516D01*
X-544700Y4516D01*
X-544700Y-3151D01*
G37*
G36*
X-548533Y682D02*
X-548533Y15182D01*
X-540866Y15182D01*
X-540866Y682D01*
X-548533Y682D01*
G37*
G36*
X-544700Y4516D02*
X-530200Y4516D01*
X-530200Y-3151D01*
X-544700Y-3151D01*
X-544700Y4516D01*
G37*
G54D22*
G36*
X-469629Y-50093D02*
X-469629Y-64593D01*
X-477296Y-64593D01*
X-477296Y-50093D01*
X-469629Y-50093D01*
G37*
G36*
X-473463Y-53926D02*
X-487963Y-53926D01*
X-487963Y-46259D01*
X-473463Y-46259D01*
X-473463Y-53926D01*
G37*
G36*
X-477296Y-50093D02*
X-477296Y-35593D01*
X-469629Y-35593D01*
X-469629Y-50093D01*
X-477296Y-50093D01*
G37*
G36*
X-473463Y-46259D02*
X-458963Y-46259D01*
X-458963Y-53926D01*
X-473463Y-53926D01*
X-473463Y-46259D01*
G37*
G54D23*
G36*
X-464896Y-50093D02*
X-464896Y-64593D01*
X-482029Y-64593D01*
X-482029Y-50093D01*
X-464896Y-50093D01*
G37*
G36*
X-473463Y-58659D02*
X-487963Y-58659D01*
X-487963Y-41526D01*
X-473463Y-41526D01*
X-473463Y-58659D01*
G37*
G36*
X-482029Y-50093D02*
X-482029Y-35593D01*
X-464896Y-35593D01*
X-464896Y-50093D01*
X-482029Y-50093D01*
G37*
G36*
X-473463Y-41526D02*
X-458963Y-41526D01*
X-458963Y-58659D01*
X-473463Y-58659D01*
X-473463Y-41526D01*
G37*
G54D20*
G36*
X-658170Y-426666D02*
X-658170Y-443166D01*
X-664837Y-443166D01*
X-664837Y-426666D01*
X-658170Y-426666D01*
G37*
G54D21*
G54D20*
G36*
X81129Y-579826D02*
X81129Y-596326D01*
X74462Y-596326D01*
X74462Y-579826D01*
X81129Y-579826D01*
G37*
G54D21*
G54D20*
G36*
X-653407Y-37728D02*
X-653407Y-54228D01*
X-660074Y-54228D01*
X-660074Y-37728D01*
X-653407Y-37728D01*
G37*
G54D21*
G54D23*
G36*
X107183Y-525750D02*
X107183Y-511250D01*
X124316Y-511250D01*
X124316Y-525750D01*
X107183Y-525750D01*
G37*
G36*
X115750Y-517184D02*
X130250Y-517184D01*
X130250Y-534317D01*
X115750Y-534317D01*
X115750Y-517184D01*
G37*
G36*
X124316Y-525750D02*
X124316Y-540250D01*
X107183Y-540250D01*
X107183Y-525750D01*
X124316Y-525750D01*
G37*
G36*
X115750Y-534317D02*
X101250Y-534317D01*
X101250Y-517184D01*
X115750Y-517184D01*
X115750Y-534317D01*
G37*
G54D22*
G36*
X-284559Y-212675D02*
X-284559Y-198175D01*
X-276892Y-198175D01*
X-276892Y-212675D01*
X-284559Y-212675D01*
G37*
G36*
X-280725Y-208842D02*
X-266225Y-208842D01*
X-266225Y-216509D01*
X-280725Y-216509D01*
X-280725Y-208842D01*
G37*
G36*
X-276892Y-212675D02*
X-276892Y-227175D01*
X-284559Y-227175D01*
X-284559Y-212675D01*
X-276892Y-212675D01*
G37*
G36*
X-280725Y-216509D02*
X-295225Y-216509D01*
X-295225Y-208842D01*
X-280725Y-208842D01*
X-280725Y-216509D01*
G37*
G54D20*
G36*
X346180Y101649D02*
X346180Y116149D01*
X352847Y116149D01*
X352847Y101649D01*
X346180Y101649D01*
G37*
G36*
X349514Y104983D02*
X364014Y104983D01*
X364014Y98316D01*
X349514Y98316D01*
X349514Y104983D01*
G37*
G36*
X352847Y101649D02*
X352847Y87149D01*
X346180Y87149D01*
X346180Y101649D01*
X352847Y101649D01*
G37*
G36*
X349514Y98316D02*
X335014Y98316D01*
X335014Y104983D01*
X349514Y104983D01*
X349514Y98316D01*
G37*
G54D20*
G36*
X-164995Y-617488D02*
X-164995Y-602988D01*
X-158328Y-602988D01*
X-158328Y-617488D01*
X-164995Y-617488D01*
G37*
G36*
X-161661Y-614155D02*
X-147161Y-614155D01*
X-147161Y-620822D01*
X-161661Y-620822D01*
X-161661Y-614155D01*
G37*
G36*
X-158328Y-617488D02*
X-158328Y-631988D01*
X-164995Y-631988D01*
X-164995Y-617488D01*
X-158328Y-617488D01*
G37*
G36*
X-161661Y-620822D02*
X-176161Y-620822D01*
X-176161Y-614155D01*
X-161661Y-614155D01*
X-161661Y-620822D01*
G37*
G54D20*
G36*
X340624Y-605582D02*
X340624Y-591082D01*
X347291Y-591082D01*
X347291Y-605582D01*
X340624Y-605582D01*
G37*
G36*
X343958Y-602249D02*
X358458Y-602249D01*
X358458Y-608915D01*
X343958Y-608915D01*
X343958Y-602249D01*
G37*
G36*
X347291Y-605582D02*
X347291Y-620082D01*
X340624Y-620082D01*
X340624Y-605582D01*
X347291Y-605582D01*
G37*
G36*
X343958Y-608915D02*
X329458Y-608915D01*
X329458Y-602249D01*
X343958Y-602249D01*
X343958Y-608915D01*
G37*
G54D19*
G36*
X282908Y-218288D02*
X282908Y-202788D01*
X290241Y-202788D01*
X290241Y-218288D01*
X282908Y-218288D01*
G37*
G36*
X286575Y-214621D02*
X302075Y-214621D01*
X302075Y-221954D01*
X286575Y-221954D01*
X286575Y-214621D01*
G37*
G36*
X290241Y-218288D02*
X290241Y-233788D01*
X282908Y-233788D01*
X282908Y-218288D01*
X290241Y-218288D01*
G37*
G36*
X286575Y-221954D02*
X271075Y-221954D01*
X271075Y-214621D01*
X286575Y-214621D01*
X286575Y-221954D01*
G37*
G54D19*
G36*
X333708Y-218288D02*
X333708Y-202788D01*
X341041Y-202788D01*
X341041Y-218288D01*
X333708Y-218288D01*
G37*
G36*
X337375Y-214621D02*
X352875Y-214621D01*
X352875Y-221954D01*
X337375Y-221954D01*
X337375Y-214621D01*
G37*
G36*
X341041Y-218288D02*
X341041Y-233788D01*
X333708Y-233788D01*
X333708Y-218288D01*
X341041Y-218288D01*
G37*
G36*
X337375Y-221954D02*
X321875Y-221954D01*
X321875Y-214621D01*
X337375Y-214621D01*
X337375Y-221954D01*
G37*
G54D19*
G36*
X333708Y-269088D02*
X333708Y-253588D01*
X341041Y-253588D01*
X341041Y-269088D01*
X333708Y-269088D01*
G37*
G36*
X337375Y-265421D02*
X352875Y-265421D01*
X352875Y-272754D01*
X337375Y-272754D01*
X337375Y-265421D01*
G37*
G36*
X341041Y-269088D02*
X341041Y-284588D01*
X333708Y-284588D01*
X333708Y-269088D01*
X341041Y-269088D01*
G37*
G36*
X337375Y-272754D02*
X321875Y-272754D01*
X321875Y-265421D01*
X337375Y-265421D01*
X337375Y-272754D01*
G37*
G54D19*
G36*
X282908Y-269088D02*
X282908Y-253588D01*
X290241Y-253588D01*
X290241Y-269088D01*
X282908Y-269088D01*
G37*
G36*
X286575Y-265421D02*
X302075Y-265421D01*
X302075Y-272754D01*
X286575Y-272754D01*
X286575Y-265421D01*
G37*
G36*
X290241Y-269088D02*
X290241Y-284588D01*
X282908Y-284588D01*
X282908Y-269088D01*
X290241Y-269088D01*
G37*
G36*
X286575Y-272754D02*
X271075Y-272754D01*
X271075Y-265421D01*
X286575Y-265421D01*
X286575Y-272754D01*
G37*
G54D22*
G36*
X228473Y-297706D02*
X228473Y-283206D01*
X236139Y-283206D01*
X236139Y-297706D01*
X228473Y-297706D01*
G37*
G36*
X232306Y-293873D02*
X246806Y-293873D01*
X246806Y-301540D01*
X232306Y-301540D01*
X232306Y-293873D01*
G37*
G36*
X236139Y-297706D02*
X236139Y-312206D01*
X228473Y-312206D01*
X228473Y-297706D01*
X236139Y-297706D01*
G37*
G36*
X232306Y-301540D02*
X217806Y-301540D01*
X217806Y-293873D01*
X232306Y-293873D01*
X232306Y-301540D01*
G37*
X-654813Y-129388D02*
G54D24*
D03*
X-604013Y-129388D02*
G54D24*
D03*
X-629413Y-154788D02*
G54D24*
D03*
X-604013Y-180188D02*
G54D24*
D03*
X-654813Y-180188D02*
G54D24*
D03*
X-564715Y-389880D02*
G54D25*
D03*
X-539315Y-389880D02*
G54D25*
D03*
X-513915Y-389880D02*
G54D25*
D03*
X-469966Y-394674D02*
G54D25*
D03*
X-470078Y-445655D02*
G54D25*
D03*
X-281748Y-382183D02*
G54D25*
D03*
X-281698Y-458433D02*
G54D25*
D03*
X-425015Y-389880D02*
G54D25*
D03*
X-425015Y-453380D02*
G54D25*
D03*
X-364690Y-421630D02*
G54D25*
D03*
X-330532Y-439494D02*
G54D25*
D03*
X-330419Y-388514D02*
G54D25*
D03*
X-282983Y12379D02*
G54D25*
D03*
X-282933Y-63871D02*
G54D25*
D03*
X-426250Y4682D02*
G54D25*
D03*
X-426250Y-58818D02*
G54D25*
D03*
X-365925Y-27068D02*
G54D25*
D03*
X-331500Y6238D02*
G54D25*
D03*
X-331613Y-44743D02*
G54D25*
D03*
G36*
X-198650Y-145650D02*
X-178650Y-145650D01*
X-178650Y-165650D01*
X-198650Y-165650D01*
X-198650Y-145650D01*
G37*
G36*
X-198650Y-175813D02*
X-178650Y-175813D01*
X-178650Y-195813D01*
X-198650Y-195813D01*
X-198650Y-175813D01*
G37*
G36*
X-198650Y-115488D02*
X-178650Y-115488D01*
X-178650Y-135488D01*
X-198650Y-135488D01*
X-198650Y-115488D01*
G37*
G36*
X-198650Y-329800D02*
X-178650Y-329800D01*
X-178650Y-349800D01*
X-198650Y-349800D01*
X-198650Y-329800D01*
G37*
G36*
X-198650Y-359963D02*
X-178650Y-359963D01*
X-178650Y-379963D01*
X-198650Y-379963D01*
X-198650Y-359963D01*
G37*
G36*
X-198650Y-299638D02*
X-178650Y-299638D01*
X-178650Y-319638D01*
X-198650Y-319638D01*
X-198650Y-299638D01*
G37*
X-230867Y-129292D02*
G54D25*
D03*
X-281848Y-129405D02*
G54D25*
D03*
X-231867Y-317668D02*
G54D25*
D03*
X-282848Y-317780D02*
G54D25*
D03*
X-228328Y-85560D02*
G54D25*
D03*
X-228441Y-34580D02*
G54D25*
D03*
X-230507Y-409092D02*
G54D25*
D03*
X-230619Y-358112D02*
G54D25*
D03*
X-180007Y-29495D02*
G54D25*
D03*
X-179957Y46755D02*
G54D25*
D03*
X-176307Y-506995D02*
G54D25*
D03*
X-176257Y-430745D02*
G54D25*
D03*
X-76200Y38100D02*
G54D25*
D03*
X-76200Y-25400D02*
G54D25*
D03*
X-79200Y-459450D02*
G54D25*
D03*
X-79200Y-522950D02*
G54D25*
D03*
X42243Y0D02*
G54D25*
D03*
X0Y0D02*
G54D25*
D03*
X45531Y-478500D02*
G54D25*
D03*
X1700Y-478500D02*
G54D25*
D03*
X77644Y101294D02*
G54D25*
D03*
X52144Y101294D02*
G54D25*
D03*
X112193Y-33795D02*
G54D25*
D03*
X112243Y42455D02*
G54D25*
D03*
G36*
X-436506Y-154356D02*
X-416506Y-154356D01*
X-416506Y-174356D01*
X-436506Y-174356D01*
X-436506Y-154356D01*
G37*
G36*
X-292313Y-157432D02*
X-272313Y-157432D01*
X-272313Y-177432D01*
X-292313Y-177432D01*
X-292313Y-157432D01*
G37*
G36*
X-290725Y-255856D02*
X-270725Y-255856D01*
X-270725Y-275856D01*
X-290725Y-275856D01*
X-290725Y-255856D01*
G37*
X-280725Y-212675D02*
G54D25*
D03*
X-539315Y-389880D02*
G54D25*
D03*
X-470078Y-445655D02*
G54D25*
D03*
X-425015Y-453380D02*
G54D25*
D03*
X-426250Y-58818D02*
G54D25*
D03*
X-330419Y-388514D02*
G54D25*
D03*
X-331613Y-44743D02*
G54D25*
D03*
X42243Y0D02*
G54D25*
D03*
X112193Y-33795D02*
G54D25*
D03*
X45531Y-478500D02*
G54D25*
D03*
G36*
X-436506Y-254369D02*
X-416506Y-254369D01*
X-416506Y-274369D01*
X-436506Y-274369D01*
X-436506Y-254369D01*
G37*
G36*
X-436506Y-204363D02*
X-416506Y-204363D01*
X-416506Y-224363D01*
X-436506Y-224363D01*
X-436506Y-204363D01*
G37*
X-470078Y-445655D02*
G54D25*
D03*
X-330419Y-388514D02*
G54D25*
D03*
X-331613Y-44743D02*
G54D25*
D03*
X112193Y-33795D02*
G54D25*
D03*
X115750Y-525750D02*
G54D25*
D03*
X115800Y-449500D02*
G54D25*
D03*
G54D26*
X108481Y-192932D02*
X105038Y-203944D01*
X63762Y-225375D01*
X-36249Y-223788D01*
X-80699Y-223788D01*
X-125150Y-222200D01*
X-155338Y-222238D01*
X-156900Y-187100D01*
X-158200Y-159500D01*
X-188650Y-158700D01*
X-188650Y-155650D01*
G54D26*
X108481Y-292944D02*
X106625Y-280144D01*
X78350Y-263125D01*
X-31488Y-265188D01*
X-146200Y-262888D01*
X-155200Y-304500D01*
X-155200Y-336500D01*
X-188650Y-342850D01*
X-188650Y-339800D01*
X-655780Y-266383D02*
G54D27*
D03*
X-604980Y-266383D02*
G54D25*
D03*
X-604980Y-329883D02*
G54D25*
D03*
X-655780Y-329883D02*
G54D25*
D03*
X-604980Y-266383D02*
G54D27*
D03*
X-655780Y-329883D02*
G54D27*
D03*
X-604980Y-329883D02*
G54D27*
D03*
X-695838Y-182125D02*
G54D25*
D03*
X-448746Y-529370D02*
G54D28*
D03*
X-538233Y-525470D02*
G54D28*
D03*
X-367804Y-71725D02*
G54D28*
D03*
X-304507Y-419075D02*
G54D28*
D03*
G54D29*
X-469965Y-394674D02*
X-466965Y-393480D01*
X-514965Y-393480D01*
X-513915Y-389880D01*
X-570100Y682D02*
G54D25*
D03*
X-544700Y682D02*
G54D25*
D03*
X-519300Y682D02*
G54D25*
D03*
X-473350Y888D02*
G54D25*
D03*
X-473463Y-50093D02*
G54D25*
D03*
X-544700Y682D02*
G54D25*
D03*
X-473463Y-50093D02*
G54D25*
D03*
X-473463Y-50093D02*
G54D25*
D03*
X-661504Y-426666D02*
G54D25*
D03*
X-687004Y-426666D02*
G54D25*
D03*
G54D29*
X-473350Y888D02*
X-476200Y-1500D01*
X-516200Y-1500D01*
X-519300Y682D01*
G54D30*
X-179957Y46755D02*
X-180200Y46500D01*
X-228200Y-1500D01*
X-228200Y-33500D01*
X-228440Y-34579D01*
G54D29*
X-228328Y-85560D02*
X-228200Y-89500D01*
X-228200Y-129500D01*
X-230867Y-129292D01*
G54D29*
X-281848Y-129405D02*
X-284200Y-129500D01*
X-284200Y-65500D01*
X-282932Y-63870D01*
G54D29*
X-180007Y-29495D02*
X-180200Y-25500D01*
X-204200Y-49500D01*
X-155200Y-92500D01*
X-156200Y-106500D01*
X-158200Y-159500D01*
X-188650Y-155650D01*
X-188200Y-153500D01*
X-188650Y-155650D01*
G54D29*
X-76200Y-25400D02*
X-76200Y-25500D01*
X-180200Y-25500D01*
X-180007Y-29495D01*
G54D29*
X0Y0D02*
X3800Y-1500D01*
X-36200Y38500D01*
X-76200Y38500D01*
X-76200Y38100D01*
G54D29*
X112243Y42455D02*
X115800Y38500D01*
X99800Y22500D01*
X27800Y22500D01*
X3800Y-1500D01*
X0Y0D01*
G54D29*
X111943Y-446745D02*
X115800Y-449500D01*
X27800Y-449500D01*
X3800Y-473500D01*
X3800Y-481500D01*
X1700Y-478500D01*
G54D29*
X1700Y-478500D02*
X3800Y-481500D01*
X-36200Y-521500D01*
X-76200Y-521500D01*
X-79200Y-522950D01*
G54D29*
X-176257Y-430745D02*
X-180200Y-433500D01*
X-204200Y-409500D01*
X-228200Y-409500D01*
X-230507Y-409092D01*
G54D29*
X-230619Y-358111D02*
X-228200Y-361500D01*
X-228200Y-321500D01*
X-231867Y-317667D01*
G54D29*
X-231867Y-317667D02*
X-228200Y-321500D01*
X-220200Y-313500D01*
X-188200Y-313500D01*
X-188650Y-314400D01*
G54D29*
X-176257Y-430745D02*
X-180200Y-433500D01*
X-188200Y-425500D01*
X-155200Y-374500D01*
X-155200Y-336500D01*
X-188200Y-337500D01*
X-188650Y-339800D01*
G54D29*
X-230867Y-129292D02*
X-228200Y-129500D01*
X-188200Y-129500D01*
X-188650Y-130250D01*
G54D29*
X-282848Y-317780D02*
X-283900Y-314400D01*
X-283900Y-377900D01*
X-281748Y-382183D01*
X77796Y-579826D02*
G54D25*
D03*
X52296Y-579826D02*
G54D25*
D03*
X112243Y42455D02*
G54D25*
D03*
X-656741Y-37728D02*
G54D25*
D03*
X-682241Y-37728D02*
G54D25*
D03*
G54D29*
X-683728Y11484D02*
X-577675Y10450D01*
X-570100Y682D01*
G54D29*
X-688491Y-388566D02*
X-564715Y-389880D01*
X115750Y-525750D02*
G54D25*
D03*
G54D29*
X-473350Y888D02*
X-477050Y4682D01*
X-426250Y4682D01*
G54D29*
X-331500Y6238D02*
X-337350Y4682D01*
X-362750Y-20718D01*
X-365925Y-27068D01*
G54D29*
X-331500Y6238D02*
X-337350Y4682D01*
X-324650Y17382D01*
X-286550Y17382D01*
X-282982Y12379D01*
G54D29*
X-425015Y-389880D02*
X-426250Y-389018D01*
X-464350Y-389018D01*
X-469965Y-394675D01*
G54D29*
X-330531Y-439495D02*
X-324650Y-439818D01*
X-337350Y-427118D01*
X-362750Y-427118D01*
X-364690Y-421630D01*
G54D29*
X-330531Y-439495D02*
X-324650Y-439818D01*
X-311950Y-452518D01*
X-286550Y-452518D01*
X-281698Y-458433D01*
G36*
X-290725Y-202675D02*
X-270725Y-202675D01*
X-270725Y-222675D01*
X-290725Y-222675D01*
X-290725Y-202675D01*
G37*
G54D29*
X-282312Y-167432D02*
X-282312Y-129332D01*
X-281848Y-129405D01*
G54D29*
X-280725Y-265857D02*
X-282312Y-269032D01*
X-282312Y-319832D01*
X-282848Y-317780D01*
G36*
X98481Y-182932D02*
X118481Y-182932D01*
X118481Y-202932D01*
X98481Y-202932D01*
X98481Y-182932D01*
G37*
G36*
X98481Y-282944D02*
X118481Y-282944D01*
X118481Y-302944D01*
X98481Y-302944D01*
X98481Y-282944D01*
G37*
G36*
X222306Y-184519D02*
X242306Y-184519D01*
X242306Y-204519D01*
X222306Y-204519D01*
X222306Y-184519D01*
G37*
X232306Y-297706D02*
G54D25*
D03*
G54D29*
X-695838Y-182126D02*
X-699824Y-187276D01*
X-649024Y-238076D01*
X-598224Y-238076D01*
X-572824Y-263476D01*
X-420424Y-263476D01*
X-426506Y-264369D01*
G54D29*
X-683728Y11484D02*
X-683728Y-36240D01*
X-682241Y-37728D01*
G54D29*
X-688491Y-388566D02*
X-688491Y-425178D01*
X-687004Y-426666D01*
X-278904Y44162D02*
G54D28*
D03*
X-278904Y-494000D02*
G54D28*
D03*
X-367804Y-465425D02*
G54D28*
D03*
G54D31*
X-278904Y44162D02*
X-280724Y41324D01*
X-280724Y9574D01*
X-282982Y12379D01*
G54D31*
X-367804Y-71726D02*
X-369624Y-72976D01*
X-363274Y-66626D01*
X-363274Y-28526D01*
X-365925Y-27068D01*
G54D31*
X-367804Y-465426D02*
X-369624Y-466676D01*
X-363274Y-460326D01*
X-363274Y-422226D01*
X-364690Y-421630D01*
G54D31*
X-304507Y-419075D02*
X-306124Y-422226D01*
X-325174Y-441276D01*
X-331524Y-441276D01*
X-330531Y-439495D01*
X210046Y-166975D02*
G54D28*
D03*
G36*
X339514Y111649D02*
X359514Y111649D01*
X359514Y91649D01*
X339514Y91649D01*
X339514Y111649D01*
G37*
G36*
X-171661Y-607488D02*
X-151661Y-607488D01*
X-151661Y-627488D01*
X-171661Y-627488D01*
X-171661Y-607488D01*
G37*
G36*
X333958Y-595582D02*
X353958Y-595582D01*
X353958Y-615582D01*
X333958Y-615582D01*
X333958Y-595582D01*
G37*
G54D31*
X210046Y-166975D02*
X212988Y-166638D01*
X232038Y-185688D01*
X232038Y-192038D01*
X232306Y-194519D01*
X286575Y-218288D02*
G54D24*
D03*
X337375Y-218288D02*
G54D24*
D03*
X311975Y-243688D02*
G54D24*
D03*
X337375Y-269088D02*
G54D24*
D03*
X286575Y-269088D02*
G54D24*
D03*
G54D26*
X232306Y-198488D02*
X232306Y-235962D01*
X246326Y-249982D01*
X246326Y-246807D01*
X251088Y-242044D01*
X306363Y-242044D01*
X311975Y-243688D01*
G54D29*
X-617274Y-153938D02*
X-436925Y-153938D01*
X-426506Y-164356D01*
G36*
X222306Y-287706D02*
X242306Y-287706D01*
X242306Y-307706D01*
X222306Y-307706D01*
X222306Y-287706D01*
G37*
G54D31*
X-278904Y-494000D02*
X-281518Y-494457D01*
X-281518Y-456357D01*
X-281698Y-458433D01*
G54D29*
X52144Y101294D02*
X53404Y101294D01*
X70907Y62756D01*
X112243Y42455D01*
G54D29*
X52296Y-579826D02*
X52296Y-513004D01*
X115800Y-449500D01*
M02*
