%FSLAX34Y34*%
%MOMM*%
%LNCOPPER_BOTTOM*%
G71*
G01*
%ADD10C,3.000*%
%ADD11C,2.800*%
%ADD12C,3.200*%
%ADD13C,1.800*%
%ADD14C,1.700*%
%ADD15C,1.400*%
%ADD16C,2.800*%
%ADD17C,2.000*%
%ADD18C,0.733*%
%ADD19C,0.667*%
%ADD20C,0.813*%
%ADD21C,0.767*%
%ADD22C,1.713*%
%ADD23C,2.200*%
%ADD24C,2.000*%
%ADD25C,1.000*%
%ADD26C,0.900*%
%ADD27C,0.600*%
%ADD28C,2.000*%
%ADD29C,1.200*%
%LPD*%
G36*
X-25400Y431800D02*
X1074600Y431800D01*
X1074600Y-348200D01*
X-25400Y-348200D01*
X-25400Y431800D01*
G37*
%LPC*%
X41250Y95350D02*
G54D10*
D03*
X92050Y95350D02*
G54D10*
D03*
X66650Y69950D02*
G54D10*
D03*
X92050Y44550D02*
G54D10*
D03*
X41250Y44550D02*
G54D10*
D03*
X793750Y363600D02*
G54D11*
D03*
X768350Y363600D02*
G54D11*
D03*
X742950Y363600D02*
G54D11*
D03*
X699000Y358806D02*
G54D12*
D03*
X699113Y307825D02*
G54D12*
D03*
X510783Y371297D02*
G54D12*
D03*
X510733Y295047D02*
G54D12*
D03*
X654050Y363600D02*
G54D11*
D03*
X654050Y300100D02*
G54D11*
D03*
X593725Y331850D02*
G54D11*
D03*
X559300Y365156D02*
G54D12*
D03*
X559413Y314175D02*
G54D12*
D03*
X326633Y371297D02*
G54D12*
D03*
X326583Y295047D02*
G54D12*
D03*
X469900Y363600D02*
G54D11*
D03*
X469900Y300100D02*
G54D11*
D03*
X409575Y331850D02*
G54D11*
D03*
X375150Y365156D02*
G54D12*
D03*
X375263Y314175D02*
G54D12*
D03*
G36*
X449550Y83850D02*
X477550Y83850D01*
X477550Y55850D01*
X449550Y55850D01*
X449550Y83850D01*
G37*
G36*
X449550Y58450D02*
X477550Y58450D01*
X477550Y30450D01*
X449550Y30450D01*
X449550Y58450D01*
G37*
G36*
X449550Y109250D02*
X477550Y109250D01*
X477550Y81250D01*
X449550Y81250D01*
X449550Y109250D01*
G37*
G36*
X449550Y-100300D02*
X477550Y-100300D01*
X477550Y-128300D01*
X449550Y-128300D01*
X449550Y-100300D01*
G37*
G36*
X449550Y-125700D02*
X477550Y-125700D01*
X477550Y-153700D01*
X449550Y-153700D01*
X449550Y-125700D01*
G37*
G36*
X449550Y-74900D02*
X477550Y-74900D01*
X477550Y-102900D01*
X449550Y-102900D01*
X449550Y-74900D01*
G37*
X368333Y109208D02*
G54D12*
D03*
X317352Y109095D02*
G54D12*
D03*
X368333Y-97167D02*
G54D12*
D03*
X317352Y-97280D02*
G54D12*
D03*
X368333Y166358D02*
G54D12*
D03*
X317353Y166245D02*
G54D12*
D03*
X381033Y-211467D02*
G54D12*
D03*
X330053Y-211580D02*
G54D12*
D03*
X507031Y199720D02*
G54D12*
D03*
X430781Y199770D02*
G54D12*
D03*
X519731Y-244780D02*
G54D12*
D03*
X443481Y-244730D02*
G54D12*
D03*
X635000Y244600D02*
G54D11*
D03*
X635000Y181100D02*
G54D11*
D03*
X635000Y-218950D02*
G54D11*
D03*
X635000Y-282450D02*
G54D11*
D03*
X746300Y206500D02*
G54D11*
D03*
X711200Y206500D02*
G54D11*
D03*
X759000Y-238000D02*
G54D11*
D03*
X723900Y-238000D02*
G54D11*
D03*
X904059Y354322D02*
G54D12*
D03*
X929559Y354322D02*
G54D12*
D03*
X805393Y171705D02*
G54D12*
D03*
X805443Y247955D02*
G54D12*
D03*
X749300Y28700D02*
G54D11*
D03*
X749300Y-72900D02*
G54D11*
D03*
X850900Y28700D02*
G54D11*
D03*
X850900Y-72900D02*
G54D11*
D03*
X190500Y54100D02*
G54D11*
D03*
X330200Y54100D02*
G54D11*
D03*
X330200Y-34800D02*
G54D11*
D03*
X330200Y9650D02*
G54D11*
D03*
X992959Y354322D02*
G54D12*
D03*
X1018459Y354322D02*
G54D12*
D03*
X768350Y363600D02*
G54D11*
D03*
X699113Y307825D02*
G54D11*
D03*
X654050Y300100D02*
G54D11*
D03*
X469900Y300100D02*
G54D11*
D03*
X559413Y314175D02*
G54D11*
D03*
X375263Y314175D02*
G54D11*
D03*
X850900Y-72900D02*
G54D11*
D03*
X746300Y206500D02*
G54D11*
D03*
X805393Y171705D02*
G54D11*
D03*
X759000Y-238000D02*
G54D11*
D03*
X190500Y-34800D02*
G54D11*
D03*
X330200Y9650D02*
G54D11*
D03*
G54D13*
X375150Y365156D02*
X381000Y358900D01*
X368300Y371600D01*
X330200Y371600D01*
X326633Y371297D01*
G54D14*
X375150Y365156D02*
X381000Y358900D01*
X406400Y333500D01*
X409575Y331850D01*
G54D13*
X929559Y354322D02*
X927100Y358900D01*
X914400Y371600D01*
X914400Y384300D01*
X901700Y397000D01*
X508000Y397000D01*
X469900Y358900D01*
X469900Y363600D01*
G54D13*
X559300Y365156D02*
X558800Y358900D01*
X546100Y371600D01*
X508000Y371600D01*
X510783Y371297D01*
G54D13*
X559300Y365156D02*
X558800Y358900D01*
X584200Y333500D01*
X596900Y333500D01*
X593725Y331850D01*
G54D13*
X654050Y363600D02*
X647700Y358900D01*
X698500Y358900D01*
X699000Y358806D01*
G54D13*
X929559Y354322D02*
X927100Y358900D01*
X914400Y371600D01*
X914400Y384300D01*
X901700Y384300D01*
X876300Y358900D01*
X800100Y358900D01*
X793750Y363600D01*
X904850Y31850D02*
G54D10*
D03*
X955650Y31850D02*
G54D10*
D03*
X930250Y6450D02*
G54D10*
D03*
X955650Y-18950D02*
G54D10*
D03*
X904850Y-18950D02*
G54D10*
D03*
X190500Y9650D02*
G54D11*
D03*
X699113Y307825D02*
G54D11*
D03*
X559413Y314175D02*
G54D11*
D03*
X375263Y314175D02*
G54D11*
D03*
X805393Y171705D02*
G54D11*
D03*
G54D14*
X330200Y-34800D02*
X317500Y-47500D01*
X317500Y-98300D01*
X317352Y-97280D01*
G54D14*
X330200Y54100D02*
X317500Y66800D01*
X317500Y111250D01*
X317352Y109095D01*
G54D14*
X463550Y-88900D02*
X463550Y-91950D01*
X462500Y-62900D01*
X453000Y-20000D01*
X436000Y20000D01*
X426500Y105900D01*
X433850Y118250D01*
X450850Y206500D01*
X368300Y289050D01*
X361950Y289050D01*
X355600Y295400D01*
X323850Y295400D01*
X326583Y295047D01*
G54D14*
X368333Y109208D02*
X368300Y111250D01*
X368300Y3300D01*
X431800Y-60200D01*
X431800Y-79250D01*
X444500Y-91950D01*
X431800Y-149100D01*
X450850Y-168150D01*
X476250Y-168150D01*
X495300Y-136400D01*
X495300Y-15750D01*
X482600Y-3050D01*
X482600Y79500D01*
X469900Y92200D01*
X463550Y92200D01*
X463550Y95250D01*
G54D14*
X317353Y166245D02*
X317500Y168400D01*
X311150Y174750D01*
X311150Y384300D01*
X317500Y390650D01*
X336550Y390650D01*
X342900Y384300D01*
X381000Y384300D01*
X412750Y352550D01*
X419100Y352550D01*
X444500Y327150D01*
X444500Y295400D01*
X463550Y276350D01*
X463550Y92200D01*
X463550Y95250D01*
G54D14*
X463550Y95250D02*
X463550Y92200D01*
X488950Y117600D01*
X488950Y206500D01*
X502000Y232550D01*
X508000Y295400D01*
X510733Y295047D01*
G54D15*
X368333Y-97167D02*
X368300Y-98300D01*
X355600Y-85600D01*
X355600Y16000D01*
X349250Y22350D01*
X349250Y117600D01*
X361950Y130300D01*
X374650Y130300D01*
X426500Y57450D01*
X453000Y-20000D01*
X463550Y-47500D01*
X463550Y-91950D01*
X463550Y-88900D01*
G54D14*
X330053Y-211580D02*
X330200Y-212600D01*
X355600Y-187200D01*
X355600Y16000D01*
X349250Y22350D01*
X349250Y117600D01*
X361950Y130300D01*
X374650Y130300D01*
X420500Y65450D01*
X453000Y-20000D01*
X463550Y-47500D01*
X463550Y-91950D01*
X463550Y-88900D01*
G54D13*
X711200Y206500D02*
X685800Y181100D01*
X635000Y181100D01*
G54D13*
X805443Y247955D02*
X806450Y250950D01*
X787400Y231900D01*
X742950Y231900D01*
X717550Y206500D01*
X711200Y206500D01*
G54D13*
X635000Y244600D02*
X590550Y200150D01*
X508000Y200150D01*
X507031Y199720D01*
G54D14*
X430781Y199770D02*
X431800Y200150D01*
X400050Y168400D01*
X368300Y168400D01*
X368333Y166358D01*
X818093Y-285495D02*
G54D12*
D03*
X818143Y-209245D02*
G54D12*
D03*
X818093Y-285495D02*
G54D11*
D03*
G54D13*
X443481Y-244730D02*
X444500Y-244350D01*
X412750Y-212600D01*
X381000Y-212600D01*
X381033Y-211467D01*
G54D13*
X635000Y-218950D02*
X609600Y-244350D01*
X520700Y-244350D01*
X519731Y-244780D01*
G54D13*
X723900Y-238000D02*
X679450Y-282450D01*
X635000Y-282450D01*
G54D13*
X818143Y-209245D02*
X819150Y-206250D01*
X812800Y-212600D01*
X755650Y-212600D01*
X730250Y-238000D01*
X723900Y-238000D01*
G54D14*
X930250Y6450D02*
X927100Y3300D01*
X920750Y9650D01*
X895350Y9650D01*
X876300Y28700D01*
X850900Y28700D01*
G54D13*
X1018459Y354322D02*
X1016000Y352550D01*
X914400Y250950D01*
X806450Y250950D01*
X805443Y247955D01*
G54D13*
X818143Y-209245D02*
X819150Y-206250D01*
X1016000Y-9400D01*
X1016000Y352550D01*
X1018459Y354322D01*
X48870Y-96420D02*
G54D16*
D03*
X99670Y-96420D02*
G54D11*
D03*
X99670Y-159920D02*
G54D11*
D03*
X48870Y-159920D02*
G54D11*
D03*
X99670Y-96420D02*
G54D16*
D03*
X48870Y-159920D02*
G54D16*
D03*
X99670Y-159920D02*
G54D16*
D03*
X38100Y-22100D02*
G54D11*
D03*
G54D13*
X190500Y54100D02*
X177800Y66800D01*
X63500Y66800D01*
X66650Y69950D01*
G54D13*
X99670Y-96420D02*
X101600Y-98300D01*
X165100Y-34800D01*
X165100Y16000D01*
X190500Y41400D01*
X190500Y54100D01*
G54D13*
X99670Y-159920D02*
X101600Y-161800D01*
X190500Y-72900D01*
X190500Y-34800D01*
G54D13*
X38100Y-22100D02*
X82550Y-66550D01*
X82550Y-104650D01*
X95250Y-117350D01*
X107950Y-117350D01*
X190500Y-34800D01*
X749600Y78800D02*
G54D11*
D03*
X747600Y-117200D02*
G54D11*
D03*
G54D14*
X749600Y78800D02*
X750600Y76800D01*
X750600Y28800D01*
X749300Y28700D01*
G54D14*
X747600Y-117200D02*
X750600Y-115200D01*
X750600Y-75200D01*
X749300Y-72900D01*
X277600Y-64700D02*
G54D11*
D03*
X278100Y92800D02*
G54D11*
D03*
G54D13*
X278100Y92800D02*
X278600Y92800D01*
X318600Y52800D01*
X326600Y52800D01*
X330200Y54100D01*
G54D13*
X277600Y-64700D02*
X278600Y-67200D01*
X310600Y-35200D01*
X326600Y-35200D01*
X330200Y-34800D01*
X1044542Y109405D02*
G54D11*
D03*
X1044542Y83405D02*
G54D11*
D03*
X1044542Y57405D02*
G54D11*
D03*
X1044542Y30405D02*
G54D11*
D03*
X1044542Y3405D02*
G54D11*
D03*
X1045542Y-21595D02*
G54D11*
D03*
X1046542Y-45595D02*
G54D11*
D03*
X1047542Y-71595D02*
G54D11*
D03*
X1048042Y-96595D02*
G54D11*
D03*
X949000Y96000D02*
G54D11*
D03*
X903500Y95500D02*
G54D11*
D03*
G54D13*
X903500Y95500D02*
X904000Y96000D01*
X928000Y72000D01*
X928000Y8000D01*
X930250Y6450D01*
X852542Y92405D02*
G54D17*
D03*
X133542Y123405D02*
G54D17*
D03*
X99542Y-47595D02*
G54D17*
D03*
X150542Y-166595D02*
G54D17*
D03*
X349542Y336405D02*
G54D17*
D03*
X533542Y334405D02*
G54D17*
D03*
G54D15*
X133542Y123405D02*
X136000Y120000D01*
X88000Y120000D01*
X80000Y112000D01*
X72000Y112000D01*
X64000Y104000D01*
X64000Y72000D01*
X66650Y69950D01*
G54D15*
X99542Y-47595D02*
X96000Y-48000D01*
X96000Y-96000D01*
X99670Y-96420D01*
G54D15*
X150542Y-166595D02*
X152000Y-168000D01*
X144000Y-160000D01*
X96000Y-160000D01*
X99670Y-159920D01*
G54D15*
X349542Y336405D02*
X352000Y336000D01*
X328000Y360000D01*
X328000Y368000D01*
X326633Y371297D01*
G54D15*
X533542Y334405D02*
X536000Y336000D01*
X512000Y360000D01*
X512000Y368000D01*
X510783Y371297D01*
G54D15*
X852542Y92405D02*
X856000Y96000D01*
X848000Y88000D01*
X848000Y32000D01*
X850900Y28700D01*
G54D13*
X699000Y358806D02*
X696000Y360000D01*
X744000Y360000D01*
X742950Y363600D01*
%LPD*%
G54D18*
G36*
X37583Y95350D02*
X37583Y110850D01*
X44917Y110850D01*
X44917Y95350D01*
X37583Y95350D01*
G37*
G36*
X41250Y99017D02*
X56750Y99017D01*
X56750Y91683D01*
X41250Y91683D01*
X41250Y99017D01*
G37*
G36*
X44917Y95350D02*
X44917Y79850D01*
X37583Y79850D01*
X37583Y95350D01*
X44917Y95350D01*
G37*
G36*
X41250Y91683D02*
X25750Y91683D01*
X25750Y99017D01*
X41250Y99017D01*
X41250Y91683D01*
G37*
G54D18*
G36*
X88383Y95350D02*
X88383Y110850D01*
X95717Y110850D01*
X95717Y95350D01*
X88383Y95350D01*
G37*
G36*
X92050Y99017D02*
X107550Y99017D01*
X107550Y91683D01*
X92050Y91683D01*
X92050Y99017D01*
G37*
G36*
X95717Y95350D02*
X95717Y79850D01*
X88383Y79850D01*
X88383Y95350D01*
X95717Y95350D01*
G37*
G36*
X92050Y91683D02*
X76550Y91683D01*
X76550Y99017D01*
X92050Y99017D01*
X92050Y91683D01*
G37*
G54D18*
G36*
X88383Y44550D02*
X88383Y60050D01*
X95717Y60050D01*
X95717Y44550D01*
X88383Y44550D01*
G37*
G36*
X92050Y48217D02*
X107550Y48217D01*
X107550Y40883D01*
X92050Y40883D01*
X92050Y48217D01*
G37*
G36*
X95717Y44550D02*
X95717Y29050D01*
X88383Y29050D01*
X88383Y44550D01*
X95717Y44550D01*
G37*
G36*
X92050Y40883D02*
X76550Y40883D01*
X76550Y48217D01*
X92050Y48217D01*
X92050Y40883D01*
G37*
G54D18*
G36*
X37583Y44550D02*
X37583Y60050D01*
X44917Y60050D01*
X44917Y44550D01*
X37583Y44550D01*
G37*
G36*
X41250Y48217D02*
X56750Y48217D01*
X56750Y40883D01*
X41250Y40883D01*
X41250Y48217D01*
G37*
G36*
X44917Y44550D02*
X44917Y29050D01*
X37583Y29050D01*
X37583Y44550D01*
X44917Y44550D01*
G37*
G36*
X41250Y40883D02*
X25750Y40883D01*
X25750Y48217D01*
X41250Y48217D01*
X41250Y40883D01*
G37*
G54D19*
G36*
X463550Y47783D02*
X478050Y47783D01*
X478050Y41117D01*
X463550Y41117D01*
X463550Y47783D01*
G37*
G36*
X466883Y44450D02*
X466883Y29950D01*
X460217Y29950D01*
X460217Y44450D01*
X466883Y44450D01*
G37*
G54D19*
G36*
X460217Y-139700D02*
X460217Y-125200D01*
X466883Y-125200D01*
X466883Y-139700D01*
X460217Y-139700D01*
G37*
G36*
X463550Y-136367D02*
X478050Y-136367D01*
X478050Y-143033D01*
X463550Y-143033D01*
X463550Y-136367D01*
G37*
G36*
X466883Y-139700D02*
X466883Y-154200D01*
X460217Y-154200D01*
X460217Y-139700D01*
X466883Y-139700D01*
G37*
G36*
X463550Y-143033D02*
X449050Y-143033D01*
X449050Y-136367D01*
X463550Y-136367D01*
X463550Y-143033D01*
G37*
G54D19*
G36*
X900726Y354322D02*
X900726Y370822D01*
X907392Y370822D01*
X907392Y354322D01*
X900726Y354322D01*
G37*
G54D20*
G54D19*
G36*
X989626Y354322D02*
X989626Y370822D01*
X996292Y370822D01*
X996292Y354322D01*
X989626Y354322D01*
G37*
G54D20*
G54D21*
G36*
X764517Y363600D02*
X764517Y378100D01*
X772183Y378100D01*
X772183Y363600D01*
X764517Y363600D01*
G37*
G36*
X768350Y367433D02*
X782850Y367433D01*
X782850Y359767D01*
X768350Y359767D01*
X768350Y367433D01*
G37*
G36*
X772183Y363600D02*
X772183Y349100D01*
X764517Y349100D01*
X764517Y363600D01*
X772183Y363600D01*
G37*
G36*
X768350Y359767D02*
X753850Y359767D01*
X753850Y367433D01*
X768350Y367433D01*
X768350Y359767D01*
G37*
G54D21*
G36*
X695280Y307825D02*
X695280Y322325D01*
X702946Y322325D01*
X702946Y307825D01*
X695280Y307825D01*
G37*
G36*
X699113Y311658D02*
X713613Y311658D01*
X713613Y303992D01*
X699113Y303992D01*
X699113Y311658D01*
G37*
G36*
X702946Y307825D02*
X702946Y293325D01*
X695280Y293325D01*
X695280Y307825D01*
X702946Y307825D01*
G37*
G36*
X699113Y303992D02*
X684613Y303992D01*
X684613Y311658D01*
X699113Y311658D01*
X699113Y303992D01*
G37*
G54D21*
G36*
X650217Y300100D02*
X650217Y314600D01*
X657883Y314600D01*
X657883Y300100D01*
X650217Y300100D01*
G37*
G36*
X654050Y303933D02*
X668550Y303933D01*
X668550Y296267D01*
X654050Y296267D01*
X654050Y303933D01*
G37*
G36*
X657883Y300100D02*
X657883Y285600D01*
X650217Y285600D01*
X650217Y300100D01*
X657883Y300100D01*
G37*
G36*
X654050Y296267D02*
X639550Y296267D01*
X639550Y303933D01*
X654050Y303933D01*
X654050Y296267D01*
G37*
G54D21*
G36*
X466067Y300100D02*
X466067Y314600D01*
X473733Y314600D01*
X473733Y300100D01*
X466067Y300100D01*
G37*
G36*
X469900Y303933D02*
X484400Y303933D01*
X484400Y296267D01*
X469900Y296267D01*
X469900Y303933D01*
G37*
G36*
X473733Y300100D02*
X473733Y285600D01*
X466067Y285600D01*
X466067Y300100D01*
X473733Y300100D01*
G37*
G36*
X469900Y296267D02*
X455400Y296267D01*
X455400Y303933D01*
X469900Y303933D01*
X469900Y296267D01*
G37*
G54D21*
G36*
X555580Y314175D02*
X555580Y328675D01*
X563246Y328675D01*
X563246Y314175D01*
X555580Y314175D01*
G37*
G36*
X559413Y318008D02*
X573913Y318008D01*
X573913Y310342D01*
X559413Y310342D01*
X559413Y318008D01*
G37*
G36*
X563246Y314175D02*
X563246Y299675D01*
X555580Y299675D01*
X555580Y314175D01*
X563246Y314175D01*
G37*
G36*
X559413Y310342D02*
X544913Y310342D01*
X544913Y318008D01*
X559413Y318008D01*
X559413Y310342D01*
G37*
G54D21*
G36*
X371430Y314175D02*
X371430Y328675D01*
X379096Y328675D01*
X379096Y314175D01*
X371430Y314175D01*
G37*
G36*
X375263Y318009D02*
X389763Y318009D01*
X389763Y310342D01*
X375263Y310342D01*
X375263Y318009D01*
G37*
G36*
X379096Y314175D02*
X379096Y299675D01*
X371430Y299675D01*
X371430Y314175D01*
X379096Y314175D01*
G37*
G36*
X375263Y310342D02*
X360763Y310342D01*
X360763Y318009D01*
X375263Y318009D01*
X375263Y310342D01*
G37*
G54D21*
G36*
X847067Y-72900D02*
X847067Y-58400D01*
X854733Y-58400D01*
X854733Y-72900D01*
X847067Y-72900D01*
G37*
G36*
X850900Y-69067D02*
X865400Y-69067D01*
X865400Y-76733D01*
X850900Y-76733D01*
X850900Y-69067D01*
G37*
G36*
X854733Y-72900D02*
X854733Y-87400D01*
X847067Y-87400D01*
X847067Y-72900D01*
X854733Y-72900D01*
G37*
G36*
X850900Y-76733D02*
X836400Y-76733D01*
X836400Y-69067D01*
X850900Y-69067D01*
X850900Y-76733D01*
G37*
G54D21*
G36*
X742467Y206500D02*
X742467Y221000D01*
X750133Y221000D01*
X750133Y206500D01*
X742467Y206500D01*
G37*
G36*
X746300Y210333D02*
X760800Y210333D01*
X760800Y202667D01*
X746300Y202667D01*
X746300Y210333D01*
G37*
G36*
X750133Y206500D02*
X750133Y192000D01*
X742467Y192000D01*
X742467Y206500D01*
X750133Y206500D01*
G37*
G36*
X746300Y202667D02*
X731800Y202667D01*
X731800Y210333D01*
X746300Y210333D01*
X746300Y202667D01*
G37*
G54D21*
G36*
X801560Y171705D02*
X801560Y186205D01*
X809226Y186205D01*
X809226Y171705D01*
X801560Y171705D01*
G37*
G36*
X805393Y175538D02*
X819893Y175538D01*
X819893Y167872D01*
X805393Y167872D01*
X805393Y175538D01*
G37*
G36*
X809226Y171705D02*
X809226Y157205D01*
X801560Y157205D01*
X801560Y171705D01*
X809226Y171705D01*
G37*
G36*
X805393Y167872D02*
X790893Y167872D01*
X790893Y175538D01*
X805393Y175538D01*
X805393Y167872D01*
G37*
G54D21*
G36*
X755167Y-238000D02*
X755167Y-223500D01*
X762833Y-223500D01*
X762833Y-238000D01*
X755167Y-238000D01*
G37*
G36*
X759000Y-234167D02*
X773500Y-234167D01*
X773500Y-241833D01*
X759000Y-241833D01*
X759000Y-234167D01*
G37*
G36*
X762833Y-238000D02*
X762833Y-252500D01*
X755167Y-252500D01*
X755167Y-238000D01*
X762833Y-238000D01*
G37*
G36*
X759000Y-241833D02*
X744500Y-241833D01*
X744500Y-234167D01*
X759000Y-234167D01*
X759000Y-241833D01*
G37*
G54D21*
G36*
X326367Y9650D02*
X326367Y24150D01*
X334033Y24150D01*
X334033Y9650D01*
X326367Y9650D01*
G37*
G36*
X330200Y13483D02*
X344700Y13483D01*
X344700Y5817D01*
X330200Y5817D01*
X330200Y13483D01*
G37*
G36*
X334033Y9650D02*
X334033Y-4850D01*
X326367Y-4850D01*
X326367Y9650D01*
X334033Y9650D01*
G37*
G36*
X330200Y5817D02*
X315700Y5817D01*
X315700Y13483D01*
X330200Y13483D01*
X330200Y5817D01*
G37*
G54D18*
G36*
X901183Y31850D02*
X901183Y47350D01*
X908517Y47350D01*
X908517Y31850D01*
X901183Y31850D01*
G37*
G36*
X904850Y35517D02*
X920350Y35517D01*
X920350Y28183D01*
X904850Y28183D01*
X904850Y35517D01*
G37*
G36*
X908517Y31850D02*
X908517Y16350D01*
X901183Y16350D01*
X901183Y31850D01*
X908517Y31850D01*
G37*
G36*
X904850Y28183D02*
X889350Y28183D01*
X889350Y35517D01*
X904850Y35517D01*
X904850Y28183D01*
G37*
G54D18*
G36*
X951983Y31850D02*
X951983Y47350D01*
X959317Y47350D01*
X959317Y31850D01*
X951983Y31850D01*
G37*
G36*
X955650Y35517D02*
X971150Y35517D01*
X971150Y28183D01*
X955650Y28183D01*
X955650Y35517D01*
G37*
G36*
X959317Y31850D02*
X959317Y16350D01*
X951983Y16350D01*
X951983Y31850D01*
X959317Y31850D01*
G37*
G36*
X955650Y28183D02*
X940150Y28183D01*
X940150Y35517D01*
X955650Y35517D01*
X955650Y28183D01*
G37*
G54D18*
G36*
X951983Y-18950D02*
X951983Y-3450D01*
X959317Y-3450D01*
X959317Y-18950D01*
X951983Y-18950D01*
G37*
G36*
X955650Y-15283D02*
X971150Y-15283D01*
X971150Y-22617D01*
X955650Y-22617D01*
X955650Y-15283D01*
G37*
G36*
X959317Y-18950D02*
X959317Y-34450D01*
X951983Y-34450D01*
X951983Y-18950D01*
X959317Y-18950D01*
G37*
G36*
X955650Y-22617D02*
X940150Y-22617D01*
X940150Y-15283D01*
X955650Y-15283D01*
X955650Y-22617D01*
G37*
G54D18*
G36*
X901183Y-18950D02*
X901183Y-3450D01*
X908517Y-3450D01*
X908517Y-18950D01*
X901183Y-18950D01*
G37*
G36*
X904850Y-15283D02*
X920350Y-15283D01*
X920350Y-22617D01*
X904850Y-22617D01*
X904850Y-15283D01*
G37*
G36*
X908517Y-18950D02*
X908517Y-34450D01*
X901183Y-34450D01*
X901183Y-18950D01*
X908517Y-18950D01*
G37*
G36*
X904850Y-22617D02*
X889350Y-22617D01*
X889350Y-15283D01*
X904850Y-15283D01*
X904850Y-22617D01*
G37*
G54D21*
G36*
X186667Y9650D02*
X186667Y24150D01*
X194333Y24150D01*
X194333Y9650D01*
X186667Y9650D01*
G37*
G36*
X190500Y13483D02*
X205000Y13483D01*
X205000Y5817D01*
X190500Y5817D01*
X190500Y13483D01*
G37*
G36*
X194333Y9650D02*
X194333Y-4850D01*
X186667Y-4850D01*
X186667Y9650D01*
X194333Y9650D01*
G37*
G36*
X190500Y5817D02*
X176000Y5817D01*
X176000Y13483D01*
X190500Y13483D01*
X190500Y5817D01*
G37*
G54D22*
G36*
X690546Y307825D02*
X690546Y322325D01*
X707680Y322325D01*
X707680Y307825D01*
X690546Y307825D01*
G37*
G36*
X699113Y316392D02*
X713613Y316392D01*
X713613Y299258D01*
X699113Y299258D01*
X699113Y316392D01*
G37*
G36*
X707680Y307825D02*
X707680Y293325D01*
X690546Y293325D01*
X690546Y307825D01*
X707680Y307825D01*
G37*
G36*
X699113Y299258D02*
X684613Y299258D01*
X684613Y316392D01*
X699113Y316392D01*
X699113Y299258D01*
G37*
G54D22*
G36*
X550846Y314175D02*
X550846Y328675D01*
X567980Y328675D01*
X567980Y314175D01*
X550846Y314175D01*
G37*
G36*
X559413Y322742D02*
X573913Y322742D01*
X573913Y305608D01*
X559413Y305608D01*
X559413Y322742D01*
G37*
G36*
X567980Y314175D02*
X567980Y299675D01*
X550846Y299675D01*
X550846Y314175D01*
X567980Y314175D01*
G37*
G36*
X559413Y305608D02*
X544913Y305608D01*
X544913Y322742D01*
X559413Y322742D01*
X559413Y305608D01*
G37*
G54D22*
G36*
X366696Y314175D02*
X366696Y328675D01*
X383830Y328675D01*
X383830Y314175D01*
X366696Y314175D01*
G37*
G36*
X375263Y322742D02*
X389763Y322742D01*
X389763Y305609D01*
X375263Y305609D01*
X375263Y322742D01*
G37*
G36*
X383830Y314175D02*
X383830Y299675D01*
X366696Y299675D01*
X366696Y314175D01*
X383830Y314175D01*
G37*
G36*
X375263Y305609D02*
X360763Y305609D01*
X360763Y322742D01*
X375263Y322742D01*
X375263Y305609D01*
G37*
G54D22*
G36*
X796826Y171705D02*
X796826Y186205D01*
X813960Y186205D01*
X813960Y171705D01*
X796826Y171705D01*
G37*
G36*
X805393Y180272D02*
X819893Y180272D01*
X819893Y163138D01*
X805393Y163138D01*
X805393Y180272D01*
G37*
G36*
X813960Y171705D02*
X813960Y157205D01*
X796826Y157205D01*
X796826Y171705D01*
X813960Y171705D01*
G37*
G36*
X805393Y163138D02*
X790893Y163138D01*
X790893Y180272D01*
X805393Y180272D01*
X805393Y163138D01*
G37*
G54D22*
G36*
X809526Y-285495D02*
X809526Y-270995D01*
X826660Y-270995D01*
X826660Y-285495D01*
X809526Y-285495D01*
G37*
G36*
X818093Y-276928D02*
X832593Y-276928D01*
X832593Y-294062D01*
X818093Y-294062D01*
X818093Y-276928D01*
G37*
G36*
X826660Y-285495D02*
X826660Y-299995D01*
X809526Y-299995D01*
X809526Y-285495D01*
X826660Y-285495D01*
G37*
G36*
X818093Y-294062D02*
X803593Y-294062D01*
X803593Y-276928D01*
X818093Y-276928D01*
X818093Y-294062D01*
G37*
X41250Y95350D02*
G54D23*
D03*
X92050Y95350D02*
G54D23*
D03*
X66650Y69950D02*
G54D23*
D03*
X92050Y44550D02*
G54D23*
D03*
X41250Y44550D02*
G54D23*
D03*
X793750Y363600D02*
G54D24*
D03*
X768350Y363600D02*
G54D24*
D03*
X742950Y363600D02*
G54D24*
D03*
X699000Y358806D02*
G54D24*
D03*
X699113Y307825D02*
G54D24*
D03*
X510783Y371297D02*
G54D24*
D03*
X510733Y295047D02*
G54D24*
D03*
X654050Y363600D02*
G54D24*
D03*
X654050Y300100D02*
G54D24*
D03*
X593725Y331850D02*
G54D24*
D03*
X559300Y365156D02*
G54D24*
D03*
X559413Y314175D02*
G54D24*
D03*
X326633Y371297D02*
G54D24*
D03*
X326583Y295047D02*
G54D24*
D03*
X469900Y363600D02*
G54D24*
D03*
X469900Y300100D02*
G54D24*
D03*
X409575Y331850D02*
G54D24*
D03*
X375150Y365156D02*
G54D24*
D03*
X375263Y314175D02*
G54D24*
D03*
G36*
X453550Y79850D02*
X473550Y79850D01*
X473550Y59850D01*
X453550Y59850D01*
X453550Y79850D01*
G37*
G36*
X453550Y54450D02*
X473550Y54450D01*
X473550Y34450D01*
X453550Y34450D01*
X453550Y54450D01*
G37*
G36*
X453550Y105250D02*
X473550Y105250D01*
X473550Y85250D01*
X453550Y85250D01*
X453550Y105250D01*
G37*
G36*
X453550Y-104300D02*
X473550Y-104300D01*
X473550Y-124300D01*
X453550Y-124300D01*
X453550Y-104300D01*
G37*
G36*
X453550Y-129700D02*
X473550Y-129700D01*
X473550Y-149700D01*
X453550Y-149700D01*
X453550Y-129700D01*
G37*
G36*
X453550Y-78900D02*
X473550Y-78900D01*
X473550Y-98900D01*
X453550Y-98900D01*
X453550Y-78900D01*
G37*
X368333Y109208D02*
G54D24*
D03*
X317352Y109095D02*
G54D24*
D03*
X368333Y-97167D02*
G54D24*
D03*
X317352Y-97280D02*
G54D24*
D03*
X368333Y166358D02*
G54D24*
D03*
X317353Y166245D02*
G54D24*
D03*
X381033Y-211467D02*
G54D24*
D03*
X330053Y-211580D02*
G54D24*
D03*
X507031Y199720D02*
G54D24*
D03*
X430781Y199770D02*
G54D24*
D03*
X519731Y-244780D02*
G54D24*
D03*
X443481Y-244730D02*
G54D24*
D03*
X635000Y244600D02*
G54D24*
D03*
X635000Y181100D02*
G54D24*
D03*
X635000Y-218950D02*
G54D24*
D03*
X635000Y-282450D02*
G54D24*
D03*
X746300Y206500D02*
G54D24*
D03*
X711200Y206500D02*
G54D24*
D03*
X759000Y-238000D02*
G54D24*
D03*
X723900Y-238000D02*
G54D24*
D03*
X904059Y354322D02*
G54D24*
D03*
X929559Y354322D02*
G54D24*
D03*
X805393Y171705D02*
G54D24*
D03*
X805443Y247955D02*
G54D24*
D03*
X749300Y28700D02*
G54D24*
D03*
X749300Y-72900D02*
G54D24*
D03*
X850900Y28700D02*
G54D24*
D03*
X850900Y-72900D02*
G54D24*
D03*
X190500Y54100D02*
G54D24*
D03*
X330200Y54100D02*
G54D24*
D03*
X330200Y-34800D02*
G54D24*
D03*
X330200Y9650D02*
G54D24*
D03*
X992959Y354322D02*
G54D24*
D03*
X1018459Y354322D02*
G54D24*
D03*
X768350Y363600D02*
G54D24*
D03*
X699113Y307825D02*
G54D24*
D03*
X654050Y300100D02*
G54D24*
D03*
X469900Y300100D02*
G54D24*
D03*
X559413Y314175D02*
G54D24*
D03*
X375263Y314175D02*
G54D24*
D03*
X850900Y-72900D02*
G54D24*
D03*
X746300Y206500D02*
G54D24*
D03*
X805393Y171705D02*
G54D24*
D03*
X759000Y-238000D02*
G54D24*
D03*
X190500Y-34800D02*
G54D24*
D03*
X330200Y9650D02*
G54D24*
D03*
G54D25*
X375150Y365156D02*
X381000Y358900D01*
X368300Y371600D01*
X330200Y371600D01*
X326633Y371297D01*
G54D26*
X375150Y365156D02*
X381000Y358900D01*
X406400Y333500D01*
X409575Y331850D01*
G54D25*
X929559Y354322D02*
X927100Y358900D01*
X914400Y371600D01*
X914400Y384300D01*
X901700Y397000D01*
X508000Y397000D01*
X469900Y358900D01*
X469900Y363600D01*
G54D25*
X559300Y365156D02*
X558800Y358900D01*
X546100Y371600D01*
X508000Y371600D01*
X510783Y371297D01*
G54D25*
X559300Y365156D02*
X558800Y358900D01*
X584200Y333500D01*
X596900Y333500D01*
X593725Y331850D01*
G54D25*
X654050Y363600D02*
X647700Y358900D01*
X698500Y358900D01*
X699000Y358806D01*
G54D25*
X929559Y354322D02*
X927100Y358900D01*
X914400Y371600D01*
X914400Y384300D01*
X901700Y384300D01*
X876300Y358900D01*
X800100Y358900D01*
X793750Y363600D01*
X904850Y31850D02*
G54D23*
D03*
X955650Y31850D02*
G54D23*
D03*
X930250Y6450D02*
G54D23*
D03*
X955650Y-18950D02*
G54D23*
D03*
X904850Y-18950D02*
G54D23*
D03*
X190500Y9650D02*
G54D24*
D03*
X699113Y307825D02*
G54D24*
D03*
X559413Y314175D02*
G54D24*
D03*
X375263Y314175D02*
G54D24*
D03*
X805393Y171705D02*
G54D24*
D03*
G54D26*
X330200Y-34800D02*
X317500Y-47500D01*
X317500Y-98300D01*
X317352Y-97280D01*
G54D26*
X330200Y54100D02*
X317500Y66800D01*
X317500Y111250D01*
X317352Y109095D01*
G54D26*
X463550Y-88900D02*
X463550Y-91950D01*
X462500Y-62900D01*
X453000Y-20000D01*
X436000Y20000D01*
X426500Y105900D01*
X433850Y118250D01*
X450850Y206500D01*
X368300Y289050D01*
X361950Y289050D01*
X355600Y295400D01*
X323850Y295400D01*
X326583Y295047D01*
G54D26*
X368333Y109208D02*
X368300Y111250D01*
X368300Y3300D01*
X431800Y-60200D01*
X431800Y-79250D01*
X444500Y-91950D01*
X431800Y-149100D01*
X450850Y-168150D01*
X476250Y-168150D01*
X495300Y-136400D01*
X495300Y-15750D01*
X482600Y-3050D01*
X482600Y79500D01*
X469900Y92200D01*
X463550Y92200D01*
X463550Y95250D01*
G54D26*
X317353Y166245D02*
X317500Y168400D01*
X311150Y174750D01*
X311150Y384300D01*
X317500Y390650D01*
X336550Y390650D01*
X342900Y384300D01*
X381000Y384300D01*
X412750Y352550D01*
X419100Y352550D01*
X444500Y327150D01*
X444500Y295400D01*
X463550Y276350D01*
X463550Y92200D01*
X463550Y95250D01*
G54D26*
X463550Y95250D02*
X463550Y92200D01*
X488950Y117600D01*
X488950Y206500D01*
X502000Y232550D01*
X508000Y295400D01*
X510733Y295047D01*
G54D27*
X368333Y-97167D02*
X368300Y-98300D01*
X355600Y-85600D01*
X355600Y16000D01*
X349250Y22350D01*
X349250Y117600D01*
X361950Y130300D01*
X374650Y130300D01*
X426500Y57450D01*
X453000Y-20000D01*
X463550Y-47500D01*
X463550Y-91950D01*
X463550Y-88900D01*
G54D26*
X330053Y-211580D02*
X330200Y-212600D01*
X355600Y-187200D01*
X355600Y16000D01*
X349250Y22350D01*
X349250Y117600D01*
X361950Y130300D01*
X374650Y130300D01*
X420500Y65450D01*
X453000Y-20000D01*
X463550Y-47500D01*
X463550Y-91950D01*
X463550Y-88900D01*
G54D25*
X711200Y206500D02*
X685800Y181100D01*
X635000Y181100D01*
G54D25*
X805443Y247955D02*
X806450Y250950D01*
X787400Y231900D01*
X742950Y231900D01*
X717550Y206500D01*
X711200Y206500D01*
G54D25*
X635000Y244600D02*
X590550Y200150D01*
X508000Y200150D01*
X507031Y199720D01*
G54D26*
X430781Y199770D02*
X431800Y200150D01*
X400050Y168400D01*
X368300Y168400D01*
X368333Y166358D01*
X818093Y-285495D02*
G54D24*
D03*
X818143Y-209245D02*
G54D24*
D03*
X818093Y-285495D02*
G54D24*
D03*
G54D25*
X443481Y-244730D02*
X444500Y-244350D01*
X412750Y-212600D01*
X381000Y-212600D01*
X381033Y-211467D01*
G54D25*
X635000Y-218950D02*
X609600Y-244350D01*
X520700Y-244350D01*
X519731Y-244780D01*
G54D25*
X723900Y-238000D02*
X679450Y-282450D01*
X635000Y-282450D01*
G54D25*
X818143Y-209245D02*
X819150Y-206250D01*
X812800Y-212600D01*
X755650Y-212600D01*
X730250Y-238000D01*
X723900Y-238000D01*
G54D26*
X930250Y6450D02*
X927100Y3300D01*
X920750Y9650D01*
X895350Y9650D01*
X876300Y28700D01*
X850900Y28700D01*
G54D25*
X1018459Y354322D02*
X1016000Y352550D01*
X914400Y250950D01*
X806450Y250950D01*
X805443Y247955D01*
G54D25*
X818143Y-209245D02*
X819150Y-206250D01*
X1016000Y-9400D01*
X1016000Y352550D01*
X1018459Y354322D01*
X48870Y-96420D02*
G54D28*
D03*
X99670Y-96420D02*
G54D24*
D03*
X99670Y-159920D02*
G54D24*
D03*
X48870Y-159920D02*
G54D24*
D03*
X99670Y-96420D02*
G54D28*
D03*
X48870Y-159920D02*
G54D28*
D03*
X99670Y-159920D02*
G54D28*
D03*
X38100Y-22100D02*
G54D24*
D03*
G54D25*
X190500Y54100D02*
X177800Y66800D01*
X63500Y66800D01*
X66650Y69950D01*
G54D25*
X99670Y-96420D02*
X101600Y-98300D01*
X165100Y-34800D01*
X165100Y16000D01*
X190500Y41400D01*
X190500Y54100D01*
G54D25*
X99670Y-159920D02*
X101600Y-161800D01*
X190500Y-72900D01*
X190500Y-34800D01*
G54D25*
X38100Y-22100D02*
X82550Y-66550D01*
X82550Y-104650D01*
X95250Y-117350D01*
X107950Y-117350D01*
X190500Y-34800D01*
X749600Y78800D02*
G54D24*
D03*
X747600Y-117200D02*
G54D24*
D03*
G54D26*
X749600Y78800D02*
X750600Y76800D01*
X750600Y28800D01*
X749300Y28700D01*
G54D26*
X747600Y-117200D02*
X750600Y-115200D01*
X750600Y-75200D01*
X749300Y-72900D01*
X277600Y-64700D02*
G54D24*
D03*
X278100Y92800D02*
G54D24*
D03*
G54D25*
X278100Y92800D02*
X278600Y92800D01*
X318600Y52800D01*
X326600Y52800D01*
X330200Y54100D01*
G54D25*
X277600Y-64700D02*
X278600Y-67200D01*
X310600Y-35200D01*
X326600Y-35200D01*
X330200Y-34800D01*
X1044542Y109405D02*
G54D24*
D03*
X1044542Y83405D02*
G54D24*
D03*
X1044542Y57405D02*
G54D24*
D03*
X1044542Y30405D02*
G54D24*
D03*
X1044542Y3405D02*
G54D24*
D03*
X1045542Y-21595D02*
G54D24*
D03*
X1046542Y-45595D02*
G54D24*
D03*
X1047542Y-71595D02*
G54D24*
D03*
X1048042Y-96595D02*
G54D24*
D03*
X949000Y96000D02*
G54D24*
D03*
X903500Y95500D02*
G54D24*
D03*
G54D25*
X903500Y95500D02*
X904000Y96000D01*
X928000Y72000D01*
X928000Y8000D01*
X930250Y6450D01*
X852542Y92405D02*
G54D29*
D03*
X133542Y123405D02*
G54D29*
D03*
X99542Y-47595D02*
G54D29*
D03*
X150542Y-166595D02*
G54D29*
D03*
X349542Y336405D02*
G54D29*
D03*
X533542Y334405D02*
G54D29*
D03*
G54D27*
X133542Y123405D02*
X136000Y120000D01*
X88000Y120000D01*
X80000Y112000D01*
X72000Y112000D01*
X64000Y104000D01*
X64000Y72000D01*
X66650Y69950D01*
G54D27*
X99542Y-47595D02*
X96000Y-48000D01*
X96000Y-96000D01*
X99670Y-96420D01*
G54D27*
X150542Y-166595D02*
X152000Y-168000D01*
X144000Y-160000D01*
X96000Y-160000D01*
X99670Y-159920D01*
G54D27*
X349542Y336405D02*
X352000Y336000D01*
X328000Y360000D01*
X328000Y368000D01*
X326633Y371297D01*
G54D27*
X533542Y334405D02*
X536000Y336000D01*
X512000Y360000D01*
X512000Y368000D01*
X510783Y371297D01*
G54D27*
X852542Y92405D02*
X856000Y96000D01*
X848000Y88000D01*
X848000Y32000D01*
X850900Y28700D01*
G54D25*
X699000Y358806D02*
X696000Y360000D01*
X744000Y360000D01*
X742950Y363600D01*
M02*
