%FSLAX34Y34*%
%MOMM*%
%LNSILK_TOP*%
G71*
G01*
%ADD10C,0.150*%
%ADD11C,0.144*%
%ADD12C,0.200*%
%ADD13C,0.111*%
%ADD14C,0.167*%
%ADD15C,0.222*%
%ADD16C,0.333*%
%ADD17C,0.400*%
%ADD18C,0.089*%
%LPD*%
G54D10*
X-675450Y-80175D02*
X-573850Y-80175D01*
X-573850Y-181775D01*
X-675450Y-181775D01*
X-675450Y-80175D01*
G54D11*
X-676200Y-53425D02*
X-676200Y-53425D01*
G54D11*
X-676200Y-72925D02*
X-676200Y-72925D01*
G54D12*
G75*
G01X-295806Y-187338D02*
G03X-295806Y-187338I-50800J0D01*
G01*
G54D12*
G75*
G01X-314856Y-185750D02*
G03X-314856Y-185750I-31750J0D01*
G01*
G54D12*
G75*
G01X224100Y-217500D02*
G03X224100Y-217500I-50800J0D01*
G01*
G54D12*
G75*
G01X205050Y-217500D02*
G03X205050Y-217500I-31750J0D01*
G01*
G54D13*
X-537219Y-387023D02*
X-534553Y-387023D01*
X-534553Y-389801D01*
X-535219Y-390912D01*
X-536553Y-391468D01*
X-537886Y-391468D01*
X-539219Y-390912D01*
X-539886Y-389801D01*
X-539886Y-384246D01*
X-539219Y-383134D01*
X-537886Y-382579D01*
X-536553Y-382579D01*
X-535219Y-383134D01*
X-534553Y-384246D01*
G54D10*
X-478036Y-360647D02*
X-452636Y-360647D01*
X-452636Y-432247D01*
X-478036Y-432247D01*
X-478036Y-360647D01*
G54D14*
X-436412Y-405302D02*
X-434745Y-406302D01*
X-433912Y-408302D01*
X-433912Y-410302D01*
X-434745Y-412302D01*
X-436412Y-413302D01*
X-444745Y-413302D01*
X-446412Y-412302D01*
X-447245Y-410302D01*
X-447245Y-408302D01*
X-446412Y-406302D01*
X-444745Y-405302D01*
G54D14*
X-436412Y-401636D02*
X-434745Y-400636D01*
X-433912Y-398636D01*
X-433912Y-396636D01*
X-434745Y-394636D01*
X-436412Y-393636D01*
X-440578Y-393636D01*
X-441412Y-393636D01*
X-439745Y-396636D01*
X-439745Y-398636D01*
X-440578Y-400636D01*
X-442245Y-401636D01*
X-444745Y-401636D01*
X-446412Y-400636D01*
X-447245Y-398636D01*
X-447245Y-396636D01*
X-446412Y-394636D01*
X-444745Y-393636D01*
X-440578Y-393636D01*
G54D14*
X-447245Y-381968D02*
X-447245Y-389968D01*
X-441412Y-389968D01*
X-441412Y-388968D01*
X-442245Y-386968D01*
X-442245Y-384968D01*
X-441412Y-382968D01*
X-439745Y-381968D01*
X-436412Y-381968D01*
X-434745Y-382968D01*
X-433912Y-384968D01*
X-433912Y-386968D01*
X-434745Y-388968D01*
X-436412Y-389968D01*
G54D10*
X-265840Y-371167D02*
X-288015Y-371167D01*
X-288015Y-421867D01*
X-265839Y-421866D01*
X-265840Y-371167D01*
G54D10*
X-276927Y-370966D02*
X-276927Y-363066D01*
G54D10*
X-276927Y-421967D02*
X-276927Y-429867D01*
G54D14*
X-254735Y-406492D02*
X-256401Y-408492D01*
X-258068Y-409158D01*
X-261401Y-409158D01*
G54D14*
X-261401Y-403825D02*
X-248068Y-403825D01*
X-248068Y-407158D01*
X-248901Y-408491D01*
X-250568Y-409158D01*
X-252235Y-409158D01*
X-253901Y-408492D01*
X-254735Y-407158D01*
X-254735Y-403825D01*
G54D14*
X-258901Y-412825D02*
X-260568Y-413491D01*
X-261401Y-414825D01*
X-261401Y-416158D01*
X-260568Y-417491D01*
X-258901Y-418158D01*
X-254735Y-418158D01*
X-253901Y-418158D01*
X-255568Y-416158D01*
X-255568Y-414825D01*
X-254735Y-413492D01*
X-253068Y-412825D01*
X-250568Y-412825D01*
X-248901Y-413492D01*
X-248068Y-414825D01*
X-248068Y-416158D01*
X-248901Y-417492D01*
X-250568Y-418158D01*
X-254735Y-418158D01*
G54D14*
X-254735Y-425158D02*
X-254735Y-423825D01*
X-253901Y-422491D01*
X-252235Y-421825D01*
X-250568Y-421825D01*
X-248901Y-422491D01*
X-248068Y-423825D01*
X-248068Y-425158D01*
X-248901Y-426491D01*
X-250568Y-427158D01*
X-252234Y-427158D01*
X-253901Y-426492D01*
X-254735Y-425158D01*
X-255568Y-426491D01*
X-257235Y-427158D01*
X-258901Y-427158D01*
X-260568Y-426492D01*
X-261401Y-425158D01*
X-261401Y-423825D01*
X-260568Y-422492D01*
X-258901Y-421825D01*
X-257234Y-421825D01*
X-255568Y-422491D01*
X-254735Y-423825D01*
G54D10*
X-312936Y-425897D02*
X-338336Y-425897D01*
X-338336Y-354297D01*
X-312936Y-354297D01*
X-312936Y-425897D01*
G54D14*
X-307545Y-406952D02*
X-307545Y-406952D01*
G54D10*
X-267074Y23396D02*
X-289249Y23396D01*
X-289249Y-27304D01*
X-267074Y-27304D01*
X-267074Y23396D01*
G54D10*
X-278162Y23596D02*
X-278162Y31496D01*
G54D10*
X-278162Y-27404D02*
X-278162Y-35304D01*
G54D14*
X-261163Y1351D02*
X-262830Y-649D01*
X-264496Y-1316D01*
X-267830Y-1316D01*
G54D14*
X-267830Y4018D02*
X-254496Y4018D01*
X-254496Y684D01*
X-255330Y-649D01*
X-256996Y-1316D01*
X-258663Y-1316D01*
X-260330Y-649D01*
X-261163Y684D01*
X-261163Y4018D01*
G54D14*
X-265330Y-4982D02*
X-266996Y-5649D01*
X-267830Y-6982D01*
X-267830Y-8316D01*
X-266996Y-9649D01*
X-265330Y-10316D01*
X-261163Y-10316D01*
X-260330Y-10316D01*
X-261996Y-8316D01*
X-261996Y-6982D01*
X-261163Y-5649D01*
X-259496Y-4982D01*
X-256996Y-4982D01*
X-255330Y-5649D01*
X-254496Y-6983D01*
X-254496Y-8316D01*
X-255330Y-9649D01*
X-256996Y-10316D01*
X-261163Y-10316D01*
G54D14*
X-254496Y-13982D02*
X-254496Y-19316D01*
X-256163Y-18649D01*
X-258663Y-17316D01*
X-261996Y-15982D01*
X-264496Y-15316D01*
X-267830Y-15316D01*
G54D10*
X-339571Y40266D02*
X-314171Y40266D01*
X-314171Y-31335D01*
X-339571Y-31334D01*
X-339571Y40266D01*
G54D14*
X-340546Y-52674D02*
X-341546Y-54340D01*
X-343546Y-55174D01*
X-345546Y-55174D01*
X-347546Y-54340D01*
X-348546Y-52674D01*
X-348546Y-44340D01*
X-347546Y-42674D01*
X-345546Y-41840D01*
X-343546Y-41840D01*
X-341546Y-42674D01*
X-340546Y-44340D01*
G54D14*
X-336880Y-52674D02*
X-335880Y-54340D01*
X-333880Y-55174D01*
X-331880Y-55174D01*
X-329880Y-54340D01*
X-328880Y-52674D01*
X-328880Y-48507D01*
X-328880Y-47674D01*
X-331880Y-49340D01*
X-333880Y-49340D01*
X-335880Y-48507D01*
X-336880Y-46840D01*
X-336880Y-44340D01*
X-335880Y-42674D01*
X-333880Y-41840D01*
X-331880Y-41840D01*
X-329880Y-42674D01*
X-328880Y-44340D01*
X-328880Y-48507D01*
G54D14*
X-317212Y-44340D02*
X-318212Y-42674D01*
X-320212Y-41840D01*
X-322212Y-41840D01*
X-324212Y-42674D01*
X-325212Y-44340D01*
X-325212Y-48507D01*
X-325212Y-49340D01*
X-322212Y-47674D01*
X-320212Y-47674D01*
X-318212Y-48507D01*
X-317212Y-50174D01*
X-317212Y-52674D01*
X-318212Y-54340D01*
X-320212Y-55174D01*
X-322212Y-55174D01*
X-324212Y-54340D01*
X-325212Y-52674D01*
X-325212Y-48507D01*
G54D10*
X-215890Y-118314D02*
X-215889Y-92913D01*
X-287490Y-92913D01*
X-287490Y-118313D01*
X-215890Y-118314D01*
G54D14*
X-260545Y-85022D02*
X-261545Y-86688D01*
X-263545Y-87522D01*
X-265545Y-87522D01*
X-267545Y-86688D01*
X-268545Y-85022D01*
X-268545Y-76688D01*
X-267545Y-75022D01*
X-265545Y-74188D01*
X-263545Y-74188D01*
X-261545Y-75022D01*
X-260545Y-76688D01*
G54D14*
X-256878Y-85022D02*
X-255878Y-86688D01*
X-253878Y-87522D01*
X-251878Y-87522D01*
X-249878Y-86688D01*
X-248878Y-85022D01*
X-248878Y-80855D01*
X-248878Y-80022D01*
X-251878Y-81688D01*
X-253878Y-81688D01*
X-255878Y-80855D01*
X-256878Y-79188D01*
X-256878Y-76688D01*
X-255878Y-75022D01*
X-253878Y-74188D01*
X-251878Y-74188D01*
X-249878Y-75022D01*
X-248878Y-76688D01*
X-248878Y-80855D01*
G54D14*
X-245211Y-76688D02*
X-244211Y-75022D01*
X-242211Y-74188D01*
X-240211Y-74188D01*
X-238211Y-75022D01*
X-237211Y-76688D01*
X-237211Y-78355D01*
X-238211Y-80022D01*
X-240211Y-80855D01*
X-238211Y-81688D01*
X-237211Y-83355D01*
X-237211Y-85022D01*
X-238211Y-86688D01*
X-240211Y-87522D01*
X-242211Y-87522D01*
X-244211Y-86688D01*
X-245211Y-85022D01*
G54D10*
X-216890Y-306689D02*
X-216889Y-281288D01*
X-288490Y-281288D01*
X-288490Y-306688D01*
X-216890Y-306689D01*
G54D14*
X-261545Y-273397D02*
X-262545Y-275063D01*
X-264545Y-275897D01*
X-266545Y-275897D01*
X-268545Y-275063D01*
X-269545Y-273397D01*
X-269545Y-265063D01*
X-268545Y-263397D01*
X-266545Y-262563D01*
X-264545Y-262563D01*
X-262545Y-263397D01*
X-261545Y-265063D01*
G54D14*
X-257878Y-273397D02*
X-256878Y-275063D01*
X-254878Y-275897D01*
X-252878Y-275897D01*
X-250878Y-275063D01*
X-249878Y-273397D01*
X-249878Y-269230D01*
X-249878Y-268397D01*
X-252878Y-270063D01*
X-254878Y-270063D01*
X-256878Y-269230D01*
X-257878Y-267563D01*
X-257878Y-265063D01*
X-256878Y-263397D01*
X-254878Y-262563D01*
X-252878Y-262563D01*
X-250878Y-263397D01*
X-249878Y-265063D01*
X-249878Y-269230D01*
G54D14*
X-240211Y-275897D02*
X-240211Y-262563D01*
X-246211Y-270897D01*
X-246211Y-272563D01*
X-238211Y-272563D01*
G54D10*
X-236399Y-71963D02*
X-210999Y-71963D01*
X-210999Y-363D01*
X-236399Y-363D01*
X-236399Y-71963D01*
G54D14*
X-203108Y-27307D02*
X-204774Y-26307D01*
X-205608Y-24307D01*
X-205608Y-22307D01*
X-204774Y-20307D01*
X-203108Y-19307D01*
X-194774Y-19307D01*
X-193108Y-20307D01*
X-192274Y-22307D01*
X-192274Y-24307D01*
X-193108Y-26307D01*
X-194774Y-27307D01*
G54D14*
X-205608Y-38974D02*
X-205608Y-30974D01*
X-204774Y-30974D01*
X-203108Y-31974D01*
X-198108Y-37974D01*
X-196441Y-38974D01*
X-194774Y-38974D01*
X-193108Y-37974D01*
X-192274Y-35974D01*
X-192274Y-33974D01*
X-193108Y-31974D01*
X-194774Y-30974D01*
G54D14*
X-194774Y-50641D02*
X-193108Y-49641D01*
X-192274Y-47641D01*
X-192274Y-45641D01*
X-193108Y-43641D01*
X-194774Y-42641D01*
X-198941Y-42641D01*
X-199774Y-42641D01*
X-198108Y-45641D01*
X-198108Y-47641D01*
X-198941Y-49641D01*
X-200608Y-50641D01*
X-203108Y-50641D01*
X-204774Y-49641D01*
X-205608Y-47641D01*
X-205608Y-45641D01*
X-204774Y-43641D01*
X-203108Y-42641D01*
X-198941Y-42641D01*
G54D14*
X-197274Y-54308D02*
X-192274Y-59308D01*
X-205608Y-59308D01*
G54D10*
X-238578Y-395495D02*
X-213178Y-395495D01*
X-213178Y-323894D01*
X-238578Y-323895D01*
X-238578Y-395495D01*
G54D14*
X-207786Y-342839D02*
X-207786Y-342839D01*
G54D10*
X-164098Y7113D02*
X-186274Y7113D01*
X-186274Y57813D01*
X-164098Y57813D01*
X-164098Y7113D01*
G54D10*
X-175186Y6913D02*
X-175186Y-987D01*
G54D10*
X-175186Y57913D02*
X-175186Y65813D01*
G54D14*
X-197444Y41388D02*
X-199110Y39388D01*
X-200777Y38721D01*
X-204110Y38721D01*
G54D14*
X-204110Y44054D02*
X-190777Y44054D01*
X-190777Y40721D01*
X-191610Y39388D01*
X-193277Y38721D01*
X-194944Y38721D01*
X-196610Y39388D01*
X-197444Y40721D01*
X-197444Y44054D01*
G54D14*
X-204110Y29721D02*
X-204110Y35054D01*
X-203277Y35054D01*
X-201610Y34388D01*
X-196610Y30388D01*
X-194944Y29721D01*
X-193277Y29721D01*
X-191610Y30388D01*
X-190777Y31721D01*
X-190777Y33054D01*
X-191610Y34388D01*
X-193277Y35054D01*
G54D14*
X-193277Y20721D02*
X-191610Y21388D01*
X-190777Y22721D01*
X-190777Y24054D01*
X-191610Y25388D01*
X-193277Y26054D01*
X-197444Y26054D01*
X-198277Y26054D01*
X-196610Y24054D01*
X-196610Y22721D01*
X-197444Y21388D01*
X-199110Y20721D01*
X-201610Y20721D01*
X-203277Y21388D01*
X-204110Y22721D01*
X-204110Y24054D01*
X-203277Y25388D01*
X-201610Y26054D01*
X-197444Y26054D01*
G54D14*
X-195777Y17054D02*
X-190777Y13721D01*
X-204110Y13721D01*
G54D10*
X-160398Y-470387D02*
X-182574Y-470387D01*
X-182574Y-419687D01*
X-160398Y-419687D01*
X-160398Y-470387D01*
G54D10*
X-171486Y-470587D02*
X-171486Y-478487D01*
G54D10*
X-171486Y-419587D02*
X-171486Y-411687D01*
G54D14*
X-193744Y-436112D02*
X-195410Y-438112D01*
X-197077Y-438779D01*
X-200410Y-438779D01*
G54D14*
X-200410Y-433446D02*
X-187077Y-433446D01*
X-187077Y-436779D01*
X-187910Y-438112D01*
X-189577Y-438779D01*
X-191244Y-438779D01*
X-192910Y-438112D01*
X-193744Y-436779D01*
X-193744Y-433446D01*
G54D14*
X-200410Y-447779D02*
X-200410Y-442446D01*
X-199577Y-442446D01*
X-197910Y-443112D01*
X-192910Y-447112D01*
X-191244Y-447779D01*
X-189577Y-447779D01*
X-187910Y-447112D01*
X-187077Y-445779D01*
X-187077Y-444446D01*
X-187910Y-443112D01*
X-189577Y-442446D01*
G54D14*
X-189577Y-456779D02*
X-187910Y-456112D01*
X-187077Y-454779D01*
X-187077Y-453446D01*
X-187910Y-452112D01*
X-189577Y-451446D01*
X-193744Y-451446D01*
X-194577Y-451446D01*
X-192910Y-453446D01*
X-192910Y-454779D01*
X-193744Y-456112D01*
X-195410Y-456779D01*
X-197910Y-456779D01*
X-199577Y-456112D01*
X-200410Y-454779D01*
X-200410Y-453446D01*
X-199577Y-452112D01*
X-197910Y-451446D01*
X-193744Y-451446D01*
G54D14*
X-200410Y-465779D02*
X-200410Y-460446D01*
X-199577Y-460446D01*
X-197910Y-461112D01*
X-192910Y-465112D01*
X-191244Y-465779D01*
X-189577Y-465779D01*
X-187910Y-465112D01*
X-187077Y-463779D01*
X-187077Y-462446D01*
X-187910Y-461112D01*
X-189577Y-460446D01*
G54D10*
X962Y11112D02*
X8562Y11112D01*
G54D10*
X4762Y14912D02*
X4762Y7312D01*
G54D10*
G75*
G01X62118Y23812D02*
G03X62118Y23812I-39850J0D01*
G01*
G54D10*
X2662Y-467388D02*
X10262Y-467388D01*
G54D10*
X6462Y-463588D02*
X6462Y-471188D01*
G54D10*
G75*
G01X63818Y-454688D02*
G03X63818Y-454688I-39850J0D01*
G01*
G54D12*
X40158Y95737D02*
X49758Y95737D01*
G54D12*
X44958Y99737D02*
X44958Y91737D01*
G54D12*
X54158Y104737D02*
X60158Y88737D01*
X66158Y104737D01*
G54D10*
X95177Y137794D02*
X95176Y112394D01*
X44377Y112394D01*
X44377Y137794D01*
X95177Y137794D01*
G54D12*
X105403Y125731D02*
X105403Y119381D01*
G54D12*
X113340Y119381D02*
X97466Y119381D01*
G54D12*
X99846Y116206D02*
X110959Y116206D01*
G54D12*
X107784Y113031D02*
X103022Y113031D01*
G54D10*
X128102Y2813D02*
X105926Y2813D01*
X105926Y53513D01*
X128102Y53513D01*
X128102Y2813D01*
G54D10*
X117014Y2613D02*
X117014Y-5287D01*
G54D10*
X117014Y53613D02*
X117014Y61513D01*
G54D14*
X90590Y34421D02*
X88923Y35088D01*
X88090Y36421D01*
X88090Y37754D01*
X88923Y39088D01*
X90590Y39754D01*
X98923Y39754D01*
X100590Y39088D01*
X101423Y37754D01*
X101423Y36421D01*
X100590Y35088D01*
X98923Y34421D01*
G54D14*
X90590Y30754D02*
X88923Y30088D01*
X88090Y28754D01*
X88090Y27421D01*
X88923Y26088D01*
X90590Y25421D01*
X94756Y25421D01*
X95590Y25421D01*
X93923Y27421D01*
X93923Y28754D01*
X94756Y30088D01*
X96423Y30754D01*
X98923Y30754D01*
X100590Y30088D01*
X101423Y28754D01*
X101423Y27421D01*
X100590Y26088D01*
X98923Y25421D01*
X94756Y25421D01*
G54D14*
X98923Y16421D02*
X100590Y17088D01*
X101423Y18421D01*
X101423Y19754D01*
X100590Y21088D01*
X98923Y21754D01*
X94756Y21754D01*
X93923Y21754D01*
X95590Y19754D01*
X95590Y18421D01*
X94756Y17088D01*
X93090Y16421D01*
X90590Y16421D01*
X88923Y17088D01*
X88090Y18421D01*
X88090Y19754D01*
X88923Y21088D01*
X90590Y21754D01*
X94756Y21754D01*
G54D12*
X-123588Y-445338D02*
X-21988Y-445338D01*
X-21988Y-496138D01*
X-123588Y-496138D01*
X-123588Y-445338D01*
G54D12*
X-128588Y55562D02*
X-26988Y55562D01*
X-26988Y4762D01*
X-128588Y4762D01*
X-128588Y55562D01*
G54D13*
X-408373Y-403810D02*
X-408373Y-394921D01*
X-406150Y-394921D01*
X-405261Y-395476D01*
X-404817Y-396588D01*
X-404817Y-397699D01*
X-405261Y-398810D01*
X-406150Y-399365D01*
X-405261Y-399921D01*
X-404817Y-401032D01*
X-404817Y-402143D01*
X-405261Y-403254D01*
X-406150Y-403810D01*
X-408373Y-403810D01*
G54D13*
X-408373Y-399365D02*
X-406150Y-399365D01*
G54D13*
X-402373Y-403810D02*
X-402373Y-394921D01*
G54D13*
X-399929Y-403810D02*
X-397706Y-394921D01*
X-395484Y-403810D01*
G54D13*
X-399040Y-400476D02*
X-396373Y-400476D01*
G54D13*
X-393041Y-402143D02*
X-392596Y-403254D01*
X-391707Y-403810D01*
X-390818Y-403810D01*
X-389929Y-403254D01*
X-389485Y-402143D01*
X-389485Y-401032D01*
X-389930Y-399921D01*
X-390818Y-399366D01*
X-391707Y-399365D01*
X-392596Y-398810D01*
X-393041Y-397699D01*
X-393041Y-396588D01*
X-392596Y-395476D01*
X-391707Y-394921D01*
X-390818Y-394921D01*
X-389930Y-395476D01*
X-389485Y-396588D01*
G54D13*
X-383485Y-403810D02*
X-387041Y-403810D01*
X-387041Y-403254D01*
X-386596Y-402143D01*
X-383930Y-398810D01*
X-383485Y-397699D01*
X-383485Y-396588D01*
X-383930Y-395476D01*
X-384818Y-394921D01*
X-385707Y-394921D01*
X-386596Y-395476D01*
X-387041Y-396588D01*
G54D13*
X-412753Y-6050D02*
X-412753Y2839D01*
X-410530Y2839D01*
X-409642Y2284D01*
X-409197Y1173D01*
X-409197Y61D01*
X-409642Y-1050D01*
X-410530Y-1605D01*
X-409642Y-2161D01*
X-409197Y-3272D01*
X-409197Y-4383D01*
X-409642Y-5494D01*
X-410530Y-6050D01*
X-412753Y-6050D01*
G54D13*
X-412753Y-1605D02*
X-410530Y-1605D01*
G54D13*
X-406753Y-6050D02*
X-406753Y2839D01*
G54D13*
X-404309Y-6050D02*
X-402086Y2839D01*
X-399864Y-6050D01*
G54D13*
X-403420Y-2716D02*
X-400753Y-2716D01*
G54D13*
X-397421Y-4383D02*
X-396976Y-5494D01*
X-396087Y-6050D01*
X-395198Y-6050D01*
X-394310Y-5494D01*
X-393865Y-4383D01*
X-393865Y-3272D01*
X-394310Y-2161D01*
X-395198Y-1605D01*
X-396087Y-1605D01*
X-396976Y-1050D01*
X-397421Y62D01*
X-397421Y1173D01*
X-396976Y2284D01*
X-396087Y2839D01*
X-395198Y2839D01*
X-394310Y2284D01*
X-393865Y1173D01*
G54D13*
X-391421Y-494D02*
X-389198Y2839D01*
X-389198Y-6050D01*
G54D14*
X-84138Y37146D02*
X-84138Y23812D01*
X-79471Y23812D01*
G54D14*
X-75804Y26312D02*
X-75137Y24646D01*
X-73804Y23812D01*
X-72470Y23812D01*
X-71137Y24646D01*
X-70470Y26312D01*
X-70470Y30479D01*
X-70470Y31312D01*
X-72470Y29646D01*
X-73804Y29646D01*
X-75137Y30479D01*
X-75804Y32146D01*
X-75804Y34646D01*
X-75137Y36312D01*
X-73804Y37146D01*
X-72470Y37146D01*
X-71137Y36312D01*
X-70470Y34646D01*
X-70470Y30479D01*
G54D14*
X-66438Y-457404D02*
X-66438Y-470738D01*
X-61771Y-470738D01*
G54D14*
X-54770Y-464071D02*
X-56104Y-464071D01*
X-57437Y-463238D01*
X-58104Y-461571D01*
X-58104Y-459904D01*
X-57437Y-458238D01*
X-56104Y-457404D01*
X-54770Y-457404D01*
X-53437Y-458238D01*
X-52770Y-459904D01*
X-52770Y-461571D01*
X-53437Y-463238D01*
X-54770Y-464071D01*
X-53437Y-464904D01*
X-52770Y-466571D01*
X-52770Y-468238D01*
X-53437Y-469904D01*
X-54770Y-470738D01*
X-56104Y-470738D01*
X-57437Y-469904D01*
X-58104Y-468238D01*
X-58104Y-466571D01*
X-57437Y-464904D01*
X-56104Y-464071D01*
G54D14*
X22796Y-37188D02*
X22129Y-38854D01*
X20796Y-39688D01*
X19462Y-39688D01*
X18129Y-38854D01*
X17462Y-37188D01*
X17462Y-28854D01*
X18129Y-27188D01*
X19462Y-26354D01*
X20796Y-26354D01*
X22129Y-27188D01*
X22796Y-28854D01*
G54D14*
X26462Y-37188D02*
X27129Y-38854D01*
X28462Y-39688D01*
X29796Y-39688D01*
X31129Y-38854D01*
X31796Y-37188D01*
X31796Y-33021D01*
X31796Y-32188D01*
X29796Y-33854D01*
X28462Y-33854D01*
X27129Y-33021D01*
X26462Y-31354D01*
X26462Y-28854D01*
X27129Y-27188D01*
X28462Y-26354D01*
X29796Y-26354D01*
X31129Y-27188D01*
X31796Y-28854D01*
X31796Y-33021D01*
G54D14*
X38796Y-33021D02*
X37462Y-33021D01*
X36129Y-32188D01*
X35462Y-30521D01*
X35462Y-28854D01*
X36129Y-27188D01*
X37462Y-26354D01*
X38796Y-26354D01*
X40129Y-27188D01*
X40796Y-28854D01*
X40796Y-30521D01*
X40129Y-32188D01*
X38796Y-33021D01*
X40129Y-33854D01*
X40796Y-35521D01*
X40796Y-37188D01*
X40129Y-38854D01*
X38796Y-39688D01*
X37462Y-39688D01*
X36129Y-38854D01*
X35462Y-37188D01*
X35462Y-35521D01*
X36129Y-33854D01*
X37462Y-33021D01*
G54D14*
X40496Y-499988D02*
X39829Y-501654D01*
X38496Y-502488D01*
X37162Y-502488D01*
X35829Y-501654D01*
X35162Y-499988D01*
X35162Y-491654D01*
X35829Y-489988D01*
X37162Y-489154D01*
X38496Y-489154D01*
X39829Y-489988D01*
X40496Y-491654D01*
G54D14*
X44162Y-499988D02*
X44829Y-501654D01*
X46162Y-502488D01*
X47496Y-502488D01*
X48829Y-501654D01*
X49496Y-499988D01*
X49496Y-495821D01*
X49496Y-494988D01*
X47496Y-496654D01*
X46162Y-496654D01*
X44829Y-495821D01*
X44162Y-494154D01*
X44162Y-491654D01*
X44829Y-489988D01*
X46162Y-489154D01*
X47496Y-489154D01*
X48829Y-489988D01*
X49496Y-491654D01*
X49496Y-495821D01*
G54D14*
X53162Y-499988D02*
X53829Y-501654D01*
X55162Y-502488D01*
X56496Y-502488D01*
X57829Y-501654D01*
X58496Y-499988D01*
X58496Y-495821D01*
X58496Y-494988D01*
X56496Y-496654D01*
X55162Y-496654D01*
X53829Y-495821D01*
X53162Y-494154D01*
X53162Y-491654D01*
X53829Y-489988D01*
X55162Y-489154D01*
X56496Y-489154D01*
X57829Y-489988D01*
X58496Y-491654D01*
X58496Y-495821D01*
G54D15*
X-547314Y-403790D02*
X-547314Y-418234D01*
X-546425Y-420457D01*
X-544647Y-421568D01*
X-542870Y-421568D01*
X-541092Y-420457D01*
X-540203Y-418234D01*
X-540203Y-403790D01*
G54D15*
X-528203Y-421568D02*
X-535314Y-421568D01*
X-535314Y-420457D01*
X-534425Y-418234D01*
X-529092Y-411568D01*
X-528203Y-409346D01*
X-528203Y-407123D01*
X-529092Y-404901D01*
X-530870Y-403790D01*
X-532647Y-403790D01*
X-534425Y-404901D01*
X-535314Y-407123D01*
G54D10*
X131658Y-489142D02*
X109483Y-489142D01*
X109483Y-438442D01*
X131658Y-438442D01*
X131658Y-489142D01*
G54D10*
X120571Y-489342D02*
X120571Y-497242D01*
G54D10*
X120571Y-438342D02*
X120571Y-430442D01*
G54D14*
X94146Y-457534D02*
X92480Y-456867D01*
X91646Y-455534D01*
X91646Y-454201D01*
X92480Y-452868D01*
X94146Y-452201D01*
X102480Y-452201D01*
X104146Y-452868D01*
X104980Y-454201D01*
X104980Y-455534D01*
X104146Y-456867D01*
X102480Y-457534D01*
G54D14*
X94146Y-461201D02*
X92480Y-461867D01*
X91646Y-463201D01*
X91646Y-464534D01*
X92480Y-465867D01*
X94146Y-466534D01*
X98313Y-466534D01*
X99146Y-466534D01*
X97480Y-464534D01*
X97480Y-463200D01*
X98313Y-461867D01*
X99980Y-461201D01*
X102480Y-461201D01*
X104146Y-461868D01*
X104980Y-463201D01*
X104980Y-464534D01*
X104146Y-465867D01*
X102480Y-466534D01*
X98313Y-466534D01*
G54D14*
X104980Y-470201D02*
X104980Y-475534D01*
X103313Y-474868D01*
X100813Y-473534D01*
X97480Y-472201D01*
X94980Y-471534D01*
X91646Y-471534D01*
G54D10*
G75*
G01X-357987Y-1605D02*
G03X-357987Y-1605I-38100J0D01*
G01*
G54D10*
G75*
G01X-356752Y-396168D02*
G03X-356752Y-396168I-38100J0D01*
G01*
G54D10*
X-676418Y-223520D02*
X-574818Y-223520D01*
X-574818Y-325120D01*
X-676418Y-325120D01*
X-676418Y-223520D01*
G54D15*
X-654200Y-77925D02*
X-654200Y-60148D01*
G54D15*
X-649311Y-77925D02*
X-649311Y-60148D01*
X-638645Y-77925D01*
X-638645Y-60148D01*
G54D15*
X-633755Y-70148D02*
X-623089Y-70148D01*
G54D15*
X-618199Y-60148D02*
X-618199Y-74592D01*
X-616866Y-76814D01*
X-614199Y-77925D01*
X-611533Y-77925D01*
X-608866Y-76814D01*
X-607533Y-74592D01*
X-607533Y-60148D01*
G54D15*
X-602643Y-77925D02*
X-602643Y-60148D01*
X-591977Y-77925D01*
X-591977Y-60148D01*
G54D15*
X-587087Y-77925D02*
X-587087Y-60148D01*
X-580421Y-60148D01*
X-577754Y-61259D01*
X-576421Y-63481D01*
X-576421Y-65703D01*
X-577754Y-67925D01*
X-580421Y-69036D01*
X-577754Y-70148D01*
X-576421Y-72370D01*
X-576421Y-74592D01*
X-577754Y-76814D01*
X-580421Y-77925D01*
X-587087Y-77925D01*
G54D15*
X-587087Y-69036D02*
X-580421Y-69036D01*
G54D15*
X81871Y-116988D02*
X81871Y-99210D01*
G54D15*
X76537Y-99210D02*
X87204Y-99210D01*
G54D15*
X97427Y-108099D02*
X101427Y-110321D01*
X102760Y-112543D01*
X102760Y-116988D01*
G54D15*
X92093Y-116988D02*
X92093Y-99210D01*
X98760Y-99210D01*
X101427Y-100321D01*
X102760Y-102543D01*
X102760Y-104766D01*
X101427Y-106988D01*
X98760Y-108099D01*
X92093Y-108099D01*
G54D15*
X107649Y-105877D02*
X114316Y-99210D01*
X114316Y-116988D01*
G54D15*
X90571Y-341800D02*
X90571Y-324022D01*
G54D15*
X85237Y-324022D02*
X95904Y-324022D01*
G54D15*
X106127Y-332911D02*
X110127Y-335134D01*
X111460Y-337356D01*
X111460Y-341800D01*
G54D15*
X100793Y-341800D02*
X100793Y-324022D01*
X107460Y-324022D01*
X110127Y-325134D01*
X111460Y-327356D01*
X111460Y-329578D01*
X110127Y-331800D01*
X107460Y-332911D01*
X100793Y-332911D01*
G54D15*
X127016Y-341800D02*
X116349Y-341800D01*
X116349Y-340689D01*
X117683Y-338467D01*
X125683Y-331800D01*
X127016Y-329578D01*
X127016Y-327356D01*
X125683Y-325134D01*
X123016Y-324022D01*
X120349Y-324022D01*
X117683Y-325134D01*
X116349Y-327356D01*
G54D16*
X-602513Y-523646D02*
X-602513Y-550313D01*
X-593179Y-550313D01*
G54D16*
X-585847Y-550313D02*
X-585847Y-523646D01*
G54D16*
X-578514Y-550313D02*
X-578514Y-523646D01*
X-567847Y-550313D01*
X-567847Y-523646D01*
G54D16*
X-551180Y-550313D02*
X-560514Y-550313D01*
X-560514Y-523646D01*
X-551180Y-523646D01*
G54D16*
X-560514Y-536980D02*
X-551180Y-536980D01*
G54D16*
X-543848Y-550313D02*
X-537181Y-523646D01*
X-530514Y-550313D01*
G54D16*
X-541181Y-540313D02*
X-533181Y-540313D01*
G54D16*
X-517848Y-536980D02*
X-513848Y-540313D01*
X-512515Y-543646D01*
X-512515Y-550313D01*
G54D16*
X-523182Y-550313D02*
X-523182Y-523646D01*
X-516515Y-523646D01*
X-513848Y-525313D01*
X-512515Y-528646D01*
X-512515Y-531980D01*
X-513848Y-535313D01*
X-516515Y-536980D01*
X-523182Y-536980D01*
G54D16*
X-505182Y-538646D02*
X-494515Y-538646D01*
G54D16*
X-487182Y-550313D02*
X-480515Y-523646D01*
X-473848Y-550313D01*
G54D16*
X-484515Y-540313D02*
X-476515Y-540313D01*
G54D16*
X-466516Y-550313D02*
X-466516Y-523646D01*
X-459849Y-540313D01*
X-453182Y-523646D01*
X-453182Y-550313D01*
G54D16*
X-445850Y-550313D02*
X-445850Y-523646D01*
X-439183Y-523646D01*
X-436516Y-525313D01*
X-435183Y-528646D01*
X-435183Y-531980D01*
X-436516Y-535313D01*
X-439183Y-536980D01*
X-445850Y-536980D01*
G54D16*
X-427850Y-523646D02*
X-427850Y-550313D01*
X-418516Y-550313D01*
G54D16*
X-411184Y-550313D02*
X-411184Y-523646D01*
G54D16*
X-403851Y-550313D02*
X-403851Y-523646D01*
X-394518Y-523646D01*
G54D16*
X-403851Y-536980D02*
X-394518Y-536980D01*
G54D16*
X-387185Y-550313D02*
X-387185Y-523646D01*
G54D16*
X-370518Y-550313D02*
X-379852Y-550313D01*
X-379852Y-523646D01*
X-370518Y-523646D01*
G54D16*
X-379852Y-536980D02*
X-370518Y-536980D01*
G54D16*
X-357852Y-536980D02*
X-353852Y-540313D01*
X-352519Y-543646D01*
X-352519Y-550313D01*
G54D16*
X-363186Y-550313D02*
X-363186Y-523646D01*
X-356519Y-523646D01*
X-353852Y-525313D01*
X-352519Y-528646D01*
X-352519Y-531980D01*
X-353852Y-535313D01*
X-356519Y-536980D01*
X-363186Y-536980D01*
G54D15*
X-358019Y-177910D02*
X-358019Y-195688D01*
X-348686Y-195688D01*
G54D15*
X-343797Y-184577D02*
X-337130Y-177910D01*
X-337130Y-195688D01*
G54D15*
X165606Y-208735D02*
X165606Y-226513D01*
X174939Y-226513D01*
G54D15*
X190495Y-226513D02*
X179828Y-226513D01*
X179828Y-225402D01*
X181161Y-223179D01*
X189161Y-216513D01*
X190495Y-214290D01*
X190495Y-212068D01*
X189161Y-209846D01*
X186495Y-208735D01*
X183828Y-208735D01*
X181161Y-209846D01*
X179828Y-212068D01*
G54D13*
X-541604Y47539D02*
X-538938Y47539D01*
X-538938Y44761D01*
X-539604Y43650D01*
X-540938Y43095D01*
X-542271Y43095D01*
X-543604Y43650D01*
X-544271Y44761D01*
X-544271Y50317D01*
X-543604Y51428D01*
X-542271Y51984D01*
X-540938Y51984D01*
X-539604Y51428D01*
X-538938Y50317D01*
G54D10*
X-481421Y34916D02*
X-456021Y34916D01*
X-456021Y-36685D01*
X-481421Y-36684D01*
X-481421Y34916D01*
G54D14*
X-448142Y5452D02*
X-449808Y6452D01*
X-450642Y8452D01*
X-450642Y10452D01*
X-449808Y12452D01*
X-448142Y13452D01*
X-439808Y13452D01*
X-438142Y12452D01*
X-437308Y10452D01*
X-437308Y8452D01*
X-438142Y6452D01*
X-439808Y5452D01*
G54D14*
X-448142Y1785D02*
X-449808Y785D01*
X-450642Y-1215D01*
X-450642Y-3215D01*
X-449808Y-5215D01*
X-448142Y-6215D01*
X-443975Y-6215D01*
X-443142Y-6215D01*
X-444808Y-3215D01*
X-444808Y-1215D01*
X-443975Y785D01*
X-442308Y1785D01*
X-439808Y1785D01*
X-438142Y785D01*
X-437308Y-1215D01*
X-437308Y-3215D01*
X-438142Y-5215D01*
X-439808Y-6215D01*
X-443975Y-6215D01*
G54D14*
X-450642Y-15882D02*
X-437308Y-15882D01*
X-445642Y-9882D01*
X-447308Y-9882D01*
X-447308Y-17882D01*
G54D15*
X-548032Y-8228D02*
X-548032Y-22672D01*
X-547143Y-24894D01*
X-545366Y-26005D01*
X-543588Y-26005D01*
X-541810Y-24894D01*
X-540921Y-22672D01*
X-540921Y-8228D01*
G54D15*
X-536032Y-14894D02*
X-531588Y-8228D01*
X-531588Y-26005D01*
G54D12*
X-709986Y-433421D02*
X-700386Y-433421D01*
G54D12*
X-705186Y-429421D02*
X-705186Y-437421D01*
G54D12*
X-695986Y-424421D02*
X-689986Y-440421D01*
X-683986Y-424421D01*
G54D12*
X-679586Y-440421D02*
X-679586Y-424421D01*
X-673586Y-424421D01*
X-671186Y-425421D01*
X-669986Y-427421D01*
X-669986Y-429421D01*
X-671186Y-431421D01*
X-673586Y-432421D01*
X-671186Y-433421D01*
X-669986Y-435421D01*
X-669986Y-437421D01*
X-671186Y-439421D01*
X-673586Y-440421D01*
X-679586Y-440421D01*
G54D12*
X-679586Y-432421D02*
X-673586Y-432421D01*
G54D12*
X-665586Y-440421D02*
X-665586Y-424421D01*
G54D12*
X-661186Y-440421D02*
X-655186Y-424421D01*
X-649186Y-440421D01*
G54D12*
X-658786Y-434421D02*
X-651586Y-434421D01*
G54D12*
X-644786Y-437421D02*
X-643586Y-439421D01*
X-641186Y-440421D01*
X-638786Y-440421D01*
X-636386Y-439421D01*
X-635186Y-437421D01*
X-635186Y-435421D01*
X-636386Y-433421D01*
X-638786Y-432421D01*
X-641186Y-432421D01*
X-643586Y-431421D01*
X-644786Y-429421D01*
X-644786Y-427421D01*
X-643586Y-425421D01*
X-641186Y-424421D01*
X-638786Y-424421D01*
X-636386Y-425421D01*
X-635186Y-427421D01*
G54D10*
X-643970Y-390166D02*
X-643971Y-415566D01*
X-694770Y-415565D01*
X-694770Y-390165D01*
X-643970Y-390166D01*
G54D12*
X-628482Y-399766D02*
X-628482Y-406116D01*
G54D12*
X-620544Y-406116D02*
X-636419Y-406116D01*
G54D12*
X-634038Y-409291D02*
X-622926Y-409291D01*
G54D12*
X-626101Y-412466D02*
X-630863Y-412466D01*
G54D12*
X14877Y-534049D02*
X24477Y-534049D01*
G54D12*
X19677Y-530049D02*
X19677Y-538049D01*
G54D12*
X28877Y-525049D02*
X34877Y-541049D01*
X40877Y-525049D01*
G54D10*
X95329Y-543326D02*
X95328Y-568727D01*
X44529Y-568726D01*
X44529Y-543326D01*
X95329Y-543326D01*
G54D12*
X93355Y-549752D02*
X93355Y-556102D01*
G54D12*
X101292Y-556102D02*
X85417Y-556102D01*
G54D12*
X87798Y-559276D02*
X98911Y-559276D01*
G54D12*
X95736Y-562452D02*
X90974Y-562452D01*
G54D12*
X-689497Y-41164D02*
X-679897Y-41164D01*
G54D12*
X-684697Y-37164D02*
X-684697Y-45164D01*
G54D12*
X-675497Y-32164D02*
X-669497Y-48164D01*
X-663497Y-32164D01*
G54D12*
X-659097Y-48164D02*
X-659097Y-32164D01*
X-653097Y-32164D01*
X-650697Y-33164D01*
X-649497Y-35164D01*
X-649497Y-37164D01*
X-650697Y-39164D01*
X-653097Y-40164D01*
X-650697Y-41164D01*
X-649497Y-43164D01*
X-649497Y-45164D01*
X-650697Y-47164D01*
X-653097Y-48164D01*
X-659097Y-48164D01*
G54D12*
X-659097Y-40164D02*
X-653097Y-40164D01*
G54D12*
X-645097Y-48164D02*
X-645097Y-32164D01*
G54D12*
X-640697Y-48164D02*
X-634697Y-32164D01*
X-628697Y-48164D01*
G54D12*
X-638297Y-42164D02*
X-631097Y-42164D01*
G54D12*
X-624297Y-45164D02*
X-623097Y-47164D01*
X-620697Y-48164D01*
X-618297Y-48164D01*
X-615897Y-47164D01*
X-614697Y-45164D01*
X-614697Y-43164D01*
X-615897Y-41164D01*
X-618297Y-40164D01*
X-620697Y-40164D01*
X-623097Y-39164D01*
X-624297Y-37164D01*
X-624297Y-35164D01*
X-623097Y-33164D01*
X-620697Y-32164D01*
X-618297Y-32164D01*
X-615897Y-33164D01*
X-614697Y-35164D01*
G54D10*
X-639207Y-1228D02*
X-639208Y-26628D01*
X-690007Y-26628D01*
X-690007Y-1228D01*
X-639207Y-1228D01*
G54D12*
X-623718Y-7653D02*
X-623718Y-14004D01*
G54D12*
X-615781Y-14004D02*
X-631656Y-14003D01*
G54D12*
X-629275Y-17178D02*
X-618162Y-17178D01*
G54D12*
X-621337Y-20353D02*
X-626099Y-20353D01*
G54D15*
X-652199Y-347613D02*
X-652199Y-329836D01*
G54D15*
X-647310Y-347613D02*
X-647310Y-329836D01*
X-636644Y-347613D01*
X-636644Y-329836D01*
G54D15*
X-631754Y-339836D02*
X-621088Y-339836D01*
G54D15*
X-616198Y-347613D02*
X-616198Y-329836D01*
X-609532Y-329836D01*
X-606865Y-330946D01*
X-605532Y-333169D01*
X-605532Y-335391D01*
X-606865Y-337613D01*
X-609532Y-338724D01*
X-606865Y-339836D01*
X-605532Y-342058D01*
X-605532Y-344280D01*
X-606865Y-346502D01*
X-609532Y-347613D01*
X-616198Y-347613D01*
G54D15*
X-616198Y-338724D02*
X-609532Y-338724D01*
G54D15*
X-600642Y-347613D02*
X-593976Y-329836D01*
X-587309Y-347613D01*
G54D15*
X-597976Y-340946D02*
X-589976Y-340946D01*
G54D15*
X-582420Y-329836D02*
X-582420Y-347613D01*
X-573087Y-347613D01*
G54D14*
X-331022Y-335248D02*
X-332022Y-336915D01*
X-334022Y-337748D01*
X-336022Y-337748D01*
X-338022Y-336915D01*
X-339022Y-335248D01*
X-339022Y-326915D01*
X-338022Y-325248D01*
X-336022Y-324415D01*
X-334022Y-324415D01*
X-332022Y-325248D01*
X-331022Y-326915D01*
G54D14*
X-327354Y-335248D02*
X-326354Y-336915D01*
X-324354Y-337748D01*
X-322354Y-337748D01*
X-320354Y-336915D01*
X-319354Y-335248D01*
X-319354Y-331082D01*
X-319354Y-330248D01*
X-322354Y-331915D01*
X-324354Y-331915D01*
X-326354Y-331082D01*
X-327354Y-329415D01*
X-327354Y-326915D01*
X-326354Y-325248D01*
X-324354Y-324415D01*
X-322354Y-324415D01*
X-320354Y-325248D01*
X-319354Y-326915D01*
X-319354Y-331082D01*
G54D14*
X-315688Y-324415D02*
X-307688Y-324415D01*
X-308688Y-326082D01*
X-310688Y-328582D01*
X-312688Y-331915D01*
X-313688Y-334415D01*
X-313688Y-337748D01*
G54D15*
X291917Y-141081D02*
X291917Y-152192D01*
X290584Y-154415D01*
X287917Y-155526D01*
X285251Y-155526D01*
X282584Y-154415D01*
X281251Y-152192D01*
X281251Y-141081D01*
X282584Y-138859D01*
X285251Y-137748D01*
X287917Y-137748D01*
X290584Y-138859D01*
X291917Y-141081D01*
G54D15*
X296807Y-137748D02*
X296807Y-152192D01*
X298140Y-154415D01*
X300807Y-155526D01*
X303473Y-155526D01*
X306140Y-154415D01*
X307473Y-152192D01*
X307473Y-137748D01*
G54D15*
X317696Y-155526D02*
X317696Y-137748D01*
G54D15*
X312363Y-137748D02*
X323029Y-137748D01*
G54D10*
X265937Y-169075D02*
X367537Y-169075D01*
X367537Y-270675D01*
X265937Y-270675D01*
X265937Y-169075D01*
G54D11*
X265187Y-142325D02*
X265187Y-142325D01*
G54D11*
X265187Y-161825D02*
X265187Y-161825D01*
G54D17*
X-691075Y-158313D02*
X-651988Y-158313D01*
X-650050Y-156375D01*
G54D18*
X-165265Y-83757D02*
X-163843Y-83757D01*
X-163843Y-85979D01*
X-164199Y-86868D01*
X-164910Y-87312D01*
X-165621Y-87312D01*
X-166332Y-86868D01*
X-166688Y-85979D01*
X-166688Y-81535D01*
X-166332Y-80646D01*
X-165621Y-80201D01*
X-164910Y-80201D01*
X-164199Y-80646D01*
X-163843Y-81535D01*
G54D18*
X-169862Y-125412D02*
X-169862Y-118301D01*
X-168085Y-118301D01*
X-167374Y-118746D01*
X-167018Y-119635D01*
X-167018Y-124079D01*
X-167374Y-124968D01*
X-168085Y-125412D01*
X-169862Y-125412D01*
G54D18*
X-168275Y-159004D02*
X-167919Y-159893D01*
X-167208Y-160338D01*
X-166497Y-160338D01*
X-165786Y-159893D01*
X-165431Y-159004D01*
X-165431Y-158115D01*
X-165786Y-157226D01*
X-166497Y-156782D01*
X-167208Y-156782D01*
X-167919Y-156338D01*
X-168275Y-155449D01*
X-168275Y-154560D01*
X-167919Y-153671D01*
X-167208Y-153226D01*
X-166497Y-153226D01*
X-165786Y-153671D01*
X-165431Y-154560D01*
G54D18*
X-163678Y-280607D02*
X-162256Y-280607D01*
X-162256Y-282829D01*
X-162611Y-283718D01*
X-163322Y-284162D01*
X-164033Y-284162D01*
X-164744Y-283718D01*
X-165100Y-282829D01*
X-165100Y-278385D01*
X-164744Y-277496D01*
X-164033Y-277051D01*
X-163322Y-277051D01*
X-162611Y-277496D01*
X-162256Y-278385D01*
G54D18*
X-163512Y-319088D02*
X-163512Y-311976D01*
X-161735Y-311976D01*
X-161024Y-312421D01*
X-160668Y-313310D01*
X-160668Y-317754D01*
X-161024Y-318643D01*
X-161735Y-319088D01*
X-163512Y-319088D01*
G54D18*
X-163512Y-355854D02*
X-163157Y-356743D01*
X-162446Y-357188D01*
X-161735Y-357188D01*
X-161024Y-356743D01*
X-160668Y-355854D01*
X-160668Y-354965D01*
X-161024Y-354076D01*
X-161735Y-353632D01*
X-162446Y-353632D01*
X-163157Y-353188D01*
X-163512Y-352299D01*
X-163512Y-351410D01*
X-163157Y-350521D01*
X-162446Y-350076D01*
X-161735Y-350076D01*
X-161024Y-350521D01*
X-160668Y-351410D01*
G54D14*
X-225981Y-411433D02*
X-227647Y-410433D01*
X-228481Y-408433D01*
X-228481Y-406433D01*
X-227647Y-404433D01*
X-225981Y-403433D01*
X-217647Y-403433D01*
X-215981Y-404433D01*
X-215147Y-406433D01*
X-215147Y-408433D01*
X-215981Y-410433D01*
X-217647Y-411433D01*
G54D14*
X-228481Y-423100D02*
X-228481Y-415100D01*
X-227647Y-415100D01*
X-225981Y-416100D01*
X-220981Y-422100D01*
X-219314Y-423100D01*
X-217647Y-423100D01*
X-215981Y-422100D01*
X-215147Y-420100D01*
X-215147Y-418100D01*
X-215981Y-416100D01*
X-217647Y-415100D01*
G54D14*
X-217647Y-434767D02*
X-215981Y-433767D01*
X-215147Y-431767D01*
X-215147Y-429767D01*
X-215981Y-427767D01*
X-217647Y-426767D01*
X-221814Y-426767D01*
X-222647Y-426767D01*
X-220981Y-429767D01*
X-220981Y-431767D01*
X-221814Y-433767D01*
X-223481Y-434767D01*
X-225981Y-434767D01*
X-227647Y-433767D01*
X-228481Y-431767D01*
X-228481Y-429767D01*
X-227647Y-427767D01*
X-225981Y-426767D01*
X-221814Y-426767D01*
G54D14*
X-228481Y-446434D02*
X-228481Y-438434D01*
X-227647Y-438434D01*
X-225981Y-439434D01*
X-220981Y-445434D01*
X-219314Y-446434D01*
X-217647Y-446434D01*
X-215981Y-445434D01*
X-215147Y-443434D01*
X-215147Y-441434D01*
X-215981Y-439434D01*
X-217647Y-438434D01*
M02*
