; Drill file
; Format: 2.4 (00.0000)
M48
INCH
T01C0.0276
T02C0.0354
T03C0.0394
%
G05
G90
T01
X-021190Y-020690
X-017670Y-020840
X-014480Y-018320
X-011990Y-016500
X-010980Y-019450
X-014480Y-002820
X-010980Y001740
X008270Y-006570
T02
X-027050Y-016800
X-026040Y-016800
X-022230Y-015350
X-021230Y-015350
X-020230Y-015350
X-018500Y-015540
X-016730Y-015350
X-016730Y-017850
X-018510Y-017550
X-014360Y-016600
X-013010Y-017300
X-013010Y-015300
X-011090Y-015050
X-009080Y-014100
X-009130Y-012510
X-007430Y-012190
X-007430Y-013380
X-007430Y-014570
X-009080Y-016110
X-006940Y-016960
X-006940Y-019960
X-003120Y-020590
X-003120Y-018090
X000070Y-018840
X001790Y-018840
X004560Y-017700
X004560Y-020700
X003060Y-022830
X002060Y-022830
X004270Y-011530
X004270Y-007600
X009150Y-007660
X009150Y-011720
X004420Y-001330
X004420Y001670
X003060Y003990
X002050Y003990
X001660Y000000
X000000Y000000
X-003000Y-001000
X-003000Y001500
X-007080Y001840
X-007090Y-001160
X-008990Y-001360
X-008990Y-003370
X-009090Y-005090
X-007430Y-004940
X-007430Y-006130
X-007430Y-007320
X-011110Y-006590
X-011100Y-005090
X-011140Y-002510
X-013060Y-001760
X-014410Y-001070
X-013050Y000250
X-011140Y000490
X-016780Y000180
X-018640Y000030
X-020440Y000030
X-021440Y000030
X-022440Y000030
X-025860Y-001490
X-026860Y-001490
X-027400Y-007170
X-018640Y-001970
X-016780Y-002320
X-016790Y-006470
X-016790Y-008440
X-016790Y-010410
X-011050Y-010470
X-011140Y-012510
X-011050Y-008370
X-011090Y-018050
T03
X-025820Y-012990
X-023820Y-012990
X-023820Y-010490
X-025820Y-010490
X-025780Y-007090
X-024780Y-006090
X-025780Y-005090
X-023780Y-005090
X-023780Y-007090
X-006360Y-024310
X013540Y-023840
X013280Y-010590
X012280Y-009590
X011280Y-008590
X013280Y-008590
X011280Y-010590
X013760Y004000
M30
