%FSLAX34Y34*%
%MOMM*%
%LNCOPPER_TOP*%
G71*
G01*
%ADD10C,3.000*%
%ADD11C,2.800*%
%ADD12C,3.200*%
%ADD13C,2.800*%
%ADD14C,2.000*%
%ADD15C,2.300*%
%ADD16C,4.500*%
%ADD17C,0.733*%
%ADD18C,0.667*%
%ADD19C,0.813*%
%ADD20C,0.767*%
%ADD21C,1.713*%
%ADD22C,1.000*%
%ADD23C,2.179*%
%ADD24C,2.200*%
%ADD25C,2.000*%
%ADD26C,2.000*%
%ADD27C,1.200*%
%ADD28C,1.500*%
%ADD29C,4.300*%
%LPD*%
G36*
X-200000Y940000D02*
X1300000Y940000D01*
X1300000Y-200000D01*
X-200000Y-200000D01*
X-200000Y940000D01*
G37*
%LPC*%
X63294Y498744D02*
G54D10*
D03*
X114094Y498744D02*
G54D10*
D03*
X88694Y473344D02*
G54D10*
D03*
X114094Y447944D02*
G54D10*
D03*
X63294Y447944D02*
G54D10*
D03*
X153392Y238251D02*
G54D11*
D03*
X178791Y238251D02*
G54D11*
D03*
X204191Y238251D02*
G54D11*
D03*
X248141Y233457D02*
G54D12*
D03*
X248028Y182476D02*
G54D12*
D03*
X436358Y245948D02*
G54D12*
D03*
X436408Y169698D02*
G54D12*
D03*
X293091Y238251D02*
G54D11*
D03*
X293092Y174751D02*
G54D11*
D03*
X353416Y206501D02*
G54D11*
D03*
X387575Y188637D02*
G54D12*
D03*
X387687Y239618D02*
G54D12*
D03*
X435124Y640511D02*
G54D12*
D03*
X435174Y564261D02*
G54D12*
D03*
X291857Y632814D02*
G54D11*
D03*
X291857Y569314D02*
G54D11*
D03*
X352182Y601064D02*
G54D11*
D03*
X386606Y634370D02*
G54D12*
D03*
X386494Y583389D02*
G54D12*
D03*
G36*
X515456Y500769D02*
X543456Y500769D01*
X543456Y472769D01*
X515456Y472769D01*
X515456Y500769D01*
G37*
G36*
X515456Y465844D02*
X543456Y465844D01*
X543456Y437844D01*
X515456Y437844D01*
X515456Y465844D01*
G37*
G36*
X515456Y535694D02*
X543456Y535694D01*
X543456Y507694D01*
X515456Y507694D01*
X515456Y535694D01*
G37*
G36*
X515456Y299950D02*
X543456Y299950D01*
X543456Y271950D01*
X515456Y271950D01*
X515456Y299950D01*
G37*
G36*
X515456Y265025D02*
X543456Y265025D01*
X543456Y237025D01*
X515456Y237025D01*
X515456Y265025D01*
G37*
G36*
X515456Y336462D02*
X543456Y336462D01*
X543456Y308462D01*
X515456Y308462D01*
X515456Y336462D01*
G37*
X487239Y498839D02*
G54D12*
D03*
X436259Y498727D02*
G54D12*
D03*
X486239Y310464D02*
G54D12*
D03*
X435259Y310352D02*
G54D12*
D03*
X489778Y542571D02*
G54D12*
D03*
X489666Y593552D02*
G54D12*
D03*
X487600Y219039D02*
G54D12*
D03*
X487487Y270020D02*
G54D12*
D03*
X538100Y598636D02*
G54D12*
D03*
X538149Y674886D02*
G54D12*
D03*
X541800Y121136D02*
G54D12*
D03*
X541850Y197386D02*
G54D12*
D03*
X641906Y666231D02*
G54D11*
D03*
X641906Y602731D02*
G54D11*
D03*
X638906Y168681D02*
G54D11*
D03*
X638906Y105181D02*
G54D11*
D03*
X760350Y628131D02*
G54D11*
D03*
X718106Y628131D02*
G54D11*
D03*
X763638Y149631D02*
G54D11*
D03*
X719806Y149631D02*
G54D11*
D03*
X795750Y729426D02*
G54D12*
D03*
X770250Y729426D02*
G54D12*
D03*
X830299Y594336D02*
G54D12*
D03*
X830350Y670586D02*
G54D12*
D03*
G36*
X277600Y477775D02*
X305600Y477775D01*
X305600Y449775D01*
X277600Y449775D01*
X277600Y477775D01*
G37*
G36*
X421794Y474700D02*
X449794Y474700D01*
X449794Y446700D01*
X421794Y446700D01*
X421794Y474700D01*
G37*
G36*
X423381Y376275D02*
X451381Y376275D01*
X451381Y348275D01*
X423381Y348275D01*
X423381Y376275D01*
G37*
X437381Y415456D02*
G54D11*
D03*
X178791Y238251D02*
G54D11*
D03*
X248028Y182476D02*
G54D11*
D03*
X293092Y174751D02*
G54D11*
D03*
X291857Y569314D02*
G54D11*
D03*
X387687Y239618D02*
G54D11*
D03*
X386494Y583389D02*
G54D11*
D03*
X760350Y628131D02*
G54D11*
D03*
X830299Y594336D02*
G54D11*
D03*
X763638Y149631D02*
G54D11*
D03*
G36*
X277600Y377762D02*
X305600Y377762D01*
X305600Y349762D01*
X277600Y349762D01*
X277600Y377762D01*
G37*
G36*
X277600Y427769D02*
X305600Y427769D01*
X305600Y399769D01*
X277600Y399769D01*
X277600Y427769D01*
G37*
X248028Y182476D02*
G54D11*
D03*
X387687Y239618D02*
G54D11*
D03*
X386494Y583389D02*
G54D11*
D03*
X830299Y594336D02*
G54D11*
D03*
X833856Y102381D02*
G54D12*
D03*
X833906Y178631D02*
G54D12*
D03*
X62326Y361749D02*
G54D13*
D03*
X113126Y361749D02*
G54D11*
D03*
X113126Y298249D02*
G54D11*
D03*
X62326Y298249D02*
G54D11*
D03*
X113126Y361749D02*
G54D13*
D03*
X62326Y298249D02*
G54D13*
D03*
X113126Y298249D02*
G54D13*
D03*
X22269Y446006D02*
G54D11*
D03*
X350302Y556406D02*
G54D14*
D03*
X413600Y209056D02*
G54D14*
D03*
X148007Y628814D02*
G54D11*
D03*
X173407Y628814D02*
G54D11*
D03*
X198807Y628814D02*
G54D11*
D03*
X244756Y629020D02*
G54D12*
D03*
X244644Y578039D02*
G54D12*
D03*
X173407Y628814D02*
G54D11*
D03*
X244644Y578039D02*
G54D11*
D03*
X244644Y578039D02*
G54D11*
D03*
X56603Y201466D02*
G54D12*
D03*
X31103Y201466D02*
G54D12*
D03*
X795902Y48305D02*
G54D12*
D03*
X770402Y48305D02*
G54D12*
D03*
X830350Y670586D02*
G54D11*
D03*
X61366Y590404D02*
G54D12*
D03*
X35866Y590404D02*
G54D12*
D03*
X833856Y102381D02*
G54D11*
D03*
G36*
X423381Y429456D02*
X451381Y429456D01*
X451381Y401456D01*
X423381Y401456D01*
X423381Y429456D01*
G37*
G36*
X812588Y449200D02*
X840588Y449200D01*
X840588Y421200D01*
X812588Y421200D01*
X812588Y449200D01*
G37*
G36*
X812588Y349188D02*
X840588Y349188D01*
X840588Y321188D01*
X812588Y321188D01*
X812588Y349188D01*
G37*
G36*
X936412Y447612D02*
X964412Y447612D01*
X964412Y419612D01*
X936412Y419612D01*
X936412Y447612D01*
G37*
X950412Y330425D02*
G54D11*
D03*
G54D15*
X113126Y361749D02*
X107182Y364656D01*
X56382Y364656D01*
X62326Y361749D01*
G54D15*
X113126Y361749D02*
X107182Y364656D01*
X208782Y466256D01*
X297682Y466256D01*
X291600Y463775D01*
G54D15*
X113126Y298249D02*
X107182Y301156D01*
X170682Y364656D01*
X297682Y364656D01*
X291600Y363763D01*
G54D15*
X113126Y298249D02*
X107182Y301156D01*
X56382Y301156D01*
X62326Y298249D01*
X439202Y672294D02*
G54D14*
D03*
X439202Y134131D02*
G54D14*
D03*
X350302Y162706D02*
G54D14*
D03*
X928152Y461156D02*
G54D14*
D03*
X1004681Y409844D02*
G54D10*
D03*
X1055481Y409844D02*
G54D10*
D03*
X1030081Y384444D02*
G54D10*
D03*
X1055481Y359044D02*
G54D10*
D03*
X1004681Y359044D02*
G54D10*
D03*
G36*
X936412Y344425D02*
X964412Y344425D01*
X964412Y316425D01*
X936412Y316425D01*
X936412Y344425D01*
G37*
G36*
X448546Y74094D02*
X486546Y74094D01*
X486546Y36094D01*
X448546Y36094D01*
X448546Y74094D01*
G37*
G36*
X446958Y737668D02*
X484958Y737668D01*
X484958Y699668D01*
X446958Y699668D01*
X446958Y737668D01*
G37*
G36*
X1042270Y561456D02*
X1080270Y561456D01*
X1080270Y523456D01*
X1042270Y523456D01*
X1042270Y561456D01*
G37*
G36*
X1037508Y226494D02*
X1075508Y226494D01*
X1075508Y188494D01*
X1037508Y188494D01*
X1037508Y226494D01*
G37*
X28600Y711400D02*
G54D16*
D03*
X1054125Y714575D02*
G54D16*
D03*
X1050950Y66875D02*
G54D16*
D03*
X28600Y58938D02*
G54D16*
D03*
G36*
X820525Y428562D02*
X848525Y428562D01*
X848525Y400562D01*
X820525Y400562D01*
X820525Y428562D01*
G37*
G36*
X818937Y369825D02*
X846937Y369825D01*
X846937Y341825D01*
X818937Y341825D01*
X818937Y369825D01*
G37*
G36*
X441112Y466662D02*
X469112Y466662D01*
X469112Y438662D01*
X441112Y438662D01*
X441112Y466662D01*
G37*
G36*
X442700Y390462D02*
X470700Y390462D01*
X470700Y362462D01*
X442700Y362462D01*
X442700Y390462D01*
G37*
%LPD*%
G54D17*
G36*
X59627Y498744D02*
X59627Y514244D01*
X66960Y514244D01*
X66960Y498744D01*
X59627Y498744D01*
G37*
G36*
X63294Y502410D02*
X78794Y502410D01*
X78794Y495077D01*
X63294Y495077D01*
X63294Y502410D01*
G37*
G36*
X66960Y498744D02*
X66960Y483244D01*
X59627Y483244D01*
X59627Y498744D01*
X66960Y498744D01*
G37*
G36*
X63294Y495077D02*
X47794Y495077D01*
X47794Y502410D01*
X63294Y502410D01*
X63294Y495077D01*
G37*
G54D17*
G36*
X110427Y498744D02*
X110427Y514244D01*
X117760Y514244D01*
X117760Y498744D01*
X110427Y498744D01*
G37*
G36*
X114094Y502410D02*
X129594Y502410D01*
X129594Y495077D01*
X114094Y495077D01*
X114094Y502410D01*
G37*
G36*
X117760Y498744D02*
X117760Y483244D01*
X110427Y483244D01*
X110427Y498744D01*
X117760Y498744D01*
G37*
G36*
X114094Y495077D02*
X98594Y495077D01*
X98594Y502410D01*
X114094Y502410D01*
X114094Y495077D01*
G37*
G54D17*
G36*
X110427Y447944D02*
X110427Y463444D01*
X117760Y463444D01*
X117760Y447944D01*
X110427Y447944D01*
G37*
G36*
X114094Y451610D02*
X129594Y451610D01*
X129594Y444277D01*
X114094Y444277D01*
X114094Y451610D01*
G37*
G36*
X117760Y447944D02*
X117760Y432444D01*
X110427Y432444D01*
X110427Y447944D01*
X117760Y447944D01*
G37*
G36*
X114094Y444277D02*
X98594Y444277D01*
X98594Y451610D01*
X114094Y451610D01*
X114094Y444277D01*
G37*
G54D17*
G36*
X59627Y447944D02*
X59627Y463444D01*
X66960Y463444D01*
X66960Y447944D01*
X59627Y447944D01*
G37*
G36*
X63294Y451610D02*
X78794Y451610D01*
X78794Y444277D01*
X63294Y444277D01*
X63294Y451610D01*
G37*
G36*
X66960Y447944D02*
X66960Y432444D01*
X59627Y432444D01*
X59627Y447944D01*
X66960Y447944D01*
G37*
G36*
X63294Y444277D02*
X47794Y444277D01*
X47794Y451610D01*
X63294Y451610D01*
X63294Y444277D01*
G37*
G54D18*
G36*
X529456Y455177D02*
X543956Y455177D01*
X543956Y448510D01*
X529456Y448510D01*
X529456Y455177D01*
G37*
G36*
X532790Y451844D02*
X532790Y437344D01*
X526123Y437344D01*
X526123Y451844D01*
X532790Y451844D01*
G37*
G54D18*
G36*
X526123Y251025D02*
X526123Y265525D01*
X532790Y265525D01*
X532790Y251025D01*
X526123Y251025D01*
G37*
G36*
X529456Y254358D02*
X543956Y254358D01*
X543956Y247692D01*
X529456Y247692D01*
X529456Y254358D01*
G37*
G36*
X532790Y251025D02*
X532790Y236525D01*
X526123Y236525D01*
X526123Y251025D01*
X532790Y251025D01*
G37*
G36*
X529456Y247692D02*
X514956Y247692D01*
X514956Y254358D01*
X529456Y254358D01*
X529456Y247692D01*
G37*
G54D18*
G36*
X799083Y729426D02*
X799083Y712926D01*
X792417Y712926D01*
X792417Y729426D01*
X799083Y729426D01*
G37*
G54D19*
G54D20*
G36*
X182625Y238251D02*
X182625Y223751D01*
X174958Y223751D01*
X174958Y238251D01*
X182625Y238251D01*
G37*
G36*
X178791Y234418D02*
X164291Y234418D01*
X164291Y242085D01*
X178791Y242085D01*
X178791Y234418D01*
G37*
G36*
X174958Y238251D02*
X174958Y252751D01*
X182625Y252751D01*
X182625Y238251D01*
X174958Y238251D01*
G37*
G36*
X178791Y242085D02*
X193291Y242085D01*
X193291Y234418D01*
X178791Y234418D01*
X178791Y242085D01*
G37*
G54D20*
G36*
X251862Y182476D02*
X251862Y167976D01*
X244195Y167976D01*
X244195Y182476D01*
X251862Y182476D01*
G37*
G36*
X248028Y178643D02*
X233528Y178643D01*
X233528Y186310D01*
X248028Y186310D01*
X248028Y178643D01*
G37*
G36*
X244195Y182476D02*
X244195Y196976D01*
X251862Y196976D01*
X251862Y182476D01*
X244195Y182476D01*
G37*
G36*
X248028Y186310D02*
X262528Y186310D01*
X262528Y178643D01*
X248028Y178643D01*
X248028Y186310D01*
G37*
G54D20*
G36*
X296925Y174751D02*
X296925Y160251D01*
X289258Y160251D01*
X289258Y174751D01*
X296925Y174751D01*
G37*
G36*
X293092Y170918D02*
X278592Y170918D01*
X278592Y178585D01*
X293092Y178585D01*
X293092Y170918D01*
G37*
G36*
X289258Y174751D02*
X289258Y189251D01*
X296925Y189251D01*
X296925Y174751D01*
X289258Y174751D01*
G37*
G36*
X293092Y178585D02*
X307592Y178585D01*
X307592Y170918D01*
X293092Y170918D01*
X293092Y178585D01*
G37*
G54D20*
G36*
X295690Y569314D02*
X295690Y554814D01*
X288023Y554814D01*
X288023Y569314D01*
X295690Y569314D01*
G37*
G36*
X291857Y565480D02*
X277357Y565480D01*
X277357Y573147D01*
X291857Y573147D01*
X291857Y565480D01*
G37*
G36*
X288023Y569314D02*
X288023Y583814D01*
X295690Y583814D01*
X295690Y569314D01*
X288023Y569314D01*
G37*
G36*
X291857Y573147D02*
X306357Y573147D01*
X306357Y565480D01*
X291857Y565480D01*
X291857Y573147D01*
G37*
G54D20*
G36*
X383854Y239618D02*
X383854Y254118D01*
X391521Y254118D01*
X391521Y239618D01*
X383854Y239618D01*
G37*
G36*
X387687Y243451D02*
X402187Y243451D01*
X402187Y235784D01*
X387687Y235784D01*
X387687Y243451D01*
G37*
G36*
X391521Y239618D02*
X391521Y225118D01*
X383854Y225118D01*
X383854Y239618D01*
X391521Y239618D01*
G37*
G36*
X387687Y235784D02*
X373187Y235784D01*
X373187Y243451D01*
X387687Y243451D01*
X387687Y235784D01*
G37*
G54D20*
G36*
X390327Y583389D02*
X390327Y568889D01*
X382661Y568889D01*
X382661Y583389D01*
X390327Y583389D01*
G37*
G36*
X386494Y579556D02*
X371994Y579556D01*
X371994Y587222D01*
X386494Y587222D01*
X386494Y579556D01*
G37*
G36*
X382661Y583389D02*
X382661Y597889D01*
X390327Y597889D01*
X390327Y583389D01*
X382661Y583389D01*
G37*
G36*
X386494Y587222D02*
X400994Y587222D01*
X400994Y579556D01*
X386494Y579556D01*
X386494Y587222D01*
G37*
G54D20*
G36*
X756517Y628131D02*
X756517Y642631D01*
X764183Y642631D01*
X764183Y628131D01*
X756517Y628131D01*
G37*
G36*
X760350Y631964D02*
X774850Y631964D01*
X774850Y624298D01*
X760350Y624298D01*
X760350Y631964D01*
G37*
G36*
X764183Y628131D02*
X764183Y613631D01*
X756517Y613631D01*
X756517Y628131D01*
X764183Y628131D01*
G37*
G36*
X760350Y624298D02*
X745850Y624298D01*
X745850Y631964D01*
X760350Y631964D01*
X760350Y624298D01*
G37*
G54D20*
G36*
X826466Y594336D02*
X826466Y608836D01*
X834133Y608836D01*
X834133Y594336D01*
X826466Y594336D01*
G37*
G36*
X830299Y598170D02*
X844799Y598170D01*
X844799Y590503D01*
X830299Y590503D01*
X830299Y598170D01*
G37*
G36*
X834133Y594336D02*
X834133Y579836D01*
X826466Y579836D01*
X826466Y594336D01*
X834133Y594336D01*
G37*
G36*
X830299Y590503D02*
X815799Y590503D01*
X815799Y598170D01*
X830299Y598170D01*
X830299Y590503D01*
G37*
G54D20*
G36*
X759804Y149631D02*
X759804Y164131D01*
X767471Y164131D01*
X767471Y149631D01*
X759804Y149631D01*
G37*
G36*
X763638Y153465D02*
X778138Y153465D01*
X778138Y145798D01*
X763638Y145798D01*
X763638Y153465D01*
G37*
G36*
X767471Y149631D02*
X767471Y135131D01*
X759804Y135131D01*
X759804Y149631D01*
X767471Y149631D01*
G37*
G36*
X763638Y145798D02*
X749138Y145798D01*
X749138Y153465D01*
X763638Y153465D01*
X763638Y145798D01*
G37*
G54D20*
G36*
X287767Y413769D02*
X287767Y428269D01*
X295433Y428269D01*
X295433Y413769D01*
X287767Y413769D01*
G37*
G36*
X291600Y417602D02*
X306100Y417602D01*
X306100Y409935D01*
X291600Y409935D01*
X291600Y417602D01*
G37*
G36*
X295433Y413769D02*
X295433Y399269D01*
X287767Y399269D01*
X287767Y413769D01*
X295433Y413769D01*
G37*
G36*
X291600Y409935D02*
X277100Y409935D01*
X277100Y417602D01*
X291600Y417602D01*
X291600Y409935D01*
G37*
G54D21*
G36*
X256595Y182476D02*
X256595Y167976D01*
X239462Y167976D01*
X239462Y182476D01*
X256595Y182476D01*
G37*
G36*
X248028Y173910D02*
X233528Y173910D01*
X233528Y191043D01*
X248028Y191043D01*
X248028Y173910D01*
G37*
G36*
X239462Y182476D02*
X239462Y196976D01*
X256595Y196976D01*
X256595Y182476D01*
X239462Y182476D01*
G37*
G36*
X248028Y191043D02*
X262528Y191043D01*
X262528Y173910D01*
X248028Y173910D01*
X248028Y191043D01*
G37*
G54D21*
G36*
X379121Y239618D02*
X379121Y254118D01*
X396254Y254118D01*
X396254Y239618D01*
X379121Y239618D01*
G37*
G36*
X387687Y248184D02*
X402187Y248184D01*
X402187Y231051D01*
X387687Y231051D01*
X387687Y248184D01*
G37*
G36*
X396254Y239618D02*
X396254Y225118D01*
X379121Y225118D01*
X379121Y239618D01*
X396254Y239618D01*
G37*
G36*
X387687Y231051D02*
X373187Y231051D01*
X373187Y248184D01*
X387687Y248184D01*
X387687Y231051D01*
G37*
G54D21*
G36*
X395061Y583389D02*
X395061Y568889D01*
X377927Y568889D01*
X377927Y583389D01*
X395061Y583389D01*
G37*
G36*
X386494Y574822D02*
X371994Y574822D01*
X371994Y591956D01*
X386494Y591956D01*
X386494Y574822D01*
G37*
G36*
X377927Y583389D02*
X377927Y597889D01*
X395061Y597889D01*
X395061Y583389D01*
X377927Y583389D01*
G37*
G36*
X386494Y591956D02*
X400994Y591956D01*
X400994Y574822D01*
X386494Y574822D01*
X386494Y591956D01*
G37*
G54D21*
G36*
X821733Y594336D02*
X821733Y608836D01*
X838866Y608836D01*
X838866Y594336D01*
X821733Y594336D01*
G37*
G36*
X830299Y602903D02*
X844799Y602903D01*
X844799Y585770D01*
X830299Y585770D01*
X830299Y602903D01*
G37*
G36*
X838866Y594336D02*
X838866Y579836D01*
X821733Y579836D01*
X821733Y594336D01*
X838866Y594336D01*
G37*
G36*
X830299Y585770D02*
X815799Y585770D01*
X815799Y602903D01*
X830299Y602903D01*
X830299Y585770D01*
G37*
G54D20*
G36*
X177240Y628814D02*
X177240Y614314D01*
X169573Y614314D01*
X169573Y628814D01*
X177240Y628814D01*
G37*
G36*
X173407Y624980D02*
X158907Y624980D01*
X158907Y632647D01*
X173407Y632647D01*
X173407Y624980D01*
G37*
G36*
X169573Y628814D02*
X169573Y643314D01*
X177240Y643314D01*
X177240Y628814D01*
X169573Y628814D01*
G37*
G36*
X173407Y632647D02*
X187907Y632647D01*
X187907Y624980D01*
X173407Y624980D01*
X173407Y632647D01*
G37*
G54D20*
G36*
X248477Y578039D02*
X248477Y563539D01*
X240810Y563539D01*
X240810Y578039D01*
X248477Y578039D01*
G37*
G36*
X244644Y574206D02*
X230144Y574206D01*
X230144Y581872D01*
X244644Y581872D01*
X244644Y574206D01*
G37*
G36*
X240810Y578039D02*
X240810Y592539D01*
X248477Y592539D01*
X248477Y578039D01*
X240810Y578039D01*
G37*
G36*
X244644Y581872D02*
X259144Y581872D01*
X259144Y574206D01*
X244644Y574206D01*
X244644Y581872D01*
G37*
G54D21*
G36*
X253210Y578039D02*
X253210Y563539D01*
X236077Y563539D01*
X236077Y578039D01*
X253210Y578039D01*
G37*
G36*
X244644Y569472D02*
X230144Y569472D01*
X230144Y586605D01*
X244644Y586605D01*
X244644Y569472D01*
G37*
G36*
X236077Y578039D02*
X236077Y592539D01*
X253210Y592539D01*
X253210Y578039D01*
X236077Y578039D01*
G37*
G36*
X244644Y586605D02*
X259144Y586605D01*
X259144Y569472D01*
X244644Y569472D01*
X244644Y586605D01*
G37*
G54D18*
G36*
X59936Y201466D02*
X59936Y184966D01*
X53269Y184966D01*
X53269Y201466D01*
X59936Y201466D01*
G37*
G54D19*
G54D18*
G36*
X799235Y48305D02*
X799235Y31805D01*
X792569Y31805D01*
X792569Y48305D01*
X799235Y48305D01*
G37*
G54D19*
G54D18*
G36*
X64699Y590404D02*
X64699Y573904D01*
X58032Y573904D01*
X58032Y590404D01*
X64699Y590404D01*
G37*
G54D19*
G54D21*
G36*
X825290Y102381D02*
X825290Y116881D01*
X842423Y116881D01*
X842423Y102381D01*
X825290Y102381D01*
G37*
G36*
X833856Y110948D02*
X848356Y110948D01*
X848356Y93814D01*
X833856Y93814D01*
X833856Y110948D01*
G37*
G36*
X842423Y102381D02*
X842423Y87881D01*
X825290Y87881D01*
X825290Y102381D01*
X842423Y102381D01*
G37*
G36*
X833856Y93814D02*
X819356Y93814D01*
X819356Y110948D01*
X833856Y110948D01*
X833856Y93814D01*
G37*
G54D20*
G36*
X433548Y415456D02*
X433548Y429956D01*
X441215Y429956D01*
X441215Y415456D01*
X433548Y415456D01*
G37*
G36*
X437381Y419290D02*
X451881Y419290D01*
X451881Y411623D01*
X437381Y411623D01*
X437381Y419290D01*
G37*
G36*
X441215Y415456D02*
X441215Y400956D01*
X433548Y400956D01*
X433548Y415456D01*
X441215Y415456D01*
G37*
G36*
X437381Y411623D02*
X422881Y411623D01*
X422881Y419290D01*
X437381Y419290D01*
X437381Y411623D01*
G37*
G54D17*
G36*
X1001015Y409844D02*
X1001015Y425344D01*
X1008348Y425344D01*
X1008348Y409844D01*
X1001015Y409844D01*
G37*
G36*
X1004681Y413510D02*
X1020181Y413510D01*
X1020181Y406177D01*
X1004681Y406177D01*
X1004681Y413510D01*
G37*
G36*
X1008348Y409844D02*
X1008348Y394344D01*
X1001015Y394344D01*
X1001015Y409844D01*
X1008348Y409844D01*
G37*
G36*
X1004681Y406177D02*
X989181Y406177D01*
X989181Y413510D01*
X1004681Y413510D01*
X1004681Y406177D01*
G37*
G54D17*
G36*
X1051815Y409844D02*
X1051815Y425344D01*
X1059148Y425344D01*
X1059148Y409844D01*
X1051815Y409844D01*
G37*
G36*
X1055481Y413510D02*
X1070981Y413510D01*
X1070981Y406177D01*
X1055481Y406177D01*
X1055481Y413510D01*
G37*
G36*
X1059148Y409844D02*
X1059148Y394344D01*
X1051815Y394344D01*
X1051815Y409844D01*
X1059148Y409844D01*
G37*
G36*
X1055481Y406177D02*
X1039981Y406177D01*
X1039981Y413510D01*
X1055481Y413510D01*
X1055481Y406177D01*
G37*
G54D17*
G36*
X1051815Y359044D02*
X1051815Y374544D01*
X1059148Y374544D01*
X1059148Y359044D01*
X1051815Y359044D01*
G37*
G36*
X1055481Y362710D02*
X1070981Y362710D01*
X1070981Y355377D01*
X1055481Y355377D01*
X1055481Y362710D01*
G37*
G36*
X1059148Y359044D02*
X1059148Y343544D01*
X1051815Y343544D01*
X1051815Y359044D01*
X1059148Y359044D01*
G37*
G36*
X1055481Y355377D02*
X1039981Y355377D01*
X1039981Y362710D01*
X1055481Y362710D01*
X1055481Y355377D01*
G37*
G54D17*
G36*
X1001015Y359044D02*
X1001015Y374544D01*
X1008348Y374544D01*
X1008348Y359044D01*
X1001015Y359044D01*
G37*
G36*
X1004681Y362710D02*
X1020181Y362710D01*
X1020181Y355377D01*
X1004681Y355377D01*
X1004681Y362710D01*
G37*
G36*
X1008348Y359044D02*
X1008348Y343544D01*
X1001015Y343544D01*
X1001015Y359044D01*
X1008348Y359044D01*
G37*
G36*
X1004681Y355377D02*
X989181Y355377D01*
X989181Y362710D01*
X1004681Y362710D01*
X1004681Y355377D01*
G37*
G54D20*
G36*
X946579Y330425D02*
X946579Y344925D01*
X954246Y344925D01*
X954246Y330425D01*
X946579Y330425D01*
G37*
G36*
X950412Y334258D02*
X964912Y334258D01*
X964912Y326592D01*
X950412Y326592D01*
X950412Y334258D01*
G37*
G36*
X954246Y330425D02*
X954246Y315925D01*
X946579Y315925D01*
X946579Y330425D01*
X954246Y330425D01*
G37*
G36*
X950412Y326592D02*
X935912Y326592D01*
X935912Y334258D01*
X950412Y334258D01*
X950412Y326592D01*
G37*
G54D22*
G36*
X462546Y55094D02*
X462546Y74594D01*
X472546Y74594D01*
X472546Y55094D01*
X462546Y55094D01*
G37*
G36*
X467546Y60094D02*
X487046Y60094D01*
X487046Y50094D01*
X467546Y50094D01*
X467546Y60094D01*
G37*
G36*
X472546Y55094D02*
X472546Y35594D01*
X462546Y35594D01*
X462546Y55094D01*
X472546Y55094D01*
G37*
G36*
X467546Y50094D02*
X448046Y50094D01*
X448046Y60094D01*
X467546Y60094D01*
X467546Y50094D01*
G37*
G54D22*
G36*
X460958Y718668D02*
X460958Y738168D01*
X470958Y738168D01*
X470958Y718668D01*
X460958Y718668D01*
G37*
G36*
X465958Y723668D02*
X485458Y723668D01*
X485458Y713668D01*
X465958Y713668D01*
X465958Y723668D01*
G37*
G36*
X470958Y718668D02*
X470958Y699168D01*
X460958Y699168D01*
X460958Y718668D01*
X470958Y718668D01*
G37*
G36*
X465958Y713668D02*
X446458Y713668D01*
X446458Y723668D01*
X465958Y723668D01*
X465958Y713668D01*
G37*
G54D22*
G36*
X1056270Y542456D02*
X1056270Y561956D01*
X1066270Y561956D01*
X1066270Y542456D01*
X1056270Y542456D01*
G37*
G36*
X1061270Y547456D02*
X1080770Y547456D01*
X1080770Y537456D01*
X1061270Y537456D01*
X1061270Y547456D01*
G37*
G36*
X1066270Y542456D02*
X1066270Y522956D01*
X1056270Y522956D01*
X1056270Y542456D01*
X1066270Y542456D01*
G37*
G36*
X1061270Y537456D02*
X1041770Y537456D01*
X1041770Y547456D01*
X1061270Y547456D01*
X1061270Y537456D01*
G37*
G54D22*
G36*
X1051508Y207494D02*
X1051508Y226994D01*
X1061508Y226994D01*
X1061508Y207494D01*
X1051508Y207494D01*
G37*
G36*
X1056508Y212494D02*
X1076008Y212494D01*
X1076008Y202494D01*
X1056508Y202494D01*
X1056508Y212494D01*
G37*
G36*
X1061508Y207494D02*
X1061508Y187994D01*
X1051508Y187994D01*
X1051508Y207494D01*
X1061508Y207494D01*
G37*
G36*
X1056508Y202494D02*
X1037008Y202494D01*
X1037008Y212494D01*
X1056508Y212494D01*
X1056508Y202494D01*
G37*
G54D23*
G36*
X28600Y722293D02*
X51600Y722293D01*
X51600Y700507D01*
X28600Y700507D01*
X28600Y722293D01*
G37*
G36*
X39493Y711400D02*
X39493Y688400D01*
X17707Y688400D01*
X17707Y711400D01*
X39493Y711400D01*
G37*
G36*
X28600Y700507D02*
X5600Y700507D01*
X5600Y722293D01*
X28600Y722293D01*
X28600Y700507D01*
G37*
G36*
X17707Y711400D02*
X17707Y734400D01*
X39493Y734400D01*
X39493Y711400D01*
X17707Y711400D01*
G37*
G54D23*
G36*
X1054125Y725468D02*
X1077125Y725468D01*
X1077125Y703682D01*
X1054125Y703682D01*
X1054125Y725468D01*
G37*
G36*
X1065018Y714575D02*
X1065018Y691575D01*
X1043232Y691575D01*
X1043232Y714575D01*
X1065018Y714575D01*
G37*
G36*
X1054125Y703682D02*
X1031125Y703682D01*
X1031125Y725468D01*
X1054125Y725468D01*
X1054125Y703682D01*
G37*
G36*
X1043232Y714575D02*
X1043232Y737575D01*
X1065018Y737575D01*
X1065018Y714575D01*
X1043232Y714575D01*
G37*
G54D23*
G36*
X1050950Y77768D02*
X1073950Y77768D01*
X1073950Y55982D01*
X1050950Y55982D01*
X1050950Y77768D01*
G37*
G36*
X1061843Y66875D02*
X1061843Y43875D01*
X1040057Y43875D01*
X1040057Y66875D01*
X1061843Y66875D01*
G37*
G36*
X1050950Y55982D02*
X1027950Y55982D01*
X1027950Y77768D01*
X1050950Y77768D01*
X1050950Y55982D01*
G37*
G36*
X1040057Y66875D02*
X1040057Y89875D01*
X1061843Y89875D01*
X1061843Y66875D01*
X1040057Y66875D01*
G37*
G54D23*
G36*
X28600Y69831D02*
X51600Y69831D01*
X51600Y48044D01*
X28600Y48044D01*
X28600Y69831D01*
G37*
G36*
X39493Y58938D02*
X39493Y35938D01*
X17707Y35938D01*
X17707Y58938D01*
X39493Y58938D01*
G37*
G36*
X28600Y48044D02*
X5600Y48044D01*
X5600Y69831D01*
X28600Y69831D01*
X28600Y48044D01*
G37*
G36*
X17707Y58938D02*
X17707Y81938D01*
X39493Y81938D01*
X39493Y58938D01*
X17707Y58938D01*
G37*
X63294Y498744D02*
G54D24*
D03*
X114094Y498744D02*
G54D24*
D03*
X88694Y473344D02*
G54D24*
D03*
X114094Y447944D02*
G54D24*
D03*
X63294Y447944D02*
G54D24*
D03*
X153392Y238251D02*
G54D25*
D03*
X178791Y238251D02*
G54D25*
D03*
X204191Y238251D02*
G54D25*
D03*
X248141Y233457D02*
G54D25*
D03*
X248028Y182476D02*
G54D25*
D03*
X436358Y245948D02*
G54D25*
D03*
X436408Y169698D02*
G54D25*
D03*
X293091Y238251D02*
G54D25*
D03*
X293092Y174751D02*
G54D25*
D03*
X353416Y206501D02*
G54D25*
D03*
X387575Y188637D02*
G54D25*
D03*
X387687Y239618D02*
G54D25*
D03*
X435124Y640511D02*
G54D25*
D03*
X435174Y564261D02*
G54D25*
D03*
X291857Y632814D02*
G54D25*
D03*
X291857Y569314D02*
G54D25*
D03*
X352182Y601064D02*
G54D25*
D03*
X386606Y634370D02*
G54D25*
D03*
X386494Y583389D02*
G54D25*
D03*
G36*
X519456Y496769D02*
X539456Y496769D01*
X539456Y476769D01*
X519456Y476769D01*
X519456Y496769D01*
G37*
G36*
X519456Y461844D02*
X539456Y461844D01*
X539456Y441844D01*
X519456Y441844D01*
X519456Y461844D01*
G37*
G36*
X519456Y531694D02*
X539456Y531694D01*
X539456Y511694D01*
X519456Y511694D01*
X519456Y531694D01*
G37*
G36*
X519456Y295950D02*
X539456Y295950D01*
X539456Y275950D01*
X519456Y275950D01*
X519456Y295950D01*
G37*
G36*
X519456Y261025D02*
X539456Y261025D01*
X539456Y241025D01*
X519456Y241025D01*
X519456Y261025D01*
G37*
G36*
X519456Y332462D02*
X539456Y332462D01*
X539456Y312462D01*
X519456Y312462D01*
X519456Y332462D01*
G37*
X487239Y498839D02*
G54D25*
D03*
X436259Y498727D02*
G54D25*
D03*
X486239Y310464D02*
G54D25*
D03*
X435259Y310352D02*
G54D25*
D03*
X489778Y542571D02*
G54D25*
D03*
X489666Y593552D02*
G54D25*
D03*
X487600Y219039D02*
G54D25*
D03*
X487487Y270020D02*
G54D25*
D03*
X538100Y598636D02*
G54D25*
D03*
X538149Y674886D02*
G54D25*
D03*
X541800Y121136D02*
G54D25*
D03*
X541850Y197386D02*
G54D25*
D03*
X641906Y666231D02*
G54D25*
D03*
X641906Y602731D02*
G54D25*
D03*
X638906Y168681D02*
G54D25*
D03*
X638906Y105181D02*
G54D25*
D03*
X760350Y628131D02*
G54D25*
D03*
X718106Y628131D02*
G54D25*
D03*
X763638Y149631D02*
G54D25*
D03*
X719806Y149631D02*
G54D25*
D03*
X795750Y729426D02*
G54D25*
D03*
X770250Y729426D02*
G54D25*
D03*
X830299Y594336D02*
G54D25*
D03*
X830350Y670586D02*
G54D25*
D03*
G36*
X281600Y473775D02*
X301600Y473775D01*
X301600Y453775D01*
X281600Y453775D01*
X281600Y473775D01*
G37*
G36*
X425794Y470700D02*
X445794Y470700D01*
X445794Y450700D01*
X425794Y450700D01*
X425794Y470700D01*
G37*
G36*
X427381Y372275D02*
X447381Y372275D01*
X447381Y352275D01*
X427381Y352275D01*
X427381Y372275D01*
G37*
X437381Y415456D02*
G54D25*
D03*
X178791Y238251D02*
G54D25*
D03*
X248028Y182476D02*
G54D25*
D03*
X293092Y174751D02*
G54D25*
D03*
X291857Y569314D02*
G54D25*
D03*
X387687Y239618D02*
G54D25*
D03*
X386494Y583389D02*
G54D25*
D03*
X760350Y628131D02*
G54D25*
D03*
X830299Y594336D02*
G54D25*
D03*
X763638Y149631D02*
G54D25*
D03*
G36*
X281600Y373762D02*
X301600Y373762D01*
X301600Y353762D01*
X281600Y353762D01*
X281600Y373762D01*
G37*
G36*
X281600Y423769D02*
X301600Y423769D01*
X301600Y403769D01*
X281600Y403769D01*
X281600Y423769D01*
G37*
X248028Y182476D02*
G54D25*
D03*
X387687Y239618D02*
G54D25*
D03*
X386494Y583389D02*
G54D25*
D03*
X830299Y594336D02*
G54D25*
D03*
X833856Y102381D02*
G54D25*
D03*
X833906Y178631D02*
G54D25*
D03*
X62326Y361749D02*
G54D26*
D03*
X113126Y361749D02*
G54D25*
D03*
X113126Y298249D02*
G54D25*
D03*
X62326Y298249D02*
G54D25*
D03*
X113126Y361749D02*
G54D26*
D03*
X62326Y298249D02*
G54D26*
D03*
X113126Y298249D02*
G54D26*
D03*
X22269Y446006D02*
G54D25*
D03*
X350302Y556406D02*
G54D27*
D03*
X413600Y209056D02*
G54D27*
D03*
X148007Y628814D02*
G54D25*
D03*
X173407Y628814D02*
G54D25*
D03*
X198807Y628814D02*
G54D25*
D03*
X244756Y629020D02*
G54D25*
D03*
X244644Y578039D02*
G54D25*
D03*
X173407Y628814D02*
G54D25*
D03*
X244644Y578039D02*
G54D25*
D03*
X244644Y578039D02*
G54D25*
D03*
X56603Y201466D02*
G54D25*
D03*
X31103Y201466D02*
G54D25*
D03*
X795902Y48305D02*
G54D25*
D03*
X770402Y48305D02*
G54D25*
D03*
X830350Y670586D02*
G54D25*
D03*
X61366Y590404D02*
G54D25*
D03*
X35866Y590404D02*
G54D25*
D03*
X833856Y102381D02*
G54D25*
D03*
G36*
X427381Y425456D02*
X447381Y425456D01*
X447381Y405456D01*
X427381Y405456D01*
X427381Y425456D01*
G37*
G36*
X816588Y445200D02*
X836588Y445200D01*
X836588Y425200D01*
X816588Y425200D01*
X816588Y445200D01*
G37*
G36*
X816588Y345188D02*
X836588Y345188D01*
X836588Y325188D01*
X816588Y325188D01*
X816588Y345188D01*
G37*
G36*
X940412Y443612D02*
X960412Y443612D01*
X960412Y423612D01*
X940412Y423612D01*
X940412Y443612D01*
G37*
X950412Y330425D02*
G54D25*
D03*
G54D28*
X113126Y361749D02*
X107182Y364656D01*
X56382Y364656D01*
X62326Y361749D01*
G54D28*
X113126Y361749D02*
X107182Y364656D01*
X208782Y466256D01*
X297682Y466256D01*
X291600Y463775D01*
G54D28*
X113126Y298249D02*
X107182Y301156D01*
X170682Y364656D01*
X297682Y364656D01*
X291600Y363763D01*
G54D28*
X113126Y298249D02*
X107182Y301156D01*
X56382Y301156D01*
X62326Y298249D01*
X439202Y672294D02*
G54D27*
D03*
X439202Y134131D02*
G54D27*
D03*
X350302Y162706D02*
G54D27*
D03*
X928152Y461156D02*
G54D27*
D03*
X1004681Y409844D02*
G54D24*
D03*
X1055481Y409844D02*
G54D24*
D03*
X1030081Y384444D02*
G54D24*
D03*
X1055481Y359044D02*
G54D24*
D03*
X1004681Y359044D02*
G54D24*
D03*
G36*
X940412Y340425D02*
X960412Y340425D01*
X960412Y320425D01*
X940412Y320425D01*
X940412Y340425D01*
G37*
G36*
X452546Y70094D02*
X482546Y70094D01*
X482546Y40094D01*
X452546Y40094D01*
X452546Y70094D01*
G37*
G36*
X450958Y733668D02*
X480958Y733668D01*
X480958Y703668D01*
X450958Y703668D01*
X450958Y733668D01*
G37*
G36*
X1046270Y557456D02*
X1076270Y557456D01*
X1076270Y527456D01*
X1046270Y527456D01*
X1046270Y557456D01*
G37*
G36*
X1041508Y222494D02*
X1071508Y222494D01*
X1071508Y192494D01*
X1041508Y192494D01*
X1041508Y222494D01*
G37*
X28600Y711400D02*
G54D29*
D03*
X1054125Y714575D02*
G54D29*
D03*
X1050950Y66875D02*
G54D29*
D03*
X28600Y58938D02*
G54D29*
D03*
G36*
X824525Y424562D02*
X844525Y424562D01*
X844525Y404562D01*
X824525Y404562D01*
X824525Y424562D01*
G37*
G36*
X822937Y365825D02*
X842937Y365825D01*
X842937Y345825D01*
X822937Y345825D01*
X822937Y365825D01*
G37*
G36*
X445112Y462662D02*
X465112Y462662D01*
X465112Y442662D01*
X445112Y442662D01*
X445112Y462662D01*
G37*
G36*
X446700Y386462D02*
X466700Y386462D01*
X466700Y366462D01*
X446700Y366462D01*
X446700Y386462D01*
G37*
M02*
