%FSLAX34Y34*%
%MOMM*%
%LNSOLDERMASK_TOP*%
G71*
G01*
%ADD10C,2.600*%
%ADD11C,2.600*%
%ADD12C,4.900*%
%ADD13C,1.600*%
%ADD14C,2.500*%
%LPD*%
X-192662Y320670D02*
G54D10*
D03*
X-192662Y257170D02*
G54D10*
D03*
X-132337Y288920D02*
G54D10*
D03*
G36*
X-96650Y13000D02*
X-70650Y13000D01*
X-70650Y-13000D01*
X-96650Y-13000D01*
X-96650Y13000D01*
G37*
G36*
X-96650Y-25100D02*
X-70650Y-25100D01*
X-70650Y-51100D01*
X-96650Y-51100D01*
X-96650Y-25100D01*
G37*
G36*
X-96650Y47925D02*
X-70650Y47925D01*
X-70650Y21925D01*
X-96650Y21925D01*
X-96650Y47925D01*
G37*
G36*
X-96650Y-171150D02*
X-70650Y-171150D01*
X-70650Y-197150D01*
X-96650Y-197150D01*
X-96650Y-171150D01*
G37*
G36*
X-96650Y-203694D02*
X-70650Y-203694D01*
X-70650Y-229694D01*
X-96650Y-229694D01*
X-96650Y-203694D01*
G37*
G36*
X-96650Y-138606D02*
X-70650Y-138606D01*
X-70650Y-164606D01*
X-96650Y-164606D01*
X-96650Y-138606D01*
G37*
X-550735Y335664D02*
G54D10*
D03*
X-525235Y335664D02*
G54D10*
D03*
X-192662Y257170D02*
G54D10*
D03*
X-438112Y319845D02*
G54D10*
D03*
X-412712Y319845D02*
G54D10*
D03*
X-387312Y319845D02*
G54D10*
D03*
X-447725Y280364D02*
G54D10*
D03*
X-447837Y229383D02*
G54D10*
D03*
X-412712Y319845D02*
G54D10*
D03*
X-447837Y229383D02*
G54D10*
D03*
X-447837Y229383D02*
G54D10*
D03*
G36*
X213182Y-21106D02*
X239182Y-21106D01*
X239182Y-47106D01*
X213182Y-47106D01*
X213182Y-21106D01*
G37*
G36*
X206832Y-168744D02*
X232832Y-168744D01*
X232832Y-194744D01*
X206832Y-194744D01*
X206832Y-168744D01*
G37*
G36*
X349706Y-16344D02*
X375706Y-16344D01*
X375706Y-42344D01*
X349706Y-42344D01*
X349706Y-16344D01*
G37*
X-133855Y64545D02*
G54D10*
D03*
X-184835Y64433D02*
G54D10*
D03*
X-140204Y-162467D02*
G54D10*
D03*
X-191185Y-162580D02*
G54D10*
D03*
X-203704Y113758D02*
G54D10*
D03*
X-254685Y113645D02*
G54D10*
D03*
X-200529Y-279942D02*
G54D10*
D03*
X-251510Y-280055D02*
G54D10*
D03*
X453521Y55020D02*
G54D10*
D03*
X402540Y54908D02*
G54D10*
D03*
G36*
X468982Y29194D02*
X494982Y29194D01*
X494982Y3194D01*
X468982Y3194D01*
X468982Y29194D01*
G37*
G36*
X669006Y30782D02*
X695006Y30782D01*
X695006Y4782D01*
X669006Y4782D01*
X669006Y30782D01*
G37*
X682006Y-223518D02*
G54D11*
D03*
X242894Y-213328D02*
G54D10*
D03*
X279022Y-249297D02*
G54D10*
D03*
X279022Y-249297D02*
G54D10*
D03*
G36*
X349706Y-168744D02*
X375706Y-168744D01*
X375706Y-194744D01*
X349706Y-194744D01*
X349706Y-168744D01*
G37*
X448758Y-245017D02*
G54D10*
D03*
X397778Y-245130D02*
G54D10*
D03*
X418109Y-66040D02*
G54D10*
D03*
X418221Y-117020D02*
G54D10*
D03*
X418221Y-117020D02*
G54D10*
D03*
X418221Y-117020D02*
G54D10*
D03*
G36*
X468982Y-208930D02*
X494982Y-208930D01*
X494982Y-234930D01*
X468982Y-234930D01*
X468982Y-208930D01*
G37*
G36*
X695006Y-236518D02*
X669006Y-236518D01*
X669006Y-210518D01*
X695006Y-210518D01*
X695006Y-236518D01*
G37*
X-500774Y255798D02*
G54D10*
D03*
X-544605Y255798D02*
G54D10*
D03*
X-500774Y255798D02*
G54D10*
D03*
X-327737Y266910D02*
G54D10*
D03*
X-371568Y266910D02*
G54D10*
D03*
X-327737Y266910D02*
G54D10*
D03*
X-285800Y285126D02*
G54D10*
D03*
X-285912Y234145D02*
G54D10*
D03*
X-285912Y234145D02*
G54D10*
D03*
X-285912Y234145D02*
G54D10*
D03*
X-51374Y327020D02*
G54D10*
D03*
X-51374Y263520D02*
G54D10*
D03*
X8951Y295270D02*
G54D10*
D03*
X-51374Y263520D02*
G54D10*
D03*
X-258179Y-194527D02*
G54D10*
D03*
X-118844Y-94730D02*
G54D10*
D03*
X243971Y278064D02*
G54D10*
D03*
X192990Y277952D02*
G54D10*
D03*
X192990Y277952D02*
G54D10*
D03*
X473684Y308422D02*
G54D10*
D03*
X372756Y311150D02*
G54D10*
D03*
G36*
X-540356Y-3669D02*
X-514356Y-3669D01*
X-514356Y-29669D01*
X-540356Y-29669D01*
X-540356Y-3669D01*
G37*
G36*
X-538768Y-160831D02*
X-512768Y-160831D01*
X-512768Y-186831D01*
X-538768Y-186831D01*
X-538768Y-160831D01*
G37*
G36*
X-338744Y-29863D02*
X-312744Y-29863D01*
X-312744Y-55863D01*
X-338744Y-55863D01*
X-338744Y-29863D01*
G37*
G36*
X-340331Y-118763D02*
X-314331Y-118763D01*
X-314331Y-144763D01*
X-340331Y-144763D01*
X-340331Y-118763D01*
G37*
G36*
X-541150Y-52882D02*
X-515150Y-52882D01*
X-515150Y-78882D01*
X-541150Y-78882D01*
X-541150Y-52882D01*
G37*
G36*
X-540356Y-116381D02*
X-514356Y-116381D01*
X-514356Y-142381D01*
X-540356Y-142381D01*
X-540356Y-116381D01*
G37*
G36*
X669006Y-8906D02*
X695006Y-8906D01*
X695006Y-34906D01*
X669006Y-34906D01*
X669006Y-8906D01*
G37*
G36*
X695006Y-207943D02*
X669006Y-207943D01*
X669006Y-181943D01*
X695006Y-181943D01*
X695006Y-207943D01*
G37*
X-562531Y-303144D02*
G54D12*
D03*
X-562106Y179406D02*
G54D12*
D03*
G36*
X-433023Y-330813D02*
X-407023Y-330813D01*
X-407023Y-356813D01*
X-433023Y-356813D01*
X-433023Y-330813D01*
G37*
G36*
X656064Y192600D02*
X682064Y192600D01*
X682064Y166600D01*
X656064Y166600D01*
X656064Y192600D01*
G37*
G36*
X293414Y-325813D02*
X319414Y-325813D01*
X319414Y-351813D01*
X293414Y-351813D01*
X293414Y-325813D01*
G37*
G36*
X-477036Y126500D02*
X-451036Y126500D01*
X-451036Y100500D01*
X-477036Y100500D01*
X-477036Y126500D01*
G37*
X225452Y330107D02*
G54D10*
D03*
X250952Y330108D02*
G54D10*
D03*
X497856Y57469D02*
G54D13*
D03*
X-336856Y-5556D02*
G54D13*
D03*
X-332887Y-170656D02*
G54D13*
D03*
X672482Y54294D02*
G54D13*
D03*
X-258179Y-92927D02*
G54D14*
D03*
X-255894Y-62707D02*
G54D10*
D03*
X-255894Y-62707D02*
G54D14*
D03*
X-255894Y38894D02*
G54D14*
D03*
X-258179Y-92927D02*
G54D10*
D03*
X-220444Y-94730D02*
G54D10*
D03*
X-118844Y-94730D02*
G54D14*
D03*
X-119368Y-23018D02*
G54D14*
D03*
X-220968Y-23018D02*
G54D14*
D03*
X-225206Y-204268D02*
G54D10*
D03*
X-123606Y-204268D02*
G54D14*
D03*
X-225206Y-204268D02*
G54D14*
D03*
X-222793Y26194D02*
G54D10*
D03*
X-121193Y26194D02*
G54D14*
D03*
X-222793Y26194D02*
G54D14*
D03*
G36*
X-597650Y-64190D02*
X-589460Y-56000D01*
X-577840Y-56000D01*
X-569650Y-64190D01*
X-569650Y-75810D01*
X-577840Y-84000D01*
X-589460Y-84000D01*
X-597650Y-75810D01*
X-597650Y-64190D01*
G37*
X-583650Y-120000D02*
G54D10*
D03*
G36*
X692350Y-54190D02*
X700540Y-46000D01*
X712160Y-46000D01*
X720350Y-54190D01*
X720350Y-65810D01*
X712160Y-74000D01*
X700540Y-74000D01*
X692350Y-65810D01*
X692350Y-54190D01*
G37*
X706350Y-110000D02*
G54D10*
D03*
X667469Y-303144D02*
G54D12*
D03*
X667469Y316856D02*
G54D12*
D03*
X-557518Y4294D02*
G54D13*
D03*
M02*
