; Drill file
; Format: 2.4 (00.0000)
M48
INCH
T01C0.0197
T02C0.0283
T03C0.0354
T04C0.0394
T05C0.1299
%
G05
G90
T01
X-013110Y-006720
X-013260Y-000220
X-021950Y000170
X019600Y002260
X026480Y002140
T02
X-004870Y-008040
X-004700Y-000910
X-004770Y001030
X-008700Y-000910
X-010070Y001530
T03
X-020700Y-006840
X-020760Y-005090
X-022980Y-004720
X-022980Y-002760
X-020790Y-002590
X-020760Y-000660
X-012820Y-001690
X-010070Y-002470
X-010160Y-003660
X-008680Y-003730
X-007530Y-006400
X-005520Y-006400
X-003290Y-005970
X-003290Y-007250
X-003290Y-008530
X-004680Y-003730
X-003290Y-001500
X-003290Y000000
X-003290Y001380
X-005270Y002540
X-007280Y002540
X-008020Y004480
X-010030Y004470
X-008320Y006720
X-007590Y010120
X-007590Y012620
X-005210Y011370
X-002020Y010370
X-002020Y012870
X000350Y011620
X-001320Y006720
X-008770Y001030
X-012890Y-005190
X-010160Y-007660
X-008870Y-008040
X-007890Y-011020
X-009900Y-011030
X-008320Y-013340
X-001320Y-013340
X008650Y-007160
X009560Y-008400
X010990Y-009810
X014280Y-007160
X015660Y-009650
X017670Y-009650
X016470Y-004610
X016460Y-002600
X014280Y-001160
X015850Y002160
X017860Y002170
X008900Y-001340
X009610Y010950
X007600Y010940
X008880Y013000
X009880Y013000
X014680Y012250
X018650Y012140
X027810Y-002360
X027810Y-004330
X026850Y-007670
X-011260Y009220
X-011250Y011230
X-012900Y010510
X-014630Y010510
X-015250Y012590
X-016250Y012590
X-017250Y012590
X-017630Y011040
X-017630Y009030
X-019720Y010070
X-021440Y010070
X-021680Y013220
X-020680Y013220
T04
X-016540Y-013540
X-018270Y004470
X012060Y-013340
X018980Y-008740
X026850Y-008800
X026850Y-000860
X026850Y000700
X026340Y007070
X018980Y000640
T05
X-022150Y-011930
X-022130Y007060
X026280Y012470
X026280Y-011930
M30
