%FSLAX34Y34*%
%MOMM*%
%LNSILK_TOP*%
G71*
G01*
%ADD10C,0.111*%
%ADD11C,0.200*%
%ADD12C,0.150*%
%ADD13C,0.222*%
%ADD14C,0.333*%
%ADD15C,0.167*%
%ADD16C,0.400*%
%ADD17C,1.600*%
%ADD18C,0.244*%
%ADD19C,0.178*%
%LPD*%
G54D10*
X-68283Y55245D02*
X-65616Y55245D01*
X-65616Y52467D01*
X-66283Y51356D01*
X-67616Y50800D01*
X-68950Y50800D01*
X-70283Y51356D01*
X-70950Y52467D01*
X-70950Y58022D01*
X-70283Y59134D01*
X-68950Y59689D01*
X-67616Y59689D01*
X-66283Y59134D01*
X-65616Y58022D01*
G54D10*
X-70950Y14367D02*
X-70283Y13256D01*
X-68950Y12700D01*
X-67616Y12700D01*
X-66283Y13256D01*
X-65616Y14367D01*
X-65616Y15478D01*
X-66283Y16589D01*
X-67616Y17145D01*
X-68950Y17145D01*
X-70283Y17700D01*
X-70950Y18811D01*
X-70950Y19922D01*
X-70283Y21034D01*
X-68950Y21589D01*
X-67616Y21589D01*
X-66283Y21034D01*
X-65616Y19922D01*
G54D10*
X-70950Y-222250D02*
X-70950Y-213361D01*
X-67616Y-213361D01*
X-66283Y-213916D01*
X-65616Y-215028D01*
X-65616Y-220583D01*
X-66283Y-221694D01*
X-67616Y-222250D01*
X-70950Y-222250D01*
G54D10*
X-70950Y-31750D02*
X-70950Y-22861D01*
X-67616Y-22861D01*
X-66283Y-23416D01*
X-65616Y-24528D01*
X-65616Y-30083D01*
X-66283Y-31194D01*
X-67616Y-31750D01*
X-70950Y-31750D01*
G54D10*
X-70950Y-188833D02*
X-70283Y-189944D01*
X-68950Y-190500D01*
X-67616Y-190500D01*
X-66283Y-189944D01*
X-65616Y-188833D01*
X-65616Y-187722D01*
X-66283Y-186611D01*
X-67616Y-186055D01*
X-68950Y-186055D01*
X-70283Y-185500D01*
X-70950Y-184389D01*
X-70950Y-183278D01*
X-70283Y-182166D01*
X-68950Y-181611D01*
X-67616Y-181611D01*
X-66283Y-182166D01*
X-65616Y-183278D01*
G54D10*
X-68283Y-147955D02*
X-65616Y-147955D01*
X-65616Y-150733D01*
X-66283Y-151844D01*
X-67616Y-152400D01*
X-68950Y-152400D01*
X-70283Y-151844D01*
X-70950Y-150733D01*
X-70950Y-145178D01*
X-70283Y-144066D01*
X-68950Y-143511D01*
X-67616Y-143511D01*
X-66283Y-144066D01*
X-65616Y-145178D01*
G54D11*
X-499356Y345601D02*
X-489756Y345601D01*
G54D11*
X-494556Y349601D02*
X-494556Y341601D01*
G54D11*
X-485356Y354601D02*
X-479356Y338601D01*
X-473356Y354601D01*
G54D12*
X-563506Y322976D02*
X-563505Y348376D01*
X-512706Y348376D01*
X-512706Y322976D01*
X-563506Y322976D01*
G54D10*
X-195040Y295651D02*
X-195040Y304540D01*
X-192817Y304540D01*
X-191928Y303984D01*
X-191484Y302873D01*
X-191484Y301762D01*
X-191928Y300651D01*
X-192817Y300095D01*
X-191928Y299540D01*
X-191484Y298429D01*
X-191484Y297318D01*
X-191928Y296206D01*
X-192817Y295651D01*
X-195040Y295651D01*
G54D10*
X-195040Y300095D02*
X-192817Y300095D01*
G54D10*
X-189040Y295651D02*
X-189040Y304540D01*
G54D10*
X-186596Y295651D02*
X-184373Y304540D01*
X-182151Y295651D01*
G54D10*
X-185707Y298984D02*
X-183040Y298984D01*
G54D10*
X-179708Y297318D02*
X-179263Y296206D01*
X-178374Y295651D01*
X-177485Y295651D01*
X-176596Y296206D01*
X-176152Y297318D01*
X-176152Y298429D01*
X-176596Y299540D01*
X-177485Y300095D01*
X-178374Y300095D01*
X-179263Y300651D01*
X-179708Y301762D01*
X-179708Y302873D01*
X-179263Y303984D01*
X-178374Y304540D01*
X-177485Y304540D01*
X-176596Y303984D01*
X-176152Y302873D01*
G54D10*
X-173708Y301206D02*
X-171485Y304540D01*
X-171485Y295651D01*
G54D10*
X-166509Y299540D02*
X-162953Y299540D01*
G54D10*
X-156953Y295651D02*
X-160509Y295651D01*
X-160509Y296206D01*
X-160064Y297318D01*
X-157398Y300651D01*
X-156953Y301762D01*
X-156953Y302873D01*
X-157398Y303984D01*
X-158286Y304540D01*
X-159175Y304540D01*
X-160064Y303984D01*
X-160509Y302873D01*
G54D10*
X-154509Y295651D02*
X-154509Y304540D01*
G54D10*
X-153175Y298984D02*
X-151842Y295651D01*
G54D10*
X-154509Y297873D02*
X-151842Y300651D01*
G54D10*
X-145842Y295651D02*
X-149398Y295651D01*
X-149398Y296206D01*
X-148953Y297318D01*
X-146286Y300651D01*
X-145842Y301762D01*
X-145842Y302873D01*
X-146286Y303984D01*
X-147175Y304540D01*
X-148064Y304540D01*
X-148953Y303984D01*
X-149398Y302873D01*
G54D12*
G75*
G01X-129162Y290570D02*
G03X-129162Y290570I-38100J0D01*
G01*
G54D13*
X53521Y94225D02*
X53521Y112003D01*
G54D13*
X48188Y112003D02*
X58854Y112003D01*
G54D13*
X69077Y103114D02*
X73077Y100892D01*
X74410Y98670D01*
X74410Y94225D01*
G54D13*
X63744Y94225D02*
X63744Y112003D01*
X70410Y112003D01*
X73077Y110892D01*
X74410Y108670D01*
X74410Y106448D01*
X73077Y104225D01*
X70410Y103114D01*
X63744Y103114D01*
G54D13*
X79300Y105336D02*
X85966Y112003D01*
X85966Y94225D01*
G54D13*
X49521Y-295687D02*
X49521Y-277910D01*
G54D13*
X44188Y-277910D02*
X54854Y-277910D01*
G54D13*
X65077Y-286798D02*
X69077Y-289021D01*
X70410Y-291243D01*
X70410Y-295687D01*
G54D13*
X59744Y-295687D02*
X59744Y-277910D01*
X66410Y-277910D01*
X69077Y-279021D01*
X70410Y-281243D01*
X70410Y-283465D01*
X69077Y-285687D01*
X66410Y-286798D01*
X59744Y-286798D01*
G54D13*
X85966Y-295687D02*
X75300Y-295687D01*
X75300Y-294576D01*
X76633Y-292354D01*
X84633Y-285687D01*
X85966Y-283465D01*
X85966Y-281243D01*
X84633Y-279021D01*
X81966Y-277910D01*
X79300Y-277910D01*
X76633Y-279021D01*
X75300Y-281243D01*
G54D14*
X963Y201917D02*
X963Y175250D01*
X10296Y175250D01*
G54D14*
X17629Y175250D02*
X17629Y201917D01*
G54D14*
X24962Y175250D02*
X24962Y201917D01*
X35628Y175250D01*
X35628Y201917D01*
G54D14*
X52295Y175250D02*
X42962Y175250D01*
X42962Y201917D01*
X52295Y201917D01*
G54D14*
X42962Y188584D02*
X52295Y188584D01*
G54D14*
X59628Y175250D02*
X66294Y201917D01*
X72961Y175250D01*
G54D14*
X62294Y185250D02*
X70294Y185250D01*
G54D14*
X85627Y188584D02*
X89627Y185250D01*
X90960Y181917D01*
X90960Y175250D01*
G54D14*
X80294Y175250D02*
X80294Y201917D01*
X86960Y201917D01*
X89627Y200250D01*
X90960Y196917D01*
X90960Y193584D01*
X89627Y190250D01*
X86960Y188584D01*
X80294Y188584D01*
G54D14*
X98294Y186917D02*
X108960Y186917D01*
G54D14*
X116294Y175250D02*
X122960Y201917D01*
X129627Y175250D01*
G54D14*
X118960Y185250D02*
X126960Y185250D01*
G54D14*
X136960Y175250D02*
X136960Y201917D01*
X143626Y185250D01*
X150293Y201917D01*
X150293Y175250D01*
G54D14*
X157626Y175250D02*
X157626Y201917D01*
X164292Y201917D01*
X166959Y200250D01*
X168292Y196917D01*
X168292Y193584D01*
X166959Y190250D01*
X164292Y188584D01*
X157626Y188584D01*
G54D14*
X175626Y201917D02*
X175626Y175250D01*
X184959Y175250D01*
G54D14*
X192292Y175250D02*
X192292Y201917D01*
G54D14*
X199625Y175250D02*
X199625Y201917D01*
X208958Y201917D01*
G54D14*
X199625Y188584D02*
X208958Y188584D01*
G54D14*
X216291Y175250D02*
X216291Y201917D01*
G54D14*
X232957Y175250D02*
X223624Y175250D01*
X223624Y201917D01*
X232957Y201917D01*
G54D14*
X223624Y188584D02*
X232957Y188584D01*
G54D14*
X245623Y188584D02*
X249623Y185250D01*
X250956Y181917D01*
X250956Y175250D01*
G54D14*
X240290Y175250D02*
X240290Y201917D01*
X246956Y201917D01*
X249623Y200250D01*
X250956Y196917D01*
X250956Y193584D01*
X249623Y190250D01*
X246956Y188584D01*
X240290Y188584D01*
G54D12*
X-460558Y290579D02*
X-435158Y290579D01*
X-435158Y218978D01*
X-460558Y218979D01*
X-460558Y290579D01*
G54D13*
X-418432Y348873D02*
X-418432Y334429D01*
X-417543Y332206D01*
X-415765Y331095D01*
X-413987Y331095D01*
X-412210Y332206D01*
X-411320Y334429D01*
X-411320Y348873D01*
G54D13*
X-406432Y342206D02*
X-401987Y348873D01*
X-401987Y331095D01*
G54D15*
X-173581Y28562D02*
X-170248Y33562D01*
X-170248Y20228D01*
G54D15*
X-166581Y20228D02*
X-166581Y33562D01*
G54D15*
X-164581Y25228D02*
X-162581Y20228D01*
G54D15*
X-166581Y23562D02*
X-162581Y27728D01*
G54D15*
X-171044Y-199400D02*
X-167710Y-194400D01*
X-167710Y-207734D01*
G54D15*
X-164044Y-207734D02*
X-164044Y-194400D01*
G54D15*
X-162044Y-202734D02*
X-160044Y-207734D01*
G54D15*
X-164044Y-204400D02*
X-160044Y-200234D01*
G54D12*
X-123640Y51712D02*
X-123640Y77112D01*
X-195240Y77112D01*
X-195240Y51712D01*
X-123640Y51712D01*
G54D15*
X-168295Y93337D02*
X-168295Y85004D01*
X-169295Y83337D01*
X-171295Y82504D01*
X-173295Y82504D01*
X-175295Y83337D01*
X-176295Y85004D01*
X-176295Y93337D01*
X-175295Y95004D01*
X-173295Y95837D01*
X-171295Y95837D01*
X-169295Y95004D01*
X-168295Y93337D01*
G54D15*
X-164628Y82504D02*
X-164628Y82504D01*
G54D15*
X-160961Y90837D02*
X-155961Y95837D01*
X-155961Y82504D01*
G54D15*
X-146294Y90004D02*
X-146294Y82504D01*
G54D15*
X-146294Y84170D02*
X-147294Y82837D01*
X-149294Y82504D01*
X-151294Y82837D01*
X-152294Y84170D01*
X-152294Y90004D01*
G54D12*
X-129989Y-175301D02*
X-129989Y-149900D01*
X-201589Y-149901D01*
X-201589Y-175301D01*
X-129989Y-175301D01*
G54D15*
X-173057Y-173363D02*
X-173057Y-181697D01*
X-174057Y-183363D01*
X-176057Y-184197D01*
X-178057Y-184197D01*
X-180057Y-183363D01*
X-181057Y-181697D01*
X-181057Y-173363D01*
X-180057Y-171697D01*
X-178057Y-170863D01*
X-176057Y-170863D01*
X-174057Y-171697D01*
X-173057Y-173363D01*
G54D15*
X-169390Y-184197D02*
X-169390Y-184197D01*
G54D15*
X-165723Y-175863D02*
X-160723Y-170863D01*
X-160723Y-184197D01*
G54D15*
X-151056Y-176697D02*
X-151056Y-184197D01*
G54D15*
X-151056Y-182530D02*
X-152056Y-183863D01*
X-154056Y-184197D01*
X-156056Y-183863D01*
X-157056Y-182530D01*
X-157056Y-176697D01*
G54D15*
X-249002Y14305D02*
X-244002Y10972D01*
X-257335Y10972D01*
G54D15*
X-246502Y1972D02*
X-254835Y1972D01*
X-256502Y2638D01*
X-257335Y3972D01*
X-257335Y5305D01*
X-256502Y6638D01*
X-254835Y7305D01*
X-246502Y7305D01*
X-244835Y6638D01*
X-244002Y5305D01*
X-244002Y3972D01*
X-244835Y2638D01*
X-246502Y1972D01*
G54D15*
X-246502Y-7028D02*
X-254835Y-7028D01*
X-256502Y-6362D01*
X-257335Y-5028D01*
X-257335Y-3695D01*
X-256502Y-2362D01*
X-254835Y-1695D01*
X-246502Y-1695D01*
X-244835Y-2362D01*
X-244002Y-3695D01*
X-244002Y-5028D01*
X-244835Y-6362D01*
X-246502Y-7028D01*
G54D15*
X-247414Y-130158D02*
X-242414Y-133491D01*
X-255747Y-133491D01*
G54D15*
X-244914Y-142491D02*
X-253247Y-142491D01*
X-254914Y-141824D01*
X-255747Y-140491D01*
X-255747Y-139158D01*
X-254914Y-137824D01*
X-253247Y-137158D01*
X-244914Y-137158D01*
X-243247Y-137824D01*
X-242414Y-139158D01*
X-242414Y-140491D01*
X-243247Y-141824D01*
X-244914Y-142491D01*
G54D15*
X-244914Y-151491D02*
X-253247Y-151491D01*
X-254914Y-150824D01*
X-255747Y-149491D01*
X-255747Y-148158D01*
X-254914Y-146824D01*
X-253247Y-146158D01*
X-244914Y-146158D01*
X-243247Y-146824D01*
X-242414Y-148158D01*
X-242414Y-149491D01*
X-243247Y-150824D01*
X-244914Y-151491D01*
G54D12*
X-193489Y100924D02*
X-193489Y126324D01*
X-265089Y126324D01*
X-265089Y100924D01*
X-193489Y100924D01*
G54D15*
X-238145Y142549D02*
X-238145Y134216D01*
X-239145Y132549D01*
X-241145Y131716D01*
X-243145Y131716D01*
X-245145Y132549D01*
X-246145Y134216D01*
X-246145Y142549D01*
X-245145Y144216D01*
X-243145Y145049D01*
X-241145Y145049D01*
X-239145Y144216D01*
X-238145Y142549D01*
G54D15*
X-234478Y131716D02*
X-234478Y131716D01*
G54D15*
X-230811Y140049D02*
X-225811Y145049D01*
X-225811Y131716D01*
G54D15*
X-216144Y139216D02*
X-216144Y131716D01*
G54D15*
X-216144Y133382D02*
X-217144Y132049D01*
X-219144Y131716D01*
X-221144Y132049D01*
X-222144Y133382D01*
X-222144Y139216D01*
G54D12*
X-141542Y161281D02*
X-141542Y180281D01*
X-103542Y180281D01*
X-103542Y161281D01*
X-141542Y161281D01*
G54D12*
X-141642Y170781D02*
X-200342Y170781D01*
G54D12*
X-44742Y170781D02*
X-103442Y170781D01*
G54D12*
X-190314Y-292776D02*
X-190314Y-267376D01*
X-261914Y-267376D01*
X-261914Y-292776D01*
X-190314Y-292776D01*
G54D15*
X-234970Y-251151D02*
X-234970Y-259484D01*
X-235970Y-261151D01*
X-237970Y-261984D01*
X-239970Y-261984D01*
X-241970Y-261151D01*
X-242970Y-259484D01*
X-242970Y-251151D01*
X-241970Y-249484D01*
X-239970Y-248651D01*
X-237970Y-248651D01*
X-235970Y-249484D01*
X-234970Y-251151D01*
G54D15*
X-231303Y-261984D02*
X-231303Y-261984D01*
G54D15*
X-227636Y-253651D02*
X-222636Y-248651D01*
X-222636Y-261984D01*
G54D15*
X-212969Y-254484D02*
X-212969Y-261984D01*
G54D15*
X-212969Y-260318D02*
X-213969Y-261651D01*
X-215969Y-261984D01*
X-217969Y-261651D01*
X-218969Y-260318D01*
X-218969Y-254484D01*
G54D12*
X-141544Y-348430D02*
X-141544Y-329430D01*
X-103544Y-329430D01*
X-103544Y-348430D01*
X-141544Y-348430D01*
G54D12*
X-141644Y-338930D02*
X-200344Y-338930D01*
G54D12*
X-44744Y-338930D02*
X-103444Y-338930D01*
G54D16*
X512144Y-244156D02*
X655020Y-244156D01*
X655020Y46356D01*
X512144Y46356D01*
X512144Y-244156D01*
G54D12*
X463736Y42186D02*
X463736Y67587D01*
X392136Y67587D01*
X392136Y42187D01*
X463736Y42186D01*
G54D15*
X419080Y83812D02*
X419080Y75478D01*
X418080Y73812D01*
X416080Y72978D01*
X414080Y72978D01*
X412080Y73812D01*
X411080Y75478D01*
X411080Y83812D01*
X412080Y85478D01*
X414080Y86312D01*
X416080Y86312D01*
X418080Y85478D01*
X419080Y83812D01*
G54D15*
X422747Y72978D02*
X422747Y72978D01*
G54D15*
X426414Y81312D02*
X431414Y86312D01*
X431414Y72978D01*
G54D15*
X441081Y80478D02*
X441081Y72978D01*
G54D15*
X441081Y74645D02*
X440081Y73312D01*
X438081Y72978D01*
X436081Y73312D01*
X435081Y74645D01*
X435081Y80478D01*
G54D16*
X508969Y-104456D02*
X653432Y-104456D01*
X655019Y-106043D01*
G54D12*
X244746Y-197030D02*
X226785Y-214991D01*
X277414Y-265620D01*
X295374Y-247660D01*
X244746Y-197030D01*
G54D15*
X228500Y-254796D02*
X234393Y-260689D01*
X234864Y-262574D01*
X234039Y-264578D01*
X232625Y-265992D01*
X230622Y-266817D01*
X228736Y-266346D01*
X222843Y-260453D01*
X222372Y-258567D01*
X223197Y-256564D01*
X224611Y-255150D01*
X226615Y-254325D01*
X228500Y-254796D01*
G54D15*
X238754Y-259863D02*
X238754Y-259863D01*
G54D15*
X235454Y-251378D02*
X235454Y-244307D01*
X244882Y-253735D01*
G54D15*
X246414Y-241596D02*
X251718Y-246899D01*
G54D15*
X250539Y-245721D02*
X250775Y-247371D01*
X249596Y-249021D01*
X247946Y-250199D01*
X246296Y-249963D01*
X242172Y-245839D01*
G54D16*
G75*
G01X-355906Y-18256D02*
G03X-355906Y-18256I-73025J0D01*
G01*
G54D16*
G75*
G01X-389243Y-18256D02*
G03X-389243Y-18256I-39688J0D01*
G01*
G54D16*
G75*
G01X-351937Y-170656D02*
G03X-351937Y-170656I-73025J0D01*
G01*
G54D16*
G75*
G01X-381306Y-170656D02*
G03X-381306Y-170656I-39688J0D01*
G01*
G54D16*
G75*
G01X369582Y-103981D02*
G03X369582Y-103981I-73026J0D01*
G01*
G54D16*
G75*
G01X336244Y-103981D02*
G03X336244Y-103981I-39688J0D01*
G01*
G54D12*
X458973Y-257851D02*
X458974Y-232451D01*
X387373Y-232451D01*
X387373Y-257851D01*
X458973Y-257851D01*
G54D15*
X414318Y-216226D02*
X414318Y-224559D01*
X413318Y-226226D01*
X411318Y-227059D01*
X409318Y-227059D01*
X407318Y-226226D01*
X406318Y-224559D01*
X406318Y-216226D01*
X407318Y-214559D01*
X409318Y-213726D01*
X411318Y-213726D01*
X413318Y-214559D01*
X414318Y-216226D01*
G54D15*
X417985Y-227059D02*
X417985Y-227059D01*
G54D15*
X421652Y-218726D02*
X426652Y-213726D01*
X426652Y-227059D01*
G54D15*
X436319Y-219559D02*
X436319Y-227059D01*
G54D15*
X436319Y-225392D02*
X435319Y-226726D01*
X433319Y-227059D01*
X431319Y-226726D01*
X430319Y-225392D01*
X430319Y-219559D01*
G54D12*
X430942Y-55825D02*
X405542Y-55824D01*
X405542Y-127425D01*
X430942Y-127425D01*
X430942Y-55825D01*
G54D15*
X389317Y-100480D02*
X397650Y-100480D01*
X399317Y-101480D01*
X400150Y-103480D01*
X400150Y-105480D01*
X399317Y-107480D01*
X397650Y-108480D01*
X389317Y-108480D01*
X387650Y-107480D01*
X386817Y-105480D01*
X386817Y-103480D01*
X387650Y-101480D01*
X389317Y-100480D01*
G54D15*
X400150Y-96813D02*
X400150Y-96813D01*
G54D15*
X391817Y-93146D02*
X386817Y-88146D01*
X400150Y-88146D01*
G54D15*
X392650Y-78479D02*
X400150Y-78479D01*
G54D15*
X398484Y-78479D02*
X399817Y-79479D01*
X400150Y-81479D01*
X399817Y-83479D01*
X398484Y-84479D01*
X392650Y-84479D01*
G54D12*
X-548405Y243098D02*
X-540805Y243098D01*
G54D12*
X-544605Y246898D02*
X-544605Y239298D01*
G54D12*
G75*
G01X-487250Y255798D02*
G03X-487250Y255798I-39850J0D01*
G01*
G54D15*
X-530193Y202044D02*
X-526860Y207044D01*
X-526860Y193710D01*
G54D15*
X-517860Y204544D02*
X-517860Y196210D01*
X-518526Y194544D01*
X-519860Y193710D01*
X-521193Y193710D01*
X-522526Y194544D01*
X-523193Y196210D01*
X-523193Y204544D01*
X-522526Y206210D01*
X-521193Y207044D01*
X-519860Y207044D01*
X-518526Y206210D01*
X-517860Y204544D01*
G54D15*
X-510193Y201210D02*
X-510193Y193710D01*
G54D15*
X-510193Y195377D02*
X-510860Y194044D01*
X-512193Y193710D01*
X-513526Y194044D01*
X-514193Y195377D01*
X-514193Y201210D01*
G54D12*
X-375368Y254210D02*
X-367768Y254210D01*
G54D12*
X-371568Y258010D02*
X-371568Y250410D01*
G54D12*
G75*
G01X-314212Y266910D02*
G03X-314212Y266910I-39850J0D01*
G01*
G54D15*
X-363505Y209981D02*
X-360172Y214981D01*
X-360172Y201648D01*
G54D15*
X-351172Y212481D02*
X-351172Y204148D01*
X-351839Y202481D01*
X-353172Y201648D01*
X-354505Y201648D01*
X-355839Y202481D01*
X-356505Y204148D01*
X-356505Y212481D01*
X-355839Y214148D01*
X-354505Y214981D01*
X-353172Y214981D01*
X-351839Y214148D01*
X-351172Y212481D01*
G54D15*
X-343505Y209148D02*
X-343505Y201648D01*
G54D15*
X-343505Y203315D02*
X-344172Y201981D01*
X-345505Y201648D01*
X-346839Y201981D01*
X-347505Y203315D01*
X-347505Y209148D01*
G54D12*
X-298633Y295341D02*
X-273233Y295341D01*
X-273233Y223741D01*
X-298633Y223741D01*
X-298633Y295341D01*
G54D10*
X-55340Y294063D02*
X-55340Y302952D01*
X-53117Y302952D01*
X-52228Y302397D01*
X-51784Y301286D01*
X-51784Y300174D01*
X-52228Y299063D01*
X-53117Y298508D01*
X-52228Y297952D01*
X-51784Y296841D01*
X-51784Y295730D01*
X-52228Y294619D01*
X-53117Y294063D01*
X-55340Y294063D01*
G54D10*
X-55340Y298508D02*
X-53117Y298508D01*
G54D10*
X-49340Y294063D02*
X-49340Y302952D01*
G54D10*
X-46896Y294063D02*
X-44673Y302952D01*
X-42451Y294063D01*
G54D10*
X-46007Y297397D02*
X-43340Y297397D01*
G54D10*
X-40008Y295730D02*
X-39563Y294619D01*
X-38674Y294063D01*
X-37785Y294063D01*
X-36896Y294619D01*
X-36452Y295730D01*
X-36452Y296841D01*
X-36896Y297952D01*
X-37785Y298508D01*
X-38674Y298508D01*
X-39563Y299063D01*
X-40008Y300174D01*
X-40008Y301286D01*
X-39563Y302397D01*
X-38674Y302952D01*
X-37785Y302952D01*
X-36896Y302397D01*
X-36452Y301286D01*
G54D10*
X-30452Y294063D02*
X-34008Y294063D01*
X-34008Y294619D01*
X-33563Y295730D01*
X-30896Y299063D01*
X-30452Y300174D01*
X-30452Y301286D01*
X-30896Y302397D01*
X-31785Y302952D01*
X-32674Y302952D01*
X-33563Y302397D01*
X-34008Y301286D01*
G54D10*
X-28008Y297952D02*
X-24452Y297952D01*
G54D10*
X-15919Y294063D02*
X-19475Y294063D01*
X-19475Y294619D01*
X-19030Y295730D01*
X-16364Y299063D01*
X-15919Y300174D01*
X-15919Y301286D01*
X-16364Y302397D01*
X-17252Y302952D01*
X-18141Y302952D01*
X-19030Y302397D01*
X-19475Y301286D01*
G54D10*
X-13475Y294063D02*
X-13475Y302952D01*
G54D10*
X-12141Y297397D02*
X-10808Y294063D01*
G54D10*
X-13475Y296286D02*
X-10808Y299063D01*
G54D10*
X-4808Y294063D02*
X-8364Y294063D01*
X-8364Y294619D01*
X-7919Y295730D01*
X-5252Y299063D01*
X-4808Y300174D01*
X-4808Y301286D01*
X-5252Y302397D01*
X-6141Y302952D01*
X-7030Y302952D01*
X-7919Y302397D01*
X-8364Y301286D01*
G54D12*
G75*
G01X12126Y296920D02*
G03X12126Y296920I-38100J0D01*
G01*
G54D15*
X-131019Y193836D02*
X-136352Y193836D01*
X-136352Y194669D01*
X-135686Y196336D01*
X-131686Y201336D01*
X-131019Y203003D01*
X-131019Y204669D01*
X-131686Y206336D01*
X-133019Y207169D01*
X-134352Y207169D01*
X-135686Y206336D01*
X-136352Y204669D01*
G54D15*
X-122019Y193836D02*
X-127352Y193836D01*
X-127352Y194669D01*
X-126686Y196336D01*
X-122686Y201336D01*
X-122019Y203003D01*
X-122019Y204669D01*
X-122686Y206336D01*
X-124019Y207169D01*
X-125352Y207169D01*
X-126686Y206336D01*
X-127352Y204669D01*
G54D15*
X-113019Y204669D02*
X-113019Y196336D01*
X-113686Y194669D01*
X-115019Y193836D01*
X-116352Y193836D01*
X-117686Y194669D01*
X-118352Y196336D01*
X-118352Y204669D01*
X-117686Y206336D01*
X-116352Y207169D01*
X-115019Y207169D01*
X-113686Y206336D01*
X-113019Y204669D01*
G54D15*
X-132607Y-368139D02*
X-137940Y-368139D01*
X-137940Y-367306D01*
X-137273Y-365639D01*
X-133273Y-360639D01*
X-132607Y-358972D01*
X-132607Y-357306D01*
X-133273Y-355639D01*
X-134607Y-354806D01*
X-135940Y-354806D01*
X-137273Y-355639D01*
X-137940Y-357306D01*
G54D15*
X-123607Y-368139D02*
X-128940Y-368139D01*
X-128940Y-367306D01*
X-128273Y-365639D01*
X-124273Y-360639D01*
X-123607Y-358972D01*
X-123607Y-357306D01*
X-124273Y-355639D01*
X-125607Y-354806D01*
X-126940Y-354806D01*
X-128273Y-355639D01*
X-128940Y-357306D01*
G54D15*
X-114607Y-357306D02*
X-114607Y-365639D01*
X-115273Y-367306D01*
X-116607Y-368139D01*
X-117940Y-368139D01*
X-119273Y-367306D01*
X-119940Y-365639D01*
X-119940Y-357306D01*
X-119273Y-355639D01*
X-117940Y-354806D01*
X-116607Y-354806D01*
X-115273Y-355639D01*
X-114607Y-357306D01*
G54D15*
X-175947Y-110263D02*
X-181281Y-110263D01*
X-181281Y-116096D01*
X-180614Y-116096D01*
X-179281Y-115263D01*
X-177947Y-115263D01*
X-176614Y-116096D01*
X-175948Y-117763D01*
X-175947Y-121096D01*
X-176614Y-122763D01*
X-177947Y-123596D01*
X-179281Y-123596D01*
X-180614Y-122763D01*
X-181281Y-121096D01*
G54D15*
X-166947Y-112763D02*
X-167614Y-111096D01*
X-168947Y-110263D01*
X-170281Y-110263D01*
X-171614Y-111096D01*
X-172281Y-112763D01*
X-172281Y-116929D01*
X-172281Y-117763D01*
X-170281Y-116096D01*
X-168947Y-116096D01*
X-167614Y-116929D01*
X-166947Y-118596D01*
X-166947Y-121096D01*
X-167614Y-122763D01*
X-168947Y-123596D01*
X-170281Y-123596D01*
X-171614Y-122763D01*
X-172281Y-121096D01*
X-172281Y-116929D01*
G54D15*
X-157947Y-112763D02*
X-157947Y-121096D01*
X-158614Y-122763D01*
X-159947Y-123596D01*
X-161281Y-123596D01*
X-162614Y-122763D01*
X-163281Y-121096D01*
X-163281Y-112763D01*
X-162614Y-111096D01*
X-161281Y-110263D01*
X-159947Y-110263D01*
X-158614Y-111096D01*
X-157947Y-112763D01*
G54D12*
X254186Y265231D02*
X254186Y290631D01*
X182586Y290631D01*
X182586Y265231D01*
X254186Y265231D01*
G54D15*
X209530Y306856D02*
X209530Y298523D01*
X208530Y296856D01*
X206530Y296023D01*
X204530Y296023D01*
X202530Y296856D01*
X201530Y298523D01*
X201530Y306856D01*
X202530Y308523D01*
X204530Y309356D01*
X206530Y309356D01*
X208530Y308523D01*
X209530Y306856D01*
G54D15*
X213198Y296023D02*
X213198Y296023D01*
G54D15*
X216864Y304356D02*
X221864Y309356D01*
X221864Y296023D01*
G54D15*
X231532Y303523D02*
X231532Y296023D01*
G54D15*
X231532Y297689D02*
X230532Y296356D01*
X228532Y296023D01*
X226532Y296356D01*
X225532Y297689D01*
X225532Y303523D01*
G54D11*
X272169Y336870D02*
X281769Y336870D01*
G54D11*
X276969Y340870D02*
X276969Y332870D01*
G54D11*
X286169Y345870D02*
X292169Y329870D01*
X298169Y345870D01*
G54D16*
X372756Y311150D02*
X470957Y311150D01*
X473684Y308422D01*
G54D17*
X515319Y-31432D02*
X648669Y-31432D01*
X651844Y-34606D01*
G54D17*
X513732Y-167956D02*
X653432Y-167956D01*
G54D15*
X-454045Y206049D02*
X-454045Y197716D01*
X-455045Y196049D01*
X-457045Y195216D01*
X-459045Y195216D01*
X-461045Y196049D01*
X-462045Y197716D01*
X-462045Y206049D01*
X-461045Y207716D01*
X-459045Y208549D01*
X-457045Y208549D01*
X-455045Y207716D01*
X-454045Y206049D01*
G54D15*
X-450378Y195216D02*
X-450378Y195216D01*
G54D15*
X-446711Y203549D02*
X-441711Y208549D01*
X-441711Y195216D01*
G54D15*
X-432044Y202716D02*
X-432044Y195216D01*
G54D15*
X-432044Y196882D02*
X-433044Y195549D01*
X-435044Y195216D01*
X-437044Y195549D01*
X-438044Y196882D01*
X-438044Y202716D01*
G54D15*
X-255607Y225099D02*
X-255607Y216766D01*
X-256607Y215099D01*
X-258607Y214266D01*
X-260607Y214266D01*
X-262607Y215099D01*
X-263607Y216766D01*
X-263607Y225099D01*
X-262607Y226766D01*
X-260607Y227599D01*
X-258607Y227599D01*
X-256607Y226766D01*
X-255607Y225099D01*
G54D15*
X-251940Y214266D02*
X-251940Y214266D01*
G54D15*
X-248273Y222599D02*
X-243273Y227599D01*
X-243273Y214266D01*
G54D15*
X-233606Y221766D02*
X-233606Y214266D01*
G54D15*
X-233606Y215932D02*
X-234606Y214599D01*
X-236606Y214266D01*
X-238606Y214599D01*
X-239606Y215932D01*
X-239606Y221766D01*
G54D12*
X212682Y317420D02*
X212682Y342820D01*
X263482Y342820D01*
X263482Y317420D01*
X212682Y317420D01*
G54D18*
X-375807Y-102394D02*
X-375807Y-82838D01*
G54D18*
X-379718Y-82838D02*
X-371896Y-82838D01*
G54D18*
X-366518Y-90171D02*
X-361630Y-82838D01*
X-361630Y-102394D01*
G54D18*
X287768Y-115094D02*
X287768Y-95538D01*
G54D18*
X283856Y-95538D02*
X291679Y-95538D01*
G54D18*
X304879Y-115094D02*
X297056Y-115094D01*
X297056Y-113871D01*
X298034Y-111427D01*
X303901Y-104094D01*
X304879Y-101649D01*
X304879Y-99205D01*
X303901Y-96760D01*
X301945Y-95538D01*
X299990Y-95538D01*
X298034Y-96760D01*
X297056Y-99205D01*
G54D18*
X585905Y-86994D02*
X585905Y-67438D01*
G54D18*
X581994Y-67438D02*
X589816Y-67438D01*
G54D18*
X595194Y-71105D02*
X596172Y-68660D01*
X598127Y-67438D01*
X600083Y-67438D01*
X602038Y-68660D01*
X603016Y-71105D01*
X603016Y-73549D01*
X602038Y-75994D01*
X600083Y-77216D01*
X602038Y-78438D01*
X603016Y-80882D01*
X603016Y-83327D01*
X602038Y-85771D01*
X600083Y-86994D01*
X598127Y-86994D01*
X596172Y-85771D01*
X595194Y-83327D01*
G54D13*
X398156Y326232D02*
X398156Y344009D01*
X404379Y344009D01*
G54D13*
X398156Y335120D02*
X404379Y335120D01*
G54D13*
X414601Y327343D02*
X413179Y326232D01*
X411401Y326232D01*
X409623Y327343D01*
X409268Y329565D01*
X409268Y333343D01*
X410156Y335565D01*
X411934Y336232D01*
X413712Y335565D01*
X414601Y334009D01*
X414601Y331787D01*
X409268Y331787D01*
G54D13*
X419490Y326232D02*
X419490Y336232D01*
G54D13*
X419490Y334009D02*
X421267Y336232D01*
X423045Y336232D01*
G54D13*
X427934Y326232D02*
X427934Y336232D01*
G54D13*
X427934Y334009D02*
X429712Y336232D01*
X431490Y336232D01*
G54D13*
X436380Y326232D02*
X436380Y336232D01*
G54D13*
X436380Y339565D02*
X436380Y339565D01*
G54D13*
X443046Y344009D02*
X443046Y327343D01*
X443935Y326232D01*
X444824Y326676D01*
G54D13*
X441268Y336232D02*
X444824Y336232D01*
G54D13*
X455047Y327343D02*
X453625Y326232D01*
X451847Y326232D01*
X450069Y327343D01*
X449714Y329565D01*
X449714Y333343D01*
X450602Y335565D01*
X452380Y336232D01*
X454158Y335565D01*
X455047Y334009D01*
X455047Y331787D01*
X449714Y331787D01*
G54D12*
X-244479Y-181827D02*
X-271879Y-181827D01*
X-271879Y-105627D01*
X-244479Y-105627D01*
X-244479Y-181827D01*
G54D12*
X-242194Y-50006D02*
X-269594Y-50007D01*
X-269594Y26193D01*
X-242194Y26193D01*
X-242194Y-50006D01*
G54D12*
X-207744Y-108430D02*
X-207744Y-81030D01*
X-131544Y-81030D01*
X-131544Y-108430D01*
X-207744Y-108430D01*
G54D12*
X-208268Y-36718D02*
X-208269Y-9318D01*
X-132069Y-9318D01*
X-132069Y-36718D01*
X-208268Y-36718D01*
G54D15*
X-175947Y-46763D02*
X-181281Y-46763D01*
X-181281Y-52596D01*
X-180614Y-52596D01*
X-179281Y-51763D01*
X-177947Y-51763D01*
X-176614Y-52596D01*
X-175948Y-54263D01*
X-175947Y-57596D01*
X-176614Y-59263D01*
X-177947Y-60096D01*
X-179281Y-60096D01*
X-180614Y-59263D01*
X-181281Y-57596D01*
G54D15*
X-166947Y-49263D02*
X-167614Y-47596D01*
X-168947Y-46763D01*
X-170281Y-46763D01*
X-171614Y-47596D01*
X-172281Y-49263D01*
X-172281Y-53429D01*
X-172281Y-54263D01*
X-170281Y-52596D01*
X-168947Y-52596D01*
X-167614Y-53429D01*
X-166948Y-55096D01*
X-166947Y-57596D01*
X-167614Y-59263D01*
X-168947Y-60096D01*
X-170281Y-60096D01*
X-171614Y-59263D01*
X-172281Y-57596D01*
X-172281Y-53429D01*
G54D15*
X-157947Y-49263D02*
X-157947Y-57596D01*
X-158614Y-59263D01*
X-159947Y-60096D01*
X-161281Y-60096D01*
X-162614Y-59263D01*
X-163281Y-57596D01*
X-163281Y-49263D01*
X-162614Y-47596D01*
X-161281Y-46763D01*
X-159947Y-46763D01*
X-158614Y-47596D01*
X-157947Y-49263D01*
G54D12*
X-212506Y-217968D02*
X-212507Y-190568D01*
X-136307Y-190568D01*
X-136307Y-217968D01*
X-212506Y-217968D01*
G54D12*
X-210093Y12494D02*
X-210093Y39894D01*
X-133893Y39894D01*
X-133893Y12494D01*
X-210093Y12494D01*
G54D11*
X192640Y334586D02*
X186290Y334586D01*
G54D11*
X186290Y326649D02*
X186290Y342524D01*
G54D11*
X183115Y340142D02*
X183115Y329030D01*
G54D11*
X179940Y332205D02*
X179940Y336967D01*
G54D11*
X-577360Y-155414D02*
X-583710Y-155414D01*
G54D11*
X-583710Y-163351D02*
X-583710Y-147476D01*
G54D11*
X-586885Y-149858D02*
X-586885Y-160970D01*
G54D11*
X-590060Y-157795D02*
X-590060Y-153033D01*
G54D11*
X692640Y-135414D02*
X686290Y-135414D01*
G54D11*
X686290Y-143351D02*
X686290Y-127476D01*
G54D11*
X683115Y-129858D02*
X683115Y-140970D01*
G54D11*
X679940Y-137795D02*
X679940Y-133033D01*
G54D19*
X-573650Y-100000D02*
X-573650Y-85778D01*
G54D19*
X-569739Y-100000D02*
X-569739Y-85778D01*
X-561206Y-100000D01*
X-561206Y-85778D01*
G54D19*
X684883Y-78444D02*
X684883Y-87333D01*
X683817Y-89111D01*
X681683Y-90000D01*
X679550Y-90000D01*
X677417Y-89111D01*
X676350Y-87333D01*
X676350Y-78444D01*
X677417Y-76667D01*
X679550Y-75778D01*
X681683Y-75778D01*
X683817Y-76667D01*
X684883Y-78444D01*
G54D19*
X688794Y-75778D02*
X688794Y-87333D01*
X689861Y-89111D01*
X691994Y-90000D01*
X694127Y-90000D01*
X696261Y-89111D01*
X697327Y-87333D01*
X697327Y-75778D01*
G54D19*
X705505Y-90000D02*
X705505Y-75778D01*
G54D19*
X701238Y-75778D02*
X709771Y-75778D01*
G54D19*
X-433650Y340000D02*
X-433650Y354222D01*
G54D19*
X-375117Y351556D02*
X-375117Y342667D01*
X-376183Y340889D01*
X-378317Y340000D01*
X-380450Y340000D01*
X-382583Y340889D01*
X-383650Y342667D01*
X-383650Y351556D01*
X-382583Y353333D01*
X-380450Y354222D01*
X-378317Y354222D01*
X-376183Y353333D01*
X-375117Y351556D01*
G54D11*
X-413874Y301237D02*
X-413874Y294887D01*
G54D11*
X-405936Y294887D02*
X-421812Y294887D01*
G54D11*
X-419430Y291712D02*
X-408318Y291712D01*
G54D11*
X-411493Y288537D02*
X-416255Y288537D01*
G54D11*
X-575360Y329936D02*
X-581710Y329936D01*
G54D11*
X-581710Y321999D02*
X-581710Y337874D01*
G54D11*
X-584885Y335492D02*
X-584885Y324380D01*
G54D11*
X-588060Y327555D02*
X-588060Y332317D01*
M02*
