; Drill file
; Format: 2.4 (00.0000)
M48
INCH
T01C0.0197
T02C0.0283
T03C0.0354
T04C0.0394
T05C0.1299
%
G05
G90
T01
X010360Y008130
X010210Y014630
X001520Y015020
X043070Y017110
X049950Y016990
T02
X018600Y006810
X018770Y013950
X018700Y015880
X014770Y013950
X013400Y016380
T03
X002770Y008010
X002710Y009760
X000490Y010130
X000490Y012100
X002680Y012260
X002710Y014200
X010650Y013160
X010650Y012410
X010650Y010410
X010680Y009660
X013310Y011190
X013400Y012380
X014790Y011120
X015940Y008450
X017950Y008460
X020180Y008880
X020180Y007600
X020180Y006320
X018790Y011120
X020180Y013850
X020180Y015350
X020180Y016980
X018200Y017390
X016190Y017390
X015450Y019330
X013440Y019330
X014700Y015880
X012210Y024070
X012220Y026080
X010570Y025360
X008840Y025360
X008220Y027440
X007220Y027440
X006220Y027440
X005840Y025890
X005840Y023880
X003750Y024920
X002030Y024920
X001790Y028070
X002790Y028070
X015880Y027480
X015880Y024980
X018260Y026230
X021450Y025230
X021450Y027730
X023820Y026480
X031070Y025790
X033070Y025800
X033350Y027850
X032350Y027850
X038150Y027100
X042120Y026990
X041320Y017020
X039320Y017010
X037750Y013700
X039930Y012250
X039940Y010240
X037750Y007700
X039130Y005200
X041140Y005210
X034450Y005040
X033030Y006450
X032120Y007700
X032180Y013510
X014600Y006810
X013310Y007190
X013570Y003830
X015570Y003830
X050320Y007180
X051280Y010520
X051280Y012490
T04
X006930Y001320
X015150Y001510
X022150Y001510
X035530Y001510
X042450Y006110
X050320Y006050
X050320Y013990
X050320Y015550
X049810Y021920
X042450Y015490
X022150Y021580
X015150Y021580
X005200Y019320
T05
X001320Y002920
X001340Y021910
X049750Y027330
X049750Y002920
M30
