%FSLAX34Y34*%
%MOMM*%
%LNSOLDERMASK_BOTTOM*%
G71*
G01*
%ADD10C,2.600*%
%ADD11C,2.600*%
%ADD12C,2.800*%
%ADD13C,4.900*%
%ADD14C,1.600*%
%LPD*%
X490269Y-45249D02*
G54D10*
D03*
X490269Y-108749D02*
G54D10*
D03*
X550594Y-76999D02*
G54D10*
D03*
G36*
X586281Y-352919D02*
X612281Y-352919D01*
X612281Y-378919D01*
X586281Y-378919D01*
X586281Y-352919D01*
G37*
G36*
X586281Y-391019D02*
X612281Y-391019D01*
X612281Y-417019D01*
X586281Y-417019D01*
X586281Y-391019D01*
G37*
G36*
X586281Y-317994D02*
X612281Y-317994D01*
X612281Y-343994D01*
X586281Y-343994D01*
X586281Y-317994D01*
G37*
G36*
X586281Y-537069D02*
X612281Y-537069D01*
X612281Y-563069D01*
X586281Y-563069D01*
X586281Y-537069D01*
G37*
G36*
X586281Y-569612D02*
X612281Y-569612D01*
X612281Y-595612D01*
X586281Y-595612D01*
X586281Y-569612D01*
G37*
G36*
X586281Y-504525D02*
X612281Y-504525D01*
X612281Y-530525D01*
X586281Y-530525D01*
X586281Y-504525D01*
G37*
X132196Y-30255D02*
G54D10*
D03*
X157696Y-30255D02*
G54D10*
D03*
X490269Y-108749D02*
G54D10*
D03*
X244819Y-46074D02*
G54D10*
D03*
X270219Y-46074D02*
G54D10*
D03*
X295619Y-46074D02*
G54D10*
D03*
X235206Y-85555D02*
G54D10*
D03*
X235094Y-136536D02*
G54D10*
D03*
X270219Y-46074D02*
G54D10*
D03*
X235094Y-136536D02*
G54D10*
D03*
X235094Y-136536D02*
G54D10*
D03*
G36*
X896112Y-387025D02*
X922112Y-387025D01*
X922112Y-413025D01*
X896112Y-413025D01*
X896112Y-387025D01*
G37*
G36*
X889762Y-534662D02*
X915762Y-534662D01*
X915762Y-560662D01*
X889762Y-560662D01*
X889762Y-534662D01*
G37*
G36*
X1032638Y-382262D02*
X1058638Y-382262D01*
X1058638Y-408262D01*
X1032638Y-408262D01*
X1032638Y-382262D01*
G37*
X564087Y-343175D02*
G54D10*
D03*
X487837Y-343124D02*
G54D10*
D03*
X559324Y-570187D02*
G54D10*
D03*
X483074Y-570136D02*
G54D10*
D03*
X487837Y-343124D02*
G54D10*
D03*
X483074Y-570136D02*
G54D10*
D03*
X549076Y-301374D02*
G54D10*
D03*
X498096Y-301486D02*
G54D10*
D03*
X542727Y-528386D02*
G54D10*
D03*
X491746Y-528499D02*
G54D10*
D03*
X429062Y-401351D02*
G54D10*
D03*
X429112Y-325101D02*
G54D10*
D03*
X430650Y-571214D02*
G54D10*
D03*
X430700Y-494964D02*
G54D10*
D03*
X479227Y-252161D02*
G54D10*
D03*
X428246Y-252274D02*
G54D10*
D03*
X471488Y-195138D02*
G54D10*
D03*
X649288Y-195138D02*
G54D10*
D03*
X482402Y-645862D02*
G54D10*
D03*
X431421Y-645974D02*
G54D10*
D03*
X471488Y-704850D02*
G54D10*
D03*
X649288Y-704850D02*
G54D10*
D03*
X1136452Y-310899D02*
G54D10*
D03*
X1085471Y-311011D02*
G54D10*
D03*
G36*
X1191912Y-326724D02*
X1217912Y-326724D01*
X1217912Y-352724D01*
X1191912Y-352724D01*
X1191912Y-326724D01*
G37*
G36*
X1391938Y-325137D02*
X1417938Y-325137D01*
X1417938Y-351137D01*
X1391938Y-351137D01*
X1391938Y-325137D01*
G37*
X1404938Y-579437D02*
G54D11*
D03*
X925825Y-579247D02*
G54D10*
D03*
X961953Y-615216D02*
G54D10*
D03*
X961953Y-615216D02*
G54D10*
D03*
G36*
X1032638Y-534662D02*
X1058638Y-534662D01*
X1058638Y-560662D01*
X1032638Y-560662D01*
X1032638Y-534662D01*
G37*
X1131689Y-610936D02*
G54D10*
D03*
X1080709Y-611049D02*
G54D10*
D03*
X1101040Y-431959D02*
G54D10*
D03*
X1101152Y-482939D02*
G54D10*
D03*
X1101152Y-482939D02*
G54D10*
D03*
X1101152Y-482939D02*
G54D10*
D03*
G36*
X1191912Y-564850D02*
X1217912Y-564850D01*
X1217912Y-590850D01*
X1191912Y-590850D01*
X1191912Y-564850D01*
G37*
G36*
X1417938Y-592437D02*
X1391938Y-592437D01*
X1391938Y-566437D01*
X1417938Y-566437D01*
X1417938Y-592437D01*
G37*
X182157Y-110121D02*
G54D10*
D03*
X138326Y-110121D02*
G54D10*
D03*
X182157Y-110121D02*
G54D10*
D03*
X355194Y-99009D02*
G54D10*
D03*
X311363Y-99009D02*
G54D10*
D03*
X355194Y-99009D02*
G54D10*
D03*
X397131Y-80793D02*
G54D10*
D03*
X397019Y-131774D02*
G54D10*
D03*
X397019Y-131774D02*
G54D10*
D03*
X397019Y-131774D02*
G54D10*
D03*
X631557Y-38899D02*
G54D10*
D03*
X631557Y-102399D02*
G54D10*
D03*
X691882Y-70649D02*
G54D10*
D03*
X631557Y-102399D02*
G54D10*
D03*
X429062Y-401351D02*
G54D10*
D03*
X430700Y-494964D02*
G54D10*
D03*
X564087Y-460649D02*
G54D10*
D03*
X487791Y-460591D02*
G54D10*
D03*
X559325Y-387624D02*
G54D10*
D03*
X483075Y-387574D02*
G54D10*
D03*
X926902Y-87855D02*
G54D10*
D03*
X875922Y-87967D02*
G54D10*
D03*
X875922Y-87967D02*
G54D10*
D03*
X1156616Y-57496D02*
G54D10*
D03*
X1055688Y-54769D02*
G54D10*
D03*
G36*
X142575Y-369588D02*
X168575Y-369588D01*
X168575Y-395588D01*
X142575Y-395588D01*
X142575Y-369588D01*
G37*
G36*
X144163Y-526750D02*
X170163Y-526750D01*
X170163Y-552750D01*
X144163Y-552750D01*
X144163Y-526750D01*
G37*
G36*
X344188Y-395782D02*
X370188Y-395782D01*
X370188Y-421782D01*
X344188Y-421782D01*
X344188Y-395782D01*
G37*
G36*
X342600Y-484682D02*
X368600Y-484682D01*
X368600Y-510682D01*
X342600Y-510682D01*
X342600Y-484682D01*
G37*
G36*
X141781Y-418800D02*
X167781Y-418800D01*
X167781Y-444800D01*
X141781Y-444800D01*
X141781Y-418800D01*
G37*
G36*
X142575Y-482300D02*
X168575Y-482300D01*
X168575Y-508300D01*
X142575Y-508300D01*
X142575Y-482300D01*
G37*
X37869Y-444431D02*
G54D12*
D03*
X88669Y-444431D02*
G54D12*
D03*
X63269Y-469831D02*
G54D12*
D03*
X88669Y-495231D02*
G54D12*
D03*
X37869Y-495231D02*
G54D12*
D03*
G36*
X1391938Y-364824D02*
X1417938Y-364824D01*
X1417938Y-390824D01*
X1391938Y-390824D01*
X1391938Y-364824D01*
G37*
G36*
X1417938Y-563862D02*
X1391938Y-563862D01*
X1391938Y-537862D01*
X1417938Y-537862D01*
X1417938Y-563862D01*
G37*
X1471381Y-422206D02*
G54D12*
D03*
X1522181Y-422206D02*
G54D12*
D03*
X1496781Y-447606D02*
G54D12*
D03*
X1522181Y-473006D02*
G54D12*
D03*
X1471381Y-473006D02*
G54D12*
D03*
X25400Y-754062D02*
G54D13*
D03*
X28575Y-31750D02*
G54D13*
D03*
X1520825Y-36512D02*
G54D13*
D03*
X1522412Y-755809D02*
G54D13*
D03*
G36*
X19545Y-182932D02*
X45545Y-182932D01*
X45545Y-208932D01*
X19545Y-208932D01*
X19545Y-182932D01*
G37*
G36*
X17958Y-598857D02*
X43958Y-598857D01*
X43958Y-624857D01*
X17958Y-624857D01*
X17958Y-598857D01*
G37*
G36*
X1503858Y-138482D02*
X1529858Y-138482D01*
X1529858Y-164482D01*
X1503858Y-164482D01*
X1503858Y-138482D01*
G37*
G36*
X1502270Y-608382D02*
X1528270Y-608382D01*
X1528270Y-634382D01*
X1502270Y-634382D01*
X1502270Y-608382D01*
G37*
G36*
X379908Y-741732D02*
X405908Y-741732D01*
X405908Y-767732D01*
X379908Y-767732D01*
X379908Y-741732D01*
G37*
G36*
X698995Y-743319D02*
X724995Y-743319D01*
X724995Y-769319D01*
X698995Y-769319D01*
X698995Y-743319D01*
G37*
G36*
X1086345Y-741732D02*
X1112345Y-741732D01*
X1112345Y-767732D01*
X1086345Y-767732D01*
X1086345Y-741732D01*
G37*
G36*
X1295895Y-19419D02*
X1321895Y-19419D01*
X1321895Y-45419D01*
X1295895Y-45419D01*
X1295895Y-19419D01*
G37*
X908384Y-35812D02*
G54D10*
D03*
X933884Y-35812D02*
G54D10*
D03*
X1220788Y-298450D02*
G54D14*
D03*
X346075Y-371475D02*
G54D14*
D03*
X350044Y-536575D02*
G54D14*
D03*
X1395412Y-301625D02*
G54D14*
D03*
M02*
