%FSLAX34Y34*%
%MOMM*%
%LNSILK_TOP*%
G71*
G01*
%ADD10C,0.111*%
%ADD11C,0.200*%
%ADD12C,0.150*%
%ADD13C,0.222*%
%ADD14C,0.333*%
%ADD15C,0.167*%
%ADD16C,0.400*%
%ADD17C,1.600*%
%ADD18C,0.144*%
%ADD19C,0.244*%
%LPD*%
G54D10*
X614648Y-336074D02*
X617315Y-336074D01*
X617315Y-338852D01*
X616648Y-339963D01*
X615315Y-340519D01*
X613981Y-340519D01*
X612648Y-339963D01*
X611981Y-338852D01*
X611981Y-333296D01*
X612648Y-332186D01*
X613981Y-331630D01*
X615315Y-331630D01*
X616648Y-332186D01*
X617315Y-333296D01*
G54D10*
X611981Y-365919D02*
X611981Y-357030D01*
X615315Y-357030D01*
X616648Y-357585D01*
X617315Y-358696D01*
X617315Y-364252D01*
X616648Y-365363D01*
X615315Y-365919D01*
X611981Y-365919D01*
G54D10*
X611981Y-550069D02*
X611981Y-541180D01*
X615315Y-541180D01*
X616648Y-541735D01*
X617315Y-542846D01*
X617315Y-548402D01*
X616648Y-549513D01*
X615315Y-550069D01*
X611981Y-550069D01*
G54D10*
X611981Y-396002D02*
X612648Y-397113D01*
X613981Y-397669D01*
X615315Y-397669D01*
X616648Y-397113D01*
X617315Y-396002D01*
X617315Y-394891D01*
X616648Y-393780D01*
X615315Y-393224D01*
X613981Y-393224D01*
X612648Y-392669D01*
X611981Y-391558D01*
X611981Y-390446D01*
X612648Y-389335D01*
X613981Y-388780D01*
X615315Y-388780D01*
X616648Y-389335D01*
X617315Y-390446D01*
G54D10*
X611981Y-580152D02*
X612648Y-581263D01*
X613981Y-581819D01*
X615315Y-581819D01*
X616648Y-581263D01*
X617315Y-580152D01*
X617315Y-579041D01*
X616648Y-577930D01*
X615315Y-577374D01*
X613981Y-577374D01*
X612648Y-576819D01*
X611981Y-575708D01*
X611981Y-574596D01*
X612648Y-573485D01*
X613981Y-572930D01*
X615315Y-572930D01*
X616648Y-573485D01*
X617315Y-574596D01*
G54D10*
X614648Y-513874D02*
X617315Y-513874D01*
X617315Y-516652D01*
X616648Y-517763D01*
X615315Y-518319D01*
X613981Y-518319D01*
X612648Y-517763D01*
X611981Y-516652D01*
X611981Y-511096D01*
X612648Y-509985D01*
X613981Y-509430D01*
X615315Y-509430D01*
X616648Y-509985D01*
X617315Y-511096D01*
G54D11*
X183575Y-20318D02*
X193175Y-20318D01*
G54D11*
X188375Y-16318D02*
X188375Y-24318D01*
G54D11*
X197575Y-11318D02*
X203575Y-27318D01*
X209575Y-11318D01*
G54D12*
X119425Y-42943D02*
X119426Y-17543D01*
X170225Y-17543D01*
X170225Y-42943D01*
X119425Y-42943D01*
G54D10*
X487891Y-70268D02*
X487891Y-61379D01*
X490114Y-61379D01*
X491002Y-61935D01*
X491447Y-63046D01*
X491447Y-64157D01*
X491002Y-65268D01*
X490114Y-65824D01*
X491002Y-66379D01*
X491447Y-67490D01*
X491447Y-68602D01*
X491002Y-69713D01*
X490114Y-70268D01*
X487891Y-70268D01*
G54D10*
X487891Y-65824D02*
X490114Y-65824D01*
G54D10*
X493891Y-70268D02*
X493891Y-61379D01*
G54D10*
X496335Y-70268D02*
X498558Y-61379D01*
X500780Y-70268D01*
G54D10*
X497224Y-66935D02*
X499891Y-66935D01*
G54D10*
X503223Y-68602D02*
X503668Y-69713D01*
X504557Y-70268D01*
X505446Y-70268D01*
X506334Y-69713D01*
X506779Y-68602D01*
X506779Y-67490D01*
X506334Y-66379D01*
X505446Y-65824D01*
X504557Y-65824D01*
X503668Y-65268D01*
X503223Y-64157D01*
X503223Y-63046D01*
X503668Y-61935D01*
X504557Y-61379D01*
X505446Y-61379D01*
X506334Y-61935D01*
X506779Y-63046D01*
G54D10*
X509223Y-64713D02*
X511446Y-61379D01*
X511446Y-70268D01*
G54D10*
X516422Y-66379D02*
X519978Y-66379D01*
G54D10*
X525978Y-70268D02*
X522422Y-70268D01*
X522422Y-69713D01*
X522867Y-68602D01*
X525534Y-65268D01*
X525978Y-64157D01*
X525978Y-63046D01*
X525534Y-61935D01*
X524645Y-61379D01*
X523756Y-61379D01*
X522867Y-61935D01*
X522422Y-63046D01*
G54D10*
X528422Y-70268D02*
X528422Y-61379D01*
G54D10*
X529756Y-66935D02*
X531089Y-70268D01*
G54D10*
X528422Y-68046D02*
X531089Y-65268D01*
G54D10*
X537089Y-70268D02*
X533533Y-70268D01*
X533533Y-69713D01*
X533978Y-68602D01*
X536644Y-65268D01*
X537089Y-64157D01*
X537089Y-63046D01*
X536644Y-61935D01*
X535756Y-61379D01*
X534867Y-61379D01*
X533978Y-61935D01*
X533533Y-63046D01*
G54D12*
G75*
G01X553769Y-75349D02*
G03X553769Y-75349I-38100J0D01*
G01*
G54D13*
X736452Y-271694D02*
X736452Y-253916D01*
G54D13*
X731119Y-253916D02*
X741785Y-253916D01*
G54D13*
X752008Y-262805D02*
X756008Y-265027D01*
X757341Y-267249D01*
X757341Y-271694D01*
G54D13*
X746675Y-271694D02*
X746675Y-253916D01*
X753341Y-253916D01*
X756008Y-255027D01*
X757341Y-257249D01*
X757341Y-259472D01*
X756008Y-261694D01*
X753341Y-262805D01*
X746675Y-262805D01*
G54D13*
X762231Y-260583D02*
X768897Y-253916D01*
X768897Y-271694D01*
G54D13*
X745152Y-687006D02*
X745152Y-669228D01*
G54D13*
X739819Y-669228D02*
X750485Y-669228D01*
G54D13*
X760708Y-678117D02*
X764708Y-680340D01*
X766041Y-682562D01*
X766041Y-687006D01*
G54D13*
X755375Y-687006D02*
X755375Y-669228D01*
X762041Y-669228D01*
X764708Y-670340D01*
X766041Y-672562D01*
X766041Y-674784D01*
X764708Y-677006D01*
X762041Y-678117D01*
X755375Y-678117D01*
G54D13*
X781597Y-687006D02*
X770931Y-687006D01*
X770931Y-685895D01*
X772264Y-683673D01*
X780264Y-677006D01*
X781597Y-674784D01*
X781597Y-672562D01*
X780264Y-670340D01*
X777597Y-669228D01*
X774931Y-669228D01*
X772264Y-670340D01*
X770931Y-672562D01*
G54D14*
X734694Y-164002D02*
X734694Y-190669D01*
X744027Y-190669D01*
G54D14*
X751360Y-190669D02*
X751360Y-164002D01*
G54D14*
X758693Y-190669D02*
X758693Y-164002D01*
X769359Y-190669D01*
X769359Y-164002D01*
G54D14*
X786026Y-190669D02*
X776693Y-190669D01*
X776693Y-164002D01*
X786026Y-164002D01*
G54D14*
X776693Y-177335D02*
X786026Y-177335D01*
G54D14*
X793359Y-190669D02*
X800025Y-164002D01*
X806692Y-190669D01*
G54D14*
X796025Y-180669D02*
X804025Y-180669D01*
G54D14*
X819358Y-177335D02*
X823358Y-180669D01*
X824691Y-184002D01*
X824691Y-190669D01*
G54D14*
X814025Y-190669D02*
X814025Y-164002D01*
X820691Y-164002D01*
X823358Y-165669D01*
X824691Y-169002D01*
X824691Y-172335D01*
X823358Y-175669D01*
X820691Y-177335D01*
X814025Y-177335D01*
G54D14*
X832025Y-179002D02*
X842691Y-179002D01*
G54D14*
X850025Y-190669D02*
X856691Y-164002D01*
X863358Y-190669D01*
G54D14*
X852691Y-180669D02*
X860691Y-180669D01*
G54D14*
X870691Y-190669D02*
X870691Y-164002D01*
X877357Y-180669D01*
X884024Y-164002D01*
X884024Y-190669D01*
G54D14*
X891357Y-190669D02*
X891357Y-164002D01*
X898023Y-164002D01*
X900690Y-165669D01*
X902023Y-169002D01*
X902023Y-172335D01*
X900690Y-175669D01*
X898023Y-177335D01*
X891357Y-177335D01*
G54D14*
X909357Y-164002D02*
X909357Y-190669D01*
X918690Y-190669D01*
G54D14*
X926023Y-190669D02*
X926023Y-164002D01*
G54D14*
X933356Y-190669D02*
X933356Y-164002D01*
X942689Y-164002D01*
G54D14*
X933356Y-177335D02*
X942689Y-177335D01*
G54D14*
X950022Y-190669D02*
X950022Y-164002D01*
G54D14*
X966688Y-190669D02*
X957355Y-190669D01*
X957355Y-164002D01*
X966688Y-164002D01*
G54D14*
X957355Y-177335D02*
X966688Y-177335D01*
G54D14*
X979354Y-177335D02*
X983354Y-180669D01*
X984688Y-184002D01*
X984688Y-190669D01*
G54D14*
X974021Y-190669D02*
X974021Y-164002D01*
X980688Y-164002D01*
X983354Y-165669D01*
X984688Y-169002D01*
X984688Y-172335D01*
X983354Y-175669D01*
X980688Y-177335D01*
X974021Y-177335D01*
G54D10*
X241564Y-94467D02*
X244231Y-94467D01*
X244231Y-97245D01*
X243564Y-98356D01*
X242231Y-98911D01*
X240898Y-98911D01*
X239564Y-98356D01*
X238898Y-97245D01*
X238898Y-91689D01*
X239564Y-90578D01*
X240898Y-90022D01*
X242231Y-90022D01*
X243564Y-90578D01*
X244231Y-91689D01*
G54D12*
X222373Y-75340D02*
X247773Y-75340D01*
X247773Y-146941D01*
X222373Y-146940D01*
X222373Y-75340D01*
G54D13*
X214499Y-47046D02*
X214499Y-61490D01*
X215388Y-63713D01*
X217166Y-64824D01*
X218944Y-64824D01*
X220722Y-63713D01*
X221610Y-61490D01*
X221610Y-47046D01*
G54D13*
X226499Y-53713D02*
X230944Y-47046D01*
X230944Y-64824D01*
G54D12*
X551291Y-332028D02*
X551291Y-354204D01*
X500591Y-354204D01*
X500591Y-332028D01*
X551291Y-332028D01*
G54D12*
X551491Y-343116D02*
X559391Y-343116D01*
G54D12*
X500491Y-343116D02*
X492591Y-343116D01*
G54D15*
X514350Y-363707D02*
X517683Y-358707D01*
X517683Y-372040D01*
G54D15*
X521350Y-372040D02*
X521350Y-358707D01*
G54D15*
X523350Y-367040D02*
X525350Y-372040D01*
G54D15*
X521350Y-368707D02*
X525350Y-364540D01*
G54D12*
X546528Y-559041D02*
X546528Y-581216D01*
X495828Y-581216D01*
X495828Y-559040D01*
X546528Y-559041D01*
G54D12*
X546729Y-570128D02*
X554629Y-570128D01*
G54D12*
X495728Y-570128D02*
X487828Y-570128D01*
G54D15*
X509587Y-590719D02*
X512921Y-585719D01*
X512921Y-599052D01*
G54D15*
X516587Y-599052D02*
X516587Y-585719D01*
G54D15*
X518587Y-594052D02*
X520587Y-599052D01*
G54D15*
X516587Y-595719D02*
X520587Y-591552D01*
G54D12*
X559291Y-314207D02*
X559292Y-288807D01*
X487691Y-288807D01*
X487691Y-314207D01*
X559291Y-314207D01*
G54D15*
X514636Y-272582D02*
X514636Y-280915D01*
X513636Y-282582D01*
X511636Y-283415D01*
X509636Y-283415D01*
X507636Y-282582D01*
X506636Y-280915D01*
X506636Y-272582D01*
X507636Y-270915D01*
X509636Y-270082D01*
X511636Y-270082D01*
X513636Y-270915D01*
X514636Y-272582D01*
G54D15*
X518303Y-283415D02*
X518303Y-283415D01*
G54D15*
X521970Y-275082D02*
X526970Y-270082D01*
X526970Y-283415D01*
G54D15*
X536637Y-275915D02*
X536637Y-283415D01*
G54D15*
X536637Y-281749D02*
X535637Y-283082D01*
X533637Y-283415D01*
X531637Y-283082D01*
X530637Y-281749D01*
X530637Y-275915D01*
G54D12*
X552942Y-541220D02*
X552942Y-515820D01*
X481342Y-515820D01*
X481342Y-541220D01*
X552942Y-541220D01*
G54D15*
X509874Y-539282D02*
X509874Y-547616D01*
X508874Y-549282D01*
X506874Y-550116D01*
X504874Y-550116D01*
X502874Y-549282D01*
X501874Y-547616D01*
X501874Y-539282D01*
X502874Y-537616D01*
X504874Y-536782D01*
X506874Y-536782D01*
X508874Y-537616D01*
X509874Y-539282D01*
G54D15*
X513541Y-550116D02*
X513541Y-550116D01*
G54D15*
X517208Y-541782D02*
X522208Y-536782D01*
X522208Y-550116D01*
G54D15*
X531875Y-542616D02*
X531875Y-550116D01*
G54D15*
X531875Y-548449D02*
X530875Y-549782D01*
X528875Y-550116D01*
X526875Y-549782D01*
X525875Y-548449D01*
X525875Y-542616D01*
G54D12*
X440208Y-388555D02*
X418033Y-388555D01*
X418033Y-337855D01*
X440208Y-337855D01*
X440208Y-388555D01*
G54D12*
X429121Y-388756D02*
X429121Y-396656D01*
G54D12*
X429120Y-337755D02*
X429120Y-329855D01*
G54D15*
X408530Y-351614D02*
X413530Y-354948D01*
X400196Y-354948D01*
G54D15*
X411030Y-363948D02*
X402696Y-363948D01*
X401030Y-363281D01*
X400196Y-361948D01*
X400196Y-360614D01*
X401030Y-359281D01*
X402696Y-358614D01*
X411030Y-358614D01*
X412696Y-359281D01*
X413530Y-360614D01*
X413530Y-361948D01*
X412696Y-363281D01*
X411030Y-363948D01*
G54D15*
X411030Y-372948D02*
X402696Y-372948D01*
X401030Y-372281D01*
X400196Y-370948D01*
X400196Y-369614D01*
X401030Y-368281D01*
X402696Y-367614D01*
X411030Y-367614D01*
X412696Y-368281D01*
X413530Y-369614D01*
X413530Y-370948D01*
X412696Y-372281D01*
X411030Y-372948D01*
G54D12*
X441796Y-558418D02*
X419620Y-558418D01*
X419620Y-507718D01*
X441796Y-507718D01*
X441796Y-558418D01*
G54D12*
X430708Y-558618D02*
X430708Y-566518D01*
G54D12*
X430708Y-507618D02*
X430708Y-499718D01*
G54D15*
X410117Y-521477D02*
X415117Y-524810D01*
X401784Y-524810D01*
G54D15*
X412617Y-533810D02*
X404284Y-533810D01*
X402617Y-533143D01*
X401784Y-531810D01*
X401784Y-530477D01*
X402617Y-529143D01*
X404284Y-528477D01*
X412617Y-528477D01*
X414284Y-529143D01*
X415117Y-530477D01*
X415117Y-531810D01*
X414284Y-533143D01*
X412617Y-533810D01*
G54D15*
X412617Y-542810D02*
X404284Y-542810D01*
X402617Y-542143D01*
X401784Y-540810D01*
X401784Y-539477D01*
X402617Y-538143D01*
X404284Y-537477D01*
X412617Y-537477D01*
X414284Y-538143D01*
X415117Y-539477D01*
X415117Y-540810D01*
X414284Y-542143D01*
X412617Y-542810D01*
G54D12*
X489442Y-264995D02*
X489442Y-239595D01*
X417842Y-239595D01*
X417842Y-264995D01*
X489442Y-264995D01*
G54D15*
X444786Y-223370D02*
X444786Y-231703D01*
X443786Y-233370D01*
X441786Y-234203D01*
X439786Y-234203D01*
X437786Y-233370D01*
X436786Y-231703D01*
X436786Y-223370D01*
X437786Y-221703D01*
X439786Y-220870D01*
X441786Y-220870D01*
X443786Y-221703D01*
X444786Y-223370D01*
G54D15*
X448453Y-234203D02*
X448453Y-234203D01*
G54D15*
X452120Y-225870D02*
X457120Y-220870D01*
X457120Y-234203D01*
G54D15*
X466787Y-226703D02*
X466787Y-234203D01*
G54D15*
X466787Y-232536D02*
X465787Y-233870D01*
X463787Y-234203D01*
X461787Y-233870D01*
X460787Y-232536D01*
X460787Y-226703D01*
G54D12*
X541388Y-204638D02*
X541388Y-185638D01*
X579388Y-185638D01*
X579388Y-204638D01*
X541388Y-204638D01*
G54D12*
X541288Y-195138D02*
X482588Y-195138D01*
G54D12*
X638188Y-195138D02*
X579488Y-195138D01*
G54D12*
X492617Y-658695D02*
X492617Y-633294D01*
X421017Y-633295D01*
X421017Y-658695D01*
X492617Y-658695D01*
G54D15*
X447961Y-617070D02*
X447961Y-625403D01*
X446961Y-627070D01*
X444961Y-627903D01*
X442961Y-627903D01*
X440961Y-627070D01*
X439961Y-625403D01*
X439961Y-617070D01*
X440961Y-615403D01*
X442961Y-614570D01*
X444961Y-614570D01*
X446961Y-615403D01*
X447961Y-617070D01*
G54D15*
X451628Y-627903D02*
X451628Y-627903D01*
G54D15*
X455295Y-619570D02*
X460295Y-614570D01*
X460295Y-627903D01*
G54D15*
X469962Y-620403D02*
X469962Y-627903D01*
G54D15*
X469962Y-626236D02*
X468962Y-627570D01*
X466962Y-627903D01*
X464962Y-627570D01*
X463962Y-626236D01*
X463962Y-620403D01*
G54D12*
X541388Y-714350D02*
X541388Y-695350D01*
X579388Y-695350D01*
X579388Y-714350D01*
X541388Y-714350D01*
G54D12*
X541288Y-704850D02*
X482588Y-704850D01*
G54D12*
X638188Y-704850D02*
X579488Y-704850D01*
G54D16*
X1235076Y-600076D02*
X1377950Y-600076D01*
X1377950Y-309563D01*
X1235076Y-309563D01*
X1235076Y-600076D01*
G54D12*
X1146667Y-323732D02*
X1146667Y-298332D01*
X1075067Y-298332D01*
X1075067Y-323732D01*
X1146667Y-323732D01*
G54D15*
X1102011Y-282107D02*
X1102011Y-290441D01*
X1101011Y-292107D01*
X1099011Y-292941D01*
X1097011Y-292941D01*
X1095011Y-292107D01*
X1094011Y-290441D01*
X1094011Y-282107D01*
X1095011Y-280441D01*
X1097011Y-279607D01*
X1099011Y-279607D01*
X1101011Y-280441D01*
X1102011Y-282107D01*
G54D15*
X1105678Y-292941D02*
X1105678Y-292941D01*
G54D15*
X1109345Y-284607D02*
X1114345Y-279607D01*
X1114345Y-292941D01*
G54D15*
X1124012Y-285441D02*
X1124012Y-292941D01*
G54D15*
X1124012Y-291274D02*
X1123012Y-292607D01*
X1121012Y-292941D01*
X1119012Y-292607D01*
X1118012Y-291274D01*
X1118012Y-285441D01*
G54D16*
X1231900Y-460374D02*
X1376362Y-460374D01*
X1377950Y-461962D01*
G54D12*
X927676Y-562949D02*
X909716Y-580910D01*
X960345Y-631539D01*
X978305Y-613578D01*
X927676Y-562949D01*
G54D15*
X876431Y-675715D02*
X882324Y-681608D01*
X882795Y-683493D01*
X881970Y-685497D01*
X880556Y-686911D01*
X878553Y-687736D01*
X876667Y-687264D01*
X870774Y-681372D01*
X870303Y-679486D01*
X871128Y-677483D01*
X872542Y-676069D01*
X874546Y-675244D01*
X876431Y-675715D01*
G54D15*
X886684Y-680782D02*
X886684Y-680782D01*
G54D15*
X883385Y-672297D02*
X883385Y-665226D01*
X892813Y-674654D01*
G54D15*
X894345Y-662515D02*
X899649Y-667818D01*
G54D15*
X898470Y-666640D02*
X898706Y-668290D01*
X897527Y-669940D01*
X895877Y-671118D01*
X894227Y-670882D01*
X890103Y-666758D01*
G54D16*
G75*
G01X327025Y-384175D02*
G03X327025Y-384175I-73025J0D01*
G01*
G54D16*
G75*
G01X293688Y-384175D02*
G03X293688Y-384175I-39688J0D01*
G01*
G54D16*
G75*
G01X334962Y-536575D02*
G03X334962Y-536575I-73024J0D01*
G01*
G54D16*
G75*
G01X301626Y-536575D02*
G03X301626Y-536575I-39688J0D01*
G01*
G54D16*
G75*
G01X1052512Y-469900D02*
G03X1052512Y-469900I-73024J0D01*
G01*
G54D16*
G75*
G01X1019176Y-469900D02*
G03X1019176Y-469900I-39688J0D01*
G01*
G54D12*
X1141904Y-623770D02*
X1141904Y-598370D01*
X1070304Y-598370D01*
X1070304Y-623770D01*
X1141904Y-623770D01*
G54D15*
X1097249Y-582145D02*
X1097249Y-590478D01*
X1096249Y-592145D01*
X1094249Y-592978D01*
X1092249Y-592978D01*
X1090249Y-592145D01*
X1089249Y-590478D01*
X1089249Y-582145D01*
X1090249Y-580478D01*
X1092249Y-579645D01*
X1094249Y-579645D01*
X1096249Y-580478D01*
X1097249Y-582145D01*
G54D15*
X1100916Y-592978D02*
X1100916Y-592978D01*
G54D15*
X1104583Y-584645D02*
X1109583Y-579645D01*
X1109583Y-592978D01*
G54D15*
X1119250Y-585478D02*
X1119250Y-592978D01*
G54D15*
X1119250Y-591312D02*
X1118250Y-592645D01*
X1116250Y-592978D01*
X1114250Y-592645D01*
X1113250Y-591312D01*
X1113250Y-585478D01*
G54D12*
X1113873Y-421744D02*
X1088473Y-421744D01*
X1088473Y-493344D01*
X1113873Y-493344D01*
X1113873Y-421744D01*
G54D15*
X1072248Y-466399D02*
X1080582Y-466399D01*
X1082248Y-467399D01*
X1083082Y-469399D01*
X1083082Y-471399D01*
X1082248Y-473399D01*
X1080582Y-474399D01*
X1072248Y-474399D01*
X1070582Y-473399D01*
X1069748Y-471399D01*
X1069748Y-469399D01*
X1070582Y-467399D01*
X1072248Y-466399D01*
G54D15*
X1083082Y-462732D02*
X1083082Y-462732D01*
G54D15*
X1074748Y-459065D02*
X1069748Y-454065D01*
X1083082Y-454065D01*
G54D15*
X1075582Y-444398D02*
X1083082Y-444398D01*
G54D15*
X1081415Y-444398D02*
X1082748Y-445398D01*
X1083082Y-447398D01*
X1082748Y-449398D01*
X1081415Y-450398D01*
X1075582Y-450398D01*
G54D12*
X134526Y-122821D02*
X142126Y-122821D01*
G54D12*
X138326Y-119021D02*
X138326Y-126621D01*
G54D12*
G75*
G01X195681Y-110121D02*
G03X195681Y-110121I-39850J0D01*
G01*
G54D15*
X152738Y-163875D02*
X156072Y-158875D01*
X156072Y-172209D01*
G54D15*
X165072Y-161375D02*
X165072Y-169709D01*
X164405Y-171375D01*
X163072Y-172209D01*
X161738Y-172209D01*
X160405Y-171375D01*
X159738Y-169709D01*
X159738Y-161375D01*
X160405Y-159709D01*
X161738Y-158875D01*
X163072Y-158875D01*
X164405Y-159709D01*
X165072Y-161375D01*
G54D15*
X172738Y-164709D02*
X172738Y-172209D01*
G54D15*
X172738Y-170542D02*
X172072Y-171875D01*
X170738Y-172209D01*
X169405Y-171875D01*
X168738Y-170542D01*
X168738Y-164709D01*
G54D12*
X307563Y-111709D02*
X315163Y-111709D01*
G54D12*
X311363Y-107909D02*
X311363Y-115509D01*
G54D12*
G75*
G01X368719Y-99009D02*
G03X368719Y-99009I-39850J0D01*
G01*
G54D15*
X319426Y-155938D02*
X322759Y-150938D01*
X322759Y-164271D01*
G54D15*
X331759Y-153438D02*
X331759Y-161771D01*
X331092Y-163438D01*
X329759Y-164271D01*
X328426Y-164271D01*
X327092Y-163438D01*
X326426Y-161771D01*
X326426Y-153438D01*
X327092Y-151771D01*
X328426Y-150938D01*
X329759Y-150938D01*
X331092Y-151771D01*
X331759Y-153438D01*
G54D15*
X339426Y-156771D02*
X339426Y-164271D01*
G54D15*
X339426Y-162604D02*
X338759Y-163938D01*
X337426Y-164271D01*
X336092Y-163938D01*
X335426Y-162604D01*
X335426Y-156771D01*
G54D12*
X384298Y-70578D02*
X409698Y-70578D01*
X409698Y-142178D01*
X384298Y-142178D01*
X384298Y-70578D01*
G54D10*
X627591Y-71856D02*
X627591Y-62967D01*
X629814Y-62967D01*
X630702Y-63522D01*
X631147Y-64633D01*
X631147Y-65745D01*
X630702Y-66856D01*
X629814Y-67411D01*
X630702Y-67967D01*
X631147Y-69078D01*
X631147Y-70189D01*
X630702Y-71300D01*
X629814Y-71856D01*
X627591Y-71856D01*
G54D10*
X627591Y-67411D02*
X629814Y-67411D01*
G54D10*
X633591Y-71856D02*
X633591Y-62967D01*
G54D10*
X636035Y-71856D02*
X638258Y-62967D01*
X640480Y-71856D01*
G54D10*
X636924Y-68522D02*
X639591Y-68522D01*
G54D10*
X642923Y-70189D02*
X643368Y-71300D01*
X644257Y-71856D01*
X645146Y-71856D01*
X646034Y-71300D01*
X646479Y-70189D01*
X646479Y-69078D01*
X646034Y-67967D01*
X645146Y-67411D01*
X644257Y-67411D01*
X643368Y-66856D01*
X642923Y-65745D01*
X642923Y-64633D01*
X643368Y-63522D01*
X644257Y-62967D01*
X645146Y-62967D01*
X646034Y-63522D01*
X646479Y-64633D01*
G54D10*
X652479Y-71856D02*
X648923Y-71856D01*
X648923Y-71300D01*
X649368Y-70189D01*
X652034Y-66856D01*
X652479Y-65745D01*
X652479Y-64633D01*
X652034Y-63522D01*
X651146Y-62967D01*
X650257Y-62967D01*
X649368Y-63522D01*
X648923Y-64633D01*
G54D10*
X654923Y-67967D02*
X658479Y-67967D01*
G54D10*
X667012Y-71856D02*
X663456Y-71856D01*
X663456Y-71300D01*
X663901Y-70189D01*
X666568Y-66856D01*
X667012Y-65745D01*
X667012Y-64633D01*
X666568Y-63522D01*
X665679Y-62967D01*
X664790Y-62967D01*
X663901Y-63522D01*
X663456Y-64633D01*
G54D10*
X669456Y-71856D02*
X669456Y-62967D01*
G54D10*
X670790Y-68522D02*
X672123Y-71856D01*
G54D10*
X669456Y-69633D02*
X672123Y-66856D01*
G54D10*
X678123Y-71856D02*
X674567Y-71856D01*
X674567Y-71300D01*
X675012Y-70189D01*
X677678Y-66856D01*
X678123Y-65745D01*
X678123Y-64633D01*
X677678Y-63522D01*
X676790Y-62967D01*
X675901Y-62967D01*
X675012Y-63522D01*
X674567Y-64633D01*
G54D12*
G75*
G01X695057Y-68999D02*
G03X695057Y-68999I-38100J0D01*
G01*
G54D15*
X551912Y-172083D02*
X546578Y-172083D01*
X546578Y-171250D01*
X547245Y-169583D01*
X551245Y-164583D01*
X551912Y-162916D01*
X551912Y-161250D01*
X551245Y-159583D01*
X549912Y-158750D01*
X548578Y-158750D01*
X547245Y-159583D01*
X546578Y-161250D01*
G54D15*
X560912Y-172083D02*
X555578Y-172083D01*
X555578Y-171250D01*
X556245Y-169583D01*
X560245Y-164583D01*
X560912Y-162916D01*
X560912Y-161250D01*
X560245Y-159583D01*
X558912Y-158750D01*
X557578Y-158750D01*
X556245Y-159583D01*
X555578Y-161250D01*
G54D15*
X569912Y-161250D02*
X569912Y-169583D01*
X569245Y-171250D01*
X567912Y-172083D01*
X566578Y-172083D01*
X565245Y-171250D01*
X564578Y-169583D01*
X564578Y-161250D01*
X565245Y-159583D01*
X566578Y-158750D01*
X567912Y-158750D01*
X569245Y-159583D01*
X569912Y-161250D01*
G54D15*
X550324Y-734058D02*
X544991Y-734058D01*
X544991Y-733225D01*
X545658Y-731558D01*
X549658Y-726558D01*
X550324Y-724891D01*
X550324Y-723225D01*
X549658Y-721558D01*
X548324Y-720725D01*
X546991Y-720725D01*
X545658Y-721558D01*
X544991Y-723225D01*
G54D15*
X559324Y-734058D02*
X553991Y-734058D01*
X553991Y-733225D01*
X554658Y-731558D01*
X558658Y-726558D01*
X559324Y-724891D01*
X559324Y-723225D01*
X558658Y-721558D01*
X557324Y-720725D01*
X555991Y-720725D01*
X554658Y-721558D01*
X553991Y-723225D01*
G54D15*
X568324Y-723225D02*
X568324Y-731558D01*
X567658Y-733225D01*
X566324Y-734058D01*
X564991Y-734058D01*
X563658Y-733225D01*
X562991Y-731558D01*
X562991Y-723225D01*
X563658Y-721558D01*
X564991Y-720725D01*
X566324Y-720725D01*
X567658Y-721558D01*
X568324Y-723225D01*
G54D12*
X538591Y-449503D02*
X538591Y-471678D01*
X487891Y-471678D01*
X487892Y-449503D01*
X538591Y-449503D01*
G54D12*
X538791Y-460590D02*
X546692Y-460590D01*
G54D12*
X487791Y-460591D02*
X479891Y-460591D01*
G54D15*
X506984Y-476182D02*
X501650Y-476182D01*
X501650Y-482015D01*
X502317Y-482015D01*
X503650Y-481182D01*
X504984Y-481182D01*
X506317Y-482015D01*
X506984Y-483682D01*
X506984Y-487015D01*
X506317Y-488682D01*
X504984Y-489515D01*
X503650Y-489515D01*
X502317Y-488682D01*
X501650Y-487015D01*
G54D15*
X515984Y-478682D02*
X515317Y-477015D01*
X513984Y-476182D01*
X512650Y-476182D01*
X511317Y-477015D01*
X510650Y-478682D01*
X510650Y-482848D01*
X510650Y-483682D01*
X512650Y-482015D01*
X513984Y-482015D01*
X515317Y-482848D01*
X515984Y-484515D01*
X515984Y-487015D01*
X515317Y-488682D01*
X513984Y-489515D01*
X512650Y-489515D01*
X511317Y-488682D01*
X510650Y-487015D01*
X510650Y-482848D01*
G54D15*
X524984Y-478682D02*
X524984Y-487015D01*
X524317Y-488682D01*
X522984Y-489515D01*
X521650Y-489515D01*
X520317Y-488682D01*
X519650Y-487015D01*
X519650Y-478682D01*
X520317Y-477015D01*
X521650Y-476182D01*
X522984Y-476182D01*
X524317Y-477015D01*
X524984Y-478682D01*
G54D12*
X546529Y-376478D02*
X546529Y-398653D01*
X495829Y-398653D01*
X495829Y-376478D01*
X546529Y-376478D01*
G54D12*
X546729Y-387566D02*
X554629Y-387566D01*
G54D12*
X495729Y-387566D02*
X487829Y-387566D01*
G54D15*
X514921Y-403157D02*
X509588Y-403157D01*
X509588Y-408990D01*
X510254Y-408990D01*
X511588Y-408157D01*
X512921Y-408157D01*
X514254Y-408990D01*
X514921Y-410657D01*
X514921Y-413990D01*
X514254Y-415657D01*
X512921Y-416490D01*
X511588Y-416490D01*
X510254Y-415657D01*
X509588Y-413990D01*
G54D15*
X523921Y-405657D02*
X523254Y-403990D01*
X521921Y-403157D01*
X520588Y-403157D01*
X519254Y-403990D01*
X518588Y-405657D01*
X518588Y-409823D01*
X518588Y-410657D01*
X520588Y-408990D01*
X521921Y-408990D01*
X523254Y-409823D01*
X523921Y-411490D01*
X523921Y-413990D01*
X523254Y-415657D01*
X521921Y-416490D01*
X520588Y-416490D01*
X519254Y-415657D01*
X518588Y-413990D01*
X518588Y-409823D01*
G54D15*
X532921Y-405657D02*
X532921Y-413990D01*
X532254Y-415657D01*
X530921Y-416490D01*
X529588Y-416490D01*
X528254Y-415657D01*
X527588Y-413990D01*
X527588Y-405657D01*
X528254Y-403990D01*
X529588Y-403157D01*
X530921Y-403157D01*
X532254Y-403990D01*
X532921Y-405657D01*
G54D12*
X937117Y-100688D02*
X937117Y-75288D01*
X865517Y-75288D01*
X865517Y-100688D01*
X937117Y-100688D01*
G54D15*
X892462Y-59063D02*
X892462Y-67396D01*
X891462Y-69063D01*
X889462Y-69896D01*
X887462Y-69896D01*
X885462Y-69063D01*
X884462Y-67396D01*
X884462Y-59063D01*
X885462Y-57396D01*
X887462Y-56563D01*
X889462Y-56563D01*
X891462Y-57396D01*
X892462Y-59063D01*
G54D15*
X896128Y-69896D02*
X896128Y-69896D01*
G54D15*
X899796Y-61563D02*
X904796Y-56563D01*
X904796Y-69896D01*
G54D15*
X914462Y-62396D02*
X914462Y-69896D01*
G54D15*
X914462Y-68230D02*
X913462Y-69563D01*
X911462Y-69896D01*
X909462Y-69563D01*
X908462Y-68230D01*
X908462Y-62396D01*
G54D11*
X955100Y-29049D02*
X964700Y-29049D01*
G54D11*
X959900Y-25049D02*
X959900Y-33049D01*
G54D11*
X969100Y-20049D02*
X975100Y-36049D01*
X981100Y-20049D01*
G54D16*
X1055688Y-54769D02*
X1153888Y-54769D01*
X1156616Y-57496D01*
G54D17*
X1238250Y-387350D02*
X1371600Y-387350D01*
X1374775Y-390526D01*
G54D17*
X1236662Y-523876D02*
X1376362Y-523876D01*
G54D12*
X12469Y-419031D02*
X114069Y-419031D01*
X114069Y-520631D01*
X12469Y-520631D01*
X12469Y-419031D01*
G54D18*
X11719Y-392281D02*
X11719Y-392281D01*
G54D18*
X11719Y-411781D02*
X11719Y-411781D01*
G54D13*
X26737Y-413408D02*
X26737Y-395630D01*
G54D13*
X31626Y-413408D02*
X31626Y-395630D01*
X42293Y-413408D01*
X42293Y-395630D01*
G54D12*
X1445981Y-396806D02*
X1547581Y-396806D01*
X1547581Y-498406D01*
X1445981Y-498406D01*
X1445981Y-396806D01*
G54D18*
X1445231Y-370056D02*
X1445231Y-370056D01*
G54D18*
X1445231Y-389556D02*
X1445231Y-389556D01*
G54D13*
X1520129Y-378326D02*
X1520129Y-389437D01*
X1518795Y-391659D01*
X1516129Y-392770D01*
X1513462Y-392770D01*
X1510795Y-391659D01*
X1509462Y-389437D01*
X1509462Y-378326D01*
X1510795Y-376104D01*
X1513462Y-374992D01*
X1516129Y-374992D01*
X1518795Y-376104D01*
X1520129Y-378326D01*
G54D13*
X1525018Y-374992D02*
X1525018Y-389437D01*
X1526351Y-391659D01*
X1529018Y-392770D01*
X1531685Y-392770D01*
X1534351Y-391659D01*
X1535685Y-389437D01*
X1535685Y-374992D01*
G54D13*
X1545907Y-392770D02*
X1545907Y-374992D01*
G54D13*
X1540574Y-374992D02*
X1551241Y-374992D01*
G54D15*
X228886Y-159870D02*
X228886Y-168203D01*
X227886Y-169870D01*
X225886Y-170703D01*
X223886Y-170703D01*
X221886Y-169870D01*
X220886Y-168203D01*
X220886Y-159870D01*
X221886Y-158203D01*
X223886Y-157370D01*
X225886Y-157370D01*
X227886Y-158203D01*
X228886Y-159870D01*
G54D15*
X232553Y-170703D02*
X232553Y-170703D01*
G54D15*
X236220Y-162370D02*
X241220Y-157370D01*
X241220Y-170703D01*
G54D15*
X250887Y-163203D02*
X250887Y-170703D01*
G54D15*
X250887Y-169036D02*
X249887Y-170370D01*
X247887Y-170703D01*
X245887Y-170370D01*
X244887Y-169036D01*
X244887Y-163203D01*
G54D15*
X427324Y-140820D02*
X427324Y-149153D01*
X426324Y-150820D01*
X424324Y-151653D01*
X422324Y-151653D01*
X420324Y-150820D01*
X419324Y-149153D01*
X419324Y-140820D01*
X420324Y-139153D01*
X422324Y-138320D01*
X424324Y-138320D01*
X426324Y-139153D01*
X427324Y-140820D01*
G54D15*
X430991Y-151653D02*
X430991Y-151653D01*
G54D15*
X434658Y-143320D02*
X439658Y-138320D01*
X439658Y-151653D01*
G54D15*
X449325Y-144153D02*
X449325Y-151653D01*
G54D15*
X449325Y-149986D02*
X448325Y-151320D01*
X446325Y-151653D01*
X444325Y-151320D01*
X443325Y-149986D01*
X443325Y-144153D01*
G54D12*
X895612Y-48499D02*
X895613Y-23099D01*
X946412Y-23099D01*
X946412Y-48499D01*
X895612Y-48499D01*
G54D19*
X294424Y-468312D02*
X294424Y-448757D01*
G54D19*
X290512Y-448757D02*
X298335Y-448757D01*
G54D19*
X303712Y-456090D02*
X308601Y-448757D01*
X308601Y-468312D01*
G54D19*
X970699Y-481012D02*
X970699Y-461457D01*
G54D19*
X966788Y-461457D02*
X974610Y-461457D01*
G54D19*
X987810Y-481012D02*
X979988Y-481012D01*
X979988Y-479790D01*
X980965Y-477346D01*
X986832Y-470012D01*
X987810Y-467568D01*
X987810Y-465124D01*
X986832Y-462679D01*
X984876Y-461457D01*
X982921Y-461457D01*
X980965Y-462679D01*
X979988Y-465124D01*
G54D19*
X1308836Y-468312D02*
X1308836Y-448757D01*
G54D19*
X1304925Y-448757D02*
X1312747Y-448757D01*
G54D19*
X1318125Y-452424D02*
X1319103Y-449979D01*
X1321058Y-448757D01*
X1323014Y-448757D01*
X1324970Y-449979D01*
X1325947Y-452424D01*
X1325947Y-454868D01*
X1324970Y-457312D01*
X1323014Y-458535D01*
X1324970Y-459757D01*
X1325947Y-462201D01*
X1325947Y-464646D01*
X1324970Y-467090D01*
X1323014Y-468312D01*
X1321058Y-468312D01*
X1319103Y-467090D01*
X1318125Y-464646D01*
G54D13*
X1081088Y-39688D02*
X1081088Y-21910D01*
X1087310Y-21910D01*
G54D13*
X1081088Y-30799D02*
X1087310Y-30799D01*
G54D13*
X1097532Y-38576D02*
X1096110Y-39688D01*
X1094332Y-39688D01*
X1092554Y-38576D01*
X1092198Y-36354D01*
X1092198Y-32576D01*
X1093087Y-30354D01*
X1094865Y-29688D01*
X1096643Y-30354D01*
X1097532Y-31910D01*
X1097532Y-34132D01*
X1092198Y-34132D01*
G54D13*
X1102420Y-39688D02*
X1102420Y-29688D01*
G54D13*
X1102420Y-31910D02*
X1104198Y-29688D01*
X1105976Y-29688D01*
G54D13*
X1110866Y-39688D02*
X1110866Y-29688D01*
G54D13*
X1110866Y-31910D02*
X1112643Y-29688D01*
X1114421Y-29688D01*
G54D13*
X1119310Y-39688D02*
X1119310Y-29688D01*
G54D13*
X1119310Y-26354D02*
X1119310Y-26354D01*
G54D13*
X1125977Y-21910D02*
X1125977Y-38576D01*
X1126866Y-39688D01*
X1127755Y-39243D01*
G54D13*
X1124200Y-29688D02*
X1127755Y-29688D01*
G54D13*
X1137978Y-38576D02*
X1136556Y-39688D01*
X1134778Y-39688D01*
X1133000Y-38576D01*
X1132644Y-36354D01*
X1132644Y-32576D01*
X1133533Y-30354D01*
X1135311Y-29688D01*
X1137089Y-30354D01*
X1137978Y-31910D01*
X1137978Y-34132D01*
X1132644Y-34132D01*
M02*
