%FSLAX34Y34*%
%MOMM*%
%LNCOPPER_TOP*%
G71*
G01*
%ADD10C,2.800*%
%ADD11C,3.200*%
%ADD12C,2.800*%
%ADD13C,1.400*%
%ADD14C,3.000*%
%ADD15C,1.800*%
%ADD16C,0.667*%
%ADD17C,0.813*%
%ADD18C,0.767*%
%ADD19C,1.713*%
%ADD20C,1.093*%
%ADD21C,0.973*%
%ADD22C,0.733*%
%ADD23C,2.000*%
%ADD24C,2.000*%
%ADD25C,0.600*%
%ADD26C,2.200*%
%ADD27C,4.300*%
%ADD28C,1.000*%
%LPD*%
G36*
X0Y0D02*
X1560000Y0D01*
X1560000Y-780000D01*
X0Y-780000D01*
X0Y0D01*
G37*
%LPC*%
X490269Y-45249D02*
G54D10*
D03*
X490269Y-108749D02*
G54D10*
D03*
X550594Y-76999D02*
G54D10*
D03*
G36*
X585281Y-351919D02*
X613281Y-351919D01*
X613281Y-379919D01*
X585281Y-379919D01*
X585281Y-351919D01*
G37*
G36*
X585281Y-390019D02*
X613281Y-390019D01*
X613281Y-418019D01*
X585281Y-418019D01*
X585281Y-390019D01*
G37*
G36*
X585281Y-316994D02*
X613281Y-316994D01*
X613281Y-344994D01*
X585281Y-344994D01*
X585281Y-316994D01*
G37*
G36*
X585281Y-536069D02*
X613281Y-536069D01*
X613281Y-564069D01*
X585281Y-564069D01*
X585281Y-536069D01*
G37*
G36*
X585281Y-568612D02*
X613281Y-568612D01*
X613281Y-596612D01*
X585281Y-596612D01*
X585281Y-568612D01*
G37*
G36*
X585281Y-503525D02*
X613281Y-503525D01*
X613281Y-531525D01*
X585281Y-531525D01*
X585281Y-503525D01*
G37*
X132196Y-30255D02*
G54D11*
D03*
X157696Y-30255D02*
G54D11*
D03*
X490269Y-108749D02*
G54D10*
D03*
X244819Y-46074D02*
G54D10*
D03*
X270219Y-46074D02*
G54D10*
D03*
X295619Y-46074D02*
G54D10*
D03*
X235206Y-85555D02*
G54D11*
D03*
X235094Y-136536D02*
G54D11*
D03*
X270219Y-46074D02*
G54D10*
D03*
X235094Y-136536D02*
G54D10*
D03*
X235094Y-136536D02*
G54D10*
D03*
G36*
X895112Y-386025D02*
X923112Y-386025D01*
X923112Y-414025D01*
X895112Y-414025D01*
X895112Y-386025D01*
G37*
G36*
X888762Y-533662D02*
X916762Y-533662D01*
X916762Y-561662D01*
X888762Y-561662D01*
X888762Y-533662D01*
G37*
G36*
X1031638Y-381262D02*
X1059638Y-381262D01*
X1059638Y-409262D01*
X1031638Y-409262D01*
X1031638Y-381262D01*
G37*
X564087Y-343175D02*
G54D11*
D03*
X487837Y-343124D02*
G54D11*
D03*
X559324Y-570187D02*
G54D11*
D03*
X483074Y-570136D02*
G54D11*
D03*
X487837Y-343124D02*
G54D10*
D03*
X483074Y-570136D02*
G54D10*
D03*
X549076Y-301374D02*
G54D11*
D03*
X498096Y-301486D02*
G54D11*
D03*
X542727Y-528386D02*
G54D11*
D03*
X491746Y-528499D02*
G54D11*
D03*
X429062Y-401351D02*
G54D11*
D03*
X429112Y-325101D02*
G54D11*
D03*
X430650Y-571214D02*
G54D11*
D03*
X430700Y-494964D02*
G54D11*
D03*
X479227Y-252161D02*
G54D11*
D03*
X428246Y-252274D02*
G54D11*
D03*
X482402Y-645862D02*
G54D11*
D03*
X431421Y-645974D02*
G54D11*
D03*
X1136452Y-310899D02*
G54D11*
D03*
X1085471Y-311011D02*
G54D11*
D03*
G36*
X1190912Y-325724D02*
X1218912Y-325724D01*
X1218912Y-353724D01*
X1190912Y-353724D01*
X1190912Y-325724D01*
G37*
G36*
X1390938Y-324137D02*
X1418938Y-324137D01*
X1418938Y-352137D01*
X1390938Y-352137D01*
X1390938Y-324137D01*
G37*
X1404938Y-579437D02*
G54D12*
D03*
X925825Y-579247D02*
G54D11*
D03*
X961953Y-615216D02*
G54D11*
D03*
X961953Y-615216D02*
G54D10*
D03*
G36*
X1031638Y-533662D02*
X1059638Y-533662D01*
X1059638Y-561662D01*
X1031638Y-561662D01*
X1031638Y-533662D01*
G37*
X1131689Y-610936D02*
G54D11*
D03*
X1080709Y-611049D02*
G54D11*
D03*
X1101040Y-431959D02*
G54D11*
D03*
X1101152Y-482939D02*
G54D11*
D03*
X1101152Y-482939D02*
G54D10*
D03*
X1101152Y-482939D02*
G54D10*
D03*
G36*
X1190912Y-563850D02*
X1218912Y-563850D01*
X1218912Y-591850D01*
X1190912Y-591850D01*
X1190912Y-563850D01*
G37*
G36*
X1418938Y-593437D02*
X1390938Y-593437D01*
X1390938Y-565437D01*
X1418938Y-565437D01*
X1418938Y-593437D01*
G37*
X182157Y-110121D02*
G54D10*
D03*
X138326Y-110121D02*
G54D10*
D03*
X182157Y-110121D02*
G54D10*
D03*
X355194Y-99009D02*
G54D10*
D03*
X311363Y-99009D02*
G54D10*
D03*
X355194Y-99009D02*
G54D10*
D03*
X397131Y-80793D02*
G54D11*
D03*
X397019Y-131774D02*
G54D11*
D03*
X397019Y-131774D02*
G54D10*
D03*
X397019Y-131774D02*
G54D10*
D03*
X631557Y-38899D02*
G54D10*
D03*
X631557Y-102399D02*
G54D10*
D03*
X691882Y-70649D02*
G54D10*
D03*
X631557Y-102399D02*
G54D10*
D03*
X429062Y-401351D02*
G54D10*
D03*
X430700Y-494964D02*
G54D10*
D03*
X564087Y-460649D02*
G54D11*
D03*
X487791Y-460591D02*
G54D11*
D03*
X559325Y-387624D02*
G54D11*
D03*
X483075Y-387574D02*
G54D11*
D03*
X926902Y-87855D02*
G54D11*
D03*
X875922Y-87967D02*
G54D11*
D03*
X875922Y-87967D02*
G54D10*
D03*
X1156616Y-57496D02*
G54D10*
D03*
X1055688Y-54769D02*
G54D10*
D03*
G36*
X141575Y-368588D02*
X169575Y-368588D01*
X169575Y-396588D01*
X141575Y-396588D01*
X141575Y-368588D01*
G37*
G36*
X143163Y-525750D02*
X171163Y-525750D01*
X171163Y-553750D01*
X143163Y-553750D01*
X143163Y-525750D01*
G37*
G36*
X343188Y-394782D02*
X371188Y-394782D01*
X371188Y-422782D01*
X343188Y-422782D01*
X343188Y-394782D01*
G37*
G36*
X341600Y-483682D02*
X369600Y-483682D01*
X369600Y-511682D01*
X341600Y-511682D01*
X341600Y-483682D01*
G37*
G36*
X140781Y-417800D02*
X168781Y-417800D01*
X168781Y-445800D01*
X140781Y-445800D01*
X140781Y-417800D01*
G37*
G36*
X141575Y-481300D02*
X169575Y-481300D01*
X169575Y-509300D01*
X141575Y-509300D01*
X141575Y-481300D01*
G37*
G54D13*
X1156616Y-57496D02*
X1157288Y-60326D01*
X928688Y-288926D01*
X928688Y-409576D01*
X903288Y-434976D01*
X903288Y-549276D01*
X902762Y-547662D01*
G54D13*
X1156616Y-57496D02*
X1157288Y-60326D01*
X1042988Y-174626D01*
X1042988Y-396876D01*
X1045638Y-395262D01*
G54D13*
X483074Y-387574D02*
X484188Y-390526D01*
X528638Y-346076D01*
X528638Y-295276D01*
X547688Y-276226D01*
X547688Y-79376D01*
X550594Y-76998D01*
G54D13*
X487792Y-460590D02*
X490538Y-460376D01*
X547688Y-403226D01*
X573088Y-403226D01*
X579438Y-396876D01*
X579438Y-390526D01*
X585788Y-384176D01*
X611188Y-384176D01*
X647700Y-227013D01*
X717550Y-223838D01*
X693738Y-73026D01*
X691882Y-70648D01*
X37869Y-444431D02*
G54D14*
D03*
X88669Y-444431D02*
G54D14*
D03*
X63269Y-469831D02*
G54D14*
D03*
X88669Y-495231D02*
G54D14*
D03*
X37869Y-495231D02*
G54D14*
D03*
G36*
X1390938Y-363824D02*
X1418938Y-363824D01*
X1418938Y-391824D01*
X1390938Y-391824D01*
X1390938Y-363824D01*
G37*
G36*
X1418938Y-564862D02*
X1390938Y-564862D01*
X1390938Y-536862D01*
X1418938Y-536862D01*
X1418938Y-564862D01*
G37*
X1471381Y-422206D02*
G54D14*
D03*
X1522181Y-422206D02*
G54D14*
D03*
X1496781Y-447606D02*
G54D14*
D03*
X1522181Y-473006D02*
G54D14*
D03*
X1471381Y-473006D02*
G54D14*
D03*
G36*
X18545Y-181932D02*
X46545Y-181932D01*
X46545Y-209932D01*
X18545Y-209932D01*
X18545Y-181932D01*
G37*
G36*
X16958Y-597857D02*
X44958Y-597857D01*
X44958Y-625857D01*
X16958Y-625857D01*
X16958Y-597857D01*
G37*
G36*
X1502858Y-137482D02*
X1530858Y-137482D01*
X1530858Y-165482D01*
X1502858Y-165482D01*
X1502858Y-137482D01*
G37*
G36*
X1501270Y-607382D02*
X1529270Y-607382D01*
X1529270Y-635382D01*
X1501270Y-635382D01*
X1501270Y-607382D01*
G37*
G36*
X378908Y-740732D02*
X406908Y-740732D01*
X406908Y-768732D01*
X378908Y-768732D01*
X378908Y-740732D01*
G37*
G36*
X697995Y-742319D02*
X725995Y-742319D01*
X725995Y-770319D01*
X697995Y-770319D01*
X697995Y-742319D01*
G37*
G36*
X1085345Y-740732D02*
X1113345Y-740732D01*
X1113345Y-768732D01*
X1085345Y-768732D01*
X1085345Y-740732D01*
G37*
G36*
X1294895Y-18419D02*
X1322895Y-18419D01*
X1322895Y-46419D01*
X1294895Y-46419D01*
X1294895Y-18419D01*
G37*
X908384Y-35812D02*
G54D11*
D03*
X933884Y-35812D02*
G54D11*
D03*
X1220788Y-298450D02*
G54D15*
D03*
X346075Y-371475D02*
G54D15*
D03*
X350044Y-536575D02*
G54D15*
D03*
X1395412Y-301625D02*
G54D15*
D03*
%LPD*%
G54D16*
G36*
X599281Y-400686D02*
X613781Y-400686D01*
X613781Y-407352D01*
X599281Y-407352D01*
X599281Y-400686D01*
G37*
G36*
X602615Y-404019D02*
X602615Y-418519D01*
X595948Y-418519D01*
X595948Y-404019D01*
X602615Y-404019D01*
G37*
G54D16*
G36*
X595948Y-582612D02*
X595948Y-568112D01*
X602615Y-568112D01*
X602615Y-582612D01*
X595948Y-582612D01*
G37*
G36*
X599281Y-579279D02*
X613781Y-579279D01*
X613781Y-585946D01*
X599281Y-585946D01*
X599281Y-579279D01*
G37*
G36*
X602615Y-582612D02*
X602615Y-597112D01*
X595948Y-597112D01*
X595948Y-582612D01*
X602615Y-582612D01*
G37*
G36*
X599281Y-585946D02*
X584781Y-585946D01*
X584781Y-579279D01*
X599281Y-579279D01*
X599281Y-585946D01*
G37*
G54D16*
G36*
X128863Y-30255D02*
X128863Y-13755D01*
X135530Y-13755D01*
X135530Y-30255D01*
X128863Y-30255D01*
G37*
G54D17*
G54D18*
G36*
X494103Y-108749D02*
X494103Y-123249D01*
X486436Y-123249D01*
X486436Y-108749D01*
X494103Y-108749D01*
G37*
G36*
X490269Y-112582D02*
X475769Y-112582D01*
X475769Y-104915D01*
X490269Y-104915D01*
X490269Y-112582D01*
G37*
G36*
X486436Y-108749D02*
X486436Y-94249D01*
X494103Y-94249D01*
X494103Y-108749D01*
X486436Y-108749D01*
G37*
G36*
X490269Y-104915D02*
X504769Y-104915D01*
X504769Y-112582D01*
X490269Y-112582D01*
X490269Y-104915D01*
G37*
G54D18*
G36*
X274053Y-46074D02*
X274053Y-60574D01*
X266386Y-60574D01*
X266386Y-46074D01*
X274053Y-46074D01*
G37*
G36*
X270219Y-49907D02*
X255719Y-49907D01*
X255719Y-42240D01*
X270219Y-42240D01*
X270219Y-49907D01*
G37*
G36*
X266386Y-46074D02*
X266386Y-31574D01*
X274053Y-31574D01*
X274053Y-46074D01*
X266386Y-46074D01*
G37*
G36*
X270219Y-42240D02*
X284719Y-42240D01*
X284719Y-49907D01*
X270219Y-49907D01*
X270219Y-42240D01*
G37*
G54D18*
G36*
X238927Y-136536D02*
X238927Y-151036D01*
X231260Y-151036D01*
X231260Y-136536D01*
X238927Y-136536D01*
G37*
G36*
X235094Y-140369D02*
X220594Y-140369D01*
X220594Y-132703D01*
X235094Y-132703D01*
X235094Y-140369D01*
G37*
G36*
X231260Y-136536D02*
X231260Y-122036D01*
X238927Y-122036D01*
X238927Y-136536D01*
X231260Y-136536D01*
G37*
G36*
X235094Y-132703D02*
X249594Y-132703D01*
X249594Y-140369D01*
X235094Y-140369D01*
X235094Y-132703D01*
G37*
G54D19*
G36*
X243660Y-136536D02*
X243660Y-151036D01*
X226527Y-151036D01*
X226527Y-136536D01*
X243660Y-136536D01*
G37*
G36*
X235094Y-145103D02*
X220594Y-145103D01*
X220594Y-127969D01*
X235094Y-127969D01*
X235094Y-145103D01*
G37*
G36*
X226527Y-136536D02*
X226527Y-122036D01*
X243660Y-122036D01*
X243660Y-136536D01*
X226527Y-136536D01*
G37*
G36*
X235094Y-127969D02*
X249594Y-127969D01*
X249594Y-145103D01*
X235094Y-145103D01*
X235094Y-127969D01*
G37*
G54D19*
G36*
X487837Y-334558D02*
X502337Y-334558D01*
X502337Y-351691D01*
X487837Y-351691D01*
X487837Y-334558D01*
G37*
G36*
X496404Y-343124D02*
X496404Y-357624D01*
X479270Y-357624D01*
X479270Y-343124D01*
X496404Y-343124D01*
G37*
G36*
X487837Y-351691D02*
X473337Y-351691D01*
X473337Y-334558D01*
X487837Y-334558D01*
X487837Y-351691D01*
G37*
G36*
X479270Y-343124D02*
X479270Y-328624D01*
X496404Y-328624D01*
X496404Y-343124D01*
X479270Y-343124D01*
G37*
G54D19*
G36*
X491641Y-570136D02*
X491641Y-584636D01*
X474508Y-584636D01*
X474508Y-570136D01*
X491641Y-570136D01*
G37*
G36*
X483074Y-578703D02*
X468574Y-578703D01*
X468574Y-561570D01*
X483074Y-561570D01*
X483074Y-578703D01*
G37*
G36*
X474508Y-570136D02*
X474508Y-555636D01*
X491641Y-555636D01*
X491641Y-570136D01*
X474508Y-570136D01*
G37*
G36*
X483074Y-561570D02*
X497574Y-561570D01*
X497574Y-578703D01*
X483074Y-578703D01*
X483074Y-561570D01*
G37*
G54D19*
G36*
X968011Y-609159D02*
X978264Y-619412D01*
X966149Y-631527D01*
X955896Y-621274D01*
X968011Y-609159D01*
G37*
G36*
X968011Y-621274D02*
X957758Y-631527D01*
X945642Y-619412D01*
X955896Y-609159D01*
X968011Y-621274D01*
G37*
G36*
X955896Y-621274D02*
X945642Y-611021D01*
X957758Y-598906D01*
X968011Y-609159D01*
X955896Y-621274D01*
G37*
G36*
X955896Y-609159D02*
X966149Y-598906D01*
X978264Y-611021D01*
X968011Y-621274D01*
X955896Y-609159D01*
G37*
G54D19*
G36*
X1109719Y-482939D02*
X1109719Y-497439D01*
X1092586Y-497439D01*
X1092586Y-482939D01*
X1109719Y-482939D01*
G37*
G36*
X1101152Y-491506D02*
X1086652Y-491506D01*
X1086652Y-474373D01*
X1101152Y-474373D01*
X1101152Y-491506D01*
G37*
G36*
X1092586Y-482939D02*
X1092586Y-468439D01*
X1109719Y-468439D01*
X1109719Y-482939D01*
X1092586Y-482939D01*
G37*
G36*
X1101152Y-474373D02*
X1115652Y-474373D01*
X1115652Y-491506D01*
X1101152Y-491506D01*
X1101152Y-474373D01*
G37*
G54D19*
G36*
X1109719Y-482939D02*
X1109719Y-497439D01*
X1092586Y-497439D01*
X1092586Y-482939D01*
X1109719Y-482939D01*
G37*
G36*
X1101152Y-491506D02*
X1086652Y-491506D01*
X1086652Y-474373D01*
X1101152Y-474373D01*
X1101152Y-491506D01*
G37*
G36*
X1092586Y-482939D02*
X1092586Y-468439D01*
X1109719Y-468439D01*
X1109719Y-482939D01*
X1092586Y-482939D01*
G37*
G36*
X1101152Y-474373D02*
X1115652Y-474373D01*
X1115652Y-491506D01*
X1101152Y-491506D01*
X1101152Y-474373D01*
G37*
G54D19*
G36*
X1413504Y-579437D02*
X1413504Y-593937D01*
X1396371Y-593937D01*
X1396371Y-579437D01*
X1413504Y-579437D01*
G37*
G36*
X1404938Y-588004D02*
X1390438Y-588004D01*
X1390438Y-570870D01*
X1404938Y-570870D01*
X1404938Y-588004D01*
G37*
G36*
X1396371Y-579437D02*
X1396371Y-564937D01*
X1413504Y-564937D01*
X1413504Y-579437D01*
X1396371Y-579437D01*
G37*
G36*
X1404938Y-570870D02*
X1419438Y-570870D01*
X1419438Y-588004D01*
X1404938Y-588004D01*
X1404938Y-570870D01*
G37*
G54D18*
G36*
X178324Y-110121D02*
X178324Y-95621D01*
X185990Y-95621D01*
X185990Y-110121D01*
X178324Y-110121D01*
G37*
G36*
X182157Y-106288D02*
X196657Y-106288D01*
X196657Y-113954D01*
X182157Y-113954D01*
X182157Y-106288D01*
G37*
G36*
X185990Y-110121D02*
X185990Y-124621D01*
X178324Y-124621D01*
X178324Y-110121D01*
X185990Y-110121D01*
G37*
G36*
X182157Y-113954D02*
X167657Y-113954D01*
X167657Y-106288D01*
X182157Y-106288D01*
X182157Y-113954D01*
G37*
G54D18*
G36*
X351361Y-99009D02*
X351361Y-84509D01*
X359028Y-84509D01*
X359028Y-99009D01*
X351361Y-99009D01*
G37*
G36*
X355194Y-95175D02*
X369694Y-95175D01*
X369694Y-102842D01*
X355194Y-102842D01*
X355194Y-95175D01*
G37*
G36*
X359028Y-99009D02*
X359028Y-113509D01*
X351361Y-113509D01*
X351361Y-99009D01*
X359028Y-99009D01*
G37*
G36*
X355194Y-102842D02*
X340694Y-102842D01*
X340694Y-95175D01*
X355194Y-95175D01*
X355194Y-102842D01*
G37*
G54D18*
G36*
X400852Y-131774D02*
X400852Y-146274D01*
X393185Y-146274D01*
X393185Y-131774D01*
X400852Y-131774D01*
G37*
G36*
X397019Y-135607D02*
X382519Y-135607D01*
X382519Y-127940D01*
X397019Y-127940D01*
X397019Y-135607D01*
G37*
G36*
X393185Y-131774D02*
X393185Y-117274D01*
X400852Y-117274D01*
X400852Y-131774D01*
X393185Y-131774D01*
G37*
G36*
X397019Y-127940D02*
X411519Y-127940D01*
X411519Y-135607D01*
X397019Y-135607D01*
X397019Y-127940D01*
G37*
G54D19*
G36*
X405585Y-131774D02*
X405585Y-146274D01*
X388452Y-146274D01*
X388452Y-131774D01*
X405585Y-131774D01*
G37*
G36*
X397019Y-140340D02*
X382519Y-140340D01*
X382519Y-123207D01*
X397019Y-123207D01*
X397019Y-140340D01*
G37*
G36*
X388452Y-131774D02*
X388452Y-117274D01*
X405585Y-117274D01*
X405585Y-131774D01*
X388452Y-131774D01*
G37*
G36*
X397019Y-123207D02*
X411519Y-123207D01*
X411519Y-140340D01*
X397019Y-140340D01*
X397019Y-123207D01*
G37*
G54D18*
G36*
X635390Y-102399D02*
X635390Y-116899D01*
X627723Y-116899D01*
X627723Y-102399D01*
X635390Y-102399D01*
G37*
G36*
X631557Y-106232D02*
X617057Y-106232D01*
X617057Y-98565D01*
X631557Y-98565D01*
X631557Y-106232D01*
G37*
G36*
X627723Y-102399D02*
X627723Y-87899D01*
X635390Y-87899D01*
X635390Y-102399D01*
X627723Y-102399D01*
G37*
G36*
X631557Y-98565D02*
X646057Y-98565D01*
X646057Y-106232D01*
X631557Y-106232D01*
X631557Y-98565D01*
G37*
G54D19*
G36*
X437629Y-401351D02*
X437629Y-415851D01*
X420495Y-415851D01*
X420495Y-401351D01*
X437629Y-401351D01*
G37*
G36*
X429062Y-409918D02*
X414562Y-409918D01*
X414562Y-392785D01*
X429062Y-392785D01*
X429062Y-409918D01*
G37*
G36*
X420495Y-401351D02*
X420495Y-386851D01*
X437629Y-386851D01*
X437629Y-401351D01*
X420495Y-401351D01*
G37*
G36*
X429062Y-392785D02*
X443562Y-392785D01*
X443562Y-409918D01*
X429062Y-409918D01*
X429062Y-392785D01*
G37*
G54D19*
G36*
X439266Y-494964D02*
X439266Y-509464D01*
X422133Y-509464D01*
X422133Y-494964D01*
X439266Y-494964D01*
G37*
G36*
X430700Y-503530D02*
X416200Y-503530D01*
X416200Y-486397D01*
X430700Y-486397D01*
X430700Y-503530D01*
G37*
G36*
X422133Y-494964D02*
X422133Y-480464D01*
X439266Y-480464D01*
X439266Y-494964D01*
X422133Y-494964D01*
G37*
G36*
X430700Y-486397D02*
X445200Y-486397D01*
X445200Y-503530D01*
X430700Y-503530D01*
X430700Y-486397D01*
G37*
G54D19*
G36*
X884488Y-87967D02*
X884488Y-102467D01*
X867355Y-102467D01*
X867355Y-87967D01*
X884488Y-87967D01*
G37*
G36*
X875922Y-96534D02*
X861422Y-96534D01*
X861422Y-79400D01*
X875922Y-79400D01*
X875922Y-96534D01*
G37*
G36*
X867355Y-87967D02*
X867355Y-73467D01*
X884488Y-73467D01*
X884488Y-87967D01*
X867355Y-87967D01*
G37*
G36*
X875922Y-79400D02*
X890422Y-79400D01*
X890422Y-96534D01*
X875922Y-96534D01*
X875922Y-79400D01*
G37*
G54D20*
G36*
X151696Y-539750D02*
X151696Y-525250D01*
X162630Y-525250D01*
X162630Y-539750D01*
X151696Y-539750D01*
G37*
G36*
X157163Y-534283D02*
X171663Y-534283D01*
X171663Y-545217D01*
X157163Y-545217D01*
X157163Y-534283D01*
G37*
G36*
X162630Y-539750D02*
X162630Y-554250D01*
X151696Y-554250D01*
X151696Y-539750D01*
X162630Y-539750D01*
G37*
G36*
X157163Y-545217D02*
X142663Y-545217D01*
X142663Y-534283D01*
X157163Y-534283D01*
X157163Y-545217D01*
G37*
G54D21*
G36*
X150708Y-495300D02*
X150708Y-480800D01*
X160442Y-480800D01*
X160442Y-495300D01*
X150708Y-495300D01*
G37*
G36*
X155575Y-490433D02*
X170075Y-490433D01*
X170075Y-500167D01*
X155575Y-500167D01*
X155575Y-490433D01*
G37*
G36*
X160442Y-495300D02*
X160442Y-509800D01*
X150708Y-509800D01*
X150708Y-495300D01*
X160442Y-495300D01*
G37*
G36*
X155575Y-500167D02*
X141075Y-500167D01*
X141075Y-490433D01*
X155575Y-490433D01*
X155575Y-500167D01*
G37*
G54D22*
G36*
X34202Y-444431D02*
X34202Y-428931D01*
X41535Y-428931D01*
X41535Y-444431D01*
X34202Y-444431D01*
G37*
G36*
X37869Y-440765D02*
X53369Y-440765D01*
X53369Y-448098D01*
X37869Y-448098D01*
X37869Y-440765D01*
G37*
G36*
X41535Y-444431D02*
X41535Y-459931D01*
X34202Y-459931D01*
X34202Y-444431D01*
X41535Y-444431D01*
G37*
G36*
X37869Y-448098D02*
X22369Y-448098D01*
X22369Y-440765D01*
X37869Y-440765D01*
X37869Y-448098D01*
G37*
G54D22*
G36*
X85002Y-444431D02*
X85002Y-428931D01*
X92335Y-428931D01*
X92335Y-444431D01*
X85002Y-444431D01*
G37*
G36*
X88669Y-440765D02*
X104169Y-440765D01*
X104169Y-448098D01*
X88669Y-448098D01*
X88669Y-440765D01*
G37*
G36*
X92335Y-444431D02*
X92335Y-459931D01*
X85002Y-459931D01*
X85002Y-444431D01*
X92335Y-444431D01*
G37*
G36*
X88669Y-448098D02*
X73169Y-448098D01*
X73169Y-440765D01*
X88669Y-440765D01*
X88669Y-448098D01*
G37*
G54D22*
G36*
X85002Y-495231D02*
X85002Y-479731D01*
X92335Y-479731D01*
X92335Y-495231D01*
X85002Y-495231D01*
G37*
G36*
X88669Y-491565D02*
X104169Y-491565D01*
X104169Y-498898D01*
X88669Y-498898D01*
X88669Y-491565D01*
G37*
G36*
X92335Y-495231D02*
X92335Y-510731D01*
X85002Y-510731D01*
X85002Y-495231D01*
X92335Y-495231D01*
G37*
G36*
X88669Y-498898D02*
X73169Y-498898D01*
X73169Y-491565D01*
X88669Y-491565D01*
X88669Y-498898D01*
G37*
G54D22*
G36*
X34202Y-495231D02*
X34202Y-479731D01*
X41535Y-479731D01*
X41535Y-495231D01*
X34202Y-495231D01*
G37*
G36*
X37869Y-491565D02*
X53369Y-491565D01*
X53369Y-498898D01*
X37869Y-498898D01*
X37869Y-491565D01*
G37*
G36*
X41535Y-495231D02*
X41535Y-510731D01*
X34202Y-510731D01*
X34202Y-495231D01*
X41535Y-495231D01*
G37*
G36*
X37869Y-498898D02*
X22369Y-498898D01*
X22369Y-491565D01*
X37869Y-491565D01*
X37869Y-498898D01*
G37*
G54D19*
G36*
X1413504Y-550862D02*
X1413504Y-565362D01*
X1396371Y-565362D01*
X1396371Y-550862D01*
X1413504Y-550862D01*
G37*
G36*
X1404938Y-559429D02*
X1390438Y-559429D01*
X1390438Y-542295D01*
X1404938Y-542295D01*
X1404938Y-559429D01*
G37*
G36*
X1396371Y-550862D02*
X1396371Y-536362D01*
X1413504Y-536362D01*
X1413504Y-550862D01*
X1396371Y-550862D01*
G37*
G36*
X1404938Y-542295D02*
X1419438Y-542295D01*
X1419438Y-559429D01*
X1404938Y-559429D01*
X1404938Y-542295D01*
G37*
G54D22*
G36*
X1467715Y-422206D02*
X1467715Y-406706D01*
X1475048Y-406706D01*
X1475048Y-422206D01*
X1467715Y-422206D01*
G37*
G36*
X1471381Y-418540D02*
X1486881Y-418540D01*
X1486881Y-425873D01*
X1471381Y-425873D01*
X1471381Y-418540D01*
G37*
G36*
X1475048Y-422206D02*
X1475048Y-437706D01*
X1467715Y-437706D01*
X1467715Y-422206D01*
X1475048Y-422206D01*
G37*
G36*
X1471381Y-425873D02*
X1455881Y-425873D01*
X1455881Y-418540D01*
X1471381Y-418540D01*
X1471381Y-425873D01*
G37*
G54D22*
G36*
X1518515Y-422206D02*
X1518515Y-406706D01*
X1525848Y-406706D01*
X1525848Y-422206D01*
X1518515Y-422206D01*
G37*
G36*
X1522181Y-418540D02*
X1537681Y-418540D01*
X1537681Y-425873D01*
X1522181Y-425873D01*
X1522181Y-418540D01*
G37*
G36*
X1525848Y-422206D02*
X1525848Y-437706D01*
X1518515Y-437706D01*
X1518515Y-422206D01*
X1525848Y-422206D01*
G37*
G36*
X1522181Y-425873D02*
X1506681Y-425873D01*
X1506681Y-418540D01*
X1522181Y-418540D01*
X1522181Y-425873D01*
G37*
G54D22*
G36*
X1518515Y-473006D02*
X1518515Y-457506D01*
X1525848Y-457506D01*
X1525848Y-473006D01*
X1518515Y-473006D01*
G37*
G36*
X1522181Y-469340D02*
X1537681Y-469340D01*
X1537681Y-476673D01*
X1522181Y-476673D01*
X1522181Y-469340D01*
G37*
G36*
X1525848Y-473006D02*
X1525848Y-488506D01*
X1518515Y-488506D01*
X1518515Y-473006D01*
X1525848Y-473006D01*
G37*
G36*
X1522181Y-476673D02*
X1506681Y-476673D01*
X1506681Y-469340D01*
X1522181Y-469340D01*
X1522181Y-476673D01*
G37*
G54D22*
G36*
X1467715Y-473006D02*
X1467715Y-457506D01*
X1475048Y-457506D01*
X1475048Y-473006D01*
X1467715Y-473006D01*
G37*
G36*
X1471381Y-469340D02*
X1486881Y-469340D01*
X1486881Y-476673D01*
X1471381Y-476673D01*
X1471381Y-469340D01*
G37*
G36*
X1475048Y-473006D02*
X1475048Y-488506D01*
X1467715Y-488506D01*
X1467715Y-473006D01*
X1475048Y-473006D01*
G37*
G36*
X1471381Y-476673D02*
X1455881Y-476673D01*
X1455881Y-469340D01*
X1471381Y-469340D01*
X1471381Y-476673D01*
G37*
G54D16*
G36*
X29212Y-195932D02*
X29212Y-181432D01*
X35879Y-181432D01*
X35879Y-195932D01*
X29212Y-195932D01*
G37*
G36*
X32545Y-192598D02*
X47045Y-192598D01*
X47045Y-199265D01*
X32545Y-199265D01*
X32545Y-192598D01*
G37*
G36*
X35879Y-195932D02*
X35879Y-210432D01*
X29212Y-210432D01*
X29212Y-195932D01*
X35879Y-195932D01*
G37*
G36*
X32545Y-199265D02*
X18045Y-199265D01*
X18045Y-192598D01*
X32545Y-192598D01*
X32545Y-199265D01*
G37*
G54D16*
G36*
X27624Y-611857D02*
X27624Y-597357D01*
X34291Y-597357D01*
X34291Y-611857D01*
X27624Y-611857D01*
G37*
G36*
X30958Y-608523D02*
X45458Y-608523D01*
X45458Y-615190D01*
X30958Y-615190D01*
X30958Y-608523D01*
G37*
G36*
X34291Y-611857D02*
X34291Y-626357D01*
X27624Y-626357D01*
X27624Y-611857D01*
X34291Y-611857D01*
G37*
G36*
X30958Y-615190D02*
X16458Y-615190D01*
X16458Y-608523D01*
X30958Y-608523D01*
X30958Y-615190D01*
G37*
G54D16*
G36*
X1513524Y-151482D02*
X1513524Y-136982D01*
X1520191Y-136982D01*
X1520191Y-151482D01*
X1513524Y-151482D01*
G37*
G36*
X1516858Y-148148D02*
X1531358Y-148148D01*
X1531358Y-154815D01*
X1516858Y-154815D01*
X1516858Y-148148D01*
G37*
G36*
X1520191Y-151482D02*
X1520191Y-165982D01*
X1513524Y-165982D01*
X1513524Y-151482D01*
X1520191Y-151482D01*
G37*
G36*
X1516858Y-154815D02*
X1502358Y-154815D01*
X1502358Y-148148D01*
X1516858Y-148148D01*
X1516858Y-154815D01*
G37*
G54D16*
G36*
X1511937Y-621382D02*
X1511937Y-606882D01*
X1518604Y-606882D01*
X1518604Y-621382D01*
X1511937Y-621382D01*
G37*
G36*
X1515270Y-618048D02*
X1529770Y-618048D01*
X1529770Y-624715D01*
X1515270Y-624715D01*
X1515270Y-618048D01*
G37*
G36*
X1518604Y-621382D02*
X1518604Y-635882D01*
X1511937Y-635882D01*
X1511937Y-621382D01*
X1518604Y-621382D01*
G37*
G36*
X1515270Y-624715D02*
X1500770Y-624715D01*
X1500770Y-618048D01*
X1515270Y-618048D01*
X1515270Y-624715D01*
G37*
G54D16*
G36*
X389574Y-754732D02*
X389574Y-740232D01*
X396241Y-740232D01*
X396241Y-754732D01*
X389574Y-754732D01*
G37*
G36*
X392908Y-751398D02*
X407408Y-751398D01*
X407408Y-758065D01*
X392908Y-758065D01*
X392908Y-751398D01*
G37*
G36*
X396241Y-754732D02*
X396241Y-769232D01*
X389574Y-769232D01*
X389574Y-754732D01*
X396241Y-754732D01*
G37*
G36*
X392908Y-758065D02*
X378408Y-758065D01*
X378408Y-751398D01*
X392908Y-751398D01*
X392908Y-758065D01*
G37*
G54D16*
G36*
X708662Y-756319D02*
X708662Y-741819D01*
X715329Y-741819D01*
X715329Y-756319D01*
X708662Y-756319D01*
G37*
G36*
X711995Y-752986D02*
X726495Y-752986D01*
X726495Y-759652D01*
X711995Y-759652D01*
X711995Y-752986D01*
G37*
G36*
X715329Y-756319D02*
X715329Y-770819D01*
X708662Y-770819D01*
X708662Y-756319D01*
X715329Y-756319D01*
G37*
G36*
X711995Y-759652D02*
X697495Y-759652D01*
X697495Y-752986D01*
X711995Y-752986D01*
X711995Y-759652D01*
G37*
G54D16*
G36*
X1096012Y-754732D02*
X1096012Y-740232D01*
X1102679Y-740232D01*
X1102679Y-754732D01*
X1096012Y-754732D01*
G37*
G36*
X1099345Y-751398D02*
X1113845Y-751398D01*
X1113845Y-758065D01*
X1099345Y-758065D01*
X1099345Y-751398D01*
G37*
G36*
X1102679Y-754732D02*
X1102679Y-769232D01*
X1096012Y-769232D01*
X1096012Y-754732D01*
X1102679Y-754732D01*
G37*
G36*
X1099345Y-758065D02*
X1084845Y-758065D01*
X1084845Y-751398D01*
X1099345Y-751398D01*
X1099345Y-758065D01*
G37*
G54D16*
G36*
X1305562Y-32419D02*
X1305562Y-17919D01*
X1312229Y-17919D01*
X1312229Y-32419D01*
X1305562Y-32419D01*
G37*
G36*
X1308895Y-29086D02*
X1323395Y-29086D01*
X1323395Y-35753D01*
X1308895Y-35753D01*
X1308895Y-29086D01*
G37*
G36*
X1312229Y-32419D02*
X1312229Y-46919D01*
X1305562Y-46919D01*
X1305562Y-32419D01*
X1312229Y-32419D01*
G37*
G36*
X1308895Y-35753D02*
X1294395Y-35753D01*
X1294395Y-29086D01*
X1308895Y-29086D01*
X1308895Y-35753D01*
G37*
G54D16*
G36*
X905050Y-35812D02*
X905050Y-19312D01*
X911717Y-19312D01*
X911717Y-35812D01*
X905050Y-35812D01*
G37*
G54D17*
X490269Y-45249D02*
G54D23*
D03*
X490269Y-108749D02*
G54D23*
D03*
X550594Y-76999D02*
G54D23*
D03*
G36*
X589281Y-355919D02*
X609281Y-355919D01*
X609281Y-375919D01*
X589281Y-375919D01*
X589281Y-355919D01*
G37*
G36*
X589281Y-394019D02*
X609281Y-394019D01*
X609281Y-414019D01*
X589281Y-414019D01*
X589281Y-394019D01*
G37*
G36*
X589281Y-320994D02*
X609281Y-320994D01*
X609281Y-340994D01*
X589281Y-340994D01*
X589281Y-320994D01*
G37*
G36*
X589281Y-540069D02*
X609281Y-540069D01*
X609281Y-560069D01*
X589281Y-560069D01*
X589281Y-540069D01*
G37*
G36*
X589281Y-572612D02*
X609281Y-572612D01*
X609281Y-592612D01*
X589281Y-592612D01*
X589281Y-572612D01*
G37*
G36*
X589281Y-507525D02*
X609281Y-507525D01*
X609281Y-527525D01*
X589281Y-527525D01*
X589281Y-507525D01*
G37*
X132196Y-30255D02*
G54D23*
D03*
X157696Y-30255D02*
G54D23*
D03*
X490269Y-108749D02*
G54D23*
D03*
X244819Y-46074D02*
G54D23*
D03*
X270219Y-46074D02*
G54D23*
D03*
X295619Y-46074D02*
G54D23*
D03*
X235206Y-85555D02*
G54D23*
D03*
X235094Y-136536D02*
G54D23*
D03*
X270219Y-46074D02*
G54D23*
D03*
X235094Y-136536D02*
G54D23*
D03*
X235094Y-136536D02*
G54D23*
D03*
G36*
X899112Y-390025D02*
X919112Y-390025D01*
X919112Y-410025D01*
X899112Y-410025D01*
X899112Y-390025D01*
G37*
G36*
X892762Y-537662D02*
X912762Y-537662D01*
X912762Y-557662D01*
X892762Y-557662D01*
X892762Y-537662D01*
G37*
G36*
X1035638Y-385262D02*
X1055638Y-385262D01*
X1055638Y-405262D01*
X1035638Y-405262D01*
X1035638Y-385262D01*
G37*
X564087Y-343175D02*
G54D23*
D03*
X487837Y-343124D02*
G54D23*
D03*
X559324Y-570187D02*
G54D23*
D03*
X483074Y-570136D02*
G54D23*
D03*
X487837Y-343124D02*
G54D23*
D03*
X483074Y-570136D02*
G54D23*
D03*
X549076Y-301374D02*
G54D23*
D03*
X498096Y-301486D02*
G54D23*
D03*
X542727Y-528386D02*
G54D23*
D03*
X491746Y-528499D02*
G54D23*
D03*
X429062Y-401351D02*
G54D23*
D03*
X429112Y-325101D02*
G54D23*
D03*
X430650Y-571214D02*
G54D23*
D03*
X430700Y-494964D02*
G54D23*
D03*
X479227Y-252161D02*
G54D23*
D03*
X428246Y-252274D02*
G54D23*
D03*
X482402Y-645862D02*
G54D23*
D03*
X431421Y-645974D02*
G54D23*
D03*
X1136452Y-310899D02*
G54D23*
D03*
X1085471Y-311011D02*
G54D23*
D03*
G36*
X1194912Y-329724D02*
X1214912Y-329724D01*
X1214912Y-349724D01*
X1194912Y-349724D01*
X1194912Y-329724D01*
G37*
G36*
X1394938Y-328137D02*
X1414938Y-328137D01*
X1414938Y-348137D01*
X1394938Y-348137D01*
X1394938Y-328137D01*
G37*
X1404938Y-579437D02*
G54D24*
D03*
X925825Y-579247D02*
G54D23*
D03*
X961953Y-615216D02*
G54D23*
D03*
X961953Y-615216D02*
G54D23*
D03*
G36*
X1035638Y-537662D02*
X1055638Y-537662D01*
X1055638Y-557662D01*
X1035638Y-557662D01*
X1035638Y-537662D01*
G37*
X1131689Y-610936D02*
G54D23*
D03*
X1080709Y-611049D02*
G54D23*
D03*
X1101040Y-431959D02*
G54D23*
D03*
X1101152Y-482939D02*
G54D23*
D03*
X1101152Y-482939D02*
G54D23*
D03*
X1101152Y-482939D02*
G54D23*
D03*
G36*
X1194912Y-567850D02*
X1214912Y-567850D01*
X1214912Y-587850D01*
X1194912Y-587850D01*
X1194912Y-567850D01*
G37*
G36*
X1414938Y-589437D02*
X1394938Y-589437D01*
X1394938Y-569437D01*
X1414938Y-569437D01*
X1414938Y-589437D01*
G37*
X182157Y-110121D02*
G54D23*
D03*
X138326Y-110121D02*
G54D23*
D03*
X182157Y-110121D02*
G54D23*
D03*
X355194Y-99009D02*
G54D23*
D03*
X311363Y-99009D02*
G54D23*
D03*
X355194Y-99009D02*
G54D23*
D03*
X397131Y-80793D02*
G54D23*
D03*
X397019Y-131774D02*
G54D23*
D03*
X397019Y-131774D02*
G54D23*
D03*
X397019Y-131774D02*
G54D23*
D03*
X631557Y-38899D02*
G54D23*
D03*
X631557Y-102399D02*
G54D23*
D03*
X691882Y-70649D02*
G54D23*
D03*
X631557Y-102399D02*
G54D23*
D03*
X429062Y-401351D02*
G54D23*
D03*
X430700Y-494964D02*
G54D23*
D03*
X564087Y-460649D02*
G54D23*
D03*
X487791Y-460591D02*
G54D23*
D03*
X559325Y-387624D02*
G54D23*
D03*
X483075Y-387574D02*
G54D23*
D03*
X926902Y-87855D02*
G54D23*
D03*
X875922Y-87967D02*
G54D23*
D03*
X875922Y-87967D02*
G54D23*
D03*
X1156616Y-57496D02*
G54D23*
D03*
X1055688Y-54769D02*
G54D23*
D03*
G36*
X145575Y-372588D02*
X165575Y-372588D01*
X165575Y-392588D01*
X145575Y-392588D01*
X145575Y-372588D01*
G37*
G36*
X147163Y-529750D02*
X167163Y-529750D01*
X167163Y-549750D01*
X147163Y-549750D01*
X147163Y-529750D01*
G37*
G36*
X347188Y-398782D02*
X367188Y-398782D01*
X367188Y-418782D01*
X347188Y-418782D01*
X347188Y-398782D01*
G37*
G36*
X345600Y-487682D02*
X365600Y-487682D01*
X365600Y-507682D01*
X345600Y-507682D01*
X345600Y-487682D01*
G37*
G36*
X144781Y-421800D02*
X164781Y-421800D01*
X164781Y-441800D01*
X144781Y-441800D01*
X144781Y-421800D01*
G37*
G36*
X145575Y-485300D02*
X165575Y-485300D01*
X165575Y-505300D01*
X145575Y-505300D01*
X145575Y-485300D01*
G37*
G54D25*
X1156616Y-57496D02*
X1157288Y-60326D01*
X928688Y-288926D01*
X928688Y-409576D01*
X903288Y-434976D01*
X903288Y-549276D01*
X902762Y-547662D01*
G54D25*
X1156616Y-57496D02*
X1157288Y-60326D01*
X1042988Y-174626D01*
X1042988Y-396876D01*
X1045638Y-395262D01*
G54D25*
X483074Y-387574D02*
X484188Y-390526D01*
X528638Y-346076D01*
X528638Y-295276D01*
X547688Y-276226D01*
X547688Y-79376D01*
X550594Y-76998D01*
G54D25*
X487792Y-460590D02*
X490538Y-460376D01*
X547688Y-403226D01*
X573088Y-403226D01*
X579438Y-396876D01*
X579438Y-390526D01*
X585788Y-384176D01*
X611188Y-384176D01*
X647700Y-227013D01*
X717550Y-223838D01*
X693738Y-73026D01*
X691882Y-70648D01*
X37869Y-444431D02*
G54D26*
D03*
X88669Y-444431D02*
G54D26*
D03*
X63269Y-469831D02*
G54D26*
D03*
X88669Y-495231D02*
G54D26*
D03*
X37869Y-495231D02*
G54D26*
D03*
G36*
X1394938Y-367824D02*
X1414938Y-367824D01*
X1414938Y-387824D01*
X1394938Y-387824D01*
X1394938Y-367824D01*
G37*
G36*
X1414938Y-560862D02*
X1394938Y-560862D01*
X1394938Y-540862D01*
X1414938Y-540862D01*
X1414938Y-560862D01*
G37*
X1471381Y-422206D02*
G54D26*
D03*
X1522181Y-422206D02*
G54D26*
D03*
X1496781Y-447606D02*
G54D26*
D03*
X1522181Y-473006D02*
G54D26*
D03*
X1471381Y-473006D02*
G54D26*
D03*
X25400Y-754062D02*
G54D27*
D03*
X28575Y-31750D02*
G54D27*
D03*
X1520825Y-36512D02*
G54D27*
D03*
X1522412Y-755809D02*
G54D27*
D03*
G36*
X22545Y-185932D02*
X42545Y-185932D01*
X42545Y-205932D01*
X22545Y-205932D01*
X22545Y-185932D01*
G37*
G36*
X20958Y-601857D02*
X40958Y-601857D01*
X40958Y-621857D01*
X20958Y-621857D01*
X20958Y-601857D01*
G37*
G36*
X1506858Y-141482D02*
X1526858Y-141482D01*
X1526858Y-161482D01*
X1506858Y-161482D01*
X1506858Y-141482D01*
G37*
G36*
X1505270Y-611382D02*
X1525270Y-611382D01*
X1525270Y-631382D01*
X1505270Y-631382D01*
X1505270Y-611382D01*
G37*
G36*
X382908Y-744732D02*
X402908Y-744732D01*
X402908Y-764732D01*
X382908Y-764732D01*
X382908Y-744732D01*
G37*
G36*
X701995Y-746319D02*
X721995Y-746319D01*
X721995Y-766319D01*
X701995Y-766319D01*
X701995Y-746319D01*
G37*
G36*
X1089345Y-744732D02*
X1109345Y-744732D01*
X1109345Y-764732D01*
X1089345Y-764732D01*
X1089345Y-744732D01*
G37*
G36*
X1298895Y-22419D02*
X1318895Y-22419D01*
X1318895Y-42419D01*
X1298895Y-42419D01*
X1298895Y-22419D01*
G37*
X908384Y-35812D02*
G54D23*
D03*
X933884Y-35812D02*
G54D23*
D03*
X1220788Y-298450D02*
G54D28*
D03*
X346075Y-371475D02*
G54D28*
D03*
X350044Y-536575D02*
G54D28*
D03*
X1395412Y-301625D02*
G54D28*
D03*
M02*
