%FSLAX34Y34*%
%MOMM*%
%LNCOPPER_TOP*%
G71*
G01*
%ADD10C,3.200*%
%ADD11C,3.000*%
%ADD12C,1.600*%
%ADD13C,3.000*%
%ADD14C,2.800*%
%ADD15C,3.200*%
%ADD16C,0.667*%
%ADD17C,0.813*%
%ADD18C,0.733*%
%ADD19C,1.380*%
%ADD20C,1.467*%
%ADD21C,1.447*%
%ADD22C,1.000*%
%ADD23C,2.230*%
%ADD24C,2.000*%
%ADD25C,1.800*%
%ADD26C,0.800*%
%ADD27C,2.200*%
%ADD28C,2.000*%
%ADD29C,3.000*%
%LPD*%
G36*
X-200000Y700000D02*
X800000Y700000D01*
X800000Y-200000D01*
X-200000Y-200000D01*
X-200000Y700000D01*
G37*
%LPC*%
X144829Y341175D02*
G54D10*
D03*
X144879Y417425D02*
G54D10*
D03*
X63836Y337775D02*
G54D10*
D03*
X63948Y286794D02*
G54D10*
D03*
X178135Y312375D02*
G54D10*
D03*
X178248Y261394D02*
G54D10*
D03*
X144845Y112575D02*
G54D10*
D03*
X144895Y188825D02*
G54D10*
D03*
X265566Y369189D02*
G54D10*
D03*
X189316Y369239D02*
G54D10*
D03*
X203225Y188825D02*
G54D10*
D03*
X203175Y112575D02*
G54D10*
D03*
X322629Y341174D02*
G54D10*
D03*
X322678Y417424D02*
G54D10*
D03*
X257889Y117607D02*
G54D10*
D03*
X257777Y168588D02*
G54D10*
D03*
X317525Y214225D02*
G54D10*
D03*
X317475Y137975D02*
G54D10*
D03*
X393725Y214225D02*
G54D10*
D03*
X393675Y137975D02*
G54D10*
D03*
X444525Y214225D02*
G54D10*
D03*
X444475Y137975D02*
G54D10*
D03*
X543997Y280269D02*
G54D10*
D03*
X493016Y280157D02*
G54D10*
D03*
X472542Y410993D02*
G54D10*
D03*
X396292Y411043D02*
G54D10*
D03*
X531975Y410475D02*
G54D10*
D03*
X557475Y410475D02*
G54D10*
D03*
X49375Y92975D02*
G54D10*
D03*
X74875Y92975D02*
G54D10*
D03*
X257200Y293600D02*
G54D11*
D03*
X241300Y276025D02*
G54D11*
D03*
X257235Y258409D02*
G54D11*
D03*
X358800Y293600D02*
G54D11*
D03*
X342900Y276025D02*
G54D11*
D03*
X358835Y258409D02*
G54D11*
D03*
X435000Y293600D02*
G54D11*
D03*
X419100Y276025D02*
G54D11*
D03*
X435035Y258409D02*
G54D11*
D03*
G54D12*
X444525Y214225D02*
X444500Y211150D01*
X393700Y211150D01*
X393725Y214225D01*
X38100Y217500D02*
G54D13*
D03*
X88900Y217500D02*
G54D13*
D03*
X63500Y192100D02*
G54D13*
D03*
X88900Y166700D02*
G54D13*
D03*
X38100Y166700D02*
G54D13*
D03*
X508000Y217500D02*
G54D13*
D03*
X558800Y217500D02*
G54D13*
D03*
X533400Y192100D02*
G54D13*
D03*
X558800Y166700D02*
G54D13*
D03*
X508000Y166700D02*
G54D13*
D03*
X476226Y352909D02*
G54D10*
D03*
X527206Y353022D02*
G54D10*
D03*
X144845Y112575D02*
G54D14*
D03*
X203175Y112575D02*
G54D14*
D03*
X317475Y137975D02*
G54D14*
D03*
X393675Y137975D02*
G54D14*
D03*
G36*
X135973Y487148D02*
X173973Y487148D01*
X173973Y449148D01*
X135973Y449148D01*
X135973Y487148D01*
G37*
G36*
X421723Y487148D02*
X459723Y487148D01*
X459723Y449148D01*
X421723Y449148D01*
X421723Y487148D01*
G37*
G36*
X134703Y45188D02*
X172703Y45188D01*
X172703Y7188D01*
X134703Y7188D01*
X134703Y45188D01*
G37*
G36*
X422993Y48998D02*
X460993Y48998D01*
X460993Y10998D01*
X422993Y10998D01*
X422993Y48998D01*
G37*
X24790Y471400D02*
G54D15*
D03*
X24790Y26900D02*
G54D15*
D03*
X574700Y26900D02*
G54D15*
D03*
X574700Y471400D02*
G54D15*
D03*
X523900Y471400D02*
G54D15*
D03*
X79400Y26900D02*
G54D15*
D03*
%LPD*%
G54D16*
G36*
X254556Y117607D02*
X254556Y134107D01*
X261223Y134107D01*
X261223Y117607D01*
X254556Y117607D01*
G37*
G54D16*
G36*
X528642Y410475D02*
X528642Y426975D01*
X535308Y426975D01*
X535308Y410475D01*
X528642Y410475D01*
G37*
G54D17*
G54D16*
G36*
X46042Y92975D02*
X46042Y109475D01*
X52708Y109475D01*
X52708Y92975D01*
X46042Y92975D01*
G37*
G54D17*
G54D18*
G36*
X34433Y217500D02*
X34433Y233000D01*
X41767Y233000D01*
X41767Y217500D01*
X34433Y217500D01*
G37*
G36*
X38100Y221167D02*
X53600Y221167D01*
X53600Y213833D01*
X38100Y213833D01*
X38100Y221167D01*
G37*
G36*
X41767Y217500D02*
X41767Y202000D01*
X34433Y202000D01*
X34433Y217500D01*
X41767Y217500D01*
G37*
G36*
X38100Y213833D02*
X22600Y213833D01*
X22600Y221167D01*
X38100Y221167D01*
X38100Y213833D01*
G37*
G54D18*
G36*
X85233Y217500D02*
X85233Y233000D01*
X92567Y233000D01*
X92567Y217500D01*
X85233Y217500D01*
G37*
G36*
X88900Y221167D02*
X104400Y221167D01*
X104400Y213833D01*
X88900Y213833D01*
X88900Y221167D01*
G37*
G36*
X92567Y217500D02*
X92567Y202000D01*
X85233Y202000D01*
X85233Y217500D01*
X92567Y217500D01*
G37*
G36*
X88900Y213833D02*
X73400Y213833D01*
X73400Y221167D01*
X88900Y221167D01*
X88900Y213833D01*
G37*
G54D18*
G36*
X85233Y166700D02*
X85233Y182200D01*
X92567Y182200D01*
X92567Y166700D01*
X85233Y166700D01*
G37*
G36*
X88900Y170367D02*
X104400Y170367D01*
X104400Y163033D01*
X88900Y163033D01*
X88900Y170367D01*
G37*
G36*
X92567Y166700D02*
X92567Y151200D01*
X85233Y151200D01*
X85233Y166700D01*
X92567Y166700D01*
G37*
G36*
X88900Y163033D02*
X73400Y163033D01*
X73400Y170367D01*
X88900Y170367D01*
X88900Y163033D01*
G37*
G54D18*
G36*
X34433Y166700D02*
X34433Y182200D01*
X41767Y182200D01*
X41767Y166700D01*
X34433Y166700D01*
G37*
G36*
X38100Y170367D02*
X53600Y170367D01*
X53600Y163033D01*
X38100Y163033D01*
X38100Y170367D01*
G37*
G36*
X41767Y166700D02*
X41767Y151200D01*
X34433Y151200D01*
X34433Y166700D01*
X41767Y166700D01*
G37*
G36*
X38100Y163033D02*
X22600Y163033D01*
X22600Y170367D01*
X38100Y170367D01*
X38100Y163033D01*
G37*
G54D18*
G36*
X504333Y217500D02*
X504333Y233000D01*
X511667Y233000D01*
X511667Y217500D01*
X504333Y217500D01*
G37*
G36*
X508000Y221167D02*
X523500Y221167D01*
X523500Y213833D01*
X508000Y213833D01*
X508000Y221167D01*
G37*
G36*
X511667Y217500D02*
X511667Y202000D01*
X504333Y202000D01*
X504333Y217500D01*
X511667Y217500D01*
G37*
G36*
X508000Y213833D02*
X492500Y213833D01*
X492500Y221167D01*
X508000Y221167D01*
X508000Y213833D01*
G37*
G54D18*
G36*
X555133Y217500D02*
X555133Y233000D01*
X562467Y233000D01*
X562467Y217500D01*
X555133Y217500D01*
G37*
G36*
X558800Y221167D02*
X574300Y221167D01*
X574300Y213833D01*
X558800Y213833D01*
X558800Y221167D01*
G37*
G36*
X562467Y217500D02*
X562467Y202000D01*
X555133Y202000D01*
X555133Y217500D01*
X562467Y217500D01*
G37*
G36*
X558800Y213833D02*
X543300Y213833D01*
X543300Y221167D01*
X558800Y221167D01*
X558800Y213833D01*
G37*
G54D18*
G36*
X555133Y166700D02*
X555133Y182200D01*
X562467Y182200D01*
X562467Y166700D01*
X555133Y166700D01*
G37*
G36*
X558800Y170367D02*
X574300Y170367D01*
X574300Y163033D01*
X558800Y163033D01*
X558800Y170367D01*
G37*
G36*
X562467Y166700D02*
X562467Y151200D01*
X555133Y151200D01*
X555133Y166700D01*
X562467Y166700D01*
G37*
G36*
X558800Y163033D02*
X543300Y163033D01*
X543300Y170367D01*
X558800Y170367D01*
X558800Y163033D01*
G37*
G54D18*
G36*
X504333Y166700D02*
X504333Y182200D01*
X511667Y182200D01*
X511667Y166700D01*
X504333Y166700D01*
G37*
G36*
X508000Y170367D02*
X523500Y170367D01*
X523500Y163033D01*
X508000Y163033D01*
X508000Y170367D01*
G37*
G36*
X511667Y166700D02*
X511667Y151200D01*
X504333Y151200D01*
X504333Y166700D01*
X511667Y166700D01*
G37*
G36*
X508000Y163033D02*
X492500Y163033D01*
X492500Y170367D01*
X508000Y170367D01*
X508000Y163033D01*
G37*
G54D16*
G36*
X476226Y356243D02*
X492726Y356243D01*
X492726Y349576D01*
X476226Y349576D01*
X476226Y356243D01*
G37*
G54D19*
G36*
X137945Y112575D02*
X137945Y127075D01*
X151745Y127075D01*
X151745Y112575D01*
X137945Y112575D01*
G37*
G36*
X144845Y119475D02*
X159345Y119475D01*
X159345Y105675D01*
X144845Y105675D01*
X144845Y119475D01*
G37*
G36*
X151745Y112575D02*
X151745Y98075D01*
X137945Y98075D01*
X137945Y112575D01*
X151745Y112575D01*
G37*
G36*
X144845Y105675D02*
X130345Y105675D01*
X130345Y119475D01*
X144845Y119475D01*
X144845Y105675D01*
G37*
G54D20*
G36*
X195842Y112575D02*
X195842Y127075D01*
X210508Y127075D01*
X210508Y112575D01*
X195842Y112575D01*
G37*
G36*
X203175Y119908D02*
X217675Y119908D01*
X217675Y105242D01*
X203175Y105242D01*
X203175Y119908D01*
G37*
G36*
X210508Y112575D02*
X210508Y98075D01*
X195842Y98075D01*
X195842Y112575D01*
X210508Y112575D01*
G37*
G36*
X203175Y105242D02*
X188675Y105242D01*
X188675Y119908D01*
X203175Y119908D01*
X203175Y105242D01*
G37*
G54D21*
G36*
X310242Y137975D02*
X310242Y152475D01*
X324708Y152475D01*
X324708Y137975D01*
X310242Y137975D01*
G37*
G36*
X317475Y145208D02*
X331975Y145208D01*
X331975Y130742D01*
X317475Y130742D01*
X317475Y145208D01*
G37*
G36*
X324708Y137975D02*
X324708Y123475D01*
X310242Y123475D01*
X310242Y137975D01*
X324708Y137975D01*
G37*
G36*
X317475Y130742D02*
X302975Y130742D01*
X302975Y145208D01*
X317475Y145208D01*
X317475Y130742D01*
G37*
G54D21*
G36*
X386442Y137975D02*
X386442Y152475D01*
X400908Y152475D01*
X400908Y137975D01*
X386442Y137975D01*
G37*
G36*
X393675Y145208D02*
X408175Y145208D01*
X408175Y130742D01*
X393675Y130742D01*
X393675Y145208D01*
G37*
G36*
X400908Y137975D02*
X400908Y123475D01*
X386442Y123475D01*
X386442Y137975D01*
X400908Y137975D01*
G37*
G36*
X393675Y130742D02*
X379175Y130742D01*
X379175Y145208D01*
X393675Y145208D01*
X393675Y130742D01*
G37*
G54D22*
G36*
X149973Y468148D02*
X149973Y487648D01*
X159973Y487648D01*
X159973Y468148D01*
X149973Y468148D01*
G37*
G36*
X154973Y473148D02*
X174473Y473148D01*
X174473Y463148D01*
X154973Y463148D01*
X154973Y473148D01*
G37*
G36*
X159973Y468148D02*
X159973Y448648D01*
X149973Y448648D01*
X149973Y468148D01*
X159973Y468148D01*
G37*
G36*
X154973Y463148D02*
X135473Y463148D01*
X135473Y473148D01*
X154973Y473148D01*
X154973Y463148D01*
G37*
G54D22*
G36*
X435723Y468148D02*
X435723Y487648D01*
X445723Y487648D01*
X445723Y468148D01*
X435723Y468148D01*
G37*
G36*
X440723Y473148D02*
X460223Y473148D01*
X460223Y463148D01*
X440723Y463148D01*
X440723Y473148D01*
G37*
G36*
X445723Y468148D02*
X445723Y448648D01*
X435723Y448648D01*
X435723Y468148D01*
X445723Y468148D01*
G37*
G36*
X440723Y463148D02*
X421223Y463148D01*
X421223Y473148D01*
X440723Y473148D01*
X440723Y463148D01*
G37*
G54D22*
G36*
X148703Y26188D02*
X148703Y45688D01*
X158703Y45688D01*
X158703Y26188D01*
X148703Y26188D01*
G37*
G36*
X153703Y31188D02*
X173203Y31188D01*
X173203Y21188D01*
X153703Y21188D01*
X153703Y31188D01*
G37*
G36*
X158703Y26188D02*
X158703Y6688D01*
X148703Y6688D01*
X148703Y26188D01*
X158703Y26188D01*
G37*
G36*
X153703Y21188D02*
X134203Y21188D01*
X134203Y31188D01*
X153703Y31188D01*
X153703Y21188D01*
G37*
G54D22*
G36*
X436993Y29998D02*
X436993Y49498D01*
X446993Y49498D01*
X446993Y29998D01*
X436993Y29998D01*
G37*
G36*
X441993Y34998D02*
X461493Y34998D01*
X461493Y24998D01*
X441993Y24998D01*
X441993Y34998D01*
G37*
G36*
X446993Y29998D02*
X446993Y10498D01*
X436993Y10498D01*
X436993Y29998D01*
X446993Y29998D01*
G37*
G36*
X441993Y24998D02*
X422493Y24998D01*
X422493Y34998D01*
X441993Y34998D01*
X441993Y24998D01*
G37*
G54D23*
G36*
X24790Y482550D02*
X41290Y482550D01*
X41290Y460250D01*
X24790Y460250D01*
X24790Y482550D01*
G37*
G36*
X35940Y471400D02*
X35940Y454900D01*
X13640Y454900D01*
X13640Y471400D01*
X35940Y471400D01*
G37*
G36*
X24790Y460250D02*
X8290Y460250D01*
X8290Y482550D01*
X24790Y482550D01*
X24790Y460250D01*
G37*
G36*
X13640Y471400D02*
X13640Y487900D01*
X35940Y487900D01*
X35940Y471400D01*
X13640Y471400D01*
G37*
G54D23*
G36*
X24790Y38050D02*
X41290Y38050D01*
X41290Y15750D01*
X24790Y15750D01*
X24790Y38050D01*
G37*
G36*
X35940Y26900D02*
X35940Y10400D01*
X13640Y10400D01*
X13640Y26900D01*
X35940Y26900D01*
G37*
G36*
X24790Y15750D02*
X8290Y15750D01*
X8290Y38050D01*
X24790Y38050D01*
X24790Y15750D01*
G37*
G36*
X13640Y26900D02*
X13640Y43400D01*
X35940Y43400D01*
X35940Y26900D01*
X13640Y26900D01*
G37*
G54D23*
G36*
X574700Y38050D02*
X591200Y38050D01*
X591200Y15750D01*
X574700Y15750D01*
X574700Y38050D01*
G37*
G36*
X585850Y26900D02*
X585850Y10400D01*
X563550Y10400D01*
X563550Y26900D01*
X585850Y26900D01*
G37*
G36*
X574700Y15750D02*
X558200Y15750D01*
X558200Y38050D01*
X574700Y38050D01*
X574700Y15750D01*
G37*
G36*
X563550Y26900D02*
X563550Y43400D01*
X585850Y43400D01*
X585850Y26900D01*
X563550Y26900D01*
G37*
G54D23*
G36*
X574700Y482550D02*
X591200Y482550D01*
X591200Y460250D01*
X574700Y460250D01*
X574700Y482550D01*
G37*
G36*
X585850Y471400D02*
X585850Y454900D01*
X563550Y454900D01*
X563550Y471400D01*
X585850Y471400D01*
G37*
G36*
X574700Y460250D02*
X558200Y460250D01*
X558200Y482550D01*
X574700Y482550D01*
X574700Y460250D01*
G37*
G36*
X563550Y471400D02*
X563550Y487900D01*
X585850Y487900D01*
X585850Y471400D01*
X563550Y471400D01*
G37*
G54D23*
G36*
X523900Y482550D02*
X540400Y482550D01*
X540400Y460250D01*
X523900Y460250D01*
X523900Y482550D01*
G37*
G36*
X535050Y471400D02*
X535050Y454900D01*
X512750Y454900D01*
X512750Y471400D01*
X535050Y471400D01*
G37*
G36*
X523900Y460250D02*
X507400Y460250D01*
X507400Y482550D01*
X523900Y482550D01*
X523900Y460250D01*
G37*
G36*
X512750Y471400D02*
X512750Y487900D01*
X535050Y487900D01*
X535050Y471400D01*
X512750Y471400D01*
G37*
G54D23*
G36*
X79400Y38050D02*
X95900Y38050D01*
X95900Y15750D01*
X79400Y15750D01*
X79400Y38050D01*
G37*
G36*
X90550Y26900D02*
X90550Y10400D01*
X68250Y10400D01*
X68250Y26900D01*
X90550Y26900D01*
G37*
G36*
X79400Y15750D02*
X62900Y15750D01*
X62900Y38050D01*
X79400Y38050D01*
X79400Y15750D01*
G37*
G36*
X68250Y26900D02*
X68250Y43400D01*
X90550Y43400D01*
X90550Y26900D01*
X68250Y26900D01*
G37*
X144829Y341175D02*
G54D24*
D03*
X144879Y417425D02*
G54D24*
D03*
X63836Y337775D02*
G54D24*
D03*
X63948Y286794D02*
G54D24*
D03*
X178135Y312375D02*
G54D24*
D03*
X178248Y261394D02*
G54D24*
D03*
X144845Y112575D02*
G54D24*
D03*
X144895Y188825D02*
G54D24*
D03*
X265566Y369189D02*
G54D24*
D03*
X189316Y369239D02*
G54D24*
D03*
X203225Y188825D02*
G54D24*
D03*
X203175Y112575D02*
G54D24*
D03*
X322629Y341174D02*
G54D24*
D03*
X322678Y417424D02*
G54D24*
D03*
X257889Y117607D02*
G54D24*
D03*
X257777Y168588D02*
G54D24*
D03*
X317525Y214225D02*
G54D24*
D03*
X317475Y137975D02*
G54D24*
D03*
X393725Y214225D02*
G54D24*
D03*
X393675Y137975D02*
G54D24*
D03*
X444525Y214225D02*
G54D24*
D03*
X444475Y137975D02*
G54D24*
D03*
X543997Y280269D02*
G54D24*
D03*
X493016Y280157D02*
G54D24*
D03*
X472542Y410993D02*
G54D24*
D03*
X396292Y411043D02*
G54D24*
D03*
X531975Y410475D02*
G54D24*
D03*
X557475Y410475D02*
G54D24*
D03*
X49375Y92975D02*
G54D24*
D03*
X74875Y92975D02*
G54D24*
D03*
X257200Y293600D02*
G54D25*
D03*
X241300Y276025D02*
G54D25*
D03*
X257235Y258409D02*
G54D25*
D03*
X358800Y293600D02*
G54D25*
D03*
X342900Y276025D02*
G54D25*
D03*
X358835Y258409D02*
G54D25*
D03*
X435000Y293600D02*
G54D25*
D03*
X419100Y276025D02*
G54D25*
D03*
X435035Y258409D02*
G54D25*
D03*
G54D26*
X444525Y214225D02*
X444500Y211150D01*
X393700Y211150D01*
X393725Y214225D01*
X38100Y217500D02*
G54D27*
D03*
X88900Y217500D02*
G54D27*
D03*
X63500Y192100D02*
G54D27*
D03*
X88900Y166700D02*
G54D27*
D03*
X38100Y166700D02*
G54D27*
D03*
X508000Y217500D02*
G54D27*
D03*
X558800Y217500D02*
G54D27*
D03*
X533400Y192100D02*
G54D27*
D03*
X558800Y166700D02*
G54D27*
D03*
X508000Y166700D02*
G54D27*
D03*
X476226Y352909D02*
G54D24*
D03*
X527206Y353022D02*
G54D24*
D03*
X144845Y112575D02*
G54D28*
D03*
X203175Y112575D02*
G54D28*
D03*
X317475Y137975D02*
G54D28*
D03*
X393675Y137975D02*
G54D28*
D03*
G36*
X139973Y483148D02*
X169973Y483148D01*
X169973Y453148D01*
X139973Y453148D01*
X139973Y483148D01*
G37*
G36*
X425723Y483148D02*
X455723Y483148D01*
X455723Y453148D01*
X425723Y453148D01*
X425723Y483148D01*
G37*
G36*
X138703Y41188D02*
X168703Y41188D01*
X168703Y11188D01*
X138703Y11188D01*
X138703Y41188D01*
G37*
G36*
X426993Y44998D02*
X456993Y44998D01*
X456993Y14998D01*
X426993Y14998D01*
X426993Y44998D01*
G37*
X24790Y471400D02*
G54D29*
D03*
X24790Y26900D02*
G54D29*
D03*
X574700Y26900D02*
G54D29*
D03*
X574700Y471400D02*
G54D29*
D03*
X523900Y471400D02*
G54D29*
D03*
X79400Y26900D02*
G54D29*
D03*
M02*
