; Drill file
; Format: 2.4 (00.0000)
M48
INCH
T01C0.0197
T02C0.0354
T03C0.0394
T04C0.0551
T05C0.0787
%
G05
G90
T01
X011310Y-001060
T02
X-003870Y000340
X-001860Y000350
X-001540Y002340
X000170Y002920
X001960Y002340
X004140Y003340
X005960Y002840
X007960Y002840
X009240Y001990
X009240Y000390
X006130Y000340
X004120Y000340
X004130Y005340
X005970Y005840
X006960Y007340
X007970Y005840
X010240Y006390
X010240Y007990
X003960Y007340
X002130Y007340
X001970Y005340
X000170Y004930
X-001530Y005340
X000120Y007340
X-007330Y007520
X-009340Y007510
T03
X-004950Y-003440
X001240Y-002820
X005000Y-003640
X012730Y-002510
X012730Y-001010
X010490Y001990
X010490Y003240
X010490Y004490
X013490Y002860
X013690Y008040
X012490Y007990
X004990Y009360
X-007740Y009570
X-009240Y009570
T04
X-009290Y-003420
X-009290Y002800
X-003780Y009690
X013740Y009890
X013940Y-003610
T05
X-005510Y-000100
X-005680Y006660
X-005680Y007660
M30
