%FSLAX34Y34*%
%MOMM*%
%LNSILK_TOP*%
G71*
G01*
%ADD10C,0.150*%
%ADD11C,0.167*%
%ADD12C,0.200*%
%ADD13C,0.300*%
%ADD14C,0.111*%
%LPD*%
G54D10*
G75*
G01X285450Y183950D02*
G03X285450Y183950I-25400J0D01*
G01*
G54D10*
X38771Y122920D02*
X60946Y122920D01*
X60946Y72220D01*
X38771Y72220D01*
X38771Y122920D01*
G54D10*
X49859Y123120D02*
X49859Y131020D01*
G54D10*
X49859Y72120D02*
X49859Y64220D01*
G54D10*
X-37082Y-3960D02*
X-37082Y21441D01*
X-108682Y21440D01*
X-108682Y-3960D01*
X-37082Y-3960D01*
G54D11*
X-31208Y7674D02*
X-31208Y7674D01*
G54D10*
X-8526Y63907D02*
X16874Y63907D01*
X16874Y135507D01*
X-8526Y135507D01*
X-8526Y63907D01*
G54D11*
X3108Y58033D02*
X3108Y58033D01*
G54D10*
X-50129Y122920D02*
X-27954Y122920D01*
X-27954Y72220D01*
X-50129Y72220D01*
X-50129Y122920D01*
G54D10*
X-39041Y123120D02*
X-39041Y131020D01*
G54D10*
X-39041Y72120D02*
X-39041Y64220D01*
G54D10*
X94518Y21441D02*
X94518Y-3960D01*
X166118Y-3959D01*
X166118Y21441D01*
X94518Y21441D01*
G54D10*
X140371Y135620D02*
X162546Y135620D01*
X162546Y84920D01*
X140371Y84920D01*
X140371Y135620D01*
G54D10*
X151459Y135820D02*
X151459Y143720D01*
G54D10*
X151459Y84820D02*
X151459Y76920D01*
G54D10*
X92218Y74540D02*
X117618Y74540D01*
X117618Y146141D01*
X92218Y146140D01*
X92218Y74540D01*
G54D10*
X164112Y197588D02*
X164112Y175413D01*
X113412Y175413D01*
X113412Y197588D01*
X164112Y197588D01*
G54D10*
X164312Y186501D02*
X172212Y186501D01*
G54D10*
X113312Y186501D02*
X105412Y186501D01*
G54D10*
X-7082Y199241D02*
X-7082Y173840D01*
X64518Y173841D01*
X64518Y199241D01*
X-7082Y199241D01*
G54D10*
G75*
G01X257550Y29050D02*
G03X257550Y29050I-25400J0D01*
G01*
G54D10*
X191171Y135620D02*
X213346Y135620D01*
X213346Y84920D01*
X191171Y84920D01*
X191171Y135620D01*
G54D10*
X202259Y135820D02*
X202259Y143720D01*
G54D10*
X202259Y84820D02*
X202259Y76920D01*
G54D10*
X-247325Y203677D02*
X-247325Y178277D01*
X-175724Y178277D01*
X-175725Y203677D01*
X-247325Y203677D01*
G54D12*
X291800Y232100D02*
X301400Y232100D01*
G54D12*
X296600Y236100D02*
X296600Y228100D01*
G54D12*
X305800Y241100D02*
X311800Y225100D01*
X317800Y241100D01*
G54D12*
X-243800Y212500D02*
X-243800Y228500D01*
G54D12*
X-239400Y212500D02*
X-239400Y228500D01*
X-229800Y212500D01*
X-229800Y228500D01*
G54D12*
X318300Y19100D02*
X318300Y9100D01*
X317100Y7100D01*
X314700Y6100D01*
X312300Y6100D01*
X309900Y7100D01*
X308700Y9100D01*
X308700Y19100D01*
X309900Y21100D01*
X312300Y22100D01*
X314700Y22100D01*
X317100Y21100D01*
X318300Y19100D01*
G54D12*
X322700Y22100D02*
X322700Y9100D01*
X323900Y7100D01*
X326300Y6100D01*
X328700Y6100D01*
X331100Y7100D01*
X332300Y9100D01*
X332300Y22100D01*
G54D12*
X341500Y6100D02*
X341500Y22100D01*
G54D12*
X336700Y22100D02*
X346300Y22100D01*
G54D12*
X-24100Y246900D02*
X-20500Y244900D01*
X-19300Y242900D01*
X-19300Y238900D01*
G54D12*
X-28900Y238900D02*
X-28900Y254900D01*
X-22900Y254900D01*
X-20500Y253900D01*
X-19300Y251900D01*
X-19300Y249900D01*
X-20500Y247900D01*
X-22900Y246900D01*
X-28900Y246900D01*
G54D12*
X-14900Y238900D02*
X-14900Y254900D01*
X-6500Y254900D01*
G54D12*
X-14900Y246900D02*
X-6500Y246900D01*
G54D12*
X2540Y238900D02*
X2540Y254900D01*
X8540Y254900D01*
X10940Y253900D01*
X12140Y251900D01*
X12140Y241900D01*
X10940Y239900D01*
X8540Y238900D01*
X2540Y238900D01*
G54D12*
X21340Y246900D02*
X24940Y244900D01*
X26140Y242900D01*
X26140Y238900D01*
G54D12*
X16540Y238900D02*
X16540Y254900D01*
X22540Y254900D01*
X24940Y253900D01*
X26140Y251900D01*
X26140Y249900D01*
X24940Y247900D01*
X22540Y246900D01*
X16540Y246900D01*
G54D12*
X30540Y238900D02*
X30540Y254900D01*
G54D12*
X34940Y254900D02*
X40940Y238900D01*
X46940Y254900D01*
G54D12*
X59740Y238900D02*
X51340Y238900D01*
X51340Y254900D01*
X59740Y254900D01*
G54D12*
X51340Y246900D02*
X59740Y246900D01*
G54D12*
X68940Y246900D02*
X72540Y244900D01*
X73740Y242900D01*
X73740Y238900D01*
G54D12*
X64140Y238900D02*
X64140Y254900D01*
X70140Y254900D01*
X72540Y253900D01*
X73740Y251900D01*
X73740Y249900D01*
X72540Y247900D01*
X70140Y246900D01*
X64140Y246900D01*
G54D12*
X310635Y-8014D02*
X336035Y-8014D01*
X336035Y-84214D01*
X310635Y-84214D01*
X310635Y-8014D01*
G54D12*
X-172629Y255760D02*
X-172629Y230360D01*
X-248829Y230360D01*
X-248829Y255760D01*
X-172629Y255760D01*
G54D12*
X236435Y211236D02*
X246035Y211236D01*
G54D12*
X241235Y215236D02*
X241235Y207236D01*
G54D12*
X215635Y43436D02*
X225235Y43436D01*
G54D12*
X220435Y47436D02*
X220435Y39436D01*
G54D13*
X295935Y221036D02*
X365935Y221036D01*
X365935Y191036D01*
X295935Y191036D01*
X295935Y221036D01*
G54D14*
X75935Y-28964D02*
X75935Y-20075D01*
X79268Y-20075D01*
X80602Y-20631D01*
X81268Y-21742D01*
X81268Y-22853D01*
X80602Y-23964D01*
X79268Y-24520D01*
X80602Y-25075D01*
X81268Y-26186D01*
X81268Y-27297D01*
X80602Y-28408D01*
X79268Y-28964D01*
X75935Y-28964D01*
G54D14*
X75935Y-24520D02*
X79268Y-24520D01*
G54D14*
X83712Y-28964D02*
X83712Y-20075D01*
X88379Y-20075D01*
G54D14*
X83712Y-24520D02*
X88379Y-24520D01*
G54D14*
X90823Y-23408D02*
X94156Y-20075D01*
X94156Y-28964D01*
G54D14*
X96600Y-21742D02*
X97267Y-20631D01*
X98600Y-20075D01*
X99933Y-20075D01*
X101267Y-20631D01*
X101933Y-21742D01*
X101933Y-22853D01*
X101267Y-23964D01*
X99933Y-24520D01*
X101267Y-25075D01*
X101933Y-26186D01*
X101933Y-27297D01*
X101267Y-28408D01*
X99933Y-28964D01*
X98600Y-28964D01*
X97267Y-28408D01*
X96600Y-27297D01*
G54D14*
X109710Y-20075D02*
X104377Y-20075D01*
X104377Y-23964D01*
X105044Y-23964D01*
X106377Y-23408D01*
X107710Y-23408D01*
X109044Y-23964D01*
X109710Y-25075D01*
X109710Y-27297D01*
X109044Y-28408D01*
X107710Y-28964D01*
X106377Y-28964D01*
X105044Y-28408D01*
X104377Y-27297D01*
G54D12*
X250935Y131036D02*
X280935Y131036D01*
X280935Y36036D01*
X250935Y36036D01*
X250935Y131036D01*
G54D14*
X281268Y143258D02*
X281268Y137703D01*
X280602Y136592D01*
X279268Y136036D01*
X277935Y136036D01*
X276602Y136592D01*
X275935Y137703D01*
X275935Y143258D01*
X276602Y144369D01*
X277935Y144925D01*
X279268Y144925D01*
X280602Y144369D01*
X281268Y143258D01*
G54D14*
X285935Y46036D02*
X285935Y54925D01*
G54D14*
X283602Y90480D02*
X286268Y90480D01*
X286268Y87703D01*
X285602Y86592D01*
X284268Y86036D01*
X282935Y86036D01*
X281602Y86592D01*
X280935Y87703D01*
X280935Y93258D01*
X281602Y94369D01*
X282935Y94925D01*
X284268Y94925D01*
X285602Y94369D01*
X286268Y93258D01*
G54D14*
X-137841Y134988D02*
X-137841Y140321D01*
X-141730Y140321D01*
X-141730Y139654D01*
X-141175Y138321D01*
X-141175Y136988D01*
X-141730Y135654D01*
X-142841Y134988D01*
X-145064Y134988D01*
X-146175Y135654D01*
X-146730Y136988D01*
X-146730Y138321D01*
X-146175Y139654D01*
X-145064Y140321D01*
G54D14*
X-146730Y129877D02*
X-137841Y129877D01*
G54D14*
X-137841Y132544D02*
X-137841Y127211D01*
G54D14*
X-146730Y123434D02*
X-147841Y123434D01*
X-148952Y124100D01*
X-148952Y124767D01*
G54D14*
X-142286Y117657D02*
X-142286Y118990D01*
X-141730Y120323D01*
X-140619Y120990D01*
X-139508Y120990D01*
X-138397Y120323D01*
X-137841Y118990D01*
X-137841Y117657D01*
X-138397Y116323D01*
X-139508Y115657D01*
X-140619Y115657D01*
X-141730Y116323D01*
X-142286Y117657D01*
X-142841Y116323D01*
X-143952Y115657D01*
X-145064Y115657D01*
X-146175Y116323D01*
X-146730Y117657D01*
X-146730Y118990D01*
X-146175Y120323D01*
X-145064Y120990D01*
X-143952Y120990D01*
X-142841Y120323D01*
X-142286Y118990D01*
G54D14*
X-146730Y113213D02*
X-141730Y113213D01*
G54D14*
X-142619Y113213D02*
X-141730Y111880D01*
X-142064Y110546D01*
X-142841Y109880D01*
X-146730Y109880D01*
G54D14*
X-142619Y109880D02*
X-141730Y108546D01*
X-142064Y107213D01*
X-142841Y106546D01*
X-146730Y106546D01*
G54D14*
X-146730Y104102D02*
X-141730Y104102D01*
G54D14*
X-142619Y104102D02*
X-141730Y102769D01*
X-142064Y101435D01*
X-142841Y100769D01*
X-146730Y100769D01*
G54D14*
X-142619Y100769D02*
X-141730Y99435D01*
X-142064Y98102D01*
X-142841Y97435D01*
X-146730Y97435D01*
G54D14*
X-146730Y88414D02*
X-137841Y88414D01*
G54D14*
X-143175Y88414D02*
X-142064Y89081D01*
X-141730Y90414D01*
X-142064Y91747D01*
X-143175Y92414D01*
X-145397Y92414D01*
X-146508Y91747D01*
X-146730Y90414D01*
X-146508Y89081D01*
X-145397Y88414D01*
G54D14*
X-146730Y84637D02*
X-147841Y84637D01*
X-148952Y85303D01*
X-148952Y85970D01*
G54D14*
X-141175Y82193D02*
X-137841Y78860D01*
X-146730Y78860D01*
G54D14*
X-137841Y71083D02*
X-137841Y76416D01*
X-141730Y76416D01*
X-141730Y75749D01*
X-141175Y74416D01*
X-141175Y73083D01*
X-141730Y71749D01*
X-142841Y71083D01*
X-145064Y71083D01*
X-146175Y71749D01*
X-146730Y73083D01*
X-146730Y74416D01*
X-146175Y75749D01*
X-145064Y76416D01*
G54D14*
X-146730Y68639D02*
X-141730Y68639D01*
G54D14*
X-142619Y68639D02*
X-141730Y67306D01*
X-142064Y65972D01*
X-142841Y65306D01*
X-146730Y65306D01*
G54D14*
X-142619Y65306D02*
X-141730Y63972D01*
X-142064Y62639D01*
X-142841Y61972D01*
X-146730Y61972D01*
G54D14*
X-146730Y59528D02*
X-141730Y59528D01*
G54D14*
X-142619Y59528D02*
X-141730Y58195D01*
X-142064Y56861D01*
X-142841Y56195D01*
X-146730Y56195D01*
G54D14*
X-142619Y56195D02*
X-141730Y54861D01*
X-142064Y53528D01*
X-142841Y52861D01*
X-146730Y52861D01*
G54D14*
X-146730Y47840D02*
X-137841Y47840D01*
G54D14*
X-146730Y44063D02*
X-147841Y44063D01*
X-148952Y44729D01*
X-148952Y45396D01*
G54D14*
X-145064Y36286D02*
X-146175Y36952D01*
X-146730Y38286D01*
X-146730Y39619D01*
X-146175Y40952D01*
X-145064Y41619D01*
X-139508Y41619D01*
X-138397Y40952D01*
X-137841Y39619D01*
X-137841Y38286D01*
X-138397Y36952D01*
X-139508Y36286D01*
G54D14*
X-141730Y29842D02*
X-146730Y29842D01*
G54D14*
X-145619Y29842D02*
X-146508Y30509D01*
X-146730Y31842D01*
X-146508Y33175D01*
X-145619Y33842D01*
X-141730Y33842D01*
G54D14*
X-148397Y27398D02*
X-148952Y26065D01*
X-148952Y25131D01*
X-148397Y23798D01*
X-147286Y23398D01*
X-141730Y23398D01*
G54D14*
X-143175Y23398D02*
X-142064Y24065D01*
X-141730Y25398D01*
X-142064Y26731D01*
X-143175Y27398D01*
X-145397Y27398D01*
X-146508Y26731D01*
X-146730Y25398D01*
X-146508Y24065D01*
X-145397Y23398D01*
G54D12*
X-164065Y102036D02*
X-164065Y86036D01*
X-155665Y86036D01*
G54D14*
X-225000Y167222D02*
X-224333Y168333D01*
X-223000Y168889D01*
X-221667Y168889D01*
X-220333Y168333D01*
X-219667Y167222D01*
X-219667Y166111D01*
X-220333Y165000D01*
X-221667Y164444D01*
X-220333Y163889D01*
X-219667Y162778D01*
X-219667Y161667D01*
X-220333Y160556D01*
X-221667Y160000D01*
X-223000Y160000D01*
X-224333Y160556D01*
X-225000Y161667D01*
G54D14*
X-217223Y167222D02*
X-216556Y168333D01*
X-215223Y168889D01*
X-213890Y168889D01*
X-212556Y168333D01*
X-211890Y167222D01*
X-211890Y166111D01*
X-212556Y165000D01*
X-213890Y164444D01*
X-212556Y163889D01*
X-211890Y162778D01*
X-211890Y161667D01*
X-212556Y160556D01*
X-213890Y160000D01*
X-215223Y160000D01*
X-216556Y160556D01*
X-217223Y161667D01*
G54D14*
X-204113Y167222D02*
X-204113Y161667D01*
X-204779Y160556D01*
X-206113Y160000D01*
X-207446Y160000D01*
X-208779Y160556D01*
X-209446Y161667D01*
X-209446Y167222D01*
X-208779Y168333D01*
X-207446Y168889D01*
X-206113Y168889D01*
X-204779Y168333D01*
X-204113Y167222D01*
G54D14*
X-201669Y165000D02*
X-201669Y157778D01*
G54D14*
X-201669Y161667D02*
X-201002Y160222D01*
X-199669Y160000D01*
X-198336Y160222D01*
X-197669Y161333D01*
X-197669Y163556D01*
X-198336Y164667D01*
X-199669Y165000D01*
X-201002Y164667D01*
X-201669Y163333D01*
G54D14*
X-69667Y-7778D02*
X-70333Y-6667D01*
X-71667Y-6111D01*
X-73000Y-6111D01*
X-74333Y-6667D01*
X-75000Y-7778D01*
X-75000Y-10556D01*
X-75000Y-11111D01*
X-73000Y-10000D01*
X-71667Y-10000D01*
X-70333Y-10556D01*
X-69667Y-11667D01*
X-69667Y-13333D01*
X-70333Y-14444D01*
X-71667Y-15000D01*
X-73000Y-15000D01*
X-74333Y-14444D01*
X-75000Y-13333D01*
X-75000Y-10556D01*
G54D14*
X-67223Y-15000D02*
X-67223Y-15000D01*
G54D14*
X-61446Y-10556D02*
X-62779Y-10556D01*
X-64112Y-10000D01*
X-64779Y-8889D01*
X-64779Y-7778D01*
X-64112Y-6667D01*
X-62779Y-6111D01*
X-61446Y-6111D01*
X-60112Y-6667D01*
X-59446Y-7778D01*
X-59446Y-8889D01*
X-60112Y-10000D01*
X-61446Y-10556D01*
X-60112Y-11111D01*
X-59446Y-12222D01*
X-59446Y-13333D01*
X-60112Y-14444D01*
X-61446Y-15000D01*
X-62779Y-15000D01*
X-64112Y-14444D01*
X-64779Y-13333D01*
X-64779Y-12222D01*
X-64112Y-11111D01*
X-62779Y-10556D01*
G54D14*
X-57002Y-15000D02*
X-57002Y-10000D01*
G54D14*
X-57002Y-11111D02*
X-56335Y-10333D01*
X-55002Y-10000D01*
X-53669Y-10333D01*
X-53002Y-11111D01*
X-53002Y-15000D01*
G54D14*
X-44667Y107222D02*
X-45333Y108333D01*
X-46667Y108889D01*
X-48000Y108889D01*
X-49333Y108333D01*
X-50000Y107222D01*
X-50000Y104444D01*
X-50000Y103889D01*
X-48000Y105000D01*
X-46667Y105000D01*
X-45333Y104444D01*
X-44667Y103333D01*
X-44667Y101667D01*
X-45333Y100556D01*
X-46667Y100000D01*
X-48000Y100000D01*
X-49333Y100556D01*
X-50000Y101667D01*
X-50000Y104444D01*
G54D14*
X-38890Y104444D02*
X-40223Y104444D01*
X-41556Y105000D01*
X-42223Y106111D01*
X-42223Y107222D01*
X-41556Y108333D01*
X-40223Y108889D01*
X-38890Y108889D01*
X-37556Y108333D01*
X-36890Y107222D01*
X-36890Y106111D01*
X-37556Y105000D01*
X-38890Y104444D01*
X-37556Y103889D01*
X-36890Y102778D01*
X-36890Y101667D01*
X-37556Y100556D01*
X-38890Y100000D01*
X-40223Y100000D01*
X-41556Y100556D01*
X-42223Y101667D01*
X-42223Y102778D01*
X-41556Y103889D01*
X-40223Y104444D01*
G54D14*
X-29113Y107222D02*
X-29113Y101667D01*
X-29779Y100556D01*
X-31113Y100000D01*
X-32446Y100000D01*
X-33779Y100556D01*
X-34446Y101667D01*
X-34446Y107222D01*
X-33779Y108333D01*
X-32446Y108889D01*
X-31113Y108889D01*
X-29779Y108333D01*
X-29113Y107222D01*
G54D14*
X0Y105556D02*
X3333Y108889D01*
X3333Y100000D01*
G54D14*
X11110Y107222D02*
X11110Y101667D01*
X10444Y100556D01*
X9110Y100000D01*
X7777Y100000D01*
X6444Y100556D01*
X5777Y101667D01*
X5777Y107222D01*
X6444Y108333D01*
X7777Y108889D01*
X9110Y108889D01*
X10444Y108333D01*
X11110Y107222D01*
G54D14*
X13554Y100000D02*
X13554Y105000D01*
G54D14*
X13554Y103889D02*
X14221Y104667D01*
X15554Y105000D01*
X16887Y104667D01*
X17554Y103889D01*
X17554Y100000D01*
G54D14*
X45000Y105556D02*
X48333Y108889D01*
X48333Y100000D01*
G54D14*
X56110Y100000D02*
X50777Y100000D01*
X50777Y100556D01*
X51444Y101667D01*
X55444Y105000D01*
X56110Y106111D01*
X56110Y107222D01*
X55444Y108333D01*
X54110Y108889D01*
X52777Y108889D01*
X51444Y108333D01*
X50777Y107222D01*
G54D14*
X58554Y100000D02*
X58554Y108889D01*
G54D14*
X60554Y103333D02*
X62554Y100000D01*
G54D14*
X58554Y102222D02*
X62554Y105000D01*
G54D14*
X8333Y34667D02*
X7000Y35000D01*
X5667Y34667D01*
X5000Y33556D01*
X5000Y31333D01*
X5667Y30222D01*
X7000Y30000D01*
X8333Y30222D01*
G54D14*
X9000Y-54444D02*
X7933Y-55000D01*
X6600Y-55000D01*
X5267Y-54444D01*
X5000Y-53333D01*
X5000Y-51444D01*
X5667Y-50333D01*
X7000Y-50000D01*
X8333Y-50333D01*
X9000Y-51111D01*
X9000Y-52222D01*
X5000Y-52222D01*
G54D14*
X69000Y-49444D02*
X67933Y-50000D01*
X66600Y-50000D01*
X65267Y-49444D01*
X65000Y-48333D01*
X65000Y-46444D01*
X65667Y-45333D01*
X67000Y-45000D01*
X68333Y-45333D01*
X69000Y-46111D01*
X69000Y-47222D01*
X65000Y-47222D01*
G54D14*
X30000Y-55000D02*
X30000Y-46111D01*
G54D14*
X30000Y-51444D02*
X30667Y-50333D01*
X32000Y-50000D01*
X33333Y-50333D01*
X34000Y-51444D01*
X34000Y-53667D01*
X33333Y-54778D01*
X32000Y-55000D01*
X30667Y-54778D01*
X30000Y-53667D01*
G54D14*
X120000Y-9444D02*
X123333Y-6111D01*
X123333Y-15000D01*
G54D14*
X125777Y-15000D02*
X125777Y-15000D01*
G54D14*
X133554Y-15000D02*
X128221Y-15000D01*
X128221Y-14444D01*
X128888Y-13333D01*
X132888Y-10000D01*
X133554Y-8889D01*
X133554Y-7778D01*
X132888Y-6667D01*
X131554Y-6111D01*
X130221Y-6111D01*
X128888Y-6667D01*
X128221Y-7778D01*
G54D14*
X135998Y-15000D02*
X135998Y-10000D01*
G54D14*
X135998Y-11111D02*
X136665Y-10333D01*
X137998Y-10000D01*
X139331Y-10333D01*
X139998Y-11111D01*
X139998Y-15000D01*
G54D14*
X135000Y110556D02*
X138333Y113889D01*
X138333Y105000D01*
G54D14*
X146110Y112222D02*
X146110Y106667D01*
X145444Y105556D01*
X144110Y105000D01*
X142777Y105000D01*
X141444Y105556D01*
X140777Y106667D01*
X140777Y112222D01*
X141444Y113333D01*
X142777Y113889D01*
X144110Y113889D01*
X145444Y113333D01*
X146110Y112222D01*
G54D14*
X152554Y110000D02*
X152554Y105000D01*
G54D14*
X152554Y106111D02*
X151887Y105222D01*
X150554Y105000D01*
X149221Y105222D01*
X148554Y106111D01*
X148554Y110000D01*
G54D14*
X154998Y105000D02*
X154998Y113889D01*
G54D14*
X160331Y105000D02*
X160331Y113889D01*
G54D14*
X154998Y109444D02*
X160331Y109444D01*
G54D14*
X190000Y110556D02*
X193333Y113889D01*
X193333Y105000D01*
G54D14*
X201110Y112222D02*
X201110Y106667D01*
X200444Y105556D01*
X199110Y105000D01*
X197777Y105000D01*
X196444Y105556D01*
X195777Y106667D01*
X195777Y112222D01*
X196444Y113333D01*
X197777Y113889D01*
X199110Y113889D01*
X200444Y113333D01*
X201110Y112222D01*
G54D14*
X207554Y110000D02*
X207554Y105000D01*
G54D14*
X207554Y106111D02*
X206887Y105222D01*
X205554Y105000D01*
X204221Y105222D01*
X203554Y106111D01*
X203554Y110000D01*
G54D14*
X209998Y105000D02*
X209998Y113889D01*
G54D14*
X215331Y105000D02*
X215331Y113889D01*
G54D14*
X209998Y109444D02*
X215331Y109444D01*
G54D14*
X100000Y110556D02*
X103333Y113889D01*
X103333Y105000D01*
G54D14*
X105777Y105000D02*
X105777Y110000D01*
G54D14*
X105777Y108889D02*
X106444Y109667D01*
X107777Y110000D01*
X109110Y109667D01*
X109777Y108889D01*
X109777Y105000D01*
G54D14*
X135000Y192222D02*
X135667Y193333D01*
X137000Y193889D01*
X138333Y193889D01*
X139667Y193333D01*
X140333Y192222D01*
X140333Y191111D01*
X139667Y190000D01*
X138333Y189444D01*
X139667Y188889D01*
X140333Y187778D01*
X140333Y186667D01*
X139667Y185556D01*
X138333Y185000D01*
X137000Y185000D01*
X135667Y185556D01*
X135000Y186667D01*
G54D14*
X142777Y192222D02*
X143444Y193333D01*
X144777Y193889D01*
X146110Y193889D01*
X147444Y193333D01*
X148110Y192222D01*
X148110Y191111D01*
X147444Y190000D01*
X146110Y189444D01*
X147444Y188889D01*
X148110Y187778D01*
X148110Y186667D01*
X147444Y185556D01*
X146110Y185000D01*
X144777Y185000D01*
X143444Y185556D01*
X142777Y186667D01*
G54D14*
X25333Y180000D02*
X20000Y180000D01*
X20000Y180556D01*
X20667Y181667D01*
X24667Y185000D01*
X25333Y186111D01*
X25333Y187222D01*
X24667Y188333D01*
X23333Y188889D01*
X22000Y188889D01*
X20667Y188333D01*
X20000Y187222D01*
G54D14*
X33110Y187222D02*
X33110Y181667D01*
X32444Y180556D01*
X31110Y180000D01*
X29777Y180000D01*
X28444Y180556D01*
X27777Y181667D01*
X27777Y187222D01*
X28444Y188333D01*
X29777Y188889D01*
X31110Y188889D01*
X32444Y188333D01*
X33110Y187222D01*
G54D14*
X35554Y180000D02*
X35554Y185000D01*
G54D14*
X35554Y183889D02*
X36221Y184667D01*
X37554Y185000D01*
X38887Y184667D01*
X39554Y183889D01*
X39554Y180000D01*
G54D14*
X226373Y33494D02*
X229706Y36828D01*
X229706Y27939D01*
G54D14*
X236150Y32939D02*
X236150Y27939D01*
G54D14*
X236150Y29050D02*
X235483Y28161D01*
X234150Y27939D01*
X232817Y28161D01*
X232150Y29050D01*
X232150Y32939D01*
G54D14*
X239927Y27939D02*
X239927Y36272D01*
X240594Y36828D01*
X241261Y36494D01*
G54D14*
X238594Y32939D02*
X241261Y32939D01*
G54D14*
X255000Y185556D02*
X258333Y188889D01*
X258333Y180000D01*
G54D14*
X264777Y185000D02*
X264777Y180000D01*
G54D14*
X264777Y181111D02*
X264110Y180222D01*
X262777Y180000D01*
X261444Y180222D01*
X260777Y181111D01*
X260777Y185000D01*
G54D14*
X268554Y180000D02*
X268554Y188333D01*
X269221Y188889D01*
X269888Y188556D01*
G54D14*
X267221Y185000D02*
X269888Y185000D01*
G54D14*
X290000Y123889D02*
X295333Y123889D01*
X294667Y122778D01*
X293333Y121111D01*
X292000Y118889D01*
X291333Y117222D01*
X291333Y115000D01*
G54D14*
X301110Y119444D02*
X299777Y119444D01*
X298444Y120000D01*
X297777Y121111D01*
X297777Y122222D01*
X298444Y123333D01*
X299777Y123889D01*
X301110Y123889D01*
X302444Y123333D01*
X303110Y122222D01*
X303110Y121111D01*
X302444Y120000D01*
X301110Y119444D01*
X302444Y118889D01*
X303110Y117778D01*
X303110Y116667D01*
X302444Y115556D01*
X301110Y115000D01*
X299777Y115000D01*
X298444Y115556D01*
X297777Y116667D01*
X297777Y117778D01*
X298444Y118889D01*
X299777Y119444D01*
G54D14*
X305554Y123889D02*
X305554Y115000D01*
X310221Y115000D01*
G54D14*
X312665Y120556D02*
X315998Y123889D01*
X315998Y115000D01*
G54D14*
X323775Y122222D02*
X323775Y116667D01*
X323109Y115556D01*
X321775Y115000D01*
X320442Y115000D01*
X319109Y115556D01*
X318442Y116667D01*
X318442Y122222D01*
X319109Y123333D01*
X320442Y123889D01*
X321775Y123889D01*
X323109Y123333D01*
X323775Y122222D01*
G54D12*
X-162529Y241837D02*
X-162528Y235486D01*
G54D12*
X-154591Y235486D02*
X-170466Y235487D01*
G54D12*
X-168085Y232312D02*
X-156972Y232312D01*
G54D12*
X-160148Y229137D02*
X-164910Y229137D01*
G54D12*
X347471Y181837D02*
X347472Y175486D01*
G54D12*
X355409Y175486D02*
X339534Y175487D01*
G54D12*
X341915Y172312D02*
X353028Y172312D01*
G54D12*
X349852Y169137D02*
X345090Y169137D01*
G54D12*
X292471Y-73163D02*
X292472Y-79514D01*
G54D12*
X300409Y-79514D02*
X284534Y-79513D01*
G54D12*
X286915Y-82688D02*
X298028Y-82688D01*
G54D12*
X294852Y-85863D02*
X290090Y-85863D01*
M02*
