%FSLAX34Y34*%
%MOMM*%
%LNCOPPER_TOP*%
G71*
G01*
%ADD10C,2.600*%
%ADD11C,2.800*%
%ADD12C,1.700*%
%ADD13C,0.667*%
%ADD14C,1.800*%
%ADD15C,2.000*%
%ADD16C,0.900*%
%LPD*%
G36*
X-271190Y92720D02*
X108810Y92720D01*
X108810Y-47280D01*
X-271190Y-47280D01*
X-271190Y92720D01*
G37*
%LPC*%
X-45317Y-2969D02*
G54D10*
D03*
X-45317Y73231D02*
G54D10*
D03*
X-121517Y73231D02*
G54D10*
D03*
X-121517Y-2969D02*
G54D10*
D03*
X-256540Y73143D02*
G54D11*
D03*
X-256540Y3293D02*
G54D11*
D03*
X-167640Y73143D02*
G54D11*
D03*
X-167640Y35043D02*
G54D11*
D03*
X-167640Y3293D02*
G54D11*
D03*
X88900Y0D02*
G54D11*
D03*
X95250Y63500D02*
G54D11*
D03*
X0Y0D02*
G54D11*
D03*
X0Y31750D02*
G54D11*
D03*
X0Y63500D02*
G54D11*
D03*
G54D12*
X-121517Y73231D02*
X-108817Y73231D01*
X-77067Y41481D01*
X-22019Y41481D01*
X0Y63500D01*
X-144190Y-34280D02*
G54D11*
D03*
X-63089Y-35017D02*
G54D11*
D03*
X20910Y-34280D02*
G54D11*
D03*
X-250190Y-34807D02*
G54D11*
D03*
X92710Y-34807D02*
G54D11*
D03*
%LPD*%
G54D13*
G36*
X-259873Y3293D02*
X-259873Y17793D01*
X-253207Y17793D01*
X-253207Y3293D01*
X-259873Y3293D01*
G37*
G36*
X-256540Y6626D02*
X-242040Y6626D01*
X-242040Y-40D01*
X-256540Y-40D01*
X-256540Y6626D01*
G37*
G36*
X-253207Y3293D02*
X-253207Y-11207D01*
X-259873Y-11207D01*
X-259873Y3293D01*
X-253207Y3293D01*
G37*
G36*
X-256540Y-40D02*
X-271040Y-40D01*
X-271040Y6626D01*
X-256540Y6626D01*
X-256540Y-40D01*
G37*
G54D13*
G36*
X-170973Y35043D02*
X-170973Y49543D01*
X-164307Y49543D01*
X-164307Y35043D01*
X-170973Y35043D01*
G37*
G36*
X-167640Y38376D02*
X-153140Y38376D01*
X-153140Y31710D01*
X-167640Y31710D01*
X-167640Y38376D01*
G37*
G36*
X-164307Y35043D02*
X-164307Y20543D01*
X-170973Y20543D01*
X-170973Y35043D01*
X-164307Y35043D01*
G37*
G36*
X-167640Y31710D02*
X-182140Y31710D01*
X-182140Y38376D01*
X-167640Y38376D01*
X-167640Y31710D01*
G37*
G54D13*
G36*
X92233Y0D02*
X92233Y-14500D01*
X85567Y-14500D01*
X85567Y0D01*
X92233Y0D01*
G37*
G36*
X88900Y-3333D02*
X74400Y-3333D01*
X74400Y3333D01*
X88900Y3333D01*
X88900Y-3333D01*
G37*
G36*
X85567Y0D02*
X85567Y14500D01*
X92233Y14500D01*
X92233Y0D01*
X85567Y0D01*
G37*
G36*
X88900Y3333D02*
X103400Y3333D01*
X103400Y-3333D01*
X88900Y-3333D01*
X88900Y3333D01*
G37*
G54D13*
G36*
X-253523Y-34807D02*
X-253523Y-20307D01*
X-246857Y-20307D01*
X-246857Y-34807D01*
X-253523Y-34807D01*
G37*
G36*
X-250190Y-31474D02*
X-235690Y-31474D01*
X-235690Y-38140D01*
X-250190Y-38140D01*
X-250190Y-31474D01*
G37*
G36*
X-246857Y-34807D02*
X-246857Y-49307D01*
X-253523Y-49307D01*
X-253523Y-34807D01*
X-246857Y-34807D01*
G37*
G36*
X-250190Y-38140D02*
X-264690Y-38140D01*
X-264690Y-31474D01*
X-250190Y-31474D01*
X-250190Y-38140D01*
G37*
G54D13*
G36*
X89377Y-34807D02*
X89377Y-20307D01*
X96043Y-20307D01*
X96043Y-34807D01*
X89377Y-34807D01*
G37*
G36*
X92710Y-31474D02*
X107210Y-31474D01*
X107210Y-38140D01*
X92710Y-38140D01*
X92710Y-31474D01*
G37*
G36*
X96043Y-34807D02*
X96043Y-49307D01*
X89377Y-49307D01*
X89377Y-34807D01*
X96043Y-34807D01*
G37*
G36*
X92710Y-38140D02*
X78210Y-38140D01*
X78210Y-31474D01*
X92710Y-31474D01*
X92710Y-38140D01*
G37*
X-45317Y-2969D02*
G54D14*
D03*
X-45317Y73231D02*
G54D14*
D03*
X-121517Y73231D02*
G54D14*
D03*
X-121517Y-2969D02*
G54D14*
D03*
X-256540Y73143D02*
G54D15*
D03*
X-256540Y3293D02*
G54D15*
D03*
X-167640Y73143D02*
G54D15*
D03*
X-167640Y35043D02*
G54D15*
D03*
X-167640Y3293D02*
G54D15*
D03*
X88900Y0D02*
G54D15*
D03*
X95250Y63500D02*
G54D15*
D03*
X0Y0D02*
G54D15*
D03*
X0Y31750D02*
G54D15*
D03*
X0Y63500D02*
G54D15*
D03*
G54D16*
X-121517Y73231D02*
X-108817Y73231D01*
X-77067Y41481D01*
X-22019Y41481D01*
X0Y63500D01*
X-144190Y-34280D02*
G54D15*
D03*
X-63089Y-35017D02*
G54D15*
D03*
X20910Y-34280D02*
G54D15*
D03*
X-250190Y-34807D02*
G54D15*
D03*
X92710Y-34807D02*
G54D15*
D03*
M02*
