; Drill file
; Format: 2.4 (00.0000)
M48
INCH
T01C0.0354
%
G05
G90
T01
X-004250Y-001000
X-004250Y000000
X-003500Y002210
X-001250Y002210
X000000Y002000
X001350Y001890
X003000Y002250
X003000Y-000250
X001350Y-000120
X000000Y000000
X000000Y-001750
X005600Y-000120
X005600Y001890
X008350Y001890
X010000Y002250
X011600Y001890
X013250Y002250
X014850Y001890
X016500Y002000
X018100Y001890
X019750Y002250
X021350Y001890
X023000Y002250
X024600Y001890
X026250Y002000
X027850Y001890
X027850Y-000120
X026250Y-000250
X024600Y-000120
X023000Y-000250
X021350Y-000120
X019750Y-000250
X018100Y-000120
X016500Y-000250
X014850Y-000120
X013250Y-000250
X011600Y-000120
X010000Y-000250
X008350Y-000120
X030350Y-000120
X030350Y001890
X033000Y002000
X034600Y001640
X036000Y002000
X037250Y002210
X036000Y000500
X034600Y-000370
X033000Y-000250
X036000Y-001250
X039750Y-000500
X039750Y000500
X039500Y002210
M30
