%FSLAX34Y34*%
%MOMM*%
%LNCOPPER_BOTTOM*%
G71*
G01*
%ADD10C,2.800*%
%ADD11C,3.200*%
%ADD12C,1.800*%
%ADD13C,1.713*%
%ADD14C,1.013*%
%ADD15C,0.667*%
%ADD16C,1.627*%
%ADD17C,1.200*%
%ADD18C,1.607*%
%ADD19C,2.000*%
%ADD20C,1.773*%
%ADD21C,1.467*%
%ADD22C,1.487*%
%ADD23C,2.000*%
%ADD24C,1.000*%
%LPD*%
G36*
X-165100Y130050D02*
X1034900Y130050D01*
X1034900Y-69950D01*
X-165100Y-69950D01*
X-165100Y130050D01*
G37*
%LPC*%
X76200Y57150D02*
G54D10*
D03*
X76200Y-6350D02*
G54D10*
D03*
X142358Y-3088D02*
G54D11*
D03*
X142246Y47892D02*
G54D11*
D03*
X254000Y57150D02*
G54D10*
D03*
X254000Y-6350D02*
G54D10*
D03*
X294758Y-3088D02*
G54D11*
D03*
X294646Y47892D02*
G54D11*
D03*
X336550Y57150D02*
G54D10*
D03*
X336550Y-6350D02*
G54D10*
D03*
X377308Y-3088D02*
G54D11*
D03*
X377196Y47892D02*
G54D11*
D03*
X419100Y50800D02*
G54D10*
D03*
X419100Y-6350D02*
G54D10*
D03*
X459858Y-3088D02*
G54D11*
D03*
X459746Y47892D02*
G54D11*
D03*
X501650Y57150D02*
G54D10*
D03*
X501650Y-6350D02*
G54D10*
D03*
X542408Y-3088D02*
G54D11*
D03*
X542296Y47892D02*
G54D11*
D03*
X624958Y-3088D02*
G54D11*
D03*
X624846Y47892D02*
G54D11*
D03*
X666750Y50800D02*
G54D10*
D03*
X666750Y-6350D02*
G54D10*
D03*
X707508Y-3089D02*
G54D11*
D03*
X707396Y47892D02*
G54D11*
D03*
X838200Y50800D02*
G54D10*
D03*
X838200Y-6350D02*
G54D10*
D03*
X878958Y-9438D02*
G54D11*
D03*
X878846Y41542D02*
G54D11*
D03*
X34408Y-3088D02*
G54D11*
D03*
X34296Y47892D02*
G54D11*
D03*
X707508Y-3089D02*
G54D10*
D03*
X212208Y-3088D02*
G54D11*
D03*
X212096Y47892D02*
G54D11*
D03*
X212208Y-3088D02*
G54D10*
D03*
X212208Y-3088D02*
G54D10*
D03*
X212208Y-3089D02*
G54D10*
D03*
X212208Y-3089D02*
G54D10*
D03*
X771008Y-3089D02*
G54D11*
D03*
X770896Y47892D02*
G54D11*
D03*
X771008Y-3089D02*
G54D10*
D03*
X771008Y-3089D02*
G54D10*
D03*
X584200Y57150D02*
G54D10*
D03*
X584200Y-6350D02*
G54D10*
D03*
X0Y50800D02*
G54D10*
D03*
X0Y0D02*
G54D10*
D03*
X-107950Y-25400D02*
G54D10*
D03*
X-107950Y0D02*
G54D10*
D03*
X-31750Y56100D02*
G54D10*
D03*
X-88900Y56100D02*
G54D10*
D03*
X914400Y50800D02*
G54D10*
D03*
X914400Y12700D02*
G54D10*
D03*
X1009650Y-12700D02*
G54D10*
D03*
X1009650Y12700D02*
G54D10*
D03*
X946150Y56100D02*
G54D10*
D03*
X1003300Y56100D02*
G54D10*
D03*
X142358Y-3088D02*
G54D10*
D03*
X212208Y-3089D02*
G54D10*
D03*
X294758Y-3088D02*
G54D10*
D03*
X377308Y-3088D02*
G54D10*
D03*
X459858Y-3088D02*
G54D10*
D03*
X542408Y-3088D02*
G54D10*
D03*
X624958Y-3088D02*
G54D10*
D03*
G54D12*
X-88900Y56100D02*
X-88900Y57050D01*
X-114300Y31650D01*
X-114300Y6250D01*
X-107950Y0D01*
G54D12*
X-31750Y56100D02*
X-38100Y57050D01*
X0Y57050D01*
X0Y50800D01*
G54D12*
X0Y0D02*
X0Y6250D01*
X0Y57050D01*
X0Y50800D01*
X0Y-44450D02*
G54D10*
D03*
X914400Y-31750D02*
G54D10*
D03*
G54D12*
X34408Y-3088D02*
X38100Y0D01*
X76200Y38100D01*
X76200Y50800D01*
X76200Y57150D01*
G54D12*
X142246Y47892D02*
X139700Y50800D01*
X88900Y0D01*
X76200Y0D01*
X76200Y-6350D01*
G54D12*
X212096Y47892D02*
X215900Y50800D01*
X139700Y50800D01*
X142246Y47892D01*
G54D12*
X212096Y47892D02*
X215900Y50800D01*
X254000Y50800D01*
X254000Y57150D01*
G54D12*
X294646Y47892D02*
X292100Y50800D01*
X254000Y12700D01*
X254000Y0D01*
X254000Y-6350D01*
G54D12*
X336550Y57150D02*
X342900Y50800D01*
X292100Y50800D01*
X294646Y47892D01*
G54D12*
X377196Y47892D02*
X381000Y50800D01*
X342900Y12700D01*
X342900Y0D01*
X336550Y-6350D01*
G54D12*
X419100Y50800D02*
X381000Y50800D01*
X377196Y47892D01*
G54D12*
X459746Y47892D02*
X457200Y50800D01*
X419100Y12700D01*
X419100Y0D01*
X419100Y-6350D01*
G54D12*
X501650Y57150D02*
X495300Y50800D01*
X457200Y50800D01*
X459746Y47892D01*
G54D12*
X542296Y47892D02*
X546100Y50800D01*
X495300Y0D01*
X501650Y-6350D01*
G54D12*
X584200Y57150D02*
X584200Y50800D01*
X546100Y50800D01*
X542296Y47892D01*
G54D12*
X584200Y-6350D02*
X584200Y0D01*
X622300Y38100D01*
X622300Y50800D01*
X624846Y47892D01*
G54D12*
X666750Y50800D02*
X673100Y50800D01*
X622300Y50800D01*
X624846Y47892D01*
G54D12*
X707396Y47892D02*
X711200Y50800D01*
X673100Y12700D01*
X673100Y0D01*
X666750Y-6350D01*
G54D12*
X770896Y47892D02*
X774700Y50800D01*
X711200Y50800D01*
X707396Y47892D01*
G54D12*
X770896Y47892D02*
X774700Y50800D01*
X838200Y50800D01*
G54D12*
X878846Y41542D02*
X876300Y38100D01*
X838200Y0D01*
X838200Y-6350D01*
X0Y-44450D02*
G54D10*
D03*
X914400Y-31750D02*
G54D10*
D03*
X142358Y-3088D02*
G54D10*
D03*
G54D12*
X0Y0D02*
X38100Y38100D01*
X38100Y50800D01*
X34296Y47892D01*
G54D12*
X946150Y56100D02*
X952500Y50800D01*
X914400Y50800D01*
G54D12*
X914400Y12700D02*
X914400Y50800D01*
G54D12*
X914400Y50800D02*
X901700Y38100D01*
X901700Y25400D01*
X876300Y0D01*
X876300Y-12700D01*
X878958Y-9438D01*
G54D12*
X1003300Y56100D02*
X1003300Y50800D01*
X1003300Y12700D01*
X1009650Y12700D01*
%LPD*%
G54D13*
G36*
X698942Y-3089D02*
X698942Y11411D01*
X716075Y11411D01*
X716075Y-3089D01*
X698942Y-3089D01*
G37*
G36*
X707508Y5478D02*
X722008Y5478D01*
X722008Y-11655D01*
X707508Y-11655D01*
X707508Y5478D01*
G37*
G36*
X716075Y-3089D02*
X716075Y-17589D01*
X698942Y-17589D01*
X698942Y-3089D01*
X716075Y-3089D01*
G37*
G36*
X707508Y-11655D02*
X693008Y-11655D01*
X693008Y5478D01*
X707508Y5478D01*
X707508Y-11655D01*
G37*
G54D14*
G36*
X207142Y-3088D02*
X207142Y11412D01*
X217275Y11412D01*
X217275Y-3088D01*
X207142Y-3088D01*
G37*
G36*
X212208Y1978D02*
X226708Y1978D01*
X226708Y-8155D01*
X212208Y-8155D01*
X212208Y1978D01*
G37*
G36*
X217275Y-3088D02*
X217275Y-17588D01*
X207142Y-17588D01*
X207142Y-3088D01*
X217275Y-3088D01*
G37*
G36*
X212208Y-8155D02*
X197708Y-8155D01*
X197708Y1978D01*
X212208Y1978D01*
X212208Y-8155D01*
G37*
G54D15*
G36*
X208875Y-3089D02*
X208875Y11411D01*
X215541Y11411D01*
X215541Y-3089D01*
X208875Y-3089D01*
G37*
G36*
X212208Y244D02*
X226708Y244D01*
X226708Y-6422D01*
X212208Y-6422D01*
X212208Y244D01*
G37*
G36*
X215541Y-3089D02*
X215541Y-17589D01*
X208875Y-17589D01*
X208875Y-3089D01*
X215541Y-3089D01*
G37*
G36*
X212208Y-6422D02*
X197708Y-6422D01*
X197708Y244D01*
X212208Y244D01*
X212208Y-6422D01*
G37*
G54D16*
G36*
X204075Y-3089D02*
X204075Y11411D01*
X220341Y11411D01*
X220341Y-3089D01*
X204075Y-3089D01*
G37*
G36*
X212208Y5044D02*
X226708Y5044D01*
X226708Y-11222D01*
X212208Y-11222D01*
X212208Y5044D01*
G37*
G36*
X220341Y-3089D02*
X220341Y-17589D01*
X204075Y-17589D01*
X204075Y-3089D01*
X220341Y-3089D01*
G37*
G36*
X212208Y-11222D02*
X197708Y-11222D01*
X197708Y5044D01*
X212208Y5044D01*
X212208Y-11222D01*
G37*
G54D14*
G36*
X765942Y-3089D02*
X765942Y11411D01*
X776075Y11411D01*
X776075Y-3089D01*
X765942Y-3089D01*
G37*
G36*
X771008Y1978D02*
X785508Y1978D01*
X785508Y-8155D01*
X771008Y-8155D01*
X771008Y1978D01*
G37*
G36*
X776075Y-3089D02*
X776075Y-17589D01*
X765942Y-17589D01*
X765942Y-3089D01*
X776075Y-3089D01*
G37*
G36*
X771008Y-8155D02*
X756508Y-8155D01*
X756508Y1978D01*
X771008Y1978D01*
X771008Y-8155D01*
G37*
G54D13*
G36*
X762441Y-3089D02*
X762441Y11411D01*
X779575Y11411D01*
X779575Y-3089D01*
X762441Y-3089D01*
G37*
G36*
X771008Y5478D02*
X785508Y5478D01*
X785508Y-11656D01*
X771008Y-11656D01*
X771008Y5478D01*
G37*
G36*
X779575Y-3089D02*
X779575Y-17589D01*
X762441Y-17589D01*
X762441Y-3089D01*
X779575Y-3089D01*
G37*
G36*
X771008Y-11656D02*
X756508Y-11656D01*
X756508Y5478D01*
X771008Y5478D01*
X771008Y-11656D01*
G37*
G54D17*
G36*
X-113950Y-25400D02*
X-113950Y-10900D01*
X-101950Y-10900D01*
X-101950Y-25400D01*
X-113950Y-25400D01*
G37*
G36*
X-107950Y-19400D02*
X-93450Y-19400D01*
X-93450Y-31400D01*
X-107950Y-31400D01*
X-107950Y-19400D01*
G37*
G36*
X-101950Y-25400D02*
X-101950Y-39900D01*
X-113950Y-39900D01*
X-113950Y-25400D01*
X-101950Y-25400D01*
G37*
G36*
X-107950Y-31400D02*
X-122450Y-31400D01*
X-122450Y-19400D01*
X-107950Y-19400D01*
X-107950Y-31400D01*
G37*
G54D17*
G36*
X1015650Y-12700D02*
X1015650Y-27200D01*
X1003650Y-27200D01*
X1003650Y-12700D01*
X1015650Y-12700D01*
G37*
G36*
X1009650Y-18700D02*
X995150Y-18700D01*
X995150Y-6700D01*
X1009650Y-6700D01*
X1009650Y-18700D01*
G37*
G36*
X1003650Y-12700D02*
X1003650Y1800D01*
X1015650Y1800D01*
X1015650Y-12700D01*
X1003650Y-12700D01*
G37*
G36*
X1009650Y-6700D02*
X1024150Y-6700D01*
X1024150Y-18700D01*
X1009650Y-18700D01*
X1009650Y-6700D01*
G37*
G54D17*
G36*
X148358Y-3088D02*
X148358Y-17588D01*
X136358Y-17588D01*
X136358Y-3088D01*
X148358Y-3088D01*
G37*
G36*
X142358Y-9088D02*
X127858Y-9088D01*
X127858Y2912D01*
X142358Y2912D01*
X142358Y-9088D01*
G37*
G36*
X136358Y-3088D02*
X136358Y11412D01*
X148358Y11412D01*
X148358Y-3088D01*
X136358Y-3088D01*
G37*
G36*
X142358Y2912D02*
X156858Y2912D01*
X156858Y-9088D01*
X142358Y-9088D01*
X142358Y2912D01*
G37*
G54D17*
G36*
X218208Y-3089D02*
X218208Y-17589D01*
X206208Y-17589D01*
X206208Y-3089D01*
X218208Y-3089D01*
G37*
G36*
X212208Y-9089D02*
X197708Y-9089D01*
X197708Y2911D01*
X212208Y2911D01*
X212208Y-9089D01*
G37*
G36*
X206208Y-3089D02*
X206208Y11411D01*
X218208Y11411D01*
X218208Y-3089D01*
X206208Y-3089D01*
G37*
G36*
X212208Y2911D02*
X226708Y2911D01*
X226708Y-9089D01*
X212208Y-9089D01*
X212208Y2911D01*
G37*
G54D18*
G36*
X302791Y-3088D02*
X302791Y-17588D01*
X286725Y-17588D01*
X286725Y-3088D01*
X302791Y-3088D01*
G37*
G36*
X294758Y-11121D02*
X280258Y-11121D01*
X280258Y4945D01*
X294758Y4945D01*
X294758Y-11121D01*
G37*
G36*
X286725Y-3088D02*
X286725Y11412D01*
X302791Y11412D01*
X302791Y-3088D01*
X286725Y-3088D01*
G37*
G36*
X294758Y4945D02*
X309258Y4945D01*
X309258Y-11121D01*
X294758Y-11121D01*
X294758Y4945D01*
G37*
G54D19*
G36*
X387308Y-3088D02*
X387308Y-17588D01*
X367308Y-17588D01*
X367308Y-3088D01*
X387308Y-3088D01*
G37*
G36*
X377308Y-13088D02*
X362808Y-13088D01*
X362808Y6912D01*
X377308Y6912D01*
X377308Y-13088D01*
G37*
G36*
X367308Y-3088D02*
X367308Y11412D01*
X387308Y11412D01*
X387308Y-3088D01*
X367308Y-3088D01*
G37*
G36*
X377308Y6912D02*
X391808Y6912D01*
X391808Y-13088D01*
X377308Y-13088D01*
X377308Y6912D01*
G37*
G54D20*
G36*
X468725Y-3088D02*
X468725Y-17588D01*
X450991Y-17588D01*
X450991Y-3088D01*
X468725Y-3088D01*
G37*
G36*
X459858Y-11955D02*
X445358Y-11955D01*
X445358Y5779D01*
X459858Y5779D01*
X459858Y-11955D01*
G37*
G36*
X450991Y-3088D02*
X450991Y11412D01*
X468725Y11412D01*
X468725Y-3088D01*
X450991Y-3088D01*
G37*
G36*
X459858Y5779D02*
X474358Y5779D01*
X474358Y-11955D01*
X459858Y-11955D01*
X459858Y5779D01*
G37*
G54D16*
G36*
X550541Y-3088D02*
X550541Y-17588D01*
X534275Y-17588D01*
X534275Y-3088D01*
X550541Y-3088D01*
G37*
G36*
X542408Y-11221D02*
X527908Y-11221D01*
X527908Y5045D01*
X542408Y5045D01*
X542408Y-11221D01*
G37*
G36*
X534275Y-3088D02*
X534275Y11412D01*
X550541Y11412D01*
X550541Y-3088D01*
X534275Y-3088D01*
G37*
G36*
X542408Y5045D02*
X556908Y5045D01*
X556908Y-11221D01*
X542408Y-11221D01*
X542408Y5045D01*
G37*
G54D21*
G36*
X632291Y-3088D02*
X632291Y-17588D01*
X617625Y-17588D01*
X617625Y-3088D01*
X632291Y-3088D01*
G37*
G36*
X624958Y-10421D02*
X610458Y-10421D01*
X610458Y4245D01*
X624958Y4245D01*
X624958Y-10421D01*
G37*
G36*
X617625Y-3088D02*
X617625Y11412D01*
X632291Y11412D01*
X632291Y-3088D01*
X617625Y-3088D01*
G37*
G36*
X624958Y4245D02*
X639458Y4245D01*
X639458Y-10421D01*
X624958Y-10421D01*
X624958Y4245D01*
G37*
G54D17*
G36*
X6000Y-44450D02*
X6000Y-58950D01*
X-6000Y-58950D01*
X-6000Y-44450D01*
X6000Y-44450D01*
G37*
G36*
X0Y-50450D02*
X-14500Y-50450D01*
X-14500Y-38450D01*
X0Y-38450D01*
X0Y-50450D01*
G37*
G36*
X-6000Y-44450D02*
X-6000Y-29950D01*
X6000Y-29950D01*
X6000Y-44450D01*
X-6000Y-44450D01*
G37*
G36*
X0Y-38450D02*
X14500Y-38450D01*
X14500Y-50450D01*
X0Y-50450D01*
X0Y-38450D01*
G37*
G54D17*
G36*
X920400Y-31750D02*
X920400Y-46250D01*
X908400Y-46250D01*
X908400Y-31750D01*
X920400Y-31750D01*
G37*
G36*
X914400Y-37750D02*
X899900Y-37750D01*
X899900Y-25750D01*
X914400Y-25750D01*
X914400Y-37750D01*
G37*
G36*
X908400Y-31750D02*
X908400Y-17250D01*
X920400Y-17250D01*
X920400Y-31750D01*
X908400Y-31750D01*
G37*
G36*
X914400Y-25750D02*
X928900Y-25750D01*
X928900Y-37750D01*
X914400Y-37750D01*
X914400Y-25750D01*
G37*
G54D22*
G36*
X149791Y-3088D02*
X149791Y-17588D01*
X134925Y-17588D01*
X134925Y-3088D01*
X149791Y-3088D01*
G37*
G36*
X142358Y-10521D02*
X127858Y-10521D01*
X127858Y4345D01*
X142358Y4345D01*
X142358Y-10521D01*
G37*
G36*
X134925Y-3088D02*
X134925Y11412D01*
X149791Y11412D01*
X149791Y-3088D01*
X134925Y-3088D01*
G37*
G36*
X142358Y4345D02*
X156858Y4345D01*
X156858Y-10521D01*
X142358Y-10521D01*
X142358Y4345D01*
G37*
X76200Y57150D02*
G54D23*
D03*
X76200Y-6350D02*
G54D23*
D03*
X142358Y-3088D02*
G54D23*
D03*
X142246Y47892D02*
G54D23*
D03*
X254000Y57150D02*
G54D23*
D03*
X254000Y-6350D02*
G54D23*
D03*
X294758Y-3088D02*
G54D23*
D03*
X294646Y47892D02*
G54D23*
D03*
X336550Y57150D02*
G54D23*
D03*
X336550Y-6350D02*
G54D23*
D03*
X377308Y-3088D02*
G54D23*
D03*
X377196Y47892D02*
G54D23*
D03*
X419100Y50800D02*
G54D23*
D03*
X419100Y-6350D02*
G54D23*
D03*
X459858Y-3088D02*
G54D23*
D03*
X459746Y47892D02*
G54D23*
D03*
X501650Y57150D02*
G54D23*
D03*
X501650Y-6350D02*
G54D23*
D03*
X542408Y-3088D02*
G54D23*
D03*
X542296Y47892D02*
G54D23*
D03*
X624958Y-3088D02*
G54D23*
D03*
X624846Y47892D02*
G54D23*
D03*
X666750Y50800D02*
G54D23*
D03*
X666750Y-6350D02*
G54D23*
D03*
X707508Y-3089D02*
G54D23*
D03*
X707396Y47892D02*
G54D23*
D03*
X838200Y50800D02*
G54D23*
D03*
X838200Y-6350D02*
G54D23*
D03*
X878958Y-9438D02*
G54D23*
D03*
X878846Y41542D02*
G54D23*
D03*
X34408Y-3088D02*
G54D23*
D03*
X34296Y47892D02*
G54D23*
D03*
X707508Y-3089D02*
G54D23*
D03*
X212208Y-3088D02*
G54D23*
D03*
X212096Y47892D02*
G54D23*
D03*
X212208Y-3088D02*
G54D23*
D03*
X212208Y-3088D02*
G54D23*
D03*
X212208Y-3089D02*
G54D23*
D03*
X212208Y-3089D02*
G54D23*
D03*
X771008Y-3089D02*
G54D23*
D03*
X770896Y47892D02*
G54D23*
D03*
X771008Y-3089D02*
G54D23*
D03*
X771008Y-3089D02*
G54D23*
D03*
X584200Y57150D02*
G54D23*
D03*
X584200Y-6350D02*
G54D23*
D03*
X0Y50800D02*
G54D23*
D03*
X0Y0D02*
G54D23*
D03*
X-107950Y-25400D02*
G54D23*
D03*
X-107950Y0D02*
G54D23*
D03*
X-31750Y56100D02*
G54D23*
D03*
X-88900Y56100D02*
G54D23*
D03*
X914400Y50800D02*
G54D23*
D03*
X914400Y12700D02*
G54D23*
D03*
X1009650Y-12700D02*
G54D23*
D03*
X1009650Y12700D02*
G54D23*
D03*
X946150Y56100D02*
G54D23*
D03*
X1003300Y56100D02*
G54D23*
D03*
X142358Y-3088D02*
G54D23*
D03*
X212208Y-3089D02*
G54D23*
D03*
X294758Y-3088D02*
G54D23*
D03*
X377308Y-3088D02*
G54D23*
D03*
X459858Y-3088D02*
G54D23*
D03*
X542408Y-3088D02*
G54D23*
D03*
X624958Y-3088D02*
G54D23*
D03*
G54D24*
X-88900Y56100D02*
X-88900Y57050D01*
X-114300Y31650D01*
X-114300Y6250D01*
X-107950Y0D01*
G54D24*
X-31750Y56100D02*
X-38100Y57050D01*
X0Y57050D01*
X0Y50800D01*
G54D24*
X0Y0D02*
X0Y6250D01*
X0Y57050D01*
X0Y50800D01*
X0Y-44450D02*
G54D23*
D03*
X914400Y-31750D02*
G54D23*
D03*
G54D24*
X34408Y-3088D02*
X38100Y0D01*
X76200Y38100D01*
X76200Y50800D01*
X76200Y57150D01*
G54D24*
X142246Y47892D02*
X139700Y50800D01*
X88900Y0D01*
X76200Y0D01*
X76200Y-6350D01*
G54D24*
X212096Y47892D02*
X215900Y50800D01*
X139700Y50800D01*
X142246Y47892D01*
G54D24*
X212096Y47892D02*
X215900Y50800D01*
X254000Y50800D01*
X254000Y57150D01*
G54D24*
X294646Y47892D02*
X292100Y50800D01*
X254000Y12700D01*
X254000Y0D01*
X254000Y-6350D01*
G54D24*
X336550Y57150D02*
X342900Y50800D01*
X292100Y50800D01*
X294646Y47892D01*
G54D24*
X377196Y47892D02*
X381000Y50800D01*
X342900Y12700D01*
X342900Y0D01*
X336550Y-6350D01*
G54D24*
X419100Y50800D02*
X381000Y50800D01*
X377196Y47892D01*
G54D24*
X459746Y47892D02*
X457200Y50800D01*
X419100Y12700D01*
X419100Y0D01*
X419100Y-6350D01*
G54D24*
X501650Y57150D02*
X495300Y50800D01*
X457200Y50800D01*
X459746Y47892D01*
G54D24*
X542296Y47892D02*
X546100Y50800D01*
X495300Y0D01*
X501650Y-6350D01*
G54D24*
X584200Y57150D02*
X584200Y50800D01*
X546100Y50800D01*
X542296Y47892D01*
G54D24*
X584200Y-6350D02*
X584200Y0D01*
X622300Y38100D01*
X622300Y50800D01*
X624846Y47892D01*
G54D24*
X666750Y50800D02*
X673100Y50800D01*
X622300Y50800D01*
X624846Y47892D01*
G54D24*
X707396Y47892D02*
X711200Y50800D01*
X673100Y12700D01*
X673100Y0D01*
X666750Y-6350D01*
G54D24*
X770896Y47892D02*
X774700Y50800D01*
X711200Y50800D01*
X707396Y47892D01*
G54D24*
X770896Y47892D02*
X774700Y50800D01*
X838200Y50800D01*
G54D24*
X878846Y41542D02*
X876300Y38100D01*
X838200Y0D01*
X838200Y-6350D01*
X0Y-44450D02*
G54D23*
D03*
X914400Y-31750D02*
G54D23*
D03*
X142358Y-3088D02*
G54D23*
D03*
G54D24*
X0Y0D02*
X38100Y38100D01*
X38100Y50800D01*
X34296Y47892D01*
G54D24*
X946150Y56100D02*
X952500Y50800D01*
X914400Y50800D01*
G54D24*
X914400Y12700D02*
X914400Y50800D01*
G54D24*
X914400Y50800D02*
X901700Y38100D01*
X901700Y25400D01*
X876300Y0D01*
X876300Y-12700D01*
X878958Y-9438D01*
G54D24*
X1003300Y56100D02*
X1003300Y50800D01*
X1003300Y12700D01*
X1009650Y12700D01*
M02*
