%FSLAX34Y34*%
%MOMM*%
%LNSOLDERMASK_BOTTOM*%
G71*
G01*
%ADD10C,2.600*%
%LPD*%
X76200Y57150D02*
G54D10*
D03*
X76200Y-6350D02*
G54D10*
D03*
X142358Y-3088D02*
G54D10*
D03*
X142246Y47892D02*
G54D10*
D03*
X254000Y57150D02*
G54D10*
D03*
X254000Y-6350D02*
G54D10*
D03*
X294758Y-3088D02*
G54D10*
D03*
X294646Y47892D02*
G54D10*
D03*
X336550Y57150D02*
G54D10*
D03*
X336550Y-6350D02*
G54D10*
D03*
X377308Y-3088D02*
G54D10*
D03*
X377196Y47892D02*
G54D10*
D03*
X419100Y50800D02*
G54D10*
D03*
X419100Y-6350D02*
G54D10*
D03*
X459858Y-3088D02*
G54D10*
D03*
X459746Y47892D02*
G54D10*
D03*
X501650Y57150D02*
G54D10*
D03*
X501650Y-6350D02*
G54D10*
D03*
X542408Y-3088D02*
G54D10*
D03*
X542296Y47892D02*
G54D10*
D03*
X624958Y-3088D02*
G54D10*
D03*
X624846Y47892D02*
G54D10*
D03*
X666750Y50800D02*
G54D10*
D03*
X666750Y-6350D02*
G54D10*
D03*
X707508Y-3089D02*
G54D10*
D03*
X707396Y47892D02*
G54D10*
D03*
X838200Y50800D02*
G54D10*
D03*
X838200Y-6350D02*
G54D10*
D03*
X878958Y-9438D02*
G54D10*
D03*
X878846Y41542D02*
G54D10*
D03*
X34408Y-3088D02*
G54D10*
D03*
X34296Y47892D02*
G54D10*
D03*
X707508Y-3089D02*
G54D10*
D03*
X212208Y-3088D02*
G54D10*
D03*
X212096Y47892D02*
G54D10*
D03*
X212208Y-3088D02*
G54D10*
D03*
X212208Y-3088D02*
G54D10*
D03*
X212208Y-3089D02*
G54D10*
D03*
X212208Y-3089D02*
G54D10*
D03*
X771008Y-3089D02*
G54D10*
D03*
X770896Y47892D02*
G54D10*
D03*
X771008Y-3089D02*
G54D10*
D03*
X771008Y-3089D02*
G54D10*
D03*
X584200Y57150D02*
G54D10*
D03*
X584200Y-6350D02*
G54D10*
D03*
X0Y50800D02*
G54D10*
D03*
X0Y0D02*
G54D10*
D03*
X-107950Y-25400D02*
G54D10*
D03*
X-107950Y0D02*
G54D10*
D03*
X-31750Y56100D02*
G54D10*
D03*
X-88900Y56100D02*
G54D10*
D03*
X914400Y50800D02*
G54D10*
D03*
X914400Y12700D02*
G54D10*
D03*
X1009650Y-12700D02*
G54D10*
D03*
X1009650Y12700D02*
G54D10*
D03*
X946150Y56100D02*
G54D10*
D03*
X1003300Y56100D02*
G54D10*
D03*
X142358Y-3088D02*
G54D10*
D03*
X212208Y-3089D02*
G54D10*
D03*
X294758Y-3088D02*
G54D10*
D03*
X377308Y-3088D02*
G54D10*
D03*
X459858Y-3088D02*
G54D10*
D03*
X542408Y-3088D02*
G54D10*
D03*
X624958Y-3088D02*
G54D10*
D03*
X0Y-44450D02*
G54D10*
D03*
X914400Y-31750D02*
G54D10*
D03*
X0Y-44450D02*
G54D10*
D03*
X914400Y-31750D02*
G54D10*
D03*
X142358Y-3088D02*
G54D10*
D03*
M02*
