%FSLAX34Y34*%
%MOMM*%
%LNSOLDERMASK_TOP*%
G71*
G01*
%ADD10C,2.600*%
%ADD11C,2.600*%
%ADD12C,2.400*%
%ADD13C,1.600*%
%ADD14C,4.900*%
%LPD*%
X285750Y231850D02*
G54D10*
D03*
X285750Y206450D02*
G54D10*
D03*
X120650Y126950D02*
G54D10*
D03*
X120650Y76150D02*
G54D10*
D03*
X425450Y76150D02*
G54D10*
D03*
X476250Y76150D02*
G54D10*
D03*
X215317Y221716D02*
G54D10*
D03*
X215267Y145466D02*
G54D10*
D03*
X215317Y221716D02*
G54D11*
D03*
X347331Y212702D02*
G54D10*
D03*
X347443Y161721D02*
G54D10*
D03*
X347331Y212702D02*
G54D11*
D03*
X308603Y120274D02*
G54D10*
D03*
X257622Y120161D02*
G54D10*
D03*
X308603Y120274D02*
G54D11*
D03*
X306816Y75538D02*
G54D10*
D03*
X230566Y75588D02*
G54D10*
D03*
X306816Y75539D02*
G54D11*
D03*
X94667Y253466D02*
G54D10*
D03*
X94617Y177216D02*
G54D10*
D03*
X94667Y253466D02*
G54D11*
D03*
X170858Y253392D02*
G54D10*
D03*
X94608Y253442D02*
G54D10*
D03*
X170858Y253392D02*
G54D11*
D03*
X170858Y253392D02*
G54D10*
D03*
X170808Y177142D02*
G54D10*
D03*
X170858Y253392D02*
G54D11*
D03*
X399467Y253466D02*
G54D10*
D03*
X399417Y177216D02*
G54D10*
D03*
X399467Y253466D02*
G54D11*
D03*
X475658Y253392D02*
G54D10*
D03*
X399408Y253442D02*
G54D10*
D03*
X475658Y253392D02*
G54D11*
D03*
X475658Y253392D02*
G54D10*
D03*
X475608Y177142D02*
G54D10*
D03*
X475658Y253392D02*
G54D11*
D03*
X29023Y221761D02*
G54D10*
D03*
X29023Y196361D02*
G54D10*
D03*
X524323Y221761D02*
G54D10*
D03*
X524323Y196361D02*
G54D10*
D03*
X524323Y107461D02*
G54D10*
D03*
X524323Y82061D02*
G54D10*
D03*
X327473Y304311D02*
G54D12*
D03*
X327473Y380511D02*
G54D12*
D03*
X251273Y380511D02*
G54D12*
D03*
X251273Y304311D02*
G54D12*
D03*
X116250Y374073D02*
G54D10*
D03*
X116250Y310573D02*
G54D10*
D03*
X205150Y374073D02*
G54D10*
D03*
X205150Y342323D02*
G54D10*
D03*
X205150Y310573D02*
G54D10*
D03*
X461690Y307280D02*
G54D10*
D03*
X461690Y370780D02*
G54D10*
D03*
X372790Y307280D02*
G54D10*
D03*
X372790Y339030D02*
G54D10*
D03*
X372790Y370780D02*
G54D10*
D03*
X543700Y250610D02*
G54D13*
D03*
X543700Y123610D02*
G54D13*
D03*
X10300Y237910D02*
G54D13*
D03*
X251600Y250610D02*
G54D13*
D03*
X25400Y31700D02*
G54D14*
D03*
G36*
X88600Y38400D02*
X114600Y38400D01*
X114600Y12400D01*
X88600Y12400D01*
X88600Y38400D01*
G37*
X533400Y31700D02*
G54D14*
D03*
G36*
X342600Y38400D02*
X368600Y38400D01*
X368600Y12400D01*
X342600Y12400D01*
X342600Y38400D01*
G37*
X25400Y361900D02*
G54D14*
D03*
X533400Y361900D02*
G54D14*
D03*
G36*
X50500Y394000D02*
X76500Y394000D01*
X76500Y368000D01*
X50500Y368000D01*
X50500Y394000D01*
G37*
G36*
X482300Y394000D02*
X508300Y394000D01*
X508300Y368000D01*
X482300Y368000D01*
X482300Y394000D01*
G37*
G36*
X12400Y152700D02*
X38400Y152700D01*
X38400Y126700D01*
X12400Y126700D01*
X12400Y152700D01*
G37*
G36*
X12400Y317800D02*
X38400Y317800D01*
X38400Y291800D01*
X12400Y291800D01*
X12400Y317800D01*
G37*
G36*
X520400Y317800D02*
X546400Y317800D01*
X546400Y291800D01*
X520400Y291800D01*
X520400Y317800D01*
G37*
G36*
X520400Y178100D02*
X546400Y178100D01*
X546400Y152100D01*
X520400Y152100D01*
X520400Y178100D01*
G37*
M02*
